<svg width="16" height="16" viewBox="0 0 16 16" fill="none" xmlns="http://www.w3.org/2000/svg"><path d="M4.427 1.679 C 3.701 1.834,3.277 2.231,3.031 2.987 C 2.981 3.141,2.931 3.318,2.921 3.380 L 2.902 3.493 2.651 3.493 L 2.400 3.493 2.400 3.813 L 2.400 4.133 2.640 4.133 L 2.880 4.133 2.880 4.387 L 2.880 4.640 2.640 4.640 L 2.400 4.640 2.400 4.960 L 2.400 5.280 2.650 5.280 L 2.900 5.280 2.918 5.418 C 2.942 5.598,3.079 6.024,3.180 6.231 C 3.380 6.643,3.779 6.966,4.241 7.091 C 4.888 7.266,5.757 7.216,6.291 6.972 C 6.759 6.758,6.825 6.310,6.420 6.103 L 6.313 6.049 5.936 6.123 C 5.435 6.221,4.995 6.226,4.768 6.137 C 4.503 6.033,4.306 5.749,4.252 5.393 L 4.235 5.280 4.931 5.280 L 5.627 5.280 5.627 4.960 L 5.627 4.640 4.920 4.640 L 4.213 4.640 4.213 4.387 L 4.213 4.133 4.920 4.133 L 5.627 4.133 5.627 3.813 L 5.627 3.493 4.967 3.493 C 4.604 3.493,4.290 3.482,4.269 3.469 C 4.238 3.449,4.241 3.415,4.293 3.256 C 4.461 2.731,4.765 2.556,5.439 2.596 C 5.594 2.605,5.816 2.631,5.933 2.654 C 6.173 2.700,6.257 2.690,6.423 2.595 C 6.631 2.475,6.704 2.162,6.567 1.977 C 6.455 1.826,6.199 1.713,5.831 1.654 C 5.548 1.608,4.687 1.623,4.427 1.679 M8.547 8.028 C 7.970 8.072,7.415 8.380,7.054 8.857 C 6.919 9.035,6.705 9.454,6.677 9.596 C 6.668 9.642,6.648 9.680,6.632 9.680 C 6.617 9.680,6.226 9.567,5.762 9.429 C 4.388 9.019,4.320 9.006,3.779 9.065 C 3.421 9.103,3.206 9.168,2.876 9.337 C 2.277 9.644,1.880 10.054,1.693 10.560 C 1.626 10.742,1.619 10.793,1.619 11.120 C 1.618 11.540,1.661 11.704,1.853 12.014 C 1.978 12.215,2.278 12.524,2.422 12.598 C 2.646 12.713,5.599 13.856,6.180 14.051 C 6.352 14.109,6.634 14.187,6.805 14.225 C 7.526 14.385,7.385 14.378,10.674 14.393 L 13.708 14.406 13.874 14.344 C 14.266 14.197,14.474 13.793,14.361 13.398 C 14.301 13.187,14.204 13.052,14.029 12.936 L 13.885 12.840 13.256 12.823 C 12.910 12.813,11.745 12.803,10.667 12.801 C 8.245 12.797,7.644 12.776,7.244 12.682 C 7.085 12.645,6.852 12.584,6.727 12.545 C 6.268 12.406,3.292 11.250,3.229 11.187 C 3.135 11.093,3.388 10.828,3.680 10.718 C 3.884 10.640,4.164 10.625,4.373 10.679 C 4.469 10.704,5.159 10.916,5.907 11.151 C 7.805 11.746,7.910 11.771,8.878 11.867 C 10.367 12.015,10.573 12.020,10.777 11.918 C 11.251 11.679,11.333 10.949,10.926 10.600 C 10.744 10.444,10.694 10.435,9.080 10.279 C 8.604 10.233,8.340 10.196,8.300 10.171 C 8.158 10.079,8.284 9.783,8.517 9.661 C 8.719 9.556,10.344 9.561,10.837 9.668 C 11.251 9.757,11.834 10.001,12.159 10.220 C 12.349 10.348,12.632 10.580,12.887 10.816 C 13.211 11.116,13.344 11.185,13.600 11.185 C 13.841 11.186,13.996 11.124,14.156 10.964 C 14.334 10.786,14.383 10.663,14.383 10.400 C 14.383 10.097,14.335 10.010,13.963 9.641 C 12.994 8.679,11.725 8.110,10.365 8.026 C 9.897 7.998,8.935 7.999,8.547 8.028 " fill="#1A1C1F" stroke="none" fill-rule="evenodd"></path></svg>