<svg xmlns="http://www.w3.org/2000/svg" width="32" height="32" fill="none"><g clip-path="url(#a)"><path fill="#1A1C1F" fill-rule="evenodd" d="M21.604 18.501a9 9 0 0 1 5.121 1.6q1.503 1.04 2.145 1.6a1 1 0 0 1 .2 1.4c-.305.408-.919.538-1.295.269q-.375-.27-1.97-1.469a7 7 0 0 0-3.899-1.393l-3.574-.007a1.64 1.64 0 0 0-1.59 1.243.62.62 0 0 0 .516.757h4.012a1 1 0 1 1 0 2h-3.94c-.86-.012-1.202-.185-3.178-1q-.81-.335-2.916-1.16a3.49 3.49 0 0 0-3.366.46c-.156.117-.232.48.092.615q.313.129 7.326 2.664a7 7 0 0 0 2.043.412l5.147.009q.712 0 1.415.112l4.574.907a1 1 0 1 1-.393 1.962l-4.223-.845a7 7 0 0 0-1.027-.127l-5.145-.009c-.917 0-1.829-.14-2.704-.416l-7.698-2.79a2.353 2.353 0 0 1-.608-4.094 5.49 5.49 0 0 1 5.05-.81l3.023 1.174c.234-1.75 1.877-3.064 3.527-3.064zm-10.875-16a8 8 0 1 1 0 16 8 8 0 0 1 0-16m0 2a6 6 0 1 0 0 12 6 6 0 0 0 0-12m.558 2q.849 0 1.533.222c.304.104.61.42.504.827-.146.485-.624.553-.955.467a3.8 3.8 0 0 0-.963-.13q-.736 0-1.06.308-.326.309-.456 1.023h2.003v.91H9.87v.714h2.024v.91H9.89q.098.758.433 1.05.336.291 1.104.292c.326 0 1.2-.2 1.276-.215.248-.052.551.111.654.38.2.518-.256.787-.392.863-.137.076-.515.208-.829.276q-.47.103-.947.103-1.028 0-1.683-.292a2.2 2.2 0 0 1-1.018-.893q-.362-.6-.503-1.565H7.27v-.909h.682v-.714H7.27v-.91h.715q.184-.986.563-1.575c.249-.39.612-.692 1.04-.866q.66-.276 1.7-.276" clip-rule="evenodd"/></g><defs><clipPath id="a"><path fill="#fff" d="M0 0h32v32H0z"/></clipPath></defs></svg>