<svg width="24" height="24" viewBox="0 0 24 24" fill="none" xmlns="http://www.w3.org/2000/svg"><path d="M7.160 2.559 C 5.912 2.683,5.021 3.194,4.508 4.081 C 4.301 4.438,4.035 5.197,3.902 5.810 L 3.878 5.920 3.439 5.920 L 3.000 5.920 3.000 6.480 L 3.000 7.040 3.420 7.040 L 3.840 7.040 3.840 7.480 L 3.840 7.920 3.420 7.920 L 3.000 7.920 3.000 8.500 L 3.000 9.080 3.350 9.084 C 3.774 9.089,3.896 9.119,3.912 9.222 C 3.919 9.265,3.970 9.489,4.027 9.720 C 4.224 10.531,4.519 11.110,4.947 11.528 C 5.349 11.922,5.574 12.060,6.100 12.236 C 6.646 12.418,7.094 12.483,7.800 12.483 C 9.242 12.482,10.446 12.048,10.640 11.459 C 10.742 11.151,10.562 10.727,10.265 10.571 C 10.096 10.483,9.725 10.493,9.200 10.601 C 8.612 10.722,7.785 10.750,7.440 10.661 C 6.816 10.500,6.513 10.154,6.345 9.412 C 6.309 9.254,6.280 9.115,6.280 9.103 C 6.280 9.091,6.843 9.076,7.530 9.071 L 8.780 9.060 8.791 8.516 L 8.802 7.972 8.375 7.946 C 8.140 7.932,7.563 7.920,7.094 7.920 L 6.240 7.920 6.240 7.481 L 6.240 7.041 7.510 7.031 L 8.780 7.020 8.791 6.470 L 8.802 5.920 7.541 5.920 C 6.848 5.920,6.280 5.907,6.281 5.890 C 6.283 5.747,6.428 5.298,6.541 5.084 C 6.768 4.652,6.991 4.461,7.420 4.335 C 7.778 4.229,8.518 4.239,9.208 4.357 C 9.883 4.473,10.030 4.448,10.324 4.163 C 10.564 3.929,10.637 3.716,10.565 3.447 C 10.407 2.848,9.695 2.572,8.225 2.541 C 7.826 2.532,7.347 2.540,7.160 2.559 M12.720 13.200 C 12.139 13.278,11.653 13.519,11.185 13.962 C 10.846 14.284,10.643 14.581,10.455 15.035 C 10.394 15.181,10.342 15.305,10.338 15.311 C 10.334 15.317,9.901 15.171,9.375 14.987 C 7.736 14.411,7.933 14.460,7.280 14.460 C 6.577 14.460,6.398 14.499,5.820 14.782 C 5.349 15.011,4.995 15.284,4.730 15.620 C 4.359 16.091,4.240 16.426,4.240 16.999 C 4.240 17.673,4.423 18.131,4.879 18.601 C 5.120 18.850,5.199 18.899,5.920 19.251 C 6.790 19.675,8.258 20.349,9.080 20.700 C 9.750 20.987,10.136 21.119,10.702 21.254 C 11.656 21.482,11.681 21.483,15.220 21.506 C 18.778 21.529,20.256 21.496,20.467 21.387 C 20.742 21.245,21.000 20.806,21.000 20.480 C 21.000 20.172,20.735 19.755,20.451 19.617 C 20.309 19.547,20.077 19.541,16.560 19.513 C 14.503 19.496,12.523 19.465,12.160 19.444 C 11.359 19.397,10.999 19.310,10.099 18.948 C 8.712 18.390,6.311 17.254,6.241 17.123 C 6.178 17.005,6.279 16.832,6.500 16.680 C 6.855 16.436,7.251 16.376,7.678 16.503 C 7.795 16.538,8.568 16.815,9.395 17.118 C 12.152 18.129,11.914 18.072,13.835 18.183 C 15.271 18.267,15.349 18.256,15.659 17.946 C 15.898 17.706,15.980 17.481,15.952 17.142 C 15.928 16.855,15.759 16.580,15.513 16.428 C 15.293 16.292,15.135 16.269,13.800 16.181 C 12.305 16.081,12.301 16.080,12.330 15.819 C 12.356 15.588,12.506 15.394,12.749 15.275 C 12.919 15.193,13.009 15.181,13.580 15.168 C 13.932 15.160,14.607 15.172,15.080 15.193 C 16.039 15.237,16.327 15.298,17.015 15.601 C 17.565 15.842,17.837 16.023,18.700 16.716 C 19.140 17.070,19.557 17.386,19.626 17.419 C 19.770 17.489,20.182 17.500,20.343 17.439 C 20.521 17.371,20.754 17.164,20.864 16.976 C 20.948 16.834,20.968 16.746,20.969 16.524 C 20.973 16.022,20.848 15.870,19.650 14.913 C 18.759 14.202,18.125 13.839,17.284 13.559 C 16.633 13.342,16.083 13.240,15.340 13.199 C 14.591 13.157,13.037 13.158,12.720 13.200 " fill="#1A1C1F" stroke="none" fill-rule="evenodd"></path></svg>