<svg width="20" height="20" viewBox="0 0 20 20" fill="none" xmlns="http://www.w3.org/2000/svg"><path d="M5.920 2.033 C 5.001 2.148,4.405 2.498,4.043 3.136 C 3.902 3.384,3.695 3.960,3.651 4.225 L 3.627 4.367 3.314 4.367 L 3.000 4.367 3.000 4.767 L 3.000 5.167 3.300 5.167 L 3.600 5.167 3.600 5.483 L 3.600 5.800 3.300 5.800 L 3.000 5.800 3.000 6.200 L 3.000 6.600 3.312 6.600 L 3.625 6.600 3.648 6.772 C 3.678 6.999,3.849 7.533,3.973 7.783 C 4.279 8.404,4.835 8.793,5.617 8.932 C 6.567 9.102,7.771 8.902,8.176 8.507 C 8.467 8.224,8.398 7.819,8.025 7.629 L 7.891 7.561 7.421 7.654 C 6.807 7.775,6.284 7.782,5.983 7.674 C 5.633 7.547,5.384 7.204,5.319 6.758 L 5.296 6.600 6.165 6.600 L 7.033 6.600 7.033 6.200 L 7.033 5.800 6.150 5.800 L 5.267 5.800 5.267 5.483 L 5.267 5.167 6.150 5.167 L 7.033 5.167 7.033 4.767 L 7.033 4.367 6.208 4.366 C 5.755 4.366,5.362 4.352,5.336 4.336 C 5.297 4.311,5.302 4.269,5.366 4.070 C 5.509 3.623,5.729 3.385,6.097 3.278 C 6.322 3.213,6.990 3.232,7.426 3.318 C 7.679 3.367,7.716 3.367,7.862 3.318 C 8.226 3.197,8.410 2.797,8.233 2.508 C 8.159 2.385,7.913 2.217,7.734 2.165 C 7.348 2.054,6.339 1.981,5.920 2.033 M10.650 10.032 C 9.634 10.125,8.713 10.881,8.385 11.891 C 8.354 11.987,8.315 12.074,8.298 12.085 C 8.281 12.095,7.791 11.961,7.209 11.788 C 5.497 11.277,5.683 11.318,5.117 11.321 C 4.383 11.325,4.009 11.427,3.343 11.805 C 3.029 11.983,2.553 12.427,2.352 12.730 C 1.705 13.704,1.991 15.047,2.990 15.728 C 3.214 15.880,7.695 17.581,8.222 17.713 C 9.003 17.910,9.238 17.940,10.217 17.968 C 10.730 17.983,12.502 17.996,14.155 17.998 L 17.161 18.000 17.355 17.926 C 17.953 17.698,18.179 16.956,17.812 16.427 C 17.710 16.279,17.485 16.111,17.323 16.062 C 17.260 16.043,15.700 16.018,13.450 16.001 C 9.377 15.969,9.530 15.977,8.759 15.781 C 8.185 15.636,4.160 14.103,4.037 13.983 C 3.917 13.867,4.236 13.535,4.600 13.397 C 4.855 13.300,5.205 13.281,5.467 13.349 C 5.586 13.381,6.424 13.638,7.328 13.921 C 9.911 14.728,9.882 14.721,11.213 14.850 C 13.131 15.035,13.273 15.034,13.566 14.838 C 14.190 14.419,14.106 13.426,13.420 13.114 C 13.244 13.034,13.264 13.037,11.150 12.831 C 10.747 12.792,10.392 12.747,10.362 12.731 C 10.160 12.623,10.395 12.171,10.718 12.048 C 10.838 12.002,11.022 11.997,12.087 12.008 C 13.206 12.019,13.342 12.027,13.600 12.091 C 14.004 12.192,14.331 12.316,14.733 12.518 C 15.150 12.727,15.446 12.932,15.846 13.287 C 16.466 13.839,16.546 13.899,16.731 13.954 C 17.070 14.055,17.437 13.956,17.702 13.690 C 17.922 13.471,17.981 13.327,17.980 13.017 C 17.978 12.582,17.849 12.383,17.185 11.792 C 16.174 10.892,14.844 10.276,13.498 10.083 C 13.060 10.021,11.149 9.986,10.650 10.032 " fill="#1A1C1F" stroke="none" fill-rule="evenodd"></path></svg>