<svg xmlns="http://www.w3.org/2000/svg" width="16" height="16" fill="none"><g clip-path="url(#a)"><path fill="#1A1C1F" fill-rule="evenodd" d="M10.035 8a5.62 5.62 0 0 1 3.746 1.452l.388.381a.8.8 0 0 1-1.056 1.198l-.287-.279c-.693-.69-1.626-1.13-2.583-1.164-.957-.032-1.17.003-1.444 0a.58.58 0 0 0-.583.432c-.02.08.03.17.133.187q.103.016 2.128.196a.8.8 0 0 1 .723.87c-.037.41-.364.75-.776.726a85 85 0 0 1-2.223-.2c-.397-.041-.744-.166-1.162-.298q-.417-.133-2.632-.82a1.1 1.1 0 0 0-1.181.359c-.047.057-.044.165.09.217l3.072 1.175a5.6 5.6 0 0 0 1.74.361l5.476.007a.8.8 0 0 1 .8.8c0 .41-.341.8-.8.8h-5.22c-.78 0-1.673-.143-2.292-.375q-.619-.232-3.38-1.283a1.733 1.733 0 0 1-.73-2.71 2.7 2.7 0 0 1 2.738-.925l1.928.59C6.9 8.7 7.698 8.05 8.656 8zm-4.73-1.786c.229 0 .84-.14.894-.15.174-.037.385.078.458.265.14.363-.18.551-.275.605a2.8 2.8 0 0 1-.58.193q-.33.072-.663.072-.72 0-1.178-.205a1.55 1.55 0 0 1-.712-.625q-.255-.42-.353-1.095h-.5V4.64h.477v-.5h-.477v-.637h.5q.129-.69.394-1.103.266-.412.728-.606.461-.193 1.19-.193.594 0 1.073.156c.213.072.426.293.352.578-.102.34-.437.388-.668.327q-.332-.09-.674-.09-.516 0-.743.215-.227.216-.318.716h1.402v.637H4.215v.5h1.417v.636H4.23q.067.532.303.735.235.205.773.205z" clip-rule="evenodd"/></g><defs><clipPath id="a"><path fill="#fff" d="M0 0h16v16H0z"/></clipPath></defs></svg>