<svg width="12" height="12" viewBox="0 0 12 12" fill="none" xmlns="http://www.w3.org/2000/svg"><path d="M3.310 1.260 C 2.918 1.344,2.606 1.563,2.426 1.882 C 2.342 2.029,2.212 2.389,2.188 2.541 L 2.175 2.620 1.987 2.620 L 1.800 2.620 1.800 2.860 L 1.800 3.100 1.980 3.100 L 2.160 3.100 2.160 3.290 L 2.160 3.480 1.980 3.480 L 1.800 3.480 1.800 3.720 L 1.800 3.960 1.986 3.960 L 2.172 3.960 2.195 4.095 C 2.224 4.266,2.305 4.515,2.382 4.672 C 2.590 5.095,3.008 5.343,3.575 5.380 C 4.170 5.419,4.694 5.311,4.905 5.105 C 5.080 4.934,5.039 4.692,4.815 4.577 L 4.735 4.536 4.452 4.592 C 4.084 4.665,3.770 4.669,3.590 4.604 C 3.380 4.528,3.230 4.322,3.191 4.055 L 3.178 3.960 3.699 3.960 L 4.220 3.960 4.220 3.720 L 4.220 3.480 3.690 3.480 L 3.160 3.480 3.160 3.290 L 3.160 3.100 3.690 3.100 L 4.220 3.100 4.220 2.860 L 4.220 2.620 3.725 2.620 C 3.453 2.620,3.217 2.611,3.202 2.601 C 3.178 2.586,3.180 2.562,3.218 2.447 C 3.306 2.178,3.442 2.030,3.658 1.967 C 3.793 1.928,4.194 1.939,4.456 1.990 C 4.640 2.026,4.708 2.015,4.843 1.929 C 4.974 1.845,5.019 1.622,4.931 1.489 C 4.880 1.412,4.752 1.338,4.574 1.284 C 4.423 1.238,4.372 1.233,3.950 1.227 C 3.553 1.222,3.465 1.226,3.310 1.260 M6.390 6.019 C 5.781 6.075,5.228 6.529,5.031 7.135 C 5.012 7.192,4.989 7.245,4.978 7.251 C 4.968 7.257,4.674 7.177,4.325 7.073 C 3.506 6.828,3.418 6.805,3.248 6.789 C 3.063 6.771,2.651 6.812,2.483 6.864 C 2.321 6.914,2.075 7.035,1.897 7.152 C 1.691 7.289,1.438 7.567,1.341 7.765 C 1.048 8.363,1.232 9.046,1.793 9.436 C 1.862 9.484,2.262 9.644,3.340 10.054 C 4.725 10.580,4.798 10.605,5.260 10.702 C 5.527 10.758,5.597 10.764,6.140 10.780 C 6.465 10.790,7.533 10.798,8.514 10.799 C 10.287 10.800,10.299 10.800,10.412 10.757 C 10.647 10.670,10.788 10.460,10.788 10.200 C 10.788 9.953,10.681 9.783,10.454 9.667 L 10.350 9.613 8.080 9.599 C 5.597 9.582,5.711 9.588,5.225 9.459 C 4.992 9.397,4.631 9.266,3.638 8.883 C 2.432 8.418,2.400 8.403,2.400 8.326 C 2.400 8.281,2.574 8.130,2.703 8.063 C 2.820 8.003,2.836 8.000,3.061 8.000 L 3.297 8.000 4.114 8.258 C 5.303 8.633,5.776 8.777,5.932 8.810 C 6.107 8.846,6.878 8.929,7.450 8.972 C 7.945 9.010,7.990 9.005,8.153 8.893 C 8.227 8.843,8.267 8.794,8.320 8.690 C 8.382 8.570,8.390 8.536,8.390 8.402 C 8.390 8.276,8.380 8.231,8.334 8.136 C 8.303 8.073,8.240 7.989,8.194 7.950 C 8.058 7.833,8.021 7.826,6.810 7.709 C 6.453 7.674,6.255 7.647,6.225 7.628 C 6.136 7.571,6.176 7.422,6.317 7.295 C 6.421 7.201,6.512 7.191,7.200 7.193 C 7.785 7.195,8.046 7.221,8.350 7.310 C 8.824 7.448,9.179 7.664,9.649 8.098 C 9.918 8.347,9.994 8.387,10.199 8.388 C 10.378 8.389,10.490 8.344,10.621 8.217 C 10.740 8.101,10.788 7.983,10.789 7.800 C 10.790 7.683,10.780 7.630,10.745 7.558 C 10.684 7.435,10.514 7.251,10.262 7.034 C 9.650 6.509,8.890 6.163,8.099 6.050 C 7.836 6.012,6.690 5.992,6.390 6.019 " fill="#1A1C1F" stroke="none" fill-rule="evenodd"></path></svg>