<svg xmlns="http://www.w3.org/2000/svg" width="24" height="24" fill="none"><g clip-path="url(#a)"><path fill="#1A1C1F" fill-rule="evenodd" d="M15.035 13.167a7 7 0 0 1 4.257 1.443l1.35 1.124a1 1 0 0 1-1.183 1.607l-1.212-1.006c-.83-.696-2.067-1.154-2.942-1.161q-.876-.007-2.2-.007a.826.826 0 0 0-.804.64.23.23 0 0 0 .174.28l2.59.165A1 1 0 0 1 15 18.248l-2.551-.149c-.569-.052-1.035-.233-1.778-.513q-1.497-.555-3-1.097a1.255 1.255 0 0 0-1.405.39c-.087.107-.078.307.09.384l3.472 1.597a7 7 0 0 0 2.588.632L20 19.5a1 1 0 0 1 1 1c0 .513-.402 1-1 1h-7.249a9 9 0 0 1-3.403-.668q-3.999-1.794-4.305-2.047c-.949-.787-1.114-2.199-.332-3.164a3.26 3.26 0 0 1 3.455-1.073l2.192.79c.308-1.29 1.507-2.16 2.57-2.166q1.053-.006 2.107-.005M8.196 10.74c.407 0 1.5-.249 1.595-.269.31-.064.688.14.818.475.25.648-.32.984-.491 1.08-.17.095-.643.259-1.035.344q-.585.13-1.184.13-1.287 0-2.105-.365c-.53-.23-.975-.62-1.272-1.117q-.453-.75-.629-1.955H3V7.926h.853v-.893H3V5.896h.893q.23-1.23.704-1.968a2.8 2.8 0 0 1 1.299-1.083Q6.721 2.5 8.02 2.5q1.062 0 1.917.278c.38.13.761.525.63 1.033-.182.607-.78.692-1.194.583a4.7 4.7 0 0 0-1.204-.162q-.92 0-1.326.386-.405.385-.568 1.278h2.503v1.137h-2.53v.893h2.53v1.137H6.275q.12.947.541 1.313.42.365 1.38.365z" clip-rule="evenodd"/></g><defs><clipPath id="a"><path fill="#fff" d="M0 0h24v24H0z"/></clipPath></defs></svg>