<svg xmlns="http://www.w3.org/2000/svg" width="14" height="14" fill="none"><g clip-path="url(#a)"><path fill="#1A1C1F" fill-rule="evenodd" d="M8.78 7a4.92 4.92 0 0 1 3.278 1.272l.34.333a.7.7 0 0 1-.924 1.049l-.252-.244c-.605-.605-1.422-.99-2.26-1.018-.837-.03-1.024.002-1.263 0a.506.506 0 0 0-.51.377c-.018.07.026.147.116.163q.09.015 1.863.172a.7.7 0 0 1 .632.762c-.033.357-.318.656-.68.635a74 74 0 0 1-1.944-.175c-.348-.037-.652-.146-1.017-.263l-2.303-.717a.96.96 0 0 0-1.034.315c-.04.05-.038.144.079.19l2.688 1.027a4.9 4.9 0 0 0 1.523.317l4.79.005a.7.7 0 0 1 .7.7c0 .36-.297.7-.7.7H7.337c-.682 0-1.463-.123-2.005-.327q-.54-.204-2.958-1.123a1.516 1.516 0 0 1-.638-2.37 2.36 2.36 0 0 1 2.396-.81l1.687.517c.22-.873.918-1.441 1.757-1.486zM4.642 5.44c.2 0 .735-.122.782-.132.15-.031.337.069.4.233.123.318-.157.482-.24.529a2.4 2.4 0 0 1-.508.169q-.286.062-.58.063-.63 0-1.03-.18a1.35 1.35 0 0 1-.624-.546q-.222-.368-.308-.958h-.438V4.06h.418v-.44h-.418v-.556h.438q.113-.604.344-.964.232-.362.637-.53.405-.17 1.04-.17.521 0 .94.136c.187.064.373.257.309.507-.09.297-.383.338-.585.285a2.3 2.3 0 0 0-.59-.08q-.45 0-.65.19-.199.19-.278.626h1.225v.557h-1.24v.438h1.24v.557H3.7q.06.465.265.643.205.18.676.179" clip-rule="evenodd"/></g><defs><clipPath id="a"><path fill="#fff" d="M0 0h14v14H0z"/></clipPath></defs></svg>