<svg width="32" height="32" viewBox="0 0 32 32" fill="none" xmlns="http://www.w3.org/2000/svg"><path d="M9.650 2.588 C 8.611 2.750,7.713 3.049,6.907 3.501 C 4.853 4.651,3.446 6.516,2.908 8.800 C 2.670 9.809,2.702 11.402,2.981 12.453 C 3.238 13.421,3.513 14.052,4.008 14.809 C 5.230 16.675,7.131 17.955,9.309 18.378 C 10.028 18.518,11.527 18.506,12.250 18.354 C 13.864 18.014,15.183 17.302,16.353 16.137 C 17.339 15.155,17.936 14.169,18.366 12.810 C 18.655 11.897,18.687 11.658,18.684 10.480 C 18.680 9.292,18.629 8.956,18.310 8.000 C 17.518 5.630,15.619 3.714,13.286 2.932 C 12.587 2.698,12.133 2.618,11.181 2.560 C 10.170 2.499,10.233 2.497,9.650 2.588 M11.346 4.587 C 12.183 4.651,12.697 4.797,13.440 5.178 C 15.356 6.164,16.579 8.049,16.678 10.166 C 16.765 12.028,16.139 13.601,14.811 14.863 C 13.519 16.090,11.884 16.626,10.005 16.437 C 8.707 16.307,7.482 15.707,6.506 14.724 C 5.753 13.965,5.197 12.995,4.923 11.961 C 4.803 11.507,4.785 11.330,4.782 10.587 C 4.780 9.700,4.833 9.281,5.024 8.693 C 5.553 7.065,6.811 5.681,8.372 5.008 C 9.366 4.580,10.023 4.487,11.346 4.587 M10.373 6.581 C 9.620 6.708,9.095 6.979,8.724 7.432 C 8.485 7.723,8.202 8.337,8.074 8.840 L 7.976 9.227 7.615 9.227 L 7.253 9.227 7.253 9.680 L 7.253 10.133 7.600 10.133 L 7.947 10.133 7.947 10.480 L 7.947 10.827 7.600 10.827 L 7.253 10.827 7.253 11.280 L 7.253 11.733 7.627 11.733 C 7.954 11.733,8.000 11.746,8.000 11.831 C 8.000 11.885,8.045 12.108,8.101 12.325 C 8.384 13.432,9.010 14.100,10.027 14.380 C 10.561 14.527,11.733 14.516,12.283 14.358 C 12.902 14.181,13.194 14.016,13.305 13.783 C 13.433 13.514,13.384 13.242,13.174 13.053 C 12.982 12.880,12.824 12.870,12.160 12.987 C 11.911 13.031,11.511 13.067,11.273 13.067 C 10.903 13.067,10.798 13.045,10.559 12.920 C 10.232 12.749,9.996 12.391,9.940 11.983 L 9.906 11.733 10.899 11.733 L 11.893 11.733 11.893 11.280 L 11.893 10.827 10.880 10.827 L 9.867 10.827 9.867 10.480 L 9.867 10.133 10.880 10.133 L 11.893 10.133 11.893 9.680 L 11.893 9.227 10.973 9.226 C 10.467 9.225,10.018 9.203,9.975 9.175 C 9.906 9.132,9.909 9.087,9.997 8.829 C 10.114 8.483,10.402 8.123,10.639 8.024 C 10.940 7.898,11.412 7.879,12.053 7.968 C 12.507 8.031,12.718 8.038,12.864 7.998 C 13.232 7.896,13.413 7.495,13.259 7.127 C 13.109 6.767,12.508 6.574,11.413 6.533 C 11.037 6.519,10.635 6.537,10.373 6.581 M17.920 18.557 C 17.539 18.586,17.321 18.635,17.039 18.754 C 16.331 19.054,15.607 19.638,15.256 20.191 C 15.059 20.502,14.773 21.224,14.773 21.412 C 14.773 21.486,14.761 21.547,14.746 21.547 C 14.730 21.547,14.023 21.282,13.175 20.960 C 11.132 20.182,10.954 20.141,9.760 20.174 C 8.656 20.204,8.423 20.264,7.444 20.761 C 6.414 21.285,5.962 21.808,5.778 22.689 C 5.716 22.988,5.712 23.134,5.759 23.402 C 5.868 24.031,6.244 24.658,6.701 24.974 C 7.076 25.233,14.638 28.016,15.707 28.288 C 16.328 28.446,17.021 28.483,20.322 28.535 L 23.657 28.587 25.762 29.010 C 28.402 29.541,28.347 29.534,28.655 29.397 C 28.935 29.274,29.196 28.953,29.250 28.668 C 29.335 28.215,28.995 27.698,28.531 27.573 C 28.200 27.484,25.673 26.967,24.453 26.739 L 23.440 26.549 20.107 26.504 C 18.162 26.478,16.640 26.435,16.453 26.401 C 16.027 26.324,14.880 25.934,11.982 24.883 C 8.094 23.472,7.785 23.344,7.743 23.128 C 7.712 22.971,7.937 22.738,8.305 22.547 C 8.953 22.211,9.170 22.162,10.000 22.164 L 10.747 22.166 11.493 22.450 C 11.904 22.605,12.828 22.972,13.547 23.264 C 15.309 23.980,16.114 24.286,16.560 24.406 C 16.897 24.496,17.146 24.506,19.147 24.506 C 21.530 24.507,21.602 24.499,21.929 24.225 C 22.392 23.835,22.331 23.030,21.813 22.687 L 21.602 22.547 19.347 22.520 C 16.886 22.491,16.992 22.505,16.821 22.176 C 16.715 21.970,16.729 21.773,16.874 21.461 C 17.024 21.141,17.301 20.848,17.615 20.680 C 17.840 20.560,17.840 20.560,20.293 20.570 C 22.713 20.579,22.754 20.581,23.258 20.711 C 24.371 20.998,25.001 21.335,26.613 22.508 C 27.987 23.507,28.050 23.542,28.357 23.500 C 28.683 23.456,28.934 23.292,29.089 23.022 C 29.479 22.342,29.289 21.985,28.042 21.053 C 26.103 19.604,24.797 18.952,23.271 18.672 C 22.776 18.582,22.388 18.563,20.560 18.542 C 19.387 18.529,18.199 18.536,17.920 18.557 " fill="#1A1C1F" stroke="none" fill-rule="evenodd"></path></svg>