<svg xmlns="http://www.w3.org/2000/svg" width="20" height="20" fill="none"><g clip-path="url(#a)"><path fill="#1A1C1F" fill-rule="evenodd" d="M12.543 10c1.732.016 3.412.65 4.683 1.816l.486.477a1 1 0 0 1-1.32 1.497l-.36-.349c-.864-.864-2.03-1.414-3.227-1.455-1.197-.04-1.464.004-1.806 0-.343-.002-.648.207-.73.54-.024.1.039.21.167.232q.129.022 2.662.247A1 1 0 0 1 14 14.093c-.047.51-.455.937-.971.907-.516-.029-2.282-.198-2.778-.25-.497-.052-.931-.209-1.453-.374q-.522-.165-3.29-1.026a1.38 1.38 0 0 0-1.477.45c-.058.07-.055.206.112.271l3.84 1.47a7 7 0 0 0 2.176.452l6.845.007a1 1 0 0 1 1 1c0 .513-.426 1-1 1h-6.526c-.974 0-2.09-.177-2.864-.468q-.773-.29-4.226-1.604a2.166 2.166 0 0 1-.911-3.387A3.38 3.38 0 0 1 5.9 11.384l2.41.739c.317-1.247 1.312-2.06 2.51-2.123zm-5.91-2.231c.284 0 1.05-.175 1.116-.188.217-.045.482.097.572.332.175.454-.224.689-.344.755s-.45.182-.724.242Q6.84 9 6.423 9q-.9 0-1.472-.256a1.94 1.94 0 0 1-.89-.781q-.319-.526-.44-1.369h-.626v-.796h.597v-.625h-.597v-.795h.625q.162-.863.493-1.379t.91-.757Q5.598 2 6.508 2q.743 0 1.342.194c.266.091.533.368.44.724-.127.425-.545.484-.835.408a3.3 3.3 0 0 0-.843-.114q-.644 0-.928.27t-.398.896h1.753v.795H5.268v.625H7.04v.796H5.287q.085.663.38.919.293.256.966.256" clip-rule="evenodd"/></g><defs><clipPath id="a"><path fill="#fff" d="M0 0h20v20H0z"/></clipPath></defs></svg>