<svg xmlns="http://www.w3.org/2000/svg" width="12" height="12" fill="none"><g clip-path="url(#a)"><path fill="#1A1C1F" fill-rule="evenodd" d="M7.526 6c1.04.01 2.047.39 2.81 1.09l.29.286a.6.6 0 0 1-.791.898l-.215-.21c-.52-.518-1.22-.848-1.937-.872s-.878.002-1.084 0a.434.434 0 0 0-.437.323c-.015.061.023.127.1.14q.075.014 1.597.148a.6.6 0 0 1 .542.653c-.03.306-.273.562-.583.544-.31-.017-1.37-.119-1.667-.15-.298-.03-.56-.125-.872-.224q-.987-.31-1.974-.616a.83.83 0 0 0-.886.27c-.034.042-.033.124.068.163q.099.038 2.304.881a4.2 4.2 0 0 0 1.305.272l4.107.004a.6.6 0 0 1 .6.6c0 .308-.256.6-.6.6H6.288c-.585 0-1.255-.106-1.72-.28q-1.267-.48-2.535-.963a1.3 1.3 0 0 1-.546-2.032 2.03 2.03 0 0 1 2.053-.694l1.446.443c.19-.748.787-1.236 1.506-1.274zM3.979 4.661c.17 0 .63-.104.67-.113.13-.027.29.06.344.2.105.272-.135.413-.207.453s-.27.11-.434.145q-.247.054-.498.054-.54 0-.883-.153a1.16 1.16 0 0 1-.535-.47q-.19-.315-.264-.82h-.375V3.48h.358v-.375h-.358v-.477h.375q.097-.517.296-.827t.545-.455.893-.145a2.6 2.6 0 0 1 .805.117c.16.054.32.22.264.434-.076.255-.328.29-.501.245a2 2 0 0 0-.506-.069q-.386 0-.557.162-.17.162-.24.538h1.053v.477H3.16v.375h1.063v.477H3.172q.051.399.228.552.175.153.579.153" clip-rule="evenodd"/></g><defs><clipPath id="a"><path fill="#fff" d="M0 0h12v12H0z"/></clipPath></defs></svg>