<svg xmlns="http://www.w3.org/2000/svg" width="32" height="32" fill="none"><path fill="#1A1C1F" fill-rule="evenodd" d="M9.947 2.538c-1.15.164-1.953.397-2.751.797A8.06 8.06 0 0 0 2.845 9.12c-.128.696-.129 2.09-.001 2.747.337 1.73 1.038 3.063 2.246 4.27 1.175 1.175 2.453 1.866 4.102 2.219.791.169 2.28.168 3.075-.002 3.225-.691 5.58-3.028 6.302-6.254.107-.476.124-.698.124-1.593-.001-1.152-.053-1.5-.377-2.508-.877-2.73-3.302-4.851-6.129-5.361-.461-.083-1.907-.147-2.24-.1m2.247 2.147c2.467.628 4.301 2.793 4.496 5.305.049.64-.014 1.451-.157 2.009-.457 1.792-1.834 3.373-3.529 4.051-.855.342-1.205.403-2.284.402-.912 0-1.027-.012-1.517-.148a6 6 0 0 1-2.579-1.444 6 6 0 0 1-1.805-3.367c-.122-.694-.075-1.798.107-2.494.573-2.206 2.39-3.918 4.654-4.386.553-.114 2.045-.073 2.614.072m-1.927 1.907c-1.165.206-1.839.879-2.172 2.169l-.121.466h-.721v.906h.694v.694h-.694v.906h.729l.064.352c.302 1.637 1.304 2.419 3.104 2.421.654.001 1.499-.193 1.905-.438.547-.329.376-1.174-.239-1.177a8 8 0 0 0-.778.113c-1.2.219-1.815-.013-2.042-.77a1.8 1.8 0 0 1-.076-.376v-.125h1.973v-.906H9.867v-.694h2.026v-.906h-.986c-1.116 0-1.066.024-.905-.434.128-.362.324-.62.567-.744.321-.164.919-.193 1.566-.077.594.107.822.072 1.042-.162.185-.198.186-.648.001-.845-.367-.391-1.785-.572-2.911-.373m7.287 11.995c-.962.215-1.963.96-2.405 1.791-.196.367-.376.866-.376 1.044 0 .068-.019.125-.042.125s-.725-.266-1.56-.591c-1.937-.754-2.186-.817-3.224-.818-.989-.001-1.489.111-2.347.527-1.202.583-1.692 1.15-1.848 2.139-.129.82.326 1.784 1.065 2.256.247.157 7.656 2.876 8.523 3.127.966.28 1.345.307 4.927.346l3.333.037 2.267.462c1.246.253 2.345.461 2.441.461.396 0 .799-.327.926-.75.125-.418-.105-.919-.511-1.114-.234-.112-4.561-.983-5.31-1.069-.249-.029-1.737-.053-3.306-.054-3.009-.001-3.474-.03-4.294-.261-.205-.058-2.065-.719-4.133-1.469-2.594-.941-3.789-1.398-3.853-1.476-.128-.153-.118-.277.039-.462.161-.192.789-.507 1.235-.621.385-.098 1.224-.11 1.63-.023.3.064 1.756.625 3.722 1.434 1.575.648 2.01.791 2.587.853.677.071 4.061.067 4.402-.006.945-.203 1.116-1.401.265-1.868-.105-.058-.618-.079-2.391-.1l-2.258-.027-.156-.174a.51.51 0 0 1-.155-.403c0-.497.485-1.114 1.015-1.29.228-.076.553-.084 2.622-.067 2.358.019 2.364.02 2.882.16 1.224.332 1.783.635 3.427 1.861.792.59 1.263.907 1.383.929.709.133 1.338-.556 1.15-1.261-.078-.293-.361-.575-1.206-1.203-1.976-1.47-3.018-1.999-4.627-2.348-.636-.138-.684-.14-3.073-.157-1.954-.013-2.493-.002-2.766.06"/></svg>