<svg width="28" height="28" viewBox="0 0 28 28" fill="none" xmlns="http://www.w3.org/2000/svg"><path d="M8.443 2.265 C 7.535 2.406,6.749 2.668,6.043 3.063 C 4.244 4.071,3.016 5.699,2.544 7.700 C 2.336 8.583,2.364 9.977,2.608 10.897 C 2.839 11.766,3.077 12.305,3.536 12.997 C 4.610 14.617,6.248 15.713,8.145 16.081 C 8.775 16.203,10.086 16.192,10.719 16.059 C 12.809 15.620,14.584 14.298,15.560 12.452 C 15.827 11.948,16.186 10.945,16.291 10.407 C 16.383 9.942,16.366 8.333,16.265 7.863 C 15.798 5.690,14.425 3.901,12.469 2.921 C 11.597 2.484,10.905 2.308,9.783 2.240 C 8.899 2.186,8.954 2.185,8.443 2.265 M9.928 4.014 C 10.660 4.070,11.110 4.197,11.760 4.531 C 13.434 5.392,14.502 7.036,14.593 8.894 C 14.672 10.518,14.123 11.900,12.959 13.005 C 11.829 14.079,10.398 14.547,8.754 14.382 C 7.399 14.246,6.077 13.488,5.226 12.358 C 4.857 11.869,4.466 11.064,4.310 10.477 C 4.202 10.068,4.187 9.917,4.185 9.263 C 4.182 8.488,4.229 8.121,4.396 7.607 C 4.859 6.182,5.959 4.971,7.325 4.382 C 8.196 4.007,8.770 3.926,9.928 4.014 M9.077 5.759 C 8.417 5.870,7.958 6.106,7.633 6.503 C 7.424 6.758,7.177 7.295,7.065 7.735 L 6.979 8.073 6.663 8.073 L 6.347 8.073 6.347 8.470 L 6.347 8.867 6.650 8.867 L 6.953 8.867 6.953 9.170 L 6.953 9.473 6.650 9.473 L 6.347 9.473 6.347 9.870 L 6.347 10.267 6.673 10.267 C 6.959 10.267,7.000 10.277,7.000 10.353 C 7.000 10.400,7.040 10.594,7.088 10.784 C 7.357 11.835,7.969 12.424,9.004 12.628 C 9.982 12.820,11.374 12.530,11.640 12.079 C 11.763 11.872,11.715 11.588,11.529 11.422 C 11.359 11.270,11.220 11.261,10.640 11.363 C 10.422 11.402,10.072 11.433,9.864 11.433 C 9.540 11.433,9.448 11.414,9.239 11.305 C 8.953 11.155,8.746 10.842,8.697 10.485 L 8.667 10.267 9.537 10.267 L 10.407 10.267 10.407 9.870 L 10.407 9.473 9.520 9.473 L 8.633 9.473 8.633 9.170 L 8.633 8.867 9.520 8.867 L 10.407 8.867 10.407 8.470 L 10.407 8.073 9.602 8.073 C 9.159 8.072,8.767 8.053,8.730 8.030 C 8.582 7.936,8.888 7.293,9.174 7.097 C 9.429 6.922,9.870 6.881,10.524 6.970 C 10.938 7.026,11.128 7.033,11.256 6.998 C 11.578 6.909,11.737 6.558,11.602 6.236 C 11.471 5.921,10.945 5.752,9.987 5.716 C 9.657 5.704,9.306 5.720,9.077 5.759 M15.680 16.237 C 15.345 16.263,15.156 16.305,14.907 16.411 C 14.302 16.667,13.736 17.119,13.387 17.625 C 13.198 17.899,12.929 18.547,12.927 18.730 C 12.927 18.835,12.909 18.859,12.845 18.842 C 12.800 18.829,12.207 18.604,11.527 18.341 C 10.171 17.818,9.655 17.667,9.052 17.617 C 7.973 17.528,6.707 17.901,5.898 18.545 C 5.294 19.026,5.035 19.518,5.034 20.183 C 5.033 20.818,5.370 21.501,5.857 21.846 C 6.175 22.073,12.788 24.509,13.743 24.752 C 14.287 24.890,14.892 24.922,17.784 24.968 L 20.705 25.015 22.544 25.384 C 24.876 25.853,24.812 25.845,25.082 25.714 C 25.795 25.369,25.753 24.412,25.013 24.149 C 24.802 24.075,22.715 23.641,21.280 23.374 L 20.510 23.230 17.617 23.194 C 15.187 23.164,14.661 23.146,14.333 23.080 C 13.695 22.951,7.065 20.572,6.877 20.405 C 6.728 20.273,6.738 20.149,6.913 19.975 C 7.358 19.530,8.390 19.277,9.230 19.408 C 9.570 19.461,10.782 19.911,12.747 20.713 C 14.593 21.466,14.684 21.482,17.117 21.459 C 18.654 21.444,18.748 21.438,18.952 21.344 C 19.567 21.059,19.642 20.219,19.085 19.850 L 18.899 19.727 16.928 19.705 C 14.775 19.680,14.868 19.693,14.719 19.404 C 14.625 19.224,14.638 19.051,14.765 18.779 C 14.896 18.498,15.139 18.242,15.413 18.095 C 15.610 17.990,15.610 17.990,17.783 17.997 L 19.956 18.005 20.446 18.146 C 21.463 18.440,21.849 18.651,23.318 19.718 C 24.476 20.559,24.544 20.598,24.793 20.560 C 25.225 20.495,25.541 20.200,25.600 19.806 C 25.625 19.636,25.608 19.554,25.505 19.343 C 25.402 19.133,25.290 19.015,24.882 18.687 C 23.657 17.704,22.248 16.875,21.284 16.570 C 20.365 16.280,20.088 16.251,18.013 16.226 C 16.974 16.214,15.924 16.219,15.680 16.237 " fill="#1A1C1F" stroke="none" fill-rule="evenodd"></path></svg>