<svg width="14" height="14" viewBox="0 0 14 14" fill="none" xmlns="http://www.w3.org/2000/svg"><path d="M4.122 1.425 C 3.466 1.495,3.020 1.789,2.766 2.319 C 2.686 2.485,2.543 2.931,2.543 3.013 C 2.543 3.053,2.523 3.057,2.322 3.057 L 2.100 3.057 2.100 3.337 L 2.100 3.617 2.310 3.617 L 2.520 3.617 2.520 3.838 L 2.520 4.060 2.310 4.060 L 2.100 4.060 2.100 4.340 L 2.100 4.620 2.319 4.620 L 2.537 4.620 2.553 4.737 C 2.577 4.919,2.677 5.239,2.766 5.423 C 2.949 5.797,3.230 6.039,3.653 6.184 L 3.885 6.264 4.403 6.272 C 4.894 6.279,4.932 6.277,5.139 6.222 C 5.553 6.112,5.750 5.990,5.823 5.798 C 5.879 5.653,5.854 5.552,5.731 5.424 C 5.637 5.326,5.624 5.320,5.505 5.320 C 5.435 5.320,5.268 5.343,5.133 5.370 C 4.787 5.441,4.380 5.442,4.188 5.372 C 3.943 5.283,3.769 5.043,3.723 4.731 L 3.707 4.620 4.315 4.620 L 4.923 4.620 4.923 4.340 L 4.923 4.060 4.305 4.060 L 3.687 4.060 3.687 3.838 L 3.687 3.617 4.305 3.617 L 4.923 3.617 4.923 3.337 L 4.923 3.057 4.346 3.056 C 4.028 3.056,3.753 3.046,3.735 3.035 C 3.691 3.007,3.729 2.873,3.844 2.653 C 3.991 2.372,4.148 2.288,4.562 2.270 C 4.758 2.261,4.886 2.270,5.107 2.307 C 5.442 2.364,5.526 2.353,5.662 2.234 C 5.824 2.091,5.857 1.892,5.744 1.736 C 5.614 1.556,5.364 1.472,4.818 1.425 C 4.504 1.398,4.386 1.398,4.122 1.425 M7.455 7.024 C 7.090 7.055,6.701 7.233,6.389 7.511 C 6.177 7.699,5.966 8.030,5.870 8.324 C 5.848 8.391,5.820 8.452,5.809 8.459 C 5.797 8.466,5.454 8.373,5.046 8.251 C 3.866 7.899,3.973 7.924,3.617 7.924 C 3.230 7.925,3.019 7.958,2.750 8.059 C 2.418 8.184,2.190 8.334,1.911 8.610 C 1.702 8.818,1.649 8.885,1.567 9.053 C 1.269 9.663,1.376 10.313,1.854 10.794 C 2.082 11.024,2.097 11.031,3.155 11.443 C 5.049 12.181,5.608 12.378,6.070 12.470 C 6.670 12.589,6.649 12.588,9.450 12.588 L 12.075 12.588 12.210 12.522 C 12.360 12.448,12.505 12.288,12.557 12.139 C 12.574 12.091,12.587 11.978,12.587 11.888 C 12.586 11.617,12.453 11.409,12.197 11.278 L 12.075 11.216 9.427 11.199 C 6.556 11.180,6.677 11.185,6.129 11.046 C 5.688 10.935,2.891 9.863,2.829 9.782 C 2.813 9.762,2.800 9.730,2.800 9.713 C 2.800 9.661,3.003 9.485,3.154 9.407 C 3.290 9.337,3.309 9.333,3.572 9.333 L 3.847 9.333 4.799 9.634 C 6.191 10.074,6.739 10.240,6.921 10.278 C 7.262 10.348,9.007 10.512,9.208 10.492 C 9.606 10.453,9.882 10.025,9.766 9.626 C 9.717 9.458,9.635 9.331,9.524 9.255 C 9.340 9.128,9.386 9.135,7.945 8.994 C 7.311 8.932,7.256 8.924,7.228 8.881 C 7.163 8.782,7.271 8.556,7.425 8.470 C 7.560 8.394,8.052 8.367,8.740 8.397 C 9.334 8.424,9.522 8.453,9.906 8.583 C 10.365 8.738,10.760 8.990,11.247 9.439 C 11.561 9.729,11.667 9.785,11.900 9.787 C 12.111 9.788,12.246 9.734,12.387 9.593 C 12.541 9.439,12.585 9.331,12.586 9.100 C 12.587 8.841,12.548 8.767,12.254 8.472 C 11.391 7.604,10.264 7.094,9.056 7.023 C 8.631 6.998,7.757 6.999,7.455 7.024 " fill="#1A1C1F" stroke="none" fill-rule="evenodd"></path></svg>