<svg xmlns="http://www.w3.org/2000/svg" width="28" height="28" fill="none"><g clip-path="url(#a)"><path fill="#1A1C1F" fill-rule="evenodd" d="M18.903 16.188c1.604 0 3.167.49 4.482 1.4q1.314.91 1.877 1.4c.386.29.465.838.175 1.225-.268.357-.804.47-1.133.235q-.33-.235-1.726-1.285a6.13 6.13 0 0 0-3.41-1.22l-3.127-.005c-.659 0-1.233.448-1.393 1.087a.54.54 0 0 0 .452.663h3.512a.875.875 0 0 1 0 1.75h-3.448c-.753-.01-1.052-.162-2.78-.875a186 186 0 0 0-2.553-1.014 3.06 3.06 0 0 0-2.944.401c-.137.103-.204.42.08.538q.274.114 6.41 2.331c.575.21 1.177.33 1.787.361l4.505.008c.414 0 .83.033 1.238.098l4.001.794a.875.875 0 0 1-.343 1.716l-3.695-.74a6 6 0 0 0-.9-.11l-4.5-.008c-.803 0-1.6-.123-2.366-.364l-6.735-2.44a2.06 2.06 0 0 1-.532-3.583 4.8 4.8 0 0 1 4.418-.71L12.9 18.87c.204-1.53 1.642-2.68 3.087-2.68zm-9.515-14a7 7 0 1 1 0 14 7 7 0 0 1 0-14m0 1.75a5.25 5.25 0 1 0 0 10.5 5.25 5.25 0 0 0 0-10.5m.488 1.75q.742 0 1.342.194c.266.091.532.368.44.724-.127.425-.546.484-.835.408A3.3 3.3 0 0 0 9.98 6.9q-.645 0-.928.27-.284.271-.398.896h1.752v.795h-1.77v.625h1.77v.796H8.654q.085.663.38.92.293.255.965.255c.285 0 1.05-.175 1.117-.188.216-.045.481.097.572.332.175.454-.225.69-.344.755-.12.067-.45.182-.724.242q-.411.09-.83.09-.9 0-1.472-.256a1.94 1.94 0 0 1-.89-.78q-.318-.526-.44-1.37h-.626v-.796h.597v-.625h-.597v-.795h.625q.16-.863.492-1.379.333-.516.91-.757t1.487-.242" clip-rule="evenodd"/></g><defs><clipPath id="a"><path fill="#fff" d="M0 0h28v28H0z"/></clipPath></defs></svg>