<svg width="32" height="32" viewBox="0 0 32 32" fill="none" xmlns="http://www.w3.org/2000/svg"><path d="M5.333 6.079 C 3.995 6.114,3.947 6.125,3.314 6.555 C 2.718 6.960,2.346 7.482,2.082 8.284 L 1.962 8.649 1.985 16.071 L 2.009 23.493 2.136 23.867 C 2.474 24.861,3.382 25.698,4.378 25.932 C 4.801 26.032,27.199 26.032,27.622 25.932 C 28.632 25.694,29.539 24.850,29.869 23.840 L 30.000 23.440 30.000 16.133 C 30.000 8.210,30.004 8.322,29.708 7.735 C 29.422 7.170,28.813 6.572,28.230 6.284 C 27.907 6.125,27.874 6.121,26.816 6.077 C 25.620 6.027,7.243 6.029,5.333 6.079 M27.484 8.154 C 27.597 8.225,27.753 8.381,27.831 8.501 L 27.973 8.720 27.991 10.360 L 28.009 12.000 16.000 12.000 L 3.991 12.000 4.009 10.360 L 4.027 8.720 4.173 8.495 C 4.397 8.151,4.564 8.085,5.307 8.049 C 5.659 8.031,10.747 8.019,16.613 8.022 L 27.280 8.027 27.484 8.154 M27.999 18.600 L 27.999 23.173 27.844 23.444 C 27.759 23.592,27.604 23.779,27.500 23.858 L 27.311 24.002 15.989 23.988 C 4.814 23.974,4.664 23.972,4.492 23.868 C 4.396 23.810,4.255 23.672,4.179 23.562 L 4.040 23.361 4.012 18.694 L 3.984 14.027 15.992 14.027 L 28.000 14.027 27.999 18.600 M8.342 19.033 C 7.634 19.065,7.581 19.075,7.403 19.210 C 6.896 19.597,6.890 20.398,7.391 20.780 C 7.514 20.874,7.681 20.930,7.946 20.967 C 8.176 20.999,9.891 21.013,12.309 21.003 L 16.293 20.987 16.492 20.863 C 17.167 20.443,17.150 19.493,16.462 19.136 C 16.242 19.021,16.215 19.020,12.667 19.010 C 10.701 19.005,8.755 19.015,8.342 19.033 " fill="#1A1C1F" stroke="none" fill-rule="evenodd"></path></svg>