<svg xmlns="http://www.w3.org/2000/svg" width="32" height="32" fill="none"><path fill="#1A1C1F" fill-rule="evenodd" d="M4.22 6.111c-.677.182-1.359.683-1.747 1.285a4 4 0 0 0-.325.693L2 8.507v7.466c0 7.093.005 7.483.098 7.784a3.15 3.15 0 0 0 2.145 2.145c.303.094.81.098 11.757.098s11.454-.004 11.757-.098a3.15 3.15 0 0 0 2.145-2.145c.093-.301.098-.69.098-7.757 0-8.283.028-7.631-.359-8.397-.208-.412-.813-1.016-1.245-1.243-.683-.358.23-.334-12.421-.33-9.828.003-11.509.015-11.755.081m23.128 1.972c.263.11.432.272.551.53.089.192.099.372.1 1.8L28 12H4v-1.575c0-1.301.014-1.609.083-1.773a.98.98 0 0 1 .53-.551c.206-.095.638-.099 11.375-.1 9.956-.001 11.183.008 11.36.082M28 18.602v4.575l-.12.235a1.4 1.4 0 0 1-.325.398l-.205.163-11.315.014c-10.694.013-11.325.008-11.5-.08a1.2 1.2 0 0 1-.347-.325l-.161-.231-.015-4.662-.014-4.662H28zm-20.26.438c-.369.087-.67.43-.73.833-.07.464.252.957.709 1.084.287.08 8.285.077 8.573-.003.117-.033.3-.147.408-.255.551-.551.29-1.486-.464-1.661-.257-.06-8.243-.058-8.496.002"/></svg>