<svg width="12" height="12" viewBox="0 0 12 12" fill="none" xmlns="http://www.w3.org/2000/svg"><path d="M2.710 2.419 C 2.360 2.427,2.083 2.441,2.046 2.454 C 1.767 2.551,1.482 2.790,1.357 3.031 C 1.197 3.340,1.210 3.072,1.210 6.010 L 1.210 8.630 1.268 8.780 C 1.409 9.149,1.651 9.391,2.020 9.532 L 2.170 9.590 6.000 9.590 L 9.830 9.590 9.980 9.532 C 10.349 9.391,10.591 9.149,10.732 8.780 L 10.790 8.630 10.790 6.010 C 10.790 3.502,10.788 3.385,10.753 3.280 C 10.612 2.866,10.319 2.574,9.920 2.450 C 9.818 2.418,9.566 2.415,6.560 2.411 C 4.772 2.408,3.040 2.412,2.710 2.419 M9.600 4.200 L 9.600 4.800 6.000 4.800 L 2.400 4.800 2.400 4.200 L 2.400 3.600 6.000 3.600 L 9.600 3.600 9.600 4.200 M5.400 7.200 L 5.400 7.800 3.900 7.800 L 2.400 7.800 2.400 7.200 L 2.400 6.600 3.900 6.600 L 5.400 6.600 5.400 7.200 " fill="#1A1C1F" stroke="none" fill-rule="evenodd"></path></svg>