<svg width="20" height="20" viewBox="0 0 20 20" fill="none" xmlns="http://www.w3.org/2000/svg"><path d="M4.500 4.030 L 3.483 4.050 3.223 4.175 C 2.929 4.315,2.859 4.364,2.603 4.610 C 2.365 4.840,2.196 5.104,2.098 5.404 L 2.017 5.650 2.017 10.017 L 2.017 14.383 2.113 14.633 C 2.353 15.257,2.775 15.674,3.389 15.891 L 3.650 15.983 10.000 15.983 L 16.350 15.983 16.611 15.891 C 17.234 15.671,17.671 15.234,17.891 14.611 L 17.983 14.350 17.983 10.000 C 17.983 5.836,17.981 5.642,17.921 5.467 C 17.686 4.777,17.198 4.290,16.533 4.083 C 16.364 4.030,15.946 4.025,10.933 4.017 C 7.954 4.013,5.059 4.019,4.500 4.030 M16.000 7.000 L 16.000 8.000 10.000 8.000 L 4.000 8.000 4.000 7.000 L 4.000 6.000 10.000 6.000 L 16.000 6.000 16.000 7.000 M9.000 12.000 L 9.000 13.000 6.500 13.000 L 4.000 13.000 4.000 12.000 L 4.000 11.000 6.500 11.000 L 9.000 11.000 9.000 12.000 " fill="#1A1C1F" stroke="none" fill-rule="evenodd"></path></svg>