<svg xmlns="http://www.w3.org/2000/svg" width="32" height="32" fill="none"><path fill="#1A1C1F" fill-rule="evenodd" d="M15.245 2.499c-.593.196-.722.315-1.883 1.741-.431.528-.824.99-.875 1.026-.076.055-.323.002-1.45-.307-.746-.206-1.506-.389-1.688-.407-.924-.094-1.864.422-2.231 1.225-.165.359-.214.739-.295 2.29-.044.833-.089 1.286-.13 1.32-.035.029-.672.281-1.416.561s-1.458.57-1.587.645a2.16 2.16 0 0 0-.831.927c-.154.322-.165.387-.162.907.005.709.012.725 1.005 2.239.445.68.778 1.242.778 1.313 0 .073-.352.663-.828 1.388-.938 1.433-1.011 1.602-.975 2.284q.044.845.633 1.419c.352.343.42.375 2.024.977.742.279 1.366.533 1.386.566s.066.605.101 1.27c.084 1.579.134 1.936.324 2.342.383.821 1.293 1.294 2.268 1.18.176-.021.896-.195 1.6-.388s1.331-.35 1.394-.35c.084 0 .36.305 1.057 1.169.518.643 1.025 1.233 1.127 1.31.837.639 2.106.612 2.849-.059.125-.113.636-.704 1.135-1.313.657-.801.939-1.107 1.02-1.107.062 0 .686.156 1.386.348.701.191 1.421.368 1.6.394.941.133 1.89-.361 2.275-1.185.189-.404.239-.764.323-2.341.035-.665.081-1.237.101-1.27s.644-.287 1.386-.566 1.445-.555 1.564-.615c.316-.162.699-.583.9-.991.166-.337.177-.392.177-.92 0-.706.003-.697-1.011-2.241-.434-.66-.801-1.23-.815-1.267s.34-.622.787-1.302c1.042-1.584 1.039-1.577 1.039-2.285 0-.524-.012-.585-.171-.907a2.3 2.3 0 0 0-.845-.936c-.118-.07-.824-.355-1.568-.635s-1.381-.532-1.416-.561c-.041-.034-.086-.487-.13-1.32-.081-1.551-.13-1.931-.295-2.29-.367-.803-1.307-1.319-2.231-1.225-.182.018-.931.199-1.664.4-.734.202-1.374.352-1.424.334s-.454-.477-.9-1.019c-1.058-1.289-1.232-1.466-1.65-1.666-.308-.148-.409-.169-.906-.184-.44-.014-.625.004-.862.082m1.113 2.128c.17.198.613.733.985 1.188.971 1.188 1.331 1.41 2.284 1.406.451-.002.654-.041 1.86-.36.744-.196 1.398-.343 1.453-.326.133.043.134.05.227 1.678.086 1.501.137 1.772.42 2.22.149.236.458.529.733.695.103.062.787.335 1.52.608s1.363.518 1.4.546.067.101.067.162-.359.652-.797 1.313c-.439.662-.833 1.287-.876 1.39-.227.544-.215 1.244.03 1.73.06.119.454.747.876 1.395s.767 1.215.767 1.26-.04.115-.089.155-.709.305-1.469.589c-1.512.564-1.807.731-2.114 1.194-.341.516-.382.717-.469 2.289-.089 1.603-.095 1.658-.197 1.697-.04.015-.718-.141-1.507-.346-1.248-.326-1.501-.375-1.942-.382-.476-.008-.527.002-.842.167-.474.248-.653.427-1.677 1.675-.535.653-.947 1.11-1 1.11s-.465-.456-.999-1.107c-1.029-1.255-1.285-1.511-1.713-1.711-.259-.122-.37-.142-.782-.139-.417.002-.658.05-1.83.36-1.379.365-1.626.407-1.698.291-.023-.036-.082-.739-.133-1.562-.1-1.628-.142-1.829-.481-2.342-.308-.463-.595-.625-2.16-1.212-.787-.296-1.461-.574-1.496-.619-.083-.103-.111-.052.817-1.468.419-.64.814-1.3.878-1.467.15-.391.163-.991.029-1.383-.052-.154-.467-.848-.922-1.542a47 47 0 0 1-.851-1.324c-.046-.12.182-.23 1.5-.719 1.419-.527 1.707-.673 2.045-1.04.471-.511.558-.869.652-2.687.055-1.065.083-1.318.156-1.409l.089-.11 1.516.388c1.684.43 1.936.453 2.567.227.485-.173.742-.4 1.491-1.314.922-1.125 1.269-1.524 1.326-1.524.025 0 .185.162.356.36m-4.447 6.54c-.321.105-.555.262-.838.565-.381.407-.482.674-.484 1.282-.002.468.011.536.171.86.205.418.54.745.964.944.264.124.37.142.836.142s.572-.018.836-.142c.928-.435 1.377-1.458 1.059-2.414-.15-.449-.547-.899-.995-1.125-.267-.135-.377-.158-.818-.17-.322-.009-.59.012-.731.058m7.662.031c-.16.087-8.132 7.826-8.385 8.14a1.2 1.2 0 0 0-.156.357.936.936 0 0 0 .509 1.072c.242.115.708.111.927-.007.095-.051 2.02-1.904 4.278-4.117 4.442-4.352 4.323-4.22 4.245-4.706-.107-.668-.839-1.05-1.418-.739m-.379 5.885c-.542.228-.869.536-1.109 1.048-.117.25-.138.37-.138.776 0 .414.02.524.15.806.362.782 1.225 1.248 2.101 1.133a2.06 2.06 0 0 0 1.542-1.127c.133-.288.153-.396.153-.813 0-.435-.016-.515-.173-.834a2.02 2.02 0 0 0-.964-.943c-.437-.204-1.136-.225-1.562-.046"/></svg>