<svg width="20" height="20" viewBox="0 0 20 20" fill="none" xmlns="http://www.w3.org/2000/svg"><path d="M9.633 1.767 C 9.391 1.800,9.119 1.906,8.878 2.062 C 8.707 2.173,8.524 2.355,7.912 3.029 L 7.773 3.181 7.278 3.057 C 6.831 2.944,6.742 2.933,6.350 2.934 C 5.979 2.935,5.884 2.946,5.689 3.015 C 5.050 3.241,4.516 3.816,4.383 4.422 C 4.356 4.547,4.305 4.896,4.270 5.198 C 4.221 5.626,4.195 5.754,4.151 5.787 C 4.120 5.810,3.934 5.892,3.739 5.969 C 2.960 6.277,2.628 6.516,2.326 6.982 C 2.119 7.302,2.050 7.575,2.051 8.067 C 2.053 8.579,2.095 8.700,2.536 9.471 C 2.716 9.786,2.828 10.016,2.813 10.041 C 2.800 10.064,2.670 10.268,2.526 10.493 C 2.220 10.968,2.129 11.159,2.054 11.490 C 1.908 12.136,2.102 12.822,2.566 13.297 C 2.869 13.607,3.061 13.726,3.675 13.985 C 3.964 14.107,4.200 14.224,4.200 14.245 C 4.201 14.443,4.312 15.427,4.351 15.580 C 4.433 15.900,4.591 16.160,4.885 16.458 C 5.095 16.670,5.212 16.758,5.403 16.848 C 5.958 17.110,6.351 17.131,7.186 16.946 C 7.486 16.879,7.752 16.833,7.779 16.844 C 7.806 16.854,7.964 17.027,8.131 17.229 C 8.796 18.032,9.212 18.267,9.965 18.266 C 10.343 18.266,10.635 18.203,10.926 18.060 C 11.104 17.972,11.228 17.861,11.683 17.388 L 12.226 16.821 12.372 16.856 C 12.451 16.876,12.674 16.933,12.867 16.983 C 13.344 17.109,13.935 17.116,14.281 17.001 C 14.758 16.842,15.263 16.394,15.495 15.922 C 15.628 15.651,15.688 15.376,15.748 14.751 C 15.785 14.363,15.808 14.243,15.851 14.212 C 15.882 14.189,16.134 14.080,16.412 13.968 C 16.982 13.739,17.219 13.584,17.493 13.259 C 17.903 12.774,18.052 12.159,17.917 11.520 C 17.857 11.236,17.742 10.988,17.414 10.430 L 17.159 9.998 17.334 9.724 C 17.701 9.151,17.811 8.953,17.890 8.728 C 18.130 8.037,17.947 7.261,17.411 6.700 C 17.122 6.397,16.944 6.286,16.307 6.015 L 15.817 5.805 15.793 5.594 C 15.779 5.478,15.746 5.171,15.719 4.912 C 15.649 4.252,15.518 3.942,15.144 3.558 C 14.946 3.353,14.758 3.222,14.486 3.099 C 14.044 2.899,13.625 2.891,12.793 3.067 C 12.534 3.122,12.291 3.166,12.253 3.166 C 12.205 3.166,12.096 3.057,11.900 2.812 C 11.329 2.099,10.942 1.832,10.383 1.768 C 10.051 1.730,9.906 1.730,9.633 1.767 M8.075 6.724 C 8.642 7.033,8.749 7.849,8.282 8.315 C 8.092 8.506,7.898 8.582,7.600 8.583 C 7.393 8.583,7.317 8.567,7.161 8.490 C 6.796 8.311,6.616 8.011,6.619 7.583 C 6.620 7.310,6.654 7.204,6.813 6.989 C 6.915 6.851,7.171 6.673,7.321 6.635 C 7.537 6.581,7.888 6.622,8.075 6.724 M12.750 7.331 L 13.416 8.000 10.708 10.708 L 8.000 13.417 7.300 12.717 L 6.601 12.017 9.286 9.309 C 11.486 7.090,11.982 6.606,12.028 6.631 C 12.058 6.648,12.383 6.963,12.750 7.331 M12.856 11.519 C 13.201 11.686,13.382 11.995,13.383 12.417 C 13.383 12.650,13.371 12.705,13.285 12.861 C 13.106 13.183,12.823 13.367,12.467 13.392 C 12.055 13.420,11.684 13.199,11.502 12.817 C 11.403 12.608,11.393 12.223,11.482 12.019 C 11.713 11.489,12.331 11.264,12.856 11.519 " fill="#1A1C1F" stroke="none" fill-rule="evenodd"></path></svg>