<svg xmlns="http://www.w3.org/2000/svg" width="32" height="32" fill="none"><g clip-path="url(#a)"><path fill="#1A1C1F" fill-rule="evenodd" d="M16 2.375c.637 0 1.296.233 1.72.75l1.722 2.094c.056.069.184.104.282.077l2.585-.702c.186-.051.383-.063.573-.063 1.078 0 2.125.769 2.198 2.032l.16 2.718c.004.063.06.131.128.156l2.58.97a2.16 2.16 0 0 1 1.402 2c0 .405-.126.844-.35 1.187l-1.497 2.281a.22.22 0 0 0 0 .219L29 18.344c.241.363.35.781.35 1.187 0 .875-.573 1.72-1.402 2.032l-2.58.968c-.07.026-.125.12-.131.219l-.156 2.656c-.067 1.159-.998 2.032-2.198 2.032a3.5 3.5 0 0 1-.75-.111l-2.438-.663c-.128-.034-.203-.007-.265.07l-1.709 2.078a2.22 2.22 0 0 1-1.72.813c-.67 0-1.313-.277-1.72-.781l-1.722-2.125c-.055-.07-.125-.09-.223-.063l-2.497.679a3.5 3.5 0 0 1-.72.102c-1.206 0-2.132-.878-2.199-2.03l-.158-2.688a.21.21 0 0 0-.13-.188l-2.58-.968c-.74-.278-1.402-1.062-1.402-2.032 0-.406.11-.824.35-1.187l1.47-2.207c.067-.101.024-.268-.038-.363L3 13.594a2.23 2.23 0 0 1-.35-1.188c0-.886.564-1.686 1.401-2l2.553-.958c.095-.036.152-.104.157-.198l.158-2.688c.068-1.174 1.024-2.03 2.198-2.03.191 0 .387.011.573.062l2.587.702c.097.027.21.009.282-.077l1.72-2.094c.412-.502 1.084-.75 1.72-.75zm-.16 2-1.72 2.094c-.411.501-1.082.781-1.72.781-.191 0-.379-.012-.574-.063L9.21 6.516c-.118-.03-.276.07-.282.173l-.16 2.687c-.05.843-.6 1.605-1.402 1.906l-2.58.969c-.136.051-.163.179-.096.281l1.498 2.281c.248.38.35.75.35 1.157 0 .406-.102.808-.35 1.187L4.69 19.439a.186.186 0 0 0 .096.28l2.58.97a2.19 2.19 0 0 1 1.402 1.906l.154 2.594c.012.196.134.32.41.248l2.377-.624a3.7 3.7 0 0 1 .851-.125c.579 0 1.137.297 1.561.813l1.72 2.094c.1.121.22.121.32 0l1.72-2.094c.413-.502 1.084-.813 1.53-.813.287 0 .59.05.764.094l2.646.68c.154.04.245-.037.253-.18l.16-2.687c.05-.843.6-1.608 1.402-1.907l2.518-.937c.14-.052.195-.24.127-.344l-1.466-2.25c-.248-.38-.35-.75-.35-1.156s.1-.81.35-1.188l1.427-2.161c.12-.181.122-.346-.08-.422l-2.525-.948a2.19 2.19 0 0 1-1.402-1.906l-.16-2.688c-.008-.115-.136-.21-.282-.172l-2.617.673c-.195.05-.382.062-.574.062-.637 0-1.308-.28-1.72-.781l-1.72-2.094c-.1-.122-.22-.122-.32 0zm-5.287 8.656c0-1.094.891-1.969 2.006-1.969 1.116 0 2.008.876 2.008 1.97S13.673 15 12.558 15s-2.006-.875-2.006-1.969m.445 6.875c0-.25.096-.5.288-.687l8.028-7.844c.192-.187.447-.313.7-.313.434 0 .989.383.989 1 0 .25-.096.5-.288.688l-7.996 7.844a1.03 1.03 0 0 1-.733.281.977.977 0 0 1-.988-.969m6.915-1c0-1.062.892-1.968 2.006-1.968 1.116 0 2.008.906 2.008 1.968 0 1.094-.892 1.969-2.008 1.969-1.114 0-2.006-.875-2.006-1.969" clip-rule="evenodd"/></g><defs><clipPath id="a"><path fill="#fff" d="M0 0h32v32H0z"/></clipPath></defs></svg>