<svg width="16" height="16" viewBox="0 0 16 16" fill="none" xmlns="http://www.w3.org/2000/svg"><path d="M7.649 1.425 C 7.463 1.464,7.143 1.610,6.993 1.724 C 6.945 1.760,6.760 1.954,6.581 2.155 C 6.402 2.356,6.236 2.524,6.211 2.528 C 6.187 2.533,6.002 2.494,5.800 2.441 C 5.470 2.356,5.399 2.347,5.083 2.347 C 4.783 2.348,4.708 2.357,4.551 2.412 C 4.096 2.573,3.675 2.986,3.535 3.410 C 3.512 3.478,3.464 3.773,3.427 4.066 C 3.389 4.372,3.346 4.612,3.327 4.631 C 3.308 4.649,3.149 4.720,2.973 4.787 C 2.523 4.961,2.322 5.074,2.133 5.258 C 1.924 5.462,1.774 5.695,1.699 5.932 C 1.651 6.086,1.640 6.181,1.641 6.453 C 1.643 6.764,1.648 6.801,1.728 7.000 C 1.774 7.117,1.915 7.387,2.039 7.600 C 2.164 7.813,2.260 8.002,2.253 8.022 C 2.246 8.041,2.143 8.206,2.025 8.389 C 1.771 8.781,1.703 8.927,1.640 9.211 C 1.549 9.620,1.636 10.057,1.885 10.433 C 2.102 10.761,2.351 10.937,2.972 11.200 C 3.355 11.362,3.354 11.361,3.370 11.555 C 3.428 12.231,3.446 12.360,3.505 12.534 C 3.597 12.806,3.718 12.991,3.944 13.206 C 4.089 13.344,4.198 13.420,4.357 13.493 C 4.795 13.696,5.071 13.708,5.738 13.558 C 5.977 13.504,6.186 13.458,6.201 13.456 C 6.217 13.455,6.363 13.610,6.525 13.802 C 6.688 13.994,6.874 14.196,6.937 14.251 C 7.300 14.565,7.867 14.686,8.384 14.563 C 8.807 14.461,8.990 14.327,9.550 13.707 L 9.779 13.453 10.123 13.539 C 10.582 13.654,10.828 13.689,11.056 13.672 C 11.672 13.626,12.242 13.180,12.460 12.573 C 12.539 12.354,12.549 12.296,12.599 11.789 C 12.622 11.553,12.650 11.392,12.671 11.371 C 12.691 11.352,12.851 11.280,13.027 11.213 C 13.477 11.039,13.687 10.922,13.870 10.741 C 14.191 10.425,14.339 10.103,14.365 9.667 C 14.390 9.233,14.316 9.005,13.943 8.369 C 13.810 8.142,13.736 7.989,13.749 7.968 C 13.760 7.949,13.864 7.786,13.980 7.606 C 14.224 7.225,14.297 7.073,14.357 6.808 C 14.471 6.302,14.323 5.776,13.956 5.387 C 13.724 5.140,13.557 5.034,13.067 4.823 L 12.653 4.645 12.635 4.462 C 12.625 4.362,12.604 4.140,12.588 3.969 C 12.524 3.269,12.239 2.815,11.678 2.521 C 11.266 2.304,10.892 2.294,10.107 2.480 C 9.924 2.523,9.767 2.550,9.758 2.539 C 9.750 2.529,9.627 2.382,9.487 2.213 C 9.347 2.045,9.185 1.862,9.129 1.808 C 8.986 1.671,8.738 1.528,8.533 1.464 C 8.307 1.394,7.887 1.375,7.649 1.425 M8.248 3.229 C 8.676 3.759,8.923 3.962,9.311 4.101 C 9.479 4.160,9.547 4.170,9.787 4.168 C 9.972 4.166,10.144 4.146,10.293 4.109 C 10.732 4.001,10.931 3.962,10.950 3.981 C 10.960 3.992,10.985 4.189,11.004 4.420 C 11.067 5.179,11.158 5.428,11.491 5.761 C 11.726 5.995,11.897 6.096,12.396 6.295 C 12.592 6.373,12.758 6.452,12.765 6.470 C 12.772 6.487,12.667 6.678,12.533 6.894 C 12.171 7.474,12.119 7.623,12.122 8.053 C 12.125 8.464,12.169 8.574,12.608 9.293 C 12.735 9.500,12.764 9.567,12.739 9.591 C 12.721 9.608,12.533 9.690,12.320 9.774 C 12.107 9.857,11.864 9.967,11.779 10.018 C 11.546 10.159,11.303 10.419,11.193 10.647 C 11.051 10.939,11.018 11.083,10.982 11.576 C 10.964 11.825,10.941 12.041,10.932 12.056 C 10.921 12.074,10.765 12.045,10.494 11.975 C 10.113 11.877,10.041 11.867,9.746 11.867 C 9.136 11.867,8.832 12.024,8.380 12.573 C 8.283 12.691,8.156 12.838,8.097 12.900 L 7.989 13.013 7.925 12.953 C 7.889 12.920,7.746 12.757,7.605 12.590 C 7.327 12.259,7.164 12.117,6.928 11.997 C 6.544 11.804,6.144 11.789,5.495 11.946 C 5.254 12.004,5.051 12.046,5.044 12.039 C 5.037 12.032,5.015 11.832,4.996 11.593 C 4.934 10.824,4.844 10.574,4.509 10.240 C 4.285 10.017,4.096 9.907,3.573 9.694 C 3.405 9.626,3.255 9.559,3.242 9.545 C 3.213 9.517,3.272 9.403,3.484 9.077 C 3.792 8.605,3.914 8.237,3.885 7.869 C 3.857 7.516,3.783 7.341,3.408 6.736 C 3.262 6.501,3.233 6.436,3.260 6.410 C 3.278 6.392,3.479 6.305,3.707 6.216 C 4.225 6.013,4.366 5.922,4.636 5.613 C 4.868 5.348,4.964 5.057,5.011 4.478 C 5.045 4.060,5.065 3.920,5.089 3.920 C 5.099 3.920,5.323 3.975,5.587 4.042 C 6.036 4.157,6.083 4.164,6.320 4.151 C 6.571 4.137,6.814 4.075,7.015 3.972 C 7.197 3.880,7.386 3.705,7.695 3.345 C 7.865 3.147,8.019 2.988,8.036 2.994 C 8.053 3.000,8.148 3.105,8.248 3.229 M6.213 5.624 C 6.001 5.669,5.791 5.839,5.688 6.047 C 5.626 6.174,5.613 6.235,5.613 6.400 C 5.613 6.726,5.764 6.971,6.061 7.125 C 6.150 7.171,6.220 7.183,6.400 7.184 C 6.601 7.184,6.643 7.176,6.771 7.106 C 7.250 6.844,7.339 6.165,6.941 5.814 C 6.764 5.658,6.443 5.574,6.213 5.624 M7.427 7.440 L 5.667 9.200 6.233 9.767 L 6.800 10.333 8.567 8.567 L 10.333 6.800 9.773 6.240 C 9.466 5.932,9.208 5.680,9.200 5.680 C 9.193 5.680,8.395 6.472,7.427 7.440 M9.400 8.823 C 8.954 8.940,8.690 9.442,8.851 9.869 C 8.920 10.051,9.104 10.250,9.275 10.328 C 9.448 10.406,9.752 10.406,9.924 10.328 C 10.074 10.260,10.243 10.096,10.324 9.941 C 10.403 9.789,10.409 9.422,10.335 9.280 C 10.190 9.003,9.940 8.833,9.648 8.814 C 9.556 8.807,9.444 8.812,9.400 8.823 " fill="#1A1C1F" stroke="none" fill-rule="evenodd"></path></svg>