<svg width="20" height="20" viewBox="0 0 20 20" fill="none" xmlns="http://www.w3.org/2000/svg"><path d="M9.666 1.766 C 9.107 1.838,8.790 2.057,8.046 2.883 L 7.776 3.183 7.346 3.069 C 6.979 2.972,6.847 2.953,6.440 2.941 C 6.012 2.927,5.940 2.933,5.728 3.002 C 5.262 3.152,4.770 3.561,4.542 3.988 C 4.409 4.239,4.352 4.483,4.284 5.100 C 4.255 5.366,4.223 5.625,4.213 5.676 C 4.191 5.783,4.109 5.831,3.595 6.035 C 2.932 6.298,2.649 6.501,2.374 6.912 C 2.128 7.280,2.050 7.558,2.050 8.067 C 2.050 8.467,2.055 8.494,2.167 8.767 C 2.232 8.922,2.410 9.264,2.563 9.525 L 2.842 10.001 2.665 10.275 C 2.093 11.163,2.018 11.354,2.018 11.917 C 2.019 12.231,2.032 12.321,2.112 12.549 C 2.227 12.879,2.446 13.213,2.694 13.435 C 2.875 13.598,3.070 13.704,3.905 14.093 L 4.194 14.227 4.212 14.439 C 4.308 15.540,4.345 15.712,4.573 16.089 C 4.747 16.379,5.116 16.707,5.440 16.861 C 5.985 17.121,6.327 17.138,7.170 16.948 C 7.471 16.880,7.733 16.823,7.753 16.821 C 7.772 16.819,7.940 16.998,8.126 17.220 C 8.541 17.718,8.749 17.907,9.041 18.054 C 9.380 18.225,9.649 18.278,10.067 18.255 C 10.833 18.215,11.110 18.049,11.936 17.135 L 12.221 16.819 12.369 16.855 C 12.450 16.875,12.674 16.933,12.867 16.983 C 13.344 17.109,13.935 17.116,14.281 17.001 C 14.758 16.842,15.263 16.394,15.495 15.922 C 15.628 15.651,15.688 15.376,15.748 14.751 C 15.785 14.363,15.808 14.243,15.851 14.212 C 15.882 14.189,16.134 14.080,16.412 13.968 C 16.982 13.739,17.219 13.584,17.493 13.259 C 17.843 12.845,17.988 12.397,17.955 11.833 C 17.928 11.370,17.871 11.223,17.425 10.458 L 17.158 9.999 17.334 9.725 C 17.701 9.151,17.811 8.953,17.890 8.728 C 18.124 8.054,17.951 7.282,17.442 6.732 C 17.164 6.432,16.925 6.280,16.336 6.030 C 16.069 5.917,15.840 5.815,15.828 5.804 C 15.816 5.792,15.789 5.558,15.768 5.283 C 15.720 4.651,15.666 4.390,15.520 4.090 C 15.310 3.658,15.000 3.352,14.546 3.131 C 14.056 2.892,13.595 2.880,12.717 3.085 C 12.515 3.132,12.319 3.173,12.282 3.177 C 12.232 3.182,12.116 3.068,11.845 2.749 C 11.642 2.509,11.401 2.251,11.309 2.174 C 10.892 1.825,10.315 1.682,9.666 1.766 M10.371 4.108 C 10.902 4.752,11.149 4.950,11.639 5.126 C 11.848 5.201,11.934 5.213,12.233 5.209 C 12.465 5.207,12.679 5.182,12.867 5.136 C 13.527 4.973,13.668 4.949,13.696 4.993 C 13.710 5.016,13.740 5.271,13.761 5.559 C 13.830 6.464,13.947 6.785,14.363 7.201 C 14.658 7.495,14.873 7.623,15.495 7.870 C 15.740 7.968,15.948 8.066,15.956 8.088 C 15.965 8.110,15.859 8.309,15.721 8.529 C 15.241 9.294,15.151 9.531,15.151 10.033 C 15.151 10.561,15.212 10.720,15.760 11.617 C 15.918 11.875,15.955 11.959,15.924 11.989 C 15.901 12.010,15.670 12.111,15.410 12.214 C 15.149 12.317,14.846 12.453,14.736 12.518 C 14.441 12.691,14.132 13.019,13.991 13.308 C 13.813 13.674,13.772 13.854,13.727 14.470 C 13.704 14.781,13.676 15.051,13.665 15.070 C 13.651 15.092,13.457 15.056,13.117 14.969 C 12.634 14.845,12.555 14.833,12.161 14.833 C 11.763 14.833,11.712 14.841,11.474 14.933 C 11.130 15.067,10.821 15.303,10.527 15.655 C 10.393 15.816,10.217 16.019,10.136 16.107 L 9.989 16.268 9.907 16.192 C 9.862 16.151,9.684 15.949,9.512 15.744 C 9.052 15.197,8.730 14.966,8.257 14.845 C 7.936 14.762,7.401 14.800,6.802 14.947 C 6.537 15.012,6.314 15.059,6.307 15.051 C 6.299 15.043,6.272 14.802,6.247 14.514 C 6.175 13.689,6.100 13.397,5.877 13.073 C 5.605 12.676,5.209 12.412,4.422 12.100 C 4.223 12.021,4.053 11.938,4.044 11.914 C 4.035 11.891,4.141 11.691,4.279 11.471 C 4.612 10.941,4.725 10.711,4.802 10.408 C 4.881 10.101,4.884 9.872,4.813 9.557 C 4.745 9.253,4.637 9.026,4.301 8.485 C 4.087 8.140,4.041 8.045,4.075 8.012 C 4.098 7.990,4.349 7.881,4.633 7.770 C 4.918 7.659,5.226 7.516,5.320 7.453 C 5.685 7.207,5.967 6.852,6.119 6.447 C 6.196 6.242,6.214 6.122,6.298 5.254 C 6.316 5.073,6.337 4.918,6.346 4.910 C 6.354 4.902,6.634 4.963,6.967 5.047 C 7.829 5.264,8.155 5.252,8.722 4.981 C 9.015 4.841,9.244 4.635,9.673 4.126 C 9.855 3.910,10.017 3.733,10.033 3.733 C 10.049 3.733,10.201 3.902,10.371 4.108 M7.767 6.996 C 7.502 7.053,7.238 7.265,7.111 7.525 C 7.030 7.690,7.017 7.756,7.017 8.000 C 7.018 8.250,7.030 8.304,7.116 8.462 C 7.447 9.063,8.221 9.179,8.700 8.700 C 8.921 8.479,8.982 8.326,8.983 8.000 C 8.983 7.756,8.970 7.690,8.890 7.526 C 8.730 7.200,8.456 7.025,8.050 6.987 C 7.958 6.978,7.831 6.982,7.767 6.996 M9.283 9.300 L 7.084 11.500 7.792 12.208 L 8.500 12.917 10.708 10.708 L 12.916 8.500 12.217 7.800 C 11.832 7.415,11.510 7.100,11.500 7.100 C 11.491 7.100,10.493 8.090,9.283 9.300 M11.767 11.029 C 11.515 11.083,11.255 11.286,11.116 11.538 C 11.029 11.695,11.017 11.749,11.017 11.983 C 11.018 12.285,11.084 12.470,11.264 12.675 C 11.537 12.986,12.055 13.079,12.444 12.888 C 13.085 12.573,13.183 11.655,12.621 11.230 C 12.388 11.054,12.037 10.972,11.767 11.029 " fill="#1A1C1F" stroke="none" fill-rule="evenodd"></path></svg>