<svg xmlns="http://www.w3.org/2000/svg" width="16" height="16" fill="none"><g clip-path="url(#a)"><path fill="#1A1C1F" fill-rule="evenodd" d="M8.032 1.373c.488-.017.959.227 1.267.6l.472.585.763-.178q.195-.05.39-.049c.877 0 1.624.682 1.657 1.56l.048.747.715.292c.634.276 1.056.877 1.056 1.56 0 .308-.097.617-.276.893L13.718 8l.406.666c.162.276.26.585.26.91 0 .666-.423 1.283-1.056 1.527l-.699.26-.065.78c-.064.811-.73 1.542-1.656 1.542-.147 0-.293-.016-.423-.048l-.714-.195-.52.584c-.341.423-.715.585-1.283.601-.488.017-.959-.227-1.267-.6l-.472-.585-.763.178q-.195.05-.39.049c-.877 0-1.624-.682-1.657-1.56l-.048-.747-.715-.292c-.65-.276-1.056-.86-1.056-1.543 0-.325.097-.634.276-.91L2.282 8l-.406-.682a1.7 1.7 0 0 1-.26-.894c0-.666.423-1.283 1.056-1.527l.699-.26.08-.78c.033-.876.78-1.542 1.641-1.542.147 0 .293.016.423.048l.714.195.504-.6c.357-.39.73-.57 1.3-.585zm1.562 3.89L5.28 9.61l1.12 1.12 4.331-4.33zm.323 3.858a.797.797 0 0 0-.796.796.804.804 0 1 0 .796-.796M6.083 5.27a.805.805 0 1 0-.016 1.609.805.805 0 0 0 .016-1.609" clip-rule="evenodd"/></g><defs><clipPath id="a"><path fill="#fff" d="M0 0h16v16H0z"/></clipPath></defs></svg>