<svg xmlns="http://www.w3.org/2000/svg" width="20" height="20" fill="none"><path fill="#1A1C1F" fill-rule="evenodd" d="M9.511 1.782c-.265.059-.59.222-.824.411a6 6 0 0 0-.542.578c-.242.29-.375.424-.41.414-.731-.222-.96-.267-1.352-.268-.322 0-.445.014-.633.074-.659.208-1.2.757-1.363 1.383a7 7 0 0 0-.103.747c-.031.309-.066.59-.079.624-.016.041-.185.122-.523.25-.625.237-.774.323-1.065.619a1.94 1.94 0 0 0-.587 1.389c-.001.525.078.745.55 1.542.139.236.253.442.253.459s-.118.207-.262.423c-.329.491-.425.681-.507.998-.12.471-.068.936.159 1.406.091.19.184.314.39.518.302.3.458.392 1.104.652.238.095.447.186.463.202.017.015.049.289.072.608.022.32.066.669.097.776a2.07 2.07 0 0 0 1.95 1.49c.26.003.415-.019.851-.122.293-.068.557-.132.586-.14.035-.011.146.103.348.357.489.614.766.845 1.192.995.591.207 1.331.124 1.826-.207.129-.086.363-.317.656-.647q.457-.514.507-.498c.77.234.951.268 1.385.266.38-.002.461-.013.658-.087.344-.131.577-.287.83-.557a2.1 2.1 0 0 0 .509-.913c.027-.105.067-.413.088-.683s.048-.526.061-.569c.019-.065.109-.111.522-.267.626-.237.773-.323 1.069-.622.418-.422.6-.904.571-1.516-.022-.476-.105-.706-.482-1.328a7 7 0 0 1-.309-.541c0-.016.122-.214.271-.439s.314-.498.366-.608c.364-.764.197-1.677-.421-2.301-.261-.263-.498-.404-1.068-.635a5 5 0 0 1-.495-.217c-.017-.016-.049-.29-.072-.609-.023-.321-.066-.667-.097-.775a2.03 2.03 0 0 0-1.068-1.275c-.507-.252-.952-.27-1.8-.073-.44.102-.574.123-.603.091-.02-.022-.162-.198-.316-.39-.452-.564-.719-.782-1.156-.943-.244-.089-.887-.112-1.197-.042M7.946 6.658c.538.193.8.86.544 1.383a1 1 0 0 1-1.65.209 1.02 1.02 0 0 1-.184-1.002c.073-.214.368-.516.577-.59a1.2 1.2 0 0 1 .713 0m4.771.642.699.7-2.708 2.708L8 13.417l-.7-.701-.701-.7 2.687-2.708c1.477-1.49 2.696-2.708 2.709-2.708s.337.315.722.7m.142 4.213c.438.222.65.756.487 1.232a1.1 1.1 0 0 1-.566.587c-.362.135-.755.07-1.03-.172a1.016 1.016 0 0 1-.154-1.349c.28-.386.832-.517 1.263-.298"/></svg>