<svg width="12" height="12" viewBox="0 0 12 12" fill="none" xmlns="http://www.w3.org/2000/svg"><path d="M5.734 1.069 C 5.440 1.131,5.270 1.248,4.928 1.624 C 4.646 1.934,4.683 1.922,4.314 1.823 C 4.106 1.768,4.046 1.760,3.818 1.760 C 3.609 1.760,3.535 1.768,3.434 1.802 C 3.058 1.927,2.719 2.277,2.631 2.632 C 2.615 2.697,2.588 2.885,2.570 3.050 C 2.553 3.215,2.534 3.375,2.528 3.405 C 2.515 3.470,2.477 3.492,2.140 3.629 C 1.742 3.792,1.595 3.897,1.432 4.135 C 1.297 4.332,1.235 4.524,1.224 4.771 C 1.211 5.094,1.260 5.240,1.543 5.723 C 1.643 5.894,1.698 6.008,1.688 6.024 C 1.680 6.038,1.601 6.163,1.513 6.300 C 1.324 6.597,1.277 6.698,1.230 6.908 C 1.139 7.315,1.293 7.769,1.621 8.066 C 1.731 8.165,1.955 8.291,2.181 8.380 C 2.235 8.402,2.333 8.446,2.398 8.479 L 2.517 8.539 2.528 8.664 C 2.572 9.176,2.585 9.269,2.629 9.401 C 2.698 9.604,2.789 9.743,2.958 9.905 C 3.067 10.008,3.148 10.065,3.268 10.120 C 3.599 10.273,3.798 10.283,4.300 10.169 C 4.481 10.128,4.640 10.094,4.652 10.092 C 4.663 10.091,4.764 10.199,4.875 10.332 C 5.186 10.704,5.312 10.803,5.600 10.904 C 5.743 10.954,6.034 10.972,6.208 10.942 C 6.544 10.883,6.709 10.776,7.060 10.389 C 7.208 10.226,7.338 10.100,7.358 10.100 C 7.377 10.100,7.514 10.132,7.661 10.171 C 8.000 10.261,8.268 10.281,8.460 10.231 C 8.927 10.109,9.292 9.737,9.391 9.283 C 9.407 9.210,9.433 9.016,9.448 8.852 C 9.464 8.689,9.486 8.546,9.496 8.536 C 9.506 8.526,9.655 8.460,9.827 8.389 C 10.192 8.239,10.260 8.200,10.412 8.048 C 10.645 7.814,10.754 7.574,10.773 7.250 C 10.793 6.925,10.737 6.754,10.456 6.275 L 10.295 5.999 10.400 5.835 C 10.621 5.491,10.687 5.372,10.734 5.237 C 10.877 4.826,10.768 4.359,10.452 4.025 C 10.287 3.851,10.181 3.785,9.804 3.620 C 9.583 3.523,9.512 3.483,9.492 3.442 C 9.477 3.412,9.461 3.285,9.454 3.140 C 9.448 3.002,9.428 2.823,9.410 2.740 C 9.317 2.324,9.034 1.998,8.621 1.832 C 8.479 1.775,8.455 1.771,8.210 1.773 C 7.986 1.775,7.908 1.785,7.640 1.848 L 7.330 1.920 7.270 1.845 C 6.859 1.334,6.680 1.182,6.380 1.091 C 6.227 1.045,5.903 1.034,5.734 1.069 M6.186 2.422 C 6.390 2.674,6.599 2.882,6.725 2.956 C 7.056 3.153,7.346 3.178,7.844 3.054 C 8.005 3.013,8.156 2.980,8.178 2.980 C 8.226 2.980,8.231 3.003,8.261 3.388 C 8.300 3.883,8.372 4.071,8.620 4.322 C 8.794 4.498,8.918 4.571,9.297 4.722 C 9.444 4.781,9.569 4.839,9.574 4.853 C 9.579 4.866,9.514 4.988,9.428 5.124 C 9.343 5.259,9.244 5.432,9.208 5.508 C 9.018 5.903,9.047 6.292,9.296 6.704 C 9.351 6.795,9.437 6.938,9.487 7.020 C 9.558 7.137,9.573 7.175,9.554 7.194 C 9.541 7.207,9.422 7.260,9.290 7.311 C 8.902 7.460,8.763 7.542,8.596 7.717 C 8.343 7.983,8.274 8.174,8.235 8.717 C 8.219 8.941,8.204 9.047,8.187 9.054 C 8.173 9.059,8.042 9.029,7.896 8.988 C 7.657 8.920,7.601 8.911,7.346 8.904 C 7.031 8.895,6.944 8.913,6.740 9.025 C 6.575 9.116,6.460 9.220,6.253 9.467 C 5.979 9.792,6.005 9.778,5.898 9.665 C 5.848 9.613,5.742 9.491,5.662 9.395 C 5.487 9.185,5.357 9.077,5.172 8.988 C 4.889 8.851,4.611 8.846,4.102 8.969 C 3.933 9.009,3.788 9.035,3.780 9.026 C 3.772 9.017,3.755 8.857,3.743 8.670 C 3.717 8.280,3.689 8.151,3.585 7.952 C 3.428 7.651,3.184 7.471,2.653 7.260 C 2.534 7.213,2.432 7.163,2.427 7.149 C 2.421 7.134,2.485 7.015,2.568 6.882 C 2.767 6.565,2.835 6.427,2.881 6.245 C 2.970 5.897,2.902 5.602,2.634 5.180 C 2.575 5.087,2.502 4.968,2.472 4.916 L 2.418 4.822 2.474 4.793 C 2.505 4.778,2.653 4.715,2.804 4.653 C 3.133 4.520,3.307 4.414,3.438 4.266 C 3.640 4.039,3.722 3.808,3.758 3.358 C 3.784 3.045,3.798 2.940,3.817 2.940 C 3.824 2.940,3.991 2.981,4.187 3.030 C 4.595 3.133,4.745 3.143,4.985 3.081 C 5.301 3.000,5.448 2.892,5.794 2.486 C 5.910 2.350,6.015 2.242,6.027 2.246 C 6.040 2.250,6.111 2.329,6.186 2.422 M4.660 4.218 C 4.508 4.250,4.353 4.372,4.270 4.523 C 4.219 4.618,4.212 4.650,4.212 4.800 C 4.212 4.950,4.219 4.983,4.270 5.076 C 4.335 5.196,4.421 5.279,4.546 5.344 C 4.665 5.406,4.934 5.406,5.052 5.345 C 5.301 5.216,5.420 4.993,5.389 4.716 C 5.366 4.509,5.189 4.290,5.004 4.242 C 4.891 4.212,4.738 4.201,4.660 4.218 M5.570 5.580 L 4.250 6.900 4.675 7.325 L 5.100 7.750 6.425 6.425 L 7.750 5.100 7.330 4.680 C 7.099 4.449,6.906 4.260,6.900 4.260 C 6.894 4.260,6.296 4.854,5.570 5.580 M7.050 6.617 C 6.901 6.656,6.749 6.778,6.672 6.921 C 6.550 7.145,6.590 7.424,6.772 7.611 C 6.897 7.739,7.013 7.788,7.200 7.789 C 7.445 7.790,7.628 7.677,7.744 7.454 C 7.779 7.387,7.787 7.336,7.787 7.200 C 7.788 7.017,7.767 6.957,7.656 6.816 C 7.541 6.669,7.236 6.569,7.050 6.617 " fill="#1A1C1F" stroke="none" fill-rule="evenodd"></path></svg>