<svg width="12" height="12" viewBox="0 0 12 12" fill="none" xmlns="http://www.w3.org/2000/svg"><path d="M5.775 1.060 C 5.549 1.099,5.323 1.212,5.163 1.366 C 5.115 1.412,4.985 1.552,4.875 1.677 C 4.644 1.938,4.697 1.925,4.314 1.823 C 4.105 1.767,4.047 1.760,3.814 1.760 C 3.587 1.761,3.531 1.768,3.414 1.809 C 3.035 1.943,2.693 2.312,2.622 2.665 C 2.610 2.723,2.583 2.922,2.561 3.108 C 2.538 3.311,2.512 3.457,2.496 3.472 C 2.482 3.486,2.362 3.540,2.230 3.591 C 1.893 3.721,1.741 3.805,1.600 3.943 C 1.351 4.187,1.243 4.424,1.225 4.770 C 1.209 5.087,1.264 5.248,1.559 5.750 C 1.637 5.882,1.696 6.002,1.690 6.016 C 1.685 6.031,1.608 6.155,1.519 6.292 C 1.324 6.592,1.272 6.705,1.228 6.922 C 1.187 7.129,1.199 7.313,1.268 7.530 C 1.328 7.717,1.409 7.844,1.572 8.007 C 1.738 8.173,1.846 8.239,2.205 8.391 C 2.428 8.486,2.520 8.534,2.520 8.557 C 2.521 8.666,2.582 9.232,2.602 9.313 C 2.665 9.569,2.837 9.834,3.042 9.989 C 3.392 10.254,3.769 10.302,4.363 10.160 C 4.513 10.123,4.649 10.099,4.666 10.106 C 4.682 10.112,4.781 10.219,4.885 10.344 C 5.121 10.625,5.218 10.719,5.365 10.807 C 5.715 11.016,6.291 11.013,6.615 10.800 C 6.727 10.728,6.936 10.522,7.201 10.225 L 7.330 10.080 7.537 10.139 C 7.839 10.226,8.118 10.268,8.291 10.253 C 8.811 10.209,9.279 9.798,9.390 9.287 C 9.406 9.212,9.433 9.016,9.449 8.852 C 9.467 8.664,9.487 8.545,9.504 8.529 C 9.518 8.516,9.607 8.475,9.700 8.439 C 10.158 8.263,10.243 8.215,10.423 8.034 C 10.648 7.807,10.755 7.569,10.773 7.250 C 10.792 6.925,10.732 6.740,10.448 6.258 L 10.295 5.999 10.401 5.834 C 10.627 5.482,10.694 5.361,10.738 5.229 C 10.873 4.815,10.767 4.363,10.456 4.029 C 10.285 3.847,10.191 3.787,9.826 3.627 C 9.665 3.557,9.522 3.490,9.508 3.478 C 9.482 3.456,9.475 3.412,9.441 3.006 C 9.399 2.521,9.233 2.203,8.904 1.976 C 8.571 1.747,8.260 1.713,7.680 1.841 C 7.532 1.873,7.388 1.900,7.360 1.900 C 7.321 1.900,7.274 1.855,7.141 1.688 C 7.047 1.571,6.917 1.425,6.850 1.363 C 6.711 1.233,6.491 1.110,6.348 1.082 C 6.203 1.053,5.884 1.041,5.775 1.060 M4.813 4.022 C 4.942 4.084,5.069 4.218,5.108 4.333 C 5.157 4.476,5.150 4.688,5.093 4.810 C 4.915 5.188,4.434 5.274,4.140 4.980 C 4.015 4.855,3.971 4.743,3.971 4.550 C 3.971 4.378,4.002 4.292,4.111 4.162 C 4.172 4.090,4.313 4.002,4.407 3.978 C 4.514 3.950,4.709 3.971,4.813 4.022 M7.650 4.399 L 8.050 4.800 6.425 6.425 L 4.800 8.050 4.380 7.630 L 3.960 7.210 5.572 5.585 C 6.892 4.254,7.189 3.964,7.217 3.979 C 7.235 3.989,7.430 4.178,7.650 4.399 M7.691 6.908 C 7.812 6.963,7.923 7.072,7.981 7.192 C 8.041 7.315,8.040 7.556,7.979 7.697 C 7.930 7.813,7.799 7.943,7.687 7.990 C 7.566 8.041,7.403 8.049,7.275 8.012 C 7.111 7.965,7.003 7.873,6.921 7.713 C 6.862 7.598,6.852 7.557,6.852 7.444 C 6.853 7.283,6.907 7.146,7.016 7.033 C 7.199 6.844,7.449 6.798,7.691 6.908 " fill="#1A1C1F" stroke="none" fill-rule="evenodd"></path></svg>