<svg xmlns="http://www.w3.org/2000/svg" width="14" height="14" fill="none"><g clip-path="url(#a)"><path fill="#1A1C1F" fill-rule="evenodd" d="M7.029 1.206a1.4 1.4 0 0 1 1.105.52l.415.513.669-.158a1.455 1.455 0 0 1 1.797 1.323l.036.654.628.262c.548.229.921.761.921 1.358 0 .27-.085.54-.242.78L12.003 7l.355.585c.144.238.228.51.228.794 0 .582-.369 1.125-.923 1.333l-.612.23-.056.684c-.059.708-.64 1.349-1.45 1.349-.129 0-.257-.013-.369-.044l-.627-.17-.448.518c-.311.358-.639.5-1.13.515a1.4 1.4 0 0 1-1.105-.52l-.415-.513-.669.158a1.455 1.455 0 0 1-1.797-1.323l-.036-.654-.629-.26c-.56-.233-.92-.749-.92-1.346 0-.284.085-.555.242-.795L1.997 7l-.359-.598a1.5 1.5 0 0 1-.224-.78c0-.583.369-1.126.923-1.334l.612-.23.071-.682c.029-.768.683-1.35 1.436-1.35.128 0 .256.012.368.043l.627.17.445-.52c.303-.354.642-.498 1.133-.513m-.015 1.388-.437.529a1.43 1.43 0 0 1-1.497.47l-.624-.175-.043.029-.04.654a1.43 1.43 0 0 1-.925 1.265l-.612.227-.015.057.355.556c.144.225.228.496.228.766 0 .284-.084.554-.242.794l-.355.542.014.056.613.24c.523.204.895.699.921 1.266l.03.655.042.028.625-.16c.13-.034.242-.053.37-.053.441 0 .852.2 1.123.538l.412.514h.057l.412-.514a1.41 1.41 0 0 1 1.095-.524c.128 0 .269.018.399.054l.624.174.043-.029.04-.654a1.43 1.43 0 0 1 .925-1.265l.612-.227.015-.057-.355-.556a1.44 1.44 0 0 1-.228-.766c0-.284.084-.554.242-.794l.355-.542-.014-.056-.613-.24a1.44 1.44 0 0 1-.921-1.266l-.03-.655-.042-.028-.627.17a1.46 1.46 0 0 1-1.489-.498l-.414-.51c0-.015-.015-.015-.029-.015M4.896 5.607a.704.704 0 1 1 1.408-.014.704.704 0 0 1-1.408.014m.072 2.445 3.084-3.099.995.995-3.099 3.084zm2.728.34c0-.383.313-.696.697-.696a.704.704 0 1 1-.697.696" clip-rule="evenodd"/></g><defs><clipPath id="a"><path fill="#fff" d="M0 0h14v14H0z"/></clipPath></defs></svg>