<svg width="16" height="16" viewBox="0 0 16 16" fill="none" xmlns="http://www.w3.org/2000/svg"><path d="M7.707 1.412 C 7.276 1.475,6.922 1.723,6.453 2.290 C 6.341 2.426,6.233 2.532,6.206 2.533 C 6.180 2.533,5.997 2.491,5.798 2.440 C 5.473 2.356,5.402 2.347,5.085 2.347 C 4.783 2.348,4.708 2.357,4.551 2.412 C 4.163 2.549,3.790 2.875,3.615 3.232 C 3.508 3.452,3.487 3.543,3.429 4.068 C 3.406 4.272,3.380 4.479,3.372 4.527 C 3.355 4.627,3.303 4.659,2.910 4.811 C 2.374 5.018,2.096 5.222,1.864 5.580 C 1.695 5.842,1.640 6.058,1.641 6.453 C 1.643 6.863,1.678 6.965,2.030 7.580 C 2.172 7.829,2.262 8.013,2.251 8.033 C 2.240 8.052,2.136 8.214,2.020 8.394 C 1.770 8.784,1.697 8.939,1.642 9.209 C 1.589 9.466,1.589 9.634,1.643 9.875 C 1.715 10.197,1.820 10.381,2.090 10.661 C 2.348 10.927,2.475 11.003,3.030 11.224 C 3.359 11.355,3.362 11.360,3.403 11.860 C 3.445 12.363,3.471 12.488,3.588 12.733 C 3.743 13.059,4.014 13.334,4.332 13.489 C 4.738 13.687,5.088 13.704,5.749 13.557 C 5.988 13.504,6.202 13.467,6.223 13.475 C 6.245 13.483,6.372 13.622,6.505 13.783 C 7.037 14.425,7.370 14.614,7.972 14.613 C 8.272 14.612,8.508 14.562,8.736 14.450 C 8.903 14.368,9.180 14.106,9.601 13.633 L 9.773 13.439 10.045 13.517 C 10.368 13.610,10.756 13.680,10.945 13.680 C 11.412 13.678,11.865 13.446,12.206 13.034 C 12.443 12.748,12.532 12.464,12.599 11.789 C 12.622 11.550,12.650 11.393,12.671 11.373 C 12.691 11.354,12.809 11.300,12.933 11.252 C 13.544 11.017,13.658 10.954,13.897 10.713 C 14.198 10.409,14.340 10.092,14.365 9.667 C 14.390 9.233,14.309 8.986,13.931 8.344 L 13.727 7.998 13.867 7.779 C 14.278 7.137,14.361 6.951,14.390 6.607 C 14.423 6.225,14.273 5.751,14.026 5.453 C 13.798 5.179,13.530 5.006,12.995 4.787 C 12.636 4.641,12.638 4.643,12.597 4.140 C 12.555 3.638,12.529 3.512,12.412 3.267 C 12.245 2.913,11.993 2.668,11.612 2.491 C 11.242 2.318,10.914 2.309,10.234 2.454 C 10.028 2.497,9.833 2.533,9.802 2.533 C 9.764 2.533,9.677 2.446,9.521 2.250 C 9.141 1.776,8.864 1.552,8.542 1.458 C 8.373 1.408,7.907 1.383,7.707 1.412 M6.416 5.361 C 6.702 5.500,6.834 5.711,6.848 6.056 C 6.857 6.259,6.851 6.300,6.791 6.416 C 6.540 6.907,5.904 7.024,5.527 6.647 C 5.356 6.476,5.293 6.318,5.296 6.067 C 5.298 5.942,5.316 5.814,5.340 5.758 C 5.387 5.647,5.519 5.490,5.635 5.408 C 5.828 5.270,6.184 5.249,6.416 5.361 M10.200 5.865 L 10.733 6.400 8.567 8.567 L 6.400 10.733 5.840 10.173 L 5.280 9.613 7.429 7.447 C 9.189 5.672,9.586 5.285,9.622 5.305 C 9.647 5.319,9.907 5.571,10.200 5.865 M10.288 9.230 C 10.561 9.362,10.698 9.590,10.703 9.920 C 10.706 10.089,10.695 10.144,10.632 10.272 C 10.495 10.552,10.228 10.720,9.919 10.720 C 9.609 10.720,9.364 10.564,9.222 10.275 C 9.147 10.122,9.135 10.070,9.137 9.909 C 9.144 9.305,9.730 8.959,10.288 9.230 " fill="#1A1C1F" stroke="none" fill-rule="evenodd"></path></svg>