<svg xmlns="http://www.w3.org/2000/svg" width="14" height="14" fill="none"><g clip-path="url(#a)"><path fill="#1A1C1F" fill-rule="evenodd" d="M7.028 1.201c.427-.014.839.199 1.109.526l.412.512.668-.157q.171-.042.341-.042c.768 0 1.422.597 1.45 1.364l.043.654.625.256c.554.241.924.767.924 1.364 0 .27-.085.54-.242.782l-.355.54.355.583c.142.241.228.511.228.796 0 .582-.37 1.123-.924 1.336l-.611.227-.057.682c-.057.711-.64 1.35-1.45 1.35q-.188 0-.37-.042l-.625-.17-.455.511c-.298.37-.625.512-1.122.526-.427.014-.839-.199-1.109-.526l-.412-.512-.668.157a1.4 1.4 0 0 1-.341.042c-.768 0-1.422-.597-1.45-1.364l-.043-.654-.625-.256c-.569-.241-.924-.753-.924-1.35 0-.284.085-.554.242-.796L1.997 7l-.355-.597a1.5 1.5 0 0 1-.228-.782c0-.582.37-1.123.924-1.336l.611-.227.071-.682c.029-.768.683-1.35 1.436-1.35.128 0 .256.014.37.042l.625.17.44-.525c.313-.341.64-.498 1.137-.512m1.367 3.404L4.62 8.41l.98.98L9.39 5.6zm.282 3.376a.7.7 0 0 0-.696.696.704.704 0 1 0 .696-.696M5.323 4.612a.704.704 0 1 0-.014 1.408.704.704 0 0 0 .014-1.408" clip-rule="evenodd"/></g><defs><clipPath id="a"><path fill="#fff" d="M0 0h14v14H0z"/></clipPath></defs></svg>