<svg width="24" height="24" viewBox="0 0 24 24" fill="none" xmlns="http://www.w3.org/2000/svg"><path d="M11.543 2.202 C 11.278 2.247,10.875 2.457,10.629 2.678 C 10.519 2.777,10.205 3.124,9.932 3.449 C 9.660 3.774,9.420 4.040,9.400 4.040 C 9.380 4.040,9.040 3.960,8.645 3.862 C 7.819 3.658,7.370 3.608,7.019 3.679 C 6.253 3.836,5.541 4.549,5.402 5.300 C 5.378 5.432,5.334 5.881,5.304 6.297 C 5.259 6.932,5.239 7.062,5.180 7.105 C 5.141 7.133,4.828 7.267,4.485 7.403 C 3.456 7.809,3.194 7.980,2.883 8.445 C 2.654 8.787,2.554 9.133,2.550 9.600 C 2.543 10.198,2.587 10.300,3.417 11.630 L 3.648 12.000 3.417 12.370 C 2.590 13.694,2.545 13.799,2.545 14.400 C 2.546 14.928,2.678 15.306,3.014 15.735 C 3.271 16.065,3.533 16.221,4.408 16.566 L 5.237 16.893 5.257 17.057 C 5.268 17.146,5.287 17.427,5.300 17.680 C 5.330 18.286,5.386 18.684,5.486 18.990 C 5.632 19.441,6.048 19.901,6.534 20.147 C 7.149 20.459,7.561 20.441,8.977 20.043 C 9.217 19.975,9.418 19.920,9.423 19.920 C 9.428 19.920,9.618 20.149,9.844 20.430 C 10.071 20.711,10.392 21.076,10.558 21.243 C 10.811 21.497,10.912 21.568,11.180 21.679 C 11.620 21.862,12.132 21.892,12.566 21.762 C 13.127 21.593,13.327 21.432,14.068 20.550 C 14.340 20.226,14.579 19.960,14.597 19.960 C 14.616 19.960,14.986 20.050,15.420 20.160 C 16.049 20.319,16.275 20.360,16.536 20.360 C 17.142 20.360,17.551 20.192,17.995 19.759 C 18.521 19.246,18.623 18.939,18.698 17.640 C 18.712 17.409,18.733 17.145,18.745 17.054 L 18.768 16.888 19.154 16.738 C 20.401 16.253,20.556 16.174,20.866 15.858 C 21.148 15.570,21.335 15.218,21.421 14.810 C 21.567 14.121,21.464 13.789,20.747 12.640 C 20.547 12.321,20.384 12.033,20.384 12.000 C 20.384 11.967,20.547 11.679,20.747 11.360 C 21.464 10.210,21.567 9.879,21.421 9.189 C 21.337 8.792,21.139 8.420,20.860 8.136 C 20.580 7.850,20.396 7.752,19.453 7.384 L 18.765 7.115 18.743 6.908 C 18.731 6.793,18.703 6.419,18.680 6.075 C 18.657 5.731,18.612 5.349,18.580 5.225 C 18.426 4.634,18.021 4.137,17.479 3.873 C 16.877 3.579,16.511 3.577,15.362 3.861 C 14.963 3.959,14.620 4.040,14.600 4.040 C 14.580 4.040,14.339 3.773,14.065 3.446 C 13.791 3.120,13.471 2.768,13.353 2.664 C 12.869 2.238,12.259 2.082,11.543 2.202 M12.287 4.454 C 12.426 4.615,12.680 4.911,12.851 5.111 C 13.268 5.599,13.558 5.812,13.986 5.945 C 14.281 6.037,14.369 6.048,14.672 6.028 C 14.864 6.015,15.218 5.958,15.460 5.901 C 16.047 5.762,16.614 5.641,16.626 5.653 C 16.631 5.658,16.664 6.043,16.699 6.507 C 16.791 7.730,16.878 7.992,17.360 8.484 C 17.650 8.780,17.775 8.851,18.623 9.201 C 19.347 9.500,19.440 9.547,19.440 9.616 C 19.440 9.645,19.295 9.901,19.117 10.185 C 18.451 11.246,18.333 11.550,18.372 12.095 C 18.411 12.625,18.508 12.849,19.128 13.836 C 19.300 14.108,19.440 14.362,19.440 14.399 C 19.440 14.476,19.407 14.493,18.720 14.767 C 17.957 15.072,17.626 15.258,17.337 15.547 C 16.889 15.995,16.758 16.412,16.686 17.615 C 16.659 18.052,16.630 18.267,16.593 18.304 C 16.548 18.350,16.434 18.333,15.880 18.200 C 14.953 17.977,14.598 17.933,14.240 17.997 C 13.633 18.106,13.260 18.383,12.511 19.283 C 12.299 19.537,12.098 19.769,12.063 19.798 C 11.979 19.867,11.955 19.845,11.492 19.289 C 10.590 18.206,10.242 17.992,9.380 17.986 C 9.031 17.983,8.881 18.007,8.205 18.175 C 7.679 18.305,7.417 18.353,7.390 18.326 C 7.367 18.303,7.334 18.018,7.315 17.693 C 7.253 16.605,7.163 16.202,6.893 15.808 C 6.600 15.381,6.336 15.210,5.240 14.740 C 4.863 14.578,4.576 14.431,4.569 14.398 C 4.563 14.366,4.741 14.042,4.965 13.680 C 5.190 13.317,5.413 12.930,5.462 12.820 C 5.662 12.367,5.686 11.822,5.526 11.357 C 5.425 11.063,5.364 10.949,5.017 10.394 C 4.857 10.138,4.687 9.851,4.638 9.757 C 4.529 9.542,4.501 9.563,5.292 9.238 C 6.200 8.864,6.349 8.781,6.640 8.484 C 7.118 7.996,7.210 7.721,7.302 6.498 C 7.336 6.038,7.369 5.658,7.374 5.653 C 7.385 5.641,7.932 5.757,8.540 5.900 C 9.378 6.096,9.814 6.076,10.331 5.818 C 10.641 5.663,10.820 5.495,11.406 4.810 C 11.711 4.452,11.978 4.160,11.998 4.160 C 12.018 4.160,12.148 4.292,12.287 4.454 M8.659 8.981 C 8.143 9.172,7.860 9.745,8.024 10.266 C 8.221 10.895,8.933 11.175,9.522 10.855 C 9.959 10.617,10.152 10.086,9.978 9.595 C 9.809 9.115,9.139 8.804,8.659 8.981 M13.708 9.046 C 13.607 9.075,13.420 9.213,13.148 9.459 C 12.536 10.015,9.402 13.185,9.201 13.453 C 9.056 13.645,9.023 13.723,9.008 13.904 C 8.980 14.240,9.062 14.467,9.298 14.702 C 9.533 14.938,9.760 15.020,10.096 14.992 C 10.275 14.977,10.356 14.943,10.547 14.801 C 10.858 14.571,14.814 10.607,14.901 10.439 C 14.990 10.266,15.022 9.889,14.963 9.709 C 14.793 9.195,14.233 8.899,13.708 9.046 M14.560 13.147 C 13.673 13.604,13.937 14.909,14.933 14.991 C 15.356 15.026,15.700 14.827,15.896 14.432 C 16.122 13.979,15.952 13.440,15.495 13.157 C 15.416 13.108,15.263 13.071,15.075 13.057 C 14.805 13.035,14.761 13.043,14.560 13.147 " fill="#1A1C1F" stroke="none" fill-rule="evenodd"></path></svg>