<svg xmlns="http://www.w3.org/2000/svg" width="12" height="12" fill="none"><g clip-path="url(#a)"><path fill="#1A1C1F" fill-rule="evenodd" d="M6.024 1.034a1.2 1.2 0 0 1 .948.446l.356.44.573-.136a1.247 1.247 0 0 1 1.54 1.134l.03.56.54.225c.47.196.789.652.789 1.164 0 .232-.072.463-.207.67L10.288 6l.304.502c.124.204.196.436.196.68 0 .5-.316.964-.791 1.142l-.525.198-.048.586c-.05.607-.549 1.156-1.243 1.156-.11 0-.22-.01-.316-.037l-.537-.146-.385.444c-.266.307-.547.43-.967.441a1.2 1.2 0 0 1-.948-.445l-.356-.44-.573.136a1.246 1.246 0 0 1-1.54-1.135l-.031-.56-.54-.223A1.24 1.24 0 0 1 1.2 7.145c0-.244.072-.475.207-.68L1.712 6l-.308-.512a1.23 1.23 0 0 1 .599-1.812l.525-.198.06-.585c.025-.657.586-1.157 1.231-1.157.11 0 .22.011.316.037l.537.146.382-.446c.26-.303.55-.426.97-.44zm-.012 1.19-.374.453a1.23 1.23 0 0 1-1.283.402l-.536-.15-.036.025-.034.56c-.03.488-.332.914-.794 1.085l-.525.195-.012.05.305.475c.123.193.195.425.195.657 0 .243-.073.475-.208.68l-.304.465.012.05.525.203c.449.176.768.6.79 1.086l.025.561.037.025.535-.138a1.21 1.21 0 0 1 1.28.416l.353.44h.05l.352-.44a1.21 1.21 0 0 1 1.28-.403l.536.15.036-.025.034-.56c.03-.488.332-.914.794-1.085l.525-.195.012-.049-.305-.476a1.24 1.24 0 0 1-.195-.657c0-.243.073-.475.208-.68l.304-.465-.012-.049-.525-.204a1.24 1.24 0 0 1-.79-1.086l-.025-.56-.037-.026-.537.146a1.25 1.25 0 0 1-1.276-.427l-.355-.437c0-.013-.013-.012-.025-.012M4.197 4.805a.603.603 0 1 1 1.206-.012.603.603 0 0 1-1.206.012m.06 2.095L6.9 4.245l.853.853L5.1 7.742l-.841-.84zm2.34.293a.603.603 0 1 1 1.206.012.603.603 0 0 1-1.206-.012" clip-rule="evenodd"/></g><defs><clipPath id="a"><path fill="#fff" d="M0 0h12v12H0z"/></clipPath></defs></svg>