<svg xmlns="http://www.w3.org/2000/svg" width="20" height="20" fill="none"><g clip-path="url(#a)"><path fill="#1A1C1F" fill-rule="evenodd" d="M10.04 1.716c.61-.02 1.199.284 1.584.751l.59.731.954-.223q.243-.061.487-.061c1.096 0 2.03.853 2.07 1.949l.062.934.893.365c.792.346 1.32 1.097 1.32 1.95 0 .386-.122.771-.345 1.116l-.508.772.508.833c.203.345.325.73.325 1.137 0 .832-.528 1.604-1.32 1.908l-.873.325-.081.975c-.082 1.015-.914 1.929-2.072 1.929-.182 0-.365-.02-.527-.061l-.894-.244-.65.731c-.426.528-.893.73-1.604.751-.609.02-1.198-.284-1.583-.751l-.59-.731-.954.223q-.24.06-.487.061c-1.096 0-2.03-.853-2.07-1.949l-.062-.934-.893-.365C2.508 13.492 2 12.76 2 11.908c0-.406.122-.791.345-1.136L2.853 10l-.508-.853A2.1 2.1 0 0 1 2.02 8.03c0-.832.528-1.604 1.32-1.908l.873-.325.102-.975c.04-1.096.974-1.929 2.05-1.929.183 0 .366.02.528.061l.894.244.63-.751c.446-.488.913-.71 1.624-.731zm1.953 4.863L6.6 12.012 8 13.413 13.415 8zm.403 4.822a.996.996 0 0 0-.995.995 1 1 0 0 0 .995 1.015 1.004 1.004 0 0 0 .936-1.4 1 1 0 0 0-.936-.61M7.604 6.589a1.004 1.004 0 0 0-.936 1.4 1 1 0 0 0 .936.61.996.996 0 0 0 .995-.995 1 1 0 0 0-.995-1.015" clip-rule="evenodd"/></g><defs><clipPath id="a"><path fill="#fff" d="M0 0h20v20H0z"/></clipPath></defs></svg>