<svg xmlns="http://www.w3.org/2000/svg" width="12" height="12" fill="none"><g clip-path="url(#a)"><path fill="#1A1C1F" fill-rule="evenodd" d="M6.024 1.03a1.2 1.2 0 0 1 .95.45l.354.44.573-.135q.145-.037.292-.037c.658 0 1.218.512 1.243 1.17l.036.56.536.22c.475.207.792.657.792 1.17 0 .231-.073.462-.207.67L10.288 6l.305.5c.122.207.195.438.195.682 0 .5-.317.962-.792 1.145l-.524.195-.049.585a1.25 1.25 0 0 1-1.242 1.158c-.11 0-.22-.013-.317-.038l-.536-.146-.39.44c-.256.316-.536.438-.962.45a1.2 1.2 0 0 1-.95-.45l-.354-.44-.573.135a1.2 1.2 0 0 1-.292.037c-.658 0-1.218-.513-1.243-1.17l-.036-.56-.536-.22c-.487-.208-.792-.646-.792-1.158 0-.244.073-.475.207-.682L1.712 6l-.305-.512a1.27 1.27 0 0 1-.195-.67c0-.5.317-.962.792-1.145l.524-.195.06-.585c.025-.657.586-1.157 1.231-1.157.11 0 .22.012.317.037l.536.146.378-.45c.268-.293.548-.426.974-.439m1.172 2.917L3.96 7.207l.84.841L8.048 4.8zm.242 2.894a.6.6 0 0 0-.597.597.603.603 0 1 0 .597-.597M4.562 3.953A.604.604 0 1 0 4.55 5.16a.604.604 0 0 0 .012-1.207" clip-rule="evenodd"/></g><defs><clipPath id="a"><path fill="#fff" d="M0 0h12v12H0z"/></clipPath></defs></svg>