<svg width="32" height="32" viewBox="0 0 32 32" fill="none" xmlns="http://www.w3.org/2000/svg"><path d="M15.435 2.452 C 14.808 2.585,14.590 2.764,13.616 3.940 C 12.645 5.112,12.486 5.280,12.348 5.280 C 12.287 5.280,11.706 5.139,11.058 4.966 C 9.474 4.544,9.230 4.503,8.775 4.582 C 8.026 4.713,7.322 5.241,7.097 5.842 C 6.951 6.232,6.900 6.623,6.825 7.920 C 6.790 8.507,6.747 9.080,6.727 9.195 L 6.692 9.403 5.466 9.877 C 4.792 10.138,4.078 10.426,3.880 10.517 C 3.444 10.717,3.043 11.119,2.838 11.560 C 2.714 11.829,2.696 11.933,2.697 12.401 C 2.698 12.884,2.714 12.969,2.861 13.281 C 2.950 13.471,3.287 14.035,3.609 14.533 C 3.931 15.032,4.263 15.563,4.347 15.714 L 4.500 15.987 4.279 16.359 C 4.157 16.564,3.794 17.144,3.472 17.647 C 2.740 18.792,2.646 19.024,2.682 19.600 C 2.723 20.254,2.874 20.591,3.328 21.043 C 3.682 21.395,3.748 21.435,4.347 21.667 C 6.762 22.604,6.687 22.569,6.727 22.773 C 6.746 22.876,6.791 23.452,6.826 24.053 C 6.933 25.895,7.053 26.313,7.627 26.845 C 8.031 27.220,8.403 27.368,9.013 27.398 C 9.414 27.417,9.564 27.395,10.293 27.204 C 12.547 26.615,12.417 26.641,12.542 26.753 C 12.604 26.808,13.020 27.297,13.466 27.840 C 14.446 29.031,14.703 29.278,15.123 29.440 C 15.556 29.606,16.200 29.642,16.618 29.523 C 17.135 29.375,17.416 29.147,18.137 28.290 C 19.204 27.022,19.522 26.667,19.592 26.667 C 19.628 26.667,20.196 26.808,20.855 26.981 C 22.487 27.410,22.591 27.429,23.044 27.402 C 23.642 27.365,24.009 27.201,24.432 26.778 C 24.986 26.224,25.064 25.918,25.194 23.809 C 25.232 23.191,25.279 22.658,25.299 22.626 C 25.333 22.571,25.975 22.310,27.627 21.680 C 28.253 21.442,28.315 21.405,28.643 21.073 C 28.850 20.864,29.057 20.589,29.150 20.400 C 29.294 20.106,29.307 20.034,29.305 19.520 C 29.302 18.826,29.289 18.797,28.239 17.190 L 27.479 16.027 27.588 15.813 C 27.647 15.696,27.980 15.162,28.327 14.627 C 28.674 14.092,29.018 13.540,29.091 13.400 C 29.641 12.345,29.215 11.059,28.142 10.535 C 27.932 10.432,27.208 10.135,26.534 9.875 L 25.308 9.403 25.273 9.195 C 25.253 9.080,25.210 8.507,25.175 7.920 C 25.100 6.623,25.049 6.232,24.903 5.842 C 24.676 5.235,23.964 4.705,23.206 4.580 C 22.751 4.505,22.594 4.531,21.044 4.940 C 20.431 5.102,19.833 5.239,19.716 5.244 L 19.504 5.253 18.606 4.187 C 17.576 2.962,17.425 2.815,16.987 2.609 C 16.729 2.488,16.568 2.454,16.160 2.432 C 15.881 2.417,15.555 2.426,15.435 2.452 M16.764 5.124 C 18.391 7.081,18.560 7.205,19.600 7.206 C 20.076 7.206,20.270 7.171,21.413 6.883 C 22.117 6.705,22.769 6.560,22.861 6.560 C 23.017 6.560,23.030 6.575,23.059 6.787 C 23.076 6.911,23.116 7.457,23.148 8.000 C 23.215 9.154,23.283 9.732,23.387 10.028 C 23.545 10.474,23.968 10.942,24.426 11.175 C 24.528 11.227,25.198 11.492,25.914 11.765 C 26.630 12.038,27.241 12.286,27.272 12.317 C 27.354 12.400,27.185 12.716,26.462 13.831 C 25.487 15.334,25.487 15.333,25.487 16.022 C 25.487 16.562,25.579 16.766,26.381 18.030 C 27.315 19.500,27.321 19.511,27.286 19.603 C 27.250 19.697,27.074 19.776,25.913 20.213 C 24.146 20.879,23.797 21.102,23.473 21.771 C 23.281 22.169,23.227 22.534,23.148 24.000 C 23.073 25.377,23.062 25.440,22.909 25.440 C 22.841 25.440,22.201 25.293,21.487 25.113 C 20.404 24.841,20.087 24.782,19.593 24.760 C 18.999 24.734,18.999 24.734,18.662 24.914 C 18.233 25.142,17.972 25.401,16.976 26.590 C 16.029 27.720,16.031 27.718,15.915 27.623 C 15.869 27.584,15.468 27.119,15.024 26.590 C 14.040 25.415,13.699 25.072,13.330 24.888 C 13.081 24.764,12.982 24.747,12.527 24.747 C 12.065 24.747,11.861 24.784,10.633 25.096 C 9.876 25.288,9.196 25.438,9.121 25.429 C 8.961 25.410,8.950 25.343,8.857 23.893 C 8.770 22.525,8.713 22.155,8.534 21.787 C 8.203 21.107,7.923 20.921,6.293 20.294 C 5.018 19.803,4.693 19.651,4.693 19.547 C 4.693 19.499,4.990 19.000,5.352 18.437 C 6.484 16.677,6.506 16.629,6.506 15.910 C 6.507 15.507,6.491 15.442,6.304 15.083 C 6.192 14.869,5.772 14.185,5.371 13.563 C 4.969 12.941,4.640 12.420,4.640 12.404 C 4.640 12.345,5.129 12.130,6.131 11.749 C 7.563 11.205,7.811 11.079,8.168 10.715 C 8.650 10.224,8.753 9.836,8.852 8.133 C 8.920 6.956,8.950 6.700,9.035 6.585 C 9.096 6.501,9.210 6.522,10.503 6.847 C 12.140 7.259,12.485 7.306,12.935 7.175 C 13.595 6.983,13.856 6.778,14.630 5.842 C 15.599 4.669,15.961 4.263,16.020 4.282 C 16.053 4.292,16.388 4.671,16.764 5.124 M12.030 11.147 C 11.520 11.238,10.801 11.889,10.660 12.386 C 10.625 12.511,10.595 12.819,10.593 13.069 C 10.591 13.468,10.610 13.566,10.745 13.842 C 10.943 14.246,11.301 14.604,11.707 14.803 C 11.997 14.945,12.076 14.959,12.560 14.958 C 12.985 14.956,13.142 14.933,13.333 14.844 C 13.920 14.573,14.312 14.123,14.483 13.524 C 14.723 12.682,14.310 11.746,13.510 11.320 C 13.255 11.184,13.119 11.149,12.746 11.127 C 12.497 11.112,12.175 11.121,12.030 11.147 M19.668 11.162 C 19.504 11.235,18.592 12.101,14.960 15.632 C 11.457 19.039,11.118 19.388,11.043 19.667 C 10.925 20.110,11.111 20.527,11.518 20.733 C 11.790 20.870,12.134 20.889,12.388 20.780 C 12.704 20.645,20.661 12.839,20.903 12.427 C 21.038 12.197,21.041 11.985,20.913 11.707 C 20.687 11.218,20.112 10.967,19.668 11.162 M19.434 17.011 C 18.890 17.140,18.331 17.603,18.092 18.121 C 17.901 18.536,17.890 19.249,18.071 19.649 C 18.425 20.436,19.202 20.899,20.076 20.842 C 20.778 20.796,21.453 20.332,21.747 19.694 C 21.868 19.433,21.889 19.315,21.888 18.907 C 21.887 18.379,21.809 18.140,21.500 17.721 C 21.082 17.154,20.161 16.837,19.434 17.011 " fill="#1A1C1F" stroke="none" fill-rule="evenodd"></path></svg>