<svg width="14" height="14" viewBox="0 0 14 14" fill="none" xmlns="http://www.w3.org/2000/svg"><path d="M6.690 1.248 C 6.347 1.319,6.148 1.456,5.749 1.895 C 5.419 2.257,5.464 2.243,5.028 2.126 C 4.763 2.054,4.730 2.051,4.408 2.058 L 4.067 2.065 3.837 2.179 C 3.651 2.272,3.573 2.327,3.431 2.471 C 3.147 2.757,3.063 2.968,2.999 3.555 C 2.954 3.966,2.942 4.029,2.907 4.058 C 2.892 4.071,2.753 4.130,2.600 4.189 C 2.204 4.343,2.030 4.441,1.864 4.605 C 1.677 4.789,1.552 4.984,1.487 5.191 C 1.444 5.325,1.435 5.408,1.436 5.647 C 1.438 5.918,1.443 5.951,1.512 6.125 C 1.553 6.228,1.675 6.464,1.784 6.650 C 1.894 6.836,1.978 7.002,1.972 7.019 C 1.965 7.036,1.876 7.181,1.772 7.341 C 1.550 7.683,1.490 7.811,1.435 8.059 C 1.330 8.530,1.511 9.068,1.886 9.405 C 2.012 9.518,2.149 9.592,2.734 9.865 L 2.936 9.959 2.949 10.107 C 3.001 10.708,3.015 10.814,3.067 10.967 C 3.147 11.205,3.253 11.367,3.451 11.555 C 3.578 11.676,3.673 11.743,3.812 11.807 C 4.198 11.985,4.432 11.997,5.017 11.864 C 5.228 11.816,5.413 11.776,5.426 11.774 C 5.439 11.773,5.557 11.899,5.687 12.055 C 5.981 12.404,6.125 12.535,6.328 12.638 C 6.566 12.757,6.754 12.794,7.047 12.779 C 7.584 12.750,7.777 12.634,8.356 11.994 L 8.555 11.773 8.915 11.864 C 9.228 11.944,9.310 11.956,9.543 11.957 C 9.766 11.958,9.841 11.949,9.983 11.902 C 10.287 11.803,10.564 11.590,10.743 11.319 C 10.915 11.058,10.980 10.826,11.024 10.302 C 11.051 9.993,11.058 9.965,11.134 9.927 C 11.172 9.907,11.342 9.835,11.513 9.766 C 11.878 9.620,11.971 9.564,12.147 9.389 C 12.321 9.215,12.450 9.011,12.513 8.809 C 12.555 8.677,12.565 8.590,12.564 8.365 C 12.563 7.979,12.536 7.901,12.198 7.320 L 12.011 6.999 12.134 6.807 C 12.501 6.234,12.570 6.075,12.593 5.756 C 12.603 5.605,12.596 5.523,12.556 5.366 C 12.481 5.067,12.384 4.894,12.168 4.677 C 11.958 4.465,11.840 4.392,11.387 4.199 L 11.072 4.064 11.056 3.916 C 11.048 3.835,11.029 3.645,11.015 3.494 C 10.971 3.026,10.860 2.760,10.597 2.489 C 10.358 2.244,10.029 2.086,9.707 2.061 C 9.496 2.045,9.247 2.077,8.846 2.172 C 8.686 2.210,8.554 2.238,8.551 2.234 C 8.463 2.119,8.053 1.644,7.988 1.582 C 7.863 1.462,7.646 1.337,7.467 1.281 C 7.267 1.219,6.902 1.203,6.690 1.248 M7.260 2.876 C 7.632 3.327,7.805 3.465,8.147 3.588 C 8.387 3.673,8.682 3.672,9.053 3.584 C 9.494 3.480,9.564 3.467,9.582 3.484 C 9.591 3.493,9.612 3.666,9.629 3.868 C 9.684 4.529,9.763 4.747,10.056 5.041 C 10.260 5.246,10.411 5.335,10.847 5.509 C 11.018 5.577,11.164 5.646,11.169 5.662 C 11.175 5.677,11.099 5.819,11.000 5.977 C 10.667 6.508,10.574 6.774,10.601 7.121 C 10.621 7.384,10.698 7.576,10.941 7.978 C 11.060 8.173,11.153 8.350,11.149 8.370 C 11.144 8.395,11.018 8.458,10.789 8.550 C 10.363 8.722,10.224 8.800,10.058 8.964 C 9.741 9.277,9.639 9.565,9.599 10.263 C 9.588 10.466,9.574 10.554,9.553 10.562 C 9.536 10.569,9.383 10.534,9.212 10.486 C 8.936 10.407,8.866 10.396,8.581 10.388 C 8.210 10.377,8.047 10.413,7.805 10.559 C 7.633 10.662,7.554 10.736,7.344 10.990 C 7.253 11.099,7.137 11.233,7.085 11.287 L 6.991 11.386 6.934 11.334 C 6.903 11.305,6.777 11.162,6.655 11.016 C 6.532 10.871,6.379 10.709,6.315 10.659 C 5.924 10.350,5.494 10.286,4.852 10.442 C 4.667 10.487,4.492 10.529,4.465 10.535 C 4.404 10.549,4.399 10.525,4.363 10.053 C 4.320 9.483,4.226 9.240,3.933 8.948 C 3.750 8.766,3.607 8.683,3.150 8.493 C 2.990 8.427,2.848 8.363,2.836 8.352 C 2.811 8.328,2.864 8.227,3.049 7.942 C 3.318 7.528,3.424 7.208,3.399 6.883 C 3.378 6.611,3.306 6.431,3.054 6.015 C 2.920 5.795,2.832 5.628,2.845 5.616 C 2.856 5.605,3.031 5.528,3.234 5.446 C 3.677 5.265,3.774 5.206,3.988 4.981 C 4.264 4.690,4.344 4.464,4.390 3.848 C 4.406 3.645,4.426 3.466,4.435 3.451 C 4.447 3.432,4.531 3.445,4.740 3.500 C 5.350 3.659,5.509 3.673,5.819 3.594 C 6.179 3.502,6.400 3.333,6.821 2.829 C 6.920 2.710,7.011 2.613,7.022 2.613 C 7.034 2.613,7.141 2.731,7.260 2.876 M5.383 4.932 C 4.974 5.085,4.791 5.528,4.979 5.912 C 5.099 6.157,5.383 6.317,5.654 6.293 C 6.152 6.249,6.439 5.734,6.217 5.281 C 6.147 5.137,5.975 4.986,5.838 4.948 C 5.681 4.904,5.477 4.897,5.383 4.932 M6.498 6.510 L 4.958 8.050 5.454 8.546 L 5.950 9.042 7.496 7.496 L 9.041 5.950 8.552 5.460 C 8.282 5.191,8.057 4.970,8.050 4.970 C 8.044 4.970,7.345 5.663,6.498 6.510 M8.237 7.721 C 8.061 7.758,7.879 7.900,7.781 8.077 C 7.720 8.187,7.712 8.224,7.713 8.388 C 7.715 8.690,7.839 8.899,8.091 9.022 C 8.201 9.076,8.251 9.086,8.410 9.085 C 8.618 9.085,8.725 9.045,8.877 8.912 C 9.089 8.725,9.154 8.360,9.023 8.091 C 8.915 7.872,8.711 7.737,8.458 7.716 C 8.381 7.709,8.282 7.711,8.237 7.721 " fill="#1A1C1F" stroke="none" fill-rule="evenodd"></path></svg>