<svg xmlns="http://www.w3.org/2000/svg" width="16" height="16" fill="none"><g clip-path="url(#a)"><path fill="#1A1C1F" fill-rule="evenodd" d="M8.033 1.378a1.6 1.6 0 0 1 1.263.594l.475.585.764-.18a1.663 1.663 0 0 1 2.054 1.512l.04.748.719.3c.626.26 1.052.87 1.052 1.551 0 .31-.097.618-.276.892l-.406.62.405.668c.165.272.26.582.26.907a1.64 1.64 0 0 1-1.054 1.523l-.7.263-.064.782c-.066.81-.731 1.541-1.657 1.541-.147 0-.293-.015-.421-.05l-.716-.193-.513.59c-.356.41-.73.572-1.29.59-.48.014-.96-.22-1.264-.595l-.475-.585-.764.18a1.664 1.664 0 0 1-2.054-1.512l-.04-.748-.72-.297c-.64-.266-1.051-.856-1.051-1.538 0-.325.097-.634.276-.908L2.282 8l-.41-.683a1.74 1.74 0 0 1-.256-.893A1.64 1.64 0 0 1 2.671 4.9l.7-.263.08-.78c.033-.877.78-1.543 1.641-1.543.147 0 .293.015.421.05l.716.193.51-.594c.346-.404.733-.568 1.294-.585m-.017 1.586-.5.604a1.64 1.64 0 0 1-1.71.536l-.714-.198-.048.032-.046.747A1.63 1.63 0 0 1 3.94 6.131l-.7.26-.016.065.406.635c.164.257.26.567.26.876 0 .324-.096.634-.276.908l-.406.618.016.065.7.273a1.65 1.65 0 0 1 1.053 1.448l.034.748.049.033.713-.184c.15-.038.278-.06.424-.06.504 0 .973.23 1.283.615l.471.587h.065l.471-.587c.31-.386.78-.598 1.251-.598.146 0 .308.02.456.06l.714.2.048-.033.046-.747a1.63 1.63 0 0 1 1.058-1.446l.7-.26.016-.065-.406-.635a1.65 1.65 0 0 1-.26-.876c0-.324.096-.634.276-.908l.406-.618-.016-.065-.7-.273a1.65 1.65 0 0 1-1.053-1.448l-.034-.748-.049-.033-.716.194a1.67 1.67 0 0 1-1.702-.57l-.473-.582c0-.016-.017-.016-.033-.016m-2.42 3.443a.805.805 0 1 1 1.611-.016.805.805 0 0 1-1.612.016zm.081 2.794 3.525-3.54 1.137 1.136-3.541 3.525zm3.119.39c0-.439.357-.796.796-.796a.804.804 0 1 1-.796.796" clip-rule="evenodd"/></g><defs><clipPath id="a"><path fill="#fff" d="M0 0h16v16H0z"/></clipPath></defs></svg>