<svg width="28" height="28" viewBox="0 0 28 28" fill="none" xmlns="http://www.w3.org/2000/svg"><path d="M13.533 2.144 C 12.975 2.247,12.777 2.406,11.914 3.447 C 11.064 4.473,10.925 4.620,10.804 4.620 C 10.751 4.620,10.243 4.496,9.675 4.345 C 9.108 4.194,8.498 4.044,8.319 4.012 C 7.689 3.900,7.017 4.123,6.552 4.600 C 6.144 5.017,6.061 5.348,5.974 6.907 C 5.947 7.382,5.912 7.869,5.897 7.990 L 5.868 8.209 5.536 8.347 C 5.353 8.422,4.888 8.604,4.503 8.750 C 3.086 9.290,2.766 9.506,2.483 10.116 C 2.374 10.350,2.359 10.442,2.360 10.851 C 2.361 11.273,2.375 11.348,2.503 11.621 C 2.581 11.787,2.876 12.280,3.158 12.717 C 3.440 13.153,3.730 13.618,3.804 13.749 L 3.937 13.989 3.734 14.331 C 3.622 14.519,3.305 15.016,3.029 15.435 C 2.429 16.344,2.358 16.523,2.359 17.130 C 2.359 17.537,2.372 17.602,2.508 17.879 C 2.606 18.078,2.759 18.280,2.950 18.463 C 3.213 18.715,3.304 18.767,3.827 18.968 C 4.147 19.091,4.735 19.321,5.132 19.478 C 5.986 19.815,5.891 19.638,5.973 21.047 C 6.066 22.658,6.171 23.024,6.673 23.489 C 7.012 23.803,7.357 23.947,7.837 23.977 C 8.233 24.001,8.320 23.984,9.768 23.604 C 10.353 23.451,10.861 23.337,10.897 23.350 C 10.932 23.364,11.316 23.801,11.750 24.323 C 12.183 24.844,12.632 25.356,12.748 25.462 C 13.315 25.981,14.374 26.044,15.051 25.600 C 15.186 25.511,15.482 25.213,15.751 24.895 C 16.803 23.649,17.044 23.373,17.105 23.350 C 17.140 23.336,17.647 23.451,18.232 23.604 C 19.680 23.984,19.767 24.001,20.163 23.977 C 20.643 23.947,20.988 23.803,21.327 23.489 C 21.833 23.021,21.935 22.657,22.029 21.003 C 22.061 20.453,22.100 19.949,22.117 19.883 C 22.149 19.758,22.430 19.633,24.173 18.970 C 24.721 18.761,24.775 18.729,25.063 18.439 C 25.442 18.056,25.608 17.730,25.648 17.288 C 25.684 16.900,25.618 16.543,25.454 16.228 C 25.391 16.106,25.090 15.623,24.786 15.155 C 24.482 14.686,24.191 14.219,24.139 14.117 L 24.044 13.930 24.625 13.043 C 24.945 12.556,25.280 12.033,25.369 11.881 C 25.957 10.886,25.628 9.708,24.625 9.218 C 24.441 9.128,23.808 8.868,23.218 8.641 L 22.146 8.228 22.114 8.069 C 22.096 7.982,22.058 7.500,22.030 7.000 C 21.935 5.348,21.855 5.016,21.448 4.600 C 21.141 4.285,20.729 4.075,20.287 4.006 C 19.889 3.944,19.763 3.966,18.245 4.367 C 17.718 4.506,17.241 4.620,17.185 4.620 C 17.083 4.620,16.973 4.500,15.823 3.132 C 15.338 2.555,15.043 2.310,14.713 2.211 C 14.440 2.129,13.809 2.093,13.533 2.144 M14.807 4.647 C 15.917 5.977,16.056 6.098,16.681 6.278 C 17.064 6.389,17.323 6.357,18.705 6.022 C 19.346 5.867,19.934 5.740,20.011 5.740 C 20.185 5.740,20.185 5.738,20.255 7.047 C 20.283 7.573,20.326 8.140,20.352 8.307 C 20.409 8.690,20.604 9.106,20.858 9.392 C 21.098 9.662,21.368 9.796,22.727 10.314 C 23.880 10.754,23.893 10.760,23.893 10.852 C 23.893 10.935,23.613 11.403,23.044 12.270 C 22.343 13.337,22.205 13.697,22.295 14.220 C 22.361 14.605,22.486 14.852,23.083 15.776 C 23.767 16.837,23.905 17.076,23.875 17.153 C 23.844 17.235,23.689 17.304,22.674 17.686 C 21.128 18.269,20.823 18.464,20.539 19.049 C 20.372 19.395,20.326 19.704,20.251 21.000 C 20.187 22.097,20.164 22.232,20.041 22.250 C 19.991 22.257,19.436 22.134,18.807 21.976 C 17.853 21.736,17.577 21.684,17.144 21.665 C 16.624 21.642,16.624 21.642,16.329 21.799 C 15.954 21.999,15.725 22.226,14.854 23.266 C 14.025 24.255,14.027 24.254,13.926 24.170 C 13.885 24.136,13.534 23.729,13.146 23.266 C 12.285 22.238,11.987 21.938,11.664 21.777 C 11.446 21.669,11.359 21.653,10.961 21.653 C 10.557 21.653,10.378 21.686,9.303 21.959 C 8.641 22.127,8.046 22.258,7.981 22.250 C 7.841 22.234,7.831 22.175,7.750 20.907 C 7.673 19.709,7.624 19.386,7.467 19.063 C 7.178 18.469,6.933 18.306,5.507 17.757 C 4.387 17.326,4.107 17.195,4.107 17.103 C 4.107 17.061,4.366 16.623,4.683 16.131 C 5.674 14.591,5.693 14.550,5.693 13.921 C 5.693 13.569,5.679 13.511,5.516 13.198 C 5.418 13.010,5.051 12.412,4.699 11.868 C 4.348 11.323,4.060 10.867,4.060 10.853 C 4.060 10.803,4.524 10.599,5.390 10.269 C 6.951 9.673,7.172 9.527,7.471 8.890 C 7.637 8.536,7.683 8.230,7.744 7.070 C 7.771 6.557,7.805 6.047,7.820 5.938 C 7.844 5.754,7.856 5.740,7.988 5.740 C 8.066 5.740,8.654 5.867,9.295 6.022 C 10.677 6.357,10.936 6.389,11.318 6.278 C 11.896 6.110,12.124 5.931,12.801 5.112 C 13.649 4.086,13.966 3.730,14.017 3.746 C 14.046 3.756,14.402 4.161,14.807 4.647 M10.526 9.756 C 10.082 9.830,9.449 10.402,9.329 10.838 C 9.299 10.947,9.272 11.216,9.270 11.436 C 9.267 11.786,9.283 11.868,9.402 12.112 C 9.575 12.465,9.889 12.778,10.244 12.953 C 10.498 13.077,10.566 13.089,10.990 13.088 C 11.362 13.086,11.499 13.066,11.667 12.989 C 12.568 12.572,12.978 11.567,12.589 10.727 C 12.337 10.182,11.884 9.838,11.312 9.755 C 10.946 9.702,10.849 9.702,10.526 9.756 M17.197 9.774 C 17.032 9.848,16.383 10.466,13.020 13.747 C 9.792 16.897,9.730 16.961,9.662 17.213 C 9.519 17.745,9.926 18.246,10.500 18.244 C 10.616 18.243,10.767 18.217,10.838 18.186 C 11.113 18.065,18.089 11.221,18.291 10.873 C 18.642 10.270,17.853 9.477,17.197 9.774 M17.005 14.881 C 16.526 15.005,16.038 15.409,15.830 15.854 C 15.722 16.084,15.703 16.184,15.703 16.544 C 15.703 16.925,15.718 16.995,15.855 17.273 C 16.136 17.843,16.662 18.196,17.291 18.237 C 18.470 18.312,19.370 17.309,19.136 16.182 C 19.028 15.662,18.566 15.135,18.060 14.955 C 17.817 14.868,17.216 14.826,17.005 14.881 " fill="#1A1C1F" stroke="none" fill-rule="evenodd"></path></svg>