<svg width="14" height="14" viewBox="0 0 14 14" fill="none" xmlns="http://www.w3.org/2000/svg"><path d="M6.743 1.237 C 6.371 1.287,6.058 1.507,5.647 2.004 C 5.548 2.123,5.454 2.216,5.430 2.216 C 5.408 2.216,5.247 2.180,5.073 2.135 C 4.791 2.062,4.725 2.053,4.455 2.053 C 4.210 2.053,4.124 2.063,4.007 2.102 C 3.680 2.211,3.335 2.499,3.177 2.796 C 3.086 2.967,3.046 3.140,2.999 3.570 C 2.979 3.756,2.956 3.937,2.949 3.973 C 2.934 4.048,2.874 4.083,2.547 4.209 C 2.078 4.390,1.833 4.571,1.628 4.887 C 1.483 5.112,1.435 5.303,1.436 5.647 C 1.437 6.006,1.468 6.094,1.776 6.630 C 1.907 6.857,1.981 7.009,1.970 7.028 C 1.960 7.045,1.869 7.187,1.768 7.345 C 1.549 7.685,1.490 7.812,1.435 8.060 C 1.359 8.398,1.433 8.808,1.619 9.089 C 1.664 9.156,1.777 9.287,1.871 9.380 C 2.049 9.555,2.208 9.645,2.652 9.821 C 2.939 9.935,2.942 9.940,2.978 10.377 C 2.995 10.580,3.020 10.798,3.035 10.862 C 3.145 11.341,3.586 11.783,4.083 11.912 C 4.299 11.968,4.665 11.950,5.028 11.864 C 5.465 11.761,5.434 11.753,5.673 12.040 C 6.153 12.617,6.450 12.788,6.981 12.789 C 7.269 12.790,7.531 12.723,7.718 12.600 C 7.848 12.516,8.092 12.276,8.401 11.929 L 8.552 11.759 8.790 11.828 C 9.072 11.909,9.412 11.970,9.577 11.970 C 9.996 11.968,10.426 11.742,10.702 11.378 C 10.897 11.120,10.964 10.900,11.024 10.325 C 11.047 10.100,11.074 9.946,11.090 9.936 C 11.106 9.926,11.223 9.879,11.352 9.832 C 11.847 9.649,12.028 9.536,12.257 9.267 C 12.531 8.945,12.635 8.504,12.542 8.064 C 12.500 7.865,12.420 7.692,12.190 7.301 L 12.011 6.999 12.134 6.807 C 12.494 6.245,12.566 6.083,12.592 5.781 C 12.616 5.486,12.518 5.118,12.348 4.871 C 12.244 4.722,12.035 4.526,11.874 4.428 C 11.795 4.380,11.601 4.287,11.443 4.221 C 11.284 4.154,11.132 4.075,11.104 4.045 C 11.059 3.997,11.049 3.946,11.022 3.623 C 10.986 3.183,10.963 3.073,10.861 2.858 C 10.714 2.547,10.494 2.335,10.155 2.177 C 9.830 2.026,9.502 2.021,8.897 2.158 C 8.754 2.190,8.612 2.217,8.582 2.216 C 8.542 2.216,8.478 2.154,8.330 1.969 C 7.928 1.468,7.659 1.282,7.268 1.238 C 7.036 1.211,6.934 1.211,6.743 1.237 M5.579 4.674 C 5.742 4.744,5.850 4.846,5.928 5.004 C 6.112 5.377,5.957 5.800,5.577 5.968 C 5.526 5.991,5.424 6.005,5.308 6.005 C 5.145 6.006,5.106 5.997,4.995 5.937 C 4.703 5.778,4.548 5.400,4.654 5.103 C 4.724 4.905,4.927 4.702,5.110 4.646 C 5.214 4.614,5.477 4.630,5.579 4.674 M8.925 5.132 L 9.391 5.600 7.496 7.496 L 5.600 9.392 5.110 8.902 L 4.621 8.412 6.501 6.516 C 8.040 4.964,8.387 4.624,8.419 4.642 C 8.441 4.654,8.668 4.874,8.925 5.132 M8.982 8.058 C 9.117 8.121,9.241 8.246,9.312 8.390 C 9.358 8.483,9.368 8.540,9.367 8.692 C 9.366 8.916,9.308 9.053,9.152 9.197 C 9.006 9.332,8.912 9.365,8.680 9.367 C 8.502 9.368,8.469 9.361,8.357 9.299 C 8.210 9.218,8.133 9.132,8.056 8.965 C 7.990 8.822,7.977 8.631,8.023 8.470 C 8.133 8.083,8.604 7.880,8.982 8.058 " fill="#1A1C1F" stroke="none" fill-rule="evenodd"></path></svg>