<svg width="16" height="16" viewBox="0 0 16 16" fill="none" xmlns="http://www.w3.org/2000/svg"><path d="M9.015 1.497 C 8.684 1.532,8.168 1.642,7.842 1.747 C 6.251 2.262,5.254 3.697,4.974 5.875 C 4.952 6.048,4.933 6.199,4.933 6.211 C 4.933 6.223,4.708 6.239,4.433 6.246 C 4.158 6.254,3.901 6.273,3.861 6.289 C 3.544 6.416,3.424 6.826,3.631 7.076 C 3.776 7.253,3.820 7.265,4.393 7.275 L 4.907 7.285 4.907 8.109 L 4.907 8.933 4.527 8.933 C 3.919 8.934,3.761 8.980,3.593 9.204 C 3.480 9.356,3.510 9.606,3.662 9.780 C 3.798 9.934,3.876 9.953,4.427 9.971 L 4.920 9.987 4.939 10.093 C 4.950 10.152,4.984 10.360,5.015 10.555 C 5.263 12.139,5.992 13.323,7.107 13.952 C 7.563 14.210,8.219 14.410,8.887 14.495 C 9.320 14.551,10.304 14.535,10.747 14.467 C 11.397 14.365,12.055 14.195,12.221 14.085 C 12.334 14.009,12.421 13.874,12.456 13.720 C 12.524 13.414,12.407 13.170,12.124 13.029 C 11.937 12.935,11.928 12.937,11.187 13.134 L 10.707 13.263 9.947 13.264 C 9.104 13.266,8.893 13.242,8.441 13.091 C 7.857 12.895,7.433 12.528,7.125 11.950 C 6.919 11.564,6.731 10.905,6.632 10.223 L 6.596 9.979 8.278 9.969 C 10.155 9.958,10.045 9.969,10.212 9.767 C 10.377 9.568,10.383 9.367,10.232 9.170 C 10.061 8.946,10.164 8.958,8.272 8.940 L 6.594 8.925 6.577 8.589 C 6.568 8.404,6.560 8.035,6.560 7.768 L 6.560 7.282 8.273 7.274 L 9.987 7.267 10.087 7.204 C 10.326 7.055,10.406 6.720,10.252 6.503 C 10.096 6.283,10.095 6.282,9.445 6.263 C 9.127 6.253,8.393 6.244,7.813 6.243 C 7.234 6.241,6.714 6.232,6.659 6.223 L 6.557 6.206 6.574 6.056 C 6.717 4.804,6.988 4.051,7.488 3.518 C 7.697 3.295,7.859 3.175,8.149 3.031 C 8.606 2.805,8.984 2.736,9.760 2.738 C 10.395 2.740,10.591 2.761,11.209 2.895 C 11.441 2.945,11.670 2.987,11.719 2.987 C 11.954 2.987,12.244 2.719,12.282 2.465 C 12.317 2.228,12.180 1.954,11.964 1.828 C 11.703 1.676,10.904 1.534,10.093 1.494 C 9.464 1.463,9.336 1.464,9.015 1.497 " fill="#1A1C1F" stroke="none" fill-rule="evenodd"></path></svg>