<svg width="24" height="24" viewBox="0 0 24 24" fill="none" xmlns="http://www.w3.org/2000/svg"><path d="M13.400 2.045 C 12.599 2.137,11.747 2.371,11.109 2.675 C 9.947 3.230,8.926 4.278,8.321 5.536 C 7.853 6.508,7.520 7.791,7.416 9.020 C 7.402 9.196,7.372 9.363,7.350 9.390 C 7.320 9.427,7.100 9.440,6.498 9.440 L 5.686 9.440 5.517 9.570 C 5.251 9.774,5.180 9.894,5.180 10.139 C 5.180 10.312,5.203 10.386,5.301 10.525 C 5.522 10.840,5.585 10.858,6.530 10.873 L 7.360 10.887 7.360 12.223 L 7.360 13.560 6.730 13.562 C 6.384 13.563,5.976 13.578,5.825 13.595 C 5.571 13.623,5.537 13.638,5.398 13.788 C 5.122 14.084,5.104 14.432,5.349 14.724 C 5.556 14.969,5.686 14.998,6.587 14.999 L 7.394 15.000 7.421 15.230 C 7.612 16.856,8.000 18.120,8.611 19.100 C 9.486 20.506,10.631 21.332,12.291 21.757 C 13.083 21.959,13.602 22.017,14.600 22.016 C 15.619 22.015,16.160 21.956,17.180 21.737 C 18.203 21.518,18.349 21.465,18.568 21.234 C 18.873 20.912,18.909 20.654,18.701 20.298 C 18.558 20.054,18.292 19.902,18.023 19.910 C 17.911 19.913,17.580 19.989,17.287 20.078 C 15.983 20.474,14.801 20.568,13.536 20.378 C 12.229 20.182,11.404 19.739,10.738 18.876 C 10.216 18.201,9.836 17.137,9.602 15.700 C 9.556 15.414,9.509 15.140,9.499 15.092 L 9.479 15.003 12.191 14.992 C 15.217 14.979,14.993 15.001,15.227 14.694 C 15.325 14.566,15.340 14.511,15.340 14.276 C 15.340 13.984,15.283 13.866,15.065 13.703 C 14.902 13.581,14.584 13.567,11.896 13.563 L 9.492 13.560 9.466 12.954 C 9.452 12.620,9.440 12.018,9.440 11.615 L 9.440 10.884 12.173 10.872 L 14.906 10.860 15.049 10.751 C 15.128 10.691,15.230 10.564,15.276 10.468 C 15.428 10.154,15.369 9.860,15.101 9.601 L 14.966 9.470 12.199 9.449 L 9.432 9.428 9.459 9.124 C 9.685 6.592,10.353 5.098,11.627 4.280 C 11.994 4.044,12.403 3.878,12.971 3.735 C 13.332 3.644,13.488 3.630,14.289 3.611 C 15.353 3.586,15.626 3.613,16.835 3.864 C 17.538 4.009,17.716 4.033,17.836 4.001 C 18.023 3.951,18.223 3.803,18.355 3.617 C 18.560 3.329,18.457 2.819,18.146 2.582 C 17.905 2.398,16.714 2.129,15.760 2.042 C 15.224 1.993,13.834 1.995,13.400 2.045 " fill="#1A1C1F" stroke="none" fill-rule="evenodd"></path></svg>