<svg width="14" height="14" viewBox="0 0 14 14" fill="none" xmlns="http://www.w3.org/2000/svg"><path d="M7.887 1.310 C 6.843 1.416,6.006 1.813,5.418 2.481 C 4.829 3.150,4.467 4.094,4.329 5.323 L 4.314 5.454 3.878 5.466 C 3.638 5.472,3.413 5.489,3.379 5.503 C 3.344 5.517,3.274 5.566,3.223 5.612 C 3.062 5.757,3.041 6.028,3.178 6.193 C 3.304 6.346,3.344 6.357,3.844 6.366 L 4.293 6.374 4.293 7.095 L 4.293 7.817 3.961 7.817 C 3.429 7.817,3.290 7.857,3.144 8.053 C 3.045 8.186,3.071 8.405,3.205 8.557 C 3.324 8.693,3.391 8.710,3.862 8.721 C 4.093 8.727,4.289 8.738,4.298 8.747 C 4.307 8.755,4.336 8.909,4.362 9.088 C 4.614 10.789,5.373 11.902,6.619 12.399 C 6.909 12.515,7.401 12.636,7.776 12.683 C 8.155 12.732,9.016 12.719,9.403 12.658 C 9.972 12.570,10.548 12.421,10.693 12.324 C 10.792 12.258,10.869 12.139,10.899 12.005 C 10.959 11.737,10.856 11.524,10.608 11.400 C 10.445 11.319,10.437 11.319,9.788 11.493 L 9.368 11.605 8.703 11.606 C 7.966 11.608,7.781 11.587,7.386 11.454 C 6.874 11.283,6.489 10.948,6.228 10.447 C 6.051 10.106,5.888 9.533,5.803 8.945 L 5.772 8.731 7.243 8.723 C 8.886 8.713,8.789 8.723,8.935 8.546 C 9.079 8.372,9.086 8.196,8.953 8.023 C 8.804 7.828,8.894 7.839,7.238 7.823 L 5.770 7.809 5.755 7.515 C 5.747 7.354,5.740 7.030,5.740 6.797 L 5.740 6.372 7.239 6.365 L 8.738 6.358 8.826 6.304 C 9.036 6.173,9.105 5.880,8.971 5.691 C 8.835 5.498,8.830 5.497,8.288 5.480 C 8.022 5.472,7.373 5.464,6.845 5.462 C 6.318 5.461,5.852 5.453,5.812 5.445 L 5.737 5.430 5.752 5.299 C 5.877 4.204,6.114 3.545,6.552 3.078 C 6.869 2.740,7.282 2.528,7.793 2.441 C 8.316 2.352,9.057 2.376,9.642 2.500 C 9.825 2.538,10.050 2.582,10.143 2.596 C 10.306 2.622,10.314 2.621,10.444 2.554 C 10.748 2.397,10.841 2.061,10.657 1.783 C 10.550 1.622,10.426 1.554,10.084 1.473 C 9.650 1.370,9.375 1.333,8.842 1.307 C 8.300 1.281,8.166 1.281,7.887 1.310 " fill="#1A1C1F" stroke="none" fill-rule="evenodd"></path></svg>