<svg width="20" height="20" viewBox="0 0 20 20" fill="none" xmlns="http://www.w3.org/2000/svg"><path d="M11.250 1.873 C 10.851 1.913,10.213 2.043,9.883 2.152 C 9.550 2.261,8.930 2.554,8.676 2.723 C 7.278 3.648,6.445 5.279,6.184 7.604 L 6.163 7.791 5.540 7.808 C 5.197 7.817,4.876 7.841,4.827 7.861 C 4.777 7.881,4.677 7.951,4.604 8.017 C 4.375 8.224,4.345 8.611,4.540 8.848 C 4.720 9.066,4.777 9.081,5.492 9.094 L 6.133 9.106 6.133 10.136 L 6.133 11.167 5.658 11.167 C 4.899 11.167,4.701 11.225,4.491 11.505 C 4.349 11.695,4.387 12.007,4.578 12.224 C 4.747 12.417,4.845 12.442,5.533 12.464 L 6.150 12.483 6.174 12.617 C 6.188 12.690,6.230 12.950,6.268 13.194 C 6.578 15.171,7.499 16.666,8.883 17.441 C 9.459 17.764,10.277 18.013,11.108 18.119 C 11.650 18.188,12.880 18.169,13.433 18.083 C 14.246 17.957,15.069 17.744,15.276 17.606 C 15.417 17.512,15.527 17.342,15.570 17.149 C 15.655 16.768,15.509 16.463,15.155 16.286 C 14.922 16.169,14.911 16.171,13.983 16.418 L 13.383 16.578 12.433 16.580 C 11.380 16.583,11.116 16.552,10.551 16.363 C 9.820 16.119,9.271 15.640,8.897 14.924 C 8.644 14.438,8.412 13.618,8.290 12.778 L 8.245 12.473 10.348 12.461 C 12.694 12.447,12.556 12.461,12.765 12.209 C 12.971 11.960,12.979 11.709,12.790 11.462 C 12.576 11.182,12.705 11.197,10.339 11.176 L 8.243 11.156 8.222 10.706 C 8.210 10.459,8.200 9.997,8.200 9.679 L 8.200 9.102 10.342 9.093 L 12.483 9.083 12.609 9.005 C 12.908 8.819,13.007 8.400,12.815 8.129 C 12.621 7.855,12.614 7.853,11.839 7.828 C 11.460 7.817,10.542 7.805,9.800 7.803 C 9.058 7.801,8.393 7.790,8.323 7.778 L 8.196 7.757 8.218 7.570 C 8.396 6.005,8.735 5.064,9.359 4.397 C 9.813 3.914,10.403 3.611,11.133 3.487 C 11.880 3.361,12.938 3.394,13.774 3.571 C 14.036 3.626,14.358 3.688,14.490 3.709 C 14.724 3.745,14.734 3.744,14.920 3.648 C 15.354 3.425,15.487 2.944,15.224 2.547 C 15.072 2.317,14.894 2.220,14.406 2.104 C 13.786 1.957,13.393 1.905,12.631 1.868 C 11.853 1.830,11.668 1.830,11.250 1.873 " fill="#1A1C1F" stroke="none" fill-rule="evenodd"></path></svg>