<svg width="32" height="32" viewBox="0 0 32 32" fill="none" xmlns="http://www.w3.org/2000/svg"><path d="M17.898 2.110 C 15.295 2.464,13.491 3.403,12.092 5.132 C 10.723 6.824,9.978 8.855,9.649 11.787 C 9.615 12.095,9.560 12.364,9.527 12.386 C 9.494 12.407,9.071 12.427,8.587 12.430 C 8.103 12.433,7.573 12.452,7.409 12.473 C 6.674 12.565,6.289 13.350,6.696 13.929 C 6.991 14.349,7.070 14.371,8.378 14.392 L 9.530 14.410 9.565 15.614 C 9.584 16.276,9.600 17.122,9.600 17.494 L 9.600 18.171 8.430 18.199 C 7.372 18.224,7.244 18.237,7.084 18.336 C 6.419 18.748,6.344 19.370,6.894 19.907 L 7.154 20.160 8.396 20.160 L 9.639 20.160 9.676 20.572 C 9.764 21.542,10.078 22.993,10.401 23.920 C 10.647 24.629,11.158 25.661,11.562 26.267 C 12.303 27.377,13.577 28.473,14.777 29.033 C 16.316 29.750,17.800 30.009,20.074 29.958 C 21.739 29.921,22.973 29.738,24.267 29.335 C 25.138 29.064,25.446 28.766,25.451 28.188 C 25.455 27.807,25.314 27.546,24.983 27.317 C 24.738 27.148,24.698 27.137,24.400 27.162 C 24.224 27.176,23.736 27.289,23.315 27.411 C 22.894 27.534,22.318 27.679,22.034 27.734 C 19.957 28.137,17.403 27.914,15.973 27.204 C 14.374 26.411,13.419 25.042,12.824 22.689 C 12.618 21.875,12.342 20.281,12.397 20.225 C 12.418 20.204,14.119 20.174,16.178 20.158 C 18.815 20.139,19.961 20.112,20.059 20.069 C 20.257 19.982,20.512 19.654,20.586 19.390 C 20.696 18.997,20.509 18.596,20.088 18.320 C 19.952 18.231,19.681 18.223,16.131 18.198 L 12.320 18.171 12.320 17.014 C 12.320 16.378,12.304 15.529,12.285 15.128 L 12.250 14.400 16.090 14.400 L 19.931 14.400 20.144 14.245 C 20.621 13.900,20.753 13.350,20.465 12.915 C 20.208 12.526,20.173 12.516,18.913 12.473 C 18.294 12.452,16.544 12.433,15.024 12.430 L 12.262 12.427 12.290 12.253 C 12.306 12.158,12.344 11.792,12.374 11.440 C 12.592 8.914,13.404 6.840,14.632 5.671 C 15.408 4.932,16.349 4.483,17.596 4.256 C 18.102 4.164,18.439 4.143,19.467 4.138 C 20.899 4.133,21.200 4.167,22.786 4.516 C 24.110 4.807,24.257 4.803,24.620 4.468 C 24.919 4.192,25.057 3.791,24.958 3.479 C 24.870 3.200,24.655 2.898,24.459 2.777 C 24.065 2.534,22.107 2.156,20.853 2.080 C 19.721 2.012,18.531 2.023,17.898 2.110 " fill="#1A1C1F" stroke="none" fill-rule="evenodd"></path></svg>