<svg width="12" height="12" viewBox="0 0 12 12" fill="none" xmlns="http://www.w3.org/2000/svg"><path d="M6.840 1.114 C 5.927 1.207,5.279 1.482,4.771 1.992 C 4.209 2.556,3.868 3.348,3.731 4.406 C 3.714 4.536,3.700 4.649,3.700 4.658 C 3.700 4.667,3.531 4.679,3.325 4.685 C 3.119 4.690,2.926 4.705,2.896 4.717 C 2.866 4.728,2.806 4.771,2.762 4.810 C 2.625 4.935,2.607 5.166,2.724 5.309 C 2.832 5.440,2.866 5.449,3.295 5.457 L 3.680 5.464 3.680 6.082 L 3.680 6.700 3.395 6.700 C 2.939 6.700,2.820 6.735,2.695 6.903 C 2.610 7.017,2.632 7.204,2.747 7.335 C 2.849 7.451,2.907 7.466,3.320 7.479 L 3.690 7.490 3.704 7.570 C 3.713 7.614,3.738 7.770,3.761 7.917 C 3.841 8.424,4.021 8.971,4.232 9.344 C 4.736 10.238,5.511 10.724,6.665 10.871 C 6.990 10.913,7.728 10.902,8.060 10.850 C 8.548 10.774,9.041 10.646,9.165 10.564 C 9.250 10.507,9.316 10.405,9.342 10.290 C 9.393 10.061,9.305 9.878,9.093 9.772 C 8.953 9.702,8.946 9.702,8.390 9.851 L 8.030 9.947 7.460 9.948 C 6.828 9.950,6.670 9.931,6.331 9.818 C 5.892 9.671,5.562 9.384,5.338 8.954 C 5.186 8.663,5.047 8.171,4.974 7.667 L 4.947 7.484 6.209 7.476 C 7.617 7.468,7.533 7.477,7.659 7.325 C 7.782 7.176,7.788 7.025,7.674 6.877 C 7.545 6.708,7.622 6.717,6.203 6.705 L 4.946 6.694 4.933 6.424 C 4.926 6.275,4.920 5.998,4.920 5.808 L 4.920 5.461 6.207 5.456 L 7.493 5.450 7.573 5.395 C 7.751 5.271,7.803 5.039,7.689 4.878 C 7.574 4.714,7.566 4.712,7.124 4.697 C 6.907 4.690,6.351 4.683,5.888 4.682 C 5.424 4.681,5.016 4.674,4.981 4.667 L 4.918 4.655 4.931 4.542 C 5.045 3.542,5.267 2.964,5.695 2.556 C 5.940 2.323,6.288 2.159,6.680 2.092 C 7.210 2.002,7.882 2.042,8.550 2.201 C 8.765 2.253,8.836 2.250,8.961 2.185 C 9.089 2.118,9.192 1.980,9.211 1.849 C 9.238 1.671,9.135 1.466,8.973 1.371 C 8.872 1.312,8.572 1.235,8.238 1.181 C 7.898 1.126,7.094 1.087,6.840 1.114 " fill="#1A1C1F" stroke="none" fill-rule="evenodd"></path></svg>