<svg width="24" height="24" viewBox="0 0 24 24" fill="none" xmlns="http://www.w3.org/2000/svg"><path d="M5.720 5.039 L 3.780 5.060 3.424 5.231 C 3.140 5.368,3.007 5.464,2.760 5.711 C 2.432 6.039,2.264 6.317,2.094 6.817 L 2.000 7.094 2.001 11.777 C 2.002 14.353,2.019 16.646,2.040 16.873 C 2.066 17.167,2.106 17.349,2.176 17.502 C 2.473 18.151,2.986 18.608,3.706 18.865 L 4.083 19.000 11.612 18.999 C 15.757 18.999,19.397 18.982,19.711 18.961 C 20.185 18.931,20.320 18.907,20.500 18.825 C 21.151 18.527,21.607 18.015,21.865 17.294 L 22.000 16.917 21.999 12.228 C 21.998 9.650,21.981 7.354,21.960 7.127 C 21.934 6.833,21.894 6.651,21.824 6.498 C 21.540 5.877,21.044 5.424,20.366 5.166 L 20.060 5.050 13.860 5.034 C 10.450 5.025,6.787 5.027,5.720 5.039 M19.792 7.072 C 19.948 7.162,19.973 7.300,19.991 8.170 L 20.008 9.000 12.000 9.000 L 3.992 9.000 4.007 8.150 C 4.022 7.281,4.042 7.165,4.189 7.096 C 4.340 7.025,5.496 7.014,12.480 7.017 C 18.357 7.019,19.717 7.030,19.792 7.072 M19.992 13.879 C 19.980 16.757,19.980 16.758,19.895 16.843 C 19.822 16.916,19.737 16.934,19.311 16.965 C 19.026 16.986,15.690 16.997,11.528 16.991 L 4.242 16.980 4.155 16.893 C 4.021 16.759,4.005 16.407,4.003 13.570 L 4.000 11.000 12.002 11.000 L 20.004 11.000 19.992 13.879 " fill="#1A1C1F" stroke="none" fill-rule="evenodd"></path></svg>