<svg xmlns="http://www.w3.org/2000/svg" width="28" height="28" fill="none"><g clip-path="url(#a)"><path fill="#1A1C1F" fill-rule="evenodd" d="M23.625 5.25c1.45 0 2.625 1.203 2.625 2.625v12.25c0 1.45-1.203 2.625-2.625 2.625H4.375c-1.45 0-2.625-1.203-2.625-2.625V7.875A2.626 2.626 0 0 1 4.375 5.25zm.875 7h-21v7.875c0 .438.327.875.766.875h19.359c.492 0 .875-.41.875-.875zM23.625 7H4.375a.88.88 0 0 0-.875.875V10.5h21V7.875A.88.88 0 0 0 23.625 7" clip-rule="evenodd"/></g><defs><clipPath id="a"><path fill="#fff" d="M0 0h28v28H0z"/></clipPath></defs></svg>