<svg width="14" height="14" viewBox="0 0 14 14" fill="none" xmlns="http://www.w3.org/2000/svg"><path d="M3.150 2.822 C 2.771 2.831,2.430 2.849,2.392 2.862 C 2.255 2.910,2.040 3.031,1.933 3.121 C 1.697 3.319,1.555 3.522,1.466 3.792 L 1.412 3.955 1.412 7.000 C 1.412 9.915,1.414 10.050,1.455 10.173 C 1.620 10.656,1.944 10.980,2.427 11.145 C 2.550 11.187,2.717 11.188,7.000 11.188 L 11.445 11.188 11.628 11.124 C 12.064 10.969,12.369 10.664,12.524 10.228 L 12.588 10.045 12.588 7.000 C 12.588 4.085,12.586 3.950,12.545 3.827 C 12.380 3.344,12.039 3.003,11.573 2.858 C 11.454 2.821,11.165 2.817,7.642 2.812 C 5.550 2.809,3.529 2.814,3.150 2.822 M11.200 4.900 L 11.200 5.600 7.000 5.600 L 2.800 5.600 2.800 4.900 L 2.800 4.200 7.000 4.200 L 11.200 4.200 11.200 4.900 " fill="#1A1C1F" stroke="none" fill-rule="evenodd"></path></svg>