<svg width="28" height="28" viewBox="0 0 28 28" fill="none" xmlns="http://www.w3.org/2000/svg"><path d="M4.643 5.319 C 3.499 5.350,3.451 5.361,2.900 5.735 C 2.378 6.090,2.053 6.546,1.822 7.248 L 1.717 7.567 1.737 14.062 L 1.757 20.557 1.869 20.883 C 2.165 21.754,2.959 22.485,3.831 22.691 C 4.201 22.778,23.799 22.778,24.169 22.691 C 25.053 22.482,25.846 21.744,26.136 20.860 L 26.250 20.510 26.250 14.117 C 26.250 7.184,26.253 7.282,25.994 6.768 C 25.744 6.273,25.212 5.751,24.700 5.499 C 24.416 5.358,24.392 5.355,23.440 5.317 C 22.361 5.274,6.260 5.276,4.643 5.319 M24.048 7.134 C 24.146 7.195,24.282 7.331,24.351 7.437 L 24.477 7.630 24.492 9.065 L 24.508 10.500 14.000 10.500 L 3.492 10.500 3.508 9.062 L 3.523 7.623 3.651 7.429 C 3.849 7.132,3.996 7.074,4.643 7.043 C 4.951 7.027,9.403 7.017,14.537 7.019 L 23.870 7.023 24.048 7.134 M24.500 16.275 L 24.499 20.277 24.363 20.513 C 24.289 20.643,24.153 20.806,24.062 20.876 L 23.897 21.002 13.990 20.989 C 4.212 20.977,4.081 20.975,3.931 20.884 C 3.847 20.834,3.723 20.713,3.656 20.617 L 3.535 20.441 3.510 16.357 L 3.486 12.273 13.993 12.273 L 24.500 12.273 24.500 16.275 " fill="#1A1C1F" stroke="none" fill-rule="evenodd"></path></svg>