<svg width="16" height="16" viewBox="0 0 16 16" fill="none" xmlns="http://www.w3.org/2000/svg"><path d="M3.600 3.225 C 3.143 3.236,2.778 3.255,2.728 3.272 C 2.356 3.402,1.976 3.719,1.809 4.042 C 1.596 4.453,1.613 4.096,1.613 8.013 L 1.613 11.507 1.690 11.707 C 1.879 12.198,2.202 12.521,2.693 12.710 L 2.893 12.787 8.000 12.787 L 13.107 12.787 13.307 12.710 C 13.793 12.523,14.123 12.193,14.310 11.707 L 14.387 11.507 14.387 8.013 C 14.387 4.669,14.385 4.514,14.337 4.373 C 14.149 3.822,13.759 3.432,13.227 3.266 C 13.091 3.223,12.760 3.220,8.733 3.214 C 6.343 3.211,4.033 3.216,3.600 3.225 M12.800 5.600 L 12.800 6.400 8.000 6.400 L 3.200 6.400 3.200 5.600 L 3.200 4.800 8.000 4.800 L 12.800 4.800 12.800 5.600 M12.800 9.600 L 12.800 11.200 8.000 11.200 L 3.200 11.200 3.200 9.600 L 3.200 8.000 8.000 8.000 L 12.800 8.000 12.800 9.600 " fill="#1A1C1F" stroke="none" fill-rule="evenodd"></path></svg>