<svg xmlns="http://www.w3.org/2000/svg" width="12" height="12" fill="none"><g clip-path="url(#a)"><path fill="#1A1C1F" fill-rule="evenodd" d="M6.9 1.499A1.202 1.202 0 0 1 7.931 3.3h1.524c.737 0 1.346.61 1.346 1.346v4.497c0 .701-.503 1.358-1.346 1.358H2.546A1.357 1.357 0 0 1 1.2 9.144V4.648c0-.737.62-1.346 1.346-1.346h1.522a1.202 1.202 0 0 1 1.03-1.803c.363 0 .68.163.902.41.222-.246.539-.41.9-.41M5.404 6.896H2.406v2.4h2.997zm4.19 0H6.598v2.4h2.997zm-4.19-2.4H2.406V5.7h2.997zm4.19 0H6.598V5.7h2.997z" clip-rule="evenodd"/></g><defs><clipPath id="a"><path fill="#fff" d="M0 0h12v12H0z"/></clipPath></defs></svg>