<svg width="20" height="20" viewBox="0 0 20 20" fill="none" xmlns="http://www.w3.org/2000/svg"><path d="M8.196 2.534 C 7.638 2.620,7.171 2.922,6.861 3.396 C 6.506 3.939,6.424 4.560,6.628 5.160 C 6.686 5.331,6.733 5.475,6.733 5.480 C 6.733 5.485,6.084 5.499,5.290 5.511 C 3.718 5.535,3.687 5.538,3.283 5.741 C 2.909 5.929,2.495 6.320,2.279 6.687 C 2.235 6.763,2.153 6.949,2.098 7.100 L 1.998 7.375 2.007 11.512 L 2.017 15.650 2.110 15.917 C 2.350 16.601,2.813 17.091,3.468 17.356 C 3.629 17.421,3.767 17.444,4.144 17.468 C 4.404 17.485,7.213 17.499,10.386 17.499 L 16.155 17.500 16.386 17.421 C 17.163 17.157,17.624 16.698,17.898 15.918 L 18.003 15.619 17.991 11.484 C 17.982 8.370,17.968 7.313,17.938 7.200 C 17.741 6.474,17.109 5.834,16.342 5.585 C 16.194 5.537,15.948 5.525,14.705 5.506 L 13.242 5.483 13.343 5.233 C 13.431 5.018,13.447 4.930,13.460 4.592 C 13.477 4.134,13.449 3.994,13.261 3.603 C 12.956 2.968,12.210 2.501,11.500 2.501 C 11.085 2.501,10.504 2.728,10.175 3.018 L 10.000 3.172 9.826 3.019 C 9.389 2.638,8.754 2.449,8.196 2.534 M9.000 8.500 L 9.000 9.500 6.500 9.500 L 4.000 9.500 4.000 8.500 L 4.000 7.500 6.500 7.500 L 9.000 7.500 9.000 8.500 M16.000 8.500 L 16.000 9.500 13.500 9.500 L 11.000 9.500 11.000 8.500 L 11.000 7.500 13.500 7.500 L 16.000 7.500 16.000 8.500 M9.000 13.500 L 9.000 15.500 6.500 15.500 L 4.000 15.500 4.000 13.500 L 4.000 11.500 6.500 11.500 L 9.000 11.500 9.000 13.500 M16.000 13.500 L 16.000 15.500 13.500 15.500 L 11.000 15.500 11.000 13.500 L 11.000 11.500 13.500 11.500 L 16.000 11.500 16.000 13.500 " fill="#1A1C1F" stroke="none" fill-rule="evenodd"></path></svg>