<svg width="28" height="28" viewBox="0 0 28 28" fill="none" xmlns="http://www.w3.org/2000/svg"><path d="M16.577 2.665 C 15.667 2.802,14.664 3.420,14.178 4.143 L 14.013 4.390 13.745 4.059 C 13.252 3.448,12.528 2.967,11.807 2.771 C 11.391 2.658,10.496 2.658,10.080 2.771 C 8.615 3.167,7.565 4.461,7.479 5.976 C 7.443 6.617,7.539 7.071,7.871 7.828 C 7.891 7.874,7.530 7.887,6.153 7.887 C 4.003 7.887,3.749 7.912,3.225 8.171 C 2.575 8.492,2.116 9.025,1.862 9.753 L 1.756 10.057 1.737 16.571 L 1.717 23.085 1.837 23.417 C 2.029 23.951,2.186 24.221,2.486 24.533 C 2.829 24.890,3.112 25.076,3.558 25.239 L 3.897 25.363 14.000 25.363 L 24.103 25.363 24.442 25.239 C 25.300 24.926,25.866 24.315,26.179 23.365 L 26.283 23.046 26.263 16.551 L 26.243 10.057 26.138 9.753 C 25.885 9.026,25.425 8.492,24.775 8.171 C 24.255 7.914,23.993 7.888,21.957 7.886 C 21.058 7.886,20.278 7.873,20.223 7.858 L 20.122 7.831 20.236 7.575 C 20.789 6.325,20.601 4.942,19.735 3.885 C 19.019 3.012,17.688 2.497,16.577 2.665 M11.595 4.543 C 12.084 4.767,12.490 5.253,12.623 5.772 C 12.765 6.326,12.585 6.907,12.129 7.361 C 11.746 7.744,11.557 7.817,10.943 7.817 C 10.493 7.817,10.402 7.803,10.197 7.702 C 9.703 7.459,9.287 6.874,9.219 6.323 C 9.182 6.027,9.254 5.616,9.390 5.348 C 9.601 4.933,10.083 4.549,10.535 4.434 C 10.818 4.363,11.312 4.414,11.595 4.543 M17.803 4.561 C 18.121 4.718,18.460 5.055,18.624 5.377 C 18.748 5.620,18.760 5.687,18.760 6.115 C 18.760 6.532,18.746 6.615,18.634 6.844 C 18.284 7.557,17.601 7.925,16.794 7.836 C 16.269 7.778,15.771 7.407,15.514 6.883 C 15.388 6.627,15.377 6.561,15.377 6.113 C 15.377 5.688,15.392 5.593,15.491 5.390 C 15.735 4.893,16.233 4.507,16.730 4.431 C 17.092 4.376,17.539 4.430,17.803 4.561 M13.113 11.363 L 13.113 13.113 8.303 13.113 L 3.492 13.113 3.508 11.678 C 3.523 10.272,3.525 10.240,3.632 10.069 C 3.781 9.829,3.977 9.702,4.262 9.660 C 4.395 9.641,6.441 9.622,8.808 9.619 L 13.113 9.613 13.113 11.363 M24.024 9.742 C 24.119 9.791,24.260 9.921,24.337 10.030 L 24.477 10.228 24.492 11.671 L 24.508 13.113 19.697 13.113 L 14.887 13.113 14.887 11.356 L 14.887 9.599 19.369 9.626 C 23.663 9.652,23.858 9.657,24.024 9.742 M13.113 19.251 L 13.113 23.616 8.622 23.603 C 3.627 23.589,4.000 23.614,3.701 23.273 L 3.562 23.114 3.531 21.700 C 3.514 20.921,3.500 19.070,3.500 17.586 L 3.500 14.887 8.307 14.887 L 13.113 14.887 13.113 19.251 M24.500 17.488 C 24.500 18.919,24.486 20.770,24.469 21.602 L 24.438 23.114 24.299 23.273 C 24.000 23.614,24.373 23.589,19.378 23.603 L 14.887 23.616 14.887 19.251 L 14.887 14.887 19.693 14.887 L 24.500 14.887 24.500 17.488 M6.044 19.308 C 5.581 19.337,5.274 19.647,5.274 20.087 C 5.273 20.399,5.422 20.694,5.661 20.851 L 5.850 20.977 8.307 20.977 L 10.763 20.977 10.960 20.846 C 11.196 20.690,11.327 20.489,11.367 20.220 C 11.407 19.953,11.248 19.631,10.975 19.425 L 10.773 19.273 8.548 19.282 C 7.324 19.287,6.198 19.299,6.044 19.308 " fill="#1A1C1F" stroke="none" fill-rule="evenodd"></path></svg>