<svg xmlns="http://www.w3.org/2000/svg" width="20" height="20" fill="none"><g clip-path="url(#a)"><path fill="#1A1C1F" fill-rule="evenodd" d="M11.502 2.498a2.002 2.002 0 0 1 1.718 3.005h2.536A2.257 2.257 0 0 1 18 7.747v7.492c0 1.17-.839 2.264-2.244 2.264H4.244C3.014 17.503 2 16.488 2 15.238v-7.49c0-1.23 1.034-2.245 2.244-2.245H6.78c-.18-.3-.275-.644-.273-.995 0-1.111.898-2.01 1.99-2.01A2.02 2.02 0 0 1 10 3.18a2.02 2.02 0 0 1 1.502-.683m-2.497 8.994H4.01v4h4.995zm6.985 0h-4.995v4h4.995zm-6.985-4H4.01v2.01h4.995zm6.985 0h-4.995v2.01h4.995z" clip-rule="evenodd"/></g><defs><clipPath id="a"><path fill="#fff" d="M0 0h20v20H0z"/></clipPath></defs></svg>