<svg xmlns="http://www.w3.org/2000/svg" width="14" height="14" fill="none"><g clip-path="url(#a)"><path fill="#1A1C1F" fill-rule="evenodd" d="M8.052 1.749a1.402 1.402 0 0 1 1.202 2.103h1.775c.86 0 1.571.71 1.571 1.57v5.246c0 .82-.587 1.584-1.57 1.584H2.97c-.86 0-1.57-.71-1.57-1.585V5.424c0-.86.724-1.57 1.57-1.57h1.776a1.4 1.4 0 0 1 1.202-2.104c.424 0 .792.19 1.052.478.26-.287.628-.478 1.052-.478M6.303 8.046H2.807v2.8h3.496zm4.89 0H7.697v2.8h3.496zm-4.89-2.8H2.807v1.406h3.496zm4.89 0H7.697v1.406h3.496z" clip-rule="evenodd"/></g><defs><clipPath id="a"><path fill="#fff" d="M0 0h14v14H0z"/></clipPath></defs></svg>