<svg xmlns="http://www.w3.org/2000/svg" width="32" height="32" fill="none"><g clip-path="url(#a)"><path fill="#1A1C1F" fill-rule="evenodd" d="M19.5 3a4 4 0 0 1 3.463 6.001L27 9a3 3 0 0 1 3 3v14a3 3 0 0 1-3 3H5a3 3 0 0 1-3-3V12a3 3 0 0 1 3-3l4.036.001a4 4 0 1 1 6.966-3.937A3.99 3.99 0 0 1 19.5 3M15 17H4v9a1 1 0 0 0 1 1h10zm13 0H17v10h10a1 1 0 0 0 1-1zm-13-6H5a1 1 0 0 0-1 1v3h11zm12 0H17v4h11v-3a1 1 0 0 0-1-1M12.5 5a2 2 0 1 0 2 2c0-1.1-1-2-2-2m7 0a2 2 0 1 0 0 4 2 2 0 0 0 0-4M12 22a1 1 0 0 1 0 2H7a1 1 0 0 1 0-2z" clip-rule="evenodd"/></g><defs><clipPath id="a"><path fill="#fff" d="M0 0h32v32H0z"/></clipPath></defs></svg>