<svg xmlns="http://www.w3.org/2000/svg" width="32" height="32" fill="none"><path fill="#1A1C1F" fill-rule="evenodd" d="M18.987 3.039c-1.142.149-2.321.899-2.867 1.823-.049.083-.103.151-.12.151s-.075-.075-.13-.168c-.174-.294-.83-.942-1.175-1.16-.745-.47-1.523-.677-2.371-.63-.63.035-1.025.138-1.577.409-1.913.94-2.752 3.285-1.867 5.218.073.16.133.3.133.311s-.991.02-2.202.02c-1.796 0-2.26.015-2.52.081-1.056.27-1.858 1.051-2.193 2.135-.093.302-.098.692-.098 7.784v7.467l.146.431a3.03 3.03 0 0 0 2.259 2.022c.554.118 22.636.118 23.19 0a3.03 3.03 0 0 0 2.259-2.022L30 26.48v-7.467c0-7.092-.005-7.482-.098-7.784-.335-1.084-1.137-1.865-2.193-2.135-.26-.066-.724-.081-2.526-.081-1.746 0-2.202-.014-2.179-.066l.192-.448c.244-.568.354-1.305.282-1.887-.153-1.238-.802-2.307-1.798-2.96-.437-.286-1.141-.541-1.681-.609-.488-.061-.572-.062-1.012-.004m-5.674 2.162c.593.29 1.081.947 1.167 1.569.043.315-.042.796-.197 1.12-.064.134-.254.379-.422.545-.404.397-.768.543-1.354.543-.555 0-.937-.145-1.332-.506-1.182-1.08-.705-2.993.852-3.411.088-.024.343-.036.567-.028.32.012.475.048.719.168m7.039-.001c.402.197.761.557.957.961.137.283.155.377.156.827.002.467-.012.536-.173.862-.219.444-.639.842-1.066 1.009-.658.256-1.494.12-2.001-.327-.897-.789-.954-2.114-.127-2.941.426-.427.842-.581 1.508-.559.349.012.492.044.746.168m-5.365 7.787v2H4l.001-1.587c.001-1.424.011-1.609.099-1.802.113-.248.377-.491.584-.536.079-.017.167-.039.196-.049s2.315-.02 5.08-.022l5.027-.004zm12.453-1.885q.329.181.477.537c.069.163.083.472.083 1.773v1.575H17.013v-4.003l5.134.015c4.659.013 5.148.022 5.293.103M14.987 22v4.987H9.884c-5.092 0-5.104-.001-5.337-.113a1.03 1.03 0 0 1-.377-.33l-.143-.216-.015-4.657-.014-4.658h10.989zm13.001-.329-.015 4.657-.143.216c-.086.13-.236.261-.377.33-.233.112-.245.113-5.337.113h-5.103v-9.974h10.989zm-21.401.418c-.151.083-.399.319-.467.443-.261.482-.039 1.139.46 1.366.206.093.397.1 2.913.1 2.5 0 2.709-.007 2.909-.098.726-.33.804-1.298.138-1.721l-.241-.152-2.803.001c-1.941.001-2.835.02-2.909.061"/></svg>