<svg xmlns="http://www.w3.org/2000/svg" width="24" height="24" fill="none"><g clip-path="url(#a)"><path fill="#1A1C1F" fill-rule="evenodd" d="M14.781 2.5c1.938 0 3.531 1.591 3.531 3.494 0 .562-.156 1.03-.375 1.529H19.5c1.375 0 2.5 1.123 2.5 2.465v9.016a2.505 2.505 0 0 1-2.5 2.496h-15A2.505 2.505 0 0 1 2 19.004V9.988c0-1.342 1.125-2.465 2.5-2.465h1.531c-.218-.5-.343-.967-.343-1.529a3.51 3.51 0 0 1 3.5-3.494 3.39 3.39 0 0 1 2.78 1.435c.658-.873 1.688-1.435 2.813-1.435M11 13.482H4v5.522c0 .25.219.5.5.5H11zm9 0h-7v6.021h6.5c.281 0 .5-.25.5-.499zm-9-3.993H4.5c-.281 0-.5.218-.5.499v1.497h7zm8.5 0H13v1.996h7V9.988c0-.281-.219-.5-.5-.5zM9.187 4.497a1.5 1.5 0 0 0-1.5 1.497c0 .843.657 1.529 1.5 1.529.813 0 1.5-.686 1.5-1.529a1.52 1.52 0 0 0-1.5-1.497m5.594 0c-.812 0-1.5.686-1.5 1.497 0 .843.688 1.529 1.5 1.529.844 0 1.531-.686 1.531-1.529 0-.81-.688-1.497-1.531-1.497" clip-rule="evenodd"/></g><defs><clipPath id="a"><path fill="#fff" d="M0 0h24v24H0z"/></clipPath></defs></svg>