<svg width="12" height="12" viewBox="0 0 12 12" fill="none" xmlns="http://www.w3.org/2000/svg"><path d="M4.880 1.522 C 4.717 1.548,4.431 1.697,4.296 1.826 C 4.085 2.028,3.947 2.306,3.911 2.601 C 3.895 2.738,3.925 2.939,3.991 3.126 C 4.018 3.204,4.040 3.273,4.040 3.280 C 4.040 3.288,3.651 3.299,3.175 3.306 C 2.210 3.321,2.213 3.320,1.931 3.466 C 1.641 3.616,1.417 3.873,1.274 4.216 L 1.210 4.370 1.204 6.680 C 1.198 9.200,1.204 9.416,1.292 9.625 C 1.364 9.797,1.500 10.002,1.615 10.111 C 1.747 10.238,1.960 10.367,2.150 10.434 L 2.310 10.490 6.002 10.496 L 9.693 10.501 9.872 10.439 C 10.311 10.285,10.579 10.010,10.738 9.553 L 10.800 9.377 10.800 6.909 L 10.800 4.442 10.731 4.249 C 10.591 3.856,10.324 3.566,9.952 3.403 C 9.792 3.332,9.633 3.319,8.787 3.304 C 8.345 3.296,7.978 3.285,7.971 3.278 C 7.964 3.271,7.988 3.181,8.023 3.078 C 8.156 2.687,8.091 2.311,7.833 1.969 C 7.612 1.677,7.276 1.513,6.900 1.514 C 6.600 1.514,6.328 1.616,6.106 1.811 L 6.002 1.901 5.876 1.798 C 5.588 1.563,5.236 1.465,4.880 1.522 M5.400 5.100 L 5.400 5.700 3.900 5.700 L 2.400 5.700 2.400 5.100 L 2.400 4.500 3.900 4.500 L 5.400 4.500 5.400 5.100 M9.600 5.100 L 9.600 5.700 8.100 5.700 L 6.600 5.700 6.600 5.100 L 6.600 4.500 8.100 4.500 L 9.600 4.500 9.600 5.100 M5.400 8.100 L 5.400 9.300 3.900 9.300 L 2.400 9.300 2.400 8.100 L 2.400 6.900 3.900 6.900 L 5.400 6.900 5.400 8.100 M9.600 8.100 L 9.600 9.300 8.100 9.300 L 6.600 9.300 6.600 8.100 L 6.600 6.900 8.100 6.900 L 9.600 6.900 9.600 8.100 " fill="#1A1C1F" stroke="none" fill-rule="evenodd"></path></svg>