<svg xmlns="http://www.w3.org/2000/svg" width="16" height="16" fill="none"><g clip-path="url(#a)"><path fill="#1A1C1F" fill-rule="evenodd" d="M9.202 1.999c.874 0 1.592.717 1.592 1.608 0 .295-.078.561-.218.795h2.029c.983 0 1.795.813 1.795 1.795v5.994c0 .938-.671 1.81-1.795 1.81h-9.21a1.81 1.81 0 0 1-1.795-1.81V6.198c0-.983.827-1.795 1.795-1.795h2.03a1.5 1.5 0 0 1-.22-.795c0-.89.719-1.608 1.593-1.608.484 0 .905.217 1.202.546a1.62 1.62 0 0 1 1.202-.547M7.204 9.194H3.208v3.2h3.996zm5.588 0H8.796v3.2h3.996zm-5.588-3.2H3.208v1.609h3.996zm5.588 0H8.796v1.609h3.996z" clip-rule="evenodd"/></g><defs><clipPath id="a"><path fill="#fff" d="M0 0h16v16H0z"/></clipPath></defs></svg>