<svg width="24" height="24" viewBox="0 0 24 24" fill="none" xmlns="http://www.w3.org/2000/svg"><path d="M8.460 2.583 C 7.412 2.818,6.434 3.610,6.000 4.575 C 5.768 5.092,5.741 5.242,5.740 6.020 C 5.740 6.731,5.742 6.744,5.870 7.105 C 5.942 7.305,6.000 7.481,6.000 7.495 C 6.000 7.509,5.744 7.521,5.430 7.522 C 5.117 7.523,4.635 7.538,4.360 7.555 C 3.887 7.585,3.839 7.596,3.503 7.754 C 2.814 8.077,2.377 8.557,2.100 9.294 L 1.997 9.569 2.010 14.514 C 2.022 19.403,2.024 19.463,2.106 19.704 C 2.387 20.529,2.936 21.082,3.772 21.380 L 4.163 21.520 12.000 21.520 L 19.837 21.520 20.228 21.380 C 21.064 21.082,21.585 20.560,21.886 19.720 L 21.979 19.460 21.991 14.512 L 22.003 9.564 21.880 9.246 C 21.576 8.458,20.985 7.891,20.190 7.625 C 20.047 7.577,19.752 7.554,19.018 7.534 C 18.478 7.519,18.028 7.492,18.016 7.474 C 18.005 7.456,18.040 7.301,18.095 7.129 C 18.324 6.404,18.363 5.996,18.258 5.440 C 18.032 4.252,17.385 3.415,16.250 2.845 C 15.747 2.592,15.508 2.551,14.660 2.568 L 13.940 2.582 13.587 2.729 C 13.084 2.938,12.673 3.207,12.288 3.581 L 11.954 3.906 11.771 3.692 C 11.383 3.238,10.699 2.802,10.120 2.642 C 9.705 2.527,8.848 2.496,8.460 2.583 M9.828 4.669 C 10.123 4.814,10.366 5.056,10.517 5.355 C 10.631 5.579,10.640 5.629,10.640 6.011 C 10.640 6.377,10.628 6.448,10.535 6.636 C 10.388 6.929,10.055 7.259,9.772 7.390 C 9.575 7.481,9.486 7.497,9.180 7.497 C 8.875 7.497,8.785 7.481,8.591 7.391 C 8.310 7.261,8.004 6.963,7.856 6.675 C 7.763 6.496,7.742 6.397,7.729 6.080 C 7.715 5.762,7.727 5.663,7.798 5.472 C 7.943 5.089,8.313 4.733,8.723 4.583 C 8.995 4.484,9.535 4.526,9.828 4.669 M15.427 4.658 C 15.690 4.778,16.056 5.137,16.163 5.377 C 16.343 5.785,16.333 6.274,16.137 6.663 C 15.998 6.937,15.667 7.254,15.384 7.383 C 14.416 7.826,13.310 7.089,13.309 6.000 C 13.308 5.351,13.677 4.825,14.293 4.595 C 14.580 4.487,15.120 4.518,15.427 4.658 M11.000 10.480 L 11.000 11.480 7.497 11.480 L 3.994 11.480 4.007 10.650 C 4.021 9.778,4.033 9.718,4.216 9.596 C 4.345 9.510,4.874 9.495,8.070 9.487 L 11.000 9.480 11.000 10.480 M19.729 9.556 C 19.963 9.675,19.979 9.743,19.993 10.650 L 20.006 11.480 16.503 11.480 L 13.000 11.480 13.000 10.478 L 13.000 9.475 16.310 9.488 C 19.046 9.498,19.639 9.510,19.729 9.556 M11.000 16.501 L 11.000 19.522 7.710 19.511 C 5.017 19.502,4.396 19.490,4.286 19.445 C 4.014 19.332,4.021 19.422,4.008 16.290 L 3.995 13.480 7.498 13.480 L 11.000 13.480 11.000 16.501 M19.991 16.345 L 19.969 19.209 19.852 19.327 C 19.759 19.419,19.680 19.452,19.477 19.481 C 19.336 19.502,17.820 19.519,16.110 19.519 L 13.000 19.520 13.000 16.500 L 13.000 13.480 16.506 13.480 L 20.012 13.480 19.991 16.345 " fill="#1A1C1F" stroke="none" fill-rule="evenodd"></path></svg>