<svg xmlns="http://www.w3.org/2000/svg" width="28" height="28" fill="none"><g clip-path="url(#a)"><path fill="#1A1C1F" fill-rule="evenodd" d="M17.063 2.625a3.5 3.5 0 0 1 3.03 5.251l3.532-.001A2.625 2.625 0 0 1 26.25 10.5v12.25a2.625 2.625 0 0 1-2.625 2.625H4.375A2.625 2.625 0 0 1 1.75 22.75V10.5a2.625 2.625 0 0 1 2.625-2.625l3.531.001a3.5 3.5 0 1 1 6.095-3.445 3.49 3.49 0 0 1 3.062-1.806m-3.938 12.25H3.5v7.875c0 .483.392.875.875.875h8.75zm11.375 0h-9.625v8.75h8.75a.875.875 0 0 0 .875-.875zm-11.375-5.25h-8.75a.875.875 0 0 0-.875.875v2.625h9.625zm10.5 0h-8.75v3.5H24.5V10.5a.875.875 0 0 0-.875-.875m-12.688-5.25a1.75 1.75 0 1 0 1.75 1.75c0-.963-.874-1.75-1.75-1.75m6.126 0a1.75 1.75 0 1 0 0 3.5 1.75 1.75 0 0 0 0-3.5M10.5 19.25a.875.875 0 1 1 0 1.75H6.125a.875.875 0 0 1 0-1.75z" clip-rule="evenodd"/></g><defs><clipPath id="a"><path fill="#fff" d="M0 0h28v28H0z"/></clipPath></defs></svg>