<svg width="16" height="16" viewBox="0 0 16 16" fill="none" xmlns="http://www.w3.org/2000/svg"><path d="M6.547 2.027 C 6.239 2.073,5.841 2.284,5.651 2.500 C 5.363 2.828,5.220 3.197,5.219 3.613 C 5.218 3.844,5.229 3.914,5.302 4.128 C 5.349 4.265,5.387 4.380,5.387 4.384 C 5.387 4.389,4.862 4.399,4.220 4.407 C 3.138 4.421,3.042 4.426,2.900 4.476 C 2.610 4.579,2.382 4.719,2.174 4.924 C 1.925 5.169,1.811 5.338,1.693 5.640 L 1.600 5.876 1.600 8.971 C 1.600 12.095,1.612 12.559,1.697 12.780 C 1.778 12.989,1.985 13.311,2.133 13.458 C 2.333 13.657,2.525 13.778,2.825 13.898 L 3.080 13.999 8.002 13.999 L 12.924 14.000 13.114 13.935 C 13.742 13.722,14.086 13.383,14.309 12.758 L 14.400 12.504 14.400 9.201 L 14.400 5.898 14.305 5.649 C 14.253 5.512,14.164 5.328,14.106 5.240 C 13.852 4.850,13.398 4.529,12.993 4.454 C 12.909 4.439,12.334 4.418,11.715 4.409 C 10.607 4.392,10.590 4.391,10.617 4.339 C 10.684 4.215,10.771 3.906,10.788 3.737 C 10.830 3.309,10.641 2.803,10.319 2.481 C 10.032 2.194,9.582 2.001,9.200 2.001 C 8.868 2.001,8.403 2.182,8.141 2.413 L 8.001 2.536 7.834 2.397 C 7.471 2.095,6.998 1.959,6.547 2.027 M7.200 6.800 L 7.200 7.600 5.200 7.600 L 3.200 7.600 3.200 6.800 L 3.200 6.000 5.200 6.000 L 7.200 6.000 7.200 6.800 M12.800 6.800 L 12.800 7.600 10.800 7.600 L 8.800 7.600 8.800 6.800 L 8.800 6.000 10.800 6.000 L 12.800 6.000 12.800 6.800 M7.200 10.800 L 7.200 12.400 5.200 12.400 L 3.200 12.400 3.200 10.800 L 3.200 9.200 5.200 9.200 L 7.200 9.200 7.200 10.800 M12.800 10.800 L 12.800 12.400 10.800 12.400 L 8.800 12.400 8.800 10.800 L 8.800 9.200 10.800 9.200 L 12.800 9.200 12.800 10.800 " fill="#1A1C1F" stroke="none" fill-rule="evenodd"></path></svg>