<svg width="32" height="32" viewBox="0 0 32 32" fill="none" xmlns="http://www.w3.org/2000/svg"><path d="M18.945 3.045 C 18.253 3.150,17.426 3.537,16.819 4.040 C 16.610 4.214,16.214 4.685,16.052 4.954 C 16.004 5.033,15.996 5.033,15.947 4.952 C 15.630 4.426,14.889 3.769,14.267 3.464 C 13.653 3.162,13.259 3.074,12.533 3.075 C 11.771 3.076,11.339 3.176,10.727 3.493 C 9.415 4.171,8.639 5.361,8.550 6.830 C 8.506 7.561,8.614 8.078,8.996 8.947 C 9.019 8.999,8.606 9.013,7.032 9.014 C 4.575 9.014,4.285 9.042,3.686 9.338 C 2.943 9.705,2.418 10.315,2.128 11.147 L 2.007 11.493 1.985 18.938 L 1.962 26.382 2.099 26.763 C 2.319 27.372,2.499 27.681,2.842 28.038 C 3.233 28.446,3.556 28.659,4.066 28.845 L 4.453 28.986 16.000 28.986 L 27.547 28.986 27.934 28.845 C 28.915 28.487,29.561 27.789,29.918 26.702 L 30.038 26.337 30.015 18.915 L 29.992 11.493 29.872 11.147 C 29.583 10.316,29.057 9.705,28.314 9.338 C 27.718 9.044,27.421 9.014,25.058 9.014 C 24.011 9.014,23.120 9.000,23.076 8.983 C 23.008 8.957,23.016 8.907,23.126 8.658 C 23.758 7.228,23.544 5.648,22.554 4.440 C 21.736 3.442,20.214 2.854,18.945 3.045 M13.298 5.210 C 13.840 5.483,14.280 6.023,14.427 6.597 C 14.588 7.228,14.382 7.896,13.867 8.411 C 13.430 8.848,13.208 8.933,12.507 8.933 C 12.002 8.933,11.885 8.916,11.671 8.811 C 11.256 8.606,10.955 8.300,10.736 7.856 C 10.552 7.484,10.537 7.418,10.537 6.988 C 10.537 6.573,10.555 6.486,10.707 6.178 C 10.989 5.605,11.507 5.184,12.072 5.067 C 12.424 4.994,13.005 5.062,13.298 5.210 M20.347 5.212 C 20.709 5.392,21.097 5.777,21.284 6.145 C 21.426 6.422,21.440 6.499,21.440 6.987 C 21.440 7.480,21.427 7.549,21.276 7.848 C 20.760 8.869,19.641 9.263,18.618 8.784 C 18.283 8.628,17.889 8.220,17.717 7.853 C 17.590 7.581,17.573 7.483,17.573 6.987 C 17.573 6.473,17.586 6.401,17.729 6.119 C 17.907 5.767,18.358 5.315,18.653 5.191 C 19.144 4.984,19.905 4.994,20.347 5.212 M14.987 12.987 L 14.987 14.987 9.489 14.987 L 3.991 14.987 4.009 13.347 C 4.026 11.739,4.029 11.703,4.150 11.508 C 4.327 11.224,4.551 11.084,4.899 11.039 C 5.065 11.018,7.402 10.998,10.093 10.994 L 14.987 10.987 14.987 12.987 M27.456 11.134 C 27.565 11.190,27.725 11.342,27.813 11.471 L 27.973 11.707 27.991 13.347 L 28.009 14.987 22.511 14.987 L 17.013 14.987 17.013 12.978 L 17.013 10.970 22.136 11.001 C 27.036 11.031,27.268 11.037,27.456 11.134 M14.987 22.001 L 14.987 26.989 9.853 26.975 C 4.145 26.958,4.572 26.987,4.230 26.598 L 4.071 26.416 4.036 24.768 C 4.016 23.862,4.000 21.746,4.000 20.067 L 4.000 17.013 9.493 17.013 L 14.987 17.013 14.987 22.001 M28.000 19.987 C 28.000 21.622,27.984 23.738,27.964 24.688 L 27.929 26.416 27.770 26.598 C 27.428 26.987,27.855 26.958,22.147 26.975 L 17.013 26.989 17.013 22.001 L 17.013 17.013 22.507 17.013 L 28.000 17.013 28.000 19.987 M6.908 22.066 C 6.379 22.099,6.027 22.454,6.027 22.956 C 6.027 23.314,6.197 23.650,6.469 23.830 L 6.686 23.973 9.493 23.973 L 12.301 23.973 12.526 23.825 C 12.796 23.646,12.945 23.417,12.991 23.109 C 13.037 22.804,12.855 22.436,12.543 22.200 L 12.312 22.027 9.769 22.037 C 8.371 22.042,7.083 22.056,6.908 22.066 " fill="#1A1C1F" stroke="none" fill-rule="evenodd"></path></svg>