<svg xmlns="http://www.w3.org/2000/svg" width="32" height="32" fill="none"><path fill="#1A1C1F" fill-rule="evenodd" d="M15.813 4.08c-1.357.194-2.506.778-3.2 1.627-1.174 1.435-1.212 3.84-.084 5.268.12.151.218.295.218.32 0 .024-.172.127-.382.228-1.103.531-2.017 1.42-2.34 2.278-.213.565-.277 1.003-.25 1.692.045 1.113.401 1.9 1.201 2.651.706.664 1.456 1.109 4.33 2.576 1.351.689 1.611.842 1.878 1.101.574.559.828 1.355.729 2.285-.047.442-.283.93-.572 1.184-.743.652-2.454.856-3.901.465-.22-.059-.664-.206-.987-.326-.979-.365-1.55-.286-1.791.246-.551 1.212 1.209 2.205 4.09 2.309 3.508.127 5.514-1.447 5.658-4.437.05-1.059-.156-1.96-.603-2.625a7 7 0 0 1-.234-.363c0-.008.257-.139.571-.292.495-.243.63-.339 1.027-.74.725-.73 1.002-1.403 1.054-2.554.064-1.426-.309-2.467-1.21-3.38-.502-.507-1.181-.955-2.214-1.458-3.477-1.696-3.566-1.746-4.081-2.268-.374-.379-.582-.802-.634-1.287-.142-1.329.454-2.149 1.763-2.427.3-.064.596-.077 1.271-.057.752.023.976.051 1.537.192.792.2 1.125.21 1.452.045q.426-.214.423-.733c-.004-.96-1.191-1.526-3.305-1.576q-.88-.02-1.414.056m.094 9.259q2.946 1.47 3.325 1.848c.443.443.644 1.08.59 1.87-.065.946-.595 1.578-1.609 1.917-.644.216-.467.265-2.567-.712-2.393-1.113-2.73-1.319-3.2-1.958-.631-.857-.579-1.994.124-2.69.309-.306.808-.581 1.35-.742.656-.196.663-.194 1.987.467"/></svg>