<svg xmlns="http://www.w3.org/2000/svg" width="14" height="14" fill="none"><g clip-path="url(#a)"><path fill="#1A1C1F" fill-rule="evenodd" d="M7.46 2.1c.833 0 1.515.181 1.516.878 0 .379-.185.565-.49.565-.145 0-.631-.126-1.04-.126-.75 0-1.119.17-1.119.595 0 1.26 3.328.949 3.328 3.059 0 .694-.41 1.317-1.048 1.614.241.326.354.723.34 1.133 0 1.346-.864 2.082-2.379 2.082-.798 0-1.887-.178-1.887-.957 0-.294.181-.56.531-.56.217 0 .753.214 1.314.214.722 0 1.09-.226 1.09-.665 0-1.303-3.271-.907-3.271-2.96a1.83 1.83 0 0 1 1.104-1.629c-.269-.326-.382-.75-.382-1.175 0-1.317.85-2.068 2.393-2.068M6.356 6.023c-.567.198-.765.439-.765.694 0 .439.368.566 2.067 1.232.539-.24.709-.425.709-.722 0-.411-.326-.539-2.011-1.204" clip-rule="evenodd"/></g><defs><clipPath id="a"><path fill="#fff" d="M0 0h14v14H0z"/></clipPath></defs></svg>