<svg xmlns="http://www.w3.org/2000/svg" width="12" height="12" fill="none"><g clip-path="url(#a)"><path fill="#1A1C1F" fill-rule="evenodd" d="M6.394 1.8c.714 0 1.299.155 1.3.753 0 .324-.158.484-.42.484-.124 0-.541-.108-.892-.108-.643 0-.959.146-.959.51 0 1.08 2.853.813 2.853 2.622 0 .594-.352 1.129-.898 1.384.206.279.303.619.291.97 0 1.154-.74 1.785-2.04 1.785-.684 0-1.617-.152-1.617-.82 0-.253.156-.48.455-.48.186 0 .646.183 1.126.183.62 0 .935-.194.935-.57 0-1.117-2.804-.777-2.804-2.537a1.57 1.57 0 0 1 .947-1.396c-.23-.28-.328-.644-.328-1.008 0-1.129.728-1.772 2.051-1.772m-.946 3.362c-.486.17-.656.377-.656.595 0 .377.316.486 1.772 1.056.462-.206.607-.364.607-.619 0-.352-.279-.461-1.723-1.032" clip-rule="evenodd"/></g><defs><clipPath id="a"><path fill="#fff" d="M0 0h12v12H0z"/></clipPath></defs></svg>