<svg xmlns="http://www.w3.org/2000/svg" width="28" height="28" fill="none"><g clip-path="url(#a)"><path fill="#1A1C1F" fill-rule="evenodd" d="M14.87 3.498c1.261 0 3.112.28 3.112 1.401 0 .534-.392.758-.841.758-.56 0-1.15-.364-2.356-.364-1.682 0-2.496.672-2.496 1.906 0 1.402 1.094 1.935 2.552 2.637l1.515.73c1.206.587 3.113 1.486 3.113 4.066 0 1.513-.673 2.748-2.384 3.336.617.701.785 1.543.785 2.384 0 2.72-1.739 4.15-4.627 4.15-1.739 0-4.01-.503-4.01-1.653 0-.393.252-.814.813-.814.7 0 1.402.674 3.029.674 1.71 0 2.636-.6 2.636-1.936 0-1.01-.505-1.71-1.206-2.075l-2.244-1.15c-2.047-1.065-3.73-1.907-3.73-4.15 0-1.767 1.038-2.777 2.665-3.506-.646-.701-.954-1.514-.954-2.496 0-2.384 1.711-3.898 4.628-3.898m-2.048 7.627c-1.458.197-2.328.927-2.328 1.992 0 1.374 1.375 2.02 1.936 2.271l2.944 1.374c1.402-.308 1.991-.925 1.991-2.046 0-1.234-.729-1.627-1.093-1.823l-1.459-.786-1.99-.981z" clip-rule="evenodd"/></g><defs><clipPath id="a"><path fill="#fff" d="M0 0h28v28H0z"/></clipPath></defs></svg>