<svg xmlns="http://www.w3.org/2000/svg" width="16" height="16" fill="none"><g clip-path="url(#a)"><path fill="#1A1C1F" fill-rule="evenodd" d="M8.526 2.4c.951 0 1.73.207 1.732 1.003 0 .433-.21.646-.56.646-.165 0-.72-.144-1.188-.144-.858 0-1.279.194-1.279.68 0 1.44 3.804 1.084 3.804 3.496 0 .793-.47 1.505-1.198 1.845.275.372.405.825.388 1.295 0 1.537-.987 2.379-2.719 2.379-.912 0-2.156-.203-2.156-1.094 0-.336.207-.64.607-.64.248 0 .86.245 1.5.245.826 0 1.247-.259 1.247-.76 0-1.49-3.739-1.037-3.739-3.383a2.09 2.09 0 0 1 1.263-1.862c-.308-.372-.437-.857-.437-1.343 0-1.505.97-2.363 2.735-2.363M7.264 6.883c-.648.227-.874.502-.874.793 0 .502.42.648 2.363 1.408.615-.275.809-.485.809-.825 0-.47-.372-.615-2.298-1.376" clip-rule="evenodd"/></g><defs><clipPath id="a"><path fill="#fff" d="M0 0h16v16H0z"/></clipPath></defs></svg>