<svg width="24" height="24" viewBox="0 0 24 24" fill="none" xmlns="http://www.w3.org/2000/svg"><path d="M11.561 4.125 C 9.916 4.470,9.040 5.534,9.040 7.185 C 9.040 7.676,9.121 8.112,9.284 8.494 C 9.348 8.645,9.400 8.781,9.400 8.796 C 9.400 8.811,9.263 8.921,9.095 9.041 C 8.478 9.482,8.042 10.100,7.854 10.800 C 7.745 11.207,7.755 11.974,7.874 12.360 C 8.019 12.826,8.224 13.179,8.538 13.501 C 8.998 13.973,9.412 14.208,10.730 14.745 C 12.242 15.362,12.690 15.655,12.945 16.194 C 13.102 16.525,13.127 17.056,12.999 17.353 C 12.818 17.773,12.436 17.988,11.700 18.084 C 11.256 18.141,10.809 18.110,10.180 17.977 C 9.221 17.776,9.055 17.753,8.881 17.800 C 8.525 17.896,8.287 18.258,8.332 18.638 C 8.428 19.447,9.371 19.928,10.980 19.987 C 11.999 20.024,12.786 19.874,13.500 19.507 C 13.965 19.269,14.447 18.780,14.673 18.320 C 14.946 17.764,15.012 17.450,15.016 16.680 C 15.021 15.906,14.977 15.693,14.700 15.139 C 14.601 14.941,14.520 14.766,14.520 14.752 C 14.520 14.737,14.626 14.668,14.755 14.599 C 15.242 14.340,15.701 13.867,15.941 13.380 C 16.147 12.961,16.202 12.694,16.203 12.113 C 16.204 11.671,16.191 11.567,16.099 11.294 C 15.892 10.676,15.486 10.170,14.867 9.755 C 14.424 9.459,14.187 9.339,13.240 8.929 C 11.825 8.316,11.680 8.236,11.326 7.883 C 10.975 7.531,10.869 7.218,10.957 6.793 C 11.115 6.035,12.102 5.752,13.656 6.020 C 14.346 6.139,14.449 6.141,14.662 6.045 C 14.985 5.898,15.147 5.577,15.109 5.157 C 15.071 4.739,14.857 4.473,14.382 4.256 C 14.028 4.094,13.633 4.043,12.740 4.044 C 12.099 4.045,11.864 4.062,11.561 4.125 M11.457 10.339 C 12.428 10.781,13.480 11.315,13.800 11.530 C 13.943 11.626,14.114 11.782,14.180 11.876 C 14.284 12.025,14.300 12.082,14.300 12.313 C 14.300 12.685,14.203 12.913,13.945 13.148 C 13.716 13.358,13.262 13.600,13.099 13.600 C 12.986 13.600,12.223 13.299,11.440 12.944 C 10.257 12.409,9.861 12.152,9.695 11.812 C 9.598 11.616,9.591 11.568,9.614 11.291 C 9.658 10.771,9.867 10.429,10.329 10.120 C 10.495 10.010,10.597 9.966,10.650 9.983 C 10.693 9.997,11.056 10.157,11.457 10.339 " fill="#1A1C1F" stroke="none" fill-rule="evenodd"></path></svg>