<svg width="20" height="20" viewBox="0 0 20 20" fill="none" xmlns="http://www.w3.org/2000/svg"><path d="M10.048 3.033 C 9.086 3.135,8.228 3.548,7.810 4.110 C 7.613 4.376,7.425 4.776,7.330 5.133 C 7.222 5.537,7.221 6.295,7.328 6.683 C 7.404 6.962,7.583 7.369,7.702 7.536 L 7.771 7.634 7.665 7.692 C 6.863 8.129,6.366 8.824,6.231 9.699 C 6.139 10.294,6.329 10.920,6.743 11.385 C 7.137 11.827,7.686 12.137,8.983 12.651 C 10.182 13.125,10.469 13.299,10.745 13.716 C 10.826 13.837,10.833 13.878,10.833 14.181 C 10.833 14.487,10.826 14.523,10.743 14.643 C 10.628 14.810,10.432 14.943,10.164 15.037 C 9.972 15.105,9.887 15.113,9.350 15.113 C 8.765 15.113,8.733 15.109,8.085 14.968 C 7.345 14.806,7.271 14.808,6.997 14.989 C 6.739 15.160,6.635 15.560,6.748 15.948 C 6.812 16.169,7.041 16.440,7.284 16.582 C 7.492 16.704,7.970 16.856,8.351 16.921 C 8.817 17.001,9.867 17.002,10.297 16.923 C 11.575 16.687,12.387 16.010,12.664 14.951 C 12.894 14.073,12.779 13.125,12.367 12.510 L 12.296 12.404 12.440 12.330 C 12.826 12.134,13.323 11.620,13.517 11.217 C 13.700 10.836,13.779 10.502,13.781 10.100 C 13.783 9.674,13.737 9.474,13.549 9.083 C 13.206 8.371,12.610 7.956,10.950 7.273 C 10.195 6.963,9.913 6.832,9.689 6.688 C 9.195 6.373,8.962 5.927,9.080 5.526 C 9.164 5.238,9.349 5.091,9.775 4.975 C 10.093 4.888,11.001 4.898,11.660 4.996 C 11.946 5.038,12.216 5.062,12.276 5.049 C 12.710 4.960,12.936 4.405,12.755 3.876 C 12.620 3.481,12.187 3.188,11.584 3.084 C 11.219 3.021,10.413 2.994,10.048 3.033 M9.826 8.903 C 11.126 9.424,11.735 9.745,11.851 9.969 C 11.884 10.032,11.900 10.165,11.900 10.369 L 11.900 10.675 11.690 10.881 C 11.560 11.008,11.382 11.137,11.224 11.218 L 10.969 11.350 10.793 11.288 C 10.363 11.138,9.151 10.644,8.817 10.484 C 8.131 10.154,7.910 9.843,8.037 9.386 C 8.092 9.185,8.360 8.944,8.733 8.759 C 8.908 8.672,9.054 8.601,9.060 8.601 C 9.065 8.600,9.410 8.737,9.826 8.903 " fill="#1A1C1F" stroke="none" fill-rule="evenodd"></path></svg>