<svg width="16" height="16" viewBox="0 0 16 16" fill="none" xmlns="http://www.w3.org/2000/svg"><path d="M8.027 2.429 C 7.350 2.505,6.767 2.753,6.400 3.120 C 6.127 3.392,5.952 3.729,5.849 4.173 C 5.778 4.484,5.785 5.057,5.863 5.347 C 5.923 5.568,6.066 5.894,6.161 6.028 L 6.215 6.104 6.154 6.141 C 6.121 6.161,6.024 6.218,5.940 6.268 C 5.619 6.456,5.281 6.862,5.120 7.252 C 5.002 7.540,4.979 7.687,4.993 8.069 C 5.008 8.477,5.066 8.667,5.261 8.940 C 5.586 9.395,5.995 9.646,7.187 10.120 C 8.180 10.515,8.437 10.676,8.619 11.021 C 8.667 11.110,8.679 11.178,8.680 11.347 C 8.680 11.533,8.671 11.576,8.604 11.689 C 8.462 11.932,8.134 12.073,7.653 12.098 C 7.317 12.116,7.022 12.082,6.400 11.955 C 5.992 11.872,5.919 11.864,5.819 11.890 C 5.542 11.963,5.390 12.149,5.367 12.441 C 5.312 13.122,5.982 13.528,7.267 13.591 C 7.866 13.620,8.486 13.526,8.926 13.338 C 9.556 13.070,9.983 12.572,10.143 11.920 C 10.311 11.232,10.214 10.487,9.894 10.008 L 9.837 9.923 9.952 9.865 C 10.216 9.731,10.581 9.376,10.762 9.075 C 10.947 8.768,11.057 8.295,11.027 7.936 C 10.989 7.491,10.817 7.114,10.508 6.800 C 10.205 6.494,9.819 6.264,9.093 5.960 C 7.873 5.448,7.722 5.371,7.508 5.157 C 7.295 4.944,7.203 4.691,7.255 4.460 C 7.310 4.210,7.467 4.076,7.816 3.981 C 8.075 3.911,8.797 3.918,9.328 3.997 C 9.557 4.031,9.773 4.049,9.821 4.039 C 10.168 3.968,10.349 3.524,10.204 3.101 C 10.096 2.785,9.749 2.551,9.267 2.467 C 8.966 2.415,8.324 2.395,8.027 2.429 M7.861 7.123 C 8.901 7.539,9.388 7.796,9.481 7.975 C 9.534 8.077,9.534 8.456,9.481 8.559 C 9.398 8.718,8.905 9.067,8.762 9.067 C 8.657 9.067,7.170 8.460,6.882 8.300 C 6.525 8.103,6.377 7.891,6.409 7.625 C 6.439 7.371,6.597 7.205,7.003 7.000 C 7.133 6.935,7.243 6.881,7.248 6.880 C 7.252 6.880,7.528 6.989,7.861 7.123 " fill="#1A1C1F" stroke="none" fill-rule="evenodd"></path></svg>