<svg width="12" height="12" viewBox="0 0 12 12" fill="none" xmlns="http://www.w3.org/2000/svg"><path d="M6.029 1.821 C 5.462 1.876,4.937 2.128,4.686 2.466 C 4.566 2.628,4.453 2.869,4.396 3.080 C 4.332 3.320,4.332 3.775,4.397 4.010 C 4.443 4.178,4.550 4.421,4.622 4.523 C 4.645 4.555,4.661 4.585,4.657 4.589 C 4.653 4.592,4.604 4.618,4.547 4.647 C 4.133 4.855,3.817 5.313,3.738 5.821 C 3.679 6.205,3.805 6.582,4.090 6.871 C 4.356 7.140,4.582 7.266,5.370 7.581 C 6.032 7.846,6.213 7.945,6.378 8.132 C 6.588 8.371,6.557 8.750,6.315 8.917 C 6.043 9.104,5.599 9.127,4.928 8.990 C 4.490 8.900,4.334 8.899,4.204 8.985 C 4.045 9.090,3.980 9.334,4.049 9.569 C 4.087 9.701,4.225 9.864,4.371 9.949 C 4.778 10.188,5.700 10.268,6.334 10.120 C 7.076 9.946,7.511 9.500,7.641 8.780 C 7.681 8.558,7.673 8.195,7.624 7.996 C 7.581 7.820,7.499 7.624,7.420 7.506 L 7.377 7.442 7.464 7.398 C 7.679 7.289,7.974 6.993,8.096 6.764 C 8.206 6.558,8.265 6.319,8.267 6.070 C 8.270 5.805,8.244 5.688,8.129 5.450 C 7.923 5.023,7.565 4.773,6.570 4.364 C 5.939 4.105,5.714 3.984,5.590 3.836 C 5.386 3.595,5.389 3.236,5.596 3.093 C 5.722 3.005,5.834 2.978,6.167 2.954 C 6.494 2.931,6.584 2.937,7.160 3.023 C 7.502 3.074,7.690 2.906,7.689 2.550 C 7.688 2.360,7.646 2.249,7.523 2.115 C 7.299 1.873,6.704 1.756,6.029 1.821 M5.896 5.342 C 6.675 5.654,7.041 5.847,7.111 5.981 C 7.150 6.058,7.150 6.342,7.111 6.419 C 7.066 6.505,6.887 6.652,6.726 6.735 L 6.581 6.810 6.476 6.773 C 6.218 6.683,5.490 6.387,5.290 6.290 C 4.879 6.092,4.746 5.906,4.822 5.632 C 4.855 5.513,5.004 5.379,5.233 5.262 C 5.341 5.207,5.433 5.162,5.436 5.161 C 5.439 5.160,5.646 5.242,5.896 5.342 " fill="#1A1C1F" stroke="none" fill-rule="evenodd"></path></svg>