<svg width="32" height="32" viewBox="0 0 32 32" fill="none" xmlns="http://www.w3.org/2000/svg"><path d="M16.213 4.061 C 15.294 4.117,14.467 4.364,13.680 4.816 C 13.195 5.095,12.503 5.786,12.254 6.240 C 11.699 7.250,11.563 8.594,11.901 9.733 C 12.036 10.186,12.181 10.477,12.499 10.931 C 12.631 11.120,12.728 11.293,12.714 11.316 C 12.700 11.338,12.492 11.459,12.251 11.584 C 11.419 12.017,10.722 12.622,10.294 13.286 C 9.861 13.956,9.674 14.964,9.811 15.898 C 9.943 16.807,10.243 17.398,10.903 18.053 C 11.612 18.757,12.217 19.128,14.987 20.559 C 15.881 21.021,16.741 21.489,16.897 21.599 C 17.207 21.818,17.561 22.250,17.707 22.588 C 18.043 23.366,17.978 24.413,17.556 25.026 C 17.236 25.492,16.572 25.792,15.576 25.920 C 14.711 26.032,13.882 25.915,12.708 25.516 C 11.477 25.097,10.958 25.134,10.677 25.659 C 10.309 26.347,10.844 27.086,12.018 27.511 C 13.285 27.969,15.282 28.123,16.630 27.866 C 17.736 27.655,18.491 27.277,19.177 26.590 C 19.745 26.022,20.020 25.527,20.247 24.664 C 20.365 24.214,20.387 24.012,20.393 23.333 C 20.401 22.235,20.247 21.616,19.782 20.881 L 19.580 20.563 20.145 20.269 C 21.315 19.660,22.015 18.700,22.183 17.476 C 22.452 15.514,21.778 13.995,20.158 12.911 C 19.888 12.731,18.692 12.093,17.500 11.495 C 15.279 10.380,15.015 10.217,14.575 9.694 C 14.470 9.569,14.321 9.335,14.245 9.173 C 14.120 8.908,14.107 8.818,14.107 8.240 C 14.107 7.662,14.120 7.571,14.245 7.304 C 14.434 6.902,14.658 6.661,15.025 6.467 C 15.457 6.238,15.843 6.135,16.400 6.099 C 17.017 6.060,18.154 6.157,18.667 6.292 C 19.233 6.442,19.676 6.480,19.926 6.400 C 20.815 6.115,20.704 4.999,19.738 4.509 C 19.009 4.139,17.688 3.972,16.213 4.061 M16.240 13.518 C 17.957 14.377,18.861 14.883,19.177 15.161 C 19.661 15.587,19.920 16.462,19.792 17.240 C 19.650 18.098,19.183 18.617,18.250 18.953 C 17.778 19.123,17.641 19.127,17.242 18.979 C 16.784 18.809,14.184 17.585,13.601 17.265 C 12.240 16.517,11.679 15.261,12.210 14.154 C 12.502 13.545,13.055 13.142,14.000 12.849 C 14.528 12.685,14.643 12.719,16.240 13.518 " fill="#1A1C1F" stroke="none" fill-rule="evenodd"></path></svg>