<svg width="28" height="28" viewBox="0 0 28 28" fill="none" xmlns="http://www.w3.org/2000/svg"><path d="M14.187 3.555 C 13.010 3.624,11.996 4.049,11.266 4.779 C 10.836 5.209,10.614 5.576,10.433 6.154 C 10.059 7.353,10.258 8.657,10.955 9.576 L 11.193 9.889 10.743 10.129 C 10.170 10.435,9.960 10.581,9.587 10.930 C 9.185 11.306,8.853 11.812,8.697 12.287 C 8.585 12.627,8.570 12.743,8.568 13.323 C 8.565 14.086,8.628 14.380,8.918 14.974 C 9.070 15.284,9.193 15.447,9.513 15.768 C 10.156 16.411,10.656 16.721,13.011 17.937 C 14.571 18.743,14.828 18.894,15.083 19.157 C 15.293 19.374,15.529 19.806,15.615 20.131 C 15.707 20.477,15.697 21.076,15.594 21.409 C 15.413 21.990,15.076 22.307,14.420 22.513 C 13.381 22.840,12.360 22.771,10.967 22.278 C 10.607 22.151,10.376 22.099,10.096 22.084 L 9.715 22.062 9.525 22.243 C 9.195 22.557,9.155 22.998,9.423 23.367 C 10.007 24.174,12.300 24.684,14.205 24.431 C 15.393 24.272,16.202 23.899,16.851 23.208 C 17.315 22.714,17.591 22.170,17.767 21.402 C 17.888 20.872,17.875 19.775,17.742 19.281 C 17.632 18.874,17.427 18.419,17.239 18.170 C 17.108 17.995,17.089 18.014,17.682 17.705 C 18.400 17.332,19.019 16.646,19.254 15.965 C 19.462 15.362,19.513 14.550,19.389 13.837 C 19.208 12.799,18.709 12.061,17.703 11.346 C 17.448 11.164,16.599 10.707,15.360 10.082 C 13.357 9.073,13.119 8.927,12.744 8.470 C 12.430 8.089,12.345 7.816,12.344 7.187 C 12.343 6.705,12.356 6.623,12.465 6.391 C 12.630 6.039,12.826 5.828,13.147 5.658 C 13.525 5.458,13.863 5.368,14.350 5.337 C 14.890 5.302,15.885 5.387,16.333 5.506 C 16.829 5.637,17.217 5.670,17.435 5.600 C 18.213 5.351,18.116 4.374,17.271 3.946 C 16.630 3.621,15.500 3.478,14.187 3.555 M14.210 11.828 C 15.703 12.574,16.501 13.020,16.780 13.266 C 17.201 13.637,17.421 14.369,17.317 15.063 C 17.204 15.825,16.795 16.286,15.969 16.584 C 15.550 16.735,15.434 16.736,15.063 16.596 C 14.668 16.447,12.731 15.543,12.180 15.250 C 11.107 14.679,10.680 14.203,10.544 13.423 C 10.375 12.451,10.926 11.703,12.112 11.294 C 12.428 11.186,12.581 11.156,12.740 11.174 C 12.884 11.191,13.346 11.396,14.210 11.828 " fill="#1A1C1F" stroke="none" fill-rule="evenodd"></path></svg>