<svg xmlns="http://www.w3.org/2000/svg" width="32" height="32" fill="none"><g clip-path="url(#a)"><path fill="#1A1C1F" fill-rule="evenodd" d="M6.387 21c.706 0 1.384.181 1.945.49.391.216.545.73.344 1.148s-.681.583-1.072.368a2.56 2.56 0 0 0-1.217-.302c-.408 0-.547.142-.547.485 0 .402.207.696.907 1.245l.352.267C8.478 25.726 9 26.34 9 27.56 9 28.99 7.934 30 6.499 30a3.86 3.86 0 0 1-2.13-.652c-.37-.252-.48-.778-.245-1.176a.77.77 0 0 1 1.004-.318l.095.056c.346.235.817.386 1.276.386.596 0 .909-.297.909-.736 0-.303-.126-.545-.513-.896l-.239-.204-.295-.231-.191-.144c-1.394-1.036-1.922-1.657-1.922-2.896 0-1.304.87-2.189 2.139-2.189m12.215 0C20.15 21 21 21.974 21 23.776c0 1.734-.771 2.673-2.214 2.745l-.184.005h-1.01v2.622c0 .434-.304.793-.696.845l-.1.007c-.406 0-.74-.325-.79-.745L16 29.148v-7.296c0-.434.304-.793.696-.845l.1-.007zm-4.537 0c.44 0 .796.381.796.852 0 .434-.304.793-.696.845l-.1.007H11.59v1.77h1.88c.44 0 .796.382.796.852 0 .435-.304.793-.697.846l-.1.006H11.59v2.117h2.613c.406 0 .74.326.79.746l.006.107c0 .434-.304.793-.696.845l-.1.007h-3.408c-.406 0-.74-.325-.79-.745L10 29.148v-7.296c0-.434.304-.793.696-.845l.1-.007zm11.365.377.062.105.048.117 2.419 7.296c.149.449-.119.927-.598 1.066-.442.13-.91-.075-1.096-.46l-.04-.1-.648-1.955h-2.06l-.753 1.987c-.154.407-.603.635-1.041.549l-.119-.031c-.433-.145-.677-.566-.585-.977l.034-.112 2.764-7.295c.262-.69 1.227-.746 1.613-.19m-.815 3.17-.453 1.195h.85l-.397-1.196zm-7.023-1.843v2.117h1.01c.663 0 .806-.16.806-1.045 0-.834-.144-1.048-.697-1.07l-.109-.002zM26 2c1.656 0 3 1.375 3 3v10.985c0 1.656-1.375 3-3 3H6c-1.656 0-3-1.375-3-3V5c0-1.656 1.344-3 3-3zm0 2H6a1 1 0 0 0-1 1v11a1 1 0 0 0 1 1h20a1 1 0 0 0 1-1V5a1 1 0 0 0-1-1m-8 9a1 1 0 1 1 0 2H8a1 1 0 0 1 0-2zm6-7a1 1 0 0 1 1 1v1a1 1 0 0 1-1 1h-1a1 1 0 0 1-1-1V7a1 1 0 0 1 1-1z" clip-rule="evenodd"/></g><defs><clipPath id="a"><path fill="#fff" d="M0 0h32v32H0z"/></clipPath></defs></svg>