<svg xmlns="http://www.w3.org/2000/svg" width="14" height="14" fill="none"><g clip-path="url(#a)"><path fill="#1A1C1F" fill-rule="evenodd" d="m10.857 9.28.025.058.93 2.8a.35.35 0 0 1-.64.278l-.025-.058-.246-.74h-.8l-.286.754a.35.35 0 0 1-.39.22l-.06-.017a.35.35 0 0 1-.22-.39l.016-.06 1.062-2.8a.35.35 0 0 1 .634-.046m-2.569-.182c.673 0 1.052.38 1.052 1.088 0 .671-.332 1.037-.94 1.075l-.11.004h-.444v.983a.35.35 0 0 1-.286.344l-.063.006a.35.35 0 0 1-.345-.287l-.005-.063v-2.8a.35.35 0 0 1 .287-.344l.063-.006zm-5.072 0c.306 0 .601.07.845.187a.35.35 0 1 1-.304.63 1.3 1.3 0 0 0-.54-.117c-.183 0-.239.05-.239.163 0 .132.08.237.35.426l.192.13c.612.398.842.635.842 1.121 0 .568-.47.96-1.097.96-.332 0-.665-.093-.925-.248a.35.35 0 0 1 .358-.602c.153.091.362.15.567.15.265 0 .397-.11.397-.26 0-.125-.08-.228-.343-.413l-.19-.128c-.618-.402-.85-.642-.85-1.136 0-.519.385-.863.937-.863m3.224 0a.35.35 0 0 1 .063.694l-.063.006H5.36v.633h.821a.35.35 0 0 1 .063.695l-.063.005H5.36v.767h1.143a.35.35 0 0 1 .345.287l.005.063a.35.35 0 0 1-.287.344l-.063.006H5.01a.35.35 0 0 1-.344-.287l-.006-.063v-2.8a.35.35 0 0 1 .287-.344l.063-.006zm1.848.7h-.442v.767h.442c.295 0 .352-.057.352-.379 0-.295-.055-.375-.285-.387H8.29m1.501-8.4c.766 0 1.4.634 1.4 1.4v3.486c0 .766-.634 1.4-1.4 1.4H4.2a1.41 1.41 0 0 1-1.4-1.4V2.798c0-.766.634-1.4 1.4-1.4zm-2.09 3.5H4.2v1.4h3.5z" clip-rule="evenodd"/></g><defs><clipPath id="a"><path fill="#fff" d="M0 0h14v14H0z"/></clipPath></defs></svg>