<svg width="32" height="32" viewBox="0 0 32 32" fill="none" xmlns="http://www.w3.org/2000/svg"><path d="M6.290 2.077 L 5.141 2.107 4.744 2.304 C 3.896 2.726,3.340 3.378,3.106 4.227 C 3.021 4.533,3.013 5.036,3.013 10.533 L 3.013 16.507 3.166 16.907 C 3.539 17.881,4.140 18.478,5.117 18.844 C 5.412 18.954,5.450 18.955,14.880 18.973 C 25.159 18.992,26.561 18.970,27.046 18.781 C 27.863 18.463,28.526 17.769,28.843 16.900 L 28.987 16.507 29.002 10.540 C 29.019 3.897,29.046 4.430,28.649 3.653 C 28.388 3.141,27.836 2.599,27.302 2.329 L 26.897 2.124 25.862 2.077 C 24.754 2.028,8.212 2.028,6.290 2.077 M26.394 4.104 C 26.505 4.160,26.670 4.290,26.759 4.391 L 26.920 4.576 26.958 7.261 C 26.979 8.738,26.988 11.375,26.978 13.120 C 26.960 16.205,26.957 16.298,26.851 16.479 C 26.791 16.582,26.639 16.738,26.513 16.826 L 26.284 16.987 16.000 16.987 L 5.716 16.987 5.487 16.826 C 5.361 16.738,5.209 16.582,5.149 16.479 C 5.043 16.298,5.040 16.207,5.022 12.960 C 5.013 11.127,5.021 8.490,5.042 7.101 L 5.079 4.576 5.241 4.392 C 5.330 4.290,5.489 4.162,5.595 4.106 C 5.781 4.007,6.066 4.005,15.989 4.002 C 25.985 4.000,26.195 4.002,26.394 4.104 M22.747 6.064 C 22.544 6.096,22.281 6.294,22.143 6.519 C 21.908 6.904,21.926 8.144,22.172 8.523 C 22.399 8.873,22.635 8.970,23.333 9.001 C 24.107 9.035,24.423 8.964,24.693 8.693 C 24.963 8.423,25.035 8.107,25.001 7.336 C 24.970 6.632,24.890 6.422,24.569 6.204 C 24.354 6.058,24.324 6.053,23.627 6.046 C 23.231 6.042,22.835 6.050,22.747 6.064 M8.093 13.062 C 7.633 13.090,7.552 13.110,7.392 13.238 C 7.141 13.439,6.966 13.817,7.002 14.082 C 7.037 14.348,7.211 14.629,7.454 14.814 L 7.645 14.960 12.929 14.960 C 17.163 14.960,18.253 14.946,18.412 14.890 C 19.123 14.638,19.168 13.510,18.480 13.151 C 18.268 13.041,18.225 13.040,13.440 13.035 C 10.785 13.033,8.379 13.045,8.093 13.062 M5.799 21.068 C 5.261 21.204,4.683 21.697,4.442 22.224 C 4.329 22.471,4.297 22.634,4.278 23.065 C 4.223 24.292,4.534 24.776,6.281 26.182 C 6.860 26.648,7.137 26.908,7.240 27.085 C 7.619 27.729,7.232 28.292,6.420 28.280 C 6.162 28.276,5.964 28.226,5.550 28.060 C 4.821 27.768,4.696 27.749,4.439 27.893 C 4.092 28.088,3.939 28.482,4.050 28.893 C 4.245 29.617,6.027 30.190,7.163 29.894 C 8.449 29.559,9.183 28.417,8.961 27.097 C 8.820 26.262,8.419 25.749,7.057 24.658 C 6.112 23.903,5.910 23.667,5.879 23.290 C 5.860 23.062,5.877 22.987,5.978 22.860 C 6.098 22.707,6.102 22.706,6.533 22.739 C 6.801 22.760,7.144 22.834,7.430 22.933 C 7.973 23.121,8.009 23.123,8.309 22.987 C 8.491 22.905,8.561 22.832,8.648 22.634 C 8.779 22.339,8.761 21.985,8.604 21.767 C 8.480 21.595,7.820 21.258,7.387 21.145 C 6.994 21.043,6.072 20.998,5.799 21.068 M10.614 21.053 C 10.411 21.091,10.210 21.257,10.100 21.479 C 10.006 21.668,9.999 21.889,9.982 25.318 C 9.964 29.132,9.977 29.402,10.194 29.678 C 10.446 29.997,10.466 30.000,12.507 30.000 C 14.283 30.000,14.382 29.995,14.560 29.892 C 14.781 29.764,14.987 29.393,14.987 29.121 C 14.987 28.891,14.839 28.600,14.649 28.459 C 14.521 28.363,14.394 28.353,13.075 28.330 L 11.641 28.306 11.607 27.953 C 11.589 27.759,11.574 27.283,11.574 26.896 L 11.573 26.193 12.636 26.176 C 13.816 26.158,13.857 26.147,14.120 25.761 C 14.346 25.429,14.242 24.869,13.911 24.633 C 13.769 24.532,13.657 24.520,12.664 24.493 L 11.573 24.464 11.573 23.592 L 11.573 22.720 12.813 22.720 C 13.495 22.720,14.138 22.696,14.242 22.667 C 14.346 22.638,14.506 22.536,14.598 22.441 C 15.064 21.953,14.843 21.167,14.210 21.063 C 13.936 21.018,10.847 21.009,10.614 21.053 M16.536 21.083 C 16.427 21.121,16.280 21.241,16.176 21.377 L 16.000 21.608 16.000 25.477 C 16.000 29.290,16.002 29.348,16.110 29.539 C 16.284 29.845,16.459 29.947,16.810 29.947 C 17.082 29.947,17.133 29.928,17.296 29.770 C 17.574 29.501,17.600 29.338,17.600 27.847 L 17.600 26.507 18.200 26.506 C 18.919 26.504,19.456 26.433,19.757 26.300 C 20.064 26.164,20.503 25.701,20.693 25.312 C 20.902 24.887,20.963 24.536,20.963 23.776 C 20.964 22.727,20.741 22.067,20.231 21.601 C 19.865 21.267,19.574 21.131,19.089 21.068 C 18.522 20.994,16.762 21.005,16.536 21.083 M24.352 21.069 C 24.060 21.156,23.905 21.376,23.621 22.104 C 23.145 23.320,21.627 27.354,21.307 28.248 C 20.946 29.261,20.943 29.393,21.283 29.716 C 21.515 29.937,21.834 30.031,22.129 29.967 C 22.544 29.877,22.688 29.653,23.178 28.340 L 23.479 27.534 23.833 27.501 C 24.027 27.482,24.503 27.467,24.890 27.467 L 25.592 27.467 25.891 28.387 C 26.330 29.741,26.460 29.921,27.031 29.962 C 27.401 29.989,27.607 29.902,27.813 29.632 C 28.071 29.294,28.067 29.276,27.286 26.876 C 26.026 23.006,25.452 21.374,25.305 21.242 C 25.080 21.042,24.684 20.970,24.352 21.069 M19.186 22.894 C 19.330 23.038,19.334 23.059,19.348 23.721 C 19.370 24.740,19.317 24.795,18.260 24.840 L 17.600 24.869 17.600 23.789 L 17.600 22.710 18.319 22.728 C 19.022 22.746,19.041 22.750,19.186 22.894 M24.841 25.210 C 24.930 25.479,24.989 25.713,24.973 25.730 C 24.934 25.769,24.241 25.770,24.202 25.731 C 24.186 25.714,24.249 25.504,24.343 25.264 C 24.437 25.023,24.531 24.781,24.552 24.724 C 24.608 24.574,24.660 24.662,24.841 25.210 " fill="#1A1C1F" stroke="none" fill-rule="evenodd"></path></svg>