<svg xmlns="http://www.w3.org/2000/svg" width="28" height="28" fill="none"><g clip-path="url(#a)"><path fill="#1A1C1F" fill-rule="evenodd" d="M5.588 18.375c.618 0 1.212.159 1.703.43.342.188.476.637.3 1.003s-.596.51-.938.322a2.24 2.24 0 0 0-1.065-.264c-.356 0-.478.124-.478.424 0 .352.181.61.794 1.09l.307.233c1.207.897 1.664 1.433 1.664 2.502 0 1.251-.933 2.135-2.189 2.135a3.4 3.4 0 0 1-1.863-.57.777.777 0 0 1-.214-1.03.67.67 0 0 1 .878-.277l.083.048c.331.218.72.336 1.116.338.522 0 .796-.26.796-.644 0-.265-.11-.477-.45-.784l-.208-.178-.258-.203-.167-.125c-1.22-.907-1.682-1.45-1.682-2.535 0-1.14.76-1.915 1.871-1.915m10.689 0c1.353 0 2.098.852 2.098 2.43 0 1.516-.675 2.338-1.937 2.401l-.161.004h-.884v2.294c0 .38-.266.694-.61.74l-.086.006c-.356 0-.649-.284-.692-.652L14 25.504v-6.383c0-.38.266-.694.61-.74l.087-.006zm-3.97 0c.384 0 .696.334.696.746 0 .38-.265.693-.609.74l-.087.005h-2.165v1.548l1.645.001c.384 0 .696.334.696.746 0 .38-.266.693-.609.74l-.087.005h-1.645v1.852h2.286c.356 0 .649.285.692.653l.005.093c0 .38-.266.694-.61.74l-.087.006H9.447c-.356 0-.649-.284-.692-.652l-.005-.094v-6.383c0-.38.266-.694.61-.74l.087-.006zm9.944.33.054.092.042.102 2.117 6.384c.13.393-.104.81-.523.933-.386.113-.796-.065-.959-.403l-.035-.087-.567-1.711h-1.803l-.659 1.739c-.134.356-.527.556-.91.48l-.104-.027c-.38-.127-.593-.495-.512-.855l.03-.097 2.418-6.384c.229-.604 1.073-.653 1.411-.166m-.713 2.773-.397 1.046h.744zm-6.145-1.612v1.853h.884c.58 0 .705-.141.705-.915 0-.73-.126-.917-.61-.936l-.095-.002zM22.75 1.75c1.449 0 2.625 1.203 2.625 2.625v9.612c0 1.449-1.203 2.625-2.625 2.625H5.25c-1.449 0-2.625-1.203-2.625-2.625V4.375A2.626 2.626 0 0 1 5.25 1.75zm0 1.75H5.25a.875.875 0 0 0-.875.875V14c0 .483.392.875.875.875h17.5a.875.875 0 0 0 .875-.875V4.375a.875.875 0 0 0-.875-.875m-7 7.875a.875.875 0 1 1 0 1.75H7a.875.875 0 0 1 0-1.75zM21 5.25c.483 0 .875.392.875.875V7a.875.875 0 0 1-.875.875h-.875A.875.875 0 0 1 19.25 7v-.875c0-.483.392-.875.875-.875z" clip-rule="evenodd"/></g><defs><clipPath id="a"><path fill="#fff" d="M0 0h28v28H0z"/></clipPath></defs></svg>