<svg width="28" height="28" viewBox="0 0 28 28" fill="none" xmlns="http://www.w3.org/2000/svg"><path d="M5.527 1.818 L 4.498 1.843 4.151 2.016 C 3.409 2.385,2.923 2.956,2.717 3.698 C 2.643 3.967,2.637 4.407,2.637 9.217 L 2.637 14.443 2.771 14.793 C 3.096 15.639,3.602 16.151,4.428 16.468 L 4.737 16.587 13.020 16.602 C 22.015 16.618,23.241 16.599,23.665 16.434 C 24.382 16.154,24.950 15.556,25.240 14.777 L 25.363 14.443 25.377 9.222 C 25.392 3.410,25.416 3.876,25.068 3.197 C 24.839 2.748,24.356 2.274,23.889 2.037 L 23.535 1.858 22.629 1.818 C 21.661 1.775,7.250 1.774,5.527 1.818 M23.095 3.591 C 23.192 3.640,23.336 3.754,23.414 3.842 L 23.555 4.004 23.588 6.307 C 23.606 7.574,23.614 9.880,23.606 11.433 C 23.590 14.180,23.587 14.261,23.494 14.419 C 23.442 14.509,23.309 14.645,23.199 14.723 L 22.999 14.863 14.000 14.863 L 5.001 14.863 4.801 14.723 C 4.691 14.645,4.558 14.509,4.506 14.419 C 4.412 14.261,4.410 14.181,4.395 11.340 C 4.386 9.736,4.394 7.429,4.412 6.214 L 4.445 4.004 4.586 3.843 C 4.664 3.754,4.803 3.642,4.895 3.593 C 5.059 3.507,5.308 3.504,13.990 3.502 C 22.737 3.500,22.921 3.502,23.095 3.591 M19.857 5.305 C 19.711 5.343,19.478 5.536,19.375 5.704 C 19.265 5.882,19.195 6.597,19.247 7.013 C 19.287 7.333,19.460 7.610,19.707 7.749 C 19.858 7.834,19.989 7.857,20.416 7.876 C 21.094 7.906,21.370 7.843,21.607 7.607 C 21.843 7.370,21.906 7.093,21.876 6.419 C 21.849 5.803,21.779 5.619,21.498 5.429 C 21.308 5.300,21.287 5.296,20.627 5.289 C 20.255 5.284,19.908 5.292,19.857 5.305 M7.081 11.429 C 6.679 11.454,6.608 11.471,6.468 11.583 C 6.248 11.759,6.095 12.090,6.126 12.322 C 6.157 12.554,6.310 12.800,6.522 12.963 L 6.689 13.090 11.056 13.105 C 13.458 13.113,15.575 13.106,15.761 13.089 C 16.328 13.038,16.591 12.771,16.588 12.250 C 16.586 11.903,16.488 11.709,16.230 11.538 L 16.037 11.410 11.787 11.406 C 9.449 11.404,7.332 11.414,7.081 11.429 M5.074 18.434 C 4.604 18.554,4.098 18.985,3.886 19.446 C 3.788 19.662,3.760 19.805,3.743 20.182 C 3.695 21.256,3.967 21.679,5.496 22.909 C 6.282 23.542,6.463 23.766,6.463 24.112 C 6.464 24.504,6.149 24.747,5.648 24.744 C 5.388 24.743,5.244 24.708,4.859 24.553 C 4.231 24.301,4.116 24.283,3.891 24.398 C 3.590 24.553,3.446 24.919,3.544 25.282 C 3.714 25.915,5.274 26.416,6.268 26.157 C 7.387 25.865,8.045 24.841,7.842 23.707 C 7.708 22.963,7.378 22.541,6.175 21.577 C 5.348 20.914,5.171 20.709,5.144 20.379 C 5.128 20.179,5.143 20.113,5.230 20.002 C 5.336 19.868,5.339 19.868,5.716 19.897 C 5.951 19.915,6.251 19.980,6.501 20.066 C 6.977 20.231,7.008 20.233,7.270 20.114 C 7.429 20.041,7.491 19.978,7.567 19.804 C 7.681 19.546,7.666 19.237,7.528 19.046 C 7.420 18.896,6.842 18.600,6.463 18.502 C 6.120 18.413,5.313 18.374,5.074 18.434 M9.287 18.421 C 9.109 18.454,8.934 18.600,8.837 18.794 C 8.755 18.960,8.749 19.153,8.735 22.153 C 8.719 25.490,8.730 25.726,8.920 25.968 C 9.140 26.247,9.158 26.250,10.943 26.250 C 12.498 26.250,12.585 26.245,12.740 26.156 C 12.934 26.044,13.113 25.719,13.113 25.481 C 13.113 25.280,12.984 25.025,12.818 24.902 C 12.706 24.818,12.595 24.809,11.441 24.789 L 10.186 24.768 10.157 24.459 C 10.140 24.289,10.127 23.873,10.127 23.535 L 10.127 22.920 11.048 22.905 C 12.097 22.888,12.204 22.858,12.366 22.541 C 12.542 22.197,12.455 21.756,12.172 21.554 C 12.048 21.466,11.950 21.455,11.081 21.432 L 10.127 21.406 10.127 20.643 L 10.127 19.880 11.212 19.880 C 11.808 19.880,12.371 19.859,12.462 19.834 C 12.667 19.777,12.898 19.539,12.971 19.311 C 13.085 18.951,12.800 18.478,12.430 18.418 C 12.228 18.384,9.468 18.387,9.287 18.421 M14.533 18.431 C 14.335 18.478,14.294 18.508,14.137 18.725 L 14.000 18.914 14.000 22.296 C 14.000 25.628,14.001 25.680,14.096 25.847 C 14.248 26.114,14.402 26.203,14.709 26.203 C 14.947 26.203,14.992 26.187,15.134 26.049 C 15.377 25.813,15.400 25.670,15.400 24.366 L 15.400 23.193 15.925 23.192 C 16.554 23.191,17.024 23.129,17.287 23.013 C 17.556 22.894,17.940 22.489,18.107 22.148 C 18.290 21.774,18.345 21.466,18.346 20.811 C 18.347 19.887,18.149 19.310,17.689 18.888 C 17.371 18.597,17.140 18.491,16.698 18.434 C 16.301 18.382,14.744 18.380,14.533 18.431 M21.308 18.435 C 21.093 18.500,20.920 18.703,20.767 19.070 C 20.407 19.934,18.529 25.015,18.427 25.399 C 18.385 25.559,18.388 25.629,18.446 25.766 C 18.580 26.084,19.008 26.297,19.361 26.223 C 19.723 26.146,19.852 25.946,20.281 24.798 L 20.544 24.093 20.854 24.063 C 21.024 24.047,21.440 24.034,21.778 24.034 L 22.393 24.033 22.654 24.838 C 23.038 26.023,23.153 26.181,23.652 26.217 C 23.975 26.240,24.156 26.164,24.336 25.928 C 24.562 25.632,24.559 25.621,23.853 23.450 C 22.749 20.058,22.272 18.704,22.142 18.587 C 21.945 18.412,21.598 18.348,21.308 18.435 M16.787 20.033 C 16.913 20.159,16.917 20.177,16.930 20.756 C 16.949 21.647,16.902 21.695,15.978 21.735 L 15.400 21.760 15.400 20.816 L 15.400 19.871 16.029 19.887 C 16.644 19.903,16.661 19.906,16.787 20.033 M21.720 22.016 C 21.807 22.275,21.866 22.498,21.851 22.513 C 21.811 22.553,21.195 22.546,21.173 22.505 C 21.151 22.465,21.518 21.502,21.544 21.529 C 21.554 21.538,21.633 21.757,21.720 22.016 " fill="#1A1C1F" stroke="none" fill-rule="evenodd"></path></svg>