<svg xmlns="http://www.w3.org/2000/svg" width="16" height="16" fill="none"><g clip-path="url(#a)"><path fill="#1A1C1F" fill-rule="evenodd" d="m12.41 10.607.029.067 1.062 3.2a.4.4 0 0 1-.73.318l-.03-.066-.28-.846h-.916l-.325.862a.4.4 0 0 1-.447.251l-.07-.019a.4.4 0 0 1-.251-.446l.02-.07 1.213-3.2a.4.4 0 0 1 .725-.05zM9.474 10.4c.77 0 1.203.434 1.203 1.244 0 .767-.38 1.184-1.076 1.228l-.127.004h-.505L8.97 14a.4.4 0 0 1-.328.394l-.072.006a.4.4 0 0 1-.394-.328L8.17 14v-3.2a.4.4 0 0 1 .328-.394l.072-.006h.904zm-5.796 0c.35 0 .686.079.965.213a.401.401 0 0 1-.042.738.4.4 0 0 1-.305-.017 1.45 1.45 0 0 0-.618-.134c-.21 0-.273.057-.273.186 0 .151.093.272.4.487l.22.148c.7.455.963.726.963 1.282 0 .65-.54 1.097-1.254 1.097-.38 0-.76-.107-1.058-.284a.4.4 0 0 1 .41-.687c.175.104.414.171.648.171.302 0 .454-.126.454-.297 0-.143-.091-.26-.392-.472l-.218-.146c-.706-.46-.973-.734-.973-1.299 0-.593.44-.986 1.073-.986m3.684 0a.4.4 0 0 1 .072.794l-.072.006H6.125v.723h.94a.4.4 0 0 1 .072.794l-.072.007h-.94v.876h1.307a.4.4 0 0 1 .394.328L7.83 14a.4.4 0 0 1-.328.394l-.072.006H5.726a.4.4 0 0 1-.394-.328L5.326 14v-3.2a.4.4 0 0 1 .328-.394l.072-.006zm2.112.8h-.505v.876h.505c.337 0 .403-.064.403-.432 0-.338-.063-.43-.326-.442zm1.718-9.6c.875 0 1.6.725 1.6 1.6v3.984c0 .875-.725 1.6-1.6 1.6H4.8a1.61 1.61 0 0 1-1.6-1.6V3.2c0-.875.726-1.6 1.6-1.6zm.01 1.6H4.8v4h6.4zM8.8 5.6v.8H5.6v-.8z" clip-rule="evenodd"/></g><defs><clipPath id="a"><path fill="#fff" d="M0 0h16v16H0z"/></clipPath></defs></svg>