<svg width="20" height="20" viewBox="0 0 20 20" fill="none" xmlns="http://www.w3.org/2000/svg"><path d="M6.250 2.029 L 5.483 2.050 5.200 2.187 C 4.638 2.458,4.289 2.856,4.080 3.467 C 4.020 3.641,4.017 3.792,4.017 6.483 L 4.017 9.317 4.110 9.588 C 4.226 9.927,4.348 10.112,4.647 10.406 C 4.813 10.570,4.960 10.676,5.149 10.770 C 5.383 10.885,5.460 10.906,5.767 10.933 C 6.222 10.974,13.777 10.974,14.228 10.933 C 14.619 10.898,14.814 10.824,15.150 10.585 C 15.501 10.334,15.723 10.024,15.904 9.529 L 16.006 9.250 15.989 6.483 C 15.977 4.571,15.960 3.660,15.933 3.533 C 15.805 2.929,15.183 2.284,14.533 2.082 C 14.366 2.030,14.032 2.025,10.683 2.017 C 8.667 2.012,6.672 2.018,6.250 2.029 M14.000 6.500 L 14.000 9.000 10.000 9.000 L 6.000 9.000 6.000 6.500 L 6.000 4.000 10.000 4.000 L 14.000 4.000 14.000 6.500 M7.000 7.500 L 7.000 8.000 9.000 8.000 L 11.000 8.000 11.000 7.500 L 11.000 7.000 9.000 7.000 L 7.000 7.000 7.000 7.500 M4.233 13.046 C 3.859 13.129,3.533 13.375,3.380 13.688 C 3.207 14.041,3.238 14.631,3.447 14.962 C 3.572 15.159,3.956 15.498,4.435 15.835 C 4.944 16.192,5.117 16.338,5.185 16.471 C 5.257 16.610,5.244 16.715,5.139 16.827 C 4.952 17.027,4.552 17.048,4.092 16.882 C 3.718 16.747,3.591 16.724,3.439 16.765 C 3.207 16.827,3.061 17.081,3.115 17.325 C 3.200 17.712,4.203 18.076,4.901 17.975 C 5.689 17.860,6.165 17.398,6.224 16.693 C 6.250 16.378,6.168 16.088,5.980 15.832 C 5.820 15.615,5.543 15.383,4.968 14.986 C 4.375 14.576,4.208 14.370,4.282 14.138 C 4.334 13.975,4.755 13.975,5.307 14.137 C 5.621 14.229,5.771 14.207,5.922 14.046 C 6.122 13.834,6.102 13.523,5.878 13.338 C 5.733 13.218,5.315 13.080,4.956 13.034 C 4.631 12.992,4.467 12.994,4.233 13.046 M7.117 13.021 C 7.080 13.029,7.017 13.043,6.976 13.052 C 6.936 13.060,6.850 13.122,6.785 13.189 L 6.667 13.310 6.667 15.498 L 6.667 17.685 6.767 17.807 C 6.921 17.993,7.051 18.009,8.352 17.995 C 9.419 17.984,9.465 17.981,9.556 17.913 C 9.695 17.810,9.777 17.647,9.775 17.483 C 9.772 17.306,9.731 17.227,9.584 17.115 L 9.470 17.028 8.568 17.009 L 7.667 16.990 7.667 16.445 L 7.667 15.900 8.292 15.899 C 9.047 15.898,9.144 15.870,9.266 15.618 C 9.389 15.364,9.314 15.131,9.063 14.983 C 8.963 14.924,8.878 14.915,8.308 14.906 L 7.667 14.895 7.667 14.449 L 7.667 14.003 8.514 13.993 C 9.310 13.984,9.368 13.979,9.454 13.915 C 9.619 13.791,9.683 13.675,9.683 13.500 C 9.683 13.325,9.619 13.209,9.454 13.085 C 9.366 13.020,9.316 13.016,8.273 13.011 C 7.674 13.008,7.153 13.012,7.117 13.021 M10.650 13.022 C 10.484 13.042,10.327 13.158,10.252 13.317 C 10.199 13.429,10.195 13.606,10.206 15.550 C 10.216 17.620,10.218 17.664,10.285 17.756 C 10.366 17.866,10.611 18.000,10.732 17.999 C 10.862 17.999,11.069 17.863,11.138 17.734 C 11.193 17.631,11.200 17.534,11.200 16.863 L 11.200 16.109 11.708 16.091 C 12.303 16.071,12.556 16.006,12.814 15.809 C 13.183 15.526,13.315 15.199,13.316 14.567 C 13.317 13.915,13.174 13.553,12.808 13.284 C 12.520 13.071,12.314 13.029,11.500 13.017 C 11.106 13.011,10.723 13.014,10.650 13.022 M14.883 13.046 C 14.828 13.071,14.751 13.127,14.712 13.171 C 14.639 13.252,14.351 13.974,13.682 15.754 C 13.130 17.220,13.052 17.463,13.081 17.617 C 13.152 17.996,13.682 18.127,13.914 17.823 C 13.990 17.724,14.197 17.243,14.351 16.808 L 14.413 16.633 14.998 16.633 L 15.583 16.633 15.746 17.117 C 15.967 17.772,16.014 17.861,16.181 17.937 C 16.353 18.015,16.448 18.015,16.626 17.934 C 16.739 17.882,16.784 17.836,16.837 17.715 C 16.898 17.578,16.901 17.543,16.866 17.389 C 16.807 17.135,15.589 13.477,15.500 13.290 C 15.389 13.056,15.106 12.943,14.883 13.046 M12.220 14.110 C 12.311 14.216,12.349 14.434,12.324 14.708 C 12.309 14.866,12.287 14.929,12.219 14.997 C 12.135 15.080,12.116 15.084,11.666 15.095 L 11.200 15.106 11.200 14.549 L 11.200 13.991 11.672 14.007 C 12.133 14.021,12.145 14.024,12.220 14.110 M15.141 15.314 C 15.189 15.449,15.220 15.569,15.209 15.580 C 15.198 15.591,15.103 15.600,14.998 15.600 L 14.807 15.600 14.908 15.333 C 14.964 15.187,15.019 15.067,15.032 15.067 C 15.044 15.067,15.094 15.178,15.141 15.314 " fill="#1A1C1F" stroke="none" fill-rule="evenodd"></path></svg>