<svg xmlns="http://www.w3.org/2000/svg" width="20" height="20" fill="none"><path fill="#1A1C1F" fill-rule="evenodd" d="M5.567 2.052c-.537.115-1.096.549-1.342 1.04-.233.466-.229.4-.218 3.508.01 2.74.011 2.786.08 2.967.141.369.257.551.509.802.296.294.524.433.87.529.246.068.302.069 4.533.068 4.738 0 4.425.014 4.899-.22.455-.225.841-.696 1.023-1.246.055-.169.061-.383.071-2.817.008-1.682-.001-2.726-.022-2.889a1.97 1.97 0 0 0-.602-1.218c-.248-.248-.688-.482-1.016-.541-.133-.023-1.562-.034-4.383-.032-3.447.002-4.224.011-4.402.049M11 8v1H6V7h5zm-6.765 5.036a1.24 1.24 0 0 0-.863.659c-.07.151-.09.25-.1.496-.026.69.203.996 1.297 1.736.644.435.787.655.583.898-.197.234-.745.23-1.239-.009-.37-.18-.735-.04-.8.307-.055.295.123.509.568.68 1.277.493 2.462-.011 2.543-1.08.049-.648-.201-1.018-1.092-1.624-.756-.514-.884-.648-.859-.903.007-.078.035-.124.094-.155.124-.067.564-.029.864.074.297.102.449.107.594.019a.492.492 0 0 0 .03-.826c-.341-.232-1.139-.366-1.62-.272m2.699.022a.6.6 0 0 0-.192.172l-.075.113v4.314l.075.113c.154.23.166.232 1.514.222 1.159-.008 1.209-.011 1.298-.077.162-.122.224-.234.227-.412s-.059-.292-.227-.418c-.087-.064-.143-.069-.99-.078l-.897-.01V15.9h.636c.519 0 .658-.01.751-.054a.48.48 0 0 0 .27-.409.44.44 0 0 0-.259-.462c-.136-.07-.188-.075-.772-.075h-.626V14l.825-.001c.792 0 .83-.003.955-.075a.6.6 0 0 0 .191-.19.486.486 0 0 0-.191-.658c-.128-.073-.152-.075-1.264-.075-1.013-.001-1.145.005-1.249.057m3.581-.011a.58.58 0 0 0-.298.362c-.011.059-.015 1.04-.01 2.18.009 2.034.011 2.075.078 2.165.235.314.63.32.84.013.072-.107.075-.136.075-.889V16.1h.392c.683-.001 1.028-.097 1.325-.371.285-.262.416-.635.416-1.179 0-.845-.357-1.353-1.057-1.501-.306-.065-1.613-.066-1.761-.002m4.315.022a.6.6 0 0 0-.172.16 78 78 0 0 0-.822 2.117c-.531 1.399-.769 2.069-.769 2.159a.48.48 0 0 0 .629.467c.206-.062.284-.181.514-.789l.215-.566h1.151l.187.552c.211.623.252.699.415.776a.495.495 0 0 0 .713-.376c.014-.106-.11-.511-.69-2.249-.681-2.044-.711-2.124-.822-2.209a.51.51 0 0 0-.549-.042m-2.698.969c.147.051.201.193.201.529 0 .318-.051.443-.204.496-.058.02-.291.037-.517.037H11.2V14h.412c.226 0 .46.017.52.038m3.084 1.493c.021.065.01.069-.194.069h-.216l.098-.255c.054-.14.108-.271.12-.29q.028-.042.192.476"/></svg>