<svg width="12" height="12" viewBox="0 0 12 12" fill="none" xmlns="http://www.w3.org/2000/svg"><path d="M3.730 1.218 C 3.248 1.233,3.191 1.248,2.930 1.423 C 2.750 1.543,2.645 1.662,2.542 1.860 C 2.388 2.159,2.398 2.018,2.405 3.903 C 2.411 5.477,2.413 5.597,2.448 5.700 C 2.577 6.086,2.829 6.359,3.196 6.508 L 3.350 6.570 6.000 6.570 L 8.650 6.570 8.784 6.516 C 8.961 6.445,9.106 6.350,9.238 6.218 C 9.384 6.072,9.464 5.942,9.538 5.733 L 9.600 5.557 9.600 3.889 L 9.600 2.222 9.538 2.051 C 9.422 1.731,9.222 1.489,8.957 1.350 C 8.687 1.208,8.846 1.217,6.380 1.211 C 5.153 1.208,3.961 1.211,3.730 1.218 M6.600 4.800 L 6.600 5.400 5.100 5.400 L 3.600 5.400 3.600 4.800 L 3.600 4.200 5.100 4.200 L 6.600 4.200 6.600 4.800 M4.227 7.818 C 4.122 7.845,4.043 7.914,4.026 7.996 C 4.017 8.037,4.010 8.637,4.010 9.330 C 4.010 10.737,4.004 10.677,4.150 10.750 C 4.224 10.787,4.277 10.790,4.878 10.796 C 5.610 10.802,5.710 10.792,5.789 10.698 C 5.862 10.611,5.890 10.502,5.862 10.416 C 5.831 10.323,5.742 10.241,5.647 10.219 C 5.605 10.209,5.352 10.201,5.085 10.200 L 4.600 10.200 4.600 9.871 L 4.600 9.543 5.005 9.536 C 5.386 9.530,5.414 9.527,5.473 9.485 C 5.645 9.363,5.637 9.096,5.458 8.990 C 5.397 8.954,5.347 8.949,4.995 8.943 L 4.600 8.937 4.600 8.670 L 4.600 8.402 5.105 8.396 C 5.682 8.389,5.702 8.384,5.776 8.240 C 5.854 8.088,5.800 7.894,5.663 7.835 C 5.601 7.808,4.326 7.793,4.227 7.818 M6.376 7.818 C 6.275 7.833,6.215 7.875,6.163 7.970 C 6.133 8.024,6.130 8.158,6.130 9.300 L 6.130 10.570 6.175 10.643 C 6.240 10.747,6.309 10.786,6.430 10.786 C 6.551 10.786,6.620 10.747,6.685 10.643 C 6.728 10.574,6.730 10.546,6.737 10.115 L 6.744 9.660 6.977 9.660 C 7.369 9.659,7.590 9.592,7.758 9.424 C 7.866 9.316,7.941 9.182,7.978 9.033 C 8.012 8.895,8.007 8.554,7.970 8.411 C 7.881 8.073,7.643 7.865,7.292 7.820 C 7.133 7.799,6.521 7.798,6.376 7.818 M8.960 7.813 C 8.877 7.848,8.813 7.915,8.768 8.017 C 8.616 8.359,7.865 10.378,7.846 10.493 C 7.821 10.646,8.012 10.819,8.176 10.793 C 8.328 10.768,8.401 10.660,8.562 10.221 L 8.649 9.985 8.779 9.973 C 8.851 9.966,9.009 9.960,9.130 9.960 L 9.350 9.960 9.457 10.277 C 9.577 10.635,9.612 10.703,9.705 10.760 C 9.822 10.832,9.981 10.795,10.082 10.673 C 10.174 10.564,10.164 10.522,9.746 9.251 C 9.362 8.083,9.302 7.924,9.226 7.865 C 9.160 7.815,9.021 7.788,8.960 7.813 M2.456 7.848 C 2.261 7.918,2.055 8.109,1.997 8.275 C 1.981 8.319,1.970 8.438,1.970 8.560 C 1.970 8.751,1.975 8.781,2.028 8.890 C 2.108 9.055,2.332 9.270,2.640 9.480 C 3.079 9.777,3.187 9.910,3.111 10.057 C 3.022 10.231,2.749 10.241,2.351 10.086 C 2.139 10.004,2.075 10.008,1.959 10.113 C 1.832 10.228,1.826 10.403,1.946 10.520 C 2.025 10.598,2.247 10.706,2.420 10.751 C 2.583 10.794,2.930 10.800,3.080 10.762 C 3.507 10.657,3.762 10.318,3.734 9.896 C 3.713 9.582,3.581 9.413,3.069 9.050 C 2.627 8.736,2.525 8.619,2.573 8.482 C 2.590 8.431,2.596 8.430,2.788 8.424 C 2.953 8.419,3.014 8.427,3.164 8.471 C 3.382 8.535,3.460 8.527,3.553 8.428 C 3.641 8.335,3.659 8.218,3.604 8.094 C 3.569 8.016,3.547 7.996,3.437 7.944 C 3.367 7.910,3.241 7.869,3.156 7.852 C 2.966 7.813,2.561 7.811,2.456 7.848 M7.315 8.441 C 7.340 8.457,7.370 8.502,7.380 8.540 C 7.407 8.635,7.403 8.854,7.374 8.939 C 7.342 9.032,7.257 9.056,6.965 9.058 L 6.740 9.060 6.740 8.728 L 6.740 8.395 7.005 8.404 C 7.190 8.409,7.284 8.421,7.315 8.441 " fill="#1A1C1F" stroke="none" fill-rule="evenodd"></path></svg>