<svg xmlns="http://www.w3.org/2000/svg" width="24" height="24" fill="none"><g clip-path="url(#a)"><path fill="#1A1C1F" fill-rule="evenodd" d="m17.411 17.257.036.084 1.328 4a.5.5 0 0 1-.914.397l-.035-.083-.352-1.057H16.33l-.407 1.077a.5.5 0 0 1-.558.315l-.087-.024a.5.5 0 0 1-.314-.558l.024-.087 1.517-4a.5.5 0 0 1 .906-.064m-3.67-.259c.962 0 1.504.542 1.504 1.555 0 .958-.475 1.48-1.345 1.535l-.158.005h-.632l.001 1.405a.5.5 0 0 1-.41.492l-.09.008a.5.5 0 0 1-.492-.41l-.008-.09v-4a.5.5 0 0 1 .41-.492l.09-.008zm-7.245 0c.437 0 .858.1 1.207.267a.5.5 0 0 1-.435.9 1.8 1.8 0 0 0-.772-.167c-.261 0-.34.071-.34.233 0 .188.115.34.498.608l.276.186c.874.568 1.203.907 1.203 1.602 0 .812-.673 1.371-1.567 1.371a2.64 2.64 0 0 1-1.322-.355.5.5 0 1 1 .512-.859c.219.13.517.214.81.214.378 0 .567-.157.567-.37 0-.18-.113-.327-.49-.59l-.271-.184c-.884-.575-1.217-.918-1.217-1.623 0-.74.553-1.233 1.341-1.233m4.606 0a.5.5 0 0 1 .09.992l-.09.008H9.555v.904h1.175a.5.5 0 0 1 .09.993l-.09.008H9.555v1.095h1.634a.5.5 0 0 1 .492.41l.008.09a.5.5 0 0 1-.41.492l-.09.008H9.056a.5.5 0 0 1-.492-.41l-.008-.09v-4a.5.5 0 0 1 .41-.492l.09-.008zm5.838 1.992-.23.608h.432zm-3.198-.992h-.632v1.095h.632c.421 0 .503-.08.503-.54 0-.423-.08-.537-.407-.553zm4.258-16a3 3 0 0 1 3 3v7a3 3 0 0 1-3 3H6a3 3 0 0 1-3-3v-7a3 3 0 0 1 3-3zm0 2H6a1 1 0 0 0-1 1v7a1 1 0 0 0 1 1h12a1 1 0 0 0 1-1v-7a1 1 0 0 0-1-1m-4 5a1 1 0 1 1 0 2H8a1 1 0 1 1 0-2zm3-4a1 1 0 1 1 0 2 1 1 0 0 1 0-2" clip-rule="evenodd"/></g><defs><clipPath id="a"><path fill="#fff" d="M0 0h24v24H0z"/></clipPath></defs></svg>