<svg width="14" height="14" viewBox="0 0 14 14" fill="none" xmlns="http://www.w3.org/2000/svg"><path d="M4.352 1.421 L 3.838 1.435 3.637 1.532 C 3.488 1.603,3.388 1.673,3.259 1.796 C 3.052 1.993,2.958 2.130,2.874 2.362 L 2.812 2.532 2.805 4.328 C 2.797 6.219,2.809 6.547,2.893 6.771 C 3.008 7.079,3.312 7.402,3.628 7.552 C 3.769 7.619,3.830 7.633,4.072 7.653 C 4.411 7.681,9.729 7.683,9.995 7.655 C 10.143 7.639,10.219 7.615,10.391 7.529 C 10.509 7.470,10.654 7.379,10.715 7.327 C 10.869 7.193,11.047 6.916,11.123 6.690 L 11.188 6.498 11.188 4.562 C 11.188 3.032,11.181 2.596,11.156 2.485 C 11.058 2.045,10.634 1.601,10.173 1.457 C 10.056 1.421,9.824 1.417,7.455 1.412 C 6.030 1.409,4.634 1.413,4.352 1.421 M9.800 4.550 L 9.800 6.300 7.000 6.300 L 4.200 6.300 4.200 4.550 L 4.200 2.800 7.000 2.800 L 9.800 2.800 9.800 4.550 M4.900 5.250 L 4.900 5.600 6.300 5.600 L 7.700 5.600 7.700 5.250 L 7.700 4.900 6.300 4.900 L 4.900 4.900 4.900 5.250 M4.982 9.111 C 4.969 9.115,4.930 9.126,4.895 9.133 C 4.860 9.141,4.795 9.185,4.749 9.232 L 4.667 9.317 4.667 10.833 C 4.667 12.318,4.668 12.351,4.714 12.426 C 4.741 12.470,4.808 12.526,4.866 12.554 C 4.968 12.603,4.989 12.604,5.797 12.596 C 6.594 12.589,6.626 12.587,6.689 12.539 C 6.786 12.467,6.844 12.353,6.842 12.238 C 6.841 12.113,6.812 12.059,6.704 11.977 L 6.619 11.912 5.993 11.904 L 5.367 11.897 5.367 11.514 L 5.367 11.130 5.804 11.129 C 6.329 11.129,6.411 11.106,6.487 10.938 C 6.547 10.806,6.545 10.711,6.481 10.616 C 6.375 10.458,6.317 10.443,5.816 10.434 L 5.367 10.426 5.367 10.113 L 5.367 9.800 5.922 9.800 C 6.451 9.800,6.481 9.798,6.580 9.748 C 6.722 9.675,6.778 9.590,6.778 9.450 C 6.778 9.328,6.733 9.246,6.618 9.160 C 6.556 9.114,6.521 9.111,5.779 9.107 C 5.353 9.104,4.995 9.106,4.982 9.111 M7.455 9.116 C 7.340 9.129,7.229 9.211,7.178 9.318 C 7.144 9.390,7.140 9.541,7.141 10.714 C 7.142 11.437,7.151 12.115,7.161 12.222 C 7.183 12.444,7.222 12.504,7.388 12.567 C 7.504 12.612,7.602 12.600,7.699 12.531 C 7.828 12.439,7.840 12.376,7.840 11.801 L 7.840 11.277 8.196 11.264 C 8.744 11.244,8.978 11.144,9.169 10.849 C 9.290 10.661,9.322 10.522,9.322 10.173 C 9.322 9.925,9.313 9.859,9.266 9.728 C 9.160 9.435,8.991 9.267,8.701 9.169 C 8.569 9.124,8.493 9.117,8.050 9.111 C 7.774 9.108,7.506 9.110,7.455 9.116 M10.418 9.132 C 10.380 9.150,10.326 9.189,10.298 9.220 C 10.235 9.290,9.487 11.222,9.228 11.984 C 9.129 12.275,9.130 12.362,9.230 12.481 C 9.336 12.607,9.561 12.631,9.690 12.530 C 9.757 12.477,9.857 12.274,9.989 11.918 L 10.091 11.643 10.500 11.643 L 10.908 11.644 11.033 12.011 C 11.185 12.459,11.217 12.515,11.352 12.566 C 11.539 12.638,11.727 12.559,11.795 12.381 L 11.836 12.275 11.736 11.942 C 11.578 11.412,10.904 9.416,10.841 9.292 C 10.808 9.227,10.758 9.167,10.723 9.151 C 10.622 9.106,10.494 9.097,10.418 9.132 M2.762 9.203 C 2.574 9.298,2.425 9.445,2.349 9.609 C 2.307 9.700,2.299 9.762,2.299 9.975 C 2.298 10.219,2.302 10.241,2.375 10.388 C 2.475 10.591,2.717 10.819,3.136 11.105 C 3.590 11.415,3.714 11.572,3.631 11.732 C 3.574 11.842,3.451 11.889,3.220 11.887 C 3.048 11.885,2.993 11.874,2.806 11.799 C 2.688 11.752,2.551 11.713,2.503 11.713 C 2.266 11.714,2.103 11.974,2.206 12.189 C 2.296 12.380,2.720 12.560,3.152 12.592 C 3.655 12.629,4.105 12.394,4.288 11.999 C 4.342 11.883,4.350 11.835,4.349 11.643 C 4.347 11.163,4.242 11.032,3.349 10.395 C 3.223 10.305,3.090 10.191,3.053 10.141 C 2.981 10.042,2.967 9.930,3.017 9.861 C 3.082 9.772,3.372 9.791,3.743 9.907 C 3.965 9.977,4.029 9.968,4.152 9.850 C 4.261 9.747,4.289 9.637,4.243 9.492 C 4.217 9.409,4.190 9.379,4.083 9.315 C 3.856 9.179,3.695 9.142,3.290 9.130 L 2.928 9.119 2.762 9.203 M8.554 9.877 C 8.617 9.951,8.644 10.104,8.627 10.296 C 8.617 10.406,8.601 10.450,8.553 10.498 C 8.494 10.556,8.481 10.559,8.166 10.566 L 7.840 10.574 7.840 10.184 L 7.840 9.794 8.170 9.805 C 8.493 9.815,8.502 9.817,8.554 9.877 " fill="#1A1C1F" stroke="none" fill-rule="evenodd"></path></svg>