<svg width="16" height="16" viewBox="0 0 16 16" fill="none" xmlns="http://www.w3.org/2000/svg"><path d="M4.920 1.625 C 4.388 1.646,4.343 1.654,4.106 1.773 C 3.706 1.976,3.422 2.313,3.264 2.773 C 3.216 2.913,3.213 3.034,3.213 5.187 L 3.213 7.453 3.278 7.650 C 3.444 8.154,3.905 8.594,4.416 8.736 C 4.556 8.774,4.883 8.781,7.347 8.792 C 8.872 8.798,10.444 8.793,10.840 8.780 L 11.560 8.756 11.760 8.671 C 12.246 8.465,12.540 8.141,12.737 7.594 L 12.806 7.404 12.795 5.162 L 12.783 2.920 12.715 2.727 C 12.623 2.470,12.527 2.311,12.351 2.126 C 12.187 1.954,11.955 1.798,11.711 1.695 L 11.548 1.626 8.487 1.616 C 6.804 1.610,5.199 1.615,4.920 1.625 M11.200 5.200 L 11.200 7.200 8.000 7.200 L 4.800 7.200 4.800 5.200 L 4.800 3.200 8.000 3.200 L 11.200 3.200 11.200 5.200 M5.600 6.000 L 5.600 6.400 7.200 6.400 L 8.800 6.400 8.800 6.000 L 8.800 5.600 7.200 5.600 L 5.600 5.600 5.600 6.000 M3.434 10.427 C 3.129 10.480,2.828 10.696,2.701 10.954 C 2.633 11.094,2.627 11.131,2.627 11.413 C 2.627 11.683,2.634 11.736,2.691 11.853 C 2.787 12.053,3.156 12.400,3.593 12.703 C 4.134 13.078,4.242 13.212,4.151 13.402 C 4.085 13.540,3.973 13.586,3.707 13.586 C 3.513 13.585,3.438 13.570,3.192 13.483 C 2.867 13.367,2.773 13.367,2.626 13.478 C 2.465 13.602,2.439 13.839,2.569 14.010 C 2.772 14.276,3.550 14.464,4.027 14.363 C 4.396 14.284,4.723 14.065,4.856 13.807 C 4.989 13.549,5.019 13.229,4.936 12.961 C 4.841 12.658,4.634 12.448,3.987 11.997 C 3.496 11.656,3.366 11.497,3.425 11.311 C 3.468 11.176,3.759 11.175,4.222 11.308 C 4.492 11.385,4.523 11.385,4.688 11.301 C 4.762 11.263,4.847 11.130,4.854 11.040 C 4.872 10.813,4.788 10.689,4.541 10.579 C 4.267 10.457,3.705 10.380,3.434 10.427 M5.693 10.413 C 5.679 10.418,5.634 10.429,5.594 10.438 C 5.555 10.447,5.480 10.498,5.428 10.551 L 5.333 10.648 5.333 12.394 L 5.333 14.139 5.414 14.241 C 5.536 14.395,5.633 14.407,6.682 14.396 C 7.535 14.387,7.572 14.384,7.645 14.331 C 7.756 14.248,7.822 14.118,7.820 13.987 C 7.818 13.845,7.785 13.782,7.667 13.692 L 7.574 13.621 6.854 13.607 L 6.133 13.592 6.133 13.158 L 6.133 12.724 6.660 12.715 C 7.248 12.706,7.320 12.687,7.404 12.526 C 7.468 12.404,7.464 12.205,7.396 12.113 C 7.275 11.951,7.209 11.934,6.647 11.925 L 6.133 11.916 6.133 11.560 L 6.133 11.203 6.807 11.195 C 7.429 11.187,7.487 11.183,7.573 11.132 C 7.694 11.061,7.775 10.876,7.749 10.734 C 7.723 10.599,7.587 10.457,7.453 10.426 C 7.357 10.404,5.757 10.392,5.693 10.413 M8.533 10.418 C 8.378 10.434,8.257 10.528,8.200 10.676 C 8.160 10.781,8.157 10.953,8.165 12.461 C 8.173 14.098,8.174 14.131,8.228 14.203 C 8.331 14.341,8.416 14.385,8.573 14.383 C 8.739 14.380,8.831 14.332,8.908 14.205 C 8.955 14.127,8.960 14.068,8.960 13.503 L 8.960 12.886 9.367 12.873 C 9.842 12.858,10.043 12.807,10.251 12.647 C 10.546 12.421,10.652 12.159,10.653 11.653 C 10.654 11.132,10.539 10.843,10.247 10.627 C 10.015 10.456,9.849 10.422,9.213 10.413 C 8.905 10.409,8.599 10.411,8.533 10.418 M11.907 10.442 C 11.863 10.465,11.807 10.502,11.782 10.524 C 11.731 10.571,11.450 11.269,10.961 12.570 C 10.564 13.627,10.453 13.943,10.453 14.026 C 10.453 14.136,10.538 14.267,10.652 14.334 C 10.859 14.455,11.057 14.398,11.182 14.182 C 11.218 14.118,11.312 13.896,11.391 13.687 L 11.533 13.307 12.001 13.307 L 12.468 13.307 12.584 13.660 C 12.755 14.181,12.806 14.278,12.943 14.345 C 13.006 14.375,13.084 14.400,13.116 14.400 C 13.201 14.400,13.372 14.306,13.437 14.225 C 13.547 14.085,13.539 14.035,13.283 13.240 C 12.952 12.210,12.433 10.676,12.384 10.581 C 12.340 10.497,12.166 10.401,12.053 10.401 C 12.017 10.401,11.951 10.419,11.907 10.442 M9.776 11.288 C 9.849 11.373,9.879 11.547,9.859 11.767 C 9.848 11.893,9.829 11.943,9.775 11.997 C 9.708 12.064,9.693 12.067,9.333 12.076 L 8.960 12.085 8.960 11.639 L 8.960 11.193 9.337 11.205 C 9.706 11.217,9.716 11.219,9.776 11.288 " fill="#1A1C1F" stroke="none" fill-rule="evenodd"></path></svg>