<svg xmlns="http://www.w3.org/2000/svg" width="12" height="12" fill="none"><g clip-path="url(#a)"><path fill="#1A1C1F" fill-rule="evenodd" d="M7.109 7.798c.577 0 .902.325.902.933 0 .575-.285.888-.807.921l-.095.003h-.38v.843a.3.3 0 0 1-.244.295l-.054.005a.3.3 0 0 1-.295-.246l-.005-.054v-2.4a.3.3 0 0 1 .246-.295l.054-.005zm-4.348 0c.263 0 .516.06.725.16a.3.3 0 0 1-.26.54 1.1 1.1 0 0 0-.465-.1c-.156 0-.204.043-.204.14 0 .113.07.203.3.365l.165.111c.524.341.722.544.722.962 0 .486-.404.822-.94.822-.285 0-.57-.08-.793-.213a.3.3 0 0 1 .075-.556.3.3 0 0 1 .232.041c.13.078.31.128.486.128.226 0 .34-.094.34-.222 0-.108-.068-.196-.294-.355l-.163-.11c-.53-.344-.73-.55-.73-.973 0-.445.33-.74.804-.74m2.764 0a.3.3 0 0 1 .054.595l-.054.005h-.928v.542h.705a.3.3 0 0 1 .054.596l-.054.005h-.705v.657h.98a.3.3 0 0 1 .296.246l.004.054a.3.3 0 0 1-.246.295l-.054.005h-1.28a.3.3 0 0 1-.295-.246l-.005-.054v-2.4a.3.3 0 0 1 .246-.295l.054-.005zm3.786.155.02.05.798 2.4a.3.3 0 0 1-.548.24l-.022-.05-.21-.635h-.687l-.244.646a.3.3 0 0 1-.335.19l-.052-.015a.3.3 0 0 1-.19-.335l.016-.052.91-2.4a.3.3 0 0 1 .544-.039m-2.202.445h-.38v.657h.38c.253 0 .3-.048.3-.324 0-.254-.046-.322-.242-.332zm1.288-7.2c.656 0 1.2.544 1.2 1.2v2.988c0 .656-.544 1.2-1.2 1.2H3.605c-.656 0-1.2-.544-1.2-1.2V2.398c0-.656.544-1.2 1.2-1.2zm.008 1.2h-4.8v3h4.8zm-1.8 1.8v.6h-2.4v-.6z" clip-rule="evenodd"/></g><defs><clipPath id="a"><path fill="#fff" d="M0 0h12v12H0z"/></clipPath></defs></svg>