<svg xmlns="http://www.w3.org/2000/svg" width="32" height="32" fill="none"><path fill="#1A1C1F" fill-rule="evenodd" d="M5.253 2.106c-.887.241-1.606.837-1.973 1.638-.296.647-.291.548-.292 6.767-.001 5.542.002 5.753.104 6.151.289 1.128 1.148 1.984 2.255 2.245.502.118 20.804.118 21.307-.001a3.08 3.08 0 0 0 2.278-2.332c.076-.345.083-1.03.07-6.254l-.015-5.867-.144-.393c-.266-.727-.795-1.349-1.433-1.685-.713-.374.14-.349-11.435-.345-8.624.003-10.502.016-10.722.076M26.44 4.113c.141.068.291.199.377.33l.143.216.015 5.71c.009 3.141.002 5.79-.016 5.885-.04.228-.315.537-.585.66-.205.093-.661.097-10.374.097s-10.169-.004-10.374-.097c-.27-.123-.545-.432-.585-.66-.018-.095-.025-2.744-.016-5.885l.015-5.71.142-.215a1.1 1.1 0 0 1 .374-.33L5.787 4h20.419zm-3.909 2.013c-.209.127-.44.403-.491.585-.022.078-.04.456-.04.84 0 .682.004.703.16.955.245.394.449.477 1.232.498.785.021 1.041-.038 1.308-.304.266-.267.325-.523.304-1.308-.021-.776-.1-.981-.464-1.213-.238-.15-.252-.152-1.044-.152-.688 0-.826.014-.965.099M7.6 13.089c-.32.143-.615.587-.612.923.002.336.33.795.655.918.103.039 1.806.056 5.36.055 4.942-.001 5.221-.006 5.424-.099.253-.116.367-.235.478-.5a1 1 0 0 0 0-.772c-.111-.265-.225-.384-.478-.5-.203-.093-.48-.098-5.44-.097-4.25 0-5.257.014-5.387.072m-1.8 7.982c-.567.134-1.077.559-1.34 1.116-.145.304-.167.415-.185.913-.042 1.208.289 1.732 1.875 2.969.435.339.874.713.975.831.491.574.317 1.224-.367 1.363-.392.081-.817-.002-1.378-.269-.523-.249-.761-.261-1.053-.052-.322.229-.418.85-.18 1.173.342.467 1.433.874 2.333.87 1.635-.007 2.737-1.278 2.489-2.871-.133-.858-.576-1.433-1.849-2.403-.62-.472-.984-.81-1.165-1.083-.134-.2-.119-.664.025-.808.104-.104.156-.112.574-.088.357.021.552.065.876.201.326.135.465.167.636.144.445-.06.699-.399.668-.893-.026-.402-.145-.546-.654-.795-.673-.329-1.654-.465-2.28-.318m4.597.063a1.1 1.1 0 0 0-.287.306c-.108.183-.11.266-.127 3.893-.012 2.562.001 3.791.042 3.978.071.33.319.595.622.665.312.073 3.538.064 3.758-.01.647-.217.791-1.108.245-1.509-.142-.103-.241-.112-1.6-.137l-1.45-.027-.014-1.053-.015-1.053 1.028-.001c.965-.001 1.04-.008 1.236-.12.524-.3.561-1.079.068-1.447-.14-.104-.23-.114-1.24-.129l-1.09-.016V22.72l1.294-.001c1.145-.001 1.318-.013 1.511-.101.498-.225.638-.922.269-1.33-.247-.271-.273-.275-2.236-.275-1.816 0-1.837.002-2.014.121m6.029-.023a.8.8 0 0 0-.306.331l-.12.234.001 3.842.001 3.842.119.21c.321.567 1.067.554 1.359-.023.115-.227.12-.29.12-1.633v-1.396l.867-.023c1.072-.029 1.344-.115 1.802-.573.516-.515.713-1.106.713-2.135 0-1.24-.353-2.036-1.097-2.472-.433-.254-.76-.302-2.07-.302-1.061 0-1.225.012-1.389.098m7.754.035a.9.9 0 0 0-.306.313c-.048.1-.71 1.829-1.473 3.843-.87 2.295-1.388 3.733-1.388 3.852 0 .612.75 1.042 1.311.751.286-.149.385-.324.781-1.372l.394-1.04 1.047-.014 1.047-.015.324 1.012c.338 1.052.451 1.263.765 1.425.207.107.613.109.815.004.299-.156.503-.465.503-.763 0-.174-2.479-7.641-2.589-7.796-.234-.333-.844-.432-1.231-.2m-5.092 1.651c.232.12.299.35.297 1.016-.004.917-.071.98-1.088 1.025l-.697.031V22.72h.669c.481 0 .712.022.819.077m5.715 2.31c.095.286.184.55.197.586.019.05-.085.067-.413.067-.396 0-.435-.009-.401-.093l.227-.587c.103-.271.195-.493.203-.493s.093.234.187.52"/></svg>