<svg xmlns="http://www.w3.org/2000/svg" width="20" height="20" fill="none"><g clip-path="url(#a)"><path fill="#1A1C1F" fill-rule="evenodd" d="m15.51 13.257.036.084 1.328 4a.5.5 0 0 1-.914.397l-.035-.083-.352-1.057H14.43l-.407 1.077a.5.5 0 0 1-.558.315l-.087-.024a.5.5 0 0 1-.314-.558l.024-.087 1.517-4a.5.5 0 0 1 .906-.064m-3.67-.259c.962 0 1.504.542 1.504 1.555 0 .958-.475 1.48-1.345 1.535l-.158.005h-.632l.001 1.405a.5.5 0 0 1-.41.492l-.09.008a.5.5 0 0 1-.492-.41l-.008-.09v-4a.5.5 0 0 1 .41-.492l.09-.008zm-7.245 0c.437 0 .858.1 1.207.267a.5.5 0 0 1-.435.9 1.8 1.8 0 0 0-.772-.167c-.26 0-.34.071-.34.233 0 .188.115.34.498.608l.276.186c.874.568 1.203.907 1.203 1.602 0 .812-.673 1.371-1.567 1.371a2.64 2.64 0 0 1-1.322-.355.5.5 0 1 1 .512-.859c.22.13.517.214.81.214.378 0 .567-.157.567-.37 0-.18-.113-.327-.49-.59l-.27-.184c-.885-.575-1.218-.918-1.218-1.623 0-.74.552-1.233 1.34-1.233zm4.606 0a.5.5 0 0 1 .09.992l-.09.008H7.654v.904H8.83a.5.5 0 0 1 .09.993l-.09.008H7.654v1.095H9.29a.5.5 0 0 1 .492.41l.008.09a.5.5 0 0 1-.41.492l-.09.008H7.155a.5.5 0 0 1-.492-.41l-.008-.09v-4a.5.5 0 0 1 .41-.492l.09-.008zm5.838 1.992-.23.608h.432zm-3.198-.992h-.632v1.095h.632c.421 0 .503-.08.503-.54 0-.423-.08-.537-.407-.553zm2.147-12c1.093 0 2 .906 2 2v4.98c0 1.094-.907 2-2 2H6.001c-1.094 0-2-.906-2-2v-4.98c0-1.094.906-2 2-2zm.013 2h-8v5h8zm-3 3v1h-4v-1z" clip-rule="evenodd"/></g><defs><clipPath id="a"><path fill="#fff" d="M0 0h20v20H0z"/></clipPath></defs></svg>