<svg width="32" height="32" viewBox="0 0 32 32" fill="none" xmlns="http://www.w3.org/2000/svg"><path d="M3.300 2.918 C 3.037 2.946,2.700 3.242,2.584 3.546 C 2.422 3.971,2.574 4.421,2.972 4.694 C 3.141 4.810,3.226 4.821,4.184 4.857 C 4.750 4.879,5.259 4.920,5.314 4.950 C 5.477 5.039,5.696 5.294,5.779 5.493 C 5.862 5.695,6.217 7.276,6.694 9.573 C 7.626 14.061,9.173 21.629,9.173 21.699 C 9.173 21.743,8.420 22.538,7.500 23.463 C 6.580 24.389,5.752 25.265,5.660 25.410 C 5.473 25.707,5.450 25.926,5.576 26.228 C 5.686 26.491,5.848 26.660,6.107 26.779 C 6.374 26.902,6.622 26.906,6.866 26.790 C 7.073 26.692,21.626 12.211,26.512 7.240 C 28.970 4.740,29.441 4.237,29.470 4.080 C 29.574 3.526,29.177 2.988,28.599 2.902 C 28.191 2.841,28.009 2.978,26.449 4.519 L 25.031 5.920 16.716 5.916 C 12.142 5.914,8.294 5.896,8.165 5.876 L 7.929 5.840 7.805 5.333 C 7.462 3.928,6.603 3.100,5.311 2.932 C 4.946 2.885,3.697 2.876,3.300 2.918 M27.617 9.000 L 26.355 10.267 25.899 12.053 C 25.317 14.334,25.154 14.896,25.018 15.087 C 24.808 15.381,24.524 15.437,22.000 15.683 L 20.827 15.797 19.720 16.898 C 19.111 17.503,18.613 18.015,18.613 18.034 C 18.613 18.054,18.703 18.059,18.813 18.047 C 18.923 18.034,20.009 17.916,21.227 17.784 C 24.962 17.378,25.085 17.360,25.533 17.138 C 25.977 16.919,26.573 16.397,26.816 16.014 C 27.041 15.660,27.757 13.095,28.554 9.787 C 28.948 8.149,29.022 7.733,28.920 7.733 C 28.897 7.733,28.311 8.303,27.617 9.000 M18.773 12.186 L 14.480 16.478 12.667 16.665 C 11.669 16.768,10.707 16.866,10.529 16.884 L 10.204 16.917 10.092 16.365 C 9.865 15.255,8.429 8.327,8.381 8.113 L 8.331 7.893 15.699 7.893 L 23.067 7.893 18.773 12.186 M11.556 19.402 C 11.079 19.879,10.920 20.009,10.884 19.952 C 10.810 19.834,10.645 18.990,10.688 18.948 C 10.729 18.907,12.117 18.729,12.158 18.759 C 12.171 18.769,11.900 19.059,11.556 19.402 M13.734 22.875 L 12.721 23.893 18.443 23.893 C 23.600 23.893,24.182 23.885,24.336 23.807 C 25.106 23.420,25.198 22.455,24.503 22.049 L 24.261 21.906 19.504 21.881 L 14.747 21.856 13.734 22.875 M10.958 26.030 C 10.390 26.306,10.078 26.766,10.038 27.390 C 10.003 27.930,10.122 28.263,10.476 28.617 C 11.130 29.270,12.081 29.280,12.741 28.639 C 13.096 28.295,13.197 28.046,13.199 27.520 C 13.200 27.155,13.176 27.019,13.079 26.821 C 12.918 26.495,12.620 26.201,12.293 26.047 C 11.941 25.880,11.283 25.872,10.958 26.030 M22.473 26.023 C 22.144 26.172,21.835 26.479,21.671 26.818 C 21.474 27.228,21.464 27.799,21.647 28.173 C 21.805 28.495,22.119 28.808,22.441 28.966 C 22.820 29.152,23.446 29.144,23.819 28.949 C 24.619 28.530,24.962 27.570,24.581 26.813 C 24.423 26.497,23.995 26.106,23.696 26.005 C 23.352 25.887,22.751 25.896,22.473 26.023 " fill="#1A1C1F" stroke="none" fill-rule="evenodd"></path></svg>