<svg xmlns="http://www.w3.org/2000/svg" width="12" height="12" fill="none"><g clip-path="url(#a)"><path fill="#1A1C1F" fill-rule="evenodd" d="M6 1.2c1.2 0 2.4.9 2.4 2.4h.844c.318 0 .58.244.6.562l.357 6a.614.614 0 0 1-.6.638H2.398a.61.61 0 0 1-.6-.638l.356-6a.597.597 0 0 1 .6-.562H3.6c0-1.5 1.106-2.4 2.4-2.4M4.8 5.4H3.6v.412C3.6 7.407 4.687 8.4 6 8.4s2.4-.994 2.4-2.588V5.4H7.2v.206C7.2 6.375 6.956 7.2 6 7.2c-.956 0-1.2-.825-1.2-1.594zm1.2-3c-.6 0-1.2.356-1.2 1.2h2.4c0-.844-.6-1.2-1.2-1.2" clip-rule="evenodd"/></g><defs><clipPath id="a"><path fill="#fff" d="M0 0h12v12H0z"/></clipPath></defs></svg>