<svg width="12" height="12" viewBox="0 0 12 12" fill="none" xmlns="http://www.w3.org/2000/svg"><path d="M5.570 1.233 C 4.847 1.348,4.186 1.819,3.867 2.446 C 3.721 2.735,3.629 3.073,3.607 3.402 L 3.594 3.594 3.092 3.604 C 2.624 3.614,2.584 3.617,2.503 3.659 C 2.396 3.713,2.260 3.846,2.215 3.941 C 2.166 4.046,2.080 5.222,1.930 7.870 C 1.805 10.083,1.799 10.301,1.858 10.433 C 1.912 10.550,2.030 10.674,2.149 10.737 L 2.250 10.790 6.000 10.790 L 9.750 10.790 9.836 10.744 C 9.967 10.674,10.073 10.568,10.133 10.447 L 10.186 10.337 10.174 9.923 C 10.148 9.076,9.937 5.501,9.849 4.400 C 9.814 3.966,9.800 3.919,9.667 3.786 C 9.503 3.622,9.477 3.616,8.905 3.604 L 8.400 3.594 8.400 3.490 C 8.400 3.199,8.240 2.647,8.078 2.377 C 7.761 1.848,7.243 1.457,6.640 1.289 C 6.468 1.241,6.411 1.235,6.040 1.230 C 5.815 1.226,5.603 1.228,5.570 1.233 M6.360 2.453 C 6.663 2.530,6.943 2.755,7.071 3.025 C 7.137 3.164,7.198 3.410,7.199 3.545 L 7.200 3.600 5.997 3.600 L 4.795 3.600 4.809 3.475 C 4.863 2.979,5.092 2.664,5.523 2.493 C 5.756 2.401,6.090 2.384,6.360 2.453 M4.800 5.615 C 4.800 6.036,4.908 6.488,5.065 6.723 C 5.316 7.098,5.785 7.272,6.268 7.170 C 6.555 7.109,6.778 6.955,6.946 6.700 C 7.096 6.472,7.200 6.030,7.200 5.615 L 7.200 5.400 7.803 5.400 L 8.406 5.400 8.394 5.775 C 8.375 6.333,8.318 6.624,8.152 7.000 C 7.844 7.699,7.231 8.200,6.500 8.349 C 5.891 8.474,5.201 8.347,4.707 8.021 C 4.175 7.670,3.804 7.114,3.671 6.470 C 3.636 6.305,3.601 5.850,3.600 5.575 L 3.600 5.400 4.200 5.400 L 4.800 5.400 4.800 5.615 " fill="#1A1C1F" stroke="none" fill-rule="evenodd"></path></svg>