<svg width="32" height="32" viewBox="0 0 32 32" fill="none" xmlns="http://www.w3.org/2000/svg"><path d="M3.517 2.926 C 2.843 3.071,2.555 3.946,2.996 4.506 C 3.199 4.765,3.409 4.815,4.455 4.855 C 5.498 4.895,5.636 4.930,5.878 5.218 C 5.949 5.303,6.036 5.442,6.070 5.526 C 6.137 5.690,6.724 8.468,7.946 14.400 C 9.340 21.165,9.499 21.867,9.767 22.437 C 10.039 23.014,10.864 23.626,11.600 23.795 C 11.790 23.839,13.674 23.863,18.143 23.878 C 24.333 23.899,24.422 23.898,24.628 23.793 C 25.068 23.568,25.274 23.184,25.210 22.708 C 25.175 22.443,25.050 22.265,24.750 22.053 L 24.524 21.893 18.302 21.878 C 14.232 21.867,12.032 21.843,11.940 21.807 C 11.624 21.684,11.473 21.442,11.311 20.796 C 11.102 19.970,10.911 18.991,10.950 18.953 C 10.990 18.913,12.150 18.782,17.520 18.210 C 25.722 17.338,25.493 17.371,26.109 16.971 C 26.504 16.714,27.038 16.148,27.200 15.814 C 27.346 15.513,27.424 15.227,28.318 11.733 C 29.216 8.221,29.259 8.015,29.186 7.587 C 29.076 6.939,28.713 6.442,28.103 6.107 L 27.813 5.948 18.002 5.921 L 8.191 5.893 8.144 5.680 C 8.037 5.192,7.822 4.544,7.693 4.321 C 7.370 3.764,6.769 3.281,6.117 3.054 C 5.782 2.937,5.636 2.922,4.725 2.904 C 4.165 2.893,3.621 2.903,3.517 2.926 M27.200 7.954 C 27.200 7.988,26.887 9.239,26.503 10.735 C 25.463 14.797,25.358 15.129,25.075 15.276 C 24.901 15.366,24.521 15.422,22.720 15.625 C 19.553 15.981,10.499 16.918,10.475 16.892 C 10.458 16.874,9.789 13.671,9.175 10.667 C 8.878 9.215,8.625 7.997,8.612 7.960 C 8.595 7.907,10.475 7.893,17.895 7.893 C 24.845 7.893,27.200 7.909,27.200 7.954 M23.026 25.928 C 22.549 26.032,22.122 26.387,21.912 26.853 C 21.749 27.216,21.745 27.816,21.904 28.168 C 22.039 28.467,22.366 28.805,22.678 28.969 C 22.866 29.068,22.988 29.089,23.366 29.086 C 23.922 29.082,24.201 28.968,24.534 28.607 C 25.071 28.024,25.147 27.252,24.730 26.627 C 24.379 26.103,23.631 25.796,23.026 25.928 M11.317 25.973 C 10.822 26.182,10.444 26.630,10.313 27.163 C 10.236 27.472,10.237 27.532,10.316 27.844 C 10.634 29.105,12.109 29.532,13.015 28.626 C 13.136 28.505,13.281 28.316,13.337 28.207 C 13.604 27.683,13.496 26.913,13.094 26.465 C 12.754 26.087,12.445 25.951,11.893 25.935 C 11.644 25.928,11.385 25.945,11.317 25.973 " fill="#1A1C1F" stroke="none" fill-rule="evenodd"></path></svg>