<svg xmlns="http://www.w3.org/2000/svg" width="20" height="20" fill="none"><g clip-path="url(#a)"><path fill="#1A1C1F" fill-rule="evenodd" d="M9.968 2.5c1.62 0 2.91.816 3.563 2.054l1.26-1.261a1 1 0 0 1 1.415 0c.36.36.43.984 0 1.414a20236 20236 0 0 1-12.5 12.5 1 1 0 0 1-1.415-1.414q.555-.56 1.115-1.117L2.02 7.699a1.01 1.01 0 0 1 .873-1.192l.114-.007H6c0-2.224 1.63-4 3.97-4m7.244 4.024c.44.1.893.556.768 1.175q-.776 3.994-1.559 7.987c-.086.43-.495.823-.998.814H7.235l2-2.001h5.378l1.277-6.653zM9.583 8.5h-5.35l.88 4.469 4.47-4.47m.416-4c-1.19 0-1.922.738-1.986 1.84l-.004.16 3.575-.001.385-.383C11.814 5.16 11.076 4.5 10 4.5" clip-rule="evenodd"/></g><defs><clipPath id="a"><path fill="#fff" d="M0 0h20v20H0z"/></clipPath></defs></svg>