<svg xmlns="http://www.w3.org/2000/svg" width="14" height="14" fill="none"><g clip-path="url(#a)"><path fill="#1A1C1F" fill-rule="evenodd" d="M7 1.4c1.4 0 2.8 1.05 2.8 2.8h.984c.372 0 .679.284.7.656l.416 7a.717.717 0 0 1-.7.744H2.8a.715.715 0 0 1-.7-.744l.416-7a.697.697 0 0 1 .7-.656h.983C4.199 2.45 5.49 1.4 7 1.4M5.6 6.3H4.2v.481C4.2 8.641 5.469 9.8 7 9.8s2.8-1.16 2.8-3.019V6.3H8.4v.24c0 .897-.284 1.86-1.4 1.86s-1.4-.963-1.4-1.86zM7 2.8c-.7 0-1.4.416-1.4 1.4h2.8c0-.984-.7-1.4-1.4-1.4" clip-rule="evenodd"/></g><defs><clipPath id="a"><path fill="#fff" d="M0 0h14v14H0z"/></clipPath></defs></svg>