<svg width="14" height="14" viewBox="0 0 14 14" fill="none" xmlns="http://www.w3.org/2000/svg"><path d="M6.605 2.126 C 6.166 2.178,5.631 2.392,5.283 2.655 C 4.961 2.898,4.689 3.225,4.505 3.589 C 4.340 3.916,4.201 4.466,4.200 4.789 L 4.200 4.900 3.226 4.900 C 2.046 4.901,1.880 4.914,1.723 5.021 C 1.603 5.103,1.500 5.231,1.445 5.367 C 1.372 5.547,1.389 5.644,2.101 9.202 C 2.577 11.584,2.572 11.561,2.747 11.715 C 2.790 11.753,2.877 11.810,2.940 11.842 L 3.055 11.900 7.006 11.900 L 10.958 11.900 11.078 11.840 C 11.144 11.807,11.250 11.723,11.314 11.654 C 11.422 11.536,11.433 11.511,11.488 11.276 C 11.558 10.980,11.905 9.255,12.204 7.723 C 12.590 5.742,12.623 5.519,12.547 5.339 C 12.494 5.215,12.329 5.045,12.193 4.977 L 12.076 4.917 10.941 4.905 L 9.806 4.893 9.793 4.703 C 9.737 3.909,9.360 3.164,8.792 2.725 C 8.447 2.458,8.154 2.309,7.773 2.207 C 7.490 2.131,6.902 2.090,6.605 2.126 M7.408 3.559 C 7.768 3.653,8.076 3.903,8.236 4.231 C 8.321 4.407,8.400 4.699,8.400 4.841 L 8.400 4.900 7.001 4.900 L 5.602 4.900 5.615 4.777 C 5.672 4.239,5.908 3.861,6.310 3.662 C 6.420 3.607,6.574 3.553,6.674 3.534 C 6.879 3.495,7.206 3.507,7.408 3.559 M11.020 6.376 C 11.012 6.418,10.830 7.360,10.617 8.470 L 10.229 10.488 7.010 10.494 L 3.792 10.500 3.386 8.441 C 3.163 7.308,2.980 6.371,2.978 6.358 C 2.976 6.346,3.054 6.329,3.150 6.322 C 3.246 6.314,5.060 6.307,7.180 6.304 L 11.035 6.300 11.020 6.376 " fill="#1A1C1F" stroke="none" fill-rule="evenodd"></path></svg>