<svg xmlns="http://www.w3.org/2000/svg" width="32" height="32" fill="none"><path fill="#1A1C1F" fill-rule="evenodd" d="M15.28 3.02c-3.216.352-5.816 2.437-6.824 5.473-.242.727-.351 1.28-.388 1.971l-.03.571-2.193.016-2.192.016-.305.149c-.623.306-1.087.964-1.145 1.624-.023.252.202 1.518 1.259 7.08.707 3.725 1.337 6.917 1.398 7.093a3.1 3.1 0 0 0 1.484 1.678c.68.341.117.322 9.742.322 9.539 0 9.014.017 9.643-.299.586-.295 1.096-.852 1.362-1.491.128-.306.398-1.658 1.44-7.202.705-3.754 1.282-6.927 1.282-7.052 0-.293-.179-.82-.375-1.106-.199-.289-.608-.588-.982-.72-.271-.095-.454-.103-2.367-.103h-2.073l-.036-.512c-.143-2.029-.966-3.835-2.386-5.235a7.96 7.96 0 0 0-4.042-2.151c-.502-.1-1.824-.171-2.272-.122m1.802 2.073c1.465.255 2.893 1.171 3.783 2.427.653.922 1.108 2.25 1.108 3.234v.286H10.026l.03-.387c.017-.212.067-.578.112-.813.442-2.338 2.289-4.229 4.605-4.713.628-.131 1.663-.147 2.309-.034m10.685 8.094c-1.954 10.58-2.443 13.135-2.553 13.331a1.1 1.1 0 0 1-.36.354l-.241.141H16.08c-4.693 0-8.6-.018-8.681-.041-.191-.053-.543-.371-.62-.559-.043-.106-1.938-9.954-2.54-13.2l-.038-.2h23.598z"/></svg>