<svg width="20" height="20" viewBox="0 0 20 20" fill="none" xmlns="http://www.w3.org/2000/svg"><path d="M9.583 2.023 C 9.121 2.065,8.530 2.234,8.117 2.441 C 7.185 2.909,6.467 3.767,6.183 4.750 C 6.088 5.081,6.001 5.599,6.000 5.837 L 6.000 5.990 5.153 6.008 L 4.306 6.026 4.133 6.120 C 3.949 6.220,3.770 6.404,3.688 6.579 C 3.657 6.644,3.618 6.928,3.586 7.333 C 3.438 9.170,3.087 15.136,3.044 16.533 C 3.024 17.193,3.026 17.223,3.099 17.391 C 3.182 17.584,3.382 17.787,3.605 17.906 L 3.750 17.983 10.000 17.983 L 16.250 17.983 16.393 17.907 C 16.607 17.792,16.786 17.616,16.881 17.425 C 16.957 17.273,16.967 17.213,16.967 16.895 C 16.967 16.122,16.600 9.721,16.431 7.552 C 16.357 6.595,16.343 6.542,16.112 6.311 C 15.840 6.038,15.798 6.028,14.844 6.008 L 14.000 5.990 14.000 5.834 C 14.000 5.611,13.877 4.960,13.781 4.675 C 13.426 3.617,12.690 2.798,11.701 2.362 C 11.081 2.088,10.279 1.960,9.583 2.023 M10.817 4.133 C 11.509 4.400,11.895 4.943,11.984 5.778 L 12.008 6.000 10.000 6.000 L 7.991 6.000 8.014 5.792 C 8.111 4.912,8.538 4.349,9.300 4.094 C 9.456 4.042,9.568 4.035,10.050 4.044 C 10.546 4.054,10.642 4.065,10.817 4.133 M14.445 8.034 C 14.455 8.044,14.561 9.731,14.680 11.784 C 14.800 13.837,14.907 15.625,14.919 15.758 L 14.939 16.000 10.000 16.000 L 5.061 16.000 5.081 15.758 C 5.100 15.544,5.533 8.130,5.533 8.034 C 5.533 8.005,6.632 7.998,9.981 8.006 C 12.427 8.012,14.436 8.025,14.445 8.034 M7.011 10.758 C 7.023 11.218,7.051 11.604,7.080 11.738 C 7.194 12.260,7.561 12.905,7.942 13.251 C 8.620 13.868,9.676 14.127,10.700 13.928 C 11.621 13.749,12.378 13.120,12.762 12.217 C 12.922 11.838,12.970 11.528,12.991 10.725 L 13.010 10.000 12.010 10.000 L 11.010 10.000 10.991 10.634 C 10.975 11.181,10.962 11.288,10.903 11.409 C 10.799 11.625,10.658 11.776,10.462 11.883 C 10.304 11.969,10.251 11.980,10.000 11.980 C 9.672 11.979,9.517 11.917,9.300 11.700 C 9.053 11.453,9.032 11.375,9.009 10.647 L 8.990 10.000 7.990 10.000 L 6.990 10.000 7.011 10.758 " fill="#1A1C1F" stroke="none" fill-rule="evenodd"></path></svg>