<svg xmlns="http://www.w3.org/2000/svg" width="16" height="16" fill="none"><g clip-path="url(#a)"><path fill="#1A1C1F" fill-rule="evenodd" d="M8 1.6c1.8 0 3.175 1.3 3.2 3.2h1.125c.425 0 .775.325.8.75l.475 8c.025.45-.35.85-.8.85H3.2c-.45 0-.825-.4-.8-.85l.475-8a.796.796 0 0 1 .8-.75H4.8c0-1.9 1.4-3.2 3.2-3.2m3.575 4.8h-7.15l-.375 6.4h7.9zM8 3.2c-1.175 0-1.6.8-1.6 1.6h3.2c0-.8-.4-1.6-1.6-1.6M8.8 8v.8c0 .45-.35.8-.8.8a.79.79 0 0 1-.8-.8V8H5.6v.8c0 1.2.8 2.4 2.4 2.4s2.4-1.2 2.4-2.4V8z" clip-rule="evenodd"/></g><defs><clipPath id="a"><path fill="#fff" d="M0 0h16v16H0z"/></clipPath></defs></svg>