<svg width="16" height="16" viewBox="0 0 16 16" fill="none" xmlns="http://www.w3.org/2000/svg"><path d="M7.595 1.627 C 6.525 1.750,5.606 2.370,5.146 3.280 C 4.962 3.645,4.800 4.287,4.800 4.652 L 4.800 4.792 4.123 4.806 L 3.445 4.821 3.306 4.896 C 3.159 4.976,3.016 5.124,2.951 5.263 C 2.884 5.404,2.837 6.064,2.574 10.547 C 2.421 13.161,2.400 13.616,2.425 13.747 C 2.468 13.979,2.641 14.199,2.880 14.324 L 3.000 14.387 8.000 14.387 L 13.000 14.387 13.115 14.326 C 13.290 14.232,13.431 14.090,13.510 13.929 L 13.582 13.782 13.565 13.231 C 13.530 12.101,13.250 7.335,13.131 5.867 C 13.085 5.288,13.066 5.225,12.890 5.049 C 12.672 4.831,12.638 4.822,11.879 4.806 L 11.207 4.792 11.191 4.561 C 11.135 3.770,10.827 3.088,10.281 2.547 C 9.819 2.089,9.252 1.789,8.617 1.669 C 8.346 1.617,7.854 1.597,7.595 1.627 M8.480 3.271 C 8.892 3.375,9.254 3.667,9.428 4.035 C 9.516 4.219,9.597 4.547,9.599 4.727 L 9.600 4.800 7.997 4.800 L 6.393 4.800 6.411 4.633 C 6.484 3.972,6.789 3.553,7.364 3.324 C 7.675 3.201,8.121 3.179,8.480 3.271 M6.401 7.487 C 6.402 8.021,6.476 8.390,6.654 8.760 C 6.838 9.144,7.113 9.395,7.490 9.526 C 7.745 9.614,8.255 9.614,8.510 9.526 C 9.218 9.281,9.596 8.574,9.599 7.487 L 9.600 7.200 10.404 7.200 L 11.208 7.200 11.192 7.700 C 11.166 8.489,11.069 8.936,10.813 9.453 C 10.546 9.994,10.168 10.417,9.677 10.726 C 8.664 11.363,7.265 11.348,6.259 10.687 C 5.804 10.388,5.391 9.904,5.149 9.384 C 4.923 8.898,4.832 8.448,4.808 7.700 L 4.792 7.200 5.596 7.200 L 6.400 7.200 6.401 7.487 " fill="#1A1C1F" stroke="none" fill-rule="evenodd"></path></svg>