<svg width="16" height="16" viewBox="0 0 16 16" fill="none" xmlns="http://www.w3.org/2000/svg"><path d="M7.680 2.418 C 6.986 2.510,6.489 2.698,6.028 3.042 C 5.536 3.409,5.185 3.907,4.973 4.541 C 4.879 4.824,4.800 5.243,4.800 5.469 L 4.800 5.592 3.493 5.607 C 1.993 5.624,2.062 5.613,1.816 5.882 C 1.520 6.206,1.489 5.958,2.388 10.451 C 2.951 13.265,2.938 13.215,3.151 13.397 C 3.205 13.444,3.304 13.509,3.369 13.542 L 3.489 13.601 8.004 13.594 L 12.520 13.587 12.672 13.512 C 12.860 13.420,13.049 13.216,13.104 13.046 C 13.166 12.856,14.249 7.299,14.360 6.606 C 14.405 6.326,14.392 6.220,14.293 6.027 C 14.229 5.903,14.068 5.753,13.920 5.679 C 13.802 5.619,13.783 5.618,12.500 5.606 L 11.200 5.593 11.200 5.440 C 11.200 5.077,11.050 4.519,10.839 4.093 C 10.402 3.212,9.498 2.572,8.527 2.456 C 8.282 2.427,7.783 2.404,7.680 2.418 M8.333 4.040 C 8.811 4.125,9.207 4.417,9.413 4.835 C 9.513 5.036,9.600 5.365,9.600 5.536 L 9.600 5.600 8.005 5.600 L 6.411 5.600 6.429 5.407 C 6.454 5.152,6.493 5.013,6.602 4.797 C 6.905 4.194,7.570 3.904,8.333 4.040 M12.594 7.287 C 12.585 7.334,12.378 8.411,12.134 9.680 L 11.691 11.987 8.012 11.993 L 4.333 12.000 3.873 9.647 C 3.619 8.352,3.412 7.279,3.413 7.261 C 3.413 7.240,3.479 7.226,3.607 7.220 C 3.713 7.215,5.783 7.208,8.206 7.205 L 12.612 7.200 12.594 7.287 " fill="#1A1C1F" stroke="none" fill-rule="evenodd"></path></svg>