<svg xmlns="http://www.w3.org/2000/svg" width="28" height="28" fill="none"><g clip-path="url(#a)"><path fill="#1A1C1F" fill-rule="evenodd" d="M14.014 2.613c3.866 0 6.98 3.142 6.98 7.036h3.337a1.745 1.745 0 0 1 1.724 2.057l-2.168 11.542c-.222 1.195-1.223 2.14-2.42 2.14H6.728a2.63 2.63 0 0 1-2.585-2.14L1.945 11.705a1.747 1.747 0 0 1 1.724-2.056h3.365c0-3.866 3.115-7.035 6.98-7.035m10.317 8.76H3.669l2.198 11.54a.89.89 0 0 0 .862.723h14.6a.89.89 0 0 0 .862-.723zM14.014 4.365c-2.892 0-5.228 2.364-5.228 5.284h10.456c0-2.892-2.336-5.284-5.228-5.284" clip-rule="evenodd"/></g><defs><clipPath id="a"><path fill="#fff" d="M0 0h28v28H0z"/></clipPath></defs></svg>