<svg width="14" height="14" viewBox="0 0 14 14" fill="none" xmlns="http://www.w3.org/2000/svg"><path d="M6.637 1.426 C 5.751 1.519,4.940 2.057,4.531 2.823 C 4.360 3.142,4.230 3.614,4.206 3.992 L 4.194 4.193 3.606 4.206 C 2.942 4.220,2.912 4.227,2.721 4.417 C 2.560 4.579,2.550 4.616,2.498 5.286 C 2.381 6.796,2.123 11.293,2.124 11.825 C 2.124 12.038,2.132 12.092,2.178 12.192 C 2.239 12.321,2.372 12.453,2.525 12.535 L 2.625 12.588 7.000 12.588 L 11.375 12.588 11.475 12.535 C 11.629 12.453,11.752 12.329,11.821 12.188 L 11.884 12.060 11.869 11.576 C 11.837 10.562,11.594 6.418,11.490 5.133 C 11.449 4.627,11.433 4.572,11.279 4.417 C 11.088 4.227,11.058 4.220,10.394 4.206 L 9.807 4.193 9.792 3.991 C 9.763 3.586,9.586 3.023,9.382 2.695 C 8.928 1.960,8.201 1.517,7.302 1.424 C 7.036 1.397,6.909 1.397,6.637 1.426 M7.410 2.849 C 7.949 2.947,8.320 3.400,8.389 4.045 L 8.405 4.200 7.000 4.200 L 5.594 4.200 5.610 4.054 C 5.679 3.430,6.012 3.001,6.540 2.859 C 6.688 2.819,7.214 2.813,7.410 2.849 M10.112 5.624 C 10.119 5.631,10.193 6.812,10.276 8.249 C 10.360 9.686,10.435 10.938,10.443 11.031 L 10.457 11.200 7.000 11.200 L 3.543 11.200 3.558 11.019 C 3.570 10.872,3.873 5.696,3.873 5.642 C 3.873 5.634,3.902 5.622,3.938 5.616 C 4.029 5.601,10.097 5.609,10.112 5.624 M4.907 7.531 C 4.916 7.858,4.935 8.121,4.956 8.217 C 5.037 8.583,5.293 9.033,5.560 9.276 C 5.986 9.663,6.595 9.845,7.253 9.780 C 8.037 9.703,8.638 9.265,8.934 8.554 C 9.053 8.268,9.077 8.114,9.093 7.531 L 9.107 7.000 8.407 7.000 L 7.707 7.000 7.694 7.452 C 7.682 7.851,7.675 7.915,7.631 8.001 C 7.567 8.126,7.426 8.267,7.298 8.333 C 7.165 8.403,6.844 8.408,6.720 8.343 C 6.578 8.269,6.477 8.175,6.398 8.043 L 6.321 7.915 6.307 7.458 L 6.293 7.000 5.593 7.000 L 4.893 7.000 4.907 7.531 " fill="#1A1C1F" stroke="none" fill-rule="evenodd"></path></svg>