<svg width="20" height="20" viewBox="0 0 20 20" fill="none" xmlns="http://www.w3.org/2000/svg"><path d="M9.533 3.025 C 8.730 3.081,7.816 3.499,7.189 4.097 C 6.521 4.733,6.075 5.720,6.010 6.703 L 5.991 6.990 4.363 7.008 C 2.493 7.029,2.578 7.015,2.270 7.352 C 1.900 7.757,1.865 7.476,2.988 13.080 C 3.684 16.553,3.674 16.516,3.924 16.736 C 3.986 16.789,4.110 16.871,4.200 16.917 L 4.364 17.000 10.007 16.999 C 15.516 16.999,15.653 16.997,15.792 16.934 C 16.012 16.834,16.288 16.555,16.347 16.372 C 16.434 16.104,17.110 12.731,17.715 9.550 C 17.986 8.121,18.009 7.958,17.964 7.791 C 17.880 7.480,17.687 7.242,17.401 7.099 C 17.255 7.026,17.226 7.025,15.626 7.007 L 14.000 6.990 14.000 6.799 C 14.000 6.404,13.807 5.660,13.581 5.182 C 13.045 4.049,11.895 3.217,10.659 3.070 C 10.346 3.032,9.757 3.009,9.533 3.025 M10.417 5.050 C 11.015 5.156,11.511 5.522,11.765 6.044 C 11.888 6.296,12.000 6.712,12.000 6.915 L 12.000 7.000 10.002 7.000 L 8.003 7.000 8.022 6.825 C 8.078 6.297,8.242 5.903,8.542 5.581 C 8.979 5.111,9.666 4.916,10.417 5.050 M15.743 9.108 C 15.731 9.168,15.472 10.514,15.167 12.100 L 14.613 14.983 10.015 14.992 L 5.417 15.000 4.841 12.058 C 4.524 10.440,4.265 9.099,4.266 9.076 C 4.266 9.050,4.349 9.032,4.508 9.025 C 4.641 9.018,7.228 9.010,10.257 9.007 L 15.765 9.000 15.743 9.108 " fill="#1A1C1F" stroke="none" fill-rule="evenodd"></path></svg>