<svg width="24" height="24" viewBox="0 0 24 24" fill="none" xmlns="http://www.w3.org/2000/svg"><path d="M11.380 2.042 C 10.628 2.118,9.777 2.387,9.098 2.763 C 7.850 3.454,6.810 4.676,6.358 5.980 C 6.137 6.616,6.000 7.318,6.000 7.809 L 6.000 8.000 4.690 8.001 C 2.897 8.003,2.721 8.032,2.379 8.389 C 2.214 8.560,2.043 8.953,2.018 9.221 C 1.993 9.474,2.177 10.626,3.159 16.375 L 3.603 18.969 2.931 19.655 C 2.562 20.032,2.208 20.417,2.144 20.511 C 2.006 20.714,1.967 20.998,2.040 21.261 C 2.101 21.479,2.350 21.772,2.575 21.890 C 2.796 22.006,3.196 22.012,3.416 21.903 C 3.584 21.819,15.932 9.529,19.458 5.937 C 21.549 3.805,21.520 3.840,21.520 3.455 C 21.519 3.097,21.313 2.763,20.986 2.590 C 20.764 2.473,20.330 2.468,20.101 2.580 C 20.005 2.627,19.426 3.168,18.638 3.947 L 17.335 5.237 17.179 4.971 C 16.353 3.558,14.874 2.492,13.260 2.146 C 12.799 2.047,11.849 1.994,11.380 2.042 M12.900 4.117 C 13.589 4.284,14.203 4.619,14.730 5.118 C 15.133 5.499,15.487 6.002,15.681 6.470 L 15.807 6.772 15.194 7.386 L 14.581 8.000 11.286 8.000 L 7.991 8.000 8.018 7.690 C 8.087 6.928,8.316 6.299,8.745 5.692 C 9.371 4.809,10.383 4.192,11.459 4.039 C 11.809 3.989,12.531 4.028,12.900 4.117 M19.843 10.224 C 19.192 14.144,18.483 18.319,18.354 19.000 C 18.216 19.729,18.167 19.861,18.008 19.932 C 17.926 19.968,16.732 19.983,13.058 19.991 L 8.216 20.003 7.218 21.003 L 6.220 22.002 12.260 21.990 L 18.300 21.979 18.609 21.866 C 19.321 21.606,19.870 21.076,20.113 20.413 C 20.160 20.285,20.299 19.606,20.421 18.904 C 20.775 16.862,21.785 10.768,21.901 9.972 C 22.001 9.284,22.003 9.232,21.945 9.031 C 21.871 8.776,21.677 8.472,21.505 8.341 C 21.221 8.125,20.981 8.039,20.590 8.014 L 20.215 7.989 19.843 10.224 M9.840 12.743 C 6.981 15.604,5.370 17.184,5.341 17.154 C 5.331 17.144,5.061 15.580,4.741 13.678 C 4.421 11.776,4.150 10.181,4.139 10.133 C 4.124 10.066,4.141 10.041,4.210 10.028 C 4.259 10.019,6.163 10.008,8.440 10.005 L 12.580 10.000 9.840 12.743 " fill="#1A1C1F" stroke="none" fill-rule="evenodd"></path></svg>