<svg xmlns="http://www.w3.org/2000/svg" width="12" height="12" fill="none"><g clip-path="url(#a)"><path fill="#1A1C1F" fill-rule="evenodd" d="M5.98 1.8c1.423 0 2.414 1.034 2.414 2.387h1.796a.62.62 0 0 1 .598.733l-.935 4.79a.62.62 0 0 1-.598.49h-6.51a.6.6 0 0 1-.58-.49l-.953-4.79a.62.62 0 0 1 .598-.733h1.796c0-1.335.972-2.387 2.375-2.387M6 3c-.748 0-1.197.507-1.197 1.203h2.394C7.197 3.507 6.73 3 6 3" clip-rule="evenodd"/></g><defs><clipPath id="a"><path fill="#fff" d="M0 0h12v12H0z"/></clipPath></defs></svg>