<svg xmlns="http://www.w3.org/2000/svg" width="20" height="20" fill="none"><g clip-path="url(#a)"><path fill="#1A1C1F" fill-rule="evenodd" d="M10 2c2.25 0 3.97 1.625 4 4h1.407a.995.995 0 0 1 1 .938l.593 10A1.024 1.024 0 0 1 16 18H4c-.562 0-1.03-.5-1-1.063l.594-10a.995.995 0 0 1 1-.937H6c0-2.375 1.75-4 4-4m4.47 6H5.531l-.469 8h9.875l-.469-8zM10 4C8.53 4 8 5 8 6h4c0-1-.5-2-2-2m1 6v1c0 .563-.438 1-1 1s-1-.438-1-1v-1H7v1c0 1.5 1 3 3 3s3-1.5 3-3v-1z" clip-rule="evenodd"/></g><defs><clipPath id="a"><path fill="#fff" d="M0 0h20v20H0z"/></clipPath></defs></svg>