<svg xmlns="http://www.w3.org/2000/svg" width="16" height="16" fill="none"><g clip-path="url(#a)"><path fill="#1A1C1F" fill-rule="evenodd" d="M7.975 2c1.302 0 2.333.65 2.852 1.642l1.007-1.008a.8.8 0 1 1 1.132 1.132q-4.999 5.002-10 10a.8.8 0 0 1-1.132 0c-.289-.29-.333-.772 0-1.132q.444-.45.892-.893l-1.11-5.582c-.1-.5.3-.977.797-.977h2.395C4.808 3.402 6.105 2 7.975 2m5.808 3.207a.83.83 0 0 1 .602.952l-1.247 6.39a.83.83 0 0 1-.798.65H5.79zM8 3.6c-.998 0-1.596.677-1.596 1.604h2.86l.308-.307C9.45 4.13 8.862 3.6 8 3.6" clip-rule="evenodd"/></g><defs><clipPath id="a"><path fill="#fff" d="M0 0h16v16H0z"/></clipPath></defs></svg>