<svg xmlns="http://www.w3.org/2000/svg" width="14" height="14" fill="none"><g clip-path="url(#a)"><path fill="#1A1C1F" fill-rule="evenodd" d="M5.768 11.195a.87.87 0 0 1-.077 1.148.88.88 0 0 1-1.151.082zm4.03-.345c.48 0 .875.394.875.875a.877.877 0 0 1-.875.875.88.88 0 0 1-.875-.875c0-.481.394-.875.875-.875M2.732 1.4c.657 0 1.182.46 1.335 1.116l.065.284h6.073l.864-.864.339-.334a.7.7 0 0 1 .99.006c.25.255.296.707-.007.99q-.166.167-9.096 9.099a.7.7 0 0 1-.99-.99q.772-.777 1.546-1.549L2.711 2.8h-.613a.705.705 0 0 1-.7-.7c0-.372.328-.7.7-.7zm7.416 7.7c.394 0 .7.306.7.7 0 .328-.306.7-.7.7H6.463l1.4-1.4zm1.749-4.033-.415 1.78c-.13.525-.525 1.028-1.225 1.094l-1.362.127zM8.805 4.2H4.373l.525 2.844 1.18-.115z" clip-rule="evenodd"/></g><defs><clipPath id="a"><path fill="#fff" d="M0 0h14v14H0z"/></clipPath></defs></svg>