<svg width="20" height="20" viewBox="0 0 20 20" fill="none" xmlns="http://www.w3.org/2000/svg"><path d="M9.121 2.585 C 7.725 2.863,6.581 3.910,6.187 5.273 C 6.104 5.559,6.000 6.165,6.000 6.358 L 6.000 6.458 4.390 6.473 L 2.779 6.489 2.599 6.586 C 2.215 6.793,2.035 7.064,2.034 7.440 C 2.033 7.752,2.120 8.230,2.802 11.656 L 3.404 14.678 2.889 15.198 C 2.235 15.858,2.087 16.042,2.033 16.266 C 1.887 16.876,2.322 17.446,2.968 17.492 C 3.256 17.513,3.353 17.461,3.856 17.011 C 4.294 16.618,13.301 7.634,15.073 5.821 C 15.931 4.944,16.360 4.481,16.403 4.388 C 16.481 4.216,16.487 3.870,16.415 3.660 C 16.346 3.457,16.180 3.269,15.962 3.149 C 15.801 3.060,15.754 3.050,15.483 3.050 C 15.240 3.050,15.158 3.064,15.050 3.122 C 14.977 3.161,14.611 3.488,14.237 3.847 C 13.863 4.206,13.548 4.500,13.536 4.500 C 13.525 4.500,13.436 4.379,13.338 4.231 C 12.774 3.378,11.822 2.765,10.776 2.583 C 10.415 2.520,9.443 2.521,9.121 2.585 M10.583 4.585 C 11.220 4.750,11.747 5.279,11.913 5.917 L 11.965 6.117 11.775 6.308 L 11.585 6.500 9.789 6.500 L 7.993 6.500 8.018 6.292 C 8.072 5.821,8.196 5.508,8.457 5.185 C 8.724 4.855,9.144 4.620,9.625 4.532 C 9.836 4.494,10.341 4.522,10.583 4.585 M17.162 6.639 C 17.082 6.696,14.819 8.938,12.133 11.621 L 7.250 16.499 11.450 16.499 C 16.234 16.498,15.766 16.529,16.117 16.196 C 16.256 16.065,16.313 15.982,16.351 15.853 C 16.486 15.399,17.839 8.536,17.964 7.667 C 18.034 7.183,17.843 6.811,17.412 6.589 C 17.310 6.537,17.304 6.538,17.162 6.639 " fill="#1A1C1F" stroke="none" fill-rule="evenodd"></path></svg>