<svg width="28" height="28" viewBox="0 0 28 28" fill="none" xmlns="http://www.w3.org/2000/svg"><path d="M13.440 2.222 C 12.260 2.354,11.124 2.911,10.263 3.778 C 9.444 4.603,8.971 5.590,8.787 6.860 L 8.706 7.420 7.608 7.423 C 6.093 7.428,5.840 7.455,5.615 7.634 C 5.332 7.859,5.266 8.045,5.220 8.743 C 5.170 9.494,4.671 18.988,4.497 22.517 L 4.370 25.083 4.467 25.302 C 4.533 25.449,4.630 25.563,4.764 25.652 L 4.963 25.783 13.974 25.796 L 22.984 25.809 23.176 25.685 C 23.398 25.541,23.614 25.234,23.613 25.062 C 23.611 24.849,23.391 20.394,23.077 14.233 C 22.781 8.427,22.764 8.182,22.666 7.983 C 22.609 7.870,22.483 7.713,22.385 7.634 C 22.160 7.455,21.908 7.428,20.391 7.423 L 19.293 7.420 19.193 6.778 C 18.991 5.488,18.552 4.591,17.714 3.753 C 16.955 2.993,15.875 2.427,14.931 2.293 C 14.527 2.236,13.677 2.195,13.440 2.222 M14.737 4.039 C 15.217 4.137,15.861 4.454,16.262 4.792 C 16.862 5.297,17.323 6.132,17.448 6.939 C 17.477 7.124,17.500 7.307,17.500 7.347 C 17.500 7.412,17.138 7.420,14.000 7.420 L 10.500 7.420 10.500 7.307 C 10.500 7.082,10.637 6.486,10.761 6.175 C 11.102 5.316,11.696 4.683,12.530 4.290 C 13.190 3.979,13.989 3.888,14.737 4.039 M21.047 9.332 C 21.047 9.408,21.193 12.238,21.371 15.620 C 21.804 23.836,21.811 23.984,21.772 24.023 C 21.728 24.068,6.271 24.067,6.226 24.022 C 6.207 24.003,6.238 23.079,6.294 21.969 C 6.376 20.351,6.794 12.401,6.935 9.765 L 6.966 9.193 14.006 9.193 L 21.047 9.193 21.047 9.332 M9.260 11.033 C 9.073 11.114,8.848 11.390,8.778 11.624 C 8.736 11.763,8.735 11.922,8.773 12.268 C 8.917 13.579,9.453 14.683,10.375 15.572 C 10.986 16.161,11.569 16.518,12.338 16.776 C 13.391 17.130,14.250 17.155,15.351 16.866 C 17.490 16.305,19.104 14.353,19.213 12.197 C 19.243 11.595,19.226 11.495,19.054 11.290 C 18.807 10.997,18.376 10.892,18.024 11.039 C 17.672 11.186,17.537 11.433,17.476 12.040 C 17.336 13.441,16.525 14.555,15.290 15.047 C 14.275 15.450,13.126 15.360,12.206 14.805 C 11.254 14.231,10.643 13.227,10.524 12.040 C 10.484 11.643,10.382 11.331,10.253 11.209 C 10.012 10.983,9.559 10.902,9.260 11.033 " fill="#1A1C1F" stroke="none" fill-rule="evenodd"></path></svg>