<svg width="16" height="16" viewBox="0 0 16 16" fill="none" xmlns="http://www.w3.org/2000/svg"><path d="M2.293 1.624 C 2.017 1.663,1.788 1.841,1.667 2.111 C 1.605 2.250,1.595 2.300,1.607 2.437 C 1.631 2.732,1.820 3.010,2.080 3.131 C 2.183 3.178,2.263 3.188,2.635 3.195 C 3.051 3.204,3.071 3.207,3.095 3.262 C 3.108 3.294,3.281 4.226,3.479 5.333 C 3.677 6.441,3.965 8.048,4.118 8.905 L 4.398 10.464 3.458 11.412 C 2.870 12.006,2.499 12.400,2.467 12.467 C 2.403 12.600,2.382 12.917,2.428 13.058 C 2.523 13.351,2.781 13.562,3.101 13.608 C 3.281 13.634,3.307 13.631,3.415 13.579 C 3.480 13.547,3.677 13.393,3.853 13.236 C 4.238 12.893,10.349 6.800,12.669 4.447 C 14.280 2.812,14.319 2.770,14.362 2.623 C 14.438 2.361,14.372 2.088,14.182 1.880 C 14.013 1.695,13.837 1.617,13.587 1.616 C 13.286 1.615,13.214 1.667,12.384 2.487 L 11.662 3.200 8.195 3.200 L 4.729 3.200 4.656 2.927 C 4.564 2.585,4.464 2.374,4.308 2.190 C 4.072 1.915,3.846 1.760,3.547 1.667 C 3.381 1.616,2.551 1.588,2.293 1.624 M8.505 6.361 L 6.944 7.922 6.412 7.974 C 6.119 8.002,5.823 8.031,5.754 8.038 C 5.685 8.045,5.621 8.039,5.613 8.026 C 5.593 7.994,5.177 5.787,5.026 4.915 L 5.011 4.830 5.152 4.820 C 5.230 4.814,6.367 4.808,7.680 4.805 L 10.067 4.800 8.505 6.361 M11.866 7.513 C 9.937 9.451,10.067 9.233,10.880 9.161 C 11.910 9.068,12.139 9.016,12.467 8.796 C 12.918 8.495,13.025 8.256,13.357 6.817 C 13.587 5.817,13.582 5.840,13.554 5.840 C 13.542 5.840,12.782 6.593,11.866 7.513 M8.200 11.197 L 7.400 12.000 9.581 12.000 C 11.755 12.000,11.763 12.000,11.874 11.943 C 12.145 11.806,12.324 11.587,12.379 11.326 C 12.405 11.203,12.402 11.153,12.363 11.010 C 12.299 10.772,12.179 10.618,11.973 10.509 L 11.804 10.419 10.402 10.407 L 9.000 10.395 8.200 11.197 M10.781 12.504 C 10.473 12.652,10.269 12.927,10.213 13.267 C 10.147 13.676,10.393 14.111,10.800 14.304 C 10.951 14.376,11.002 14.386,11.200 14.386 C 11.399 14.386,11.448 14.376,11.606 14.301 C 11.821 14.200,11.995 14.029,12.098 13.819 C 12.165 13.683,12.173 13.638,12.173 13.400 C 12.173 13.159,12.166 13.118,12.095 12.975 C 12.000 12.781,11.838 12.614,11.649 12.516 C 11.526 12.453,11.469 12.441,11.227 12.433 C 10.961 12.424,10.938 12.428,10.781 12.504 M6.491 12.931 C 6.433 12.973,6.118 13.278,5.790 13.608 C 5.194 14.206,5.193 14.208,5.256 14.248 C 5.291 14.270,5.380 14.309,5.453 14.333 C 5.909 14.487,6.359 14.332,6.631 13.927 C 6.764 13.729,6.813 13.534,6.787 13.298 C 6.768 13.132,6.663 12.853,6.619 12.853 C 6.606 12.853,6.548 12.888,6.491 12.931 " fill="#1A1C1F" stroke="none" fill-rule="evenodd"></path></svg>