<svg width="12" height="12" viewBox="0 0 12 12" fill="none" xmlns="http://www.w3.org/2000/svg"><path d="M5.677 1.223 C 4.592 1.347,3.779 2.149,3.621 3.250 C 3.610 3.327,3.601 3.436,3.600 3.492 L 3.600 3.594 3.093 3.605 C 2.625 3.615,2.579 3.620,2.501 3.660 C 2.396 3.713,2.260 3.847,2.215 3.941 C 2.166 4.046,2.080 5.222,1.930 7.870 C 1.805 10.083,1.799 10.301,1.858 10.433 C 1.912 10.550,2.030 10.674,2.149 10.737 L 2.250 10.790 6.000 10.790 L 9.750 10.790 9.836 10.744 C 9.967 10.674,10.073 10.568,10.133 10.447 L 10.186 10.337 10.174 9.923 C 10.148 9.076,9.937 5.501,9.849 4.400 C 9.814 3.966,9.800 3.919,9.667 3.786 C 9.503 3.622,9.477 3.616,8.905 3.604 L 8.400 3.594 8.400 3.501 C 8.400 3.215,8.240 2.651,8.078 2.369 C 7.610 1.552,6.680 1.108,5.677 1.223 M6.351 2.442 C 6.813 2.526,7.131 2.915,7.190 3.467 L 7.205 3.600 6.000 3.600 L 4.795 3.600 4.809 3.475 C 4.866 2.954,5.117 2.616,5.559 2.466 C 5.669 2.428,5.734 2.421,5.961 2.421 C 6.111 2.420,6.286 2.430,6.351 2.442 M8.680 4.825 C 8.680 4.879,8.939 9.299,8.950 9.445 L 8.963 9.600 6.000 9.600 L 3.037 9.600 3.050 9.445 C 3.061 9.299,3.320 4.898,3.320 4.846 C 3.320 4.811,3.436 4.809,6.215 4.804 C 8.176 4.801,8.680 4.805,8.680 4.825 M4.206 6.455 C 4.220 6.955,4.241 7.089,4.342 7.332 C 4.596 7.941,5.111 8.317,5.783 8.383 C 6.610 8.464,7.271 8.119,7.609 7.430 C 7.756 7.129,7.799 6.879,7.799 6.305 L 7.800 6.000 7.203 6.000 L 6.606 6.000 6.595 6.380 C 6.585 6.708,6.577 6.773,6.542 6.845 C 6.479 6.975,6.395 7.066,6.277 7.130 C 6.183 7.181,6.150 7.188,6.000 7.188 C 5.850 7.188,5.818 7.181,5.723 7.130 C 5.613 7.070,5.512 6.963,5.450 6.841 C 5.422 6.786,5.413 6.700,5.405 6.386 L 5.394 6.000 4.794 6.000 L 4.194 6.000 4.206 6.455 " fill="#1A1C1F" stroke="none" fill-rule="evenodd"></path></svg>