<svg xmlns="http://www.w3.org/2000/svg" width="12" height="12" fill="none"><g clip-path="url(#a)"><path fill="#1A1C1F" fill-rule="evenodd" d="M5.98 1.8c1.423 0 2.42 1.047 2.42 2.4h1.796c.374 0 .667.344.592.72l-.935 4.79a.62.62 0 0 1-.598.49h-6.51a.6.6 0 0 1-.58-.49l-.953-4.79a.605.605 0 0 1 .592-.72H3.6c0-1.334.978-2.4 2.38-2.4m3.48 3.6H2.54L3.25 9h5.518zM6 3c-.748 0-1.194.486-1.194 1.2H7.2C7.2 3.505 6.73 3 6 3" clip-rule="evenodd"/></g><defs><clipPath id="a"><path fill="#fff" d="M0 0h12v12H0z"/></clipPath></defs></svg>