<svg xmlns="http://www.w3.org/2000/svg" width="28" height="28" fill="none"><g clip-path="url(#a)"><path fill="#1A1C1F" fill-rule="evenodd" d="M14.014 2.187a6.96 6.96 0 0 1 6.299 3.992l3.298-3.298a.875.875 0 1 1 1.237 1.237Q14.132 14.84 3.41 25.556a.875.875 0 1 1-1.238-1.238q.944-.95 1.894-1.895L1.945 11.28c-.187-1.04.562-2.057 1.724-2.057q1.683-.003 3.365 0c0-3.866 3.115-7.036 6.98-7.036m8.18 7.035h2.137c1.068 0 1.854.923 1.743 1.932l-.02.126-2.167 11.542c-.212 1.144-1.138 2.06-2.264 2.136l-.155.005H6.728q-.13 0-.26-.012l1.74-1.74h13.12a.89.89 0 0 0 .836-.62l.026-.103 2.14-11.54h-3.86l1.725-1.725m-6.65 1.724H3.669l1.899 9.976 9.976-9.976zm-1.53-7.007c-2.826 0-5.121 2.257-5.224 5.085l-.004.2 8.482-.002 1.696-1.695c-.7-2.075-2.65-3.588-4.95-3.588" clip-rule="evenodd"/></g><defs><clipPath id="a"><path fill="#fff" d="M0 0h28v28H0z"/></clipPath></defs></svg>