<svg width="14" height="14" viewBox="0 0 14 14" fill="none" xmlns="http://www.w3.org/2000/svg"><path d="M6.498 1.439 C 5.656 1.573,4.884 2.122,4.513 2.852 C 4.339 3.195,4.230 3.594,4.207 3.981 L 4.194 4.193 3.606 4.206 C 2.942 4.220,2.912 4.227,2.721 4.417 C 2.560 4.579,2.550 4.616,2.498 5.286 C 2.381 6.796,2.123 11.293,2.124 11.825 C 2.124 12.038,2.132 12.092,2.178 12.192 C 2.239 12.321,2.372 12.453,2.525 12.535 L 2.625 12.588 7.000 12.588 L 11.375 12.588 11.475 12.535 C 11.629 12.453,11.752 12.329,11.821 12.188 L 11.884 12.060 11.869 11.576 C 11.837 10.562,11.594 6.418,11.490 5.133 C 11.449 4.627,11.433 4.572,11.279 4.417 C 11.088 4.227,11.058 4.220,10.394 4.206 L 9.807 4.193 9.792 3.991 C 9.732 3.145,9.326 2.414,8.648 1.932 C 8.422 1.772,8.016 1.578,7.747 1.504 C 7.546 1.448,7.480 1.441,7.047 1.435 C 6.784 1.431,6.537 1.433,6.498 1.439 M7.408 2.860 C 7.905 2.980,8.274 3.376,8.366 3.889 C 8.384 3.989,8.399 4.101,8.399 4.136 L 8.400 4.200 7.000 4.200 L 5.600 4.200 5.600 4.136 C 5.601 3.996,5.692 3.642,5.763 3.501 C 6.037 2.959,6.716 2.694,7.408 2.860 M5.601 6.551 C 5.602 7.018,5.666 7.341,5.822 7.665 C 5.981 7.997,6.227 8.222,6.554 8.335 C 6.777 8.412,7.223 8.412,7.446 8.335 C 8.065 8.121,8.397 7.501,8.399 6.551 L 8.400 6.300 9.103 6.300 L 9.807 6.300 9.793 6.738 C 9.773 7.384,9.689 7.797,9.495 8.211 C 9.076 9.105,8.251 9.692,7.292 9.779 C 6.412 9.858,5.647 9.594,5.062 9.008 C 4.469 8.414,4.200 7.658,4.200 6.589 L 4.200 6.300 4.900 6.300 L 5.600 6.300 5.601 6.551 " fill="#1A1C1F" stroke="none" fill-rule="evenodd"></path></svg>