<svg width="20" height="20" viewBox="0 0 20 20" fill="none" xmlns="http://www.w3.org/2000/svg"><path d="M3.112 2.031 C 2.597 2.113,2.238 2.561,2.273 3.078 C 2.297 3.433,2.499 3.729,2.826 3.890 C 3.008 3.979,3.042 3.984,3.575 3.995 C 3.882 4.001,4.133 4.019,4.133 4.033 C 4.133 4.095,5.404 11.152,5.702 12.744 C 5.804 13.287,5.900 13.706,5.947 13.811 C 6.191 14.357,6.763 14.818,7.351 14.941 C 7.504 14.974,8.413 14.983,11.267 14.983 L 14.983 14.983 15.141 14.906 C 15.355 14.800,15.613 14.511,15.685 14.296 C 15.758 14.077,15.738 13.737,15.641 13.550 C 15.548 13.369,15.351 13.186,15.150 13.093 L 14.983 13.017 11.381 13.006 L 7.778 12.996 7.706 12.601 C 7.627 12.173,7.617 12.033,7.663 12.033 C 7.679 12.033,8.478 11.958,9.438 11.867 C 14.593 11.374,15.128 11.317,15.389 11.231 C 15.776 11.103,16.181 10.761,16.428 10.354 C 16.547 10.157,16.619 9.893,17.067 8.017 C 17.793 4.977,17.805 4.905,17.655 4.583 C 17.572 4.407,17.349 4.179,17.162 4.079 C 17.056 4.022,16.760 4.018,11.602 4.001 L 6.155 3.983 6.097 3.750 C 5.955 3.175,5.769 2.835,5.418 2.506 C 5.193 2.296,4.955 2.161,4.662 2.079 C 4.454 2.021,3.383 1.988,3.112 2.031 M15.192 6.022 C 15.383 6.037,15.467 6.056,15.467 6.086 C 15.467 6.175,14.698 9.282,14.669 9.311 C 14.632 9.348,14.299 9.385,12.088 9.600 C 9.336 9.866,7.432 10.038,7.338 10.027 C 7.255 10.017,7.247 9.999,7.191 9.700 C 6.949 8.422,6.533 6.140,6.533 6.094 C 6.533 6.048,6.571 6.034,6.725 6.025 C 7.075 6.003,14.912 6.000,15.192 6.022 M7.168 15.551 C 6.813 15.651,6.519 15.905,6.359 16.253 C 6.296 16.389,6.283 16.474,6.283 16.750 C 6.283 17.042,6.294 17.107,6.373 17.275 C 6.480 17.504,6.726 17.758,6.937 17.861 C 7.687 18.223,8.545 17.797,8.716 16.979 C 8.758 16.780,8.758 16.720,8.716 16.520 C 8.597 15.947,8.159 15.568,7.560 15.518 C 7.423 15.507,7.287 15.518,7.168 15.551 M13.970 15.536 C 13.641 15.602,13.269 15.916,13.105 16.267 C 13.033 16.421,13.019 16.498,13.019 16.750 C 13.019 17.005,13.033 17.079,13.108 17.242 C 13.221 17.487,13.492 17.759,13.749 17.885 C 13.925 17.970,13.984 17.982,14.249 17.981 C 14.504 17.981,14.580 17.967,14.742 17.892 C 14.987 17.779,15.259 17.508,15.385 17.251 C 15.471 17.075,15.482 17.017,15.481 16.751 C 15.480 16.407,15.416 16.225,15.212 15.975 C 14.926 15.626,14.416 15.446,13.970 15.536 " fill="#1A1C1F" stroke="none" fill-rule="evenodd"></path></svg>