<svg xmlns="http://www.w3.org/2000/svg" width="12" height="12" fill="none"><g clip-path="url(#a)"><path fill="#1A1C1F" fill-rule="evenodd" d="M6 1.2c1.35 0 2.381.975 2.4 2.4h.844c.318 0 .58.244.6.562l.357 6a.614.614 0 0 1-.6.638H2.398a.61.61 0 0 1-.6-.638l.356-6a.597.597 0 0 1 .6-.562H3.6c0-1.425 1.05-2.4 2.4-2.4M8.68 4.8H3.32l-.282 4.8h5.925zm-2.68-2.4c-.882 0-1.2.6-1.2 1.2h2.4c0-.6-.3-1.2-1.2-1.2M6.598 6v.6c0 .338-.263.6-.6.6a.59.59 0 0 1-.6-.6V6H4.2v.6c0 .9.6 1.8 1.8 1.8s1.8-.9 1.8-1.8V6z" clip-rule="evenodd"/></g><defs><clipPath id="a"><path fill="#fff" d="M0 0h12v12H0z"/></clipPath></defs></svg>