<svg width="20" height="20" viewBox="0 0 20 20" fill="none" xmlns="http://www.w3.org/2000/svg"><path d="M9.617 2.020 C 9.158 2.067,8.680 2.188,8.272 2.362 C 7.613 2.643,6.907 3.268,6.532 3.902 C 6.278 4.333,6.044 5.124,6.010 5.670 L 5.991 5.990 5.148 6.008 L 4.306 6.026 4.133 6.120 C 3.949 6.220,3.770 6.404,3.688 6.579 C 3.657 6.644,3.618 6.928,3.586 7.333 C 3.438 9.170,3.087 15.136,3.044 16.533 C 3.024 17.193,3.026 17.223,3.099 17.391 C 3.182 17.584,3.382 17.787,3.605 17.906 L 3.750 17.983 10.000 17.983 L 16.250 17.983 16.393 17.907 C 16.607 17.792,16.786 17.616,16.881 17.425 C 16.957 17.273,16.967 17.213,16.967 16.895 C 16.967 16.122,16.600 9.721,16.431 7.552 C 16.357 6.595,16.343 6.542,16.112 6.311 C 15.840 6.038,15.798 6.028,14.844 6.008 L 14.000 5.990 14.000 5.837 C 13.999 5.587,13.911 5.070,13.817 4.774 C 13.615 4.136,13.320 3.649,12.852 3.183 C 12.279 2.613,11.566 2.237,10.771 2.086 C 10.498 2.034,9.845 1.997,9.617 2.020 M10.583 4.086 C 11.293 4.257,11.821 4.823,11.951 5.555 C 11.977 5.699,11.998 5.858,11.999 5.908 L 12.000 6.000 10.000 6.000 L 8.000 6.000 8.001 5.908 C 8.004 5.685,8.105 5.274,8.212 5.048 C 8.599 4.234,9.566 3.842,10.583 4.086 M8.000 9.358 C 8.001 10.050,8.173 10.786,8.424 11.167 C 8.602 11.437,8.883 11.696,9.118 11.805 C 9.796 12.123,10.642 12.041,11.190 11.605 C 11.691 11.207,11.947 10.535,11.989 9.508 L 12.010 9.000 13.010 9.000 L 14.010 9.000 13.990 9.625 C 13.953 10.810,13.752 11.529,13.243 12.296 C 12.219 13.843,10.182 14.413,8.374 13.661 C 7.790 13.418,7.131 12.861,6.757 12.296 C 6.248 11.529,6.047 10.810,6.010 9.625 L 5.990 9.000 6.995 9.000 L 8.000 9.000 8.000 9.358 " fill="#1A1C1F" stroke="none" fill-rule="evenodd"></path></svg>