<svg xmlns="http://www.w3.org/2000/svg" width="12" height="12" fill="none"><g clip-path="url(#a)"><path fill="#1A1C1F" fill-rule="evenodd" d="M5.982 1.498c.973 0 1.747.49 2.138 1.233l.757-.757a.6.6 0 0 1 .848.848 13292 13292 0 0 1-7.5 7.5.6.6 0 1 1-.849-.848q.333-.337.67-.67l-.834-4.186a.605.605 0 0 1 .523-.716l.07-.004h1.796c0-1.334.978-2.4 2.381-2.4m4.347 2.415c.264.06.537.333.46.705q-.465 2.395-.935 4.791a.62.62 0 0 1-.598.49H4.341l1.202-1.2H8.77l.767-3.993zM5.752 5.097l-3.21.001.528 2.681L5.751 5.1zm.25-2.399c-.715 0-1.154.443-1.192 1.104l-.003.096h2.144l.23-.23c-.09-.574-.533-.97-1.18-.97" clip-rule="evenodd"/></g><defs><clipPath id="a"><path fill="#fff" d="M0 0h12v12H0z"/></clipPath></defs></svg>