<svg width="28" height="28" viewBox="0 0 28 28" fill="none" xmlns="http://www.w3.org/2000/svg"><path d="M2.780 2.589 C 2.179 2.804,2.016 3.543,2.472 3.989 C 2.693 4.205,2.859 4.243,3.593 4.249 C 4.414 4.255,4.636 4.294,4.811 4.460 C 5.024 4.663,5.077 4.792,5.249 5.545 C 5.553 6.868,8.027 18.839,8.027 18.984 C 8.027 19.024,7.337 19.751,6.495 20.600 C 4.841 22.266,4.760 22.372,4.823 22.760 C 4.862 23.006,5.073 23.283,5.320 23.415 C 5.642 23.588,5.906 23.542,6.246 23.253 C 6.634 22.924,19.622 9.962,22.916 6.617 C 25.539 3.953,25.754 3.722,25.784 3.544 C 25.874 3.011,25.437 2.521,24.871 2.520 C 24.643 2.520,24.283 2.819,23.097 3.996 L 21.905 5.180 14.627 5.177 C 10.625 5.175,7.257 5.159,7.144 5.142 L 6.938 5.110 6.829 4.667 C 6.596 3.728,6.173 3.157,5.445 2.802 C 5.152 2.658,4.972 2.604,4.668 2.567 C 4.085 2.498,3.003 2.510,2.780 2.589 M24.165 7.875 L 23.060 8.983 22.661 10.547 C 22.174 12.456,22.014 13.018,21.911 13.175 C 21.729 13.453,21.463 13.508,19.250 13.722 L 18.223 13.821 17.278 14.765 C 16.759 15.283,16.333 15.729,16.333 15.754 C 16.333 15.797,19.391 15.490,21.233 15.262 C 21.913 15.178,22.042 15.148,22.335 15.004 C 22.715 14.818,23.250 14.348,23.465 14.012 C 23.659 13.710,24.307 11.385,24.985 8.563 C 25.330 7.126,25.394 6.767,25.305 6.767 C 25.285 6.767,24.772 7.265,24.165 7.875 M16.427 10.663 L 12.670 14.418 11.083 14.582 C 10.211 14.672,9.369 14.758,9.213 14.774 L 8.930 14.802 8.732 13.853 C 8.624 13.331,8.262 11.580,7.929 9.963 C 7.597 8.346,7.315 6.997,7.304 6.965 C 7.287 6.919,8.593 6.907,13.733 6.907 L 20.183 6.907 16.427 10.663 M10.112 16.977 C 9.694 17.394,9.555 17.508,9.523 17.458 C 9.459 17.355,9.315 16.616,9.352 16.579 C 9.387 16.544,10.602 16.388,10.638 16.414 C 10.650 16.423,10.413 16.676,10.112 16.977 M12.017 20.015 L 11.131 20.907 16.138 20.907 C 20.650 20.907,21.159 20.899,21.294 20.831 C 21.967 20.492,22.048 19.648,21.441 19.293 L 21.229 19.169 17.066 19.146 L 12.903 19.124 12.017 20.015 M9.567 22.786 C 9.084 23.020,8.773 23.524,8.773 24.073 C 8.773 24.476,8.890 24.763,9.168 25.041 C 9.739 25.611,10.572 25.619,11.149 25.059 C 11.465 24.752,11.549 24.542,11.550 24.057 C 11.550 23.678,11.536 23.612,11.412 23.387 C 11.151 22.916,10.712 22.678,10.113 22.682 C 9.867 22.684,9.721 22.712,9.567 22.786 M19.664 22.770 C 19.376 22.900,19.105 23.169,18.963 23.466 C 18.790 23.825,18.781 24.324,18.941 24.651 C 19.258 25.297,19.983 25.616,20.656 25.407 C 21.044 25.286,21.460 24.871,21.580 24.483 C 21.684 24.150,21.656 23.755,21.509 23.461 C 21.370 23.185,20.996 22.843,20.734 22.754 C 20.433 22.651,19.907 22.659,19.664 22.770 " fill="#1A1C1F" stroke="none" fill-rule="evenodd"></path></svg>