<svg width="28" height="28" viewBox="0 0 28 28" fill="none" xmlns="http://www.w3.org/2000/svg"><path d="M12.665 2.756 C 11.785 2.941,10.881 3.320,10.127 3.820 C 9.576 4.185,8.638 5.127,8.264 5.691 C 7.526 6.805,7.138 7.929,7.062 9.181 L 7.032 9.660 5.418 9.660 C 3.574 9.661,3.114 9.697,2.828 9.865 C 2.392 10.120,1.995 10.694,1.933 11.157 C 1.916 11.281,1.945 11.596,2.006 11.947 C 2.262 13.439,3.846 21.749,4.130 23.089 C 4.191 23.380,4.292 23.726,4.354 23.860 C 4.537 24.255,4.869 24.662,5.181 24.874 C 5.687 25.218,5.897 25.290,6.539 25.340 C 7.285 25.398,20.834 25.399,21.581 25.341 C 22.082 25.303,22.174 25.281,22.479 25.130 C 23.169 24.789,23.670 24.131,23.837 23.345 C 24.104 22.093,25.503 14.718,25.902 12.460 C 26.036 11.703,26.087 11.300,26.068 11.157 C 26.004 10.688,25.607 10.120,25.163 9.860 C 24.982 9.753,24.887 9.737,24.275 9.703 C 23.898 9.682,23.007 9.664,22.295 9.663 L 21.000 9.660 21.000 9.460 C 21.000 8.830,20.776 7.769,20.487 7.030 C 19.603 4.769,17.428 3.040,15.052 2.710 C 14.456 2.627,13.159 2.652,12.665 2.756 M15.237 4.523 C 17.406 5.055,19.048 7.010,19.211 9.252 L 19.241 9.660 14.065 9.659 C 11.219 9.659,8.863 9.642,8.831 9.621 C 8.755 9.573,8.861 8.710,9.009 8.177 C 9.551 6.225,11.304 4.686,13.277 4.434 C 13.779 4.370,14.802 4.416,15.237 4.523 M24.283 11.434 C 24.307 11.458,24.159 12.280,23.167 17.617 C 22.570 20.829,22.243 22.515,22.137 22.937 C 22.058 23.247,21.914 23.432,21.641 23.572 C 21.468 23.661,21.311 23.663,14.034 23.650 C 6.990 23.637,6.594 23.632,6.417 23.553 C 6.161 23.437,5.980 23.253,5.928 23.056 C 5.845 22.743,3.687 11.538,3.687 11.419 C 3.687 11.378,24.242 11.393,24.283 11.434 " fill="#1A1C1F" stroke="none" fill-rule="evenodd"></path></svg>