<svg xmlns="http://www.w3.org/2000/svg" width="24" height="24" fill="none"><g clip-path="url(#a)"><path fill="#1A1C1F" fill-rule="evenodd" d="M20.224 8h.41c.8 0 1.505.752 1.347 1.594q-.857 5.157-1.721 10.312c-.21 1.164-1.074 2.014-2.296 2.089l-.176.005H6.238l2.002-2.003 9.548.003a.5.5 0 0 0 .449-.326l.043-.08zm-8.227-6a5.97 5.97 0 0 1 5.338 3.246l2.488-2.49a1 1 0 1 1 1.415 1.414q-8.76 8.772-17.525 17.537a1 1 0 1 1-1.415-1.414q.654-.659 1.31-1.312L2.016 9.625C1.897 8.858 2.377 8 3.235 8q1.38-.003 2.762 0a6 6 0 0 1 6-6m.585 8h-8.47l1.229 7.248zm-.585-6A3.986 3.986 0 0 0 8 7.8l-.004.2h6.585l1.223-1.223A4 4 0 0 0 11.998 4z" clip-rule="evenodd"/></g><defs><clipPath id="a"><path fill="#fff" d="M0 0h24v24H0z"/></clipPath></defs></svg>