<svg width="20" height="20" viewBox="0 0 20 20" fill="none" xmlns="http://www.w3.org/2000/svg"><path d="M9.121 3.085 C 8.626 3.183,8.054 3.430,7.633 3.726 C 7.320 3.946,6.878 4.405,6.654 4.741 C 6.323 5.240,6.108 5.879,6.028 6.598 L 5.988 6.958 4.383 6.973 L 2.779 6.989 2.599 7.086 C 2.373 7.208,2.180 7.398,2.098 7.578 C 1.955 7.891,1.980 8.044,2.951 12.896 C 3.686 16.568,3.672 16.514,3.924 16.736 C 3.986 16.789,4.110 16.871,4.200 16.917 L 4.364 17.000 10.009 17.000 L 15.654 17.000 15.823 16.916 C 15.916 16.869,16.067 16.752,16.159 16.655 C 16.317 16.488,16.329 16.462,16.414 16.098 C 16.589 15.354,17.736 9.521,17.918 8.450 C 17.988 8.036,17.997 7.925,17.966 7.804 C 17.888 7.490,17.693 7.232,17.431 7.099 C 17.230 6.996,16.787 6.969,15.313 6.968 L 14.009 6.967 13.986 6.710 C 13.892 5.671,13.528 4.837,12.883 4.182 C 12.321 3.611,11.580 3.223,10.785 3.085 C 10.415 3.020,9.447 3.020,9.121 3.085 M10.581 5.084 C 11.120 5.225,11.580 5.611,11.801 6.111 C 11.868 6.263,11.945 6.573,11.982 6.842 L 12.004 7.000 9.999 7.000 L 7.993 7.000 8.018 6.792 C 8.072 6.321,8.196 6.008,8.457 5.685 C 8.729 5.348,9.167 5.107,9.646 5.031 C 9.870 4.996,10.345 5.023,10.581 5.084 " fill="#1A1C1F" stroke="none" fill-rule="evenodd"></path></svg>