<svg xmlns="http://www.w3.org/2000/svg" width="16" height="16" fill="none"><g clip-path="url(#a)"><path fill="#1A1C1F" fill-rule="evenodd" d="M7.974 2c1.297 0 2.328.653 2.85 1.643l1.01-1.01a.8.8 0 0 1 1.13 1.133q-4.996 5.002-10 10a.8.8 0 1 1-1.13-1.132q.443-.45.891-.893l-1.11-5.582a.806.806 0 0 1 .698-.954l.092-.005H4.8C4.8 3.42 6.104 2 7.974 2m5.796 3.22c.351.079.714.444.614.94q-.621 3.195-1.247 6.389c-.069.344-.397.658-.798.65H5.79l1.6-1.6h4.301l1.022-5.322zM7.667 6.8H3.385l.706 3.575zM8 3.6c-.952 0-1.537.59-1.589 1.472l-.003.128h2.86l.308-.307C9.451 4.128 8.861 3.6 8 3.6" clip-rule="evenodd"/></g><defs><clipPath id="a"><path fill="#fff" d="M0 0h16v16H0z"/></clipPath></defs></svg>