<svg xmlns="http://www.w3.org/2000/svg" width="28" height="28" fill="none"><g clip-path="url(#a)"><path fill="#1A1C1F" fill-rule="evenodd" d="M14 2.187c2.9 0 5.25 2.35 5.25 5.25h2.624c.467 0 .852.367.874.831l.876 16.625c.025.5-.373.92-.874.92H5.25a.875.875 0 0 1-.874-.92L5.25 8.268a.876.876 0 0 1 .874-.831H8.75c0-2.9 2.35-5.25 5.25-5.25m7.044 7H6.956L6.17 24.062h15.66zm-7.045-5.25a3.5 3.5 0 0 0-3.499 3.5h7a3.5 3.5 0 0 0-3.5-3.5zm0 11.375a3.5 3.5 0 0 1-3.499-3.5.875.875 0 1 0-1.75 0 5.25 5.25 0 1 0 10.5 0 .875.875 0 1 0-1.75 0 3.5 3.5 0 0 1-3.5 3.5z" clip-rule="evenodd"/></g><defs><clipPath id="a"><path fill="#fff" d="M0 0h28v28H0z"/></clipPath></defs></svg>