<svg xmlns="http://www.w3.org/2000/svg" width="32" height="32" fill="none"><g clip-path="url(#a)"><path fill="#1A1C1F" fill-rule="evenodd" d="M15.999 2.5A6 6 0 0 1 22 8.5h2.999a1 1 0 0 1 .999.95l1.001 19A1 1 0 0 1 26 29.5H5.999c-.57 0-1.026-.479-.998-1.05l1-19c.027-.531.466-.95.998-.95H10a6 6 0 0 1 5.999-6m8.051 8H7.95l-.899 17h17.898zm-8.051-6A4 4 0 0 0 12 8.5h8a4 4 0 0 0-4.001-4m0 13a4 4 0 0 1-3.999-4 1 1 0 0 0-2 0 6 6 0 0 0 12 0 1 1 0 0 0-2 0 4 4 0 0 1-4.001 4" clip-rule="evenodd"/></g><defs><clipPath id="a"><path fill="#fff" d="M0 0h32v32H0z"/></clipPath></defs></svg>