<svg xmlns="http://www.w3.org/2000/svg" width="32" height="32" fill="none"><path fill="#1A1C1F" fill-rule="evenodd" d="M15.125 2.562c-1.896.299-3.567 1.488-4.432 3.153-.389.75-.584 1.44-.694 2.454l-.032.303-1.61.017-1.61.018-.241.141c-.302.178-.47.468-.509.88-.045.482-.984 18.493-.984 18.881 0 .517.187.83.601 1.002.174.073 1.338.082 10.4.082h10.203l.238-.12c.241-.122.452-.376.517-.623.02-.075-.192-4.494-.472-9.819l-.507-9.682-.129-.23a1.1 1.1 0 0 0-.37-.371l-.241-.141-1.61-.018-1.611-.017-.027-.223c-.016-.122-.042-.36-.06-.529-.054-.51-.282-1.263-.553-1.827-.763-1.59-2.198-2.758-3.943-3.208-.581-.15-1.759-.212-2.324-.123m1.43 1.997c.173.017.497.091.72.166 1.485.494 2.529 1.81 2.7 3.403l.037.352h-8.027l.035-.336c.163-1.598 1.25-2.96 2.739-3.433.404-.128 1.08-.228 1.348-.198.073.009.275.029.448.046m7.501 6.121c.001.095.201 3.905.445 8.467.244 4.561.433 8.311.421 8.333s-4.027.04-8.922.04-8.91-.018-8.922-.04.177-3.772.421-8.333a2800 2800 0 0 0 .445-8.467l.003-.173h16.106zm-13.577 1.983c-.228.136-.417.423-.471.713-.018.097-.008.415.022.708a6.04 6.04 0 0 0 2.659 4.411c1.15.758 2.59 1.121 3.875.976 2.091-.235 3.838-1.42 4.768-3.235.4-.779.649-1.755.66-2.581.004-.334-.017-.44-.126-.634-.326-.575-1.195-.67-1.611-.176-.178.212-.238.414-.278.942A4 4 0 0 1 16 17.493a3.997 3.997 0 0 1-3.977-3.706c-.04-.528-.1-.73-.278-.942-.282-.335-.87-.42-1.266-.182"/></svg>