<svg xmlns="http://www.w3.org/2000/svg" width="32" height="32" fill="none"><g clip-path="url(#a)"><path fill="#1A1C1F" fill-rule="evenodd" d="M16.021 2.494c3.18 0 5.915 1.86 7.2 4.563l3.768-3.77a1 1 0 0 1 1.414 0c.36.36.418 1.007 0 1.414a77630 77630 0 0 1-24.5 24.5 1 1 0 1 1-1.414-1.414Q3.568 26.7 4.653 25.62L2.228 12.887c-.213-1.19.643-2.352 1.97-2.352q1.924-.003 3.846 0c0-4.418 3.56-8.041 7.977-8.041m9.35 8.04h2.441a1.994 1.994 0 0 1 1.992 2.208l-.02.145-2.48 13.189c-.243 1.307-1.3 2.352-2.588 2.44l-.177.007H7.695q-.15 0-.297-.015l1.988-1.988H24.38c.437 0 .82-.293.955-.71l.03-.116 2.447-13.19H23.4zm-7.6 1.97H4.198l2.17 11.402zm-1.75-8.008c-3.23 0-5.853 2.58-5.97 5.812l-.004.227 9.693-.001 1.94-1.937c-.802-2.371-3.029-4.101-5.659-4.101" clip-rule="evenodd"/></g><defs><clipPath id="a"><path fill="#fff" d="M0 0h32v32H0z"/></clipPath></defs></svg>