<svg width="32" height="32" viewBox="0 0 32 32" fill="none" xmlns="http://www.w3.org/2000/svg"><path d="M14.453 2.660 C 11.393 3.327,9.049 5.582,8.295 8.585 C 8.152 9.152,8.054 9.800,8.053 10.177 C 8.052 10.314,8.034 10.454,8.013 10.488 C 7.985 10.531,7.348 10.554,5.787 10.569 L 3.600 10.589 3.311 10.748 C 2.894 10.977,2.578 11.309,2.385 11.721 C 2.097 12.336,2.012 11.760,3.684 20.551 L 4.646 25.610 3.527 26.746 C 2.412 27.878,2.187 28.169,2.187 28.480 C 2.187 28.850,2.439 29.226,2.800 29.393 C 3.160 29.559,3.414 29.527,3.730 29.278 C 4.075 29.005,20.886 12.237,25.283 7.779 C 28.809 4.205,28.755 4.268,28.672 3.825 C 28.597 3.423,28.212 3.076,27.761 3.003 C 27.386 2.942,27.182 3.108,25.139 5.133 L 23.212 7.044 22.996 6.656 C 22.015 4.894,20.359 3.505,18.533 2.914 C 17.645 2.626,17.479 2.603,16.160 2.582 C 15.087 2.564,14.842 2.576,14.453 2.660 M17.082 4.613 C 18.520 4.864,19.859 5.708,20.805 6.960 C 21.092 7.341,21.473 8.018,21.579 8.337 L 21.666 8.599 20.687 9.580 L 19.708 10.560 14.886 10.560 L 10.064 10.560 10.096 10.040 C 10.261 7.399,12.315 5.089,14.919 4.618 C 15.474 4.517,16.521 4.515,17.082 4.613 M24.378 11.538 L 23.395 12.526 25.560 12.543 C 26.750 12.552,27.738 12.574,27.755 12.590 C 27.771 12.607,27.461 14.371,27.065 16.510 C 25.182 26.683,25.326 26.024,24.919 26.334 L 24.728 26.480 17.069 26.495 L 9.409 26.510 8.398 27.522 L 7.388 28.533 15.654 28.531 C 20.200 28.530,24.225 28.509,24.598 28.483 C 25.374 28.430,25.619 28.343,26.174 27.922 C 26.491 27.683,26.865 27.226,27.063 26.838 C 27.112 26.741,27.342 25.709,27.574 24.544 C 28.109 21.866,29.490 14.502,29.682 13.315 C 29.822 12.443,29.824 12.407,29.740 12.067 C 29.629 11.618,29.388 11.244,29.045 10.988 C 28.510 10.589,28.564 10.600,26.880 10.574 L 25.360 10.550 24.378 11.538 M12.773 17.497 C 10.045 20.227,7.486 22.771,7.086 23.151 L 6.358 23.841 6.276 23.401 C 5.964 21.736,4.254 12.750,4.231 12.653 L 4.202 12.533 10.967 12.533 L 17.733 12.533 12.773 17.497 " fill="#1A1C1F" stroke="none" fill-rule="evenodd"></path></svg>