<svg xmlns="http://www.w3.org/2000/svg" width="20" height="20" fill="none"><g clip-path="url(#a)"><path fill="#1A1C1F" fill-rule="evenodd" d="M9.968 3C12.338 3 14 4.745 14 7h2.993c.623 0 1.112.573.988 1.2l-1.559 7.986c-.094.47-.53.814-.998.814H4.575a1 1 0 0 1-.967-.814L2.02 8.199A1.007 1.007 0 0 1 3.006 7H6c0-2.224 1.63-4 3.97-4m5.798 6H4.232l1.184 6h9.197zM10 5c-1.247 0-1.99.81-1.99 2H12c0-1.159-.784-2-2-2" clip-rule="evenodd"/></g><defs><clipPath id="a"><path fill="#fff" d="M0 0h20v20H0z"/></clipPath></defs></svg>