<svg xmlns="http://www.w3.org/2000/svg" width="14" height="14" fill="none"><g clip-path="url(#a)"><path fill="#1A1C1F" fill-rule="evenodd" d="M6.977 1.75c1.135 0 2.037.572 2.495 1.438l.882-.883a.7.7 0 0 1 .99.99q-4.373 4.377-8.75 8.75a.7.7 0 0 1-.99-.99l.78-.782-.972-4.883a.705.705 0 0 1 .611-.834l.081-.005H4.2c0-1.557 1.141-2.8 2.778-2.8zm5.071 2.817c.308.07.625.389.538.822q-.544 2.796-1.092 5.591a.72.72 0 0 1-.698.57H5.064l1.4-1.4h3.765l.894-4.658zM6.71 5.95H2.962l.617 3.128zM7 3.15c-.833 0-1.345.517-1.39 1.288l-.003.112H8.11l.27-.269c-.11-.669-.626-1.131-1.38-1.131" clip-rule="evenodd"/></g><defs><clipPath id="a"><path fill="#fff" d="M0 0h14v14H0z"/></clipPath></defs></svg>