<svg width="32" height="32" viewBox="0 0 32 32" fill="none" xmlns="http://www.w3.org/2000/svg"><path d="M15.013 3.066 C 12.273 3.451,10.005 5.098,8.851 7.541 C 8.371 8.558,8.132 9.448,8.073 10.432 L 8.038 11.025 5.840 11.052 L 3.642 11.079 3.312 11.255 C 2.652 11.607,2.219 12.273,2.223 12.933 C 2.226 13.383,2.734 16.186,4.001 22.749 C 4.724 26.490,4.829 26.967,5.019 27.355 C 5.264 27.857,5.872 28.453,6.404 28.715 C 6.775 28.897,6.863 28.918,7.471 28.962 C 8.341 29.025,23.841 29.025,24.657 28.962 C 25.373 28.907,25.731 28.774,26.223 28.383 C 26.528 28.141,26.931 27.610,27.061 27.280 C 27.241 26.822,27.446 25.808,28.555 19.893 C 29.780 13.355,29.836 13.026,29.769 12.702 C 29.626 12.009,29.273 11.548,28.649 11.240 L 28.296 11.067 26.148 11.050 L 24.000 11.032 24.000 10.808 C 24.000 10.430,23.896 9.708,23.758 9.130 C 23.209 6.826,21.648 4.882,19.467 3.785 C 19.081 3.591,18.142 3.272,17.680 3.179 C 17.445 3.131,16.893 3.069,16.453 3.040 C 15.527 2.981,15.629 2.979,15.013 3.066 M17.413 5.169 C 18.502 5.436,19.659 6.125,20.405 6.948 C 21.299 7.935,21.973 9.584,21.973 10.780 L 21.973 11.040 15.997 11.040 L 10.021 11.040 10.055 10.707 C 10.184 9.411,10.534 8.417,11.188 7.493 C 11.484 7.075,12.093 6.458,12.530 6.135 C 13.221 5.622,14.328 5.176,15.173 5.067 C 15.748 4.994,16.917 5.047,17.413 5.169 M27.787 13.041 C 27.787 13.057,27.606 14.047,27.384 15.241 C 26.075 22.313,25.504 25.320,25.329 26.072 C 25.210 26.581,25.088 26.757,24.720 26.946 L 24.507 27.056 15.962 27.027 L 7.417 26.998 7.227 26.880 C 6.841 26.642,6.807 26.551,6.487 24.933 C 5.998 22.463,4.213 13.134,4.213 13.048 C 4.213 13.029,9.517 13.013,16.000 13.013 C 22.483 13.013,27.787 13.026,27.787 13.041 " fill="#1A1C1F" stroke="none" fill-rule="evenodd"></path></svg>