<svg xmlns="http://www.w3.org/2000/svg" width="20" height="20" fill="none"><g clip-path="url(#a)"><path fill="#1A1C1F" fill-rule="evenodd" d="M8.24 15.993c.16.21.257.473.257.757 0 .688-.563 1.25-1.25 1.25a1.25 1.25 0 0 1-.762-.25zm5.756-.493c.688 0 1.25.563 1.25 1.25S14.685 18 13.997 18s-1.25-.563-1.25-1.25.563-1.25 1.25-1.25M3.903 2c.938 0 1.688.656 1.906 1.594L5.904 4h8.675l1.233-1.234.485-.478a1 1 0 0 1 1.415.01c.358.363.422 1.01-.01 1.414L4.705 16.71a1 1 0 1 1-1.414-1.414q1.1-1.11 2.209-2.213L3.87 4h-.874c-.563 0-1-.469-1-1 0-.53.469-1 1-1zm10.593 11c.563 0 1 .438 1 1 0 .47-.437 1-1 1H9.234l2-2zm2.498-5.76-.591 2.541c-.187.75-.75 1.47-1.75 1.563l-1.947.182zM12.58 6H6.247l.75 4.063L8.683 9.9z" clip-rule="evenodd"/></g><defs><clipPath id="a"><path fill="#fff" d="M0 0h20v20H0z"/></clipPath></defs></svg>