<svg width="16" height="16" viewBox="0 0 16 16" fill="none" xmlns="http://www.w3.org/2000/svg"><path d="M7.667 1.617 C 6.351 1.759,5.331 2.570,4.951 3.776 C 4.879 4.005,4.800 4.474,4.800 4.673 L 4.800 4.792 4.123 4.806 L 3.445 4.821 3.306 4.896 C 3.159 4.976,3.016 5.124,2.951 5.263 C 2.884 5.404,2.837 6.064,2.574 10.547 C 2.421 13.161,2.400 13.616,2.425 13.747 C 2.468 13.979,2.641 14.199,2.880 14.324 L 3.000 14.387 8.000 14.387 L 13.000 14.387 13.115 14.326 C 13.290 14.232,13.431 14.090,13.510 13.929 L 13.582 13.782 13.565 13.231 C 13.530 12.101,13.250 7.335,13.131 5.867 C 13.085 5.288,13.066 5.225,12.890 5.049 C 12.672 4.831,12.638 4.822,11.879 4.806 L 11.207 4.792 11.191 4.563 C 11.160 4.147,10.983 3.539,10.785 3.177 C 10.364 2.404,9.567 1.844,8.638 1.668 C 8.418 1.626,7.855 1.596,7.667 1.617 M8.468 3.256 C 9.084 3.368,9.508 3.886,9.587 4.622 L 9.606 4.800 8.000 4.800 L 6.393 4.800 6.411 4.633 C 6.489 3.929,6.835 3.473,7.440 3.277 C 7.613 3.221,8.211 3.209,8.468 3.256 M11.558 6.423 C 11.565 6.435,11.650 7.788,11.745 9.429 C 11.840 11.071,11.926 12.500,11.935 12.607 L 11.951 12.800 8.001 12.800 L 4.051 12.800 4.067 12.580 C 4.084 12.340,4.427 6.498,4.427 6.437 C 4.427 6.405,4.947 6.400,7.985 6.400 C 9.942 6.400,11.550 6.410,11.558 6.423 M5.608 8.607 C 5.627 9.295,5.655 9.463,5.808 9.811 C 6.164 10.618,6.821 11.090,7.710 11.177 C 8.461 11.251,9.159 11.044,9.642 10.605 C 9.947 10.327,10.245 9.807,10.335 9.395 C 10.360 9.282,10.381 8.982,10.391 8.607 L 10.408 8.000 9.608 8.000 L 8.808 8.000 8.793 8.507 C 8.780 8.945,8.770 9.030,8.723 9.127 C 8.639 9.300,8.526 9.421,8.369 9.506 C 8.243 9.575,8.201 9.584,8.000 9.584 C 7.833 9.584,7.749 9.571,7.680 9.535 C 7.518 9.450,7.403 9.343,7.312 9.192 L 7.224 9.046 7.208 8.523 L 7.192 8.000 6.392 8.000 L 5.592 8.000 5.608 8.607 " fill="#1A1C1F" stroke="none" fill-rule="evenodd"></path></svg>