<svg width="14" height="14" viewBox="0 0 14 14" fill="none" xmlns="http://www.w3.org/2000/svg"><path d="M6.627 1.776 C 5.997 1.849,5.361 2.162,4.951 2.601 C 4.787 2.776,4.614 3.024,4.505 3.239 C 4.341 3.565,4.201 4.116,4.200 4.436 L 4.200 4.543 3.062 4.555 L 1.924 4.567 1.808 4.627 C 1.599 4.733,1.437 4.952,1.410 5.162 C 1.395 5.277,1.475 5.710,2.017 8.444 L 2.380 10.273 1.953 10.709 C 1.456 11.215,1.414 11.281,1.412 11.550 C 1.412 11.757,1.467 11.891,1.613 12.037 C 1.788 12.213,2.028 12.283,2.261 12.227 C 2.355 12.205,2.421 12.163,2.584 12.021 C 2.839 11.799,8.931 5.724,10.397 4.230 C 11.448 3.159,11.479 3.124,11.517 2.995 C 11.611 2.670,11.450 2.318,11.142 2.172 C 11.062 2.135,10.992 2.123,10.844 2.124 C 10.675 2.124,10.638 2.132,10.534 2.191 C 10.469 2.229,10.208 2.459,9.953 2.704 C 9.699 2.950,9.483 3.150,9.474 3.150 C 9.464 3.150,9.411 3.080,9.355 2.994 C 8.919 2.318,8.111 1.838,7.327 1.787 C 6.867 1.757,6.797 1.756,6.627 1.776 M7.411 3.210 C 7.843 3.323,8.177 3.643,8.323 4.084 L 8.385 4.272 8.247 4.411 L 8.110 4.550 6.853 4.550 L 5.596 4.550 5.611 4.428 C 5.662 4.034,5.769 3.781,5.978 3.557 C 6.145 3.379,6.403 3.238,6.662 3.185 C 6.854 3.145,7.209 3.157,7.411 3.210 M11.586 5.040 L 11.118 5.506 10.674 7.822 L 10.229 10.138 8.352 10.144 L 6.474 10.150 5.775 10.850 L 5.075 11.550 8.016 11.550 L 10.958 11.550 11.078 11.490 C 11.144 11.457,11.250 11.374,11.313 11.305 C 11.409 11.199,11.436 11.149,11.478 10.994 C 11.577 10.627,12.600 5.359,12.600 5.216 C 12.600 5.107,12.520 4.918,12.430 4.816 C 12.346 4.721,12.132 4.574,12.076 4.574 C 12.064 4.573,11.843 4.783,11.586 5.040 M5.157 7.502 C 4.303 8.355,3.599 9.053,3.591 9.053 C 3.583 9.053,3.443 8.379,3.281 7.554 C 3.118 6.730,2.979 6.037,2.973 6.015 C 2.956 5.960,2.967 5.959,4.970 5.954 L 6.708 5.950 5.157 7.502 " fill="#1A1C1F" stroke="none" fill-rule="evenodd"></path></svg>