<svg width="28" height="28" viewBox="0 0 28 28" fill="none" xmlns="http://www.w3.org/2000/svg"><path d="M3.077 2.560 C 2.485 2.688,2.233 3.450,2.620 3.941 C 2.808 4.180,2.945 4.213,3.876 4.249 C 4.832 4.285,4.945 4.315,5.155 4.590 C 5.360 4.859,5.337 4.759,6.462 10.220 C 8.158 18.451,8.311 19.155,8.488 19.534 C 8.650 19.879,9.043 20.302,9.393 20.507 C 9.515 20.578,9.767 20.691,9.953 20.757 L 10.290 20.877 15.823 20.897 C 21.332 20.917,21.357 20.917,21.544 20.821 C 21.934 20.622,22.115 20.288,22.059 19.869 C 22.028 19.638,21.919 19.482,21.657 19.297 L 21.459 19.157 16.014 19.143 C 12.464 19.134,10.527 19.112,10.448 19.081 C 10.381 19.055,10.260 18.966,10.180 18.884 C 10.057 18.757,10.010 18.633,9.874 18.082 C 9.670 17.256,9.545 16.619,9.581 16.584 C 9.616 16.548,10.264 16.475,15.321 15.935 C 22.607 15.157,22.303 15.201,22.845 14.849 C 23.204 14.617,23.663 14.123,23.815 13.806 C 23.933 13.561,24.229 12.460,25.053 9.193 C 25.588 7.077,25.614 6.923,25.511 6.508 C 25.380 5.976,25.053 5.583,24.500 5.292 C 24.344 5.209,23.972 5.205,15.757 5.181 L 7.177 5.157 7.069 4.737 C 6.860 3.921,6.697 3.613,6.275 3.227 C 5.966 2.945,5.707 2.790,5.323 2.661 C 5.071 2.576,4.890 2.558,4.134 2.542 C 3.644 2.532,3.169 2.540,3.077 2.560 M23.800 6.961 C 23.800 6.992,23.528 8.078,23.196 9.377 C 22.287 12.925,22.188 13.238,21.940 13.366 C 21.785 13.446,21.432 13.499,19.880 13.672 C 16.939 14.001,9.187 14.803,9.166 14.781 C 9.150 14.765,8.564 11.956,8.028 9.333 C 7.768 8.063,7.547 6.997,7.536 6.965 C 7.520 6.918,9.165 6.907,15.658 6.907 C 21.857 6.907,23.800 6.920,23.800 6.961 M20.176 22.687 C 19.753 22.760,19.363 23.075,19.173 23.497 C 19.030 23.814,19.027 24.339,19.166 24.647 C 19.284 24.908,19.570 25.204,19.843 25.348 C 20.125 25.496,20.750 25.495,21.060 25.345 C 21.321 25.219,21.628 24.893,21.761 24.602 C 21.912 24.273,21.899 23.805,21.731 23.462 C 21.458 22.903,20.805 22.577,20.176 22.687 M9.822 22.774 C 9.502 22.933,9.297 23.137,9.144 23.448 C 8.870 24.005,8.964 24.596,9.398 25.038 C 9.966 25.617,10.815 25.621,11.388 25.048 C 11.637 24.799,11.751 24.571,11.789 24.245 C 11.858 23.663,11.549 23.084,11.031 22.820 C 10.715 22.660,10.099 22.636,9.822 22.774 " fill="#1A1C1F" stroke="none" fill-rule="evenodd"></path></svg>