<svg width="12" height="12" viewBox="0 0 12 12" fill="none" xmlns="http://www.w3.org/2000/svg"><path d="M5.650 1.823 C 5.301 1.867,4.942 1.997,4.667 2.179 C 4.086 2.561,3.739 3.121,3.631 3.846 C 3.614 3.961,3.600 4.082,3.600 4.115 L 3.600 4.174 2.633 4.184 L 1.666 4.194 1.558 4.252 C 1.424 4.325,1.308 4.439,1.259 4.547 C 1.177 4.728,1.196 4.858,1.650 7.140 C 2.137 9.587,2.174 9.759,2.233 9.876 C 2.296 10.001,2.418 10.108,2.559 10.161 C 2.658 10.199,2.753 10.200,6.026 10.200 L 9.392 10.200 9.495 10.149 C 9.552 10.120,9.643 10.048,9.698 9.989 C 9.787 9.892,9.801 9.863,9.838 9.702 C 9.910 9.397,10.109 8.415,10.391 6.974 C 10.804 4.863,10.823 4.727,10.741 4.547 C 10.692 4.439,10.576 4.325,10.442 4.252 L 10.334 4.194 9.370 4.184 L 8.405 4.174 8.391 4.023 C 8.304 3.061,7.812 2.359,6.973 2.000 C 6.718 1.891,6.495 1.843,6.147 1.820 C 5.816 1.799,5.842 1.798,5.650 1.823 M6.165 3.020 C 6.744 3.087,7.112 3.472,7.191 4.095 L 7.204 4.200 6.000 4.200 L 4.795 4.200 4.809 4.085 C 4.888 3.428,5.294 3.042,5.950 3.003 C 5.972 3.001,6.069 3.009,6.165 3.020 " fill="#1A1C1F" stroke="none" fill-rule="evenodd"></path></svg>