<svg xmlns="http://www.w3.org/2000/svg" width="16" height="16" fill="none"><g clip-path="url(#a)"><path fill="#1A1C1F" fill-rule="evenodd" d="M6 14.4c.55 0 1-.45 1-1s-.45-1-1-1c-.575 0-1 .45-1 1s.425 1 1 1m5.4 0c.55 0 1-.45 1-1s-.45-1-1-1-1 .45-1 1 .45 1 1 1M3.325 1.6c.75 0 1.35.525 1.525 1.275l.075.325H13.4c.525 0 .9.475.775.975l-.85 3.65c-.15.6-.6 1.175-1.4 1.25l-5.85.55.15.775H11.8c.45 0 .8.35.8.8 0 .375-.35.8-.8.8H6.275c-.825 0-1.5-.55-1.625-1.275L3.3 3.2h-.7c-.45 0-.8-.375-.8-.8s.375-.8.8-.8zM12.4 4.8H5.2l.6 3.25 5.95-.575z" clip-rule="evenodd"/></g><defs><clipPath id="a"><path fill="#fff" d="M0 0h16v16H0z"/></clipPath></defs></svg>