<svg width="24" height="24" viewBox="0 0 24 24" fill="none" xmlns="http://www.w3.org/2000/svg"><path d="M10.840 2.662 C 9.205 3.152,8.144 4.466,8.016 6.159 L 7.989 6.520 6.964 6.522 C 6.401 6.524,5.854 6.539,5.749 6.556 C 5.521 6.594,5.305 6.755,5.150 7.004 C 5.049 7.168,5.035 7.242,4.961 8.060 C 4.809 9.745,4.253 16.666,4.081 19.014 C 3.985 20.330,3.981 20.676,4.056 20.857 C 4.139 21.056,4.389 21.313,4.606 21.423 L 4.797 21.520 12.000 21.520 L 19.203 21.520 19.394 21.423 C 19.611 21.313,19.861 21.056,19.944 20.857 C 20.040 20.626,20.030 20.420,19.738 16.780 C 19.394 12.478,19.100 9.010,18.976 7.760 C 18.903 7.027,18.844 6.888,18.512 6.675 L 18.302 6.540 17.151 6.526 C 15.830 6.510,15.983 6.569,15.943 6.056 C 15.893 5.426,15.632 4.678,15.279 4.158 C 14.822 3.485,13.991 2.899,13.140 2.649 C 13.000 2.608,12.676 2.586,12.060 2.575 C 11.210 2.560,11.168 2.563,10.840 2.662 M12.311 4.559 C 13.093 4.649,13.734 5.242,13.901 6.029 C 13.933 6.178,13.959 6.350,13.959 6.410 L 13.960 6.520 11.980 6.520 L 10.000 6.520 10.000 6.406 C 10.000 6.211,10.155 5.675,10.267 5.483 C 10.439 5.190,10.741 4.900,11.037 4.744 C 11.464 4.520,11.690 4.487,12.311 4.559 M17.149 9.680 C 17.198 10.307,17.392 12.763,17.579 15.138 C 17.845 18.513,17.908 19.463,17.869 19.487 C 17.842 19.505,15.178 19.519,11.950 19.519 C 6.623 19.520,6.080 19.514,6.080 19.457 C 6.080 19.279,6.871 8.915,6.902 8.690 L 6.925 8.520 11.992 8.530 L 17.060 8.540 17.149 9.680 M8.640 10.570 C 8.563 10.595,8.408 10.708,8.296 10.820 C 8.134 10.981,8.082 11.067,8.041 11.238 C 7.914 11.766,8.133 12.779,8.525 13.475 C 8.947 14.225,9.761 14.930,10.560 15.237 C 11.648 15.656,12.941 15.548,13.969 14.953 C 15.130 14.281,15.854 13.117,15.946 11.772 C 15.981 11.270,15.925 11.080,15.662 10.817 C 15.514 10.668,15.410 10.602,15.272 10.567 C 14.884 10.470,14.578 10.535,14.293 10.775 C 14.103 10.936,14.012 11.170,13.943 11.680 C 13.893 12.048,13.852 12.198,13.737 12.433 C 13.555 12.802,13.250 13.113,12.911 13.275 C 12.582 13.432,12.372 13.478,11.977 13.479 C 11.405 13.481,10.909 13.270,10.529 12.862 C 10.236 12.549,10.085 12.238,10.015 11.803 C 9.907 11.127,9.880 11.040,9.729 10.873 C 9.650 10.786,9.513 10.677,9.424 10.632 C 9.232 10.534,8.841 10.503,8.640 10.570 " fill="#1A1C1F" stroke="none" fill-rule="evenodd"></path></svg>