<svg xmlns="http://www.w3.org/2000/svg" width="16" height="16" fill="none"><g clip-path="url(#a)"><path fill="#1A1C1F" fill-rule="evenodd" d="M8 1.6c1.6 0 3.2 1.2 3.2 3.2h1.125c.425 0 .775.325.8.75l.475 8c.025.45-.35.85-.8.85H3.2c-.45 0-.825-.4-.8-.85l.475-8a.796.796 0 0 1 .8-.75H4.8c0-2 1.475-3.2 3.2-3.2M6.4 7.2H4.8v.55c0 2.125 1.45 3.45 3.2 3.45s3.2-1.325 3.2-3.45V7.2H9.6v.275C9.6 8.5 9.275 9.6 8 9.6S6.4 8.5 6.4 7.475zm1.6-4c-.8 0-1.6.475-1.6 1.6h3.2c0-1.125-.8-1.6-1.6-1.6" clip-rule="evenodd"/></g><defs><clipPath id="a"><path fill="#fff" d="M0 0h16v16H0z"/></clipPath></defs></svg>