<svg xmlns="http://www.w3.org/2000/svg" width="16" height="16" fill="none"><g clip-path="url(#a)"><path fill="#1A1C1F" fill-rule="evenodd" d="M6.593 12.795a1 1 0 0 1 .205.605c0 .55-.45 1-1 1a1 1 0 0 1-.61-.2zm4.605-.395c.55 0 1 .45 1 1s-.45 1-1 1-1-.45-1-1 .45-1 1-1M3.123 1.6c.75 0 1.35.525 1.525 1.275l.075.325h6.94l.987-.987.388-.383a.8.8 0 0 1 1.13.008c.287.29.34.808-.007 1.132L3.765 13.368a.8.8 0 1 1-1.131-1.131q.88-.888 1.767-1.77L3.098 3.2h-.7c-.45 0-.8-.375-.8-.8s.375-.8.8-.8zm8.475 8.8c.45 0 .8.35.8.8 0 .375-.35.8-.8.8H7.387l1.6-1.6zm1.998-4.609-.473 2.034c-.15.6-.6 1.175-1.4 1.25l-1.557.146zM10.064 4.8H4.998l.6 3.25 1.349-.13z" clip-rule="evenodd"/></g><defs><clipPath id="a"><path fill="#fff" d="M0 0h16v16H0z"/></clipPath></defs></svg>