<svg xmlns="http://www.w3.org/2000/svg" width="32" height="32" fill="none"><g clip-path="url(#a)"><path fill="#1A1C1F" fill-rule="evenodd" d="M23.369 29.125c.908 0 1.642-.734 1.642-1.608a1.64 1.64 0 0 0-1.642-1.642c-.91 0-1.608.734-1.608 1.642 0 .874.699 1.608 1.608 1.608m-11.5 0c.908 0 1.642-.734 1.642-1.608a1.64 1.64 0 0 0-1.642-1.642c-.91 0-1.608.734-1.608 1.642 0 .874.699 1.608 1.608 1.608M5.193 2.875c1.379 0 2.58.962 2.838 2.31l.159.705h19.05c1.283 0 2.213 1.219 1.957 2.405l-1.732 6.794c-.257 1.187-1.22 2.085-2.406 2.31l-14.175 1.506.484 2.24c.096.448.513.737.962.737h11.928a1 1 0 0 1 .994.994 1 1 0 0 1-.994.995H12.345c-1.54 0-2.662-.963-2.918-2.31L6.187 5.826c-.156-.674-.577-.963-.994-.963H3.755a1 1 0 0 1-.994-.994 1 1 0 0 1 .994-.994zM27.24 7.878H8.593l1.86 9.04 14.35-1.508c.353-.096.61-.385.705-.77z" clip-rule="evenodd"/></g><defs><clipPath id="a"><path fill="#fff" d="M0 0h32v32H0z"/></clipPath></defs></svg>