<svg width="12" height="12" viewBox="0 0 12 12" fill="none" xmlns="http://www.w3.org/2000/svg"><path d="M1.878 1.218 C 1.297 1.300,1.165 2.048,1.682 2.329 C 1.784 2.384,1.802 2.387,2.122 2.398 C 2.306 2.405,2.461 2.415,2.467 2.420 C 2.472 2.426,2.532 2.741,2.600 3.120 C 2.762 4.034,3.268 6.807,3.417 7.603 C 3.555 8.339,3.577 8.397,3.810 8.630 C 3.960 8.781,4.132 8.883,4.362 8.958 L 4.494 9.001 6.742 8.996 L 8.990 8.990 9.085 8.943 C 9.209 8.881,9.367 8.707,9.408 8.587 C 9.503 8.308,9.378 8.001,9.114 7.867 L 9.014 7.816 6.840 7.805 L 4.666 7.794 4.622 7.542 C 4.598 7.403,4.575 7.275,4.572 7.258 C 4.566 7.231,4.590 7.223,4.698 7.213 C 7.816 6.920,9.092 6.789,9.215 6.748 C 9.374 6.695,9.523 6.598,9.660 6.460 C 9.907 6.210,9.908 6.207,10.240 4.810 C 10.560 3.467,10.643 3.090,10.643 2.977 C 10.644 2.769,10.517 2.573,10.310 2.464 L 10.210 2.411 6.951 2.401 L 3.693 2.390 3.658 2.250 C 3.573 1.904,3.463 1.701,3.255 1.507 C 3.116 1.378,2.974 1.297,2.797 1.248 C 2.673 1.213,2.055 1.193,1.878 1.218 M9.272 3.625 C 9.288 3.641,9.263 3.750,8.976 4.926 C 8.835 5.501,8.810 5.585,8.773 5.599 C 8.728 5.615,8.111 5.679,6.540 5.829 C 4.876 5.988,4.381 6.029,4.362 6.009 C 4.345 5.991,3.920 3.726,3.920 3.656 C 3.920 3.629,3.943 3.620,4.035 3.614 C 4.258 3.600,9.257 3.610,9.272 3.625 M4.339 9.317 C 4.139 9.360,3.916 9.533,3.827 9.714 C 3.717 9.938,3.743 10.263,3.887 10.473 C 4.029 10.680,4.245 10.790,4.510 10.790 C 4.647 10.789,4.689 10.780,4.804 10.726 C 5.065 10.603,5.224 10.372,5.237 10.097 C 5.246 9.903,5.207 9.764,5.102 9.618 C 5.013 9.493,4.911 9.416,4.764 9.360 C 4.649 9.316,4.443 9.295,4.339 9.317 M8.393 9.321 C 8.192 9.355,7.964 9.544,7.863 9.760 C 7.820 9.853,7.812 9.899,7.812 10.050 C 7.812 10.277,7.867 10.409,8.029 10.571 C 8.191 10.733,8.323 10.788,8.550 10.788 C 8.703 10.788,8.747 10.780,8.845 10.735 C 8.992 10.667,9.155 10.505,9.231 10.351 C 9.282 10.245,9.289 10.210,9.288 10.051 C 9.288 9.781,9.201 9.614,8.976 9.449 C 8.823 9.336,8.596 9.286,8.393 9.321 " fill="#1A1C1F" stroke="none" fill-rule="evenodd"></path></svg>