<svg xmlns="http://www.w3.org/2000/svg" width="14" height="14" fill="none"><g clip-path="url(#a)"><path fill="#1A1C1F" fill-rule="evenodd" d="M6.978 2.1C8.637 2.1 9.8 3.321 9.8 4.9h2.095c.436 0 .779.401.692.84l-1.092 5.59a.72.72 0 0 1-.698.57H3.203a.7.7 0 0 1-.677-.57L1.413 5.74a.705.705 0 0 1 .692-.84H4.2c0-1.557 1.14-2.8 2.778-2.8m4.06 4.2H2.962l.83 4.2h6.437l.807-4.2zM7 3.5c-.873 0-1.393.567-1.393 1.4H8.4c0-.811-.55-1.4-1.4-1.4" clip-rule="evenodd"/></g><defs><clipPath id="a"><path fill="#fff" d="M0 0h14v14H0z"/></clipPath></defs></svg>