<svg xmlns="http://www.w3.org/2000/svg" width="32" height="32" fill="none"><path fill="#1A1C1F" fill-rule="evenodd" d="M3.421 2.937a.994.994 0 0 0-.547 1.356c.218.475.452.56 1.538.561.463 0 .929.024 1.036.054.257.071.557.387.659.692.044.135.824 3.855 1.733 8.267 1.865 9.058 1.723 8.505 2.368 9.151.242.241.462.399.743.533.742.352.604.346 7.426.33l6.13-.014.218-.125a.979.979 0 0 0 .022-1.707l-.24-.142-6.271-.026-6.271-.027-.191-.131a1.1 1.1 0 0 1-.285-.29c-.104-.177-.615-2.44-.562-2.491.018-.018 3.153-.361 6.966-.762s7.095-.764 7.291-.806c.919-.196 1.805-.938 2.125-1.779.053-.141.509-1.874 1.013-3.852.855-3.352.915-3.621.893-3.972-.045-.697-.428-1.283-1.068-1.63l-.334-.18-9.808-.027-9.808-.027-.146-.595c-.081-.328-.227-.747-.325-.933-.35-.659-1.099-1.222-1.865-1.403-.389-.092-2.226-.111-2.44-.025m22.926 8.418c-.949 3.707-.978 3.794-1.349 3.969-.137.065-2.056.285-7.341.841-3.936.415-7.169.741-7.185.725s-.422-1.944-.903-4.286L8.647 8.12 8.6 7.893h18.633zM11.506 25.922c-.986.246-1.518 1.332-1.097 2.243.476 1.031 1.809 1.278 2.603.481.328-.33.446-.592.471-1.046.037-.688-.308-1.272-.915-1.55-.318-.146-.773-.2-1.062-.128m11.507-.009a1.62 1.62 0 0 0-1.239 1.493c-.044.64.272 1.211.847 1.529.254.141.336.158.739.158.532 0 .822-.114 1.167-.459a1.6 1.6 0 0 0-.439-2.579c-.296-.144-.807-.212-1.075-.142"/></svg>