<svg width="16" height="16" viewBox="0 0 16 16" fill="none" xmlns="http://www.w3.org/2000/svg"><path d="M2.490 1.627 C 2.081 1.687,1.791 2.048,1.819 2.462 C 1.838 2.746,1.999 2.983,2.260 3.111 C 2.402 3.181,2.440 3.186,2.844 3.199 C 3.081 3.207,3.282 3.219,3.289 3.227 C 3.296 3.234,3.376 3.654,3.466 4.160 C 3.794 6.005,4.520 9.965,4.656 10.653 C 4.740 11.077,4.826 11.252,5.068 11.496 C 5.252 11.680,5.485 11.827,5.749 11.925 L 5.907 11.983 8.947 11.985 L 11.987 11.987 12.113 11.924 C 12.279 11.842,12.489 11.610,12.544 11.450 C 12.664 11.097,12.533 10.729,12.213 10.516 C 12.123 10.457,12.067 10.446,11.769 10.425 C 11.581 10.413,10.256 10.402,8.825 10.401 L 6.223 10.400 6.165 10.082 C 6.103 9.747,6.093 9.627,6.127 9.627 C 6.138 9.627,7.215 9.525,8.520 9.400 C 12.356 9.034,12.248 9.048,12.560 8.872 C 12.743 8.768,13.025 8.485,13.140 8.290 C 13.251 8.103,13.425 7.422,14.030 4.813 C 14.243 3.897,14.238 3.748,13.980 3.463 C 13.927 3.404,13.823 3.324,13.748 3.285 L 13.613 3.215 9.269 3.201 L 4.924 3.187 4.878 3.000 C 4.675 2.178,4.217 1.718,3.511 1.626 C 3.288 1.598,2.688 1.598,2.490 1.627 M12.363 4.834 C 12.375 4.846,12.347 5.008,12.302 5.194 C 12.256 5.381,12.114 5.963,11.986 6.489 C 11.782 7.326,11.747 7.446,11.697 7.465 C 11.638 7.487,10.812 7.572,8.720 7.772 C 6.501 7.984,5.841 8.038,5.816 8.012 C 5.794 7.988,5.226 4.969,5.227 4.875 C 5.227 4.838,5.258 4.827,5.380 4.819 C 5.682 4.799,12.343 4.814,12.363 4.834 M5.787 12.424 C 5.516 12.484,5.195 12.739,5.090 12.978 C 5.019 13.139,4.995 13.464,5.039 13.651 C 5.083 13.834,5.250 14.084,5.402 14.195 C 5.592 14.332,5.765 14.387,6.013 14.386 C 6.196 14.385,6.252 14.373,6.406 14.301 C 6.754 14.137,6.960 13.838,6.981 13.464 C 6.996 13.203,6.958 13.056,6.821 12.851 C 6.709 12.684,6.472 12.503,6.298 12.453 C 6.161 12.414,5.898 12.399,5.787 12.424 M11.176 12.429 C 10.913 12.481,10.616 12.732,10.483 13.013 C 10.425 13.137,10.414 13.197,10.414 13.400 C 10.414 13.605,10.425 13.663,10.486 13.794 C 10.577 13.990,10.795 14.208,10.999 14.308 C 11.140 14.376,11.187 14.385,11.399 14.385 C 11.603 14.385,11.664 14.374,11.794 14.314 C 11.990 14.223,12.207 14.006,12.308 13.801 C 12.376 13.660,12.385 13.613,12.385 13.401 C 12.384 13.134,12.336 12.988,12.186 12.799 C 12.077 12.662,11.865 12.509,11.726 12.468 C 11.564 12.419,11.312 12.402,11.176 12.429 " fill="#1A1C1F" stroke="none" fill-rule="evenodd"></path></svg>