<svg width="12" height="12" viewBox="0 0 12 12" fill="none" xmlns="http://www.w3.org/2000/svg"><path d="M1.710 1.217 C 1.504 1.245,1.286 1.434,1.227 1.637 C 1.146 1.915,1.282 2.210,1.551 2.340 C 1.637 2.382,1.686 2.389,1.975 2.399 C 2.202 2.407,2.306 2.418,2.317 2.435 C 2.333 2.461,2.367 2.647,2.931 5.799 L 3.298 7.849 2.603 8.549 C 1.818 9.341,1.810 9.352,1.810 9.600 C 1.811 9.780,1.857 9.897,1.975 10.015 C 2.126 10.166,2.339 10.228,2.538 10.180 C 2.623 10.160,2.675 10.125,2.835 9.983 C 3.080 9.766,8.427 4.434,9.752 3.086 C 10.713 2.107,10.739 2.079,10.772 1.967 C 10.883 1.583,10.602 1.217,10.191 1.214 C 9.960 1.213,9.931 1.233,9.302 1.852 L 8.744 2.400 6.145 2.400 L 3.547 2.400 3.492 2.195 C 3.462 2.082,3.411 1.936,3.379 1.870 C 3.241 1.582,2.944 1.328,2.650 1.246 C 2.538 1.215,1.875 1.194,1.710 1.217 M6.381 4.769 L 5.212 5.938 5.111 5.950 C 4.790 5.989,4.228 6.033,4.215 6.021 C 4.206 6.013,4.181 5.914,4.159 5.800 C 4.123 5.614,3.797 3.844,3.770 3.686 L 3.759 3.622 3.864 3.615 C 3.922 3.611,4.775 3.606,5.760 3.604 L 7.550 3.600 6.381 4.769 M8.959 5.575 C 8.305 6.232,7.742 6.800,7.709 6.838 L 7.650 6.905 7.859 6.892 C 8.171 6.873,8.836 6.803,8.950 6.778 C 9.134 6.738,9.367 6.608,9.506 6.469 C 9.733 6.242,9.796 6.074,10.017 5.113 C 10.190 4.365,10.187 4.380,10.167 4.380 C 10.157 4.380,9.614 4.918,8.959 5.575 M6.130 8.398 L 5.530 9.000 7.176 9.000 L 8.821 9.000 8.924 8.948 C 9.067 8.875,9.209 8.724,9.250 8.600 C 9.329 8.361,9.264 8.091,9.094 7.953 C 8.913 7.806,8.987 7.815,7.800 7.805 L 6.730 7.796 6.130 8.398 M8.215 9.320 C 7.950 9.387,7.740 9.612,7.667 9.907 C 7.635 10.035,7.635 10.052,7.668 10.191 C 7.709 10.362,7.815 10.541,7.927 10.626 C 8.079 10.742,8.215 10.789,8.400 10.789 C 8.543 10.790,8.588 10.782,8.684 10.736 C 8.836 10.665,8.927 10.591,9.009 10.470 C 9.336 9.990,9.014 9.340,8.435 9.309 C 8.355 9.305,8.256 9.310,8.215 9.320 M4.420 10.110 C 4.134 10.396,3.900 10.636,3.900 10.644 C 3.900 10.693,4.211 10.799,4.353 10.800 C 4.557 10.800,4.816 10.666,4.943 10.495 C 5.056 10.341,5.085 10.250,5.087 10.051 C 5.088 9.868,5.058 9.759,4.971 9.636 C 4.941 9.592,4.932 9.600,4.420 10.110 " fill="#1A1C1F" stroke="none" fill-rule="evenodd"></path></svg>