<svg width="24" height="24" viewBox="0 0 24 24" fill="none" xmlns="http://www.w3.org/2000/svg"><path d="M10.860 2.118 C 8.157 2.687,6.190 4.919,6.013 7.619 L 5.988 7.993 4.484 8.010 C 3.456 8.022,2.931 8.044,2.826 8.077 C 2.585 8.154,2.181 8.582,2.100 8.847 C 1.969 9.278,1.975 9.346,2.376 11.740 C 2.954 15.188,3.631 19.085,3.804 19.960 C 3.919 20.536,4.086 20.850,4.498 21.261 C 4.830 21.593,5.119 21.775,5.545 21.922 C 5.767 21.998,5.925 22.000,12.004 22.000 L 18.236 22.000 18.573 21.878 C 18.758 21.811,19.002 21.698,19.116 21.626 C 19.557 21.348,19.942 20.880,20.114 20.413 C 20.208 20.156,20.492 18.551,21.275 13.857 C 21.983 9.613,22.013 9.415,21.984 9.205 C 21.925 8.776,21.608 8.347,21.194 8.137 L 20.980 8.029 19.490 8.009 L 18.000 7.989 18.000 7.759 C 18.000 7.412,17.848 6.589,17.701 6.140 C 17.124 4.383,15.755 2.977,14.020 2.361 C 13.329 2.116,13.064 2.074,12.100 2.057 C 11.349 2.044,11.167 2.053,10.860 2.118 M12.720 4.082 C 13.538 4.211,14.532 4.781,15.030 5.408 C 15.584 6.104,15.907 6.883,15.983 7.710 L 16.010 8.000 12.000 8.000 L 7.990 8.000 8.018 7.710 C 8.191 5.926,9.336 4.574,11.060 4.118 C 11.383 4.033,12.286 4.013,12.720 4.082 M19.864 10.110 C 19.852 10.171,19.633 11.453,19.379 12.960 C 18.407 18.715,18.224 19.722,18.123 19.847 C 18.068 19.914,17.988 19.937,17.717 19.963 C 17.532 19.980,14.829 19.996,11.711 19.997 L 6.041 20.000 5.920 19.890 C 5.831 19.809,5.789 19.723,5.759 19.560 C 5.652 18.982,5.113 15.846,4.661 13.180 C 4.386 11.552,4.150 10.171,4.137 10.110 L 4.114 10.000 12.000 10.000 L 19.886 10.000 19.864 10.110 " fill="#1A1C1F" stroke="none" fill-rule="evenodd"></path></svg>