<svg width="28" height="28" viewBox="0 0 28 28" fill="none" xmlns="http://www.w3.org/2000/svg"><path d="M13.253 2.242 C 11.947 2.359,10.597 2.956,9.448 3.924 C 8.754 4.509,8.216 5.217,7.767 6.137 C 7.325 7.041,7.047 8.126,7.047 8.948 L 7.047 9.227 5.092 9.250 L 3.138 9.274 2.864 9.430 C 2.358 9.720,2.063 10.113,1.950 10.652 C 1.886 10.958,1.952 11.338,3.248 18.149 L 4.060 22.414 3.092 23.399 C 2.013 24.496,1.881 24.681,1.932 25.024 C 2.008 25.530,2.478 25.877,2.963 25.786 C 3.100 25.761,3.565 25.324,5.891 23.035 C 10.152 18.842,24.951 3.992,25.039 3.821 C 25.096 3.711,25.111 3.602,25.093 3.427 C 25.040 2.915,24.751 2.646,24.248 2.640 C 23.974 2.637,23.940 2.649,23.726 2.822 C 23.600 2.924,22.780 3.718,21.904 4.586 L 20.311 6.165 20.114 5.801 C 19.401 4.478,18.073 3.310,16.596 2.707 C 15.908 2.426,15.293 2.291,14.465 2.240 C 14.068 2.216,13.722 2.198,13.697 2.201 C 13.671 2.204,13.472 2.222,13.253 2.242 M15.316 4.124 C 16.785 4.500,18.016 5.536,18.739 7.005 C 18.875 7.282,18.906 7.389,18.880 7.495 C 18.858 7.583,18.568 7.910,18.045 8.436 L 17.244 9.242 13.036 9.230 C 10.722 9.222,8.813 9.202,8.795 9.183 C 8.740 9.129,8.914 8.034,9.041 7.630 C 9.558 5.982,10.905 4.661,12.585 4.154 C 13.062 4.010,13.463 3.970,14.210 3.990 C 14.708 4.004,14.971 4.036,15.316 4.124 M21.384 10.045 C 20.942 10.489,20.580 10.877,20.580 10.909 C 20.580 10.954,20.993 10.967,22.447 10.967 C 23.473 10.967,24.313 10.977,24.313 10.990 C 24.313 11.031,22.738 19.496,22.493 20.767 C 22.125 22.683,22.096 22.790,21.901 22.961 C 21.811 23.041,21.681 23.131,21.613 23.161 C 21.521 23.203,19.833 23.220,14.838 23.230 L 8.185 23.244 7.325 24.105 L 6.464 24.967 13.744 24.966 C 17.748 24.965,21.274 24.945,21.580 24.921 C 22.056 24.884,22.178 24.858,22.430 24.734 C 23.017 24.444,23.537 23.880,23.722 23.329 C 23.846 22.960,24.889 17.603,25.742 12.950 C 26.009 11.499,26.088 10.976,26.069 10.784 C 26.023 10.297,25.635 9.716,25.178 9.448 C 24.903 9.287,24.487 9.242,23.263 9.241 L 22.189 9.240 21.384 10.045 M10.560 15.923 C 7.834 18.649,5.593 20.869,5.580 20.856 C 5.567 20.843,5.146 18.670,4.644 16.028 C 4.142 13.385,3.721 11.177,3.709 11.120 C 3.687 11.021,3.701 11.016,4.071 11.001 C 4.283 10.993,6.945 10.981,9.987 10.976 L 15.517 10.967 10.560 15.923 " fill="#1A1C1F" stroke="none" fill-rule="evenodd"></path></svg>