<svg width="20" height="20" viewBox="0 0 20 20" fill="none" xmlns="http://www.w3.org/2000/svg"><path d="M2.850 2.028 C 2.529 2.072,2.233 2.313,2.074 2.661 C 1.879 3.088,2.108 3.668,2.558 3.889 C 2.738 3.977,2.778 3.982,3.293 3.995 C 3.812 4.007,3.840 4.011,3.869 4.079 C 3.886 4.118,4.259 6.160,4.698 8.616 L 5.497 13.082 4.422 14.166 C 3.289 15.308,3.133 15.481,3.051 15.676 C 2.979 15.849,2.987 16.162,3.068 16.380 C 3.153 16.607,3.423 16.868,3.655 16.946 C 3.868 17.019,4.182 17.014,4.355 16.936 C 4.442 16.896,4.753 16.620,5.205 16.180 C 6.406 15.011,14.574 6.849,16.285 5.109 C 17.855 3.512,17.899 3.464,17.953 3.279 C 18.087 2.816,17.874 2.340,17.433 2.117 C 17.297 2.048,17.222 2.033,16.993 2.034 C 16.584 2.034,16.516 2.083,15.467 3.120 L 14.577 4.000 10.244 4.000 L 5.910 4.000 5.834 3.708 C 5.656 3.022,5.386 2.617,4.896 2.300 C 4.548 2.075,4.345 2.030,3.633 2.016 C 3.294 2.010,2.942 2.015,2.850 2.028 M10.632 7.951 L 8.680 9.903 8.015 9.967 C 7.649 10.002,7.279 10.038,7.193 10.047 C 7.106 10.056,7.026 10.049,7.015 10.031 C 7.004 10.013,6.943 9.725,6.880 9.391 C 6.734 8.624,6.267 6.082,6.267 6.056 C 6.267 6.017,6.620 6.012,9.567 6.006 L 12.583 6.000 10.632 7.951 M14.850 9.375 L 12.750 11.483 12.876 11.493 C 13.042 11.507,14.485 11.374,14.783 11.317 C 15.423 11.195,15.934 10.832,16.193 10.317 C 16.309 10.084,16.458 9.549,16.718 8.433 C 16.856 7.837,16.976 7.331,16.984 7.308 C 16.991 7.285,16.987 7.267,16.974 7.267 C 16.961 7.267,16.006 8.215,14.850 9.375 M10.217 13.997 L 9.217 15.000 11.960 15.000 C 14.698 15.000,14.703 15.000,14.843 14.929 C 15.262 14.715,15.471 14.400,15.471 13.983 C 15.471 13.592,15.308 13.318,14.966 13.136 L 14.761 13.026 12.989 13.010 L 11.217 12.993 10.217 13.997 M13.779 15.535 C 13.555 15.566,13.225 15.744,13.077 15.914 C 12.829 16.199,12.699 16.623,12.764 16.936 C 12.853 17.365,13.112 17.697,13.500 17.880 C 13.689 17.970,13.753 17.983,14.000 17.982 C 14.239 17.982,14.314 17.967,14.482 17.890 C 14.744 17.768,14.876 17.664,15.004 17.477 C 15.395 16.909,15.256 16.090,14.709 15.739 C 14.420 15.554,14.119 15.488,13.779 15.535 M7.407 16.829 C 6.967 17.284,6.590 17.690,6.569 17.729 C 6.533 17.795,6.543 17.807,6.690 17.871 C 7.209 18.097,7.732 18.004,8.119 17.618 C 8.211 17.526,8.331 17.360,8.385 17.251 C 8.470 17.075,8.482 17.016,8.482 16.749 C 8.482 16.473,8.472 16.425,8.372 16.223 C 8.312 16.100,8.250 16.000,8.235 16.000 C 8.219 16.000,7.847 16.373,7.407 16.829 " fill="#1A1C1F" stroke="none" fill-rule="evenodd"></path></svg>