<svg width="14" height="14" viewBox="0 0 14 14" fill="none" xmlns="http://www.w3.org/2000/svg"><path d="M2.178 1.422 C 1.818 1.479,1.567 1.792,1.591 2.155 C 1.607 2.396,1.739 2.596,1.961 2.717 C 2.079 2.781,2.103 2.785,2.476 2.799 C 2.692 2.807,2.873 2.819,2.879 2.824 C 2.885 2.830,2.933 3.082,2.986 3.383 C 3.213 4.670,3.861 8.209,4.039 9.135 C 4.143 9.675,4.187 9.788,4.377 10.004 C 4.502 10.148,4.777 10.337,4.959 10.405 C 5.194 10.493,5.542 10.503,8.085 10.495 L 10.488 10.488 10.599 10.433 C 10.744 10.361,10.928 10.158,10.976 10.018 C 11.059 9.774,10.997 9.491,10.821 9.312 C 10.766 9.257,10.691 9.196,10.654 9.177 C 10.533 9.114,10.046 9.102,7.722 9.101 L 5.445 9.100 5.394 8.822 C 5.341 8.529,5.332 8.423,5.361 8.423 C 5.371 8.423,6.313 8.334,7.455 8.225 C 10.815 7.904,10.717 7.917,10.990 7.763 C 11.150 7.672,11.397 7.424,11.498 7.254 C 11.582 7.111,11.645 6.882,11.947 5.612 C 12.323 4.031,12.417 3.605,12.418 3.474 C 12.418 3.231,12.269 3.001,12.028 2.875 L 11.912 2.814 8.110 2.801 L 4.308 2.788 4.268 2.625 C 4.168 2.221,4.040 1.985,3.797 1.759 C 3.635 1.607,3.470 1.513,3.264 1.456 C 3.118 1.415,2.368 1.391,2.178 1.422 M10.818 4.230 C 10.838 4.250,10.301 6.485,10.267 6.519 C 10.241 6.545,9.684 6.605,7.630 6.800 C 5.241 7.028,5.110 7.038,5.087 7.000 C 5.076 6.982,5.050 6.878,5.029 6.768 C 4.762 5.338,4.573 4.303,4.573 4.268 C 4.573 4.233,4.596 4.224,4.708 4.217 C 4.969 4.199,10.800 4.212,10.818 4.230 M9.779 10.875 C 9.549 10.921,9.288 11.141,9.174 11.387 C 9.123 11.495,9.114 11.548,9.114 11.725 C 9.114 11.903,9.123 11.955,9.176 12.070 C 9.255 12.241,9.445 12.431,9.624 12.519 C 9.747 12.579,9.789 12.587,9.974 12.587 C 10.153 12.587,10.206 12.577,10.320 12.524 C 10.491 12.445,10.681 12.255,10.769 12.076 C 10.829 11.952,10.837 11.912,10.837 11.726 C 10.836 11.492,10.794 11.365,10.663 11.199 C 10.568 11.079,10.382 10.945,10.260 10.909 C 10.118 10.867,9.898 10.851,9.779 10.875 M4.884 10.932 C 4.708 11.020,4.540 11.181,4.464 11.335 C 4.405 11.455,4.398 11.492,4.398 11.713 C 4.398 11.919,4.407 11.977,4.451 12.073 C 4.568 12.327,4.773 12.499,5.040 12.567 C 5.432 12.667,5.866 12.461,6.039 12.091 C 6.094 11.975,6.102 11.929,6.102 11.725 C 6.102 11.518,6.094 11.477,6.038 11.363 C 5.947 11.176,5.834 11.056,5.666 10.966 C 5.527 10.891,5.503 10.886,5.262 10.879 C 5.025 10.873,4.995 10.877,4.884 10.932 " fill="#1A1C1F" stroke="none" fill-rule="evenodd"></path></svg>