<svg xmlns="http://www.w3.org/2000/svg" width="32" height="32" fill="none"><path fill="#1A1C1F" fill-rule="evenodd" d="M14.987 2.561c-1.244.171-2.614.716-3.6 1.432A8.13 8.13 0 0 0 8.063 10l-.036.533-2.214.027-2.213.027-.337.182c-.603.328-.99.902-1.061 1.579-.022.209.243 1.689 1.21 6.766l1.238 6.499-1.172 1.18c-1.26 1.269-1.329 1.368-1.277 1.828.071.629.754 1.04 1.356.817.226-.085 24.908-24.77 25.034-25.038.055-.117.1-.297.1-.4 0-.414-.331-.846-.733-.958-.249-.069-.308-.068-.571.003-.18.049-.526.37-2.193 2.031l-1.98 1.973-.225-.418c-.667-1.237-1.75-2.343-3.016-3.076-.756-.438-1.531-.726-2.48-.921-.473-.097-2.005-.142-2.506-.073m2.026 2.03c.826.125 1.791.537 2.514 1.074.909.675 1.777 1.818 2.072 2.728l.067.207-.979.98-.979.98H10.08l.001-.387c.001-.498.151-1.22.381-1.826.907-2.395 3.281-3.961 5.805-3.829.22.011.556.044.746.073m7.361 6.954-.986.988h2.199c1.24 0 2.2.021 2.2.048 0 .101-2.4 13.004-2.454 13.193-.072.251-.344.566-.57.661-.143.059-1.509.072-7.762.072H9.412L8.4 27.52l-1.012 1.013h8.693c9.549-.001 9.042.016 9.677-.323a3.08 3.08 0 0 0 1.387-1.578c.062-.165.689-3.362 1.395-7.106 1.08-5.732 1.278-6.861 1.259-7.158-.045-.671-.437-1.259-1.066-1.601l-.333-.18-1.52-.016-1.52-.015zm-12.321 6.668c-3.124 3.124-5.685 5.662-5.691 5.64s-.481-2.512-1.054-5.533-1.056-5.559-1.073-5.64l-.03-.147h13.528z"/></svg>