<svg width="14" height="14" viewBox="0 0 14 14" fill="none" xmlns="http://www.w3.org/2000/svg"><path d="M6.603 1.776 C 6.183 1.830,5.767 1.979,5.445 2.192 C 4.767 2.638,4.362 3.291,4.236 4.137 C 4.216 4.271,4.200 4.412,4.200 4.451 L 4.200 4.520 3.073 4.531 L 1.947 4.542 1.820 4.610 C 1.661 4.695,1.526 4.828,1.468 4.955 C 1.370 5.172,1.380 5.242,1.962 8.163 L 2.382 10.271 1.954 10.708 C 1.456 11.215,1.414 11.281,1.412 11.550 C 1.412 11.757,1.467 11.891,1.613 12.037 C 1.788 12.213,2.028 12.283,2.261 12.227 C 2.355 12.205,2.421 12.162,2.584 12.021 C 2.838 11.800,9.638 5.017,10.697 3.929 C 11.430 3.175,11.474 3.125,11.514 2.999 C 11.616 2.674,11.459 2.321,11.147 2.175 C 11.061 2.135,10.995 2.123,10.844 2.124 C 10.675 2.124,10.638 2.132,10.535 2.191 C 10.470 2.228,10.208 2.459,9.953 2.704 C 9.698 2.949,9.483 3.150,9.475 3.150 C 9.468 3.150,9.422 3.088,9.373 3.012 C 8.999 2.432,8.390 2.003,7.710 1.842 C 7.555 1.805,6.892 1.742,6.778 1.754 C 6.766 1.755,6.687 1.765,6.603 1.776 M7.408 3.209 C 7.856 3.326,8.222 3.693,8.339 4.142 L 8.375 4.282 8.243 4.416 L 8.110 4.550 6.853 4.550 L 5.595 4.550 5.612 4.404 C 5.651 4.072,5.745 3.838,5.927 3.618 C 6.112 3.396,6.409 3.231,6.728 3.174 C 6.884 3.146,7.235 3.164,7.408 3.209 M12.013 4.647 C 11.957 4.687,10.373 6.257,8.493 8.135 L 5.075 11.549 8.016 11.550 L 10.958 11.550 11.078 11.490 C 11.144 11.457,11.250 11.373,11.314 11.304 C 11.417 11.191,11.434 11.156,11.477 10.973 C 11.631 10.315,12.439 6.207,12.565 5.442 C 12.604 5.207,12.603 5.199,12.555 5.042 C 12.501 4.861,12.373 4.706,12.208 4.623 L 12.115 4.575 12.013 4.647 " fill="#1A1C1F" stroke="none" fill-rule="evenodd"></path></svg>