<svg xmlns="http://www.w3.org/2000/svg" width="20" height="20" fill="none"><path fill="#1A1C1F" fill-rule="evenodd" d="M9.437 2.037a4.8 4.8 0 0 0-1.147.311c-.856.37-1.599 1.106-1.945 1.926-.2.474-.344 1.122-.345 1.548v.173l-.842.011c-.84.011-.842.011-1.012.101-.214.112-.425.349-.494.553-.083.242-.677 10.282-.624 10.539.071.339.361.654.697.755.127.038 1.173.046 6.275.046s6.148-.008 6.275-.046c.336-.101.626-.416.697-.755.053-.258-.54-10.297-.623-10.539-.071-.205-.282-.441-.495-.553-.17-.09-.172-.09-1.008-.101l-.836-.011-.02-.289a3.87 3.87 0 0 0-1.204-2.6c-.878-.831-2.084-1.215-3.349-1.069M10.45 4.05c.588.105 1.101.476 1.33.962.127.27.173.441.206.763l.023.225H7.991l.023-.225c.033-.328.079-.495.212-.769.36-.746 1.252-1.129 2.224-.956M8 9.343c0 .65.109 1.21.321 1.653.155.322.504.683.79.817.522.245 1.257.246 1.772.002.237-.112.565-.417.713-.661.252-.42.403-1.085.404-1.779V9h2v.468c0 .574-.045 1.01-.149 1.45-.329 1.384-1.293 2.463-2.572 2.877-.468.152-.717.188-1.279.188s-.811-.036-1.279-.188c-1.279-.414-2.243-1.493-2.572-2.877A6 6 0 0 1 6 9.468V9h2z"/></svg>