<svg xmlns="http://www.w3.org/2000/svg" width="20" height="20" fill="none"><g clip-path="url(#a)"><path fill="#1A1C1F" fill-rule="evenodd" d="M7.5 18c.689 0 1.25-.563 1.25-1.25S8.189 15.5 7.5 15.5c-.718 0-1.25.563-1.25 1.25S6.783 18 7.5 18m6.75 0c.689 0 1.25-.563 1.25-1.25s-.561-1.25-1.25-1.25c-.686 0-1.25.563-1.25 1.25S13.565 18 14.25 18M4.158 2c.938 0 1.688.656 1.906 1.594L6.158 4H16.75a.98.98 0 0 1 .969 1.219L16.657 9.78c-.187.75-.75 1.469-1.75 1.563l-7.312.687.187.969h6.969c.563 0 1 .438 1 1 0 .469-.438 1-1 1H7.845c-1.032 0-1.875-.688-2.032-1.594L4.126 4H3.25c-.563 0-1-.469-1-1s.469-1 1-1zM15.5 6h-9l.75 4.063 7.438-.72z" clip-rule="evenodd"/></g><defs><clipPath id="a"><path fill="#fff" d="M0 0h20v20H0z"/></clipPath></defs></svg>