<svg xmlns="http://www.w3.org/2000/svg" width="20" height="20" fill="none"><path fill="#1A1C1F" fill-rule="evenodd" d="M9.403 3.035a3.88 3.88 0 0 0-2.848 1.854c-.273.454-.461 1.06-.527 1.695l-.04.379-1.586.01-1.585.01-.185.087c-.252.118-.413.267-.516.478-.169.346-.197.162.682 4.585.442 2.228.827 4.12.855 4.206.066.202.278.441.493.554l.171.09h11.366l.164-.08c.197-.097.392-.285.484-.465.044-.087.337-1.512.871-4.243.653-3.339.801-4.145.786-4.291a1.05 1.05 0 0 0-.575-.82c-.211-.1-.49-.117-1.952-.117h-1.455l-.022-.259c-.084-1.006-.431-1.828-1.045-2.483a3.96 3.96 0 0 0-2.114-1.142 6.3 6.3 0 0 0-1.422-.048m1.052 2.015c.827.156 1.401.786 1.51 1.655l.035.286c0 .005-.902.009-2.004.009H7.991l.023-.208c.057-.516.212-.874.519-1.203.451-.482 1.166-.683 1.922-.539"/></svg>