<svg width="24" height="24" viewBox="0 0 24 24" fill="none" xmlns="http://www.w3.org/2000/svg"><path d="M2.762 2.646 C 2.176 3.005,2.080 3.712,2.552 4.198 C 2.671 4.321,2.798 4.409,2.900 4.438 C 2.988 4.463,3.446 4.500,3.917 4.520 L 4.774 4.556 4.937 4.673 C 5.027 4.737,5.149 4.869,5.210 4.965 C 5.333 5.162,5.335 5.171,6.297 10.580 C 7.014 14.610,7.225 15.719,7.322 15.966 C 7.579 16.616,8.196 17.165,8.940 17.402 L 9.220 17.492 13.624 17.510 C 17.961 17.529,18.031 17.528,18.209 17.449 C 18.623 17.266,18.893 16.899,18.893 16.520 C 18.893 16.162,18.708 15.874,18.342 15.659 L 18.149 15.546 13.804 15.520 C 10.538 15.501,9.438 15.482,9.371 15.446 C 9.322 15.420,9.264 15.364,9.242 15.323 C 9.195 15.235,8.971 14.134,8.953 13.900 L 8.940 13.740 9.327 13.692 C 9.539 13.665,11.258 13.471,13.147 13.261 C 18.090 12.709,18.858 12.613,19.139 12.511 C 19.465 12.392,19.916 12.083,20.157 11.812 C 20.537 11.385,20.591 11.235,21.095 9.199 C 21.769 6.478,21.782 6.413,21.722 6.075 C 21.620 5.503,21.253 5.029,20.702 4.758 L 20.442 4.630 13.849 4.609 L 7.257 4.588 7.145 4.235 C 6.943 3.599,6.529 3.111,5.950 2.829 C 5.461 2.591,5.324 2.569,4.094 2.539 L 2.980 2.513 2.762 2.646 M19.498 6.565 C 19.532 6.599,18.618 10.216,18.531 10.396 C 18.414 10.634,18.352 10.644,13.640 11.177 C 9.735 11.619,8.562 11.738,8.523 11.697 C 8.495 11.667,8.166 9.955,7.604 6.909 L 7.532 6.518 13.503 6.529 C 16.787 6.535,19.484 6.551,19.498 6.565 M8.720 19.044 C 8.340 19.118,7.903 19.539,7.796 19.934 C 7.733 20.167,7.773 20.559,7.883 20.787 C 8.331 21.711,9.667 21.707,10.120 20.780 C 10.266 20.480,10.261 20.024,10.108 19.713 C 9.865 19.217,9.279 18.935,8.720 19.044 M17.260 19.025 C 16.793 19.141,16.428 19.478,16.315 19.899 C 16.151 20.507,16.407 21.077,16.970 21.359 C 17.772 21.759,18.729 21.164,18.734 20.260 C 18.737 19.610,18.215 19.057,17.562 19.018 C 17.440 19.011,17.304 19.014,17.260 19.025 " fill="#1A1C1F" stroke="none" fill-rule="evenodd"></path></svg>