<svg xmlns="http://www.w3.org/2000/svg" width="32" height="32" fill="none"><g clip-path="url(#a)"><path fill="#1A1C1F" fill-rule="evenodd" d="M23.11 25.875a1.637 1.637 0 0 1 1.642 1.642c0 .874-.734 1.608-1.642 1.608a1.6 1.6 0 0 1-1.608-1.608c0-.908.699-1.642 1.608-1.642m-11.5 0a1.637 1.637 0 0 1 1.642 1.642c0 .874-.734 1.608-1.642 1.608a1.6 1.6 0 0 1-1.608-1.608c0-.908.699-1.642 1.608-1.642m-6.676-23c1.319 0 2.477.88 2.8 2.136l.197.879 17.142-.001 2.717-2.717a1 1 0 1 1 1.415 1.415q-10.995 11-21.996 21.995a1 1 0 1 1-1.414-1.414Q7.5 23.457 9.21 21.752l-.023-.094L5.928 5.826c-.156-.674-.577-.963-.994-.963H3.496a1 1 0 0 1-.994-.994 1 1 0 0 1 .994-.994zm19.065 19.008a1 1 0 0 1 .994.994 1 1 0 0 1-.994.995H12.722l1.989-1.989zm-11.772-3.148-1.602.17.254 1.178zM28.962 7.63c.03.217.024.442-.024.665l-1.732 6.794c-.257 1.187-1.219 2.085-2.406 2.31l-6.272.666 2.261-2.262 3.755-.393c.353-.096.61-.385.705-.77l1.135-4.433zm-5.878.248H8.334l1.86 9.04 4.303-.453z" clip-rule="evenodd"/></g><defs><clipPath id="a"><path fill="#fff" d="M0 0h32v32H0z"/></clipPath></defs></svg>