<svg width="12" height="12" viewBox="0 0 12 12" fill="none" xmlns="http://www.w3.org/2000/svg"><path d="M5.740 1.511 C 5.713 1.516,5.623 1.530,5.540 1.542 C 5.233 1.587,4.851 1.744,4.585 1.933 C 4.018 2.337,3.658 2.994,3.607 3.722 L 3.594 3.894 2.617 3.905 C 1.669 3.916,1.637 3.918,1.551 3.960 C 1.424 4.021,1.268 4.198,1.231 4.322 C 1.182 4.487,1.179 4.465,1.691 7.024 L 2.046 8.799 1.675 9.179 C 1.250 9.614,1.212 9.673,1.211 9.890 C 1.211 10.062,1.241 10.152,1.341 10.278 C 1.453 10.421,1.604 10.490,1.800 10.490 C 1.907 10.489,1.972 10.478,2.028 10.451 C 2.073 10.429,2.418 10.108,2.848 9.688 C 3.944 8.619,9.358 3.189,9.607 2.910 C 9.875 2.609,9.903 2.555,9.878 2.380 C 9.851 2.188,9.827 2.132,9.724 2.018 C 9.594 1.873,9.514 1.841,9.279 1.840 C 9.102 1.840,9.081 1.844,8.999 1.897 C 8.950 1.929,8.735 2.122,8.522 2.327 C 8.309 2.532,8.128 2.700,8.121 2.700 C 8.114 2.700,8.071 2.644,8.026 2.575 C 7.673 2.039,7.118 1.673,6.472 1.549 C 6.313 1.519,5.838 1.494,5.740 1.511 M6.476 2.785 C 6.820 2.929,7.072 3.219,7.158 3.568 L 7.182 3.667 7.067 3.783 L 6.951 3.900 5.886 3.900 L 4.820 3.900 4.820 3.805 C 4.822 3.417,5.054 3.023,5.384 2.850 C 5.605 2.733,5.669 2.721,6.030 2.727 C 6.324 2.732,6.360 2.736,6.476 2.785 M9.935 4.316 L 9.533 4.716 9.151 6.703 L 8.769 8.690 7.157 8.700 L 5.544 8.710 4.947 9.300 L 4.350 9.890 6.867 9.895 C 9.317 9.900,9.386 9.899,9.471 9.861 C 9.571 9.817,9.749 9.658,9.792 9.575 C 9.835 9.492,9.888 9.244,10.228 7.510 C 10.763 4.783,10.815 4.494,10.788 4.370 C 10.758 4.230,10.651 4.087,10.509 3.995 C 10.348 3.891,10.378 3.874,9.935 4.316 M4.428 6.420 C 3.701 7.146,3.097 7.740,3.086 7.740 C 3.069 7.740,2.560 5.240,2.560 5.154 C 2.560 5.134,2.583 5.120,2.625 5.114 C 2.661 5.110,3.379 5.105,4.220 5.103 L 5.750 5.101 4.428 6.420 " fill="#1A1C1F" stroke="none" fill-rule="evenodd"></path></svg>