<svg xmlns="http://www.w3.org/2000/svg" width="20" height="20" fill="none"><g clip-path="url(#a)"><path fill="#1A1C1F" fill-rule="evenodd" d="M9.968 3c2.37 0 4.02 1.723 4.02 3.978h2.994c.624 0 1.122.595.998 1.221l-1.56 7.987c-.093.47-.53.814-.997.814H4.575a1 1 0 0 1-.967-.814l-1.59-7.987a1.033 1.033 0 0 1 .999-1.221h2.992C6.009 4.754 7.629 3 9.968 3m.03 2c-1.246 0-1.994.846-1.994 2.004h3.99c0-1.158-.78-2.004-1.995-2.004" clip-rule="evenodd"/></g><defs><clipPath id="a"><path fill="#fff" d="M0 0h20v20H0z"/></clipPath></defs></svg>