<svg xmlns="http://www.w3.org/2000/svg" width="12" height="12" fill="none"><g clip-path="url(#a)"><path fill="#1A1C1F" fill-rule="evenodd" d="M4.5 10.8c.413 0 .75-.338.75-.75a.752.752 0 0 0-1.038-.696.74.74 0 0 0-.462.696c0 .412.32.75.75.75m4.05 0c.413 0 .75-.338.75-.75a.75.75 0 0 0-.75-.75.75.75 0 0 0-.75.75c0 .412.338.75.75.75M2.494 1.2c.562 0 1.012.394 1.143.956l.057.244h6.356c.394 0 .675.356.581.731L9.994 5.87c-.113.45-.45.881-1.05.937l-4.388.413.113.581H8.85c.338 0 .6.263.6.6 0 .281-.263.6-.6.6H4.706c-.619 0-1.125-.412-1.219-.956L2.475 2.4H1.95a.604.604 0 0 1-.6-.6c0-.319.281-.6.6-.6zM9.3 3.6H3.9l.45 2.437 4.462-.43z" clip-rule="evenodd"/></g><defs><clipPath id="a"><path fill="#fff" d="M0 0h12v12H0z"/></clipPath></defs></svg>