<svg xmlns="http://www.w3.org/2000/svg" width="16" height="16" fill="none"><g clip-path="url(#a)"><path fill="#1A1C1F" fill-rule="evenodd" d="M7.975 2.4c1.895 0 3.217 1.378 3.217 3.182h2.395c.498 0 .897.476.798.977l-1.247 6.39a.83.83 0 0 1-.798.651H3.66a.8.8 0 0 1-.773-.651l-1.272-6.39c-.1-.5.3-.977.798-.977h2.395c0-1.779 1.297-3.182 3.167-3.182M8 4c-.998 0-1.596.677-1.596 1.604h3.192C9.596 4.677 8.973 4 8 4" clip-rule="evenodd"/></g><defs><clipPath id="a"><path fill="#fff" d="M0 0h16v16H0z"/></clipPath></defs></svg>