<svg width="20" height="20" viewBox="0 0 20 20" fill="none" xmlns="http://www.w3.org/2000/svg"><path d="M9.550 2.521 C 8.421 2.649,7.443 3.186,6.811 4.025 C 6.350 4.638,6.061 5.423,6.010 6.203 L 5.991 6.490 4.369 6.508 L 2.748 6.525 2.579 6.611 C 2.327 6.738,2.120 6.985,2.051 7.241 C 1.997 7.442,1.998 7.466,2.066 7.867 C 2.156 8.392,2.348 9.378,2.937 12.327 L 3.404 14.672 2.792 15.296 C 2.079 16.022,2.019 16.115,2.018 16.500 C 2.016 16.796,2.095 16.987,2.304 17.196 C 2.554 17.447,2.897 17.547,3.229 17.468 C 3.365 17.435,3.459 17.375,3.691 17.173 C 4.055 16.856,12.759 8.177,14.853 6.043 C 16.354 4.513,16.399 4.463,16.453 4.278 C 16.587 3.816,16.374 3.340,15.933 3.117 C 15.797 3.048,15.722 3.033,15.493 3.034 C 15.249 3.034,15.197 3.045,15.048 3.131 C 14.956 3.184,14.583 3.514,14.219 3.864 C 13.856 4.214,13.546 4.500,13.532 4.500 C 13.518 4.500,13.469 4.436,13.423 4.358 C 13.298 4.147,12.934 3.723,12.695 3.509 C 12.232 3.096,11.568 2.752,10.981 2.621 C 10.780 2.576,9.849 2.492,9.700 2.506 C 9.672 2.508,9.605 2.515,9.550 2.521 M10.580 4.584 C 11.205 4.747,11.681 5.201,11.890 5.834 L 11.978 6.103 11.782 6.302 L 11.585 6.500 9.792 6.500 L 7.998 6.500 8.019 6.325 C 8.086 5.769,8.240 5.402,8.540 5.082 C 8.778 4.827,9.147 4.626,9.517 4.550 C 9.795 4.493,10.290 4.508,10.580 4.584 M17.113 6.663 C 17.042 6.716,16.736 7.009,16.433 7.313 L 15.883 7.867 15.248 11.175 L 14.613 14.483 11.931 14.492 L 9.249 14.500 8.250 15.501 L 7.250 16.501 11.467 16.492 C 16.247 16.482,15.784 16.512,16.120 16.194 C 16.323 16.002,16.352 15.932,16.497 15.263 C 16.695 14.349,17.895 8.170,17.970 7.674 C 18.007 7.432,18.005 7.377,17.956 7.222 C 17.893 7.021,17.726 6.811,17.516 6.666 C 17.336 6.542,17.277 6.542,17.113 6.663 M7.360 10.724 C 6.137 11.947,5.129 12.940,5.121 12.932 C 5.113 12.924,4.918 11.957,4.687 10.783 C 4.456 9.610,4.259 8.616,4.249 8.575 L 4.232 8.500 6.908 8.500 L 9.583 8.500 7.360 10.724 " fill="#1A1C1F" stroke="none" fill-rule="evenodd"></path></svg>