<svg xmlns="http://www.w3.org/2000/svg" width="28" height="28" fill="none"><g clip-path="url(#a)"><path fill="#1A1C1F" fill-rule="evenodd" d="M20.448 25.485c.795 0 1.437-.642 1.437-1.407 0-.795-.642-1.437-1.437-1.437s-1.407.642-1.407 1.437c0 .765.612 1.407 1.407 1.407m-10.063 0c.795 0 1.437-.642 1.437-1.407 0-.795-.642-1.437-1.437-1.437s-1.406.642-1.406 1.437c0 .765.61 1.407 1.406 1.407M4.544 2.516c1.207 0 2.259.842 2.483 2.02l.14.618h16.668c1.123 0 1.937 1.066 1.712 2.105l-1.515 5.944c-.225 1.039-1.066 1.825-2.105 2.021L9.523 16.543l.424 1.96c.084.392.45.645.842.645h10.437c.477 0 .87.393.87.87s-.393.87-.87.87H10.802c-1.347 0-2.33-.842-2.554-2.02L5.414 5.097c-.137-.59-.505-.842-.87-.842H3.286a.874.874 0 0 1-.87-.87c0-.477.393-.87.87-.87zm19.29 4.378H7.52l1.627 7.91 12.557-1.32c.308-.084.533-.337.617-.674z" clip-rule="evenodd"/></g><defs><clipPath id="a"><path fill="#fff" d="M0 0h28v28H0z"/></clipPath></defs></svg>