<svg width="12" height="12" viewBox="0 0 12 12" fill="none" xmlns="http://www.w3.org/2000/svg"><path d="M5.650 1.521 C 5.195 1.584,4.758 1.772,4.440 2.045 C 3.984 2.434,3.726 2.915,3.630 3.550 C 3.614 3.660,3.600 3.778,3.600 3.813 L 3.600 3.876 2.655 3.884 C 1.628 3.894,1.628 3.894,1.459 4.011 C 1.361 4.079,1.268 4.217,1.228 4.354 C 1.188 4.492,1.185 4.478,1.662 6.875 L 2.045 8.799 1.675 9.179 C 1.250 9.614,1.212 9.673,1.211 9.890 C 1.211 10.062,1.241 10.152,1.341 10.278 C 1.453 10.421,1.604 10.490,1.800 10.490 C 1.907 10.489,1.972 10.478,2.028 10.451 C 2.073 10.429,2.418 10.108,2.848 9.688 C 3.944 8.619,9.358 3.189,9.607 2.910 C 9.877 2.607,9.903 2.556,9.877 2.375 C 9.843 2.129,9.737 1.971,9.546 1.878 C 9.417 1.815,9.163 1.815,9.034 1.878 C 8.975 1.907,8.798 2.063,8.534 2.321 L 8.125 2.719 8.015 2.554 C 7.671 2.039,7.148 1.689,6.530 1.558 C 6.317 1.513,5.853 1.494,5.650 1.521 M6.320 2.744 C 6.706 2.819,7.029 3.131,7.150 3.548 L 7.184 3.665 7.068 3.782 L 6.951 3.900 5.877 3.900 L 4.802 3.900 4.813 3.795 C 4.841 3.522,4.950 3.249,5.100 3.076 C 5.249 2.904,5.505 2.763,5.747 2.721 C 5.864 2.700,6.157 2.712,6.320 2.744 M7.348 6.902 L 4.350 9.901 6.860 9.894 C 8.913 9.889,9.386 9.883,9.460 9.860 C 9.587 9.822,9.782 9.625,9.827 9.490 C 9.864 9.378,9.965 8.874,10.340 6.930 C 10.812 4.480,10.808 4.505,10.783 4.381 C 10.744 4.192,10.574 3.990,10.395 3.922 C 10.350 3.905,10.140 4.110,7.348 6.902 " fill="#1A1C1F" stroke="none" fill-rule="evenodd"></path></svg>