<svg xmlns="http://www.w3.org/2000/svg" width="20" height="20" fill="none"><path fill="#1A1C1F" fill-rule="evenodd" d="M9.419 2.533a3.8 3.8 0 0 0-2.29 1.122c-.644.662-1 1.447-1.1 2.428l-.038.38-1.587.01-1.587.01-.185.087c-.252.118-.413.267-.516.478-.168.344-.187.207.583 4.082l.705 3.547-.617.62c-.676.68-.75.789-.778 1.151-.045.576.46 1.082 1.043 1.046.423-.027-.012.385 6.936-6.568 6.14-6.144 6.374-6.383 6.432-6.559.169-.509-.037-1.024-.501-1.251a1.06 1.06 0 0 0-.969.06c-.055.037-.398.361-.762.72-.412.407-.668.637-.679.61a4 4 0 0 0-.186-.299c-.561-.838-1.463-1.425-2.498-1.624-.33-.063-1.086-.09-1.406-.05m1.031 2.016a1.85 1.85 0 0 1 1.466 1.367l.051.199-.191.192-.191.193H7.993l.023-.208c.057-.52.209-.874.517-1.203.45-.481 1.168-.683 1.917-.54m1.797 6.954L7.25 16.501l4.217-.009 4.216-.009.164-.08c.197-.097.392-.285.484-.466.046-.088.334-1.493.872-4.243.639-3.268.8-4.146.786-4.283-.039-.393-.272-.7-.659-.867-.084-.037-.222.098-5.083 4.959"/></svg>