<svg width="24" height="24" viewBox="0 0 24 24" fill="none" xmlns="http://www.w3.org/2000/svg"><path d="M20.260 2.397 C 20.138 2.469,19.609 2.967,18.900 3.677 L 17.741 4.840 12.495 4.840 L 7.249 4.840 7.202 4.650 C 7.177 4.546,7.083 4.309,6.994 4.125 C 6.774 3.667,6.427 3.321,5.957 3.088 C 5.424 2.825,5.186 2.787,4.000 2.783 L 2.980 2.780 2.764 2.902 C 2.352 3.136,2.166 3.568,2.293 4.001 C 2.369 4.264,2.583 4.529,2.813 4.646 C 2.957 4.720,3.082 4.734,3.850 4.762 L 4.724 4.794 4.923 4.922 C 5.037 4.995,5.164 5.121,5.219 5.216 C 5.334 5.411,5.370 5.601,6.397 11.399 L 7.116 15.457 5.766 16.819 C 5.000 17.592,4.388 18.242,4.350 18.323 C 4.239 18.561,4.223 18.775,4.299 19.008 C 4.385 19.271,4.486 19.415,4.688 19.561 C 4.924 19.732,5.217 19.781,5.529 19.701 L 5.780 19.638 11.753 13.669 C 15.038 10.386,18.605 6.807,19.678 5.716 C 21.460 3.905,21.636 3.714,21.698 3.525 C 21.781 3.275,21.756 3.062,21.609 2.790 C 21.430 2.456,21.120 2.280,20.711 2.280 C 20.507 2.281,20.423 2.302,20.260 2.397 M20.315 7.912 L 18.893 9.324 18.805 9.712 C 18.596 10.636,18.497 10.843,18.235 10.895 C 18.167 10.909,17.907 10.941,17.657 10.967 L 17.204 11.014 16.092 12.136 C 15.083 13.154,14.990 13.258,15.086 13.271 C 15.295 13.298,18.643 12.903,18.960 12.815 C 19.365 12.701,19.718 12.485,20.060 12.141 C 20.533 11.665,20.579 11.552,20.998 9.860 C 21.532 7.706,21.766 6.685,21.751 6.587 C 21.739 6.516,21.483 6.752,20.315 7.912 M13.308 9.272 L 10.837 11.743 9.690 11.871 C 9.059 11.941,8.530 11.985,8.515 11.969 C 8.488 11.940,7.560 6.978,7.560 6.862 C 7.560 6.807,7.993 6.800,11.670 6.800 L 15.780 6.800 13.308 9.272 M11.481 16.739 C 10.815 17.406,10.555 17.691,10.585 17.721 C 10.651 17.787,18.049 17.753,18.251 17.686 C 18.600 17.570,18.894 17.147,18.892 16.762 C 18.892 16.640,18.864 16.475,18.830 16.396 C 18.750 16.207,18.532 15.992,18.312 15.886 C 18.136 15.801,18.116 15.800,15.277 15.800 L 12.419 15.800 11.481 16.739 M8.364 19.859 L 7.749 20.482 7.773 20.685 C 7.801 20.923,7.944 21.184,8.168 21.408 C 8.466 21.706,8.860 21.811,9.281 21.703 C 10.046 21.507,10.440 20.696,10.121 19.974 C 9.972 19.636,9.545 19.326,9.139 19.262 L 8.978 19.236 8.364 19.859 M16.980 19.372 C 16.474 19.615,16.174 20.188,16.282 20.709 C 16.348 21.031,16.444 21.200,16.679 21.412 C 17.196 21.877,17.933 21.844,18.397 21.335 C 18.955 20.725,18.785 19.767,18.055 19.402 C 17.761 19.255,17.254 19.241,16.980 19.372 " fill="#1A1C1F" stroke="none" fill-rule="evenodd"></path></svg>