<svg width="16" height="16" viewBox="0 0 16 16" fill="none" xmlns="http://www.w3.org/2000/svg"><path d="M7.533 2.031 C 6.842 2.119,6.116 2.483,5.658 2.973 C 5.471 3.172,5.273 3.456,5.149 3.702 C 4.961 4.074,4.801 4.704,4.800 5.069 L 4.800 5.192 3.498 5.207 C 2.415 5.219,2.180 5.229,2.099 5.263 C 1.962 5.320,1.747 5.529,1.677 5.672 C 1.563 5.908,1.568 5.940,2.241 9.323 L 2.722 11.738 2.233 12.237 C 1.664 12.817,1.615 12.892,1.614 13.200 C 1.613 13.437,1.676 13.590,1.843 13.757 C 2.044 13.957,2.318 14.038,2.583 13.974 C 2.692 13.948,2.767 13.900,2.953 13.738 C 3.243 13.486,11.015 5.734,12.225 4.491 C 13.029 3.664,13.113 3.569,13.155 3.441 C 13.275 3.069,13.122 2.695,12.774 2.509 C 12.617 2.426,12.599 2.422,12.365 2.431 C 12.139 2.439,12.110 2.447,11.995 2.527 C 11.926 2.575,11.640 2.836,11.358 3.107 C 11.077 3.378,10.838 3.600,10.826 3.600 C 10.814 3.600,10.775 3.549,10.738 3.487 C 10.637 3.315,10.336 2.964,10.151 2.802 C 9.781 2.476,9.284 2.217,8.822 2.108 C 8.700 2.079,8.420 2.043,8.200 2.028 C 7.756 1.998,7.791 1.998,7.533 2.031 M8.464 3.667 C 8.964 3.797,9.345 4.161,9.512 4.667 L 9.583 4.882 9.425 5.041 L 9.268 5.200 7.832 5.200 L 6.395 5.200 6.413 5.060 C 6.471 4.610,6.593 4.321,6.832 4.065 C 7.022 3.862,7.317 3.701,7.613 3.640 C 7.836 3.594,8.232 3.607,8.464 3.667 M13.691 5.331 C 13.633 5.373,13.389 5.607,13.147 5.851 L 12.707 6.293 12.198 8.940 L 11.690 11.587 9.545 11.593 L 7.399 11.600 6.600 12.401 L 5.800 13.201 9.173 13.194 L 12.547 13.187 12.670 13.126 C 12.833 13.046,13.054 12.811,13.091 12.677 C 13.190 12.331,14.344 6.432,14.390 6.042 C 14.421 5.779,14.282 5.518,14.013 5.333 C 13.869 5.234,13.821 5.233,13.691 5.331 M5.907 8.560 C 4.939 9.528,4.134 10.320,4.118 10.320 C 4.102 10.320,3.946 9.604,3.749 8.620 C 3.562 7.685,3.403 6.893,3.395 6.860 L 3.381 6.800 5.524 6.800 L 7.667 6.800 5.907 8.560 " fill="#1A1C1F" stroke="none" fill-rule="evenodd"></path></svg>