<svg xmlns="http://www.w3.org/2000/svg" width="12" height="12" fill="none"><g clip-path="url(#a)"><path fill="#1A1C1F" fill-rule="evenodd" d="M5.983 1.498c.977 0 1.75.488 2.14 1.232l.755-.756a.6.6 0 0 1 .848.848 13292 13292 0 0 1-7.5 7.5.6.6 0 1 1-.849-.848q.333-.337.67-.67l-.834-4.186a.62.62 0 0 1 .598-.733h1.796c0-1.335.973-2.387 2.376-2.387m4.356 2.405c.301.08.516.39.451.715l-.935 4.79a.62.62 0 0 1-.598.49H4.344zM6.002 2.698c-.748 0-1.197.507-1.197 1.203H6.95l.231-.23c-.092-.575-.533-.973-1.179-.973" clip-rule="evenodd"/></g><defs><clipPath id="a"><path fill="#fff" d="M0 0h12v12H0z"/></clipPath></defs></svg>