<svg xmlns="http://www.w3.org/2000/svg" width="24" height="24" fill="none"><g clip-path="url(#a)"><path fill="#1A1C1F" fill-rule="evenodd" d="M12 2.5c2.188 0 3.969 1.563 3.969 4h2.03c.5 0 .939.406.97.938l1.061 12.968c.032.594-.437 1.094-1 1.094H4.97c-.563 0-1.032-.5-1-1.094L5 7.438A.995.995 0 0 1 6 6.5h2c0-2.438 1.813-4 4-4m5.063 6H6.905l-.844 11h11.875zm-5.094-4c-1.125 0-1.97.844-1.97 2h3.97c0-1.25-.938-2-2-2m2 7c0 1.188-.875 2-1.97 2-1.03 0-2.03-.75-2.03-2 0-.563-.47-1-.97-1-.562 0-1 .438-1 1 0 2.219 1.782 4 3.97 4 2.219 0 4-1.781 4-4 0-.563-.47-1-1-1-.563 0-1 .438-1 1" clip-rule="evenodd"/></g><defs><clipPath id="a"><path fill="#fff" d="M0 0h24v24H0z"/></clipPath></defs></svg>