<svg xmlns="http://www.w3.org/2000/svg" width="28" height="28" fill="none"><g clip-path="url(#a)"><path fill="#1A1C1F" fill-rule="evenodd" d="M20.221 22.64c.795 0 1.437.642 1.437 1.438 0 .765-.642 1.407-1.437 1.407a1.404 1.404 0 0 1-1.407-1.407c0-.796.612-1.437 1.407-1.437m-10.063 0c.795 0 1.437.642 1.437 1.438 0 .765-.642 1.407-1.437 1.407a1.403 1.403 0 0 1-1.406-1.407c0-.796.611-1.437 1.406-1.437M4.318 2.517c1.153 0 2.166.77 2.45 1.869l.171.769h15l2.377-2.378a.876.876 0 0 1 1.238 1.237A53976 53976 0 0 1 6.308 23.26a.875.875 0 0 1-1.429-.954.9.9 0 0 1 .19-.285q1.491-1.495 2.99-2.988l-.02-.082L5.186 5.098c-.137-.59-.505-.843-.87-.843H3.06a.874.874 0 0 1-.87-.87c0-.476.393-.87.87-.87zm16.681 16.632c.477 0 .87.393.87.87 0 .476-.393.87-.87.87h-9.868l1.74-1.74zm-10.3-2.756-1.403.15.223 1.03zm14.643-9.715q.04.287-.022.582l-1.515 5.944c-.225 1.039-1.066 1.825-2.105 2.02l-5.488.583 1.978-1.978 3.286-.344c.308-.085.533-.338.617-.675l.993-3.878zm-5.144.217H7.292l1.627 7.91 3.766-.398z" clip-rule="evenodd"/></g><defs><clipPath id="a"><path fill="#fff" d="M0 0h28v28H0z"/></clipPath></defs></svg>