<svg xmlns="http://www.w3.org/2000/svg" width="14" height="14" fill="none"><g clip-path="url(#a)"><path fill="#1A1C1F" fill-rule="evenodd" d="M5.25 12.6a.88.88 0 0 0 .875-.875.878.878 0 0 0-1.686-.337.9.9 0 0 0-.064.337c0 .481.372.875.875.875m4.725 0a.877.877 0 0 0 .875-.875.877.877 0 0 0-.875-.875.88.88 0 0 0-.875.875c0 .481.394.875.875.875M2.91 1.4c.657 0 1.182.46 1.335 1.116l.065.284h7.416c.46 0 .787.416.678.853l-.744 3.194c-.13.525-.525 1.028-1.225 1.094l-5.118.48.13.679h4.88c.393 0 .7.306.7.7 0 .328-.307.7-.7.7H5.49c-.722 0-1.313-.481-1.422-1.116L2.887 2.8h-.612a.705.705 0 0 1-.7-.7c0-.372.328-.7.7-.7zm7.941 2.8h-6.3l.525 2.844 5.206-.503z" clip-rule="evenodd"/></g><defs><clipPath id="a"><path fill="#fff" d="M0 0h14v14H0z"/></clipPath></defs></svg>