<svg xmlns="http://www.w3.org/2000/svg" width="32" height="32" fill="none"><path fill="#1A1C1F" fill-rule="evenodd" d="M3.12 2.955c-.723.32-.82 1.299-.171 1.729.211.139.24.143 1.238.169.999.026 1.026.03 1.238.171.147.097.262.236.353.427.101.212.544 2.276 1.78 8.294l1.646 8.012-1.776 1.775c-1.921 1.92-1.975 1.99-1.921 2.468.075.67.828 1.083 1.415.777.114-.059 4.939-4.848 11.326-11.24C27.406 6.371 29.387 4.363 29.441 4.194a1 1 0 0 0-.829-1.296c-.461-.063-.566.014-2.132 1.581L25.041 5.92h-8.544c-8.09 0-8.545-.005-8.57-.093a21 21 0 0 1-.137-.563c-.06-.258-.171-.6-.247-.76-.363-.767-1.088-1.339-1.958-1.544-.444-.105-2.232-.108-2.465-.005m24.527 6.017-1.286 1.295-.57 2.233c-.313 1.229-.616 2.325-.672 2.436-.132.258-.346.409-.673.474-.143.028-1.015.127-1.939.219l-1.68.168-1.132 1.126a46 46 0 0 0-1.12 1.134c.035.028 6.291-.669 6.492-.723.704-.189 1.512-.832 1.852-1.474.242-.456 2.054-7.528 2.03-7.921l-.016-.261zm-8.874 3.211-4.293 4.291-2.123.222c-1.167.123-2.133.213-2.146.2s-.42-1.95-.905-4.305c-.484-2.354-.902-4.374-.928-4.489l-.047-.209h14.736zm-7.198 7.202c-.365.366-.672.656-.683.644a15 15 0 0 1-.258-1.103 23 23 0 0 1 .779-.099c.426-.051.785-.096.8-.1.014-.004-.273.292-.638.658m2.158 3.495-1.013 1.015 5.76-.014 5.76-.014.241-.142c.385-.226.583-.673.475-1.073-.083-.307-.231-.499-.494-.64l-.222-.119-4.747-.014-4.746-.015zm-2.536 3.056c-.731.207-1.192.834-1.186 1.612.003.453.172.816.532 1.145.655.598 1.591.566 2.234-.076.962-.963.338-2.611-1.032-2.724a1.9 1.9 0 0 0-.548.043m11.55-.022c-.886.233-1.432 1.18-1.18 2.045.341 1.175 1.827 1.549 2.697.678.44-.439.583-1.025.401-1.638-.107-.36-.515-.811-.875-.966-.295-.127-.797-.184-1.043-.119"/></svg>