<svg xmlns="http://www.w3.org/2000/svg" width="12" height="12" fill="none"><g clip-path="url(#a)"><path fill="#1A1C1F" fill-rule="evenodd" d="M4.944 9.595a.745.745 0 0 1 .042.85.75.75 0 0 1-1.095.204zm3.454-.296c.413 0 .75.337.75.75 0 .412-.337.75-.75.75a.75.75 0 0 1-.75-.75c0-.413.338-.75.75-.75m-6.056-8.1c.562 0 1.012.394 1.143.956l.057.244h5.205l.74-.74.29-.287a.6.6 0 0 1 .85.006c.214.217.253.606-.007.848q-.141.143-7.796 7.799a.601.601 0 0 1-.85-.848Q2.635 8.51 3.3 7.849l-.977-5.45h-.525a.604.604 0 0 1-.6-.6c0-.32.281-.6.6-.6zm6.356 6.6c.338 0 .6.263.6.6 0 .28-.263.6-.6.6H5.54l1.2-1.2zm1.5-3.457-.356 1.527c-.113.45-.45.88-1.05.937l-1.168.11zm-2.65-.743h-3.8l.45 2.437 1.012-.098z" clip-rule="evenodd"/></g><defs><clipPath id="a"><path fill="#fff" d="M0 0h12v12H0z"/></clipPath></defs></svg>