<svg xmlns="http://www.w3.org/2000/svg" width="32" height="32" fill="none"><g clip-path="url(#a)"><path fill="#1A1C1F" fill-rule="evenodd" d="M16.015 2.985c4.418 0 7.978 3.591 7.978 8.04h3.813a1.993 1.993 0 0 1 1.97 2.354l-2.478 13.189c-.254 1.365-1.399 2.447-2.765 2.447H7.689a3 3 0 0 1-2.956-2.448l-2.51-13.19a1.997 1.997 0 0 1 1.97-2.35h3.845c0-4.419 3.56-8.042 7.977-8.042m11.791 10.012H4.193l2.51 13.19c.096.476.509.825.986.825h16.685c.477 0 .89-.35.985-.826zm-11.79-8.01c-3.306 0-5.975 2.702-5.975 6.04H21.99c0-3.307-2.67-6.04-5.976-6.04z" clip-rule="evenodd"/></g><defs><clipPath id="a"><path fill="#fff" d="M0 0h32v32H0z"/></clipPath></defs></svg>