<svg xmlns="http://www.w3.org/2000/svg" width="20" height="20" fill="none"><g clip-path="url(#a)"><path fill="#1A1C1F" fill-rule="evenodd" d="M9.969 2.5c1.627 0 2.917.813 3.564 2.053l1.26-1.26a1 1 0 0 1 1.413 1.414 20236 20236 0 0 1-12.5 12.5.999.999 0 1 1-1.414-1.414q.555-.56 1.115-1.117L2.019 7.699a1.033 1.033 0 0 1 .999-1.221H6.01C6.01 4.254 7.63 2.5 9.969 2.5m7.26 4.009c.5.13.86.649.752 1.19l-1.56 7.987c-.093.47-.53.814-.997.814H7.236zm-7.23-2.01c-1.247 0-1.995.847-1.995 2.005h3.576l.384-.383C11.813 5.164 11.077 4.5 10 4.5" clip-rule="evenodd"/></g><defs><clipPath id="a"><path fill="#fff" d="M0 0h20v20H0z"/></clipPath></defs></svg>