<svg xmlns="http://www.w3.org/2000/svg" width="24" height="24" fill="none"><g clip-path="url(#a)"><path fill="#1A1C1F" fill-rule="evenodd" d="M8.986 19.25h.012c.688 0 1.25.563 1.25 1.25s-.563 1.25-1.25 1.25c-.645 0-1.18-.494-1.244-1.123l-.005-.138zm8.512 0c.688 0 1.25.563 1.25 1.25s-.563 1.25-1.25 1.25-1.25-.563-1.25-1.25.563-1.25 1.25-1.25m3.953-16.706c.36.36.425.987 0 1.414A31233 31233 0 0 1 5.955 19.457a1 1 0 0 1-1.414 0 1.006 1.006 0 0 1 0-1.414q1.287-1.293 2.58-2.581L5.372 5.594a.975.975 0 0 0-.969-.844H3.248c-.563 0-1-.438-1-1 0-.531.438-1 1-1h1.156c1.314 0 2.532.5 2.844 2.094l10.488-.001 2.3-2.3a1 1 0 0 1 1.415 0M12.453 15.78h5.42c.563 0 1.031.438 1.031 1 0 .532-.468.969-1.03.969h-7.388zm9.296-9.3q.011.21-.032.425l-.969 4a2.52 2.52 0 0 1-2.188 2l-3.633.4 2.29-2.291.97-.11a.51.51 0 0 0 .417-.326l.306-1.26 2.84-2.837zm-5.949.299H7.53L8.498 12l2.35-.266z" clip-rule="evenodd"/></g><defs><clipPath id="a"><path fill="#fff" d="M0 0h24v24H0z"/></clipPath></defs></svg>