<svg xmlns="http://www.w3.org/2000/svg" width="14" height="14" fill="none"><g clip-path="url(#a)"><path fill="#1A1C1F" fill-rule="evenodd" d="M6.978 1.75c1.14 0 2.042.569 2.495 1.437l.882-.882a.7.7 0 1 1 .99.99q-4.373 4.377-8.75 8.75a.7.7 0 1 1-.99-.99l.78-.782-.972-4.883a.723.723 0 0 1 .7-.855h2.094c0-1.557 1.133-2.785 2.771-2.785m5.082 2.806a.726.726 0 0 1 .527.833l-1.092 5.591a.72.72 0 0 1-.698.57H5.065zM7 3.15c-.873 0-1.397.592-1.397 1.403h2.503l.27-.268C8.268 3.615 7.754 3.15 7 3.15" clip-rule="evenodd"/></g><defs><clipPath id="a"><path fill="#fff" d="M0 0h14v14H0z"/></clipPath></defs></svg>