<svg width="16" height="16" viewBox="0 0 16 16" fill="none" xmlns="http://www.w3.org/2000/svg"><path d="M7.253 2.077 C 6.259 2.298,5.447 2.970,5.064 3.891 C 4.952 4.160,4.861 4.532,4.822 4.878 L 4.790 5.165 3.507 5.180 C 2.242 5.194,2.221 5.195,2.105 5.254 C 1.861 5.378,1.711 5.552,1.642 5.791 C 1.601 5.929,1.601 5.963,1.639 6.204 C 1.692 6.535,1.876 7.485,2.350 9.863 L 2.723 11.739 2.261 12.210 C 2.008 12.468,1.767 12.729,1.726 12.789 C 1.446 13.202,1.682 13.813,2.180 13.963 C 2.472 14.051,2.654 13.998,2.954 13.738 C 3.243 13.486,11.017 5.732,12.225 4.491 C 13.029 3.664,13.113 3.569,13.155 3.441 C 13.275 3.069,13.122 2.695,12.774 2.509 C 12.617 2.426,12.599 2.422,12.365 2.431 C 12.140 2.439,12.110 2.447,11.996 2.526 C 11.928 2.573,11.641 2.834,11.358 3.106 C 11.076 3.378,10.836 3.600,10.825 3.600 C 10.814 3.600,10.775 3.548,10.737 3.485 C 10.448 2.990,9.872 2.501,9.302 2.264 C 8.862 2.081,8.681 2.048,8.053 2.037 C 7.564 2.029,7.447 2.035,7.253 2.077 M8.466 3.668 C 8.980 3.801,9.397 4.219,9.530 4.733 L 9.572 4.893 9.420 5.047 L 9.268 5.200 7.831 5.200 L 6.394 5.200 6.412 5.047 C 6.506 4.257,6.956 3.760,7.695 3.627 C 7.868 3.595,8.271 3.617,8.466 3.668 M9.799 9.202 L 5.800 13.201 9.173 13.194 L 12.547 13.187 12.683 13.115 C 12.858 13.022,13.051 12.807,13.104 12.646 C 13.142 12.528,13.359 11.443,13.907 8.627 C 14.264 6.790,14.377 6.159,14.381 5.987 C 14.387 5.702,14.219 5.428,13.953 5.286 L 13.797 5.203 9.799 9.202 " fill="#1A1C1F" stroke="none" fill-rule="evenodd"></path></svg>