<svg xmlns="http://www.w3.org/2000/svg" width="14" height="14" fill="none"><g clip-path="url(#a)"><path fill="#1A1C1F" fill-rule="evenodd" d="M6.978 2.1c1.659 0 2.815 1.206 2.815 2.784h2.095c.437 0 .786.417.698.855l-1.091 5.591a.72.72 0 0 1-.698.57H3.202a.7.7 0 0 1-.677-.57L1.413 5.74a.723.723 0 0 1 .698-.856h2.096c0-1.556 1.133-2.784 2.77-2.784M7 3.5c-.873 0-1.397.592-1.397 1.403h2.794C8.397 4.092 7.849 3.5 7 3.5" clip-rule="evenodd"/></g><defs><clipPath id="a"><path fill="#fff" d="M0 0h14v14H0z"/></clipPath></defs></svg>