<svg xmlns="http://www.w3.org/2000/svg" width="24" height="24" fill="none"><g clip-path="url(#a)"><path fill="#1A1C1F" fill-rule="evenodd" d="M8.998 19c.688 0 1.25.563 1.25 1.25s-.563 1.25-1.25 1.25-1.25-.563-1.25-1.25S8.311 19 8.998 19m8.5 0c.688 0 1.25.563 1.25 1.25s-.563 1.25-1.25 1.25-1.25-.563-1.25-1.25.563-1.25 1.25-1.25M4.404 2.5c1.314 0 2.532.5 2.844 2.094h12.75c1.094 0 1.938 1 1.72 2.062l-.97 4a2.52 2.52 0 0 1-2.188 2L8.904 13.72l.25 1.375c.031.25.25.437.47.437h8.25c.562 0 1.03.438 1.03 1 0 .532-.468.969-1.03.969h-8.25c-1.22 0-2.282-.875-2.47-2.094L5.374 5.344a.975.975 0 0 0-.97-.844H3.248c-.563 0-1-.438-1-1 0-.531.438-1 1-1zM19.53 6.531h-12l.97 5.219 9.687-1.094c.218-.031.406-.187.437-.406z" clip-rule="evenodd"/></g><defs><clipPath id="a"><path fill="#fff" d="M0 0h24v24H0z"/></clipPath></defs></svg>