<svg xmlns="http://www.w3.org/2000/svg" width="20" height="20" fill="none"><g clip-path="url(#a)"><path fill="#1A1C1F" fill-rule="evenodd" d="M10 2c2 0 4 1.5 4 4h1.407a.995.995 0 0 1 1 .938l.593 10A1.024 1.024 0 0 1 16 18H4c-.562 0-1.03-.5-1-1.063l.594-10a.995.995 0 0 1 1-.937H6c0-2.5 1.844-4 4-4M8 9H6v.688C6 12.344 7.813 14 10 14s4-1.656 4-4.313V9h-2v.344C12 10.625 11.594 12 10 12s-2-1.375-2-2.656zm2-5c-1 0-2 .594-2 2h4c0-1.406-1-2-2-2" clip-rule="evenodd"/></g><defs><clipPath id="a"><path fill="#fff" d="M0 0h20v20H0z"/></clipPath></defs></svg>