<svg width="14" height="14" viewBox="0 0 14 14" fill="none" xmlns="http://www.w3.org/2000/svg"><path d="M1.990 1.422 C 1.759 1.459,1.563 1.619,1.452 1.863 C 1.348 2.090,1.413 2.385,1.615 2.592 C 1.777 2.760,1.869 2.787,2.306 2.796 C 2.670 2.804,2.687 2.806,2.708 2.855 C 2.720 2.882,2.909 3.908,3.128 5.133 C 3.347 6.359,3.599 7.765,3.687 8.259 L 3.848 9.156 3.037 9.974 C 2.121 10.898,2.111 10.911,2.112 11.200 C 2.113 11.479,2.249 11.701,2.502 11.834 C 2.630 11.902,2.954 11.908,3.074 11.846 C 3.214 11.772,8.833 6.185,11.639 3.329 C 12.493 2.459,12.532 2.417,12.568 2.292 C 12.637 2.055,12.567 1.787,12.390 1.610 C 12.260 1.480,12.150 1.437,11.919 1.427 C 11.616 1.415,11.588 1.434,10.836 2.176 L 10.203 2.800 7.171 2.800 L 4.138 2.800 4.074 2.561 C 3.994 2.262,3.906 2.077,3.769 1.917 C 3.563 1.676,3.365 1.540,3.103 1.459 C 2.957 1.414,2.201 1.389,1.990 1.422 M7.443 5.565 L 6.078 6.930 5.612 6.976 C 5.355 7.001,5.095 7.027,5.035 7.033 C 4.974 7.039,4.918 7.034,4.911 7.022 C 4.903 7.009,4.860 6.807,4.816 6.574 C 4.714 6.037,4.387 4.257,4.387 4.239 C 4.387 4.212,4.634 4.208,6.697 4.204 L 8.808 4.200 7.443 5.565 M10.407 6.561 C 8.691 8.267,8.807 8.078,9.517 8.015 C 10.415 7.936,10.621 7.889,10.909 7.697 C 11.309 7.429,11.393 7.238,11.713 5.857 C 11.804 5.465,11.883 5.132,11.888 5.116 C 11.894 5.100,11.896 5.087,11.893 5.087 C 11.891 5.087,11.222 5.751,10.407 6.561 M7.152 9.798 L 6.452 10.500 8.372 10.500 C 10.286 10.500,10.292 10.500,10.390 10.450 C 10.541 10.374,10.651 10.278,10.731 10.154 C 10.946 9.818,10.832 9.384,10.477 9.195 L 10.331 9.117 9.091 9.106 L 7.852 9.095 7.152 9.798 M9.433 10.941 C 9.166 11.070,8.989 11.303,8.935 11.599 C 8.869 11.957,9.086 12.342,9.450 12.516 C 9.584 12.580,9.625 12.588,9.800 12.587 C 9.954 12.587,10.024 12.575,10.115 12.534 C 10.376 12.416,10.531 12.253,10.619 12.001 C 10.656 11.895,10.665 11.824,10.657 11.678 C 10.641 11.358,10.486 11.116,10.195 10.956 C 10.081 10.893,10.043 10.885,9.823 10.878 C 9.591 10.871,9.571 10.874,9.433 10.941 M5.224 11.745 C 4.658 12.323,4.561 12.434,4.592 12.465 C 4.630 12.503,4.892 12.582,5.018 12.594 C 5.357 12.625,5.706 12.409,5.874 12.065 C 5.929 11.953,5.937 11.908,5.937 11.726 C 5.936 11.514,5.899 11.383,5.800 11.243 C 5.766 11.193,5.752 11.205,5.224 11.745 " fill="#1A1C1F" stroke="none" fill-rule="evenodd"></path></svg>