<svg xmlns="http://www.w3.org/2000/svg" width="16" height="16" fill="none"><g clip-path="url(#a)"><path fill="#1A1C1F" fill-rule="evenodd" d="M7.975 2.4C9.87 2.4 11.2 3.796 11.2 5.6h2.394c.499 0 .89.458.79.96l-1.246 6.389a.83.83 0 0 1-.798.651H3.66a.8.8 0 0 1-.773-.651l-1.272-6.39a.806.806 0 0 1 .79-.959H4.8c0-1.779 1.305-3.2 3.175-3.2m4.639 4.8H3.386l.948 4.8h7.357zM8 4c-.998 0-1.592.648-1.592 1.6H9.6C9.6 4.673 8.973 4 8 4" clip-rule="evenodd"/></g><defs><clipPath id="a"><path fill="#fff" d="M0 0h16v16H0z"/></clipPath></defs></svg>