<svg xmlns="http://www.w3.org/2000/svg" width="24" height="24" fill="none"><g clip-path="url(#a)"><path fill="#1A1C1F" fill-rule="evenodd" d="M12.001 2a5.977 5.977 0 0 1 6 6h2.637c.845 0 1.471.781 1.346 1.594l-1.72 10.312C20.043 21.125 19.104 22 17.79 22H6.15c-1.159 0-2.19-.906-2.379-2.094L2.018 9.625C1.893 8.812 2.425 8 3.238 8H6a6 6 0 0 1 6.001-6m7.886 8H4.115l1.627 9.594c.032.218.22.406.407.406h11.642a.5.5 0 0 0 .47-.406zm-7.886-6a3.987 3.987 0 0 0-4 4h8c0-2.188-1.778-4-4-4" clip-rule="evenodd"/></g><defs><clipPath id="a"><path fill="#fff" d="M0 0h24v24H0z"/></clipPath></defs></svg>