<svg xmlns="http://www.w3.org/2000/svg" width="14" height="14" fill="none"><g clip-path="url(#a)"><path fill="#1A1C1F" fill-rule="evenodd" d="M7 1.4c1.575 0 2.778 1.138 2.8 2.8h.984c.372 0 .679.284.7.656l.416 7a.714.714 0 0 1-.7.744H2.8a.715.715 0 0 1-.7-.744l.416-7a.697.697 0 0 1 .7-.656h.983c0-1.663 1.226-2.8 2.801-2.8m3.128 4.2H3.872l-.328 5.6h6.912zM7 2.8c-1.028 0-1.4.7-1.4 1.4h2.8c0-.7-.35-1.4-1.4-1.4M7.7 7v.7a.69.69 0 0 1-.7.7.69.69 0 0 1-.7-.7V7H4.9v.7c0 1.05.7 2.1 2.1 2.1s2.1-1.05 2.1-2.1V7z" clip-rule="evenodd"/></g><defs><clipPath id="a"><path fill="#fff" d="M0 0h14v14H0z"/></clipPath></defs></svg>