<svg width="32" height="32" viewBox="0 0 32 32" fill="none" xmlns="http://www.w3.org/2000/svg"><path d="M9.280 2.079 C 8.002 2.114,7.941 2.129,7.314 2.555 C 6.723 2.956,6.366 3.450,6.099 4.236 L 5.973 4.605 5.973 16.008 L 5.973 27.410 6.132 27.845 C 6.516 28.898,7.102 29.487,8.137 29.862 L 8.592 30.027 16.000 30.027 L 23.408 30.027 23.863 29.862 C 24.898 29.487,25.484 28.898,25.868 27.845 L 26.027 27.410 26.027 16.008 L 26.027 4.605 25.896 4.222 C 25.696 3.634,25.501 3.315,25.089 2.900 C 24.809 2.618,24.601 2.466,24.289 2.314 L 23.867 2.109 22.613 2.073 C 21.110 2.030,10.904 2.034,9.280 2.079 M19.225 4.036 L 23.436 4.071 23.691 4.326 L 23.947 4.582 23.947 15.988 L 23.947 27.394 23.755 27.618 C 23.399 28.034,24.081 28.000,16.000 28.000 C 7.919 28.000,8.601 28.034,8.245 27.618 L 8.053 27.394 8.053 16.009 L 8.053 4.623 8.190 4.444 C 8.469 4.078,8.445 4.083,10.184 4.052 C 12.928 4.003,14.897 3.999,19.225 4.036 M10.633 22.085 C 10.409 22.150,10.095 22.506,10.050 22.747 C 9.960 23.228,10.149 23.681,10.523 23.876 C 10.720 23.979,11.648 24.036,12.136 23.975 C 12.402 23.942,12.468 23.908,12.666 23.704 C 12.951 23.411,13.044 23.101,12.953 22.741 C 12.877 22.441,12.614 22.161,12.334 22.083 C 12.092 22.016,10.867 22.017,10.633 22.085 M15.158 22.084 C 14.904 22.162,14.582 22.504,14.537 22.746 C 14.450 23.208,14.658 23.691,15.022 23.872 C 15.195 23.958,15.347 23.973,16.000 23.973 C 16.895 23.973,17.088 23.913,17.322 23.560 C 17.436 23.388,17.461 23.286,17.464 22.991 C 17.466 22.677,17.448 22.607,17.317 22.436 C 17.065 22.105,16.922 22.060,16.080 22.044 C 15.669 22.037,15.254 22.055,15.158 22.084 M19.706 22.076 C 19.457 22.136,19.285 22.271,19.147 22.517 C 18.901 22.956,19.015 23.471,19.435 23.810 L 19.637 23.973 20.476 23.973 C 21.296 23.973,21.319 23.970,21.531 23.830 C 21.898 23.587,22.073 23.044,21.917 22.630 C 21.833 22.407,21.550 22.139,21.336 22.080 C 21.121 22.020,19.950 22.018,19.706 22.076 " fill="#1A1C1F" stroke="none" fill-rule="evenodd"></path></svg>