<svg xmlns="http://www.w3.org/2000/svg" width="16" height="16" fill="none"><g clip-path="url(#a)"><path fill="#1A1C1F" fill-rule="evenodd" d="M7.99 4.8c.883 0 1.61.702 1.61 1.587v6.4A1.62 1.62 0 0 1 7.99 14.4H3.21c-.909 0-1.61-.728-1.61-1.613v-6.4c0-.885.701-1.587 1.61-1.587zM8 6.413H3.187v6.4H8zM4.4 11.2V9.6h.8v1.6zm1.597 0V9.6h.8v1.6zM6.4 2.404a.81.81 0 0 1 .805-.804h5.585c.909 0 1.61.727 1.61 1.609V9.59a1.6 1.6 0 0 1-1.61 1.609h-.78a.81.81 0 0 1-.805-.804.81.81 0 0 1 .805-.805h.78V3.21H7.205a.81.81 0 0 1-.805-.806" clip-rule="evenodd"/></g><defs><clipPath id="a"><path fill="#fff" d="M0 0h16v16H0z"/></clipPath></defs></svg>