<svg xmlns="http://www.w3.org/2000/svg" width="14" height="14" fill="none"><g clip-path="url(#a)"><path fill="#1A1C1F" fill-rule="evenodd" d="M4.2 12.6h5.6c.766 0 1.4-.634 1.4-1.4V2.8c0-.787-.634-1.4-1.4-1.4H4.2c-.766 0-1.4.613-1.4 1.4v8.4c0 .766.634 1.4 1.4 1.4m0-1.4V2.8h5.6v8.4zm.7-2.111c0-.356.298-.689.689-.689.413 0 .711.333.711.689a.71.71 0 0 1-.711.711c-.39 0-.689-.333-.689-.711m2.798 0c0-.356.316-.689.7-.689s.7.333.7.689a.717.717 0 0 1-.7.711.717.717 0 0 1-.7-.711" clip-rule="evenodd"/></g><defs><clipPath id="a"><path fill="#fff" d="M0 0h14v14H0z"/></clipPath></defs></svg>