<svg width="14" height="14" viewBox="0 0 14 14" fill="none" xmlns="http://www.w3.org/2000/svg"><path d="M6.452 1.422 C 6.018 1.437,5.958 1.458,5.778 1.658 C 5.472 1.999,5.593 2.541,6.022 2.749 L 6.128 2.800 8.652 2.800 L 11.177 2.800 11.177 5.596 L 11.177 8.393 10.736 8.406 C 10.255 8.421,10.227 8.428,10.041 8.578 C 9.822 8.755,9.750 9.124,9.881 9.392 C 9.947 9.527,10.111 9.689,10.243 9.751 C 10.311 9.782,10.418 9.788,10.885 9.788 C 11.415 9.788,11.454 9.785,11.617 9.732 C 12.033 9.595,12.380 9.251,12.524 8.832 L 12.588 8.645 12.588 5.600 L 12.588 2.555 12.532 2.383 C 12.400 1.983,12.046 1.619,11.655 1.480 C 11.565 1.448,11.423 1.435,11.025 1.421 C 10.449 1.402,7.028 1.402,6.452 1.422 M2.858 4.222 C 2.476 4.236,2.425 4.243,2.289 4.300 C 1.875 4.474,1.583 4.797,1.437 5.242 C 1.401 5.352,1.399 5.601,1.406 8.403 C 1.415 11.727,1.408 11.562,1.551 11.825 C 1.712 12.120,2.021 12.401,2.301 12.506 C 2.372 12.532,2.527 12.564,2.644 12.577 C 2.766 12.589,3.804 12.599,5.042 12.600 C 7.112 12.600,7.233 12.598,7.352 12.557 C 7.857 12.383,8.183 12.056,8.352 11.555 C 8.399 11.413,8.400 11.379,8.398 8.862 C 8.397 7.459,8.388 6.070,8.379 5.775 C 8.363 5.264,8.359 5.231,8.299 5.087 C 8.172 4.782,7.911 4.501,7.618 4.353 C 7.347 4.216,7.418 4.220,5.262 4.212 C 4.171 4.209,3.089 4.213,2.858 4.222 M7.000 8.423 L 7.000 11.223 4.900 11.223 L 2.800 11.223 2.800 8.423 L 2.800 5.623 4.900 5.623 L 7.000 5.623 7.000 8.423 M3.850 9.100 L 3.850 9.800 4.200 9.800 L 4.550 9.800 4.550 9.100 L 4.550 8.400 4.200 8.400 L 3.850 8.400 3.850 9.100 M5.250 9.100 L 5.250 9.800 5.600 9.800 L 5.950 9.800 5.950 9.100 L 5.950 8.400 5.600 8.400 L 5.250 8.400 5.250 9.100 " fill="#1A1C1F" stroke="none" fill-rule="evenodd"></path></svg>