<svg width="24" height="24" viewBox="0 0 24 24" fill="none" xmlns="http://www.w3.org/2000/svg"><path d="M12.160 2.038 C 11.612 2.062,11.512 2.096,11.294 2.327 C 10.841 2.808,10.938 3.499,11.510 3.860 L 11.700 3.980 15.460 4.004 C 19.555 4.030,19.345 4.018,19.631 4.258 C 19.703 4.319,19.810 4.451,19.869 4.552 L 19.976 4.735 19.978 9.957 C 19.980 14.896,19.976 15.190,19.908 15.367 C 19.831 15.567,19.555 15.853,19.370 15.925 C 19.309 15.948,18.918 15.984,18.501 16.004 C 17.627 16.046,17.476 16.093,17.251 16.392 C 16.869 16.900,17.032 17.610,17.600 17.903 C 17.713 17.962,17.864 17.979,18.384 17.992 C 19.474 18.021,20.017 17.902,20.611 17.507 C 21.270 17.069,21.725 16.422,21.924 15.640 C 21.971 15.457,21.980 14.513,21.980 9.960 L 21.980 4.500 21.886 4.200 C 21.835 4.035,21.718 3.756,21.628 3.580 C 21.322 2.987,20.637 2.408,19.937 2.152 C 19.710 2.069,19.612 2.064,17.700 2.037 C 15.437 2.004,12.904 2.004,12.160 2.038 M5.760 6.041 C 4.308 6.061,4.298 6.062,4.032 6.165 C 3.577 6.341,3.203 6.589,2.839 6.956 C 2.468 7.330,2.291 7.634,2.114 8.200 L 2.020 8.500 2.020 14.000 L 2.020 19.500 2.114 19.800 C 2.284 20.346,2.499 20.702,2.898 21.102 C 3.298 21.501,3.654 21.716,4.200 21.886 L 4.500 21.980 8.500 21.980 L 12.500 21.980 12.800 21.886 C 13.346 21.716,13.702 21.501,14.102 21.102 C 14.501 20.702,14.716 20.346,14.886 19.800 L 14.980 19.500 14.980 14.000 L 14.980 8.500 14.886 8.200 C 14.835 8.035,14.720 7.761,14.632 7.590 C 14.238 6.831,13.341 6.174,12.569 6.080 C 12.205 6.036,7.854 6.011,5.760 6.041 M12.420 8.117 C 12.508 8.156,12.655 8.269,12.747 8.369 C 12.886 8.521,12.919 8.589,12.947 8.785 C 12.965 8.914,12.978 11.324,12.976 14.140 C 12.973 18.781,12.967 19.272,12.908 19.385 C 12.803 19.587,12.644 19.754,12.446 19.871 L 12.260 19.980 8.500 19.980 L 4.740 19.980 4.554 19.871 C 4.356 19.754,4.199 19.589,4.091 19.385 C 4.031 19.271,4.025 18.810,4.022 14.000 C 4.020 8.944,4.023 8.735,4.094 8.600 C 4.190 8.421,4.387 8.212,4.540 8.127 C 4.715 8.030,5.776 8.008,9.300 8.029 C 12.017 8.045,12.273 8.052,12.420 8.117 M9.673 16.061 C 9.561 16.097,9.415 16.190,9.306 16.297 C 8.814 16.774,8.962 17.592,9.596 17.908 C 9.828 18.024,10.215 18.006,10.449 17.869 C 10.809 17.657,11.034 17.247,10.985 16.890 C 10.900 16.273,10.264 15.871,9.673 16.061 M6.580 16.106 C 6.159 16.328,5.907 16.858,6.037 17.252 C 6.108 17.467,6.339 17.744,6.551 17.869 C 6.943 18.099,7.519 17.969,7.800 17.587 C 8.147 17.116,7.991 16.401,7.484 16.133 C 7.266 16.018,6.775 16.004,6.580 16.106 " fill="#1A1C1F" stroke="none" fill-rule="evenodd"></path></svg>