<svg width="14" height="14" viewBox="0 0 14 14" fill="none" xmlns="http://www.w3.org/2000/svg"><path d="M4.340 1.423 C 3.863 1.436,3.831 1.440,3.687 1.501 C 3.407 1.617,3.088 1.903,2.963 2.147 C 2.939 2.193,2.896 2.304,2.866 2.393 L 2.812 2.555 2.812 7.000 L 2.812 11.445 2.866 11.608 C 2.942 11.837,3.016 11.956,3.205 12.151 C 3.399 12.352,3.533 12.443,3.762 12.526 L 3.932 12.588 7.000 12.588 L 10.068 12.588 10.243 12.521 C 10.680 12.353,10.972 12.057,11.124 11.628 L 11.188 11.445 11.188 6.988 L 11.188 2.532 11.127 2.363 C 11.093 2.270,11.036 2.145,11.001 2.085 C 10.914 1.937,10.680 1.708,10.511 1.606 C 10.259 1.454,10.194 1.440,9.602 1.421 C 8.971 1.401,5.068 1.402,4.340 1.423 M9.800 7.000 L 9.800 11.200 7.000 11.200 L 4.200 11.200 4.200 7.000 L 4.200 2.800 7.000 2.800 L 9.800 2.800 9.800 7.000 M5.440 8.425 C 5.306 8.451,5.121 8.572,5.036 8.689 C 4.787 9.033,4.917 9.534,5.308 9.736 C 5.432 9.800,5.706 9.805,5.860 9.746 C 5.986 9.698,6.185 9.501,6.239 9.370 C 6.352 9.101,6.276 8.777,6.056 8.579 C 5.917 8.456,5.639 8.386,5.440 8.425 M8.248 8.421 C 8.030 8.477,7.803 8.686,7.734 8.894 C 7.660 9.117,7.726 9.376,7.909 9.575 C 8.045 9.722,8.185 9.783,8.388 9.784 C 8.729 9.785,8.979 9.584,9.067 9.238 C 9.147 8.929,9.003 8.645,8.685 8.484 C 8.563 8.422,8.357 8.393,8.248 8.421 " fill="#1A1C1F" stroke="none" fill-rule="evenodd"></path></svg>