<svg xmlns="http://www.w3.org/2000/svg" width="28" height="28" fill="none"><g clip-path="url(#a)"><path fill="#1A1C1F" fill-rule="evenodd" d="M15.75 5.684c1.45 0 2.625 1.202 2.625 2.65v14.83c0 1.446-1.176 2.648-2.625 2.648H5.25c-1.45 0-2.625-1.202-2.625-2.65V8.335c0-1.447 1.176-2.65 2.625-2.65zm0 1.747H5.25c-.492 0-.875.41-.875.901v14.83c0 .492.383.876.875.876h10.5a.864.864 0 0 0 .875-.875V8.333c0-.492-.383-.902-.875-.902m7-5.243c1.45 0 2.625 1.201 2.625 2.65v14.83c0 1.447-1.176 2.649-2.625 2.649h-1.723c-.492 0-.875-.41-.875-.901a.88.88 0 0 1 .875-.875h1.723a.864.864 0 0 0 .875-.873V4.838a.863.863 0 0 0-.875-.876h-10.5a.88.88 0 0 1-.875-.874c0-.49.383-.9.875-.9zM7 19.668c.492 0 .875.41.875.9a.88.88 0 0 1-.875.874.88.88 0 0 1-.875-.873c0-.492.383-.901.875-.901m3.5 0c.492 0 .875.41.875.9a.88.88 0 0 1-.875.874.88.88 0 0 1-.875-.873c0-.492.383-.901.875-.901m3.5 0c.492 0 .875.41.875.9a.88.88 0 0 1-.875.874.88.88 0 0 1-.875-.873c0-.492.383-.901.875-.901m7-4.37a.88.88 0 0 1 .622 1.495.87.87 0 0 1-.622.253.864.864 0 0 1-.875-.874.88.88 0 0 1 .875-.875" clip-rule="evenodd"/></g><defs><clipPath id="a"><path fill="#fff" d="M0 0h28v28H0z"/></clipPath></defs></svg>