<svg xmlns="http://www.w3.org/2000/svg" width="32" height="32" fill="none"><path fill="#1A1C1F" fill-rule="evenodd" d="M13.556 2.621c-.353.174-.516.459-.516.899 0 .405.119.635.445.858l.187.129 6.324.026c6.852.029 6.477.012 6.731.302.276.314.26-.263.26 9.137 0 7.707-.01 8.72-.082 8.894-.111.265-.225.384-.478.5-.185.085-.362.099-1.334.1-.621.001-1.21.026-1.323.058-.265.073-.601.379-.68.619-.151.458.072 1.034.481 1.243.195.099.312.107 1.491.107.721 0 1.403-.025 1.562-.058 1.12-.232 2.06-1.197 2.309-2.37.118-.557.118-17.569 0-18.132a3.06 3.06 0 0 0-.822-1.523c-.43-.429-.824-.659-1.367-.797-.402-.103-.604-.106-6.686-.106h-6.271zM5.295 6.583c-.801.194-1.612.849-1.96 1.583-.366.77-.346.219-.346 9.834 0 7.443.011 8.747.078 9.067a3.08 3.08 0 0 0 2.238 2.345c.479.123 12.911.123 13.39 0a3.08 3.08 0 0 0 2.238-2.345c.067-.32.078-1.624.078-9.067 0-9.615.02-9.064-.346-9.834-.36-.758-1.216-1.43-2.041-1.601-.433-.089-12.955-.072-13.329.018m13.132 2.012c.196.108.36.284.473.509.079.155.087.963.087 8.868 0 7.707-.01 8.72-.082 8.894-.111.265-.225.384-.478.5-.203.094-.511.098-6.427.098s-6.224-.004-6.427-.098c-.253-.116-.367-.235-.478-.5-.072-.174-.082-1.187-.082-8.893 0-8.527.002-8.701.105-8.902.124-.243.381-.472.579-.516.079-.017.167-.039.196-.049.03-.01 2.826-.014 6.214-.009 5.62.009 6.174.017 6.32.098m5.159 8.983c-.427.218-.667.704-.555 1.123.137.512.533.797 1.049.755.518-.043.863-.389.918-.921.028-.275-.149-.628-.425-.849-.251-.199-.709-.249-.987-.108M7.485 22.641c-.251.15-.498.574-.498.852 0 .289.248.705.513.861.508.297 1.11.114 1.375-.417.174-.35.174-.538 0-.887a.976.976 0 0 0-1.39-.409m4 0c-.251.15-.498.574-.498.852 0 .289.248.705.513.861.508.297 1.11.114 1.375-.417.174-.35.174-.538 0-.887a.976.976 0 0 0-1.39-.409m4 0c-.251.15-.498.574-.498.852 0 .289.248.705.513.861.508.297 1.11.114 1.375-.417.076-.153.138-.353.138-.444 0-.283-.248-.704-.503-.854a1.02 1.02 0 0 0-1.025.002"/></svg>