<svg width="12" height="12" viewBox="0 0 12 12" fill="none" xmlns="http://www.w3.org/2000/svg"><path d="M5.520 1.219 C 5.160 1.232,5.106 1.251,4.956 1.418 C 4.794 1.598,4.759 1.832,4.863 2.051 C 4.920 2.174,5.042 2.298,5.162 2.356 L 5.253 2.400 7.416 2.400 L 9.580 2.400 9.580 4.797 L 9.580 7.194 9.200 7.205 L 8.819 7.216 8.707 7.283 C 8.566 7.367,8.472 7.493,8.427 7.658 C 8.394 7.779,8.394 7.794,8.426 7.914 C 8.488 8.152,8.644 8.316,8.860 8.372 C 8.960 8.397,9.065 8.402,9.397 8.396 C 9.779 8.388,9.822 8.384,9.970 8.334 C 10.331 8.214,10.630 7.909,10.741 7.548 L 10.790 7.390 10.790 4.800 L 10.790 2.210 10.741 2.052 C 10.657 1.780,10.454 1.524,10.202 1.372 C 9.997 1.248,9.932 1.235,9.450 1.218 C 8.955 1.202,5.998 1.202,5.520 1.219 M2.450 3.618 C 2.122 3.631,2.079 3.637,1.962 3.686 C 1.609 3.834,1.368 4.097,1.237 4.478 C 1.202 4.581,1.200 4.698,1.201 7.048 C 1.201 8.402,1.210 9.600,1.219 9.711 C 1.242 9.959,1.291 10.096,1.426 10.284 C 1.588 10.510,1.823 10.680,2.071 10.754 C 2.180 10.785,2.359 10.789,4.187 10.795 C 6.404 10.803,6.237 10.812,6.520 10.669 C 6.822 10.516,7.016 10.287,7.152 9.926 L 7.200 9.799 7.198 7.585 C 7.197 6.367,7.190 5.172,7.182 4.930 C 7.168 4.515,7.164 4.483,7.113 4.360 C 7.003 4.095,6.777 3.854,6.523 3.729 C 6.286 3.613,6.352 3.617,4.510 3.611 C 3.575 3.607,2.648 3.611,2.450 3.618 M6.000 7.220 L 6.000 9.620 4.200 9.620 L 2.400 9.620 2.400 7.220 L 2.400 4.820 4.200 4.820 L 6.000 4.820 6.000 7.220 M3.300 7.800 L 3.300 8.400 3.600 8.400 L 3.900 8.400 3.900 7.800 L 3.900 7.200 3.600 7.200 L 3.300 7.200 3.300 7.800 M4.500 7.800 L 4.500 8.400 4.800 8.400 L 5.100 8.400 5.100 7.800 L 5.100 7.200 4.800 7.200 L 4.500 7.200 4.500 7.800 " fill="#1A1C1F" stroke="none" fill-rule="evenodd"></path></svg>