<svg xmlns="http://www.w3.org/2000/svg" width="12" height="12" fill="none"><g clip-path="url(#a)"><path fill="#1A1C1F" fill-rule="evenodd" d="M5.992 3.6c.663 0 1.208.527 1.208 1.19v4.8c0 .664-.545 1.21-1.208 1.21H2.408A1.203 1.203 0 0 1 1.2 9.59v-4.8c0-.663.526-1.19 1.208-1.19zM6 4.81H2.39v4.8H6zM3.3 8.4V7.2h.6v1.2zm1.198 0V7.2h.6v1.2zM4.8 1.803c0-.33.273-.603.604-.603h4.188A1.2 1.2 0 0 1 10.8 2.407v4.787A1.2 1.2 0 0 1 9.592 8.4h-.584a.607.607 0 0 1-.604-.603c0-.331.273-.603.604-.603h.584V2.407H5.404a.607.607 0 0 1-.604-.604" clip-rule="evenodd"/></g><defs><clipPath id="a"><path fill="#fff" d="M0 0h12v12H0z"/></clipPath></defs></svg>