<svg width="16" height="16" viewBox="0 0 16 16" fill="none" xmlns="http://www.w3.org/2000/svg"><path d="M4.973 1.626 C 4.414 1.642,4.379 1.646,4.213 1.715 C 3.894 1.848,3.529 2.175,3.387 2.453 C 3.359 2.507,3.309 2.634,3.275 2.735 L 3.213 2.920 3.213 8.013 L 3.213 13.107 3.290 13.307 C 3.479 13.798,3.802 14.121,4.293 14.310 L 4.493 14.387 8.000 14.387 L 11.507 14.387 11.707 14.310 C 12.193 14.123,12.523 13.793,12.710 13.307 L 12.787 13.107 12.787 8.013 L 12.787 2.920 12.714 2.707 C 12.674 2.589,12.604 2.434,12.558 2.361 C 12.443 2.180,12.196 1.944,12.002 1.830 C 11.710 1.659,11.646 1.646,10.973 1.625 C 10.255 1.602,5.827 1.603,4.973 1.626 M11.200 8.000 L 11.200 12.800 8.000 12.800 L 4.800 12.800 4.800 8.000 L 4.800 3.200 8.000 3.200 L 11.200 3.200 11.200 8.000 M6.217 9.629 C 6.064 9.659,5.852 9.797,5.756 9.930 C 5.471 10.323,5.619 10.895,6.067 11.127 C 6.205 11.199,6.545 11.202,6.713 11.134 C 6.955 11.035,7.200 10.674,7.200 10.415 C 7.200 10.201,7.063 9.915,6.899 9.786 C 6.726 9.651,6.441 9.585,6.217 9.629 M9.427 9.624 C 9.177 9.688,8.917 9.927,8.839 10.164 C 8.630 10.792,9.331 11.404,9.924 11.113 C 10.216 10.969,10.381 10.708,10.383 10.387 C 10.384 10.081,10.232 9.851,9.925 9.696 C 9.786 9.626,9.551 9.592,9.427 9.624 " fill="#1A1C1F" stroke="none" fill-rule="evenodd"></path></svg>