<svg width="16" height="16" viewBox="0 0 16 16" fill="none" xmlns="http://www.w3.org/2000/svg"><path d="M7.373 1.624 C 7.007 1.638,6.932 1.648,6.840 1.697 C 6.695 1.775,6.547 1.929,6.474 2.077 C 6.388 2.250,6.390 2.549,6.477 2.727 C 6.564 2.905,6.764 3.108,6.893 3.150 C 6.977 3.177,7.613 3.186,9.900 3.193 L 12.800 3.202 12.800 5.141 C 12.800 6.208,12.792 7.645,12.782 8.336 L 12.765 9.593 12.269 9.606 C 11.709 9.620,11.640 9.640,11.437 9.843 C 11.285 9.995,11.222 10.157,11.221 10.394 C 11.221 10.643,11.306 10.829,11.498 10.997 C 11.696 11.170,11.782 11.187,12.467 11.187 C 13.013 11.187,13.068 11.182,13.263 11.122 C 13.751 10.971,14.171 10.551,14.322 10.063 L 14.387 9.853 14.387 6.387 L 14.387 2.920 14.322 2.724 C 14.161 2.234,13.712 1.803,13.216 1.661 C 13.102 1.628,12.660 1.621,10.440 1.615 C 8.988 1.611,7.608 1.615,7.373 1.624 M3.267 4.825 C 2.829 4.841,2.772 4.849,2.616 4.915 C 2.151 5.110,1.851 5.433,1.654 5.951 C 1.601 6.091,1.600 6.143,1.600 9.360 C 1.601 11.157,1.612 12.759,1.625 12.921 C 1.655 13.278,1.716 13.452,1.902 13.712 C 2.118 14.013,2.430 14.240,2.762 14.338 C 2.907 14.381,3.145 14.385,5.591 14.394 L 8.262 14.403 8.475 14.320 C 8.984 14.124,9.324 13.784,9.520 13.275 L 9.600 13.068 9.598 10.101 C 9.597 8.469,9.587 6.875,9.576 6.560 C 9.557 6.022,9.552 5.976,9.484 5.813 C 9.338 5.460,9.036 5.138,8.697 4.972 C 8.381 4.817,8.470 4.822,6.013 4.814 C 4.767 4.810,3.531 4.815,3.267 4.825 M8.000 9.627 L 8.000 12.827 5.600 12.827 L 3.200 12.827 3.200 9.627 L 3.200 6.427 5.600 6.427 L 8.000 6.427 8.000 9.627 M4.400 10.400 L 4.400 11.200 4.800 11.200 L 5.200 11.200 5.200 10.400 L 5.200 9.600 4.800 9.600 L 4.400 9.600 4.400 10.400 M6.000 10.400 L 6.000 11.200 6.400 11.200 L 6.800 11.200 6.800 10.400 L 6.800 9.600 6.400 9.600 L 6.000 9.600 6.000 10.400 " fill="#1A1C1F" stroke="none" fill-rule="evenodd"></path></svg>