<svg width="24" height="24" viewBox="0 0 24 24" fill="none" xmlns="http://www.w3.org/2000/svg"><path d="M8.180 2.036 C 7.407 2.059,7.317 2.070,7.048 2.168 C 6.172 2.485,5.478 3.180,5.170 4.048 C 5.080 4.300,5.062 4.436,5.036 5.040 C 4.996 5.968,4.997 18.058,5.037 18.980 C 5.066 19.656,5.076 19.720,5.195 20.026 C 5.363 20.456,5.591 20.801,5.920 21.125 C 6.251 21.451,6.632 21.681,7.138 21.862 L 7.523 22.000 11.998 22.000 L 16.474 22.000 16.827 21.876 C 17.294 21.712,17.568 21.563,17.865 21.309 C 18.379 20.870,18.649 20.476,18.876 19.827 L 19.000 19.474 19.000 12.000 L 19.000 4.526 18.876 4.173 C 18.808 3.979,18.698 3.718,18.633 3.594 C 18.237 2.846,17.329 2.178,16.580 2.084 C 16.203 2.036,9.423 1.997,8.180 2.036 M16.527 4.181 C 16.622 4.248,16.758 4.389,16.830 4.496 L 16.960 4.689 16.960 12.020 L 16.960 19.351 16.830 19.544 C 16.756 19.654,16.615 19.790,16.503 19.859 L 16.306 19.980 12.263 19.993 C 10.039 19.999,8.089 19.993,7.929 19.979 C 7.574 19.947,7.322 19.797,7.148 19.514 L 7.033 19.327 7.011 13.034 C 6.999 9.572,7.002 6.277,7.019 5.710 L 7.049 4.680 7.169 4.498 C 7.369 4.197,7.525 4.104,7.877 4.075 C 8.043 4.062,10.019 4.053,12.267 4.055 L 16.353 4.060 16.527 4.181 M8.752 16.059 C 8.560 16.108,8.505 16.140,8.306 16.318 C 7.716 16.847,8.062 17.826,8.892 17.977 C 9.229 18.038,9.708 17.778,9.880 17.439 C 10.127 16.956,9.942 16.370,9.473 16.148 C 9.209 16.023,8.995 15.997,8.752 16.059 M11.752 16.038 C 11.471 16.093,11.159 16.380,11.042 16.693 C 10.983 16.850,10.990 17.071,11.061 17.310 C 11.178 17.704,11.698 18.038,12.102 17.977 C 12.618 17.900,13.059 17.350,12.981 16.883 C 12.943 16.661,12.739 16.334,12.554 16.200 C 12.350 16.052,12.018 15.985,11.752 16.038 M14.726 16.044 C 14.182 16.209,13.888 16.753,14.049 17.295 C 14.123 17.547,14.453 17.858,14.733 17.940 C 15.481 18.157,16.145 17.446,15.914 16.674 C 15.853 16.473,15.634 16.219,15.431 16.115 C 15.242 16.019,14.915 15.986,14.726 16.044 " fill="#1A1C1F" stroke="none" fill-rule="evenodd"></path></svg>