<svg width="20" height="20" viewBox="0 0 20 20" fill="none" xmlns="http://www.w3.org/2000/svg"><path d="M6.233 2.033 C 5.515 2.052,5.474 2.057,5.267 2.144 C 4.867 2.311,4.411 2.718,4.233 3.067 C 4.199 3.133,4.137 3.292,4.094 3.419 L 4.017 3.650 4.017 10.017 L 4.017 16.383 4.113 16.633 C 4.349 17.248,4.752 17.651,5.367 17.887 L 5.617 17.983 10.000 17.983 L 14.383 17.983 14.633 17.887 C 15.257 17.647,15.674 17.225,15.891 16.611 L 15.983 16.350 15.983 9.983 L 15.983 3.617 15.895 3.376 C 15.847 3.243,15.766 3.065,15.716 2.979 C 15.591 2.767,15.257 2.439,15.016 2.294 C 14.654 2.075,14.565 2.058,13.700 2.031 C 12.782 2.002,7.324 2.004,6.233 2.033 M14.000 10.000 L 14.000 16.000 10.000 16.000 L 6.000 16.000 6.000 10.000 L 6.000 4.000 10.000 4.000 L 14.000 4.000 14.000 10.000 M7.798 12.031 C 7.710 12.043,7.571 12.099,7.469 12.165 C 6.924 12.515,6.849 13.241,7.310 13.702 C 7.528 13.920,7.672 13.979,7.983 13.977 C 8.334 13.974,8.486 13.910,8.709 13.669 C 8.982 13.374,9.053 13.092,8.946 12.731 C 8.800 12.235,8.345 11.958,7.798 12.031 M11.783 12.029 C 11.353 12.143,11.000 12.575,11.000 12.988 C 11.000 13.386,11.340 13.842,11.719 13.952 C 12.187 14.088,12.670 13.853,12.905 13.375 C 13.024 13.135,13.015 12.809,12.885 12.573 C 12.831 12.475,12.734 12.349,12.670 12.293 C 12.431 12.083,12.032 11.964,11.783 12.029 " fill="#1A1C1F" stroke="none" fill-rule="evenodd"></path></svg>