<svg xmlns="http://www.w3.org/2000/svg" width="32" height="32" fill="none"><g clip-path="url(#a)"><path fill="#1A1C1F" fill-rule="evenodd" d="M18 6.495c1.656 0 3 1.374 3 3.028v16.95c0 1.653-1.344 3.027-3 3.027H6c-1.656 0-3-1.373-3-3.028V9.523C3 7.87 4.344 6.495 6 6.495zm0 1.998H6c-.563 0-1 .468-1 1.03v16.95c0 .561.438.998 1 .998h12c.563 0 1-.437 1-.999V9.523c0-.562-.438-1.03-1-1.03M26 2.5c1.656 0 3 1.373 3 3.028v16.949c0 1.654-1.344 3.028-3 3.028h-1.969c-.562 0-1-.469-1-1.03 0-.531.438-1 1-1H26c.563 0 1-.436 1-.998V5.527a.99.99 0 0 0-1-.998H14c-.563 0-1-.468-1-.999 0-.562.438-1.03 1-1.03zM8 22.477c.563 0 1 .468 1 1.03 0 .53-.438.999-1 .999s-1-.468-1-1c0-.56.438-1.029 1-1.029m4 0c.563 0 1 .468 1 1.03 0 .53-.438.999-1 .999s-1-.468-1-1c0-.56.438-1.029 1-1.029m4 0c.563 0 1 .468 1 1.03 0 .53-.438.999-1 .999s-1-.468-1-1c0-.56.438-1.029 1-1.029m8-4.994a1.006 1.006 0 0 1 .71 1.709.99.99 0 0 1-.71.288c-.563 0-1-.437-1-.998 0-.531.438-.999 1-.999" clip-rule="evenodd"/></g><defs><clipPath id="a"><path fill="#fff" d="M0 0h32v32H0z"/></clipPath></defs></svg>