<svg width="20" height="20" viewBox="0 0 20 20" fill="none" xmlns="http://www.w3.org/2000/svg"><path d="M9.200 2.030 C 8.599 2.053,8.509 2.085,8.254 2.369 C 7.814 2.859,7.979 3.602,8.598 3.916 L 8.764 4.000 12.366 4.000 L 15.967 4.000 15.967 7.995 L 15.967 11.990 15.337 12.009 C 14.781 12.026,14.692 12.036,14.567 12.100 C 13.974 12.402,13.837 13.164,14.286 13.663 C 14.368 13.754,14.506 13.863,14.592 13.906 C 14.744 13.980,14.780 13.983,15.550 13.983 C 16.304 13.983,16.364 13.979,16.594 13.903 C 17.188 13.709,17.686 13.215,17.891 12.617 L 17.983 12.350 17.983 8.000 L 17.983 3.650 17.902 3.404 C 17.701 2.793,17.140 2.254,16.520 2.076 C 16.377 2.035,15.828 2.026,13.033 2.018 C 11.209 2.013,9.484 2.018,9.200 2.030 M4.083 6.031 C 3.536 6.052,3.464 6.062,3.270 6.143 C 2.682 6.390,2.280 6.829,2.062 7.463 C 2.003 7.636,2.000 7.831,2.001 11.747 C 2.002 14.004,2.016 16.001,2.032 16.185 C 2.070 16.598,2.152 16.826,2.377 17.140 C 2.647 17.516,3.038 17.801,3.452 17.923 C 3.633 17.976,3.932 17.982,6.978 17.992 C 10.674 18.005,10.395 18.020,10.867 17.781 C 11.378 17.522,11.732 17.098,11.931 16.506 C 11.999 16.305,12.000 16.256,11.997 12.659 C 11.995 10.656,11.983 8.672,11.970 8.250 C 11.947 7.521,11.941 7.473,11.855 7.267 C 11.675 6.832,11.302 6.430,10.883 6.218 C 10.495 6.022,10.598 6.028,7.517 6.017 C 5.958 6.012,4.413 6.018,4.083 6.031 M10.000 12.033 L 10.000 16.033 7.000 16.033 L 4.000 16.033 4.000 12.033 L 4.000 8.033 7.000 8.033 L 10.000 8.033 10.000 12.033 M5.500 13.000 L 5.500 14.000 6.000 14.000 L 6.500 14.000 6.500 13.000 L 6.500 12.000 6.000 12.000 L 5.500 12.000 5.500 13.000 M7.500 13.000 L 7.500 14.000 8.000 14.000 L 8.500 14.000 8.500 13.000 L 8.500 12.000 8.000 12.000 L 7.500 12.000 7.500 13.000 " fill="#1A1C1F" stroke="none" fill-rule="evenodd"></path></svg>