<svg xmlns="http://www.w3.org/2000/svg" width="12" height="12" fill="none"><g clip-path="url(#a)"><path fill="#1A1C1F" fill-rule="evenodd" d="M3.6 10.8h4.8c.656 0 1.2-.544 1.2-1.2V2.4c0-.675-.544-1.2-1.2-1.2H3.6c-.656 0-1.2.525-1.2 1.2v7.2c0 .656.544 1.2 1.2 1.2m0-1.2V2.4h4.8v7.2zm.6-1.81a.599.599 0 1 1 1.198.022A.599.599 0 0 1 4.2 7.79m2.398 0c0-.304.271-.59.6-.59.33 0 .6.286.6.59 0 .324-.27.61-.6.61a.615.615 0 0 1-.6-.61" clip-rule="evenodd"/></g><defs><clipPath id="a"><path fill="#fff" d="M0 0h12v12H0z"/></clipPath></defs></svg>