<svg xmlns="http://www.w3.org/2000/svg" width="20" height="20" fill="none"><g clip-path="url(#a)"><path fill="#1A1C1F" fill-rule="evenodd" d="M9.987 6C11.091 6 12 6.878 12 7.984v8C12 17.089 11.09 18 9.987 18H4.013A2.004 2.004 0 0 1 2 15.984v-8C2 6.878 2.877 6 4.013 6zM10 8.016H3.984v8H10zM5.5 14v-2h1v2zm1.996 0v-2h1v2zM8 3.005C8 2.455 8.455 2 9.007 2h6.98C17.123 2 18 2.908 18 4.01v7.98c0 1.102-.877 2.01-2.013 2.01h-.974a1.01 1.01 0 0 1-1.006-1.005 1.01 1.01 0 0 1 1.006-1.006h.974V4.011h-6.98A1.01 1.01 0 0 1 8 3.005" clip-rule="evenodd"/></g><defs><clipPath id="a"><path fill="#fff" d="M0 0h20v20H0z"/></clipPath></defs></svg>