<svg xmlns="http://www.w3.org/2000/svg" width="16" height="16" fill="none"><g clip-path="url(#a)"><path fill="#1A1C1F" fill-rule="evenodd" d="M4.8 14.4h6.4c.875 0 1.6-.725 1.6-1.6V3.2c0-.9-.725-1.6-1.6-1.6H4.8c-.875 0-1.6.7-1.6 1.6v9.6c0 .875.725 1.6 1.6 1.6m0-1.6V3.2h6.4v9.6zm.8-2.413c0-.406.341-.787.787-.787.472 0 .813.38.813.787a.81.81 0 0 1-.813.813c-.446 0-.787-.38-.787-.813m3.197 0c0-.406.362-.787.8-.787.44 0 .8.38.8.787 0 .432-.36.813-.8.813a.82.82 0 0 1-.8-.813" clip-rule="evenodd"/></g><defs><clipPath id="a"><path fill="#fff" d="M0 0h16v16H0z"/></clipPath></defs></svg>