<svg width="28" height="28" viewBox="0 0 28 28" fill="none" xmlns="http://www.w3.org/2000/svg"><path d="M8.167 1.819 C 6.996 1.850,6.953 1.860,6.400 2.235 C 5.883 2.587,5.571 3.019,5.337 3.707 L 5.227 4.030 5.227 14.007 L 5.227 23.984 5.365 24.364 C 5.703 25.289,6.212 25.800,7.129 26.133 L 7.537 26.282 14.047 26.262 L 20.557 26.242 20.883 26.131 C 21.600 25.888,22.253 25.284,22.548 24.593 L 22.698 24.243 22.738 22.237 C 22.797 19.330,22.750 4.049,22.682 3.780 C 22.502 3.068,21.926 2.360,21.257 2.029 L 20.883 1.845 19.810 1.813 C 18.526 1.776,9.658 1.780,8.167 1.819 M18.289 3.531 L 20.501 3.562 20.660 3.702 C 20.747 3.778,20.860 3.921,20.909 4.019 C 20.998 4.193,21.000 4.388,21.000 14.000 C 21.000 24.785,21.023 23.916,20.726 24.236 C 20.465 24.518,20.919 24.500,14.000 24.500 C 6.929 24.500,7.526 24.529,7.215 24.166 L 7.047 23.970 7.047 13.993 L 7.047 4.017 7.194 3.849 C 7.275 3.757,7.416 3.642,7.509 3.593 C 7.670 3.508,7.840 3.504,11.877 3.502 C 14.187 3.501,17.072 3.514,18.289 3.531 M9.315 19.319 C 9.001 19.419,8.773 19.764,8.773 20.137 C 8.773 20.568,9.008 20.859,9.428 20.949 C 9.734 21.015,10.517 21.014,10.757 20.948 C 11.154 20.838,11.462 20.311,11.347 19.936 C 11.267 19.671,11.126 19.473,10.957 19.384 C 10.836 19.320,10.659 19.300,10.127 19.289 C 9.755 19.282,9.389 19.295,9.315 19.319 M13.263 19.323 C 13.041 19.391,12.760 19.691,12.720 19.903 C 12.644 20.307,12.826 20.730,13.144 20.888 C 13.296 20.963,13.428 20.977,14.000 20.977 C 14.783 20.977,14.952 20.924,15.157 20.615 C 15.256 20.464,15.279 20.375,15.281 20.117 C 15.283 19.843,15.267 19.781,15.153 19.631 C 14.932 19.342,14.807 19.303,14.070 19.289 C 13.711 19.282,13.348 19.298,13.263 19.323 M17.242 19.317 C 17.024 19.369,16.875 19.487,16.752 19.705 C 16.506 20.142,16.669 20.662,17.127 20.898 C 17.322 20.999,17.382 21.005,17.990 20.991 C 18.578 20.977,18.661 20.965,18.819 20.867 C 19.159 20.657,19.319 20.179,19.177 19.801 C 19.103 19.606,18.856 19.372,18.669 19.320 C 18.481 19.268,17.456 19.265,17.242 19.317 " fill="#1A1C1F" stroke="none" fill-rule="evenodd"></path></svg>