<svg width="12" height="12" viewBox="0 0 12 12" fill="none" xmlns="http://www.w3.org/2000/svg"><path d="M3.720 1.220 C 3.312 1.231,3.283 1.235,3.160 1.286 C 2.921 1.386,2.647 1.631,2.540 1.840 C 2.520 1.880,2.482 1.975,2.456 2.051 L 2.410 2.190 2.410 6.010 L 2.410 9.830 2.468 9.980 C 2.609 10.349,2.851 10.591,3.220 10.732 L 3.370 10.790 6.000 10.790 L 8.630 10.790 8.780 10.732 C 9.149 10.591,9.391 10.349,9.532 9.980 L 9.590 9.830 9.590 6.030 C 9.590 1.867,9.598 2.142,9.468 1.867 C 9.352 1.622,9.075 1.373,8.809 1.276 C 8.706 1.238,8.630 1.231,8.230 1.218 C 7.687 1.201,4.340 1.202,3.720 1.220 M8.400 6.000 L 8.400 9.600 6.000 9.600 L 3.600 9.600 3.600 6.000 L 3.600 2.400 6.000 2.400 L 8.400 2.400 8.400 6.000 M4.710 7.214 C 4.474 7.243,4.288 7.419,4.226 7.673 C 4.195 7.798,4.195 7.816,4.226 7.933 C 4.268 8.097,4.340 8.201,4.467 8.288 C 4.640 8.406,4.856 8.426,5.050 8.341 C 5.153 8.296,5.326 8.111,5.361 8.009 C 5.397 7.903,5.393 7.668,5.354 7.576 C 5.314 7.480,5.171 7.327,5.080 7.280 C 5.017 7.248,4.951 7.231,4.810 7.212 C 4.788 7.209,4.743 7.210,4.710 7.214 M7.070 7.218 C 6.813 7.284,6.600 7.545,6.600 7.793 C 6.600 7.915,6.668 8.081,6.761 8.187 C 6.938 8.388,7.213 8.447,7.443 8.334 C 7.820 8.149,7.911 7.655,7.616 7.389 C 7.463 7.251,7.228 7.177,7.070 7.218 " fill="#1A1C1F" stroke="none" fill-rule="evenodd"></path></svg>