<svg xmlns="http://www.w3.org/2000/svg" width="14" height="14" fill="none"><g clip-path="url(#a)"><path fill="#1A1C1F" fill-rule="evenodd" d="M6.99 4.2c.774 0 1.41.615 1.41 1.39v5.6c0 .773-.636 1.41-1.41 1.41H2.81c-.796 0-1.41-.637-1.41-1.41v-5.6c0-.775.614-1.39 1.41-1.39zM7 5.611H2.789v5.6H7zm-3.15 4.19V8.4h.7v1.4zm1.397 0V8.4h.7v1.4zM5.6 2.103c0-.386.318-.704.705-.704h4.886A1.4 1.4 0 0 1 12.6 2.808v5.584A1.4 1.4 0 0 1 11.19 9.8h-.68a.71.71 0 0 1-.705-.704c0-.386.318-.704.704-.704h.682V2.808H6.305a.71.71 0 0 1-.705-.704" clip-rule="evenodd"/></g><defs><clipPath id="a"><path fill="#fff" d="M0 0h14v14H0z"/></clipPath></defs></svg>