<svg width="28" height="28" viewBox="0 0 28 28" fill="none" xmlns="http://www.w3.org/2000/svg"><path d="M11.923 2.269 C 11.555 2.467,11.356 2.820,11.399 3.200 C 11.426 3.445,11.609 3.703,11.858 3.850 C 12.014 3.942,12.122 3.944,17.523 3.967 L 23.030 3.990 23.203 4.097 C 23.298 4.156,23.424 4.282,23.483 4.377 L 23.590 4.550 23.605 11.480 C 23.614 15.292,23.606 18.773,23.589 19.216 C 23.560 19.931,23.545 20.038,23.456 20.170 C 23.248 20.479,23.157 20.501,21.937 20.535 C 20.940 20.563,20.818 20.575,20.641 20.666 C 20.130 20.927,20.010 21.543,20.384 21.988 C 20.625 22.275,20.767 22.305,21.910 22.305 C 22.475 22.306,23.052 22.287,23.193 22.264 C 24.110 22.113,24.910 21.410,25.231 20.475 L 25.363 20.090 25.363 12.250 L 25.363 4.410 25.250 4.066 C 24.974 3.228,24.325 2.585,23.473 2.304 C 23.232 2.225,22.874 2.219,17.640 2.207 C 12.590 2.196,12.050 2.201,11.923 2.269 M5.367 5.737 L 4.550 5.763 4.200 5.931 C 3.495 6.270,3.017 6.803,2.768 7.529 L 2.637 7.910 2.637 15.750 L 2.637 23.590 2.751 23.938 C 2.984 24.652,3.503 25.235,4.200 25.568 C 4.519 25.720,4.598 25.737,5.110 25.767 C 5.839 25.809,15.161 25.809,15.890 25.767 C 16.402 25.737,16.481 25.720,16.800 25.568 C 17.497 25.235,18.013 24.655,18.248 23.939 L 18.363 23.590 18.363 15.820 C 18.363 9.806,18.350 7.987,18.305 7.770 C 18.149 7.017,17.601 6.330,16.863 5.965 L 16.457 5.763 15.357 5.733 C 14.037 5.697,6.522 5.700,5.367 5.737 M13.790 7.460 C 16.363 7.494,16.213 7.471,16.466 7.860 L 16.590 8.050 16.590 15.753 L 16.590 23.457 16.462 23.650 C 16.203 24.041,16.725 24.010,10.500 24.010 C 4.275 24.010,4.797 24.041,4.538 23.650 L 4.410 23.457 4.410 15.753 L 4.410 8.050 4.518 7.876 C 4.678 7.618,4.870 7.503,5.198 7.465 C 5.557 7.424,10.763 7.421,13.790 7.460 M20.650 15.384 C 20.413 15.509,20.259 15.685,20.181 15.921 C 20.097 16.173,20.118 16.357,20.262 16.613 C 20.443 16.937,20.837 17.096,21.212 16.996 C 21.507 16.917,21.642 16.817,21.758 16.595 C 21.910 16.303,21.896 15.967,21.722 15.720 C 21.468 15.360,20.984 15.208,20.650 15.384 M6.628 19.775 C 6.423 19.878,6.173 20.205,6.133 20.422 C 6.091 20.643,6.170 20.889,6.354 21.111 C 6.698 21.527,7.300 21.530,7.640 21.118 C 7.840 20.876,7.914 20.595,7.839 20.362 C 7.664 19.817,7.094 19.540,6.628 19.775 M10.128 19.775 C 9.923 19.878,9.673 20.205,9.633 20.422 C 9.591 20.643,9.670 20.889,9.854 21.111 C 10.198 21.527,10.800 21.530,11.140 21.118 C 11.340 20.876,11.414 20.595,11.339 20.362 C 11.164 19.817,10.594 19.540,10.128 19.775 M13.688 19.745 C 13.607 19.768,13.464 19.876,13.372 19.983 C 13.060 20.348,13.042 20.697,13.315 21.057 C 13.571 21.395,13.971 21.511,14.343 21.356 C 14.661 21.223,14.935 20.720,14.865 20.401 C 14.816 20.176,14.574 19.882,14.359 19.784 C 14.149 19.689,13.926 19.676,13.688 19.745 " fill="#1A1C1F" stroke="none" fill-rule="evenodd"></path></svg>