<svg xmlns="http://www.w3.org/2000/svg" width="32" height="32" fill="none"><path fill="#1A1C1F" fill-rule="evenodd" d="M8.22 2.111c-.677.182-1.359.683-1.747 1.285a4 4 0 0 0-.325.693L6 4.507v22.986l.148.418c.342.967.974 1.599 1.941 1.941l.418.148h14.986l.418-.148c.967-.342 1.599-.974 1.941-1.941l.148-.418V4.507l-.148-.418c-.354-1.001-1.122-1.727-2.095-1.981-.458-.119-15.093-.117-15.537.003m15.304 2.045c.105.071.249.215.32.32l.129.191v22.666l-.13.193c-.072.106-.214.25-.316.32l-.186.127H8.659l-.186-.127a1.5 1.5 0 0 1-.316-.32l-.13-.193V4.659l.131-.191c.127-.187.348-.353.562-.423.059-.019 3.371-.031 7.36-.027l7.253.009zm-13.044 18c-.519.312-.627 1.092-.211 1.526.263.275.507.331 1.348.31.741-.019.748-.02.951-.182.113-.089.261-.269.329-.4.233-.446.038-1.045-.415-1.276-.184-.093-.313-.107-1-.107-.738.001-.802.009-1.002.129m4.564-.036a1.3 1.3 0 0 0-.347.298c-.146.183-.163.243-.163.564-.001.3.023.394.142.575.24.362.481.443 1.324.443s1.084-.081 1.324-.443c.119-.181.143-.275.142-.575 0-.321-.017-.381-.163-.564-.278-.348-.423-.391-1.303-.391-.631 0-.807.017-.956.093m4.463.017c-.264.139-.463.448-.499.775-.036.325.121.657.424.898.203.162.21.163.951.182.594.015.794.001.973-.068.768-.293.857-1.38.146-1.779-.191-.108-.281-.118-1.003-.116-.684.002-.82.017-.992.108"/></svg>