<svg xmlns="http://www.w3.org/2000/svg" width="20" height="20" fill="none"><g clip-path="url(#a)"><path fill="#1A1C1F" fill-rule="evenodd" d="M6 18h8c1.094 0 2-.906 2-2V4c0-1.125-.906-2-2-2H6c-1.094 0-2 .875-2 2v12c0 1.094.906 2 2 2m0-2V4h8v12zm1-3.016c0-.508.426-.984.984-.984.59 0 1.016.476 1.016.984A1.01 1.01 0 0 1 7.984 14C7.426 14 7 13.524 7 12.984m3.997 0c0-.508.451-.984 1-.984s1 .476 1 .984c0 .54-.452 1.016-1 1.016-.549 0-1-.476-1-1.016" clip-rule="evenodd"/></g><defs><clipPath id="a"><path fill="#fff" d="M0 0h20v20H0z"/></clipPath></defs></svg>