<svg width="32" height="32" viewBox="0 0 32 32" fill="none" xmlns="http://www.w3.org/2000/svg"><path d="M13.520 2.661 C 13.217 2.838,13.143 2.938,13.067 3.277 C 12.980 3.668,13.079 4.002,13.361 4.261 C 13.489 4.380,13.649 4.488,13.717 4.503 C 13.785 4.517,16.600 4.540,19.973 4.554 C 23.506 4.569,26.204 4.601,26.336 4.630 C 26.623 4.693,26.809 4.863,26.894 5.143 C 26.945 5.312,26.960 7.299,26.960 14.084 L 26.960 22.808 26.814 23.029 C 26.560 23.412,26.484 23.432,25.067 23.469 C 23.926 23.500,23.793 23.513,23.590 23.617 C 23.148 23.844,22.944 24.320,23.094 24.774 C 23.185 25.052,23.491 25.373,23.725 25.439 C 23.967 25.506,26.108 25.510,26.507 25.444 C 27.554 25.271,28.469 24.469,28.835 23.400 L 28.987 22.960 28.987 14.000 L 28.987 5.040 28.857 4.647 C 28.540 3.685,27.804 2.955,26.827 2.634 C 26.552 2.544,26.134 2.537,20.160 2.521 L 13.787 2.504 13.520 2.661 M6.476 6.558 L 5.191 6.587 4.728 6.817 C 3.885 7.234,3.258 8.020,3.080 8.880 C 3.028 9.128,3.013 11.207,3.013 18.080 L 3.013 26.960 3.143 27.357 C 3.410 28.170,4.004 28.840,4.791 29.216 C 5.148 29.386,5.242 29.407,5.858 29.446 C 6.737 29.501,17.263 29.501,18.142 29.446 C 18.758 29.407,18.852 29.386,19.209 29.216 C 19.996 28.840,20.590 28.170,20.857 27.357 L 20.987 26.960 20.987 18.080 C 20.987 11.207,20.972 9.128,20.920 8.880 C 20.741 8.014,20.120 7.237,19.271 6.816 L 18.808 6.587 17.951 6.552 C 16.951 6.511,8.358 6.515,6.476 6.558 M15.840 8.527 C 18.362 8.560,18.374 8.561,18.543 8.681 C 18.636 8.747,18.768 8.891,18.836 9.001 L 18.960 9.200 18.960 18.004 L 18.960 26.808 18.810 27.035 C 18.521 27.471,19.048 27.440,12.000 27.440 C 4.952 27.440,5.479 27.471,5.190 27.035 L 5.040 26.808 5.040 18.004 L 5.040 9.200 5.164 9.001 C 5.353 8.697,5.566 8.572,5.969 8.531 C 6.415 8.485,12.516 8.483,15.840 8.527 M23.594 17.595 C 23.172 17.787,22.924 18.290,23.040 18.721 C 23.135 19.073,23.474 19.392,23.807 19.442 C 24.153 19.494,24.457 19.395,24.700 19.152 C 25.092 18.761,25.086 18.206,24.687 17.807 C 24.375 17.495,23.982 17.419,23.594 17.595 M7.575 22.600 C 7.341 22.718,7.055 23.091,7.009 23.340 C 6.961 23.592,7.052 23.873,7.261 24.127 C 7.655 24.603,8.343 24.606,8.732 24.134 C 8.959 23.858,9.044 23.537,8.959 23.271 C 8.759 22.648,8.107 22.332,7.575 22.600 M11.575 22.600 C 11.341 22.718,11.055 23.091,11.009 23.340 C 10.961 23.592,11.052 23.873,11.261 24.127 C 11.655 24.603,12.343 24.606,12.732 24.134 C 12.959 23.858,13.044 23.537,12.959 23.271 C 12.759 22.648,12.107 22.332,11.575 22.600 M15.644 22.565 C 15.550 22.592,15.388 22.715,15.283 22.838 C 14.926 23.254,14.905 23.653,15.217 24.065 C 15.509 24.451,15.967 24.584,16.392 24.407 C 16.755 24.255,17.069 23.681,16.989 23.315 C 16.932 23.058,16.656 22.722,16.410 22.610 C 16.170 22.502,15.916 22.487,15.644 22.565 " fill="#1A1C1F" stroke="none" fill-rule="evenodd"></path></svg>