<svg xmlns="http://www.w3.org/2000/svg" width="24" height="24" fill="none"><g clip-path="url(#a)"><path fill="#1A1C1F" fill-rule="evenodd" d="M2 19V9a3 3 0 0 1 3-3h7a3 3 0 0 1 3 3v10a3 3 0 0 1-3 3H5a3 3 0 0 1-3-3m2 0c0 .531.469 1 1 1h7c.531 0 1-.469 1-1V9c0-.563-.469-1-1-1H5c-.531 0-1 .438-1 1zm2-2c0 .531.469 1 1 1 .563 0 1-.469 1-1 0-.563-.438-1-1-1-.531 0-1 .438-1 1m3 0c0 .531.438 1 1 1 .531 0 1-.469 1-1 0-.563-.469-1-1-1-.563 0-1 .438-1 1m2-14c0-.563.469-1 1-1h7a3 3 0 0 1 3 3v10c0 1.563-1.281 3-3 3h-1c-.531 0-.969-.469-.969-1 0-.563.438-1 .969-1h1c.531 0 1-.438 1-1V5c0-.531-.469-1-1-1h-7c-.531 0-1-.438-1-1" clip-rule="evenodd"/></g><defs><clipPath id="a"><path fill="#fff" d="M0 0h24v24H0z"/></clipPath></defs></svg>