<svg xmlns="http://www.w3.org/2000/svg" width="28" height="28" fill="none"><g clip-path="url(#a)"><path fill="#1A1C1F" fill-rule="evenodd" d="M20.125 1.75a2.626 2.626 0 0 1 2.625 2.625v19.25a2.626 2.626 0 0 1-2.625 2.625H7.875a2.626 2.626 0 0 1-2.625-2.625V4.375A2.626 2.626 0 0 1 7.875 1.75zm0 1.75H7.875A.864.864 0 0 0 7 4.375v19.25c0 .492.383.875.875.875h12.25a.863.863 0 0 0 .875-.875V4.375a.863.863 0 0 0-.875-.875M8.75 20.125c0-.492.383-.875.875-.875h.875c.492 0 .875.383.875.875A.863.863 0 0 1 10.5 21h-.875a.863.863 0 0 1-.875-.875m3.938 0c0-.492.382-.875.874-.875h.876c.492 0 .874.383.874.875a.864.864 0 0 1-.874.875h-.876a.865.865 0 0 1-.874-.875m3.937 0c0-.492.383-.875.875-.875h.875c.492 0 .875.383.875.875a.863.863 0 0 1-.875.875H17.5a.863.863 0 0 1-.875-.875" clip-rule="evenodd"/></g><defs><clipPath id="a"><path fill="#fff" d="M0 0h28v28H0z"/></clipPath></defs></svg>