<svg xmlns="http://www.w3.org/2000/svg" width="32" height="32" fill="none"><g clip-path="url(#a)"><path fill="#1A1C1F" fill-rule="evenodd" d="M23 2a3 3 0 0 1 3 3v22a3 3 0 0 1-3 3H9a3 3 0 0 1-3-3V5a3 3 0 0 1 3-3zm0 2H9c-.563 0-1 .438-1 1v22c0 .563.438 1 1 1h14c.563 0 1-.438 1-1V5c0-.563-.438-1-1-1M10 23c0-.563.438-1 1-1h1c.563 0 1 .438 1 1s-.438 1-1 1h-1c-.563 0-1-.438-1-1m4.5 0c0-.563.438-1 1-1h1c.563 0 1 .438 1 1s-.438 1-1 1h-1c-.563 0-1-.438-1-1m4.5 0c0-.563.438-1 1-1h1c.563 0 1 .438 1 1s-.438 1-1 1h-1c-.563 0-1-.438-1-1" clip-rule="evenodd"/></g><defs><clipPath id="a"><path fill="#fff" d="M0 0h32v32H0z"/></clipPath></defs></svg>