<svg xmlns="http://www.w3.org/2000/svg" width="12" height="12" fill="none"><g clip-path="url(#a)"><path fill="#1A1C1F" fill-rule="evenodd" d="M9.554 2.4c.688 0 1.246.558 1.246 1.246V4.8a.6.6 0 0 1-.6.6.6.6 0 1 0 0 1.2.6.6 0 0 1 .6.6v1.154c0 .688-.558 1.246-1.246 1.246H2.446A1.246 1.246 0 0 1 1.2 8.354V7.2a.6.6 0 0 1 .6-.6.6.6 0 0 0 0-1.2.6.6 0 0 1-.6-.6V3.646c0-.688.558-1.246 1.246-1.246zm-2.36 4.197a.6.6 0 0 0-.597.597.603.603 0 1 0 .597-.597M6.9 4.246 4.258 6.9l.84.841L7.755 5.1l-.853-.853zm-2.095-.05a.604.604 0 1 0-.012 1.207.604.604 0 0 0 .012-1.207" clip-rule="evenodd"/></g><defs><clipPath id="a"><path fill="#fff" d="M0 0h12v12H0z"/></clipPath></defs></svg>