<svg xmlns="http://www.w3.org/2000/svg" width="32" height="32" fill="none"><g clip-path="url(#a)"><path fill="#1A1C1F" fill-rule="evenodd" d="M27 6a3 3 0 0 1 3 3v4a1 1 0 0 1-1 1 2 2 0 0 0 0 4 1 1 0 0 1 1 1v4a3 3 0 0 1-3 3H5a3 3 0 0 1-3-3v-4a1 1 0 0 1 1-1 2 2 0 1 0 0-4 1 1 0 0 1-1-1V9a3 3 0 0 1 3-3zm0 2H5a1 1 0 0 0-1 1v3.126l.155.043a4 4 0 0 1 2.84 3.631L7 16a4 4 0 0 1-2.845 3.83L4 19.874V23a1 1 0 0 0 .883.993L5 24h22a1 1 0 0 0 1-1v-3.127l-.155-.042a4 4 0 0 1-2.84-3.631L25 16a4 4 0 0 1 2.845-3.83l.155-.044V9a1 1 0 0 0-.883-.993zm-6.985 3.063c.432 0 .987.382.987 1 0 .25-.095.5-.287.687l-7.997 7.844a1.03 1.03 0 0 1-.733.281.977.977 0 0 1-.987-.969c0-.25.095-.5.287-.687l8.029-7.844c.191-.187.446-.313.7-.313zm-.096 5.874c1.115 0 2.007.907 2.007 1.97 0 1.093-.892 1.968-2.007 1.968s-2.007-.875-2.007-1.969c0-1.062.892-1.969 2.007-1.969m-7.36-5.875c1.115 0 2.007.876 2.007 1.97S13.674 15 12.559 15s-2.007-.875-2.007-1.969.892-1.969 2.007-1.969" clip-rule="evenodd"/></g><defs><clipPath id="a"><path fill="#fff" d="M0 0h32v32H0z"/></clipPath></defs></svg>