<svg xmlns="http://www.w3.org/2000/svg" width="20" height="20" fill="none"><g clip-path="url(#a)"><path fill="#1A1C1F" fill-rule="evenodd" d="M15.923 4C17.07 4 18 4.93 18 6.077V8a1 1 0 0 1-1 1 1 1 0 1 0 0 2 1 1 0 0 1 1 1v1.923C18 15.07 17.07 16 15.923 16H4.077A2.077 2.077 0 0 1 2 13.923V12a1 1 0 0 1 1-1 1 1 0 0 0 0-2 1 1 0 0 1-1-1V6.077C2 4.93 2.93 4 4.077 4zm0 2H4.077A.077.077 0 0 0 4 6.077V7.17l.012.005a3 3 0 0 1 1.983 2.649L6 10c0 1.302-.83 2.41-1.988 2.825L4 12.83v1.094c0 .032.02.06.047.071l.03.006h11.846a.077.077 0 0 0 .077-.077V12.83l-.012-.004a3 3 0 0 1-1.983-2.649L14 10c0-1.302.83-2.41 1.988-2.825L16 7.17V6.077c0-.032-.02-.06-.047-.071zm-3.933 4.995a1.006 1.006 0 1 1 .127 2.007 1.006 1.006 0 0 1-.127-2.007m-.488-3.919 1.422 1.422-4.426 4.406-1.402-1.402zM8.01 6.995c.548 0 .995.447.995 1.015a.996.996 0 0 1-.995.995 1 1 0 0 1-1.015-.995c0-.568.447-1.015 1.015-1.015" clip-rule="evenodd"/></g><defs><clipPath id="a"><path fill="#fff" d="M0 0h20v20H0z"/></clipPath></defs></svg>