<svg xmlns="http://www.w3.org/2000/svg" width="24" height="24" fill="none"><g clip-path="url(#a)"><path fill="#1A1C1F" fill-rule="evenodd" d="M19.615 5A2.385 2.385 0 0 1 22 7.385V10a1 1 0 0 1-1 1c-.603 0-1.077.456-1.077 1s.474 1 1.077 1a1 1 0 0 1 1 1v2.615A2.385 2.385 0 0 1 19.615 19H4.385A2.385 2.385 0 0 1 2 16.615V14a1 1 0 0 1 1-1c.603 0 1.077-.456 1.077-1S3.603 11 3 11a1 1 0 0 1-1-1V7.385A2.385 2.385 0 0 1 4.385 5zm0 2H4.385A.385.385 0 0 0 4 7.385v1.777l.034.012c1.133.394 1.964 1.418 2.038 2.649l.005.177c0 1.309-.856 2.413-2.043 2.826L4 14.837v1.778c0 .186.132.341.307.377l.078.008h15.23a.385.385 0 0 0 .385-.385v-1.778l-.034-.011c-1.133-.394-1.964-1.418-2.038-2.649L17.923 12c0-1.309.856-2.413 2.043-2.826L20 9.162V7.385a.385.385 0 0 0-.307-.377zm-4.604 6.02c.559 0 .996.437.996.996a.986.986 0 0 1-.996.995.986.986 0 0 1-.995-.995c0-.559.437-.996.995-.996m-1.02-4.031a1 1 0 0 1 1.02 1.02c0 .242-.097.51-.291.704l-4.007 4.007a1.03 1.03 0 0 1-1.441-.01 1 1 0 0 1-.283-.719c0-.242.097-.51.291-.704l4.007-4.007c.194-.194.462-.291.704-.291m-4.978-.073c.583 0 1.044.485 1.044 1.044 0 .583-.461 1.044-1.044 1.044A1.036 1.036 0 0 1 7.969 9.96c0-.559.461-1.044 1.044-1.044" clip-rule="evenodd"/></g><defs><clipPath id="a"><path fill="#fff" d="M0 0h24v24H0z"/></clipPath></defs></svg>