<svg width="20" height="20" viewBox="0 0 20 20" fill="none" xmlns="http://www.w3.org/2000/svg"><path d="M4.333 4.033 C 3.579 4.052,3.542 4.056,3.333 4.143 C 2.751 4.387,2.314 4.852,2.110 5.444 L 2.017 5.717 2.017 6.983 C 2.017 8.374,2.010 8.321,2.229 8.622 C 2.362 8.806,2.659 8.948,3.043 9.012 C 3.515 9.091,3.840 9.327,3.932 9.659 C 3.976 9.819,3.976 10.181,3.932 10.341 C 3.839 10.674,3.472 10.935,3.000 11.002 C 2.663 11.049,2.360 11.197,2.229 11.378 C 2.010 11.679,2.017 11.626,2.017 13.017 L 2.017 14.283 2.110 14.556 C 2.331 15.199,2.801 15.669,3.444 15.890 L 3.717 15.983 10.000 15.983 L 16.283 15.983 16.556 15.890 C 17.199 15.669,17.669 15.199,17.890 14.556 L 17.983 14.283 17.983 13.017 C 17.983 11.626,17.990 11.679,17.771 11.378 C 17.643 11.202,17.337 11.050,17.014 11.003 C 16.522 10.930,16.298 10.790,16.130 10.447 C 15.950 10.083,15.994 9.682,16.251 9.346 C 16.364 9.197,16.695 9.045,17.000 9.001 C 17.335 8.953,17.639 8.804,17.771 8.622 C 17.990 8.321,17.983 8.375,17.983 6.967 L 17.983 5.683 17.879 5.413 C 17.683 4.905,17.385 4.544,16.953 4.292 C 16.606 4.089,16.495 4.066,15.717 4.032 C 14.960 4.000,5.619 4.000,4.333 4.033 M15.957 6.046 C 15.968 6.056,15.983 6.313,15.993 6.616 L 16.009 7.166 15.815 7.252 C 14.988 7.618,14.343 8.364,14.102 9.235 C 14.004 9.588,14.003 10.410,14.101 10.762 C 14.342 11.631,14.925 12.319,15.775 12.737 L 16.000 12.848 16.000 13.199 C 16.000 13.392,15.990 13.651,15.978 13.775 L 15.957 14.000 10.000 14.000 L 4.043 14.000 4.022 13.775 C 4.010 13.651,4.000 13.392,4.000 13.199 L 4.000 12.848 4.225 12.737 C 4.672 12.518,5.118 12.159,5.400 11.793 C 5.793 11.283,6.036 10.462,5.989 9.801 C 5.967 9.494,5.856 9.061,5.718 8.750 C 5.449 8.141,4.902 7.597,4.241 7.281 L 3.998 7.165 4.008 6.608 L 4.017 6.050 4.400 6.029 C 4.866 6.004,15.931 6.020,15.957 6.046 M7.767 7.030 C 7.503 7.085,7.239 7.298,7.111 7.559 C 7.031 7.720,7.017 7.792,7.017 8.017 C 7.017 8.250,7.029 8.306,7.116 8.462 C 7.314 8.820,7.672 9.019,8.067 8.992 C 8.330 8.973,8.522 8.882,8.716 8.682 C 8.930 8.463,8.983 8.330,8.982 8.017 C 8.982 7.715,8.917 7.530,8.736 7.325 C 8.535 7.096,8.093 6.961,7.767 7.030 M9.283 9.300 L 7.084 11.500 7.792 12.208 L 8.500 12.917 10.708 10.708 L 12.916 8.500 12.217 7.800 C 11.832 7.415,11.510 7.100,11.500 7.100 C 11.491 7.100,10.493 8.090,9.283 9.300 M11.792 11.035 C 11.626 11.076,11.439 11.197,11.302 11.353 C 10.870 11.845,11.028 12.596,11.626 12.890 C 11.787 12.969,11.856 12.983,12.067 12.980 C 12.223 12.978,12.365 12.955,12.445 12.920 C 12.640 12.834,12.883 12.588,12.967 12.392 C 13.058 12.180,13.069 11.812,12.990 11.626 C 12.918 11.456,12.656 11.183,12.488 11.104 C 12.325 11.026,11.968 10.991,11.792 11.035 " fill="#1A1C1F" stroke="none" fill-rule="evenodd"></path></svg>