<svg xmlns="http://www.w3.org/2000/svg" width="14" height="14" fill="none"><g clip-path="url(#a)"><path fill="#1A1C1F" fill-rule="evenodd" d="M11.146 2.8c.803 0 1.454.65 1.454 1.454V5.6a.7.7 0 0 1-.7.7.7.7 0 1 0 0 1.4.7.7 0 0 1 .7.7v1.346c0 .803-.65 1.454-1.454 1.454H2.854c-.803 0-1.454-.65-1.454-1.454V8.4a.7.7 0 0 1 .7-.7.7.7 0 1 0 0-1.4.7.7 0 0 1-.7-.7V4.254c0-.803.65-1.454 1.454-1.454zm0 1.4H2.854a.054.054 0 0 0-.054.054v.765c.783.28 1.347 1 1.396 1.858L4.2 7a2.1 2.1 0 0 1-1.392 1.978l-.008.768c0 .022.014.042.033.05l.02.004h8.293c.03 0 .054-.024.054-.054V8.98c-.783-.28-1.347-1-1.396-1.857L9.8 7a2.1 2.1 0 0 1 1.392-1.978l.008-.768a.05.05 0 0 0-.033-.05zM8.393 7.696a.704.704 0 1 1 .065 1.406.704.704 0 0 1-.065-1.406m-.341-2.743.995.995-3.099 3.084-.98-.98zm-2.445-.057a.7.7 0 0 1 .697.711.7.7 0 0 1-.697.697.704.704 0 1 1 0-1.408" clip-rule="evenodd"/></g><defs><clipPath id="a"><path fill="#fff" d="M0 0h14v14H0z"/></clipPath></defs></svg>