<svg xmlns="http://www.w3.org/2000/svg" width="16" height="16" fill="none"><g clip-path="url(#a)"><path fill="#1A1C1F" fill-rule="evenodd" d="M12.738 3.2c.918 0 1.662.744 1.662 1.662V6.4a.8.8 0 0 1-.8.8.8.8 0 1 0 0 1.6.8.8 0 0 1 .8.8v1.538c0 .918-.744 1.662-1.662 1.662H3.262A1.66 1.66 0 0 1 1.6 11.138V9.6a.8.8 0 0 1 .8-.8.8.8 0 1 0 0-1.6.8.8 0 0 1-.8-.8V4.862c0-.918.744-1.662 1.662-1.662zm0 1.6H3.262a.06.06 0 0 0-.062.062v.874l.01.004a2.4 2.4 0 0 1 1.586 2.119L4.8 8a2.4 2.4 0 0 1-1.59 2.26l-.01.003v.875a.06.06 0 0 0 .038.057l.024.005h9.476a.06.06 0 0 0 .062-.062v-.875l-.01-.003a2.4 2.4 0 0 1-1.586-2.119L11.2 8c0-1.041.663-1.928 1.59-2.26l.01-.004v-.874a.062.062 0 0 0-.038-.057zM9.592 8.796a.804.804 0 1 1 .016 1.608.804.804 0 0 1-.016-1.608m-.39-3.135 1.137 1.137-3.541 3.525-1.12-1.121zm-2.794-.065a.8.8 0 0 1 .796.812.797.797 0 0 1-1.365.56.804.804 0 0 1 .569-1.372" clip-rule="evenodd"/></g><defs><clipPath id="a"><path fill="#fff" d="M0 0h16v16H0z"/></clipPath></defs></svg>