<svg width="12" height="12" viewBox="0 0 12 12" fill="none" xmlns="http://www.w3.org/2000/svg"><path d="M2.600 2.419 C 2.145 2.431,2.126 2.433,2.000 2.486 C 1.648 2.635,1.393 2.904,1.265 3.263 C 1.212 3.409,1.212 3.414,1.204 4.114 C 1.196 4.913,1.203 4.981,1.317 5.143 C 1.414 5.282,1.577 5.367,1.826 5.408 C 2.109 5.455,2.304 5.596,2.359 5.796 C 2.386 5.891,2.386 6.109,2.359 6.204 C 2.304 6.404,2.083 6.561,1.800 6.601 C 1.608 6.628,1.422 6.716,1.341 6.819 C 1.208 6.987,1.210 6.971,1.210 7.820 L 1.211 8.590 1.264 8.737 C 1.337 8.939,1.429 9.085,1.572 9.228 C 1.715 9.371,1.860 9.462,2.063 9.536 L 2.210 9.590 5.990 9.590 L 9.770 9.590 9.934 9.534 C 10.316 9.402,10.595 9.126,10.736 8.737 L 10.789 8.590 10.790 7.820 C 10.790 6.971,10.792 6.987,10.659 6.819 C 10.580 6.719,10.393 6.629,10.209 6.602 C 9.913 6.558,9.779 6.474,9.678 6.268 C 9.570 6.050,9.596 5.809,9.751 5.607 C 9.819 5.518,10.017 5.427,10.200 5.401 C 10.401 5.372,10.584 5.282,10.663 5.173 C 10.794 4.992,10.790 5.025,10.790 4.180 L 10.790 3.410 10.727 3.248 C 10.610 2.943,10.431 2.727,10.172 2.575 C 9.962 2.453,9.898 2.439,9.420 2.420 C 8.955 2.400,3.372 2.400,2.600 2.419 M5.058 4.266 C 5.171 4.318,5.281 4.428,5.337 4.543 C 5.371 4.613,5.380 4.669,5.380 4.800 C 5.380 4.996,5.339 5.101,5.215 5.225 C 4.943 5.497,4.487 5.436,4.285 5.100 C 4.224 4.999,4.220 4.980,4.220 4.805 C 4.220 4.604,4.244 4.529,4.351 4.402 C 4.507 4.217,4.823 4.156,5.058 4.266 M7.330 4.680 L 7.750 5.100 6.425 6.425 L 5.100 7.750 4.675 7.325 L 4.250 6.900 5.570 5.580 C 6.296 4.854,6.894 4.260,6.900 4.260 C 6.906 4.260,7.099 4.449,7.330 4.680 M7.454 6.663 C 7.565 6.715,7.683 6.832,7.737 6.943 C 7.798 7.070,7.798 7.330,7.737 7.457 C 7.683 7.568,7.569 7.684,7.456 7.743 C 7.341 7.802,7.066 7.807,6.960 7.751 C 6.837 7.686,6.778 7.633,6.698 7.513 C 6.621 7.397,6.620 7.393,6.620 7.207 C 6.620 7.004,6.644 6.929,6.751 6.802 C 6.906 6.618,7.223 6.556,7.454 6.663 " fill="#1A1C1F" stroke="none" fill-rule="evenodd"></path></svg>