<svg xmlns="http://www.w3.org/2000/svg" width="28" height="28" fill="none"><g clip-path="url(#a)"><path fill="#1A1C1F" fill-rule="evenodd" d="M23.625 5.25a2.625 2.625 0 0 1 2.625 2.625v3.5a.875.875 0 0 1-.875.875 1.75 1.75 0 0 0 0 3.5c.483 0 .875.392.875.875v3.5a2.625 2.625 0 0 1-2.625 2.625H4.375a2.625 2.625 0 0 1-2.625-2.625v-3.5c0-.483.392-.875.875-.875a1.75 1.75 0 0 0 0-3.5.875.875 0 0 1-.875-.875v-3.5A2.625 2.625 0 0 1 4.375 5.25zm0 1.75H4.375a.875.875 0 0 0-.875.875v2.735l.136.038a3.5 3.5 0 0 1 2.485 3.177l.004.175a3.5 3.5 0 0 1-2.49 3.352l-.135.037v2.736c0 .449.338.819.773.87l.102.005h19.25a.875.875 0 0 0 .875-.875v-2.736l-.136-.037a3.5 3.5 0 0 1-2.485-3.177L21.875 14a3.5 3.5 0 0 1 2.49-3.352l.135-.038V7.875a.875.875 0 0 0-.773-.87zm-6.112 2.68c.379 0 .864.335.864.875a.84.84 0 0 1-.25.601l-6.999 6.864a.9.9 0 0 1-.64.246.857.857 0 0 1-.865-.848.84.84 0 0 1 .25-.602L16.9 9.953a.9.9 0 0 1 .613-.273m-.084 5.14c.976 0 1.756.793 1.756 1.723 0 .957-.78 1.723-1.756 1.723s-1.756-.766-1.756-1.723c0-.93.78-1.723 1.756-1.723m-6.44-5.14c.976 0 1.756.765 1.756 1.722s-.78 1.723-1.756 1.723-1.756-.766-1.756-1.723.78-1.722 1.756-1.722" clip-rule="evenodd"/></g><defs><clipPath id="a"><path fill="#fff" d="M0 0h28v28H0z"/></clipPath></defs></svg>