<svg xmlns="http://www.w3.org/2000/svg" width="20" height="20" fill="none"><g clip-path="url(#a)"><path fill="#1A1C1F" fill-rule="evenodd" d="M15.923 4C17.07 4 18 4.93 18 6.077V8a1 1 0 0 1-1 1 1 1 0 1 0 0 2 1 1 0 0 1 1 1v1.923C18 15.07 17.07 16 15.923 16H4.077A2.077 2.077 0 0 1 2 13.923V12a1 1 0 0 1 1-1 1 1 0 0 0 0-2 1 1 0 0 1-1-1V6.077C2 4.93 2.93 4 4.077 4zm-3.933 6.995a.996.996 0 0 0-.995.995 1.006 1.006 0 1 0 .995-.995m-.488-3.919-4.406 4.426 1.402 1.402 4.426-4.406zM8.01 6.995a1.006 1.006 0 1 0 0 2.01.996.996 0 0 0 .995-.995c0-.568-.447-1.015-.995-1.015" clip-rule="evenodd"/></g><defs><clipPath id="a"><path fill="#fff" d="M0 0h20v20H0z"/></clipPath></defs></svg>