<svg xmlns="http://www.w3.org/2000/svg" width="32" height="32" fill="none"><path fill="#1A1C1F" fill-rule="evenodd" d="M4.22 6.111c-.677.182-1.359.683-1.747 1.285a4 4 0 0 0-.325.693l-.147.418v2.32c-.001 1.276.017 2.385.04 2.465.051.183.328.503.523.603.081.042.342.098.579.125.973.109 1.647.721 1.815 1.65.155.855-.318 1.769-1.1 2.127a3.3 3.3 0 0 1-.757.2c-.253.035-.512.091-.574.125-.166.09-.44.419-.486.586-.023.08-.041 1.189-.04 2.465v2.32l.147.418c.34.965.974 1.599 1.941 1.941l.418.148h22.986l.418-.148c.967-.342 1.601-.976 1.941-1.941l.147-.418v-2.32c.001-1.276-.017-2.385-.04-2.465-.046-.164-.319-.496-.478-.581-.058-.031-.319-.089-.58-.128a3.5 3.5 0 0 1-.765-.204c-.776-.356-1.249-1.273-1.094-2.125.168-.929.842-1.541 1.815-1.65.237-.027.498-.083.579-.125.195-.1.472-.42.523-.603.023-.08.041-1.189.04-2.465v-2.32l-.147-.418c-.269-.764-.774-1.37-1.429-1.714-.715-.375.249-.349-12.448-.345-9.828.003-11.509.015-11.755.081m23.128 1.972c.263.11.432.272.551.53.089.193.099.374.1 1.874l.001 1.66-.168.033c-.305.061-.94.403-1.34.72-1.434 1.14-1.886 3.155-1.086 4.833.447.935 1.189 1.616 2.183 2.003l.384.149.016 1.591c.011 1.051-.004 1.66-.043 1.794-.08.276-.391.609-.631.675-.291.081-22.385.075-22.627-.005-.248-.083-.51-.343-.609-.603-.068-.181-.079-.482-.067-1.832l.015-1.616.439-.177c.966-.389 1.691-1.063 2.128-1.979.8-1.678.348-3.693-1.086-4.833-.4-.317-1.035-.659-1.34-.72L4 12.147v-1.649c0-1.367.014-1.682.083-1.846a.98.98 0 0 1 .53-.551c.206-.095.638-.099 11.375-.1 9.956-.001 11.183.008 11.36.082m-15.437 3.084c-.321.105-.555.262-.838.565-.379.406-.48.674-.484 1.282-.002.468.011.535.171.86.205.418.54.745.964.944.264.124.37.142.836.142s.572-.018.836-.142c.928-.435 1.377-1.458 1.059-2.414-.15-.449-.547-.899-.995-1.125-.267-.135-.377-.158-.818-.17-.322-.009-.59.012-.731.058m7.662.032c-.161.086-8.135 7.827-8.385 8.139-.356.446-.176 1.178.353 1.429.242.115.708.111.927-.007.095-.051 2.02-1.904 4.278-4.117 4.442-4.352 4.323-4.22 4.245-4.706-.107-.669-.839-1.05-1.418-.738m-.395 5.891c-1.069.448-1.548 1.607-1.08 2.617.708 1.532 2.936 1.54 3.642.012.133-.288.153-.396.153-.813 0-.435-.016-.515-.173-.834a2.02 2.02 0 0 0-.964-.943c-.445-.208-1.135-.225-1.578-.039"/></svg>