<svg width="28" height="28" viewBox="0 0 28 28" fill="none" xmlns="http://www.w3.org/2000/svg"><path d="M4.643 5.319 C 3.499 5.350,3.451 5.361,2.900 5.735 C 2.376 6.091,2.053 6.546,1.819 7.255 C 1.713 7.579,1.713 7.585,1.739 9.607 L 1.765 11.633 1.898 11.821 C 2.100 12.107,2.229 12.178,2.686 12.255 C 3.443 12.383,3.917 12.696,4.187 13.246 C 4.304 13.484,4.317 13.559,4.317 14.000 C 4.317 14.448,4.305 14.513,4.182 14.756 C 4.020 15.075,3.697 15.411,3.424 15.543 C 3.315 15.596,2.993 15.687,2.709 15.746 C 2.159 15.859,2.049 15.921,1.859 16.228 C 1.769 16.375,1.763 16.476,1.740 18.423 L 1.716 20.463 1.860 20.854 C 2.206 21.791,2.711 22.300,3.620 22.629 L 4.018 22.773 14.000 22.773 L 23.982 22.773 24.380 22.629 C 25.289 22.301,25.794 21.791,26.140 20.854 L 26.284 20.463 26.259 18.422 C 26.235 16.479,26.230 16.372,26.140 16.227 C 25.954 15.926,25.846 15.865,25.293 15.748 C 25.006 15.687,24.679 15.593,24.567 15.538 C 24.291 15.405,23.985 15.085,23.819 14.758 C 23.695 14.513,23.683 14.449,23.683 14.000 C 23.683 13.559,23.696 13.484,23.813 13.246 C 24.083 12.696,24.557 12.383,25.314 12.255 C 25.771 12.178,25.900 12.107,26.102 11.821 L 26.234 11.635 26.259 9.586 L 26.284 7.537 26.133 7.126 C 25.858 6.376,25.422 5.866,24.773 5.537 L 24.424 5.360 23.424 5.318 C 22.342 5.273,6.330 5.274,4.643 5.319 M24.048 7.134 C 24.146 7.195,24.282 7.331,24.351 7.437 L 24.477 7.630 24.492 9.135 C 24.507 10.590,24.505 10.640,24.419 10.640 C 24.274 10.640,23.520 11.030,23.207 11.266 C 22.450 11.838,21.946 12.837,21.899 13.860 C 21.829 15.366,22.726 16.722,24.157 17.273 L 24.445 17.383 24.478 18.008 C 24.497 18.352,24.502 19.029,24.491 19.514 L 24.470 20.395 24.333 20.590 C 24.257 20.698,24.122 20.829,24.033 20.881 C 23.870 20.977,23.863 20.977,14.000 20.977 C 4.137 20.977,4.130 20.977,3.967 20.881 C 3.878 20.829,3.743 20.697,3.667 20.589 L 3.529 20.393 3.509 19.464 C 3.497 18.953,3.503 18.276,3.522 17.959 L 3.555 17.383 3.843 17.273 C 5.142 16.776,6.022 15.573,6.101 14.185 C 6.160 13.136,5.782 12.206,4.995 11.468 C 4.629 11.124,3.972 10.732,3.648 10.664 L 3.492 10.631 3.508 9.127 L 3.523 7.623 3.651 7.429 C 3.849 7.132,3.996 7.074,4.643 7.043 C 4.951 7.027,9.403 7.017,14.537 7.019 L 23.870 7.023 24.048 7.134 M10.526 9.756 C 10.082 9.830,9.449 10.402,9.329 10.838 C 9.299 10.947,9.272 11.216,9.270 11.436 C 9.267 11.786,9.283 11.868,9.402 12.112 C 9.575 12.465,9.889 12.778,10.244 12.953 C 10.498 13.077,10.566 13.089,10.990 13.088 C 11.362 13.086,11.499 13.066,11.667 12.989 C 12.568 12.572,12.978 11.567,12.589 10.727 C 12.337 10.182,11.884 9.838,11.312 9.755 C 10.946 9.702,10.849 9.702,10.526 9.756 M17.197 9.774 C 17.033 9.848,16.385 10.464,13.067 13.701 C 9.829 16.859,9.730 16.961,9.662 17.212 C 9.519 17.745,9.926 18.246,10.500 18.244 C 10.616 18.243,10.767 18.217,10.838 18.186 C 11.112 18.065,18.090 11.220,18.291 10.873 C 18.642 10.270,17.853 9.477,17.197 9.774 M17.005 14.881 C 16.526 15.005,16.038 15.409,15.830 15.854 C 15.722 16.084,15.703 16.184,15.703 16.544 C 15.703 16.925,15.718 16.995,15.855 17.273 C 16.035 17.639,16.328 17.925,16.698 18.099 C 16.927 18.206,17.024 18.223,17.407 18.223 C 17.805 18.223,17.881 18.209,18.153 18.080 C 19.122 17.620,19.462 16.509,18.900 15.639 C 18.699 15.328,18.381 15.069,18.060 14.955 C 17.817 14.868,17.216 14.826,17.005 14.881 " fill="#1A1C1F" stroke="none" fill-rule="evenodd"></path></svg>