<svg xmlns="http://www.w3.org/2000/svg" width="16" height="16" fill="none"><g clip-path="url(#a)"><path fill="#1A1C1F" fill-rule="evenodd" d="M12.738 3.2c.918 0 1.662.744 1.662 1.662V6.4a.8.8 0 0 1-.8.8.8.8 0 1 0 0 1.6.8.8 0 0 1 .8.8v1.538c0 .918-.744 1.662-1.662 1.662H3.262A1.66 1.66 0 0 1 1.6 11.138V9.6a.8.8 0 0 1 .8-.8.8.8 0 1 0 0-1.6.8.8 0 0 1-.8-.8V4.862c0-.918.744-1.662 1.662-1.662zM9.592 8.796a.797.797 0 0 0-.796.796.804.804 0 1 0 .796-.796m-.39-3.135L5.677 9.202l1.121 1.12 3.541-3.524zm-2.794-.065a.805.805 0 1 0-.016 1.611.805.805 0 0 0 .016-1.612z" clip-rule="evenodd"/></g><defs><clipPath id="a"><path fill="#fff" d="M0 0h16v16H0z"/></clipPath></defs></svg>