<svg xmlns="http://www.w3.org/2000/svg" width="14" height="14" fill="none"><g clip-path="url(#a)"><path fill="#1A1C1F" fill-rule="evenodd" d="M11.146 2.8c.803 0 1.454.65 1.454 1.454V5.6a.7.7 0 0 1-.7.7.7.7 0 1 0 0 1.4.7.7 0 0 1 .7.7v1.346c0 .803-.65 1.454-1.454 1.454H2.854c-.803 0-1.454-.65-1.454-1.454V8.4a.7.7 0 0 1 .7-.7.7.7 0 1 0 0-1.4.7.7 0 0 1-.7-.7V4.254c0-.803.65-1.454 1.454-1.454zM8.393 7.696a.7.7 0 0 0-.697.697.704.704 0 1 0 .696-.696zm-.341-2.743L4.968 8.052l.98.98 3.099-3.084zm-2.445-.057a.704.704 0 1 0-.014 1.408.704.704 0 0 0 .014-1.408" clip-rule="evenodd"/></g><defs><clipPath id="a"><path fill="#fff" d="M0 0h14v14H0z"/></clipPath></defs></svg>