<svg xmlns="http://www.w3.org/2000/svg" width="20" height="20" fill="none"><path fill="#1A1C1F" fill-rule="evenodd" d="M3.633 4.052c-.753.162-1.371.766-1.567 1.535-.06.232-.066.372-.066 1.417 0 1.08.005 1.173.067 1.339q.22.587.938.659c.62.063.976.426.978.998.001.571-.364.94-.995 1.003q-.703.071-.921.654c-.062.166-.067.259-.067 1.339 0 1.045.006 1.185.066 1.417a2.08 2.08 0 0 0 1.521 1.521c.251.065.395.066 6.413.066s6.162-.001 6.413-.066a2.08 2.08 0 0 0 1.521-1.521c.06-.232.066-.372.066-1.417 0-1.08-.005-1.173-.067-1.339q-.218-.583-.921-.654c-.453-.045-.734-.221-.902-.564a1.02 1.02 0 0 1 0-.878c.168-.342.441-.514.891-.559.472-.048.786-.27.932-.659.062-.166.067-.259.067-1.339 0-1.045-.006-1.185-.066-1.417a2.06 2.06 0 0 0-1.069-1.349c-.513-.253-.043-.237-6.882-.235-5.117.002-6.169.01-6.35.049M8.45 7.108q.295.151.454.459c.065.123.079.201.078.433 0 .243-.012.308-.089.454a1.3 1.3 0 0 1-.243.306c-.484.426-1.272.273-1.576-.306-.077-.146-.09-.211-.09-.454 0-.315.064-.485.261-.695.205-.217.447-.307.788-.293a.9.9 0 0 1 .417.096m3.767.692.699.7-2.208 2.208L8.5 12.917l-.708-.709-.708-.708 2.199-2.2c1.21-1.21 2.208-2.2 2.217-2.2.01 0 .332.315.717.7m.246 3.318c.195.106.333.248.445.458.06.114.075.194.074.424 0 .243-.012.308-.089.454a1 1 0 0 1-1.31.451 1.04 1.04 0 0 1-.491-.481c-.109-.205-.107-.645.004-.857.201-.387.523-.574.956-.555a.8.8 0 0 1 .411.106"/></svg>