<svg width="32" height="32" viewBox="0 0 32 32" fill="none" xmlns="http://www.w3.org/2000/svg"><path d="M5.333 6.079 C 3.995 6.114,3.947 6.125,3.314 6.555 C 2.716 6.961,2.346 7.481,2.079 8.291 C 1.957 8.661,1.957 8.668,1.987 10.979 L 2.017 13.295 2.169 13.509 C 2.400 13.837,2.547 13.918,3.070 14.006 C 3.935 14.152,4.476 14.510,4.785 15.138 C 4.919 15.410,4.933 15.496,4.933 16.000 C 4.933 16.514,4.921 16.585,4.776 16.871 C 4.683 17.055,4.493 17.298,4.308 17.469 C 3.970 17.782,3.673 17.904,2.945 18.025 C 2.520 18.096,2.329 18.216,2.131 18.537 C 2.020 18.717,2.016 18.786,1.989 21.054 L 1.961 23.387 2.126 23.833 C 2.521 24.903,3.099 25.486,4.137 25.862 L 4.592 26.027 16.000 26.027 L 27.408 26.027 27.863 25.862 C 28.901 25.486,29.479 24.904,29.875 23.833 L 30.039 23.387 30.011 21.053 C 29.983 18.833,29.977 18.711,29.874 18.546 C 29.661 18.201,29.538 18.131,28.907 17.998 C 28.578 17.928,28.205 17.820,28.076 17.758 C 27.762 17.606,27.411 17.240,27.222 16.867 C 27.080 16.586,27.067 16.513,27.067 16.000 C 27.067 15.496,27.081 15.410,27.215 15.138 C 27.524 14.510,28.065 14.152,28.930 14.006 C 29.452 13.918,29.600 13.837,29.831 13.510 L 29.982 13.297 30.010 10.955 L 30.039 8.613 29.867 8.143 C 29.552 7.287,29.054 6.704,28.312 6.328 L 27.914 6.126 26.770 6.078 C 25.535 6.027,7.310 6.028,5.333 6.079 M27.484 8.154 C 27.597 8.225,27.753 8.381,27.831 8.501 L 27.973 8.720 27.991 10.440 C 28.009 12.145,28.008 12.160,27.899 12.160 C 27.731 12.160,26.808 12.653,26.494 12.910 C 26.058 13.268,25.672 13.746,25.443 14.213 C 25.173 14.762,25.070 15.157,25.031 15.789 C 24.924 17.514,25.966 19.112,27.608 19.741 L 27.936 19.867 27.975 20.636 C 27.996 21.060,28.003 21.835,27.989 22.358 C 27.964 23.308,27.963 23.312,27.808 23.533 C 27.722 23.655,27.568 23.804,27.466 23.864 C 27.280 23.973,27.272 23.973,16.000 23.973 L 4.720 23.973 4.516 23.847 C 4.404 23.777,4.248 23.623,4.170 23.504 L 4.027 23.288 4.011 22.084 C 4.003 21.422,4.015 20.655,4.038 20.379 L 4.080 19.879 4.457 19.713 C 5.858 19.096,6.685 18.059,6.939 16.602 C 7.013 16.178,6.972 15.413,6.852 14.960 C 6.651 14.204,6.146 13.435,5.506 12.910 C 5.192 12.653,4.269 12.160,4.101 12.160 C 3.992 12.160,3.991 12.145,4.009 10.440 L 4.027 8.720 4.173 8.495 C 4.397 8.151,4.564 8.085,5.307 8.049 C 5.659 8.031,10.747 8.019,16.613 8.022 L 27.280 8.027 27.484 8.154 M12.030 11.147 C 11.519 11.238,10.798 11.891,10.662 12.386 C 10.627 12.511,10.597 12.818,10.595 13.069 C 10.591 13.469,10.609 13.564,10.745 13.842 C 10.943 14.246,11.301 14.604,11.707 14.803 C 11.997 14.945,12.076 14.959,12.560 14.958 C 12.985 14.956,13.142 14.933,13.333 14.844 C 13.920 14.573,14.312 14.123,14.483 13.524 C 14.723 12.682,14.310 11.746,13.510 11.320 C 13.255 11.184,13.119 11.149,12.746 11.127 C 12.497 11.112,12.175 11.121,12.030 11.147 M19.681 11.153 C 19.608 11.182,19.380 11.366,19.174 11.563 C 17.717 12.950,14.048 16.508,12.713 17.829 C 11.287 19.239,11.098 19.445,11.039 19.658 C 10.962 19.933,11.024 20.232,11.214 20.500 C 11.431 20.805,12.008 20.943,12.388 20.780 C 12.704 20.645,20.661 12.839,20.903 12.427 C 21.038 12.197,21.041 11.985,20.913 11.707 C 20.691 11.227,20.129 10.974,19.681 11.153 M19.465 17.009 C 18.931 17.114,18.337 17.593,18.091 18.119 C 17.967 18.382,17.947 18.496,17.947 18.907 C 17.948 19.328,17.967 19.426,18.104 19.707 C 18.311 20.132,18.736 20.543,19.131 20.700 C 19.376 20.798,19.545 20.824,19.948 20.825 C 20.416 20.827,20.484 20.813,20.812 20.651 C 21.226 20.447,21.550 20.113,21.752 19.680 C 21.935 19.287,21.948 18.557,21.777 18.187 C 21.359 17.278,20.451 16.816,19.465 17.009 " fill="#1A1C1F" stroke="none" fill-rule="evenodd"></path></svg>