<svg xmlns="http://www.w3.org/2000/svg" width="12" height="12" fill="none"><g clip-path="url(#a)"><path fill="#1A1C1F" fill-rule="evenodd" d="M9.554 2.4c.688 0 1.246.558 1.246 1.246V4.8a.6.6 0 0 1-.6.6.6.6 0 1 0 0 1.2.6.6 0 0 1 .6.6v1.154c0 .688-.558 1.246-1.246 1.246H2.446A1.246 1.246 0 0 1 1.2 8.354V7.2a.6.6 0 0 1 .6-.6.6.6 0 0 0 0-1.2.6.6 0 0 1-.6-.6V3.646c0-.688.558-1.246 1.246-1.246zm0 1.2H2.446a.046.046 0 0 0-.046.046v.656c.67.24 1.154.857 1.197 1.592L3.6 6a1.8 1.8 0 0 1-1.193 1.695l-.007.659c0 .019.012.035.028.042l.018.004h7.108c.025 0 .046-.02.046-.046v-.657a1.8 1.8 0 0 1-1.197-1.591L8.4 6a1.8 1.8 0 0 1 1.193-1.695l.007-.659a.05.05 0 0 0-.028-.042zm-2.36 2.997a.603.603 0 1 1 .012 1.206.603.603 0 0 1-.012-1.206M6.9 4.246l.853.853L5.1 7.742l-.841-.84zm-2.095-.05a.6.6 0 0 1 .597.61.598.598 0 0 1-1.154.225.603.603 0 0 1 .557-.835" clip-rule="evenodd"/></g><defs><clipPath id="a"><path fill="#fff" d="M0 0h12v12H0z"/></clipPath></defs></svg>