<svg width="16" height="16" viewBox="0 0 16 16" fill="none" xmlns="http://www.w3.org/2000/svg"><path d="M3.453 3.226 C 2.864 3.241,2.833 3.245,2.669 3.314 C 2.419 3.420,2.264 3.528,2.072 3.731 C 1.877 3.939,1.767 4.121,1.677 4.387 C 1.614 4.570,1.613 4.591,1.613 5.587 C 1.613 6.699,1.608 6.657,1.783 6.898 C 1.890 7.045,2.127 7.159,2.434 7.210 C 2.812 7.273,3.072 7.462,3.145 7.727 C 3.181 7.855,3.181 8.145,3.145 8.273 C 3.071 8.539,2.777 8.748,2.400 8.801 C 2.130 8.840,1.888 8.958,1.783 9.102 C 1.608 9.343,1.613 9.301,1.613 10.413 L 1.613 11.427 1.688 11.645 C 1.865 12.159,2.246 12.540,2.758 12.714 L 2.973 12.787 8.000 12.787 L 13.027 12.787 13.242 12.714 C 13.754 12.540,14.140 12.154,14.314 11.642 L 14.387 11.427 14.387 10.413 L 14.387 9.400 14.322 9.269 C 14.190 9.004,13.964 8.856,13.611 8.803 C 13.217 8.743,13.038 8.631,12.904 8.358 C 12.761 8.069,12.797 7.744,13.001 7.476 C 13.092 7.358,13.356 7.236,13.600 7.201 C 13.868 7.162,14.112 7.043,14.217 6.898 C 14.392 6.657,14.387 6.700,14.387 5.573 L 14.387 4.547 14.303 4.330 C 14.148 3.928,13.910 3.638,13.569 3.435 C 13.295 3.273,13.199 3.253,12.560 3.226 C 11.939 3.200,4.458 3.200,3.453 3.226 M6.548 5.629 C 6.803 5.675,7.004 5.828,7.129 6.072 C 7.190 6.190,7.191 6.609,7.130 6.728 C 7.047 6.891,6.906 7.036,6.763 7.106 C 6.375 7.296,5.934 7.167,5.713 6.800 C 5.632 6.664,5.627 6.641,5.627 6.401 C 5.627 6.169,5.634 6.135,5.706 6.010 C 5.835 5.785,6.099 5.610,6.322 5.602 C 6.359 5.601,6.461 5.613,6.548 5.629 M9.773 6.240 L 10.333 6.800 8.567 8.567 L 6.800 10.333 6.233 9.767 L 5.667 9.200 7.427 7.440 C 8.395 6.472,9.193 5.680,9.200 5.680 C 9.208 5.680,9.466 5.932,9.773 6.240 M9.938 8.885 C 10.086 8.953,10.244 9.109,10.315 9.257 C 10.398 9.427,10.398 9.773,10.315 9.943 C 10.244 10.091,10.092 10.246,9.941 10.324 C 9.788 10.403,9.422 10.409,9.280 10.334 C 9.110 10.245,9.033 10.175,8.929 10.016 C 8.829 9.862,8.827 9.853,8.827 9.608 C 8.827 9.339,8.859 9.239,9.002 9.070 C 9.207 8.826,9.632 8.742,9.938 8.885 " fill="#1A1C1F" stroke="none" fill-rule="evenodd"></path></svg>