<svg width="20" height="20" viewBox="0 0 20 20" fill="none" xmlns="http://www.w3.org/2000/svg"><path d="M4.333 4.033 C 3.579 4.052,3.542 4.056,3.333 4.143 C 2.751 4.387,2.314 4.852,2.110 5.444 L 2.017 5.717 2.017 6.983 C 2.017 8.374,2.010 8.321,2.229 8.622 C 2.362 8.806,2.659 8.948,3.043 9.012 C 3.515 9.091,3.840 9.327,3.932 9.659 C 3.976 9.819,3.976 10.181,3.932 10.341 C 3.839 10.674,3.472 10.935,3.000 11.002 C 2.663 11.049,2.360 11.197,2.229 11.378 C 2.010 11.679,2.017 11.626,2.017 13.017 L 2.017 14.283 2.110 14.556 C 2.331 15.199,2.801 15.669,3.444 15.890 L 3.717 15.983 10.000 15.983 L 16.283 15.983 16.556 15.890 C 17.199 15.669,17.669 15.199,17.890 14.556 L 17.983 14.283 17.983 13.017 C 17.983 11.626,17.990 11.679,17.771 11.378 C 17.643 11.202,17.337 11.050,17.014 11.003 C 16.522 10.930,16.298 10.790,16.130 10.447 C 15.950 10.083,15.994 9.682,16.251 9.346 C 16.364 9.197,16.695 9.045,17.000 9.001 C 17.335 8.953,17.639 8.804,17.771 8.622 C 17.990 8.321,17.983 8.375,17.983 6.967 L 17.983 5.683 17.879 5.413 C 17.683 4.905,17.385 4.544,16.953 4.292 C 16.606 4.089,16.495 4.066,15.717 4.032 C 14.960 4.000,5.619 4.000,4.333 4.033 M8.431 7.109 C 8.610 7.193,8.807 7.385,8.899 7.564 C 8.988 7.738,8.996 8.246,8.913 8.410 C 8.814 8.604,8.643 8.784,8.462 8.884 C 8.303 8.972,8.252 8.983,8.000 8.983 C 7.757 8.983,7.690 8.970,7.525 8.889 C 7.333 8.795,7.160 8.619,7.054 8.410 C 6.976 8.256,6.981 7.762,7.062 7.583 C 7.244 7.184,7.622 6.980,8.100 7.023 C 8.201 7.032,8.350 7.071,8.431 7.109 M12.217 7.800 L 12.916 8.500 10.708 10.708 L 8.500 12.917 7.792 12.208 L 7.084 11.500 9.283 9.300 C 10.493 8.090,11.491 7.100,11.500 7.100 C 11.510 7.100,11.832 7.415,12.217 7.800 M12.182 11.033 C 12.448 11.077,12.695 11.247,12.850 11.495 C 12.962 11.673,12.967 11.695,12.967 11.992 C 12.967 12.334,12.939 12.417,12.745 12.656 C 12.573 12.869,12.312 12.984,12.000 12.983 C 11.697 12.982,11.504 12.904,11.300 12.700 C 11.098 12.498,11.028 12.318,11.028 12.000 C 11.028 11.491,11.327 11.113,11.791 11.035 C 11.878 11.020,11.958 11.006,11.967 11.004 C 11.976 11.002,12.073 11.015,12.182 11.033 " fill="#1A1C1F" stroke="none" fill-rule="evenodd"></path></svg>