<svg width="24" height="24" viewBox="0 0 24 24" fill="none" xmlns="http://www.w3.org/2000/svg"><path d="M5.020 5.037 C 3.679 5.064,3.663 5.067,3.151 5.373 C 2.772 5.599,2.444 5.958,2.241 6.369 C 2.091 6.673,2.074 6.739,2.036 7.186 C 2.013 7.453,2.001 8.254,2.007 8.966 C 2.019 10.204,2.024 10.267,2.106 10.420 C 2.280 10.741,2.659 10.997,2.963 10.999 C 3.187 11.000,3.501 11.110,3.685 11.251 C 3.928 11.437,4.040 11.671,4.040 11.994 C 4.040 12.562,3.681 12.916,3.020 13.000 C 2.562 13.058,2.294 13.228,2.106 13.579 C 2.024 13.733,2.019 13.798,2.008 15.088 C 2.001 15.829,2.013 16.624,2.034 16.854 C 2.068 17.223,2.093 17.314,2.240 17.616 C 2.537 18.224,2.998 18.636,3.647 18.873 L 3.940 18.980 12.000 18.980 L 20.060 18.980 20.353 18.873 C 21.002 18.636,21.463 18.224,21.760 17.614 C 21.913 17.302,21.932 17.229,21.967 16.818 C 21.988 16.569,21.999 15.775,21.992 15.053 C 21.979 13.603,21.982 13.620,21.706 13.326 C 21.526 13.135,21.322 13.043,20.980 13.000 C 20.319 12.916,19.960 12.562,19.960 11.994 C 19.960 11.671,20.072 11.437,20.315 11.251 C 20.499 11.110,20.813 11.000,21.037 10.999 C 21.341 10.997,21.720 10.741,21.894 10.420 C 21.976 10.266,21.981 10.205,21.992 8.912 C 21.999 8.171,21.987 7.374,21.965 7.140 C 21.930 6.762,21.907 6.677,21.755 6.368 C 21.535 5.923,21.109 5.478,20.718 5.286 C 20.164 5.013,20.733 5.033,13.120 5.022 C 9.325 5.016,5.680 5.023,5.020 5.037 M19.825 7.069 C 19.872 7.096,19.925 7.150,19.943 7.189 C 19.961 7.228,19.982 7.683,19.990 8.200 L 20.004 9.140 19.651 9.327 C 18.941 9.701,18.555 10.077,18.246 10.693 C 18.010 11.166,17.947 11.447,17.948 12.040 C 17.948 12.481,17.962 12.579,18.061 12.873 C 18.354 13.746,19.082 14.516,19.874 14.792 L 20.008 14.839 19.994 15.791 C 19.976 16.986,19.998 16.937,19.477 16.974 C 18.995 17.008,5.005 17.008,4.523 16.974 C 3.999 16.937,4.020 16.987,4.020 15.787 L 4.020 14.831 4.215 14.754 C 4.716 14.557,5.302 14.053,5.617 13.547 C 5.863 13.152,5.992 12.787,6.041 12.347 C 6.189 11.021,5.540 9.907,4.250 9.272 L 4.000 9.149 4.002 8.325 C 4.004 7.492,4.032 7.192,4.117 7.107 C 4.193 7.031,5.881 7.014,13.060 7.017 C 18.223 7.020,19.759 7.032,19.825 7.069 M8.695 8.966 C 8.626 8.990,8.483 9.074,8.378 9.154 C 7.875 9.535,7.840 10.242,8.302 10.704 C 8.819 11.221,9.737 11.008,9.982 10.316 C 10.105 9.965,10.024 9.532,9.788 9.287 C 9.517 9.004,9.015 8.857,8.695 8.966 M13.708 9.046 C 13.607 9.075,13.420 9.213,13.148 9.459 C 12.536 10.015,9.402 13.185,9.201 13.453 C 9.056 13.645,9.023 13.723,9.008 13.904 C 8.980 14.240,9.062 14.467,9.298 14.702 C 9.533 14.938,9.760 15.020,10.096 14.992 C 10.275 14.977,10.356 14.943,10.547 14.801 C 10.858 14.571,14.814 10.607,14.901 10.439 C 14.990 10.266,15.022 9.889,14.963 9.709 C 14.793 9.195,14.233 8.899,13.708 9.046 M14.560 13.147 C 13.673 13.604,13.937 14.909,14.933 14.991 C 15.362 15.027,15.704 14.824,15.903 14.417 C 15.994 14.231,16.008 14.162,15.990 13.966 C 15.941 13.431,15.607 13.099,15.077 13.057 C 14.805 13.035,14.762 13.043,14.560 13.147 " fill="#1A1C1F" stroke="none" fill-rule="evenodd"></path></svg>