<svg width="16" height="16" viewBox="0 0 16 16" fill="none" xmlns="http://www.w3.org/2000/svg"><path d="M3.453 3.226 C 2.864 3.241,2.833 3.245,2.669 3.314 C 2.419 3.420,2.264 3.528,2.072 3.731 C 1.877 3.939,1.767 4.121,1.677 4.387 C 1.614 4.570,1.613 4.591,1.613 5.587 C 1.613 6.699,1.608 6.657,1.783 6.898 C 1.890 7.045,2.127 7.159,2.434 7.210 C 2.812 7.273,3.072 7.462,3.145 7.727 C 3.181 7.855,3.181 8.145,3.145 8.273 C 3.071 8.539,2.777 8.748,2.400 8.801 C 2.130 8.840,1.888 8.958,1.783 9.102 C 1.608 9.343,1.613 9.301,1.613 10.413 L 1.613 11.427 1.688 11.645 C 1.865 12.159,2.246 12.540,2.758 12.714 L 2.973 12.787 8.000 12.787 L 13.027 12.787 13.242 12.714 C 13.754 12.540,14.140 12.154,14.314 11.642 L 14.387 11.427 14.387 10.413 L 14.387 9.400 14.322 9.269 C 14.190 9.004,13.964 8.856,13.611 8.803 C 13.217 8.743,13.038 8.631,12.904 8.358 C 12.761 8.069,12.797 7.744,13.001 7.476 C 13.092 7.358,13.356 7.236,13.600 7.201 C 13.868 7.162,14.112 7.043,14.217 6.898 C 14.392 6.657,14.387 6.700,14.387 5.573 L 14.387 4.547 14.303 4.330 C 14.148 3.928,13.910 3.638,13.569 3.435 C 13.295 3.273,13.199 3.253,12.560 3.226 C 11.939 3.200,4.458 3.200,3.453 3.226 M12.767 4.838 C 12.776 4.847,12.788 5.052,12.795 5.294 L 12.807 5.733 12.654 5.801 C 12.103 6.044,11.614 6.539,11.389 7.079 C 11.253 7.404,11.218 7.597,11.220 8.013 C 11.221 8.302,11.233 8.433,11.276 8.592 C 11.462 9.289,11.936 9.852,12.623 10.191 L 12.800 10.278 12.800 10.575 C 12.800 10.739,12.792 10.946,12.783 11.036 L 12.766 11.200 8.000 11.200 L 3.234 11.200 3.217 11.060 C 3.208 10.983,3.200 10.776,3.200 10.599 L 3.200 10.278 3.380 10.190 C 3.769 9.998,4.129 9.699,4.362 9.373 C 4.505 9.173,4.655 8.842,4.724 8.573 C 4.815 8.219,4.810 7.705,4.712 7.383 C 4.570 6.916,4.395 6.616,4.084 6.308 C 3.871 6.097,3.672 5.958,3.393 5.825 L 3.199 5.732 3.206 5.286 L 3.213 4.840 3.520 4.823 C 3.905 4.802,12.745 4.816,12.767 4.838 M6.187 5.635 C 5.794 5.745,5.548 6.142,5.622 6.543 C 5.760 7.285,6.742 7.434,7.107 6.769 C 7.175 6.646,7.185 6.598,7.186 6.413 C 7.186 6.172,7.134 6.025,6.989 5.860 C 6.816 5.663,6.451 5.560,6.187 5.635 M7.427 7.440 L 5.667 9.200 6.233 9.767 L 6.800 10.333 8.567 8.567 L 10.333 6.800 9.773 6.240 C 9.466 5.932,9.208 5.680,9.200 5.680 C 9.193 5.680,8.395 6.472,7.427 7.440 M9.413 8.824 C 9.211 8.867,9.003 9.029,8.894 9.230 C 8.825 9.357,8.816 9.400,8.816 9.600 C 8.816 9.800,8.825 9.843,8.894 9.970 C 8.974 10.116,9.114 10.249,9.280 10.335 C 9.349 10.371,9.433 10.383,9.600 10.383 C 9.862 10.383,9.986 10.334,10.160 10.160 C 10.333 9.987,10.383 9.862,10.384 9.600 C 10.384 9.399,10.376 9.357,10.306 9.230 C 10.168 8.977,9.957 8.846,9.640 8.816 C 9.567 8.809,9.465 8.813,9.413 8.824 " fill="#1A1C1F" stroke="none" fill-rule="evenodd"></path></svg>