<svg width="14" height="14" viewBox="0 0 14 14" fill="none" xmlns="http://www.w3.org/2000/svg"><path d="M2.998 2.823 C 2.537 2.836,2.472 2.843,2.357 2.890 C 2.148 2.976,2.028 3.055,1.859 3.218 C 1.678 3.392,1.547 3.598,1.467 3.838 C 1.413 3.999,1.412 4.019,1.412 4.888 C 1.412 5.862,1.407 5.825,1.560 6.035 C 1.654 6.164,1.861 6.264,2.130 6.309 C 2.461 6.364,2.688 6.529,2.752 6.761 C 2.783 6.873,2.783 7.127,2.752 7.239 C 2.687 7.472,2.430 7.654,2.100 7.701 C 1.864 7.735,1.652 7.838,1.560 7.965 C 1.407 8.175,1.412 8.138,1.412 9.112 L 1.412 9.998 1.477 10.189 C 1.632 10.639,1.961 10.968,2.411 11.123 L 2.602 11.188 7.000 11.188 L 11.398 11.188 11.589 11.123 C 12.039 10.968,12.368 10.639,12.523 10.189 L 12.588 9.998 12.588 9.112 L 12.588 8.225 12.532 8.111 C 12.417 7.879,12.219 7.749,11.910 7.702 C 11.564 7.650,11.409 7.552,11.291 7.313 C 11.165 7.058,11.196 6.778,11.376 6.542 C 11.455 6.438,11.687 6.332,11.900 6.301 C 12.135 6.267,12.348 6.163,12.440 6.035 C 12.593 5.825,12.588 5.863,12.588 4.877 L 12.588 3.978 12.515 3.789 C 12.380 3.437,12.172 3.184,11.873 3.006 C 11.634 2.864,11.548 2.846,11.002 2.823 C 10.467 2.800,3.830 2.800,2.998 2.823 M5.730 4.925 C 5.923 4.960,6.077 5.064,6.187 5.235 C 6.275 5.371,6.277 5.378,6.277 5.593 C 6.277 5.749,6.266 5.834,6.239 5.887 C 6.166 6.030,6.043 6.157,5.917 6.218 C 5.578 6.384,5.192 6.271,4.999 5.950 C 4.928 5.832,4.923 5.810,4.923 5.606 C 4.923 5.436,4.933 5.369,4.969 5.299 C 5.060 5.119,5.196 5.001,5.387 4.932 C 5.492 4.895,5.555 4.893,5.730 4.925 M8.552 5.460 L 9.041 5.950 7.496 7.496 L 5.950 9.042 5.454 8.546 L 4.958 8.050 6.498 6.510 C 7.345 5.663,8.044 4.970,8.050 4.970 C 8.057 4.970,8.282 5.191,8.552 5.460 M8.541 7.723 C 8.720 7.757,8.880 7.869,8.987 8.035 C 9.075 8.172,9.077 8.178,9.077 8.399 C 9.077 8.611,9.072 8.631,9.001 8.750 C 8.824 9.045,8.475 9.171,8.160 9.053 C 7.990 8.990,7.856 8.869,7.778 8.709 C 7.723 8.598,7.712 8.546,7.713 8.400 C 7.714 8.188,7.769 8.051,7.906 7.914 C 8.091 7.729,8.277 7.673,8.541 7.723 " fill="#1A1C1F" stroke="none" fill-rule="evenodd"></path></svg>