<svg width="14" height="14" viewBox="0 0 14 14" fill="none" xmlns="http://www.w3.org/2000/svg"><path d="M2.998 2.823 C 2.537 2.836,2.472 2.843,2.357 2.890 C 2.148 2.976,2.028 3.055,1.859 3.218 C 1.678 3.392,1.547 3.598,1.467 3.838 C 1.413 3.999,1.412 4.019,1.412 4.888 C 1.412 5.862,1.407 5.825,1.560 6.035 C 1.654 6.164,1.861 6.264,2.130 6.309 C 2.461 6.364,2.688 6.529,2.752 6.761 C 2.783 6.873,2.783 7.127,2.752 7.239 C 2.687 7.472,2.430 7.654,2.100 7.701 C 1.864 7.735,1.652 7.838,1.560 7.965 C 1.407 8.175,1.412 8.138,1.412 9.112 L 1.412 9.998 1.477 10.189 C 1.632 10.639,1.961 10.968,2.411 11.123 L 2.602 11.188 7.000 11.188 L 11.398 11.188 11.589 11.123 C 12.039 10.968,12.368 10.639,12.523 10.189 L 12.588 9.998 12.588 9.112 L 12.588 8.225 12.532 8.111 C 12.417 7.879,12.219 7.749,11.910 7.702 C 11.564 7.650,11.409 7.552,11.291 7.313 C 11.165 7.058,11.196 6.778,11.376 6.542 C 11.455 6.438,11.687 6.332,11.900 6.301 C 12.135 6.267,12.348 6.163,12.440 6.035 C 12.593 5.825,12.588 5.863,12.588 4.877 L 12.588 3.978 12.515 3.789 C 12.380 3.437,12.172 3.184,11.873 3.006 C 11.634 2.864,11.548 2.846,11.002 2.823 C 10.467 2.800,3.830 2.800,2.998 2.823 M11.172 4.234 C 11.179 4.241,11.190 4.420,11.195 4.630 L 11.206 5.013 11.010 5.111 C 10.527 5.354,10.235 5.643,10.012 6.099 C 9.852 6.428,9.818 6.606,9.828 7.065 C 9.835 7.431,9.840 7.468,9.908 7.659 C 10.105 8.212,10.529 8.679,11.047 8.914 L 11.200 8.984 11.200 9.248 C 11.200 9.394,11.193 9.578,11.185 9.657 L 11.170 9.800 7.000 9.800 L 2.830 9.800 2.815 9.657 C 2.807 9.578,2.800 9.396,2.800 9.253 L 2.800 8.993 2.958 8.916 C 3.350 8.722,3.724 8.382,3.917 8.042 C 4.260 7.439,4.282 6.671,3.975 6.059 C 3.774 5.658,3.357 5.265,2.932 5.078 L 2.799 5.019 2.805 4.627 L 2.812 4.235 3.068 4.220 C 3.383 4.202,11.153 4.215,11.172 4.234 M5.402 4.920 C 5.215 4.970,5.022 5.134,4.939 5.317 C 4.867 5.474,4.870 5.734,4.947 5.891 C 5.019 6.038,5.155 6.175,5.293 6.237 C 5.441 6.304,5.758 6.308,5.887 6.244 C 6.006 6.185,6.168 6.025,6.234 5.900 C 6.277 5.819,6.288 5.761,6.288 5.612 C 6.288 5.453,6.278 5.405,6.222 5.290 C 6.147 5.137,5.979 4.987,5.838 4.947 C 5.718 4.912,5.485 4.898,5.402 4.920 M6.498 6.510 L 4.958 8.050 5.454 8.546 L 5.950 9.042 7.496 7.496 L 9.041 5.950 8.552 5.460 C 8.282 5.191,8.057 4.970,8.050 4.970 C 8.044 4.970,7.345 5.663,6.498 6.510 M8.258 7.721 C 8.145 7.744,7.976 7.846,7.900 7.936 C 7.774 8.085,7.738 8.187,7.737 8.401 C 7.735 8.589,7.740 8.608,7.817 8.736 C 7.900 8.875,7.999 8.968,8.143 9.043 C 8.203 9.074,8.277 9.086,8.423 9.086 C 8.599 9.086,8.636 9.079,8.747 9.018 C 8.974 8.894,9.104 8.695,9.118 8.447 C 9.129 8.267,9.071 8.087,8.960 7.952 C 8.822 7.785,8.485 7.674,8.258 7.721 " fill="#1A1C1F" stroke="none" fill-rule="evenodd"></path></svg>