<svg width="32" height="32" viewBox="0 0 32 32" fill="none" xmlns="http://www.w3.org/2000/svg"><path d="M26.658 4.072 C 26.390 4.171,25.792 4.735,23.877 6.692 L 22.240 8.364 21.511 8.072 C 18.046 6.681,14.023 6.646,10.711 7.977 C 7.657 9.204,5.129 11.324,2.701 14.693 C 1.828 15.905,1.820 16.034,2.565 17.120 C 3.900 19.066,5.653 20.862,7.639 22.316 L 7.998 22.579 6.171 24.423 C 5.166 25.437,4.272 26.361,4.185 26.476 C 4.049 26.656,4.027 26.731,4.027 27.018 C 4.027 27.302,4.050 27.385,4.188 27.582 C 4.277 27.709,4.433 27.857,4.535 27.910 C 4.805 28.050,5.210 28.009,5.504 27.811 C 5.752 27.644,26.280 7.140,27.334 6.006 L 27.973 5.319 27.971 4.993 C 27.968 4.597,27.859 4.369,27.585 4.189 C 27.336 4.026,26.923 3.974,26.658 4.072 M18.244 9.196 C 18.955 9.317,20.129 9.622,20.453 9.770 C 20.529 9.804,20.584 9.862,20.575 9.899 C 20.567 9.935,20.158 10.385,19.666 10.899 L 18.771 11.832 18.332 11.600 C 18.091 11.472,17.701 11.300,17.467 11.218 C 17.058 11.075,16.998 11.068,16.027 11.068 C 15.113 11.067,14.974 11.079,14.613 11.191 C 13.768 11.455,12.876 12.009,12.339 12.606 C 11.795 13.211,11.339 14.052,11.143 14.812 C 11.009 15.330,10.993 16.427,11.111 16.988 C 11.210 17.464,11.472 18.143,11.684 18.478 L 11.849 18.738 10.647 19.940 L 9.444 21.142 9.002 20.841 C 7.512 19.826,5.952 18.311,4.766 16.729 L 4.214 15.990 4.387 15.749 C 5.054 14.818,6.492 13.175,7.192 12.545 C 9.136 10.795,11.212 9.687,13.367 9.251 C 14.323 9.057,14.887 9.017,16.271 9.042 C 17.228 9.060,17.632 9.092,18.244 9.196 M24.934 11.306 L 24.248 11.993 25.231 13.001 C 25.771 13.555,26.384 14.210,26.593 14.457 C 27.062 15.012,27.733 15.890,27.733 15.949 C 27.733 16.031,27.273 16.678,26.760 17.317 C 26.172 18.049,24.575 19.670,23.928 20.191 C 22.356 21.457,20.482 22.346,18.541 22.744 C 17.328 22.994,15.342 23.039,14.001 22.848 L 13.469 22.772 12.681 23.559 C 12.248 23.991,11.893 24.362,11.893 24.381 C 11.893 24.429,12.880 24.663,13.680 24.804 C 14.488 24.947,16.506 25.005,17.467 24.912 C 20.276 24.640,23.025 23.493,25.280 21.651 C 25.989 21.072,27.238 19.841,27.910 19.059 C 28.455 18.424,29.495 17.047,29.755 16.616 C 30.005 16.200,30.032 15.882,29.849 15.507 C 29.706 15.214,28.528 13.617,28.010 13.013 C 27.630 12.570,26.182 11.095,25.863 10.825 L 25.619 10.619 24.934 11.306 M16.981 13.175 L 17.295 13.293 15.307 15.273 L 13.320 17.253 13.218 17.027 C 13.065 16.686,12.988 15.976,13.056 15.520 C 13.231 14.343,14.282 13.246,15.408 13.067 C 15.890 12.990,16.622 13.041,16.981 13.175 M18.133 18.115 L 15.333 20.933 15.893 20.949 C 16.554 20.968,16.974 20.905,17.623 20.688 C 18.354 20.444,18.876 20.110,19.493 19.493 C 20.129 18.858,20.468 18.321,20.731 17.536 C 20.944 16.902,21.055 16.029,20.981 15.582 L 20.933 15.296 18.133 18.115 " fill="#1A1C1F" stroke="none" fill-rule="evenodd"></path></svg>