<svg width="28" height="28" viewBox="0 0 28 28" fill="none" xmlns="http://www.w3.org/2000/svg"><path d="M23.326 3.563 C 23.092 3.650,22.568 4.143,20.892 5.856 L 19.460 7.319 18.822 7.063 C 16.390 6.086,13.678 5.869,11.093 6.443 C 9.324 6.835,7.423 7.786,5.810 9.084 C 4.594 10.063,3.046 11.805,2.026 13.342 C 1.809 13.669,1.797 13.705,1.797 13.998 C 1.797 14.306,1.798 14.309,2.155 14.842 C 3.342 16.612,4.888 18.211,6.684 19.527 L 6.998 19.757 5.399 21.370 C 4.520 22.257,3.738 23.066,3.662 23.166 C 3.543 23.324,3.523 23.390,3.523 23.641 C 3.523 23.889,3.544 23.962,3.665 24.134 C 3.854 24.406,4.063 24.510,4.373 24.487 C 4.544 24.475,4.674 24.429,4.814 24.333 C 5.057 24.167,17.662 11.605,21.611 7.595 C 24.311 4.852,24.449 4.704,24.478 4.512 C 24.533 4.145,24.365 3.764,24.083 3.618 C 23.887 3.517,23.522 3.490,23.326 3.563 M15.084 7.956 C 15.873 7.985,16.665 8.143,17.698 8.477 C 17.965 8.564,18.051 8.611,18.025 8.656 C 18.006 8.690,17.638 9.085,17.207 9.535 L 16.424 10.353 16.040 10.150 C 15.829 10.038,15.489 9.887,15.283 9.815 C 14.926 9.690,14.873 9.685,14.023 9.684 C 13.224 9.683,13.102 9.694,12.787 9.792 C 11.536 10.182,10.586 11.013,10.026 12.208 C 9.741 12.815,9.656 13.215,9.655 13.955 C 9.653 14.816,9.805 15.426,10.196 16.125 L 10.355 16.409 9.309 17.454 L 8.263 18.499 7.877 18.236 C 6.573 17.347,5.208 16.022,4.171 14.637 L 3.687 13.991 3.791 13.844 C 4.053 13.472,5.025 12.296,5.433 11.856 C 7.669 9.444,10.257 8.090,12.927 7.936 C 13.493 7.904,13.741 7.906,15.084 7.956 M21.816 9.894 L 21.215 10.497 22.006 11.303 C 22.917 12.231,23.270 12.625,23.776 13.275 C 24.324 13.979,24.297 13.917,24.158 14.151 C 23.979 14.450,23.323 15.276,22.778 15.887 C 20.432 18.517,17.820 19.894,14.840 20.070 C 13.986 20.121,12.961 20.091,12.250 19.994 L 11.783 19.931 11.095 20.617 C 10.716 20.994,10.407 21.316,10.407 21.332 C 10.407 21.414,11.947 21.725,12.711 21.796 C 13.572 21.877,15.307 21.830,16.030 21.705 C 17.945 21.375,19.788 20.635,21.252 19.609 C 22.218 18.931,23.531 17.718,24.422 16.677 C 24.901 16.118,25.810 14.913,26.035 14.539 C 26.255 14.175,26.278 13.896,26.118 13.569 C 25.997 13.324,25.214 12.252,24.640 11.549 C 24.303 11.135,22.962 9.749,22.630 9.471 L 22.417 9.292 21.816 9.894 M14.858 11.528 L 15.133 11.632 13.394 13.364 L 11.655 15.097 11.566 14.899 C 11.432 14.600,11.365 13.979,11.424 13.580 C 11.575 12.563,12.476 11.611,13.455 11.435 C 13.852 11.364,14.544 11.409,14.858 11.528 M15.902 15.813 C 14.573 17.148,13.487 18.265,13.487 18.296 C 13.487 18.338,13.648 18.346,14.128 18.328 C 14.640 18.309,14.855 18.279,15.190 18.179 C 16.717 17.724,17.835 16.563,18.242 15.009 C 18.350 14.596,18.407 13.874,18.354 13.588 L 18.317 13.385 15.902 15.813 " fill="#1A1C1F" stroke="none" fill-rule="evenodd"></path></svg>