<svg width="32" height="32" viewBox="0 0 32 32" fill="none" xmlns="http://www.w3.org/2000/svg"><path d="M15.120 7.047 C 13.422 7.125,11.766 7.497,10.240 8.145 C 7.671 9.235,5.262 11.283,3.008 14.293 C 2.112 15.489,2.053 15.595,2.053 16.001 C 2.053 16.336,2.064 16.365,2.370 16.824 C 3.410 18.387,5.233 20.448,6.559 21.559 C 8.888 23.511,11.450 24.619,14.306 24.908 C 15.273 25.007,17.782 24.947,18.533 24.808 C 21.303 24.295,23.426 23.279,25.574 21.438 C 26.722 20.454,28.304 18.686,29.375 17.190 C 29.918 16.432,29.991 16.272,29.962 15.920 C 29.935 15.586,29.650 15.132,28.729 13.950 C 27.900 12.887,27.330 12.247,26.420 11.359 C 25.262 10.230,24.319 9.504,23.121 8.821 C 20.822 7.508,18.123 6.910,15.120 7.047 M18.640 9.245 C 20.657 9.677,22.354 10.476,23.893 11.718 C 24.376 12.108,25.656 13.371,26.219 14.014 C 26.670 14.530,27.733 15.922,27.733 15.998 C 27.733 16.070,26.986 17.065,26.409 17.760 C 25.790 18.506,24.458 19.845,23.841 20.341 C 22.207 21.655,20.200 22.542,18.160 22.853 C 17.387 22.971,15.418 23.018,14.665 22.937 C 10.873 22.527,7.756 20.552,4.703 16.623 L 4.213 15.994 4.530 15.578 C 5.213 14.680,5.868 13.915,6.558 13.207 C 8.778 10.930,10.993 9.689,13.716 9.197 C 14.393 9.075,14.510 9.070,16.213 9.089 C 17.888 9.107,18.040 9.117,18.640 9.245 M15.473 11.049 C 14.117 11.165,12.659 12.043,11.857 13.227 C 10.531 15.184,10.794 17.829,12.483 19.517 C 14.439 21.474,17.561 21.474,19.517 19.517 C 21.670 17.365,21.419 13.821,18.987 12.030 C 17.960 11.274,16.761 10.940,15.473 11.049 M16.868 13.155 C 17.659 13.387,18.294 13.929,18.674 14.696 L 18.907 15.165 18.907 15.996 L 18.907 16.827 18.715 17.227 C 18.345 17.998,17.731 18.560,16.960 18.833 C 16.675 18.934,16.504 18.956,16.000 18.956 C 15.496 18.956,15.325 18.934,15.040 18.833 C 14.269 18.560,13.655 17.998,13.285 17.227 L 13.093 16.827 13.093 16.000 L 13.093 15.173 13.285 14.773 C 13.542 14.239,13.895 13.820,14.332 13.531 C 14.667 13.310,15.149 13.104,15.467 13.046 C 15.704 13.003,16.582 13.071,16.868 13.155 " fill="#1A1C1F" stroke="none" fill-rule="evenodd"></path></svg>