<svg width="16" height="16" viewBox="0 0 16 16" fill="none" xmlns="http://www.w3.org/2000/svg"><path d="M7.400 3.255 C 6.128 3.363,4.713 4.087,3.600 5.200 C 2.921 5.880,1.765 7.394,1.636 7.774 C 1.584 7.925,1.599 8.132,1.674 8.298 C 1.775 8.521,2.511 9.548,2.904 10.011 C 3.686 10.936,4.307 11.488,5.094 11.958 C 6.049 12.529,6.923 12.774,7.995 12.773 C 9.182 12.771,10.186 12.456,11.225 11.758 C 11.668 11.460,11.938 11.236,12.347 10.826 C 12.954 10.217,13.486 9.563,14.077 8.695 C 14.512 8.056,14.509 7.921,14.040 7.227 C 12.695 5.235,11.291 4.017,9.753 3.507 C 9.012 3.262,8.262 3.181,7.400 3.255 M8.321 4.853 C 8.676 4.874,8.813 4.894,9.028 4.956 C 9.842 5.193,10.533 5.628,11.268 6.366 C 11.670 6.770,12.134 7.322,12.494 7.826 L 12.617 7.999 12.557 8.086 C 11.837 9.122,11.003 10.003,10.289 10.483 C 9.563 10.971,8.817 11.202,7.964 11.202 C 7.062 11.202,6.219 10.889,5.387 10.244 C 5.110 10.030,4.574 9.511,4.294 9.187 C 4.085 8.944,3.387 8.031,3.387 8.000 C 3.387 7.991,3.530 7.794,3.704 7.562 C 4.612 6.357,5.401 5.643,6.298 5.215 C 6.769 4.989,7.128 4.886,7.547 4.854 C 7.686 4.844,7.818 4.833,7.840 4.831 C 7.862 4.829,8.078 4.839,8.321 4.853 M7.661 6.452 C 7.482 6.480,7.228 6.601,7.027 6.753 C 6.665 7.027,6.446 7.437,6.409 7.908 C 6.379 8.301,6.513 8.722,6.759 9.010 C 7.106 9.415,7.489 9.599,7.988 9.600 C 9.015 9.601,9.793 8.646,9.550 7.680 C 9.464 7.335,9.354 7.140,9.107 6.893 C 8.882 6.668,8.663 6.536,8.424 6.482 C 8.249 6.443,7.824 6.426,7.661 6.452 " fill="#1A1C1F" stroke="none" fill-rule="evenodd"></path></svg>