<svg width="20" height="20" viewBox="0 0 20 20" fill="none" xmlns="http://www.w3.org/2000/svg"><path d="M15.610 3.098 C 15.515 3.142,15.167 3.462,14.525 4.095 L 13.581 5.029 13.366 4.913 C 12.307 4.346,11.398 4.090,10.283 4.045 C 8.497 3.973,6.887 4.531,5.333 5.759 C 4.936 6.074,4.007 7.002,3.616 7.477 C 2.907 8.337,2.143 9.432,2.048 9.726 C 1.927 10.102,2.042 10.404,2.615 11.221 C 3.195 12.047,3.940 12.935,4.579 13.564 L 4.797 13.779 4.050 14.537 C 3.279 15.321,3.099 15.543,3.032 15.800 C 2.958 16.085,3.058 16.417,3.298 16.677 C 3.455 16.848,3.680 16.956,3.941 16.987 C 4.199 17.017,4.346 16.941,4.783 16.550 C 5.269 16.116,15.982 5.402,16.464 4.867 C 16.956 4.322,17.015 4.221,16.989 3.972 C 16.945 3.553,16.783 3.297,16.460 3.135 C 16.286 3.048,16.219 3.033,16.003 3.034 C 15.827 3.035,15.708 3.054,15.610 3.098 M11.134 6.175 C 11.597 6.297,12.009 6.444,12.025 6.492 C 12.033 6.514,11.706 6.869,11.300 7.280 L 10.561 8.028 10.056 8.025 C 9.595 8.022,9.531 8.029,9.333 8.104 C 8.723 8.335,8.171 8.943,8.036 9.533 C 7.990 9.735,7.991 10.201,8.038 10.389 L 8.076 10.540 7.152 11.462 L 6.229 12.383 5.876 12.017 C 5.682 11.815,5.388 11.493,5.223 11.302 C 4.900 10.926,4.233 10.049,4.233 9.999 C 4.233 9.941,5.024 8.917,5.394 8.496 C 6.411 7.338,7.448 6.605,8.571 6.251 C 9.073 6.092,9.288 6.068,10.083 6.080 C 10.739 6.090,10.851 6.100,11.134 6.175 M15.843 8.408 L 15.137 9.117 15.456 9.560 L 15.776 10.003 15.652 10.183 C 15.450 10.476,14.681 11.425,14.371 11.764 C 13.195 13.047,12.034 13.732,10.644 13.961 C 10.191 14.036,10.252 13.990,9.200 15.052 L 8.450 15.809 8.617 15.854 C 8.708 15.878,8.941 15.923,9.133 15.953 C 9.613 16.029,10.688 16.003,11.219 15.904 C 13.343 15.506,15.175 14.192,16.975 11.776 C 17.388 11.221,17.861 10.522,17.927 10.367 C 18.006 10.182,17.995 9.779,17.906 9.598 C 17.793 9.369,16.615 7.701,16.566 7.700 C 16.557 7.700,16.232 8.019,15.843 8.408 " fill="#1A1C1F" stroke="none" fill-rule="evenodd"></path></svg>