<svg width="24" height="24" viewBox="0 0 24 24" fill="none" xmlns="http://www.w3.org/2000/svg"><path d="M19.769 3.042 C 19.698 3.057,19.564 3.120,19.472 3.181 C 19.380 3.242,18.636 3.955,17.819 4.765 L 16.334 6.239 15.872 6.004 C 13.784 4.945,11.590 4.742,9.542 5.418 C 7.171 6.200,4.991 7.931,2.539 10.980 C 2.047 11.592,2.025 11.635,2.024 11.980 C 2.022 12.346,2.095 12.490,2.586 13.100 C 3.400 14.110,4.433 15.196,5.450 16.112 C 5.731 16.365,5.960 16.581,5.960 16.592 C 5.960 16.603,5.340 17.237,4.583 18.001 C 3.738 18.854,3.174 19.455,3.121 19.558 C 2.923 19.946,2.993 20.395,3.299 20.701 C 3.590 20.992,4.057 21.077,4.398 20.901 C 4.603 20.795,7.520 17.912,14.322 11.093 C 18.535 6.870,20.851 4.520,20.902 4.418 C 21.011 4.197,21.006 3.796,20.891 3.577 C 20.680 3.175,20.204 2.948,19.769 3.042 M13.300 7.178 C 13.909 7.318,14.734 7.633,14.753 7.733 C 14.762 7.782,14.460 8.113,13.789 8.788 L 12.812 9.772 12.626 9.726 C 12.089 9.591,11.419 9.648,10.984 9.868 C 10.496 10.113,9.966 10.672,9.797 11.119 C 9.628 11.567,9.590 12.150,9.702 12.580 L 9.763 12.817 8.585 13.994 L 7.408 15.172 6.994 14.808 C 6.147 14.061,5.193 13.096,4.566 12.351 L 4.273 12.002 4.571 11.651 C 5.348 10.735,6.707 9.386,7.374 8.867 C 8.526 7.971,9.744 7.362,10.871 7.117 C 11.163 7.053,11.350 7.043,12.020 7.054 C 12.723 7.066,12.878 7.081,13.300 7.178 M18.780 9.451 L 18.060 10.148 18.390 10.496 C 18.571 10.688,18.946 11.105,19.223 11.422 L 19.726 12.000 19.296 12.510 C 18.722 13.191,17.243 14.661,16.716 15.074 C 16.060 15.589,15.514 15.938,14.860 16.259 C 13.725 16.817,12.969 16.995,11.720 16.999 L 11.259 17.000 10.444 17.816 L 9.629 18.631 9.865 18.700 C 10.495 18.885,11.287 19.000,11.931 19.000 C 14.524 19.000,17.145 17.675,19.625 15.109 C 20.409 14.298,21.756 12.713,21.910 12.420 C 21.996 12.257,21.996 11.742,21.910 11.580 C 21.784 11.341,20.509 9.825,19.814 9.087 L 19.500 8.754 18.780 9.451 " fill="#1A1C1F" stroke="none" fill-rule="evenodd"></path></svg>