<svg width="12" height="12" viewBox="0 0 12 12" fill="none" xmlns="http://www.w3.org/2000/svg"><path d="M9.366 1.859 C 9.309 1.885,9.102 2.075,8.724 2.449 C 8.417 2.752,8.154 3.000,8.140 3.000 C 8.126 3.000,8.069 2.974,8.012 2.942 C 7.882 2.867,7.531 2.710,7.351 2.645 C 6.537 2.352,5.496 2.349,4.655 2.639 C 3.627 2.994,2.731 3.721,1.806 4.950 C 1.506 5.349,1.269 5.713,1.229 5.836 C 1.156 6.061,1.225 6.242,1.569 6.732 C 1.917 7.228,2.364 7.761,2.748 8.139 L 2.879 8.267 2.451 8.701 C 1.971 9.188,1.856 9.330,1.820 9.481 C 1.740 9.812,1.998 10.149,2.364 10.192 C 2.519 10.210,2.607 10.165,2.870 9.930 C 3.153 9.677,9.582 3.248,9.870 2.930 C 9.989 2.798,10.113 2.649,10.145 2.600 C 10.199 2.517,10.202 2.500,10.192 2.378 C 10.170 2.134,10.072 1.979,9.876 1.881 C 9.771 1.829,9.732 1.820,9.602 1.820 C 9.496 1.821,9.425 1.832,9.366 1.859 M6.720 3.716 C 7.016 3.795,7.205 3.863,7.215 3.896 C 7.220 3.910,7.021 4.125,6.774 4.374 L 6.324 4.826 6.124 4.812 C 5.771 4.788,5.501 4.865,5.256 5.061 C 5.045 5.231,4.875 5.489,4.822 5.720 C 4.794 5.841,4.795 6.121,4.823 6.233 L 4.846 6.324 4.292 6.877 L 3.738 7.430 3.554 7.240 C 3.452 7.135,3.289 6.960,3.192 6.850 C 3.005 6.640,2.540 6.033,2.540 6.000 C 2.540 5.965,3.012 5.353,3.234 5.100 C 3.833 4.418,4.430 3.989,5.081 3.772 C 5.425 3.657,5.552 3.640,6.050 3.648 C 6.467 3.654,6.502 3.658,6.720 3.716 M9.506 5.045 L 9.082 5.470 9.274 5.736 L 9.466 6.002 9.391 6.110 C 9.072 6.574,8.393 7.328,8.035 7.617 C 7.532 8.024,7.034 8.260,6.470 8.360 C 6.338 8.384,6.208 8.407,6.181 8.413 C 6.151 8.419,5.926 8.629,5.601 8.954 L 5.070 9.484 5.170 9.512 C 5.225 9.527,5.365 9.554,5.480 9.572 C 5.768 9.617,6.413 9.602,6.731 9.542 C 7.995 9.305,9.075 8.537,10.157 7.104 C 10.388 6.798,10.715 6.316,10.756 6.221 C 10.804 6.109,10.797 5.868,10.743 5.759 C 10.676 5.622,9.969 4.620,9.940 4.620 C 9.934 4.620,9.739 4.811,9.506 5.045 " fill="#1A1C1F" stroke="none" fill-rule="evenodd"></path></svg>