<svg width="14" height="14" viewBox="0 0 14 14" fill="none" xmlns="http://www.w3.org/2000/svg"><path d="M10.927 2.169 C 10.860 2.199,10.617 2.423,10.167 2.867 L 9.506 3.521 9.381 3.449 C 9.101 3.290,8.582 3.076,8.233 2.977 C 7.985 2.907,7.548 2.845,7.198 2.831 C 5.948 2.781,4.821 3.172,3.733 4.032 C 3.455 4.252,2.805 4.901,2.531 5.234 C 2.035 5.836,1.500 6.602,1.434 6.808 C 1.349 7.071,1.429 7.283,1.831 7.855 C 2.237 8.433,2.758 9.055,3.206 9.495 L 3.358 9.645 2.835 10.176 C 2.295 10.724,2.169 10.880,2.123 11.060 C 2.054 11.322,2.221 11.678,2.473 11.806 C 2.613 11.878,2.819 11.910,2.933 11.879 C 3.071 11.841,3.184 11.744,3.878 11.075 C 4.755 10.228,11.209 3.756,11.524 3.407 C 11.869 3.026,11.911 2.955,11.892 2.781 C 11.861 2.484,11.733 2.291,11.496 2.180 C 11.339 2.107,11.074 2.102,10.927 2.169 M7.793 4.323 C 8.124 4.410,8.408 4.511,8.418 4.545 C 8.423 4.561,8.192 4.812,7.903 5.102 L 7.379 5.631 7.137 5.615 C 6.837 5.596,6.641 5.626,6.430 5.723 C 6.037 5.903,5.714 6.285,5.625 6.673 C 5.593 6.814,5.594 7.141,5.627 7.272 L 5.653 7.378 5.007 8.023 L 4.360 8.668 4.113 8.412 C 3.976 8.271,3.771 8.045,3.656 7.911 C 3.431 7.649,2.963 7.034,2.963 7.000 C 2.963 6.971,3.405 6.382,3.622 6.122 C 4.431 5.151,5.298 4.542,6.179 4.328 C 6.500 4.250,6.492 4.250,7.058 4.257 C 7.520 4.263,7.594 4.270,7.793 4.323 M11.089 5.886 L 10.596 6.382 10.816 6.685 C 10.937 6.852,11.036 6.995,11.036 7.004 C 11.036 7.013,10.936 7.154,10.812 7.319 C 9.801 8.667,8.914 9.389,7.920 9.671 C 7.805 9.703,7.594 9.749,7.451 9.773 C 7.193 9.816,7.188 9.818,7.054 9.935 C 6.979 10.000,6.693 10.281,6.417 10.560 L 5.915 11.068 6.087 11.109 C 6.651 11.245,7.491 11.230,8.132 11.073 C 9.567 10.723,10.807 9.749,12.074 7.980 C 12.448 7.456,12.549 7.287,12.578 7.134 C 12.617 6.921,12.578 6.770,12.422 6.534 C 12.214 6.219,11.690 5.492,11.634 5.439 L 11.583 5.391 11.089 5.886 " fill="#1A1C1F" stroke="none" fill-rule="evenodd"></path></svg>