<svg width="14" height="14" viewBox="0 0 14 14" fill="none" xmlns="http://www.w3.org/2000/svg"><path d="M6.487 2.847 C 5.333 2.951,4.118 3.576,3.127 4.574 C 2.538 5.166,1.543 6.474,1.431 6.802 C 1.386 6.934,1.400 7.115,1.465 7.261 C 1.553 7.456,2.197 8.354,2.541 8.760 C 3.225 9.569,3.769 10.052,4.457 10.463 C 5.293 10.963,6.058 11.177,6.996 11.176 C 8.034 11.175,8.913 10.899,9.822 10.288 C 10.209 10.028,10.445 9.832,10.803 9.473 C 11.330 8.945,11.718 8.472,12.238 7.723 C 12.527 7.308,12.577 7.209,12.594 7.022 C 12.604 6.906,12.597 6.867,12.536 6.739 C 12.392 6.435,11.758 5.559,11.321 5.061 C 10.212 3.796,9.068 3.092,7.782 2.881 C 7.525 2.838,6.789 2.819,6.487 2.847 M7.287 4.246 C 7.554 4.262,7.715 4.284,7.870 4.327 C 8.884 4.603,9.797 5.334,10.801 6.673 C 10.931 6.845,11.037 6.993,11.037 7.000 C 11.037 7.008,10.915 7.176,10.767 7.374 C 10.137 8.213,9.571 8.791,9.006 9.171 C 8.368 9.600,7.716 9.801,6.969 9.801 C 6.179 9.801,5.441 9.527,4.713 8.964 C 4.221 8.583,3.578 7.876,3.071 7.158 L 2.960 7.001 3.013 6.924 C 3.474 6.260,4.145 5.507,4.608 5.135 C 5.124 4.722,5.722 4.417,6.265 4.291 C 6.364 4.268,6.653 4.237,6.860 4.228 C 6.892 4.226,7.084 4.235,7.287 4.246 M6.704 5.645 C 6.546 5.670,6.325 5.776,6.148 5.909 C 5.727 6.228,5.522 6.781,5.634 7.294 C 5.700 7.593,5.789 7.754,6.018 7.983 C 6.340 8.306,6.619 8.416,7.058 8.393 C 7.427 8.373,7.733 8.242,7.979 7.999 C 8.333 7.648,8.472 7.179,8.356 6.720 C 8.281 6.419,8.184 6.247,7.969 6.031 C 7.772 5.834,7.580 5.719,7.371 5.672 C 7.218 5.638,6.846 5.623,6.704 5.645 " fill="#1A1C1F" stroke="none" fill-rule="evenodd"></path></svg>