<svg width="24" height="24" viewBox="0 0 24 24" fill="none" xmlns="http://www.w3.org/2000/svg"><path d="M11.040 5.063 C 9.988 5.187,9.263 5.405,8.260 5.900 C 6.948 6.546,5.522 7.663,4.236 9.050 C 3.241 10.123,2.226 11.317,2.094 11.571 C 2.004 11.742,2.001 12.252,2.089 12.420 C 2.158 12.552,2.821 13.356,3.475 14.100 C 4.127 14.843,5.685 16.377,6.236 16.817 C 7.894 18.146,9.428 18.811,11.185 18.964 C 11.801 19.018,12.794 18.988,13.319 18.900 C 14.227 18.748,14.924 18.521,15.780 18.099 C 17.395 17.304,19.023 15.896,20.953 13.626 C 21.961 12.442,22.060 12.261,21.961 11.783 C 21.909 11.533,21.775 11.344,21.033 10.469 C 19.063 8.143,17.393 6.705,15.700 5.878 C 14.552 5.316,13.733 5.108,12.419 5.041 C 11.501 4.995,11.631 4.993,11.040 5.063 M12.420 7.042 C 14.198 7.196,15.766 7.980,17.382 9.523 C 18.048 10.159,18.882 11.025,19.374 11.592 L 19.728 11.999 19.439 12.330 C 16.938 15.186,15.196 16.456,13.186 16.887 C 12.592 17.015,11.561 17.014,10.924 16.887 C 9.680 16.637,8.616 16.130,7.481 15.244 C 6.873 14.770,5.446 13.352,4.626 12.408 L 4.272 12.000 4.826 11.372 C 6.791 9.144,8.428 7.870,10.004 7.343 C 10.632 7.133,11.035 7.060,11.860 7.006 C 11.904 7.003,12.156 7.019,12.420 7.042 M11.090 9.156 C 10.607 9.324,10.227 9.565,9.855 9.939 C 9.592 10.204,9.495 10.337,9.345 10.643 C 9.084 11.174,9.021 11.442,9.022 12.020 C 9.022 12.409,9.040 12.557,9.115 12.800 C 9.395 13.707,10.061 14.450,10.880 14.771 C 11.330 14.947,11.483 14.976,11.980 14.976 C 12.554 14.975,12.818 14.913,13.359 14.652 C 13.683 14.496,13.790 14.417,14.100 14.105 C 14.374 13.829,14.504 13.661,14.629 13.419 C 15.136 12.436,15.110 11.395,14.554 10.450 C 14.382 10.156,13.844 9.618,13.550 9.446 C 13.008 9.127,12.659 9.040,11.925 9.041 C 11.473 9.041,11.385 9.053,11.090 9.156 M12.433 11.117 C 12.609 11.208,12.806 11.409,12.899 11.596 C 12.952 11.699,12.965 11.808,12.954 12.062 C 12.942 12.354,12.926 12.414,12.819 12.565 C 12.752 12.660,12.621 12.792,12.526 12.858 C 12.381 12.960,12.310 12.981,12.059 12.994 C 11.699 13.012,11.475 12.921,11.259 12.668 C 10.778 12.106,11.034 11.272,11.760 11.035 C 11.908 10.987,12.265 11.030,12.433 11.117 " fill="#1A1C1F" stroke="none" fill-rule="evenodd"></path></svg>