<svg width="28" height="28" viewBox="0 0 28 28" fill="none" xmlns="http://www.w3.org/2000/svg"><path d="M13.230 6.166 C 9.186 6.351,5.871 8.286,2.833 12.237 C 2.563 12.589,2.219 13.061,2.069 13.286 C 1.807 13.680,1.797 13.707,1.797 14.000 C 1.797 14.293,1.807 14.320,2.069 14.714 C 3.028 16.154,4.550 17.872,5.763 18.880 C 8.010 20.748,10.446 21.719,13.172 21.834 C 15.650 21.938,17.548 21.594,19.446 20.696 C 20.887 20.014,22.117 19.096,23.520 17.656 C 24.496 16.654,25.891 14.904,26.152 14.353 C 26.303 14.035,26.244 13.756,25.923 13.274 C 25.226 12.227,24.145 10.942,23.117 9.940 C 22.104 8.951,21.279 8.316,20.231 7.718 C 18.219 6.570,15.858 6.047,13.230 6.166 M16.310 8.090 C 18.071 8.466,19.559 9.166,20.907 10.253 C 21.329 10.594,22.449 11.700,22.941 12.262 C 23.337 12.714,24.267 13.932,24.267 13.998 C 24.267 14.061,23.613 14.931,23.108 15.540 C 22.567 16.192,21.400 17.365,20.861 17.798 C 19.431 18.948,17.675 19.724,15.890 19.997 C 15.213 20.100,13.490 20.141,12.832 20.070 C 9.476 19.707,6.804 17.999,4.043 14.452 L 3.687 13.994 3.964 13.630 C 4.562 12.845,5.135 12.175,5.739 11.556 C 7.681 9.564,9.618 8.479,12.001 8.047 C 12.595 7.940,12.694 7.936,14.187 7.953 C 15.648 7.970,15.786 7.979,16.310 8.090 M13.538 9.666 C 12.344 9.774,11.076 10.539,10.375 11.573 C 8.745 13.979,9.927 17.287,12.734 18.172 C 15.313 18.986,18.059 17.158,18.341 14.438 C 18.623 11.711,16.312 9.415,13.538 9.666 M14.760 11.511 C 15.452 11.714,16.007 12.188,16.340 12.859 L 16.543 13.270 16.543 13.996 L 16.543 14.723 16.375 15.073 C 16.051 15.748,15.515 16.240,14.840 16.479 C 14.591 16.567,14.441 16.586,14.000 16.586 C 13.559 16.586,13.409 16.567,13.160 16.479 C 12.485 16.240,11.949 15.748,11.625 15.073 L 11.457 14.723 11.457 14.000 L 11.457 13.277 11.625 12.927 C 11.849 12.459,12.158 12.093,12.541 11.840 C 12.834 11.646,13.256 11.466,13.533 11.415 C 13.741 11.377,14.509 11.437,14.760 11.511 " fill="#1A1C1F" stroke="none" fill-rule="evenodd"></path></svg>