<svg width="20" height="20" viewBox="0 0 20 20" fill="none" xmlns="http://www.w3.org/2000/svg"><path d="M9.267 4.069 C 7.660 4.202,5.900 5.101,4.500 6.500 C 3.651 7.350,2.207 9.242,2.045 9.718 C 1.980 9.906,1.999 10.165,2.093 10.372 C 2.164 10.531,2.727 11.353,3.134 11.893 C 3.743 12.702,4.713 13.740,5.300 14.211 C 6.414 15.105,7.567 15.650,8.850 15.886 C 9.248 15.960,10.319 15.987,10.772 15.935 C 12.637 15.721,14.323 14.780,15.856 13.096 C 16.516 12.371,16.855 11.938,17.523 10.970 C 18.150 10.062,18.153 9.934,17.561 9.053 C 16.126 6.918,14.619 5.479,13.007 4.710 C 11.864 4.163,10.645 3.954,9.267 4.069 M10.410 6.066 C 11.314 6.119,12.043 6.380,12.890 6.953 C 13.770 7.549,14.746 8.561,15.618 9.783 L 15.773 10.000 15.613 10.225 C 15.429 10.484,14.929 11.131,14.705 11.400 C 14.620 11.501,14.364 11.776,14.134 12.012 C 13.255 12.914,12.443 13.456,11.504 13.767 C 10.993 13.936,10.574 14.002,10.028 14.001 C 8.462 13.999,7.205 13.393,5.830 11.978 C 5.420 11.556,4.855 10.873,4.437 10.293 L 4.227 10.002 4.303 9.893 C 4.963 8.942,5.921 7.868,6.583 7.336 C 7.319 6.745,8.172 6.311,8.950 6.130 C 9.087 6.098,9.415 6.064,9.817 6.040 C 9.853 6.037,10.120 6.049,10.410 6.066 M9.576 8.065 C 9.351 8.101,9.035 8.251,8.779 8.445 C 8.330 8.785,8.057 9.302,8.011 9.903 C 7.974 10.368,8.146 10.906,8.440 11.252 C 8.905 11.799,9.423 12.030,10.097 11.990 C 11.128 11.930,11.918 11.164,11.989 10.156 C 12.013 9.827,11.928 9.439,11.759 9.100 C 11.538 8.657,10.979 8.204,10.530 8.103 C 10.311 8.054,9.780 8.033,9.576 8.065 " fill="#1A1C1F" stroke="none" fill-rule="evenodd"></path></svg>