<svg width="16" height="16" viewBox="0 0 16 16" fill="none" xmlns="http://www.w3.org/2000/svg"><path d="M12.488 2.479 C 12.412 2.513,12.133 2.769,11.621 3.275 L 10.867 4.021 10.507 3.840 C 9.699 3.436,9.072 3.270,8.227 3.236 C 6.734 3.176,5.382 3.670,4.107 4.741 C 3.801 4.998,3.215 5.595,2.911 5.960 C 2.356 6.625,1.716 7.542,1.639 7.781 C 1.540 8.087,1.645 8.353,2.136 9.040 C 2.609 9.702,3.163 10.360,3.650 10.838 L 3.838 11.023 3.240 11.630 C 2.623 12.256,2.479 12.435,2.426 12.640 C 2.341 12.965,2.557 13.377,2.887 13.521 C 3.062 13.598,3.333 13.607,3.457 13.540 C 3.647 13.438,4.317 12.781,8.495 8.602 C 12.730 4.367,13.362 3.722,13.527 3.467 C 13.599 3.356,13.603 3.333,13.589 3.170 C 13.561 2.845,13.429 2.639,13.168 2.508 C 13.028 2.438,12.976 2.427,12.802 2.427 C 12.661 2.428,12.566 2.443,12.488 2.479 M8.907 4.940 C 9.284 5.040,9.609 5.156,9.621 5.194 C 9.627 5.212,9.362 5.499,9.032 5.831 L 8.433 6.435 8.166 6.416 C 7.700 6.384,7.347 6.484,7.016 6.741 C 6.740 6.955,6.500 7.317,6.429 7.627 C 6.392 7.788,6.393 8.161,6.431 8.311 L 6.461 8.432 5.722 9.169 L 4.983 9.907 4.701 9.613 C 4.546 9.452,4.311 9.195,4.179 9.042 C 3.920 8.741,3.387 8.039,3.387 7.999 C 3.387 7.953,4.019 7.134,4.315 6.797 C 5.189 5.802,6.118 5.176,7.062 4.946 C 7.429 4.857,7.420 4.857,8.067 4.866 C 8.595 4.872,8.679 4.880,8.907 4.940 M12.674 6.727 L 12.109 7.293 12.365 7.648 L 12.621 8.002 12.522 8.145 C 12.468 8.224,12.264 8.488,12.070 8.731 C 10.841 10.268,9.848 10.949,8.515 11.169 C 8.237 11.215,8.209 11.225,8.089 11.327 C 7.902 11.486,6.760 12.636,6.775 12.651 C 6.782 12.657,6.913 12.691,7.067 12.725 C 7.318 12.780,7.414 12.786,8.000 12.785 C 8.558 12.785,8.698 12.776,8.961 12.727 C 10.680 12.401,12.135 11.360,13.580 9.420 C 13.910 8.977,14.288 8.418,14.341 8.294 C 14.405 8.146,14.396 7.823,14.325 7.679 C 14.234 7.496,13.292 6.160,13.253 6.160 C 13.246 6.160,12.985 6.415,12.674 6.727 " fill="#1A1C1F" stroke="none" fill-rule="evenodd"></path></svg>