<svg width="12" height="12" viewBox="0 0 12 12" fill="none" xmlns="http://www.w3.org/2000/svg"><path d="M5.560 2.439 C 4.983 2.490,4.342 2.712,3.759 3.064 C 3.385 3.289,3.094 3.524,2.698 3.919 C 2.230 4.386,1.900 4.790,1.474 5.415 C 1.119 5.937,1.115 6.031,1.434 6.506 C 2.565 8.190,3.690 9.129,4.976 9.461 C 5.291 9.543,5.608 9.580,5.986 9.580 C 6.522 9.580,6.811 9.535,7.286 9.379 C 8.422 9.006,9.331 8.240,10.383 6.769 C 10.671 6.366,10.751 6.235,10.781 6.114 C 10.834 5.904,10.776 5.769,10.403 5.240 C 9.558 4.039,8.789 3.319,7.861 2.859 C 7.445 2.653,7.093 2.537,6.680 2.471 C 6.452 2.434,5.824 2.416,5.560 2.439 M6.251 3.640 C 6.679 3.666,6.939 3.738,7.358 3.949 C 7.973 4.258,8.600 4.842,9.258 5.719 C 9.369 5.867,9.460 5.994,9.460 6.000 C 9.460 6.016,9.042 6.572,8.881 6.771 C 8.563 7.163,8.036 7.653,7.686 7.881 C 7.318 8.122,6.856 8.307,6.462 8.371 C 6.209 8.413,5.658 8.402,5.420 8.350 C 4.926 8.242,4.444 8.008,4.010 7.664 C 3.824 7.516,3.414 7.114,3.222 6.890 C 3.054 6.695,2.785 6.350,2.632 6.135 L 2.536 6.000 2.627 5.874 C 3.014 5.331,3.629 4.652,3.990 4.370 C 4.428 4.028,4.904 3.790,5.378 3.677 C 5.455 3.658,5.569 3.646,5.890 3.623 C 5.912 3.622,6.075 3.629,6.251 3.640 M5.750 4.839 C 5.543 4.872,5.226 5.061,5.088 5.233 C 4.919 5.444,4.825 5.682,4.806 5.947 C 4.786 6.231,4.888 6.545,5.070 6.757 C 5.329 7.061,5.617 7.199,5.991 7.200 C 6.509 7.201,6.983 6.862,7.142 6.377 C 7.213 6.160,7.210 5.870,7.135 5.650 C 7.105 5.562,7.043 5.434,6.999 5.366 C 6.842 5.126,6.558 4.916,6.318 4.862 C 6.188 4.833,5.868 4.819,5.750 4.839 " fill="#1A1C1F" stroke="none" fill-rule="evenodd"></path></svg>