<svg xmlns="http://www.w3.org/2000/svg" width="32" height="32" fill="none"><g clip-path="url(#a)"><path fill="#1A1C1F" fill-rule="evenodd" d="M16.177 14.451a5.02 5.02 0 0 1 4.897 3.997 3.71 3.71 0 0 0 2.904 2.904 5 5 0 0 1 3.173 2.135 1 1 0 1 1-1.662 1.112 2.944 2.944 0 0 0-1.909-1.285 5.71 5.71 0 0 1-4.467-4.465 3.01 3.01 0 0 0-2.936-2.397c-.2 0-.405.021-.591.06a2.98 2.98 0 0 0-1.912 1.282 2.99 2.99 0 0 0-.44 2.257 11.7 11.7 0 0 0 3.173 5.931c.453.455 1.547 1.401 2.02 1.746a1 1 0 1 1-1.181 1.614c-.595-.436-1.776-1.468-2.256-1.95a13.7 13.7 0 0 1-3.716-6.943 4.98 4.98 0 0 1 .734-3.761 4.96 4.96 0 0 1 3.177-2.137c.311-.064.656-.1.992-.1m.977 4.8a7.7 7.7 0 0 0 6.032 6.021 1 1 0 0 1-.398 1.962 9.7 9.7 0 0 1-7.594-7.584 1 1 0 1 1 1.96-.399m-7.651 2.616c.332 1.188.913 2.389 1.68 3.47a1 1 0 1 1-1.63 1.158c-.913-1.286-1.578-2.661-1.976-4.089a1 1 0 1 1 1.926-.539m6.67-15.402c1.264 0 2.517.184 3.726.547a1 1 0 1 1-.576 1.916 11 11 0 0 0-3.15-.463c-6.071 0-11.01 4.939-11.01 11.011q0 .573.059 1.136a1 1 0 0 1-.996 1.104 1.003 1.003 0 0 1-.993-.897 13 13 0 0 1-.07-1.343c0-7.174 5.837-13.011 13.01-13.011m7.43 2.337a13.04 13.04 0 0 1 5.128 7.27 3.005 3.005 0 0 1-2.108 3.681 3 3 0 0 1-.585.097l-.195.005-.178-.004a3.01 3.01 0 0 1-2.722-2.208 7.03 7.03 0 0 0-6.769-5.178c-3.48 0-6.465 2.598-6.943 6.043a1 1 0 0 1-1.982-.275c.615-4.428 4.452-7.768 8.925-7.768a9.03 9.03 0 0 1 8.699 6.654c.143.531.694.847 1.23.703a1 1 0 0 0 .698-1.227 11.04 11.04 0 0 0-4.341-6.152 1 1 0 0 1 1.142-1.641m-7.43-6.337c3.743 0 7.28 1.195 10.267 3.458a1 1 0 1 1-1.207 1.593 14.9 14.9 0 0 0-9.06-3.052 14.9 14.9 0 0 0-9.065 3.055 1 1 0 0 1-.604.204 1 1 0 0 1-.606-1.795 16.84 16.84 0 0 1 10.276-3.463" clip-rule="evenodd"/></g><defs><clipPath id="a"><path fill="#fff" d="M0 0h32v32H0z"/></clipPath></defs></svg>