<svg width="32" height="32" viewBox="0 0 32 32" fill="none" xmlns="http://www.w3.org/2000/svg"><path d="M14.267 2.585 C 11.968 2.866,10.114 3.448,8.187 4.493 C 6.491 5.412,5.593 6.102,5.522 6.541 C 5.411 7.226,6.060 7.857,6.702 7.688 C 6.824 7.656,7.325 7.365,7.816 7.041 C 9.844 5.704,11.776 4.957,14.087 4.617 C 14.753 4.519,17.229 4.501,18.000 4.589 C 19.413 4.750,21.079 5.226,22.415 5.850 C 23.175 6.206,23.684 6.495,24.633 7.109 C 25.084 7.402,25.534 7.665,25.632 7.696 C 25.855 7.764,26.187 7.676,26.446 7.481 C 26.822 7.197,26.935 6.563,26.675 6.198 C 26.422 5.843,25.054 4.938,23.835 4.319 C 22.163 3.471,20.538 2.948,18.693 2.664 C 17.734 2.517,15.191 2.471,14.267 2.585 M15.627 6.485 C 15.495 6.496,15.123 6.531,14.800 6.562 C 11.149 6.917,7.699 8.943,5.542 11.998 C 4.458 13.534,3.688 15.383,3.351 17.263 C 3.243 17.868,3.228 18.119,3.228 19.440 L 3.227 20.933 3.360 21.171 C 3.782 21.925,4.812 21.850,5.150 21.041 C 5.225 20.860,5.233 20.711,5.202 20.028 C 5.114 18.116,5.476 16.343,6.293 14.678 C 7.386 12.453,9.065 10.752,11.253 9.654 C 12.864 8.847,14.287 8.513,16.133 8.512 C 17.226 8.511,17.712 8.564,18.813 8.805 C 19.639 8.986,19.741 8.991,20.033 8.858 C 20.500 8.646,20.703 8.108,20.509 7.598 C 20.344 7.166,19.966 6.981,18.780 6.751 C 17.737 6.549,16.304 6.428,15.627 6.485 M22.640 8.739 C 22.329 8.881,22.095 9.171,22.050 9.471 C 21.992 9.854,22.137 10.143,22.560 10.493 C 23.701 11.435,24.745 12.521,25.289 13.333 C 26.048 14.467,26.781 16.184,26.794 16.857 C 26.799 17.167,26.782 17.232,26.647 17.409 C 26.347 17.803,25.910 17.947,25.506 17.785 C 25.165 17.649,25.003 17.421,24.748 16.715 C 24.482 15.981,24.069 15.122,23.724 14.587 C 22.446 12.600,20.356 11.173,17.973 10.658 C 17.484 10.553,17.259 10.537,16.187 10.536 C 15.103 10.535,14.895 10.549,14.400 10.657 C 11.156 11.366,8.655 13.589,7.629 16.677 C 7.247 17.825,7.176 18.472,7.385 18.877 C 7.618 19.327,8.338 19.486,8.789 19.187 C 9.079 18.995,9.144 18.856,9.330 18.034 C 9.560 17.013,9.807 16.442,10.417 15.520 C 10.750 15.018,11.682 14.089,12.229 13.715 C 13.010 13.181,13.967 12.771,14.813 12.609 C 15.372 12.502,17.049 12.507,17.580 12.616 C 19.068 12.924,20.546 13.813,21.514 14.983 C 22.157 15.761,22.468 16.322,22.881 17.449 C 23.187 18.284,23.399 18.642,23.825 19.042 C 24.361 19.545,25.105 19.840,25.840 19.840 C 27.260 19.840,28.499 18.794,28.778 17.360 C 28.876 16.854,28.849 16.512,28.662 15.866 C 28.201 14.277,27.325 12.603,26.282 11.317 C 25.826 10.754,24.819 9.754,24.240 9.290 C 23.447 8.653,23.096 8.532,22.640 8.739 M14.862 14.644 C 13.148 15.114,11.858 16.407,11.349 18.166 C 11.242 18.535,11.227 18.699,11.231 19.493 C 11.235 20.334,11.247 20.444,11.402 21.013 C 12.183 23.893,13.528 26.096,15.699 28.048 C 17.387 29.565,17.800 29.762,18.398 29.328 C 18.828 29.017,18.956 28.379,18.662 28.011 C 18.591 27.922,18.173 27.542,17.733 27.166 C 15.997 25.681,15.084 24.575,14.265 22.960 C 13.563 21.575,13.112 19.977,13.198 19.175 C 13.306 18.162,13.944 17.245,14.853 16.795 C 15.360 16.544,15.808 16.459,16.406 16.498 C 16.951 16.535,17.368 16.680,17.828 16.993 C 18.540 17.479,18.800 17.900,19.248 19.291 C 19.647 20.526,20.196 21.389,21.014 22.061 C 21.710 22.634,22.247 22.902,23.506 23.303 C 24.501 23.620,24.694 23.738,25.364 24.442 C 25.759 24.857,25.892 24.963,26.082 25.014 C 26.442 25.111,26.905 24.927,27.155 24.587 C 27.283 24.412,27.332 24.026,27.260 23.759 C 27.185 23.479,26.610 22.767,26.176 22.416 C 25.560 21.918,25.036 21.664,24.000 21.360 C 23.062 21.085,22.683 20.875,22.131 20.323 C 21.581 19.773,21.383 19.416,21.066 18.400 C 20.942 18.004,20.775 17.533,20.693 17.353 C 20.216 16.297,19.194 15.320,18.071 14.846 C 17.457 14.587,16.979 14.506,16.096 14.511 C 15.462 14.514,15.254 14.536,14.862 14.644 M15.867 18.518 C 15.447 18.667,15.203 19.015,15.201 19.467 C 15.199 19.920,15.610 21.197,16.027 22.031 C 17.287 24.552,19.460 26.322,22.249 27.100 C 22.936 27.292,23.198 27.286,23.523 27.071 C 24.061 26.715,24.136 26.042,23.688 25.597 C 23.483 25.394,23.376 25.347,22.418 25.047 C 20.722 24.516,19.297 23.456,18.324 22.000 C 17.823 21.252,17.548 20.632,17.228 19.533 C 17.075 19.010,17.027 18.910,16.850 18.750 C 16.554 18.482,16.202 18.400,15.867 18.518 M8.026 21.303 C 7.736 21.476,7.566 21.790,7.566 22.147 C 7.566 22.654,8.207 24.283,8.839 25.379 C 9.441 26.424,9.750 26.767,10.198 26.887 C 10.412 26.944,10.461 26.938,10.729 26.815 C 11.204 26.597,11.426 26.208,11.339 25.743 C 11.320 25.643,11.146 25.300,10.951 24.980 C 10.475 24.198,9.880 22.976,9.630 22.264 C 9.382 21.560,9.329 21.473,9.041 21.304 C 8.735 21.125,8.323 21.125,8.026 21.303 " fill="#1A1C1F" stroke="none" fill-rule="evenodd"></path></svg>