<svg xmlns="http://www.w3.org/2000/svg" width="28" height="28" fill="none"><g clip-path="url(#a)"><path fill="#1A1C1F" fill-rule="evenodd" d="M14.155 12.645a4.39 4.39 0 0 1 4.284 3.497 3.245 3.245 0 0 0 2.542 2.541 4.37 4.37 0 0 1 2.777 1.868.875.875 0 1 1-1.455.973q-.051-.075-.106-.149a2.58 2.58 0 0 0-1.564-.975 4.99 4.99 0 0 1-3.909-3.907 2.63 2.63 0 0 0-2.569-2.097 2.6 2.6 0 0 0-.518.052 2.6 2.6 0 0 0-1.672 1.122 2.61 2.61 0 0 0-.385 1.975 10.23 10.23 0 0 0 2.776 5.19 22 22 0 0 0 1.767 1.527.875.875 0 1 1-1.033 1.412c-.52-.381-1.554-1.284-1.974-1.706a11.97 11.97 0 0 1-3.25-6.075 4.35 4.35 0 0 1 .64-3.291 4.34 4.34 0 0 1 2.78-1.87c.273-.056.575-.087.87-.087m.855 4.2a6.74 6.74 0 0 0 5.277 5.268.875.875 0 0 1-.347 1.717 8.49 8.49 0 0 1-6.645-6.636.875.875 0 1 1 1.715-.35m-6.695 2.289c.29 1.04.8 2.09 1.47 3.036a.875.875 0 1 1-1.427 1.013 11.5 11.5 0 0 1-1.729-3.578.874.874 0 1 1 1.686-.471m5.837-13.477c1.105 0 2.201.16 3.26.478a.875.875 0 1 1-.505 1.677 9.6 9.6 0 0 0-2.756-.405c-5.312 0-9.634 4.322-9.634 9.635q0 .501.052.993a.876.876 0 0 1-1.74.182c-.04-.388-.06-.784-.06-1.175 0-6.278 5.106-11.385 11.383-11.385m6.5 2.045a11.4 11.4 0 0 1 4.488 6.361 2.63 2.63 0 0 1-2.3 3.301l-.228.01-.171-.006a2.63 2.63 0 0 1-2.366-1.93 6.15 6.15 0 0 0-5.922-4.531c-3.046 0-5.658 2.273-6.076 5.288a.876.876 0 0 1-1.734-.24c.538-3.876 3.895-6.798 7.809-6.798 3.55 0 6.68 2.394 7.611 5.822a.88.88 0 0 0 1.077.615.876.876 0 0 0 .611-1.073 9.66 9.66 0 0 0-3.799-5.383.875.875 0 0 1 1-1.436m-6.5-5.545c3.274 0 6.369 1.045 8.983 3.026a.875.875 0 1 1-1.057 1.393 13.04 13.04 0 0 0-7.926-2.67c-2.878 0-5.633.925-7.933 2.673a.87.87 0 0 1-.528.179.875.875 0 0 1-.53-1.57 14.74 14.74 0 0 1 8.99-3.031" clip-rule="evenodd"/></g><defs><clipPath id="a"><path fill="#fff" d="M0 0h28v28H0z"/></clipPath></defs></svg>