<svg width="28" height="28" viewBox="0 0 28 28" fill="none" xmlns="http://www.w3.org/2000/svg"><path d="M12.471 2.264 C 10.418 2.524,8.853 3.016,7.163 3.931 C 5.679 4.735,4.894 5.339,4.832 5.723 C 4.734 6.323,5.302 6.875,5.864 6.727 C 5.971 6.699,6.410 6.444,6.839 6.161 C 8.614 4.991,10.304 4.338,12.326 4.040 C 12.909 3.954,15.075 3.938,15.750 4.015 C 16.993 4.157,18.395 4.555,19.577 5.104 C 20.272 5.426,20.707 5.672,21.554 6.221 C 21.948 6.476,22.342 6.707,22.428 6.734 C 22.623 6.794,22.914 6.717,23.141 6.546 C 23.469 6.297,23.568 5.743,23.340 5.423 C 23.119 5.112,21.922 4.321,20.856 3.779 C 19.392 3.037,17.970 2.579,16.357 2.331 C 15.499 2.200,13.284 2.161,12.471 2.264 M13.370 5.696 C 9.506 6.009,6.202 8.079,4.279 11.393 C 3.555 12.640,3.063 14.097,2.871 15.565 C 2.796 16.137,2.767 17.781,2.825 18.169 C 2.967 19.117,4.141 19.286,4.506 18.411 C 4.572 18.252,4.579 18.122,4.551 17.524 C 4.475 15.851,4.791 14.300,5.507 12.843 C 6.463 10.896,7.932 9.408,9.847 8.448 C 11.254 7.742,12.466 7.457,14.093 7.450 C 15.076 7.446,15.477 7.489,16.461 7.705 C 16.801 7.779,17.137 7.840,17.208 7.839 C 17.413 7.837,17.710 7.678,17.851 7.493 C 18.107 7.157,18.038 6.571,17.713 6.323 C 17.179 5.915,14.835 5.577,13.370 5.696 M19.810 7.647 C 19.368 7.848,19.175 8.298,19.350 8.721 C 19.418 8.883,19.530 9.010,19.810 9.240 C 21.498 10.624,22.540 12.004,23.166 13.687 C 23.546 14.706,23.555 14.995,23.218 15.332 C 22.888 15.661,22.509 15.714,22.161 15.479 C 21.938 15.329,21.833 15.150,21.632 14.577 C 20.678 11.847,18.521 9.930,15.727 9.326 C 15.298 9.234,15.101 9.220,14.163 9.219 C 13.215 9.218,13.033 9.231,12.600 9.325 C 9.762 9.945,7.573 11.891,6.675 14.592 C 6.239 15.906,6.253 16.473,6.730 16.789 C 7.116 17.044,7.695 16.929,7.930 16.549 C 7.982 16.465,8.086 16.121,8.162 15.786 C 8.445 14.529,8.939 13.634,9.842 12.740 C 10.392 12.194,10.861 11.852,11.470 11.551 C 12.421 11.082,12.953 10.967,14.170 10.967 C 15.121 10.967,15.463 11.017,16.139 11.254 C 17.043 11.571,17.829 12.075,18.527 12.785 C 19.206 13.477,19.591 14.114,20.012 15.249 C 20.277 15.962,20.422 16.223,20.734 16.554 C 21.191 17.037,21.778 17.306,22.470 17.347 C 23.774 17.425,24.924 16.509,25.180 15.190 C 25.295 14.599,25.199 14.093,24.756 12.946 C 24.044 11.104,22.791 9.402,21.210 8.129 C 20.517 7.571,20.209 7.465,19.810 7.647 M13.004 12.813 C 11.504 13.225,10.376 14.356,9.930 15.895 C 9.837 16.218,9.824 16.362,9.827 17.057 C 9.831 17.793,9.841 17.889,9.976 18.387 C 10.659 20.904,11.840 22.836,13.737 24.542 C 15.213 25.870,15.575 26.041,16.099 25.662 C 16.475 25.390,16.586 24.832,16.329 24.509 C 16.267 24.432,15.902 24.099,15.517 23.770 C 13.997 22.471,13.199 21.503,12.482 20.090 C 11.864 18.871,11.466 17.446,11.550 16.753 C 11.658 15.875,12.214 15.084,12.997 14.696 C 13.440 14.476,13.832 14.401,14.355 14.436 C 14.832 14.468,15.197 14.595,15.599 14.869 C 16.208 15.284,16.465 15.688,16.798 16.753 C 17.047 17.547,17.277 18.020,17.667 18.539 C 18.322 19.411,19.331 20.061,20.522 20.376 C 21.283 20.578,21.584 20.756,22.139 21.333 C 22.534 21.743,22.656 21.843,22.823 21.888 C 23.137 21.972,23.542 21.810,23.760 21.513 C 23.873 21.361,23.916 21.023,23.853 20.789 C 23.787 20.544,23.284 19.921,22.904 19.614 C 22.365 19.178,21.907 18.956,21.000 18.690 C 20.180 18.450,19.847 18.265,19.364 17.782 C 18.883 17.301,18.710 16.989,18.433 16.100 C 18.325 15.754,18.178 15.341,18.107 15.184 C 17.689 14.260,16.795 13.405,15.812 12.991 C 15.275 12.764,14.857 12.693,14.084 12.697 C 13.529 12.700,13.347 12.719,13.004 12.813 M13.883 16.204 C 13.516 16.334,13.303 16.638,13.301 17.033 C 13.299 17.430,13.659 18.547,14.024 19.277 C 15.126 21.483,17.027 23.032,19.468 23.713 C 20.069 23.881,20.298 23.875,20.583 23.687 C 21.053 23.376,21.119 22.787,20.727 22.398 C 20.547 22.219,20.456 22.180,19.600 21.911 C 17.924 21.386,16.483 20.192,15.686 18.667 C 15.415 18.149,15.284 17.813,15.074 17.092 C 14.941 16.633,14.899 16.546,14.744 16.406 C 14.485 16.172,14.177 16.100,13.883 16.204 M7.014 18.651 C 6.756 18.818,6.620 19.069,6.620 19.379 C 6.620 19.822,7.181 21.248,7.734 22.207 C 8.261 23.121,8.532 23.422,8.924 23.526 C 9.110 23.576,9.153 23.571,9.388 23.463 C 9.804 23.273,9.998 22.932,9.921 22.525 C 9.905 22.438,9.752 22.137,9.582 21.858 C 9.166 21.173,8.645 20.104,8.426 19.481 C 8.209 18.865,8.163 18.789,7.911 18.641 C 7.633 18.478,7.274 18.482,7.014 18.651 " fill="#1A1C1F" stroke="none" fill-rule="evenodd"></path></svg>