<svg xmlns="http://www.w3.org/2000/svg" width="12" height="12" fill="none"><g clip-path="url(#a)"><path fill="#1A1C1F" fill-rule="evenodd" d="M7.266 10.422c-1.294-.76-2.136-1.874-2.436-3.22a.61.61 0 0 1 .437-.732.584.584 0 0 1 .701.456C6.25 8.194 7.141 8.948 7.84 9.358c.281.166.38.537.223.83a.58.58 0 0 1-.51.312.56.56 0 0 1-.286-.079M3.72 10.15a.58.58 0 0 1-.503-.298c-.448-.785-.592-1.452-.598-1.48a5 5 0 0 1-.157-1.256c0-.909.384-1.766 1.054-2.35a2.86 2.86 0 0 1 1.88-.714c1.28 0 2.402.854 2.795 2.126a.616.616 0 0 1-.376.768.58.58 0 0 1-.736-.394c-.236-.766-.912-1.28-1.682-1.28a1.72 1.72 0 0 0-1.132.43 1.88 1.88 0 0 0-.635 1.415c0 .322.043.656.123.964.007.031.121.54.467 1.147a.625.625 0 0 1-.202.836.56.56 0 0 1-.298.086m6.093-1.44a.61.61 0 0 1-.434-.734c.347-1.542-.15-3.15-1.294-4.197a.63.63 0 0 1-.054-.86.567.567 0 0 1 .824-.058c1.47 1.345 2.107 3.412 1.661 5.394a.59.59 0 0 1-.568.47.6.6 0 0 1-.135-.016m-8.28-4.557a.63.63 0 0 1-.037-.862 5.18 5.18 0 0 1 3.375-1.766 5.1 5.1 0 0 1 1.824.144.613.613 0 0 1 .422.742.583.583 0 0 1-.71.44 3.9 3.9 0 0 0-1.422-.112A4.03 4.03 0 0 0 2.36 4.114a.57.57 0 0 1-.825.04" clip-rule="evenodd"/></g><defs><clipPath id="a"><path fill="#fff" d="M0 0h12v12H0z"/></clipPath></defs></svg>