<svg width="12" height="12" viewBox="0 0 12 12" fill="none" xmlns="http://www.w3.org/2000/svg"><path d="M5.070 1.513 C 3.970 1.602,2.999 1.983,2.170 2.651 C 1.937 2.839,1.533 3.240,1.448 3.369 C 1.244 3.677,1.370 4.108,1.709 4.262 C 1.823 4.314,2.041 4.313,2.150 4.260 C 2.196 4.238,2.343 4.117,2.477 3.991 C 2.809 3.679,2.972 3.540,3.144 3.425 C 3.758 3.012,4.373 2.798,5.110 2.739 C 5.500 2.708,5.736 2.728,6.415 2.849 C 6.571 2.877,6.586 2.877,6.713 2.838 C 6.819 2.805,6.867 2.776,6.950 2.693 C 7.073 2.570,7.120 2.450,7.120 2.260 C 7.120 1.922,6.949 1.734,6.555 1.640 C 6.168 1.547,5.430 1.484,5.070 1.513 M8.290 2.745 C 8.200 2.777,8.068 2.873,8.011 2.947 C 7.935 3.046,7.898 3.174,7.897 3.335 C 7.896 3.533,7.934 3.602,8.201 3.891 C 8.725 4.458,9.040 4.967,9.248 5.583 C 9.476 6.257,9.531 6.954,9.418 7.730 C 9.367 8.079,9.365 8.203,9.407 8.332 C 9.524 8.685,9.973 8.831,10.274 8.615 C 10.446 8.491,10.513 8.343,10.581 7.930 C 10.817 6.494,10.479 4.970,9.665 3.803 C 9.362 3.368,8.883 2.857,8.697 2.770 C 8.580 2.716,8.402 2.705,8.290 2.745 M5.049 4.081 C 4.721 4.118,4.339 4.240,4.048 4.401 C 3.264 4.834,2.718 5.591,2.517 6.525 C 2.458 6.796,2.453 7.450,2.506 7.789 C 2.615 8.477,2.768 8.958,3.070 9.564 C 3.235 9.893,3.300 9.987,3.411 10.052 C 3.561 10.140,3.672 10.164,3.800 10.138 C 3.955 10.106,4.041 10.057,4.145 9.941 C 4.213 9.865,4.244 9.809,4.271 9.711 C 4.324 9.512,4.305 9.424,4.129 9.056 C 3.943 8.666,3.834 8.381,3.759 8.082 C 3.669 7.725,3.655 7.586,3.664 7.107 C 3.672 6.675,3.673 6.668,3.735 6.503 C 3.962 5.904,4.416 5.478,4.990 5.328 C 5.152 5.286,5.575 5.279,5.765 5.316 C 6.041 5.370,6.386 5.565,6.620 5.800 C 6.796 5.975,6.926 6.177,7.041 6.453 C 7.094 6.579,7.168 6.720,7.206 6.767 C 7.292 6.872,7.447 6.958,7.577 6.973 C 7.793 6.999,8.040 6.853,8.156 6.632 C 8.231 6.488,8.230 6.273,8.151 6.060 C 8.071 5.842,7.899 5.505,7.777 5.326 C 7.625 5.102,7.211 4.695,6.983 4.543 C 6.660 4.329,6.299 4.179,5.936 4.110 C 5.732 4.071,5.266 4.056,5.049 4.081 M5.236 6.487 C 5.184 6.502,5.126 6.526,5.106 6.541 C 4.929 6.675,4.840 6.824,4.826 7.010 C 4.819 7.104,4.832 7.190,4.888 7.405 C 5.178 8.525,5.899 9.505,6.965 10.227 C 7.342 10.483,7.495 10.533,7.705 10.472 C 7.785 10.449,7.848 10.411,7.926 10.340 C 8.072 10.207,8.127 10.081,8.126 9.879 C 8.125 9.607,8.060 9.521,7.646 9.236 C 6.777 8.638,6.330 8.057,6.030 7.132 C 5.961 6.918,5.895 6.751,5.860 6.703 C 5.797 6.616,5.697 6.533,5.620 6.504 C 5.527 6.469,5.333 6.460,5.236 6.487 " fill="#1A1C1F" stroke="none" fill-rule="evenodd"></path></svg>