<svg width="20" height="20" viewBox="0 0 20 20" fill="none" xmlns="http://www.w3.org/2000/svg"><path d="M8.450 2.522 C 6.997 2.640,5.742 3.042,4.517 3.782 C 3.693 4.280,2.541 5.321,2.329 5.758 C 2.229 5.965,2.227 6.351,2.325 6.573 C 2.488 6.940,2.831 7.171,3.215 7.171 C 3.525 7.171,3.650 7.100,4.121 6.658 C 4.868 5.957,5.104 5.769,5.641 5.454 C 6.517 4.940,7.452 4.651,8.522 4.565 C 9.166 4.513,9.562 4.546,10.691 4.749 C 10.951 4.796,10.977 4.795,11.188 4.730 C 11.366 4.675,11.445 4.626,11.583 4.488 C 11.788 4.283,11.867 4.084,11.867 3.767 C 11.867 3.207,11.578 2.890,10.930 2.734 C 10.280 2.578,9.051 2.473,8.450 2.522 M13.706 4.636 C 13.336 4.821,13.161 5.120,13.161 5.568 C 13.161 5.884,13.228 6.009,13.637 6.452 C 14.554 7.444,15.071 8.273,15.414 9.302 C 15.795 10.443,15.885 11.594,15.695 12.883 C 15.658 13.140,15.626 13.433,15.625 13.534 C 15.621 13.915,15.805 14.235,16.132 14.413 C 16.680 14.711,17.329 14.417,17.518 13.785 C 17.694 13.197,17.804 11.821,17.738 11.024 C 17.544 8.668,16.655 6.694,15.066 5.093 C 14.613 4.636,14.439 4.534,14.114 4.534 C 13.953 4.533,13.868 4.555,13.706 4.636 M8.417 6.801 C 6.602 7.009,4.969 8.391,4.368 10.228 C 4.173 10.826,4.130 11.136,4.130 11.922 C 4.131 12.312,4.148 12.763,4.168 12.924 C 4.306 14.040,4.849 15.608,5.385 16.439 C 5.748 17.001,6.447 17.071,6.892 16.588 C 7.089 16.375,7.143 16.232,7.147 15.917 L 7.150 15.650 6.887 15.100 C 6.566 14.428,6.391 13.969,6.265 13.471 C 6.115 12.875,6.092 12.644,6.107 11.845 C 6.121 11.125,6.122 11.114,6.226 10.839 C 6.603 9.840,7.360 9.131,8.317 8.880 C 8.587 8.809,9.292 8.798,9.608 8.860 C 10.062 8.949,10.650 9.281,11.034 9.666 C 11.327 9.959,11.544 10.296,11.735 10.755 C 11.919 11.195,12.057 11.381,12.295 11.511 C 12.525 11.636,12.742 11.658,12.988 11.581 C 13.143 11.533,13.225 11.479,13.385 11.319 C 13.806 10.897,13.798 10.490,13.348 9.546 C 13.108 9.042,12.829 8.657,12.369 8.198 C 11.641 7.470,10.892 7.055,9.964 6.866 C 9.575 6.787,8.819 6.755,8.417 6.801 M8.727 10.812 C 8.641 10.836,8.543 10.876,8.510 10.901 C 8.342 11.028,8.219 11.166,8.139 11.317 C 7.972 11.633,8.042 12.186,8.356 13.033 C 8.635 13.787,9.179 14.722,9.705 15.350 C 10.516 16.318,11.961 17.426,12.497 17.489 C 12.859 17.532,13.270 17.288,13.457 16.920 C 13.528 16.779,13.543 16.704,13.543 16.483 C 13.543 16.012,13.435 15.864,12.744 15.393 C 11.311 14.416,10.548 13.423,10.051 11.886 C 9.935 11.531,9.824 11.251,9.766 11.171 C 9.661 11.027,9.495 10.888,9.367 10.840 C 9.212 10.781,8.889 10.767,8.727 10.812 " fill="#1A1C1F" stroke="none" fill-rule="evenodd"></path></svg>