<svg xmlns="http://www.w3.org/2000/svg" width="16" height="16" fill="none"><g clip-path="url(#a)"><path fill="#1A1C1F" fill-rule="evenodd" d="M9.688 13.895C7.963 12.882 6.84 11.397 6.44 9.604c-.098-.438.163-.875.582-.977.42-.101.837.17.935.608.375 1.69 1.563 2.696 2.494 3.243.375.22.508.716.297 1.107a.77.77 0 0 1-.68.415.75.75 0 0 1-.381-.105m-4.729-.36a.77.77 0 0 1-.67-.398c-.596-1.046-.789-1.935-.797-1.973a6.8 6.8 0 0 1-.209-1.674c0-1.213.512-2.355 1.405-3.135a3.82 3.82 0 0 1 2.508-.952c1.705 0 3.202 1.14 3.726 2.835.132.428-.093.886-.503 1.024a.77.77 0 0 1-.98-.524C9.124 7.716 8.222 7.03 7.196 7.03c-.55 0-1.086.203-1.509.573a2.5 2.5 0 0 0-.846 1.887c0 .43.056.875.163 1.286.01.042.162.72.623 1.529.22.386.1.885-.27 1.114a.75.75 0 0 1-.398.115m8.126-1.921c-.419-.103-.679-.54-.58-.978.462-2.056-.199-4.2-1.725-5.596a.84.84 0 0 1-.072-1.148.756.756 0 0 1 1.099-.076c1.96 1.794 2.81 4.55 2.215 7.192a.79.79 0 0 1-.758.627.7.7 0 0 1-.18-.021M2.045 5.538a.84.84 0 0 1-.05-1.15c1.173-1.34 2.771-2.176 4.5-2.353a6.8 6.8 0 0 1 2.432.192c.416.111.668.554.562.99a.78.78 0 0 1-.947.586 5.2 5.2 0 0 0-1.895-.15 5.38 5.38 0 0 0-3.502 1.833.759.759 0 0 1-1.1.052" clip-rule="evenodd"/></g><defs><clipPath id="a"><path fill="#fff" d="M0 0h16v16H0z"/></clipPath></defs></svg>