<svg width="16" height="16" viewBox="0 0 16 16" fill="none" xmlns="http://www.w3.org/2000/svg"><path d="M6.760 2.018 C 5.601 2.112,4.596 2.434,3.613 3.026 C 2.956 3.422,2.033 4.256,1.863 4.607 C 1.783 4.772,1.782 5.081,1.860 5.258 C 1.935 5.426,2.085 5.584,2.247 5.665 C 2.425 5.754,2.701 5.760,2.867 5.680 C 2.928 5.650,3.124 5.489,3.302 5.321 C 3.786 4.866,3.984 4.702,4.288 4.504 C 5.058 4.002,5.890 3.724,6.834 3.651 C 7.295 3.616,7.732 3.645,8.280 3.748 C 8.471 3.784,8.659 3.819,8.700 3.826 C 8.740 3.833,8.853 3.814,8.950 3.784 C 9.093 3.740,9.156 3.701,9.266 3.591 C 9.431 3.426,9.493 3.267,9.493 3.013 C 9.493 2.562,9.266 2.313,8.740 2.186 C 8.224 2.063,7.239 1.979,6.760 2.018 M10.965 3.708 C 10.667 3.857,10.529 4.095,10.530 4.455 C 10.531 4.712,10.582 4.807,10.910 5.161 C 11.644 5.955,12.057 6.618,12.332 7.442 C 12.636 8.354,12.708 9.273,12.557 10.307 C 12.527 10.512,12.501 10.746,12.500 10.827 C 12.496 11.131,12.644 11.388,12.906 11.530 C 13.344 11.769,13.863 11.533,14.015 11.028 C 14.155 10.558,14.243 9.457,14.190 8.818 C 14.036 6.937,13.322 5.353,12.053 4.074 C 11.690 3.709,11.551 3.627,11.291 3.627 C 11.163 3.627,11.094 3.644,10.965 3.708 M6.734 5.441 C 5.279 5.607,3.972 6.715,3.494 8.187 C 3.321 8.721,3.300 8.893,3.315 9.693 C 3.327 10.368,3.333 10.438,3.409 10.800 C 3.549 11.462,3.842 12.291,4.137 12.853 C 4.338 13.239,4.423 13.342,4.619 13.438 C 4.943 13.598,5.268 13.537,5.513 13.271 C 5.671 13.100,5.714 12.986,5.717 12.733 L 5.720 12.520 5.510 12.080 C 5.253 11.543,5.113 11.176,5.012 10.776 C 4.892 10.300,4.874 10.115,4.886 9.476 C 4.897 8.900,4.898 8.891,4.981 8.671 C 5.283 7.872,5.887 7.305,6.653 7.104 C 6.899 7.039,7.476 7.039,7.747 7.104 C 8.148 7.200,8.663 7.522,8.936 7.847 C 9.143 8.095,9.250 8.274,9.390 8.608 C 9.537 8.959,9.645 9.104,9.844 9.214 C 9.966 9.282,10.014 9.293,10.173 9.291 C 10.413 9.289,10.569 9.216,10.742 9.027 C 11.041 8.700,11.025 8.365,10.678 7.637 C 10.486 7.233,10.263 6.926,9.895 6.558 C 9.313 5.976,8.714 5.644,7.971 5.493 C 7.660 5.430,7.055 5.404,6.734 5.441 M6.958 8.654 C 6.693 8.738,6.460 9.039,6.434 9.332 C 6.418 9.511,6.533 10.019,6.682 10.420 C 6.908 11.030,7.341 11.774,7.764 12.280 C 8.274 12.890,9.142 13.607,9.733 13.907 C 10.028 14.056,10.319 14.015,10.568 13.787 C 10.763 13.609,10.835 13.441,10.835 13.172 C 10.833 12.821,10.730 12.677,10.252 12.354 C 9.070 11.558,8.443 10.752,8.040 9.509 C 7.884 9.027,7.812 8.889,7.648 8.765 C 7.529 8.673,7.455 8.648,7.252 8.630 C 7.136 8.620,7.040 8.627,6.958 8.654 " fill="#1A1C1F" stroke="none" fill-rule="evenodd"></path></svg>