<svg xmlns="http://www.w3.org/2000/svg" width="32" height="32" fill="none"><path fill="#1A1C1F" fill-rule="evenodd" d="M15.413 2.486c-1.986.106-3.786.493-5.546 1.194-1.304.518-3.493 1.786-4.054 2.347-.317.317-.395.708-.219 1.095a.99.99 0 0 0 1.485.409c1.552-1.08 2.312-1.505 3.655-2.042 1.003-.402 2.308-.735 3.559-.91.778-.109 3.116-.094 3.92.025 2.326.344 4.358 1.118 6.232 2.376 1.169.784 1.228.81 1.627.702.439-.118.755-.52.755-.962 0-.476-.186-.687-1.203-1.366-2.347-1.569-4.931-2.507-7.677-2.788-.612-.062-2.023-.107-2.534-.08m-.16 4.024c-4.803.315-9.121 3.383-11.031 7.837-.731 1.706-1.045 3.267-1.042 5.173.002 1.24.041 1.501.272 1.806.424.56 1.356.466 1.662-.167.107-.222.112-.286.079-1.164-.04-1.059.025-1.873.226-2.834.765-3.654 3.45-6.732 7.008-8.032 1.997-.73 4.276-.846 6.405-.326.752.184.943.193 1.21.056.378-.194.545-.467.545-.891 0-.538-.297-.852-.981-1.037a15 15 0 0 0-2.513-.421c-.808-.061-.919-.061-1.84 0m7.245 2.284a.94.94 0 0 0-.453.925c.043.364.179.543.721.949.61.456 1.769 1.615 2.205 2.203.73.986 1.3 2.084 1.675 3.225.253.77.236 1.083-.076 1.417-.407.436-1.002.453-1.424.041-.142-.139-.227-.318-.399-.834-.584-1.75-1.614-3.226-3.014-4.318-2.745-2.14-6.379-2.528-9.493-1.013-2.535 1.234-4.328 3.551-4.903 6.337-.182.88-.035 1.322.517 1.552a1 1 0 0 0 .772 0c.392-.163.551-.417.654-1.038.396-2.397 2.226-4.542 4.587-5.374.81-.286 1.262-.357 2.293-.358.705-.001 1.044.022 1.387.096 1.358.291 2.471.879 3.465 1.831a7.1 7.1 0 0 1 1.887 3.063c.305.977.78 1.599 1.518 1.986 1.231.646 2.629.42 3.577-.578.443-.466.657-.886.785-1.537.117-.595.063-.993-.268-1.984-.641-1.918-1.588-3.476-3-4.933-.67-.691-1.593-1.472-1.999-1.692a.99.99 0 0 0-1.014.034m-7.19 5.737c-1.899.362-3.332 1.635-3.913 3.477-.266.846-.278 1.809-.033 2.838a13.65 13.65 0 0 0 2.986 5.845c.636.738 1.746 1.765 2.729 2.523.525.405.989.422 1.412.051a.92.92 0 0 0 .338-.732c0-.438-.061-.512-1.12-1.385-1.598-1.316-2.679-2.625-3.456-4.188-.552-1.108-.98-2.434-1.058-3.276-.13-1.398.836-2.756 2.223-3.125.392-.105 1.184-.101 1.548.007.49.145.912.393 1.284.753.446.43.68.864.898 1.666.214.784.428 1.294.76 1.804.877 1.346 1.962 2.081 3.791 2.568.745.199 1.163.469 1.67 1.082.346.419.499.533.802.598.374.08.908-.218 1.066-.594.095-.228.091-.56-.009-.8-.113-.27-.62-.876-.999-1.192-.639-.534-1.273-.845-2.227-1.092-.706-.183-1.117-.375-1.59-.745-.678-.531-1.077-1.187-1.345-2.214-.279-1.071-.711-1.83-1.446-2.539A5 5 0 0 0 17.4 14.61c-.553-.142-1.562-.18-2.092-.079m.452 4.023c-.292.135-.457.33-.533.628-.082.322-.009.728.291 1.624 1.067 3.193 3.615 5.52 6.97 6.365.424.107.636.102.901-.018.443-.201.683-.673.566-1.112-.134-.499-.357-.658-1.262-.901a7.65 7.65 0 0 1-5.422-5.458c-.088-.338-.198-.675-.245-.749a1.016 1.016 0 0 0-1.266-.379m-7.484 2.632c-.485.102-.821.661-.706 1.174.149.665.691 1.995 1.135 2.787.709 1.265 1.049 1.658 1.517 1.757.393.083.958-.253 1.088-.647.123-.373.045-.654-.347-1.254-.471-.718-1.096-2-1.335-2.734-.222-.681-.281-.785-.549-.956-.239-.153-.492-.193-.803-.127"/></svg>