<svg width="14" height="14" viewBox="0 0 14 14" fill="none" xmlns="http://www.w3.org/2000/svg"><path d="M5.763 1.776 C 4.472 1.890,3.182 2.471,2.216 3.373 C 1.684 3.870,1.577 4.028,1.579 4.317 C 1.581 4.525,1.630 4.658,1.761 4.802 C 1.891 4.946,2.051 5.017,2.249 5.017 C 2.477 5.017,2.552 4.973,2.918 4.628 C 3.333 4.237,3.465 4.129,3.757 3.938 C 4.421 3.504,5.150 3.260,5.980 3.194 C 6.382 3.162,6.754 3.187,7.245 3.280 C 7.412 3.311,7.577 3.342,7.612 3.348 C 7.647 3.354,7.746 3.337,7.832 3.311 C 7.956 3.272,8.011 3.238,8.108 3.142 C 8.252 2.998,8.307 2.859,8.307 2.637 C 8.307 2.353,8.192 2.149,7.963 2.024 C 7.750 1.908,7.256 1.818,6.592 1.774 C 6.197 1.748,6.079 1.748,5.763 1.776 M9.594 3.245 C 9.335 3.374,9.213 3.584,9.213 3.897 C 9.213 4.119,9.260 4.207,9.546 4.516 C 10.188 5.211,10.550 5.791,10.790 6.512 C 11.056 7.310,11.119 8.116,10.987 9.018 C 10.960 9.198,10.938 9.403,10.937 9.474 C 10.934 9.741,11.064 9.964,11.292 10.089 C 11.676 10.298,12.131 10.092,12.263 9.649 C 12.387 9.236,12.463 8.279,12.417 7.719 C 12.281 6.071,11.662 4.695,10.548 3.566 C 10.232 3.246,10.109 3.174,9.880 3.174 C 9.767 3.173,9.707 3.188,9.594 3.245 M5.892 4.761 C 4.318 4.941,3.003 6.358,2.894 7.991 C 2.864 8.441,2.900 9.025,2.985 9.444 C 3.100 10.015,3.357 10.744,3.620 11.247 C 3.796 11.584,3.870 11.674,4.042 11.759 C 4.325 11.898,4.610 11.845,4.824 11.612 C 4.962 11.462,5.000 11.363,5.003 11.142 L 5.005 10.955 4.821 10.570 C 4.599 10.106,4.476 9.785,4.387 9.440 C 4.282 9.030,4.264 8.853,4.275 8.292 C 4.285 7.787,4.285 7.780,4.358 7.586 C 4.625 6.880,5.140 6.401,5.836 6.214 C 6.037 6.160,6.549 6.161,6.778 6.216 C 7.130 6.300,7.587 6.586,7.822 6.869 C 8.001 7.083,8.094 7.241,8.216 7.532 C 8.344 7.837,8.440 7.967,8.606 8.058 C 8.767 8.145,8.919 8.160,9.092 8.107 C 9.200 8.073,9.258 8.035,9.370 7.923 C 9.665 7.628,9.659 7.343,9.344 6.682 C 9.175 6.329,8.980 6.060,8.658 5.738 C 8.149 5.229,7.624 4.939,6.975 4.806 C 6.703 4.751,6.174 4.729,5.892 4.761 M6.081 7.574 C 5.999 7.600,5.927 7.649,5.832 7.744 C 5.589 7.988,5.569 8.203,5.736 8.773 C 6.094 9.994,6.888 11.065,8.025 11.863 C 8.529 12.216,8.734 12.292,8.988 12.218 C 9.150 12.171,9.335 12.011,9.419 11.846 C 9.468 11.749,9.478 11.696,9.478 11.539 C 9.478 11.217,9.399 11.100,8.995 10.827 C 7.929 10.107,7.391 9.418,7.035 8.321 C 6.899 7.898,6.835 7.778,6.692 7.669 C 6.588 7.589,6.523 7.567,6.346 7.551 C 6.241 7.542,6.160 7.549,6.081 7.574 " fill="#1A1C1F" stroke="none" fill-rule="evenodd"></path></svg>