<svg xmlns="http://www.w3.org/2000/svg" width="24" height="24" fill="none"><g clip-path="url(#a)"><path fill="#1A1C1F" fill-rule="evenodd" d="M17.585 7.632a9.82 9.82 0 0 1 4.151 6.77 3.07 3.07 0 0 1-.606 2.285 3.06 3.06 0 0 1-2.045 1.186 3.095 3.095 0 0 1-3.47-2.648 3.633 3.633 0 0 0-7.107-.477c-.382 1.4.16 3.627 2.231 5.45a1.03 1.03 0 0 1-1.357 1.545c-2.926-2.573-3.368-5.668-2.857-7.537a5.65 5.65 0 0 1 2.668-3.443 5.7 5.7 0 0 1 4.32-.547 5.68 5.68 0 0 1 4.144 4.735c.074.555.625.957 1.148.883a1.026 1.026 0 0 0 .892-1.157 7.76 7.76 0 0 0-3.279-5.35 1.03 1.03 0 0 1 1.167-1.695m-4.56 7.523a5.73 5.73 0 0 0 3.583 4.197 1.029 1.029 0 1 1-.72 1.928 7.8 7.8 0 0 1-4.88-5.716 1.028 1.028 0 1 1 2.017-.41m.221-9.177c.563.072.962.588.89 1.151-.073.563-.585.97-1.151.889a7.76 7.76 0 0 0-4.815.96 7.7 7.7 0 0 0-3.632 4.687 8 8 0 0 0-.249 1.396 1.03 1.03 0 0 1-1.112.935 1.03 1.03 0 0 1-.937-1.112c.05-.593.156-1.185.313-1.761A9.75 9.75 0 0 1 7.15 7.19a9.8 9.8 0 0 1 6.096-1.212m-7.393-.264a1.029 1.029 0 0 1-.507-1.926 14 14 0 0 1 10.498-1.303c1.111.304 2.18.742 3.175 1.302a1.029 1.029 0 0 1-1.009 1.794 12 12 0 0 0-2.707-1.11 11.94 11.94 0 0 0-8.947 1.11 1.03 1.03 0 0 1-.503.133" clip-rule="evenodd"/></g><defs><clipPath id="a"><path fill="#fff" d="M0 0h24v24H0z"/></clipPath></defs></svg>