<svg xmlns="http://www.w3.org/2000/svg" width="14" height="14" fill="none"><g clip-path="url(#a)"><path fill="#1A1C1F" fill-rule="evenodd" d="M8.477 12.158c-1.51-.886-2.492-2.185-2.842-3.755-.085-.382.143-.765.51-.854a.68.68 0 0 1 .818.532c.329 1.478 1.368 2.359 2.183 2.837a.73.73 0 0 1 .26.97.68.68 0 0 1-.595.362.66.66 0 0 1-.334-.092m-4.137-.315a.68.68 0 0 1-.586-.348c-.523-.916-.691-1.693-.699-1.726a6 6 0 0 1-.182-1.465c0-1.061.448-2.061 1.229-2.743a3.34 3.34 0 0 1 2.194-.833c1.492 0 2.802.997 3.26 2.48a.72.72 0 0 1-.439.896.675.675 0 0 1-.858-.458C7.983 6.752 7.195 6.15 6.296 6.15c-.48 0-.95.178-1.32.502a2.19 2.19 0 0 0-.74 1.651c0 .376.049.765.142 1.125.009.036.142.63.546 1.338a.73.73 0 0 1-.237.975c-.109.068-.229.1-.347.1m7.11-1.68c-.367-.09-.595-.474-.508-.857.405-1.798-.174-3.675-1.51-4.896a.734.734 0 0 1-.063-1.004.66.66 0 0 1 .962-.067c1.716 1.57 2.458 3.98 1.938 6.293a.69.69 0 0 1-.663.549.6.6 0 0 1-.157-.019M1.79 4.845a.735.735 0 0 1-.044-1.006 6.05 6.05 0 0 1 3.937-2.06 6 6 0 0 1 2.128.169c.364.097.585.484.492.865a.68.68 0 0 1-.829.514 4.6 4.6 0 0 0-1.658-.13A4.7 4.7 0 0 0 2.752 4.8a.664.664 0 0 1-.962.046" clip-rule="evenodd"/></g><defs><clipPath id="a"><path fill="#fff" d="M0 0h14v14H0z"/></clipPath></defs></svg>