<svg xmlns="http://www.w3.org/2000/svg" width="20" height="20" fill="none"><g clip-path="url(#a)"><path fill="#1A1C1F" fill-rule="evenodd" d="M12.11 17.37c-2.156-1.268-3.56-3.123-4.06-5.366-.121-.546.204-1.093.728-1.22.525-.127 1.047.213 1.169.76.47 2.112 1.955 3.37 3.118 4.053.469.276.635.895.371 1.385a.97.97 0 0 1-.85.518.93.93 0 0 1-.476-.13m-5.91-.452a.97.97 0 0 1-.838-.496c-.746-1.309-.987-2.42-.997-2.467a8.5 8.5 0 0 1-.261-2.093c0-1.515.64-2.944 1.756-3.918a4.77 4.77 0 0 1 3.135-1.19c2.131 0 4.003 1.424 4.657 3.544.165.534-.116 1.107-.628 1.28-.513.172-1.06-.121-1.225-.656-.394-1.277-1.521-2.134-2.804-2.134-.688 0-1.357.254-1.886.716a3.12 3.12 0 0 0-1.058 2.359c0 .537.07 1.093.204 1.607.012.052.202.9.779 1.911.275.482.124 1.106-.338 1.393a.94.94 0 0 1-.497.144m10.156-2.4c-.523-.129-.848-.676-.725-1.223.578-2.57-.248-5.25-2.156-6.995a1.05 1.05 0 0 1-.09-1.435.945.945 0 0 1 1.373-.095c2.451 2.242 3.512 5.687 2.769 8.99a.98.98 0 0 1-.947.784 1 1 0 0 1-.224-.027m-13.8-7.595a1.05 1.05 0 0 1-.062-1.437C3.96 3.81 5.958 2.766 8.12 2.544a8.5 8.5 0 0 1 3.04.24c.52.139.835.692.702 1.236s-.661.87-1.184.734a6.5 6.5 0 0 0-2.368-.187c-1.682.172-3.236.985-4.378 2.29a.948.948 0 0 1-1.375.065" clip-rule="evenodd"/></g><defs><clipPath id="a"><path fill="#fff" d="M0 0h20v20H0z"/></clipPath></defs></svg>