<svg width="24" height="24" viewBox="0 0 24 24" fill="none" xmlns="http://www.w3.org/2000/svg"><path d="M10.980 2.064 C 10.936 2.071,10.657 2.106,10.360 2.141 C 8.850 2.323,7.309 2.796,5.919 3.504 C 5.599 3.667,5.268 3.858,5.184 3.927 C 4.881 4.177,4.751 4.697,4.901 5.056 C 4.981 5.248,5.219 5.508,5.397 5.598 C 5.763 5.782,6.058 5.732,6.795 5.363 C 8.047 4.735,9.159 4.388,10.601 4.174 C 11.160 4.091,13.083 4.079,13.680 4.155 C 14.996 4.322,16.170 4.684,17.600 5.363 C 18.351 5.721,18.503 5.759,18.793 5.662 C 19.098 5.561,19.296 5.397,19.420 5.143 C 19.620 4.734,19.540 4.259,19.220 3.965 C 19.024 3.784,18.175 3.344,17.437 3.040 C 16.223 2.541,14.838 2.197,13.580 2.081 C 13.188 2.044,11.183 2.031,10.980 2.064 M11.020 5.962 C 10.143 6.031,8.924 6.364,7.953 6.801 C 5.285 8.002,3.288 10.367,2.540 13.214 C 2.364 13.881,2.227 14.751,2.252 15.043 C 2.322 15.860,3.246 16.273,3.895 15.778 C 4.150 15.583,4.227 15.387,4.360 14.593 C 4.529 13.583,4.707 13.022,5.115 12.210 C 6.100 10.253,7.901 8.793,10.019 8.237 C 10.821 8.026,11.194 7.987,12.337 7.994 C 13.314 8.000,13.383 7.996,13.546 7.917 C 13.907 7.743,14.205 7.232,14.142 6.897 C 14.069 6.509,13.873 6.249,13.532 6.092 C 13.195 5.936,12.089 5.879,11.020 5.962 M16.580 7.552 C 16.398 7.639,16.182 7.844,16.091 8.020 C 16.006 8.181,15.977 8.630,16.039 8.818 C 16.103 9.012,16.271 9.199,16.640 9.490 C 17.981 10.546,18.855 11.776,19.361 13.320 C 19.709 14.381,19.760 14.985,19.533 15.352 C 19.225 15.850,18.591 15.978,18.101 15.641 C 17.846 15.465,17.739 15.254,17.604 14.657 C 17.453 13.991,17.359 13.719,17.099 13.193 C 16.742 12.473,16.359 11.972,15.772 11.459 C 14.617 10.449,13.329 9.996,11.780 10.053 C 10.445 10.103,9.318 10.545,8.280 11.425 C 7.632 11.974,7.074 12.754,6.744 13.573 C 5.897 15.675,6.447 18.331,8.175 20.480 C 8.590 20.996,9.406 21.789,9.625 21.889 C 9.872 22.001,10.274 22.008,10.480 21.903 C 10.858 21.710,11.056 21.393,11.058 20.980 C 11.061 20.598,10.997 20.487,10.444 19.907 C 9.840 19.274,9.658 19.055,9.381 18.629 C 8.564 17.369,8.226 15.899,8.503 14.800 C 8.598 14.423,8.915 13.780,9.154 13.480 C 9.638 12.873,10.403 12.375,11.146 12.183 C 11.478 12.098,12.517 12.097,12.879 12.182 C 13.207 12.260,13.816 12.547,14.134 12.775 C 14.414 12.975,14.804 13.372,14.991 13.646 C 15.264 14.045,15.407 14.403,15.588 15.136 C 15.792 15.960,15.936 16.299,16.260 16.713 C 16.664 17.229,17.339 17.665,17.977 17.820 C 18.367 17.915,19.010 17.907,19.415 17.802 C 20.519 17.516,21.356 16.683,21.664 15.560 C 21.770 15.178,21.762 14.385,21.648 13.856 C 21.300 12.239,20.662 10.855,19.705 9.640 C 19.165 8.955,18.060 7.923,17.537 7.616 C 17.286 7.469,16.823 7.438,16.580 7.552 M11.617 14.417 C 11.269 14.568,11.001 14.972,11.000 15.346 C 11.000 15.784,11.371 16.897,11.764 17.635 C 12.578 19.161,13.928 20.424,15.463 21.096 C 16.031 21.344,16.222 21.383,16.490 21.305 C 16.783 21.219,16.999 21.053,17.130 20.811 C 17.277 20.542,17.305 20.308,17.226 20.036 C 17.121 19.677,16.984 19.553,16.346 19.241 C 15.450 18.803,14.834 18.347,14.322 17.741 C 13.677 16.979,13.387 16.409,13.025 15.200 C 12.904 14.796,12.763 14.609,12.472 14.464 C 12.235 14.345,11.832 14.323,11.617 14.417 " fill="#1A1C1F" stroke="none" fill-rule="evenodd"></path></svg>