<svg width="14" height="14" viewBox="0 0 14 14" fill="none" xmlns="http://www.w3.org/2000/svg"><path d="M4.480 2.823 L 3.045 2.835 2.842 2.907 C 2.415 3.060,2.029 3.353,1.780 3.715 C 1.624 3.941,1.575 4.043,1.480 4.332 L 1.400 4.576 1.401 7.007 L 1.402 9.438 1.489 9.696 C 1.608 10.047,1.745 10.280,1.980 10.527 C 2.281 10.844,2.572 11.018,3.005 11.140 L 3.217 11.200 7.000 11.200 L 10.783 11.200 10.995 11.140 C 11.428 11.018,11.719 10.844,12.020 10.527 C 12.248 10.287,12.386 10.057,12.505 9.722 L 12.588 9.485 12.588 7.000 L 12.588 4.515 12.505 4.278 C 12.387 3.944,12.248 3.713,12.021 3.474 C 11.743 3.180,11.420 2.982,11.040 2.872 C 10.892 2.829,10.772 2.827,8.400 2.820 C 7.033 2.815,5.269 2.817,4.480 2.823 M10.720 4.241 C 10.866 4.292,11.061 4.469,11.133 4.614 L 11.188 4.725 11.188 7.000 L 11.188 9.275 11.135 9.382 C 11.066 9.520,10.919 9.668,10.783 9.735 L 10.675 9.788 7.000 9.788 L 3.325 9.788 3.215 9.734 C 3.076 9.666,2.937 9.526,2.867 9.386 L 2.812 9.275 2.812 7.012 C 2.812 5.104,2.817 4.735,2.845 4.667 C 2.901 4.529,3.004 4.402,3.130 4.317 C 3.244 4.239,3.261 4.234,3.509 4.222 C 3.652 4.214,5.307 4.206,7.187 4.204 C 10.393 4.200,10.612 4.202,10.720 4.241 M5.201 4.861 C 4.926 4.922,4.642 5.162,4.548 5.413 C 4.513 5.505,4.498 5.602,4.496 5.753 C 4.493 5.948,4.499 5.978,4.568 6.117 C 4.659 6.303,4.848 6.489,5.034 6.575 C 5.149 6.628,5.200 6.637,5.391 6.637 C 5.598 6.638,5.625 6.632,5.775 6.559 C 5.973 6.461,6.112 6.322,6.211 6.120 C 6.280 5.980,6.286 5.947,6.284 5.762 C 6.282 5.523,6.239 5.377,6.124 5.221 C 5.915 4.936,5.533 4.787,5.201 4.861 M7.350 5.950 L 7.350 6.650 8.575 6.650 L 9.800 6.650 9.800 5.950 L 9.800 5.250 8.575 5.250 L 7.350 5.250 7.350 5.950 M4.200 7.875 L 4.200 8.750 5.425 8.750 L 6.650 8.750 6.650 7.875 L 6.650 7.000 5.425 7.000 L 4.200 7.000 4.200 7.875 M7.350 8.050 L 7.350 8.750 8.575 8.750 L 9.800 8.750 9.800 8.050 L 9.800 7.350 8.575 7.350 L 7.350 7.350 7.350 8.050 " fill="#1A1C1F" stroke="none" fill-rule="evenodd"></path></svg>