<svg width="12" height="12" viewBox="0 0 12 12" fill="none" xmlns="http://www.w3.org/2000/svg"><path d="M3.700 2.419 L 2.610 2.430 2.436 2.492 C 2.189 2.580,1.978 2.707,1.797 2.877 C 1.515 3.141,1.357 3.402,1.252 3.774 L 1.200 3.958 1.200 6.000 L 1.200 8.042 1.251 8.224 C 1.352 8.584,1.500 8.836,1.753 9.082 C 2.000 9.322,2.228 9.451,2.576 9.549 L 2.758 9.600 6.000 9.600 L 9.242 9.600 9.424 9.549 C 9.795 9.444,10.045 9.295,10.303 9.024 C 10.504 8.811,10.622 8.612,10.724 8.311 L 10.799 8.090 10.799 6.000 L 10.799 3.910 10.724 3.689 C 10.622 3.389,10.504 3.189,10.304 2.978 C 10.125 2.789,9.907 2.635,9.684 2.541 C 9.393 2.417,9.536 2.424,7.060 2.415 C 5.811 2.411,4.300 2.413,3.700 2.419 M9.189 3.635 C 9.313 3.679,9.481 3.831,9.543 3.955 L 9.590 4.050 9.590 6.000 L 9.590 7.950 9.544 8.042 C 9.485 8.160,9.359 8.287,9.242 8.344 L 9.150 8.390 6.000 8.390 L 2.850 8.390 2.756 8.344 C 2.636 8.285,2.517 8.166,2.457 8.045 L 2.410 7.950 2.410 6.010 C 2.410 4.375,2.414 4.059,2.439 4.000 C 2.487 3.882,2.575 3.773,2.683 3.700 C 2.781 3.633,2.795 3.629,3.008 3.618 C 3.130 3.612,4.548 3.605,6.160 3.603 C 8.908 3.600,9.096 3.602,9.189 3.635 M4.446 4.168 C 4.232 4.222,4.013 4.398,3.919 4.592 C 3.862 4.709,3.834 4.939,3.860 5.077 C 3.901 5.300,4.090 5.531,4.315 5.635 C 4.413 5.681,4.458 5.689,4.620 5.689 C 4.797 5.690,4.821 5.685,4.949 5.622 C 5.120 5.538,5.238 5.419,5.324 5.246 C 5.383 5.126,5.388 5.098,5.387 4.939 C 5.384 4.734,5.347 4.609,5.249 4.475 C 5.069 4.229,4.725 4.097,4.446 4.168 M6.300 5.100 L 6.300 5.700 7.350 5.700 L 8.400 5.700 8.400 5.100 L 8.400 4.500 7.350 4.500 L 6.300 4.500 6.300 5.100 M3.600 6.750 L 3.600 7.500 4.650 7.500 L 5.700 7.500 5.700 6.750 L 5.700 6.000 4.650 6.000 L 3.600 6.000 3.600 6.750 M6.300 6.900 L 6.300 7.500 7.350 7.500 L 8.400 7.500 8.400 6.900 L 8.400 6.300 7.350 6.300 L 6.300 6.300 6.300 6.900 " fill="#1A1C1F" stroke="none" fill-rule="evenodd"></path></svg>