<svg width="16" height="16" viewBox="0 0 16 16" fill="none" xmlns="http://www.w3.org/2000/svg"><path d="M5.053 3.227 L 3.480 3.240 3.248 3.323 C 2.919 3.440,2.637 3.610,2.396 3.836 C 2.021 4.188,1.809 4.536,1.669 5.032 L 1.600 5.277 1.600 8.000 L 1.600 10.723 1.669 10.968 C 1.800 11.430,1.990 11.762,2.313 12.089 C 2.623 12.403,2.959 12.595,3.432 12.730 L 3.677 12.800 8.005 12.799 L 12.333 12.799 12.547 12.736 C 13.091 12.575,13.332 12.435,13.693 12.069 C 14.008 11.752,14.151 11.519,14.298 11.081 L 14.398 10.787 14.398 8.000 L 14.398 5.213 14.298 4.919 C 14.163 4.518,14.006 4.252,13.738 3.970 C 13.420 3.634,13.050 3.408,12.618 3.283 C 12.448 3.234,12.304 3.231,9.533 3.223 C 7.935 3.218,5.919 3.219,5.053 3.227 M12.326 4.876 C 12.487 4.956,12.644 5.113,12.724 5.274 L 12.787 5.400 12.787 8.000 L 12.787 10.600 12.724 10.726 C 12.644 10.887,12.485 11.046,12.325 11.125 L 12.200 11.187 8.000 11.187 L 3.800 11.187 3.675 11.125 C 3.515 11.046,3.356 10.887,3.276 10.726 L 3.213 10.600 3.213 8.013 C 3.213 5.833,3.219 5.412,3.251 5.333 C 3.316 5.176,3.433 5.031,3.577 4.933 C 3.709 4.843,3.725 4.839,4.024 4.825 C 4.194 4.816,6.103 4.810,8.267 4.811 L 12.200 4.813 12.326 4.876 M5.944 5.556 C 5.654 5.620,5.354 5.857,5.225 6.123 C 5.150 6.279,5.112 6.586,5.146 6.769 C 5.201 7.066,5.453 7.375,5.753 7.514 C 5.884 7.574,5.943 7.585,6.161 7.586 C 6.396 7.587,6.427 7.580,6.599 7.496 C 6.826 7.384,6.985 7.225,7.098 6.994 C 7.177 6.835,7.184 6.797,7.182 6.586 C 7.179 6.312,7.130 6.145,6.999 5.967 C 6.760 5.641,6.324 5.471,5.944 5.556 M8.400 6.800 L 8.400 7.600 9.800 7.600 L 11.200 7.600 11.200 6.800 L 11.200 6.000 9.800 6.000 L 8.400 6.000 8.400 6.800 M4.800 9.000 L 4.800 10.000 6.200 10.000 L 7.600 10.000 7.600 9.000 L 7.600 8.000 6.200 8.000 L 4.800 8.000 4.800 9.000 M8.400 9.200 L 8.400 10.000 9.800 10.000 L 11.200 10.000 11.200 9.200 L 11.200 8.400 9.800 8.400 L 8.400 8.400 8.400 9.200 " fill="#1A1C1F" stroke="none" fill-rule="evenodd"></path></svg>