<svg width="32" height="32" viewBox="0 0 32 32" fill="none" xmlns="http://www.w3.org/2000/svg"><path d="M5.867 6.078 L 4.133 6.107 3.711 6.313 C 3.127 6.598,2.595 7.131,2.317 7.710 C 2.124 8.110,2.112 8.166,2.074 8.852 C 2.021 9.792,2.021 22.208,2.074 23.148 C 2.112 23.834,2.124 23.890,2.317 24.290 C 2.595 24.868,3.129 25.404,3.701 25.679 C 4.044 25.844,4.199 25.885,4.630 25.923 C 5.305 25.984,26.695 25.984,27.370 25.923 C 27.801 25.885,27.956 25.844,28.299 25.679 C 28.871 25.404,29.405 24.868,29.683 24.290 C 29.876 23.890,29.888 23.834,29.926 23.148 C 29.979 22.224,29.979 9.931,29.927 8.907 C 29.888 8.156,29.881 8.121,29.683 7.710 C 29.409 7.139,28.882 6.614,28.289 6.318 L 27.867 6.107 26.133 6.072 C 24.079 6.032,8.360 6.036,5.867 6.078 M27.466 8.136 C 27.568 8.196,27.724 8.348,27.813 8.474 L 27.973 8.703 27.973 16.000 L 27.973 23.297 27.813 23.526 C 27.724 23.652,27.568 23.804,27.466 23.864 C 27.280 23.973,27.272 23.973,16.053 23.973 C 9.879 23.973,4.763 23.955,4.684 23.933 C 4.494 23.880,4.230 23.653,4.120 23.447 C 4.037 23.294,4.028 22.792,4.009 17.467 C 3.998 14.269,4.006 10.975,4.027 10.145 C 4.063 8.728,4.072 8.628,4.179 8.470 C 4.242 8.378,4.361 8.253,4.444 8.192 C 4.586 8.086,4.681 8.078,6.177 8.049 C 7.048 8.032,12.152 8.020,17.520 8.022 C 27.252 8.027,27.281 8.027,27.466 8.136 M9.873 12.003 C 9.473 12.075,8.986 12.346,8.637 12.692 C 7.426 13.894,7.766 15.904,9.310 16.672 C 10.045 17.038,10.770 17.035,11.511 16.664 C 12.886 15.974,13.326 14.192,12.421 12.977 C 12.180 12.653,11.635 12.247,11.239 12.096 C 10.914 11.972,10.289 11.929,9.873 12.003 M17.973 15.940 C 17.554 15.980,17.335 16.119,17.178 16.444 C 16.958 16.897,17.093 17.422,17.499 17.690 L 17.725 17.840 21.276 17.857 C 23.229 17.866,24.976 17.858,25.158 17.839 C 25.752 17.778,26.054 17.453,26.051 16.880 C 26.048 16.483,25.937 16.262,25.642 16.066 L 25.421 15.920 21.871 15.913 C 19.918 15.910,18.164 15.922,17.973 15.940 M7.920 18.239 C 7.428 18.268,7.288 18.297,7.052 18.419 C 6.693 18.603,6.411 18.894,6.192 19.304 L 6.020 19.627 6.037 20.645 L 6.053 21.663 6.198 21.787 C 6.291 21.867,6.444 21.924,6.625 21.946 C 6.780 21.965,8.575 21.973,10.613 21.963 C 13.410 21.950,14.357 21.930,14.469 21.880 C 14.738 21.761,14.787 21.532,14.765 20.508 C 14.746 19.651,14.737 19.583,14.602 19.306 C 14.417 18.929,14.087 18.597,13.715 18.415 C 13.474 18.297,13.313 18.264,12.830 18.233 C 12.117 18.186,8.738 18.190,7.920 18.239 M19.161 19.141 C 18.978 19.229,18.494 19.495,18.084 19.733 C 17.271 20.204,17.127 20.353,17.080 20.771 C 17.031 21.203,17.245 21.594,17.622 21.766 C 18.012 21.942,18.191 21.906,19.025 21.481 C 19.757 21.109,19.789 21.098,19.958 21.165 C 21.050 21.603,21.254 21.665,21.512 21.634 C 21.655 21.617,22.146 21.503,22.602 21.381 L 23.432 21.158 24.276 21.361 C 25.229 21.589,25.383 21.581,25.728 21.277 C 26.055 20.990,26.143 20.676,26.015 20.250 C 25.915 19.914,25.686 19.727,25.171 19.562 C 24.597 19.377,23.644 19.147,23.454 19.147 C 23.374 19.147,22.889 19.253,22.375 19.384 L 21.442 19.621 20.738 19.326 C 19.840 18.949,19.613 18.922,19.161 19.141 " fill="#1A1C1F" stroke="none" fill-rule="evenodd"></path></svg>