<svg width="20" height="20" viewBox="0 0 20 20" fill="none" xmlns="http://www.w3.org/2000/svg"><path d="M6.250 4.032 L 4.350 4.051 4.060 4.154 C 3.451 4.371,2.899 4.790,2.543 5.307 C 2.320 5.630,2.249 5.776,2.114 6.189 L 2.000 6.537 2.001 10.010 L 2.002 13.483 2.127 13.852 C 2.296 14.353,2.493 14.685,2.829 15.039 C 3.258 15.492,3.662 15.733,4.290 15.913 L 4.596 16.000 10.000 16.000 L 15.404 16.000 15.710 15.913 C 16.338 15.733,16.742 15.492,17.171 15.039 C 17.507 14.685,17.704 14.353,17.873 13.852 L 17.998 13.483 17.998 10.000 L 17.998 6.517 17.873 6.148 C 17.704 5.648,17.507 5.315,17.173 4.963 C 16.874 4.648,16.512 4.392,16.140 4.234 C 15.657 4.029,15.884 4.040,11.850 4.027 C 9.815 4.020,7.295 4.022,6.250 4.032 M15.408 6.095 C 15.609 6.195,15.805 6.391,15.905 6.592 L 15.983 6.750 15.983 10.000 L 15.983 13.250 15.905 13.408 C 15.805 13.609,15.606 13.808,15.406 13.906 L 15.250 13.983 10.000 13.983 L 4.750 13.983 4.594 13.906 C 4.394 13.808,4.195 13.609,4.095 13.408 L 4.017 13.250 4.017 10.017 C 4.017 7.292,4.024 6.765,4.064 6.667 C 4.145 6.470,4.292 6.289,4.471 6.167 C 4.636 6.054,4.656 6.049,5.029 6.031 C 5.242 6.020,7.629 6.013,10.333 6.014 L 15.250 6.017 15.408 6.095 M7.430 6.944 C 7.067 7.025,6.693 7.321,6.532 7.653 C 6.437 7.848,6.390 8.232,6.433 8.461 C 6.501 8.832,6.816 9.218,7.192 9.392 C 7.356 9.469,7.428 9.481,7.701 9.482 C 7.997 9.483,8.036 9.474,8.249 9.369 C 8.533 9.230,8.731 9.031,8.873 8.743 C 8.971 8.543,8.981 8.496,8.978 8.232 C 8.974 7.889,8.912 7.681,8.749 7.459 C 8.450 7.051,7.905 6.839,7.430 6.944 M10.500 8.500 L 10.500 9.500 12.250 9.500 L 14.000 9.500 14.000 8.500 L 14.000 7.500 12.250 7.500 L 10.500 7.500 10.500 8.500 M6.000 11.250 L 6.000 12.500 7.750 12.500 L 9.500 12.500 9.500 11.250 L 9.500 10.000 7.750 10.000 L 6.000 10.000 6.000 11.250 M10.500 11.500 L 10.500 12.500 12.250 12.500 L 14.000 12.500 14.000 11.500 L 14.000 10.500 12.250 10.500 L 10.500 10.500 10.500 11.500 " fill="#1A1C1F" stroke="none" fill-rule="evenodd"></path></svg>