<svg width="24" height="24" viewBox="0 0 24 24" fill="none" xmlns="http://www.w3.org/2000/svg"><path d="M5.340 4.557 C 4.119 4.587,4.129 4.585,3.607 4.859 C 2.896 5.233,2.405 5.830,2.132 6.652 L 2.000 7.051 2.000 11.997 L 2.000 16.943 2.122 17.322 C 2.190 17.530,2.300 17.799,2.368 17.920 C 2.747 18.598,3.411 19.140,4.160 19.382 C 4.366 19.449,4.813 19.454,11.430 19.470 C 16.151 19.482,18.697 19.473,19.137 19.445 C 19.862 19.398,20.021 19.355,20.476 19.085 C 21.192 18.660,21.590 18.163,21.862 17.353 L 22.000 16.944 22.000 12.001 L 22.000 7.057 21.878 6.678 C 21.669 6.033,21.343 5.548,20.866 5.174 C 20.539 4.918,20.018 4.654,19.740 4.603 C 19.497 4.558,6.940 4.518,5.340 4.557 M19.212 6.545 C 19.453 6.574,19.693 6.749,19.859 7.018 L 19.980 7.214 19.992 11.917 C 20.000 15.093,19.990 16.667,19.962 16.764 C 19.906 16.958,19.677 17.251,19.491 17.366 C 19.340 17.460,19.335 17.460,17.620 17.486 C 16.674 17.500,14.145 17.512,12.000 17.512 C 9.855 17.512,7.326 17.500,6.380 17.486 C 4.675 17.460,4.659 17.459,4.512 17.368 C 4.430 17.317,4.308 17.206,4.241 17.121 C 3.984 16.797,4.000 17.138,4.001 11.991 C 4.002 7.538,4.005 7.292,4.075 7.140 C 4.177 6.915,4.342 6.731,4.535 6.628 C 4.692 6.544,4.760 6.539,6.000 6.516 C 7.556 6.488,18.938 6.513,19.212 6.545 M8.550 8.598 C 7.688 8.873,7.180 9.735,7.365 10.608 C 7.553 11.494,8.433 12.108,9.317 11.971 C 9.470 11.948,9.696 11.882,9.821 11.825 C 10.122 11.687,10.473 11.324,10.646 10.974 C 10.774 10.715,10.780 10.681,10.779 10.261 C 10.778 9.894,10.763 9.781,10.685 9.587 C 10.572 9.304,10.209 8.901,9.930 8.749 C 9.509 8.520,8.976 8.462,8.550 8.598 M13.898 10.555 C 13.606 10.606,13.334 10.821,13.222 11.089 C 13.136 11.296,13.143 11.738,13.235 11.942 C 13.328 12.146,13.608 12.389,13.797 12.429 C 13.988 12.470,17.138 12.469,17.332 12.428 C 17.529 12.386,17.791 12.150,17.891 11.923 C 17.996 11.687,17.996 11.313,17.892 11.077 C 17.810 10.892,17.586 10.667,17.406 10.589 C 17.286 10.537,14.174 10.507,13.898 10.555 M7.240 12.914 C 6.716 12.955,6.346 13.195,6.131 13.634 C 6.023 13.854,6.020 13.877,6.020 14.547 L 6.020 15.234 6.137 15.357 L 6.255 15.480 8.957 15.478 C 10.444 15.476,11.732 15.463,11.820 15.447 C 11.949 15.425,11.994 15.393,12.052 15.280 C 12.116 15.158,12.123 15.058,12.110 14.500 C 12.093 13.747,12.047 13.604,11.722 13.278 C 11.357 12.913,11.427 12.924,9.376 12.905 C 8.388 12.895,7.427 12.899,7.240 12.914 M13.898 13.555 C 13.606 13.606,13.334 13.821,13.222 14.089 C 13.136 14.296,13.143 14.738,13.235 14.942 C 13.328 15.146,13.608 15.389,13.797 15.429 C 13.988 15.470,17.138 15.469,17.332 15.428 C 17.529 15.386,17.791 15.150,17.891 14.923 C 17.996 14.687,17.996 14.313,17.892 14.077 C 17.810 13.892,17.586 13.667,17.406 13.589 C 17.286 13.537,14.174 13.507,13.898 13.555 " fill="#1A1C1F" stroke="none" fill-rule="evenodd"></path></svg>