<svg width="28" height="28" viewBox="0 0 28 28" fill="none" xmlns="http://www.w3.org/2000/svg"><path d="M5.157 5.318 L 3.617 5.343 3.247 5.524 C 2.736 5.773,2.271 6.240,2.027 6.746 C 1.859 7.096,1.848 7.145,1.814 7.745 C 1.768 8.568,1.768 19.432,1.814 20.255 C 1.848 20.855,1.859 20.904,2.027 21.254 C 2.271 21.760,2.738 22.228,3.240 22.470 C 3.550 22.619,3.671 22.650,4.076 22.683 C 4.695 22.735,23.305 22.735,23.924 22.683 C 24.329 22.650,24.450 22.619,24.760 22.470 C 25.263 22.228,25.729 21.760,25.973 21.253 C 26.144 20.899,26.152 20.858,26.186 20.230 C 26.231 19.385,26.231 8.681,26.186 7.793 C 26.152 7.137,26.146 7.106,25.973 6.746 C 25.733 6.247,25.272 5.787,24.753 5.528 L 24.383 5.343 22.843 5.313 C 21.017 5.278,7.370 5.281,5.157 5.318 M24.033 7.119 C 24.122 7.171,24.259 7.305,24.336 7.415 L 24.477 7.615 24.477 14.000 L 24.477 20.385 24.336 20.585 C 24.259 20.695,24.122 20.829,24.033 20.881 C 23.870 20.977,23.863 20.977,14.047 20.977 C 8.644 20.977,4.167 20.961,4.099 20.942 C 3.932 20.895,3.702 20.696,3.604 20.516 C 3.532 20.382,3.524 19.947,3.508 15.237 C 3.498 12.413,3.505 9.531,3.524 8.831 C 3.555 7.638,3.564 7.549,3.657 7.412 C 3.712 7.331,3.816 7.221,3.888 7.168 C 4.013 7.075,4.095 7.069,5.428 7.043 C 6.203 7.028,10.669 7.017,15.353 7.020 C 23.849 7.023,23.870 7.024,24.033 7.119 M8.639 10.503 C 8.288 10.565,7.863 10.802,7.557 11.106 C 6.496 12.159,6.793 13.915,8.146 14.588 C 8.995 15.011,9.910 14.862,10.613 14.187 C 11.400 13.431,11.509 12.216,10.868 11.354 C 10.657 11.071,10.181 10.716,9.834 10.584 C 9.550 10.475,9.003 10.438,8.639 10.503 M15.727 13.947 C 15.359 13.983,15.168 14.104,15.031 14.388 C 14.839 14.785,14.957 15.244,15.311 15.479 L 15.510 15.610 18.617 15.625 C 20.325 15.633,21.854 15.626,22.013 15.609 C 22.533 15.556,22.798 15.271,22.794 14.770 C 22.792 14.423,22.695 14.229,22.437 14.058 L 22.244 13.930 19.137 13.924 C 17.428 13.921,15.893 13.931,15.727 13.947 M6.930 15.959 C 6.500 15.984,6.377 16.010,6.170 16.116 C 5.857 16.278,5.609 16.532,5.418 16.891 L 5.268 17.174 5.282 18.064 L 5.297 18.955 5.423 19.064 C 5.505 19.134,5.639 19.184,5.797 19.203 C 5.932 19.219,7.503 19.226,9.287 19.218 C 11.733 19.206,12.562 19.189,12.661 19.145 C 12.896 19.041,12.939 18.841,12.919 17.944 C 12.903 17.194,12.895 17.135,12.777 16.893 C 12.615 16.563,12.326 16.273,12.001 16.113 C 11.790 16.010,11.649 15.981,11.226 15.954 C 10.602 15.913,7.646 15.916,6.930 15.959 M16.766 16.748 C 16.606 16.825,16.182 17.058,15.824 17.266 C 15.112 17.679,14.986 17.809,14.945 18.175 C 14.886 18.695,15.274 19.129,15.801 19.132 C 15.982 19.133,16.449 18.925,17.097 18.554 L 17.290 18.443 17.873 18.683 C 18.616 18.989,18.745 18.991,19.760 18.715 L 20.503 18.513 21.242 18.691 C 22.076 18.891,22.210 18.883,22.512 18.618 C 22.798 18.367,22.875 18.091,22.763 17.719 C 22.643 17.317,22.272 17.130,21.024 16.844 C 20.563 16.738,20.554 16.738,20.161 16.818 C 19.942 16.863,19.541 16.962,19.269 17.037 L 18.775 17.174 18.158 16.913 C 17.369 16.580,17.164 16.556,16.766 16.748 " fill="#1A1C1F" stroke="none" fill-rule="evenodd"></path></svg>