<svg xmlns="http://www.w3.org/2000/svg" width="32" height="32" fill="none"><path fill="#1A1C1F" fill-rule="evenodd" d="M23.84 2.096c-.142.045-1.452 1.315-5.455 5.288-2.898 2.876-5.298 5.225-5.334 5.221l-.704-.124c-.885-.16-2.145-.162-3.037-.005-2.351.414-4.485 1.798-5.8 3.762a8.83 8.83 0 0 0-.556 8.923c.809 1.607 2.278 3.076 3.885 3.885a8.86 8.86 0 0 0 5.787.767c3.81-.795 6.604-3.938 7.008-7.884.087-.846-.011-2.109-.22-2.834l-.053-.185 1.54-1.548c.846-.852 1.581-1.63 1.631-1.73.051-.099.181-.603.289-1.12l.196-.939.935-.193c1.006-.208 1.177-.273 1.451-.546.261-.262.334-.456.543-1.449.104-.494.2-.909.213-.922s.422-.104.908-.202.961-.215 1.055-.26c.286-.137 1.603-1.46 1.732-1.74.109-.237.113-.332.129-2.613.014-1.896.002-2.419-.057-2.622-.096-.332-.437-.715-.777-.873l-.269-.125-2.427.005c-1.608.003-2.489.024-2.613.063M28 5.706v1.705l-.413.396-.413.396-1.12.223c-.616.123-1.231.246-1.367.275l-.246.051-.26 1.284c-.224 1.102-.276 1.288-.368 1.322-.058.022-.64.144-1.293.272-.876.173-1.193.255-1.211.315-.013.045-.147.682-.297 1.415l-.272 1.333-1.801 1.814-1.801 1.813.126.453c.308 1.106.356 1.425.359 2.374.005 1.274-.177 2.055-.731 3.14a6.796 6.796 0 0 1-9.163 2.96c-1.559-.797-2.811-2.243-3.353-3.875-.277-.832-.34-1.239-.34-2.199 0-.962.063-1.366.343-2.208a6.81 6.81 0 0 1 3.836-4.103c1.547-.64 3.002-.677 5.022-.127l.464.127 5.456-5.428 5.456-5.428 1.694-.003L28 4zM10.24 19.034a2.8 2.8 0 0 0-.848.467c-.955.818-1.009 2.327-.115 3.222.897.896 2.404.84 3.226-.12.948-1.107.579-2.785-.756-3.438-.264-.13-.378-.152-.84-.162-.293-.007-.594.007-.667.031"/></svg>