<svg width="20" height="20" viewBox="0 0 20 20" fill="none" xmlns="http://www.w3.org/2000/svg"><path d="M13.530 2.133 C 12.982 2.150,12.976 2.151,12.833 2.250 C 12.606 2.407,11.441 3.536,9.500 5.480 L 7.717 7.267 7.467 7.267 C 6.819 7.269,6.145 7.363,5.667 7.520 C 5.337 7.629,4.679 7.953,4.367 8.162 C 3.429 8.788,2.635 9.824,2.283 10.879 C 2.074 11.506,2.023 11.838,2.022 12.567 C 2.021 13.286,2.062 13.575,2.240 14.131 C 2.535 15.053,2.962 15.735,3.674 16.420 C 4.538 17.252,5.571 17.727,6.817 17.866 C 7.231 17.912,7.499 17.908,7.945 17.850 C 10.185 17.556,11.960 15.982,12.484 13.825 C 12.639 13.188,12.660 12.196,12.534 11.534 L 12.499 11.351 13.024 10.826 L 13.550 10.302 14.217 10.166 C 15.058 9.995,15.296 9.922,15.463 9.778 C 15.725 9.555,15.788 9.374,15.898 8.536 C 15.935 8.253,15.976 8.011,15.991 7.999 C 16.005 7.986,16.249 7.949,16.533 7.917 C 16.817 7.885,17.130 7.837,17.228 7.812 C 17.467 7.750,17.679 7.598,17.816 7.389 C 18.015 7.088,18.017 7.065,17.937 5.600 C 17.816 3.383,17.777 2.936,17.685 2.717 C 17.622 2.567,17.335 2.264,17.201 2.207 C 17.116 2.171,16.923 2.154,16.500 2.145 C 15.331 2.122,14.071 2.117,13.530 2.133 M15.845 4.392 C 15.882 4.896,15.935 5.943,15.923 5.954 C 15.917 5.960,15.524 6.012,15.049 6.068 C 14.573 6.125,14.181 6.175,14.177 6.179 C 14.166 6.189,14.011 7.355,13.958 7.817 L 13.917 8.183 13.237 8.321 L 12.557 8.460 11.431 9.588 L 10.304 10.717 10.434 11.333 C 10.609 12.165,10.646 12.517,10.601 12.925 C 10.552 13.361,10.488 13.594,10.318 13.954 C 9.794 15.065,8.838 15.748,7.638 15.868 C 6.073 16.024,4.651 15.073,4.148 13.533 C 4.064 13.277,4.053 13.193,4.041 12.662 C 4.025 12.005,4.062 11.779,4.265 11.293 C 4.485 10.763,4.982 10.159,5.463 9.835 C 6.156 9.368,6.848 9.216,7.911 9.300 L 8.432 9.340 11.074 6.721 L 13.717 4.101 14.770 4.100 L 15.824 4.100 15.845 4.392 M6.859 11.131 C 5.781 11.476,5.443 12.866,6.247 13.648 C 6.858 14.243,7.793 14.245,8.386 13.652 C 9.220 12.818,8.831 11.385,7.697 11.118 C 7.414 11.051,7.094 11.056,6.859 11.131 " fill="#1A1C1F" stroke="none" fill-rule="evenodd"></path></svg>