<svg width="16" height="16" viewBox="0 0 16 16" fill="none" xmlns="http://www.w3.org/2000/svg"><path d="M10.771 1.707 C 10.392 1.720,10.379 1.722,10.266 1.800 C 10.085 1.925,9.152 2.829,7.600 4.384 L 6.174 5.813 5.973 5.814 C 5.456 5.815,4.916 5.891,4.533 6.016 C 4.270 6.103,3.742 6.363,3.500 6.526 C 2.737 7.039,2.108 7.857,1.826 8.703 C 1.659 9.206,1.618 9.470,1.618 10.053 C 1.618 10.751,1.703 11.172,1.965 11.768 C 2.434 12.835,3.394 13.718,4.480 14.082 C 5.395 14.388,6.312 14.388,7.229 14.081 C 8.592 13.624,9.645 12.471,9.987 11.060 C 10.112 10.547,10.129 9.714,10.025 9.228 L 9.994 9.086 10.417 8.664 L 10.840 8.241 11.373 8.133 C 12.047 7.996,12.237 7.937,12.371 7.823 C 12.580 7.644,12.630 7.499,12.718 6.829 C 12.748 6.603,12.781 6.409,12.793 6.399 C 12.804 6.389,12.999 6.359,13.227 6.333 C 13.454 6.308,13.704 6.270,13.782 6.250 C 14.050 6.180,14.250 5.989,14.360 5.700 C 14.405 5.579,14.405 5.537,14.362 4.727 C 14.262 2.833,14.221 2.350,14.148 2.173 C 14.098 2.053,13.867 1.811,13.761 1.766 C 13.697 1.740,13.541 1.724,13.280 1.717 C 12.570 1.699,11.165 1.693,10.771 1.707 M12.676 3.513 C 12.706 3.917,12.748 4.754,12.739 4.764 C 12.734 4.768,12.419 4.809,12.039 4.855 C 11.659 4.900,11.345 4.940,11.341 4.943 C 11.334 4.951,11.215 5.845,11.168 6.253 L 11.133 6.547 10.590 6.657 L 10.046 6.768 9.144 7.670 L 8.243 8.573 8.347 9.067 C 8.522 9.897,8.536 10.269,8.411 10.759 C 8.358 10.964,8.172 11.359,8.030 11.568 C 7.599 12.203,6.902 12.614,6.122 12.693 C 4.863 12.821,3.722 12.062,3.318 10.827 C 3.251 10.622,3.243 10.555,3.233 10.129 C 3.223 9.721,3.229 9.630,3.275 9.446 C 3.398 8.961,3.629 8.554,3.985 8.198 C 4.608 7.574,5.281 7.357,6.340 7.439 L 6.747 7.471 8.860 5.376 L 10.973 3.281 11.816 3.280 L 12.659 3.280 12.676 3.513 M5.487 8.905 C 4.625 9.181,4.355 10.293,4.998 10.919 C 5.486 11.394,6.234 11.396,6.708 10.922 C 7.376 10.254,7.065 9.108,6.158 8.894 C 5.931 8.841,5.675 8.845,5.487 8.905 " fill="#1A1C1F" stroke="none" fill-rule="evenodd"></path></svg>