<svg xmlns="http://www.w3.org/2000/svg" width="24" height="24" fill="none"><g clip-path="url(#a)"><path fill="#1A1C1F" fill-rule="evenodd" d="m17.974 2 3.106.009c.518.065.92.506.92 1.043l-.01 3.113c-.03.226-.134.44-.298.604l-.837.827a1.05 1.05 0 0 1-.444.205l-1.17.232-.269 1.305a1.05 1.05 0 0 1-.788.69l-1.174.234-.267 1.294c-.05.158-.138.3-.256.418l-2.083 2.085a6.308 6.308 0 1 1-4.462-4.463l7.393-7.379a1.05 1.05 0 0 1 .64-.216m.404 2.002-7.839 7.825-1.114-.299a4.3 4.3 0 0 0-1.115-.146 4.28 4.28 0 0 0-3.047 1.263 4.28 4.28 0 0 0-1.262 3.047 4.28 4.28 0 0 0 1.262 3.046 4.28 4.28 0 0 0 3.046 1.26 4.28 4.28 0 0 0 3.047-1.26 4.33 4.33 0 0 0 1.116-4.162l-.298-1.115 2.69-2.693.455-2.208 1.847-.367.384-1.861 2.178-.434.264-.26.004-1.633zM9.424 14.576a1.576 1.576 0 1 1-2.229 2.23 1.576 1.576 0 0 1 2.23-2.23" clip-rule="evenodd"/></g><defs><clipPath id="a"><path fill="#fff" d="M0 0h24v24H0z"/></clipPath></defs></svg>