<svg xmlns="http://www.w3.org/2000/svg" width="32" height="32" fill="none"><g clip-path="url(#a)"><path fill="#1A1C1F" fill-rule="evenodd" d="m24.365 2 4.348.011c.726.091 1.288.71 1.288 1.461l-.013 4.357a1.47 1.47 0 0 1-.418.847l-1.171 1.157a1.5 1.5 0 0 1-.622.287l-1.64.327-.376 1.825a1.47 1.47 0 0 1-1.102.967l-1.644.33-.373 1.81c-.072.22-.195.42-.36.584l-2.916 2.92a8.833 8.833 0 1 1-6.247-6.248l10.35-10.332A1.47 1.47 0 0 1 24.366 2m.236 2L13.716 14.865l-1.114-.298a6.8 6.8 0 0 0-1.77-.233 6.8 6.8 0 0 0-4.831 2.002A6.84 6.84 0 0 0 6 26a6.8 6.8 0 0 0 4.832 2.002c1.824 0 3.54-.71 4.83-2.002a6.85 6.85 0 0 0 1.77-6.599l-.297-1.115 3.609-3.613.578-2.807 2.587-.515.537-2.605 2.765-.55.777-.769.01-3.417zM12.394 19.607a2.209 2.209 0 1 1-3.125 3.123 2.209 2.209 0 0 1 3.125-3.123" clip-rule="evenodd"/></g><defs><clipPath id="a"><path fill="#fff" d="M0 0h32v32H0z"/></clipPath></defs></svg>