<svg width="28" height="28" viewBox="0 0 28 28" fill="none" xmlns="http://www.w3.org/2000/svg"><path d="M21.251 1.817 L 20.826 1.843 20.478 2.155 C 20.286 2.327,18.409 4.164,16.306 6.239 C 14.203 8.313,12.248 10.239,11.960 10.518 L 11.438 11.027 10.911 10.938 C 10.124 10.806,8.605 10.817,7.945 10.959 C 5.534 11.477,3.512 13.064,2.495 15.237 C 1.090 18.237,1.740 21.779,4.115 24.061 C 4.994 24.906,5.838 25.428,6.932 25.805 C 9.262 26.609,11.724 26.294,13.790 24.929 C 14.449 24.493,15.409 23.529,15.861 22.848 C 16.611 21.720,17.042 20.503,17.183 19.118 C 17.245 18.511,17.178 17.505,17.038 16.919 L 16.948 16.548 18.291 15.182 C 19.034 14.427,19.670 13.741,19.715 13.647 C 19.759 13.553,19.869 13.138,19.958 12.724 C 20.048 12.309,20.127 11.948,20.135 11.922 C 20.143 11.895,20.440 11.814,20.796 11.742 C 21.805 11.535,21.979 11.470,22.223 11.209 C 22.467 10.949,22.528 10.786,22.730 9.847 C 22.811 9.475,22.881 9.165,22.886 9.160 C 22.891 9.154,23.235 9.076,23.651 8.985 C 24.067 8.895,24.485 8.789,24.580 8.749 C 24.784 8.664,25.984 7.479,26.116 7.233 C 26.197 7.082,26.204 6.917,26.217 4.905 L 26.231 2.740 26.109 2.490 C 26.040 2.349,25.901 2.170,25.788 2.078 C 25.411 1.769,25.440 1.772,23.463 1.782 C 22.481 1.786,21.485 1.802,21.251 1.817 M24.500 4.983 L 24.500 6.466 24.138 6.822 L 23.777 7.179 22.591 7.416 C 21.939 7.546,21.400 7.658,21.394 7.665 C 21.388 7.671,21.284 8.148,21.165 8.724 C 21.045 9.300,20.927 9.808,20.904 9.852 C 20.858 9.937,20.763 9.962,19.494 10.223 C 19.090 10.306,18.729 10.397,18.694 10.425 C 18.656 10.456,18.530 10.965,18.388 11.667 L 18.147 12.857 16.571 14.443 L 14.995 16.030 15.182 16.730 C 15.361 17.404,15.369 17.463,15.389 18.317 C 15.419 19.624,15.312 20.152,14.812 21.159 C 14.479 21.829,14.129 22.307,13.584 22.833 C 12.757 23.632,11.797 24.139,10.640 24.388 C 10.085 24.507,8.902 24.509,8.353 24.391 C 7.116 24.127,6.160 23.615,5.294 22.751 C 4.412 21.873,3.840 20.808,3.617 19.634 C 3.522 19.134,3.523 17.914,3.619 17.410 C 4.013 15.332,5.511 13.597,7.524 12.887 C 8.206 12.646,8.622 12.579,9.403 12.581 C 10.156 12.584,10.653 12.653,11.493 12.873 L 11.982 13.001 16.760 8.253 L 21.537 3.505 23.018 3.502 L 24.500 3.500 24.500 4.983 M9.030 16.654 C 8.746 16.708,8.366 16.923,8.118 17.171 C 7.104 18.185,7.547 19.935,8.923 20.353 C 9.708 20.591,10.616 20.279,11.051 19.622 C 11.316 19.222,11.398 18.931,11.378 18.457 C 11.355 17.932,11.183 17.525,10.835 17.177 C 10.482 16.824,10.134 16.669,9.630 16.642 C 9.403 16.629,9.133 16.635,9.030 16.654 " fill="#1A1C1F" stroke="none" fill-rule="evenodd"></path></svg>