<svg width="14" height="14" viewBox="0 0 14 14" fill="none" xmlns="http://www.w3.org/2000/svg"><path d="M9.378 1.492 C 9.099 1.504,9.079 1.509,8.983 1.575 C 8.828 1.682,8.468 2.030,6.869 3.621 L 5.397 5.087 5.224 5.087 C 4.967 5.088,4.528 5.128,4.323 5.170 C 4.050 5.226,3.822 5.307,3.512 5.459 C 3.173 5.625,2.960 5.766,2.687 6.004 C 2.057 6.553,1.644 7.261,1.467 8.097 C 1.393 8.447,1.393 9.164,1.467 9.512 C 1.566 9.984,1.776 10.484,2.043 10.891 C 2.222 11.162,2.762 11.703,3.033 11.882 C 3.945 12.484,5.021 12.669,6.047 12.402 C 7.391 12.052,8.414 11.016,8.739 9.677 C 8.848 9.229,8.863 8.500,8.771 8.075 L 8.745 7.950 9.115 7.580 L 9.485 7.211 9.882 7.130 C 10.631 6.979,10.748 6.939,10.887 6.785 C 11.026 6.631,11.054 6.538,11.130 5.963 C 11.155 5.772,11.184 5.608,11.194 5.599 C 11.204 5.590,11.374 5.564,11.573 5.542 C 11.772 5.519,11.991 5.486,12.059 5.468 C 12.227 5.425,12.375 5.319,12.472 5.172 C 12.611 4.962,12.612 4.946,12.556 3.920 C 12.470 2.357,12.444 2.056,12.377 1.896 C 12.334 1.792,12.138 1.587,12.044 1.547 C 12.001 1.529,11.853 1.510,11.706 1.504 C 11.268 1.487,9.690 1.479,9.378 1.492 M11.092 3.074 C 11.120 3.451,11.156 4.159,11.147 4.167 C 11.143 4.172,10.867 4.208,10.534 4.248 C 10.201 4.287,9.927 4.322,9.924 4.325 C 9.917 4.332,9.813 5.114,9.772 5.472 L 9.742 5.728 9.266 5.825 L 8.790 5.922 8.002 6.712 L 7.214 7.502 7.319 8.003 C 7.412 8.446,7.424 8.541,7.425 8.808 C 7.427 9.323,7.311 9.703,7.022 10.128 C 6.388 11.062,5.112 11.390,4.095 10.879 C 3.519 10.590,3.119 10.118,2.902 9.473 C 2.838 9.282,2.836 9.259,2.835 8.808 C 2.835 8.384,2.840 8.326,2.890 8.167 C 3.098 7.499,3.543 6.986,4.165 6.694 C 4.542 6.517,4.968 6.461,5.559 6.509 L 5.903 6.537 7.752 4.704 L 9.602 2.871 10.339 2.870 L 11.077 2.870 11.092 3.074 M4.830 7.784 C 4.287 7.929,3.940 8.543,4.097 9.078 C 4.212 9.468,4.482 9.734,4.866 9.834 C 5.429 9.981,6.028 9.618,6.159 9.051 C 6.217 8.797,6.168 8.480,6.037 8.255 C 5.954 8.113,5.739 7.918,5.593 7.851 C 5.361 7.745,5.072 7.719,4.830 7.784 " fill="#1A1C1F" stroke="none" fill-rule="evenodd"></path></svg>