<svg xmlns="http://www.w3.org/2000/svg" width="14" height="14" fill="none"><g clip-path="url(#a)"><path fill="#1A1C1F" fill-rule="evenodd" d="m10.576 1.476 1.25.007c.289.008.602.327.624.677l.15 2.669a.73.73 0 0 1-.647.67l-.781.084-.11.893a.73.73 0 0 1-.56.528l-1.024.205-.263.262-.11.11-.299.299-.063.063c.328 1.51-.209 2.715-.986 3.492A3.724 3.724 0 1 1 2.49 6.17a3.73 3.73 0 0 1 2.898-1.082L8.795 1.69a.74.74 0 0 1 .507-.215zm-.987 1.399L5.92 6.533l-.643-.05a2.328 2.328 0 0 0-1.798 3.963 2.3 2.3 0 0 0 1.642.68c.623 0 1.207-.242 1.644-.68.408-.407.844-1.121.61-2.206l-.163-.745L8.79 5.918l.955-.19.173-1.418 1.244-.134-.074-1.298zM5.88 8.045A1.07 1.07 0 1 1 4.367 9.56 1.07 1.07 0 0 1 5.88 8.046" clip-rule="evenodd"/></g><defs><clipPath id="a"><path fill="#fff" d="M0 0h14v14H0z"/></clipPath></defs></svg>