<svg xmlns="http://www.w3.org/2000/svg" width="28" height="28" fill="none"><g clip-path="url(#a)"><path fill="#1A1C1F" fill-rule="evenodd" d="m21.32 1.75 3.804.01c.635.08 1.127.621 1.127 1.278l-.012 3.812c-.037.28-.164.54-.366.742L24.85 8.604c-.159.125-.345.21-.544.251l-1.434.286-.33 1.597c-.146.43-.511.755-.965.846l-1.438.288-.327 1.585c-.062.191-.17.367-.314.51l-2.552 2.556a7.729 7.729 0 1 1-5.466-5.467l9.057-9.04c.223-.172.499-.267.783-.267m.206 1.75L12 13.007l-.974-.26a6 6 0 0 0-1.548-.205 5.94 5.94 0 0 0-4.228 1.752 5.986 5.986 0 0 0 0 8.455 5.94 5.94 0 0 0 4.228 1.752 5.94 5.94 0 0 0 4.227-1.752 6 6 0 0 0 1.549-5.774L14.994 16l3.158-3.16.505-2.457 2.264-.45.47-2.28 2.42-.482.68-.672.009-2.99zM10.844 17.156a1.933 1.933 0 1 1-2.734 2.732 1.933 1.933 0 0 1 2.734-2.732" clip-rule="evenodd"/></g><defs><clipPath id="a"><path fill="#fff" d="M0 0h28v28H0z"/></clipPath></defs></svg>