<svg xmlns="http://www.w3.org/2000/svg" width="12" height="12" fill="none"><g clip-path="url(#a)"><path fill="#1A1C1F" fill-rule="evenodd" d="m9.065 1.265 1.071.006c.248.007.517.28.535.58L10.8 4.14a.62.62 0 0 1-.554.574l-.67.073-.094.765a.62.62 0 0 1-.48.453l-.878.175-.097.097-.47.469-.063.063c.28 1.294-.179 2.328-.845 2.994a3.192 3.192 0 1 1-2.03-5.441l2.92-2.913a.64.64 0 0 1 .434-.184zm-.846 1.2L5.075 5.6l-.551-.043a1.996 1.996 0 0 0-1.54 3.397c.375.375.875.582 1.406.582.534 0 1.035-.207 1.41-.582.35-.35.723-.961.522-1.891l-.139-.639 1.35-1.351.819-.164.148-1.215 1.066-.114-.063-1.113zM5.04 6.895a.917.917 0 1 1-1.297 1.297.917.917 0 0 1 1.297-1.297" clip-rule="evenodd"/></g><defs><clipPath id="a"><path fill="#fff" d="M0 0h12v12H0z"/></clipPath></defs></svg>