<svg xmlns="http://www.w3.org/2000/svg" width="16" height="16" fill="none"><g clip-path="url(#a)"><path fill="#1A1C1F" fill-rule="evenodd" d="m12.087 1.686 1.428.008c.33.01.69.375.713.775l.172 3.05a.83.83 0 0 1-.74.765l-.892.097-.125 1.02a.83.83 0 0 1-.641.604l-1.17.233-.078.079-.717.716-.045.045c.374 1.724-.238 3.103-1.127 3.99A4.256 4.256 0 1 1 2.847 7.05a4.26 4.26 0 0 1 3.311-1.236l3.893-3.883a.85.85 0 0 1 .58-.245zm-1.128 1.6-4.193 4.18-.734-.057a2 2 0 0 0-.187-.008 2.66 2.66 0 0 0-1.867 4.537c.5.501 1.167.776 1.876.776.712 0 1.379-.275 1.879-.776.466-.465.965-1.281.696-2.521l-.185-.851 1.8-1.802 1.092-.218.198-1.62 1.421-.153-.084-1.483zM6.72 9.195a1.223 1.223 0 1 1-1.73 1.73 1.223 1.223 0 0 1 1.73-1.73" clip-rule="evenodd"/></g><defs><clipPath id="a"><path fill="#fff" d="M0 0h16v16H0z"/></clipPath></defs></svg>