<svg width="32" height="32" viewBox="0 0 32 32" fill="none" xmlns="http://www.w3.org/2000/svg"><path d="M24.287 2.076 L 23.801 2.107 23.407 2.460 C 23.191 2.654,21.033 4.766,18.613 7.153 C 16.193 9.540,13.956 11.743,13.642 12.048 L 13.072 12.602 12.469 12.501 C 11.570 12.350,9.835 12.362,9.080 12.525 C 6.323 13.117,4.014 14.929,2.851 17.413 C 1.245 20.843,1.988 24.890,4.702 27.498 C 5.708 28.464,6.672 29.061,7.922 29.492 C 10.585 30.410,13.399 30.050,15.760 28.490 C 16.513 27.993,17.610 26.891,18.127 26.112 C 18.984 24.823,19.477 23.432,19.638 21.849 C 19.708 21.156,19.632 20.005,19.471 19.336 L 19.370 18.912 20.904 17.351 C 21.754 16.488,22.481 15.704,22.531 15.596 C 22.582 15.490,22.707 15.015,22.809 14.541 C 22.912 14.068,23.003 13.655,23.011 13.625 C 23.020 13.595,23.360 13.502,23.767 13.419 C 24.920 13.183,25.119 13.109,25.398 12.811 C 25.677 12.513,25.746 12.327,25.978 11.253 C 26.069 10.828,26.149 10.475,26.155 10.468 C 26.161 10.462,26.554 10.372,27.030 10.269 C 27.505 10.166,27.983 10.044,28.092 9.999 C 28.324 9.901,29.697 8.547,29.847 8.267 C 29.940 8.093,29.948 7.905,29.963 5.606 L 29.978 3.131 29.839 2.846 C 29.760 2.685,29.601 2.480,29.472 2.375 C 29.041 2.021,29.074 2.026,26.815 2.036 C 25.692 2.041,24.555 2.059,24.287 2.076 M28.000 5.695 L 28.000 7.389 27.587 7.797 L 27.173 8.205 25.818 8.475 C 25.073 8.624,24.458 8.752,24.451 8.760 C 24.444 8.767,24.326 9.312,24.189 9.971 C 24.051 10.630,23.916 11.212,23.888 11.264 C 23.860 11.316,23.784 11.371,23.718 11.386 C 23.653 11.401,23.120 11.512,22.534 11.632 C 21.948 11.752,21.430 11.870,21.384 11.895 C 21.324 11.927,21.220 12.332,21.016 13.324 L 20.733 14.708 18.936 16.504 L 17.140 18.300 17.352 19.110 C 17.555 19.887,17.565 19.961,17.587 20.933 C 17.621 22.382,17.500 23.010,16.982 24.080 C 16.603 24.864,16.241 25.369,15.605 26.002 C 14.603 26.999,13.541 27.575,12.160 27.872 C 11.526 28.008,10.174 28.010,9.547 27.876 C 8.132 27.574,7.041 26.989,6.050 26.001 C 5.041 24.997,4.389 23.786,4.135 22.448 C 4.027 21.875,4.026 20.475,4.133 19.911 C 4.653 17.189,6.763 15.048,9.493 14.472 C 9.819 14.403,10.173 14.377,10.747 14.379 C 11.607 14.382,12.175 14.461,13.135 14.712 L 13.693 14.858 19.153 9.432 L 24.613 4.005 26.307 4.003 L 28.000 4.000 28.000 5.695 M10.320 19.034 C 9.996 19.094,9.561 19.340,9.278 19.624 C 8.119 20.782,8.625 22.783,10.197 23.260 C 11.094 23.533,12.132 23.176,12.630 22.425 C 12.933 21.967,13.026 21.635,13.003 21.093 C 12.978 20.493,12.781 20.029,12.383 19.631 C 11.980 19.228,11.591 19.056,11.011 19.022 C 10.748 19.007,10.437 19.012,10.320 19.034 " fill="#1A1C1F" stroke="none" fill-rule="evenodd"></path></svg>