<svg width="12" height="12" viewBox="0 0 12 12" fill="none" xmlns="http://www.w3.org/2000/svg"><path d="M8.058 1.279 C 7.797 1.290,7.783 1.292,7.699 1.350 C 7.564 1.443,7.246 1.751,5.890 3.104 L 4.629 4.360 4.480 4.360 C 4.257 4.361,3.882 4.395,3.705 4.431 C 3.471 4.479,3.276 4.549,3.010 4.679 C 2.715 4.824,2.522 4.952,2.301 5.149 C 1.741 5.648,1.383 6.271,1.249 6.980 C 1.200 7.235,1.199 7.831,1.247 8.094 C 1.319 8.494,1.514 8.974,1.752 9.335 C 1.907 9.571,2.369 10.033,2.605 10.188 C 3.577 10.829,4.773 10.909,5.800 10.402 C 6.811 9.903,7.477 8.926,7.561 7.819 C 7.582 7.542,7.564 7.148,7.520 6.920 L 7.499 6.811 7.815 6.496 L 8.130 6.181 8.530 6.100 C 9.101 5.984,9.188 5.954,9.311 5.831 C 9.439 5.704,9.469 5.619,9.521 5.231 C 9.544 5.065,9.569 4.899,9.577 4.860 L 9.591 4.791 9.945 4.747 C 10.139 4.723,10.333 4.692,10.374 4.679 C 10.552 4.621,10.694 4.476,10.770 4.275 C 10.804 4.183,10.804 4.152,10.762 3.375 C 10.691 2.042,10.666 1.763,10.611 1.630 C 10.574 1.541,10.401 1.358,10.324 1.326 C 10.287 1.311,10.159 1.294,10.034 1.289 C 9.659 1.275,8.347 1.268,8.058 1.279 M9.508 2.635 C 9.529 2.928,9.561 3.566,9.554 3.573 C 9.550 3.576,9.314 3.607,9.029 3.641 C 8.744 3.675,8.509 3.705,8.506 3.707 C 8.500 3.713,8.411 4.384,8.376 4.690 L 8.350 4.910 7.942 4.993 L 7.535 5.076 6.857 5.753 C 6.250 6.359,6.180 6.435,6.191 6.480 C 6.244 6.693,6.344 7.214,6.361 7.370 C 6.399 7.711,6.342 8.046,6.190 8.372 C 5.883 9.032,5.305 9.447,4.591 9.520 C 3.647 9.616,2.792 9.046,2.489 8.120 C 2.438 7.966,2.432 7.916,2.425 7.597 C 2.417 7.290,2.421 7.223,2.457 7.082 C 2.548 6.724,2.722 6.418,2.990 6.148 C 3.174 5.962,3.337 5.847,3.570 5.738 C 3.893 5.586,4.238 5.540,4.747 5.580 L 5.059 5.604 6.645 4.032 L 8.230 2.460 8.862 2.460 L 9.495 2.460 9.508 2.635 M4.115 6.679 C 3.469 6.886,3.266 7.719,3.748 8.189 C 4.115 8.546,4.676 8.547,5.031 8.191 C 5.532 7.691,5.299 6.831,4.618 6.671 C 4.448 6.631,4.256 6.634,4.115 6.679 " fill="#1A1C1F" stroke="none" fill-rule="evenodd"></path></svg>