<svg xmlns="http://www.w3.org/2000/svg" width="20" height="20" fill="none"><g clip-path="url(#a)"><path fill="#1A1C1F" fill-rule="evenodd" d="m13.288 2.107 1.82.001 1.786.01c.413.012.861.468.891.968L18 6.898a1.04 1.04 0 0 1-.924.957l-1.116.121-.156 1.275c-.1.38-.408.676-.802.755l-1.462.292-.13.13-.175.175-.198.198-.469.468-.078.078c.468 2.156-.298 3.879-1.409 4.989a5.32 5.32 0 1 1-7.523-7.523c1.11-1.11 2.66-1.664 4.14-1.546l4.866-4.853c.21-.21.494-.307.724-.307m.41 2-5.24 5.226-.918-.072a3 3 0 0 0-.234-.01c-.863 0-1.714.356-2.334.977A3.3 3.3 0 0 0 4 12.571a3.3 3.3 0 0 0 .972 2.352c.626.626 1.46.97 2.345.97.89 0 1.724-.344 2.35-.97.582-.582 1.205-1.602.87-3.152l-.232-1.064 2.25-2.252 1.365-.273.247-2.025 1.777-.191-.105-1.854zM8.4 11.494a1.529 1.529 0 1 1-2.162 2.162A1.529 1.529 0 0 1 8.4 11.494" clip-rule="evenodd"/></g><defs><clipPath id="a"><path fill="#fff" d="M0 0h20v20H0z"/></clipPath></defs></svg>