<svg width="24" height="24" viewBox="0 0 24 24" fill="none" xmlns="http://www.w3.org/2000/svg"><path d="M17.936 2.034 C 17.668 2.056,17.583 2.080,17.436 2.180 C 17.339 2.245,15.613 3.940,13.600 5.946 L 9.940 9.593 9.560 9.514 C 9.225 9.444,9.061 9.436,8.180 9.450 C 7.239 9.464,7.157 9.471,6.780 9.575 C 4.363 10.238,2.630 12.065,2.114 14.494 C 1.989 15.081,1.989 16.280,2.114 16.867 C 2.245 17.483,2.414 17.966,2.700 18.540 C 3.016 19.174,3.366 19.652,3.900 20.180 C 4.784 21.055,5.846 21.617,7.120 21.883 C 7.683 22.001,8.873 22.012,9.420 21.905 C 10.779 21.638,11.931 21.009,12.869 20.023 C 13.681 19.170,14.181 18.229,14.465 17.020 C 14.572 16.567,14.578 16.491,14.575 15.660 C 14.572 14.930,14.558 14.718,14.491 14.420 L 14.410 14.060 15.456 13.000 C 16.031 12.417,16.550 11.876,16.610 11.798 C 16.694 11.687,16.749 11.511,16.860 10.998 C 16.939 10.636,17.025 10.319,17.052 10.294 C 17.078 10.269,17.331 10.201,17.614 10.142 C 18.446 9.970,18.718 9.837,18.878 9.523 C 18.919 9.443,19.019 9.081,19.099 8.719 C 19.179 8.358,19.249 8.058,19.254 8.052 C 19.259 8.047,19.515 7.988,19.822 7.921 C 20.737 7.722,20.702 7.740,21.299 7.145 C 21.589 6.856,21.861 6.548,21.903 6.460 C 21.975 6.310,21.980 6.195,21.980 4.540 C 21.980 2.880,21.976 2.771,21.903 2.624 C 21.797 2.410,21.583 2.206,21.364 2.107 C 21.190 2.030,21.098 2.025,19.720 2.017 C 18.917 2.012,18.114 2.020,17.936 2.034 M20.000 4.816 L 20.000 5.632 19.863 5.752 C 19.690 5.904,19.732 5.892,18.542 6.139 L 17.544 6.347 17.352 7.259 C 17.247 7.762,17.156 8.177,17.150 8.183 C 17.145 8.189,16.735 8.278,16.240 8.381 C 15.745 8.484,15.334 8.573,15.327 8.580 C 15.320 8.587,15.215 9.076,15.093 9.666 L 14.872 10.740 13.536 12.080 C 12.801 12.817,12.200 13.445,12.200 13.475 C 12.200 13.505,12.271 13.815,12.359 14.165 C 12.607 15.159,12.652 15.698,12.543 16.371 C 12.350 17.560,11.663 18.626,10.669 19.281 C 10.272 19.542,9.911 19.705,9.378 19.860 C 9.054 19.955,8.955 19.965,8.340 19.965 C 7.746 19.965,7.612 19.953,7.280 19.867 C 6.554 19.678,6.066 19.425,5.547 18.966 C 5.016 18.497,4.694 18.086,4.440 17.550 C 3.407 15.378,4.325 12.815,6.499 11.796 C 7.485 11.334,8.502 11.291,9.886 11.654 L 10.552 11.828 14.466 7.914 L 18.380 4.000 19.190 4.000 L 20.000 4.000 20.000 4.816 M8.000 14.158 C 7.588 14.219,7.107 14.593,6.904 15.009 C 6.612 15.609,6.702 16.240,7.150 16.724 C 7.405 16.999,7.705 17.169,8.067 17.244 C 8.690 17.372,9.433 16.972,9.742 16.340 C 9.849 16.123,9.860 16.062,9.859 15.700 C 9.858 15.352,9.844 15.270,9.751 15.070 C 9.613 14.771,9.298 14.441,9.024 14.307 C 8.841 14.218,8.362 14.110,8.220 14.126 C 8.198 14.129,8.099 14.143,8.000 14.158 " fill="#1A1C1F" stroke="none" fill-rule="evenodd"></path></svg>