<svg xmlns="http://www.w3.org/2000/svg" width="16" height="16" fill="none"><g clip-path="url(#a)"><path fill="#1A1C1F" fill-rule="evenodd" d="M8 1.6a3.2 3.2 0 0 1 3.146 2.616.8.8 0 0 1-1.55.381C9.434 3.737 8.773 3.2 8 3.2c-.843 0-1.597.679-1.6 1.6v1.614h4.8a1.6 1.6 0 0 1 1.6 1.6V12.8a1.6 1.6 0 0 1-1.6 1.6H4.8a1.6 1.6 0 0 1-1.6-1.6V8.014a1.6 1.6 0 0 1 1.6-1.6V4.799A3.2 3.2 0 0 1 8 1.6m3.2 6.414H4.8V12.8h6.4zM8 8.8a.8.8 0 0 1 .795.707L8.8 9.6v1.596a.8.8 0 0 1-1.595.093l-.005-.093V9.6a.8.8 0 0 1 .8-.8" clip-rule="evenodd"/></g><defs><clipPath id="a"><path fill="#fff" d="M0 0h16v16H0z"/></clipPath></defs></svg>