<svg xmlns="http://www.w3.org/2000/svg" width="20" height="20" fill="none"><path fill="#1A1C1F" fill-rule="evenodd" d="M9.617 2.021c-.924.105-1.722.471-2.373 1.089a4.05 4.05 0 0 0-1.193 2.258C6.012 5.609 6 5.961 6 6.858v1.175h-.132c-.356 0-.833.191-1.161.464a2.2 2.2 0 0 0-.599.87l-.091.25-.01 3.283c-.011 3.661-.017 3.536.218 4.008.085.172.193.315.372.493.291.289.548.437.923.533.25.064.384.066 4.48.066s4.23-.002 4.48-.066a1.85 1.85 0 0 0 .923-.533c.179-.178.287-.321.372-.493.235-.472.229-.347.218-4.008l-.01-3.283-.082-.234a2.27 2.27 0 0 0-.619-.893c-.233-.189-.593-.369-.842-.42-.121-.025-1.166-.037-3.311-.037H7.995l.013-1.208c.011-1.132.017-1.222.085-1.425.226-.678.81-1.207 1.49-1.35a1.93 1.93 0 0 1 1.818.547c.293.295.425.528.548.964.123.44.249.621.535.769a.99.99 0 0 0 1.231-.242c.223-.273.277-.543.188-.949a4 4 0 0 0-3.307-3.087 4.3 4.3 0 0 0-.979-.031m.831 9.093a.98.98 0 0 1 .465.484c.068.146.07.201.07 1.402 0 1.209-.002 1.255-.071 1.405a1.15 1.15 0 0 1-.507.506 1.14 1.14 0 0 1-.81 0 1.15 1.15 0 0 1-.507-.506c-.068-.147-.072-.211-.082-1.305-.007-.764.001-1.207.026-1.321.137-.627.829-.952 1.416-.665"/></svg>