<svg xmlns="http://www.w3.org/2000/svg" width="14" height="14" fill="none"><g clip-path="url(#a)"><path fill="#1A1C1F" fill-rule="evenodd" d="M7 1.4a2.8 2.8 0 0 1 2.753 2.289.7.7 0 0 1-1.357.333C8.256 3.27 7.678 2.8 7 2.8c-.738 0-1.397.594-1.4 1.4v1.412h4.2a1.4 1.4 0 0 1 1.4 1.4V11.2a1.4 1.4 0 0 1-1.4 1.4H4.2a1.4 1.4 0 0 1-1.4-1.4V7.012a1.4 1.4 0 0 1 1.4-1.4V4.2A2.8 2.8 0 0 1 7 1.4m2.8 5.612H4.2V11.2h5.6zM7 7.7a.7.7 0 0 1 .695.618L7.7 8.4v1.397a.7.7 0 0 1-1.395.081L6.3 9.797V8.4a.7.7 0 0 1 .7-.7" clip-rule="evenodd"/></g><defs><clipPath id="a"><path fill="#fff" d="M0 0h14v14H0z"/></clipPath></defs></svg>