<svg xmlns="http://www.w3.org/2000/svg" width="16" height="16" fill="none"><g clip-path="url(#a)"><path fill="#1A1C1F" fill-rule="evenodd" d="M8 2.007a3.21 3.21 0 0 1 3.2 3.2v.8a1.6 1.6 0 0 1 1.6 1.6v4.786a1.6 1.6 0 0 1-1.6 1.6H4.8a1.6 1.6 0 0 1-1.6-1.6V7.607a1.6 1.6 0 0 1 1.6-1.6v-.8a3.2 3.2 0 0 1 3.2-3.2m0 6.386a.8.8 0 0 0-.8.8v1.596l.005.094a.8.8 0 0 0 1.595-.094V9.193L8.795 9.1A.8.8 0 0 0 8 8.393m0-4.786c-.844 0-1.598.668-1.6 1.6v.8h3.2v-.8a1.6 1.6 0 0 0-1.6-1.6" clip-rule="evenodd"/></g><defs><clipPath id="a"><path fill="#fff" d="M0 0h16v16H0z"/></clipPath></defs></svg>