<svg xmlns="http://www.w3.org/2000/svg" width="32" height="32" fill="none"><g clip-path="url(#a)"><path fill="#1A1C1F" fill-rule="evenodd" d="M16 2.498c3.497 0 6.451 2.522 6.932 5.883a1 1 0 1 1-1.98.283c-.339-2.37-2.443-4.166-4.953-4.166-2.694 0-4.996 2.086-5 4.835V12.5h12c1.598 0 3 1.285 3 3q.003 5.5 0 11c0 1.598-1.313 3-3 3q-7 .003-14 0c-1.597 0-3-1.284-3-3v-11c0-1.597 1.285-3 3-3V9.333c0-3.78 3.14-6.835 7-6.835M23 14.5H9c-.658 0-1 .405-1 1v11c0 .513.41 1 1 1q7 .005 14 0c.512 0 .999-.415 1-1q.003-5.5 0-11a1 1 0 0 0-1-1m-7 3a2 2 0 0 1 1 3.732v2.282a1 1 0 1 1-2 0v-2.281a2 2 0 0 1 1-3.733" clip-rule="evenodd"/></g><defs><clipPath id="a"><path fill="#fff" d="M0 0h32v32H0z"/></clipPath></defs></svg>