<svg xmlns="http://www.w3.org/2000/svg" width="12" height="12" fill="none"><g clip-path="url(#a)"><path fill="#1A1C1F" fill-rule="evenodd" d="M6 1.2a2.4 2.4 0 0 1 2.36 1.962.6.6 0 0 1-1.164.286L7.18 3.38a1.2 1.2 0 0 0-2.376.13L4.8 3.6v1.21h3.6a1.2 1.2 0 0 1 1.2 1.2V9.6a1.2 1.2 0 0 1-1.2 1.2H3.6a1.2 1.2 0 0 1-1.2-1.2V6.01a1.2 1.2 0 0 1 1.2-1.2V3.6A2.4 2.4 0 0 1 6 1.2m0 5.4a.6.6 0 0 0-.596.53L5.4 7.2v1.197l.004.07a.6.6 0 0 0 1.192 0l.004-.07V7.2l-.004-.07A.6.6 0 0 0 6 6.6" clip-rule="evenodd"/></g><defs><clipPath id="a"><path fill="#fff" d="M0 0h12v12H0z"/></clipPath></defs></svg>