<svg xmlns="http://www.w3.org/2000/svg" width="16" height="16" fill="none"><g clip-path="url(#a)"><path fill="#1A1C1F" fill-rule="evenodd" d="M8 1.6a3.2 3.2 0 0 1 3.146 2.616.8.8 0 0 1-1.551.381l-.022-.09a1.6 1.6 0 0 0-3.168.173L6.4 4.8v1.614h4.8a1.6 1.6 0 0 1 1.6 1.6V12.8a1.6 1.6 0 0 1-1.6 1.6H4.8a1.6 1.6 0 0 1-1.6-1.6V8.014a1.6 1.6 0 0 1 1.6-1.6V4.799A3.2 3.2 0 0 1 8 1.6m0 7.2a.8.8 0 0 0-.795.707L7.2 9.6v1.596l.005.093a.8.8 0 0 0 1.59 0l.005-.093V9.6l-.005-.093A.8.8 0 0 0 8 8.8" clip-rule="evenodd"/></g><defs><clipPath id="a"><path fill="#fff" d="M0 0h16v16H0z"/></clipPath></defs></svg>