<svg xmlns="http://www.w3.org/2000/svg" width="28" height="28" fill="none"><g clip-path="url(#a)"><path fill="#1A1C1F" fill-rule="evenodd" d="M14 2.622c3.307 0 6.119 2.635 6.125 5.981v1.899a2.625 2.625 0 0 1 2.625 2.625v9.625c0 1.398-1.15 2.625-2.625 2.625H7.875a2.625 2.625 0 0 1-2.626-2.625v-9.625a2.625 2.625 0 0 1 2.625-2.625V8.603c0-3.309 2.748-5.98 6.126-5.98M7 13.127v9.625c0 .448.359.874.874.875q6.126.003 12.25 0a.88.88 0 0 0 .876-.875v-9.625a.875.875 0 0 0-.875-.875H7.875a.873.873 0 0 0-.876.875m7 1.75a1.75 1.75 0 0 1 .875 3.265v1.996a.875.875 0 0 1-1.75 0v-1.996a1.75 1.75 0 0 1 .874-3.265m0-10.505c-2.358 0-4.37 1.857-4.376 4.231v1.899l8.75-.001V8.603c0-2.331-1.953-4.23-4.374-4.23" clip-rule="evenodd"/></g><defs><clipPath id="a"><path fill="#fff" d="M0 0h28v28H0z"/></clipPath></defs></svg>