<svg width="20" height="20" viewBox="0 0 20 20" fill="none" xmlns="http://www.w3.org/2000/svg"><path d="M9.583 2.537 C 8.127 2.706,6.876 3.635,6.316 4.964 C 6.076 5.532,6.000 6.001,6.000 6.904 L 6.000 7.493 5.784 7.531 C 5.435 7.592,5.159 7.690,4.938 7.833 C 4.539 8.091,4.240 8.472,4.098 8.904 L 4.017 9.150 4.017 12.517 L 4.017 15.883 4.126 16.167 C 4.366 16.793,4.792 17.187,5.481 17.421 L 5.712 17.500 10.000 17.500 L 14.288 17.500 14.527 17.419 C 15.223 17.182,15.666 16.759,15.890 16.117 L 15.983 15.850 15.983 12.483 L 15.983 9.117 15.887 8.867 C 15.603 8.128,15.034 7.666,14.247 7.535 L 14.010 7.496 13.991 6.706 C 13.973 6.011,13.961 5.878,13.887 5.591 C 13.594 4.449,12.887 3.540,11.866 2.989 C 11.206 2.633,10.298 2.453,9.583 2.537 M10.485 4.584 C 11.021 4.722,11.531 5.130,11.776 5.617 C 11.942 5.949,11.971 6.109,11.991 6.825 L 12.010 7.500 10.000 7.500 L 7.991 7.500 8.010 6.825 C 8.022 6.392,8.046 6.089,8.076 5.980 C 8.268 5.304,8.812 4.772,9.500 4.587 C 9.743 4.522,10.236 4.520,10.485 4.584 M10.201 10.534 C 10.458 10.582,10.685 10.742,10.840 10.981 L 10.970 11.182 10.960 12.516 C 10.950 13.837,10.949 13.851,10.874 13.972 C 10.696 14.259,10.358 14.466,10.050 14.477 C 9.700 14.489,9.344 14.297,9.157 13.995 C 9.013 13.762,8.990 13.500,9.008 12.283 C 9.023 11.283,9.028 11.207,9.094 11.079 C 9.229 10.813,9.419 10.645,9.696 10.546 C 9.844 10.493,9.971 10.490,10.201 10.534 " fill="#1A1C1F" stroke="none" fill-rule="evenodd"></path></svg>