<svg width="32" height="32" viewBox="0 0 32 32" fill="none" xmlns="http://www.w3.org/2000/svg"><path d="M14.613 3.150 C 12.874 3.526,11.535 4.344,10.448 5.695 C 9.881 6.400,9.512 7.139,9.218 8.160 C 9.058 8.715,9.056 8.734,9.028 10.355 L 8.999 11.989 8.700 12.026 C 8.004 12.110,7.312 12.459,6.815 12.978 C 6.499 13.307,6.297 13.655,6.106 14.197 L 5.962 14.607 5.990 20.464 C 6.009 24.374,6.038 26.423,6.077 26.631 C 6.268 27.641,7.149 28.583,8.191 28.890 C 8.483 28.976,9.061 28.984,15.992 29.001 L 23.478 29.018 23.903 28.856 C 24.438 28.652,24.829 28.394,25.173 28.017 C 25.511 27.647,25.668 27.379,25.868 26.831 L 26.027 26.397 26.022 21.505 C 26.020 18.815,26.000 16.085,25.978 15.440 C 25.941 14.351,25.928 14.243,25.801 13.938 C 25.368 12.896,24.404 12.159,23.299 12.025 L 22.998 11.989 22.972 10.408 C 22.944 8.726,22.918 8.520,22.638 7.703 C 22.248 6.568,21.658 5.703,20.654 4.792 C 19.861 4.074,18.824 3.516,17.775 3.244 C 17.205 3.096,17.053 3.079,16.133 3.061 C 15.261 3.044,15.050 3.056,14.613 3.150 M16.601 5.068 C 18.481 5.246,20.153 6.571,20.743 8.351 C 20.888 8.788,20.919 8.982,20.961 9.698 C 20.988 10.157,21.011 10.863,21.012 11.267 L 21.013 12.000 15.992 12.000 L 10.970 12.000 11.006 10.600 C 11.046 9.069,11.094 8.726,11.362 8.084 C 12.114 6.277,13.837 5.098,15.840 5.021 C 15.943 5.017,16.285 5.038,16.601 5.068 M23.004 14.072 L 23.475 14.108 23.711 14.357 L 23.947 14.607 23.947 20.502 L 23.947 26.396 23.783 26.583 C 23.693 26.685,23.539 26.819,23.441 26.880 L 23.262 26.990 15.964 26.975 C 8.801 26.960,8.663 26.958,8.492 26.854 C 8.396 26.796,8.254 26.657,8.175 26.544 L 8.033 26.338 8.030 20.542 C 8.027 14.849,8.029 14.743,8.133 14.537 C 8.315 14.179,8.454 14.115,9.134 14.077 C 9.950 14.032,22.415 14.027,23.004 14.072 M15.540 17.064 C 14.994 17.194,14.482 17.607,14.229 18.122 C 13.819 18.954,14.064 20.065,14.770 20.570 L 14.979 20.720 14.996 22.000 C 15.013 23.235,15.018 23.287,15.138 23.481 C 15.550 24.143,16.382 24.167,16.826 23.529 L 16.987 23.298 17.004 22.009 L 17.021 20.720 17.230 20.570 C 17.494 20.381,17.740 20.026,17.878 19.636 C 18.027 19.212,17.995 18.598,17.800 18.174 C 17.634 17.811,17.244 17.408,16.896 17.238 C 16.506 17.047,15.924 16.972,15.540 17.064 " fill="#1A1C1F" stroke="none" fill-rule="evenodd"></path></svg>