<svg width="14" height="14" viewBox="0 0 14 14" fill="none" xmlns="http://www.w3.org/2000/svg"><path d="M6.603 1.433 C 6.184 1.508,5.867 1.621,5.567 1.804 C 5.053 2.116,4.666 2.558,4.433 3.099 C 4.231 3.567,4.201 3.796,4.200 4.859 L 4.200 5.623 4.112 5.624 C 3.961 5.624,3.734 5.691,3.542 5.791 C 3.243 5.946,3.029 6.193,2.873 6.562 L 2.812 6.708 2.812 9.065 C 2.812 11.245,2.815 11.433,2.853 11.571 C 2.913 11.790,3.021 11.974,3.188 12.146 C 3.375 12.337,3.563 12.459,3.783 12.532 L 3.955 12.588 7.000 12.588 L 10.045 12.588 10.217 12.532 C 10.655 12.387,11.028 12.002,11.147 11.571 C 11.185 11.433,11.188 11.245,11.188 9.065 L 11.188 6.708 11.136 6.578 C 10.964 6.155,10.687 5.876,10.262 5.697 L 10.115 5.636 7.855 5.628 L 5.595 5.620 5.606 4.787 C 5.619 3.865,5.623 3.840,5.777 3.545 C 6.056 3.015,6.687 2.714,7.268 2.835 C 7.647 2.914,7.992 3.162,8.189 3.497 C 8.239 3.582,8.320 3.766,8.367 3.906 C 8.476 4.221,8.553 4.327,8.751 4.429 C 8.892 4.502,8.914 4.507,9.088 4.499 C 9.307 4.489,9.418 4.443,9.555 4.305 C 9.804 4.057,9.817 3.749,9.600 3.181 C 9.264 2.302,8.463 1.639,7.519 1.458 C 7.262 1.409,6.809 1.396,6.603 1.433 M9.800 9.112 L 9.800 11.200 7.000 11.200 L 4.200 11.200 4.200 9.112 L 4.200 7.023 7.000 7.023 L 9.800 7.023 9.800 9.112 M6.848 7.720 C 6.636 7.776,6.467 7.909,6.377 8.091 L 6.312 8.225 6.312 9.088 C 6.312 9.747,6.319 9.972,6.343 10.039 C 6.385 10.160,6.583 10.369,6.714 10.433 C 6.867 10.507,7.133 10.507,7.286 10.433 C 7.417 10.369,7.615 10.160,7.657 10.039 C 7.681 9.972,7.688 9.747,7.688 9.088 C 7.688 8.305,7.684 8.217,7.646 8.135 C 7.583 8.000,7.410 7.828,7.282 7.773 C 7.154 7.718,6.952 7.693,6.848 7.720 " fill="#1A1C1F" stroke="none" fill-rule="evenodd"></path></svg>