<svg width="12" height="12" viewBox="0 0 12 12" fill="none" xmlns="http://www.w3.org/2000/svg"><path d="M5.737 1.522 C 5.134 1.595,4.547 1.908,4.180 2.350 C 3.856 2.740,3.679 3.143,3.621 3.619 C 3.609 3.713,3.600 3.948,3.600 4.142 L 3.600 4.496 3.470 4.518 C 3.157 4.573,2.946 4.677,2.751 4.871 C 2.612 5.011,2.515 5.170,2.459 5.352 L 2.410 5.510 2.410 7.510 L 2.410 9.510 2.466 9.673 C 2.596 10.052,2.867 10.310,3.284 10.451 L 3.427 10.500 6.000 10.500 L 8.573 10.500 8.716 10.451 C 9.133 10.310,9.404 10.052,9.534 9.673 L 9.590 9.510 9.590 7.490 L 9.590 5.470 9.532 5.320 C 9.460 5.133,9.375 4.998,9.248 4.872 C 9.075 4.698,8.820 4.564,8.600 4.531 C 8.550 4.524,8.487 4.513,8.458 4.508 L 8.406 4.498 8.394 4.024 C 8.384 3.605,8.377 3.528,8.333 3.355 C 8.155 2.667,7.734 2.125,7.119 1.794 C 6.722 1.579,6.164 1.470,5.737 1.522 M6.386 2.777 C 6.749 2.907,7.037 3.210,7.150 3.580 C 7.174 3.660,7.186 3.800,7.194 4.095 L 7.206 4.500 6.000 4.500 L 4.795 4.500 4.804 4.095 C 4.814 3.725,4.819 3.677,4.867 3.535 C 5.001 3.140,5.294 2.864,5.700 2.751 C 5.859 2.707,6.230 2.721,6.386 2.777 M6.236 6.351 C 6.345 6.397,6.445 6.488,6.516 6.606 L 6.582 6.715 6.576 7.513 C 6.570 8.302,6.570 8.311,6.525 8.383 C 6.461 8.486,6.333 8.596,6.224 8.643 C 5.968 8.752,5.647 8.644,5.494 8.397 C 5.409 8.259,5.394 8.089,5.406 7.359 C 5.415 6.771,5.418 6.722,5.457 6.646 C 5.537 6.488,5.649 6.389,5.818 6.327 C 5.903 6.295,6.133 6.308,6.236 6.351 " fill="#1A1C1F" stroke="none" fill-rule="evenodd"></path></svg>