<svg xmlns="http://www.w3.org/2000/svg" width="32" height="32" fill="none"><path fill="#1A1C1F" fill-rule="evenodd" d="M15.04 2.561c-2.618.367-4.87 2.193-5.68 4.606-.297.886-.313 1.035-.344 3.26l-.029 2.08-.347.034c-1.16.116-2.153.948-2.51 2.105l-.13.421V26.96l.118.373a3.09 3.09 0 0 0 2.173 2.079c.277.071 1.276.081 7.708.081 7.311 0 7.394-.001 7.789-.11.219-.061.531-.185.692-.276.412-.233.951-.796 1.161-1.214.377-.747.353-.326.372-6.586.011-3.515-.002-5.818-.035-6.087-.147-1.207-.819-2.079-1.951-2.532l-.32-.128-6.347-.027-6.347-.026.005-1.947c.005-1.821.013-1.974.121-2.373.478-1.765 1.815-3.065 3.628-3.528.638-.163 1.61-.182 2.273-.045 1.944.403 3.393 1.816 3.846 3.752.112.479.175.644.302.789.494.563 1.302.465 1.641-.2.125-.245.131-.5.024-1.011-.487-2.313-2.264-4.287-4.56-5.065-.885-.3-2.353-.444-3.253-.318m8.498 12.106c.115.077.253.244.33.397l.132.264-.001 5.682c-.001 5.399-.006 5.694-.099 5.899-.12.263-.37.482-.635.555-.132.037-2.561.056-7.242.056-7.824 0-7.429.018-7.749-.346a1.2 1.2 0 0 1-.221-.386c-.041-.142-.054-1.897-.042-5.935l.016-5.733.121-.195a1 1 0 0 1 .347-.307l.225-.112 7.311.014 7.31.013zm-7.985 2.882a3 3 0 0 0-.521.22c-1.205.642-1.375 2.319-.329 3.237l.282.247.001 1.167c.001 1.321.034 1.507.324 1.797.519.518 1.428.29 1.638-.411.043-.143.066-.62.066-1.386l.001-1.167.289-.254c.496-.434.767-1.161.667-1.788a1.995 1.995 0 0 0-1.839-1.691 2.5 2.5 0 0 0-.579.029"/></svg>