<svg xmlns="http://www.w3.org/2000/svg" width="28" height="28" fill="none"><g clip-path="url(#a)"><path fill="#1A1C1F" fill-rule="evenodd" d="M14 2.186c3.06 0 5.645 2.206 6.065 5.148a.875.875 0 1 1-1.732.247C18.037 5.508 16.195 3.936 14 3.936c-2.358 0-4.372 1.825-4.376 4.23v2.772h10.5a2.625 2.625 0 0 1 2.626 2.625v9.625c0 1.398-1.15 2.625-2.625 2.625H7.875a2.625 2.625 0 0 1-2.626-2.625v-9.625a2.625 2.625 0 0 1 2.625-2.625V8.167c0-3.309 2.748-5.98 6.126-5.98m6.125 10.502H7.875c-.575 0-.875.354-.876.875v9.625c0 .449.36.875.875.875q6.126.003 12.25 0a.88.88 0 0 0 .876-.875v-9.625a.875.875 0 0 0-.875-.875m-6.126 2.625a1.75 1.75 0 0 1 .876 3.265v1.996a.875.875 0 0 1-1.75 0V18.58a1.75 1.75 0 0 1 .874-3.266" clip-rule="evenodd"/></g><defs><clipPath id="a"><path fill="#fff" d="M0 0h28v28H0z"/></clipPath></defs></svg>