<svg xmlns="http://www.w3.org/2000/svg" width="14" height="14" fill="none"><g clip-path="url(#a)"><path fill="#1A1C1F" fill-rule="evenodd" d="M7 1.756a2.81 2.81 0 0 1 2.8 2.8v.7a1.4 1.4 0 0 1 1.4 1.4v4.188a1.4 1.4 0 0 1-1.4 1.4H4.2a1.4 1.4 0 0 1-1.4-1.4V6.656a1.4 1.4 0 0 1 1.4-1.4v-.7a2.8 2.8 0 0 1 2.8-2.8m2.8 4.9H4.2v4.188h5.6zM7 7.344a.7.7 0 0 1 .695.618l.005.082v1.397a.7.7 0 0 1-1.395.081L6.3 9.441V8.044a.7.7 0 0 1 .7-.7m0-4.188c-.738 0-1.398.594-1.4 1.4v.7h2.8v-.7a1.4 1.4 0 0 0-1.4-1.4" clip-rule="evenodd"/></g><defs><clipPath id="a"><path fill="#fff" d="M0 0h14v14H0z"/></clipPath></defs></svg>