<svg width="20" height="20" viewBox="0 0 20 20" fill="none" xmlns="http://www.w3.org/2000/svg"><path d="M9.583 2.537 C 8.127 2.706,6.876 3.635,6.316 4.964 C 6.076 5.532,6.000 6.001,6.000 6.904 L 6.000 7.493 5.784 7.531 C 5.435 7.592,5.159 7.690,4.938 7.833 C 4.539 8.091,4.240 8.472,4.098 8.904 L 4.017 9.150 4.017 12.517 L 4.017 15.883 4.126 16.167 C 4.366 16.793,4.792 17.187,5.481 17.421 L 5.712 17.500 10.000 17.500 L 14.288 17.500 14.527 17.419 C 15.223 17.182,15.666 16.759,15.890 16.117 L 15.983 15.850 15.983 12.483 L 15.983 9.117 15.887 8.867 C 15.603 8.128,15.034 7.666,14.247 7.535 L 14.010 7.496 13.991 6.706 C 13.973 6.011,13.961 5.878,13.887 5.591 C 13.594 4.449,12.887 3.540,11.866 2.989 C 11.206 2.633,10.298 2.453,9.583 2.537 M10.485 4.584 C 11.021 4.722,11.531 5.130,11.776 5.617 C 11.942 5.949,11.971 6.109,11.991 6.825 L 12.010 7.500 10.000 7.500 L 7.991 7.500 8.009 6.825 C 8.029 6.081,8.056 5.943,8.254 5.567 C 8.492 5.117,8.991 4.715,9.475 4.585 C 9.711 4.521,10.238 4.521,10.485 4.584 M14.000 12.500 L 14.000 15.500 10.000 15.500 L 6.000 15.500 6.000 12.500 L 6.000 9.500 10.000 9.500 L 14.000 9.500 14.000 12.500 M9.696 10.544 C 9.404 10.653,9.228 10.814,9.079 11.109 L 8.995 11.274 9.006 12.512 C 9.019 13.885,9.014 13.855,9.249 14.125 C 9.317 14.203,9.442 14.308,9.528 14.359 C 9.668 14.441,9.715 14.450,10.000 14.450 C 10.285 14.450,10.332 14.441,10.472 14.359 C 10.558 14.308,10.683 14.203,10.751 14.125 C 10.978 13.864,10.980 13.856,10.994 12.767 C 11.011 11.458,10.992 11.223,10.855 10.995 C 10.735 10.795,10.523 10.619,10.341 10.568 C 10.120 10.507,9.825 10.496,9.696 10.544 " fill="#1A1C1F" stroke="none" fill-rule="evenodd"></path></svg>