<svg width="32" height="32" viewBox="0 0 32 32" fill="none" xmlns="http://www.w3.org/2000/svg"><path d="M14.880 2.595 C 12.364 2.980,10.139 4.843,9.344 7.229 C 9.084 8.007,9.061 8.233,9.014 10.427 C 8.990 11.571,8.967 12.513,8.965 12.520 C 8.962 12.527,8.882 12.534,8.787 12.534 C 8.152 12.537,7.360 12.911,6.855 13.446 C 6.483 13.841,6.298 14.158,6.099 14.743 L 5.973 15.112 5.973 21.020 L 5.973 26.928 6.137 27.381 C 6.563 28.556,7.506 29.335,8.643 29.449 C 8.909 29.475,12.335 29.490,16.360 29.481 L 23.600 29.466 23.985 29.323 C 24.476 29.141,24.744 28.955,25.183 28.491 C 25.590 28.059,25.841 27.591,25.932 27.093 C 25.978 26.840,25.996 25.175,25.997 20.933 C 26.000 15.451,25.994 15.100,25.902 14.773 C 25.650 13.879,25.082 13.206,24.228 12.789 L 23.760 12.561 17.400 12.542 L 11.040 12.522 11.041 10.595 C 11.042 8.479,11.064 8.265,11.357 7.562 C 11.903 6.252,12.998 5.251,14.415 4.768 C 15.264 4.479,16.524 4.459,17.413 4.719 C 19.187 5.238,20.377 6.483,20.880 8.346 C 21.050 8.978,21.116 9.116,21.334 9.299 C 21.815 9.704,22.537 9.532,22.821 8.945 C 22.958 8.661,22.960 8.477,22.830 7.893 C 22.538 6.578,21.996 5.608,20.994 4.608 C 19.707 3.325,18.424 2.733,16.560 2.561 C 15.815 2.492,15.509 2.498,14.880 2.595 M20.740 14.542 L 23.426 14.578 23.582 14.709 C 23.668 14.781,23.799 14.959,23.872 15.105 L 24.006 15.368 23.990 21.084 L 23.973 26.800 23.847 27.004 C 23.777 27.116,23.623 27.272,23.504 27.350 L 23.288 27.493 16.537 27.509 C 12.590 27.518,9.537 27.504,9.185 27.474 C 8.510 27.417,8.397 27.368,8.173 27.029 L 8.027 26.808 8.007 23.391 C 7.997 21.511,8.006 18.862,8.027 17.503 L 8.066 15.033 8.199 14.874 C 8.273 14.787,8.420 14.670,8.526 14.614 C 8.713 14.515,8.892 14.511,13.387 14.509 C 15.953 14.508,19.262 14.523,20.740 14.542 M15.164 17.707 C 14.738 17.916,14.376 18.271,14.196 18.655 C 14.071 18.922,14.053 19.026,14.053 19.493 C 14.053 19.975,14.069 20.058,14.209 20.347 C 14.302 20.536,14.491 20.788,14.671 20.963 L 14.976 21.258 14.996 22.509 C 15.017 23.868,15.029 23.927,15.342 24.223 C 15.755 24.614,16.438 24.556,16.794 24.101 C 16.971 23.874,17.011 23.557,17.012 22.363 L 17.013 21.232 17.200 21.090 C 17.910 20.548,18.176 19.457,17.792 18.654 C 17.607 18.267,17.259 17.916,16.866 17.724 C 16.602 17.594,16.486 17.571,16.027 17.559 C 15.525 17.545,15.474 17.554,15.164 17.707 " fill="#1A1C1F" stroke="none" fill-rule="evenodd"></path></svg>