<svg width="12" height="12" viewBox="0 0 12 12" fill="none" xmlns="http://www.w3.org/2000/svg"><path d="M5.770 1.214 C 5.627 1.231,5.380 1.285,5.260 1.324 C 4.542 1.557,3.959 2.139,3.721 2.860 C 3.620 3.167,3.616 3.209,3.606 4.035 L 3.596 4.820 3.523 4.820 C 3.395 4.821,3.200 4.878,3.036 4.963 C 2.779 5.097,2.596 5.308,2.463 5.624 L 2.410 5.750 2.410 7.770 C 2.410 9.639,2.413 9.800,2.445 9.918 C 2.496 10.102,2.587 10.260,2.727 10.406 C 2.886 10.572,3.056 10.681,3.252 10.741 L 3.410 10.790 6.000 10.790 L 8.590 10.790 8.748 10.741 C 9.086 10.637,9.400 10.345,9.521 10.023 C 9.593 9.830,9.602 9.554,9.596 7.610 L 9.590 5.750 9.545 5.638 C 9.398 5.276,9.160 5.036,8.796 4.883 L 8.670 4.831 6.732 4.824 L 4.794 4.817 4.807 4.086 C 4.822 3.250,4.829 3.212,5.009 2.942 C 5.125 2.766,5.266 2.642,5.460 2.542 C 5.624 2.458,5.722 2.430,5.920 2.410 C 6.321 2.370,6.775 2.601,7.007 2.964 C 7.047 3.026,7.117 3.186,7.163 3.321 C 7.265 3.620,7.327 3.706,7.501 3.797 C 7.622 3.859,7.640 3.863,7.790 3.856 C 7.977 3.848,8.073 3.808,8.190 3.690 C 8.406 3.475,8.414 3.190,8.220 2.705 C 7.939 2.006,7.328 1.472,6.590 1.282 C 6.341 1.218,5.978 1.187,5.770 1.214 M6.252 6.669 C 6.375 6.724,6.480 6.825,6.537 6.944 C 6.579 7.030,6.580 7.057,6.580 7.800 C 6.580 8.532,6.578 8.571,6.539 8.652 C 6.490 8.754,6.327 8.911,6.225 8.954 C 6.125 8.997,5.875 8.997,5.775 8.954 C 5.670 8.909,5.510 8.753,5.456 8.643 C 5.412 8.552,5.411 8.537,5.411 7.810 C 5.410 7.213,5.416 7.056,5.439 7.000 C 5.490 6.873,5.580 6.762,5.674 6.706 C 5.869 6.592,6.054 6.580,6.252 6.669 " fill="#1A1C1F" stroke="none" fill-rule="evenodd"></path></svg>