<svg width="16" height="16" viewBox="0 0 16 16" fill="none" xmlns="http://www.w3.org/2000/svg"><path d="M7.667 2.029 C 6.501 2.165,5.501 2.908,5.053 3.971 C 4.861 4.425,4.800 4.801,4.800 5.523 L 4.800 5.995 4.627 6.025 C 4.211 6.097,3.928 6.236,3.671 6.493 C 3.486 6.679,3.371 6.862,3.287 7.106 L 3.213 7.320 3.213 10.013 L 3.213 12.707 3.300 12.933 C 3.491 13.430,3.817 13.735,4.371 13.934 L 4.553 14.000 8.000 14.000 L 11.447 14.000 11.629 13.934 C 12.183 13.735,12.509 13.430,12.700 12.933 L 12.787 12.707 12.787 10.000 L 12.787 7.293 12.710 7.093 C 12.570 6.730,12.364 6.469,12.066 6.279 C 11.893 6.168,11.639 6.067,11.467 6.042 C 11.401 6.032,11.315 6.018,11.277 6.011 L 11.208 5.997 11.193 5.365 C 11.179 4.806,11.170 4.703,11.110 4.473 C 10.873 3.556,10.311 2.833,9.493 2.392 C 8.965 2.107,8.239 1.963,7.667 2.029 M8.515 3.702 C 8.999 3.877,9.381 4.278,9.533 4.773 C 9.567 4.882,9.582 5.061,9.593 5.460 L 9.607 6.000 8.000 6.000 L 6.393 6.000 6.407 5.460 C 6.423 4.876,6.443 4.765,6.593 4.467 C 6.710 4.233,7.049 3.907,7.307 3.780 C 7.582 3.645,7.671 3.628,8.040 3.638 C 8.281 3.644,8.398 3.660,8.515 3.702 M11.200 10.000 L 11.200 12.400 8.000 12.400 L 4.800 12.400 4.800 10.000 L 4.800 7.600 8.000 7.600 L 11.200 7.600 11.200 10.000 M7.770 8.428 C 7.614 8.476,7.429 8.623,7.320 8.787 L 7.213 8.947 7.213 9.973 C 7.213 11.115,7.209 11.081,7.399 11.300 C 7.453 11.363,7.554 11.447,7.622 11.487 C 7.734 11.553,7.772 11.560,8.000 11.560 C 8.228 11.560,8.266 11.553,8.378 11.487 C 8.446 11.447,8.547 11.363,8.601 11.300 C 8.783 11.091,8.784 11.085,8.795 10.213 C 8.808 9.167,8.794 8.978,8.684 8.796 C 8.588 8.636,8.418 8.495,8.273 8.455 C 8.121 8.413,7.863 8.399,7.770 8.428 " fill="#1A1C1F" stroke="none" fill-rule="evenodd"></path></svg>