<svg xmlns="http://www.w3.org/2000/svg" width="12" height="12" fill="none"><g clip-path="url(#a)"><path fill="#1A1C1F" fill-rule="evenodd" d="M6 1.2a2.4 2.4 0 0 1 2.36 1.962.6.6 0 0 1-1.164.286C7.076 2.803 6.581 2.4 6 2.4c-.632 0-1.198.51-1.2 1.2v1.21h3.6a1.2 1.2 0 0 1 1.2 1.2V9.6a1.2 1.2 0 0 1-1.2 1.2H3.6a1.2 1.2 0 0 1-1.2-1.2V6.01a1.2 1.2 0 0 1 1.2-1.2V3.6A2.4 2.4 0 0 1 6 1.2m2.4 4.81H3.6V9.6h4.8zM6 6.6a.6.6 0 0 1 .596.53l.004.07v1.197a.6.6 0 0 1-1.196.07l-.004-.07V7.2a.6.6 0 0 1 .6-.6" clip-rule="evenodd"/></g><defs><clipPath id="a"><path fill="#fff" d="M0 0h12v12H0z"/></clipPath></defs></svg>