<svg xmlns="http://www.w3.org/2000/svg" width="20" height="20" fill="none"><g clip-path="url(#a)"><path fill="#1A1C1F" fill-rule="evenodd" d="M10 2a4 4 0 0 1 3.933 3.27 1 1 0 0 1-1.94.476l-.027-.113a2 2 0 0 0-3.96.217L8.001 6v2.017H14a2 2 0 0 1 2 2V16a2 2 0 0 1-2 2H6a2 2 0 0 1-2-2v-5.983a2 2 0 0 1 2-2V6A4 4 0 0 1 10 2m0 9a1 1 0 0 0-.993.883L9 12v1.995l.007.117a1 1 0 0 0 1.986 0l.007-.117V12l-.007-.117A1 1 0 0 0 10 11" clip-rule="evenodd"/></g><defs><clipPath id="a"><path fill="#fff" d="M0 0h20v20H0z"/></clipPath></defs></svg>