<svg xmlns="http://www.w3.org/2000/svg" width="20" height="20" fill="none"><g clip-path="url(#a)"><path fill="#1A1C1F" fill-rule="evenodd" d="M10 2a4 4 0 0 1 3.933 3.27 1 1 0 0 1-1.94.476C11.794 4.672 10.969 4 10 4a2.003 2.003 0 0 0-2 2v2.017h6a2 2 0 0 1 2 2V16a2 2 0 0 1-2 2H6a2 2 0 0 1-2-2v-5.983a2 2 0 0 1 2-2V6A4 4 0 0 1 10 2m4 8.017H6V16h8zM10 11a1 1 0 0 1 .993.883L11 12v1.995a1 1 0 0 1-1.993.117L9 13.995V12a1 1 0 0 1 1-1" clip-rule="evenodd"/></g><defs><clipPath id="a"><path fill="#fff" d="M0 0h20v20H0z"/></clipPath></defs></svg>