<svg xmlns="http://www.w3.org/2000/svg" width="20" height="20" fill="none"><g clip-path="url(#a)"><path fill="#1A1C1F" fill-rule="evenodd" d="M10 2.509c2.142 0 3.995 1.742 4 4q.002 1 0 1a2 2 0 0 1 2 2v5.982a2 2 0 0 1-2 2H6a2 2 0 0 1-2-2V9.51a2 2 0 0 1 2-2v-1a4 4 0 0 1 4-4m4 7H6v5.982h8zm-4 .982a1 1 0 0 1 .993.884l.007.116v1.995a1 1 0 0 1-1.993.117L9 13.486v-1.995a1 1 0 0 1 1-1m0-5.982a2.004 2.004 0 0 0-2 2q-.002 1 0 1h4v-1a2 2 0 0 0-2-2" clip-rule="evenodd"/></g><defs><clipPath id="a"><path fill="#fff" d="M0 0h20v20H0z"/></clipPath></defs></svg>