<svg width="12" height="12" viewBox="0 0 12 12" fill="none" xmlns="http://www.w3.org/2000/svg"><path d="M5.770 1.214 C 5.627 1.231,5.380 1.285,5.260 1.324 C 4.542 1.557,3.959 2.139,3.721 2.860 C 3.620 3.167,3.616 3.209,3.606 4.035 L 3.596 4.820 3.523 4.820 C 3.395 4.821,3.200 4.878,3.036 4.963 C 2.779 5.097,2.596 5.308,2.463 5.624 L 2.410 5.750 2.410 7.770 C 2.410 9.639,2.413 9.800,2.445 9.918 C 2.496 10.102,2.587 10.260,2.727 10.406 C 2.886 10.572,3.056 10.681,3.252 10.741 L 3.410 10.790 6.000 10.790 L 8.590 10.790 8.748 10.741 C 9.086 10.637,9.400 10.345,9.521 10.023 C 9.593 9.830,9.602 9.554,9.596 7.610 L 9.590 5.750 9.545 5.638 C 9.398 5.276,9.160 5.036,8.796 4.883 L 8.670 4.831 6.733 4.824 L 4.796 4.817 4.805 4.103 C 4.813 3.500,4.820 3.373,4.849 3.280 C 4.911 3.085,5.022 2.899,5.161 2.760 C 5.532 2.389,6.080 2.302,6.539 2.541 C 6.840 2.697,7.034 2.945,7.172 3.348 C 7.265 3.618,7.331 3.709,7.501 3.797 C 7.622 3.859,7.640 3.863,7.790 3.856 C 7.977 3.848,8.073 3.808,8.190 3.690 C 8.406 3.475,8.414 3.190,8.220 2.705 C 7.939 2.006,7.328 1.472,6.590 1.282 C 6.341 1.218,5.978 1.187,5.770 1.214 M8.400 7.810 L 8.400 9.600 6.000 9.600 L 3.600 9.600 3.600 7.810 L 3.600 6.020 6.000 6.020 L 8.400 6.020 8.400 7.810 M5.870 6.618 C 5.690 6.665,5.542 6.781,5.466 6.936 L 5.410 7.050 5.410 7.800 C 5.410 8.545,5.410 8.551,5.457 8.644 C 5.512 8.755,5.671 8.909,5.775 8.954 C 5.875 8.997,6.125 8.997,6.225 8.954 C 6.329 8.909,6.488 8.755,6.543 8.644 C 6.590 8.551,6.590 8.545,6.590 7.800 C 6.590 7.061,6.589 7.049,6.545 6.959 C 6.483 6.835,6.369 6.723,6.250 6.668 C 6.139 6.617,5.962 6.593,5.870 6.618 " fill="#1A1C1F" stroke="none" fill-rule="evenodd"></path></svg>