<svg width="16" height="16" viewBox="0 0 16 16" fill="none" xmlns="http://www.w3.org/2000/svg"><path d="M7.560 1.639 C 6.940 1.737,6.464 1.946,5.979 2.335 C 5.424 2.780,5.047 3.395,4.862 4.160 C 4.829 4.297,4.818 4.552,4.808 5.380 L 4.795 6.427 4.698 6.427 C 4.527 6.428,4.266 6.504,4.048 6.618 C 3.696 6.801,3.456 7.083,3.277 7.524 L 3.197 7.719 3.206 10.399 C 3.215 12.853,3.219 13.093,3.262 13.238 C 3.333 13.481,3.458 13.690,3.644 13.881 C 3.857 14.099,4.073 14.239,4.324 14.322 L 4.520 14.387 7.987 14.387 L 11.453 14.387 11.663 14.322 C 11.915 14.244,12.128 14.111,12.328 13.908 C 12.617 13.615,12.731 13.376,12.773 12.978 C 12.788 12.839,12.799 11.647,12.800 10.223 L 12.800 7.712 12.722 7.521 C 12.517 7.017,12.197 6.695,11.709 6.502 L 11.560 6.443 8.976 6.432 L 6.391 6.422 6.409 5.449 C 6.426 4.504,6.428 4.470,6.493 4.285 C 6.742 3.568,7.498 3.110,8.241 3.225 C 8.679 3.293,9.117 3.591,9.369 3.993 C 9.408 4.054,9.490 4.251,9.551 4.430 C 9.687 4.826,9.769 4.942,10.001 5.062 C 10.162 5.146,10.187 5.151,10.387 5.142 C 10.637 5.130,10.764 5.077,10.921 4.921 C 11.154 4.688,11.204 4.394,11.082 3.971 C 10.887 3.290,10.535 2.747,10.023 2.336 C 9.503 1.919,8.941 1.688,8.295 1.627 C 7.949 1.594,7.833 1.596,7.560 1.639 M8.335 8.892 C 8.494 8.963,8.643 9.108,8.719 9.265 C 8.771 9.371,8.773 9.426,8.773 10.400 C 8.773 11.376,8.771 11.428,8.719 11.536 C 8.653 11.672,8.436 11.881,8.299 11.939 C 8.167 11.996,7.833 11.996,7.701 11.939 C 7.560 11.879,7.346 11.670,7.275 11.524 C 7.216 11.402,7.215 11.383,7.214 10.400 L 7.213 9.400 7.279 9.268 C 7.480 8.863,7.920 8.706,8.335 8.892 " fill="#1A1C1F" stroke="none" fill-rule="evenodd"></path></svg>