<svg xmlns="http://www.w3.org/2000/svg" width="16" height="16" fill="none"><g clip-path="url(#a)"><path fill="#1A1C1F" fill-rule="evenodd" d="M8 2.007a3.21 3.21 0 0 1 3.2 3.2v.8a1.6 1.6 0 0 1 1.6 1.6v4.786a1.6 1.6 0 0 1-1.6 1.6H4.8a1.6 1.6 0 0 1-1.6-1.6V7.607a1.6 1.6 0 0 1 1.6-1.6v-.8a3.2 3.2 0 0 1 3.2-3.2m3.2 5.6H4.8v4.786h6.4zM8 8.393a.8.8 0 0 1 .795.707l.005.093v1.596a.8.8 0 0 1-1.595.094l-.005-.094V9.193a.8.8 0 0 1 .8-.8m0-4.786c-.843 0-1.598.679-1.6 1.6v.8h3.2v-.8a1.6 1.6 0 0 0-1.6-1.6" clip-rule="evenodd"/></g><defs><clipPath id="a"><path fill="#fff" d="M0 0h16v16H0z"/></clipPath></defs></svg>