<svg width="20" height="20" viewBox="0 0 20 20" fill="none" xmlns="http://www.w3.org/2000/svg"><path d="M9.450 2.049 C 7.902 2.293,6.681 3.314,6.202 4.767 C 6.033 5.278,6.026 5.348,6.010 6.725 L 5.994 8.033 5.872 8.034 C 5.659 8.035,5.333 8.130,5.060 8.272 C 4.632 8.495,4.327 8.847,4.105 9.374 L 4.017 9.583 4.007 12.717 C 3.997 15.974,4.010 16.380,4.133 16.708 C 4.329 17.231,4.848 17.719,5.404 17.902 L 5.650 17.983 10.000 17.983 L 14.350 17.983 14.617 17.891 C 14.765 17.841,14.962 17.747,15.057 17.684 C 15.411 17.445,15.736 17.053,15.869 16.703 C 15.989 16.385,16.002 15.966,15.993 12.717 L 15.983 9.583 15.895 9.374 C 15.636 8.758,15.273 8.396,14.659 8.139 L 14.450 8.051 11.221 8.039 L 7.993 8.028 8.008 6.839 C 8.022 5.834,8.033 5.622,8.082 5.467 C 8.251 4.931,8.618 4.485,9.086 4.244 C 9.692 3.933,10.314 3.931,10.906 4.239 C 11.398 4.494,11.724 4.912,11.954 5.580 C 12.107 6.027,12.219 6.181,12.496 6.325 C 12.677 6.418,12.740 6.433,12.950 6.433 C 13.161 6.433,13.223 6.418,13.404 6.325 C 13.636 6.204,13.831 5.984,13.896 5.768 C 13.984 5.472,13.920 5.062,13.699 4.509 C 13.153 3.143,11.880 2.189,10.400 2.034 C 10.000 1.992,9.785 1.996,9.450 2.049 M14.000 13.017 L 14.000 16.000 10.000 16.000 L 6.000 16.000 6.000 13.017 L 6.000 10.033 10.000 10.033 L 14.000 10.033 14.000 13.017 M9.783 11.029 C 9.483 11.108,9.236 11.302,9.110 11.560 L 9.017 11.750 9.017 12.983 C 9.017 13.924,9.027 14.246,9.061 14.342 C 9.122 14.515,9.404 14.813,9.591 14.904 C 9.810 15.010,10.190 15.010,10.409 14.904 C 10.596 14.813,10.878 14.515,10.939 14.342 C 10.973 14.246,10.983 13.924,10.983 12.983 C 10.983 11.769,10.982 11.748,10.908 11.599 C 10.805 11.391,10.616 11.204,10.416 11.113 C 10.232 11.028,9.937 10.989,9.783 11.029 " fill="#1A1C1F" stroke="none" fill-rule="evenodd"></path></svg>