<svg xmlns="http://www.w3.org/2000/svg" width="32" height="32" fill="none"><path fill="#1A1C1F" fill-rule="evenodd" d="M15.44 3.019c-1.718.172-3.25.866-4.384 1.987-.953.942-1.507 1.907-1.871 3.261-.129.478-.138.595-.159 2.109l-.022 1.604-.435.062c-.608.087-1.234.4-1.666.834-.375.375-.564.678-.762 1.218L6 14.48v5.947c0 6.529-.016 6.192.332 6.928.248.524.765 1.042 1.307 1.309.749.369.354.353 8.536.337l7.372-.014.35-.12c.915-.311 1.62-1.021 1.955-1.97L26 26.48v-5.947c0-5.517-.007-5.971-.094-6.287a3.07 3.07 0 0 0-2.485-2.204l-.434-.064v-1.395c0-1.552-.053-2.006-.326-2.823-.357-1.065-.845-1.844-1.672-2.668-1.062-1.059-2.25-1.692-3.688-1.965-.447-.085-1.489-.145-1.861-.108m1.867 2.149c1.512.401 2.808 1.532 3.355 2.926.267.683.312 1.016.339 2.506l.025 1.4H10.975l.024-1.4c.018-1.094.044-1.486.118-1.793.441-1.836 1.936-3.284 3.814-3.693.62-.135 1.76-.109 2.376.054m6.162 8.966c.116.06.277.208.358.33l.146.222v11.642l-.143.216c-.086.13-.236.261-.377.33l-.233.113-7.224-.002c-6.98-.001-7.23-.004-7.446-.102a.93.93 0 0 1-.373-.328l-.15-.227-.015-5.737c-.016-6.228-.025-6.015.269-6.283.324-.295-.182-.277 7.708-.279 7.189-.002 7.271-.001 7.48.105m-8.029 2.951c-1.182.391-1.749 1.621-1.257 2.731.138.314.375.613.615.776l.188.128.001 1.227c.002 1.07.014 1.254.099 1.44.125.276.433.545.676.59.489.092.904-.106 1.119-.534.129-.258.132-.291.133-1.493v-1.23l.188-.128c.558-.38.892-1.219.764-1.915a2.03 2.03 0 0 0-1.154-1.491c-.364-.167-1.027-.215-1.372-.101"/></svg>