<svg width="20" height="20" viewBox="0 0 20 20" fill="none" xmlns="http://www.w3.org/2000/svg"><path d="M9.450 2.049 C 7.902 2.293,6.681 3.314,6.202 4.767 C 6.033 5.278,6.026 5.348,6.010 6.725 L 5.994 8.033 5.872 8.034 C 5.659 8.035,5.333 8.130,5.060 8.272 C 4.632 8.495,4.327 8.847,4.105 9.374 L 4.017 9.583 4.007 12.717 C 3.997 15.974,4.010 16.380,4.133 16.708 C 4.329 17.231,4.848 17.719,5.404 17.902 L 5.650 17.983 10.000 17.983 L 14.350 17.983 14.617 17.891 C 14.765 17.841,14.962 17.747,15.057 17.684 C 15.411 17.445,15.736 17.053,15.869 16.703 C 15.989 16.385,16.002 15.966,15.993 12.717 L 15.983 9.583 15.895 9.374 C 15.636 8.758,15.273 8.396,14.659 8.139 L 14.450 8.051 11.220 8.039 L 7.989 8.028 8.011 6.812 C 8.031 5.645,8.035 5.588,8.112 5.368 C 8.493 4.271,9.759 3.706,10.783 4.176 C 11.035 4.292,11.346 4.524,11.516 4.724 C 11.705 4.946,11.796 5.122,11.939 5.537 C 12.108 6.030,12.212 6.178,12.496 6.325 C 12.677 6.418,12.740 6.433,12.950 6.433 C 13.161 6.433,13.223 6.418,13.404 6.325 C 13.636 6.204,13.831 5.984,13.896 5.768 C 13.984 5.472,13.920 5.062,13.699 4.509 C 13.153 3.143,11.880 2.189,10.400 2.034 C 10.000 1.992,9.785 1.996,9.450 2.049 M10.419 11.115 C 10.617 11.204,10.804 11.386,10.899 11.581 C 10.963 11.714,10.967 11.783,10.967 13.000 C 10.967 14.220,10.964 14.285,10.899 14.420 C 10.816 14.590,10.545 14.851,10.374 14.924 C 10.209 14.994,9.791 14.994,9.626 14.924 C 9.450 14.849,9.183 14.588,9.094 14.405 C 9.020 14.253,9.019 14.228,9.018 13.000 L 9.017 11.750 9.097 11.586 C 9.347 11.080,9.900 10.882,10.419 11.115 " fill="#1A1C1F" stroke="none" fill-rule="evenodd"></path></svg>