<svg xmlns="http://www.w3.org/2000/svg" width="20" height="20" fill="none"><path fill="#1A1C1F" fill-rule="evenodd" d="M9.574 2.536c-1.339.129-2.556.981-3.162 2.214C6.101 5.382 6 5.893 6 6.836v.661l-.125.018c-.599.088-.947.249-1.292.598-.27.275-.425.545-.517.907C4.003 9.268 4 9.4 4 12.5c0 3.112.002 3.232.067 3.483a2.01 2.01 0 0 0 1.316 1.409l.267.091h8.7l.267-.091a2.01 2.01 0 0 0 1.316-1.409c.065-.251.067-.371.067-3.483s-.002-3.232-.067-3.483A1.97 1.97 0 0 0 14.9 7.738c-.257-.126-.406-.169-.771-.222l-.121-.018-.017-.79c-.015-.705-.026-.828-.101-1.125-.429-1.684-1.805-2.876-3.519-3.048-.377-.038-.394-.038-.797.001m.959 2.053a2.06 2.06 0 0 1 1.243 1.015c.181.367.223.61.223 1.304L12 7.5H8l.001-.592c0-.39.017-.671.049-.825.232-1.103 1.384-1.797 2.483-1.494m-.08 6.02q.283.145.455.467c.074.139.075.157.075 1.407 0 1.433.008 1.387-.269 1.684-.402.429-1.041.421-1.442-.018-.27-.295-.278-.342-.266-1.737l.011-1.195.088-.167c.115-.215.266-.358.495-.466.159-.076.217-.086.433-.075.185.01.294.036.42.1"/></svg>