<svg width="14" height="14" viewBox="0 0 14 14" fill="none" xmlns="http://www.w3.org/2000/svg"><path d="M6.708 1.776 C 5.688 1.894,4.814 2.543,4.421 3.475 C 4.254 3.872,4.200 4.201,4.200 4.831 L 4.200 5.242 3.961 5.292 C 3.656 5.356,3.430 5.468,3.246 5.648 C 3.059 5.830,2.953 5.993,2.876 6.218 L 2.812 6.405 2.812 8.762 L 2.812 11.118 2.888 11.317 C 3.056 11.755,3.355 12.031,3.837 12.195 L 3.998 12.250 7.000 12.250 L 10.002 12.250 10.169 12.193 C 10.656 12.027,10.966 11.731,11.123 11.282 L 11.188 11.095 11.188 8.750 L 11.188 6.405 11.124 6.222 C 10.940 5.703,10.533 5.368,9.973 5.275 L 9.807 5.247 9.793 4.694 C 9.781 4.208,9.773 4.114,9.721 3.914 C 9.515 3.113,9.023 2.479,8.306 2.093 C 7.844 1.843,7.209 1.717,6.708 1.776 M7.339 3.209 C 7.717 3.305,8.069 3.587,8.243 3.932 C 8.361 4.166,8.380 4.276,8.394 4.777 L 8.406 5.250 7.000 5.250 L 5.594 5.250 5.607 4.777 C 5.621 4.275,5.640 4.161,5.750 3.941 C 5.933 3.577,6.253 3.318,6.650 3.211 C 6.819 3.165,7.165 3.164,7.339 3.209 M7.276 7.410 C 7.402 7.463,7.519 7.570,7.602 7.707 L 7.679 7.835 7.672 8.765 C 7.665 9.686,7.664 9.696,7.612 9.780 C 7.368 10.173,6.861 10.250,6.536 9.944 C 6.472 9.884,6.395 9.783,6.365 9.718 C 6.312 9.603,6.312 9.592,6.313 8.727 C 6.313 7.875,6.315 7.849,6.364 7.756 C 6.463 7.568,6.591 7.454,6.787 7.381 C 6.887 7.344,7.155 7.360,7.276 7.410 " fill="#1A1C1F" stroke="none" fill-rule="evenodd"></path></svg>