<svg width="14" height="14" viewBox="0 0 14 14" fill="none" xmlns="http://www.w3.org/2000/svg"><path d="M6.603 1.433 C 6.184 1.508,5.867 1.621,5.567 1.804 C 5.053 2.116,4.666 2.558,4.433 3.099 C 4.231 3.567,4.201 3.796,4.200 4.859 L 4.200 5.623 4.112 5.624 C 3.961 5.624,3.734 5.691,3.542 5.791 C 3.243 5.946,3.029 6.193,2.873 6.562 L 2.812 6.708 2.812 9.065 C 2.812 11.245,2.815 11.433,2.853 11.571 C 2.913 11.790,3.021 11.974,3.188 12.146 C 3.375 12.337,3.563 12.459,3.783 12.532 L 3.955 12.588 7.000 12.588 L 10.045 12.588 10.217 12.532 C 10.655 12.387,11.028 12.002,11.147 11.571 C 11.185 11.433,11.188 11.245,11.188 9.065 L 11.188 6.708 11.136 6.578 C 10.964 6.155,10.687 5.876,10.262 5.697 L 10.115 5.636 7.854 5.628 L 5.593 5.620 5.607 4.769 C 5.622 3.952,5.625 3.912,5.678 3.757 C 5.945 2.990,6.831 2.594,7.548 2.923 C 7.736 3.010,7.952 3.175,8.081 3.332 C 8.198 3.473,8.282 3.643,8.376 3.927 C 8.471 4.216,8.555 4.328,8.751 4.429 C 8.892 4.502,8.914 4.507,9.088 4.499 C 9.307 4.489,9.418 4.443,9.555 4.305 C 9.804 4.057,9.817 3.749,9.600 3.181 C 9.264 2.302,8.463 1.639,7.519 1.458 C 7.262 1.409,6.809 1.396,6.603 1.433 M7.293 7.780 C 7.432 7.843,7.563 7.970,7.629 8.107 C 7.674 8.200,7.677 8.248,7.677 9.100 C 7.677 9.954,7.674 10.000,7.629 10.094 C 7.571 10.213,7.381 10.396,7.262 10.447 C 7.146 10.496,6.854 10.496,6.738 10.447 C 6.615 10.394,6.428 10.212,6.366 10.084 C 6.314 9.977,6.313 9.960,6.312 9.112 C 6.312 8.415,6.318 8.233,6.345 8.167 C 6.405 8.019,6.510 7.889,6.620 7.824 C 6.847 7.691,7.063 7.677,7.293 7.780 " fill="#1A1C1F" stroke="none" fill-rule="evenodd"></path></svg>