<svg width="12" height="12" viewBox="0 0 12 12" fill="none" xmlns="http://www.w3.org/2000/svg"><path d="M5.737 1.522 C 5.134 1.595,4.547 1.908,4.180 2.350 C 3.856 2.740,3.679 3.143,3.621 3.619 C 3.609 3.713,3.600 3.948,3.600 4.142 L 3.600 4.496 3.470 4.518 C 3.157 4.573,2.946 4.677,2.751 4.871 C 2.612 5.011,2.515 5.170,2.459 5.352 L 2.410 5.510 2.410 7.510 L 2.410 9.510 2.466 9.673 C 2.596 10.052,2.867 10.310,3.284 10.451 L 3.427 10.500 6.000 10.500 L 8.573 10.500 8.716 10.451 C 9.133 10.310,9.404 10.052,9.534 9.673 L 9.590 9.510 9.590 7.490 L 9.590 5.470 9.532 5.320 C 9.460 5.133,9.375 4.998,9.248 4.872 C 9.075 4.698,8.820 4.564,8.600 4.531 C 8.550 4.524,8.487 4.513,8.458 4.508 L 8.406 4.498 8.394 4.024 C 8.384 3.605,8.377 3.528,8.333 3.355 C 8.155 2.667,7.734 2.125,7.119 1.794 C 6.722 1.579,6.164 1.470,5.737 1.522 M6.386 2.777 C 6.750 2.908,7.037 3.210,7.150 3.580 C 7.174 3.660,7.186 3.800,7.194 4.095 L 7.206 4.500 6.000 4.500 L 4.795 4.500 4.805 4.095 C 4.817 3.665,4.833 3.572,4.935 3.370 C 5.075 3.090,5.385 2.834,5.685 2.750 C 5.840 2.706,6.233 2.721,6.386 2.777 M8.400 7.500 L 8.400 9.300 6.000 9.300 L 3.600 9.300 3.600 7.500 L 3.600 5.700 6.000 5.700 L 8.400 5.700 8.400 7.500 M5.818 6.326 C 5.643 6.392,5.537 6.489,5.447 6.665 L 5.397 6.765 5.404 7.507 C 5.411 8.331,5.409 8.313,5.549 8.475 C 5.590 8.522,5.665 8.585,5.717 8.615 C 5.801 8.665,5.829 8.670,6.000 8.670 C 6.171 8.670,6.199 8.665,6.283 8.615 C 6.335 8.585,6.410 8.522,6.451 8.475 C 6.587 8.318,6.588 8.314,6.596 7.660 C 6.606 6.875,6.595 6.734,6.513 6.597 C 6.441 6.477,6.314 6.371,6.204 6.341 C 6.072 6.304,5.895 6.298,5.818 6.326 " fill="#1A1C1F" stroke="none" fill-rule="evenodd"></path></svg>