<svg xmlns="http://www.w3.org/2000/svg" width="12" height="12" fill="none"><g clip-path="url(#a)"><path fill="#1A1C1F" fill-rule="evenodd" d="M6 1.505a2.41 2.41 0 0 1 2.4 2.4v.6a1.2 1.2 0 0 1 1.2 1.2v3.59a1.2 1.2 0 0 1-1.2 1.2H3.6a1.2 1.2 0 0 1-1.2-1.2v-3.59a1.2 1.2 0 0 1 1.2-1.2v-.6a2.4 2.4 0 0 1 2.4-2.4m2.4 4.2H3.6v3.59h4.8zm-2.4.59a.6.6 0 0 1 .596.53l.004.07v1.197a.6.6 0 0 1-1.196.07l-.004-.07V6.895a.6.6 0 0 1 .6-.6m0-3.59c-.633 0-1.198.51-1.2 1.2v.6h2.4v-.6a1.2 1.2 0 0 0-1.2-1.2" clip-rule="evenodd"/></g><defs><clipPath id="a"><path fill="#fff" d="M0 0h12v12H0z"/></clipPath></defs></svg>