<svg width="16" height="16" viewBox="0 0 16 16" fill="none" xmlns="http://www.w3.org/2000/svg"><path d="M7.560 1.639 C 6.940 1.737,6.464 1.946,5.979 2.335 C 5.424 2.780,5.047 3.395,4.862 4.160 C 4.829 4.297,4.818 4.552,4.808 5.380 L 4.795 6.427 4.698 6.427 C 4.527 6.428,4.266 6.504,4.048 6.618 C 3.696 6.801,3.456 7.083,3.277 7.524 L 3.197 7.719 3.206 10.399 C 3.215 12.853,3.219 13.093,3.262 13.238 C 3.333 13.481,3.458 13.690,3.644 13.881 C 3.857 14.099,4.073 14.239,4.324 14.322 L 4.520 14.387 7.987 14.387 L 11.453 14.387 11.663 14.322 C 11.915 14.244,12.128 14.111,12.328 13.908 C 12.617 13.615,12.731 13.376,12.773 12.978 C 12.788 12.839,12.799 11.647,12.800 10.223 L 12.800 7.712 12.722 7.521 C 12.517 7.017,12.197 6.695,11.709 6.502 L 11.560 6.443 8.977 6.432 L 6.394 6.422 6.407 5.471 C 6.417 4.667,6.426 4.497,6.466 4.373 C 6.720 3.566,7.517 3.075,8.307 3.240 C 8.739 3.330,9.133 3.614,9.359 3.996 C 9.416 4.094,9.508 4.304,9.563 4.464 C 9.686 4.824,9.775 4.945,10.001 5.062 C 10.162 5.146,10.187 5.151,10.387 5.142 C 10.637 5.130,10.764 5.077,10.921 4.921 C 11.154 4.688,11.204 4.394,11.082 3.971 C 10.887 3.290,10.535 2.747,10.023 2.336 C 9.503 1.919,8.941 1.688,8.295 1.627 C 7.949 1.594,7.833 1.596,7.560 1.639 M11.200 10.413 L 11.200 12.800 8.000 12.800 L 4.800 12.800 4.800 10.413 L 4.800 8.027 8.000 8.027 L 11.200 8.027 11.200 10.413 M7.827 8.823 C 7.585 8.886,7.370 9.061,7.271 9.276 C 7.215 9.396,7.213 9.433,7.213 10.387 C 7.213 11.140,7.222 11.397,7.249 11.474 C 7.298 11.612,7.523 11.850,7.673 11.923 C 7.848 12.008,8.152 12.008,8.327 11.923 C 8.477 11.850,8.702 11.612,8.751 11.474 C 8.778 11.397,8.787 11.140,8.787 10.387 C 8.787 9.491,8.782 9.391,8.738 9.297 C 8.666 9.143,8.468 8.946,8.322 8.883 C 8.176 8.820,7.945 8.792,7.827 8.823 " fill="#1A1C1F" stroke="none" fill-rule="evenodd"></path></svg>