<svg width="28" height="28" viewBox="0 0 28 28" fill="none" xmlns="http://www.w3.org/2000/svg"><path d="M12.693 2.332 C 10.377 2.829,8.475 4.697,8.002 6.937 C 7.942 7.218,7.915 7.726,7.886 9.123 C 7.865 10.124,7.846 10.949,7.844 10.955 C 7.842 10.961,7.772 10.967,7.688 10.967 C 7.133 10.970,6.440 11.297,5.998 11.766 C 5.673 12.110,5.511 12.388,5.337 12.900 L 5.227 13.223 5.227 18.392 L 5.227 23.562 5.370 23.959 C 5.742 24.987,6.568 25.668,7.562 25.768 C 7.795 25.791,10.796 25.804,14.315 25.796 L 20.650 25.783 21.000 25.649 C 21.447 25.477,21.653 25.334,22.035 24.929 C 22.391 24.552,22.611 24.142,22.690 23.707 C 22.731 23.485,22.746 22.028,22.748 18.317 C 22.750 13.520,22.745 13.213,22.664 12.927 C 22.451 12.170,21.965 11.580,21.261 11.223 L 20.892 11.037 19.604 11.006 C 18.896 10.990,16.369 10.974,13.988 10.971 L 9.660 10.967 9.660 9.247 C 9.660 7.697,9.669 7.493,9.751 7.173 C 10.055 5.985,10.855 5.008,11.993 4.433 C 12.710 4.071,13.388 3.937,14.280 3.980 C 16.197 4.073,17.774 5.366,18.247 7.233 C 18.432 7.966,18.596 8.189,19.031 8.305 C 19.524 8.436,20.067 7.982,20.066 7.440 C 20.066 7.198,19.920 6.600,19.745 6.119 C 19.343 5.017,18.484 3.941,17.453 3.247 C 16.757 2.779,15.789 2.392,15.058 2.291 C 14.469 2.209,13.160 2.232,12.693 2.332 M18.007 12.724 L 20.498 12.755 20.635 12.870 C 20.710 12.934,20.824 13.089,20.888 13.216 L 21.005 13.447 20.991 18.425 C 20.977 23.369,20.976 23.405,20.879 23.590 C 20.826 23.693,20.693 23.840,20.584 23.917 L 20.385 24.057 14.474 24.070 C 11.018 24.078,8.345 24.066,8.037 24.040 C 7.446 23.990,7.348 23.947,7.152 23.651 L 7.023 23.457 7.007 20.280 C 6.998 18.533,7.005 16.215,7.024 15.129 L 7.058 13.154 7.175 13.015 C 7.239 12.939,7.368 12.836,7.461 12.787 C 7.624 12.701,7.779 12.697,11.573 12.695 C 13.742 12.694,16.637 12.707,18.007 12.724 M13.268 15.496 C 12.897 15.676,12.580 15.986,12.422 16.323 C 12.312 16.557,12.297 16.648,12.297 17.057 C 12.297 17.478,12.310 17.551,12.433 17.803 C 12.514 17.969,12.679 18.189,12.838 18.343 L 13.106 18.602 13.121 19.696 C 13.138 20.886,13.148 20.934,13.424 21.195 C 13.786 21.537,14.383 21.487,14.695 21.088 C 14.849 20.890,14.884 20.612,14.886 19.567 L 14.887 18.578 15.050 18.453 C 15.670 17.980,15.904 17.025,15.570 16.325 C 15.403 15.976,14.978 15.581,14.630 15.451 C 14.438 15.379,14.263 15.354,13.963 15.355 C 13.608 15.356,13.520 15.373,13.268 15.496 " fill="#1A1C1F" stroke="none" fill-rule="evenodd"></path></svg>