<svg xmlns="http://www.w3.org/2000/svg" width="24" height="24" fill="none"><g clip-path="url(#a)"><path fill="#1A1C1F" fill-rule="evenodd" d="M12 2.5a5 5 0 0 1 4.843 3.754 1 1 0 0 1-1.938.497 3 3 0 0 0-5.902.746Q9 8.5 9.003 9.5H17a2 2 0 0 1 2 2v8.002a2 2 0 0 1-2 2H6.999a2 2 0 0 1-2-2v-8.002c0-1.054.831-2 2.003-2q-.003-.925 0-2.002A5 5 0 0 1 12.002 2.5m5 17v-8H7v8zm-5-6c.514 0 .999.417 1 1q.005.999 0 2a1 1 0 1 1-2 0q-.003-1 0-2a1 1 0 0 1 1-1" clip-rule="evenodd"/></g><defs><clipPath id="a"><path fill="#fff" d="M0 0h24v24H0z"/></clipPath></defs></svg>