<svg width="28" height="28" viewBox="0 0 28 28" fill="none" xmlns="http://www.w3.org/2000/svg"><path d="M12.787 2.757 C 11.265 3.086,10.093 3.801,9.142 4.983 C 8.646 5.600,8.323 6.247,8.066 7.140 C 7.925 7.626,7.924 7.642,7.899 9.060 L 7.874 10.491 7.614 10.523 C 6.579 10.653,5.728 11.339,5.380 12.326 L 5.259 12.670 5.238 17.897 L 5.217 23.123 5.360 23.514 C 5.561 24.059,5.683 24.248,6.076 24.619 C 6.454 24.977,6.749 25.155,7.167 25.278 C 7.423 25.354,7.927 25.361,13.981 25.375 L 20.518 25.391 20.897 25.253 C 21.365 25.082,21.720 24.850,22.026 24.515 C 22.322 24.191,22.460 23.957,22.635 23.477 L 22.773 23.097 22.770 18.817 C 22.768 16.463,22.750 14.075,22.731 13.510 C 22.698 12.558,22.687 12.463,22.576 12.195 C 22.197 11.284,21.353 10.639,20.387 10.522 L 20.123 10.490 20.100 9.107 C 20.076 7.635,20.053 7.455,19.808 6.740 C 19.551 5.992,19.177 5.350,18.673 4.794 C 17.699 3.719,16.626 3.072,15.322 2.774 C 15.118 2.727,14.684 2.694,14.117 2.681 C 13.348 2.663,13.171 2.673,12.787 2.757 M14.526 4.434 C 16.171 4.590,17.633 5.750,18.150 7.307 C 18.277 7.690,18.304 7.860,18.341 8.485 C 18.364 8.888,18.384 9.505,18.385 9.858 L 18.387 10.500 13.993 10.500 L 9.598 10.500 9.630 9.275 C 9.665 7.937,9.708 7.635,9.940 7.077 C 10.599 5.494,12.108 4.461,13.860 4.393 C 13.950 4.390,14.249 4.408,14.526 4.434 M20.152 12.313 C 20.540 12.345,20.542 12.346,20.747 12.563 L 20.953 12.781 20.953 17.949 L 20.953 23.117 20.723 23.339 C 20.579 23.478,20.434 23.572,20.338 23.590 C 20.253 23.605,17.348 23.612,13.883 23.604 C 7.701 23.590,7.580 23.588,7.431 23.498 C 7.347 23.447,7.221 23.324,7.152 23.224 L 7.027 23.043 7.025 17.973 C 7.023 12.994,7.025 12.900,7.117 12.720 C 7.276 12.407,7.397 12.351,7.993 12.318 C 8.716 12.277,19.672 12.273,20.152 12.313 M13.598 14.931 C 13.120 15.045,12.672 15.406,12.450 15.856 C 12.092 16.584,12.306 17.555,12.923 17.999 L 13.105 18.130 13.122 19.250 C 13.139 20.451,13.153 20.524,13.401 20.750 C 13.823 21.134,14.386 21.065,14.721 20.587 L 14.863 20.386 14.878 19.258 L 14.893 18.130 15.076 17.999 C 15.307 17.834,15.523 17.522,15.643 17.181 C 15.774 16.811,15.745 16.274,15.575 15.902 C 15.430 15.585,15.089 15.232,14.784 15.083 C 14.442 14.916,13.933 14.851,13.598 14.931 " fill="#1A1C1F" stroke="none" fill-rule="evenodd"></path></svg>