<svg xmlns="http://www.w3.org/2000/svg" width="14" height="14" fill="none"><g clip-path="url(#a)"><path fill="#1A1C1F" fill-rule="evenodd" d="M7 1.4a2.8 2.8 0 0 1 2.753 2.289.7.7 0 0 1-1.357.333l-.02-.08a1.4 1.4 0 0 0-2.772.153L5.6 4.2v1.412h4.2a1.4 1.4 0 0 1 1.4 1.4V11.2a1.4 1.4 0 0 1-1.4 1.4H4.2a1.4 1.4 0 0 1-1.4-1.4V7.012a1.4 1.4 0 0 1 1.4-1.4V4.2A2.8 2.8 0 0 1 7 1.4m0 6.3a.7.7 0 0 0-.695.618L6.3 8.4v1.397l.005.081a.7.7 0 0 0 1.39 0l.005-.081V8.4l-.005-.082A.7.7 0 0 0 7 7.7" clip-rule="evenodd"/></g><defs><clipPath id="a"><path fill="#fff" d="M0 0h14v14H0z"/></clipPath></defs></svg>