<svg xmlns="http://www.w3.org/2000/svg" width="24" height="24" fill="none"><g clip-path="url(#a)"><path fill="#1A1C1F" fill-rule="evenodd" d="M12 3.006c2.688 0 4.988 2.093 4.999 4.998v.988c1.106 0 2.002.896 2.002 2v8.002a2 2 0 0 1-2 2H6.999a2 2 0 0 1-2-2v-8.001c0-1.055.824-2 2.003-2v-.989a5 5 0 0 1 4.999-4.998m5 7.987H7v8h10zm-5 2c.514 0 .999.417 1 1v2a1 1 0 1 1-2 0v-2a1 1 0 0 1 1-1m0-7.987c-1.596 0-2.99 1.34-2.997 2.998q-.003.495 0 .988h5.995v-.988a3 3 0 0 0-2.997-2.998" clip-rule="evenodd"/></g><defs><clipPath id="a"><path fill="#fff" d="M0 0h24v24H0z"/></clipPath></defs></svg>