<svg width="24" height="24" viewBox="0 0 24 24" fill="none" xmlns="http://www.w3.org/2000/svg"><path d="M11.319 2.558 C 10.240 2.697,9.298 3.173,8.477 3.996 C 7.890 4.585,7.520 5.175,7.261 5.936 C 7.054 6.544,7.034 6.729,7.012 8.165 L 6.992 9.510 6.766 9.531 C 6.293 9.575,5.710 9.895,5.430 10.263 C 5.347 10.371,5.221 10.595,5.150 10.760 L 5.020 11.060 5.020 15.520 L 5.020 19.980 5.169 20.293 C 5.434 20.848,5.897 21.242,6.500 21.426 C 6.728 21.496,7.007 21.500,12.000 21.500 C 16.993 21.500,17.272 21.496,17.500 21.426 C 18.103 21.242,18.566 20.848,18.831 20.293 L 18.980 19.980 18.991 15.780 C 18.998 13.160,18.987 11.455,18.962 11.248 C 18.906 10.779,18.744 10.456,18.384 10.097 C 17.978 9.692,17.776 9.604,17.154 9.558 C 16.882 9.539,14.934 9.522,12.824 9.521 L 8.987 9.520 9.014 8.270 C 9.045 6.861,9.071 6.687,9.322 6.177 C 9.615 5.584,10.078 5.129,10.700 4.822 C 11.142 4.603,11.428 4.542,12.000 4.542 C 12.566 4.542,12.851 4.602,13.300 4.815 C 14.052 5.173,14.545 5.759,14.900 6.720 C 15.128 7.336,15.628 7.606,16.215 7.431 C 16.457 7.359,16.738 7.063,16.817 6.798 C 16.852 6.681,16.880 6.548,16.880 6.501 C 16.880 6.360,16.763 5.958,16.621 5.608 C 16.018 4.129,14.769 3.062,13.164 2.655 C 12.736 2.546,11.795 2.497,11.319 2.558 M17.000 15.520 L 17.000 19.520 12.000 19.520 L 7.000 19.520 7.000 15.520 L 7.000 11.520 12.000 11.520 L 17.000 11.520 17.000 15.520 M11.693 13.556 C 11.510 13.603,11.256 13.818,11.129 14.034 L 11.020 14.220 11.008 15.408 C 11.000 16.172,11.011 16.653,11.039 16.756 C 11.145 17.149,11.572 17.480,11.973 17.480 C 12.377 17.480,12.665 17.315,12.870 16.967 L 12.980 16.780 12.992 15.592 C 13.000 14.862,12.988 14.346,12.963 14.251 C 12.905 14.034,12.702 13.776,12.495 13.655 C 12.302 13.542,11.928 13.496,11.693 13.556 " fill="#1A1C1F" stroke="none" fill-rule="evenodd"></path></svg>