<svg xmlns="http://www.w3.org/2000/svg" width="32" height="32" fill="none"><g clip-path="url(#a)"><path fill="#1A1C1F" fill-rule="evenodd" d="M16 2.997c3.779 0 6.993 3.01 7 6.835v2.17c1.597 0 3 1.284 3 3v11c0 1.598-1.314 3-3 3q-7 .003-14 0c-1.598 0-3-1.284-3-3v-11c0-1.598 1.284-3 3-3v-2.17c0-3.781 3.14-6.835 7-6.835M8 15.002v11c0 .513.41 1 1 1q7 .003 14 0c.512 0 .999-.415 1-1q.003-5.5 0-11a1 1 0 0 0-1-1H9c-.513 0-1 .404-1 1m8 2a2 2 0 0 1 1 3.732v2.28a1 1 0 1 1-2 0v-2.28a2 2 0 0 1 1-3.732m0-12.005c-2.695 0-4.995 2.122-5 4.835q-.003 1.085 0 2.17L21 12V9.832c0-2.664-2.233-4.835-5-4.835" clip-rule="evenodd"/></g><defs><clipPath id="a"><path fill="#fff" d="M0 0h32v32H0z"/></clipPath></defs></svg>