<svg width="24" height="24" viewBox="0 0 24 24" fill="none" xmlns="http://www.w3.org/2000/svg"><path d="M11.463 3.045 C 9.693 3.214,8.059 4.448,7.381 6.129 C 7.102 6.822,7.000 7.424,7.000 8.389 L 7.000 9.000 6.870 9.001 C 6.461 9.004,5.964 9.238,5.591 9.604 C 5.231 9.957,5.087 10.260,5.038 10.768 C 4.990 11.265,4.992 18.714,5.040 19.210 C 5.089 19.715,5.203 19.959,5.571 20.346 C 5.977 20.773,6.268 20.910,6.880 20.961 C 7.477 21.010,16.518 21.010,17.114 20.961 C 17.688 20.914,17.969 20.793,18.342 20.435 C 18.643 20.146,18.805 19.906,18.905 19.600 C 18.972 19.395,18.978 19.101,18.991 15.340 C 19.006 10.849,18.995 10.529,18.803 10.140 C 18.656 9.842,18.178 9.354,17.900 9.219 C 17.674 9.110,17.279 9.000,17.112 9.000 L 17.000 9.000 16.999 8.470 C 16.999 8.178,16.981 7.733,16.960 7.480 C 16.802 5.583,15.452 3.893,13.608 3.282 C 12.985 3.076,12.132 2.982,11.463 3.045 M12.660 5.105 C 13.479 5.257,14.285 5.898,14.680 6.710 C 14.902 7.165,14.952 7.423,14.984 8.270 L 15.012 9.000 12.000 9.000 L 8.988 9.000 9.011 8.330 C 9.038 7.537,9.107 7.174,9.314 6.740 C 9.660 6.018,10.303 5.445,11.068 5.179 C 11.568 5.005,12.013 4.984,12.660 5.105 M17.000 15.000 L 17.000 19.000 12.000 19.000 L 7.000 19.000 7.000 15.000 L 7.000 11.000 12.000 11.000 L 17.000 11.000 17.000 15.000 M11.714 13.037 C 11.513 13.102,11.242 13.323,11.131 13.511 L 11.020 13.700 11.020 14.920 C 11.020 15.591,11.035 16.209,11.052 16.294 C 11.094 16.491,11.364 16.787,11.596 16.891 C 11.832 16.996,12.217 16.994,12.426 16.886 C 12.614 16.789,12.857 16.543,12.926 16.380 C 12.994 16.219,13.024 14.148,12.963 13.817 C 12.908 13.515,12.757 13.300,12.497 13.154 C 12.277 13.031,11.904 12.975,11.714 13.037 " fill="#1A1C1F" stroke="none" fill-rule="evenodd"></path></svg>