<svg width="16" height="16" viewBox="0 0 16 16" fill="none" xmlns="http://www.w3.org/2000/svg"><path d="M7.667 2.031 C 6.511 2.158,5.501 2.908,5.053 3.971 C 4.861 4.425,4.800 4.801,4.800 5.523 L 4.800 5.995 4.627 6.025 C 4.211 6.097,3.928 6.236,3.671 6.493 C 3.486 6.679,3.371 6.862,3.287 7.106 L 3.213 7.320 3.213 10.013 L 3.213 12.707 3.300 12.933 C 3.491 13.430,3.817 13.735,4.371 13.934 L 4.553 14.000 8.000 14.000 L 11.447 14.000 11.629 13.934 C 12.183 13.735,12.509 13.430,12.700 12.933 L 12.787 12.707 12.787 10.000 L 12.787 7.293 12.710 7.093 C 12.570 6.730,12.364 6.469,12.066 6.279 C 11.893 6.168,11.639 6.067,11.467 6.042 C 11.401 6.032,11.315 6.018,11.277 6.011 L 11.208 5.998 11.191 5.379 C 11.173 4.732,11.146 4.527,11.032 4.200 C 10.929 3.906,10.840 3.722,10.684 3.482 C 10.146 2.657,9.285 2.138,8.272 2.030 C 7.970 1.997,7.971 1.997,7.667 2.031 M8.515 3.703 C 8.999 3.877,9.381 4.278,9.533 4.773 C 9.567 4.882,9.582 5.061,9.593 5.460 L 9.607 6.000 8.000 6.000 L 6.393 6.000 6.406 5.460 C 6.418 4.966,6.425 4.902,6.490 4.713 C 6.668 4.186,7.059 3.819,7.600 3.668 C 7.812 3.609,8.307 3.628,8.515 3.703 M8.143 8.426 C 8.361 8.462,8.542 8.584,8.671 8.783 L 8.773 8.942 8.773 9.957 C 8.773 10.565,8.762 11.013,8.746 11.071 C 8.706 11.213,8.504 11.425,8.328 11.508 C 7.941 11.691,7.459 11.507,7.275 11.107 C 7.214 10.975,7.213 10.962,7.214 9.973 C 7.215 8.998,7.216 8.971,7.273 8.864 C 7.387 8.647,7.537 8.516,7.757 8.437 C 7.875 8.395,7.941 8.393,8.143 8.426 " fill="#1A1C1F" stroke="none" fill-rule="evenodd"></path></svg>