<svg xmlns="http://www.w3.org/2000/svg" width="14" height="14" fill="none"><g clip-path="url(#a)"><path fill="#1A1C1F" fill-rule="evenodd" d="M7 1.756a2.81 2.81 0 0 1 2.8 2.8v.7a1.4 1.4 0 0 1 1.4 1.4v4.188a1.4 1.4 0 0 1-1.4 1.4H4.2a1.4 1.4 0 0 1-1.4-1.4V6.656a1.4 1.4 0 0 1 1.4-1.4v-.7a2.8 2.8 0 0 1 2.8-2.8m0 5.588a.7.7 0 0 0-.7.7v1.397l.005.081A.7.7 0 0 0 7.7 9.441V8.044l-.005-.082A.7.7 0 0 0 7 7.344m0-4.188c-.738 0-1.398.585-1.4 1.4v.7h2.8v-.7a1.4 1.4 0 0 0-1.4-1.4" clip-rule="evenodd"/></g><defs><clipPath id="a"><path fill="#fff" d="M0 0h14v14H0z"/></clipPath></defs></svg>