<svg xmlns="http://www.w3.org/2000/svg" width="14" height="14" fill="none"><g clip-path="url(#a)"><path fill="#1A1C1F" fill-rule="evenodd" d="M7 1.4q.122 0 .236.057l3.782 1.952c.11.055.182.182.182.322V5.6c0 3.149-1.356 5.496-4.067 6.966a.28.28 0 0 1-.266 0C4.156 11.096 2.8 8.75 2.8 5.6V3.731c0-.14.071-.267.182-.322l3.782-1.952A.5.5 0 0 1 7 1.4m1.163 3.705L6.435 6.71l-.598-.555a.794.794 0 0 0-1.066 0 .664.664 0 0 0 0 .99l1.13 1.05c.148.136.34.205.534.205a.78.78 0 0 0 .533-.205l2.261-2.1a.664.664 0 0 0 0-.99.794.794 0 0 0-1.066 0" clip-rule="evenodd"/></g><defs><clipPath id="a"><path fill="#fff" d="M0 0h14v14H0z"/></clipPath></defs></svg>