<svg width="32" height="32" viewBox="0 0 32 32" fill="none" xmlns="http://www.w3.org/2000/svg"><path d="M15.547 2.062 C 15.311 2.127,9.476 4.881,6.667 6.252 C 5.919 6.617,5.264 6.965,5.211 7.025 C 5.022 7.240,5.001 7.730,5.029 11.435 C 5.058 15.320,5.069 15.491,5.388 17.081 C 5.930 19.773,7.029 22.218,8.627 24.284 C 10.134 26.233,12.223 27.983,14.823 29.475 C 15.631 29.938,15.653 29.947,15.999 29.947 C 16.343 29.947,16.370 29.936,17.148 29.493 C 20.910 27.352,23.551 24.685,25.147 21.413 C 25.873 19.926,26.334 18.539,26.646 16.909 C 26.930 15.421,26.943 15.199,26.971 11.407 C 26.998 7.730,26.978 7.240,26.789 7.025 C 26.664 6.883,24.334 5.743,20.022 3.715 L 16.552 2.082 16.102 2.057 C 15.855 2.043,15.605 2.046,15.547 2.062 M20.584 6.210 L 25.013 8.340 25.013 10.450 C 25.011 14.602,24.855 16.288,24.291 18.249 C 23.754 20.112,22.687 22.131,21.449 23.622 C 20.901 24.281,19.755 25.394,18.996 26.004 C 18.361 26.514,17.308 27.237,16.520 27.704 L 16.001 28.013 15.614 27.784 C 13.512 26.544,11.651 24.990,10.382 23.413 C 8.962 21.649,7.857 19.274,7.386 16.972 C 7.100 15.575,6.990 13.742,6.988 10.370 L 6.987 8.341 9.853 6.959 C 14.737 4.605,15.916 4.054,16.037 4.067 C 16.101 4.074,18.147 5.039,20.584 6.210 M20.480 11.205 C 20.348 11.301,19.064 12.549,17.626 13.979 L 15.012 16.579 13.839 15.417 C 13.153 14.736,12.574 14.208,12.442 14.141 C 11.930 13.881,11.338 14.099,11.088 14.640 C 10.947 14.945,10.962 15.140,11.152 15.443 C 11.243 15.588,12.042 16.430,12.928 17.313 C 15.113 19.494,14.854 19.465,16.656 17.736 C 18.554 15.915,21.780 12.631,21.882 12.415 C 22.078 12.004,21.959 11.532,21.585 11.233 C 21.419 11.101,21.322 11.068,21.051 11.051 C 20.746 11.032,20.701 11.044,20.480 11.205 " fill="#1A1C1F" stroke="none" fill-rule="evenodd"></path></svg>