<svg xmlns="http://www.w3.org/2000/svg" width="32" height="32" fill="none"><g clip-path="url(#a)"><path fill="#1A1C1F" fill-rule="evenodd" d="M12.707 14.293a1 1 0 1 0-1.414 1.414l3 3a.997.997 0 0 0 1.414 0l6-6a1 1 0 1 0-1.414-1.414L15 16.586zM25 13.04c0 6.711-2.944 11.61-9 14.96-6.055-3.35-9-8.249-9-14.96V8.33L16 4l9 4.33zM16.705 2.154a1.7 1.7 0 0 0-1.41 0L5.564 6.73c-.341.155-.564.52-.564.923V13c0 7.523 3.532 13.23 10.595 16.901a.88.88 0 0 0 .81 0C23.468 26.23 27 20.524 27 13V7.653c0-.403-.223-.768-.564-.923z" clip-rule="evenodd"/></g><defs><clipPath id="a"><path fill="#fff" d="M0 0h32v32H0z"/></clipPath></defs></svg>