<svg xmlns="http://www.w3.org/2000/svg" width="32" height="32" fill="none"><path fill="#1A1C1F" fill-rule="evenodd" d="M15.253 2.18c-1.781.795-9.82 4.631-9.94 4.743-.307.289-.3.189-.299 3.915.002 3.514.032 4.221.237 5.509.908 5.709 4.129 10.092 9.705 13.206 1.054.589 1.034.589 2.088 0 1.925-1.075 3.431-2.192 4.827-3.58 2.663-2.646 4.261-5.802 4.878-9.634.205-1.267.235-1.987.237-5.501.001-3.726.008-3.626-.3-3.916-.089-.083-2.274-1.142-5.166-2.505l-5.013-2.36-.454-.016c-.404-.014-.491.001-.8.139m5.294 4.01 4.466 2.149-.001 2.431c-.001 3.407-.078 4.592-.403 6.211-.503 2.499-1.66 4.902-3.266 6.779-.364.425-1.328 1.382-1.823 1.811a20.3 20.3 0 0 1-3 2.131l-.52.304-.52-.304c-2.119-1.242-3.947-2.802-5.276-4.502-1.061-1.357-1.973-3.159-2.498-4.935-.569-1.924-.717-3.465-.718-7.495l-.001-2.431 4.493-2.166c2.471-1.191 4.517-2.158 4.547-2.149s2.063.984 4.52 2.166m.333 4.823c-.029.01-.125.033-.213.052-.12.026-.859.733-2.908 2.778l-2.747 2.743-1.119-1.125C12.59 14.15 12.427 14.027 12 14.027c-.522 0-.91.341-.997.877-.065.4.01.496 1.763 2.262.922.928 1.737 1.705 1.832 1.746.226.098.557.095.804-.008.244-.101 6.242-6.066 6.448-6.413.357-.601-.019-1.357-.73-1.467a.8.8 0 0 0-.24-.011"/></svg>