<svg width="16" height="16" viewBox="0 0 16 16" fill="none" xmlns="http://www.w3.org/2000/svg"><path d="M7.240 1.921 C 6.373 2.363,4.798 3.181,3.991 3.609 C 3.520 3.858,3.312 3.983,3.271 4.040 C 3.213 4.120,3.213 4.123,3.216 5.680 C 3.220 7.330,3.234 7.611,3.347 8.234 C 3.760 10.498,4.801 12.210,6.578 13.543 C 6.957 13.828,7.488 14.171,7.760 14.307 C 8.016 14.436,8.102 14.411,8.715 14.030 C 10.088 13.179,11.190 12.009,11.845 10.710 C 12.318 9.771,12.636 8.660,12.748 7.560 C 12.790 7.144,12.814 4.405,12.777 4.200 C 12.754 4.076,12.731 4.026,12.671 3.976 C 12.543 3.870,8.853 1.952,8.345 1.728 C 7.942 1.550,7.980 1.544,7.240 1.921 M10.339 5.710 C 10.444 5.760,10.539 5.831,10.596 5.901 C 10.748 6.089,10.773 6.162,10.773 6.408 C 10.773 6.743,10.769 6.748,9.533 7.904 C 7.721 9.598,7.737 9.586,7.360 9.584 C 7.008 9.582,6.906 9.518,6.178 8.841 C 5.635 8.337,5.392 8.091,5.305 7.954 C 5.235 7.843,5.227 7.807,5.227 7.613 C 5.227 7.354,5.302 7.174,5.472 7.028 C 5.642 6.883,5.749 6.843,5.998 6.831 C 6.377 6.814,6.500 6.877,7.025 7.358 C 7.215 7.532,7.357 7.642,7.376 7.632 C 7.393 7.622,7.820 7.234,8.324 6.771 C 8.828 6.307,9.289 5.884,9.350 5.831 C 9.617 5.594,10.000 5.547,10.339 5.710 " fill="#1A1C1F" stroke="none" fill-rule="evenodd"></path></svg>