<svg xmlns="http://www.w3.org/2000/svg" width="28" height="28" fill="none"><g clip-path="url(#a)"><path fill="#1A1C1F" fill-rule="evenodd" d="M11.119 12.507a.874.874 0 1 0-1.237 1.237l2.625 2.625a.87.87 0 0 0 1.237 0l5.25-5.25a.874.874 0 1 0-1.238-1.237l-4.63 4.63zm10.756-1.097c0 5.872-2.576 10.158-7.875 13.09-5.298-2.932-7.875-7.218-7.875-13.09V7.29L14 3.5l7.875 3.789zm-7.258-9.525a1.48 1.48 0 0 0-1.234 0L4.868 5.889c-.298.135-.493.455-.493.807v4.679c0 6.583 3.09 11.576 9.27 14.788a.77.77 0 0 0 .71 0c6.18-3.212 9.27-8.204 9.27-14.788V6.696c0-.352-.195-.672-.493-.807z" clip-rule="evenodd"/></g><defs><clipPath id="a"><path fill="#fff" d="M0 0h28v28H0z"/></clipPath></defs></svg>