<svg xmlns="http://www.w3.org/2000/svg" width="20" height="20" fill="none"><g clip-path="url(#a)"><path fill="#1A1C1F" fill-rule="evenodd" d="M10 2a.75.75 0 0 1 .338.081L15.74 4.87c.158.079.26.26.26.46V8c0 4.498-1.937 7.852-5.81 9.952a.4.4 0 0 1-.38 0C5.937 15.852 4 12.498 4 8V5.33c0-.2.102-.381.26-.46l5.402-2.789A.75.75 0 0 1 10 2m1.662 5.293-2.47 2.293-.854-.793a1.135 1.135 0 0 0-1.522 0 .95.95 0 0 0 0 1.414l1.615 1.5c.21.195.486.293.761.293.276 0 .552-.098.762-.293l3.23-3a.95.95 0 0 0 0-1.414 1.135 1.135 0 0 0-1.522 0" clip-rule="evenodd"/></g><defs><clipPath id="a"><path fill="#fff" d="M0 0h20v20H0z"/></clipPath></defs></svg>