<svg width="20" height="20" viewBox="0 0 20 20" fill="none" xmlns="http://www.w3.org/2000/svg"><path d="M9.049 2.401 C 7.964 2.955,5.996 3.978,4.989 4.511 C 4.400 4.823,4.140 4.979,4.089 5.050 C 4.017 5.150,4.017 5.153,4.021 7.100 C 4.025 9.162,4.043 9.514,4.184 10.292 C 4.700 13.124,6.000 15.260,8.222 16.929 C 8.684 17.276,9.343 17.705,9.691 17.885 C 10.013 18.052,10.120 18.021,10.894 17.539 C 13.397 15.980,14.987 13.812,15.665 11.036 C 15.924 9.975,15.969 9.454,15.990 7.267 C 16.009 5.251,15.999 5.103,15.838 4.970 C 15.679 4.837,11.066 2.440,10.431 2.160 C 9.926 1.938,9.974 1.929,9.049 2.401 M12.924 7.138 C 13.056 7.201,13.173 7.288,13.245 7.377 C 13.435 7.611,13.467 7.702,13.467 8.010 C 13.467 8.345,13.433 8.407,13.039 8.811 C 12.770 9.087,10.841 10.890,10.300 11.371 C 9.664 11.937,9.584 11.982,9.200 11.980 C 8.755 11.977,8.631 11.898,7.674 11.007 C 7.002 10.382,6.740 10.113,6.628 9.937 C 6.544 9.804,6.533 9.757,6.533 9.517 C 6.533 9.192,6.627 8.967,6.840 8.786 C 7.052 8.604,7.186 8.553,7.497 8.539 C 7.971 8.517,8.124 8.596,8.782 9.198 C 9.019 9.415,9.196 9.553,9.220 9.540 C 9.241 9.527,9.775 9.043,10.405 8.463 C 11.035 7.884,11.612 7.356,11.687 7.289 C 12.019 6.995,12.500 6.936,12.924 7.138 " fill="#1A1C1F" stroke="none" fill-rule="evenodd"></path></svg>