<svg xmlns="http://www.w3.org/2000/svg" width="16" height="16" fill="none"><g clip-path="url(#a)"><path fill="#1A1C1F" fill-rule="evenodd" d="M8 1.6a.6.6 0 0 1 .27.065l4.322 2.231a.41.41 0 0 1 .208.368V6.4c0 3.598-1.55 6.282-4.648 7.962a.32.32 0 0 1-.304 0C4.75 12.682 3.2 9.998 3.2 6.4V4.264c0-.16.082-.305.208-.368L7.73 1.665A.6.6 0 0 1 8 1.6m1.33 4.235L7.353 7.669l-.683-.634a.91.91 0 0 0-1.218 0 .76.76 0 0 0 0 1.13l1.292 1.2a.9.9 0 0 0 .609.235c.22 0 .441-.078.609-.234l2.584-2.4a.76.76 0 0 0 0-1.131.91.91 0 0 0-1.218 0" clip-rule="evenodd"/></g><defs><clipPath id="a"><path fill="#fff" d="M0 0h16v16H0z"/></clipPath></defs></svg>