<svg width="28" height="28" viewBox="0 0 28 28" fill="none" xmlns="http://www.w3.org/2000/svg"><path d="M13.603 1.804 C 13.388 1.865,8.313 4.259,5.833 5.470 C 5.179 5.790,4.606 6.094,4.559 6.147 C 4.394 6.335,4.376 6.764,4.400 10.006 C 4.426 13.405,4.435 13.555,4.715 14.946 C 5.188 17.302,6.150 19.441,7.548 21.248 C 8.941 23.049,11.109 24.823,13.383 26.022 C 13.754 26.218,13.811 26.235,14.053 26.217 C 14.280 26.201,14.411 26.144,15.009 25.804 C 18.891 23.595,21.410 20.743,22.702 17.094 C 22.924 16.469,23.169 15.555,23.311 14.826 C 23.561 13.542,23.575 13.307,23.600 9.981 C 23.623 6.764,23.606 6.335,23.441 6.147 C 23.331 6.022,21.293 5.025,17.520 3.250 L 14.483 1.822 14.090 1.800 C 13.874 1.788,13.655 1.790,13.603 1.804 M16.805 4.856 C 18.304 5.576,20.060 6.420,20.708 6.731 L 21.887 7.297 21.886 9.144 C 21.885 12.777,21.748 14.252,21.254 15.968 C 20.785 17.598,19.851 19.365,18.768 20.669 C 18.288 21.247,17.284 22.222,16.626 22.749 C 16.065 23.198,15.126 23.844,14.455 24.242 L 14.001 24.511 13.662 24.311 C 10.429 22.404,8.331 20.091,7.147 17.126 C 6.326 15.070,6.114 13.417,6.114 9.050 L 6.113 7.297 8.575 6.112 C 12.474 4.234,13.924 3.549,14.005 3.548 C 14.047 3.547,15.307 4.136,16.805 4.856 M17.920 9.804 C 17.805 9.888,16.681 10.981,15.423 12.232 L 13.136 14.507 12.109 13.490 C 11.076 12.465,10.828 12.273,10.542 12.273 C 10.038 12.273,9.615 12.689,9.614 13.186 C 9.613 13.398,9.966 13.806,11.312 15.149 C 13.226 17.059,12.990 17.034,14.595 15.496 C 16.300 13.862,19.087 11.024,19.161 10.846 C 19.313 10.483,19.205 10.083,18.887 9.829 C 18.742 9.713,18.657 9.684,18.420 9.670 C 18.153 9.653,18.114 9.664,17.920 9.804 " fill="#1A1C1F" stroke="none" fill-rule="evenodd"></path></svg>