<svg width="24" height="24" viewBox="0 0 24 24" fill="none" xmlns="http://www.w3.org/2000/svg"><path d="M9.975 2.941 C 5.814 5.050,4.545 5.717,4.311 5.918 C 4.017 6.168,4.022 6.136,4.007 8.040 C 3.990 10.274,4.044 11.668,4.177 12.449 C 4.546 14.616,5.270 16.293,6.505 17.840 C 7.149 18.647,8.342 19.727,9.438 20.497 C 10.239 21.059,11.679 21.926,11.912 21.986 C 12.045 22.020,12.280 21.918,12.905 21.553 C 14.487 20.631,15.629 19.775,16.660 18.741 C 18.569 16.829,19.576 14.663,19.924 11.720 C 19.980 11.240,20.002 6.561,19.948 6.309 C 19.907 6.114,19.730 5.916,19.447 5.745 C 19.095 5.534,17.858 4.893,14.931 3.404 C 12.840 2.341,12.198 2.031,12.046 2.013 C 11.854 1.991,11.822 2.005,9.975 2.941 M14.509 5.354 C 15.890 6.099,17.233 6.823,17.493 6.964 L 17.966 7.220 17.949 9.440 C 17.935 11.290,17.921 11.730,17.863 12.080 C 17.554 13.970,17.051 15.222,16.073 16.539 C 15.700 17.042,14.877 17.898,14.320 18.364 C 13.928 18.692,12.613 19.638,12.214 19.880 L 12.002 20.009 11.611 19.759 C 9.334 18.304,7.936 16.881,7.068 15.140 C 6.626 14.251,6.372 13.466,6.202 12.460 C 6.064 11.638,6.040 11.160,6.040 9.158 L 6.040 7.215 8.850 5.702 C 10.396 4.870,11.732 4.148,11.820 4.096 C 11.908 4.045,11.984 4.002,11.989 4.002 C 11.994 4.001,13.128 4.609,14.509 5.354 M14.743 9.043 C 14.657 9.064,14.504 9.148,14.403 9.230 C 14.302 9.311,13.496 10.097,12.610 10.975 L 11.001 12.573 10.305 11.890 C 9.917 11.508,9.532 11.167,9.435 11.116 C 9.195 10.992,8.804 10.989,8.578 11.108 C 8.377 11.214,8.186 11.406,8.093 11.596 C 7.995 11.795,7.998 12.210,8.099 12.420 C 8.201 12.634,10.321 14.759,10.546 14.873 C 10.776 14.990,10.998 15.018,11.238 14.961 C 11.416 14.918,11.508 14.850,11.991 14.402 C 12.922 13.537,15.742 10.665,15.866 10.455 C 15.960 10.293,15.980 10.215,15.979 10.000 C 15.977 9.706,15.904 9.521,15.710 9.322 C 15.463 9.070,15.082 8.959,14.743 9.043 " fill="#1A1C1F" stroke="none" fill-rule="evenodd"></path></svg>