<svg xmlns="http://www.w3.org/2000/svg" width="12" height="12" fill="none"><g clip-path="url(#a)"><path fill="#1A1C1F" fill-rule="evenodd" d="M6 1.2a.45.45 0 0 1 .203.049l3.241 1.673a.3.3 0 0 1 .156.276V4.8c0 2.699-1.162 4.711-3.486 5.971a.24.24 0 0 1-.228 0C3.562 9.511 2.4 7.5 2.4 4.8V3.198c0-.12.061-.229.156-.276l3.241-1.673A.45.45 0 0 1 6 1.2m.997 3.176L5.515 5.752l-.512-.476a.68.68 0 0 0-.914 0 .57.57 0 0 0 0 .848l.97.9a.67.67 0 0 0 .456.176.67.67 0 0 0 .457-.176l1.939-1.8a.57.57 0 0 0 0-.848.68.68 0 0 0-.914 0" clip-rule="evenodd"/></g><defs><clipPath id="a"><path fill="#fff" d="M0 0h12v12H0z"/></clipPath></defs></svg>