<svg width="12" height="12" viewBox="0 0 12 12" fill="none" xmlns="http://www.w3.org/2000/svg"><path d="M5.386 1.463 C 4.746 1.789,3.651 2.359,2.993 2.707 C 2.640 2.894,2.484 2.987,2.453 3.030 C 2.410 3.090,2.410 3.092,2.412 4.260 C 2.415 5.497,2.426 5.708,2.511 6.175 C 2.820 7.873,3.601 9.157,4.933 10.157 C 5.218 10.371,5.616 10.628,5.820 10.731 C 6.012 10.827,6.076 10.808,6.536 10.523 C 7.572 9.880,8.393 9.007,8.890 8.019 C 9.241 7.323,9.477 6.493,9.561 5.670 C 9.593 5.355,9.610 3.303,9.582 3.150 C 9.555 3.002,9.535 2.983,9.237 2.825 C 8.129 2.236,6.379 1.342,6.177 1.261 C 6.092 1.228,5.996 1.200,5.962 1.200 C 5.924 1.200,5.713 1.296,5.386 1.463 M7.754 4.282 C 7.833 4.320,7.904 4.373,7.947 4.426 C 8.061 4.567,8.080 4.621,8.080 4.806 C 8.080 5.062,8.086 5.056,6.989 6.077 C 5.782 7.202,5.798 7.189,5.520 7.188 C 5.256 7.186,5.179 7.138,4.636 6.634 C 4.208 6.237,4.047 6.073,3.982 5.969 C 3.926 5.881,3.920 5.857,3.920 5.710 C 3.920 5.515,3.976 5.380,4.104 5.271 C 4.231 5.162,4.312 5.132,4.498 5.123 C 4.783 5.110,4.875 5.157,5.269 5.519 C 5.413 5.650,5.518 5.732,5.532 5.724 C 5.545 5.716,5.820 5.466,6.143 5.168 C 7.058 4.324,7.065 4.318,7.157 4.276 C 7.354 4.186,7.559 4.188,7.754 4.282 " fill="#1A1C1F" stroke="none" fill-rule="evenodd"></path></svg>