<svg width="14" height="14" viewBox="0 0 14 14" fill="none" xmlns="http://www.w3.org/2000/svg"><path d="M6.288 1.704 C 5.537 2.087,4.261 2.751,3.492 3.158 C 3.080 3.376,2.898 3.485,2.862 3.535 C 2.812 3.605,2.812 3.607,2.814 4.970 C 2.817 6.414,2.829 6.658,2.929 7.205 C 3.290 9.186,4.201 10.683,5.755 11.850 C 6.079 12.093,6.540 12.393,6.784 12.520 C 7.006 12.635,7.092 12.610,7.626 12.277 C 9.379 11.185,10.490 9.670,10.966 7.723 C 11.147 6.983,11.178 6.617,11.193 5.087 C 11.206 3.677,11.199 3.572,11.088 3.479 C 10.974 3.385,7.751 1.710,7.301 1.512 C 6.947 1.355,6.988 1.348,6.288 1.704 M9.047 4.996 C 9.139 5.040,9.221 5.101,9.271 5.164 C 9.404 5.328,9.427 5.392,9.427 5.607 C 9.427 5.900,9.423 5.905,8.342 6.916 C 6.756 8.398,6.769 8.388,6.440 8.386 C 6.129 8.384,6.042 8.328,5.372 7.705 C 4.902 7.267,4.718 7.079,4.640 6.956 C 4.581 6.863,4.573 6.830,4.573 6.662 C 4.573 6.434,4.639 6.277,4.788 6.150 C 4.936 6.023,5.030 5.987,5.248 5.977 C 5.580 5.962,5.687 6.017,6.147 6.438 C 6.315 6.592,6.437 6.687,6.454 6.678 C 6.470 6.669,6.790 6.377,7.167 6.030 C 8.212 5.065,8.241 5.039,8.350 4.989 C 8.575 4.885,8.819 4.888,9.047 4.996 " fill="#1A1C1F" stroke="none" fill-rule="evenodd"></path></svg>