<svg xmlns="http://www.w3.org/2000/svg" width="24" height="24" fill="none"><g clip-path="url(#a)"><path fill="#1A1C1F" fill-rule="evenodd" d="m10.293 14.707-2-2a.999.999 0 1 1 1.414-1.414L11 12.586l3.293-3.293a.999.999 0 1 1 1.414 1.414l-4 4a.997.997 0 0 1-1.414 0m1.368-12.632-7.14 3.65c-.317.162-.521.517-.521.908V9.98c0 6.07 2.859 9.288 7.796 11.967a.43.43 0 0 0 .408 0C17.14 19.268 20 16.05 20 9.981V6.633c0-.391-.204-.746-.52-.909l-7.141-3.65a.8.8 0 0 0-.678 0M18 7.232v2.751C18 14.6 16.362 17.367 12 20c-4.362-2.633-6-5.4-6-10.017V7.232L12 4z" clip-rule="evenodd"/></g><defs><clipPath id="a"><path fill="#fff" d="M0 0h24v24H0z"/></clipPath></defs></svg>