<svg xmlns="http://www.w3.org/2000/svg" width="12" height="12" fill="none"><g clip-path="url(#a)"><path fill="#1A1C1F" fill-rule="evenodd" d="M9.61 1.805c.312 0 .585.254.585.585a.6.6 0 0 1-.175.43l-7.2 7.2a.596.596 0 0 1-1.015-.43c0-.136.06-.291.175-.41l.898-.917a10 10 0 0 1-1.58-1.931A.66.66 0 0 1 1.2 6c0-.117.039-.234.098-.332C2.078 4.517 3.522 2.41 6 2.41c.76 0 1.502.214 2.146.605L9.18 1.98a.6.6 0 0 1 .43-.176M6 3.62C4.439 3.62 3.385 4.79 2.527 6c.351.507.76.995 1.21 1.424l1.112-1.112a1 1 0 0 1-.059-.332c0-.643.547-1.19 1.21-1.19.098 0 .215.02.312.059l.937-.956A3.1 3.1 0 0 0 6 3.62m3.083 1.853c.136.176.254.351.39.527-.839 1.17-1.854 2.322-3.317 2.4L5.063 9.493q.47.117.937.117c2.478 0 3.922-2.127 4.702-3.278A.66.66 0 0 0 10.8 6a.66.66 0 0 0-.098-.332 32 32 0 0 0-.76-1.053z" clip-rule="evenodd"/></g><defs><clipPath id="a"><path fill="#fff" d="M0 0h12v12H0z"/></clipPath></defs></svg>