<svg xmlns="http://www.w3.org/2000/svg" width="20" height="20" fill="none"><g clip-path="url(#a)"><path fill="#1A1C1F" fill-rule="evenodd" d="M10 4.016c4.125 0 6.531 3.5 7.813 5.406a.94.94 0 0 1 0 1.125c-1.282 1.906-3.688 5.437-7.813 5.437s-6.531-3.53-7.812-5.437a.94.94 0 0 1 0-1.125C3.468 7.516 5.874 4.016 10 4.016m0 2c-2.594 0-4.344 1.976-5.781 3.984 1.437 2.039 3.187 4.015 5.781 4.015S14.344 12.04 15.781 10C14.344 7.992 12.594 6.016 10 6.016m-.015 6c1.116 0 2.015-.9 2.015-1.985 0-1.116-.9-2.015-2.015-2.015C8.868 8.016 8 8.915 8 10.03c0 1.085.868 1.985 1.985 1.985" clip-rule="evenodd"/></g><defs><clipPath id="a"><path fill="#fff" d="M0 0h20v20H0z"/></clipPath></defs></svg>