<svg xmlns="http://www.w3.org/2000/svg" width="32" height="32" fill="none"><g clip-path="url(#a)"><path fill="#1A1C1F" fill-rule="evenodd" d="M27 3.984c.25 0 .5.094.719.282.187.187.281.468.281.718a1 1 0 0 1-.281.72l-22 22c-.282.25-.625.374-1 .28-.344-.093-.625-.375-.688-.718-.093-.344 0-.719.25-.969L8 22.578a21 21 0 0 1-5.812-6.031.94.94 0 0 1 0-1.125C4.656 11.797 8.78 6.984 16 6.984c2.156 0 4.281.47 6.219 1.375l4.062-4.093c.219-.188.469-.282.719-.282m-11 5c-4.656 0-8.312 2.157-11.781 7a18.2 18.2 0 0 0 5.219 5.157l2.406-2.406a4.84 4.84 0 0 1-.844-2.75c0-2.75 2.25-5 5-5 .969 0 1.938.28 2.75.843l1.938-1.969c-1.47-.593-3.063-.875-4.688-.875m0 4a3 3 0 0 0-3 3c0 .438.094.875.313 1.282l3.968-3.97A2.7 2.7 0 0 0 16 12.985m8.219-.968a22.6 22.6 0 0 1 3.562 3.968c-3.468 4.844-7.125 7-11.781 7-.844 0-1.687-.062-2.531-.218l-1.625 1.625c1.344.406 2.75.593 4.156.593 7.219 0 11.344-4.812 13.813-8.437a.94.94 0 0 0 0-1.125 22.7 22.7 0 0 0-4.188-4.812zm-8.907 8.906c.22.031.47.063.688.063 2.75 0 5-2.25 5-5a5 5 0 0 0-.062-.688z" clip-rule="evenodd"/></g><defs><clipPath id="a"><path fill="#fff" d="M0 0h32v32H0z"/></clipPath></defs></svg>