<svg xmlns="http://www.w3.org/2000/svg" width="20" height="20" fill="none"><g clip-path="url(#a)"><path fill="#1A1C1F" fill-rule="evenodd" d="M16.016 3.008c.52 0 .976.423.976.976 0 .26-.098.52-.293.715l-12 12a1 1 0 0 1-.683.293.993.993 0 0 1-1.008-1.008c0-.228.1-.486.293-.683l1.496-1.529c-1.008-.943-1.886-2.048-2.634-3.22A1.1 1.1 0 0 1 2 10c0-.195.065-.39.163-.553 1.3-1.919 3.707-5.43 7.837-5.43 1.268 0 2.504.357 3.577 1.007l1.724-1.723c.195-.195.455-.293.715-.293M10 6.033c-2.602 0-4.358 1.95-5.789 3.967a15.6 15.6 0 0 0 2.017 2.374L8.08 10.52a1.7 1.7 0 0 1-.097-.553c0-1.073.91-1.983 2.016-1.983.163 0 .358.032.52.097l1.561-1.593A5.1 5.1 0 0 0 10 6.033m5.138 3.089c.228.293.423.585.65.878-1.398 1.951-3.089 3.87-5.528 4L8.44 15.821q.78.195 1.561.195c4.13 0 6.537-3.544 7.837-5.463.098-.163.163-.358.163-.553s-.065-.39-.163-.553q-.536-.78-1.268-1.756z" clip-rule="evenodd"/></g><defs><clipPath id="a"><path fill="#fff" d="M0 0h20v20H0z"/></clipPath></defs></svg>