<svg xmlns="http://www.w3.org/2000/svg" width="32" height="32" fill="none"><g clip-path="url(#a)"><path fill="#1A1C1F" fill-rule="evenodd" d="M16 7c5.844 0 10.063 2.906 13.813 8.438A.95.95 0 0 1 30 16c0 .195-.062.39-.187.563C26.063 22.093 21.843 25 16 25S5.938 22.094 2.188 16.563A.95.95 0 0 1 2 16c0-.195.063-.39.188-.562C5.938 9.906 10.156 7 16 7m0 2c-4.687 0-8.281 2.125-11.781 7C7.702 20.726 11.28 23 16 23c4.969 0 8.281-2.125 11.781-7C24.313 11.188 20.97 9 16 9m0 2c2.75 0 5 2.25 5 5s-2.25 5-5 5-5-2.25-5-5 2.25-5 5-5m0 2a3 3 0 1 0 .002 6.002A3 3 0 0 0 16 13" clip-rule="evenodd"/></g><defs><clipPath id="a"><path fill="#fff" d="M0 0h32v32H0z"/></clipPath></defs></svg>