<svg xmlns="http://www.w3.org/2000/svg" width="28" height="28" fill="none"><g clip-path="url(#a)"><path fill="#1A1C1F" fill-rule="evenodd" d="M23.625 3.486c.219 0 .438.082.629.246.164.165.246.41.246.63a.87.87 0 0 1-.246.628L5.004 24.24c-.246.22-.547.328-.875.246a.83.83 0 0 1-.602-.628c-.082-.301 0-.63.22-.848L7 19.756a18.3 18.3 0 0 1-5.086-5.277.82.82 0 0 1 0-.985C4.074 10.322 7.684 6.111 14 6.111c1.887 0 3.746.41 5.441 1.204l3.555-3.583a.96.96 0 0 1 .629-.246M14 7.861c-4.074 0-7.273 1.887-10.309 6.125a15.95 15.95 0 0 0 4.567 4.512l2.105-2.105a4.23 4.23 0 0 1-.738-2.407A4.39 4.39 0 0 1 14 9.611c.848 0 1.695.246 2.406.739l1.696-1.723c-1.286-.52-2.68-.766-4.102-.766m0 3.5a2.626 2.626 0 0 0-2.625 2.625c0 .383.082.766.273 1.121l3.473-3.472A2.34 2.34 0 0 0 14 11.36m7.191-.847a19.8 19.8 0 0 1 3.118 3.472c-3.036 4.239-6.235 6.125-10.309 6.125a12 12 0 0 1-2.215-.191l-1.422 1.422c1.176.355 2.407.52 3.637.52 6.316 0 9.926-4.211 12.086-7.383a.82.82 0 0 0 0-.985 19.9 19.9 0 0 0-3.664-4.21zm-7.793 7.793c.192.027.41.054.602.054a4.39 4.39 0 0 0 4.375-4.375c0-.191-.027-.41-.055-.601z" clip-rule="evenodd"/></g><defs><clipPath id="a"><path fill="#fff" d="M0 0h28v28H0z"/></clipPath></defs></svg>