<svg xmlns="http://www.w3.org/2000/svg" width="24" height="24" fill="none"><g clip-path="url(#a)"><path fill="#1A1C1F" fill-rule="evenodd" d="M20 3c.531 0 1 .438 1 1 0 .25-.094.531-.281.719l-16 16A1.1 1.1 0 0 1 4 21c-.562 0-1-.406-1-1 0-.25.094-.5.281-.687L6 16.593c-1.406-1.187-2.687-2.5-3.781-3.968A.96.96 0 0 1 2 12c0-.219.063-.437.219-.625C3.875 9.313 7.313 5 12 5a8.86 8.86 0 0 1 4.344 1.25l2.937-2.937A1 1 0 0 1 20 3m-8 4c-3.344 0-6.125 3.063-7.719 5a20 20 0 0 0 3.125 3.156l2.375-2.344c-.125-.25-.156-.53-.156-.812A2.374 2.374 0 0 1 12 9.625c.281 0 .563.063.813.156l2.03-2.062A6.8 6.8 0 0 0 12 7m6.063 3.156A27 27 0 0 1 19.719 12c-1.594 1.969-4.375 5-7.719 5-.25 0-.469 0-.719-.031l-1.656 1.656c.75.25 1.563.375 2.375.375 4.688 0 8.125-4.312 9.781-6.375A.96.96 0 0 0 22 12a.96.96 0 0 0-.219-.625A36 36 0 0 0 19.5 8.75z" clip-rule="evenodd"/></g><defs><clipPath id="a"><path fill="#fff" d="M0 0h24v24H0z"/></clipPath></defs></svg>