<svg xmlns="http://www.w3.org/2000/svg" width="32" height="32" fill="none"><path fill="#1A1C1F" fill-rule="evenodd" d="M26.526 4.109c-.147.073-.906.808-2.255 2.183l-2.034 2.074-.558-.234a14.74 14.74 0 0 0-6.797-1.096c-2.004.154-3.546.574-5.309 1.443-2.557 1.262-4.753 3.253-6.913 6.268-.578.807-.653.952-.649 1.265.004.289.196.629.916 1.62a21.3 21.3 0 0 0 4.419 4.469l.653.486-1.918 1.92c-1.297 1.299-1.944 1.984-1.999 2.118-.208.504.042 1.136.521 1.318.227.086.572.067.81-.045.306-.144 22.391-22.246 22.505-22.523.151-.367.051-.88-.219-1.12-.296-.262-.808-.326-1.173-.146m-8.864 4.988c.362.046.917.142 1.232.212.611.136 1.747.495 1.745.551 0 .018-.426.473-.946 1.01l-.946.977-.212-.147c-.299-.207-.949-.471-1.446-.588-.611-.143-1.651-.132-2.278.024-1.83.455-3.233 1.89-3.702 3.785-.131.531-.118 1.671.026 2.199.156.575.305.949.521 1.307l.189.314-1.199 1.199-1.199 1.2-.31-.205c-1.635-1.082-3.414-2.826-4.619-4.53l-.299-.423.171-.237c.77-1.075 2.033-2.507 2.889-3.28 2.204-1.988 4.538-3.095 7.148-3.39.73-.082 2.511-.07 3.235.022m7.266 2.214-.691.692 1.019 1.025c1.013 1.019 1.452 1.517 2.102 2.385l.385.513c.046.062-.534.862-1.253 1.727-.516.623-1.992 2.089-2.543 2.528-1.842 1.466-3.834 2.348-6.056 2.681-.863.13-2.986.129-3.837 0l-.585-.09-.788.787c-.433.432-.788.802-.788.822 0 .054 1.28.351 1.918.446 1.292.192 3.108.193 4.366.002a14.5 14.5 0 0 0 6.116-2.424c1.862-1.298 3.83-3.363 5.348-5.613.434-.644.453-.899.111-1.465-.269-.444-1.32-1.829-1.853-2.44-.51-.585-1.644-1.734-2.036-2.063l-.243-.204zm-8.261 1.758c.117.031.305.095.416.143l.204.087-1.963 1.964c-1.08 1.08-1.98 1.964-2 1.964s-.089-.138-.152-.307c-.147-.386-.195-1.069-.109-1.518.205-1.058 1.104-2.025 2.143-2.304.339-.091 1.157-.107 1.461-.029m1.469 5.035c-1.539 1.539-2.782 2.814-2.763 2.834.02.019.319.034.665.032 2.315-.011 4.314-1.625 4.839-3.907.105-.453.152-1.181.099-1.504l-.043-.253z"/></svg>