<svg xmlns="http://www.w3.org/2000/svg" width="12" height="12" fill="none"><g clip-path="url(#a)"><path fill="#1A1C1F" fill-rule="evenodd" d="M6 2.41c2.475 0 3.919 2.1 4.688 3.243a.56.56 0 0 1 0 .675C9.918 7.472 8.474 9.591 6 9.591S2.081 7.47 1.312 6.328a.56.56 0 0 1 0-.675C2.082 4.51 3.525 2.41 6 2.41m0 1.2C4.444 3.61 3.394 4.794 2.531 6 3.394 7.223 4.444 8.41 6 8.41S8.606 7.222 9.469 6C8.606 4.795 7.556 3.61 6 3.61m-.01 3.6c.67 0 1.21-.54 1.21-1.191 0-.67-.54-1.21-1.21-1.21S4.8 5.35 4.8 6.02c0 .65.52 1.19 1.19 1.19" clip-rule="evenodd"/></g><defs><clipPath id="a"><path fill="#fff" d="M0 0h12v12H0z"/></clipPath></defs></svg>