<svg xmlns="http://www.w3.org/2000/svg" width="14" height="14" fill="none"><g clip-path="url(#a)"><path fill="#1A1C1F" fill-rule="evenodd" d="M7 2.81c2.888 0 4.572 2.45 5.469 3.785a.655.655 0 0 1 0 .788C11.572 8.717 9.888 11.189 7 11.189c-2.887 0-4.572-2.472-5.469-3.806a.655.655 0 0 1 0-.788C2.428 5.261 4.113 2.811 7 2.811m0 1.4C5.184 4.21 3.96 5.595 2.953 7 3.96 8.427 5.184 9.81 7 9.81S10.04 8.428 11.047 7C10.04 5.594 8.816 4.21 7 4.21m-.01 4.2c.78 0 1.41-.629 1.41-1.388 0-.782-.63-1.411-1.41-1.411-.782 0-1.39.63-1.39 1.41 0 .76.608 1.39 1.39 1.39" clip-rule="evenodd"/></g><defs><clipPath id="a"><path fill="#fff" d="M0 0h14v14H0z"/></clipPath></defs></svg>