<svg xmlns="http://www.w3.org/2000/svg" width="16" height="16" fill="none"><g clip-path="url(#a)"><path fill="#1A1C1F" fill-rule="evenodd" d="M12.813 2.406c.416 0 .78.339.78.781a.8.8 0 0 1-.234.572l-9.6 9.6a.8.8 0 0 1-.546.235.794.794 0 0 1-.807-.807c0-.182.08-.389.235-.546l1.196-1.223c-.806-.755-1.509-1.64-2.107-2.576A.9.9 0 0 1 1.6 8c0-.156.052-.312.13-.442C2.77 6.023 4.696 3.213 8 3.213c1.015 0 2.003.286 2.862.806l1.379-1.378a.8.8 0 0 1 .572-.235M8 4.826C5.919 4.826 4.514 6.387 3.37 8a12.5 12.5 0 0 0 1.612 1.9l1.483-1.484a1.3 1.3 0 0 1-.078-.442c0-.859.728-1.587 1.613-1.587.13 0 .286.026.416.078L9.665 5.19A4.1 4.1 0 0 0 8 4.826m4.11 2.472c.183.234.339.468.52.702-1.118 1.56-2.47 3.096-4.422 3.2l-1.457 1.457A5.1 5.1 0 0 0 8 12.813c3.304 0 5.23-2.836 6.27-4.37A.9.9 0 0 0 14.4 8a.9.9 0 0 0-.13-.442 43 43 0 0 0-1.015-1.405z" clip-rule="evenodd"/></g><defs><clipPath id="a"><path fill="#fff" d="M0 0h16v16H0z"/></clipPath></defs></svg>