<svg xmlns="http://www.w3.org/2000/svg" width="32" height="32" fill="none"><path fill="#1A1C1F" fill-rule="evenodd" d="M14.933 7.039c-3.737.264-6.75 1.682-9.574 4.507-.895.895-1.469 1.566-2.372 2.774-.849 1.135-.973 1.348-.973 1.68 0 .33.123.544.952 1.655 2.711 3.633 5.449 5.746 8.734 6.742 1.36.412 2.622.583 4.3.583 1.32 0 1.879-.049 3.009-.268 3.796-.733 6.976-2.972 10.025-7.057.829-1.111.952-1.325.952-1.655s-.123-.544-.952-1.655c-2.71-3.632-5.505-5.786-8.741-6.738-1.612-.474-3.641-.689-5.36-.568m3.147 2.106c2.163.329 4.052 1.164 5.813 2.568.582.463 1.932 1.813 2.501 2.5.668.806 1.339 1.704 1.339 1.79-.001.098-.845 1.205-1.537 2.014-.611.715-1.711 1.804-2.32 2.298-1.673 1.356-3.564 2.196-5.716 2.54-.726.116-2.723.163-3.499.083-3.827-.395-7.009-2.434-10.066-6.449l-.379-.498.411-.542c3.025-3.996 6.074-5.954 9.933-6.379.668-.073 2.852-.027 3.52.075m-2.667 1.894c-.593.075-1.018.208-1.626.509a4.93 4.93 0 0 0-2.626 3.214 5.24 5.24 0 0 0 0 2.476 5.07 5.07 0 0 0 3.601 3.601 5.24 5.24 0 0 0 2.476 0 5.07 5.07 0 0 0 3.601-3.601 5.24 5.24 0 0 0 0-2.476 4.95 4.95 0 0 0-2.626-3.215c-.883-.44-1.892-.623-2.8-.508m1.607 2.151c.866.328 1.449.908 1.792 1.782.127.323.142.432.142 1.028s-.015.705-.142 1.028c-.475 1.211-1.548 1.959-2.812 1.959s-2.337-.748-2.812-1.959c-.127-.323-.142-.432-.142-1.028 0-.592.015-.706.139-1.02.396-1.008 1.187-1.696 2.202-1.916.401-.087 1.244-.022 1.633.126"/></svg>