<svg xmlns="http://www.w3.org/2000/svg" width="14" height="14" fill="none"><g clip-path="url(#a)"><path fill="#1A1C1F" fill-rule="evenodd" d="M11.211 2.106c.365 0 .683.296.683.683a.7.7 0 0 1-.204.5l-8.4 8.4a.7.7 0 0 1-.479.205.695.695 0 0 1-.705-.705c0-.16.07-.34.205-.478l1.047-1.07a11.7 11.7 0 0 1-1.844-2.254A.77.77 0 0 1 1.4 7c0-.137.046-.273.114-.387C2.424 5.27 4.109 2.811 7 2.811c.888 0 1.753.25 2.504.706l1.207-1.206a.7.7 0 0 1 .5-.205M7 4.223C5.179 4.223 3.95 5.589 2.948 7a11 11 0 0 0 1.411 1.662l1.298-1.298a1.2 1.2 0 0 1-.068-.387c0-.751.637-1.388 1.411-1.388.114 0 .25.022.364.068L8.457 4.54A3.6 3.6 0 0 0 7 4.223m3.597 2.162c.16.205.296.41.455.615-.979 1.366-2.163 2.709-3.87 2.8l-1.275 1.275q.547.136 1.093.136c2.891 0 4.576-2.481 5.486-3.824A.77.77 0 0 0 12.6 7a.77.77 0 0 0-.114-.387q-.375-.546-.888-1.23z" clip-rule="evenodd"/></g><defs><clipPath id="a"><path fill="#fff" d="M0 0h14v14H0z"/></clipPath></defs></svg>