<svg xmlns="http://www.w3.org/2000/svg" width="24" height="24" fill="none"><g clip-path="url(#a)"><path fill="#1A1C1F" fill-rule="evenodd" d="M12 5c3.688 0 6.406 2.188 9.781 6.375A.96.96 0 0 1 22 12a.96.96 0 0 1-.219.625C18.406 16.844 15.688 19 12 19c-3.469 0-5.937-1.687-9.781-6.375A.96.96 0 0 1 2 12c0-.219.063-.437.219-.625C5.594 7.188 8.313 5 12 5m0 2c-2.531 0-4.687 1.406-7.719 5C7.22 15.5 9.25 16.906 12 17c2.531 0 4.688-1.406 7.719-5C16.78 8.5 14.75 7.094 12 7m0 2a3 3 0 1 1-.002 6.002A3 3 0 0 1 12 9m0 2c-.562 0-1 .469-1 1 0 .563.438 1.031 1 1.031s1-.469 1-1.031c0-.531-.437-1-1-1" clip-rule="evenodd"/></g><defs><clipPath id="a"><path fill="#fff" d="M0 0h24v24H0z"/></clipPath></defs></svg>