<svg xmlns="http://www.w3.org/2000/svg" width="28" height="28" fill="none"><g clip-path="url(#a)"><path fill="#1A1C1F" fill-rule="evenodd" d="M14 6.125c5.113 0 8.805 2.543 12.086 7.383.11.15.164.321.164.492s-.055.342-.164.492c-3.281 4.84-6.973 7.383-12.086 7.383s-8.805-2.543-12.086-7.383A.83.83 0 0 1 1.75 14c0-.17.055-.342.164-.492C5.195 8.668 8.887 6.125 14 6.125m0 1.75c-4.102 0-7.246 1.86-10.309 6.125C6.74 18.135 9.871 20.125 14 20.125c4.348 0 7.246-1.86 10.309-6.125C21.273 9.79 18.348 7.875 14 7.875m0 1.75A4.39 4.39 0 0 1 18.375 14 4.39 4.39 0 0 1 14 18.375 4.39 4.39 0 0 1 9.625 14 4.39 4.39 0 0 1 14 9.625m0 1.75a2.626 2.626 0 1 0 .001 5.251A2.626 2.626 0 0 0 14 11.375" clip-rule="evenodd"/></g><defs><clipPath id="a"><path fill="#fff" d="M0 0h28v28H0z"/></clipPath></defs></svg>