<svg xmlns="http://www.w3.org/2000/svg" width="14" height="14" fill="none"><g clip-path="url(#a)"><path fill="#1A1C1F" fill-rule="evenodd" d="M8.4 2.275a3.5 3.5 0 0 1 3.5 3.5l-.01.24.061.067c.341.41.561.91.628 1.447l.016.18.005.166a2.803 2.803 0 0 1-2.513 2.784l-.143.012h-.145a.7.7 0 0 1 0-1.399h.084a1.4 1.4 0 0 0 1.313-1.292l.004-.105c0-.376-.148-.727-.406-.986l-.09-.083-.308-.26.071-.398q.033-.183.033-.373a2.1 2.1 0 0 0-3.858-1.148l-.073.12-.241.432-.488-.084a1.402 1.402 0 0 0-1.543.865l-.038.108-.108.358-.358.109a1.4 1.4 0 0 0 .303 2.736l.104.004a.7.7 0 0 1 0 1.4 2.8 2.8 0 0 1-2.797-2.66l-.003-.14c0-1.049.582-1.984 1.467-2.463l.13-.066.05-.023.024-.052a2.8 2.8 0 0 1 2.232-1.58l.154-.012.143-.004.128-.16c.618-.732 1.686-1.194 2.672-1.24M7 6.475l.053.002.088.012.078.02.077.032.069.036.073.052.057.051 1.05 1.05A.7.7 0 0 1 7.7 8.832v2.193a.7.7 0 0 1-1.395.084l-.005-.084V8.831a.7.7 0 0 1-.779-.053l-.066-.058a.7.7 0 0 1-.058-.924l.058-.066 1.05-1.05a1 1 0 0 1 .078-.068l.078-.05.08-.037.073-.025.082-.017.041-.005z" clip-rule="evenodd"/></g><defs><clipPath id="a"><path fill="#fff" d="M0 0h14v14H0z"/></clipPath></defs></svg>