<svg xmlns="http://www.w3.org/2000/svg" width="12" height="12" fill="none"><g clip-path="url(#a)"><path fill="#1A1C1F" fill-rule="evenodd" d="M6 5.4a.6.6 0 0 1 .596.53L6.6 6v2.78a.6.6 0 0 1 .774.888l-.05.056-.9.9-.049.044-.063.044-.058.032-.067.026-.067.018-.075.01L6 10.8l-.054-.002-.035-.005-.07-.014-.064-.022-.067-.032-.067-.043-.035-.027-.032-.03-.9-.9-.05-.057a.6.6 0 0 1 0-.736l.05-.056.056-.05a.6.6 0 0 1 .597-.08l.071.034V6l.004-.07A.6.6 0 0 1 6 5.4m1.2-4.2a3 3 0 0 1 3 3l-.008.206.052.057c.292.35.48.78.538 1.24l.014.155L10.8 6c0 1.232-.93 2.255-2.154 2.387l-.123.01H8.4a.6.6 0 0 1-.595-.53l-.004-.07a.6.6 0 0 1 .6-.599h.071A1.2 1.2 0 0 0 9.597 6.09L9.6 6c0-.322-.127-.623-.348-.845l-.077-.071-.264-.223.06-.34q.03-.159.029-.321a1.8 1.8 0 0 0-3.307-.984l-.062.103-.207.37-.418-.072a1.202 1.202 0 0 0-1.323.742l-.032.093-.093.306-.307.093a1.2 1.2 0 0 0 .26 2.346l.09.003a.6.6 0 0 1 .07 1.196L3.6 8.4a2.4 2.4 0 0 1-2.397-2.28L1.2 6a2.4 2.4 0 0 1 1.258-2.111l.11-.056.044-.02.02-.045a2.4 2.4 0 0 1 1.913-1.355l.133-.01L4.8 2.4l.11-.137C5.44 1.635 6.354 1.24 7.2 1.2" clip-rule="evenodd"/></g><defs><clipPath id="a"><path fill="#fff" d="M0 0h12v12H0z"/></clipPath></defs></svg>