<svg xmlns="http://www.w3.org/2000/svg" width="32" height="32" fill="none"><path fill="#1A1C1F" fill-rule="evenodd" d="M18.32 2.854a8.5 8.5 0 0 0-3.07 1.26c-.487.325-1.442 1.215-1.787 1.667l-.16.208-.478-.1c-.661-.139-2.001-.14-2.638-.002a6.57 6.57 0 0 0-4.144 2.844c-.34.518-.504.871-.737 1.58l-.172.524-.36.241c-.852.572-1.654 1.508-2.138 2.497-1.535 3.14-.187 6.795 3.108 8.423.565.28 1.341.534 1.976.646.667.119 2.104.165 2.462.079.324-.077.624-.312.733-.572.177-.424.01-.981-.37-1.232-.212-.14-.238-.144-1.341-.179-.968-.03-1.191-.054-1.604-.169-.942-.263-1.65-.665-2.286-1.298-2.049-2.043-1.627-5.2.902-6.746.643-.392.735-.513.879-1.147.222-.983.628-1.713 1.317-2.37a4.4 4.4 0 0 1 1.681-1.015c.898-.301 2.01-.295 2.867.017.57.207.937.245 1.196.122.224-.107.367-.272.735-.852.313-.494.942-1.164 1.402-1.494.593-.425 1.404-.774 2.187-.941.479-.101 1.618-.088 2.156.027 1.263.268 2.46 1.025 3.22 2.038.886 1.181 1.238 2.468 1.097 4.007-.06.647-.057.722.031.917.12.265.211.346.764.674 1.892 1.122 2.69 3.208 1.978 5.175-.387 1.07-1.352 2.078-2.477 2.587-.737.334-1.265.434-2.48.47-1.075.033-1.101.036-1.313.176-.464.308-.585.996-.248 1.418.298.375.446.413 1.565.409 1.491-.006 2.456-.227 3.647-.837 3.004-1.538 4.35-4.965 3.121-7.946-.455-1.103-1.363-2.247-2.277-2.867l-.275-.186-.001-.667c-.006-2.509-1.225-4.807-3.279-6.18a7.6 7.6 0 0 0-2.696-1.154c-.565-.125-2.127-.155-2.693-.052m-2.809 12.04c-.233.142-.378.32-.462.567-.046.133-.062 1.552-.062 5.28v5.098l-.974-.967c-.535-.532-1.032-.997-1.104-1.034-.181-.092-.639-.083-.83.016-.207.108-.431.347-.502.536-.083.22-.069.604.029.799.119.237 3.682 3.808 3.925 3.935.244.127.677.135.912.017.245-.123 3.809-3.684 3.94-3.937.233-.449.046-1.063-.402-1.315-.246-.138-.69-.153-.922-.03-.084.044-.572.502-1.086 1.018l-.933.938-.027-5.161c-.025-4.96-.03-5.169-.129-5.368-.232-.468-.926-.666-1.373-.392"/></svg>