<svg xmlns="http://www.w3.org/2000/svg" width="32" height="32" fill="none"><g clip-path="url(#a)"><path fill="#1A1C1F" fill-rule="evenodd" d="M16 14.5c.25 0 .508.086.711.289l4 4c.203.203.289.461.289.711 0 .438-.312 1-1 1-.25 0-.532-.093-.718-.281L17 17.906V26.5c0 .562-.437 1-1 1s-1-.438-1-1v-8.594l-2.29 2.305a.99.99 0 0 1-.71.289c-.594 0-1-.469-1-1 0-.25.086-.508.289-.711l3.993-4.008c.187-.187.468-.281.718-.281m3.5-10c4.14 0 7.5 3.358 7.5 7.5l-.008.647c1.683 1.1 2.818 2.884 2.986 4.84l.017.255L30 18c0 3.441-2.87 6.242-6.509 6.484l-.244.012H22a1 1 0 0 1-.993-.883L21 23.497a1 1 0 0 1 1-1h1.196c2.618-.09 4.683-1.984 4.799-4.292L28 18c0-1.637-.984-3.131-2.558-3.927A1 1 0 0 1 24.91 13q.09-.491.091-1a5.5 5.5 0 0 0-10.372-2.557 1 1 0 0 1-1.293.447 4.5 4.5 0 0 0-6.288 3.459 1 1 0 0 1-.53.745C4.965 14.896 4 16.378 4 18c0 2.396 2.098 4.387 4.77 4.496L9 22.5h1a1 1 0 0 1 .993.881l.007.117a1 1 0 0 1-1 1.001L9 24.5c-3.766 0-6.866-2.768-6.996-6.27L2 18c0-2.138 1.118-4.084 2.92-5.284l.22-.14.069-.214a6.5 6.5 0 0 1 5.787-4.843l.262-.015.242-.004c.493 0 .98.055 1.451.163l.351.09.136-.172C14.775 5.75 17.168 4.5 19.5 4.5" clip-rule="evenodd"/></g><defs><clipPath id="a"><path fill="#fff" d="M0 0h32v32H0z"/></clipPath></defs></svg>