<svg xmlns="http://www.w3.org/2000/svg" width="20" height="20" fill="none"><g clip-path="url(#a)"><path fill="#1A1C1F" fill-rule="evenodd" d="M12 3.25a5 5 0 0 1 5 5l-.013.343.086.096c.487.584.802 1.299.896 2.066l.024.258.007.237a4.004 4.004 0 0 1-3.59 3.977l-.205.018H14a1 1 0 0 1 0-1.998h.12a2 2 0 0 0 1.875-1.847l.006-.15a2 2 0 0 0-.58-1.408l-.129-.119-.44-.372.102-.568Q15 8.522 15 8.25a3 3 0 0 0-5.511-1.64l-.104.172-.346.617-.696-.12a2.003 2.003 0 0 0-2.204 1.236l-.054.154-.155.512-.512.155a2.001 2.001 0 0 0 .433 3.909L6 13.25a1 1 0 0 1 0 2 4 4 0 0 1-3.995-3.8L2 11.25c0-1.498.83-2.834 2.096-3.519l.184-.093.074-.034.033-.074a4 4 0 0 1 3.188-2.258l.221-.017L8 5.25l.182-.228C9.066 3.976 10.592 3.316 12 3.25m-2 6 .075.003.126.017.111.03.111.044.098.052.104.074.082.073 1.5 1.5A1 1 0 0 1 11 12.617v3.133a1 1 0 0 1-1.993.12L9 15.75v-3.134c-.347.201-.79.176-1.113-.076l-.094-.083a1 1 0 0 1-.083-1.32l.083-.094 1.5-1.5a1 1 0 0 1 .112-.097l.11-.071.114-.054.105-.035.118-.025.058-.007z" clip-rule="evenodd"/></g><defs><clipPath id="a"><path fill="#fff" d="M0 0h20v20H0z"/></clipPath></defs></svg>