<svg xmlns="http://www.w3.org/2000/svg" width="28" height="28" fill="none"><g clip-path="url(#a)"><path fill="#1A1C1F" fill-rule="evenodd" d="M14 12.906c.449 0 .819.338.87.773l.005.102v8.824l1.569-1.567a.875.875 0 0 1 1.155-.073l.082.073c.316.315.34.811.073 1.154l-.073.083-3.062 3.063a.875.875 0 0 1-1.155.072l-.083-.073-3.062-3.062a.875.875 0 0 1 1.155-1.31l.082.073 1.569 1.567V13.78c0-.483.392-.875.875-.875m3.063-10.5a6.564 6.564 0 0 1 6.562 6.563l-.007.566c1.473.963 2.466 2.523 2.613 4.234l.014.224.005.226c0 3.01-2.511 5.462-5.695 5.673l-.213.01H19.25a.875.875 0 0 1-.87-.772l-.005-.102c0-.483.392-.874.875-.874h1.046c2.291-.08 4.098-1.736 4.2-3.756l.004-.18c0-1.431-.86-2.74-2.238-3.435a.875.875 0 0 1-.466-.939A4.812 4.812 0 0 0 12.8 6.731a.875.875 0 0 1-1.132.391 3.938 3.938 0 0 0-5.502 3.027.88.88 0 0 1-.464.652C4.345 11.502 3.5 12.8 3.5 14.219c0 2.097 1.836 3.838 4.173 3.933l.202.004h.875c.449 0 .818.337.87.771l.005.103a.875.875 0 0 1-.875.875l-.875.001c-3.295 0-6.007-2.422-6.121-5.486l-.004-.201c0-1.87.978-3.573 2.556-4.624l.192-.122.06-.188a5.69 5.69 0 0 1 5.064-4.237l.229-.013.211-.004q.65.001 1.27.143l.307.079.12-.15c1.17-1.604 3.262-2.697 5.304-2.697" clip-rule="evenodd"/></g><defs><clipPath id="a"><path fill="#fff" d="M0 0h28v28H0z"/></clipPath></defs></svg>