<svg width="12" height="12" viewBox="0 0 12 12" fill="none" xmlns="http://www.w3.org/2000/svg"><path d="M7.030 1.213 C 6.723 1.250,6.287 1.367,6.000 1.490 C 5.610 1.657,5.313 1.863,4.977 2.201 L 4.785 2.394 4.572 2.418 C 4.179 2.462,3.859 2.569,3.561 2.756 C 3.184 2.993,2.932 3.252,2.709 3.630 C 2.605 3.808,2.593 3.820,2.454 3.896 C 1.836 4.236,1.394 4.835,1.250 5.530 C 1.067 6.410,1.433 7.370,2.159 7.916 C 2.660 8.294,3.484 8.504,3.844 8.345 C 4.028 8.263,4.173 8.059,4.194 7.850 C 4.216 7.642,4.104 7.411,3.933 7.310 C 3.822 7.245,3.757 7.227,3.552 7.200 C 3.190 7.153,2.970 7.052,2.759 6.839 C 2.528 6.605,2.413 6.326,2.413 6.000 C 2.413 5.674,2.528 5.395,2.760 5.160 C 2.910 5.008,3.113 4.895,3.389 4.811 L 3.559 4.759 3.611 4.589 C 3.740 4.166,3.941 3.905,4.262 3.744 C 4.558 3.594,4.745 3.576,5.195 3.653 C 5.297 3.670,5.393 3.679,5.409 3.673 C 5.424 3.667,5.475 3.597,5.521 3.516 C 5.692 3.219,5.805 3.062,5.956 2.917 C 6.209 2.672,6.551 2.488,6.840 2.441 C 7.007 2.414,7.393 2.414,7.560 2.441 C 7.959 2.506,8.440 2.830,8.690 3.203 C 8.961 3.607,9.042 4.049,8.950 4.626 L 8.912 4.862 9.021 4.954 C 9.394 5.272,9.559 5.553,9.591 5.924 C 9.628 6.359,9.378 6.818,8.980 7.045 C 8.851 7.119,8.657 7.173,8.429 7.200 C 8.311 7.213,8.194 7.240,8.142 7.265 C 7.965 7.349,7.836 7.531,7.809 7.735 C 7.783 7.928,7.895 8.180,8.053 8.282 C 8.194 8.374,8.258 8.390,8.480 8.389 C 9.064 8.384,9.651 8.130,10.091 7.691 C 10.552 7.229,10.789 6.659,10.788 6.010 C 10.788 5.463,10.641 5.009,10.320 4.564 L 10.200 4.397 10.200 4.244 C 10.199 3.299,9.794 2.449,9.063 1.859 C 8.869 1.703,8.538 1.509,8.310 1.418 C 8.077 1.326,7.729 1.243,7.516 1.230 C 7.155 1.208,7.089 1.206,7.030 1.213 M5.870 5.418 C 5.690 5.465,5.542 5.581,5.466 5.736 L 5.410 5.850 5.404 7.313 L 5.398 8.775 5.274 8.736 C 4.987 8.645,4.710 8.763,4.577 9.032 C 4.524 9.141,4.513 9.185,4.513 9.306 C 4.513 9.496,4.540 9.552,4.744 9.780 C 4.975 10.038,5.569 10.616,5.683 10.696 C 5.852 10.812,6.070 10.827,6.259 10.736 C 6.363 10.686,7.293 9.772,7.396 9.618 C 7.597 9.319,7.489 8.939,7.154 8.766 C 7.069 8.723,7.024 8.713,6.910 8.713 C 6.833 8.714,6.732 8.729,6.686 8.746 L 6.601 8.778 6.596 7.314 L 6.590 5.850 6.545 5.759 C 6.483 5.635,6.369 5.523,6.250 5.468 C 6.139 5.417,5.962 5.393,5.870 5.418 " fill="#1A1C1F" stroke="none" fill-rule="evenodd"></path></svg>