<svg xmlns="http://www.w3.org/2000/svg" width="24" height="24" fill="none"><g clip-path="url(#a)"><path fill="#1A1C1F" fill-rule="evenodd" d="m12 21.5.075-.003.126-.017.111-.03.111-.044.098-.052.092-.064.046-.038.048-.045 2.5-2.5a1 1 0 0 0-1.32-1.497l-.094.083-.793.792V11.5a1 1 0 0 0-1.993-.117L11 11.5v6.586l-.793-.793a1 1 0 0 0-1.32-.083l-.094.083a1 1 0 0 0-.083 1.32l.083.094 2.5 2.5q.053.053.112.097l.11.071.114.054.105.035.117.025.059.007zm2-19a6 6 0 0 1 5.816 4.52l.054.232.034.179.144.106a5 5 0 0 1 1.927 3.466l.02.261.005.236a5.004 5.004 0 0 1-4.554 4.98l-.222.015h-.227a1 1 0 0 1-.99-.882L16 15.476c0-.5.377-.913.861-.97l.114-.006.175-.004a3 3 0 0 0 1.333-5.603 1 1 0 0 1-.501-.775 4 4 0 0 0-6.7-2.552 1 1 0 0 1-1.082.183 3 3 0 0 0-4.19 2.993 1 1 0 0 1-.57.993A2.5 2.5 0 0 0 4 12c0 1.274.956 2.333 2.175 2.481l.16.014.165.005h.503a.996.996 0 1 1 0 1.993h-.749a4.5 4.5 0 0 1-4.249-4.277L2 12c0-1.387.633-2.66 1.667-3.497l.186-.143.153-.106.012-.185a5 5 0 0 1 4.538-4.55l.227-.014L9 3.5q.449 0 .883.078l.287.06.231.062.174-.127C11.49 2.935 12.859 2.553 14 2.5" clip-rule="evenodd"/></g><defs><clipPath id="a"><path fill="#fff" d="M0 0h24v24H0z"/></clipPath></defs></svg>