<svg width="14" height="14" viewBox="0 0 14 14" fill="none" xmlns="http://www.w3.org/2000/svg"><path d="M8.143 2.312 C 7.277 2.377,6.256 2.888,5.728 3.521 L 5.591 3.687 5.470 3.687 C 5.166 3.687,4.592 3.842,4.293 4.005 C 3.805 4.272,3.445 4.632,3.101 5.197 C 3.031 5.313,2.991 5.349,2.856 5.423 C 2.615 5.556,2.411 5.715,2.191 5.943 C 1.609 6.548,1.356 7.270,1.424 8.130 C 1.436 8.285,1.453 8.438,1.460 8.470 C 1.543 8.812,1.761 9.283,1.958 9.544 C 2.201 9.866,2.613 10.208,2.984 10.394 C 3.171 10.488,3.559 10.609,3.776 10.641 C 3.881 10.656,4.070 10.665,4.195 10.660 C 4.391 10.652,4.438 10.642,4.531 10.587 C 4.849 10.401,4.987 9.991,4.833 9.689 C 4.702 9.432,4.530 9.329,4.142 9.275 C 3.683 9.212,3.447 9.099,3.184 8.817 C 2.958 8.574,2.802 8.197,2.800 7.892 C 2.800 7.739,2.866 7.450,2.938 7.293 C 3.121 6.893,3.425 6.650,3.934 6.496 L 4.147 6.431 4.211 6.232 C 4.380 5.708,4.596 5.427,4.978 5.234 C 5.315 5.065,5.599 5.050,6.265 5.170 C 6.332 5.182,6.339 5.174,6.426 5.012 C 6.563 4.754,6.756 4.471,6.900 4.315 C 7.146 4.050,7.598 3.798,7.953 3.728 C 8.168 3.686,8.736 3.694,8.913 3.741 C 9.536 3.908,10.035 4.329,10.307 4.919 C 10.471 5.272,10.519 5.776,10.439 6.290 L 10.401 6.534 10.660 6.781 C 10.896 7.005,10.930 7.048,11.034 7.256 C 11.179 7.545,11.218 7.745,11.182 8.017 C 11.137 8.355,11.007 8.631,10.788 8.852 C 10.546 9.096,10.263 9.225,9.858 9.276 C 9.464 9.324,9.285 9.433,9.166 9.695 C 9.094 9.853,9.093 10.094,9.162 10.247 C 9.223 10.379,9.366 10.527,9.502 10.596 C 9.638 10.666,9.969 10.682,10.255 10.632 C 11.654 10.388,12.661 9.145,12.591 7.747 C 12.564 7.201,12.344 6.595,12.025 6.181 L 11.900 6.019 11.900 5.835 C 11.900 4.580,11.297 3.479,10.248 2.817 C 9.766 2.514,9.279 2.349,8.750 2.310 C 8.577 2.297,8.425 2.289,8.412 2.290 C 8.399 2.292,8.278 2.302,8.143 2.312 M6.810 6.507 C 6.764 6.517,6.675 6.563,6.612 6.609 C 6.428 6.744,5.359 7.840,5.309 7.945 C 5.242 8.085,5.246 8.351,5.318 8.512 C 5.389 8.670,5.557 8.822,5.717 8.874 C 5.866 8.922,6.087 8.925,6.196 8.880 C 6.240 8.861,6.279 8.848,6.281 8.850 C 6.284 8.853,6.292 9.380,6.300 10.022 C 6.311 10.822,6.324 11.215,6.343 11.273 C 6.379 11.384,6.535 11.559,6.666 11.636 C 6.808 11.719,7.057 11.737,7.236 11.678 C 7.388 11.627,7.611 11.414,7.656 11.277 C 7.678 11.212,7.688 10.868,7.694 10.016 C 7.699 9.371,7.705 8.843,7.707 8.844 C 7.710 8.844,7.754 8.859,7.805 8.878 C 7.931 8.923,8.157 8.922,8.296 8.874 C 8.429 8.829,8.602 8.668,8.683 8.514 C 8.755 8.378,8.761 8.086,8.693 7.945 C 8.637 7.827,7.418 6.605,7.303 6.552 C 7.207 6.507,6.931 6.482,6.810 6.507 " fill="#1A1C1F" stroke="none" fill-rule="evenodd"></path></svg>