<svg width="20" height="20" viewBox="0 0 20 20" fill="none" xmlns="http://www.w3.org/2000/svg"><path d="M11.650 3.302 C 10.408 3.390,8.942 4.120,8.187 5.026 L 7.995 5.257 7.689 5.277 C 7.103 5.316,6.408 5.543,5.880 5.869 C 5.508 6.098,4.848 6.744,4.639 7.083 C 4.560 7.212,4.454 7.386,4.402 7.470 C 4.331 7.586,4.253 7.653,4.079 7.748 C 3.735 7.937,3.443 8.165,3.130 8.490 C 2.466 9.180,2.103 9.976,2.029 10.906 C 1.954 11.837,2.159 12.666,2.651 13.423 C 2.886 13.785,3.453 14.358,3.799 14.583 C 4.477 15.023,5.245 15.253,5.960 15.228 C 6.276 15.218,6.334 15.206,6.472 15.125 C 7.052 14.785,7.164 14.066,6.715 13.569 C 6.559 13.397,6.342 13.310,5.911 13.250 C 5.282 13.162,4.937 13.001,4.577 12.629 C 3.971 12.002,3.844 11.145,4.238 10.337 C 4.434 9.936,4.697 9.684,5.145 9.469 C 5.331 9.380,5.582 9.281,5.703 9.250 L 5.922 9.193 6.015 8.905 C 6.258 8.153,6.565 7.753,7.111 7.478 C 7.593 7.235,7.995 7.215,8.950 7.385 C 9.047 7.402,9.055 7.393,9.217 7.095 C 9.707 6.187,10.207 5.721,10.997 5.432 C 11.531 5.238,12.401 5.223,12.918 5.400 C 13.708 5.671,14.331 6.217,14.682 6.945 C 14.887 7.370,14.935 7.574,14.957 8.124 C 14.971 8.491,14.962 8.682,14.917 8.963 L 14.859 9.327 15.256 9.722 C 15.594 10.058,15.672 10.156,15.780 10.380 C 15.961 10.757,16.020 11.075,15.975 11.433 C 15.914 11.927,15.729 12.324,15.411 12.646 C 15.066 12.995,14.661 13.179,14.082 13.251 C 13.520 13.321,13.265 13.476,13.094 13.850 C 12.992 14.075,12.990 14.420,13.089 14.638 C 13.175 14.826,13.380 15.037,13.574 15.138 C 13.769 15.240,14.235 15.260,14.663 15.186 C 16.647 14.842,18.087 13.058,17.987 11.067 C 17.949 10.288,17.635 9.421,17.179 8.830 L 17.000 8.599 17.000 8.336 C 17.000 6.211,15.774 4.392,13.809 3.602 C 13.351 3.418,12.993 3.335,12.505 3.299 C 12.273 3.283,12.068 3.270,12.050 3.273 C 12.032 3.275,11.852 3.288,11.650 3.302 M9.729 9.296 C 9.663 9.310,9.535 9.375,9.446 9.441 C 9.183 9.634,7.656 11.200,7.584 11.350 C 7.488 11.550,7.495 11.930,7.597 12.159 C 7.700 12.389,7.951 12.616,8.176 12.683 C 8.390 12.747,8.701 12.748,8.851 12.685 C 8.915 12.658,8.970 12.640,8.973 12.643 C 8.977 12.647,8.989 13.400,9.001 14.317 C 9.016 15.523,9.033 16.019,9.064 16.114 C 9.125 16.303,9.440 16.607,9.648 16.677 C 9.857 16.749,10.143 16.749,10.352 16.677 C 10.559 16.607,10.875 16.303,10.936 16.114 C 10.968 16.017,10.982 15.553,10.992 14.306 C 11.003 12.746,11.008 12.629,11.060 12.651 C 11.350 12.770,11.747 12.757,11.978 12.622 C 12.136 12.529,12.315 12.331,12.420 12.133 C 12.508 11.969,12.507 11.534,12.419 11.350 C 12.339 11.182,10.598 9.436,10.433 9.360 C 10.296 9.296,9.901 9.260,9.729 9.296 " fill="#1A1C1F" stroke="none" fill-rule="evenodd"></path></svg>