<svg width="16" height="16" viewBox="0 0 16 16" fill="none" xmlns="http://www.w3.org/2000/svg"><path d="M9.307 2.641 C 8.312 2.719,7.149 3.302,6.547 4.024 L 6.389 4.213 6.251 4.213 C 5.937 4.213,5.419 4.340,5.047 4.508 C 4.775 4.631,4.441 4.865,4.184 5.112 C 3.912 5.374,3.810 5.503,3.600 5.849 C 3.460 6.079,3.443 6.096,3.237 6.214 C 2.615 6.570,2.087 7.170,1.840 7.802 C 1.662 8.258,1.620 8.481,1.621 8.973 C 1.621 9.609,1.695 9.929,1.963 10.453 C 2.141 10.801,2.304 11.019,2.598 11.301 C 2.962 11.652,3.349 11.884,3.825 12.040 C 4.168 12.152,4.463 12.196,4.794 12.182 C 5.019 12.173,5.072 12.162,5.179 12.099 C 5.543 11.886,5.699 11.418,5.522 11.071 C 5.378 10.788,5.172 10.658,4.793 10.612 C 4.288 10.550,4.011 10.433,3.723 10.160 C 3.184 9.647,3.060 8.946,3.391 8.269 C 3.547 7.949,3.758 7.747,4.116 7.575 C 4.265 7.504,4.466 7.425,4.562 7.400 L 4.737 7.355 4.812 7.124 C 5.036 6.429,5.378 6.053,5.944 5.877 C 6.203 5.796,6.729 5.809,7.165 5.907 C 7.217 5.919,7.248 5.881,7.401 5.620 C 7.620 5.249,7.799 5.006,7.971 4.845 C 8.260 4.574,8.723 4.333,9.090 4.261 C 9.335 4.213,9.984 4.222,10.187 4.276 C 10.899 4.466,11.468 4.947,11.780 5.622 C 11.967 6.026,12.024 6.631,11.929 7.201 L 11.885 7.466 12.184 7.750 C 12.462 8.014,12.492 8.053,12.614 8.304 C 12.778 8.642,12.821 8.868,12.779 9.169 C 12.724 9.555,12.605 9.811,12.350 10.086 C 12.062 10.399,11.779 10.532,11.257 10.601 C 10.814 10.659,10.610 10.784,10.475 11.080 C 10.393 11.260,10.392 11.536,10.471 11.711 C 10.539 11.860,10.703 12.029,10.859 12.112 C 10.963 12.168,11.007 12.173,11.333 12.172 C 11.736 12.170,12.000 12.117,12.388 11.961 C 12.975 11.726,13.516 11.282,13.877 10.740 C 14.332 10.055,14.509 9.102,14.322 8.333 C 14.207 7.859,13.991 7.385,13.743 7.064 L 13.600 6.879 13.600 6.669 C 13.600 5.317,12.994 4.129,11.903 3.345 C 11.635 3.152,11.016 2.849,10.709 2.761 C 10.298 2.643,9.816 2.602,9.307 2.641 M7.776 7.441 C 7.720 7.456,7.618 7.508,7.550 7.558 C 7.345 7.708,6.123 8.962,6.067 9.080 C 5.991 9.240,5.996 9.544,6.078 9.727 C 6.160 9.911,6.360 10.093,6.541 10.146 C 6.712 10.197,6.961 10.198,7.081 10.148 C 7.132 10.127,7.176 10.112,7.178 10.115 C 7.181 10.118,7.191 10.720,7.200 11.453 C 7.213 12.419,7.227 12.816,7.251 12.891 C 7.300 13.042,7.552 13.286,7.718 13.342 C 7.886 13.399,8.114 13.399,8.282 13.342 C 8.447 13.286,8.700 13.042,8.749 12.891 C 8.775 12.814,8.786 12.443,8.793 11.447 C 8.799 10.710,8.805 10.107,8.808 10.107 C 8.811 10.107,8.861 10.125,8.920 10.146 C 9.064 10.198,9.322 10.196,9.481 10.142 C 9.633 10.090,9.830 9.907,9.924 9.730 C 10.006 9.575,10.012 9.241,9.935 9.080 C 9.870 8.943,8.478 7.549,8.344 7.486 C 8.226 7.431,7.916 7.406,7.776 7.441 " fill="#1A1C1F" stroke="none" fill-rule="evenodd"></path></svg>