<svg xmlns="http://www.w3.org/2000/svg" width="20" height="20" fill="none"><g clip-path="url(#a)"><path fill="#1A1C1F" fill-rule="evenodd" d="M10 9a1 1 0 0 1 .993.883L11 10v4.634a1 1 0 0 1 1.29 1.479l-.083.094-1.5 1.5-.082.073-.104.074-.098.052-.11.044-.112.03-.126.017L10 18l-.09-.004-.058-.007-.118-.025-.105-.035-.113-.054-.111-.071-.058-.046-.054-.05-1.5-1.5-.083-.095a1 1 0 0 1 0-1.226l.083-.094.094-.083c.288-.224.67-.269.995-.135l.119.06L9 10l.007-.117A1 1 0 0 1 10 9m2-7a5 5 0 0 1 5 5l-.013.343.086.096c.487.584.802 1.299.896 2.066l.024.258L18 10a4.004 4.004 0 0 1-3.59 3.977l-.205.018H14a1 1 0 0 1-.992-.882L13 12.996a1 1 0 0 1 .999-1h.12a2 2 0 0 0 1.875-1.846L16 10a2 2 0 0 0-.58-1.408l-.129-.119-.44-.372.102-.568Q15 7.272 15 7a3 3 0 0 0-5.511-1.64l-.104.172-.346.617-.696-.12a2.003 2.003 0 0 0-2.204 1.236l-.054.154-.155.512-.512.155a2.001 2.001 0 0 0 .433 3.909L6 12a1 1 0 0 1 .116 1.993L6 14a4 4 0 0 1-3.995-3.8L2 10c0-1.498.83-2.834 2.096-3.519l.184-.093.074-.034.033-.074a4 4 0 0 1 3.188-2.258l.221-.017L8 4l.182-.228C9.066 2.726 10.592 2.066 12 2" clip-rule="evenodd"/></g><defs><clipPath id="a"><path fill="#fff" d="M0 0h20v20H0z"/></clipPath></defs></svg>