<svg width="32" height="32" viewBox="0 0 32 32" fill="none" xmlns="http://www.w3.org/2000/svg"><path d="M18.560 4.589 C 17.742 4.667,16.527 5.099,15.632 5.629 C 14.990 6.010,14.026 6.853,13.481 7.510 L 13.291 7.740 12.899 7.659 C 12.326 7.542,11.360 7.499,10.773 7.567 C 9.295 7.736,8.053 8.336,6.956 9.413 C 6.116 10.237,5.655 10.978,5.300 12.073 L 5.147 12.545 4.613 12.958 C 3.234 14.022,2.381 15.382,2.105 16.954 C 2.004 17.530,2.005 18.637,2.108 19.120 C 2.473 20.847,3.455 22.281,4.956 23.280 C 5.543 23.671,6.048 23.912,6.773 24.149 C 7.512 24.390,7.790 24.427,9.120 24.462 L 10.320 24.493 10.540 24.331 C 10.796 24.142,10.987 23.786,10.987 23.493 C 10.987 23.205,10.806 22.864,10.565 22.697 C 10.369 22.561,10.321 22.554,9.306 22.505 C 8.131 22.449,7.815 22.404,7.251 22.213 C 5.870 21.743,4.794 20.728,4.253 19.387 C 4.082 18.961,4.081 18.958,4.081 18.000 C 4.081 17.048,4.082 17.037,4.248 16.627 C 4.640 15.658,5.287 14.886,6.223 14.274 C 6.540 14.066,6.810 13.847,6.872 13.746 C 6.930 13.651,7.029 13.374,7.091 13.130 C 7.331 12.189,7.640 11.592,8.207 10.977 C 9.070 10.043,10.194 9.543,11.440 9.542 C 12.052 9.541,12.401 9.599,13.193 9.833 C 13.750 9.998,13.875 10.004,14.162 9.873 C 14.337 9.794,14.460 9.655,14.819 9.131 C 16.303 6.966,18.507 6.098,20.933 6.721 C 21.531 6.874,22.448 7.341,22.963 7.753 C 23.641 8.296,24.060 8.835,24.457 9.673 C 24.858 10.520,24.927 10.886,24.937 12.213 C 24.941 12.844,24.948 13.412,24.953 13.476 C 24.965 13.669,25.224 13.920,25.785 14.282 C 26.708 14.878,27.371 15.670,27.748 16.627 C 27.895 17.000,27.913 17.112,27.934 17.787 C 27.962 18.656,27.910 19.002,27.665 19.568 C 27.076 20.932,25.863 21.933,24.321 22.330 C 23.915 22.434,23.604 22.469,22.767 22.503 C 21.907 22.537,21.683 22.563,21.514 22.646 C 20.991 22.902,20.858 23.681,21.256 24.154 C 21.515 24.462,21.735 24.501,23.003 24.463 C 23.684 24.442,24.282 24.396,24.506 24.348 C 27.285 23.745,29.399 21.680,29.891 19.088 C 29.998 18.526,29.997 17.470,29.890 16.905 C 29.606 15.408,28.708 13.975,27.427 12.975 L 26.987 12.631 26.986 12.036 C 26.985 9.143,25.427 6.613,22.853 5.320 C 22.250 5.017,21.563 4.773,21.027 4.672 C 20.521 4.576,19.175 4.531,18.560 4.589 M15.585 14.609 C 15.322 14.733,11.632 18.382,11.254 18.894 C 10.950 19.304,10.921 19.547,11.129 19.943 C 11.392 20.442,11.943 20.620,12.442 20.366 C 12.573 20.299,13.150 19.773,13.824 19.105 L 14.982 17.959 14.998 22.383 L 15.013 26.808 15.160 27.030 C 15.557 27.630,16.443 27.630,16.840 27.030 L 16.987 26.808 17.002 22.387 L 17.018 17.967 18.229 19.151 C 18.895 19.803,19.517 20.369,19.612 20.408 C 19.868 20.516,20.212 20.496,20.481 20.360 C 20.665 20.267,20.752 20.174,20.870 19.947 C 21.058 19.585,21.044 19.304,20.821 18.972 C 20.654 18.722,17.026 15.071,16.630 14.753 C 16.310 14.496,15.936 14.445,15.585 14.609 " fill="#1A1C1F" stroke="none" fill-rule="evenodd"></path></svg>