<svg width="28" height="28" viewBox="0 0 28 28" fill="none" xmlns="http://www.w3.org/2000/svg"><path d="M16.240 4.015 C 15.523 4.084,14.460 4.462,13.678 4.926 C 13.116 5.259,12.273 5.997,11.796 6.571 L 11.629 6.772 11.286 6.702 C 11.098 6.663,10.702 6.617,10.407 6.601 C 9.146 6.529,7.988 6.838,6.934 7.528 C 6.447 7.846,5.668 8.601,5.373 9.041 C 5.094 9.457,4.791 10.084,4.636 10.565 L 4.503 10.980 4.130 11.261 C 2.877 12.205,2.087 13.440,1.842 14.834 C 1.754 15.339,1.755 16.307,1.844 16.730 C 2.164 18.241,3.023 19.495,4.337 20.370 C 4.850 20.712,5.292 20.923,5.927 21.130 C 6.577 21.343,6.820 21.375,7.980 21.405 L 9.030 21.431 9.222 21.290 C 9.447 21.124,9.613 20.813,9.613 20.557 C 9.613 20.304,9.456 20.006,9.245 19.860 C 9.073 19.741,9.031 19.734,8.142 19.692 C 7.119 19.643,6.837 19.604,6.354 19.439 C 5.119 19.019,4.180 18.125,3.701 16.917 C 3.577 16.603,3.572 16.557,3.572 15.750 C 3.571 14.916,3.572 14.907,3.717 14.549 C 4.060 13.700,4.626 13.026,5.445 12.490 C 5.725 12.306,5.957 12.117,6.012 12.028 C 6.063 11.945,6.159 11.667,6.227 11.410 C 6.559 10.144,7.294 9.231,8.404 8.705 C 8.932 8.455,9.407 8.350,10.010 8.349 C 10.545 8.349,10.851 8.399,11.544 8.604 C 12.031 8.749,12.141 8.753,12.392 8.639 C 12.545 8.570,12.653 8.448,12.967 7.990 C 14.265 6.096,16.198 5.334,18.317 5.881 C 18.522 5.934,18.903 6.081,19.163 6.207 C 20.581 6.895,21.476 8.071,21.772 9.637 C 21.836 9.975,21.847 10.214,21.825 10.859 C 21.811 11.301,21.818 11.730,21.841 11.812 C 21.903 12.027,22.037 12.155,22.563 12.496 C 23.371 13.021,23.950 13.713,24.279 14.549 C 24.408 14.875,24.424 14.973,24.442 15.563 C 24.467 16.324,24.421 16.627,24.207 17.122 C 23.691 18.315,22.630 19.191,21.281 19.539 C 20.928 19.629,20.649 19.661,19.927 19.691 C 18.795 19.739,18.657 19.786,18.474 20.183 C 18.252 20.667,18.485 21.213,18.983 21.378 C 19.216 21.454,20.995 21.401,21.443 21.304 C 23.875 20.777,25.725 18.970,26.155 16.702 C 26.248 16.211,26.247 15.286,26.154 14.792 C 25.905 13.482,25.119 12.228,23.999 11.353 L 23.613 11.052 23.613 10.531 C 23.612 8.000,22.249 5.786,19.996 4.655 C 19.484 4.397,18.882 4.181,18.426 4.091 C 18.002 4.007,16.773 3.964,16.240 4.015 M13.637 12.783 C 13.407 12.891,10.178 16.084,9.847 16.532 C 9.581 16.891,9.556 17.103,9.738 17.450 C 9.968 17.887,10.450 18.042,10.887 17.820 C 11.001 17.762,11.506 17.301,12.096 16.717 L 13.109 15.714 13.123 19.585 L 13.137 23.457 13.265 23.651 C 13.613 24.176,14.387 24.176,14.735 23.651 L 14.863 23.457 14.877 19.589 L 14.891 15.720 15.948 16.756 C 16.530 17.326,17.074 17.821,17.158 17.856 C 17.385 17.951,17.684 17.935,17.921 17.815 C 18.082 17.734,18.158 17.652,18.261 17.453 C 18.426 17.137,18.414 16.891,18.219 16.601 C 18.074 16.383,14.901 13.190,14.551 12.909 C 14.271 12.684,13.944 12.639,13.637 12.783 " fill="#1A1C1F" stroke="none" fill-rule="evenodd"></path></svg>