<svg xmlns="http://www.w3.org/2000/svg" width="16" height="16" fill="none"><g clip-path="url(#a)"><path fill="#1A1C1F" fill-rule="evenodd" d="M9.6 2.6a4 4 0 0 1 4 4l-.01.274.068.077c.39.468.642 1.04.718 1.653l.018.206.006.19a3.203 3.203 0 0 1-2.872 3.182l-.164.014H11.2a.8.8 0 0 1 0-1.598h.096a1.6 1.6 0 0 0 1.5-1.478L12.8 9c0-.43-.17-.83-.464-1.127l-.103-.094-.352-.298.081-.454Q12 6.817 12 6.6a2.4 2.4 0 0 0-4.409-1.312l-.083.138-.276.493-.558-.096a1.602 1.602 0 0 0-1.764.99l-.042.122-.124.41-.41.124a1.601 1.601 0 0 0 .347 3.127l.119.004a.8.8 0 0 1 0 1.6 3.2 3.2 0 0 1-3.196-3.04L1.6 9c0-1.198.665-2.267 1.677-2.815l.147-.075.06-.027.026-.059a3.2 3.2 0 0 1 2.55-1.806l.177-.014L6.4 4.2l.146-.182C7.253 3.18 8.473 2.653 9.6 2.6M8 7.4l.06.002.1.014.09.024.089.035.078.042.083.059.066.058 1.2 1.2a.8.8 0 0 1-.966 1.26V12.6a.8.8 0 0 1-1.595.096L7.2 12.6v-2.507a.8.8 0 0 1-.89-.06l-.076-.067a.8.8 0 0 1-.066-1.056l.066-.076 1.2-1.2a1 1 0 0 1 .09-.077l.089-.057.09-.043.084-.028.094-.02.047-.006z" clip-rule="evenodd"/></g><defs><clipPath id="a"><path fill="#fff" d="M0 0h16v16H0z"/></clipPath></defs></svg>