<svg width="12" height="12" viewBox="0 0 12 12" fill="none" xmlns="http://www.w3.org/2000/svg"><path d="M6.990 1.981 C 6.243 2.034,5.365 2.472,4.910 3.018 L 4.792 3.160 4.689 3.160 C 4.420 3.160,3.935 3.294,3.665 3.442 C 3.250 3.672,2.952 3.971,2.658 4.455 C 2.598 4.554,2.564 4.585,2.448 4.649 C 1.986 4.902,1.567 5.374,1.380 5.852 C 1.246 6.195,1.215 6.362,1.215 6.730 C 1.215 7.203,1.271 7.446,1.472 7.840 C 1.606 8.101,1.728 8.264,1.948 8.476 C 2.222 8.739,2.512 8.913,2.869 9.030 C 3.126 9.114,3.347 9.147,3.596 9.137 C 3.764 9.130,3.804 9.121,3.884 9.075 C 4.156 8.915,4.275 8.564,4.143 8.305 C 4.030 8.084,3.883 7.997,3.550 7.950 C 3.157 7.896,2.954 7.799,2.729 7.557 C 2.535 7.349,2.401 7.026,2.400 6.764 C 2.400 6.630,2.457 6.382,2.518 6.250 C 2.678 5.906,2.937 5.700,3.372 5.568 L 3.554 5.513 3.609 5.341 C 3.777 4.822,4.006 4.567,4.440 4.416 C 4.603 4.359,4.832 4.350,5.100 4.388 C 5.226 4.406,5.350 4.425,5.374 4.430 C 5.412 4.439,5.436 4.411,5.551 4.215 C 5.798 3.797,5.948 3.625,6.229 3.442 C 6.391 3.336,6.641 3.230,6.796 3.201 C 6.978 3.167,7.290 3.157,7.463 3.179 C 7.898 3.234,8.316 3.474,8.601 3.833 C 8.732 3.998,8.879 4.281,8.930 4.470 C 8.982 4.659,8.992 5.095,8.951 5.369 L 8.916 5.597 9.154 5.834 C 9.357 6.035,9.403 6.093,9.468 6.228 C 9.577 6.454,9.612 6.645,9.585 6.860 C 9.548 7.160,9.442 7.389,9.251 7.583 C 9.041 7.796,8.800 7.907,8.449 7.950 C 8.290 7.970,8.192 7.993,8.125 8.028 C 7.922 8.132,7.811 8.316,7.811 8.550 C 7.811 8.720,7.860 8.840,7.977 8.957 C 8.109 9.089,8.201 9.126,8.420 9.136 C 9.153 9.168,9.958 8.730,10.406 8.056 C 10.749 7.541,10.882 6.827,10.742 6.250 C 10.655 5.894,10.493 5.539,10.307 5.298 L 10.200 5.159 10.200 5.002 C 10.200 3.926,9.683 2.982,8.784 2.415 C 8.371 2.155,7.954 2.013,7.500 1.980 C 7.351 1.969,7.225 1.962,7.220 1.963 C 7.215 1.965,7.111 1.973,6.990 1.981 M5.838 5.578 C 5.798 5.586,5.721 5.625,5.668 5.665 C 5.510 5.780,4.593 6.720,4.550 6.810 C 4.493 6.930,4.497 7.158,4.558 7.296 C 4.620 7.434,4.770 7.570,4.906 7.610 C 5.034 7.648,5.221 7.649,5.311 7.611 C 5.377 7.583,5.380 7.584,5.390 7.626 C 5.395 7.650,5.403 8.102,5.406 8.630 C 5.411 9.306,5.420 9.611,5.437 9.662 C 5.468 9.758,5.602 9.908,5.714 9.973 C 5.836 10.045,6.049 10.060,6.202 10.009 C 6.335 9.965,6.523 9.787,6.562 9.669 C 6.581 9.610,6.589 9.332,6.595 8.585 C 6.599 8.032,6.605 7.580,6.609 7.580 C 6.612 7.580,6.650 7.595,6.692 7.612 C 6.814 7.663,7.067 7.643,7.186 7.574 C 7.282 7.517,7.389 7.399,7.452 7.280 C 7.505 7.181,7.504 6.921,7.451 6.810 C 7.403 6.707,6.359 5.662,6.258 5.615 C 6.174 5.576,5.943 5.555,5.838 5.578 " fill="#1A1C1F" stroke="none" fill-rule="evenodd"></path></svg>