<svg xmlns="http://www.w3.org/2000/svg" width="14" height="14" fill="none"><g clip-path="url(#a)"><path fill="#1A1C1F" fill-rule="evenodd" d="M7 6.3a.7.7 0 0 1 .695.618L7.7 7v3.243a.7.7 0 0 1 .903 1.036l-.058.066-1.05 1.05-.057.051-.073.052-.069.036-.077.031-.078.02-.088.013L7 12.6l-.063-.003-.04-.005-.083-.017-.074-.025-.079-.037-.078-.05-.04-.033-.038-.035-1.05-1.05-.058-.066a.7.7 0 0 1 0-.858l.058-.066.066-.058a.7.7 0 0 1 .696-.094l.084.04L6.3 7l.005-.082A.7.7 0 0 1 7 6.3m1.4-4.9a3.5 3.5 0 0 1 3.5 3.5l-.01.24.061.067c.341.41.561.91.628 1.447l.016.18L12.6 7a2.803 2.803 0 0 1-2.513 2.784l-.143.012h-.145a.7.7 0 0 1-.694-.617L9.1 9.097a.7.7 0 0 1 .7-.7h.083a1.4 1.4 0 0 0 1.313-1.292L11.2 7c0-.376-.148-.727-.406-.986l-.09-.083-.308-.26.071-.398q.033-.183.033-.373a2.1 2.1 0 0 0-3.858-1.148l-.073.12-.241.432-.488-.084a1.402 1.402 0 0 0-1.543.865l-.038.108-.108.358-.358.109a1.4 1.4 0 0 0 .303 2.736L4.2 8.4a.7.7 0 0 1 .082 1.395L4.2 9.8a2.8 2.8 0 0 1-2.797-2.66L1.4 7c0-1.049.582-1.984 1.467-2.463l.13-.066.05-.023.024-.052a2.8 2.8 0 0 1 2.232-1.58l.154-.012L5.6 2.8l.128-.16C6.346 1.908 7.414 1.446 8.4 1.4" clip-rule="evenodd"/></g><defs><clipPath id="a"><path fill="#fff" d="M0 0h14v14H0z"/></clipPath></defs></svg>