<svg width="32" height="32" viewBox="0 0 32 32" fill="none" xmlns="http://www.w3.org/2000/svg"><path d="M18.693 2.828 C 17.668 2.909,16.342 3.401,15.309 4.083 C 14.844 4.390,13.904 5.239,13.574 5.651 C 13.333 5.953,13.294 5.981,13.148 5.954 C 12.485 5.834,12.248 5.814,11.485 5.814 C 10.265 5.813,9.663 5.944,8.667 6.425 C 8.002 6.746,7.329 7.240,6.802 7.793 C 6.055 8.579,5.645 9.278,5.260 10.427 C 5.120 10.842,5.107 10.860,4.777 11.082 C 3.258 12.106,2.186 13.930,2.032 15.755 C 1.875 17.619,2.565 19.386,3.985 20.752 C 4.756 21.495,5.624 22.014,6.685 22.369 C 7.541 22.656,8.085 22.735,9.227 22.741 C 10.152 22.746,10.227 22.739,10.437 22.627 C 11.079 22.284,11.166 21.492,10.616 20.995 C 10.388 20.789,10.355 20.784,8.788 20.721 C 8.014 20.689,7.498 20.576,6.810 20.286 C 5.789 19.857,4.865 18.964,4.399 17.955 C 4.135 17.384,4.039 16.928,4.038 16.240 C 4.036 15.376,4.233 14.711,4.702 13.991 C 5.064 13.437,5.508 13.008,6.211 12.530 C 6.545 12.304,6.836 12.064,6.890 11.971 C 6.941 11.882,7.046 11.570,7.122 11.278 C 7.610 9.420,8.986 8.129,10.788 7.838 C 11.391 7.741,12.236 7.797,12.800 7.970 C 13.049 8.047,13.400 8.137,13.579 8.171 C 13.882 8.228,13.922 8.224,14.163 8.103 C 14.382 7.994,14.486 7.881,14.825 7.387 C 15.750 6.038,16.801 5.277,18.241 4.913 C 18.746 4.785,19.941 4.755,20.510 4.856 C 22.522 5.212,24.254 6.823,24.809 8.853 C 24.921 9.265,24.933 9.421,24.935 10.533 C 24.938 11.596,24.951 11.783,25.031 11.935 C 25.095 12.055,25.316 12.234,25.730 12.503 C 27.242 13.485,27.955 14.683,27.953 16.240 C 27.952 17.763,27.203 19.063,25.813 19.957 C 24.980 20.493,24.267 20.675,22.715 20.746 C 22.133 20.772,21.615 20.817,21.562 20.846 C 21.276 21.001,21.012 21.447,21.015 21.772 C 21.017 22.174,21.373 22.635,21.722 22.689 C 22.409 22.794,23.783 22.745,24.525 22.588 C 26.937 22.081,28.946 20.358,29.672 18.173 C 29.980 17.246,30.066 16.070,29.892 15.157 C 29.801 14.675,29.554 13.931,29.358 13.542 C 28.939 12.715,27.946 11.547,27.301 11.124 L 27.002 10.928 26.973 10.091 C 26.941 9.165,26.855 8.668,26.586 7.859 C 25.798 5.483,23.871 3.682,21.397 3.008 C 20.968 2.891,19.638 2.751,19.253 2.783 C 19.209 2.786,18.957 2.807,18.693 2.828 M15.600 14.857 C 15.387 14.968,15.209 15.138,15.102 15.333 C 15.021 15.479,15.012 15.971,14.998 20.664 L 14.983 25.835 14.171 25.034 C 12.891 23.771,12.911 23.787,12.547 23.787 C 11.998 23.787,11.581 24.134,11.533 24.632 C 11.484 25.140,11.493 25.152,13.519 27.183 C 14.755 28.422,15.462 29.093,15.590 29.146 C 15.835 29.248,16.163 29.249,16.405 29.148 C 16.664 29.040,20.292 25.413,20.400 25.154 C 20.645 24.569,20.260 23.868,19.656 23.800 C 19.149 23.743,19.106 23.770,18.056 24.803 L 17.083 25.760 17.048 24.871 C 17.029 24.383,17.012 22.313,17.009 20.271 C 17.007 18.230,16.988 16.283,16.968 15.945 C 16.924 15.230,16.868 15.117,16.456 14.907 C 16.153 14.753,15.835 14.735,15.600 14.857 " fill="#1A1C1F" stroke="none" fill-rule="evenodd"></path></svg>