<svg xmlns="http://www.w3.org/2000/svg" width="12" height="12" fill="none"><g clip-path="url(#a)"><path fill="#1A1C1F" fill-rule="evenodd" d="M7.2 1.95a3 3 0 0 1 3 3l-.008.206.052.057c.292.35.48.78.538 1.24l.014.155.004.142c0 1.232-.93 2.255-2.154 2.387l-.123.01H8.4a.6.6 0 0 1 0-1.199h.072A1.2 1.2 0 0 0 9.597 6.84l.003-.09c0-.322-.127-.623-.348-.845l-.077-.071-.264-.223.06-.34q.03-.159.029-.321a1.8 1.8 0 0 0-3.307-.984l-.062.103-.207.37-.418-.072a1.202 1.202 0 0 0-1.323.742l-.032.093-.093.306-.307.093a1.2 1.2 0 0 0 .26 2.346l.089.003a.6.6 0 0 1 0 1.2 2.4 2.4 0 0 1-2.397-2.28L1.2 6.75a2.4 2.4 0 0 1 1.258-2.111l.11-.056.044-.02.02-.045a2.4 2.4 0 0 1 1.913-1.355l.133-.01.122-.003.11-.137C5.44 2.385 6.354 1.99 7.2 1.95M6 5.55l.045.002.075.01.067.018.067.026.058.032.063.044.05.044.9.9a.6.6 0 0 1-.725.944v1.88a.6.6 0 0 1-1.196.072L5.4 9.45V7.57a.6.6 0 0 1-.668-.046l-.056-.05a.6.6 0 0 1-.05-.792l.05-.056.9-.9a1 1 0 0 1 .067-.058l.067-.043.067-.032.063-.021.07-.015.036-.005z" clip-rule="evenodd"/></g><defs><clipPath id="a"><path fill="#fff" d="M0 0h12v12H0z"/></clipPath></defs></svg>