<svg width="24" height="24" viewBox="0 0 24 24" fill="none" xmlns="http://www.w3.org/2000/svg"><path d="M13.160 2.599 C 12.306 2.753,11.313 3.117,10.697 3.501 L 10.396 3.688 10.048 3.616 C 9.784 3.562,9.521 3.545,8.960 3.546 C 8.298 3.548,8.180 3.559,7.840 3.650 C 6.857 3.912,6.169 4.297,5.487 4.971 C 4.679 5.767,4.206 6.730,4.034 7.928 L 3.985 8.276 3.737 8.457 C 3.274 8.798,2.784 9.398,2.483 9.993 C 1.944 11.063,1.860 12.378,2.260 13.487 C 2.835 15.081,4.297 16.269,5.897 16.445 C 6.116 16.469,6.522 16.482,6.799 16.473 C 7.263 16.459,7.318 16.449,7.493 16.346 C 7.978 16.062,8.134 15.449,7.839 14.985 C 7.675 14.726,7.417 14.571,7.107 14.544 C 6.971 14.533,6.648 14.504,6.390 14.481 C 5.635 14.413,5.225 14.229,4.735 13.739 C 4.259 13.263,4.024 12.673,4.028 11.960 C 4.034 11.026,4.501 10.284,5.420 9.747 C 5.868 9.486,5.943 9.340,6.001 8.611 C 6.077 7.668,6.224 7.221,6.643 6.668 C 6.915 6.310,7.258 6.034,7.700 5.821 C 8.199 5.581,8.402 5.539,9.040 5.546 C 9.503 5.551,9.631 5.568,9.940 5.661 C 10.581 5.856,10.619 5.861,10.852 5.788 C 10.984 5.746,11.211 5.609,11.461 5.420 C 11.891 5.095,12.284 4.876,12.760 4.695 C 13.059 4.581,13.063 4.580,14.000 4.580 L 14.940 4.580 15.283 4.712 C 15.982 4.978,16.579 5.391,17.029 5.918 C 17.515 6.487,17.752 6.997,17.938 7.880 C 17.996 8.152,18.082 8.445,18.131 8.531 C 18.186 8.630,18.340 8.776,18.541 8.921 C 18.933 9.204,19.420 9.706,19.589 10.001 C 20.319 11.278,19.980 12.997,18.828 13.863 C 18.341 14.229,17.880 14.402,17.131 14.500 C 16.593 14.571,16.452 14.629,16.246 14.863 C 15.896 15.260,15.925 15.810,16.317 16.200 C 16.540 16.422,16.716 16.480,17.169 16.480 C 18.342 16.480,19.629 15.919,20.534 15.014 C 22.217 13.328,22.474 10.705,21.147 8.732 C 20.882 8.337,20.642 8.066,20.155 7.614 C 19.948 7.421,19.884 7.334,19.862 7.214 C 19.814 6.960,19.563 6.242,19.400 5.893 C 18.866 4.748,17.732 3.628,16.558 3.086 C 16.083 2.867,15.366 2.643,15.006 2.601 C 14.310 2.520,13.600 2.520,13.160 2.599 M11.693 10.556 C 11.503 10.605,11.251 10.824,11.118 11.055 L 11.001 11.260 11.000 14.675 L 11.000 18.091 10.539 17.644 C 9.944 17.068,9.898 17.040,9.523 17.040 C 8.898 17.040,8.520 17.419,8.520 18.047 C 8.520 18.221,8.545 18.303,8.645 18.462 C 8.809 18.722,11.283 21.197,11.538 21.356 C 11.707 21.462,11.774 21.480,12.000 21.480 C 12.226 21.480,12.293 21.462,12.462 21.357 C 12.716 21.198,15.189 18.724,15.355 18.462 C 15.517 18.206,15.528 17.885,15.385 17.578 C 15.213 17.207,14.928 17.040,14.471 17.040 C 14.103 17.040,14.054 17.070,13.461 17.644 L 13.000 18.091 13.000 14.683 C 13.000 10.951,13.016 11.215,12.768 10.888 C 12.551 10.603,12.078 10.457,11.693 10.556 " fill="#1A1C1F" stroke="none" fill-rule="evenodd"></path></svg>