<svg width="16" height="16" viewBox="0 0 16 16" fill="none" xmlns="http://www.w3.org/2000/svg"><path d="M9.360 1.619 C 9.160 1.640,8.695 1.742,8.458 1.818 C 7.714 2.055,7.212 2.362,6.632 2.935 L 6.371 3.193 6.092 3.224 C 5.572 3.283,5.144 3.426,4.748 3.675 C 4.246 3.990,3.910 4.335,3.613 4.840 C 3.475 5.073,3.455 5.095,3.286 5.187 C 2.729 5.494,2.230 6.002,1.956 6.542 C 1.253 7.929,1.647 9.628,2.888 10.563 C 3.544 11.057,4.651 11.336,5.125 11.126 C 5.489 10.966,5.682 10.522,5.551 10.151 C 5.481 9.952,5.389 9.833,5.241 9.746 C 5.095 9.660,5.006 9.635,4.721 9.597 C 4.378 9.552,4.117 9.460,3.900 9.308 C 3.462 9.000,3.218 8.532,3.218 8.000 C 3.218 7.565,3.371 7.193,3.680 6.880 C 3.880 6.677,4.151 6.527,4.519 6.414 L 4.745 6.345 4.814 6.119 C 4.986 5.555,5.254 5.207,5.682 4.992 C 6.078 4.792,6.327 4.768,6.927 4.870 C 7.063 4.893,7.191 4.906,7.212 4.898 C 7.232 4.890,7.299 4.796,7.361 4.688 C 7.693 4.110,7.912 3.854,8.283 3.610 C 8.510 3.461,8.644 3.396,8.916 3.304 C 9.150 3.224,9.796 3.202,10.098 3.263 C 10.833 3.412,11.506 3.967,11.801 4.665 C 11.989 5.111,12.029 5.567,11.933 6.168 L 11.883 6.482 12.028 6.606 C 12.524 7.029,12.746 7.406,12.787 7.899 C 12.832 8.428,12.561 8.984,12.101 9.307 C 11.872 9.468,11.612 9.556,11.240 9.599 C 10.938 9.634,10.784 9.696,10.641 9.839 C 10.237 10.243,10.379 10.906,10.920 11.143 C 11.147 11.243,11.694 11.193,12.203 11.026 C 12.695 10.865,13.082 10.626,13.454 10.254 C 14.070 9.639,14.383 8.882,14.383 8.013 C 14.383 7.282,14.188 6.679,13.760 6.085 L 13.600 5.863 13.600 5.658 C 13.600 5.409,13.561 5.046,13.503 4.761 C 13.202 3.260,11.952 2.015,10.422 1.692 C 10.189 1.643,9.549 1.599,9.360 1.619 M7.827 7.223 C 7.585 7.286,7.370 7.461,7.271 7.676 C 7.214 7.799,7.213 7.819,7.206 9.750 L 7.198 11.700 7.093 11.664 C 6.920 11.604,6.789 11.593,6.633 11.625 C 6.106 11.735,5.838 12.381,6.138 12.822 C 6.249 12.985,7.417 14.154,7.578 14.262 C 7.805 14.416,8.094 14.435,8.345 14.315 C 8.484 14.248,9.722 13.031,9.861 12.824 C 10.129 12.425,9.985 11.918,9.538 11.688 C 9.426 11.630,9.364 11.617,9.213 11.618 C 9.111 11.618,8.976 11.637,8.914 11.659 L 8.802 11.700 8.794 9.750 C 8.787 7.935,8.783 7.793,8.738 7.697 C 8.666 7.543,8.468 7.346,8.322 7.283 C 8.176 7.220,7.945 7.192,7.827 7.223 " fill="#1A1C1F" stroke="none" fill-rule="evenodd"></path></svg>