<svg xmlns="http://www.w3.org/2000/svg" width="32" height="32" fill="none"><g clip-path="url(#a)"><path fill="#1A1C1F" fill-rule="evenodd" d="M16 14.75a1 1 0 0 1 .993.883l.007.117v10.084l1.793-1.791a1 1 0 0 1 1.32-.083l.094.083a1 1 0 0 1 .083 1.32l-.083.094-3.5 3.5a1 1 0 0 1-1.32.083l-.094-.083-3.5-3.5a1 1 0 0 1 1.32-1.497l.094.083L15 25.834V15.75a1 1 0 0 1 1-1m3.5-12c4.14 0 7.5 3.358 7.5 7.5l-.008.647c1.683 1.1 2.818 2.884 2.986 4.84l.017.255.005.258c0 3.441-2.87 6.242-6.509 6.484l-.244.012H22a1 1 0 0 1-.993-.883L21 21.747a1 1 0 0 1 1-1h1.196c2.618-.09 4.683-1.984 4.799-4.292L28 16.25c0-1.637-.984-3.131-2.558-3.927a1 1 0 0 1-.533-1.073q.09-.491.091-1a5.5 5.5 0 0 0-10.372-2.557 1 1 0 0 1-1.293.447 4.5 4.5 0 0 0-6.288 3.459 1 1 0 0 1-.53.745C4.965 13.146 4 14.628 4 16.25c0 2.396 2.098 4.387 4.77 4.496l.23.004h1a1 1 0 0 1 .993.881l.007.117a1 1 0 0 1-1 1.001l-1 .001c-3.766 0-6.866-2.768-6.996-6.27L2 16.25c0-2.138 1.118-4.084 2.92-5.284l.22-.14.069-.214a6.5 6.5 0 0 1 5.787-4.843l.262-.015.242-.004c.493 0 .98.055 1.451.163l.351.09.136-.172C14.775 4 17.168 2.75 19.5 2.75" clip-rule="evenodd"/></g><defs><clipPath id="a"><path fill="#fff" d="M0 0h32v32H0z"/></clipPath></defs></svg>