<svg width="24" height="24" viewBox="0 0 24 24" fill="none" xmlns="http://www.w3.org/2000/svg"><path d="M13.140 4.098 C 12.158 4.288,11.329 4.599,10.670 5.024 L 10.399 5.199 10.150 5.141 C 7.478 4.526,4.787 6.178,4.145 8.825 C 4.092 9.048,4.035 9.348,4.019 9.493 C 3.991 9.753,3.989 9.756,3.766 9.932 C 2.358 11.039,1.705 12.894,2.137 14.560 C 2.349 15.380,2.677 15.979,3.235 16.567 C 3.895 17.262,4.609 17.665,5.620 17.911 C 5.828 17.962,6.076 17.979,6.580 17.980 C 7.253 17.980,7.262 17.979,7.460 17.867 C 7.704 17.729,7.834 17.571,7.927 17.304 C 8.015 17.050,8.016 16.950,7.937 16.684 C 7.859 16.419,7.598 16.144,7.367 16.082 C 7.278 16.058,6.934 16.021,6.601 16.000 C 6.136 15.970,5.932 15.939,5.715 15.864 C 5.002 15.616,4.452 15.085,4.157 14.360 C 4.048 14.092,4.002 13.266,4.077 12.917 C 4.204 12.326,4.656 11.729,5.280 11.329 C 5.670 11.078,5.823 10.946,5.905 10.789 C 5.941 10.720,5.979 10.453,6.003 10.089 C 6.053 9.353,6.108 9.135,6.368 8.626 C 6.659 8.058,7.057 7.660,7.620 7.372 C 7.840 7.259,8.119 7.140,8.240 7.106 C 8.770 6.958,9.375 6.989,10.063 7.201 C 10.688 7.393,10.876 7.358,11.423 6.948 C 11.872 6.611,12.192 6.425,12.579 6.275 C 13.052 6.093,13.355 6.041,13.966 6.041 C 14.622 6.040,14.988 6.103,15.466 6.301 C 16.333 6.660,16.854 7.088,17.350 7.848 C 17.671 8.340,17.793 8.672,17.979 9.560 C 18.070 9.995,18.168 10.140,18.575 10.446 C 18.770 10.593,19.001 10.782,19.088 10.866 C 19.444 11.210,19.774 11.776,19.898 12.258 C 19.995 12.631,19.982 13.478,19.876 13.826 C 19.654 14.552,19.133 15.215,18.485 15.597 C 18.170 15.783,17.731 15.917,17.225 15.983 C 16.519 16.075,16.335 16.164,16.131 16.511 C 16.038 16.670,16.020 16.745,16.021 16.980 C 16.023 17.321,16.114 17.517,16.380 17.752 C 16.620 17.963,16.853 18.020,17.330 17.984 C 18.567 17.890,19.660 17.385,20.535 16.501 C 21.244 15.786,21.659 15.020,21.904 13.980 C 22.006 13.545,21.998 12.407,21.889 11.960 C 21.624 10.875,21.222 10.173,20.399 9.359 C 19.927 8.891,19.889 8.842,19.840 8.639 C 19.597 7.610,19.070 6.648,18.322 5.867 C 17.506 5.017,16.558 4.470,15.390 4.175 C 15.035 4.086,14.876 4.070,14.200 4.058 C 13.654 4.048,13.336 4.060,13.140 4.098 M11.712 11.045 C 11.616 11.073,11.415 11.222,11.132 11.478 C 10.550 12.004,8.809 13.777,8.662 13.993 C 8.424 14.344,8.490 14.877,8.811 15.190 C 9.025 15.400,9.217 15.480,9.506 15.480 C 9.838 15.480,10.020 15.373,10.541 14.873 L 10.996 14.435 11.008 16.867 C 11.021 19.578,11.002 19.396,11.307 19.686 C 11.497 19.867,11.669 19.954,11.890 19.985 C 12.264 20.036,12.718 19.792,12.887 19.449 L 12.980 19.260 12.992 16.848 L 13.005 14.435 13.460 14.873 C 13.966 15.360,14.165 15.480,14.466 15.480 C 14.954 15.480,15.303 15.221,15.446 14.751 C 15.544 14.425,15.518 14.269,15.309 13.961 C 15.116 13.675,12.646 11.223,12.453 11.126 C 12.253 11.025,11.916 10.988,11.712 11.045 " fill="#1A1C1F" stroke="none" fill-rule="evenodd"></path></svg>