<svg xmlns="http://www.w3.org/2000/svg" width="32" height="32" fill="none"><path fill="#1A1C1F" fill-rule="evenodd" d="M18.267 4.616c-1.011.188-2.082.629-3.002 1.236-.45.298-1.473 1.253-1.806 1.688l-.159.206-.397-.093c-.597-.142-1.778-.168-2.452-.055-2.421.405-4.422 2.134-5.145 4.448l-.156.499-.482.36c-1.705 1.274-2.646 3.072-2.654 5.068-.002.752.055 1.135.28 1.867.592 1.924 2.24 3.559 4.293 4.257.901.306 1.264.356 2.59.356h1.204l.197-.149c.554-.423.54-1.248-.028-1.624-.218-.144-.24-.147-1.293-.18-1.323-.041-1.831-.149-2.67-.568a4.3 4.3 0 0 1-1.22-.862 4.6 4.6 0 0 1-1.243-2.083c-.126-.474-.126-1.5 0-1.974.295-1.107 1.112-2.17 2.118-2.754.533-.31.713-.509.794-.88.2-.913.35-1.296.727-1.864a4.5 4.5 0 0 1 2.605-1.86c.897-.228 1.735-.186 2.68.135.618.209.807.223 1.123.079.228-.104.259-.141.774-.931.511-.786 1.414-1.55 2.314-1.958 1.863-.845 4.153-.523 5.767.81 1.41 1.164 2.108 2.917 1.928 4.841-.093.997-.018 1.15.798 1.625 1.012.588 1.828 1.647 2.124 2.757.126.474.126 1.5 0 1.974-.407 1.528-1.631 2.754-3.265 3.269-.586.185-1.118.25-2.042.252-1.023.001-1.265.1-1.474.599-.156.375-.059.869.219 1.113.294.258.392.273 1.641.245 1.237-.028 1.556-.074 2.365-.338 1.728-.564 3.247-1.836 4.01-3.36.749-1.497.867-3.126.341-4.701-.395-1.182-1.252-2.354-2.294-3.139l-.39-.293-.001-.65c-.001-3.434-2.289-6.369-5.653-7.251-.558-.146-.703-.162-1.626-.178-.736-.013-1.131.003-1.44.061m-2.72 9.996c-.133.066-.99.884-2.278 2.174-2.362 2.366-2.414 2.437-2.221 3.006.154.453.484.688.966.688.412 0 .592-.137 1.866-1.425l1.107-1.119v4.325c0 2.854.019 4.394.056 4.527a.95.95 0 0 0 .669.656c.262.076.314.076.576 0a.95.95 0 0 0 .669-.656c.037-.133.056-1.671.056-4.521v-4.319l1.187 1.181c.653.649 1.268 1.221 1.368 1.271.276.138.79.092 1.031-.092.21-.16.36-.438.401-.741.057-.43-.085-.603-2.318-2.831-1.393-1.389-2.134-2.091-2.267-2.147a1.1 1.1 0 0 0-.868.023"/></svg>