<svg xmlns="http://www.w3.org/2000/svg" width="28" height="28" fill="none"><g clip-path="url(#a)"><path fill="#1A1C1F" fill-rule="evenodd" d="M14 12.688c.219 0 .444.074.622.252l3.5 3.5a.87.87 0 0 1 .253.623c0 .382-.273.875-.875.875a.9.9 0 0 1-.628-.246l-1.997-2.024v7.52a.864.864 0 0 1-.875.875.864.864 0 0 1-.875-.875v-7.52l-2.003 2.016a.86.86 0 0 1-.622.253.864.864 0 0 1-.875-.875.87.87 0 0 1 .253-.622l3.493-3.507a.9.9 0 0 1 .629-.245m3.063-8.75a6.564 6.564 0 0 1 6.562 6.562l-.007.566c1.473.963 2.466 2.523 2.613 4.234l.014.224.005.226c0 3.011-2.511 5.462-5.695 5.673l-.213.01-1.092.001a.875.875 0 0 1-.87-.773l-.005-.102c0-.483.392-.874.875-.874h1.046c2.291-.08 4.098-1.736 4.2-3.756l.004-.179c0-1.432-.86-2.74-2.238-3.436a.875.875 0 0 1-.466-.939A4.812 4.812 0 0 0 12.8 8.262a.875.875 0 0 1-1.132.392 3.938 3.938 0 0 0-5.502 3.027.88.88 0 0 1-.464.651C4.345 13.034 3.5 14.331 3.5 15.75c0 2.097 1.836 3.838 4.173 3.933l.202.005h.875c.449-.001.818.336.87.77l.005.103a.875.875 0 0 1-.875.876h-.875c-3.295 0-6.007-2.422-6.121-5.486l-.004-.201c0-1.87.978-3.573 2.556-4.623l.192-.123.06-.187a5.69 5.69 0 0 1 5.064-4.238l.229-.013.211-.003q.65 0 1.27.142l.307.08.12-.151c1.17-1.604 3.262-2.697 5.304-2.697" clip-rule="evenodd"/></g><defs><clipPath id="a"><path fill="#fff" d="M0 0h28v28H0z"/></clipPath></defs></svg>