<svg width="14" height="14" viewBox="0 0 14 14" fill="none" xmlns="http://www.w3.org/2000/svg"><path d="M8.202 1.415 C 7.844 1.458,7.336 1.595,7.000 1.738 C 6.561 1.926,6.236 2.149,5.832 2.542 L 5.572 2.794 5.329 2.822 C 4.875 2.873,4.500 2.998,4.155 3.215 C 3.715 3.492,3.421 3.794,3.161 4.235 C 3.041 4.439,3.023 4.458,2.876 4.539 C 2.134 4.947,1.635 5.625,1.452 6.474 C 1.394 6.746,1.400 7.290,1.464 7.572 C 1.665 8.443,2.201 9.137,2.952 9.497 C 3.532 9.775,4.170 9.875,4.485 9.736 C 4.803 9.595,4.972 9.207,4.857 8.882 C 4.795 8.708,4.715 8.604,4.586 8.528 C 4.458 8.452,4.380 8.430,4.131 8.398 C 3.831 8.358,3.603 8.278,3.413 8.144 C 3.029 7.875,2.815 7.465,2.815 7.000 C 2.815 6.620,2.950 6.294,3.220 6.020 C 3.395 5.842,3.632 5.711,3.954 5.613 L 4.152 5.552 4.213 5.354 C 4.363 4.860,4.604 4.547,4.976 4.364 C 5.322 4.193,5.540 4.173,6.061 4.261 C 6.180 4.281,6.292 4.292,6.310 4.285 C 6.328 4.279,6.387 4.196,6.441 4.102 C 6.627 3.778,6.766 3.581,6.912 3.433 C 7.189 3.151,7.643 2.902,7.980 2.848 C 8.173 2.817,8.625 2.817,8.815 2.848 C 9.284 2.924,9.847 3.302,10.139 3.736 C 10.455 4.208,10.549 4.723,10.442 5.397 L 10.398 5.672 10.525 5.780 C 10.960 6.151,11.152 6.479,11.189 6.912 C 11.232 7.419,10.941 7.954,10.477 8.219 C 10.337 8.300,10.089 8.370,9.847 8.400 C 9.471 8.445,9.298 8.546,9.179 8.788 C 9.093 8.965,9.087 9.222,9.165 9.383 C 9.232 9.519,9.379 9.666,9.518 9.735 C 9.674 9.812,10.061 9.807,10.424 9.723 C 11.374 9.504,12.138 8.807,12.448 7.880 C 12.737 7.017,12.588 6.085,12.040 5.324 L 11.900 5.130 11.900 4.951 C 11.899 4.011,11.550 3.136,10.914 2.482 C 10.287 1.836,9.531 1.485,8.638 1.424 C 8.449 1.411,8.290 1.402,8.283 1.404 C 8.277 1.406,8.240 1.411,8.202 1.415 M6.848 6.320 C 6.636 6.376,6.467 6.509,6.377 6.691 L 6.312 6.825 6.305 8.533 L 6.298 10.241 6.211 10.210 C 5.769 10.054,5.356 10.288,5.272 10.742 C 5.236 10.936,5.275 11.098,5.395 11.252 C 5.534 11.431,6.503 12.393,6.631 12.480 C 6.830 12.614,7.082 12.631,7.302 12.525 C 7.423 12.467,8.507 11.402,8.629 11.221 C 8.867 10.867,8.730 10.409,8.332 10.223 C 8.179 10.152,7.961 10.144,7.800 10.204 L 7.702 10.241 7.695 8.533 C 7.689 6.943,7.685 6.819,7.646 6.735 C 7.583 6.600,7.410 6.428,7.282 6.373 C 7.154 6.318,6.952 6.293,6.848 6.320 " fill="#1A1C1F" stroke="none" fill-rule="evenodd"></path></svg>