<svg xmlns="http://www.w3.org/2000/svg" width="16" height="16" fill="none"><g clip-path="url(#a)"><path fill="#1A1C1F" fill-rule="evenodd" d="M8 7.2a.8.8 0 0 1 .795.707L8.8 8v3.707a.8.8 0 0 1 1.032 1.183l-.066.076-1.2 1.2-.066.058-.083.06-.078.041-.09.035-.088.024-.1.014L8 14.4l-.072-.003-.047-.006-.094-.02-.084-.028-.09-.043-.09-.057-.045-.037-.044-.04-1.2-1.2-.066-.076a.8.8 0 0 1 0-.98l.066-.076.076-.066a.8.8 0 0 1 .795-.108l.096.047L7.2 8l.005-.093A.8.8 0 0 1 8 7.2m1.6-5.6a4 4 0 0 1 4 4l-.01.274.068.077c.39.468.642 1.04.718 1.653l.018.206.006.19a3.203 3.203 0 0 1-2.872 3.182l-.164.014H11.2a.8.8 0 0 1-.794-.706l-.005-.093a.8.8 0 0 1 .8-.8h.095a1.6 1.6 0 0 0 1.5-1.477L12.8 8c0-.43-.17-.83-.464-1.127l-.103-.094-.352-.298.081-.454Q12 5.817 12 5.6a2.4 2.4 0 0 0-4.409-1.312l-.083.138-.276.493-.558-.096a1.602 1.602 0 0 0-1.764.99l-.042.122-.124.41-.41.124a1.601 1.601 0 0 0 .347 3.127l.12.004a.8.8 0 0 1 .093 1.595L4.8 11.2a3.2 3.2 0 0 1-3.196-3.04L1.6 8c0-1.198.665-2.267 1.677-2.815l.147-.075.06-.027.026-.059a3.2 3.2 0 0 1 2.55-1.806l.177-.014L6.4 3.2l.146-.182C7.253 2.18 8.473 1.653 9.6 1.6" clip-rule="evenodd"/></g><defs><clipPath id="a"><path fill="#fff" d="M0 0h16v16H0z"/></clipPath></defs></svg>