<svg width="28" height="28" viewBox="0 0 28 28" fill="none" xmlns="http://www.w3.org/2000/svg"><path d="M16.357 2.474 C 15.459 2.545,14.300 2.975,13.395 3.572 C 12.988 3.841,12.166 4.584,11.878 4.945 C 11.655 5.223,11.638 5.234,11.481 5.206 C 10.858 5.093,10.637 5.079,9.850 5.099 C 8.877 5.123,8.580 5.183,7.837 5.503 C 7.234 5.763,6.679 6.126,6.202 6.573 C 5.445 7.282,4.996 7.984,4.643 9.007 L 4.474 9.497 4.178 9.697 C 2.845 10.600,1.913 12.192,1.777 13.798 C 1.641 15.416,2.248 16.966,3.487 18.158 C 4.530 19.162,5.840 19.744,7.377 19.884 C 8.195 19.959,8.882 19.924,9.132 19.795 C 9.693 19.506,9.770 18.806,9.289 18.371 C 9.089 18.191,9.061 18.186,7.690 18.130 C 6.747 18.092,6.025 17.866,5.291 17.379 C 4.584 16.912,3.977 16.139,3.709 15.367 C 3.385 14.436,3.500 13.254,3.995 12.431 C 4.389 11.776,4.695 11.468,5.482 10.933 C 5.739 10.758,5.983 10.553,6.029 10.475 C 6.073 10.397,6.165 10.124,6.232 9.868 C 6.659 8.240,7.859 7.114,9.440 6.859 C 9.967 6.774,10.707 6.822,11.200 6.974 C 11.418 7.041,11.725 7.120,11.881 7.150 C 12.147 7.200,12.181 7.196,12.393 7.090 C 12.584 6.994,12.675 6.896,12.972 6.464 C 13.781 5.283,14.701 4.617,15.961 4.299 C 16.439 4.178,17.483 4.162,18.021 4.267 C 19.767 4.608,21.227 5.987,21.708 7.747 C 21.806 8.106,21.816 8.243,21.818 9.217 C 21.821 10.146,21.832 10.311,21.902 10.443 C 21.959 10.549,22.154 10.707,22.527 10.949 C 23.551 11.614,24.102 12.331,24.368 13.347 C 24.487 13.802,24.493 14.591,24.381 15.050 C 24.025 16.506,22.723 17.716,21.168 18.035 C 20.966 18.076,20.384 18.129,19.875 18.152 C 19.367 18.176,18.913 18.215,18.867 18.240 C 18.617 18.376,18.386 18.766,18.388 19.050 C 18.390 19.402,18.702 19.806,19.006 19.853 C 19.608 19.944,20.810 19.902,21.459 19.765 C 23.570 19.321,25.328 17.813,25.963 15.902 C 26.233 15.090,26.308 14.061,26.156 13.262 C 26.076 12.841,25.860 12.189,25.688 11.849 C 25.321 11.125,24.452 10.104,23.888 9.734 L 23.626 9.562 23.601 8.829 C 23.573 8.019,23.498 7.584,23.263 6.876 C 22.757 5.354,21.745 4.121,20.323 3.297 C 19.432 2.781,18.616 2.533,17.602 2.471 C 17.225 2.448,16.885 2.432,16.847 2.435 C 16.808 2.438,16.588 2.456,16.357 2.474 M13.650 13.000 C 13.464 13.097,13.308 13.246,13.214 13.417 C 13.144 13.544,13.135 13.974,13.123 18.081 L 13.110 22.605 12.400 21.905 C 11.280 20.800,11.297 20.813,10.979 20.813 C 10.498 20.813,10.133 21.118,10.091 21.553 C 10.048 21.998,10.057 22.008,11.829 23.785 C 12.910 24.869,13.530 25.456,13.641 25.503 C 13.855 25.592,14.143 25.593,14.354 25.505 C 14.581 25.410,17.756 22.236,17.850 22.010 C 18.064 21.498,17.727 20.885,17.199 20.825 C 16.756 20.775,16.718 20.799,15.799 21.703 L 14.948 22.540 14.917 21.735 C 14.901 21.292,14.885 19.492,14.883 17.733 C 14.881 15.975,14.865 14.284,14.847 13.976 C 14.809 13.324,14.763 13.229,14.399 13.044 C 14.134 12.909,13.856 12.893,13.650 13.000 " fill="#1A1C1F" stroke="none" fill-rule="evenodd"></path></svg>