<svg width="12" height="12" viewBox="0 0 12 12" fill="none" xmlns="http://www.w3.org/2000/svg"><path d="M1.980 1.219 C 1.599 1.230,1.588 1.231,1.495 1.286 C 1.393 1.346,1.318 1.430,1.246 1.564 L 1.200 1.649 1.200 5.998 L 1.200 10.346 1.244 10.434 C 1.312 10.570,1.405 10.667,1.536 10.736 L 1.656 10.800 3.228 10.800 L 4.800 10.800 4.800 10.200 L 4.800 9.600 3.600 9.600 L 2.400 9.600 2.400 6.000 L 2.400 2.400 3.889 2.400 L 5.378 2.400 5.384 3.075 C 5.390 3.734,5.391 3.752,5.436 3.844 C 5.495 3.964,5.616 4.085,5.736 4.144 L 5.830 4.190 7.117 4.196 L 8.404 4.202 8.396 3.816 C 8.389 3.508,8.381 3.414,8.353 3.350 C 8.312 3.254,6.391 1.328,6.280 1.270 C 6.230 1.244,6.137 1.229,5.960 1.218 C 5.686 1.200,2.606 1.201,1.980 1.219 M7.510 4.821 C 7.304 4.838,6.972 4.913,6.770 4.989 C 5.906 5.315,5.243 6.005,4.951 6.885 C 4.834 7.236,4.815 7.366,4.815 7.800 C 4.815 8.240,4.833 8.362,4.960 8.742 C 5.089 9.132,5.282 9.462,5.563 9.773 C 6.028 10.290,6.516 10.578,7.200 10.740 C 7.364 10.778,7.445 10.784,7.790 10.784 C 8.085 10.784,8.232 10.775,8.350 10.751 C 8.571 10.705,8.946 10.578,9.122 10.489 C 9.568 10.265,10.019 9.862,10.308 9.430 C 10.675 8.883,10.846 8.192,10.782 7.517 C 10.716 6.822,10.419 6.200,9.909 5.691 C 9.398 5.180,8.778 4.887,8.070 4.821 C 7.831 4.798,7.780 4.798,7.510 4.821 M8.980 7.209 L 9.310 7.540 8.445 8.405 L 7.580 9.270 7.079 8.770 C 6.803 8.495,6.541 8.227,6.496 8.175 L 6.416 8.079 6.763 7.728 L 7.110 7.377 7.348 7.621 L 7.587 7.866 8.085 7.353 C 8.491 6.936,8.589 6.844,8.617 6.859 C 8.635 6.869,8.798 7.027,8.980 7.209 " fill="#1A1C1F" stroke="none" fill-rule="evenodd"></path></svg>