<svg width="24" height="24" viewBox="0 0 24 24" fill="none" xmlns="http://www.w3.org/2000/svg"><path d="M3.074 2.034 C 2.636 2.058,2.597 2.068,2.434 2.184 C 2.338 2.253,2.202 2.405,2.130 2.523 L 2.000 2.736 2.000 12.000 L 2.000 21.264 2.130 21.482 C 2.210 21.616,2.333 21.748,2.448 21.826 L 2.636 21.951 3.368 21.979 C 3.771 21.995,5.261 22.001,6.680 21.994 L 9.260 21.980 9.449 21.887 C 9.829 21.700,10.062 21.209,9.967 20.796 C 9.911 20.556,9.717 20.269,9.532 20.155 C 9.322 20.025,8.844 20.002,6.330 20.001 L 4.000 20.000 4.000 12.000 L 4.000 4.000 6.497 4.000 L 8.995 4.000 9.007 6.130 L 9.020 8.260 9.113 8.449 C 9.215 8.656,9.383 8.817,9.600 8.916 C 9.724 8.973,10.056 8.980,12.500 8.980 L 15.260 8.980 15.451 8.886 C 15.705 8.761,15.902 8.500,15.962 8.209 C 15.991 8.070,16.003 7.738,15.993 7.337 C 15.978 6.705,15.975 6.687,15.863 6.515 C 15.692 6.253,11.608 2.191,11.434 2.109 C 11.299 2.045,10.976 2.038,7.414 2.024 C 5.283 2.015,3.330 2.019,3.074 2.034 M12.300 5.720 L 13.580 7.000 12.290 7.000 L 11.000 7.000 11.000 5.720 C 11.000 5.016,11.005 4.440,11.010 4.440 C 11.016 4.440,11.596 5.016,12.300 5.720 M14.913 10.100 C 12.804 10.498,10.997 12.075,10.322 14.107 C 10.066 14.879,10.028 15.121,10.028 15.980 C 10.028 16.606,10.043 16.811,10.114 17.146 C 10.343 18.226,10.791 19.128,11.496 19.930 C 12.393 20.951,13.524 21.606,14.900 21.902 C 15.352 21.999,16.648 21.999,17.100 21.902 C 17.934 21.723,18.792 21.357,19.420 20.914 C 19.930 20.554,20.642 19.830,20.970 19.337 C 21.405 18.684,21.716 17.942,21.887 17.148 C 22.014 16.561,22.014 15.439,21.888 14.854 C 21.698 13.977,21.306 13.087,20.822 12.439 C 20.483 11.984,19.821 11.352,19.362 11.046 C 18.738 10.629,17.997 10.309,17.256 10.138 C 16.859 10.046,15.331 10.022,14.913 10.100 M6.827 12.038 C 6.540 12.078,6.308 12.234,6.141 12.500 C 6.037 12.667,6.022 12.726,6.025 12.975 C 6.031 13.423,6.188 13.704,6.540 13.893 C 6.688 13.973,6.758 13.979,7.500 13.979 C 8.242 13.979,8.312 13.973,8.460 13.893 C 8.810 13.705,8.967 13.425,8.972 12.981 C 8.976 12.660,8.919 12.520,8.697 12.305 C 8.442 12.057,8.329 12.026,7.660 12.015 C 7.330 12.010,6.955 12.020,6.827 12.038 M19.381 13.962 L 19.940 14.524 17.430 17.025 L 14.919 19.527 14.730 19.364 C 14.625 19.274,13.982 18.652,13.300 17.980 L 12.060 16.760 12.636 16.196 L 13.212 15.633 14.046 16.466 L 14.880 17.300 16.830 15.350 C 17.902 14.277,18.789 13.400,18.800 13.400 C 18.812 13.400,19.073 13.653,19.381 13.962 M6.773 16.036 C 5.752 16.295,5.764 17.729,6.790 17.965 C 7.728 18.182,8.383 17.011,7.710 16.322 C 7.472 16.078,7.080 15.959,6.773 16.036 " fill="#1A1C1F" stroke="none" fill-rule="evenodd"></path></svg>