<svg width="28" height="28" viewBox="0 0 28 28" fill="none" xmlns="http://www.w3.org/2000/svg"><path d="M3.783 1.949 C 3.336 2.170,3.002 2.497,2.797 2.916 L 2.637 3.241 2.637 14.000 L 2.637 24.759 2.792 25.074 C 3.010 25.516,3.360 25.860,3.812 26.076 L 4.177 26.250 8.703 26.250 C 13.513 26.250,13.414 26.254,13.700 26.029 C 13.856 25.906,13.998 25.602,13.999 25.385 C 14.000 25.163,13.828 24.839,13.620 24.673 L 13.449 24.538 8.969 24.507 C 6.504 24.490,4.470 24.459,4.449 24.438 C 4.427 24.416,4.410 19.729,4.410 14.022 C 4.410 5.571,4.421 3.633,4.471 3.584 C 4.519 3.535,5.379 3.520,8.822 3.508 L 13.113 3.494 13.113 5.824 L 13.113 8.154 13.305 8.372 C 13.654 8.768,13.497 8.746,16.088 8.765 L 18.387 8.782 18.388 10.119 C 18.388 10.855,18.408 11.538,18.431 11.637 C 18.554 12.166,19.335 12.411,19.772 12.057 C 20.127 11.770,20.113 11.884,20.113 9.212 L 20.113 6.826 19.943 6.481 C 19.784 6.161,19.635 5.999,17.784 4.153 C 16.338 2.710,15.721 2.126,15.519 2.007 L 15.241 1.843 13.465 1.814 C 12.489 1.798,9.989 1.783,7.910 1.781 L 4.130 1.777 3.783 1.949 M16.543 5.367 L 18.176 7.000 16.531 7.000 L 14.887 7.000 14.887 5.367 C 14.887 4.468,14.892 3.733,14.899 3.733 C 14.905 3.733,15.645 4.468,16.543 5.367 M6.875 12.500 C 6.694 12.519,6.539 12.566,6.458 12.626 C 6.265 12.771,6.137 13.051,6.137 13.331 C 6.137 13.631,6.326 13.930,6.604 14.070 C 6.785 14.161,6.883 14.163,10.088 14.163 L 13.385 14.163 13.588 14.023 C 14.009 13.730,14.109 13.217,13.824 12.810 C 13.582 12.466,13.773 12.484,10.290 12.477 C 8.570 12.474,7.034 12.484,6.875 12.500 M18.013 14.138 C 16.980 14.359,16.029 14.826,15.315 15.462 C 14.849 15.877,14.327 16.453,14.112 16.788 C 13.719 17.401,13.364 18.299,13.226 19.029 C 13.113 19.625,13.121 20.750,13.242 21.327 C 14.079 25.316,18.431 27.409,22.044 25.561 C 24.245 24.436,25.543 22.097,25.342 19.621 C 25.223 18.158,24.635 16.892,23.589 15.842 C 22.672 14.923,21.552 14.324,20.360 14.116 C 19.786 14.016,18.529 14.028,18.013 14.138 M20.314 15.893 C 21.520 16.187,22.633 17.106,23.191 18.270 C 23.523 18.960,23.542 19.065,23.543 20.137 L 23.543 21.117 23.375 21.548 C 22.817 22.976,21.711 23.991,20.300 24.368 C 19.732 24.520,18.766 24.520,18.203 24.368 C 16.738 23.972,15.664 22.970,15.092 21.467 C 14.961 21.122,14.959 21.101,14.958 20.137 C 14.958 19.036,14.977 18.943,15.363 18.167 C 15.978 16.929,17.350 15.936,18.597 15.826 C 19.114 15.780,19.990 15.814,20.314 15.893 M6.945 15.958 C 6.713 15.982,6.593 16.022,6.472 16.114 C 6.286 16.255,6.113 16.578,6.113 16.782 C 6.113 16.990,6.330 17.386,6.532 17.546 L 6.710 17.687 9.060 17.686 C 10.353 17.685,11.492 17.665,11.593 17.642 C 12.282 17.482,12.457 16.533,11.878 16.096 C 11.720 15.977,11.700 15.974,10.700 15.944 C 9.464 15.907,7.372 15.915,6.945 15.958 M17.383 17.775 C 17.037 17.935,16.847 18.220,16.847 18.578 C 16.847 18.878,16.946 19.037,17.476 19.590 L 17.978 20.114 17.493 20.617 C 16.917 21.212,16.824 21.377,16.861 21.736 C 16.895 22.064,17.058 22.312,17.325 22.441 C 17.768 22.656,18.050 22.543,18.744 21.872 L 19.252 21.382 19.694 21.811 C 20.301 22.399,20.432 22.492,20.703 22.521 C 20.985 22.552,21.277 22.415,21.484 22.154 C 21.594 22.016,21.628 21.921,21.643 21.711 C 21.659 21.474,21.645 21.419,21.519 21.233 C 21.442 21.118,21.179 20.825,20.935 20.584 L 20.492 20.144 20.981 19.634 C 21.250 19.353,21.511 19.042,21.562 18.943 C 21.676 18.720,21.677 18.466,21.566 18.223 C 21.460 17.993,21.363 17.905,21.075 17.777 C 20.876 17.689,20.826 17.684,20.633 17.733 C 20.366 17.800,20.207 17.917,19.660 18.449 L 19.229 18.868 18.716 18.373 C 18.006 17.687,17.787 17.588,17.383 17.775 M6.784 19.500 C 6.377 19.574,6.141 19.869,6.138 20.306 C 6.137 20.527,6.160 20.605,6.277 20.772 C 6.355 20.882,6.491 21.015,6.581 21.068 C 6.738 21.160,6.812 21.163,8.758 21.163 L 10.772 21.163 10.970 21.023 C 11.463 20.675,11.494 19.969,11.033 19.617 L 10.878 19.499 8.927 19.482 C 7.855 19.472,6.890 19.480,6.784 19.500 " fill="#1A1C1F" stroke="none" fill-rule="evenodd"></path></svg>