<svg width="32" height="32" viewBox="0 0 32 32" fill="none" xmlns="http://www.w3.org/2000/svg"><path d="M4.324 2.227 C 3.813 2.480,3.431 2.854,3.196 3.332 L 3.013 3.704 3.013 16.000 L 3.013 28.296 3.191 28.657 C 3.439 29.161,3.840 29.554,4.356 29.801 L 4.773 30.000 9.947 30.000 C 15.444 30.000,15.330 30.005,15.657 29.748 C 15.836 29.607,15.997 29.259,15.999 29.011 C 16.000 28.757,15.803 28.387,15.566 28.198 L 15.372 28.044 10.250 28.009 C 7.433 27.989,5.109 27.953,5.084 27.929 C 5.060 27.904,5.040 22.548,5.040 16.025 C 5.040 6.367,5.053 4.152,5.109 4.096 C 5.165 4.040,6.148 4.023,10.083 4.010 L 14.987 3.993 14.987 6.655 L 14.987 9.318 15.206 9.568 C 15.605 10.021,15.426 9.995,18.387 10.017 L 21.013 10.037 21.015 11.565 C 21.015 12.406,21.037 13.186,21.064 13.299 C 21.204 13.904,22.097 14.184,22.596 13.780 C 23.002 13.451,22.987 13.582,22.987 10.528 L 22.987 7.801 22.792 7.407 C 22.611 7.040,22.443 6.859,20.325 4.747 C 18.672 3.098,17.967 2.429,17.736 2.293 L 17.418 2.107 15.469 2.073 C 14.397 2.054,11.540 2.037,9.120 2.035 L 4.720 2.031 4.324 2.227 M18.907 6.133 L 20.773 8.000 18.893 8.000 L 17.013 8.000 17.013 6.133 C 17.013 5.107,17.019 4.267,17.027 4.267 C 17.034 4.267,17.880 5.107,18.907 6.133 M7.857 14.286 C 7.651 14.307,7.473 14.361,7.381 14.430 C 7.160 14.595,7.013 14.916,7.013 15.235 C 7.013 15.578,7.230 15.921,7.548 16.080 C 7.754 16.184,7.866 16.187,11.529 16.187 L 15.297 16.187 15.529 16.026 C 16.011 15.691,16.125 15.105,15.799 14.640 C 15.523 14.247,15.740 14.267,11.760 14.260 C 9.795 14.256,8.038 14.268,7.857 14.286 M20.587 16.158 C 19.406 16.410,18.319 16.944,17.503 17.671 C 16.971 18.145,16.374 18.803,16.128 19.187 C 15.678 19.887,15.272 20.914,15.116 21.747 C 14.997 22.375,14.996 23.659,15.112 24.269 C 15.749 27.597,18.626 29.984,22.000 29.984 C 25.628 29.984,28.669 27.197,28.962 23.604 C 29.142 21.395,28.286 19.244,26.658 17.809 C 25.650 16.920,24.487 16.345,23.268 16.133 C 22.612 16.018,21.176 16.032,20.587 16.158 M23.216 18.164 C 24.592 18.497,25.866 19.549,26.504 20.880 C 26.883 21.670,26.906 21.789,26.905 23.013 C 26.904 24.115,26.902 24.140,26.752 24.533 C 26.424 25.396,26.008 26.042,25.421 26.599 C 24.766 27.220,24.063 27.615,23.196 27.849 C 22.552 28.023,21.448 28.023,20.804 27.849 C 19.129 27.397,17.901 26.252,17.248 24.533 C 17.098 24.140,17.096 24.115,17.095 23.013 C 17.094 21.755,17.116 21.649,17.557 20.762 C 18.253 19.364,19.806 18.230,21.224 18.085 C 21.767 18.030,22.836 18.072,23.216 18.164 M7.802 18.289 C 7.313 18.348,7.013 18.708,7.013 19.235 C 7.013 19.456,7.046 19.557,7.174 19.740 C 7.262 19.865,7.418 20.017,7.521 20.077 C 7.702 20.184,7.781 20.187,10.511 20.187 L 13.314 20.187 13.541 20.036 C 14.229 19.581,14.052 18.440,13.270 18.289 C 13.006 18.238,8.222 18.238,7.802 18.289 M23.587 21.048 C 23.439 21.080,22.573 21.859,21.792 22.663 L 21.212 23.261 20.966 23.025 C 20.400 22.482,20.089 22.364,19.655 22.530 C 19.228 22.693,18.930 23.187,19.016 23.591 C 19.067 23.833,19.391 24.233,20.055 24.874 C 20.755 25.551,20.872 25.619,21.283 25.589 C 21.570 25.569,21.612 25.547,21.958 25.240 C 22.561 24.706,24.631 22.572,24.728 22.386 C 25.080 21.707,24.374 20.879,23.587 21.048 M7.774 22.285 C 7.306 22.358,7.013 22.723,7.013 23.235 C 7.013 23.456,7.046 23.557,7.174 23.740 C 7.262 23.865,7.418 24.017,7.521 24.077 C 7.700 24.183,7.785 24.187,10.009 24.187 L 12.311 24.187 12.537 24.027 C 13.100 23.629,13.136 22.822,12.610 22.420 L 12.435 22.287 10.231 22.266 C 9.018 22.255,7.913 22.264,7.774 22.285 " fill="#1A1C1F" stroke="none" fill-rule="evenodd"></path></svg>