<svg width="12" height="12" viewBox="0 0 12 12" fill="none" xmlns="http://www.w3.org/2000/svg"><path d="M3.330 1.218 C 2.859 1.228,2.781 1.235,2.723 1.267 C 2.625 1.320,2.497 1.457,2.445 1.562 L 2.400 1.654 2.400 6.000 L 2.400 10.346 2.444 10.434 C 2.512 10.570,2.605 10.667,2.736 10.736 L 2.856 10.800 6.000 10.800 L 9.144 10.800 9.264 10.736 C 9.395 10.666,9.488 10.570,9.557 10.432 L 9.602 10.342 9.595 6.896 C 9.590 4.145,9.583 3.434,9.562 3.370 C 9.542 3.306,9.393 3.146,8.813 2.563 C 8.037 1.783,7.527 1.295,7.442 1.252 C 7.400 1.230,7.047 1.223,5.630 1.216 C 4.662 1.210,3.627 1.212,3.330 1.218 M6.584 3.075 C 6.590 3.734,6.591 3.752,6.636 3.844 C 6.696 3.965,6.826 4.095,6.940 4.148 C 7.025 4.188,7.069 4.190,7.715 4.196 L 8.400 4.202 8.400 6.901 L 8.400 9.600 6.000 9.600 L 3.600 9.600 3.600 6.000 L 3.600 2.400 5.089 2.400 L 6.578 2.400 6.584 3.075 M4.800 5.990 L 4.800 6.580 6.000 6.580 L 7.200 6.580 7.200 5.990 L 7.200 5.400 6.000 5.400 L 4.800 5.400 4.800 5.990 M4.800 7.800 L 4.800 8.400 6.000 8.400 L 7.200 8.400 7.200 7.800 L 7.200 7.200 6.000 7.200 L 4.800 7.200 4.800 7.800 " fill="#1A1C1F" stroke="none" fill-rule="evenodd"></path></svg>