<svg width="20" height="20" viewBox="0 0 20 20" fill="none" xmlns="http://www.w3.org/2000/svg"><path d="M3.283 2.032 C 2.666 2.050,2.646 2.052,2.492 2.143 C 2.321 2.243,2.196 2.383,2.077 2.606 L 2.000 2.749 2.000 9.996 L 2.000 17.243 2.074 17.390 C 2.187 17.617,2.342 17.778,2.560 17.894 L 2.759 18.000 5.380 18.000 L 8.000 18.000 8.000 17.000 L 8.000 16.000 6.000 16.000 L 4.000 16.000 4.000 10.000 L 4.000 4.000 6.481 4.000 L 8.963 4.000 8.973 5.125 C 8.983 6.223,8.985 6.254,9.060 6.406 C 9.160 6.608,9.376 6.825,9.567 6.913 C 9.713 6.982,9.764 6.984,11.862 6.993 L 14.007 7.003 13.993 6.360 C 13.982 5.847,13.968 5.690,13.922 5.583 C 13.881 5.488,13.398 4.985,12.223 3.813 C 11.321 2.913,10.531 2.150,10.470 2.118 C 10.393 2.078,10.224 2.051,9.937 2.031 C 9.489 2.001,4.343 2.001,3.283 2.032 M12.517 8.034 C 10.595 8.210,8.883 9.575,8.270 11.417 C 8.083 11.981,8.023 12.357,8.021 12.983 C 8.018 13.593,8.061 13.898,8.222 14.433 C 8.689 15.985,9.924 17.242,11.478 17.748 C 12.011 17.922,12.407 17.983,13.000 17.983 C 13.820 17.983,14.503 17.822,15.250 17.450 C 16.066 17.045,16.909 16.241,17.357 15.440 C 17.824 14.605,18.060 13.507,17.971 12.587 C 17.851 11.348,17.379 10.340,16.519 9.483 C 15.659 8.626,14.620 8.138,13.433 8.034 C 13.015 7.997,12.915 7.997,12.517 8.034 M13.065 11.786 C 13.089 11.757,13.437 11.416,13.840 11.027 L 14.571 10.321 15.161 10.913 L 15.750 11.505 15.065 12.178 C 14.688 12.547,14.344 12.891,14.301 12.941 L 14.223 13.031 14.978 13.792 L 15.732 14.552 15.140 15.143 L 14.549 15.733 13.785 14.968 L 13.021 14.204 12.259 14.953 C 11.535 15.664,11.493 15.699,11.428 15.653 C 11.328 15.584,10.333 14.545,10.334 14.511 C 10.334 14.496,10.673 14.155,11.087 13.753 L 11.839 13.023 11.143 12.320 C 10.760 11.933,10.419 11.583,10.385 11.542 L 10.324 11.467 10.902 10.883 L 11.481 10.298 12.251 11.068 C 12.922 11.738,13.027 11.831,13.065 11.786 " fill="#1A1C1F" stroke="none" fill-rule="evenodd"></path></svg>