<svg xmlns="http://www.w3.org/2000/svg" width="24" height="24" fill="none"><g clip-path="url(#a)"><path fill="#1A1C1F" fill-rule="evenodd" d="M11 2c.28 0 .53.094.719.313l4 4a.92.92 0 0 1 .28.687v1a1 1 0 0 1-1 1h-5c-.561 0-1-.469-1-1V4H4v16H9a1 1 0 0 1 0 2H3c-.562 0-1-.437-1-1V3c0-.562.438-1 1-1zm5 8c3.308 0 6 2.673 6 5.993C22 19.304 19.308 22 16 22s-6-2.696-6-6.007C10 12.696 12.693 10 16 10m2.794 3.385-3.918 3.918-1.669-1.665-1.155 1.124 2.844 2.781 5.054-5.018zM7 16a1 1 0 1 1 0 2 1 1 0 0 1 0-2m1-4c.563 0 1 .437 1 1s-.437 1-1 1H7c-.562 0-1-.438-1-1s.438-1 1-1zm3-7.594V7h2.594z" clip-rule="evenodd"/></g><defs><clipPath id="a"><path fill="#fff" d="M0 0h24v24H0z"/></clipPath></defs></svg>