<svg xmlns="http://www.w3.org/2000/svg" width="12" height="12" fill="none"><g clip-path="url(#a)"><path fill="#1A1C1F" fill-rule="evenodd" d="M6 1.2c.15 0 .3.056.412.169l1.82 1.8A.6.6 0 0 1 8.4 3.6v.6H5.981a.59.59 0 0 1-.6-.6V2.4H2.4v7.2h2.4v1.2h-3a.59.59 0 0 1-.6-.6V1.8c0-.338.262-.6.6-.6zm1.8 3.6c1.65 0 3 1.35 3 3s-1.35 3-3 3-3-1.35-3-3 1.35-3 3-3m.794 2.034L7.582 7.865l-.465-.483-.712.712 1.177 1.177 1.725-1.725z" clip-rule="evenodd"/></g><defs><clipPath id="a"><path fill="#fff" d="M0 0h12v12H0z"/></clipPath></defs></svg>