<svg xmlns="http://www.w3.org/2000/svg" width="16" height="16" fill="none"><g clip-path="url(#a)"><path fill="#1A1C1F" fill-rule="evenodd" d="M8 1.6c.2 0 .4.075.55.225l2.425 2.4c.15.15.225.35.225.575v.8H7.975a.79.79 0 0 1-.8-.8V3.2H3.2v9.6h3.2v1.6h-4a.79.79 0 0 1-.8-.8V2.4c0-.45.35-.8.8-.8zm2.4 4.8c2.2 0 4 1.8 4 4s-1.8 4-4 4-4-1.8-4-4 1.8-4 4-4m1.059 2.712-1.35 1.375-.62-.645-.95.95 1.57 1.57 2.3-2.3z" clip-rule="evenodd"/></g><defs><clipPath id="a"><path fill="#fff" d="M0 0h16v16H0z"/></clipPath></defs></svg>