<svg width="16" height="16" viewBox="0 0 16 16" fill="none" xmlns="http://www.w3.org/2000/svg"><path d="M2.627 1.625 C 2.135 1.640,2.116 1.642,1.995 1.713 C 1.854 1.796,1.742 1.922,1.657 2.091 L 1.600 2.207 1.606 8.030 L 1.613 13.853 1.720 14.013 C 1.791 14.120,1.880 14.209,1.987 14.280 L 2.147 14.387 4.273 14.394 L 6.400 14.401 6.400 13.600 L 6.400 12.800 4.800 12.800 L 3.200 12.800 3.200 8.000 L 3.200 3.200 5.185 3.200 L 7.170 3.200 7.178 4.100 C 7.186 4.978,7.188 5.003,7.248 5.125 C 7.328 5.286,7.501 5.460,7.653 5.531 C 7.771 5.585,7.811 5.587,9.490 5.594 L 11.206 5.602 11.195 5.088 C 11.186 4.677,11.174 4.552,11.138 4.467 C 11.105 4.391,10.716 3.985,9.779 3.051 C 9.057 2.331,8.426 1.720,8.376 1.695 C 8.314 1.663,8.180 1.641,7.949 1.625 C 7.591 1.600,3.475 1.601,2.627 1.625 M9.999 6.428 C 8.564 6.556,7.228 7.571,6.684 8.947 C 6.470 9.488,6.379 10.065,6.414 10.653 C 6.467 11.533,6.814 12.356,7.417 13.034 C 8.017 13.708,8.691 14.104,9.600 14.320 C 9.820 14.372,9.926 14.380,10.400 14.380 C 10.874 14.380,10.980 14.372,11.200 14.320 C 12.118 14.102,12.812 13.689,13.405 13.009 C 14.010 12.315,14.333 11.531,14.387 10.627 C 14.455 9.503,14.039 8.418,13.227 7.600 C 12.547 6.915,11.712 6.517,10.772 6.429 C 10.438 6.397,10.340 6.397,9.999 6.428 M11.973 9.612 L 12.413 10.054 11.260 11.207 L 10.107 12.360 9.438 11.693 C 9.071 11.327,8.722 10.970,8.663 10.900 L 8.555 10.774 9.018 10.305 L 9.480 9.835 9.798 10.162 L 10.116 10.488 10.780 9.804 C 11.320 9.249,11.453 9.125,11.489 9.145 C 11.513 9.159,11.731 9.369,11.973 9.612 " fill="#1A1C1F" stroke="none" fill-rule="evenodd"></path></svg>