<svg width="16" height="16" viewBox="0 0 16 16" fill="none" xmlns="http://www.w3.org/2000/svg"><path d="M4.493 1.624 C 3.813 1.638,3.709 1.646,3.630 1.689 C 3.500 1.760,3.329 1.942,3.260 2.084 L 3.200 2.207 3.206 8.030 L 3.213 13.853 3.320 14.013 C 3.391 14.120,3.480 14.209,3.587 14.280 L 3.747 14.387 8.000 14.387 L 12.253 14.387 12.412 14.280 C 12.514 14.211,12.609 14.117,12.678 14.014 L 12.787 13.854 12.787 9.240 C 12.787 5.479,12.780 4.605,12.751 4.507 C 12.720 4.402,12.599 4.270,11.778 3.444 C 10.752 2.413,10.034 1.726,9.924 1.669 C 9.866 1.639,9.427 1.630,7.560 1.620 C 6.299 1.613,4.919 1.615,4.493 1.624 M8.778 4.100 C 8.786 4.978,8.788 5.003,8.848 5.125 C 8.928 5.286,9.101 5.460,9.253 5.531 C 9.367 5.584,9.425 5.587,10.287 5.595 L 11.200 5.603 11.200 9.202 L 11.200 12.800 8.000 12.800 L 4.800 12.800 4.800 8.000 L 4.800 3.200 6.785 3.200 L 8.770 3.200 8.778 4.100 M6.400 7.987 L 6.400 8.773 8.000 8.773 L 9.600 8.773 9.600 7.987 L 9.600 7.200 8.000 7.200 L 6.400 7.200 6.400 7.987 M6.400 10.400 L 6.400 11.200 8.000 11.200 L 9.600 11.200 9.600 10.400 L 9.600 9.600 8.000 9.600 L 6.400 9.600 6.400 10.400 " fill="#1A1C1F" stroke="none" fill-rule="evenodd"></path></svg>