<svg xmlns="http://www.w3.org/2000/svg" width="28" height="28" fill="none"><g clip-path="url(#a)"><path fill="#1A1C1F" fill-rule="evenodd" d="M14.574 1.75c.52 0 1.011.219 1.395.574l3.582 3.582c.382.384.574.875.574 1.395v4.073a.864.864 0 0 1-.875.875.863.863 0 0 1-.875-.875V8.75H14a.864.864 0 0 1-.875-.875V3.5H4.594c-.11 0-.219.11-.219.219V24.28c0 .11.11.219.219.219h8.531c.492 0 .875.382.875.875a.864.864 0 0 1-.875.875H4.594a1.96 1.96 0 0 1-1.969-1.969V3.72A1.96 1.96 0 0 1 4.594 1.75zM19.25 14a6.115 6.115 0 0 1 6.125 6.125 6.115 6.115 0 0 1-6.125 6.125 6.115 6.115 0 0 1-6.125-6.125A6.115 6.115 0 0 1 19.25 14m0 1.75a4.39 4.39 0 0 0-4.375 4.375A4.39 4.39 0 0 0 19.25 24.5a4.39 4.39 0 0 0 4.375-4.375 4.39 4.39 0 0 0-4.375-4.375m1.628 2.637a.852.852 0 0 1 .607 1.45l-2.32 2.337a.85.85 0 0 1-1.207 0l-1.083-1.084a.852.852 0 0 1 1.203-1.204l.48.479 1.716-1.726a.85.85 0 0 1 .604-.252M10.5 19.431c.491 0 .875.383.875.875a.864.864 0 0 1-.875.875H7a.864.864 0 0 1-.875-.875c0-.492.383-.875.875-.875zm.875-3.5c.491 0 .875.383.875.875a.864.864 0 0 1-.875.875H7a.864.864 0 0 1-.875-.875c0-.492.383-.875.875-.875zm1.75-3.5c.491 0 .875.383.875.875a.864.864 0 0 1-.875.875H7a.864.864 0 0 1-.875-.875c0-.492.383-.875.875-.875zm1.75-8.74V7h3.308z" clip-rule="evenodd"/></g><defs><clipPath id="a"><path fill="#fff" d="M0 0h28v28H0z"/></clipPath></defs></svg>