<svg width="24" height="24" viewBox="0 0 24 24" fill="none" xmlns="http://www.w3.org/2000/svg"><path d="M6.074 2.034 C 5.636 2.058,5.597 2.068,5.434 2.184 C 5.338 2.253,5.202 2.405,5.130 2.523 L 5.000 2.736 5.000 12.000 L 5.000 21.264 5.130 21.480 C 5.202 21.599,5.338 21.752,5.433 21.818 L 5.607 21.940 6.593 21.966 C 7.874 21.999,16.126 21.999,17.407 21.966 L 18.393 21.940 18.567 21.818 C 18.662 21.752,18.799 21.599,18.870 21.480 L 19.000 21.264 19.000 14.000 L 19.000 6.736 18.875 6.538 C 18.706 6.269,14.623 2.198,14.434 2.109 C 14.299 2.045,13.976 2.038,10.414 2.024 C 8.283 2.015,6.330 2.019,6.074 2.034 M12.007 6.130 L 12.020 8.260 12.113 8.449 C 12.164 8.553,12.263 8.686,12.333 8.745 C 12.618 8.986,12.549 8.979,14.870 8.993 L 17.000 9.005 17.000 14.503 L 17.000 20.000 12.000 20.000 L 7.000 20.000 7.000 12.000 L 7.000 4.000 9.497 4.000 L 11.995 4.000 12.007 6.130 M15.300 5.720 L 16.580 7.000 15.290 7.000 L 14.000 7.000 14.000 5.720 C 14.000 5.016,14.005 4.440,14.010 4.440 C 14.016 4.440,14.596 5.016,15.300 5.720 M9.890 12.036 C 9.543 12.071,9.326 12.205,9.141 12.500 C 9.037 12.667,9.022 12.726,9.025 12.975 C 9.031 13.423,9.188 13.704,9.540 13.894 C 9.699 13.979,9.720 13.980,12.000 13.980 C 14.280 13.980,14.301 13.979,14.460 13.894 C 14.810 13.705,14.967 13.425,14.972 12.981 C 14.976 12.660,14.919 12.520,14.697 12.305 C 14.394 12.011,14.493 12.022,12.220 12.015 C 11.098 12.011,10.050 12.021,9.890 12.036 M9.890 16.036 C 9.543 16.071,9.326 16.205,9.141 16.500 C 9.037 16.667,9.022 16.726,9.025 16.975 C 9.031 17.423,9.188 17.704,9.540 17.894 C 9.699 17.979,9.720 17.980,12.000 17.980 C 14.280 17.980,14.301 17.979,14.460 17.894 C 14.810 17.705,14.967 17.425,14.972 16.981 C 14.976 16.660,14.919 16.520,14.697 16.305 C 14.394 16.011,14.493 16.022,12.220 16.015 C 11.098 16.011,10.050 16.021,9.890 16.036 " fill="#1A1C1F" stroke="none" fill-rule="evenodd"></path></svg>