<svg width="14" height="14" viewBox="0 0 14 14" fill="none" xmlns="http://www.w3.org/2000/svg"><path d="M2.298 1.422 C 1.869 1.435,1.852 1.437,1.747 1.499 C 1.619 1.573,1.536 1.667,1.457 1.823 L 1.400 1.935 1.400 7.000 L 1.400 12.065 1.449 12.163 C 1.532 12.328,1.646 12.448,1.792 12.526 L 1.932 12.600 3.766 12.600 L 5.600 12.600 5.600 11.900 L 5.600 11.200 4.200 11.200 L 2.800 11.200 2.800 7.000 L 2.800 2.800 4.537 2.800 L 6.274 2.800 6.281 3.588 C 6.288 4.356,6.290 4.378,6.342 4.485 C 6.411 4.624,6.552 4.766,6.692 4.834 L 6.802 4.888 8.304 4.895 L 9.806 4.902 9.795 4.452 C 9.787 4.097,9.776 3.982,9.745 3.908 C 9.716 3.841,9.385 3.495,8.556 2.669 C 7.924 2.039,7.372 1.505,7.329 1.483 C 7.275 1.455,7.157 1.436,6.956 1.422 C 6.642 1.400,3.040 1.401,2.298 1.422 M8.762 5.624 C 7.416 5.747,6.218 6.702,5.789 7.992 C 5.658 8.387,5.616 8.650,5.614 9.088 C 5.613 9.515,5.642 9.729,5.755 10.103 C 6.082 11.189,6.947 12.070,8.035 12.424 C 8.408 12.545,8.685 12.588,9.100 12.588 C 10.049 12.588,10.881 12.242,11.563 11.563 C 12.161 10.968,12.495 10.254,12.581 9.388 C 12.659 8.595,12.408 7.703,11.919 7.042 C 11.316 6.228,10.400 5.712,9.403 5.624 C 9.110 5.598,9.041 5.598,8.762 5.624 M9.194 8.200 C 9.239 8.154,9.483 7.915,9.737 7.670 L 10.200 7.225 10.612 7.639 L 11.025 8.054 10.545 8.524 C 10.282 8.783,10.041 9.024,10.011 9.059 L 9.956 9.122 10.484 9.654 L 11.012 10.187 10.598 10.600 L 10.185 11.013 9.650 10.478 L 9.115 9.943 8.582 10.466 C 8.066 10.973,8.047 10.989,7.997 10.956 C 7.933 10.913,7.233 10.184,7.233 10.159 C 7.233 10.150,7.470 9.911,7.760 9.629 L 8.287 9.116 7.800 8.624 C 7.532 8.353,7.293 8.108,7.270 8.079 L 7.227 8.027 7.632 7.618 L 8.037 7.209 8.575 7.747 L 9.113 8.284 9.194 8.200 " fill="#1A1C1F" stroke="none" fill-rule="evenodd"></path></svg>