<svg xmlns="http://www.w3.org/2000/svg" width="24" height="24" fill="none"><g clip-path="url(#a)"><path fill="#1A1C1F" fill-rule="evenodd" d="M14 2c.281 0 .531.094.719.313l4 4A.92.92 0 0 1 19 7v14c0 .563-.437 1-1 1H6c-.562 0-1-.437-1-1V3c0-.562.438-1 1-1zm-2 2H7v16h10V9h-4c-.562 0-1-.469-1-1zm2 .406V7h2.594zM14 16h-4c-.562 0-1 .438-1 1s.438 1 1 1h4c.563 0 1-.437 1-1s-.437-1-1-1m0-4h-4c-.562 0-1 .438-1 1s.438 1 1 1h4c.563 0 1-.437 1-1s-.437-1-1-1" clip-rule="evenodd"/></g><defs><clipPath id="a"><path fill="#fff" d="M0 0h24v24H0z"/></clipPath></defs></svg>