<svg width="14" height="14" viewBox="0 0 14 14" fill="none" xmlns="http://www.w3.org/2000/svg"><path d="M2.298 1.422 C 1.869 1.435,1.852 1.437,1.747 1.499 C 1.619 1.573,1.536 1.667,1.457 1.823 L 1.400 1.935 1.400 7.000 L 1.400 12.065 1.449 12.163 C 1.532 12.328,1.646 12.448,1.792 12.526 L 1.932 12.600 3.766 12.600 L 5.600 12.600 5.600 11.900 L 5.600 11.200 4.200 11.200 L 2.800 11.200 2.800 7.000 L 2.800 2.800 4.537 2.800 L 6.274 2.800 6.281 3.588 C 6.288 4.356,6.290 4.378,6.342 4.485 C 6.411 4.624,6.552 4.766,6.692 4.834 L 6.802 4.888 8.304 4.895 L 9.806 4.902 9.795 4.452 C 9.787 4.097,9.776 3.982,9.745 3.908 C 9.716 3.841,9.385 3.495,8.556 2.669 C 7.924 2.039,7.372 1.505,7.329 1.483 C 7.275 1.455,7.157 1.436,6.956 1.422 C 6.642 1.400,3.040 1.401,2.298 1.422 M8.749 5.624 C 7.996 5.691,7.223 6.058,6.659 6.615 C 5.919 7.345,5.556 8.282,5.613 9.310 C 5.631 9.646,5.672 9.855,5.786 10.199 C 5.937 10.654,6.163 11.040,6.490 11.402 C 7.033 12.005,7.602 12.341,8.400 12.530 C 8.591 12.575,8.685 12.582,9.088 12.582 C 9.481 12.581,9.591 12.573,9.786 12.530 C 10.572 12.357,11.195 11.989,11.732 11.381 C 12.043 11.028,12.250 10.677,12.400 10.245 C 12.839 8.985,12.529 7.621,11.585 6.660 C 10.997 6.061,10.248 5.702,9.425 5.625 C 9.133 5.598,9.047 5.598,8.749 5.624 M10.477 8.410 L 10.861 8.797 9.852 9.806 L 8.843 10.815 8.259 10.232 C 7.937 9.911,7.631 9.598,7.579 9.537 L 7.485 9.426 7.890 9.016 L 8.295 8.607 8.574 8.891 L 8.853 9.175 9.433 8.578 C 9.906 8.091,10.021 7.984,10.053 8.002 C 10.074 8.014,10.265 8.198,10.477 8.410 " fill="#1A1C1F" stroke="none" fill-rule="evenodd"></path></svg>