<svg width="14" height="14" viewBox="0 0 14 14" fill="none" xmlns="http://www.w3.org/2000/svg"><path d="M3.908 1.421 C 3.336 1.433,3.245 1.440,3.177 1.478 C 3.063 1.540,2.913 1.699,2.852 1.823 L 2.800 1.930 2.800 6.998 L 2.800 12.065 2.849 12.163 C 2.932 12.328,3.046 12.448,3.192 12.526 L 3.332 12.600 6.998 12.600 L 10.665 12.600 10.782 12.541 C 10.931 12.465,11.066 12.330,11.142 12.180 L 11.202 12.061 11.194 8.043 C 11.188 4.835,11.180 4.006,11.156 3.932 C 11.132 3.857,10.959 3.670,10.282 2.990 C 9.377 2.080,8.782 1.511,8.683 1.460 C 8.634 1.435,8.228 1.427,6.592 1.418 C 5.475 1.412,4.268 1.413,3.908 1.421 M7.681 3.588 C 7.688 4.356,7.690 4.378,7.742 4.485 C 7.812 4.625,7.963 4.777,8.097 4.839 C 8.196 4.886,8.247 4.889,9.001 4.896 L 9.800 4.903 9.800 8.051 L 9.800 11.200 7.000 11.200 L 4.200 11.200 4.200 7.000 L 4.200 2.800 5.937 2.800 L 7.674 2.800 7.681 3.588 M5.600 6.988 L 5.600 7.677 7.000 7.677 L 8.400 7.677 8.400 6.988 L 8.400 6.300 7.000 6.300 L 5.600 6.300 5.600 6.988 M5.600 9.100 L 5.600 9.800 7.000 9.800 L 8.400 9.800 8.400 9.100 L 8.400 8.400 7.000 8.400 L 5.600 8.400 5.600 9.100 " fill="#1A1C1F" stroke="none" fill-rule="evenodd"></path></svg>