<svg width="28" height="28" viewBox="0 0 28 28" fill="none" xmlns="http://www.w3.org/2000/svg"><path d="M7.373 1.814 C 6.659 1.841,6.584 1.853,6.342 1.972 C 6.010 2.135,5.587 2.575,5.428 2.922 C 5.333 3.129,5.298 3.301,5.269 3.705 C 5.221 4.380,5.221 23.618,5.269 24.292 C 5.317 24.954,5.463 25.289,5.877 25.683 C 6.258 26.047,6.571 26.180,7.163 26.230 C 7.770 26.281,20.225 26.281,20.842 26.230 C 21.456 26.179,21.802 26.022,22.183 25.623 C 22.571 25.216,22.681 24.938,22.735 24.223 C 22.760 23.882,22.772 20.192,22.762 15.286 C 22.744 5.787,22.789 6.704,22.322 6.136 C 21.986 5.728,19.369 3.078,18.719 2.488 C 18.453 2.247,18.135 1.998,18.013 1.937 L 17.792 1.825 12.968 1.805 C 10.314 1.794,7.797 1.798,7.373 1.814 M15.727 5.765 C 15.727 7.903,15.732 8.040,15.816 8.204 C 15.920 8.406,16.109 8.592,16.319 8.698 C 16.451 8.764,16.742 8.773,18.737 8.773 L 21.005 8.773 20.991 16.564 C 20.979 22.880,20.965 24.367,20.916 24.416 C 20.826 24.506,7.174 24.506,7.084 24.416 C 7.035 24.367,7.021 22.553,7.011 14.733 C 7.005 9.440,7.015 4.764,7.035 4.340 L 7.070 3.570 7.327 3.543 C 7.468 3.528,9.416 3.512,11.655 3.508 L 15.727 3.500 15.727 5.765 M19.157 5.367 L 20.789 7.000 19.145 7.000 L 17.500 7.000 17.500 5.367 C 17.500 4.468,17.505 3.733,17.512 3.733 C 17.518 3.733,18.259 4.468,19.157 5.367 M9.217 12.361 C 8.911 12.550,8.773 12.791,8.774 13.128 C 8.776 13.418,8.920 13.692,9.151 13.845 L 9.350 13.977 13.803 13.990 C 16.664 13.998,18.347 13.986,18.511 13.956 C 18.832 13.897,19.027 13.759,19.138 13.515 C 19.295 13.169,19.242 12.791,19.002 12.538 C 18.737 12.258,19.035 12.273,13.991 12.274 C 9.551 12.274,9.351 12.277,9.217 12.361 M9.217 15.861 C 8.911 16.050,8.773 16.291,8.774 16.628 C 8.776 16.918,8.920 17.192,9.151 17.345 L 9.350 17.477 13.803 17.490 C 16.664 17.498,18.347 17.486,18.511 17.456 C 18.832 17.397,19.027 17.259,19.138 17.015 C 19.295 16.669,19.242 16.291,19.002 16.038 C 18.737 15.758,19.035 15.773,13.991 15.774 C 9.551 15.774,9.351 15.777,9.217 15.861 M9.217 19.361 C 8.911 19.550,8.773 19.791,8.774 20.128 C 8.776 20.418,8.920 20.692,9.151 20.845 L 9.350 20.977 13.803 20.990 C 16.664 20.998,18.347 20.986,18.511 20.956 C 18.832 20.897,19.027 20.759,19.138 20.515 C 19.295 20.169,19.242 19.791,19.002 19.538 C 18.737 19.258,19.035 19.273,13.991 19.274 C 9.551 19.274,9.351 19.277,9.217 19.361 " fill="#1A1C1F" stroke="none" fill-rule="evenodd"></path></svg>