<svg xmlns="http://www.w3.org/2000/svg" width="20" height="20" fill="none"><g clip-path="url(#a)"><path fill="#1A1C1F" fill-rule="evenodd" d="M10 2c.25 0 .5.094.687.281l3.032 3A1 1 0 0 1 14 6v1H9.97c-.564 0-1-.438-1-1V4H4v12h4v2H3c-.563 0-1-.438-1-1V3c0-.563.437-1 1-1zm3 6c2.75 0 5 2.25 5 5s-2.25 5-5 5-5-2.25-5-5 2.25-5 5-5m1.324 3.39-1.688 1.719-.774-.806-1.187 1.188 1.961 1.961 2.875-2.875z" clip-rule="evenodd"/></g><defs><clipPath id="a"><path fill="#fff" d="M0 0h20v20H0z"/></clipPath></defs></svg>