<svg xmlns="http://www.w3.org/2000/svg" width="32" height="32" fill="none"><path fill="#1A1C1F" fill-rule="evenodd" d="M4.453 2.16c-.625.258-1.077.701-1.314 1.288l-.126.312v24.48l.124.307a2.41 2.41 0 0 0 1.37 1.331l.32.12 5.036.016c3.561.012 5.12-.001 5.323-.043.893-.186 1.102-1.299.34-1.814l-.193-.13-5.089-.015c-3.611-.01-5.11-.031-5.16-.073-.058-.049-.071-2.125-.071-11.944 0-11.695.002-11.885.103-11.94C5.185 4.018 6.838 4 10.101 4h4.882l.015 2.662.015 2.662.16.227c.088.124.256.276.374.338.206.108.295.111 2.84.127l2.626.015v1.595c0 .994.022 1.65.057 1.744.181.481.762.729 1.296.552.238-.078.552-.423.594-.652.017-.097.025-1.377.016-2.843L22.96 7.76l-.176-.373c-.163-.348-.333-.531-2.48-2.674-2.121-2.117-2.334-2.314-2.677-2.48l-.374-.18-6.24-.012-6.24-.013zm14.454 3.973L20.773 8h-3.76V6.133c0-1.026.006-1.866.014-1.866.007 0 .853.84 1.88 1.866M7.532 14.329c-.322.158-.546.54-.544.924.001.183.171.535.326.678.313.288.228.282 4.191.281 3.433-.001 3.682-.007 3.882-.098.624-.284.799-1.038.361-1.559-.274-.325-.137-.315-4.266-.314-3.366.001-3.794.011-3.95.088m13.622 1.724a7.4 7.4 0 0 0-3.101 1.161c-.476.311-1.531 1.367-1.85 1.853-.52.79-.866 1.62-1.065 2.547-.151.71-.164 1.967-.027 2.666a7.1 7.1 0 0 0 2.315 4.013 6.99 6.99 0 0 0 9.148 0c1.175-1.01 1.941-2.32 2.292-3.92.161-.733.159-2.001-.005-2.762-.312-1.457-.977-2.648-2.05-3.671a6.9 6.9 0 0 0-3.476-1.807c-.508-.102-1.671-.145-2.181-.08m2.179 2.129a5.12 5.12 0 0 1 3.506 3.567c.156.565.167 1.883.02 2.433-.603 2.255-2.591 3.817-4.859 3.817s-4.256-1.562-4.859-3.817c-.147-.55-.136-1.868.02-2.433a5.1 5.1 0 0 1 3.337-3.51c.555-.18.807-.208 1.662-.188.614.015.887.045 1.173.131m-15.801.147c-.322.158-.546.54-.544.924.001.183.171.535.326.678.306.282.316.282 3.204.281 2.504-.001 2.697-.008 2.902-.101.713-.324.762-1.371.082-1.753-.209-.118-.218-.118-3.003-.117-2.461.001-2.813.012-2.967.088m15.935 2.768c-.112.047-.603.5-1.218 1.122l-1.03 1.044-.34-.326c-.187-.18-.424-.362-.527-.405a.97.97 0 0 0-1.311 1.15c.052.193.192.365.811.993.411.417.832.799.936.848.234.112.638.115.843.007.086-.045.818-.749 1.627-1.566 1.309-1.32 1.479-1.511 1.538-1.728.205-.76-.6-1.449-1.329-1.139M7.532 22.328c-.322.16-.546.542-.544.925.001.183.171.535.326.678.3.276.36.282 2.698.281 1.994-.001 2.193-.009 2.39-.099a.99.99 0 0 0 .202-1.697l-.196-.149-2.35-.013c-2.084-.012-2.371-.003-2.526.074"/></svg>