<svg width="20" height="20" viewBox="0 0 20 20" fill="none" xmlns="http://www.w3.org/2000/svg"><path d="M3.283 2.032 C 2.666 2.050,2.646 2.052,2.492 2.143 C 2.321 2.243,2.196 2.383,2.077 2.606 L 2.000 2.749 2.000 9.996 L 2.000 17.243 2.074 17.390 C 2.187 17.617,2.342 17.778,2.560 17.894 L 2.759 18.000 5.380 18.000 L 8.000 18.000 8.000 17.000 L 8.000 16.000 6.000 16.000 L 4.000 16.000 4.000 10.000 L 4.000 4.000 6.481 4.000 L 8.963 4.000 8.973 5.125 C 8.983 6.223,8.985 6.254,9.060 6.406 C 9.160 6.608,9.376 6.825,9.567 6.913 C 9.713 6.982,9.764 6.984,11.862 6.993 L 14.007 7.003 13.993 6.360 C 13.982 5.847,13.968 5.690,13.922 5.583 C 13.881 5.488,13.398 4.985,12.223 3.813 C 11.321 2.913,10.531 2.150,10.470 2.118 C 10.393 2.078,10.224 2.051,9.937 2.031 C 9.489 2.001,4.343 2.001,3.283 2.032 M12.500 8.035 C 11.946 8.084,11.361 8.253,10.827 8.517 C 10.304 8.776,9.899 9.067,9.482 9.483 C 8.773 10.190,8.295 11.077,8.081 12.083 C 8.001 12.461,8.002 13.542,8.082 13.917 C 8.279 14.836,8.671 15.618,9.271 16.292 C 10.022 17.135,10.863 17.630,12.000 17.900 C 12.275 17.965,12.408 17.974,13.000 17.974 C 13.760 17.974,13.989 17.938,14.650 17.709 C 16.037 17.231,17.230 16.034,17.714 14.638 C 18.340 12.831,17.899 10.888,16.550 9.514 C 15.710 8.659,14.640 8.146,13.465 8.036 C 13.047 7.997,12.924 7.997,12.500 8.035 M14.966 12.015 L 15.516 12.567 14.075 14.008 L 12.634 15.450 11.798 14.617 C 11.338 14.158,10.902 13.712,10.827 13.624 L 10.693 13.465 11.271 12.880 L 11.850 12.295 12.247 12.702 L 12.644 13.109 13.475 12.255 C 14.151 11.559,14.316 11.406,14.361 11.431 C 14.392 11.448,14.664 11.711,14.966 12.015 " fill="#1A1C1F" stroke="none" fill-rule="evenodd"></path></svg>