<svg xmlns="http://www.w3.org/2000/svg" width="32" height="32" fill="none"><g clip-path="url(#a)"><path fill="#1A1C1F" fill-rule="evenodd" d="M19.656 2c.594 0 1.157.25 1.594.656l4.094 4.094c.437.438.656 1 .656 1.594V27.75C26 29 25 30 23.75 30H8.25C7 30 6 29 6 27.75V4.25C6 3 7 2 8.25 2zM18 4H8.25a.27.27 0 0 0-.25.25v23.5c0 .125.125.25.25.25h15.5c.125 0 .25-.125.25-.25V10h-5c-.562 0-1-.437-1-1zm2 .219V8h3.781zM10 23c0 .563.438 1 1 1h10c.563 0 1-.437 1-1s-.437-1-1-1H11c-.562 0-1 .438-1 1m0-4c0 .563.438 1 1 1h10c.563 0 1-.437 1-1s-.437-1-1-1H11c-.562 0-1 .438-1 1m0-4c0 .563.438 1 1 1h10c.563 0 1-.437 1-1s-.437-1-1-1H11c-.562 0-1 .438-1 1" clip-rule="evenodd"/></g><defs><clipPath id="a"><path fill="#fff" d="M0 0h32v32H0z"/></clipPath></defs></svg>