<svg width="16" height="16" viewBox="0 0 16 16" fill="none" xmlns="http://www.w3.org/2000/svg"><path d="M2.627 1.625 C 2.135 1.640,2.116 1.642,1.995 1.713 C 1.854 1.796,1.742 1.922,1.657 2.091 L 1.600 2.207 1.606 8.030 L 1.613 13.853 1.720 14.013 C 1.791 14.120,1.880 14.209,1.987 14.280 L 2.147 14.387 4.273 14.394 L 6.400 14.401 6.400 13.600 L 6.400 12.800 4.800 12.800 L 3.200 12.800 3.200 8.000 L 3.200 3.200 5.185 3.200 L 7.170 3.200 7.178 4.100 C 7.186 4.978,7.188 5.003,7.248 5.125 C 7.328 5.286,7.501 5.460,7.653 5.531 C 7.771 5.585,7.811 5.587,9.490 5.594 L 11.206 5.602 11.195 5.088 C 11.186 4.677,11.174 4.552,11.138 4.467 C 11.105 4.391,10.716 3.985,9.779 3.051 C 9.057 2.331,8.426 1.720,8.376 1.695 C 8.314 1.663,8.180 1.641,7.949 1.625 C 7.591 1.600,3.475 1.601,2.627 1.625 M10.013 6.427 C 9.051 6.516,8.128 6.980,7.451 7.715 C 7.227 7.960,6.912 8.430,6.776 8.724 C 6.650 8.997,6.526 9.391,6.463 9.720 C 6.398 10.054,6.398 10.753,6.462 11.080 C 6.755 12.572,7.773 13.740,9.182 14.199 C 9.609 14.338,9.926 14.387,10.400 14.387 C 10.876 14.387,11.190 14.338,11.627 14.196 C 12.248 13.995,12.730 13.696,13.213 13.213 C 13.808 12.618,14.143 11.995,14.323 11.147 C 14.408 10.746,14.408 10.054,14.323 9.653 C 14.146 8.820,13.812 8.190,13.240 7.613 C 12.539 6.905,11.712 6.512,10.747 6.427 C 10.412 6.398,10.332 6.398,10.013 6.427 M10.481 9.398 C 10.517 9.360,10.796 9.087,11.102 8.792 L 11.657 8.257 12.128 8.731 L 12.600 9.204 12.052 9.742 C 11.750 10.038,11.475 10.313,11.441 10.353 L 11.379 10.425 11.982 11.034 L 12.585 11.642 12.112 12.114 L 11.640 12.587 11.028 11.975 L 10.417 11.363 9.807 11.962 L 9.197 12.562 9.125 12.505 C 9.021 12.423,8.267 11.636,8.267 11.609 C 8.267 11.597,8.538 11.324,8.868 11.003 L 9.470 10.420 8.864 9.809 L 8.259 9.199 8.308 9.139 C 8.335 9.107,8.544 8.891,8.772 8.660 L 9.186 8.240 9.801 8.854 L 10.416 9.469 10.481 9.398 " fill="#1A1C1F" stroke="none" fill-rule="evenodd"></path></svg>