<svg xmlns="http://www.w3.org/2000/svg" width="14" height="14" fill="none"><g clip-path="url(#a)"><path fill="#1A1C1F" fill-rule="evenodd" d="M7 1.4c.175 0 .35.066.48.197l2.123 2.1c.131.131.197.306.197.503v.7H6.978a.69.69 0 0 1-.7-.7V2.8H2.8v8.4h2.8v1.4H2.1a.69.69 0 0 1-.7-.7V2.1c0-.394.306-.7.7-.7zm2.1 4.2a3.51 3.51 0 0 1 3.5 3.5 3.51 3.51 0 0 1-3.5 3.5 3.51 3.51 0 0 1-3.5-3.5 3.51 3.51 0 0 1 3.5-3.5m.927 2.373L8.845 9.176l-.542-.564-.83.831 1.372 1.374 2.013-2.013z" clip-rule="evenodd"/></g><defs><clipPath id="a"><path fill="#fff" d="M0 0h14v14H0z"/></clipPath></defs></svg>