<svg width="20" height="20" viewBox="0 0 20 20" fill="none" xmlns="http://www.w3.org/2000/svg"><path d="M5.583 2.030 C 4.766 2.048,4.636 2.058,4.538 2.111 C 4.375 2.200,4.161 2.428,4.075 2.604 L 4.000 2.757 4.000 10.000 L 4.000 17.243 4.074 17.390 C 4.187 17.617,4.342 17.778,4.560 17.894 L 4.759 18.000 10.000 18.000 L 15.241 18.000 15.438 17.895 C 15.664 17.775,15.797 17.637,15.918 17.397 L 16.003 17.230 15.992 11.490 C 15.983 6.907,15.972 5.723,15.937 5.617 C 15.903 5.510,15.661 5.248,14.722 4.305 C 13.441 3.017,12.543 2.157,12.405 2.086 C 12.333 2.049,11.781 2.038,9.417 2.025 C 7.822 2.017,6.097 2.019,5.583 2.030 M10.973 5.125 C 10.983 6.223,10.985 6.254,11.060 6.406 C 11.160 6.608,11.376 6.825,11.567 6.913 C 11.708 6.979,11.781 6.984,12.858 6.994 L 14.000 7.004 14.000 11.502 L 14.000 16.000 10.000 16.000 L 6.000 16.000 6.000 10.000 L 6.000 4.000 8.481 4.000 L 10.963 4.000 10.973 5.125 M8.000 9.983 L 8.000 10.967 10.000 10.967 L 12.000 10.967 12.000 9.983 L 12.000 9.000 10.000 9.000 L 8.000 9.000 8.000 9.983 M8.000 13.000 L 8.000 14.000 10.000 14.000 L 12.000 14.000 12.000 13.000 L 12.000 12.000 10.000 12.000 L 8.000 12.000 8.000 13.000 " fill="#1A1C1F" stroke="none" fill-rule="evenodd"></path></svg>