<svg width="12" height="12" viewBox="0 0 12 12" fill="none" xmlns="http://www.w3.org/2000/svg"><path d="M1.980 1.219 C 1.599 1.230,1.588 1.231,1.495 1.286 C 1.393 1.346,1.318 1.430,1.246 1.564 L 1.200 1.649 1.200 5.998 L 1.200 10.346 1.244 10.434 C 1.312 10.570,1.405 10.667,1.536 10.736 L 1.656 10.800 3.228 10.800 L 4.800 10.800 4.800 10.200 L 4.800 9.600 3.600 9.600 L 2.400 9.600 2.400 6.000 L 2.400 2.400 3.889 2.400 L 5.378 2.400 5.384 3.075 C 5.390 3.734,5.391 3.752,5.436 3.844 C 5.496 3.965,5.626 4.095,5.740 4.148 C 5.828 4.189,5.859 4.190,7.117 4.196 L 8.404 4.202 8.396 3.816 C 8.389 3.508,8.381 3.414,8.353 3.350 C 8.312 3.254,6.391 1.328,6.280 1.270 C 6.230 1.244,6.137 1.229,5.960 1.218 C 5.686 1.200,2.606 1.201,1.980 1.219 M7.510 4.820 C 6.354 4.926,5.333 5.741,4.961 6.853 C 4.850 7.187,4.814 7.415,4.812 7.790 C 4.811 8.156,4.836 8.339,4.933 8.660 C 5.214 9.591,5.954 10.345,6.887 10.649 C 7.208 10.754,7.444 10.790,7.800 10.790 C 8.617 10.788,9.327 10.493,9.912 9.911 C 10.423 9.402,10.710 8.790,10.783 8.052 C 10.838 7.495,10.694 6.829,10.411 6.332 C 10.081 5.754,9.510 5.256,8.906 5.020 C 8.455 4.843,7.989 4.776,7.510 4.820 M7.861 7.049 C 7.888 7.020,8.097 6.815,8.326 6.594 L 8.743 6.193 9.096 6.548 L 9.450 6.903 9.039 7.307 C 8.813 7.528,8.607 7.734,8.581 7.764 L 8.534 7.819 8.987 8.275 L 9.439 8.731 9.084 9.086 L 8.730 9.440 8.271 8.981 L 7.813 8.522 7.356 8.971 C 6.914 9.405,6.897 9.419,6.854 9.391 C 6.796 9.352,6.200 8.728,6.200 8.707 C 6.200 8.697,6.403 8.493,6.651 8.252 L 7.102 7.815 6.648 7.357 L 6.194 6.899 6.231 6.855 C 6.252 6.830,6.408 6.668,6.579 6.495 L 6.890 6.180 7.351 6.641 L 7.812 7.101 7.861 7.049 " fill="#1A1C1F" stroke="none" fill-rule="evenodd"></path></svg>