<svg width="32" height="32" viewBox="0 0 32 32" fill="none" xmlns="http://www.w3.org/2000/svg"><path d="M4.324 2.227 C 3.813 2.480,3.431 2.854,3.196 3.332 L 3.013 3.704 3.013 16.000 L 3.013 28.296 3.191 28.657 C 3.439 29.161,3.840 29.554,4.356 29.801 L 4.773 30.000 9.947 30.000 C 15.444 30.000,15.330 30.005,15.657 29.748 C 15.836 29.607,15.997 29.259,15.999 29.011 C 16.000 28.757,15.803 28.387,15.566 28.198 L 15.372 28.044 10.250 28.009 C 7.433 27.989,5.109 27.953,5.084 27.929 C 5.060 27.904,5.040 22.548,5.040 16.025 C 5.040 6.367,5.053 4.152,5.109 4.096 C 5.165 4.040,6.148 4.023,10.083 4.010 L 14.987 3.993 14.987 6.655 L 14.987 9.318 15.206 9.568 C 15.605 10.021,15.426 9.995,18.387 10.017 L 21.013 10.037 21.015 11.565 C 21.015 12.406,21.037 13.186,21.064 13.299 C 21.204 13.904,22.097 14.184,22.596 13.780 C 23.002 13.451,22.987 13.582,22.987 10.528 L 22.987 7.801 22.792 7.407 C 22.611 7.040,22.443 6.859,20.325 4.747 C 18.672 3.098,17.967 2.429,17.736 2.293 L 17.418 2.107 15.469 2.073 C 14.397 2.054,11.540 2.037,9.120 2.035 L 4.720 2.031 4.324 2.227 M18.907 6.133 L 20.773 8.000 18.893 8.000 L 17.013 8.000 17.013 6.133 C 17.013 5.107,17.019 4.267,17.027 4.267 C 17.034 4.267,17.880 5.107,18.907 6.133 M7.857 14.286 C 7.651 14.307,7.473 14.361,7.381 14.430 C 7.160 14.595,7.013 14.916,7.013 15.235 C 7.013 15.578,7.230 15.921,7.548 16.080 C 7.754 16.184,7.866 16.187,11.529 16.187 L 15.297 16.187 15.529 16.026 C 16.011 15.691,16.125 15.105,15.799 14.640 C 15.523 14.247,15.740 14.267,11.760 14.260 C 9.795 14.256,8.038 14.268,7.857 14.286 M20.587 16.158 C 19.406 16.410,18.319 16.944,17.503 17.671 C 16.971 18.145,16.374 18.803,16.128 19.187 C 15.678 19.887,15.272 20.914,15.116 21.747 C 14.997 22.375,14.996 23.659,15.112 24.269 C 15.749 27.597,18.626 29.984,22.000 29.984 C 25.628 29.984,28.669 27.197,28.962 23.604 C 29.142 21.395,28.286 19.244,26.658 17.809 C 25.650 16.920,24.487 16.345,23.268 16.133 C 22.612 16.018,21.176 16.032,20.587 16.158 M23.216 18.164 C 24.592 18.497,25.866 19.549,26.504 20.880 C 26.883 21.670,26.906 21.789,26.905 23.013 C 26.904 24.115,26.902 24.140,26.752 24.533 C 26.424 25.396,26.008 26.042,25.421 26.599 C 24.766 27.220,24.063 27.615,23.196 27.849 C 22.552 28.023,21.448 28.023,20.804 27.849 C 19.129 27.397,17.901 26.252,17.248 24.533 C 17.098 24.140,17.096 24.115,17.095 23.013 C 17.094 21.755,17.116 21.649,17.557 20.762 C 18.253 19.364,19.806 18.230,21.224 18.085 C 21.767 18.030,22.836 18.072,23.216 18.164 M7.937 18.234 C 7.677 18.264,7.532 18.312,7.396 18.416 C 7.184 18.578,6.987 18.946,6.987 19.180 C 6.987 19.418,7.234 19.869,7.465 20.052 L 7.669 20.213 10.354 20.212 C 11.831 20.211,13.134 20.189,13.249 20.162 C 14.050 19.977,14.239 18.853,13.550 18.376 L 13.344 18.233 10.819 18.213 C 9.430 18.202,8.133 18.212,7.937 18.234 M19.867 20.314 C 19.471 20.498,19.253 20.823,19.253 21.232 C 19.253 21.575,19.366 21.757,19.972 22.389 L 20.546 22.988 19.992 23.562 C 19.334 24.242,19.228 24.431,19.270 24.841 C 19.309 25.216,19.495 25.499,19.800 25.647 C 20.307 25.892,20.629 25.763,21.422 24.997 L 22.002 24.437 22.508 24.927 C 23.201 25.599,23.351 25.705,23.661 25.739 C 23.983 25.774,24.316 25.617,24.554 25.319 C 24.679 25.161,24.718 25.053,24.734 24.813 C 24.753 24.542,24.737 24.479,24.594 24.267 C 24.505 24.135,24.204 23.801,23.926 23.524 L 23.419 23.021 23.978 22.438 C 24.286 22.118,24.584 21.763,24.642 21.650 C 24.772 21.394,24.774 21.104,24.646 20.827 C 24.525 20.563,24.415 20.463,24.086 20.317 C 23.858 20.216,23.801 20.211,23.581 20.266 C 23.275 20.343,23.094 20.476,22.468 21.085 L 21.976 21.563 21.390 20.997 C 20.579 20.213,20.328 20.101,19.867 20.314 M7.774 22.285 C 7.306 22.358,7.013 22.723,7.013 23.235 C 7.013 23.456,7.046 23.557,7.174 23.740 C 7.262 23.865,7.418 24.017,7.521 24.077 C 7.700 24.183,7.785 24.187,10.009 24.187 L 12.311 24.187 12.537 24.027 C 13.100 23.629,13.136 22.822,12.610 22.420 L 12.435 22.287 10.231 22.266 C 9.018 22.255,7.913 22.264,7.774 22.285 " fill="#1A1C1F" stroke="none" fill-rule="evenodd"></path></svg>