<svg width="24" height="24" viewBox="0 0 24 24" fill="none" xmlns="http://www.w3.org/2000/svg"><path d="M3.260 1.995 C 2.701 2.018,2.647 2.028,2.473 2.130 C 2.347 2.204,2.240 2.314,2.143 2.469 L 2.000 2.697 2.002 11.659 C 2.003 16.587,2.018 20.796,2.035 21.011 C 2.064 21.361,2.079 21.416,2.187 21.551 C 2.254 21.633,2.395 21.754,2.501 21.820 L 2.694 21.940 5.978 21.952 L 9.263 21.963 9.501 21.809 C 10.067 21.443,10.151 20.759,9.688 20.282 C 9.570 20.160,9.441 20.071,9.340 20.042 C 9.230 20.010,8.373 19.988,6.590 19.972 L 4.000 19.948 4.000 11.954 L 4.000 3.960 6.498 3.960 L 8.996 3.960 9.008 6.110 C 9.021 8.504,9.003 8.351,9.306 8.654 C 9.613 8.960,9.384 8.939,12.469 8.952 C 15.005 8.963,15.248 8.958,15.369 8.896 C 15.608 8.773,15.746 8.643,15.864 8.430 L 15.980 8.220 15.980 7.480 C 15.979 6.828,15.970 6.721,15.901 6.580 C 15.808 6.390,11.609 2.167,11.413 2.066 C 11.299 2.007,10.906 1.999,7.573 1.985 C 5.531 1.976,3.590 1.981,3.260 1.995 M12.300 5.680 L 13.580 6.960 12.290 6.960 L 11.000 6.960 11.000 5.680 C 11.000 4.976,11.005 4.400,11.010 4.400 C 11.016 4.400,11.596 4.976,12.300 5.680 M14.774 10.123 C 12.681 10.562,10.948 12.118,10.279 14.159 C 10.043 14.880,9.987 15.304,10.010 16.212 C 10.027 16.900,10.042 17.028,10.150 17.442 C 10.448 18.584,10.999 19.527,11.841 20.335 C 12.464 20.933,13.073 21.326,13.830 21.618 C 17.026 22.852,20.610 21.147,21.696 17.876 C 21.931 17.170,21.970 16.908,21.972 16.040 C 21.974 14.922,21.839 14.315,21.379 13.378 C 20.530 11.649,18.832 10.374,17.015 10.100 C 16.429 10.012,15.245 10.024,14.774 10.123 M6.860 11.993 C 6.045 12.104,5.715 13.073,6.296 13.653 C 6.574 13.932,6.609 13.940,7.500 13.940 C 8.259 13.940,8.307 13.935,8.444 13.850 C 9.152 13.410,9.164 12.508,8.467 12.103 C 8.315 12.014,8.245 12.004,7.680 11.986 C 7.339 11.975,6.970 11.978,6.860 11.993 M15.140 14.037 L 16.019 14.920 16.740 14.210 C 17.136 13.819,17.618 13.347,17.810 13.160 L 18.161 12.821 18.690 13.351 L 19.220 13.880 18.150 14.950 L 17.080 16.020 18.150 17.090 L 19.220 18.160 18.690 18.690 L 18.160 19.220 17.090 18.150 L 16.019 17.080 14.960 18.140 L 13.901 19.200 13.370 18.670 L 12.840 18.141 13.897 17.080 L 14.953 16.020 13.896 14.940 L 12.839 13.860 13.359 13.346 L 13.879 12.832 14.070 12.993 C 14.174 13.082,14.656 13.552,15.140 14.037 M6.558 16.077 C 5.948 16.408,5.821 17.183,6.299 17.661 C 6.728 18.091,7.448 18.037,7.783 17.550 C 8.119 17.062,8.004 16.456,7.513 16.131 C 7.370 16.036,7.299 16.019,7.023 16.010 C 6.766 16.002,6.671 16.015,6.558 16.077 " fill="#1A1C1F" stroke="none" fill-rule="evenodd"></path></svg>