<svg xmlns="http://www.w3.org/2000/svg" width="32" height="32" fill="none"><g clip-path="url(#a)"><path fill="#1A1C1F" fill-rule="evenodd" d="M16.656 2c.594 0 1.156.25 1.594.656l4.094 4.094c.437.438.656 1 .656 1.594v4.655c0 .563-.438 1-1 1s-1-.437-1-1V10h-5c-.562 0-1-.438-1-1V4H5.25a.27.27 0 0 0-.25.25v23.5c0 .125.125.25.25.25H15c.562 0 1 .437 1 1s-.438 1-1 1H5.25C4 30 3 29 3 27.75V4.25C3 3 4 2 5.25 2zM22 16c3.875 0 7 3.125 7 7s-3.125 7-7 7-7-3.125-7-7 3.125-7 7-7m0 2c-2.75 0-5 2.25-5 5s2.25 5 5 5 5-2.25 5-5-2.25-5-5-5m1.861 3.014a.973.973 0 0 1 .693 1.657l-2.652 2.67a.973.973 0 0 1-1.378 0l-1.239-1.238a.974.974 0 0 1 1.375-1.376l.548.547 1.962-1.972a.97.97 0 0 1 .691-.288M12 22.207c.562 0 1 .437 1 1s-.438 1-1 1H8c-.562 0-1-.438-1-1s.438-1 1-1zm1-4c.562 0 1 .437 1 1s-.438 1-1 1H8c-.562 0-1-.438-1-1s.438-1 1-1zm2-4c.562 0 1 .437 1 1s-.438 1-1 1H8c-.562 0-1-.438-1-1s.438-1 1-1zm2-9.988V8h3.781z" clip-rule="evenodd"/></g><defs><clipPath id="a"><path fill="#fff" d="M0 0h32v32H0z"/></clipPath></defs></svg>