<svg xmlns="http://www.w3.org/2000/svg" width="28" height="28" fill="none"><g clip-path="url(#a)"><path fill="#1A1C1F" fill-rule="evenodd" d="M17.2 1.75c.519 0 1.01.219 1.394.574l3.582 3.582c.383.383.574.875.574 1.395v16.98a1.96 1.96 0 0 1-1.969 1.969H7.22a1.96 1.96 0 0 1-1.969-1.969V3.72A1.96 1.96 0 0 1 7.219 1.75zM15.75 3.5H7.219c-.11 0-.219.11-.219.219V24.28c0 .11.11.219.219.219H20.78c.11 0 .219-.11.219-.219V8.75h-4.375a.864.864 0 0 1-.875-.875zm1.75.191V7h3.309zM8.75 20.125c0 .492.383.875.875.875h8.75a.864.864 0 0 0 .875-.875.864.864 0 0 0-.875-.875h-8.75a.864.864 0 0 0-.875.875m0-3.5c0 .492.383.875.875.875h8.75a.864.864 0 0 0 .875-.875.864.864 0 0 0-.875-.875h-8.75a.864.864 0 0 0-.875.875m0-3.5c0 .492.383.875.875.875h8.75a.864.864 0 0 0 .875-.875.864.864 0 0 0-.875-.875h-8.75a.864.864 0 0 0-.875.875" clip-rule="evenodd"/></g><defs><clipPath id="a"><path fill="#fff" d="M0 0h28v28H0z"/></clipPath></defs></svg>