<svg xmlns="http://www.w3.org/2000/svg" width="20" height="20" fill="none"><g clip-path="url(#a)"><path fill="#1A1C1F" fill-rule="evenodd" d="M16 12c.531 0 1 .438 1 1v2a3 3 0 0 1-3 3H6a3 3 0 0 1-3-3v-2c0-.562.469-1 1-1 .563 0 1 .438 1 1v2c0 .531.438 1 1 1h8c.563 0 1-.469 1-1v-2c0-.562.438-1 1-1M10 2c.563 0 1 .469 1 1v6.594l1.281-1.281C12.5 8.092 12.687 8 13 8c.563 0 1 .469 1 1 0 .188-.062.438-.219.625l-3.062 3.094c-.219.187-.438.281-.688.281s-.5-.094-.719-.281l-3.03-3A.97.97 0 0 1 6 9.03C6 8.437 6.531 8 7.031 8c.25 0 .5.094.688.313L9 9.593V3c0-.531.438-1 1-1" clip-rule="evenodd"/></g><defs><clipPath id="a"><path fill="#fff" d="M0 0h20v20H0z"/></clipPath></defs></svg>