<svg xmlns="http://www.w3.org/2000/svg" width="32" height="32" fill="none"><path fill="#1A1C1F" fill-rule="evenodd" d="M15.507 2.137a1.1 1.1 0 0 0-.347.327l-.147.222-.026 7.946-.027 7.946-2.133-2.17q-2.133-2.17-2.351-2.276a1.13 1.13 0 0 0-1.013.027c-.397.233-.559.781-.367 1.243.101.244 6.066 6.242 6.413 6.448a.98.98 0 0 0 .948.026c.308-.16 6.343-6.219 6.448-6.474.191-.463.029-1.01-.368-1.243a1.13 1.13 0 0 0-1.014-.027c-.146.07-.923.823-2.35 2.276l-2.133 2.17-.027-7.946-.026-7.946-.147-.222c-.276-.417-.882-.565-1.333-.327M4.665 20.057c-.202.058-.498.342-.593.568-.11.263-.103 6.569.008 7.041.249 1.058 1.06 1.907 2.133 2.236.306.094.75.098 9.814.098h9.493l.386-.141c.212-.078.5-.208.64-.289.395-.229.921-.797 1.122-1.211.335-.694.336-.703.32-4.376l-.015-3.324-.127-.186c-.354-.516-1.036-.615-1.508-.218-.346.291-.335.183-.365 3.829l-.026 3.311-.154.202a1.2 1.2 0 0 1-.373.301c-.212.096-.548.1-9.42.1s-9.208-.004-9.42-.1a1.2 1.2 0 0 1-.373-.301l-.154-.202-.026-3.311c-.021-2.573-.043-3.346-.097-3.471-.208-.474-.742-.709-1.265-.556"/></svg>