<svg xmlns="http://www.w3.org/2000/svg" width="28" height="28" fill="none"><g clip-path="url(#a)"><path fill="#1A1C1F" fill-rule="evenodd" d="M3.5 18.375c0-.492.383-.875.875-.875s.875.383.875.875v5.25c0 .492.383.875.875.875h15.75a.864.864 0 0 0 .875-.875v-5.25c0-.492.383-.875.875-.875s.875.383.875.875v5.25a2.626 2.626 0 0 1-2.625 2.625H6.125A2.626 2.626 0 0 1 3.5 23.625zm4.621-4.648a.85.85 0 0 1-.246-.602c0-.437.3-.875.875-.875.219 0 .438.082.629.246l3.746 3.774V2.625c0-.492.383-.875.875-.875s.875.383.875.875V16.27l3.746-3.774a.96.96 0 0 1 .629-.246c.52 0 .875.383.875.875a.96.96 0 0 1-.246.629l-5.25 5.25a.96.96 0 0 1-.629.246.85.85 0 0 1-.602-.246z" clip-rule="evenodd"/></g><defs><clipPath id="a"><path fill="#fff" d="M0 0h28v28H0z"/></clipPath></defs></svg>