<svg width="24" height="24" viewBox="0 0 24 24" fill="none" xmlns="http://www.w3.org/2000/svg"><path d="M11.748 2.039 C 11.530 2.081,11.280 2.276,11.130 2.523 L 11.000 2.736 11.000 6.742 C 11.000 8.945,10.988 11.155,10.974 11.653 L 10.947 12.559 9.783 11.408 C 8.454 10.094,8.411 10.063,7.945 10.086 C 7.705 10.098,7.617 10.123,7.457 10.222 C 7.195 10.383,7.040 10.639,7.011 10.953 C 6.972 11.384,6.946 11.353,9.297 13.704 C 10.465 14.872,11.483 15.861,11.560 15.901 C 11.753 16.001,12.246 16.002,12.440 15.901 C 12.606 15.815,16.690 11.736,16.855 11.491 C 17.147 11.060,16.970 10.451,16.477 10.182 C 16.192 10.027,15.833 10.018,15.561 10.158 C 15.447 10.217,14.950 10.680,14.192 11.431 L 13.003 12.611 12.991 7.676 C 12.983 3.894,12.969 2.714,12.931 2.630 C 12.847 2.442,12.563 2.168,12.387 2.105 C 12.169 2.027,11.937 2.003,11.748 2.039 M3.748 14.039 C 3.530 14.081,3.280 14.277,3.128 14.524 L 2.996 14.740 3.011 17.140 C 3.027 19.710,3.020 19.616,3.238 20.159 C 3.436 20.652,3.923 21.224,4.411 21.536 C 4.840 21.810,5.182 21.919,5.751 21.960 C 6.415 22.009,17.585 22.009,18.249 21.960 C 18.818 21.919,19.160 21.810,19.589 21.536 C 20.077 21.224,20.564 20.652,20.762 20.159 C 20.980 19.616,20.973 19.710,20.989 17.140 L 21.004 14.740 20.872 14.520 C 20.719 14.267,20.424 14.065,20.147 14.023 C 19.747 13.963,19.314 14.173,19.122 14.521 L 19.024 14.698 18.995 16.979 C 18.977 18.455,18.951 19.300,18.923 19.373 C 18.848 19.568,18.672 19.763,18.463 19.883 L 18.260 19.999 12.000 19.999 L 5.740 19.999 5.537 19.883 C 5.327 19.763,5.152 19.568,5.077 19.373 C 5.049 19.300,5.023 18.448,5.004 16.976 L 4.975 14.692 4.869 14.512 C 4.762 14.329,4.559 14.147,4.393 14.086 C 4.245 14.031,3.913 14.007,3.748 14.039 " fill="#1A1C1F" stroke="none" fill-rule="evenodd"></path></svg>