<svg xmlns="http://www.w3.org/2000/svg" width="12" height="12" fill="none"><g clip-path="url(#a)"><path fill="#1A1C1F" fill-rule="evenodd" d="M9.6 7.2c.319 0 .6.263.6.6V9a1.8 1.8 0 0 1-1.8 1.8H3.6A1.8 1.8 0 0 1 1.8 9V7.8c0-.337.281-.6.6-.6.337 0 .6.263.6.6V9c0 .319.262.6.6.6h4.8c.337 0 .6-.281.6-.6V7.8c0-.337.262-.6.6-.6M6 1.2c.337 0 .6.281.6.6v3.956l.769-.768A.54.54 0 0 1 7.8 4.8c.337 0 .6.281.6.6a.6.6 0 0 1-.131.375L6.43 7.631a.62.62 0 0 1-.412.169.66.66 0 0 1-.432-.169l-1.818-1.8A.58.58 0 0 1 3.6 5.42c0-.356.319-.619.619-.619.15 0 .3.056.412.188l.769.768V1.8c0-.319.262-.6.6-.6" clip-rule="evenodd"/></g><defs><clipPath id="a"><path fill="#fff" d="M0 0h12v12H0z"/></clipPath></defs></svg>