<svg width="12" height="12" viewBox="0 0 12 12" fill="none" xmlns="http://www.w3.org/2000/svg"><path d="M5.870 1.218 C 5.692 1.264,5.527 1.402,5.447 1.570 L 5.400 1.670 5.400 3.707 L 5.400 5.744 4.969 5.324 C 4.704 5.065,4.506 4.887,4.453 4.861 C 4.328 4.801,4.105 4.804,3.967 4.868 C 3.688 4.998,3.547 5.301,3.629 5.591 C 3.662 5.710,3.666 5.714,4.647 6.691 C 5.764 7.805,5.746 7.791,6.020 7.789 C 6.136 7.788,6.190 7.777,6.260 7.741 C 6.356 7.691,7.792 6.281,8.124 5.910 C 8.358 5.649,8.388 5.592,8.388 5.400 C 8.387 5.218,8.355 5.135,8.230 5.003 C 8.082 4.844,7.858 4.772,7.660 4.820 C 7.525 4.852,7.429 4.931,6.976 5.377 L 6.601 5.745 6.596 3.697 C 6.590 1.772,6.588 1.645,6.554 1.573 C 6.500 1.458,6.351 1.310,6.244 1.264 C 6.135 1.217,5.957 1.195,5.870 1.218 M2.270 7.218 C 2.092 7.264,1.927 7.402,1.847 7.570 C 1.800 7.670,1.800 7.671,1.800 8.477 L 1.800 9.284 1.872 9.502 C 2.075 10.110,2.480 10.517,3.092 10.726 L 3.310 10.800 6.004 10.800 L 8.698 10.800 8.920 10.722 C 9.258 10.603,9.416 10.504,9.660 10.260 C 9.907 10.013,10.011 9.845,10.124 9.511 L 10.199 9.290 10.199 8.509 C 10.200 7.571,10.201 7.577,10.012 7.388 C 9.864 7.240,9.788 7.213,9.549 7.223 C 9.400 7.229,9.377 7.236,9.273 7.306 C 9.198 7.355,9.133 7.421,9.084 7.496 L 9.010 7.610 8.998 8.380 L 8.986 9.150 8.934 9.252 C 8.868 9.381,8.716 9.520,8.588 9.565 C 8.497 9.598,8.323 9.600,6.000 9.600 C 3.180 9.600,3.404 9.614,3.208 9.434 C 3.013 9.257,3.015 9.267,3.004 8.402 C 2.994 7.574,2.997 7.595,2.858 7.418 C 2.742 7.271,2.449 7.171,2.270 7.218 " fill="#1A1C1F" stroke="none" fill-rule="evenodd"></path></svg>