<svg width="16" height="16" viewBox="0 0 16 16" fill="none" xmlns="http://www.w3.org/2000/svg"><path d="M7.827 1.624 C 7.592 1.685,7.382 1.859,7.267 2.089 L 7.200 2.224 7.200 4.941 L 7.200 7.659 6.626 7.098 C 6.272 6.753,6.008 6.516,5.937 6.482 C 5.770 6.401,5.474 6.405,5.289 6.491 C 4.918 6.664,4.729 7.069,4.838 7.455 C 4.883 7.613,4.888 7.618,6.196 8.922 C 7.685 10.406,7.660 10.387,8.027 10.385 C 8.182 10.384,8.253 10.370,8.347 10.321 C 8.426 10.280,8.825 9.903,9.517 9.216 C 10.658 8.082,11.038 7.680,11.126 7.510 C 11.209 7.353,11.208 7.047,11.126 6.877 C 10.987 6.593,10.706 6.417,10.387 6.415 C 10.097 6.413,10.029 6.459,9.375 7.097 L 8.802 7.657 8.794 4.929 C 8.787 2.362,8.784 2.194,8.738 2.097 C 8.667 1.944,8.468 1.746,8.326 1.685 C 8.181 1.623,7.943 1.594,7.827 1.624 M3.027 9.623 C 2.790 9.686,2.582 9.859,2.467 10.089 L 2.400 10.224 2.400 11.301 L 2.400 12.379 2.497 12.669 C 2.766 13.480,3.307 14.023,4.123 14.301 L 4.413 14.401 8.005 14.400 L 11.597 14.400 11.893 14.296 C 12.344 14.137,12.554 14.006,12.880 13.680 C 13.209 13.351,13.348 13.127,13.498 12.681 L 13.598 12.387 13.599 11.345 C 13.600 10.133,13.598 10.116,13.385 9.883 C 13.187 9.667,13.071 9.619,12.764 9.631 C 12.529 9.639,12.507 9.646,12.369 9.737 C 12.277 9.799,12.183 9.893,12.118 9.991 L 12.013 10.147 11.997 11.173 L 11.981 12.200 11.912 12.336 C 11.874 12.411,11.782 12.527,11.708 12.594 C 11.461 12.815,11.738 12.800,8.000 12.800 C 4.244 12.800,4.537 12.817,4.281 12.583 C 4.017 12.341,4.020 12.358,4.007 11.203 C 3.994 10.097,3.998 10.127,3.812 9.891 C 3.654 9.692,3.267 9.560,3.027 9.623 " fill="#1A1C1F" stroke="none" fill-rule="evenodd"></path></svg>