<svg width="28" height="28" viewBox="0 0 28 28" fill="none" xmlns="http://www.w3.org/2000/svg"><path d="M13.650 1.843 C 13.456 1.934,13.378 2.004,13.236 2.212 L 13.113 2.393 13.107 8.325 C 13.103 11.587,13.087 14.693,13.072 15.226 L 13.043 16.196 11.177 14.321 C 9.907 13.045,9.250 12.418,9.123 12.360 C 8.478 12.066,7.802 12.573,7.907 13.273 C 7.937 13.476,7.999 13.550,8.980 14.572 C 10.636 16.299,13.475 19.086,13.652 19.161 C 13.853 19.245,14.146 19.245,14.345 19.162 C 14.520 19.089,17.610 16.054,19.114 14.478 C 20.000 13.550,20.063 13.472,20.093 13.272 C 20.199 12.569,19.522 12.067,18.870 12.363 C 18.734 12.425,18.128 13.003,16.817 14.324 L 14.957 16.196 14.928 15.250 C 14.912 14.729,14.897 11.630,14.893 8.363 C 14.886 1.894,14.904 2.311,14.622 2.044 C 14.355 1.790,13.943 1.705,13.650 1.843 M4.136 17.534 C 4.055 17.546,3.912 17.643,3.779 17.777 L 3.556 17.999 3.524 18.438 C 3.506 18.679,3.500 20.063,3.511 21.513 C 3.532 24.395,3.521 24.275,3.817 24.855 C 4.061 25.333,4.635 25.845,5.180 26.071 C 5.479 26.195,5.506 26.198,6.883 26.231 C 7.653 26.250,11.427 26.267,15.270 26.269 L 22.257 26.273 22.637 26.135 C 23.157 25.945,23.371 25.811,23.729 25.449 C 24.148 25.026,24.392 24.534,24.454 23.987 C 24.479 23.768,24.499 22.366,24.500 20.869 C 24.500 18.584,24.489 18.128,24.432 18.018 C 24.331 17.822,24.059 17.604,23.842 17.545 C 23.443 17.438,22.927 17.692,22.817 18.050 C 22.781 18.166,22.753 19.170,22.730 21.098 C 22.697 23.958,22.696 23.973,22.594 24.116 C 22.538 24.195,22.413 24.309,22.317 24.368 L 22.143 24.477 14.000 24.477 L 5.857 24.477 5.683 24.368 C 5.587 24.309,5.462 24.196,5.406 24.117 C 5.305 23.975,5.304 23.956,5.273 21.052 C 5.238 17.823,5.252 17.956,4.935 17.717 C 4.785 17.604,4.475 17.494,4.340 17.507 C 4.301 17.511,4.210 17.523,4.136 17.534 " fill="#1A1C1F" stroke="none" fill-rule="evenodd"></path></svg>