<svg width="20" height="20" viewBox="0 0 20 20" fill="none" xmlns="http://www.w3.org/2000/svg"><path d="M9.783 2.030 C 9.489 2.106,9.227 2.324,9.084 2.611 L 9.000 2.780 9.000 6.177 L 9.000 9.574 8.282 8.873 C 7.840 8.441,7.510 8.145,7.422 8.102 C 7.213 8.001,6.842 8.007,6.611 8.114 C 6.149 8.329,5.911 8.837,6.048 9.320 C 6.103 9.516,6.111 9.524,7.745 11.153 C 9.606 13.008,9.575 12.983,10.033 12.981 C 10.228 12.980,10.316 12.962,10.433 12.902 C 10.532 12.851,11.036 12.374,11.913 11.504 C 13.316 10.110,13.794 9.602,13.910 9.383 C 14.011 9.191,14.010 8.807,13.907 8.597 C 13.702 8.176,13.202 7.929,12.766 8.033 C 12.542 8.087,12.382 8.218,11.626 8.961 L 11.002 9.575 10.993 6.162 C 10.982 2.320,11.006 2.646,10.717 2.338 C 10.633 2.247,10.494 2.144,10.407 2.107 C 10.226 2.029,9.928 1.992,9.783 2.030 M3.783 12.030 C 3.488 12.107,3.227 12.324,3.084 12.611 L 3.000 12.780 3.000 14.126 L 3.000 15.473 3.121 15.837 C 3.458 16.851,4.133 17.529,5.153 17.877 L 5.517 18.001 10.000 18.000 L 14.483 18.000 14.854 17.873 C 15.416 17.680,15.690 17.510,16.100 17.100 C 16.511 16.689,16.685 16.409,16.873 15.852 L 16.998 15.483 16.999 14.181 C 17.000 12.666,16.997 12.645,16.731 12.354 C 16.484 12.084,16.338 12.024,15.955 12.038 C 15.660 12.049,15.635 12.056,15.454 12.176 C 15.331 12.258,15.221 12.369,15.141 12.493 L 15.017 12.683 14.997 13.967 L 14.977 15.250 14.890 15.420 C 14.843 15.514,14.728 15.659,14.635 15.742 C 14.327 16.019,14.673 16.000,10.000 16.000 C 5.305 16.000,5.672 16.021,5.351 15.729 C 5.021 15.427,5.025 15.448,5.008 14.003 L 4.993 12.750 4.891 12.557 C 4.778 12.342,4.667 12.235,4.434 12.117 C 4.264 12.031,3.943 11.988,3.783 12.030 " fill="#1A1C1F" stroke="none" fill-rule="evenodd"></path></svg>