<svg xmlns="http://www.w3.org/2000/svg" width="16" height="16" fill="none"><g clip-path="url(#a)"><path fill="#1A1C1F" fill-rule="evenodd" d="M12.8 9.6c.425 0 .8.35.8.8V12a2.4 2.4 0 0 1-2.4 2.4H4.8A2.4 2.4 0 0 1 2.4 12v-1.6c0-.45.375-.8.8-.8.45 0 .8.35.8.8V12c0 .425.35.8.8.8h6.4c.45 0 .8-.375.8-.8v-1.6c0-.45.35-.8.8-.8M8 1.6c.45 0 .8.375.8.8v5.275L9.825 6.65c.175-.175.325-.25.575-.25.45 0 .8.375.8.8 0 .15-.05.35-.175.5l-2.45 2.475c-.175.15-.35.225-.55.225a.88.88 0 0 1-.575-.225l-2.425-2.4a.78.78 0 0 1-.225-.55c0-.475.425-.825.825-.825.2 0 .4.075.55.25L7.2 7.675V2.4c0-.425.35-.8.8-.8" clip-rule="evenodd"/></g><defs><clipPath id="a"><path fill="#fff" d="M0 0h16v16H0z"/></clipPath></defs></svg>