<svg width="14" height="14" viewBox="0 0 14 14" fill="none" xmlns="http://www.w3.org/2000/svg"><path d="M6.848 1.421 C 6.641 1.474,6.448 1.636,6.355 1.832 L 6.300 1.948 6.300 4.325 L 6.300 6.701 5.798 6.211 C 5.488 5.909,5.257 5.702,5.195 5.672 C 5.049 5.601,4.789 5.605,4.628 5.680 C 4.303 5.831,4.138 6.185,4.233 6.523 C 4.272 6.661,4.277 6.666,5.421 7.807 C 6.723 9.104,6.700 9.086,7.023 9.086 C 7.161 9.086,7.221 9.074,7.303 9.032 C 7.372 8.996,7.718 8.670,8.315 8.076 C 9.290 7.107,9.659 6.716,9.737 6.568 C 9.808 6.434,9.807 6.165,9.735 6.018 C 9.591 5.723,9.241 5.550,8.936 5.623 C 8.779 5.661,8.667 5.752,8.138 6.273 L 7.701 6.702 7.695 4.314 C 7.689 2.067,7.686 1.920,7.646 1.835 C 7.583 1.701,7.410 1.528,7.285 1.475 C 7.158 1.420,6.950 1.395,6.848 1.421 M2.648 8.421 C 2.440 8.475,2.248 8.636,2.155 8.832 C 2.101 8.948,2.100 8.950,2.100 9.890 L 2.100 10.831 2.185 11.086 C 2.421 11.797,2.903 12.279,3.614 12.515 L 3.869 12.600 7.004 12.600 L 10.138 12.600 10.398 12.511 C 10.791 12.376,10.983 12.257,11.270 11.970 C 11.558 11.682,11.679 11.486,11.811 11.096 L 11.898 10.838 11.899 9.927 C 11.900 8.866,11.898 8.852,11.712 8.648 C 11.539 8.458,11.437 8.417,11.168 8.427 C 10.962 8.435,10.944 8.439,10.818 8.523 C 10.731 8.581,10.655 8.658,10.598 8.745 L 10.512 8.878 10.497 9.777 L 10.483 10.675 10.423 10.794 C 10.390 10.860,10.309 10.961,10.244 11.020 C 10.029 11.213,10.271 11.200,7.000 11.200 C 3.714 11.200,3.970 11.215,3.746 11.010 C 3.514 10.798,3.517 10.812,3.505 9.802 L 3.495 8.925 3.424 8.790 C 3.344 8.639,3.267 8.564,3.104 8.482 C 2.985 8.422,2.760 8.391,2.648 8.421 " fill="#1A1C1F" stroke="none" fill-rule="evenodd"></path></svg>