<svg width="32" height="32" viewBox="0 0 32 32" fill="none" xmlns="http://www.w3.org/2000/svg"><path d="M15.600 2.106 C 15.378 2.210,15.289 2.290,15.127 2.528 L 14.987 2.735 14.979 9.541 C 14.975 13.284,14.957 16.833,14.939 17.428 L 14.907 18.510 12.788 16.380 C 11.317 14.902,10.598 14.216,10.438 14.139 C 9.700 13.782,8.915 14.358,9.037 15.169 C 9.071 15.401,9.142 15.486,10.262 16.654 C 12.155 18.627,15.400 21.813,15.603 21.898 C 15.838 21.996,16.168 21.994,16.410 21.892 C 16.541 21.838,17.552 20.861,19.517 18.892 C 21.120 17.287,22.547 15.835,22.688 15.667 C 22.887 15.430,22.952 15.306,22.973 15.126 C 23.061 14.344,22.293 13.799,21.567 14.129 C 21.412 14.199,20.714 14.866,19.220 16.370 L 17.093 18.510 17.061 17.455 C 17.043 16.875,17.025 13.333,17.021 9.584 C 17.013 2.162,17.033 2.642,16.711 2.336 C 16.406 2.046,15.935 1.949,15.600 2.106 M4.727 20.039 C 4.635 20.053,4.471 20.164,4.319 20.316 L 4.065 20.570 4.027 21.072 C 4.007 21.348,3.999 22.929,4.011 24.587 L 4.033 27.600 4.167 27.953 C 4.350 28.434,4.528 28.723,4.838 29.046 C 5.188 29.411,5.608 29.682,6.086 29.853 L 6.480 29.994 15.947 30.015 L 25.413 30.037 25.859 29.873 C 26.466 29.651,26.708 29.499,27.119 29.084 C 27.598 28.601,27.877 28.039,27.948 27.413 C 27.976 27.164,27.999 25.561,28.000 23.851 C 28.000 21.239,27.988 20.717,27.923 20.592 C 27.807 20.367,27.496 20.119,27.248 20.052 C 26.792 19.929,26.202 20.219,26.076 20.629 C 26.035 20.762,26.003 21.908,25.977 24.112 C 25.939 27.380,25.939 27.397,25.822 27.561 C 25.758 27.652,25.615 27.782,25.506 27.850 L 25.307 27.973 16.000 27.973 L 6.693 27.973 6.494 27.850 C 6.385 27.782,6.243 27.652,6.178 27.561 C 6.062 27.398,6.061 27.383,6.026 24.058 C 5.987 20.368,6.003 20.522,5.640 20.248 C 5.468 20.118,5.114 19.993,4.960 20.008 C 4.916 20.013,4.811 20.026,4.727 20.039 " fill="#1A1C1F" stroke="none" fill-rule="evenodd"></path></svg>