<svg xmlns="http://www.w3.org/2000/svg" width="14" height="14" fill="none"><g clip-path="url(#a)"><path fill="#1A1C1F" fill-rule="evenodd" d="M11.2 8.4c.372 0 .7.306.7.7v1.4a2.1 2.1 0 0 1-2.1 2.1H4.2a2.1 2.1 0 0 1-2.1-2.1V9.1c0-.394.328-.7.7-.7.394 0 .7.306.7.7v1.4c0 .372.306.7.7.7h5.6c.394 0 .7-.328.7-.7V9.1c0-.394.306-.7.7-.7M7 1.4c.394 0 .7.328.7.7v4.616l.897-.897c.153-.153.284-.219.503-.219.394 0 .7.328.7.7a.7.7 0 0 1-.153.437L7.503 8.903a.72.72 0 0 1-.481.197.77.77 0 0 1-.503-.197l-2.122-2.1a.68.68 0 0 1-.197-.481c0-.416.372-.722.722-.722a.62.62 0 0 1 .481.219l.897.897V2.1c0-.372.306-.7.7-.7" clip-rule="evenodd"/></g><defs><clipPath id="a"><path fill="#fff" d="M0 0h14v14H0z"/></clipPath></defs></svg>