<svg xmlns="http://www.w3.org/2000/svg" width="24" height="24" fill="none"><g clip-path="url(#a)"><path fill="#1A1C1F" fill-rule="evenodd" d="M6 22h12a3 3 0 0 0 3-3v-4c0-.562-.437-1-1-1s-1 .438-1 1v4c0 .563-.437 1-1 1H6c-.562 0-1-.437-1-1v-4c0-.562-.437-1-1-1s-1 .438-1 1v4a3 3 0 0 0 3 3m6-6c.25 0 .531-.094.719-.28l3.969-3.992a.9.9 0 0 0 .312-.717c0-.53-.437-.966-1-.966-.25 0-.531.093-.719.28L13 12.601V2.998C13 2.437 12.531 2 12 2c-.562 0-1 .437-1 .998V12.6l-2.281-2.276a1.1 1.1 0 0 0-.719-.28c-.562 0-1 .436-1 .997 0 .25.094.5.313.686l3.968 3.991c.188.188.469.281.719.281" clip-rule="evenodd"/></g><defs><clipPath id="a"><path fill="#fff" d="M0 0h24v24H0z"/></clipPath></defs></svg>