<svg width="20" height="20" viewBox="0 0 20 20" fill="none" xmlns="http://www.w3.org/2000/svg"><path d="M4.927 4.030 L 4.471 4.053 4.151 4.212 C 3.623 4.474,3.255 4.894,3.080 5.433 C 3.027 5.597,3.019 5.798,3.008 7.305 L 2.995 8.993 2.873 9.016 C 2.544 9.075,2.236 9.304,2.092 9.597 C 1.966 9.853,1.990 10.078,2.315 11.700 C 2.970 14.972,2.957 14.931,3.414 15.385 C 3.699 15.668,3.930 15.810,4.297 15.930 C 4.511 16.000,4.521 16.000,10.017 16.000 C 15.394 16.000,15.527 15.998,15.712 15.935 C 16.066 15.813,16.308 15.661,16.586 15.385 C 17.045 14.929,17.037 14.955,17.631 11.950 C 18.023 9.968,18.027 9.946,17.955 9.719 C 17.850 9.384,17.492 9.076,17.142 9.018 L 17.000 8.994 16.999 8.272 C 16.999 7.243,16.967 6.984,16.799 6.643 C 16.586 6.209,16.153 5.812,15.698 5.633 C 15.428 5.526,14.893 5.502,12.821 5.501 L 10.925 5.500 10.294 4.852 C 9.795 4.338,9.624 4.184,9.475 4.111 L 9.287 4.019 7.335 4.013 C 6.262 4.010,5.178 4.017,4.927 4.030 M9.299 6.682 C 9.735 7.115,10.032 7.385,10.117 7.423 C 10.240 7.479,10.420 7.484,12.625 7.493 L 15.000 7.503 15.000 8.251 L 15.000 9.000 10.000 9.000 L 5.000 9.000 5.000 7.500 L 5.000 6.000 6.807 6.000 L 8.615 6.000 9.299 6.682 " fill="#1A1C1F" stroke="none" fill-rule="evenodd"></path></svg>