<svg width="12" height="12" viewBox="0 0 12 12" fill="none" xmlns="http://www.w3.org/2000/svg"><path d="M2.928 2.419 C 2.707 2.432,2.673 2.439,2.538 2.504 C 2.184 2.673,1.960 2.919,1.849 3.260 C 1.817 3.358,1.812 3.477,1.805 4.383 L 1.797 5.396 1.723 5.409 C 1.526 5.445,1.342 5.583,1.255 5.758 C 1.181 5.909,1.195 6.052,1.369 6.920 C 1.671 8.434,1.758 8.821,1.823 8.943 C 1.947 9.176,2.235 9.430,2.476 9.521 C 2.676 9.595,3.015 9.602,6.240 9.596 L 9.310 9.590 9.469 9.534 C 9.780 9.424,10.037 9.203,10.171 8.930 C 10.249 8.772,10.294 8.580,10.540 7.360 C 10.728 6.428,10.800 6.039,10.800 5.959 C 10.800 5.861,10.722 5.687,10.640 5.602 C 10.548 5.508,10.405 5.431,10.285 5.411 L 10.200 5.396 10.200 4.940 C 10.200 4.688,10.190 4.413,10.178 4.327 C 10.123 3.927,9.878 3.604,9.490 3.417 C 9.343 3.346,9.309 3.338,9.080 3.320 C 8.942 3.310,8.318 3.301,7.693 3.300 L 6.555 3.300 6.167 2.901 C 5.953 2.682,5.745 2.481,5.704 2.456 L 5.630 2.410 4.400 2.407 C 3.724 2.406,3.061 2.411,2.928 2.419 M5.570 4.002 C 5.842 4.275,5.999 4.418,6.060 4.447 C 6.149 4.490,6.166 4.490,7.575 4.496 L 9.000 4.502 9.000 4.951 L 9.000 5.400 6.000 5.400 L 3.000 5.400 3.000 4.500 L 3.000 3.600 4.085 3.600 L 5.170 3.600 5.570 4.002 M9.448 6.621 C 9.454 6.627,9.380 7.028,9.284 7.511 L 9.108 8.390 5.998 8.395 L 2.888 8.400 2.721 7.545 C 2.629 7.075,2.550 6.675,2.545 6.656 C 2.537 6.625,2.560 6.621,2.773 6.614 C 3.167 6.603,9.436 6.609,9.448 6.621 " fill="#1A1C1F" stroke="none" fill-rule="evenodd"></path></svg>