<svg width="12" height="12" viewBox="0 0 12 12" fill="none" xmlns="http://www.w3.org/2000/svg"><path d="M2.946 2.418 C 2.682 2.432,2.681 2.433,2.490 2.527 C 2.174 2.684,1.953 2.936,1.848 3.260 C 1.816 3.358,1.812 3.479,1.805 4.383 L 1.797 5.396 1.724 5.409 C 1.526 5.445,1.342 5.583,1.255 5.758 C 1.180 5.912,1.194 6.047,1.389 7.020 C 1.777 8.956,1.775 8.949,2.021 9.208 C 2.178 9.373,2.321 9.465,2.543 9.543 L 2.703 9.600 6.008 9.600 C 9.236 9.600,9.316 9.599,9.427 9.561 C 9.640 9.488,9.785 9.396,9.952 9.231 C 10.227 8.957,10.222 8.973,10.579 7.170 C 10.814 5.981,10.816 5.967,10.773 5.831 C 10.710 5.631,10.495 5.446,10.285 5.411 L 10.200 5.396 10.200 4.963 C 10.199 4.346,10.180 4.190,10.080 3.986 C 9.952 3.725,9.692 3.487,9.419 3.380 C 9.257 3.316,8.936 3.301,7.693 3.300 L 6.556 3.300 6.177 2.911 C 5.877 2.604,5.774 2.510,5.685 2.467 L 5.572 2.411 4.391 2.408 C 3.741 2.406,3.091 2.410,2.946 2.418 M5.579 4.009 C 5.841 4.269,6.019 4.431,6.070 4.454 C 6.144 4.487,6.252 4.490,7.575 4.496 L 9.000 4.502 9.000 4.951 L 9.000 5.400 6.000 5.400 L 3.000 5.400 3.000 4.500 L 3.000 3.600 4.084 3.600 L 5.169 3.600 5.579 4.009 " fill="#1A1C1F" stroke="none" fill-rule="evenodd"></path></svg>