<svg xmlns="http://www.w3.org/2000/svg" width="28" height="28" fill="none"><g clip-path="url(#a)"><path fill="#1A1C1F" fill-rule="evenodd" d="M22.74 7.875c1.346 0 2.625 1.07 2.645 2.625l-.02 10.5c0 1.398-1.091 2.6-2.625 2.625H5.24A2.62 2.62 0 0 1 2.615 21V7c0-1.398 1.13-2.625 2.625-2.625h5.688c.193 0 .45.081.618.256l3.245 3.244zM4.365 9.625V21a.88.88 0 0 0 .875.875h17.5a.875.875 0 0 0 .875-.875V10.5a.87.87 0 0 0-.875-.869zm6.2-3.5H5.24A.876.876 0 0 0 4.365 7v.875h7.95z" clip-rule="evenodd"/></g><defs><clipPath id="a"><path fill="#fff" d="M0 0h28v28H0z"/></clipPath></defs></svg>