<svg width="14" height="14" viewBox="0 0 14 14" fill="none" xmlns="http://www.w3.org/2000/svg"><path d="M3.404 2.822 C 3.160 2.837,3.115 2.847,2.960 2.921 C 2.548 3.118,2.286 3.406,2.157 3.803 C 2.119 3.918,2.114 4.057,2.106 5.114 L 2.096 6.295 2.011 6.311 C 1.781 6.353,1.565 6.513,1.465 6.718 C 1.374 6.901,1.391 7.046,1.651 8.342 C 2.004 10.093,2.047 10.282,2.128 10.435 C 2.272 10.706,2.608 11.000,2.899 11.111 C 3.118 11.194,3.553 11.203,7.292 11.195 L 10.885 11.188 11.075 11.115 C 11.436 10.976,11.711 10.733,11.867 10.418 C 11.958 10.234,12.010 10.010,12.297 8.587 C 12.516 7.499,12.600 7.045,12.600 6.953 C 12.600 6.838,12.509 6.635,12.413 6.536 C 12.307 6.426,12.131 6.331,11.995 6.309 L 11.900 6.294 11.900 5.762 C 11.900 5.469,11.889 5.148,11.875 5.048 C 11.810 4.582,11.524 4.205,11.072 3.986 C 10.901 3.904,10.860 3.894,10.593 3.874 C 10.433 3.861,9.704 3.851,8.975 3.851 L 7.648 3.850 7.194 3.385 C 6.945 3.129,6.702 2.895,6.655 2.865 L 6.568 2.812 5.122 2.808 C 4.326 2.806,3.553 2.813,3.404 2.822 M6.509 4.677 C 6.814 4.981,7.022 5.169,7.082 5.196 C 7.168 5.235,7.294 5.239,8.838 5.245 L 10.500 5.252 10.500 5.776 L 10.500 6.300 7.000 6.300 L 3.500 6.300 3.500 5.250 L 3.500 4.200 4.765 4.200 L 6.030 4.200 6.509 4.677 M11.023 7.725 C 11.030 7.732,10.944 8.200,10.831 8.763 L 10.626 9.788 6.998 9.794 L 3.370 9.800 3.176 8.814 C 3.070 8.272,2.978 7.805,2.971 7.777 C 2.959 7.726,2.963 7.725,3.247 7.717 C 3.736 7.703,11.009 7.711,11.023 7.725 " fill="#1A1C1F" stroke="none" fill-rule="evenodd"></path></svg>