<svg xmlns="http://www.w3.org/2000/svg" width="24" height="24" fill="none"><g clip-path="url(#a)"><path fill="#1A1C1F" fill-rule="evenodd" d="M10.5 4c.221 0 .477.08.68.26L12.914 6h5.088c1.326 0 2.5 1.06 2.5 2.5v1.301c.78.423 1.434 1.358 1.29 2.491l-.65 5.553C21 19.04 19.944 20 18.667 20H5.334C3.89 20 3 18.89 2.861 17.845l-.657-5.553A2.5 2.5 0 0 1 3.5 9.8V6.5C3.5 5.175 4.565 4 6 4zm-5.822 7.5c-.286 0-.494.264-.494.5l.653 5.558a.51.51 0 0 0 .497.442h13.332c.303 0 .432-.231.494-.442L19.813 12a.505.505 0 0 0-.458-.5zM10.085 6H6a.5.5 0 0 0-.5.5v3h13.003v-1c0-.245-.188-.5-.5-.5H12.5c-.22 0-.496-.08-.731-.307z" clip-rule="evenodd"/></g><defs><clipPath id="a"><path fill="#fff" d="M0 0h24v24H0z"/></clipPath></defs></svg>