<svg width="24" height="24" viewBox="0 0 24 24" fill="none" xmlns="http://www.w3.org/2000/svg"><path d="M5.340 4.037 C 4.955 4.060,4.809 4.087,4.604 4.172 C 4.231 4.328,3.997 4.491,3.709 4.797 C 3.415 5.108,3.250 5.381,3.115 5.780 L 3.020 6.060 3.020 12.020 L 3.020 17.980 3.145 18.304 C 3.302 18.712,3.490 19.007,3.764 19.276 C 3.997 19.506,4.396 19.760,4.680 19.860 C 5.044 19.988,6.033 20.005,12.560 19.992 L 18.980 19.980 19.273 19.873 C 20.008 19.605,20.586 19.050,20.840 18.371 C 20.989 17.974,21.005 17.344,20.991 12.560 L 20.979 8.020 20.871 7.728 C 20.716 7.308,20.519 7.007,20.206 6.711 C 19.893 6.416,19.613 6.245,19.241 6.120 C 18.984 6.034,18.939 6.033,15.441 6.010 L 11.900 5.988 10.961 5.068 C 10.444 4.562,9.967 4.125,9.899 4.097 C 9.755 4.037,6.129 3.989,5.340 4.037 M9.997 6.892 C 10.494 7.383,10.972 7.829,11.060 7.882 L 11.220 7.980 14.947 8.000 C 18.637 8.020,18.675 8.021,18.785 8.103 C 18.846 8.148,18.914 8.238,18.936 8.303 C 18.963 8.379,18.977 10.026,18.978 13.047 C 18.980 17.663,18.980 17.674,18.897 17.785 C 18.852 17.846,18.762 17.914,18.697 17.937 C 18.534 17.995,5.466 17.995,5.303 17.937 C 5.238 17.914,5.148 17.846,5.103 17.785 C 5.020 17.675,5.020 17.659,5.008 12.547 C 5.002 9.727,5.013 7.153,5.033 6.827 C 5.074 6.158,5.102 6.094,5.387 6.039 C 5.471 6.023,6.340 6.007,7.317 6.005 L 9.095 6.000 9.997 6.892 " fill="#1A1C1F" stroke="none" fill-rule="evenodd"></path></svg>