<svg width="14" height="14" viewBox="0 0 14 14" fill="none" xmlns="http://www.w3.org/2000/svg"><path d="M3.437 2.821 C 3.129 2.838,3.128 2.838,2.905 2.948 C 2.536 3.132,2.279 3.426,2.156 3.803 C 2.119 3.918,2.114 4.058,2.106 5.114 L 2.097 6.295 2.011 6.311 C 1.781 6.353,1.565 6.513,1.465 6.718 C 1.376 6.897,1.393 7.055,1.620 8.190 C 2.069 10.434,2.072 10.442,2.357 10.742 C 2.542 10.936,2.707 11.042,2.967 11.134 L 3.153 11.200 7.010 11.200 C 10.776 11.200,10.869 11.199,10.999 11.154 C 11.246 11.069,11.416 10.962,11.611 10.769 C 11.929 10.453,11.932 10.444,12.351 8.318 C 12.616 6.980,12.618 6.961,12.568 6.803 C 12.495 6.569,12.244 6.353,11.999 6.312 L 11.900 6.296 11.900 5.779 C 11.900 5.068,11.878 4.892,11.759 4.650 C 11.610 4.346,11.308 4.068,10.989 3.943 C 10.800 3.868,10.425 3.851,8.974 3.851 L 7.647 3.850 7.206 3.396 C 6.856 3.037,6.737 2.929,6.633 2.878 L 6.501 2.813 5.123 2.809 C 4.365 2.807,3.606 2.812,3.437 2.821 M6.509 4.677 C 6.814 4.981,7.022 5.169,7.082 5.196 C 7.168 5.235,7.294 5.239,8.838 5.245 L 10.500 5.252 10.500 5.776 L 10.500 6.300 7.000 6.300 L 3.500 6.300 3.500 5.250 L 3.500 4.200 4.765 4.200 L 6.030 4.200 6.509 4.677 " fill="#1A1C1F" stroke="none" fill-rule="evenodd"></path></svg>