<svg xmlns="http://www.w3.org/2000/svg" width="32" height="32" fill="none"><g clip-path="url(#a)"><path fill="#1A1C1F" fill-rule="evenodd" d="M14.5 5c.217 0 .482.067.737.319L18.915 9H25c1.598 0 3 1.29 3 3.027v1.3c.973.495 1.85 1.68 1.595 3.166l-1.33 8A3.004 3.004 0 0 1 25.473 27H6.694a3.01 3.01 0 0 1-2.96-2.507l-1.332-8a3 3 0 0 1 1.597-3.167V8c0-1.598 1.29-3 3-3zM5.322 15.007c-.63.043-1.03.526-.944 1.204l1.33 7.953a1 1 0 0 0 .865.829L25.305 25c.449 0 .902-.328.987-.836l1.327-7.953c.092-.725-.364-1.144-.92-1.204zM14.085 7H7c-.513 0-1 .406-1 1v5h20v-1c0-.513-.425-.963-1-1h-6.5a1.04 1.04 0 0 1-.707-.293z" clip-rule="evenodd"/></g><defs><clipPath id="a"><path fill="#fff" d="M0 0h32v32H0z"/></clipPath></defs></svg>