<svg xmlns="http://www.w3.org/2000/svg" width="32" height="32" fill="none"><g clip-path="url(#a)"><path fill="#1A1C1F" fill-rule="evenodd" d="M25.989 9c1.538 0 3 1.222 3.022 3l-.022 12c0 1.598-1.247 2.972-3 3h-20c-1.598 0-3-1.277-3-3V8c0-1.598 1.29-3 3-3h6.5c.22 0 .514.093.707.293L16.904 9zm-21 2v13c0 .513.418 1 1 1h20a1 1 0 0 0 1-1V12a.993.993 0 0 0-1-.993zm7.085-4H5.989c-.513 0-1 .41-1 1v1h9.085z" clip-rule="evenodd"/></g><defs><clipPath id="a"><path fill="#fff" d="M0 0h32v32H0z"/></clipPath></defs></svg>