<svg width="12" height="12" viewBox="0 0 12 12" fill="none" xmlns="http://www.w3.org/2000/svg"><path d="M2.920 2.419 C 2.744 2.431,2.661 2.446,2.567 2.485 C 2.239 2.620,1.980 2.894,1.865 3.230 L 1.810 3.390 1.810 6.000 L 1.810 8.610 1.859 8.757 C 1.979 9.122,2.290 9.429,2.652 9.541 L 2.810 9.590 6.000 9.590 L 9.190 9.590 9.348 9.541 C 9.716 9.427,10.027 9.116,10.141 8.748 L 10.190 8.590 10.190 6.450 L 10.190 4.310 10.141 4.152 C 10.045 3.841,9.818 3.580,9.510 3.428 C 9.334 3.341,9.323 3.338,9.060 3.320 C 8.912 3.310,8.152 3.301,7.373 3.301 L 5.956 3.300 5.577 2.911 C 5.279 2.605,5.174 2.510,5.086 2.467 L 4.974 2.412 4.062 2.408 C 3.560 2.406,3.046 2.411,2.920 2.419 " fill="#1A1C1F" stroke="none" fill-rule="evenodd"></path></svg>