<svg width="28" height="28" viewBox="0 0 28 28" fill="none" xmlns="http://www.w3.org/2000/svg"><path d="M5.063 4.431 C 4.490 4.466,4.297 4.528,3.827 4.831 C 3.275 5.185,2.955 5.600,2.711 6.277 L 2.610 6.557 2.623 14.047 L 2.637 21.537 2.758 21.848 C 3.014 22.507,3.507 23.054,4.117 23.355 C 4.444 23.517,4.489 23.526,5.181 23.571 C 5.635 23.600,9.131 23.612,14.583 23.604 L 23.263 23.590 23.567 23.481 C 23.930 23.350,24.434 23.024,24.644 22.785 C 24.911 22.481,25.154 22.063,25.260 21.725 L 25.363 21.397 25.363 15.727 L 25.363 10.057 25.260 9.729 C 25.058 9.085,24.530 8.488,23.876 8.165 C 23.524 7.990,23.453 7.972,22.936 7.932 C 22.628 7.908,20.677 7.888,18.600 7.888 L 14.824 7.887 13.257 6.334 C 12.395 5.480,11.587 4.697,11.461 4.595 L 11.232 4.410 8.404 4.405 C 6.849 4.402,5.346 4.413,5.063 4.431 M11.405 6.948 C 11.891 7.435,12.225 7.805,12.207 7.835 C 12.183 7.872,11.087 7.887,8.281 7.887 L 4.387 7.887 4.387 7.385 C 4.387 7.109,4.407 6.811,4.432 6.723 C 4.479 6.559,4.665 6.334,4.830 6.238 C 4.968 6.158,5.789 6.131,8.307 6.122 L 10.571 6.113 11.405 6.948 M20.113 9.654 C 23.450 9.687,23.209 9.658,23.466 10.053 L 23.590 10.243 23.590 15.727 C 23.590 21.197,23.590 21.210,23.493 21.397 C 23.439 21.499,23.306 21.646,23.197 21.723 L 22.999 21.863 15.221 21.876 C 10.943 21.883,6.861 21.872,6.150 21.851 L 4.856 21.814 4.687 21.652 C 4.363 21.340,4.387 21.831,4.387 15.426 L 4.387 9.613 10.768 9.619 C 14.278 9.622,18.483 9.638,20.113 9.654 " fill="#1A1C1F" stroke="none" fill-rule="evenodd"></path></svg>