<svg width="20" height="20" viewBox="0 0 20 20" fill="none" xmlns="http://www.w3.org/2000/svg"><path d="M4.867 4.032 C 4.574 4.051,4.435 4.077,4.278 4.142 C 3.735 4.365,3.279 4.853,3.098 5.404 L 3.017 5.650 3.017 10.000 L 3.017 14.350 3.098 14.596 C 3.293 15.188,3.812 15.707,4.404 15.902 L 4.650 15.983 10.000 15.983 L 15.350 15.983 15.596 15.902 C 16.188 15.707,16.707 15.188,16.902 14.596 L 16.983 14.350 16.983 10.750 L 16.983 7.150 16.902 6.904 C 16.736 6.399,16.348 5.960,15.850 5.713 C 15.561 5.570,15.535 5.563,15.117 5.533 C 14.878 5.516,13.613 5.502,12.305 5.501 L 9.927 5.500 9.295 4.851 C 8.796 4.340,8.623 4.184,8.475 4.111 L 8.287 4.019 6.769 4.013 C 5.933 4.009,5.077 4.018,4.867 4.032 M8.299 6.682 C 8.735 7.115,9.032 7.385,9.117 7.423 C 9.241 7.479,9.438 7.484,12.125 7.493 L 15.000 7.502 15.000 10.751 L 15.000 14.000 10.000 14.000 L 5.000 14.000 5.000 10.000 L 5.000 6.000 6.307 6.000 L 7.615 6.000 8.299 6.682 " fill="#1A1C1F" stroke="none" fill-rule="evenodd"></path></svg>