<svg width="16" height="16" viewBox="0 0 16 16" fill="none" xmlns="http://www.w3.org/2000/svg"><path d="M3.904 3.225 C 3.610 3.242,3.564 3.252,3.384 3.338 C 2.912 3.563,2.613 3.892,2.465 4.347 C 2.422 4.478,2.416 4.636,2.406 5.845 L 2.396 7.196 2.285 7.215 C 2.037 7.256,1.789 7.444,1.674 7.677 C 1.575 7.878,1.594 8.070,1.825 9.227 C 2.230 11.253,2.344 11.761,2.432 11.926 C 2.597 12.236,2.980 12.572,3.313 12.698 C 3.563 12.793,4.061 12.803,8.320 12.795 L 12.413 12.787 12.626 12.712 C 13.040 12.565,13.382 12.271,13.562 11.907 C 13.666 11.696,13.726 11.440,14.053 9.813 C 14.304 8.571,14.400 8.052,14.400 7.946 C 14.400 7.814,14.296 7.583,14.186 7.470 C 14.064 7.344,13.874 7.241,13.713 7.214 L 13.600 7.195 13.600 6.586 C 13.600 5.666,13.548 5.421,13.279 5.061 C 13.110 4.837,12.926 4.688,12.653 4.556 C 12.458 4.462,12.412 4.451,12.107 4.427 C 11.923 4.413,11.091 4.401,10.257 4.401 L 8.740 4.400 8.222 3.868 C 7.937 3.576,7.660 3.309,7.605 3.275 L 7.507 3.213 5.867 3.210 C 4.965 3.208,4.081 3.214,3.904 3.225 M7.427 5.336 C 7.789 5.701,7.998 5.891,8.080 5.930 C 8.199 5.986,8.221 5.987,10.100 5.994 L 12.000 6.002 12.000 6.601 L 12.000 7.200 8.000 7.200 L 4.000 7.200 4.000 6.000 L 4.000 4.800 5.447 4.800 L 6.894 4.800 7.427 5.336 M12.597 8.828 C 12.605 8.836,12.507 9.370,12.378 10.015 L 12.145 11.187 7.998 11.193 L 3.851 11.200 3.628 10.060 C 3.505 9.433,3.399 8.899,3.393 8.874 C 3.382 8.833,3.414 8.827,3.697 8.819 C 4.222 8.804,12.581 8.812,12.597 8.828 " fill="#1A1C1F" stroke="none" fill-rule="evenodd"></path></svg>