<svg xmlns="http://www.w3.org/2000/svg" width="12" height="12" fill="none"><g clip-path="url(#a)"><path fill="#1A1C1F" fill-rule="evenodd" d="M5.432 2.4c.136 0 .267 0 .432.184q.347.356.69.716h2.445c.632 0 1.2.51 1.2 1.2v.9c.355 0 .672.314.588.718q-.25 1.259-.503 2.517c-.106.53-.59.965-1.177.965H2.89c-.54 0-1.092-.422-1.177-.965Q1.46 7.376 1.21 6.118A.603.603 0 0 1 1.8 5.4V3.6c0-.633.521-1.2 1.2-1.2zm4.035 4.2H2.53l.36 1.8h6.217zm-4.29-3H3v1.8h6v-.9h-2.7a.6.6 0 0 1-.432-.184 97 97 0 0 1-.69-.716" clip-rule="evenodd"/></g><defs><clipPath id="a"><path fill="#fff" d="M0 0h12v12H0z"/></clipPath></defs></svg>