<svg xmlns="http://www.w3.org/2000/svg" width="28" height="28" fill="none"><g clip-path="url(#a)"><path fill="#1A1C1F" fill-rule="evenodd" d="M12.687 4.375c.19 0 .422.058.645.28l3.218 3.22h5.325a2.634 2.634 0 0 1 2.626 2.648v1.137c.85.435 1.617 1.47 1.395 2.771l-1.164 7a2.63 2.63 0 0 1-2.443 2.194H5.857a2.634 2.634 0 0 1-2.589-2.193l-1.167-7A2.63 2.63 0 0 1 3.5 11.66V7c0-1.398 1.13-2.625 2.626-2.625zm-8.03 8.756c-.552.037-.902.46-.826 1.054l1.163 6.959a.875.875 0 0 0 .758.725l16.39.006a.885.885 0 0 0 .863-.731l1.162-6.96c.08-.634-.32-1-.805-1.053zm7.667-7.006h-6.2A.874.874 0 0 0 5.25 7v4.375h17.5V10.5c0-.449-.371-.843-.874-.875h-5.688a.9.9 0 0 1-.618-.256z" clip-rule="evenodd"/></g><defs><clipPath id="a"><path fill="#fff" d="M0 0h28v28H0z"/></clipPath></defs></svg>