<svg xmlns="http://www.w3.org/2000/svg" width="32" height="32" fill="none"><path fill="#1A1C1F" fill-rule="evenodd" d="M6.274 5.098c-.797.193-1.572.809-1.924 1.53C4 7.345 4 7.343 4 10.486v2.837l-.227.135c-.521.309-1.025.945-1.241 1.566-.26.746-.266.679.503 5.296.384 2.303.725 4.295.759 4.427.033.132.133.396.222.586.202.437.829 1.077 1.291 1.318.687.358-.039.336 10.693.336 10.687 0 9.991.021 10.67-.322a3.13 3.13 0 0 0 1.41-1.533c.101-.254.309-1.383.854-4.656.395-2.377.719-4.41.718-4.519-.001-.332-.144-.898-.319-1.265-.191-.4-.681-.951-1.063-1.196l-.258-.166-.024-.972c-.026-1.055-.089-1.335-.438-1.93-.219-.374-.717-.837-1.138-1.058-.673-.354-.687-.355-4.278-.356l-3.225-.001-1.948-1.943c-1.071-1.069-2.015-1.969-2.098-2-.101-.038-1.48-.055-4.213-.052-3.313.003-4.121.018-4.376.08m9.698 3.806c1.294 1.291 1.986 1.945 2.12 2 .171.072.648.083 3.55.083 3.715 0 3.734.001 4.046.332.262.276.285.362.285 1.051v.643H6.027v-2.642c0-2.523.004-2.651.105-2.848.111-.219.385-.42.66-.485.093-.022 1.764-.043 3.714-.046l3.545-.005zm11.179 6.257c.226.153.409.421.457.672.027.139-.147 1.305-.617 4.14-.36 2.171-.678 4.063-.708 4.205a1.09 1.09 0 0 1-.603.736c-.204.093-.638.097-9.668.098-10.432.001-9.654.027-10.024-.331a1 1 0 0 1-.226-.33c-.123-.382-1.396-8.226-1.374-8.469a.95.95 0 0 1 .464-.73c.188-.109.202-.11 11.153-.111l10.966-.001z"/></svg>