<svg width="16" height="16" viewBox="0 0 16 16" fill="none" xmlns="http://www.w3.org/2000/svg"><path d="M3.942 3.224 L 3.577 3.243 3.321 3.369 C 2.899 3.579,2.604 3.915,2.464 4.347 C 2.422 4.478,2.415 4.638,2.406 5.845 L 2.396 7.196 2.285 7.215 C 2.037 7.256,1.789 7.444,1.674 7.677 C 1.573 7.882,1.592 8.063,1.852 9.360 C 2.360 11.899,2.369 11.930,2.676 12.260 C 2.875 12.474,3.079 12.610,3.364 12.718 L 3.578 12.800 8.013 12.800 L 12.448 12.800 12.639 12.722 C 12.930 12.604,13.107 12.485,13.306 12.277 C 13.634 11.932,13.639 11.915,14.105 9.560 C 14.419 7.975,14.421 7.957,14.364 7.775 C 14.280 7.508,13.994 7.261,13.713 7.214 L 13.600 7.195 13.600 6.618 C 13.599 5.795,13.573 5.587,13.440 5.316 C 13.268 4.965,12.925 4.651,12.558 4.506 C 12.342 4.421,11.915 4.401,10.256 4.401 L 8.738 4.400 8.235 3.882 C 7.835 3.470,7.700 3.348,7.580 3.289 L 7.429 3.215 5.868 3.210 C 5.009 3.208,4.142 3.214,3.942 3.224 M7.439 5.345 C 7.788 5.692,8.026 5.908,8.093 5.939 C 8.192 5.983,8.336 5.987,10.100 5.994 L 12.000 6.002 12.000 6.601 L 12.000 7.200 8.000 7.200 L 4.000 7.200 4.000 6.000 L 4.000 4.800 5.446 4.800 L 6.892 4.800 7.439 5.345 " fill="#1A1C1F" stroke="none" fill-rule="evenodd"></path></svg>