<svg width="24" height="24" viewBox="0 0 24 24" fill="none" xmlns="http://www.w3.org/2000/svg"><path d="M6.220 4.038 C 5.483 4.060,5.353 4.074,5.160 4.151 C 4.404 4.455,3.901 4.984,3.620 5.772 L 3.480 6.163 3.477 7.992 L 3.474 9.820 3.230 9.981 C 2.804 10.261,2.393 10.882,2.253 11.457 C 2.157 11.849,2.203 12.415,2.600 15.720 C 2.785 17.260,2.913 18.103,3.004 18.372 C 3.232 19.048,3.875 19.651,4.640 19.906 C 4.849 19.975,5.200 19.979,11.956 19.991 L 19.052 20.003 19.361 19.900 C 19.902 19.720,20.365 19.396,20.671 18.983 C 20.915 18.654,21.025 18.392,21.097 17.973 C 21.232 17.182,21.734 12.955,21.785 12.177 C 21.835 11.410,21.612 10.807,21.083 10.277 C 20.916 10.110,20.727 9.936,20.662 9.891 L 20.545 9.810 20.514 8.987 C 20.479 8.054,20.424 7.753,20.219 7.365 C 19.930 6.815,19.449 6.398,18.830 6.158 L 18.500 6.031 15.700 6.010 L 12.900 5.988 11.961 5.068 C 11.444 4.562,10.967 4.126,10.901 4.099 C 10.756 4.040,7.538 3.998,6.220 4.038 M11.038 6.933 C 11.566 7.456,12.042 7.893,12.120 7.928 C 12.242 7.983,12.648 7.994,15.200 8.011 C 17.135 8.024,18.177 8.046,18.248 8.074 C 18.427 8.145,18.456 8.251,18.473 8.910 L 18.489 9.520 12.001 9.520 L 5.514 9.520 5.529 7.910 C 5.537 7.025,5.558 6.268,5.576 6.229 C 5.624 6.127,5.750 6.067,5.980 6.037 C 6.090 6.023,7.061 6.009,8.138 6.006 L 10.096 6.000 11.038 6.933 M19.638 11.658 C 19.762 11.785,19.772 11.816,19.766 12.028 C 19.753 12.454,19.456 15.079,19.216 16.880 C 19.108 17.686,19.062 17.843,18.910 17.926 C 18.800 17.986,9.427 18.028,6.774 17.980 L 5.104 17.950 4.999 17.845 C 4.937 17.783,4.883 17.674,4.868 17.580 C 4.772 16.973,4.310 13.005,4.226 12.067 C 4.206 11.844,4.211 11.828,4.347 11.677 L 4.489 11.520 11.997 11.520 L 19.504 11.520 19.638 11.658 " fill="#1A1C1F" stroke="none" fill-rule="evenodd"></path></svg>