<svg xmlns="http://www.w3.org/2000/svg" width="14" height="14" fill="none"><g clip-path="url(#a)"><path fill="#1A1C1F" fill-rule="evenodd" d="M6.354 2.8a.7.7 0 0 1 .489.214l.804.836h2.852c.739 0 1.404.59 1.4 1.4V6.3c.415 0 .78.384.687.837l-.588 2.938a1.4 1.4 0 0 1-1.372 1.125H3.373a1.4 1.4 0 0 1-1.372-1.125l-.588-2.938A.7.7 0 0 1 2.1 6.3V4.2c0-.738.584-1.4 1.4-1.4zM6.04 4.2H3.5v2.1h7V5.25H7.35a.7.7 0 0 1-.504-.214z" clip-rule="evenodd"/></g><defs><clipPath id="a"><path fill="#fff" d="M0 0h14v14H0z"/></clipPath></defs></svg>