<svg xmlns="http://www.w3.org/2000/svg" width="14" height="14" fill="none"><g clip-path="url(#a)"><path fill="#1A1C1F" fill-rule="evenodd" d="M6.337 2.8c.159 0 .312 0 .505.214q.405.416.804.836h2.853c.738 0 1.4.595 1.4 1.4V6.3c.414 0 .784.366.686.837q-.291 1.47-.588 2.938a1.415 1.415 0 0 1-1.372 1.125H3.372c-.63 0-1.273-.492-1.372-1.125q-.296-1.47-.588-2.938A.704.704 0 0 1 2.1 6.3V4.2c0-.738.608-1.4 1.4-1.4zm4.708 4.9H2.951l.42 2.1h7.253zM6.04 4.2H3.5v2.1h7V5.25h-3.15a.7.7 0 0 1-.505-.215Q6.44 4.618 6.04 4.2" clip-rule="evenodd"/></g><defs><clipPath id="a"><path fill="#fff" d="M0 0h14v14H0z"/></clipPath></defs></svg>