<svg width="28" height="28" viewBox="0 0 28 28" fill="none" xmlns="http://www.w3.org/2000/svg"><path d="M5.997 4.430 C 5.399 4.464,5.153 4.533,4.761 4.782 C 4.244 5.110,3.795 5.684,3.611 6.253 C 3.536 6.484,3.526 6.772,3.511 9.085 L 3.494 11.661 3.265 11.808 C 2.737 12.147,2.230 12.901,2.102 13.536 C 2.021 13.944,2.068 14.295,2.802 18.667 C 3.059 20.194,3.301 21.559,3.342 21.700 C 3.532 22.365,4.106 23.049,4.732 23.359 C 5.047 23.515,5.120 23.531,5.675 23.569 C 6.460 23.622,21.540 23.622,22.325 23.569 C 22.884 23.531,22.952 23.515,23.282 23.353 C 23.730 23.133,24.271 22.605,24.471 22.192 C 24.650 21.823,24.736 21.383,25.336 17.780 C 26.019 13.675,25.985 13.953,25.868 13.478 C 25.815 13.265,25.726 12.993,25.671 12.875 C 25.521 12.557,25.166 12.139,24.825 11.882 L 24.523 11.653 24.495 10.855 C 24.464 9.979,24.403 9.682,24.161 9.225 C 23.967 8.859,23.423 8.356,22.990 8.142 C 22.697 7.997,22.590 7.971,22.120 7.933 C 21.825 7.908,20.452 7.888,19.069 7.887 L 16.554 7.887 14.881 6.231 C 13.960 5.321,13.150 4.538,13.080 4.493 C 12.963 4.416,12.734 4.410,9.755 4.405 C 7.996 4.402,6.305 4.413,5.997 4.430 M13.902 7.713 C 14.790 8.592,15.599 9.375,15.700 9.451 L 15.883 9.590 18.943 9.618 C 21.025 9.638,22.056 9.664,22.169 9.700 C 22.261 9.729,22.391 9.811,22.459 9.881 C 22.671 10.104,22.727 10.308,22.727 10.872 L 22.727 11.387 14.000 11.387 L 5.273 11.387 5.276 9.205 C 5.278 8.005,5.295 6.923,5.316 6.800 C 5.352 6.577,5.508 6.359,5.717 6.238 C 5.856 6.157,6.739 6.131,9.655 6.122 L 12.288 6.113 13.902 7.713 M23.787 13.296 C 23.892 13.372,24.019 13.524,24.076 13.641 L 24.177 13.851 24.057 14.684 C 23.992 15.142,23.727 16.787,23.470 18.340 C 22.957 21.443,22.949 21.472,22.592 21.723 L 22.392 21.863 14.078 21.863 C 7.480 21.863,5.723 21.851,5.568 21.804 C 5.442 21.766,5.315 21.677,5.211 21.556 C 5.070 21.391,5.038 21.303,4.952 20.846 C 4.796 20.005,4.168 16.172,3.994 14.993 C 3.814 13.776,3.819 13.689,4.083 13.401 L 4.239 13.230 4.768 13.204 C 5.059 13.189,9.415 13.173,14.448 13.169 L 23.599 13.160 23.787 13.296 " fill="#1A1C1F" stroke="none" fill-rule="evenodd"></path></svg>