<svg xmlns="http://www.w3.org/2000/svg" width="12" height="12" fill="none"><g clip-path="url(#a)"><path fill="#1A1C1F" fill-rule="evenodd" d="M5.446 2.4c.193 0 .35.106.42.184l.689.716H9c.632 0 1.203.506 1.2 1.2v.9c.355 0 .668.33.588.718l-.504 2.517c-.106.53-.574.965-1.176.965H2.89c-.538 0-1.05-.367-1.176-.965L1.21 6.118A.6.6 0 0 1 1.8 5.4V3.6c0-.633.5-1.2 1.2-1.2zm-.268 1.2H3v1.8h6v-.9H6.3c-.14 0-.3-.048-.433-.184z" clip-rule="evenodd"/></g><defs><clipPath id="a"><path fill="#fff" d="M0 0h12v12H0z"/></clipPath></defs></svg>