<svg xmlns="http://www.w3.org/2000/svg" width="20" height="20" fill="none"><path fill="#1A1C1F" fill-rule="evenodd" d="M4.567 4.052a1.9 1.9 0 0 0-.968.545 1.85 1.85 0 0 0-.533.923C3.002 5.77 3 5.904 3 10s.002 4.23.066 4.48c.096.377.244.632.533.921s.544.437.921.533c.251.064.388.066 5.48.066s5.229-.002 5.48-.066c.377-.096.632-.244.921-.533s.437-.544.533-.921c.064-.248.066-.381.066-3.73s-.002-3.482-.066-3.73a1.83 1.83 0 0 0-.533-.921 1.8 1.8 0 0 0-.501-.376c-.45-.224-.42-.222-3.35-.224l-2.633-.002-.546-.573c-.639-.672-.796-.807-1.019-.874-.233-.071-3.456-.069-3.785.002"/></svg>