<svg width="20" height="20" viewBox="0 0 20 20" fill="none" xmlns="http://www.w3.org/2000/svg"><path d="M4.883 4.031 C 4.522 4.053,4.459 4.067,4.233 4.173 C 3.646 4.448,3.267 4.863,3.081 5.433 C 3.028 5.597,3.020 5.795,3.008 7.305 L 2.995 8.994 2.872 9.016 C 2.544 9.075,2.236 9.304,2.092 9.597 C 1.969 9.848,1.992 10.087,2.281 11.533 C 2.785 14.056,2.930 14.701,3.039 14.905 C 3.246 15.293,3.725 15.717,4.127 15.868 C 4.461 15.993,5.024 16.004,10.417 15.993 L 15.550 15.983 15.800 15.888 C 16.318 15.690,16.733 15.328,16.952 14.883 C 17.087 14.611,17.164 14.276,17.616 12.017 C 18.022 9.986,18.027 9.948,17.956 9.720 C 17.925 9.622,17.849 9.476,17.786 9.394 C 17.658 9.226,17.356 9.048,17.140 9.014 L 17.000 8.991 17.000 8.231 C 17.000 7.813,16.984 7.354,16.964 7.211 C 16.871 6.545,16.464 6.006,15.817 5.695 C 15.572 5.577,15.515 5.564,15.133 5.534 C 14.904 5.516,13.864 5.501,12.821 5.501 L 10.925 5.500 10.278 4.835 C 9.922 4.469,9.575 4.136,9.507 4.093 L 9.383 4.017 7.333 4.012 C 6.206 4.009,5.103 4.018,4.883 4.031 M9.284 6.672 C 9.750 7.142,9.995 7.365,10.100 7.414 C 10.247 7.482,10.298 7.484,12.625 7.493 L 15.000 7.503 15.000 8.251 L 15.000 9.000 10.000 9.000 L 5.000 9.000 5.000 7.500 L 5.000 6.000 6.809 6.000 L 8.619 6.000 9.284 6.672 M15.746 11.035 C 15.756 11.045,15.633 11.713,15.473 12.518 L 15.181 13.983 9.997 13.992 L 4.814 14.000 4.534 12.575 C 4.381 11.791,4.249 11.124,4.241 11.093 C 4.228 11.042,4.267 11.034,4.605 11.024 C 5.232 11.005,15.726 11.015,15.746 11.035 " fill="#1A1C1F" stroke="none" fill-rule="evenodd"></path></svg>