<svg xmlns="http://www.w3.org/2000/svg" width="20" height="20" fill="none"><g clip-path="url(#a)"><path fill="#1A1C1F" fill-rule="evenodd" d="M9.076 4c.323 0 .583.177.7.306L10.923 5.5H15c1.054 0 2.006.844 2 2V9c.592 0 1.114.548.98 1.196l-.838 4.196A2 2 0 0 1 15.179 16H4.82c-.897 0-1.75-.611-1.961-1.608l-.84-4.196A1 1 0 0 1 3 9V6c0-1.054.834-2 2-2zM8.63 6H5l-.001 3h10V7.5h-4.5c-.233 0-.5-.08-.72-.306z" clip-rule="evenodd"/></g><defs><clipPath id="a"><path fill="#fff" d="M0 0h20v20H0z"/></clipPath></defs></svg>