<svg width="32" height="32" viewBox="0 0 32 32" fill="none" xmlns="http://www.w3.org/2000/svg"><path d="M6.827 5.063 C 6.173 5.102,5.882 5.186,5.442 5.465 C 4.851 5.840,4.337 6.496,4.127 7.147 C 4.041 7.410,4.030 7.739,4.013 10.383 L 3.993 13.326 3.732 13.494 C 2.912 14.020,2.294 15.188,2.376 16.053 C 2.464 16.981,3.666 24.264,3.819 24.800 C 4.036 25.559,4.692 26.342,5.408 26.696 C 5.768 26.874,5.851 26.892,6.486 26.936 C 7.393 26.998,24.688 26.997,25.543 26.935 C 26.149 26.891,26.239 26.870,26.609 26.689 C 27.120 26.438,27.739 25.834,27.967 25.362 C 28.171 24.940,28.270 24.437,28.955 20.320 C 29.736 15.628,29.697 15.947,29.563 15.404 C 29.503 15.160,29.401 14.850,29.338 14.715 C 29.166 14.350,28.761 13.874,28.372 13.579 L 28.027 13.318 27.994 12.406 C 27.959 11.404,27.889 11.065,27.613 10.543 C 27.391 10.125,26.769 9.550,26.275 9.305 C 25.939 9.139,25.818 9.110,25.279 9.066 C 24.942 9.038,23.374 9.015,21.793 9.014 L 18.919 9.013 17.006 7.121 C 15.954 6.081,15.028 5.187,14.949 5.135 C 14.815 5.046,14.552 5.040,11.122 5.034 C 9.097 5.030,7.164 5.044,6.827 5.063 M15.888 8.815 C 16.903 9.820,17.827 10.714,17.942 10.801 L 18.152 10.960 21.649 10.992 C 24.029 11.014,25.207 11.044,25.336 11.085 C 25.441 11.119,25.589 11.212,25.667 11.293 C 25.910 11.547,25.973 11.780,25.973 12.425 L 25.973 13.013 16.000 13.013 L 6.027 13.013 6.030 10.520 C 6.032 9.149,6.052 7.912,6.075 7.771 C 6.117 7.517,6.295 7.267,6.533 7.129 C 6.692 7.037,7.702 7.007,11.035 6.996 L 14.043 6.987 15.888 8.815 M27.185 15.195 C 27.303 15.281,27.449 15.455,27.511 15.582 C 27.620 15.808,27.621 15.829,27.543 16.427 C 27.452 17.128,26.702 21.757,26.431 23.293 C 26.230 24.428,26.158 24.605,25.797 24.844 L 25.581 24.987 16.084 24.987 C 8.548 24.987,6.541 24.973,6.363 24.919 C 6.219 24.875,6.074 24.774,5.955 24.636 C 5.794 24.447,5.757 24.346,5.660 23.823 C 5.481 22.862,4.764 18.482,4.564 17.135 C 4.359 15.744,4.364 15.645,4.666 15.315 L 4.845 15.120 5.449 15.090 C 5.781 15.073,10.760 15.055,16.512 15.050 L 26.971 15.040 27.185 15.195 " fill="#1A1C1F" stroke="none" fill-rule="evenodd"></path></svg>