<svg xmlns="http://www.w3.org/2000/svg" width="20" height="20" fill="none"><path fill="#1A1C1F" fill-rule="evenodd" d="M4.567 4.052c-.53.114-1.097.544-1.331 1.01-.228.451-.236.533-.236 2.32v1.605l-.193.04A1.01 1.01 0 0 0 2 9.998c0 .169.852 4.406.937 4.663.188.564.683 1.046 1.28 1.245l.233.077h11.133l.217-.078c.596-.214 1.079-.691 1.265-1.25.09-.272.935-4.497.935-4.679 0-.453-.386-.886-.857-.962l-.138-.022-.013-.954c-.014-1.041-.017-1.061-.242-1.505-.139-.275-.544-.662-.85-.811-.445-.218-.474-.221-2.85-.223l-2.133-.002-.564-.59c-.652-.682-.776-.788-1.001-.857-.234-.071-4.452-.07-4.785.002m4.72 2.627c.603.619.68.686.856.75.19.07.233.071 2.525.071H15V9H5V6h3.624z"/></svg>