<svg xmlns="http://www.w3.org/2000/svg" width="24" height="24" fill="none"><g clip-path="url(#a)"><path fill="#1A1C1F" fill-rule="evenodd" d="M9.5 4h-4A2.5 2.5 0 0 0 3 6.5v11A2.5 2.5 0 0 0 5.5 20h13a2.5 2.5 0 0 0 2.5-2.5v-9C21 7.065 19.826 6 18.5 6h-6.585l-1.708-1.707A1 1 0 0 0 9.5 4m-4 2h3.585l1.708 1.707A1 1 0 0 0 11.5 8h7a.5.5 0 0 1 .5.5v9a.5.5 0 0 1-.5.5h-13a.5.5 0 0 1-.5-.5v-11a.5.5 0 0 1 .5-.5" clip-rule="evenodd"/></g><defs><clipPath id="a"><path fill="#fff" d="M0 0h24v24H0z"/></clipPath></defs></svg>