<svg width="12" height="12" viewBox="0 0 12 12" fill="none" xmlns="http://www.w3.org/2000/svg"><path d="M2.910 2.419 C 2.746 2.431,2.658 2.447,2.567 2.485 C 2.239 2.620,1.980 2.894,1.865 3.230 L 1.810 3.390 1.810 6.000 L 1.810 8.610 1.859 8.757 C 1.979 9.122,2.290 9.429,2.652 9.541 L 2.810 9.590 6.000 9.590 L 9.190 9.590 9.348 9.541 C 9.716 9.427,10.027 9.116,10.141 8.748 L 10.190 8.590 10.190 6.450 L 10.190 4.310 10.141 4.152 C 10.046 3.844,9.815 3.580,9.510 3.428 C 9.334 3.341,9.324 3.338,9.060 3.320 C 8.912 3.310,8.152 3.301,7.372 3.301 L 5.955 3.300 5.576 2.911 C 5.277 2.603,5.175 2.511,5.085 2.467 L 4.972 2.411 4.051 2.408 C 3.544 2.405,3.031 2.411,2.910 2.419 M4.979 4.009 C 5.241 4.269,5.419 4.431,5.470 4.454 C 5.545 4.488,5.663 4.490,7.275 4.496 L 9.000 4.501 9.000 6.451 L 9.000 8.400 6.000 8.400 L 3.000 8.400 3.000 6.000 L 3.000 3.600 3.784 3.600 L 4.569 3.600 4.979 4.009 " fill="#1A1C1F" stroke="none" fill-rule="evenodd"></path></svg>