<svg width="14" height="14" viewBox="0 0 14 14" fill="none" xmlns="http://www.w3.org/2000/svg"><path d="M3.407 2.822 C 3.202 2.836,3.104 2.854,2.994 2.899 C 2.612 3.057,2.296 3.395,2.168 3.783 L 2.112 3.955 2.112 7.000 L 2.112 10.045 2.168 10.217 C 2.306 10.635,2.665 10.994,3.083 11.132 L 3.255 11.188 7.000 11.188 L 10.745 11.188 10.917 11.132 C 11.333 10.995,11.680 10.651,11.824 10.232 L 11.888 10.045 11.888 7.525 L 11.888 5.005 11.832 4.833 C 11.704 4.446,11.390 4.113,10.994 3.946 C 10.804 3.866,10.443 3.852,8.602 3.851 L 6.949 3.850 6.506 3.396 C 6.157 3.038,6.036 2.928,5.932 2.878 L 5.801 2.813 4.738 2.809 C 4.153 2.806,3.554 2.812,3.407 2.822 M5.809 4.677 C 6.114 4.981,6.322 5.169,6.382 5.196 C 6.469 5.236,6.607 5.239,8.488 5.245 L 10.500 5.251 10.500 7.526 L 10.500 9.800 7.000 9.800 L 3.500 9.800 3.500 7.000 L 3.500 4.200 4.415 4.200 L 5.330 4.200 5.809 4.677 " fill="#1A1C1F" stroke="none" fill-rule="evenodd"></path></svg>