<svg xmlns="http://www.w3.org/2000/svg" width="16" height="16" fill="none"><g clip-path="url(#a)"><path fill="#1A1C1F" fill-rule="evenodd" d="M7.243 3.2c.18 0 .355 0 .576.245q.462.475.92.955h3.26c.843 0 1.6.68 1.6 1.6v1.2c.473 0 .896.418.784.957q-.333 1.678-.672 3.357a1.62 1.62 0 0 1-1.569 1.286q-4.143.003-8.288 0c-.72 0-1.456-.563-1.569-1.286q-.338-1.68-.671-3.357a.804.804 0 0 1 .784-.957V4.8c0-.844.695-1.6 1.6-1.6q1.623-.003 3.245 0m5.38 5.6h-9.25l.481 2.4h8.289zm-5.72-4H3.998v2.4h8V6h-3.6a.8.8 0 0 1-.576-.245q-.464-.477-.919-.955" clip-rule="evenodd"/></g><defs><clipPath id="a"><path fill="#fff" d="M0 0h16v16H0z"/></clipPath></defs></svg>