<svg width="16" height="16" viewBox="0 0 16 16" fill="none" xmlns="http://www.w3.org/2000/svg"><path d="M3.893 3.225 C 3.659 3.241,3.548 3.262,3.422 3.313 C 2.988 3.492,2.623 3.882,2.478 4.324 L 2.413 4.520 2.413 8.000 L 2.413 11.480 2.487 11.694 C 2.651 12.170,3.030 12.549,3.506 12.713 L 3.720 12.787 7.987 12.787 L 12.253 12.787 12.463 12.722 C 12.941 12.574,13.348 12.176,13.513 11.694 L 13.587 11.480 13.587 8.600 L 13.587 5.720 13.513 5.506 C 13.395 5.163,13.149 4.852,12.835 4.650 C 12.464 4.411,12.358 4.402,9.843 4.401 L 7.940 4.400 7.435 3.881 C 7.036 3.471,6.899 3.347,6.780 3.289 L 6.630 3.215 5.415 3.210 C 4.747 3.207,4.062 3.214,3.893 3.225 " fill="#1A1C1F" stroke="none" fill-rule="evenodd"></path></svg>