<svg xmlns="http://www.w3.org/2000/svg" width="16" height="16" fill="none"><g clip-path="url(#a)"><path fill="#1A1C1F" fill-rule="evenodd" d="M7.261 3.2c.258 0 .466.142.56.245l.918.955H12c.844 0 1.605.675 1.6 1.6v1.2c.474 0 .891.439.784.957l-.67 3.357a1.6 1.6 0 0 1-1.57 1.286H3.855c-.717 0-1.4-.489-1.569-1.286l-.671-3.357a.8.8 0 0 1 .784-.957V4.8c0-.843.668-1.6 1.6-1.6zm-.357 1.6H4v2.4h8V6H8.4a.8.8 0 0 1-.576-.245z" clip-rule="evenodd"/></g><defs><clipPath id="a"><path fill="#fff" d="M0 0h16v16H0z"/></clipPath></defs></svg>