<svg xmlns="http://www.w3.org/2000/svg" width="20" height="20" fill="none"><g clip-path="url(#a)"><path fill="#1A1C1F" fill-rule="evenodd" d="M9.053 4c.227 0 .445 0 .72.306q.58.596 1.15 1.194h4.075c1.054 0 2 .85 2 2q.003.75 0 1.5c.591 0 1.121.523.98 1.196a1421 1421 0 0 1-.839 4.196A2.02 2.02 0 0 1 15.18 16q-5.181.003-10.361 0c-.9 0-1.82-.703-1.961-1.608q-.423-2.097-.84-4.196C1.901 9.616 2.34 9 2.997 9V6c0-1.054.87-2 2-2q2.03-.003 4.056 0m6.725 7H4.217l.6 3h10.361zm-7.15-5h-3.63v3h10V7.5h-4.5c-.227 0-.5-.08-.72-.306Q9.198 6.597 8.628 6" clip-rule="evenodd"/></g><defs><clipPath id="a"><path fill="#fff" d="M0 0h20v20H0z"/></clipPath></defs></svg>