<svg width="32" height="32" viewBox="0 0 32 32" fill="none" xmlns="http://www.w3.org/2000/svg"><path d="M5.787 5.064 C 5.131 5.104,4.911 5.175,4.373 5.521 C 3.743 5.926,3.377 6.400,3.098 7.173 L 2.983 7.493 2.998 16.053 L 3.013 24.613 3.152 24.970 C 3.445 25.722,4.009 26.347,4.705 26.691 C 5.079 26.876,5.131 26.887,5.921 26.938 C 6.440 26.971,10.445 26.985,16.693 26.976 L 26.640 26.960 27.017 26.811 C 27.785 26.507,28.513 25.780,28.805 25.026 C 28.985 24.558,29.020 23.110,29.001 16.880 L 28.984 11.440 28.866 11.089 C 28.620 10.358,27.977 9.657,27.219 9.296 C 26.887 9.137,26.759 9.108,26.206 9.065 C 25.858 9.038,23.631 9.015,21.258 9.015 L 16.942 9.013 15.151 7.239 C 14.166 6.263,13.242 5.369,13.098 5.252 L 12.837 5.040 9.605 5.034 C 7.828 5.031,6.109 5.044,5.787 5.064 M13.034 7.941 C 13.590 8.497,13.972 8.919,13.950 8.954 C 13.924 8.997,12.669 9.013,9.458 9.013 L 5.003 9.013 5.021 8.331 C 5.042 7.572,5.075 7.481,5.421 7.217 C 5.605 7.077,5.661 7.065,6.262 7.036 C 6.617 7.019,8.071 7.001,9.494 6.996 L 12.081 6.987 13.034 7.941 M23.040 11.033 C 26.794 11.071,26.525 11.038,26.819 11.490 L 26.960 11.707 26.960 17.973 C 26.960 24.225,26.960 24.240,26.849 24.453 C 26.787 24.571,26.635 24.739,26.511 24.827 L 26.284 24.987 17.422 25.001 C 12.548 25.009,7.884 24.996,7.058 24.973 C 5.382 24.926,5.487 24.952,5.166 24.512 L 5.013 24.304 5.013 17.645 L 5.013 10.987 12.360 10.993 C 16.401 10.997,21.207 11.015,23.040 11.033 " fill="#1A1C1F" stroke="none" fill-rule="evenodd"></path></svg>