<svg xmlns="http://www.w3.org/2000/svg" width="32" height="32" fill="none"><path fill="#1A1C1F" fill-rule="evenodd" d="M5.261 5.098c-.694.168-1.479.74-1.824 1.33a5 5 0 0 0-.286.606l-.138.353-.015 8.4c-.011 5.902.002 8.503.043 8.746.142.846.756 1.691 1.519 2.089.751.393-.137.365 11.423.365 9.13 0 10.433-.01 10.712-.081 1.043-.267 1.826-1.019 2.192-2.106.093-.278.099-.632.114-6.667.018-7.045.03-6.771-.32-7.477-.229-.462-.861-1.09-1.321-1.313-.705-.341-.513-.33-5.703-.33h-4.72l-1.922-1.917c-1.286-1.283-1.988-1.945-2.12-2-.173-.072-.657-.082-3.76-.078-2.879.003-3.621.019-3.874.08m7.792 2.861c.535.535.974.991.974 1.014 0 .022-2.028.04-4.507.04H5.013v-.646c0-.568.015-.671.118-.856.127-.225.379-.409.648-.473.092-.022 1.547-.043 3.234-.046l3.066-.005zm13.374 3.143c.217.12.379.301.477.537.073.175.083.918.081 6.373-.001 5.875-.005 6.185-.099 6.39a1.05 1.05 0 0 1-.635.559c-.138.04-3.252.052-10.358.041-9.909-.015-10.165-.018-10.367-.118a1 1 0 0 1-.36-.344l-.153-.241V10.985l10.627.014c9.772.013 10.64.021 10.787.103"/></svg>