<svg width="32" height="32" viewBox="0 0 32 32" fill="none" xmlns="http://www.w3.org/2000/svg"><path d="M8.587 3.038 L 5.307 3.067 4.970 3.211 C 4.077 3.594,3.464 4.259,3.118 5.221 L 2.976 5.616 2.998 16.048 L 3.020 26.480 3.141 26.827 C 3.474 27.777,4.214 28.518,5.173 28.861 L 5.520 28.986 15.973 28.986 L 26.427 28.987 26.802 28.869 C 27.266 28.723,27.734 28.425,28.126 28.027 C 28.462 27.685,28.684 27.327,28.879 26.807 L 29.013 26.451 29.012 16.599 C 29.011 7.077,28.988 5.466,28.847 5.067 C 28.660 4.538,28.066 3.802,27.578 3.496 C 27.449 3.415,27.185 3.282,26.992 3.201 L 26.640 3.054 19.253 3.031 C 15.191 3.019,10.391 3.022,8.587 3.038 M26.453 5.149 C 26.555 5.209,26.711 5.361,26.799 5.487 L 26.960 5.716 26.978 9.511 C 26.988 11.599,26.979 14.705,26.958 16.414 L 26.921 19.521 24.763 17.384 C 23.576 16.208,22.529 15.200,22.436 15.144 C 22.207 15.004,21.751 15.004,21.526 15.144 C 21.435 15.201,21.238 15.387,21.090 15.557 C 20.215 16.560,18.188 18.904,17.056 20.222 L 15.743 21.750 13.352 20.578 C 10.568 19.214,10.286 19.086,10.000 19.053 C 9.724 19.022,9.539 19.120,7.049 20.609 C 5.983 21.247,5.097 21.755,5.080 21.738 C 5.062 21.720,5.046 18.112,5.044 13.720 L 5.040 5.733 5.165 5.532 C 5.234 5.422,5.368 5.272,5.462 5.200 C 5.632 5.070,5.650 5.068,6.910 5.051 C 7.612 5.041,12.255 5.034,17.227 5.036 C 26.238 5.040,26.267 5.040,26.453 5.149 M9.994 7.145 C 8.434 7.554,7.236 8.916,7.037 10.506 C 6.947 11.226,7.101 12.129,7.424 12.770 C 7.871 13.658,8.790 14.470,9.683 14.767 C 11.202 15.272,12.797 14.874,13.912 13.713 C 14.316 13.291,14.781 12.404,14.906 11.813 C 15.061 11.079,14.974 10.163,14.683 9.467 C 14.185 8.279,13.011 7.325,11.764 7.098 C 11.273 7.008,10.431 7.031,9.994 7.145 M11.495 9.096 C 12.063 9.244,12.504 9.611,12.807 10.187 C 12.916 10.395,12.933 10.501,12.933 10.987 C 12.933 11.468,12.916 11.583,12.807 11.803 C 12.482 12.463,11.992 12.835,11.271 12.969 C 10.995 13.021,10.883 13.016,10.582 12.942 C 9.987 12.795,9.603 12.500,9.257 11.923 C 9.069 11.611,9.067 11.598,9.067 11.014 C 9.067 10.480,9.081 10.393,9.207 10.139 C 9.454 9.643,10.016 9.186,10.530 9.063 C 10.806 8.997,11.163 9.009,11.495 9.096 M26.976 24.351 L 26.960 26.276 26.807 26.496 C 26.723 26.617,26.575 26.778,26.477 26.852 L 26.299 26.987 15.981 26.974 L 5.663 26.960 5.458 26.794 C 5.112 26.514,5.054 26.363,5.025 25.656 C 5.011 25.312,5.016 24.824,5.037 24.573 L 5.075 24.117 7.431 22.704 C 8.727 21.927,9.840 21.264,9.906 21.231 C 10.010 21.178,10.318 21.314,12.472 22.370 C 15.317 23.764,15.837 24.000,16.066 24.000 C 16.439 24.000,16.579 23.854,19.809 20.089 L 22.044 17.484 24.518 19.955 L 26.991 22.427 26.976 24.351 " fill="#1A1C1F" stroke="none" fill-rule="evenodd"></path></svg>