<svg width="16" height="16" viewBox="0 0 16 16" fill="none" xmlns="http://www.w3.org/2000/svg"><path d="M4.000 2.427 C 3.802 2.437,3.602 2.459,3.555 2.474 C 3.343 2.544,3.074 2.714,2.894 2.893 C 2.692 3.092,2.582 3.262,2.466 3.553 L 2.395 3.732 2.407 8.006 C 2.417 11.977,2.422 12.290,2.465 12.427 C 2.542 12.670,2.691 12.909,2.891 13.108 C 3.089 13.305,3.215 13.387,3.514 13.512 L 3.693 13.587 7.693 13.595 C 10.058 13.599,11.835 13.592,12.040 13.577 C 12.273 13.560,12.434 13.534,12.531 13.497 C 12.958 13.335,13.364 12.908,13.532 12.447 L 13.602 12.253 13.594 7.973 L 13.587 3.693 13.498 3.473 C 13.312 3.010,12.927 2.642,12.467 2.486 L 12.253 2.414 8.307 2.411 C 6.136 2.409,4.198 2.416,4.000 2.427 M12.000 6.231 L 12.000 8.462 11.473 7.943 C 11.184 7.658,10.887 7.383,10.813 7.332 C 10.689 7.246,10.664 7.239,10.437 7.231 C 10.235 7.223,10.177 7.231,10.090 7.275 C 9.925 7.359,9.597 7.664,8.657 8.607 L 7.781 9.486 6.817 9.164 C 5.855 8.842,5.853 8.841,5.598 8.841 L 5.343 8.840 4.687 9.165 C 4.326 9.343,4.024 9.482,4.016 9.473 C 4.007 9.465,4.000 8.230,4.000 6.729 L 4.000 4.000 8.000 4.000 L 12.000 4.000 12.000 6.231 M5.775 4.827 C 5.467 4.881,5.088 5.160,4.949 5.435 C 4.783 5.762,4.762 6.092,4.886 6.423 C 4.995 6.714,5.281 7.001,5.577 7.117 C 5.814 7.209,6.185 7.212,6.406 7.124 C 6.610 7.043,6.815 6.886,6.951 6.707 C 7.523 5.956,7.033 4.894,6.080 4.818 C 5.985 4.810,5.847 4.814,5.775 4.827 M11.207 9.940 L 12.000 10.733 12.000 11.366 L 12.000 12.000 8.000 12.000 L 4.000 12.000 4.000 11.645 L 4.000 11.289 4.823 10.885 C 5.275 10.662,5.658 10.480,5.674 10.480 C 5.690 10.480,6.180 10.638,6.765 10.832 C 8.179 11.300,8.166 11.300,8.649 10.865 C 8.783 10.744,9.229 10.308,9.640 9.896 C 10.050 9.484,10.392 9.147,10.400 9.147 C 10.407 9.147,10.770 9.504,11.207 9.940 " fill="#1A1C1F" stroke="none" fill-rule="evenodd"></path></svg>