<svg xmlns="http://www.w3.org/2000/svg" width="28" height="28" fill="none"><g clip-path="url(#a)"><path fill="#1A1C1F" fill-rule="evenodd" d="M22.75 2.625c1.398 0 2.634 1.23 2.625 2.625v17.5c0 1.398-1.258 2.627-2.625 2.625H5.25c-1.398 0-2.622-1.239-2.625-2.625V5.25c0-1.398 1.234-2.614 2.625-2.625zm-3.451 12.662-4.635 5.407a.875.875 0 0 1-.956.256L8.75 18.5l-4.375 2.644v1.606c0 .449.43.88.875.875h17.5c.449 0 .878-.475.875-.875v-3.138zM5.249 4.375c-.462-.003-.87.44-.874.875v13.855L8.3 16.75c.224-.135.62-.142.844-.003l4.635 2.29 4.807-5.606a.875.875 0 0 1 1.202-.121l3.837 3.827V5.25c0-.449-.415-.864-.875-.875zm4.376 1.75a3.5 3.5 0 1 1 0 7 3.5 3.5 0 0 1 0-7m0 1.75a1.75 1.75 0 1 0 0 3.5 1.75 1.75 0 0 0 0-3.5" clip-rule="evenodd"/></g><defs><clipPath id="a"><path fill="#fff" d="M0 0h28v28H0z"/></clipPath></defs></svg>