<svg xmlns="http://www.w3.org/2000/svg" width="16" height="16" fill="none"><g clip-path="url(#a)"><path fill="#1A1C1F" fill-rule="evenodd" d="M12 2.4c.844 0 1.605.744 1.6 1.6v8c0 .844-.758 1.605-1.6 1.6H4c-.844 0-1.596-.72-1.6-1.6V4c0-.844.746-1.599 1.6-1.6zm-1.6 6.731-1.834 1.835a.8.8 0 0 1-.722.219l-2.182-.722-1.662.83V12h8v-1.269zM12 4H4v5.505l1.242-.62a.8.8 0 0 1 .509-.07l2.032.669 2.051-2.05a.8.8 0 0 1 1.132 0L12 8.468zm-6 .8a1.2 1.2 0 1 1 0 2.4 1.2 1.2 0 0 1 0-2.4" clip-rule="evenodd"/></g><defs><clipPath id="a"><path fill="#fff" d="M0 0h16v16H0z"/></clipPath></defs></svg>