<svg xmlns="http://www.w3.org/2000/svg" width="14" height="14" fill="none"><g clip-path="url(#a)"><path fill="#1A1C1F" fill-rule="evenodd" d="M10.5 2.1c.738 0 1.404.651 1.4 1.4v7c0 .738-.664 1.405-1.4 1.4h-7c-.738 0-1.396-.63-1.4-1.4v-7c0-.738.653-1.399 1.4-1.4zM9.1 7.99 7.495 9.595a.7.7 0 0 1-.632.192l-1.91-.632-1.453.727v.618h7V9.39zm1.4-4.49h-7v4.817l1.087-.543a.7.7 0 0 1 .445-.061l1.778.585 1.795-1.793a.7.7 0 0 1 .99 0l.905.904zm-5.25.7a1.05 1.05 0 1 1 0 2.1 1.05 1.05 0 0 1 0-2.1" clip-rule="evenodd"/></g><defs><clipPath id="a"><path fill="#fff" d="M0 0h14v14H0z"/></clipPath></defs></svg>