<svg xmlns="http://www.w3.org/2000/svg" width="20" height="20" fill="none"><g clip-path="url(#a)"><path fill="#1A1C1F" fill-rule="evenodd" d="M15 3c1.054 0 2.006.93 2 2v10c0 1.054-.948 2.007-2 2H5c-1.054 0-1.995-.9-2-2V5c0-1.054.933-1.998 2-2zm-2 8.414-2.293 2.293a1 1 0 0 1-.902.274l-2.728-.902L5 14.117V15h10v-1.586zM15 5H5v6.881l1.553-.776a1 1 0 0 1 .636-.087l2.54.837 2.564-2.562a1 1 0 0 1 1.414 0L15 10.585zM7.5 6a1.5 1.5 0 1 1 0 3 1.5 1.5 0 0 1 0-3" clip-rule="evenodd"/></g><defs><clipPath id="a"><path fill="#fff" d="M0 0h20v20H0z"/></clipPath></defs></svg>