<svg xmlns="http://www.w3.org/2000/svg" width="12" height="12" fill="none"><g clip-path="url(#a)"><path fill="#1A1C1F" fill-rule="evenodd" d="M9 1.8c.633 0 1.202.558 1.2 1.2v6c0 .633-.556 1.202-1.2 1.2H3c-.633 0-1.196-.563-1.2-1.2V3c0-.633.57-1.196 1.2-1.2zM9 3H3v4.129l.932-.466a.6.6 0 0 1 .381-.052l1.524.502 1.539-1.537a.6.6 0 0 1 .792-.05L9 6.35zm-4.5.6a.9.9 0 1 1 0 1.8.9.9 0 0 1 0-1.8" clip-rule="evenodd"/></g><defs><clipPath id="a"><path fill="#fff" d="M0 0h12v12H0z"/></clipPath></defs></svg>