<svg width="14" height="14" viewBox="0 0 14 14" fill="none" xmlns="http://www.w3.org/2000/svg"><path d="M3.500 2.123 C 3.151 2.140,3.035 2.171,2.812 2.306 C 2.518 2.483,2.272 2.792,2.147 3.142 L 2.095 3.286 2.105 7.016 L 2.116 10.745 2.166 10.897 C 2.235 11.107,2.332 11.265,2.499 11.444 C 2.655 11.611,2.817 11.718,3.068 11.821 L 3.232 11.888 6.965 11.888 C 10.462 11.888,10.708 11.886,10.848 11.847 C 11.249 11.736,11.629 11.390,11.812 10.967 L 11.888 10.792 11.888 7.012 L 11.888 3.232 11.811 3.039 C 11.641 2.618,11.277 2.283,10.847 2.153 C 10.734 2.118,10.385 2.114,7.268 2.111 C 5.369 2.109,3.673 2.114,3.500 2.123 M10.500 5.452 L 10.500 7.403 10.024 6.935 C 9.449 6.369,9.381 6.324,9.105 6.324 C 8.961 6.323,8.889 6.335,8.825 6.368 C 8.685 6.439,8.391 6.712,7.575 7.531 L 6.808 8.301 5.965 8.018 C 5.123 7.736,5.121 7.736,4.898 7.735 L 4.675 7.735 4.101 8.019 C 3.647 8.244,3.524 8.296,3.513 8.268 C 3.506 8.249,3.500 7.168,3.500 5.866 L 3.500 3.500 7.000 3.500 L 10.500 3.500 10.500 5.452 M5.053 4.225 C 4.786 4.269,4.453 4.515,4.331 4.756 C 4.089 5.232,4.199 5.730,4.622 6.080 C 4.856 6.273,5.230 6.347,5.521 6.257 C 5.721 6.195,5.828 6.131,5.984 5.976 C 6.263 5.701,6.364 5.321,6.254 4.965 C 6.131 4.567,5.814 4.290,5.406 4.224 C 5.244 4.197,5.216 4.198,5.053 4.225 M9.806 8.697 L 10.500 9.391 10.500 9.946 L 10.500 10.500 7.000 10.500 L 3.500 10.500 3.500 10.189 L 3.500 9.878 4.220 9.524 C 4.616 9.329,4.951 9.170,4.965 9.170 C 4.978 9.170,5.408 9.308,5.919 9.478 C 7.157 9.887,7.145 9.887,7.567 9.507 C 7.685 9.401,8.076 9.020,8.435 8.659 C 8.794 8.298,9.093 8.003,9.100 8.003 C 9.106 8.003,9.424 8.316,9.806 8.697 " fill="#1A1C1F" stroke="none" fill-rule="evenodd"></path></svg>