<svg xmlns="http://www.w3.org/2000/svg" width="32" height="32" fill="none"><path fill="#1A1C1F" fill-rule="evenodd" d="M5.597 3.043c-1.119.167-2.065.985-2.463 2.13l-.121.347V16c0 10.102.004 10.491.1 10.773a3.29 3.29 0 0 0 2.114 2.114c.282.096.671.1 10.773.1s10.491-.004 10.773-.1a3.3 3.3 0 0 0 1.285-.78c.386-.381.582-.683.791-1.221l.138-.353.014-10.359c.015-11.407.033-10.753-.314-11.459-.211-.428-.735-1.001-1.135-1.242a5 5 0 0 0-.659-.32l-.36-.14-10.32-.007c-5.676-.004-10.453.012-10.616.037m20.765 2.042c.234.098.558.47.597.685.017.097.024 3.237.016 6.977l-.015 6.8-2.24-2.22c-1.232-1.22-2.288-2.232-2.347-2.248-.44-.12-.711-.076-.994.162-.12.101-5.484 6.312-5.619 6.506-.005.007-1.25-.599-2.766-1.347-2.565-1.265-2.777-1.36-3.043-1.36-.278 0-.343.034-2.598 1.386L5.04 21.812l-.015-7.933c-.008-4.363-.001-8.012.016-8.109.037-.209.359-.584.586-.683.241-.105 20.484-.107 20.735-.002M10.48 7.044c-1.589.191-2.925 1.376-3.366 2.986-.141.515-.131 1.448.022 1.986.383 1.348 1.364 2.376 2.668 2.797.565.182 1.431.223 2.015.096.863-.189 1.733-.72 2.277-1.39.338-.416.699-1.172.814-1.7.128-.594.085-1.451-.104-2.032a4.02 4.02 0 0 0-4.326-2.743m1.391 2.172c.418.21.829.655.985 1.064.084.222.117.427.118.74.002.373-.021.482-.158.776-.292.623-.728.987-1.375 1.147-.874.216-1.791-.226-2.232-1.076-.152-.295-.166-.363-.167-.854-.002-.444.018-.577.119-.795a2.08 2.08 0 0 1 1.202-1.109c.431-.154 1.083-.108 1.508.107M26.986 24.32c-.001 1.861-.003 1.897-.12 2.102a1.6 1.6 0 0 1-.324.373l-.205.165-10.195.015c-5.608.009-10.275.001-10.373-.016-.238-.043-.633-.412-.705-.659-.033-.115-.05-.593-.04-1.176l.016-.982 2.453-1.483c1.35-.816 2.48-1.484 2.513-1.485.032 0 1.325.627 2.874 1.393 1.91.946 2.887 1.403 3.039 1.42.507.057.46.103 3.418-3.347l2.706-3.156 2.472 2.471 2.472 2.471z"/></svg>