<svg xmlns="http://www.w3.org/2000/svg" width="32" height="32" fill="none"><g clip-path="url(#a)"><path fill="#1A1C1F" fill-rule="evenodd" d="M26 3c1.598 0 3.01 1.405 3 3v20c0 1.598-1.437 3.003-3 3H6c-1.598 0-2.997-1.416-3-3V6c0-1.598 1.41-2.987 3-3zM22.056 17.47l-5.297 6.18a1 1 0 0 1-1.093.292L10 21.143l-5 3.022V26c0 .513.492 1.006 1 1h20c.513 0 1.003-.543 1-1v-3.586zM6 5c-.53-.003-.996.503-1 1v15.834l4.485-2.692c.257-.153.71-.161.965-.002l5.298 2.616 5.493-6.407a1 1 0 0 1 1.374-.138L27 19.585V6c0-.513-.474-.988-1-1zm5 2a4 4 0 1 1 0 8 4 4 0 0 1 0-8m0 2a2 2 0 1 0 0 4 2 2 0 0 0 0-4" clip-rule="evenodd"/></g><defs><clipPath id="a"><path fill="#fff" d="M0 0h32v32H0z"/></clipPath></defs></svg>