<svg xmlns="http://www.w3.org/2000/svg" width="24" height="24" fill="none"><g clip-path="url(#a)"><path fill="#1A1C1F" fill-rule="evenodd" d="M18.5 3c1.326 0 2.501 1.185 2.5 2.5v13c0 1.326-1.23 2.505-2.5 2.5h-13c-1.325 0-2.495-1.19-2.5-2.5v-13C3 4.175 4.184 3.004 5.5 3zM16 13.415l-3.293 3.292a1 1 0 0 1-1.037.237l-3.599-1.79L5 17.201V18.5c0 .245.263.5.5.5h13c.245 0 .507-.251.5-.5v-2.086zM5.5 5c-.245 0-.5.264-.5.5v9.297l2.445-1.63a1 1 0 0 1 .88-.113l3.477 1.728 3.49-3.49a1 1 0 0 1 1.32-.082L19 13.586V5.5c0-.245-.26-.495-.5-.5zM9 7a2 2 0 1 1 0 4 2 2 0 0 1 0-4" clip-rule="evenodd"/></g><defs><clipPath id="a"><path fill="#fff" d="M0 0h24v24H0z"/></clipPath></defs></svg>