<svg width="12" height="12" viewBox="0 0 12 12" fill="none" xmlns="http://www.w3.org/2000/svg"><path d="M3.140 1.819 C 2.828 1.829,2.709 1.840,2.643 1.866 C 2.269 2.011,1.992 2.291,1.849 2.670 L 1.799 2.804 1.804 6.007 L 1.810 9.210 1.868 9.360 C 2.011 9.734,2.294 10.014,2.665 10.149 L 2.810 10.202 6.000 10.195 C 8.968 10.189,9.198 10.186,9.309 10.154 C 9.466 10.107,9.592 10.036,9.751 9.906 C 9.914 9.771,10.036 9.607,10.123 9.406 L 10.190 9.250 10.190 6.040 C 10.190 3.034,10.188 2.822,10.155 2.702 C 10.101 2.509,10.008 2.352,9.854 2.197 C 9.683 2.024,9.550 1.937,9.347 1.865 L 9.190 1.810 6.370 1.808 C 4.819 1.807,3.366 1.812,3.140 1.819 M9.000 4.673 L 9.000 6.346 8.592 5.944 C 8.099 5.459,8.041 5.420,7.804 5.420 C 7.680 5.420,7.619 5.430,7.564 5.458 C 7.444 5.519,7.193 5.753,6.493 6.455 L 5.835 7.115 5.113 6.873 C 4.391 6.631,4.390 6.631,4.199 6.630 L 4.007 6.630 3.515 6.873 C 3.245 7.007,3.018 7.112,3.012 7.105 C 3.005 7.099,3.000 6.172,3.000 5.047 L 3.000 3.000 6.000 3.000 L 9.000 3.000 9.000 4.673 M4.340 3.619 C 4.211 3.642,4.113 3.688,3.970 3.790 C 3.823 3.894,3.724 4.022,3.659 4.190 C 3.591 4.364,3.593 4.640,3.662 4.817 C 3.749 5.038,3.962 5.252,4.183 5.338 C 4.361 5.407,4.638 5.409,4.805 5.343 C 5.040 5.249,5.251 5.039,5.342 4.805 C 5.407 4.640,5.407 4.356,5.343 4.196 C 5.244 3.947,5.039 3.745,4.800 3.662 C 4.668 3.616,4.463 3.597,4.340 3.619 " fill="#1A1C1F" stroke="none" fill-rule="evenodd"></path></svg>