<svg xmlns="http://www.w3.org/2000/svg" width="20" height="20" fill="none"><path fill="#1A1C1F" fill-rule="evenodd" d="M4.617 3.05c-.685.152-1.257.667-1.526 1.372l-.074.195-.01 5.266c-.01 5.866-.023 5.509.218 5.991.083.166.198.318.372.494.273.275.454.395.799.529l.221.086 5.297.009c5.875.01 5.462.025 5.948-.213.293-.143.668-.485.834-.759.062-.103.152-.288.2-.412l.087-.225V4.617l-.087-.225a2.05 2.05 0 0 0-.551-.822 1.9 1.9 0 0 0-.898-.504c-.251-.064-.384-.066-5.444-.063-4.196.002-5.225.011-5.386.047M15 7.79v2.79l-.725-.718c-.816-.809-.872-.845-1.292-.845-.415 0-.432.013-1.929 1.511l-1.328 1.33-1.288-.431c-1.642-.549-1.416-.551-2.563.02-.464.231-.851.42-.86.42-.008 0-.015-1.545-.015-3.434V5h10zM7.15 6.046c-.399.098-.815.423-.983.77q-.328.682.003 1.375c.098.204.435.541.639.639.621.298 1.27.195 1.743-.278.579-.579.598-1.46.045-2.065a1.52 1.52 0 0 0-1.447-.441"/></svg>