<svg width="28" height="28" viewBox="0 0 28 28" fill="none" xmlns="http://www.w3.org/2000/svg"><path d="M7.583 2.658 L 4.643 2.683 4.349 2.809 C 3.562 3.147,3.001 3.760,2.727 4.583 L 2.604 4.953 2.623 14.061 L 2.643 23.170 2.749 23.473 C 3.040 24.305,3.687 24.953,4.527 25.254 L 4.830 25.362 13.977 25.363 L 23.123 25.363 23.452 25.260 C 23.858 25.132,24.268 24.872,24.610 24.524 C 24.904 24.225,25.098 23.911,25.270 23.456 L 25.387 23.145 25.386 14.524 C 25.385 6.192,25.364 4.783,25.241 4.433 C 25.075 3.963,24.565 3.332,24.131 3.059 C 24.018 2.988,23.787 2.872,23.618 2.801 L 23.310 2.672 16.917 2.652 C 13.400 2.641,9.200 2.644,7.583 2.658 M23.146 4.506 C 23.235 4.558,23.372 4.691,23.449 4.801 L 23.590 5.001 23.606 8.322 C 23.614 10.149,23.606 12.868,23.588 14.364 L 23.555 17.085 21.753 15.296 C 20.761 14.312,19.850 13.427,19.729 13.328 C 19.514 13.154,19.498 13.150,19.203 13.168 C 18.912 13.187,18.889 13.198,18.662 13.419 C 18.335 13.737,17.444 14.751,15.476 17.047 C 14.028 18.735,13.791 18.993,13.704 18.967 C 13.649 18.950,12.595 18.448,11.363 17.851 C 10.131 17.253,9.052 16.741,8.965 16.712 C 8.585 16.587,8.585 16.587,6.168 18.033 C 5.235 18.591,4.460 19.035,4.445 19.020 C 4.430 19.005,4.416 15.848,4.414 12.005 L 4.410 5.017 4.519 4.841 C 4.580 4.744,4.697 4.613,4.779 4.550 C 4.928 4.437,4.945 4.435,6.023 4.419 C 6.625 4.410,10.687 4.405,15.050 4.407 C 22.958 4.410,22.984 4.410,23.146 4.506 M8.744 6.252 C 7.380 6.610,6.332 7.801,6.157 9.193 C 6.078 9.823,6.213 10.613,6.496 11.173 C 6.887 11.951,7.691 12.661,8.473 12.921 C 9.800 13.362,11.190 13.017,12.171 12.003 C 12.523 11.639,12.932 10.857,13.043 10.336 C 13.179 9.694,13.102 8.892,12.847 8.283 C 12.412 7.244,11.384 6.410,10.293 6.211 C 9.864 6.132,9.127 6.152,8.744 6.252 M10.058 7.959 C 10.555 8.088,10.941 8.409,11.206 8.913 C 11.301 9.095,11.316 9.189,11.316 9.613 C 11.317 10.035,11.301 10.135,11.206 10.328 C 10.922 10.906,10.493 11.231,9.862 11.348 C 9.621 11.393,9.522 11.389,9.259 11.324 C 8.739 11.196,8.403 10.938,8.100 10.433 C 7.936 10.159,7.933 10.149,7.933 9.637 C 7.933 9.170,7.946 9.094,8.056 8.872 C 8.273 8.438,8.764 8.038,9.214 7.930 C 9.455 7.873,9.767 7.883,10.058 7.959 M23.604 21.307 L 23.590 22.991 23.456 23.184 C 23.383 23.290,23.253 23.430,23.167 23.496 L 23.012 23.614 13.984 23.602 L 4.955 23.590 4.776 23.445 C 4.473 23.200,4.423 23.068,4.397 22.449 C 4.385 22.148,4.389 21.721,4.408 21.501 L 4.441 21.102 6.502 19.866 C 7.636 19.186,8.610 18.606,8.667 18.577 C 8.759 18.531,9.030 18.651,10.913 19.574 C 13.402 20.793,13.857 21.000,14.058 21.000 C 14.384 21.000,14.507 20.872,17.333 17.578 L 19.288 15.299 21.453 17.461 L 23.618 19.623 23.604 21.307 " fill="#1A1C1F" stroke="none" fill-rule="evenodd"></path></svg>