<svg width="14" height="14" viewBox="0 0 14 14" fill="none" xmlns="http://www.w3.org/2000/svg"><path d="M3.663 2.123 C 3.300 2.134,3.161 2.147,3.084 2.177 C 2.647 2.346,2.324 2.673,2.158 3.115 L 2.099 3.271 2.105 7.008 L 2.112 10.745 2.179 10.920 C 2.346 11.354,2.679 11.683,3.109 11.840 L 3.278 11.902 7.000 11.894 C 10.466 11.887,10.731 11.884,10.860 11.846 C 11.044 11.792,11.191 11.709,11.376 11.557 C 11.567 11.399,11.708 11.209,11.810 10.973 L 11.888 10.792 11.895 7.035 L 11.901 3.278 11.852 3.138 C 11.683 2.664,11.324 2.311,10.850 2.156 C 10.729 2.116,10.535 2.113,7.432 2.111 C 5.622 2.109,3.926 2.114,3.663 2.123 M10.500 5.452 L 10.500 7.403 10.024 6.935 C 9.449 6.369,9.381 6.324,9.105 6.324 C 8.961 6.323,8.889 6.335,8.825 6.368 C 8.685 6.439,8.391 6.712,7.575 7.531 L 6.808 8.301 5.965 8.018 C 5.123 7.736,5.121 7.736,4.898 7.735 L 4.675 7.735 4.101 8.019 C 3.647 8.244,3.524 8.296,3.513 8.268 C 3.506 8.249,3.500 7.168,3.500 5.866 L 3.500 3.500 7.000 3.500 L 10.500 3.500 10.500 5.452 M5.053 4.225 C 4.786 4.269,4.453 4.515,4.331 4.756 C 4.089 5.232,4.199 5.730,4.622 6.080 C 4.856 6.273,5.230 6.347,5.521 6.257 C 5.721 6.195,5.828 6.131,5.984 5.976 C 6.263 5.701,6.364 5.321,6.254 4.965 C 6.131 4.567,5.814 4.290,5.406 4.224 C 5.244 4.197,5.216 4.198,5.053 4.225 " fill="#1A1C1F" stroke="none" fill-rule="evenodd"></path></svg>