<svg width="12" height="12" viewBox="0 0 12 12" fill="none" xmlns="http://www.w3.org/2000/svg"><path d="M3.000 1.820 C 2.712 1.836,2.663 1.846,2.497 1.930 C 2.197 2.080,1.977 2.332,1.849 2.670 L 1.796 2.810 1.805 6.010 L 1.813 9.210 1.856 9.340 C 1.916 9.520,1.999 9.656,2.142 9.809 C 2.276 9.952,2.414 10.044,2.630 10.132 L 2.770 10.190 5.770 10.196 C 7.543 10.199,8.876 10.194,9.030 10.183 C 9.205 10.170,9.326 10.150,9.398 10.123 C 9.718 10.001,10.023 9.681,10.149 9.335 L 10.201 9.190 10.196 5.980 L 10.190 2.770 10.124 2.605 C 9.982 2.254,9.687 1.976,9.330 1.857 L 9.190 1.811 6.230 1.808 C 4.602 1.807,3.149 1.812,3.000 1.820 M9.000 4.673 L 9.000 6.346 8.592 5.944 C 8.099 5.459,8.041 5.420,7.804 5.420 C 7.680 5.420,7.619 5.430,7.564 5.458 C 7.444 5.519,7.193 5.753,6.493 6.455 L 5.835 7.115 5.113 6.873 C 4.391 6.631,4.390 6.631,4.199 6.630 L 4.007 6.630 3.515 6.873 C 3.245 7.007,3.018 7.112,3.012 7.105 C 3.005 7.099,3.000 6.172,3.000 5.047 L 3.000 3.000 6.000 3.000 L 9.000 3.000 9.000 4.673 M4.340 3.619 C 4.211 3.642,4.113 3.688,3.970 3.790 C 3.823 3.894,3.724 4.022,3.659 4.190 C 3.591 4.364,3.593 4.640,3.662 4.817 C 3.749 5.038,3.962 5.252,4.183 5.338 C 4.361 5.407,4.638 5.409,4.805 5.343 C 5.040 5.249,5.251 5.039,5.342 4.805 C 5.407 4.640,5.407 4.356,5.343 4.196 C 5.244 3.947,5.039 3.745,4.800 3.662 C 4.668 3.616,4.463 3.597,4.340 3.619 M8.405 7.455 L 9.000 8.050 9.000 8.525 L 9.000 9.000 6.000 9.000 L 3.000 9.000 3.000 8.733 L 3.000 8.467 3.617 8.163 C 3.956 7.997,4.244 7.860,4.255 7.860 C 4.267 7.860,4.635 7.979,5.073 8.124 C 6.135 8.475,6.124 8.475,6.486 8.149 C 6.587 8.058,6.922 7.731,7.230 7.422 C 7.538 7.113,7.794 6.860,7.800 6.860 C 7.805 6.860,8.078 7.128,8.405 7.455 " fill="#1A1C1F" stroke="none" fill-rule="evenodd"></path></svg>