<svg xmlns="http://www.w3.org/2000/svg" width="16" height="16" fill="none"><g clip-path="url(#a)"><path fill="#1A1C1F" fill-rule="evenodd" d="M12 2.4c.844 0 1.602.744 1.6 1.6v8c0 .844-.742 1.602-1.6 1.6H4c-.843 0-1.595-.75-1.6-1.6V4c0-.843.76-1.595 1.6-1.6zM12 4H4v5.505l1.242-.62a.8.8 0 0 1 .51-.07l2.031.669 2.051-2.05a.8.8 0 0 1 1.056-.066l1.11 1.1zm-6 .8a1.2 1.2 0 1 1 0 2.4 1.2 1.2 0 0 1 0-2.4" clip-rule="evenodd"/></g><defs><clipPath id="a"><path fill="#fff" d="M0 0h16v16H0z"/></clipPath></defs></svg>