<svg xmlns="http://www.w3.org/2000/svg" width="14" height="14" fill="none"><g clip-path="url(#a)"><path fill="#1A1C1F" fill-rule="evenodd" d="M10.5 2.1c.738 0 1.402.65 1.4 1.4v7c0 .738-.65 1.402-1.4 1.4h-7c-.738 0-1.395-.656-1.4-1.4v-7c0-.738.666-1.396 1.4-1.4zm0 1.4h-7v4.817l1.087-.543a.7.7 0 0 1 .445-.061l1.778.585 1.795-1.793a.7.7 0 0 1 .924-.058l.971.962zm-5.25.7a1.05 1.05 0 1 1 0 2.1 1.05 1.05 0 0 1 0-2.1" clip-rule="evenodd"/></g><defs><clipPath id="a"><path fill="#fff" d="M0 0h14v14H0z"/></clipPath></defs></svg>