<svg width="16" height="16" viewBox="0 0 16 16" fill="none" xmlns="http://www.w3.org/2000/svg"><path d="M4.187 2.426 C 3.771 2.439,3.612 2.454,3.525 2.488 C 3.029 2.679,2.672 3.039,2.468 3.549 L 2.398 3.725 2.407 7.989 C 2.415 11.693,2.422 12.273,2.457 12.401 C 2.578 12.844,2.991 13.293,3.467 13.500 L 3.667 13.587 7.947 13.587 C 11.956 13.587,12.237 13.584,12.397 13.540 C 12.616 13.479,12.783 13.387,13.001 13.208 C 13.219 13.028,13.381 12.810,13.497 12.541 L 13.587 12.333 13.587 8.053 C 13.587 4.046,13.584 3.762,13.540 3.603 C 13.469 3.346,13.344 3.136,13.138 2.929 C 12.911 2.699,12.734 2.583,12.462 2.487 L 12.253 2.413 8.493 2.411 C 6.425 2.410,4.487 2.417,4.187 2.426 M12.000 6.231 L 12.000 8.462 11.473 7.943 C 11.184 7.658,10.887 7.383,10.813 7.332 C 10.689 7.246,10.664 7.239,10.437 7.231 C 10.235 7.223,10.177 7.231,10.090 7.275 C 9.925 7.359,9.597 7.664,8.657 8.607 L 7.781 9.486 6.817 9.164 C 5.855 8.842,5.853 8.841,5.598 8.841 L 5.343 8.840 4.687 9.165 C 4.326 9.343,4.024 9.482,4.016 9.473 C 4.007 9.465,4.000 8.230,4.000 6.729 L 4.000 4.000 8.000 4.000 L 12.000 4.000 12.000 6.231 M5.775 4.827 C 5.467 4.881,5.088 5.160,4.949 5.435 C 4.783 5.762,4.762 6.092,4.886 6.423 C 4.995 6.714,5.281 7.001,5.577 7.117 C 5.814 7.209,6.185 7.212,6.406 7.124 C 6.610 7.043,6.815 6.886,6.951 6.707 C 7.523 5.956,7.033 4.894,6.080 4.818 C 5.985 4.810,5.847 4.814,5.775 4.827 " fill="#1A1C1F" stroke="none" fill-rule="evenodd"></path></svg>