<svg width="9" height="9" viewBox="0 0 9 9" fill="none" xmlns="http://www.w3.org/2000/svg"><path d="M6.102 0.022 C 5.754 0.072,5.449 0.178,5.150 0.354 C 4.852 0.529,4.594 0.759,4.517 0.918 C 4.394 1.170,4.441 1.455,4.638 1.651 C 4.749 1.762,4.876 1.819,5.034 1.827 C 5.242 1.838,5.372 1.784,5.640 1.576 C 5.759 1.483,5.969 1.378,6.120 1.335 C 6.262 1.295,6.512 1.281,6.657 1.303 C 7.270 1.399,7.712 1.924,7.712 2.556 C 7.712 2.822,7.649 3.036,7.507 3.258 C 7.401 3.424,5.923 4.903,5.744 5.024 C 5.558 5.149,5.359 5.218,5.115 5.243 C 4.908 5.264,4.591 5.187,4.374 5.062 C 4.212 4.969,4.121 4.945,3.961 4.953 C 3.794 4.961,3.666 5.017,3.546 5.137 C 3.297 5.386,3.304 5.807,3.560 6.040 C 3.764 6.225,4.215 6.417,4.612 6.487 C 5.328 6.613,6.147 6.388,6.683 5.918 C 6.732 5.874,7.139 5.471,7.587 5.022 C 8.130 4.477,8.434 4.160,8.498 4.073 C 8.937 3.478,9.100 2.708,8.937 2.002 C 8.703 0.985,7.905 0.224,6.877 0.037 C 6.692 0.003,6.287 -0.005,6.102 0.022 M3.707 2.492 C 3.164 2.549,2.611 2.798,2.235 3.157 C 2.190 3.200,1.791 3.599,1.349 4.044 C 0.617 4.780,0.535 4.867,0.436 5.018 C 0.240 5.314,0.113 5.624,0.042 5.971 C -0.004 6.197,-0.007 6.664,0.035 6.877 C 0.176 7.589,0.540 8.155,1.107 8.547 C 1.867 9.073,2.833 9.144,3.682 8.737 C 4.028 8.572,4.391 8.272,4.490 8.070 C 4.535 7.978,4.537 7.964,4.537 7.800 C 4.537 7.636,4.535 7.623,4.489 7.529 C 4.350 7.245,4.038 7.107,3.740 7.197 C 3.634 7.230,3.532 7.291,3.360 7.424 C 3.240 7.518,3.030 7.623,2.880 7.666 C 2.718 7.711,2.458 7.721,2.294 7.688 C 1.650 7.558,1.219 6.961,1.291 6.300 C 1.318 6.063,1.406 5.844,1.552 5.656 C 1.588 5.610,1.967 5.224,2.395 4.799 C 3.034 4.162,3.193 4.012,3.287 3.954 C 3.514 3.815,3.766 3.753,4.034 3.770 C 4.271 3.785,4.446 3.843,4.741 4.005 C 4.978 4.134,5.245 4.087,5.454 3.879 C 5.763 3.570,5.701 3.108,5.319 2.867 C 4.855 2.574,4.255 2.435,3.707 2.492 " fill="#1A1C1E" stroke="none" fill-rule="evenodd"></path></svg>