<svg width="12" height="12" viewBox="0 0 12 12" fill="none" xmlns="http://www.w3.org/2000/svg"><path d="M7.470 1.802 C 6.862 1.890,6.106 2.350,5.989 2.703 C 5.942 2.844,5.947 3.013,6.001 3.139 C 6.063 3.282,6.229 3.430,6.375 3.472 C 6.583 3.533,6.774 3.482,7.003 3.307 C 7.181 3.170,7.292 3.109,7.462 3.053 C 7.664 2.986,7.852 2.971,8.052 3.007 C 8.868 3.152,9.276 4.088,8.839 4.809 C 8.795 4.881,8.499 5.191,7.981 5.706 C 7.116 6.566,7.097 6.582,6.788 6.660 C 6.485 6.738,6.205 6.697,5.880 6.527 C 5.653 6.408,5.501 6.390,5.317 6.459 C 4.940 6.601,4.812 7.094,5.073 7.398 C 5.207 7.554,5.559 7.728,5.960 7.835 C 6.128 7.880,6.190 7.886,6.490 7.887 C 6.739 7.887,6.869 7.878,6.977 7.854 C 7.301 7.779,7.576 7.663,7.850 7.484 C 8.034 7.365,9.610 5.801,9.768 5.581 C 10.062 5.172,10.220 4.684,10.220 4.180 C 10.220 2.843,9.141 1.768,7.812 1.782 C 7.690 1.784,7.536 1.793,7.470 1.802 M5.190 4.123 C 4.838 4.168,4.461 4.312,4.148 4.520 C 3.949 4.653,2.442 6.144,2.250 6.398 C 1.788 7.009,1.654 7.858,1.903 8.590 C 2.330 9.844,3.672 10.512,4.931 10.099 C 5.420 9.938,5.922 9.566,6.011 9.298 C 6.088 9.066,6.032 8.832,5.860 8.672 C 5.728 8.549,5.641 8.514,5.460 8.513 C 5.277 8.512,5.192 8.547,4.980 8.709 C 4.799 8.847,4.697 8.901,4.499 8.963 C 4.286 9.029,4.007 9.029,3.801 8.961 C 3.320 8.804,2.982 8.337,2.980 7.829 C 2.980 7.639,3.016 7.484,3.104 7.300 C 3.183 7.133,3.198 7.117,3.947 6.364 C 4.367 5.942,4.753 5.565,4.806 5.526 C 4.858 5.487,4.966 5.428,5.046 5.394 C 5.172 5.341,5.219 5.332,5.420 5.325 C 5.713 5.314,5.856 5.346,6.126 5.484 C 6.366 5.607,6.490 5.626,6.663 5.569 C 6.816 5.518,7.004 5.328,7.048 5.180 C 7.154 4.823,7.007 4.574,6.560 4.354 C 6.127 4.142,5.660 4.063,5.190 4.123 " fill="#1A1C1F" stroke="none" fill-rule="evenodd"></path></svg>