<svg width="20" height="20" viewBox="0 0 20 20" fill="none" xmlns="http://www.w3.org/2000/svg"><path d="M12.533 3.000 C 11.861 3.079,11.098 3.407,10.526 3.862 C 10.228 4.098,10.114 4.230,10.008 4.461 C 9.939 4.610,9.928 4.676,9.940 4.877 C 9.947 5.021,9.979 5.170,10.017 5.250 C 10.118 5.459,10.360 5.680,10.578 5.762 C 10.948 5.900,11.166 5.846,11.724 5.476 C 12.278 5.109,12.496 5.025,12.951 5.007 C 13.395 4.989,13.619 5.031,13.938 5.190 C 14.989 5.716,15.349 7.089,14.692 8.065 C 14.529 8.307,12.115 10.700,11.872 10.860 C 11.468 11.126,10.931 11.225,10.460 11.120 C 10.323 11.089,10.040 10.982,9.831 10.882 C 9.475 10.711,9.436 10.700,9.201 10.700 C 8.855 10.700,8.731 10.743,8.522 10.934 C 8.080 11.338,8.068 11.976,8.496 12.376 C 8.786 12.648,9.333 12.902,9.965 13.058 C 10.263 13.132,10.393 13.146,10.817 13.147 C 11.371 13.149,11.674 13.099,12.167 12.926 C 12.947 12.651,13.127 12.510,14.651 10.985 C 15.367 10.269,16.050 9.569,16.168 9.430 C 16.672 8.836,16.984 7.989,17.022 7.117 C 17.071 5.968,16.648 4.908,15.823 4.109 C 15.239 3.545,14.614 3.212,13.834 3.050 C 13.528 2.986,12.868 2.961,12.533 3.000 M8.317 6.931 C 7.863 7.038,7.264 7.294,6.927 7.527 C 6.522 7.805,3.990 10.328,3.694 10.747 C 2.984 11.752,2.782 13.059,3.153 14.239 C 3.359 14.892,3.658 15.371,4.181 15.883 C 4.742 16.434,5.238 16.714,6.026 16.924 C 6.315 17.002,6.412 17.011,6.933 17.012 C 7.554 17.013,7.761 16.982,8.254 16.816 C 8.957 16.580,9.755 16.014,9.967 15.599 C 10.075 15.389,10.095 15.037,10.011 14.825 C 9.921 14.601,9.731 14.388,9.528 14.287 C 9.389 14.218,9.305 14.200,9.118 14.200 C 8.783 14.200,8.680 14.239,8.311 14.502 C 7.758 14.897,7.442 15.010,6.883 15.010 C 6.351 15.010,5.989 14.854,5.580 14.450 C 5.271 14.145,5.098 13.839,5.017 13.450 C 4.873 12.764,5.041 12.221,5.581 11.625 C 6.036 11.123,7.891 9.299,8.075 9.173 C 8.352 8.982,8.639 8.893,9.033 8.875 C 9.473 8.856,9.706 8.908,10.203 9.135 C 10.774 9.395,11.023 9.392,11.371 9.119 C 11.719 8.846,11.850 8.518,11.769 8.125 C 11.686 7.727,11.378 7.444,10.736 7.173 C 10.175 6.936,9.968 6.896,9.233 6.881 C 8.682 6.870,8.543 6.878,8.317 6.931 " fill="#1A1C1F" stroke="none" fill-rule="evenodd"></path></svg>