<svg width="16" height="16" viewBox="0 0 16 16" fill="none" xmlns="http://www.w3.org/2000/svg"><path d="M10.093 2.389 C 9.619 2.459,9.388 2.531,8.976 2.741 C 8.507 2.979,8.154 3.270,8.024 3.525 C 7.944 3.681,7.928 3.924,7.985 4.119 C 8.045 4.325,8.242 4.527,8.462 4.609 C 8.758 4.720,8.933 4.677,9.374 4.384 C 9.836 4.078,10.058 4.000,10.467 4.000 C 10.894 4.000,11.209 4.125,11.520 4.417 C 11.856 4.734,12.012 5.101,12.011 5.573 C 12.010 6.038,11.900 6.298,11.535 6.700 C 11.108 7.171,9.676 8.567,9.497 8.687 C 9.185 8.895,8.753 8.977,8.381 8.898 C 8.275 8.875,8.064 8.803,7.913 8.737 C 7.762 8.671,7.581 8.603,7.511 8.585 C 7.195 8.505,6.856 8.671,6.679 8.991 C 6.610 9.116,6.600 9.160,6.600 9.347 C 6.601 9.738,6.765 9.954,7.234 10.183 C 7.726 10.423,8.131 10.517,8.667 10.516 C 9.172 10.515,9.585 10.426,10.024 10.224 C 10.465 10.021,10.619 9.891,11.721 8.788 C 12.294 8.215,12.840 7.655,12.935 7.543 C 13.139 7.303,13.348 6.915,13.465 6.560 C 13.845 5.407,13.539 4.141,12.676 3.305 C 12.195 2.838,11.702 2.575,11.056 2.438 C 10.873 2.399,10.244 2.367,10.093 2.389 M6.720 5.531 C 6.348 5.609,5.820 5.829,5.536 6.025 C 5.217 6.245,3.189 8.266,2.955 8.598 C 2.205 9.660,2.179 11.088,2.890 12.169 C 3.695 13.394,5.177 13.919,6.558 13.467 C 7.016 13.318,7.582 12.970,7.834 12.683 C 8.112 12.367,8.126 11.914,7.867 11.620 C 7.710 11.442,7.529 11.360,7.295 11.360 C 7.030 11.360,6.942 11.392,6.675 11.584 C 6.397 11.783,6.237 11.868,5.997 11.942 C 5.728 12.025,5.490 12.039,5.240 11.987 C 4.906 11.917,4.713 11.812,4.464 11.563 C 4.214 11.312,4.078 11.068,4.010 10.747 C 3.931 10.372,4.020 9.898,4.232 9.573 C 4.344 9.400,6.275 7.462,6.460 7.337 C 6.684 7.185,6.913 7.114,7.227 7.100 C 7.583 7.085,7.773 7.128,8.169 7.313 C 8.439 7.440,8.484 7.453,8.653 7.453 C 8.813 7.453,8.861 7.441,8.987 7.371 C 9.178 7.263,9.346 7.057,9.403 6.860 C 9.492 6.558,9.373 6.223,9.106 6.021 C 8.885 5.854,8.524 5.691,8.107 5.572 C 7.849 5.498,6.998 5.473,6.720 5.531 " fill="#1A1C1F" stroke="none" fill-rule="evenodd"></path></svg>