<svg width="24" height="24" viewBox="0 0 24 24" fill="none" xmlns="http://www.w3.org/2000/svg"><path d="M15.960 3.083 C 15.211 3.166,14.393 3.493,13.758 3.964 C 13.412 4.220,12.158 5.455,11.775 5.916 C 11.495 6.254,11.436 6.484,11.543 6.825 C 11.728 7.414,12.371 7.708,12.912 7.452 C 12.988 7.416,13.412 7.034,13.856 6.603 C 14.842 5.646,15.031 5.484,15.350 5.324 C 15.736 5.131,16.065 5.068,16.580 5.091 C 17.258 5.121,17.687 5.307,18.168 5.779 C 18.677 6.280,18.873 6.725,18.909 7.460 C 18.940 8.111,18.813 8.528,18.428 9.040 C 18.193 9.353,14.922 12.619,14.552 12.910 C 14.076 13.285,13.589 13.431,12.967 13.387 C 12.318 13.340,11.869 13.167,11.380 12.774 C 10.997 12.466,10.804 12.384,10.531 12.412 C 9.904 12.477,9.499 13.045,9.638 13.665 C 9.684 13.871,9.721 13.929,9.955 14.161 C 10.558 14.760,11.342 15.170,12.260 15.366 C 12.574 15.433,13.552 15.432,13.860 15.365 C 14.651 15.190,15.277 14.910,15.782 14.504 C 16.206 14.163,19.855 10.490,20.098 10.160 C 20.450 9.681,20.745 8.999,20.886 8.340 C 20.952 8.030,20.952 7.050,20.886 6.740 C 20.631 5.548,19.951 4.499,19.029 3.873 C 18.682 3.637,17.948 3.297,17.580 3.202 C 17.010 3.054,16.540 3.019,15.960 3.083 M9.921 8.680 C 9.503 8.793,9.237 8.897,8.826 9.109 C 8.419 9.319,8.218 9.470,7.664 9.977 C 7.135 10.463,4.211 13.461,3.940 13.797 C 3.298 14.592,2.950 15.862,3.079 16.938 C 3.332 19.034,4.926 20.643,7.029 20.924 C 7.850 21.033,8.855 20.846,9.641 20.437 C 10.096 20.200,10.489 19.862,11.487 18.849 C 12.321 18.001,12.399 17.910,12.464 17.705 C 12.524 17.515,12.527 17.453,12.485 17.267 C 12.409 16.927,12.266 16.743,11.946 16.575 C 11.693 16.443,11.651 16.432,11.449 16.456 C 11.327 16.470,11.169 16.510,11.097 16.544 C 11.026 16.578,10.547 17.012,10.035 17.510 C 9.522 18.007,9.000 18.479,8.875 18.560 C 8.336 18.909,7.601 19.036,6.999 18.885 C 6.467 18.752,6.190 18.594,5.800 18.202 C 5.259 17.658,5.081 17.228,5.080 16.458 C 5.080 15.768,5.189 15.445,5.595 14.940 C 5.864 14.604,8.284 12.150,9.028 11.457 C 9.769 10.768,10.176 10.587,10.980 10.590 C 11.605 10.592,12.065 10.766,12.614 11.209 C 12.973 11.498,13.113 11.560,13.411 11.560 C 13.991 11.560,14.400 11.144,14.400 10.555 C 14.400 10.196,14.191 9.891,13.680 9.502 C 13.211 9.145,12.744 8.909,12.160 8.732 C 11.854 8.639,11.740 8.627,11.020 8.614 C 10.315 8.602,10.185 8.609,9.921 8.680 " fill="#1A1C1F" stroke="none" fill-rule="evenodd"></path></svg>