<svg width="24" height="24" viewBox="0 0 24 24" fill="none" xmlns="http://www.w3.org/2000/svg"><path d="M15.920 3.082 C 15.037 3.187,14.240 3.539,13.528 4.139 C 13.336 4.300,12.826 4.801,12.393 5.252 C 11.687 5.987,11.599 6.093,11.543 6.283 C 11.465 6.545,11.465 6.575,11.542 6.835 C 11.701 7.371,12.275 7.672,12.805 7.500 C 12.999 7.436,13.108 7.342,13.940 6.519 C 14.495 5.970,14.962 5.543,15.117 5.444 C 15.503 5.196,15.931 5.073,16.420 5.070 C 17.149 5.064,17.689 5.285,18.202 5.798 C 18.714 6.310,18.924 6.820,18.926 7.560 C 18.928 7.907,18.910 8.037,18.823 8.309 C 18.639 8.882,18.492 9.054,16.453 11.084 C 14.406 13.122,14.373 13.150,13.742 13.322 C 13.474 13.396,13.354 13.406,12.982 13.389 C 12.313 13.359,11.780 13.142,11.287 12.699 C 11.048 12.484,10.863 12.400,10.628 12.400 C 9.908 12.400,9.428 13.081,9.663 13.771 C 9.709 13.906,9.803 14.028,10.013 14.228 C 10.998 15.164,12.410 15.597,13.759 15.378 C 14.175 15.311,14.722 15.140,15.049 14.976 C 15.703 14.649,15.865 14.506,17.952 12.405 C 19.469 10.878,20.017 10.300,20.182 10.055 C 21.361 8.302,21.171 5.984,19.723 4.467 C 19.311 4.036,18.981 3.796,18.420 3.519 C 17.606 3.118,16.798 2.977,15.920 3.082 M10.300 8.602 C 9.690 8.696,9.008 8.956,8.492 9.290 C 8.060 9.569,7.667 9.942,5.738 11.906 C 4.220 13.451,3.904 13.793,3.729 14.077 C 2.614 15.890,2.893 18.194,4.406 19.665 C 5.627 20.852,7.368 21.256,8.962 20.722 C 9.839 20.428,10.204 20.164,11.373 18.983 C 11.897 18.453,12.360 17.953,12.403 17.870 C 12.570 17.551,12.543 17.218,12.325 16.874 C 12.233 16.729,12.149 16.660,11.943 16.559 C 11.711 16.444,11.653 16.431,11.446 16.450 C 11.318 16.462,11.152 16.502,11.076 16.541 C 11.001 16.579,10.508 17.037,9.980 17.558 C 9.082 18.445,8.998 18.518,8.680 18.674 C 8.099 18.960,7.523 19.029,6.944 18.881 C 6.093 18.663,5.413 18.019,5.149 17.180 C 5.030 16.800,5.030 16.098,5.149 15.733 C 5.346 15.130,5.386 15.083,7.495 12.975 C 9.435 11.035,9.464 11.008,9.800 10.844 C 10.770 10.371,11.830 10.513,12.639 11.224 C 12.959 11.505,13.112 11.573,13.420 11.571 C 13.837 11.569,14.161 11.360,14.321 10.990 C 14.521 10.525,14.390 10.086,13.934 9.700 C 13.286 9.149,12.648 8.828,11.860 8.655 C 11.523 8.580,10.632 8.550,10.300 8.602 " fill="#1A1C1F" stroke="none" fill-rule="evenodd"></path></svg>