<svg width="28" height="28" viewBox="0 0 28 28" fill="none" xmlns="http://www.w3.org/2000/svg"><path d="M18.807 2.982 C 18.317 3.091,18.038 3.186,17.617 3.387 C 16.861 3.748,16.341 4.183,15.043 5.538 C 14.031 6.595,13.978 6.682,14.096 7.106 C 14.157 7.326,14.393 7.600,14.593 7.684 C 14.772 7.758,15.065 7.765,15.239 7.699 C 15.307 7.673,15.898 7.132,16.551 6.498 C 17.789 5.295,18.111 5.043,18.667 4.836 C 19.554 4.507,20.622 4.567,21.467 4.994 C 23.334 5.937,23.949 8.322,22.777 10.081 C 22.473 10.537,17.211 15.752,16.777 16.027 C 16.074 16.473,15.061 16.668,14.297 16.505 C 13.554 16.346,13.071 16.084,12.390 15.469 C 12.149 15.251,11.897 15.052,11.829 15.026 C 11.381 14.856,10.814 15.160,10.685 15.639 C 10.584 16.015,10.687 16.230,11.219 16.752 C 12.289 17.801,13.512 18.309,14.957 18.302 C 16.336 18.297,17.434 17.858,18.541 16.872 C 19.224 16.263,23.833 11.584,24.105 11.223 C 24.780 10.327,25.118 9.294,25.120 8.120 C 25.121 7.441,25.052 7.015,24.840 6.393 C 24.290 4.777,22.902 3.494,21.203 3.031 C 20.665 2.885,19.365 2.858,18.807 2.982 M12.502 9.707 C 11.551 9.815,10.658 10.176,9.875 10.767 C 9.508 11.044,4.578 15.948,4.128 16.482 C 3.579 17.135,3.304 17.656,3.059 18.499 C 2.445 20.620,3.334 23.003,5.205 24.248 C 7.062 25.485,9.424 25.423,11.247 24.092 C 11.671 23.782,13.795 21.643,13.887 21.433 C 14.009 21.156,13.939 20.750,13.730 20.518 C 13.516 20.281,13.028 20.182,12.730 20.314 C 12.660 20.345,12.051 20.906,11.377 21.561 C 10.023 22.874,9.809 23.027,9.027 23.245 C 8.527 23.385,7.785 23.385,7.264 23.246 C 6.037 22.918,5.068 21.949,4.759 20.738 C 4.646 20.299,4.637 19.539,4.737 19.064 C 4.844 18.562,5.165 17.963,5.591 17.476 C 6.164 16.820,10.888 12.185,11.188 11.985 C 12.126 11.359,13.464 11.259,14.498 11.736 C 14.943 11.941,15.206 12.127,15.667 12.561 C 16.133 13.000,16.333 13.078,16.717 12.971 C 17.068 12.874,17.358 12.495,17.358 12.133 C 17.358 11.866,17.207 11.617,16.818 11.243 C 16.194 10.645,15.631 10.280,14.910 10.008 C 14.210 9.744,13.245 9.623,12.502 9.707 " fill="#1A1C1F" stroke="none" fill-rule="evenodd"></path></svg>