<svg width="14" height="14" viewBox="0 0 14 14" fill="none" xmlns="http://www.w3.org/2000/svg"><path d="M8.750 2.100 C 8.374 2.144,7.930 2.315,7.574 2.553 C 7.312 2.728,7.116 2.912,7.034 3.060 C 6.974 3.170,6.965 3.208,6.965 3.372 C 6.966 3.601,7.019 3.733,7.173 3.882 C 7.298 4.003,7.444 4.060,7.628 4.060 C 7.825 4.060,7.909 4.027,8.184 3.844 C 8.484 3.644,8.723 3.536,8.945 3.499 C 9.524 3.401,10.124 3.728,10.391 4.289 C 10.589 4.702,10.555 5.230,10.308 5.603 C 10.199 5.768,8.501 7.481,8.337 7.592 C 8.197 7.686,7.876 7.791,7.673 7.808 C 7.447 7.827,7.209 7.768,6.860 7.606 C 6.608 7.488,6.596 7.485,6.421 7.494 C 6.022 7.512,5.752 7.789,5.754 8.178 C 5.755 8.383,5.814 8.524,5.960 8.665 C 6.153 8.853,6.689 9.088,7.117 9.173 C 7.335 9.215,7.905 9.209,8.116 9.162 C 8.348 9.109,8.600 9.023,8.808 8.924 C 9.180 8.748,9.301 8.644,10.279 7.666 C 10.793 7.152,11.285 6.642,11.372 6.533 C 11.599 6.248,11.782 5.850,11.868 5.452 C 11.925 5.186,11.936 4.673,11.890 4.411 C 11.786 3.813,11.517 3.303,11.081 2.876 C 10.683 2.486,10.238 2.247,9.706 2.135 C 9.498 2.091,8.985 2.072,8.750 2.100 M5.985 4.819 C 5.571 4.894,5.190 5.045,4.855 5.267 C 4.696 5.372,4.456 5.598,3.686 6.369 C 3.153 6.902,2.662 7.412,2.595 7.502 C 2.271 7.935,2.077 8.547,2.077 9.135 C 2.077 10.227,2.697 11.200,3.689 11.665 C 4.113 11.864,4.477 11.935,4.982 11.916 C 5.365 11.903,5.600 11.852,5.946 11.709 C 6.450 11.500,6.923 11.113,7.020 10.829 C 7.096 10.606,7.022 10.296,6.854 10.134 C 6.704 9.989,6.574 9.932,6.393 9.931 C 6.185 9.931,6.096 9.966,5.792 10.167 C 5.461 10.387,5.258 10.473,4.997 10.506 C 4.337 10.588,3.702 10.134,3.521 9.450 C 3.481 9.299,3.486 8.951,3.531 8.778 C 3.598 8.522,3.678 8.389,3.931 8.113 C 4.296 7.714,5.479 6.554,5.643 6.433 C 5.856 6.276,6.007 6.226,6.306 6.212 C 6.640 6.197,6.790 6.229,7.128 6.388 C 7.378 6.506,7.425 6.520,7.560 6.521 C 7.928 6.523,8.260 6.191,8.260 5.822 C 8.260 5.515,8.078 5.288,7.677 5.093 C 7.388 4.953,7.105 4.860,6.874 4.831 C 6.547 4.789,6.180 4.784,5.985 4.819 " fill="#1A1C1F" stroke="none" fill-rule="evenodd"></path></svg>