<svg width="12" height="12" viewBox="0 0 12 12" fill="none" xmlns="http://www.w3.org/2000/svg"><path d="M7.490 1.803 C 7.167 1.840,6.673 2.049,6.362 2.280 C 6.085 2.486,5.981 2.639,5.965 2.862 C 5.947 3.107,6.060 3.308,6.283 3.430 C 6.372 3.478,6.414 3.488,6.530 3.489 C 6.697 3.490,6.831 3.435,7.040 3.280 C 7.299 3.088,7.553 3.000,7.850 3.000 C 8.189 3.000,8.422 3.097,8.662 3.338 C 8.995 3.672,9.100 4.140,8.941 4.591 C 8.874 4.783,8.790 4.886,8.258 5.428 C 7.639 6.059,7.188 6.483,7.052 6.561 C 6.932 6.629,6.650 6.700,6.496 6.700 C 6.339 6.700,6.116 6.637,5.877 6.527 C 5.687 6.438,5.657 6.430,5.520 6.431 C 5.397 6.431,5.352 6.440,5.268 6.485 C 5.065 6.590,4.940 6.799,4.940 7.029 C 4.940 7.318,5.124 7.516,5.561 7.698 C 5.666 7.742,5.840 7.801,5.948 7.829 C 6.124 7.875,6.183 7.880,6.509 7.880 C 6.809 7.880,6.902 7.873,7.032 7.840 C 7.313 7.768,7.586 7.652,7.805 7.512 C 8.039 7.362,9.591 5.824,9.785 5.550 C 10.353 4.747,10.363 3.669,9.811 2.841 C 9.652 2.601,9.337 2.295,9.095 2.144 C 8.625 1.852,8.081 1.736,7.490 1.803 M5.220 4.123 C 4.759 4.176,4.305 4.376,3.962 4.679 C 3.592 5.004,2.316 6.300,2.203 6.465 C 2.052 6.686,1.927 6.964,1.855 7.235 C 1.797 7.456,1.793 7.491,1.793 7.830 C 1.793 8.155,1.798 8.209,1.845 8.384 C 1.963 8.824,2.138 9.145,2.426 9.451 C 2.772 9.819,3.114 10.020,3.618 10.155 C 3.789 10.201,3.849 10.207,4.160 10.207 C 4.532 10.208,4.656 10.189,4.952 10.090 C 5.371 9.949,5.835 9.624,5.969 9.379 C 6.090 9.156,6.056 8.886,5.884 8.702 C 5.756 8.567,5.649 8.521,5.460 8.521 C 5.277 8.521,5.225 8.543,4.930 8.743 C 4.634 8.944,4.454 9.005,4.160 9.006 C 3.983 9.007,3.925 8.998,3.792 8.953 C 3.225 8.758,2.885 8.162,3.008 7.579 C 3.080 7.243,3.174 7.127,4.165 6.146 C 4.752 5.565,4.807 5.517,4.958 5.441 C 5.149 5.345,5.347 5.309,5.590 5.328 C 5.799 5.344,5.866 5.364,6.130 5.487 C 6.330 5.580,6.363 5.590,6.490 5.589 C 6.596 5.589,6.651 5.578,6.716 5.544 C 6.841 5.478,6.944 5.377,7.011 5.256 C 7.062 5.164,7.070 5.129,7.070 4.990 C 7.070 4.705,6.943 4.551,6.550 4.358 C 6.115 4.145,5.684 4.069,5.220 4.123 " fill="#1A1C1F" stroke="none" fill-rule="evenodd"></path></svg>