<svg width="28" height="28" viewBox="0 0 28 28" fill="none" xmlns="http://www.w3.org/2000/svg"><path d="M19.273 2.924 C 18.739 2.961,18.129 3.140,17.547 3.431 C 16.805 3.802,16.193 4.321,14.992 5.597 C 14.133 6.510,14.022 6.676,14.069 6.983 C 14.105 7.228,14.330 7.538,14.559 7.660 C 14.770 7.772,15.103 7.772,15.283 7.659 C 15.360 7.611,15.882 7.135,16.443 6.600 C 17.644 5.456,18.012 5.148,18.401 4.959 C 19.657 4.350,21.281 4.612,22.292 5.586 C 23.414 6.667,23.682 8.360,22.953 9.762 C 22.792 10.072,22.609 10.285,21.675 11.255 C 20.536 12.437,17.612 15.308,17.068 15.779 C 16.719 16.081,16.462 16.225,16.007 16.372 C 15.063 16.677,14.193 16.608,13.334 16.159 C 13.160 16.068,12.808 15.818,12.552 15.602 C 11.943 15.090,11.776 14.980,11.607 14.980 C 11.185 14.980,10.797 15.263,10.688 15.651 C 10.585 16.021,10.664 16.183,11.217 16.729 C 11.960 17.463,12.703 17.899,13.617 18.138 C 14.175 18.285,15.143 18.335,15.734 18.248 C 16.543 18.130,17.376 17.774,18.082 17.246 C 18.536 16.907,20.055 15.417,22.343 13.067 C 24.175 11.186,24.414 10.891,24.717 10.149 C 25.035 9.370,25.077 9.131,25.078 8.097 C 25.080 7.207,25.074 7.144,24.951 6.746 C 24.652 5.778,24.315 5.190,23.686 4.534 C 23.221 4.050,22.833 3.757,22.262 3.460 C 21.372 2.998,20.492 2.840,19.273 2.924 M12.069 9.776 C 11.334 9.929,10.512 10.297,9.938 10.729 C 9.583 10.997,5.398 15.120,4.521 16.067 C 4.193 16.421,3.839 16.841,3.734 17.000 C 3.180 17.841,2.881 18.846,2.878 19.880 C 2.874 21.300,3.424 22.593,4.467 23.621 C 5.467 24.606,6.694 25.117,8.073 25.122 C 8.961 25.126,9.747 24.935,10.539 24.523 C 11.159 24.202,11.457 23.950,12.698 22.696 C 13.563 21.822,13.860 21.493,13.904 21.358 C 14.021 21.003,13.861 20.564,13.547 20.381 C 13.333 20.256,12.934 20.223,12.755 20.316 C 12.677 20.356,12.198 20.784,11.692 21.266 C 11.186 21.749,10.600 22.295,10.391 22.481 C 9.696 23.096,9.073 23.333,8.151 23.333 C 7.511 23.333,7.159 23.252,6.580 22.970 C 6.204 22.787,6.073 22.690,5.716 22.332 C 5.242 21.857,5.003 21.482,4.822 20.930 C 4.713 20.600,4.698 20.478,4.695 19.880 C 4.690 19.127,4.739 18.890,5.015 18.343 C 5.304 17.771,5.605 17.432,7.484 15.563 C 10.366 12.697,11.086 12.028,11.518 11.812 C 12.190 11.475,12.922 11.369,13.669 11.499 C 14.422 11.631,14.915 11.887,15.610 12.509 C 15.815 12.693,16.066 12.885,16.166 12.937 C 16.632 13.174,17.284 12.775,17.347 12.213 C 17.381 11.912,17.198 11.601,16.731 11.167 C 16.034 10.518,15.265 10.083,14.420 9.860 C 14.049 9.762,13.847 9.740,13.183 9.726 C 12.621 9.714,12.297 9.729,12.069 9.776 " fill="#1A1C1F" stroke="none" fill-rule="evenodd"></path></svg>