<svg width="20" height="20" viewBox="0 0 20 20" fill="none" xmlns="http://www.w3.org/2000/svg"><path d="M12.381 3.019 C 11.577 3.154,10.699 3.611,10.206 4.150 C 9.809 4.584,9.830 5.177,10.256 5.567 C 10.621 5.900,11.104 5.919,11.522 5.616 C 12.194 5.129,12.524 4.992,13.033 4.989 C 13.399 4.986,13.635 5.036,13.917 5.173 C 14.729 5.572,15.161 6.443,14.998 7.352 C 14.978 7.461,14.901 7.677,14.827 7.833 C 14.695 8.112,14.673 8.137,13.376 9.437 C 11.981 10.837,11.868 10.933,11.433 11.070 C 10.891 11.243,10.381 11.181,9.802 10.872 C 9.459 10.689,9.443 10.685,9.183 10.684 C 8.866 10.684,8.676 10.758,8.476 10.958 C 8.087 11.346,8.084 11.975,8.468 12.360 C 8.695 12.588,9.229 12.855,9.767 13.011 C 10.936 13.350,12.257 13.102,13.233 12.362 C 13.564 12.110,16.113 9.545,16.310 9.264 C 16.775 8.602,17.033 7.782,17.033 6.967 C 17.033 4.738,15.238 2.950,13.021 2.970 C 12.817 2.972,12.529 2.994,12.381 3.019 M8.650 6.869 C 8.048 6.952,7.431 7.188,6.914 7.533 C 6.581 7.755,4.070 10.239,3.750 10.664 C 2.708 12.042,2.705 14.010,3.740 15.407 C 4.769 16.794,6.520 17.363,8.172 16.847 C 8.984 16.594,9.868 15.948,10.017 15.500 C 10.145 15.112,10.052 14.720,9.767 14.453 C 9.547 14.248,9.402 14.190,9.100 14.188 C 8.799 14.186,8.625 14.255,8.322 14.495 C 7.861 14.861,7.444 15.015,6.917 15.016 C 6.652 15.017,6.532 15.000,6.335 14.935 C 5.537 14.674,4.969 13.897,4.967 13.064 C 4.966 12.732,5.024 12.479,5.172 12.167 C 5.305 11.886,5.322 11.868,6.662 10.529 C 7.948 9.242,8.029 9.168,8.267 9.055 C 8.588 8.903,8.778 8.862,9.154 8.862 C 9.545 8.863,9.799 8.930,10.216 9.143 C 10.779 9.431,11.108 9.398,11.489 9.017 C 11.657 8.849,11.705 8.775,11.752 8.616 C 11.856 8.256,11.755 7.860,11.495 7.610 C 11.233 7.359,10.577 7.060,10.000 6.930 C 9.664 6.855,8.980 6.824,8.650 6.869 " fill="#1A1C1F" stroke="none" fill-rule="evenodd"></path></svg>