<svg width="16" height="16" viewBox="0 0 16 16" fill="none" xmlns="http://www.w3.org/2000/svg"><path d="M9.960 2.403 C 9.326 2.494,8.563 2.884,8.165 3.320 C 7.992 3.509,7.936 3.671,7.952 3.930 C 7.968 4.167,8.033 4.300,8.215 4.463 C 8.500 4.719,8.888 4.731,9.218 4.493 C 9.547 4.254,9.734 4.144,9.926 4.078 C 10.617 3.839,11.352 4.078,11.748 4.672 C 11.914 4.920,12.001 5.171,12.020 5.456 C 12.039 5.751,11.991 5.996,11.862 6.267 C 11.756 6.490,11.737 6.510,10.701 7.550 C 9.585 8.670,9.495 8.746,9.147 8.856 C 8.732 8.988,8.324 8.944,7.875 8.718 C 7.427 8.493,7.134 8.509,6.843 8.775 C 6.580 9.016,6.510 9.372,6.663 9.695 C 6.754 9.887,6.876 9.999,7.165 10.152 C 8.254 10.732,9.612 10.628,10.586 9.889 C 10.851 9.688,12.891 7.636,13.048 7.412 C 13.309 7.039,13.495 6.586,13.588 6.092 C 13.653 5.747,13.630 5.148,13.539 4.798 C 13.211 3.544,12.226 2.634,10.961 2.416 C 10.695 2.371,10.228 2.364,9.960 2.403 M6.936 5.495 C 6.457 5.555,5.952 5.746,5.531 6.027 C 5.265 6.204,3.256 8.191,3.000 8.531 C 2.712 8.912,2.506 9.394,2.411 9.907 C 2.347 10.255,2.370 10.854,2.461 11.202 C 2.766 12.369,3.631 13.234,4.798 13.539 C 5.146 13.630,5.745 13.653,6.093 13.589 C 6.606 13.494,7.086 13.289,7.472 12.999 C 7.936 12.651,8.071 12.432,8.048 12.070 C 8.032 11.840,7.969 11.705,7.804 11.553 C 7.635 11.397,7.518 11.352,7.280 11.351 C 7.039 11.349,6.900 11.404,6.658 11.596 C 5.836 12.247,4.796 12.133,4.253 11.333 C 3.928 10.853,3.885 10.264,4.138 9.733 C 4.244 9.509,4.259 9.493,5.329 8.423 C 6.359 7.394,6.423 7.334,6.613 7.244 C 6.869 7.123,7.023 7.089,7.320 7.089 C 7.630 7.088,7.838 7.144,8.173 7.314 C 8.488 7.476,8.654 7.502,8.884 7.425 C 9.092 7.356,9.332 7.110,9.398 6.897 C 9.487 6.611,9.407 6.290,9.196 6.088 C 8.986 5.887,8.461 5.648,8.000 5.545 C 7.731 5.484,7.213 5.460,6.936 5.495 " fill="#1A1C1F" stroke="none" fill-rule="evenodd"></path></svg>