<svg width="32" height="32" viewBox="0 0 32 32" fill="none" xmlns="http://www.w3.org/2000/svg"><path d="M21.893 3.358 C 20.966 3.456,19.986 3.862,19.093 4.520 C 18.657 4.840,16.650 6.839,16.302 7.299 C 16.114 7.547,16.085 7.621,16.083 7.867 C 16.081 8.098,16.110 8.193,16.241 8.382 C 16.531 8.800,17.110 8.975,17.467 8.753 C 17.555 8.698,18.152 8.153,18.795 7.540 C 20.454 5.958,20.709 5.765,21.511 5.486 C 21.903 5.350,22.016 5.335,22.640 5.335 C 23.468 5.335,23.832 5.411,24.447 5.710 C 25.689 6.314,26.506 7.462,26.675 8.842 C 26.819 10.019,26.412 11.123,25.436 12.206 C 24.963 12.730,21.582 16.068,19.977 17.595 C 19.194 18.340,19.018 18.464,18.455 18.669 C 17.575 18.990,16.695 19.009,15.854 18.727 C 15.248 18.525,14.845 18.286,14.317 17.818 C 13.711 17.281,13.474 17.146,13.144 17.149 C 12.683 17.154,12.337 17.443,12.206 17.933 C 12.103 18.316,12.238 18.595,12.784 19.131 C 13.975 20.300,15.466 20.925,17.067 20.925 C 18.286 20.925,19.426 20.572,20.453 19.875 C 21.133 19.415,27.213 13.328,27.680 12.640 C 28.006 12.160,28.348 11.408,28.518 10.797 C 28.655 10.303,28.665 10.198,28.663 9.280 C 28.661 8.384,28.648 8.245,28.520 7.772 C 28.249 6.771,27.749 5.884,27.044 5.155 C 26.198 4.280,25.112 3.661,24.048 3.449 C 23.568 3.353,22.403 3.304,21.893 3.358 M13.853 11.175 C 13.064 11.323,12.134 11.714,11.484 12.169 C 10.765 12.673,4.776 18.688,4.311 19.373 C 3.994 19.841,3.651 20.597,3.482 21.203 C 3.344 21.698,3.334 21.799,3.337 22.720 C 3.340 23.624,3.353 23.751,3.487 24.240 C 3.782 25.317,4.316 26.226,5.107 26.995 C 5.620 27.494,6.013 27.778,6.598 28.073 C 7.456 28.504,8.268 28.693,9.263 28.693 C 10.080 28.693,10.790 28.560,11.547 28.264 C 12.448 27.912,12.774 27.658,14.382 26.056 C 15.655 24.787,15.837 24.585,15.893 24.378 C 15.962 24.117,15.904 23.774,15.750 23.539 C 15.557 23.244,14.885 23.058,14.582 23.215 C 14.495 23.260,13.936 23.761,13.339 24.328 C 11.849 25.744,11.495 26.048,11.093 26.260 C 10.479 26.584,10.086 26.677,9.333 26.679 C 8.551 26.680,8.173 26.599,7.544 26.295 C 6.507 25.794,5.638 24.710,5.411 23.635 C 5.311 23.167,5.314 22.197,5.415 21.767 C 5.459 21.580,5.616 21.191,5.765 20.902 C 5.986 20.471,6.148 20.253,6.662 19.695 C 7.271 19.033,10.852 15.500,12.124 14.307 C 13.105 13.387,13.778 13.098,14.933 13.099 C 16.109 13.100,16.851 13.415,17.921 14.370 C 18.508 14.893,18.798 14.981,19.238 14.768 C 19.680 14.554,19.909 14.072,19.786 13.616 C 19.729 13.404,19.637 13.281,19.253 12.905 C 18.427 12.097,17.474 11.543,16.441 11.270 C 15.783 11.097,14.515 11.050,13.853 11.175 " fill="#1A1C1F" stroke="none" fill-rule="evenodd"></path></svg>