<svg width="14" height="14" viewBox="0 0 14 14" fill="none" xmlns="http://www.w3.org/2000/svg"><path d="M8.645 2.113 C 8.542 2.130,8.374 2.172,8.272 2.205 C 7.709 2.389,7.094 2.838,6.991 3.142 C 6.837 3.592,7.158 4.066,7.618 4.069 C 7.813 4.070,7.961 4.012,8.178 3.849 C 8.505 3.604,8.845 3.476,9.166 3.477 C 9.506 3.478,9.864 3.632,10.114 3.883 C 10.551 4.322,10.651 4.965,10.367 5.516 C 10.291 5.664,10.181 5.783,9.364 6.605 C 8.773 7.199,8.401 7.555,8.320 7.604 C 8.144 7.710,7.894 7.790,7.682 7.807 C 7.423 7.827,7.210 7.776,6.883 7.615 C 6.637 7.494,6.602 7.483,6.452 7.482 C 5.876 7.477,5.543 8.118,5.880 8.583 C 6.016 8.771,6.438 8.997,6.872 9.114 C 7.705 9.338,8.555 9.171,9.281 8.640 C 9.355 8.586,9.846 8.108,10.374 7.578 C 11.414 6.533,11.512 6.415,11.694 5.993 C 11.845 5.644,11.903 5.382,11.917 4.990 C 11.932 4.590,11.903 4.355,11.802 4.037 C 11.658 3.584,11.441 3.228,11.107 2.893 C 10.683 2.469,10.193 2.215,9.604 2.113 C 9.354 2.069,8.903 2.069,8.645 2.113 M6.102 4.798 C 5.562 4.880,5.116 5.060,4.737 5.346 C 4.641 5.420,4.126 5.919,3.593 6.456 C 2.725 7.331,2.611 7.454,2.491 7.651 C 2.058 8.362,1.954 9.226,2.207 10.003 C 2.525 10.976,3.348 11.693,4.370 11.888 C 4.621 11.936,5.110 11.936,5.360 11.888 C 5.900 11.785,6.389 11.541,6.763 11.189 C 6.966 10.997,7.052 10.837,7.056 10.645 C 7.067 10.042,6.427 9.712,5.935 10.069 C 5.500 10.384,5.278 10.483,4.946 10.512 C 4.427 10.558,3.899 10.259,3.640 9.773 C 3.432 9.383,3.429 8.910,3.631 8.493 C 3.711 8.329,3.774 8.260,4.637 7.394 C 5.620 6.406,5.693 6.346,6.008 6.248 C 6.130 6.210,6.231 6.197,6.405 6.197 C 6.688 6.197,6.895 6.253,7.182 6.409 C 7.419 6.537,7.562 6.559,7.759 6.497 C 7.945 6.439,8.147 6.251,8.212 6.076 C 8.309 5.818,8.250 5.523,8.064 5.338 C 7.887 5.162,7.413 4.940,7.023 4.850 C 6.830 4.806,6.260 4.774,6.102 4.798 " fill="#1A1C1F" stroke="none" fill-rule="evenodd"></path></svg>