<svg width="32" height="32" viewBox="0 0 32 32" fill="none" xmlns="http://www.w3.org/2000/svg"><path d="M21.618 3.382 C 21.094 3.482,20.587 3.655,20.080 3.908 C 19.183 4.354,18.688 4.769,17.189 6.331 C 16.308 7.247,16.155 7.432,16.099 7.641 C 16.016 7.951,16.095 8.242,16.335 8.515 C 16.608 8.826,17.044 8.940,17.417 8.799 C 17.495 8.769,18.171 8.151,18.917 7.425 C 20.410 5.974,20.695 5.760,21.508 5.482 C 21.956 5.329,22.060 5.313,22.667 5.312 C 23.468 5.310,23.817 5.390,24.531 5.741 C 24.954 5.949,25.115 6.068,25.524 6.475 C 25.940 6.888,26.049 7.035,26.259 7.467 C 26.395 7.745,26.542 8.117,26.587 8.293 C 26.916 9.594,26.573 10.931,25.636 12.000 C 24.999 12.728,19.522 18.096,19.200 18.309 C 18.352 18.871,17.182 19.069,16.161 18.824 C 15.357 18.631,14.764 18.282,14.027 17.569 C 13.566 17.123,13.206 17.023,12.771 17.220 C 12.500 17.343,12.287 17.594,12.210 17.879 C 12.090 18.324,12.243 18.641,12.847 19.207 C 15.105 21.321,18.280 21.519,20.715 19.697 C 21.123 19.392,27.141 13.369,27.478 12.928 C 29.533 10.243,28.956 6.360,26.213 4.415 C 25.583 3.968,24.938 3.667,24.160 3.458 C 23.636 3.318,22.186 3.274,21.618 3.382 M14.358 11.097 C 13.261 11.204,12.205 11.620,11.280 12.309 C 10.781 12.681,4.815 18.676,4.447 19.175 C 2.706 21.536,2.955 24.873,5.027 26.945 C 6.751 28.669,9.275 29.180,11.555 28.267 C 12.512 27.884,12.970 27.525,14.543 25.929 C 15.654 24.800,15.841 24.587,15.898 24.382 C 15.975 24.108,15.909 23.767,15.731 23.517 C 15.511 23.208,14.909 23.054,14.551 23.216 C 14.472 23.251,13.788 23.881,13.031 24.616 C 11.529 26.071,11.305 26.240,10.504 26.514 C 10.045 26.671,9.940 26.686,9.333 26.689 C 8.534 26.693,8.192 26.614,7.467 26.258 C 7.038 26.047,6.886 25.934,6.478 25.525 C 5.932 24.976,5.636 24.477,5.431 23.757 C 5.279 23.220,5.266 22.290,5.405 21.760 C 5.542 21.237,5.865 20.607,6.229 20.155 C 6.715 19.551,12.431 13.932,12.796 13.698 C 13.654 13.149,14.689 12.950,15.689 13.142 C 16.501 13.297,17.143 13.642,17.831 14.294 C 18.458 14.887,18.760 14.993,19.229 14.780 C 19.781 14.529,19.988 13.862,19.673 13.350 C 19.511 13.086,18.761 12.408,18.273 12.083 C 17.109 11.308,15.735 10.962,14.358 11.097 " fill="#1A1C1F" stroke="none" fill-rule="evenodd"></path></svg>