<svg width="12" height="12" viewBox="0 0 12 12" fill="none" xmlns="http://www.w3.org/2000/svg"><path d="M3.650 1.217 C 3.460 1.228,3.393 1.240,3.328 1.274 C 3.195 1.345,3.126 1.414,3.066 1.536 L 3.010 1.650 3.004 2.922 L 2.998 4.194 2.621 4.205 L 2.244 4.216 2.120 4.282 C 1.762 4.473,1.696 4.925,1.983 5.221 C 2.126 5.368,2.196 5.387,2.625 5.396 L 3.000 5.404 3.000 5.999 L 3.000 6.594 2.622 6.605 L 2.244 6.616 2.120 6.682 C 1.762 6.873,1.696 7.325,1.983 7.621 C 2.126 7.768,2.196 7.787,2.624 7.796 L 2.998 7.804 3.004 9.077 L 3.010 10.350 3.056 10.444 C 3.115 10.564,3.236 10.685,3.356 10.744 L 3.450 10.790 6.600 10.790 L 9.750 10.790 9.844 10.744 C 9.964 10.685,10.085 10.564,10.144 10.444 L 10.190 10.350 10.190 6.000 L 10.190 1.650 10.142 1.553 C 10.082 1.430,9.986 1.334,9.860 1.270 L 9.761 1.220 6.825 1.212 C 5.211 1.207,3.782 1.210,3.650 1.217 M9.000 6.000 L 9.000 9.600 6.600 9.600 L 4.200 9.600 4.200 6.000 L 4.200 2.400 6.600 2.400 L 9.000 2.400 9.000 6.000 M5.400 4.800 L 5.400 5.400 6.600 5.400 L 7.800 5.400 7.800 4.800 L 7.800 4.200 6.600 4.200 L 5.400 4.200 5.400 4.800 M5.400 7.200 L 5.400 7.800 6.600 7.800 L 7.800 7.800 7.800 7.200 L 7.800 6.600 6.600 6.600 L 5.400 6.600 5.400 7.200 " fill="#1A1C1F" stroke="none" fill-rule="evenodd"></path></svg>