<svg width="28" height="28" viewBox="0 0 28 28" fill="none" xmlns="http://www.w3.org/2000/svg"><path d="M8.773 1.815 L 7.723 1.843 7.414 1.995 C 6.601 2.393,6.122 2.957,5.804 3.892 C 5.694 4.215,5.693 4.223,5.693 6.489 L 5.693 8.762 5.120 8.781 C 4.461 8.803,4.315 8.860,4.090 9.179 C 3.935 9.400,3.911 9.713,4.029 9.987 C 4.189 10.362,4.514 10.500,5.234 10.500 L 5.693 10.500 5.693 13.994 L 5.693 17.488 5.144 17.508 C 4.670 17.525,4.567 17.543,4.386 17.643 C 3.961 17.877,3.819 18.433,4.086 18.818 C 4.304 19.133,4.581 19.245,5.192 19.266 L 5.693 19.284 5.693 21.468 L 5.693 23.653 5.838 24.065 C 6.032 24.617,6.210 24.919,6.568 25.298 C 6.957 25.710,7.283 25.923,7.824 26.116 L 8.264 26.273 13.804 26.271 C 20.093 26.267,21.726 26.235,22.120 26.104 C 23.008 25.811,23.870 24.783,23.993 23.870 C 24.027 23.618,24.051 20.411,24.066 13.991 L 24.088 4.486 23.938 4.015 C 23.754 3.436,23.542 3.080,23.147 2.679 C 22.759 2.287,22.379 2.034,21.987 1.907 C 21.677 1.807,21.670 1.807,15.750 1.797 C 12.490 1.791,9.351 1.799,8.773 1.815 M10.920 14.003 L 10.920 24.507 9.625 24.492 C 8.655 24.480,8.303 24.461,8.221 24.414 C 8.001 24.289,7.736 24.010,7.620 23.780 L 7.500 23.544 7.477 21.409 L 7.453 19.273 7.831 19.273 C 8.356 19.273,8.653 19.201,8.855 19.024 C 9.316 18.619,9.277 17.991,8.770 17.656 C 8.593 17.539,8.532 17.526,8.022 17.508 L 7.467 17.488 7.467 13.994 L 7.467 10.500 7.902 10.500 C 8.476 10.500,8.770 10.412,8.959 10.184 C 9.267 9.811,9.251 9.362,8.918 9.045 C 8.690 8.828,8.490 8.774,7.917 8.774 L 7.457 8.773 7.475 6.545 C 7.493 4.375,7.496 4.312,7.593 4.127 C 7.717 3.892,8.028 3.605,8.200 3.567 C 8.272 3.551,8.351 3.531,8.377 3.523 C 8.402 3.514,8.985 3.506,9.672 3.504 L 10.920 3.500 10.920 14.003 M21.680 3.710 C 21.868 3.841,21.991 3.973,22.091 4.153 L 22.235 4.409 22.274 5.669 C 22.296 6.363,22.303 10.696,22.290 15.298 L 22.266 23.666 22.130 23.907 C 21.948 24.228,21.734 24.394,21.425 24.452 C 21.266 24.483,19.620 24.500,16.934 24.500 L 12.693 24.500 12.693 13.999 L 12.693 3.499 17.052 3.511 L 21.411 3.523 21.680 3.710 M15.391 9.657 C 14.907 9.685,14.785 9.738,14.586 10.005 C 14.508 10.109,14.490 10.203,14.490 10.495 C 14.490 10.820,14.503 10.875,14.621 11.030 C 14.892 11.385,14.709 11.363,17.500 11.363 C 20.290 11.363,20.108 11.384,20.377 11.031 C 20.562 10.790,20.586 10.328,20.429 10.058 C 20.243 9.737,20.107 9.679,19.457 9.644 C 18.798 9.609,16.060 9.617,15.391 9.657 M15.391 13.157 C 14.907 13.185,14.785 13.238,14.586 13.505 C 14.508 13.609,14.490 13.703,14.490 13.995 C 14.490 14.320,14.503 14.375,14.621 14.530 C 14.892 14.885,14.709 14.863,17.500 14.863 C 20.290 14.863,20.108 14.884,20.377 14.531 C 20.562 14.290,20.586 13.828,20.429 13.558 C 20.243 13.237,20.107 13.179,19.457 13.144 C 18.798 13.109,16.060 13.117,15.391 13.157 M15.391 16.657 C 14.907 16.685,14.785 16.738,14.586 17.005 C 14.508 17.109,14.490 17.203,14.490 17.495 C 14.490 17.820,14.503 17.875,14.621 18.030 C 14.892 18.385,14.709 18.363,17.500 18.363 C 20.290 18.363,20.108 18.384,20.377 18.031 C 20.562 17.790,20.586 17.328,20.429 17.058 C 20.243 16.737,20.107 16.679,19.457 16.644 C 18.798 16.609,16.060 16.617,15.391 16.657 " fill="#1A1C1F" stroke="none" fill-rule="evenodd"></path></svg>