<svg xmlns="http://www.w3.org/2000/svg" width="12" height="12" fill="none"><g clip-path="url(#a)"><path fill="#1A1C1F" fill-rule="evenodd" d="M9.6 1.2a.6.6 0 0 1 .6.6v8.4a.6.6 0 0 1-.6.6h-6a.6.6 0 0 1-.6-.6l-.001-2.401L2.4 7.8a.6.6 0 0 1 0-1.2l.599-.001V5.4H2.4a.6.6 0 0 1 0-1.2h.599L3 1.8a.6.6 0 0 1 .503-.592L3.6 1.2zM9 2.4H4.2v2.4l-.001.012v2.376L4.2 7.2l-.001.011L4.2 9.6H9zM7.8 6.6v1.2H5.4V6.6zm0-2.4v1.2H5.4V4.2z" clip-rule="evenodd"/></g><defs><clipPath id="a"><path fill="#fff" d="M0 0h12v12H0z"/></clipPath></defs></svg>