<svg width="24" height="24" viewBox="0 0 24 24" fill="none" xmlns="http://www.w3.org/2000/svg"><path d="M7.300 2.038 C 6.700 2.059,6.649 2.067,6.480 2.166 C 6.297 2.274,6.184 2.399,6.066 2.628 C 6.007 2.742,6.000 2.982,6.000 4.878 L 6.000 7.000 5.550 7.000 C 4.681 7.001,4.383 7.106,4.141 7.497 C 4.035 7.669,4.021 7.728,4.021 7.996 C 4.021 8.255,4.037 8.328,4.130 8.486 C 4.262 8.712,4.433 8.862,4.631 8.924 C 4.713 8.949,5.054 8.979,5.390 8.989 L 6.000 9.009 6.000 12.004 L 6.000 15.000 5.550 15.000 C 4.681 15.001,4.383 15.106,4.141 15.497 C 4.035 15.669,4.021 15.728,4.021 15.996 C 4.021 16.256,4.037 16.328,4.131 16.489 C 4.363 16.885,4.665 16.998,5.490 16.999 L 6.000 17.000 6.000 19.122 C 6.000 21.179,6.002 21.248,6.082 21.403 C 6.195 21.625,6.445 21.865,6.627 21.926 C 6.748 21.966,8.023 21.980,12.620 21.990 C 18.477 22.004,19.271 21.989,19.508 21.866 C 19.729 21.750,19.877 21.551,19.930 21.298 C 20.003 20.950,20.003 3.050,19.930 2.702 C 19.894 2.530,19.844 2.426,19.750 2.328 C 19.532 2.101,19.443 2.075,18.765 2.038 C 18.099 2.001,8.377 2.001,7.300 2.038 M18.000 12.000 L 18.000 20.000 13.000 20.000 L 8.000 20.000 8.000 12.000 L 8.000 4.000 13.000 4.000 L 18.000 4.000 18.000 12.000 M10.960 9.037 C 10.587 9.066,10.342 9.197,10.167 9.462 C 9.876 9.901,10.005 10.537,10.444 10.827 C 10.688 10.989,10.973 11.006,13.187 10.993 L 15.260 10.980 15.449 10.887 C 15.684 10.771,15.902 10.484,15.966 10.205 C 16.027 9.941,15.967 9.658,15.800 9.426 C 15.606 9.158,15.459 9.081,15.055 9.039 C 14.677 8.999,11.464 8.997,10.960 9.037 M10.960 13.037 C 10.587 13.066,10.342 13.197,10.167 13.462 C 9.876 13.901,10.005 14.537,10.444 14.827 C 10.688 14.989,10.973 15.006,13.187 14.993 L 15.260 14.980 15.449 14.887 C 15.684 14.771,15.902 14.484,15.966 14.205 C 16.027 13.941,15.967 13.658,15.800 13.426 C 15.606 13.158,15.459 13.081,15.055 13.039 C 14.677 12.999,11.464 12.997,10.960 13.037 " fill="#1A1C1F" stroke="none" fill-rule="evenodd"></path></svg>