<svg width="20" height="20" viewBox="0 0 20 20" fill="none" xmlns="http://www.w3.org/2000/svg"><path d="M6.083 2.029 C 5.766 2.047,5.655 2.066,5.546 2.124 C 5.326 2.241,5.210 2.357,5.110 2.560 L 5.017 2.750 5.007 4.870 L 4.997 6.990 4.369 7.008 L 3.740 7.026 3.533 7.136 C 2.936 7.454,2.826 8.208,3.305 8.701 C 3.544 8.947,3.660 8.979,4.375 8.994 L 5.000 9.007 5.000 9.999 L 5.000 10.990 4.370 11.008 L 3.740 11.026 3.533 11.136 C 2.936 11.454,2.826 12.208,3.305 12.701 C 3.543 12.947,3.660 12.979,4.374 12.994 L 4.998 13.007 5.007 15.129 L 5.017 17.250 5.094 17.406 C 5.192 17.606,5.394 17.808,5.594 17.906 L 5.750 17.983 11.000 17.983 L 16.250 17.983 16.406 17.906 C 16.606 17.808,16.808 17.606,16.906 17.406 L 16.983 17.250 16.983 10.000 C 16.983 3.189,16.980 2.742,16.925 2.622 C 16.829 2.408,16.680 2.250,16.469 2.137 L 16.269 2.031 11.376 2.019 C 8.685 2.012,6.303 2.017,6.083 2.029 M15.000 10.000 L 15.000 16.000 11.000 16.000 L 7.000 16.000 7.000 10.000 L 7.000 4.000 11.000 4.000 L 15.000 4.000 15.000 10.000 M9.000 8.000 L 9.000 9.000 11.000 9.000 L 13.000 9.000 13.000 8.000 L 13.000 7.000 11.000 7.000 L 9.000 7.000 9.000 8.000 M9.000 12.000 L 9.000 13.000 11.000 13.000 L 13.000 13.000 13.000 12.000 L 13.000 11.000 11.000 11.000 L 9.000 11.000 9.000 12.000 " fill="#1A1C1F" stroke="none" fill-rule="evenodd"></path></svg>