<svg width="16" height="16" viewBox="0 0 16 16" fill="none" xmlns="http://www.w3.org/2000/svg"><path d="M4.867 1.623 C 4.613 1.637,4.524 1.653,4.437 1.699 C 4.261 1.793,4.168 1.885,4.088 2.048 L 4.013 2.200 4.006 3.896 L 3.998 5.592 3.499 5.606 C 3.049 5.619,2.986 5.627,2.867 5.682 C 2.573 5.821,2.414 6.072,2.415 6.400 C 2.415 6.636,2.478 6.790,2.645 6.962 C 2.835 7.158,2.928 7.183,3.500 7.195 L 4.000 7.206 4.000 7.999 L 4.000 8.792 3.500 8.806 C 3.049 8.819,2.986 8.827,2.867 8.882 C 2.573 9.021,2.414 9.272,2.415 9.600 C 2.415 9.836,2.478 9.990,2.645 10.162 C 2.835 10.357,2.928 10.383,3.499 10.395 L 3.998 10.406 4.006 12.103 L 4.013 13.800 4.075 13.925 C 4.154 14.085,4.315 14.246,4.475 14.325 L 4.600 14.387 8.800 14.387 L 13.000 14.387 13.125 14.325 C 13.285 14.246,13.446 14.085,13.525 13.925 L 13.587 13.800 13.587 8.000 L 13.587 2.200 13.528 2.075 C 13.453 1.914,13.299 1.761,13.135 1.683 L 13.005 1.622 9.096 1.614 C 6.946 1.609,5.043 1.613,4.867 1.623 M12.000 8.000 L 12.000 12.800 8.800 12.800 L 5.600 12.800 5.600 8.000 L 5.600 3.200 8.800 3.200 L 12.000 3.200 12.000 8.000 M7.200 6.400 L 7.200 7.200 8.800 7.200 L 10.400 7.200 10.400 6.400 L 10.400 5.600 8.800 5.600 L 7.200 5.600 7.200 6.400 M7.200 9.600 L 7.200 10.400 8.800 10.400 L 10.400 10.400 10.400 9.600 L 10.400 8.800 8.800 8.800 L 7.200 8.800 7.200 9.600 " fill="#1A1C1F" stroke="none" fill-rule="evenodd"></path></svg>