<svg xmlns="http://www.w3.org/2000/svg" width="32" height="32" fill="none"><path fill="#1A1C1F" fill-rule="evenodd" d="M8.913 2.111c-.397.107-.943.403-1.272.691-.378.331-.78.952-.959 1.48l-.148.438-.016 2.653-.016 2.654h-.613c-.702 0-.877.052-1.128.338-.244.278-.307.557-.206.906.159.548.498.729 1.363.729h.589v8h-.589c-.636 0-.817.047-1.105.29a.85.85 0 0 0-.256.432c-.112.387-.037.666.262.963.262.262.549.342 1.234.342h.448l.017 2.546.017 2.547.144.427c.377 1.118 1.182 1.945 2.243 2.305L9.36 30h7.653c8.404 0 7.89.02 8.64-.333.548-.257 1.173-.884 1.451-1.454.425-.87.389.247.389-12.133V5.04l-.123-.424c-.194-.672-.457-1.119-.942-1.604-.482-.482-.974-.773-1.527-.903-.502-.119-15.547-.117-15.988.002M12.48 16v12l-1.427-.001c-1.273-.001-1.45-.012-1.644-.1-.276-.125-.571-.428-.727-.746-.121-.244-.122-.27-.137-2.679l-.016-2.432.612-.027c.536-.024.641-.045.851-.167a.974.974 0 0 0-.096-1.748c-.166-.075-.349-.098-.789-.099L8.533 20v-8l.574-.001c.651-.002.908-.083 1.144-.363.415-.493.273-1.223-.291-1.496-.195-.095-.331-.113-.83-.113h-.597l.001-2.44c0-1.433.022-2.518.052-2.629.095-.342.35-.677.625-.82.255-.133.262-.133 1.762-.136L12.48 4zM24.613 4.127c.434.205.715.587.826 1.122.038.186.052 3.648.042 10.991l-.014 10.72-.123.267c-.154.334-.35.545-.624.672-.203.094-.46.099-5.213.1l-5 .001V4l4.92.001h4.92zm-7.431 6.913c-.202.047-.459.271-.582.507-.047.089-.084.29-.084.453 0 .433.249.816.621.957.099.037 1.076.056 2.863.056s2.764-.019 2.863-.056c.372-.141.621-.524.621-.957 0-.47-.287-.869-.691-.963-.252-.058-5.362-.056-5.611.003m0 4c-.202.047-.459.271-.582.507-.047.089-.084.29-.084.453 0 .433.249.816.621.957.099.037 1.076.056 2.863.056s2.764-.019 2.863-.056c.372-.141.621-.524.621-.957 0-.47-.287-.869-.691-.963-.252-.058-5.362-.056-5.611.003m0 4c-.202.047-.459.271-.582.507-.047.089-.084.29-.084.453 0 .433.249.816.621.957.099.037 1.076.056 2.863.056s2.764-.019 2.863-.056c.372-.141.621-.524.621-.957 0-.47-.287-.869-.691-.963-.252-.058-5.362-.056-5.611.003"/></svg>