<svg width="32" height="32" viewBox="0 0 32 32" fill="none" xmlns="http://www.w3.org/2000/svg"><path d="M10.027 2.074 L 8.827 2.107 8.473 2.280 C 7.544 2.734,6.996 3.379,6.633 4.448 C 6.507 4.818,6.507 4.826,6.507 7.416 L 6.507 10.014 5.851 10.036 C 5.098 10.061,4.931 10.125,4.675 10.490 C 4.497 10.743,4.470 11.100,4.604 11.413 C 4.788 11.842,5.159 12.000,5.982 12.000 L 6.507 12.000 6.507 15.993 L 6.507 19.987 5.879 20.009 C 5.337 20.029,5.219 20.050,5.013 20.163 C 4.527 20.431,4.365 21.066,4.670 21.507 C 4.919 21.866,5.236 21.994,5.933 22.018 L 6.507 22.038 6.507 24.535 L 6.507 27.032 6.672 27.502 C 6.893 28.134,7.097 28.479,7.506 28.912 C 7.950 29.383,8.323 29.626,8.942 29.847 L 9.444 30.027 15.802 30.024 C 22.963 30.020,24.829 29.983,25.274 29.835 C 26.298 29.494,27.280 28.325,27.421 27.280 C 27.459 26.993,27.487 23.297,27.504 15.991 L 27.530 5.128 27.358 4.589 C 27.147 3.928,26.902 3.512,26.457 3.062 C 26.020 2.620,25.574 2.324,25.128 2.180 C 24.774 2.065,24.766 2.065,18.000 2.053 C 14.275 2.047,10.687 2.056,10.027 2.074 M12.480 16.004 L 12.480 28.008 11.000 27.990 C 9.891 27.978,9.489 27.956,9.395 27.902 C 9.145 27.760,8.842 27.441,8.711 27.182 L 8.576 26.917 8.547 24.472 L 8.517 22.027 8.949 22.027 C 9.550 22.027,9.889 21.944,10.120 21.741 C 10.647 21.279,10.603 20.561,10.023 20.178 C 9.821 20.044,9.751 20.030,9.168 20.009 L 8.533 19.987 8.533 15.993 L 8.533 12.000 9.030 12.000 C 9.686 12.000,10.023 11.899,10.238 11.639 C 10.590 11.213,10.572 10.700,10.192 10.338 C 9.932 10.089,9.703 10.027,9.048 10.027 L 8.522 10.027 8.543 7.480 C 8.563 5.000,8.567 4.928,8.678 4.716 C 8.820 4.448,9.175 4.120,9.372 4.077 C 9.453 4.059,9.544 4.036,9.573 4.026 C 9.603 4.016,10.269 4.007,11.053 4.004 L 12.480 4.000 12.480 16.004 M24.777 4.240 C 24.992 4.389,25.133 4.541,25.247 4.746 L 25.411 5.039 25.456 6.506 C 25.481 7.313,25.489 12.265,25.474 17.509 L 25.447 27.045 25.291 27.321 C 25.083 27.689,24.839 27.879,24.486 27.946 C 24.304 27.980,22.423 28.000,19.353 28.000 L 14.507 28.000 14.507 15.999 L 14.507 3.998 19.488 4.013 L 24.470 4.027 24.777 4.240 M17.590 11.036 C 17.020 11.070,16.879 11.135,16.649 11.472 C 16.541 11.629,16.527 11.705,16.543 12.032 C 16.558 12.347,16.586 12.442,16.711 12.606 C 17.020 13.011,16.811 12.987,20.000 12.987 C 23.188 12.987,22.981 13.011,23.288 12.607 C 23.499 12.331,23.527 11.804,23.348 11.495 C 23.135 11.128,22.980 11.062,22.236 11.022 C 21.484 10.981,18.355 10.991,17.590 11.036 M17.590 15.036 C 17.020 15.070,16.879 15.135,16.649 15.472 C 16.541 15.629,16.527 15.705,16.543 16.032 C 16.558 16.347,16.586 16.442,16.711 16.606 C 17.020 17.011,16.811 16.987,20.000 16.987 C 23.188 16.987,22.981 17.011,23.288 16.607 C 23.499 16.331,23.527 15.804,23.348 15.495 C 23.135 15.128,22.980 15.062,22.236 15.022 C 21.484 14.981,18.355 14.991,17.590 15.036 M17.590 19.036 C 17.020 19.070,16.879 19.135,16.649 19.472 C 16.541 19.629,16.527 19.705,16.543 20.032 C 16.558 20.347,16.586 20.442,16.711 20.606 C 17.020 21.011,16.811 20.987,20.000 20.987 C 23.188 20.987,22.981 21.011,23.288 20.607 C 23.499 20.331,23.527 19.804,23.348 19.495 C 23.135 19.128,22.980 19.062,22.236 19.022 C 21.484 18.981,18.355 18.991,17.590 19.036 " fill="#1A1C1F" stroke="none" fill-rule="evenodd"></path></svg>