<svg xmlns="http://www.w3.org/2000/svg" width="28" height="28" fill="none"><g clip-path="url(#a)"><path fill="#1A1C1F" fill-rule="evenodd" d="M21.103 1.75c1.656 0 2.96 1.433 2.96 3.158v18.357c0 1.629-1.233 2.985-2.802 2.985H8.647c-1.657 0-2.96-1.433-2.96-3.158V19.25h-.85a.89.89 0 0 1-.9-.875c0-.483.403-.875.9-.875h.85v-7h-.85a.89.89 0 0 1-.9-.875c0-.483.403-.875.9-.875h.85V4.734c0-1.57 1.146-2.887 2.635-2.979l.167-.005zM10.937 3.495H8.49c-.551 0-1.038.535-1.038 1.24V8.75h.837c.497 0 .9.392.9.875a.89.89 0 0 1-.9.875H7.45v7h.838c.497 0 .9.392.9.875a.89.89 0 0 1-.9.875H7.45l.001 3.842c0 .75.49 1.335 1.077 1.405l.12.007h2.29zm1.75 21.009h8.574c.55 0 1.038-.536 1.038-1.239V4.908c0-.8-.558-1.412-1.196-1.412l-8.416-.001zm7.092-7.879c.433 0 .784.392.784.875s-.351.875-.784.875h-4.557c-.433 0-.784-.392-.784-.875s.35-.875.784-.875zm0-3.5c.433 0 .784.392.784.875s-.351.875-.784.875h-4.557c-.433 0-.784-.392-.784-.875s.35-.875.784-.875zm0-3.5c.433 0 .784.392.784.875s-.351.875-.784.875h-4.557c-.433 0-.784-.392-.784-.875s.35-.875.784-.875z" clip-rule="evenodd"/></g><defs><clipPath id="a"><path fill="#fff" d="M0 0h28v28H0z"/></clipPath></defs></svg>