<svg width="14" height="14" viewBox="0 0 14 14" fill="none" xmlns="http://www.w3.org/2000/svg"><path d="M4.258 1.420 C 4.036 1.433,3.958 1.447,3.882 1.487 C 3.728 1.569,3.647 1.650,3.577 1.792 L 3.512 1.925 3.505 3.409 L 3.498 4.893 3.061 4.906 C 2.668 4.917,2.613 4.923,2.509 4.972 C 2.251 5.093,2.112 5.313,2.113 5.600 C 2.113 5.807,2.169 5.942,2.315 6.092 C 2.480 6.263,2.562 6.285,3.063 6.296 L 3.500 6.305 3.500 6.999 L 3.500 7.693 3.062 7.706 C 2.668 7.717,2.613 7.723,2.509 7.772 C 2.251 7.893,2.112 8.113,2.113 8.400 C 2.113 8.607,2.169 8.742,2.315 8.892 C 2.480 9.063,2.562 9.085,3.062 9.096 L 3.498 9.105 3.505 10.590 L 3.512 12.075 3.566 12.185 C 3.634 12.324,3.776 12.466,3.915 12.534 L 4.025 12.588 7.700 12.588 L 11.375 12.588 11.485 12.534 C 11.624 12.466,11.766 12.324,11.834 12.185 L 11.888 12.075 11.888 7.000 L 11.888 1.925 11.838 1.817 C 11.774 1.677,11.637 1.541,11.494 1.474 L 11.382 1.421 7.960 1.413 C 6.078 1.408,4.412 1.412,4.258 1.420 M10.500 7.000 L 10.500 11.200 7.700 11.200 L 4.900 11.200 4.900 7.000 L 4.900 2.800 7.700 2.800 L 10.500 2.800 10.500 7.000 M6.300 5.600 L 6.300 6.300 7.700 6.300 L 9.100 6.300 9.100 5.600 L 9.100 4.900 7.700 4.900 L 6.300 4.900 6.300 5.600 M6.300 8.400 L 6.300 9.100 7.700 9.100 L 9.100 9.100 9.100 8.400 L 9.100 7.700 7.700 7.700 L 6.300 7.700 6.300 8.400 " fill="#1A1C1F" stroke="none" fill-rule="evenodd"></path></svg>