<svg width="28" height="28" viewBox="0 0 28 28" fill="none" xmlns="http://www.w3.org/2000/svg"><path d="M18.862 2.940 C 18.078 3.051,17.308 3.411,16.671 3.967 C 16.095 4.469,10.550 9.982,7.688 12.898 C 5.254 15.378,5.102 15.557,4.713 16.397 C 4.509 16.840,4.275 17.570,4.200 18.003 C 4.114 18.498,4.136 19.665,4.241 20.167 C 4.492 21.360,5.017 22.356,5.856 23.233 C 6.682 24.097,7.606 24.630,8.838 24.955 C 9.274 25.070,9.381 25.080,10.243 25.080 C 11.113 25.080,11.210 25.071,11.666 24.951 C 12.324 24.778,13.050 24.464,13.558 24.135 C 13.804 23.975,14.236 23.617,14.607 23.263 C 16.527 21.434,23.268 14.626,23.618 14.163 C 23.787 13.939,23.823 13.857,23.819 13.700 C 23.806 13.157,23.239 12.718,22.756 12.878 C 22.557 12.944,21.519 13.944,16.487 18.919 C 14.335 21.046,12.753 22.575,12.601 22.672 C 12.266 22.888,11.709 23.127,11.259 23.248 C 10.784 23.376,9.792 23.389,9.322 23.273 C 7.868 22.913,6.740 21.943,6.184 20.572 C 5.961 20.025,5.914 19.682,5.937 18.795 C 5.959 17.937,6.001 17.766,6.385 16.988 C 6.559 16.636,6.699 16.442,7.074 16.032 C 7.653 15.397,15.313 7.736,16.923 6.180 C 18.135 5.009,18.323 4.866,18.830 4.730 C 19.132 4.649,19.883 4.650,20.189 4.732 C 20.882 4.916,21.523 5.460,21.851 6.143 C 22.046 6.549,22.050 6.567,22.066 7.121 C 22.085 7.781,22.012 8.142,21.780 8.540 C 21.671 8.726,20.224 10.204,16.497 13.936 C 13.673 16.762,11.292 19.111,11.204 19.156 C 11.091 19.213,10.973 19.231,10.799 19.217 C 10.320 19.177,9.996 18.764,10.048 18.259 C 10.070 18.044,10.107 17.968,10.299 17.743 C 10.422 17.597,12.257 15.735,14.375 13.604 C 16.494 11.473,18.368 9.565,18.539 9.362 C 18.920 8.914,18.955 8.785,18.794 8.434 C 18.605 8.021,18.197 7.819,17.782 7.932 C 17.601 7.981,17.426 8.134,16.475 9.069 C 14.678 10.837,9.190 16.382,8.872 16.751 C 8.326 17.386,8.151 18.091,8.335 18.914 C 8.434 19.353,8.582 19.662,8.837 19.961 C 9.451 20.680,10.062 20.980,10.897 20.970 C 11.748 20.961,12.161 20.750,13.119 19.838 C 14.022 18.978,22.274 10.632,22.745 10.103 C 23.249 9.537,23.347 9.393,23.526 8.953 C 23.830 8.209,23.929 7.306,23.797 6.487 C 23.538 4.880,22.203 3.442,20.585 3.029 C 20.174 2.924,19.298 2.879,18.862 2.940 " fill="#1A1C1F" stroke="none" fill-rule="evenodd"></path></svg>