<svg width="12" height="12" viewBox="0 0 12 12" fill="none" xmlns="http://www.w3.org/2000/svg"><path d="M6.923 1.899 C 6.565 2.023,6.545 2.040,5.254 3.320 C 3.734 4.827,2.758 5.830,2.649 6.000 C 2.032 6.956,2.065 8.155,2.735 9.085 C 2.871 9.275,3.157 9.554,3.360 9.698 C 3.807 10.013,4.346 10.182,4.910 10.182 C 5.351 10.182,5.735 10.093,6.123 9.899 C 6.459 9.731,6.549 9.649,8.157 8.051 C 9.257 6.958,9.681 6.515,9.745 6.392 C 9.798 6.291,9.801 6.112,9.751 5.962 C 9.710 5.839,9.587 5.706,9.455 5.642 C 9.330 5.582,9.085 5.578,8.956 5.635 C 8.855 5.680,8.437 6.083,6.840 7.670 L 5.750 8.754 5.559 8.836 C 5.274 8.959,5.136 8.986,4.850 8.974 C 4.453 8.958,4.173 8.843,3.899 8.585 C 3.656 8.357,3.510 8.101,3.448 7.797 C 3.404 7.578,3.418 7.230,3.480 7.030 C 3.571 6.739,3.604 6.697,4.322 5.960 C 5.085 5.176,7.107 3.167,7.215 3.085 C 7.279 3.036,7.304 3.030,7.440 3.030 C 7.573 3.030,7.604 3.037,7.676 3.085 C 7.810 3.174,7.868 3.280,7.876 3.448 L 7.882 3.590 7.776 3.730 C 7.718 3.807,6.995 4.550,6.170 5.380 C 5.344 6.210,4.612 6.957,4.542 7.039 C 4.377 7.232,4.331 7.332,4.349 7.468 C 4.372 7.656,4.420 7.762,4.528 7.871 C 4.652 7.995,4.770 8.040,4.970 8.040 C 5.154 8.040,5.200 8.011,5.590 7.646 C 6.130 7.142,8.709 4.534,8.798 4.403 C 9.061 4.015,9.156 3.501,9.042 3.070 C 8.917 2.592,8.592 2.195,8.150 1.980 C 7.904 1.860,7.800 1.840,7.421 1.840 C 7.108 1.841,7.081 1.844,6.923 1.899 " fill="#1A1C1F" stroke="none" fill-rule="evenodd"></path></svg>