<svg xmlns="http://www.w3.org/2000/svg" width="32" height="32" fill="none"><g clip-path="url(#a)"><path fill="#1A1C1F" fill-rule="evenodd" d="M25.831 4.76a5.015 5.015 0 0 1 .138 6.922l-11.44 11.446a2.986 2.986 0 0 1-4.222-.03 3.015 3.015 0 0 1-.106-4.12l9.667-9.674a1 1 0 0 1 1.491 1.327l-9.623 9.633a1.015 1.015 0 0 0-.005 1.43c.355.36.918.389 1.308.085l11.365-11.355a3.014 3.014 0 0 0 .008-4.255 2.986 2.986 0 0 0-4.095-.135L8.181 18.162a5.014 5.014 0 0 0-.008 7.083 4.986 4.986 0 0 0 6.894.166l10.458-10.45a1 1 0 0 1 1.491 1.327L16.635 26.679a6.986 6.986 0 0 1-9.88-.023A7.015 7.015 0 0 1 6.6 16.92L18.78 4.734a4.986 4.986 0 0 1 7.051.026" clip-rule="evenodd"/></g><defs><clipPath id="a"><path fill="#fff" d="M0 0h32v32H0z"/></clipPath></defs></svg>