<svg xmlns="http://www.w3.org/2000/svg" width="12" height="12" fill="none"><g clip-path="url(#a)"><path fill="#1A1C1F" fill-rule="evenodd" d="M8.613 2.297a1.66 1.66 0 0 1 .065 2.27l-3.306 3.31a.6.6 0 0 1-.895-.797L7.76 3.791a.46.46 0 0 0 .001-.648.45.45 0 0 0-.592-.043L3.847 6.416a1.51 1.51 0 0 0-.002 2.133c.562.564 1.46.588 2.051.071l2.875-2.87a.6.6 0 0 1 .895.796l-2.85 2.857a2.7 2.7 0 0 1-3.821-.007A2.71 2.71 0 0 1 2.91 5.66l3.367-3.371a1.65 1.65 0 0 1 2.336.008" clip-rule="evenodd"/></g><defs><clipPath id="a"><path fill="#fff" d="M0 0h12v12H0z"/></clipPath></defs></svg>