<svg xmlns="http://www.w3.org/2000/svg" width="20" height="20" fill="none"><g clip-path="url(#a)"><path fill="#1A1C1F" fill-rule="evenodd" d="M14.355 3.829a2.766 2.766 0 0 1 .108 3.781l-5.51 5.518A1 1 0 0 1 7.46 11.8l5.473-5.482a.766.766 0 0 0 .002-1.081.75.75 0 0 0-.988-.071l-5.537 5.527a2.516 2.516 0 0 0-.003 3.554c.936.94 2.434.98 3.419.12l4.792-4.785a1 1 0 0 1 1.492 1.327l-4.752 4.762a4.503 4.503 0 0 1-6.368-.012 4.516 4.516 0 0 1-.14-6.227l5.61-5.618a2.753 2.753 0 0 1 3.894.014" clip-rule="evenodd"/></g><defs><clipPath id="a"><path fill="#fff" d="M0 0h20v20H0z"/></clipPath></defs></svg>