<svg xmlns="http://www.w3.org/2000/svg" width="24" height="24" fill="none"><g clip-path="url(#a)"><path fill="#1A1C1F" fill-rule="evenodd" d="M18.547 4.048a2.77 2.77 0 0 1 .105 3.783l-8.093 8.1a1 1 0 0 1-1.492-1.327l8.055-8.065a.77.77 0 0 0 .003-1.084.75.75 0 0 0-.984-.072L7.024 14.49a2.51 2.51 0 0 0-.004 3.543 2.49 2.49 0 0 0 3.403.12l7.58-7.571a1 1 0 0 1 1.492 1.327l-7.542 7.55a4.49 4.49 0 0 1-6.35-.015 4.51 4.51 0 0 1-.14-6.215l9.194-9.2a2.75 2.75 0 0 1 3.89.02" clip-rule="evenodd"/></g><defs><clipPath id="a"><path fill="#fff" d="M0 0h24v24H0z"/></clipPath></defs></svg>