<svg xmlns="http://www.w3.org/2000/svg" width="14" height="14" fill="none"><g clip-path="url(#a)"><path fill="#1A1C1F" fill-rule="evenodd" d="M10.049 2.68c.723.729.748 1.889.075 2.647L6.267 9.19a.7.7 0 0 1-1.044-.928l3.83-3.838a.536.536 0 0 0 .002-.757.53.53 0 0 0-.691-.05l-3.876 3.87a1.76 1.76 0 0 0-.003 2.488 1.75 1.75 0 0 0 2.394.083l3.354-3.349a.7.7 0 0 1 1.044.93L7.951 10.97a3.15 3.15 0 0 1-4.457-.008 3.16 3.16 0 0 1-.099-4.359L7.323 2.67a1.927 1.927 0 0 1 2.726.01" clip-rule="evenodd"/></g><defs><clipPath id="a"><path fill="#fff" d="M0 0h14v14H0z"/></clipPath></defs></svg>