<svg xmlns="http://www.w3.org/2000/svg" width="32" height="32" fill="none"><path fill="#1A1C1F" fill-rule="evenodd" d="M21.227 3.412c-.576.124-1.132.362-1.707.732-.393.253-1.289 1.127-6.78 6.621-4.287 4.288-6.429 6.468-6.645 6.762a7.6 7.6 0 0 0-1.276 2.939c-.124.631-.124 1.85 0 2.482.576 2.939 2.818 5.159 5.721 5.665.591.103 1.742.103 2.333 0a7.3 7.3 0 0 0 2.971-1.261c.502-.365 3.021-2.851 8.103-7.995 3.555-3.599 3.394-3.401 3.231-3.962-.165-.569-.762-.87-1.289-.65-.125.052-2.024 1.902-5.612 5.467-2.984 2.964-5.544 5.475-5.691 5.581a6 6 0 0 1-.746.423c-2.496 1.194-5.432.141-6.637-2.38-.359-.75-.447-1.171-.447-2.129 0-.683.02-.901.116-1.254a6.1 6.1 0 0 1 .789-1.676c.327-.472 12.617-12.729 13.057-13.022.904-.603 2.232-.605 3.151-.004.6.392 1.035.944 1.261 1.599.099.288.122.47.122.943 0 .688-.115 1.099-.454 1.624-.24.371-11.75 11.88-11.989 11.987-.179.081-.542.087-.739.013a1.1 1.1 0 0 1-.53-.515c-.097-.227-.093-.611.009-.857.058-.139 1.553-1.671 5.009-5.132 5.495-5.501 5.136-5.091 4.965-5.677a.984.984 0 0 0-1.509-.538c-.11.074-2.422 2.372-5.138 5.108-4.486 4.52-4.952 5.006-5.105 5.321-.344.707-.415 1.363-.225 2.102.148.582.338.905.799 1.365.463.461.905.706 1.507.834a2.98 2.98 0 0 0 2.152-.398c.455-.294.656-.492 6.775-6.658 5.983-6.03 5.795-5.823 6.16-6.762.25-.644.331-1.101.328-1.843-.005-1.359-.491-2.537-1.436-3.486a5.06 5.06 0 0 0-2.498-1.371 5.7 5.7 0 0 0-2.106.002"/></svg>