<svg width="14" height="14" viewBox="0 0 14 14" fill="none" xmlns="http://www.w3.org/2000/svg"><path d="M8.388 2.147 C 8.157 2.168,7.883 2.270,7.648 2.424 C 7.324 2.636,3.299 6.677,3.091 6.999 C 2.871 7.340,2.677 7.832,2.612 8.213 C 2.571 8.454,2.576 9.017,2.621 9.276 C 2.726 9.874,3.035 10.472,3.471 10.924 C 3.945 11.413,4.519 11.716,5.215 11.843 C 5.484 11.893,5.984 11.892,6.265 11.842 C 6.727 11.760,7.272 11.524,7.572 11.277 C 7.992 10.931,11.079 7.857,11.277 7.587 C 11.406 7.412,11.441 7.301,11.419 7.134 C 11.386 6.882,11.249 6.689,11.030 6.582 C 10.879 6.509,10.591 6.508,10.442 6.580 C 10.321 6.638,9.725 7.213,7.957 8.975 L 6.732 10.195 6.527 10.289 C 6.217 10.432,6.028 10.477,5.738 10.477 C 5.434 10.477,5.200 10.422,4.924 10.287 C 4.555 10.105,4.206 9.693,4.065 9.270 C 4.010 9.107,4.004 9.052,4.003 8.738 C 4.002 8.348,4.039 8.175,4.185 7.898 C 4.277 7.724,5.199 6.771,7.103 4.883 C 8.557 3.442,8.482 3.504,8.747 3.531 C 8.997 3.557,9.173 3.744,9.189 4.004 C 9.206 4.269,9.307 4.154,7.046 6.428 C 6.166 7.314,5.379 8.116,5.298 8.212 C 5.106 8.438,5.053 8.555,5.073 8.712 C 5.101 8.933,5.156 9.056,5.283 9.183 C 5.426 9.326,5.565 9.380,5.792 9.380 C 5.984 9.380,6.033 9.357,6.259 9.165 C 6.471 8.985,9.095 6.375,9.774 5.670 C 10.247 5.177,10.286 5.130,10.390 4.923 C 10.548 4.608,10.599 4.394,10.599 4.048 C 10.599 3.708,10.548 3.492,10.397 3.185 C 10.223 2.833,9.963 2.560,9.615 2.363 C 9.364 2.221,9.193 2.171,8.881 2.146 C 8.725 2.134,8.593 2.126,8.587 2.127 C 8.580 2.129,8.491 2.138,8.388 2.147 " fill="#1A1C1F" stroke="none" fill-rule="evenodd"></path></svg>