<svg width="20" height="20" viewBox="0 0 20 20" fill="none" xmlns="http://www.w3.org/2000/svg"><path d="M11.572 3.152 C 11.278 3.252,11.112 3.334,10.862 3.504 C 10.645 3.650,7.406 6.851,5.706 8.599 C 4.987 9.338,4.503 9.863,4.416 9.999 C 4.118 10.461,3.874 11.057,3.748 11.634 C 3.673 11.974,3.671 12.844,3.744 13.252 C 3.854 13.871,4.168 14.600,4.556 15.138 C 4.785 15.457,5.260 15.923,5.600 16.163 C 6.110 16.523,6.761 16.791,7.433 16.917 C 7.807 16.987,8.556 16.987,8.950 16.917 C 9.610 16.800,10.388 16.464,10.818 16.110 C 11.418 15.616,15.824 11.227,16.110 10.839 C 16.295 10.587,16.339 10.447,16.311 10.201 C 16.269 9.836,16.075 9.557,15.756 9.403 C 15.540 9.298,15.130 9.297,14.917 9.400 C 14.741 9.485,13.943 10.254,11.400 12.788 L 9.617 14.564 9.324 14.699 C 8.881 14.903,8.612 14.967,8.198 14.967 C 7.765 14.967,7.429 14.889,7.044 14.700 C 6.506 14.435,6.010 13.853,5.809 13.250 C 5.729 13.010,5.720 12.934,5.718 12.483 C 5.717 12.049,5.727 11.950,5.795 11.733 C 5.951 11.233,6.003 11.166,7.170 9.967 C 8.412 8.691,11.845 5.279,12.025 5.142 C 12.132 5.060,12.173 5.050,12.400 5.050 C 12.622 5.050,12.673 5.062,12.794 5.142 C 13.005 5.282,13.111 5.466,13.127 5.719 C 13.152 6.098,13.296 5.935,10.066 9.183 C 8.808 10.448,7.685 11.595,7.568 11.731 C 7.294 12.054,7.219 12.221,7.248 12.446 C 7.287 12.761,7.366 12.937,7.547 13.118 C 7.754 13.325,7.950 13.400,8.283 13.400 C 8.591 13.400,8.666 13.352,9.317 12.744 C 10.222 11.897,14.514 7.558,14.662 7.340 C 15.103 6.692,15.260 5.836,15.071 5.117 C 14.861 4.320,14.320 3.659,13.583 3.300 C 13.173 3.099,13.000 3.067,12.368 3.068 C 11.869 3.068,11.794 3.076,11.572 3.152 " fill="#1A1C1F" stroke="none" fill-rule="evenodd"></path></svg>