<svg xmlns="http://www.w3.org/2000/svg" width="28" height="28" fill="none"><g clip-path="url(#a)"><path fill="#1A1C1F" fill-rule="evenodd" d="M22.602 4.165a4.39 4.39 0 0 1 .12 6.057L12.714 20.237a2.613 2.613 0 0 1-3.695-.027 2.64 2.64 0 0 1-.092-3.605l8.458-8.464A.875.875 0 0 1 18.69 9.3l-8.42 8.43a.89.89 0 0 0-.005 1.25.863.863 0 0 0 1.145.076l9.945-9.936a2.64 2.64 0 0 0 .006-3.723 2.613 2.613 0 0 0-3.582-.119L7.158 15.892a4.39 4.39 0 0 0-.007 6.197 4.363 4.363 0 0 0 6.033.145l9.15-9.143a.875.875 0 0 1 1.305 1.16l-9.084 9.093a6.113 6.113 0 0 1-8.644-.02 6.14 6.14 0 0 1-.136-8.519L16.433 4.143a4.363 4.363 0 0 1 6.17.022" clip-rule="evenodd"/></g><defs><clipPath id="a"><path fill="#fff" d="M0 0h28v28H0z"/></clipPath></defs></svg>