<svg xmlns="http://www.w3.org/2000/svg" width="16" height="16" fill="none"><g clip-path="url(#a)"><path fill="#1A1C1F" fill-rule="evenodd" d="M11.484 3.063c.827.833.855 2.159.086 3.025l-4.408 4.414A.8.8 0 0 1 5.97 9.441l4.378-4.386a.61.61 0 0 0 .002-.865.6.6 0 0 0-.79-.056l-4.43 4.421a2.01 2.01 0 0 0-.003 2.844c.75.752 1.948.784 2.735.095l3.834-3.827a.8.8 0 0 1 1.194 1.061l-3.802 3.81a3.6 3.6 0 0 1-5.094-.01 3.613 3.613 0 0 1-.113-4.981l4.49-4.495a2.2 2.2 0 0 1 3.114.011" clip-rule="evenodd"/></g><defs><clipPath id="a"><path fill="#fff" d="M0 0h16v16H0z"/></clipPath></defs></svg>