<svg width="32" height="32" viewBox="0 0 32 32" fill="none" xmlns="http://www.w3.org/2000/svg"><path d="M21.557 3.360 C 20.659 3.487,19.781 3.899,19.050 4.536 C 18.385 5.116,12.216 11.249,8.865 14.663 C 6.000 17.581,5.831 17.779,5.389 18.734 C 5.151 19.249,4.950 19.865,4.831 20.439 C 4.707 21.042,4.717 22.439,4.850 23.067 C 5.137 24.417,5.739 25.556,6.692 26.552 C 7.636 27.539,8.693 28.149,10.101 28.520 C 10.599 28.652,10.721 28.663,11.707 28.663 C 12.699 28.663,12.812 28.653,13.328 28.517 C 14.452 28.220,15.425 27.722,16.201 27.045 C 17.309 26.079,26.522 16.808,26.991 16.188 C 27.185 15.931,27.226 15.836,27.222 15.657 C 27.207 15.017,26.514 14.506,25.969 14.734 C 25.741 14.829,24.896 15.644,19.787 20.692 C 14.285 26.129,14.585 25.847,13.973 26.144 C 12.995 26.619,12.104 26.789,11.181 26.676 C 10.626 26.608,9.939 26.411,9.520 26.200 C 8.432 25.654,7.517 24.641,7.046 23.464 C 6.813 22.881,6.759 22.471,6.785 21.480 C 6.810 20.500,6.858 20.304,7.297 19.415 C 7.496 19.013,7.656 18.791,8.084 18.322 C 8.747 17.597,17.374 8.967,19.286 7.117 C 20.728 5.722,20.937 5.562,21.520 5.406 C 21.866 5.314,22.724 5.314,23.074 5.407 C 23.866 5.618,24.598 6.240,24.973 7.021 C 25.196 7.484,25.200 7.505,25.219 8.138 C 25.240 8.892,25.157 9.305,24.891 9.760 C 24.767 9.973,23.113 11.662,18.853 15.926 C 15.627 19.157,12.905 21.841,12.805 21.892 C 12.676 21.958,12.541 21.978,12.342 21.962 C 11.794 21.916,11.424 21.444,11.483 20.867 C 11.509 20.622,11.551 20.535,11.770 20.277 C 11.911 20.111,14.008 17.983,16.429 15.547 C 18.850 13.112,20.991 10.931,21.188 10.700 C 21.623 10.188,21.663 10.040,21.479 9.638 C 21.263 9.167,20.799 8.937,20.320 9.064 C 20.101 9.122,19.738 9.469,16.141 13.057 C 11.166 18.021,9.931 19.305,9.739 19.710 C 9.443 20.335,9.375 20.943,9.526 21.616 C 9.639 22.118,9.808 22.471,10.100 22.813 C 10.577 23.372,10.979 23.651,11.627 23.872 C 12.067 24.023,12.866 24.002,13.366 23.828 C 13.900 23.642,14.217 23.413,15.054 22.612 C 16.221 21.495,25.467 12.140,26.043 11.493 C 26.652 10.810,26.917 10.324,27.121 9.520 C 27.268 8.941,27.300 8.054,27.197 7.413 C 26.900 5.577,25.374 3.934,23.525 3.461 C 23.056 3.341,22.055 3.290,21.557 3.360 " fill="#1A1C1F" stroke="none" fill-rule="evenodd"></path></svg>