<svg width="16" height="16" viewBox="0 0 16 16" fill="none" xmlns="http://www.w3.org/2000/svg"><path d="M9.587 2.455 C 9.323 2.477,9.012 2.593,8.741 2.770 C 8.363 3.018,3.771 7.630,3.526 8.009 C 3.295 8.366,3.078 8.911,2.984 9.373 C 2.936 9.611,2.943 10.338,2.997 10.620 C 3.208 11.725,3.939 12.699,4.935 13.200 C 5.217 13.342,5.601 13.469,5.947 13.533 C 6.246 13.590,6.845 13.590,7.160 13.534 C 7.688 13.440,8.311 13.171,8.654 12.888 C 9.060 12.554,12.503 9.140,12.831 8.747 C 13.013 8.529,13.052 8.440,13.049 8.250 C 13.044 7.917,12.887 7.659,12.607 7.523 C 12.433 7.439,12.104 7.437,11.934 7.520 C 11.796 7.587,11.114 8.243,9.093 10.257 L 7.693 11.652 7.454 11.762 C 7.116 11.917,6.875 11.973,6.547 11.973 C 5.681 11.973,4.922 11.425,4.647 10.600 C 4.584 10.408,4.576 10.346,4.575 9.987 C 4.573 9.541,4.616 9.343,4.782 9.027 C 4.888 8.827,5.941 7.738,8.118 5.580 C 9.779 3.934,9.693 4.004,9.996 4.035 C 10.171 4.053,10.318 4.145,10.419 4.298 C 10.479 4.387,10.494 4.445,10.501 4.598 L 10.509 4.787 10.368 4.973 C 10.291 5.076,9.327 6.066,8.226 7.173 C 7.126 8.281,6.149 9.276,6.056 9.385 C 5.835 9.642,5.775 9.776,5.798 9.957 C 5.830 10.209,5.893 10.350,6.038 10.494 C 6.203 10.660,6.360 10.720,6.626 10.720 C 6.873 10.720,6.933 10.682,7.453 10.195 C 8.178 9.517,11.611 6.047,11.730 5.872 C 12.082 5.353,12.208 4.668,12.057 4.093 C 11.981 3.806,11.795 3.439,11.617 3.223 C 11.341 2.890,10.876 2.590,10.493 2.497 C 10.301 2.450,9.879 2.431,9.587 2.455 " fill="#1A1C1F" stroke="none" fill-rule="evenodd"></path></svg>