<svg width="24" height="24" viewBox="0 0 24 24" fill="none" xmlns="http://www.w3.org/2000/svg"><path d="M15.760 3.374 C 15.187 3.579,15.197 3.570,12.874 5.854 C 9.337 9.331,5.275 13.429,5.085 13.711 C 4.153 15.095,4.046 16.849,4.804 18.320 C 5.057 18.811,5.323 19.161,5.738 19.548 C 7.018 20.740,8.836 21.083,10.456 20.437 C 11.282 20.107,11.341 20.055,14.955 16.460 C 18.008 13.424,19.516 11.878,19.625 11.676 C 19.672 11.586,19.696 11.458,19.695 11.300 C 19.692 10.878,19.412 10.476,19.043 10.366 C 18.829 10.301,18.497 10.309,18.358 10.381 C 18.112 10.508,17.568 11.031,14.200 14.377 C 12.297 16.267,10.574 17.961,10.371 18.142 C 10.068 18.413,9.951 18.490,9.711 18.576 C 8.689 18.944,7.797 18.757,7.058 18.021 C 6.535 17.501,6.321 16.989,6.321 16.260 C 6.321 15.656,6.458 15.237,6.797 14.809 C 7.138 14.377,9.025 12.465,12.572 8.957 C 15.312 6.248,16.281 5.313,16.385 5.278 C 16.697 5.175,17.114 5.359,17.258 5.661 C 17.309 5.769,17.324 5.875,17.312 6.042 C 17.297 6.248,17.275 6.297,17.112 6.488 C 17.011 6.606,15.176 8.466,13.034 10.622 C 10.892 12.777,9.082 14.628,9.012 14.735 C 8.941 14.841,8.872 15.007,8.858 15.102 C 8.823 15.334,8.930 15.671,9.103 15.873 C 9.352 16.163,9.866 16.291,10.209 16.147 C 10.380 16.076,12.410 14.101,15.322 11.173 C 19.020 7.456,18.954 7.528,19.185 6.905 C 19.314 6.559,19.361 5.835,19.281 5.429 C 19.114 4.571,18.462 3.803,17.583 3.425 C 17.312 3.309,17.272 3.303,16.660 3.292 C 16.075 3.282,15.998 3.289,15.760 3.374 " fill="#1A1C1F" stroke="none" fill-rule="evenodd"></path></svg>