<svg xmlns="http://www.w3.org/2000/svg" width="16" height="16" fill="none"><g clip-path="url(#a)"><path fill="#1A1C1F" fill-rule="evenodd" d="M4.8 14.4h6.4a2.4 2.4 0 0 0 2.4-2.4v-1.6c0-.45-.375-.8-.8-.8-.45 0-.8.35-.8.8V12c0 .425-.35.8-.8.8H4.8c-.45 0-.8-.375-.8-.8v-1.6c0-.45-.35-.8-.8-.8-.425 0-.8.35-.8.8V12a2.4 2.4 0 0 0 2.4 2.4M7.45 1.825a.88.88 0 0 1 .575-.225c.2 0 .375.075.55.225l2.45 2.475c.125.15.175.35.175.5 0 .425-.35.8-.8.8-.25 0-.4-.075-.575-.25L8.8 4.325V9.6c0 .425-.35.8-.8.8s-.8-.375-.8-.8V4.325L6.175 5.35a.71.71 0 0 1-.55.25c-.4 0-.825-.35-.825-.825 0-.2.075-.4.225-.55z" clip-rule="evenodd"/></g><defs><clipPath id="a"><path fill="#fff" d="M0 0h16v16H0z"/></clipPath></defs></svg>