<svg xmlns="http://www.w3.org/2000/svg" width="24" height="24" fill="none"><g clip-path="url(#a)"><path fill="#1A1C1F" fill-rule="evenodd" d="M6 22h12a3 3 0 0 0 3-3v-4c0-.562-.437-1-1-1s-1 .438-1 1v4c0 .563-.437 1-1 1H6c-.562 0-1-.437-1-1v-4c0-.562-.437-1-1-1s-1 .438-1 1v4a3 3 0 0 0 3 3m6-20c.25 0 .531.093.719.28l3.969 3.992a.9.9 0 0 1 .312.717c0 .53-.437.966-1 .966-.25 0-.531-.093-.719-.28L13 5.399v9.603c0 .561-.469.998-1 .998-.562 0-1-.437-1-.998V5.4L8.719 7.675c-.219.187-.469.28-.719.28-.562 0-1-.436-1-.997 0-.25.094-.5.313-.686L11.28 2.28C11.47 2.093 11.75 2 12 2" clip-rule="evenodd"/></g><defs><clipPath id="a"><path fill="#fff" d="M0 0h24v24H0z"/></clipPath></defs></svg>