<svg width="20" height="20" viewBox="0 0 20 20" fill="none" xmlns="http://www.w3.org/2000/svg"><path d="M9.824 2.036 C 9.737 2.050,9.594 2.103,9.508 2.153 C 9.416 2.207,8.688 2.907,7.728 3.864 C 6.111 5.476,6.104 5.484,6.048 5.681 C 5.911 6.164,6.150 6.671,6.623 6.903 C 6.833 7.006,7.216 7.012,7.417 6.916 C 7.495 6.878,7.849 6.558,8.274 6.139 L 8.998 5.425 9.007 8.838 L 9.017 12.250 9.094 12.407 C 9.256 12.735,9.660 13.000,10.000 13.000 C 10.340 13.000,10.744 12.735,10.906 12.407 L 10.983 12.250 10.993 8.839 L 11.002 5.428 11.717 6.127 C 12.540 6.932,12.616 6.984,13.000 6.983 C 13.183 6.982,13.291 6.963,13.405 6.911 C 13.604 6.820,13.818 6.605,13.908 6.406 C 14.005 6.192,14.007 5.839,13.913 5.633 C 13.819 5.428,13.208 4.779,11.779 3.365 C 10.925 2.520,10.538 2.160,10.432 2.110 C 10.254 2.027,10.040 2.000,9.824 2.036 M3.783 12.030 C 3.488 12.107,3.227 12.324,3.084 12.611 L 3.000 12.780 3.000 14.126 L 3.000 15.473 3.121 15.837 C 3.458 16.851,4.133 17.529,5.153 17.877 L 5.517 18.001 10.000 18.000 L 14.483 18.000 14.854 17.873 C 15.416 17.680,15.690 17.510,16.100 17.100 C 16.511 16.689,16.685 16.409,16.873 15.852 L 16.998 15.483 16.999 14.181 C 17.000 12.666,16.997 12.645,16.731 12.354 C 16.484 12.084,16.338 12.024,15.955 12.038 C 15.660 12.049,15.635 12.056,15.454 12.176 C 15.331 12.258,15.221 12.369,15.141 12.493 L 15.017 12.683 14.997 13.967 L 14.977 15.250 14.890 15.420 C 14.843 15.514,14.728 15.659,14.635 15.742 C 14.327 16.019,14.673 16.000,10.000 16.000 C 5.305 16.000,5.672 16.021,5.351 15.729 C 5.021 15.427,5.025 15.448,5.008 14.003 L 4.993 12.750 4.891 12.557 C 4.778 12.342,4.667 12.235,4.434 12.117 C 4.264 12.031,3.943 11.988,3.783 12.030 " fill="#1A1C1F" stroke="none" fill-rule="evenodd"></path></svg>