<svg xmlns="http://www.w3.org/2000/svg" width="32" height="32" fill="none"><path fill="#1A1C1F" fill-rule="evenodd" d="M15.464 2.181c-.381.247-6.271 6.183-6.368 6.417-.193.465-.03 1.01.372 1.246.296.173.678.184.998.029.158-.076.878-.771 2.361-2.281l2.133-2.17.027 7.951.026 7.951.16.227a.98.98 0 0 0 .827.435.98.98 0 0 0 .827-.435l.16-.227.026-7.951.027-7.951 2.133 2.17c1.488 1.515 2.201 2.204 2.36 2.281.321.155.703.144.999-.029.402-.236.565-.78.373-1.246-.102-.246-6.139-6.313-6.436-6.468a1.03 1.03 0 0 0-1.005.051M4.665 20.057c-.202.058-.498.342-.593.568-.11.263-.103 6.569.008 7.041.249 1.058 1.06 1.907 2.133 2.236.306.094.75.098 9.814.098h9.493l.386-.141c.212-.078.5-.208.64-.289.395-.229.921-.797 1.122-1.211.335-.694.336-.703.32-4.376l-.015-3.324-.127-.186c-.354-.516-1.036-.615-1.508-.218-.346.291-.335.183-.365 3.829l-.026 3.311-.154.202a1.2 1.2 0 0 1-.373.301c-.212.096-.548.1-9.42.1s-9.208-.004-9.42-.1a1.2 1.2 0 0 1-.373-.301l-.154-.202-.026-3.311c-.021-2.573-.043-3.346-.097-3.471-.208-.474-.742-.709-1.265-.556"/></svg>