<svg width="16" height="16" viewBox="0 0 16 16" fill="none" xmlns="http://www.w3.org/2000/svg"><path d="M7.844 1.629 C 7.780 1.641,7.672 1.684,7.605 1.724 C 7.533 1.766,6.935 2.340,6.182 3.091 C 4.889 4.381,4.883 4.387,4.838 4.545 C 4.729 4.931,4.920 5.336,5.298 5.522 C 5.466 5.605,5.773 5.610,5.933 5.533 C 5.996 5.503,6.279 5.246,6.619 4.911 L 7.198 4.340 7.206 7.070 L 7.213 9.800 7.275 9.926 C 7.404 10.188,7.728 10.400,8.000 10.400 C 8.272 10.400,8.596 10.188,8.725 9.926 L 8.787 9.800 8.794 7.071 L 8.802 4.343 9.375 4.903 C 9.754 5.273,9.991 5.484,10.074 5.525 C 10.245 5.609,10.545 5.611,10.724 5.529 C 10.883 5.456,11.055 5.284,11.127 5.125 C 11.204 4.953,11.206 4.671,11.130 4.507 C 11.053 4.340,10.600 3.858,9.450 2.719 C 8.743 2.018,8.433 1.729,8.347 1.688 C 8.203 1.621,8.003 1.597,7.844 1.629 M3.027 9.623 C 2.790 9.686,2.582 9.859,2.467 10.089 L 2.400 10.224 2.400 11.301 L 2.400 12.379 2.497 12.669 C 2.766 13.480,3.307 14.023,4.123 14.301 L 4.413 14.401 8.005 14.400 L 11.597 14.400 11.893 14.296 C 12.344 14.137,12.554 14.006,12.880 13.680 C 13.209 13.351,13.348 13.127,13.498 12.681 L 13.598 12.387 13.599 11.345 C 13.600 10.133,13.598 10.116,13.385 9.883 C 13.187 9.667,13.071 9.619,12.764 9.631 C 12.529 9.639,12.507 9.646,12.369 9.737 C 12.277 9.799,12.183 9.893,12.118 9.991 L 12.013 10.147 11.997 11.173 L 11.981 12.200 11.912 12.336 C 11.874 12.411,11.782 12.527,11.708 12.594 C 11.461 12.815,11.738 12.800,8.000 12.800 C 4.244 12.800,4.537 12.817,4.281 12.583 C 4.017 12.341,4.020 12.358,4.007 11.203 C 3.994 10.097,3.998 10.127,3.812 9.891 C 3.654 9.692,3.267 9.560,3.027 9.623 " fill="#1A1C1F" stroke="none" fill-rule="evenodd"></path></svg>