<svg width="32" height="32" viewBox="0 0 32 32" fill="none" xmlns="http://www.w3.org/2000/svg"><path d="M15.573 2.137 C 15.389 2.219,14.662 2.918,12.453 5.135 C 10.869 6.726,9.456 8.165,9.313 8.333 C 9.022 8.677,8.951 8.956,9.065 9.302 C 9.256 9.879,9.860 10.131,10.432 9.872 C 10.586 9.802,11.291 9.129,12.779 7.631 L 14.907 5.489 14.939 6.571 C 14.957 7.166,14.975 10.728,14.979 14.486 L 14.987 21.318 15.211 21.573 C 15.465 21.862,15.685 21.973,16.000 21.973 C 16.315 21.973,16.535 21.862,16.789 21.573 L 17.013 21.318 17.020 14.432 C 17.024 10.645,17.042 7.084,17.060 6.518 L 17.093 5.489 19.218 7.629 C 20.722 9.144,21.408 9.799,21.565 9.870 C 22.140 10.131,22.744 9.880,22.935 9.302 C 23.049 8.956,22.978 8.677,22.688 8.333 C 22.545 8.165,21.119 6.714,19.519 5.109 C 17.532 3.116,16.547 2.165,16.413 2.109 C 16.148 1.998,15.862 2.007,15.573 2.137 M4.727 20.039 C 4.635 20.053,4.471 20.164,4.319 20.316 L 4.065 20.570 4.027 21.072 C 4.007 21.348,3.999 22.929,4.011 24.587 L 4.033 27.600 4.167 27.953 C 4.350 28.434,4.528 28.723,4.838 29.046 C 5.188 29.411,5.608 29.682,6.086 29.853 L 6.480 29.994 15.947 30.015 L 25.413 30.037 25.859 29.873 C 26.466 29.651,26.708 29.499,27.119 29.084 C 27.598 28.601,27.877 28.039,27.948 27.413 C 27.976 27.164,27.999 25.561,28.000 23.851 C 28.000 21.239,27.988 20.717,27.923 20.592 C 27.807 20.367,27.496 20.119,27.248 20.052 C 26.792 19.929,26.202 20.219,26.076 20.629 C 26.035 20.762,26.003 21.908,25.977 24.112 C 25.939 27.380,25.939 27.397,25.822 27.561 C 25.758 27.652,25.615 27.782,25.506 27.850 L 25.307 27.973 16.000 27.973 L 6.693 27.973 6.494 27.850 C 6.385 27.782,6.243 27.652,6.178 27.561 C 6.062 27.398,6.061 27.383,6.026 24.058 C 5.987 20.368,6.003 20.522,5.640 20.248 C 5.468 20.118,5.114 19.993,4.960 20.008 C 4.916 20.013,4.811 20.026,4.727 20.039 " fill="#1A1C1F" stroke="none" fill-rule="evenodd"></path></svg>