<svg xmlns="http://www.w3.org/2000/svg" width="20" height="20" fill="none"><g clip-path="url(#a)"><path fill="#1A1C1F" fill-rule="evenodd" d="M6 18h8a3 3 0 0 0 3-3v-2c0-.562-.469-1-1-1-.562 0-1 .438-1 1v2c0 .531-.437 1-1 1H6c-.562 0-1-.469-1-1v-2c0-.562-.437-1-1-1-.531 0-1 .438-1 1v2a3 3 0 0 0 3 3M9.313 2.281C9.53 2.094 9.78 2 10.03 2s.469.094.688.281l3.062 3.094c.156.188.219.438.219.625 0 .531-.437 1-1 1-.312 0-.5-.094-.719-.312L11 5.406V12c0 .531-.437 1-1 1s-1-.469-1-1V5.406L7.719 6.688A.89.89 0 0 1 7.03 7C6.531 7 6 6.563 6 5.969c0-.25.094-.5.281-.688z" clip-rule="evenodd"/></g><defs><clipPath id="a"><path fill="#fff" d="M0 0h20v20H0z"/></clipPath></defs></svg>