<svg xmlns="http://www.w3.org/2000/svg" width="14" height="14" fill="none"><g clip-path="url(#a)"><path fill="#1A1C1F" fill-rule="evenodd" d="M4.2 12.6h5.6a2.1 2.1 0 0 0 2.1-2.1V9.1c0-.394-.328-.7-.7-.7-.394 0-.7.306-.7.7v1.4c0 .372-.306.7-.7.7H4.2a.705.705 0 0 1-.7-.7V9.1c0-.394-.306-.7-.7-.7-.372 0-.7.306-.7.7v1.4c0 1.16.94 2.1 2.1 2.1M6.519 1.597a.77.77 0 0 1 .503-.197c.175 0 .328.066.481.197l2.144 2.166A.7.7 0 0 1 9.8 4.2c0 .372-.306.7-.7.7-.219 0-.35-.066-.503-.219L7.7 3.784V8.4c0 .372-.306.7-.7.7a.705.705 0 0 1-.7-.7V3.784l-.897.897a.62.62 0 0 1-.481.219c-.35 0-.722-.306-.722-.722a.68.68 0 0 1 .197-.481z" clip-rule="evenodd"/></g><defs><clipPath id="a"><path fill="#fff" d="M0 0h14v14H0z"/></clipPath></defs></svg>