<svg xmlns="http://www.w3.org/2000/svg" width="32" height="32" fill="none"><g clip-path="url(#a)"><path fill="#1A1C1F" fill-rule="evenodd" d="M4 21c0-.563.438-1 1-1s1 .437 1 1v6c0 .562.438 1 1 1h18c.562 0 1-.438 1-1v-6c0-.563.437-1 1-1s1 .437 1 1v6a3 3 0 0 1-3 3H7a3 3 0 0 1-3-3zM9.281 8.313a.97.97 0 0 0-.28.687c0 .5.343 1 1 1 .25 0 .5-.094.718-.281L15 5.406V21c0 .562.438 1 1 1s1-.438 1-1V5.406l4.281 4.313A1.1 1.1 0 0 0 22 10c.594 0 1-.437 1-1 0-.25-.094-.5-.281-.719l-6-6a1.1 1.1 0 0 0-.719-.28.97.97 0 0 0-.687.28z" clip-rule="evenodd"/></g><defs><clipPath id="a"><path fill="#fff" d="M0 0h32v32H0z"/></clipPath></defs></svg>