<svg width="14" height="14" viewBox="0 0 14 14" fill="none" xmlns="http://www.w3.org/2000/svg"><path d="M6.877 1.425 C 6.816 1.435,6.716 1.472,6.656 1.507 C 6.591 1.545,6.081 2.035,5.409 2.705 C 4.278 3.833,4.272 3.839,4.233 3.977 C 4.138 4.315,4.305 4.669,4.636 4.832 C 4.783 4.904,5.051 4.908,5.192 4.841 C 5.247 4.815,5.494 4.590,5.792 4.297 L 6.299 3.798 6.305 6.186 L 6.312 8.575 6.366 8.685 C 6.479 8.915,6.762 9.100,7.000 9.100 C 7.238 9.100,7.521 8.915,7.634 8.685 L 7.688 8.575 7.695 6.187 L 7.701 3.800 8.202 4.289 C 8.778 4.853,8.832 4.889,9.100 4.888 C 9.228 4.887,9.304 4.874,9.383 4.838 C 9.523 4.774,9.673 4.623,9.736 4.484 C 9.804 4.334,9.805 4.088,9.739 3.943 C 9.673 3.800,9.248 3.348,8.246 2.356 C 7.644 1.760,7.379 1.513,7.303 1.477 C 7.178 1.419,7.028 1.400,6.877 1.425 M2.648 8.421 C 2.440 8.475,2.248 8.636,2.155 8.832 C 2.101 8.948,2.100 8.950,2.100 9.890 L 2.100 10.831 2.185 11.086 C 2.421 11.797,2.903 12.279,3.614 12.515 L 3.869 12.600 7.004 12.600 L 10.138 12.600 10.398 12.511 C 10.791 12.376,10.983 12.257,11.270 11.970 C 11.558 11.682,11.679 11.486,11.811 11.096 L 11.898 10.838 11.899 9.927 C 11.900 8.866,11.898 8.852,11.712 8.648 C 11.539 8.458,11.437 8.417,11.168 8.427 C 10.962 8.435,10.944 8.439,10.818 8.523 C 10.731 8.581,10.655 8.658,10.598 8.745 L 10.512 8.878 10.497 9.777 L 10.483 10.675 10.423 10.794 C 10.390 10.860,10.309 10.961,10.244 11.020 C 10.029 11.213,10.271 11.200,7.000 11.200 C 3.714 11.200,3.970 11.215,3.746 11.010 C 3.514 10.798,3.517 10.812,3.505 9.802 L 3.495 8.925 3.424 8.790 C 3.344 8.639,3.267 8.564,3.104 8.482 C 2.985 8.422,2.760 8.391,2.648 8.421 " fill="#1A1C1F" stroke="none" fill-rule="evenodd"></path></svg>