<svg xmlns="http://www.w3.org/2000/svg" width="12" height="12" fill="none"><g clip-path="url(#a)"><path fill="#1A1C1F" fill-rule="evenodd" d="M3.6 10.8h4.8A1.8 1.8 0 0 0 10.2 9V7.8c0-.338-.281-.6-.6-.6-.338 0-.6.262-.6.6V9c0 .319-.263.6-.6.6H3.6A.604.604 0 0 1 3 9V7.8c0-.338-.263-.6-.6-.6-.319 0-.6.262-.6.6V9a1.8 1.8 0 0 0 1.8 1.8m1.987-9.431A.66.66 0 0 1 6.02 1.2c.15 0 .281.056.412.169L8.27 3.225A.6.6 0 0 1 8.4 3.6c0 .319-.263.6-.6.6a.54.54 0 0 1-.431-.188L6.6 3.244V7.2c0 .319-.263.6-.6.6a.604.604 0 0 1-.6-.6V3.244l-.769.768a.53.53 0 0 1-.412.188c-.3 0-.619-.263-.619-.619 0-.15.056-.3.169-.412z" clip-rule="evenodd"/></g><defs><clipPath id="a"><path fill="#fff" d="M0 0h12v12H0z"/></clipPath></defs></svg>