<svg width="14" height="14" viewBox="0 0 14 14" fill="none" xmlns="http://www.w3.org/2000/svg"><path d="M7.471 2.843 C 7.052 2.991,6.870 3.505,7.110 3.860 C 7.146 3.912,7.698 4.481,8.336 5.124 L 9.497 6.293 6.048 6.305 L 2.600 6.318 2.500 6.368 C 2.251 6.495,2.114 6.720,2.114 7.000 C 2.114 7.303,2.279 7.548,2.552 7.650 L 2.685 7.700 6.096 7.700 L 9.506 7.700 8.327 8.884 C 7.564 9.649,7.123 10.110,7.079 10.185 C 7.020 10.288,7.012 10.324,7.012 10.488 C 7.013 10.710,7.071 10.851,7.219 10.993 C 7.410 11.177,7.650 11.238,7.898 11.166 C 8.033 11.127,8.049 11.112,9.410 9.757 C 10.948 8.227,11.785 7.366,11.845 7.252 C 11.910 7.131,11.902 6.856,11.830 6.708 C 11.786 6.617,11.418 6.234,10.139 4.949 C 8.336 3.137,8.080 2.893,7.943 2.853 C 7.761 2.800,7.602 2.797,7.471 2.843 " fill="#1A1C1F" stroke="none" fill-rule="evenodd"></path></svg>