<svg xmlns="http://www.w3.org/2000/svg" width="16" height="16" fill="none"><g clip-path="url(#a)"><path fill="#1A1C1F" fill-rule="evenodd" d="M13.35 8.55A.71.71 0 0 0 13.6 8c0-.2-.075-.4-.25-.575l-3.975-4A.84.84 0 0 0 8.8 3.2c-.45 0-.8.35-.8.8 0 .2.075.4.225.55l2.65 2.65H3.2c-.45 0-.8.35-.8.8 0 .425.35.8.8.8h7.675l-2.65 2.625A.88.88 0 0 0 8 12a.806.806 0 0 0 1.114.737.8.8 0 0 0 .261-.187z" clip-rule="evenodd"/></g><defs><clipPath id="a"><path fill="#fff" d="M0 0h16v16H0z"/></clipPath></defs></svg>