<svg width="32" height="32" viewBox="0 0 32 32" fill="none" xmlns="http://www.w3.org/2000/svg"><path d="M16.747 7.050 C 16.280 7.181,15.967 7.635,16.013 8.113 C 16.032 8.311,16.085 8.428,16.245 8.625 C 16.360 8.765,17.828 10.248,19.509 11.920 L 22.564 14.960 14.682 14.987 L 6.800 15.013 6.546 15.138 C 6.210 15.304,6.027 15.606,6.027 15.994 C 6.027 16.307,6.107 16.495,6.329 16.700 C 6.658 17.005,6.104 16.984,14.655 17.013 L 22.563 17.040 19.508 20.081 C 17.828 21.754,16.360 23.236,16.247 23.375 C 16.098 23.556,16.033 23.693,16.014 23.861 C 15.928 24.624,16.713 25.237,17.375 24.922 C 17.589 24.821,22.538 19.935,24.648 17.743 L 25.973 16.365 25.973 15.997 L 25.973 15.628 24.807 14.414 C 24.165 13.746,22.261 11.828,20.574 10.151 C 17.806 7.397,17.488 7.098,17.301 7.066 C 17.187 7.047,17.057 7.023,17.013 7.014 C 16.969 7.005,16.849 7.021,16.747 7.050 " fill="#1A1C1F" stroke="none" fill-rule="evenodd"></path></svg>