<svg xmlns="http://www.w3.org/2000/svg" width="20" height="20" fill="none"><g clip-path="url(#a)"><path fill="#1A1C1F" fill-rule="evenodd" d="M16.688 10.688A.89.89 0 0 0 17 10c0-.25-.094-.5-.313-.719l-4.968-5a1.04 1.04 0 0 0-.72-.281c-.562 0-1 .438-1 1 0 .25.095.5.282.688L13.594 9H4c-.563 0-1 .438-1 1 0 .531.438 1 1 1h9.594l-3.313 3.281A1.1 1.1 0 0 0 10 15a1.007 1.007 0 0 0 1.393.921.95.95 0 0 0 .326-.234z" clip-rule="evenodd"/></g><defs><clipPath id="a"><path fill="#fff" d="M0 0h20v20H0z"/></clipPath></defs></svg>