<svg width="32" height="32" viewBox="0 0 32 32" fill="none" xmlns="http://www.w3.org/2000/svg"><path d="M15.600 6.106 C 15.378 6.210,15.289 6.290,15.127 6.528 L 14.987 6.735 14.979 13.541 C 14.975 17.284,14.957 20.833,14.939 21.428 L 14.907 22.510 11.776 19.368 C 8.388 15.967,8.376 15.957,7.903 16.020 C 7.372 16.092,6.958 16.585,7.010 17.086 C 7.030 17.283,7.085 17.404,7.238 17.592 C 7.501 17.915,13.762 24.212,14.794 25.193 L 15.588 25.947 16.000 25.947 L 16.411 25.947 17.232 25.166 C 18.316 24.136,24.500 17.913,24.773 17.578 C 24.960 17.349,24.987 17.283,24.987 17.045 C 24.987 16.523,24.610 16.089,24.097 16.020 C 23.618 15.956,23.607 15.965,20.218 19.371 L 17.093 22.511 17.061 21.456 C 17.043 20.875,17.025 17.333,17.021 13.584 C 17.013 6.162,17.033 6.642,16.711 6.336 C 16.406 6.046,15.935 5.949,15.600 6.106 " fill="#1A1C1F" stroke="none" fill-rule="evenodd"></path></svg>