<svg width="32" height="32" viewBox="0 0 32 32" fill="none" xmlns="http://www.w3.org/2000/svg"><path d="M15.584 6.107 C 15.387 6.193,11.067 10.463,8.609 13.001 C 7.132 14.527,7.044 14.628,7.010 14.855 C 6.981 15.053,6.999 15.145,7.119 15.390 C 7.382 15.928,7.907 16.132,8.406 15.890 C 8.599 15.797,9.406 15.018,11.783 12.628 L 14.907 9.489 14.939 10.571 C 14.957 11.166,14.975 14.728,14.979 18.486 L 14.987 25.318 15.211 25.573 C 15.465 25.862,15.685 25.973,16.000 25.973 C 16.315 25.973,16.535 25.862,16.789 25.573 L 17.013 25.318 17.020 18.432 C 17.024 14.645,17.042 11.083,17.060 10.517 L 17.093 9.488 20.174 12.585 C 21.868 14.289,23.367 15.754,23.504 15.841 C 23.642 15.929,23.828 16.000,23.917 16.000 C 24.408 15.999,24.831 15.689,24.957 15.236 C 25.090 14.763,25.067 14.726,23.792 13.398 C 21.809 11.333,16.586 6.181,16.394 6.101 C 16.168 6.006,15.810 6.009,15.584 6.107 " fill="#1A1C1F" stroke="none" fill-rule="evenodd"></path></svg>