<svg width="12" height="12" viewBox="0 0 12 12" fill="none" xmlns="http://www.w3.org/2000/svg"><path d="M5.880 1.819 C 5.841 1.827,5.770 1.854,5.721 1.879 C 5.597 1.943,2.500 5.039,2.449 5.150 C 2.394 5.270,2.398 5.542,2.456 5.654 C 2.523 5.783,2.612 5.873,2.728 5.930 C 2.943 6.035,3.166 6.015,3.346 5.874 C 3.403 5.829,3.889 5.356,4.425 4.823 L 5.400 3.853 5.400 6.799 L 5.400 9.746 5.444 9.834 C 5.513 9.972,5.611 10.073,5.736 10.134 C 5.890 10.210,6.101 10.213,6.249 10.140 C 6.371 10.081,6.481 9.970,6.543 9.845 L 6.590 9.750 6.595 6.801 L 6.600 3.852 7.626 4.875 C 8.771 6.017,8.733 5.987,9.000 5.989 C 9.118 5.990,9.170 5.980,9.244 5.944 C 9.364 5.885,9.485 5.764,9.544 5.644 C 9.604 5.522,9.607 5.291,9.551 5.170 C 9.526 5.116,9.138 4.712,8.362 3.933 C 7.005 2.570,6.329 1.916,6.225 1.863 C 6.137 1.819,5.979 1.799,5.880 1.819 " fill="#1A1C1F" stroke="none" fill-rule="evenodd"></path></svg>