<svg width="32" height="32" viewBox="0 0 32 32" fill="none" xmlns="http://www.w3.org/2000/svg"><path d="M20.645 2.086 C 20.509 2.127,19.811 2.793,17.894 4.710 C 16.481 6.124,15.247 7.400,15.151 7.547 C 15.003 7.775,14.981 7.850,15.001 8.065 C 15.045 8.542,15.443 8.946,15.922 9.000 C 16.110 9.022,16.203 8.998,16.411 8.877 C 16.556 8.792,17.385 8.015,18.333 7.075 L 20.000 5.423 20.002 11.551 C 20.004 14.922,20.025 17.857,20.050 18.073 C 20.124 18.708,20.398 18.959,21.017 18.960 C 21.322 18.960,21.394 18.940,21.570 18.806 C 21.682 18.721,21.824 18.541,21.886 18.406 L 22.000 18.160 22.015 11.800 L 22.031 5.439 23.642 7.062 C 24.528 7.955,25.372 8.759,25.517 8.849 C 25.824 9.040,26.060 9.057,26.373 8.912 C 26.909 8.664,27.134 8.092,26.896 7.581 C 26.805 7.386,22.295 2.826,21.703 2.332 C 21.449 2.119,21.364 2.079,21.116 2.057 C 20.957 2.042,20.745 2.055,20.645 2.086 M10.615 13.095 C 10.368 13.206,10.251 13.318,10.114 13.573 L 10.000 13.787 9.984 20.172 L 9.969 26.557 8.304 24.881 C 7.185 23.754,6.575 23.178,6.442 23.123 C 6.025 22.949,5.525 23.047,5.269 23.351 C 4.938 23.744,4.934 24.225,5.258 24.626 C 5.371 24.766,6.569 25.989,7.920 27.345 C 9.586 29.015,10.441 29.836,10.574 29.891 C 10.857 30.010,11.242 29.996,11.467 29.860 C 11.739 29.694,16.643 24.768,16.848 24.453 C 16.998 24.223,17.019 24.152,16.999 23.930 C 16.970 23.619,16.749 23.282,16.481 23.139 C 16.357 23.073,16.184 23.040,15.964 23.040 C 15.636 23.040,15.629 23.043,15.296 23.343 C 15.111 23.509,14.294 24.307,13.480 25.116 L 12.000 26.586 11.996 20.346 C 11.994 16.915,11.974 13.980,11.952 13.825 C 11.930 13.671,11.865 13.480,11.806 13.402 C 11.574 13.091,10.970 12.935,10.615 13.095 " fill="#1A1C1F" stroke="none" fill-rule="evenodd"></path></svg>