<svg xmlns="http://www.w3.org/2000/svg" width="24" height="24" fill="none"><g clip-path="url(#a)"><path fill="#1A1C1F" fill-rule="evenodd" d="M3.997 12c0 .563.438 1 1 1h11.594l-4.282 4.281a1 1 0 0 0-.312.719c0 .438.375 1 1.031 1 .25 0 .5-.094.688-.281l6-6a1 1 0 0 0 .281-.719c.031-.25-.078-.515-.28-.719l-6-6a1.03 1.03 0 0 0-.69-.281c-.56 0-1.03.469-1.03 1 0 .281.11.515.313.719L16.59 11H4.997c-.563 0-1 .438-1 1" clip-rule="evenodd"/></g><defs><clipPath id="a"><path fill="#fff" d="M0 0h24v24H0z"/></clipPath></defs></svg>