<svg width="28" height="28" viewBox="0 0 28 28" fill="none" xmlns="http://www.w3.org/2000/svg"><path d="M14.641 6.176 C 14.108 6.340,13.866 6.863,14.091 7.360 C 14.156 7.502,14.943 8.315,16.972 10.334 L 19.763 13.112 14.113 13.113 C 11.005 13.113,7.856 13.127,7.116 13.144 L 5.770 13.175 5.584 13.343 C 5.367 13.539,5.273 13.737,5.273 14.000 C 5.273 14.275,5.371 14.468,5.624 14.690 L 5.846 14.887 11.825 14.893 C 15.113 14.897,18.230 14.912,18.750 14.928 L 19.697 14.957 16.939 17.700 C 14.082 20.542,14.002 20.631,14.002 21.000 C 14.002 21.515,14.499 21.941,15.011 21.865 C 15.205 21.835,15.288 21.770,16.069 21.024 C 16.991 20.144,20.997 16.127,22.065 15.012 L 22.727 14.321 22.727 13.998 L 22.727 13.675 21.706 12.612 C 21.144 12.028,19.478 10.349,18.003 8.882 C 15.580 6.472,15.302 6.210,15.138 6.183 C 15.038 6.166,14.925 6.145,14.887 6.137 C 14.848 6.128,14.737 6.146,14.641 6.176 " fill="#1A1C1F" stroke="none" fill-rule="evenodd"></path></svg>