<svg xmlns="http://www.w3.org/2000/svg" width="32" height="32" fill="none"><path fill="#1A1C1F" fill-rule="evenodd" d="M11.013 8.633c-.642.401-.703 1.263-.115 1.652l.214.142 4.478.026 4.478.027-5.738 5.773c-5.021 5.05-5.746 5.8-5.798 5.991-.164.611.34 1.247.986 1.244.148-.001.342-.04.432-.087.089-.048 2.705-2.65 5.813-5.784s5.668-5.705 5.689-5.714c.022-.01.046 1.986.054 4.436l.014 4.454.16.17c.331.352.814.458 1.229.27.242-.11.484-.37.544-.584.022-.078.04-2.699.04-5.825 0-6.352.035-5.796-.381-6.114l-.197-.15-5.871-.014c-5.656-.013-5.877-.009-6.031.087"/></svg>