<svg xmlns="http://www.w3.org/2000/svg" width="28" height="28" fill="none"><g clip-path="url(#a)"><path fill="#1A1C1F" fill-rule="evenodd" d="M14 22.75a.863.863 0 0 0 .875-.875V8.231l5.496 5.523c.191.192.41.246.629.246.492 0 .875-.355.875-.875a.84.84 0 0 0-.246-.629l-7-7A.84.84 0 0 0 14 5.25a.84.84 0 0 0-.629.246l-7 7a.84.84 0 0 0-.246.63c0 .52.41.874.875.874a.84.84 0 0 0 .629-.246l5.496-5.523v13.644c0 .492.383.875.875.875" clip-rule="evenodd"/></g><defs><clipPath id="a"><path fill="#fff" d="M0 0h28v28H0z"/></clipPath></defs></svg>