<svg width="16" height="16" viewBox="0 0 16 16" fill="none" xmlns="http://www.w3.org/2000/svg"><path d="M5.307 4.236 C 5.084 4.255,4.965 4.313,4.829 4.468 C 4.675 4.644,4.631 4.764,4.629 5.013 C 4.627 5.216,4.636 5.255,4.706 5.382 C 4.795 5.544,4.885 5.628,5.070 5.721 L 5.198 5.787 7.139 5.787 L 9.080 5.787 6.959 7.913 C 4.054 10.825,4.213 10.650,4.213 10.933 C 4.213 11.175,4.273 11.334,4.430 11.506 C 4.637 11.732,4.916 11.835,5.184 11.785 C 5.285 11.766,5.352 11.727,5.490 11.607 C 5.587 11.523,6.689 10.435,7.939 9.190 L 10.211 6.926 10.219 8.870 C 10.228 11.040,10.215 10.897,10.419 11.123 C 10.794 11.537,11.444 11.436,11.706 10.922 L 11.800 10.740 11.809 7.783 L 11.819 4.826 11.748 4.681 C 11.664 4.509,11.450 4.306,11.311 4.267 C 11.200 4.235,5.640 4.206,5.307 4.236 " fill="#1A1C1F" stroke="none" fill-rule="evenodd"></path></svg>