<svg xmlns="http://www.w3.org/2000/svg" width="12" height="12" fill="none"><g clip-path="url(#a)"><path fill="#1A1C1F" fill-rule="evenodd" d="M10.012 6.412A.53.53 0 0 0 10.2 6a.6.6 0 0 0-.188-.431l-2.98-3a.626.626 0 0 0-.859.004A.6.6 0 0 0 6 3c0 .15.057.3.169.412L8.157 5.4H2.4a.59.59 0 0 0-.6.6c0 .319.262.6.6.6h5.757L6.168 8.569A.66.66 0 0 0 6 9a.604.604 0 0 0 .836.553.6.6 0 0 0 .195-.14z" clip-rule="evenodd"/></g><defs><clipPath id="a"><path fill="#fff" d="M0 0h12v12H0z"/></clipPath></defs></svg>