<svg xmlns="http://www.w3.org/2000/svg" width="28" height="28" fill="none"><g clip-path="url(#a)"><path fill="#1A1C1F" fill-rule="evenodd" d="M14 5.25a.864.864 0 0 1 .875.875v13.644l5.496-5.523A.84.84 0 0 1 21 14c.492 0 .875.355.875.875a.84.84 0 0 1-.246.629l-7 7a.84.84 0 0 1-.629.246.84.84 0 0 1-.629-.246l-7-7a.84.84 0 0 1-.246-.63c0-.52.41-.874.875-.874a.84.84 0 0 1 .629.246l5.496 5.523V6.125c0-.492.383-.875.875-.875" clip-rule="evenodd"/></g><defs><clipPath id="a"><path fill="#fff" d="M0 0h28v28H0z"/></clipPath></defs></svg>