<svg width="24" height="24" viewBox="0 0 24 24" fill="none" xmlns="http://www.w3.org/2000/svg"><path d="M11.707 4.028 C 11.625 4.041,11.306 4.324,10.567 5.039 C 9.302 6.261,5.564 10.019,5.313 10.320 C 4.985 10.714,4.943 10.875,5.063 11.278 C 5.238 11.866,6.000 12.182,6.480 11.865 C 6.561 11.811,7.611 10.792,8.814 9.599 L 11.000 7.431 11.000 13.337 L 11.000 19.243 11.099 19.437 C 11.216 19.670,11.430 19.855,11.675 19.939 C 11.898 20.015,12.054 20.016,12.295 19.943 C 12.552 19.866,12.739 19.714,12.880 19.467 L 12.999 19.260 13.000 13.346 L 13.000 7.431 15.218 9.630 C 16.456 10.858,17.497 11.858,17.575 11.895 C 18.191 12.187,18.925 11.747,18.989 11.047 C 19.004 10.874,18.992 10.775,18.941 10.668 C 18.903 10.589,18.553 10.185,18.163 9.772 C 17.041 8.584,12.587 4.182,12.436 4.111 C 12.290 4.043,11.892 3.998,11.707 4.028 " fill="#1A1C1F" stroke="none" fill-rule="evenodd"></path></svg>