<svg xmlns="http://www.w3.org/2000/svg" width="14" height="14" fill="none"><g clip-path="url(#a)"><path fill="#1A1C1F" fill-rule="evenodd" d="M7.481 2.319A.62.62 0 0 0 7 2.1a.7.7 0 0 0-.503.219l-3.5 3.478A.73.73 0 0 0 2.8 6.3c0 .394.306.7.7.7.175 0 .35-.066.481-.197L6.3 4.484V11.2c0 .394.306.7.7.7.372 0 .7-.306.7-.7V4.484l2.297 2.32A.77.77 0 0 0 10.5 7c.372 0 .7-.306.7-.7a.68.68 0 0 0-.158-.443z" clip-rule="evenodd"/></g><defs><clipPath id="a"><path fill="#fff" d="M0 0h14v14H0z"/></clipPath></defs></svg>