<svg width="16" height="16" viewBox="0 0 16 16" fill="none" xmlns="http://www.w3.org/2000/svg"><path d="M4.624 1.624 C 4.369 1.689,4.300 1.749,3.065 2.985 C 2.285 3.764,1.810 4.259,1.741 4.366 C 1.553 4.652,1.553 4.950,1.742 5.234 C 1.858 5.408,3.561 7.148,4.049 7.590 C 4.443 7.948,4.518 7.987,4.800 7.985 C 4.978 7.983,5.051 7.971,5.139 7.925 C 5.314 7.834,5.431 7.717,5.512 7.552 C 5.574 7.427,5.587 7.365,5.587 7.200 C 5.587 6.890,5.544 6.825,4.899 6.169 L 4.340 5.600 6.667 5.600 L 8.994 5.600 9.117 5.540 C 9.270 5.465,9.444 5.294,9.523 5.143 C 9.603 4.989,9.609 4.623,9.535 4.480 C 9.449 4.316,9.343 4.202,9.184 4.107 L 9.029 4.013 6.701 4.004 C 5.421 3.999,4.373 3.988,4.373 3.979 C 4.373 3.971,4.620 3.715,4.920 3.411 C 5.552 2.773,5.583 2.725,5.583 2.387 C 5.583 2.158,5.553 2.072,5.411 1.891 C 5.254 1.692,4.869 1.561,4.624 1.624 M10.942 8.048 C 10.756 8.114,10.588 8.257,10.494 8.430 C 10.427 8.554,10.416 8.601,10.416 8.786 C 10.415 9.123,10.447 9.171,11.080 9.811 C 11.380 10.115,11.627 10.371,11.627 10.379 C 11.627 10.388,10.580 10.399,9.300 10.405 C 7.097 10.414,6.968 10.417,6.880 10.464 C 6.701 10.559,6.564 10.692,6.488 10.847 C 6.388 11.052,6.385 11.333,6.481 11.532 C 6.561 11.700,6.717 11.856,6.876 11.929 C 6.999 11.986,7.010 11.987,9.331 11.994 L 11.661 12.002 11.102 12.568 C 10.450 13.227,10.413 13.284,10.414 13.613 C 10.414 13.770,10.427 13.852,10.464 13.920 C 10.553 14.087,10.684 14.227,10.830 14.307 C 10.957 14.378,10.999 14.387,11.200 14.387 C 11.486 14.387,11.562 14.345,11.979 13.963 C 12.508 13.478,14.142 11.809,14.258 11.634 C 14.447 11.349,14.447 11.051,14.258 10.766 C 14.139 10.588,12.473 8.886,11.938 8.398 C 11.602 8.090,11.517 8.044,11.227 8.015 C 11.121 8.004,11.042 8.013,10.942 8.048 " fill="#1A1C1F" stroke="none" fill-rule="evenodd"></path></svg>