<svg width="28" height="28" viewBox="0 0 28 28" fill="none" xmlns="http://www.w3.org/2000/svg"><path d="M18.018 1.843 C 17.815 1.935,13.465 6.285,13.258 6.603 C 13.127 6.803,13.109 6.868,13.126 7.057 C 13.164 7.474,13.513 7.828,13.931 7.875 C 14.097 7.894,14.178 7.873,14.359 7.767 C 14.487 7.693,15.212 7.013,16.042 6.190 L 17.500 4.745 17.502 10.107 C 17.503 13.057,17.522 15.625,17.544 15.814 C 17.569 16.027,17.618 16.205,17.673 16.281 C 17.816 16.476,18.090 16.590,18.417 16.590 C 18.668 16.590,18.728 16.572,18.884 16.447 C 18.983 16.368,19.105 16.221,19.157 16.120 C 19.248 15.940,19.250 15.828,19.266 10.352 L 19.282 4.766 20.689 6.183 C 21.463 6.962,22.201 7.664,22.327 7.743 C 22.596 7.910,22.802 7.925,23.077 7.798 C 23.545 7.581,23.742 7.082,23.535 6.634 C 23.456 6.463,19.379 2.343,18.937 1.988 C 18.752 1.840,18.673 1.808,18.447 1.791 C 18.265 1.778,18.125 1.795,18.018 1.843 M9.263 11.457 C 9.055 11.570,8.910 11.717,8.827 11.900 C 8.761 12.046,8.751 12.667,8.736 17.650 L 8.718 23.237 7.264 21.771 C 6.283 20.781,5.754 20.281,5.636 20.232 C 5.388 20.129,5.019 20.139,4.812 20.256 C 4.530 20.415,4.410 20.636,4.410 21.001 C 4.410 21.306,4.415 21.318,4.641 21.588 C 4.769 21.739,5.820 22.813,6.978 23.974 C 8.393 25.392,9.139 26.108,9.253 26.155 C 9.544 26.277,9.848 26.249,10.085 26.080 C 10.398 25.856,14.568 21.663,14.742 21.397 C 14.874 21.195,14.892 21.133,14.874 20.938 C 14.849 20.666,14.656 20.372,14.421 20.246 C 14.313 20.189,14.161 20.160,13.968 20.160 C 13.682 20.160,13.676 20.163,13.384 20.425 C 13.222 20.571,12.507 21.269,11.795 21.976 L 10.500 23.263 10.500 17.826 C 10.500 14.493,10.482 12.282,10.454 12.110 C 10.428 11.956,10.369 11.778,10.323 11.714 C 10.132 11.452,9.539 11.308,9.263 11.457 " fill="#1A1C1F" stroke="none" fill-rule="evenodd"></path></svg>