<svg width="12" height="12" viewBox="0 0 12 12" fill="none" xmlns="http://www.w3.org/2000/svg"><path d="M5.270 2.418 C 5.237 2.427,5.179 2.448,5.140 2.465 C 5.065 2.497,2.076 5.482,1.924 5.676 C 1.739 5.913,1.755 6.133,1.977 6.395 C 2.049 6.480,2.769 7.213,3.576 8.023 C 5.214 9.668,5.123 9.590,5.400 9.588 C 5.645 9.587,5.829 9.477,5.930 9.272 C 6.035 9.057,6.015 8.834,5.874 8.654 C 5.829 8.597,5.356 8.111,4.823 7.575 L 3.853 6.600 6.799 6.600 L 9.744 6.600 9.864 6.536 C 9.985 6.472,10.086 6.368,10.151 6.240 C 10.198 6.147,10.198 5.925,10.151 5.782 C 10.113 5.667,9.989 5.526,9.875 5.467 C 9.767 5.411,9.262 5.401,6.531 5.401 L 3.852 5.400 4.863 4.385 C 5.486 3.760,5.895 3.334,5.929 3.275 C 6.135 2.919,5.860 2.440,5.432 2.409 C 5.376 2.405,5.303 2.409,5.270 2.418 " fill="#1A1C1F" stroke="none" fill-rule="evenodd"></path></svg>