<svg width="28" height="28" viewBox="0 0 28 28" fill="none" xmlns="http://www.w3.org/2000/svg"><path d="M6.687 4.434 C 6.412 4.545,1.956 8.987,1.838 9.268 C 1.741 9.501,1.756 9.841,1.873 10.033 C 2.018 10.272,6.328 14.563,6.603 14.742 C 6.803 14.873,6.868 14.891,7.057 14.874 C 7.474 14.836,7.828 14.487,7.875 14.069 C 7.894 13.903,7.873 13.822,7.767 13.641 C 7.693 13.513,7.013 12.788,6.190 11.958 L 4.745 10.500 10.107 10.498 C 13.057 10.497,15.625 10.478,15.814 10.456 C 16.339 10.395,16.556 10.178,16.598 9.671 C 16.624 9.352,16.535 9.156,16.266 8.938 L 16.091 8.797 10.449 8.782 C 6.647 8.773,4.807 8.752,4.807 8.720 C 4.807 8.694,5.459 8.023,6.256 7.228 C 7.918 5.573,7.969 5.502,7.838 5.030 C 7.708 4.561,7.124 4.258,6.687 4.434 M20.768 13.172 C 20.305 13.293,20.034 13.767,20.160 14.235 C 20.208 14.413,20.401 14.625,21.704 15.937 C 22.523 16.762,23.193 17.449,23.193 17.464 C 23.193 17.479,20.667 17.498,17.578 17.507 L 11.963 17.523 11.799 17.636 C 11.185 18.057,11.293 19.002,11.977 19.191 C 12.097 19.223,14.007 19.247,17.707 19.260 L 23.257 19.281 21.780 20.739 C 20.078 22.419,20.028 22.488,20.163 22.975 C 20.228 23.207,20.495 23.500,20.705 23.569 C 20.796 23.600,20.973 23.614,21.097 23.602 C 21.406 23.573,21.468 23.517,23.973 21.023 C 25.433 19.571,26.106 18.870,26.155 18.750 C 26.276 18.456,26.249 18.153,26.081 17.915 C 25.917 17.685,21.770 13.528,21.509 13.332 C 21.309 13.182,20.992 13.114,20.768 13.172 " fill="#1A1C1F" stroke="none" fill-rule="evenodd"></path></svg>