<svg width="24" height="24" viewBox="0 0 24 24" fill="none" xmlns="http://www.w3.org/2000/svg"><path d="M10.760 5.040 C 10.683 5.056,10.575 5.087,10.520 5.110 C 10.360 5.176,4.191 11.393,4.100 11.580 C 4.044 11.695,4.022 11.826,4.021 12.044 L 4.020 12.348 4.220 12.583 C 4.489 12.901,8.648 17.085,9.703 18.100 C 10.517 18.885,10.553 18.913,10.765 18.957 C 11.204 19.048,11.611 18.864,11.859 18.462 C 11.964 18.292,11.980 18.229,11.980 17.980 C 11.980 17.737,11.964 17.670,11.873 17.532 C 11.814 17.443,10.790 16.386,9.598 15.185 L 7.430 13.000 13.337 13.000 L 19.243 13.000 19.431 12.904 C 19.804 12.714,19.967 12.439,19.967 12.002 C 19.967 11.848,19.939 11.669,19.899 11.569 C 19.819 11.369,19.565 11.137,19.363 11.078 C 19.269 11.051,17.188 11.028,13.332 11.012 L 7.443 10.987 9.605 8.807 C 10.794 7.608,11.815 6.555,11.874 6.466 C 11.964 6.331,11.980 6.262,11.980 6.023 C 11.980 5.787,11.962 5.709,11.871 5.554 C 11.633 5.149,11.201 4.950,10.760 5.040 " fill="#1A1C1F" stroke="none" fill-rule="evenodd"></path></svg>