<svg xmlns="http://www.w3.org/2000/svg" width="28" height="28" fill="none"><g clip-path="url(#a)"><path fill="#1A1C1F" fill-rule="evenodd" d="M5.25 14c0 .492.383.875.875.875h13.644l-5.523 5.496A.84.84 0 0 0 14 21c0 .492.355.875.875.875a.84.84 0 0 0 .629-.246l7-7A.84.84 0 0 0 22.75 14a.84.84 0 0 0-.246-.629l-7-7a.84.84 0 0 0-.63-.246A.86.86 0 0 0 14 7c0 .219.055.438.246.629l5.523 5.496H6.125A.866.866 0 0 0 5.25 14" clip-rule="evenodd"/></g><defs><clipPath id="a"><path fill="#fff" d="M0 0h28v28H0z"/></clipPath></defs></svg>