<svg width="28" height="28" viewBox="0 0 28 28" fill="none" xmlns="http://www.w3.org/2000/svg"><path d="M10.046 7.462 C 9.771 7.490,9.676 7.522,9.537 7.634 C 9.124 7.968,9.072 8.517,9.418 8.882 C 9.679 9.159,9.507 9.146,13.123 9.153 C 14.953 9.156,16.687 9.172,16.977 9.188 L 17.505 9.217 12.899 13.860 C 10.365 16.414,8.109 18.705,7.885 18.952 C 7.637 19.224,7.465 19.456,7.446 19.543 C 7.375 19.864,7.638 20.333,7.966 20.470 C 8.049 20.505,8.234 20.533,8.376 20.533 L 8.636 20.533 9.463 19.741 C 9.918 19.304,12.191 17.033,14.513 14.692 L 18.737 10.437 18.767 10.690 C 18.784 10.829,18.800 12.574,18.802 14.568 L 18.807 18.192 19.016 18.377 C 19.254 18.586,19.565 18.692,19.821 18.651 C 20.059 18.612,20.342 18.402,20.458 18.177 C 20.552 17.994,20.554 17.923,20.570 14.001 C 20.579 11.806,20.569 9.534,20.548 8.952 C 20.510 7.923,20.506 7.890,20.397 7.774 C 20.335 7.708,20.190 7.609,20.075 7.553 L 19.865 7.451 15.124 7.439 C 12.517 7.433,10.231 7.443,10.046 7.462 " fill="#1A1C1F" stroke="none" fill-rule="evenodd"></path></svg>