<svg xmlns="http://www.w3.org/2000/svg" width="12" height="12" fill="none"><g clip-path="url(#a)"><path fill="#1A1C1F" fill-rule="evenodd" d="M1.988 5.588A.53.53 0 0 0 1.8 6c0 .15.057.3.188.431l2.98 3a.626.626 0 0 0 .859-.004A.6.6 0 0 0 6 9a.58.58 0 0 0-.169-.412L3.843 6.6H9.6a.59.59 0 0 0 .6-.6c0-.319-.262-.6-.6-.6H3.843l1.989-1.969A.66.66 0 0 0 6 3c0-.319-.262-.6-.6-.6a.6.6 0 0 0-.38.135z" clip-rule="evenodd"/></g><defs><clipPath id="a"><path fill="#fff" d="M0 0h12v12H0z"/></clipPath></defs></svg>