<svg xmlns="http://www.w3.org/2000/svg" width="32" height="32" fill="none"><path fill="#1A1C1F" fill-rule="evenodd" d="M15.507 6.137a1.1 1.1 0 0 0-.347.327l-.147.222-.026 7.946-.027 7.946-3.147-3.184c-2.128-2.153-3.217-3.218-3.363-3.289-.512-.248-1.118-.022-1.363.508a.9.9 0 0 0-.018.762c.057.139 1.313 1.432 4.2 4.322 2.264 2.268 4.19 4.162 4.278 4.208.207.111.699.111.906 0 .088-.046 2.014-1.94 4.278-4.208 2.887-2.89 4.143-4.183 4.2-4.322.117-.282.102-.514-.05-.818a.995.995 0 0 0-1.316-.459c-.166.08-1.13 1.022-3.378 3.296l-3.147 3.184-.027-7.946-.026-7.946-.147-.222c-.276-.417-.882-.565-1.333-.327"/></svg>