<svg width="32" height="32" viewBox="0 0 32 32" fill="none" xmlns="http://www.w3.org/2000/svg"><path d="M11.388 8.569 C 10.859 8.608,10.507 8.989,10.507 9.521 C 10.507 9.796,10.562 9.930,10.767 10.151 C 11.059 10.467,10.862 10.453,15.024 10.460 C 17.130 10.464,19.115 10.482,19.435 10.500 L 20.016 10.533 15.328 15.254 C 9.060 21.565,8.604 22.037,8.530 22.284 C 8.450 22.552,8.538 22.874,8.761 23.129 C 8.977 23.374,9.199 23.467,9.573 23.467 L 9.869 23.467 10.815 22.559 C 11.335 22.060,13.932 19.464,16.587 16.790 L 21.413 11.928 21.448 12.244 C 21.466 12.418,21.484 14.412,21.488 16.675 L 21.493 20.791 21.733 21.002 C 22.277 21.481,23.006 21.400,23.364 20.821 L 23.487 20.621 23.490 14.964 C 23.494 8.685,23.513 9.035,23.138 8.733 L 22.944 8.576 17.325 8.561 C 14.235 8.552,11.563 8.556,11.388 8.569 " fill="#1A1C1F" stroke="none" fill-rule="evenodd"></path></svg>