<svg width="16" height="16" viewBox="0 0 16 16" fill="none" xmlns="http://www.w3.org/2000/svg"><path d="M11.040 1.625 C 10.802 1.675,10.744 1.725,9.697 2.768 C 9.127 3.336,8.531 3.942,8.372 4.115 C 8.124 4.386,8.076 4.453,8.038 4.582 C 7.989 4.751,8.000 4.977,8.064 5.132 C 8.114 5.251,8.309 5.446,8.457 5.525 C 8.624 5.613,8.974 5.612,9.147 5.522 C 9.218 5.484,9.488 5.240,9.816 4.916 L 10.365 4.372 10.382 4.753 C 10.392 4.962,10.400 6.002,10.400 7.064 L 10.400 8.994 10.459 9.112 C 10.547 9.288,10.670 9.419,10.830 9.506 C 10.957 9.575,11.000 9.584,11.200 9.584 C 11.400 9.584,11.443 9.575,11.570 9.506 C 11.730 9.419,11.853 9.288,11.941 9.112 L 12.000 8.994 12.000 6.667 L 12.000 4.340 12.569 4.899 C 13.232 5.550,13.288 5.587,13.613 5.586 C 13.782 5.586,13.850 5.573,13.939 5.526 C 14.305 5.332,14.472 4.959,14.361 4.581 C 14.323 4.449,14.276 4.386,14.001 4.088 C 13.827 3.900,13.237 3.300,12.689 2.755 C 11.935 2.004,11.661 1.747,11.560 1.698 C 11.413 1.626,11.185 1.594,11.040 1.625 M4.627 6.424 C 4.392 6.485,4.182 6.659,4.067 6.889 L 4.000 7.024 4.000 9.342 L 4.000 11.660 3.446 11.117 C 2.785 10.469,2.706 10.417,2.387 10.416 C 2.231 10.416,2.148 10.429,2.080 10.464 C 1.914 10.551,1.774 10.684,1.693 10.830 C 1.622 10.957,1.613 10.999,1.613 11.200 C 1.613 11.401,1.622 11.441,1.689 11.556 C 1.792 11.731,2.359 12.329,3.363 13.320 C 4.255 14.201,4.444 14.356,4.666 14.387 C 4.889 14.417,5.050 14.381,5.234 14.258 C 5.411 14.140,6.816 12.767,7.454 12.089 C 7.664 11.867,7.869 11.627,7.911 11.556 C 7.978 11.441,7.987 11.401,7.986 11.200 C 7.986 11.017,7.975 10.952,7.926 10.861 C 7.835 10.689,7.719 10.571,7.567 10.495 C 7.386 10.405,7.039 10.398,6.857 10.481 C 6.778 10.517,6.560 10.713,6.171 11.097 L 5.602 11.661 5.594 9.331 C 5.587 7.148,5.584 6.993,5.538 6.897 C 5.467 6.744,5.268 6.546,5.126 6.485 C 4.981 6.423,4.743 6.394,4.627 6.424 " fill="#1A1C1F" stroke="none" fill-rule="evenodd"></path></svg>