<svg width="12" height="12" viewBox="0 0 12 12" fill="none" xmlns="http://www.w3.org/2000/svg"><path d="M8.280 1.219 C 8.103 1.256,8.058 1.294,7.293 2.056 C 6.877 2.471,6.429 2.926,6.298 3.067 C 6.092 3.290,6.055 3.340,6.027 3.436 C 5.991 3.561,6.000 3.733,6.048 3.849 C 6.086 3.938,6.232 4.084,6.343 4.144 C 6.468 4.210,6.730 4.209,6.860 4.141 C 6.914 4.113,7.116 3.930,7.362 3.687 L 7.774 3.279 7.787 3.583 C 7.794 3.750,7.800 4.531,7.800 5.318 C 7.800 6.738,7.800 6.751,7.842 6.830 C 7.914 6.965,8.011 7.069,8.123 7.130 C 8.218 7.181,8.250 7.188,8.400 7.188 C 8.550 7.188,8.582 7.181,8.677 7.130 C 8.789 7.069,8.886 6.965,8.958 6.830 C 9.000 6.751,9.000 6.743,9.000 5.002 L 9.000 3.254 9.425 3.673 C 9.921 4.162,9.965 4.190,10.210 4.190 C 10.337 4.189,10.388 4.180,10.454 4.145 C 10.729 3.999,10.854 3.719,10.771 3.436 C 10.742 3.337,10.707 3.289,10.501 3.066 C 10.080 2.611,8.755 1.308,8.676 1.273 C 8.606 1.241,8.419 1.197,8.372 1.202 C 8.360 1.204,8.319 1.211,8.280 1.219 M3.470 4.818 C 3.292 4.864,3.127 5.002,3.047 5.170 L 3.000 5.270 3.000 7.008 L 3.000 8.745 2.584 8.338 C 2.088 7.850,2.028 7.811,1.790 7.811 C 1.674 7.812,1.611 7.822,1.560 7.848 C 1.436 7.913,1.330 8.013,1.269 8.123 C 1.217 8.218,1.210 8.249,1.210 8.400 C 1.210 8.622,1.241 8.675,1.589 9.046 C 2.041 9.529,3.142 10.605,3.274 10.693 C 3.488 10.836,3.712 10.836,3.925 10.693 C 4.058 10.605,5.117 9.570,5.591 9.067 C 5.748 8.900,5.902 8.720,5.933 8.667 C 5.984 8.581,5.990 8.551,5.990 8.400 C 5.989 8.204,5.952 8.112,5.820 7.980 C 5.691 7.851,5.595 7.812,5.409 7.812 C 5.160 7.812,5.119 7.839,4.626 8.327 L 4.201 8.745 4.196 6.998 C 4.190 5.361,4.188 5.245,4.154 5.173 C 4.100 5.058,3.951 4.910,3.844 4.864 C 3.735 4.817,3.557 4.795,3.470 4.818 " fill="#1A1C1F" stroke="none" fill-rule="evenodd"></path></svg>