<svg width="16" height="16" viewBox="0 0 16 16" fill="none" xmlns="http://www.w3.org/2000/svg"><path d="M7.827 2.424 C 7.783 2.436,7.694 2.472,7.629 2.505 C 7.463 2.590,3.333 6.718,3.265 6.867 C 3.197 7.015,3.197 7.389,3.265 7.520 C 3.354 7.692,3.492 7.835,3.635 7.906 C 3.924 8.047,4.221 8.021,4.461 7.832 C 4.538 7.772,5.185 7.142,5.900 6.430 L 7.200 5.137 7.200 9.066 L 7.200 12.994 7.259 13.112 C 7.351 13.296,7.481 13.430,7.647 13.511 C 7.854 13.612,8.136 13.616,8.332 13.520 C 8.500 13.438,8.640 13.299,8.722 13.131 L 8.787 13.000 8.794 9.068 L 8.801 5.136 10.140 6.470 C 10.877 7.203,11.538 7.841,11.609 7.887 C 11.983 8.129,12.513 7.956,12.726 7.523 C 12.806 7.361,12.810 7.052,12.735 6.893 C 12.702 6.823,12.162 6.262,11.149 5.244 C 9.363 3.450,8.397 2.513,8.282 2.466 C 8.173 2.422,7.926 2.399,7.827 2.424 " fill="#1A1C1F" stroke="none" fill-rule="evenodd"></path></svg>