<svg xmlns="http://www.w3.org/2000/svg" width="20" height="20" fill="none"><g clip-path="url(#a)"><path fill="#1A1C1F" fill-rule="evenodd" d="M6.757 5.25h6.998c.513 0 .994.385.994.899v7.093c0 .513-.45.994-.995.994a.98.98 0 0 1-.995-.994v-4.59l-5.84 5.841c-.16.193-.385.257-.61.257a1.07 1.07 0 0 1-1.059-1.06c0-.192.064-.416.193-.545L11.35 7.24h-4.59a.973.973 0 0 1-.995-.963c0-.546.416-1.027.993-1.027" clip-rule="evenodd"/></g><defs><clipPath id="a"><path fill="#fff" d="M0 0h20v20H0z"/></clipPath></defs></svg>