<svg width="12" height="12" viewBox="0 0 12 12" fill="none" xmlns="http://www.w3.org/2000/svg"><path d="M6.436 2.427 C 6.241 2.481,6.088 2.631,6.030 2.827 C 5.992 2.954,5.992 3.046,6.030 3.175 C 6.069 3.307,6.128 3.370,7.245 4.492 L 8.144 5.394 5.185 5.405 L 2.226 5.416 2.142 5.459 C 2.029 5.517,1.917 5.632,1.859 5.752 C 1.794 5.884,1.792 6.107,1.854 6.244 C 1.915 6.378,2.051 6.506,2.188 6.557 L 2.302 6.600 5.225 6.600 L 8.148 6.600 7.137 7.615 C 6.484 8.271,6.105 8.665,6.068 8.730 C 6.017 8.818,6.010 8.849,6.011 8.990 C 6.011 9.180,6.057 9.291,6.186 9.418 C 6.348 9.580,6.555 9.633,6.770 9.571 C 6.885 9.537,6.900 9.524,8.046 8.383 C 9.356 7.079,10.102 6.313,10.153 6.216 C 10.208 6.112,10.202 5.876,10.140 5.750 C 10.102 5.672,9.790 5.347,8.711 4.262 C 7.162 2.706,6.925 2.479,6.808 2.446 C 6.674 2.407,6.534 2.400,6.436 2.427 " fill="#1A1C1F" stroke="none" fill-rule="evenodd"></path></svg>