<svg width="20" height="20" viewBox="0 0 20 20" fill="none" xmlns="http://www.w3.org/2000/svg"><path d="M13.799 2.031 C 13.502 2.089,13.407 2.172,11.862 3.725 C 11.028 4.564,10.284 5.329,10.208 5.425 C 10.028 5.656,9.973 5.887,10.025 6.193 C 10.070 6.454,10.181 6.629,10.416 6.806 C 10.506 6.874,10.654 6.948,10.744 6.969 C 10.956 7.020,11.261 6.988,11.442 6.896 C 11.524 6.854,11.872 6.538,12.270 6.144 L 12.956 5.465 12.978 6.021 C 12.990 6.327,13.000 7.629,13.000 8.914 C 13.000 11.229,13.001 11.252,13.070 11.384 C 13.190 11.609,13.351 11.781,13.538 11.883 C 13.696 11.969,13.749 11.980,14.000 11.980 C 14.227 11.979,14.312 11.964,14.426 11.905 C 14.618 11.805,14.813 11.606,14.916 11.402 L 15.000 11.236 15.000 8.330 L 15.000 5.424 15.711 6.123 C 16.541 6.939,16.610 6.984,17.017 6.982 C 17.224 6.980,17.314 6.964,17.424 6.906 C 17.879 6.669,18.090 6.199,17.952 5.727 C 17.903 5.561,17.845 5.482,17.502 5.110 C 16.800 4.351,14.591 2.181,14.461 2.121 C 14.343 2.068,14.031 1.996,13.954 2.004 C 13.933 2.006,13.864 2.018,13.799 2.031 M5.783 8.030 C 5.489 8.106,5.227 8.324,5.084 8.611 L 5.000 8.780 5.000 11.678 L 5.000 14.575 4.307 13.896 C 3.482 13.086,3.383 13.021,2.984 13.020 C 2.788 13.019,2.685 13.036,2.600 13.080 C 2.392 13.189,2.217 13.355,2.116 13.538 C 2.028 13.697,2.017 13.748,2.017 14.000 C 2.017 14.251,2.027 14.302,2.111 14.445 C 2.164 14.533,2.420 14.833,2.682 15.111 C 3.471 15.950,5.237 17.674,5.458 17.822 C 5.813 18.059,6.187 18.059,6.542 17.822 C 6.767 17.672,8.515 15.964,9.305 15.123 C 9.938 14.448,9.983 14.373,9.983 14.000 C 9.983 13.771,9.968 13.690,9.908 13.576 C 9.794 13.362,9.648 13.213,9.459 13.119 C 9.315 13.047,9.241 13.033,9.004 13.033 C 8.581 13.033,8.531 13.066,7.709 13.878 L 7.002 14.577 6.993 11.663 C 6.982 8.383,7.004 8.644,6.717 8.338 C 6.633 8.247,6.494 8.144,6.407 8.107 C 6.226 8.029,5.928 7.992,5.783 8.030 " fill="#1A1C1F" stroke="none" fill-rule="evenodd"></path></svg>