<svg xmlns="http://www.w3.org/2000/svg" width="20" height="20" fill="none"><g clip-path="url(#a)"><path fill="#1A1C1F" fill-rule="evenodd" d="M10.688 16.687A.89.89 0 0 1 10 17c-.25 0-.5-.094-.719-.313l-5-4.968A1.04 1.04 0 0 1 4 11c0-.563.438-1 1-1 .25 0 .5.094.688.281L9 13.594V4c0-.563.438-1 1-1 .531 0 1 .438 1 1v9.594l3.281-3.313C14.5 10.094 14.75 10 15 10c.531 0 1 .438 1 1a.98.98 0 0 1-.226.633z" clip-rule="evenodd"/></g><defs><clipPath id="a"><path fill="#fff" d="M0 0h20v20H0z"/></clipPath></defs></svg>