<svg xmlns="http://www.w3.org/2000/svg" width="14" height="14" fill="none"><g clip-path="url(#a)"><path fill="#1A1C1F" fill-rule="evenodd" d="M7.481 11.681A.62.62 0 0 1 7 11.9a.7.7 0 0 1-.503-.219l-3.5-3.478A.73.73 0 0 1 2.8 7.7c0-.394.306-.7.7-.7.175 0 .35.066.481.197L6.3 9.516V2.8c0-.394.306-.7.7-.7.372 0 .7.306.7.7v6.716l2.297-2.32A.77.77 0 0 1 10.5 7c.372 0 .7.306.7.7a.68.68 0 0 1-.158.443z" clip-rule="evenodd"/></g><defs><clipPath id="a"><path fill="#fff" d="M0 0h14v14H0z"/></clipPath></defs></svg>