<svg width="28" height="28" viewBox="0 0 28 28" fill="none" xmlns="http://www.w3.org/2000/svg"><path d="M13.636 5.344 C 13.465 5.418,9.661 9.178,7.512 11.396 C 6.312 12.634,6.166 12.802,6.137 12.970 C 6.054 13.461,6.505 14.000,7.000 14.000 C 7.363 14.000,7.485 13.891,10.312 11.049 L 13.043 8.303 13.072 9.250 C 13.088 9.770,13.103 12.887,13.107 16.175 L 13.113 22.154 13.310 22.376 C 13.532 22.629,13.725 22.727,14.000 22.727 C 14.275 22.727,14.468 22.629,14.690 22.376 L 14.887 22.154 14.893 16.152 C 14.896 12.851,14.912 9.734,14.928 9.225 L 14.957 8.301 17.646 11.008 C 19.125 12.497,20.436 13.779,20.560 13.857 C 20.685 13.937,20.848 14.000,20.927 14.000 C 21.357 13.999,21.727 13.728,21.838 13.331 C 21.954 12.917,21.933 12.885,20.818 11.723 C 19.083 9.916,14.513 5.408,14.345 5.338 C 14.147 5.255,13.834 5.258,13.636 5.344 " fill="#1A1C1F" stroke="none" fill-rule="evenodd"></path></svg>