<svg width="20" height="20" viewBox="0 0 20 20" fill="none" xmlns="http://www.w3.org/2000/svg"><path d="M9.723 3.047 C 9.500 3.108,9.306 3.256,9.150 3.487 L 9.017 3.683 9.008 8.631 L 8.999 13.579 7.425 12.013 C 6.559 11.152,5.768 10.378,5.667 10.294 C 5.390 10.064,5.310 10.033,4.992 10.033 C 4.759 10.033,4.685 10.048,4.541 10.119 C 4.201 10.288,4.018 10.597,4.018 11.000 C 4.019 11.464,3.880 11.302,6.711 14.124 C 8.107 15.515,9.333 16.716,9.433 16.791 C 9.723 17.008,10.094 17.058,10.365 16.917 C 10.628 16.781,15.809 11.618,15.918 11.383 C 15.958 11.295,15.980 11.171,15.981 11.017 C 15.987 10.224,15.118 9.737,14.472 10.172 C 14.387 10.230,13.570 11.020,12.658 11.929 L 11.000 13.581 11.000 8.713 C 11.000 3.140,11.030 3.658,10.686 3.315 C 10.534 3.163,10.446 3.103,10.333 3.074 C 10.079 3.010,9.890 3.002,9.723 3.047 " fill="#1A1C1F" stroke="none" fill-rule="evenodd"></path></svg>