<svg width="24" height="24" viewBox="0 0 24 24" fill="none" xmlns="http://www.w3.org/2000/svg"><path d="M16.612 2.080 C 16.564 2.100,16.231 2.393,15.872 2.733 C 15.103 3.460,12.445 6.139,12.230 6.404 C 11.975 6.717,11.942 7.157,12.147 7.512 C 12.353 7.870,12.798 8.058,13.218 7.964 C 13.493 7.902,13.558 7.847,14.930 6.483 L 16.000 5.421 16.000 9.832 L 16.000 14.243 16.096 14.431 C 16.287 14.805,16.561 14.967,17.000 14.967 C 17.439 14.967,17.713 14.805,17.904 14.431 L 18.000 14.243 18.000 9.835 L 18.000 5.428 19.210 6.625 C 19.920 7.327,20.482 7.851,20.570 7.893 C 21.100 8.143,21.750 7.880,21.934 7.340 C 22.012 7.112,22.016 6.980,21.955 6.737 C 21.894 6.496,21.419 5.985,19.287 3.869 C 18.082 2.673,17.554 2.175,17.432 2.120 C 17.248 2.036,16.778 2.014,16.612 2.080 M6.748 9.039 C 6.530 9.081,6.280 9.277,6.130 9.523 L 6.000 9.736 5.995 13.518 C 5.992 15.598,5.978 17.579,5.965 17.920 L 5.940 18.540 4.840 17.460 C 3.620 16.262,3.450 16.113,3.225 16.040 C 2.905 15.937,2.521 16.071,2.250 16.378 C 1.969 16.698,1.930 17.102,2.146 17.477 C 2.294 17.735,6.369 21.802,6.580 21.902 C 6.685 21.951,6.830 21.978,7.000 21.979 C 7.215 21.980,7.294 21.960,7.460 21.864 C 7.735 21.706,11.706 17.735,11.864 17.460 C 11.960 17.294,11.980 17.216,11.979 17.000 C 11.977 16.690,11.883 16.485,11.648 16.272 C 11.453 16.096,11.248 16.023,10.951 16.026 C 10.766 16.027,10.691 16.049,10.556 16.143 C 10.464 16.207,9.865 16.769,9.224 17.394 L 8.060 18.528 8.035 17.934 C 8.022 17.607,8.008 15.630,8.005 13.540 L 7.999 9.740 7.883 9.537 C 7.767 9.334,7.567 9.150,7.393 9.086 C 7.245 9.031,6.913 9.007,6.748 9.039 " fill="#1A1C1F" stroke="none" fill-rule="evenodd"></path></svg>