<svg xmlns="http://www.w3.org/2000/svg" width="20" height="20" fill="none"><g clip-path="url(#a)"><path fill="#1A1C1F" fill-rule="evenodd" d="M10.688 3.313A.89.89 0 0 0 10 3c-.25 0-.5.094-.719.313l-5 4.968A1.04 1.04 0 0 0 4 9c0 .563.438 1 1 1 .25 0 .5-.094.688-.281L9 6.406V16c0 .563.438 1 1 1 .531 0 1-.438 1-1V6.406l3.281 3.313c.219.187.469.281.719.281.531 0 1-.438 1-1a.98.98 0 0 0-.226-.633z" clip-rule="evenodd"/></g><defs><clipPath id="a"><path fill="#fff" d="M0 0h20v20H0z"/></clipPath></defs></svg>