<svg width="20" height="20" viewBox="0 0 20 20" fill="none" xmlns="http://www.w3.org/2000/svg"><path d="M8.783 4.030 C 8.728 4.045,8.631 4.080,8.567 4.108 C 8.444 4.161,3.565 9.033,3.242 9.425 C 2.926 9.807,2.917 10.164,3.212 10.567 C 3.286 10.667,4.494 11.902,5.897 13.309 L 8.447 15.869 8.677 15.939 C 9.177 16.091,9.668 15.893,9.883 15.454 C 10.058 15.095,10.025 14.724,9.790 14.423 C 9.716 14.328,8.927 13.519,8.038 12.625 L 6.421 11.000 11.331 11.000 L 16.241 11.000 16.440 10.894 C 16.728 10.740,16.934 10.468,16.978 10.182 C 17.007 9.992,16.943 9.641,16.852 9.483 C 16.775 9.353,16.593 9.185,16.439 9.103 C 16.284 9.020,15.284 9.002,10.885 9.001 L 6.419 9.000 8.105 7.308 C 9.143 6.266,9.825 5.556,9.882 5.458 C 10.224 4.864,9.767 4.067,9.054 4.015 C 8.960 4.009,8.838 4.015,8.783 4.030 " fill="#1A1C1F" stroke="none" fill-rule="evenodd"></path></svg>