<svg width="12" height="12" viewBox="0 0 12 12" fill="none" xmlns="http://www.w3.org/2000/svg"><path d="M3.468 1.218 C 3.285 1.264,3.216 1.323,2.452 2.079 C 1.643 2.880,1.322 3.221,1.254 3.350 C 1.221 3.413,1.211 3.467,1.211 3.600 C 1.210 3.814,1.240 3.871,1.528 4.184 C 1.890 4.579,3.144 5.806,3.274 5.893 C 3.412 5.985,3.521 6.010,3.690 5.989 C 3.991 5.952,4.225 5.652,4.194 5.346 C 4.174 5.155,4.121 5.081,3.674 4.627 L 3.255 4.200 4.998 4.200 L 6.741 4.200 6.840 4.150 C 6.984 4.077,7.071 3.992,7.134 3.864 C 7.250 3.626,7.188 3.310,6.994 3.153 C 6.804 2.999,6.972 3.012,5.025 3.004 C 4.065 2.999,3.280 2.991,3.280 2.984 C 3.280 2.978,3.463 2.788,3.687 2.561 C 3.911 2.335,4.109 2.121,4.128 2.085 C 4.259 1.831,4.187 1.495,3.964 1.326 C 3.842 1.233,3.608 1.182,3.468 1.218 M8.236 6.028 C 8.125 6.058,7.994 6.144,7.930 6.229 C 7.835 6.357,7.813 6.424,7.812 6.590 C 7.812 6.839,7.839 6.881,8.314 7.361 C 8.537 7.588,8.720 7.778,8.720 7.784 C 8.720 7.791,7.935 7.799,6.975 7.804 C 5.326 7.811,5.226 7.813,5.160 7.848 C 5.026 7.919,4.923 8.019,4.866 8.135 C 4.819 8.231,4.810 8.274,4.811 8.400 C 4.814 8.645,4.933 8.834,5.152 8.942 L 5.250 8.990 6.998 8.996 L 8.746 9.001 8.327 9.426 C 7.838 9.920,7.810 9.963,7.810 10.210 C 7.810 10.350,7.817 10.383,7.869 10.476 C 7.935 10.595,8.020 10.678,8.146 10.745 C 8.214 10.781,8.263 10.790,8.400 10.790 C 8.617 10.790,8.673 10.759,9.005 10.452 C 9.432 10.057,10.606 8.857,10.693 8.726 C 10.836 8.512,10.836 8.288,10.693 8.074 C 10.605 7.941,9.354 6.664,8.954 6.298 C 8.775 6.135,8.694 6.075,8.624 6.053 C 8.483 6.009,8.341 6.000,8.236 6.028 " fill="#1A1C1F" stroke="none" fill-rule="evenodd"></path></svg>