<svg xmlns="http://www.w3.org/2000/svg" width="32" height="32" fill="none"><path fill="#1A1C1F" fill-rule="evenodd" d="M14.853 7.012c-.029.01-.125.034-.213.053-.12.026-1.186 1.058-4.31 4.178-2.283 2.279-4.189 4.216-4.236 4.304-.11.207-.11.699.001.906.046.088 1.94 2.014 4.208 4.278 2.89 2.887 4.183 4.143 4.322 4.2.82.339 1.637-.511 1.293-1.346-.057-.14-1.033-1.142-3.293-3.382l-3.212-3.184 7.84-.003c5.347-.002 7.905-.021 8.044-.06.112-.031.295-.148.408-.261.547-.547.276-1.488-.475-1.649-.194-.042-2.582-.06-8.046-.062l-7.771-.002 3.235-3.211c3.516-3.49 3.398-3.352 3.333-3.895a1.01 1.01 0 0 0-.493-.737c-.154-.088-.532-.164-.635-.127"/></svg>