<svg xmlns="http://www.w3.org/2000/svg" width="24" height="24" fill="none"><g clip-path="url(#a)"><path fill="#1A1C1F" fill-rule="evenodd" d="M12 20.003c.562 0 1-.438 1-1V7.409l4.28 4.28a1 1 0 0 0 .72.314c.437 0 1-.375 1-1.032a.97.97 0 0 0-.282-.687l-6-6a.98.98 0 0 0-.61-.276L12 4.003c-.25-.032-.515.077-.72.28l-6 6a1.03 1.03 0 0 0-.28.688c0 .563.468 1.032 1 1.032a.98.98 0 0 0 .718-.313L11 7.409v11.594c0 .562.437 1 1 1" clip-rule="evenodd"/></g><defs><clipPath id="a"><path fill="#fff" d="M0 0h24v24H0z"/></clipPath></defs></svg>