<svg xmlns="http://www.w3.org/2000/svg" width="14" height="14" fill="none"><g clip-path="url(#a)"><path fill="#1A1C1F" fill-rule="evenodd" d="M2.319 6.519A.62.62 0 0 0 2.1 7c0 .175.066.35.219.503l3.478 3.5a.73.73 0 0 0 1.001-.005A.7.7 0 0 0 7 10.5a.68.68 0 0 0-.197-.481L4.484 7.7H11.2a.69.69 0 0 0 .7-.7c0-.372-.306-.7-.7-.7H4.484l2.32-2.297A.77.77 0 0 0 7 3.5c0-.372-.306-.7-.7-.7a.68.68 0 0 0-.443.158z" clip-rule="evenodd"/></g><defs><clipPath id="a"><path fill="#fff" d="M0 0h14v14H0z"/></clipPath></defs></svg>