<svg width="14" height="14" viewBox="0 0 14 14" fill="none" xmlns="http://www.w3.org/2000/svg"><path d="M6.860 2.121 C 6.815 2.131,6.732 2.163,6.675 2.192 C 6.528 2.268,2.916 5.879,2.858 6.008 C 2.794 6.150,2.798 6.467,2.866 6.597 C 2.944 6.747,3.047 6.852,3.182 6.918 C 3.434 7.041,3.694 7.018,3.904 6.853 C 3.970 6.801,4.537 6.249,5.163 5.626 L 6.300 4.495 6.300 7.930 L 6.300 11.365 6.358 11.480 C 6.443 11.648,6.543 11.750,6.692 11.823 C 6.872 11.911,7.120 11.914,7.291 11.830 C 7.437 11.758,7.560 11.636,7.632 11.490 L 7.688 11.375 7.694 7.934 L 7.700 4.494 8.896 5.687 C 10.230 7.018,10.185 6.982,10.500 6.986 C 10.639 6.988,10.698 6.977,10.785 6.934 C 10.924 6.866,11.066 6.724,11.134 6.585 C 11.204 6.443,11.208 6.173,11.142 6.032 C 11.113 5.969,10.667 5.504,9.779 4.612 C 8.206 3.031,7.383 2.235,7.263 2.174 C 7.159 2.121,6.975 2.097,6.860 2.121 " fill="#1A1C1F" stroke="none" fill-rule="evenodd"></path></svg>