<svg xmlns="http://www.w3.org/2000/svg" width="32" height="32" fill="none"><path fill="#1A1C1F" fill-rule="evenodd" d="M15.547 6.104c-.253.115-8.38 8.283-8.478 8.521-.114.276-.103.512.038.787.263.517.837.728 1.329.49.166-.081 1.122-1.013 3.378-3.296l3.146-3.184.027 7.951.026 7.951.16.227a.98.98 0 0 0 .827.435.98.98 0 0 0 .827-.435l.16-.227.026-7.951.027-7.951 3.147 3.184c2.25 2.277 3.212 3.216 3.378 3.296.183.089.292.106.525.082.38-.04.622-.206.791-.541.157-.314.166-.566.03-.856-.125-.266-8.277-8.421-8.501-8.505-.209-.077-.671-.066-.863.022"/></svg>