<svg width="12" height="12" viewBox="0 0 12 12" fill="none" xmlns="http://www.w3.org/2000/svg"><path d="M3.806 3.209 C 3.374 3.431,3.348 4.043,3.762 4.270 L 3.870 4.329 5.320 4.342 C 6.117 4.350,6.774 4.357,6.779 4.358 C 6.783 4.359,5.981 5.168,4.996 6.156 C 3.465 7.690,3.201 7.963,3.182 8.031 C 3.148 8.154,3.156 8.327,3.200 8.445 C 3.318 8.761,3.750 8.943,4.014 8.789 C 4.075 8.754,4.759 8.086,5.884 6.964 L 7.659 5.194 7.664 6.652 C 7.671 8.287,7.660 8.174,7.821 8.349 C 7.934 8.472,8.073 8.529,8.260 8.529 C 8.390 8.530,8.425 8.522,8.519 8.470 C 8.639 8.404,8.779 8.242,8.819 8.124 C 8.839 8.067,8.847 7.550,8.855 5.838 C 8.864 3.650,8.864 3.625,8.824 3.534 C 8.771 3.414,8.638 3.272,8.530 3.220 C 8.443 3.178,8.430 3.178,6.176 3.167 L 3.910 3.156 3.806 3.209 " fill="#1A1C1F" stroke="none" fill-rule="evenodd"></path></svg>