<svg xmlns="http://www.w3.org/2000/svg" width="14" height="14" fill="none"><g clip-path="url(#a)"><path fill="#1A1C1F" fill-rule="evenodd" d="M11.681 7.481A.62.62 0 0 0 11.9 7a.7.7 0 0 0-.219-.503l-3.478-3.5a.73.73 0 0 0-1.001.005A.7.7 0 0 0 7 3.5c0 .175.066.35.197.481L9.516 6.3H2.8a.69.69 0 0 0-.7.7c0 .372.306.7.7.7h6.716l-2.32 2.297A.77.77 0 0 0 7 10.5a.705.705 0 0 0 .975.645.7.7 0 0 0 .228-.164z" clip-rule="evenodd"/></g><defs><clipPath id="a"><path fill="#fff" d="M0 0h14v14H0z"/></clipPath></defs></svg>