<svg width="28" height="28" viewBox="0 0 28 28" fill="none" xmlns="http://www.w3.org/2000/svg"><path d="M12.890 6.168 C 12.792 6.195,12.547 6.390,12.213 6.707 C 11.359 7.519,6.723 12.143,5.970 12.936 L 5.273 13.668 5.273 14.000 L 5.273 14.333 6.014 15.111 C 6.946 16.091,12.314 21.428,12.610 21.669 C 12.911 21.914,13.121 21.940,13.465 21.771 C 13.936 21.541,14.116 21.082,13.904 20.645 C 13.823 20.477,13.137 19.767,11.050 17.690 L 8.303 14.957 9.250 14.928 C 9.771 14.912,12.887 14.897,16.175 14.893 L 22.154 14.887 22.372 14.695 C 22.648 14.451,22.727 14.298,22.727 14.000 C 22.727 13.713,22.652 13.556,22.411 13.339 L 22.230 13.175 20.884 13.144 C 20.144 13.127,16.995 13.113,13.887 13.113 L 8.237 13.112 11.016 10.347 C 13.883 7.494,14.000 7.362,14.000 7.007 C 14.000 6.834,13.892 6.553,13.777 6.425 C 13.586 6.215,13.167 6.093,12.890 6.168 " fill="#1A1C1F" stroke="none" fill-rule="evenodd"></path></svg>