<svg width="14" height="14" viewBox="0 0 14 14" fill="none" xmlns="http://www.w3.org/2000/svg"><path d="M9.659 1.422 C 9.452 1.462,9.385 1.521,8.304 2.607 C 7.719 3.195,7.199 3.730,7.147 3.796 C 6.996 3.989,6.961 4.262,7.057 4.492 C 7.100 4.595,7.271 4.765,7.400 4.834 C 7.546 4.912,7.852 4.910,8.003 4.831 C 8.066 4.799,8.302 4.585,8.589 4.301 L 9.069 3.826 9.085 4.215 C 9.093 4.429,9.100 5.338,9.100 6.235 C 9.100 7.850,9.100 7.866,9.149 7.963 C 9.229 8.122,9.343 8.245,9.477 8.318 C 9.587 8.378,9.625 8.386,9.800 8.386 C 9.975 8.386,10.013 8.378,10.123 8.318 C 10.257 8.245,10.371 8.122,10.451 7.963 C 10.500 7.866,10.500 7.857,10.500 5.831 L 10.500 3.797 10.998 4.286 C 11.578 4.856,11.627 4.889,11.912 4.888 C 12.060 4.888,12.119 4.877,12.197 4.835 C 12.422 4.716,12.563 4.519,12.591 4.288 C 12.612 4.103,12.567 3.942,12.453 3.796 C 12.401 3.730,11.882 3.196,11.300 2.611 C 10.581 1.888,10.210 1.532,10.141 1.497 C 10.086 1.469,9.985 1.436,9.917 1.423 C 9.783 1.398,9.780 1.398,9.659 1.422 M4.048 5.621 C 3.841 5.674,3.648 5.836,3.555 6.032 L 3.500 6.148 3.500 8.176 L 3.500 10.203 3.015 9.727 C 2.435 9.159,2.366 9.112,2.088 9.113 C 1.872 9.114,1.760 9.160,1.610 9.310 C 1.456 9.464,1.412 9.572,1.412 9.800 C 1.412 10.059,1.448 10.121,1.854 10.554 C 2.381 11.117,3.666 12.373,3.820 12.475 C 4.069 12.642,4.331 12.642,4.580 12.475 C 4.735 12.372,5.964 11.171,6.523 10.578 C 6.706 10.383,6.885 10.173,6.922 10.111 C 6.981 10.011,6.988 9.976,6.988 9.800 C 6.988 9.572,6.944 9.464,6.790 9.310 C 6.639 9.159,6.528 9.114,6.311 9.114 C 6.021 9.115,5.973 9.146,5.397 9.714 L 4.901 10.203 4.895 8.164 C 4.889 6.254,4.886 6.119,4.846 6.035 C 4.783 5.901,4.610 5.728,4.485 5.675 C 4.358 5.620,4.150 5.595,4.048 5.621 " fill="#1A1C1F" stroke="none" fill-rule="evenodd"></path></svg>