<svg xmlns="http://www.w3.org/2000/svg" width="16" height="16" fill="none"><g clip-path="url(#a)"><path fill="#1A1C1F" fill-rule="evenodd" d="M5.407 4.2h5.597c.41 0 .796.308.796.719v5.674c0 .411-.36.796-.796.796a.785.785 0 0 1-.796-.796V6.922l-4.673 4.673c-.128.154-.308.205-.488.205a.855.855 0 0 1-.847-.847c0-.154.051-.334.154-.437l4.724-4.724H5.407a.78.78 0 0 1-.796-.77c0-.437.334-.822.796-.822" clip-rule="evenodd"/></g><defs><clipPath id="a"><path fill="#fff" d="M0 0h16v16H0z"/></clipPath></defs></svg>