<svg xmlns="http://www.w3.org/2000/svg" width="20" height="20" fill="none"><g clip-path="url(#a)"><path fill="#1A1C1F" fill-rule="evenodd" d="M3.313 9.313A.89.89 0 0 0 3 10c0 .25.094.5.313.719l4.968 5c.188.187.469.281.719.281.563 0 1-.438 1-1a.97.97 0 0 0-.281-.688L6.406 11H16c.563 0 1-.438 1-1 0-.531-.438-1-1-1H6.406L9.72 5.719C9.906 5.5 10 5.25 10 5c0-.531-.438-1-1-1a.98.98 0 0 0-.633.226z" clip-rule="evenodd"/></g><defs><clipPath id="a"><path fill="#fff" d="M0 0h20v20H0z"/></clipPath></defs></svg>