<svg width="14" height="14" viewBox="0 0 14 14" fill="none" xmlns="http://www.w3.org/2000/svg"><path d="M4.441 3.744 C 3.936 4.003,3.906 4.716,4.389 4.982 L 4.515 5.051 6.207 5.066 C 7.137 5.074,7.903 5.083,7.908 5.084 C 7.914 5.085,6.979 6.029,5.831 7.181 C 3.551 9.468,3.687 9.314,3.687 9.598 C 3.687 9.671,3.707 9.783,3.733 9.853 C 3.871 10.221,4.376 10.433,4.685 10.253 C 4.754 10.213,5.574 9.412,6.865 8.124 L 8.935 6.060 8.942 7.761 L 8.948 9.462 9.004 9.573 C 9.126 9.820,9.412 9.983,9.673 9.957 C 9.919 9.931,10.162 9.767,10.251 9.567 C 10.320 9.411,10.334 8.879,10.335 6.370 C 10.336 4.297,10.334 4.208,10.291 4.114 C 10.231 3.981,10.074 3.816,9.952 3.757 C 9.852 3.708,9.830 3.708,7.206 3.695 L 4.562 3.682 4.441 3.744 " fill="#1A1C1F" stroke="none" fill-rule="evenodd"></path></svg>