<svg xmlns="http://www.w3.org/2000/svg" width="24" height="24" fill="none"><g clip-path="url(#a)"><path fill="#1A1C1F" fill-rule="evenodd" d="M20.003 12c0-.563-.437-1-1-1H7.409l4.28-4.281A1 1 0 0 0 12.005 6c0-.438-.375-1-1.03-1a.97.97 0 0 0-.688.281l-6 6a.98.98 0 0 0-.278.611L4.002 12c-.03.25.078.515.282.719l6 6c.188.187.468.281.688.281.563 0 1.03-.469 1.03-1a.98.98 0 0 0-.312-.719L7.41 13h11.593c.563 0 1-.438 1-1" clip-rule="evenodd"/></g><defs><clipPath id="a"><path fill="#fff" d="M0 0h24v24H0z"/></clipPath></defs></svg>