<svg width="24" height="24" viewBox="0 0 24 24" fill="none" xmlns="http://www.w3.org/2000/svg"><path d="M11.665 4.057 C 11.438 4.140,11.234 4.322,11.120 4.543 L 11.020 4.738 11.007 10.652 L 10.993 16.565 8.824 14.409 C 7.602 13.194,6.576 12.206,6.474 12.146 C 6.082 11.917,5.655 11.981,5.315 12.321 C 5.114 12.522,5.000 12.797,5.000 13.079 C 5.000 13.299,5.163 13.519,5.893 14.288 C 6.721 15.160,11.193 19.607,11.456 19.821 C 11.647 19.975,11.661 19.980,11.956 19.979 C 12.174 19.979,12.304 19.957,12.416 19.902 C 12.514 19.854,13.480 18.924,14.973 17.442 C 17.574 14.860,18.835 13.556,18.936 13.343 C 19.017 13.172,19.018 12.946,18.938 12.712 C 18.739 12.128,18.045 11.841,17.543 12.136 C 17.420 12.208,16.528 13.065,15.176 14.408 L 13.007 16.565 12.993 10.653 L 12.980 4.740 12.887 4.551 C 12.786 4.347,12.611 4.177,12.420 4.098 C 12.217 4.015,11.838 3.994,11.665 4.057 " fill="#1A1C1F" stroke="none" fill-rule="evenodd"></path></svg>