<svg width="20" height="20" viewBox="0 0 20 20" fill="none" xmlns="http://www.w3.org/2000/svg"><path d="M10.673 4.062 C 10.074 4.274,9.814 5.007,10.158 5.514 C 10.208 5.589,10.996 6.401,11.909 7.320 L 13.568 8.990 8.639 9.008 L 3.710 9.027 3.570 9.098 C 3.380 9.195,3.174 9.408,3.090 9.595 C 2.981 9.837,2.990 10.195,3.110 10.441 C 3.223 10.670,3.414 10.842,3.657 10.933 C 3.833 10.999,3.911 11.000,8.708 11.000 L 13.581 11.000 11.879 12.708 C 9.980 14.616,10.022 14.563,10.020 15.000 C 10.018 15.296,10.098 15.490,10.305 15.697 C 10.571 15.964,10.926 16.055,11.286 15.951 C 11.483 15.894,11.492 15.886,13.545 13.839 C 15.782 11.609,16.832 10.527,16.924 10.358 C 17.015 10.189,17.003 9.795,16.901 9.585 C 16.838 9.458,16.283 8.881,14.452 7.039 C 11.885 4.458,11.546 4.134,11.346 4.076 C 11.087 4.000,10.860 3.996,10.673 4.062 " fill="#1A1C1F" stroke="none" fill-rule="evenodd"></path></svg>