<svg xmlns="http://www.w3.org/2000/svg" width="32" height="32" fill="none"><g clip-path="url(#a)"><path fill="#1A1C1F" fill-rule="evenodd" d="M6 16c0 .563.438 1 1 1h15.594l-6.313 6.281a.96.96 0 0 0-.281.72c0 .562.406 1 1 1 .25 0 .5-.063.719-.282l8-8a.96.96 0 0 0 .28-.719c0-.25-.062-.5-.28-.719l-8-8a.96.96 0 0 0-.72-.28c-.593 0-1 .468-1 1 0 .25.063.5.282.718L22.594 15H7c-.563 0-1 .438-1 1" clip-rule="evenodd"/></g><defs><clipPath id="a"><path fill="#fff" d="M0 0h32v32H0z"/></clipPath></defs></svg>