<svg width="32" height="32" viewBox="0 0 32 32" fill="none" xmlns="http://www.w3.org/2000/svg"><path d="M14.732 7.047 C 14.626 7.077,14.334 7.308,13.986 7.639 C 13.064 8.511,7.691 13.870,6.822 14.783 L 6.027 15.620 6.027 16.000 L 6.027 16.380 6.820 17.217 C 7.821 18.272,14.074 24.490,14.411 24.765 C 14.720 25.016,14.991 25.067,15.331 24.937 C 15.987 24.687,16.197 23.916,15.756 23.379 C 15.644 23.242,14.177 21.760,12.495 20.085 L 9.437 17.040 17.345 17.013 C 25.896 16.984,25.342 17.005,25.671 16.700 C 25.892 16.496,25.973 16.307,25.973 16.000 C 25.973 15.694,25.893 15.506,25.671 15.297 C 25.361 15.003,25.791 15.019,17.317 14.989 L 9.434 14.960 12.483 11.925 C 14.161 10.255,15.641 8.743,15.772 8.565 C 16.003 8.252,16.011 8.229,15.982 7.950 C 15.917 7.319,15.310 6.880,14.732 7.047 " fill="#1A1C1F" stroke="none" fill-rule="evenodd"></path></svg>