<svg width="32" height="32" viewBox="0 0 32 32" fill="none" xmlns="http://www.w3.org/2000/svg"><path d="M7.692 5.048 C 7.423 5.106,2.250 10.235,2.101 10.592 C 1.989 10.859,2.007 11.247,2.141 11.467 C 2.269 11.678,7.035 16.459,7.432 16.775 C 7.655 16.953,7.728 16.982,7.965 16.983 C 8.652 16.988,9.134 16.380,8.959 15.729 C 8.905 15.529,8.677 15.278,7.194 13.785 L 5.491 12.070 6.652 12.035 C 7.291 12.016,10.167 12.000,13.043 12.000 L 18.272 12.000 18.485 11.862 C 19.060 11.489,19.148 10.728,18.670 10.270 C 18.528 10.134,18.466 10.117,17.937 10.077 C 17.620 10.052,14.690 10.031,11.427 10.029 C 7.283 10.027,5.493 10.010,5.493 9.970 C 5.493 9.939,6.246 9.162,7.167 8.243 C 9.041 6.371,9.085 6.312,8.969 5.810 C 8.889 5.460,8.774 5.296,8.522 5.167 C 8.308 5.058,7.910 5.001,7.692 5.048 M23.530 15.130 C 23.190 15.297,22.944 15.782,23.013 16.150 C 23.033 16.258,23.112 16.431,23.188 16.533 C 23.264 16.636,24.055 17.454,24.946 18.352 L 26.564 19.984 20.108 20.012 L 13.651 20.040 13.441 20.186 C 13.050 20.457,12.912 20.975,13.114 21.413 C 13.242 21.689,13.432 21.862,13.688 21.932 C 13.825 21.970,16.005 21.996,20.227 22.012 L 26.560 22.035 24.834 23.751 C 23.177 25.397,23.104 25.478,23.044 25.737 C 22.876 26.454,23.434 27.069,24.162 26.972 C 24.465 26.931,24.634 26.778,27.398 24.027 C 29.066 22.367,29.835 21.565,29.892 21.428 C 30.030 21.093,29.999 20.746,29.807 20.475 C 29.536 20.091,24.637 15.233,24.419 15.131 C 24.174 15.016,23.761 15.016,23.530 15.130 " fill="#1A1C1F" stroke="none" fill-rule="evenodd"></path></svg>