<svg width="24" height="24" viewBox="0 0 24 24" fill="none" xmlns="http://www.w3.org/2000/svg"><path d="M6.753 2.039 C 6.672 2.054,6.537 2.119,6.453 2.183 C 6.248 2.338,3.423 5.139,2.679 5.923 C 2.121 6.512,2.086 6.558,2.038 6.773 C 1.998 6.954,1.997 7.045,2.036 7.219 C 2.081 7.419,2.128 7.484,2.596 7.989 C 3.326 8.776,6.422 11.828,6.573 11.910 C 6.763 12.012,7.213 12.002,7.422 11.892 C 7.623 11.786,7.814 11.594,7.907 11.404 C 8.005 11.203,8.002 10.789,7.900 10.580 C 7.853 10.484,7.349 9.942,6.627 9.212 L 5.432 8.004 9.826 7.990 C 13.325 7.979,14.252 7.966,14.380 7.924 C 14.560 7.864,14.765 7.665,14.882 7.436 C 15.132 6.947,14.925 6.350,14.418 6.098 C 14.264 6.022,14.137 6.020,9.847 6.007 L 5.434 5.994 6.628 4.787 C 7.328 4.079,7.851 3.518,7.893 3.430 C 8.075 3.044,7.999 2.597,7.701 2.299 C 7.474 2.072,7.110 1.972,6.753 2.039 M16.740 12.045 C 16.406 12.124,16.127 12.412,16.037 12.771 C 15.973 13.032,16.008 13.239,16.154 13.452 C 16.222 13.550,16.792 14.159,17.421 14.805 L 18.565 15.980 14.252 16.005 C 10.035 16.029,9.662 16.041,9.443 16.158 C 9.341 16.213,9.103 16.548,9.046 16.716 C 8.941 17.026,9.030 17.359,9.301 17.669 C 9.443 17.831,9.520 17.883,9.670 17.920 C 9.805 17.954,11.106 17.975,14.168 17.995 C 16.538 18.011,18.487 18.033,18.499 18.046 C 18.512 18.058,18.018 18.585,17.401 19.216 C 16.785 19.848,16.224 20.447,16.155 20.547 C 15.998 20.776,15.969 20.995,16.057 21.297 C 16.232 21.897,16.983 22.190,17.494 21.857 C 17.720 21.710,21.811 17.610,21.904 17.438 C 21.958 17.339,21.979 17.215,21.979 16.997 C 21.980 16.730,21.966 16.673,21.865 16.517 C 21.694 16.255,17.608 12.189,17.440 12.113 C 17.255 12.029,16.939 11.999,16.740 12.045 " fill="#1A1C1F" stroke="none" fill-rule="evenodd"></path></svg>