<svg width="12" height="12" viewBox="0 0 12 12" fill="none" xmlns="http://www.w3.org/2000/svg"><path d="M5.833 1.828 C 5.696 1.866,5.582 1.953,5.490 2.091 L 5.410 2.210 5.405 5.179 L 5.400 8.148 4.455 7.208 C 3.935 6.691,3.461 6.227,3.400 6.177 C 3.234 6.038,3.186 6.020,2.995 6.020 C 2.856 6.020,2.811 6.029,2.725 6.071 C 2.525 6.171,2.412 6.358,2.411 6.590 C 2.409 6.867,2.351 6.795,3.667 8.117 C 5.060 9.515,5.677 10.110,5.775 10.151 C 5.878 10.194,6.038 10.208,6.134 10.182 C 6.180 10.169,6.262 10.124,6.317 10.080 C 6.441 9.983,8.783 7.668,9.186 7.244 C 9.557 6.855,9.591 6.801,9.589 6.600 C 9.587 6.418,9.554 6.334,9.430 6.203 C 9.228 5.986,8.919 5.945,8.683 6.103 C 8.632 6.138,8.142 6.612,7.595 7.157 L 6.600 8.149 6.600 5.230 C 6.600 1.885,6.619 2.199,6.410 1.989 C 6.319 1.897,6.268 1.862,6.200 1.845 C 6.047 1.806,5.934 1.801,5.833 1.828 " fill="#1A1C1F" stroke="none" fill-rule="evenodd"></path></svg>