<svg width="14" height="14" viewBox="0 0 14 14" fill="none" xmlns="http://www.w3.org/2000/svg"><path d="M4.046 1.421 C 3.823 1.478,3.763 1.530,2.682 2.611 C 2.003 3.290,1.584 3.727,1.523 3.820 C 1.359 4.071,1.359 4.331,1.524 4.580 C 1.626 4.733,3.055 6.194,3.518 6.618 C 3.884 6.953,3.950 6.989,4.200 6.987 C 4.374 6.986,4.414 6.978,4.525 6.917 C 4.851 6.740,4.986 6.331,4.828 6.003 C 4.793 5.931,4.613 5.730,4.286 5.398 L 3.797 4.900 5.833 4.900 L 7.868 4.900 8.009 4.825 C 8.164 4.743,8.306 4.585,8.357 4.439 C 8.404 4.303,8.394 4.045,8.337 3.917 C 8.278 3.786,8.135 3.638,7.998 3.566 L 7.898 3.514 5.863 3.504 C 4.743 3.499,3.827 3.489,3.827 3.481 C 3.827 3.474,4.041 3.252,4.302 2.988 C 4.563 2.724,4.794 2.475,4.815 2.435 C 4.969 2.132,4.887 1.747,4.625 1.547 C 4.482 1.439,4.210 1.379,4.046 1.421 M9.612 7.031 C 9.410 7.087,9.268 7.206,9.165 7.406 C 9.127 7.479,9.115 7.545,9.114 7.688 C 9.113 7.984,9.141 8.028,9.695 8.586 C 9.958 8.851,10.173 9.074,10.173 9.081 C 10.173 9.089,9.257 9.099,8.138 9.104 C 6.219 9.113,6.097 9.116,6.020 9.156 C 5.864 9.238,5.744 9.355,5.677 9.491 C 5.589 9.670,5.587 9.916,5.671 10.091 C 5.741 10.237,5.877 10.374,6.017 10.438 C 6.125 10.488,6.134 10.488,8.164 10.495 L 10.204 10.501 9.714 10.997 C 9.144 11.574,9.112 11.623,9.112 11.912 C 9.112 12.075,9.120 12.114,9.180 12.222 C 9.257 12.361,9.357 12.458,9.503 12.535 C 9.583 12.578,9.640 12.588,9.800 12.588 C 10.053 12.588,10.118 12.552,10.506 12.194 C 11.004 11.734,12.374 10.333,12.476 10.180 C 12.641 9.931,12.641 9.669,12.476 9.420 C 12.372 9.264,10.972 7.835,10.470 7.372 C 10.240 7.160,10.146 7.088,10.062 7.061 C 9.898 7.009,9.731 6.998,9.612 7.031 " fill="#1A1C1F" stroke="none" fill-rule="evenodd"></path></svg>