<svg width="16" height="16" viewBox="0 0 16 16" fill="none" xmlns="http://www.w3.org/2000/svg"><path d="M7.779 2.438 C 7.600 2.486,7.445 2.605,7.320 2.789 L 7.213 2.947 7.206 6.905 L 7.199 10.863 5.940 9.610 C 5.247 8.921,4.614 8.303,4.533 8.236 C 4.312 8.051,4.248 8.027,3.993 8.027 C 3.808 8.027,3.748 8.038,3.633 8.095 C 3.361 8.231,3.214 8.478,3.215 8.800 C 3.215 9.171,3.104 9.042,5.369 11.299 C 6.486 12.412,7.468 13.374,7.550 13.436 C 7.811 13.631,8.114 13.650,8.364 13.486 C 8.567 13.353,12.677 9.235,12.735 9.107 C 12.807 8.948,12.802 8.664,12.723 8.488 C 12.653 8.331,12.455 8.130,12.310 8.070 C 12.067 7.968,11.792 7.994,11.578 8.138 C 11.509 8.184,10.856 8.816,10.127 9.543 L 8.800 10.865 8.800 6.971 C 8.800 2.512,8.824 2.926,8.549 2.652 C 8.427 2.530,8.357 2.482,8.267 2.460 C 8.064 2.408,7.912 2.401,7.779 2.438 " fill="#1A1C1F" stroke="none" fill-rule="evenodd"></path></svg>