<svg xmlns="http://www.w3.org/2000/svg" width="28" height="28" fill="none"><g clip-path="url(#a)"><path fill="#1A1C1F" fill-rule="evenodd" d="M22.75 14a.86.86 0 0 0-.875-.875H8.231l5.523-5.496A.84.84 0 0 0 14 7c0-.492-.355-.875-.875-.875a.84.84 0 0 0-.629.246l-7 7a.84.84 0 0 0-.246.63c0 .218.055.437.246.628l7 7c.192.191.41.246.63.246.52 0 .874-.41.874-.875a.84.84 0 0 0-.246-.629L8.23 14.875h13.644A.864.864 0 0 0 22.75 14" clip-rule="evenodd"/></g><defs><clipPath id="a"><path fill="#fff" d="M0 0h28v28H0z"/></clipPath></defs></svg>