<svg width="16" height="16" viewBox="0 0 16 16" fill="none" xmlns="http://www.w3.org/2000/svg"><path d="M7.027 3.224 C 6.983 3.236,6.905 3.264,6.853 3.286 C 6.755 3.329,2.850 7.228,2.593 7.540 C 2.341 7.845,2.334 8.131,2.569 8.453 C 2.628 8.534,3.595 9.521,4.717 10.648 L 6.758 12.695 6.942 12.751 C 7.340 12.872,7.735 12.713,7.906 12.363 C 8.047 12.076,8.020 11.779,7.832 11.539 C 7.772 11.462,7.142 10.815,6.430 10.100 L 5.137 8.800 9.066 8.800 L 12.994 8.800 13.112 8.741 C 13.368 8.613,13.547 8.385,13.584 8.137 C 13.604 8.005,13.561 7.732,13.503 7.620 C 13.454 7.524,13.267 7.342,13.165 7.289 C 13.022 7.215,12.337 7.202,8.707 7.201 L 5.135 7.200 6.443 5.887 C 7.162 5.164,7.790 4.522,7.838 4.459 C 8.066 4.163,8.049 3.776,7.796 3.494 C 7.728 3.419,7.614 3.328,7.543 3.291 C 7.403 3.220,7.158 3.188,7.027 3.224 " fill="#1A1C1F" stroke="none" fill-rule="evenodd"></path></svg>