<svg xmlns="http://www.w3.org/2000/svg" width="16" height="16" fill="none"><g clip-path="url(#a)"><path fill="#1A1C1F" fill-rule="evenodd" d="M2.65 7.45A.71.71 0 0 0 2.4 8c0 .2.075.4.25.575l3.975 4c.15.15.375.225.575.225.45 0 .8-.35.8-.8 0-.2-.075-.4-.225-.55L5.125 8.8H12.8c.45 0 .8-.35.8-.8 0-.425-.35-.8-.8-.8H5.125l2.65-2.625A.88.88 0 0 0 8 4c0-.425-.35-.8-.8-.8a.78.78 0 0 0-.506.181z" clip-rule="evenodd"/></g><defs><clipPath id="a"><path fill="#fff" d="M0 0h16v16H0z"/></clipPath></defs></svg>