<svg width="20" height="20" viewBox="0 0 20 20" fill="none" xmlns="http://www.w3.org/2000/svg"><path d="M9.783 3.031 C 9.728 3.044,9.617 3.090,9.537 3.131 C 9.330 3.238,4.166 8.398,4.081 8.583 C 3.997 8.769,3.997 9.237,4.081 9.400 C 4.192 9.615,4.365 9.794,4.544 9.882 C 4.905 10.059,5.276 10.026,5.577 9.790 C 5.672 9.716,6.481 8.927,7.375 8.038 L 9.000 6.421 9.000 11.332 L 9.000 16.243 9.074 16.390 C 9.188 16.620,9.351 16.788,9.559 16.890 C 9.818 17.017,10.168 17.021,10.415 16.900 C 10.625 16.798,10.799 16.624,10.903 16.414 L 10.983 16.250 10.992 11.335 L 11.001 6.420 12.675 8.087 C 13.596 9.004,14.423 9.801,14.512 9.859 C 14.979 10.161,15.641 9.945,15.907 9.404 C 16.007 9.201,16.013 8.815,15.919 8.617 C 15.877 8.528,15.207 7.832,13.936 6.555 C 11.700 4.309,10.496 3.142,10.352 3.083 C 10.217 3.028,9.908 2.999,9.783 3.031 " fill="#1A1C1F" stroke="none" fill-rule="evenodd"></path></svg>