<svg xmlns="http://www.w3.org/2000/svg" width="32" height="32" fill="none"><g clip-path="url(#a)"><path fill="#1A1C1F" fill-rule="evenodd" d="M26 16c0 .563-.438 1-1 1H9.406l6.313 6.281a.96.96 0 0 1 .281.72c0 .562-.406 1-1 1-.25 0-.5-.063-.719-.282l-8-8a.96.96 0 0 1-.28-.719c0-.25.062-.5.28-.719l8-8a.96.96 0 0 1 .72-.28c.593 0 1 .468 1 1 0 .25-.063.5-.282.718L9.406 15H25c.563 0 1 .438 1 1" clip-rule="evenodd"/></g><defs><clipPath id="a"><path fill="#fff" d="M0 0h32v32H0z"/></clipPath></defs></svg>