<svg width="20" height="20" viewBox="0 0 20 20" fill="none" xmlns="http://www.w3.org/2000/svg"><path d="M5.779 2.030 C 5.462 2.111,5.375 2.186,3.831 3.731 C 2.856 4.705,2.263 5.324,2.176 5.457 C 1.941 5.815,1.942 6.188,2.178 6.543 C 2.323 6.761,4.280 8.762,4.991 9.420 C 5.539 9.926,5.640 9.983,5.983 9.983 C 6.305 9.982,6.492 9.908,6.700 9.700 C 6.904 9.496,6.982 9.303,6.983 9.000 C 6.984 8.612,6.931 8.533,6.123 7.711 L 5.424 7.000 8.333 7.000 L 11.241 7.000 11.440 6.894 C 11.641 6.787,11.808 6.615,11.919 6.400 C 12.004 6.236,12.004 5.763,11.918 5.600 C 11.811 5.394,11.678 5.253,11.480 5.133 L 11.286 5.017 8.376 5.005 C 6.776 4.998,5.467 4.984,5.467 4.973 C 5.467 4.962,5.774 4.644,6.149 4.266 C 6.941 3.468,6.981 3.406,6.980 2.983 C 6.978 2.698,6.940 2.589,6.764 2.364 C 6.570 2.117,6.084 1.952,5.779 2.030 M13.711 10.047 C 13.127 10.235,12.843 10.881,13.104 11.426 C 13.155 11.534,13.391 11.798,13.856 12.269 C 14.229 12.646,14.533 12.963,14.533 12.974 C 14.533 12.984,13.225 12.999,11.625 13.006 L 8.717 13.019 8.574 13.094 C 8.213 13.283,8.018 13.601,8.017 14.000 C 8.016 14.424,8.204 14.712,8.615 14.918 L 8.780 15.000 11.132 15.000 C 12.425 15.000,13.720 15.010,14.009 15.022 L 14.535 15.044 13.857 15.730 C 13.064 16.533,13.016 16.606,13.017 17.017 C 13.018 17.325,13.084 17.484,13.300 17.700 C 13.521 17.921,13.674 17.982,14.000 17.983 C 14.362 17.983,14.455 17.932,15.009 17.420 C 15.720 16.762,17.677 14.761,17.822 14.543 C 18.059 14.187,18.059 13.814,17.822 13.457 C 17.674 13.235,15.591 11.107,14.923 10.497 C 14.628 10.228,14.489 10.125,14.373 10.087 C 14.137 10.011,13.870 9.995,13.711 10.047 " fill="#1A1C1F" stroke="none" fill-rule="evenodd"></path></svg>