<svg width="16" height="16" viewBox="0 0 16 16" fill="none" xmlns="http://www.w3.org/2000/svg"><path d="M8.539 3.251 C 8.061 3.416,7.851 4.006,8.126 4.411 C 8.167 4.471,8.797 5.121,9.527 5.856 L 10.854 7.192 6.913 7.206 C 3.210 7.218,2.967 7.222,2.880 7.266 C 2.705 7.355,2.565 7.491,2.488 7.647 C 2.388 7.852,2.385 8.132,2.481 8.333 C 2.569 8.515,2.743 8.678,2.922 8.745 C 3.068 8.800,3.096 8.800,6.967 8.800 L 10.865 8.800 9.503 10.167 C 7.984 11.693,8.018 11.651,8.016 12.000 C 8.015 12.237,8.078 12.392,8.244 12.558 C 8.457 12.771,8.741 12.844,9.029 12.761 C 9.186 12.715,9.193 12.708,10.836 11.071 C 12.629 9.284,13.468 8.419,13.535 8.290 C 13.601 8.163,13.613 7.951,13.564 7.783 C 13.529 7.662,13.479 7.591,13.276 7.372 C 12.709 6.759,9.339 3.392,9.227 3.326 C 9.124 3.266,8.851 3.199,8.720 3.201 C 8.698 3.201,8.616 3.224,8.539 3.251 " fill="#1A1C1F" stroke="none" fill-rule="evenodd"></path></svg>