<svg width="14" height="14" viewBox="0 0 14 14" fill="none" xmlns="http://www.w3.org/2000/svg"><path d="M6.812 2.132 C 6.604 2.188,6.466 2.307,6.357 2.523 L 6.300 2.635 6.300 6.071 L 6.300 9.506 5.197 8.409 C 4.591 7.806,4.037 7.265,3.967 7.206 C 3.773 7.045,3.717 7.023,3.494 7.023 C 3.332 7.023,3.279 7.033,3.179 7.083 C 2.941 7.202,2.812 7.418,2.813 7.700 C 2.813 8.024,2.721 7.916,4.651 9.839 C 5.603 10.788,6.457 11.628,6.549 11.706 C 6.679 11.817,6.742 11.854,6.836 11.874 C 7.067 11.924,7.198 11.896,7.369 11.761 C 7.512 11.648,10.252 8.940,10.717 8.452 C 11.149 7.999,11.189 7.935,11.188 7.700 C 11.187 7.568,11.174 7.499,11.135 7.418 C 10.948 7.034,10.470 6.892,10.130 7.121 C 10.070 7.161,9.499 7.714,8.861 8.350 L 7.700 9.507 7.700 6.099 C 7.700 2.198,7.721 2.561,7.480 2.320 C 7.374 2.214,7.312 2.172,7.233 2.152 C 7.058 2.108,6.924 2.101,6.812 2.132 " fill="#1A1C1F" stroke="none" fill-rule="evenodd"></path></svg>