<svg width="28" height="28" viewBox="0 0 28 28" fill="none" xmlns="http://www.w3.org/2000/svg"><path d="M13.650 5.343 C 13.456 5.434,13.378 5.504,13.236 5.712 L 13.113 5.893 13.107 11.825 C 13.103 15.087,13.087 18.193,13.072 18.727 L 13.043 19.697 10.311 16.951 C 7.345 13.969,7.336 13.961,6.915 14.018 C 6.450 14.080,6.089 14.512,6.134 14.950 C 6.151 15.122,6.199 15.228,6.333 15.393 C 6.573 15.688,11.916 21.060,12.894 21.991 L 13.678 22.737 14.019 22.719 L 14.361 22.702 15.079 22.020 C 16.026 21.119,21.437 15.674,21.677 15.381 C 21.840 15.180,21.863 15.122,21.863 14.914 C 21.863 14.458,21.534 14.078,21.085 14.018 C 20.661 13.961,20.654 13.967,17.683 16.956 L 14.949 19.705 14.918 18.432 C 14.901 17.731,14.887 14.630,14.887 11.540 C 14.887 5.422,14.904 5.811,14.622 5.544 C 14.355 5.290,13.943 5.205,13.650 5.343 " fill="#1A1C1F" stroke="none" fill-rule="evenodd"></path></svg>