<svg width="24" height="24" viewBox="0 0 24 24" fill="none" xmlns="http://www.w3.org/2000/svg"><path d="M9.537 6.035 C 8.615 6.060,8.614 6.060,8.447 6.170 C 8.231 6.314,8.090 6.530,8.031 6.811 C 7.944 7.226,8.155 7.641,8.574 7.881 L 8.780 7.999 11.680 8.000 L 14.580 8.000 10.917 11.670 C 5.850 16.748,5.999 16.587,6.001 16.978 C 6.004 17.623,6.658 18.128,7.277 17.961 C 7.489 17.904,7.698 17.701,12.647 12.765 L 15.993 9.427 16.007 12.363 C 16.021 15.293,16.021 15.300,16.108 15.464 C 16.211 15.656,16.438 15.867,16.631 15.947 C 16.815 16.024,17.192 16.021,17.384 15.941 C 17.566 15.865,17.780 15.671,17.870 15.500 C 17.971 15.308,17.995 14.347,17.998 10.368 C 18.000 6.830,17.998 6.712,17.922 6.565 C 17.839 6.402,17.629 6.198,17.448 6.104 C 17.356 6.057,16.774 6.044,13.899 6.029 C 12.008 6.019,10.045 6.022,9.537 6.035 " fill="#1A1C1F" stroke="none" fill-rule="evenodd"></path></svg>