<svg width="20" height="20" viewBox="0 0 20 20" fill="none" xmlns="http://www.w3.org/2000/svg"><path d="M6.633 5.294 C 6.353 5.319,6.206 5.392,6.031 5.591 C 5.592 6.091,5.741 6.850,6.337 7.152 L 6.498 7.233 8.924 7.233 L 11.350 7.233 8.698 9.892 C 5.067 13.532,5.267 13.312,5.267 13.666 C 5.267 13.999,5.343 14.181,5.581 14.419 C 5.819 14.657,6.001 14.733,6.334 14.733 C 6.687 14.733,6.466 14.934,10.122 11.288 L 12.761 8.656 12.772 11.103 C 12.784 13.536,12.784 13.551,12.856 13.683 C 13.035 14.015,13.370 14.215,13.750 14.215 C 14.133 14.215,14.501 13.990,14.644 13.667 C 14.743 13.444,14.763 12.684,14.764 9.100 C 14.765 6.139,14.763 6.011,14.702 5.877 C 14.616 5.687,14.392 5.451,14.217 5.367 C 14.074 5.298,14.046 5.297,10.478 5.285 C 8.501 5.278,6.771 5.282,6.633 5.294 " fill="#1A1C1F" stroke="none" fill-rule="evenodd"></path></svg>