<svg width="32" height="32" viewBox="0 0 32 32" fill="none" xmlns="http://www.w3.org/2000/svg"><path d="M7.530 11.130 C 7.155 11.314,6.919 11.832,7.035 12.216 C 7.124 12.515,7.991 13.421,12.117 17.528 C 15.621 21.017,15.616 21.012,16.023 21.013 C 16.363 21.014,16.602 20.793,20.753 16.644 C 24.694 12.704,24.895 12.494,24.954 12.251 C 25.064 11.799,24.850 11.312,24.462 11.128 C 24.353 11.076,24.143 11.040,23.952 11.040 L 23.627 11.040 23.027 11.610 C 22.697 11.924,20.982 13.621,19.216 15.381 L 16.005 18.581 12.384 14.977 C 10.392 12.994,8.659 11.297,8.533 11.206 C 8.341 11.067,8.256 11.040,8.005 11.041 C 7.839 11.042,7.628 11.081,7.530 11.130 " fill="#1A1C1F" stroke="none" fill-rule="evenodd"></path></svg>