<svg width="12" height="12" viewBox="0 0 12 12" fill="none" xmlns="http://www.w3.org/2000/svg"><path d="M4.369 2.419 C 4.255 2.446,4.095 2.548,4.027 2.638 C 3.908 2.794,3.874 2.984,3.931 3.176 C 3.970 3.310,4.010 3.352,5.469 4.815 L 6.650 6.000 5.469 7.185 C 3.988 8.670,3.970 8.689,3.928 8.835 C 3.867 9.043,3.924 9.264,4.077 9.417 C 4.187 9.527,4.297 9.579,4.450 9.594 C 4.638 9.611,4.731 9.559,5.082 9.233 C 5.525 8.823,7.942 6.383,8.014 6.273 C 8.092 6.155,8.115 6.007,8.079 5.857 C 8.056 5.760,8.026 5.724,7.650 5.332 C 7.049 4.706,4.883 2.559,4.786 2.493 C 4.662 2.409,4.518 2.383,4.369 2.419 " fill="#1A1C1F" stroke="none" fill-rule="evenodd"></path></svg>