<svg xmlns="http://www.w3.org/2000/svg" width="28" height="28" fill="none"><g clip-path="url(#a)"><path fill="#1A1C1F" fill-rule="evenodd" d="M18.375 21c0 .492-.356.875-.875.875a.96.96 0 0 1-.629-.246l-7-7a.96.96 0 0 1-.246-.63c0-.218.082-.437.246-.628l7-7a.96.96 0 0 1 .629-.246c.219 0 .437.082.629.246.164.192.246.41.246.63a.96.96 0 0 1-.246.628l-6.398 6.37 6.398 6.372c.164.191.246.41.246.629" clip-rule="evenodd"/></g><defs><clipPath id="a"><path fill="#fff" d="M0 0h28v28H0z"/></clipPath></defs></svg>