<svg width="24" height="24" viewBox="0 0 24 24" fill="none" xmlns="http://www.w3.org/2000/svg"><path d="M11.670 8.056 C 11.452 8.135,10.754 8.809,8.120 11.480 C 4.964 14.679,5.000 14.639,5.000 14.971 C 5.000 15.354,5.225 15.727,5.550 15.885 C 5.827 16.020,6.256 16.013,6.471 15.870 C 6.556 15.814,7.836 14.567,9.314 13.099 L 12.002 10.429 14.671 13.085 C 16.139 14.545,17.414 15.790,17.504 15.851 C 17.997 16.186,18.764 15.900,18.937 15.316 C 19.014 15.057,19.017 14.877,18.946 14.709 C 18.867 14.522,17.582 13.183,14.918 10.511 C 13.390 8.979,12.529 8.143,12.438 8.106 C 12.222 8.017,11.844 7.992,11.670 8.056 " fill="#1A1C1F" stroke="none" fill-rule="evenodd"></path></svg>