<svg width="28" height="28" viewBox="0 0 28 28" fill="none" xmlns="http://www.w3.org/2000/svg"><path d="M6.588 9.738 C 6.264 9.898,6.066 10.338,6.161 10.689 C 6.230 10.948,6.952 11.703,10.602 15.337 C 13.669 18.390,13.664 18.385,14.020 18.386 C 14.318 18.387,14.527 18.194,18.161 14.564 C 21.468 11.259,21.790 10.925,21.841 10.733 C 21.885 10.571,21.886 10.476,21.843 10.314 C 21.727 9.872,21.439 9.660,20.958 9.660 L 20.674 9.660 20.148 10.159 C 19.860 10.433,18.359 11.918,16.814 13.458 L 14.005 16.258 10.734 13.004 C 8.935 11.214,7.410 9.730,7.345 9.705 C 7.163 9.636,6.761 9.654,6.588 9.738 " fill="#1A1C1F" stroke="none" fill-rule="evenodd"></path></svg>