<svg width="16" height="16" viewBox="0 0 16 16" fill="none" xmlns="http://www.w3.org/2000/svg"><path d="M3.840 5.225 C 3.601 5.273,3.394 5.431,3.288 5.647 C 3.187 5.854,3.183 6.111,3.279 6.306 C 3.329 6.409,3.723 6.820,4.999 8.103 C 6.781 9.896,7.570 10.662,7.711 10.737 C 7.774 10.771,7.862 10.785,8.016 10.786 C 8.212 10.787,8.241 10.780,8.348 10.707 C 8.550 10.568,12.625 6.483,12.710 6.333 C 12.776 6.219,12.787 6.172,12.786 6.000 C 12.785 5.761,12.723 5.603,12.568 5.448 C 12.405 5.285,12.254 5.227,11.992 5.227 C 11.635 5.227,11.758 5.121,9.554 7.318 L 8.002 8.865 6.327 7.198 C 5.407 6.281,4.587 5.476,4.507 5.409 C 4.311 5.246,4.066 5.179,3.840 5.225 " fill="#1A1C1F" stroke="none" fill-rule="evenodd"></path></svg>