<svg width="20" height="20" viewBox="0 0 20 20" fill="none" xmlns="http://www.w3.org/2000/svg"><path d="M7.229 4.050 C 7.144 4.077,7.002 4.149,6.913 4.208 C 6.501 4.485,6.380 5.104,6.658 5.514 C 6.708 5.589,7.724 6.629,8.915 7.826 L 11.081 10.003 9.113 11.976 C 6.647 14.450,6.617 14.482,6.546 14.724 C 6.413 15.184,6.631 15.674,7.074 15.906 C 7.188 15.966,7.271 15.980,7.486 15.980 C 7.721 15.980,7.776 15.967,7.916 15.885 C 8.015 15.827,8.848 15.025,10.076 13.804 C 12.269 11.624,13.329 10.534,13.422 10.362 C 13.464 10.283,13.482 10.177,13.483 10.000 C 13.483 9.783,13.470 9.728,13.386 9.583 C 13.323 9.475,12.518 8.643,11.103 7.221 C 8.848 4.957,8.041 4.173,7.868 4.084 C 7.721 4.008,7.412 3.992,7.229 4.050 " fill="#1A1C1F" stroke="none" fill-rule="evenodd"></path></svg>