<svg width="12" height="12" viewBox="0 0 12 12" fill="none" xmlns="http://www.w3.org/2000/svg"><path d="M7.387 2.418 C 7.341 2.426,7.264 2.459,7.217 2.491 C 7.122 2.555,4.405 5.250,4.120 5.561 C 3.973 5.723,3.942 5.769,3.921 5.857 C 3.885 6.007,3.908 6.155,3.986 6.273 C 4.057 6.382,6.441 8.788,6.916 9.231 C 7.084 9.388,7.255 9.532,7.296 9.551 C 7.404 9.603,7.536 9.610,7.670 9.571 C 7.765 9.543,7.810 9.514,7.912 9.412 C 8.090 9.233,8.138 9.056,8.069 8.824 C 8.030 8.690,7.990 8.648,6.531 7.185 L 5.350 6.000 6.531 4.815 C 7.990 3.352,8.030 3.310,8.069 3.176 C 8.127 2.982,8.092 2.794,7.970 2.634 C 7.850 2.477,7.597 2.383,7.387 2.418 " fill="#1A1C1F" stroke="none" fill-rule="evenodd"></path></svg>