<svg width="32" height="32" viewBox="0 0 32 32" fill="none" xmlns="http://www.w3.org/2000/svg"><path d="M15.574 11.097 C 15.430 11.158,9.254 17.293,7.918 18.704 C 6.993 19.680,6.919 19.809,7.042 20.247 C 7.186 20.762,7.750 21.105,8.220 20.964 C 8.504 20.879,8.665 20.726,12.653 16.750 L 16.000 13.414 19.320 16.723 C 23.642 21.032,23.621 21.013,23.996 21.013 C 24.245 21.013,24.615 20.826,24.772 20.620 C 24.931 20.412,25.042 20.015,24.995 19.826 C 24.975 19.748,24.835 19.533,24.683 19.349 C 24.367 18.965,18.005 12.562,17.047 11.663 L 16.414 11.069 16.060 11.055 C 15.866 11.048,15.647 11.066,15.574 11.097 " fill="#1A1C1F" stroke="none" fill-rule="evenodd"></path></svg>