<svg width="32" height="32" viewBox="0 0 32 32" fill="none" xmlns="http://www.w3.org/2000/svg"><path d="M19.573 7.099 C 19.418 7.159,11.455 15.118,11.214 15.453 C 11.016 15.730,10.963 15.981,11.042 16.275 C 11.095 16.471,11.516 16.913,14.471 19.883 C 17.964 23.392,19.414 24.796,19.694 24.941 C 20.288 25.248,21.162 24.493,20.993 23.818 C 20.929 23.565,20.399 23.005,16.912 19.505 L 13.416 15.997 16.698 12.705 C 21.005 8.384,21.013 8.376,21.013 8.020 C 21.014 7.672,20.741 7.237,20.446 7.114 C 20.246 7.030,19.771 7.022,19.573 7.099 " fill="#1A1C1F" stroke="none" fill-rule="evenodd"></path></svg>