<svg width="16" height="16" viewBox="0 0 16 16" fill="none" xmlns="http://www.w3.org/2000/svg"><path d="M9.849 3.226 C 9.788 3.235,9.686 3.277,9.623 3.319 C 9.500 3.400,6.034 6.838,5.548 7.361 C 5.297 7.631,5.257 7.687,5.228 7.809 C 5.180 8.009,5.211 8.207,5.315 8.365 C 5.410 8.509,8.591 11.720,9.221 12.308 C 9.445 12.517,9.673 12.709,9.728 12.735 C 9.872 12.804,10.048 12.813,10.227 12.761 C 10.354 12.724,10.413 12.685,10.549 12.550 C 10.787 12.311,10.851 12.074,10.759 11.766 C 10.706 11.587,10.653 11.531,8.709 9.581 L 7.135 8.002 8.829 6.301 C 9.761 5.365,10.573 4.537,10.633 4.461 C 10.793 4.256,10.836 4.024,10.760 3.769 C 10.650 3.399,10.253 3.162,9.849 3.226 " fill="#1A1C1F" stroke="none" fill-rule="evenodd"></path></svg>