<svg width="12" height="12" viewBox="0 0 12 12" fill="none" xmlns="http://www.w3.org/2000/svg"><path d="M5.834 3.931 C 5.711 3.970,5.401 4.264,4.088 5.583 C 2.628 7.050,2.467 7.222,2.430 7.345 C 2.392 7.476,2.392 7.555,2.432 7.674 C 2.559 8.048,3.000 8.215,3.308 8.005 C 3.353 7.975,3.977 7.366,4.695 6.652 L 6.000 5.353 7.305 6.652 C 8.023 7.366,8.647 7.975,8.692 8.005 C 8.736 8.036,8.825 8.071,8.888 8.085 C 9.105 8.130,9.372 8.017,9.499 7.825 C 9.616 7.649,9.628 7.416,9.528 7.243 C 9.456 7.118,6.384 4.045,6.258 3.973 C 6.141 3.905,5.968 3.888,5.834 3.931 " fill="#1A1C1F" stroke="none" fill-rule="evenodd"></path></svg>