<svg width="24" height="24" viewBox="0 0 24 24" fill="none" xmlns="http://www.w3.org/2000/svg"><path d="M5.757 8.036 C 5.438 8.101,5.180 8.344,5.064 8.691 C 4.986 8.925,4.983 9.121,5.054 9.291 C 5.133 9.479,6.426 10.826,9.100 13.505 C 11.015 15.424,11.490 15.880,11.620 15.923 C 11.831 15.994,12.224 15.988,12.404 15.911 C 12.495 15.872,13.092 15.311,14.024 14.389 C 15.466 12.963,18.471 9.889,18.794 9.510 C 18.986 9.284,19.030 9.105,18.967 8.804 C 18.849 8.242,18.335 7.912,17.774 8.038 C 17.559 8.086,17.516 8.119,16.964 8.652 C 16.643 8.963,15.395 10.198,14.190 11.398 L 12.000 13.580 9.830 11.418 C 6.871 8.470,6.479 8.094,6.337 8.067 C 6.088 8.019,5.894 8.009,5.757 8.036 " fill="#1A1C1F" stroke="none" fill-rule="evenodd"></path></svg>