<svg width="14" height="14" viewBox="0 0 14 14" fill="none" xmlns="http://www.w3.org/2000/svg"><path d="M5.094 2.821 C 4.964 2.855,4.774 2.977,4.696 3.078 C 4.560 3.255,4.520 3.483,4.586 3.705 C 4.632 3.861,4.678 3.911,6.380 5.618 L 7.758 7.000 6.380 8.383 C 4.653 10.115,4.632 10.138,4.582 10.307 C 4.512 10.550,4.578 10.808,4.757 10.987 C 4.885 11.115,5.013 11.176,5.190 11.192 C 5.414 11.213,5.521 11.153,5.915 10.787 C 6.436 10.302,9.268 7.443,9.350 7.319 C 9.441 7.181,9.468 7.008,9.426 6.834 C 9.399 6.720,9.364 6.678,8.925 6.220 C 8.088 5.348,5.662 2.951,5.551 2.886 C 5.435 2.818,5.224 2.788,5.094 2.821 " fill="#1A1C1F" stroke="none" fill-rule="evenodd"></path></svg>