<svg width="12" height="12" viewBox="0 0 12 12" fill="none" xmlns="http://www.w3.org/2000/svg"><path d="M2.878 3.918 C 2.838 3.926,2.757 3.960,2.698 3.993 C 2.433 4.142,2.331 4.464,2.463 4.737 C 2.496 4.805,2.833 5.156,3.749 6.077 C 5.086 7.422,5.678 7.997,5.783 8.053 C 5.831 8.078,5.896 8.089,6.012 8.089 C 6.159 8.090,6.181 8.085,6.261 8.030 C 6.412 7.926,9.468 4.862,9.533 4.750 C 9.582 4.664,9.590 4.629,9.590 4.500 C 9.589 4.256,9.480 4.082,9.260 3.970 C 9.178 3.929,9.133 3.920,8.995 3.920 C 8.726 3.920,8.819 3.840,7.165 5.489 L 6.000 6.650 4.825 5.479 C 3.376 4.034,3.312 3.973,3.197 3.944 C 3.068 3.911,2.959 3.902,2.878 3.918 " fill="#1A1C1F" stroke="none" fill-rule="evenodd"></path></svg>