<svg width="28" height="28" viewBox="0 0 28 28" fill="none" xmlns="http://www.w3.org/2000/svg"><path d="M13.627 9.711 C 13.563 9.736,11.892 11.378,9.914 13.360 C 6.035 17.246,6.072 17.204,6.134 17.615 C 6.192 17.999,6.513 18.305,6.929 18.372 C 7.280 18.429,7.351 18.366,10.769 14.962 L 14.002 11.743 17.069 14.800 C 20.129 17.849,20.620 18.313,20.841 18.369 C 21.431 18.517,22.092 17.752,21.823 17.232 C 21.782 17.153,21.436 16.756,21.054 16.350 C 19.913 15.136,14.488 9.759,14.353 9.708 C 14.197 9.649,13.783 9.651,13.627 9.711 " fill="#1A1C1F" stroke="none" fill-rule="evenodd"></path></svg>