<svg width="32" height="32" viewBox="0 0 32 32" fill="none" xmlns="http://www.w3.org/2000/svg"><path d="M11.530 7.127 C 11.187 7.301,10.949 7.787,11.021 8.166 C 11.040 8.265,11.141 8.455,11.245 8.587 C 11.350 8.719,13.043 10.441,15.008 12.414 L 18.581 16.001 15.087 19.507 C 11.601 23.005,11.071 23.565,11.007 23.818 C 10.878 24.334,11.357 24.945,11.935 25.000 C 12.168 25.023,12.213 25.005,12.533 24.772 C 12.724 24.633,14.684 22.717,16.888 20.513 C 20.462 16.941,20.903 16.482,20.957 16.279 C 21.037 15.980,20.985 15.730,20.785 15.453 C 20.603 15.201,14.040 8.594,13.047 7.663 L 12.414 7.069 12.060 7.053 C 11.807 7.041,11.656 7.062,11.530 7.127 " fill="#1A1C1F" stroke="none" fill-rule="evenodd"></path></svg>