<svg xmlns="http://www.w3.org/2000/svg" width="32" height="32" fill="none"><path fill="#1A1C1F" fill-rule="evenodd" d="M19.76 7.035a1.3 1.3 0 0 0-.267.099c-.058.033-1.971 1.927-4.249 4.209-3.763 3.769-4.148 4.172-4.204 4.385-.066.251-.036.53.081.75.04.075 1.939 1.999 4.222 4.278 4.375 4.366 4.256 4.259 4.71 4.256.183-.001.535-.171.678-.326.141-.153.282-.476.282-.644-.001-.442.068-.365-3.857-4.295L13.414 16l3.742-3.747C21.024 8.38 21.013 8.393 21.013 8c0-.317-.252-.735-.526-.876a1.26 1.26 0 0 0-.727-.089"/></svg>