<svg width="14" height="14" viewBox="0 0 14 14" fill="none" xmlns="http://www.w3.org/2000/svg"><path d="M8.618 2.821 C 8.564 2.830,8.475 2.869,8.419 2.906 C 8.309 2.981,5.138 6.126,4.807 6.488 C 4.636 6.676,4.599 6.731,4.574 6.834 C 4.532 7.008,4.559 7.181,4.650 7.319 C 4.734 7.445,7.515 10.253,8.068 10.769 C 8.264 10.952,8.464 11.121,8.512 11.143 C 8.638 11.203,8.792 11.211,8.949 11.166 C 9.060 11.134,9.111 11.100,9.230 10.981 C 9.439 10.772,9.495 10.565,9.414 10.295 C 9.368 10.139,9.321 10.089,7.608 8.371 L 6.242 7.000 7.608 5.629 C 9.347 3.885,9.368 3.862,9.417 3.694 C 9.560 3.202,9.133 2.736,8.618 2.821 " fill="#1A1C1F" stroke="none" fill-rule="evenodd"></path></svg>