<svg width="20" height="20" viewBox="0 0 20 20" fill="none" xmlns="http://www.w3.org/2000/svg"><path d="M12.274 4.031 C 12.214 4.046,12.102 4.101,12.024 4.153 C 11.947 4.205,10.696 5.433,9.245 6.882 C 6.684 9.440,6.605 9.522,6.553 9.698 C 6.486 9.926,6.486 10.063,6.554 10.304 C 6.607 10.495,6.616 10.503,9.245 13.123 C 10.696 14.568,11.945 15.792,12.019 15.843 C 12.693 16.298,13.626 15.647,13.473 14.827 C 13.452 14.711,13.396 14.565,13.343 14.487 C 13.292 14.412,12.276 13.371,11.085 12.174 L 8.919 9.997 10.887 8.024 C 13.353 5.550,13.383 5.518,13.454 5.276 C 13.591 4.805,13.366 4.316,12.920 4.115 C 12.728 4.028,12.437 3.991,12.274 4.031 " fill="#1A1C1F" stroke="none" fill-rule="evenodd"></path></svg>