<svg width="24" height="24" viewBox="0 0 24 24" fill="none" xmlns="http://www.w3.org/2000/svg"><path d="M8.729 5.038 C 8.547 5.083,8.286 5.272,8.176 5.439 C 7.968 5.756,7.960 6.238,8.159 6.512 C 8.220 6.597,9.463 7.867,10.921 9.334 L 13.572 12.002 10.974 14.611 C 9.545 16.046,8.301 17.315,8.210 17.431 C 8.015 17.679,7.966 17.903,8.036 18.219 C 8.096 18.484,8.276 18.731,8.511 18.869 C 8.738 19.002,9.131 19.018,9.367 18.905 C 9.531 18.825,13.830 14.621,15.106 13.292 C 15.891 12.473,15.913 12.446,15.959 12.226 C 15.995 12.053,15.995 11.947,15.959 11.774 C 15.913 11.552,15.893 11.528,15.066 10.668 C 13.802 9.353,9.565 5.204,9.402 5.121 C 9.230 5.034,8.907 4.994,8.729 5.038 " fill="#1A1C1F" stroke="none" fill-rule="evenodd"></path></svg>