<svg width="28" height="28" viewBox="0 0 28 28" fill="none" xmlns="http://www.w3.org/2000/svg"><path d="M10.088 6.236 C 9.788 6.389,9.580 6.814,9.643 7.145 C 9.660 7.232,9.748 7.398,9.840 7.513 C 9.931 7.629,11.413 9.136,13.132 10.862 L 16.258 14.001 13.201 17.069 C 10.151 20.129,9.687 20.619,9.631 20.841 C 9.518 21.293,9.937 21.827,10.443 21.875 C 10.647 21.895,10.686 21.880,10.967 21.675 C 11.133 21.554,12.848 19.877,14.777 17.949 C 17.904 14.823,18.290 14.422,18.337 14.244 C 18.407 13.983,18.362 13.764,18.187 13.521 C 18.027 13.301,12.285 7.520,11.416 6.705 L 10.862 6.186 10.553 6.171 C 10.331 6.161,10.199 6.179,10.088 6.236 " fill="#1A1C1F" stroke="none" fill-rule="evenodd"></path></svg>