<svg width="28" height="28" viewBox="0 0 28 28" fill="none" xmlns="http://www.w3.org/2000/svg"><path d="M17.127 6.211 C 16.990 6.264,10.023 13.228,9.812 13.521 C 9.639 13.764,9.593 13.983,9.662 14.241 C 9.708 14.412,10.076 14.799,12.662 17.397 C 15.719 20.468,16.987 21.696,17.232 21.823 C 17.752 22.092,18.517 21.431,18.369 20.841 C 18.313 20.619,17.849 20.129,14.799 17.068 L 11.741 14.000 14.799 10.932 C 16.481 9.244,17.965 7.731,18.098 7.570 C 18.381 7.225,18.421 7.103,18.345 6.817 C 18.273 6.548,18.110 6.335,17.904 6.237 C 17.727 6.153,17.312 6.139,17.127 6.211 " fill="#1A1C1F" stroke="none" fill-rule="evenodd"></path></svg>