<svg width="14" height="14" viewBox="0 0 14 14" fill="none" xmlns="http://www.w3.org/2000/svg"><path d="M3.358 4.571 C 3.312 4.580,3.217 4.620,3.148 4.659 C 2.839 4.833,2.720 5.208,2.874 5.526 C 2.912 5.606,3.305 6.016,4.374 7.090 C 5.934 8.659,6.624 9.329,6.747 9.395 C 6.803 9.424,6.879 9.437,7.014 9.437 C 7.186 9.438,7.211 9.432,7.304 9.368 C 7.481 9.247,11.047 5.673,11.122 5.542 C 11.179 5.441,11.188 5.400,11.188 5.250 C 11.187 5.041,11.133 4.903,10.997 4.767 C 10.854 4.624,10.722 4.573,10.493 4.573 C 10.180 4.573,10.288 4.481,8.360 6.403 L 7.001 7.757 5.536 6.298 C 4.731 5.496,4.014 4.792,3.943 4.733 C 3.770 4.589,3.558 4.530,3.358 4.571 " fill="#1A1C1F" stroke="none" fill-rule="evenodd"></path></svg>