<svg width="24" height="24" viewBox="0 0 24 24" fill="none" xmlns="http://www.w3.org/2000/svg"><path d="M14.752 5.056 C 14.495 5.125,14.393 5.222,11.015 8.586 C 7.886 11.702,8.024 11.545,8.024 12.000 C 8.024 12.450,7.937 12.347,10.455 14.860 C 13.117 17.517,14.523 18.868,14.709 18.946 C 14.877 19.017,15.057 19.014,15.316 18.937 C 15.900 18.764,16.186 17.997,15.851 17.504 C 15.790 17.414,14.545 16.139,13.085 14.671 L 10.429 12.002 13.099 9.314 C 14.567 7.836,15.814 6.556,15.870 6.471 C 16.013 6.255,16.020 5.827,15.884 5.549 C 15.774 5.321,15.494 5.092,15.286 5.058 C 15.205 5.045,15.095 5.028,15.040 5.020 C 14.985 5.011,14.855 5.028,14.752 5.056 " fill="#1A1C1F" stroke="none" fill-rule="evenodd"></path></svg>