<svg width="20" height="20" viewBox="0 0 20 20" fill="none" xmlns="http://www.w3.org/2000/svg"><path d="M4.797 6.530 C 4.731 6.544,4.596 6.600,4.497 6.656 C 4.055 6.904,3.886 7.441,4.106 7.895 C 4.161 8.009,4.728 8.600,6.282 10.162 C 8.523 12.416,9.461 13.327,9.639 13.422 C 9.718 13.464,9.828 13.481,10.020 13.482 C 10.266 13.483,10.302 13.475,10.435 13.383 C 10.676 13.218,15.781 8.104,15.882 7.927 C 16.135 7.482,15.948 6.892,15.474 6.640 C 15.295 6.544,15.245 6.533,14.994 6.533 C 14.543 6.533,14.700 6.398,11.942 9.148 L 10.000 11.083 8.042 9.131 C 5.627 6.724,5.519 6.622,5.329 6.573 C 5.114 6.518,4.932 6.503,4.797 6.530 " fill="#1A1C1F" stroke="none" fill-rule="evenodd"></path></svg>