<svg width="20" height="20" viewBox="0 0 20 20" fill="none" xmlns="http://www.w3.org/2000/svg"><path d="M9.703 6.555 C 9.594 6.595,9.402 6.756,8.953 7.185 C 8.267 7.841,5.571 10.544,4.689 11.462 C 4.174 11.997,4.094 12.095,4.050 12.243 C 3.986 12.460,3.987 12.592,4.054 12.791 C 4.265 13.414,5.000 13.691,5.514 13.342 C 5.589 13.292,6.629 12.276,7.825 11.086 L 10.000 8.922 12.175 11.086 C 13.371 12.276,14.411 13.292,14.486 13.342 C 14.902 13.625,15.504 13.492,15.819 13.049 C 16.027 12.757,16.051 12.367,15.879 12.072 C 15.824 11.978,14.919 11.043,13.603 9.721 C 11.361 7.470,10.540 6.673,10.371 6.586 C 10.220 6.508,9.876 6.492,9.703 6.555 " fill="#1A1C1F" stroke="none" fill-rule="evenodd"></path></svg>