<svg width="16" height="16" viewBox="0 0 16 16" fill="none" xmlns="http://www.w3.org/2000/svg"><path d="M5.822 3.224 C 5.673 3.262,5.456 3.402,5.367 3.517 C 5.211 3.720,5.165 3.980,5.241 4.234 C 5.294 4.413,5.347 4.469,7.291 6.420 L 8.866 8.000 7.291 9.580 C 5.347 11.531,5.294 11.587,5.241 11.766 C 5.149 12.074,5.213 12.311,5.451 12.550 C 5.587 12.685,5.646 12.724,5.773 12.761 C 5.952 12.813,6.128 12.804,6.272 12.735 C 6.327 12.709,6.555 12.517,6.779 12.308 C 7.409 11.720,10.590 8.509,10.685 8.365 C 10.789 8.207,10.820 8.009,10.772 7.810 C 10.741 7.680,10.702 7.632,10.200 7.109 C 9.234 6.103,6.472 3.373,6.344 3.298 C 6.211 3.220,5.970 3.186,5.822 3.224 " fill="#1A1C1F" stroke="none" fill-rule="evenodd"></path></svg>