<svg width="14" height="14" viewBox="0 0 14 14" fill="none" xmlns="http://www.w3.org/2000/svg"><path d="M6.806 4.586 C 6.714 4.616,6.623 4.689,6.293 5.004 C 5.834 5.441,3.867 7.413,3.270 8.035 C 2.922 8.398,2.866 8.467,2.835 8.570 C 2.790 8.722,2.791 8.815,2.838 8.953 C 2.986 9.390,3.500 9.584,3.860 9.340 C 3.912 9.304,4.640 8.593,5.478 7.760 L 7.000 6.246 8.523 7.760 C 9.360 8.593,10.088 9.304,10.140 9.340 C 10.192 9.375,10.295 9.417,10.369 9.432 C 10.623 9.485,10.934 9.354,11.082 9.130 C 11.219 8.923,11.232 8.653,11.116 8.450 C 11.033 8.305,7.448 4.720,7.301 4.635 C 7.165 4.556,6.963 4.536,6.806 4.586 " fill="#1A1C1F" stroke="none" fill-rule="evenodd"></path></svg>