<svg xmlns="http://www.w3.org/2000/svg" width="28" height="28" fill="none"><g clip-path="url(#a)"><path fill="#1A1C1F" fill-rule="evenodd" d="M21 18.375c.492 0 .875-.356.875-.875a.96.96 0 0 0-.246-.63l-7-6.999A.96.96 0 0 0 14 9.625a.96.96 0 0 0-.629.246l-7 7a.96.96 0 0 0-.246.629c0 .219.082.437.246.629.192.164.41.246.63.246a.96.96 0 0 0 .628-.246L14 11.73l6.37 6.399a.97.97 0 0 0 .63.246" clip-rule="evenodd"/></g><defs><clipPath id="a"><path fill="#fff" d="M0 0h28v28H0z"/></clipPath></defs></svg>