<svg width="16" height="16" viewBox="0 0 16 16" fill="none" xmlns="http://www.w3.org/2000/svg"><path d="M7.809 5.238 C 7.740 5.256,7.638 5.306,7.582 5.348 C 7.431 5.463,4.993 7.888,4.076 8.836 C 3.355 9.582,3.277 9.671,3.240 9.794 C 3.189 9.968,3.189 10.074,3.243 10.232 C 3.412 10.731,4.000 10.953,4.411 10.674 C 4.471 10.633,5.303 9.821,6.260 8.869 L 8.000 7.138 9.740 8.869 C 10.697 9.821,11.529 10.633,11.589 10.674 C 11.649 10.714,11.766 10.762,11.850 10.780 C 12.141 10.841,12.496 10.690,12.665 10.434 C 12.822 10.197,12.837 9.887,12.703 9.657 C 12.624 9.522,10.554 7.427,9.169 6.078 C 8.276 5.209,8.331 5.251,8.040 5.217 C 7.981 5.210,7.877 5.219,7.809 5.238 " fill="#1A1C1F" stroke="none" fill-rule="evenodd"></path></svg>