<svg width="20" height="20" viewBox="0 0 20 20" fill="none" xmlns="http://www.w3.org/2000/svg"><path d="M6.582 2.069 C 6.110 2.298,5.889 2.823,6.061 3.309 C 6.166 3.606,6.298 3.742,6.797 4.067 C 7.046 4.230,7.279 4.383,7.313 4.408 C 7.371 4.450,7.343 4.466,7.013 4.581 C 4.598 5.424,3.103 7.310,3.009 9.633 C 2.947 11.166,3.439 12.644,4.401 13.817 C 4.638 14.107,5.276 14.728,5.436 14.826 C 5.606 14.930,5.950 15.011,6.110 14.986 C 6.505 14.922,6.816 14.654,6.933 14.277 C 7.016 14.009,7.016 13.991,6.933 13.725 C 6.857 13.479,6.772 13.361,6.467 13.084 C 5.722 12.409,5.228 11.546,5.062 10.633 C 5.035 10.484,5.019 10.175,5.021 9.867 C 5.024 9.424,5.037 9.302,5.112 9.017 C 5.363 8.060,6.027 7.219,6.880 6.778 C 7.210 6.607,7.743 6.420,7.761 6.469 C 7.767 6.485,7.620 6.731,7.435 7.014 C 7.250 7.297,7.077 7.591,7.049 7.668 C 6.979 7.869,6.986 8.250,7.065 8.423 C 7.159 8.630,7.381 8.854,7.561 8.923 C 7.666 8.964,7.803 8.982,7.984 8.981 C 8.214 8.980,8.275 8.966,8.429 8.882 C 8.527 8.829,8.659 8.725,8.723 8.651 C 8.863 8.489,10.803 5.591,10.903 5.394 C 10.989 5.225,11.020 4.931,10.971 4.750 C 10.901 4.491,10.781 4.361,10.272 3.998 C 9.383 3.364,7.435 2.078,7.304 2.039 C 7.101 1.978,6.738 1.993,6.582 2.069 M13.821 5.002 C 13.514 5.053,13.196 5.334,13.081 5.657 C 13.021 5.827,13.021 6.207,13.083 6.354 C 13.110 6.419,13.317 6.662,13.544 6.895 C 14.028 7.392,14.295 7.742,14.512 8.161 C 14.819 8.755,14.952 9.229,14.988 9.850 C 15.026 10.515,14.911 11.084,14.616 11.683 C 14.184 12.564,13.474 13.170,12.506 13.486 C 12.370 13.530,12.253 13.567,12.246 13.567 C 12.199 13.567,12.274 13.431,12.571 12.976 C 12.957 12.387,13.033 12.214,13.033 11.936 C 13.033 11.779,13.011 11.696,12.925 11.528 C 12.835 11.353,12.778 11.291,12.600 11.172 L 12.384 11.027 12.030 11.039 C 11.426 11.059,11.456 11.028,10.187 12.933 C 9.741 13.602,9.295 14.284,9.197 14.447 C 9.018 14.742,9.017 14.746,9.018 15.014 C 9.019 15.319,9.083 15.483,9.274 15.662 C 9.514 15.888,12.303 17.782,12.617 17.932 C 12.845 18.041,13.180 18.043,13.424 17.936 C 13.620 17.849,13.876 17.597,13.958 17.408 C 14.022 17.262,14.027 16.837,13.968 16.683 C 13.862 16.409,13.592 16.164,12.975 15.783 C 12.805 15.679,12.667 15.581,12.667 15.566 C 12.667 15.551,12.775 15.498,12.908 15.449 C 13.460 15.242,13.599 15.184,13.917 15.026 C 15.774 14.102,16.913 12.363,16.990 10.333 C 17.000 10.067,16.991 9.668,16.971 9.446 C 16.823 7.846,15.930 6.231,14.644 5.239 C 14.375 5.031,14.107 4.954,13.821 5.002 " fill="#1A1C1F" stroke="none" fill-rule="evenodd"></path></svg>