<svg width="24" height="24" viewBox="0 0 24 24" fill="none" xmlns="http://www.w3.org/2000/svg"><path d="M8.390 2.066 C 7.986 2.206,7.676 2.720,7.736 3.153 C 7.791 3.557,8.007 3.771,8.921 4.325 C 9.184 4.485,9.400 4.627,9.400 4.641 C 9.400 4.654,9.189 4.736,8.930 4.821 C 5.962 5.808,4.000 8.546,4.000 11.700 C 4.000 12.744,4.270 14.017,4.698 14.991 C 4.894 15.435,5.181 15.942,5.479 16.369 C 5.762 16.774,6.738 17.786,6.952 17.896 C 7.404 18.129,8.020 17.919,8.237 17.458 C 8.342 17.235,8.356 16.804,8.267 16.589 C 8.234 16.512,7.991 16.210,7.725 15.919 C 6.854 14.964,6.452 14.226,6.155 13.040 C 6.068 12.692,6.060 12.579,6.061 11.700 C 6.062 10.831,6.071 10.709,6.152 10.409 C 6.439 9.354,6.857 8.609,7.538 7.940 C 7.919 7.565,8.329 7.273,8.825 7.024 C 9.188 6.840,10.030 6.537,10.069 6.576 C 10.081 6.587,9.902 6.917,9.671 7.309 C 9.201 8.106,9.120 8.286,9.120 8.534 C 9.120 8.762,9.319 9.161,9.513 9.320 C 9.781 9.542,10.212 9.578,10.545 9.407 C 10.756 9.299,10.823 9.219,11.189 8.640 C 12.075 7.240,13.145 5.380,13.184 5.175 C 13.197 5.103,13.180 4.953,13.146 4.833 C 13.075 4.591,12.891 4.391,12.500 4.132 C 12.211 3.940,10.183 2.730,9.472 2.326 C 8.898 1.999,8.713 1.954,8.390 2.066 M16.305 6.058 C 15.905 6.202,15.668 6.550,15.668 6.992 C 15.668 7.378,15.759 7.542,16.277 8.097 C 16.917 8.781,17.250 9.276,17.536 9.967 C 17.858 10.745,17.982 11.534,17.949 12.593 C 17.923 13.406,17.854 13.749,17.595 14.358 C 16.958 15.854,15.864 16.838,14.284 17.336 C 14.100 17.395,13.940 17.433,13.929 17.423 C 13.919 17.412,14.073 17.128,14.272 16.791 C 14.892 15.743,14.944 15.590,14.821 15.177 C 14.742 14.911,14.564 14.707,14.297 14.577 C 14.105 14.483,14.046 14.472,13.838 14.494 C 13.576 14.521,13.347 14.621,13.214 14.766 C 12.945 15.060,10.952 18.401,10.836 18.753 C 10.801 18.859,10.802 18.945,10.839 19.116 C 10.931 19.536,11.183 19.723,13.505 21.091 C 15.117 22.041,15.057 22.011,15.324 21.988 C 15.688 21.957,15.996 21.751,16.172 21.420 C 16.302 21.177,16.292 20.766,16.149 20.492 C 16.026 20.255,15.960 20.206,15.103 19.700 L 14.507 19.348 14.863 19.242 C 15.941 18.921,16.738 18.477,17.582 17.728 C 19.481 16.043,20.319 13.567,19.876 10.952 C 19.660 9.681,19.175 8.521,18.439 7.518 C 18.138 7.109,17.270 6.237,17.055 6.129 C 16.840 6.020,16.499 5.988,16.305 6.058 " fill="#1A1C1F" stroke="none" fill-rule="evenodd"></path></svg>