<svg width="28" height="28" viewBox="0 0 28 28" fill="none" xmlns="http://www.w3.org/2000/svg"><path d="M9.868 1.814 C 9.386 2.034,9.204 2.617,9.478 3.064 C 9.585 3.238,10.105 3.598,11.119 4.200 C 11.524 4.440,11.839 4.651,11.819 4.668 C 11.800 4.686,11.447 4.808,11.037 4.941 C 6.909 6.272,4.251 10.022,4.401 14.303 C 4.474 16.403,5.195 18.373,6.478 19.983 C 7.286 20.997,8.322 21.882,8.703 21.885 C 9.026 21.888,9.430 21.628,9.550 21.341 C 9.730 20.910,9.584 20.596,8.940 20.027 C 7.336 18.613,6.407 16.875,6.205 14.913 C 6.128 14.164,6.171 12.995,6.296 12.421 C 6.878 9.769,8.733 7.628,11.247 6.708 C 11.761 6.520,12.352 6.363,12.393 6.404 C 12.409 6.420,12.169 6.850,11.860 7.361 C 11.241 8.384,10.967 8.918,10.967 9.101 C 10.967 9.274,11.184 9.685,11.322 9.776 C 11.387 9.818,11.526 9.884,11.632 9.921 C 11.801 9.980,11.853 9.980,12.070 9.917 C 12.206 9.877,12.369 9.798,12.434 9.741 C 12.648 9.550,15.021 5.530,15.126 5.179 C 15.194 4.952,15.117 4.713,14.913 4.512 C 14.830 4.430,14.459 4.176,14.089 3.947 C 12.653 3.059,10.609 1.845,10.453 1.789 C 10.228 1.708,10.088 1.714,9.868 1.814 M19.086 6.158 C 18.705 6.229,18.449 6.505,18.403 6.896 C 18.359 7.266,18.478 7.456,19.113 8.021 C 20.476 9.236,21.335 10.695,21.709 12.430 C 21.797 12.839,21.811 13.052,21.813 14.000 C 21.814 14.965,21.802 15.153,21.711 15.570 C 21.136 18.191,19.259 20.373,16.800 21.280 C 16.311 21.460,15.587 21.656,15.587 21.608 C 15.587 21.586,15.836 21.152,16.140 20.643 C 17.043 19.133,17.104 18.979,16.949 18.618 C 16.774 18.209,16.373 17.994,15.953 18.084 C 15.571 18.166,15.502 18.259,14.202 20.440 C 12.762 22.858,12.746 22.891,12.926 23.262 C 13.043 23.503,13.189 23.606,15.027 24.741 C 17.606 26.335,17.689 26.374,18.133 26.205 C 18.494 26.067,18.733 25.565,18.626 25.171 C 18.526 24.808,18.500 24.786,17.098 23.940 C 16.665 23.679,16.259 23.432,16.197 23.392 C 16.087 23.322,16.100 23.316,16.652 23.165 C 17.410 22.958,18.260 22.603,18.877 22.235 C 21.937 20.415,23.723 17.185,23.600 13.697 C 23.528 11.692,22.872 9.818,21.684 8.227 C 20.988 7.296,19.787 6.208,19.390 6.149 C 19.313 6.137,19.176 6.141,19.086 6.158 " fill="#1A1C1F" stroke="none" fill-rule="evenodd"></path></svg>