<svg width="14" height="14" viewBox="0 0 14 14" fill="none" xmlns="http://www.w3.org/2000/svg"><path d="M4.608 1.446 C 4.454 1.523,4.347 1.627,4.277 1.768 C 4.223 1.879,4.212 1.931,4.212 2.078 C 4.213 2.230,4.224 2.277,4.289 2.410 C 4.378 2.591,4.447 2.652,4.842 2.904 C 4.996 3.003,5.130 3.091,5.140 3.101 C 5.150 3.111,5.045 3.159,4.907 3.207 C 4.576 3.322,4.057 3.576,3.780 3.759 C 3.514 3.935,3.024 4.404,2.809 4.690 C 2.522 5.071,2.255 5.705,2.155 6.242 C 2.096 6.561,2.096 7.326,2.157 7.665 C 2.310 8.525,2.704 9.289,3.331 9.941 C 3.761 10.389,3.908 10.480,4.206 10.479 C 4.693 10.478,5.008 10.005,4.831 9.539 C 4.790 9.431,4.744 9.372,4.578 9.216 C 3.996 8.670,3.660 8.094,3.544 7.443 C 3.501 7.202,3.507 6.614,3.554 6.402 C 3.714 5.687,4.202 5.053,4.843 4.727 C 5.098 4.597,5.437 4.491,5.437 4.541 C 5.437 4.548,5.331 4.716,5.202 4.914 C 5.073 5.111,4.951 5.321,4.931 5.380 C 4.875 5.544,4.897 5.820,4.978 5.957 C 5.139 6.232,5.466 6.358,5.779 6.265 C 6.030 6.190,6.079 6.131,6.899 4.900 C 7.700 3.698,7.715 3.669,7.694 3.432 C 7.680 3.283,7.620 3.146,7.526 3.052 C 7.371 2.897,5.259 1.475,5.112 1.426 C 4.981 1.383,4.715 1.393,4.608 1.446 M9.641 3.512 C 9.211 3.631,8.995 4.095,9.184 4.494 C 9.205 4.538,9.345 4.698,9.495 4.848 C 10.014 5.370,10.262 5.780,10.418 6.381 C 10.471 6.585,10.477 6.653,10.477 7.045 C 10.477 7.412,10.469 7.511,10.428 7.666 C 10.211 8.497,9.608 9.151,8.819 9.413 C 8.676 9.461,8.555 9.496,8.550 9.491 C 8.545 9.486,8.646 9.320,8.774 9.122 C 9.097 8.623,9.112 8.591,9.112 8.365 C 9.112 8.112,9.034 7.966,8.822 7.823 L 8.676 7.723 8.449 7.723 C 8.252 7.723,8.207 7.731,8.101 7.784 C 7.960 7.854,7.920 7.903,7.463 8.563 C 6.752 9.588,6.354 10.207,6.324 10.335 C 6.269 10.562,6.336 10.817,6.489 10.961 C 6.658 11.120,8.611 12.447,8.832 12.553 C 8.992 12.629,9.226 12.630,9.397 12.555 C 9.534 12.495,9.713 12.318,9.771 12.185 C 9.815 12.083,9.819 11.786,9.778 11.678 C 9.704 11.486,9.515 11.315,9.082 11.048 C 8.964 10.975,8.867 10.907,8.867 10.896 C 8.867 10.885,8.927 10.855,9.001 10.827 C 9.572 10.618,9.830 10.497,10.155 10.285 C 10.987 9.742,11.578 8.913,11.797 7.982 C 12.053 6.890,11.817 5.615,11.183 4.672 C 10.995 4.392,10.647 3.994,10.425 3.805 C 10.091 3.520,9.887 3.444,9.641 3.512 " fill="#1A1C1F" stroke="none" fill-rule="evenodd"></path></svg>