<svg width="32" height="32" viewBox="0 0 32 32" fill="none" xmlns="http://www.w3.org/2000/svg"><path d="M11.278 2.074 C 10.726 2.324,10.519 2.991,10.832 3.502 C 10.956 3.702,11.560 4.121,12.708 4.800 C 13.171 5.074,13.531 5.315,13.508 5.335 C 13.485 5.355,13.083 5.495,12.613 5.647 C 7.896 7.168,4.859 11.454,5.030 16.347 C 5.110 18.644,5.869 20.807,7.223 22.600 C 8.172 23.856,9.473 25.008,9.947 25.012 C 10.166 25.014,10.462 24.895,10.649 24.731 C 10.875 24.534,10.987 24.297,10.987 24.019 C 10.987 23.667,10.812 23.417,10.165 22.840 C 8.597 21.442,7.617 19.783,7.191 17.800 C 7.028 17.039,7.013 14.993,7.166 14.293 C 7.426 13.105,8.010 11.768,8.680 10.828 C 9.141 10.180,10.073 9.248,10.721 8.786 C 11.404 8.299,12.567 7.728,13.350 7.495 C 13.696 7.391,14.027 7.307,14.084 7.307 C 14.188 7.307,14.188 7.309,14.086 7.507 C 14.029 7.617,13.685 8.202,13.320 8.806 C 12.590 10.019,12.482 10.284,12.581 10.617 C 12.660 10.879,12.929 11.192,13.157 11.288 C 13.409 11.393,13.784 11.377,14.030 11.251 C 14.275 11.127,14.342 11.029,15.449 9.173 C 17.085 6.433,17.365 5.903,17.312 5.642 C 17.244 5.302,17.076 5.134,16.330 4.661 C 15.082 3.869,12.143 2.115,11.947 2.045 C 11.689 1.953,11.529 1.959,11.278 2.074 M21.813 7.038 C 21.377 7.118,21.084 7.434,21.031 7.881 C 20.982 8.303,21.126 8.539,21.798 9.129 C 23.412 10.547,24.405 12.237,24.811 14.253 C 24.915 14.772,24.931 15.016,24.930 16.053 C 24.928 17.391,24.871 17.776,24.511 18.851 C 23.682 21.329,21.637 23.440,19.213 24.319 C 18.632 24.530,17.813 24.752,17.813 24.699 C 17.813 24.678,18.157 24.082,18.576 23.376 C 19.398 21.992,19.500 21.769,19.445 21.473 C 19.398 21.226,19.114 20.853,18.879 20.730 C 18.643 20.607,18.130 20.637,17.925 20.785 C 17.739 20.919,17.274 21.624,16.299 23.253 C 14.847 25.679,14.634 26.089,14.689 26.363 C 14.779 26.815,15.117 27.054,18.755 29.237 C 20.137 30.066,20.279 30.118,20.724 29.948 C 21.136 29.791,21.409 29.217,21.286 28.767 C 21.172 28.349,21.138 28.322,19.479 27.325 C 18.959 27.013,18.502 26.729,18.464 26.694 C 18.410 26.645,18.461 26.617,18.704 26.562 C 20.031 26.265,21.719 25.443,22.848 24.543 C 24.993 22.834,26.348 20.532,26.857 17.733 C 26.989 17.005,27.017 15.476,26.912 14.680 C 26.547 11.915,25.131 9.292,23.093 7.604 C 22.445 7.068,22.211 6.964,21.813 7.038 " fill="#1A1C1F" stroke="none" fill-rule="evenodd"></path></svg>