<svg width="12" height="12" viewBox="0 0 12 12" fill="none" xmlns="http://www.w3.org/2000/svg"><path d="M3.949 1.241 C 3.817 1.305,3.726 1.394,3.666 1.515 C 3.619 1.611,3.610 1.655,3.611 1.781 C 3.611 1.912,3.620 1.952,3.677 2.066 C 3.753 2.221,3.812 2.274,4.150 2.489 C 4.282 2.574,4.397 2.650,4.406 2.658 C 4.415 2.667,4.325 2.708,4.206 2.749 C 3.922 2.847,3.477 3.065,3.240 3.222 C 3.012 3.373,2.592 3.775,2.408 4.020 C 2.170 4.336,1.948 4.851,1.858 5.297 C 1.768 5.739,1.789 6.354,1.910 6.833 C 2.073 7.482,2.377 8.025,2.855 8.521 C 3.114 8.790,3.256 8.906,3.381 8.951 C 3.506 8.995,3.718 8.991,3.827 8.943 C 4.080 8.831,4.231 8.550,4.177 8.292 C 4.142 8.130,4.094 8.057,3.906 7.882 C 3.517 7.519,3.269 7.148,3.121 6.705 C 2.937 6.152,2.973 5.492,3.215 5.010 C 3.419 4.603,3.777 4.238,4.157 4.050 C 4.392 3.934,4.660 3.850,4.660 3.892 C 4.660 3.899,4.570 4.042,4.459 4.212 C 4.348 4.381,4.244 4.561,4.226 4.611 C 4.178 4.752,4.198 4.988,4.267 5.106 C 4.405 5.342,4.685 5.450,4.953 5.370 C 5.174 5.305,5.209 5.261,6.020 4.038 C 6.282 3.643,6.517 3.278,6.542 3.226 C 6.596 3.115,6.612 2.961,6.583 2.850 C 6.540 2.693,6.469 2.616,6.153 2.391 C 5.675 2.051,4.457 1.247,4.382 1.222 C 4.272 1.186,4.042 1.196,3.949 1.241 M8.264 3.010 C 8.000 3.083,7.819 3.315,7.817 3.582 C 7.816 3.808,7.860 3.883,8.171 4.190 C 8.576 4.590,8.806 4.979,8.932 5.477 C 8.974 5.642,8.980 5.711,8.980 6.039 C 8.980 6.344,8.973 6.442,8.941 6.565 C 8.800 7.116,8.443 7.597,7.956 7.891 C 7.793 7.990,7.355 8.154,7.344 8.120 C 7.340 8.110,7.419 7.975,7.519 7.822 C 7.792 7.402,7.810 7.362,7.810 7.171 C 7.810 6.953,7.743 6.828,7.562 6.705 L 7.436 6.620 7.242 6.620 C 7.073 6.620,7.034 6.627,6.944 6.672 C 6.823 6.732,6.789 6.774,6.397 7.340 C 5.788 8.219,5.447 8.749,5.420 8.859 C 5.376 9.043,5.430 9.267,5.546 9.381 C 5.644 9.478,6.681 10.197,7.285 10.587 C 7.675 10.838,7.804 10.866,8.064 10.756 C 8.172 10.710,8.327 10.555,8.375 10.445 C 8.413 10.356,8.417 10.101,8.381 10.010 C 8.316 9.844,8.155 9.698,7.785 9.470 C 7.683 9.407,7.600 9.349,7.600 9.340 C 7.600 9.331,7.643 9.308,7.695 9.289 C 8.033 9.165,8.314 9.045,8.470 8.959 C 9.612 8.324,10.241 7.217,10.194 5.920 C 10.177 5.449,10.092 5.048,9.922 4.632 C 9.711 4.116,9.295 3.548,8.887 3.220 C 8.622 3.007,8.466 2.955,8.264 3.010 " fill="#1A1C1F" stroke="none" fill-rule="evenodd"></path></svg>