<svg width="16" height="16" viewBox="0 0 16 16" fill="none" xmlns="http://www.w3.org/2000/svg"><path d="M5.267 1.652 C 5.088 1.742,4.967 1.860,4.888 2.021 C 4.826 2.148,4.813 2.207,4.814 2.375 C 4.815 2.549,4.827 2.602,4.902 2.755 C 5.004 2.961,5.082 3.031,5.533 3.319 C 5.709 3.432,5.863 3.533,5.875 3.545 C 5.887 3.557,5.761 3.613,5.595 3.669 C 5.193 3.806,4.634 4.086,4.307 4.315 C 3.128 5.136,2.468 6.318,2.410 7.707 C 2.351 9.115,2.850 10.401,3.846 11.410 C 4.311 11.881,4.475 11.977,4.810 11.976 C 5.041 11.976,5.232 11.890,5.384 11.717 C 5.516 11.567,5.574 11.401,5.573 11.175 C 5.572 10.906,5.514 10.807,5.150 10.453 C 4.789 10.103,4.571 9.822,4.391 9.471 C 4.139 8.985,4.035 8.608,4.010 8.093 C 3.951 6.875,4.626 5.774,5.712 5.316 C 5.914 5.231,6.215 5.140,6.233 5.158 C 6.238 5.163,6.120 5.351,5.970 5.577 C 5.652 6.055,5.594 6.186,5.593 6.427 C 5.592 6.731,5.789 7.038,6.049 7.138 C 6.217 7.203,6.564 7.201,6.693 7.135 C 6.938 7.009,7.000 6.929,7.917 5.553 C 8.793 4.238,8.797 4.231,8.799 3.994 C 8.800 3.832,8.715 3.606,8.613 3.501 C 8.471 3.356,6.245 1.833,5.941 1.673 C 5.776 1.587,5.417 1.575,5.267 1.652 M11.080 4.000 C 10.710 4.058,10.427 4.401,10.427 4.791 C 10.427 5.063,10.461 5.123,10.852 5.540 C 11.419 6.144,11.634 6.463,11.810 6.966 C 11.945 7.352,11.985 7.614,11.983 8.093 C 11.980 8.622,11.916 8.901,11.695 9.347 C 11.344 10.052,10.776 10.537,10.005 10.789 C 9.896 10.824,9.802 10.853,9.797 10.853 C 9.761 10.853,9.818 10.750,10.058 10.382 C 10.207 10.152,10.351 9.907,10.378 9.835 C 10.481 9.564,10.421 9.254,10.227 9.055 C 10.045 8.868,9.939 8.827,9.640 8.827 C 9.343 8.827,9.238 8.867,9.057 9.049 C 8.887 9.220,7.478 11.319,7.273 11.706 C 7.203 11.838,7.196 11.873,7.206 12.040 C 7.220 12.253,7.285 12.404,7.419 12.530 C 7.567 12.669,9.281 13.849,9.857 14.208 C 10.230 14.441,10.459 14.473,10.760 14.335 C 11.045 14.205,11.211 13.947,11.211 13.637 C 11.211 13.477,11.198 13.420,11.123 13.269 C 11.021 13.062,10.906 12.961,10.433 12.663 C 10.268 12.559,10.127 12.465,10.121 12.454 C 10.114 12.444,10.267 12.378,10.461 12.308 C 12.279 11.654,13.354 10.362,13.575 8.560 C 13.614 8.248,13.593 7.572,13.534 7.240 C 13.336 6.114,12.789 5.128,11.947 4.382 C 11.589 4.064,11.347 3.958,11.080 4.000 " fill="#1A1C1F" stroke="none" fill-rule="evenodd"></path></svg>