<svg xmlns="http://www.w3.org/2000/svg" width="32" height="32" fill="none"><path fill="#1A1C1F" fill-rule="evenodd" d="M7.573 5.098c-.244.105-5.3 5.143-5.448 5.43-.123.235-.144.56-.053.834.045.137.761.885 2.741 2.861 2.412 2.407 2.704 2.682 2.915 2.737.856.225 1.563-.659 1.152-1.438-.04-.075-.83-.891-1.757-1.815l-1.685-1.68L11.883 12l6.445-.027.227-.15c.496-.328.582-1.064.175-1.494-.304-.322.141-.302-6.861-.302-3.536 0-6.429-.016-6.429-.035s.778-.805 1.728-1.747c1.613-1.598 1.733-1.729 1.796-1.973a1.09 1.09 0 0 0-.166-.888c-.231-.324-.818-.461-1.225-.286M23.77 15.04c-.537.1-.877.675-.729 1.234.054.205.266.438 1.801 1.978l1.741 1.746-6.456.014-6.455.015-.227.15c-.496.328-.582 1.064-.175 1.494.335.354-.199.328 6.884.343l6.421.015-1.68 1.65c-.995.977-1.722 1.733-1.781 1.852-.155.313-.133.747.051 1.026.255.385.796.535 1.25.348.225-.093 5.291-5.111 5.437-5.385.133-.251.167-.482.11-.758-.05-.246-.154-.357-2.726-2.935-1.808-1.812-2.727-2.696-2.835-2.729-.28-.084-.422-.097-.631-.058"/></svg>