<svg xmlns="http://www.w3.org/2000/svg" width="14" height="14" fill="none"><g clip-path="url(#a)"><path fill="#1A1C1F" fill-rule="evenodd" d="m3.697 1.597-2.1 2.1A.77.77 0 0 0 1.4 4.2c0 .175.066.35.197.503l2.1 2.1A.77.77 0 0 0 4.2 7a.69.69 0 0 0 .7-.7.68.68 0 0 0-.197-.481l-.919-.92H7.7a.69.69 0 0 0 .7-.7c0-.393-.306-.7-.7-.7H3.784l.92-.896A.77.77 0 0 0 4.9 2.1a.69.69 0 0 0-.7-.7.77.77 0 0 0-.503.197M9.8 7a.69.69 0 0 0-.7.7c0 .175.066.35.197.503l.919.897H6.3a.69.69 0 0 0-.7.7c0 .372.306.7.7.7h3.916l-.92.897a.77.77 0 0 0-.196.503c0 .394.284.7.7.7a.77.77 0 0 0 .503-.197l2.1-2.1A.77.77 0 0 0 12.6 9.8a.77.77 0 0 0-.197-.503l-2.1-2.1A.77.77 0 0 0 9.8 7" clip-rule="evenodd"/></g><defs><clipPath id="a"><path fill="#fff" d="M0 0h14v14H0z"/></clipPath></defs></svg>