<svg xmlns="http://www.w3.org/2000/svg" width="16" height="16" fill="none"><g clip-path="url(#a)"><path fill="#1A1C1F" fill-rule="evenodd" d="m10.625 1.825-2.4 2.425A.78.78 0 0 0 8 4.803c0 .446.328.797.8.797.213 0 .419-.08.575-.225l1.025-1.05V8.8c0 .45.35.8.8.8s.8-.35.8-.8V4.325l1.05 1.05c.15.15.35.225.55.225.47 0 .8-.352.8-.797a.78.78 0 0 0-.225-.553l-2.4-2.425A.88.88 0 0 0 11.2 1.6c-.2 0-.4.075-.575.225M4 7.2v4.475l-1.05-1.05a.78.78 0 0 0-.553-.225.776.776 0 0 0-.797.8c0 .206.075.412.225.575l2.4 2.4a.88.88 0 0 0 .575.225c.2 0 .4-.075.575-.225l2.4-2.4A.85.85 0 0 0 8 11.2c0-.472-.35-.8-.8-.8a.85.85 0 0 0-.575.225L5.6 11.675V7.2c0-.425-.35-.8-.8-.8s-.8.375-.8.8" clip-rule="evenodd"/></g><defs><clipPath id="a"><path fill="#fff" d="M0 0h16v16H0z"/></clipPath></defs></svg>