<svg xmlns="http://www.w3.org/2000/svg" width="12" height="12" fill="none"><g clip-path="url(#a)"><path fill="#1A1C1F" fill-rule="evenodd" d="m3.169 1.369-1.8 1.8A.66.66 0 0 0 1.2 3.6c0 .15.057.3.169.431l1.8 1.8A.66.66 0 0 0 3.6 6a.59.59 0 0 0 .6-.6.58.58 0 0 0-.169-.412l-.788-.789H6.6a.59.59 0 0 0 .6-.6c0-.337-.262-.6-.6-.6H3.243l.789-.768A.66.66 0 0 0 4.2 1.8a.59.59 0 0 0-.6-.6.66.66 0 0 0-.431.169M8.4 6a.59.59 0 0 0-.6.6c0 .15.057.3.169.431l.788.769H5.4a.59.59 0 0 0-.6.6c0 .319.262.6.6.6h3.357l-.789.769a.66.66 0 0 0-.168.431c0 .338.243.6.6.6a.66.66 0 0 0 .431-.169l1.8-1.8A.66.66 0 0 0 10.8 8.4a.66.66 0 0 0-.169-.431l-1.8-1.8A.66.66 0 0 0 8.4 6" clip-rule="evenodd"/></g><defs><clipPath id="a"><path fill="#fff" d="M0 0h12v12H0z"/></clipPath></defs></svg>