<svg xmlns="http://www.w3.org/2000/svg" width="24" height="24" fill="none"><g clip-path="url(#a)"><path fill="#1A1C1F" fill-rule="evenodd" d="M7.022 2c-.321 0-.545.086-.74.28l-4 4A1.04 1.04 0 0 0 2 7c0 .25.095.5.28.688l4 4.03A1 1 0 0 0 7 12c.563 0 1-.47 1-1a.97.97 0 0 0-.281-.688L5.406 8H14c.563 0 1-.47 1-1 0-.563-.438-1-1-1H5.406L7.72 3.687A.97.97 0 0 0 8 3c0-.531-.406-1-.978-1M17 12c-.563 0-1 .438-1 1 0 .25.11.482.313.688L18.593 16H10c-.531 0-1 .438-1 1 0 .53.469 1 1 1h8.594l-2.282 2.313c-.202.205-.312.437-.312.687 0 .563.438 1 1 1a1 1 0 0 0 .719-.281l4-4a1 1 0 0 0 .28-.72 1 1 0 0 0-.28-.718l-4-4a1 1 0 0 0-.72-.281" clip-rule="evenodd"/></g><defs><clipPath id="a"><path fill="#fff" d="M0 0h24v24H0z"/></clipPath></defs></svg>