<svg xmlns="http://www.w3.org/2000/svg" width="28" height="28" fill="none"><g clip-path="url(#a)"><path fill="#1A1C1F" fill-rule="evenodd" d="M13.371 6.371a.93.93 0 0 0-.246.63.85.85 0 0 0 .875.874.93.93 0 0 0 .63-.246L17.5 4.73v11.02c0 .492.383.875.875.875a.865.865 0 0 0 .875-.874V4.73l2.871 2.898c.192.164.41.246.63.246.395 0 .874-.279.874-.875a.93.93 0 0 0-.246-.629l-4.375-4.375a.96.96 0 0 0-.629-.246.96.96 0 0 0-.629.246zm-4.62 16.9-2.872-2.9a.93.93 0 0 0-.629-.246.85.85 0 0 0-.875.875c0 .226.082.45.246.628l4.375 4.375c.191.165.41.247.63.247a.96.96 0 0 0 .628-.247l4.375-4.375a.93.93 0 0 0 .246-.628.85.85 0 0 0-.875-.875.93.93 0 0 0-.629.245l-2.87 2.9V12.25a.863.863 0 0 0-.876-.874.863.863 0 0 0-.875.875z" clip-rule="evenodd"/></g><defs><clipPath id="a"><path fill="#fff" d="M0 0h28v28H0z"/></clipPath></defs></svg>