<svg xmlns="http://www.w3.org/2000/svg" width="32" height="32" fill="none"><g clip-path="url(#a)"><path fill="#1A1C1F" fill-rule="evenodd" d="m7.281 5.279-5 5a1.1 1.1 0 0 0-.281.719c0 .25.094.5.281.719l5 5c.203.187.461.28.719.28.59 0 1-.437 1-1 0-.266-.1-.523-.281-.719l-3.313-3.28H18c.563 0 1-.438 1-1s-.438-1-1-1H5.406L8.72 6.717c.186-.203.28-.461.28-.72 0-.6-.454-1-1-1-.25 0-.5.095-.719.282M24.72 15.282a1.1 1.1 0 0 0-.719-.28c-.547 0-1 .4-1 1 0 .256.094.514.281.718L26.595 20H14c-.563 0-1 .438-1 1s.438 1 1 1h12.594l-3.313 3.281a1.06 1.06 0 0 0-.281.72c0 .56.41 1 1 1 .258 0 .516-.095.719-.281l5-5c.187-.22.281-.47.281-.72s-.094-.5-.281-.719z" clip-rule="evenodd"/></g><defs><clipPath id="a"><path fill="#fff" d="M0 0h32v32H0z"/></clipPath></defs></svg>