<svg xmlns="http://www.w3.org/2000/svg" width="20" height="20" fill="none"><g clip-path="url(#a)"><path fill="#1A1C1F" fill-rule="evenodd" d="m5.281 2.281-3 3A1.1 1.1 0 0 0 2 6c0 .25.094.5.281.719l3 3c.219.187.469.28.719.28.562 0 1-.437 1-1a.97.97 0 0 0-.281-.687L5.406 7H11c.562 0 1-.438 1-1s-.438-1-1-1H5.406L6.72 3.719A1.1 1.1 0 0 0 6.999 3 .985.985 0 0 0 6 2c-.25 0-.5.094-.719.281M14 10c-.594 0-1 .469-1 1 0 .25.094.5.281.719l1.313 1.28H9c-.563 0-1 .438-1 1 0 .532.437 1 1 1h5.594l-1.313 1.282A1.1 1.1 0 0 0 13 17c0 .562.406 1 1 1 .25 0 .5-.094.719-.281l3-3c.187-.22.28-.47.281-.72 0-.25-.094-.5-.281-.718l-3-3a1.1 1.1 0 0 0-.72-.281z" clip-rule="evenodd"/></g><defs><clipPath id="a"><path fill="#fff" d="M0 0h20v20H0z"/></clipPath></defs></svg>