<svg xmlns="http://www.w3.org/2000/svg" width="14" height="14" fill="none"><g clip-path="url(#a)"><path fill="#1A1C1F" fill-rule="evenodd" d="m9.297 1.597-2.1 2.122A.68.68 0 0 0 7 4.203c0 .39.287.697.7.697a.74.74 0 0 0 .503-.197l.897-.919V7.7c0 .394.306.7.7.7a.69.69 0 0 0 .7-.7V3.784l.92.92a.68.68 0 0 0 .48.196c.411 0 .7-.308.7-.697a.68.68 0 0 0-.197-.484l-2.1-2.122A.77.77 0 0 0 9.8 1.4a.77.77 0 0 0-.503.197M3.5 6.3v3.916l-.919-.92a.68.68 0 0 0-.484-.196.68.68 0 0 0-.697.7c0 .18.066.36.197.503l2.1 2.1a.77.77 0 0 0 .503.197c.175 0 .35-.066.503-.197l2.1-2.1A.74.74 0 0 0 7 9.8a.68.68 0 0 0-.7-.7.74.74 0 0 0-.503.197l-.897.919V6.3c0-.372-.306-.7-.7-.7s-.7.328-.7.7" clip-rule="evenodd"/></g><defs><clipPath id="a"><path fill="#fff" d="M0 0h14v14H0z"/></clipPath></defs></svg>