<svg xmlns="http://www.w3.org/2000/svg" width="32" height="32" fill="none"><g clip-path="url(#a)"><path fill="#1A1C1F" fill-rule="evenodd" d="M15.281 7.281c-.18.196-.281.453-.281.719 0 .59.438 1 1 1 .258 0 .516-.094.719-.281L20 5.406V18c0 .563.438 1 1 1s1-.438 1-1V5.406l3.281 3.313C25.5 8.906 25.75 9 26 9c.453 0 1-.318 1-1 0-.266-.1-.523-.281-.719l-5-5A1.1 1.1 0 0 0 21 2c-.25 0-.5.094-.719.281zM10 26.594 6.719 23.28A1.06 1.06 0 0 0 6 23c-.59 0-1 .438-1 1 0 .258.094.516.281.719l5 5c.219.187.469.281.719.281s.5-.094.719-.281l5-5A1.06 1.06 0 0 0 17 24c0-.59-.438-1-1-1-.267 0-.523.1-.719.281L12 26.594V14c0-.563-.438-1-1-1s-1 .438-1 1z" clip-rule="evenodd"/></g><defs><clipPath id="a"><path fill="#fff" d="M0 0h32v32H0z"/></clipPath></defs></svg>