<svg xmlns="http://www.w3.org/2000/svg" width="16" height="16" fill="none"><g clip-path="url(#a)"><path fill="#1A1C1F" fill-rule="evenodd" d="m4.225 1.825-2.4 2.4A.88.88 0 0 0 1.6 4.8c0 .2.075.4.225.575l2.4 2.4A.88.88 0 0 0 4.8 8c.45 0 .8-.35.8-.8 0-.2-.075-.4-.225-.55L4.325 5.6H8.8c.45 0 .8-.35.8-.8S9.25 4 8.8 4H4.325l1.05-1.025A.88.88 0 0 0 5.6 2.4c0-.45-.35-.8-.8-.8-.2 0-.4.075-.575.225M11.2 8a.79.79 0 0 0-.8.8c0 .2.075.4.225.575l1.05 1.025H7.2c-.45 0-.8.35-.8.8 0 .425.35.8.8.8h4.475l-1.05 1.025a.88.88 0 0 0-.225.575c0 .45.325.8.8.8.2 0 .4-.075.575-.225l2.4-2.4a.88.88 0 0 0 .225-.575c0-.2-.075-.4-.225-.575l-2.4-2.4A.88.88 0 0 0 11.2 8" clip-rule="evenodd"/></g><defs><clipPath id="a"><path fill="#fff" d="M0 0h16v16H0z"/></clipPath></defs></svg>