<svg xmlns="http://www.w3.org/2000/svg" width="32" height="32" fill="none"><path fill="#1A1C1F" fill-rule="evenodd" d="M20.56 2.107c-.088.04-1.352 1.268-2.809 2.729-2.777 2.786-2.766 2.773-2.763 3.217.001.183.171.535.326.678.153.141.476.282.644.282.422-.001.486-.053 2.295-1.857L20 5.415v6.388c0 6.849-.01 6.584.255 6.883.235.264.795.376 1.148.229.262-.11.498-.413.565-.727.041-.19.059-2.178.059-6.516V5.429l1.64 1.667c1.914 1.947 2.06 2.05 2.632 1.856.597-.203.857-.826.585-1.405-.139-.299-5.181-5.324-5.456-5.438-.239-.099-.649-.1-.868-.002m-9.987 10.994a1.05 1.05 0 0 0-.541.711c-.041.19-.059 2.178-.059 6.516v6.243l-1.635-1.662c-1.008-1.025-1.719-1.705-1.853-1.773a1.1 1.1 0 0 0-.998.016c-.413.226-.588.789-.392 1.263.104.253 5.128 5.302 5.433 5.46.235.123.56.144.834.053.137-.045.884-.761 2.861-2.741 2.793-2.799 2.789-2.794 2.79-3.229.001-.298-.258-.695-.554-.849-.174-.09-.563-.114-.806-.051-.111.029-.694.575-1.906 1.784L12 26.585l-.001-6.399c-.001-6.095-.006-6.409-.099-6.613a1.1 1.1 0 0 0-.201-.304c-.279-.248-.804-.326-1.126-.168"/></svg>