<svg xmlns="http://www.w3.org/2000/svg" width="12" height="12" fill="none"><g clip-path="url(#a)"><path fill="#1A1C1F" fill-rule="evenodd" d="m7.969 1.369-1.8 1.819A.58.58 0 0 0 6 3.603c0 .334.246.597.6.597.16 0 .314-.06.431-.169l.77-.788V6.6c0 .338.261.6.6.6a.59.59 0 0 0 .6-.6V3.243l.787.789c.11.108.258.169.412.168.352 0 .6-.264.6-.597a.58.58 0 0 0-.169-.415l-1.8-1.82a.66.66 0 0 0-.43-.168.66.66 0 0 0-.432.169M3 5.4v3.357l-.788-.789a.58.58 0 0 0-.414-.168.583.583 0 0 0-.598.6c0 .154.057.309.169.431l1.8 1.8a.66.66 0 0 0 .431.169c.15 0 .3-.057.431-.169l1.8-1.8a.63.63 0 0 0 .17-.431.583.583 0 0 0-.6-.6c-.16 0-.315.06-.432.169l-.769.788V5.4c0-.319-.262-.6-.6-.6s-.6.281-.6.6" clip-rule="evenodd"/></g><defs><clipPath id="a"><path fill="#fff" d="M0 0h12v12H0z"/></clipPath></defs></svg>