<svg xmlns="http://www.w3.org/2000/svg" width="14" height="14" fill="none"><g clip-path="url(#a)"><path fill="#1A1C1F" fill-rule="evenodd" d="M2.095 6.946c0-1.878 1.214-3.32 3.091-3.824l-.687-.435a.77.77 0 0 1-.297-.618c0-.39.297-.687.686-.687a.8.8 0 0 1 .39.114l2.106 1.42c.16.092.32.298.32.573a.8.8 0 0 1-.114.389L6.17 5.984a.73.73 0 0 1-.876.266.67.67 0 0 1-.406-.632.8.8 0 0 1 .115-.412l.48-.71a2.48 2.48 0 0 0-1.991 2.45c0 .893.435 1.74 1.122 2.29a.7.7 0 0 1 .274.572.69.69 0 0 1-.686.687.7.7 0 0 1-.435-.137C2.713 9.51 2.095 8.274 2.095 6.946m9.81.108c0 1.878-1.214 3.32-3.091 3.824l.687.435c.206.16.32.39.32.618 0 .39-.32.687-.71.687a.8.8 0 0 1-.389-.114l-2.106-1.42a.67.67 0 0 1-.321-.573.7.7 0 0 1 .114-.389l1.42-2.106a.73.73 0 0 1 .618-.32c.344 0 .687.274.687.686a.9.9 0 0 1-.137.412l-.481.71a2.48 2.48 0 0 0 1.992-2.45c0-.893-.435-1.74-1.122-2.313-.183-.114-.275-.343-.275-.55 0-.343.275-.709.71-.709.138 0 .298.069.412.16a4.3 4.3 0 0 1 1.672 3.412" clip-rule="evenodd"/></g><defs><clipPath id="a"><path fill="#fff" d="M0 0h14v14H0z"/></clipPath></defs></svg>