<svg xmlns="http://www.w3.org/2000/svg" width="20" height="20" fill="none"><g clip-path="url(#a)"><path fill="#1A1C1F" fill-rule="evenodd" d="M2.993 9.923c0-2.683 1.734-4.743 4.416-5.463l-.981-.62a1.1 1.1 0 0 1-.426-.885c0-.556.426-.98.982-.98.196 0 .392.064.556.162l3.01 2.03c.228.13.457.424.457.816a1.1 1.1 0 0 1-.163.556L8.815 8.55a1.04 1.04 0 0 1-.883.458.957.957 0 0 1-.948-.982c0-.229.065-.425.163-.588l.687-1.014c-1.668.327-2.846 1.8-2.846 3.5 0 1.275.622 2.486 1.603 3.27a1 1 0 0 1 .393.819.984.984 0 0 1-.982.981c-.229 0-.458-.066-.621-.197-1.505-1.21-2.388-2.976-2.388-4.873m14.014.155c0 2.682-1.734 4.743-4.416 5.462l.981.622c.295.229.458.556.458.883 0 .555-.458.98-1.014.98-.196 0-.392-.064-.556-.162l-3.01-2.028a.95.95 0 0 1-.457-.819c0-.229.065-.392.164-.556l2.028-3.01c.196-.293.523-.457.883-.457.49 0 .981.393.981.982 0 .196-.098.425-.196.588l-.687 1.015c1.668-.327 2.846-1.8 2.846-3.5 0-1.277-.622-2.487-1.603-3.305-.262-.163-.393-.49-.393-.785 0-.49.393-1.014 1.014-1.014.197 0 .426.098.59.23 1.536 1.21 2.387 2.976 2.387 4.874" clip-rule="evenodd"/></g><defs><clipPath id="a"><path fill="#fff" d="M0 0h20v20H0z"/></clipPath></defs></svg>