<svg xmlns="http://www.w3.org/2000/svg" width="32" height="32" fill="none"><g clip-path="url(#a)"><path fill="#1A1C1F" fill-rule="evenodd" d="M5 16c0-5.161 3.613-9.613 8.645-10.645L11.161 3.87a1.02 1.02 0 0 1-.484-.845c0-.314.17-1.058.972-1.058.19 0 .409.07.703.25l4.456 2.718c.265.16.515.45.515.798 0 .17-.045.36-.162.557l-2.742 4.611a.99.99 0 0 1-.861.485c-.567 0-1.01-.452-1.01-1.008 0-.153.035-.351.13-.508l1.58-2.613C10.161 8.033 7 11.613 7 15.999a8.95 8.95 0 0 0 3.585 7.188c.293.22.415.522.415.825 0 .561-.42.988-1 .988a1 1 0 0 1-.61-.198A11.09 11.09 0 0 1 5 16m9.677 10.267c0-.17.045-.36.162-.556l2.742-4.613a.99.99 0 0 1 .861-.485c.567 0 1.01.453 1.01 1.008 0 .154-.035.352-.13.51l-1.58 2.611C21.839 23.969 25 20.388 25 16a8.95 8.95 0 0 0-3.585-7.187A1 1 0 0 1 21 7.988c0-.562.42-.988 1-.988.226 0 .433.065.61.198C25.355 9.28 27 12.548 27 15.999c0 5.163-3.613 9.614-8.645 10.646l2.484 1.483c.29.174.484.517.484.846 0 .314-.17 1.058-.972 1.058-.093 0-.344-.032-.61-.194l-4.549-2.774c-.265-.16-.515-.451-.515-.799z" clip-rule="evenodd"/></g><defs><clipPath id="a"><path fill="#fff" d="M0 0h32v32H0z"/></clipPath></defs></svg>