<svg xmlns="http://www.w3.org/2000/svg" width="12" height="12" fill="none"><g clip-path="url(#a)"><path fill="#1A1C1F" fill-rule="evenodd" d="M1.796 5.954c0-1.61 1.04-2.846 2.65-3.278l-.59-.373a.66.66 0 0 1-.254-.53c0-.334.254-.588.588-.588a.67.67 0 0 1 .334.097L6.329 2.5a.57.57 0 0 1 .274.492.66.66 0 0 1-.097.333L5.289 5.129a.626.626 0 0 1-.751.228.57.57 0 0 1-.348-.542c0-.124.034-.246.098-.353l.412-.608a2.126 2.126 0 0 0-1.707 2.1c0 .765.373 1.491.962 1.963a.6.6 0 0 1 .235.49.59.59 0 0 1-.588.589.6.6 0 0 1-.373-.118c-.904-.727-1.433-1.786-1.433-2.924m8.408.092c0 1.61-1.04 2.846-2.65 3.278l.59.373a.68.68 0 0 1 .274.53.594.594 0 0 1-.609.588.66.66 0 0 1-.333-.097L5.671 9.5a.57.57 0 0 1-.275-.492c0-.118.033-.234.097-.333l1.218-1.805a.63.63 0 0 1 .53-.274.59.59 0 0 1 .588.588.76.76 0 0 1-.117.353l-.413.608a2.126 2.126 0 0 0 1.708-2.1c0-.765-.373-1.491-.962-1.982-.157-.098-.236-.294-.236-.472a.61.61 0 0 1 .609-.607c.118 0 .255.059.353.137a3.69 3.69 0 0 1 1.433 2.924" clip-rule="evenodd"/></g><defs><clipPath id="a"><path fill="#fff" d="M0 0h12v12H0z"/></clipPath></defs></svg>