<svg xmlns="http://www.w3.org/2000/svg" width="32" height="32" fill="none"><path fill="#1A1C1F" fill-rule="evenodd" d="M11.198 2.093c-.394.199-.619.759-.478 1.188.117.352.36.549 1.569 1.264.648.384 1.209.722 1.248.752.051.04-.1.101-.56.227a10.9 10.9 0 0 0-6.453 4.919c-1.641 2.778-1.962 6.115-.887 9.206a11.13 11.13 0 0 0 3.364 4.834c.583.484.844.587 1.228.484.479-.128.754-.475.756-.955.002-.347-.112-.553-.483-.87a24 24 0 0 1-.732-.662c-1.341-1.267-2.304-3.066-2.627-4.91-.131-.749-.158-2.145-.054-2.823.563-3.698 3.3-6.636 6.923-7.432.272-.06.344-.218-.625 1.378-.943 1.555-.966 1.621-.717 2.121a.99.99 0 0 0 .707.551c.265.062.691-.063.873-.256.221-.236 2.971-4.9 3.04-5.158.052-.195.048-.271-.028-.469a1.2 1.2 0 0 0-.236-.372c-.203-.187-4.793-2.974-5.046-3.064-.294-.103-.509-.09-.782.047m10.543 4.951c-.441.107-.724.475-.726.944-.002.351.112.552.51.896 1.266 1.095 1.875 1.843 2.507 3.078.625 1.222.932 2.516.94 3.958.005.973-.058 1.505-.28 2.364-.723 2.795-2.923 5.171-5.652 6.105-.449.154-1.236.366-1.262.34-.009-.009.339-.603.773-1.319.797-1.315.916-1.55.916-1.807 0-.268-.257-.686-.514-.837-.204-.119-.283-.135-.579-.116-.282.018-.378.049-.537.179-.235.191-3.03 4.858-3.127 5.22-.052.195-.048.271.028.469.05.131.156.299.236.374.169.158 4.735 2.948 5.019 3.066.261.109.689.068.906-.086.205-.146.372-.455.415-.77.036-.265-.099-.636-.3-.823-.066-.062-.591-.394-1.167-.738s-1.143-.686-1.259-.759l-.213-.132.58-.152c3.412-.89 6.244-3.514 7.418-6.875a10.83 10.83 0 0 0 .055-7.07 11.1 11.1 0 0 0-3.408-5.02c-.605-.503-.843-.595-1.279-.489"/></svg>