<svg xmlns="http://www.w3.org/2000/svg" width="28" height="28" fill="none"><g clip-path="url(#a)"><path fill="#1A1C1F" fill-rule="evenodd" d="M4.375 14c0-4.517 3.161-8.411 7.565-9.314l-2.174-1.3a.9.9 0 0 1-.423-.74c0-.273.147-.924.85-.924.166 0 .357.062.615.22l3.899 2.377c.232.14.45.394.45.697a.95.95 0 0 1-.14.487l-2.4 4.037a.86.86 0 0 1-.754.424.877.877 0 0 1-.883-.882c0-.135.03-.308.113-.446l1.383-2.285c-3.585.678-6.351 3.81-6.351 7.65a7.84 7.84 0 0 0 3.137 6.289.88.88 0 0 1 .363.72c0 .492-.367.864-.875.864a.87.87 0 0 1-.533-.172 9.7 9.7 0 0 1-3.842-7.703m8.468 8.983c0-.149.039-.316.14-.488l2.4-4.036a.87.87 0 0 1 .754-.422c.496 0 .883.395.883.88 0 .135-.03.308-.113.445l-1.383 2.287c3.585-.678 6.351-3.81 6.351-7.65a7.83 7.83 0 0 0-3.137-6.29.88.88 0 0 1-.363-.72c0-.492.367-.864.875-.864a.86.86 0 0 1 .533.173A9.7 9.7 0 0 1 23.625 14c0 4.516-3.161 8.413-7.565 9.315l2.174 1.299a.9.9 0 0 1 .423.74c0 .273-.147.925-.85.925-.081 0-.3-.027-.533-.17l-3.98-2.427c-.233-.14-.451-.395-.451-.698" clip-rule="evenodd"/></g><defs><clipPath id="a"><path fill="#fff" d="M0 0h28v28H0z"/></clipPath></defs></svg>