<svg xmlns="http://www.w3.org/2000/svg" width="16" height="16" fill="none"><g clip-path="url(#a)"><path fill="#1A1C1F" fill-rule="evenodd" d="M2.394 7.939c0-2.146 1.387-3.795 3.533-4.37l-.785-.497a.88.88 0 0 1-.34-.707.77.77 0 0 1 .785-.785.9.9 0 0 1 .444.13L8.44 3.333c.183.105.366.34.366.654a.9.9 0 0 1-.13.445L7.051 6.84a.834.834 0 0 1-1.002.303.765.765 0 0 1-.463-.722c0-.183.052-.34.13-.47l.55-.812c-1.335.262-2.277 1.44-2.277 2.8 0 1.02.497 1.989 1.282 2.617.21.157.315.392.315.654a.787.787 0 0 1-.786.785.8.8 0 0 1-.497-.157c-1.203-.968-1.91-2.381-1.91-3.9zm11.212.123c0 2.146-1.387 3.795-3.533 4.37l.785.498a.9.9 0 0 1 .367.706c0 .445-.367.785-.811.785a.9.9 0 0 1-.446-.13L7.56 12.668a.76.76 0 0 1-.366-.654c0-.184.052-.314.13-.445l1.624-2.41a.83.83 0 0 1 .707-.365c.393 0 .786.314.786.785 0 .157-.08.34-.158.47l-.55.812c1.335-.261 2.278-1.44 2.278-2.8 0-1.02-.497-1.99-1.282-2.643-.21-.13-.314-.392-.314-.628 0-.392.314-.811.81-.811a.82.82 0 0 1 .472.183c1.23.968 1.91 2.38 1.91 3.9z" clip-rule="evenodd"/></g><defs><clipPath id="a"><path fill="#fff" d="M0 0h16v16H0z"/></clipPath></defs></svg>