<svg width="32" height="32" viewBox="0 0 32 32" fill="none" xmlns="http://www.w3.org/2000/svg"><path d="M13.120 2.076 C 12.648 2.102,12.532 2.126,12.386 2.231 C 12.054 2.467,11.924 2.932,12.077 3.332 C 12.176 3.592,12.455 3.869,12.681 3.933 C 12.761 3.955,16.536 3.973,21.071 3.973 L 29.314 3.973 29.536 3.827 C 29.768 3.673,29.872 3.517,29.962 3.189 C 30.044 2.894,29.946 2.588,29.685 2.319 L 29.467 2.095 28.645 2.061 C 27.654 2.020,13.915 2.034,13.120 2.076 M8.720 7.052 C 8.474 7.139,8.286 7.289,8.150 7.508 L 8.027 7.707 8.012 17.139 L 7.997 26.570 5.868 24.464 C 4.698 23.305,3.650 22.289,3.541 22.205 C 3.368 22.074,3.295 22.054,2.987 22.053 C 2.678 22.053,2.606 22.073,2.431 22.206 C 2.136 22.431,2.027 22.642,2.027 22.987 C 2.027 23.190,2.061 23.336,2.138 23.461 C 2.279 23.694,8.162 29.584,8.475 29.806 C 8.751 30.003,9.114 30.032,9.432 29.881 C 9.643 29.781,13.544 25.944,15.042 24.363 C 16.033 23.317,16.082 23.229,15.944 22.737 C 15.784 22.166,15.114 21.860,14.580 22.113 C 14.480 22.161,13.414 23.172,12.212 24.359 L 10.027 26.518 10.027 17.176 C 10.027 6.906,10.052 7.706,9.714 7.342 C 9.474 7.084,9.011 6.949,8.720 7.052 M17.875 7.037 C 16.954 7.185,16.713 8.290,17.485 8.826 L 17.716 8.987 23.485 8.987 C 29.915 8.987,29.398 9.017,29.749 8.617 C 29.934 8.407,30.001 8.154,29.957 7.828 C 29.922 7.567,29.796 7.385,29.515 7.187 L 29.307 7.041 23.733 7.016 C 20.668 7.002,18.032 7.012,17.875 7.037 M22.876 12.046 C 22.315 12.110,21.983 12.537,22.039 13.123 C 22.069 13.437,22.184 13.615,22.503 13.840 L 22.729 14.000 26.000 14.000 L 29.271 14.000 29.497 13.840 C 29.826 13.607,29.934 13.435,29.962 13.099 C 29.994 12.714,29.834 12.371,29.531 12.170 L 29.315 12.027 26.244 12.019 C 24.555 12.015,23.039 12.027,22.876 12.046 M26.769 17.061 C 26.334 17.151,26.027 17.544,26.027 18.011 C 26.027 18.343,26.158 18.595,26.444 18.812 L 26.675 18.987 28.000 18.987 L 29.325 18.987 29.550 18.813 C 29.835 18.594,29.974 18.336,29.972 18.027 C 29.970 17.679,29.811 17.368,29.542 17.190 L 29.315 17.040 28.137 17.031 C 27.490 17.025,26.874 17.039,26.769 17.061 " fill="#1A1C1F" stroke="none" fill-rule="evenodd"></path></svg>