<svg width="32" height="32" viewBox="0 0 32 32" fill="none" xmlns="http://www.w3.org/2000/svg"><path d="M12.525 2.134 C 12.147 2.334,11.957 2.728,12.024 3.174 C 12.071 3.487,12.395 3.865,12.686 3.946 C 12.813 3.981,15.705 3.999,21.040 3.999 C 28.895 3.998,29.208 3.994,29.420 3.898 C 29.540 3.843,29.701 3.717,29.777 3.618 C 29.909 3.445,30.038 3.038,30.000 2.913 C 29.990 2.880,29.968 2.788,29.950 2.708 C 29.911 2.530,29.637 2.209,29.435 2.104 C 29.306 2.037,28.134 2.027,21.003 2.029 C 12.920 2.031,12.715 2.034,12.525 2.134 M8.880 7.011 C 8.851 7.022,8.755 7.046,8.667 7.065 C 8.444 7.113,2.160 13.383,2.075 13.643 C 1.945 14.035,2.035 14.444,2.308 14.707 C 2.606 14.995,3.009 15.067,3.402 14.904 C 3.536 14.848,4.305 14.118,5.800 12.625 L 8.000 10.428 8.001 19.814 C 8.002 28.866,8.006 29.208,8.102 29.420 C 8.157 29.540,8.283 29.701,8.382 29.777 C 8.555 29.909,8.962 30.038,9.087 30.000 C 9.120 29.990,9.212 29.968,9.292 29.950 C 9.473 29.911,9.789 29.639,9.909 29.419 C 9.993 29.265,10.002 28.567,10.027 19.853 L 10.053 10.453 12.240 12.645 C 13.467 13.875,14.502 14.870,14.598 14.912 C 15.200 15.174,15.913 14.764,15.986 14.114 C 16.042 13.616,16.115 13.701,12.755 10.334 C 11.036 8.611,9.557 7.167,9.468 7.125 C 9.294 7.043,8.967 6.980,8.880 7.011 M17.893 7.012 C 17.864 7.022,17.774 7.045,17.694 7.063 C 17.499 7.106,17.174 7.398,17.085 7.611 C 16.922 8.002,17.028 8.448,17.351 8.732 C 17.458 8.825,17.635 8.928,17.746 8.960 C 17.887 9.001,19.627 9.014,23.600 9.003 C 29.216 8.987,29.255 8.986,29.467 8.875 C 29.596 8.807,29.740 8.667,29.833 8.518 C 30.132 8.036,29.984 7.443,29.494 7.155 L 29.253 7.013 23.600 7.004 C 20.491 6.998,17.923 7.002,17.893 7.012 M22.587 12.101 C 22.292 12.237,22.131 12.429,22.050 12.739 C 21.981 13.006,22.006 13.255,22.123 13.474 C 22.211 13.639,22.541 13.913,22.708 13.959 C 22.898 14.012,29.102 14.012,29.292 13.959 C 29.459 13.913,29.789 13.639,29.877 13.474 C 30.140 12.983,29.922 12.330,29.420 12.102 C 29.213 12.008,29.012 12.002,26.000 12.002 C 23.002 12.002,22.787 12.009,22.587 12.101 M26.560 17.117 C 26.148 17.336,25.940 17.773,26.038 18.211 C 26.099 18.487,26.190 18.623,26.435 18.810 L 26.632 18.960 28.000 18.960 L 29.368 18.960 29.565 18.810 C 29.930 18.532,30.057 18.177,29.946 17.743 C 29.873 17.454,29.714 17.261,29.429 17.115 C 29.251 17.023,29.108 17.014,27.989 17.016 C 26.883 17.018,26.726 17.029,26.560 17.117 " fill="#1A1C1F" stroke="none" fill-rule="evenodd"></path></svg>