<svg xmlns="http://www.w3.org/2000/svg" width="24" height="24" fill="none"><g clip-path="url(#a)"><path fill="#1A1C1F" fill-rule="evenodd" d="M21 4H11a1 1 0 1 1 0-2h10a1 1 0 0 1 0 2m0 4h-6a1 1 0 1 1 0-2h6a1 1 0 0 1 0 2m0 4h-2a1 1 0 1 1 0-2h2a1 1 0 0 1 0 2m-9.293 4.293a1 1 0 0 0-1.414 0L8 18.586V7a1 1 0 1 0-2 0v11.586l-2.293-2.293a1 1 0 0 0-1.414 1.413l4 4a1 1 0 0 0 1.414 0l4-4a1 1 0 0 0 0-1.413" clip-rule="evenodd"/></g><defs><clipPath id="a"><path fill="#fff" d="M0 0h24v24H0z"/></clipPath></defs></svg>