<svg width="20" height="20" viewBox="0 0 20 20" fill="none" xmlns="http://www.w3.org/2000/svg"><path d="M9.017 2.028 C 8.729 2.047,8.658 2.064,8.500 2.153 C 8.055 2.404,7.883 2.948,8.102 3.413 C 8.208 3.638,8.431 3.849,8.653 3.931 C 8.837 4.000,8.856 4.001,13.044 3.992 L 17.250 3.983 17.406 3.906 C 18.155 3.538,18.192 2.522,17.471 2.138 L 17.269 2.031 13.309 2.018 C 11.132 2.011,9.200 2.016,9.017 2.028 M5.783 6.029 C 5.483 6.108,5.236 6.302,5.110 6.560 L 5.017 6.750 5.007 10.662 L 4.998 14.574 4.319 13.906 C 3.501 13.102,3.400 13.034,3.014 13.034 C 2.779 13.033,2.718 13.047,2.538 13.136 C 2.087 13.362,1.884 13.911,2.080 14.380 C 2.105 14.439,2.297 14.674,2.508 14.902 C 3.077 15.517,5.222 17.634,5.433 17.789 C 5.730 18.008,5.954 18.050,6.290 17.950 C 6.511 17.884,6.928 17.501,8.486 15.929 C 9.678 14.726,9.893 14.482,9.967 14.253 C 10.058 13.969,9.949 13.558,9.719 13.325 C 9.510 13.112,9.314 13.033,8.993 13.034 C 8.599 13.034,8.502 13.099,7.681 13.907 L 7.002 14.574 6.993 10.662 L 6.983 6.750 6.908 6.599 C 6.805 6.391,6.616 6.204,6.416 6.113 C 6.232 6.028,5.937 5.989,5.783 6.029 M11.933 6.028 C 10.896 6.120,10.657 7.445,11.594 7.906 L 11.750 7.983 14.500 7.983 L 17.250 7.983 17.406 7.906 C 18.155 7.538,18.192 6.522,17.471 6.138 L 17.269 6.031 14.726 6.018 C 13.328 6.011,12.071 6.016,11.933 6.028 M14.833 10.028 C 14.616 10.063,14.342 10.225,14.212 10.397 C 13.827 10.900,14.009 11.618,14.594 11.906 C 14.749 11.983,14.761 11.983,16.000 11.983 C 17.239 11.983,17.251 11.983,17.406 11.906 C 18.155 11.538,18.192 10.522,17.471 10.138 L 17.268 10.030 16.126 10.017 C 15.497 10.010,14.916 10.015,14.833 10.028 " fill="#1A1C1F" stroke="none" fill-rule="evenodd"></path></svg>