<svg width="20" height="20" viewBox="0 0 20 20" fill="none" xmlns="http://www.w3.org/2000/svg"><path d="M8.678 2.061 C 8.369 2.169,8.164 2.376,8.051 2.696 C 7.883 3.174,8.159 3.747,8.645 3.929 L 8.836 4.000 13.000 4.000 L 17.164 4.000 17.355 3.929 C 17.479 3.882,17.601 3.802,17.702 3.702 C 18.184 3.219,18.052 2.411,17.441 2.110 L 17.250 2.017 13.050 2.009 C 9.086 2.002,8.840 2.005,8.678 2.061 M5.711 6.046 C 5.634 6.071,5.522 6.123,5.461 6.161 C 5.400 6.199,4.628 6.954,3.746 7.840 C 2.240 9.351,2.137 9.462,2.071 9.643 C 1.931 10.024,2.016 10.419,2.298 10.702 C 2.581 10.984,2.977 11.069,3.357 10.929 C 3.530 10.865,3.625 10.783,4.275 10.139 L 5.000 9.420 5.000 13.292 L 5.000 17.164 5.071 17.355 C 5.210 17.726,5.604 18.000,6.000 18.000 C 6.396 18.000,6.790 17.726,6.929 17.355 L 7.000 17.164 7.000 13.292 L 7.000 9.420 7.725 10.139 C 8.375 10.783,8.470 10.865,8.643 10.929 C 9.023 11.069,9.419 10.984,9.702 10.702 C 9.984 10.419,10.069 10.024,9.929 9.643 C 9.863 9.462,9.759 9.350,8.238 7.824 C 6.947 6.529,6.581 6.180,6.442 6.112 C 6.231 6.008,5.914 5.979,5.711 6.046 M11.678 6.061 C 10.976 6.305,10.774 7.177,11.298 7.702 C 11.399 7.802,11.521 7.882,11.645 7.929 C 11.834 7.999,11.858 8.000,14.500 8.000 C 17.142 8.000,17.166 7.999,17.355 7.929 C 17.479 7.882,17.601 7.802,17.702 7.702 C 18.184 7.219,18.052 6.411,17.441 6.110 L 17.250 6.017 14.550 6.009 C 12.026 6.002,11.839 6.005,11.678 6.061 M14.678 10.061 C 13.976 10.307,13.774 11.177,14.298 11.702 C 14.399 11.802,14.521 11.882,14.645 11.929 C 14.827 11.997,14.892 12.000,16.000 12.000 C 17.108 12.000,17.173 11.997,17.355 11.929 C 17.479 11.882,17.601 11.802,17.702 11.702 C 18.184 11.219,18.052 10.411,17.441 10.110 L 17.250 10.017 16.050 10.009 C 14.965 10.001,14.834 10.006,14.678 10.061 " fill="#1A1C1F" stroke="none" fill-rule="evenodd"></path></svg>