<svg width="24" height="24" viewBox="0 0 24 24" fill="none" xmlns="http://www.w3.org/2000/svg"><path d="M11.220 2.038 C 10.705 2.058,10.645 2.069,10.477 2.167 C 9.977 2.461,9.863 3.114,10.225 3.607 C 10.412 3.862,10.534 3.920,10.975 3.962 C 11.451 4.009,20.549 4.009,21.025 3.962 C 21.466 3.920,21.588 3.862,21.775 3.607 C 22.060 3.219,22.060 2.781,21.775 2.393 C 21.569 2.112,21.473 2.076,20.842 2.037 C 20.253 2.001,12.132 2.002,11.220 2.038 M6.773 6.036 C 6.586 6.084,6.312 6.256,6.216 6.386 C 5.983 6.703,6.000 6.210,6.000 12.664 L 6.000 18.572 4.804 17.389 C 4.064 16.657,3.542 16.172,3.434 16.116 C 3.076 15.931,2.600 16.011,2.305 16.305 C 1.995 16.616,1.924 17.096,2.134 17.455 C 2.258 17.665,5.078 20.537,6.009 21.402 C 6.491 21.849,6.584 21.918,6.761 21.960 C 7.026 22.024,7.266 21.984,7.494 21.840 C 7.702 21.708,10.515 18.937,11.363 18.030 C 11.874 17.483,11.918 17.423,11.964 17.219 C 12.146 16.403,11.293 15.746,10.546 16.127 C 10.461 16.171,9.855 16.737,9.197 17.387 L 8.003 18.569 7.990 12.674 C 7.979 7.928,7.966 6.749,7.924 6.620 C 7.793 6.225,7.206 5.927,6.773 6.036 M15.040 6.036 C 14.727 6.056,14.628 6.079,14.477 6.167 C 13.988 6.455,13.864 7.106,14.208 7.585 C 14.389 7.838,14.537 7.915,14.929 7.963 C 15.436 8.025,21.172 7.991,21.373 7.925 C 21.550 7.867,21.799 7.625,21.904 7.410 C 21.952 7.311,21.978 7.171,21.978 7.000 C 21.978 6.829,21.952 6.689,21.904 6.590 C 21.799 6.374,21.549 6.133,21.373 6.076 C 21.259 6.039,20.486 6.025,18.320 6.019 C 16.725 6.015,15.249 6.022,15.040 6.036 M18.860 10.034 C 18.124 10.132,17.765 10.970,18.200 11.574 C 18.487 11.971,18.675 12.011,20.157 11.992 C 21.386 11.977,21.432 11.968,21.690 11.702 C 21.904 11.482,21.978 11.301,21.978 11.000 C 21.978 10.699,21.904 10.518,21.690 10.298 C 21.435 10.035,21.386 10.026,20.160 10.016 C 19.555 10.011,18.970 10.019,18.860 10.034 " fill="#1A1C1F" stroke="none" fill-rule="evenodd"></path></svg>