<svg width="16" height="16" viewBox="0 0 16 16" fill="none" xmlns="http://www.w3.org/2000/svg"><path d="M7.213 1.622 C 6.983 1.638,6.927 1.651,6.800 1.723 C 6.445 1.923,6.306 2.358,6.481 2.729 C 6.563 2.905,6.752 3.081,6.926 3.147 C 7.069 3.200,7.111 3.201,10.435 3.194 L 13.800 3.187 13.925 3.125 C 14.525 2.830,14.553 2.018,13.975 1.710 L 13.811 1.622 10.646 1.614 C 8.904 1.609,7.360 1.613,7.213 1.622 M4.640 4.825 C 4.416 4.870,4.337 4.939,3.066 6.211 C 2.369 6.909,1.765 7.529,1.725 7.589 C 1.623 7.741,1.581 7.981,1.623 8.169 C 1.709 8.552,2.104 8.836,2.486 8.791 C 2.732 8.762,2.835 8.687,3.433 8.097 L 4.000 7.539 4.000 10.631 C 4.000 14.181,3.978 13.876,4.251 14.148 C 4.593 14.488,5.007 14.488,5.349 14.148 C 5.622 13.876,5.600 14.181,5.600 10.631 L 5.600 7.539 6.180 8.110 C 6.517 8.442,6.805 8.703,6.867 8.733 C 6.934 8.766,7.049 8.789,7.178 8.795 C 7.353 8.804,7.404 8.796,7.527 8.740 C 7.903 8.568,8.088 8.154,7.968 7.754 C 7.925 7.609,7.538 7.195,6.303 5.971 C 5.480 5.157,5.264 4.956,5.146 4.900 C 4.987 4.825,4.787 4.795,4.640 4.825 M9.547 4.822 C 8.717 4.896,8.525 5.956,9.275 6.325 L 9.400 6.387 11.600 6.387 L 13.800 6.387 13.925 6.325 C 14.525 6.030,14.553 5.218,13.975 4.910 L 13.811 4.822 11.779 4.814 C 10.661 4.809,9.657 4.813,9.547 4.822 M11.867 8.022 C 11.693 8.050,11.474 8.180,11.369 8.317 C 11.062 8.720,11.207 9.295,11.675 9.525 C 11.799 9.586,11.809 9.587,12.800 9.587 C 13.791 9.587,13.801 9.586,13.925 9.525 C 14.525 9.230,14.553 8.418,13.975 8.110 L 13.811 8.022 12.899 8.013 C 12.397 8.007,11.933 8.012,11.867 8.022 " fill="#1A1C1F" stroke="none" fill-rule="evenodd"></path></svg>