<svg width="24" height="24" viewBox="0 0 24 24" fill="none" xmlns="http://www.w3.org/2000/svg"><path d="M11.220 2.038 C 10.705 2.058,10.645 2.069,10.477 2.167 C 9.977 2.461,9.863 3.114,10.225 3.607 C 10.412 3.862,10.534 3.920,10.975 3.962 C 11.451 4.009,20.549 4.009,21.025 3.962 C 21.466 3.920,21.588 3.862,21.775 3.607 C 22.060 3.219,22.060 2.781,21.775 2.393 C 21.569 2.112,21.473 2.076,20.842 2.037 C 20.253 2.001,12.132 2.002,11.220 2.038 M6.730 6.045 C 6.590 6.078,6.451 6.188,5.930 6.676 C 4.884 7.658,2.257 10.336,2.134 10.547 C 1.860 11.013,2.076 11.649,2.596 11.908 C 2.794 12.007,3.207 12.002,3.420 11.899 C 3.517 11.852,4.054 11.352,4.789 10.626 L 5.998 9.431 6.009 15.345 L 6.020 21.260 6.108 21.425 C 6.222 21.637,6.394 21.808,6.587 21.903 C 6.794 22.003,7.209 22.005,7.406 21.907 C 7.632 21.795,7.865 21.557,7.924 21.380 C 7.966 21.251,7.979 20.071,7.990 15.327 L 8.003 9.435 9.220 10.632 C 9.907 11.309,10.502 11.861,10.588 11.903 C 10.789 12.002,11.207 12.004,11.404 11.907 C 11.762 11.732,11.976 11.394,11.979 11.000 C 11.980 10.784,11.960 10.706,11.864 10.540 C 11.713 10.281,7.734 6.295,7.480 6.149 C 7.272 6.029,6.974 5.987,6.730 6.045 M15.040 6.036 C 14.727 6.056,14.628 6.079,14.477 6.167 C 13.988 6.455,13.864 7.106,14.208 7.585 C 14.389 7.838,14.537 7.915,14.929 7.963 C 15.436 8.025,21.172 7.991,21.373 7.925 C 21.550 7.867,21.799 7.625,21.904 7.410 C 21.952 7.311,21.978 7.171,21.978 7.000 C 21.978 6.829,21.952 6.689,21.904 6.590 C 21.799 6.374,21.549 6.133,21.373 6.076 C 21.259 6.039,20.486 6.025,18.320 6.019 C 16.725 6.015,15.249 6.022,15.040 6.036 M18.860 10.034 C 18.124 10.132,17.765 10.970,18.200 11.574 C 18.487 11.971,18.675 12.011,20.157 11.992 C 21.386 11.977,21.432 11.968,21.690 11.702 C 21.904 11.482,21.978 11.301,21.978 11.000 C 21.978 10.699,21.904 10.518,21.690 10.298 C 21.435 10.035,21.386 10.026,20.160 10.016 C 19.555 10.011,18.970 10.019,18.860 10.034 " fill="#1A1C1F" stroke="none" fill-rule="evenodd"></path></svg>