<svg xmlns="http://www.w3.org/2000/svg" width="32" height="32" fill="none"><path fill="#1A1C1F" fill-rule="evenodd" d="M8.56 2.115c-.247.131-.353.24-.46.472-.094.204-.098.605-.099 9.599L8 21.572l-2.2-2.197c-1.495-1.493-2.264-2.223-2.398-2.279-.575-.239-1.266.108-1.358.681L2.009 18l.038.24c.036.232.146.349 3.195 3.406 3.135 3.142 3.379 3.363 3.712 3.366.442.004.411.032 3.701-3.247q3.134-3.124 3.24-3.342c.286-.59-.095-1.307-.741-1.394-.523-.07-.428-.146-2.873 2.293l-2.253 2.247-.014-9.411c-.013-8.655-.021-9.424-.103-9.571-.117-.212-.355-.433-.541-.504-.217-.082-.625-.065-.81.032m18.027 10.987c-.49.257-.684.735-.511 1.258.069.211.34.489.554.57.233.088 2.556.075 2.773-.015.558-.234.764-1.066.377-1.527-.296-.351-.411-.375-1.791-.373-1.026.002-1.27.017-1.402.087m-4.001 4.999c-.205.089-.495.417-.536.607-.018.08-.04.172-.05.205-.038.125.091.532.223.705.076.099.237.225.357.28.207.094.408.1 3.42.1s3.213-.006 3.42-.1c.499-.227.721-.884.46-1.366a1.25 1.25 0 0 0-.51-.449c-.238-.09-6.575-.073-6.784.018m-4.693 4.911c-.029.01-.119.033-.199.051-.195.043-.52.335-.609.548a.98.98 0 0 0 .266 1.121c.107.093.284.196.395.228.141.041 1.881.054 5.854.043 5.616-.016 5.655-.017 5.867-.128.129-.068.273-.208.366-.357a.96.96 0 0 0-.339-1.363l-.241-.142-5.653-.009c-3.109-.006-5.677-.002-5.707.008m-5.28 5.087c-.892.406-.758 1.673.198 1.871.199.041 2.655.054 8.362.044 7.486-.013 8.092-.021 8.246-.105.22-.12.492-.436.531-.617.018-.08.04-.172.05-.205.038-.125-.091-.532-.223-.705a1.1 1.1 0 0 0-.357-.28c-.212-.096-.525-.1-8.407-.1-7.804 0-8.196.005-8.4.097"/></svg>