<svg xmlns="http://www.w3.org/2000/svg" width="28" height="28" fill="none"><g clip-path="url(#a)"><path fill="#1A1C1F" fill-rule="evenodd" d="m13.744 16.369-5.25 5.25a.874.874 0 0 1-1.237 0l-5.25-5.25a.875.875 0 0 1 1.237-1.238L7 18.888V2.625a.875.875 0 0 1 1.75 0v16.263l3.757-3.757a.874.874 0 0 1 1.427.954.9.9 0 0 1-.19.284m11.63 8.131h-14a.875.875 0 1 0 0 1.75h14a.875.875 0 0 0 0-1.75m0-4.375H15.75a.875.875 0 1 0 0 1.75h9.625a.875.875 0 0 0 0-1.75m0-4.375h-5.25a.875.875 0 1 0 0 1.75h5.25a.875.875 0 0 0 0-1.75m0-4.375h-1.75a.875.875 0 1 0 0 1.75h1.75a.875.875 0 0 0 0-1.75" clip-rule="evenodd"/></g><defs><clipPath id="a"><path fill="#fff" d="M0 28h28V0H0z"/></clipPath></defs></svg>