<svg width="12" height="12" viewBox="0 0 12 12" fill="none" xmlns="http://www.w3.org/2000/svg"><path d="M5.207 1.237 C 5.021 1.301,4.898 1.426,4.831 1.618 C 4.730 1.904,4.895 2.248,5.187 2.357 L 5.302 2.400 7.800 2.400 L 10.298 2.400 10.413 2.357 C 10.487 2.329,10.561 2.281,10.621 2.221 C 10.911 1.931,10.831 1.446,10.464 1.266 L 10.350 1.210 7.830 1.205 C 5.452 1.201,5.304 1.203,5.207 1.237 M3.426 3.628 C 3.381 3.643,3.313 3.674,3.276 3.696 C 3.240 3.719,2.777 4.173,2.247 4.704 C 1.344 5.610,1.282 5.677,1.242 5.786 C 1.159 6.014,1.210 6.252,1.379 6.421 C 1.549 6.591,1.786 6.641,2.014 6.557 C 2.118 6.519,2.175 6.470,2.565 6.083 L 3.000 5.652 3.000 7.975 L 3.000 10.298 3.043 10.413 C 3.126 10.636,3.363 10.800,3.600 10.800 C 3.837 10.800,4.074 10.636,4.157 10.413 L 4.200 10.298 4.200 7.975 L 4.200 5.652 4.635 6.083 C 5.025 6.470,5.082 6.519,5.186 6.557 C 5.414 6.641,5.651 6.591,5.821 6.421 C 5.990 6.252,6.041 6.014,5.958 5.786 C 5.918 5.677,5.856 5.610,4.943 4.694 C 4.168 3.917,3.949 3.708,3.865 3.667 C 3.738 3.605,3.549 3.588,3.426 3.628 M7.007 3.637 C 6.586 3.783,6.465 4.306,6.779 4.621 C 6.839 4.681,6.913 4.729,6.987 4.757 C 7.101 4.800,7.115 4.800,8.700 4.800 C 10.285 4.800,10.299 4.800,10.413 4.757 C 10.487 4.729,10.561 4.681,10.621 4.621 C 10.911 4.331,10.831 3.846,10.464 3.666 L 10.350 3.610 8.730 3.605 C 7.215 3.601,7.103 3.603,7.007 3.637 M8.807 6.037 C 8.385 6.184,8.265 6.706,8.579 7.021 C 8.639 7.081,8.713 7.129,8.787 7.157 C 8.896 7.198,8.935 7.200,9.600 7.200 C 10.265 7.200,10.304 7.198,10.413 7.157 C 10.487 7.129,10.561 7.081,10.621 7.021 C 10.911 6.731,10.831 6.246,10.464 6.066 L 10.350 6.010 9.630 6.005 C 8.979 6.001,8.900 6.004,8.807 6.037 " fill="#1A1C1F" stroke="none" fill-rule="evenodd"></path></svg>