<svg xmlns="http://www.w3.org/2000/svg" width="16" height="16" fill="none"><g clip-path="url(#a)"><path fill="#1A1C1F" fill-rule="evenodd" d="M6.635 10.634 5.6 11.67V5.6a.8.8 0 1 0-1.6 0v6.069l-1.034-1.035a.798.798 0 0 0-1.305.26.8.8 0 0 0 .174.872l2.4 2.4a.8.8 0 0 0 1.13 0l2.4-2.4a.8.8 0 1 0-1.13-1.132M13.6 3.2H7.2a.8.8 0 1 1 0-1.6h6.4a.8.8 0 1 1 0 1.6m0 3.2h-4a.8.8 0 1 1 0-1.6h4a.8.8 0 0 1 0 1.6m0 3.2H12A.8.8 0 0 1 12 8h1.6a.8.8 0 1 1 0 1.6" clip-rule="evenodd"/></g><defs><clipPath id="a"><path fill="#fff" d="M0 0h16v16H0z"/></clipPath></defs></svg>