<svg xmlns="http://www.w3.org/2000/svg" width="14" height="14" fill="none"><g clip-path="url(#a)"><path fill="#1A1C1F" fill-rule="evenodd" d="m5.805 9.305-.905.905V4.9a.7.7 0 1 0-1.4 0v5.31l-.905-.905a.7.7 0 1 0-.99.99l2.1 2.1a.697.697 0 0 0 .99 0l2.1-2.1a.7.7 0 1 0-.99-.99M11.9 2.8H6.3a.7.7 0 0 1 0-1.4h5.6a.7.7 0 1 1 0 1.4m0 2.8H8.4a.7.7 0 0 1 0-1.4h3.5a.7.7 0 1 1 0 1.4m0 2.8h-1.4a.7.7 0 0 1 0-1.4h1.4a.7.7 0 1 1 0 1.4" clip-rule="evenodd"/></g><defs><clipPath id="a"><path fill="#fff" d="M0 0h14v14H0z"/></clipPath></defs></svg>