<svg width="16" height="16" viewBox="0 0 16 16" fill="none" xmlns="http://www.w3.org/2000/svg"><path d="M7.213 1.622 C 6.983 1.638,6.927 1.651,6.800 1.723 C 6.445 1.923,6.306 2.358,6.481 2.729 C 6.563 2.905,6.752 3.081,6.926 3.147 C 7.069 3.200,7.111 3.201,10.435 3.194 L 13.800 3.187 13.925 3.125 C 14.525 2.830,14.553 2.018,13.975 1.710 L 13.811 1.622 10.646 1.614 C 8.904 1.609,7.360 1.613,7.213 1.622 M4.627 4.823 C 4.385 4.886,4.170 5.061,4.071 5.276 L 4.013 5.400 4.006 8.530 L 3.998 11.660 3.472 11.142 C 3.183 10.857,2.887 10.583,2.813 10.532 C 2.690 10.447,2.662 10.439,2.445 10.431 C 2.225 10.422,2.198 10.427,2.038 10.506 C 1.585 10.728,1.464 11.283,1.782 11.680 C 1.922 11.855,3.745 13.690,4.117 14.030 C 4.372 14.264,4.460 14.328,4.568 14.360 C 4.837 14.440,5.016 14.406,5.253 14.231 C 5.425 14.105,7.172 12.379,7.625 11.889 C 7.968 11.518,8.000 11.456,8.000 11.170 C 7.999 10.962,7.920 10.775,7.770 10.627 C 7.637 10.496,7.483 10.429,7.274 10.409 C 6.931 10.378,6.841 10.436,6.101 11.169 L 5.602 11.663 5.594 8.532 C 5.587 5.576,5.584 5.394,5.538 5.297 C 5.466 5.143,5.268 4.946,5.122 4.883 C 4.976 4.820,4.745 4.792,4.627 4.823 M9.547 4.822 C 8.717 4.896,8.525 5.956,9.275 6.325 L 9.400 6.387 11.600 6.387 L 13.800 6.387 13.925 6.325 C 14.525 6.030,14.553 5.218,13.975 4.910 L 13.811 4.822 11.779 4.814 C 10.661 4.809,9.657 4.813,9.547 4.822 M11.867 8.022 C 11.693 8.050,11.474 8.180,11.369 8.317 C 11.062 8.720,11.207 9.295,11.675 9.525 C 11.799 9.586,11.809 9.587,12.800 9.587 C 13.791 9.587,13.801 9.586,13.925 9.525 C 14.525 9.230,14.553 8.418,13.975 8.110 L 13.811 8.022 12.899 8.013 C 12.397 8.007,11.933 8.012,11.867 8.022 " fill="#1A1C1F" stroke="none" fill-rule="evenodd"></path></svg>