<svg width="32" height="32" viewBox="0 0 32 32" fill="none" xmlns="http://www.w3.org/2000/svg"><path d="M13.120 2.076 C 12.648 2.102,12.532 2.126,12.386 2.231 C 12.054 2.467,11.924 2.932,12.077 3.332 C 12.176 3.592,12.455 3.869,12.681 3.933 C 12.761 3.955,16.536 3.973,21.071 3.973 L 29.314 3.973 29.536 3.827 C 29.768 3.673,29.872 3.517,29.962 3.189 C 30.044 2.894,29.946 2.588,29.685 2.319 L 29.467 2.095 28.645 2.061 C 27.654 2.020,13.915 2.034,13.120 2.076 M8.715 7.063 C 8.624 7.102,8.072 7.590,7.488 8.146 C 6.145 9.426,2.393 13.217,2.184 13.506 C 2.061 13.675,2.027 13.779,2.027 13.983 C 2.027 14.844,2.945 15.282,3.613 14.741 C 3.753 14.628,4.796 13.614,5.932 12.487 L 7.997 10.438 8.012 19.876 L 8.027 29.314 8.173 29.536 C 8.506 30.039,9.158 30.133,9.627 29.746 C 10.021 29.421,9.988 30.235,10.031 19.867 C 10.052 14.733,10.071 10.524,10.074 10.512 C 10.077 10.500,11.075 11.478,12.291 12.686 C 13.508 13.893,14.565 14.905,14.641 14.934 C 15.273 15.174,16.000 14.638,16.000 13.933 C 16.000 13.826,15.917 13.658,15.754 13.433 C 15.412 12.961,9.648 7.214,9.427 7.124 C 9.139 7.007,8.892 6.986,8.715 7.063 M17.875 7.037 C 16.954 7.185,16.713 8.290,17.485 8.826 L 17.716 8.987 23.485 8.987 C 29.915 8.987,29.398 9.017,29.749 8.617 C 29.934 8.407,30.001 8.154,29.957 7.828 C 29.922 7.567,29.796 7.385,29.515 7.187 L 29.307 7.041 23.733 7.016 C 20.668 7.002,18.032 7.012,17.875 7.037 M22.876 12.046 C 22.315 12.110,21.983 12.537,22.039 13.123 C 22.069 13.437,22.184 13.615,22.503 13.840 L 22.729 14.000 26.000 14.000 L 29.271 14.000 29.497 13.840 C 29.826 13.607,29.934 13.435,29.962 13.099 C 29.994 12.714,29.834 12.371,29.531 12.170 L 29.315 12.027 26.244 12.019 C 24.555 12.015,23.039 12.027,22.876 12.046 M26.769 17.061 C 26.334 17.151,26.027 17.544,26.027 18.011 C 26.027 18.343,26.158 18.595,26.444 18.812 L 26.675 18.987 28.000 18.987 L 29.325 18.987 29.550 18.813 C 29.835 18.594,29.974 18.336,29.972 18.027 C 29.970 17.679,29.811 17.368,29.542 17.190 L 29.315 17.040 28.137 17.031 C 27.490 17.025,26.874 17.039,26.769 17.061 " fill="#1A1C1F" stroke="none" fill-rule="evenodd"></path></svg>