<svg width="28" height="28" viewBox="0 0 28 28" fill="none" xmlns="http://www.w3.org/2000/svg"><path d="M10.959 1.868 C 10.629 2.042,10.462 2.387,10.521 2.777 C 10.562 3.051,10.845 3.381,11.100 3.452 C 11.211 3.483,13.742 3.499,18.410 3.499 C 25.283 3.498,25.557 3.495,25.742 3.411 C 25.848 3.363,25.988 3.253,26.054 3.166 C 26.170 3.014,26.283 2.659,26.250 2.549 C 26.242 2.520,26.222 2.439,26.207 2.369 C 26.172 2.213,25.933 1.933,25.755 1.841 C 25.643 1.783,24.617 1.774,18.377 1.775 C 11.305 1.777,11.126 1.780,10.959 1.868 M7.770 6.135 C 7.744 6.144,7.660 6.165,7.583 6.182 C 7.388 6.224,1.890 11.710,1.815 11.938 C 1.664 12.396,1.884 12.906,2.301 13.064 C 2.494 13.136,2.829 13.124,3.001 13.039 C 3.083 12.998,4.016 12.100,5.075 11.044 L 7.000 9.124 7.001 17.337 C 7.002 25.222,7.005 25.557,7.088 25.737 C 7.136 25.839,7.229 25.973,7.295 26.035 C 7.415 26.145,7.837 26.285,7.947 26.252 C 7.978 26.242,8.061 26.222,8.131 26.207 C 8.289 26.172,8.565 25.934,8.671 25.741 C 8.744 25.607,8.752 24.996,8.773 17.371 L 8.797 9.146 10.710 11.064 C 11.783 12.140,12.689 13.011,12.774 13.048 C 13.300 13.277,13.924 12.918,13.988 12.350 C 14.037 11.914,14.100 11.988,11.161 9.042 C 9.657 7.534,8.362 6.271,8.285 6.234 C 8.132 6.163,7.846 6.107,7.770 6.135 M15.657 6.136 C 15.631 6.145,15.553 6.164,15.483 6.180 C 15.412 6.195,15.278 6.276,15.184 6.358 C 14.695 6.788,14.816 7.517,15.423 7.798 C 15.601 7.881,15.841 7.885,20.538 7.886 C 24.187 7.886,25.507 7.872,25.625 7.832 C 26.350 7.582,26.459 6.644,25.807 6.260 L 25.597 6.137 20.650 6.128 C 17.929 6.123,15.682 6.127,15.657 6.136 M19.763 10.588 C 19.661 10.636,19.527 10.729,19.465 10.795 C 19.355 10.915,19.215 11.337,19.248 11.447 C 19.258 11.478,19.278 11.561,19.293 11.631 C 19.328 11.789,19.566 12.065,19.759 12.171 C 19.889 12.242,20.167 12.251,22.587 12.265 C 24.495 12.276,25.342 12.264,25.518 12.226 C 25.770 12.171,26.039 11.983,26.142 11.790 C 26.372 11.360,26.182 10.789,25.742 10.589 C 25.561 10.507,25.385 10.502,22.750 10.502 C 20.126 10.502,19.938 10.507,19.763 10.588 M23.240 14.978 C 22.880 15.169,22.697 15.551,22.783 15.934 C 22.837 16.176,22.916 16.295,23.130 16.459 L 23.303 16.590 24.500 16.590 L 25.697 16.590 25.870 16.459 C 26.189 16.215,26.300 15.905,26.203 15.525 C 26.139 15.273,26.000 15.103,25.750 14.975 C 25.594 14.895,25.469 14.887,24.490 14.889 C 23.523 14.891,23.385 14.900,23.240 14.978 " fill="#1A1C1F" stroke="none" fill-rule="evenodd"></path></svg>