<svg xmlns="http://www.w3.org/2000/svg" width="12" height="12" fill="none"><g clip-path="url(#a)"><path fill="#1A1C1F" fill-rule="evenodd" d="m4.976 7.975-.776.776V4.2a.6.6 0 0 0-1.2 0V8.75l-.776-.776a.6.6 0 1 0-.848.849l1.8 1.8a.6.6 0 0 0 .848 0l1.8-1.8a.6.6 0 1 0-.848-.849M10.2 2.4H5.4a.6.6 0 0 1 0-1.2h4.8a.6.6 0 0 1 0 1.2m0 2.4h-3a.6.6 0 0 1 0-1.2h3a.6.6 0 0 1 0 1.2m0 2.4H9A.6.6 0 1 1 9 6h1.2a.6.6 0 0 1 0 1.2" clip-rule="evenodd"/></g><defs><clipPath id="a"><path fill="#fff" d="M0 0h12v12H0z"/></clipPath></defs></svg>