<svg width="14" height="14" viewBox="0 0 14 14" fill="none" xmlns="http://www.w3.org/2000/svg"><path d="M6.074 1.443 C 5.858 1.518,5.715 1.663,5.636 1.887 C 5.518 2.222,5.711 2.623,6.051 2.750 L 6.185 2.800 9.100 2.800 L 12.015 2.800 12.149 2.750 C 12.235 2.718,12.321 2.662,12.391 2.591 C 12.729 2.253,12.636 1.687,12.209 1.477 L 12.075 1.412 9.135 1.406 C 6.360 1.401,6.188 1.404,6.074 1.443 M3.998 4.232 C 3.944 4.250,3.865 4.286,3.823 4.312 C 3.780 4.339,3.240 4.868,2.622 5.488 C 1.568 6.545,1.496 6.623,1.449 6.750 C 1.352 7.017,1.411 7.294,1.609 7.491 C 1.807 7.689,2.084 7.748,2.350 7.650 C 2.471 7.605,2.537 7.548,2.993 7.097 L 3.500 6.594 3.500 9.304 L 3.500 12.015 3.550 12.149 C 3.647 12.408,3.923 12.600,4.200 12.600 C 4.477 12.600,4.753 12.408,4.850 12.149 L 4.900 12.015 4.900 9.304 L 4.900 6.594 5.408 7.097 C 5.863 7.548,5.929 7.605,6.050 7.650 C 6.316 7.748,6.593 7.689,6.791 7.491 C 6.989 7.294,7.048 7.017,6.951 6.750 C 6.904 6.623,6.832 6.545,5.766 5.477 C 4.863 4.570,4.607 4.326,4.509 4.278 C 4.361 4.205,4.140 4.186,3.998 4.232 M8.174 4.243 C 7.683 4.414,7.542 5.024,7.909 5.391 C 7.979 5.462,8.065 5.518,8.151 5.550 C 8.284 5.600,8.301 5.600,10.150 5.600 C 11.999 5.600,12.016 5.600,12.149 5.550 C 12.235 5.518,12.321 5.462,12.391 5.391 C 12.729 5.053,12.636 4.487,12.209 4.277 L 12.075 4.212 10.185 4.206 C 8.418 4.201,8.287 4.204,8.174 4.243 M10.274 7.043 C 9.783 7.215,9.642 7.824,10.009 8.191 C 10.079 8.262,10.165 8.318,10.251 8.350 C 10.379 8.398,10.424 8.400,11.200 8.400 C 11.976 8.400,12.021 8.398,12.149 8.350 C 12.235 8.318,12.321 8.262,12.391 8.191 C 12.729 7.853,12.636 7.287,12.209 7.077 L 12.075 7.012 11.235 7.006 C 10.475 7.001,10.383 7.004,10.274 7.043 " fill="#1A1C1F" stroke="none" fill-rule="evenodd"></path></svg>