<svg xmlns="http://www.w3.org/2000/svg" width="20" height="20" fill="none"><g clip-path="url(#a)"><path fill="#1A1C1F" fill-rule="evenodd" d="M6.707 13.707a1 1 0 0 1-1.414 0l-3-3a1 1 0 1 1 1.414-1.414L5 10.586V3a1 1 0 0 1 2 0v7.586l1.293-1.293a.997.997 0 0 1 1.631.324 1 1 0 0 1-.217 1.09zM17 16H9a1 1 0 0 0 0 2h8a1 1 0 0 0 0-2m0-4h-5a1 1 0 1 0 0 2h5a1 1 0 0 0 0-2m0-4h-2a1 1 0 1 0 0 2h2a1 1 0 0 0 0-2" clip-rule="evenodd"/></g><defs><clipPath id="a"><path fill="#fff" d="M0 20h20V0H0z"/></clipPath></defs></svg>