<svg width="24" height="24" viewBox="0 0 24 24" fill="none" xmlns="http://www.w3.org/2000/svg"><path d="M10.664 2.063 C 9.977 2.314,9.783 3.185,10.298 3.700 C 10.619 4.021,10.216 4.000,16.000 4.000 C 21.783 4.000,21.381 4.021,21.701 3.701 C 22.092 3.310,22.092 2.690,21.701 2.299 C 21.381 1.979,21.786 2.000,15.983 2.003 C 11.607 2.005,10.796 2.014,10.664 2.063 M6.640 6.068 C 6.486 6.121,6.152 6.437,4.329 8.255 C 2.813 9.766,2.173 10.431,2.112 10.556 C 1.923 10.948,1.996 11.398,2.298 11.700 C 2.577 11.980,2.954 12.064,3.343 11.934 C 3.517 11.877,3.685 11.724,4.770 10.646 L 6.000 9.423 6.000 15.286 C 6.000 20.430,6.007 21.171,6.061 21.322 C 6.307 22.021,7.179 22.223,7.700 21.702 C 8.023 21.379,8.000 21.870,8.000 15.284 L 8.000 9.422 9.210 10.626 C 9.876 11.289,10.481 11.862,10.555 11.899 C 10.628 11.936,10.784 11.976,10.899 11.988 C 11.674 12.068,12.230 11.263,11.888 10.556 C 11.827 10.431,11.187 9.766,9.671 8.255 C 7.747 6.336,7.521 6.124,7.343 6.065 C 7.102 5.986,6.878 5.986,6.640 6.068 M14.664 6.063 C 13.977 6.314,13.783 7.185,14.298 7.700 C 14.611 8.013,14.454 8.000,18.000 8.000 C 21.544 8.000,21.390 8.013,21.701 7.701 C 22.092 7.310,22.092 6.690,21.701 6.299 C 21.389 5.987,21.547 6.000,17.983 6.003 C 15.342 6.005,14.794 6.015,14.664 6.063 M18.664 10.063 C 17.977 10.314,17.783 11.185,18.298 11.700 C 18.580 11.982,18.683 12.000,20.000 12.000 C 21.316 12.000,21.421 11.982,21.701 11.701 C 22.092 11.310,22.092 10.690,21.701 10.299 C 21.419 10.017,21.318 10.000,19.983 10.003 C 19.079 10.005,18.785 10.018,18.664 10.063 " fill="#1A1C1F" stroke="none" fill-rule="evenodd"></path></svg>