<svg xmlns="http://www.w3.org/2000/svg" width="24" height="24" fill="none"><g clip-path="url(#a)"><path fill="#1A1C1F" fill-rule="evenodd" d="M21 20H11a1 1 0 1 0 0 2h10a1 1 0 0 0 0-2m0-4h-6a1 1 0 1 0 0 2h6a1 1 0 0 0 0-2m0-4h-2a1 1 0 1 0 0 2h2a1 1 0 0 0 0-2m-9.293 1.707-4 4a1 1 0 0 1-1.414 0l-4-4a1 1 0 1 1 1.414-1.414L6 14.586V3a1 1 0 0 1 2 0v11.586l2.293-2.293a.997.997 0 0 1 1.631.324 1 1 0 0 1-.217 1.09" clip-rule="evenodd"/></g><defs><clipPath id="a"><path fill="#fff" d="M0 24h24V0H0z"/></clipPath></defs></svg>