<svg xmlns="http://www.w3.org/2000/svg" width="14" height="14" fill="none"><g clip-path="url(#a)"><path fill="#1A1C1F" fill-rule="evenodd" d="M4.695 9.595a.7.7 0 0 1-.99 0l-2.1-2.1a.7.7 0 0 1 .99-.99l.905.905V2.1a.7.7 0 1 1 1.4 0v5.31l.905-.905A.698.698 0 0 1 7 7a.7.7 0 0 1-.205.495zM11.9 11.2H6.3a.7.7 0 1 0 0 1.4h5.6a.7.7 0 0 0 0-1.4m0-2.8H8.4a.7.7 0 0 0 0 1.4h3.5a.7.7 0 1 0 0-1.4m0-2.8h-1.4a.7.7 0 0 0 0 1.4h1.4a.7.7 0 1 0 0-1.4" clip-rule="evenodd"/></g><defs><clipPath id="a"><path fill="#fff" d="M0 14h14V0H0z"/></clipPath></defs></svg>