<svg width="14" height="14" viewBox="0 0 14 14" fill="none" xmlns="http://www.w3.org/2000/svg"><path d="M6.312 1.420 C 6.110 1.433,6.061 1.445,5.950 1.507 C 5.448 1.790,5.513 2.549,6.057 2.752 C 6.186 2.800,6.202 2.800,9.131 2.794 L 12.075 2.788 12.185 2.734 C 12.325 2.665,12.464 2.526,12.533 2.386 C 12.607 2.234,12.609 1.972,12.538 1.817 C 12.474 1.678,12.337 1.541,12.194 1.474 L 12.082 1.421 9.313 1.412 C 7.791 1.408,6.440 1.411,6.312 1.420 M4.048 4.222 C 3.844 4.274,3.793 4.320,2.659 5.455 C 1.390 6.727,1.412 6.700,1.412 7.000 C 1.412 7.207,1.467 7.342,1.613 7.487 C 1.758 7.633,1.893 7.688,2.100 7.688 C 2.372 7.688,2.428 7.651,3.002 7.086 L 3.500 6.597 3.500 9.303 C 3.500 12.409,3.481 12.142,3.720 12.379 C 4.019 12.677,4.381 12.677,4.680 12.379 C 4.919 12.142,4.900 12.409,4.900 9.303 L 4.900 6.597 5.398 7.086 C 5.725 7.408,5.932 7.593,6.002 7.627 C 6.503 7.870,7.083 7.427,6.981 6.879 C 6.967 6.799,6.927 6.694,6.891 6.641 C 6.855 6.588,6.333 6.051,5.729 5.446 C 4.808 4.524,4.611 4.338,4.503 4.287 C 4.365 4.222,4.161 4.193,4.048 4.222 M8.353 4.220 C 7.626 4.290,7.459 5.211,8.115 5.534 L 8.225 5.588 10.150 5.588 L 12.075 5.588 12.185 5.534 C 12.325 5.465,12.464 5.326,12.533 5.186 C 12.607 5.034,12.609 4.772,12.538 4.617 C 12.474 4.478,12.337 4.341,12.194 4.273 L 12.081 4.221 10.305 4.212 C 9.328 4.207,8.450 4.211,8.353 4.220 M10.383 7.020 C 10.231 7.044,10.040 7.158,9.948 7.278 C 9.679 7.630,9.806 8.133,10.215 8.334 C 10.324 8.388,10.333 8.388,11.200 8.388 C 12.067 8.388,12.076 8.388,12.185 8.334 C 12.325 8.265,12.464 8.126,12.533 7.986 C 12.607 7.834,12.609 7.572,12.538 7.417 C 12.474 7.277,12.337 7.141,12.193 7.073 C 12.084 7.022,12.055 7.020,11.284 7.011 C 10.847 7.007,10.441 7.010,10.383 7.020 " fill="#1A1C1F" stroke="none" fill-rule="evenodd"></path></svg>