<svg xmlns="http://www.w3.org/2000/svg" width="32" height="32" fill="none"><g clip-path="url(#a)"><path fill="#1A1C1F" fill-rule="evenodd" d="M15.707 22.293a1 1 0 0 0-1.414 0L10 26.586V8a1 1 0 1 0-2 0v18.586l-4.293-4.293a1 1 0 0 0-1.414 1.413l6 6a1 1 0 0 0 1.414 0l6-6a1 1 0 0 0 0-1.413M29 4H13a1 1 0 0 1 0-2h16a1 1 0 1 1 0 2m0 5H18a1 1 0 0 1 0-2h11a1 1 0 1 1 0 2m0 5h-6a1 1 0 1 1 0-2h6a1 1 0 0 1 0 2m0 5h-2a1 1 0 1 1 0-2h2a1 1 0 0 1 0 2" clip-rule="evenodd"/></g><defs><clipPath id="a"><path fill="#fff" d="M0 0h32v32H0z"/></clipPath></defs></svg>