<svg xmlns="http://www.w3.org/2000/svg" width="16" height="16" fill="none"><g clip-path="url(#a)"><path fill="#1A1C1F" fill-rule="evenodd" d="M5.373 10.966a.8.8 0 0 1-1.13 0l-2.4-2.4a.8.8 0 1 1 1.13-1.132L4.006 8.47V2.4a.8.8 0 0 1 1.6 0v6.069l1.035-1.035A.798.798 0 0 1 8.007 8a.8.8 0 0 1-.235.566zm8.234 1.834h-6.4a.8.8 0 0 0 0 1.6h6.4a.8.8 0 1 0 0-1.6m0-3.2h-4a.8.8 0 0 0 0 1.6h4a.8.8 0 0 0 0-1.6m0-3.2h-1.6a.8.8 0 0 0 0 1.6h1.6a.8.8 0 1 0 0-1.6" clip-rule="evenodd"/></g><defs><clipPath id="a"><path fill="#fff" d="M0 16h16V0H0z"/></clipPath></defs></svg>