<svg width="12" height="12" viewBox="0 0 12 12" fill="none" xmlns="http://www.w3.org/2000/svg"><path d="M5.410 1.217 C 5.237 1.228,5.195 1.238,5.100 1.292 C 4.833 1.442,4.730 1.769,4.861 2.047 C 4.923 2.179,5.064 2.311,5.194 2.360 C 5.301 2.400,5.334 2.400,7.826 2.395 L 10.350 2.390 10.444 2.344 C 10.893 2.122,10.915 1.513,10.481 1.282 L 10.359 1.217 7.984 1.210 C 6.678 1.207,5.520 1.210,5.410 1.217 M3.480 3.619 C 3.301 3.656,3.264 3.688,2.279 4.676 C 1.192 5.765,1.212 5.741,1.211 6.000 C 1.210 6.178,1.257 6.292,1.382 6.418 C 1.507 6.542,1.622 6.590,1.800 6.590 C 2.033 6.590,2.081 6.558,2.573 6.074 L 3.000 5.655 3.000 7.974 C 3.000 10.636,2.984 10.407,3.188 10.611 C 3.445 10.866,3.757 10.866,4.010 10.611 C 4.217 10.403,4.200 10.634,4.200 7.972 L 4.200 5.654 4.625 6.073 C 5.117 6.557,5.166 6.590,5.400 6.590 C 5.578 6.590,5.693 6.542,5.818 6.418 C 5.943 6.292,5.990 6.178,5.989 6.000 C 5.988 5.741,6.007 5.764,4.932 4.688 C 4.122 3.879,3.953 3.718,3.860 3.675 C 3.739 3.619,3.589 3.597,3.480 3.619 M7.150 3.617 C 6.535 3.682,6.399 4.469,6.956 4.744 L 7.050 4.790 8.700 4.790 L 10.350 4.790 10.444 4.744 C 10.893 4.522,10.915 3.913,10.481 3.682 L 10.359 3.617 8.824 3.610 C 7.980 3.606,7.227 3.609,7.150 3.617 M8.910 6.017 C 8.773 6.036,8.609 6.131,8.527 6.238 C 8.296 6.540,8.405 6.971,8.756 7.144 C 8.849 7.190,8.857 7.190,9.600 7.190 C 10.343 7.190,10.351 7.190,10.444 7.144 C 10.893 6.922,10.915 6.313,10.481 6.082 L 10.359 6.017 9.684 6.010 C 9.313 6.006,8.965 6.009,8.910 6.017 " fill="#1A1C1F" stroke="none" fill-rule="evenodd"></path></svg>