<svg width="16" height="16" viewBox="0 0 16 16" fill="none" xmlns="http://www.w3.org/2000/svg"><path d="M6.942 1.649 C 6.695 1.735,6.531 1.901,6.441 2.157 C 6.306 2.539,6.527 2.997,6.916 3.143 L 7.069 3.200 10.400 3.200 L 13.731 3.200 13.884 3.143 C 13.983 3.106,14.081 3.042,14.161 2.961 C 14.548 2.575,14.442 1.928,13.953 1.688 L 13.800 1.613 10.440 1.607 C 7.269 1.602,7.072 1.604,6.942 1.649 M4.569 4.837 C 4.507 4.857,4.417 4.898,4.369 4.929 C 4.320 4.959,3.702 5.563,2.997 6.272 C 1.792 7.481,1.710 7.570,1.657 7.714 C 1.545 8.019,1.613 8.335,1.839 8.561 C 2.065 8.787,2.382 8.855,2.686 8.743 C 2.824 8.692,2.900 8.627,3.420 8.111 L 4.000 7.536 4.000 10.634 L 4.000 13.731 4.057 13.884 C 4.168 14.181,4.484 14.400,4.800 14.400 C 5.116 14.400,5.432 14.181,5.543 13.884 L 5.600 13.731 5.600 10.634 L 5.600 7.536 6.193 8.124 C 6.731 8.658,6.800 8.717,6.933 8.761 C 7.248 8.866,7.551 8.799,7.775 8.575 C 7.999 8.351,8.066 8.049,7.962 7.733 C 7.916 7.595,7.839 7.512,6.603 6.272 C 5.559 5.224,5.265 4.944,5.153 4.889 C 4.984 4.806,4.731 4.784,4.569 4.837 M9.342 4.849 C 8.781 5.044,8.619 5.742,9.039 6.161 C 9.119 6.242,9.217 6.306,9.316 6.343 C 9.467 6.400,9.486 6.400,11.600 6.400 C 13.714 6.400,13.733 6.400,13.884 6.343 C 13.983 6.306,14.081 6.242,14.161 6.161 C 14.548 5.775,14.442 5.128,13.953 4.888 L 13.800 4.813 11.640 4.807 C 9.621 4.802,9.471 4.804,9.342 4.849 M11.742 8.049 C 11.180 8.245,11.019 8.942,11.439 9.361 C 11.519 9.442,11.617 9.506,11.716 9.543 C 11.861 9.597,11.913 9.600,12.800 9.600 C 13.687 9.600,13.739 9.597,13.884 9.543 C 13.983 9.506,14.081 9.442,14.161 9.361 C 14.548 8.975,14.442 8.328,13.953 8.088 L 13.800 8.013 12.840 8.007 C 11.972 8.001,11.867 8.005,11.742 8.049 " fill="#1A1C1F" stroke="none" fill-rule="evenodd"></path></svg>