<svg xmlns="http://www.w3.org/2000/svg" width="28" height="28" fill="none"><g clip-path="url(#a)"><path fill="#1A1C1F" fill-rule="evenodd" d="M13.744 19.506a.874.874 0 0 0-1.237 0L8.75 23.263V7A.875.875 0 0 0 7 7v16.263l-3.756-3.757a.875.875 0 1 0-1.237 1.238l5.25 5.25a.874.874 0 0 0 1.237 0l5.25-5.25a.875.875 0 0 0 0-1.238M25.374 3.5h-14a.875.875 0 1 1 0-1.75h14a.875.875 0 0 1 0 1.75m0 4.375H15.75a.875.875 0 1 1 0-1.75h9.625a.875.875 0 0 1 0 1.75m0 4.375h-5.25a.875.875 0 1 1 0-1.75h5.25a.875.875 0 0 1 0 1.75m0 4.375h-1.75a.875.875 0 1 1 0-1.75h1.75a.875.875 0 0 1 0 1.75" clip-rule="evenodd"/></g><defs><clipPath id="a"><path fill="#fff" d="M0 0h28v28H0z"/></clipPath></defs></svg>