<svg xmlns="http://www.w3.org/2000/svg" width="32" height="32" fill="none"><path fill="#1A1C1F" fill-rule="evenodd" d="M12.525 2.134c-.378.2-.568.594-.501 1.04.047.313.371.691.662.772.127.035 3.019.053 8.354.053 7.855-.001 8.168-.005 8.38-.101.12-.055.281-.181.357-.28.132-.173.261-.58.223-.705a4 4 0 0 1-.05-.205c-.039-.178-.313-.499-.515-.604-.129-.067-1.301-.077-8.432-.075-8.083.002-8.288.005-8.478.105M8.88 7.011a2 2 0 0 1-.196.051c-.207.045-.471.288-.584.536-.094.206-.098.611-.099 9.602L8 26.586l-2.2-2.194c-1.21-1.207-2.277-2.233-2.371-2.28-.211-.106-.666-.111-.858-.01a1.4 1.4 0 0 0-.491.506c-.092.18-.082.596.021.812.049.103 1.467 1.56 3.246 3.335 2.919 2.911 3.178 3.155 3.4 3.209q.444.107.843-.171c.108-.075 1.558-1.499 3.221-3.165 2.085-2.087 3.05-3.09 3.106-3.226a1.02 1.02 0 0 0-.318-1.193c-.256-.195-.762-.245-1.044-.102-.1.051-1.159 1.066-2.354 2.257l-2.173 2.165-.014-9.385L10 7.76l-.141-.241a1.1 1.1 0 0 0-.347-.355c-.201-.113-.527-.191-.632-.153m9.013.001c-.029.01-.119.033-.199.051-.195.043-.52.335-.609.548a.98.98 0 0 0 .266 1.121c.107.093.284.196.395.228.141.041 1.881.054 5.854.043 5.616-.016 5.655-.017 5.867-.128.129-.068.273-.208.366-.357a.96.96 0 0 0-.339-1.363l-.241-.142-5.653-.009c-3.109-.006-5.677-.002-5.707.008m4.694 5.089a.89.89 0 0 0-.537.638 1 1 0 0 0 .073.735c.088.165.418.439.585.485.19.053 6.394.053 6.584 0 .167-.046.497-.32.585-.485.263-.491.045-1.144-.457-1.372-.207-.094-.408-.1-3.42-.1-2.998 0-3.213.007-3.413.099m3.973 5.016c-.412.219-.62.656-.522 1.094.061.276.152.412.397.599l.197.15h2.736l.197-.15q.547-.416.381-1.067c-.073-.289-.232-.482-.517-.628-.178-.092-.321-.101-1.44-.099-1.106.002-1.263.013-1.429.101"/></svg>