<svg xmlns="http://www.w3.org/2000/svg" width="32" height="32" fill="none"><g clip-path="url(#a)"><path fill="#1A1C1F" fill-rule="evenodd" d="m15.707 18.707-6 6a1 1 0 0 1-1.414 0l-6-6a1 1 0 1 1 1.414-1.414L8 21.586V3a1 1 0 0 1 2 0v18.586l4.293-4.293a.997.997 0 0 1 1.631.324 1 1 0 0 1-.217 1.09M29 28H13a1 1 0 0 0 0 2h16a1 1 0 0 0 0-2m0-5H18a1 1 0 0 0 0 2h11a1 1 0 0 0 0-2m0-5h-6a1 1 0 0 0 0 2h6a1 1 0 0 0 0-2m0-5h-2a1 1 0 0 0 0 2h2a1 1 0 0 0 0-2" clip-rule="evenodd"/></g><defs><clipPath id="a"><path fill="#fff" d="M0 32h32V0H0z"/></clipPath></defs></svg>