<svg width="28" height="28" viewBox="0 0 28 28" fill="none" xmlns="http://www.w3.org/2000/svg"><path d="M11.480 1.817 C 11.067 1.839,10.966 1.861,10.838 1.952 C 10.547 2.159,10.433 2.565,10.567 2.915 C 10.654 3.143,10.898 3.386,11.096 3.441 C 11.166 3.461,14.469 3.477,18.437 3.477 L 25.650 3.477 25.844 3.349 C 26.047 3.214,26.138 3.077,26.217 2.791 C 26.288 2.532,26.203 2.265,25.974 2.030 L 25.783 1.833 25.064 1.803 C 24.197 1.767,12.175 1.779,11.480 1.817 M7.668 6.167 C 7.569 6.194,7.203 6.509,6.571 7.110 C 5.376 8.248,2.100 11.556,1.913 11.814 C 1.746 12.045,1.727 12.333,1.862 12.623 C 2.059 13.051,2.521 13.231,2.954 13.050 C 3.041 13.014,3.930 12.172,5.051 11.063 L 6.998 9.139 7.011 17.368 C 7.023 25.309,7.026 25.603,7.111 25.773 C 7.222 25.997,7.375 26.116,7.655 26.200 C 7.936 26.283,8.180 26.229,8.424 26.028 C 8.769 25.743,8.740 26.456,8.777 17.383 C 8.795 12.892,8.813 9.208,8.815 9.197 C 8.818 9.186,9.667 10.019,10.701 11.048 C 11.736 12.076,12.655 12.962,12.743 13.015 C 13.263 13.333,14.001 12.853,14.000 12.198 C 14.000 11.999,13.883 11.838,13.242 11.148 C 12.276 10.110,8.393 6.292,8.240 6.230 C 8.022 6.142,7.832 6.121,7.668 6.167 M15.669 6.156 C 14.879 6.269,14.611 7.202,15.232 7.676 C 15.337 7.757,15.493 7.814,15.688 7.844 C 15.873 7.873,17.788 7.885,20.790 7.877 C 26.144 7.862,25.725 7.889,26.031 7.540 C 26.192 7.356,26.251 7.134,26.212 6.849 C 26.182 6.621,26.072 6.462,25.826 6.288 L 25.643 6.160 20.790 6.139 C 18.121 6.127,15.816 6.135,15.669 6.156 M20.020 10.540 C 19.609 10.588,19.401 10.780,19.280 11.221 C 19.215 11.455,19.280 11.690,19.471 11.922 C 19.756 12.268,19.577 12.250,22.727 12.250 C 25.528 12.250,25.551 12.249,25.737 12.150 C 25.839 12.094,25.969 12.000,26.025 11.940 C 26.357 11.583,26.263 10.929,25.839 10.649 L 25.650 10.523 22.963 10.517 C 21.486 10.513,20.161 10.524,20.020 10.540 M23.423 14.928 C 23.042 15.007,22.773 15.351,22.773 15.760 C 22.774 16.051,22.888 16.271,23.139 16.460 L 23.341 16.613 24.500 16.613 L 25.659 16.613 25.857 16.462 C 26.106 16.270,26.227 16.044,26.226 15.774 C 26.224 15.469,26.084 15.197,25.849 15.041 L 25.650 14.910 24.620 14.902 C 24.054 14.897,23.515 14.909,23.423 14.928 " fill="#1A1C1F" stroke="none" fill-rule="evenodd"></path></svg>