<svg width="20" height="20" viewBox="0 0 20 20" fill="none" xmlns="http://www.w3.org/2000/svg"><path d="M9.017 2.028 C 8.729 2.047,8.658 2.064,8.500 2.153 C 8.055 2.404,7.883 2.948,8.102 3.413 C 8.208 3.638,8.431 3.849,8.653 3.931 C 8.837 4.000,8.856 4.001,13.044 3.992 L 17.250 3.983 17.406 3.906 C 18.155 3.538,18.192 2.522,17.471 2.138 L 17.269 2.031 13.309 2.018 C 11.132 2.011,9.200 2.016,9.017 2.028 M5.783 6.030 C 5.509 6.098,5.397 6.199,3.832 7.764 C 2.961 8.636,2.207 9.412,2.156 9.487 C 2.029 9.676,1.977 9.976,2.029 10.212 C 2.136 10.689,2.630 11.045,3.108 10.989 C 3.413 10.953,3.540 10.859,4.289 10.123 L 5.000 9.424 5.000 13.290 C 5.000 17.727,4.973 17.345,5.314 17.685 C 5.741 18.110,6.259 18.110,6.686 17.685 C 7.027 17.345,7.000 17.727,7.000 13.289 L 7.000 9.423 7.709 10.122 C 8.456 10.858,8.585 10.952,8.892 10.989 C 9.370 11.045,9.864 10.689,9.971 10.212 C 10.023 9.976,9.971 9.676,9.844 9.487 C 9.793 9.412,9.047 8.644,8.184 7.780 C 6.869 6.463,6.587 6.197,6.433 6.125 C 6.236 6.032,5.945 5.990,5.783 6.030 M11.933 6.028 C 10.896 6.120,10.657 7.445,11.594 7.906 L 11.750 7.983 14.500 7.983 L 17.250 7.983 17.406 7.906 C 18.155 7.538,18.192 6.522,17.471 6.138 L 17.269 6.031 14.726 6.018 C 13.328 6.011,12.071 6.016,11.933 6.028 M14.833 10.028 C 14.616 10.063,14.342 10.225,14.212 10.397 C 13.827 10.900,14.009 11.618,14.594 11.906 C 14.749 11.983,14.761 11.983,16.000 11.983 C 17.239 11.983,17.251 11.983,17.406 11.906 C 18.155 11.538,18.192 10.522,17.471 10.138 L 17.268 10.030 16.126 10.017 C 15.497 10.010,14.916 10.015,14.833 10.028 " fill="#1A1C1F" stroke="none" fill-rule="evenodd"></path></svg>