<svg width="28" height="28" viewBox="0 0 28 28" fill="none" xmlns="http://www.w3.org/2000/svg"><path d="M11.480 1.817 C 11.067 1.839,10.966 1.861,10.838 1.952 C 10.547 2.159,10.433 2.565,10.567 2.915 C 10.654 3.143,10.898 3.386,11.096 3.441 C 11.166 3.461,14.469 3.477,18.437 3.477 L 25.650 3.477 25.844 3.349 C 26.047 3.214,26.138 3.077,26.217 2.791 C 26.288 2.532,26.203 2.265,25.974 2.030 L 25.783 1.833 25.064 1.803 C 24.197 1.767,12.175 1.779,11.480 1.817 M7.655 6.169 C 7.432 6.232,7.260 6.363,7.132 6.569 L 7.023 6.743 7.010 14.996 L 6.997 23.248 5.040 21.311 C 3.574 19.861,3.040 19.361,2.912 19.319 C 2.523 19.190,2.079 19.356,1.863 19.710 C 1.738 19.914,1.742 20.318,1.870 20.529 C 1.994 20.732,7.142 25.886,7.415 26.081 C 7.658 26.253,7.975 26.278,8.253 26.146 C 8.438 26.058,11.738 22.813,13.118 21.362 C 14.029 20.403,14.067 20.338,13.959 19.933 C 13.848 19.521,13.623 19.332,13.186 19.287 C 13.008 19.269,12.895 19.284,12.768 19.344 C 12.665 19.393,11.817 20.195,10.684 21.315 L 8.773 23.204 8.773 15.030 C 8.773 7.079,8.771 6.852,8.684 6.683 C 8.480 6.287,8.033 6.063,7.655 6.169 M15.669 6.156 C 14.879 6.269,14.611 7.202,15.232 7.676 C 15.337 7.757,15.493 7.814,15.688 7.844 C 15.873 7.873,17.788 7.885,20.790 7.877 C 26.144 7.862,25.725 7.889,26.031 7.540 C 26.192 7.356,26.251 7.134,26.212 6.849 C 26.182 6.621,26.072 6.462,25.826 6.288 L 25.643 6.160 20.790 6.139 C 18.121 6.127,15.816 6.135,15.669 6.156 M20.020 10.540 C 19.609 10.588,19.401 10.780,19.280 11.221 C 19.215 11.455,19.280 11.690,19.471 11.922 C 19.756 12.268,19.577 12.250,22.727 12.250 C 25.528 12.250,25.551 12.249,25.737 12.150 C 25.839 12.094,25.969 12.000,26.025 11.940 C 26.357 11.583,26.263 10.929,25.839 10.649 L 25.650 10.523 22.963 10.517 C 21.486 10.513,20.161 10.524,20.020 10.540 M23.423 14.928 C 23.042 15.007,22.773 15.351,22.773 15.760 C 22.774 16.051,22.888 16.271,23.139 16.460 L 23.341 16.613 24.500 16.613 L 25.659 16.613 25.857 16.462 C 26.106 16.270,26.227 16.044,26.226 15.774 C 26.224 15.469,26.084 15.197,25.849 15.041 L 25.650 14.910 24.620 14.902 C 24.054 14.897,23.515 14.909,23.423 14.928 " fill="#1A1C1F" stroke="none" fill-rule="evenodd"></path></svg>