<svg width="14" height="14" viewBox="0 0 14 14" fill="none" xmlns="http://www.w3.org/2000/svg"><path d="M6.312 1.420 C 6.110 1.433,6.061 1.445,5.950 1.507 C 5.448 1.790,5.513 2.549,6.057 2.752 C 6.186 2.800,6.202 2.800,9.131 2.794 L 12.075 2.788 12.185 2.734 C 12.325 2.665,12.464 2.526,12.533 2.386 C 12.607 2.234,12.609 1.972,12.538 1.817 C 12.474 1.678,12.337 1.541,12.194 1.474 L 12.082 1.421 9.313 1.412 C 7.791 1.408,6.440 1.411,6.312 1.420 M4.048 4.220 C 3.836 4.276,3.667 4.409,3.577 4.591 L 3.512 4.725 3.505 7.463 L 3.499 10.202 3.023 9.735 C 2.451 9.171,2.380 9.124,2.110 9.124 C 1.945 9.123,1.902 9.133,1.777 9.195 C 1.445 9.361,1.310 9.762,1.473 10.098 C 1.511 10.176,1.779 10.462,2.437 11.127 C 3.403 12.102,3.798 12.476,3.939 12.545 C 3.999 12.576,4.077 12.588,4.200 12.588 C 4.492 12.588,4.493 12.587,5.527 11.563 C 6.503 10.596,6.876 10.201,6.945 10.061 C 7.007 9.936,7.003 9.660,6.938 9.516 C 6.876 9.383,6.731 9.238,6.592 9.172 C 6.512 9.135,6.442 9.123,6.294 9.124 C 6.020 9.124,5.951 9.170,5.377 9.735 L 4.901 10.202 4.895 7.463 C 4.889 4.879,4.886 4.720,4.846 4.635 C 4.783 4.500,4.610 4.328,4.482 4.273 C 4.354 4.218,4.152 4.193,4.048 4.220 M8.353 4.220 C 7.626 4.290,7.459 5.211,8.115 5.534 L 8.225 5.588 10.150 5.588 L 12.075 5.588 12.185 5.534 C 12.325 5.465,12.464 5.326,12.533 5.186 C 12.607 5.034,12.609 4.772,12.538 4.617 C 12.474 4.478,12.337 4.341,12.194 4.273 L 12.081 4.221 10.305 4.212 C 9.328 4.207,8.450 4.211,8.353 4.220 M10.383 7.020 C 10.231 7.044,10.040 7.158,9.948 7.278 C 9.679 7.630,9.806 8.133,10.215 8.334 C 10.324 8.388,10.333 8.388,11.200 8.388 C 12.067 8.388,12.076 8.388,12.185 8.334 C 12.325 8.265,12.464 8.126,12.533 7.986 C 12.607 7.834,12.609 7.572,12.538 7.417 C 12.474 7.277,12.337 7.141,12.193 7.073 C 12.084 7.022,12.055 7.020,11.284 7.011 C 10.847 7.007,10.441 7.010,10.383 7.020 " fill="#1A1C1F" stroke="none" fill-rule="evenodd"></path></svg>