<svg width="12" height="12" viewBox="0 0 12 12" fill="none" xmlns="http://www.w3.org/2000/svg"><path d="M5.410 1.217 C 5.237 1.228,5.195 1.238,5.100 1.292 C 4.833 1.442,4.730 1.769,4.861 2.047 C 4.923 2.179,5.064 2.311,5.194 2.360 C 5.301 2.400,5.334 2.400,7.826 2.395 L 10.350 2.390 10.444 2.344 C 10.893 2.122,10.915 1.513,10.481 1.282 L 10.359 1.217 7.984 1.210 C 6.678 1.207,5.520 1.210,5.410 1.217 M3.470 3.618 C 3.290 3.665,3.142 3.781,3.066 3.936 L 3.010 4.050 3.004 6.397 L 2.999 8.744 2.591 8.344 C 2.101 7.861,2.040 7.820,1.808 7.820 C 1.667 7.820,1.631 7.828,1.523 7.882 C 1.239 8.024,1.123 8.367,1.262 8.655 C 1.295 8.723,1.525 8.968,2.089 9.537 C 2.923 10.379,3.258 10.695,3.376 10.752 C 3.482 10.802,3.634 10.810,3.765 10.772 C 3.860 10.745,3.911 10.707,4.133 10.503 C 4.501 10.162,5.778 8.870,5.874 8.740 C 5.978 8.600,6.008 8.504,5.995 8.360 C 5.975 8.140,5.859 7.971,5.660 7.870 C 5.578 7.829,5.533 7.820,5.396 7.820 C 5.160 7.820,5.101 7.859,4.609 8.344 L 4.201 8.745 4.196 6.397 L 4.190 4.050 4.145 3.959 C 4.083 3.835,3.969 3.723,3.850 3.668 C 3.739 3.617,3.562 3.593,3.470 3.618 M7.150 3.617 C 6.535 3.682,6.399 4.469,6.956 4.744 L 7.050 4.790 8.700 4.790 L 10.350 4.790 10.444 4.744 C 10.893 4.522,10.915 3.913,10.481 3.682 L 10.359 3.617 8.824 3.610 C 7.980 3.606,7.227 3.609,7.150 3.617 M8.910 6.017 C 8.773 6.036,8.609 6.131,8.527 6.238 C 8.296 6.540,8.405 6.971,8.756 7.144 C 8.849 7.190,8.857 7.190,9.600 7.190 C 10.343 7.190,10.351 7.190,10.444 7.144 C 10.893 6.922,10.915 6.313,10.481 6.082 L 10.359 6.017 9.684 6.010 C 9.313 6.006,8.965 6.009,8.910 6.017 " fill="#1A1C1F" stroke="none" fill-rule="evenodd"></path></svg>