<svg xmlns="http://www.w3.org/2000/svg" width="12" height="12" fill="none"><g clip-path="url(#a)"><path fill="#1A1C1F" fill-rule="evenodd" d="M4.024 8.224a.6.6 0 0 1-.848 0l-1.8-1.8a.6.6 0 1 1 .848-.848L3 6.35V1.8a.6.6 0 0 1 1.2 0v4.551l.776-.775A.598.598 0 0 1 6 6a.6.6 0 0 1-.176.424zM10.2 9.6H5.4a.6.6 0 1 0 0 1.2h4.8a.6.6 0 0 0 0-1.2m0-2.4h-3a.6.6 0 0 0 0 1.2h3a.6.6 0 0 0 0-1.2m0-2.4H9A.6.6 0 1 0 9 6h1.2a.6.6 0 0 0 0-1.2" clip-rule="evenodd"/></g><defs><clipPath id="a"><path fill="#fff" d="M0 12h12V0H0z"/></clipPath></defs></svg>