<svg xmlns="http://www.w3.org/2000/svg" width="20" height="20" fill="none"><g clip-path="url(#a)"><path fill="#282D37" fill-rule="evenodd" d="m5.281 2.281-3 3a1.1 1.1 0 0 0-.28.719c0 .25.093.5.28.719l3 3c.22.187.47.281.72.281C6.562 10 7 9.563 7 9a.97.97 0 0 0-.281-.687L5.406 7H11c.563 0 1-.437 1-1s-.437-1-1-1H5.406L6.72 3.719A1.1 1.1 0 0 0 7 3c0-.562-.437-1-1-1-.25 0-.5.094-.719.281M14.001 10c-.595 0-1 .469-1 1 0 .25.093.5.28.719L14.594 13H9c-.562 0-1 .438-1 1 0 .531.438 1 1 1h5.594L13.28 16.28a1.1 1.1 0 0 0-.28.719c0 .562.405 1 1 1 .25 0 .5-.094.718-.281l3-3c.187-.22.281-.47.281-.72s-.094-.5-.281-.718l-3-3A1.1 1.1 0 0 0 14 10" clip-rule="evenodd"/></g><defs><clipPath id="a"><path fill="#fff" d="M0 0h20v20H0z"/></clipPath></defs></svg>