<svg xmlns="http://www.w3.org/2000/svg" width="20" height="20" fill="none"><g clip-path="url(#a)"><path fill="#282D37" fill-rule="evenodd" d="m13.281 2.281-3 3.032a.97.97 0 0 0-.28.69A.97.97 0 0 0 11 7c.257 0 .515-.094.718-.281L13 5.406V11c0 .563.438 1 1 1s1-.437 1-1V5.406l1.313 1.313A.97.97 0 0 0 17 7c.588 0 1-.44 1-.996a.97.97 0 0 0-.281-.691l-3-3.032A1.1 1.1 0 0 0 14 2c-.25 0-.5.094-.719.281M5.001 9v5.594L3.687 13.28A.97.97 0 0 0 2.996 13 .97.97 0 0 0 2 14c0 .258.094.516.281.719l3 3c.22.187.47.281.72.281s.5-.094.718-.281l3-3c.187-.203.281-.461.281-.719 0-.59-.438-1-1-1-.258 0-.515.094-.719.281l-1.28 1.313V9c0-.531-.438-1-1-1s-1 .469-1 1" clip-rule="evenodd"/></g><defs><clipPath id="a"><path fill="#fff" d="M0 0h20v20H0z"/></clipPath></defs></svg>