<svg xmlns="http://www.w3.org/2000/svg" width="24" height="24" fill="none"><g clip-path="url(#a)"><path fill="#282D37" fill-rule="evenodd" d="M7 22c.25 0 .5-.094.719-.281l4-4C11.906 17.5 12 17.25 12 17c0-.562-.469-1-1-1-.25 0-.5.094-.687.313L8 18.593V10c0-.562-.437-1-1-1s-1 .438-1 1v8.594l-2.312-2.282A.89.89 0 0 0 3 16c-.562 0-1 .469-1 1 0 .25.094.5.281.719l4 4c.22.187.47.281.72.281m10-7c.563 0 1-.437 1-1V5.406l2.313 2.313A.97.97 0 0 0 21 8c.594 0 1-.437 1-1a.97.97 0 0 0-.281-.687l-4-4.032A1.1 1.1 0 0 0 17 2a.97.97 0 0 0-.687.281L12.28 6.312a.97.97 0 0 0-.28.688c0 .594.437 1 1 1 .25 0 .5-.094.718-.281L16 5.406V14c0 .563.438 1 1 1" clip-rule="evenodd"/></g><defs><clipPath id="a"><path fill="#fff" d="M0 0h24v24H0z"/></clipPath></defs></svg>