<svg xmlns="http://www.w3.org/2000/svg" width="32" height="32" fill="none"><g clip-path="url(#a)"><path fill="#282D37" fill-rule="evenodd" d="m7.281 5.28-5 5a1.1 1.1 0 0 0-.28.718c0 .25.093.5.28.719l5 5c.204.187.461.281.72.281.589 0 1-.438 1-1 0-.258-.095-.516-.282-.719l-3.313-3.281H18c.563 0 1-.437 1-1s-.437-1-1-1H5.406L8.72 6.717c.187-.203.281-.461.281-.719 0-.6-.453-1-1-1-.25 0-.5.094-.719.281M24.72 15.282a1.1 1.1 0 0 0-.719-.281c-.546 0-1 .4-1 1 0 .258.094.516.281.719l3.313 3.281H14c-.562 0-1 .438-1 1s.438 1 1 1h12.594l-3.313 3.281a1.06 1.06 0 0 0-.28.719c0 .562.41 1 1 1 .257 0 .515-.094.718-.281l5-5c.187-.219.281-.469.281-.719s-.094-.5-.281-.719z" clip-rule="evenodd"/></g><defs><clipPath id="a"><path fill="#fff" d="M0 0h32v32H0z"/></clipPath></defs></svg>