<svg xmlns="http://www.w3.org/2000/svg" width="12" height="12" fill="none"><g clip-path="url(#a)"><path fill="#282D37" fill-rule="evenodd" d="m7.969 1.369-1.8 1.818A.58.58 0 0 0 6 3.602c0 .335.246.598.6.598.155 0 .31-.056.431-.169l.769-.787V6.6c0 .337.263.6.6.6.338 0 .6-.263.6-.6V3.244l.787.787a.58.58 0 0 0 .413.169c.353 0 .6-.264.6-.598a.58.58 0 0 0-.169-.415l-1.8-1.818A.66.66 0 0 0 8.4 1.2c-.15 0-.3.056-.431.169M3 5.399v3.357l-.788-.787a.58.58 0 0 0-.414-.17.58.58 0 0 0-.598.601c0 .155.056.31.169.431l1.8 1.8a.66.66 0 0 0 .431.169c.15 0 .3-.056.431-.169l1.8-1.8A.64.64 0 0 0 6 8.4c0-.354-.263-.6-.6-.6a.64.64 0 0 0-.431.169l-.769.787V5.4c0-.319-.263-.6-.6-.6s-.6.281-.6.6" clip-rule="evenodd"/></g><defs><clipPath id="a"><path fill="#fff" d="M0 0h12v12H0z"/></clipPath></defs></svg>