<svg xmlns="http://www.w3.org/2000/svg" width="12" height="12" fill="none"><g clip-path="url(#a)"><path fill="#282D37" fill-rule="evenodd" d="m3.169 1.369-1.8 1.8A.66.66 0 0 0 1.2 3.6c0 .15.056.3.169.431l1.8 1.8A.66.66 0 0 0 3.6 6c.337 0 .6-.262.6-.6 0-.15-.056-.3-.169-.412L3.244 4.2H6.6c.337 0 .6-.262.6-.6S6.937 3 6.6 3H3.244l.787-.769a.66.66 0 0 0 .169-.43c0-.338-.263-.6-.6-.6a.66.66 0 0 0-.431.168M8.399 6c-.355 0-.6.281-.6.6 0 .15.057.3.17.431l.787.769H5.4c-.338 0-.6.263-.6.6 0 .319.262.6.6.6h3.356l-.787.769a.66.66 0 0 0-.17.431c.001.338.245.6.6.6.15 0 .3-.056.432-.169l1.8-1.8A.66.66 0 0 0 10.8 8.4c0-.15-.056-.3-.169-.431l-1.8-1.8A.66.66 0 0 0 8.4 6" clip-rule="evenodd"/></g><defs><clipPath id="a"><path fill="#fff" d="M0 0h12v12H0z"/></clipPath></defs></svg>