<svg xmlns="http://www.w3.org/2000/svg" width="32" height="32" fill="none"><path fill="#282D37" fill-rule="evenodd" d="M7.573 5.098c-.244.105-5.3 5.143-5.448 5.43-.123.235-.144.56-.053.834.045.137.761.885 2.741 2.861 2.4 2.396 2.705 2.682 2.913 2.737a1 1 0 0 0 1.233-1.234c-.054-.205-.266-.439-1.802-1.979l-1.74-1.746 6.455-.014 6.456-.014.227-.15a1.002 1.002 0 0 0 .175-1.496c-.296-.317.076-.3-6.888-.3-3.521 0-6.402-.016-6.402-.035s.778-.805 1.728-1.747c1.613-1.598 1.733-1.729 1.796-1.973a1.09 1.09 0 0 0-.166-.888c-.231-.324-.818-.461-1.225-.286m16.294 9.926c-.289.054-.351.08-.51.214-.19.159-.368.501-.369.709-.003.431.043.488 1.855 2.305l1.74 1.746-6.456.014-6.455.015-.227.15c-.496.328-.582 1.064-.175 1.494.335.354-.198.328 6.883.343l6.42.015-1.735 1.719c-1.595 1.581-1.739 1.739-1.799 1.97-.217.838.573 1.519 1.376 1.187.225-.093 5.291-5.111 5.437-5.385.133-.251.167-.482.11-.758-.05-.246-.154-.358-2.7-2.912-1.457-1.462-2.709-2.688-2.782-2.726a1.23 1.23 0 0 0-.613-.1"/></svg>