<svg xmlns="http://www.w3.org/2000/svg" width="32" height="32" fill="none"><g clip-path="url(#a)"><path fill="#282D37" fill-rule="evenodd" d="M15.281 7.281a1.06 1.06 0 0 0-.28.719c0 .59.437 1 1 1 .257 0 .515-.094.718-.281L20 5.406V18c0 .563.438 1 1 1s1-.437 1-1V5.406l3.281 3.313c.22.187.47.281.72.281.452 0 1-.318 1-1 0-.258-.095-.516-.282-.719l-5-5A1.1 1.1 0 0 0 21 2c-.25 0-.5.094-.719.281zm-5.28 19.313L6.718 23.28A1.06 1.06 0 0 0 6 23c-.59 0-1 .438-1 1 0 .258.094.516.281.719l5 5c.22.187.47.281.72.281s.5-.094.718-.281l5-5c.187-.203.281-.461.281-.719 0-.59-.438-1-1-1-.258 0-.515.094-.719.281l-3.28 3.313V14c0-.562-.438-1-1-1s-1 .438-1 1z" clip-rule="evenodd"/></g><defs><clipPath id="a"><path fill="#fff" d="M0 0h32v32H0z"/></clipPath></defs></svg>