<svg xmlns="http://www.w3.org/2000/svg" width="28" height="28" fill="none"><g clip-path="url(#a)"><path fill="#282D37" fill-rule="evenodd" d="M6.371 4.62 1.996 8.993a.96.96 0 0 0-.246.63c0 .218.082.437.246.628l4.375 4.375a.93.93 0 0 0 .629.246.85.85 0 0 0 .875-.875.93.93 0 0 0-.246-.629L4.73 10.5h11.02a.864.864 0 0 0 .875-.876.864.864 0 0 0-.875-.875H4.73l2.899-2.87a.93.93 0 0 0 .246-.63A.853.853 0 0 0 7 4.373a.96.96 0 0 0-.629.246m15.258 8.753a.96.96 0 0 0-.629-.246.853.853 0 0 0-.875.875c0 .225.082.45.246.629l2.899 2.87H12.25a.864.864 0 0 0-.875.876c0 .492.383.875.875.875h11.02l-2.899 2.87a.93.93 0 0 0-.246.63c0 .491.36.875.875.875a.93.93 0 0 0 .629-.246l4.375-4.375a.96.96 0 0 0 .246-.63.96.96 0 0 0-.246-.628z" clip-rule="evenodd"/></g><defs><clipPath id="a"><path fill="#fff" d="M0 0h28v28H0z"/></clipPath></defs></svg>