<svg xmlns="http://www.w3.org/2000/svg" width="28" height="28" fill="none"><g clip-path="url(#a)"><path fill="#282D37" fill-rule="evenodd" d="M13.371 6.371a.93.93 0 0 0-.246.629.85.85 0 0 0 .875.875.93.93 0 0 0 .629-.246L17.5 4.73v11.02c0 .492.383.875.875.875a.864.864 0 0 0 .875-.875V4.73l2.871 2.899c.192.164.41.246.629.246.396 0 .875-.279.875-.875a.93.93 0 0 0-.246-.629l-4.375-4.375a.96.96 0 0 0-.629-.246.96.96 0 0 0-.629.246zM8.75 23.27 5.879 20.37a.93.93 0 0 0-.629-.246.85.85 0 0 0-.875.875c0 .226.082.451.246.629l4.375 4.375c.191.164.41.246.629.246a.97.97 0 0 0 .629-.246l4.375-4.375a.93.93 0 0 0 .246-.629.85.85 0 0 0-.875-.875.93.93 0 0 0-.629.246L10.5 23.27V12.25a.864.864 0 0 0-.875-.875.864.864 0 0 0-.875.875z" clip-rule="evenodd"/></g><defs><clipPath id="a"><path fill="#fff" d="M0 0h28v28H0z"/></clipPath></defs></svg>