<svg xmlns="http://www.w3.org/2000/svg" width="28" height="28" fill="none"><g clip-path="url(#a)"><path fill="#1A1C1F" fill-rule="evenodd" d="M7.26 13.464a.875.875 0 0 1-1.228 1.228l-3.656-3.656a.875.875 0 0 1 0-1.072l3.657-3.656a.875.875 0 0 1 1.072 0l.083.073.073.083a.875.875 0 0 1 0 1.072l-2.08 2.09h14.512a6.125 6.125 0 0 1 .21 12.245l-10.813.004a.875.875 0 0 1-.102-1.744l10.705-.006a4.375 4.375 0 0 0 .19-8.746l-14.702-.004z" clip-rule="evenodd"/></g><defs><clipPath id="a"><path fill="#fff" d="M0 0h28v28H0z"/></clipPath></defs></svg>