<svg width="14" height="14" viewBox="0 0 14 14" fill="none" xmlns="http://www.w3.org/2000/svg"><path d="M3.634 3.013 C 3.508 3.049,3.242 3.295,2.310 4.237 C 1.815 4.737,1.488 5.087,1.461 5.142 C 1.398 5.275,1.387 5.473,1.433 5.633 C 1.472 5.764,1.495 5.790,2.410 6.708 C 2.926 7.225,3.410 7.694,3.486 7.750 C 3.614 7.844,3.636 7.852,3.794 7.860 C 4.032 7.872,4.177 7.820,4.330 7.667 C 4.474 7.523,4.531 7.373,4.530 7.149 C 4.528 6.921,4.473 6.832,4.109 6.456 L 3.792 6.130 6.802 6.143 C 9.739 6.156,9.815 6.157,9.944 6.203 C 10.404 6.365,10.789 6.693,10.989 7.092 C 11.141 7.394,11.165 7.503,11.163 7.887 C 11.161 8.183,11.153 8.247,11.101 8.406 C 10.921 8.953,10.451 9.405,9.893 9.568 C 9.719 9.619,9.706 9.619,6.918 9.635 L 4.118 9.651 4.017 9.704 C 3.747 9.844,3.583 10.154,3.637 10.421 C 3.651 10.492,3.681 10.588,3.703 10.635 C 3.763 10.762,3.927 10.915,4.075 10.983 L 4.204 11.042 7.020 11.030 C 10.111 11.016,9.939 11.024,10.406 10.870 C 11.134 10.631,11.747 10.152,12.151 9.508 C 12.310 9.255,12.491 8.780,12.555 8.447 C 12.602 8.206,12.596 7.518,12.546 7.283 C 12.405 6.627,12.152 6.147,11.710 5.699 C 11.438 5.424,11.166 5.225,10.838 5.063 C 10.478 4.885,10.256 4.813,9.971 4.782 C 9.833 4.768,8.572 4.751,6.798 4.741 C 5.179 4.732,3.846 4.717,3.837 4.708 C 3.827 4.699,3.956 4.550,4.123 4.379 C 4.478 4.013,4.538 3.912,4.537 3.687 C 4.537 3.497,4.500 3.390,4.389 3.249 C 4.263 3.089,4.094 3.004,3.887 2.996 C 3.796 2.992,3.682 3.000,3.634 3.013 " fill="#1A1C1F" stroke="none" fill-rule="evenodd"></path></svg>