<svg width="16" height="16" viewBox="0 0 16 16" fill="none" xmlns="http://www.w3.org/2000/svg"><path d="M4.139 3.447 C 4.091 3.462,3.911 3.603,3.739 3.760 C 3.223 4.231,1.773 5.714,1.690 5.856 C 1.623 5.971,1.613 6.013,1.613 6.200 C 1.613 6.388,1.623 6.429,1.691 6.547 C 1.785 6.707,3.814 8.748,4.013 8.883 C 4.131 8.962,4.171 8.974,4.351 8.982 C 4.528 8.991,4.576 8.983,4.718 8.919 C 5.016 8.785,5.184 8.527,5.186 8.200 C 5.187 7.930,5.127 7.829,4.700 7.386 L 4.338 7.010 7.736 7.021 C 10.243 7.030,11.172 7.041,11.280 7.065 C 11.621 7.139,12.101 7.439,12.330 7.720 C 12.974 8.510,12.939 9.605,12.246 10.376 C 11.996 10.654,11.543 10.903,11.173 10.964 C 11.093 10.977,9.605 10.998,7.867 11.010 C 4.888 11.030,4.701 11.034,4.613 11.079 C 4.371 11.205,4.242 11.363,4.170 11.624 C 4.128 11.773,4.128 11.797,4.168 11.959 C 4.238 12.241,4.403 12.438,4.673 12.561 C 4.783 12.611,4.882 12.612,7.979 12.613 C 11.091 12.613,11.177 12.612,11.406 12.559 C 12.983 12.196,13.993 11.203,14.336 9.679 C 14.399 9.404,14.398 8.606,14.335 8.312 C 14.062 7.033,13.167 6.021,11.929 5.591 C 11.771 5.536,11.554 5.484,11.409 5.467 C 11.242 5.446,10.033 5.431,7.753 5.421 C 5.880 5.413,4.347 5.400,4.347 5.393 C 4.347 5.385,4.512 5.210,4.714 5.002 C 4.916 4.795,5.105 4.577,5.134 4.519 C 5.212 4.360,5.207 4.027,5.124 3.870 C 5.023 3.680,4.828 3.504,4.665 3.455 C 4.507 3.408,4.271 3.404,4.139 3.447 " fill="#1A1C1F" stroke="none" fill-rule="evenodd"></path></svg>