<svg width="20" height="20" viewBox="0 0 20 20" fill="none" xmlns="http://www.w3.org/2000/svg"><path d="M5.192 4.312 C 5.123 4.338,5.010 4.400,4.942 4.451 C 4.690 4.638,2.212 7.148,2.114 7.317 C 2.029 7.463,2.017 7.516,2.017 7.750 C 2.017 7.984,2.029 8.037,2.114 8.183 C 2.231 8.383,4.766 10.934,5.017 11.104 C 5.177 11.212,5.195 11.217,5.500 11.217 C 5.786 11.217,5.832 11.208,5.973 11.125 C 6.136 11.029,6.315 10.833,6.420 10.633 C 6.510 10.464,6.505 10.068,6.411 9.863 C 6.366 9.763,6.179 9.542,5.881 9.235 L 5.420 8.762 9.652 8.777 C 12.653 8.787,13.941 8.803,14.083 8.830 C 14.338 8.879,14.823 9.122,15.090 9.335 C 15.470 9.637,15.792 10.149,15.919 10.650 C 15.992 10.941,16.002 11.543,15.937 11.800 C 15.878 12.033,15.718 12.400,15.579 12.622 C 15.354 12.982,14.848 13.405,14.476 13.546 C 13.908 13.761,14.239 13.745,9.865 13.765 L 5.881 13.783 5.687 13.900 C 5.344 14.107,5.179 14.428,5.208 14.829 C 5.234 15.203,5.441 15.498,5.801 15.677 L 5.980 15.767 9.973 15.767 L 13.967 15.767 14.309 15.686 C 15.529 15.396,16.421 14.842,17.084 13.962 C 17.841 12.957,18.156 11.592,17.912 10.373 C 17.600 8.814,16.428 7.498,14.894 6.985 C 14.703 6.921,14.421 6.853,14.265 6.833 C 14.088 6.811,12.399 6.790,9.708 6.777 C 7.357 6.766,5.433 6.750,5.433 6.741 C 5.433 6.732,5.637 6.515,5.887 6.258 C 6.200 5.937,6.365 5.740,6.420 5.621 C 6.622 5.187,6.418 4.632,5.964 4.385 C 5.752 4.270,5.395 4.236,5.192 4.312 " fill="#1A1C1F" stroke="none" fill-rule="evenodd"></path></svg>