<svg width="24" height="24" viewBox="0 0 24 24" fill="none" xmlns="http://www.w3.org/2000/svg"><path d="M5.713 5.054 C 5.572 5.093,5.438 5.187,5.173 5.429 C 4.566 5.984,2.303 8.290,2.160 8.499 C 1.977 8.766,1.949 9.068,2.082 9.348 C 2.204 9.606,5.392 12.807,5.626 12.906 C 5.819 12.988,6.175 12.990,6.363 12.911 C 6.868 12.696,7.125 12.059,6.899 11.580 C 6.855 11.487,6.528 11.119,6.122 10.705 L 5.420 9.989 11.120 10.015 C 14.255 10.029,16.968 10.057,17.148 10.077 C 17.736 10.144,18.421 10.503,18.943 11.020 C 19.533 11.604,19.874 12.314,19.955 13.127 C 20.114 14.727,19.226 16.172,17.722 16.760 C 17.162 16.979,17.421 16.967,12.377 16.997 L 7.694 17.024 7.508 17.133 C 6.818 17.538,6.852 18.506,7.572 18.890 L 7.740 18.980 12.440 18.980 L 17.140 18.980 17.548 18.890 C 18.977 18.573,20.189 17.787,20.998 16.650 C 21.412 16.070,21.784 15.195,21.924 14.477 C 22.000 14.085,21.988 12.815,21.904 12.428 C 21.537 10.740,20.474 9.355,18.970 8.604 C 18.133 8.186,17.736 8.086,16.720 8.038 C 16.313 8.019,13.640 8.002,10.780 8.001 C 7.699 8.000,5.556 7.984,5.522 7.962 C 5.477 7.933,5.618 7.768,6.163 7.212 C 6.901 6.458,6.960 6.370,6.960 6.013 C 6.960 5.773,6.856 5.475,6.722 5.328 C 6.489 5.073,6.059 4.957,5.713 5.054 " fill="#1A1C1F" stroke="none" fill-rule="evenodd"></path></svg>