<svg width="32" height="32" viewBox="0 0 32 32" fill="none" xmlns="http://www.w3.org/2000/svg"><path d="M7.241 7.065 C 6.977 7.156,6.268 7.820,4.231 9.884 C 2.511 11.626,2.506 11.632,2.507 12.073 C 2.507 12.165,2.558 12.324,2.620 12.427 C 2.803 12.732,6.931 16.818,7.167 16.928 C 7.515 17.091,7.985 16.942,8.282 16.576 C 8.399 16.430,8.442 16.311,8.464 16.073 C 8.491 15.773,8.483 15.748,8.284 15.483 C 8.170 15.331,7.600 14.712,7.017 14.107 L 5.957 13.007 14.619 13.026 L 23.280 13.045 23.692 13.160 C 25.316 13.613,26.504 14.658,27.123 16.176 C 27.371 16.784,27.413 17.049,27.413 18.000 C 27.413 18.951,27.371 19.216,27.123 19.824 C 26.523 21.296,25.462 22.271,23.887 22.797 L 23.320 22.987 18.153 22.992 C 15.312 22.995,12.314 23.013,11.491 23.032 C 9.818 23.071,9.831 23.068,9.565 23.469 C 9.263 23.927,9.386 24.491,9.862 24.827 L 10.089 24.987 16.658 25.002 C 23.903 25.019,23.405 25.039,24.533 24.682 C 25.670 24.322,26.609 23.747,27.467 22.884 C 28.294 22.051,28.817 21.196,29.166 20.107 C 29.409 19.351,29.456 19.002,29.456 17.947 C 29.456 16.892,29.398 16.543,29.064 15.600 C 28.850 14.993,28.703 14.700,28.329 14.133 C 27.958 13.570,26.989 12.590,26.462 12.243 C 25.578 11.662,24.426 11.203,23.583 11.098 C 23.319 11.065,19.818 11.029,14.566 11.006 L 5.980 10.969 7.008 9.898 C 8.417 8.430,8.431 8.413,8.465 8.165 C 8.508 7.846,8.440 7.592,8.256 7.383 C 7.991 7.080,7.573 6.949,7.241 7.065 " fill="#1A1C1F" stroke="none" fill-rule="evenodd"></path></svg>