<svg width="12" height="12" viewBox="0 0 12 12" fill="none" xmlns="http://www.w3.org/2000/svg"><path d="M3.115 2.583 C 3.007 2.613,2.779 2.824,1.980 3.632 C 1.556 4.060,1.275 4.360,1.253 4.408 C 1.198 4.522,1.189 4.691,1.229 4.829 C 1.262 4.942,1.280 4.962,2.066 5.750 C 2.508 6.193,2.923 6.594,2.988 6.642 C 3.098 6.723,3.117 6.730,3.252 6.737 C 3.456 6.747,3.580 6.703,3.711 6.571 C 3.835 6.448,3.884 6.320,3.882 6.127 C 3.881 5.933,3.834 5.856,3.522 5.534 L 3.250 5.254 5.830 5.265 L 8.410 5.276 8.540 5.326 C 8.758 5.408,8.903 5.491,9.045 5.614 C 9.226 5.771,9.329 5.899,9.421 6.081 C 9.549 6.337,9.570 6.432,9.568 6.760 C 9.567 7.018,9.561 7.068,9.514 7.210 C 9.440 7.434,9.292 7.664,9.114 7.834 C 8.937 8.002,8.764 8.103,8.513 8.186 L 8.330 8.246 5.930 8.260 L 3.530 8.273 3.443 8.318 C 3.212 8.437,3.071 8.704,3.117 8.933 C 3.129 8.993,3.155 9.075,3.174 9.116 C 3.225 9.224,3.366 9.356,3.493 9.414 L 3.604 9.465 6.027 9.454 C 8.372 9.444,8.455 9.443,8.620 9.403 C 9.402 9.217,10.013 8.790,10.415 8.150 C 10.558 7.922,10.710 7.515,10.762 7.220 C 10.802 6.994,10.797 6.449,10.753 6.243 C 10.634 5.683,10.416 5.269,10.037 4.885 C 9.610 4.452,9.042 4.152,8.548 4.099 C 8.426 4.086,7.384 4.072,5.827 4.064 C 4.439 4.056,3.297 4.043,3.289 4.035 C 3.281 4.027,3.391 3.900,3.534 3.753 C 3.809 3.470,3.873 3.372,3.893 3.206 C 3.919 2.989,3.784 2.743,3.580 2.632 C 3.496 2.586,3.442 2.572,3.331 2.568 C 3.254 2.564,3.156 2.571,3.115 2.583 " fill="#1A1C1F" stroke="none" fill-rule="evenodd"></path></svg>