<svg width="28" height="28" viewBox="0 0 28 28" fill="none" xmlns="http://www.w3.org/2000/svg"><path d="M6.363 6.165 C 6.166 6.221,5.229 7.097,3.648 8.699 C 2.130 10.239,2.068 10.336,2.290 10.824 C 2.410 11.090,5.880 14.572,6.220 14.768 C 6.479 14.918,6.711 14.908,7.020 14.734 C 7.376 14.532,7.540 13.941,7.333 13.602 C 7.286 13.524,6.787 12.991,6.225 12.416 L 5.203 11.372 12.880 11.400 L 20.557 11.428 20.883 11.542 C 21.722 11.833,22.339 12.215,22.869 12.772 C 23.418 13.348,23.802 14.079,23.960 14.850 C 24.044 15.261,24.056 16.092,23.984 16.500 C 23.876 17.113,23.588 17.793,23.217 18.317 C 22.952 18.691,22.352 19.258,21.986 19.480 C 21.624 19.700,20.975 19.959,20.628 20.023 C 20.471 20.051,18.133 20.086,14.677 20.110 C 10.715 20.138,8.924 20.166,8.788 20.202 C 8.453 20.293,8.184 20.710,8.226 21.076 C 8.255 21.334,8.414 21.583,8.647 21.738 L 8.837 21.863 14.603 21.862 C 20.849 21.861,20.612 21.870,21.459 21.599 C 22.427 21.289,23.249 20.799,23.938 20.119 C 24.823 19.248,25.372 18.271,25.657 17.063 C 25.762 16.614,25.779 16.438,25.780 15.773 C 25.782 14.938,25.694 14.390,25.448 13.700 C 25.044 12.569,24.212 11.477,23.217 10.768 C 22.505 10.262,21.378 9.806,20.586 9.705 C 20.394 9.680,16.943 9.647,12.737 9.629 L 5.232 9.598 6.263 8.544 C 6.830 7.964,7.323 7.422,7.357 7.340 C 7.517 6.959,7.357 6.454,7.020 6.270 C 6.793 6.147,6.556 6.109,6.363 6.165 " fill="#1A1C1F" stroke="none" fill-rule="evenodd"></path></svg>