<svg xmlns="http://www.w3.org/2000/svg" width="32" height="32" fill="none"><path fill="#1A1C1F" fill-rule="evenodd" d="M7.387 7.013c-.03.01-.126.033-.214.052-.118.026-.729.603-2.339 2.205-1.229 1.224-2.211 2.245-2.253 2.342a1.1 1.1 0 0 0 0 .776c.042.097 1.022 1.114 2.253 2.339 2.323 2.311 2.358 2.339 2.783 2.26.608-.113.954-.62.839-1.232-.031-.167-.236-.404-1.265-1.47l-1.228-1.272 8.525.001c8.117.001 8.548.006 9.008.1a4.9 4.9 0 0 1 2.383 1.228c.519.488.826.91 1.13 1.559.363.776.43 1.102.43 2.099s-.067 1.323-.43 2.099a4.7 4.7 0 0 1-1.07 1.504c-.607.581-1.232.943-2.084 1.209l-.468.146-6.64.028c-6.047.025-6.655.035-6.8.116-.333.183-.56.559-.56.925 0 .389.337.818.735.935.139.04 2.142.052 6.731.039l6.534-.019.523-.119c2.49-.569 4.447-2.309 5.23-4.653.263-.788.327-1.232.324-2.263-.002-.858-.017-1.021-.144-1.529-.377-1.506-1.034-2.601-2.2-3.663-.859-.783-2.089-1.389-3.334-1.643-.416-.084-1.162-.093-9.138-.11l-8.685-.019L7.16 9.745c.658-.681 1.225-1.291 1.259-1.355s.061-.242.061-.395c0-.354-.177-.673-.461-.829-.2-.11-.525-.189-.632-.153"/></svg>