<svg width="24" height="24" viewBox="0 0 24 24" fill="none" xmlns="http://www.w3.org/2000/svg"><path d="M13.882 1.764 C 11.352 2.091,9.195 3.643,8.079 5.940 C 7.548 7.032,7.271 8.367,7.335 9.520 C 7.366 10.071,7.407 10.352,7.544 10.953 L 7.647 11.405 4.794 14.273 C 3.224 15.850,1.886 17.220,1.820 17.317 C 1.712 17.475,1.700 17.525,1.700 17.800 C 1.700 18.072,1.713 18.127,1.817 18.283 C 1.943 18.474,4.363 20.901,5.230 21.706 C 5.694 22.137,5.788 22.206,5.987 22.264 C 6.322 22.361,6.567 22.297,6.892 22.027 C 7.028 21.914,8.373 20.594,9.881 19.094 L 12.621 16.367 13.081 16.486 C 13.699 16.645,14.661 16.709,15.506 16.646 C 17.189 16.521,18.871 15.732,20.121 14.481 C 22.023 12.578,22.743 9.869,22.054 7.203 C 21.946 6.786,21.760 6.312,21.626 6.111 C 21.577 6.039,21.439 5.927,21.319 5.862 C 21.137 5.763,21.052 5.743,20.817 5.742 C 20.566 5.740,20.513 5.754,20.357 5.860 C 20.260 5.926,19.433 6.722,18.518 7.628 L 16.856 9.276 15.800 8.220 L 14.745 7.165 16.383 5.510 C 17.283 4.600,18.074 3.778,18.139 3.683 C 18.236 3.542,18.261 3.459,18.274 3.235 C 18.287 2.997,18.274 2.929,18.180 2.737 C 18.112 2.598,18.012 2.471,17.914 2.400 C 17.601 2.174,16.633 1.882,15.854 1.780 C 15.365 1.716,14.317 1.707,13.882 1.764 M15.236 3.720 C 15.323 3.720,15.144 3.916,14.097 4.970 C 12.458 6.619,12.418 6.663,12.357 6.939 C 12.318 7.114,12.318 7.206,12.356 7.378 C 12.400 7.576,12.449 7.644,12.877 8.108 C 13.582 8.872,16.110 11.365,16.340 11.523 C 16.525 11.649,16.563 11.660,16.843 11.660 C 17.115 11.660,17.165 11.647,17.322 11.540 C 17.418 11.474,18.002 10.925,18.619 10.320 C 19.979 8.986,20.220 8.760,20.283 8.760 C 20.347 8.760,20.304 9.664,20.215 10.200 C 20.004 11.459,19.193 12.768,18.127 13.571 C 17.208 14.263,16.210 14.619,15.060 14.667 C 14.267 14.700,13.902 14.645,12.900 14.340 C 12.699 14.279,12.432 14.229,12.297 14.225 C 12.086 14.221,12.029 14.236,11.880 14.340 C 11.784 14.406,10.476 15.682,8.973 17.175 L 6.240 19.889 5.180 18.860 C 4.597 18.293,4.120 17.820,4.120 17.808 C 4.120 17.796,5.358 16.543,6.872 15.023 C 8.729 13.159,9.648 12.208,9.699 12.100 C 9.834 11.812,9.823 11.595,9.646 11.031 C 9.391 10.219,9.380 10.144,9.380 9.200 C 9.380 8.501,9.394 8.280,9.455 8.020 C 10.004 5.669,11.920 3.977,14.320 3.722 C 14.507 3.702,14.766 3.694,14.896 3.703 C 15.026 3.712,15.178 3.720,15.236 3.720 " fill="#1A1C1F" stroke="none" fill-rule="evenodd"></path></svg>