<svg width="20" height="20" viewBox="0 0 20 20" fill="none" xmlns="http://www.w3.org/2000/svg"><path d="M11.717 1.819 C 11.662 1.827,11.497 1.850,11.350 1.869 C 10.070 2.037,8.875 2.653,7.913 3.638 C 7.098 4.473,6.620 5.365,6.350 6.550 C 6.170 7.342,6.165 8.182,6.337 9.009 L 6.405 9.340 4.359 11.395 C 2.291 13.472,1.929 13.855,1.846 14.054 C 1.785 14.200,1.788 14.480,1.851 14.694 C 1.896 14.844,1.974 14.941,2.464 15.458 C 3.241 16.277,4.812 17.826,5.033 17.991 C 5.317 18.202,5.587 18.250,5.926 18.149 C 6.149 18.083,6.215 18.021,8.667 15.580 L 10.650 13.605 10.983 13.669 C 12.076 13.880,13.047 13.820,14.066 13.480 C 15.833 12.892,17.147 11.637,17.819 9.899 C 18.277 8.713,18.323 7.367,17.951 6.067 C 17.795 5.521,17.636 5.260,17.363 5.104 C 17.020 4.908,16.595 4.937,16.292 5.176 C 16.195 5.252,15.553 5.873,14.865 6.556 L 13.613 7.797 12.907 7.091 L 12.202 6.385 13.445 5.134 C 14.129 4.446,14.750 3.801,14.825 3.700 C 15.052 3.396,15.086 3.088,14.932 2.739 C 14.747 2.319,14.276 2.083,13.252 1.899 C 12.900 1.835,11.949 1.786,11.717 1.819 M11.815 3.907 C 11.761 3.965,11.324 4.416,10.844 4.908 C 10.270 5.497,9.946 5.854,9.899 5.952 C 9.800 6.157,9.779 6.442,9.845 6.672 C 9.891 6.829,9.954 6.917,10.262 7.253 C 10.817 7.861,12.895 9.905,13.081 10.026 C 13.294 10.165,13.470 10.212,13.708 10.190 C 14.056 10.159,14.142 10.093,15.212 9.035 C 16.027 8.229,16.205 8.068,16.189 8.150 C 16.178 8.205,16.153 8.343,16.133 8.456 C 15.996 9.255,15.575 10.065,15.001 10.635 C 13.965 11.663,12.505 12.025,11.059 11.613 C 10.470 11.444,10.164 11.436,9.917 11.581 C 9.810 11.644,9.007 12.419,7.682 13.738 L 5.614 15.798 4.907 15.090 L 4.200 14.383 5.837 12.750 C 7.912 10.678,8.440 10.121,8.493 9.943 C 8.561 9.717,8.541 9.474,8.421 9.066 C 8.265 8.536,8.219 8.162,8.244 7.607 C 8.289 6.569,8.679 5.678,9.399 4.967 C 9.973 4.401,10.666 4.040,11.517 3.867 C 11.927 3.783,11.928 3.783,11.815 3.907 " fill="#1A1C1F" stroke="none" fill-rule="evenodd"></path></svg>