<svg width="12" height="12" viewBox="0 0 12 12" fill="none" xmlns="http://www.w3.org/2000/svg"><path d="M6.823 1.119 C 6.403 1.185,6.132 1.266,5.810 1.421 C 5.120 1.752,4.610 2.215,4.222 2.864 C 3.864 3.463,3.673 4.281,3.736 4.951 C 3.749 5.088,3.779 5.292,3.802 5.403 L 3.843 5.604 2.616 6.837 C 1.375 8.083,1.158 8.313,1.108 8.433 C 1.071 8.520,1.073 8.688,1.111 8.816 C 1.137 8.906,1.184 8.965,1.478 9.275 C 1.944 9.766,2.887 10.695,3.020 10.794 C 3.190 10.921,3.352 10.950,3.556 10.889 C 3.689 10.850,3.729 10.813,5.210 9.338 L 6.390 8.163 6.580 8.201 C 7.227 8.328,7.828 8.292,8.440 8.088 C 9.500 7.735,10.288 6.982,10.691 5.940 C 10.955 5.257,10.992 4.495,10.799 3.746 C 10.696 3.345,10.595 3.163,10.419 3.063 C 10.212 2.945,9.958 2.962,9.775 3.105 C 9.717 3.151,9.332 3.523,8.919 3.933 L 8.168 4.679 7.744 4.254 L 7.320 3.830 7.912 3.240 C 8.596 2.559,8.921 2.211,8.972 2.105 C 9.015 2.015,9.020 1.790,8.981 1.672 C 8.949 1.575,8.826 1.439,8.709 1.371 C 8.331 1.149,7.413 1.027,6.823 1.119 M7.089 2.344 C 7.056 2.379,6.794 2.650,6.506 2.945 C 6.162 3.298,5.968 3.513,5.939 3.571 C 5.880 3.694,5.867 3.865,5.907 4.004 C 5.935 4.100,5.972 4.151,6.177 4.373 C 6.540 4.765,7.737 5.943,7.849 6.016 C 7.976 6.099,8.082 6.127,8.225 6.114 C 8.434 6.095,8.485 6.056,9.127 5.421 C 9.616 4.938,9.723 4.841,9.713 4.890 C 9.707 4.923,9.692 5.006,9.680 5.074 C 9.627 5.383,9.471 5.766,9.286 6.045 C 9.156 6.241,8.867 6.527,8.658 6.665 C 8.311 6.896,7.915 7.036,7.545 7.059 C 7.191 7.080,6.944 7.056,6.636 6.968 C 6.282 6.867,6.098 6.862,5.950 6.949 C 5.886 6.986,5.407 7.449,4.609 8.243 L 3.368 9.479 2.944 9.054 L 2.520 8.630 3.502 7.650 C 4.747 6.407,5.064 6.072,5.096 5.966 C 5.136 5.830,5.124 5.684,5.052 5.440 C 4.959 5.122,4.932 4.900,4.945 4.555 C 4.959 4.204,5.016 3.967,5.158 3.668 C 5.403 3.155,5.755 2.795,6.260 2.541 C 6.498 2.421,6.594 2.387,6.870 2.329 C 7.159 2.268,7.158 2.268,7.089 2.344 " fill="#1A1C1F" stroke="none" fill-rule="evenodd"></path></svg>