<svg width="16" height="16" viewBox="0 0 16 16" fill="none" xmlns="http://www.w3.org/2000/svg"><path d="M9.253 1.470 C 8.119 1.600,7.137 2.084,6.331 2.911 C 5.782 3.472,5.440 4.042,5.200 4.791 C 4.945 5.588,4.901 6.387,5.068 7.206 L 5.123 7.474 3.487 9.117 C 1.833 10.778,1.543 11.084,1.477 11.244 C 1.428 11.360,1.430 11.584,1.481 11.755 C 1.517 11.875,1.579 11.953,1.971 12.366 C 2.593 13.022,3.849 14.261,4.027 14.392 C 4.254 14.561,4.470 14.600,4.741 14.519 C 4.919 14.466,4.975 14.414,6.947 12.449 L 8.520 10.881 8.778 10.933 C 9.631 11.105,10.436 11.057,11.253 10.784 C 12.667 10.313,13.718 9.310,14.255 7.920 C 14.622 6.969,14.659 5.896,14.361 4.853 C 14.236 4.417,14.109 4.208,13.891 4.083 C 13.616 3.926,13.276 3.949,13.033 4.141 C 12.956 4.202,12.442 4.699,11.891 5.245 L 10.889 6.239 10.334 5.678 L 9.779 5.118 9.869 5.019 C 9.919 4.965,10.363 4.512,10.855 4.013 C 11.347 3.515,11.799 3.041,11.860 2.960 C 12.041 2.717,12.069 2.470,11.946 2.191 C 11.835 1.941,11.641 1.799,11.240 1.672 C 10.612 1.475,9.868 1.399,9.253 1.470 " fill="#1A1C1F" stroke="none" fill-rule="evenodd"></path></svg>