<svg width="24" height="24" viewBox="0 0 24 24" fill="none" xmlns="http://www.w3.org/2000/svg"><path d="M14.260 1.721 C 12.490 1.859,10.906 2.570,9.625 3.799 C 7.671 5.674,6.895 8.416,7.567 11.074 L 7.651 11.408 4.747 14.314 C 2.511 16.552,1.825 17.261,1.763 17.400 C 1.713 17.510,1.682 17.666,1.681 17.800 C 1.680 18.232,1.695 18.250,3.736 20.260 C 4.963 21.469,5.668 22.134,5.791 22.200 C 6.044 22.336,6.421 22.338,6.680 22.205 C 6.805 22.140,7.741 21.233,9.741 19.235 L 12.622 16.358 12.821 16.419 C 13.436 16.607,13.874 16.659,14.820 16.659 C 15.623 16.659,15.798 16.648,16.198 16.567 C 18.247 16.153,19.970 15.003,21.091 13.300 C 22.263 11.520,22.614 9.309,22.059 7.207 C 21.936 6.741,21.745 6.260,21.616 6.091 C 21.377 5.778,20.872 5.638,20.490 5.779 C 20.328 5.839,20.047 6.102,18.580 7.565 L 16.859 9.280 15.800 8.220 L 14.740 7.160 16.427 5.470 C 17.588 4.306,18.140 3.724,18.201 3.602 C 18.386 3.231,18.277 2.693,17.965 2.430 C 17.698 2.205,16.729 1.896,15.940 1.784 C 15.403 1.707,14.746 1.682,14.260 1.721 " fill="#1A1C1F" stroke="none" fill-rule="evenodd"></path></svg>