<svg width="16" height="16" viewBox="0 0 16 16" fill="none" xmlns="http://www.w3.org/2000/svg"><path d="M9.360 1.458 C 8.293 1.572,7.405 1.951,6.605 2.633 C 6.129 3.040,5.642 3.700,5.389 4.286 C 4.974 5.243,4.865 6.233,5.068 7.210 L 5.123 7.474 3.487 9.117 C 1.833 10.778,1.543 11.084,1.477 11.244 C 1.428 11.360,1.430 11.584,1.481 11.755 C 1.517 11.875,1.579 11.953,1.971 12.366 C 2.593 13.022,3.849 14.261,4.027 14.392 C 4.254 14.561,4.470 14.600,4.741 14.519 C 4.919 14.466,4.975 14.414,6.947 12.449 L 8.520 10.881 8.778 10.933 C 9.631 11.105,10.436 11.057,11.253 10.784 C 12.667 10.313,13.718 9.310,14.255 7.920 C 14.622 6.969,14.659 5.896,14.361 4.853 C 14.236 4.417,14.109 4.208,13.891 4.083 C 13.616 3.926,13.276 3.949,13.033 4.141 C 12.956 4.202,12.443 4.698,11.892 5.245 L 10.891 6.237 10.326 5.673 L 9.761 5.108 10.756 4.107 C 11.303 3.557,11.800 3.041,11.860 2.960 C 12.046 2.711,12.070 2.461,11.937 2.175 C 11.820 1.925,11.647 1.801,11.240 1.672 C 10.660 1.490,9.888 1.402,9.360 1.458 M9.426 3.153 C 9.368 3.216,9.086 3.507,8.798 3.800 C 8.029 4.586,7.927 4.703,7.880 4.861 C 7.829 5.032,7.829 5.181,7.880 5.352 C 7.912 5.460,7.976 5.548,8.210 5.803 C 8.654 6.289,10.316 7.924,10.465 8.021 C 10.635 8.132,10.776 8.169,10.966 8.152 C 11.245 8.127,11.313 8.074,12.170 7.228 C 12.821 6.584,12.964 6.455,12.951 6.520 C 12.942 6.564,12.922 6.674,12.907 6.765 C 12.797 7.404,12.460 8.052,12.001 8.508 C 11.172 9.331,10.004 9.620,8.847 9.290 C 8.377 9.156,8.131 9.149,7.933 9.265 C 7.848 9.315,7.209 9.932,6.146 10.991 L 4.491 12.638 3.926 12.072 L 3.360 11.506 4.669 10.200 C 6.330 8.543,6.752 8.096,6.795 7.954 C 6.849 7.772,6.833 7.579,6.734 7.244 C 6.610 6.822,6.577 6.548,6.594 6.080 C 6.612 5.596,6.687 5.286,6.889 4.870 C 7.133 4.368,7.413 4.017,7.810 3.719 C 8.046 3.541,8.495 3.295,8.733 3.213 C 8.860 3.170,9.410 3.045,9.492 3.042 C 9.515 3.041,9.487 3.087,9.426 3.153 " fill="#1A1C1F" stroke="none" fill-rule="evenodd"></path></svg>