<svg width="20" height="20" viewBox="0 0 20 20" fill="none" xmlns="http://www.w3.org/2000/svg"><path d="M11.717 1.819 C 11.662 1.827,11.497 1.850,11.350 1.869 C 10.070 2.037,8.875 2.653,7.913 3.638 C 7.098 4.473,6.620 5.365,6.350 6.550 C 6.170 7.342,6.165 8.182,6.337 9.009 L 6.405 9.340 4.359 11.395 C 2.291 13.472,1.929 13.855,1.846 14.054 C 1.785 14.200,1.788 14.480,1.851 14.694 C 1.896 14.844,1.974 14.941,2.464 15.458 C 3.241 16.277,4.812 17.826,5.033 17.991 C 5.317 18.202,5.587 18.250,5.926 18.149 C 6.149 18.083,6.215 18.021,8.667 15.580 L 10.650 13.605 10.983 13.669 C 12.076 13.880,13.047 13.820,14.066 13.480 C 15.833 12.892,17.147 11.637,17.819 9.899 C 18.277 8.713,18.323 7.367,17.951 6.067 C 17.795 5.521,17.636 5.260,17.363 5.104 C 17.020 4.908,16.595 4.937,16.292 5.176 C 16.195 5.252,15.553 5.873,14.865 6.556 L 13.613 7.797 12.907 7.091 L 12.202 6.385 13.445 5.134 C 14.129 4.446,14.750 3.801,14.825 3.700 C 15.052 3.396,15.086 3.088,14.932 2.739 C 14.747 2.319,14.276 2.083,13.252 1.899 C 12.900 1.835,11.949 1.786,11.717 1.819 " fill="#1A1C1F" stroke="none" fill-rule="evenodd"></path></svg>