<svg xmlns="http://www.w3.org/2000/svg" width="16" height="16" fill="none"><g clip-path="url(#a)"><path fill="#1A1C1F" fill-rule="evenodd" d="M9.768 1.436a4.8 4.8 0 0 0-4.8 4.8c0 .653.108.988.162 1.237l-3.464 3.464a.8.8 0 0 0 0 1.132l2.257 2.263a.813.813 0 0 0 1.138 0l3.46-3.461c.33.106.9.165 1.247.165a4.8 4.8 0 0 0 4.8-4.8c0-.608-.128-1.3-.374-1.849-.218-.462-.885-.566-1.268-.182l-2.031 2.03-1.131-1.132 2.028-2.028a.8.8 0 0 0-.275-1.31 4.8 4.8 0 0 0-1.749-.33m-.207 1.607L8.067 4.537a.8.8 0 0 0 0 1.132l2.245 2.263c.377.327.86.288 1.148 0l1.501-1.501c-.146 1.748-1.533 3.005-3.193 3.005-.408 0-.88-.103-1.23-.242a.79.79 0 0 0-.802.199l-3.241 3.241-1.131-1.131 3.244-3.244a.8.8 0 0 0 .179-.858A3.2 3.2 0 0 1 9.56 3.043" clip-rule="evenodd"/></g><defs><clipPath id="a"><path fill="#fff" d="M0 0h16v16H0z"/></clipPath></defs></svg>