<svg width="20" height="20" viewBox="0 0 20 20" fill="none" xmlns="http://www.w3.org/2000/svg"><path d="M11.683 1.822 C 11.257 1.873,11.005 1.916,10.717 1.988 C 8.963 2.429,7.453 3.711,6.722 5.381 C 6.216 6.535,6.079 7.843,6.339 9.026 L 6.408 9.341 4.176 11.579 C 1.655 14.106,1.779 13.957,1.807 14.432 C 1.818 14.603,1.846 14.731,1.898 14.833 C 1.950 14.936,2.446 15.457,3.479 16.493 C 5.142 18.161,5.154 18.171,5.566 18.194 C 5.730 18.203,5.832 18.188,5.983 18.132 C 6.175 18.062,6.274 17.969,8.417 15.830 L 10.650 13.602 10.964 13.666 C 12.323 13.945,13.693 13.760,14.933 13.129 C 16.575 12.293,17.705 10.803,18.101 8.950 C 18.202 8.476,18.229 7.490,18.154 6.983 C 18.087 6.531,17.966 6.051,17.829 5.690 C 17.636 5.184,17.273 4.936,16.785 4.975 C 16.671 4.984,16.516 5.024,16.432 5.066 C 16.330 5.117,15.862 5.560,14.950 6.470 L 13.616 7.800 12.908 7.091 L 12.200 6.383 13.518 5.066 C 14.921 3.665,14.980 3.593,15.022 3.243 C 15.063 2.896,14.895 2.525,14.609 2.328 C 14.327 2.134,13.528 1.909,12.860 1.836 C 12.558 1.802,11.911 1.795,11.683 1.822 " fill="#1A1C1F" stroke="none" fill-rule="evenodd"></path></svg>