<svg width="16" height="16" viewBox="0 0 16 16" fill="none" xmlns="http://www.w3.org/2000/svg"><path d="M9.347 1.458 C 9.005 1.498,8.804 1.533,8.574 1.591 C 7.170 1.943,5.962 2.969,5.377 4.305 C 4.973 5.228,4.863 6.275,5.071 7.221 L 5.126 7.473 3.341 9.263 C 1.324 11.285,1.423 11.166,1.446 11.546 C 1.454 11.683,1.477 11.785,1.518 11.867 C 1.560 11.949,1.957 12.366,2.783 13.194 C 4.113 14.529,4.123 14.537,4.453 14.555 C 4.584 14.562,4.666 14.550,4.787 14.506 C 4.940 14.449,5.019 14.375,6.733 12.664 L 8.520 10.881 8.772 10.933 C 9.859 11.156,10.954 11.008,11.946 10.503 C 13.260 9.835,14.164 8.642,14.481 7.160 C 14.562 6.781,14.583 5.992,14.523 5.587 C 14.469 5.225,14.373 4.841,14.263 4.552 C 14.109 4.148,13.818 3.948,13.428 3.980 C 13.337 3.987,13.213 4.019,13.146 4.053 C 13.064 4.093,12.690 4.448,11.960 5.176 L 10.893 6.240 10.340 5.686 C 10.036 5.382,9.787 5.121,9.787 5.107 C 9.787 5.093,10.260 4.607,10.839 4.027 C 11.958 2.906,11.984 2.874,12.018 2.590 C 12.050 2.317,11.914 2.019,11.687 1.862 C 11.461 1.707,10.822 1.527,10.288 1.468 C 10.046 1.442,9.529 1.436,9.347 1.458 " fill="#1A1C1F" stroke="none" fill-rule="evenodd"></path></svg>