<svg width="12" height="12" viewBox="0 0 12 12" fill="none" xmlns="http://www.w3.org/2000/svg"><path d="M7.010 1.093 C 6.754 1.124,6.603 1.150,6.430 1.193 C 5.378 1.457,4.472 2.227,4.033 3.229 C 3.730 3.921,3.647 4.706,3.803 5.416 L 3.845 5.605 2.506 6.947 C 0.993 8.464,1.067 8.374,1.084 8.659 C 1.091 8.762,1.108 8.839,1.139 8.900 C 1.170 8.962,1.468 9.274,2.087 9.896 C 3.085 10.897,3.092 10.903,3.340 10.916 C 3.438 10.922,3.499 10.913,3.590 10.879 C 3.705 10.837,3.764 10.781,5.050 9.498 L 6.390 8.161 6.579 8.200 C 7.394 8.367,8.216 8.256,8.960 7.877 C 9.945 7.376,10.623 6.482,10.861 5.370 C 10.921 5.086,10.937 4.494,10.892 4.190 C 10.852 3.919,10.780 3.630,10.697 3.414 C 10.582 3.111,10.364 2.961,10.071 2.985 C 10.003 2.990,9.909 3.014,9.859 3.039 C 9.798 3.070,9.517 3.336,8.970 3.882 L 8.169 4.680 7.745 4.255 L 7.320 3.830 8.111 3.040 C 8.952 2.199,8.988 2.156,9.013 1.946 C 9.038 1.738,8.937 1.515,8.765 1.397 C 8.596 1.280,8.117 1.145,7.716 1.101 C 7.535 1.081,7.146 1.077,7.010 1.093 " fill="#1A1C1F" stroke="none" fill-rule="evenodd"></path></svg>