<svg xmlns="http://www.w3.org/2000/svg" width="32" height="32" fill="none"><g clip-path="url(#a)"><path fill="#1A1C1F" fill-rule="evenodd" d="M21.337 1.717a9 9 0 0 0-9 9c0 1.075.202 2.018.43 2.75l-10.81 10.8a1 1 0 0 0 .016 1.431l4.508 4.29a1 1 0 0 0 1.416 0L18.593 19.29q1.299.428 2.744.428a9 9 0 0 0 9-9c0-1.175-.244-2.52-.713-3.498-.273-.572-1.103-.695-1.58-.22l-3.722 3.721-2.997-2.996 3.72-3.717a1 1 0 0 0-.33-1.635 9 9 0 0 0-3.378-.655m1.084 2.084-3.217 3.216a1 1 0 0 0 0 1.414l4.378 4.382c.432.458 1.087.39 1.447.03l3.221-3.22a7 7 0 0 1-6.913 8.094c-.918 0-1.578-.123-2.713-.538a.99.99 0 0 0-.996.25L7.172 27.883l-3.077-2.929L14.63 14.433a1 1 0 0 0 .22-1.083 7 7 0 0 1 7.572-9.549" clip-rule="evenodd"/></g><defs><clipPath id="a"><path fill="#fff" d="M0 0h32v32H0z"/></clipPath></defs></svg>