<svg width="32" height="32" viewBox="0 0 32 32" fill="none" xmlns="http://www.w3.org/2000/svg"><path d="M19.767 1.867 C 16.706 2.423,14.094 4.559,12.986 7.413 C 12.520 8.615,12.351 9.499,12.356 10.720 C 12.359 11.573,12.442 12.240,12.646 13.036 L 12.754 13.459 7.907 18.316 C 5.241 20.988,2.757 23.490,2.387 23.878 C 1.768 24.526,1.711 24.603,1.676 24.835 C 1.605 25.312,1.798 25.536,4.480 28.081 C 6.623 30.114,6.843 30.293,7.202 30.293 C 7.583 30.293,7.450 30.419,13.764 24.119 L 18.594 19.299 19.044 19.414 C 20.817 19.868,22.432 19.815,24.160 19.246 C 27.189 18.249,29.445 15.730,30.125 12.587 C 30.430 11.178,30.395 9.799,30.020 8.375 C 29.799 7.537,29.564 7.039,29.315 6.885 C 29.054 6.724,28.606 6.680,28.385 6.794 C 28.292 6.842,27.344 7.743,26.278 8.797 L 24.340 10.714 22.836 9.210 L 21.333 7.706 22.724 6.320 C 24.711 4.340,25.265 3.736,25.309 3.499 C 25.431 2.849,25.010 2.424,23.932 2.112 C 23.099 1.870,22.596 1.804,21.440 1.782 C 20.521 1.765,20.254 1.779,19.767 1.867 M22.038 3.768 L 22.397 3.802 20.737 5.486 C 19.713 6.526,19.048 7.243,18.999 7.358 C 18.869 7.670,18.940 8.064,19.180 8.364 C 19.290 8.501,20.343 9.578,21.519 10.758 C 23.760 13.004,23.894 13.116,24.339 13.119 C 24.452 13.119,24.629 13.079,24.734 13.030 C 24.838 12.980,25.674 12.199,26.590 11.295 L 28.257 9.649 28.296 10.065 C 28.352 10.656,28.242 11.925,28.084 12.507 C 27.350 15.222,25.134 17.200,22.347 17.628 C 21.325 17.785,20.407 17.717,19.336 17.404 C 18.982 17.300,18.535 17.203,18.340 17.188 L 17.987 17.160 17.194 17.924 C 16.757 18.343,14.324 20.758,11.787 23.288 L 7.173 27.890 6.213 26.978 C 5.685 26.476,4.994 25.812,4.677 25.502 L 4.101 24.939 8.680 20.349 C 14.503 14.513,14.864 14.140,14.908 13.905 C 14.933 13.773,14.884 13.517,14.730 12.981 C 14.400 11.828,14.307 11.002,14.400 10.050 C 14.474 9.306,14.654 8.567,14.904 7.990 C 16.129 5.165,18.977 3.479,22.038 3.768 " fill="#1A1C1F" stroke="none" fill-rule="evenodd"></path></svg>