<svg xmlns="http://www.w3.org/2000/svg" width="14" height="14" fill="none"><g clip-path="url(#a)"><path fill="#1A1C1F" fill-rule="evenodd" d="M8.547 1.256a4.2 4.2 0 0 0-4.2 4.2c0 .572.095.865.142 1.082L1.458 9.57a.7.7 0 0 0 0 .991l1.974 1.98c.308.29.744.252.997 0l3.026-3.028a4.2 4.2 0 0 0 5.292-4.056 4.1 4.1 0 0 0-.327-1.617c-.191-.405-.774-.495-1.11-.16L9.533 5.455l-.99-.99 1.775-1.774a.7.7 0 0 0-.24-1.147 4.2 4.2 0 0 0-1.53-.288m-.181 1.407L7.058 3.97a.7.7 0 0 0 0 .99l1.965 1.98c.33.287.753.252 1.005 0l1.313-1.313c-.128 1.53-1.341 2.63-2.794 2.63-.357 0-.77-.09-1.076-.212a.69.69 0 0 0-.702.173l-2.836 2.837-.99-.99 2.839-2.838a.7.7 0 0 0 .156-.75 2.8 2.8 0 0 1 2.428-3.814" clip-rule="evenodd"/></g><defs><clipPath id="a"><path fill="#fff" d="M0 0h14v14H0z"/></clipPath></defs></svg>