<svg xmlns="http://www.w3.org/2000/svg" width="28" height="28" fill="none"><g clip-path="url(#a)"><path fill="#1A1C1F" fill-rule="evenodd" d="M18.67 1.503a7.875 7.875 0 0 0-7.5 10.281l-9.458 9.45a.874.874 0 0 0 .015 1.252L5.67 26.24a.875.875 0 0 0 1.239 0l9.359-9.362q1.137.375 2.401.375a7.876 7.876 0 0 0 7.875-7.875c0-1.028-.214-2.205-.624-3.061-.239-.5-.965-.608-1.382-.193L21.282 9.38 18.66 6.76l3.255-3.253a.875.875 0 0 0-.29-1.43 7.9 7.9 0 0 0-2.955-.573m.948 1.823L16.805 6.14a.875.875 0 0 0 0 1.237l3.83 3.835c.378.4.951.341 1.267.026l2.818-2.818a6.124 6.124 0 0 1-6.049 7.083c-.803 0-1.38-.108-2.374-.471a.86.86 0 0 0-.871.218l-9.15 9.149-2.692-2.563 9.218-9.207a.88.88 0 0 0 .192-.947 6.125 6.125 0 0 1 6.626-8.356" clip-rule="evenodd"/></g><defs><clipPath id="a"><path fill="#fff" d="M0 0h28v28H0z"/></clipPath></defs></svg>