<svg xmlns="http://www.w3.org/2000/svg" width="12" height="12" fill="none"><g clip-path="url(#a)"><path fill="#1A1C1F" fill-rule="evenodd" d="M7.326 1.077a3.6 3.6 0 0 0-3.6 3.6c0 .49.081.74.121.927L1.25 8.202a.6.6 0 0 0 0 .85l1.693 1.697a.61.61 0 0 0 .854 0L6.39 8.153a3.6 3.6 0 0 0 4.536-3.476c0-.456-.096-.975-.28-1.387-.164-.347-.664-.424-.952-.137L8.171 4.676l-.848-.849 1.52-1.52a.6.6 0 0 0-.205-.984 3.6 3.6 0 0 0-1.312-.246m-.155 1.205L6.05 3.403a.6.6 0 0 0 0 .848L7.733 5.95c.283.245.645.216.861 0l1.126-1.126c-.11 1.311-1.15 2.254-2.395 2.254-.306 0-.66-.077-.922-.181a.59.59 0 0 0-.602.148l-2.43 2.432-.85-.849 2.434-2.433a.6.6 0 0 0 .134-.643 2.4 2.4 0 0 1 2.08-3.269" clip-rule="evenodd"/></g><defs><clipPath id="a"><path fill="#fff" d="M0 0h12v12H0z"/></clipPath></defs></svg>