<svg width="14" height="14" viewBox="0 0 14 14" fill="none" xmlns="http://www.w3.org/2000/svg"><path d="M7.961 1.308 C 7.450 1.385,7.148 1.477,6.723 1.686 C 6.070 2.007,5.600 2.397,5.168 2.976 C 4.467 3.917,4.189 5.179,4.435 6.312 L 4.484 6.539 3.051 7.977 C 1.605 9.429,1.351 9.698,1.292 9.838 C 1.250 9.940,1.251 10.136,1.296 10.285 C 1.327 10.391,1.382 10.459,1.725 10.821 C 2.274 11.400,3.370 12.479,3.523 12.592 C 3.732 12.746,3.904 12.777,4.148 12.704 C 4.305 12.658,4.353 12.613,6.067 10.904 L 7.455 9.521 7.681 9.566 C 8.421 9.716,9.121 9.674,9.835 9.440 C 10.738 9.143,11.464 8.603,12.008 7.826 C 12.287 7.429,12.559 6.781,12.674 6.248 C 12.744 5.918,12.751 5.048,12.685 4.728 C 12.545 4.046,12.397 3.714,12.171 3.582 C 11.923 3.437,11.621 3.453,11.404 3.623 C 11.337 3.676,10.887 4.110,10.406 4.589 L 9.530 5.459 9.035 4.963 L 8.540 4.468 9.231 3.780 C 10.028 2.986,10.407 2.579,10.467 2.455 C 10.526 2.334,10.522 2.052,10.460 1.912 C 10.314 1.585,9.765 1.363,8.902 1.284 C 8.544 1.251,8.295 1.257,7.961 1.308 M8.248 2.759 C 8.197 2.814,7.950 3.068,7.699 3.325 C 7.025 4.013,6.936 4.115,6.895 4.254 C 6.851 4.404,6.851 4.533,6.895 4.683 C 6.924 4.781,6.980 4.855,7.207 5.102 C 7.630 5.560,9.027 6.933,9.157 7.018 C 9.306 7.116,9.429 7.148,9.595 7.133 C 9.839 7.111,9.899 7.065,10.649 6.324 C 11.219 5.761,11.343 5.648,11.332 5.705 C 11.324 5.744,11.307 5.840,11.293 5.919 C 11.254 6.146,11.164 6.424,11.052 6.659 C 10.701 7.401,10.088 7.918,9.275 8.155 C 8.876 8.272,8.246 8.272,7.828 8.156 C 7.272 8.000,7.136 7.993,6.936 8.110 C 6.868 8.150,6.263 8.735,5.377 9.617 L 3.930 11.058 3.435 10.563 L 2.940 10.068 4.086 8.925 C 5.539 7.475,5.908 7.084,5.945 6.960 C 5.993 6.802,5.978 6.632,5.895 6.346 C 5.785 5.974,5.754 5.715,5.770 5.314 C 5.787 4.894,5.854 4.619,6.028 4.261 C 6.317 3.665,6.700 3.273,7.280 2.977 C 7.564 2.833,7.748 2.769,8.053 2.708 C 8.354 2.648,8.352 2.647,8.248 2.759 " fill="#1A1C1F" stroke="none" fill-rule="evenodd"></path></svg>