<svg width="28" height="28" viewBox="0 0 28 28" fill="none" xmlns="http://www.w3.org/2000/svg"><path d="M17.939 1.541 C 15.179 1.808,12.759 3.497,11.573 5.985 C 10.753 7.707,10.583 9.515,11.065 11.406 L 11.159 11.776 6.354 16.586 C 2.194 20.750,1.541 21.422,1.497 21.583 C 1.349 22.134,1.316 22.092,3.682 24.348 C 5.724 26.296,5.972 26.504,6.253 26.505 C 6.654 26.508,6.474 26.675,11.508 21.645 L 16.273 16.885 16.618 16.981 C 18.893 17.614,21.444 17.126,23.371 15.689 C 25.734 13.926,26.910 11.003,26.436 8.073 C 26.315 7.329,26.051 6.491,25.843 6.194 C 25.657 5.928,25.180 5.802,24.841 5.929 C 24.769 5.956,23.943 6.744,23.006 7.679 L 21.302 9.379 19.984 8.061 L 18.667 6.743 20.327 5.086 C 21.239 4.175,22.027 3.352,22.076 3.257 C 22.237 2.949,22.183 2.572,21.942 2.317 C 21.459 1.806,19.375 1.402,17.939 1.541 " fill="#1A1C1F" stroke="none" fill-rule="evenodd"></path></svg>