<svg xmlns="http://www.w3.org/2000/svg" width="32" height="32" fill="none"><path fill="#1A1C1F" fill-rule="evenodd" d="M20.502 1.761a9.02 9.02 0 0 0-7.275 5.079q-1.407 2.953-.581 6.196l.108.422-5.493 5.498c-4.754 4.758-5.5 5.526-5.55 5.711-.169.629-.207.581 2.497 3.16 2.334 2.225 2.617 2.463 2.939 2.465.458.003.252.193 6.005-5.555l5.446-5.44.394.11c2.6.723 5.515.166 7.718-1.477a9.03 9.03 0 0 0 3.502-8.703c-.138-.851-.44-1.809-.677-2.148-.213-.304-.758-.448-1.145-.303-.082.031-1.026.931-2.097 2l-1.948 1.943-1.506-1.506-1.506-1.507 1.897-1.893c1.044-1.041 1.944-1.982 2-2.091a.94.94 0 0 0-.153-1.074c-.552-.584-2.934-1.045-4.575-.887m1.623 2.007.285.035-1.653 1.658c-.909.913-1.692 1.736-1.738 1.83-.109.216-.11.602-.003.857.056.135.801.918 2.307 2.427 1.223 1.226 2.314 2.291 2.425 2.368.24.167.63.218.926.123.16-.052.58-.439 1.894-1.746l1.689-1.678.039.364c.057.532-.011 1.685-.13 2.207-.471 2.069-1.78 3.768-3.633 4.716a6.85 6.85 0 0 1-3.233.777c-.776.001-1.334-.09-2.153-.351-.628-.2-.866-.233-1.147-.163-.116.03-1.615 1.494-5.493 5.369l-5.334 5.328-.986-.94-1.541-1.471-.554-.53 5.339-5.341c3.771-3.772 5.363-5.399 5.421-5.539.115-.28.106-.355-.128-1.077-.502-1.541-.493-3.179.024-4.618.499-1.386 1.481-2.656 2.655-3.432.973-.644 1.85-.978 3.077-1.172.228-.036 1.346-.036 1.645-.001"/></svg>