<svg width="12" height="12" viewBox="0 0 12 12" fill="none" xmlns="http://www.w3.org/2000/svg"><path d="M7.020 1.093 C 6.123 1.182,5.374 1.542,4.748 2.183 C 4.259 2.684,3.971 3.220,3.810 3.930 C 3.702 4.406,3.699 4.916,3.801 5.408 L 3.842 5.606 2.615 6.838 C 1.375 8.083,1.158 8.313,1.108 8.433 C 1.071 8.520,1.073 8.688,1.111 8.816 C 1.137 8.906,1.184 8.965,1.478 9.275 C 1.944 9.766,2.887 10.695,3.020 10.794 C 3.190 10.921,3.352 10.950,3.556 10.889 C 3.689 10.850,3.729 10.813,5.210 9.338 L 6.390 8.163 6.580 8.201 C 7.227 8.328,7.828 8.292,8.440 8.088 C 9.500 7.735,10.288 6.982,10.691 5.940 C 10.955 5.257,10.992 4.495,10.799 3.746 C 10.696 3.345,10.595 3.163,10.419 3.063 C 10.212 2.945,9.957 2.962,9.775 3.106 C 9.717 3.151,9.332 3.524,8.919 3.933 L 8.168 4.678 7.744 4.255 L 7.321 3.831 8.067 3.081 C 8.477 2.668,8.850 2.280,8.895 2.220 C 8.940 2.159,8.988 2.067,9.001 2.014 C 9.063 1.766,8.922 1.474,8.680 1.351 C 8.319 1.166,7.525 1.043,7.020 1.093 " fill="#1A1C1F" stroke="none" fill-rule="evenodd"></path></svg>