<svg width="14" height="14" viewBox="0 0 14 14" fill="none" xmlns="http://www.w3.org/2000/svg"><path d="M8.097 1.286 C 7.108 1.398,6.245 1.824,5.539 2.547 C 5.060 3.038,4.760 3.537,4.550 4.192 C 4.326 4.890,4.287 5.602,4.434 6.309 L 4.482 6.540 3.051 7.978 C 1.605 9.429,1.351 9.698,1.292 9.838 C 1.250 9.940,1.251 10.136,1.296 10.285 C 1.327 10.391,1.382 10.459,1.725 10.821 C 2.274 11.400,3.370 12.479,3.523 12.592 C 3.732 12.746,3.904 12.777,4.148 12.704 C 4.305 12.658,4.353 12.613,6.067 10.904 L 7.455 9.521 7.681 9.566 C 8.421 9.716,9.121 9.674,9.835 9.440 C 10.738 9.143,11.464 8.603,12.008 7.826 C 12.287 7.429,12.559 6.781,12.674 6.248 C 12.744 5.918,12.751 5.048,12.685 4.728 C 12.541 4.026,12.396 3.711,12.152 3.572 C 11.912 3.434,11.618 3.455,11.404 3.623 C 11.337 3.677,10.887 4.111,10.405 4.589 L 9.529 5.458 9.035 4.964 L 8.541 4.470 9.412 3.594 C 9.890 3.112,10.325 2.661,10.378 2.590 C 10.540 2.372,10.561 2.154,10.445 1.904 C 10.342 1.684,10.191 1.575,9.835 1.463 C 9.289 1.292,8.634 1.225,8.097 1.286 " fill="#1A1C1F" stroke="none" fill-rule="evenodd"></path></svg>