<svg width="28" height="28" viewBox="0 0 28 28" fill="none" xmlns="http://www.w3.org/2000/svg"><path d="M17.296 1.634 C 14.618 2.120,12.333 3.989,11.363 6.486 C 10.955 7.538,10.807 8.312,10.811 9.380 C 10.814 10.126,10.887 10.710,11.065 11.406 L 11.160 11.777 6.919 16.027 C 4.586 18.364,2.412 20.554,2.089 20.893 C 1.547 21.460,1.497 21.527,1.466 21.731 C 1.404 22.148,1.573 22.344,3.920 24.571 C 5.795 26.350,5.987 26.507,6.302 26.507 C 6.635 26.507,6.519 26.616,12.043 21.104 L 16.270 16.887 16.663 16.988 C 17.613 17.230,18.483 17.307,19.320 17.223 C 23.224 16.829,26.116 13.937,26.509 10.033 C 26.660 8.544,26.192 6.359,25.651 6.025 C 25.422 5.883,25.030 5.845,24.837 5.945 C 24.756 5.987,23.926 6.775,22.993 7.698 L 21.297 9.374 19.982 8.059 L 18.667 6.743 19.884 5.530 C 21.622 3.798,22.107 3.269,22.145 3.062 C 22.252 2.493,21.883 2.121,20.941 1.848 C 20.211 1.636,19.771 1.578,18.760 1.560 C 17.956 1.545,17.722 1.557,17.296 1.634 M19.284 3.297 L 19.598 3.327 18.146 4.799 C 17.238 5.719,16.669 6.333,16.625 6.437 C 16.511 6.711,16.572 7.056,16.782 7.318 C 16.879 7.438,17.800 8.381,18.829 9.413 C 20.790 11.379,20.907 11.477,21.296 11.479 C 21.395 11.480,21.551 11.445,21.642 11.401 C 21.733 11.358,22.465 10.674,23.267 9.883 L 24.725 8.443 24.760 8.807 C 24.809 9.322,24.713 10.432,24.574 10.943 C 23.931 13.320,21.992 15.050,19.553 15.425 C 18.660 15.562,17.856 15.502,16.919 15.228 C 16.610 15.138,16.218 15.053,16.048 15.039 L 15.739 15.015 15.044 15.683 C 14.663 16.051,12.534 18.163,10.313 20.377 L 6.277 24.404 5.437 23.605 C 4.975 23.166,4.370 22.585,4.093 22.314 L 3.589 21.822 7.595 17.806 C 12.718 12.671,13.006 12.373,13.045 12.162 C 13.068 12.043,13.036 11.864,12.932 11.517 C 12.726 10.829,12.658 10.501,12.598 9.899 C 12.380 7.702,13.437 5.511,15.307 4.281 C 16.490 3.503,17.865 3.163,19.284 3.297 " fill="#1A1C1F" stroke="none" fill-rule="evenodd"></path></svg>