<svg width="28" height="28" viewBox="0 0 28 28" fill="none" xmlns="http://www.w3.org/2000/svg"><path d="M17.296 1.634 C 14.618 2.120,12.333 3.989,11.363 6.486 C 10.955 7.538,10.807 8.312,10.811 9.380 C 10.814 10.126,10.887 10.710,11.065 11.406 L 11.160 11.777 6.919 16.027 C 4.586 18.364,2.412 20.554,2.089 20.893 C 1.547 21.460,1.497 21.527,1.466 21.731 C 1.404 22.148,1.573 22.344,3.920 24.571 C 5.795 26.350,5.987 26.507,6.302 26.507 C 6.635 26.507,6.519 26.616,12.043 21.104 L 16.270 16.887 16.663 16.988 C 17.613 17.230,18.483 17.307,19.320 17.223 C 23.224 16.829,26.116 13.937,26.509 10.033 C 26.660 8.544,26.192 6.359,25.651 6.025 C 25.422 5.883,25.030 5.845,24.837 5.945 C 24.756 5.987,23.926 6.775,22.993 7.698 L 21.297 9.374 19.982 8.059 L 18.667 6.743 19.884 5.530 C 21.622 3.798,22.107 3.269,22.145 3.062 C 22.252 2.493,21.883 2.121,20.941 1.848 C 20.211 1.636,19.771 1.578,18.760 1.560 C 17.956 1.545,17.722 1.557,17.296 1.634 " fill="#1A1C1F" stroke="none" fill-rule="evenodd"></path></svg>