<svg width="14" height="14" viewBox="0 0 14 14" fill="none" xmlns="http://www.w3.org/2000/svg"><path d="M8.178 1.275 C 7.880 1.311,7.703 1.341,7.502 1.392 C 6.274 1.700,5.217 2.598,4.705 3.767 C 4.351 4.575,4.255 5.490,4.437 6.319 L 4.486 6.539 2.923 8.105 C 1.158 9.875,1.245 9.770,1.265 10.102 C 1.272 10.222,1.292 10.312,1.329 10.383 C 1.365 10.455,1.712 10.820,2.435 11.545 C 3.599 12.713,3.608 12.720,3.896 12.736 C 4.011 12.742,4.083 12.732,4.188 12.693 C 4.323 12.643,4.392 12.578,5.892 11.081 L 7.455 9.521 7.675 9.566 C 8.626 9.761,9.585 9.632,10.453 9.190 C 11.602 8.605,12.393 7.562,12.671 6.265 C 12.742 5.933,12.760 5.243,12.708 4.888 C 12.661 4.572,12.576 4.235,12.480 3.983 C 12.345 3.629,12.091 3.455,11.749 3.482 C 11.670 3.489,11.561 3.517,11.503 3.546 C 11.431 3.582,11.103 3.892,10.465 4.529 L 9.531 5.460 9.036 4.964 L 8.540 4.468 9.462 3.547 C 10.445 2.565,10.486 2.515,10.515 2.270 C 10.544 2.028,10.427 1.767,10.226 1.629 C 10.029 1.494,9.469 1.336,9.002 1.285 C 8.790 1.262,8.337 1.256,8.178 1.275 " fill="#1A1C1F" stroke="none" fill-rule="evenodd"></path></svg>