<svg xmlns="http://www.w3.org/2000/svg" width="24" height="24" fill="none"><g clip-path="url(#a)"><path fill="#1A1C1F" fill-rule="evenodd" d="M14.825 1.69a7.5 7.5 0 0 0-7.166 9.719l-5.69 5.684a1 1 0 0 0 .005 1.42l3.543 3.505a1.03 1.03 0 0 0 1.436 0l5.653-5.662a7.5 7.5 0 0 0 9.719-7.165c0-.985-.22-2.144-.61-2.95a.994.994 0 0 0-1.585-.235l-3.276 3.268-2.116-2.114 3.27-3.274a1 1 0 0 0-.325-1.631 7.5 7.5 0 0 0-2.858-.564m0 2q.263 0 .525.027l-2.733 2.737a1 1 0 0 0 0 1.414l3.52 3.527c.42.426 1.064.36 1.424 0l2.737-2.732a5.5 5.5 0 0 1-7.646 5.583c-.413-.116-.76-.005-1.013.25l-5.4 5.405-2.143-2.107 5.425-5.417a1 1 0 0 0 .218-1.09 5.5 5.5 0 0 1 5.086-7.596" clip-rule="evenodd"/></g><defs><clipPath id="a"><path fill="#fff" d="M0 0h24v24H0z"/></clipPath></defs></svg>