<svg width="20" height="20" viewBox="0 0 20 20" fill="none" xmlns="http://www.w3.org/2000/svg"><path d="M10.565 2.031 C 10.205 2.049,10.163 2.058,9.925 2.176 C 9.443 2.414,9.115 2.841,9.032 3.339 C 9.008 3.477,8.998 3.887,9.005 4.425 L 9.017 5.288 9.117 5.485 C 9.304 5.849,9.652 6.030,10.089 5.989 C 10.474 5.953,10.766 5.757,10.911 5.436 C 10.972 5.302,10.982 5.204,10.994 4.642 L 11.007 4.000 12.004 4.000 L 13.000 4.000 13.001 4.542 C 13.002 5.977,13.146 6.524,13.884 7.900 C 14.482 9.013,14.794 9.658,14.884 9.967 L 14.967 10.250 14.989 13.120 L 15.011 15.990 13.878 16.007 L 12.745 16.023 12.538 16.134 C 12.126 16.353,11.954 16.714,12.036 17.185 C 12.080 17.435,12.194 17.624,12.400 17.787 C 12.647 17.983,12.654 17.983,14.533 17.983 L 16.250 17.983 16.405 17.907 C 16.592 17.815,16.847 17.551,16.935 17.358 C 16.996 17.221,16.999 17.097,16.999 13.700 L 17.000 10.183 16.871 9.664 C 16.709 9.010,16.563 8.670,15.906 7.417 C 15.001 5.692,15.037 5.814,15.001 4.350 C 14.978 3.405,14.967 3.262,14.908 3.096 C 14.761 2.691,14.478 2.375,14.087 2.182 C 13.882 2.081,13.790 2.057,13.513 2.032 C 13.158 2.000,11.196 1.999,10.565 2.031 M4.450 9.030 C 3.692 9.050,3.682 9.051,3.528 9.141 C 3.308 9.270,3.112 9.507,3.043 9.725 C 2.985 9.908,2.985 9.911,3.127 10.896 C 3.674 14.712,4.075 17.225,4.170 17.422 C 4.252 17.593,4.521 17.849,4.709 17.935 C 4.843 17.996,4.952 17.999,7.043 17.999 C 9.438 18.000,9.312 18.010,9.615 17.801 C 9.838 17.648,9.961 17.447,10.019 17.142 C 10.116 16.637,10.778 11.919,10.967 10.383 C 10.987 10.218,11.004 10.016,11.005 9.933 C 11.006 9.638,10.779 9.289,10.479 9.127 L 10.317 9.039 7.767 9.024 C 6.364 9.016,4.872 9.018,4.450 9.030 M8.849 11.206 C 8.836 11.319,8.681 12.440,8.503 13.697 L 8.181 15.983 7.048 15.992 L 5.915 16.001 5.825 15.375 C 5.776 15.031,5.616 13.921,5.468 12.907 C 5.321 11.893,5.200 11.058,5.200 11.051 C 5.200 11.019,5.548 11.011,7.162 11.006 L 8.873 11.000 8.849 11.206 " fill="#1A1C1F" stroke="none" fill-rule="evenodd"></path></svg>