<svg width="12" height="12" viewBox="0 0 12 12" fill="none" xmlns="http://www.w3.org/2000/svg"><path d="M6.339 1.219 C 6.123 1.229,6.098 1.235,5.955 1.305 C 5.666 1.449,5.469 1.704,5.419 2.003 C 5.405 2.086,5.399 2.332,5.403 2.655 L 5.410 3.173 5.470 3.291 C 5.582 3.509,5.791 3.618,6.053 3.593 C 6.285 3.572,6.459 3.454,6.547 3.262 C 6.583 3.181,6.589 3.122,6.596 2.785 L 6.604 2.400 7.202 2.400 L 7.800 2.400 7.800 2.707 C 7.800 3.578,7.888 3.916,8.331 4.740 C 8.698 5.424,8.887 5.816,8.936 5.995 C 8.981 6.159,8.982 6.175,8.994 7.877 L 9.006 9.594 8.327 9.604 L 7.647 9.614 7.523 9.680 C 7.315 9.791,7.214 9.952,7.213 10.170 C 7.213 10.365,7.262 10.499,7.374 10.611 C 7.563 10.800,7.608 10.805,8.807 10.797 C 9.743 10.790,9.751 10.790,9.843 10.744 C 9.955 10.689,10.108 10.530,10.161 10.415 C 10.198 10.333,10.199 10.258,10.200 8.220 L 10.200 6.110 10.123 5.799 C 10.025 5.405,9.937 5.200,9.543 4.450 C 9.369 4.120,9.194 3.772,9.153 3.676 C 9.032 3.395,9.019 3.300,9.001 2.600 C 8.987 2.043,8.980 1.957,8.945 1.858 C 8.857 1.614,8.687 1.425,8.452 1.309 C 8.325 1.246,8.276 1.234,8.097 1.219 C 7.872 1.200,6.711 1.200,6.339 1.219 M2.670 5.418 C 2.215 5.430,2.209 5.431,2.117 5.485 C 1.985 5.562,1.867 5.704,1.826 5.834 C 1.786 5.962,1.779 5.904,2.091 8.000 C 2.351 9.741,2.453 10.352,2.502 10.453 C 2.551 10.556,2.713 10.710,2.825 10.761 C 2.906 10.797,2.971 10.799,4.226 10.800 C 5.663 10.800,5.587 10.806,5.769 10.681 C 5.900 10.591,5.977 10.467,6.010 10.295 C 6.106 9.791,6.601 6.168,6.603 5.960 C 6.604 5.783,6.467 5.573,6.287 5.477 L 6.190 5.424 4.660 5.415 C 3.819 5.410,2.923 5.411,2.670 5.418 M5.310 6.722 C 5.302 6.789,5.209 7.462,5.102 8.217 L 4.909 9.590 4.229 9.595 L 3.549 9.601 3.495 9.225 C 3.466 9.019,3.369 8.352,3.281 7.744 C 3.192 7.136,3.120 6.635,3.120 6.630 C 3.120 6.611,3.329 6.607,4.297 6.603 L 5.324 6.600 5.310 6.722 " fill="#1A1C1F" stroke="none" fill-rule="evenodd"></path></svg>