<svg xmlns="http://www.w3.org/2000/svg" width="12" height="12" fill="none"><g clip-path="url(#a)"><path fill="#1A1C1F" fill-rule="evenodd" d="m2.413 5.4 3.6.001c.374 0 .643.34.596.69l-.586 4.185a.61.61 0 0 1-.586.524H3.034a.634.634 0 0 1-.597-.524l-.63-4.184a.604.604 0 0 1 .606-.692m2.92 1.203H3.11l.44 3.001h1.359zM6.6 2.4h1.203l-.004.599c0 .515.14 1.018.386 1.474l.55 1.018c.164.304.264.632.264.96V9.6l-1.201.002a.593.593 0 0 0-.598.598.6.6 0 0 0 .598.598l1.798.002a.613.613 0 0 0 .604-.598v-3.75c0-.528-.146-1.056-.404-1.524l-.551-1.032A1.9 1.9 0 0 1 8.999 3v-.839a.97.97 0 0 0-.973-.961H6.373a.97.97 0 0 0-.973.961v.85c0 .35.246.596.597.596A.585.585 0 0 0 6.6 3z" clip-rule="evenodd"/></g><defs><clipPath id="a"><path fill="#fff" d="M0 0h12v12H0z"/></clipPath></defs></svg>