<svg width="28" height="28" viewBox="0 0 28 28" fill="none" xmlns="http://www.w3.org/2000/svg"><path d="M16.005 1.816 C 15.556 1.904,15.049 2.297,14.848 2.713 C 14.701 3.017,14.654 3.371,14.654 4.167 C 14.653 5.779,14.561 6.084,13.316 8.610 C 12.618 10.026,12.585 10.179,12.884 10.591 C 13.121 10.918,13.537 11.011,13.941 10.828 C 14.195 10.713,14.294 10.558,14.951 9.240 C 16.205 6.724,16.363 6.204,16.413 4.422 L 16.439 3.500 17.296 3.500 L 18.153 3.500 18.154 4.142 C 18.155 4.928,18.223 5.786,18.316 6.187 C 18.441 6.725,18.711 7.371,19.441 8.874 C 20.306 10.656,20.506 11.106,20.605 11.488 C 20.737 11.995,20.764 13.261,20.765 18.955 L 20.767 24.493 18.885 24.508 L 17.003 24.523 16.809 24.652 C 16.702 24.722,16.573 24.863,16.521 24.965 C 16.275 25.447,16.565 26.106,17.070 26.213 C 17.165 26.233,18.094 26.250,19.133 26.250 L 21.023 26.250 21.348 26.133 C 21.784 25.977,22.150 25.640,22.375 25.190 L 22.540 24.861 22.540 18.448 L 22.540 12.035 22.404 11.466 C 22.198 10.608,22.090 10.345,21.165 8.447 C 20.282 6.636,20.107 6.223,20.024 5.758 C 19.997 5.607,19.954 4.956,19.929 4.312 C 19.876 2.938,19.837 2.778,19.450 2.355 C 19.139 2.014,18.899 1.880,18.501 1.822 C 18.141 1.770,16.264 1.766,16.005 1.816 M7.677 14.042 C 6.549 14.073,6.531 14.077,6.125 14.405 C 5.862 14.619,5.652 14.933,5.547 15.270 C 5.463 15.540,5.463 15.560,5.556 16.231 C 5.812 18.064,6.712 23.366,7.006 24.769 C 7.122 25.325,7.296 25.621,7.675 25.907 C 8.109 26.236,8.234 26.250,10.640 26.250 C 12.542 26.250,12.788 26.241,12.997 26.168 C 13.307 26.060,13.704 25.741,13.917 25.430 C 14.076 25.197,14.104 25.105,14.257 24.290 C 14.674 22.077,15.638 16.034,15.643 15.602 C 15.649 15.091,15.197 14.441,14.653 14.180 L 14.397 14.057 11.550 14.035 C 9.984 14.023,8.241 14.026,7.677 14.042 M13.885 15.925 C 13.870 16.008,13.554 17.914,13.182 20.160 C 12.810 22.406,12.494 24.301,12.479 24.372 L 12.453 24.500 10.566 24.500 C 9.227 24.500,8.680 24.485,8.680 24.449 C 8.680 24.421,8.553 23.651,8.399 22.739 C 8.244 21.827,8.130 21.067,8.146 21.052 C 8.161 21.036,8.703 21.013,9.349 21.000 C 10.666 20.974,10.698 20.966,10.985 20.611 C 11.109 20.457,11.130 20.393,11.130 20.167 C 11.129 19.844,11.015 19.595,10.789 19.422 L 10.624 19.297 9.234 19.280 C 7.993 19.265,7.841 19.255,7.821 19.187 C 7.808 19.144,7.681 18.428,7.538 17.593 C 7.395 16.759,7.266 16.020,7.252 15.951 C 7.228 15.830,7.236 15.825,7.452 15.808 C 7.576 15.798,9.079 15.786,10.794 15.782 L 13.911 15.773 13.885 15.925 " fill="#1A1C1F" stroke="none" fill-rule="evenodd"></path></svg>