<svg xmlns="http://www.w3.org/2000/svg" width="14" height="14" fill="none"><g clip-path="url(#a)"><path fill="#1A1C1F" fill-rule="evenodd" d="m2.815 6.3 4.2.001a.71.71 0 0 1 .695.806l-.683 4.882a.71.71 0 0 1-.683.611H3.54a.74.74 0 0 1-.697-.611l-.734-4.882a.705.705 0 0 1 .706-.807m3.406 1.403H3.628l.513 3.502h1.586zM7.7 2.8h1.403l-.004.699c0 .6.164 1.187.45 1.72l.642 1.187c.191.355.307.738.307 1.12V11.2l-1.4.003c-.384 0-.698.3-.698.697a.7.7 0 0 0 .697.697l2.099.003a.715.715 0 0 0 .704-.697V7.526c0-.615-.171-1.23-.472-1.777l-.643-1.204a2.2 2.2 0 0 1-.287-1.045v-.979A1.13 1.13 0 0 0 9.363 1.4H7.435A1.13 1.13 0 0 0 6.3 2.521v.991c0 .41.287.696.697.696S7.7 3.91 7.7 3.5z" clip-rule="evenodd"/></g><defs><clipPath id="a"><path fill="#fff" d="M0 0h14v14H0z"/></clipPath></defs></svg>