<svg width="16" height="16" viewBox="0 0 16 16" fill="none" xmlns="http://www.w3.org/2000/svg"><path d="M8.452 1.625 C 8.164 1.639,8.130 1.647,7.940 1.741 C 7.554 1.931,7.292 2.273,7.225 2.671 C 7.207 2.782,7.199 3.109,7.204 3.538 L 7.213 4.227 7.289 4.381 C 7.431 4.670,7.723 4.824,8.069 4.791 C 8.379 4.762,8.612 4.606,8.729 4.349 C 8.778 4.242,8.786 4.163,8.795 3.713 L 8.806 3.200 9.603 3.200 L 10.400 3.200 10.400 3.633 C 10.402 4.782,10.517 5.221,11.108 6.320 C 11.580 7.199,11.834 7.724,11.908 7.973 L 11.975 8.200 11.991 10.496 L 12.008 12.793 11.103 12.805 L 10.198 12.817 10.031 12.906 C 9.797 13.031,9.653 13.225,9.616 13.463 C 9.593 13.617,9.642 13.881,9.720 14.015 C 9.798 14.148,9.999 14.309,10.145 14.354 C 10.225 14.378,10.609 14.387,11.627 14.387 L 13.000 14.387 13.124 14.326 C 13.274 14.252,13.478 14.041,13.548 13.886 C 13.597 13.777,13.599 13.677,13.599 10.960 L 13.600 8.147 13.497 7.731 C 13.366 7.204,13.248 6.928,12.723 5.933 C 12.011 4.584,12.030 4.649,12.001 3.480 C 11.982 2.724,11.974 2.610,11.926 2.477 C 11.809 2.153,11.582 1.900,11.270 1.746 C 11.106 1.664,11.032 1.645,10.811 1.625 C 10.526 1.600,8.957 1.600,8.452 1.625 M3.613 7.224 C 2.948 7.240,2.946 7.240,2.823 7.313 C 2.647 7.416,2.489 7.606,2.434 7.780 C 2.388 7.926,2.388 7.929,2.501 8.717 C 2.942 11.793,3.260 13.779,3.336 13.937 C 3.402 14.075,3.617 14.279,3.767 14.348 C 3.875 14.396,3.962 14.399,5.634 14.399 C 7.551 14.400,7.449 14.408,7.692 14.241 C 7.866 14.121,7.969 13.957,8.013 13.727 C 8.140 13.063,8.800 8.243,8.803 7.960 C 8.806 7.711,8.629 7.435,8.383 7.302 L 8.253 7.232 6.267 7.220 C 5.174 7.213,3.980 7.215,3.613 7.224 M7.081 8.953 C 7.071 9.038,6.946 9.935,6.804 10.947 L 6.545 12.787 5.639 12.794 L 4.733 12.801 4.457 10.887 C 4.305 9.834,4.174 8.941,4.167 8.902 C 4.155 8.836,4.162 8.829,4.257 8.820 C 4.314 8.814,4.976 8.807,5.729 8.804 L 7.099 8.800 7.081 8.953 " fill="#1A1C1F" stroke="none" fill-rule="evenodd"></path></svg>