<svg xmlns="http://www.w3.org/2000/svg" width="32" height="32" fill="none"><g clip-path="url(#a)"><path fill="#1A1C1F" fill-rule="evenodd" d="M15.906 16c1.125 0 2 .906 2 2 0 .094 0 .219-.031.313l-1.656 10A2.01 2.01 0 0 1 14.249 30H9.938c-1 0-1.812-.719-1.968-1.687l-1.688-10C6.062 17.093 7.031 16 8.25 16zm0 2H8.25l.687 4h2.813c.563 0 1 .438 1 1 0 .531-.437 1-1 1h-2.5l.687 4h4.313zm-1.312-6.937 1.531-3.032c.437-.844.625-1.781.625-2.687V4c0-1.125.906-2 2-2h2c1.094 0 2 .875 2 2v1.344c0 .906.187 1.843.625 2.687l1.531 3.031a7.86 7.86 0 0 1 .844 3.563V28c0 1.094-.906 2-2 2h-4c-.563 0-1-.469-1-1 0-.562.437-1 1-1h4V14.625c0-.906-.219-1.844-.625-2.656l-1.531-3.063a7.86 7.86 0 0 1-.844-3.562V4h-2v1.344a7.86 7.86 0 0 1-.844 3.562l-1.531 3.063c-.156.344-.531.531-.875.531-.563 0-1-.437-1-1 0-.156.031-.281.094-.437" clip-rule="evenodd"/></g><defs><clipPath id="a"><path fill="#fff" d="M0 0h32v32H0z"/></clipPath></defs></svg>