<svg xmlns="http://www.w3.org/2000/svg" width="32" height="32" fill="none"><path fill="#1A1C1F" fill-rule="evenodd" d="M18.021 2.152c-.397.164-.599.314-.85.631-.347.438-.424.792-.424 1.931 0 1.93-.062 2.153-1.281 4.619-1.042 2.109-1.058 2.155-.859 2.587.178.384.458.56.892.56.314 0 .552-.105.738-.326.179-.212 1.761-3.376 2.007-4.012.349-.904.529-2.076.529-3.435V4h1.96l.029 1.187c.048 1.976.168 2.371 1.551 5.148.544 1.093 1.051 2.181 1.126 2.417.302.956.294.751.294 8.295V28l-2.093.001c-1.916.001-2.112.01-2.309.099a.97.97 0 0 0-.571.887c0 .237.097.486.26.667.322.357.44.373 2.71.372 1.087 0 2.116-.023 2.287-.051a2.03 2.03 0 0 0 1.546-1.163l.17-.359V13.68l-.123-.56c-.217-.988-.419-1.479-1.481-3.6-1.317-2.633-1.299-2.572-1.354-4.533-.034-1.245-.05-1.418-.155-1.689a2.02 2.02 0 0 0-.727-.928c-.444-.315-.625-.343-2.183-.342-1.328.001-1.403.007-1.689.124M7.773 16.057c-.768.184-1.42.922-1.509 1.706-.048.419 1.681 10.663 1.869 11.075.168.371.563.784.903.945.485.229.801.251 3.284.233 2.304-.017 2.322-.018 2.64-.145.438-.175.979-.713 1.132-1.124.171-.464 1.847-10.677 1.801-10.981a2.06 2.06 0 0 0-1.136-1.565l-.355-.174-4.214-.009c-2.354-.005-4.303.012-4.415.039m8.12 1.991c0 .041-1.602 9.714-1.628 9.832l-.027.12H9.94l-.331-1.933a82 82 0 0 1-.33-2c.001-.052.296-.067 1.294-.067.712 0 1.379-.024 1.482-.053.214-.059.551-.38.635-.604.144-.381-.007-.877-.347-1.136l-.201-.154-1.601-.026L8.94 22l-.333-1.92c-.184-1.056-.335-1.95-.337-1.987-.003-.052.793-.066 3.81-.066 2.097 0 3.813.009 3.813.021"/></svg>