<svg xmlns="http://www.w3.org/2000/svg" width="20" height="20" fill="none"><g clip-path="url(#a)"><path fill="#1A1C1F" fill-rule="evenodd" d="m4.022 9 5.998.002c.624 0 1.073.565.995 1.15l-.976 6.975c-.059.488-.488.854-.977.873H5.057a1.056 1.056 0 0 1-.996-.873l-1.048-6.974C2.915 9.547 3.397 9 4.022 9m4.866 2.004H5.183l.733 5.003h2.266zM11 4h2.005l-.007.998c0 .858.235 1.697.644 2.457l.917 1.697c.273.507.439 1.053.439 1.6V16l-2.002.004A.99.99 0 0 0 12 17a1 1 0 0 0 .996.996l2.998.004c.547 0 1.006-.469 1.006-.996v-6.252c0-.879-.244-1.758-.674-2.54l-.918-1.719c-.254-.469-.41-.966-.41-1.493V3.602c0-.88-.723-1.602-1.622-1.602h-2.754C9.721 2 9 2.723 9 3.602v1.416c0 .585.41.994.995.994S11 5.585 11 5z" clip-rule="evenodd"/></g><defs><clipPath id="a"><path fill="#fff" d="M0 0h20v20H0z"/></clipPath></defs></svg>