<svg width="24" height="24" viewBox="0 0 24 24" fill="none" xmlns="http://www.w3.org/2000/svg"><path d="M13.758 2.037 C 13.481 2.057,13.364 2.087,13.142 2.196 C 12.768 2.380,12.414 2.739,12.225 3.124 C 12.041 3.500,12.000 3.725,12.000 4.375 C 12.000 5.531,11.893 6.112,11.499 7.110 C 11.357 7.470,11.229 7.834,11.216 7.918 C 11.162 8.251,11.452 8.739,11.815 8.930 C 12.041 9.048,12.399 9.048,12.625 8.930 C 12.984 8.742,13.096 8.569,13.422 7.700 C 13.840 6.586,13.958 5.990,13.989 4.830 L 14.011 4.000 15.006 4.000 L 16.000 4.000 16.000 4.510 C 16.001 5.949,16.136 6.527,16.960 8.620 C 17.576 10.187,17.753 10.662,17.845 10.996 C 17.921 11.274,17.931 11.456,17.961 13.100 C 17.978 14.090,17.994 16.047,17.996 17.450 L 18.000 20.000 16.610 20.002 C 14.865 20.005,14.669 20.023,14.414 20.206 C 14.147 20.398,14.020 20.656,14.021 20.999 C 14.023 21.302,14.116 21.515,14.344 21.736 C 14.596 21.981,14.586 21.980,16.720 21.980 L 18.660 21.980 18.932 21.851 C 19.502 21.581,19.895 21.056,19.963 20.472 C 20.010 20.061,20.008 12.339,19.960 11.680 C 19.898 10.823,19.757 10.331,19.073 8.580 C 18.463 7.017,18.237 6.394,18.159 6.061 C 18.064 5.654,18.001 4.961,17.999 4.320 C 17.998 3.448,17.830 2.982,17.362 2.548 C 17.021 2.233,16.702 2.086,16.258 2.039 C 15.873 1.999,14.318 1.997,13.758 2.037 M5.313 11.040 L 4.607 11.060 4.434 11.181 C 4.235 11.322,4.099 11.506,4.033 11.729 C 3.978 11.910,4.012 12.248,4.522 16.588 C 4.936 20.106,5.073 21.190,5.126 21.360 C 5.191 21.567,5.339 21.744,5.551 21.869 L 5.740 21.980 8.500 21.980 L 11.260 21.980 11.446 21.871 C 11.646 21.753,11.825 21.563,11.885 21.406 C 11.934 21.277,12.136 19.681,12.458 16.880 C 13.027 11.916,13.033 11.845,12.892 11.580 C 12.788 11.384,12.631 11.234,12.420 11.130 C 12.266 11.053,12.150 11.050,9.140 11.035 C 7.424 11.027,5.702 11.029,5.313 11.040 M10.901 13.090 C 10.889 13.139,10.709 14.674,10.499 16.500 C 10.290 18.326,10.108 19.870,10.096 19.930 L 10.074 20.040 8.505 20.040 L 6.936 20.040 6.784 18.710 C 6.700 17.979,6.622 17.296,6.611 17.193 L 6.590 17.006 7.446 16.993 L 8.302 16.980 8.514 16.844 C 8.753 16.690,8.942 16.404,8.983 16.134 C 9.018 15.902,8.914 15.574,8.742 15.374 C 8.507 15.099,8.394 15.073,7.300 15.045 L 6.341 15.020 6.253 14.220 C 6.205 13.780,6.155 13.336,6.142 13.232 L 6.118 13.045 6.289 13.029 C 6.383 13.021,7.464 13.011,8.691 13.007 L 10.922 13.000 10.901 13.090 " fill="#1A1C1F" stroke="none" fill-rule="evenodd"></path></svg>