<svg width="32" height="32" viewBox="0 0 32 32" fill="none" xmlns="http://www.w3.org/2000/svg"><path d="M18.291 2.076 C 17.778 2.176,17.199 2.625,16.969 3.101 C 16.801 3.448,16.747 3.852,16.747 4.762 C 16.746 6.605,16.641 6.954,15.219 9.840 C 14.421 11.458,14.383 11.633,14.725 12.104 C 15.117 12.647,15.949 12.601,16.322 12.016 C 16.544 11.668,17.905 8.942,18.152 8.350 C 18.555 7.383,18.715 6.516,18.758 5.053 L 18.789 4.000 19.768 4.000 L 20.747 4.000 20.748 4.733 C 20.749 5.632,20.826 6.613,20.933 7.071 C 21.075 7.686,21.384 8.423,22.218 10.142 C 23.207 12.179,23.436 12.693,23.549 13.129 C 23.699 13.708,23.730 15.155,23.732 21.662 L 23.733 27.992 21.583 28.009 L 19.432 28.027 19.210 28.173 C 18.564 28.601,18.666 29.620,19.387 29.928 C 19.590 30.015,23.320 30.060,23.880 29.982 C 24.669 29.873,25.269 29.438,25.601 28.735 L 25.760 28.400 25.760 21.077 L 25.760 13.754 25.604 13.104 C 25.369 12.124,25.246 11.823,24.188 9.653 C 23.180 7.584,22.980 7.112,22.884 6.580 C 22.854 6.408,22.805 5.664,22.777 4.928 C 22.716 3.358,22.671 3.175,22.229 2.692 C 21.873 2.302,21.599 2.148,21.144 2.082 C 20.732 2.023,18.587 2.018,18.291 2.076 M8.773 16.048 C 7.484 16.083,7.464 16.088,7.000 16.463 C 6.699 16.707,6.459 17.066,6.339 17.451 C 6.243 17.760,6.243 17.783,6.350 18.550 C 6.680 20.912,7.857 27.781,8.077 28.627 C 8.228 29.207,8.766 29.733,9.383 29.903 C 9.697 29.990,9.983 30.000,12.160 30.000 C 14.333 30.000,14.614 29.990,14.853 29.907 C 15.209 29.782,15.662 29.419,15.905 29.063 C 16.087 28.797,16.118 28.691,16.294 27.760 C 16.770 25.231,17.872 18.325,17.877 17.831 C 17.884 17.247,17.367 16.504,16.747 16.206 L 16.453 16.065 13.200 16.040 C 11.411 16.027,9.419 16.030,8.773 16.048 M15.868 18.200 C 15.851 18.295,15.490 20.473,15.065 23.040 C 14.640 25.607,14.279 27.773,14.262 27.853 L 14.232 28.000 12.076 28.000 C 10.545 28.000,9.920 27.983,9.920 27.941 C 9.920 27.909,9.775 27.030,9.599 25.987 C 9.422 24.945,9.292 24.077,9.310 24.059 C 9.327 24.041,9.946 24.015,10.684 24.000 C 12.190 23.970,12.226 23.961,12.554 23.555 C 12.696 23.380,12.720 23.307,12.719 23.048 C 12.719 22.679,12.588 22.394,12.330 22.197 L 12.142 22.053 10.553 22.035 C 9.132 22.018,8.961 22.007,8.938 21.928 C 8.924 21.880,8.778 21.060,8.615 20.107 C 8.451 19.153,8.305 18.309,8.289 18.230 C 8.261 18.092,8.269 18.085,8.516 18.066 C 8.658 18.055,10.376 18.042,12.336 18.036 L 15.898 18.027 15.868 18.200 " fill="#1A1C1F" stroke="none" fill-rule="evenodd"></path></svg>