<svg xmlns="http://www.w3.org/2000/svg" width="28" height="28" fill="none"><g clip-path="url(#a)"><path fill="#1A1C1F" fill-rule="evenodd" d="M13.918 14c.984 0 1.75.793 1.75 1.75 0 .082 0 .191-.027.273l-1.45 8.75a1.76 1.76 0 0 1-1.722 1.477H8.695a1.74 1.74 0 0 1-1.722-1.477l-1.477-8.75C5.304 14.957 6.152 14 7.219 14zm0 1.75h-6.7l.602 3.5h2.461c.492 0 .875.383.875.875a.88.88 0 0 1-.875.875H8.094l.601 3.5h3.774zM12.77 9.68l1.34-2.653c.382-.738.546-1.558.546-2.351V3.5c0-.984.793-1.75 1.75-1.75h1.75c.957 0 1.75.766 1.75 1.75v1.176c0 .793.164 1.613.547 2.351l1.34 2.653a6.9 6.9 0 0 1 .738 3.117V24.5c0 .957-.793 1.75-1.75 1.75h-3.5a.88.88 0 0 1-.875-.875c0-.492.383-.875.875-.875h3.5V12.797c0-.793-.191-1.614-.547-2.324l-1.34-2.68a6.9 6.9 0 0 1-.738-3.117V3.5h-1.75v1.176c0 1.066-.246 2.16-.738 3.117l-1.34 2.68c-.137.3-.465.464-.765.464a.864.864 0 0 1-.876-.874c0-.137.028-.247.083-.383" clip-rule="evenodd"/></g><defs><clipPath id="a"><path fill="#fff" d="M0 0h28v28H0z"/></clipPath></defs></svg>