<svg xmlns="http://www.w3.org/2000/svg" width="16" height="16" fill="none"><g clip-path="url(#a)"><path fill="#1A1C1F" fill-rule="evenodd" d="m3.218 7.2 4.798.001c.5 0 .858.453.796.92l-.78 5.58c-.048.391-.391.683-.782.699H4.046a.845.845 0 0 1-.797-.698l-.839-5.58c-.078-.484.307-.922.808-.922M7.11 8.803H4.146l.586 4.003h1.813zM8.8 3.2h1.604l-.005.798c0 .687.187 1.358.515 1.966l.733 1.357c.218.406.351.843.351 1.28V12.8l-1.6.003a.79.79 0 0 0-.798.797.8.8 0 0 0 .797.797l2.398.003a.82.82 0 0 0 .805-.797V8.602c0-.704-.195-1.407-.54-2.032l-.734-1.375c-.203-.375-.328-.773-.328-1.195V2.882A1.29 1.29 0 0 0 10.701 1.6H8.497A1.29 1.29 0 0 0 7.2 2.882v1.132c0 .468.328.796.796.796S8.8 4.468 8.8 4z" clip-rule="evenodd"/></g><defs><clipPath id="a"><path fill="#fff" d="M0 0h16v16H0z"/></clipPath></defs></svg>