<svg xmlns="http://www.w3.org/2000/svg" width="24" height="24" fill="none"><g clip-path="url(#a)"><path fill="#1A1C1F" fill-rule="evenodd" d="M15 22h3.26c.96 0 1.74-.797 1.74-1.759v-7.924c0-.962-.194-1.923-.569-2.838l-1.03-2.602a5.6 5.6 0 0 1-.398-2.134v-.75C18.003 2.89 17.136 2 16.059 2h-2.131C12.874 2 12 2.914 12 3.993v.75c0 .727-.11 1.454-.392 2.125l-.329.775c-.258.634.235 1.386.939 1.386.398 0 .797-.259.938-.634l.305-.776c.375-.939.536-1.89.536-2.9V4h2.003v.72c0 1.008.182 1.96.558 2.9l1.032 2.583c.271.683.412 1.41.412 2.137V20H15c-.562 0-1 .437-1 1 0 .54.438 1 1 1M4.988 11l7.024.022c.538 0 1.052.422.982 1.125l-1.029 8.987c-.046.491-.49.866-.98.866H6.037a.97.97 0 0 1-.98-.866L4.007 12.1a.966.966 0 0 1 .98-1.1m1.127 2 .224 2.02h1.643a.996.996 0 1 1 0 1.993H6.573l.361 3.013h3.162l.817-7.024z" clip-rule="evenodd"/></g><defs><clipPath id="a"><path fill="#fff" d="M0 0h24v24H0z"/></clipPath></defs></svg>