<svg width="14" height="14" viewBox="0 0 14 14" fill="none" xmlns="http://www.w3.org/2000/svg"><path d="M7.395 1.422 C 7.144 1.434,7.114 1.441,6.948 1.523 C 6.610 1.690,6.381 1.989,6.322 2.337 C 6.306 2.434,6.299 2.720,6.304 3.096 L 6.312 3.698 6.378 3.833 C 6.502 4.086,6.758 4.221,7.061 4.192 C 7.332 4.167,7.536 4.031,7.638 3.805 C 7.681 3.712,7.688 3.642,7.696 3.249 L 7.705 2.800 8.402 2.800 L 9.100 2.800 9.100 3.179 C 9.101 4.179,9.204 4.571,9.719 5.530 C 10.152 6.336,10.368 6.785,10.427 7.000 L 10.482 7.198 10.494 9.196 L 10.507 11.193 9.716 11.205 C 8.952 11.216,8.921 11.218,8.820 11.269 C 8.495 11.433,8.367 11.676,8.425 12.022 C 8.455 12.204,8.532 12.334,8.680 12.451 C 8.853 12.588,8.858 12.588,10.173 12.588 L 11.375 12.588 11.484 12.535 C 11.615 12.470,11.793 12.285,11.854 12.150 C 11.897 12.055,11.899 11.968,11.899 9.590 L 11.900 7.128 11.810 6.765 C 11.696 6.306,11.593 6.067,11.134 5.192 C 10.770 4.498,10.645 4.241,10.596 4.083 C 10.534 3.883,10.517 3.700,10.501 3.022 C 10.485 2.382,10.477 2.283,10.435 2.168 C 10.333 1.884,10.135 1.663,9.861 1.527 C 9.717 1.456,9.653 1.440,9.459 1.422 C 9.211 1.400,7.837 1.400,7.395 1.422 M3.138 6.321 C 2.582 6.335,2.578 6.335,2.470 6.399 C 2.316 6.489,2.178 6.655,2.130 6.808 C 2.090 6.936,2.090 6.938,2.189 7.627 C 2.568 10.272,2.853 12.058,2.917 12.192 C 2.975 12.313,3.130 12.463,3.276 12.540 L 3.390 12.600 4.928 12.600 C 6.607 12.600,6.518 12.607,6.731 12.461 C 6.886 12.354,6.973 12.213,7.014 11.999 C 7.081 11.646,7.544 8.343,7.677 7.268 C 7.716 6.954,7.711 6.860,7.650 6.730 C 7.587 6.595,7.438 6.438,7.311 6.374 C 7.225 6.331,7.148 6.328,5.460 6.318 C 4.491 6.312,3.446 6.314,3.138 6.321 M6.196 7.834 C 6.187 7.908,6.078 8.693,5.954 9.578 L 5.727 11.188 4.935 11.194 L 4.142 11.201 3.900 9.526 C 3.767 8.605,3.652 7.823,3.646 7.789 C 3.636 7.731,3.641 7.726,3.725 7.717 C 3.774 7.712,4.354 7.706,5.013 7.704 L 6.211 7.700 6.196 7.834 " fill="#1A1C1F" stroke="none" fill-rule="evenodd"></path></svg>