<svg width="20" height="20" viewBox="0 0 20 20" fill="none" xmlns="http://www.w3.org/2000/svg"><path d="M6.264 2.179 C 5.842 2.293,5.435 2.701,5.120 3.325 L 5.032 3.500 4.848 3.500 C 4.541 3.500,4.284 3.677,3.886 4.163 C 3.528 4.602,3.288 5.084,3.129 5.687 C 3.058 5.957,3.051 6.053,3.051 6.770 L 3.050 7.557 2.821 7.593 C 2.213 7.687,2.042 7.945,1.959 8.894 C 1.821 10.482,2.520 12.623,3.498 13.602 C 3.816 13.921,3.960 13.974,4.272 13.887 C 4.382 13.857,4.546 13.794,4.636 13.749 L 4.799 13.666 4.915 13.897 C 5.151 14.365,5.663 15.043,6.024 15.365 C 6.215 15.535,6.433 15.634,6.614 15.633 C 6.768 15.633,7.042 15.491,7.156 15.352 C 7.432 15.017,7.380 14.644,6.995 14.217 C 6.625 13.805,6.309 13.376,6.218 13.158 L 6.173 13.053 6.593 12.827 C 6.823 12.703,7.062 12.553,7.122 12.495 C 7.454 12.173,7.384 11.641,6.972 11.351 C 6.853 11.268,6.798 11.251,6.640 11.253 C 6.425 11.255,6.376 11.274,5.300 11.775 C 4.616 12.093,4.363 12.200,4.294 12.200 C 4.243 12.200,3.849 11.346,3.738 10.996 C 3.561 10.436,3.492 10.032,3.488 9.517 L 3.483 9.051 5.333 8.912 C 8.376 8.683,8.657 8.650,8.814 8.502 C 9.063 8.268,9.144 7.862,8.994 7.594 C 8.858 7.350,8.713 7.266,8.287 7.182 C 8.177 7.160,8.177 7.221,8.284 6.294 C 8.337 5.836,8.337 5.794,8.285 5.637 C 8.251 5.537,8.177 5.418,8.101 5.343 L 7.974 5.217 8.104 4.959 C 8.272 4.625,8.391 4.267,8.433 3.969 C 8.529 3.294,8.179 2.739,7.425 2.368 C 6.959 2.138,6.621 2.083,6.264 2.179 M5.864 5.716 C 6.340 6.000,6.737 6.245,6.746 6.260 C 6.767 6.294,6.651 7.227,6.622 7.256 C 6.598 7.280,5.524 7.355,4.967 7.372 L 4.585 7.383 4.563 7.283 C 4.524 7.104,4.535 6.422,4.580 6.167 C 4.605 6.029,4.666 5.819,4.715 5.700 C 4.808 5.479,4.958 5.200,4.984 5.200 C 4.992 5.200,5.388 5.432,5.864 5.716 M12.808 7.625 L 12.817 9.117 13.567 9.117 L 14.317 9.117 14.325 7.625 L 14.334 6.133 13.567 6.133 L 12.799 6.133 12.808 7.625 M10.308 8.125 L 10.317 9.117 11.067 9.117 L 11.817 9.117 11.825 8.125 L 11.834 7.133 11.067 7.133 L 10.299 7.133 10.308 8.125 M8.568 12.370 C 8.570 14.831,8.598 15.589,8.701 15.917 C 8.968 16.774,9.610 17.437,10.442 17.715 C 10.794 17.833,11.537 17.879,12.750 17.858 C 13.827 17.839,14.035 17.803,14.550 17.551 C 15.087 17.288,15.475 16.905,15.732 16.386 C 15.973 15.900,16.067 15.342,16.067 14.401 L 16.067 13.867 16.151 13.867 C 16.350 13.867,16.770 13.754,17.029 13.631 C 17.359 13.475,17.736 13.125,17.879 12.842 C 18.353 11.905,17.866 10.911,16.729 10.496 L 16.457 10.397 12.512 10.377 L 8.567 10.356 8.568 12.370 M14.565 12.842 C 14.563 13.378,14.551 14.187,14.536 14.640 L 14.511 15.464 14.404 15.680 C 14.287 15.918,14.067 16.138,13.850 16.236 C 13.619 16.340,13.311 16.366,12.350 16.365 C 10.972 16.363,10.806 16.331,10.463 15.997 C 10.098 15.641,10.068 15.436,10.067 13.292 L 10.067 11.867 12.317 11.867 L 14.567 11.867 14.565 12.842 " fill="#1A1C1F" stroke="none" fill-rule="evenodd"></path></svg>