<svg xmlns="http://www.w3.org/2000/svg" width="14" height="14" fill="none"><g clip-path="url(#a)"><path fill="#1A1C1F" fill-rule="evenodd" d="M11.245 7.262c.753.026 1.4.529 1.4 1.225 0 .68-.624 1.208-1.4 1.223v.52c0 .556-.07.958-.25 1.289s-.425.573-.744.744c-.31.166-.616.236-1.128.248l-.847.001c-.61 0-.946-.066-1.288-.249a1.8 1.8 0 0 1-.744-.744c-.166-.31-.236-.617-.248-1.128l-.002-3.129zm-1.05 1.05h-3.15v2.046c.005.279.02.41.076.561a.94.94 0 0 0 .362.418c.1.054.273.124.645.124h.946c.399 0 .562-.06.682-.124a.75.75 0 0 0 .313-.313 1.4 1.4 0 0 0 .125-.59zM5.224 1.65c.735.36.833.998.535 1.644l-.185.362a.53.53 0 0 1 .253.52l-.109.853c.337-.042.612.172.637.458a.535.535 0 0 1-.485.585l-3.458.26c-.062.811.307 1.817.6 2.238l1.363-.646c.237-.12.491-.072.67.169.178.24.08.6-.133.73l-.595.308c.148.379.54.796.653.9a.525.525 0 1 1-.713.771 4 4 0 0 1-.428-.463 3.6 3.6 0 0 1-.469-.772l-.272.13a.525.525 0 0 1-.605-.112q-.648-.683-.95-1.818-.306-1.135-.086-2.05c.047-.196.211-.435.703-.417a4 4 0 0 1-.007-1.084 2.68 2.68 0 0 1 .9-1.653.53.53 0 0 1 .475-.115l.106-.202c.35-.67.838-.969 1.6-.596m3.044 3.337v1.4H7.22v-1.4zm1.75-.7v2.1H8.97v-2.1zm-6.534-.661c-.189.317-.29.55-.318.894q-.03.346.029.652l1.457-.073.09-.716z" clip-rule="evenodd"/></g><defs><clipPath id="a"><path fill="#fff" d="M0 0h14v14H0z"/></clipPath></defs></svg>