<svg xmlns="http://www.w3.org/2000/svg" width="32" height="32" fill="none"><path fill="#1A1C1F" fill-rule="evenodd" d="M10.381 3.068a3.25 3.25 0 0 0-1.394.8c-.238.239-.47.58-.899 1.32-.317.549-.586.999-.597.999-.01 0-.158-.084-.328-.187-.259-.156-.36-.186-.619-.187-.18 0-.379.036-.475.086-.389.201-1.131 1.035-1.531 1.72-.651 1.115-.946 2.537-.903 4.349l.021.872-.366.034c-.689.064-.913.287-1.091 1.085-.13.586-.127 2.462.006 3.321.406 2.629 1.368 5.017 2.689 6.674.493.618.85.712 1.53.401l.297-.136.219.434c1.1 2.188 2.742 3.714 4.546 4.226 1.023.29 1.329.15 1.88-.86.2-.367.255-.521.255-.714 0-.323-.162-.626-.437-.821-.182-.128-.274-.155-.529-.155-.355 0-.579.098-.784.343l-.143.169-.223-.101c-.749-.336-1.652-1.138-2.181-1.94-.281-.426-.817-1.433-.781-1.466.01-.009.907-.46 1.994-1.003 2.105-1.052 2.249-1.148 2.366-1.57.069-.248.069-.261 0-.509-.069-.251-.339-.565-.567-.66-.422-.176-.445-.167-3.404 1.29-1.522.749-2.796 1.35-2.833 1.336-.114-.044-.696-1.084-.971-1.734-.675-1.6-1.018-3.218-1.02-4.813l-.001-.837.28-.03c.387-.042 7.802-.511 8.071-.511h.219l.172.654c.203.771.333.996.671 1.16.646.312 1.413-.159 1.413-.868 0-.253-.532-2.286-.666-2.546-.11-.213-.441-.425-.732-.47l-.236-.036.174-.88a15 15 0 0 0 .177-1.017c.002-.074-.059-.26-.134-.411-.109-.219-.202-.316-.453-.468-.174-.106-.316-.212-.316-.237s.206-.4.458-.835c.788-1.356.879-1.602.879-2.351-.001-1.292-.744-2.36-1.962-2.822-.458-.174-1.264-.219-1.741-.098m1.27 2.098c.297.201.427.447.427.811 0 .279-.033.355-.525 1.214-.288.504-.547.931-.575.948-.063.039-1.697-.892-1.696-.966 0-.029.246-.472.546-.984.415-.709.588-.956.723-1.034.38-.221.762-.217 1.1.011m-2.57 4.25c1.297.75 2.377 1.381 2.399 1.403.04.04-.215 1.446-.274 1.508-.045.047-5.501.383-5.542.341-.019-.018-.034-.518-.035-1.111-.001-1.241.079-1.682.447-2.467.189-.405.569-1.037.623-1.037.012 0 1.084.614 2.382 1.363m12.322 2.985c-.159.096-.262.215-.362.42l-.14.285.016 1.194c.015 1.089.026 1.212.128 1.407.34.651 1.304.69 1.715.069l.147-.221v-1.284c0-1.161-.01-1.304-.103-1.492-.239-.48-.922-.664-1.401-.378m-2.603.863-.223.045c-.182.038-.45.293-.557.529-.142.313-.142 1.507.001 1.815a.89.89 0 0 0 .638.537c.461.119.897-.061 1.13-.467.122-.214.131-.281.131-.976 0-.712-.007-.758-.141-.988-.198-.336-.641-.56-.979-.495m-2.32 5.049a1.94 1.94 0 0 0-1.441 1.306c-.099.316-.106.492-.105 2.613.001 2.453.03 2.783.319 3.544.287.76 1.009 1.563 1.751 1.949.878.457 1.733.572 3.876.524 1.626-.037 2.12-.117 2.815-.455 1.282-.624 1.955-1.64 2.199-3.32l.028-.192.759-.03c.55-.022.855-.06 1.106-.14 1.896-.599 2.725-2.835 1.656-4.471a3.13 3.13 0 0 0-1.599-1.255l-.351-.119-5.36-.01c-4.085-.007-5.429.006-5.653.056m7.403 4.18c-.017 2.084-.024 2.243-.124 2.476-.256.601-.653.967-1.252 1.153-.253.079-.548.091-2.134.091-1.792 0-1.847-.003-2.141-.121-.622-.252-.975-.622-1.175-1.234-.107-.33-.116-.482-.138-2.471l-.023-2.12H23.9zm3.44-2.154c.205.085.502.409.549.598.07.277-.006.699-.163.905-.238.312-.488.395-1.189.397l-.6.001v-1.973h.615c.396 0 .677.025.788.072"/></svg>