<svg width="14" height="14" viewBox="0 0 14 14" fill="none" xmlns="http://www.w3.org/2000/svg"><path d="M4.385 1.525 C 4.090 1.605,3.805 1.890,3.584 2.328 L 3.523 2.450 3.392 2.450 C 3.232 2.450,3.136 2.494,2.976 2.640 C 2.538 3.040,2.250 3.588,2.145 4.219 C 2.120 4.369,2.113 5.090,2.136 5.210 L 2.150 5.288 1.982 5.314 C 1.570 5.378,1.442 5.549,1.377 6.125 C 1.344 6.421,1.348 6.697,1.389 7.016 C 1.522 8.036,1.931 9.003,2.449 9.522 C 2.671 9.745,2.772 9.782,2.990 9.721 C 3.068 9.700,3.182 9.656,3.245 9.624 L 3.359 9.566 3.441 9.728 C 3.645 10.134,4.086 10.684,4.347 10.858 C 4.545 10.990,4.793 10.959,4.971 10.781 C 5.207 10.543,5.183 10.270,4.897 9.952 C 4.637 9.664,4.417 9.363,4.352 9.211 L 4.321 9.137 4.615 8.979 C 4.954 8.796,5.070 8.696,5.111 8.549 C 5.175 8.318,5.089 8.092,4.880 7.946 C 4.799 7.889,4.755 7.875,4.659 7.875 C 4.516 7.875,4.416 7.913,3.718 8.239 C 3.232 8.465,3.054 8.540,3.005 8.540 C 2.970 8.540,2.694 7.942,2.617 7.697 C 2.492 7.305,2.444 7.023,2.441 6.662 L 2.438 6.336 3.733 6.238 C 5.933 6.073,6.060 6.057,6.185 5.937 C 6.352 5.777,6.400 5.503,6.296 5.316 C 6.200 5.145,6.099 5.086,5.801 5.027 C 5.724 5.012,5.724 5.055,5.799 4.406 C 5.836 4.085,5.836 4.056,5.799 3.946 C 5.776 3.876,5.724 3.793,5.671 3.740 L 5.582 3.652 5.673 3.472 C 5.790 3.238,5.874 2.987,5.903 2.778 C 5.970 2.306,5.726 1.918,5.198 1.657 C 4.871 1.496,4.635 1.458,4.385 1.525 M4.105 4.001 C 4.438 4.200,4.716 4.372,4.722 4.382 C 4.737 4.406,4.656 5.059,4.635 5.079 C 4.619 5.096,3.867 5.148,3.477 5.160 L 3.209 5.168 3.194 5.098 C 3.167 4.972,3.174 4.496,3.206 4.317 C 3.224 4.220,3.265 4.075,3.299 3.993 C 3.359 3.844,3.469 3.640,3.489 3.640 C 3.495 3.640,3.772 3.803,4.105 4.001 M8.966 5.338 L 8.972 6.382 9.497 6.382 L 10.022 6.382 10.028 5.338 L 10.034 4.293 9.497 4.293 L 8.960 4.293 8.966 5.338 M7.215 5.688 L 7.222 6.382 7.747 6.382 L 8.272 6.382 8.278 5.688 L 8.284 4.993 7.747 4.993 L 7.209 4.993 7.215 5.688 M5.998 8.659 C 5.999 10.382,6.019 10.912,6.090 11.142 C 6.278 11.743,6.727 12.206,7.312 12.402 C 7.562 12.485,8.033 12.514,8.902 12.500 C 9.681 12.487,9.821 12.464,10.185 12.285 C 10.561 12.101,10.832 11.834,11.013 11.470 C 11.181 11.130,11.247 10.740,11.247 10.081 L 11.247 9.707 11.322 9.707 C 11.459 9.706,11.780 9.616,11.952 9.529 C 12.157 9.426,12.424 9.170,12.515 8.989 C 12.849 8.329,12.500 7.630,11.691 7.340 L 11.518 7.278 8.757 7.263 L 5.997 7.249 5.998 8.659 M10.189 9.468 C 10.180 10.136,10.163 10.689,10.148 10.769 C 10.083 11.124,9.821 11.373,9.450 11.432 C 9.271 11.461,8.065 11.463,7.824 11.435 C 7.616 11.411,7.475 11.344,7.324 11.198 C 7.069 10.949,7.048 10.805,7.047 9.304 L 7.047 8.307 8.625 8.307 L 10.204 8.307 10.189 9.468 " fill="#1A1C1F" stroke="none" fill-rule="evenodd"></path></svg>