<svg width="24" height="24" viewBox="0 0 24 24" fill="none" xmlns="http://www.w3.org/2000/svg"><path d="M8.040 2.122 C 7.357 2.240,6.862 2.705,6.237 3.815 C 6.140 3.988,6.039 4.138,6.014 4.148 C 5.989 4.157,5.894 4.128,5.804 4.082 C 5.584 3.970,5.326 3.939,5.135 4.002 C 4.938 4.067,4.409 4.595,4.147 4.989 C 3.594 5.821,3.360 6.743,3.360 8.090 L 3.360 8.790 3.175 8.810 C 2.947 8.836,2.694 9.007,2.591 9.206 C 2.463 9.454,2.429 9.840,2.451 10.780 C 2.466 11.420,2.494 11.788,2.555 12.129 C 2.858 13.832,3.514 15.493,4.293 16.530 C 4.565 16.892,4.742 17.011,5.042 17.032 L 5.278 17.050 5.426 17.315 C 6.025 18.388,6.814 19.269,7.328 19.436 C 7.884 19.618,8.457 18.901,8.156 18.400 C 8.109 18.323,7.933 18.125,7.764 17.960 C 7.266 17.474,6.659 16.588,6.687 16.389 C 6.697 16.321,6.807 16.244,7.162 16.060 C 8.031 15.609,8.126 15.526,8.183 15.168 C 8.242 14.803,7.944 14.393,7.581 14.338 C 7.343 14.302,7.243 14.341,6.151 14.886 L 5.283 15.319 5.177 15.139 C 5.022 14.873,4.667 14.073,4.522 13.660 C 4.220 12.802,4.015 11.722,3.973 10.776 L 3.948 10.211 4.304 10.185 C 6.387 10.033,8.921 9.837,9.003 9.823 C 9.104 9.805,9.110 9.818,9.275 10.371 C 9.368 10.682,9.479 10.994,9.523 11.065 C 9.615 11.214,9.956 11.400,10.135 11.400 C 10.435 11.400,10.806 11.081,10.864 10.774 C 10.890 10.635,10.811 10.269,10.552 9.324 C 10.444 8.928,10.407 8.847,10.274 8.714 C 10.189 8.629,10.093 8.560,10.060 8.560 C 9.971 8.560,9.983 8.374,10.122 7.653 C 10.190 7.303,10.234 6.967,10.221 6.901 C 10.186 6.717,10.014 6.487,9.820 6.364 L 9.645 6.253 9.834 5.936 C 10.360 5.060,10.560 4.579,10.560 4.189 C 10.560 3.935,10.436 3.419,10.312 3.162 C 10.202 2.933,9.802 2.530,9.540 2.385 C 9.098 2.140,8.522 2.039,8.040 2.122 M8.782 3.687 C 8.931 3.789,9.040 3.988,9.040 4.158 C 9.040 4.278,8.917 4.528,8.552 5.148 L 8.336 5.517 7.858 5.243 C 7.538 5.059,7.382 4.947,7.386 4.903 C 7.393 4.815,7.872 3.988,8.017 3.812 C 8.234 3.548,8.513 3.503,8.782 3.687 M7.148 6.574 C 8.421 7.297,8.634 7.431,8.620 7.500 C 8.611 7.544,8.573 7.730,8.535 7.914 C 8.481 8.177,8.449 8.255,8.383 8.283 C 8.237 8.343,4.951 8.544,4.875 8.497 C 4.841 8.476,4.835 8.298,4.854 7.838 C 4.894 6.876,4.988 6.488,5.324 5.913 C 5.472 5.659,5.490 5.643,5.572 5.684 C 5.620 5.709,6.330 6.109,7.148 6.574 M16.129 7.737 C 15.890 7.814,15.625 8.044,15.514 8.270 C 15.423 8.456,15.421 8.484,15.422 9.640 C 15.422 10.448,15.438 10.872,15.471 10.984 C 15.537 11.205,15.799 11.495,16.009 11.580 C 16.229 11.669,16.611 11.669,16.831 11.580 C 17.042 11.495,17.304 11.204,17.368 10.984 C 17.435 10.758,17.435 8.604,17.369 8.378 C 17.228 7.898,16.611 7.580,16.129 7.737 M13.110 8.736 C 12.740 8.870,12.495 9.172,12.438 9.566 C 12.380 9.969,12.392 10.717,12.460 10.946 C 12.550 11.250,12.718 11.454,12.987 11.585 C 13.313 11.745,13.584 11.742,13.880 11.575 C 14.351 11.310,14.471 10.954,14.423 9.966 C 14.395 9.387,14.358 9.251,14.163 9.030 C 13.926 8.759,13.429 8.621,13.110 8.736 M12.660 12.718 C 11.839 12.747,11.710 12.776,11.356 13.002 C 11.105 13.164,10.790 13.503,10.669 13.743 C 10.448 14.178,10.439 14.260,10.415 15.980 C 10.402 16.860,10.410 17.949,10.431 18.400 C 10.467 19.160,10.480 19.248,10.597 19.599 C 10.884 20.453,11.359 20.995,12.151 21.368 C 12.739 21.646,12.823 21.655,14.940 21.656 C 16.757 21.658,16.830 21.655,17.126 21.570 C 18.365 21.215,19.110 20.412,19.342 19.180 C 19.379 18.982,19.422 18.794,19.438 18.762 C 19.455 18.727,19.588 18.684,19.777 18.652 C 20.624 18.509,21.276 18.146,21.759 17.550 C 22.495 16.640,22.606 15.309,22.036 14.239 C 21.654 13.521,20.766 12.861,20.055 12.764 C 19.715 12.717,13.702 12.680,12.660 12.718 M17.400 16.110 C 17.400 16.896,17.388 17.879,17.373 18.293 C 17.347 19.040,17.346 19.047,17.229 19.224 C 17.091 19.433,16.863 19.575,16.568 19.636 C 16.435 19.664,15.780 19.680,14.808 19.680 C 13.263 19.679,13.260 19.679,13.060 19.585 C 12.823 19.472,12.631 19.281,12.534 19.060 C 12.470 18.915,12.462 18.696,12.448 16.790 L 12.432 14.680 14.916 14.680 L 17.400 14.680 17.400 16.110 M19.814 14.783 C 20.240 14.996,20.379 15.224,20.379 15.704 C 20.379 15.988,20.366 16.047,20.271 16.190 C 20.138 16.391,19.949 16.539,19.722 16.619 C 19.421 16.726,19.440 16.790,19.440 15.680 C 19.440 14.533,19.418 14.585,19.814 14.783 " fill="#1A1C1F" stroke="none" fill-rule="evenodd"></path></svg>