<svg width="16" height="16" viewBox="0 0 16 16" fill="none" xmlns="http://www.w3.org/2000/svg"><path d="M5.011 1.743 C 4.674 1.834,4.348 2.160,4.096 2.660 L 4.026 2.800 3.873 2.800 C 3.675 2.801,3.506 2.895,3.294 3.123 C 2.867 3.585,2.658 3.962,2.504 4.549 C 2.447 4.766,2.441 4.842,2.441 5.418 L 2.440 6.049 2.297 6.067 C 1.757 6.134,1.599 6.390,1.556 7.267 C 1.493 8.520,2.094 10.231,2.841 10.930 C 3.058 11.133,3.188 11.174,3.417 11.110 C 3.506 11.085,3.637 11.035,3.709 10.999 L 3.839 10.933 3.932 11.118 C 4.121 11.492,4.531 12.034,4.819 12.292 C 4.972 12.428,5.146 12.507,5.291 12.506 C 5.415 12.506,5.634 12.393,5.725 12.282 C 5.946 12.014,5.904 11.715,5.596 11.373 C 5.300 11.044,5.047 10.701,4.974 10.526 L 4.939 10.442 5.249 10.277 C 5.623 10.078,5.750 9.976,5.820 9.818 C 5.977 9.464,5.695 9.000,5.324 9.000 C 5.161 9.000,5.047 9.044,4.249 9.416 C 3.700 9.671,3.490 9.760,3.437 9.760 C 3.408 9.760,3.197 9.342,3.079 9.050 C 2.890 8.581,2.762 7.905,2.778 7.467 L 2.787 7.241 4.267 7.129 C 6.880 6.933,6.941 6.925,7.090 6.755 C 7.211 6.618,7.257 6.501,7.257 6.332 C 7.257 6.028,6.993 5.762,6.690 5.760 C 6.547 5.759,6.544 5.744,6.594 5.328 C 6.677 4.645,6.677 4.657,6.627 4.506 C 6.598 4.419,6.542 4.330,6.480 4.270 L 6.379 4.174 6.483 3.967 C 6.976 2.987,6.801 2.318,5.940 1.894 C 5.567 1.710,5.297 1.666,5.011 1.743 M4.716 4.587 L 5.411 5.000 5.396 5.147 C 5.370 5.400,5.310 5.792,5.295 5.807 C 5.278 5.824,4.395 5.885,3.974 5.897 L 3.668 5.907 3.650 5.827 C 3.619 5.683,3.628 5.138,3.664 4.933 C 3.716 4.644,3.936 4.141,3.999 4.165 C 4.012 4.170,4.334 4.359,4.716 4.587 M10.246 6.100 L 10.253 7.293 10.853 7.293 L 11.453 7.293 11.460 6.100 L 11.467 4.907 10.853 4.907 L 10.239 4.907 10.246 6.100 M8.246 6.500 L 8.253 7.293 8.853 7.293 L 9.453 7.293 9.460 6.500 L 9.467 5.707 8.853 5.707 L 8.239 5.707 8.246 6.500 M6.855 9.896 C 6.856 11.867,6.879 12.471,6.961 12.733 C 7.163 13.382,7.637 13.898,8.244 14.133 C 8.580 14.263,8.743 14.277,9.880 14.279 C 10.877 14.280,10.930 14.277,11.160 14.219 C 11.806 14.055,12.320 13.654,12.588 13.104 C 12.779 12.714,12.853 12.270,12.853 11.521 L 12.853 11.093 12.921 11.093 C 13.080 11.093,13.416 11.003,13.623 10.905 C 13.887 10.780,14.189 10.500,14.303 10.274 C 14.683 9.524,14.293 8.729,13.383 8.397 L 13.166 8.318 10.010 8.301 L 6.853 8.285 6.855 9.896 M11.652 10.233 C 11.651 10.640,11.641 11.288,11.629 11.672 L 11.609 12.370 11.523 12.544 C 11.381 12.834,11.133 13.012,10.800 13.065 C 10.595 13.098,9.217 13.101,8.942 13.069 C 8.837 13.057,8.695 13.020,8.627 12.987 C 8.455 12.903,8.250 12.694,8.170 12.521 C 8.076 12.314,8.055 11.973,8.054 10.620 L 8.053 9.493 9.853 9.493 L 11.653 9.493 11.652 10.233 " fill="#1A1C1F" stroke="none" fill-rule="evenodd"></path></svg>