<svg xmlns="http://www.w3.org/2000/svg" width="32" height="32" fill="none"><g clip-path="url(#a)"><path fill="#1A1C1F" fill-rule="evenodd" d="M12.602 3.38A3 3 0 0 1 13.7 7.476l-.993 1.72.433.25a1 1 0 0 1 .481 1.056l-.331 1.714a1.01 1.01 0 0 1 1.055.624l.573 2.113a1 1 0 0 1-1.895.628l-.36-1.32-8.551.551c-.22 2.061.515 5.43 1.998 7.458l5.385-2.659a1 1 0 0 1 .993 1.733 233 233 0 0 1-3.965 1.981q1.109 2.633 3.212 3.527c.268-.508.9-.686 1.369-.43.469.258.644.813.445 1.273l-.473.833c-.217.375-.65.551-1.074.478-2.76-.478-4.492-3.047-5.286-4.805l-.445.221a.984.984 0 0 1-1.192-.232c-2.402-2.796-3.455-7.747-2.82-10.524.09-.394.4-.708.795-.782l.617-.046c-.12-2.157-.12-4.804 2.175-6.803.324-.282.794-.34 1.17-.124l.494.286.994-1.72a3 3 0 0 1 4.098-1.099m14.32 14.862a3 3 0 0 1 .177 5.995l-1.198.005c-.05.83-.2 1.38-.498 1.937a3.73 3.73 0 0 1-1.544 1.545c-.66.353-1.311.497-2.433.516l-1.933.002c-1.099 0-1.82-.15-2.508-.518a3.73 3.73 0 0 1-1.544-1.545c-.337-.63-.492-1.289-.516-2.24l-.003-3.415c0-.557.065-.892.252-1.242a1.9 1.9 0 0 1 .788-.788c.306-.164.6-.234 1.043-.248zm-3 2h-7v3.43c0 .791.085 1.194.283 1.564q.252.472.724.724c.333.178.692.264 1.338.28l2.306-.003c.69-.021 1.017-.103 1.343-.277q.47-.252.724-.724c.157-.294.238-.588.268-1.146zm3 0h-1v2h1a1 1 0 0 0 0-2m-8-7a1 1 0 0 1 1 1v1a1 1 0 0 1-2 0v-1a1 1 0 0 1 1-1m3-1a1 1 0 0 1 1 1v2a1 1 0 0 1-2 0v-2a1 1 0 0 1 1-1M6.692 8.035c-1.399 1.83-1.102 3.718-1.018 4.662l5.554-.347.296-1.526zm3.544-2.558-.994 1.72 1.733 1 .993-1.72a1 1 0 1 0-1.732-1" clip-rule="evenodd"/></g><defs><clipPath id="a"><path fill="#fff" d="M0 0h32v32H0z"/></clipPath></defs></svg>