<svg width="12" height="12" viewBox="0 0 12 12" fill="none" xmlns="http://www.w3.org/2000/svg"><path d="M3.759 1.307 C 3.505 1.376,3.261 1.620,3.072 1.995 L 3.019 2.100 2.905 2.100 C 2.715 2.100,2.546 2.226,2.277 2.567 C 2.102 2.787,1.960 3.092,1.881 3.412 C 1.840 3.578,1.795 4.070,1.811 4.183 C 1.815 4.209,1.822 4.298,1.827 4.382 L 1.836 4.533 1.696 4.555 C 1.327 4.612,1.225 4.766,1.175 5.336 C 1.092 6.289,1.512 7.574,2.099 8.161 C 2.290 8.353,2.376 8.384,2.563 8.332 C 2.629 8.314,2.728 8.277,2.782 8.249 L 2.879 8.200 2.949 8.338 C 3.090 8.619,3.398 9.026,3.615 9.219 C 3.843 9.423,4.071 9.430,4.261 9.241 C 4.464 9.038,4.443 8.803,4.197 8.530 C 3.975 8.283,3.786 8.025,3.731 7.895 L 3.704 7.831 3.937 7.708 C 4.065 7.640,4.204 7.555,4.247 7.519 C 4.474 7.328,4.443 6.994,4.183 6.811 C 4.110 6.760,4.078 6.750,3.983 6.752 C 3.854 6.753,3.813 6.769,3.180 7.065 C 2.771 7.255,2.618 7.320,2.576 7.320 C 2.546 7.320,2.309 6.807,2.243 6.598 C 2.136 6.262,2.095 6.019,2.093 5.711 L 2.090 5.431 3.450 5.327 C 5.157 5.197,5.215 5.189,5.310 5.077 C 5.498 4.852,5.486 4.582,5.280 4.418 C 5.217 4.368,5.152 4.345,4.972 4.309 C 4.906 4.296,4.906 4.333,4.970 3.776 C 5.002 3.499,5.002 3.477,4.970 3.379 C 4.948 3.314,4.906 3.247,4.860 3.202 L 4.784 3.130 4.862 2.976 C 4.963 2.775,5.034 2.560,5.060 2.381 C 5.117 1.977,4.908 1.644,4.455 1.421 C 4.175 1.283,3.972 1.250,3.759 1.307 M3.537 3.440 L 4.059 3.750 4.047 3.860 C 4.028 4.050,3.983 4.344,3.972 4.355 C 3.959 4.368,3.296 4.414,2.980 4.423 L 2.751 4.430 2.738 4.370 C 2.714 4.262,2.721 3.853,2.748 3.700 C 2.786 3.489,2.953 3.106,3.000 3.124 C 3.009 3.127,3.251 3.269,3.537 3.440 M7.685 4.575 L 7.690 5.470 8.140 5.470 L 8.590 5.470 8.595 4.575 L 8.600 3.680 8.140 3.680 L 7.680 3.680 7.685 4.575 M6.185 4.875 L 6.190 5.470 6.640 5.470 L 7.090 5.470 7.095 4.875 L 7.101 4.280 6.640 4.280 L 6.179 4.280 6.185 4.875 M5.141 7.422 C 5.142 8.900,5.159 9.353,5.221 9.550 C 5.308 9.829,5.432 10.035,5.639 10.241 C 5.868 10.470,6.167 10.629,6.462 10.680 C 6.661 10.715,7.890 10.730,8.136 10.701 C 8.732 10.632,9.196 10.321,9.440 9.830 C 9.583 9.541,9.640 9.204,9.640 8.643 L 9.640 8.325 9.758 8.312 C 9.921 8.293,10.107 8.237,10.260 8.160 C 10.420 8.079,10.653 7.853,10.727 7.705 C 11.014 7.140,10.714 6.540,10.021 6.292 L 9.873 6.238 7.506 6.226 L 5.140 6.213 5.141 7.422 M8.739 7.715 C 8.738 8.042,8.730 8.528,8.722 8.794 L 8.706 9.279 8.642 9.408 C 8.533 9.629,8.346 9.762,8.090 9.799 C 7.922 9.823,6.909 9.825,6.706 9.802 C 6.528 9.781,6.407 9.723,6.278 9.598 C 6.059 9.385,6.041 9.262,6.040 7.975 L 6.040 7.120 7.390 7.120 L 8.740 7.120 8.739 7.715 " fill="#1A1C1F" stroke="none" fill-rule="evenodd"></path></svg>