<svg xmlns="http://www.w3.org/2000/svg" width="20" height="20" fill="none"><g clip-path="url(#a)"><path fill="#1A1C1F" fill-rule="evenodd" d="M16.064 10.375c1.076.037 2 .754 2 1.75 0 .972-.891 1.725-2 1.747v.744c0 .792-.1 1.368-.356 1.84-.257.471-.607.819-1.064 1.063-.443.237-.88.337-1.611.353l-1.21.003c-.872 0-1.352-.095-1.84-.356a2.57 2.57 0 0 1-1.064-1.064c-.237-.443-.337-.88-.353-1.611l-.002-4.47zm-1.5 1.5h-4.5l.001 2.922c.007.398.027.586.109.802.081.215.321.493.516.597.142.076.39.177.922.177h1.351c.57 0 .803-.086.974-.177q.292-.156.448-.448c.09-.167.178-.51.178-.843zm-7.1-9.518c1.05.514 1.19 1.425.765 2.348l-.265.518c.259.158.4.447.362.742l-.155 1.22c.48-.06.873.245.91.654a.765.765 0 0 1-.694.835l-4.94.373c-.09 1.157.438 2.595.858 3.196l1.947-.923c.339-.172.7-.103.956.241s.115.857-.189 1.044l-.85.44c.21.54.77 1.136.932 1.286a.75.75 0 0 1-1.019 1.1 6 6 0 0 1-.61-.662 5.2 5.2 0 0 1-.67-1.102l-.39.185a.75.75 0 0 1-.864-.16c-.618-.647-1.067-1.517-1.357-2.597s-.335-2.057-.123-2.927c.068-.28.303-.622 1.005-.596q-.108-.893-.01-1.55a3.83 3.83 0 0 1 1.287-2.36.75.75 0 0 1 .678-.165l.151-.289c.499-.957 1.197-1.383 2.285-.851m4.35 4.768v2h-1.5v-2zm2.5-1v3h-1.5v-3zm-9.335-.946c-.27.454-.414.786-.455 1.279q-.041.493.041.93l2.082-.104.13-1.023z" clip-rule="evenodd"/></g><defs><clipPath id="a"><path fill="#fff" d="M0 0h20v20H0z"/></clipPath></defs></svg>