<svg xmlns="http://www.w3.org/2000/svg" width="24" height="24" fill="none"><g clip-path="url(#a)"><g clip-path="url(#b)"><path fill="#1A1C1F" fill-rule="evenodd" d="m10.269 5.19-.626 1.065c.5.204.638.601.574.918L9.95 8.518c.221.06.427.207.497.432q.072.226.41 1.5a.75.75 0 0 1-1.416.485L9.108 9.81l-5.175.4c.001 1.992.546 3.736 1.342 5.106l1.827-.921c.308-.16.746-.106.97.248s.166.864-.29 1.092l-1.158.596c.152.402.688 1.325 1.32 1.784a.75.75 0 1 1-.896 1.203c-.893-.665-1.557-1.826-1.766-2.306a.75.75 0 0 1-.802-.238c-1.324-1.578-2.367-4.873-1.972-7.36.05-.316.307-.633.87-.633q-.28-3.051 1.5-4.643c.24-.213.674-.315 1.136.06l.64-1.087c.556-.946 1.758-1.332 2.817-.786 1.059.545 1.376 1.88.798 2.863M8.64 7.412 5.515 5.639c-.344.408-.53.894-.629 1.466q-.098.573-.026 1.428L8.465 8.3zm13.779 8.265a2.994 2.994 0 0 1-3 2.999q-.075.907-.386 1.449c-.311.542-.666.899-1.166 1.166-.487.26-.955.366-1.76.383l-2.124.003c-.964 0-1.478-.1-2.014-.386a2.8 2.8 0 0 1-1.165-1.166c-.26-.486-.366-.955-.383-1.761l-.002-3.406c0-.557.064-.892.25-1.242a1.9 1.9 0 0 1 .79-.788c.306-.164.6-.233 1.043-.248l6.901.001c1.69-.034 3.015 1.399 3.015 2.996M8.734 3.635a.586.586 0 0 0-.787.237l-.628 1.066 1.02.576.637-1.086c.142-.242.096-.637-.242-.793m8.686 11.042-4.992.007-.001 3.814c.019.306.065.539.142.685.082.15.359.477.967.485s1.509.008 2.769 0c.4-.016.527-.09.62-.14a.8.8 0 0 0 .346-.345c.038-.07.127-.22.14-.622q.01-1.942.009-3.884m-3-5-.001 1a1 1 0 1 1-2 0v-1a1 1 0 0 1 2 0m2.999-1v2a1 1 0 1 1-2 0v-2a1 1 0 0 1 2 0m2.001 6v2.009c.646-.044 1-.496 1-1.008a.996.996 0 0 0-1-1" clip-rule="evenodd"/></g></g><defs><clipPath id="a"><path fill="#fff" d="M0 0h24v24H0z"/></clipPath><clipPath id="b"><path fill="#fff" d="M0 0h24v24H0z"/></clipPath></defs></svg>