<svg xmlns="http://www.w3.org/2000/svg" width="28" height="28" fill="none"><g clip-path="url(#a)"><path fill="#1A1C1F" fill-rule="evenodd" d="M11.027 2.957a2.625 2.625 0 0 1 .96 3.586l-.868 1.504.378.22a.875.875 0 0 1 .422.923l-.29 1.5a.88.88 0 0 1 .923.546l.501 1.849a.875.875 0 0 1-1.658.55l-.315-1.156-7.482.483c-.193 1.803.45 4.75 1.748 6.525l4.712-2.326a.875.875 0 0 1 .869 1.515 203 203 0 0 1-3.47 1.735q.97 2.304 2.81 3.085a.89.89 0 0 1 1.199-.375c.41.225.563.71.39 1.113l-.415.728a.9.9 0 0 1-.939.419c-2.415-.419-3.93-2.666-4.626-4.204l-.39.194a.86.86 0 0 1-1.042-.204c-2.102-2.446-3.023-6.779-2.467-9.208a.89.89 0 0 1 .695-.684l.54-.04C3.108 9.346 3.108 7.03 5.116 5.28a.89.89 0 0 1 1.024-.108l.432.25.87-1.505a2.625 2.625 0 0 1 3.586-.961m12.53 13.005a2.625 2.625 0 0 1 .154 5.246l-1.047.004c-.045.727-.176 1.208-.436 1.695a3.26 3.26 0 0 1-1.351 1.351c-.578.31-1.148.436-2.13.452l-1.69.002c-.962 0-1.593-.132-2.195-.454a3.26 3.26 0 0 1-1.351-1.351c-.295-.552-.43-1.128-.451-1.96l-.003-2.988c0-.488.056-.78.22-1.087a1.67 1.67 0 0 1 .69-.69c.268-.143.526-.204.912-.217zm-2.625 1.75h-6.125v3c0 .693.074 1.045.247 1.37q.22.413.633.633c.292.156.607.231 1.171.245l2.018-.003c.604-.018.89-.09 1.175-.242a1.5 1.5 0 0 0 .634-.634c.137-.256.209-.514.235-1.003zm2.625 0h-.875v1.75h.875a.875.875 0 0 0 0-1.75m-7-6.125c.483 0 .875.392.875.875v.875a.875.875 0 0 1-1.75 0v-.875c0-.483.392-.875.875-.875m2.625-.875c.483 0 .875.392.875.875v1.75a.875.875 0 0 1-1.75 0v-1.75c0-.483.392-.875.875-.875M5.856 7.031c-1.225 1.601-.964 3.253-.891 4.079l4.86-.304.258-1.335zm3.1-2.238-.87 1.505 1.517.875.87-1.505a.875.875 0 0 0-1.516-.875" clip-rule="evenodd"/></g><defs><clipPath id="a"><path fill="#fff" d="M0 0h28v28H0z"/></clipPath></defs></svg>