<svg width="32" height="32" viewBox="0 0 32 32" fill="none" xmlns="http://www.w3.org/2000/svg"><path d="M10.508 3.045 C 10.003 3.133,9.462 3.439,9.012 3.891 C 8.696 4.208,8.501 4.479,8.092 5.173 C 7.806 5.657,7.552 6.085,7.528 6.123 C 7.493 6.178,7.419 6.156,7.195 6.022 C 6.448 5.578,5.879 5.820,5.002 6.955 C 4.049 8.188,3.692 9.407,3.641 11.607 L 3.613 12.841 3.289 12.878 C 2.471 12.970,2.235 13.322,2.127 14.613 C 1.966 16.538,2.357 18.837,3.211 20.987 C 3.889 22.694,5.059 24.404,5.620 24.509 C 5.842 24.550,6.211 24.471,6.513 24.317 L 6.718 24.212 6.938 24.649 C 7.456 25.679,8.071 26.521,8.860 27.282 C 9.669 28.061,10.387 28.512,11.318 28.824 C 12.441 29.200,12.842 29.028,13.411 27.928 C 13.723 27.325,13.667 26.922,13.218 26.539 C 13.016 26.365,12.964 26.347,12.678 26.347 C 12.311 26.347,12.056 26.451,11.863 26.681 L 11.727 26.842 11.453 26.714 C 10.819 26.419,9.869 25.574,9.392 24.882 C 9.250 24.675,8.999 24.252,8.833 23.941 C 8.599 23.501,8.547 23.362,8.599 23.320 C 8.636 23.290,9.435 22.881,10.373 22.410 C 12.676 21.256,12.823 21.155,12.931 20.654 C 13.033 20.181,12.511 19.520,12.037 19.520 C 11.794 19.520,11.306 19.729,9.486 20.616 C 7.572 21.549,6.547 22.039,6.252 22.162 L 6.077 22.236 5.919 21.984 C 5.174 20.807,4.549 19.128,4.287 17.600 C 4.144 16.769,4.042 14.827,4.141 14.827 C 4.169 14.827,4.503 14.802,4.883 14.773 C 5.772 14.703,12.294 14.294,12.512 14.293 C 12.675 14.293,12.679 14.300,12.799 14.760 C 13.047 15.711,13.233 16.014,13.648 16.153 C 13.920 16.243,14.085 16.227,14.376 16.081 C 14.680 15.928,14.877 15.670,14.917 15.372 C 14.948 15.143,14.687 13.996,14.401 13.103 C 14.240 12.602,14.222 12.573,13.984 12.422 C 13.847 12.335,13.644 12.249,13.534 12.232 C 13.405 12.211,13.333 12.171,13.333 12.119 C 13.333 12.075,13.407 11.654,13.498 11.184 C 13.646 10.418,13.656 10.305,13.595 10.090 C 13.514 9.799,13.304 9.549,12.984 9.362 C 12.854 9.285,12.747 9.207,12.747 9.188 C 12.747 9.170,12.985 8.733,13.276 8.217 C 13.955 7.015,14.033 6.817,14.067 6.207 C 14.119 5.272,13.840 4.502,13.230 3.894 C 12.859 3.525,12.317 3.204,11.893 3.104 C 11.526 3.017,10.833 2.988,10.508 3.045 M11.633 5.166 C 11.926 5.352,12.053 5.598,12.053 5.977 C 12.053 6.276,11.895 6.617,11.259 7.693 L 10.983 8.160 10.651 7.994 C 10.330 7.833,9.480 7.341,9.348 7.240 C 9.271 7.180,9.381 6.946,9.896 6.080 C 10.446 5.153,10.600 5.019,11.123 5.015 C 11.330 5.014,11.448 5.049,11.633 5.166 M9.363 9.583 C 11.244 10.671,11.467 10.814,11.467 10.933 C 11.467 11.007,11.416 11.339,11.354 11.671 C 11.259 12.177,11.222 12.283,11.127 12.322 C 11.064 12.348,10.257 12.418,9.333 12.478 C 6.601 12.654,5.738 12.693,5.689 12.644 C 5.664 12.618,5.654 12.049,5.668 11.379 C 5.687 10.440,5.714 10.086,5.784 9.840 C 5.894 9.461,6.210 8.788,6.482 8.359 L 6.677 8.051 6.968 8.209 C 7.128 8.295,8.206 8.914,9.363 9.583 M21.579 12.322 C 21.378 12.382,21.138 12.613,21.003 12.875 C 20.903 13.070,20.897 13.164,20.915 14.289 C 20.934 15.427,20.942 15.505,21.057 15.708 C 21.430 16.363,22.349 16.384,22.771 15.747 L 22.933 15.502 22.932 14.511 C 22.930 13.360,22.877 12.863,22.739 12.672 C 22.518 12.367,21.976 12.203,21.579 12.322 M18.453 13.379 C 18.350 13.433,18.196 13.577,18.110 13.699 C 17.961 13.909,17.951 13.956,17.930 14.560 C 17.895 15.523,18.031 15.910,18.475 16.112 C 18.997 16.349,19.553 16.161,19.830 15.653 C 19.956 15.422,19.957 14.072,19.830 13.840 C 19.564 13.349,18.916 13.132,18.453 13.379 M17.307 18.287 C 16.386 18.320,16.334 18.328,16.039 18.477 C 15.659 18.668,15.292 19.052,15.103 19.455 L 14.960 19.760 14.963 22.293 C 14.965 24.738,14.969 24.842,15.083 25.253 C 15.445 26.564,16.373 27.569,17.593 27.969 C 18.326 28.210,18.640 28.240,20.347 28.238 C 22.133 28.235,22.669 28.183,23.313 27.947 C 24.154 27.640,24.883 27.051,25.295 26.345 C 25.525 25.950,25.772 25.217,25.866 24.653 L 25.930 24.267 26.366 24.267 C 27.009 24.267,27.647 24.173,28.019 24.024 C 28.648 23.771,29.282 23.180,29.609 22.542 C 29.762 22.244,29.920 21.574,29.919 21.231 C 29.916 20.023,29.096 18.867,27.929 18.428 L 27.588 18.300 22.927 18.276 C 20.364 18.263,17.835 18.267,17.307 18.287 M23.879 22.510 L 23.847 24.753 23.690 25.083 C 23.500 25.484,23.173 25.820,22.792 26.006 C 22.407 26.195,21.552 26.258,19.840 26.225 C 18.659 26.202,18.504 26.189,18.227 26.083 C 17.735 25.895,17.426 25.615,17.194 25.146 L 16.995 24.742 16.954 23.771 C 16.932 23.237,16.912 22.230,16.910 21.533 L 16.907 20.267 20.408 20.267 L 23.910 20.267 23.879 22.510 M27.401 20.390 C 27.667 20.533,27.893 20.879,27.893 21.141 C 27.892 21.942,27.499 22.240,26.444 22.240 L 25.920 22.240 25.920 21.248 L 25.920 20.256 26.573 20.276 C 27.064 20.292,27.270 20.320,27.401 20.390 " fill="#1A1C1F" stroke="none" fill-rule="evenodd"></path></svg>