<svg xmlns="http://www.w3.org/2000/svg" width="16" height="16" fill="none"><g clip-path="url(#a)"><path fill="#1A1C1F" fill-rule="evenodd" d="M12.85 8.3c.862.03 1.6.604 1.6 1.4 0 .778-.712 1.38-1.6 1.397v.596c0 .634-.078 1.094-.284 1.471a2.04 2.04 0 0 1-.85.851c-.355.19-.705.27-1.29.283l-.968.002c-.697 0-1.081-.076-1.472-.285a2.05 2.05 0 0 1-.85-.85c-.19-.355-.27-.705-.283-1.29L6.85 8.3zm-1.2 1.2h-3.6l.002 2.338c.006.318.021.469.087.64.065.173.257.396.413.479.114.06.312.142.738.142h1.08c.456 0 .643-.07.78-.142a.85.85 0 0 0 .358-.359 1.6 1.6 0 0 0 .143-.674zM5.97 1.886c.842.411.954 1.14.613 1.878l-.212.414c.207.126.32.358.29.594l-.125.976c.385-.048.7.196.728.523a.61.61 0 0 1-.555.668l-3.95.298c-.073.927.35 2.076.685 2.557l1.558-.738c.27-.138.56-.082.765.193s.091.685-.152.835l-.68.352c.169.432.616.909.746 1.029a.6.6 0 0 1-.815.88 4.6 4.6 0 0 1-.489-.53 4.1 4.1 0 0 1-.536-.881l-.311.148a.6.6 0 0 1-.691-.128c-.495-.518-.854-1.214-1.086-2.078-.231-.864-.268-1.646-.099-2.342.055-.224.242-.497.804-.476a4.7 4.7 0 0 1-.007-1.24c.11-.736.45-1.377 1.029-1.888a.6.6 0 0 1 .542-.132l.121-.231c.4-.766.958-1.107 1.828-.682M9.45 5.7v1.6h-1.2V5.7zm2-.8v2.4h-1.2V4.9zm-7.467-.756c-.216.362-.33.628-.364 1.022q-.032.394.033.745l1.666-.084.103-.818z" clip-rule="evenodd"/></g><defs><clipPath id="a"><path fill="#fff" d="M0 0h16v16H0z"/></clipPath></defs></svg>