<svg xmlns="http://www.w3.org/2000/svg" width="12" height="12" fill="none"><g clip-path="url(#a)"><path fill="#1A1C1F" fill-rule="evenodd" d="M9.638 6.225c.646.022 1.2.453 1.2 1.05 0 .583-.534 1.035-1.2 1.048v.446c0 .476-.06.821-.213 1.104a1.53 1.53 0 0 1-.639.638c-.266.143-.528.203-.966.212l-.726.002c-.524 0-.812-.057-1.104-.214a1.54 1.54 0 0 1-.638-.638c-.143-.266-.203-.528-.212-.967l-.002-2.681zm-.9.9h-2.7l.001 1.753c.004.24.016.352.065.481.05.13.193.296.31.359.085.045.234.106.553.106h.81c.343 0 .483-.052.585-.106a.64.64 0 0 0 .269-.27c.054-.1.107-.306.107-.505zm-4.26-5.71c.63.308.715.854.46 1.408l-.16.31c.156.095.24.269.217.446l-.093.732c.288-.036.524.147.546.392a.46.46 0 0 1-.416.501l-2.963.224c-.054.695.262 1.557.514 1.918l1.168-.554c.203-.103.42-.062.574.145a.454.454 0 0 1-.113.626l-.511.264c.127.324.462.682.56.772a.45.45 0 0 1-.612.66 3.4 3.4 0 0 1-.366-.397 3 3 0 0 1-.402-.662l-.234.111a.45.45 0 0 1-.518-.096q-.555-.584-.814-1.558-.263-.972-.074-1.756c.04-.169.181-.373.603-.358a3.5 3.5 0 0 1-.006-.93 2.3 2.3 0 0 1 .772-1.416.45.45 0 0 1 .407-.099l.09-.173c.3-.574.719-.83 1.371-.51m2.61 2.86v1.2h-.9v-1.2zm1.5-.6v1.8h-.9v-1.8zm-5.6-.567c-.163.272-.249.47-.274.767q-.024.296.025.558l1.25-.063.077-.613z" clip-rule="evenodd"/></g><defs><clipPath id="a"><path fill="#fff" d="M0 0h12v12H0z"/></clipPath></defs></svg>