<svg width="28" height="28" viewBox="0 0 28 28" fill="none" xmlns="http://www.w3.org/2000/svg"><path d="M9.195 2.664 C 8.753 2.742,8.279 3.010,7.886 3.404 C 7.609 3.682,7.439 3.919,7.080 4.527 C 6.830 4.950,6.608 5.324,6.587 5.358 C 6.556 5.406,6.492 5.386,6.295 5.269 C 5.642 4.881,5.144 5.093,4.377 6.086 C 3.543 7.165,3.231 8.232,3.186 10.156 L 3.161 11.236 2.878 11.268 C 2.352 11.328,2.163 11.470,2.007 11.924 C 1.795 12.537,1.775 14.120,1.964 15.307 C 2.121 16.299,2.446 17.461,2.840 18.444 C 3.377 19.782,4.376 21.270,4.840 21.423 C 5.042 21.490,5.290 21.453,5.624 21.305 L 5.881 21.191 6.072 21.571 C 6.524 22.469,7.063 23.207,7.752 23.872 C 8.460 24.554,9.089 24.948,9.903 25.221 C 10.886 25.550,11.237 25.400,11.735 24.437 C 11.983 23.957,11.965 23.633,11.673 23.318 C 11.494 23.124,11.329 23.053,11.058 23.053 C 10.772 23.053,10.543 23.152,10.380 23.346 L 10.261 23.487 10.021 23.375 C 9.467 23.117,8.636 22.378,8.218 21.771 C 8.094 21.591,7.874 21.220,7.729 20.948 C 7.524 20.563,7.478 20.442,7.524 20.405 C 7.557 20.379,8.255 20.021,9.077 19.609 C 9.898 19.197,10.700 18.776,10.859 18.673 C 11.201 18.451,11.310 18.272,11.312 17.933 C 11.314 17.637,11.134 17.348,10.848 17.186 C 10.492 16.985,10.387 17.020,8.293 18.042 C 6.648 18.844,5.737 19.280,5.471 19.392 L 5.318 19.456 5.179 19.236 C 4.527 18.206,3.981 16.737,3.751 15.400 C 3.626 14.673,3.537 12.973,3.624 12.973 C 3.648 12.973,3.940 12.952,4.272 12.926 C 5.054 12.865,10.758 12.507,10.949 12.507 C 11.085 12.507,11.100 12.523,11.150 12.728 C 11.377 13.653,11.530 13.942,11.875 14.099 C 12.130 14.215,12.306 14.208,12.579 14.071 C 12.845 13.937,13.018 13.711,13.052 13.451 C 13.079 13.250,12.851 12.247,12.600 11.465 C 12.460 11.027,12.444 11.001,12.236 10.869 C 12.116 10.793,11.939 10.718,11.842 10.703 C 11.729 10.685,11.667 10.650,11.667 10.604 C 11.667 10.566,11.731 10.198,11.811 9.786 C 11.940 9.116,11.949 9.017,11.896 8.828 C 11.825 8.574,11.641 8.355,11.361 8.191 C 11.247 8.124,11.153 8.056,11.153 8.040 C 11.153 8.024,11.362 7.641,11.616 7.190 C 12.210 6.138,12.279 5.965,12.308 5.431 C 12.354 4.613,12.110 3.940,11.576 3.407 C 11.252 3.084,10.778 2.804,10.407 2.716 C 10.085 2.640,9.479 2.614,9.195 2.664 M10.179 4.520 C 10.435 4.683,10.547 4.898,10.547 5.230 C 10.547 5.492,10.408 5.790,9.850 6.734 L 9.607 7.145 9.132 6.893 C 8.870 6.754,8.536 6.564,8.388 6.469 L 8.120 6.297 8.240 6.060 C 8.436 5.673,8.948 4.828,9.085 4.666 C 9.348 4.353,9.817 4.291,10.179 4.520 M7.817 8.170 C 8.715 8.690,9.581 9.191,9.741 9.283 C 10.083 9.479,10.078 9.452,9.935 10.212 C 9.851 10.656,9.819 10.747,9.736 10.781 C 9.547 10.859,5.041 11.126,4.978 11.063 C 4.956 11.041,4.947 10.543,4.958 9.957 C 4.974 9.153,4.998 8.823,5.056 8.618 C 5.148 8.296,5.434 7.689,5.670 7.316 L 5.840 7.048 6.012 7.136 C 6.106 7.184,6.918 7.649,7.817 8.170 M18.882 10.782 C 18.706 10.834,18.496 11.036,18.378 11.266 C 18.290 11.437,18.285 11.519,18.301 12.503 C 18.317 13.498,18.324 13.567,18.425 13.744 C 18.751 14.318,19.555 14.336,19.924 13.779 L 20.067 13.564 20.065 12.720 C 20.062 11.701,20.016 11.253,19.898 11.089 C 19.704 10.821,19.230 10.678,18.882 10.782 M16.155 11.698 C 15.809 11.869,15.681 12.196,15.681 12.903 C 15.681 13.631,15.803 13.933,16.165 14.098 C 16.623 14.305,17.110 14.141,17.351 13.697 C 17.462 13.492,17.464 12.311,17.353 12.110 C 17.119 11.686,16.566 11.496,16.155 11.698 M15.167 16.001 C 14.335 16.030,14.294 16.036,14.034 16.167 C 13.701 16.335,13.380 16.670,13.215 17.023 L 13.090 17.290 13.092 19.507 C 13.094 21.645,13.098 21.736,13.198 22.097 C 13.514 23.243,14.327 24.123,15.394 24.473 C 16.035 24.683,16.310 24.710,17.803 24.708 C 19.367 24.706,19.835 24.660,20.399 24.454 C 21.135 24.185,21.773 23.670,22.133 23.052 C 22.334 22.706,22.551 22.065,22.632 21.572 L 22.688 21.233 23.070 21.233 C 23.633 21.233,24.191 21.151,24.516 21.021 C 25.067 20.799,25.622 20.283,25.908 19.725 C 26.041 19.463,26.180 18.878,26.179 18.578 C 26.177 17.524,25.484 16.544,24.453 16.133 L 24.149 16.012 20.089 15.991 C 17.857 15.980,15.642 15.984,15.167 16.001 M20.893 19.702 L 20.865 21.670 20.725 21.953 C 20.552 22.305,20.268 22.597,19.944 22.755 C 19.604 22.921,18.878 22.976,17.383 22.947 C 16.326 22.927,16.192 22.915,15.948 22.822 C 15.518 22.658,15.248 22.413,15.045 22.003 L 14.870 21.649 14.835 20.800 C 14.816 20.332,14.798 19.451,14.797 18.842 L 14.793 17.733 17.857 17.733 L 20.922 17.733 20.893 19.702 M23.976 17.842 C 24.209 17.966,24.407 18.269,24.406 18.499 C 24.405 19.199,24.061 19.460,23.138 19.460 L 22.680 19.460 22.680 18.592 L 22.680 17.724 23.252 17.742 C 23.681 17.755,23.861 17.780,23.976 17.842 " fill="#1A1C1F" stroke="none" fill-rule="evenodd"></path></svg>