<svg xmlns="http://www.w3.org/2000/svg" width="32" height="32" fill="none"><path fill="#1A1C1F" fill-rule="evenodd" d="M14.613 2.084c-.174.073-.413.302-.524.503-.08.143-.091.488-.104 3.248-.017 3.319-.003 3.533.243 3.826.16.191.501.363.72.364.353.003.734-.257.898-.612.092-.199.098-.416.099-3.409.002-3.15 0-3.2-.111-3.431a.94.94 0 0 0-.811-.528 1.2 1.2 0 0 0-.41.039M10.8 4.053c-.24.054-.484.195-.606.349-.201.256-.227.604-.21 2.78.014 1.811.027 2.091.105 2.231.478.865 1.657.7 1.856-.259.041-.198.056-.954.045-2.337-.016-1.952-.022-2.053-.128-2.257-.198-.379-.657-.599-1.062-.507m7.947-.003c-.385.092-.629.349-.716.751-.036.168-.058 1.034-.058 2.285 0 2.21.024 2.417.306 2.687.419.402.994.4 1.376-.005.278-.295.283-.345.288-2.716.004-2.368-.002-2.426-.279-2.723a1 1 0 0 0-.917-.279M6.04 17.399l.017 5.401.124.373q.56 1.674 2.059 2.4c.876.424.562.406 6.933.389l5.654-.015.426-.15c1.32-.463 2.258-1.472 2.611-2.81.071-.268.099-.666.121-1.747l.029-1.4h.689c1.396 0 2.303-.339 3.137-1.173 1.021-1.022 1.396-2.421 1.012-3.786a3.96 3.96 0 0 0-2.753-2.735l-.419-.118-9.828-.016-9.829-.015zm15.933.839c0 4.192-.002 4.27-.111 4.562-.156.417-.59.873-1.02 1.072l-.335.155H9.464l-.354-.175c-.444-.219-.845-.641-1-1.054-.108-.29-.11-.377-.11-4.56v-4.265h13.973zm3.853-4.108c.4.154.828.546 1.03.945.143.283.157.36.157.845 0 .484-.014.562-.156.842a2.2 2.2 0 0 1-.979.934c-.277.128-.377.143-1.091.162l-.787.02V13.96l.76.026c.613.021.819.048 1.066.144M2.734 28.052c-.416.099-.72.504-.72.96 0 .388.26.77.616.905.105.039 4.159.056 13.37.056s13.265-.017 13.37-.056a1 1 0 0 0 .616-.911.97.97 0 0 0-.435-.819l-.227-.16-13.209-.008c-7.264-.005-13.286.01-13.381.033"/></svg>