<svg width="16" height="16" viewBox="0 0 16 16" fill="none" xmlns="http://www.w3.org/2000/svg"><path d="M7.600 3.200 L 7.600 4.800 8.400 4.800 L 9.200 4.800 9.200 3.200 L 9.200 1.600 8.400 1.600 L 7.600 1.600 7.600 3.200 M4.400 3.600 L 4.400 4.800 5.200 4.800 L 6.000 4.800 6.000 3.600 L 6.000 2.400 5.200 2.400 L 4.400 2.400 4.400 3.600 M2.000 9.203 L 2.001 12.013 2.078 12.271 C 2.186 12.628,2.288 12.861,2.439 13.094 C 2.843 13.719,3.383 14.108,4.153 14.330 L 4.397 14.400 6.400 14.400 L 8.403 14.400 8.648 14.330 C 9.395 14.115,9.962 13.710,10.345 13.118 C 10.648 12.649,10.767 12.245,10.793 11.597 L 10.808 11.207 11.411 11.193 C 11.918 11.180,12.045 11.169,12.212 11.121 C 13.384 10.783,14.108 9.725,13.976 8.545 C 13.910 7.964,13.669 7.477,13.250 7.078 C 12.965 6.808,12.659 6.628,12.251 6.492 L 12.040 6.422 7.020 6.407 L 2.000 6.392 2.000 9.203 M11.931 8.079 C 12.212 8.215,12.379 8.487,12.379 8.809 C 12.379 9.122,12.241 9.358,11.970 9.507 C 11.828 9.585,11.823 9.586,11.313 9.596 L 10.800 9.606 10.800 8.799 L 10.800 7.992 11.307 8.007 C 11.749 8.021,11.829 8.030,11.931 8.079 " fill="#1A1C1F" stroke="none" fill-rule="evenodd"></path></svg>