<svg xmlns="http://www.w3.org/2000/svg" width="16" height="16" fill="none"><g clip-path="url(#a)"><path fill="#1A1C1F" fill-rule="evenodd" d="M11.6 6.4c1.325 0 2.4 1.075 2.4 2.425 0 1.3-1.075 2.375-2.4 2.375h-.8v.4c0 1.55-1.25 2.8-2.8 2.8H4.8c-1.55 0-2.8-1.25-2.8-2.8V6.4zM9.2 8H3.6v3.6c0 .675.525 1.225 1.2 1.225H8c.675 0 1.2-.55 1.2-1.225zm2.4 0h-.8v1.6h.8c.45 0 .8-.35.8-.775 0-.475-.35-.825-.8-.825m-8-3.2h1.6V2.4H3.6zm3.2 0h1.6V1.6H6.8z" clip-rule="evenodd"/></g><defs><clipPath id="a"><path fill="#fff" d="M0 0h16v16H0z"/></clipPath></defs></svg>