<svg xmlns="http://www.w3.org/2000/svg" width="20" height="20" fill="none"><path fill="#1A1C1F" fill-rule="evenodd" d="M9.5 4v2h2V2h-2zm-4 .5V6h2V3h-2zm-2.992 7.024.009 3.526.091.331a3.55 3.55 0 0 0 2.521 2.514l.321.088h5.1l.321-.088c1.021-.283 1.829-.947 2.281-1.878.229-.469.318-.863.339-1.489l.018-.521.754-.015c.696-.014.776-.022 1.046-.104 1.072-.324 1.821-1.096 2.111-2.174.094-.349.087-1.069-.015-1.445-.291-1.08-1.073-1.868-2.165-2.179l-.257-.073-6.242-.009-6.243-.009zm12.394-1.437a1 1 0 0 1 .488.473c.126.259.133.647.014.873a1.06 1.06 0 0 1-.454.462c-.161.085-.188.089-.808.099l-.642.011v-2.01l.625.011c.551.009.643.019.777.081"/></svg>