<svg xmlns="http://www.w3.org/2000/svg" width="12" height="12" fill="none"><g clip-path="url(#a)"><path fill="#1A1C1F" fill-rule="evenodd" d="M8.7 4.8c.994 0 1.8.806 1.8 1.819 0 .975-.806 1.781-1.8 1.781h-.6v.3c0 1.163-.937 2.1-2.1 2.1H3.6c-1.162 0-2.1-.937-2.1-2.1V4.8zM6.9 6H2.7v2.7c0 .506.394.919.9.919H6c.506 0 .9-.413.9-.919zm1.8 0h-.6v1.2h.6c.338 0 .6-.263.6-.581A.597.597 0 0 0 8.7 6m-6-2.4h1.2V1.8H2.7zm2.4 0h1.2V1.2H5.1z" clip-rule="evenodd"/></g><defs><clipPath id="a"><path fill="#fff" d="M0 0h12v12H0z"/></clipPath></defs></svg>