<svg width="20" height="20" viewBox="0 0 20 20" fill="none" xmlns="http://www.w3.org/2000/svg"><path d="M8.500 4.000 L 8.500 6.000 9.500 6.000 L 10.500 6.000 10.500 4.000 L 10.500 2.000 9.500 2.000 L 8.500 2.000 8.500 4.000 M4.500 4.500 L 4.500 6.000 5.500 6.000 L 6.500 6.000 6.500 4.500 L 6.500 3.000 5.500 3.000 L 4.500 3.000 4.500 4.500 M2.500 11.497 L 2.500 15.004 2.588 15.310 C 2.875 16.308,3.413 17.031,4.221 17.503 C 4.541 17.690,4.748 17.777,5.164 17.903 L 5.483 17.999 7.994 18.000 L 10.504 18.000 10.810 17.912 C 11.744 17.644,12.453 17.137,12.932 16.397 C 13.310 15.811,13.459 15.307,13.491 14.496 L 13.510 14.009 14.263 13.991 C 14.900 13.975,15.056 13.961,15.267 13.901 C 16.726 13.480,17.635 12.152,17.470 10.682 C 17.367 9.769,16.882 8.987,16.109 8.487 C 15.843 8.315,15.668 8.234,15.300 8.112 L 15.050 8.029 8.775 8.009 L 2.500 7.990 2.500 11.497 M11.498 12.058 C 11.498 13.190,11.485 14.304,11.470 14.533 C 11.438 15.040,11.362 15.229,11.059 15.552 C 10.808 15.822,10.537 15.962,10.194 16.002 C 9.876 16.039,6.124 16.039,5.806 16.002 C 5.463 15.962,5.192 15.822,4.941 15.552 C 4.638 15.229,4.562 15.040,4.530 14.533 C 4.515 14.304,4.502 13.190,4.502 12.058 L 4.500 10.000 8.000 10.000 L 11.500 10.000 11.498 12.058 M14.913 10.098 C 15.265 10.269,15.474 10.609,15.474 11.012 C 15.474 11.402,15.301 11.697,14.962 11.884 C 14.784 11.982,14.779 11.982,14.142 11.995 L 13.500 12.007 13.500 10.998 L 13.500 9.990 14.134 10.009 C 14.687 10.026,14.787 10.037,14.913 10.098 " fill="#1A1C1F" stroke="none" fill-rule="evenodd"></path></svg>