<svg width="16" height="16" viewBox="0 0 16 16" fill="none" xmlns="http://www.w3.org/2000/svg"><path d="M6.800 3.200 L 6.800 4.800 7.600 4.800 L 8.400 4.800 8.400 3.200 L 8.400 1.600 7.600 1.600 L 6.800 1.600 6.800 3.200 M3.600 3.600 L 3.600 4.800 4.400 4.800 L 5.200 4.800 5.200 3.600 L 5.200 2.400 4.400 2.400 L 3.600 2.400 3.600 3.600 M2.000 9.203 L 2.001 12.013 2.078 12.271 C 2.186 12.628,2.288 12.861,2.439 13.094 C 2.843 13.719,3.383 14.108,4.153 14.330 L 4.397 14.400 6.400 14.400 L 8.403 14.400 8.648 14.330 C 9.395 14.115,9.962 13.710,10.345 13.118 C 10.648 12.649,10.767 12.245,10.793 11.597 L 10.808 11.207 11.411 11.193 C 11.918 11.180,12.045 11.169,12.212 11.121 C 13.384 10.783,14.108 9.725,13.976 8.545 C 13.910 7.964,13.669 7.477,13.250 7.078 C 12.965 6.808,12.659 6.628,12.251 6.492 L 12.040 6.422 7.020 6.407 L 2.000 6.392 2.000 9.203 M9.199 9.647 C 9.198 10.552,9.188 11.443,9.176 11.627 C 9.150 12.032,9.089 12.183,8.848 12.442 C 8.646 12.657,8.429 12.770,8.155 12.802 C 7.901 12.831,4.899 12.831,4.645 12.802 C 4.371 12.770,4.154 12.657,3.952 12.442 C 3.717 12.190,3.650 12.029,3.624 11.653 C 3.613 11.485,3.603 10.594,3.602 9.673 L 3.600 8.000 6.400 8.000 L 9.200 8.000 9.199 9.647 M11.931 8.079 C 12.212 8.215,12.379 8.487,12.379 8.809 C 12.379 9.122,12.241 9.358,11.970 9.507 C 11.828 9.585,11.823 9.586,11.313 9.596 L 10.800 9.606 10.800 8.799 L 10.800 7.992 11.307 8.007 C 11.749 8.021,11.829 8.030,11.931 8.079 " fill="#1A1C1F" stroke="none" fill-rule="evenodd"></path></svg>