<svg width="14" height="14" viewBox="0 0 14 14" fill="none" xmlns="http://www.w3.org/2000/svg"><path d="M6.650 2.800 L 6.650 4.200 7.350 4.200 L 8.050 4.200 8.050 2.800 L 8.050 1.400 7.350 1.400 L 6.650 1.400 6.650 2.800 M3.850 3.150 L 3.850 4.200 4.550 4.200 L 5.250 4.200 5.250 3.150 L 5.250 2.100 4.550 2.100 L 3.850 2.100 3.850 3.150 M1.750 8.048 L 1.750 10.503 1.812 10.717 C 1.976 11.288,2.253 11.724,2.655 12.043 C 2.953 12.281,3.203 12.408,3.617 12.533 L 3.838 12.599 5.600 12.599 L 7.362 12.599 7.548 12.544 C 8.233 12.342,8.714 12.001,9.052 11.478 C 9.317 11.068,9.421 10.715,9.443 10.147 L 9.457 9.806 9.984 9.794 C 10.428 9.783,10.539 9.773,10.685 9.731 C 11.710 9.435,12.345 8.509,12.229 7.477 C 12.171 6.968,11.961 6.542,11.594 6.194 C 11.344 5.956,11.075 5.799,10.720 5.681 L 10.535 5.620 6.143 5.606 L 1.750 5.593 1.750 8.048 M10.439 7.069 C 10.686 7.188,10.832 7.426,10.832 7.708 C 10.832 7.981,10.710 8.188,10.473 8.319 C 10.349 8.387,10.346 8.388,9.899 8.396 L 9.450 8.405 9.450 7.699 L 9.450 6.993 9.894 7.006 C 10.281 7.018,10.351 7.026,10.439 7.069 " fill="#1A1C1F" stroke="none" fill-rule="evenodd"></path></svg>