<svg width="32" height="32" viewBox="0 0 32 32" fill="none" xmlns="http://www.w3.org/2000/svg"><path d="M14.706 2.072 C 14.507 2.119,14.208 2.365,14.095 2.575 C 14.011 2.730,14.001 3.023,13.983 5.666 C 13.957 9.380,13.974 9.529,14.454 9.847 C 14.900 10.142,15.428 10.023,15.760 9.551 L 15.920 9.324 15.937 6.195 C 15.949 4.041,15.936 2.982,15.895 2.795 C 15.836 2.525,15.638 2.272,15.387 2.146 C 15.235 2.070,14.879 2.031,14.706 2.072 M10.511 4.171 C 9.990 4.450,9.956 4.657,9.984 7.307 C 10.006 9.406,10.007 9.415,10.302 9.691 C 10.470 9.847,10.782 9.973,11.000 9.973 C 11.248 9.973,11.631 9.766,11.770 9.557 C 11.986 9.231,12.012 8.913,11.992 6.780 C 11.973 4.801,11.971 4.770,11.850 4.559 C 11.581 4.089,10.986 3.917,10.511 4.171 M18.613 4.089 C 18.417 4.170,18.228 4.346,18.119 4.551 C 18.001 4.771,18.000 4.798,18.000 7.040 C 18.000 9.599,17.995 9.567,18.402 9.862 C 18.802 10.152,19.228 10.133,19.598 9.808 C 19.915 9.530,19.920 9.486,19.920 6.987 C 19.920 4.455,19.930 4.529,19.540 4.232 C 19.386 4.114,19.282 4.081,19.020 4.070 C 18.840 4.062,18.657 4.071,18.613 4.089 M6.027 17.350 L 6.027 22.716 6.211 23.231 C 6.445 23.886,6.659 24.245,7.093 24.712 C 7.454 25.099,7.859 25.393,8.368 25.636 C 9.031 25.952,8.750 25.938,14.978 25.959 L 20.703 25.979 21.058 25.862 C 22.404 25.419,23.309 24.562,23.758 23.307 C 23.929 22.829,23.997 22.116,23.999 20.767 L 24.000 19.854 24.840 19.824 C 25.817 19.790,26.190 19.711,26.827 19.403 C 27.209 19.219,27.364 19.100,27.816 18.645 C 28.262 18.197,28.389 18.031,28.573 17.653 C 28.888 17.007,28.979 16.617,28.980 15.920 C 28.983 14.199,27.902 12.741,26.213 12.186 L 25.787 12.046 15.907 12.015 L 6.027 11.983 6.027 17.350 M21.963 18.307 L 21.947 22.640 21.764 22.977 C 21.546 23.379,21.210 23.692,20.773 23.900 L 20.453 24.053 14.982 24.053 L 9.510 24.053 9.178 23.887 C 8.770 23.683,8.332 23.263,8.158 22.907 L 8.027 22.640 8.010 18.307 L 7.994 13.973 14.987 13.973 L 21.980 13.973 21.963 18.307 M25.234 14.024 C 25.980 14.102,26.537 14.469,26.850 15.087 C 26.971 15.326,26.987 15.421,26.987 15.920 C 26.987 16.420,26.971 16.514,26.849 16.755 C 26.664 17.120,26.281 17.493,25.897 17.681 C 25.601 17.825,25.531 17.836,24.791 17.857 L 24.000 17.880 24.000 15.927 L 24.000 13.973 24.387 13.974 C 24.599 13.975,24.981 13.997,25.234 14.024 M6.027 28.048 C 2.759 28.079,2.634 28.084,2.457 28.187 C 2.356 28.247,2.217 28.402,2.146 28.534 C 1.902 28.990,2.054 29.566,2.495 29.854 C 2.627 29.941,3.422 29.947,16.000 29.947 C 28.578 29.947,29.373 29.941,29.505 29.854 C 29.754 29.691,29.934 29.403,29.961 29.124 C 29.995 28.765,29.901 28.525,29.625 28.271 L 29.389 28.053 25.748 28.053 C 23.745 28.053,19.251 28.045,15.760 28.035 C 12.269 28.025,7.889 28.031,6.027 28.048 " fill="#1A1C1F" stroke="none" fill-rule="evenodd"></path></svg>