<svg xmlns="http://www.w3.org/2000/svg" width="28" height="28" fill="none"><g clip-path="url(#a)"><path fill="#1A1C1F" fill-rule="evenodd" d="M1.75 25.389c0 .465.383.847.848.847h22.804a.85.85 0 0 0 .848-.847.86.86 0 0 0-.848-.875H2.598a.86.86 0 0 0-.848.875m3.527-6.07a3.42 3.42 0 0 0 3.418 3.417h8.86c1.86 0 3.418-1.53 3.418-3.39V17.35h.984a3.42 3.42 0 0 0 3.418-3.418 3.4 3.4 0 0 0-3.418-3.418H5.277zm1.696.027v-7.11H19.25v7.11c0 .93-.766 1.695-1.695 1.695h-8.86c-.93 0-1.722-.766-1.722-1.695M8.75 7.889c0 .465.383.847.875.847a.85.85 0 0 0 .848-.847V4.36a.85.85 0 0 0-.848-.847.86.86 0 0 0-.875.847zm3.5.027c0 .465.383.848.848.848a.85.85 0 0 0 .847-.848V2.611a.85.85 0 0 0-.847-.847.85.85 0 0 0-.848.847zm3.5.055c0 .465.383.847.848.847a.85.85 0 0 0 .847-.847V4.36a.85.85 0 0 0-.847-.847.85.85 0 0 0-.848.847zm5.223 7.656v-3.39h.984c.957 0 1.723.765 1.723 1.695s-.766 1.695-1.723 1.695z" clip-rule="evenodd"/></g><defs><clipPath id="a"><path fill="#fff" d="M0 0h28v28H0z"/></clipPath></defs></svg>