<svg width="24" height="24" viewBox="0 0 24 24" fill="none" xmlns="http://www.w3.org/2000/svg"><path d="M9.642 2.583 C 9.421 2.679,9.250 2.829,9.131 3.031 L 9.020 3.220 9.020 5.500 C 9.020 8.042,9.001 7.869,9.306 8.174 C 9.497 8.365,9.628 8.434,9.855 8.466 C 10.261 8.521,10.660 8.318,10.863 7.952 L 10.980 7.740 10.980 5.540 C 10.980 3.839,10.968 3.301,10.928 3.166 C 10.783 2.690,10.105 2.382,9.642 2.583 M6.653 4.571 C 6.429 4.657,6.177 4.863,6.103 5.020 C 6.058 5.115,6.016 5.344,5.992 5.636 C 5.945 6.181,5.979 7.589,6.043 7.820 C 6.103 8.035,6.408 8.328,6.661 8.414 C 7.054 8.548,7.363 8.476,7.666 8.181 C 7.794 8.057,7.891 7.919,7.922 7.820 C 7.980 7.634,8.022 5.940,7.981 5.494 C 7.927 4.920,7.581 4.563,7.051 4.535 C 6.896 4.527,6.725 4.542,6.653 4.571 M12.669 4.571 C 12.459 4.639,12.263 4.807,12.131 5.031 L 12.020 5.220 12.020 6.500 C 12.020 7.746,12.022 7.784,12.109 7.946 C 12.269 8.245,12.653 8.480,12.981 8.480 C 13.171 8.480,13.455 8.383,13.609 8.265 C 13.685 8.208,13.800 8.066,13.864 7.950 L 13.980 7.740 13.994 6.780 C 14.012 5.472,13.988 5.210,13.826 4.970 C 13.645 4.701,13.376 4.546,13.066 4.533 C 12.931 4.527,12.752 4.544,12.669 4.571 M3.000 14.291 L 3.000 18.067 3.114 18.443 C 3.176 18.651,3.269 18.919,3.321 19.040 C 3.688 19.908,4.406 20.664,5.260 21.081 C 5.743 21.317,6.132 21.428,6.662 21.479 C 7.185 21.530,12.692 21.531,13.264 21.480 C 14.280 21.390,15.095 21.011,15.818 20.293 C 16.331 19.783,16.653 19.228,16.870 18.480 C 16.955 18.185,16.971 18.033,16.989 17.330 L 17.010 16.520 17.495 16.520 C 18.443 16.519,19.089 16.357,19.668 15.974 C 20.890 15.166,21.337 13.541,20.700 12.218 C 20.411 11.617,19.964 11.173,19.311 10.837 C 19.042 10.699,18.837 10.624,18.651 10.594 C 18.467 10.565,15.894 10.545,10.690 10.533 L 3.000 10.515 3.000 14.291 M14.997 14.830 C 14.994 17.608,14.978 17.929,14.826 18.258 C 14.584 18.785,14.140 19.203,13.646 19.368 C 13.381 19.457,13.366 19.458,10.225 19.471 C 8.351 19.479,6.939 19.469,6.750 19.446 C 6.098 19.367,5.518 18.951,5.220 18.349 C 5.017 17.938,5.004 17.722,5.002 14.870 L 5.000 12.520 10.000 12.520 L 15.000 12.520 14.997 14.830 M18.516 12.657 C 18.875 12.906,19.057 13.329,18.964 13.699 C 18.864 14.097,18.567 14.397,18.196 14.477 C 18.086 14.501,17.784 14.520,17.524 14.520 L 17.052 14.520 17.026 14.190 C 17.012 14.008,17.000 13.556,17.000 13.185 L 17.000 12.511 17.675 12.526 C 18.342 12.542,18.351 12.543,18.516 12.657 " fill="#1A1C1F" stroke="none" fill-rule="evenodd"></path></svg>