<svg width="28" height="28" viewBox="0 0 28 28" fill="none" xmlns="http://www.w3.org/2000/svg"><path d="M12.868 1.813 C 12.694 1.854,12.432 2.070,12.334 2.253 C 12.261 2.389,12.251 2.651,12.235 4.956 C 12.212 8.206,12.227 8.338,12.647 8.616 C 13.038 8.874,13.499 8.770,13.790 8.357 L 13.930 8.159 13.944 5.387 C 13.953 3.522,13.941 2.555,13.908 2.430 C 13.850 2.217,13.671 1.985,13.493 1.894 C 13.335 1.813,13.033 1.774,12.868 1.813 M9.197 3.650 C 8.742 3.894,8.711 4.075,8.736 6.393 C 8.755 8.230,8.756 8.238,9.015 8.479 C 9.161 8.616,9.434 8.727,9.625 8.727 C 9.842 8.727,10.177 8.546,10.299 8.362 C 10.488 8.077,10.510 7.799,10.493 5.932 C 10.477 4.201,10.475 4.174,10.369 3.989 C 10.134 3.578,9.613 3.427,9.197 3.650 M16.287 3.578 C 16.115 3.648,15.950 3.803,15.854 3.982 C 15.751 4.175,15.750 4.198,15.750 6.160 C 15.750 8.400,15.746 8.372,16.102 8.629 C 16.452 8.883,16.825 8.866,17.148 8.582 C 17.426 8.338,17.430 8.300,17.430 6.113 C 17.430 3.898,17.439 3.963,17.098 3.703 C 16.963 3.599,16.872 3.571,16.643 3.561 C 16.485 3.555,16.325 3.562,16.287 3.578 M5.273 15.181 L 5.273 19.876 5.435 20.327 C 5.639 20.901,5.826 21.214,6.207 21.623 C 6.522 21.962,6.877 22.219,7.322 22.431 C 7.902 22.708,7.656 22.696,13.106 22.714 L 18.116 22.731 18.426 22.629 C 19.603 22.242,20.395 21.493,20.789 20.393 C 20.937 19.981,20.996 19.342,20.999 18.148 L 21.000 17.372 21.735 17.346 C 22.590 17.316,22.916 17.247,23.473 16.978 C 23.808 16.816,23.943 16.712,24.339 16.315 C 24.730 15.922,24.841 15.777,25.001 15.447 C 25.272 14.892,25.356 14.539,25.358 13.953 C 25.364 12.431,24.421 11.151,22.937 10.663 L 22.563 10.540 13.918 10.513 L 5.273 10.485 5.273 15.181 M19.218 16.018 L 19.203 19.810 19.043 20.105 C 18.853 20.457,18.559 20.730,18.177 20.913 L 17.897 21.047 13.109 21.047 L 8.322 21.047 8.037 20.905 C 7.673 20.723,7.326 20.393,7.157 20.067 L 7.023 19.810 7.009 16.018 L 6.995 12.227 13.113 12.227 L 19.232 12.227 19.218 16.018 M22.105 12.271 C 22.737 12.344,23.225 12.671,23.494 13.201 C 23.600 13.410,23.613 13.493,23.613 13.930 C 23.613 14.368,23.600 14.450,23.493 14.661 C 23.331 14.980,22.996 15.306,22.660 15.471 C 22.401 15.597,22.340 15.607,21.692 15.625 L 21.000 15.645 21.000 13.936 L 21.000 12.227 21.362 12.227 C 21.561 12.227,21.895 12.247,22.105 12.271 M5.087 24.546 L 2.263 24.570 2.116 24.675 C 2.034 24.733,1.922 24.876,1.865 24.993 C 1.671 25.394,1.806 25.876,2.183 26.123 C 2.298 26.198,2.974 26.204,13.321 26.218 C 19.380 26.226,24.658 26.219,25.051 26.202 C 25.723 26.172,25.773 26.163,25.904 26.052 C 26.194 25.809,26.304 25.382,26.164 25.047 C 26.129 24.964,26.018 24.821,25.916 24.729 L 25.730 24.562 19.037 24.531 C 12.271 24.500,10.205 24.502,5.087 24.546 " fill="#1A1C1F" stroke="none" fill-rule="evenodd"></path></svg>