<svg xmlns="http://www.w3.org/2000/svg" width="24" height="24" fill="none"><g clip-path="url(#a)"><path fill="#1A1C1F" fill-rule="evenodd" d="M18.016 10.509A2.99 2.99 0 0 1 21 13.49a2.993 2.993 0 0 1-2.984 3.006h-1.01v.987a4.03 4.03 0 0 1-4.02 4.016H6.996C4.785 21.5 3 19.692 3 17.484v-6.975zm-3.008 1.996H4.998v4.979c0 1.104.892 1.996 1.997 1.996h5.992c1.104 0 2.02-.892 2.02-1.996zm3.008 0h-1.01V14.5h1.01c.54 0 .987-.446.987-1.01a.993.993 0 0 0-.987-.986M5.984 7.479a.998.998 0 1 0 1.997 0V5.483a.993.993 0 0 0-.986-.987 1 1 0 0 0-1.01.987zm3.008 0a.998.998 0 1 0 1.997 0v-3.97c0-.54-.446-1.009-.986-1.009-.564 0-1.01.47-1.01 1.01zm3.008 0a.998.998 0 1 0 1.997 0V5.506a.998.998 0 1 0-1.997 0z" clip-rule="evenodd"/></g><defs><clipPath id="a"><path fill="#fff" d="M0 0h24v24H0z"/></clipPath></defs></svg>