<svg xmlns="http://www.w3.org/2000/svg" width="32" height="32" fill="none"><g clip-path="url(#a)"><path fill="#1A1C1F" fill-rule="evenodd" d="M2 29.016c0 .53.438.968.969.968H29.03a.974.974 0 0 0 .969-.968.98.98 0 0 0-.969-1H2.97a.98.98 0 0 0-.969 1m4.031-6.938a3.91 3.91 0 0 0 3.907 3.906h10.125c2.125 0 3.906-1.75 3.906-3.875v-2.28h1.125A3.91 3.91 0 0 0 29 15.921a3.89 3.89 0 0 0-3.906-3.906H6.03zm1.938.031v-8.125H22v8.125a1.947 1.947 0 0 1-1.937 1.938H9.938c-1.063 0-1.97-.875-1.97-1.938M10 9.016a.98.98 0 0 0 1 .968.974.974 0 0 0 .969-.968V4.984A.974.974 0 0 0 11 4.016a.98.98 0 0 0-1 .968zm4 .03c0 .532.438.97.969.97a.974.974 0 0 0 .969-.97V2.985a.974.974 0 0 0-.97-.968.974.974 0 0 0-.968.968zm4 .063c0 .532.438.97.969.97a.974.974 0 0 0 .968-.97V4.984a.974.974 0 0 0-.968-.968.974.974 0 0 0-.969.968zm5.969 8.75v-3.875h1.125c1.093 0 1.968.875 1.968 1.938s-.875 1.937-1.968 1.937z" clip-rule="evenodd"/></g><defs><clipPath id="a"><path fill="#fff" d="M0 0h32v32H0z"/></clipPath></defs></svg>