<svg width="12" height="12" viewBox="0 0 12 12" fill="none" xmlns="http://www.w3.org/2000/svg"><path d="M5.100 2.400 L 5.100 3.600 5.700 3.600 L 6.300 3.600 6.300 2.400 L 6.300 1.200 5.700 1.200 L 5.100 1.200 5.100 2.400 M2.700 2.700 L 2.700 3.600 3.300 3.600 L 3.900 3.600 3.900 2.700 L 3.900 1.800 3.300 1.800 L 2.700 1.800 2.700 2.700 M1.500 6.898 L 1.500 9.002 1.553 9.186 C 1.693 9.675,1.931 10.049,2.275 10.323 C 2.531 10.526,2.745 10.635,3.100 10.742 L 3.290 10.800 4.796 10.800 L 6.302 10.800 6.486 10.747 C 7.041 10.588,7.468 10.285,7.752 9.850 C 7.997 9.474,8.099 9.102,8.100 8.588 L 8.100 8.405 8.555 8.395 C 8.940 8.385,9.033 8.377,9.160 8.340 C 10.036 8.088,10.581 7.291,10.482 6.408 C 10.437 6.008,10.276 5.661,10.002 5.374 C 9.774 5.136,9.524 4.980,9.188 4.870 L 9.030 4.817 5.265 4.806 L 1.500 4.794 1.500 6.898 M6.899 7.235 C 6.899 7.914,6.891 8.582,6.882 8.720 C 6.863 9.024,6.817 9.138,6.636 9.331 C 6.485 9.493,6.322 9.577,6.116 9.601 C 5.926 9.623,3.674 9.623,3.484 9.601 C 3.278 9.577,3.115 9.493,2.964 9.331 C 2.783 9.138,2.737 9.024,2.718 8.720 C 2.709 8.582,2.701 7.914,2.701 7.235 L 2.700 6.000 4.800 6.000 L 6.900 6.000 6.899 7.235 M8.947 6.058 C 9.159 6.161,9.284 6.365,9.284 6.607 C 9.284 6.841,9.180 7.018,8.977 7.130 C 8.871 7.189,8.868 7.189,8.485 7.197 L 8.100 7.204 8.100 6.599 L 8.100 5.994 8.479 6.005 C 8.812 6.014,8.869 6.021,8.947 6.058 " fill="#1A1C1F" stroke="none" fill-rule="evenodd"></path></svg>