<svg xmlns="http://www.w3.org/2000/svg" width="32" height="32" fill="none"><g clip-path="url(#a)"><path fill="#1A1C1F" fill-rule="evenodd" d="M10 8.999v-6c0-.532.438-1 1-1s1 .468 1 1v6a1 1 0 1 1-2 0m-2-.024C8 10.645 9.344 12 11 12s3-1.355 3-3.024V3c0-.532.438-1 1-1s1 .468 1 1v6a5 5 0 0 1-4 4.906v15.094c0 .531-.437 1-1 1s-1-.469-1-1V13.905a5 5 0 0 1-4-4.906v-6c0-.532.438-1 1-1s1 .468 1 1zM19 19V8.03c0-3.312 2.688-6.031 6-6.031.563 0 1 .468 1 1.031v25.971c0 .531-.437 1-1 1s-1-.469-1-1V20h-4a1 1 0 0 1-1-1m2-1h3V4.124c-1.75.437-3 2.031-3 3.875z" clip-rule="evenodd"/></g><defs><clipPath id="a"><path fill="#fff" d="M0 0h32v32H0z"/></clipPath></defs></svg>