<svg width="24" height="24" viewBox="0 0 24 24" fill="none" xmlns="http://www.w3.org/2000/svg"><path d="M2.732 2.045 C 2.530 2.092,2.202 2.372,2.096 2.589 C 2.028 2.730,2.022 2.913,2.008 5.280 L 1.993 7.820 2.119 8.280 C 2.399 9.305,2.706 9.857,3.380 10.543 C 4.064 11.241,4.765 11.642,5.688 11.866 L 5.993 11.940 6.007 16.600 C 6.020 21.133,6.022 21.264,6.099 21.418 C 6.300 21.826,6.738 22.054,7.151 21.968 C 7.396 21.917,7.658 21.741,7.799 21.534 C 7.889 21.402,7.901 21.334,7.926 20.824 C 7.942 20.514,7.955 18.775,7.957 16.960 C 7.959 15.145,7.972 13.272,7.986 12.798 L 8.012 11.936 8.336 11.852 C 9.903 11.447,11.078 10.402,11.654 8.900 C 11.944 8.141,11.940 8.198,11.940 5.300 C 11.940 2.397,11.960 2.602,11.654 2.296 C 11.460 2.103,11.270 2.027,10.978 2.029 C 10.686 2.030,10.476 2.127,10.271 2.354 C 9.997 2.656,10.014 2.481,9.959 5.542 C 9.915 7.947,9.916 7.945,9.635 8.486 C 9.316 9.099,8.737 9.591,8.060 9.826 C 7.757 9.931,7.701 9.937,7.020 9.938 C 6.221 9.940,6.008 9.902,5.546 9.677 C 4.841 9.333,4.188 8.500,4.077 7.802 C 4.054 7.660,4.021 6.472,4.002 5.162 C 3.978 3.445,3.955 2.741,3.919 2.640 C 3.772 2.224,3.198 1.936,2.732 2.045 M6.710 2.046 C 6.523 2.098,6.194 2.389,6.096 2.589 C 6.027 2.729,6.020 2.893,6.007 4.865 C 5.990 7.301,5.995 7.349,6.252 7.628 C 6.644 8.054,7.151 8.109,7.607 7.775 C 7.722 7.690,7.830 7.565,7.887 7.449 L 7.980 7.260 7.993 5.187 C 8.006 2.912,7.991 2.679,7.810 2.421 C 7.599 2.122,7.076 1.943,6.710 2.046 M20.374 2.038 C 19.344 2.156,18.309 2.551,17.468 3.148 C 16.993 3.485,16.345 4.150,16.028 4.624 C 15.568 5.315,15.236 6.119,15.089 6.898 C 15.027 7.225,15.020 7.648,15.020 11.280 C 15.020 15.805,14.990 15.393,15.339 15.715 C 15.661 16.012,15.554 16.000,17.896 16.000 L 19.995 16.000 20.008 18.630 L 20.020 21.260 20.113 21.449 C 20.229 21.684,20.515 21.902,20.794 21.966 C 21.216 22.064,21.653 21.864,21.878 21.471 L 21.999 21.260 22.000 12.008 C 22.000 2.848,21.999 2.755,21.920 2.601 C 21.822 2.407,21.600 2.188,21.412 2.099 C 21.244 2.019,20.780 1.992,20.374 2.038 M19.974 4.450 C 19.988 4.631,20.000 6.854,20.000 9.390 L 20.000 14.000 18.500 14.000 L 17.000 14.000 17.001 10.770 C 17.001 8.829,17.018 7.429,17.042 7.263 C 17.090 6.925,17.306 6.370,17.555 5.940 C 17.809 5.501,18.498 4.811,18.942 4.552 C 19.244 4.376,19.807 4.124,19.904 4.121 C 19.931 4.120,19.958 4.251,19.974 4.450 " fill="#1A1C1F" stroke="none" fill-rule="evenodd"></path></svg>