<svg width="12" height="12" viewBox="0 0 12 12" fill="none" xmlns="http://www.w3.org/2000/svg"><path d="M1.608 1.236 C 1.474 1.283,1.358 1.377,1.276 1.506 L 1.210 1.610 1.204 2.950 C 1.201 3.763,1.206 4.365,1.219 4.481 C 1.258 4.848,1.392 5.216,1.602 5.530 C 1.750 5.751,2.030 6.038,2.235 6.176 C 2.391 6.283,2.685 6.427,2.863 6.484 L 3.000 6.528 3.000 8.437 L 3.000 10.346 3.044 10.434 C 3.113 10.572,3.211 10.673,3.336 10.734 C 3.490 10.810,3.701 10.813,3.849 10.740 C 3.971 10.681,4.081 10.570,4.143 10.445 L 4.190 10.350 4.196 8.440 L 4.201 6.530 4.366 6.473 C 4.744 6.343,5.006 6.176,5.310 5.870 C 5.565 5.613,5.716 5.386,5.838 5.072 C 5.993 4.676,5.990 4.709,5.990 3.090 L 5.990 1.650 5.943 1.555 C 5.884 1.436,5.702 1.268,5.604 1.241 C 5.509 1.214,5.291 1.214,5.196 1.241 C 5.097 1.268,4.916 1.437,4.857 1.555 L 4.810 1.650 4.798 3.020 C 4.784 4.543,4.788 4.504,4.646 4.760 C 4.539 4.953,4.305 5.177,4.120 5.266 C 3.836 5.402,3.604 5.430,3.328 5.360 C 2.954 5.265,2.701 5.059,2.527 4.708 L 2.431 4.516 2.417 4.143 C 2.409 3.938,2.403 3.295,2.402 2.714 L 2.400 1.659 2.349 1.559 C 2.286 1.433,2.173 1.319,2.058 1.265 C 1.929 1.204,1.734 1.192,1.608 1.236 M3.434 1.228 C 3.300 1.265,3.184 1.354,3.090 1.492 L 3.010 1.610 3.010 2.830 L 3.010 4.050 3.056 4.144 C 3.153 4.341,3.396 4.500,3.600 4.500 C 3.804 4.500,4.045 4.342,4.143 4.145 L 4.190 4.050 4.190 2.850 L 4.190 1.650 4.143 1.555 C 4.079 1.426,3.907 1.272,3.797 1.244 C 3.648 1.206,3.534 1.201,3.434 1.228 M9.870 1.221 C 8.987 1.280,8.080 1.886,7.605 2.735 C 7.450 3.012,7.358 3.252,7.258 3.640 C 7.215 3.809,7.214 3.826,7.205 6.105 L 7.196 8.400 8.398 8.400 L 9.600 8.400 9.600 9.375 C 9.600 10.330,9.601 10.352,9.642 10.430 C 9.714 10.565,9.811 10.669,9.923 10.730 C 10.018 10.781,10.050 10.788,10.200 10.788 C 10.350 10.788,10.382 10.781,10.477 10.730 C 10.589 10.669,10.686 10.565,10.758 10.430 L 10.800 10.351 10.800 6.005 L 10.800 1.659 10.749 1.559 C 10.685 1.433,10.573 1.319,10.458 1.266 C 10.354 1.217,10.159 1.202,9.870 1.221 M9.600 4.800 L 9.600 7.200 9.000 7.200 L 8.400 7.200 8.402 6.105 C 8.403 5.503,8.410 4.736,8.418 4.400 L 8.433 3.790 8.495 3.615 C 8.645 3.191,8.922 2.801,9.219 2.594 C 9.307 2.534,9.555 2.402,9.585 2.401 C 9.593 2.400,9.600 3.480,9.600 4.800 " fill="#1A1C1F" stroke="none" fill-rule="evenodd"></path></svg>