<svg xmlns="http://www.w3.org/2000/svg" width="16" height="16" fill="none"><g clip-path="url(#a)"><path fill="#1A1C1F" fill-rule="evenodd" d="M3.2 5.6c0 .9.725 1.6 1.6 1.6.825 0 1.6-.7 1.6-1.6V2.4c0-.45.375-.8.8-.8.45 0 .8.375.8.8v3.225C8 7.125 6.975 8.35 5.6 8.7v4.9c0 .45-.375.8-.8.8a.79.79 0 0 1-.8-.8V8.7a3.17 3.17 0 0 1-2.4-3.075V2.4c0-.45.35-.8.8-.8s.8.35.8.8zm1.6-4c.425 0 .8.35.8.8v2.8a.8.8 0 0 1-1.6 0V2.4c0-.45.35-.8.8-.8m8.8 0c.45 0 .8.35.8.8v11.2c0 .45-.35.8-.8.8a.79.79 0 0 1-.8-.8v-2.4H9.6V5.65c0-2.15 1.75-4.05 3.9-4.05zm-.8 1.6c-.95.3-1.6 1.4-1.6 2.4v4h1.6z" clip-rule="evenodd"/></g><defs><clipPath id="a"><path fill="#fff" d="M0 0h16v16H0z"/></clipPath></defs></svg>