<svg xmlns="http://www.w3.org/2000/svg" width="14" height="14" fill="none"><g clip-path="url(#a)"><path fill="#1A1C1F" fill-rule="evenodd" d="M2.8 4.9c0 .787.634 1.4 1.4 1.4.722 0 1.4-.613 1.4-1.4V2.1c0-.394.328-.7.7-.7.394 0 .7.328.7.7v2.822a2.77 2.77 0 0 1-2.1 2.69V11.9c0 .394-.328.7-.7.7a.69.69 0 0 1-.7-.7V7.612a2.77 2.77 0 0 1-2.1-2.69V2.1c0-.394.306-.7.7-.7s.7.306.7.7zm1.4-3.5c.372 0 .7.306.7.7v2.45a.7.7 0 1 1-1.4 0V2.1c0-.394.306-.7.7-.7m7.7 0c.394 0 .7.306.7.7v9.8c0 .394-.306.7-.7.7a.69.69 0 0 1-.7-.7V9.8H8.4V4.944C8.4 3.062 9.931 1.4 11.812 1.4zm-.7 1.4c-.831.262-1.4 1.225-1.4 2.1v3.5h1.4z" clip-rule="evenodd"/></g><defs><clipPath id="a"><path fill="#fff" d="M0 0h14v14H0z"/></clipPath></defs></svg>