<svg xmlns="http://www.w3.org/2000/svg" width="24" height="24" fill="none"><g clip-path="url(#a)"><path fill="#1A1C1F" fill-rule="evenodd" d="M6 7V3.031C6 2.47 6.438 2 7 2c.5 0 1 .375 1 1.031V7a1 1 0 0 1-2 0M4 3.031V7.22c0 1.5 1.219 2.75 2.75 2.75h.469c1.531 0 2.75-1.25 2.75-2.75V5H10V3.031C10 2.47 10.438 2 11 2c.531 0 .969.469.969 1.031V7.22a4.774 4.774 0 0 1-4 4.719v9.03C7.969 21.532 7.53 22 7 22c-.562 0-1-.469-1-1.031v-9.032A4.774 4.774 0 0 1 2 7.22V3.03C2 2.47 2.438 2 3 2c.531 0 1 .469 1 1.031M21 2c.563 0 1 .438 1 1v18c0 .563-.437 1-1 1-.531 0-1-.437-1-1v-5h-4a1 1 0 0 1-1-1V7.969a5.91 5.91 0 0 1 2.643-4.959A6.05 6.05 0 0 1 21 2m-1 2.094c-1.781.468-3.031 2.093-3.031 3.875L17 14h3z" clip-rule="evenodd"/></g><defs><clipPath id="a"><path fill="#fff" d="M0 0h24v24H0z"/></clipPath></defs></svg>