<svg xmlns="http://www.w3.org/2000/svg" width="32" height="32" fill="none"><path fill="#1A1C1F" fill-rule="evenodd" d="M6.531 2.126c-.209.127-.44.403-.491.585-.022.078-.039 1.678-.037 3.556l.003 3.413.139.513c.263.971.697 1.726 1.371 2.383.61.595 1.457 1.078 2.187 1.247l.27.062v7.554c0 6.498.011 7.592.079 7.819a.988.988 0 0 0 1.798.248l.123-.199.027-7.704.027-7.703.24-.062a5.1 5.1 0 0 0 2.128-1.18c.686-.637 1.149-1.396 1.435-2.351l.139-.467.019-3.467c.013-2.349.001-3.528-.038-3.659-.124-.423-.495-.687-.964-.687-.307 0-.496.081-.699.302-.298.321-.285.155-.314 3.884l-.026 3.467-.147.367c-.47 1.174-1.579 1.949-2.791 1.952-.404.001-1.062-.163-1.426-.356-.418-.221-1.041-.876-1.254-1.318-.321-.664-.327-.742-.328-4.287C8 2.619 7.999 2.611 7.745 2.33c-.267-.296-.892-.4-1.214-.204m4 0c-.209.127-.44.403-.491.585-.022.078-.04 1.582-.04 3.342 0 2.883.009 3.216.089 3.36.415.751 1.469.755 1.809.007.094-.207.1-.41.101-3.408.001-3.392 0-3.401-.254-3.682-.267-.296-.892-.4-1.214-.204m13.342-.016a6.14 6.14 0 0 0-3.687 2.342c-.498.67-.801 1.324-1.049 2.268l-.119.453-.019 5.947c-.013 4.173-.001 6.006.039 6.144.078.267.299.517.56.636.197.089.393.098 2.309.099L24 20l.001 4.6c.001 4.377.006 4.611.101 4.82.055.12.181.281.28.357.173.132.58.261.705.223.033-.01.126-.032.208-.05s.243-.119.359-.224c.403-.364.373.765.373-13.68 0-9.213-.017-13.026-.059-13.221a1.12 1.12 0 0 0-.533-.721c-.191-.099-1.052-.096-1.562.006M24 11.067v6.96h-2.99l.015-5.4.015-5.4.125-.374c.462-1.376 1.458-2.344 2.822-2.742.007-.003.013 3.128.013 6.956"/></svg>