<svg width="14" height="14" viewBox="0 0 14 14" fill="none" xmlns="http://www.w3.org/2000/svg"><path d="M1.906 1.433 C 1.750 1.476,1.614 1.580,1.505 1.741 L 1.412 1.878 1.405 3.442 C 1.401 4.390,1.407 5.093,1.422 5.228 C 1.467 5.657,1.624 6.086,1.869 6.451 C 2.041 6.710,2.369 7.044,2.607 7.206 C 2.790 7.330,3.133 7.498,3.341 7.565 L 3.500 7.616 3.500 9.840 L 3.500 12.065 3.558 12.180 C 3.643 12.348,3.743 12.450,3.892 12.523 C 4.072 12.611,4.320 12.614,4.491 12.530 C 4.637 12.458,4.760 12.336,4.832 12.190 L 4.888 12.075 4.895 9.846 L 4.902 7.618 5.093 7.552 C 5.532 7.401,5.843 7.202,6.195 6.848 C 6.493 6.549,6.668 6.284,6.811 5.917 C 6.991 5.456,6.988 5.494,6.988 3.605 L 6.988 1.925 6.934 1.815 C 6.866 1.678,6.653 1.479,6.538 1.448 C 6.491 1.434,6.383 1.424,6.300 1.424 C 6.217 1.424,6.109 1.434,6.062 1.448 C 5.947 1.479,5.734 1.678,5.666 1.815 L 5.612 1.925 5.598 3.523 C 5.582 5.300,5.586 5.255,5.420 5.553 C 5.295 5.778,5.023 6.040,4.806 6.144 C 4.475 6.303,4.204 6.335,3.883 6.253 C 3.446 6.143,3.151 5.902,2.948 5.493 L 2.836 5.268 2.820 4.833 C 2.811 4.594,2.803 3.842,2.802 3.162 L 2.799 1.925 2.722 1.785 C 2.636 1.630,2.466 1.483,2.333 1.448 C 2.176 1.408,2.018 1.402,1.906 1.433 M4.006 1.433 C 3.850 1.475,3.714 1.579,3.605 1.741 L 3.512 1.878 3.512 3.302 L 3.512 4.725 3.564 4.831 C 3.722 5.152,4.078 5.315,4.398 5.214 C 4.562 5.163,4.756 4.994,4.834 4.835 L 4.888 4.725 4.888 3.325 L 4.888 1.925 4.834 1.815 C 4.761 1.666,4.559 1.484,4.430 1.451 C 4.256 1.407,4.123 1.401,4.006 1.433 M11.503 1.425 C 11.113 1.455,10.762 1.559,10.354 1.767 C 9.894 2.000,9.529 2.297,9.212 2.693 C 8.847 3.147,8.638 3.585,8.467 4.247 C 8.417 4.444,8.416 4.460,8.406 7.123 L 8.396 9.800 9.798 9.800 L 11.200 9.800 11.200 10.933 C 11.200 12.040,11.201 12.067,11.249 12.163 C 11.329 12.322,11.443 12.445,11.577 12.518 C 11.687 12.578,11.725 12.586,11.900 12.586 C 12.075 12.586,12.113 12.578,12.223 12.518 C 12.357 12.445,12.471 12.322,12.551 12.163 L 12.600 12.065 12.600 7.000 L 12.600 1.935 12.541 1.818 C 12.466 1.671,12.335 1.539,12.202 1.477 C 12.079 1.419,11.826 1.400,11.503 1.425 M11.200 5.600 L 11.200 8.400 10.496 8.400 L 9.793 8.400 9.806 6.458 L 9.820 4.515 9.894 4.282 C 10.070 3.729,10.405 3.256,10.803 3.000 C 10.921 2.924,11.152 2.806,11.194 2.801 C 11.197 2.800,11.200 4.060,11.200 5.600 " fill="#1A1C1F" stroke="none" fill-rule="evenodd"></path></svg>