<svg xmlns="http://www.w3.org/2000/svg" width="12" height="12" fill="none"><g clip-path="url(#a)"><path fill="#1A1C1F" fill-rule="evenodd" d="M2.4 4.2c0 .675.544 1.2 1.2 1.2.619 0 1.2-.525 1.2-1.2V1.8c0-.337.281-.6.6-.6.338 0 .6.281.6.6v2.419a2.375 2.375 0 0 1-1.8 2.306V10.2c0 .338-.281.6-.6.6a.59.59 0 0 1-.6-.6V6.525a2.375 2.375 0 0 1-1.8-2.306V1.8c0-.337.263-.6.6-.6.338 0 .6.263.6.6zm1.2-3c.319 0 .6.263.6.6v2.1a.6.6 0 0 1-1.2 0V1.8c0-.337.263-.6.6-.6m6.6 0c.338 0 .6.263.6.6v8.4c0 .338-.263.6-.6.6a.59.59 0 0 1-.6-.6V8.4H7.2V4.238C7.2 2.625 8.513 1.2 10.125 1.2zm-.6 1.2c-.712.225-1.2 1.05-1.2 1.8v3h1.2z" clip-rule="evenodd"/></g><defs><clipPath id="a"><path fill="#fff" d="M0 0h12v12H0z"/></clipPath></defs></svg>