<svg xmlns="http://www.w3.org/2000/svg" width="20" height="20" fill="none"><g clip-path="url(#a)"><path fill="#1A1C1F" fill-rule="evenodd" d="M4 7c0 1.125.906 2 2 2 1.031 0 2-.875 2-2V3c0-.562.469-1 1-1 .563 0 1 .469 1 1v4.031c0 1.875-1.281 3.407-3 3.844V17c0 .563-.469 1-1 1-.562 0-1-.437-1-1v-6.125c-1.719-.437-3-1.969-3-3.844V3c0-.562.438-1 1-1s1 .438 1 1zm2-5c.531 0 1 .438 1 1v3.5a1 1 0 0 1-2 0V3c0-.562.438-1 1-1m11 0c.563 0 1 .438 1 1v14c0 .563-.437 1-1 1s-1-.437-1-1v-3h-4V7.063C12 4.374 14.188 2 16.875 2zm-1 2c-1.187.375-2 1.75-2 3v5h2z" clip-rule="evenodd"/></g><defs><clipPath id="a"><path fill="#fff" d="M0 0h20v20H0z"/></clipPath></defs></svg>