<svg width="32" height="32" viewBox="0 0 32 32" fill="none" xmlns="http://www.w3.org/2000/svg"><path d="M6.559 2.125 C 6.457 2.180,6.299 2.320,6.209 2.438 L 6.044 2.652 6.009 4.028 C 5.989 4.785,5.973 6.345,5.973 7.495 L 5.973 9.586 6.126 10.113 C 6.435 11.177,6.775 11.790,7.434 12.472 C 8.056 13.115,9.072 13.710,9.772 13.841 L 9.970 13.878 9.985 21.539 L 10.000 29.200 10.114 29.413 C 10.177 29.531,10.273 29.666,10.328 29.714 C 10.798 30.127,11.513 30.027,11.846 29.502 L 12.000 29.259 12.000 23.012 C 12.000 19.575,12.016 16.117,12.035 15.326 L 12.070 13.887 12.422 13.787 C 12.945 13.638,13.624 13.276,14.120 12.882 C 14.920 12.247,15.479 11.397,15.836 10.274 L 16.004 9.747 15.988 6.220 L 15.973 2.693 15.851 2.496 C 15.637 2.152,15.186 1.967,14.758 2.048 C 14.509 2.094,14.151 2.414,14.076 2.656 C 14.034 2.790,14.002 3.961,13.977 6.297 L 13.939 9.740 13.708 10.217 C 13.197 11.276,12.112 12.000,11.037 12.000 C 10.707 12.000,10.043 11.847,9.692 11.690 C 9.226 11.481,8.607 10.850,8.323 10.293 C 8.046 9.750,8.039 9.659,8.004 6.053 C 7.970 2.430,7.979 2.537,7.689 2.275 C 7.421 2.033,6.871 1.960,6.559 2.125 M10.560 2.122 C 10.457 2.178,10.298 2.322,10.206 2.441 L 10.039 2.659 9.999 4.303 C 9.943 6.564,9.995 9.224,10.099 9.424 C 10.445 10.089,11.417 10.156,11.823 9.541 L 11.973 9.315 11.991 6.404 C 12.000 4.803,11.992 3.296,11.973 3.054 C 11.918 2.374,11.664 2.095,11.053 2.045 C 10.817 2.025,10.704 2.043,10.560 2.122 M24.107 2.079 C 22.930 2.234,21.716 2.863,20.767 3.809 C 19.987 4.586,19.553 5.337,19.163 6.587 L 19.013 7.067 19.013 13.177 L 19.013 19.288 19.156 19.504 C 19.235 19.623,19.391 19.777,19.503 19.847 L 19.707 19.973 21.851 19.989 L 23.996 20.006 24.011 24.660 L 24.027 29.315 24.173 29.536 C 24.327 29.768,24.483 29.872,24.811 29.962 C 25.105 30.043,25.411 29.946,25.683 29.685 C 25.892 29.483,25.913 29.438,25.955 29.093 C 25.980 28.888,26.000 22.888,26.000 15.760 L 26.000 2.800 25.885 2.587 C 25.728 2.295,25.542 2.133,25.298 2.077 C 25.063 2.022,24.533 2.023,24.107 2.079 M24.000 11.067 L 24.000 18.027 22.499 18.027 L 20.998 18.027 21.026 12.600 L 21.055 7.173 21.220 6.726 C 21.532 5.879,22.112 5.126,22.809 4.663 C 23.082 4.482,23.854 4.109,23.960 4.107 C 23.982 4.107,24.000 7.239,24.000 11.067 " fill="#1A1C1F" stroke="none" fill-rule="evenodd"></path></svg>