<svg width="28" height="28" viewBox="0 0 28 28" fill="none" xmlns="http://www.w3.org/2000/svg"><path d="M5.739 1.860 C 5.650 1.907,5.512 2.030,5.433 2.133 L 5.289 2.321 5.258 3.525 C 5.241 4.187,5.227 5.552,5.227 6.558 L 5.227 8.388 5.360 8.849 C 5.630 9.780,5.928 10.317,6.505 10.913 C 7.049 11.476,7.938 11.997,8.550 12.111 L 8.724 12.143 8.737 18.847 L 8.750 25.550 8.850 25.737 C 8.905 25.839,8.989 25.958,9.037 25.999 C 9.449 26.361,10.074 26.274,10.365 25.814 L 10.500 25.602 10.500 20.065 C 10.500 17.020,10.514 13.994,10.531 13.340 L 10.561 12.151 10.869 12.064 C 11.327 11.933,11.921 11.617,12.355 11.272 C 13.055 10.716,13.544 9.973,13.857 8.990 L 14.003 8.529 13.990 5.443 L 13.977 2.357 13.869 2.184 C 13.682 1.883,13.288 1.721,12.913 1.792 C 12.695 1.833,12.382 2.112,12.317 2.324 C 12.281 2.440,12.252 3.479,12.230 5.510 L 12.196 8.524 11.995 8.940 C 11.547 9.867,10.598 10.500,9.658 10.500 C 9.370 10.500,8.791 10.367,8.480 10.229 C 8.088 10.056,7.525 9.481,7.283 9.007 C 7.040 8.530,7.034 8.453,7.004 5.297 C 6.974 2.124,6.982 2.221,6.728 1.990 C 6.494 1.779,6.012 1.715,5.739 1.860 M9.240 1.857 C 9.150 1.906,9.011 2.032,8.930 2.136 L 8.784 2.326 8.749 3.765 C 8.700 5.744,8.746 8.071,8.836 8.246 C 9.139 8.828,9.989 8.886,10.345 8.349 L 10.477 8.150 10.492 5.557 C 10.500 4.130,10.493 2.812,10.476 2.626 C 10.427 2.080,10.188 1.832,9.671 1.789 C 9.465 1.772,9.366 1.787,9.240 1.857 M21.093 1.819 C 20.064 1.955,19.001 2.505,18.171 3.333 C 17.489 4.012,17.109 4.670,16.768 5.763 L 16.637 6.183 16.637 11.530 L 16.637 16.877 16.762 17.066 C 16.831 17.170,16.967 17.305,17.065 17.366 L 17.243 17.477 19.120 17.491 L 20.997 17.505 21.010 21.578 L 21.023 25.650 21.151 25.844 C 21.286 26.047,21.423 26.138,21.709 26.217 C 21.967 26.288,22.235 26.203,22.472 25.974 C 22.656 25.798,22.674 25.758,22.710 25.457 C 22.732 25.277,22.750 20.027,22.750 13.790 L 22.750 2.450 22.650 2.263 C 22.512 2.008,22.349 1.867,22.136 1.817 C 21.930 1.769,21.466 1.770,21.093 1.819 M21.000 9.683 L 21.000 15.773 19.686 15.773 L 18.373 15.773 18.398 11.025 L 18.423 6.277 18.567 5.886 C 18.840 5.144,19.348 4.485,19.958 4.080 C 20.197 3.922,20.872 3.595,20.965 3.594 C 20.984 3.594,21.000 6.334,21.000 9.683 " fill="#1A1C1F" stroke="none" fill-rule="evenodd"></path></svg>