<svg width="16" height="16" viewBox="0 0 16 16" fill="none" xmlns="http://www.w3.org/2000/svg"><path d="M2.179 1.638 C 2.000 1.686,1.845 1.805,1.720 1.989 L 1.613 2.147 1.613 4.107 L 1.613 6.067 1.675 6.313 C 1.793 6.780,1.966 7.158,2.215 7.495 C 2.378 7.716,2.762 8.088,2.979 8.235 C 3.188 8.377,3.580 8.569,3.818 8.645 L 4.000 8.704 4.000 11.249 L 4.000 13.794 4.059 13.912 C 4.151 14.096,4.281 14.230,4.447 14.311 C 4.654 14.412,4.936 14.416,5.132 14.320 C 5.300 14.238,5.440 14.099,5.522 13.931 L 5.587 13.800 5.594 11.253 L 5.602 8.706 5.821 8.631 C 6.274 8.475,6.651 8.246,7.004 7.911 C 7.372 7.563,7.616 7.201,7.796 6.733 C 7.989 6.235,7.987 6.263,7.987 4.120 L 7.987 2.200 7.925 2.074 C 7.847 1.917,7.603 1.691,7.472 1.654 C 7.418 1.639,7.295 1.627,7.200 1.627 C 7.105 1.627,6.982 1.639,6.928 1.654 C 6.797 1.691,6.553 1.917,6.475 2.074 L 6.413 2.200 6.397 4.027 C 6.379 6.076,6.385 6.008,6.179 6.369 C 5.902 6.855,5.331 7.198,4.798 7.200 C 4.603 7.200,4.271 7.115,4.053 7.008 C 3.720 6.845,3.359 6.390,3.252 6.000 C 3.229 5.914,3.215 5.357,3.203 4.013 L 3.187 2.147 3.082 1.991 C 2.945 1.785,2.763 1.665,2.533 1.628 C 2.327 1.595,2.340 1.595,2.179 1.638 M4.579 1.638 C 4.400 1.686,4.245 1.805,4.120 1.989 L 4.013 2.147 4.013 3.773 L 4.013 5.400 4.073 5.521 C 4.254 5.888,4.660 6.074,5.026 5.959 C 5.213 5.900,5.435 5.707,5.525 5.526 L 5.587 5.400 5.587 3.800 L 5.587 2.200 5.525 2.074 C 5.441 1.904,5.210 1.696,5.062 1.659 C 4.864 1.608,4.712 1.602,4.579 1.638 M13.160 1.630 C 12.214 1.688,11.189 2.252,10.527 3.078 C 10.111 3.597,9.872 4.098,9.677 4.853 C 9.619 5.079,9.619 5.099,9.607 8.140 L 9.595 11.200 11.198 11.200 L 12.800 11.200 12.800 12.497 C 12.800 13.782,12.801 13.795,12.859 13.912 C 12.947 14.088,13.070 14.219,13.230 14.306 C 13.357 14.375,13.400 14.384,13.600 14.384 C 13.800 14.384,13.843 14.375,13.970 14.306 C 14.130 14.219,14.253 14.088,14.341 13.912 L 14.400 13.794 14.400 8.000 L 14.400 2.206 14.340 2.085 C 14.261 1.926,14.094 1.757,13.946 1.688 C 13.808 1.622,13.568 1.605,13.160 1.630 M12.800 6.400 L 12.800 9.600 11.996 9.600 L 11.191 9.600 11.207 7.378 L 11.224 5.157 11.308 4.892 C 11.555 4.119,12.051 3.518,12.653 3.259 C 12.727 3.228,12.790 3.201,12.793 3.201 C 12.797 3.200,12.800 4.640,12.800 6.400 " fill="#1A1C1F" stroke="none" fill-rule="evenodd"></path></svg>