<svg width="20" height="20" viewBox="0 0 20 20" fill="none" xmlns="http://www.w3.org/2000/svg"><path d="M2.723 2.048 C 2.500 2.108,2.306 2.256,2.150 2.487 L 2.017 2.683 2.017 5.133 L 2.017 7.583 2.094 7.891 C 2.305 8.724,2.646 9.320,3.238 9.886 C 3.393 10.034,3.612 10.218,3.726 10.295 C 3.986 10.471,4.476 10.711,4.772 10.807 L 5.000 10.880 5.000 14.061 L 5.000 17.243 5.074 17.390 C 5.188 17.620,5.351 17.788,5.559 17.890 C 5.818 18.017,6.168 18.021,6.415 17.900 C 6.625 17.798,6.799 17.624,6.903 17.414 L 6.983 17.250 6.993 14.066 L 7.002 10.883 7.276 10.788 C 7.846 10.592,8.311 10.310,8.751 9.893 C 9.216 9.453,9.519 9.003,9.745 8.417 C 9.986 7.794,9.983 7.829,9.983 5.150 L 9.983 2.750 9.906 2.593 C 9.809 2.397,9.504 2.114,9.340 2.068 C 9.272 2.049,9.119 2.034,9.000 2.034 C 8.881 2.034,8.728 2.049,8.660 2.068 C 8.496 2.114,8.191 2.397,8.094 2.593 L 8.017 2.750 7.996 5.033 C 7.974 7.572,7.980 7.507,7.743 7.933 C 7.564 8.255,7.176 8.629,6.866 8.777 C 6.393 9.004,6.006 9.050,5.547 8.933 C 4.923 8.775,4.501 8.432,4.211 7.847 L 4.051 7.526 4.028 6.888 C 4.016 6.537,4.004 5.466,4.003 4.507 C 4.000 2.794,3.999 2.762,3.929 2.624 C 3.750 2.274,3.515 2.092,3.167 2.036 C 2.909 1.994,2.925 1.993,2.723 2.048 M5.723 2.047 C 5.500 2.108,5.306 2.256,5.150 2.487 L 5.017 2.683 5.017 4.717 L 5.017 6.750 5.094 6.907 C 5.256 7.235,5.660 7.500,6.000 7.500 C 6.340 7.500,6.744 7.235,6.906 6.907 L 6.983 6.750 6.983 4.750 L 6.983 2.750 6.906 2.593 C 6.801 2.380,6.512 2.120,6.328 2.073 C 6.081 2.010,5.890 2.002,5.723 2.047 M16.450 2.035 C 15.448 2.102,14.346 2.627,13.550 3.417 C 12.814 4.147,12.392 4.916,12.097 6.067 C 12.024 6.348,12.024 6.376,12.009 10.175 L 11.994 14.000 13.997 14.000 L 16.000 14.000 16.000 15.625 C 16.000 17.216,16.002 17.254,16.070 17.384 C 16.190 17.609,16.351 17.781,16.538 17.883 C 16.696 17.969,16.749 17.980,17.000 17.980 C 17.227 17.979,17.312 17.964,17.426 17.905 C 17.618 17.805,17.813 17.606,17.916 17.402 L 18.000 17.236 18.000 10.000 L 18.000 2.764 17.916 2.598 C 17.809 2.388,17.621 2.198,17.431 2.109 C 17.256 2.028,16.932 2.003,16.450 2.035 M16.000 8.000 L 16.000 12.000 15.000 12.000 L 14.000 12.000 14.003 10.108 C 14.005 9.068,14.018 7.789,14.031 7.267 C 14.055 6.342,14.058 6.309,14.149 6.050 C 14.416 5.285,14.889 4.636,15.438 4.279 C 15.608 4.169,15.901 4.022,15.992 4.002 C 15.996 4.001,16.000 5.800,16.000 8.000 " fill="#1A1C1F" stroke="none" fill-rule="evenodd"></path></svg>