<svg xmlns="http://www.w3.org/2000/svg" width="28" height="28" fill="none"><g clip-path="url(#a)"><path fill="#1A1C1F" fill-rule="evenodd" d="M8.75 7.874v-5.25c0-.465.383-.875.875-.875s.875.41.875.875v5.25a.875.875 0 0 1-1.75 0M7 7.854a2.636 2.636 0 0 0 2.625 2.645 2.636 2.636 0 0 0 2.625-2.646v-5.23c0-.464.383-.874.875-.874s.875.41.875.875v5.25a4.374 4.374 0 0 1-3.5 4.293v13.207a.88.88 0 0 1-.875.875.88.88 0 0 1-.875-.875V12.167a4.374 4.374 0 0 1-3.5-4.293v-5.25c0-.465.383-.875.875-.875s.875.41.875.875zm9.625 8.77V7.026c0-2.898 2.352-5.277 5.25-5.277.492 0 .875.41.875.902v22.725a.88.88 0 0 1-.875.875.88.88 0 0 1-.875-.875V17.5h-3.5a.875.875 0 0 1-.875-.875m1.75-.875H21V3.609a3.49 3.49 0 0 0-2.625 3.39z" clip-rule="evenodd"/></g><defs><clipPath id="a"><path fill="#fff" d="M0 0h28v28H0z"/></clipPath></defs></svg>