<svg xmlns="http://www.w3.org/2000/svg" width="28" height="28" fill="none"><g clip-path="url(#a)"><path fill="#1A1C1F" fill-rule="evenodd" d="M8.777 18.361a3.51 3.51 0 0 1 3.391 2.653h13.207c.492 0 .875.383.875.875a.88.88 0 0 1-.875.875H12.141a3.46 3.46 0 0 1-3.364 2.597c-1.64 0-3.007-1.093-3.39-2.597H2.625a.88.88 0 0 1-.875-.875c0-.492.383-.875.875-.875h2.734a3.52 3.52 0 0 1 3.418-2.653m0 1.75c-.984 0-1.75.793-1.75 1.75s.766 1.75 1.75 1.75c.848 0 1.75-.683 1.75-1.75 0-.957-.793-1.75-1.75-1.75m10.418-9.597a3.495 3.495 0 0 1 3.39 2.625h2.79c.492 0 .875.383.875.875a.88.88 0 0 1-.875.875h-2.79a3.495 3.495 0 0 1-3.39 2.625 3.495 3.495 0 0 1-3.39-2.625H2.57c-.437 0-.82-.41-.82-.875 0-.492.383-.875.82-.875h13.235c.41-1.504 1.777-2.625 3.39-2.625m0 1.75c-.957 0-1.75.793-1.75 1.75 0 .984.793 1.75 1.75 1.75.985 0 1.75-.766 1.75-1.75 0-.957-.765-1.75-1.75-1.75M8.75 2.639a3.465 3.465 0 0 1 3.39 2.625h13.235c.492 0 .875.383.875.875a.88.88 0 0 1-.875.875H12.141c-.438 1.558-1.778 2.625-3.391 2.625a3.495 3.495 0 0 1-3.39-2.625H2.624a.88.88 0 0 1-.875-.875c0-.492.383-.875.875-.875h2.734A3.465 3.465 0 0 1 8.75 2.639m0 1.75c-.957 0-1.75.765-1.75 1.75 0 .957.793 1.75 1.75 1.75s1.75-.793 1.75-1.75-.766-1.75-1.75-1.75" clip-rule="evenodd"/></g><defs><clipPath id="a"><path fill="#fff" d="M0 0h28v28H0z"/></clipPath></defs></svg>