<svg xmlns="http://www.w3.org/2000/svg" width="24" height="24" fill="none"><g clip-path="url(#a)"><path fill="#1A1C1F" fill-rule="evenodd" d="M8.031 12.984c1.719 0 3.375 1.219 3.844 3.032h9.094c.562 0 1 .468 1 1 0 .562-.438 1-1 1h-9.063c-.437 1.75-2 2.968-3.875 2.968-1.844 0-3.437-1.187-3.875-2.968H3c-.531 0-1-.438-1-1 0-.532.469-1 1-1h1.156c.469-1.75 2.063-3.032 3.875-3.032M8 15.016c-1.125 0-2 .937-2 2 0 1.125.906 2 2 2s2-.875 2-2c0-1.094-.906-2-2-2m8.031-12a4.04 4.04 0 0 1 3.875 3H21c.563 0 1 .468 1 1 0 .562-.437 1-1 1h-1.094c-.437 1.75-2 3-3.875 3-1.812 0-3.437-1.22-3.875-3H3c-.562 0-1-.438-1-1 0-.532.438-1 1-1h9.156c.469-1.75 2.063-3 3.875-3m-.031 2c-1.094 0-2 .906-2 2s.906 2 2 2 2-.875 2-2c0-1.094-.906-2-2-2" clip-rule="evenodd"/></g><defs><clipPath id="a"><path fill="#fff" d="M0 0h24v24H0z"/></clipPath></defs></svg>