<svg xmlns="http://www.w3.org/2000/svg" width="14" height="14" fill="none"><g clip-path="url(#a)"><path fill="#1A1C1F" fill-rule="evenodd" d="M4.9 7.01c.919 0 1.684.57 1.969 1.4h4.987c.394 0 .7.307.7.7 0 .373-.306.7-.7.7H6.87A2.07 2.07 0 0 1 4.9 11.19a2.07 2.07 0 0 1-1.969-1.38H2.1a.705.705 0 0 1-.7-.7c0-.393.306-.7.7-.7h.831A2.06 2.06 0 0 1 4.9 7.01m0 1.38c-.394 0-.7.327-.7.7 0 .393.306.7.7.7s.7-.307.7-.7c0-.395-.328-.7-.7-.7m4.178-5.58c.919 0 1.685.592 1.969 1.4h.853c.328 0 .678.22.7.7 0 .395-.306.7-.7.7h-.831c-.307.81-1.072 1.4-1.99 1.4-.92 0-1.685-.59-1.97-1.4H2.1a.7.7 0 0 1-.7-.7c0-.393.306-.7.7-.7h5.01a2.11 2.11 0 0 1 1.968-1.4m0 1.4c-.372 0-.7.307-.7.7 0 .395.328.7.7.7.394 0 .7-.305.7-.7 0-.393-.328-.7-.7-.7" clip-rule="evenodd"/></g><defs><clipPath id="a"><path fill="#fff" d="M0 0h14v14H0z"/></clipPath></defs></svg>