<svg xmlns="http://www.w3.org/2000/svg" width="32" height="32" fill="none"><g clip-path="url(#a)"><path fill="#1A1C1F" fill-rule="evenodd" d="M10.031 20.984a4.015 4.015 0 0 1 3.875 3.032H29c.563 0 1 .437 1 1 0 .53-.437 1-1 1H13.875a3.96 3.96 0 0 1-3.844 2.968c-1.875 0-3.437-1.25-3.875-2.968H3c-.562 0-1-.47-1-1 0-.563.438-1 1-1h3.125a4.024 4.024 0 0 1 3.906-3.032m0 2c-1.125 0-2 .907-2 2 0 1.094.875 2 2 2 .969 0 2-.78 2-2 0-1.093-.906-2-2-2m11.907-10.968a3.995 3.995 0 0 1 3.875 3H29c.563 0 1 .437 1 1 0 .53-.437 1-1 1h-3.187c-.438 1.718-2 3-3.875 3a3.995 3.995 0 0 1-3.875-3H2.938c-.5 0-.938-.47-.938-1 0-.563.438-1 .938-1h15.125c.468-1.72 2.03-3 3.875-3m0 2c-1.094 0-2 .906-2 2 0 1.125.906 2 2 2 1.125 0 2-.875 2-2 0-1.094-.875-2-2-2M10 3.016a3.96 3.96 0 0 1 3.875 3H29c.563 0 1 .437 1 1 0 .53-.437 1-1 1H13.875c-.5 1.78-2.031 3-3.875 3a3.995 3.995 0 0 1-3.875-3H3c-.562 0-1-.47-1-1 0-.563.438-1 1-1h3.125c.438-1.75 2-3 3.875-3m0 2c-1.094 0-2 .875-2 2 0 1.093.906 2 2 2s2-.907 2-2c0-1.094-.875-2-2-2" clip-rule="evenodd"/></g><defs><clipPath id="a"><path fill="#fff" d="M0 0h32v32H0z"/></clipPath></defs></svg>