<svg xmlns="http://www.w3.org/2000/svg" width="32" height="32" fill="none"><path fill="#1A1C1F" fill-rule="evenodd" d="M9.034 3.141c-.814.2-1.619.706-2.129 1.336-.305.377-.614.95-.714 1.322l-.061.224-1.753.015-1.754.015-.205.164c-.535.427-.535 1.166 0 1.593l.205.163 1.747.016 1.748.015.066.225c.106.358.459.998.735 1.331.769.929 1.858 1.436 3.081 1.436 1.135 0 1.974-.349 2.774-1.153.515-.518.81-.967.989-1.507l.112-.335 7.751-.014 7.751-.014.205-.163c.535-.427.535-1.166 0-1.593l-.205-.164-7.753-.014-7.754-.013-.06-.226c-.177-.656-.755-1.491-1.34-1.934-.426-.323-1.078-.63-1.574-.74-.505-.113-1.37-.106-1.862.015m1.808 2.075c.427.203.757.535.965.971.148.308.166.399.165.826 0 .408-.022.526-.143.787-.2.429-.61.845-1.017 1.033-.288.133-.396.154-.812.154s-.524-.021-.812-.154c-.407-.188-.817-.604-1.017-1.033-.121-.261-.143-.379-.143-.787-.001-.426.017-.518.164-.826a2.07 2.07 0 0 1 1.341-1.119c.363-.092.943-.026 1.309.148m10.651 6.836c-.974.103-1.942.623-2.603 1.401-.242.286-.595.918-.803 1.44l-.058.147h-7.657c-7.549 0-7.659.001-7.865.107-.285.145-.493.504-.493.851 0 .33.14.614.404.825l.205.164 7.72.014 7.72.013.067.227c.112.376.468 1.012.764 1.362a4.04 4.04 0 0 0 2.118 1.297c.635.16 1.546.125 2.161-.082 1.147-.387 2.108-1.306 2.506-2.397l.149-.408 1.686-.001c1.531-.001 1.706-.01 1.906-.101.688-.312.767-1.283.139-1.713l-.191-.131-1.774-.016-1.773-.015-.091-.278c-.573-1.768-2.352-2.903-4.237-2.706m1.298 2.163c.368.175.739.53.912.872.407.804.266 1.7-.365 2.331-.992.992-2.593.71-3.2-.565-.149-.313-.164-.395-.163-.853.002-.448.02-.544.157-.826a2.12 2.12 0 0 1 1.328-1.1c.092-.024.359-.035.593-.025.33.014.498.052.738.166M9.04 21.118a5 5 0 0 0-.621.206c-.974.422-1.86 1.371-2.182 2.337l-.11.332-1.69.017-1.69.017-.24.134c-.663.371-.647 1.375.026 1.728.202.105.309.112 1.924.126l1.711.016.094.313c.147.491.446.951.938 1.443.516.516.961.797 1.568.989a4.09 4.09 0 0 0 3.311-.362c.728-.43 1.423-1.278 1.686-2.057l.111-.33h7.614c5.684 0 7.66-.016 7.795-.063.83-.286.956-1.384.208-1.803l-.24-.134L21.578 24l-7.674-.027-.095-.279c-.422-1.239-1.522-2.248-2.81-2.578-.536-.137-1.438-.136-1.959.002m1.524 1.953q.838.246 1.263 1.051c.134.254.146.328.146.865s-.012.61-.146.864q-.425.806-1.263 1.051c-.798.233-1.695-.092-2.172-.787-.468-.681-.452-1.648.036-2.322.464-.64 1.369-.946 2.136-.722"/></svg>