<svg xmlns="http://www.w3.org/2000/svg" width="16" height="16" fill="none"><g clip-path="url(#a)"><path fill="#1A1C1F" fill-rule="evenodd" d="M5.6 8.012c1.05 0 1.925.65 2.25 1.6h5.7c.45 0 .8.35.8.8 0 .425-.35.8-.8.8h-5.7a2.36 2.36 0 0 1-2.25 1.576c-1.05 0-1.925-.65-2.25-1.575H2.4c-.45 0-.8-.375-.8-.8 0-.45.35-.8.8-.8h.95c.325-.95 1.2-1.6 2.25-1.6m0 1.576c-.45 0-.8.375-.8.8 0 .45.35.8.8.8s.8-.35.8-.8-.375-.8-.8-.8m4.775-6.376c1.05 0 1.925.676 2.25 1.6h.975c.375 0 .775.25.8.8 0 .45-.35.8-.8.8h-.95c-.35.926-1.225 1.6-2.275 1.6a2.38 2.38 0 0 1-2.25-1.6H2.4c-.375 0-.775-.274-.8-.8 0-.45.35-.8.8-.8h5.725a2.41 2.41 0 0 1 2.25-1.6m0 1.6c-.425 0-.8.35-.8.8s.375.8.8.8c.45 0 .8-.35.8-.8s-.375-.8-.8-.8" clip-rule="evenodd"/></g><defs><clipPath id="a"><path fill="#fff" d="M0 0h16v16H0z"/></clipPath></defs></svg>