<svg xmlns="http://www.w3.org/2000/svg" width="12" height="12" fill="none"><g clip-path="url(#a)"><path fill="#1A1C1F" fill-rule="evenodd" d="M4.2 6.01c.787 0 1.444.487 1.687 1.2h4.276c.337 0 .6.262.6.6 0 .318-.263.6-.6.6H5.887A1.77 1.77 0 0 1 4.2 9.59a1.77 1.77 0 0 1-1.688-1.18H1.8a.604.604 0 0 1-.6-.6c0-.338.262-.6.6-.6h.712c.244-.713.9-1.2 1.688-1.2m0 1.18c-.338 0-.6.282-.6.6 0 .338.262.6.6.6s.6-.262.6-.6-.281-.6-.6-.6m3.581-4.78c.788 0 1.444.506 1.688 1.2h.731c.281 0 .581.187.6.6 0 .337-.263.6-.6.6h-.713a1.83 1.83 0 0 1-1.706 1.2 1.79 1.79 0 0 1-1.687-1.2H1.8a.6.6 0 0 1-.6-.6c0-.338.262-.6.6-.6h4.294c.243-.694.918-1.2 1.687-1.2m0 1.2c-.319 0-.6.262-.6.6s.281.6.6.6c.338 0 .6-.263.6-.6 0-.338-.281-.6-.6-.6" clip-rule="evenodd"/></g><defs><clipPath id="a"><path fill="#fff" d="M0 0h12v12H0z"/></clipPath></defs></svg>