<svg xmlns="http://www.w3.org/2000/svg" width="20" height="20" fill="none"><g clip-path="url(#a)"><path fill="#1A1C1F" fill-rule="evenodd" d="M7 10.016c1.313 0 2.406.812 2.813 2h7.124c.563 0 1 .437 1 1 0 .53-.437 1-1 1H9.813A2.95 2.95 0 0 1 7 15.984a2.95 2.95 0 0 1-2.812-1.968H3c-.562 0-1-.47-1-1 0-.563.438-1 1-1h1.188c.406-1.188 1.5-2 2.812-2m0 1.968c-.562 0-1 .47-1 1 0 .563.438 1 1 1s1-.437 1-1-.469-1-1-1m5.969-7.968a2.98 2.98 0 0 1 2.812 2H17c.469 0 .969.312 1 1 0 .562-.437 1-1 1h-1.187c-.438 1.156-1.532 2-2.844 2a2.98 2.98 0 0 1-2.813-2H3c-.469 0-.969-.344-1-1 0-.563.438-1 1-1h7.156a3.01 3.01 0 0 1 2.813-2m0 2c-.531 0-1 .437-1 1s.469 1 1 1c.562 0 1-.438 1-1s-.469-1-1-1" clip-rule="evenodd"/></g><defs><clipPath id="a"><path fill="#fff" d="M0 0h20v20H0z"/></clipPath></defs></svg>