<svg xmlns="http://www.w3.org/2000/svg" width="12" height="12" fill="none"><g clip-path="url(#a)"><path fill="#1A1C1F" fill-rule="evenodd" d="M2.406 6.606 4.8 6.6c.332 0 .594.28.594.611L5.4 9.6a.6.6 0 1 1-1.2 0V7.8H2.4a.6.6 0 0 1-.6-.6.6.6 0 0 1 .606-.594M9.6 6.6a.6.6 0 0 1 .6.6c0 .332-.287.6-.6.6H7.8v1.8a.6.6 0 1 1-1.2 0l.006-2.389c0-.332.262-.611.594-.611zm.003-1.2H7.2a.6.6 0 0 1-.6-.6l.006-2.394c0-.333.25-.6.583-.6s.611.284.611.616V4.2h1.797c.313 0 .603.268.603.6s-.265.6-.597.6m-7.197-.006A.6.6 0 0 1 1.8 4.8a.6.6 0 0 1 .6-.6h1.8V2.422c0-.332.257-.622.589-.622s.605.273.605.606L5.4 4.8a.6.6 0 0 1-.6.6z" clip-rule="evenodd"/></g><defs><clipPath id="a"><path fill="#fff" d="M0 0h12v12H0z"/></clipPath></defs></svg>