<svg xmlns="http://www.w3.org/2000/svg" width="32" height="32" fill="none"><path fill="#1A1C1F" fill-rule="evenodd" d="M10.747 3.035c-.387.096-.629.351-.716.753-.038.177-.058 1.303-.058 3.253v2.983l-3.191.015-3.19.014-.196.15c-.586.447-.504 1.4.145 1.695.207.094.427.1 3.941.101 3.23.001 3.747-.01 3.918-.081.264-.111.383-.224.5-.478.092-.2.098-.438.099-3.952L12 3.75l-.124-.235c-.193-.367-.706-.585-1.129-.48m9.981.01a.87.87 0 0 0-.617.492c-.109.227-.111.287-.11 3.96.001 3.505.007 3.743.099 3.943.117.254.236.367.5.478.171.071.688.082 3.918.081 3.514-.001 3.734-.007 3.941-.101.696-.316.724-1.366.046-1.75l-.212-.12H25.16l-3.133-.001V7.043c0-1.951-.02-3.078-.058-3.255-.124-.574-.645-.887-1.241-.743M3.533 20.113c-.246.121-.388.29-.485.575a.984.984 0 0 0 .728 1.278c.192.041 1.235.061 3.24.061h2.957v2.957c0 2.005.02 3.048.061 3.24.192.898 1.456 1.063 1.853.243.112-.232.113-.272.113-3.952 0-3.226-.011-3.744-.082-3.915-.111-.264-.224-.383-.478-.5-.2-.092-.438-.098-3.947-.099-3.691-.001-3.736 0-3.96.112M20.56 20.1c-.254.117-.368.236-.478.5-.071.171-.082.689-.082 3.915 0 3.68.001 3.72.113 3.952.397.82 1.661.655 1.853-.243.041-.192.061-1.235.061-3.24v-2.957h2.957c2.005 0 3.048-.02 3.24-.061.841-.18 1.06-1.324.345-1.797l-.214-.142-3.791-.013c-3.589-.012-3.802-.008-4.004.086"/></svg>