<svg xmlns="http://www.w3.org/2000/svg" width="16" height="16" fill="none"><g clip-path="url(#a)"><path fill="#1A1C1F" fill-rule="evenodd" d="M3.207 8.807 6.4 8.8c.443 0 .793.372.793.815L7.2 12.8a.799.799 0 1 1-1.6 0v-2.4H3.2a.8.8 0 0 1-.8-.8c0-.443.365-.793.807-.793M12.8 8.8c.443 0 .8.357.8.8s-.383.8-.8.8h-2.4v2.4a.799.799 0 1 1-1.6 0l.007-3.185c0-.443.35-.815.793-.815zm.004-1.6H9.6a.8.8 0 0 1-.8-.8l.007-3.193c0-.442.335-.8.778-.8a.83.83 0 0 1 .815.823V5.6h2.396a.82.82 0 0 1 .804.8c0 .443-.354.8-.796.8m-9.597-.007A.8.8 0 0 1 2.4 6.4c0-.443.357-.8.8-.8h2.4V3.23c0-.443.342-.83.785-.83s.808.365.808.807L7.2 6.4c0 .443-.357.8-.8.8z" clip-rule="evenodd"/></g><defs><clipPath id="a"><path fill="#fff" d="M0 0h16v16H0z"/></clipPath></defs></svg>