<svg xmlns="http://www.w3.org/2000/svg" width="32" height="32" fill="none"><g clip-path="url(#a)"><path fill="#1A1C1F" fill-rule="evenodd" d="M3 28v-7c0-.595.406-1 1-1s1 .4 1 1v6h6c.563 0 1 .406 1 1 0 .563-.375 1-1 1H4c-.594 0-1-.405-1-1m26 0c0 .595-.406 1-1 1h-7c-.625 0-1-.437-1-1 0-.594.438-1 1-1h6v-6c0-.6.406-1 1-1s1 .405 1 1zm0-24v7c0 .595-.406 1-1 1s-1-.4-1-1V5h-6c-.562 0-1-.406-1-1 0-.562.375-1 1-1h7c.594 0 1 .405 1 1M3 4c0-.595.406-1 1-1h7c.625 0 1 .438 1 1 0 .594-.437 1-1 1H5v6c0 .6-.406 1-1 1s-1-.405-1-1z" clip-rule="evenodd"/></g><defs><clipPath id="a"><path fill="#fff" d="M0 0h32v32H0z"/></clipPath></defs></svg>