<svg xmlns="http://www.w3.org/2000/svg" width="12" height="12" fill="none"><g clip-path="url(#a)"><path fill="#1A1C1F" fill-rule="evenodd" d="M2.4 7.2c.338 0 .619.263.619.6V9H4.2c.338 0 .6.262.6.6 0 .319-.262.6-.6.6H2.4a.617.617 0 0 1-.6-.6V7.8c0-.337.281-.6.6-.6m7.181.019c.338 0 .6.262.6.6V9.6c0 .319-.262.6-.6.6h-1.8a.604.604 0 0 1-.6-.6c0-.338.263-.6.6-.6h1.2V7.819c0-.338.282-.6.6-.6m.02-5.419c.318 0 .599.281.599.6v1.8c0 .337-.281.6-.6.6a.61.61 0 0 1-.619-.6V3H7.8a.59.59 0 0 1-.6-.6c0-.319.263-.6.6-.6zm-5.401 0c.338 0 .6.281.6.6 0 .337-.262.6-.6.6H3v1.2c0 .337-.262.6-.6.6a.604.604 0 0 1-.6-.6V2.4c0-.319.281-.6.6-.6z" clip-rule="evenodd"/></g><defs><clipPath id="a"><path fill="#fff" d="M0 0h12v12H0z"/></clipPath></defs></svg>