<svg width="32" height="32" viewBox="0 0 32 32" fill="none" xmlns="http://www.w3.org/2000/svg"><path d="M10.613 3.078 C 10.425 3.149,10.229 3.331,10.119 3.538 C 10.000 3.759,10.000 3.771,9.984 6.885 L 9.967 10.011 6.771 10.039 L 3.574 10.067 3.395 10.204 C 2.871 10.603,2.890 11.474,3.431 11.831 L 3.646 11.973 7.489 11.973 C 11.237 11.973,11.338 11.971,11.514 11.867 C 11.758 11.723,11.896 11.526,11.950 11.246 C 11.975 11.118,11.996 9.367,11.998 7.355 L 12.000 3.696 11.841 3.476 C 11.630 3.185,11.336 3.039,10.975 3.044 C 10.820 3.047,10.657 3.062,10.613 3.078 M20.485 3.148 C 20.225 3.311,20.120 3.458,20.056 3.749 C 19.988 4.060,19.982 10.897,20.050 11.246 C 20.104 11.526,20.242 11.723,20.486 11.867 C 20.662 11.971,20.763 11.973,24.507 11.973 L 28.347 11.973 28.541 11.852 C 28.903 11.627,29.062 11.233,28.964 10.805 C 28.894 10.497,28.796 10.360,28.507 10.164 L 28.305 10.027 25.169 10.027 L 22.032 10.027 22.016 6.920 C 22.000 3.883,21.997 3.808,21.887 3.568 C 21.720 3.207,21.497 3.071,21.040 3.051 C 20.733 3.037,20.635 3.055,20.485 3.148 M3.840 20.047 C 3.477 20.102,3.268 20.253,3.111 20.574 C 2.997 20.806,2.979 20.901,3.007 21.106 C 3.052 21.434,3.252 21.729,3.533 21.879 L 3.760 22.000 6.864 22.016 L 9.968 22.033 9.984 25.110 L 10.000 28.187 10.125 28.440 C 10.488 29.177,11.483 29.191,11.880 28.465 C 11.967 28.306,11.973 28.019,11.973 24.480 C 11.973 20.186,12.000 20.463,11.562 20.173 L 11.341 20.027 7.711 20.019 C 5.714 20.014,3.972 20.027,3.840 20.047 M20.880 20.048 C 20.515 20.084,20.264 20.233,20.119 20.498 C 20.034 20.653,20.025 20.971,20.011 24.315 C 20.001 26.789,20.014 28.052,20.054 28.242 C 20.241 29.146,21.465 29.272,21.880 28.430 C 22.000 28.188,22.000 28.176,22.016 25.109 L 22.032 22.032 25.109 22.016 L 28.187 22.000 28.441 21.875 C 28.712 21.741,28.929 21.448,28.993 21.129 C 29.049 20.848,28.920 20.506,28.671 20.276 L 28.448 20.071 26.877 20.036 C 25.044 19.994,21.343 20.002,20.880 20.048 " fill="#1A1C1F" stroke="none" fill-rule="evenodd"></path></svg>