<svg width="12" height="12" viewBox="0 0 12 12" fill="none" xmlns="http://www.w3.org/2000/svg"><path d="M4.546 1.860 C 4.442 1.914,4.290 2.074,4.239 2.185 C 4.203 2.265,4.201 2.326,4.200 3.232 L 4.200 4.194 3.222 4.204 L 2.245 4.214 2.117 4.284 C 1.965 4.367,1.873 4.479,1.828 4.635 C 1.746 4.915,1.902 5.230,2.178 5.344 L 2.290 5.390 3.620 5.390 L 4.950 5.390 5.044 5.344 C 5.164 5.285,5.285 5.164,5.344 5.044 L 5.390 4.950 5.396 3.623 L 5.401 2.297 5.353 2.191 C 5.290 2.053,5.186 1.941,5.067 1.880 C 4.928 1.809,4.666 1.800,4.546 1.860 M6.950 1.867 C 6.825 1.927,6.707 2.043,6.652 2.160 C 6.611 2.249,6.610 2.267,6.610 3.600 L 6.610 4.950 6.656 5.044 C 6.682 5.096,6.738 5.174,6.782 5.218 C 6.826 5.262,6.904 5.318,6.956 5.344 L 7.050 5.390 8.394 5.396 L 9.739 5.401 9.840 5.350 C 10.066 5.236,10.189 5.046,10.189 4.810 C 10.190 4.574,10.061 4.374,9.830 4.255 C 9.753 4.216,9.711 4.214,8.776 4.204 L 7.802 4.194 7.796 3.232 L 7.790 2.270 7.743 2.175 C 7.635 1.959,7.443 1.834,7.200 1.824 C 7.074 1.819,7.034 1.826,6.950 1.867 M2.500 6.618 C 2.232 6.629,2.203 6.634,2.117 6.685 C 1.930 6.795,1.800 7.006,1.800 7.200 C 1.800 7.404,1.959 7.647,2.156 7.744 C 2.250 7.790,2.251 7.790,3.224 7.796 L 4.198 7.802 4.204 8.776 C 4.210 9.749,4.210 9.750,4.256 9.844 C 4.353 10.041,4.596 10.200,4.800 10.200 C 5.004 10.200,5.245 10.042,5.343 9.845 L 5.390 9.750 5.396 8.423 L 5.401 7.097 5.352 6.989 C 5.295 6.864,5.160 6.722,5.037 6.656 L 4.950 6.610 3.870 6.608 C 3.276 6.607,2.659 6.611,2.500 6.618 M7.220 6.617 C 7.060 6.627,6.990 6.640,6.929 6.674 C 6.825 6.729,6.708 6.858,6.653 6.978 C 6.610 7.069,6.610 7.083,6.610 8.410 L 6.610 9.750 6.656 9.844 C 6.753 10.041,6.996 10.200,7.200 10.200 C 7.404 10.200,7.645 10.042,7.743 9.845 L 7.790 9.750 7.796 8.777 L 7.802 7.804 8.776 7.797 L 9.750 7.790 9.840 7.743 C 10.150 7.583,10.278 7.230,10.133 6.935 C 10.076 6.817,9.989 6.735,9.846 6.663 C 9.765 6.622,9.736 6.620,8.596 6.612 C 7.955 6.608,7.335 6.610,7.220 6.617 " fill="#1A1C1F" stroke="none" fill-rule="evenodd"></path></svg>