<svg width="12" height="12" viewBox="0 0 12 12" fill="none" xmlns="http://www.w3.org/2000/svg"><path d="M2.400 1.818 C 2.228 1.829,2.199 1.837,2.105 1.897 C 1.988 1.972,1.919 2.046,1.854 2.168 C 1.810 2.250,1.810 2.256,1.810 3.300 L 1.810 4.350 1.858 4.448 C 1.920 4.574,2.025 4.679,2.151 4.740 C 2.228 4.778,2.283 4.789,2.400 4.789 C 2.644 4.790,2.826 4.678,2.944 4.454 C 2.987 4.373,2.989 4.347,2.996 3.687 L 3.004 3.004 3.687 2.996 C 4.304 2.990,4.377 2.985,4.440 2.952 C 4.566 2.886,4.670 2.787,4.729 2.678 C 4.779 2.586,4.787 2.551,4.785 2.421 C 4.782 2.172,4.715 2.037,4.534 1.912 C 4.437 1.845,4.407 1.836,4.238 1.819 C 4.036 1.800,2.713 1.799,2.400 1.818 M7.720 1.817 C 7.520 1.843,7.347 1.971,7.257 2.157 C 7.222 2.229,7.212 2.285,7.212 2.410 C 7.212 2.549,7.220 2.584,7.270 2.676 C 7.335 2.795,7.420 2.878,7.546 2.944 C 7.627 2.987,7.653 2.989,8.303 2.996 L 8.976 3.004 8.984 3.677 C 8.993 4.441,8.993 4.440,9.154 4.604 C 9.283 4.735,9.412 4.789,9.600 4.789 C 9.717 4.790,9.771 4.780,9.844 4.744 C 9.964 4.685,10.085 4.564,10.144 4.444 L 10.190 4.350 10.190 3.300 L 10.190 2.250 10.131 2.143 C 10.066 2.027,9.955 1.920,9.833 1.857 C 9.760 1.819,9.707 1.817,8.793 1.810 C 8.263 1.806,7.780 1.809,7.720 1.817 M2.270 7.219 C 2.093 7.262,1.926 7.402,1.846 7.574 L 1.798 7.679 1.805 8.704 C 1.811 9.471,1.819 9.750,1.838 9.809 C 1.875 9.922,2.087 10.129,2.201 10.163 C 2.270 10.184,2.518 10.190,3.320 10.190 L 4.350 10.190 4.449 10.141 C 4.670 10.032,4.787 9.844,4.788 9.600 C 4.788 9.419,4.742 9.302,4.623 9.183 C 4.457 9.017,4.460 9.018,3.699 9.005 L 3.024 8.994 3.016 8.322 C 3.009 7.690,3.006 7.645,2.967 7.560 C 2.888 7.392,2.707 7.259,2.502 7.220 C 2.383 7.198,2.357 7.198,2.270 7.219 M9.450 7.238 C 9.271 7.285,9.107 7.422,9.027 7.590 C 8.981 7.689,8.980 7.699,8.980 8.342 L 8.980 8.994 8.304 9.004 L 7.627 9.014 7.501 9.081 C 7.129 9.279,7.076 9.749,7.393 10.039 C 7.451 10.093,7.534 10.149,7.575 10.163 C 7.634 10.184,7.876 10.190,8.690 10.190 L 9.730 10.190 9.824 10.144 C 9.944 10.085,10.065 9.964,10.124 9.844 L 10.170 9.750 10.170 8.720 C 10.170 7.924,10.164 7.670,10.144 7.603 C 10.111 7.494,9.967 7.346,9.834 7.284 C 9.730 7.235,9.544 7.213,9.450 7.238 " fill="#1A1C1F" stroke="none" fill-rule="evenodd"></path></svg>