<svg width="32" height="32" viewBox="0 0 32 32" fill="none" xmlns="http://www.w3.org/2000/svg"><path d="M4.578 3.037 L 3.583 3.067 3.378 3.232 C 2.993 3.542,3.015 3.296,2.997 7.462 C 2.986 10.132,2.998 11.260,3.041 11.362 C 3.141 11.604,3.472 11.882,3.747 11.955 C 4.193 12.073,4.609 11.904,4.876 11.496 L 5.013 11.285 5.013 8.149 L 5.013 5.013 8.123 5.013 L 11.232 5.013 11.470 4.861 C 11.796 4.652,11.878 4.546,11.945 4.247 C 12.013 3.942,11.974 3.667,11.827 3.424 C 11.614 3.070,11.623 3.072,9.737 3.032 C 7.828 2.991,6.070 2.993,4.578 3.037 M21.600 3.034 C 20.500 3.070,20.401 3.099,20.158 3.454 C 20.054 3.606,20.027 3.713,20.027 3.969 C 20.027 4.377,20.151 4.604,20.501 4.840 L 20.759 5.013 23.873 5.013 L 26.987 5.013 26.987 8.151 L 26.987 11.288 27.148 11.532 C 27.499 12.061,28.223 12.147,28.685 11.714 C 29.032 11.388,29.013 11.623,29.013 7.502 L 29.013 3.745 28.840 3.488 C 28.528 3.024,28.724 3.051,25.467 3.025 C 23.883 3.012,22.143 3.016,21.600 3.034 M3.715 20.058 C 3.574 20.081,3.442 20.159,3.293 20.309 C 3.114 20.488,3.068 20.577,3.035 20.810 C 3.013 20.966,2.993 22.696,2.991 24.655 C 2.987 28.056,2.991 28.227,3.088 28.415 C 3.206 28.645,3.370 28.805,3.611 28.927 C 3.762 29.004,4.137 29.013,6.971 29.012 C 10.345 29.010,11.389 28.970,11.597 28.833 C 11.761 28.726,11.925 28.448,11.968 28.205 C 12.018 27.926,11.912 27.519,11.744 27.342 C 11.433 27.014,11.569 27.027,8.148 26.998 L 5.013 26.971 5.013 23.856 C 5.013 21.241,5.001 20.717,4.936 20.592 C 4.837 20.401,4.513 20.115,4.359 20.084 C 4.112 20.033,3.914 20.025,3.715 20.058 M27.715 20.058 C 27.408 20.108,27.090 20.447,27.035 20.782 C 27.012 20.924,26.992 22.375,26.990 24.006 L 26.987 26.971 23.852 26.998 C 20.431 27.027,20.567 27.014,20.256 27.342 C 20.088 27.519,19.982 27.926,20.032 28.205 C 20.075 28.448,20.239 28.726,20.403 28.833 C 20.611 28.970,21.655 29.010,25.029 29.012 C 27.863 29.013,28.238 29.004,28.389 28.927 C 28.630 28.805,28.794 28.645,28.912 28.415 C 29.009 28.227,29.013 28.049,29.013 24.479 C 29.013 21.320,29.001 20.718,28.936 20.592 C 28.837 20.401,28.513 20.115,28.359 20.084 C 28.112 20.033,27.914 20.025,27.715 20.058 " fill="#1A1C1F" stroke="none" fill-rule="evenodd"></path></svg>