<svg xmlns="http://www.w3.org/2000/svg" width="32" height="32" fill="none"><path fill="#1A1C1F" fill-rule="evenodd" d="M3.748 3.038c-.202.049-.43.19-.557.345-.201.246-.209.434-.193 4.248l.015 3.71.143.216c.384.58 1.3.585 1.68.011l.151-.227.015-3.164.015-3.164h6.162l.264-.132c.385-.193.53-.435.53-.881 0-.294-.024-.39-.142-.569-.289-.438-.078-.417-4.231-.426-2.024-.005-3.757.01-3.852.033m16.98.007c-.48.115-.765.532-.712 1.045.04.38.206.622.541.791l.264.132h6.162l.015 3.164.015 3.164.151.227c.38.574 1.296.569 1.68-.011l.143-.216.014-3.76.015-3.761-.133-.273a.84.84 0 0 0-.362-.403l-.228-.131-3.68-.009c-2.096-.005-3.768.013-3.885.041M3.64 20.056c-.235.073-.529.379-.597.623-.036.131-.056 1.476-.056 3.857v3.656l.137.275c.113.228.185.299.416.412l.279.136 3.73-.014c4.209-.016 3.993.006 4.282-.432.118-.179.142-.275.142-.569 0-.422-.136-.667-.479-.864l-.214-.123-3.132-.015-3.131-.015-.015-3.158-.015-3.158-.123-.198a1.1 1.1 0 0 0-.306-.31c-.211-.13-.662-.181-.918-.103m24 0c-.235.073-.529.379-.597.623-.036.129-.056 1.292-.056 3.252v3.052l-3.134.015-3.133.015-.214.123c-.343.197-.479.442-.479.864 0 .294.024.39.142.569.289.438.073.416 4.282.432l3.73.014.28-.137c.235-.114.303-.182.418-.417l.137-.281-.015-3.757-.014-3.756-.123-.198a1.1 1.1 0 0 0-.306-.31c-.211-.13-.662-.181-.918-.103"/></svg>