<svg width="16" height="16" viewBox="0 0 16 16" fill="none" xmlns="http://www.w3.org/2000/svg"><path d="M3.199 2.424 C 2.970 2.438,2.932 2.449,2.806 2.529 C 2.650 2.630,2.559 2.728,2.472 2.890 C 2.414 2.999,2.413 3.008,2.413 4.400 L 2.413 5.800 2.478 5.931 C 2.560 6.099,2.700 6.238,2.868 6.320 C 2.972 6.371,3.042 6.385,3.201 6.385 C 3.528 6.385,3.768 6.238,3.926 5.939 C 3.984 5.830,3.986 5.799,3.995 4.916 L 4.005 4.005 4.916 3.995 C 5.792 3.986,5.831 3.984,5.936 3.928 C 6.285 3.742,6.436 3.443,6.372 3.061 C 6.335 2.837,6.233 2.679,6.044 2.548 C 5.920 2.463,5.874 2.448,5.665 2.426 C 5.412 2.399,3.626 2.398,3.199 2.424 M10.293 2.423 C 10.027 2.458,9.797 2.627,9.675 2.877 C 9.627 2.974,9.614 3.044,9.615 3.214 C 9.616 3.397,9.627 3.447,9.693 3.569 C 9.779 3.727,9.893 3.837,10.061 3.926 C 10.170 3.984,10.202 3.986,11.071 3.995 L 11.968 4.005 11.979 4.902 C 11.991 5.921,11.990 5.919,12.205 6.139 C 12.378 6.314,12.549 6.385,12.800 6.385 C 12.955 6.385,13.029 6.371,13.126 6.323 C 13.287 6.244,13.446 6.086,13.525 5.925 L 13.587 5.800 13.587 4.400 L 13.587 3.000 13.525 2.884 C 13.445 2.735,13.262 2.553,13.119 2.480 C 13.009 2.423,12.975 2.422,11.723 2.413 C 11.017 2.408,10.374 2.412,10.293 2.423 M3.027 9.625 C 2.793 9.682,2.579 9.861,2.465 10.095 L 2.397 10.234 2.405 11.617 L 2.413 13.000 2.475 13.126 C 2.555 13.288,2.796 13.509,2.941 13.553 C 3.026 13.578,3.391 13.587,4.427 13.587 L 5.800 13.587 5.931 13.522 C 6.224 13.378,6.382 13.125,6.385 12.800 C 6.386 12.550,6.295 12.342,6.125 12.204 C 5.895 12.017,5.922 12.022,4.931 12.006 L 4.032 11.992 4.022 11.096 C 4.012 10.253,4.009 10.193,3.956 10.080 C 3.851 9.856,3.609 9.679,3.336 9.627 C 3.177 9.597,3.142 9.597,3.027 9.625 M12.600 9.650 C 12.363 9.713,12.155 9.886,12.041 10.115 L 11.973 10.250 11.973 11.122 L 11.973 11.993 11.072 12.005 L 10.171 12.017 10.003 12.107 C 9.507 12.372,9.433 12.997,9.853 13.383 C 10.084 13.597,10.000 13.587,11.573 13.587 L 12.973 13.587 13.099 13.525 C 13.258 13.446,13.420 13.285,13.498 13.125 L 13.560 13.000 13.560 11.627 C 13.560 10.566,13.552 10.227,13.525 10.137 C 13.481 9.993,13.289 9.795,13.113 9.712 C 12.973 9.647,12.726 9.617,12.600 9.650 " fill="#1A1C1F" stroke="none" fill-rule="evenodd"></path></svg>