<svg xmlns="http://www.w3.org/2000/svg" width="20" height="20" fill="none"><g clip-path="url(#a)"><path fill="#1A1C1F" fill-rule="evenodd" d="M4 12c.563 0 1.031.438 1.031 1v2H7c.563 0 1 .438 1 1 0 .531-.437 1-1 1H4c-.531 0-1-.469-1-1v-3c0-.562.469-1 1-1m11.969.031c.562 0 1 .438 1 1V16c0 .531-.438 1-1 1h-3c-.563 0-1-.469-1-1 0-.562.437-1 1-1h2v-1.969c0-.562.469-1 1-1M16 3c.531 0 1 .469 1 1v3c0 .563-.469 1-1 1-.562 0-1.031-.437-1.031-1V5H13c-.562 0-1-.437-1-1 0-.531.438-1 1-1zM7 3c.563 0 1 .469 1 1 0 .563-.437 1-1 1H5v2c0 .563-.437 1-1 1-.531 0-1-.437-1-1V4c0-.531.469-1 1-1z" clip-rule="evenodd"/></g><defs><clipPath id="a"><path fill="#fff" d="M0 0h20v20H0z"/></clipPath></defs></svg>