<svg xmlns="http://www.w3.org/2000/svg" width="24" height="24" fill="none"><g clip-path="url(#a)"><path fill="#1A1C1F" fill-rule="evenodd" d="M4 14c.469 0 1 .406 1 1.031V19h4.031c.531 0 .969.469.969 1a.98.98 0 0 1-.969 1H4c-.562 0-1-.437-1-1v-4.969C3 14.437 3.438 14 4 14m16 0c.563 0 1 .469 1 1.031V20c0 .563-.437 1-1 1h-5.031A.98.98 0 0 1 14 20c0-.531.438-1 .969-1H19v-3.969c0-.562.438-1.031 1-1.031m0-11c.563 0 1 .438 1 1v5c0 .594-.437 1-1 1s-1-.437-1-1V5h-4.031A.98.98 0 0 1 14 4c0-.531.438-1 .969-1zM9.031 3c.531 0 .969.469.969 1a.98.98 0 0 1-.969 1H5v4c0 .594-.437 1-1 1s-1-.437-1-1V4c0-.562.438-1 1-1z" clip-rule="evenodd"/></g><defs><clipPath id="a"><path fill="#fff" d="M0 0h24v24H0z"/></clipPath></defs></svg>