<svg width="14" height="14" viewBox="0 0 14 14" fill="none" xmlns="http://www.w3.org/2000/svg"><path d="M2.788 2.121 C 2.601 2.134,2.563 2.144,2.455 2.213 C 2.319 2.301,2.239 2.387,2.163 2.529 C 2.112 2.624,2.112 2.632,2.112 3.850 L 2.112 5.075 2.168 5.190 C 2.240 5.336,2.363 5.458,2.509 5.530 C 2.601 5.575,2.662 5.587,2.801 5.587 C 3.087 5.587,3.297 5.458,3.435 5.197 C 3.485 5.102,3.487 5.072,3.496 4.301 L 3.505 3.505 4.301 3.496 C 5.024 3.488,5.106 3.483,5.180 3.444 C 5.498 3.275,5.632 3.016,5.575 2.679 C 5.543 2.482,5.454 2.344,5.288 2.229 C 5.176 2.152,5.141 2.142,4.944 2.122 C 4.707 2.100,3.133 2.099,2.788 2.121 M9.007 2.120 C 8.774 2.151,8.572 2.298,8.465 2.517 C 8.423 2.603,8.413 2.664,8.413 2.812 C 8.414 2.973,8.424 3.016,8.482 3.123 C 8.557 3.261,8.656 3.358,8.803 3.435 C 8.898 3.485,8.929 3.487,9.687 3.496 L 10.472 3.505 10.481 4.290 C 10.492 5.181,10.491 5.180,10.680 5.371 C 10.830 5.524,10.980 5.587,11.200 5.588 C 11.337 5.588,11.399 5.577,11.485 5.534 C 11.624 5.466,11.766 5.324,11.834 5.185 L 11.888 5.075 11.888 3.850 L 11.888 2.625 11.834 2.524 C 11.765 2.393,11.605 2.234,11.480 2.170 C 11.386 2.122,11.351 2.120,10.259 2.112 C 9.641 2.107,9.077 2.111,9.007 2.120 M2.648 8.422 C 2.442 8.472,2.247 8.636,2.154 8.837 L 2.097 8.958 2.106 10.155 C 2.112 11.050,2.122 11.375,2.145 11.444 C 2.188 11.576,2.435 11.817,2.568 11.857 C 2.649 11.881,2.937 11.888,3.873 11.888 L 5.075 11.888 5.190 11.832 C 5.446 11.706,5.585 11.485,5.587 11.200 C 5.588 10.981,5.509 10.799,5.359 10.678 C 5.157 10.514,5.181 10.518,4.314 10.505 L 3.528 10.493 3.519 9.709 C 3.508 8.833,3.509 8.834,3.340 8.651 C 3.230 8.532,3.088 8.456,2.917 8.423 C 2.780 8.397,2.749 8.397,2.648 8.422 M11.025 8.444 C 10.818 8.499,10.636 8.650,10.536 8.851 L 10.477 8.969 10.477 9.731 L 10.477 10.493 9.687 10.505 L 8.896 10.517 8.751 10.595 C 8.319 10.825,8.255 11.373,8.621 11.710 C 8.824 11.897,8.750 11.888,10.127 11.888 L 11.352 11.888 11.461 11.834 C 11.601 11.766,11.742 11.624,11.811 11.485 L 11.865 11.375 11.865 10.173 C 11.865 9.245,11.858 8.948,11.834 8.870 C 11.796 8.744,11.628 8.570,11.474 8.498 C 11.352 8.441,11.135 8.415,11.025 8.444 " fill="#1A1C1F" stroke="none" fill-rule="evenodd"></path></svg>