<svg width="20" height="20" viewBox="0 0 20 20" fill="none" xmlns="http://www.w3.org/2000/svg"><path d="M7.577 3.101 C 7.403 3.189,7.150 3.457,7.065 3.642 C 7.005 3.775,7.001 3.877,7.001 5.387 L 7.000 6.990 5.369 7.008 L 3.738 7.025 3.527 7.140 C 3.276 7.278,3.122 7.465,3.046 7.724 C 2.910 8.192,3.169 8.717,3.630 8.907 L 3.817 8.983 6.033 8.983 L 8.250 8.983 8.406 8.906 C 8.606 8.808,8.808 8.606,8.906 8.406 L 8.983 8.250 8.993 6.039 L 9.002 3.828 8.922 3.651 C 8.816 3.421,8.644 3.234,8.444 3.133 C 8.214 3.016,7.777 2.999,7.577 3.101 M11.581 3.111 C 11.373 3.210,11.181 3.400,11.087 3.600 C 11.018 3.748,11.017 3.780,11.017 6.000 L 11.017 8.250 11.094 8.406 C 11.136 8.493,11.231 8.623,11.304 8.696 C 11.377 8.769,11.507 8.864,11.594 8.906 L 11.750 8.983 13.991 8.993 L 16.231 9.002 16.400 8.917 C 16.776 8.726,16.981 8.410,16.982 8.017 C 16.984 7.624,16.768 7.290,16.385 7.093 C 16.259 7.028,16.180 7.024,14.628 7.008 L 13.003 6.990 12.993 5.387 C 12.983 3.788,12.983 3.783,12.906 3.627 C 12.808 3.427,12.606 3.225,12.406 3.128 C 12.170 3.012,11.804 3.005,11.581 3.111 M4.183 11.030 C 3.718 11.049,3.673 11.056,3.528 11.141 C 3.216 11.325,3.000 11.676,3.000 12.000 C 3.000 12.340,3.265 12.744,3.593 12.906 C 3.750 12.983,3.752 12.983,5.374 12.993 L 6.997 13.003 7.007 14.626 C 7.017 16.248,7.017 16.250,7.094 16.407 C 7.256 16.735,7.660 17.000,8.000 17.000 C 8.340 17.000,8.744 16.735,8.906 16.407 L 8.983 16.250 8.993 14.035 L 9.002 11.819 8.900 11.611 C 8.792 11.393,8.615 11.214,8.383 11.089 C 8.252 11.019,8.223 11.018,6.467 11.013 C 5.486 11.011,4.458 11.018,4.183 11.030 M12.033 11.028 C 11.767 11.045,11.651 11.067,11.548 11.123 C 11.376 11.215,11.180 11.431,11.088 11.629 C 11.017 11.782,11.017 11.806,11.017 14.017 L 11.017 16.250 11.094 16.407 C 11.256 16.735,11.660 17.000,12.000 17.000 C 12.340 17.000,12.744 16.735,12.906 16.407 C 12.983 16.250,12.983 16.248,12.993 14.628 L 13.003 13.006 14.626 12.995 L 16.250 12.983 16.400 12.906 C 16.916 12.638,17.129 12.050,16.889 11.558 C 16.787 11.349,16.670 11.237,16.431 11.116 L 16.272 11.035 14.328 11.021 C 13.258 11.013,12.226 11.017,12.033 11.028 " fill="#1A1C1F" stroke="none" fill-rule="evenodd"></path></svg>