<svg xmlns="http://www.w3.org/2000/svg" width="24" height="24" fill="none"><g clip-path="url(#a)"><path fill="#1A1C1F" fill-rule="evenodd" d="M9.031 21C8.531 21 8 20.594 8 19.969V16H4c-.531 0-1-.469-1-1.031 0-.531.469-.969 1-.969h5a.98.98 0 0 1 1 .969v5C10 20.53 9.562 21 9.031 21M16 19.969c0 .625-.531 1.031-1.031 1.031-.531 0-.969-.469-.969-1.031v-5A.98.98 0 0 1 15 14h5c.531 0 1 .438 1 .969C21 15.53 20.531 16 20 16h-4zM14.969 3c.5 0 1.031.406 1.031 1.031V8h4c.531 0 1 .469 1 1.031 0 .531-.469.969-1 .969h-5a.98.98 0 0 1-1-.969v-5C14 3.47 14.438 3 14.969 3M8 4.031C8 3.406 8.531 3 9.031 3c.531 0 .969.469.969 1.031v5A.98.98 0 0 1 9 10H4c-.531 0-1-.438-1-.969C3 8.47 3.469 8 4 8h4z" clip-rule="evenodd"/></g><defs><clipPath id="a"><path fill="#fff" d="M0 0h24v24H0z"/></clipPath></defs></svg>