<svg width="14" height="14" viewBox="0 0 14 14" fill="none" xmlns="http://www.w3.org/2000/svg"><path d="M5.304 2.170 C 5.182 2.232,5.005 2.420,4.946 2.550 C 4.904 2.643,4.901 2.714,4.901 3.771 L 4.900 4.893 3.763 4.905 C 2.663 4.917,2.621 4.919,2.519 4.967 C 2.251 5.093,2.111 5.308,2.113 5.588 C 2.114 5.798,2.183 5.958,2.331 6.097 C 2.544 6.296,2.464 6.288,4.223 6.288 L 5.775 6.288 5.885 6.234 C 6.024 6.166,6.166 6.024,6.234 5.885 L 6.288 5.775 6.295 4.227 L 6.302 2.679 6.245 2.556 C 6.171 2.395,6.051 2.264,5.911 2.193 C 5.750 2.111,5.444 2.100,5.304 2.170 M8.108 2.178 C 7.963 2.248,7.825 2.383,7.761 2.520 C 7.712 2.624,7.712 2.645,7.712 4.200 L 7.712 5.775 7.766 5.885 C 7.795 5.945,7.862 6.036,7.913 6.087 C 7.964 6.138,8.055 6.205,8.115 6.234 L 8.225 6.288 9.793 6.295 L 11.362 6.302 11.480 6.242 C 11.744 6.108,11.887 5.887,11.888 5.612 C 11.889 5.337,11.737 5.103,11.469 4.965 C 11.381 4.919,11.326 4.917,10.239 4.905 L 9.102 4.893 9.095 3.771 C 9.088 2.652,9.088 2.648,9.034 2.539 C 8.965 2.399,8.824 2.258,8.685 2.189 C 8.519 2.108,8.263 2.103,8.108 2.178 M2.917 7.721 C 2.604 7.734,2.570 7.740,2.470 7.799 C 2.251 7.927,2.100 8.173,2.100 8.400 C 2.100 8.638,2.285 8.921,2.515 9.034 C 2.625 9.088,2.626 9.088,3.761 9.095 L 4.898 9.102 4.905 10.239 C 4.912 11.374,4.912 11.375,4.966 11.485 C 5.079 11.715,5.362 11.900,5.600 11.900 C 5.838 11.900,6.119 11.716,6.233 11.486 L 6.288 11.375 6.295 9.824 L 6.302 8.274 6.230 8.128 C 6.155 7.975,6.030 7.849,5.868 7.762 C 5.776 7.713,5.757 7.712,4.515 7.709 C 3.822 7.708,3.103 7.713,2.917 7.721 M8.412 7.720 C 8.238 7.731,8.154 7.748,8.083 7.786 C 7.963 7.850,7.826 8.001,7.762 8.140 C 7.712 8.247,7.712 8.264,7.712 9.812 L 7.712 11.375 7.764 11.481 C 7.922 11.802,8.278 11.965,8.598 11.864 C 8.762 11.813,8.956 11.644,9.034 11.485 C 9.088 11.375,9.088 11.374,9.095 10.240 L 9.102 9.104 10.239 9.096 L 11.375 9.088 11.480 9.034 C 11.841 8.846,11.990 8.435,11.822 8.090 C 11.752 7.947,11.644 7.844,11.488 7.771 C 11.394 7.726,11.326 7.724,10.017 7.714 C 9.262 7.709,8.540 7.712,8.412 7.720 " fill="#1A1C1F" stroke="none" fill-rule="evenodd"></path></svg>