<svg width="20" height="20" viewBox="0 0 20 20" fill="none" xmlns="http://www.w3.org/2000/svg"><path d="M3.983 3.032 C 3.808 3.044,3.642 3.075,3.583 3.107 C 3.403 3.205,3.216 3.390,3.116 3.571 L 3.017 3.750 3.017 5.500 L 3.017 7.250 3.097 7.414 C 3.201 7.624,3.375 7.798,3.585 7.900 C 3.714 7.963,3.805 7.981,4.000 7.982 C 4.407 7.984,4.710 7.797,4.907 7.424 C 4.979 7.288,4.982 7.245,4.994 6.145 L 5.006 5.006 6.145 4.994 C 7.251 4.982,7.287 4.979,7.426 4.906 C 7.752 4.735,7.969 4.418,7.977 4.104 C 7.989 3.662,7.871 3.403,7.562 3.190 C 7.399 3.078,7.345 3.060,7.081 3.032 C 6.757 2.998,4.467 2.998,3.983 3.032 M12.867 3.029 C 12.534 3.072,12.245 3.284,12.094 3.595 C 12.036 3.715,12.020 3.808,12.020 4.016 C 12.020 4.248,12.033 4.307,12.117 4.462 C 12.217 4.644,12.391 4.809,12.600 4.920 C 12.705 4.976,12.826 4.983,13.838 4.994 L 14.960 5.007 14.973 6.128 C 14.988 7.401,14.988 7.399,15.257 7.673 C 15.472 7.892,15.686 7.981,16.000 7.982 C 16.195 7.983,16.284 7.966,16.406 7.906 C 16.606 7.808,16.808 7.606,16.906 7.406 L 16.983 7.250 16.983 5.500 L 16.983 3.750 16.884 3.571 C 16.778 3.379,16.592 3.199,16.391 3.096 C 16.272 3.035,16.171 3.030,14.657 3.018 C 13.773 3.010,12.967 3.015,12.867 3.029 M3.783 12.031 C 3.491 12.103,3.224 12.326,3.081 12.618 L 2.996 12.792 3.008 14.504 C 3.018 15.784,3.032 16.250,3.064 16.348 C 3.125 16.537,3.478 16.881,3.669 16.939 C 3.784 16.973,4.196 16.983,5.533 16.983 L 7.250 16.983 7.414 16.903 C 7.779 16.723,7.977 16.408,7.981 16.000 C 7.983 15.790,7.968 15.719,7.889 15.559 C 7.794 15.364,7.619 15.194,7.403 15.084 C 7.303 15.033,7.143 15.023,6.164 15.008 L 5.040 14.990 5.027 13.870 C 5.012 12.618,5.012 12.621,4.771 12.359 C 4.615 12.189,4.412 12.080,4.167 12.033 C 3.971 11.996,3.928 11.996,3.783 12.031 M15.750 12.063 C 15.454 12.141,15.194 12.357,15.051 12.644 L 14.967 12.813 14.967 13.902 L 14.967 14.990 13.838 15.007 L 12.709 15.025 12.501 15.135 C 11.894 15.459,11.794 16.240,12.300 16.714 C 12.604 16.998,12.489 16.983,14.467 16.983 L 16.217 16.983 16.373 16.906 C 16.573 16.808,16.775 16.606,16.873 16.406 L 16.950 16.250 16.950 14.533 C 16.950 13.266,16.939 12.781,16.909 12.682 C 16.785 12.276,16.176 11.950,15.750 12.063 " fill="#1A1C1F" stroke="none" fill-rule="evenodd"></path></svg>