<svg width="24" height="24" viewBox="0 0 24 24" fill="none" xmlns="http://www.w3.org/2000/svg"><path d="M8.720 3.060 C 8.481 3.136,8.263 3.322,8.119 3.574 L 8.001 3.780 8.000 5.884 L 8.000 7.988 5.880 8.010 C 3.808 8.032,3.756 8.035,3.580 8.120 C 3.217 8.296,2.966 8.750,3.011 9.150 C 3.040 9.411,3.285 9.748,3.539 9.878 L 3.738 9.980 5.939 9.993 C 7.149 10.001,8.415 9.994,8.752 9.979 C 9.351 9.952,9.368 9.949,9.551 9.826 C 9.654 9.756,9.792 9.612,9.859 9.503 L 9.980 9.306 9.980 6.523 C 9.980 3.886,9.976 3.733,9.906 3.600 C 9.662 3.142,9.169 2.918,8.720 3.060 M14.773 3.038 C 14.547 3.074,14.309 3.248,14.151 3.494 L 14.020 3.698 14.020 6.502 L 14.020 9.306 14.141 9.503 C 14.208 9.612,14.346 9.756,14.449 9.826 C 14.630 9.948,14.654 9.952,15.208 9.979 C 15.523 9.994,16.789 10.001,18.021 9.993 L 20.262 9.980 20.461 9.878 C 20.715 9.748,20.960 9.411,20.989 9.150 C 21.034 8.751,20.783 8.296,20.421 8.120 C 20.246 8.036,20.190 8.033,18.121 8.011 L 16.000 7.987 16.000 5.884 L 15.999 3.780 15.880 3.572 C 15.814 3.458,15.678 3.301,15.576 3.223 C 15.412 3.098,15.333 3.069,15.020 3.024 C 14.976 3.017,14.865 3.024,14.773 3.038 M4.060 14.037 C 3.578 14.065,3.362 14.168,3.165 14.465 C 3.009 14.700,2.975 14.880,3.034 15.160 C 3.116 15.553,3.442 15.893,3.806 15.963 C 3.902 15.981,4.884 15.997,5.988 15.998 L 7.997 16.000 8.008 18.130 L 8.020 20.260 8.130 20.447 C 8.387 20.885,8.937 21.111,9.337 20.944 C 9.523 20.866,9.789 20.617,9.893 20.423 C 9.980 20.260,9.980 20.259,9.980 17.477 L 9.980 14.694 9.859 14.498 C 9.793 14.391,9.661 14.248,9.566 14.181 L 9.393 14.060 8.347 14.035 C 7.089 14.004,4.616 14.006,4.060 14.037 M15.073 14.036 C 14.637 14.058,14.595 14.068,14.434 14.181 C 14.339 14.248,14.207 14.391,14.141 14.498 L 14.020 14.694 14.020 17.477 C 14.020 20.259,14.020 20.260,14.107 20.423 C 14.211 20.617,14.477 20.866,14.663 20.944 C 15.063 21.111,15.613 20.885,15.870 20.447 L 15.980 20.260 15.992 18.130 L 16.004 16.000 18.012 15.998 C 19.116 15.997,20.098 15.981,20.194 15.963 C 20.560 15.892,20.884 15.553,20.968 15.152 C 21.009 14.957,21.006 14.892,20.948 14.708 C 20.870 14.462,20.681 14.245,20.428 14.110 C 20.260 14.021,20.259 14.021,17.900 14.016 C 16.602 14.014,15.330 14.022,15.073 14.036 " fill="#1A1C1F" stroke="none" fill-rule="evenodd"></path></svg>