<svg xmlns="http://www.w3.org/2000/svg" width="16" height="16" fill="none"><g clip-path="url(#a)"><path fill="#1A1C1F" fill-rule="evenodd" d="M3.2 9.6c.45 0 .825.35.825.8V12H5.6c.45 0 .8.35.8.8 0 .425-.35.8-.8.8H3.2a.823.823 0 0 1-.8-.8v-2.4c0-.45.375-.8.8-.8m9.575.025c.45 0 .8.35.8.8V12.8c0 .425-.35.8-.8.8h-2.4c-.45 0-.8-.375-.8-.8 0-.45.35-.8.8-.8h1.6v-1.575c0-.45.375-.8.8-.8M12.8 2.4c.425 0 .8.375.8.8v2.4c0 .45-.375.8-.8.8a.81.81 0 0 1-.825-.8V4H10.4a.79.79 0 0 1-.8-.8c0-.425.35-.8.8-.8zm-7.2 0c.45 0 .8.375.8.8 0 .45-.35.8-.8.8H4v1.6c0 .45-.35.8-.8.8-.425 0-.8-.35-.8-.8V3.2c0-.425.375-.8.8-.8z" clip-rule="evenodd"/></g><defs><clipPath id="a"><path fill="#fff" d="M0 0h16v16H0z"/></clipPath></defs></svg>