<svg width="24" height="24" viewBox="0 0 24 24" fill="none" xmlns="http://www.w3.org/2000/svg"><path d="M3.932 3.036 C 3.654 3.059,3.578 3.081,3.432 3.186 C 3.337 3.254,3.200 3.406,3.127 3.524 L 2.995 3.740 3.008 6.520 C 3.022 9.265,3.024 9.302,3.108 9.460 C 3.292 9.807,3.574 9.967,4.000 9.967 C 4.426 9.967,4.707 9.807,4.893 9.460 C 4.977 9.303,4.979 9.258,4.993 7.152 L 5.007 5.004 7.154 4.992 L 9.300 4.980 9.480 4.874 C 9.832 4.666,9.967 4.427,9.969 4.001 C 9.971 3.812,9.948 3.693,9.888 3.576 C 9.797 3.396,9.534 3.141,9.368 3.071 C 9.246 3.019,4.504 2.989,3.932 3.036 M14.935 3.036 C 14.670 3.057,14.580 3.083,14.448 3.174 C 14.124 3.399,13.973 3.766,14.039 4.171 C 14.083 4.447,14.160 4.599,14.323 4.737 C 14.627 4.992,14.495 4.979,16.846 4.992 L 18.992 5.004 19.007 7.152 C 19.021 9.255,19.024 9.303,19.107 9.460 C 19.293 9.807,19.574 9.967,20.000 9.967 C 20.426 9.967,20.709 9.806,20.892 9.460 C 20.975 9.303,20.976 9.254,20.992 6.537 C 21.009 3.792,21.008 3.773,20.925 3.609 C 20.822 3.408,20.604 3.191,20.407 3.094 C 20.270 3.026,20.087 3.021,17.760 3.015 C 16.385 3.011,15.114 3.021,14.935 3.036 M3.752 14.039 C 3.539 14.079,3.303 14.258,3.151 14.494 L 3.020 14.698 3.007 16.839 C 3.000 18.017,3.007 19.291,3.022 19.672 C 3.049 20.362,3.049 20.365,3.174 20.551 C 3.244 20.654,3.388 20.792,3.497 20.859 L 3.694 20.980 6.397 20.980 C 7.884 20.980,9.184 20.966,9.287 20.948 C 9.522 20.908,9.802 20.671,9.900 20.431 C 10.000 20.187,9.994 19.784,9.889 19.577 C 9.797 19.396,9.534 19.141,9.368 19.071 C 9.293 19.039,8.604 19.020,7.132 19.009 L 5.004 18.992 4.992 16.866 L 4.980 14.740 4.871 14.554 C 4.632 14.148,4.210 13.953,3.752 14.039 M19.732 14.044 C 19.530 14.092,19.203 14.372,19.095 14.589 C 19.026 14.729,19.020 14.889,19.007 16.866 L 18.993 18.992 16.866 19.007 C 14.450 19.023,14.587 19.004,14.262 19.366 C 14.130 19.513,14.074 19.616,14.042 19.772 C 13.994 20.002,14.034 20.316,14.138 20.516 C 14.238 20.710,14.509 20.913,14.715 20.948 C 14.817 20.966,16.116 20.980,17.603 20.980 L 20.306 20.980 20.503 20.859 C 20.612 20.792,20.756 20.654,20.826 20.551 L 20.951 20.364 20.981 19.614 C 21.023 18.552,20.982 14.768,20.927 14.632 C 20.863 14.474,20.608 14.205,20.439 14.119 C 20.254 14.025,19.951 13.993,19.732 14.044 " fill="#1A1C1F" stroke="none" fill-rule="evenodd"></path></svg>