<svg xmlns="http://www.w3.org/2000/svg" width="32" height="32" fill="none"><g clip-path="url(#a)"><path fill="#1A1C1F" fill-rule="evenodd" d="M12 21v7c0 .595-.406 1-1 1s-1-.4-1-1v-6H4c-.562 0-1-.406-1-1 0-.562.375-1 1-1h7c.594 0 1 .405 1 1m8 0c0-.595.406-1 1-1h7c.625 0 1 .438 1 1 0 .594-.437 1-1 1h-6v6c0 .6-.406 1-1 1s-1-.405-1-1zm0-10V4c0-.595.406-1 1-1s1 .4 1 1v6h6c.563 0 1 .406 1 1 0 .563-.375 1-1 1h-7c-.594 0-1-.405-1-1m-8 0c0 .595-.406 1-1 1H4c-.625 0-1-.437-1-1 0-.594.438-1 1-1h6V4c0-.6.406-1 1-1s1 .405 1 1z" clip-rule="evenodd"/></g><defs><clipPath id="a"><path fill="#fff" d="M0 0h32v32H0z"/></clipPath></defs></svg>