<svg width="28" height="28" viewBox="0 0 28 28" fill="none" xmlns="http://www.w3.org/2000/svg"><path d="M3.983 2.657 L 3.135 2.683 2.956 2.828 C 2.619 3.099,2.638 2.886,2.623 6.509 C 2.615 8.305,2.621 9.824,2.636 9.883 C 2.651 9.943,2.747 10.083,2.849 10.193 C 3.253 10.632,3.919 10.583,4.245 10.091 L 4.387 9.877 4.387 7.132 L 4.387 4.387 7.108 4.387 L 9.828 4.387 10.036 4.254 C 10.321 4.071,10.393 3.978,10.452 3.716 C 10.512 3.450,10.477 3.208,10.349 2.996 C 10.164 2.689,10.161 2.689,8.614 2.653 C 7.036 2.617,5.246 2.619,3.983 2.657 M18.947 2.655 C 17.933 2.687,17.853 2.709,17.638 3.023 C 17.547 3.155,17.523 3.249,17.524 3.473 C 17.524 3.829,17.632 4.029,17.939 4.235 L 18.164 4.387 20.889 4.387 L 23.613 4.387 23.613 7.133 L 23.613 9.879 23.746 10.076 C 23.911 10.322,24.090 10.442,24.352 10.481 C 24.622 10.522,24.905 10.434,25.099 10.251 C 25.403 9.963,25.387 10.170,25.387 6.564 L 25.387 3.277 25.235 3.052 C 24.963 2.649,25.127 2.671,22.330 2.648 C 20.970 2.636,19.447 2.640,18.947 2.655 M3.251 17.547 C 3.132 17.569,3.010 17.642,2.888 17.763 C 2.736 17.915,2.697 17.994,2.659 18.225 C 2.633 18.386,2.614 19.805,2.614 21.597 C 2.613 24.546,2.617 24.698,2.702 24.864 C 2.805 25.064,2.949 25.205,3.159 25.311 C 3.292 25.378,3.620 25.387,6.099 25.385 C 9.052 25.384,9.966 25.349,10.148 25.229 C 10.290 25.136,10.435 24.892,10.472 24.680 C 10.516 24.435,10.423 24.080,10.276 23.924 C 10.005 23.638,10.124 23.650,7.130 23.624 L 4.387 23.600 4.387 20.874 C 4.387 18.586,4.376 18.128,4.319 18.018 C 4.232 17.850,3.949 17.601,3.814 17.574 C 3.564 17.523,3.418 17.517,3.251 17.547 M24.251 17.547 C 23.976 17.597,23.721 17.878,23.661 18.195 C 23.632 18.346,23.613 19.468,23.613 21.023 L 23.613 23.600 20.870 23.624 C 17.876 23.650,17.995 23.638,17.724 23.924 C 17.577 24.080,17.484 24.435,17.528 24.680 C 17.565 24.892,17.710 25.136,17.852 25.229 C 18.034 25.349,18.948 25.384,21.901 25.385 C 24.380 25.387,24.708 25.378,24.841 25.311 C 25.051 25.205,25.195 25.064,25.298 24.864 C 25.383 24.698,25.387 24.543,25.387 21.420 C 25.387 18.655,25.376 18.128,25.319 18.018 C 25.232 17.850,24.949 17.601,24.814 17.574 C 24.564 17.523,24.418 17.517,24.251 17.547 " fill="#1A1C1F" stroke="none" fill-rule="evenodd"></path></svg>