<svg xmlns="http://www.w3.org/2000/svg" width="14" height="14" fill="none"><g clip-path="url(#a)"><path fill="#1A1C1F" fill-rule="evenodd" d="M2.8 8.4a.71.71 0 0 1 .722.7v1.4H4.9c.394 0 .7.306.7.7 0 .372-.306.7-.7.7H2.8a.72.72 0 0 1-.7-.7V9.1c0-.394.328-.7.7-.7m8.378.022c.394 0 .7.306.7.7V11.2c0 .372-.306.7-.7.7h-2.1a.705.705 0 0 1-.7-.7c0-.394.306-.7.7-.7h1.4V9.122c0-.394.328-.7.7-.7M11.2 2.1c.372 0 .7.328.7.7v2.1c0 .394-.328.7-.7.7a.71.71 0 0 1-.722-.7V3.5H9.1a.69.69 0 0 1-.7-.7c0-.372.306-.7.7-.7zm-6.3 0c.394 0 .7.328.7.7 0 .394-.306.7-.7.7H3.5v1.4c0 .394-.306.7-.7.7a.705.705 0 0 1-.7-.7V2.8c0-.372.328-.7.7-.7z" clip-rule="evenodd"/></g><defs><clipPath id="a"><path fill="#fff" d="M0 0h14v14H0z"/></clipPath></defs></svg>