<svg xmlns="http://www.w3.org/2000/svg" width="28" height="28" fill="none"><g clip-path="url(#a)"><path fill="#1A1C1F" fill-rule="evenodd" d="M10.5 18.375V24.5c0 .52-.355.875-.875.875s-.875-.35-.875-.875v-5.25H3.5c-.492 0-.875-.355-.875-.875 0-.492.328-.875.875-.875h6.125c.52 0 .875.354.875.875m7 0c0-.521.355-.875.875-.875H24.5c.547 0 .875.383.875.875 0 .52-.383.875-.875.875h-5.25v5.25c0 .525-.355.875-.875.875s-.875-.355-.875-.875zm0-8.75V3.5c0-.52.355-.875.875-.875s.875.35.875.875v5.25h5.25c.492 0 .875.356.875.875 0 .492-.328.875-.875.875h-6.125c-.52 0-.875-.354-.875-.875m-7 0c0 .521-.355.875-.875.875H3.5c-.547 0-.875-.383-.875-.875 0-.52.383-.875.875-.875h5.25V3.5c0-.525.355-.875.875-.875s.875.355.875.875z" clip-rule="evenodd"/></g><defs><clipPath id="a"><path fill="#fff" d="M0 0h28v28H0z"/></clipPath></defs></svg>