<svg width="16" height="16" viewBox="0 0 16 16" fill="none" xmlns="http://www.w3.org/2000/svg"><path d="M6.062 2.481 C 5.922 2.551,5.720 2.766,5.652 2.914 C 5.604 3.020,5.601 3.102,5.601 4.310 L 5.600 5.593 4.296 5.605 L 2.993 5.618 2.823 5.711 C 2.620 5.822,2.498 5.971,2.437 6.180 C 2.328 6.554,2.536 6.974,2.904 7.125 L 3.053 7.187 4.827 7.187 L 6.600 7.187 6.725 7.125 C 6.885 7.046,7.046 6.885,7.125 6.725 L 7.187 6.600 7.194 4.828 L 7.202 3.056 7.120 2.889 C 6.971 2.586,6.749 2.446,6.400 2.433 C 6.211 2.425,6.155 2.433,6.062 2.481 M9.264 2.489 C 9.098 2.568,8.945 2.720,8.870 2.880 C 8.814 2.998,8.813 3.024,8.813 4.800 L 8.813 6.600 8.875 6.725 C 8.909 6.794,8.985 6.898,9.043 6.957 C 9.102 7.015,9.206 7.091,9.275 7.125 L 9.400 7.187 11.192 7.194 L 12.985 7.202 13.120 7.133 C 13.421 6.981,13.585 6.728,13.586 6.413 C 13.587 6.099,13.414 5.832,13.107 5.674 C 13.004 5.621,12.948 5.618,11.701 5.606 L 10.402 5.593 10.395 4.310 C 10.387 3.030,10.386 3.026,10.325 2.901 C 10.246 2.741,10.085 2.580,9.925 2.502 C 9.736 2.410,9.444 2.404,9.264 2.489 M3.347 8.824 C 2.974 8.839,2.938 8.845,2.823 8.913 C 2.573 9.060,2.400 9.341,2.400 9.600 C 2.400 9.872,2.612 10.196,2.874 10.325 C 3.000 10.387,3.001 10.387,4.299 10.395 L 5.598 10.402 5.605 11.701 C 5.613 12.999,5.613 13.000,5.675 13.126 C 5.804 13.388,6.128 13.600,6.400 13.600 C 6.672 13.600,6.996 13.388,7.125 13.126 L 7.187 13.000 7.194 11.231 L 7.202 9.462 7.137 9.321 C 7.053 9.137,6.916 8.989,6.741 8.892 L 6.600 8.813 5.173 8.810 C 4.389 8.809,3.567 8.815,3.347 8.824 M9.613 8.823 C 9.415 8.836,9.319 8.855,9.238 8.898 C 9.101 8.972,8.944 9.145,8.870 9.303 C 8.814 9.425,8.813 9.445,8.813 11.213 L 8.813 13.000 8.873 13.121 C 9.054 13.488,9.460 13.674,9.826 13.559 C 10.013 13.500,10.235 13.307,10.325 13.126 C 10.387 13.000,10.387 12.999,10.395 11.702 L 10.402 10.405 11.701 10.396 L 13.000 10.387 13.120 10.324 C 13.533 10.110,13.703 9.640,13.511 9.246 C 13.429 9.079,13.336 8.989,13.144 8.892 L 13.015 8.826 11.447 8.816 C 10.585 8.810,9.760 8.813,9.613 8.823 " fill="#1A1C1F" stroke="none" fill-rule="evenodd"></path></svg>