<svg width="28" height="28" viewBox="0 0 28 28" fill="none" xmlns="http://www.w3.org/2000/svg"><path d="M9.287 2.694 C 9.122 2.756,8.951 2.915,8.854 3.096 C 8.750 3.289,8.750 3.300,8.736 6.025 L 8.721 8.759 5.924 8.784 L 3.126 8.809 2.970 8.929 C 2.512 9.278,2.530 10.040,3.002 10.352 L 3.190 10.477 6.553 10.477 C 9.833 10.477,9.921 10.474,10.075 10.383 C 10.288 10.258,10.409 10.085,10.457 9.840 C 10.478 9.728,10.497 8.196,10.498 6.435 L 10.500 3.234 10.361 3.042 C 10.176 2.787,9.919 2.659,9.604 2.664 C 9.468 2.666,9.325 2.679,9.287 2.694 M17.925 2.755 C 17.697 2.897,17.605 3.026,17.549 3.281 C 17.490 3.552,17.484 9.535,17.543 9.840 C 17.591 10.085,17.712 10.258,17.925 10.383 C 18.079 10.474,18.167 10.477,21.443 10.477 L 24.803 10.477 24.974 10.371 C 25.290 10.174,25.430 9.829,25.344 9.455 C 25.282 9.185,25.196 9.065,24.944 8.893 L 24.767 8.773 22.023 8.773 L 19.278 8.773 19.264 6.055 C 19.250 3.397,19.248 3.332,19.151 3.122 C 19.005 2.806,18.810 2.687,18.410 2.670 C 18.141 2.658,18.055 2.673,17.925 2.755 M3.360 17.541 C 3.042 17.589,2.859 17.721,2.722 18.003 C 2.623 18.205,2.606 18.288,2.631 18.468 C 2.670 18.755,2.846 19.013,3.092 19.144 L 3.290 19.250 6.006 19.264 L 8.722 19.279 8.736 21.971 L 8.750 24.663 8.859 24.885 C 9.177 25.530,10.047 25.542,10.395 24.907 C 10.471 24.767,10.477 24.516,10.477 21.420 C 10.477 17.663,10.500 17.905,10.117 17.651 L 9.924 17.523 6.747 17.516 C 5.000 17.512,3.475 17.524,3.360 17.541 M18.270 17.542 C 17.951 17.574,17.731 17.704,17.604 17.935 C 17.530 18.072,17.523 18.341,17.523 21.420 C 17.523 24.516,17.529 24.767,17.605 24.907 C 17.805 25.273,18.186 25.447,18.563 25.346 C 18.857 25.268,19.014 25.142,19.141 24.885 L 19.250 24.663 19.264 21.971 L 19.278 19.278 21.971 19.264 C 24.973 19.248,24.921 19.254,25.173 18.924 C 25.470 18.535,25.435 18.063,25.087 17.742 L 24.892 17.562 23.615 17.531 C 22.120 17.495,18.675 17.502,18.270 17.542 " fill="#1A1C1F" stroke="none" fill-rule="evenodd"></path></svg>