<svg xmlns="http://www.w3.org/2000/svg" width="20" height="20" fill="none"><g clip-path="url(#a)"><path fill="#1A1C1F" fill-rule="evenodd" d="M4.01 11.01 8 11c.553 0 .99.465.99 1.019L9 16c0 .553-.447 1-1 1s-1-.447-1-1v-3H4c-.554 0-1-.447-1-1s.456-.99 1.01-.99M16 11c.553 0 1 .447 1 1s-.48 1-1 1h-3v3c0 .553-.447 1-1 1s-1-.447-1-1l.01-3.981c0-.554.437-1.019.99-1.019zm.005-2H12c-.553 0-1-.447-1-1l.01-3.99c0-.554.418-1 .971-1 .554 0 1.019.474 1.019 1.027V7h2.995C16.516 7 17 7.447 17 8s-.442 1-.995 1M4.009 8.99A1 1 0 0 1 3 8c0-.553.446-1 1-1h3V4.037C7 3.484 7.428 3 7.981 3c.554 0 1.01.456 1.01 1.01L9 8c0 .553-.447 1-1 1z" clip-rule="evenodd"/></g><defs><clipPath id="a"><path fill="#fff" d="M0 0h20v20H0z"/></clipPath></defs></svg>