<svg xmlns="http://www.w3.org/2000/svg" width="14" height="14" fill="none"><g clip-path="url(#a)"><path fill="#1A1C1F" fill-rule="evenodd" d="M2.806 7.707 5.6 7.7c.387 0 .693.326.693.713L6.3 11.2a.699.699 0 1 1-1.4 0V9.1H2.8a.7.7 0 0 1-.7-.7c0-.387.319-.693.706-.693M11.2 7.7c.387 0 .7.313.7.7s-.335.7-.7.7H9.1v2.1a.699.699 0 1 1-1.4 0l.006-2.787c0-.387.307-.713.694-.713zm.003-1.4H8.4a.7.7 0 0 1-.7-.7l.006-2.793c0-.388.294-.7.681-.7s.713.332.713.719V4.9h2.097c.364 0 .703.313.703.7s-.31.7-.697.7m-8.397-.007A.7.7 0 0 1 2.1 5.6c0-.387.313-.7.7-.7h2.1V2.826c0-.387.3-.726.687-.726a.71.71 0 0 1 .706.707L6.3 5.6c0 .387-.313.7-.7.7z" clip-rule="evenodd"/></g><defs><clipPath id="a"><path fill="#fff" d="M0 0h14v14H0z"/></clipPath></defs></svg>