<svg width="12" height="12" viewBox="0 0 12 12" fill="none" xmlns="http://www.w3.org/2000/svg"><path d="M2.560 1.818 C 2.141 1.832,2.120 1.838,1.961 2.011 C 1.801 2.185,1.810 2.085,1.810 3.600 C 1.810 5.128,1.798 5.014,1.976 5.205 C 2.156 5.399,2.075 5.388,3.476 5.397 C 4.714 5.404,4.956 5.394,5.076 5.332 C 5.165 5.286,5.293 5.147,5.349 5.035 L 5.400 4.932 5.400 3.590 L 5.400 2.247 5.323 2.119 C 5.265 2.022,5.216 1.969,5.121 1.905 L 4.996 1.820 4.681 1.820 C 4.508 1.820,4.043 1.817,3.648 1.813 C 3.253 1.808,2.764 1.811,2.560 1.818 M7.160 1.819 C 7.059 1.827,6.963 1.846,6.924 1.867 C 6.826 1.919,6.715 2.038,6.659 2.151 L 6.610 2.250 6.610 3.600 C 6.610 5.128,6.598 5.014,6.776 5.205 C 6.956 5.399,6.875 5.388,8.276 5.397 C 9.514 5.404,9.756 5.394,9.876 5.332 C 9.965 5.286,10.093 5.147,10.149 5.035 L 10.200 4.932 10.200 3.590 L 10.200 2.247 10.123 2.119 C 10.066 2.023,10.015 1.969,9.926 1.908 L 9.806 1.827 9.170 1.813 C 8.428 1.798,7.404 1.801,7.160 1.819 M4.200 3.600 L 4.200 4.200 3.600 4.200 L 3.000 4.200 3.000 3.600 L 3.000 3.000 3.600 3.000 L 4.200 3.000 4.200 3.600 M9.000 3.600 L 9.000 4.200 8.400 4.200 L 7.800 4.200 7.800 3.600 L 7.800 3.000 8.400 3.000 L 9.000 3.000 9.000 3.600 M2.350 6.618 C 2.273 6.626,2.174 6.650,2.131 6.671 C 2.024 6.722,1.905 6.844,1.853 6.957 C 1.811 7.049,1.810 7.067,1.804 8.394 L 1.798 9.738 1.841 9.824 C 1.913 9.967,2.010 10.069,2.136 10.136 L 2.256 10.200 3.601 10.200 L 4.946 10.200 5.038 10.155 C 5.158 10.096,5.280 9.973,5.341 9.849 L 5.390 9.750 5.390 8.400 L 5.390 7.050 5.342 6.953 C 5.281 6.829,5.186 6.734,5.057 6.668 L 4.955 6.617 3.723 6.610 C 3.045 6.606,2.427 6.609,2.350 6.618 M7.150 6.618 C 7.073 6.626,6.974 6.650,6.931 6.671 C 6.824 6.722,6.705 6.844,6.653 6.957 C 6.611 7.049,6.610 7.067,6.604 8.394 L 6.598 9.738 6.641 9.824 C 6.713 9.967,6.810 10.069,6.936 10.136 L 7.056 10.200 8.398 10.200 L 9.741 10.200 9.841 10.149 C 9.969 10.085,10.085 9.969,10.150 9.840 L 10.201 9.739 10.196 8.394 L 10.190 7.050 10.141 6.952 C 10.080 6.827,9.986 6.734,9.857 6.668 L 9.755 6.617 8.523 6.610 C 7.845 6.606,7.227 6.609,7.150 6.618 M4.200 8.400 L 4.200 9.000 3.600 9.000 L 3.000 9.000 3.000 8.400 L 3.000 7.800 3.600 7.800 L 4.200 7.800 4.200 8.400 M9.000 8.400 L 9.000 9.000 8.400 9.000 L 7.800 9.000 7.800 8.400 L 7.800 7.800 8.400 7.800 L 9.000 7.800 9.000 8.400 " fill="#1A1C1F" stroke="none" fill-rule="evenodd"></path></svg>