<svg width="32" height="32" viewBox="0 0 32 32" fill="none" xmlns="http://www.w3.org/2000/svg"><path d="M6.267 3.041 C 5.680 3.060,5.123 3.101,5.029 3.133 C 4.375 3.355,3.678 3.935,3.380 4.507 C 2.998 5.238,3.013 5.075,3.013 8.507 C 3.013 11.390,3.020 11.620,3.113 11.893 C 3.447 12.874,4.130 13.562,5.076 13.872 L 5.467 14.000 8.533 13.999 L 11.600 13.998 11.979 13.860 C 12.882 13.532,13.549 12.858,13.874 11.945 C 13.996 11.600,13.997 11.596,13.998 8.533 L 14.000 5.467 13.872 5.076 C 13.605 4.260,13.111 3.707,12.293 3.307 L 11.760 3.047 9.547 3.026 C 8.329 3.015,6.853 3.021,6.267 3.041 M20.133 3.113 C 19.115 3.441,18.286 4.302,18.072 5.253 C 18.017 5.502,18.001 6.249,18.002 8.587 C 18.003 11.594,18.004 11.601,18.126 11.947 C 18.453 12.869,19.131 13.547,20.053 13.873 C 20.399 13.996,20.406 13.996,23.467 13.998 L 26.533 14.000 26.931 13.870 C 27.671 13.628,28.343 13.068,28.665 12.427 C 28.997 11.765,28.987 11.886,28.987 8.533 C 28.987 5.753,28.978 5.434,28.891 5.120 C 28.687 4.378,28.075 3.668,27.311 3.289 L 26.862 3.067 23.604 3.056 C 21.068 3.047,20.299 3.060,20.133 3.113 M11.521 5.133 C 11.766 5.300,11.898 5.495,11.950 5.768 C 11.975 5.895,11.996 7.194,11.998 8.654 L 12.000 11.309 11.868 11.518 C 11.795 11.634,11.645 11.789,11.535 11.864 L 11.335 12.000 8.614 12.000 C 6.821 12.000,5.821 11.980,5.680 11.941 C 5.446 11.878,5.206 11.680,5.089 11.456 C 4.977 11.242,4.977 5.771,5.089 5.557 C 5.170 5.401,5.403 5.169,5.573 5.075 C 5.647 5.035,6.550 5.016,8.512 5.015 L 11.344 5.013 11.521 5.133 M26.610 5.171 C 26.965 5.424,26.958 5.360,26.978 8.160 C 26.988 9.553,26.980 10.870,26.960 11.085 C 26.928 11.432,26.902 11.501,26.741 11.679 C 26.618 11.816,26.482 11.900,26.322 11.940 C 26.164 11.980,25.193 12.000,23.375 12.000 L 20.665 12.000 20.465 11.864 C 20.355 11.789,20.205 11.634,20.132 11.518 L 20.000 11.309 20.003 8.681 C 20.005 7.236,20.025 5.938,20.049 5.797 C 20.097 5.503,20.224 5.308,20.485 5.127 L 20.667 5.001 23.556 5.027 C 26.427 5.054,26.447 5.055,26.610 5.171 M5.520 18.079 C 4.848 18.129,4.431 18.332,3.887 18.875 C 3.463 19.298,3.276 19.603,3.111 20.136 C 3.021 20.429,3.013 20.694,3.014 23.547 C 3.014 26.639,3.015 26.640,3.137 26.987 C 3.438 27.836,4.163 28.561,5.013 28.863 L 5.360 28.986 8.480 28.986 C 11.400 28.987,11.619 28.980,11.893 28.886 C 12.399 28.712,12.706 28.530,13.051 28.198 C 13.460 27.806,13.673 27.483,13.858 26.974 L 13.998 26.587 13.998 23.493 L 13.998 20.400 13.861 20.021 C 13.479 18.971,12.557 18.192,11.559 18.076 C 11.108 18.024,6.225 18.026,5.520 18.079 M20.507 18.077 C 19.829 18.138,19.274 18.423,18.782 18.961 C 18.463 19.310,18.287 19.603,18.126 20.055 L 18.003 20.400 18.002 23.493 L 18.001 26.587 18.142 26.974 C 18.482 27.908,19.149 28.557,20.107 28.886 C 20.381 28.980,20.600 28.987,23.493 28.987 C 26.376 28.987,26.607 28.980,26.880 28.887 C 27.880 28.546,28.546 27.880,28.887 26.880 C 28.980 26.607,28.987 26.377,28.987 23.520 C 28.987 20.695,28.979 20.428,28.889 20.133 C 28.609 19.221,27.936 18.499,27.065 18.175 C 26.752 18.059,26.698 18.057,23.840 18.048 C 22.241 18.043,20.741 18.056,20.507 18.077 M11.591 20.176 C 11.991 20.481,11.973 20.331,11.973 23.520 L 11.973 26.373 11.851 26.571 C 11.783 26.679,11.646 26.818,11.547 26.880 C 11.368 26.991,11.332 26.992,8.496 26.976 C 6.433 26.964,5.587 26.942,5.485 26.896 C 5.407 26.862,5.279 26.749,5.200 26.645 L 5.056 26.456 5.029 23.562 L 5.001 20.667 5.127 20.485 C 5.296 20.242,5.497 20.100,5.743 20.049 C 5.855 20.026,7.173 20.012,8.671 20.017 L 11.395 20.027 11.591 20.176 M26.232 20.050 C 26.505 20.102,26.698 20.233,26.873 20.485 L 26.999 20.667 26.970 23.563 L 26.941 26.460 26.799 26.646 C 26.720 26.749,26.593 26.862,26.515 26.896 C 26.413 26.942,25.567 26.964,23.504 26.976 C 20.668 26.992,20.632 26.991,20.453 26.880 C 20.354 26.818,20.217 26.679,20.149 26.571 L 20.027 26.373 20.010 23.538 L 19.993 20.703 20.130 20.485 C 20.205 20.366,20.357 20.209,20.467 20.137 L 20.667 20.006 23.333 20.005 C 24.800 20.005,26.105 20.025,26.232 20.050 " fill="#1A1C1F" stroke="none" fill-rule="evenodd"></path></svg>