<svg xmlns="http://www.w3.org/2000/svg" width="16" height="16" fill="none"><g clip-path="url(#a)"><path fill="#1A1C1F" fill-rule="evenodd" d="M12.8 8.801a.8.8 0 0 1 .8.8v3.205a.8.8 0 0 1-.8.798H9.6a.8.8 0 0 1-.8-.8V9.6a.8.8 0 0 1 .8-.8zm-6.4 0a.8.8 0 0 1 .8.8v3.205a.8.8 0 0 1-.802.798H3.2a.8.8 0 0 1-.799-.8V9.6a.8.8 0 0 1 .8-.8zm5.6 1.6h-1.6v1.603H12zm-6.4 0H4v1.603h1.6zm7.2-8.005a.8.8 0 0 1 .8.8v3.201a.8.8 0 0 1-.8.8H9.6a.8.8 0 0 1-.8-.8V3.195a.8.8 0 0 1 .8-.799zm-6.4 0a.8.8 0 0 1 .8.8v3.201a.8.8 0 0 1-.802.8H3.2a.8.8 0 0 1-.799-.8V3.195a.8.8 0 0 1 .8-.799zM12 4h-1.6v1.6H12zM5.6 4H4v1.6h1.6z" clip-rule="evenodd"/></g><defs><clipPath id="a"><path fill="#fff" d="M0 0h16v16H0z"/></clipPath></defs></svg>