<svg xmlns="http://www.w3.org/2000/svg" width="32" height="32" fill="none"><g clip-path="url(#a)"><path fill="#1A1C1F" fill-rule="evenodd" d="M26.1 18a2.9 2.9 0 0 1 2.9 2.9v5.2a2.9 2.9 0 0 1-2.9 2.9h-5.208A2.9 2.9 0 0 1 18 26.1v-5.2a2.9 2.9 0 0 1 2.9-2.9zm0 2h-5.2a.9.9 0 0 0-.9.9v5.2a.9.9 0 0 0 .9.9h5.2a.9.9 0 0 0 .9-.9v-5.2a.9.9 0 0 0-.9-.9m.002-17C27.702 3 29 4.298 29 5.899v5.197A2.9 2.9 0 0 1 26.102 14h-5.204A2.9 2.9 0 0 1 18 11.101V5.9C18 4.298 19.297 3 20.898 3zm-.001 2-5.202.005a.9.9 0 0 0-.899.9V11.1a.9.9 0 0 0 .9.899h5.2a.9.9 0 0 0 .9-.9V5.9a.9.9 0 0 0-.9-.9M11.1 18a2.9 2.9 0 0 1 2.9 2.9v5.2a2.9 2.9 0 0 1-2.9 2.9H5.9A2.9 2.9 0 0 1 3 26.1v-5.2A2.9 2.9 0 0 1 5.9 18zm0 2H5.9a.9.9 0 0 0-.9.9v5.2a.9.9 0 0 0 .9.9h5.2a.9.9 0 0 0 .9-.9v-5.2a.9.9 0 0 0-.9-.9m.001-17C12.702 3 14 4.298 14 5.899v5.197A2.9 2.9 0 0 1 11.104 14H5.9A2.9 2.9 0 0 1 3 11.101V5.9C3 4.298 4.298 3 5.899 3zm.003 2-5.202.005a.9.9 0 0 0-.899.9V11.1a.9.9 0 0 0 .9.899h5.2a.9.9 0 0 0 .9-.9V5.9a.9.9 0 0 0-.9-.9" clip-rule="evenodd"/></g><defs><clipPath id="a"><path fill="#fff" d="M0 0h32v32H0z"/></clipPath></defs></svg>