<svg xmlns="http://www.w3.org/2000/svg" width="28" height="28" fill="none"><g clip-path="url(#a)"><path fill="#1A1C1F" fill-rule="evenodd" d="M22.838 15.75a2.54 2.54 0 0 1 2.537 2.538v4.55a2.54 2.54 0 0 1-2.538 2.537h-4.556a2.54 2.54 0 0 1-2.531-2.538v-4.55a2.54 2.54 0 0 1 2.538-2.537zm0 1.75h-4.551a.787.787 0 0 0-.787.788v4.55c0 .434.352.787.787.787h4.551a.787.787 0 0 0 .787-.788v-4.55a.787.787 0 0 0-.787-.787m.001-14.875c1.4 0 2.536 1.136 2.536 2.536V9.71a2.537 2.537 0 0 1-2.536 2.541h-4.553a2.536 2.536 0 0 1-2.536-2.536V5.16c0-1.4 1.135-2.536 2.536-2.536zm0 1.75-4.552.004a.787.787 0 0 0-.787.787v4.547c0 .435.352.787.787.787h4.551a.787.787 0 0 0 .787-.787V5.162a.787.787 0 0 0-.787-.787M9.712 15.75a2.54 2.54 0 0 1 2.537 2.538v4.55a2.54 2.54 0 0 1-2.537 2.537h-4.55a2.54 2.54 0 0 1-2.538-2.538v-4.55a2.54 2.54 0 0 1 2.537-2.537zm0 1.75h-4.55a.787.787 0 0 0-.788.788v4.55c0 .434.353.787.787.787h4.55a.79.79 0 0 0 .788-.788v-4.55a.79.79 0 0 0-.787-.787m0-14.875c1.401 0 2.537 1.136 2.537 2.536V9.71a2.536 2.536 0 0 1-2.534 2.541H5.161a2.536 2.536 0 0 1-2.536-2.536V5.16c0-1.4 1.136-2.536 2.536-2.536zm.003 1.75-4.551.004a.787.787 0 0 0-.787.787v4.547a.787.787 0 0 0 .787.787h4.55a.787.787 0 0 0 .788-.787V5.162a.787.787 0 0 0-.787-.787" clip-rule="evenodd"/></g><defs><clipPath id="a"><path fill="#fff" d="M0 0h28v28H0z"/></clipPath></defs></svg>