<svg xmlns="http://www.w3.org/2000/svg" width="14" height="14" fill="none"><g clip-path="url(#a)"><path fill="#1A1C1F" fill-rule="evenodd" d="M11.2 6.297H8.4a.7.7 0 0 1-.7-.7V2.796a.7.7 0 0 1 .7-.7h2.8a.7.7 0 0 1 .7.7v2.801a.7.7 0 0 1-.7.7m0 5.606H8.4a.7.7 0 0 1-.7-.7V8.401a.7.7 0 0 1 .7-.7h2.8a.7.7 0 0 1 .7.7v2.805a.7.7 0 0 1-.7.697M5.6 6.297h-2.8a.7.7 0 0 1-.699-.7V2.796a.7.7 0 0 1 .7-.7h2.8a.7.7 0 0 1 .7.7v2.801a.7.7 0 0 1-.701.7m0 5.606h-2.8a.7.7 0 0 1-.699-.7V8.401a.7.7 0 0 1 .7-.7h2.8a.7.7 0 0 1 .7.7v2.805a.7.7 0 0 1-.701.697" clip-rule="evenodd"/></g><defs><clipPath id="a"><path fill="#fff" d="M0 0h14v14H0z"/></clipPath></defs></svg>