<svg xmlns="http://www.w3.org/2000/svg" width="12" height="12" fill="none"><g clip-path="url(#a)"><path fill="#1A1C1F" fill-rule="evenodd" d="M9.6 6.6a.6.6 0 0 1 .6.6v2.405a.6.6 0 0 1-.6.598H7.2a.6.6 0 0 1-.6-.6V7.2a.6.6 0 0 1 .6-.6zm-4.8 0a.6.6 0 0 1 .6.6v2.405a.6.6 0 0 1-.601.598h-2.4a.6.6 0 0 1-.599-.6V7.2a.6.6 0 0 1 .6-.6zM9 7.8H7.8v1.203H9zm-4.8 0H3v1.203h1.2zm5.4-6.003a.6.6 0 0 1 .6.6v2.4a.6.6 0 0 1-.6.6H7.2a.6.6 0 0 1-.6-.6v-2.4a.6.6 0 0 1 .6-.6zm-4.8 0a.6.6 0 0 1 .6.6v2.4a.6.6 0 0 1-.601.6h-2.4a.6.6 0 0 1-.599-.6v-2.4a.6.6 0 0 1 .6-.6zM9 3H7.8v1.2H9zM4.2 3H3v1.2h1.2z" clip-rule="evenodd"/></g><defs><clipPath id="a"><path fill="#fff" d="M0 0h12v12H0z"/></clipPath></defs></svg>