<svg xmlns="http://www.w3.org/2000/svg" width="12" height="12" fill="none"><g clip-path="url(#a)"><path fill="#1A1C1F" fill-rule="evenodd" d="M9.6 5.397H7.2a.6.6 0 0 1-.6-.6v-2.4a.6.6 0 0 1 .6-.6h2.4a.6.6 0 0 1 .6.6v2.4a.6.6 0 0 1-.6.6m0 4.806H7.2a.6.6 0 0 1-.6-.6V7.2a.6.6 0 0 1 .6-.6h2.4a.6.6 0 0 1 .6.6v2.404a.6.6 0 0 1-.6.598M4.8 5.397h-2.4a.6.6 0 0 1-.599-.6v-2.4a.6.6 0 0 1 .6-.6h2.4a.6.6 0 0 1 .6.6v2.4a.6.6 0 0 1-.601.6m0 4.806h-2.4a.6.6 0 0 1-.599-.6V7.2a.6.6 0 0 1 .6-.6h2.4a.6.6 0 0 1 .6.6v2.404a.6.6 0 0 1-.601.598" clip-rule="evenodd"/></g><defs><clipPath id="a"><path fill="#fff" d="M0 0h12v12H0z"/></clipPath></defs></svg>