<svg width="14" height="14" viewBox="0 0 14 14" fill="none" xmlns="http://www.w3.org/2000/svg"><path d="M2.952 2.121 C 2.502 2.137,2.471 2.147,2.288 2.347 C 2.101 2.549,2.112 2.434,2.112 4.188 C 2.112 5.436,2.118 5.770,2.143 5.840 C 2.186 5.961,2.405 6.192,2.526 6.244 C 2.617 6.283,2.740 6.287,4.055 6.295 C 5.501 6.304,5.782 6.293,5.922 6.220 C 6.026 6.167,6.175 6.004,6.240 5.874 L 6.300 5.754 6.300 4.194 C 6.300 2.649,6.300 2.634,6.250 2.537 C 6.171 2.380,6.081 2.281,5.946 2.201 L 5.822 2.127 4.585 2.117 C 3.905 2.111,3.170 2.113,2.952 2.121 M8.552 2.121 C 8.102 2.137,8.071 2.147,7.888 2.347 C 7.701 2.549,7.712 2.434,7.712 4.188 C 7.712 5.436,7.718 5.770,7.743 5.840 C 7.786 5.961,8.005 6.192,8.126 6.244 C 8.217 6.283,8.340 6.287,9.655 6.295 C 11.101 6.304,11.382 6.293,11.522 6.220 C 11.626 6.167,11.775 6.004,11.840 5.874 L 11.900 5.754 11.900 4.194 C 11.900 2.649,11.900 2.634,11.850 2.537 C 11.771 2.380,11.681 2.281,11.546 2.201 L 11.422 2.127 10.185 2.117 C 9.505 2.111,8.770 2.113,8.552 2.121 M4.900 4.200 L 4.900 4.900 4.200 4.900 L 3.500 4.900 3.500 4.200 L 3.500 3.500 4.200 3.500 L 4.900 3.500 4.900 4.200 M10.500 4.200 L 10.500 4.900 9.800 4.900 L 9.100 4.900 9.100 4.200 L 9.100 3.500 9.800 3.500 L 10.500 3.500 10.500 4.200 M2.730 7.720 C 2.647 7.729,2.537 7.756,2.486 7.781 C 2.360 7.843,2.222 7.985,2.162 8.117 C 2.112 8.224,2.112 8.245,2.105 9.793 L 2.098 11.360 2.158 11.479 C 2.234 11.630,2.369 11.765,2.518 11.841 L 2.635 11.900 4.200 11.900 L 5.765 11.900 5.882 11.841 C 6.031 11.765,6.160 11.636,6.232 11.490 L 6.288 11.375 6.288 9.800 C 6.288 8.238,6.288 8.224,6.238 8.117 C 6.174 7.977,6.037 7.841,5.894 7.773 C 5.781 7.721,5.781 7.721,4.331 7.712 C 3.534 7.707,2.813 7.711,2.730 7.720 M8.330 7.720 C 8.247 7.729,8.137 7.756,8.086 7.781 C 7.960 7.843,7.822 7.985,7.762 8.117 C 7.712 8.224,7.712 8.245,7.705 9.793 L 7.698 11.360 7.758 11.479 C 7.834 11.630,7.969 11.765,8.118 11.841 L 8.235 11.900 9.800 11.900 L 11.365 11.900 11.482 11.841 C 11.631 11.765,11.766 11.630,11.842 11.480 L 11.902 11.362 11.895 9.793 C 11.888 8.245,11.888 8.224,11.838 8.117 C 11.774 7.977,11.637 7.841,11.494 7.773 C 11.381 7.721,11.381 7.721,9.931 7.712 C 9.134 7.707,8.413 7.711,8.330 7.720 M4.900 9.800 L 4.900 10.500 4.200 10.500 L 3.500 10.500 3.500 9.800 L 3.500 9.100 4.200 9.100 L 4.900 9.100 4.900 9.800 M10.500 9.800 L 10.500 10.500 9.800 10.500 L 9.100 10.500 9.100 9.800 L 9.100 9.100 9.800 9.100 L 10.500 9.100 10.500 9.800 " fill="#1A1C1F" stroke="none" fill-rule="evenodd"></path></svg>