<svg xmlns="http://www.w3.org/2000/svg" width="14" height="14" fill="none"><g clip-path="url(#a)"><path fill="#1A1C1F" fill-rule="evenodd" d="M11.2 7.701a.7.7 0 0 1 .7.7v2.805a.7.7 0 0 1-.7.697H8.4a.7.7 0 0 1-.7-.7V8.401a.7.7 0 0 1 .7-.7zm-5.6 0a.7.7 0 0 1 .7.7v2.805a.7.7 0 0 1-.701.697h-2.8a.7.7 0 0 1-.699-.7V8.401a.7.7 0 0 1 .7-.7zm4.9 1.4H9.1v1.402h1.4zm-5.6 0H3.5v1.403h1.4zm6.3-7.004a.7.7 0 0 1 .7.699v2.801a.7.7 0 0 1-.7.7H8.4a.7.7 0 0 1-.7-.7V2.796a.7.7 0 0 1 .7-.7zm-5.6 0a.7.7 0 0 1 .7.699v2.801a.7.7 0 0 1-.701.7h-2.8a.7.7 0 0 1-.699-.7V2.796a.7.7 0 0 1 .7-.7zM10.5 3.5H9.1v1.4h1.4zm-5.6 0H3.5v1.4h1.4z" clip-rule="evenodd"/></g><defs><clipPath id="a"><path fill="#fff" d="M0 0h14v14H0z"/></clipPath></defs></svg>