<svg xmlns="http://www.w3.org/2000/svg" width="24" height="24" fill="none"><g clip-path="url(#a)"><path fill="#1A1C1F" fill-rule="evenodd" d="M19.251 12.998A1.75 1.75 0 0 1 21 14.746v4.503a1.75 1.75 0 0 1-1.749 1.749h-4.503A1.75 1.75 0 0 1 13 19.249v-4.503a1.75 1.75 0 0 1 1.748-1.748zm-10 0A1.75 1.75 0 0 1 11 14.746v4.503a1.75 1.75 0 0 1-1.748 1.749H4.748A1.75 1.75 0 0 1 3 19.249v-4.503a1.75 1.75 0 0 1 1.748-1.748zm9.749 2h-4v4h4zm-10 0H5v4h4zM19.251 3.002A1.75 1.75 0 0 1 21 4.751v4.503a1.75 1.75 0 0 1-1.749 1.748h-4.503A1.75 1.75 0 0 1 13 9.254V4.75a1.75 1.75 0 0 1 1.748-1.749zm-10 0A1.75 1.75 0 0 1 11 4.751v4.503a1.75 1.75 0 0 1-1.748 1.748H4.748A1.75 1.75 0 0 1 3 9.254V4.75a1.75 1.75 0 0 1 1.748-1.749zM19 4.998h-4v4h4zm-10 0H5v4h4z" clip-rule="evenodd"/></g><defs><clipPath id="a"><path fill="#fff" d="M0 0h24v24H0z"/></clipPath></defs></svg>