<svg xmlns="http://www.w3.org/2000/svg" width="16" height="16" fill="none"><g clip-path="url(#a)"><path fill="#1A1C1F" fill-rule="evenodd" d="M12.8 7.196H9.6a.8.8 0 0 1-.8-.799V3.195a.8.8 0 0 1 .8-.799h3.2a.8.8 0 0 1 .8.8v3.201a.8.8 0 0 1-.8.8m0 6.408H9.6a.8.8 0 0 1-.8-.8V9.6a.8.8 0 0 1 .8-.8h3.2a.8.8 0 0 1 .8.8v3.205a.8.8 0 0 1-.8.798M6.399 7.196H3.2a.8.8 0 0 1-.799-.799V3.195a.8.8 0 0 1 .8-.799h3.2a.8.8 0 0 1 .8.8v3.201a.8.8 0 0 1-.802.8m0 6.408H3.2a.8.8 0 0 1-.799-.8V9.6a.8.8 0 0 1 .8-.8h3.2a.8.8 0 0 1 .8.8v3.205a.8.8 0 0 1-.802.798" clip-rule="evenodd"/></g><defs><clipPath id="a"><path fill="#fff" d="M0 0h16v16H0z"/></clipPath></defs></svg>