<svg xmlns="http://www.w3.org/2000/svg" width="20" height="20" fill="none"><g clip-path="url(#a)"><path fill="#1A1C1F" fill-rule="evenodd" d="M16.001 8.995h-4.002A1 1 0 0 1 11 7.996V3.994a1 1 0 0 1 .999-.999h4.002c.552 0 .999.448.999 1v4.001a1 1 0 0 1-.999 1m0 8.01h-4.002a1 1 0 0 1-.999-1v-4.003a1 1 0 0 1 .999-1h4.002a1 1 0 0 1 .999 1v4.006a1 1 0 0 1-.999.997m-8.003-8.01H3.999A1 1 0 0 1 3 7.996V3.994c0-.551.447-.999.999-.999h4.002c.552 0 .999.448.999 1v4.001a1 1 0 0 1-1.002 1m0 8.01H3.999a1 1 0 0 1-.999-1v-4.003a1 1 0 0 1 .999-1h4.002a1 1 0 0 1 .999 1v4.006a1 1 0 0 1-1.002.997" clip-rule="evenodd"/></g><defs><clipPath id="a"><path fill="#fff" d="M0 0h20v20H0z"/></clipPath></defs></svg>