<svg xmlns="http://www.w3.org/2000/svg" width="32" height="32" fill="none"><path fill="#1A1C1F" fill-rule="evenodd" d="M5.459 3.041c-1.149.156-2.146 1.101-2.392 2.266-.112.532-.115 5.852-.004 6.378.224 1.055 1.005 1.886 2.084 2.217.294.09.56.098 3.36.098 2.793 0 3.066-.008 3.36-.098a3.06 3.06 0 0 0 2.035-2.035c.09-.294.098-.567.098-3.36 0-2.8-.008-3.066-.098-3.36-.297-.97-.91-1.615-1.896-1.995l-.353-.136-2.933-.01c-1.613-.005-3.081.011-3.261.035m15.128-.02c-.895.099-1.816.715-2.222 1.486-.372.705-.365.628-.365 4 0 2.799.008 3.065.098 3.36a3.02 3.02 0 0 0 2.035 2.035c.295.09.561.098 3.36.098 3 0 3.045-.002 3.414-.119 1.098-.351 1.845-1.188 2.053-2.302.031-.169.053-1.436.052-3.093-.001-3.098-.014-3.26-.327-3.898-.221-.449-.807-1.037-1.245-1.25-.681-.331-.54-.318-3.733-.328-1.614-.006-3.018-.001-3.12.011m-9.04 2.113c.14.079.254.201.333.358.12.237.12.24.12 3.018v2.78l-.123.232a.8.8 0 0 1-.355.355L11.29 12H8.51c-2.778 0-2.781 0-3.018-.12a.83.83 0 0 1-.358-.333l-.119-.214V5.68l.12-.212c.068-.119.214-.265.333-.333l.212-.12h5.653zm15.076.05c.374.285.364.193.363 3.331-.001 2.818-.001 2.818-.12 3.032a.83.83 0 0 1-.358.333c-.237.12-.24.12-3.018.12h-2.78l-.232-.123a.8.8 0 0 1-.355-.355L20 11.29V8.515c0-2.704.003-2.78.111-3.005a.87.87 0 0 1 .334-.363l.222-.134 2.884.013 2.884.014zM5.126 18.111c-1.012.272-1.841 1.158-2.063 2.204-.111.526-.108 5.846.004 6.378.121.571.362 1.007.797 1.443.436.435.872.676 1.443.797.533.112 5.852.115 6.379.004 1.05-.223 1.887-1.009 2.216-2.084.09-.294.098-.56.098-3.36 0-2.793-.008-3.066-.098-3.36-.296-.97-1.072-1.751-1.996-2.007-.329-.092-.594-.099-3.425-.096-2.503.003-3.121.018-3.355.081m14.944.018c-.905.259-1.681 1.047-1.972 2.004-.09.294-.098.567-.098 3.36 0 2.8.008 3.066.098 3.36.329 1.075 1.166 1.861 2.216 2.084.52.11 5.847.108 6.368-.002a2.96 2.96 0 0 0 2.253-2.253c.11-.521.112-5.848.002-6.367-.224-1.058-1.056-1.939-2.086-2.207-.265-.069-.79-.081-3.382-.078-2.77.004-3.101.013-3.399.099m-8.673 1.928c.204.077.441.307.53.515.059.138.073.705.072 2.933-.001 2.578-.008 2.776-.101 2.98-.054.121-.18.277-.278.347l-.18.128-2.865.015c-3.187.016-3.105.024-3.381-.338l-.154-.202-.013-2.884-.013-2.884.12-.214a.83.83 0 0 1 .358-.333c.237-.12.241-.12 2.996-.12 1.819 0 2.81.019 2.909.057m15.111.063a.83.83 0 0 1 .358.333l.12.214-.013 2.884-.013 2.884-.154.202c-.276.362-.194.354-3.381.338l-2.865-.015-.18-.128a1 1 0 0 1-.278-.347c-.093-.204-.1-.403-.101-2.997L20 20.71l.123-.232a.8.8 0 0 1 .355-.355L20.71 20h2.78c2.778 0 2.781 0 3.018.12"/></svg>