<svg xmlns="http://www.w3.org/2000/svg" width="20" height="20" fill="none"><path fill="#1A1C1F" fill-rule="evenodd" d="M3.712 3.036c-.283.083-.598.405-.678.691-.021.078-.034.915-.034 2.28 0 2.12.001 2.16.071 2.347.085.227.297.453.522.557.155.072.18.072 2.337.082 2.444.01 2.395.014 2.697-.225a.9.9 0 0 0 .261-.324l.095-.194V3.717l-.098-.178a1.07 1.07 0 0 0-.461-.447l-.141-.075-2.233-.006c-1.285-.003-2.278.007-2.338.025m7.978.012a1 1 0 0 0-.626.617c-.061.161-.064.277-.064 2.334 0 2.128.001 2.168.071 2.355.085.227.297.453.522.557.155.072.18.072 2.337.082 2.444.01 2.395.014 2.697-.225a.9.9 0 0 0 .261-.324l.095-.194V3.717l-.098-.178a1.07 1.07 0 0 0-.461-.447l-.141-.075-2.233-.008c-1.82-.006-2.257.001-2.36.039M3.683 11.06a.93.93 0 0 0-.484.347c-.205.283-.202.231-.192 2.663l.01 2.213.075.141a1.1 1.1 0 0 0 .455.47l.17.089h4.566l.172-.09a1.05 1.05 0 0 0 .478-.55C8.998 16.171 9 16.085 9 14s-.002-2.171-.067-2.343a1 1 0 0 0-.492-.547l-.191-.093-2.2-.008c-2.022-.007-2.214-.003-2.367.051m8 0a.93.93 0 0 0-.484.347c-.205.283-.202.231-.192 2.663l.01 2.213.075.141a1.1 1.1 0 0 0 .455.47l.17.089h4.566l.17-.089a1.1 1.1 0 0 0 .455-.47l.075-.141.01-2.221c.009-2.164.007-2.226-.059-2.403a.99.99 0 0 0-.493-.549l-.191-.093-2.2-.008c-2.022-.007-2.214-.003-2.367.051"/></svg>