<svg width="24" height="24" viewBox="0 0 24 24" fill="none" xmlns="http://www.w3.org/2000/svg"><path d="M4.799 3.037 C 4.293 3.059,4.241 3.068,3.996 3.189 C 3.657 3.356,3.321 3.705,3.149 4.068 L 3.020 4.340 3.020 6.980 C 3.020 9.965,3.007 9.829,3.340 10.271 C 3.553 10.553,3.835 10.771,4.155 10.901 L 4.398 11.000 7.000 11.000 L 9.602 11.000 9.846 10.901 C 10.309 10.713,10.714 10.314,10.892 9.871 C 10.974 9.666,10.977 9.595,10.992 7.178 C 11.008 4.547,11.000 4.402,10.822 4.013 C 10.683 3.709,10.324 3.346,10.008 3.191 C 9.784 3.081,9.690 3.060,9.304 3.035 C 8.796 3.001,5.610 3.003,4.799 3.037 M14.799 3.037 C 14.293 3.059,14.241 3.068,13.996 3.189 C 13.657 3.356,13.321 3.705,13.149 4.068 L 13.020 4.340 13.020 6.980 C 13.020 9.965,13.007 9.829,13.340 10.271 C 13.554 10.554,13.835 10.771,14.157 10.902 L 14.403 11.002 17.051 10.991 L 19.700 10.980 19.975 10.842 C 20.331 10.664,20.664 10.331,20.842 9.975 L 20.980 9.700 20.991 7.184 C 20.998 5.604,20.987 4.586,20.961 4.448 C 20.864 3.925,20.487 3.427,20.008 3.191 C 19.784 3.081,19.690 3.060,19.304 3.035 C 18.796 3.001,15.610 3.003,14.799 3.037 M9.000 7.000 L 9.000 9.000 7.000 9.000 L 5.000 9.000 5.000 7.000 L 5.000 5.000 7.000 5.000 L 9.000 5.000 9.000 7.000 M19.000 7.000 L 19.000 9.000 17.000 9.000 L 15.000 9.000 15.000 7.000 L 15.000 5.000 17.000 5.000 L 19.000 5.000 19.000 7.000 M4.999 13.036 C 4.268 13.060,4.254 13.062,3.998 13.188 C 3.681 13.344,3.319 13.693,3.181 13.975 C 3.125 14.089,3.063 14.313,3.041 14.480 C 2.990 14.877,2.990 19.179,3.041 19.536 C 3.094 19.897,3.267 20.218,3.563 20.500 C 3.843 20.767,4.150 20.916,4.513 20.963 C 4.873 21.009,9.194 21.008,9.517 20.961 C 10.053 20.884,10.600 20.472,10.827 19.976 C 10.989 19.621,11.008 19.257,10.992 16.720 C 10.977 14.447,10.974 14.373,10.891 14.149 C 10.773 13.830,10.567 13.564,10.283 13.365 C 9.810 13.033,9.942 13.051,7.720 13.030 C 6.631 13.020,5.406 13.023,4.999 13.036 M14.999 13.036 C 14.268 13.060,14.254 13.062,13.998 13.188 C 13.681 13.344,13.319 13.693,13.181 13.975 C 13.125 14.089,13.063 14.313,13.041 14.480 C 12.990 14.877,12.990 19.179,13.041 19.536 C 13.094 19.897,13.267 20.218,13.563 20.500 C 13.843 20.767,14.150 20.916,14.513 20.963 C 14.873 21.009,19.194 21.008,19.517 20.961 C 20.053 20.884,20.600 20.472,20.827 19.976 C 20.989 19.621,21.008 19.257,20.992 16.720 C 20.977 14.447,20.974 14.373,20.891 14.149 C 20.766 13.813,20.555 13.549,20.242 13.341 C 19.781 13.035,19.916 13.051,17.720 13.031 C 16.631 13.020,15.406 13.023,14.999 13.036 M9.000 17.000 L 9.000 19.000 7.000 19.000 L 5.000 19.000 5.000 17.000 L 5.000 15.000 7.000 15.000 L 9.000 15.000 9.000 17.000 M19.000 17.000 L 19.000 19.000 17.000 19.000 L 15.000 19.000 15.000 17.000 L 15.000 15.000 17.000 15.000 L 19.000 15.000 19.000 17.000 " fill="#1A1C1F" stroke="none" fill-rule="evenodd"></path></svg>