<svg width="28" height="28" viewBox="0 0 28 28" fill="none" xmlns="http://www.w3.org/2000/svg"><path d="M5.530 2.662 C 4.991 2.678,4.483 2.714,4.400 2.741 C 3.827 2.936,3.218 3.443,2.957 3.943 C 2.624 4.584,2.637 4.441,2.637 7.443 C 2.637 9.966,2.643 10.167,2.724 10.407 C 3.014 11.260,3.618 11.868,4.441 12.138 L 4.783 12.250 7.467 12.249 L 10.150 12.248 10.481 12.128 C 11.272 11.841,11.855 11.251,12.140 10.452 C 12.247 10.150,12.247 10.146,12.248 7.467 L 12.250 4.783 12.138 4.441 C 11.904 3.727,11.472 3.243,10.757 2.894 L 10.290 2.666 8.400 2.650 C 7.361 2.640,6.069 2.646,5.530 2.662 M17.617 2.724 C 16.909 2.952,16.318 3.442,16.008 4.057 C 15.757 4.555,15.750 4.652,15.752 7.513 C 15.753 10.144,15.753 10.151,15.860 10.453 C 16.146 11.261,16.739 11.854,17.547 12.139 C 17.849 12.246,17.855 12.246,20.533 12.248 L 23.217 12.250 23.564 12.136 C 24.212 11.924,24.800 11.435,25.082 10.873 C 25.372 10.295,25.363 10.401,25.363 7.467 C 25.363 5.034,25.356 4.755,25.280 4.480 C 25.102 3.834,24.563 3.210,23.897 2.879 L 23.504 2.683 20.654 2.674 C 18.435 2.666,17.762 2.677,17.617 2.724 M10.080 4.492 C 10.295 4.638,10.411 4.808,10.457 5.047 C 10.478 5.158,10.497 6.295,10.498 7.573 L 10.500 9.895 10.384 10.079 C 10.320 10.180,10.190 10.316,10.093 10.381 L 9.918 10.500 7.538 10.500 C 5.969 10.500,5.093 10.482,4.970 10.449 C 4.766 10.393,4.555 10.220,4.453 10.024 C 4.355 9.837,4.355 5.049,4.453 4.863 C 4.524 4.726,4.728 4.523,4.877 4.441 C 4.941 4.405,5.731 4.389,7.448 4.388 L 9.926 4.387 10.080 4.492 M23.285 4.525 C 23.595 4.746,23.588 4.691,23.606 7.140 C 23.614 8.359,23.607 9.511,23.590 9.700 C 23.562 10.003,23.539 10.064,23.398 10.219 C 23.290 10.339,23.172 10.413,23.032 10.448 C 22.893 10.483,22.044 10.500,20.454 10.500 L 18.082 10.500 17.907 10.381 C 17.810 10.316,17.680 10.180,17.616 10.079 L 17.500 9.895 17.502 7.573 C 17.503 6.295,17.522 5.158,17.543 5.047 C 17.589 4.808,17.704 4.639,17.924 4.486 L 18.083 4.376 20.612 4.400 C 23.120 4.423,23.143 4.424,23.285 4.525 M4.830 15.819 C 4.269 15.861,3.896 16.037,3.432 16.477 C 3.082 16.810,2.885 17.121,2.724 17.593 C 2.643 17.833,2.637 18.034,2.637 20.580 L 2.637 23.310 2.745 23.613 C 3.009 24.357,3.643 24.991,4.387 25.255 L 4.690 25.363 7.420 25.363 C 9.975 25.363,10.166 25.358,10.407 25.275 C 10.849 25.123,11.118 24.964,11.420 24.674 C 11.777 24.331,11.964 24.047,12.125 23.602 L 12.248 23.263 12.248 20.557 L 12.248 17.850 12.128 17.519 C 11.789 16.586,10.979 15.909,10.089 15.816 C 9.663 15.771,5.434 15.774,4.830 15.819 M17.943 15.818 C 17.350 15.871,16.865 16.120,16.434 16.591 C 16.155 16.896,16.001 17.153,15.860 17.548 L 15.752 17.850 15.752 20.557 L 15.751 23.263 15.874 23.602 C 16.172 24.419,16.756 24.988,17.593 25.275 C 17.833 25.358,18.025 25.363,20.557 25.363 C 23.079 25.363,23.281 25.357,23.520 25.276 C 24.395 24.978,24.978 24.395,25.276 23.520 C 25.357 23.281,25.363 23.079,25.363 20.557 C 25.363 18.034,25.357 17.833,25.276 17.593 C 24.999 16.780,24.437 16.184,23.682 15.903 C 23.408 15.801,23.361 15.800,20.860 15.792 C 19.461 15.788,18.149 15.799,17.943 15.818 M10.142 17.654 C 10.492 17.921,10.477 17.789,10.477 20.580 L 10.477 23.077 10.369 23.249 C 10.310 23.344,10.191 23.466,10.103 23.520 C 9.947 23.617,9.915 23.618,7.434 23.604 C 5.629 23.594,4.889 23.574,4.800 23.534 C 4.732 23.504,4.619 23.405,4.550 23.314 L 4.423 23.148 4.400 20.616 L 4.376 18.083 4.486 17.924 C 4.634 17.712,4.810 17.587,5.025 17.543 C 5.123 17.523,6.276 17.510,7.587 17.515 L 9.971 17.523 10.142 17.654 M22.953 17.543 C 23.192 17.589,23.361 17.704,23.514 17.924 L 23.624 18.083 23.600 20.616 L 23.576 23.149 23.450 23.314 C 23.381 23.405,23.268 23.504,23.200 23.534 C 23.111 23.574,22.371 23.594,20.566 23.604 C 18.085 23.618,18.053 23.617,17.897 23.520 C 17.809 23.466,17.690 23.344,17.631 23.249 L 17.523 23.077 17.508 20.596 L 17.494 18.115 17.614 17.925 C 17.680 17.820,17.812 17.683,17.909 17.620 L 18.083 17.505 20.417 17.505 C 21.700 17.504,22.842 17.522,22.953 17.543 " fill="#1A1C1F" stroke="none" fill-rule="evenodd"></path></svg>