<svg xmlns="http://www.w3.org/2000/svg" width="20" height="20" fill="none"><g clip-path="url(#a)"><path fill="#1A1C1F" fill-rule="evenodd" d="M16.001 11.002a1 1 0 0 1 .999 1v4.006a1 1 0 0 1-.999.997h-4.002a1 1 0 0 1-.999-1v-4.003a1 1 0 0 1 .999-1zm-8 0a1 1 0 0 1 .999 1v4.006a1 1 0 0 1-1.002.997H3.999a1 1 0 0 1-.999-1v-4.003a1 1 0 0 1 .999-1zm-1.001 2H5v2.003h2zm8 0h-2v2.003h2zm1.001-10.007c.552 0 .999.448.999 1v4.001a1 1 0 0 1-.999 1h-4.002a1 1 0 0 1-.999-1V3.994a1 1 0 0 1 .999-.999zm-8 0c.552 0 .999.448.999 1v4.001a1 1 0 0 1-1.002 1H3.999a1 1 0 0 1-.999-1V3.994c0-.551.447-.999.999-.999zM15 5h-2v2h2zM7 5H5v2h2z" clip-rule="evenodd"/></g><defs><clipPath id="a"><path fill="#fff" d="M0 0h20v20H0z"/></clipPath></defs></svg>