<svg xmlns="http://www.w3.org/2000/svg" width="24" height="24" fill="none"><g clip-path="url(#a)"><path fill="#1A1C1F" fill-rule="evenodd" d="M10.007 19h8.987A.996.996 0 0 0 20 17.984c0-.525-.454-.984-1.006-.984h-8.987C9.455 17 9 17.46 9 17.984A.996.996 0 0 0 10.007 19M5 19h1c.58 0 1-.426 1-1.016A.986.986 0 0 0 6 17H5c-.548 0-1 .46-1 .984A.993.993 0 0 0 5 19m5.007-5.998h8.987c.552 0 1.006-.452 1.006-1s-.454-1-1.006-1h-8.987c-.552 0-1.007.452-1.007 1s.455 1 1.007 1m-5.007 0h1c.58 0 1-.452 1-1s-.42-1-1-1H5c-.548 0-1 .452-1 1s.452 1 1 1M10.007 7h8.987A.99.99 0 0 0 20 6.016C20 5.46 19.546 5 18.994 5h-8.987C9.455 5 9 5.459 9 6.016c0 .558.455.984 1.007.984M5 7h1c.58 0 1-.426 1-.984C7 5.46 6.58 5 6 5H5c-.548 0-1 .459-1 1.016C4 6.574 4.452 7 5 7" clip-rule="evenodd"/></g><defs><clipPath id="a"><path fill="#fff" d="M0 0h24v24H0z"/></clipPath></defs></svg>