<svg xmlns="http://www.w3.org/2000/svg" width="32" height="32" fill="none"><path fill="#1A1C1F" fill-rule="evenodd" d="M5.661 8.055a1.01 1.01 0 0 0-.646.947c-.003.48.312.862.797.966.351.075 1.039.075 1.39 0 .879-.188 1.078-1.301.324-1.811-.18-.121-.245-.131-.966-.142-.425-.007-.83.011-.899.04m4.926.046a.89.89 0 0 0-.537.638c-.119.461.061.897.467 1.13l.23.131 7.573.014c5.358.01 7.656-.003 7.857-.044.324-.067.626-.299.738-.567.179-.429.018-.976-.36-1.226l-.227-.15-7.764-.013c-7.459-.012-7.772-.008-7.977.087m-4.808 6.934a.992.992 0 0 0-.642 1.449c.093.175.195.272.406.382.265.138.324.147.958.147.596 0 .704-.014.911-.12.129-.066.309-.212.398-.325.146-.183.163-.243.163-.568 0-.327-.016-.384-.165-.568-.293-.362-.437-.414-1.193-.428-.368-.007-.744.007-.836.031m4.95.014c-.499.113-.807.648-.69 1.196.064.303.37.629.664.711.139.039 2.628.057 7.838.057h7.633l.283-.147c.684-.358.717-1.319.058-1.707l-.248-.146-7.654-.008c-4.807-.005-7.739.012-7.884.044M5.573 22.1c-.492.226-.696.822-.459 1.344.211.465.505.572 1.503.547.663-.016.741-.029.912-.146.587-.403.621-1.216.068-1.637-.2-.154-.207-.155-1.033-.168-.615-.01-.872.006-.991.06m4.907.056c-.379.228-.546.657-.43 1.105.081.31.242.502.537.638.204.094.541.099 7.908.1 8.265.001 7.89.013 8.191-.254.252-.225.373-.774.244-1.115a1.08 1.08 0 0 0-.515-.53c-.143-.061-1.462-.073-7.947-.073l-7.775.001z"/></svg>