<svg xmlns="http://www.w3.org/2000/svg" width="14" height="14" fill="none"><g clip-path="url(#a)"><path fill="#1A1C1F" fill-rule="evenodd" d="M6.31 11.2h4.903c.366 0 .687-.321.687-.711a.705.705 0 0 0-.687-.689H6.31a.71.71 0 0 0-.71.688c0 .39.32.712.71.712m-3.495 0h.693c.369 0 .692-.321.692-.711a.71.71 0 0 0-.692-.689h-.693c-.392 0-.715.321-.715.688 0 .39.323.712.715.712M6.31 7.7h4.903A.704.704 0 0 0 11.9 7c0-.384-.32-.7-.687-.7H6.31c-.39 0-.71.316-.71.7s.32.7.71.7m-3.495 0h.693c.369 0 .692-.316.692-.7s-.323-.7-.692-.7h-.693A.71.71 0 0 0 2.1 7c0 .384.323.7.715.7M6.31 4.2h4.903c.366 0 .687-.321.687-.711a.705.705 0 0 0-.687-.689H6.31a.71.71 0 0 0-.71.689c0 .39.32.711.71.711m-3.495 0h.693c.369 0 .692-.321.692-.711a.71.71 0 0 0-.692-.689h-.693c-.392 0-.715.321-.715.689 0 .39.323.711.715.711" clip-rule="evenodd"/></g><defs><clipPath id="a"><path fill="#fff" d="M0 0h14v14H0z"/></clipPath></defs></svg>