<svg width="20" height="20" viewBox="0 0 20 20" fill="none" xmlns="http://www.w3.org/2000/svg"><path d="M3.900 4.030 C 3.781 4.044,3.633 4.081,3.571 4.114 C 3.372 4.218,3.180 4.425,3.084 4.639 C 2.921 5.001,3.005 5.373,3.321 5.689 C 3.594 5.963,3.677 5.983,4.500 5.983 C 5.346 5.983,5.435 5.962,5.683 5.697 C 5.900 5.465,5.981 5.272,5.982 4.983 C 5.983 4.709,5.903 4.514,5.708 4.318 C 5.464 4.074,5.352 4.041,4.698 4.022 C 4.378 4.013,4.019 4.016,3.900 4.030 M9.317 4.032 C 8.584 4.053,8.520 4.073,8.254 4.369 C 7.989 4.664,7.937 5.014,8.102 5.397 C 8.187 5.595,8.439 5.844,8.650 5.937 C 8.794 6.000,8.886 6.002,12.524 5.993 C 16.701 5.982,16.352 6.004,16.648 5.732 C 16.937 5.465,17.032 5.192,16.964 4.820 C 16.918 4.567,16.865 4.464,16.692 4.296 C 16.480 4.090,16.402 4.063,15.937 4.031 C 15.489 4.001,10.377 4.001,9.317 4.032 M3.897 9.030 C 3.632 9.060,3.429 9.169,3.241 9.382 C 2.820 9.861,2.991 10.590,3.600 10.905 C 3.744 10.980,3.780 10.983,4.483 10.983 C 5.366 10.983,5.434 10.966,5.708 10.670 C 5.983 10.373,6.057 10.072,5.947 9.702 C 5.878 9.469,5.550 9.123,5.350 9.071 C 5.176 9.027,4.179 8.998,3.897 9.030 M9.200 9.029 C 8.599 9.053,8.509 9.086,8.254 9.369 C 7.894 9.770,7.929 10.326,8.339 10.723 C 8.418 10.800,8.551 10.894,8.633 10.931 C 8.781 10.998,8.836 10.999,12.510 10.999 L 16.236 11.000 16.376 10.929 C 16.690 10.769,16.901 10.510,16.966 10.202 C 17.017 9.961,16.993 9.776,16.881 9.543 C 16.787 9.349,16.666 9.235,16.431 9.116 L 16.272 9.035 12.994 9.021 C 11.192 9.014,9.484 9.017,9.200 9.029 M3.900 14.030 C 3.781 14.044,3.633 14.081,3.571 14.114 C 3.372 14.218,3.180 14.425,3.084 14.639 C 2.921 15.001,3.005 15.373,3.321 15.689 C 3.594 15.963,3.677 15.983,4.500 15.983 C 5.346 15.983,5.435 15.962,5.683 15.697 C 5.900 15.465,5.981 15.272,5.982 14.983 C 5.983 14.709,5.903 14.514,5.708 14.318 C 5.464 14.074,5.352 14.041,4.698 14.022 C 4.378 14.013,4.019 14.016,3.900 14.030 M9.317 14.032 C 8.584 14.053,8.520 14.073,8.254 14.369 C 7.989 14.664,7.937 15.014,8.102 15.397 C 8.187 15.595,8.439 15.844,8.650 15.937 C 8.794 16.000,8.886 16.002,12.524 15.993 C 16.701 15.982,16.352 16.004,16.648 15.732 C 16.937 15.465,17.032 15.192,16.964 14.820 C 16.918 14.567,16.865 14.464,16.692 14.296 C 16.480 14.090,16.402 14.063,15.937 14.031 C 15.489 14.001,10.377 14.001,9.317 14.032 " fill="#1A1C1F" stroke="none" fill-rule="evenodd"></path></svg>