<svg width="28" height="28" viewBox="0 0 28 28" fill="none" xmlns="http://www.w3.org/2000/svg"><path d="M5.062 7.039 C 4.559 7.131,4.263 7.690,4.454 8.189 C 4.619 8.620,5.027 8.795,5.804 8.766 C 6.356 8.745,6.674 8.622,6.846 8.362 C 7.121 7.947,6.968 7.342,6.532 7.116 C 6.382 7.038,5.360 6.985,5.062 7.039 M9.730 7.043 C 9.186 7.074,9.007 7.166,8.862 7.485 C 8.647 7.959,8.823 8.441,9.299 8.686 C 9.472 8.774,9.622 8.776,16.183 8.763 L 22.890 8.750 23.105 8.651 C 23.686 8.382,23.780 7.661,23.292 7.221 L 23.117 7.062 20.553 7.031 C 17.584 6.995,10.415 7.003,9.730 7.043 M5.227 13.143 C 4.938 13.177,4.864 13.204,4.710 13.333 C 4.529 13.485,4.389 13.776,4.388 14.002 C 4.386 14.246,4.566 14.561,4.799 14.723 C 4.994 14.859,5.022 14.864,5.605 14.880 C 6.183 14.895,6.221 14.891,6.465 14.771 C 6.606 14.702,6.778 14.571,6.849 14.478 C 6.959 14.334,6.977 14.267,6.977 13.996 C 6.977 13.716,6.961 13.663,6.834 13.503 C 6.621 13.237,6.446 13.171,5.880 13.145 C 5.611 13.133,5.317 13.132,5.227 13.143 M11.037 13.157 C 9.417 13.182,9.300 13.189,9.150 13.277 C 8.935 13.404,8.773 13.718,8.773 14.010 C 8.773 14.279,8.845 14.432,9.074 14.652 C 9.227 14.799,9.276 14.817,9.603 14.847 C 9.801 14.865,12.885 14.882,16.456 14.883 L 22.949 14.887 23.176 14.735 C 23.660 14.412,23.757 13.813,23.389 13.424 C 23.138 13.159,23.429 13.174,17.897 13.151 C 15.073 13.140,11.986 13.143,11.037 13.157 M5.017 19.304 C 4.693 19.359,4.390 19.751,4.388 20.119 C 4.386 20.321,4.498 20.609,4.633 20.756 C 4.785 20.920,5.135 21.000,5.690 20.999 C 6.312 20.997,6.505 20.952,6.702 20.762 C 7.024 20.449,7.077 20.004,6.835 19.636 C 6.653 19.360,6.521 19.317,5.795 19.298 C 5.444 19.288,5.094 19.291,5.017 19.304 M9.217 19.359 C 8.797 19.625,8.660 20.070,8.862 20.515 C 8.980 20.773,9.180 20.905,9.532 20.956 C 9.891 21.008,22.223 21.009,22.765 20.957 C 23.031 20.932,23.193 20.891,23.278 20.829 C 23.475 20.685,23.590 20.412,23.590 20.086 C 23.590 19.848,23.569 19.776,23.459 19.631 C 23.181 19.267,23.843 19.298,16.193 19.284 C 9.550 19.271,9.353 19.273,9.217 19.359 " fill="#1A1C1F" stroke="none" fill-rule="evenodd"></path></svg>