<svg xmlns="http://www.w3.org/2000/svg" width="28" height="28" fill="none"><g clip-path="url(#a)"><path fill="#1A1C1F" fill-rule="evenodd" d="M9.625 21H22.75a.864.864 0 0 0 .875-.875.864.864 0 0 0-.875-.875H9.625a.864.864 0 0 0-.875.875c0 .492.383.875.875.875M5.25 21h.875A.864.864 0 0 0 7 20.125a.864.864 0 0 0-.875-.875H5.25a.864.864 0 0 0-.875.875c0 .492.383.875.875.875m17.5-6.125a.864.864 0 0 0 .875-.875.864.864 0 0 0-.875-.875H9.625A.864.864 0 0 0 8.75 14c0 .492.383.875.875.875zm-16.625 0A.864.864 0 0 0 7 14a.864.864 0 0 0-.875-.875H5.25a.864.864 0 0 0-.875.875c0 .492.383.875.875.875zM22.75 8.75a.864.864 0 0 0 .875-.875A.864.864 0 0 0 22.75 7H9.625a.864.864 0 0 0-.875.875c0 .492.383.875.875.875zm-16.625 0A.864.864 0 0 0 7 7.875.864.864 0 0 0 6.125 7H5.25a.864.864 0 0 0-.875.875c0 .492.383.875.875.875z" clip-rule="evenodd"/></g><defs><clipPath id="a"><path fill="#fff" d="M0 0h28v28H0z"/></clipPath></defs></svg>