<svg xmlns="http://www.w3.org/2000/svg" width="12" height="12" fill="none"><g clip-path="url(#a)"><path fill="#1A1C1F" fill-rule="evenodd" d="M5.408 9.6h4.203a.61.61 0 0 0 .589-.61.604.604 0 0 0-.589-.59H5.408a.61.61 0 0 0-.608.59c0 .335.275.61.608.61m-2.995 0h.594a.61.61 0 0 0 .593-.61.607.607 0 0 0-.593-.59h-.594c-.336 0-.613.275-.613.59 0 .335.277.61.613.61m2.995-3h4.203A.603.603 0 0 0 10.2 6c0-.329-.275-.6-.589-.6H5.408A.607.607 0 0 0 4.8 6c0 .329.275.6.608.6m-2.995 0h.594A.606.606 0 0 0 3.6 6c0-.329-.277-.6-.593-.6h-.594A.61.61 0 0 0 1.8 6c0 .329.277.6.613.6m2.995-3h4.203a.61.61 0 0 0 .589-.61.604.604 0 0 0-.589-.59H5.408a.61.61 0 0 0-.608.59c0 .335.275.61.608.61m-2.995 0h.594a.61.61 0 0 0 .593-.61.607.607 0 0 0-.593-.59h-.594c-.336 0-.613.275-.613.59 0 .335.277.61.613.61" clip-rule="evenodd"/></g><defs><clipPath id="a"><path fill="#fff" d="M0 0h12v12H0z"/></clipPath></defs></svg>