<svg xmlns="http://www.w3.org/2000/svg" width="32" height="32" fill="none"><g clip-path="url(#a)"><path fill="#1A1C1F" fill-rule="evenodd" d="M11 24h15c.563 0 1-.437 1-1s-.437-1-1-1H11c-.562 0-1 .438-1 1s.438 1 1 1m-5 0h1c.563 0 1-.437 1-1s-.437-1-1-1H6c-.562 0-1 .438-1 1s.438 1 1 1m20-7c.563 0 1-.437 1-1s-.437-1-1-1H11c-.562 0-1 .438-1 1s.438 1 1 1zM7 17c.563 0 1-.437 1-1s-.437-1-1-1H6c-.562 0-1 .438-1 1s.438 1 1 1zm19-7c.563 0 1-.437 1-1s-.437-1-1-1H11c-.562 0-1 .438-1 1s.438 1 1 1zM7 10c.563 0 1-.437 1-1s-.437-1-1-1H6c-.562 0-1 .438-1 1s.438 1 1 1z" clip-rule="evenodd"/></g><defs><clipPath id="a"><path fill="#fff" d="M0 0h32v32H0z"/></clipPath></defs></svg>