<svg width="24" height="24" viewBox="0 0 24 24" fill="none" xmlns="http://www.w3.org/2000/svg"><path d="M4.839 5.034 C 4.740 5.049,4.576 5.110,4.476 5.168 C 3.850 5.535,3.861 6.488,4.497 6.860 C 4.658 6.955,4.729 6.968,5.188 6.987 C 5.895 7.017,6.406 6.955,6.586 6.818 C 6.764 6.683,6.904 6.467,6.965 6.234 C 7.070 5.839,6.833 5.312,6.467 5.125 C 6.290 5.034,6.224 5.025,5.647 5.016 C 5.302 5.010,4.939 5.018,4.839 5.034 M10.198 5.034 C 9.623 5.062,9.560 5.081,9.306 5.315 C 9.059 5.543,8.949 5.935,9.041 6.263 C 9.106 6.495,9.425 6.854,9.632 6.927 C 9.850 7.005,19.150 7.005,19.368 6.927 C 19.575 6.854,19.894 6.495,19.959 6.263 C 20.056 5.919,19.937 5.528,19.662 5.287 C 19.357 5.019,19.708 5.039,15.010 5.023 C 12.661 5.015,10.496 5.020,10.198 5.034 M4.860 11.035 C 4.179 11.133,3.824 11.821,4.131 12.446 C 4.350 12.893,4.623 13.000,5.539 13.000 C 6.219 13.000,6.367 12.970,6.609 12.788 C 6.850 12.607,6.967 12.353,6.968 12.011 C 6.970 11.566,6.778 11.247,6.419 11.097 C 6.270 11.035,5.164 10.991,4.860 11.035 M10.200 11.034 C 9.622 11.062,9.516 11.095,9.305 11.306 C 9.108 11.503,9.023 11.712,9.023 12.000 C 9.023 12.420,9.290 12.820,9.641 12.926 C 9.906 13.006,19.094 13.006,19.360 12.926 C 19.475 12.891,19.593 12.814,19.687 12.712 C 19.911 12.470,19.980 12.300,19.978 12.000 C 19.976 11.694,19.880 11.479,19.662 11.287 C 19.357 11.019,19.708 11.039,15.010 11.023 C 12.661 11.015,10.497 11.020,10.200 11.034 M4.860 17.035 C 4.622 17.069,4.453 17.153,4.283 17.323 C 4.086 17.520,4.025 17.670,4.024 17.963 C 4.023 18.466,4.320 18.861,4.779 18.963 C 4.911 18.993,5.227 19.003,5.643 18.992 C 6.212 18.978,6.321 18.964,6.460 18.891 C 6.808 18.708,6.967 18.426,6.972 17.981 C 6.976 17.660,6.919 17.520,6.697 17.305 C 6.442 17.057,6.329 17.026,5.660 17.016 C 5.330 17.011,4.970 17.019,4.860 17.035 M10.397 17.036 C 9.659 17.060,9.652 17.061,9.461 17.180 C 9.179 17.356,9.020 17.654,9.021 18.000 C 9.024 18.421,9.291 18.820,9.641 18.926 C 9.906 19.006,19.094 19.006,19.359 18.926 C 19.710 18.820,19.977 18.420,19.977 18.000 C 19.977 17.702,19.889 17.497,19.674 17.294 C 19.364 17.003,19.719 17.025,15.200 17.018 C 12.967 17.015,10.805 17.023,10.397 17.036 " fill="#1A1C1F" stroke="none" fill-rule="evenodd"></path></svg>