<svg width="16" height="16" viewBox="0 0 16 16" fill="none" xmlns="http://www.w3.org/2000/svg"><path d="M3.117 3.224 C 2.840 3.255,2.612 3.417,2.476 3.680 C 2.388 3.848,2.389 4.150,2.476 4.316 C 2.559 4.473,2.750 4.659,2.901 4.729 C 3.018 4.783,3.068 4.787,3.600 4.787 C 4.277 4.787,4.348 4.769,4.546 4.558 C 4.720 4.372,4.785 4.217,4.786 3.987 C 4.787 3.688,4.627 3.436,4.344 3.292 C 4.233 3.236,4.176 3.228,3.757 3.217 C 3.502 3.210,3.214 3.213,3.117 3.224 M7.453 3.225 C 6.867 3.242,6.816 3.259,6.604 3.495 C 6.391 3.731,6.350 4.011,6.481 4.317 C 6.550 4.476,6.752 4.675,6.920 4.749 C 7.035 4.800,7.108 4.801,10.019 4.794 C 13.369 4.786,13.081 4.804,13.322 4.582 C 13.552 4.370,13.630 4.145,13.574 3.857 C 13.533 3.650,13.491 3.570,13.353 3.437 C 13.182 3.270,13.122 3.250,12.736 3.225 C 12.361 3.201,8.291 3.201,7.453 3.225 M3.117 7.224 C 2.906 7.248,2.743 7.335,2.593 7.506 C 2.256 7.889,2.393 8.472,2.880 8.724 C 2.995 8.784,3.024 8.787,3.587 8.787 C 4.292 8.787,4.348 8.773,4.567 8.536 C 4.786 8.299,4.846 8.057,4.758 7.761 C 4.703 7.575,4.440 7.299,4.280 7.257 C 4.142 7.221,3.344 7.198,3.117 7.224 M7.360 7.223 C 6.879 7.243,6.807 7.269,6.604 7.495 C 6.315 7.816,6.343 8.261,6.671 8.579 C 6.735 8.640,6.841 8.715,6.907 8.745 C 7.025 8.798,7.069 8.799,10.008 8.799 L 12.988 8.800 13.122 8.732 C 13.487 8.547,13.671 8.150,13.563 7.779 C 13.503 7.574,13.379 7.422,13.184 7.315 L 13.022 7.226 10.398 7.216 C 8.954 7.211,7.587 7.214,7.360 7.223 M3.117 11.224 C 2.840 11.255,2.612 11.417,2.476 11.680 C 2.388 11.848,2.389 12.150,2.476 12.316 C 2.559 12.473,2.750 12.659,2.901 12.729 C 3.018 12.783,3.068 12.787,3.600 12.787 C 4.277 12.787,4.348 12.769,4.546 12.558 C 4.720 12.372,4.785 12.217,4.786 11.987 C 4.787 11.688,4.627 11.436,4.344 11.292 C 4.233 11.236,4.176 11.228,3.757 11.217 C 3.502 11.210,3.214 11.213,3.117 11.224 M7.453 11.225 C 6.867 11.242,6.816 11.259,6.604 11.495 C 6.391 11.731,6.350 12.011,6.481 12.317 C 6.550 12.476,6.752 12.675,6.920 12.749 C 7.035 12.800,7.108 12.801,10.019 12.794 C 13.369 12.786,13.081 12.804,13.322 12.582 C 13.552 12.370,13.630 12.145,13.574 11.857 C 13.533 11.650,13.491 11.570,13.353 11.437 C 13.182 11.270,13.122 11.250,12.736 11.225 C 12.361 11.201,8.291 11.201,7.453 11.225 " fill="#1A1C1F" stroke="none" fill-rule="evenodd"></path></svg>