<svg width="12" height="12" viewBox="0 0 12 12" fill="none" xmlns="http://www.w3.org/2000/svg"><path d="M2.338 2.418 C 2.130 2.441,1.959 2.563,1.857 2.760 C 1.791 2.886,1.791 3.112,1.857 3.237 C 1.919 3.355,2.062 3.494,2.176 3.547 C 2.263 3.587,2.301 3.590,2.700 3.590 C 3.208 3.590,3.261 3.577,3.410 3.418 C 3.540 3.279,3.589 3.163,3.589 2.990 C 3.590 2.766,3.470 2.577,3.258 2.469 C 3.175 2.427,3.132 2.421,2.818 2.413 C 2.627 2.407,2.411 2.410,2.338 2.418 M5.600 2.419 C 5.149 2.432,5.113 2.443,4.953 2.621 C 4.793 2.798,4.762 3.008,4.861 3.238 C 4.912 3.357,5.064 3.506,5.190 3.562 C 5.276 3.600,5.331 3.601,7.514 3.596 C 10.020 3.589,9.811 3.603,9.989 3.439 C 10.164 3.278,10.220 3.119,10.180 2.898 C 10.151 2.740,10.120 2.679,10.015 2.577 C 9.888 2.454,9.841 2.438,9.562 2.419 C 9.293 2.400,6.254 2.401,5.600 2.419 M2.338 5.418 C 1.971 5.459,1.727 5.819,1.829 6.169 C 1.856 6.262,1.887 6.309,1.986 6.411 C 2.153 6.580,2.186 6.588,2.710 6.589 C 3.217 6.590,3.262 6.578,3.425 6.402 C 3.590 6.224,3.634 6.043,3.568 5.821 C 3.527 5.682,3.330 5.474,3.210 5.443 C 3.106 5.416,2.508 5.399,2.338 5.418 M5.530 5.417 C 5.158 5.432,5.106 5.450,4.953 5.621 C 4.736 5.862,4.757 6.196,5.003 6.434 C 5.051 6.480,5.130 6.536,5.180 6.558 C 5.269 6.599,5.302 6.599,7.506 6.600 L 9.742 6.600 9.826 6.557 C 10.006 6.466,10.117 6.335,10.170 6.152 C 10.250 5.877,10.127 5.605,9.860 5.470 L 9.762 5.420 7.806 5.413 C 6.730 5.408,5.706 5.410,5.530 5.417 M2.338 8.418 C 2.130 8.441,1.959 8.563,1.857 8.760 C 1.791 8.886,1.791 9.112,1.857 9.237 C 1.919 9.355,2.062 9.494,2.176 9.547 C 2.263 9.587,2.301 9.590,2.700 9.590 C 3.208 9.590,3.261 9.577,3.410 9.418 C 3.540 9.279,3.589 9.163,3.589 8.990 C 3.590 8.766,3.470 8.577,3.258 8.469 C 3.175 8.427,3.132 8.421,2.818 8.413 C 2.627 8.407,2.411 8.410,2.338 8.418 M5.600 8.419 C 5.149 8.432,5.113 8.443,4.953 8.621 C 4.793 8.798,4.762 9.008,4.861 9.238 C 4.912 9.357,5.064 9.506,5.190 9.562 C 5.276 9.600,5.331 9.601,7.514 9.596 C 10.020 9.589,9.811 9.603,9.989 9.439 C 10.164 9.278,10.220 9.119,10.180 8.898 C 10.151 8.740,10.120 8.679,10.015 8.577 C 9.888 8.454,9.841 8.438,9.562 8.419 C 9.293 8.400,6.254 8.401,5.600 8.419 " fill="#1A1C1F" stroke="none" fill-rule="evenodd"></path></svg>