<svg width="14" height="14" viewBox="0 0 14 14" fill="none" xmlns="http://www.w3.org/2000/svg"><path d="M2.715 2.821 C 2.483 2.850,2.283 2.996,2.166 3.220 C 2.090 3.367,2.090 3.631,2.167 3.776 C 2.234 3.906,2.393 4.065,2.524 4.134 C 2.621 4.186,2.646 4.188,3.138 4.188 C 3.744 4.188,3.804 4.174,3.978 3.988 C 4.130 3.825,4.187 3.690,4.188 3.488 C 4.189 3.226,4.049 3.007,3.799 2.880 C 3.700 2.829,3.654 2.823,3.274 2.814 C 3.046 2.808,2.794 2.811,2.715 2.821 M6.522 2.822 C 6.011 2.837,5.964 2.852,5.782 3.054 C 5.594 3.263,5.556 3.511,5.671 3.778 C 5.731 3.916,5.908 4.091,6.055 4.156 C 6.156 4.200,6.220 4.201,8.767 4.195 C 11.698 4.188,11.446 4.204,11.656 4.010 C 11.856 3.826,11.922 3.633,11.875 3.374 C 11.843 3.197,11.805 3.125,11.684 3.007 C 11.536 2.863,11.481 2.844,11.156 2.822 C 10.842 2.800,7.264 2.801,6.522 2.822 M2.715 6.321 C 2.354 6.367,2.071 6.709,2.107 7.058 C 2.131 7.290,2.293 7.516,2.520 7.634 C 2.621 7.686,2.646 7.688,3.138 7.688 C 3.756 7.688,3.804 7.676,3.996 7.469 C 4.188 7.261,4.240 7.050,4.163 6.791 C 4.115 6.629,3.885 6.386,3.745 6.350 C 3.624 6.318,2.900 6.298,2.715 6.321 M6.393 6.322 C 6.024 6.337,5.952 6.365,5.778 6.558 C 5.526 6.839,5.550 7.228,5.837 7.506 C 5.893 7.560,5.986 7.626,6.043 7.652 C 6.147 7.698,6.186 7.699,8.757 7.699 L 11.365 7.700 11.463 7.650 C 11.683 7.538,11.801 7.399,11.866 7.176 C 11.937 6.932,11.871 6.689,11.688 6.510 C 11.536 6.363,11.483 6.344,11.156 6.322 C 10.841 6.300,6.918 6.300,6.393 6.322 M2.715 9.821 C 2.483 9.850,2.283 9.996,2.166 10.220 C 2.090 10.367,2.090 10.631,2.167 10.776 C 2.234 10.906,2.393 11.065,2.524 11.134 C 2.621 11.186,2.646 11.188,3.138 11.188 C 3.744 11.188,3.804 11.174,3.978 10.988 C 4.130 10.825,4.187 10.690,4.188 10.488 C 4.189 10.226,4.049 10.007,3.799 9.880 C 3.700 9.829,3.654 9.823,3.274 9.814 C 3.046 9.808,2.794 9.811,2.715 9.821 M6.522 9.822 C 6.011 9.837,5.964 9.852,5.782 10.054 C 5.594 10.263,5.556 10.511,5.671 10.778 C 5.731 10.916,5.908 11.091,6.055 11.156 C 6.156 11.200,6.220 11.201,8.767 11.195 C 11.698 11.188,11.446 11.204,11.656 11.010 C 11.856 10.826,11.922 10.633,11.875 10.374 C 11.843 10.197,11.805 10.125,11.684 10.007 C 11.536 9.863,11.481 9.844,11.156 9.822 C 10.842 9.800,7.264 9.801,6.522 9.822 " fill="#1A1C1F" stroke="none" fill-rule="evenodd"></path></svg>