<svg width="32" height="32" viewBox="0 0 32 32" fill="none" xmlns="http://www.w3.org/2000/svg"><path d="M5.785 8.045 C 5.032 8.182,4.753 9.237,5.340 9.731 C 5.803 10.120,7.168 10.132,7.653 9.751 C 7.832 9.610,7.997 9.263,7.999 9.025 C 8.001 8.682,7.763 8.288,7.458 8.129 C 7.294 8.044,6.118 7.984,5.785 8.045 M11.120 8.045 C 10.499 8.086,10.293 8.192,10.128 8.555 C 9.882 9.096,10.083 9.646,10.628 9.927 C 10.825 10.028,10.993 10.030,18.522 10.015 L 26.213 10.000 26.437 9.880 C 26.949 9.607,27.117 9.092,26.861 8.574 C 26.781 8.411,26.646 8.242,26.540 8.170 L 26.358 8.047 19.005 8.028 C 14.962 8.018,11.413 8.025,11.120 8.045 M5.947 15.019 C 5.630 15.065,5.552 15.096,5.383 15.238 C 5.177 15.412,5.016 15.744,5.015 16.002 C 5.013 16.281,5.218 16.641,5.485 16.826 C 5.708 16.981,5.739 16.987,6.406 17.005 C 7.066 17.023,7.110 17.018,7.389 16.881 C 7.550 16.803,7.747 16.652,7.827 16.547 C 7.953 16.382,7.973 16.305,7.973 15.996 C 7.973 15.675,7.956 15.615,7.810 15.432 C 7.562 15.121,7.368 15.050,6.693 15.021 C 6.371 15.007,6.035 15.006,5.947 15.019 M12.587 15.036 C 10.763 15.065,10.628 15.073,10.457 15.174 C 10.212 15.318,10.027 15.678,10.027 16.011 C 10.027 16.317,10.108 16.493,10.364 16.739 C 10.526 16.895,10.601 16.924,10.942 16.963 C 11.157 16.988,14.685 17.010,18.781 17.011 L 26.228 17.013 26.487 16.840 C 26.837 16.606,27.001 16.289,26.972 15.904 C 26.948 15.582,26.836 15.401,26.528 15.191 L 26.320 15.048 20.427 15.026 C 17.185 15.014,13.657 15.019,12.587 15.036 M5.733 22.062 C 5.363 22.124,5.017 22.573,5.015 22.993 C 5.013 23.224,5.140 23.553,5.295 23.721 C 5.468 23.908,5.868 24.000,6.503 23.999 C 7.214 23.997,7.435 23.945,7.659 23.728 C 8.028 23.371,8.088 22.861,7.811 22.441 C 7.603 22.126,7.452 22.076,6.623 22.054 C 6.222 22.044,5.821 22.047,5.733 22.062 M10.533 22.125 C 10.053 22.428,9.897 22.937,10.128 23.445 C 10.267 23.751,10.493 23.895,10.923 23.950 C 11.371 24.008,25.413 24.009,26.017 23.951 C 26.321 23.922,26.506 23.876,26.604 23.804 C 26.829 23.640,26.960 23.327,26.960 22.956 C 26.960 22.683,26.936 22.601,26.811 22.436 C 26.493 22.019,27.249 22.055,18.507 22.038 C 10.914 22.024,10.689 22.026,10.533 22.125 " fill="#1A1C1F" stroke="none" fill-rule="evenodd"></path></svg>