<svg xmlns="http://www.w3.org/2000/svg" width="16" height="16" fill="none"><g clip-path="url(#a)"><path fill="#1A1C1F" fill-rule="evenodd" d="M7.211 12.8h5.604c.419 0 .785-.367.785-.813a.806.806 0 0 0-.785-.787H7.211c-.445 0-.811.367-.811.787 0 .446.366.813.811.813m-3.993 0h.79c.423 0 .792-.367.792-.813 0-.42-.37-.787-.791-.787h-.791c-.449 0-.818.367-.818.787 0 .446.37.813.818.813m3.993-4h5.604A.804.804 0 0 0 13.6 8c0-.439-.366-.8-.785-.8H7.211A.81.81 0 0 0 6.4 8c0 .439.366.8.811.8m-3.993 0h.79A.81.81 0 0 0 4.8 8c0-.439-.37-.8-.791-.8h-.791A.813.813 0 0 0 2.4 8c0 .439.37.8.818.8m3.993-4h5.604c.419 0 .785-.367.785-.813a.806.806 0 0 0-.785-.787H7.211c-.445 0-.811.367-.811.787 0 .446.366.813.811.813m-3.993 0h.79c.423 0 .792-.367.792-.813 0-.42-.37-.787-.791-.787h-.791c-.449 0-.818.367-.818.787 0 .446.37.813.818.813" clip-rule="evenodd"/></g><defs><clipPath id="a"><path fill="#fff" d="M0 0h16v16H0z"/></clipPath></defs></svg>