<svg xmlns="http://www.w3.org/2000/svg" width="20" height="20" fill="none"><g clip-path="url(#a)"><path fill="#1A1C1F" fill-rule="evenodd" d="M9.014 16h7.005c.523 0 .981-.459.981-1.016 0-.525-.458-.984-.981-.984H9.014C8.458 14 8 14.459 8 14.984A1.02 1.02 0 0 0 9.014 16m-4.992 0h.989c.527 0 .989-.459.989-1.016 0-.525-.462-.984-.989-.984h-.989c-.56 0-1.022.459-1.022.984C3 15.54 3.462 16 4.022 16m4.992-5h7.005c.523 0 .981-.452.981-1s-.458-1-.981-1H9.014C8.458 9 8 9.452 8 10s.458 1 1.014 1m-4.992 0h.989c.527 0 .989-.452.989-1s-.462-1-.989-1h-.989C3.462 9 3 9.452 3 10s.462 1 1.022 1m4.992-5h7.005c.523 0 .981-.459.981-1.016 0-.525-.458-.984-.981-.984H9.014C8.458 4 8 4.459 8 4.984A1.02 1.02 0 0 0 9.014 6M4.022 6h.989C5.538 6 6 5.541 6 4.984 6 4.459 5.538 4 5.011 4h-.989C3.462 4 3 4.459 3 4.984 3 5.54 3.462 6 4.022 6" clip-rule="evenodd"/></g><defs><clipPath id="a"><path fill="#fff" d="M0 0h20v20H0z"/></clipPath></defs></svg>