<svg width="28" height="28" viewBox="0 0 28 28" fill="none" xmlns="http://www.w3.org/2000/svg"><path d="M22.502 4.418 C 22.355 4.449,17.729 9.017,10.444 16.324 C 3.980 22.809,4.337 22.420,4.406 22.882 C 4.474 23.331,4.784 23.589,5.255 23.590 L 5.541 23.590 6.095 23.078 C 6.995 22.247,23.301 5.922,23.444 5.708 C 23.810 5.163,23.486 4.464,22.843 4.413 C 22.715 4.403,22.561 4.405,22.502 4.418 M22.330 13.261 C 22.109 13.376,13.828 21.641,13.418 22.156 C 13.209 22.419,13.144 22.539,13.127 22.692 C 13.101 22.941,13.251 23.241,13.505 23.446 C 13.664 23.575,13.715 23.590,13.998 23.590 C 14.307 23.590,14.318 23.586,14.588 23.358 C 14.739 23.231,16.789 21.205,19.142 18.855 C 23.597 14.407,23.610 14.393,23.612 14.010 C 23.613 13.835,23.507 13.555,23.390 13.425 C 23.150 13.160,22.667 13.086,22.330 13.261 " fill="#1A1C1F" stroke="none" fill-rule="evenodd"></path></svg>