<svg xmlns="http://www.w3.org/2000/svg" width="32" height="32" fill="none"><g clip-path="url(#a)"><path fill="#1A1C1F" fill-rule="evenodd" d="M9.5 20c1.326 0 2.5 1.056 2.5 2.5v5A2.49 2.49 0 0 1 9.5 30h-5c-1.325 0-2.528-1.092-2.5-2.5v-5A2.49 2.49 0 0 1 4.5 20zm-5 2c-.245 0-.5.204-.5.5v5c0 .245.197.5.5.5h5c.246 0 .5-.19.5-.5v-5c0-.237-.188-.5-.5-.5zM27 2c1.598 0 3 1.281 3 3v18c0 1.598-1.278 3-3 3H16a1 1 0 0 1 0-2h11c.513 0 1-.435 1-1V5c0-.513-.398-1-1-1H9c-.513 0-1 .424-1 1v11a1 1 0 0 1-1 1c-.513 0-1-.425-1-1V5c0-1.598 1.293-3 3-3zm-4 6c.513 0 1 .419 1 1v6a1 1 0 1 1-2 0v-3.586l-6.293 6.293a1 1 0 0 1-1.414 0c-.36-.36-.423-1.009 0-1.414L20.584 10H17a1 1 0 0 1 0-2z" clip-rule="evenodd"/></g><defs><clipPath id="a"><path fill="#fff" d="M0 0h32v32H0z"/></clipPath></defs></svg>