<svg width="16" height="16" viewBox="0 0 16 16" fill="none" xmlns="http://www.w3.org/2000/svg"><path d="M12.253 2.825 C 12.195 2.835,12.099 2.866,12.040 2.894 C 11.968 2.929,10.760 4.115,8.270 6.599 C 4.232 10.627,2.943 11.937,2.866 12.096 C 2.789 12.251,2.794 12.560,2.875 12.725 C 3.046 13.073,3.425 13.260,3.783 13.174 C 3.892 13.148,3.967 13.100,4.153 12.938 C 4.446 12.684,11.216 5.933,12.306 4.809 C 13.062 4.029,13.114 3.970,13.159 3.826 C 13.333 3.272,12.838 2.723,12.253 2.825 M12.253 8.425 C 12.195 8.435,12.099 8.466,12.040 8.494 C 11.926 8.549,9.526 10.912,8.850 11.635 C 8.523 11.985,8.475 12.048,8.437 12.180 C 8.300 12.653,8.634 13.141,9.131 13.192 C 9.319 13.211,9.519 13.148,9.680 13.018 C 9.851 12.881,12.249 10.495,12.723 9.992 C 13.062 9.631,13.124 9.551,13.159 9.434 C 13.236 9.176,13.190 8.926,13.027 8.712 C 12.868 8.504,12.527 8.377,12.253 8.425 " fill="#1A1C1F" stroke="none" fill-rule="evenodd"></path></svg>