<svg xmlns="http://www.w3.org/2000/svg" width="24" height="24" fill="none"><g clip-path="url(#a)"><path fill="#1A1C1F" fill-rule="evenodd" d="M8 14c1.054 0 2 .844 2 2v4c0 1.054-.818 2-2 2H4c-1.054 0-2-.827-2-2v-4c0-1.054.853-2 2-2zm0 2H4v4h4zM19.5 2C20.826 2 22 3.076 22 4.5v12c0 1.326-1.063 2.5-2.5 2.5H13a1 1 0 1 1 0-2h6.5c.227 0 .5-.187.5-.5v-12a.5.5 0 0 0-.5-.5h-12c-.245 0-.5.2-.5.5V11a1 1 0 1 1-2 0V4.5C5 3.175 6.075 2 7.5 2zM13 6h4a.994.994 0 0 1 1 1v4a1 1 0 0 1-1 1c-.513 0-1-.383-1-1V9.414l-3.293 3.293a1 1 0 0 1-1.414 0c-.36-.36-.426-1 0-1.414L14.584 8H13c-.513 0-1-.416-1-1s.484-1 1-1" clip-rule="evenodd"/></g><defs><clipPath id="a"><path fill="#fff" d="M0 0h24v24H0z"/></clipPath></defs></svg>