<svg width="20" height="20" viewBox="0 0 20 20" fill="none" xmlns="http://www.w3.org/2000/svg"><path d="M6.367 2.031 C 5.557 2.051,5.469 2.058,5.306 2.127 C 4.751 2.359,4.308 2.819,4.107 3.371 L 4.017 3.617 4.007 6.803 L 3.997 9.990 6.627 10.008 C 9.253 10.027,9.257 10.027,9.403 10.100 C 9.603 10.200,9.789 10.384,9.889 10.580 L 9.973 10.743 9.992 13.373 L 10.010 16.003 13.197 15.993 L 16.383 15.983 16.624 15.895 C 16.952 15.776,17.119 15.673,17.355 15.444 C 17.621 15.186,17.780 14.941,17.891 14.617 L 17.983 14.350 17.983 9.000 L 17.983 3.650 17.902 3.404 C 17.741 2.914,17.343 2.457,16.867 2.216 C 16.473 2.017,16.752 2.028,11.800 2.018 C 9.297 2.013,6.852 2.019,6.367 2.031 M3.033 12.028 C 2.767 12.045,2.651 12.067,2.550 12.122 C 2.380 12.214,2.196 12.408,2.095 12.600 L 2.017 12.750 2.017 15.000 L 2.017 17.250 2.094 17.406 C 2.192 17.606,2.394 17.808,2.594 17.906 L 2.750 17.983 5.000 17.983 L 7.250 17.983 7.406 17.906 C 7.606 17.808,7.808 17.606,7.906 17.406 L 7.983 17.250 7.983 15.000 C 7.983 12.473,8.000 12.643,7.729 12.349 C 7.650 12.264,7.515 12.158,7.429 12.114 L 7.272 12.035 5.328 12.021 C 4.258 12.013,3.226 12.017,3.033 12.028 " fill="#1A1C1F" stroke="none" fill-rule="evenodd"></path></svg>