<svg xmlns="http://www.w3.org/2000/svg" width="16" height="16" fill="none"><g clip-path="url(#a)"><path fill="#1A1C1F" fill-rule="evenodd" d="M5.6 9.6c.41 0 .8.337.8.8v3.2a.8.8 0 0 1-.8.8H2.4a.8.8 0 0 1-.8-.8v-3.2c0-.41.336-.8.8-.8zm7.2-8c.843 0 1.6.691 1.6 1.6v8c0 .844-.696 1.6-1.6 1.6H8.4a.8.8 0 0 1 0-1.6h4.4v-8h-8v4.4a.8.8 0 0 1-.8.8.81.81 0 0 1-.8-.8V3.2c0-.843.668-1.6 1.6-1.6zm-8 9.6H3.2v1.6h1.6z" clip-rule="evenodd"/></g><defs><clipPath id="a"><path fill="#fff" d="M0 0h16v16H0z"/></clipPath></defs></svg>