<svg width="16" height="16" viewBox="0 0 16 16" fill="none" xmlns="http://www.w3.org/2000/svg"><path d="M5.093 1.625 C 4.445 1.640,4.375 1.647,4.245 1.701 C 3.803 1.886,3.445 2.257,3.285 2.697 L 3.213 2.893 3.206 5.443 L 3.198 7.992 5.299 8.006 L 7.400 8.019 7.520 8.079 C 7.683 8.161,7.831 8.306,7.913 8.466 L 7.981 8.600 7.994 10.701 L 8.008 12.802 10.557 12.794 L 13.107 12.786 13.307 12.712 C 13.796 12.532,14.174 12.142,14.322 11.663 L 14.387 11.453 14.387 7.187 L 14.387 2.920 14.322 2.724 C 14.193 2.331,13.874 1.966,13.493 1.773 C 13.178 1.613,13.402 1.622,9.440 1.614 C 7.438 1.610,5.482 1.615,5.093 1.625 M2.427 9.623 C 2.214 9.636,2.121 9.654,2.040 9.698 C 1.904 9.771,1.757 9.926,1.676 10.080 L 1.613 10.200 1.613 12.000 L 1.613 13.800 1.675 13.925 C 1.754 14.085,1.915 14.246,2.075 14.325 L 2.200 14.387 4.000 14.387 L 5.800 14.387 5.925 14.325 C 6.085 14.246,6.246 14.085,6.325 13.925 L 6.387 13.800 6.387 12.000 C 6.387 9.978,6.400 10.114,6.183 9.879 C 6.120 9.811,6.012 9.726,5.942 9.691 L 5.815 9.627 4.261 9.616 C 3.406 9.610,2.581 9.613,2.427 9.623 " fill="#1A1C1F" stroke="none" fill-rule="evenodd"></path></svg>