<svg xmlns="http://www.w3.org/2000/svg" width="32" height="32" fill="none"><path fill="#1A1C1F" fill-rule="evenodd" d="M8.22 2.111c-.993.267-1.795 1.073-2.122 2.132C6.005 4.542 6 4.885 6 10.4v5.84l.144.246c.167.284.316.394.649.483.433.116.907-.126 1.107-.567.093-.204.098-.501.1-5.895s.007-5.691.1-5.896a1.06 1.06 0 0 1 .636-.559c.138-.04 2.964-.052 9.397-.041l9.2.016.201.133c.119.079.254.24.333.397l.133.264v9.165c0 8.151-.009 9.186-.083 9.362a.98.98 0 0 1-.53.551c-.203.094-.487.099-5.894.101-5.394.002-5.691.007-5.895.1-.441.2-.683.674-.567 1.107.089.333.199.482.483.649l.246.144h11.68l.42-.13c.949-.293 1.645-.978 1.992-1.959l.148-.418V4.56l-.13-.42a3.04 3.04 0 0 0-2.113-2.032c-.459-.119-19.092-.117-19.537.003m8.482 5.927c-.069.013-.24.136-.382.273-.214.207-.264.292-.295.508-.082.55.246 1.036.775 1.149.165.036.953.059 2.016.059h1.744l-3.215 3.215c-2.973 2.973-3.221 3.235-3.294 3.477-.07.232-.07.294.001.538.09.309.399.637.653.693.082.018.175.04.207.05.032.009.176-.007.32-.037.254-.052.348-.14 3.501-3.287l3.24-3.234v1.775c0 1.159.022 1.86.062 2.019a1.01 1.01 0 0 0 1.139.74c.313-.047.691-.371.772-.662.075-.272.073-6.456-.003-6.657-.08-.214-.308-.441-.556-.556-.201-.093-.403-.098-3.387-.093-1.745.004-3.229.017-3.298.03M3.84 20.097c-.942.246-1.674 1.079-1.812 2.063-.071.508-.07 5.29.002 5.732.148.912.785 1.652 1.706 1.983.339.122.379.124 2.984.141 1.678.011 2.795-.003 3.067-.04 1.057-.142 1.862-.849 2.136-1.876.114-.431.112-5.755-.003-6.196-.243-.936-1.023-1.679-1.941-1.85-.17-.032-1.407-.053-3.04-.051-2.412.003-2.795.014-3.099.094m6.002 2.061.131.13v5.436l-.164.138-.164.138H4.326l-.15-.129-.149-.128-.015-2.693-.015-2.692.14-.166.139-.165h5.436z"/></svg>