<svg width="12" height="12" viewBox="0 0 12 12" fill="none" xmlns="http://www.w3.org/2000/svg"><path d="M3.800 1.218 C 3.335 1.230,3.281 1.235,3.184 1.276 C 2.845 1.418,2.578 1.698,2.465 2.030 L 2.410 2.190 2.404 4.092 L 2.398 5.994 3.976 6.005 C 5.552 6.016,5.554 6.016,5.642 6.060 C 5.762 6.120,5.873 6.230,5.934 6.348 L 5.984 6.446 5.995 8.024 L 6.006 9.602 7.918 9.595 L 9.830 9.589 9.978 9.535 C 10.180 9.460,10.275 9.402,10.419 9.260 C 10.581 9.099,10.682 8.940,10.741 8.748 L 10.790 8.590 10.790 5.400 L 10.790 2.210 10.743 2.060 C 10.689 1.885,10.630 1.777,10.518 1.647 C 10.403 1.514,10.269 1.407,10.130 1.336 C 9.883 1.209,10.069 1.216,7.060 1.211 C 5.548 1.208,4.080 1.211,3.800 1.218 M1.820 7.217 C 1.660 7.227,1.591 7.240,1.530 7.273 C 1.428 7.328,1.317 7.445,1.257 7.560 L 1.210 7.650 1.210 9.000 L 1.210 10.350 1.256 10.444 C 1.315 10.564,1.436 10.685,1.556 10.744 L 1.650 10.790 3.000 10.790 L 4.350 10.790 4.444 10.744 C 4.564 10.685,4.685 10.564,4.744 10.444 L 4.790 10.350 4.790 9.000 C 4.790 7.744,4.788 7.645,4.754 7.574 C 4.703 7.464,4.567 7.324,4.457 7.269 L 4.363 7.221 3.196 7.212 C 2.555 7.208,1.936 7.210,1.820 7.217 " fill="#1A1C1F" stroke="none" fill-rule="evenodd"></path></svg>