<svg width="14" height="14" viewBox="0 0 14 14" fill="none" xmlns="http://www.w3.org/2000/svg"><path d="M4.433 1.422 C 3.891 1.435,3.827 1.441,3.714 1.489 C 3.328 1.650,3.015 1.975,2.875 2.359 L 2.812 2.532 2.805 4.762 L 2.798 6.993 4.638 7.005 L 6.477 7.018 6.581 7.070 C 6.722 7.140,6.852 7.268,6.923 7.407 L 6.982 7.522 6.995 9.362 L 7.007 11.202 9.238 11.195 L 11.468 11.188 11.637 11.126 C 11.866 11.043,11.983 10.971,12.149 10.810 C 12.330 10.636,12.460 10.434,12.532 10.217 L 12.588 10.045 12.588 6.300 L 12.588 2.555 12.532 2.383 C 12.419 2.040,12.140 1.720,11.807 1.551 C 11.530 1.411,11.729 1.419,8.237 1.412 C 6.472 1.409,4.761 1.413,4.433 1.422 M2.123 8.420 C 1.937 8.431,1.856 8.447,1.785 8.486 C 1.666 8.550,1.537 8.686,1.467 8.820 L 1.412 8.925 1.412 10.500 L 1.412 12.075 1.466 12.185 C 1.534 12.324,1.676 12.466,1.815 12.534 L 1.925 12.588 3.500 12.588 L 5.075 12.588 5.185 12.534 C 5.324 12.466,5.466 12.324,5.534 12.185 L 5.588 12.075 5.588 10.500 C 5.588 8.731,5.600 8.850,5.410 8.644 C 5.355 8.585,5.261 8.511,5.200 8.480 L 5.090 8.424 3.729 8.415 C 2.981 8.409,2.258 8.412,2.123 8.420 " fill="#1A1C1F" stroke="none" fill-rule="evenodd"></path></svg>