<svg width="16" height="16" viewBox="0 0 16 16" fill="none" xmlns="http://www.w3.org/2000/svg"><path d="M5.107 1.624 C 4.401 1.641,4.383 1.643,4.213 1.714 C 3.893 1.849,3.529 2.175,3.387 2.453 C 3.359 2.507,3.309 2.634,3.275 2.735 L 3.213 2.920 3.213 5.360 C 3.213 8.115,3.195 7.883,3.429 8.133 C 3.591 8.306,3.772 8.384,4.013 8.386 C 4.156 8.386,4.230 8.372,4.325 8.325 C 4.485 8.246,4.646 8.085,4.725 7.925 L 4.787 7.800 4.794 5.500 L 4.802 3.200 8.801 3.200 L 12.800 3.200 12.800 7.196 L 12.800 11.192 10.500 11.206 L 8.200 11.219 8.068 11.282 C 7.901 11.361,7.744 11.516,7.671 11.676 C 7.590 11.854,7.593 12.154,7.677 12.326 C 7.756 12.487,7.914 12.646,8.075 12.725 L 8.200 12.787 10.640 12.787 L 13.080 12.787 13.294 12.713 C 13.412 12.673,13.568 12.599,13.641 12.550 C 13.926 12.357,14.209 12.010,14.308 11.730 C 14.392 11.494,14.403 10.876,14.394 6.867 L 14.386 2.893 14.314 2.698 C 14.230 2.472,14.166 2.361,14.020 2.193 C 13.799 1.937,13.539 1.765,13.227 1.666 C 13.091 1.624,12.808 1.620,9.453 1.614 C 7.459 1.610,5.503 1.615,5.107 1.624 M2.320 9.623 C 2.026 9.654,1.801 9.816,1.666 10.093 L 1.598 10.231 1.606 12.015 C 1.613 13.777,1.614 13.802,1.671 13.924 C 1.747 14.089,1.919 14.257,2.094 14.337 L 2.235 14.402 4.018 14.394 L 5.800 14.387 5.925 14.325 C 6.085 14.246,6.246 14.085,6.325 13.925 L 6.387 13.800 6.387 12.000 C 6.387 9.978,6.400 10.114,6.183 9.879 C 6.120 9.811,6.010 9.725,5.938 9.689 L 5.807 9.623 4.150 9.613 C 3.239 9.608,2.415 9.613,2.320 9.623 M4.800 12.000 L 4.800 12.800 4.000 12.800 L 3.200 12.800 3.200 12.000 L 3.200 11.200 4.000 11.200 L 4.800 11.200 4.800 12.000 " fill="#1A1C1F" stroke="none" fill-rule="evenodd"></path></svg>