<svg width="32" height="32" viewBox="0 0 32 32" fill="none" xmlns="http://www.w3.org/2000/svg"><path d="M25.716 5.049 C 25.549 5.084,20.262 10.305,11.936 18.656 C 4.548 26.067,4.957 25.623,5.036 26.151 C 5.113 26.664,5.467 26.959,6.006 26.960 L 6.332 26.960 6.966 26.375 C 7.994 25.425,26.629 6.767,26.793 6.524 C 27.211 5.901,26.841 5.102,26.106 5.043 C 25.960 5.032,25.784 5.034,25.716 5.049 M25.520 15.156 C 25.267 15.288,15.802 24.734,15.335 25.321 C 15.096 25.621,15.021 25.759,15.003 25.934 C 14.972 26.218,15.144 26.561,15.434 26.796 C 15.616 26.943,15.674 26.960,15.997 26.960 C 16.351 26.960,16.363 26.955,16.672 26.695 C 16.845 26.549,19.187 24.234,21.877 21.549 C 26.969 16.465,26.983 16.450,26.985 16.012 C 26.987 15.811,26.865 15.491,26.731 15.343 C 26.458 15.040,25.905 14.955,25.520 15.156 " fill="#1A1C1F" stroke="none" fill-rule="evenodd"></path></svg>