<svg xmlns="http://www.w3.org/2000/svg" width="14" height="14" fill="none"><g clip-path="url(#a)"><path fill="#1A1C1F" fill-rule="evenodd" d="M4.9 8.4c.359 0 .7.295.7.7v2.8a.7.7 0 0 1-.7.7H2.1a.7.7 0 0 1-.7-.7V9.1c0-.359.294-.7.7-.7zm6.3-7c.738 0 1.4.605 1.4 1.4v7c0 .738-.608 1.4-1.4 1.4H7.35a.7.7 0 1 1 0-1.4h3.85v-7h-7v3.85a.7.7 0 0 1-.7.7c-.359 0-.7-.3-.7-.7V2.8c0-.738.585-1.4 1.4-1.4zm-7 8.4H2.8v1.4h1.4z" clip-rule="evenodd"/></g><defs><clipPath id="a"><path fill="#fff" d="M0 0h14v14H0z"/></clipPath></defs></svg>