<svg width="24" height="24" viewBox="0 0 24 24" fill="none" xmlns="http://www.w3.org/2000/svg"><path d="M18.771 4.037 C 18.700 4.055,18.595 4.100,18.538 4.137 C 18.207 4.354,4.353 18.191,4.131 18.527 C 4.035 18.672,4.021 18.731,4.022 18.996 C 4.024 19.348,4.081 19.483,4.327 19.722 C 4.606 19.993,5.072 20.070,5.401 19.900 C 5.467 19.866,6.281 19.094,7.210 18.184 C 9.426 16.016,19.441 5.972,19.709 5.650 C 19.829 5.505,19.936 5.328,19.963 5.230 C 20.113 4.672,19.691 4.085,19.096 4.024 C 18.988 4.013,18.842 4.019,18.771 4.037 M18.708 12.549 C 18.559 12.571,17.398 13.688,14.717 16.386 C 12.426 18.691,12.496 18.605,12.527 19.094 C 12.539 19.288,12.570 19.391,12.652 19.516 C 12.872 19.848,13.286 20.038,13.664 19.982 C 13.920 19.943,14.097 19.782,16.436 17.461 C 19.016 14.900,19.888 13.984,19.952 13.770 C 20.056 13.425,19.959 13.075,19.686 12.802 C 19.437 12.553,19.159 12.481,18.708 12.549 " fill="#1A1C1F" stroke="none" fill-rule="evenodd"></path></svg>