<svg width="12" height="12" viewBox="0 0 12 12" fill="none" xmlns="http://www.w3.org/2000/svg"><path d="M3.800 1.218 C 3.304 1.231,3.286 1.233,3.160 1.286 C 2.920 1.387,2.646 1.631,2.540 1.840 C 2.520 1.880,2.482 1.975,2.456 2.051 L 2.410 2.190 2.410 4.020 L 2.410 5.850 2.454 5.940 C 2.516 6.066,2.631 6.177,2.760 6.238 C 2.909 6.308,3.109 6.310,3.244 6.244 C 3.364 6.185,3.485 6.064,3.544 5.944 L 3.590 5.850 3.596 4.125 L 3.601 2.400 6.601 2.400 L 9.600 2.400 9.600 5.397 L 9.600 8.394 7.871 8.405 L 6.143 8.416 6.019 8.482 C 5.584 8.714,5.605 9.322,6.056 9.544 L 6.150 9.590 7.970 9.590 L 9.790 9.590 9.948 9.541 C 10.034 9.515,10.156 9.460,10.218 9.419 C 10.438 9.276,10.654 9.015,10.731 8.797 C 10.794 8.621,10.802 8.156,10.796 5.160 L 10.790 2.190 10.743 2.050 C 10.687 1.881,10.626 1.773,10.518 1.647 C 10.349 1.453,10.156 1.324,9.920 1.250 C 9.818 1.218,9.607 1.215,7.060 1.210 C 5.548 1.208,4.080 1.211,3.800 1.218 M1.740 7.217 C 1.521 7.241,1.353 7.360,1.251 7.566 L 1.200 7.668 1.200 8.953 C 1.200 9.788,1.207 10.273,1.221 10.338 C 1.252 10.479,1.366 10.630,1.508 10.717 L 1.627 10.790 2.988 10.790 L 4.350 10.790 4.444 10.744 C 4.564 10.685,4.685 10.564,4.744 10.444 L 4.790 10.350 4.790 9.000 C 4.790 7.744,4.788 7.645,4.754 7.574 C 4.702 7.462,4.566 7.324,4.453 7.267 L 4.355 7.217 3.113 7.210 C 2.429 7.206,1.812 7.209,1.740 7.217 M3.600 9.000 L 3.600 9.600 3.000 9.600 L 2.400 9.600 2.400 9.000 L 2.400 8.400 3.000 8.400 L 3.600 8.400 3.600 9.000 " fill="#1A1C1F" stroke="none" fill-rule="evenodd"></path></svg>