<svg width="14" height="14" viewBox="0 0 14 14" fill="none" xmlns="http://www.w3.org/2000/svg"><path d="M10.722 2.472 C 10.670 2.480,10.586 2.508,10.535 2.532 C 10.472 2.562,9.421 3.594,7.259 5.751 C 3.731 9.271,2.575 10.446,2.507 10.584 C 2.440 10.720,2.444 10.990,2.516 11.135 C 2.665 11.439,2.997 11.603,3.311 11.527 C 3.405 11.505,3.471 11.462,3.634 11.321 C 3.887 11.101,9.861 5.145,10.783 4.193 C 11.184 3.779,11.473 3.462,11.495 3.411 C 11.553 3.280,11.550 3.001,11.488 2.868 C 11.361 2.591,11.027 2.419,10.722 2.472 M10.722 7.372 C 10.670 7.380,10.586 7.408,10.535 7.432 C 10.435 7.480,8.335 9.548,7.744 10.181 C 7.457 10.487,7.416 10.542,7.382 10.658 C 7.262 11.071,7.555 11.498,7.989 11.543 C 8.154 11.560,8.329 11.505,8.470 11.391 C 8.620 11.271,10.718 9.183,11.132 8.743 C 11.429 8.427,11.484 8.357,11.514 8.255 C 11.581 8.029,11.541 7.810,11.399 7.623 C 11.259 7.441,10.961 7.330,10.722 7.372 " fill="#1A1C1F" stroke="none" fill-rule="evenodd"></path></svg>