<svg width="14" height="14" viewBox="0 0 14 14" fill="none" xmlns="http://www.w3.org/2000/svg"><path d="M4.457 1.421 C 3.852 1.436,3.835 1.438,3.687 1.500 C 3.407 1.618,3.088 1.903,2.963 2.147 C 2.939 2.193,2.896 2.304,2.866 2.393 L 2.812 2.555 2.812 4.690 C 2.812 7.101,2.796 6.898,3.000 7.117 C 3.142 7.268,3.301 7.336,3.512 7.337 C 3.636 7.338,3.701 7.325,3.785 7.284 C 3.924 7.216,4.065 7.074,4.134 6.935 L 4.188 6.825 4.195 4.813 L 4.201 2.800 7.701 2.800 L 11.200 2.800 11.200 6.297 L 11.200 9.793 9.188 9.805 L 7.175 9.818 7.059 9.872 C 6.913 9.941,6.776 10.077,6.712 10.217 C 6.641 10.372,6.643 10.634,6.717 10.786 C 6.786 10.926,6.925 11.065,7.065 11.134 L 7.175 11.188 9.310 11.188 L 11.445 11.188 11.632 11.124 C 11.735 11.089,11.872 11.024,11.936 10.981 C 12.185 10.813,12.432 10.509,12.520 10.263 C 12.593 10.058,12.602 9.517,12.595 6.008 L 12.588 2.532 12.525 2.361 C 12.452 2.163,12.395 2.066,12.268 1.918 C 12.074 1.695,11.847 1.544,11.573 1.458 C 11.455 1.421,11.209 1.417,8.260 1.412 C 6.508 1.409,4.797 1.413,4.457 1.421 M2.030 8.420 C 1.773 8.448,1.576 8.589,1.457 8.831 L 1.398 8.952 1.405 10.514 C 1.412 12.055,1.412 12.076,1.462 12.183 C 1.528 12.327,1.680 12.475,1.832 12.545 L 1.956 12.602 3.515 12.595 L 5.075 12.588 5.185 12.534 C 5.324 12.466,5.466 12.324,5.534 12.185 L 5.588 12.075 5.588 10.500 C 5.588 8.731,5.600 8.850,5.410 8.644 C 5.355 8.585,5.259 8.510,5.196 8.478 L 5.083 8.421 3.632 8.412 C 2.834 8.407,2.113 8.411,2.030 8.420 M4.200 10.500 L 4.200 11.200 3.500 11.200 L 2.800 11.200 2.800 10.500 L 2.800 9.800 3.500 9.800 L 4.200 9.800 4.200 10.500 " fill="#1A1C1F" stroke="none" fill-rule="evenodd"></path></svg>