<svg width="20" height="20" viewBox="0 0 20 20" fill="none" xmlns="http://www.w3.org/2000/svg"><path d="M6.367 2.031 C 5.503 2.051,5.479 2.054,5.267 2.143 C 4.867 2.311,4.411 2.719,4.233 3.067 C 4.199 3.133,4.137 3.292,4.094 3.419 L 4.017 3.650 4.017 6.700 C 4.017 10.144,3.994 9.854,4.286 10.167 C 4.488 10.382,4.715 10.481,5.017 10.482 C 5.195 10.483,5.287 10.465,5.406 10.406 C 5.606 10.308,5.808 10.106,5.906 9.906 L 5.983 9.750 5.993 6.875 L 6.002 4.000 11.001 4.000 L 16.000 4.000 16.000 8.995 L 16.000 13.990 13.119 14.008 L 10.238 14.027 10.032 14.137 C 9.307 14.523,9.342 15.536,10.094 15.906 L 10.250 15.983 13.300 15.983 L 16.350 15.983 16.617 15.891 C 16.765 15.841,16.960 15.749,17.051 15.688 C 17.408 15.446,17.761 15.013,17.885 14.662 C 17.990 14.368,18.003 13.595,17.993 8.583 L 17.983 3.617 17.892 3.370 C 17.775 3.054,17.649 2.859,17.409 2.624 C 17.166 2.387,17.090 2.329,16.883 2.225 C 16.462 2.012,16.805 2.026,11.800 2.017 C 9.297 2.013,6.852 2.019,6.367 2.031 M2.900 12.029 C 2.532 12.068,2.251 12.270,2.082 12.616 L 1.998 12.789 2.007 15.019 C 2.017 17.221,2.018 17.252,2.088 17.405 C 2.182 17.608,2.380 17.802,2.606 17.913 L 2.789 18.002 5.019 17.993 L 7.250 17.983 7.406 17.906 C 7.606 17.808,7.808 17.606,7.906 17.406 L 7.983 17.250 7.983 15.000 C 7.983 12.473,8.000 12.643,7.729 12.349 C 7.650 12.264,7.513 12.157,7.425 12.112 L 7.263 12.031 5.190 12.018 C 4.050 12.011,3.019 12.016,2.900 12.029 M6.000 15.000 L 6.000 16.000 5.000 16.000 L 4.000 16.000 4.000 15.000 L 4.000 14.000 5.000 14.000 L 6.000 14.000 6.000 15.000 " fill="#1A1C1F" stroke="none" fill-rule="evenodd"></path></svg>