<svg width="24" height="24" viewBox="0 0 24 24" fill="none" xmlns="http://www.w3.org/2000/svg"><path d="M7.820 2.039 C 6.900 2.061,6.850 2.067,6.613 2.167 C 6.077 2.394,5.544 2.871,5.288 3.352 C 5.010 3.873,5.020 3.709,5.020 7.660 C 5.020 9.618,5.034 11.271,5.051 11.332 C 5.094 11.484,5.379 11.787,5.578 11.892 C 5.790 12.003,6.195 12.009,6.410 11.904 C 6.626 11.799,6.867 11.549,6.924 11.373 C 6.961 11.259,6.980 10.350,6.999 7.800 C 7.016 5.339,7.036 4.350,7.070 4.272 C 7.096 4.213,7.166 4.132,7.226 4.092 C 7.331 4.023,7.629 4.020,13.505 4.020 L 19.674 4.020 19.785 4.103 C 19.846 4.148,19.914 4.238,19.936 4.303 C 19.963 4.380,19.977 6.505,19.978 10.542 C 19.980 16.374,19.977 16.669,19.908 16.774 C 19.868 16.834,19.787 16.905,19.728 16.930 C 19.650 16.964,18.665 16.984,16.180 17.001 C 13.746 17.018,12.708 17.039,12.632 17.071 C 12.472 17.139,12.205 17.394,12.119 17.561 C 11.876 18.039,12.076 18.653,12.551 18.887 L 12.740 18.980 16.360 18.980 L 19.980 18.980 20.304 18.855 C 20.712 18.698,21.007 18.510,21.276 18.236 C 21.506 18.003,21.759 17.605,21.861 17.320 C 21.987 16.965,22.004 16.019,21.991 9.980 L 21.979 4.020 21.866 3.711 C 21.628 3.059,21.189 2.577,20.535 2.252 L 20.148 2.060 17.484 2.035 C 14.227 2.005,9.122 2.007,7.820 2.039 M13.060 6.035 C 12.724 6.056,12.630 6.077,12.474 6.169 C 11.734 6.605,11.919 7.766,12.760 7.957 C 12.859 7.980,13.307 7.998,13.756 7.999 L 14.573 8.000 12.916 9.670 C 12.005 10.589,11.210 11.414,11.149 11.504 C 10.946 11.803,10.962 12.213,11.191 12.553 C 11.425 12.902,11.809 13.055,12.218 12.964 C 12.494 12.902,12.573 12.832,14.506 10.908 L 15.991 9.429 16.006 10.364 L 16.020 11.300 16.133 11.492 C 16.353 11.867,16.793 12.061,17.206 11.966 C 17.485 11.902,17.771 11.684,17.887 11.449 L 17.980 11.260 17.992 9.013 C 18.004 6.957,17.999 6.754,17.936 6.633 C 17.812 6.392,17.683 6.254,17.470 6.138 L 17.260 6.023 15.360 6.016 C 14.315 6.013,13.280 6.021,13.060 6.035 M4.200 14.036 C 3.499 14.059,3.447 14.066,3.222 14.172 C 2.691 14.420,2.276 14.862,2.112 15.354 C 2.025 15.613,2.023 15.675,2.009 17.747 C 1.993 20.175,2.012 20.484,2.206 20.879 C 2.474 21.427,3.104 21.880,3.715 21.965 C 3.892 21.989,4.867 21.999,6.213 21.991 C 8.401 21.976,8.422 21.976,8.671 21.884 C 9.236 21.677,9.705 21.189,9.905 20.600 C 9.975 20.395,9.980 20.221,9.980 18.000 L 9.980 15.620 9.884 15.360 C 9.688 14.827,9.354 14.463,8.828 14.207 L 8.500 14.047 6.720 14.030 C 5.741 14.020,4.607 14.023,4.200 14.036 M8.000 18.000 L 8.000 20.000 6.000 20.000 L 4.000 20.000 4.000 18.000 L 4.000 16.000 6.000 16.000 L 8.000 16.000 8.000 18.000 " fill="#1A1C1F" stroke="none" fill-rule="evenodd"></path></svg>