<svg xmlns="http://www.w3.org/2000/svg" width="28" height="28" fill="none"><g clip-path="url(#a)"><path fill="#1A1C1F" fill-rule="evenodd" d="M8.313 17.5c1.16 0 2.187.924 2.187 2.188v4.375c0 1.16-.918 2.187-2.187 2.187H3.938c-1.16 0-2.213-.955-2.188-2.187v-4.375c0-1.16.917-2.188 2.188-2.188zm-4.375 1.75a.443.443 0 0 0-.438.438v4.375a.44.44 0 0 0 .438.437h4.375a.435.435 0 0 0 .437-.437v-4.375a.44.44 0 0 0-.437-.438zm19.687-17.5a2.623 2.623 0 0 1 2.625 2.625v15.75a2.62 2.62 0 0 1-2.625 2.625H14A.875.875 0 1 1 14 21h9.625a.89.89 0 0 0 .875-.875V4.375a.87.87 0 0 0-.875-.875H7.875A.883.883 0 0 0 7 4.375V14a.875.875 0 0 1-.875.875A.885.885 0 0 1 5.25 14V4.375c0-1.398 1.132-2.625 2.625-2.625zM20.125 7a.88.88 0 0 1 .875.875v5.25a.875.875 0 0 1-1.75 0V9.987l-5.506 5.507a.875.875 0 0 1-1.237 0c-.316-.316-.37-.883 0-1.238L18.01 8.75h-3.136a.875.875 0 0 1 0-1.75z" clip-rule="evenodd"/></g><defs><clipPath id="a"><path fill="#fff" d="M0 0h28v28H0z"/></clipPath></defs></svg>