<svg width="20" height="20" viewBox="0 0 20 20" fill="none" xmlns="http://www.w3.org/2000/svg"><path d="M15.317 3.531 C 15.243 3.543,15.123 3.582,15.050 3.617 C 14.959 3.661,13.450 5.144,10.337 8.249 C 5.290 13.283,3.679 14.922,3.582 15.120 C 3.486 15.314,3.492 15.700,3.594 15.906 C 3.808 16.341,4.282 16.575,4.729 16.468 C 4.865 16.435,4.959 16.375,5.191 16.173 C 5.558 15.855,14.099 7.337,15.415 5.978 C 16.328 5.036,16.393 4.961,16.449 4.783 C 16.667 4.089,16.047 3.404,15.317 3.531 M15.317 10.531 C 15.243 10.543,15.123 10.582,15.050 10.618 C 14.963 10.659,14.324 11.270,13.221 12.366 C 11.323 14.250,10.651 14.952,10.574 15.130 C 10.490 15.323,10.500 15.716,10.594 15.906 C 10.821 16.367,11.319 16.595,11.782 16.449 C 11.945 16.398,12.035 16.331,12.428 15.966 C 13.028 15.408,16.115 12.299,16.291 12.075 C 16.513 11.793,16.555 11.426,16.404 11.086 C 16.236 10.705,15.749 10.456,15.317 10.531 " fill="#1A1C1F" stroke="none" fill-rule="evenodd"></path></svg>