<svg width="32" height="32" viewBox="0 0 32 32" fill="none" xmlns="http://www.w3.org/2000/svg"><path d="M9.570 2.078 L 8.127 2.107 7.708 2.314 C 6.983 2.672,6.415 3.337,6.128 4.160 L 6.008 4.507 5.988 10.347 L 5.968 16.187 6.131 16.466 C 6.526 17.140,7.401 17.167,7.830 16.517 L 7.973 16.301 8.000 10.511 L 8.027 4.720 8.153 4.516 C 8.223 4.404,8.377 4.248,8.496 4.170 L 8.712 4.027 18.030 4.029 L 27.348 4.032 27.542 4.179 C 27.648 4.260,27.796 4.447,27.870 4.594 L 28.006 4.862 27.990 14.071 L 27.973 23.280 27.813 23.515 C 27.725 23.645,27.557 23.801,27.440 23.862 C 27.229 23.972,27.177 23.974,21.458 24.000 L 15.689 24.027 15.460 24.187 C 15.152 24.404,15.017 24.648,15.019 24.984 C 15.021 25.379,15.190 25.668,15.534 25.866 L 15.813 26.026 21.604 26.026 L 27.395 26.027 27.778 25.896 C 28.844 25.534,29.483 24.910,29.862 23.863 L 30.027 23.408 30.027 14.001 L 30.027 4.594 29.876 4.168 C 29.793 3.934,29.643 3.606,29.543 3.438 C 29.290 3.018,28.754 2.540,28.268 2.303 L 27.867 2.107 26.347 2.073 C 24.557 2.032,11.662 2.035,9.570 2.078 M17.147 8.048 C 16.561 8.083,16.387 8.161,16.150 8.493 C 15.892 8.856,16.034 9.533,16.423 9.791 C 16.729 9.993,17.079 10.027,18.871 10.027 L 20.554 10.027 17.407 13.187 C 15.676 14.925,14.203 16.440,14.134 16.554 C 13.832 17.054,14.136 17.768,14.726 17.943 C 15.036 18.035,15.288 17.986,15.561 17.782 C 15.671 17.700,17.156 16.243,18.863 14.543 L 21.966 11.454 21.983 13.340 L 22.000 15.227 22.144 15.472 C 22.311 15.756,22.460 15.867,22.793 15.956 C 23.201 16.065,23.661 15.850,23.882 15.447 C 23.965 15.294,23.973 14.995,23.973 11.969 L 23.973 8.658 23.828 8.468 C 23.748 8.363,23.592 8.221,23.481 8.152 L 23.280 8.027 20.480 8.021 C 18.940 8.018,17.440 8.030,17.147 8.048 M4.204 20.054 C 3.221 20.148,2.369 20.876,2.100 21.852 C 2.008 22.184,2.000 22.443,2.001 25.067 C 2.001 27.819,2.005 27.932,2.113 28.246 C 2.347 28.931,2.823 29.451,3.514 29.777 C 3.999 30.005,4.527 30.037,7.440 30.014 C 9.763 29.996,9.911 29.989,10.227 29.883 C 11.170 29.566,11.842 28.764,11.951 27.823 C 12.011 27.301,12.010 22.806,11.949 22.227 C 11.885 21.620,11.672 21.174,11.243 20.749 C 10.774 20.284,10.365 20.104,9.659 20.049 C 8.969 19.996,4.773 20.000,4.204 20.054 M9.850 22.143 L 9.973 22.259 9.973 24.991 L 9.973 27.724 9.809 27.862 L 9.645 28.000 6.986 28.000 L 4.326 28.000 4.183 27.877 L 4.039 27.753 4.012 25.063 L 3.985 22.373 4.130 22.200 L 4.276 22.027 7.001 22.027 C 9.726 22.027,9.726 22.027,9.850 22.143 " fill="#1A1C1F" stroke="none" fill-rule="evenodd"></path></svg>