<svg width="12" height="12" viewBox="0 0 12 12" fill="none" xmlns="http://www.w3.org/2000/svg"><path d="M9.190 2.118 C 9.146 2.126,9.074 2.149,9.030 2.170 C 8.976 2.196,8.083 3.073,6.242 4.909 C 3.205 7.939,2.206 8.955,2.150 9.071 C 2.093 9.190,2.096 9.421,2.156 9.544 C 2.285 9.805,2.569 9.945,2.838 9.881 C 2.919 9.861,2.975 9.825,3.115 9.704 C 3.331 9.515,8.470 4.392,9.259 3.578 C 9.798 3.021,9.835 2.978,9.869 2.870 C 10.000 2.454,9.629 2.042,9.190 2.118 M9.190 6.319 C 9.146 6.327,9.076 6.348,9.034 6.366 C 8.954 6.400,7.160 8.167,6.637 8.727 C 6.392 8.989,6.356 9.036,6.328 9.135 C 6.168 9.685,6.815 10.122,7.260 9.764 C 7.388 9.661,9.187 7.872,9.542 7.494 C 9.796 7.223,9.843 7.164,9.869 7.076 C 9.927 6.882,9.892 6.694,9.770 6.534 C 9.650 6.378,9.394 6.282,9.190 6.319 " fill="#1A1C1F" stroke="none" fill-rule="evenodd"></path></svg>