<svg xmlns="http://www.w3.org/2000/svg" width="12" height="12" fill="none"><g clip-path="url(#a)"><path fill="#1A1C1F" fill-rule="evenodd" d="M4.2 7.2c.308 0 .6.253.6.6v2.4a.6.6 0 0 1-.6.6H1.8a.6.6 0 0 1-.6-.6V7.8c0-.308.252-.6.6-.6zm5.4-6c.633 0 1.2.518 1.2 1.2v6c0 .633-.522 1.2-1.2 1.2H6.3a.6.6 0 0 1 0-1.2h3.3v-6h-6v3.3a.6.6 0 0 1-.6.6.607.607 0 0 1-.6-.6V2.4c0-.633.501-1.2 1.2-1.2zm-6 7.2H2.4v1.2h1.2z" clip-rule="evenodd"/></g><defs><clipPath id="a"><path fill="#fff" d="M0 0h12v12H0z"/></clipPath></defs></svg>