<svg xmlns="http://www.w3.org/2000/svg" width="32" height="32" fill="none"><path fill="#1A1C1F" fill-rule="evenodd" d="M25.6 5.097C25.361 5.2 5.265 25.273 5.116 25.558c-.188.361-.095.907.2 1.173.271.245.723.318 1.072.174.277-.114 20.353-20.173 20.496-20.478.127-.27.128-.581.002-.854-.116-.253-.235-.367-.5-.478a1.04 1.04 0 0 0-.786.002m.172 9.942a1.4 1.4 0 0 0-.373.18c-.109.076-2.448 2.389-5.196 5.14-5.181 5.184-5.214 5.22-5.214 5.641 0 .346.323.805.654.93.215.081.542.07.772-.026.139-.057 1.692-1.575 5.226-5.106 2.766-2.764 5.09-5.113 5.165-5.221.254-.365.236-.876-.043-1.194-.268-.305-.627-.43-.991-.344"/></svg>