<svg xmlns="http://www.w3.org/2000/svg" width="20" height="20" fill="none"><path fill="#1A1C1F" fill-rule="evenodd" d="M5.567 2.052a1.9 1.9 0 0 0-.967.545 1.86 1.86 0 0 0-.534.923C4.003 3.767 4 3.899 4 6.888v3.11l2.625.01 2.625.009.164.08c.202.1.387.287.491.495l.078.158.009 2.625.01 2.625h3.11c2.965 0 3.122-.003 3.362-.064a1.8 1.8 0 0 0 .927-.532 1.86 1.86 0 0 0 .533-.924c.064-.251.066-.388.066-5.48s-.002-5.229-.066-5.48a1.8 1.8 0 0 0-.533-.92 1.94 1.94 0 0 0-.984-.55c-.341-.071-10.519-.069-10.85.002m-2.85 9.994c-.309.098-.578.37-.671.679-.037.122-.046.572-.046 2.296 0 2.109.001 2.146.071 2.334.095.254.32.479.574.574.188.07.224.071 2.355.071s2.167-.001 2.355-.071c.254-.095.479-.32.574-.574.07-.188.071-.224.071-2.355 0-2.127-.001-2.167-.071-2.354a1.04 1.04 0 0 0-.513-.548l-.166-.081-2.2-.007c-1.7-.005-2.23.003-2.333.036"/></svg>