<svg width="28" height="28" viewBox="0 0 28 28" fill="none" xmlns="http://www.w3.org/2000/svg"><path d="M8.351 1.818 L 7.111 1.843 6.744 2.025 C 6.110 2.338,5.613 2.920,5.362 3.640 L 5.257 3.943 5.237 9.034 C 5.217 14.114,5.217 14.124,5.313 14.307 C 5.521 14.699,5.756 14.857,6.139 14.859 C 6.433 14.860,6.646 14.742,6.836 14.472 L 6.977 14.272 7.000 9.201 L 7.023 4.130 7.134 3.952 C 7.195 3.854,7.330 3.717,7.434 3.649 L 7.623 3.523 15.776 3.525 L 23.928 3.527 24.098 3.656 C 24.192 3.728,24.321 3.891,24.387 4.020 L 24.505 4.254 24.491 12.312 L 24.477 20.370 24.337 20.576 C 24.260 20.689,24.113 20.826,24.010 20.879 C 23.825 20.976,23.780 20.977,18.776 21.000 L 13.728 21.023 13.528 21.164 C 13.258 21.354,13.140 21.567,13.141 21.861 C 13.143 22.240,13.301 22.479,13.683 22.682 C 13.852 22.771,13.975 22.773,18.913 22.773 L 23.970 22.773 24.306 22.659 C 25.238 22.342,25.798 21.796,26.129 20.880 L 26.273 20.482 26.273 12.251 L 26.273 4.020 26.141 3.647 C 26.069 3.442,25.938 3.155,25.850 3.009 C 25.629 2.641,25.160 2.223,24.735 2.016 L 24.383 1.844 23.053 1.814 C 21.486 1.778,10.145 1.781,8.351 1.818 M14.980 7.042 C 14.493 7.073,14.336 7.145,14.132 7.432 C 13.905 7.749,14.030 8.342,14.370 8.567 C 14.638 8.744,14.944 8.773,16.512 8.773 L 17.985 8.773 15.231 11.538 C 13.717 13.059,12.428 14.385,12.368 14.485 C 12.103 14.922,12.369 15.547,12.885 15.701 C 13.156 15.781,13.377 15.738,13.616 15.559 C 13.712 15.487,15.012 14.212,16.505 12.726 L 19.220 10.022 19.235 11.673 L 19.250 13.323 19.376 13.538 C 19.522 13.787,19.652 13.884,19.944 13.961 C 20.300 14.057,20.704 13.868,20.897 13.516 C 20.970 13.383,20.977 13.121,20.977 10.473 L 20.977 7.576 20.849 7.409 C 20.779 7.317,20.643 7.193,20.546 7.133 L 20.370 7.023 17.897 7.018 C 16.536 7.015,15.224 7.026,14.980 7.042 M3.703 17.547 C 2.862 17.620,2.179 18.165,1.856 19.020 C 1.753 19.294,1.752 19.322,1.751 21.863 C 1.750 24.349,1.753 24.439,1.848 24.715 C 2.055 25.316,2.471 25.770,3.075 26.055 C 3.499 26.254,3.961 26.282,6.510 26.262 C 8.543 26.247,8.672 26.241,8.948 26.148 C 9.774 25.870,10.362 25.168,10.457 24.346 C 10.511 23.880,10.509 19.896,10.455 19.423 C 10.396 18.914,10.203 18.518,9.837 18.155 C 9.427 17.749,9.069 17.591,8.452 17.543 C 7.856 17.497,4.239 17.500,3.703 17.547 M8.619 19.375 L 8.727 19.476 8.727 21.867 L 8.727 24.258 8.583 24.379 L 8.440 24.500 6.112 24.500 L 3.785 24.500 3.659 24.391 L 3.532 24.282 3.510 21.929 L 3.487 19.576 3.614 19.424 L 3.742 19.273 6.126 19.273 C 8.510 19.273,8.511 19.273,8.619 19.375 " fill="#1A1C1F" stroke="none" fill-rule="evenodd"></path></svg>