<svg width="12" height="12" viewBox="0 0 12 12" fill="none" xmlns="http://www.w3.org/2000/svg"><path d="M7.490 2.440 C 6.939 2.521,6.381 2.955,6.138 3.492 L 6.080 3.620 3.857 3.620 L 1.635 3.620 1.530 3.680 C 1.408 3.750,1.290 3.873,1.244 3.977 C 1.194 4.094,1.202 4.328,1.261 4.450 C 1.324 4.580,1.455 4.710,1.586 4.771 L 1.690 4.820 3.892 4.820 L 6.094 4.820 6.149 4.950 C 6.310 5.329,6.724 5.726,7.114 5.876 C 7.667 6.089,8.270 6.030,8.754 5.715 C 9.026 5.538,9.252 5.283,9.410 4.976 L 9.488 4.824 9.909 4.817 C 10.322 4.810,10.332 4.809,10.444 4.754 C 10.666 4.645,10.790 4.447,10.787 4.206 C 10.784 3.971,10.681 3.801,10.472 3.681 L 10.365 3.620 9.924 3.620 L 9.483 3.620 9.392 3.435 C 9.236 3.118,8.976 2.834,8.680 2.660 C 8.540 2.577,8.313 2.486,8.187 2.462 C 8.053 2.436,7.612 2.422,7.490 2.440 M8.064 3.688 C 8.420 3.896,8.475 4.387,8.174 4.653 C 7.890 4.902,7.450 4.825,7.259 4.492 C 7.206 4.401,7.200 4.372,7.200 4.214 C 7.200 3.989,7.263 3.859,7.435 3.727 C 7.592 3.608,7.896 3.589,8.064 3.688 M3.910 6.043 C 3.581 6.074,3.158 6.296,2.906 6.568 C 2.771 6.714,2.641 6.910,2.560 7.089 L 2.502 7.220 2.068 7.220 L 1.635 7.220 1.528 7.281 C 1.372 7.371,1.271 7.494,1.229 7.650 C 1.168 7.875,1.228 8.080,1.402 8.243 C 1.555 8.388,1.622 8.404,2.104 8.415 L 2.518 8.425 2.553 8.516 C 2.642 8.749,2.936 9.107,3.168 9.265 C 3.321 9.370,3.575 9.486,3.750 9.533 C 3.861 9.562,3.959 9.570,4.220 9.569 C 4.526 9.568,4.562 9.564,4.720 9.512 C 5.049 9.403,5.286 9.256,5.499 9.028 C 5.645 8.872,5.796 8.650,5.847 8.514 L 5.883 8.420 8.077 8.420 L 10.270 8.420 10.374 8.371 C 10.677 8.230,10.826 7.906,10.723 7.613 C 10.667 7.454,10.608 7.383,10.458 7.295 L 10.331 7.220 8.115 7.220 L 5.899 7.220 5.831 7.070 C 5.738 6.866,5.580 6.643,5.432 6.506 C 5.191 6.283,4.850 6.100,4.602 6.062 C 4.427 6.035,4.084 6.026,3.910 6.043 M4.459 7.260 C 4.666 7.365,4.788 7.561,4.788 7.790 C 4.788 8.306,4.187 8.574,3.803 8.229 C 3.645 8.087,3.576 7.880,3.619 7.675 C 3.661 7.470,3.831 7.279,4.018 7.226 C 4.144 7.191,4.355 7.207,4.459 7.260 " fill="#1A1C1F" stroke="none" fill-rule="evenodd"></path></svg>