<svg width="16" height="16" viewBox="0 0 16 16" fill="none" xmlns="http://www.w3.org/2000/svg"><path d="M9.986 3.253 C 9.248 3.359,8.498 3.949,8.177 4.675 L 8.110 4.827 5.145 4.827 L 2.180 4.827 2.039 4.907 C 1.687 5.109,1.536 5.446,1.639 5.801 C 1.717 6.069,1.881 6.256,2.140 6.374 C 2.250 6.424,2.345 6.426,5.190 6.426 L 8.128 6.427 8.172 6.540 C 8.314 6.901,8.717 7.380,9.084 7.626 C 9.452 7.872,9.901 8.000,10.395 8.000 C 11.302 8.000,12.107 7.489,12.547 6.635 L 12.651 6.432 13.212 6.423 C 13.763 6.413,13.776 6.412,13.925 6.338 C 14.110 6.248,14.297 6.048,14.345 5.889 C 14.392 5.733,14.387 5.454,14.334 5.307 C 14.282 5.161,14.140 5.010,13.957 4.905 L 13.820 4.827 13.231 4.827 L 12.642 4.827 12.534 4.602 C 12.324 4.162,11.981 3.786,11.573 3.548 C 11.364 3.426,11.092 3.316,10.916 3.282 C 10.740 3.248,10.151 3.230,9.986 3.253 M10.732 4.909 C 10.995 5.040,11.152 5.301,11.155 5.613 C 11.157 5.860,11.079 6.040,10.902 6.199 C 10.518 6.544,9.898 6.428,9.668 5.967 C 9.611 5.852,9.600 5.792,9.600 5.607 C 9.600 5.319,9.687 5.143,9.914 4.970 C 10.116 4.815,10.489 4.787,10.732 4.909 M4.873 8.134 C 4.584 8.231,4.467 8.290,4.219 8.461 C 3.889 8.688,3.593 9.053,3.414 9.452 L 3.336 9.627 2.754 9.627 L 2.173 9.627 2.037 9.705 C 1.536 9.993,1.460 10.638,1.883 11.010 C 2.080 11.183,2.177 11.206,2.806 11.220 L 3.358 11.233 3.405 11.355 C 3.520 11.656,3.893 12.115,4.203 12.336 C 4.408 12.483,4.754 12.645,5.000 12.710 C 5.148 12.750,5.278 12.759,5.627 12.758 C 6.026 12.756,6.087 12.750,6.288 12.686 C 6.712 12.551,7.045 12.344,7.332 12.037 C 7.527 11.829,7.727 11.533,7.797 11.352 L 7.844 11.227 10.769 11.226 L 13.693 11.226 13.833 11.161 C 13.997 11.085,14.206 10.885,14.280 10.733 C 14.364 10.563,14.354 10.244,14.259 10.049 C 14.184 9.896,14.109 9.825,13.891 9.698 L 13.769 9.627 10.817 9.627 L 7.865 9.627 7.774 9.426 C 7.527 8.885,7.098 8.462,6.540 8.208 C 6.269 8.086,6.069 8.054,5.560 8.054 C 5.128 8.054,5.096 8.058,4.873 8.134 M5.925 9.668 C 6.223 9.820,6.385 10.072,6.385 10.387 C 6.385 10.539,6.371 10.605,6.311 10.727 C 6.220 10.913,6.041 11.075,5.861 11.135 C 5.685 11.194,5.389 11.177,5.240 11.100 C 5.022 10.987,4.856 10.749,4.814 10.488 C 4.758 10.142,5.020 9.731,5.357 9.635 C 5.512 9.591,5.807 9.608,5.925 9.668 " fill="#1A1C1F" stroke="none" fill-rule="evenodd"></path></svg>