<svg width="28" height="28" viewBox="0 0 28 28" fill="none" xmlns="http://www.w3.org/2000/svg"><path d="M8.123 2.711 C 7.481 2.810,6.738 3.208,6.230 3.725 C 5.918 4.043,5.540 4.658,5.434 5.022 L 5.364 5.260 3.827 5.283 L 2.289 5.307 2.130 5.429 C 1.933 5.579,1.773 5.896,1.773 6.137 C 1.773 6.383,1.931 6.689,2.145 6.859 L 2.323 7.000 3.838 7.000 L 5.352 7.000 5.411 7.198 C 5.563 7.707,5.931 8.264,6.410 8.711 C 7.027 9.287,7.694 9.560,8.587 9.601 C 9.264 9.631,9.727 9.544,10.243 9.289 C 11.035 8.897,11.809 8.027,12.062 7.245 L 12.141 7.000 18.909 7.000 L 25.677 7.000 25.855 6.859 C 26.069 6.689,26.227 6.383,26.227 6.137 C 26.227 5.897,26.068 5.579,25.874 5.431 L 25.717 5.312 18.926 5.285 L 12.136 5.259 12.065 5.021 C 11.934 4.581,11.630 4.107,11.205 3.681 C 10.857 3.333,10.737 3.247,10.313 3.041 C 10.044 2.911,9.729 2.782,9.613 2.755 C 9.300 2.683,8.465 2.659,8.123 2.711 M9.333 4.514 C 9.765 4.659,10.122 4.990,10.338 5.445 C 10.436 5.652,10.453 5.755,10.453 6.148 C 10.453 6.552,10.438 6.639,10.330 6.855 C 10.160 7.197,9.770 7.582,9.441 7.734 C 9.211 7.841,9.107 7.860,8.750 7.860 C 8.393 7.860,8.289 7.841,8.059 7.734 C 7.730 7.582,7.340 7.197,7.170 6.855 C 7.061 6.637,7.047 6.553,7.047 6.137 C 7.047 5.718,7.061 5.636,7.173 5.411 C 7.406 4.940,7.911 4.528,8.369 4.434 C 8.611 4.384,9.056 4.421,9.333 4.514 M18.351 10.641 C 17.912 10.756,17.657 10.871,17.268 11.129 C 16.676 11.522,16.278 12.027,15.905 12.857 L 15.779 13.137 9.045 13.160 C 4.044 13.177,2.286 13.197,2.217 13.238 C 2.071 13.323,1.878 13.544,1.823 13.688 C 1.691 14.038,1.830 14.496,2.145 14.746 L 2.323 14.887 9.063 14.887 L 15.803 14.887 15.882 15.136 C 15.995 15.497,16.389 16.128,16.697 16.441 C 17.532 17.293,18.725 17.664,19.882 17.434 C 21.052 17.200,22.093 16.302,22.494 15.181 L 22.597 14.892 24.124 14.878 L 25.650 14.863 25.844 14.735 C 26.310 14.426,26.362 13.758,25.949 13.370 C 25.813 13.242,25.764 13.227,25.372 13.199 C 25.136 13.183,24.415 13.167,23.769 13.164 L 22.594 13.160 22.497 12.866 C 22.344 12.409,22.084 12.004,21.677 11.593 C 21.155 11.066,20.520 10.718,19.860 10.597 C 19.431 10.519,18.739 10.539,18.351 10.641 M19.505 12.323 C 19.895 12.386,20.206 12.558,20.488 12.867 C 20.792 13.199,20.919 13.539,20.923 14.024 C 20.925 14.350,20.906 14.440,20.779 14.712 C 20.596 15.103,20.281 15.416,19.880 15.605 C 19.480 15.793,18.980 15.805,18.550 15.635 C 18.208 15.500,17.808 15.117,17.626 14.749 C 17.514 14.523,17.500 14.443,17.500 14.013 C 17.500 13.587,17.514 13.502,17.620 13.294 C 17.847 12.846,18.266 12.485,18.727 12.341 C 18.972 12.264,19.123 12.261,19.505 12.323 M8.283 18.413 C 8.232 18.424,8.075 18.457,7.933 18.485 C 6.872 18.697,5.782 19.687,5.440 20.749 L 5.363 20.988 3.883 21.009 C 2.246 21.033,2.244 21.034,1.969 21.347 C 1.625 21.739,1.746 22.374,2.216 22.642 C 2.399 22.747,2.440 22.750,3.901 22.766 L 5.398 22.783 5.498 23.093 C 5.640 23.532,5.906 23.912,6.408 24.392 C 6.911 24.873,7.310 25.095,7.933 25.244 C 9.661 25.658,11.438 24.713,12.041 23.062 L 12.143 22.781 18.847 22.765 L 25.550 22.750 25.760 22.646 C 26.247 22.404,26.384 21.749,26.031 21.347 C 25.725 20.998,26.357 21.028,18.887 21.001 L 12.177 20.977 12.026 20.603 C 11.621 19.602,10.801 18.847,9.777 18.529 C 9.460 18.432,8.519 18.358,8.283 18.413 M9.109 20.166 C 9.630 20.276,10.036 20.577,10.311 21.056 C 10.447 21.294,10.452 21.325,10.452 21.863 C 10.452 22.402,10.447 22.433,10.311 22.671 C 10.109 23.022,9.839 23.273,9.480 23.442 C 9.208 23.571,9.121 23.589,8.773 23.589 C 8.425 23.589,8.339 23.571,8.063 23.441 C 7.686 23.263,7.381 22.964,7.202 22.597 C 7.086 22.359,7.072 22.279,7.072 21.863 C 7.072 21.448,7.086 21.367,7.202 21.130 C 7.485 20.548,8.099 20.137,8.713 20.118 C 8.795 20.115,8.973 20.137,9.109 20.166 " fill="#1A1C1F" stroke="none" fill-rule="evenodd"></path></svg>