<svg width="32" height="32" viewBox="0 0 32 32" fill="none" xmlns="http://www.w3.org/2000/svg"><path d="M9.283 3.099 C 8.839 3.167,8.245 3.406,7.796 3.698 C 7.090 4.157,6.499 4.912,6.231 5.695 L 6.123 6.012 4.370 6.038 L 2.617 6.065 2.434 6.204 C 2.209 6.376,2.027 6.738,2.027 7.013 C 2.027 7.295,2.207 7.645,2.452 7.839 L 2.655 8.000 4.386 8.000 L 6.116 8.000 6.184 8.227 C 6.358 8.808,6.779 9.445,7.325 9.955 C 8.030 10.614,8.793 10.926,9.813 10.972 C 10.587 11.007,11.116 10.908,11.707 10.616 C 12.612 10.168,13.496 9.174,13.785 8.280 L 13.875 8.000 21.610 8.000 L 29.345 8.000 29.548 7.839 C 29.793 7.645,29.973 7.295,29.973 7.013 C 29.973 6.738,29.791 6.376,29.567 6.205 L 29.385 6.066 21.628 6.039 L 13.870 6.011 13.789 5.739 C 13.639 5.236,13.291 4.694,12.805 4.207 C 12.409 3.809,12.271 3.711,11.787 3.476 C 11.479 3.326,11.119 3.179,10.987 3.149 C 10.629 3.067,9.674 3.038,9.283 3.099 M10.667 5.159 C 11.160 5.325,11.568 5.703,11.815 6.223 C 11.927 6.459,11.947 6.577,11.947 7.026 C 11.947 7.488,11.929 7.587,11.806 7.835 C 11.611 8.226,11.166 8.666,10.790 8.839 C 10.526 8.961,10.408 8.982,10.000 8.982 C 9.592 8.982,9.474 8.961,9.210 8.839 C 8.834 8.666,8.389 8.226,8.194 7.835 C 8.070 7.586,8.053 7.489,8.053 7.013 C 8.053 6.535,8.070 6.442,8.197 6.184 C 8.465 5.646,9.041 5.175,9.565 5.067 C 9.841 5.010,10.350 5.053,10.667 5.159 M20.973 12.161 C 20.470 12.292,20.179 12.424,19.735 12.719 C 19.059 13.168,18.604 13.745,18.177 14.693 L 18.033 15.013 10.337 15.040 C 4.622 15.060,2.613 15.083,2.533 15.129 C 2.367 15.226,2.146 15.478,2.083 15.643 C 1.932 16.043,2.092 16.567,2.452 16.852 L 2.655 17.013 10.358 17.013 L 18.061 17.013 18.150 17.298 C 18.280 17.711,18.731 18.432,19.082 18.790 C 20.295 20.026,22.112 20.348,23.653 19.601 C 24.623 19.131,25.359 18.325,25.707 17.350 L 25.825 17.020 27.570 17.003 L 29.315 16.987 29.536 16.840 C 30.069 16.487,30.128 15.723,29.656 15.280 C 29.501 15.134,29.444 15.117,28.997 15.085 C 28.727 15.066,27.903 15.048,27.165 15.045 L 25.823 15.040 25.713 14.715 C 25.286 13.450,24.107 12.411,22.777 12.129 C 22.275 12.023,21.443 12.037,20.973 12.161 M22.809 14.246 C 23.500 14.575,23.906 15.232,23.912 16.028 C 23.914 16.400,23.893 16.503,23.747 16.813 C 23.538 17.261,23.178 17.618,22.720 17.834 C 22.263 18.049,21.691 18.063,21.200 17.869 C 20.809 17.714,20.352 17.276,20.144 16.856 C 20.016 16.597,20.000 16.506,20.000 16.014 C 20.000 15.527,20.016 15.431,20.138 15.191 C 20.422 14.631,21.029 14.150,21.547 14.076 C 21.980 14.013,22.455 14.077,22.809 14.246 M9.467 21.043 C 9.408 21.057,9.228 21.094,9.067 21.126 C 7.854 21.368,6.608 22.499,6.217 23.713 L 6.130 23.985 4.438 24.011 C 2.568 24.039,2.563 24.040,2.251 24.396 C 1.857 24.844,1.995 25.570,2.532 25.877 C 2.741 25.996,2.789 26.000,4.458 26.018 L 6.169 26.037 6.284 26.392 C 6.446 26.893,6.750 27.327,7.324 27.876 C 7.899 28.426,8.354 28.680,9.067 28.851 C 11.042 29.324,13.073 28.244,13.762 26.354 L 13.880 26.030 21.567 26.015 C 30.052 25.998,29.380 26.027,29.717 25.671 C 29.900 25.478,29.973 25.280,29.973 24.981 C 29.973 24.705,29.886 24.512,29.671 24.313 C 29.346 24.012,29.859 24.032,21.581 24.001 L 13.908 23.973 13.792 23.653 C 13.380 22.514,12.392 21.567,11.227 21.194 C 10.899 21.089,10.658 21.053,10.187 21.038 C 9.849 21.027,9.525 21.029,9.467 21.043 M10.375 23.045 C 10.986 23.158,11.461 23.501,11.784 24.064 C 11.939 24.336,11.946 24.371,11.946 24.987 C 11.946 25.602,11.939 25.638,11.784 25.909 C 11.559 26.302,11.248 26.595,10.868 26.775 C 9.425 27.457,7.822 26.237,8.092 24.663 C 8.236 23.819,8.783 23.238,9.600 23.060 C 9.980 22.977,10.004 22.976,10.375 23.045 " fill="#1A1C1F" stroke="none" fill-rule="evenodd"></path></svg>