<svg width="24" height="24" viewBox="0 0 24 24" fill="none" xmlns="http://www.w3.org/2000/svg"><path d="M15.460 3.081 C 14.785 3.142,13.930 3.545,13.350 4.077 C 12.854 4.532,12.369 5.285,12.198 5.868 L 12.149 6.035 7.444 6.050 C 3.885 6.061,2.704 6.077,2.592 6.114 C 2.398 6.178,2.142 6.472,2.057 6.728 C 1.890 7.233,2.215 7.856,2.702 7.963 C 2.834 7.992,4.438 8.016,7.510 8.035 C 10.337 8.053,12.133 8.079,12.153 8.102 C 12.171 8.123,12.236 8.275,12.298 8.440 C 12.655 9.395,13.320 10.121,14.260 10.581 C 14.926 10.907,15.239 10.977,16.040 10.978 C 16.610 10.979,16.747 10.966,17.040 10.885 C 18.305 10.538,19.385 9.553,19.781 8.388 L 19.895 8.051 20.538 8.028 C 20.891 8.016,21.252 7.985,21.340 7.959 C 21.658 7.866,22.000 7.380,22.000 7.020 C 22.000 6.677,21.696 6.211,21.409 6.116 C 21.327 6.089,20.957 6.056,20.587 6.043 L 19.914 6.020 19.784 5.675 C 19.487 4.883,18.951 4.196,18.265 3.723 C 17.926 3.490,17.282 3.209,16.940 3.145 C 16.546 3.071,15.887 3.043,15.460 3.081 M16.423 5.083 C 16.878 5.167,17.408 5.537,17.680 5.961 C 18.072 6.571,18.072 7.469,17.681 8.079 C 17.519 8.330,17.139 8.684,16.913 8.793 C 16.489 8.997,15.993 9.049,15.523 8.938 C 15.169 8.855,14.903 8.702,14.621 8.420 C 13.791 7.592,13.818 6.323,14.681 5.546 C 15.160 5.116,15.747 4.960,16.423 5.083 M7.422 13.042 C 6.444 13.196,5.406 13.841,4.819 14.660 C 4.597 14.970,4.309 15.523,4.217 15.813 L 4.145 16.040 3.535 16.040 C 2.721 16.040,2.559 16.077,2.316 16.320 C 2.124 16.512,2.000 16.795,2.000 17.040 C 2.000 17.399,2.338 17.854,2.680 17.956 C 2.779 17.985,3.143 18.021,3.489 18.036 C 3.835 18.050,4.133 18.079,4.151 18.101 C 4.170 18.122,4.252 18.313,4.334 18.525 C 5.137 20.597,7.675 21.571,9.747 20.601 C 10.714 20.149,11.458 19.338,11.782 18.384 L 11.898 18.043 16.519 18.030 C 20.352 18.019,21.166 18.007,21.293 17.961 C 21.480 17.892,21.779 17.636,21.870 17.465 C 21.960 17.296,21.960 16.750,21.870 16.577 C 21.793 16.431,21.520 16.176,21.368 16.109 C 21.287 16.073,20.099 16.058,16.573 16.048 L 11.885 16.036 11.798 15.768 C 11.389 14.518,10.261 13.459,8.980 13.122 C 8.610 13.024,7.796 12.983,7.422 13.042 M8.423 15.084 C 9.379 15.259,10.120 16.314,9.970 17.286 C 9.879 17.876,9.428 18.532,8.950 18.772 C 8.350 19.073,7.650 19.073,7.050 18.772 C 6.578 18.536,6.128 17.886,6.032 17.301 C 5.874 16.352,6.581 15.305,7.520 15.096 C 7.802 15.033,8.123 15.029,8.423 15.084 " fill="#1A1C1F" stroke="none" fill-rule="evenodd"></path></svg>