<svg width="20" height="20" viewBox="0 0 20 20" fill="none" xmlns="http://www.w3.org/2000/svg"><path d="M12.462 4.069 C 11.559 4.202,10.617 4.948,10.221 5.844 L 10.137 6.033 6.431 6.033 L 2.725 6.033 2.549 6.134 C 2.108 6.386,1.920 6.807,2.049 7.252 C 2.146 7.586,2.351 7.821,2.675 7.967 C 2.812 8.030,2.932 8.032,6.488 8.033 L 10.159 8.033 10.215 8.175 C 10.393 8.626,10.896 9.225,11.355 9.532 C 12.297 10.163,13.614 10.159,14.591 9.524 C 15.043 9.230,15.420 8.805,15.683 8.294 L 15.814 8.041 16.515 8.028 C 17.204 8.016,17.220 8.014,17.407 7.923 C 17.638 7.810,17.871 7.560,17.931 7.362 C 17.990 7.167,17.984 6.817,17.918 6.633 C 17.852 6.451,17.675 6.263,17.446 6.131 L 17.275 6.033 16.539 6.033 L 15.802 6.033 15.668 5.752 C 15.276 4.932,14.451 4.259,13.645 4.103 C 13.412 4.057,12.682 4.037,12.462 4.069 M13.416 6.137 C 14.016 6.436,14.130 7.297,13.628 7.749 C 13.156 8.173,12.419 8.047,12.098 7.487 C 12.011 7.334,12.001 7.286,12.000 7.023 C 12.000 6.648,12.105 6.432,12.392 6.212 C 12.646 6.019,13.111 5.984,13.416 6.137 M6.533 10.071 C 5.966 10.120,5.243 10.501,4.810 10.980 C 4.613 11.198,4.391 11.539,4.267 11.816 L 4.169 12.033 3.447 12.033 L 2.725 12.033 2.547 12.135 C 2.286 12.284,2.119 12.491,2.049 12.750 C 1.947 13.125,2.047 13.467,2.336 13.739 C 2.592 13.979,2.704 14.007,3.507 14.025 L 4.197 14.041 4.256 14.193 C 4.343 14.423,4.599 14.795,4.853 15.065 C 5.174 15.405,5.577 15.661,6.041 15.820 L 6.417 15.949 7.000 15.949 L 7.583 15.949 7.937 15.827 C 8.132 15.760,8.401 15.640,8.536 15.561 C 8.996 15.291,9.576 14.633,9.746 14.190 L 9.806 14.033 13.461 14.033 L 17.117 14.033 17.292 13.951 C 17.497 13.856,17.760 13.604,17.846 13.421 C 17.937 13.228,17.953 12.939,17.885 12.727 C 17.796 12.449,17.691 12.318,17.441 12.169 L 17.213 12.033 13.522 12.033 L 9.832 12.033 9.718 11.783 C 9.563 11.444,9.300 11.071,9.054 10.843 C 8.653 10.472,8.085 10.168,7.669 10.103 C 7.388 10.059,6.854 10.044,6.533 10.071 M7.432 12.099 C 7.620 12.195,7.826 12.409,7.910 12.595 C 8.017 12.832,8.008 13.165,7.889 13.408 C 7.775 13.641,7.551 13.844,7.326 13.919 C 7.106 13.992,6.736 13.971,6.550 13.875 C 6.279 13.734,6.066 13.430,6.015 13.112 C 5.946 12.681,6.276 12.163,6.696 12.044 C 6.906 11.984,7.259 12.011,7.432 12.099 " fill="#1A1C1F" stroke="none" fill-rule="evenodd"></path></svg>