<svg xmlns="http://www.w3.org/2000/svg" width="32" height="32" fill="none"><g clip-path="url(#a)"><path fill="#1A1C1F" fill-rule="evenodd" d="M12 2c5.531 0 10 4.469 10 10 0 2.406-.844 4.594-2.25 6.344l9.969 9.937A1 1 0 0 1 30 29c0 .563-.469 1-1.031 1a.94.94 0 0 1-.688-.281l-9.937-9.969C16.594 21.156 14.406 22 12 22 6.469 22 2 17.53 2 12A9.99 9.99 0 0 1 12 2m0 2c-4.406 0-8 3.594-8 8s3.594 8 8 8 8-3.594 8-8-3.594-8-8-8m4 7c.531 0 1 .469 1 1s-.469 1-1 1H8c-.531 0-1-.469-1-1s.469-1 1-1z" clip-rule="evenodd"/></g><defs><clipPath id="a"><path fill="#fff" d="M0 0h32v32H0z"/></clipPath></defs></svg>