<svg width="20" height="20" viewBox="0 0 20 20" fill="none" xmlns="http://www.w3.org/2000/svg"><path d="M7.850 2.101 C 6.319 2.377,5.016 3.065,3.973 4.148 C 2.853 5.311,2.223 6.668,2.031 8.333 C 1.983 8.748,2.008 9.646,2.080 10.067 C 2.274 11.215,2.718 12.270,3.379 13.158 C 4.471 14.626,6.026 15.581,7.852 15.904 C 8.472 16.014,9.526 16.014,10.144 15.905 C 11.145 15.727,11.956 15.410,12.858 14.844 L 13.206 14.625 14.712 16.123 C 16.211 17.616,16.412 17.803,16.633 17.919 C 16.797 18.005,17.238 18.005,17.400 17.919 C 17.702 17.758,17.859 17.568,17.952 17.248 C 18.023 17.002,17.996 16.740,17.878 16.538 C 17.831 16.458,17.080 15.674,16.210 14.796 L 14.628 13.200 14.704 13.075 C 14.746 13.006,14.839 12.860,14.910 12.750 C 15.195 12.311,15.560 11.469,15.750 10.813 C 16.267 9.036,15.960 6.952,14.938 5.304 C 14.098 3.950,12.716 2.862,11.208 2.368 C 10.427 2.111,10.101 2.062,9.100 2.048 C 8.327 2.036,8.171 2.043,7.850 2.101 M9.865 4.103 C 10.394 4.170,11.329 4.555,11.891 4.938 C 12.272 5.198,12.840 5.782,13.119 6.200 C 13.718 7.099,13.976 7.935,13.978 8.983 C 13.979 9.825,13.844 10.418,13.486 11.150 C 13.213 11.707,12.936 12.095,12.500 12.532 C 11.782 13.252,10.968 13.691,9.955 13.905 C 9.497 14.001,8.493 14.009,8.068 13.919 C 7.460 13.790,6.723 13.485,6.225 13.154 C 5.828 12.890,5.177 12.241,4.901 11.833 C 4.512 11.257,4.198 10.489,4.097 9.867 C 4.040 9.515,4.053 8.330,4.117 8.017 C 4.421 6.522,5.408 5.231,6.765 4.551 C 7.278 4.294,7.876 4.112,8.350 4.067 C 8.661 4.037,9.508 4.058,9.865 4.103 M8.000 7.000 L 8.000 8.000 7.000 8.000 L 6.000 8.000 6.000 9.000 L 6.000 10.000 7.000 10.000 L 8.000 10.000 8.000 11.000 L 8.000 12.000 8.575 12.000 C 8.891 12.000,9.341 12.010,9.575 12.022 L 10.000 12.044 10.000 11.022 L 10.000 10.000 11.000 10.000 L 12.000 10.000 12.000 9.000 L 12.000 8.000 11.000 8.000 L 10.000 8.000 10.000 7.000 L 10.000 6.000 9.000 6.000 L 8.000 6.000 8.000 7.000 " fill="#1A1C1F" stroke="none" fill-rule="evenodd"></path></svg>