<svg xmlns="http://www.w3.org/2000/svg" width="12" height="12" fill="none"><g clip-path="url(#a)"><path fill="#1A1C1F" fill-rule="evenodd" d="M5.4 1.2c2.322 0 4.2 1.878 4.2 4.2a4.26 4.26 0 0 1-.83 2.512l1.854 1.854a.6.6 0 0 1 .176.43.604.604 0 0 1-.585.604c-.156 0-.293-.059-.45-.176L7.913 8.771A4.17 4.17 0 0 1 5.4 9.6a4.197 4.197 0 0 1-4.2-4.2c0-2.322 1.878-4.2 4.2-4.2m-.005 1.21A2.973 2.973 0 0 0 2.41 5.395 2.99 2.99 0 0 0 5.395 8.4 3.006 3.006 0 0 0 8.4 5.395 2.99 2.99 0 0 0 5.395 2.41M6 3.6H4.8v1.2H3.6V6h1.2v1.2l1.2.01V6h1.2V4.8H6z" clip-rule="evenodd"/></g><defs><clipPath id="a"><path fill="#fff" d="M0 0h12v12H0z"/></clipPath></defs></svg>