<svg width="28" height="28" viewBox="0 0 28 28" fill="none" xmlns="http://www.w3.org/2000/svg"><path d="M9.263 1.846 C 7.910 2.053,6.737 2.509,5.600 3.272 C 3.684 4.558,2.413 6.475,1.906 8.843 C 1.808 9.303,1.797 9.476,1.797 10.500 C 1.797 11.523,1.808 11.697,1.906 12.157 C 2.671 15.742,5.258 18.329,8.843 19.094 C 9.305 19.192,9.473 19.203,10.523 19.202 C 11.638 19.201,11.715 19.195,12.250 19.069 C 13.469 18.782,14.498 18.346,15.423 17.723 C 15.706 17.533,15.964 17.361,15.998 17.341 C 16.040 17.316,17.433 18.677,20.502 21.739 C 23.819 25.049,24.980 26.181,25.084 26.204 C 25.161 26.221,25.249 26.242,25.280 26.252 C 25.311 26.261,25.443 26.241,25.574 26.207 C 25.840 26.138,26.065 25.954,26.162 25.726 C 26.239 25.548,26.246 25.210,26.177 25.029 C 26.150 24.958,24.143 22.910,21.716 20.479 C 18.664 17.421,17.316 16.040,17.341 15.998 C 17.361 15.964,17.533 15.706,17.723 15.423 C 18.346 14.498,18.782 13.469,19.069 12.250 C 19.195 11.715,19.201 11.638,19.202 10.523 C 19.203 9.479,19.192 9.303,19.095 8.843 C 18.718 7.056,17.890 5.518,16.654 4.308 C 15.892 3.562,15.190 3.063,14.303 2.637 C 13.186 2.099,12.346 1.887,11.073 1.820 C 9.988 1.763,9.790 1.766,9.263 1.846 M11.160 3.548 C 12.795 3.712,14.223 4.387,15.403 5.553 C 16.633 6.770,17.295 8.193,17.455 9.966 C 17.511 10.581,17.465 11.335,17.335 11.954 C 17.155 12.811,16.737 13.755,16.202 14.513 C 15.823 15.052,15.043 15.841,14.534 16.203 C 12.637 17.549,10.193 17.859,8.003 17.029 C 7.098 16.687,6.336 16.182,5.575 15.422 C 3.838 13.688,3.161 11.325,3.707 8.907 C 4.467 5.544,7.721 3.204,11.160 3.548 M10.103 6.234 C 9.915 6.332,9.806 6.436,9.714 6.603 C 9.648 6.723,9.634 6.952,9.621 8.173 L 9.606 9.603 8.175 9.622 C 6.603 9.643,6.576 9.648,6.330 9.940 C 5.921 10.427,6.184 11.203,6.804 11.334 C 6.953 11.366,7.562 11.387,8.332 11.387 L 9.613 11.387 9.613 12.777 C 9.613 14.126,9.616 14.173,9.718 14.375 C 9.835 14.606,10.046 14.768,10.330 14.845 C 10.662 14.934,11.053 14.756,11.261 14.421 C 11.359 14.263,11.364 14.202,11.379 12.825 L 11.394 11.393 12.802 11.378 C 14.370 11.362,14.374 11.361,14.644 11.033 C 14.925 10.692,14.939 10.303,14.682 9.966 C 14.447 9.658,14.368 9.643,12.798 9.622 L 11.387 9.603 11.385 8.313 C 11.382 6.944,11.358 6.690,11.213 6.493 C 10.988 6.191,10.434 6.061,10.103 6.234 " fill="#1A1C1F" stroke="none" fill-rule="evenodd"></path></svg>