<svg xmlns="http://www.w3.org/2000/svg" width="12" height="12" fill="none"><g clip-path="url(#a)"><path fill="#1A1C1F" fill-rule="evenodd" d="M5.4 1.2c2.327 0 4.2 1.87 4.2 4.2 0 .951-.323 1.814-.835 2.509l1.852 1.854c.122.122.183.28.183.427 0 .342-.28.61-.585.61a.62.62 0 0 1-.45-.17L7.912 8.774c-.707.5-1.575.825-2.513.825a4.204 4.204 0 0 1-4.2-4.2c0-2.33 1.885-4.2 4.2-4.2m-.004 1.208A2.97 2.97 0 0 0 2.42 5.396c0 1.66 1.317 3 2.976 3a3.01 3.01 0 0 0 3.013-3c0-1.659-1.354-2.988-3.013-2.988M7.2 4.8V6H3.6V4.8z" clip-rule="evenodd"/></g><defs><clipPath id="a"><path fill="#fff" d="M0 0h12v12H0z"/></clipPath></defs></svg>