<svg width="32" height="32" viewBox="0 0 32 32" fill="none" xmlns="http://www.w3.org/2000/svg"><path d="M10.587 2.107 C 9.011 2.357,7.696 2.870,6.400 3.740 C 4.210 5.209,2.758 7.400,2.179 10.107 C 2.066 10.632,2.053 10.830,2.053 12.000 C 2.053 13.169,2.067 13.368,2.179 13.893 C 3.053 17.990,6.010 20.947,10.107 21.821 C 10.632 21.933,10.831 21.947,12.000 21.947 C 13.169 21.947,13.368 21.933,13.893 21.821 C 14.710 21.647,15.651 21.329,16.365 20.986 C 16.948 20.705,17.924 20.107,18.175 19.877 L 18.296 19.765 18.733 20.189 C 18.973 20.423,21.222 22.653,23.731 25.147 C 26.240 27.640,28.399 29.752,28.528 29.840 C 28.708 29.962,28.817 29.997,28.989 29.991 C 29.352 29.977,29.738 29.738,29.898 29.429 C 29.986 29.262,29.997 28.816,29.919 28.612 C 29.890 28.534,27.796 26.390,25.266 23.847 C 22.736 21.304,20.464 19.015,20.216 18.760 L 19.765 18.296 19.877 18.175 C 20.349 17.661,21.161 16.120,21.487 15.120 C 21.884 13.904,21.947 13.480,21.947 12.000 C 21.947 10.830,21.934 10.632,21.821 10.107 C 21.242 7.398,19.781 5.200,17.579 3.725 C 16.304 2.870,14.769 2.274,13.493 2.136 C 12.608 2.041,11.100 2.026,10.587 2.107 M13.387 4.139 C 16.285 4.632,18.835 6.902,19.644 9.707 C 19.970 10.835,20.061 12.266,19.875 13.333 C 19.592 14.952,18.803 16.451,17.599 17.653 C 16.667 18.584,15.728 19.171,14.532 19.568 C 13.497 19.911,13.179 19.961,12.000 19.961 C 10.823 19.961,10.502 19.911,9.476 19.570 C 6.026 18.425,3.725 14.960,4.050 11.398 C 4.154 10.263,4.403 9.345,4.843 8.470 C 5.995 6.183,8.215 4.524,10.640 4.139 C 10.933 4.092,11.269 4.044,11.387 4.033 C 11.752 3.996,12.912 4.058,13.387 4.139 M8.587 11.034 C 7.731 11.064,7.637 11.077,7.452 11.192 C 6.964 11.496,6.874 12.173,7.263 12.617 C 7.611 13.013,7.276 12.987,12.000 12.987 C 16.724 12.987,16.389 13.013,16.737 12.617 C 17.137 12.161,17.034 11.478,16.520 11.179 L 16.293 11.048 12.907 11.024 C 11.044 11.011,9.100 11.016,8.587 11.034 " fill="#1A1C1F" stroke="none" fill-rule="evenodd"></path></svg>