<svg xmlns="http://www.w3.org/2000/svg" width="28" height="28" fill="none"><g clip-path="url(#a)"><path fill="#1A1C1F" fill-rule="evenodd" d="M10.5 1.75a8.74 8.74 0 0 1 8.75 8.75c0 2.105-.738 4.02-1.969 5.523l8.723 8.723c.191.192.246.41.246.629 0 .52-.383.875-.848.875-.218 0-.465-.055-.656-.246l-8.723-8.723A8.67 8.67 0 0 1 10.5 19.25a8.74 8.74 0 0 1-8.75-8.75 8.74 8.74 0 0 1 8.75-8.75m0 1.75c-3.855 0-7 3.145-7 7s3.145 7 7 7 7-3.145 7-7-3.145-7-7-7m0 2.625c.383 0 .875.273.875.875v2.625H14c.492 0 .875.383.875.875 0 .41-.383.875-.875.875h-2.625V14a.864.864 0 0 1-.875.875c-.437 0-.875-.383-.875-.766v-2.734H7a.864.864 0 0 1-.875-.875c0-.41.246-.875.875-.875h2.625V7c0-.492.383-.875.875-.875" clip-rule="evenodd"/></g><defs><clipPath id="a"><path fill="#fff" d="M0 0h28v28H0z"/></clipPath></defs></svg>