<svg xmlns="http://www.w3.org/2000/svg" width="32" height="32" fill="none"><path fill="#1A1C1F" fill-rule="evenodd" d="M10.933 2.058c-.073.012-.313.048-.533.079-1.323.188-2.781.766-4.005 1.588-2.312 1.554-3.86 4.018-4.294 6.84-.113.733-.113 2.137 0 2.87.68 4.419 4.045 7.784 8.464 8.464.733.113 2.136.113 2.875 0 1.544-.237 3.121-.87 4.331-1.74.285-.205.537-.372.56-.372s2.298 2.257 5.056 5.016 5.06 5.043 5.118 5.075c.568.315 1.327-.015 1.46-.634.056-.263.024-.54-.087-.739-.032-.058-2.316-2.361-5.075-5.118s-5.016-5.033-5.016-5.056.167-.275.372-.56c.87-1.21 1.503-2.787 1.739-4.331.113-.735.113-2.138 0-2.88-.651-4.284-3.862-7.599-8.144-8.407-.427-.08-2.497-.151-2.821-.095m1.909 1.998c1.803.194 3.398.947 4.71 2.222q2.126 2.066 2.403 5.027c.213 2.279-.579 4.523-2.19 6.203-1.175 1.225-2.508 1.968-4.196 2.341-.767.169-2.371.169-3.138 0-1.684-.372-3.009-1.11-4.193-2.336a7.89 7.89 0 0 1-2.193-6.208q.277-2.961 2.403-5.027c1.727-1.679 4.025-2.478 6.394-2.222M11.76 7.035a.97.97 0 0 0-.718.687c-.032.115-.055.841-.055 1.731v1.534H9.464c-.969 0-1.612.022-1.766.061-.934.235-.916 1.649.024 1.91.115.032.841.055 1.731.055h1.534v1.614c0 1.43.01 1.634.093 1.796.211.414.747.658 1.185.538.298-.081.61-.384.689-.669.036-.132.059-.791.059-1.745v-1.534h1.539c1.005 0 1.602-.021 1.72-.06.248-.083.52-.346.647-.626.235-.522-.099-1.154-.683-1.289-.115-.027-.887-.049-1.716-.05l-1.507-.001V9.412c0-1.687-.016-1.812-.282-2.096a1.06 1.06 0 0 0-.971-.281"/></svg>