<svg xmlns="http://www.w3.org/2000/svg" width="16" height="16" fill="none"><g clip-path="url(#a)"><path fill="#1A1C1F" fill-rule="evenodd" d="M7.2 1.6c3.103 0 5.6 2.494 5.6 5.6 0 1.269-.43 2.418-1.113 3.345l2.47 2.473a.82.82 0 0 1 .243.569c0 .455-.374.813-.78.813a.82.82 0 0 1-.6-.228L10.55 11.7c-.942.667-2.1 1.1-3.35 1.1-3.086 0-5.6-2.51-5.6-5.6 0-3.106 2.514-5.6 5.6-5.6m-.005 1.61a3.957 3.957 0 0 0-3.969 3.985c0 2.212 1.757 4 3.969 4s4.017-1.788 4.017-4S9.407 3.21 7.195 3.21M9.6 6.4V8H4.8V6.4z" clip-rule="evenodd"/></g><defs><clipPath id="a"><path fill="#fff" d="M0 0h16v16H0z"/></clipPath></defs></svg>