<svg xmlns="http://www.w3.org/2000/svg" width="14" height="14" fill="none"><g clip-path="url(#a)"><path fill="#1A1C1F" fill-rule="evenodd" d="M6.3 1.4c2.709 0 4.9 2.191 4.9 4.9a4.97 4.97 0 0 1-.967 2.93l2.162 2.163a.7.7 0 0 1 .205.501c0 .387-.319.706-.683.706-.182 0-.341-.068-.524-.205l-2.162-2.162A4.87 4.87 0 0 1 6.3 11.2a4.896 4.896 0 0 1-4.9-4.9c0-2.709 2.191-4.9 4.9-4.9m-.006 1.411a3.47 3.47 0 0 0-3.483 3.483A3.49 3.49 0 0 0 6.294 9.8 3.507 3.507 0 0 0 9.8 6.294a3.49 3.49 0 0 0-3.506-3.483M7 4.2H5.6v1.4H4.2V7h1.4v1.4l1.4.011V7h1.4V5.6H7z" clip-rule="evenodd"/></g><defs><clipPath id="a"><path fill="#fff" d="M0 0h14v14H0z"/></clipPath></defs></svg>