<svg xmlns="http://www.w3.org/2000/svg" width="14" height="14" fill="none"><g clip-path="url(#a)"><path fill="#1A1C1F" fill-rule="evenodd" d="M6.3 1.4c2.715 0 4.9 2.182 4.9 4.9 0 1.11-.377 2.116-.974 2.927l2.16 2.163a.72.72 0 0 1 .214.498c0 .399-.327.712-.682.712a.72.72 0 0 1-.526-.2l-2.16-2.162c-.825.583-1.838.962-2.932.962-2.7 0-4.9-2.196-4.9-4.9 0-2.718 2.2-4.9 4.9-4.9m-.004 1.409a3.46 3.46 0 0 0-3.473 3.487c0 1.935 1.537 3.5 3.473 3.5a3.51 3.51 0 0 0 3.515-3.5c0-1.936-1.58-3.487-3.515-3.487M8.4 5.6V7H4.2V5.6z" clip-rule="evenodd"/></g><defs><clipPath id="a"><path fill="#fff" d="M0 0h14v14H0z"/></clipPath></defs></svg>