<svg xmlns="http://www.w3.org/2000/svg" width="28" height="28" fill="none"><g clip-path="url(#a)"><path fill="#1A1C1F" fill-rule="evenodd" d="M10.5 1.75a8.74 8.74 0 0 1 8.75 8.75c0 2.105-.738 4.02-1.969 5.55l8.723 8.696a.87.87 0 0 1 .246.629c0 .492-.41.875-.902.875a.82.82 0 0 1-.602-.246l-8.695-8.723A8.8 8.8 0 0 1 10.5 19.25a8.74 8.74 0 0 1-8.75-8.75 8.74 8.74 0 0 1 8.75-8.75m0 1.75c-3.855 0-7 3.145-7 7s3.145 7 7 7 7-3.145 7-7-3.145-7-7-7M14 9.625a.9.9 0 0 1 .875.875.9.9 0 0 1-.875.875H7a.9.9 0 0 1-.875-.875A.9.9 0 0 1 7 9.625z" clip-rule="evenodd"/></g><defs><clipPath id="a"><path fill="#fff" d="M0 0h28v28H0z"/></clipPath></defs></svg>