<svg xmlns="http://www.w3.org/2000/svg" width="32" height="32" fill="none"><g clip-path="url(#a)"><path fill="#1A1C1F" fill-rule="evenodd" d="M12 2a9.99 9.99 0 0 1 10 10 9.9 9.9 0 0 1-2.25 6.313l9.969 9.968A.96.96 0 0 1 30 29c0 .594-.437 1-.969 1-.25 0-.531-.062-.75-.281l-9.968-9.969A9.9 9.9 0 0 1 12 22 9.99 9.99 0 0 1 2 12 9.99 9.99 0 0 1 12 2m0 2c-4.406 0-8 3.594-8 8s3.594 8 8 8 8-3.594 8-8-3.594-8-8-8m0 3c.438 0 1 .313 1 1v3h3c.563 0 1 .438 1 1 0 .469-.437 1-1 1h-3v3c0 .563-.437 1-1 1-.5 0-1-.437-1-.875V13H8c-.562 0-1-.437-1-1 0-.469.281-1 1-1h3V8c0-.562.438-1 1-1" clip-rule="evenodd"/></g><defs><clipPath id="a"><path fill="#fff" d="M0 0h32v32H0z"/></clipPath></defs></svg>