<svg width="12" height="12" viewBox="0 0 12 12" fill="none" xmlns="http://www.w3.org/2000/svg"><path d="M5.000 1.222 C 3.649 1.360,2.458 2.124,1.767 3.295 C 1.339 4.021,1.129 4.984,1.220 5.810 C 1.376 7.229,2.200 8.451,3.445 9.110 C 3.841 9.319,4.274 9.464,4.740 9.544 C 5.106 9.607,5.708 9.607,6.066 9.543 C 6.364 9.490,6.670 9.407,6.893 9.319 C 7.131 9.226,7.549 9.014,7.740 8.891 L 7.910 8.782 8.750 9.617 C 9.975 10.836,9.917 10.789,10.200 10.788 C 10.398 10.787,10.493 10.749,10.619 10.619 C 10.832 10.400,10.855 10.084,10.675 9.855 C 10.630 9.797,10.245 9.399,9.821 8.970 C 9.397 8.541,8.989 8.126,8.915 8.047 L 8.780 7.904 8.922 7.677 C 9.439 6.849,9.670 5.903,9.579 4.997 C 9.477 3.986,9.052 3.103,8.327 2.400 C 7.890 1.974,7.424 1.677,6.874 1.472 C 6.302 1.258,5.584 1.162,5.000 1.222 M5.668 2.440 C 6.106 2.468,6.393 2.552,6.822 2.775 C 7.350 3.049,7.783 3.486,8.057 4.019 C 8.195 4.287,8.264 4.470,8.331 4.750 C 8.375 4.930,8.380 4.993,8.380 5.383 C 8.380 5.869,8.361 6.011,8.252 6.334 C 8.170 6.577,8.037 6.846,7.883 7.079 C 7.752 7.278,7.354 7.688,7.160 7.823 C 6.696 8.148,6.186 8.337,5.661 8.381 C 4.287 8.495,3.044 7.688,2.594 6.388 C 2.462 6.006,2.450 5.923,2.450 5.380 C 2.451 4.913,2.453 4.881,2.504 4.688 C 2.637 4.190,2.854 3.777,3.174 3.416 C 3.729 2.791,4.464 2.442,5.270 2.423 C 5.325 2.422,5.504 2.430,5.668 2.440 M3.600 5.400 L 3.600 6.000 5.400 6.000 L 7.200 6.000 7.200 5.400 L 7.200 4.800 5.400 4.800 L 3.600 4.800 3.600 5.400 " fill="#1A1C1F" stroke="none" fill-rule="evenodd"></path></svg>