<svg xmlns="http://www.w3.org/2000/svg" width="32" height="32" fill="none"><path fill="#1A1C1F" fill-rule="evenodd" d="M10.933 2.058c-.073.012-.313.048-.533.079-1.323.188-2.781.766-4.005 1.588-2.312 1.554-3.86 4.018-4.294 6.84-.113.733-.113 2.137 0 2.87.68 4.42 4.05 7.789 8.464 8.463.736.113 2.141.113 2.87.001a10.4 10.4 0 0 0 3.11-.993c.525-.263 1.521-.894 1.644-1.042.035-.042.091-.077.124-.077s2.34 2.278 5.127 5.062c4.569 4.566 5.089 5.069 5.296 5.123.437.115.958-.141 1.185-.581.09-.177.079-.652-.02-.838-.044-.084-2.338-2.409-5.098-5.166s-5.016-5.041-5.016-5.074.035-.089.077-.124c.148-.123.779-1.119 1.042-1.644.5-.999.825-2.016.993-3.11.112-.729.112-2.133-.001-2.875-.426-2.801-1.985-5.285-4.293-6.835a10.1 10.1 0 0 0-3.853-1.572c-.425-.08-2.496-.15-2.819-.095m1.932 2.001c1.861.2 3.54 1.027 4.862 2.395 1.324 1.37 2.05 2.955 2.229 4.863.212 2.267-.584 4.516-2.191 6.191-1.175 1.225-2.508 1.968-4.196 2.341-.767.169-2.371.169-3.138 0-1.684-.372-3.009-1.11-4.193-2.336a7.89 7.89 0 0 1-2.193-6.208q.277-2.961 2.403-5.027c1.735-1.687 4.019-2.477 6.417-2.219m-5.079 6.977c-.416.129-.629.337-.748.735-.138.461.189 1.031.676 1.177.314.094 8.258.094 8.572 0 .487-.146.814-.716.676-1.177-.094-.313-.241-.5-.5-.639l-.222-.119-4.16-.009c-2.288-.005-4.22.009-4.294.032"/></svg>