<svg xmlns="http://www.w3.org/2000/svg" width="20" height="20" fill="none"><g clip-path="url(#a)"><path fill="#1A1C1F" fill-rule="evenodd" d="M9 2c3.878 0 7 3.117 7 7a7.03 7.03 0 0 1-1.39 4.182l3.085 3.09c.203.203.305.468.305.712 0 .569-.467 1.016-.975 1.016-.264 0-.537-.071-.75-.285l-3.087-3.09C12.01 15.46 10.563 16 9 16c-3.858 0-7-3.137-7-7 0-3.883 3.142-7 7-7m-.006 2.013c-2.765 0-4.961 2.216-4.961 4.98 0 2.766 2.196 5.002 4.96 5.002 2.766 0 5.022-2.236 5.022-5.001S11.76 4.013 8.994 4.013M12 8v2H6V8z" clip-rule="evenodd"/></g><defs><clipPath id="a"><path fill="#fff" d="M0 0h20v20H0z"/></clipPath></defs></svg>