<svg width="14" height="14" viewBox="0 0 14 14" fill="none" xmlns="http://www.w3.org/2000/svg"><path d="M5.495 1.471 C 4.430 1.662,3.515 2.144,2.788 2.897 C 1.999 3.714,1.557 4.664,1.422 5.833 C 1.388 6.124,1.406 6.752,1.456 7.047 C 1.592 7.850,1.903 8.589,2.365 9.211 C 3.513 10.753,5.404 11.476,7.294 11.095 C 7.859 10.981,8.445 10.740,8.995 10.394 L 9.245 10.238 10.298 11.286 C 10.878 11.863,11.399 12.372,11.457 12.418 C 11.638 12.561,11.706 12.586,11.912 12.586 C 12.126 12.586,12.240 12.540,12.386 12.394 C 12.528 12.252,12.585 12.107,12.587 11.888 C 12.588 11.724,12.580 11.688,12.521 11.587 C 12.480 11.518,12.022 11.038,11.346 10.357 L 10.239 9.241 10.293 9.153 C 10.322 9.105,10.387 9.002,10.437 8.925 C 10.558 8.738,10.779 8.278,10.882 8.001 C 11.284 6.914,11.304 5.851,10.943 4.754 C 10.386 3.064,8.947 1.818,7.159 1.478 C 7.024 1.452,6.782 1.439,6.358 1.433 C 5.831 1.426,5.718 1.430,5.495 1.471 M6.930 2.873 C 7.136 2.904,7.592 3.059,7.850 3.185 C 8.847 3.673,9.552 4.612,9.743 5.705 C 9.797 6.014,9.799 6.585,9.747 6.872 C 9.628 7.526,9.346 8.109,8.904 8.615 C 8.401 9.191,7.743 9.571,6.968 9.733 C 6.649 9.800,5.944 9.806,5.653 9.744 C 4.628 9.527,3.772 8.906,3.270 8.015 C 3.117 7.742,2.973 7.382,2.916 7.124 C 2.858 6.860,2.814 6.301,2.832 6.032 C 2.869 5.448,3.063 4.868,3.381 4.394 C 3.972 3.512,4.923 2.928,5.903 2.846 C 6.157 2.825,6.707 2.839,6.930 2.873 M5.600 4.900 L 5.600 5.600 4.900 5.600 L 4.200 5.600 4.200 6.300 L 4.200 7.000 4.900 7.000 L 5.600 7.000 5.600 7.700 L 5.600 8.400 6.003 8.400 C 6.224 8.400,6.539 8.407,6.703 8.415 L 7.000 8.431 7.000 7.715 L 7.000 7.000 7.700 7.000 L 8.400 7.000 8.400 6.300 L 8.400 5.600 7.700 5.600 L 7.000 5.600 7.000 4.900 L 7.000 4.200 6.300 4.200 L 5.600 4.200 5.600 4.900 " fill="#1A1C1F" stroke="none" fill-rule="evenodd"></path></svg>