<svg width="28" height="28" viewBox="0 0 28 28" fill="none" xmlns="http://www.w3.org/2000/svg"><path d="M9.263 1.844 C 7.884 2.063,6.734 2.511,5.600 3.272 C 3.684 4.558,2.413 6.475,1.906 8.843 C 1.808 9.303,1.797 9.476,1.797 10.500 C 1.797 11.523,1.808 11.697,1.906 12.157 C 2.671 15.742,5.258 18.329,8.843 19.094 C 9.303 19.192,9.477 19.203,10.500 19.203 C 11.523 19.203,11.697 19.192,12.157 19.094 C 12.871 18.941,13.695 18.663,14.319 18.363 C 14.830 18.117,15.684 17.594,15.903 17.392 L 16.009 17.295 16.391 17.666 C 16.601 17.870,18.570 19.822,20.765 22.003 C 22.960 24.185,24.849 26.033,24.962 26.110 C 25.119 26.216,25.215 26.248,25.366 26.242 C 25.683 26.230,26.020 26.021,26.161 25.751 C 26.237 25.604,26.248 25.214,26.179 25.035 C 26.154 24.967,24.311 23.080,22.084 20.843 C 19.858 18.605,17.870 16.602,17.666 16.391 L 17.295 16.009 17.392 15.903 C 17.594 15.684,18.117 14.830,18.363 14.319 C 18.663 13.695,18.941 12.871,19.094 12.157 C 19.192 11.697,19.203 11.523,19.203 10.500 C 19.203 9.476,19.192 9.303,19.094 8.843 C 18.588 6.479,17.299 4.540,15.383 3.259 C 14.263 2.510,12.922 1.989,11.807 1.869 C 11.032 1.786,9.712 1.773,9.263 1.844 M11.713 3.622 C 14.249 4.053,16.481 6.039,17.189 8.493 C 17.473 9.481,17.553 10.733,17.390 11.667 C 17.219 12.652,16.791 13.673,16.193 14.524 C 15.824 15.051,15.041 15.843,14.534 16.203 C 12.637 17.549,10.193 17.859,8.003 17.029 C 7.098 16.687,6.336 16.182,5.575 15.422 C 3.838 13.688,3.161 11.325,3.707 8.907 C 4.100 7.171,5.186 5.637,6.743 4.622 C 7.680 4.011,8.745 3.649,9.963 3.529 C 10.283 3.497,11.298 3.551,11.713 3.622 M7.490 9.654 C 6.766 9.681,6.681 9.693,6.520 9.793 C 6.093 10.059,6.015 10.652,6.356 11.040 C 6.660 11.386,6.367 11.363,10.500 11.363 C 14.633 11.363,14.340 11.386,14.644 11.040 C 14.995 10.641,14.905 10.044,14.455 9.782 L 14.257 9.666 11.270 9.646 C 9.627 9.634,7.926 9.638,7.490 9.654 " fill="#1A1C1F" stroke="none" fill-rule="evenodd"></path></svg>