<svg width="32" height="32" viewBox="0 0 32 32" fill="none" xmlns="http://www.w3.org/2000/svg"><path d="M10.587 2.110 C 9.040 2.346,7.700 2.868,6.400 3.740 C 4.210 5.209,2.758 7.400,2.179 10.107 C 2.066 10.632,2.053 10.830,2.053 12.000 C 2.053 13.169,2.067 13.368,2.179 13.893 C 3.053 17.990,6.010 20.947,10.107 21.821 C 10.635 21.934,10.825 21.946,12.027 21.945 C 13.275 21.943,13.399 21.934,13.977 21.801 C 15.337 21.489,16.569 20.967,17.627 20.255 C 17.949 20.037,18.245 19.841,18.283 19.818 C 18.331 19.790,19.931 21.353,23.430 24.844 C 27.228 28.634,28.548 29.921,28.667 29.947 C 28.755 29.966,28.856 29.991,28.891 30.002 C 28.927 30.013,29.078 29.990,29.228 29.951 C 29.531 29.873,29.789 29.662,29.900 29.402 C 29.987 29.197,29.995 28.812,29.916 28.604 C 29.885 28.522,27.591 26.182,24.818 23.404 C 21.311 19.891,19.789 18.332,19.818 18.283 C 19.841 18.245,20.038 17.949,20.256 17.627 C 20.965 16.575,21.465 15.394,21.794 14.000 C 21.937 13.389,21.944 13.301,21.945 12.027 C 21.947 10.510,21.884 10.078,21.487 8.880 C 20.494 5.882,18.188 3.558,15.191 2.538 C 14.309 2.237,13.763 2.139,12.655 2.080 C 11.415 2.015,11.189 2.018,10.587 2.110 M13.339 4.131 C 15.696 4.542,17.714 5.962,18.952 8.080 C 19.867 9.644,20.201 11.813,19.811 13.662 C 19.503 15.129,18.729 16.525,17.599 17.653 C 16.667 18.584,15.728 19.171,14.532 19.568 C 13.497 19.911,13.179 19.961,12.000 19.961 C 10.823 19.961,10.502 19.911,9.476 19.570 C 6.026 18.425,3.725 14.960,4.050 11.398 C 4.154 10.263,4.403 9.345,4.843 8.470 C 5.995 6.183,8.216 4.523,10.640 4.139 C 10.933 4.092,11.257 4.044,11.360 4.032 C 11.696 3.992,12.880 4.051,13.339 4.131 M11.547 7.124 C 11.331 7.236,11.206 7.355,11.101 7.547 C 11.026 7.683,11.011 7.946,10.996 9.341 L 10.979 10.975 9.343 10.997 C 7.546 11.021,7.516 11.026,7.234 11.361 C 6.766 11.917,7.068 12.803,7.776 12.953 C 7.946 12.989,8.642 13.013,9.523 13.013 L 10.987 13.013 10.987 14.602 C 10.987 16.144,10.990 16.198,11.107 16.428 C 11.240 16.693,11.481 16.878,11.806 16.965 C 12.185 17.067,12.632 16.864,12.870 16.481 C 12.982 16.300,12.987 16.231,13.004 14.657 L 13.021 13.020 14.631 13.003 C 16.422 12.985,16.427 12.984,16.737 12.609 C 17.057 12.220,17.073 11.775,16.779 11.390 C 16.510 11.037,16.421 11.021,14.627 10.996 L 13.013 10.974 13.011 9.501 C 13.009 7.936,12.981 7.646,12.814 7.421 C 12.558 7.075,11.925 6.927,11.547 7.124 " fill="#1A1C1F" stroke="none" fill-rule="evenodd"></path></svg>