<svg xmlns="http://www.w3.org/2000/svg" width="24" height="24" fill="none"><g clip-path="url(#a)"><path fill="#1A1C1F" fill-rule="evenodd" d="M10 2.001c4.438 0 8.031 3.594 8.031 8a8 8 0 0 1-1.687 4.938l5.375 5.344c.187.203.281.46.281.718 0 .579-.425.998-.992.998-.222 0-.444-.071-.633-.216l-5.437-5.438A8 8 0 0 1 10 18.033c-4.406 0-8-3.594-8-8.032 0-4.406 3.594-8 8-8m0 2c-3.312 0-6 2.688-6 6 0 3.344 2.688 6.032 6 6.032A6.015 6.015 0 0 0 16.031 10c0-3.312-2.687-6-6.031-6m3 5H7c-.562 0-1 .438-1 1s.438 1 1 1h6c.563 0 1.031-.437 1.031-1s-.469-1-1.031-1" clip-rule="evenodd"/></g><defs><clipPath id="a"><path fill="#fff" d="M0 0h24v24H0z"/></clipPath></defs></svg>