<svg width="14" height="14" viewBox="0 0 14 14" fill="none" xmlns="http://www.w3.org/2000/svg"><path d="M5.927 1.414 C 4.291 1.564,2.885 2.448,2.061 3.844 C 1.562 4.691,1.317 5.814,1.423 6.778 C 1.612 8.494,2.633 9.955,4.165 10.700 C 5.234 11.220,6.436 11.333,7.583 11.022 C 8.019 10.904,8.627 10.632,9.030 10.374 L 9.228 10.247 10.313 11.325 C 10.910 11.918,11.450 12.437,11.514 12.478 C 11.665 12.578,11.786 12.608,11.963 12.592 C 12.212 12.569,12.413 12.422,12.525 12.182 C 12.640 11.935,12.616 11.704,12.453 11.496 C 12.401 11.430,11.958 10.971,11.470 10.477 C 10.981 9.983,10.505 9.498,10.412 9.400 L 10.243 9.222 10.409 8.957 C 10.831 8.279,11.089 7.539,11.176 6.755 C 11.262 5.984,11.113 5.073,10.775 4.305 C 10.113 2.801,8.682 1.712,7.035 1.459 C 6.803 1.423,6.127 1.396,5.927 1.414 M6.895 2.870 C 7.358 2.930,7.976 3.194,8.413 3.520 C 8.646 3.694,8.940 3.989,9.123 4.234 C 9.393 4.595,9.647 5.169,9.740 5.628 C 9.766 5.758,9.777 5.945,9.777 6.296 C 9.777 6.845,9.753 7.015,9.627 7.390 C 9.182 8.712,7.977 9.664,6.605 9.778 C 5.347 9.882,4.132 9.308,3.435 8.280 C 3.309 8.095,3.110 7.698,3.034 7.478 C 2.888 7.062,2.863 6.913,2.852 6.393 C 2.837 5.680,2.912 5.320,3.196 4.748 C 3.381 4.376,3.551 4.138,3.841 3.843 C 4.401 3.275,5.131 2.913,5.845 2.847 C 6.079 2.826,6.644 2.838,6.895 2.870 M4.200 6.300 L 4.200 7.000 6.300 7.000 L 8.400 7.000 8.400 6.300 L 8.400 5.600 6.300 5.600 L 4.200 5.600 4.200 6.300 " fill="#1A1C1F" stroke="none" fill-rule="evenodd"></path></svg>