<svg xmlns="http://www.w3.org/2000/svg" width="20" height="20" fill="none"><g clip-path="url(#a)"><path fill="#1A1C1F" fill-rule="evenodd" d="M9 2c3.87 0 7 3.13 7 7 0 1.594-.537 3.016-1.382 4.187l3.09 3.09c.194.194.292.455.292.715 0 .553-.455 1.008-.976 1.008-.26 0-.487-.098-.748-.293l-3.089-3.09A6.96 6.96 0 0 1 9 16c-3.87 0-7-3.13-7-7s3.13-7 7-7m-.008 2.016a4.955 4.955 0 0 0-4.976 4.976C4.016 11.756 6.228 14 8.992 14A5.01 5.01 0 0 0 14 8.992c0-2.764-2.244-4.976-5.008-4.976M10 6H8v2H6v2h2v2l2 .016V10h2V8h-2z" clip-rule="evenodd"/></g><defs><clipPath id="a"><path fill="#fff" d="M0 0h20v20H0z"/></clipPath></defs></svg>