<svg width="16" height="16" viewBox="0 0 16 16" fill="none" xmlns="http://www.w3.org/2000/svg"><path d="M6.280 1.681 C 5.118 1.892,4.158 2.374,3.337 3.160 C 1.587 4.833,1.107 7.422,2.144 9.587 C 2.429 10.181,2.715 10.598,3.155 11.059 C 4.013 11.957,5.040 12.503,6.283 12.723 C 6.777 12.811,7.622 12.811,8.115 12.724 C 8.916 12.582,9.638 12.298,10.315 11.860 L 10.564 11.699 11.768 12.898 C 12.431 13.558,13.027 14.140,13.093 14.192 C 13.301 14.356,13.378 14.384,13.613 14.384 C 13.859 14.384,13.988 14.332,14.156 14.164 C 14.317 14.003,14.383 13.837,14.385 13.587 C 14.386 13.399,14.377 13.358,14.310 13.243 C 14.264 13.165,13.735 12.610,12.968 11.837 L 11.702 10.560 11.763 10.460 C 11.797 10.405,11.871 10.288,11.928 10.200 C 12.156 9.848,12.448 9.175,12.600 8.650 C 13.064 7.055,12.698 5.185,11.651 3.810 C 10.845 2.752,9.646 1.999,8.320 1.719 C 8.019 1.655,7.919 1.647,7.280 1.638 C 6.660 1.629,6.537 1.634,6.280 1.681 M7.892 3.282 C 8.148 3.315,8.655 3.485,8.990 3.651 C 9.410 3.860,9.692 4.061,10.013 4.385 C 11.024 5.402,11.414 6.804,11.066 8.179 C 10.889 8.882,10.520 9.515,9.975 10.053 C 9.414 10.607,8.758 10.956,7.964 11.124 C 7.609 11.199,6.768 11.206,6.453 11.136 C 5.847 11.002,5.254 10.737,4.819 10.406 C 4.616 10.252,4.168 9.800,4.013 9.594 C 3.664 9.130,3.366 8.440,3.278 7.895 C 3.234 7.616,3.244 6.658,3.294 6.411 C 3.537 5.217,4.326 4.185,5.412 3.641 C 5.832 3.431,6.309 3.287,6.693 3.254 C 6.960 3.231,7.610 3.247,7.892 3.282 M6.400 5.600 L 6.400 6.400 5.600 6.400 L 4.800 6.400 4.800 7.200 L 4.800 8.000 5.600 8.000 L 6.400 8.000 6.400 8.800 L 6.400 9.600 6.900 9.600 C 7.175 9.600,7.535 9.608,7.700 9.618 L 8.000 9.635 8.000 8.817 L 8.000 8.000 8.800 8.000 L 9.600 8.000 9.600 7.200 L 9.600 6.400 8.800 6.400 L 8.000 6.400 8.000 5.600 L 8.000 4.800 7.200 4.800 L 6.400 4.800 6.400 5.600 " fill="#1A1C1F" stroke="none" fill-rule="evenodd"></path></svg>