<svg width="24" height="24" viewBox="0 0 24 24" fill="none" xmlns="http://www.w3.org/2000/svg"><path d="M9.260 2.045 C 7.227 2.237,5.284 3.240,3.957 4.783 C 1.599 7.525,1.356 11.460,3.362 14.443 C 4.862 16.673,7.351 18.002,10.028 18.000 C 11.642 17.999,13.160 17.523,14.577 16.576 C 14.845 16.396,14.906 16.371,14.977 16.407 C 15.022 16.431,16.275 17.661,17.760 19.141 C 19.245 20.620,20.517 21.860,20.586 21.894 C 21.034 22.120,21.644 21.902,21.885 21.430 C 22.002 21.201,22.021 20.935,21.942 20.657 L 21.874 20.420 19.113 17.674 L 16.352 14.929 16.590 14.574 C 17.425 13.332,17.859 12.124,18.002 10.640 C 18.177 8.828,17.602 6.804,16.477 5.280 C 16.163 4.854,15.244 3.932,14.820 3.618 C 13.214 2.425,11.217 1.860,9.260 2.045 M10.358 4.041 C 11.074 4.084,11.432 4.155,12.077 4.380 C 12.593 4.561,12.845 4.687,13.303 4.993 C 14.030 5.480,14.624 6.082,15.098 6.810 C 15.520 7.461,15.786 8.152,15.925 8.967 C 16.041 9.649,16.016 10.693,15.867 11.320 C 15.588 12.496,15.064 13.423,14.182 14.300 C 12.633 15.841,10.293 16.390,8.160 15.712 C 7.250 15.423,6.527 14.974,5.797 14.243 C 5.056 13.501,4.617 12.793,4.303 11.830 C 4.103 11.219,4.040 10.774,4.040 9.978 C 4.040 9.188,4.095 8.802,4.295 8.194 C 4.621 7.200,5.050 6.500,5.775 5.775 C 6.733 4.817,7.799 4.283,9.200 4.062 C 9.634 3.993,9.586 3.994,10.358 4.041 M9.652 6.066 C 9.451 6.137,9.194 6.376,9.082 6.597 C 9.005 6.747,9.000 6.828,9.000 7.874 L 9.000 8.991 7.870 9.009 C 7.159 9.020,6.699 9.044,6.630 9.072 C 6.483 9.133,6.169 9.426,6.089 9.578 C 6.002 9.742,6.006 10.207,6.096 10.420 C 6.182 10.621,6.334 10.783,6.540 10.892 C 6.690 10.971,6.774 10.977,7.847 10.993 L 8.994 11.009 9.007 12.154 C 9.021 13.428,9.018 13.412,9.307 13.686 C 9.543 13.910,9.703 13.977,10.000 13.977 C 10.301 13.978,10.482 13.904,10.702 13.690 C 10.969 13.431,10.977 13.388,10.992 12.133 L 11.006 11.006 12.153 10.993 C 13.248 10.980,13.308 10.976,13.466 10.891 C 13.691 10.771,13.870 10.545,13.946 10.284 C 14.053 9.918,13.954 9.558,13.674 9.294 C 13.403 9.040,13.379 9.036,12.138 9.011 L 11.005 8.988 10.993 7.844 C 10.980 6.743,10.977 6.694,10.889 6.529 C 10.778 6.323,10.536 6.140,10.266 6.060 C 10.021 5.987,9.871 5.988,9.652 6.066 " fill="#1A1C1F" stroke="none" fill-rule="evenodd"></path></svg>