<svg width="12" height="12" viewBox="0 0 12 12" fill="none" xmlns="http://www.w3.org/2000/svg"><path d="M4.710 1.260 C 3.789 1.426,3.011 1.838,2.384 2.489 C 1.712 3.187,1.334 4.001,1.219 5.000 C 1.190 5.249,1.205 5.788,1.248 6.040 C 1.365 6.729,1.631 7.362,2.027 7.895 C 3.101 9.337,4.920 9.932,6.658 9.407 C 6.932 9.325,7.405 9.101,7.708 8.911 L 7.924 8.775 8.827 9.674 C 9.727 10.569,9.847 10.682,9.980 10.752 C 10.078 10.803,10.343 10.803,10.440 10.751 C 10.621 10.655,10.715 10.541,10.771 10.349 C 10.814 10.202,10.798 10.044,10.727 9.924 C 10.699 9.876,10.249 9.405,9.726 8.878 L 8.776 7.920 8.816 7.855 C 8.837 7.819,8.907 7.705,8.971 7.600 C 9.291 7.077,9.517 6.402,9.579 5.783 C 9.664 4.943,9.477 4.090,9.040 3.313 C 8.718 2.741,8.170 2.179,7.580 1.815 C 7.204 1.583,6.706 1.388,6.240 1.289 C 6.014 1.241,5.939 1.235,5.460 1.229 C 4.996 1.222,4.902 1.226,4.710 1.260 M5.940 2.463 C 6.116 2.489,6.507 2.621,6.729 2.730 C 7.579 3.146,8.175 3.936,8.351 4.880 C 8.398 5.133,8.400 5.640,8.354 5.890 C 8.275 6.326,8.088 6.774,7.837 7.130 C 7.680 7.353,7.343 7.692,7.127 7.845 C 6.795 8.081,6.390 8.255,5.973 8.342 C 5.702 8.399,5.118 8.405,4.856 8.353 C 4.497 8.283,4.040 8.095,3.735 7.893 C 3.477 7.721,3.096 7.335,2.915 7.060 C 2.786 6.864,2.636 6.552,2.562 6.325 C 2.460 6.014,2.440 5.859,2.440 5.387 C 2.440 4.911,2.457 4.788,2.570 4.447 C 2.933 3.355,3.970 2.521,5.070 2.439 C 5.299 2.422,5.749 2.434,5.940 2.463 M4.800 4.200 L 4.800 4.800 4.200 4.800 L 3.600 4.800 3.600 5.400 L 3.600 6.000 4.200 6.000 L 4.800 6.000 4.800 6.600 L 4.800 7.200 5.145 7.200 C 5.335 7.200,5.605 7.206,5.745 7.213 L 6.000 7.226 6.000 6.613 L 6.000 6.000 6.600 6.000 L 7.200 6.000 7.200 5.400 L 7.200 4.800 6.600 4.800 L 6.000 4.800 6.000 4.200 L 6.000 3.600 5.400 3.600 L 4.800 3.600 4.800 4.200 " fill="#1A1C1F" stroke="none" fill-rule="evenodd"></path></svg>