<svg xmlns="http://www.w3.org/2000/svg" width="24" height="24" fill="none"><g clip-path="url(#a)"><path fill="#1A1C1F" fill-rule="evenodd" d="M10 2c4.438 0 8.031 3.588 8.031 7.988a7.97 7.97 0 0 1-1.687 4.93l5.375 5.335a.99.99 0 0 1 .281.717c0 .656-.531 1.03-1.031 1.03-.219 0-.469-.094-.688-.312l-5.343-5.367A8 8 0 0 1 10 18.006c-4.406 0-8-3.588-8-8.018C2 5.588 5.594 2 10 2m0 1.997c-3.312 0-6 2.683-6 5.99 0 3.34 2.688 6.022 6 6.022a6.01 6.01 0 0 0 6.031-6.021c0-3.308-2.687-5.991-6.031-5.991m0 9.998c.563 0 1-.45 1-1.012V11h2c.625 0 1-.468 1-.998s-.437-.999-1-.999L11 9V6.93c0-.5-.469-.936-1-.936s-1 .437-1 .998v2.011H7c-.625 0-1 .498-1 .997 0 .562.438 1 1 1h2v2.014c0 .53.438.981 1 .981" clip-rule="evenodd"/></g><defs><clipPath id="a"><path fill="#fff" d="M0 0h24v24H0z"/></clipPath></defs></svg>