<svg width="16" height="16" viewBox="0 0 16 16" fill="none" xmlns="http://www.w3.org/2000/svg"><path d="M6.653 1.629 C 4.448 1.869,2.615 3.321,1.908 5.387 C 1.632 6.191,1.544 7.001,1.642 7.837 C 1.908 10.129,3.553 12.023,5.787 12.610 C 6.315 12.749,6.621 12.786,7.213 12.785 C 7.803 12.784,8.177 12.734,8.705 12.586 C 9.202 12.446,9.869 12.145,10.320 11.856 L 10.546 11.710 11.786 12.943 C 12.469 13.620,13.086 14.213,13.158 14.261 C 13.331 14.374,13.470 14.409,13.672 14.391 C 13.957 14.365,14.187 14.197,14.314 13.923 C 14.445 13.639,14.418 13.375,14.232 13.140 C 14.172 13.064,13.586 12.458,12.928 11.793 C 12.271 11.128,11.733 10.567,11.733 10.545 C 11.733 10.524,11.825 10.353,11.938 10.167 C 12.203 9.726,12.350 9.409,12.508 8.933 C 12.827 7.970,12.881 7.065,12.680 6.067 C 12.344 4.407,11.262 2.991,9.739 2.218 C 9.196 1.942,8.611 1.754,8.027 1.666 C 7.676 1.614,6.970 1.595,6.653 1.629 M7.905 3.284 C 8.381 3.344,9.139 3.668,9.587 4.000 C 10.069 4.359,10.473 4.834,10.743 5.358 C 10.926 5.715,11.018 5.961,11.109 6.333 C 11.167 6.574,11.173 6.657,11.173 7.177 C 11.173 7.825,11.148 8.014,11.003 8.445 C 10.493 9.960,9.108 11.051,7.540 11.174 C 6.090 11.288,4.725 10.642,3.926 9.463 C 3.680 9.101,3.446 8.559,3.327 8.080 C 3.250 7.767,3.228 6.874,3.290 6.520 C 3.491 5.355,4.203 4.331,5.231 3.731 C 5.642 3.491,6.223 3.298,6.667 3.254 C 6.929 3.228,7.596 3.244,7.905 3.284 M4.800 7.200 L 4.800 8.000 7.200 8.000 L 9.600 8.000 9.600 7.200 L 9.600 6.400 7.200 6.400 L 4.800 6.400 4.800 7.200 " fill="#1A1C1F" stroke="none" fill-rule="evenodd"></path></svg>