<svg width="24" height="24" viewBox="0 0 24 24" fill="none" xmlns="http://www.w3.org/2000/svg"><path d="M9.120 2.060 C 7.620 2.249,6.231 2.815,5.102 3.698 C 3.473 4.971,2.452 6.697,2.094 8.780 C 1.998 9.339,1.998 10.665,2.095 11.220 C 2.407 13.005,3.150 14.469,4.361 15.679 C 5.569 16.887,7.058 17.644,8.820 17.946 C 9.417 18.049,10.664 18.039,11.289 17.926 C 12.501 17.708,13.521 17.304,14.482 16.662 L 14.934 16.360 17.637 19.053 C 19.227 20.637,20.415 21.789,20.523 21.852 C 21.010 22.137,21.642 21.951,21.885 21.450 C 22.020 21.172,22.013 20.744,21.870 20.528 C 21.814 20.443,20.550 19.147,19.061 17.649 L 16.356 14.925 16.551 14.652 C 16.999 14.028,17.352 13.320,17.618 12.511 C 17.959 11.477,18.071 10.597,18.002 9.511 C 17.927 8.345,17.666 7.393,17.139 6.362 C 16.725 5.552,16.287 4.969,15.575 4.279 C 14.533 3.269,13.363 2.616,11.963 2.261 C 11.074 2.035,9.951 1.956,9.120 2.060 M11.325 4.154 C 12.452 4.418,13.446 4.965,14.239 5.758 C 15.078 6.599,15.593 7.522,15.867 8.680 C 16.003 9.253,16.041 10.392,15.944 10.960 C 15.519 13.432,13.754 15.315,11.340 15.873 C 10.212 16.134,9.162 16.072,8.020 15.678 C 7.273 15.421,6.802 15.148,6.130 14.584 C 5.471 14.031,4.995 13.414,4.617 12.624 C 3.684 10.671,3.843 8.450,5.046 6.640 C 5.357 6.173,6.088 5.427,6.555 5.101 C 7.216 4.640,8.047 4.285,8.860 4.117 C 9.368 4.011,10.810 4.033,11.325 4.154 M7.499 9.036 L 6.617 9.060 6.420 9.202 C 5.825 9.629,5.882 10.507,6.529 10.878 L 6.740 10.999 9.991 11.000 L 13.243 11.000 13.435 10.903 C 13.649 10.794,13.862 10.574,13.945 10.374 C 14.029 10.173,14.015 9.777,13.917 9.574 C 13.825 9.383,13.609 9.176,13.423 9.100 C 13.280 9.041,8.999 8.995,7.499 9.036 " fill="#1A1C1F" stroke="none" fill-rule="evenodd"></path></svg>