<svg xmlns="http://www.w3.org/2000/svg" width="32" height="32" fill="none"><path fill="#1A1C1F" fill-rule="evenodd" d="M13.067 2.114A10.3 10.3 0 0 0 8.24 4.191c-.627.493-.924.788-1.014 1.002-.256.613.15 1.302.799 1.356.402.033.584-.048 1.068-.473 4.108-3.61 10.504-2.327 12.909 2.591.572 1.168.769 1.99.809 3.36.07 2.455-.471 3.748-3.148 7.513-1.345 1.892-1.848 2.876-2.277 4.459-.217.801-.403 1.235-.764 1.777-.67 1.007-1.689 1.73-2.915 2.068-.373.103-.586.126-1.2.127-.821.003-1.222-.071-1.947-.357-.697-.275-1.194-.136-1.468.41-.157.313-.165.514-.031.803.144.31.352.478.828.668 1.303.521 2.826.64 4.151.324 1.297-.308 2.323-.869 3.288-1.795 1.029-.988 1.623-2.034 2.001-3.529.34-1.34.78-2.141 2.515-4.578.425-.597.955-1.379 1.179-1.738 1.677-2.698 2.194-5.339 1.583-8.093a10.16 10.16 0 0 0-2.765-5.049 10.27 10.27 0 0 0-6.053-2.954c-.629-.078-2.115-.061-2.721.031m.255 4.015c-.866.188-1.478.441-2.177.899-1.09.714-1.398 1.203-1.142 1.813.168.403.479.614.904.614.316 0 .485-.079.871-.411 2.076-1.784 5.312-1.167 6.564 1.249.328.633.439 1.055.471 1.793.049 1.137-.185 1.832-1.092 3.248a5 5 0 0 0-.331.576c-.246.648.386 1.405 1.08 1.294.382-.062.558-.22 1.005-.904.96-1.467 1.378-2.677 1.378-3.989.001-1.01-.21-1.871-.694-2.844-.819-1.643-2.236-2.787-4.05-3.267-.707-.187-2.089-.222-2.787-.071"/></svg>