<svg xmlns="http://www.w3.org/2000/svg" width="28" height="28" fill="none"><g clip-path="url(#a)"><path fill="#1A1C1F" fill-rule="evenodd" d="M15.55 14.911a.875.875 0 0 1-.228-1.216c.762-1.114 1.175-1.915 1.175-2.946A3.754 3.754 0 0 0 12.747 7c-.972 0-1.893.37-2.593 1.04a.875.875 0 1 1-1.21-1.263 5.47 5.47 0 0 1 3.802-1.527c3.033 0 5.5 2.467 5.5 5.5 0 1.477-.543 2.561-1.48 3.932a.875.875 0 0 1-1.216.229m3.398 2.75c1.312-1.824 2.8-3.89 2.8-6.91 0-4.963-4.039-9-9-9a8.96 8.96 0 0 0-6.226 2.5.874.874 0 0 0 1.21 1.262A7.22 7.22 0 0 1 12.746 3.5c3.998 0 7.25 3.252 7.25 7.25 0 2.456-1.199 4.123-2.468 5.887-.947 1.319-1.928 2.681-2.318 4.376a4.387 4.387 0 0 1-6.097 3.096.875.875 0 1 0-.723 1.592c.8.363 1.653.548 2.535.548 2.893 0 5.416-2.054 5.994-4.864.307-1.33 1.143-2.493 2.03-3.725z" clip-rule="evenodd"/></g><defs><clipPath id="a"><path fill="#fff" d="M0 0h28v28H0z"/></clipPath></defs></svg>