<svg width="24" height="24" viewBox="0 0 24 24" fill="none" xmlns="http://www.w3.org/2000/svg"><path d="M10.244 2.046 C 8.784 2.198,7.268 2.854,6.150 3.816 C 5.781 4.133,5.655 4.311,5.603 4.587 C 5.483 5.215,5.934 5.772,6.562 5.773 C 6.834 5.773,7.054 5.663,7.483 5.311 C 8.162 4.754,8.822 4.413,9.720 4.156 C 10.144 4.035,11.407 4.002,11.958 4.097 C 12.703 4.226,13.596 4.609,14.205 5.060 C 14.598 5.352,15.075 5.827,15.368 6.220 C 15.846 6.860,16.260 7.871,16.367 8.657 C 16.391 8.839,16.401 9.270,16.389 9.677 C 16.372 10.270,16.352 10.438,16.265 10.751 C 16.048 11.527,15.717 12.173,14.992 13.235 C 13.230 15.816,13.121 16.011,12.718 17.280 C 12.436 18.169,12.285 18.487,11.965 18.867 C 11.417 19.518,10.631 19.920,9.780 19.985 C 9.377 20.016,9.011 19.959,8.434 19.777 C 7.935 19.619,7.658 19.611,7.372 19.747 C 6.926 19.958,6.708 20.581,6.923 21.027 C 7.235 21.670,8.609 22.076,10.085 21.960 C 11.035 21.885,12.019 21.471,12.866 20.790 C 13.663 20.149,14.224 19.254,14.564 18.080 C 14.859 17.064,15.070 16.653,15.945 15.400 C 17.178 13.633,17.550 13.018,17.870 12.217 C 18.568 10.468,18.621 8.816,18.037 7.062 C 16.951 3.807,13.661 1.689,10.244 2.046 M10.100 5.097 C 9.451 5.246,8.738 5.589,8.228 5.998 C 7.690 6.429,7.540 6.791,7.689 7.295 C 7.760 7.536,8.087 7.852,8.328 7.913 C 8.739 8.016,8.966 7.951,9.427 7.597 C 9.888 7.243,10.515 7.000,10.960 7.002 C 11.274 7.004,11.740 7.120,12.073 7.280 C 12.670 7.566,13.174 8.171,13.340 8.801 C 13.541 9.564,13.419 10.090,12.794 11.149 C 12.408 11.804,12.369 12.046,12.588 12.448 C 12.823 12.879,13.329 13.066,13.805 12.898 C 14.031 12.818,14.196 12.657,14.465 12.250 C 15.268 11.034,15.574 9.858,15.378 8.735 C 15.079 7.021,13.882 5.679,12.200 5.172 C 11.897 5.080,11.777 5.068,11.100 5.055 C 10.554 5.046,10.273 5.057,10.100 5.097 " fill="#1A1C1F" stroke="none" fill-rule="evenodd"></path></svg>