<svg xmlns="http://www.w3.org/2000/svg" width="32" height="32" fill="none"><path fill="#1A1C1F" fill-rule="evenodd" d="M28.56 2.056c-.263.135-4.076 3.966-4.191 4.211a.9.9 0 0 0-.002.8c.242.523.812.745 1.313.511q.214-.1 2.219-2.119c1.858-1.869 2.011-2.037 2.067-2.268.033-.138.05-.282.038-.32a4 4 0 0 1-.054-.217c-.039-.178-.313-.499-.515-.603-.196-.102-.673-.099-.875.005m-15.067.058-.533.077c-1.637.235-3.369.988-4.72 2.053-.627.494-.924.788-1.014 1.002a1.004 1.004 0 0 0 .698 1.356c.336.076.659-.033 1.011-.34 1.19-1.038 2.541-1.736 3.915-2.022a8.3 8.3 0 0 1 5.363.677c2.311 1.153 3.904 3.194 4.46 5.713.171.774.198 2.224.056 3.05-.255 1.488-.863 2.785-2.19 4.667l-1.036 1.466c-1.17 1.657-1.709 2.734-2.114 4.228-.303 1.121-.65 1.769-1.322 2.472-.638.668-1.412 1.122-2.36 1.385-.381.105-.578.126-1.227.125-.839 0-1.179-.062-1.908-.35-.577-.227-.936-.198-1.259.104-.183.171-.35.512-.352.718-.003.444.334.828.93 1.058 1.037.401 2.207.576 3.181.476 1.775-.182 3.224-.88 4.447-2.14.925-.953 1.452-1.927 1.812-3.346.336-1.327.807-2.185 2.475-4.516.954-1.332 1.487-2.185 1.927-3.08 1.099-2.235 1.388-4.486.873-6.807a10.31 10.31 0 0 0-8.818-8.004c-.418-.052-1.989-.067-2.295-.022m-.071 4.051c-1.111.201-2.325.81-3.109 1.559-.321.307-.419.552-.374.933.054.461.466.85.907.856.354.005.475-.05.973-.445a4.6 4.6 0 0 1 1.654-.865c.593-.169 1.572-.168 2.18.003 1.47.414 2.552 1.46 3.013 2.914.169.531.208 1.517.083 2.079-.147.658-.419 1.237-1.028 2.188-.424.66-.472.876-.287 1.282a.988.988 0 0 0 1.438.439c.378-.233 1.39-1.968 1.688-2.893 1.044-3.247-.843-6.863-4.104-7.864-.882-.271-2.138-.348-3.034-.186M9.573 21.062c-.145.068-1.366 1.256-3.848 3.746-3.543 3.554-3.636 3.652-3.688 3.907-.03.143-.046.287-.037.32.01.032.032.124.05.204.035.162.305.493.476.585.211.112.484.145.727.086.223-.053.508-.324 3.884-3.69 2.034-2.028 3.689-3.721 3.747-3.831.187-.361.094-.907-.2-1.174-.283-.255-.753-.32-1.111-.153"/></svg>