<svg xmlns="http://www.w3.org/2000/svg" width="32" height="32" fill="none"><g clip-path="url(#a)"><path fill="#1A1C1F" fill-rule="evenodd" d="M17.772 17.042a1 1 0 0 1-.26-1.39c.87-1.274 1.342-2.189 1.342-3.367A4.29 4.29 0 0 0 14.568 8c-1.11 0-2.163.423-2.963 1.19a.997.997 0 0 1-1.624-.359 1 1 0 0 1 .24-1.085A6.26 6.26 0 0 1 14.568 6a6.29 6.29 0 0 1 6.286 6.285c0 1.69-.62 2.928-1.692 4.495a1 1 0 0 1-1.39.262m3.884 3.141c1.5-2.084 3.198-4.445 3.198-7.897 0-5.67-4.614-10.285-10.286-10.285a10.24 10.24 0 0 0-7.114 2.857.999.999 0 1 0 1.384 1.443 8.25 8.25 0 0 1 5.73-2.3c4.57 0 8.286 3.716 8.286 8.284 0 2.808-1.37 4.713-2.82 6.73-1.084 1.506-2.205 3.063-2.65 5a5.013 5.013 0 0 1-6.968 3.538 1 1 0 0 0-1.351.484 1 1 0 0 0 .524 1.336c.91.414 1.898.628 2.897.626 3.307 0 6.19-2.348 6.851-5.559.35-1.519 1.306-2.849 2.32-4.257z" clip-rule="evenodd"/></g><defs><clipPath id="a"><path fill="#fff" d="M0 0h32v32H0z"/></clipPath></defs></svg>