<svg width="20" height="20" viewBox="0 0 20 20" fill="none" xmlns="http://www.w3.org/2000/svg"><path d="M8.242 2.083 C 7.127 2.296,6.169 2.743,5.343 3.438 C 5.040 3.693,4.902 3.870,4.821 4.109 C 4.706 4.447,4.798 4.802,5.072 5.075 C 5.287 5.291,5.489 5.379,5.767 5.379 C 6.038 5.379,6.200 5.308,6.533 5.044 C 7.094 4.599,7.509 4.361,7.994 4.202 C 8.443 4.055,8.717 4.024,9.387 4.041 C 9.912 4.055,10.019 4.068,10.283 4.147 C 11.240 4.436,12.020 5.004,12.551 5.800 C 13.042 6.537,13.229 7.238,13.190 8.208 C 13.148 9.279,12.993 9.599,11.372 11.972 C 10.786 12.829,10.567 13.277,10.315 14.133 C 10.247 14.362,10.151 14.633,10.100 14.733 C 9.806 15.316,9.283 15.739,8.636 15.915 C 8.391 15.982,8.009 15.994,7.483 15.953 C 7.124 15.925,7.111 15.926,6.926 16.014 C 6.576 16.179,6.333 16.543,6.333 16.901 C 6.333 17.205,6.535 17.572,6.790 17.734 C 7.109 17.936,7.955 18.047,8.578 17.969 C 9.256 17.884,9.879 17.654,10.432 17.286 C 11.334 16.686,11.871 15.928,12.218 14.767 C 12.303 14.482,12.438 14.115,12.517 13.950 C 12.664 13.644,13.076 13.003,13.644 12.200 C 14.614 10.828,15.027 9.892,15.185 8.705 C 15.353 7.440,15.032 5.987,14.336 4.868 C 13.610 3.698,12.413 2.747,11.131 2.320 C 10.475 2.101,10.209 2.062,9.300 2.048 C 8.700 2.040,8.419 2.049,8.242 2.083 M8.500 5.099 C 8.032 5.227,7.705 5.394,7.317 5.702 C 7.118 5.860,7.053 5.937,6.963 6.119 C 6.764 6.524,6.828 6.929,7.139 7.241 C 7.346 7.448,7.548 7.533,7.828 7.533 C 8.115 7.533,8.230 7.495,8.492 7.310 C 8.814 7.083,8.979 7.020,9.250 7.022 C 9.534 7.023,9.756 7.123,9.948 7.335 C 10.147 7.556,10.209 7.729,10.195 8.029 C 10.183 8.301,10.170 8.334,9.849 8.917 C 9.692 9.202,9.683 9.229,9.684 9.467 C 9.684 10.194,10.316 10.652,10.999 10.419 C 11.329 10.306,11.666 9.871,11.970 9.168 C 12.159 8.729,12.208 8.489,12.208 8.000 C 12.209 7.547,12.161 7.281,12.011 6.905 C 11.648 5.997,10.803 5.274,9.882 5.084 C 9.535 5.012,8.786 5.020,8.500 5.099 " fill="#1A1C1F" stroke="none" fill-rule="evenodd"></path></svg>