<svg width="28" height="28" viewBox="0 0 28 28" fill="none" xmlns="http://www.w3.org/2000/svg"><path d="M11.783 1.822 C 10.617 1.921,9.301 2.355,8.202 3.002 C 7.335 3.512,6.421 4.279,6.300 4.597 C 6.230 4.780,6.245 4.995,6.342 5.203 C 6.551 5.654,7.012 5.854,7.433 5.677 C 7.516 5.642,7.804 5.437,8.073 5.222 C 8.609 4.793,9.010 4.527,9.472 4.294 C 13.264 2.380,17.921 4.150,19.477 8.097 C 19.842 9.025,19.889 9.283,19.914 10.523 C 19.939 11.757,19.896 12.160,19.669 12.857 C 19.326 13.905,18.789 14.840,17.377 16.847 C 16.018 18.779,15.693 19.396,15.240 20.907 C 14.894 22.056,14.594 22.607,13.980 23.219 C 12.775 24.418,11.119 24.780,9.396 24.219 C 9.081 24.117,8.775 24.033,8.714 24.033 C 8.534 24.033,8.151 24.254,8.035 24.425 C 7.970 24.521,7.918 24.683,7.904 24.834 C 7.854 25.361,8.164 25.663,9.045 25.942 C 10.229 26.318,11.598 26.326,12.748 25.966 C 14.077 25.548,15.285 24.623,16.085 23.409 C 16.442 22.867,16.601 22.473,17.034 21.047 C 17.308 20.142,17.686 19.470,18.884 17.757 C 19.243 17.243,19.684 16.603,19.864 16.333 C 21.751 13.510,22.211 10.771,21.276 7.916 C 20.473 5.465,18.551 3.414,16.134 2.431 C 14.767 1.875,13.406 1.684,11.783 1.822 M11.952 5.322 C 10.973 5.445,9.858 5.963,9.120 6.638 C 8.782 6.947,8.663 7.179,8.691 7.474 C 8.735 7.926,9.100 8.257,9.557 8.259 C 9.803 8.260,9.950 8.187,10.430 7.826 C 11.145 7.289,11.848 7.044,12.693 7.039 C 13.506 7.035,14.041 7.177,14.718 7.579 C 15.367 7.964,16.004 8.757,16.263 9.502 C 16.484 10.135,16.520 11.046,16.352 11.705 C 16.262 12.057,15.951 12.696,15.570 13.311 C 15.400 13.587,15.235 13.905,15.205 14.019 C 15.049 14.599,15.649 15.185,16.240 15.030 C 16.512 14.958,16.693 14.780,17.063 14.222 C 18.234 12.454,18.529 10.771,17.965 9.087 C 17.478 7.633,16.530 6.521,15.213 5.858 C 14.745 5.623,14.197 5.432,13.797 5.367 C 13.373 5.297,12.347 5.272,11.952 5.322 " fill="#1A1C1F" stroke="none" fill-rule="evenodd"></path></svg>