<svg width="28" height="28" viewBox="0 0 28 28" fill="none" xmlns="http://www.w3.org/2000/svg"><path d="M25.013 1.801 C 24.791 1.897,21.465 5.235,21.332 5.495 C 21.220 5.715,21.210 5.843,21.286 6.071 C 21.482 6.657,22.124 6.892,22.582 6.547 C 22.824 6.364,25.227 3.983,25.742 3.416 C 26.232 2.875,26.316 2.696,26.222 2.382 C 26.150 2.144,25.924 1.872,25.730 1.791 C 25.531 1.708,25.219 1.712,25.013 1.801 M11.399 1.911 C 9.900 2.147,8.534 2.727,7.312 3.644 C 6.704 4.101,6.316 4.512,6.272 4.747 C 6.175 5.260,6.611 5.789,7.127 5.786 C 7.376 5.784,7.625 5.655,8.013 5.324 C 10.215 3.452,13.233 3.037,15.816 4.252 C 17.686 5.132,19.221 6.939,19.716 8.847 C 19.890 9.514,19.941 9.990,19.941 10.920 C 19.941 12.207,19.788 12.839,19.197 14.007 C 18.825 14.741,18.342 15.515,17.533 16.673 C 15.986 18.887,15.707 19.406,15.257 20.904 C 14.859 22.232,14.415 22.959,13.615 23.591 C 12.968 24.102,12.199 24.423,11.430 24.502 C 10.778 24.570,10.046 24.496,9.530 24.311 C 8.728 24.024,8.515 24.028,8.172 24.337 C 7.891 24.591,7.816 24.969,7.976 25.322 C 8.132 25.665,8.424 25.823,9.415 26.098 C 9.952 26.247,9.983 26.250,10.920 26.250 C 11.857 26.250,11.888 26.247,12.427 26.097 C 12.729 26.013,13.164 25.864,13.393 25.765 C 14.603 25.243,15.840 24.064,16.403 22.894 C 16.598 22.489,16.701 22.195,17.033 21.093 C 17.314 20.162,17.723 19.457,19.183 17.381 C 20.256 15.856,20.751 14.988,21.164 13.907 C 21.957 11.833,21.931 9.576,21.089 7.467 C 20.039 4.833,17.745 2.814,14.994 2.101 C 14.301 1.921,13.841 1.864,12.903 1.843 C 12.133 1.825,11.870 1.837,11.399 1.911 M12.180 5.350 C 11.254 5.436,10.438 5.740,9.606 6.308 C 8.901 6.790,8.628 7.177,8.697 7.600 C 8.753 7.948,9.061 8.242,9.459 8.328 C 9.661 8.371,9.916 8.253,10.404 7.892 C 10.866 7.549,11.434 7.264,11.853 7.166 C 12.239 7.075,13.172 7.073,13.588 7.161 C 14.752 7.408,15.866 8.406,16.269 9.564 C 16.489 10.197,16.524 11.080,16.356 11.737 C 16.262 12.103,16.006 12.633,15.592 13.316 C 15.408 13.620,15.234 13.956,15.206 14.063 C 15.097 14.476,15.360 14.918,15.794 15.055 C 16.334 15.225,16.645 14.986,17.277 13.916 C 17.691 13.216,17.927 12.678,18.093 12.053 C 18.199 11.655,18.215 11.498,18.219 10.827 C 18.222 10.245,18.204 9.977,18.143 9.730 C 17.851 8.538,17.354 7.636,16.557 6.855 C 15.434 5.755,13.817 5.198,12.180 5.350 M8.409 18.408 C 8.233 18.487,2.146 24.547,1.919 24.869 C 1.667 25.224,1.734 25.699,2.076 25.981 C 2.405 26.252,2.778 26.264,3.116 26.015 C 3.212 25.944,4.689 24.487,6.398 22.777 C 8.871 20.303,9.518 19.630,9.565 19.488 C 9.633 19.282,9.603 18.966,9.496 18.759 C 9.328 18.435,8.757 18.250,8.409 18.408 " fill="#1A1C1F" stroke="none" fill-rule="evenodd"></path></svg>