<svg xmlns="http://www.w3.org/2000/svg" width="16" height="16" fill="none"><g clip-path="url(#a)"><path fill="#1A1C1F" fill-rule="evenodd" d="M8.096 8.26a.8.8 0 0 1-.225-1.11c.27-.406.322-.582.322-.75a.8.8 0 0 0-1.352-.579.8.8 0 0 1-1.107-1.154A2.4 2.4 0 0 1 7.392 4c1.323 0 2.4 1.077 2.4 2.4 0 .619-.235 1.101-.588 1.634a.8.8 0 0 1-1.11.226zm2.65 1.757c.678-.943 1.447-2.012 1.447-3.617 0-2.647-2.153-4.8-4.8-4.8a4.78 4.78 0 0 0-3.32 1.334.8.8 0 1 0 1.107 1.154A3.19 3.19 0 0 1 7.393 3.2c1.765 0 3.2 1.436 3.2 3.2 0 1.09-.557 1.864-1.146 2.684-.488.679-.992 1.38-1.203 2.295-.2.965-1.225 1.605-2.175 1.37a.8.8 0 0 0-.38 1.554q.396.097.807.097c1.6 0 2.993-1.135 3.31-2.68.135-.584.508-1.102.94-1.703" clip-rule="evenodd"/></g><defs><clipPath id="a"><path fill="#fff" d="M0 0h16v16H0z"/></clipPath></defs></svg>