<svg width="14" height="14" viewBox="0 0 14 14" fill="none" xmlns="http://www.w3.org/2000/svg"><path d="M6.043 1.426 C 5.622 1.469,5.171 1.589,4.777 1.763 C 4.187 2.025,3.554 2.494,3.403 2.782 C 3.328 2.923,3.328 3.233,3.403 3.377 C 3.482 3.529,3.584 3.632,3.729 3.703 C 3.838 3.757,3.892 3.768,4.037 3.768 C 4.255 3.768,4.340 3.729,4.647 3.482 C 5.037 3.169,5.372 2.996,5.802 2.888 C 5.982 2.843,6.068 2.836,6.475 2.837 C 6.905 2.838,6.960 2.843,7.170 2.899 C 7.627 3.023,8.101 3.296,8.431 3.626 C 8.665 3.861,8.834 4.102,8.984 4.416 C 9.270 5.015,9.330 5.672,9.158 6.323 C 9.078 6.627,8.828 7.120,8.541 7.537 C 7.522 9.021,7.459 9.134,7.230 9.879 C 7.107 10.278,7.011 10.463,6.819 10.667 C 6.615 10.884,6.382 11.035,6.122 11.120 C 5.930 11.183,5.894 11.187,5.623 11.179 C 4.924 11.159,4.922 11.159,4.803 11.229 C 4.578 11.361,4.446 11.595,4.448 11.857 C 4.450 12.067,4.561 12.281,4.729 12.395 C 5.009 12.587,5.698 12.652,6.247 12.540 C 6.951 12.396,7.575 12.010,8.013 11.448 C 8.294 11.087,8.392 10.884,8.572 10.294 C 8.735 9.760,8.827 9.591,9.404 8.762 C 9.591 8.492,9.817 8.156,9.906 8.015 C 10.466 7.123,10.694 6.328,10.655 5.402 C 10.567 3.299,8.902 1.588,6.783 1.423 C 6.456 1.398,6.320 1.398,6.043 1.426 M5.944 3.569 C 5.614 3.658,5.200 3.896,5.001 4.113 C 4.866 4.259,4.825 4.350,4.812 4.529 C 4.782 4.948,5.086 5.277,5.500 5.276 C 5.690 5.275,5.730 5.260,6.003 5.083 C 6.245 4.925,6.399 4.882,6.581 4.921 C 6.816 4.972,6.977 5.095,7.088 5.308 C 7.135 5.400,7.149 5.460,7.150 5.588 C 7.152 5.763,7.137 5.801,6.882 6.281 C 6.715 6.594,6.737 6.860,6.946 7.094 C 7.237 7.417,7.687 7.421,7.977 7.103 C 8.177 6.885,8.373 6.514,8.486 6.140 C 8.540 5.963,8.547 5.897,8.547 5.600 C 8.548 5.324,8.538 5.227,8.497 5.075 C 8.380 4.645,8.131 4.255,7.810 3.997 C 7.542 3.782,7.213 3.620,6.918 3.558 C 6.680 3.508,6.146 3.514,5.944 3.569 " fill="#1A1C1F" stroke="none" fill-rule="evenodd"></path></svg>