<svg xmlns="http://www.w3.org/2000/svg" width="12" height="12" fill="none"><g clip-path="url(#a)"><path fill="#1A1C1F" fill-rule="evenodd" d="M6.065 6.194a.6.6 0 0 1-.17-.831c.203-.305.243-.437.243-.563a.6.6 0 0 0-1.014-.434.6.6 0 0 1-.831-.866 1.803 1.803 0 0 1 3.045 1.3c0 .464-.177.826-.442 1.226a.6.6 0 0 1-.831.168m1.987 1.319c.509-.707 1.086-1.509 1.086-2.713 0-1.985-1.615-3.6-3.6-3.6a3.58 3.58 0 0 0-2.491 1 .6.6 0 1 0 .83.866A2.403 2.403 0 0 1 7.937 4.8c0 .818-.418 1.397-.86 2.012-.366.51-.744 1.036-.902 1.722-.15.724-.92 1.204-1.632 1.028a.6.6 0 1 0-.285 1.166A2.543 2.543 0 0 0 7.347 8.79c.1-.437.381-.826.705-1.277m2.03-4.747.542-.542a.6.6 0 1 0-.849-.848l-.54.541a.6.6 0 1 0 .848.849m-7.858 7.857 2.601-2.601a.6.6 0 0 0-.848-.849l-2.6 2.603a.6.6 0 0 0 .848.848z" clip-rule="evenodd"/></g><defs><clipPath id="a"><path fill="#fff" d="M0 0h12v12H0z"/></clipPath></defs></svg>