<svg xmlns="http://www.w3.org/2000/svg" width="24" height="24" fill="none"><g clip-path="url(#a)"><path fill="#1A1C1F" fill-rule="evenodd" d="M12.892 12.805a1 1 0 0 1-.265-1.39c.605-.89.81-1.393.81-1.987a2.43 2.43 0 0 0-2.429-2.429 2.42 2.42 0 0 0-1.679.674A1 1 0 1 1 7.945 6.23 4.4 4.4 0 0 1 11.007 5a4.434 4.434 0 0 1 4.43 4.43c0 1.174-.443 2.061-1.157 3.111a1 1 0 0 1-1.388.264m3.273 2.27c1.065-1.48 2.272-3.158 2.272-5.646C18.437 5.332 15.104 2 11.008 2A7.4 7.4 0 0 0 5.87 4.064a1 1 0 0 0 1.384 1.443 5.4 5.4 0 0 1 3.754-1.508 5.436 5.436 0 0 1 5.43 5.43c0 1.843-.92 3.123-1.897 4.478-.768 1.067-1.562 2.172-1.886 3.58a3.164 3.164 0 0 1-4.394 2.232 1 1 0 1 0-.828 1.82c.672.306 1.39.461 2.133.461 2.435 0 4.558-1.729 5.043-4.087.23-.993.874-1.889 1.556-2.838" clip-rule="evenodd"/></g><defs><clipPath id="a"><path fill="#fff" d="M0 0h24v24H0z"/></clipPath></defs></svg>