<svg width="12" height="12" viewBox="0 0 12 12" fill="none" xmlns="http://www.w3.org/2000/svg"><path d="M5.175 1.222 C 4.493 1.288,3.787 1.585,3.228 2.041 C 2.971 2.252,2.881 2.387,2.865 2.591 C 2.850 2.772,2.897 2.912,3.015 3.035 C 3.158 3.186,3.256 3.229,3.450 3.229 C 3.646 3.229,3.708 3.200,3.983 2.979 C 4.297 2.727,4.558 2.592,4.930 2.487 C 5.174 2.418,5.727 2.397,5.976 2.448 C 6.463 2.547,6.871 2.766,7.222 3.118 C 7.494 3.389,7.672 3.670,7.797 4.024 C 7.886 4.278,7.920 4.486,7.920 4.790 C 7.920 5.224,7.859 5.478,7.655 5.899 C 7.560 6.094,7.388 6.359,6.864 7.121 C 6.487 7.669,6.339 7.968,6.190 8.480 C 6.150 8.617,6.086 8.789,6.049 8.860 C 5.870 9.199,5.556 9.450,5.180 9.552 C 5.081 9.579,4.992 9.586,4.810 9.582 C 4.199 9.566,4.218 9.565,4.117 9.625 C 3.774 9.826,3.702 10.253,3.960 10.547 C 4.085 10.689,4.258 10.749,4.631 10.780 C 4.938 10.806,5.291 10.779,5.522 10.712 C 6.233 10.506,6.834 10.007,7.140 9.371 C 7.193 9.260,7.273 9.048,7.318 8.898 C 7.482 8.348,7.522 8.277,8.249 7.230 C 8.851 6.365,9.092 5.742,9.133 4.950 C 9.159 4.435,9.035 3.802,8.811 3.310 C 8.603 2.854,8.256 2.392,7.890 2.084 C 7.116 1.433,6.155 1.128,5.175 1.222 M10.073 1.221 C 9.930 1.245,9.843 1.311,9.489 1.667 C 9.110 2.048,9.070 2.112,9.070 2.340 C 9.071 2.522,9.118 2.638,9.240 2.760 C 9.362 2.882,9.478 2.929,9.660 2.930 C 9.890 2.930,9.950 2.892,10.351 2.491 C 10.717 2.125,10.769 2.051,10.792 1.858 C 10.837 1.468,10.480 1.152,10.073 1.221 M5.063 3.068 C 4.589 3.201,4.182 3.529,4.120 3.829 C 4.079 4.025,4.161 4.249,4.324 4.389 C 4.429 4.478,4.567 4.524,4.731 4.522 C 4.885 4.521,4.979 4.483,5.150 4.352 C 5.290 4.245,5.362 4.220,5.540 4.220 C 5.726 4.220,5.804 4.248,5.927 4.360 C 6.076 4.497,6.126 4.617,6.117 4.819 C 6.110 4.981,6.096 5.015,5.899 5.370 C 5.816 5.520,5.810 5.540,5.810 5.680 C 5.810 6.022,6.053 6.285,6.370 6.288 C 6.523 6.289,6.672 6.238,6.775 6.149 C 6.939 6.009,7.195 5.544,7.281 5.230 C 7.338 5.024,7.342 4.598,7.290 4.390 C 7.206 4.059,7.053 3.793,6.800 3.540 C 6.578 3.318,6.381 3.194,6.099 3.097 C 5.920 3.036,5.893 3.032,5.570 3.027 C 5.263 3.021,5.214 3.025,5.063 3.068 M4.260 7.018 C 4.221 7.026,4.159 7.049,4.122 7.069 C 4.047 7.108,2.026 9.107,1.557 9.606 C 1.292 9.889,1.257 9.934,1.228 10.035 C 1.068 10.585,1.715 11.022,2.160 10.664 C 2.288 10.561,4.242 8.617,4.622 8.214 C 4.909 7.911,4.943 7.867,4.972 7.766 C 5.055 7.481,4.921 7.189,4.649 7.061 C 4.554 7.017,4.363 6.996,4.260 7.018 " fill="#1A1C1F" stroke="none" fill-rule="evenodd"></path></svg>