<svg width="12" height="12" viewBox="0 0 12 12" fill="none" xmlns="http://www.w3.org/2000/svg"><path d="M5.260 1.214 C 5.110 1.225,4.801 1.279,4.599 1.330 C 4.140 1.446,3.626 1.717,3.204 2.066 C 2.948 2.278,2.846 2.463,2.865 2.679 C 2.886 2.904,3.003 3.079,3.196 3.174 C 3.290 3.220,3.336 3.230,3.460 3.230 C 3.648 3.230,3.720 3.196,3.983 2.985 C 4.317 2.716,4.605 2.568,4.973 2.476 C 5.127 2.437,5.201 2.431,5.550 2.432 C 5.919 2.432,5.965 2.436,6.147 2.485 C 6.543 2.592,6.940 2.822,7.229 3.111 C 7.869 3.751,8.095 4.701,7.810 5.552 C 7.733 5.781,7.559 6.106,7.330 6.443 C 6.671 7.417,6.560 7.587,6.476 7.750 C 6.352 7.992,6.297 8.131,6.201 8.451 C 6.097 8.796,6.012 8.965,5.856 9.131 C 5.648 9.353,5.432 9.485,5.150 9.561 C 5.034 9.593,4.794 9.597,4.510 9.572 C 4.273 9.552,4.181 9.571,4.056 9.666 C 3.937 9.757,3.866 9.868,3.828 10.022 C 3.799 10.142,3.799 10.164,3.828 10.278 C 3.866 10.426,3.948 10.553,4.053 10.625 C 4.271 10.774,4.780 10.838,5.220 10.771 C 5.785 10.685,6.249 10.451,6.650 10.050 C 7.008 9.692,7.138 9.469,7.323 8.890 C 7.463 8.452,7.585 8.200,7.820 7.860 C 8.512 6.857,8.731 6.500,8.875 6.136 C 9.071 5.645,9.128 5.338,9.129 4.780 C 9.129 4.431,9.122 4.336,9.083 4.140 C 8.760 2.525,7.440 1.346,5.814 1.220 C 5.577 1.201,5.445 1.200,5.260 1.214 M5.095 3.059 C 4.803 3.138,4.449 3.345,4.274 3.539 C 4.010 3.834,4.095 4.287,4.448 4.461 C 4.554 4.512,4.598 4.523,4.714 4.522 C 4.877 4.522,4.912 4.509,5.145 4.357 C 5.352 4.222,5.485 4.185,5.641 4.218 C 5.842 4.262,5.980 4.366,6.076 4.550 C 6.118 4.630,6.129 4.678,6.129 4.790 C 6.130 4.939,6.117 4.974,5.899 5.383 C 5.756 5.652,5.774 5.880,5.954 6.080 C 6.203 6.357,6.589 6.361,6.838 6.089 C 6.942 5.975,7.086 5.742,7.170 5.553 C 7.458 4.900,7.365 4.195,6.920 3.648 C 6.693 3.371,6.286 3.124,5.930 3.050 C 5.725 3.007,5.268 3.012,5.095 3.059 " fill="#1A1C1F" stroke="none" fill-rule="evenodd"></path></svg>