<svg xmlns="http://www.w3.org/2000/svg" width="14" height="14" fill="none"><g clip-path="url(#a)"><path fill="#1A1C1F" fill-rule="evenodd" d="M7.075 7.227a.7.7 0 0 1-.197-.97c.236-.356.282-.51.282-.657a.7.7 0 0 0-1.183-.506.7.7 0 0 1-.969-1.01A2.1 2.1 0 0 1 6.46 3.5c1.158 0 2.1.943 2.1 2.1 0 .542-.206.964-.515 1.43a.7.7 0 0 1-.97.197m2.32 1.538c.592-.825 1.266-1.76 1.266-3.165 0-2.316-1.885-4.2-4.2-4.2a4.18 4.18 0 0 0-2.907 1.167.7.7 0 1 0 .97 1.01A2.803 2.803 0 0 1 9.258 5.6c0 .954-.487 1.63-1.003 2.348-.427.595-.868 1.208-1.052 2.009-.175.844-1.073 1.404-1.904 1.199a.7.7 0 0 0-.333 1.36 2.967 2.967 0 0 0 3.604-2.261c.117-.51.445-.964.823-1.49m2.367-5.538.633-.632a.7.7 0 0 0-.99-.99l-.631.632a.7.7 0 1 0 .99.99zm-9.168 9.167L5.63 9.359a.7.7 0 0 0-.99-.99l-3.034 3.036a.7.7 0 0 0 .99.99z" clip-rule="evenodd"/></g><defs><clipPath id="a"><path fill="#fff" d="M0 0h14v14H0z"/></clipPath></defs></svg>