<svg width="32" height="32" viewBox="0 0 32 32" fill="none" xmlns="http://www.w3.org/2000/svg"><path d="M28.587 2.058 C 28.307 2.179,24.508 6.008,24.373 6.304 C 24.248 6.580,24.241 6.752,24.345 7.000 C 24.539 7.466,24.958 7.724,25.411 7.657 C 25.620 7.625,25.726 7.553,26.200 7.122 C 26.789 6.585,29.192 4.171,29.643 3.664 C 30.086 3.164,30.116 2.768,29.743 2.316 C 29.469 1.984,29.001 1.879,28.587 2.058 M13.018 2.186 C 11.304 2.455,9.738 3.123,8.333 4.182 C 7.648 4.699,7.219 5.151,7.171 5.405 C 7.024 6.191,7.786 6.838,8.506 6.537 C 8.606 6.495,8.911 6.283,9.184 6.065 C 9.870 5.518,10.262 5.264,10.932 4.929 C 15.016 2.893,20.050 4.635,22.024 8.769 C 22.594 9.962,22.791 10.874,22.793 12.320 C 22.794 13.448,22.715 14.004,22.430 14.853 C 22.025 16.064,21.548 16.897,19.980 19.134 C 18.333 21.484,17.941 22.217,17.440 23.875 C 16.973 25.422,16.477 26.236,15.560 26.961 C 14.193 28.042,12.462 28.320,10.727 27.736 C 9.993 27.489,9.816 27.475,9.522 27.641 C 8.993 27.941,8.826 28.561,9.149 29.022 C 9.367 29.333,9.919 29.609,10.731 29.813 C 12.100 30.156,13.211 30.131,14.549 29.728 C 16.287 29.205,17.938 27.806,18.735 26.180 C 18.968 25.705,19.072 25.411,19.467 24.107 C 19.777 23.085,20.286 22.179,21.581 20.347 C 23.132 18.150,23.620 17.326,24.128 16.039 C 25.096 13.587,25.087 11.002,24.102 8.533 C 22.901 5.522,20.282 3.216,17.136 2.401 C 16.344 2.196,15.818 2.131,14.747 2.106 C 13.863 2.086,13.567 2.099,13.018 2.186 M13.631 6.135 C 12.867 6.256,12.134 6.517,11.440 6.917 C 10.638 7.378,10.018 7.942,9.945 8.275 C 9.888 8.532,9.966 8.881,10.130 9.107 C 10.338 9.395,10.602 9.511,10.985 9.483 C 11.265 9.463,11.332 9.430,11.814 9.074 C 12.419 8.628,13.049 8.306,13.547 8.190 C 13.987 8.086,15.053 8.083,15.529 8.184 C 16.859 8.466,18.133 9.607,18.593 10.931 C 18.846 11.658,18.885 12.642,18.691 13.399 C 18.578 13.842,18.232 14.562,17.795 15.266 C 17.372 15.949,17.285 16.214,17.380 16.532 C 17.468 16.826,17.799 17.151,18.091 17.230 C 18.397 17.314,18.740 17.224,18.980 16.997 C 19.384 16.616,20.307 14.990,20.560 14.216 C 20.937 13.061,20.936 11.707,20.558 10.511 C 19.948 8.578,18.439 7.009,16.613 6.408 C 15.816 6.145,14.392 6.015,13.631 6.135 M9.694 21.034 C 9.572 21.078,9.227 21.359,8.814 21.748 C 7.875 22.633,2.402 28.141,2.219 28.385 C 1.931 28.768,1.944 29.197,2.254 29.574 C 2.455 29.817,2.686 29.920,3.033 29.920 C 3.261 29.920,3.336 29.890,3.582 29.699 C 3.739 29.578,5.443 27.902,7.369 25.974 C 11.175 22.164,11.043 22.319,10.964 21.796 C 10.873 21.191,10.263 20.825,9.694 21.034 " fill="#1A1C1F" stroke="none" fill-rule="evenodd"></path></svg>