<svg xmlns="http://www.w3.org/2000/svg" width="20" height="20" fill="none"><g clip-path="url(#a)"><path fill="#1A1C1F" fill-rule="evenodd" d="M10.108 10.324a1 1 0 0 1-.282-1.386c.337-.51.403-.73.403-.938a1.001 1.001 0 0 0-1.69-.724 1 1 0 0 1-1.384-1.443A2.99 2.99 0 0 1 9.229 5c1.654 0 3 1.346 3 3 0 .773-.294 1.376-.735 2.042a1 1 0 0 1-1.386.282m3.312 2.197c.848-1.18 1.81-2.515 1.81-4.52 0-3.31-2.692-6-6-6a5.97 5.97 0 0 0-4.15 1.666.999.999 0 1 0 1.383 1.443A3.98 3.98 0 0 1 9.229 4c2.206 0 4 1.794 4 4 0 1.362-.696 2.33-1.432 3.354-.61.85-1.24 1.726-1.504 2.87-.249 1.206-1.532 2.005-2.719 1.712a1 1 0 0 0-.476 1.943c.33.08.67.12 1.01.12 2 0 3.741-1.418 4.14-3.35.166-.73.632-1.377 1.172-2.128m3.384-7.912.902-.902a.998.998 0 0 0-.324-1.63 1 1 0 0 0-1.09.216l-.902.902a1 1 0 0 0 1.414 1.414M3.708 17.707l4.335-4.336a1 1 0 1 0-1.414-1.414l-4.335 4.336a1 1 0 0 0 1.414 1.414" clip-rule="evenodd"/></g><defs><clipPath id="a"><path fill="#fff" d="M0 0h20v20H0z"/></clipPath></defs></svg>