<svg width="20" height="20" viewBox="0 0 20 20" fill="none" xmlns="http://www.w3.org/2000/svg"><path d="M8.659 2.037 C 7.504 2.148,6.368 2.611,5.463 3.340 C 4.945 3.756,4.785 4.002,4.785 4.383 C 4.785 4.943,5.235 5.383,5.802 5.379 C 6.051 5.377,6.281 5.265,6.621 4.978 C 7.473 4.262,8.569 3.916,9.620 4.032 C 11.384 4.227,12.782 5.489,13.135 7.206 C 13.225 7.643,13.232 8.324,13.150 8.717 C 12.980 9.534,12.723 10.026,11.692 11.504 C 10.933 12.595,10.619 13.166,10.412 13.833 C 10.214 14.473,10.136 14.681,10.007 14.901 C 9.575 15.639,8.640 16.090,7.792 15.972 C 7.193 15.888,6.942 15.939,6.651 16.205 C 6.427 16.410,6.351 16.592,6.354 16.916 C 6.360 17.599,6.834 17.928,7.897 17.989 C 9.534 18.083,11.168 17.125,11.885 15.651 C 11.988 15.439,12.129 15.065,12.218 14.767 C 12.416 14.103,12.607 13.718,13.100 12.997 C 14.339 11.182,14.513 10.897,14.783 10.238 C 15.437 8.640,15.360 6.841,14.569 5.288 C 14.254 4.670,13.890 4.190,13.328 3.650 C 12.091 2.465,10.373 1.872,8.659 2.037 M16.787 2.035 C 16.547 2.076,16.332 2.241,15.772 2.817 C 15.179 3.426,15.117 3.530,15.119 3.917 C 15.120 4.227,15.186 4.386,15.405 4.605 C 15.604 4.804,15.799 4.882,16.100 4.883 C 16.484 4.884,16.584 4.820,17.252 4.152 C 17.862 3.542,17.949 3.418,17.986 3.097 C 18.062 2.447,17.467 1.919,16.787 2.035 M8.500 5.099 C 7.981 5.240,7.586 5.455,7.235 5.787 C 6.950 6.056,6.852 6.257,6.855 6.567 C 6.858 6.845,6.948 7.051,7.159 7.262 C 7.349 7.452,7.556 7.533,7.851 7.533 C 8.125 7.533,8.229 7.493,8.577 7.253 L 8.871 7.050 9.181 7.039 C 9.535 7.026,9.682 7.077,9.911 7.295 C 10.128 7.501,10.182 7.639,10.183 7.984 C 10.183 8.313,10.180 8.323,9.832 8.950 C 9.693 9.199,9.683 9.233,9.684 9.467 C 9.684 10.188,10.316 10.652,10.987 10.423 C 11.315 10.311,11.587 9.983,11.904 9.318 C 12.148 8.804,12.205 8.554,12.205 7.990 C 12.204 7.486,12.173 7.310,12.010 6.904 C 11.648 5.997,10.803 5.274,9.882 5.084 C 9.535 5.013,8.786 5.020,8.500 5.099 M7.150 11.701 C 7.077 11.713,6.960 11.746,6.891 11.776 C 6.806 11.813,6.170 12.423,4.928 13.657 C 2.864 15.710,2.151 16.452,2.074 16.629 C 1.990 16.823,2.000 17.216,2.094 17.406 C 2.387 18.003,3.099 18.176,3.600 17.773 C 3.813 17.602,7.070 14.361,7.704 13.690 C 8.181 13.185,8.238 13.112,8.287 12.943 C 8.391 12.586,8.291 12.218,8.019 11.954 C 7.796 11.738,7.488 11.648,7.150 11.701 " fill="#1A1C1F" stroke="none" fill-rule="evenodd"></path></svg>