<svg width="16" height="16" viewBox="0 0 16 16" fill="none" xmlns="http://www.w3.org/2000/svg"><path d="M7.080 1.617 C 6.095 1.695,5.249 2.017,4.453 2.615 C 4.172 2.827,3.966 3.038,3.891 3.190 C 3.798 3.378,3.799 3.693,3.893 3.877 C 4.044 4.172,4.347 4.340,4.679 4.313 C 4.883 4.297,4.966 4.255,5.267 4.014 C 5.585 3.759,5.707 3.679,5.989 3.538 C 6.468 3.301,6.789 3.228,7.360 3.227 C 7.852 3.227,8.028 3.252,8.400 3.376 C 9.235 3.655,9.913 4.262,10.292 5.070 C 10.666 5.870,10.675 6.842,10.315 7.666 C 10.151 8.040,9.995 8.292,9.372 9.187 C 8.658 10.212,8.511 10.501,8.201 11.493 C 8.028 12.050,7.615 12.489,7.082 12.682 C 6.814 12.779,6.493 12.815,6.214 12.778 C 5.757 12.717,5.582 12.752,5.363 12.949 C 5.181 13.113,5.111 13.269,5.109 13.520 C 5.107 13.687,5.119 13.745,5.181 13.872 C 5.367 14.249,5.721 14.385,6.520 14.386 C 6.987 14.386,7.186 14.353,7.600 14.207 C 8.072 14.041,8.474 13.791,8.839 13.438 C 9.283 13.008,9.556 12.557,9.746 11.933 C 9.964 11.220,10.061 11.018,10.480 10.409 C 11.487 8.944,11.705 8.576,11.906 8.000 C 12.669 5.813,11.810 3.442,9.836 2.284 C 9.160 1.888,8.534 1.691,7.749 1.628 C 7.418 1.601,7.309 1.599,7.080 1.617 M7.074 4.031 C 6.481 4.095,5.748 4.528,5.560 4.924 C 5.433 5.191,5.493 5.534,5.706 5.768 C 5.877 5.954,6.055 6.036,6.293 6.036 C 6.489 6.037,6.609 5.987,6.912 5.780 C 7.275 5.532,7.664 5.557,7.955 5.848 C 8.109 6.002,8.171 6.160,8.171 6.400 C 8.171 6.598,8.169 6.604,7.961 7.003 C 7.715 7.476,7.691 7.593,7.786 7.847 C 7.857 8.035,8.053 8.246,8.233 8.326 C 8.559 8.472,8.952 8.361,9.176 8.060 C 9.559 7.548,9.787 6.918,9.787 6.375 C 9.787 5.446,9.182 4.553,8.309 4.189 C 7.975 4.051,7.478 3.987,7.074 4.031 " fill="#1A1C1F" stroke="none" fill-rule="evenodd"></path></svg>