<svg xmlns="http://www.w3.org/2000/svg" width="24" height="24" fill="none"><g clip-path="url(#a)"><path fill="#1A1C1F" fill-rule="evenodd" d="M12.916 12.86a1 1 0 0 1-.266-1.39c.605-.89.81-1.393.81-1.987a2.43 2.43 0 0 0-2.429-2.43 2.42 2.42 0 0 0-1.678.675 1 1 0 1 1-1.384-1.443 4.4 4.4 0 0 1 3.061-1.23 4.434 4.434 0 0 1 4.43 4.43c0 1.174-.443 2.06-1.157 3.11a1 1 0 0 1-1.388.265m3.273 2.27c1.064-1.48 2.271-3.158 2.271-5.646 0-4.097-3.333-7.43-7.429-7.43A7.4 7.4 0 0 0 5.895 4.12a1 1 0 1 0 1.383 1.443 5.4 5.4 0 0 1 3.754-1.508 5.436 5.436 0 0 1 5.43 5.43c0 1.843-.92 3.123-1.896 4.478-.768 1.067-1.562 2.172-1.886 3.58a3.164 3.164 0 0 1-4.394 2.232 1 1 0 1 0-.828 1.82c.672.306 1.39.46 2.133.46 2.435 0 4.558-1.728 5.043-4.086.23-.993.874-1.89 1.556-2.838m3.596-9.556 1.921-1.922a1 1 0 0 0-1.413-1.414l-1.92 1.922a1 1 0 0 0 1.412 1.414M8.578 16.782a1 1 0 1 0-1.414-1.414l-4.87 4.87a1 1 0 0 0 1.414 1.415z" clip-rule="evenodd"/></g><defs><clipPath id="a"><path fill="#fff" d="M0 0h24v24H0z"/></clipPath></defs></svg>