<svg width="14" height="14" viewBox="0 0 14 14" fill="none" xmlns="http://www.w3.org/2000/svg"><path d="M6.008 1.425 C 5.546 1.482,4.994 1.644,4.616 1.833 C 4.065 2.111,3.560 2.499,3.417 2.757 C 3.356 2.868,3.348 2.904,3.348 3.080 C 3.349 3.224,3.360 3.302,3.391 3.363 C 3.458 3.499,3.579 3.624,3.713 3.699 C 3.823 3.760,3.861 3.768,4.025 3.768 C 4.254 3.767,4.326 3.733,4.647 3.475 C 5.013 3.182,5.317 3.023,5.752 2.901 C 6.039 2.820,6.680 2.797,6.979 2.857 C 7.831 3.029,8.576 3.598,8.966 4.375 C 9.149 4.740,9.240 5.141,9.240 5.588 C 9.240 6.101,9.169 6.392,8.922 6.896 C 8.806 7.132,8.693 7.307,8.012 8.300 C 7.569 8.947,7.395 9.298,7.221 9.893 C 7.175 10.054,7.100 10.253,7.057 10.337 C 6.849 10.733,6.483 11.024,6.043 11.144 C 5.928 11.176,5.825 11.184,5.612 11.179 C 4.900 11.161,4.921 11.159,4.805 11.228 C 4.675 11.304,4.542 11.447,4.489 11.567 C 4.430 11.700,4.433 11.978,4.494 12.111 C 4.636 12.419,4.856 12.531,5.402 12.577 C 6.114 12.636,6.730 12.481,7.308 12.097 C 7.912 11.695,8.316 11.131,8.538 10.381 C 8.704 9.823,8.819 9.594,9.235 8.998 C 9.951 7.974,10.155 7.638,10.338 7.188 C 10.729 6.225,10.762 5.255,10.437 4.274 C 10.014 2.994,8.930 1.948,7.642 1.575 C 7.178 1.441,6.436 1.373,6.008 1.425 M11.752 1.424 C 11.585 1.453,11.484 1.530,11.070 1.945 C 10.628 2.390,10.581 2.464,10.582 2.730 C 10.583 2.942,10.637 3.077,10.780 3.220 C 10.923 3.363,11.058 3.417,11.270 3.418 C 11.539 3.419,11.609 3.374,12.077 2.907 C 12.543 2.440,12.587 2.371,12.587 2.100 C 12.588 1.971,12.575 1.897,12.538 1.818 C 12.408 1.534,12.078 1.369,11.752 1.424 M5.907 3.580 C 5.516 3.687,5.089 3.961,4.919 4.213 C 4.800 4.389,4.769 4.551,4.817 4.740 C 4.911 5.106,5.168 5.291,5.553 5.269 C 5.747 5.257,5.757 5.253,6.042 5.053 C 6.201 4.942,6.213 4.938,6.399 4.928 C 6.658 4.915,6.760 4.946,6.914 5.087 C 7.093 5.250,7.148 5.387,7.135 5.635 C 7.127 5.794,7.113 5.845,7.049 5.963 C 6.757 6.489,6.778 6.437,6.778 6.627 C 6.779 7.132,7.222 7.456,7.691 7.296 C 7.921 7.217,8.114 6.984,8.333 6.519 C 8.507 6.151,8.542 5.999,8.542 5.600 C 8.542 5.239,8.521 5.118,8.407 4.833 C 8.154 4.198,7.562 3.692,6.917 3.559 C 6.647 3.503,6.150 3.513,5.907 3.580 M4.970 8.187 C 4.925 8.197,4.853 8.224,4.809 8.247 C 4.721 8.293,2.364 10.625,1.817 11.207 C 1.507 11.537,1.466 11.590,1.432 11.707 C 1.281 12.229,1.782 12.726,2.298 12.564 C 2.414 12.528,2.475 12.481,2.773 12.203 C 3.254 11.753,5.645 9.341,5.723 9.226 C 5.912 8.948,5.835 8.516,5.561 8.322 C 5.387 8.199,5.157 8.147,4.970 8.187 " fill="#1A1C1F" stroke="none" fill-rule="evenodd"></path></svg>