<svg width="16" height="16" viewBox="0 0 16 16" fill="none" xmlns="http://www.w3.org/2000/svg"><path d="M6.907 1.630 C 6.385 1.662,5.666 1.874,5.173 2.141 C 4.687 2.404,4.143 2.818,3.966 3.058 C 3.849 3.218,3.802 3.393,3.820 3.598 C 3.839 3.801,3.903 3.932,4.059 4.085 C 4.262 4.284,4.548 4.364,4.803 4.293 C 4.915 4.262,5.119 4.128,5.453 3.865 C 5.732 3.646,6.167 3.422,6.520 3.317 C 6.734 3.253,6.814 3.244,7.269 3.233 C 7.829 3.220,8.035 3.242,8.362 3.348 C 9.302 3.654,10.068 4.404,10.409 5.352 C 10.523 5.669,10.569 5.972,10.569 6.400 C 10.568 7.210,10.375 7.711,9.674 8.732 C 8.669 10.195,8.541 10.422,8.303 11.170 C 8.134 11.698,8.061 11.861,7.882 12.099 C 7.679 12.368,7.389 12.568,7.013 12.698 C 6.758 12.786,6.553 12.801,6.170 12.761 C 5.968 12.740,5.780 12.733,5.727 12.745 C 5.592 12.776,5.366 12.905,5.290 12.996 C 5.150 13.161,5.110 13.278,5.110 13.520 C 5.109 13.721,5.118 13.763,5.188 13.891 C 5.382 14.247,5.720 14.375,6.470 14.375 C 7.447 14.377,8.221 14.055,8.908 13.363 C 9.324 12.943,9.529 12.593,9.722 11.973 C 9.970 11.179,10.084 10.954,10.642 10.160 C 11.532 8.892,11.798 8.407,12.002 7.683 C 12.212 6.934,12.243 6.154,12.090 5.415 C 11.988 4.919,11.667 4.161,11.368 3.710 C 11.138 3.362,10.413 2.643,10.062 2.415 C 9.328 1.938,8.555 1.668,7.840 1.639 C 7.657 1.631,7.441 1.622,7.360 1.618 C 7.279 1.614,7.075 1.620,6.907 1.630 M13.368 1.637 C 13.195 1.694,13.026 1.833,12.607 2.264 C 12.200 2.683,12.116 2.808,12.089 3.032 C 12.054 3.332,12.249 3.675,12.539 3.823 C 12.663 3.886,12.723 3.900,12.887 3.901 C 13.194 3.903,13.270 3.854,13.801 3.321 C 14.341 2.780,14.387 2.707,14.386 2.387 C 14.386 2.154,14.340 2.032,14.188 1.859 C 14.005 1.650,13.634 1.550,13.368 1.637 M6.993 4.029 C 6.461 4.111,5.794 4.511,5.579 4.877 C 5.516 4.985,5.507 5.028,5.507 5.227 C 5.507 5.421,5.518 5.473,5.579 5.590 C 5.767 5.949,6.189 6.117,6.554 5.978 C 6.624 5.951,6.769 5.868,6.876 5.793 C 7.013 5.697,7.116 5.647,7.220 5.625 C 7.583 5.550,7.932 5.713,8.092 6.033 C 8.149 6.149,8.160 6.207,8.160 6.399 C 8.159 6.619,8.156 6.633,8.039 6.840 C 7.780 7.298,7.747 7.384,7.747 7.587 C 7.750 8.287,8.590 8.641,9.081 8.149 C 9.407 7.822,9.714 7.155,9.761 6.671 C 9.847 5.804,9.548 5.069,8.900 4.546 C 8.649 4.344,8.237 4.133,7.966 4.068 C 7.747 4.015,7.221 3.993,6.993 4.029 M5.635 9.355 C 5.460 9.417,5.181 9.679,3.545 11.325 C 1.804 13.076,1.691 13.196,1.641 13.365 C 1.494 13.861,1.813 14.339,2.328 14.392 C 2.545 14.414,2.645 14.385,2.832 14.246 C 3.026 14.102,5.070 12.081,5.990 11.126 C 6.572 10.520,6.615 10.469,6.656 10.328 C 6.747 10.015,6.644 9.689,6.392 9.490 C 6.182 9.324,5.875 9.269,5.635 9.355 " fill="#1A1C1F" stroke="none" fill-rule="evenodd"></path></svg>