<svg width="32" height="32" viewBox="0 0 32 32" fill="none" xmlns="http://www.w3.org/2000/svg"><path d="M13.493 2.081 C 12.522 2.162,11.395 2.463,10.388 2.909 C 8.941 3.551,7.271 4.820,7.171 5.355 C 7.023 6.141,7.784 6.785,8.504 6.485 C 8.603 6.443,8.932 6.209,9.235 5.964 C 9.539 5.718,9.944 5.419,10.136 5.298 C 11.656 4.342,13.430 3.903,15.172 4.050 C 16.376 4.152,17.216 4.385,18.267 4.908 C 19.091 5.318,19.776 5.813,20.408 6.454 C 21.080 7.135,21.526 7.764,21.977 8.667 C 22.529 9.771,22.680 10.323,22.777 11.588 C 22.872 12.823,22.747 13.977,22.420 14.892 C 22.076 15.853,21.289 17.210,20.038 19.002 C 18.264 21.540,17.957 22.110,17.435 23.836 C 17.018 25.216,16.687 25.829,15.977 26.535 C 14.617 27.890,12.675 28.325,10.800 27.695 C 10.029 27.437,9.691 27.427,9.408 27.657 C 9.142 27.872,8.987 28.178,8.987 28.489 C 8.987 29.053,9.527 29.446,10.752 29.772 C 11.369 29.936,11.419 29.941,12.507 29.941 C 13.564 29.941,13.656 29.933,14.160 29.794 C 15.943 29.303,17.389 28.262,18.383 26.753 C 18.791 26.133,18.972 25.683,19.467 24.053 C 19.763 23.080,20.234 22.220,21.324 20.667 C 22.393 19.142,23.261 17.809,23.564 17.227 C 24.972 14.518,25.220 11.812,24.315 9.047 C 23.077 5.265,19.586 2.464,15.632 2.079 C 15.055 2.023,14.169 2.024,13.493 2.081 M13.659 6.082 C 12.527 6.225,11.247 6.824,10.399 7.610 C 9.884 8.086,9.789 8.565,10.117 9.036 C 10.305 9.305,10.563 9.440,10.890 9.440 C 11.228 9.440,11.312 9.401,11.867 8.984 C 12.751 8.319,13.540 8.044,14.560 8.044 C 15.252 8.044,15.773 8.156,16.371 8.434 C 17.719 9.060,18.598 10.265,18.776 11.734 C 18.924 12.949,18.700 13.737,17.777 15.241 C 17.302 16.016,17.251 16.223,17.441 16.614 C 17.662 17.072,18.154 17.305,18.612 17.168 C 18.993 17.053,19.540 16.327,20.131 15.151 C 21.224 12.975,21.059 10.672,19.665 8.649 C 18.802 7.396,17.213 6.370,15.768 6.134 C 15.284 6.054,14.111 6.026,13.659 6.082 " fill="#1A1C1F" stroke="none" fill-rule="evenodd"></path></svg>