<svg width="24" height="24" viewBox="0 0 24 24" fill="none" xmlns="http://www.w3.org/2000/svg"><path d="M20.694 2.001 C 20.464 2.072,18.343 4.132,18.172 4.451 C 18.125 4.538,18.102 4.672,18.101 4.860 C 18.100 5.095,18.118 5.170,18.210 5.327 C 18.355 5.574,18.558 5.736,18.829 5.821 C 19.172 5.929,19.393 5.864,19.766 5.544 C 20.158 5.209,21.827 3.502,21.895 3.367 C 22.042 3.077,22.000 2.643,21.798 2.364 C 21.583 2.067,21.050 1.892,20.694 2.001 M10.120 2.124 C 8.803 2.273,7.514 2.816,6.379 3.700 C 5.827 4.130,5.650 4.372,5.611 4.743 C 5.578 5.065,5.661 5.304,5.880 5.524 C 6.107 5.751,6.398 5.861,6.683 5.827 C 6.941 5.797,7.030 5.746,7.550 5.331 C 8.703 4.414,9.872 4.026,11.284 4.093 C 12.803 4.165,14.048 4.758,15.075 5.897 C 15.725 6.618,16.201 7.588,16.364 8.520 C 16.444 8.982,16.433 10.144,16.345 10.560 C 16.141 11.518,15.741 12.276,14.521 14.020 C 13.340 15.708,13.075 16.207,12.696 17.459 C 12.596 17.788,12.452 18.181,12.376 18.333 C 11.937 19.208,11.151 19.795,10.166 19.984 C 9.580 20.096,9.102 20.050,8.392 19.813 C 8.027 19.692,7.932 19.674,7.750 19.697 C 7.121 19.776,6.727 20.351,6.898 20.940 C 7.031 21.396,7.422 21.651,8.380 21.907 C 8.750 22.006,8.841 22.014,9.580 22.015 C 10.291 22.016,10.420 22.006,10.739 21.923 C 12.674 21.420,14.053 20.077,14.582 18.180 C 14.884 17.097,15.128 16.642,16.330 14.930 C 17.695 12.985,18.170 11.955,18.383 10.480 C 18.475 9.839,18.446 8.677,18.322 8.060 C 17.932 6.124,16.780 4.410,15.126 3.306 C 14.158 2.659,13.025 2.248,11.872 2.122 C 11.425 2.074,10.558 2.075,10.120 2.124 M10.343 5.122 C 9.516 5.251,8.751 5.613,8.093 6.186 C 7.782 6.457,7.670 6.677,7.670 7.013 C 7.670 7.293,7.752 7.525,7.912 7.695 C 8.054 7.846,8.463 8.040,8.640 8.040 C 8.830 8.039,9.140 7.888,9.468 7.637 C 10.024 7.210,10.537 7.050,11.220 7.091 C 12.524 7.170,13.533 8.338,13.425 9.643 C 13.381 10.169,13.280 10.429,12.820 11.200 C 12.521 11.703,12.463 11.867,12.493 12.123 C 12.520 12.355,12.606 12.534,12.774 12.714 C 13.172 13.136,13.767 13.133,14.180 12.706 C 14.553 12.321,15.104 11.297,15.295 10.636 C 15.559 9.720,15.505 8.797,15.131 7.837 C 14.618 6.517,13.400 5.488,11.980 5.174 C 11.647 5.100,10.677 5.069,10.343 5.122 M7.610 15.117 C 7.539 15.135,7.395 15.218,7.290 15.302 C 6.963 15.564,2.176 20.373,2.104 20.512 C 1.821 21.061,2.189 21.777,2.830 21.925 C 2.990 21.962,3.065 21.958,3.254 21.903 C 3.465 21.842,3.539 21.784,4.132 21.214 C 5.110 20.274,8.634 16.682,8.754 16.503 C 9.024 16.102,8.770 15.379,8.290 15.178 C 8.112 15.104,7.779 15.074,7.610 15.117 " fill="#1A1C1F" stroke="none" fill-rule="evenodd"></path></svg>