<svg xmlns="http://www.w3.org/2000/svg" width="28" height="28" fill="none"><g clip-path="url(#a)"><path fill="#1A1C1F" fill-rule="evenodd" d="M15.55 14.96a.875.875 0 0 1-.228-1.217c.762-1.114 1.175-1.915 1.175-2.946a3.754 3.754 0 0 0-3.75-3.749c-.972 0-1.892.37-2.592 1.04a.875.875 0 1 1-1.211-1.263 5.47 5.47 0 0 1 3.802-1.527c3.034 0 5.5 2.467 5.5 5.5 0 1.477-.543 2.561-1.48 3.932a.875.875 0 0 1-1.215.23m3.398 2.75c1.313-1.825 2.8-3.89 2.8-6.91 0-4.964-4.039-9-9-9a8.96 8.96 0 0 0-6.225 2.5.874.874 0 1 0 1.21 1.261 7.22 7.22 0 0 1 5.014-2.013c3.997 0 7.25 3.252 7.25 7.25 0 2.456-1.2 4.123-2.468 5.887-.948 1.32-1.928 2.681-2.318 4.376a4.387 4.387 0 0 1-6.097 3.096.875.875 0 1 0-.724 1.592c.8.363 1.653.548 2.535.548 2.893 0 5.416-2.054 5.994-4.864.308-1.33 1.143-2.493 2.03-3.725zm3.784-11.25 3.262-3.264a.876.876 0 0 0-1.238-1.237l-3.262 3.262a.874.874 0 1 0 1.238 1.237zM3.244 25.944l6.124-6.125a.876.876 0 0 0-.953-1.427.9.9 0 0 0-.283.19l-6.125 6.125a.874.874 0 1 0 1.237 1.237" clip-rule="evenodd"/></g><defs><clipPath id="a"><path fill="#fff" d="M0 0h28v28H0z"/></clipPath></defs></svg>