<svg xmlns="http://www.w3.org/2000/svg" width="14" height="14" fill="none"><g clip-path="url(#a)"><path fill="#1A1C1F" fill-rule="evenodd" d="M4.657 3.5a1.05 1.05 0 1 0 0-2.1 1.05 1.05 0 0 0 0 2.1m.922 3.57a.7.7 0 1 0 1.06-.915L5.092 4.362a.7.7 0 0 0-.165-.168.7.7 0 0 0-.73-.042l-1.95 1.045a.7.7 0 0 0-.34.413L1.43 7.17a.7.7 0 0 0 1.34.41l.391-1.286.486-.26-.245 1.798-1.56 3.802a.701.701 0 0 0 1.294.532l1.12-2.73.326.444.755 2.243a.701.701 0 0 0 1.327-.447l-.79-2.346a.7.7 0 0 0-.098-.19l-.96-1.31.194-1.421.57.66zm2.474.504a.7.7 0 0 0-.927 1.05l2.74 2.416a.696.696 0 0 0 .987-.063.7.7 0 0 0-.062-.987l-2.74-2.416zM11.9 11.2c-.362 0-.7.338-.7.7s.338.7.7.7.7-.338.7-.7-.339-.7-.7-.7" clip-rule="evenodd"/></g><defs><clipPath id="a"><path fill="#fff" d="M0 0h14v14H0z"/></clipPath></defs></svg>