<svg width="24" height="24" viewBox="0 0 24 24" fill="none" xmlns="http://www.w3.org/2000/svg"><path d="M7.700 2.028 C 7.129 2.104,6.462 2.576,6.212 3.083 C 5.935 3.643,5.935 4.360,6.210 4.912 C 6.326 5.144,6.674 5.522,6.912 5.675 C 7.811 6.251,8.986 6.019,9.605 5.143 C 9.859 4.784,9.965 4.448,9.965 3.997 C 9.967 2.798,8.898 1.869,7.700 2.028 M7.380 7.104 C 7.177 7.178,4.879 8.772,4.260 9.268 C 4.024 9.457,4.017 9.469,3.871 9.905 C 3.664 10.520,3.053 12.659,3.019 12.886 C 2.931 13.489,3.484 14.058,4.090 13.986 C 4.339 13.957,4.672 13.773,4.790 13.600 C 4.888 13.457,5.054 12.946,5.442 11.600 C 5.672 10.799,5.699 10.731,5.834 10.606 C 6.039 10.417,6.321 10.228,6.351 10.258 C 6.365 10.272,6.282 10.998,6.167 11.872 C 5.896 13.931,5.901 13.888,5.957 14.090 C 6.004 14.258,6.439 14.889,7.554 16.407 L 8.043 17.073 8.717 19.087 C 9.506 21.444,9.527 21.499,9.693 21.675 C 9.857 21.849,10.176 21.999,10.383 22.000 C 10.823 22.001,11.224 21.706,11.344 21.293 C 11.402 21.093,11.405 21.026,11.363 20.820 C 11.336 20.688,10.982 19.579,10.577 18.356 L 9.840 16.133 8.903 14.851 L 7.965 13.569 8.122 12.415 C 8.209 11.780,8.291 11.165,8.305 11.050 C 8.319 10.934,8.346 10.840,8.365 10.840 C 8.402 10.840,8.645 11.163,9.137 11.870 C 9.309 12.117,9.526 12.390,9.620 12.476 C 10.045 12.868,10.740 12.760,11.099 12.247 C 11.210 12.088,11.220 12.045,11.220 11.747 C 11.220 11.358,11.266 11.440,10.127 9.780 C 9.006 8.145,8.437 7.362,8.292 7.251 C 8.023 7.046,7.689 6.992,7.380 7.104 M12.080 12.930 C 11.861 13.003,11.544 13.344,11.487 13.568 C 11.429 13.800,11.427 14.040,11.482 14.185 C 11.571 14.419,12.493 15.285,15.482 17.943 C 17.635 19.857,17.587 19.823,18.059 19.793 C 18.248 19.781,18.352 19.750,18.476 19.668 C 18.931 19.366,19.084 18.787,18.825 18.345 C 18.725 18.174,17.786 17.306,15.620 15.381 C 13.924 13.873,12.958 13.041,12.823 12.971 C 12.670 12.892,12.261 12.870,12.080 12.930 M5.480 16.277 C 5.030 16.417,4.958 16.527,4.100 18.386 C 3.005 20.761,2.986 20.809,3.012 21.061 C 3.066 21.585,3.514 22.001,4.025 22.000 C 4.239 21.999,4.554 21.843,4.718 21.656 C 4.863 21.491,5.191 20.831,5.899 19.280 C 6.726 17.470,6.804 17.221,6.651 16.877 C 6.542 16.630,6.387 16.460,6.189 16.367 C 5.997 16.277,5.629 16.230,5.480 16.277 M19.760 20.048 C 19.289 20.172,18.941 20.695,19.020 21.161 C 19.080 21.513,19.487 21.920,19.839 21.980 C 20.207 22.042,20.595 21.858,20.828 21.509 C 21.068 21.149,21.035 20.715,20.740 20.371 C 20.507 20.099,20.089 19.961,19.760 20.048 " fill="#1A1C1F" stroke="none" fill-rule="evenodd"></path></svg>