<svg width="24" height="24" viewBox="0 0 24 24" fill="none" xmlns="http://www.w3.org/2000/svg"><path d="M9.285 2.045 C 8.922 2.105,8.572 2.300,8.259 2.616 C 7.960 2.918,7.803 3.191,7.700 3.585 C 7.541 4.199,7.753 4.915,8.239 5.401 C 9.336 6.497,11.195 5.997,11.579 4.502 C 11.858 3.416,11.152 2.292,10.045 2.058 C 9.750 1.995,9.601 1.993,9.285 2.045 M8.480 8.036 C 7.666 8.164,7.380 9.200,8.011 9.740 C 8.234 9.931,8.362 9.962,9.087 9.997 C 9.803 10.031,9.875 10.058,9.976 10.328 C 10.011 10.423,10.374 11.615,10.781 12.979 C 11.189 14.342,11.548 15.497,11.579 15.545 C 11.611 15.593,11.721 15.701,11.824 15.786 C 12.003 15.933,12.030 15.941,12.376 15.966 C 12.576 15.981,13.309 15.994,14.004 15.996 C 14.699 15.998,15.429 16.011,15.626 16.025 L 15.984 16.051 16.599 17.475 C 17.438 19.420,17.929 20.519,18.051 20.729 C 18.235 21.042,18.725 21.227,19.104 21.124 C 19.463 21.028,19.793 20.674,19.830 20.345 C 19.862 20.059,19.732 19.707,18.636 17.110 C 17.851 15.249,17.522 14.522,17.378 14.334 C 17.318 14.255,17.189 14.155,17.091 14.112 C 16.924 14.038,16.788 14.031,15.037 14.010 L 13.161 13.988 13.063 13.664 C 12.658 12.320,12.590 12.077,12.615 12.052 C 12.630 12.036,13.313 12.011,14.132 11.996 C 15.019 11.980,15.676 11.951,15.758 11.925 C 15.833 11.901,15.965 11.813,16.051 11.731 C 16.385 11.408,16.481 11.003,16.311 10.632 C 16.192 10.372,15.962 10.138,15.764 10.074 C 15.667 10.043,15.026 10.022,13.792 10.010 L 11.964 9.993 11.899 9.767 C 11.679 9.000,10.935 8.299,10.135 8.103 C 9.869 8.039,8.753 7.993,8.480 8.036 M5.990 12.055 C 5.754 12.143,5.585 12.293,5.306 12.666 C 4.843 13.282,4.416 14.226,4.264 14.968 C 4.115 15.696,4.148 16.930,4.334 17.600 C 4.535 18.326,4.909 19.130,5.254 19.580 C 6.216 20.835,7.449 21.618,8.920 21.908 C 9.391 22.001,10.528 22.000,11.011 21.906 C 11.808 21.750,12.756 21.344,13.418 20.874 C 14.095 20.393,14.820 19.586,14.924 19.197 C 15.075 18.633,14.628 18.046,14.020 18.007 C 13.612 17.981,13.517 18.033,12.979 18.577 C 12.136 19.429,11.523 19.775,10.553 19.944 C 9.647 20.102,8.574 19.870,7.843 19.357 C 7.267 18.952,6.823 18.426,6.518 17.788 C 6.256 17.241,6.189 16.917,6.186 16.200 C 6.183 15.254,6.342 14.739,6.895 13.909 C 7.077 13.635,7.250 13.327,7.278 13.225 C 7.396 12.805,7.170 12.329,6.751 12.115 C 6.549 12.013,6.181 11.983,5.990 12.055 " fill="#1A1C1F" stroke="none" fill-rule="evenodd"></path></svg>