<svg width="20" height="20" viewBox="0 0 20 20" fill="none" xmlns="http://www.w3.org/2000/svg"><path d="M8.067 2.036 C 7.655 2.116,7.221 2.473,7.025 2.890 C 6.936 3.081,6.917 3.165,6.906 3.423 C 6.888 3.829,6.971 4.115,7.192 4.405 C 7.988 5.449,9.636 5.036,9.869 3.733 C 9.949 3.287,9.808 2.853,9.465 2.486 C 9.096 2.092,8.600 1.933,8.067 2.036 M8.444 7.060 C 8.060 7.197,7.797 7.545,7.774 7.948 C 7.764 8.130,7.824 8.355,8.381 10.225 C 8.721 11.366,9.020 12.351,9.047 12.414 C 9.121 12.591,9.349 12.817,9.542 12.905 C 9.715 12.983,9.728 12.983,11.228 13.000 L 12.739 13.017 13.645 15.250 L 14.550 17.483 14.750 17.685 C 14.909 17.846,14.990 17.899,15.145 17.948 C 15.619 18.095,16.105 17.886,16.323 17.440 C 16.400 17.282,16.416 17.208,16.414 17.000 C 16.413 16.751,16.409 16.742,15.436 14.333 C 14.899 13.004,14.409 11.834,14.348 11.733 C 14.166 11.431,13.904 11.213,13.574 11.089 C 13.394 11.022,13.309 11.017,12.087 11.001 L 10.791 10.983 10.267 9.333 C 9.980 8.426,9.713 7.622,9.675 7.548 C 9.459 7.128,8.887 6.901,8.444 7.060 M5.218 10.053 C 4.792 10.189,4.099 11.194,3.806 12.100 C 3.634 12.631,3.590 12.901,3.589 13.450 C 3.586 14.391,3.843 15.235,4.376 16.033 C 4.588 16.351,5.241 17.001,5.567 17.217 C 6.081 17.558,6.626 17.785,7.267 17.922 C 7.705 18.016,8.572 18.008,9.031 17.906 C 9.880 17.716,10.650 17.313,11.199 16.771 C 11.456 16.518,11.536 16.336,11.538 16.003 C 11.540 15.590,11.336 15.255,10.974 15.077 C 10.819 15.001,10.739 14.984,10.550 14.984 C 10.255 14.985,10.091 15.058,9.795 15.320 C 9.247 15.807,8.623 16.031,7.933 15.989 C 7.308 15.951,6.780 15.714,6.330 15.268 C 6.005 14.945,5.815 14.648,5.680 14.250 C 5.563 13.905,5.533 13.316,5.613 12.936 C 5.689 12.579,5.919 12.134,6.195 11.813 C 6.492 11.467,6.541 11.369,6.559 11.079 C 6.579 10.777,6.510 10.559,6.330 10.355 C 6.071 10.060,5.598 9.932,5.218 10.053 " fill="#1A1C1F" stroke="none" fill-rule="evenodd"></path></svg>