<svg width="32" height="32" viewBox="0 0 32 32" fill="none" xmlns="http://www.w3.org/2000/svg"><path d="M11.252 2.294 C 9.993 2.491,8.942 3.441,8.610 4.681 C 8.498 5.096,8.499 5.862,8.612 6.293 C 8.845 7.185,9.492 7.979,10.299 8.362 C 10.879 8.637,11.168 8.703,11.787 8.701 C 12.697 8.699,13.452 8.366,14.094 7.686 C 15.579 6.112,15.121 3.573,13.174 2.587 C 12.642 2.318,11.859 2.198,11.252 2.294 M12.324 4.413 C 13.192 4.853,13.230 6.049,12.391 6.542 C 12.173 6.670,12.076 6.693,11.760 6.692 C 11.006 6.689,10.537 6.230,10.537 5.493 C 10.537 4.545,11.470 3.981,12.324 4.413 M10.827 10.851 C 10.179 11.015,9.710 11.318,9.565 11.664 C 9.393 12.076,9.549 12.623,9.909 12.872 C 10.228 13.092,10.458 13.099,11.040 12.905 C 11.610 12.715,11.902 12.711,12.244 12.889 C 12.642 13.095,12.708 13.235,13.330 15.203 C 13.649 16.213,13.934 17.100,13.964 17.173 C 14.037 17.359,14.338 17.627,14.555 17.700 C 14.682 17.742,15.691 17.760,17.941 17.759 C 20.926 17.758,21.161 17.751,21.360 17.661 C 21.981 17.379,22.159 16.622,21.726 16.107 C 21.424 15.749,21.548 15.763,18.406 15.733 L 15.558 15.707 15.108 14.293 C 14.860 13.516,14.582 12.727,14.489 12.539 C 14.139 11.834,13.518 11.251,12.800 10.953 C 12.498 10.828,12.367 10.807,11.787 10.793 C 11.340 10.782,11.023 10.801,10.827 10.851 M7.207 17.181 C 6.842 17.286,6.189 18.122,5.735 19.067 C 5.239 20.098,5.006 21.147,5.009 22.337 C 5.011 23.473,5.230 24.475,5.686 25.440 C 6.732 27.650,8.667 29.156,11.079 29.636 C 11.803 29.780,13.093 29.767,13.807 29.608 C 15.181 29.303,16.283 28.749,17.336 27.833 C 18.066 27.198,19.038 25.817,19.039 25.413 C 19.040 25.031,18.782 24.634,18.429 24.474 C 18.156 24.349,17.898 24.349,17.626 24.473 C 17.384 24.583,17.231 24.754,16.852 25.340 C 16.551 25.804,15.965 26.410,15.485 26.753 C 15.061 27.058,14.256 27.438,13.726 27.584 C 13.375 27.680,13.158 27.700,12.400 27.703 C 11.607 27.706,11.441 27.691,11.073 27.585 C 9.101 27.014,7.671 25.567,7.161 23.627 C 7.051 23.209,7.026 22.989,7.022 22.373 C 7.017 21.610,7.066 21.263,7.263 20.640 C 7.418 20.153,7.788 19.452,8.123 19.013 C 8.549 18.454,8.624 18.147,8.433 17.733 C 8.208 17.246,7.730 17.031,7.207 17.181 M15.173 19.783 C 14.814 19.870,14.483 20.190,14.423 20.509 C 14.331 20.998,14.529 21.413,14.957 21.628 L 15.221 21.760 18.772 21.760 L 22.323 21.760 23.708 24.945 C 24.603 27.003,25.150 28.195,25.253 28.313 C 25.449 28.538,25.681 28.640,26.000 28.640 C 26.577 28.640,26.987 28.236,26.987 27.668 C 26.987 27.500,26.641 26.650,25.487 23.978 C 24.662 22.069,23.942 20.418,23.887 20.310 C 23.759 20.055,23.499 19.860,23.199 19.791 C 22.925 19.728,15.433 19.720,15.173 19.783 " fill="#1A1C1F" stroke="none" fill-rule="evenodd"></path></svg>