<svg width="20" height="20" viewBox="0 0 20 20" fill="none" xmlns="http://www.w3.org/2000/svg"><path d="M8.067 2.044 C 7.653 2.138,7.229 2.480,7.034 2.877 C 6.947 3.053,6.923 3.150,6.909 3.374 C 6.878 3.864,6.988 4.178,7.310 4.522 C 8.073 5.337,9.391 5.052,9.800 3.983 C 9.907 3.703,9.908 3.293,9.803 3.023 C 9.526 2.315,8.762 1.884,8.067 2.044 M8.567 7.031 C 8.438 7.057,8.221 7.165,8.114 7.257 C 7.892 7.446,7.743 7.824,7.783 8.094 C 7.813 8.296,8.028 9.049,8.583 10.900 C 9.059 12.485,9.096 12.579,9.336 12.769 C 9.603 12.980,9.575 12.977,11.224 12.999 C 12.053 13.011,12.737 13.027,12.743 13.035 C 12.750 13.043,13.158 14.047,13.650 15.267 L 14.545 17.483 14.725 17.661 C 14.965 17.899,15.152 17.982,15.450 17.982 C 15.732 17.982,15.933 17.900,16.124 17.709 C 16.432 17.401,16.489 17.040,16.310 16.533 C 16.096 15.931,14.641 12.362,14.408 11.868 C 14.219 11.468,13.822 11.135,13.433 11.049 C 13.369 11.035,12.749 11.015,12.054 11.003 L 10.792 10.983 10.330 9.533 C 9.745 7.697,9.687 7.535,9.545 7.370 C 9.336 7.126,8.879 6.968,8.567 7.031 M5.306 10.034 C 4.730 10.153,3.893 11.489,3.652 12.674 C 3.583 13.012,3.583 13.825,3.651 14.221 C 3.758 14.842,4.005 15.466,4.346 15.979 C 4.560 16.301,5.189 16.942,5.517 17.175 C 5.979 17.501,6.642 17.786,7.253 17.919 C 7.576 17.990,8.492 18.001,8.867 17.939 C 9.186 17.886,9.821 17.674,10.137 17.515 C 10.684 17.241,11.289 16.749,11.439 16.457 C 11.487 16.363,11.516 16.235,11.525 16.067 C 11.551 15.627,11.375 15.303,11.006 15.106 C 10.834 15.014,10.774 15.000,10.562 15.000 C 10.255 15.001,10.088 15.076,9.717 15.380 C 9.419 15.624,9.026 15.833,8.700 15.921 C 8.406 16.001,7.765 16.000,7.467 15.920 C 6.974 15.788,6.467 15.459,6.131 15.053 C 5.940 14.822,5.694 14.339,5.630 14.067 C 5.562 13.784,5.571 13.060,5.645 12.817 C 5.737 12.514,5.954 12.122,6.206 11.803 C 6.522 11.403,6.550 11.339,6.550 11.000 C 6.550 10.748,6.539 10.697,6.452 10.539 C 6.397 10.441,6.307 10.322,6.252 10.275 C 6.012 10.073,5.612 9.971,5.306 10.034 " fill="#1A1C1F" stroke="none" fill-rule="evenodd"></path></svg>