<svg xmlns="http://www.w3.org/2000/svg" width="24" height="24" fill="none"><g clip-path="url(#a)"><path fill="#1A1C1F" fill-rule="evenodd" d="M10.198 5.75a1.873 1.873 0 0 0 1.875-1.875A1.85 1.85 0 0 0 10.198 2c-.997 0-1.875.838-1.875 1.875 0 .997.878 1.875 1.875 1.875M6.61 16.049c.525.172.812.737.642 1.262l-1.301 4a1.002 1.002 0 0 1-1.842.143 1 1 0 0 1-.06-.763l1.3-4a1 1 0 0 1 1.26-.642M8.274 7.27c.048.004.096-.005.143.006q.194.045.356.16l3.148 2.26a1.002 1.002 0 0 1-.585 1.814 1 1 0 0 1-.583-.188L8.252 9.526c-.826 1.09-.225 3-.054 3.478l2.59 3.329a1 1 0 0 1 .212.614V21a1 1 0 1 1-2 0v-3.71l-2.473-3.178c-.011-.015-.013-.032-.023-.047-.041-.06-.084-.117-.112-.186-.696-1.686-1.21-4.948 1.274-6.48l.117-.061q.12-.053.249-.074c.08-.013.16 0 .242.007M13.5 19.5a1.25 1.25 0 1 1 0 2.5 1.25 1.25 0 0 1 0-2.5m5.25 0a1.25 1.25 0 1 1 0 2.5 1.25 1.25 0 0 1 0-2.5m-4-8.5a1 1 0 0 1 .848.47l1.58 2.53H19a1 1 0 0 1 .723 1.69l-3.245 3.392a1 1 0 0 1-1.445-1.382l1.625-1.7h-.034a1 1 0 0 1-.848-.47L14.196 13H14a1 1 0 1 1 0-2z" clip-rule="evenodd"/></g><defs><clipPath id="a"><path fill="#fff" d="M0 0h24v24H0z"/></clipPath></defs></svg>