<svg width="20" height="20" viewBox="0 0 20 20" fill="none" xmlns="http://www.w3.org/2000/svg"><path d="M6.333 2.046 C 5.908 2.139,5.514 2.458,5.300 2.882 C 5.187 3.106,5.183 3.124,5.183 3.499 C 5.183 3.868,5.188 3.894,5.293 4.108 C 5.557 4.645,6.091 5.000,6.633 5.000 C 6.820 5.000,7.125 4.923,7.352 4.820 C 7.720 4.652,8.053 4.175,8.133 3.701 C 8.259 2.958,7.689 2.176,6.919 2.036 C 6.678 1.992,6.570 1.994,6.333 2.046 M6.150 5.878 C 5.939 5.948,3.250 7.399,3.042 7.555 C 2.838 7.708,2.741 7.946,2.337 9.288 C 2.084 10.127,2.000 10.451,2.000 10.588 C 2.000 10.894,2.268 11.279,2.592 11.439 C 2.818 11.550,3.185 11.549,3.414 11.436 C 3.794 11.249,3.857 11.128,4.264 9.815 L 4.518 8.996 4.840 8.823 C 5.017 8.729,5.169 8.658,5.177 8.667 C 5.194 8.685,5.191 8.705,4.994 10.167 L 4.857 11.183 3.867 13.600 C 2.595 16.701,2.588 16.721,2.585 17.017 C 2.581 17.577,2.992 17.981,3.567 17.980 C 3.874 17.979,4.067 17.896,4.268 17.678 C 4.432 17.500,4.395 17.582,5.268 15.467 C 5.650 14.541,5.986 13.726,6.016 13.656 C 6.082 13.500,6.099 13.510,6.357 13.859 C 6.531 14.093,6.556 14.157,7.082 15.701 C 7.382 16.580,7.660 17.367,7.699 17.449 C 7.889 17.840,8.415 18.057,8.840 17.918 C 9.187 17.804,9.422 17.560,9.519 17.211 C 9.557 17.072,9.568 16.959,9.553 16.855 C 9.534 16.734,8.857 14.688,8.414 13.417 C 8.353 13.243,8.232 13.045,7.941 12.641 C 7.726 12.342,7.403 11.892,7.224 11.641 L 6.898 11.183 6.917 11.000 C 6.962 10.574,7.143 9.313,7.165 9.272 C 7.182 9.240,7.277 9.324,7.486 9.555 C 8.036 10.164,8.215 10.325,8.406 10.382 C 8.993 10.556,9.536 10.250,9.689 9.660 C 9.735 9.483,9.737 9.420,9.702 9.259 C 9.652 9.020,9.605 8.957,8.540 7.700 C 7.363 6.310,7.111 6.035,6.929 5.941 C 6.739 5.843,6.349 5.812,6.150 5.878 M10.544 10.628 C 10.329 10.703,10.163 10.828,10.038 11.009 C 9.892 11.222,9.824 11.452,9.848 11.650 C 9.886 11.953,10.004 12.132,10.410 12.509 C 11.151 13.197,13.040 14.853,13.927 15.593 C 14.321 15.921,14.392 15.967,14.557 16.002 C 14.711 16.033,14.781 16.031,14.956 15.988 C 15.356 15.889,15.623 15.623,15.721 15.223 C 15.769 15.030,15.769 14.993,15.719 14.799 C 15.689 14.683,15.627 14.538,15.581 14.478 C 15.425 14.272,12.300 11.500,11.464 10.825 C 11.178 10.594,10.845 10.522,10.544 10.628 M16.600 16.106 C 16.411 16.201,16.194 16.417,16.096 16.605 C 15.994 16.801,15.991 17.152,16.090 17.371 C 16.253 17.734,16.609 17.978,16.979 17.980 C 17.091 17.980,17.240 17.961,17.309 17.938 C 17.501 17.872,17.737 17.664,17.866 17.448 C 17.972 17.271,17.982 17.232,17.981 17.002 C 17.980 16.704,17.909 16.540,17.685 16.316 C 17.472 16.104,17.360 16.056,17.033 16.042 C 16.789 16.031,16.729 16.040,16.600 16.106 " fill="#1A1C1F" stroke="none" fill-rule="evenodd"></path></svg>