<svg width="16" height="16" viewBox="0 0 16 16" fill="none" xmlns="http://www.w3.org/2000/svg"><path d="M6.440 1.637 C 6.111 1.717,5.777 1.993,5.624 2.311 C 5.541 2.482,5.536 2.511,5.535 2.787 C 5.534 3.034,5.543 3.104,5.595 3.233 C 5.951 4.114,7.105 4.262,7.678 3.500 C 7.785 3.356,7.878 3.117,7.908 2.905 C 7.949 2.612,7.800 2.221,7.554 1.978 C 7.236 1.663,6.836 1.541,6.440 1.637 M6.853 5.625 C 6.493 5.698,6.224 6.033,6.231 6.400 C 6.234 6.589,6.302 6.839,6.790 8.467 C 7.269 10.064,7.244 9.993,7.387 10.137 C 7.456 10.206,7.574 10.293,7.649 10.331 L 7.785 10.400 8.779 10.400 C 9.326 10.400,9.869 10.408,9.987 10.417 L 10.200 10.434 10.916 12.210 L 11.633 13.987 11.782 14.131 C 11.980 14.322,12.122 14.385,12.360 14.386 C 12.788 14.388,13.087 14.097,13.131 13.636 L 13.149 13.445 12.585 12.049 C 11.923 10.411,11.591 9.606,11.521 9.469 C 11.367 9.168,11.057 8.910,10.778 8.851 C 10.686 8.832,10.235 8.813,9.630 8.803 L 8.634 8.787 8.515 8.413 C 7.768 6.065,7.758 6.039,7.637 5.897 C 7.469 5.701,7.104 5.574,6.853 5.625 M4.267 8.024 C 4.119 8.055,4.011 8.124,3.852 8.285 C 3.553 8.588,3.218 9.166,3.053 9.663 C 2.914 10.081,2.880 10.295,2.880 10.739 C 2.880 11.210,2.929 11.540,3.053 11.911 C 3.239 12.467,3.491 12.871,3.918 13.299 C 4.281 13.665,4.453 13.795,4.819 13.981 C 5.645 14.402,6.520 14.502,7.411 14.278 C 7.781 14.186,8.447 13.849,8.747 13.604 C 9.139 13.282,9.246 13.083,9.221 12.724 C 9.206 12.511,9.145 12.371,9.008 12.235 C 8.844 12.071,8.675 12.000,8.448 12.000 C 8.204 12.001,8.070 12.061,7.773 12.304 C 7.535 12.500,7.221 12.667,6.960 12.737 C 6.722 12.801,6.210 12.801,5.975 12.736 C 5.760 12.677,5.507 12.564,5.349 12.455 C 5.024 12.232,4.658 11.763,4.560 11.447 C 4.389 10.893,4.448 10.245,4.709 9.799 C 4.748 9.731,4.874 9.558,4.987 9.412 C 5.220 9.116,5.270 8.982,5.246 8.719 C 5.230 8.539,5.124 8.324,5.001 8.220 C 4.817 8.064,4.489 7.976,4.267 8.024 " fill="#1A1C1F" stroke="none" fill-rule="evenodd"></path></svg>