<svg xmlns="http://www.w3.org/2000/svg" width="24" height="24" fill="none"><g clip-path="url(#a)"><path fill="#1A1C1F" fill-rule="evenodd" d="M7.94 6A2 2 0 1 0 8.03 2 2 2 0 0 0 7.94 6m-.126 1.05c.037.003.07.003.106.01.106.025.21.06.307.119l.008.007c.017.01.029.026.045.037q.127.09.217.21c.01.014.025.02.035.034l2.545 3.696a1 1 0 0 1-1.648 1.135l-1.08-1.57-.388 2.84 1.775 2.423q.091.125.142.274l1.474 4.418A.998.998 0 0 1 10.404 22c-.42 0-.81-.265-.95-.684l-1.425-4.27-1.922-2.621a1 1 0 0 1-.184-.727l.482-3.524-.69.486-.754 2.617a1 1 0 0 1-1.922-.554l.852-2.955a1 1 0 0 1 .385-.54L7.13 7.217l.009-.006c.006-.005.014-.005.02-.01a1 1 0 0 1 .655-.151m-2.99 9.769a1.001 1.001 0 0 1 1.818.836L4.91 21.418a1.001 1.001 0 0 1-1.817-.836zm8.25-3.717a1 1 0 0 0-1.333 1.49l5.555 4.974a1 1 0 1 0 1.335-1.49l-5.555-4.974zM20 19.999c-.517 0-1 .483-1 1s.483 1 1 1 1-.483 1-1-.483-1-1-1" clip-rule="evenodd"/></g><defs><clipPath id="a"><path fill="#fff" d="M0 0h24v24H0z"/></clipPath></defs></svg>