<svg width="28" height="28" viewBox="0 0 28 28" fill="none" xmlns="http://www.w3.org/2000/svg"><path d="M8.540 1.826 C 7.848 1.937,7.035 2.577,6.708 3.267 C 6.481 3.745,6.422 4.051,6.451 4.604 C 6.479 5.148,6.588 5.475,6.895 5.941 C 7.144 6.319,7.537 6.660,7.956 6.860 C 9.006 7.361,10.162 7.155,10.991 6.317 C 11.747 5.554,11.976 4.602,11.642 3.607 C 11.203 2.299,9.975 1.594,8.540 1.826 M9.630 3.657 C 10.185 3.962,10.197 4.854,9.651 5.215 C 9.484 5.325,9.409 5.343,9.119 5.343 C 8.813 5.343,8.765 5.330,8.603 5.201 C 8.328 4.982,8.202 4.703,8.229 4.376 C 8.266 3.929,8.521 3.626,8.924 3.552 C 9.187 3.503,9.410 3.537,9.630 3.657 M8.283 8.479 C 8.171 8.506,7.497 9.015,6.603 9.747 C 5.478 10.669,5.127 10.985,5.041 11.154 C 4.863 11.499,3.873 14.817,3.873 15.068 C 3.873 15.259,4.065 15.597,4.238 15.712 C 4.526 15.903,4.918 15.908,5.220 15.724 C 5.441 15.590,5.569 15.274,6.104 13.540 C 6.360 12.713,6.576 12.029,6.586 12.021 C 6.836 11.807,7.388 11.385,7.401 11.398 C 7.410 11.408,7.324 12.348,7.209 13.488 C 7.094 14.627,6.995 15.732,6.988 15.943 L 6.977 16.326 7.354 16.881 C 7.561 17.186,8.132 17.983,8.622 18.653 L 9.514 19.870 9.887 21.030 C 10.092 21.668,10.505 22.967,10.803 23.917 C 11.102 24.866,11.382 25.716,11.425 25.806 C 11.472 25.904,11.593 26.023,11.729 26.107 C 12.018 26.284,12.307 26.293,12.590 26.133 C 12.807 26.011,12.900 25.894,12.998 25.616 C 13.084 25.372,13.076 25.343,12.005 21.910 L 11.132 19.110 9.937 17.477 L 8.743 15.843 8.896 14.350 C 9.326 10.153,9.397 9.295,9.336 9.089 C 9.206 8.657,8.723 8.376,8.283 8.479 M10.631 10.408 C 10.294 10.466,9.939 10.865,9.940 11.186 C 9.941 11.435,10.392 13.077,10.554 13.422 C 10.614 13.550,10.929 13.896,11.449 14.406 C 12.202 15.146,12.472 15.354,12.677 15.353 C 12.997 15.352,13.398 15.091,13.517 14.807 C 13.597 14.614,13.598 14.319,13.517 14.127 C 13.483 14.044,13.146 13.658,12.770 13.269 L 12.085 12.562 11.838 11.700 C 11.703 11.226,11.556 10.783,11.512 10.717 C 11.364 10.491,10.966 10.352,10.631 10.408 M14.210 15.641 C 13.730 15.820,13.495 16.349,13.690 16.813 C 13.729 16.905,14.894 18.079,16.688 19.834 C 20.872 23.926,21.212 24.254,21.359 24.328 C 21.575 24.439,21.781 24.464,21.968 24.405 C 22.403 24.265,22.663 23.890,22.622 23.461 L 22.599 23.230 21.251 21.878 C 19.235 19.857,15.277 16.031,14.906 15.745 C 14.737 15.615,14.412 15.566,14.210 15.641 M6.552 18.217 C 6.259 18.351,6.157 18.564,4.958 21.560 C 3.658 24.808,3.486 25.279,3.515 25.494 C 3.606 26.172,4.577 26.489,4.982 25.973 C 5.151 25.758,6.635 22.161,7.475 19.927 C 7.753 19.187,7.796 19.035,7.771 18.868 C 7.735 18.627,7.584 18.396,7.385 18.280 C 7.186 18.164,6.742 18.130,6.552 18.217 M23.333 24.572 C 22.803 24.810,22.616 25.354,22.908 25.814 C 23.274 26.391,24.035 26.349,24.397 25.732 C 24.759 25.117,23.989 24.278,23.333 24.572 " fill="#1A1C1F" stroke="none" fill-rule="evenodd"></path></svg>