<svg xmlns="http://www.w3.org/2000/svg" width="14" height="14" fill="none"><g clip-path="url(#a)"><path fill="#1A1C1F" fill-rule="evenodd" d="M6.593 3.5c.603 0 1.05-.492 1.05-1.05 0-.582-.447-1.05-1.05-1.05-.56 0-1.05.468-1.05 1.05 0 .558.49 1.05 1.05 1.05m-1.183.71.073.002c.04 0 .08-.003.12.005.053.01.1.034.148.056.03.013.063.016.09.034l1.504.948a.7.7 0 0 1-.748 1.184L5.51 5.754c-.46.465-.508 1.048-.504 1.302L6.52 9.39a.7.7 0 0 1 .112.377l.016 2.13a.7.7 0 1 1-1.4.01l-.014-1.927-.55-.847-.148.795a1 1 0 0 1-.024.093l-.7 2.1a.7.7 0 0 1-1.328-.443l.686-2.055.444-2.377c-.028-.456-.003-1.996 1.45-2.918l.036-.025c.032-.02.07-.024.104-.038.044-.018.085-.04.132-.05zm2.639 6.99a.7.7 0 1 1 0 1.4.7.7 0 0 1 0-1.4m2.8 0a.7.7 0 1 1 0 1.4.7.7 0 0 1 0-1.4M9.376 6.685 9.883 7.7h.967a.701.701 0 0 1 .587 1.082l-1.31 2.01a.7.7 0 0 1-1.173-.764L9.4 9.34l-.446-.446-.006-.01a.7.7 0 0 1-.125-.17l-.7-1.4a.7.7 0 0 1 1.252-.628" clip-rule="evenodd"/></g><defs><clipPath id="a"><path fill="#fff" d="M0 0h14v14H0z"/></clipPath></defs></svg>