<svg width="24" height="24" viewBox="0 0 24 24" fill="none" xmlns="http://www.w3.org/2000/svg"><path d="M9.791 2.060 C 9.432 2.151,9.163 2.309,8.878 2.596 C 8.352 3.124,8.196 3.795,8.444 4.463 C 8.680 5.099,9.281 5.604,9.948 5.728 C 10.477 5.825,11.121 5.595,11.535 5.162 C 12.352 4.306,12.212 3.003,11.232 2.328 C 10.820 2.045,10.260 1.941,9.791 2.060 M7.805 7.339 C 7.442 7.504,6.813 8.068,6.533 8.480 C 6.005 9.257,5.737 10.434,5.839 11.520 C 5.915 12.326,6.184 13.453,6.402 13.884 C 6.479 14.034,7.200 14.987,8.322 16.420 L 8.980 17.260 9.000 19.260 C 9.020 21.253,9.020 21.261,9.113 21.449 C 9.301 21.830,9.791 22.062,10.205 21.966 C 10.484 21.902,10.771 21.684,10.887 21.449 L 10.980 21.260 10.980 18.960 C 10.980 16.874,10.974 16.649,10.912 16.540 C 10.875 16.474,10.546 16.033,10.182 15.560 C 8.407 13.258,8.163 12.919,8.081 12.642 C 7.883 11.977,7.793 10.694,7.915 10.282 C 7.992 10.021,8.205 9.560,8.248 9.560 C 8.269 9.560,8.712 9.863,9.233 10.234 C 10.494 11.132,10.934 11.425,11.106 11.482 C 11.402 11.580,11.893 11.408,12.102 11.134 C 12.371 10.782,12.391 10.294,12.150 9.949 C 12.108 9.887,11.899 9.706,11.686 9.545 C 11.118 9.114,8.892 7.530,8.688 7.411 C 8.465 7.280,8.015 7.244,7.805 7.339 M13.796 11.035 C 13.434 11.112,13.134 11.400,13.039 11.760 C 12.880 12.365,13.388 13.000,14.030 13.000 L 14.191 13.000 14.724 13.850 C 15.565 15.193,15.951 15.755,16.090 15.840 C 16.159 15.882,16.302 15.939,16.409 15.966 C 16.515 15.993,16.597 16.028,16.591 16.043 C 16.585 16.057,16.252 16.418,15.852 16.845 C 14.940 17.814,14.850 17.931,14.794 18.204 C 14.682 18.751,15.102 19.295,15.679 19.351 C 16.155 19.397,16.265 19.310,17.883 17.617 C 19.995 15.405,19.981 15.424,19.979 15.000 C 19.977 14.814,19.953 14.695,19.892 14.580 C 19.788 14.384,19.542 14.142,19.380 14.076 C 19.300 14.043,18.912 14.021,18.218 14.009 L 17.175 13.992 16.860 13.486 C 16.049 12.187,15.577 11.456,15.463 11.327 C 15.263 11.099,15.088 11.045,14.477 11.023 C 14.182 11.012,13.875 11.017,13.796 11.035 M6.060 16.037 C 5.749 16.113,5.534 16.310,5.377 16.664 C 5.282 16.878,4.337 19.779,4.117 20.533 C 4.032 20.825,3.997 21.016,4.011 21.118 C 4.060 21.488,4.351 21.839,4.692 21.940 C 4.950 22.016,5.071 22.016,5.309 21.936 C 5.564 21.850,5.743 21.709,5.841 21.517 C 5.886 21.430,6.128 20.743,6.378 19.989 C 7.304 17.211,7.371 16.933,7.203 16.586 C 7.105 16.384,6.892 16.177,6.703 16.100 C 6.539 16.034,6.208 16.001,6.060 16.037 M13.147 19.561 C 12.837 19.640,12.475 19.971,12.336 20.304 C 12.257 20.492,12.248 20.927,12.319 21.140 C 12.511 21.722,13.121 22.081,13.728 21.968 C 14.401 21.843,14.835 21.208,14.714 20.523 C 14.648 20.145,14.393 19.821,14.011 19.625 C 13.855 19.545,13.357 19.509,13.147 19.561 M18.374 19.561 C 18.028 19.668,17.651 20.061,17.557 20.413 C 17.491 20.657,17.526 21.067,17.632 21.285 C 17.846 21.725,18.259 21.979,18.760 21.980 C 19.121 21.980,19.351 21.883,19.615 21.618 C 19.955 21.279,20.075 20.816,19.938 20.379 C 19.850 20.100,19.520 19.721,19.281 19.625 C 19.086 19.547,18.543 19.509,18.374 19.561 " fill="#1A1C1F" stroke="none" fill-rule="evenodd"></path></svg>