<svg width="12" height="12" viewBox="0 0 12 12" fill="none" xmlns="http://www.w3.org/2000/svg"><path d="M4.845 1.209 C 4.578 1.270,4.331 1.468,4.215 1.714 C 4.129 1.897,4.113 2.166,4.177 2.374 C 4.229 2.546,4.364 2.719,4.537 2.835 C 4.694 2.940,4.828 2.981,5.020 2.982 C 5.474 2.983,5.838 2.673,5.923 2.211 C 5.978 1.910,5.821 1.559,5.544 1.364 C 5.332 1.216,5.072 1.158,4.845 1.209 M5.088 4.227 C 4.898 4.289,4.732 4.458,4.676 4.647 C 4.658 4.705,4.659 4.758,4.678 4.875 C 4.711 5.070,5.069 6.310,5.364 7.248 C 5.435 7.475,5.456 7.519,5.534 7.603 C 5.584 7.655,5.666 7.719,5.717 7.743 C 5.808 7.788,5.828 7.789,6.724 7.800 C 7.227 7.807,7.643 7.816,7.647 7.821 C 7.652 7.826,7.800 8.185,7.976 8.620 C 8.387 9.634,8.717 10.436,8.751 10.501 C 8.791 10.579,8.952 10.719,9.056 10.766 C 9.402 10.923,9.819 10.668,9.855 10.277 C 9.863 10.187,9.854 10.124,9.811 9.986 C 9.722 9.701,8.718 7.221,8.630 7.070 C 8.505 6.855,8.283 6.680,8.084 6.639 C 8.017 6.625,7.666 6.610,7.223 6.603 L 6.475 6.590 6.147 5.550 L 5.819 4.510 5.708 4.405 C 5.648 4.347,5.563 4.282,5.520 4.260 C 5.419 4.208,5.197 4.191,5.088 4.227 M3.159 6.027 C 3.047 6.057,2.980 6.104,2.849 6.243 C 2.568 6.540,2.305 7.069,2.187 7.570 C 2.136 7.791,2.135 8.376,2.186 8.615 C 2.258 8.951,2.418 9.329,2.612 9.623 C 2.739 9.815,3.130 10.208,3.320 10.335 C 3.622 10.536,3.980 10.686,4.340 10.764 C 4.608 10.821,5.112 10.821,5.380 10.764 C 5.885 10.655,6.349 10.422,6.678 10.110 C 6.871 9.927,6.920 9.827,6.920 9.610 C 6.920 9.419,6.869 9.292,6.747 9.177 C 6.614 9.050,6.513 9.010,6.330 9.010 C 6.137 9.011,6.089 9.032,5.870 9.211 C 5.537 9.484,5.294 9.580,4.890 9.595 C 4.664 9.604,4.608 9.599,4.470 9.561 C 4.234 9.497,4.049 9.400,3.874 9.248 C 3.674 9.075,3.540 8.895,3.451 8.680 C 3.355 8.449,3.335 8.347,3.334 8.090 C 3.332 7.696,3.442 7.418,3.745 7.052 C 3.896 6.869,3.927 6.795,3.929 6.620 C 3.930 6.442,3.880 6.313,3.764 6.193 C 3.667 6.093,3.573 6.046,3.417 6.021 C 3.266 5.996,3.274 5.996,3.159 6.027 " fill="#1A1C1F" stroke="none" fill-rule="evenodd"></path></svg>