<svg xmlns="http://www.w3.org/2000/svg" width="32" height="32" fill="none"><g clip-path="url(#a)"><path fill="#1A1C1F" fill-rule="evenodd" d="M12.406 8.16a3.084 3.084 0 0 0 3.08-3.08A3.084 3.084 0 0 0 12.406 2a3.085 3.085 0 0 0-3.08 3.08 3.084 3.084 0 0 0 3.08 3.08m0-4.16a1.08 1.08 0 1 1 0 2.16 1.08 1.08 0 0 1 0-2.16m-1.98 5.936 2.692 2.653 2.247.577a1.003 1.003 0 0 1 .26 1.832 1 1 0 0 1-.758.107l-2.507-.645a1 1 0 0 1-.453-.257l-2.12-2.089c-.938 1.218-2.423 3.667-1.068 5.637l3.804 3.845c.146.147.242.337.276.541l1.098 6.701a1 1 0 0 1-1.974.324l-1.046-6.387-3.638-3.677a1 1 0 0 1-.101-.118c-2.96-4.106 1.679-8.839 1.878-9.038a1 1 0 0 1 1.41-.006M17.496 27a1.5 1.5 0 1 1 0 3 1.5 1.5 0 0 1 0-3m8.999 0a1.5 1.5 0 1 1 0 3 1.5 1.5 0 0 1 0-3M7.164 20.757a1 1 0 0 1 .713 1.221l-1.913 7.275a1.001 1.001 0 0 1-1.935-.508l1.913-7.275a1 1 0 0 1 1.222-.713M19.996 14a1 1 0 0 1 .97.758l.81 3.242h4.22a1 1 0 0 1 .754 1.657l-2.213 2.54.81 3.243a1 1 0 1 1-1.94.485l-.472-1.89-2.258 2.59a.996.996 0 0 1-1.65-.211 1 1 0 0 1 .142-1.103l4.63-5.31h-2.803a1 1 0 0 1-.97-.759L19.216 16h-1.22a1 1 0 0 1 0-2z" clip-rule="evenodd"/></g><defs><clipPath id="a"><path fill="#fff" d="M0 0h32v32H0z"/></clipPath></defs></svg>