<svg width="12" height="12" viewBox="0 0 12 12" fill="none" xmlns="http://www.w3.org/2000/svg"><path d="M4.864 1.202 C 4.718 1.227,4.562 1.304,4.440 1.414 C 4.231 1.601,4.135 1.810,4.133 2.080 C 4.130 2.340,4.201 2.520,4.378 2.707 C 4.891 3.249,5.792 2.965,5.923 2.221 C 6.004 1.762,5.646 1.278,5.168 1.200 C 5.034 1.178,5.011 1.178,4.864 1.202 M5.100 4.219 C 4.918 4.274,4.747 4.432,4.692 4.595 C 4.628 4.781,4.637 4.821,5.032 6.155 C 5.237 6.845,5.421 7.443,5.442 7.484 C 5.492 7.583,5.604 7.689,5.717 7.744 C 5.809 7.789,5.823 7.790,6.728 7.800 L 7.647 7.810 8.179 9.120 C 8.473 9.841,8.727 10.457,8.745 10.490 C 8.854 10.692,9.115 10.838,9.321 10.814 C 9.473 10.796,9.611 10.726,9.709 10.617 C 9.825 10.488,9.867 10.361,9.856 10.173 C 9.848 10.040,9.807 9.929,9.281 8.630 C 8.970 7.860,8.688 7.177,8.655 7.112 C 8.586 6.973,8.426 6.797,8.305 6.726 C 8.119 6.617,8.088 6.613,7.252 6.601 L 6.475 6.590 6.249 5.876 C 6.125 5.484,5.977 5.016,5.920 4.838 L 5.816 4.513 5.693 4.390 C 5.607 4.303,5.541 4.257,5.471 4.233 C 5.370 4.199,5.188 4.192,5.100 4.219 M3.167 6.018 C 2.998 6.061,2.838 6.213,2.623 6.535 C 2.404 6.861,2.227 7.306,2.168 7.681 C 2.121 7.980,2.138 8.437,2.207 8.710 C 2.480 9.789,3.287 10.557,4.375 10.773 C 4.615 10.821,5.106 10.821,5.347 10.773 C 5.874 10.668,6.365 10.422,6.712 10.087 C 6.877 9.928,6.927 9.814,6.928 9.600 C 6.928 9.365,6.805 9.166,6.596 9.061 C 6.494 9.010,6.450 9.000,6.332 9.000 C 6.156 9.001,6.056 9.043,5.906 9.181 C 5.585 9.474,5.246 9.607,4.830 9.605 C 4.653 9.604,4.575 9.594,4.430 9.551 C 4.147 9.467,3.997 9.377,3.778 9.160 C 3.613 8.997,3.573 8.943,3.493 8.780 C 3.382 8.552,3.343 8.410,3.327 8.169 C 3.299 7.761,3.435 7.404,3.760 7.031 C 3.848 6.929,3.890 6.861,3.913 6.782 C 3.996 6.496,3.857 6.188,3.587 6.061 C 3.486 6.013,3.270 5.991,3.167 6.018 " fill="#1A1C1F" stroke="none" fill-rule="evenodd"></path></svg>