<svg width="12" height="12" viewBox="0 0 12 12" fill="none" xmlns="http://www.w3.org/2000/svg"><path d="M3.800 1.227 C 3.545 1.283,3.308 1.475,3.180 1.729 C 3.112 1.864,3.110 1.875,3.110 2.099 C 3.110 2.322,3.112 2.336,3.178 2.470 C 3.259 2.635,3.443 2.827,3.587 2.897 C 3.957 3.078,4.350 3.012,4.628 2.721 C 4.830 2.508,4.923 2.236,4.880 1.980 C 4.815 1.596,4.519 1.292,4.142 1.220 C 4.009 1.195,3.941 1.197,3.800 1.227 M3.710 3.515 C 3.688 3.520,3.450 3.642,3.180 3.785 C 2.085 4.366,1.802 4.531,1.721 4.633 C 1.649 4.725,1.230 6.090,1.207 6.310 C 1.185 6.515,1.337 6.756,1.555 6.863 C 1.691 6.930,1.911 6.929,2.048 6.862 C 2.277 6.749,2.320 6.666,2.565 5.870 L 2.710 5.398 2.904 5.294 C 3.010 5.237,3.102 5.195,3.107 5.200 C 3.112 5.206,3.071 5.547,3.016 5.960 L 2.915 6.710 2.406 7.950 C 1.519 10.108,1.528 10.084,1.560 10.257 C 1.611 10.535,1.804 10.728,2.073 10.771 C 2.262 10.801,2.553 10.656,2.645 10.485 C 2.705 10.374,2.868 9.990,3.280 8.990 C 3.444 8.594,3.592 8.236,3.610 8.193 C 3.649 8.100,3.659 8.106,3.814 8.315 C 3.916 8.453,3.935 8.499,4.172 9.195 C 4.527 10.241,4.621 10.492,4.682 10.566 C 4.819 10.732,5.114 10.805,5.342 10.729 C 5.504 10.676,5.644 10.526,5.699 10.348 C 5.730 10.249,5.739 10.184,5.730 10.120 C 5.717 10.028,5.317 8.813,5.104 8.218 C 4.974 7.856,5.002 7.903,4.437 7.130 C 4.116 6.691,4.138 6.738,4.160 6.530 C 4.196 6.203,4.284 5.590,4.299 5.563 C 4.309 5.544,4.370 5.598,4.502 5.743 C 4.837 6.112,4.923 6.190,5.029 6.227 C 5.226 6.294,5.465 6.251,5.624 6.120 C 5.666 6.085,5.726 6.002,5.763 5.927 C 5.845 5.761,5.852 5.583,5.783 5.440 C 5.736 5.342,5.409 4.942,4.798 4.237 C 4.273 3.631,4.212 3.571,4.080 3.532 C 3.978 3.501,3.796 3.493,3.710 3.515 M6.346 6.368 C 6.170 6.424,6.030 6.547,5.957 6.710 C 5.867 6.912,5.913 7.176,6.066 7.338 C 6.189 7.468,7.711 8.815,8.260 9.279 C 8.604 9.570,8.665 9.605,8.829 9.606 C 9.127 9.608,9.357 9.430,9.431 9.140 C 9.464 9.015,9.460 8.962,9.408 8.797 C 9.385 8.725,9.342 8.669,9.224 8.557 C 8.921 8.268,7.480 6.997,6.968 6.567 C 6.881 6.495,6.774 6.419,6.730 6.400 C 6.618 6.350,6.448 6.336,6.346 6.368 M10.040 9.630 C 9.761 9.723,9.570 10.016,9.611 10.290 C 9.636 10.459,9.792 10.653,9.980 10.750 C 10.076 10.800,10.323 10.801,10.420 10.751 C 10.541 10.689,10.648 10.589,10.720 10.469 C 10.783 10.363,10.789 10.339,10.789 10.201 C 10.788 10.095,10.777 10.029,10.752 9.980 C 10.606 9.701,10.293 9.547,10.040 9.630 " fill="#1A1C1F" stroke="none" fill-rule="evenodd"></path></svg>