<svg xmlns="http://www.w3.org/2000/svg" width="20" height="20" fill="none"><g clip-path="url(#a)"><path fill="#1A1C1F" fill-rule="evenodd" d="M9.412 5c.862 0 1.5-.702 1.5-1.5 0-.83-.638-1.5-1.5-1.5-.798 0-1.5.67-1.5 1.5 0 .798.702 1.5 1.5 1.5m-1.69 1.016.104.002c.059.001.116-.004.174.007.074.015.14.049.21.08.043.019.089.023.13.049l2.146 1.354A1 1 0 0 1 9.418 9.2l-1.551-.979c-.658.664-.726 1.498-.72 1.861l2.162 3.331c.104.16.16.347.16.538l.023 3.042a1 1 0 0 1-2 .014l-.02-2.749-.785-1.21-.212 1.136q-.012.067-.034.133l-1 3a1 1 0 0 1-1.897-.633l.979-2.935.635-3.396c-.04-.651-.004-2.851 2.072-4.169l.01-.007.04-.028a.2.2 0 0 1 .049-.023l.1-.032c.063-.026.122-.057.189-.07zM11.494 16a1 1 0 1 1 0 2 1 1 0 0 1 0-2m4 0a1 1 0 1 1 0 2 1 1 0 0 1 0-2m-2.106-6.447L14.112 11h1.382a1.002 1.002 0 0 1 .838 1.546l-1.871 2.871a1 1 0 1 1-1.676-1.092l.639-.981-.637-.637q-.004-.007-.01-.013a1 1 0 0 1-.178-.246l-1-2a1 1 0 1 1 1.789-.895" clip-rule="evenodd"/></g><defs><clipPath id="a"><path fill="#fff" d="M0 0h20v20H0z"/></clipPath></defs></svg>