<svg width="20" height="20" viewBox="0 0 20 20" fill="none" xmlns="http://www.w3.org/2000/svg"><path d="M9.100 2.045 C 8.609 2.158,8.150 2.565,8.003 3.017 C 7.907 3.312,7.891 3.467,7.934 3.704 C 8.080 4.515,8.879 5.108,9.648 4.977 C 9.972 4.921,10.209 4.797,10.447 4.559 C 10.733 4.272,10.869 3.986,10.892 3.619 C 10.920 3.160,10.792 2.776,10.514 2.486 C 10.154 2.110,9.584 1.932,9.100 2.045 M7.533 6.062 C 7.271 6.120,6.813 6.455,6.382 6.903 C 5.614 7.704,5.225 8.671,5.151 9.967 C 5.124 10.444,5.060 10.851,4.764 12.450 L 4.529 13.717 4.051 15.167 C 3.488 16.877,3.481 16.903,3.532 17.140 C 3.672 17.794,4.357 18.128,4.956 17.833 C 5.319 17.654,5.325 17.642,5.870 16.033 C 6.327 14.687,6.465 14.216,6.585 13.592 C 6.638 13.321,6.689 13.100,6.699 13.100 C 6.709 13.100,6.734 13.126,6.755 13.158 C 6.775 13.190,6.944 13.451,7.129 13.738 L 7.467 14.260 7.468 15.222 C 7.471 16.633,7.507 17.259,7.599 17.448 C 7.685 17.625,7.888 17.813,8.100 17.911 C 8.289 17.998,8.689 18.005,8.873 17.925 C 9.050 17.848,9.292 17.612,9.393 17.418 C 9.479 17.253,9.481 17.237,9.493 16.450 C 9.500 16.010,9.491 15.206,9.473 14.663 C 9.445 13.836,9.430 13.658,9.382 13.563 C 9.313 13.428,8.808 12.636,7.857 11.172 L 7.157 10.094 7.176 9.798 C 7.202 9.398,7.362 8.933,7.596 8.579 C 7.692 8.433,7.797 8.297,7.827 8.278 C 7.873 8.250,8.021 8.328,8.600 8.688 C 9.625 9.323,9.672 9.347,9.933 9.347 C 10.308 9.346,10.690 9.111,10.849 8.782 C 10.996 8.480,10.937 7.987,10.727 7.748 C 10.567 7.566,8.754 6.379,8.287 6.151 C 8.095 6.056,7.746 6.016,7.533 6.062 M12.300 9.030 C 12.119 9.069,11.851 9.219,11.749 9.340 C 11.546 9.581,11.449 9.988,11.532 10.253 C 11.555 10.325,11.806 10.863,12.091 11.450 L 12.610 12.517 12.966 12.883 C 13.162 13.085,13.338 13.280,13.357 13.317 C 13.386 13.373,13.357 13.437,13.176 13.716 C 13.056 13.899,12.889 14.168,12.804 14.314 C 12.653 14.574,12.650 14.586,12.650 14.865 C 12.650 15.182,12.693 15.301,12.882 15.523 C 13.217 15.914,13.847 15.973,14.227 15.648 C 14.427 15.477,16.233 12.766,16.409 12.372 C 16.504 12.161,16.504 11.839,16.409 11.627 C 16.311 11.408,16.096 11.188,15.891 11.097 C 15.728 11.026,15.663 11.020,14.916 11.007 L 14.115 10.993 13.739 10.248 C 13.324 9.426,13.175 9.221,12.909 9.108 C 12.722 9.029,12.464 8.996,12.300 9.030 M11.232 16.044 C 10.942 16.125,10.740 16.294,10.592 16.579 C 10.490 16.777,10.491 17.225,10.594 17.424 C 10.828 17.875,11.289 18.081,11.765 17.948 C 11.930 17.901,12.015 17.851,12.167 17.711 C 12.407 17.489,12.474 17.334,12.475 17.000 C 12.475 16.690,12.414 16.535,12.210 16.327 C 11.952 16.065,11.560 15.951,11.232 16.044 M15.232 16.044 C 14.942 16.125,14.740 16.294,14.592 16.579 C 14.490 16.777,14.491 17.225,14.594 17.424 C 14.828 17.875,15.289 18.081,15.765 17.948 C 15.930 17.901,16.015 17.851,16.167 17.711 C 16.407 17.489,16.474 17.334,16.475 17.000 C 16.475 16.690,16.414 16.535,16.210 16.327 C 15.952 16.065,15.560 15.951,15.232 16.044 " fill="#1A1C1F" stroke="none" fill-rule="evenodd"></path></svg>