<svg width="14" height="14" viewBox="0 0 14 14" fill="none" xmlns="http://www.w3.org/2000/svg"><path d="M4.433 1.432 C 4.134 1.497,3.852 1.726,3.707 2.020 C 3.631 2.175,3.628 2.191,3.628 2.450 C 3.628 2.709,3.631 2.725,3.708 2.882 C 4.040 3.559,4.892 3.706,5.399 3.174 C 5.552 3.014,5.639 2.847,5.685 2.629 C 5.798 2.087,5.387 1.516,4.816 1.423 C 4.647 1.395,4.596 1.396,4.433 1.432 M4.305 4.111 C 4.266 4.125,3.988 4.268,3.687 4.428 C 2.443 5.087,2.102 5.286,2.008 5.406 C 1.923 5.513,1.435 7.106,1.408 7.362 C 1.382 7.601,1.560 7.882,1.815 8.007 C 1.972 8.085,2.230 8.084,2.390 8.005 C 2.656 7.874,2.700 7.789,2.985 6.870 L 3.162 6.297 3.388 6.176 C 3.512 6.110,3.618 6.061,3.624 6.067 C 3.630 6.073,3.583 6.472,3.518 6.953 L 3.401 7.828 2.806 9.275 C 1.795 11.736,1.788 11.754,1.822 11.967 C 1.867 12.254,2.038 12.449,2.319 12.534 C 2.480 12.583,2.489 12.584,2.635 12.545 C 2.831 12.494,2.997 12.386,3.068 12.265 C 3.138 12.144,3.261 11.858,3.769 10.628 C 3.991 10.089,4.190 9.608,4.211 9.559 C 4.257 9.450,4.269 9.457,4.450 9.701 C 4.569 9.861,4.591 9.916,4.867 10.728 C 5.282 11.948,5.391 12.240,5.462 12.327 C 5.622 12.521,5.966 12.606,6.232 12.518 C 6.421 12.455,6.585 12.281,6.649 12.073 C 6.685 11.957,6.695 11.882,6.685 11.807 C 6.670 11.701,6.201 10.278,5.950 9.576 C 5.802 9.164,5.857 9.254,5.134 8.260 C 4.990 8.061,4.863 7.877,4.853 7.850 C 4.843 7.823,4.844 7.713,4.856 7.605 C 4.894 7.245,4.998 6.522,5.016 6.490 C 5.028 6.468,5.098 6.531,5.252 6.700 C 5.643 7.130,5.743 7.222,5.867 7.264 C 6.097 7.343,6.376 7.292,6.561 7.140 C 6.611 7.099,6.680 7.002,6.724 6.914 C 6.787 6.786,6.799 6.735,6.798 6.606 C 6.795 6.346,6.771 6.310,5.942 5.343 C 5.114 4.378,4.958 4.210,4.837 4.151 C 4.711 4.090,4.418 4.068,4.305 4.111 M7.404 7.430 C 6.989 7.562,6.782 7.999,6.957 8.377 C 7.026 8.527,7.105 8.605,7.852 9.267 C 9.392 10.632,9.940 11.097,10.080 11.160 C 10.349 11.282,10.718 11.168,10.896 10.909 C 10.981 10.786,11.046 10.552,11.025 10.446 C 10.968 10.159,10.957 10.146,10.173 9.447 C 8.880 8.292,7.975 7.520,7.852 7.466 C 7.720 7.408,7.522 7.392,7.404 7.430 M11.629 11.269 C 11.359 11.407,11.212 11.634,11.214 11.911 C 11.215 12.106,11.267 12.225,11.421 12.379 C 11.577 12.535,11.692 12.585,11.900 12.585 C 12.108 12.585,12.223 12.535,12.379 12.379 C 12.536 12.221,12.586 12.107,12.586 11.900 C 12.586 11.693,12.536 11.579,12.379 11.421 C 12.230 11.272,12.152 11.240,11.923 11.229 C 11.757 11.222,11.710 11.228,11.629 11.269 " fill="#1A1C1F" stroke="none" fill-rule="evenodd"></path></svg>