<svg width="28" height="28" viewBox="0 0 28 28" fill="none" xmlns="http://www.w3.org/2000/svg"><path d="M9.526 2.080 C 8.794 2.277,8.082 2.869,7.756 3.550 C 7.505 4.075,7.448 4.361,7.479 4.953 C 7.508 5.518,7.619 5.880,7.891 6.301 C 8.229 6.824,8.715 7.215,9.324 7.456 C 9.607 7.568,9.697 7.580,10.267 7.582 C 10.808 7.583,10.936 7.569,11.174 7.479 C 11.537 7.342,11.895 7.122,12.203 6.848 C 13.182 5.977,13.378 4.396,12.645 3.280 C 12.266 2.702,11.631 2.240,10.992 2.078 C 10.642 1.988,9.862 1.990,9.526 2.080 M10.772 3.869 C 11.034 4.003,11.275 4.303,11.341 4.577 C 11.449 5.030,11.210 5.517,10.763 5.752 C 10.467 5.907,10.031 5.896,9.741 5.726 C 9.401 5.526,9.267 5.288,9.249 4.857 C 9.231 4.423,9.347 4.156,9.642 3.951 C 9.983 3.715,10.408 3.684,10.772 3.869 M9.753 9.455 C 8.931 9.554,8.307 10.014,8.307 10.521 C 8.307 10.914,8.587 11.286,8.958 11.386 C 9.124 11.431,9.213 11.419,9.665 11.290 C 10.238 11.127,10.431 11.129,10.741 11.304 C 11.071 11.488,11.132 11.634,11.874 13.958 C 12.068 14.564,12.268 15.114,12.320 15.180 C 12.372 15.246,12.493 15.349,12.589 15.408 L 12.763 15.517 15.680 15.517 L 18.597 15.517 18.773 15.407 C 18.869 15.347,19.006 15.223,19.076 15.131 C 19.183 14.990,19.203 14.918,19.203 14.673 C 19.203 14.424,19.183 14.352,19.063 14.183 C 18.783 13.787,18.887 13.801,16.091 13.770 L 13.622 13.743 13.169 12.387 C 12.887 11.542,12.656 10.932,12.556 10.768 C 12.243 10.252,11.670 9.773,11.122 9.568 C 10.866 9.472,10.121 9.411,9.753 9.455 M6.315 15.029 C 5.907 15.153,5.164 16.232,4.772 17.267 C 4.450 18.118,4.300 19.498,4.431 20.397 C 4.841 23.204,6.925 25.394,9.694 25.929 C 10.254 26.037,11.407 26.038,11.957 25.931 C 12.428 25.838,13.333 25.536,13.714 25.343 C 14.836 24.774,15.961 23.682,16.506 22.633 C 16.734 22.192,16.639 21.770,16.250 21.494 C 16.093 21.383,16.007 21.358,15.783 21.355 C 15.399 21.350,15.214 21.483,14.841 22.033 C 14.463 22.590,13.754 23.301,13.318 23.559 C 12.939 23.784,12.334 24.041,11.923 24.150 C 11.538 24.253,10.557 24.294,10.149 24.225 C 8.618 23.965,7.318 22.993,6.616 21.583 C 6.271 20.891,6.160 20.374,6.160 19.459 C 6.160 18.364,6.373 17.737,7.130 16.603 C 7.373 16.240,7.438 16.104,7.454 15.926 C 7.506 15.352,6.878 14.857,6.315 15.029 M13.627 17.310 C 13.124 17.340,12.953 17.410,12.758 17.667 C 12.470 18.044,12.596 18.594,13.037 18.888 L 13.264 19.040 16.397 19.040 L 19.531 19.040 20.296 20.802 C 21.299 23.111,21.966 24.582,22.085 24.749 C 22.287 25.033,22.766 25.136,23.123 24.972 C 23.345 24.870,23.445 24.766,23.542 24.535 C 23.685 24.191,23.747 24.367,22.250 20.866 C 20.863 17.622,20.867 17.630,20.623 17.469 C 20.431 17.341,20.397 17.336,19.650 17.306 C 18.721 17.270,14.252 17.272,13.627 17.310 " fill="#1A1C1F" stroke="none" fill-rule="evenodd"></path></svg>