<svg width="32" height="32" viewBox="0 0 32 32" fill="none" xmlns="http://www.w3.org/2000/svg"><path d="M11.802 2.077 C 11.216 2.170,10.359 2.707,9.975 3.221 C 9.695 3.597,9.558 3.887,9.437 4.360 C 9.168 5.410,9.452 6.421,10.235 7.206 C 10.649 7.621,10.998 7.836,11.573 8.031 C 12.006 8.178,12.816 8.170,13.309 8.015 C 14.216 7.730,14.971 6.991,15.318 6.050 C 15.414 5.788,15.434 5.618,15.435 5.067 C 15.436 4.489,15.420 4.357,15.310 4.080 C 14.964 3.202,14.271 2.509,13.425 2.195 C 13.075 2.065,12.254 2.005,11.802 2.077 M12.938 4.163 C 13.039 4.226,13.188 4.363,13.268 4.468 C 13.397 4.637,13.413 4.704,13.413 5.066 C 13.413 5.425,13.395 5.502,13.263 5.701 C 12.910 6.235,12.079 6.275,11.617 5.780 C 11.429 5.579,11.360 5.386,11.360 5.061 C 11.360 4.609,11.636 4.225,12.080 4.061 C 12.304 3.979,12.720 4.028,12.938 4.163 M9.397 9.711 C 8.893 9.864,7.521 11.668,6.903 12.987 C 6.061 14.786,5.938 16.412,6.533 17.876 C 6.842 18.638,7.041 18.885,8.716 20.586 C 9.598 21.483,10.445 22.348,10.597 22.508 L 10.873 22.800 11.330 25.564 C 11.869 28.832,11.972 29.355,12.116 29.588 C 12.452 30.132,13.432 30.080,13.774 29.500 C 13.947 29.208,13.909 28.862,13.309 25.215 C 13.148 24.239,12.953 23.092,12.875 22.667 L 12.734 21.893 12.399 21.520 C 12.215 21.315,11.379 20.444,10.541 19.585 C 9.703 18.726,8.910 17.895,8.777 17.740 C 8.405 17.305,8.258 16.861,8.229 16.080 C 8.208 15.519,8.221 15.376,8.341 14.915 C 8.536 14.158,9.044 13.139,9.626 12.337 L 9.785 12.117 10.907 13.219 L 12.028 14.321 12.587 14.495 C 12.895 14.591,13.591 14.779,14.133 14.914 C 15.025 15.136,15.141 15.154,15.344 15.099 C 15.928 14.939,16.250 14.312,16.025 13.774 C 15.841 13.334,15.668 13.248,14.232 12.880 L 13.111 12.593 11.795 11.296 C 11.072 10.582,10.393 9.932,10.286 9.851 C 10.066 9.683,9.684 9.623,9.397 9.711 M17.772 14.075 C 17.351 14.134,17.012 14.534,17.015 14.968 C 17.017 15.400,17.358 15.861,17.741 15.950 C 17.854 15.976,18.166 15.998,18.433 15.999 C 19.284 16.001,19.196 15.914,19.464 17.005 C 19.591 17.523,19.792 18.295,19.911 18.720 C 20.097 19.386,20.154 19.521,20.320 19.700 C 20.571 19.968,20.719 19.992,22.187 20.000 C 22.817 20.003,23.422 20.023,23.531 20.043 L 23.728 20.080 22.656 21.307 C 21.553 22.569,19.618 24.821,19.204 25.324 C 19.018 25.549,18.965 25.660,18.946 25.863 C 18.882 26.531,19.533 27.102,20.165 26.932 C 20.426 26.862,20.523 26.766,21.884 25.235 C 22.577 24.456,22.909 24.119,22.934 24.168 C 22.955 24.208,23.073 24.624,23.195 25.093 C 23.475 26.163,23.581 26.387,23.884 26.553 C 24.156 26.701,24.542 26.720,24.781 26.596 C 25.019 26.473,25.323 26.111,25.362 25.904 C 25.395 25.728,25.165 24.653,24.741 22.996 C 24.656 22.664,24.587 22.349,24.587 22.295 C 24.587 22.186,24.796 21.916,25.706 20.853 C 26.907 19.450,26.987 19.335,26.985 19.013 C 26.984 18.773,26.839 18.419,26.687 18.284 C 26.457 18.080,26.312 18.066,24.028 18.033 L 21.790 18.000 21.486 16.813 C 20.978 14.829,20.867 14.488,20.668 14.294 C 20.572 14.201,20.400 14.103,20.287 14.077 C 20.061 14.025,18.140 14.023,17.772 14.075 M6.474 20.845 C 6.183 20.982,6.111 21.097,5.896 21.760 C 5.708 22.343,4.812 25.711,4.293 27.786 C 3.964 29.100,3.960 29.188,4.210 29.533 C 4.522 29.964,4.998 30.066,5.500 29.810 C 5.791 29.662,5.879 29.491,6.128 28.593 C 6.786 26.216,7.894 21.864,7.892 21.659 C 7.890 21.413,7.700 21.082,7.477 20.934 C 7.188 20.742,6.771 20.706,6.474 20.845 M26.194 27.045 C 25.903 27.101,25.547 27.307,25.364 27.525 C 25.134 27.798,25.052 28.046,25.046 28.480 C 25.041 28.817,25.064 28.928,25.189 29.184 C 25.732 30.290,27.249 30.245,27.852 29.105 C 28.000 28.825,28.010 28.243,27.872 27.930 C 27.596 27.303,26.862 26.916,26.194 27.045 M16.850 27.172 C 15.911 27.661,15.721 28.795,16.456 29.529 C 16.684 29.757,16.799 29.826,17.113 29.921 L 17.493 30.037 17.874 29.921 C 19.198 29.519,19.388 27.809,18.176 27.203 C 17.747 26.988,17.225 26.976,16.850 27.172 " fill="#1A1C1F" stroke="none" fill-rule="evenodd"></path></svg>