<svg xmlns="http://www.w3.org/2000/svg" width="12" height="12" fill="none"><g clip-path="url(#a)"><path fill="#1A1C1F" fill-rule="evenodd" d="M3.992 3a.9.9 0 1 0 0-1.8.9.9 0 0 0 0 1.8m.79 3.06a.6.6 0 1 0 .909-.784L4.365 3.739a.6.6 0 0 0-.142-.144.6.6 0 0 0-.625-.036l-1.673.896a.6.6 0 0 0-.29.354l-.409 1.337a.6.6 0 1 0 1.148.351l.336-1.102.416-.223-.21 1.541-1.338 3.259a.601.601 0 0 0 1.11.456l.96-2.34.28.38.647 1.923a.601.601 0 0 0 1.137-.383l-.677-2.01a.6.6 0 0 0-.084-.164l-.823-1.123.167-1.218.488.566zm2.12.432a.6.6 0 1 0-.794.9l2.349 2.07a.597.597 0 0 0 .846-.053.6.6 0 0 0-.053-.846zM10.2 9.6c-.31 0-.6.29-.6.6s.29.6.6.6.6-.29.6-.6-.29-.6-.6-.6" clip-rule="evenodd"/></g><defs><clipPath id="a"><path fill="#fff" d="M0 0h12v12H0z"/></clipPath></defs></svg>