<svg xmlns="http://www.w3.org/2000/svg" width="32" height="32" fill="none"><path fill="#1A1C1F" fill-rule="evenodd" d="M10 2.029c-.634.082-1.433.488-1.846.939C7.412 3.776 7.149 4.97 7.485 6a3.09 3.09 0 0 0 2.302 2.08 2.55 2.55 0 0 0 1.225-.001 3.1 3.1 0 0 0 2.159-1.688c.444-.949.42-1.832-.078-2.819-.19-.378-.812-.989-1.232-1.211A3.25 3.25 0 0 0 10 2.029m.814 2.054c.773.322.886 1.312.213 1.854-.509.411-1.377.157-1.617-.472-.335-.876.545-1.741 1.404-1.382M9.28 9.759c-.294.16-3.369 2.702-3.481 2.878-.055.087-.388 1.101-.741 2.254-.535 1.748-.637 2.137-.618 2.348.064.679.774 1.079 1.406.792.381-.173.445-.314 1.071-2.367l.583-1.909.49-.401c.269-.221.49-.371.49-.335 0 .037-.122 1.272-.27 2.745-.217 2.149-.259 2.719-.214 2.884.036.129.589.93 1.486 2.152l1.43 1.947 1.032 3.306c.568 1.819 1.078 3.385 1.134 3.479.217.365.693.556 1.107.443.456-.125.811-.659.725-1.091-.068-.344-2.174-6.997-2.255-7.124-.047-.073-.665-.925-1.374-1.893l-1.289-1.76.373-3.734c.226-2.27.358-3.809.336-3.927-.119-.629-.864-.989-1.421-.687m2.622 2.195a1.1 1.1 0 0 0-.366.319c-.234.353-.221.546.116 1.783.167.612.338 1.179.379 1.259.134.26 1.899 2.027 2.129 2.132a.993.993 0 0 0 1.353-.588c.168-.504.059-.708-.912-1.704l-.814-.835-.255-.957c-.282-1.058-.386-1.255-.752-1.421a1 1 0 0 0-.878.012m4.231 5.957c-.295.141-.456.333-.536.641a1 1 0 0 0 .076.741c.091.17 8.563 8.422 8.739 8.512a.95.95 0 0 0 1.117-.14.95.95 0 0 0 .218-1.196c-.118-.21-8.298-8.229-8.663-8.491-.243-.175-.661-.205-.951-.067M7.44 20.846c-.088.055-.215.16-.282.233-.071.076-.766 1.741-1.646 3.94-1.398 3.495-1.521 3.828-1.499 4.06.081.841 1.132 1.204 1.709.589.106-.113.582-1.241 1.672-3.966 1.444-3.611 1.522-3.823 1.5-4.089a.97.97 0 0 0-.524-.773c-.249-.126-.721-.123-.93.006m19.115 7.278c-.406.214-.631.678-.522 1.078.202.743 1.072 1.021 1.614.515.183-.171.35-.513.352-.719a1.1 1.1 0 0 0-.082-.346c-.237-.569-.841-.803-1.362-.528"/></svg>