<svg width="16" height="16" viewBox="0 0 16 16" fill="none" xmlns="http://www.w3.org/2000/svg"><path d="M6.453 1.629 C 6.124 1.693,5.774 1.980,5.620 2.313 C 5.550 2.465,5.535 2.534,5.526 2.747 C 5.517 2.957,5.525 3.029,5.573 3.172 C 5.712 3.585,5.997 3.851,6.418 3.960 C 6.950 4.099,7.533 3.833,7.779 3.341 C 8.010 2.877,7.934 2.368,7.577 1.993 C 7.271 1.670,6.884 1.545,6.453 1.629 M6.755 5.648 C 6.448 5.758,6.245 6.026,6.222 6.353 C 6.211 6.509,6.244 6.633,6.715 8.216 C 6.993 9.149,7.235 9.939,7.252 9.972 C 7.315 10.089,7.479 10.245,7.612 10.315 L 7.747 10.387 8.969 10.400 L 10.192 10.413 10.916 12.200 L 11.640 13.987 11.800 14.148 C 11.927 14.277,11.992 14.319,12.116 14.358 C 12.496 14.476,12.886 14.308,13.058 13.952 C 13.117 13.828,13.130 13.763,13.130 13.600 L 13.130 13.400 12.376 11.533 C 11.961 10.507,11.584 9.590,11.539 9.496 C 11.441 9.296,11.239 9.064,11.083 8.975 C 10.812 8.819,10.790 8.816,9.670 8.801 L 8.633 8.787 8.214 7.467 C 7.984 6.741,7.770 6.098,7.740 6.038 C 7.567 5.702,7.110 5.521,6.755 5.648 M4.174 8.043 C 3.834 8.151,3.275 8.961,3.044 9.680 C 2.907 10.106,2.872 10.321,2.871 10.760 C 2.869 11.528,3.065 12.174,3.496 12.819 C 3.676 13.090,4.195 13.605,4.467 13.783 C 5.376 14.381,6.469 14.551,7.507 14.254 C 7.808 14.168,8.381 13.885,8.627 13.701 C 8.928 13.476,9.131 13.259,9.182 13.109 C 9.238 12.943,9.239 12.660,9.185 12.500 C 9.127 12.330,8.961 12.151,8.779 12.061 C 8.655 12.001,8.591 11.987,8.440 11.987 C 8.204 11.988,8.073 12.047,7.836 12.256 C 7.397 12.645,6.898 12.825,6.347 12.791 C 6.048 12.773,5.801 12.703,5.507 12.552 C 5.344 12.468,5.237 12.385,5.053 12.201 C 4.641 11.787,4.482 11.428,4.460 10.862 C 4.438 10.301,4.584 9.885,4.956 9.451 C 5.194 9.173,5.233 9.095,5.248 8.863 C 5.263 8.622,5.208 8.447,5.064 8.284 C 4.857 8.048,4.479 7.945,4.174 8.043 " fill="#1A1C1F" stroke="none" fill-rule="evenodd"></path></svg>