<svg width="28" height="28" viewBox="0 0 28 28" fill="none" xmlns="http://www.w3.org/2000/svg"><path d="M9.845 2.007 C 9.271 2.097,8.793 2.330,8.354 2.737 C 7.406 3.614,7.179 4.976,7.785 6.137 C 8.129 6.795,8.829 7.345,9.567 7.538 C 9.948 7.637,10.616 7.637,10.988 7.537 C 11.650 7.360,12.350 6.844,12.685 6.286 C 13.546 4.853,13.017 3.018,11.525 2.263 C 11.069 2.031,10.372 1.925,9.845 2.007 M10.783 3.862 C 11.076 4.010,11.312 4.319,11.363 4.619 C 11.530 5.605,10.337 6.264,9.563 5.613 C 9.114 5.236,9.096 4.429,9.527 4.028 C 9.858 3.720,10.369 3.652,10.783 3.862 M9.457 9.501 C 8.724 9.678,8.307 10.059,8.307 10.551 C 8.307 10.957,8.566 11.285,8.972 11.393 C 9.157 11.443,9.218 11.434,9.651 11.294 C 10.042 11.168,10.170 11.145,10.371 11.169 C 10.676 11.205,10.950 11.389,11.097 11.655 C 11.156 11.762,11.422 12.538,11.688 13.380 C 11.953 14.221,12.192 14.963,12.217 15.027 C 12.283 15.190,12.547 15.424,12.735 15.487 C 12.958 15.562,18.402 15.562,18.625 15.487 C 18.826 15.420,19.079 15.188,19.162 14.993 C 19.333 14.596,19.142 14.091,18.737 13.867 C 18.613 13.799,18.308 13.787,16.105 13.767 L 13.614 13.743 13.210 12.483 C 12.973 11.746,12.730 11.079,12.622 10.874 C 12.274 10.217,11.612 9.680,10.920 9.496 C 10.596 9.410,9.821 9.412,9.457 9.501 M6.306 15.034 C 5.846 15.166,5.032 16.421,4.676 17.547 C 4.316 18.687,4.279 19.981,4.574 21.143 C 4.961 22.664,5.940 24.050,7.244 24.922 C 7.977 25.413,8.706 25.721,9.569 25.905 C 10.280 26.057,11.403 26.058,12.081 25.908 C 13.395 25.615,14.480 25.035,15.371 24.148 C 15.821 23.700,16.066 23.390,16.379 22.868 C 16.644 22.427,16.689 22.261,16.616 21.990 C 16.476 21.468,15.907 21.194,15.422 21.414 C 15.211 21.510,15.077 21.660,14.744 22.174 C 14.477 22.585,13.972 23.109,13.553 23.408 C 13.172 23.680,12.468 24.010,12.010 24.132 C 11.483 24.273,10.507 24.305,9.982 24.199 C 8.144 23.827,6.696 22.431,6.245 20.594 C 6.126 20.110,6.103 19.102,6.200 18.643 C 6.354 17.915,6.676 17.202,7.107 16.637 C 7.481 16.147,7.545 15.881,7.379 15.515 C 7.274 15.285,7.056 15.093,6.824 15.029 C 6.618 14.972,6.518 14.973,6.306 15.034 M13.277 17.310 C 12.962 17.386,12.672 17.666,12.620 17.945 C 12.540 18.373,12.713 18.736,13.087 18.924 L 13.318 19.040 16.426 19.040 L 19.534 19.040 20.745 21.827 C 21.530 23.632,22.006 24.671,22.096 24.774 C 22.268 24.971,22.471 25.060,22.750 25.060 C 23.299 25.060,23.677 24.628,23.600 24.089 C 23.580 23.946,21.121 18.192,20.887 17.740 C 20.786 17.545,20.549 17.375,20.299 17.317 C 20.059 17.262,13.504 17.255,13.277 17.310 " fill="#1A1C1F" stroke="none" fill-rule="evenodd"></path></svg>