<svg width="16" height="16" viewBox="0 0 16 16" fill="none" xmlns="http://www.w3.org/2000/svg"><path d="M7.307 1.629 C 7.109 1.668,6.852 1.811,6.692 1.971 C 6.414 2.250,6.312 2.570,6.369 2.983 C 6.405 3.243,6.496 3.418,6.699 3.622 C 7.082 4.006,7.608 4.098,8.078 3.863 C 8.522 3.641,8.806 3.087,8.721 2.608 C 8.602 1.943,7.963 1.501,7.307 1.629 M6.023 4.853 C 5.709 4.933,5.059 5.493,4.755 5.947 C 4.373 6.517,4.192 7.095,4.135 7.936 C 4.106 8.359,4.076 8.551,3.811 9.987 L 3.624 11.000 3.280 12.040 C 2.762 13.604,2.761 13.609,2.845 13.855 C 2.913 14.056,3.170 14.302,3.373 14.361 C 3.652 14.442,3.956 14.364,4.162 14.158 C 4.283 14.037,4.334 13.907,4.774 12.587 C 5.126 11.532,5.216 11.218,5.296 10.766 C 5.324 10.609,5.354 10.509,5.371 10.514 C 5.387 10.519,5.528 10.714,5.685 10.948 L 5.970 11.373 5.973 11.853 C 5.975 12.117,5.986 12.664,5.997 13.068 C 6.015 13.745,6.022 13.813,6.075 13.923 C 6.251 14.286,6.661 14.474,7.026 14.359 C 7.213 14.300,7.435 14.107,7.525 13.926 L 7.587 13.800 7.587 12.467 C 7.587 11.474,7.578 11.096,7.552 10.987 C 7.514 10.824,7.503 10.806,6.444 9.174 L 5.727 8.068 5.745 7.847 C 5.781 7.399,5.930 7.035,6.237 6.642 L 6.287 6.578 6.817 6.908 C 7.418 7.282,7.739 7.455,7.880 7.482 C 8.018 7.508,8.280 7.430,8.435 7.317 C 8.676 7.142,8.801 6.846,8.749 6.573 C 8.689 6.258,8.629 6.180,8.244 5.923 C 7.842 5.654,6.768 4.985,6.613 4.906 C 6.479 4.838,6.188 4.812,6.023 4.853 M9.840 7.224 C 9.412 7.314,9.105 7.791,9.226 8.176 C 9.244 8.233,9.451 8.676,9.685 9.160 L 10.112 10.040 10.426 10.360 L 10.741 10.680 10.516 11.027 C 10.156 11.579,10.121 11.657,10.122 11.893 C 10.123 12.056,10.136 12.119,10.194 12.230 C 10.283 12.403,10.473 12.571,10.643 12.628 C 10.810 12.683,11.081 12.682,11.224 12.625 C 11.390 12.558,11.530 12.382,12.092 11.534 C 12.794 10.475,13.096 9.987,13.155 9.813 C 13.275 9.465,13.089 9.052,12.738 8.882 C 12.623 8.827,12.567 8.821,11.953 8.807 L 11.291 8.792 10.989 8.196 C 10.823 7.868,10.653 7.552,10.612 7.495 C 10.474 7.306,10.091 7.171,9.840 7.224 M9.027 12.824 C 8.792 12.885,8.566 13.070,8.470 13.278 C 8.389 13.455,8.391 13.756,8.475 13.925 C 8.554 14.085,8.715 14.246,8.875 14.325 C 9.047 14.410,9.320 14.410,9.507 14.325 C 9.790 14.196,10.000 13.894,10.000 13.615 C 10.000 13.322,9.789 12.998,9.524 12.884 C 9.375 12.820,9.146 12.792,9.027 12.824 M12.227 12.824 C 11.992 12.885,11.766 13.070,11.670 13.278 C 11.589 13.455,11.591 13.756,11.675 13.925 C 11.754 14.085,11.915 14.246,12.075 14.325 C 12.247 14.410,12.520 14.410,12.707 14.325 C 12.990 14.196,13.200 13.894,13.200 13.615 C 13.200 13.322,12.989 12.998,12.724 12.884 C 12.575 12.820,12.346 12.792,12.227 12.824 " fill="#1A1C1F" stroke="none" fill-rule="evenodd"></path></svg>