<svg xmlns="http://www.w3.org/2000/svg" width="28" height="28" fill="none"><g clip-path="url(#a)"><path fill="#1A1C1F" fill-rule="evenodd" d="M10.856 7.14a2.7 2.7 0 0 0 2.694-2.696 2.7 2.7 0 0 0-2.695-2.695A2.7 2.7 0 0 0 8.16 4.444a2.7 2.7 0 0 0 2.695 2.695m0-3.64a.946.946 0 1 1 .06 1.891.946.946 0 0 1-.06-1.892M9.12 8.693l2.355 2.321 1.967.506a.876.876 0 0 1-.436 1.696l-2.193-.565a.9.9 0 0 1-.398-.224L8.563 10.6c-.82 1.066-2.12 3.209-.934 4.933l3.328 3.364c.127.129.212.294.242.474l.96 5.862a.875.875 0 1 1-1.727.284l-.915-5.588-3.183-3.217a1 1 0 0 1-.09-.104c-2.494-3.463 1.184-7.434 1.61-7.874l.035-.035a.875.875 0 0 1 1.233-.005m-2.853 9.469a.87.87 0 0 1 .624 1.069l-1.674 6.365a.876.876 0 0 1-1.693-.445l1.674-6.366a.87.87 0 0 1 1.069-.623m9.04 5.462a1.312 1.312 0 1 1 0 2.624 1.312 1.312 0 0 1 0-2.624m7.875 0a1.312 1.312 0 1 1 0 2.624 1.312 1.312 0 0 1 0-2.624M17.497 12.25c.4 0 .75.274.849.662l.71 2.837h3.69a.875.875 0 0 1 .66 1.45l-1.936 2.223.71 2.837a.873.873 0 0 1-.637 1.061.875.875 0 0 1-1.061-.637l-.415-1.654-1.974 2.268a.87.87 0 0 1-1.444-.186.875.875 0 0 1 .123-.965l4.05-4.646h-2.45a.876.876 0 0 1-.85-.663l-.71-2.838h-1.066a.875.875 0 0 1 0-1.75z" clip-rule="evenodd"/></g><defs><clipPath id="a"><path fill="#fff" d="M0 0h28v28H0z"/></clipPath></defs></svg>