<svg width="32" height="32" viewBox="0 0 32 32" fill="none" xmlns="http://www.w3.org/2000/svg"><path d="M10.887 2.377 C 10.051 2.602,9.236 3.279,8.864 4.057 C 8.577 4.657,8.512 4.984,8.547 5.661 C 8.580 6.301,8.707 6.720,9.008 7.185 C 9.402 7.794,9.931 8.222,10.640 8.507 C 11.124 8.702,11.938 8.750,12.501 8.618 C 13.591 8.362,14.520 7.457,14.859 6.320 C 14.925 6.100,14.954 5.834,14.951 5.467 C 14.945 4.518,14.607 3.758,13.905 3.116 C 13.512 2.756,13.043 2.497,12.562 2.374 C 12.162 2.272,11.271 2.274,10.887 2.377 M12.305 4.419 C 13.560 5.059,12.927 6.926,11.542 6.670 C 10.832 6.539,10.527 6.136,10.569 5.384 C 10.596 4.908,10.779 4.626,11.200 4.409 C 11.448 4.281,11.539 4.262,11.791 4.283 C 11.954 4.297,12.185 4.358,12.305 4.419 M11.008 10.829 C 10.400 10.909,9.716 11.304,9.566 11.662 C 9.346 12.189,9.672 12.853,10.229 13.015 C 10.390 13.062,10.500 13.052,10.827 12.962 C 11.753 12.706,11.949 12.706,12.363 12.961 C 12.621 13.119,12.796 13.536,13.417 15.477 C 13.714 16.408,13.998 17.230,14.047 17.305 C 14.096 17.379,14.236 17.506,14.357 17.587 L 14.579 17.733 17.925 17.733 L 21.271 17.733 21.502 17.573 C 21.764 17.391,21.973 17.030,21.973 16.760 C 21.973 16.354,21.673 15.933,21.309 15.831 C 21.167 15.791,20.143 15.759,18.324 15.738 L 15.555 15.707 15.489 15.493 C 15.096 14.231,14.571 12.714,14.442 12.471 C 14.128 11.874,13.595 11.359,12.965 11.042 C 12.500 10.808,11.774 10.729,11.008 10.829 M7.261 17.172 C 6.736 17.299,5.813 18.662,5.388 19.935 C 5.100 20.802,5.040 21.212,5.041 22.320 C 5.041 23.721,5.210 24.467,5.789 25.627 C 6.521 27.094,7.687 28.254,9.138 28.958 C 10.358 29.549,11.093 29.725,12.347 29.725 C 13.297 29.724,13.793 29.650,14.609 29.385 C 16.239 28.857,17.543 27.874,18.534 26.427 C 18.923 25.858,19.059 25.530,19.017 25.262 C 18.937 24.756,18.527 24.402,18.022 24.402 C 17.599 24.402,17.381 24.562,16.961 25.181 C 16.775 25.455,16.392 25.910,16.111 26.190 C 15.562 26.737,15.126 27.031,14.405 27.335 C 13.667 27.645,13.406 27.693,12.400 27.697 C 11.366 27.701,10.996 27.626,10.202 27.254 C 8.766 26.581,7.746 25.412,7.222 23.840 C 7.077 23.406,7.071 23.343,7.069 22.347 C 7.067 21.421,7.080 21.261,7.187 20.891 C 7.355 20.313,7.607 19.803,8.092 19.064 C 8.487 18.461,8.507 18.417,8.507 18.127 C 8.507 17.875,8.479 17.783,8.346 17.594 C 8.088 17.227,7.684 17.070,7.261 17.172 M15.573 19.779 C 15.000 19.818,14.802 19.900,14.580 20.190 C 14.252 20.621,14.395 21.250,14.899 21.587 L 15.159 21.760 18.740 21.760 L 22.322 21.760 23.172 23.720 C 24.277 26.269,25.103 28.094,25.240 28.286 C 25.481 28.623,26.038 28.731,26.455 28.520 C 26.922 28.284,27.075 27.857,26.886 27.316 C 26.619 26.552,23.950 20.390,23.786 20.159 C 23.727 20.076,23.568 19.955,23.431 19.889 L 23.183 19.769 19.631 19.757 C 17.678 19.750,15.852 19.760,15.573 19.779 " fill="#1A1C1F" stroke="none" fill-rule="evenodd"></path></svg>