<svg width="14" height="14" viewBox="0 0 14 14" fill="none" xmlns="http://www.w3.org/2000/svg"><path d="M6.357 1.433 C 5.894 1.545,5.555 1.980,5.554 2.463 C 5.553 2.745,5.660 2.974,5.899 3.202 C 6.173 3.463,6.501 3.555,6.844 3.465 C 7.035 3.415,7.140 3.356,7.301 3.206 C 7.744 2.796,7.750 2.112,7.313 1.693 C 7.062 1.453,6.691 1.351,6.357 1.433 M5.243 4.255 C 5.086 4.299,4.836 4.477,4.567 4.735 C 4.275 5.015,4.137 5.199,3.979 5.518 C 3.745 5.992,3.657 6.334,3.617 6.930 C 3.589 7.345,3.534 7.691,3.314 8.855 L 3.172 9.602 2.818 10.663 C 2.495 11.629,2.463 11.740,2.463 11.888 C 2.463 12.096,2.532 12.259,2.676 12.392 C 2.971 12.663,3.371 12.654,3.648 12.370 C 3.752 12.264,3.852 12.008,4.201 10.949 C 4.467 10.144,4.557 9.830,4.620 9.494 C 4.648 9.348,4.679 9.219,4.690 9.208 C 4.700 9.197,4.824 9.360,4.965 9.571 L 5.221 9.954 5.238 11.015 C 5.255 12.012,5.258 12.081,5.303 12.168 C 5.446 12.452,5.743 12.625,6.028 12.592 C 6.281 12.562,6.469 12.419,6.596 12.161 L 6.657 12.037 6.640 10.848 C 6.631 10.193,6.613 9.625,6.602 9.584 C 6.571 9.477,6.330 9.090,5.488 7.793 L 5.011 7.059 5.025 6.872 C 5.044 6.621,5.093 6.446,5.215 6.195 C 5.317 5.984,5.462 5.787,5.516 5.787 C 5.532 5.787,5.770 5.925,6.045 6.094 C 6.799 6.557,6.906 6.598,7.155 6.520 C 7.413 6.439,7.579 6.258,7.645 5.990 C 7.681 5.842,7.681 5.822,7.645 5.691 C 7.582 5.466,7.510 5.381,7.211 5.181 C 6.869 4.952,5.924 4.363,5.789 4.295 C 5.661 4.229,5.401 4.210,5.243 4.255 M8.610 6.321 C 8.377 6.367,8.152 6.571,8.085 6.798 C 8.007 7.060,8.024 7.110,8.530 8.120 L 8.886 8.832 9.142 9.085 L 9.398 9.339 9.189 9.665 C 8.903 10.108,8.855 10.216,8.856 10.407 C 8.858 10.602,8.931 10.770,9.069 10.898 C 9.183 11.003,9.273 11.048,9.448 11.085 C 9.644 11.127,9.920 11.030,10.052 10.874 C 10.187 10.714,11.348 8.921,11.476 8.674 C 11.640 8.357,11.486 7.936,11.145 7.771 C 11.042 7.722,10.997 7.718,10.458 7.706 L 9.880 7.693 9.616 7.171 C 9.470 6.884,9.321 6.608,9.285 6.558 C 9.166 6.394,8.834 6.277,8.610 6.321 M7.897 11.221 C 7.761 11.256,7.577 11.374,7.498 11.478 C 7.229 11.830,7.356 12.333,7.765 12.534 C 7.912 12.606,8.174 12.607,8.334 12.535 C 8.474 12.473,8.624 12.322,8.686 12.183 C 8.752 12.035,8.753 11.766,8.688 11.620 C 8.564 11.343,8.178 11.148,7.897 11.221 M10.697 11.221 C 10.561 11.256,10.377 11.374,10.298 11.478 C 10.029 11.830,10.156 12.333,10.565 12.534 C 10.712 12.606,10.974 12.607,11.134 12.535 C 11.274 12.473,11.424 12.322,11.486 12.183 C 11.552 12.035,11.553 11.766,11.488 11.620 C 11.364 11.343,10.978 11.148,10.697 11.221 " fill="#1A1C1F" stroke="none" fill-rule="evenodd"></path></svg>