<svg width="32" height="32" viewBox="0 0 32 32" fill="none" xmlns="http://www.w3.org/2000/svg"><path d="M9.453 2.178 C 8.922 2.367,8.392 2.702,8.099 3.034 C 7.833 3.335,7.556 3.874,7.444 4.306 C 7.338 4.713,7.336 5.432,7.439 5.829 C 7.845 7.387,9.452 8.413,10.966 8.082 C 11.801 7.899,12.483 7.446,12.935 6.773 C 13.482 5.959,13.618 5.013,13.317 4.127 C 13.139 3.605,12.962 3.319,12.581 2.939 C 11.937 2.297,11.430 2.078,10.507 2.044 C 9.933 2.023,9.865 2.032,9.453 2.178 M11.006 4.197 C 11.483 4.533,11.592 5.119,11.275 5.638 C 10.987 6.108,10.469 6.251,9.941 6.006 C 9.285 5.700,9.139 4.891,9.643 4.353 C 10.003 3.969,10.587 3.902,11.006 4.197 M9.360 9.727 C 9.189 9.802,8.242 10.548,6.997 11.589 C 5.700 12.675,5.810 12.531,5.474 13.573 C 5.088 14.767,4.614 16.342,4.502 16.803 C 4.386 17.281,4.454 17.570,4.747 17.834 C 5.107 18.159,5.570 18.211,5.966 17.970 C 6.220 17.816,6.372 17.438,6.977 15.466 L 7.503 13.752 7.892 13.434 C 8.106 13.259,8.328 13.091,8.386 13.060 C 8.486 13.006,8.490 13.017,8.458 13.262 C 8.354 14.070,8.000 17.881,7.995 18.246 L 7.988 18.678 8.354 19.219 C 8.555 19.517,9.214 20.434,9.817 21.257 L 10.914 22.754 11.570 24.857 C 12.486 27.794,13.049 29.499,13.149 29.641 C 13.245 29.778,13.545 29.943,13.796 29.997 C 14.196 30.083,14.680 29.767,14.857 29.305 C 14.940 29.087,14.943 29.026,14.881 28.786 C 14.794 28.444,13.949 25.738,13.228 23.489 L 12.680 21.778 11.339 19.945 L 9.998 18.111 10.250 15.576 C 10.658 11.480,10.734 10.523,10.667 10.320 C 10.505 9.831,9.827 9.524,9.360 9.727 M11.973 11.936 C 11.693 12.068,11.428 12.375,11.381 12.622 C 11.342 12.834,11.580 13.894,11.890 14.880 L 12.049 15.387 12.669 16.040 C 13.010 16.399,13.489 16.871,13.734 17.089 C 14.104 17.418,14.220 17.492,14.419 17.522 C 14.857 17.587,15.285 17.349,15.473 16.936 C 15.708 16.418,15.570 16.151,14.521 15.085 L 13.802 14.354 13.564 13.489 C 13.433 13.012,13.276 12.517,13.215 12.387 C 13.003 11.936,12.423 11.725,11.973 11.936 M16.256 17.863 C 15.727 18.033,15.440 18.641,15.630 19.187 C 15.668 19.295,16.715 20.353,18.684 22.274 C 24.475 27.924,24.365 27.819,24.637 27.893 C 25.369 28.090,26.086 27.287,25.794 26.598 C 25.670 26.307,17.367 18.130,17.004 17.942 C 16.813 17.843,16.441 17.804,16.256 17.863 M7.592 20.784 C 7.529 20.796,7.392 20.883,7.288 20.976 C 7.139 21.110,7.017 21.340,6.718 22.053 C 6.086 23.560,4.344 27.938,4.158 28.489 C 3.996 28.968,3.988 29.020,4.050 29.243 C 4.165 29.652,4.601 29.975,5.035 29.972 C 5.263 29.971,5.628 29.795,5.731 29.637 C 5.890 29.395,6.339 28.327,7.462 25.526 C 8.772 22.255,8.936 21.797,8.886 21.533 C 8.782 20.977,8.232 20.658,7.592 20.784 M26.667 28.082 C 26.060 28.354,25.847 28.976,26.181 29.502 C 26.355 29.777,26.694 29.973,26.992 29.973 C 27.269 29.973,27.629 29.767,27.813 29.502 C 28.221 28.915,27.828 28.113,27.089 28.026 C 26.936 28.008,26.788 28.028,26.667 28.082 " fill="#1A1C1F" stroke="none" fill-rule="evenodd"></path></svg>