<svg xmlns="http://www.w3.org/2000/svg" width="12" height="12" fill="none"><g clip-path="url(#a)"><path fill="#1A1C1F" fill-rule="evenodd" d="M5.65 3c.518 0 .9-.422.9-.9 0-.499-.382-.9-.9-.9-.478 0-.9.401-.9.9 0 .478.422.9.9.9m-1.013.609.062.001c.035 0 .069-.002.104.005.045.008.086.029.126.048.026.01.054.013.078.029l1.288.812a.6.6 0 0 1-.64 1.015l-.932-.587c-.394.399-.435.898-.432 1.116l1.298 2a.6.6 0 0 1 .096.323l.014 1.826a.6.6 0 1 1-1.2.008l-.012-1.651-.472-.726-.126.681a1 1 0 0 1-.021.08l-.6 1.8a.6.6 0 0 1-1.138-.38l.588-1.761.38-2.038c-.024-.39-.002-1.71 1.243-2.5l.031-.022c.027-.018.06-.021.09-.033.037-.015.072-.034.112-.043zm2.262 5.99a.6.6 0 1 1 0 1.2.6.6 0 0 1 0-1.2m2.4 0a.6.6 0 1 1 0 1.2.6.6 0 0 1 0-1.2M8.036 5.731l.435.868H9.3a.6.6 0 0 1 .503.928L8.68 9.25a.6.6 0 0 1-1.005-.655l.383-.59-.383-.381-.005-.009a.6.6 0 0 1-.107-.147l-.6-1.2a.6.6 0 1 1 1.073-.537" clip-rule="evenodd"/></g><defs><clipPath id="a"><path fill="#fff" d="M0 0h12v12H0z"/></clipPath></defs></svg>