<svg xmlns="http://www.w3.org/2000/svg" width="28" height="28" fill="none"><g clip-path="url(#a)"><path fill="#1A1C1F" fill-rule="evenodd" d="M8.925 8.545a.87.87 0 0 1 .456.857l-.645 6.445 2.307 3.145q.085.118.13.256l1.835 5.863a.874.874 0 1 1-1.67.523l-1.79-5.726-2.42-3.296a.88.88 0 0 1-.164-.605l.468-4.677-.873.714-.98 3.213a.876.876 0 1 1-1.676-.51l1.06-3.468a.87.87 0 0 1 .281-.42l2.714-2.22a.87.87 0 0 1 .968-.095zm-1.677 9.65c.45.18.668.69.487 1.138l-2.547 6.365a.876.876 0 0 1-1.625-.652l2.55-6.365a.874.874 0 0 1 1.136-.488zm6.602-2.34a.875.875 0 0 1 1.236-.016l7.272 7.084a.877.877 0 0 1-.594 1.516.87.87 0 0 1-.626-.263l-7.272-7.084a.875.875 0 0 1-.016-1.237m-2.197-4.857.422 1.55 1.3 1.327a.876.876 0 0 1-1.252 1.224l-1.457-1.49a.9.9 0 0 1-.218-.382l-.484-1.768a.875.875 0 0 1 1.688-.46m11.972 13.498c-.453 0-.875.423-.875.875 0 .453.422.875.875.875.451 0 .875-.422.875-.875 0-.452-.424-.875-.875-.875M9.107 7.138a2.7 2.7 0 0 0 2.696-2.695 2.7 2.7 0 0 0-2.695-2.695 2.7 2.7 0 0 0-2.695 2.695 2.7 2.7 0 0 0 2.694 2.695m0-3.64A.946.946 0 1 1 9.17 5.39a.946.946 0 0 1-.062-1.89" clip-rule="evenodd"/></g><defs><clipPath id="a"><path fill="#fff" d="M0 0h28v28H0z"/></clipPath></defs></svg>