<svg xmlns="http://www.w3.org/2000/svg" width="32" height="32" fill="none"><g clip-path="url(#a)"><path fill="#1A1C1F" fill-rule="evenodd" d="M8.285 20.786a1 1 0 0 1 .557 1.301L5.93 29.362a1.001 1.001 0 0 1-1.857-.744l2.913-7.275a1 1 0 0 1 1.3-.557m1.916-11.028a1 1 0 0 1 .522.98l-.737 7.365 2.636 3.594q.097.135.147.293l2.1 6.7a1 1 0 1 1-1.909.598l-2.048-6.543-2.764-3.768a1 1 0 0 1-.188-.691l.535-5.345-.997.816-1.122 3.672a.998.998 0 0 1-1.84.177 1 1 0 0 1-.074-.761l1.21-3.962a1 1 0 0 1 .323-.481l3.1-2.537a1 1 0 0 1 1.106-.107m5.628 8.354a1 1 0 0 1 1.414-.018l8.31 8.096a1 1 0 1 1-1.395 1.432l-8.31-8.096a1 1 0 0 1-.019-1.414m-2.51-5.55.483 1.771 1.484 1.518a1 1 0 0 1-1.43 1.398l-1.665-1.703a1 1 0 0 1-.25-.436l-.552-2.02a1 1 0 0 1 1.93-.528m13.68 15.427c-.517 0-1 .483-1 1s.483 1 1 1 1-.483 1-1-.483-1-1-1M10.41 8.15a3.084 3.084 0 0 0 3.08-3.08 3.084 3.084 0 0 0-3.08-3.08 3.084 3.084 0 0 0-3.08 3.08 3.084 3.084 0 0 0 3.08 3.08m0-4.16a1.08 1.08 0 1 1 0 2.161 1.08 1.08 0 0 1 0-2.161" clip-rule="evenodd"/></g><defs><clipPath id="a"><path fill="#fff" d="M0 0h32v32H0z"/></clipPath></defs></svg>