<svg xmlns="http://www.w3.org/2000/svg" width="20" height="20" fill="none"><g clip-path="url(#a)"><path fill="#1A1C1F" fill-rule="evenodd" d="M6.655 5a1.5 1.5 0 1 0 0-3 1.5 1.5 0 0 0-.001 3m1.317 5.1a1 1 0 1 0 1.514-1.306l-2.21-2.561a1 1 0 0 0-.236-.241 1 1 0 0 0-1.043-.06L3.21 7.426a1 1 0 0 0-.484.589l-.682 2.23a1 1 0 0 0 1.913.584l.56-1.836.695-.372-.351 2.567-2.23 5.432a1.001 1.001 0 0 0 1.85.76l1.6-3.898.466.634 1.079 3.204a1.001 1.001 0 0 0 1.896-.64l-1.128-3.35a1 1 0 0 0-.141-.271L6.88 11.187l.278-2.031.814.942zm3.534.72a1 1 0 1 0-1.324 1.5l3.913 3.451a.99.99 0 0 0 1.228.073 1 1 0 0 0 .094-1.572l-3.913-3.452zM17 16c-.517 0-1 .483-1 1s.483 1 1 1 1-.483 1-1-.483-1-1-1" clip-rule="evenodd"/></g><defs><clipPath id="a"><path fill="#fff" d="M0 0h20v20H0z"/></clipPath></defs></svg>