<svg width="14" height="14" viewBox="0 0 14 14" fill="none" xmlns="http://www.w3.org/2000/svg"><path d="M5.652 1.425 C 5.517 1.451,5.291 1.575,5.160 1.694 C 4.884 1.943,4.769 2.345,4.866 2.718 C 4.918 2.920,5.008 3.066,5.171 3.219 C 5.483 3.511,5.946 3.577,6.336 3.385 C 6.726 3.192,6.975 2.736,6.912 2.327 C 6.818 1.720,6.243 1.308,5.652 1.425 M5.997 4.922 C 5.686 4.985,5.447 5.283,5.452 5.600 C 5.455 5.761,5.483 5.864,5.965 7.489 C 6.345 8.769,6.331 8.731,6.460 8.864 C 6.522 8.927,6.626 9.006,6.692 9.039 L 6.812 9.100 7.647 9.100 C 8.106 9.100,8.581 9.107,8.703 9.115 L 8.925 9.130 9.552 10.684 L 10.178 12.238 10.309 12.364 C 10.483 12.533,10.607 12.587,10.815 12.587 C 11.189 12.587,11.451 12.333,11.490 11.931 L 11.506 11.764 11.059 10.660 C 10.091 8.268,10.054 8.184,9.887 8.017 C 9.758 7.889,9.550 7.767,9.403 7.734 C 9.358 7.724,8.924 7.710,8.437 7.702 L 7.552 7.688 7.534 7.630 C 7.375 7.117,6.910 5.670,6.847 5.491 C 6.792 5.337,6.735 5.221,6.682 5.160 C 6.536 4.988,6.216 4.877,5.997 4.922 M3.714 7.024 C 3.311 7.106,2.726 8.039,2.557 8.872 C 2.508 9.108,2.508 9.677,2.556 9.954 C 2.631 10.390,2.804 10.827,3.042 11.185 C 3.176 11.386,3.583 11.812,3.802 11.980 C 4.095 12.206,4.532 12.406,4.982 12.520 C 5.214 12.579,5.276 12.586,5.647 12.586 C 6.213 12.586,6.555 12.513,7.022 12.294 C 7.434 12.101,7.910 11.727,8.017 11.511 C 8.081 11.382,8.081 11.016,8.016 10.886 C 7.953 10.759,7.819 10.630,7.674 10.557 C 7.566 10.502,7.532 10.496,7.350 10.504 C 7.125 10.513,7.096 10.527,6.732 10.816 C 6.401 11.079,6.090 11.186,5.658 11.186 C 5.118 11.186,4.723 11.005,4.336 10.582 C 4.077 10.299,3.962 10.039,3.916 9.633 C 3.854 9.082,3.993 8.677,4.420 8.167 C 4.723 7.805,4.625 7.292,4.216 7.096 C 4.056 7.019,3.871 6.993,3.714 7.024 " fill="#1A1C1F" stroke="none" fill-rule="evenodd"></path></svg>