<svg xmlns="http://www.w3.org/2000/svg" width="16" height="16" fill="none"><g clip-path="url(#a)"><path fill="#1A1C1F" fill-rule="evenodd" d="M5.326 4a1.2 1.2 0 1 0 0-2.4 1.2 1.2 0 0 0 0 2.4M6.38 8.08a.801.801 0 0 0 1.213-1.047l-1.77-2.047a.8.8 0 0 0-.19-.193.8.8 0 0 0-.834-.048L2.57 5.94a.8.8 0 0 0-.386.471l-.546 1.784a.8.8 0 1 0 1.53.467l.45-1.468.554-.298-.28 2.054-1.784 4.346a.8.8 0 0 0 1.48.608l1.28-3.12.372.508.864 2.563a.801.801 0 0 0 1.516-.511l-.902-2.68a.8.8 0 0 0-.113-.218L5.507 8.95l.222-1.625.651.754zm2.828.576a.8.8 0 0 0-1.06 1.2l3.13 2.76a.794.794 0 0 0 1.13-.07.8.8 0 0 0-.07-1.13l-3.132-2.76zm4.395 4.144c-.414 0-.8.386-.8.8s.386.8.8.8c.413 0 .8-.386.8-.8s-.387-.8-.8-.8" clip-rule="evenodd"/></g><defs><clipPath id="a"><path fill="#fff" d="M0 0h16v16H0z"/></clipPath></defs></svg>