<svg width="28" height="28" viewBox="0 0 28 28" fill="none" xmlns="http://www.w3.org/2000/svg"><path d="M10.292 1.823 C 9.760 1.912,9.001 2.421,8.647 2.926 C 8.248 3.495,8.078 4.353,8.233 5.012 C 8.359 5.550,8.560 5.909,8.956 6.305 C 9.318 6.668,9.622 6.856,10.127 7.028 C 10.502 7.155,11.211 7.148,11.645 7.013 C 12.438 6.765,13.100 6.117,13.403 5.294 C 13.487 5.065,13.505 4.915,13.506 4.433 C 13.507 3.928,13.492 3.812,13.397 3.570 C 12.889 2.283,11.663 1.594,10.292 1.823 M11.388 3.659 C 11.986 4.054,11.919 4.985,11.272 5.279 C 10.525 5.618,9.729 4.913,10.011 4.163 C 10.108 3.907,10.390 3.615,10.606 3.549 C 10.837 3.479,11.191 3.528,11.388 3.659 M8.252 8.490 C 7.921 8.597,7.332 9.247,6.707 10.197 C 5.401 12.181,5.064 14.036,5.716 15.641 C 5.987 16.308,6.141 16.495,7.862 18.251 C 9.296 19.715,9.517 19.959,9.540 20.107 C 9.710 21.204,10.421 25.453,10.457 25.586 C 10.515 25.803,10.753 26.080,10.953 26.164 C 11.134 26.239,11.425 26.245,11.605 26.177 C 11.909 26.062,12.190 25.647,12.152 25.368 C 11.920 23.659,11.217 19.404,11.135 19.208 C 11.071 19.055,10.474 18.411,9.053 16.963 C 8.575 16.476,8.029 15.909,7.841 15.703 C 7.300 15.113,7.161 14.701,7.197 13.796 C 7.216 13.325,7.244 13.158,7.365 12.801 C 7.552 12.247,7.817 11.722,8.224 11.095 L 8.551 10.593 9.527 11.549 C 10.064 12.076,10.561 12.535,10.630 12.571 C 10.763 12.639,12.593 13.127,13.003 13.204 C 13.417 13.282,13.782 13.116,13.947 12.776 C 14.073 12.517,14.076 12.188,13.956 11.952 C 13.800 11.646,13.662 11.585,12.351 11.246 L 11.472 11.019 10.321 9.884 C 9.688 9.259,9.094 8.690,9.000 8.619 C 8.815 8.478,8.471 8.419,8.252 8.490 M15.551 12.315 C 15.182 12.367,14.886 12.717,14.888 13.097 C 14.890 13.475,15.189 13.878,15.523 13.956 C 15.622 13.979,15.895 13.998,16.129 13.999 C 16.874 14.001,16.796 13.925,17.031 14.879 C 17.142 15.332,17.318 16.008,17.422 16.380 C 17.585 16.962,17.635 17.081,17.780 17.237 C 17.999 17.472,18.129 17.493,19.413 17.500 C 19.965 17.503,20.494 17.520,20.588 17.538 L 20.760 17.570 19.965 18.480 C 18.785 19.832,17.282 21.577,16.919 22.019 C 16.643 22.354,16.596 22.438,16.578 22.630 C 16.521 23.215,17.091 23.714,17.645 23.565 C 17.869 23.505,17.969 23.408,19.006 22.237 C 19.860 21.273,20.016 21.117,20.069 21.171 C 20.090 21.192,20.172 21.473,20.252 21.793 C 20.533 22.925,20.624 23.099,21.010 23.261 C 21.575 23.497,22.196 23.078,22.181 22.472 C 22.178 22.343,22.026 21.643,21.844 20.917 C 21.662 20.191,21.513 19.557,21.513 19.509 C 21.513 19.412,21.699 19.172,22.494 18.247 C 23.489 17.086,23.578 16.963,23.603 16.707 C 23.630 16.420,23.489 16.106,23.251 15.924 L 23.084 15.797 21.074 15.773 L 19.063 15.750 18.802 14.723 C 18.366 13.005,18.259 12.677,18.084 12.508 C 18.000 12.426,17.850 12.341,17.751 12.317 C 17.554 12.272,15.872 12.270,15.551 12.315 M5.665 18.243 C 5.411 18.358,5.347 18.458,5.159 19.040 C 4.988 19.570,4.243 22.368,3.776 24.235 C 3.510 25.299,3.491 25.407,3.543 25.579 C 3.616 25.824,3.910 26.105,4.168 26.178 C 4.541 26.282,4.985 26.083,5.136 25.742 C 5.234 25.520,6.049 22.486,6.580 20.367 C 6.946 18.907,6.954 18.822,6.753 18.520 C 6.623 18.324,6.293 18.153,6.045 18.154 C 5.941 18.155,5.770 18.195,5.665 18.243 M14.744 23.775 C 13.922 24.203,13.756 25.195,14.399 25.838 C 14.598 26.038,14.699 26.098,14.974 26.181 L 15.307 26.282 15.640 26.181 C 16.539 25.908,16.896 24.908,16.357 24.167 C 16.016 23.698,15.250 23.512,14.744 23.775 M22.647 23.751 C 21.606 24.224,21.667 25.769,22.741 26.165 C 22.935 26.236,23.346 26.241,23.568 26.174 C 23.841 26.092,24.171 25.812,24.332 25.527 C 24.606 25.040,24.499 24.408,24.073 24.001 C 23.721 23.665,23.083 23.553,22.647 23.751 " fill="#1A1C1F" stroke="none" fill-rule="evenodd"></path></svg>