<svg width="12" height="12" viewBox="0 0 12 12" fill="none" xmlns="http://www.w3.org/2000/svg"><path d="M5.449 1.227 C 5.048 1.329,4.761 1.698,4.760 2.111 C 4.760 2.350,4.860 2.561,5.064 2.753 C 5.294 2.969,5.577 3.046,5.866 2.970 C 6.029 2.928,6.120 2.877,6.255 2.751 C 6.471 2.552,6.582 2.253,6.540 1.988 C 6.528 1.916,6.502 1.812,6.481 1.757 C 6.397 1.538,6.161 1.319,5.933 1.249 C 5.791 1.206,5.571 1.196,5.449 1.227 M4.494 3.647 C 4.360 3.685,4.145 3.837,3.915 4.058 C 3.666 4.297,3.548 4.454,3.411 4.730 C 3.212 5.131,3.135 5.428,3.101 5.930 C 3.075 6.306,3.048 6.479,2.860 7.480 L 2.720 8.230 2.416 9.140 C 2.139 9.967,2.112 10.063,2.112 10.190 C 2.111 10.368,2.171 10.508,2.294 10.621 C 2.541 10.849,2.859 10.849,3.107 10.620 C 3.218 10.518,3.236 10.473,3.571 9.468 C 3.819 8.723,3.919 8.382,3.960 8.140 C 3.972 8.069,3.992 7.975,4.003 7.932 L 4.023 7.855 4.249 8.194 L 4.475 8.532 4.490 9.441 C 4.504 10.296,4.507 10.355,4.545 10.429 C 4.638 10.613,4.760 10.716,4.949 10.771 C 5.232 10.853,5.509 10.719,5.650 10.432 L 5.706 10.317 5.691 9.295 C 5.681 8.551,5.670 8.252,5.651 8.198 C 5.620 8.107,5.441 7.819,4.794 6.820 L 4.295 6.050 4.307 5.890 C 4.314 5.802,4.333 5.676,4.351 5.610 C 4.398 5.430,4.547 5.138,4.644 5.034 L 4.730 4.942 5.080 5.161 C 5.852 5.645,5.955 5.679,6.230 5.549 C 6.482 5.430,6.625 5.126,6.551 4.869 C 6.496 4.682,6.434 4.610,6.181 4.441 C 5.881 4.241,5.075 3.738,4.962 3.681 C 4.852 3.625,4.629 3.609,4.494 3.647 M7.378 5.418 C 7.265 5.441,7.096 5.546,7.026 5.638 C 6.953 5.732,6.900 5.888,6.900 6.005 C 6.900 6.117,6.967 6.273,7.311 6.960 L 7.617 7.570 7.836 7.788 L 8.056 8.005 7.876 8.284 C 7.626 8.672,7.589 8.756,7.592 8.930 C 7.595 9.093,7.631 9.188,7.734 9.302 C 7.891 9.475,8.110 9.545,8.323 9.491 C 8.439 9.461,8.555 9.394,8.616 9.321 C 8.741 9.171,9.722 7.656,9.837 7.434 C 9.977 7.164,9.844 6.802,9.554 6.662 C 9.467 6.620,9.425 6.616,8.965 6.605 L 8.469 6.594 8.242 6.147 C 8.117 5.901,7.990 5.664,7.959 5.622 C 7.856 5.479,7.570 5.379,7.378 5.418 M6.769 9.618 C 6.652 9.648,6.495 9.749,6.427 9.838 C 6.196 10.140,6.305 10.571,6.656 10.744 C 6.783 10.806,7.008 10.807,7.144 10.745 C 7.264 10.690,7.393 10.561,7.445 10.443 C 7.494 10.332,7.502 10.112,7.461 9.991 C 7.424 9.882,7.260 9.713,7.141 9.662 C 7.031 9.615,6.859 9.594,6.769 9.618 M9.169 9.618 C 9.052 9.648,8.895 9.749,8.827 9.838 C 8.596 10.140,8.705 10.571,9.056 10.744 C 9.183 10.806,9.408 10.807,9.544 10.745 C 9.664 10.690,9.793 10.561,9.845 10.443 C 9.894 10.332,9.902 10.112,9.861 9.991 C 9.824 9.882,9.660 9.713,9.541 9.662 C 9.431 9.615,9.259 9.594,9.169 9.618 " fill="#1A1C1F" stroke="none" fill-rule="evenodd"></path></svg>