<svg xmlns="http://www.w3.org/2000/svg" width="32" height="32" fill="none"><path fill="#1A1C1F" fill-rule="evenodd" d="M11.639 2.104c-.766.185-1.628.876-1.971 1.579-.696 1.425-.266 3.073 1.027 3.938 1.659 1.11 3.833.417 4.585-1.461.18-.449.242-1.238.136-1.725-.235-1.077-1.166-2.051-2.224-2.324-.389-.1-1.154-.104-1.553-.007m1.188 1.995c.586.267.806.914.508 1.499-.485.949-1.983.582-1.983-.485 0-.343.055-.5.254-.737a1.045 1.045 0 0 1 1.221-.277M9.302 9.755c-.345.156-1.198 1.172-1.822 2.17-.988 1.578-1.462 3.264-1.294 4.603.107.853.397 1.629.857 2.299.111.161.805.893 1.543 1.626a97 97 0 0 1 1.818 1.847l.476.514.53 3.236c.365 2.232.561 3.297.631 3.433.297.575 1.096.686 1.565.218.387-.387.396-.227-.245-4.154-.314-1.922-.601-3.566-.638-3.655s-.968-1.073-2.068-2.188c-1.457-1.476-2.038-2.1-2.137-2.295-.466-.919-.433-2.097.092-3.322.216-.504.664-1.282.976-1.697l.208-.277 1.036 1.04c.57.573 1.133 1.097 1.25 1.167.125.073.797.275 1.618.486 1.34.344 1.416.357 1.653.294.729-.194 1.005-1.09.499-1.625-.218-.231-.326-.271-1.582-.589l-1.167-.296-1.393-1.387c-.897-.892-1.462-1.415-1.589-1.468a1.02 1.02 0 0 0-.817.02m8.271 4.347a1.1 1.1 0 0 0-.503.528c-.156.414.018.957.386 1.2.203.135.262.145.989.17l.774.027.431 1.707c.273 1.083.469 1.758.537 1.847.058.078.189.198.289.267.179.123.213.126 1.741.152l1.558.027-2.364 2.711c-1.3 1.491-2.389 2.785-2.421 2.874a.99.99 0 0 0 .281 1.093c.348.306.805.345 1.17.101.095-.064.688-.706 1.319-1.428s1.154-1.306 1.164-1.297c.009.008.133.471.274 1.028s.3 1.075.35 1.153c.215.327.673.503 1.052.402.437-.116.782-.52.785-.919.001-.112-.688-2.987-.828-3.456-.016-.054.393-.565 1.146-1.43.724-.832 1.195-1.418 1.234-1.535.094-.288.037-.673-.133-.896-.297-.39-.172-.372-2.722-.401L21.787 18l-.427-1.68c-.255-1.005-.474-1.756-.544-1.869a1.1 1.1 0 0 0-.327-.306c-.201-.113-.266-.118-1.483-.116-.944.001-1.314.02-1.433.073m-11.118 6.74c-.417.23-.396.171-1.464 4.234-.545 2.074-.99 3.838-.99 3.92.003.373.334.797.722.925.41.135.975-.103 1.157-.488.143-.303 2.013-7.489 2.013-7.736 0-.294-.133-.553-.388-.757-.264-.212-.76-.257-1.05-.098m10.655 6.217a1.51 1.51 0 0 0-1.109 1.448c0 .683.468 1.264 1.165 1.442.298.076.357.076.656 0 .666-.171 1.098-.67 1.151-1.33q.05-.636-.336-1.088c-.353-.412-1.013-.616-1.527-.472m9.063-.017c-.677.168-1.099.66-1.148 1.337a1.47 1.47 0 0 0 2.569 1.115c.396-.423.501-.969.293-1.525-.254-.679-1.027-1.097-1.714-.927"/></svg>