<svg width="16" height="16" viewBox="0 0 16 16" fill="none" xmlns="http://www.w3.org/2000/svg"><path d="M5.067 1.636 C 4.735 1.709,4.398 1.983,4.237 2.309 C 4.150 2.485,4.147 2.504,4.147 2.800 C 4.147 3.096,4.150 3.115,4.238 3.294 C 4.440 3.706,4.880 3.999,5.299 4.000 C 5.870 4.001,6.392 3.571,6.507 3.003 C 6.557 2.754,6.491 2.417,6.343 2.173 C 6.186 1.916,5.844 1.685,5.535 1.629 C 5.342 1.594,5.256 1.595,5.067 1.636 M4.920 4.703 C 4.814 4.738,4.254 5.033,3.095 5.662 C 2.373 6.054,2.310 6.109,2.189 6.442 C 1.955 7.090,1.600 8.310,1.600 8.470 C 1.600 8.731,1.805 9.033,2.070 9.163 C 2.185 9.219,2.255 9.235,2.396 9.235 C 2.628 9.235,2.785 9.165,2.968 8.981 L 3.108 8.840 3.354 8.050 C 3.489 7.615,3.600 7.246,3.600 7.230 C 3.600 7.201,4.130 6.921,4.148 6.939 C 4.154 6.945,4.097 7.398,4.024 7.948 L 3.890 8.947 3.101 10.867 C 2.109 13.280,2.080 13.358,2.081 13.593 C 2.082 13.978,2.328 14.260,2.739 14.348 C 2.997 14.403,3.337 14.269,3.483 14.055 C 3.556 13.947,3.848 13.270,4.436 11.841 C 4.662 11.292,4.857 10.839,4.870 10.835 C 4.883 10.830,4.974 10.936,5.072 11.069 L 5.250 11.311 5.576 12.289 C 5.961 13.446,6.130 13.906,6.221 14.040 C 6.399 14.301,6.797 14.417,7.127 14.305 C 7.296 14.247,7.476 14.081,7.564 13.901 C 7.694 13.636,7.678 13.528,7.374 12.613 C 6.852 11.040,6.683 10.581,6.559 10.398 C 6.496 10.304,6.234 9.940,5.978 9.590 L 5.511 8.954 5.610 8.217 C 5.715 7.442,5.725 7.387,5.757 7.387 C 5.769 7.387,5.924 7.555,6.104 7.760 C 6.283 7.965,6.469 8.163,6.517 8.199 C 6.893 8.487,7.484 8.337,7.698 7.899 C 7.794 7.704,7.804 7.405,7.720 7.248 C 7.665 7.146,7.234 6.621,6.509 5.774 C 5.863 5.019,5.665 4.810,5.533 4.747 C 5.384 4.674,5.071 4.652,4.920 4.703 M8.475 8.492 C 8.176 8.570,7.935 8.843,7.882 9.163 C 7.862 9.285,7.923 9.542,8.003 9.672 C 8.130 9.878,11.292 12.650,11.516 12.752 C 11.692 12.832,11.962 12.825,12.147 12.734 C 12.500 12.562,12.672 12.163,12.562 11.773 C 12.504 11.569,12.249 11.327,10.187 9.521 C 9.344 8.783,9.109 8.592,8.973 8.533 C 8.827 8.469,8.625 8.453,8.475 8.492 M13.440 12.826 C 13.303 12.852,13.194 12.917,13.059 13.052 C 12.728 13.383,12.725 13.808,13.053 14.145 C 13.230 14.327,13.362 14.384,13.600 14.383 C 13.843 14.382,13.976 14.322,14.162 14.131 C 14.303 13.986,14.400 13.770,14.400 13.600 C 14.400 13.336,14.179 13.009,13.920 12.888 C 13.786 12.826,13.581 12.799,13.440 12.826 " fill="#1A1C1F" stroke="none" fill-rule="evenodd"></path></svg>