<svg xmlns="http://www.w3.org/2000/svg" width="16" height="16" fill="none"><g clip-path="url(#a)"><path fill="#1A1C1F" fill-rule="evenodd" d="M7.536 4c.69 0 1.2-.562 1.2-1.2 0-.664-.51-1.2-1.2-1.2-.639 0-1.2.536-1.2 1.2 0 .638.561 1.2 1.2 1.2m-1.352.813h.083c.047.002.093-.002.14.007.058.012.112.04.167.064.035.015.071.018.104.04l1.717 1.082a.8.8 0 1 1-.854 1.354l-1.24-.783c-.528.53-.582 1.198-.577 1.489l1.73 2.664a.8.8 0 0 1 .128.43l.018 2.434a.8.8 0 0 1-1.6.012l-.016-2.2-.628-.968-.17.91a1 1 0 0 1-.027.106l-.8 2.4a.8.8 0 0 1-1.518-.507L3.625 11l.508-2.717c-.032-.52-.004-2.28 1.657-3.335l.01-.005.031-.023c.037-.023.08-.028.118-.044.05-.02.098-.045.152-.056zM9.2 12.8a.8.8 0 1 1 0 1.6.8.8 0 0 1 0-1.6m3.2 0a.8.8 0 1 1 0 1.6.8.8 0 0 1 0-1.6m-1.684-5.158.58 1.158H12.4a.801.801 0 0 1 .67 1.237l-1.496 2.297a.8.8 0 0 1-1.34-.874l.51-.785-.51-.51q-.002-.005-.006-.01a.8.8 0 0 1-.144-.197l-.8-1.6a.8.8 0 1 1 1.432-.716" clip-rule="evenodd"/></g><defs><clipPath id="a"><path fill="#fff" d="M0 0h16v16H0z"/></clipPath></defs></svg>