<svg width="14" height="14" viewBox="0 0 14 14" fill="none" xmlns="http://www.w3.org/2000/svg"><path d="M5.648 1.425 C 5.488 1.457,5.308 1.555,5.160 1.692 C 4.923 1.911,4.818 2.179,4.834 2.519 C 4.877 3.417,5.977 3.826,6.620 3.183 C 6.769 3.034,6.875 2.822,6.912 2.602 C 6.963 2.294,6.849 1.957,6.615 1.724 C 6.346 1.456,6.015 1.353,5.648 1.425 M5.911 4.942 C 5.649 5.036,5.469 5.269,5.443 5.547 C 5.432 5.673,5.463 5.791,5.855 7.117 C 6.087 7.906,6.294 8.595,6.314 8.649 C 6.362 8.783,6.516 8.950,6.659 9.025 L 6.778 9.088 7.848 9.100 L 8.918 9.112 9.551 10.675 L 10.184 12.238 10.324 12.380 C 10.436 12.492,10.493 12.530,10.602 12.563 C 10.934 12.667,11.275 12.519,11.425 12.208 C 11.478 12.099,11.489 12.043,11.489 11.900 L 11.489 11.725 10.805 10.033 C 10.429 9.103,10.086 8.284,10.044 8.213 C 9.916 8.002,9.733 7.849,9.502 7.763 C 9.376 7.715,9.316 7.712,8.461 7.700 L 7.554 7.688 7.187 6.533 C 6.986 5.898,6.799 5.336,6.772 5.283 C 6.622 4.990,6.221 4.831,5.911 4.942 M3.652 7.037 C 3.353 7.133,2.866 7.838,2.663 8.470 C 2.543 8.843,2.513 9.032,2.512 9.415 C 2.510 10.073,2.690 10.664,3.063 11.223 C 3.212 11.446,3.669 11.901,3.897 12.052 C 4.256 12.291,4.638 12.449,5.087 12.546 C 5.394 12.611,6.001 12.606,6.321 12.534 C 6.614 12.468,6.832 12.392,7.082 12.268 C 7.538 12.041,7.963 11.685,8.035 11.470 C 8.083 11.325,8.084 11.077,8.037 10.937 C 7.986 10.788,7.841 10.632,7.682 10.554 C 7.570 10.499,7.520 10.489,7.373 10.490 C 7.162 10.491,7.070 10.533,6.851 10.727 C 6.470 11.066,6.035 11.221,5.553 11.192 C 5.292 11.177,5.076 11.115,4.818 10.983 C 4.676 10.909,4.582 10.837,4.422 10.676 C 4.061 10.313,3.922 10.000,3.902 9.504 C 3.883 9.014,4.011 8.649,4.337 8.269 C 4.549 8.022,4.579 7.959,4.592 7.743 C 4.601 7.589,4.594 7.548,4.545 7.439 C 4.466 7.266,4.360 7.153,4.209 7.079 C 4.049 7.001,3.821 6.984,3.652 7.037 " fill="#1A1C1F" stroke="none" fill-rule="evenodd"></path></svg>