<svg width="24" height="24" viewBox="0 0 24 24" fill="none" xmlns="http://www.w3.org/2000/svg"><path d="M9.185 2.063 C 8.438 2.244,7.828 2.895,7.678 3.672 C 7.547 4.346,7.840 5.114,8.396 5.553 C 9.719 6.599,11.640 5.693,11.640 4.023 C 11.640 2.715,10.443 1.759,9.185 2.063 M8.340 8.047 C 7.919 8.205,7.661 8.569,7.662 9.000 C 7.663 9.311,7.756 9.515,7.995 9.730 C 8.229 9.942,8.470 10.000,9.117 10.000 C 9.743 10.000,9.856 10.041,9.970 10.304 C 10.007 10.390,10.364 11.567,10.763 12.920 C 11.162 14.273,11.512 15.426,11.542 15.483 C 11.608 15.611,11.888 15.867,12.032 15.932 C 12.109 15.966,12.686 15.986,14.057 16.000 L 15.973 16.020 16.960 18.308 C 17.503 19.567,17.995 20.668,18.053 20.756 C 18.263 21.074,18.737 21.233,19.141 21.120 C 19.384 21.052,19.694 20.772,19.782 20.540 C 19.924 20.170,19.913 20.138,18.676 17.206 C 17.475 14.359,17.438 14.286,17.106 14.109 C 16.942 14.021,16.914 14.020,15.051 14.009 L 13.163 13.997 13.082 13.729 C 13.038 13.581,12.905 13.136,12.786 12.740 L 12.570 12.020 14.115 12.000 C 15.847 11.978,15.823 11.981,16.113 11.682 C 16.493 11.291,16.488 10.686,16.101 10.299 C 15.804 10.002,15.787 10.000,13.754 10.000 L 11.963 10.000 11.918 9.830 C 11.705 9.033,11.091 8.405,10.260 8.133 C 9.971 8.039,9.869 8.027,9.200 8.015 C 8.715 8.006,8.419 8.017,8.340 8.047 M6.040 12.037 C 5.725 12.133,5.514 12.337,5.117 12.931 C 4.718 13.528,4.420 14.242,4.255 15.000 C 4.150 15.482,4.149 16.793,4.252 17.280 C 4.433 18.128,4.825 19.014,5.299 19.645 C 5.438 19.830,5.740 20.163,5.969 20.384 C 6.773 21.158,7.668 21.633,8.805 21.887 C 9.389 22.017,10.501 22.017,11.108 21.887 C 12.472 21.594,13.678 20.876,14.517 19.858 C 14.857 19.445,14.917 19.337,14.948 19.079 C 15.016 18.501,14.540 17.985,13.938 17.985 C 13.593 17.985,13.350 18.130,13.004 18.541 C 11.892 19.863,10.167 20.334,8.576 19.748 C 7.867 19.487,7.146 18.881,6.718 18.185 C 6.330 17.554,6.160 16.944,6.160 16.180 C 6.160 15.257,6.430 14.488,7.023 13.720 C 7.198 13.493,7.320 13.200,7.320 13.006 C 7.320 12.765,7.198 12.476,7.021 12.299 C 6.773 12.051,6.358 11.941,6.040 12.037 " fill="#1A1C1F" stroke="none" fill-rule="evenodd"></path></svg>