<svg xmlns="http://www.w3.org/2000/svg" width="14" height="14" fill="none"><g clip-path="url(#a)"><path fill="#1A1C1F" fill-rule="evenodd" d="M4.29 8.903a2.34 2.34 0 0 1 0-3.3.7.7 0 0 1 .99.99.935.935 0 0 0 1.173 1.44.7.7 0 0 1 .77 1.169 2.34 2.34 0 0 1-2.934-.3zM6.5 3.41a.898.898 0 1 0 .06-1.795.898.898 0 0 0-.06 1.795m3.454 6.126a.7.7 0 0 0 .388-.91l-.938-2.334a.7.7 0 0 0-.65-.438H7.642L7.245 4.49a.701.701 0 0 0-1.344.39l.544 1.868a.7.7 0 0 0 .672.504h1.165l.762 1.895a.7.7 0 0 0 .91.388m-2.468 1.45H2.1a.701.701 0 0 0-.495 1.195.7.7 0 0 0 .495.205h5.386a.7.7 0 1 0 0-1.4m4.414 0h-1.614a.7.7 0 0 0-.647.968.7.7 0 0 0 .647.432H11.9a.7.7 0 0 0 0-1.4" clip-rule="evenodd"/></g><defs><clipPath id="a"><path fill="#fff" d="M0 0h14v14H0z"/></clipPath></defs></svg>