<svg xmlns="http://www.w3.org/2000/svg" width="32" height="32" fill="none"><g clip-path="url(#a)"><path fill="#1A1C1F" fill-rule="evenodd" d="M19.694 26.705a1 1 0 0 1-1 1H4a1 1 0 1 1 0-2h14.695a1 1 0 0 1 .999 1m-5.642-3a5.96 5.96 0 0 0 4.242-1.757q.306-.305.558-.642a.999.999 0 0 0-.939-1.601 1 1 0 0 0-.66.4 4 4 0 0 1-.373.428c-1.512 1.512-4.146 1.512-5.657 0a3.985 3.985 0 0 1-.274-5.353 1 1 0 0 0-1.55-1.265 5.98 5.98 0 0 0 .41 8.032 5.96 5.96 0 0 0 4.243 1.758m-.5-15.41a2 2 0 1 0 .09-4 2 2 0 0 0-.09 4m9.394 15.41a1 1 0 0 0 .928-1.37l-2.394-6a1 1 0 0 0-.929-.63h-3.478l-.58-2h1.969a1 1 0 1 0 0-2h-2.549l-.063-.218a2.52 2.52 0 0 0-2.395-1.782h-.897a1 1 0 1 0 0 2h.897c.219 0 .416.146.477.348l1.431 4.93a1 1 0 0 0 .96.723h3.551l2.143 5.37a1 1 0 0 0 .929.629m5.054 2h-5.305a1 1 0 0 0 0 2H28a1 1 0 1 0 0-2" clip-rule="evenodd"/></g><defs><clipPath id="a"><path fill="#fff" d="M0 0h32v32H0z"/></clipPath></defs></svg>