<svg xmlns="http://www.w3.org/2000/svg" width="12" height="12" fill="none"><g clip-path="url(#a)"><path fill="#1A1C1F" fill-rule="evenodd" d="M3.677 7.63a2.004 2.004 0 0 1 0-2.828.6.6 0 0 1 .849.849.801.801 0 0 0 1.005 1.234.6.6 0 0 1 .66 1.002 2 2 0 0 1-2.515-.257zm1.894-4.707a.77.77 0 1 0 .052-1.54.77.77 0 0 0-.052 1.54m2.961 5.25a.6.6 0 0 0 .333-.78l-.804-2a.6.6 0 0 0-.558-.376H6.55L6.21 3.85a.6.6 0 0 0-1.152.334l.466 1.602a.6.6 0 0 0 .576.432H7.1l.653 1.624a.6.6 0 0 0 .78.332M6.417 9.416H1.8a.6.6 0 0 0 0 1.2h4.617a.6.6 0 1 0 0-1.2m3.783 0H8.817a.6.6 0 0 0 0 1.2H10.2a.6.6 0 1 0 0-1.2" clip-rule="evenodd"/></g><defs><clipPath id="a"><path fill="#fff" d="M0 0h12v12H0z"/></clipPath></defs></svg>