<svg xmlns="http://www.w3.org/2000/svg" width="32" height="32" fill="none"><path fill="#1A1C1F" fill-rule="evenodd" d="M12.925 4.416a1.99 1.99 0 0 0-1.313 1.877c.001 1.399 1.396 2.366 2.697 1.869.395-.151.893-.605 1.074-.979a2.13 2.13 0 0 0 .031-1.728c-.145-.328-.588-.771-.946-.949-.406-.201-1.116-.243-1.543-.09m-.704 5.348c-.397.159-.644.52-.646.944a.91.91 0 0 0 .333.741c.236.207.571.284 1.238.284.445 0 .516.014.635.12.111.1.25.527.832 2.547.859 2.983.782 2.743.949 2.942.296.352.365.362 2.441.363l1.87.002 1.108 2.771c1.019 2.549 1.124 2.786 1.315 2.958.115.104.275.203.356.22.081.018.175.041.208.051.125.037.531-.092.705-.224.214-.163.379-.499.38-.776.002-.248-2.456-6.427-2.645-6.652-.265-.315-.312-.322-2.353-.322h-1.863l-.291-1-.292-1 1.123-.026c.909-.022 1.153-.044 1.283-.115.708-.391.738-1.368.053-1.744-.133-.073-.398-.092-1.593-.115l-1.432-.026-.109-.294c-.318-.859-1.043-1.489-1.9-1.652-.356-.067-1.535-.066-1.705.003m-2.434 3.881c-.511.244-1.139 1.23-1.483 2.33-.203.644-.27 1.221-.235 2.019a5.65 5.65 0 0 0 .936 2.945 5.997 5.997 0 0 0 7.669 2.155c.88-.428 1.791-1.194 2.213-1.861.482-.76-.215-1.726-1.083-1.499-.184.048-.321.154-.684.529-.695.719-1.103.981-1.922 1.239-.343.107-.506.124-1.171.123-.733-.002-.8-.011-1.277-.176a5 5 0 0 1-.817-.364c-.726-.441-1.325-1.182-1.648-2.039-.169-.447-.173-.483-.176-1.313-.002-.797.007-.881.146-1.284.081-.237.254-.597.383-.8.516-.808.521-.818.525-1.082.011-.713-.749-1.222-1.376-.922M3.598 25.807c-.441.2-.683.673-.567 1.107.083.311.234.509.507.666l.222.127h7.573c7.468 0 7.577-.002 7.784-.107.115-.059.283-.199.373-.312.146-.183.163-.243.163-.564 0-.447-.163-.732-.52-.904l-.233-.113-7.544.001c-7.202.001-7.552.005-7.758.099m18.651.014c-.354.175-.516.459-.516.903 0 .321.018.381.164.564.09.113.258.253.373.312.202.103.316.107 3.09.107h2.88l.222-.127c.273-.157.424-.355.507-.666.116-.434-.126-.907-.567-1.107-.2-.091-.416-.098-3.069-.099-2.811-.001-2.856 0-3.084.113"/></svg>