<svg xmlns="http://www.w3.org/2000/svg" width="28" height="28" fill="none"><g clip-path="url(#a)"><path fill="#1A1C1F" fill-rule="evenodd" d="M17.232 23.366a.875.875 0 0 1-.875.875H3.5a.875.875 0 0 1 0-1.75h12.858c.483 0 .874.391.874.875m-4.937-2.624c1.403 0 2.72-.546 3.712-1.537q.265-.263.488-.562a.877.877 0 0 0-.482-1.372.87.87 0 0 0-.917.322 3.5 3.5 0 0 1-.326.374c-1.323 1.323-3.628 1.323-4.95 0a3.487 3.487 0 0 1-.24-4.684.875.875 0 0 0-1.356-1.107 5.23 5.23 0 0 0 .359 7.028 5.22 5.22 0 0 0 3.712 1.538m-.436-13.485a1.75 1.75 0 1 0 0-3.499 1.75 1.75 0 0 0 0 3.5m8.219 13.485a.875.875 0 0 0 .812-1.199l-2.095-5.25a.87.87 0 0 0-.813-.55h-3.043l-.508-1.75h1.723a.875.875 0 1 0 0-1.75h-2.23l-.055-.192a2.2 2.2 0 0 0-2.096-1.559h-.785a.874.874 0 1 0 0 1.75h.785c.192 0 .364.128.417.305l1.252 4.314a.875.875 0 0 0 .84.632h3.108l1.875 4.7a.88.88 0 0 0 .813.55m4.422 1.75h-4.642a.875.875 0 1 0 0 1.75H24.5a.875.875 0 1 0 0-1.75" clip-rule="evenodd"/></g><defs><clipPath id="a"><path fill="#fff" d="M0 0h28v28H0z"/></clipPath></defs></svg>