<svg xmlns="http://www.w3.org/2000/svg" width="16" height="16" fill="none"><g clip-path="url(#a)"><path fill="#1A1C1F" fill-rule="evenodd" d="M4.903 10.174a2.67 2.67 0 0 1 0-3.77.8.8 0 1 1 1.131 1.13A1.068 1.068 0 0 0 7.375 9.18a.8.8 0 0 1 .88 1.336 2.67 2.67 0 0 1-3.354-.342zM7.43 3.896a1.026 1.026 0 1 0 .064-2.05 1.026 1.026 0 0 0-.064 2.05m3.946 7.002a.8.8 0 0 0 .444-1.04L10.747 7.19a.8.8 0 0 0-.742-.502H8.734L8.28 5.132a.8.8 0 0 0-1.536.446l.622 2.134a.8.8 0 0 0 .768.577h1.33l.872 2.165a.8.8 0 0 0 1.04.444m-2.82 1.657H2.4a.8.8 0 0 0 0 1.6h6.155a.8.8 0 0 0 .001-1.6m5.044 0h-1.844a.8.8 0 1 0 0 1.6H13.6a.8.8 0 0 0 0-1.6" clip-rule="evenodd"/></g><defs><clipPath id="a"><path fill="#fff" d="M0 0h16v16H0z"/></clipPath></defs></svg>