<svg xmlns="http://www.w3.org/2000/svg" width="24" height="24" fill="none"><g clip-path="url(#a)"><path fill="#1A1C1F" fill-rule="evenodd" d="M7.513 15.643a3.964 3.964 0 0 1 0-5.597 1 1 0 0 1 1.414 1.414 1.96 1.96 0 0 0 0 2.769 1.963 1.963 0 0 0 2.768 0 1 1 0 0 1 1.415 1.414 3.95 3.95 0 0 1-2.797 1.157 3.94 3.94 0 0 1-2.799-1.157zm3.512-9.306a1.558 1.558 0 1 0 0-3.116 1.558 1.558 0 0 0 0 3.116m5.623 10.465a1 1 0 0 0 .928-1.373l-1.7-4.226a1 1 0 0 0-.928-.627h-2.215l-.774-2.659a1 1 0 0 0-1.92.558l.985 3.38a1 1 0 0 0 .96.721h2.29l1.448 3.599a1 1 0 0 0 .926.627m-3.953 1.977H3a1 1 0 0 0 0 2h9.694a1 1 0 1 0 0-2m8.305 0h-4.305a1 1 0 0 0 0 2H21a1 1 0 1 0 0-2" clip-rule="evenodd"/></g><defs><clipPath id="a"><path fill="#fff" d="M0 0h24v24H0z"/></clipPath></defs></svg>