<svg width="32" height="32" viewBox="0 0 32 32" fill="none" xmlns="http://www.w3.org/2000/svg"><path d="M4.500 2.085 C 4.277 2.149,3.967 2.501,3.894 2.771 C 3.770 3.232,3.807 3.291,4.952 4.428 C 5.995 5.464,6.434 5.888,11.353 10.610 C 13.480 12.652,13.916 13.094,13.833 13.127 C 13.778 13.148,11.741 13.167,9.307 13.169 L 4.880 13.173 4.706 13.010 C 4.330 12.657,4.151 12.097,4.029 10.890 C 3.943 10.035,3.913 9.942,3.659 9.719 C 3.284 9.389,2.782 9.371,2.389 9.672 C 2.101 9.892,2.036 10.093,2.031 10.773 C 2.025 11.708,2.240 12.746,2.594 13.484 C 2.791 13.895,3.404 14.604,3.690 14.752 L 3.839 14.829 3.853 20.868 L 3.867 26.907 4.058 27.396 C 4.322 28.073,4.551 28.436,4.990 28.876 C 5.430 29.317,5.886 29.600,6.480 29.799 C 6.860 29.927,6.988 29.943,7.653 29.944 C 8.355 29.946,8.428 29.936,8.860 29.782 C 9.991 29.377,10.881 28.455,11.269 27.284 C 11.367 26.991,11.379 26.792,11.396 25.200 C 11.406 24.232,11.427 23.365,11.442 23.274 L 11.469 23.109 11.977 23.260 C 13.432 23.692,14.733 23.699,16.240 23.281 C 16.504 23.208,16.747 23.148,16.781 23.147 C 16.825 23.147,16.848 23.677,16.866 25.053 C 16.889 26.802,16.900 26.985,17.000 27.258 C 17.405 28.370,18.071 29.144,19.013 29.599 C 19.645 29.903,20.086 29.992,20.812 29.962 C 21.848 29.918,22.571 29.596,23.303 28.849 C 23.793 28.350,24.020 27.984,24.251 27.321 L 24.427 26.817 24.427 20.535 L 24.427 14.252 24.547 14.220 C 24.613 14.203,24.780 14.188,24.918 14.187 C 25.264 14.186,26.130 14.013,26.642 13.842 C 28.076 13.363,29.195 12.228,29.671 10.768 C 29.848 10.228,29.982 9.411,29.990 8.825 C 29.996 8.390,29.983 8.319,29.852 8.095 C 29.739 7.902,29.641 7.817,29.408 7.707 C 29.244 7.629,27.954 7.180,26.542 6.710 L 23.973 5.854 22.373 4.270 C 21.493 3.399,20.607 2.535,20.404 2.350 L 20.035 2.014 19.696 2.041 C 19.294 2.073,18.993 2.245,18.867 2.515 C 18.821 2.613,18.673 3.305,18.539 4.053 C 18.296 5.405,17.013 12.992,17.013 13.076 C 17.013 13.189,16.857 13.091,16.511 12.759 C 8.535 5.125,5.484 2.238,5.267 2.120 C 5.083 2.020,4.772 2.006,4.500 2.085 M21.253 5.974 C 21.517 6.243,22.009 6.720,22.347 7.033 L 22.960 7.604 25.391 8.420 C 26.728 8.869,27.854 9.256,27.894 9.280 C 27.954 9.317,27.946 9.404,27.853 9.782 C 27.549 11.016,26.893 11.694,25.653 12.057 C 25.315 12.156,25.079 12.178,24.123 12.199 L 22.992 12.225 22.777 12.409 C 22.634 12.532,22.542 12.668,22.500 12.816 C 22.465 12.939,22.423 13.548,22.405 14.169 C 22.388 14.790,22.361 15.309,22.347 15.323 C 22.332 15.337,21.564 15.053,20.640 14.692 C 19.338 14.183,18.957 14.013,18.944 13.936 C 18.932 13.857,20.232 5.896,20.352 5.319 L 20.382 5.171 20.578 5.329 C 20.685 5.415,20.989 5.706,21.253 5.974 M15.467 18.290 L 15.467 21.432 15.160 21.502 C 14.703 21.607,13.445 21.591,13.013 21.475 C 12.405 21.311,11.829 21.111,11.253 20.863 C 10.549 20.560,10.218 20.535,9.878 20.760 C 9.455 21.040,9.471 20.925,9.433 23.893 C 9.413 25.549,9.379 26.600,9.343 26.711 C 9.187 27.191,8.784 27.651,8.347 27.848 C 7.953 28.026,7.332 28.020,6.933 27.833 C 6.565 27.661,6.232 27.339,6.048 26.976 L 5.906 26.696 5.878 20.921 L 5.851 15.147 10.659 15.147 L 15.467 15.147 15.467 18.290 M20.146 16.644 L 22.400 17.520 22.400 22.083 L 22.400 26.646 22.255 26.936 C 22.077 27.295,21.674 27.707,21.368 27.842 C 20.652 28.159,19.748 27.932,19.258 27.313 C 18.917 26.882,18.924 26.945,18.881 24.053 C 18.836 21.079,18.839 21.102,18.463 20.816 C 18.253 20.656,18.198 20.640,17.863 20.640 L 17.493 20.640 17.493 18.300 C 17.493 17.013,17.508 15.886,17.526 15.795 C 17.559 15.634,17.563 15.632,17.726 15.699 C 17.818 15.737,18.907 16.163,20.146 16.644 " fill="#1A1C1F" stroke="none" fill-rule="evenodd"></path></svg>