<svg xmlns="http://www.w3.org/2000/svg" width="14" height="14" fill="none"><g clip-path="url(#a)"><path fill="#1A1C1F" fill-rule="evenodd" d="m12.121 3.544-1.943-.649-1.283-1.283a.698.698 0 0 0-1.185.38L7.134 5.45l-3.84-3.838a.7.7 0 1 0-.989.99L5.31 5.607H2.925c-.04-.063-.125-.248-.125-.7a.7.7 0 1 0-1.4 0c0 1.06.35 1.584.7 1.843v4.108c0 .964.785 1.75 1.75 1.75s1.75-.786 1.75-1.75v-.779c.437.092.963.092 1.4 0v.778c0 .966.785 1.75 1.75 1.75s1.75-.784 1.75-1.75V6.92c1.011-.25 2.1-1.056 2.1-2.712a.7.7 0 0 0-.479-.663M5.213 8.481a.7.7 0 0 0-1.013.627v1.75a.35.35 0 0 1-.7 0v-3.85h2.8v1.75c-.431 0-.932-.2-1.087-.278zM8.75 11.21a.35.35 0 0 1-.35-.35V9.106a.7.7 0 0 0-.7-.7V7.44l1.4.7v2.719a.35.35 0 0 1-.35.35M9.8 5.607a.7.7 0 0 0-.7.7v.267l-.678-.34.445-2.67.438.438a.7.7 0 0 0 .274.168l1.56.52c-.233.827-1.062.913-1.339.917" clip-rule="evenodd"/></g><defs><clipPath id="a"><path fill="#fff" d="M0 0h14v14H0z"/></clipPath></defs></svg>