<svg xmlns="http://www.w3.org/2000/svg" width="32" height="32" fill="none"><g clip-path="url(#a)"><path fill="#1A1C1F" fill-rule="evenodd" d="M29.316 7.623 23.968 5.84l-3.547-3.547a.997.997 0 0 0-1.464.053c-.12.14-.2.309-.229.49L17.01 13.143h-.108L5.548 2.277a1 1 0 1 0-1.383 1.445l9.843 9.42H4.911C4.65 13.094 4 12.523 4 10.428a1 1 0 0 0-2 0c0 2.862 1.032 3.983 1.857 4.425v11.36A3.79 3.79 0 0 0 7.643 30a3.79 3.79 0 0 0 3.786-3.786v-3.12c.759.266 1.729.513 2.714.513s1.955-.247 2.714-.513v3.12A3.79 3.79 0 0 0 20.643 30a3.79 3.79 0 0 0 3.786-3.786V14.21c1.043-.007 2.582-.219 3.794-1.232C29.402 11.992 30 10.508 30 8.571a1 1 0 0 0-.684-.948M10.914 20.697a1.002 1.002 0 0 0-1.486.874v4.643a1.787 1.787 0 0 1-3.572 0v-11.07h9.643v6.27c-.443.12-.898.186-1.357.193-1.565 0-3.212-.9-3.229-.909zM20.643 28a1.79 1.79 0 0 1-1.786-1.786v-4.643a1 1 0 0 0-1.001-.999 1 1 0 0 0-.356.074v-5.038l4.929 1.931v8.675c0 .985-.801 1.786-1.786 1.786m6.304-16.562c-1.261 1.063-3.324.725-3.342.721a1 1 0 0 0-1.176.985v2.25l-3.535-1.387 1.488-8.925 2.34 2.34a1 1 0 0 0 .391.241l4.85 1.617c-.108.957-.449 1.682-1.016 2.158" clip-rule="evenodd"/></g><defs><clipPath id="a"><path fill="#fff" d="M0 0h32v32H0z"/></clipPath></defs></svg>