<svg width="24" height="24" viewBox="0 0 24 24" fill="none" xmlns="http://www.w3.org/2000/svg"><path d="M14.312 2.054 C 14.114 2.109,14.059 2.143,13.851 2.335 C 13.628 2.540,13.623 2.567,12.941 6.680 C 12.688 8.209,12.466 9.514,12.449 9.580 C 12.417 9.699,12.373 9.657,8.769 6.074 C 6.763 4.080,5.020 2.361,4.895 2.254 C 4.669 2.060,4.667 2.060,4.338 2.046 C 3.936 2.029,3.794 2.086,3.543 2.365 C 3.239 2.703,3.204 3.130,3.451 3.506 C 3.521 3.613,4.927 5.054,6.576 6.710 L 9.573 9.720 6.969 9.720 L 4.365 9.720 4.301 9.630 C 4.186 9.467,4.084 9.052,4.022 8.491 C 3.941 7.763,3.907 7.654,3.701 7.455 C 3.204 6.977,2.410 7.113,2.103 7.729 C 2.020 7.895,2.000 7.994,2.000 8.229 C 2.000 8.991,2.172 9.831,2.443 10.391 C 2.573 10.660,2.677 10.802,2.942 11.070 L 3.276 11.408 3.291 15.474 C 3.303 18.989,3.314 19.570,3.367 19.760 C 3.528 20.334,3.757 20.728,4.156 21.120 C 4.650 21.606,5.149 21.858,5.822 21.961 C 7.039 22.146,8.273 21.484,8.840 20.340 C 9.072 19.872,9.120 19.582,9.153 18.435 C 9.169 17.890,9.195 17.432,9.210 17.417 C 9.225 17.401,9.396 17.420,9.589 17.459 C 9.855 17.513,10.130 17.530,10.720 17.529 C 11.453 17.528,11.680 17.505,12.170 17.379 L 12.280 17.351 12.280 18.253 C 12.280 19.289,12.320 19.647,12.483 20.096 C 12.618 20.463,12.719 20.628,13.008 20.951 C 13.465 21.461,13.818 21.691,14.443 21.886 C 14.868 22.018,15.573 22.018,15.999 21.886 C 16.955 21.588,17.628 20.953,17.984 20.016 C 18.078 19.768,18.092 19.658,18.122 18.940 C 18.141 18.500,18.157 16.672,18.158 14.878 L 18.160 11.616 18.549 11.507 C 19.606 11.209,20.503 10.612,21.120 9.794 C 21.548 9.226,21.812 8.552,21.939 7.700 C 22.090 6.695,21.950 6.236,21.412 5.982 C 21.286 5.922,20.398 5.610,19.441 5.289 L 17.700 4.706 16.448 3.472 C 15.759 2.794,15.129 2.195,15.048 2.141 C 14.863 2.020,14.561 1.984,14.312 2.054 M15.910 5.765 C 16.256 6.098,16.576 6.393,16.620 6.422 C 16.664 6.451,17.393 6.708,18.240 6.994 C 19.087 7.280,19.812 7.527,19.852 7.542 C 19.909 7.564,19.919 7.596,19.898 7.695 C 19.799 8.165,19.577 8.547,19.174 8.944 C 18.760 9.353,18.184 9.589,17.327 9.701 C 16.788 9.772,16.580 9.857,16.380 10.091 C 16.198 10.303,16.161 10.442,16.136 11.000 C 16.103 11.729,16.193 11.697,15.354 11.277 C 14.955 11.077,14.558 10.869,14.471 10.815 C 14.324 10.722,14.315 10.705,14.337 10.568 C 14.453 9.820,15.206 5.284,15.223 5.230 C 15.235 5.191,15.253 5.160,15.262 5.160 C 15.272 5.160,15.563 5.432,15.910 5.765 M11.000 13.666 L 11.000 15.612 10.610 15.588 C 10.114 15.558,9.604 15.419,8.940 15.132 C 8.623 14.996,8.342 14.901,8.220 14.890 C 7.782 14.850,7.438 15.047,7.246 15.448 L 7.125 15.700 7.105 17.500 C 7.093 18.490,7.071 19.353,7.056 19.418 C 7.011 19.604,6.693 19.895,6.464 19.959 C 6.078 20.067,5.692 19.907,5.425 19.530 L 5.310 19.367 5.289 15.544 L 5.268 11.720 8.134 11.720 L 11.000 11.720 11.000 13.666 M14.622 13.150 L 16.125 13.900 16.111 16.620 C 16.097 19.538,16.102 19.465,15.887 19.695 C 15.757 19.834,15.422 19.999,15.268 20.000 C 14.929 20.001,14.587 19.802,14.396 19.493 C 14.307 19.350,14.306 19.321,14.277 17.484 C 14.258 16.300,14.231 15.566,14.203 15.473 C 14.141 15.271,13.816 14.984,13.584 14.925 C 13.485 14.900,13.314 14.880,13.202 14.880 L 13.000 14.880 13.000 13.640 C 13.000 12.566,13.008 12.400,13.060 12.400 C 13.093 12.400,13.796 12.738,14.622 13.150 " fill="#1A1C1F" stroke="none" fill-rule="evenodd"></path></svg>