<svg xmlns="http://www.w3.org/2000/svg" width="12" height="12" fill="none"><g clip-path="url(#a)"><path fill="#1A1C1F" fill-rule="evenodd" d="m10.39 3.038-1.666-.556-1.1-1.1a.598.598 0 0 0-1.015.326l-.494 2.964-3.292-3.29a.6.6 0 1 0-.847.849L4.55 4.806H2.507c-.034-.054-.107-.212-.107-.6a.6.6 0 0 0-1.2 0c0 .909.3 1.358.6 1.58v3.52c0 .828.673 1.5 1.5 1.5s1.5-.672 1.5-1.5V8.64c.375.078.825.078 1.2 0v.666c0 .828.673 1.5 1.5 1.5s1.5-.672 1.5-1.5V5.931c.867-.214 1.8-.905 1.8-2.325a.6.6 0 0 0-.41-.568M4.467 7.27a.6.6 0 0 0-.868.537v1.5a.3.3 0 0 1-.6 0v-3.3h2.4v1.5c-.37 0-.799-.172-.932-.238M7.5 9.607a.3.3 0 0 1-.3-.3v-1.5a.6.6 0 0 0-.6-.6v-.83l1.2.6v2.33a.3.3 0 0 1-.3.3m.9-4.8a.6.6 0 0 0-.6.6v.228l-.581-.291.381-2.289.376.376a.6.6 0 0 0 .235.144l1.337.445c-.2.71-.91.783-1.148.786" clip-rule="evenodd"/></g><defs><clipPath id="a"><path fill="#fff" d="M0 0h12v12H0z"/></clipPath></defs></svg>