<svg xmlns="http://www.w3.org/2000/svg" width="28" height="28" fill="none"><g clip-path="url(#a)"><path fill="#1A1C1F" fill-rule="evenodd" d="m25.651 6.67-4.679-1.56-3.104-3.102a.873.873 0 0 0-1.481.475L14.884 11.5h-.095L4.855 1.994a.876.876 0 0 0-1.21 1.264l8.612 8.242h-7.96c-.228-.042-.797-.541-.797-2.374a.875.875 0 1 0-1.75 0c0 2.504.903 3.485 1.625 3.872v9.94a3.316 3.316 0 0 0 3.313 3.312A3.316 3.316 0 0 0 10 22.938v-2.73c.665.232 1.513.448 2.375.448s1.71-.216 2.375-.448v2.73a3.316 3.316 0 0 0 3.313 3.312 3.316 3.316 0 0 0 3.312-3.312V12.435c.913-.006 2.26-.192 3.32-1.078 1.032-.863 1.555-2.161 1.555-3.856 0-.377-.24-.71-.599-.83M9.55 18.11a.877.877 0 0 0-1.3.766v4.062a1.564 1.564 0 0 1-3.126 0V13.25h8.438v5.487a4.8 4.8 0 0 1-1.188.17c-1.37 0-2.81-.788-2.825-.796zm8.513 6.39c-.862 0-1.563-.7-1.563-1.562v-4.062a.874.874 0 0 0-.876-.874.9.9 0 0 0-.312.064v-4.408l4.313 1.69v7.59c0 .862-.7 1.563-1.562 1.563m5.516-14.491c-1.104.93-2.909.635-2.925.63a.874.874 0 0 0-1.029.863v1.968l-3.093-1.213 1.302-7.81 2.048 2.048a.9.9 0 0 0 .342.21l4.244 1.416c-.095.838-.392 1.472-.889 1.888" clip-rule="evenodd"/></g><defs><clipPath id="a"><path fill="#fff" d="M0 0h28v28H0z"/></clipPath></defs></svg>