<svg width="20" height="20" viewBox="0 0 20 20" fill="none" xmlns="http://www.w3.org/2000/svg"><path d="M3.797 2.031 C 3.609 2.068,3.327 2.243,3.209 2.397 C 3.014 2.650,2.957 2.975,3.051 3.293 C 3.117 3.516,3.184 3.587,5.631 6.042 L 7.583 8.000 5.880 8.000 L 4.177 8.000 4.142 7.923 C 4.085 7.797,4.035 7.505,4.004 7.117 C 3.971 6.703,3.902 6.514,3.712 6.319 C 3.520 6.121,3.309 6.033,3.024 6.033 C 2.690 6.033,2.490 6.107,2.295 6.301 C 2.014 6.582,1.938 7.036,2.048 7.767 C 2.157 8.491,2.399 9.022,2.821 9.468 L 2.996 9.652 3.009 12.784 C 3.022 16.159,3.015 16.013,3.198 16.466 C 3.369 16.890,3.795 17.378,4.212 17.628 C 4.801 17.982,5.436 18.082,6.074 17.920 C 7.060 17.670,7.779 16.910,7.953 15.934 C 7.980 15.783,7.998 15.426,7.999 15.038 L 8.000 14.392 8.075 14.412 C 8.116 14.423,8.342 14.449,8.578 14.470 C 8.978 14.506,9.661 14.476,9.925 14.411 L 10.000 14.393 10.001 15.038 C 10.002 15.746,10.042 16.049,10.180 16.412 C 10.528 17.331,11.512 18.000,12.515 18.000 C 12.804 18.000,13.310 17.880,13.570 17.749 C 14.255 17.405,14.746 16.802,14.939 16.067 C 14.967 15.958,14.982 15.075,14.991 12.898 L 15.004 9.879 15.289 9.786 C 15.663 9.664,16.228 9.377,16.502 9.170 C 16.801 8.944,17.203 8.515,17.399 8.215 C 17.842 7.536,18.115 6.299,17.947 5.732 C 17.880 5.507,17.735 5.294,17.589 5.203 C 17.444 5.114,17.068 4.978,15.688 4.514 L 14.559 4.135 13.587 3.176 C 12.439 2.043,12.408 2.021,11.973 2.039 C 11.630 2.054,11.481 2.115,11.275 2.327 C 11.179 2.426,11.117 2.529,11.082 2.649 C 11.013 2.887,10.830 3.912,10.481 6.009 L 10.189 7.768 7.503 5.091 C 6.025 3.619,4.734 2.346,4.633 2.262 C 4.388 2.057,4.085 1.974,3.797 2.031 M13.011 5.427 C 13.179 5.588,13.371 5.761,13.438 5.811 C 13.519 5.872,13.909 6.019,14.590 6.247 C 15.768 6.640,15.867 6.681,15.867 6.774 C 15.867 6.898,15.660 7.229,15.454 7.435 C 15.112 7.777,14.692 7.940,13.950 8.016 C 13.693 8.043,13.367 8.199,13.234 8.360 C 13.098 8.524,13.000 8.849,13.000 9.137 C 13.000 9.263,12.992 9.367,12.983 9.367 C 12.939 9.367,12.109 8.934,12.077 8.895 C 12.050 8.862,12.117 8.392,12.334 7.091 C 12.648 5.216,12.663 5.133,12.689 5.133 C 12.698 5.133,12.843 5.265,13.011 5.427 M9.000 11.250 L 9.000 12.500 8.882 12.500 C 8.669 12.500,8.268 12.399,7.721 12.207 C 7.270 12.049,7.149 12.019,6.966 12.022 C 6.599 12.026,6.239 12.262,6.090 12.597 C 6.027 12.740,6.021 12.843,5.997 14.183 C 5.983 14.991,5.958 15.654,5.939 15.703 C 5.899 15.807,5.725 15.959,5.614 15.987 C 5.488 16.019,5.312 15.972,5.200 15.878 C 4.989 15.701,5.000 15.872,5.000 12.802 L 5.000 10.000 7.000 10.000 L 9.000 10.000 9.000 11.250 M13.000 13.620 L 13.000 15.623 12.925 15.734 C 12.803 15.912,12.683 15.983,12.500 15.983 C 12.325 15.983,12.209 15.919,12.085 15.754 C 12.019 15.665,12.016 15.610,11.999 14.206 C 11.981 12.637,11.988 12.703,11.791 12.408 C 11.680 12.241,11.426 12.085,11.175 12.029 L 11.000 11.989 11.000 11.334 C 11.000 10.973,11.009 10.669,11.020 10.657 C 11.031 10.646,11.481 10.857,12.020 11.127 L 13.000 11.616 13.000 13.620 " fill="#1A1C1F" stroke="none" fill-rule="evenodd"></path></svg>