<svg width="16" height="16" viewBox="0 0 16 16" fill="none" xmlns="http://www.w3.org/2000/svg"><path d="M2.970 1.624 C 2.772 1.675,2.544 1.880,2.450 2.093 C 2.377 2.259,2.372 2.470,2.437 2.660 C 2.481 2.791,2.615 2.932,4.272 4.601 L 6.060 6.400 4.691 6.394 L 3.322 6.387 3.287 6.267 C 3.268 6.201,3.234 5.985,3.212 5.787 C 3.159 5.303,3.124 5.207,2.946 5.044 C 2.630 4.755,2.182 4.749,1.870 5.028 C 1.632 5.243,1.559 5.562,1.626 6.097 C 1.707 6.747,1.882 7.177,2.204 7.519 L 2.400 7.727 2.402 9.830 C 2.403 10.987,2.413 12.149,2.424 12.413 C 2.443 12.867,2.448 12.905,2.528 13.100 C 2.639 13.374,2.770 13.575,2.981 13.793 C 3.989 14.836,5.720 14.476,6.268 13.108 C 6.364 12.867,6.398 12.570,6.399 11.938 L 6.400 11.516 6.473 11.531 C 6.875 11.618,7.525 11.618,7.927 11.531 L 8.000 11.516 8.001 11.951 C 8.002 12.947,8.111 13.297,8.566 13.776 C 9.558 14.820,11.258 14.503,11.851 13.164 C 11.888 13.080,11.932 12.949,11.948 12.872 C 11.969 12.778,11.983 11.965,11.992 10.317 L 12.005 7.900 12.174 7.854 C 12.408 7.791,12.804 7.608,13.027 7.460 C 13.705 7.011,14.107 6.432,14.312 5.607 C 14.371 5.372,14.384 5.258,14.385 4.973 C 14.386 4.664,14.380 4.612,14.323 4.486 C 14.240 4.302,14.045 4.127,13.846 4.058 C 13.762 4.029,13.231 3.847,12.667 3.654 L 11.640 3.304 10.933 2.603 C 10.150 1.826,10.009 1.704,9.831 1.654 C 9.556 1.578,9.228 1.660,9.032 1.856 C 8.843 2.046,8.867 1.942,8.452 4.408 L 8.149 6.215 6.281 4.353 C 4.031 2.109,3.623 1.713,3.506 1.665 C 3.396 1.619,3.082 1.595,2.970 1.624 M10.478 4.409 L 10.787 4.712 11.677 5.011 C 12.167 5.175,12.602 5.327,12.645 5.349 C 12.737 5.397,12.732 5.432,12.599 5.653 C 12.326 6.106,11.955 6.324,11.333 6.398 C 10.925 6.446,10.818 6.487,10.640 6.661 C 10.461 6.837,10.430 6.916,10.408 7.260 C 10.399 7.388,10.382 7.493,10.370 7.493 C 10.357 7.493,10.186 7.413,9.989 7.315 C 9.653 7.148,9.631 7.132,9.642 7.068 C 9.649 7.031,9.756 6.376,9.880 5.613 C 10.123 4.121,10.126 4.107,10.151 4.107 C 10.161 4.107,10.308 4.243,10.478 4.409 M7.200 9.004 L 7.200 10.008 7.007 9.992 C 6.764 9.972,6.496 9.901,6.084 9.747 C 5.724 9.613,5.545 9.594,5.325 9.669 C 5.164 9.724,4.954 9.913,4.876 10.074 C 4.816 10.198,4.815 10.219,4.799 11.375 C 4.784 12.526,4.782 12.552,4.726 12.632 C 4.565 12.858,4.219 12.850,4.074 12.617 L 4.013 12.520 4.005 10.260 L 3.997 8.000 5.599 8.000 L 7.200 8.000 7.200 9.004 M10.395 10.914 C 10.387 12.464,10.385 12.523,10.333 12.610 C 10.193 12.848,9.836 12.860,9.674 12.631 C 9.616 12.551,9.615 12.528,9.600 11.375 C 9.585 10.207,9.584 10.199,9.522 10.075 C 9.487 10.006,9.416 9.908,9.363 9.857 C 9.248 9.746,9.020 9.627,8.922 9.627 C 8.816 9.627,8.800 9.545,8.800 8.998 L 8.800 8.506 9.602 8.907 L 10.403 9.308 10.395 10.914 " fill="#1A1C1F" stroke="none" fill-rule="evenodd"></path></svg>