<svg xmlns="http://www.w3.org/2000/svg" width="16" height="16" fill="none"><g clip-path="url(#a)"><path fill="#1A1C1F" fill-rule="evenodd" d="m13.853 4.05-2.221-.743-1.466-1.466a.798.798 0 0 0-1.354.434l-.66 3.952-4.386-4.386a.8.8 0 1 0-1.132 1.13L6.07 6.407H3.342c-.045-.072-.142-.284-.142-.8a.8.8 0 0 0-1.6 0c0 1.211.4 1.81.8 2.107v4.693c0 1.103.898 2 2 2s2-.897 2-2v-.889c.5.105 1.1.105 1.6 0v.89c0 1.102.898 2 2 2s2-.898 2-2V7.905c1.156-.285 2.4-1.206 2.4-3.099a.8.8 0 0 0-.547-.757M5.958 9.691a.8.8 0 0 0-1.158.716v2a.4.4 0 1 1-.8 0v-4.4h3.2v2c-.493 0-1.066-.229-1.242-.316M10 12.808a.4.4 0 0 1-.4-.4v-2a.8.8 0 0 0-.8-.8V8.503l1.6.8v3.106a.4.4 0 0 1-.4.4m1.2-6.4a.8.8 0 0 0-.8.8v.306l-.775-.388.509-3.053.5.5a.8.8 0 0 0 .313.193l1.783.595c-.266.944-1.212 1.042-1.53 1.047" clip-rule="evenodd"/></g><defs><clipPath id="a"><path fill="#fff" d="M0 0h16v16H0z"/></clipPath></defs></svg>