<svg width="28" height="28" viewBox="0 0 28 28" fill="none" xmlns="http://www.w3.org/2000/svg"><path d="M16.977 1.819 C 16.778 1.879,16.585 2.038,16.507 2.204 C 16.468 2.288,16.350 2.829,16.246 3.407 C 16.058 4.445,14.887 11.368,14.887 11.442 C 14.887 11.540,14.750 11.454,14.447 11.164 C 11.026 7.888,5.393 2.524,4.970 2.139 C 4.658 1.855,4.580 1.820,4.257 1.820 C 4.026 1.820,3.950 1.842,3.793 1.956 C 3.579 2.111,3.407 2.427,3.407 2.663 C 3.407 2.999,3.563 3.165,6.580 6.061 C 12.206 11.461,12.195 11.450,12.103 11.486 C 12.056 11.505,10.274 11.521,8.143 11.523 L 4.270 11.526 4.118 11.383 C 3.799 11.085,3.592 10.439,3.525 9.536 C 3.480 8.910,3.423 8.712,3.237 8.526 C 2.818 8.107,2.122 8.223,1.864 8.755 C 1.767 8.957,1.762 9.012,1.786 9.677 C 1.806 10.222,1.840 10.490,1.933 10.850 C 2.154 11.706,2.594 12.448,3.096 12.810 L 3.354 12.997 3.373 18.200 C 3.387 21.838,3.408 23.471,3.445 23.627 C 3.590 24.242,3.908 24.808,4.367 25.266 C 4.749 25.649,5.081 25.859,5.616 26.058 C 5.975 26.192,6.035 26.200,6.673 26.201 C 7.296 26.202,7.380 26.191,7.723 26.071 C 8.730 25.719,9.482 24.949,9.851 23.893 C 9.951 23.606,9.958 23.510,9.972 22.050 C 9.981 21.203,9.998 20.445,10.011 20.365 L 10.035 20.220 10.480 20.352 C 11.735 20.725,12.878 20.730,14.216 20.369 C 14.451 20.305,14.664 20.253,14.689 20.253 C 14.719 20.253,14.744 20.859,14.758 21.922 C 14.779 23.447,14.789 23.612,14.875 23.851 C 15.226 24.820,15.808 25.497,16.637 25.901 C 17.179 26.165,17.551 26.240,18.200 26.215 C 19.106 26.181,19.754 25.887,20.420 25.210 C 20.820 24.803,21.021 24.475,21.220 23.906 L 21.373 23.465 21.373 17.962 C 21.373 13.189,21.382 12.460,21.441 12.460 C 21.645 12.460,22.612 12.309,22.913 12.230 C 23.365 12.111,23.873 11.901,24.235 11.682 C 24.608 11.456,25.229 10.836,25.498 10.421 C 25.948 9.724,26.227 8.711,26.242 7.722 C 26.247 7.342,26.236 7.280,26.121 7.084 C 26.021 6.915,25.936 6.840,25.732 6.743 C 25.589 6.675,24.460 6.282,23.224 5.870 L 20.977 5.120 19.390 3.546 C 18.517 2.681,17.729 1.928,17.640 1.873 C 17.471 1.770,17.211 1.749,16.977 1.819 M18.948 5.572 L 20.025 6.618 20.687 6.849 C 21.052 6.975,22.023 7.304,22.846 7.580 C 23.669 7.855,24.371 8.098,24.407 8.120 C 24.460 8.153,24.454 8.227,24.372 8.559 C 24.105 9.639,23.532 10.232,22.447 10.550 C 22.151 10.636,21.944 10.655,21.107 10.675 L 20.118 10.697 19.930 10.858 C 19.805 10.965,19.724 11.084,19.687 11.214 C 19.657 11.322,19.620 11.855,19.605 12.398 C 19.589 12.941,19.566 13.396,19.553 13.408 C 19.541 13.420,18.869 13.172,18.060 12.857 C 16.904 12.406,16.587 12.265,16.576 12.196 C 16.569 12.147,16.837 10.459,17.172 8.445 C 17.820 4.548,17.824 4.527,17.853 4.527 C 17.864 4.527,18.356 4.997,18.948 5.572 M13.533 16.003 L 13.533 18.753 13.265 18.815 C 12.865 18.906,11.764 18.892,11.387 18.790 C 10.864 18.650,10.354 18.474,9.852 18.260 C 9.238 17.999,9.008 17.969,8.729 18.115 C 8.295 18.342,8.268 18.487,8.260 20.603 C 8.253 22.364,8.204 23.298,8.105 23.533 C 8.011 23.756,7.567 24.202,7.349 24.294 C 6.680 24.573,5.894 24.393,5.505 23.870 C 5.138 23.378,5.172 23.900,5.144 18.285 L 5.119 13.253 9.326 13.253 L 13.533 13.253 13.533 16.003 M17.581 14.546 L 19.599 15.330 19.600 19.311 L 19.600 23.292 19.483 23.540 C 19.134 24.277,18.436 24.626,17.694 24.435 C 17.354 24.349,17.057 24.159,16.851 23.898 C 16.552 23.522,16.559 23.577,16.521 21.047 C 16.481 18.444,16.484 18.465,16.155 18.214 C 15.971 18.074,15.923 18.060,15.630 18.060 L 15.307 18.060 15.307 15.995 C 15.308 14.859,15.321 13.881,15.337 13.821 C 15.359 13.739,15.390 13.718,15.465 13.737 C 15.519 13.751,16.471 14.115,17.581 14.546 " fill="#1A1C1F" stroke="none" fill-rule="evenodd"></path></svg>