<svg width="14" height="14" viewBox="0 0 14 14" fill="none" xmlns="http://www.w3.org/2000/svg"><path d="M2.561 1.433 C 2.448 1.474,2.286 1.598,2.211 1.703 C 2.079 1.887,2.047 2.162,2.138 2.340 C 2.211 2.484,2.399 2.681,3.848 4.136 L 5.307 5.600 4.107 5.594 L 2.907 5.588 2.876 5.483 C 2.859 5.426,2.829 5.232,2.810 5.054 C 2.761 4.592,2.679 4.434,2.415 4.299 C 2.160 4.169,1.849 4.209,1.637 4.399 C 1.428 4.588,1.364 4.866,1.422 5.335 C 1.494 5.902,1.647 6.280,1.926 6.576 L 2.095 6.757 2.107 8.937 C 2.115 10.420,2.128 11.163,2.146 11.258 C 2.193 11.506,2.392 11.858,2.612 12.081 C 3.103 12.579,3.856 12.733,4.515 12.469 C 4.930 12.303,5.305 11.917,5.483 11.473 C 5.569 11.257,5.599 11.003,5.599 10.457 L 5.600 10.075 5.660 10.090 C 5.961 10.166,6.637 10.166,6.937 10.091 L 6.993 10.077 7.007 10.621 C 7.016 11.008,7.031 11.205,7.057 11.302 C 7.108 11.491,7.280 11.814,7.414 11.975 C 7.973 12.646,8.966 12.795,9.696 12.319 C 9.871 12.206,10.112 11.960,10.229 11.778 C 10.276 11.704,10.348 11.562,10.388 11.463 C 10.458 11.291,10.463 11.259,10.479 10.862 C 10.489 10.631,10.497 9.648,10.498 8.679 L 10.500 6.916 10.681 6.863 C 11.021 6.763,11.437 6.533,11.735 6.280 C 12.247 5.846,12.628 4.948,12.594 4.258 C 12.580 3.989,12.519 3.840,12.364 3.700 C 12.240 3.589,12.116 3.542,10.827 3.115 L 10.208 2.911 9.578 2.288 C 9.232 1.945,8.900 1.627,8.841 1.580 C 8.549 1.346,8.147 1.372,7.892 1.641 C 7.828 1.709,7.770 1.785,7.762 1.810 C 7.734 1.905,7.489 3.295,7.257 4.689 C 7.191 5.080,7.133 5.404,7.128 5.410 C 7.122 5.415,6.265 4.570,5.222 3.532 C 4.178 2.493,3.266 1.599,3.195 1.545 C 3.012 1.408,2.758 1.363,2.561 1.433 M9.168 3.858 L 9.438 4.123 10.217 4.384 C 10.646 4.528,11.027 4.661,11.064 4.681 C 11.145 4.722,11.140 4.753,11.024 4.947 C 10.785 5.343,10.460 5.534,9.917 5.598 C 9.569 5.639,9.460 5.681,9.306 5.834 C 9.154 5.986,9.126 6.058,9.107 6.353 C 9.100 6.465,9.085 6.557,9.074 6.557 C 9.063 6.557,8.913 6.486,8.740 6.400 C 8.447 6.254,8.427 6.240,8.437 6.184 C 8.443 6.152,8.531 5.611,8.634 4.982 C 8.835 3.750,8.863 3.593,8.884 3.593 C 8.891 3.593,9.019 3.713,9.168 3.858 M6.300 7.878 L 6.300 8.757 6.142 8.743 C 5.929 8.726,5.645 8.651,5.346 8.534 C 5.126 8.448,5.076 8.437,4.900 8.436 C 4.736 8.435,4.683 8.445,4.597 8.489 C 4.456 8.562,4.335 8.683,4.269 8.815 C 4.215 8.923,4.214 8.938,4.198 9.944 C 4.185 10.720,4.173 10.979,4.150 11.027 C 4.041 11.249,3.687 11.253,3.558 11.034 C 3.513 10.957,3.511 10.906,3.505 8.978 L 3.498 7.000 4.899 7.000 L 6.300 7.000 6.300 7.878 M9.095 9.550 C 9.087 11.132,9.097 11.047,8.907 11.154 C 8.745 11.245,8.527 11.184,8.450 11.026 C 8.426 10.977,8.415 10.726,8.402 9.943 C 8.386 8.927,8.386 8.925,8.329 8.811 C 8.228 8.610,7.965 8.423,7.781 8.423 C 7.735 8.423,7.729 8.407,7.715 8.266 C 7.707 8.179,7.700 7.959,7.700 7.776 L 7.700 7.443 8.401 7.794 L 9.103 8.145 9.095 9.550 " fill="#1A1C1F" stroke="none" fill-rule="evenodd"></path></svg>