<svg width="12" height="12" viewBox="0 0 12 12" fill="none" xmlns="http://www.w3.org/2000/svg"><path d="M2.227 1.219 C 2.163 1.234,2.063 1.292,1.989 1.355 C 1.804 1.515,1.733 1.810,1.832 2.005 C 1.895 2.129,2.056 2.298,3.298 3.545 L 4.548 4.800 3.520 4.795 L 2.492 4.790 2.465 4.700 C 2.451 4.651,2.426 4.491,2.410 4.346 C 2.372 3.985,2.353 3.932,2.221 3.798 C 2.081 3.658,1.957 3.611,1.762 3.625 C 1.539 3.641,1.326 3.786,1.247 3.975 C 1.204 4.078,1.191 4.365,1.219 4.587 C 1.277 5.051,1.415 5.386,1.651 5.637 L 1.796 5.791 1.806 7.661 C 1.813 8.932,1.824 9.568,1.839 9.649 C 1.881 9.868,2.060 10.181,2.253 10.370 C 2.751 10.860,3.529 10.939,4.113 10.558 C 4.269 10.456,4.493 10.223,4.585 10.066 C 4.760 9.767,4.799 9.569,4.799 8.963 L 4.800 8.636 4.851 8.649 C 5.109 8.713,5.689 8.714,5.946 8.649 L 5.994 8.637 6.006 9.104 C 6.019 9.636,6.034 9.714,6.170 9.978 C 6.327 10.281,6.559 10.511,6.846 10.648 C 7.077 10.759,7.216 10.789,7.500 10.789 C 7.793 10.789,7.927 10.758,8.180 10.635 C 8.317 10.568,8.385 10.517,8.532 10.371 C 8.737 10.167,8.849 9.993,8.932 9.750 L 8.987 9.590 8.996 7.758 L 9.004 5.926 9.165 5.880 C 9.621 5.748,10.136 5.384,10.379 5.023 C 10.654 4.614,10.821 4.052,10.795 3.630 C 10.782 3.419,10.724 3.286,10.598 3.172 C 10.490 3.074,10.418 3.047,9.340 2.690 L 8.750 2.495 8.210 1.961 C 7.913 1.668,7.629 1.394,7.578 1.354 C 7.328 1.154,6.983 1.176,6.765 1.407 C 6.710 1.465,6.660 1.530,6.653 1.551 C 6.635 1.610,6.461 2.595,6.279 3.670 C 6.190 4.198,6.113 4.633,6.109 4.638 C 6.105 4.642,5.370 3.917,4.476 3.027 C 3.581 2.137,2.800 1.370,2.738 1.324 C 2.592 1.214,2.408 1.176,2.227 1.219 M7.858 3.307 L 8.090 3.534 8.758 3.758 C 9.125 3.881,9.452 3.995,9.484 4.012 C 9.553 4.048,9.549 4.074,9.449 4.240 C 9.245 4.579,8.966 4.743,8.500 4.799 C 8.191 4.835,8.111 4.866,7.979 4.998 C 7.846 5.131,7.822 5.192,7.806 5.445 C 7.800 5.541,7.787 5.620,7.777 5.620 C 7.768 5.620,7.639 5.560,7.491 5.486 C 7.240 5.361,7.223 5.349,7.231 5.301 C 7.236 5.273,7.317 4.782,7.410 4.210 C 7.593 3.090,7.594 3.080,7.614 3.080 C 7.621 3.080,7.731 3.182,7.858 3.307 M5.400 6.753 L 5.400 7.506 5.264 7.494 C 5.082 7.479,4.852 7.419,4.556 7.308 C 4.329 7.222,4.299 7.216,4.167 7.225 C 3.940 7.239,3.758 7.357,3.659 7.556 C 3.613 7.649,3.612 7.661,3.598 8.523 C 3.587 9.194,3.578 9.409,3.557 9.451 C 3.464 9.642,3.161 9.646,3.050 9.458 C 3.011 9.392,3.010 9.348,3.004 7.695 L 2.998 6.000 4.199 6.000 L 5.400 6.000 5.400 6.753 M7.796 8.186 L 7.790 9.390 7.745 9.463 C 7.632 9.645,7.359 9.642,7.250 9.458 C 7.212 9.394,7.209 9.342,7.198 8.530 C 7.190 7.929,7.179 7.646,7.161 7.591 C 7.146 7.544,7.092 7.469,7.023 7.400 C 6.914 7.290,6.839 7.252,6.655 7.211 L 6.600 7.199 6.600 6.790 L 6.600 6.380 7.201 6.681 L 7.802 6.981 7.796 8.186 " fill="#1A1C1F" stroke="none" fill-rule="evenodd"></path></svg>