<svg xmlns="http://www.w3.org/2000/svg" width="20" height="20" fill="none"><g clip-path="url(#a)"><path fill="#1A1C1F" fill-rule="evenodd" d="m17.316 5.052-2.776-.926-1.833-1.833a.997.997 0 0 0-1.464.053c-.12.14-.2.309-.229.49l-.823 4.94-5.484-5.483a1 1 0 1 0-1.414 1.414L7.586 8H4.178C4.121 7.91 4 7.645 4 7a1 1 0 0 0-2 0c0 1.514.5 2.262 1 2.633V15.5C3 16.88 4.122 18 5.5 18S8 16.88 8 15.5v-1.11c.66.131 1.34.131 2 0v1.11c0 1.38 1.122 2.5 2.5 2.5s2.5-1.12 2.5-2.5V9.874c1.445-.357 3-1.508 3-3.874a1 1 0 0 0-.684-.948m-9.869 7.054A1 1 0 0 0 6 13.001v2.5a.5.5 0 0 1-1 0v-5.5h4v2.5c-.616 0-1.332-.286-1.553-.395m5.053 3.895a.5.5 0 0 1-.5-.5v-2.5a1 1 0 0 0-1-.999V10.62l2 1v3.882a.5.5 0 0 1-.5.5m1.5-8a1 1 0 0 0-1 1v.382l-.969-.485.636-3.816.626.626a1 1 0 0 0 .391.241l2.229.743c-.333 1.18-1.516 1.303-1.912 1.31z" clip-rule="evenodd"/></g><defs><clipPath id="a"><path fill="#fff" d="M0 0h20v20H0z"/></clipPath></defs></svg>