<svg xmlns="http://www.w3.org/2000/svg" width="24" height="24" fill="none"><g clip-path="url(#a)"><path fill="#1A1C1F" fill-rule="evenodd" d="m21.315 5.91-3.633-1.213-2.405-2.404a.997.997 0 0 0-1.464.053c-.12.139-.2.309-.229.49l-1.146 6.88h-.024L4.992 2.292a1 1 0 0 0-1.414 1.414l6.007 6.008H4.382c-.105-.07-.383-.46-.383-1.57a1 1 0 1 0-2 0c0 1.952.67 2.835 1.286 3.236v7.69A2.93 2.93 0 0 0 6.214 22a2.93 2.93 0 0 0 2.929-2.93v-1.72c.942.28 2.2.28 3.143 0v1.72A2.93 2.93 0 0 0 15.215 22a2.93 2.93 0 0 0 2.929-2.93v-7.46c1.699-.34 3.857-1.586 3.857-4.752a1 1 0 0 0-.684-.948zM8.641 14.99a1 1 0 0 0-1.5.866v3.214a.93.93 0 1 1-1.858 0v-7.356h5.714v3.863c-.095.01-.191.02-.286.02-.993 0-2.064-.603-2.072-.606zM15.213 20a.93.93 0 0 1-.929-.93v-3.214a.996.996 0 0 0-1.286-.954v-2.57l3.143 1.57v5.168a.93.93 0 0 1-.928.93m1.929-10.287a1 1 0 0 0-1 1v.954l-1.849-.924.944-5.663 1.198 1.197a1 1 0 0 0 .391.24l3.112 1.039c-.375 2.016-2.369 2.15-2.796 2.156" clip-rule="evenodd"/></g><defs><clipPath id="a"><path fill="#fff" d="M0 0h24v24H0z"/></clipPath></defs></svg>