<svg xmlns="http://www.w3.org/2000/svg" width="32" height="32" fill="none"><path fill="#1A1C1F" fill-rule="evenodd" d="M4.337 2.161c-.299.18-.526.623-.477.931.019.116.063.275.099.353.035.078 2.297 2.278 5.026 4.889s4.97 4.769 4.979 4.794-2.02.045-4.512.045h-4.53l-.181-.122c-.393-.264-.653-1.076-.731-2.287-.039-.599-.06-.7-.184-.887a1.01 1.01 0 0 0-1.261-.333c-.492.251-.612.606-.537 1.586.082 1.086.319 1.973.696 2.609.207.349.711.881.951 1.005l.162.084.015 6.012.015 6.013.179.519c.334.965.979 1.734 1.822 2.172 1.638.852 3.572.449 4.728-.985a3.64 3.64 0 0 0 .71-1.434c.097-.382.107-.596.107-2.233 0-1.702.006-1.808.094-1.774.051.02.291.094.533.164 1.489.433 2.737.425 4.29-.025l.516-.15.019 1.9c.018 1.878.02 1.904.156 2.309.689 2.04 2.798 3.139 4.787 2.493.597-.194 1.01-.455 1.5-.95.488-.493.741-.907.967-1.579l.125-.373.015-6.328.014-6.327.119-.032c.065-.018.23-.032.365-.033.357-.001 1.09-.138 1.603-.299a4.63 4.63 0 0 0 2.105-1.315c.799-.841 1.214-1.865 1.351-3.328.072-.767.015-1.064-.257-1.347-.186-.193-.326-.246-2.968-1.123l-2.774-.92-1.893-1.884c-1.265-1.259-1.943-1.896-2.042-1.921-.5-.122-1.03.11-1.212.531-.057.129-.449 2.342-.956 5.39-.473 2.844-.871 5.181-.883 5.194-.032.031-.102-.036-6.128-5.805C7.933 4.559 5.45 2.213 5.343 2.147c-.28-.171-.707-.165-1.006.014M22.96 7.587c.088.043 1.228.433 2.533.866 1.306.433 2.396.808 2.423.833.08.073-.109.83-.315 1.263-.392.827-1.118 1.345-2.188 1.563-.442.091-.688.106-1.447.092l-.915-.017-.205.163c-.389.309-.417.425-.436 1.801-.016 1.113-.025 1.215-.107 1.186a287 287 0 0 1-1.746-.679L18.9 14.01l.736-4.405c.404-2.423.736-4.428.736-4.457.001-.028.547.491 1.215 1.154.667.663 1.285 1.241 1.373 1.285m-7.493 10.702v3.142l-.28.063c-.507.114-1.407.127-1.925.03a9.5 9.5 0 0 1-2.083-.691c-.581-.271-.87-.311-1.168-.16-.243.123-.354.232-.47.458-.095.186-.101.351-.102 2.694-.001 2.797-.014 2.923-.345 3.404-.78 1.133-2.456.976-3.078-.287l-.123-.249-.014-5.773-.014-5.773h9.602zm4.572-1.687 2.358.918.002 4.56.001 4.56-.152.32a2 2 0 0 1-.905.898c-.389.178-1.058.164-1.457-.032a2.1 2.1 0 0 1-.856-.847c-.123-.232-.123-.233-.15-2.952-.03-3.058-.008-2.894-.445-3.248-.185-.15-.241-.166-.573-.166h-.369v-2.499c0-2.357.006-2.497.094-2.465z"/></svg>