<svg xmlns="http://www.w3.org/2000/svg" width="24" height="24" fill="none"><g clip-path="url(#a)"><path fill="#1A1C1F" fill-rule="evenodd" d="m19.38 16.527 1.72.06a1 1 0 1 1-.07 1.999q-.86-.027-1.72-.06a1 1 0 0 0-.275.028L5.448 21.928c-.271.068-.55.097-.828.087l-1.72-.06a1 1 0 0 1 .07-2q.86.029 1.72.06.135.006.276-.028l13.586-3.374q.408-.1.828-.086M6.56 10.31a.95.95 0 0 1-.075.667l-.06.108a2.5 2.5 0 0 0-.315 1.863 2.54 2.54 0 0 0 3.036 1.897 2.53 2.53 0 0 0 1.59-1.144.92.92 0 0 1 .583-.417 1.007 1.007 0 0 1 1.2.75c.056.243.057.53-.082.756a4.52 4.52 0 0 1-2.81 1.996A4.535 4.535 0 0 1 4.19 13.39c-.26-1.126-.05-2.297.508-3.356a.95.95 0 0 1 .63-.466c.548-.127 1.103.194 1.23.742zm2.144-3.945 1.835 2.873 2.114-.567c.755-.202 1.306.037 1.753.63l2.963 3.93c.067.09.133.256.157.346a.98.98 0 0 1-.677 1.217c-.453.12-.867-.09-1.114-.413l-2.805-3.713-2.657.712a1.01 1.01 0 0 1-1.16-.466L6.93 7.358A1.006 1.006 0 0 1 7.543 5.9c.453-.122.916.08 1.16.465M6.14 2.03a1.52 1.52 0 0 1 1.837 1.06 1.5 1.5 0 0 1-1.06 1.838 1.48 1.48 0 0 1-1.838-1.06 1.5 1.5 0 0 1 1.06-1.838" clip-rule="evenodd"/></g><defs><clipPath id="a"><path fill="#fff" d="M0 0h24v24H0z"/></clipPath></defs></svg>