<svg xmlns="http://www.w3.org/2000/svg" width="28" height="28" fill="none"><g clip-path="url(#a)"><path fill="#1A1C1F" fill-rule="evenodd" d="m23.067 19.496 1.534.054a.875.875 0 1 1-.062 1.75l-1.533-.054a1 1 0 0 0-.213.019q-8.6 1.832-17.198 3.671-.316.069-.64.056L3.4 24.938a.876.876 0 0 1 .06-1.749q.78.024 1.556.054a.7.7 0 0 0 .213-.019 5931 5931 0 0 0 17.197-3.672q.286-.062.64-.056M6.512 16.272a5.1 5.1 0 0 1 .332-3.543.85.85 0 0 1 .552-.452.86.86 0 0 1 1.08.623.9.9 0 0 1-.042.576 3.43 3.43 0 0 0-.24 2.346c.478 1.783 2.29 2.875 4.076 2.397a3.45 3.45 0 0 0 2.332-2.072.9.9 0 0 1 .592-.55c.446-.12.964.111 1.1.618a.8.8 0 0 1-.047.555 5.23 5.23 0 0 1-3.525 3.14c-2.634.705-5.465-.86-6.21-3.638m1.34-6.832a.887.887 0 0 1 .624-1.08l.608-.163c.973-.26 1.966.039 2.489.854l.154.254 2.899-.776a.876.876 0 0 1 1.076.61.887.887 0 0 1-.623 1.08l-2.392.64.96 1.555 2.96-.792c.364-.098.704.04.94.347l3.017 3.884a.7.7 0 0 1 .137.267.867.867 0 0 1-.63 1.06c-.365.097-.703-.03-.937-.336l-2.663-3.37-3 .803a.875.875 0 0 1-.973-.39l-2.318-3.79c-.152-.241-.28-.315-.646-.217l-.607.163a.87.87 0 0 1-1.075-.603m-1.13-4.216A1.773 1.773 0 0 1 7.97 3.065c.933-.25 1.89.32 2.14 1.252S9.808 6.2 8.875 6.45c-.932.25-1.902-.294-2.152-1.226z" clip-rule="evenodd"/></g><defs><clipPath id="a"><path fill="#fff" d="M0 0h28v28H0z"/></clipPath></defs></svg>