<svg xmlns="http://www.w3.org/2000/svg" width="12" height="12" fill="none"><g clip-path="url(#a)"><path fill="#1A1C1F" fill-rule="evenodd" d="M10.427 8.384a.603.603 0 0 1-.444.724q-3.84.923-7.686 1.844a.6.6 0 0 1-.279-1.167q3.84-.923 7.685-1.845a.6.6 0 0 1 .724.444M3.299 5.041a.61.61 0 0 1 .034.849.9.9 0 0 0 .754 1.506c.226-.024.429-.117.634-.367a.6.6 0 0 1 .97.706 2.1 2.1 0 1 1-3.24-2.66.6.6 0 0 1 .848-.034m1.427-1.559.806 1.324 1.284-.273c.459-.098.782.063 1.031.433l1.128 1.616a.7.7 0 0 1 .084.213.59.59 0 0 1-.444.708c-.275.058-.517-.081-.654-.283L6.919 5.738l-1.614.343a.61.61 0 0 1-.68-.315L3.632 4.02a.603.603 0 0 1 .805-.808.63.63 0 0 1 .289.27M3.264 1.05a.913.913 0 0 1 1.067.694.9.9 0 0 1-.692 1.066.89.89 0 0 1-1.068-.692.9.9 0 0 1 .693-1.068" clip-rule="evenodd"/></g><defs><clipPath id="a"><path fill="#fff" d="M0 0h12v12H0z"/></clipPath></defs></svg>