<svg xmlns="http://www.w3.org/2000/svg" width="32" height="32" fill="none"><g clip-path="url(#a)"><path fill="#1A1C1F" fill-rule="evenodd" d="m26.362 22.282 1.753.06a1 1 0 1 1-.07 2l-1.753-.061q-.177.004-.244.02Q16.217 26.4 6.396 28.5q-.362.078-.732.065L3.885 28.5a1.002 1.002 0 0 1-.316-1.937 1 1 0 0 1 .385-.061q.89.027 1.78.062a.8.8 0 0 0 .243-.022q9.83-2.085 19.655-4.197.325-.072.73-.064M7.442 18.596a5.83 5.83 0 0 1 .38-4.05.97.97 0 0 1 .631-.516c.58-.155 1.091.18 1.234.712.056.209.042.436-.047.658-.4.827-.51 1.8-.275 2.68.546 2.04 2.619 3.286 4.658 2.74a3.95 3.95 0 0 0 2.667-2.368c.134-.334.398-.553.675-.628.51-.136 1.102.127 1.258.706a.92.92 0 0 1-.054.635 5.97 5.97 0 0 1-4.03 3.587c-3.01.807-6.246-.983-7.097-4.156m1.533-7.81c-.143-.532.18-1.09.712-1.233l.695-.186c1.113-.298 2.247.044 2.844.976l.176.29 3.313-.887a1 1 0 0 1 1.23.698 1.015 1.015 0 0 1-.713 1.234l-2.732.732 1.097 1.777 3.382-.906c.416-.112.806.047 1.073.397l3.45 4.438c.07.08.125.19.155.306a.99.99 0 0 1-.718 1.21c-.417.112-.803-.033-1.07-.383l-3.044-3.852-3.427.919a1 1 0 0 1-1.113-.447l-2.65-4.33c-.173-.276-.32-.36-.737-.25l-.695.187a.993.993 0 0 1-1.228-.69M7.684 5.97a2.027 2.027 0 0 1 1.424-2.467c1.066-.286 2.16.365 2.444 1.43a1.986 1.986 0 0 1-1.406 2.438c-1.067.286-2.177-.336-2.462-1.401" clip-rule="evenodd"/></g><defs><clipPath id="a"><path fill="#fff" d="M0 0h32v32H0z"/></clipPath></defs></svg>