<svg xmlns="http://www.w3.org/2000/svg" width="16" height="16" fill="none"><g clip-path="url(#a)"><path fill="#1A1C1F" fill-rule="evenodd" d="M13.902 11.179a.804.804 0 0 1-.591.963l-10.247 2.46a.801.801 0 0 1-.657-1.425.8.8 0 0 1 .283-.13q5.12-1.233 10.248-2.46a.8.8 0 0 1 .964.59zM4.399 6.72c.3.276.355.8.045 1.13a1.2 1.2 0 0 0 1.007 2.008c.3-.03.571-.154.845-.488a.8.8 0 1 1 1.294.943 2.8 2.8 0 1 1-4.321-3.547.8.8 0 0 1 1.13-.046m1.902-2.08 1.076 1.768 1.712-.364c.611-.13 1.042.084 1.375.577l1.504 2.156q.077.134.111.283a.783.783 0 0 1-.592.944c-.366.078-.69-.109-.872-.377l-1.39-1.976-2.151.457a.81.81 0 0 1-.907-.42L4.843 5.361a.805.805 0 0 1 1.073-1.079c.163.076.298.2.385.358M4.353 1.398a1.217 1.217 0 0 1 1.423.925 1.2 1.2 0 0 1-.924 1.423 1.185 1.185 0 0 1-1.424-.924 1.2 1.2 0 0 1 .925-1.424" clip-rule="evenodd"/></g><defs><clipPath id="a"><path fill="#fff" d="M0 0h16v16H0z"/></clipPath></defs></svg>