<svg xmlns="http://www.w3.org/2000/svg" width="32" height="32" fill="none"><path fill="#1A1C1F" fill-rule="evenodd" d="M9.005 3.538c-.808.301-1.315.957-1.367 1.77-.067 1.045.613 1.908 1.652 2.098.883.162 1.867-.388 2.184-1.219.385-1.01-.029-2.052-1.021-2.563-.298-.154-1.132-.204-1.448-.086m1.182 5.88a5 5 0 0 0-.691.228c-.66.34-.723 1.287-.112 1.692.308.204.544.215 1.133.054.58-.158.773-.171.927-.063.059.041.718 1.077 1.465 2.302s1.444 2.316 1.549 2.423q.191.195.447.26c.246.062.319.047 2.093-.427 1.146-.306 1.852-.471 1.874-.437.244.374 3.188 4.013 3.298 4.078.495.292 1.218.055 1.438-.472.091-.219.092-.59.001-.763-.084-.16-3.394-4.431-3.63-4.684-.227-.244-.434-.341-.722-.34-.136 0-.997.203-1.946.459-.937.251-1.709.452-1.715.445-.094-.098-1.072-1.75-1.046-1.766.02-.012.373-.111.783-.219 1.61-.423 2.082-.57 2.259-.706.331-.252.469-.768.309-1.152-.139-.332-.538-.609-.893-.619-.076-.003-.901.2-1.833.449a87 87 0 0 1-1.734.453c-.022 0-.125-.129-.229-.286a2.5 2.5 0 0 0-1.428-.99c-.415-.095-1.048-.063-1.597.081m-1.654 4.607c-.426.08-.669.348-.903.995-.308.852-.347 1.085-.346 2.073s.07 1.366.393 2.179a5.9 5.9 0 0 0 3.49 3.337c2.547.893 5.37-.102 6.869-2.419.38-.586.653-1.258.613-1.505a1.02 1.02 0 0 0-.458-.723c-.219-.14-.281-.154-.597-.138-.505.027-.655.157-1.044.909-.483.932-1.171 1.568-2.105 1.945-1.743.705-3.778-.036-4.71-1.714-.543-.978-.616-2.092-.213-3.259.257-.743.241-1.046-.072-1.376a.96.96 0 0 0-.917-.304m17.2 8.301c-.096.026-6.305 1.354-16.186 3.463l-3.654.779-1.072-.035c-1.331-.043-1.53.015-1.787.518-.298.585.054 1.292.709 1.424.156.031.776.061 1.377.067l1.093.011 5.894-1.266c12.154-2.611 13.9-2.979 14.16-2.984.146-.003.667.002 1.156.012 1.016.02 1.16-.019 1.454-.387.145-.183.163-.243.163-.564 0-.3-.023-.394-.143-.575-.26-.393-.422-.434-1.83-.464-.675-.015-1.275-.014-1.334.001"/></svg>