<svg xmlns="http://www.w3.org/2000/svg" width="20" height="20" fill="none"><g clip-path="url(#a)"><path fill="#1A1C1F" fill-rule="evenodd" d="M17.377 13.973c.12.498-.172 1.07-.74 1.205q-6.397 1.54-12.807 3.075a1 1 0 1 1-.466-1.945q6.399-1.538 12.808-3.074a1 1 0 0 1 1.206.74zm-11.88-5.57c.375.345.445.998.057 1.412a1.5 1.5 0 0 0 1.258 2.51c.376-.04.715-.193 1.057-.61a1 1 0 1 1 1.617 1.177 3.5 3.5 0 1 1-5.402-4.434 1 1 0 0 1 1.413-.056m2.378-2.6L9.22 8.01l2.14-.455c.764-.163 1.303.105 1.719.72l1.88 2.696c.063.093.12.262.14.353a.98.98 0 0 1-.74 1.18c-.46.098-.863-.135-1.091-.47l-1.737-2.47-2.69.571a1.01 1.01 0 0 1-1.134-.526L6.054 6.702a1.006 1.006 0 0 1 .688-1.424c.458-.098.91.13 1.133.525M5.44 1.748a1.52 1.52 0 0 1 1.78 1.155 1.5 1.5 0 0 1-1.156 1.78 1.48 1.48 0 0 1-1.78-1.156 1.5 1.5 0 0 1 1.156-1.78z" clip-rule="evenodd"/></g><defs><clipPath id="a"><path fill="#fff" d="M0 0h20v20H0z"/></clipPath></defs></svg>