<svg xmlns="http://www.w3.org/2000/svg" width="14" height="14" fill="none"><g clip-path="url(#a)"><path fill="#1A1C1F" fill-rule="evenodd" d="M12.164 9.781a.704.704 0 0 1-.518.844q-4.48 1.077-8.966 2.152a.7.7 0 0 1-.326-1.362q4.48-1.077 8.966-2.152a.7.7 0 0 1 .844.518m-8.316-3.9a.71.71 0 0 1 .04.99 1.05 1.05 0 0 0 .88 1.757c.263-.028.5-.136.74-.428a.7.7 0 1 1 1.132.824 2.45 2.45 0 1 1-3.78-3.103.7.7 0 0 1 .988-.04m1.665-1.819.941 1.545 1.498-.319c.535-.114.912.074 1.203.505l1.316 1.886a.9.9 0 0 1 .098.248.686.686 0 0 1-.518.826c-.32.068-.604-.095-.764-.33L8.072 6.694l-1.883.4a.71.71 0 0 1-.794-.368L4.237 4.691a.704.704 0 0 1 .94-.943.74.74 0 0 1 .336.314M3.808 1.223a1.065 1.065 0 0 1 1.245.81 1.05 1.05 0 0 1-.808 1.244A1.037 1.037 0 0 1 3 2.47a1.05 1.05 0 0 1 .81-1.246" clip-rule="evenodd"/></g><defs><clipPath id="a"><path fill="#fff" d="M0 0h14v14H0z"/></clipPath></defs></svg>