<svg width="16" height="16" viewBox="0 0 16 16" fill="none" xmlns="http://www.w3.org/2000/svg"><path d="M3.719 1.626 C 3.048 1.720,2.421 2.196,2.118 2.840 C 1.977 3.142,1.921 3.357,1.901 3.685 C 1.859 4.381,2.257 5.154,2.874 5.573 L 2.933 5.613 2.841 5.840 C 2.716 6.149,2.568 6.670,2.502 7.040 C 2.433 7.422,2.419 8.347,2.476 8.747 C 2.599 9.596,2.931 10.466,3.433 11.250 C 3.512 11.373,3.570 11.490,3.562 11.511 C 3.554 11.531,3.375 11.827,3.164 12.167 C 2.954 12.508,2.704 12.919,2.611 13.080 L 2.440 13.373 2.440 13.613 C 2.440 13.886,2.486 14.004,2.658 14.176 C 2.812 14.330,2.962 14.385,3.220 14.383 C 3.608 14.379,3.698 14.290,4.373 13.242 C 4.586 12.911,4.777 12.641,4.797 12.640 C 4.817 12.640,4.973 12.718,5.144 12.813 C 5.704 13.125,6.296 13.345,6.960 13.487 C 7.273 13.554,7.335 13.559,8.000 13.559 C 8.575 13.560,8.751 13.551,8.947 13.512 C 9.686 13.364,10.439 13.078,10.994 12.732 C 11.099 12.667,11.204 12.614,11.226 12.614 C 11.249 12.615,11.426 12.862,11.637 13.189 C 12.225 14.101,12.301 14.200,12.477 14.285 C 12.601 14.345,12.663 14.358,12.840 14.358 C 13.027 14.359,13.071 14.349,13.197 14.280 C 13.405 14.166,13.546 13.951,13.589 13.687 C 13.632 13.418,13.557 13.260,12.858 12.137 C 12.635 11.780,12.453 11.478,12.453 11.466 C 12.453 11.455,12.545 11.303,12.656 11.129 C 13.170 10.328,13.501 9.379,13.576 8.490 C 13.608 8.101,13.588 7.478,13.531 7.094 C 13.480 6.759,13.332 6.202,13.204 5.863 L 13.100 5.591 13.223 5.493 C 13.460 5.306,13.715 5.004,13.845 4.758 C 14.035 4.396,14.093 4.163,14.092 3.760 C 14.091 3.455,14.084 3.405,14.004 3.173 C 13.754 2.442,13.144 1.859,12.427 1.664 C 12.178 1.597,11.684 1.603,11.400 1.677 C 10.918 1.803,10.471 2.099,10.178 2.488 C 10.092 2.602,10.003 2.693,9.978 2.693 C 9.953 2.693,9.857 2.669,9.764 2.639 C 9.251 2.479,8.287 2.395,7.553 2.448 C 7.049 2.484,6.697 2.549,6.355 2.670 C 5.990 2.798,6.021 2.802,5.892 2.609 C 5.753 2.404,5.471 2.124,5.264 1.986 C 4.846 1.709,4.203 1.559,3.719 1.626 M8.787 4.067 C 9.976 4.276,11.088 5.119,11.636 6.227 C 11.920 6.801,12.023 7.213,12.045 7.867 C 12.071 8.629,11.959 9.172,11.646 9.800 C 11.441 10.212,11.221 10.513,10.867 10.868 C 10.383 11.353,9.905 11.650,9.263 11.863 C 8.817 12.011,8.630 12.036,8.013 12.035 C 7.420 12.034,7.256 12.010,6.776 11.849 C 5.548 11.439,4.608 10.488,4.202 9.247 C 4.053 8.793,4.018 8.507,4.034 7.884 C 4.046 7.427,4.058 7.308,4.115 7.090 C 4.448 5.809,5.330 4.780,6.507 4.302 C 6.823 4.174,7.204 4.067,7.480 4.029 C 7.736 3.993,8.495 4.016,8.787 4.067 M7.227 6.808 L 7.227 8.390 8.168 9.312 L 9.110 10.235 9.642 9.674 C 9.934 9.366,10.177 9.099,10.181 9.080 C 10.186 9.062,9.877 8.742,9.495 8.371 L 8.800 7.694 8.800 6.460 L 8.800 5.227 8.013 5.227 L 7.227 5.227 7.227 6.808 " fill="#1A1C1F" stroke="none" fill-rule="evenodd"></path></svg>