<svg xmlns="http://www.w3.org/2000/svg" width="20" height="20" fill="none"><g clip-path="url(#a)"><path fill="#1A1C1F" fill-rule="evenodd" d="M14.937 2c1.46 0 2.698 1.175 2.698 2.667 0 .952-.508 1.81-1.27 2.317.413.92.635 1.937.635 2.984 0 1.651-.54 3.143-1.46 4.35l1.301 2.095c.098.157.159.349.159.54 0 .57-.413 1.015-.984 1.015-.318 0-.625-.165-.825-.476l-1.143-1.778a7.07 7.07 0 0 1-4.032 1.27 7.3 7.3 0 0 1-4.032-1.238l-1.143 1.778c-.2.311-.508.476-.793.476-.857 0-1.271-.89-.857-1.555l1.301-2.096a7.4 7.4 0 0 1-1.46-4.38c0-1.017.222-2.032.635-2.953-.794-.508-1.302-1.397-1.302-2.318C2.365 3.206 3.603 2 5.032 2c1.047 0 2.032.603 2.476 1.492.825-.35 1.587-.476 2.508-.476.889 0 1.682.095 2.508.38A2.75 2.75 0 0 1 14.937 2m-4.89 2.984A5.057 5.057 0 0 0 5 10.03a5.057 5.057 0 0 0 5.046 5.047 5.057 5.057 0 0 0 5.046-5.047 5.057 5.057 0 0 0-5.046-5.046M11 7v2h2v2h-2v2H9v-2H7V9h2V7z" clip-rule="evenodd"/></g><defs><clipPath id="a"><path fill="#fff" d="M0 0h20v20H0z"/></clipPath></defs></svg>