<svg width="14" height="14" viewBox="0 0 14 14" fill="none" xmlns="http://www.w3.org/2000/svg"><path d="M3.254 1.423 C 2.839 1.481,2.390 1.736,2.112 2.072 C 1.737 2.524,1.579 3.141,1.701 3.671 C 1.814 4.157,2.116 4.606,2.515 4.877 L 2.566 4.912 2.486 5.110 C 2.376 5.381,2.247 5.837,2.189 6.160 C 2.130 6.488,2.117 7.304,2.165 7.642 C 2.275 8.407,2.580 9.199,3.027 9.877 C 3.088 9.969,3.125 10.050,3.117 10.071 C 3.110 10.090,2.953 10.350,2.768 10.647 C 2.584 10.945,2.367 11.303,2.286 11.444 C 2.151 11.678,2.138 11.713,2.129 11.864 C 2.116 12.073,2.178 12.252,2.313 12.391 C 2.451 12.533,2.585 12.585,2.813 12.586 C 3.153 12.586,3.224 12.518,3.807 11.615 C 4.004 11.311,4.180 11.061,4.197 11.061 C 4.215 11.060,4.351 11.128,4.501 11.211 C 4.988 11.483,5.512 11.678,6.078 11.798 C 6.312 11.848,6.442 11.860,6.866 11.870 C 7.438 11.884,7.674 11.863,8.094 11.759 C 8.656 11.622,9.240 11.383,9.633 11.131 C 9.739 11.063,9.829 11.011,9.834 11.016 C 9.839 11.021,10.001 11.270,10.196 11.570 C 10.738 12.407,10.798 12.477,11.029 12.544 C 11.288 12.619,11.585 12.535,11.737 12.344 C 11.838 12.215,11.907 11.986,11.893 11.824 C 11.878 11.657,11.791 11.493,11.299 10.698 C 11.100 10.378,10.927 10.094,10.915 10.067 C 10.897 10.028,10.926 9.969,11.072 9.741 C 11.524 9.037,11.813 8.207,11.879 7.429 C 11.907 7.089,11.890 6.543,11.839 6.207 C 11.795 5.914,11.666 5.426,11.553 5.130 L 11.463 4.892 11.571 4.807 C 11.782 4.639,12.007 4.372,12.118 4.158 C 12.283 3.839,12.331 3.640,12.330 3.290 C 12.329 3.028,12.321 2.976,12.257 2.782 C 12.047 2.152,11.492 1.620,10.873 1.455 C 10.656 1.397,10.222 1.403,9.975 1.467 C 9.553 1.578,9.162 1.837,8.906 2.177 C 8.830 2.277,8.753 2.357,8.731 2.356 C 8.709 2.356,8.625 2.335,8.543 2.309 C 8.094 2.169,7.251 2.096,6.609 2.142 C 6.168 2.174,5.860 2.231,5.560 2.336 C 5.241 2.448,5.268 2.451,5.155 2.283 C 5.034 2.103,4.787 1.858,4.606 1.738 C 4.239 1.494,3.677 1.363,3.254 1.423 M7.744 3.570 C 9.097 3.845,10.175 4.915,10.480 6.283 C 10.556 6.624,10.566 7.232,10.502 7.605 C 10.376 8.347,10.051 8.970,9.510 9.510 C 9.001 10.018,8.419 10.335,7.708 10.491 C 7.445 10.548,6.623 10.548,6.358 10.490 C 4.972 10.186,3.947 9.197,3.600 7.827 C 3.537 7.581,3.535 7.550,3.536 7.000 C 3.537 6.460,3.541 6.416,3.598 6.206 C 3.862 5.233,4.431 4.468,5.258 3.977 C 5.603 3.771,6.149 3.580,6.545 3.525 C 6.803 3.489,7.473 3.514,7.744 3.570 M6.323 5.957 L 6.323 7.341 7.147 8.148 L 7.971 8.955 8.436 8.465 C 8.692 8.195,8.905 7.961,8.909 7.945 C 8.912 7.929,8.642 7.649,8.308 7.324 L 7.700 6.732 7.700 5.652 L 7.700 4.573 7.012 4.573 L 6.323 4.573 6.323 5.957 " fill="#1A1C1F" stroke="none" fill-rule="evenodd"></path></svg>