<svg width="12" height="12" viewBox="0 0 12 12" fill="none" xmlns="http://www.w3.org/2000/svg"><path d="M2.789 1.221 C 1.893 1.338,1.244 2.302,1.468 3.184 C 1.571 3.589,1.822 3.953,2.155 4.180 L 2.199 4.210 2.131 4.380 C 2.037 4.612,1.926 5.003,1.876 5.280 C 1.825 5.567,1.814 6.260,1.857 6.560 C 1.949 7.197,2.198 7.849,2.575 8.438 C 2.634 8.530,2.678 8.618,2.672 8.633 C 2.666 8.648,2.531 8.870,2.373 9.126 C 2.215 9.381,2.029 9.689,1.959 9.809 C 1.844 10.010,1.833 10.040,1.825 10.169 C 1.809 10.422,1.929 10.632,2.152 10.741 C 2.232 10.781,2.280 10.789,2.413 10.789 C 2.704 10.787,2.774 10.718,3.280 9.931 C 3.439 9.683,3.582 9.481,3.598 9.480 C 3.613 9.480,3.730 9.538,3.858 9.609 C 4.278 9.843,4.721 10.008,5.220 10.115 C 5.457 10.166,5.499 10.169,6.010 10.169 C 6.492 10.169,6.572 10.164,6.750 10.125 C 7.350 9.993,7.861 9.795,8.266 9.535 C 8.352 9.480,8.425 9.438,8.429 9.443 C 8.433 9.447,8.572 9.660,8.738 9.916 C 9.097 10.470,9.173 10.575,9.274 10.658 C 9.495 10.842,9.883 10.803,10.060 10.580 C 10.147 10.470,10.206 10.274,10.194 10.135 C 10.181 9.992,10.107 9.851,9.685 9.170 C 9.514 8.895,9.366 8.652,9.356 8.629 C 9.341 8.596,9.365 8.545,9.491 8.349 C 9.877 7.746,10.125 7.035,10.182 6.367 C 10.206 6.076,10.191 5.608,10.148 5.320 C 10.110 5.069,9.999 4.651,9.903 4.397 L 9.825 4.193 9.918 4.120 C 10.099 3.976,10.292 3.748,10.387 3.564 C 10.528 3.291,10.570 3.120,10.569 2.820 C 10.568 2.591,10.563 2.554,10.503 2.380 C 10.467 2.276,10.403 2.131,10.360 2.060 C 10.126 1.668,9.726 1.356,9.319 1.247 C 9.133 1.197,8.762 1.202,8.550 1.258 C 8.188 1.352,7.853 1.575,7.634 1.866 C 7.569 1.951,7.502 2.020,7.484 2.020 C 7.465 2.020,7.393 2.002,7.323 1.980 C 6.981 1.873,6.334 1.807,5.825 1.827 C 5.346 1.846,5.008 1.908,4.643 2.043 L 4.516 2.089 4.483 2.047 C 4.465 2.024,4.410 1.948,4.360 1.879 C 4.253 1.730,4.023 1.528,3.850 1.431 C 3.679 1.335,3.404 1.246,3.201 1.221 C 3.013 1.198,2.966 1.198,2.789 1.221 M6.638 3.060 C 7.462 3.228,8.200 3.758,8.633 4.495 C 8.910 4.965,9.040 5.449,9.040 6.013 C 9.040 6.843,8.741 7.564,8.152 8.151 C 7.717 8.585,7.212 8.860,6.608 8.992 C 6.382 9.041,5.677 9.041,5.450 8.991 C 4.263 8.733,3.384 7.884,3.086 6.709 C 3.032 6.498,3.030 6.472,3.031 6.000 C 3.032 5.536,3.035 5.500,3.084 5.317 C 3.349 4.341,3.999 3.585,4.880 3.227 C 5.117 3.130,5.403 3.050,5.610 3.021 C 5.832 2.991,6.405 3.012,6.638 3.060 M5.420 5.106 L 5.420 6.292 6.127 6.985 L 6.833 7.677 7.232 7.256 C 7.451 7.024,7.633 6.824,7.636 6.810 C 7.639 6.796,7.408 6.557,7.121 6.278 L 6.600 5.770 6.600 4.845 L 6.600 3.920 6.010 3.920 L 5.420 3.920 5.420 5.106 " fill="#1A1C1F" stroke="none" fill-rule="evenodd"></path></svg>