<svg xmlns="http://www.w3.org/2000/svg" width="24" height="24" fill="none"><g clip-path="url(#a)"><path fill="#1A1C1F" fill-rule="evenodd" d="M17.25 3A3.74 3.74 0 0 1 21 6.75a3.76 3.76 0 0 1-1.344 2.875c.219.75.344 1.531.344 2.344a8.05 8.05 0 0 1-1.781 5.062l1.625 2.407c.093.156.156.375.156.562 0 .531-.469 1-1 1a.98.98 0 0 1-.812-.437l-1.438-2.157a7.922 7.922 0 0 1-9.531 0L5.78 20.563a1 1 0 0 1-.843.437c-.532 0-1-.437-1-1q0-.281.187-.562L5.75 17a7.9 7.9 0 0 1-1.781-5.031c0-.813.125-1.625.344-2.375A3.77 3.77 0 0 1 3 6.75 3.76 3.76 0 0 1 6.75 3c1.125 0 2.156.5 2.844 1.313.75-.22 1.562-.375 2.406-.375.813 0 1.625.156 2.406.374A3.72 3.72 0 0 1 17.25 3M12 5.938a6.035 6.035 0 0 0-6.031 6.03A6.035 6.035 0 0 0 12 18c3.313 0 6-2.719 6-6.031 0-3.313-2.687-6.031-6-6.031M6.75 5C5.781 5 5 5.781 5 6.75c0 .313.094.625.25.906.625-.968 1.438-1.812 2.406-2.406C7.375 5.063 7.063 5 6.75 5m10.5 0c-.344 0-.656.094-.906.25a8 8 0 0 1 2.406 2.406c.156-.281.25-.593.25-.906C19 5.781 18.219 5 17.25 5M11 12.031c0 .25.125.531.313.719l1.624 1.563a.97.97 0 0 0 .688.28c.563 0 1-.468 1-1a.95.95 0 0 0-.312-.718L13 11.594V8.438c0-.563-.437-1-1-1-.531 0-1 .437-1 1z" clip-rule="evenodd"/></g><defs><clipPath id="a"><path fill="#fff" d="M0 0h24v24H0z"/></clipPath></defs></svg>