<svg xmlns="http://www.w3.org/2000/svg" width="28" height="28" fill="none"><g clip-path="url(#a)"><path fill="#1A1C1F" fill-rule="evenodd" d="M20.426 3.514A4.085 4.085 0 0 1 24.5 7.588a4.13 4.13 0 0 1-1.45 3.144 9.8 9.8 0 0 1 .575 3.254c0 2.38-.875 4.54-2.297 6.235l2.133 2.87a.881.881 0 0 1-.71 1.395c-.274 0-.548-.109-.712-.355l-1.969-2.68c-1.668 1.34-3.773 2.16-6.07 2.16a9.53 9.53 0 0 1-6.043-2.16l-1.996 2.68c-.164.246-.438.355-.711.355a.9.9 0 0 1-.875-.875c0-.191.055-.355.191-.52l2.106-2.87a9.64 9.64 0 0 1-2.27-6.235c0-1.148.192-2.242.575-3.254A4.07 4.07 0 0 1 3.5 7.588c0-2.242 1.832-4.074 4.102-4.074 1.203 0 2.351.547 3.117 1.449 1.011-.383 2.133-.574 3.281-.574s2.27.191 3.281.574a4.13 4.13 0 0 1 3.145-1.45M14 6.139c-4.32 0-7.848 3.527-7.848 7.847 0 4.348 3.528 7.875 7.848 7.875a7.877 7.877 0 0 0 7.875-7.875c0-4.32-3.527-7.847-7.875-7.847m-6.398-.875c-1.286 0-2.352 1.039-2.352 2.324 0 .547.191 1.039.52 1.45.793-1.34 1.94-2.462 3.28-3.282a2.32 2.32 0 0 0-1.448-.492m12.796-.028c-.492 0-.93.164-1.421.52a10.1 10.1 0 0 1 3.253 3.281c.328-.41.52-.902.52-1.45a2.37 2.37 0 0 0-2.352-2.35M9.625 14.014c0-.465.383-.875.875-.875h2.625v-2.625c0-.465.383-.875.875-.875a.9.9 0 0 1 .875.875v2.625H17.5a.9.9 0 0 1 .875.875c0 .492-.41.875-.875.875h-2.625v2.625c0 .492-.41.875-.875.875a.864.864 0 0 1-.875-.875v-2.625H10.5a.864.864 0 0 1-.875-.875" clip-rule="evenodd"/></g><defs><clipPath id="a"><path fill="#fff" d="M0 0h28v28H0z"/></clipPath></defs></svg>