<svg width="28" height="28" viewBox="0 0 28 28" fill="none" xmlns="http://www.w3.org/2000/svg"><path d="M6.709 3.619 C 5.980 3.782,5.247 4.193,4.702 4.745 C 4.304 5.148,4.153 5.356,3.919 5.824 C 3.622 6.418,3.539 6.808,3.536 7.630 C 3.534 8.293,3.542 8.353,3.679 8.761 C 3.928 9.499,4.164 9.894,4.682 10.439 L 4.957 10.729 4.788 11.326 C 4.560 12.131,4.494 12.497,4.427 13.330 C 4.298 14.932,4.647 16.701,5.391 18.223 C 5.625 18.702,6.239 19.693,6.533 20.067 L 6.662 20.230 5.754 21.467 C 4.471 23.216,4.386 23.347,4.388 23.582 C 4.391 24.154,4.949 24.593,5.487 24.447 C 5.744 24.378,5.951 24.143,7.002 22.730 C 7.500 22.061,7.933 21.513,7.964 21.513 C 7.995 21.513,8.185 21.631,8.385 21.775 C 9.634 22.672,10.983 23.228,12.579 23.504 C 13.225 23.615,14.775 23.615,15.421 23.504 C 16.940 23.241,18.205 22.736,19.465 21.888 C 19.807 21.659,20.089 21.475,20.093 21.480 C 20.258 21.720,21.788 23.779,21.968 24.003 C 22.230 24.329,22.488 24.497,22.727 24.499 C 22.925 24.499,23.312 24.288,23.455 24.100 C 23.572 23.947,23.590 23.883,23.590 23.616 C 23.590 23.259,23.698 23.433,22.247 21.452 C 21.762 20.790,21.376 20.220,21.389 20.186 C 21.402 20.151,21.507 20.000,21.621 19.850 C 21.915 19.463,22.354 18.755,22.584 18.299 C 23.393 16.690,23.698 15.115,23.571 13.207 C 23.520 12.442,23.445 12.032,23.218 11.284 L 23.060 10.764 23.318 10.480 C 23.839 9.908,24.171 9.310,24.369 8.584 C 24.515 8.048,24.515 7.109,24.368 6.567 C 23.756 4.307,21.374 3.022,19.133 3.742 C 18.562 3.926,18.045 4.236,17.555 4.690 L 17.277 4.947 16.723 4.789 C 14.945 4.278,12.961 4.286,11.199 4.809 L 10.729 4.949 10.404 4.656 C 9.955 4.252,9.361 3.902,8.825 3.727 C 8.422 3.595,8.309 3.578,7.700 3.564 C 7.217 3.553,6.933 3.569,6.709 3.619 M20.977 5.329 C 21.297 5.409,21.807 5.704,22.052 5.952 C 22.746 6.656,22.917 7.745,22.472 8.630 C 22.382 8.808,22.291 8.964,22.268 8.978 C 22.246 8.992,22.105 8.831,21.956 8.620 C 21.307 7.704,20.462 6.839,19.570 6.175 C 19.279 5.959,19.040 5.761,19.040 5.735 C 19.040 5.657,19.815 5.312,20.076 5.274 C 20.345 5.235,20.683 5.256,20.977 5.329 M8.353 5.400 C 8.469 5.438,8.674 5.532,8.810 5.609 L 9.057 5.749 8.727 5.977 C 7.630 6.732,6.690 7.660,6.001 8.669 C 5.875 8.853,5.754 8.992,5.732 8.978 C 5.709 8.964,5.617 8.806,5.527 8.627 C 5.199 7.976,5.199 7.218,5.527 6.554 C 5.823 5.955,6.534 5.413,7.148 5.319 C 7.469 5.270,8.085 5.311,8.353 5.400 M14.642 6.209 C 15.145 6.240,15.547 6.294,15.832 6.366 C 18.834 7.129,21.053 9.418,21.709 12.425 C 21.800 12.840,21.814 13.043,21.815 13.953 C 21.816 14.863,21.802 15.074,21.710 15.527 C 21.134 18.382,18.993 20.721,16.217 21.530 C 15.367 21.777,15.077 21.814,13.977 21.814 C 13.089 21.813,12.885 21.799,12.472 21.709 C 11.412 21.478,10.306 20.997,9.473 20.405 C 8.903 20.000,8.043 19.139,7.643 18.573 C 5.930 16.149,5.695 13.099,7.019 10.463 C 8.190 8.130,10.630 6.427,13.113 6.209 C 13.708 6.156,13.818 6.156,14.642 6.209 M13.702 9.706 C 13.527 9.761,13.315 9.964,13.202 10.183 C 13.121 10.342,13.113 10.470,13.113 11.758 L 13.113 13.160 11.670 13.160 L 10.227 13.160 10.029 13.312 C 9.605 13.636,9.510 14.091,9.784 14.481 C 10.050 14.860,10.056 14.861,11.675 14.878 L 13.106 14.893 13.121 16.325 C 13.135 17.570,13.147 17.776,13.217 17.903 C 13.326 18.103,13.547 18.280,13.773 18.347 C 14.120 18.451,14.598 18.243,14.782 17.906 C 14.853 17.775,14.865 17.582,14.879 16.325 L 14.894 14.893 16.325 14.878 C 17.738 14.864,17.759 14.862,17.935 14.753 C 18.366 14.484,18.495 13.961,18.223 13.577 C 17.935 13.169,18.009 13.185,16.357 13.168 L 14.894 13.152 14.879 11.721 C 14.864 10.389,14.857 10.279,14.770 10.132 C 14.608 9.856,14.361 9.693,14.082 9.677 C 13.947 9.669,13.776 9.682,13.702 9.706 " fill="#1A1C1F" stroke="none" fill-rule="evenodd"></path></svg>