<svg width="32" height="32" viewBox="0 0 32 32" fill="none" xmlns="http://www.w3.org/2000/svg"><path d="M7.667 4.136 C 6.834 4.322,5.996 4.792,5.374 5.423 C 4.919 5.883,4.747 6.121,4.479 6.656 C 4.139 7.335,4.044 7.781,4.042 8.720 C 4.039 9.477,4.048 9.546,4.205 10.013 C 4.488 10.854,4.759 11.308,5.348 11.927 L 5.659 12.255 5.445 13.036 C 4.905 15.004,4.887 16.762,5.386 18.717 C 5.559 19.395,5.855 20.201,6.161 20.827 C 6.429 21.375,7.133 22.510,7.467 22.934 L 7.615 23.120 6.577 24.534 C 5.112 26.529,5.013 26.681,5.015 26.951 C 5.018 27.605,5.656 28.106,6.271 27.940 C 6.564 27.860,6.801 27.592,8.002 25.977 C 8.571 25.212,9.066 24.587,9.102 24.587 C 9.138 24.587,9.354 24.721,9.583 24.886 C 11.011 25.911,12.552 26.546,14.376 26.861 C 15.114 26.989,16.886 26.989,17.624 26.861 C 19.304 26.571,20.812 25.981,22.098 25.110 C 22.414 24.895,22.738 24.680,22.817 24.631 L 22.960 24.542 23.833 25.734 C 25.124 27.497,25.357 27.778,25.617 27.896 C 25.740 27.952,25.900 27.998,25.973 27.998 C 26.178 27.999,26.628 27.768,26.786 27.581 C 26.943 27.393,27.018 27.041,26.959 26.765 C 26.919 26.576,26.418 25.851,25.159 24.161 L 24.385 23.121 24.531 22.934 C 25.144 22.148,25.877 20.872,26.231 19.973 C 26.848 18.409,27.055 16.987,26.938 15.120 C 26.882 14.225,26.798 13.763,26.534 12.895 L 26.354 12.301 26.688 11.924 C 27.297 11.237,27.622 10.645,27.850 9.810 C 28.018 9.198,28.017 8.125,27.849 7.505 C 27.150 4.924,24.427 3.454,21.867 4.277 C 21.213 4.487,20.623 4.841,20.062 5.360 L 19.745 5.654 19.112 5.473 C 17.080 4.889,14.813 4.898,12.799 5.496 L 12.262 5.656 11.890 5.321 C 11.377 4.859,10.698 4.460,10.085 4.259 C 9.625 4.108,9.495 4.090,8.800 4.074 C 8.249 4.061,7.924 4.079,7.667 4.136 M23.973 6.090 C 24.340 6.181,24.922 6.519,25.202 6.802 C 25.996 7.607,26.191 8.852,25.682 9.863 C 25.580 10.066,25.475 10.245,25.449 10.261 C 25.424 10.277,25.263 10.093,25.092 9.852 C 24.290 8.720,23.227 7.653,22.117 6.867 C 21.921 6.728,21.760 6.589,21.760 6.558 C 21.760 6.466,22.640 6.072,22.944 6.028 C 23.251 5.983,23.637 6.007,23.973 6.090 M9.547 6.171 C 9.679 6.215,9.913 6.322,10.067 6.409 L 10.347 6.568 9.696 7.031 C 8.649 7.776,7.609 8.828,6.882 9.878 C 6.725 10.104,6.576 10.276,6.550 10.261 C 6.458 10.204,6.145 9.513,6.087 9.237 C 5.960 8.639,6.036 8.065,6.320 7.486 C 6.653 6.807,7.468 6.187,8.169 6.079 C 8.536 6.023,9.240 6.070,9.547 6.171 M16.734 7.096 C 17.308 7.132,17.768 7.193,18.094 7.276 C 21.525 8.148,24.061 10.762,24.811 14.200 C 24.914 14.674,24.930 14.906,24.931 15.947 C 24.933 17.312,24.848 17.892,24.502 18.887 C 23.440 21.937,20.962 24.109,17.742 24.811 C 17.272 24.914,17.041 24.930,16.000 24.930 C 14.957 24.930,14.729 24.914,14.253 24.811 C 13.041 24.546,11.777 23.996,10.827 23.320 C 10.180 22.859,9.195 21.875,8.733 21.226 C 8.294 20.611,7.691 19.408,7.476 18.720 C 6.515 15.648,7.186 12.487,9.316 10.051 C 10.742 8.421,12.938 7.276,14.987 7.096 C 15.666 7.036,15.792 7.036,16.734 7.096 M15.627 11.097 C 15.437 11.176,15.207 11.407,15.088 11.638 C 14.995 11.820,14.987 11.966,14.987 13.438 L 14.987 15.040 13.337 15.040 L 11.688 15.040 11.462 15.213 C 10.977 15.583,10.868 16.104,11.182 16.550 C 11.486 16.983,11.493 16.984,13.343 17.003 L 14.979 17.020 14.996 18.657 C 15.011 20.080,15.025 20.315,15.105 20.460 C 15.230 20.689,15.483 20.891,15.740 20.968 C 16.137 21.087,16.683 20.849,16.893 20.464 C 16.975 20.314,16.989 20.093,17.004 18.657 L 17.021 17.020 18.666 17.003 L 20.311 16.987 20.538 16.827 C 21.018 16.488,21.133 15.949,20.819 15.506 C 20.498 15.052,20.577 15.069,18.694 15.049 L 17.021 15.031 17.004 13.395 C 16.985 11.561,16.986 11.570,16.573 11.236 C 16.410 11.104,16.313 11.070,16.066 11.057 C 15.898 11.048,15.700 11.066,15.627 11.097 " fill="#1A1C1F" stroke="none" fill-rule="evenodd"></path></svg>