<svg width="24" height="24" viewBox="0 0 24 24" fill="none" xmlns="http://www.w3.org/2000/svg"><path d="M6.220 3.044 C 5.319 3.174,4.411 3.706,3.806 4.459 C 3.516 4.819,3.363 5.105,3.201 5.591 C 2.767 6.893,3.081 8.283,4.048 9.339 L 4.295 9.608 4.245 9.834 C 4.217 9.958,4.156 10.231,4.108 10.440 C 4.031 10.780,4.022 10.937,4.021 11.920 C 4.021 13.123,4.052 13.394,4.281 14.189 C 4.537 15.076,5.090 16.176,5.591 16.794 L 5.732 16.968 5.660 17.094 C 5.620 17.163,5.267 17.706,4.877 18.300 C 4.486 18.894,4.116 19.478,4.053 19.599 C 3.628 20.420,4.565 21.300,5.418 20.880 C 5.610 20.785,5.743 20.612,6.591 19.350 C 6.928 18.850,7.215 18.440,7.228 18.440 C 7.242 18.440,7.448 18.567,7.686 18.722 C 9.320 19.788,11.410 20.216,13.339 19.881 C 14.280 19.718,15.511 19.228,16.352 18.682 C 16.557 18.549,16.737 18.440,16.752 18.441 C 16.768 18.441,16.978 18.742,17.220 19.108 C 17.904 20.144,18.313 20.711,18.452 20.814 C 18.825 21.090,19.319 21.047,19.674 20.708 C 19.895 20.496,19.978 20.299,19.978 19.980 C 19.979 19.702,19.977 19.697,19.702 19.260 C 19.550 19.018,19.160 18.422,18.836 17.936 L 18.247 17.052 18.334 16.910 C 18.381 16.831,18.534 16.599,18.672 16.394 C 19.177 15.646,19.627 14.560,19.838 13.583 C 19.956 13.037,20.008 12.083,19.960 11.340 C 19.939 11.010,19.914 10.704,19.903 10.660 C 19.893 10.616,19.837 10.368,19.779 10.110 L 19.674 9.639 19.922 9.370 C 20.385 8.865,20.661 8.376,20.865 7.700 C 20.962 7.378,20.974 7.277,20.974 6.740 C 20.974 6.203,20.962 6.102,20.865 5.780 C 20.575 4.816,20.097 4.160,19.304 3.636 C 18.928 3.388,18.498 3.202,18.049 3.093 C 17.695 3.007,16.884 3.008,16.490 3.095 C 15.828 3.241,15.199 3.568,14.676 4.037 L 14.390 4.294 14.165 4.245 C 13.121 4.013,12.916 3.988,12.080 3.986 C 11.193 3.984,10.609 4.047,9.960 4.216 L 9.604 4.308 9.492 4.190 C 9.430 4.126,9.267 3.982,9.128 3.871 C 8.290 3.202,7.226 2.899,6.220 3.044 M7.300 5.102 C 7.410 5.132,7.533 5.181,7.573 5.210 C 7.641 5.260,7.629 5.276,7.413 5.418 C 6.813 5.814,6.062 6.549,5.535 7.254 L 5.241 7.649 5.161 7.462 C 4.969 7.014,4.978 6.450,5.185 6.012 C 5.407 5.544,5.944 5.123,6.423 5.042 C 6.660 5.002,7.028 5.027,7.300 5.102 M17.862 5.124 C 18.336 5.302,18.711 5.689,18.884 6.180 C 18.955 6.382,18.965 6.486,18.951 6.840 C 18.934 7.244,18.844 7.600,18.757 7.600 C 18.738 7.600,18.626 7.469,18.507 7.308 C 18.037 6.672,17.303 5.946,16.650 5.470 C 16.501 5.362,16.373 5.266,16.364 5.257 C 16.334 5.228,16.726 5.073,16.915 5.039 C 17.174 4.992,17.615 5.032,17.862 5.124 M13.080 6.044 C 13.470 6.104,14.228 6.370,14.716 6.620 C 17.897 8.247,18.963 12.322,16.981 15.278 C 16.234 16.393,15.190 17.225,14.020 17.638 C 12.199 18.281,10.307 18.047,8.640 16.971 C 8.170 16.668,7.333 15.824,7.002 15.320 C 6.581 14.679,6.288 13.994,6.114 13.245 C 5.987 12.696,5.967 11.599,6.073 10.980 C 6.182 10.344,6.318 9.921,6.601 9.340 C 6.877 8.771,7.043 8.516,7.420 8.080 C 8.456 6.880,9.877 6.122,11.320 5.999 C 11.756 5.962,12.697 5.986,13.080 6.044 M11.769 8.040 C 11.592 8.081,11.349 8.247,11.219 8.418 C 11.017 8.682,11.004 8.778,11.002 9.926 L 11.000 10.991 9.870 11.007 C 8.616 11.025,8.585 11.031,8.303 11.305 C 8.092 11.510,8.027 11.662,8.023 11.960 C 8.019 12.316,8.054 12.416,8.267 12.644 C 8.544 12.939,8.653 12.962,9.927 12.989 L 10.994 13.011 11.008 14.136 C 11.023 15.388,11.031 15.431,11.298 15.690 C 11.522 15.907,11.699 15.980,12.000 15.978 C 12.300 15.976,12.449 15.911,12.680 15.680 C 12.981 15.379,12.979 15.392,12.993 14.134 L 13.006 13.008 14.153 12.993 C 15.230 12.978,15.310 12.972,15.460 12.892 C 15.809 12.707,15.967 12.426,15.972 11.981 C 15.976 11.660,15.919 11.520,15.697 11.305 C 15.415 11.031,15.383 11.025,14.133 11.007 L 13.005 10.991 12.993 9.866 L 12.980 8.740 12.871 8.554 C 12.634 8.152,12.189 7.944,11.769 8.040 " fill="#1A1C1F" stroke="none" fill-rule="evenodd"></path></svg>