<svg xmlns="http://www.w3.org/2000/svg" width="16" height="16" fill="none"><g clip-path="url(#a)"><path fill="#1A1C1F" fill-rule="evenodd" d="M11.95 1.6c1.168 0 2.158 1.092 2.158 2.159a2.2 2.2 0 0 1-1.016 1.828c.33.737.508 1.55.508 2.388 0 1.32-.432 2.514-1.168 3.479l1.041 1.676c.076.127.127.28.127.432 0 .457-.305.813-.762.813a.78.78 0 0 1-.686-.381l-.914-1.423a5.66 5.66 0 0 1-3.225 1.016 5.83 5.83 0 0 1-3.226-.99l-.914 1.422c-.152.229-.381.381-.635.381-.457 0-.813-.305-.813-.762 0-.152.026-.33.127-.482l1.042-1.677a5.93 5.93 0 0 1-1.169-3.504c0-.813.178-1.626.508-2.362-.635-.407-1.04-1.092-1.04-1.829C1.892 2.59 2.856 1.6 4 1.6c.838 0 1.65.483 2.006 1.194.66-.28 1.27-.381 2.007-.381.71 0 1.346.076 2.006.304A2.2 2.2 0 0 1 11.95 1.6M8.036 3.987A4.046 4.046 0 0 0 4 8.024a4.046 4.046 0 0 0 4.037 4.037 4.045 4.045 0 0 0 4.037-4.037 4.045 4.045 0 0 0-4.037-4.037M8.8 5.232v2.463l1.422 1.372-1.117 1.168-1.88-1.854v-3.15z" clip-rule="evenodd"/></g><defs><clipPath id="a"><path fill="#fff" d="M0 0h16v16H0z"/></clipPath></defs></svg>