<svg xmlns="http://www.w3.org/2000/svg" width="12" height="12" fill="none"><g clip-path="url(#a)"><path fill="#1A1C1F" fill-rule="evenodd" d="M8.962 1.2c.876 0 1.619.705 1.619 1.6 0 .571-.305 1.086-.762 1.39.248.553.381 1.162.381 1.791 0 .99-.324 1.886-.876 2.61l.78 1.257c.06.094.096.21.096.323 0 .343-.248.61-.59.61a.59.59 0 0 1-.496-.286L8.43 9.43a4.24 4.24 0 0 1-2.42.761 4.37 4.37 0 0 1-2.419-.742l-.685 1.066a.58.58 0 0 1-.476.286c-.515 0-.763-.534-.515-.933l.781-1.257A4.44 4.44 0 0 1 1.82 5.98c0-.61.133-1.22.381-1.771a1.68 1.68 0 0 1-.78-1.391c0-.895.742-1.619 1.6-1.619.628 0 1.218.362 1.485.895.495-.21.952-.285 1.505-.285.533 0 1.01.057 1.504.228A1.65 1.65 0 0 1 8.962 1.2M6.028 2.99A3.034 3.034 0 0 0 3 6.018a3.034 3.034 0 0 0 3.028 3.028 3.034 3.034 0 0 0 3.027-3.028A3.034 3.034 0 0 0 6.028 2.99M6.6 4.2v1.2h1.2v1.2H6.6v1.2H5.4V6.6H4.2V5.4h1.2V4.2z" clip-rule="evenodd"/></g><defs><clipPath id="a"><path fill="#fff" d="M0 0h12v12H0z"/></clipPath></defs></svg>