<svg xmlns="http://www.w3.org/2000/svg" width="14" height="14" fill="none"><g clip-path="url(#a)"><path fill="#1A1C1F" fill-rule="evenodd" d="M10.456 1.4c1.022 0 1.888.956 1.888 1.889 0 .644-.355 1.267-.888 1.6.289.644.444 1.355.444 2.089 0 1.155-.378 2.2-1.022 3.044l.91 1.467a.75.75 0 0 1 .112.378c0 .4-.267.71-.667.71a.68.68 0 0 1-.6-.332L9.833 11a4.95 4.95 0 0 1-2.822.889 5.1 5.1 0 0 1-2.822-.867l-.8 1.245c-.133.2-.333.333-.556.333-.4 0-.71-.267-.71-.667 0-.133.021-.289.11-.422l.911-1.467a5.2 5.2 0 0 1-1.022-3.066c0-.711.156-1.422.445-2.067-.556-.355-.911-.955-.911-1.6C1.656 2.267 2.5 1.4 3.5 1.4c.733 0 1.444.422 1.756 1.045.577-.245 1.11-.334 1.755-.334.622 0 1.178.067 1.756.267.333-.6.977-.978 1.689-.978M7.032 3.489A3.54 3.54 0 0 0 3.5 7.02a3.54 3.54 0 0 0 3.532 3.533 3.54 3.54 0 0 0 3.533-3.533A3.54 3.54 0 0 0 7.032 3.49M7.7 4.578v2.155l1.244 1.2-.977 1.023-1.645-1.623V4.578z" clip-rule="evenodd"/></g><defs><clipPath id="a"><path fill="#fff" d="M0 0h14v14H0z"/></clipPath></defs></svg>