<svg width="14" height="14" viewBox="0 0 14 14" fill="none" xmlns="http://www.w3.org/2000/svg"><path d="M3.208 1.434 C 2.998 1.475,2.877 1.520,2.661 1.636 C 2.277 1.843,2.039 2.096,1.841 2.508 C 1.696 2.810,1.670 2.933,1.671 3.302 C 1.671 3.569,1.679 3.628,1.736 3.803 C 1.866 4.200,2.083 4.527,2.372 4.763 C 2.573 4.928,2.569 4.882,2.427 5.273 C 2.319 5.570,2.214 5.989,2.167 6.312 C 2.126 6.585,2.126 7.369,2.167 7.642 C 2.284 8.432,2.578 9.196,3.027 9.877 C 3.088 9.969,3.125 10.050,3.117 10.071 C 3.110 10.090,2.953 10.350,2.769 10.647 C 2.136 11.670,2.109 11.724,2.130 11.947 C 2.153 12.207,2.290 12.413,2.513 12.522 C 2.684 12.606,2.946 12.611,3.095 12.535 C 3.235 12.463,3.319 12.355,3.774 11.667 C 3.999 11.327,4.185 11.045,4.188 11.042 C 4.191 11.038,4.298 11.095,4.424 11.168 C 4.919 11.454,5.496 11.675,6.070 11.797 C 6.313 11.848,6.438 11.860,6.866 11.870 C 7.438 11.884,7.674 11.863,8.094 11.759 C 8.656 11.622,9.240 11.383,9.633 11.131 C 9.739 11.063,9.829 11.011,9.834 11.016 C 9.838 11.021,9.982 11.240,10.154 11.503 C 10.633 12.237,10.700 12.331,10.807 12.423 C 10.989 12.578,11.280 12.617,11.496 12.515 C 11.700 12.418,11.865 12.183,11.893 11.948 C 11.920 11.713,11.891 11.652,11.263 10.640 C 11.084 10.352,10.927 10.094,10.915 10.068 C 10.897 10.028,10.926 9.970,11.072 9.741 C 11.524 9.037,11.813 8.207,11.879 7.429 C 11.907 7.089,11.890 6.543,11.839 6.207 C 11.794 5.906,11.660 5.405,11.549 5.122 L 11.457 4.889 11.533 4.833 C 11.692 4.714,11.985 4.386,12.080 4.220 C 12.134 4.126,12.211 3.949,12.252 3.827 C 12.323 3.617,12.327 3.586,12.326 3.267 C 12.325 2.984,12.317 2.901,12.274 2.765 C 12.072 2.127,11.567 1.638,10.930 1.467 C 10.670 1.397,10.237 1.397,9.975 1.467 C 9.511 1.592,9.146 1.841,8.869 2.222 C 8.815 2.297,8.754 2.357,8.732 2.356 C 8.710 2.356,8.625 2.335,8.543 2.309 C 8.094 2.169,7.272 2.097,6.621 2.142 C 6.170 2.173,5.864 2.229,5.560 2.336 C 5.245 2.446,5.278 2.453,5.134 2.251 C 4.857 1.863,4.411 1.558,3.978 1.462 C 3.734 1.408,3.400 1.396,3.208 1.434 M7.744 3.570 C 9.097 3.845,10.175 4.915,10.480 6.283 C 10.556 6.624,10.566 7.232,10.502 7.605 C 10.376 8.347,10.051 8.970,9.510 9.510 C 9.001 10.018,8.419 10.335,7.708 10.491 C 7.445 10.548,6.623 10.548,6.358 10.490 C 4.972 10.186,3.947 9.197,3.600 7.827 C 3.537 7.581,3.535 7.550,3.536 7.000 C 3.537 6.460,3.541 6.416,3.598 6.206 C 3.862 5.233,4.431 4.468,5.258 3.977 C 5.603 3.771,6.149 3.580,6.545 3.525 C 6.803 3.489,7.473 3.514,7.744 3.570 M6.300 5.600 L 6.300 6.300 5.600 6.300 L 4.900 6.300 4.900 7.000 L 4.900 7.700 5.600 7.700 L 6.300 7.700 6.300 8.400 L 6.300 9.100 7.000 9.100 L 7.700 9.100 7.700 8.400 L 7.700 7.700 8.400 7.700 L 9.100 7.700 9.100 7.000 L 9.100 6.300 8.400 6.300 L 7.700 6.300 7.700 5.600 L 7.700 4.900 7.000 4.900 L 6.300 4.900 6.300 5.600 " fill="#1A1C1F" stroke="none" fill-rule="evenodd"></path></svg>