<svg xmlns="http://www.w3.org/2000/svg" width="20" height="20" fill="none"><g clip-path="url(#a)"><path fill="#1A1C1F" fill-rule="evenodd" d="M14.937 2c1.46 0 2.698 1.365 2.698 2.698 0 .921-.508 1.81-1.27 2.286.413.92.635 1.937.635 2.984 0 1.651-.54 3.143-1.46 4.35l1.301 2.095c.095.159.159.349.159.54 0 .57-.381 1.015-.952 1.015a.97.97 0 0 1-.857-.476l-1.143-1.778a7.07 7.07 0 0 1-4.032 1.27 7.3 7.3 0 0 1-4.032-1.238l-1.143 1.778c-.19.285-.476.476-.793.476-.572 0-1.016-.381-1.016-.952 0-.19.032-.413.159-.603l1.301-2.096a7.4 7.4 0 0 1-1.46-4.38c0-1.017.222-2.032.635-2.953-.794-.508-1.302-1.365-1.302-2.286C2.365 3.238 3.571 2 5 2c1.048 0 2.064.603 2.508 1.492.825-.35 1.587-.476 2.508-.476.889 0 1.682.095 2.508.38A2.75 2.75 0 0 1 14.937 2m-4.89 2.984A5.057 5.057 0 0 0 5 10.03a5.057 5.057 0 0 0 5.046 5.047 5.057 5.057 0 0 0 5.046-5.047 5.057 5.057 0 0 0-5.046-5.046M11 6.54v3.079l1.778 1.714-1.397 1.46-2.35-2.317V6.54z" clip-rule="evenodd"/></g><defs><clipPath id="a"><path fill="#fff" d="M0 0h20v20H0z"/></clipPath></defs></svg>