<svg width="32" height="32" viewBox="0 0 32 32" fill="none" xmlns="http://www.w3.org/2000/svg"><path d="M7.640 4.137 C 6.286 4.434,5.052 5.451,4.430 6.782 C 4.101 7.486,4.037 7.802,4.038 8.720 C 4.039 9.472,4.049 9.549,4.205 10.012 C 4.489 10.857,4.778 11.334,5.390 11.973 L 5.645 12.240 5.467 12.856 C 5.369 13.195,5.249 13.663,5.201 13.896 C 5.002 14.855,4.978 16.811,5.153 17.813 C 5.337 18.869,5.754 20.081,6.266 21.051 C 6.541 21.570,7.156 22.532,7.470 22.935 L 7.617 23.123 6.978 23.975 C 5.532 25.901,5.055 26.602,5.028 26.842 C 4.971 27.350,5.213 27.724,5.725 27.920 C 6.012 28.029,6.252 28.000,6.513 27.824 C 6.687 27.707,7.275 26.957,8.457 25.345 L 9.047 24.540 9.763 25.020 C 11.181 25.969,12.805 26.618,14.427 26.884 C 14.910 26.963,17.090 26.963,17.573 26.884 C 19.138 26.627,20.832 25.962,22.097 25.109 C 22.414 24.895,22.738 24.680,22.817 24.631 L 22.960 24.542 23.919 25.850 C 25.225 27.628,25.377 27.807,25.682 27.924 C 25.898 28.006,25.965 28.010,26.179 27.954 C 26.469 27.877,26.769 27.654,26.876 27.436 C 26.997 27.188,27.012 26.816,26.908 26.616 C 26.796 26.399,26.171 25.522,25.158 24.160 L 24.385 23.121 24.531 22.934 C 25.144 22.148,25.877 20.871,26.231 19.973 C 26.848 18.409,27.055 16.987,26.938 15.120 C 26.882 14.226,26.798 13.763,26.536 12.899 L 26.356 12.308 26.743 11.859 C 27.228 11.296,27.539 10.755,27.775 10.066 C 27.953 9.548,27.959 9.498,27.962 8.724 C 27.964 8.055,27.945 7.850,27.848 7.504 C 27.469 6.147,26.601 5.121,25.307 4.501 C 24.615 4.170,24.112 4.053,23.376 4.054 C 22.064 4.055,21.069 4.438,20.123 5.305 L 19.740 5.656 19.202 5.496 C 17.161 4.890,14.839 4.890,12.798 5.496 L 12.260 5.656 11.850 5.277 C 11.172 4.650,10.494 4.306,9.603 4.137 C 9.069 4.036,8.102 4.036,7.640 4.137 M9.591 6.190 C 9.747 6.244,9.983 6.351,10.115 6.429 L 10.354 6.569 9.884 6.889 C 8.639 7.738,7.582 8.800,6.801 9.986 C 6.690 10.154,6.578 10.278,6.552 10.262 C 6.526 10.245,6.420 10.066,6.318 9.863 C 5.806 8.846,6.006 7.596,6.809 6.793 C 7.136 6.467,7.752 6.143,8.167 6.079 C 8.564 6.019,9.251 6.072,9.591 6.190 M23.908 6.105 C 25.575 6.458,26.456 8.325,25.682 9.863 C 25.580 10.066,25.474 10.246,25.448 10.262 C 25.421 10.278,25.272 10.106,25.116 9.879 C 24.411 8.852,23.402 7.824,22.356 7.069 C 21.999 6.811,21.707 6.580,21.707 6.556 C 21.707 6.531,21.881 6.427,22.093 6.325 C 22.705 6.032,23.249 5.966,23.908 6.105 M16.720 7.095 C 17.189 7.125,17.765 7.195,18.000 7.251 C 21.526 8.093,24.128 10.803,24.838 14.373 C 24.988 15.127,24.971 17.005,24.808 17.760 C 24.030 21.364,21.370 24.020,17.747 24.811 C 17.271 24.914,17.043 24.930,16.000 24.930 C 14.953 24.930,14.730 24.914,14.248 24.809 C 11.870 24.291,9.944 23.019,8.596 21.076 C 8.228 20.547,7.630 19.342,7.451 18.769 C 7.131 17.749,7.070 17.302,7.070 15.973 C 7.070 14.902,7.085 14.677,7.189 14.200 C 7.808 11.364,9.629 9.076,12.225 7.871 C 13.134 7.449,14.122 7.172,14.987 7.096 C 15.666 7.036,15.794 7.036,16.720 7.095 M15.600 9.097 C 15.387 9.208,15.209 9.378,15.102 9.573 C 15.022 9.717,15.013 10.062,15.013 13.017 L 15.013 16.302 15.169 16.511 C 15.478 16.928,18.324 19.729,18.523 19.812 C 18.765 19.914,19.148 19.916,19.381 19.819 C 19.668 19.699,19.947 19.244,19.947 18.897 C 19.947 18.609,19.683 18.285,18.368 16.959 L 17.018 15.597 17.003 12.665 C 16.988 10.056,16.977 9.716,16.898 9.573 C 16.640 9.105,16.021 8.878,15.600 9.097 " fill="#1A1C1F" stroke="none" fill-rule="evenodd"></path></svg>