<svg width="28" height="28" viewBox="0 0 28 28" fill="none" xmlns="http://www.w3.org/2000/svg"><path d="M6.685 3.620 C 5.500 3.880,4.420 4.769,3.876 5.934 C 3.588 6.550,3.532 6.827,3.533 7.630 C 3.534 8.292,3.542 8.354,3.683 8.773 C 3.919 9.477,4.190 9.924,4.717 10.477 L 4.940 10.710 4.784 11.249 C 4.698 11.546,4.593 11.955,4.551 12.159 C 4.374 13.014,4.353 14.702,4.508 15.587 C 4.671 16.513,5.035 17.571,5.483 18.419 C 5.723 18.873,6.261 19.716,6.536 20.068 L 6.665 20.233 6.106 20.978 C 5.798 21.388,5.290 22.079,4.978 22.514 L 4.410 23.305 4.410 23.615 C 4.410 23.884,4.428 23.947,4.545 24.100 C 4.688 24.288,5.075 24.499,5.273 24.499 C 5.512 24.497,5.770 24.329,6.032 24.003 C 6.224 23.763,7.169 22.493,7.909 21.479 C 7.913 21.473,8.127 21.613,8.383 21.791 C 9.442 22.524,10.560 23.031,11.807 23.342 C 12.391 23.488,12.671 23.531,13.264 23.568 C 15.614 23.713,17.538 23.184,19.527 21.846 L 20.084 21.472 20.296 21.761 C 21.335 23.178,22.132 24.223,22.238 24.306 C 22.563 24.562,22.978 24.536,23.325 24.240 C 23.534 24.061,23.640 23.767,23.601 23.475 C 23.574 23.277,23.390 23.004,22.061 21.197 C 21.676 20.673,21.376 20.222,21.389 20.187 C 21.402 20.152,21.507 20.000,21.621 19.850 C 21.915 19.463,22.354 18.755,22.584 18.299 C 23.393 16.690,23.698 15.115,23.571 13.207 C 23.520 12.443,23.445 12.032,23.218 11.286 L 23.061 10.769 23.390 10.389 C 24.233 9.414,24.575 8.374,24.458 7.140 C 24.340 5.895,23.570 4.717,22.469 4.097 C 21.770 3.703,21.206 3.549,20.463 3.548 C 19.309 3.547,18.439 3.880,17.608 4.642 L 17.272 4.949 16.802 4.809 C 15.016 4.279,12.984 4.279,11.198 4.809 L 10.728 4.949 10.369 4.617 C 9.776 4.069,9.182 3.768,8.402 3.620 C 7.936 3.531,7.089 3.531,6.685 3.620 M8.353 5.400 C 8.469 5.438,8.674 5.532,8.810 5.609 L 9.057 5.749 8.647 6.029 C 7.559 6.771,6.634 7.700,5.951 8.737 C 5.854 8.884,5.756 8.993,5.733 8.979 C 5.710 8.965,5.618 8.808,5.528 8.630 C 5.080 7.741,5.255 6.647,5.958 5.944 C 6.244 5.658,6.783 5.375,7.146 5.319 C 7.469 5.270,8.085 5.311,8.353 5.400 M20.913 5.341 C 21.684 5.504,22.360 6.097,22.605 6.826 C 22.714 7.152,22.747 7.638,22.684 8.002 C 22.633 8.293,22.366 8.918,22.267 8.979 C 22.243 8.994,22.113 8.843,21.977 8.644 C 21.360 7.745,20.477 6.846,19.562 6.186 C 19.249 5.960,18.993 5.758,18.993 5.736 C 18.993 5.715,19.146 5.624,19.332 5.534 C 19.865 5.278,20.343 5.220,20.913 5.341 M14.677 6.209 C 15.449 6.261,15.881 6.349,16.609 6.604 C 19.257 7.528,21.173 9.762,21.733 12.577 C 21.864 13.236,21.850 14.879,21.707 15.540 C 21.175 18.004,19.611 20.013,17.407 21.064 C 16.778 21.363,16.194 21.564,15.528 21.709 C 15.112 21.800,14.913 21.814,14.000 21.814 C 13.084 21.814,12.888 21.800,12.467 21.708 C 10.334 21.243,8.571 20.052,7.433 18.307 C 7.124 17.833,6.671 16.899,6.513 16.411 C 6.251 15.601,6.183 15.093,6.185 13.953 C 6.187 13.047,6.201 12.838,6.291 12.427 C 6.900 9.625,8.875 7.424,11.573 6.540 C 12.613 6.200,13.362 6.120,14.677 6.209 M13.650 7.960 C 13.464 8.057,13.308 8.206,13.214 8.377 C 13.144 8.503,13.137 8.804,13.137 11.390 L 13.137 14.264 13.273 14.447 C 13.543 14.812,16.034 17.263,16.207 17.336 C 16.419 17.424,16.754 17.427,16.959 17.342 C 17.209 17.237,17.453 16.839,17.453 16.535 C 17.453 16.283,17.223 15.999,16.072 14.839 L 14.891 13.648 14.877 11.082 C 14.865 8.799,14.855 8.501,14.786 8.377 C 14.560 7.967,14.019 7.768,13.650 7.960 " fill="#1A1C1F" stroke="none" fill-rule="evenodd"></path></svg>