<svg width="12" height="12" viewBox="0 0 12 12" fill="none" xmlns="http://www.w3.org/2000/svg"><path d="M2.740 1.229 C 2.366 1.309,1.980 1.547,1.767 1.827 C 1.655 1.975,1.491 2.309,1.456 2.460 C 1.443 2.521,1.431 2.687,1.432 2.830 C 1.432 3.059,1.439 3.110,1.488 3.260 C 1.599 3.599,1.784 3.878,2.033 4.084 C 2.205 4.226,2.200 4.188,2.082 4.515 C 1.898 5.025,1.832 5.405,1.831 5.970 C 1.830 6.392,1.850 6.583,1.932 6.940 C 2.050 7.448,2.278 7.976,2.589 8.456 C 2.641 8.537,2.678 8.615,2.672 8.632 C 2.666 8.648,2.532 8.870,2.374 9.126 C 1.831 10.002,1.808 10.049,1.825 10.240 C 1.855 10.565,2.089 10.785,2.407 10.788 C 2.591 10.789,2.707 10.735,2.828 10.593 C 2.876 10.536,3.066 10.261,3.250 9.980 C 3.434 9.700,3.587 9.467,3.590 9.464 C 3.592 9.461,3.684 9.510,3.792 9.573 C 4.218 9.819,4.709 10.006,5.213 10.114 C 5.458 10.167,5.496 10.169,6.010 10.169 C 6.492 10.169,6.572 10.164,6.750 10.125 C 7.350 9.993,7.861 9.795,8.266 9.535 C 8.352 9.480,8.425 9.438,8.428 9.443 C 8.431 9.447,8.601 9.702,8.804 10.011 C 9.206 10.620,9.277 10.700,9.458 10.753 C 9.819 10.858,10.200 10.563,10.200 10.180 C 10.200 10.009,10.149 9.911,9.582 9.002 C 9.449 8.789,9.340 8.607,9.340 8.599 C 9.340 8.591,9.408 8.477,9.492 8.347 C 9.877 7.746,10.126 7.034,10.182 6.367 C 10.206 6.076,10.191 5.608,10.148 5.320 C 10.109 5.062,9.994 4.633,9.899 4.390 L 9.820 4.190 9.875 4.150 C 10.169 3.935,10.402 3.602,10.521 3.230 C 10.558 3.112,10.565 3.044,10.565 2.800 C 10.565 2.556,10.558 2.488,10.520 2.370 C 10.346 1.822,9.914 1.404,9.369 1.258 C 9.145 1.198,8.775 1.198,8.550 1.258 C 8.152 1.364,7.839 1.578,7.602 1.905 C 7.556 1.969,7.503 2.020,7.484 2.020 C 7.465 2.020,7.393 2.002,7.323 1.980 C 6.938 1.859,6.216 1.796,5.665 1.836 C 5.287 1.863,5.023 1.912,4.766 2.002 C 4.496 2.097,4.524 2.103,4.401 1.929 C 4.163 1.597,3.781 1.336,3.410 1.253 C 3.202 1.207,2.895 1.196,2.740 1.229 M6.638 3.060 C 7.462 3.228,8.200 3.758,8.633 4.495 C 8.910 4.965,9.040 5.449,9.040 6.013 C 9.040 6.843,8.741 7.564,8.152 8.151 C 7.717 8.585,7.212 8.860,6.608 8.992 C 6.382 9.041,5.677 9.041,5.450 8.991 C 4.263 8.733,3.384 7.884,3.086 6.709 C 3.032 6.498,3.030 6.472,3.031 6.000 C 3.032 5.536,3.035 5.500,3.084 5.317 C 3.349 4.341,3.999 3.585,4.880 3.227 C 5.117 3.130,5.403 3.050,5.610 3.021 C 5.832 2.991,6.405 3.012,6.638 3.060 M5.400 4.800 L 5.400 5.400 4.800 5.400 L 4.200 5.400 4.200 6.000 L 4.200 6.600 4.800 6.600 L 5.400 6.600 5.400 7.200 L 5.400 7.800 6.000 7.800 L 6.600 7.800 6.600 7.200 L 6.600 6.600 7.200 6.600 L 7.800 6.600 7.800 6.000 L 7.800 5.400 7.200 5.400 L 6.600 5.400 6.600 4.800 L 6.600 4.200 6.000 4.200 L 5.400 4.200 5.400 4.800 " fill="#1A1C1F" stroke="none" fill-rule="evenodd"></path></svg>