<svg xmlns="http://www.w3.org/2000/svg" width="12" height="12" fill="none"><g clip-path="url(#a)"><path fill="#1A1C1F" fill-rule="evenodd" d="M8.962 1.2c.876 0 1.619.82 1.619 1.619a1.65 1.65 0 0 1-.762 1.371c.248.553.381 1.162.381 1.791 0 .99-.324 1.886-.876 2.61l.78 1.257c.058.095.096.21.096.323 0 .343-.229.61-.571.61-.21 0-.4-.095-.515-.286L8.43 9.43a4.24 4.24 0 0 1-2.42.761 4.37 4.37 0 0 1-2.419-.742l-.685 1.066c-.114.172-.286.286-.476.286-.343 0-.61-.229-.61-.571 0-.115.02-.248.095-.362l.781-1.257A4.44 4.44 0 0 1 1.82 5.98c0-.61.133-1.22.381-1.771-.476-.305-.78-.82-.78-1.372C1.42 1.943 2.142 1.2 3 1.2c.629 0 1.238.362 1.505.895.495-.21.952-.285 1.505-.285.533 0 1.01.057 1.504.228A1.65 1.65 0 0 1 8.962 1.2M6.028 2.99A3.034 3.034 0 0 0 3 6.018a3.034 3.034 0 0 0 3.028 3.028 3.034 3.034 0 0 0 3.027-3.028A3.034 3.034 0 0 0 6.028 2.99m.572.934V5.77L7.667 6.8l-.838.876-1.41-1.39V3.924z" clip-rule="evenodd"/></g><defs><clipPath id="a"><path fill="#fff" d="M0 0h12v12H0z"/></clipPath></defs></svg>