<svg xmlns="http://www.w3.org/2000/svg" width="32" height="32" fill="none"><path fill="#1A1C1F" fill-rule="evenodd" d="M8.107 4.058C6.574 4.239 5.158 5.247 4.48 6.64c-.358.735-.451 1.162-.449 2.053.002.685.019.828.146 1.243.252.823.583 1.39 1.145 1.967l.347.356-.193.657c-.244.83-.338 1.349-.417 2.291-.152 1.809.243 3.856 1.079 5.593.28.582.964 1.674 1.352 2.16l.128.16-1.254 1.707c-.69.938-1.278 1.766-1.307 1.84-.029.073-.043.259-.031.414a.98.98 0 0 0 .971.889c.506.004.559-.047 1.824-1.749a108 108 0 0 1 1.222-1.628c.058-.062.105-.044.299.114.429.348 1.311.893 1.92 1.185 3.696 1.775 7.974 1.358 11.314-1.105.199-.147.369-.258.379-.247l1.196 1.627c1.213 1.651 1.285 1.728 1.702 1.812.367.073.907-.234 1.062-.603.086-.206.093-.526.016-.746-.03-.088-.617-.913-1.302-1.835l-1.248-1.675.129-.16c.071-.088.342-.476.603-.863.892-1.321 1.443-2.689 1.75-4.337.073-.392.094-.791.094-1.76.001-1.409-.074-1.962-.42-3.106l-.184-.606.346-.368c.634-.673 1.027-1.452 1.225-2.432.115-.566.078-1.443-.084-2.021-.624-2.22-2.739-3.66-5.006-3.409a4.65 4.65 0 0 0-2.762 1.289l-.328.313-.528-.164c-2.006-.623-4.426-.624-6.43-.001l-.527.164-.361-.34a4.7 4.7 0 0 0-3.791-1.261m15.626 1.97c.424.066 1.016.347 1.347.638.333.294.656.791.786 1.212.143.461.144 1.113.003 1.57-.094.302-.385.845-.453.845-.014 0-.145-.176-.291-.393-.785-1.163-1.938-2.317-3.058-3.063-.422-.28-.419-.289.135-.562.563-.277.944-.338 1.531-.247m-14.147.147c.154.059.39.172.524.251l.244.143-.47.32C8.68 7.71 7.614 8.768 6.9 9.853c-.16.242-.302.44-.316.44-.069 0-.359-.543-.453-.845-.14-.454-.14-1.11.001-1.562.265-.853.976-1.526 1.882-1.78.39-.11 1.203-.075 1.572.069m8.201 1.024c4.496.966 7.532 4.983 7.17 9.485a8.6 8.6 0 0 1-.878 3.236 8.98 8.98 0 0 1-10.934 4.59c-2.198-.736-4.1-2.394-5.142-4.483-1.711-3.431-1.109-7.464 1.525-10.212 1.411-1.473 3.115-2.367 5.135-2.697.697-.113 2.429-.069 3.124.081m-2.302 3.975a.9.9 0 0 0-.36.41l-.138.277v3.179h-3.271l-.226.133c-.25.146-.503.569-.503.839 0 .373.35.854.691.948.104.029.889.053 1.749.053h1.56l.001 1.587c.001 1.781.014 1.856.388 2.184.504.442 1.396.164 1.578-.492.036-.132.059-.791.059-1.745v-1.534l1.587-.001c1.424-.001 1.609-.011 1.802-.099.349-.158.61-.555.611-.928.001-.157-.156-.482-.309-.643-.285-.3-.296-.302-2.061-.302h-1.63v-1.575c0-1.714-.014-1.812-.309-2.123-.212-.224-.399-.302-.715-.301a.9.9 0 0 0-.504.133"/></svg>