<svg width="20" height="20" viewBox="0 0 20 20" fill="none" xmlns="http://www.w3.org/2000/svg"><path d="M4.583 2.048 C 4.282 2.107,4.110 2.171,3.801 2.338 C 3.253 2.633,2.913 2.995,2.630 3.583 C 2.423 4.014,2.385 4.190,2.386 4.717 C 2.387 5.099,2.398 5.183,2.480 5.433 C 2.666 6.000,2.976 6.467,3.389 6.805 C 3.590 6.969,3.636 7.023,3.622 7.080 C 3.612 7.118,3.529 7.367,3.436 7.633 C 2.916 9.136,2.906 10.718,3.406 12.233 C 3.597 12.811,4.035 13.699,4.374 14.194 C 4.428 14.272,4.464 14.359,4.454 14.386 C 4.443 14.413,4.219 14.783,3.956 15.209 C 3.052 16.670,3.013 16.749,3.042 17.067 C 3.076 17.439,3.272 17.732,3.590 17.888 C 3.743 17.963,3.821 17.979,4.033 17.979 C 4.253 17.979,4.312 17.966,4.446 17.888 C 4.650 17.768,4.773 17.608,5.426 16.617 C 5.727 16.158,5.978 15.779,5.983 15.774 C 5.987 15.769,6.139 15.850,6.321 15.955 C 7.030 16.365,7.848 16.677,8.689 16.857 C 9.096 16.944,9.160 16.949,10.017 16.949 C 10.820 16.949,10.953 16.941,11.250 16.875 C 12.251 16.655,13.101 16.324,13.778 15.890 C 13.929 15.794,14.049 15.737,14.061 15.756 C 14.073 15.774,14.278 16.088,14.515 16.453 C 15.301 17.661,15.427 17.813,15.729 17.916 C 16.419 18.151,17.142 17.465,16.968 16.739 C 16.927 16.568,16.656 16.098,15.939 14.956 C 15.734 14.629,15.567 14.349,15.567 14.334 C 15.567 14.319,15.681 14.129,15.820 13.912 C 16.462 12.910,16.876 11.723,16.970 10.612 C 17.011 10.127,16.985 9.347,16.913 8.867 C 16.849 8.438,16.657 7.722,16.499 7.318 C 16.427 7.135,16.379 6.976,16.392 6.965 C 16.708 6.709,16.811 6.612,16.982 6.412 C 17.202 6.154,17.416 5.755,17.534 5.383 C 17.597 5.187,17.608 5.074,17.608 4.667 C 17.608 4.259,17.597 4.147,17.534 3.950 C 17.244 3.036,16.524 2.340,15.615 2.096 C 15.242 1.996,14.624 1.996,14.250 2.096 C 13.587 2.274,13.065 2.630,12.670 3.175 C 12.593 3.281,12.506 3.366,12.474 3.366 C 12.442 3.366,12.321 3.336,12.204 3.299 C 11.563 3.098,10.388 2.996,9.459 3.060 C 8.814 3.105,8.377 3.185,7.943 3.337 C 7.493 3.495,7.540 3.504,7.334 3.215 C 6.939 2.661,6.301 2.226,5.683 2.089 C 5.334 2.012,4.858 1.994,4.583 2.048 M10.983 5.084 C 12.918 5.424,14.537 7.005,14.970 8.976 C 15.057 9.372,15.091 10.262,15.036 10.683 C 14.888 11.806,14.412 12.758,13.585 13.585 C 12.977 14.192,12.380 14.562,11.578 14.829 C 11.022 15.013,10.788 15.046,10.017 15.044 C 9.272 15.043,9.059 15.011,8.467 14.811 C 7.623 14.527,6.819 13.997,6.276 13.367 C 5.660 12.652,5.230 11.753,5.083 10.872 C 4.995 10.351,5.026 9.306,5.142 8.867 C 5.504 7.492,6.327 6.385,7.511 5.681 C 8.004 5.388,8.785 5.114,9.350 5.036 C 9.670 4.992,10.618 5.019,10.983 5.084 M9.000 8.000 L 9.000 9.000 8.000 9.000 L 7.000 9.000 7.000 10.000 L 7.000 11.000 8.000 11.000 L 9.000 11.000 9.000 12.000 L 9.000 13.000 10.000 13.000 L 11.000 13.000 11.000 12.000 L 11.000 11.000 12.000 11.000 L 13.000 11.000 13.000 10.000 L 13.000 9.000 12.000 9.000 L 11.000 9.000 11.000 8.000 L 11.000 7.000 10.000 7.000 L 9.000 7.000 9.000 8.000 " fill="#1A1C1F" stroke="none" fill-rule="evenodd"></path></svg>