<svg xmlns="http://www.w3.org/2000/svg" width="32" height="32" fill="none"><g clip-path="url(#a)"><path fill="#1A1C1F" fill-rule="evenodd" d="M23.344 4.016A4.67 4.67 0 0 1 28 8.672c0 1.406-.625 2.687-1.656 3.594.406 1.156.656 2.406.656 3.718 0 2.72-1 5.188-2.625 7.125l2.438 3.282c.125.187.187.375.187.593 0 .563-.437 1-1 1-.312 0-.625-.125-.812-.406l-2.25-3.062c-1.907 1.53-4.313 2.468-6.938 2.468s-5.031-.937-6.937-2.468l-2.25 3.062c-.188.281-.5.406-.813.406a1.007 1.007 0 0 1-.812-1.593l2.437-3.282C6 21.172 5 18.703 5 15.984c0-1.312.25-2.562.656-3.75A4.66 4.66 0 0 1 4 8.672a4.67 4.67 0 0 1 4.656-4.656c1.406 0 2.719.593 3.594 1.656 1.156-.438 2.438-.656 3.75-.656 1.313 0 2.594.218 3.75.656.875-1.063 2.188-1.656 3.594-1.656m-7.344 3c-4.969 0-9 4.03-9 8.968 0 4.97 4.031 9 9 9s9-4.03 9-9c0-4.937-4.031-8.968-9-8.968m7.344-1c-.625 0-1.219.187-1.688.562 1.532.938 2.844 2.219 3.75 3.75A2.62 2.62 0 0 0 26 8.672a2.654 2.654 0 0 0-2.656-2.656m-14.688 0A2.654 2.654 0 0 0 6 8.672c0 .625.219 1.187.594 1.656a10.8 10.8 0 0 1 3.75-3.75c-.469-.375-1.063-.562-1.688-.562M16 8.984c.563 0 1 .47 1 1v5.594l2.656 2.656a.97.97 0 0 1 .282.688c0 .625-.47 1-1 1a1.1 1.1 0 0 1-.72-.281l-2.937-2.938a1 1 0 0 1-.281-.719v-6c0-.53.438-1 1-1" clip-rule="evenodd"/></g><defs><clipPath id="a"><path fill="#fff" d="M0 0h32v32H0z"/></clipPath></defs></svg>