<svg width="20" height="20" viewBox="0 0 20 20" fill="none" xmlns="http://www.w3.org/2000/svg"><path d="M4.667 2.035 C 4.234 2.093,3.826 2.269,3.426 2.569 C 2.794 3.043,2.369 3.915,2.367 4.737 C 2.366 5.483,2.814 6.368,3.433 6.845 C 3.553 6.936,3.647 7.028,3.644 7.047 C 3.640 7.067,3.583 7.223,3.517 7.394 C 3.189 8.243,3.053 8.990,3.052 9.950 C 3.050 10.847,3.141 11.430,3.406 12.233 C 3.597 12.811,4.035 13.699,4.374 14.194 C 4.428 14.272,4.464 14.359,4.454 14.386 C 4.443 14.413,4.219 14.783,3.956 15.209 C 3.097 16.596,3.059 16.669,3.042 16.944 C 3.023 17.248,3.111 17.501,3.305 17.701 C 3.505 17.907,3.694 17.981,4.019 17.980 C 4.506 17.979,4.606 17.882,5.439 16.593 C 5.720 16.158,5.971 15.802,5.996 15.801 C 6.021 15.800,6.216 15.897,6.429 16.016 C 7.130 16.406,7.869 16.680,8.700 16.859 C 9.094 16.944,9.165 16.949,10.017 16.949 C 10.820 16.949,10.953 16.941,11.250 16.875 C 12.250 16.656,13.101 16.324,13.776 15.891 C 13.919 15.800,14.041 15.731,14.048 15.738 C 14.054 15.744,14.190 15.952,14.350 16.200 C 15.001 17.206,15.274 17.598,15.414 17.727 C 15.696 17.987,16.150 18.037,16.500 17.847 C 16.715 17.730,16.842 17.571,16.931 17.308 C 17.007 17.082,17.017 16.913,16.967 16.731 C 16.924 16.579,16.595 16.007,16.022 15.088 C 15.771 14.688,15.567 14.348,15.567 14.333 C 15.567 14.319,15.681 14.129,15.820 13.912 C 16.462 12.910,16.876 11.723,16.970 10.612 C 17.011 10.127,16.985 9.347,16.913 8.867 C 16.851 8.448,16.666 7.752,16.505 7.329 L 16.375 6.988 16.529 6.867 C 16.831 6.627,17.153 6.246,17.311 5.940 C 17.546 5.486,17.616 5.199,17.615 4.700 C 17.614 4.319,17.604 4.257,17.505 3.967 C 17.445 3.792,17.338 3.553,17.267 3.433 C 16.877 2.780,16.211 2.259,15.532 2.078 C 15.222 1.995,14.603 2.004,14.250 2.096 C 13.647 2.254,13.089 2.624,12.723 3.109 C 12.615 3.252,12.504 3.366,12.473 3.366 C 12.442 3.366,12.321 3.336,12.204 3.299 C 11.631 3.119,10.553 3.011,9.700 3.046 C 8.885 3.081,8.315 3.185,7.732 3.409 L 7.513 3.492 7.382 3.288 C 7.220 3.036,6.845 2.659,6.584 2.485 C 6.057 2.135,5.277 1.952,4.667 2.035 M10.983 5.084 C 12.918 5.424,14.537 7.005,14.970 8.976 C 15.057 9.372,15.091 10.262,15.036 10.683 C 14.888 11.806,14.412 12.758,13.585 13.585 C 12.977 14.192,12.380 14.562,11.578 14.829 C 11.022 15.013,10.788 15.046,10.017 15.044 C 9.272 15.043,9.059 15.011,8.467 14.811 C 7.623 14.527,6.819 13.997,6.276 13.367 C 5.660 12.652,5.230 11.753,5.083 10.872 C 4.995 10.351,5.026 9.306,5.142 8.867 C 5.504 7.492,6.327 6.385,7.511 5.681 C 8.004 5.388,8.785 5.114,9.350 5.036 C 9.670 4.992,10.618 5.019,10.983 5.084 M9.033 8.510 L 9.033 10.487 10.210 11.640 L 11.387 12.793 12.052 12.093 C 12.418 11.707,12.721 11.373,12.727 11.350 C 12.732 11.327,12.346 10.928,11.868 10.463 L 11.000 9.617 11.000 8.075 L 11.000 6.533 10.017 6.533 L 9.033 6.533 9.033 8.510 " fill="#1A1C1F" stroke="none" fill-rule="evenodd"></path></svg>