<svg width="16" height="16" viewBox="0 0 16 16" fill="none" xmlns="http://www.w3.org/2000/svg"><path d="M3.667 1.638 C 3.426 1.686,3.287 1.737,3.041 1.870 C 2.602 2.106,2.330 2.396,2.104 2.867 C 1.938 3.211,1.908 3.352,1.909 3.773 C 1.910 4.079,1.919 4.147,1.984 4.347 C 2.133 4.799,2.378 5.170,2.711 5.445 C 2.940 5.635,2.934 5.583,2.774 6.027 C 2.651 6.366,2.531 6.845,2.476 7.213 C 2.430 7.525,2.430 8.421,2.476 8.733 C 2.607 9.618,2.928 10.461,3.433 11.250 C 3.512 11.373,3.570 11.490,3.562 11.511 C 3.554 11.531,3.375 11.827,3.165 12.167 C 2.442 13.336,2.411 13.399,2.434 13.654 C 2.461 13.951,2.618 14.186,2.872 14.311 C 2.995 14.370,3.057 14.383,3.226 14.383 C 3.401 14.383,3.450 14.372,3.553 14.312 C 3.722 14.213,3.825 14.081,4.333 13.307 C 4.578 12.933,4.782 12.623,4.786 12.619 C 4.790 12.615,4.911 12.680,5.056 12.764 C 5.624 13.092,6.280 13.342,6.951 13.485 C 7.275 13.555,7.332 13.559,8.000 13.559 C 8.575 13.560,8.751 13.551,8.947 13.512 C 9.686 13.364,10.439 13.078,10.994 12.732 C 11.099 12.667,11.204 12.614,11.226 12.615 C 11.249 12.615,11.455 12.908,11.707 13.298 C 12.222 14.098,12.368 14.267,12.600 14.334 C 12.887 14.418,13.142 14.352,13.355 14.139 C 13.556 13.939,13.638 13.657,13.574 13.391 C 13.542 13.255,13.325 12.879,12.751 11.965 C 12.588 11.703,12.453 11.479,12.453 11.467 C 12.453 11.455,12.545 11.303,12.656 11.129 C 13.170 10.328,13.501 9.379,13.576 8.490 C 13.608 8.101,13.588 7.478,13.531 7.094 C 13.479 6.750,13.326 6.178,13.199 5.854 L 13.094 5.587 13.180 5.523 C 13.363 5.388,13.697 5.013,13.806 4.823 C 13.867 4.715,13.956 4.513,14.003 4.373 C 14.084 4.133,14.088 4.099,14.088 3.733 C 14.087 3.409,14.077 3.316,14.027 3.160 C 13.794 2.426,13.221 1.873,12.490 1.676 C 12.194 1.597,11.699 1.597,11.400 1.677 C 10.870 1.819,10.452 2.104,10.136 2.540 C 10.075 2.625,10.005 2.693,9.979 2.693 C 9.954 2.693,9.857 2.669,9.764 2.639 C 9.251 2.479,8.287 2.395,7.553 2.448 C 7.049 2.484,6.697 2.549,6.355 2.670 C 5.995 2.796,6.032 2.803,5.867 2.572 C 5.551 2.129,5.042 1.782,4.545 1.671 C 4.269 1.609,3.888 1.595,3.667 1.638 M8.787 4.067 C 9.976 4.276,11.088 5.119,11.636 6.227 C 11.920 6.801,12.023 7.213,12.045 7.867 C 12.071 8.629,11.959 9.172,11.646 9.800 C 11.441 10.212,11.221 10.513,10.867 10.868 C 10.383 11.353,9.905 11.650,9.263 11.863 C 8.817 12.011,8.630 12.036,8.013 12.035 C 7.420 12.034,7.256 12.010,6.776 11.849 C 5.548 11.439,4.608 10.488,4.202 9.247 C 4.053 8.793,4.018 8.507,4.034 7.884 C 4.046 7.427,4.058 7.308,4.115 7.090 C 4.448 5.809,5.330 4.780,6.507 4.302 C 6.823 4.174,7.204 4.067,7.480 4.029 C 7.736 3.993,8.495 4.016,8.787 4.067 M7.200 6.400 L 7.200 7.200 6.400 7.200 L 5.600 7.200 5.600 8.000 L 5.600 8.800 6.400 8.800 L 7.200 8.800 7.200 9.600 L 7.200 10.400 8.000 10.400 L 8.800 10.400 8.800 9.600 L 8.800 8.800 9.600 8.800 L 10.400 8.800 10.400 8.000 L 10.400 7.200 9.600 7.200 L 8.800 7.200 8.800 6.400 L 8.800 5.600 8.000 5.600 L 7.200 5.600 7.200 6.400 " fill="#1A1C1F" stroke="none" fill-rule="evenodd"></path></svg>