<svg xmlns="http://www.w3.org/2000/svg" width="32" height="32" fill="none"><path fill="#1A1C1F" fill-rule="evenodd" d="M8.121 4.054c-1.852.2-3.439 1.575-3.97 3.439-.102.358-.122.551-.12 1.2.002.685.019.828.146 1.243.249.811.572 1.37 1.135 1.957l.332.347-.183.635C5.11 14.094 5.042 14.6 5.043 16c0 .969.021 1.368.094 1.76.306 1.646.853 3.004 1.746 4.333.262.389.534.779.605.867l.13.16-1.246 1.674c-.686.921-1.272 1.747-1.303 1.835a1.17 1.17 0 0 0 .016.747c.155.369.695.676 1.062.603.417-.084.489-.161 1.702-1.812l1.196-1.627c.01-.011.18.1.379.247a11.4 11.4 0 0 0 4.896 2.075c.745.128 2.615.128 3.36 0a11.4 11.4 0 0 0 4.896-2.075c.199-.147.369-.258.379-.247l1.196 1.627c1.25 1.701 1.303 1.756 1.775 1.819.276.037.721-.182.895-.44.151-.223.204-.627.118-.889-.033-.1-.622-.937-1.309-1.859l-1.249-1.678.129-.16c.071-.088.342-.476.603-.863.892-1.321 1.443-2.689 1.75-4.337.073-.392.094-.791.094-1.76.001-1.41-.074-1.962-.421-3.107l-.184-.608.295-.312a5 5 0 0 0 1.176-2.037c.127-.415.144-.558.146-1.243.002-.649-.018-.842-.12-1.2-.379-1.331-1.232-2.369-2.436-2.964-.746-.369-1.227-.483-2.053-.486-1.322-.006-2.339.393-3.261 1.277l-.354.34-.529-.164c-2.006-.624-4.426-.624-6.432 0l-.529.164-.354-.34a6 6 0 0 0-.612-.515c-.848-.578-2.076-.869-3.168-.751m1.465 2.121c.154.059.39.172.525.251l.245.144-.445.294C8.68 7.68 7.553 8.813 6.805 9.987c-.107.168-.207.306-.221.306-.068 0-.359-.543-.453-.845a2.95 2.95 0 0 1 .002-1.566c.263-.854.96-1.53 1.814-1.762.461-.125 1.244-.099 1.639.055m14.404-.067c.866.197 1.607.897 1.877 1.774.142.457.142 1.111.002 1.566-.094.302-.384.845-.453.845-.014 0-.162-.205-.329-.456-.733-1.102-1.765-2.126-2.968-2.946-.458-.312-.464-.32-.346-.397a2.81 2.81 0 0 1 2.217-.386m-6.203 1.091a9.8 9.8 0 0 1 2.224.768c3.717 1.869 5.66 5.955 4.755 10.004a8.98 8.98 0 0 1-5.899 6.535c-4.3 1.439-8.984-.524-10.947-4.586-.362-.749-.516-1.189-.686-1.949C6.095 12.876 9.452 7.965 14.648 7.12c.712-.115 2.437-.072 3.139.079m-2.276 1.935c-.233.142-.378.32-.462.567s-.088 6.284-.004 6.592c.048.178.319.476 1.64 1.804.87.875 1.654 1.629 1.742 1.675.388.206.899.163 1.182-.098.181-.167.335-.507.335-.741 0-.369-.168-.582-1.565-1.973l-1.366-1.359v-2.859c0-2.03-.018-2.912-.062-3.041A.97.97 0 0 0 16 9.014c-.21 0-.349.034-.489.12"/></svg>