<svg xmlns="http://www.w3.org/2000/svg" width="32" height="32" fill="none"><g clip-path="url(#a)"><path fill="#1A1C1F" fill-rule="evenodd" d="M23.344 4.016A4.67 4.67 0 0 1 28 8.672a4.72 4.72 0 0 1-1.656 3.594c.406 1.156.656 2.406.656 3.718 0 2.72-1 5.188-2.625 7.125l2.438 3.282A1.007 1.007 0 0 1 26 27.985c-.314 0-.626-.126-.814-.407l-2.25-3.062c-1.906 1.53-4.312 2.468-6.937 2.468s-5.031-.937-6.906-2.468l-2.281 3.062c-.188.281-.5.406-.813.406-.531 0-1-.468-1-1 0-.218.063-.406.219-.593l2.406-3.282a11 11 0 0 1-2.594-7.125c0-1.312.219-2.562.657-3.718A4.65 4.65 0 0 1 4 8.672c0-2.563 2.094-4.656 4.688-4.656 1.374 0 2.687.625 3.562 1.656 1.156-.438 2.438-.656 3.75-.656 1.313 0 2.594.218 3.75.656a4.72 4.72 0 0 1 3.594-1.656m-7.344 3c-4.937 0-8.969 4.03-8.969 8.968 0 4.97 4.032 9 8.969 9 4.969 0 9-4.03 9-9 0-4.937-4.031-8.968-9-8.968m-7.312-1C7.218 6.016 6 7.203 6 8.672c0 .625.219 1.187.594 1.656.906-1.531 2.218-2.812 3.75-3.75a2.66 2.66 0 0 0-1.656-.562m14.625-.032c-.563 0-1.063.188-1.625.594 1.5.938 2.78 2.219 3.718 3.75A2.62 2.62 0 0 0 26 8.672a2.71 2.71 0 0 0-2.687-2.688M11 16.016c0-.532.438-1 1-1h3v-3c0-.532.438-1 1-1 .531 0 1 .468 1 1v3h3c.531 0 1 .468 1 1 0 .562-.469 1-1 1h-3v3c0 .562-.469 1-1 1-.562 0-1-.438-1-1v-3h-3c-.562 0-1-.438-1-1" clip-rule="evenodd"/></g><defs><clipPath id="a"><path fill="#fff" d="M0 0h32v32H0z"/></clipPath></defs></svg>