<svg xmlns="http://www.w3.org/2000/svg" width="28" height="28" fill="none"><g clip-path="url(#a)"><path fill="#1A1C1F" fill-rule="evenodd" d="M20.426 3.514A4.085 4.085 0 0 1 24.5 7.588c0 1.23-.547 2.352-1.45 3.144a9.8 9.8 0 0 1 .575 3.254c0 2.38-.875 4.54-2.297 6.235l2.133 2.87a.9.9 0 0 1 .164.52.864.864 0 0 1-.875.875c-.273 0-.547-.109-.71-.355l-1.97-2.68c-1.668 1.34-3.773 2.16-6.07 2.16s-4.402-.82-6.07-2.16l-1.97 2.68c-.163.246-.437.355-.71.355a.881.881 0 0 1-.71-1.394l2.132-2.871c-1.422-1.696-2.297-3.856-2.297-6.235 0-1.148.219-2.242.574-3.28A4.07 4.07 0 0 1 3.5 7.587a4.084 4.084 0 0 1 4.074-4.074c1.23 0 2.38.52 3.145 1.449 1.011-.383 2.133-.574 3.281-.574s2.27.191 3.281.574c.766-.93 1.914-1.45 3.145-1.45M14 6.139c-4.348 0-7.875 3.527-7.875 7.847A7.877 7.877 0 0 0 14 21.861a7.877 7.877 0 0 0 7.875-7.875c0-4.32-3.527-7.847-7.875-7.847m6.426-.875c-.547 0-1.067.164-1.477.492 1.34.82 2.488 1.941 3.281 3.281.328-.41.52-.902.52-1.45a2.32 2.32 0 0 0-2.324-2.323m-12.852 0A2.32 2.32 0 0 0 5.25 7.588c0 .547.191 1.039.52 1.45a9.4 9.4 0 0 1 3.28-3.282c-.41-.328-.929-.492-1.476-.492M14 7.86c.492 0 .875.41.875.875v4.895l2.324 2.324a.85.85 0 0 1 .246.602c0 .547-.41.875-.875.875a.96.96 0 0 1-.629-.246l-2.57-2.57a.87.87 0 0 1-.246-.63v-5.25c0-.465.383-.875.875-.875" clip-rule="evenodd"/></g><defs><clipPath id="a"><path fill="#fff" d="M0 0h28v28H0z"/></clipPath></defs></svg>