<svg xmlns="http://www.w3.org/2000/svg" width="32" height="32" fill="none"><g clip-path="url(#a)"><path fill="#1A1C1F" fill-rule="evenodd" d="M20 5a.98.98 0 0 1 1 .969V7h3a3 3 0 0 1 3 3v14a3 3 0 0 1-3 3H8a3 3 0 0 1-3-3V10a3 3 0 0 1 3-3h3V5.969A.98.98 0 0 1 12 5a.98.98 0 0 1 1 .969V7h6V5.969A.98.98 0 0 1 20 5m5 10H7v9c0 .563.438 1 1 1h16c.563 0 1-.437 1-1zM11 9H8c-.562 0-1 .438-1 1v3h18v-3c0-.562-.437-1-1-1h-3v1.031A.98.98 0 0 1 20 11a.98.98 0 0 1-1-.969V9h-6v1.031A.98.98 0 0 1 12 11a.98.98 0 0 1-1-.969zM9 22c0-.562.438-1 1-1s1 .438 1 1-.437 1-1 1-1-.437-1-1m0-4c0-.562.438-1 1-1s1 .438 1 1-.437 1-1 1-1-.437-1-1m4 4c0-.562.438-1 1-1s1 .438 1 1-.437 1-1 1-1-.437-1-1m0-4c0-.562.438-1 1-1s1 .438 1 1-.437 1-1 1-1-.437-1-1m4 4c0-.562.438-1 1-1s1 .438 1 1-.437 1-1 1-1-.437-1-1m0-4c0-.562.438-1 1-1s1 .438 1 1-.437 1-1 1-1-.437-1-1m4 4c0-.562.438-1 1-1s1 .438 1 1-.437 1-1 1-1-.437-1-1m0-4c0-.562.438-1 1-1s1 .438 1 1-.437 1-1 1-1-.437-1-1" clip-rule="evenodd"/></g><defs><clipPath id="a"><path fill="#fff" d="M0 0h32v32H0z"/></clipPath></defs></svg>