<svg xmlns="http://www.w3.org/2000/svg" width="16" height="16" fill="none"><g clip-path="url(#a)"><path fill="#1A1C1F" fill-rule="evenodd" d="M2.4 12.802V4.793c0-.438.36-.797.798-.797h1.595v-.798c0-.438.36-.798.798-.798.454 0 .813.36.813.798v.798h3.192v-.798c0-.438.36-.798.813-.798.438 0 .798.36.798.798v.798h1.595c.438 0 .798.36.798.797v8.01c0 .437-.36.797-.798.797H3.198a.8.8 0 0 1-.798-.798m1.596-.798h8.009V8.798h-8.01zm0-4.802h8.009V5.591l-8.01.016z" clip-rule="evenodd"/></g><defs><clipPath id="a"><path fill="#fff" d="M0 0h16v16H0z"/></clipPath></defs></svg>