<svg xmlns="http://www.w3.org/2000/svg" width="32" height="32" fill="none"><path fill="#1A1C1F" fill-rule="evenodd" d="M11.529 5.128c-.135.067-.29.203-.373.329-.132.198-.144.266-.161.872l-.019.658-1.501.001c-.826.001-1.676.025-1.888.052-1.172.152-2.19 1.06-2.489 2.221-.075.291-.085 1.147-.085 7.735 0 8.163-.019 7.679.334 8.391.23.462.804 1.036 1.266 1.266.715.355.125.334 9.387.334s8.672.021 9.387-.334c.462-.23 1.036-.804 1.266-1.266.353-.712.334-.228.334-8.391 0-6.588-.01-7.444-.085-7.735-.299-1.161-1.317-2.069-2.489-2.221-.212-.027-1.062-.051-1.888-.052l-1.501-.001-.019-.658c-.017-.607-.029-.673-.161-.873-.385-.58-1.303-.58-1.688 0-.132.2-.144.266-.161.873l-.019.658h-5.952l-.019-.658c-.017-.607-.029-.673-.161-.873-.274-.414-.851-.558-1.315-.328m-.534 4.543c.017.607.029.673.161.873.385.58 1.303.58 1.688 0 .132-.2.144-.266.161-.873l.019-.658h5.952l.019.658c.017.607.029.673.161.873.385.58 1.303.58 1.688 0 .132-.2.144-.266.162-.876l.018-.659 1.666.016 1.665.015.193.132c.106.073.248.229.316.347.12.209.123.255.139 1.854l.017 1.64H6.98l.017-1.64c.018-1.769.024-1.811.324-2.098.256-.246.348-.257 2.047-.26l1.608-.002zm14.006 9.969c-.013 4.277-.022 4.667-.106 4.82a1.1 1.1 0 0 1-.617.498c-.275.076-16.281.076-16.556 0a1.1 1.1 0 0 1-.617-.498c-.084-.153-.093-.543-.106-4.82l-.015-4.653h18.032zM9.536 17.122c-.323.171-.489.436-.51.818-.022.386.078.61.382.856.161.131.255.163.527.178.392.023.614-.076.864-.385.146-.18.161-.235.161-.585 0-.34-.018-.409-.15-.582-.298-.391-.854-.522-1.274-.3m4 0c-.323.171-.489.436-.51.818-.022.386.078.61.382.856.161.131.255.163.527.178.392.023.614-.076.864-.385.146-.18.161-.235.161-.585 0-.34-.018-.409-.15-.582-.298-.391-.854-.522-1.274-.3m4 0c-.323.171-.489.436-.51.818-.022.386.078.61.382.856.161.131.255.163.527.178.392.023.614-.076.864-.385.146-.18.161-.235.161-.585 0-.34-.018-.409-.15-.582-.298-.391-.854-.522-1.274-.3m4 0c-.323.171-.489.436-.51.818-.022.386.078.61.382.856.161.131.255.163.527.178.392.023.614-.076.864-.385.146-.18.161-.235.161-.585 0-.34-.018-.409-.15-.582-.298-.391-.854-.522-1.274-.3m-12 4c-.323.171-.489.436-.51.818-.022.386.078.61.382.856.161.131.255.163.527.178.392.023.614-.076.864-.385.146-.18.161-.235.161-.585 0-.34-.018-.409-.15-.582-.298-.391-.854-.522-1.274-.3m4 0c-.323.171-.489.436-.51.818-.022.386.078.61.382.856.161.131.255.163.527.178.392.023.614-.076.864-.385.146-.18.161-.235.161-.585 0-.34-.018-.409-.15-.582-.298-.391-.854-.522-1.274-.3m4 0c-.323.171-.489.436-.51.818-.022.386.078.61.382.856.161.131.255.163.527.178.392.023.614-.076.864-.385.146-.18.161-.235.161-.585 0-.34-.018-.409-.15-.582-.298-.391-.854-.522-1.274-.3m4 0c-.323.171-.489.436-.51.818-.022.386.078.61.382.856.161.131.255.163.527.178.392.023.614-.076.864-.385.146-.18.161-.235.161-.585 0-.34-.018-.409-.15-.582-.298-.391-.854-.522-1.274-.3"/></svg>