<svg width="32" height="32" viewBox="0 0 32 32" fill="none" xmlns="http://www.w3.org/2000/svg"><path d="M11.600 5.114 C 11.314 5.247,11.095 5.490,11.037 5.741 C 11.011 5.854,10.989 6.177,10.988 6.459 L 10.987 6.972 9.267 7.001 C 7.377 7.034,7.183 7.060,6.595 7.374 C 5.950 7.718,5.404 8.358,5.165 9.052 L 5.040 9.413 5.040 16.960 C 5.040 24.042,5.046 24.528,5.135 24.853 C 5.260 25.308,5.494 25.686,5.904 26.096 C 6.314 26.506,6.692 26.740,7.147 26.865 C 7.473 26.954,7.996 26.960,16.000 26.960 C 24.004 26.960,24.527 26.954,24.852 26.865 C 25.317 26.736,25.609 26.557,26.053 26.128 C 26.497 25.700,26.735 25.326,26.865 24.853 C 26.954 24.528,26.960 24.042,26.960 16.960 L 26.960 9.413 26.835 9.052 C 26.596 8.358,26.050 7.718,25.405 7.374 C 24.817 7.060,24.623 7.034,22.733 7.001 L 21.013 6.972 21.012 6.459 C 21.010 5.817,20.956 5.577,20.764 5.376 C 20.344 4.934,19.738 4.912,19.298 5.324 C 19.043 5.562,18.990 5.758,18.988 6.467 L 18.987 6.987 16.000 6.987 L 13.013 6.987 13.012 6.467 C 13.010 5.759,12.957 5.562,12.703 5.324 C 12.372 5.016,11.976 4.940,11.600 5.114 M10.988 9.533 C 10.989 9.819,11.011 10.146,11.037 10.259 C 11.124 10.635,11.588 10.984,12.000 10.984 C 12.412 10.984,12.876 10.635,12.963 10.259 C 12.989 10.146,13.011 9.819,13.012 9.533 L 13.013 9.013 16.000 9.013 L 18.987 9.013 18.988 9.533 C 18.989 9.819,19.011 10.146,19.037 10.259 C 19.124 10.635,19.588 10.984,20.000 10.984 C 20.412 10.984,20.876 10.635,20.963 10.259 C 20.989 10.146,21.011 9.816,21.012 9.526 L 21.013 8.998 22.698 9.025 C 24.588 9.057,24.508 9.039,24.818 9.477 L 24.969 9.690 24.999 11.352 L 25.030 13.013 16.000 13.013 L 6.970 13.013 7.000 11.398 C 7.032 9.638,7.047 9.545,7.347 9.263 C 7.571 9.053,7.799 9.027,9.507 9.020 L 10.987 9.013 10.988 9.533 M24.998 19.630 C 24.962 24.866,24.993 24.512,24.542 24.826 L 24.311 24.987 16.000 24.987 L 7.689 24.987 7.458 24.826 C 7.006 24.511,7.037 24.865,7.001 19.628 L 6.970 14.987 16.000 14.987 L 25.031 14.987 24.998 19.630 M9.573 17.111 C 9.311 17.235,9.185 17.372,9.091 17.636 C 8.990 17.918,8.998 18.175,9.115 18.433 C 9.413 19.089,10.356 19.173,10.806 18.584 C 10.944 18.403,10.960 18.341,10.958 17.997 C 10.956 17.665,10.936 17.587,10.814 17.427 C 10.540 17.067,9.971 16.922,9.573 17.111 M13.573 17.111 C 13.311 17.235,13.185 17.372,13.091 17.636 C 12.990 17.918,12.998 18.175,13.115 18.433 C 13.413 19.089,14.356 19.173,14.806 18.584 C 14.944 18.403,14.960 18.341,14.958 17.997 C 14.956 17.665,14.936 17.587,14.814 17.427 C 14.540 17.067,13.971 16.922,13.573 17.111 M17.573 17.111 C 17.311 17.235,17.185 17.372,17.091 17.636 C 16.990 17.918,16.998 18.175,17.115 18.433 C 17.413 19.088,18.356 19.173,18.804 18.586 C 18.940 18.408,18.957 18.342,18.957 18.000 C 18.957 17.665,18.939 17.590,18.815 17.428 C 18.540 17.067,17.972 16.922,17.573 17.111 M21.573 17.111 C 21.311 17.235,21.185 17.372,21.091 17.636 C 20.990 17.918,20.998 18.175,21.115 18.433 C 21.413 19.088,22.356 19.173,22.804 18.586 C 22.940 18.408,22.957 18.342,22.957 18.000 C 22.957 17.665,22.939 17.590,22.815 17.428 C 22.540 17.067,21.972 16.922,21.573 17.111 M9.573 21.111 C 9.311 21.235,9.185 21.372,9.091 21.636 C 8.990 21.918,8.998 22.175,9.115 22.433 C 9.413 23.089,10.356 23.173,10.806 22.584 C 10.944 22.403,10.960 22.341,10.958 21.997 C 10.956 21.665,10.936 21.587,10.814 21.427 C 10.540 21.067,9.971 20.922,9.573 21.111 M13.573 21.111 C 13.311 21.235,13.185 21.372,13.091 21.636 C 12.990 21.918,12.998 22.175,13.115 22.433 C 13.413 23.089,14.356 23.173,14.806 22.584 C 14.944 22.403,14.960 22.341,14.958 21.997 C 14.956 21.665,14.936 21.587,14.814 21.427 C 14.540 21.067,13.971 20.922,13.573 21.111 M17.573 21.111 C 17.311 21.235,17.185 21.372,17.091 21.636 C 16.990 21.918,16.998 22.175,17.115 22.433 C 17.413 23.088,18.356 23.173,18.804 22.586 C 18.940 22.408,18.957 22.342,18.957 22.000 C 18.957 21.665,18.939 21.590,18.815 21.428 C 18.540 21.067,17.972 20.922,17.573 21.111 M21.573 21.111 C 21.311 21.235,21.185 21.372,21.091 21.636 C 20.990 21.918,20.998 22.175,21.115 22.433 C 21.413 23.088,22.356 23.173,22.804 22.586 C 22.940 22.408,22.957 22.342,22.957 22.000 C 22.957 21.665,22.939 21.590,22.815 21.428 C 22.540 21.067,21.972 20.922,21.573 21.111 " fill="#1A1C1F" stroke="none" fill-rule="evenodd"></path></svg>