<svg xmlns="http://www.w3.org/2000/svg" width="20" height="20" fill="none"><g clip-path="url(#a)"><path fill="#1A1C1F" fill-rule="evenodd" d="M3 16.003V5.992c0-.548.45-.998.997-.998h1.995v-.997c0-.547.45-.997.997-.997.567 0 1.017.45 1.017.997v.997h3.988v-.997c0-.547.45-.997 1.017-.997.548 0 .997.45.997.997v.997h1.995c.547 0 .997.45.997.998v10.01c0 .548-.45.998-.997.998H3.997C3.45 17 3 16.55 3 16.003m1.994-.997h10.012v-4.009H4.994zm0-6.003h10.012V6.989l-10.012.02z" clip-rule="evenodd"/></g><defs><clipPath id="a"><path fill="#fff" d="M0 0h20v20H0z"/></clipPath></defs></svg>