<svg width="16" height="16" viewBox="0 0 16 16" fill="none" xmlns="http://www.w3.org/2000/svg"><path d="M5.392 2.425 C 5.262 2.458,5.024 2.626,4.935 2.748 C 4.826 2.899,4.800 3.056,4.800 3.557 L 4.800 3.992 3.884 4.007 C 3.016 4.021,2.963 4.024,2.856 4.078 C 2.706 4.155,2.550 4.316,2.467 4.479 L 2.400 4.613 2.406 8.806 L 2.413 13.000 2.475 13.125 C 2.554 13.285,2.715 13.446,2.875 13.525 L 3.000 13.587 8.000 13.587 L 13.000 13.587 13.125 13.525 C 13.285 13.446,13.446 13.285,13.525 13.125 L 13.587 13.000 13.594 8.806 L 13.600 4.612 13.543 4.499 C 13.452 4.320,13.350 4.207,13.190 4.111 L 13.042 4.021 12.121 4.007 L 11.200 3.992 11.200 3.557 C 11.200 3.318,11.187 3.063,11.171 2.989 C 11.133 2.810,11.017 2.659,10.821 2.532 C 10.663 2.429,10.652 2.427,10.422 2.427 C 10.223 2.427,10.164 2.437,10.056 2.492 C 9.872 2.585,9.782 2.669,9.693 2.831 C 9.615 2.972,9.614 2.977,9.604 3.487 L 9.594 4.000 8.000 4.000 L 6.406 4.000 6.393 3.500 C 6.379 2.953,6.363 2.876,6.222 2.701 C 6.055 2.494,5.651 2.359,5.392 2.425 M12.000 6.400 L 12.000 7.200 8.000 7.200 L 4.000 7.200 4.000 6.400 L 4.000 5.600 8.000 5.600 L 12.000 5.600 12.000 6.400 M12.000 10.400 L 12.000 12.000 8.000 12.000 L 4.000 12.000 4.000 10.400 L 4.000 8.800 8.000 8.800 L 12.000 8.800 12.000 10.400 " fill="#1A1C1F" stroke="none" fill-rule="evenodd"></path></svg>