<svg width="12" height="12" viewBox="0 0 12 12" fill="none" xmlns="http://www.w3.org/2000/svg"><path d="M4.028 1.827 C 3.913 1.865,3.768 1.969,3.700 2.063 C 3.620 2.174,3.600 2.294,3.600 2.668 L 3.600 2.994 2.909 3.005 L 2.218 3.016 2.107 3.083 C 1.988 3.155,1.911 3.240,1.842 3.375 L 1.800 3.459 1.805 6.605 L 1.810 9.750 1.857 9.845 C 1.917 9.966,2.036 10.085,2.156 10.144 L 2.250 10.190 6.000 10.190 L 9.750 10.190 9.844 10.144 C 9.964 10.085,10.083 9.966,10.143 9.845 L 10.190 9.750 10.195 6.599 L 10.200 3.448 10.123 3.319 C 10.066 3.223,10.016 3.169,9.926 3.108 L 9.806 3.026 9.530 3.013 C 9.378 3.006,9.062 3.000,8.827 3.000 L 8.400 3.000 8.400 2.671 C 8.400 2.490,8.390 2.297,8.379 2.242 C 8.350 2.107,8.263 1.994,8.116 1.899 C 7.997 1.822,7.989 1.820,7.816 1.820 C 7.668 1.820,7.623 1.828,7.542 1.869 C 7.404 1.939,7.336 2.002,7.269 2.123 C 7.211 2.229,7.211 2.233,7.203 2.615 L 7.196 3.000 6.000 3.000 L 4.805 3.000 4.795 2.625 C 4.784 2.214,4.772 2.157,4.667 2.026 C 4.534 1.861,4.222 1.764,4.028 1.827 M9.000 4.800 L 9.000 5.400 6.000 5.400 L 3.000 5.400 3.000 4.800 L 3.000 4.200 6.000 4.200 L 9.000 4.200 9.000 4.800 M9.000 7.800 L 9.000 9.000 6.000 9.000 L 3.000 9.000 3.000 7.800 L 3.000 6.600 6.000 6.600 L 9.000 6.600 9.000 7.800 " fill="#1A1C1F" stroke="none" fill-rule="evenodd"></path></svg>