<svg width="24" height="24" viewBox="0 0 24 24" fill="none" xmlns="http://www.w3.org/2000/svg"><path d="M8.670 4.056 C 8.447 4.137,8.256 4.299,8.132 4.510 C 8.027 4.690,8.021 4.725,8.006 5.344 L 7.991 5.990 7.025 6.012 C 6.348 6.027,6.000 6.051,5.860 6.092 C 5.030 6.337,4.466 6.865,4.145 7.696 L 4.020 8.020 4.020 12.980 C 4.020 17.706,4.024 17.951,4.095 18.180 C 4.352 19.008,4.992 19.648,5.820 19.905 C 6.050 19.977,6.318 19.980,12.000 19.980 C 17.682 19.980,17.950 19.977,18.180 19.905 C 19.008 19.648,19.648 19.008,19.905 18.180 C 19.976 17.951,19.980 17.706,19.980 13.000 C 19.980 8.294,19.976 8.049,19.905 7.820 C 19.643 6.975,18.989 6.332,18.149 6.093 C 18.003 6.051,17.649 6.027,16.970 6.011 L 16.000 5.989 16.000 5.477 C 16.000 5.195,15.981 4.874,15.957 4.764 C 15.860 4.311,15.483 4.025,14.980 4.025 C 14.661 4.025,14.504 4.088,14.269 4.314 C 14.051 4.522,14.000 4.734,14.000 5.427 L 14.000 6.000 12.005 6.000 L 10.009 6.000 9.994 5.349 C 9.979 4.725,9.973 4.690,9.868 4.510 C 9.755 4.317,9.574 4.154,9.400 4.088 C 9.207 4.015,8.827 3.998,8.670 4.056 M17.744 8.068 C 17.791 8.095,17.863 8.167,17.904 8.228 C 17.971 8.327,17.981 8.435,17.993 9.170 L 18.006 10.000 12.003 10.000 L 6.000 10.000 6.002 9.390 C 6.005 8.558,6.041 8.261,6.153 8.149 C 6.237 8.065,6.284 8.059,7.051 8.037 C 7.496 8.024,10.065 8.015,12.760 8.017 C 16.514 8.019,17.680 8.031,17.744 8.068 M18.000 14.825 C 18.000 17.580,17.999 17.612,17.916 17.746 C 17.870 17.820,17.794 17.903,17.746 17.931 C 17.679 17.969,16.403 17.983,11.979 17.991 L 6.298 18.003 6.164 17.864 L 6.030 17.726 6.009 14.883 L 5.988 12.040 11.994 12.040 L 18.000 12.040 18.000 14.825 M7.752 14.039 C 7.309 14.122,6.962 14.623,7.012 15.108 C 7.083 15.793,7.821 16.196,8.433 15.884 C 8.649 15.773,8.870 15.504,8.941 15.264 C 9.014 15.018,9.014 14.982,8.941 14.736 C 8.795 14.245,8.277 13.941,7.752 14.039 M15.716 14.062 C 15.479 14.136,15.187 14.394,15.102 14.605 C 14.951 14.985,15.048 15.448,15.338 15.730 C 15.910 16.286,16.905 15.910,16.988 15.107 C 17.060 14.405,16.388 13.853,15.716 14.062 M11.498 14.157 C 10.724 14.601,10.908 15.768,11.783 15.964 C 12.740 16.178,13.396 15.021,12.714 14.319 C 12.503 14.101,12.344 14.040,11.991 14.040 C 11.744 14.041,11.670 14.058,11.498 14.157 " fill="#1A1C1F" stroke="none" fill-rule="evenodd"></path></svg>