<svg width="20" height="20" viewBox="0 0 20 20" fill="none" xmlns="http://www.w3.org/2000/svg"><path d="M6.741 3.031 C 6.577 3.072,6.280 3.283,6.169 3.435 C 6.033 3.623,6.000 3.821,6.000 4.447 L 6.000 4.990 4.849 5.008 L 3.697 5.027 3.512 5.138 C 3.313 5.258,3.185 5.400,3.071 5.624 L 2.999 5.765 3.008 11.008 L 3.017 16.250 3.094 16.406 C 3.192 16.606,3.394 16.808,3.594 16.906 L 3.750 16.983 10.000 16.983 L 16.250 16.983 16.406 16.906 C 16.606 16.808,16.808 16.606,16.906 16.406 L 16.983 16.250 16.992 11.008 L 17.001 5.766 16.916 5.598 C 16.813 5.395,16.617 5.194,16.429 5.098 C 16.297 5.030,16.229 5.026,15.145 5.008 L 14.000 4.990 14.000 4.447 C 14.000 4.148,13.984 3.828,13.964 3.737 C 13.917 3.517,13.777 3.330,13.545 3.175 C 13.366 3.057,13.340 3.049,13.047 3.039 C 12.751 3.028,12.729 3.032,12.534 3.136 C 12.330 3.244,12.196 3.381,12.081 3.600 C 12.029 3.699,12.017 3.815,12.006 4.358 L 11.993 5.000 10.000 5.000 L 8.008 5.000 7.992 4.375 C 7.974 3.691,7.953 3.595,7.778 3.377 C 7.569 3.118,7.064 2.949,6.741 3.031 M15.000 8.000 L 15.000 9.000 10.000 9.000 L 5.000 9.000 5.000 8.000 L 5.000 7.000 10.000 7.000 L 15.000 7.000 15.000 8.000 M15.000 13.000 L 15.000 15.000 10.000 15.000 L 5.000 15.000 5.000 13.000 L 5.000 11.000 10.000 11.000 L 15.000 11.000 15.000 13.000 " fill="#1A1C1F" stroke="none" fill-rule="evenodd"></path></svg>