<svg xmlns="http://www.w3.org/2000/svg" width="28" height="28" fill="none"><g clip-path="url(#a)"><path fill="#1A1C1F" fill-rule="evenodd" d="M17.5 4.375c.492 0 .875.383.875.848v.902H21a2.626 2.626 0 0 1 2.625 2.625V21A2.626 2.626 0 0 1 21 23.625H7A2.626 2.626 0 0 1 4.375 21V8.75A2.626 2.626 0 0 1 7 6.125h2.625v-.902c0-.465.383-.848.875-.848s.875.383.875.848v.902h5.25v-.902c0-.465.383-.848.875-.848m4.375 8.75H6.125V21c0 .492.383.875.875.875h14a.864.864 0 0 0 .875-.875zm-12.25-5.25H7a.864.864 0 0 0-.875.875v2.625h15.75V8.75A.864.864 0 0 0 21 7.875h-2.625v.902a.86.86 0 0 1-.875.848.86.86 0 0 1-.875-.848v-.902h-5.25v.902a.86.86 0 0 1-.875.848.86.86 0 0 1-.875-.848zM7.875 19.25c0-.492.383-.875.875-.875s.875.383.875.875a.864.864 0 0 1-.875.875.864.864 0 0 1-.875-.875m0-3.5c0-.492.383-.875.875-.875s.875.383.875.875a.864.864 0 0 1-.875.875.864.864 0 0 1-.875-.875m3.5 3.5c0-.492.383-.875.875-.875s.875.383.875.875a.864.864 0 0 1-.875.875.864.864 0 0 1-.875-.875m0-3.5c0-.492.383-.875.875-.875s.875.383.875.875a.864.864 0 0 1-.875.875.864.864 0 0 1-.875-.875m3.5 3.5c0-.492.383-.875.875-.875s.875.383.875.875a.864.864 0 0 1-.875.875.864.864 0 0 1-.875-.875m0-3.5c0-.492.383-.875.875-.875s.875.383.875.875a.864.864 0 0 1-.875.875.864.864 0 0 1-.875-.875m3.5 3.5c0-.492.383-.875.875-.875s.875.383.875.875a.864.864 0 0 1-.875.875.864.864 0 0 1-.875-.875m0-3.5c0-.492.383-.875.875-.875s.875.383.875.875a.864.864 0 0 1-.875.875.864.864 0 0 1-.875-.875" clip-rule="evenodd"/></g><defs><clipPath id="a"><path fill="#fff" d="M0 0h28v28H0z"/></clipPath></defs></svg>