<svg width="28" height="28" viewBox="0 0 28 28" fill="none" xmlns="http://www.w3.org/2000/svg"><path d="M10.150 4.475 C 9.900 4.591,9.708 4.804,9.657 5.023 C 9.634 5.122,9.615 5.405,9.614 5.652 L 9.613 6.100 8.108 6.126 C 6.454 6.154,6.285 6.178,5.771 6.452 C 5.206 6.753,4.729 7.313,4.519 7.921 L 4.410 8.237 4.410 14.840 C 4.410 21.037,4.415 21.462,4.493 21.746 C 4.606 22.152,4.762 22.408,5.138 22.797 C 5.513 23.185,5.840 23.393,6.253 23.507 C 6.539 23.585,6.996 23.590,14.000 23.590 C 22.311 23.590,21.734 23.613,22.302 23.265 C 22.619 23.071,23.086 22.601,23.281 22.280 C 23.608 21.740,23.590 22.179,23.590 14.840 L 23.590 8.237 23.481 7.921 C 23.203 7.116,22.494 6.452,21.673 6.227 C 21.456 6.168,21.072 6.146,19.892 6.126 L 18.387 6.100 18.386 5.652 C 18.384 5.090,18.336 4.880,18.169 4.704 C 17.801 4.317,17.271 4.298,16.886 4.658 C 16.662 4.867,16.616 5.038,16.614 5.658 L 16.613 6.113 14.000 6.113 L 11.387 6.113 11.386 5.658 C 11.384 5.039,11.337 4.867,11.115 4.659 C 10.826 4.389,10.479 4.323,10.150 4.475 M9.614 8.342 C 9.615 8.592,9.634 8.878,9.657 8.977 C 9.734 9.305,10.140 9.611,10.500 9.611 C 10.860 9.611,11.266 9.305,11.343 8.977 C 11.366 8.878,11.385 8.592,11.386 8.342 L 11.387 7.887 14.000 7.887 L 16.613 7.887 16.614 8.342 C 16.615 8.592,16.634 8.878,16.657 8.977 C 16.734 9.305,17.140 9.611,17.500 9.611 C 17.860 9.611,18.266 9.305,18.343 8.977 C 18.366 8.878,18.385 8.589,18.386 8.335 L 18.387 7.874 19.855 7.896 L 21.323 7.919 21.484 8.042 C 21.572 8.109,21.691 8.239,21.747 8.331 C 21.845 8.490,21.851 8.558,21.875 9.942 L 21.901 11.387 14.000 11.387 L 6.099 11.387 6.125 9.973 C 6.153 8.434,6.166 8.352,6.428 8.105 C 6.624 7.921,6.824 7.898,8.318 7.892 L 9.613 7.887 9.614 8.342 M21.873 17.176 C 21.842 21.758,21.869 21.448,21.474 21.722 L 21.272 21.863 14.000 21.863 L 6.728 21.863 6.526 21.722 C 6.130 21.447,6.157 21.757,6.126 17.175 L 6.098 13.113 14.000 13.113 L 21.902 13.113 21.873 17.176 M8.377 14.972 C 8.147 15.081,8.037 15.200,7.954 15.432 C 7.866 15.678,7.873 15.903,7.976 16.129 C 8.237 16.703,9.062 16.776,9.455 16.261 C 9.576 16.103,9.590 16.048,9.588 15.748 C 9.587 15.457,9.569 15.389,9.462 15.249 C 9.222 14.934,8.725 14.807,8.377 14.972 M11.877 14.972 C 11.647 15.081,11.537 15.200,11.454 15.432 C 11.366 15.678,11.373 15.903,11.476 16.129 C 11.737 16.703,12.562 16.776,12.955 16.261 C 13.076 16.103,13.090 16.048,13.088 15.748 C 13.087 15.457,13.069 15.389,12.962 15.249 C 12.722 14.934,12.225 14.807,11.877 14.972 M15.377 14.972 C 15.147 15.081,15.037 15.200,14.954 15.432 C 14.866 15.678,14.873 15.903,14.976 16.129 C 15.237 16.703,16.062 16.776,16.455 16.261 C 16.576 16.103,16.590 16.048,16.588 15.748 C 16.587 15.457,16.569 15.389,16.462 15.249 C 16.222 14.934,15.725 14.807,15.377 14.972 M18.877 14.972 C 18.647 15.081,18.537 15.200,18.454 15.432 C 18.366 15.678,18.373 15.903,18.476 16.129 C 18.737 16.703,19.562 16.776,19.955 16.261 C 20.076 16.103,20.090 16.048,20.088 15.748 C 20.087 15.457,20.069 15.389,19.962 15.249 C 19.722 14.934,19.225 14.807,18.877 14.972 M8.377 18.472 C 8.147 18.581,8.037 18.700,7.954 18.932 C 7.866 19.178,7.873 19.403,7.976 19.629 C 8.237 20.203,9.062 20.276,9.455 19.761 C 9.576 19.603,9.590 19.548,9.588 19.248 C 9.587 18.957,9.569 18.889,9.462 18.749 C 9.222 18.434,8.725 18.307,8.377 18.472 M11.877 18.472 C 11.647 18.581,11.537 18.700,11.454 18.932 C 11.366 19.178,11.373 19.403,11.476 19.629 C 11.737 20.203,12.562 20.276,12.955 19.761 C 13.076 19.603,13.090 19.548,13.088 19.248 C 13.087 18.957,13.069 18.889,12.962 18.749 C 12.722 18.434,12.225 18.307,11.877 18.472 M15.377 18.472 C 15.147 18.581,15.037 18.700,14.954 18.932 C 14.866 19.178,14.873 19.403,14.976 19.629 C 15.237 20.203,16.062 20.276,16.455 19.761 C 16.576 19.603,16.590 19.548,16.588 19.248 C 16.587 18.957,16.569 18.889,16.462 18.749 C 16.222 18.434,15.725 18.307,15.377 18.472 M18.877 18.472 C 18.647 18.581,18.537 18.700,18.454 18.932 C 18.366 19.178,18.373 19.403,18.476 19.629 C 18.737 20.203,19.562 20.276,19.955 19.761 C 20.076 19.603,20.090 19.548,20.088 19.248 C 20.087 18.957,20.069 18.889,19.962 18.749 C 19.722 18.434,19.225 18.307,18.877 18.472 " fill="#1A1C1F" stroke="none" fill-rule="evenodd"></path></svg>