<svg xmlns="http://www.w3.org/2000/svg" width="24" height="24" fill="none"><g clip-path="url(#a)"><path fill="#1A1C1F" fill-rule="evenodd" d="M15.012 4c.635 0 .988.492.988.988V6h1.506A2.48 2.48 0 0 1 20 8.494v9.012A2.48 2.48 0 0 1 17.506 20H6.494A2.48 2.48 0 0 1 4 17.506V8.494A2.495 2.495 0 0 1 6.494 6H8V4.988C8 4.494 8.372 4 8.996 4A.983.983 0 0 1 10 4.988V6h4V4.988c0-.494.306-.988 1.012-.988M18 12.024H6v5.482c0 .282.212.494.494.494h11.012a.483.483 0 0 0 .494-.494zM17.506 8H6.494A.483.483 0 0 0 6 8.494V10h12V8.494A.483.483 0 0 0 17.506 8M6.988 15.004a1 1 0 1 1 2 0 .99.99 0 0 1-.996.996 1 1 0 0 1-1.004-.996m4 0c0-.557.47-1.004 1.02-1.004a1 1 0 1 1 0 2c-.553 0-1.02-.442-1.02-.996m4.024 0a1 1 0 1 1 2 0 1 1 0 0 1-1.004.996.99.99 0 0 1-.996-.996" clip-rule="evenodd"/></g><defs><clipPath id="a"><path fill="#fff" d="M0 0h24v24H0z"/></clipPath></defs></svg>