<svg xmlns="http://www.w3.org/2000/svg" width="14" height="14" fill="none"><g clip-path="url(#a)"><path fill="#1A1C1F" fill-rule="evenodd" d="M2.1 11.202V4.194c0-.383.315-.698.698-.698h1.396v-.698c0-.383.315-.698.698-.698.397 0 .712.315.712.698v.698h2.792v-.698c0-.383.315-.698.712-.698.383 0 .698.315.698.698v.698h1.396c.383 0 .698.315.698.698v7.008a.7.7 0 0 1-.698.698H2.798a.7.7 0 0 1-.698-.698m1.396-.698h7.008V7.698H3.496zm0-4.202h7.008v-1.41l-7.008.014z" clip-rule="evenodd"/></g><defs><clipPath id="a"><path fill="#fff" d="M0 0h14v14H0z"/></clipPath></defs></svg>