<svg xmlns="http://www.w3.org/2000/svg" width="12" height="12" fill="none"><g clip-path="url(#a)"><path fill="#1A1C1F" fill-rule="evenodd" d="M1.8 9.602V3.595a.6.6 0 0 1 .598-.598h1.197v-.599a.6.6 0 0 1 .598-.598c.34 0 .61.27.61.598v.599h2.394v-.599c0-.328.27-.598.61-.598a.6.6 0 0 1 .598.598v.599h1.197a.6.6 0 0 1 .598.598v6.007a.6.6 0 0 1-.598.598H2.398a.6.6 0 0 1-.598-.598m1.197-.599h6.006V6.598H2.997zm0-3.601h6.006V4.193l-6.006.012z" clip-rule="evenodd"/></g><defs><clipPath id="a"><path fill="#fff" d="M0 0h12v12H0z"/></clipPath></defs></svg>