<svg xmlns="http://www.w3.org/2000/svg" width="12" height="12" fill="none"><g clip-path="url(#a)"><path fill="#1A1C1F" fill-rule="evenodd" d="M6 1.2c2.646 0 4.8 2.154 4.8 4.8S8.646 10.8 6 10.8A4.807 4.807 0 0 1 1.2 6c0-2.646 2.154-4.8 4.8-4.8m0 1.206A3.587 3.587 0 0 0 2.406 6 3.587 3.587 0 0 0 6 9.594 3.587 3.587 0 0 0 9.594 6 3.587 3.587 0 0 0 6 2.406M6.597 3.6v2.154l1.311 1.311-.843.843-1.662-1.662V3.6z" clip-rule="evenodd"/></g><defs><clipPath id="a"><path fill="#fff" d="M0 0h12v12H0z"/></clipPath></defs></svg>