<svg width="14" height="14" viewBox="0 0 14 14" fill="none" xmlns="http://www.w3.org/2000/svg"><path d="M6.510 1.425 C 5.806 1.487,5.015 1.723,4.387 2.058 C 2.964 2.817,1.944 4.124,1.566 5.673 C 1.446 6.165,1.413 6.446,1.413 6.988 C 1.412 7.603,1.457 7.941,1.614 8.505 C 1.808 9.201,2.168 9.910,2.609 10.465 C 2.799 10.705,3.247 11.156,3.491 11.353 C 4.112 11.854,4.851 12.224,5.636 12.425 C 6.122 12.550,6.427 12.586,7.000 12.587 C 7.566 12.587,7.857 12.552,8.366 12.424 C 9.135 12.231,9.903 11.846,10.512 11.351 C 10.709 11.191,11.093 10.815,11.276 10.605 C 11.902 9.883,12.358 8.886,12.532 7.862 C 12.603 7.441,12.609 6.644,12.544 6.218 C 12.448 5.596,12.287 5.087,12.005 4.515 C 11.711 3.920,11.388 3.478,10.893 2.998 C 10.110 2.237,9.157 1.733,8.093 1.516 C 7.691 1.434,6.914 1.389,6.510 1.425 M7.502 2.847 C 8.176 2.922,8.746 3.134,9.337 3.527 C 9.715 3.778,10.201 4.258,10.447 4.622 C 10.830 5.189,11.047 5.748,11.143 6.417 C 11.197 6.789,11.180 7.445,11.108 7.805 C 10.867 9.002,10.111 10.050,9.053 10.654 C 8.370 11.045,7.437 11.253,6.694 11.180 C 5.343 11.048,4.248 10.411,3.535 9.345 C 3.217 8.869,3.018 8.399,2.899 7.841 C 2.841 7.570,2.837 7.507,2.837 7.000 C 2.837 6.495,2.842 6.428,2.900 6.156 C 3.237 4.566,4.411 3.340,5.981 2.938 C 6.393 2.832,7.029 2.794,7.502 2.847 M6.300 5.746 L 6.300 7.292 7.268 8.260 L 8.237 9.228 8.732 8.732 L 9.228 8.237 8.464 7.472 L 7.700 6.708 7.700 5.454 L 7.700 4.200 7.000 4.200 L 6.300 4.200 6.300 5.746 " fill="#1A1C1F" stroke="none" fill-rule="evenodd"></path></svg>