<svg width="16" height="16" viewBox="0 0 16 16" fill="none" xmlns="http://www.w3.org/2000/svg"><path d="M7.533 1.618 C 5.961 1.755,4.525 2.428,3.431 3.539 C 2.931 4.047,2.598 4.513,2.283 5.147 C 1.984 5.748,1.800 6.313,1.677 7.000 C 1.594 7.467,1.594 8.533,1.677 9.000 C 1.882 10.148,2.333 11.155,3.027 12.013 C 3.250 12.289,3.766 12.799,4.042 13.018 C 5.817 14.426,8.202 14.781,10.320 13.954 C 11.181 13.618,11.901 13.138,12.562 12.462 C 13.090 11.923,13.401 11.486,13.720 10.840 C 14.042 10.187,14.236 9.577,14.337 8.892 C 14.403 8.450,14.403 7.544,14.338 7.120 C 14.226 6.395,14.026 5.762,13.708 5.133 C 13.365 4.454,13.007 3.968,12.449 3.425 C 11.510 2.512,10.339 1.916,9.047 1.694 C 8.841 1.659,7.815 1.592,7.680 1.605 C 7.658 1.607,7.592 1.613,7.533 1.618 M8.800 5.833 L 8.800 7.667 9.680 8.547 L 10.560 9.426 9.993 9.993 L 9.427 10.560 8.314 9.447 L 7.200 8.334 7.200 6.167 L 7.200 4.000 8.000 4.000 L 8.800 4.000 8.800 5.833 " fill="#1A1C1F" stroke="none" fill-rule="evenodd"></path></svg>