<svg width="12" height="12" viewBox="0 0 12 12" fill="none" xmlns="http://www.w3.org/2000/svg"><path d="M5.580 1.222 C 4.634 1.311,3.727 1.681,2.978 2.284 C 2.759 2.460,2.414 2.804,2.249 3.010 C 1.750 3.634,1.402 4.422,1.258 5.253 C 1.220 5.473,1.214 5.582,1.215 6.010 C 1.215 6.430,1.222 6.548,1.258 6.750 C 1.351 7.274,1.491 7.698,1.719 8.150 C 1.974 8.657,2.247 9.026,2.666 9.434 C 4.288 11.011,6.732 11.246,8.630 10.005 C 8.915 9.819,9.156 9.619,9.421 9.347 C 9.817 8.942,10.051 8.615,10.290 8.130 C 10.532 7.640,10.677 7.182,10.753 6.669 C 10.803 6.332,10.802 5.659,10.752 5.330 C 10.670 4.797,10.532 4.360,10.290 3.870 C 10.058 3.400,9.819 3.061,9.451 2.682 C 8.773 1.983,7.951 1.524,7.000 1.313 C 6.638 1.232,5.944 1.188,5.580 1.222 M6.600 4.375 L 6.600 5.750 7.260 6.410 L 7.920 7.070 7.495 7.495 L 7.070 7.920 6.235 7.085 L 5.400 6.250 5.400 4.625 L 5.400 3.000 6.000 3.000 L 6.600 3.000 6.600 4.375 " fill="#1A1C1F" stroke="none" fill-rule="evenodd"></path></svg>