<svg width="20" height="20" viewBox="0 0 20 20" fill="none" xmlns="http://www.w3.org/2000/svg"><path d="M9.300 2.039 C 8.340 2.118,7.133 2.477,6.267 2.941 C 5.019 3.609,3.897 4.658,3.192 5.817 C 2.458 7.020,2.064 8.334,2.011 9.750 C 1.942 11.593,2.561 13.470,3.726 14.948 C 3.969 15.256,4.583 15.883,4.908 16.156 C 5.805 16.907,7.016 17.509,8.183 17.783 C 8.879 17.946,9.206 17.982,10.000 17.982 C 10.845 17.981,11.222 17.936,11.955 17.749 C 12.803 17.532,13.667 17.150,14.383 16.676 C 14.887 16.342,15.156 16.122,15.611 15.673 C 17.205 14.100,18.072 11.935,17.989 9.733 C 17.966 9.117,17.903 8.674,17.752 8.066 C 17.605 7.474,17.450 7.059,17.150 6.450 C 16.730 5.600,16.268 4.969,15.561 4.282 C 14.443 3.196,13.081 2.475,11.562 2.166 C 10.976 2.046,9.924 1.987,9.300 2.039 M11.167 4.132 C 12.875 4.450,14.409 5.585,15.258 7.159 C 16.383 9.245,16.156 11.876,14.691 13.716 C 14.281 14.230,13.653 14.785,13.083 15.134 C 12.089 15.744,10.675 16.081,9.562 15.972 C 7.633 15.783,6.068 14.874,5.050 13.350 C 4.595 12.669,4.312 11.999,4.142 11.202 C 4.059 10.815,4.052 10.725,4.053 10.000 C 4.053 9.278,4.061 9.184,4.143 8.794 C 4.670 6.310,6.651 4.440,9.133 4.082 C 9.606 4.013,10.672 4.040,11.167 4.132 M9.000 8.208 L 9.000 10.417 10.383 11.800 L 11.767 13.183 12.475 12.475 L 13.183 11.767 12.092 10.675 L 11.000 9.583 11.000 7.791 L 11.000 6.000 10.000 6.000 L 9.000 6.000 9.000 8.208 " fill="#1A1C1F" stroke="none" fill-rule="evenodd"></path></svg>