<svg width="20" height="20" viewBox="0 0 20 20" fill="none" xmlns="http://www.w3.org/2000/svg"><path d="M9.311 2.038 C 8.015 2.146,6.683 2.619,5.559 3.371 C 4.623 3.996,3.743 4.905,3.191 5.817 C 2.455 7.031,2.064 8.335,2.011 9.750 C 1.929 11.950,2.790 14.096,4.389 15.673 C 4.840 16.118,5.110 16.338,5.607 16.668 C 6.590 17.318,7.628 17.715,8.883 17.922 C 9.396 18.006,10.593 18.006,11.133 17.921 C 11.619 17.845,12.298 17.672,12.721 17.517 C 13.479 17.238,14.421 16.706,15.017 16.220 C 15.362 15.939,15.938 15.359,16.218 15.013 C 17.417 13.528,18.060 11.613,17.989 9.733 C 17.966 9.117,17.903 8.674,17.752 8.066 C 17.605 7.474,17.450 7.059,17.150 6.450 C 16.730 5.600,16.268 4.969,15.561 4.282 C 14.443 3.196,13.081 2.475,11.562 2.166 C 10.980 2.047,9.922 1.987,9.311 2.038 M11.000 7.292 L 11.000 9.584 12.100 10.683 L 13.200 11.783 12.492 12.492 L 11.784 13.200 10.392 11.809 L 9.000 10.417 9.000 7.708 L 9.000 5.000 10.000 5.000 L 11.000 5.000 11.000 7.292 " fill="#1A1C1F" stroke="none" fill-rule="evenodd"></path></svg>