<svg width="14" height="14" viewBox="0 0 14 14" fill="none" xmlns="http://www.w3.org/2000/svg"><path d="M6.510 1.425 C 5.806 1.487,5.015 1.723,4.387 2.058 C 2.965 2.817,1.944 4.125,1.566 5.673 C 1.446 6.165,1.413 6.446,1.413 6.988 C 1.412 7.603,1.457 7.941,1.614 8.505 C 1.808 9.201,2.168 9.910,2.609 10.465 C 2.799 10.705,3.247 11.156,3.491 11.353 C 4.112 11.854,4.851 12.224,5.636 12.425 C 6.122 12.550,6.427 12.586,7.000 12.587 C 7.566 12.587,7.857 12.552,8.366 12.424 C 9.135 12.231,9.903 11.846,10.512 11.351 C 10.709 11.191,11.093 10.815,11.276 10.605 C 11.902 9.883,12.358 8.886,12.532 7.862 C 12.603 7.441,12.609 6.644,12.544 6.218 C 12.448 5.596,12.287 5.087,12.005 4.515 C 11.711 3.920,11.388 3.478,10.893 2.998 C 10.110 2.237,9.157 1.733,8.093 1.516 C 7.691 1.434,6.914 1.389,6.510 1.425 M7.700 5.104 L 7.700 6.709 8.470 7.478 L 9.240 8.248 8.744 8.744 L 8.249 9.240 7.274 8.266 L 6.300 7.292 6.300 5.396 L 6.300 3.500 7.000 3.500 L 7.700 3.500 7.700 5.104 " fill="#1A1C1F" stroke="none" fill-rule="evenodd"></path></svg>