<svg width="16" height="16" viewBox="0 0 16 16" fill="none" xmlns="http://www.w3.org/2000/svg"><path d="M7.533 1.618 C 6.617 1.698,5.704 1.974,4.920 2.408 C 3.174 3.374,2.026 5.002,1.678 7.004 C 1.626 7.299,1.618 7.440,1.619 8.013 C 1.620 8.572,1.630 8.732,1.677 9.000 C 1.881 10.147,2.333 11.155,3.027 12.013 C 3.250 12.289,3.766 12.799,4.042 13.018 C 5.817 14.426,8.202 14.781,10.320 13.954 C 11.181 13.618,11.901 13.138,12.562 12.462 C 13.090 11.923,13.401 11.486,13.720 10.840 C 14.042 10.187,14.236 9.577,14.337 8.892 C 14.403 8.450,14.403 7.544,14.338 7.120 C 14.226 6.395,14.026 5.762,13.708 5.133 C 13.365 4.454,13.007 3.968,12.449 3.425 C 11.510 2.512,10.339 1.916,9.047 1.694 C 8.841 1.659,7.815 1.592,7.680 1.605 C 7.658 1.607,7.592 1.613,7.533 1.618 M8.925 3.304 C 10.303 3.562,11.526 4.465,12.207 5.727 C 13.107 7.396,12.925 9.500,11.753 10.973 C 11.254 11.600,10.513 12.157,9.813 12.431 C 8.667 12.879,7.612 12.911,6.467 12.531 C 4.860 11.999,3.676 10.658,3.313 8.962 C 3.247 8.652,3.242 8.580,3.242 8.000 C 3.243 7.416,3.248 7.350,3.317 7.028 C 3.746 5.036,5.321 3.551,7.307 3.265 C 7.682 3.211,8.538 3.232,8.925 3.304 M7.200 6.567 L 7.200 8.334 8.307 9.440 L 9.413 10.546 9.980 9.980 L 10.546 9.413 9.673 8.540 L 8.800 7.666 8.800 6.233 L 8.800 4.800 8.000 4.800 L 7.200 4.800 7.200 6.567 " fill="#1A1C1F" stroke="none" fill-rule="evenodd"></path></svg>