<svg xmlns="http://www.w3.org/2000/svg" width="16" height="16" fill="none"><g clip-path="url(#a)"><path fill="#1A1C1F" fill-rule="evenodd" d="M8 1.6c3.528 0 6.4 2.872 6.4 6.4s-2.872 6.4-6.4 6.4A6.41 6.41 0 0 1 1.6 8c0-3.528 2.872-6.4 6.4-6.4m0 1.608A4.783 4.783 0 0 0 3.208 8 4.783 4.783 0 0 0 8 12.792 4.783 4.783 0 0 0 12.792 8 4.783 4.783 0 0 0 8 3.208M8.796 4.8v2.872l1.748 1.748-1.124 1.124-2.216-2.216V4.8z" clip-rule="evenodd"/></g><defs><clipPath id="a"><path fill="#fff" d="M0 0h16v16H0z"/></clipPath></defs></svg>