<svg width="12" height="12" viewBox="0 0 12 12" fill="none" xmlns="http://www.w3.org/2000/svg"><path d="M5.580 1.222 C 3.944 1.376,2.473 2.364,1.740 3.802 C 1.507 4.259,1.347 4.740,1.258 5.253 C 1.220 5.473,1.214 5.582,1.215 6.010 C 1.215 6.430,1.222 6.548,1.258 6.750 C 1.351 7.274,1.491 7.698,1.719 8.150 C 1.974 8.657,2.247 9.026,2.666 9.434 C 4.288 11.011,6.732 11.246,8.630 10.005 C 8.915 9.819,9.156 9.619,9.421 9.347 C 9.817 8.942,10.051 8.615,10.290 8.130 C 10.532 7.640,10.677 7.182,10.753 6.669 C 10.803 6.332,10.802 5.659,10.752 5.330 C 10.670 4.797,10.532 4.360,10.290 3.870 C 10.058 3.400,9.819 3.061,9.451 2.682 C 8.773 1.983,7.951 1.524,7.000 1.313 C 6.638 1.232,5.944 1.188,5.580 1.222 M6.436 2.441 C 7.016 2.504,7.576 2.716,8.062 3.057 C 8.307 3.229,8.752 3.674,8.921 3.915 C 9.358 4.543,9.580 5.241,9.580 5.986 C 9.579 6.575,9.457 7.107,9.208 7.606 C 9.022 7.977,8.845 8.222,8.534 8.537 C 8.129 8.949,7.654 9.239,7.090 9.419 C 6.342 9.658,5.615 9.652,4.850 9.398 C 3.645 8.999,2.757 7.994,2.485 6.721 C 2.435 6.489,2.431 6.435,2.432 6.000 C 2.432 5.562,2.436 5.513,2.488 5.271 C 2.782 3.906,3.781 2.863,5.126 2.518 C 5.483 2.427,6.016 2.396,6.436 2.441 M5.400 4.925 L 5.400 6.250 6.230 7.080 L 7.060 7.910 7.485 7.485 L 7.910 7.060 7.255 6.405 L 6.600 5.750 6.600 4.675 L 6.600 3.600 6.000 3.600 L 5.400 3.600 5.400 4.925 " fill="#1A1C1F" stroke="none" fill-rule="evenodd"></path></svg>