<svg xmlns="http://www.w3.org/2000/svg" width="24" height="24" fill="none"><g clip-path="url(#a)"><path fill="#1A1C1F" fill-rule="evenodd" d="M12 2c5.516 0 10 4.484 10 10s-4.484 10-10 10S2 17.516 2 12 6.484 2 12 2m0 2.019A7.975 7.975 0 0 0 4.019 12 7.975 7.975 0 0 0 12 19.981 7.975 7.975 0 0 0 19.981 12 7.975 7.975 0 0 0 12 4.019m-1 8.098V7c0-.516.5-1 1-1s1 .5 1 1l.01 4.6 2.699 2.677c.203.19.31.449.31.71 0 .487-.387.964-1.042.964-.27 0-.534-.089-.7-.266l-2.948-2.957c-.188-.165-.282-.376-.329-.61" clip-rule="evenodd"/></g><defs><clipPath id="a"><path fill="#fff" d="M0 0h24v24H0z"/></clipPath></defs></svg>