<svg xmlns="http://www.w3.org/2000/svg" width="14" height="14" fill="none"><g clip-path="url(#a)"><path fill="#1A1C1F" fill-rule="evenodd" d="M7 1.4c3.087 0 5.6 2.513 5.6 5.6s-2.513 5.6-5.6 5.6A5.61 5.61 0 0 1 1.4 7c0-3.087 2.513-5.6 5.6-5.6m0 1.407A4.185 4.185 0 0 0 2.807 7 4.185 4.185 0 0 0 7 11.193 4.185 4.185 0 0 0 11.193 7 4.185 4.185 0 0 0 7 2.807M7.697 4.2v2.513l1.53 1.53-.984.983-1.94-1.94V4.2z" clip-rule="evenodd"/></g><defs><clipPath id="a"><path fill="#fff" d="M0 0h14v14H0z"/></clipPath></defs></svg>