<svg width="24" height="24" viewBox="0 0 24 24" fill="none" xmlns="http://www.w3.org/2000/svg"><path d="M11.120 2.043 C 9.446 2.202,7.854 2.768,6.453 3.704 C 5.219 4.528,4.145 5.658,3.402 6.914 C 2.179 8.980,1.741 11.415,2.165 13.780 C 2.882 17.772,6.043 20.998,10.020 21.796 C 10.771 21.946,11.128 21.979,12.020 21.978 C 13.230 21.976,14.105 21.834,15.220 21.458 C 18.418 20.377,20.872 17.710,21.692 14.420 C 21.922 13.498,21.978 13.022,21.978 12.000 C 21.978 10.978,21.922 10.502,21.692 9.580 C 21.241 7.772,20.362 6.239,19.013 4.909 C 18.190 4.098,17.441 3.563,16.400 3.045 C 15.148 2.422,14.089 2.145,12.553 2.040 C 11.906 1.996,11.609 1.997,11.120 2.043 M12.820 4.079 C 14.321 4.214,15.824 4.840,17.060 5.844 C 17.405 6.125,18.083 6.817,18.327 7.140 C 19.028 8.065,19.513 9.105,19.785 10.265 C 19.890 10.711,19.897 10.807,19.912 11.836 C 19.929 13.073,19.896 13.379,19.655 14.218 C 19.202 15.792,18.256 17.202,16.954 18.242 C 14.069 20.547,9.995 20.554,7.060 18.260 C 6.665 17.951,5.935 17.203,5.630 16.794 C 4.453 15.217,3.919 13.359,4.072 11.370 C 4.156 10.279,4.393 9.400,4.843 8.505 C 5.257 7.681,5.673 7.090,6.277 6.465 C 7.405 5.299,8.821 4.515,10.367 4.198 C 11.098 4.049,12.000 4.005,12.820 4.079 M11.792 6.039 C 11.523 6.090,11.235 6.340,11.066 6.668 C 11.007 6.783,11.000 7.035,11.003 9.108 C 11.005 10.380,11.019 11.638,11.034 11.906 L 11.062 12.391 11.300 12.666 C 11.799 13.242,14.339 15.748,14.520 15.842 C 14.784 15.979,15.186 15.973,15.466 15.829 C 15.969 15.569,16.156 14.982,15.875 14.538 C 15.807 14.429,15.133 13.719,14.377 12.960 L 13.004 11.580 12.992 9.160 C 12.979 6.472,12.997 6.654,12.702 6.350 C 12.447 6.088,12.120 5.976,11.792 6.039 " fill="#1A1C1F" stroke="none" fill-rule="evenodd"></path></svg>