<svg xmlns="http://www.w3.org/2000/svg" width="32" height="32" fill="none"><path fill="#1A1C1F" fill-rule="evenodd" d="m6.184 6.718-1.577.029-.407.201c-.827.409-1.394 1.192-1.484 2.049-.06.576-.057 13.249.003 13.921.067.74.208 1.031.77 1.593.619.619.827.708 1.797.771 1.004.064 20.424.064 21.428 0 .924-.06 1.157-.152 1.716-.679.417-.394.64-.719.777-1.136.091-.276.098-.703.114-7.054.01-3.776-.004-6.997-.031-7.295-.041-.454-.079-.595-.248-.938a2.67 2.67 0 0 0-1.233-1.228l-.417-.205-1.256-.035C24.67 6.671 8.5 6.676 6.184 6.718m20.981 2.073.2.205-.016 6.991-.016 6.992-.111.149a.63.63 0 0 1-.32.204c-.29.076-21.514.076-21.804 0a.63.63 0 0 1-.32-.204l-.111-.149-.016-6.992-.016-6.991.2-.205.2-.204h21.93zM6.347 16.026v6.117l2.6-.024c2.874-.027 3.087-.049 3.97-.402 1.695-.679 2.604-2.274 2.77-4.859.223-3.478-.736-5.722-2.826-6.611-.633-.269-.809-.284-3.754-.312l-2.76-.027zm10.666-.002v6.121l2.734-.028c2.895-.029 3.179-.051 3.986-.312.868-.28 1.639-.891 1.966-1.56.346-.703.423-1.857.173-2.561-.334-.939-1.067-1.569-2.245-1.933-.048-.015.07-.103.293-.219a3.2 3.2 0 0 0 1.598-2.043c.29-1.23-.325-2.566-1.452-3.159-.674-.354-.677-.354-4.026-.393l-3.027-.034zm4.799-4.098c.592.198.903.734.837 1.442q-.079.833-.833 1.206c-.213.105-.343.122-1.056.137l-.813.019v-2.958l.786.028c.558.02.872.057 1.079.126m-11.199-.03c1.648.263 2.27 1.698 2.092 4.83-.065 1.158-.154 1.591-.444 2.165-.459.91-1.165 1.262-2.541 1.267l-.44.002v-8.32h.493c.272.001.65.026.84.056m11.423 5.219c.378.118.697.382.869.721.142.279.161.368.157.747-.008.686-.282 1.121-.864 1.37-.279.12-.994.205-1.731.206l-.52.001v-3.159l.946.027c.521.014 1.035.053 1.143.087"/></svg>