<svg xmlns="http://www.w3.org/2000/svg" width="12" height="12" fill="none"><g clip-path="url(#a)"><path fill="#1A1C1F" fill-rule="evenodd" d="M10 2.5a1 1 0 0 1 1 1v4.993A1.005 1.005 0 0 1 10 9.5H2.005A1.005 1.005 0 0 1 1 8.5v-5a1 1 0 0 1 1.005-1zm0 .71H2.005a.276.276 0 0 0-.275.29v4.993a.276.276 0 0 0 .275.286H10a.276.276 0 0 0 .27-.286V3.5a.276.276 0 0 0-.27-.29m-5.942.499c1.185 0 1.84.742 1.84 2.27.002 1.326-.443 2.301-1.84 2.312H2.376V3.709zm4.234.002c1.289 0 1.308 1.021 1.308 1.116a1.13 1.13 0 0 1-.8 1.067c.834.181.966.787.966 1.109 0 1.288-1.337 1.288-1.766 1.288H6.38v-4.58zm-4.593.719h-.223v3.118h.391c.583 0 .922-.466.922-1.474 0-.923-.1-1.644-1.09-1.644m4.252 1.941H7.47v1.177h.451c.179 0 .741 0 .741-.588 0-.256-.14-.589-.711-.589m-.135-1.954H7.47v1.106h.435c.384 0 .6-.254.6-.554 0-.38-.196-.552-.689-.552" clip-rule="evenodd"/></g><defs><clipPath id="a"><path fill="#fff" d="M0 0h12v12H0z"/></clipPath></defs></svg>