<svg xmlns="http://www.w3.org/2000/svg" width="14" height="14" fill="none"><g clip-path="url(#a)"><path fill="#1A1C1F" fill-rule="evenodd" d="M11.667 2.917c.644 0 1.166.522 1.166 1.166V9.91a1.173 1.173 0 0 1-1.166 1.174H2.339c-.645 0-1.17-.521-1.172-1.166V4.083a1.167 1.167 0 0 1 1.172-1.166zm0 .828H2.339a.32.32 0 0 0-.32.338V9.91a.32.32 0 0 0 .32.333h9.328a.32.32 0 0 0 .315-.333V4.083a.32.32 0 0 0-.315-.338m-6.933.582c1.383 0 2.147.866 2.147 2.649.002 1.547-.517 2.684-2.147 2.697H2.772V4.327zm4.94.003c1.504 0 1.526 1.19 1.526 1.302a1.31 1.31 0 0 1-.933 1.244c.973.212 1.127.919 1.127 1.294 0 1.503-1.56 1.503-2.06 1.503h-1.89V4.33zm-5.358.838h-.26v3.638h.456c.68 0 1.075-.544 1.075-1.72 0-1.076-.116-1.918-1.271-1.918m4.96 2.265h-.561v1.373h.574c.246-.003.817-.046.817-.686 0-.299-.164-.687-.83-.687m-.157-2.28h-.404v1.29h.508c.448 0 .7-.296.7-.646 0-.443-.23-.644-.804-.644" clip-rule="evenodd"/></g><defs><clipPath id="a"><path fill="#fff" d="M0 0h14v14H0z"/></clipPath></defs></svg>