<svg xmlns="http://www.w3.org/2000/svg" width="16" height="16" fill="none"><g clip-path="url(#a)"><path fill="#1A1C1F" fill-rule="evenodd" d="M13.333 3.333c.737 0 1.334.597 1.334 1.334v6.657a1.34 1.34 0 0 1-1.334 1.343H2.673a1.34 1.34 0 0 1-1.34-1.334V4.667a1.333 1.333 0 0 1 1.34-1.334zm0 .947H2.673a.37.37 0 0 0-.366.387v6.657a.37.37 0 0 0 .366.381h10.66a.37.37 0 0 0 .36-.381V4.667a.37.37 0 0 0-.36-.387m-7.922.665c1.58 0 2.453.99 2.453 3.027.003 1.768-.59 3.068-2.453 3.083H3.168v-6.11zm5.645.003c1.719 0 1.744 1.361 1.744 1.488a1.5 1.5 0 0 1-1.067 1.423c1.112.241 1.288 1.049 1.288 1.478 0 1.718-1.782 1.718-2.354 1.718h-2.16V4.948zm-6.124.959h-.297v4.157h.521c.777 0 1.23-.621 1.23-1.965 0-1.231-.134-2.192-1.454-2.192m5.67 2.588H9.96v1.569h.652c.279-.003.937-.049.937-.784 0-.341-.186-.785-.948-.785m-.18-2.606H9.96v1.475h.58c.512 0 .8-.339.8-.739 0-.506-.261-.736-.919-.736" clip-rule="evenodd"/></g><defs><clipPath id="a"><path fill="#fff" d="M0 0h16v16H0z"/></clipPath></defs></svg>