<svg xmlns="http://www.w3.org/2000/svg" width="28" height="28" fill="none"><g clip-path="url(#a)"><path fill="#1A1C1F" fill-rule="evenodd" d="M23.333 5.833a2.333 2.333 0 0 1 2.334 2.334v11.65a2.345 2.345 0 0 1-2.334 2.35H4.678a2.345 2.345 0 0 1-2.345-2.334V8.167a2.333 2.333 0 0 1 2.345-2.334zm0 1.657H4.678a.644.644 0 0 0-.641.677v11.65a.644.644 0 0 0 .641.667h18.655a.644.644 0 0 0 .63-.667V8.167a.644.644 0 0 0-.63-.677M9.47 8.654c2.765 0 4.293 1.732 4.293 5.297.005 3.094-1.034 5.369-4.293 5.395H5.544V8.654zm9.879.005c3.008 0 3.052 2.382 3.052 2.604a2.63 2.63 0 0 1-1.867 2.49c1.946.422 2.254 1.836 2.254 2.587 0 3.006-3.12 3.006-4.12 3.006h-3.78V8.659zM8.631 10.337h-.52v7.275h.912c1.36 0 2.151-1.087 2.151-3.44 0-2.153-.233-3.835-2.543-3.835m9.921 4.529H17.43v2.746h1.109c.468-.002 1.672-.057 1.672-1.372 0-.597-.326-1.374-1.659-1.374m-.315-4.56h-.807v2.581h1.015c.896 0 1.4-.593 1.4-1.293 0-.886-.457-1.288-1.608-1.288" clip-rule="evenodd"/></g><defs><clipPath id="a"><path fill="#fff" d="M0 0h28v28H0z"/></clipPath></defs></svg>