<svg xmlns="http://www.w3.org/2000/svg" width="24" height="24" fill="none"><g clip-path="url(#a)"><path fill="#1A1C1F" fill-rule="evenodd" d="M20 5a2 2 0 0 1 2 2v9.986A2.01 2.01 0 0 1 20 19H4.01A2.01 2.01 0 0 1 2 17V7a2 2 0 0 1 2.01-2zm0 1.42H4.01a.55.55 0 0 0-.55.58v9.986a.55.55 0 0 0 .55.572H20a.55.55 0 0 0 .54-.572V7a.55.55 0 0 0-.54-.58m-11.884.998c2.37 0 3.68 1.484 3.68 4.54.004 2.652-.886 4.602-3.68 4.624H4.752V7.418zm8.468.004c2.578 0 2.616 2.042 2.616 2.232a2.25 2.25 0 0 1-1.6 2.134c1.668.362 1.932 1.574 1.932 2.218 0 2.576-2.674 2.576-3.532 2.576h-3.24v-9.16zM7.398 8.86h-.446v6.236h.782c1.166 0 1.844-.932 1.844-2.948 0-1.846-.2-3.288-2.18-3.288m8.504 3.882h-.962v2.354h.902c.358 0 1.482 0 1.482-1.176 0-.512-.28-1.178-1.422-1.178m-.27-3.908h-.692v2.212h.87c.768 0 1.2-.508 1.2-1.108 0-.76-.392-1.104-1.378-1.104" clip-rule="evenodd"/></g><defs><clipPath id="a"><path fill="#fff" d="M0 0h24v24H0z"/></clipPath></defs></svg>