<svg xmlns="http://www.w3.org/2000/svg" width="20" height="20" fill="none"><g clip-path="url(#a)"><path fill="#1A1C1F" fill-rule="evenodd" d="M16.667 4.167c.92 0 1.666.746 1.666 1.666v8.322a1.675 1.675 0 0 1-1.666 1.678H3.342c-.922 0-1.67-.745-1.675-1.666V5.833a1.667 1.667 0 0 1 1.675-1.666zm0 1.183H3.342a.46.46 0 0 0-.459.483v8.322a.46.46 0 0 0 .459.477h13.325a.46.46 0 0 0 .45-.477V5.833a.46.46 0 0 0-.45-.483m-9.904.832c1.975 0 3.067 1.236 3.067 3.783.003 2.21-.738 3.835-3.067 3.853H3.96V6.182zm7.057.003c2.148 0 2.18 1.702 2.18 1.86a1.88 1.88 0 0 1-1.333 1.778c1.39.302 1.61 1.312 1.61 1.849 0 2.008-1.95 2.137-2.787 2.146h-2.857V6.185zM6.165 7.383h-.372v5.197h.652c.972 0 1.537-.777 1.537-2.457 0-1.538-.167-2.74-1.817-2.74m7.087 3.235h-.802v1.962h.804c.342-.003 1.183-.052 1.183-.98 0-.427-.234-.982-1.185-.982m-.225-3.256h-.577v1.843h.725c.64 0 1-.423 1-.923 0-.634-.327-.92-1.148-.92" clip-rule="evenodd"/></g><defs><clipPath id="a"><path fill="#fff" d="M0 0h20v20H0z"/></clipPath></defs></svg>