<svg xmlns="http://www.w3.org/2000/svg" width="32" height="32" fill="none"><g clip-path="url(#a)"><path fill="#1A1C1F" fill-rule="evenodd" d="M26.667 6.667a2.667 2.667 0 0 1 2.666 2.666v13.315a2.68 2.68 0 0 1-2.666 2.685H5.347a2.68 2.68 0 0 1-2.68-2.666V9.333a2.667 2.667 0 0 1 2.68-2.666zm0 1.893H5.347a.736.736 0 0 0-.734.773v13.315a.736.736 0 0 0 .734.763h21.32a.736.736 0 0 0 .72-.763V9.333a.736.736 0 0 0-.72-.773M10.82 9.89c3.16 0 4.907 1.98 4.907 6.054.005 3.536-1.181 6.136-4.907 6.165H6.336V9.891zm11.291.006c3.437 0 3.488 2.723 3.488 2.976a3 3 0 0 1-2.133 2.845c2.224.483 2.576 2.099 2.576 2.958 0 3.278-3.249 3.427-4.54 3.434h-4.49V9.896zM9.864 11.813h-.595v8.315h1.043c1.555 0 2.459-1.243 2.459-3.93 0-2.462-.267-4.385-2.907-4.385m11.339 5.176H19.92v3.139h1.262c.531-.002 1.917-.06 1.917-1.568 0-.683-.374-1.57-1.896-1.57m-.36-5.21h-.923v2.949h1.16c1.024 0 1.6-.677 1.6-1.477 0-1.014-.523-1.472-1.837-1.472" clip-rule="evenodd"/></g><defs><clipPath id="a"><path fill="#fff" d="M0 0h32v32H0z"/></clipPath></defs></svg>