<svg width="14" height="14" viewBox="0 0 14 14" fill="none" xmlns="http://www.w3.org/2000/svg"><path d="M6.417 3.081 C 5.377 3.210,4.541 3.736,4.176 4.492 C 4.011 4.834,3.978 4.994,3.980 5.460 C 3.981 5.804,3.989 5.897,4.032 6.052 C 4.142 6.452,4.358 6.782,4.670 7.032 C 5.041 7.329,5.397 7.489,6.231 7.735 C 7.549 8.124,7.779 8.218,8.029 8.468 C 8.215 8.655,8.260 8.766,8.260 9.042 C 8.260 9.224,8.256 9.239,8.170 9.372 C 7.820 9.913,6.958 10.065,6.014 9.753 C 5.403 9.550,4.922 9.242,4.445 8.747 C 4.317 8.614,4.170 8.449,4.118 8.381 L 4.025 8.257 4.018 9.034 L 4.012 9.812 4.100 9.889 C 4.149 9.931,4.299 10.039,4.433 10.129 C 5.216 10.652,6.343 10.984,7.171 10.934 C 8.008 10.884,8.720 10.578,9.264 10.034 C 9.761 9.538,10.001 9.012,10.027 8.365 C 10.068 7.317,9.544 6.643,8.395 6.267 C 8.263 6.224,7.890 6.119,7.565 6.033 C 6.783 5.828,6.463 5.730,6.260 5.633 C 6.033 5.524,5.832 5.335,5.736 5.140 C 5.671 5.008,5.661 4.964,5.660 4.798 C 5.659 4.685,5.672 4.575,5.692 4.527 C 5.866 4.098,6.298 3.922,7.012 3.989 C 7.833 4.066,8.593 4.431,9.308 5.094 C 9.442 5.218,9.561 5.320,9.571 5.320 C 9.582 5.320,9.588 5.034,9.585 4.686 L 9.578 4.051 9.345 3.890 C 8.714 3.456,8.040 3.199,7.292 3.106 C 6.992 3.069,6.605 3.058,6.417 3.081 " fill="#1A1C1F" stroke="none" fill-rule="evenodd"></path></svg>