<svg width="14" height="14" viewBox="0 0 14 14" fill="none" xmlns="http://www.w3.org/2000/svg"><path d="M6.405 1.438 C 5.579 1.538,4.863 1.775,4.181 2.172 C 2.879 2.932,1.943 4.172,1.574 5.627 C 1.442 6.147,1.418 6.361,1.418 7.000 C 1.418 7.505,1.425 7.637,1.468 7.875 C 1.598 8.608,1.834 9.260,2.176 9.837 C 2.940 11.121,4.141 12.029,5.584 12.413 C 6.110 12.553,6.348 12.582,6.988 12.583 C 7.490 12.584,7.614 12.577,7.871 12.532 C 10.242 12.120,12.031 10.384,12.505 8.035 C 12.613 7.501,12.614 6.537,12.507 5.990 C 12.365 5.260,12.055 4.498,11.662 3.908 C 10.840 2.673,9.558 1.812,8.104 1.518 C 7.621 1.420,6.850 1.384,6.405 1.438 M7.700 2.868 C 8.695 3.040,9.616 3.570,10.228 4.323 C 11.356 5.712,11.507 7.604,10.610 9.127 C 10.181 9.856,9.604 10.392,8.855 10.757 C 7.652 11.344,6.338 11.344,5.145 10.758 C 4.478 10.430,3.937 9.956,3.521 9.336 C 2.689 8.099,2.578 6.502,3.230 5.168 C 3.872 3.856,5.109 2.992,6.582 2.825 C 6.860 2.794,7.385 2.814,7.700 2.868 M6.260 4.270 C 6.052 4.324,5.758 4.452,5.581 4.565 C 5.412 4.672,5.145 4.947,5.042 5.120 C 4.910 5.340,4.851 5.587,4.850 5.916 C 4.849 6.158,4.857 6.222,4.910 6.382 C 5.034 6.755,5.299 7.044,5.701 7.246 C 5.893 7.342,6.055 7.398,6.988 7.689 C 7.509 7.851,7.772 8.008,7.855 8.207 C 7.897 8.307,7.896 8.572,7.853 8.655 C 7.834 8.691,7.765 8.769,7.700 8.827 C 7.409 9.089,6.894 9.143,6.343 8.969 C 6.122 8.899,5.804 8.745,5.642 8.628 C 5.450 8.490,5.177 8.233,5.036 8.055 L 4.900 7.884 4.900 8.445 L 4.900 9.007 5.042 9.118 C 5.482 9.461,6.160 9.729,6.706 9.776 C 7.509 9.845,8.126 9.640,8.613 9.145 C 9.089 8.660,9.258 8.099,9.108 7.502 C 9.055 7.292,8.949 7.114,8.774 6.937 C 8.497 6.659,8.237 6.536,7.513 6.343 C 6.584 6.094,6.342 5.999,6.192 5.824 C 5.969 5.563,6.012 5.159,6.282 4.978 C 6.414 4.889,6.567 4.853,6.809 4.853 C 7.454 4.854,8.066 5.119,8.641 5.649 C 8.736 5.736,8.821 5.802,8.829 5.794 C 8.837 5.786,8.843 5.588,8.843 5.355 L 8.843 4.932 8.779 4.873 C 8.516 4.630,7.864 4.342,7.388 4.259 C 7.084 4.207,6.480 4.212,6.260 4.270 " fill="#1A1C1F" stroke="none" fill-rule="evenodd"></path></svg>