<svg width="16" height="16" viewBox="0 0 16 16" fill="none" xmlns="http://www.w3.org/2000/svg"><path d="M7.333 3.522 C 6.145 3.668,5.190 4.269,4.772 5.133 C 4.584 5.525,4.546 5.708,4.548 6.240 C 4.550 6.633,4.559 6.740,4.608 6.917 C 4.789 7.571,5.215 8.058,5.907 8.400 C 6.268 8.578,6.478 8.652,7.433 8.934 C 8.666 9.299,8.962 9.430,9.231 9.729 C 9.388 9.903,9.440 10.054,9.440 10.334 C 9.440 10.541,9.435 10.559,9.337 10.711 C 8.937 11.329,7.952 11.503,6.874 11.146 C 6.175 10.914,5.626 10.562,5.080 9.997 C 4.933 9.844,4.765 9.656,4.707 9.578 L 4.600 9.437 4.593 10.325 L 4.585 11.213 4.686 11.301 C 4.741 11.350,4.913 11.474,5.067 11.576 C 5.963 12.175,7.249 12.553,8.196 12.496 C 9.152 12.439,9.965 12.089,10.588 11.468 C 10.993 11.063,11.249 10.631,11.393 10.111 C 11.478 9.805,11.478 9.118,11.392 8.805 C 11.165 7.970,10.548 7.440,9.413 7.106 C 9.245 7.057,8.849 6.948,8.535 6.866 C 7.743 6.658,7.379 6.545,7.154 6.438 C 6.894 6.313,6.665 6.097,6.555 5.873 C 6.477 5.716,6.469 5.676,6.471 5.469 C 6.473 5.131,6.585 4.919,6.849 4.750 C 7.135 4.566,7.481 4.509,8.013 4.559 C 8.486 4.603,8.879 4.713,9.347 4.932 C 9.842 5.164,10.192 5.406,10.644 5.829 C 10.792 5.967,10.923 6.080,10.937 6.080 C 10.951 6.080,10.958 5.777,10.954 5.355 L 10.947 4.630 10.680 4.446 C 9.959 3.950,9.189 3.655,8.333 3.550 C 7.990 3.507,7.549 3.495,7.333 3.522 " fill="#1A1C1F" stroke="none" fill-rule="evenodd"></path></svg>