<svg width="12" height="12" viewBox="0 0 12 12" fill="none" xmlns="http://www.w3.org/2000/svg"><path d="M5.500 2.641 C 4.609 2.751,3.892 3.202,3.579 3.850 C 3.438 4.143,3.410 4.281,3.411 4.680 C 3.412 4.975,3.420 5.055,3.456 5.188 C 3.554 5.542,3.756 5.844,4.037 6.056 C 4.362 6.300,4.644 6.424,5.341 6.630 C 6.470 6.963,6.668 7.044,6.882 7.258 C 7.041 7.418,7.080 7.514,7.080 7.750 C 7.080 7.906,7.076 7.919,7.003 8.033 C 6.703 8.497,5.964 8.627,5.155 8.359 C 4.631 8.186,4.219 7.922,3.810 7.497 C 3.700 7.383,3.574 7.242,3.530 7.184 L 3.450 7.078 3.444 7.744 L 3.439 8.410 3.514 8.476 C 3.556 8.512,3.684 8.605,3.800 8.682 C 4.510 9.157,5.506 9.434,6.247 9.364 C 6.938 9.299,7.491 9.050,7.941 8.601 C 8.245 8.297,8.438 7.971,8.544 7.584 C 8.608 7.351,8.608 6.836,8.544 6.604 C 8.396 6.061,8.028 5.690,7.390 5.441 C 7.280 5.398,7.019 5.317,6.810 5.260 C 6.601 5.204,6.265 5.112,6.064 5.058 C 5.428 4.885,5.228 4.794,5.043 4.592 C 4.905 4.441,4.852 4.304,4.853 4.100 C 4.853 3.912,4.881 3.825,4.980 3.700 C 5.164 3.468,5.513 3.372,6.010 3.419 C 6.718 3.485,7.374 3.803,7.986 4.375 C 8.095 4.477,8.192 4.560,8.202 4.560 C 8.213 4.560,8.218 4.333,8.215 4.016 L 8.210 3.472 8.010 3.335 C 7.465 2.960,6.883 2.738,6.240 2.662 C 5.970 2.630,5.662 2.621,5.500 2.641 " fill="#1A1C1F" stroke="none" fill-rule="evenodd"></path></svg>