<svg width="32" height="32" viewBox="0 0 32 32" fill="none" xmlns="http://www.w3.org/2000/svg"><path d="M13.987 2.161 C 12.398 2.409,11.123 2.813,9.733 3.506 C 6.889 4.925,4.531 7.371,3.253 10.229 C 2.674 11.524,2.229 13.164,2.078 14.560 C 2.000 15.279,2.000 16.721,2.078 17.440 C 2.275 19.259,2.901 21.243,3.768 22.796 C 5.945 26.696,9.820 29.310,14.293 29.897 C 15.117 30.005,17.204 29.975,18.080 29.843 C 20.062 29.544,22.254 28.686,23.840 27.587 C 24.910 26.846,26.184 25.669,26.947 24.717 C 28.568 22.695,29.640 20.058,29.923 17.400 C 30.005 16.631,29.959 14.674,29.842 13.947 C 29.332 10.776,27.993 8.173,25.754 5.997 C 24.650 4.924,23.558 4.152,22.183 3.470 C 20.834 2.801,19.355 2.339,17.984 2.159 C 17.219 2.059,14.634 2.060,13.987 2.161 M18.053 4.183 C 20.874 4.703,23.394 6.168,25.217 8.347 C 26.387 9.745,27.299 11.617,27.705 13.452 C 27.910 14.383,27.943 14.739,27.943 16.000 C 27.943 17.261,27.910 17.617,27.705 18.548 C 26.959 21.922,24.785 24.841,21.787 26.492 C 20.382 27.266,18.721 27.784,17.128 27.944 C 14.255 28.234,11.209 27.372,8.808 25.591 C 8.131 25.089,6.846 23.792,6.351 23.112 C 5.134 21.441,4.370 19.514,4.104 17.440 C 4.019 16.783,4.019 15.267,4.102 14.587 C 4.450 11.768,5.676 9.322,7.739 7.332 C 8.665 6.438,9.556 5.822,10.780 5.230 C 11.947 4.665,12.974 4.342,14.267 4.135 C 14.938 4.027,17.376 4.058,18.053 4.183 M14.672 8.060 C 13.788 8.162,12.691 8.556,11.940 9.040 C 11.160 9.542,10.419 10.445,10.109 11.270 C 9.683 12.400,9.746 13.799,10.270 14.868 C 10.511 15.359,11.207 16.078,11.797 16.445 C 12.494 16.879,13.105 17.105,15.493 17.812 C 16.923 18.235,17.590 18.524,18.014 18.906 C 18.864 19.670,18.759 20.794,17.779 21.420 C 17.091 21.861,16.061 22.021,15.040 21.845 C 13.230 21.533,11.601 20.567,10.389 19.086 L 9.947 18.546 9.931 20.113 L 9.916 21.680 10.145 21.887 C 10.535 22.239,11.138 22.616,11.863 22.962 C 13.568 23.774,15.064 24.081,16.686 23.951 C 18.604 23.797,20.297 22.831,21.318 21.307 C 21.990 20.303,22.240 19.318,22.132 18.096 C 22.050 17.156,21.745 16.477,21.120 15.839 C 20.710 15.421,20.439 15.230,19.804 14.910 C 19.201 14.607,18.664 14.429,17.142 14.033 C 14.470 13.336,13.895 13.065,13.494 12.314 C 13.267 11.888,13.213 11.338,13.360 10.954 C 13.672 10.135,14.674 9.727,16.012 9.872 C 17.769 10.063,19.322 10.835,20.807 12.254 L 21.227 12.654 21.227 11.320 L 21.227 9.985 20.653 9.611 C 19.228 8.682,17.893 8.211,16.240 8.055 C 15.577 7.993,15.240 7.994,14.672 8.060 " fill="#1A1C1F" stroke="none" fill-rule="evenodd"></path></svg>