<svg xmlns="http://www.w3.org/2000/svg" width="28" height="28" fill="none"><g clip-path="url(#a)"><path fill="#1A1C1F" fill-rule="evenodd" d="M19.527 10.509c-1.443-1.61-3.616-3.026-6.165-3.026-1.442 0-2.266.795-2.266 1.726 0 3.918 9.424 1.164 9.424 7.602 0 2.6-2.436 5.627-6.538 5.627-2.287 0-4.93-1.068-6.37-2.407v-3.374c1.366 2.037 3.858 3.607 6.37 3.607 1.536 0 2.772-.91 2.772-1.881 0-3.665-9.274-1.396-9.274-7.72 0-3.316 3.128-5.1 5.939-5.1a9.66 9.66 0 0 1 6.107 2.134z" clip-rule="evenodd"/></g><defs><clipPath id="a"><path fill="#fff" d="M0 0h28v28H0z"/></clipPath></defs></svg>