<svg xmlns="http://www.w3.org/2000/svg" width="14" height="14" fill="none"><g clip-path="url(#a)"><path fill="#1A1C1F" fill-rule="evenodd" d="M6.728 3.063c-1.31 0-2.771.833-2.771 2.38 0 1.377.942 1.881 1.948 2.2.43.134.68.195 1.258.364.641.206 1.121.468 1.121 1.038 0 .453-.576.878-1.293.878-1.113 0-2.308-.676-2.973-1.683v1.575c.673.624 1.906 1.123 2.973 1.123 1.914 0 3.052-1.412 3.052-2.625 0-1.337-.87-1.825-1.835-2.114a57 57 0 0 0-1.155-.297c-.781-.2-1.409-.448-1.409-1.138 0-.434.385-.805 1.058-.805 1.12 0 2.2.614 2.877 1.411V4.06a4.5 4.5 0 0 0-2.85-.996" clip-rule="evenodd"/></g><defs><clipPath id="a"><path fill="#fff" d="M0 0h14v14H0z"/></clipPath></defs></svg>