<svg xmlns="http://www.w3.org/2000/svg" width="16" height="16" fill="none"><g clip-path="url(#a)"><path fill="#1A1C1F" fill-rule="evenodd" d="M8 1.6a6.4 6.4 0 1 1 0 12.8A6.4 6.4 0 0 1 8 1.6m0 1.6a4.8 4.8 0 1 0 0 9.6 4.8 4.8 0 0 0 0-9.6m-.22 1.6c.888 0 1.684.302 2.316.81v1.066c-.547-.61-1.371-1.148-2.338-1.148-.547 0-.86.302-.86.655 0 .508.419.72.97.878l.817.205c.894.23 1.788.58 1.788 1.8 0 .986-.924 2.134-2.48 2.134-.867 0-1.846-.405-2.393-.912v-1.28c.519.772 1.44 1.368 2.393 1.368.583 0 1.051-.346 1.051-.714 0-.488-.434-.699-.997-.87l-.69-.195c-.902-.259-1.83-.63-1.83-1.862C5.527 5.477 6.714 4.8 7.78 4.8" clip-rule="evenodd"/></g><defs><clipPath id="a"><path fill="#fff" d="M0 0h16v16H0z"/></clipPath></defs></svg>