<svg xmlns="http://www.w3.org/2000/svg" width="32" height="32" fill="none"><g clip-path="url(#a)"><path fill="#1A1C1F" fill-rule="evenodd" d="M16 2c7.732 0 14 6.268 14 14s-6.268 14-14 14C8.372 30 2.17 23.9 2.003 16.313L2 16l.003-.312C2.17 8.1 8.373 2 16 2m0 2C9.474 4 4.166 9.208 4.004 15.695L4 16l.004.305C4.166 22.792 9.474 28 16 28c6.627 0 12-5.373 12-12S22.628 4 16 4m-.551 4c2.22 0 4.21.754 5.792 2.023v2.667c-1.369-1.527-3.43-2.87-5.846-2.87-1.367 0-2.15.755-2.15 1.638 0 1.176.897 1.718 2.122 2.103.794.246 1.353.351 2.57.663 2.157.576 4.245 1.49 4.245 4.441 0 2.466-2.31 5.335-6.2 5.335-2.167 0-4.672-1.012-6.04-2.28v-3.201c1.297 1.93 3.66 3.42 6.04 3.42 1.457 0 2.63-.863 2.63-1.783 0-1.178-1.011-1.71-2.347-2.131-.899-.27-1.25-.368-2.162-.617-2.16-.646-4.285-1.624-4.285-4.571C9.818 9.692 12.784 8 15.448 8" clip-rule="evenodd"/></g><defs><clipPath id="a"><path fill="#fff" d="M0 0h32v32H0z"/></clipPath></defs></svg>