<svg width="20" height="20" viewBox="0 0 20 20" fill="none" xmlns="http://www.w3.org/2000/svg"><path d="M9.150 2.054 C 8.242 2.164,7.478 2.373,6.709 2.724 C 4.470 3.746,2.847 5.680,2.249 8.039 C 2.060 8.782,2.025 9.088,2.025 10.000 C 2.025 10.934,2.065 11.262,2.267 12.023 C 2.734 13.778,3.762 15.312,5.189 16.387 C 6.199 17.147,7.422 17.668,8.750 17.903 C 9.333 18.006,10.667 18.006,11.250 17.903 C 12.960 17.600,14.481 16.824,15.633 15.667 C 16.284 15.014,16.745 14.370,17.150 13.550 C 17.454 12.935,17.601 12.536,17.767 11.886 C 17.939 11.206,17.978 10.852,17.976 9.950 C 17.974 9.138,17.941 8.836,17.784 8.179 C 17.578 7.320,17.136 6.293,16.673 5.600 C 15.479 3.814,13.663 2.591,11.578 2.168 C 10.891 2.029,9.788 1.978,9.150 2.054 M11.000 4.097 C 12.420 4.342,13.737 5.100,14.611 6.176 C 16.305 8.262,16.448 11.111,14.971 13.335 C 14.380 14.223,13.607 14.901,12.650 15.368 C 11.197 16.076,9.681 16.187,8.142 15.696 C 5.027 14.703,3.283 11.275,4.304 8.150 C 4.723 6.868,5.563 5.757,6.665 5.028 C 7.966 4.168,9.498 3.839,11.000 4.097 M8.943 6.100 C 8.646 6.178,8.226 6.360,7.973 6.521 C 7.731 6.675,7.350 7.067,7.202 7.315 C 7.015 7.629,6.930 7.982,6.928 8.451 C 6.927 8.797,6.939 8.888,7.015 9.118 C 7.191 9.650,7.570 10.063,8.145 10.352 C 8.419 10.490,8.691 10.583,9.983 10.985 C 10.719 11.214,10.990 11.360,11.164 11.622 C 11.256 11.762,11.267 11.804,11.267 12.031 C 11.266 12.310,11.228 12.401,11.031 12.593 C 10.813 12.804,10.347 12.965,9.946 12.966 C 9.395 12.968,8.558 12.684,8.060 12.326 C 7.785 12.129,7.396 11.761,7.195 11.508 L 7.000 11.262 7.000 12.064 L 7.000 12.866 7.192 13.017 C 7.591 13.333,8.083 13.583,8.689 13.778 C 9.210 13.946,9.419 13.977,10.017 13.976 C 10.465 13.975,10.595 13.963,10.833 13.899 C 11.469 13.728,11.883 13.493,12.304 13.064 C 12.985 12.371,13.226 11.570,13.011 10.717 C 12.936 10.418,12.785 10.162,12.534 9.910 C 12.139 9.513,11.767 9.338,10.733 9.061 C 9.405 8.705,9.060 8.570,8.846 8.320 C 8.619 8.055,8.577 7.642,8.747 7.353 C 8.911 7.072,9.232 6.933,9.716 6.933 C 10.650 6.934,11.519 7.310,12.344 8.069 C 12.480 8.195,12.601 8.288,12.612 8.277 C 12.624 8.265,12.633 7.983,12.633 7.651 L 12.633 7.046 12.542 6.961 C 12.165 6.614,11.235 6.203,10.554 6.085 C 10.121 6.009,9.258 6.018,8.943 6.100 " fill="#1A1C1F" stroke="none" fill-rule="evenodd"></path></svg>