<svg width="28" height="28" viewBox="0 0 28 28" fill="none" xmlns="http://www.w3.org/2000/svg"><path d="M12.250 5.675 C 11.199 5.863,10.285 6.243,9.473 6.828 C 9.090 7.104,8.354 7.880,8.154 8.219 C 7.946 8.572,7.725 9.126,7.602 9.608 C 7.534 9.874,7.513 10.118,7.514 10.659 C 7.515 12.080,7.842 12.939,8.707 13.794 C 9.528 14.607,10.454 15.036,12.911 15.746 C 14.420 16.182,14.984 16.378,15.517 16.651 C 16.016 16.906,16.391 17.259,16.579 17.649 C 16.688 17.875,16.707 17.974,16.707 18.315 C 16.707 18.656,16.688 18.753,16.584 18.958 C 16.333 19.454,15.741 19.883,14.980 20.121 C 14.674 20.216,14.539 20.230,13.907 20.228 C 13.415 20.226,13.051 20.199,12.771 20.144 C 10.954 19.784,9.143 18.632,7.927 17.064 L 7.607 16.651 7.607 18.336 L 7.607 20.021 7.758 20.161 C 7.842 20.237,8.088 20.423,8.307 20.573 C 10.165 21.856,12.704 22.592,14.622 22.406 C 16.325 22.241,17.640 21.664,18.777 20.584 C 19.880 19.534,20.500 18.176,20.503 16.800 C 20.506 15.491,20.155 14.563,19.355 13.768 C 18.945 13.360,18.550 13.092,17.912 12.788 C 17.252 12.474,16.835 12.341,15.047 11.881 C 13.357 11.446,12.848 11.283,12.320 11.010 C 11.802 10.741,11.516 10.470,11.307 10.047 C 11.143 9.715,11.132 9.665,11.133 9.268 C 11.134 8.909,11.153 8.802,11.257 8.577 C 11.494 8.063,11.970 7.723,12.663 7.575 C 13.073 7.487,14.149 7.516,14.741 7.630 C 16.212 7.915,17.966 8.913,19.200 10.168 C 19.352 10.322,19.493 10.438,19.515 10.425 C 19.536 10.412,19.553 9.794,19.553 9.052 L 19.553 7.703 19.075 7.371 C 17.706 6.422,16.311 5.875,14.754 5.674 C 14.040 5.582,12.766 5.583,12.250 5.675 " fill="#1A1C1F" stroke="none" fill-rule="evenodd"></path></svg>