<svg width="12" height="12" viewBox="0 0 12 12" fill="none" xmlns="http://www.w3.org/2000/svg"><path d="M5.490 1.232 C 4.127 1.394,2.949 2.068,2.149 3.143 C 1.462 4.066,1.140 5.173,1.218 6.344 C 1.329 8.011,2.332 9.519,3.830 10.274 C 4.618 10.672,5.437 10.838,6.325 10.783 C 7.851 10.687,9.256 9.841,10.081 8.520 C 10.213 8.308,10.413 7.894,10.511 7.630 C 10.608 7.367,10.730 6.881,10.761 6.630 C 10.798 6.334,10.792 5.557,10.752 5.310 C 10.580 4.266,10.110 3.330,9.400 2.620 C 8.725 1.947,7.875 1.489,6.947 1.301 C 6.535 1.218,5.873 1.186,5.490 1.232 M6.600 2.458 C 7.452 2.605,8.242 3.060,8.767 3.705 C 9.783 4.957,9.869 6.666,8.982 8.001 C 8.628 8.534,8.164 8.941,7.590 9.221 C 6.712 9.649,5.774 9.714,4.864 9.409 C 3.935 9.099,3.178 8.431,2.760 7.555 C 2.230 6.443,2.301 5.149,2.950 4.101 C 3.263 3.596,3.659 3.210,4.179 2.904 C 4.911 2.473,5.769 2.315,6.600 2.458 M5.366 3.660 C 5.188 3.707,4.936 3.816,4.784 3.913 C 4.639 4.005,4.410 4.240,4.321 4.389 C 4.209 4.578,4.158 4.789,4.157 5.071 C 4.156 5.278,4.163 5.333,4.209 5.471 C 4.315 5.790,4.542 6.038,4.887 6.211 C 5.051 6.294,5.190 6.341,5.990 6.590 C 6.327 6.695,6.515 6.785,6.629 6.895 C 6.731 6.994,6.760 7.070,6.760 7.236 C 6.760 7.353,6.752 7.386,6.705 7.455 C 6.592 7.623,6.410 7.720,6.126 7.764 C 5.768 7.820,5.206 7.659,4.832 7.393 C 4.673 7.280,4.438 7.056,4.317 6.905 L 4.200 6.757 4.200 7.238 L 4.200 7.719 4.315 7.810 C 4.555 8.000,4.850 8.150,5.214 8.267 C 5.522 8.366,5.648 8.385,6.012 8.384 C 6.281 8.384,6.361 8.376,6.502 8.339 C 6.879 8.238,7.126 8.097,7.382 7.839 C 7.789 7.428,7.936 6.942,7.807 6.430 C 7.762 6.251,7.671 6.097,7.520 5.946 C 7.283 5.708,7.060 5.603,6.440 5.437 C 5.643 5.223,5.436 5.142,5.308 4.992 C 5.172 4.833,5.146 4.585,5.248 4.412 C 5.347 4.243,5.539 4.160,5.829 4.160 C 6.390 4.160,6.912 4.386,7.406 4.842 C 7.488 4.917,7.560 4.973,7.567 4.966 C 7.574 4.959,7.580 4.790,7.580 4.590 L 7.580 4.227 7.525 4.177 C 7.299 3.968,6.741 3.722,6.332 3.651 C 6.072 3.606,5.555 3.611,5.366 3.660 " fill="#1A1C1F" stroke="none" fill-rule="evenodd"></path></svg>