<svg xmlns="http://www.w3.org/2000/svg" width="16" height="16" fill="none"><g clip-path="url(#a)"><path fill="#1A1C1F" fill-rule="evenodd" d="M7.69 3.5c-1.499 0-3.168.952-3.168 2.72 0 1.574 1.077 2.15 2.227 2.515.492.153.776.223 1.437.416.733.235 1.282.535 1.282 1.187 0 .517-.66 1.003-1.478 1.003-1.272 0-2.638-.773-3.398-1.924v1.8c.77.713 2.178 1.283 3.398 1.283 2.188 0 3.487-1.614 3.487-3 0-1.527-.993-2.085-2.096-2.416q-.66-.176-1.32-.338c-.893-.23-1.61-.512-1.61-1.301 0-.496.44-.92 1.208-.92 1.28 0 2.515.701 3.288 1.613v-1.5A5.16 5.16 0 0 0 7.69 3.5" clip-rule="evenodd"/></g><defs><clipPath id="a"><path fill="#fff" d="M0 0h16v16H0z"/></clipPath></defs></svg>