<svg xmlns="http://www.w3.org/2000/svg" width="14" height="14" fill="none"><g clip-path="url(#a)"><path fill="#1A1C1F" fill-rule="evenodd" d="M7 1.4a5.6 5.6 0 1 1 0 11.2A5.6 5.6 0 0 1 7 1.4m0 1.4a4.2 4.2 0 1 0 0 8.4 4.2 4.2 0 0 0 0-8.4m-.193 1.4c.777 0 1.474.264 2.027.708v.933c-.479-.534-1.2-1.004-2.046-1.004-.478 0-.752.264-.752.573 0 .445.366.63.848.768l.716.18c.782.201 1.564.507 1.564 1.575 0 .863-.809 1.867-2.17 1.867-.759 0-1.615-.354-2.094-.798v-1.12c.454.675 1.26 1.197 2.094 1.197.51 0 .92-.302.92-.625 0-.427-.38-.611-.873-.761l-.603-.17c-.79-.227-1.602-.553-1.602-1.63 0-1.1 1.039-1.693 1.971-1.693" clip-rule="evenodd"/></g><defs><clipPath id="a"><path fill="#fff" d="M0 0h14v14H0z"/></clipPath></defs></svg>