<svg xmlns="http://www.w3.org/2000/svg" width="32" height="32" fill="none"><path fill="#1A1C1F" fill-rule="evenodd" d="m14.747 2.058-.8.107c-.352.047-1 .177-1.44.288C8.54 3.46 5.149 6.245 3.383 9.945a13.96 13.96 0 0 0 0 12.11c2.075 4.347 6.296 7.333 11.124 7.868 1.274.142 3.098.049 4.368-.222a14.08 14.08 0 0 0 9.085-6.427c2.032-3.309 2.568-7.401 1.471-11.221-1.347-4.686-5.269-8.453-10.018-9.62-1.221-.3-1.74-.362-3.2-.38-.718-.009-1.378-.007-1.466.005m3.013 2.077a11.5 11.5 0 0 1 3.498 1.095c3.579 1.747 6.006 5.072 6.617 9.063.129.846.129 2.568 0 3.414-.612 3.992-3.035 7.313-6.622 9.071a11.93 11.93 0 0 1-10.506 0c-4.913-2.406-7.555-7.74-6.504-13.131.531-2.723 2.065-5.246 4.258-7.006 1.694-1.359 3.837-2.27 5.952-2.531.789-.097.861-.1 1.814-.08.513.011 1.185.058 1.493.105m-3.173 3.926c-.975.124-2.186.604-2.908 1.153-.924.702-1.548 1.653-1.76 2.683-.223 1.079-.058 2.28.429 3.13.228.397.81.995 1.274 1.308.747.504 1.427.77 3.429 1.34.771.22 1.617.486 1.88.592 1.067.43 1.574.949 1.662 1.702.125 1.06-1.081 1.951-2.639 1.951-2.066 0-4.23-1.123-5.652-2.931l-.355-.452-.016 1.572-.015 1.571.229.208c.888.808 2.604 1.599 4.201 1.938.577.123.797.142 1.627.144 1.047.003 1.447-.057 2.291-.342 1.822-.616 3.208-2.013 3.745-3.773.123-.404.143-.567.147-1.188.005-.872-.095-1.359-.406-1.981-.386-.771-1.056-1.374-2.037-1.834-.664-.311-1.105-.45-2.717-.857-2.521-.637-3.166-.954-3.558-1.75-.213-.433-.236-1.01-.056-1.383.351-.724 1.24-1.106 2.378-1.022a7 7 0 0 1 2.627.693c.886.419 1.623.944 2.426 1.728l.414.403V10l-.455-.32a9.2 9.2 0 0 0-3.225-1.433c-1.044-.231-2.092-.297-2.96-.186"/></svg>