<svg width="20" height="20" viewBox="0 0 20 20" fill="none" xmlns="http://www.w3.org/2000/svg"><path d="M9.167 4.404 C 7.703 4.572,6.487 5.337,5.966 6.417 C 5.729 6.906,5.683 7.135,5.686 7.800 C 5.689 8.287,5.701 8.427,5.761 8.650 C 6.008 9.562,6.659 10.222,7.753 10.670 C 7.935 10.744,8.436 10.910,8.867 11.038 C 10.824 11.622,11.113 11.739,11.469 12.097 C 11.736 12.364,11.800 12.523,11.800 12.917 C 11.800 13.177,11.794 13.199,11.671 13.389 C 11.170 14.164,9.944 14.380,8.592 13.932 C 7.718 13.643,7.032 13.203,6.350 12.496 C 6.166 12.306,5.956 12.070,5.883 11.973 L 5.750 11.796 5.741 12.906 L 5.731 14.017 5.857 14.127 C 5.927 14.187,6.141 14.342,6.333 14.470 C 7.453 15.218,9.061 15.691,10.244 15.620 C 11.440 15.549,12.457 15.112,13.235 14.334 C 13.741 13.829,14.062 13.288,14.241 12.639 C 14.299 12.429,14.312 12.286,14.314 11.833 C 14.316 11.359,14.306 11.245,14.240 11.003 C 14.064 10.358,13.723 9.886,13.157 9.505 C 12.682 9.185,12.274 9.018,11.350 8.767 C 11.002 8.673,10.440 8.520,10.103 8.429 C 9.061 8.146,8.726 7.994,8.420 7.666 C 8.177 7.407,8.086 7.179,8.089 6.833 C 8.092 6.414,8.232 6.148,8.561 5.937 C 8.919 5.707,9.351 5.637,10.017 5.699 C 10.608 5.754,11.099 5.891,11.683 6.165 C 12.302 6.455,12.740 6.758,13.305 7.286 C 13.489 7.459,13.654 7.600,13.671 7.600 C 13.688 7.600,13.697 7.222,13.692 6.693 L 13.683 5.786 13.300 5.524 C 12.335 4.865,11.324 4.516,10.050 4.400 C 9.637 4.363,9.523 4.363,9.167 4.404 " fill="#1A1C1F" stroke="none" fill-rule="evenodd"></path></svg>