<svg xmlns="http://www.w3.org/2000/svg" width="20" height="20" fill="none"><g clip-path="url(#a)"><path fill="#1A1C1F" fill-rule="evenodd" d="M9.612 4.375c-1.873 0-3.96 1.19-3.96 3.4 0 1.968 1.347 2.688 2.784 3.144.615.191.97.278 1.797.52.916.294 1.602.668 1.602 1.483 0 .647-.824 1.254-1.848 1.254-1.59 0-3.297-.966-4.247-2.405v2.25c.962.892 2.723 1.604 4.247 1.604 2.735 0 4.36-2.017 4.36-3.75 0-1.909-1.242-2.606-2.621-3.02a82 82 0 0 0-1.65-.423c-1.116-.287-2.013-.64-2.013-1.626 0-.62.55-1.15 1.51-1.15 1.601 0 3.145.877 4.111 2.016V5.798a6.45 6.45 0 0 0-4.072-1.423" clip-rule="evenodd"/></g><defs><clipPath id="a"><path fill="#fff" d="M0 0h20v20H0z"/></clipPath></defs></svg>