<svg xmlns="http://www.w3.org/2000/svg" width="32" height="32" fill="none"><path fill="#1A1C1F" fill-rule="evenodd" d="M14.538 6.402c-1.806.206-3.372.929-4.461 2.06-.25.259-.532.585-.628.724-.284.414-.586 1.099-.736 1.667-.121.46-.141.644-.142 1.334-.004 1.547.382 2.578 1.318 3.525.965.976 2.148 1.529 4.906 2.293 2.843.787 3.7 1.23 4.15 2.144.152.309.174.406.174.782.001.363-.022.476-.149.734-.306.624-1.085 1.151-2.039 1.38-.903.216-2.37.07-3.544-.353-1.697-.612-3.37-1.866-4.456-3.341l-.238-.323v3.855l.194.172c.475.423 1.182.874 2.02 1.292 3.077 1.532 6.199 1.706 8.706.484 2.513-1.225 4.072-3.769 3.81-6.218-.135-1.257-.49-2.069-1.236-2.829-.447-.454-.848-.742-1.473-1.057-.902-.454-1.482-.644-3.514-1.15a58 58 0 0 1-1.816-.476c-1.805-.544-2.599-1.248-2.676-2.373-.081-1.178.74-1.999 2.133-2.133.513-.05 1.442.008 2.039.127 1.687.336 3.603 1.419 4.985 2.821.22.222.418.404.44.404s.042-.707.042-1.571V8.805l-.52-.369c-1.859-1.318-3.824-1.976-6.148-2.057a10 10 0 0 0-1.141.023"/></svg>