<svg xmlns="http://www.w3.org/2000/svg" width="12" height="12" fill="none"><g clip-path="url(#a)"><path fill="#1A1C1F" fill-rule="evenodd" d="M5.767 2.625c-1.124 0-2.375.714-2.375 2.04 0 1.18.807 1.613 1.67 1.886.369.115.582.167 1.078.312.55.177.96.401.96.89 0 .388-.493.753-1.108.753-.954 0-1.978-.58-2.548-1.443v1.35c.577.535 1.634.962 2.548.962 1.641 0 2.616-1.21 2.616-2.25 0-1.145-.745-1.564-1.572-1.812q-.495-.132-.99-.254c-.67-.172-1.208-.384-1.208-.975 0-.372.33-.69.906-.69.96 0 1.887.526 2.466 1.21V3.478a3.87 3.87 0 0 0-2.443-.854" clip-rule="evenodd"/></g><defs><clipPath id="a"><path fill="#fff" d="M0 0h12v12H0z"/></clipPath></defs></svg>