<svg width="24" height="24" viewBox="0 0 24 24" fill="none" xmlns="http://www.w3.org/2000/svg"><path d="M11.120 2.043 C 9.236 2.224,7.464 2.913,5.940 4.058 C 5.405 4.460,4.639 5.202,4.225 5.720 C 1.983 8.524,1.395 12.227,2.662 15.569 C 2.994 16.443,3.621 17.542,4.175 18.220 C 4.500 18.617,5.239 19.362,5.645 19.701 C 7.056 20.880,8.717 21.613,10.640 21.907 C 11.219 21.996,12.721 22.007,13.260 21.926 C 15.009 21.665,16.470 21.080,17.900 20.068 C 18.473 19.662,19.686 18.442,20.097 17.858 C 21.421 15.975,22.064 13.880,21.987 11.700 C 21.944 10.520,21.750 9.544,21.343 8.464 C 20.080 5.115,17.043 2.650,13.553 2.142 C 12.697 2.017,11.782 1.980,11.120 2.043 M13.188 4.102 C 15.406 4.433,17.400 5.703,18.647 7.580 C 18.986 8.089,19.402 8.949,19.592 9.531 C 20.578 12.545,19.680 15.849,17.300 17.969 C 16.163 18.982,14.785 19.636,13.220 19.907 C 12.662 20.004,11.293 20.003,10.760 19.906 C 8.465 19.487,6.587 18.278,5.356 16.424 C 3.376 13.445,3.600 9.600,5.916 6.834 C 7.303 5.176,9.209 4.220,11.520 4.024 C 11.836 3.997,12.782 4.041,13.188 4.102 M10.996 6.561 C 10.094 6.656,9.014 7.206,8.494 7.836 C 8.251 8.130,7.963 8.664,7.854 9.020 C 7.754 9.348,7.753 10.305,7.852 10.675 C 8.056 11.433,8.620 12.067,9.469 12.494 C 9.895 12.709,10.188 12.812,11.360 13.160 C 13.213 13.709,13.570 13.925,13.743 14.599 C 13.842 14.984,13.749 15.250,13.403 15.574 C 12.937 16.009,12.222 16.164,11.338 16.021 C 10.106 15.821,8.895 15.077,8.026 13.986 L 7.840 13.753 7.840 14.853 L 7.840 15.953 7.990 16.072 C 8.763 16.681,9.916 17.193,10.972 17.397 C 11.554 17.509,12.471 17.511,12.960 17.403 C 14.664 17.023,15.933 15.828,16.190 14.361 C 16.358 13.401,16.103 12.478,15.503 11.868 C 14.964 11.321,14.409 11.076,12.674 10.620 C 11.168 10.224,10.778 10.062,10.438 9.690 C 9.911 9.114,10.077 8.255,10.778 7.925 C 11.271 7.693,12.116 7.722,13.014 8.001 C 13.776 8.237,14.659 8.787,15.351 9.457 L 15.602 9.699 15.591 8.781 L 15.580 7.863 15.240 7.632 C 14.553 7.165,13.562 6.750,12.826 6.622 C 12.400 6.548,11.431 6.516,10.996 6.561 " fill="#1A1C1F" stroke="none" fill-rule="evenodd"></path></svg>