<svg width="16" height="16" viewBox="0 0 16 16" fill="none" xmlns="http://www.w3.org/2000/svg"><path d="M7.440 1.630 C 6.332 1.745,5.386 2.075,4.494 2.659 C 2.989 3.644,2.005 5.161,1.677 7.000 C 1.594 7.467,1.594 8.533,1.677 9.000 C 1.926 10.396,2.521 11.558,3.480 12.520 C 4.423 13.466,5.614 14.076,7.000 14.323 C 7.268 14.370,7.428 14.380,7.987 14.381 C 8.560 14.382,8.701 14.374,8.996 14.322 C 11.121 13.953,12.854 12.658,13.762 10.760 C 13.968 10.330,14.091 9.989,14.213 9.508 C 14.351 8.966,14.381 8.684,14.379 7.947 C 14.377 7.288,14.344 6.991,14.211 6.472 C 14.042 5.808,13.695 5.017,13.338 4.480 C 12.389 3.055,10.930 2.073,9.260 1.734 C 8.778 1.637,7.875 1.585,7.440 1.630 M8.413 3.228 C 9.239 3.306,9.977 3.566,10.668 4.023 C 11.201 4.375,11.614 4.788,11.976 5.332 C 13.004 6.876,13.062 8.841,12.126 10.431 C 11.636 11.264,10.975 11.877,10.120 12.294 C 8.950 12.865,7.700 12.952,6.485 12.546 C 5.478 12.210,4.617 11.553,4.023 10.670 C 3.078 9.264,2.948 7.460,3.681 5.925 C 4.532 4.140,6.457 3.043,8.413 3.228 M7.154 4.880 C 6.917 4.942,6.581 5.088,6.379 5.217 C 6.185 5.340,5.880 5.654,5.762 5.852 C 5.612 6.103,5.544 6.385,5.542 6.761 C 5.542 7.038,5.551 7.111,5.612 7.294 C 5.753 7.720,6.056 8.051,6.516 8.281 C 6.735 8.391,6.920 8.455,7.987 8.787 C 8.582 8.973,8.882 9.152,8.977 9.379 C 9.025 9.494,9.024 9.796,8.974 9.891 C 8.911 10.014,8.676 10.206,8.515 10.266 C 8.265 10.360,8.004 10.388,7.720 10.352 C 6.973 10.258,6.264 9.844,5.755 9.205 L 5.600 9.010 5.600 9.651 L 5.600 10.293 5.753 10.414 C 6.073 10.666,6.466 10.866,6.952 11.023 C 7.366 11.156,7.533 11.181,8.016 11.179 C 8.374 11.178,8.482 11.168,8.669 11.118 C 9.162 10.986,9.492 10.801,9.827 10.469 C 10.260 10.040,10.461 9.594,10.464 9.053 C 10.468 8.511,10.294 8.134,9.883 7.793 C 9.606 7.563,9.295 7.435,8.497 7.224 C 7.522 6.965,7.248 6.856,7.077 6.656 C 6.895 6.444,6.861 6.114,6.997 5.882 C 7.128 5.659,7.386 5.547,7.764 5.547 C 8.521 5.547,9.211 5.844,9.875 6.456 C 9.984 6.556,10.081 6.630,10.090 6.621 C 10.099 6.612,10.107 6.387,10.107 6.121 L 10.107 5.637 10.033 5.569 C 9.732 5.291,8.988 4.963,8.443 4.868 C 8.096 4.808,7.406 4.814,7.154 4.880 " fill="#1A1C1F" stroke="none" fill-rule="evenodd"></path></svg>