<svg width="28" height="28" viewBox="0 0 28 28" fill="none" xmlns="http://www.w3.org/2000/svg"><path d="M12.239 1.891 C 12.028 1.924,11.639 1.997,11.376 2.053 C 7.659 2.848,4.396 5.487,2.847 8.951 C 2.340 10.084,1.950 11.518,1.818 12.740 C 1.750 13.369,1.750 14.631,1.818 15.260 C 1.991 16.852,2.538 18.588,3.297 19.946 C 5.202 23.359,8.593 25.646,12.507 26.160 C 13.224 26.254,15.051 26.229,15.820 26.114 C 17.543 25.856,19.471 25.101,20.860 24.138 C 21.796 23.490,22.911 22.460,23.579 21.627 C 24.997 19.858,25.935 17.551,26.183 15.225 C 26.255 14.552,26.214 12.840,26.112 12.203 C 25.666 9.429,24.494 7.151,22.535 5.247 C 21.568 4.309,20.613 3.633,19.410 3.036 C 18.229 2.451,16.936 2.047,15.736 1.889 C 15.066 1.801,12.805 1.802,12.239 1.891 M14.817 3.569 C 17.460 3.682,20.228 5.108,22.065 7.303 C 23.089 8.526,23.887 10.165,24.241 11.771 C 24.421 12.585,24.450 12.897,24.450 14.000 C 24.450 15.103,24.421 15.415,24.241 16.229 C 23.907 17.745,23.157 19.335,22.223 20.510 C 21.658 21.220,20.786 22.044,20.032 22.579 C 18.330 23.788,16.094 24.500,14.000 24.500 C 12.179 24.500,10.228 23.959,8.641 23.014 C 7.347 22.244,6.113 21.073,5.286 19.833 C 4.379 18.474,3.805 16.923,3.591 15.260 C 3.517 14.685,3.516 13.358,3.590 12.763 C 3.893 10.297,4.966 8.157,6.772 6.415 C 7.546 5.668,8.291 5.143,9.287 4.644 C 10.796 3.888,12.549 3.467,13.930 3.530 C 14.110 3.538,14.509 3.555,14.817 3.569 M12.838 7.052 C 12.064 7.142,11.104 7.486,10.447 7.910 C 9.765 8.350,9.117 9.140,8.845 9.861 C 8.473 10.850,8.528 12.074,8.987 13.010 C 9.197 13.439,9.806 14.068,10.322 14.390 C 10.933 14.770,11.535 14.990,13.790 15.655 C 15.217 16.076,15.849 16.445,16.131 17.021 C 16.438 17.648,16.213 18.323,15.557 18.743 C 14.954 19.128,14.053 19.268,13.160 19.114 C 11.576 18.842,10.151 17.996,9.090 16.701 L 8.703 16.228 8.690 17.599 L 8.676 18.970 8.876 19.151 C 9.218 19.459,9.746 19.789,10.381 20.092 C 11.872 20.803,13.181 21.071,14.600 20.957 C 16.749 20.785,18.565 19.428,19.207 17.517 C 19.361 17.057,19.416 16.484,19.365 15.854 C 19.299 15.020,19.034 14.425,18.480 13.859 C 18.121 13.494,17.884 13.326,17.329 13.046 C 16.789 12.775,16.322 12.622,14.904 12.254 C 12.681 11.676,12.154 11.424,11.806 10.773 C 11.609 10.402,11.561 9.920,11.690 9.585 C 11.963 8.869,12.835 8.510,13.995 8.636 C 15.549 8.806,16.902 9.475,18.207 10.722 L 18.573 11.072 18.573 9.905 L 18.573 8.737 18.072 8.410 C 16.815 7.590,15.633 7.176,14.184 7.048 C 13.578 6.994,13.329 6.995,12.838 7.052 " fill="#1A1C1F" stroke="none" fill-rule="evenodd"></path></svg>