<svg xmlns="http://www.w3.org/2000/svg" width="12" height="12" fill="none"><g clip-path="url(#a)"><path fill="#1A1C1F" fill-rule="evenodd" d="M6 1.2a4.8 4.8 0 1 1 0 9.6 4.8 4.8 0 0 1 0-9.6m0 1.2a3.6 3.6 0 1 0 0 7.2 3.6 3.6 0 0 0 0-7.2m-.165 1.2c.666 0 1.263.226 1.737.607v.8c-.41-.458-1.028-.86-1.753-.86-.41 0-.645.225-.645.49 0 .382.313.54.726.658l.614.155c.67.172 1.34.434 1.34 1.35 0 .74-.692 1.6-1.86 1.6-.65 0-1.384-.304-1.794-.684v-.96c.389.579 1.08 1.026 1.795 1.026.437 0 .788-.26.788-.535 0-.367-.325-.525-.748-.653l-.517-.146c-.677-.194-1.373-.473-1.373-1.397 0-.944.89-1.451 1.69-1.451" clip-rule="evenodd"/></g><defs><clipPath id="a"><path fill="#fff" d="M0 0h12v12H0z"/></clipPath></defs></svg>