<svg xmlns="http://www.w3.org/2000/svg" width="28" height="28" fill="none"><g clip-path="url(#a)"><path fill="#1A1C1F" fill-rule="evenodd" d="M14 1.75c6.766 0 12.25 5.485 12.25 12.25S20.765 26.25 14 26.25c-6.674 0-12.102-5.337-12.247-11.976L1.75 14l.003-.273C1.898 7.087 7.326 1.75 14 1.75m0 1.75C8.29 3.5 3.645 8.057 3.503 13.733L3.5 14l.003.267C3.645 19.943 8.29 24.5 14 24.5c5.799 0 10.5-4.701 10.5-10.5S19.8 3.5 14 3.5M13.518 7c1.943 0 3.684.66 5.067 1.77v2.333c-1.197-1.335-3-2.51-5.114-2.51-1.197 0-1.881.66-1.881 1.433 0 1.029.784 1.503 1.856 1.84.695.215 1.184.307 2.249.58 1.887.505 3.714 1.305 3.714 3.886 0 2.157-2.02 4.668-5.425 4.668-1.896 0-4.088-.886-5.284-1.996v-2.8c1.134 1.69 3.201 2.993 5.284 2.993 1.275 0 2.3-.756 2.3-1.56 0-1.032-.883-1.497-2.052-1.865a59 59 0 0 0-1.892-.54c-1.89-.565-3.75-1.421-3.75-4C8.59 8.48 11.187 7 13.519 7" clip-rule="evenodd"/></g><defs><clipPath id="a"><path fill="#fff" d="M0 0h28v28H0z"/></clipPath></defs></svg>