<svg xmlns="http://www.w3.org/2000/svg" width="20" height="20" fill="none"><g clip-path="url(#a)"><path fill="#1A1C1F" fill-rule="evenodd" d="M10 2a8 8 0 1 1 0 16 8 8 0 0 1 0-16m0 2a6 6 0 1 0 0 12 6 6 0 0 0 0-12m-.276 2a4.58 4.58 0 0 1 2.896 1.012v1.333c-.684-.764-1.714-1.435-2.922-1.435-.684 0-1.075.378-1.075.819 0 .635.523.9 1.21 1.097l1.024.257c1.117.287 2.234.724 2.234 2.25 0 1.232-1.155 2.667-3.1 2.667-1.084 0-2.307-.506-2.99-1.14v-1.6c.647.965 1.8 1.71 2.99 1.71.729 0 1.315-.432 1.315-.892 0-.61-.543-.874-1.247-1.088l-.863-.244c-1.128-.323-2.287-.788-2.287-2.328C6.91 6.846 8.392 6 9.724 6" clip-rule="evenodd"/></g><defs><clipPath id="a"><path fill="#fff" d="M0 0h20v20H0z"/></clipPath></defs></svg>