<svg xmlns="http://www.w3.org/2000/svg" width="20" height="20" fill="none"><g clip-path="url(#a)"><path fill="#1A1C1F" fill-rule="evenodd" d="M15 2a3 3 0 0 1 3 3v10a3 3 0 0 1-3 3H5a3 3 0 0 1-3-3V5a3 3 0 0 1 3-3zM5 4a1 1 0 0 0-.993.883L4 15a1 1 0 0 0 .883.993L15 16a1 1 0 0 0 .993-.883L16 5a1 1 0 0 0-.883-.993zm3.667 2v4.906c0 .896.543 1.427 1.333 1.427.743 0 1.268-.47 1.328-1.272L11.333 6h2v5.089C13.333 13.22 11.805 14 10 14c-1.744 0-3.231-.73-3.328-2.703L6.667 6z" clip-rule="evenodd"/></g><defs><clipPath id="a"><path fill="#fff" d="M0 0h20v20H0z"/></clipPath></defs></svg>