<svg xmlns="http://www.w3.org/2000/svg" width="12" height="12" fill="none"><g clip-path="url(#a)"><path fill="#1A1C1F" fill-rule="evenodd" d="M9 1.2A1.8 1.8 0 0 1 10.8 3v6A1.8 1.8 0 0 1 9 10.8H3A1.8 1.8 0 0 1 1.2 9V3A1.8 1.8 0 0 1 3 1.2zM3 2.4a.6.6 0 0 0-.596.53L2.4 9a.6.6 0 0 0 .53.596L9 9.6a.6.6 0 0 0 .596-.53L9.6 3a.6.6 0 0 0-.53-.596zm2.2 1.2v2.944c0 .537.326.856.8.856.446 0 .761-.282.797-.764L6.8 3.6H8v3.053C8 7.933 7.083 8.4 6 8.4c-1.047 0-1.939-.438-1.997-1.622L4 3.6z" clip-rule="evenodd"/></g><defs><clipPath id="a"><path fill="#fff" d="M0 0h12v12H0z"/></clipPath></defs></svg>