<svg xmlns="http://www.w3.org/2000/svg" width="16" height="16" fill="none"><g clip-path="url(#a)"><path fill="#1A1C1F" fill-rule="evenodd" d="M12 1.6A2.4 2.4 0 0 1 14.4 4v8a2.4 2.4 0 0 1-2.4 2.4H4A2.4 2.4 0 0 1 1.6 12V4A2.4 2.4 0 0 1 4 1.6zM4 3.2a.8.8 0 0 0-.795.707L3.2 12a.8.8 0 0 0 .707.795L12 12.8a.8.8 0 0 0 .795-.707L12.8 4a.8.8 0 0 0-.707-.795zm2.933 1.6v3.925c0 .717.435 1.142 1.067 1.142.595 0 1.015-.377 1.062-1.019L9.067 4.8h1.6v4.07c0 1.706-1.223 2.33-2.667 2.33-1.395 0-2.585-.584-2.663-2.162L5.333 4.8z" clip-rule="evenodd"/></g><defs><clipPath id="a"><path fill="#fff" d="M0 0h16v16H0z"/></clipPath></defs></svg>