<svg xmlns="http://www.w3.org/2000/svg" width="32" height="32" fill="none"><path fill="#1A1C1F" fill-rule="evenodd" d="M7.749 12.947c.02 4.535.048 6.787.089 7.075.075.523.38 1.481.629 1.978.583 1.162 1.647 2.193 2.854 2.766 2.328 1.104 5.763 1.259 8.401.379 1.777-.593 3.063-1.655 3.811-3.145.25-.497.554-1.455.629-1.978.041-.287.069-2.553.089-7.075l.028-6.654h-4.866l-.005 4.094a552 552 0 0 1-.043 6.413l-.036 2.32-.141.391a3.34 3.34 0 0 1-.814 1.299 3.26 3.26 0 0 1-1.273.833c-.34.124-.458.139-1.101.139-.614 0-.771-.018-1.067-.122a3.3 3.3 0 0 1-1.282-.827c-.429-.431-.661-.81-.861-1.407l-.157-.464-.032-6.334-.031-6.335H7.721z"/></svg>