<svg xmlns="http://www.w3.org/2000/svg" width="14" height="14" fill="none"><g clip-path="url(#a)"><path fill="#1A1C1F" fill-rule="evenodd" d="M10.5 1.4c1.16 0 2.1.94 2.1 2.1v7a2.1 2.1 0 0 1-2.1 2.1h-7a2.1 2.1 0 0 1-2.1-2.1v-7c0-1.16.94-2.1 2.1-2.1zm-7 1.4a.7.7 0 0 0-.695.618L2.8 10.5a.7.7 0 0 0 .618.695l7.082.005a.7.7 0 0 0 .695-.618L11.2 3.5a.7.7 0 0 0-.618-.695zm2.567 1.4v3.434c0 .628.38 1 .933 1 .52 0 .888-.33.93-.892L7.932 4.2h1.4v3.562C9.333 9.254 8.263 9.8 7 9.8c-1.22 0-2.262-.511-2.33-1.892L4.667 4.2z" clip-rule="evenodd"/></g><defs><clipPath id="a"><path fill="#fff" d="M0 0h14v14H0z"/></clipPath></defs></svg>