<svg xmlns="http://www.w3.org/2000/svg" width="24" height="24" fill="none"><g clip-path="url(#a)"><path fill="#1A1C1F" fill-rule="evenodd" d="M18 2a4 4 0 0 1 4 4v12a4 4 0 0 1-4 4H6a4 4 0 0 1-4-4V6a4 4 0 0 1 4-4zM6 4a1.997 1.997 0 0 0-1.995 2L4 18c0 1.054.863 2 2 2h12a2 2 0 0 0 2-2V6c0-1.054-.862-2-2-2zm3.857 2v7.36c0 1.344.959 2.069 2.143 2.069 1.133 0 2.06-.664 2.137-1.898L14.144 6h3v7.633C17.143 16.83 14.707 18 12 18c-2.637 0-5.018-1.113-5.138-4.125L6.857 6z" clip-rule="evenodd"/></g><defs><clipPath id="a"><path fill="#fff" d="M0 0h24v24H0z"/></clipPath></defs></svg>