<svg xmlns="http://www.w3.org/2000/svg" width="28" height="28" fill="none"><g clip-path="url(#a)"><path fill="#1A1C1F" fill-rule="evenodd" d="M21.875 1.75c2.353 0 4.375 1.894 4.375 4.375v15.75c0 2.353-1.892 4.375-4.375 4.375H6.125c-2.353 0-4.375-1.895-4.375-4.375V6.125c0-2.353 1.893-4.375 4.375-4.375zM6.125 3.5A2.625 2.625 0 0 0 3.5 6.125v15.75c0 1.398 1.18 2.625 2.625 2.625h15.75c1.398 0 2.625-1.1 2.625-2.625V6.125c0-1.398-1.127-2.625-2.625-2.625zM11.55 7v8.586c0 1.568 1.067 2.614 2.45 2.614 1.332 0 2.372-.973 2.445-2.448L16.45 7h3.5v8.905C19.95 19.635 17.157 21 14 21c-3.092 0-5.832-1.311-5.945-4.865L8.051 7z" clip-rule="evenodd"/></g><defs><clipPath id="a"><path fill="#fff" d="M0 0h28v28H0z"/></clipPath></defs></svg>