<svg xmlns="http://www.w3.org/2000/svg" width="32" height="32" fill="none"><g clip-path="url(#a)"><path fill="#1A1C1F" fill-rule="evenodd" d="M25 2c2.689 0 5 2.164 5 5v18c0 2.689-2.163 5-5 5H7c-2.689 0-5-2.166-5-5V7c0-2.689 2.163-5 5-5zM7 4C5.402 4 4 5.284 4 7v18c0 1.598 1.348 3 3 3h18c1.598 0 3-1.257 3-3V7c0-1.598-1.288-3-3-3zm6.2 4v9.813c0 1.792 1.22 2.987 2.799 2.987 1.523 0 2.712-1.111 2.795-2.798L18.8 8h4v10.177c0 4.264-3.191 5.823-6.8 5.823-3.534 0-6.665-1.498-6.794-5.56L9.201 8z" clip-rule="evenodd"/></g><defs><clipPath id="a"><path fill="#fff" d="M0 0h32v32H0z"/></clipPath></defs></svg>