<svg width="20" height="20" viewBox="0 0 20 20" fill="none" xmlns="http://www.w3.org/2000/svg"><path d="M9.150 2.055 C 8.066 2.222,7.095 2.657,6.392 3.289 C 5.429 4.154,4.882 5.117,4.539 6.550 C 4.481 6.788,4.419 7.111,4.401 7.267 C 4.382 7.423,4.352 8.742,4.333 10.200 C 4.294 13.265,4.283 13.408,4.010 14.250 C 3.883 14.644,3.834 14.724,3.498 15.087 C 3.113 15.501,3.022 15.683,3.021 16.033 C 3.020 16.326,3.089 16.489,3.305 16.705 C 3.546 16.946,3.900 17.047,4.229 16.968 C 4.365 16.935,4.459 16.875,4.691 16.673 C 5.056 16.355,13.423 8.013,15.420 5.976 C 16.853 4.514,16.899 4.462,16.953 4.278 C 17.087 3.816,16.874 3.340,16.433 3.117 C 16.298 3.048,16.221 3.033,15.995 3.033 C 15.607 3.033,15.514 3.088,14.933 3.655 L 14.445 4.131 14.194 3.839 C 13.460 2.986,12.431 2.384,11.272 2.130 C 11.000 2.070,10.817 2.058,10.100 2.049 C 9.633 2.044,9.205 2.047,9.150 2.055 M10.973 4.128 C 11.757 4.337,12.429 4.796,12.848 5.410 L 12.980 5.603 9.653 8.927 L 6.326 12.250 6.349 9.902 C 6.373 7.394,6.384 7.224,6.550 6.650 C 6.854 5.603,7.456 4.828,8.300 4.401 C 8.862 4.117,9.299 4.032,10.117 4.048 C 10.586 4.057,10.772 4.075,10.973 4.128 M14.625 9.592 L 13.667 10.550 13.667 11.467 C 13.667 12.600,13.726 13.255,13.889 13.925 L 13.907 14.000 12.062 14.000 L 10.216 14.000 9.104 15.113 L 7.991 16.226 8.015 16.354 C 8.086 16.730,8.397 17.245,8.712 17.508 C 9.111 17.840,9.657 18.025,10.127 17.987 C 10.428 17.963,10.829 17.832,11.050 17.687 C 11.258 17.549,11.563 17.246,11.698 17.042 C 11.823 16.855,11.966 16.421,11.991 16.158 L 12.009 15.967 14.168 15.967 L 16.327 15.967 16.517 15.839 C 16.963 15.539,17.111 15.013,16.882 14.545 C 16.815 14.407,16.720 14.305,16.436 14.069 C 15.969 13.679,15.822 13.483,15.733 13.127 C 15.708 13.031,15.687 12.227,15.673 10.817 C 15.658 9.419,15.638 8.652,15.617 8.644 C 15.598 8.638,15.152 9.065,14.625 9.592 " fill="#1A1C1F" stroke="none" fill-rule="evenodd"></path></svg>