<svg width="12" height="12" viewBox="0 0 12 12" fill="none" xmlns="http://www.w3.org/2000/svg"><path d="M5.333 1.260 C 4.328 1.443,3.499 2.076,3.040 3.011 C 2.868 3.360,2.708 3.899,2.640 4.353 C 2.629 4.428,2.611 5.183,2.600 6.030 C 2.589 6.877,2.571 7.654,2.560 7.756 C 2.527 8.055,2.436 8.203,2.134 8.447 C 1.833 8.690,1.816 8.719,1.816 8.975 C 1.816 9.114,1.824 9.159,1.869 9.250 C 1.930 9.374,2.071 9.508,2.178 9.544 C 2.230 9.561,2.592 9.570,3.512 9.575 L 4.774 9.582 4.798 9.723 C 4.886 10.255,5.268 10.663,5.782 10.772 C 6.053 10.830,6.399 10.764,6.634 10.609 C 6.761 10.526,6.935 10.352,7.019 10.225 C 7.094 10.113,7.180 9.853,7.195 9.695 L 7.206 9.580 8.501 9.580 L 9.796 9.580 9.910 9.503 C 10.178 9.323,10.267 9.008,10.129 8.727 C 10.089 8.644,10.032 8.583,9.862 8.442 C 9.621 8.241,9.562 8.172,9.485 8.005 C 9.435 7.896,9.431 7.866,9.418 7.460 C 9.410 7.224,9.402 6.603,9.400 6.080 C 9.396 4.487,9.369 4.152,9.201 3.586 C 8.835 2.358,7.968 1.542,6.750 1.279 C 6.583 1.243,6.467 1.235,6.050 1.228 C 5.617 1.222,5.521 1.226,5.333 1.260 " fill="#1A1C1F" stroke="none" fill-rule="evenodd"></path></svg>