<svg xmlns="http://www.w3.org/2000/svg" width="20" height="20" fill="none"><g clip-path="url(#a)"><path fill="#1A1C1F" fill-rule="evenodd" d="M9.99 2c3.398 0 5.663 2.498 5.663 6.224v3.903c0 1.249.156 1.483.878 2.01.313.214.469.526.469.839 0 .468-.35.995-.898.995h-4.1v.02c0 1.111-.899 2.009-2.012 2.009-1.035 0-2.01-.898-2.01-2.03H3.995c-.625 0-.996-.507-.996-1.014 0-.273.098-.546.352-.741.82-.527.976-.82.976-2.147v-3.57C4.328 4.615 6.534 2 9.99 2" clip-rule="evenodd"/></g><defs><clipPath id="a"><path fill="#fff" d="M0 0h20v20H0z"/></clipPath></defs></svg>