<svg xmlns="http://www.w3.org/2000/svg" width="20" height="20" fill="none"><g clip-path="url(#a)"><path fill="#1A1C1F" fill-rule="evenodd" d="M15.652 8.561v3.566c0 1.11.124 1.418.658 1.843l.22.167c.313.214.47.526.47.839 0 .468-.35.995-.899.995h-4.1v.02C12 17.101 11.103 18 9.99 18c-.958 0-1.866-.77-1.996-1.781l2.22-2.22 3.7.001-.074-.297c-.112-.497-.169-1.028-.178-1.877l-.002-1.273zM9.99 2c1.909 0 3.46.789 4.454 2.141l.848-.848a1 1 0 0 1 1.415 0c.36.36.428 1.003 0 1.414q-5.998 6.003-12 12a1 1 0 0 1-1.415 0c-.36-.36-.426-.922 0-1.414q.259-.264.52-.522l.04-.084c.29-.66.475-1.387.475-2.619v-3.57C4.327 4.615 6.534 2 9.99 2m.02 2.01c-2.207 0-3.672 1.541-3.672 4.234v3.337q0 .361-.012.678l6.653-6.654c-.622-1.035-1.646-1.595-2.97-1.595" clip-rule="evenodd"/></g><defs><clipPath id="a"><path fill="#fff" d="M0 0h20v20H0z"/></clipPath></defs></svg>