<svg xmlns="http://www.w3.org/2000/svg" width="14" height="14" fill="none"><g clip-path="url(#a)"><path fill="#1A1C1F" fill-rule="evenodd" d="M6.993 1.4c2.378 0 3.964 1.748 3.964 4.357V8.49c0 .874.11 1.038.615 1.407.219.15.328.368.328.587 0 .328-.245.697-.629.697h-2.87v.013c0 .779-.629 1.407-1.408 1.407-.724 0-1.408-.628-1.408-1.42H2.797c-.437 0-.697-.356-.697-.71 0-.192.068-.383.246-.52.574-.369.683-.573.683-1.502v-2.5C3.03 3.23 4.574 1.4 6.993 1.4" clip-rule="evenodd"/></g><defs><clipPath id="a"><path fill="#fff" d="M0 0h14v14H0z"/></clipPath></defs></svg>