<svg xmlns="http://www.w3.org/2000/svg" width="16" height="16" fill="none"><g clip-path="url(#a)"><path fill="#1A1C1F" fill-rule="evenodd" d="M12.522 6.849V9.7c0 .888.098 1.135.526 1.475l.177.133c.25.172.375.422.375.672 0 .374-.28.796-.719.796h-3.28v.015c0 .89-.719 1.608-1.61 1.608-.766 0-1.492-.615-1.596-1.425l1.776-1.776 2.96.001-.059-.237c-.09-.398-.135-.823-.142-1.503l-.002-1.018zM7.992 1.6c1.527 0 2.769.631 3.563 1.713l.679-.679a.8.8 0 0 1 1.131 0c.289.289.343.803 0 1.132q-4.797 4.802-9.6 9.6a.8.8 0 0 1-1.131 0c-.288-.289-.34-.738 0-1.132q.206-.21.416-.417l.031-.067c.232-.528.38-1.11.38-2.095V6.798c0-3.106 1.766-5.198 4.53-5.198m.015 1.608c-1.765 0-2.936 1.233-2.936 3.387v2.67q0 .288-.01.542l5.323-5.323c-.498-.828-1.317-1.276-2.377-1.276" clip-rule="evenodd"/></g><defs><clipPath id="a"><path fill="#fff" d="M0 0h16v16H0z"/></clipPath></defs></svg>