<svg width="14" height="14" viewBox="0 0 14 14" fill="none" xmlns="http://www.w3.org/2000/svg"><path d="M6.230 1.469 C 5.572 1.589,4.929 1.894,4.474 2.302 C 3.801 2.908,3.418 3.582,3.177 4.585 C 3.137 4.752,3.094 4.978,3.081 5.087 C 3.067 5.196,3.046 6.125,3.033 7.152 C 3.006 9.295,2.999 9.382,2.807 9.975 C 2.718 10.251,2.684 10.307,2.449 10.561 C 2.178 10.853,2.113 10.981,2.114 11.223 C 2.114 11.428,2.163 11.543,2.313 11.693 C 2.482 11.862,2.730 11.933,2.961 11.877 C 3.055 11.855,3.121 11.812,3.284 11.671 C 3.539 11.449,9.393 5.612,10.794 4.183 C 11.797 3.160,11.830 3.124,11.867 2.995 C 11.961 2.670,11.800 2.317,11.492 2.172 C 11.342 2.102,11.046 2.103,10.900 2.174 C 10.836 2.205,10.658 2.358,10.453 2.558 L 10.111 2.892 9.931 2.683 C 9.423 2.091,8.698 1.668,7.890 1.491 C 7.556 1.418,6.584 1.405,6.230 1.469 M7.681 2.890 C 8.230 3.036,8.701 3.357,8.994 3.787 L 9.086 3.922 6.760 6.249 L 4.433 8.575 4.435 7.782 C 4.436 7.345,4.445 6.558,4.456 6.032 C 4.476 5.076,4.476 5.075,4.545 4.804 C 4.684 4.265,4.882 3.880,5.190 3.553 C 5.552 3.169,5.938 2.962,6.492 2.857 C 6.749 2.808,7.446 2.827,7.681 2.890 M10.237 6.714 L 9.567 7.385 9.567 8.027 C 9.567 8.820,9.608 9.278,9.722 9.748 L 9.735 9.800 8.443 9.800 L 7.151 9.800 6.373 10.579 L 5.594 11.358 5.611 11.448 C 5.660 11.711,5.878 12.071,6.099 12.255 C 6.378 12.488,6.760 12.617,7.089 12.591 C 7.299 12.574,7.581 12.482,7.735 12.381 C 7.881 12.284,8.094 12.072,8.189 11.929 C 8.276 11.798,8.376 11.495,8.394 11.311 L 8.406 11.177 9.918 11.177 L 11.429 11.177 11.562 11.087 C 11.874 10.877,11.978 10.509,11.818 10.181 C 11.770 10.085,11.704 10.014,11.506 9.849 C 11.367 9.733,11.225 9.602,11.191 9.556 C 11.106 9.445,11.018 9.249,11.000 9.135 C 10.993 9.084,10.979 8.371,10.971 7.550 C 10.961 6.586,10.947 6.056,10.932 6.051 C 10.919 6.047,10.606 6.345,10.237 6.714 " fill="#1A1C1F" stroke="none" fill-rule="evenodd"></path></svg>