<svg xmlns="http://www.w3.org/2000/svg" width="28" height="28" fill="none"><g clip-path="url(#a)"><path fill="#1A1C1F" fill-rule="evenodd" d="M14.027 1.75c.465 0 .848.41.848.876v2.68C18.621 5.715 21 8.777 21 13.343v3.282c0 2.296.574 3.445 2.215 4.511.246.164.41.438.41.739 0 .52-.41.874-.875.874H17.5a3.49 3.49 0 0 1-3.5 3.5 3.49 3.49 0 0 1-3.5-3.5H5.25a.864.864 0 0 1-.875-.874c0-.301.164-.575.41-.739C6.425 20.071 7 18.922 7 16.626v-3.282c0-4.566 2.379-7.628 6.125-8.039v-2.68c0-.492.383-.902.875-.874zm1.723 21h-3.5c0 .958.793 1.75 1.75 1.75s1.75-.792 1.75-1.75" clip-rule="evenodd"/></g><defs><clipPath id="a"><path fill="#fff" d="M0 0h28v28H0z"/></clipPath></defs></svg>