<svg width="24" height="24" viewBox="0 0 24 24" fill="none" xmlns="http://www.w3.org/2000/svg"><path d="M11.773 2.039 C 11.547 2.073,11.309 2.247,11.151 2.494 L 11.020 2.698 11.007 3.384 L 10.994 4.071 10.747 4.117 C 10.413 4.180,9.803 4.380,9.454 4.540 C 8.154 5.137,7.090 6.362,6.519 7.920 C 6.346 8.391,6.130 9.269,6.080 9.700 C 6.058 9.898,6.021 11.059,5.999 12.280 C 5.947 15.152,5.925 15.370,5.616 15.961 C 5.408 16.359,5.114 16.684,4.640 17.039 C 4.322 17.278,4.192 17.416,4.095 17.620 C 3.985 17.853,3.976 18.026,4.061 18.310 C 4.134 18.556,4.409 18.852,4.632 18.926 C 4.738 18.961,5.348 18.979,6.790 18.990 L 8.800 19.005 8.800 19.152 C 8.801 19.338,9.067 20.122,9.215 20.375 C 9.374 20.647,9.770 21.096,10.034 21.303 C 10.537 21.698,11.209 21.947,11.880 21.986 C 13.423 22.076,14.909 20.902,15.202 19.359 C 15.229 19.217,15.267 19.082,15.287 19.060 C 15.310 19.035,16.055 19.011,17.272 18.997 C 18.582 18.981,19.265 18.958,19.358 18.927 C 19.574 18.855,19.872 18.536,19.941 18.303 C 20.093 17.791,19.957 17.494,19.362 17.041 C 18.649 16.499,18.287 15.979,18.136 15.283 C 18.069 14.976,18.004 13.486,18.000 12.200 C 17.996 10.834,17.939 9.904,17.822 9.269 C 17.701 8.622,17.440 7.799,17.187 7.274 C 16.405 5.644,14.973 4.492,13.320 4.160 C 13.177 4.131,13.052 4.101,13.042 4.093 C 13.032 4.084,13.012 3.786,12.997 3.429 C 12.968 2.707,12.935 2.586,12.701 2.327 C 12.490 2.092,12.140 1.984,11.773 2.039 M12.415 6.041 C 13.046 6.093,13.459 6.220,13.935 6.509 C 15.050 7.186,15.762 8.490,15.919 10.140 C 15.942 10.382,15.978 11.615,15.999 12.880 C 16.034 14.951,16.045 15.212,16.116 15.500 C 16.199 15.836,16.417 16.487,16.556 16.811 L 16.638 17.002 12.042 16.991 C 9.515 16.985,7.434 16.968,7.419 16.953 C 7.404 16.938,7.465 16.739,7.554 16.512 C 7.736 16.046,7.857 15.624,7.919 15.240 C 7.943 15.097,7.979 13.927,8.001 12.640 C 8.022 11.353,8.059 10.127,8.081 9.916 C 8.196 8.854,8.688 7.727,9.320 7.082 C 9.656 6.739,9.864 6.586,10.266 6.385 C 10.930 6.053,11.488 5.964,12.415 6.041 M13.218 19.090 C 13.174 19.239,12.960 19.553,12.826 19.666 C 12.373 20.048,11.675 20.063,11.249 19.699 C 11.086 19.559,10.870 19.251,10.822 19.090 L 10.795 19.000 12.020 19.000 L 13.245 19.000 13.218 19.090 " fill="#1A1C1F" stroke="none" fill-rule="evenodd"></path></svg>