<svg width="12" height="12" viewBox="0 0 12 12" fill="none" xmlns="http://www.w3.org/2000/svg"><path d="M5.490 1.233 C 4.835 1.334,4.250 1.597,3.830 1.979 C 3.468 2.309,3.253 2.589,3.050 2.995 C 2.867 3.362,2.689 3.956,2.640 4.360 C 2.629 4.454,2.611 5.245,2.600 6.120 C 2.577 7.959,2.570 8.044,2.406 8.550 C 2.330 8.787,2.299 8.837,2.098 9.053 C 1.868 9.300,1.813 9.408,1.812 9.620 C 1.812 9.796,1.853 9.893,1.983 10.023 C 2.128 10.168,2.340 10.228,2.538 10.181 C 2.619 10.161,2.675 10.125,2.815 10.004 C 3.034 9.813,8.005 4.856,9.232 3.605 C 10.112 2.708,10.140 2.678,10.172 2.567 C 10.252 2.291,10.123 2.003,9.859 1.870 C 9.779 1.829,9.732 1.820,9.598 1.820 C 9.368 1.820,9.310 1.854,8.960 2.194 L 8.667 2.478 8.518 2.305 C 8.082 1.796,7.455 1.430,6.756 1.276 C 6.601 1.242,6.485 1.234,6.060 1.230 C 5.780 1.226,5.523 1.228,5.490 1.233 M6.584 2.477 C 7.054 2.602,7.458 2.878,7.709 3.246 L 7.788 3.362 5.794 5.356 L 3.800 7.350 3.801 6.620 C 3.802 6.218,3.810 5.544,3.819 5.120 C 3.835 4.355,3.836 4.349,3.895 4.120 C 4.144 3.162,4.690 2.615,5.565 2.449 C 5.785 2.407,6.382 2.423,6.584 2.477 M8.775 5.755 L 8.200 6.330 8.200 6.880 C 8.200 7.560,8.236 7.953,8.333 8.355 L 8.344 8.400 7.237 8.400 L 6.130 8.400 5.462 9.068 L 4.795 9.736 4.809 9.813 C 4.852 10.038,5.038 10.347,5.227 10.505 C 5.467 10.704,5.794 10.815,6.076 10.792 C 6.258 10.777,6.498 10.699,6.634 10.609 C 6.761 10.526,6.935 10.352,7.019 10.225 C 7.094 10.113,7.180 9.853,7.195 9.695 L 7.206 9.580 8.501 9.580 L 9.796 9.580 9.910 9.503 C 10.178 9.323,10.267 9.008,10.129 8.727 C 10.089 8.644,10.032 8.583,9.862 8.442 C 9.581 8.207,9.493 8.090,9.439 7.876 C 9.425 7.817,9.412 7.342,9.403 6.490 C 9.395 5.651,9.383 5.191,9.370 5.187 C 9.359 5.183,9.091 5.439,8.775 5.755 " fill="#1A1C1F" stroke="none" fill-rule="evenodd"></path></svg>