<svg width="32" height="32" viewBox="0 0 32 32" fill="none" xmlns="http://www.w3.org/2000/svg"><path d="M16.381 2.062 C 16.168 2.107,15.809 2.512,15.769 2.750 C 15.750 2.865,15.734 3.632,15.733 4.453 C 15.732 5.275,15.714 5.973,15.693 6.005 C 15.671 6.037,15.425 6.106,15.147 6.159 C 11.934 6.766,9.742 9.070,8.991 12.631 C 8.788 13.595,8.747 14.205,8.746 16.286 C 8.745 18.345,8.677 20.344,8.585 21.040 C 8.505 21.641,8.299 22.391,8.090 22.842 C 7.837 23.387,7.460 23.831,5.867 25.467 C 5.095 26.259,4.419 26.979,4.365 27.067 C 4.080 27.532,4.438 28.272,5.024 28.430 C 5.395 28.530,5.562 28.461,6.097 27.987 C 6.366 27.749,11.296 22.847,17.051 17.094 C 25.172 8.977,27.540 6.581,27.623 6.397 C 27.757 6.102,27.760 5.849,27.633 5.573 C 27.448 5.174,27.177 5.013,26.687 5.013 L 26.395 5.013 25.718 5.649 C 25.345 5.998,24.514 6.812,23.872 7.457 L 22.704 8.630 22.112 8.092 C 20.934 7.021,19.744 6.421,18.287 6.161 L 17.774 6.070 17.750 4.431 C 17.724 2.592,17.714 2.542,17.315 2.220 C 17.155 2.089,17.062 2.058,16.813 2.048 C 16.644 2.041,16.450 2.048,16.381 2.062 M17.467 8.055 C 18.828 8.208,19.830 8.672,20.794 9.595 L 21.241 10.024 20.866 10.438 C 20.322 11.040,11.046 20.273,10.838 20.420 L 10.662 20.544 10.694 18.499 C 10.768 13.849,10.819 13.198,11.207 12.040 C 12.159 9.198,14.481 7.719,17.467 8.055 M23.547 13.387 L 22.695 14.240 22.711 16.600 C 22.731 19.573,22.782 20.544,22.958 21.264 C 23.187 22.206,23.459 22.916,23.847 23.583 C 23.960 23.778,24.053 23.952,24.053 23.969 C 24.053 23.986,21.551 24.000,18.493 24.000 L 12.932 24.000 11.986 24.947 C 11.466 25.468,11.040 25.924,11.040 25.961 C 11.040 26.010,11.248 26.027,11.886 26.027 L 12.732 26.027 12.759 26.387 C 12.798 26.906,13.090 27.733,13.396 28.191 C 13.877 28.909,14.627 29.491,15.469 29.797 C 15.836 29.930,15.931 29.942,16.693 29.944 C 17.628 29.947,17.968 29.869,18.632 29.501 C 19.775 28.866,20.463 27.849,20.698 26.443 L 20.767 26.032 23.863 26.016 L 26.960 26.000 27.186 25.871 C 27.465 25.711,27.680 25.410,27.718 25.125 C 27.740 24.960,27.715 24.843,27.608 24.624 C 27.495 24.393,27.369 24.262,26.936 23.925 C 26.268 23.404,25.728 22.839,25.449 22.366 C 25.171 21.896,24.916 21.132,24.852 20.573 C 24.825 20.331,24.777 18.777,24.748 17.118 C 24.718 15.460,24.668 13.900,24.638 13.652 C 24.556 12.986,24.474 12.533,24.434 12.533 C 24.415 12.533,24.015 12.917,23.547 13.387 M18.694 26.278 C 18.605 26.876,18.077 27.564,17.506 27.828 C 17.247 27.947,17.125 27.969,16.719 27.970 C 16.294 27.971,16.200 27.953,15.919 27.815 C 15.548 27.634,15.153 27.259,14.983 26.927 C 14.870 26.705,14.722 26.236,14.721 26.093 C 14.720 26.041,15.156 26.027,16.726 26.027 L 18.732 26.027 18.694 26.278 " fill="#1A1C1F" stroke="none" fill-rule="evenodd"></path></svg>