<svg xmlns="http://www.w3.org/2000/svg" width="16" height="16" fill="none"><g clip-path="url(#a)"><path fill="#1A1C1F" fill-rule="evenodd" d="M7.992 1.6c2.718 0 4.53 1.998 4.53 4.98V9.7c0 1 .125 1.187.703 1.608.25.172.375.422.375.672 0 .374-.28.796-.718.796h-3.28v.015c0 .89-.72 1.608-1.61 1.608-.828 0-1.609-.718-1.609-1.623H3.197c-.5 0-.797-.406-.797-.812 0-.219.078-.437.281-.593.656-.422.781-.656.781-1.717V6.798c0-3.106 1.765-5.198 4.53-5.198" clip-rule="evenodd"/></g><defs><clipPath id="a"><path fill="#fff" d="M0 0h16v16H0z"/></clipPath></defs></svg>