<svg xmlns="http://www.w3.org/2000/svg" width="28" height="28" fill="none"><g clip-path="url(#a)"><path fill="#1A1C1F" fill-rule="evenodd" d="M21.39 10.934q.218 1 .243 2.138l.003.272v3.281c0 2.297.574 3.445 2.215 4.512.246.164.41.437.41.738a.86.86 0 0 1-.776.87l-.1.005h-5.25a3.49 3.49 0 0 1-3.5 3.5 3.49 3.49 0 0 1-3.495-3.325l-.004-.175H9.574l1.75-1.75h9.765c-.82-1.205-1.16-2.626-1.2-4.083l-.003-.292v-3.281q0-.45-.034-.872zM14.663 1.75c.432 0 .793.354.842.776l.006.099v2.68c1.785.195 3.26.993 4.314 2.268l2.962-2.963a.875.875 0 1 1 1.237 1.237A52869 52869 0 0 1 5.214 24.66a.875.875 0 0 1-1.238 0 .873.873 0 0 1 0-1.238 923 923 0 0 1 2.475-2.473c.905-.986 1.16-2.324 1.183-4.045l.002-.278v-3.281c0-4.475 2.285-7.506 5.902-8.011l.223-.028v-2.68c0-.46.333-.847.778-.875zm1.723 21h-3.5c0 .957.793 1.75 1.75 1.75s1.75-.793 1.75-1.75M14.636 7c-3.211 0-5.166 2.279-5.247 6.093l-.003.25v3.282c0 .505-.034 1.006-.11 1.498l9.309-9.311C17.68 7.644 16.334 7 14.635 7" clip-rule="evenodd"/></g><defs><clipPath id="a"><path fill="#fff" d="M0 0h28v28H0z"/></clipPath></defs></svg>