<svg xmlns="http://www.w3.org/2000/svg" width="24" height="24" fill="none"><g clip-path="url(#a)"><path fill="#1A1C1F" fill-rule="evenodd" d="M18.455 10.28q.023.291.03.594l.028 3.121c0 1.831.516 2.512 1.526 3.17.376.234.54.704.423 1.126-.141.423-.517.704-.963.704h-3.734c-.14 1.667-1.55 3.005-3.24 3.005a3.26 3.26 0 0 1-3.186-2.599l2.4-2.401h5.412a6.1 6.1 0 0 1-.658-3.005v-1.752zM12.5 2c.54 0 .986.446.986 1.01v1.08l.024-.001c1.437.23 2.619.932 3.469 2.017l1.814-1.813a1 1 0 0 1 1.497 1.32l-.083.094L5.206 20.71a1 1 0 0 1-1.497-1.32l.083-.094L6.5 16.596v-5.418c0-3.967 1.938-6.643 4.99-7.112V3.009c0-.563.446-1.009 1.01-1.009m1.245 16.995h-2.443c.118.564.61.986 1.221.986.588 0 1.08-.422 1.222-.986M12.477 5.991c-2.489 0-3.992 1.948-3.992 5.187v2.817q.015.305-.002.608l7.067-7.066c-.691-.998-1.74-1.546-3.073-1.546" clip-rule="evenodd"/></g><defs><clipPath id="a"><path fill="#fff" d="M0 0h24v24H0z"/></clipPath></defs></svg>