<svg width="16" height="16" viewBox="0 0 16 16" fill="none" xmlns="http://www.w3.org/2000/svg"><path d="M7.320 1.644 C 6.453 1.778,5.676 2.125,5.114 2.631 C 4.344 3.323,3.906 4.093,3.631 5.240 C 3.585 5.431,3.536 5.689,3.521 5.813 C 3.506 5.938,3.481 7.000,3.467 8.173 C 3.436 10.625,3.429 10.719,3.208 11.400 C 3.106 11.715,3.067 11.780,2.798 12.069 C 2.491 12.401,2.417 12.547,2.417 12.826 C 2.416 13.061,2.471 13.191,2.644 13.364 C 2.837 13.557,3.120 13.637,3.383 13.574 C 3.492 13.548,3.567 13.500,3.753 13.338 C 4.045 13.084,10.738 6.410,12.336 4.781 C 13.482 3.611,13.520 3.570,13.562 3.423 C 13.671 3.050,13.502 2.673,13.147 2.493 C 13.038 2.438,12.977 2.427,12.796 2.427 C 12.485 2.427,12.411 2.470,11.946 2.924 L 11.556 3.305 11.350 3.066 C 10.769 2.390,9.940 1.906,9.018 1.704 C 8.800 1.656,8.654 1.646,8.080 1.640 C 7.706 1.635,7.364 1.637,7.320 1.644 M8.778 3.302 C 9.405 3.469,9.943 3.837,10.279 4.328 L 10.384 4.483 7.723 7.141 L 5.061 9.800 5.079 7.933 C 5.088 6.907,5.109 5.977,5.124 5.869 C 5.222 5.150,5.509 4.509,5.932 4.060 C 6.344 3.623,6.802 3.377,7.413 3.265 C 7.717 3.210,8.511 3.231,8.778 3.302 M11.700 7.673 L 10.933 8.440 10.933 9.174 C 10.933 10.080,10.981 10.604,11.111 11.140 L 11.126 11.200 9.649 11.200 L 8.173 11.200 7.283 12.090 L 6.393 12.981 6.412 13.084 C 6.469 13.384,6.717 13.796,6.970 14.006 C 7.289 14.272,7.725 14.420,8.101 14.389 C 8.342 14.370,8.664 14.266,8.840 14.149 C 9.007 14.039,9.251 13.797,9.359 13.633 C 9.458 13.484,9.573 13.137,9.593 12.927 L 9.607 12.773 11.334 12.773 L 13.061 12.773 13.213 12.671 C 13.569 12.432,13.689 12.010,13.507 11.639 C 13.455 11.532,13.375 11.446,13.150 11.257 C 12.772 10.940,12.658 10.786,12.586 10.502 C 12.567 10.425,12.550 9.781,12.538 8.654 C 12.526 7.535,12.511 6.921,12.493 6.915 C 12.478 6.911,12.121 7.252,11.700 7.673 " fill="#1A1C1F" stroke="none" fill-rule="evenodd"></path></svg>