<svg width="16" height="16" viewBox="0 0 16 16" fill="none" xmlns="http://www.w3.org/2000/svg"><path d="M7.320 1.644 C 6.448 1.780,5.676 2.125,5.114 2.631 C 4.358 3.310,3.912 4.084,3.642 5.182 C 3.501 5.757,3.495 5.849,3.466 8.053 C 3.451 9.190,3.427 10.226,3.412 10.355 C 3.371 10.725,3.241 10.942,2.900 11.215 C 2.456 11.571,2.415 11.637,2.418 11.980 C 2.420 12.147,2.434 12.214,2.492 12.332 C 2.573 12.498,2.761 12.677,2.903 12.725 C 2.973 12.748,3.464 12.760,4.684 12.767 L 6.369 12.776 6.387 12.915 C 6.485 13.641,6.998 14.206,7.702 14.363 C 8.030 14.436,8.422 14.378,8.760 14.207 C 8.900 14.136,9.337 13.697,9.409 13.555 C 9.488 13.400,9.600 13.002,9.600 12.877 L 9.600 12.773 11.331 12.773 L 13.061 12.773 13.213 12.671 C 13.569 12.432,13.689 12.010,13.507 11.639 C 13.455 11.532,13.375 11.446,13.150 11.257 C 12.826 10.985,12.749 10.895,12.646 10.673 C 12.580 10.528,12.575 10.489,12.557 9.947 C 12.546 9.631,12.536 8.797,12.534 8.093 C 12.528 5.985,12.492 5.537,12.267 4.781 C 11.781 3.147,10.622 2.055,9.000 1.706 C 8.776 1.657,8.628 1.647,8.067 1.640 C 7.700 1.635,7.364 1.637,7.320 1.644 M8.265 3.230 C 9.407 3.340,10.180 3.905,10.599 4.936 C 10.880 5.628,10.931 6.157,10.933 8.440 C 10.934 10.074,10.967 10.578,11.107 11.127 L 11.126 11.200 8.000 11.200 L 4.874 11.200 4.889 11.140 C 4.915 11.031,4.986 10.630,5.015 10.427 C 5.032 10.312,5.053 9.354,5.066 8.187 C 5.084 6.528,5.097 6.090,5.132 5.845 C 5.339 4.415,6.185 3.467,7.433 3.269 C 7.576 3.246,7.735 3.223,7.787 3.218 C 7.838 3.213,7.897 3.207,7.919 3.204 C 7.940 3.202,8.096 3.213,8.265 3.230 " fill="#1A1C1F" stroke="none" fill-rule="evenodd"></path></svg>