<svg xmlns="http://www.w3.org/2000/svg" width="32" height="32" fill="none"><g clip-path="url(#a)"><path fill="#1A1C1F" fill-rule="evenodd" d="M16.031 2c.532 0 .969.47.969 1v3.063c4.281.469 7 3.969 7 9.188V19c0 2.625.656 3.937 2.531 5.156.282.188.469.5.469.844 0 .593-.468 1-1 1h-6c0 2.218-1.781 4-4 4s-4-1.782-4-4H6c-.531 0-1-.407-1-1 0-.344.188-.657.469-.844C7.344 22.938 8 21.626 8 19.001v-3.75c0-5.219 2.719-8.719 7-9.188V3.001c0-.563.438-1.032 1-1zM18 26h-4c0 1.095.906 2 2 2s2-.905 2-2M16 8c-3.75 0-6 2.72-6 7.25V19c0 1.783-.375 3.532-1.375 5h14.75c-1-1.468-1.375-3.218-1.375-5v-3.75C22 10.75 19.75 8 16 8" clip-rule="evenodd"/></g><defs><clipPath id="a"><path fill="#fff" d="M0 0h32v32H0z"/></clipPath></defs></svg>