<svg width="12" height="12" viewBox="0 0 12 12" fill="none" xmlns="http://www.w3.org/2000/svg"><path d="M5.490 1.233 C 4.831 1.336,4.250 1.597,3.830 1.979 C 3.242 2.514,2.922 3.079,2.718 3.940 C 2.626 4.330,2.621 4.424,2.600 6.030 C 2.589 6.877,2.571 7.654,2.560 7.756 C 2.529 8.044,2.435 8.204,2.175 8.411 C 1.875 8.652,1.828 8.716,1.807 8.916 C 1.782 9.155,1.919 9.411,2.130 9.519 L 2.229 9.570 3.502 9.576 L 4.774 9.582 4.798 9.723 C 4.886 10.255,5.268 10.663,5.782 10.772 C 6.053 10.830,6.399 10.764,6.634 10.609 C 6.761 10.526,6.935 10.352,7.019 10.225 C 7.094 10.113,7.180 9.853,7.195 9.695 L 7.206 9.580 8.501 9.580 L 9.796 9.580 9.910 9.503 C 10.178 9.323,10.267 9.008,10.129 8.727 C 10.089 8.644,10.032 8.583,9.862 8.442 C 9.576 8.204,9.488 8.083,9.439 7.867 C 9.426 7.806,9.411 7.162,9.400 6.120 C 9.380 4.327,9.378 4.296,9.257 3.802 C 8.928 2.448,8.042 1.558,6.750 1.279 C 6.582 1.243,6.471 1.235,6.050 1.230 C 5.775 1.226,5.523 1.228,5.490 1.233 M6.418 2.452 C 7.203 2.573,7.777 3.099,8.029 3.925 C 8.169 4.383,8.181 4.546,8.200 6.220 C 8.218 7.794,8.227 7.942,8.330 8.345 L 8.344 8.400 6.000 8.400 L 3.656 8.400 3.667 8.355 C 3.709 8.185,3.762 7.804,3.779 7.550 C 3.790 7.385,3.800 6.787,3.801 6.220 C 3.802 4.661,3.826 4.311,3.959 3.895 C 4.216 3.094,4.797 2.575,5.575 2.451 C 5.921 2.396,6.058 2.396,6.418 2.452 " fill="#1A1C1F" stroke="none" fill-rule="evenodd"></path></svg>