<svg xmlns="http://www.w3.org/2000/svg" width="14" height="14" fill="none"><g clip-path="url(#a)"><path fill="#1A1C1F" fill-rule="evenodd" d="M10.957 5.993v2.496c0 .777.086.993.46 1.29l.155.117c.218.15.328.368.328.587 0 .328-.245.697-.63.697H8.4v.013c0 .779-.628 1.407-1.407 1.407-.67 0-1.306-.538-1.397-1.247L7.15 9.799l2.59.001-.052-.208c-.079-.348-.118-.72-.125-1.314v-.89zM6.993 1.4c1.336 0 2.423.552 3.118 1.499l.594-.594a.7.7 0 0 1 .99 0c.252.252.3.702 0 .99l-8.4 8.4a.7.7 0 0 1-.99 0c-.253-.252-.298-.645 0-.99q.18-.185.364-.365l.027-.06c.203-.46.333-.97.333-1.832v-2.5C3.03 3.23 4.574 1.4 6.993 1.4m.014 1.407c-1.545 0-2.57 1.079-2.57 2.964v2.335q0 .254-.009.475l4.658-4.658C8.65 3.2 7.933 2.807 7.006 2.807" clip-rule="evenodd"/></g><defs><clipPath id="a"><path fill="#fff" d="M0 0h14v14H0z"/></clipPath></defs></svg>