<svg xmlns="http://www.w3.org/2000/svg" width="12" height="12" fill="none"><g clip-path="url(#a)"><path fill="#1A1C1F" fill-rule="evenodd" d="M9.391 5.137v2.14c0 .665.074.85.395 1.105l.133.1a.61.61 0 0 1 .28.503c0 .281-.21.597-.538.597H7.2v.012c0 .668-.54 1.206-1.207 1.206-.575 0-1.12-.462-1.197-1.069L6.128 8.4l2.22.001-.044-.178c-.067-.298-.101-.617-.107-1.127l-.001-.763zM5.994 1.2c1.145 0 2.076.473 2.672 1.285l.51-.51a.6.6 0 0 1 .848 0 .595.595 0 0 1 0 .85l-7.2 7.2a.6.6 0 0 1-.849 0c-.216-.217-.255-.554 0-.85l.312-.312.024-.05c.174-.396.285-.833.285-1.572V5.099c0-2.33 1.324-3.899 3.398-3.899m.012 1.206c-1.324 0-2.203.925-2.203 2.54v2.002q0 .218-.008.407l3.993-3.992c-.374-.621-.988-.957-1.782-.957" clip-rule="evenodd"/></g><defs><clipPath id="a"><path fill="#fff" d="M0 0h12v12H0z"/></clipPath></defs></svg>