<svg xmlns="http://www.w3.org/2000/svg" width="32" height="32" fill="none"><path fill="#1A1C1F" fill-rule="evenodd" d="M15.493 2.126c-.475.293-.501.415-.504 2.331l-.002 1.604-.547.094c-3.191.547-5.485 2.968-6.194 6.538C8.035 13.754 8 14.369 8 17.009c0 1.367-.025 2.748-.055 3.071-.166 1.789-.806 2.898-2.278 3.945-.488.348-.654.594-.654.975 0 .292.078.483.282.695.316.327.37.332 3.694.332h2.997l.038.38c.049.497.201.985.473 1.513.267.519.949 1.229 1.476 1.535 1.21.702 2.844.702 4.054 0 .527-.306 1.209-1.016 1.476-1.535.272-.528.424-1.016.473-1.513l.038-.38h2.997c3.324 0 3.378-.005 3.694-.332a.9.9 0 0 0 .282-.695c0-.381-.166-.627-.654-.975-1.477-1.051-2.109-2.145-2.278-3.945-.03-.323-.055-1.704-.055-3.071 0-1.366-.026-2.746-.057-3.066a12.6 12.6 0 0 0-.527-2.529c-.939-2.857-3.083-4.784-5.854-5.259l-.544-.093-.016-1.658c-.018-1.902-.027-1.949-.462-2.225-.299-.189-.786-.214-1.047-.053m2.48 24.085c0 .271-.192.739-.424 1.033-.355.449-.984.756-1.549.756s-1.194-.307-1.549-.756c-.232-.294-.424-.762-.424-1.033v-.184h3.946z"/></svg>