<svg width="20" height="20" viewBox="0 0 20 20" fill="none" xmlns="http://www.w3.org/2000/svg"><path d="M9.150 2.055 C 8.060 2.225,7.095 2.657,6.392 3.289 C 5.447 4.138,4.889 5.105,4.552 6.478 C 4.375 7.198,4.368 7.311,4.333 10.050 C 4.315 11.462,4.285 12.756,4.266 12.927 C 4.212 13.426,4.061 13.671,3.557 14.078 C 3.056 14.483,3.026 14.531,3.026 14.954 C 3.026 15.151,3.044 15.265,3.093 15.375 C 3.183 15.579,3.372 15.780,3.560 15.873 L 3.717 15.950 5.837 15.960 L 7.957 15.970 7.996 16.205 C 8.142 17.089,8.771 17.763,9.628 17.954 C 10.073 18.053,10.663 17.942,11.050 17.687 C 11.258 17.549,11.563 17.246,11.698 17.042 C 11.823 16.855,11.966 16.421,11.991 16.158 L 12.009 15.967 14.168 15.967 L 16.327 15.967 16.517 15.839 C 16.963 15.539,17.111 15.013,16.882 14.545 C 16.815 14.407,16.720 14.305,16.436 14.069 C 15.961 13.673,15.813 13.472,15.732 13.111 C 15.709 13.009,15.685 11.942,15.666 10.200 C 15.633 7.211,15.630 7.162,15.429 6.336 C 14.879 4.080,13.404 2.596,11.250 2.132 C 10.970 2.072,10.785 2.059,10.083 2.050 C 9.625 2.044,9.205 2.046,9.150 2.055 M10.319 4.035 C 11.260 4.127,11.892 4.399,12.443 4.950 C 12.890 5.397,13.186 5.899,13.384 6.549 C 13.616 7.310,13.664 7.988,13.666 10.533 C 13.668 12.592,13.709 13.221,13.884 13.908 L 13.907 14.000 10.000 14.000 L 6.093 14.000 6.111 13.925 C 6.144 13.787,6.233 13.286,6.269 13.033 C 6.289 12.891,6.316 11.684,6.332 10.233 C 6.355 8.157,6.370 7.615,6.414 7.317 C 6.682 5.509,7.727 4.335,9.291 4.086 C 9.470 4.057,9.669 4.029,9.733 4.022 C 9.797 4.016,9.874 4.008,9.903 4.005 C 9.931 4.002,10.119 4.016,10.319 4.035 " fill="#1A1C1F" stroke="none" fill-rule="evenodd"></path></svg>