<svg xmlns="http://www.w3.org/2000/svg" width="32" height="32" fill="none"><g clip-path="url(#a)"><path fill="#1A1C1F" fill-rule="evenodd" d="M24.446 12.496c.165.76.26 1.577.278 2.443l.003.311V19c0 2.625.656 3.938 2.531 5.156.281.188.469.5.469.844 0 .551-.404.941-.887.994l-.113.006h-6c0 2.219-1.781 4-4 4a3.987 3.987 0 0 1-3.995-3.8l-.005-.2h-1.785l2-1.999h11.16c-.938-1.378-1.326-3.002-1.37-4.667L22.726 19v-3.75q0-.513-.039-.996zM16.758 2c.493 0 .906.404.962.887l.007.113v3.063c2.04.223 3.725 1.134 4.93 2.592l3.385-3.386a1 1 0 0 1 1.414 0c.361.36.421 1 0 1.414Q16.71 17.435 5.96 28.181a1 1 0 0 1-1.415 0c-.36-.36-.422-.997 0-1.414q1.412-1.416 2.828-2.827c1.035-1.127 1.326-2.656 1.353-4.623L8.727 19v-3.75c0-5.114 2.61-8.578 6.745-9.156l.255-.031V3c0-.525.38-.968.89-1zm1.969 24h-4c0 1.094.906 2 2 2s2-.906 2-2m-2-18c-3.67 0-5.904 2.604-5.997 6.963l-.003.287V19q.002.867-.127 1.712L21.24 10.07C20.207 8.737 18.668 8 16.727 8" clip-rule="evenodd"/></g><defs><clipPath id="a"><path fill="#fff" d="M0 0h32v32H0z"/></clipPath></defs></svg>