<svg width="28" height="28" viewBox="0 0 28 28" fill="none" xmlns="http://www.w3.org/2000/svg"><path d="M13.603 1.847 C 13.155 2.080,13.142 2.135,13.122 3.855 L 13.105 5.306 12.771 5.363 C 11.354 5.605,10.178 6.196,9.240 7.139 C 8.104 8.280,7.422 9.734,7.116 11.667 C 7.055 12.055,7.030 12.722,6.999 14.887 C 6.951 18.188,6.918 18.464,6.464 19.365 C 6.165 19.958,5.809 20.363,5.100 20.914 C 4.478 21.397,4.410 21.494,4.410 21.894 C 4.410 22.171,4.426 22.224,4.553 22.384 C 4.632 22.483,4.779 22.605,4.880 22.657 C 5.056 22.746,5.171 22.751,7.772 22.765 L 10.480 22.779 10.532 23.161 C 10.661 24.096,11.080 24.844,11.838 25.488 C 12.991 26.468,15.009 26.468,16.162 25.488 C 16.920 24.844,17.339 24.096,17.468 23.161 L 17.520 22.779 20.228 22.765 C 22.829 22.751,22.944 22.746,23.120 22.657 C 23.221 22.605,23.368 22.483,23.447 22.384 C 23.574 22.224,23.590 22.171,23.590 21.894 C 23.590 21.494,23.521 21.396,22.900 20.917 C 21.782 20.054,21.301 19.257,21.093 17.920 C 21.059 17.708,21.022 16.485,20.998 14.817 C 20.955 11.802,20.943 11.659,20.628 10.477 C 20.152 8.691,19.199 7.291,17.837 6.379 C 17.096 5.884,16.366 5.589,15.422 5.405 L 14.887 5.301 14.886 4.155 C 14.886 2.901,14.836 2.289,14.721 2.113 C 14.543 1.841,13.906 1.689,13.603 1.847 M14.644 7.050 C 15.275 7.119,15.772 7.253,16.263 7.486 C 16.785 7.734,17.138 7.999,17.631 8.513 C 18.367 9.279,18.739 10.018,19.042 11.317 C 19.152 11.786,19.221 13.210,19.225 15.120 C 19.229 16.610,19.301 17.883,19.413 18.431 C 19.581 19.257,19.935 20.178,20.322 20.802 L 20.445 21.000 14.000 21.000 L 7.555 21.000 7.678 20.802 C 8.017 20.257,8.426 19.208,8.557 18.549 C 8.709 17.785,8.736 17.321,8.774 14.770 C 8.816 11.992,8.837 11.715,9.072 10.846 C 9.311 9.966,9.774 9.108,10.340 8.498 C 11.370 7.385,12.927 6.862,14.644 7.050 M15.713 23.003 C 15.677 23.305,15.444 23.757,15.207 23.988 C 15.102 24.089,14.877 24.241,14.707 24.325 C 14.432 24.460,14.355 24.477,14.001 24.477 C 13.653 24.477,13.566 24.459,13.300 24.332 C 13.133 24.253,12.908 24.101,12.800 23.995 C 12.556 23.757,12.324 23.307,12.287 23.003 L 12.260 22.773 14.000 22.773 L 15.740 22.773 15.713 23.003 " fill="#1A1C1F" stroke="none" fill-rule="evenodd"></path></svg>