<svg xmlns="http://www.w3.org/2000/svg" width="32" height="32" fill="none"><path fill="#1A1C1F" fill-rule="evenodd" d="M16.24 2.126c-.212.132-.38.32-.45.504-.036.095-.057.761-.057 1.8 0 1.639 0 1.65-.111 1.65-.062 0-.346.048-.633.106-3.412.695-5.633 3.356-6.16 7.38-.063.475-.083 1.162-.084 2.85-.002 3.602-.083 4.762-.404 5.78-.325 1.029-.531 1.305-2.375 3.164-.872.88-1.611 1.668-1.643 1.75-.088.234-.067.568.052.814.204.42.692.63 1.174.504.219-.058 1.08-.904 11.052-10.872 5.948-5.945 10.876-10.898 10.952-11.005a1.01 1.01 0 0 0-.373-1.468c-.196-.101-.653-.111-.836-.018-.072.036-.924.857-1.895 1.824l-1.763 1.758-.505-.499a7.2 7.2 0 0 0-3.87-1.99l-.543-.095-.019-1.632c-.014-1.164-.039-1.677-.088-1.791a1.27 1.27 0 0 0-.498-.538c-.212-.11-.728-.097-.923.024m1.308 5.93c.958.119 1.785.417 2.512.906.324.218 1.167 1.015 1.167 1.103 0 .023-2.391 2.43-5.312 5.348-4.631 4.627-5.308 5.283-5.276 5.12.019-.102.055-1.602.079-3.333.045-3.302.066-3.612.322-4.612.668-2.617 2.356-4.216 4.781-4.527a7.5 7.5 0 0 1 1.727-.005m5.998 5.344-.853.867.031 2.986c.033 3.165.04 3.263.323 4.374.158.624.494 1.448.79 1.941l.259.432H12.932l-.973.974c-.535.535-.972.991-.972 1.013s.396.04.88.04h.88v.258c0 .38.184 1.043.424 1.528.498 1.007 1.533 1.822 2.648 2.085.515.122 1.377.111 1.888-.022 1.445-.379 2.547-1.492 2.885-2.914.057-.236.116-.543.132-.682l.029-.253 2.997-.001q2.999 0 3.21-.058c.444-.121.769-.525.772-.957.002-.276-.204-.637-.479-.84-1.591-1.178-2.091-1.905-2.41-3.504-.029-.147-.072-1.695-.096-3.44-.033-2.432-.062-3.305-.127-3.734-.121-.813-.15-.96-.188-.96-.018 0-.417.39-.886.867M18.7 26.276c-.085.624-.576 1.27-1.174 1.547-.281.13-.392.15-.807.15-.436 0-.515-.016-.836-.174a2.06 2.06 0 0 1-1.135-1.546l-.037-.226h4.023z"/></svg>