<svg xmlns="http://www.w3.org/2000/svg" width="24" height="24" fill="none"><g clip-path="url(#a)"><path fill="#1A1C1F" fill-rule="evenodd" d="M12 2c.54 0 .986.446.986 1.01v1.08l.024-.001c3.076.493 4.978 3.146 4.978 7.09l.024 2.816c0 1.831.516 2.512 1.526 3.17.376.234.54.704.423 1.126-.141.423-.517.704-.963.704h-3.734c-.14 1.667-1.55 3.005-3.24 3.005a3.253 3.253 0 0 1-3.241-3.005h-3.78c-.447 0-.823-.281-.964-.704a1.01 1.01 0 0 1 .423-1.127c1.033-.68 1.526-1.314 1.526-3.169v-2.817c0-3.967 1.95-6.643 5.002-7.112V3.009C10.99 2.446 11.436 2 12 2m1.245 16.995h-2.443c.118.564.61.986 1.222.986.587 0 1.08-.422 1.22-.986M11.977 5.991c-2.49 0-3.993 1.948-3.993 5.187v2.817A6.1 6.1 0 0 1 7.35 17h9.3a6.1 6.1 0 0 1-.658-3.005v-2.817c0-3.239-1.503-5.187-4.016-5.187" clip-rule="evenodd"/></g><defs><clipPath id="a"><path fill="#fff" d="M0 0h24v24H0z"/></clipPath></defs></svg>