<svg width="28" height="28" viewBox="0 0 28 28" fill="none" xmlns="http://www.w3.org/2000/svg"><path d="M14.333 1.805 C 14.147 1.844,13.832 2.198,13.798 2.406 C 13.781 2.507,13.767 3.178,13.766 3.897 C 13.766 4.615,13.750 5.225,13.731 5.253 C 13.712 5.280,13.466 5.349,13.183 5.407 C 11.783 5.695,10.824 6.201,9.864 7.159 C 8.853 8.167,8.212 9.416,7.867 11.052 C 7.689 11.895,7.653 12.430,7.653 14.250 C 7.652 16.052,7.592 17.801,7.512 18.410 C 7.442 18.936,7.262 19.592,7.078 19.987 C 6.857 20.464,6.528 20.852,5.133 22.283 C 4.458 22.976,3.867 23.606,3.820 23.683 C 3.570 24.090,3.883 24.738,4.396 24.876 C 4.721 24.963,4.867 24.903,5.335 24.489 C 5.571 24.280,9.884 19.991,14.920 14.958 C 22.039 7.842,24.097 5.760,24.170 5.598 C 24.288 5.340,24.290 5.118,24.178 4.877 C 24.017 4.527,23.780 4.387,23.352 4.387 L 23.096 4.387 22.503 4.943 C 22.177 5.249,21.449 5.961,20.886 6.527 L 19.863 7.555 19.555 7.266 C 19.122 6.859,18.782 6.578,18.457 6.360 C 17.788 5.912,16.875 5.551,16.001 5.389 L 15.552 5.305 15.531 3.874 C 15.509 2.268,15.500 2.225,15.151 1.942 C 15.010 1.828,14.929 1.801,14.711 1.792 C 14.564 1.786,14.394 1.792,14.333 1.805 M15.657 7.095 C 16.373 7.225,17.133 7.539,17.633 7.910 C 17.778 8.018,18.052 8.256,18.241 8.439 L 18.585 8.771 18.211 9.181 C 17.669 9.773,9.666 17.739,9.483 17.868 L 9.329 17.976 9.357 16.186 C 9.404 13.210,9.460 11.940,9.568 11.421 C 10.097 8.873,11.624 7.334,13.907 7.049 C 14.317 6.998,15.257 7.023,15.657 7.095 M20.603 11.713 L 19.858 12.460 19.872 14.525 C 19.890 17.127,19.935 17.976,20.088 18.606 C 20.289 19.430,20.527 20.051,20.866 20.635 C 20.965 20.806,21.047 20.958,21.047 20.973 C 21.047 20.988,18.857 21.000,16.181 21.000 L 11.316 21.000 10.488 21.829 C 10.033 22.285,9.660 22.684,9.660 22.715 C 9.660 22.759,9.842 22.773,10.400 22.773 L 11.140 22.773 11.168 23.113 C 11.233 23.873,11.593 24.621,12.176 25.204 C 12.581 25.609,13.019 25.884,13.557 26.071 C 13.900 26.191,13.986 26.202,14.630 26.202 C 15.245 26.203,15.369 26.190,15.657 26.093 C 16.281 25.881,16.605 25.678,17.082 25.202 C 17.697 24.586,17.959 24.060,18.107 23.137 L 18.165 22.778 20.878 22.764 L 23.590 22.750 23.788 22.637 C 24.041 22.492,24.225 22.226,24.254 21.963 C 24.292 21.625,24.114 21.359,23.563 20.930 C 22.427 20.044,21.895 19.189,21.750 18.013 C 21.723 17.795,21.679 16.420,21.652 14.957 C 21.626 13.494,21.584 12.139,21.560 11.947 C 21.486 11.363,21.413 10.967,21.380 10.967 C 21.363 10.967,21.013 11.303,20.603 11.713 M16.358 22.993 C 16.279 23.517,15.817 24.119,15.318 24.349 C 15.093 24.453,14.983 24.473,14.630 24.475 C 14.257 24.476,14.179 24.461,13.931 24.339 C 13.604 24.179,13.259 23.852,13.110 23.561 C 13.011 23.367,12.882 22.957,12.881 22.832 C 12.880 22.786,13.262 22.773,14.635 22.773 L 16.391 22.773 16.358 22.993 " fill="#1A1C1F" stroke="none" fill-rule="evenodd"></path></svg>