<svg width="32" height="32" viewBox="0 0 32 32" fill="none" xmlns="http://www.w3.org/2000/svg"><path d="M15.547 2.111 C 15.035 2.378,15.020 2.441,14.997 4.403 L 14.978 6.060 14.362 6.177 C 12.833 6.470,11.602 7.111,10.560 8.158 C 9.261 9.463,8.482 11.125,8.133 13.333 C 8.062 13.777,8.035 14.539,7.999 17.013 C 7.943 20.831,7.906 21.128,7.354 22.191 C 6.995 22.883,6.668 23.231,5.499 24.169 C 5.109 24.481,5.001 24.690,5.027 25.079 C 5.050 25.441,5.240 25.722,5.577 25.893 C 5.778 25.996,5.910 26.001,8.882 26.017 L 11.977 26.034 12.037 26.470 C 12.184 27.538,12.663 28.393,13.529 29.129 C 14.847 30.249,17.153 30.249,18.471 29.129 C 19.337 28.393,19.816 27.538,19.963 26.470 L 20.023 26.034 23.118 26.017 C 26.090 26.001,26.222 25.996,26.423 25.893 C 26.539 25.835,26.707 25.694,26.797 25.582 C 26.942 25.399,26.960 25.338,26.960 25.022 C 26.960 24.564,26.881 24.453,26.172 23.905 C 25.363 23.280,24.938 22.788,24.567 22.046 C 24.096 21.104,24.056 20.740,24.000 16.960 C 23.949 13.486,23.935 13.323,23.575 11.973 C 22.991 9.781,21.779 8.106,20.024 7.066 C 19.236 6.599,18.442 6.317,17.373 6.126 L 17.013 6.062 17.013 4.751 C 17.012 3.316,16.956 2.616,16.824 2.415 C 16.620 2.104,15.893 1.930,15.547 2.111 M16.735 8.057 C 17.457 8.136,18.025 8.289,18.587 8.556 C 19.198 8.846,19.608 9.159,20.197 9.782 C 20.965 10.595,21.373 11.394,21.715 12.747 C 21.856 13.303,21.875 13.488,21.920 14.747 C 21.948 15.509,21.971 16.661,21.972 17.307 C 21.976 18.982,22.059 20.439,22.186 21.066 C 22.364 21.938,22.769 23.021,23.147 23.635 C 23.235 23.778,23.307 23.919,23.307 23.947 C 23.307 23.982,20.761 24.000,16.000 24.000 C 11.440 24.000,8.693 23.981,8.693 23.950 C 8.693 23.922,8.778 23.755,8.881 23.580 C 9.263 22.927,9.631 21.930,9.813 21.054 C 9.944 20.427,10.024 18.983,10.028 17.200 C 10.031 15.299,10.111 13.483,10.213 12.987 C 10.398 12.086,10.794 11.111,11.260 10.405 C 12.400 8.680,14.439 7.805,16.735 8.057 M17.957 26.289 C 17.916 26.636,17.650 27.151,17.372 27.423 C 17.248 27.544,16.991 27.717,16.800 27.808 C 16.497 27.953,16.397 27.973,16.000 27.973 C 15.603 27.973,15.503 27.953,15.200 27.808 C 15.009 27.717,14.752 27.544,14.628 27.423 C 14.350 27.151,14.084 26.636,14.043 26.289 L 14.012 26.027 16.000 26.027 L 17.988 26.027 17.957 26.289 " fill="#1A1C1F" stroke="none" fill-rule="evenodd"></path></svg>