<svg xmlns="http://www.w3.org/2000/svg" width="12" height="12" fill="none"><g clip-path="url(#a)"><path fill="#1A1C1F" fill-rule="evenodd" d="M5.994 1.2c2.039 0 3.398 1.499 3.398 3.735v2.341c0 .75.093.89.527 1.206a.61.61 0 0 1 .281.503c0 .281-.21.597-.539.597h-2.46v.012c0 .668-.539 1.206-1.207 1.206-.62 0-1.206-.539-1.206-1.218h-2.39c-.375 0-.598-.304-.598-.608 0-.164.059-.328.21-.445.493-.316.587-.492.587-1.288V5.099c0-2.33 1.324-3.899 3.397-3.899" clip-rule="evenodd"/></g><defs><clipPath id="a"><path fill="#fff" d="M0 0h12v12H0z"/></clipPath></defs></svg>