<svg width="16" height="16" viewBox="0 0 16 16" fill="none" xmlns="http://www.w3.org/2000/svg"><path d="M7.320 1.644 C 6.448 1.780,5.676 2.125,5.114 2.631 C 4.358 3.310,3.912 4.084,3.642 5.182 C 3.501 5.757,3.495 5.849,3.466 8.053 C 3.451 9.190,3.427 10.226,3.412 10.355 C 3.371 10.725,3.241 10.942,2.900 11.215 C 2.456 11.571,2.415 11.637,2.418 11.980 C 2.420 12.147,2.434 12.214,2.492 12.332 C 2.573 12.498,2.761 12.677,2.903 12.725 C 2.973 12.748,3.464 12.760,4.684 12.767 L 6.369 12.776 6.387 12.915 C 6.485 13.641,6.998 14.206,7.702 14.363 C 8.030 14.436,8.422 14.378,8.760 14.207 C 8.900 14.136,9.337 13.697,9.409 13.555 C 9.488 13.400,9.600 13.002,9.600 12.877 L 9.600 12.773 11.331 12.773 L 13.061 12.773 13.213 12.671 C 13.569 12.432,13.689 12.010,13.507 11.639 C 13.455 11.532,13.375 11.446,13.150 11.257 C 12.826 10.985,12.749 10.895,12.646 10.673 C 12.580 10.528,12.575 10.489,12.557 9.947 C 12.546 9.631,12.536 8.797,12.534 8.093 C 12.528 5.985,12.492 5.537,12.267 4.781 C 11.781 3.147,10.622 2.055,9.000 1.706 C 8.776 1.657,8.628 1.647,8.067 1.640 C 7.700 1.635,7.364 1.637,7.320 1.644 " fill="#1A1C1F" stroke="none" fill-rule="evenodd"></path></svg>