<svg width="24" height="24" viewBox="0 0 24 24" fill="none" xmlns="http://www.w3.org/2000/svg"><path d="M12.251 2.039 C 12.001 2.098,11.721 2.327,11.589 2.580 C 11.518 2.718,11.504 2.831,11.488 3.406 L 11.470 4.072 11.225 4.120 C 10.624 4.238,9.856 4.550,9.334 4.888 C 8.797 5.237,8.127 5.905,7.747 6.472 C 7.250 7.214,6.833 8.334,6.619 9.500 C 6.533 9.969,6.486 11.678,6.483 14.477 L 6.480 16.614 5.123 17.980 C 4.377 18.731,3.711 19.434,3.643 19.541 C 3.545 19.697,3.520 19.779,3.520 19.953 C 3.520 20.374,3.679 20.662,4.023 20.864 C 4.249 20.997,4.613 21.037,4.785 20.948 C 5.038 20.817,6.160 19.723,11.435 14.461 C 17.479 8.432,20.319 5.555,20.420 5.360 C 20.633 4.949,20.359 4.289,19.894 4.095 C 19.694 4.011,19.208 4.023,19.056 4.116 C 18.988 4.157,18.497 4.619,17.965 5.142 L 16.997 6.093 16.548 5.653 C 15.741 4.861,15.054 4.469,14.020 4.208 C 13.778 4.147,13.558 4.083,13.530 4.066 C 13.494 4.044,13.480 3.874,13.480 3.448 C 13.480 2.781,13.450 2.631,13.268 2.393 C 13.054 2.113,12.602 1.955,12.251 2.039 M13.009 6.041 C 13.672 6.117,14.389 6.410,14.828 6.785 C 15.166 7.074,15.480 7.413,15.480 7.488 C 15.480 7.597,14.580 8.528,11.403 11.700 L 8.480 14.620 8.481 13.100 C 8.483 10.070,8.582 9.244,9.059 8.251 C 9.322 7.704,9.507 7.420,9.818 7.087 C 10.596 6.256,11.706 5.891,13.009 6.041 M17.443 11.297 L 16.468 12.273 16.493 13.646 C 16.511 14.624,16.536 15.106,16.579 15.319 C 16.656 15.701,16.846 16.313,16.997 16.665 C 17.102 16.912,17.107 16.943,17.047 16.967 C 17.010 16.982,15.801 16.996,14.360 16.997 L 11.739 17.000 10.544 18.196 L 9.349 19.391 9.378 19.546 C 9.459 19.982,9.917 20.765,10.290 21.103 C 11.038 21.779,12.048 22.105,12.960 21.963 C 13.342 21.904,13.856 21.727,14.150 21.555 C 14.483 21.360,15.113 20.720,15.313 20.374 C 15.490 20.068,15.697 19.499,15.741 19.194 L 15.768 19.008 17.774 18.994 L 19.780 18.980 19.966 18.871 C 20.338 18.652,20.497 18.364,20.469 17.956 C 20.443 17.570,20.344 17.425,19.830 17.016 C 18.925 16.295,18.650 15.769,18.562 14.585 C 18.541 14.296,18.514 13.256,18.501 12.272 C 18.489 11.289,18.465 10.448,18.449 10.403 C 18.422 10.331,18.292 10.447,17.443 11.297 M13.720 19.050 C 13.719 19.158,13.475 19.518,13.296 19.675 C 13.165 19.791,13.024 19.867,12.835 19.924 C 12.595 19.997,12.538 20.001,12.332 19.959 C 11.890 19.867,11.601 19.659,11.428 19.305 C 11.369 19.184,11.320 19.076,11.320 19.065 C 11.320 19.021,11.549 19.011,12.610 19.005 C 13.474 19.001,13.720 19.011,13.720 19.050 " fill="#1A1C1F" stroke="none" fill-rule="evenodd"></path></svg>