<svg width="14" height="14" viewBox="0 0 14 14" fill="none" xmlns="http://www.w3.org/2000/svg"><path d="M6.405 1.439 C 6.206 1.471,5.786 1.570,5.629 1.623 C 4.863 1.880,4.084 2.547,3.642 3.325 C 3.392 3.764,3.172 4.451,3.080 5.079 C 3.068 5.167,3.046 6.052,3.033 7.047 C 3.020 8.041,2.998 8.948,2.986 9.061 C 2.949 9.384,2.836 9.574,2.538 9.813 C 2.157 10.118,2.115 10.183,2.113 10.465 C 2.112 10.609,2.124 10.677,2.163 10.762 C 2.228 10.905,2.419 11.094,2.534 11.133 C 2.603 11.156,2.980 11.165,4.099 11.171 L 5.573 11.179 5.589 11.300 C 5.675 11.938,6.129 12.437,6.744 12.567 C 7.034 12.629,7.373 12.579,7.665 12.431 C 7.788 12.369,8.170 11.985,8.233 11.861 C 8.302 11.725,8.400 11.376,8.400 11.267 L 8.400 11.177 9.914 11.177 L 11.429 11.177 11.562 11.087 C 11.874 10.877,11.978 10.509,11.818 10.181 C 11.770 10.085,11.704 10.014,11.506 9.849 C 11.172 9.571,11.069 9.430,11.013 9.178 C 10.997 9.107,10.979 8.356,10.966 7.140 C 10.943 5.027,10.942 5.008,10.791 4.402 C 10.406 2.849,9.368 1.814,7.875 1.492 C 7.679 1.450,7.549 1.441,7.058 1.435 C 6.738 1.431,6.443 1.433,6.405 1.439 M7.488 2.861 C 8.275 2.982,8.871 3.440,9.219 4.191 C 9.512 4.822,9.565 5.306,9.566 7.350 C 9.567 8.795,9.597 9.257,9.719 9.736 L 9.735 9.800 7.003 9.800 C 5.500 9.800,4.270 9.797,4.270 9.794 C 4.270 9.791,4.291 9.681,4.317 9.549 C 4.404 9.096,4.413 8.925,4.433 7.152 C 4.449 5.713,4.460 5.329,4.491 5.115 C 4.672 3.862,5.411 3.034,6.504 2.860 C 6.908 2.796,7.068 2.796,7.488 2.861 " fill="#1A1C1F" stroke="none" fill-rule="evenodd"></path></svg>