<svg width="20" height="20" viewBox="0 0 20 20" fill="none" xmlns="http://www.w3.org/2000/svg"><path d="M8.850 2.090 C 8.389 2.159,7.556 2.375,7.189 2.520 C 6.755 2.693,5.954 3.103,5.610 3.329 C 4.699 3.928,3.770 4.877,3.205 5.789 C 2.671 6.649,2.279 7.701,2.098 8.756 C 2.035 9.120,2.024 9.309,2.024 10.033 C 2.024 10.813,2.032 10.921,2.112 11.338 C 2.546 13.599,3.776 15.461,5.655 16.701 C 7.107 17.660,8.955 18.125,10.683 17.966 C 12.848 17.768,14.858 16.695,16.210 15.017 C 17.017 14.015,17.583 12.806,17.851 11.510 C 18.063 10.484,18.031 9.156,17.767 8.100 C 17.410 6.673,16.731 5.451,15.726 4.427 C 14.437 3.114,12.727 2.270,10.950 2.068 C 10.505 2.017,9.247 2.031,8.850 2.090 M14.461 7.683 L 14.939 8.150 11.778 11.288 L 8.618 14.426 7.455 13.288 C 6.815 12.662,6.014 11.880,5.675 11.550 L 5.058 10.950 5.781 10.253 L 6.505 9.555 7.544 10.594 L 8.584 11.633 11.033 9.184 L 13.482 6.734 13.733 6.975 C 13.871 7.108,14.198 7.426,14.461 7.683 " fill="#1A1C1F" stroke="none" fill-rule="evenodd"></path></svg>