<svg xmlns="http://www.w3.org/2000/svg" width="28" height="28" fill="none"><g clip-path="url(#a)"><path fill="#1A1C1F" fill-rule="evenodd" d="M14 1.75c6.754 0 12.25 5.496 12.25 12.25S20.754 26.25 14 26.25 1.75 20.754 1.75 14 7.246 1.75 14 1.75m6.101 7.492a.85.85 0 0 0-.605.246l-7.629 7.657-3.336-3.336a.87.87 0 0 0-.603-.26.897.897 0 0 0-.894.889c0 .225.09.45.267.628l3.937 3.938.082.054c.165.128.36.19.551.19.22 0 .437-.083.598-.244l8.258-8.258c.208-.208.29-.422.29-.622 0-.467-.42-.882-.916-.882" clip-rule="evenodd"/></g><defs><clipPath id="a"><path fill="#fff" d="M0 0h28v28H0z"/></clipPath></defs></svg>