<svg width="32" height="32" viewBox="0 0 32 32" fill="none" xmlns="http://www.w3.org/2000/svg"><path d="M14.347 2.112 C 12.601 2.342,11.174 2.779,9.653 3.550 C 7.249 4.769,5.197 6.722,3.846 9.077 C 2.935 10.665,2.282 12.679,2.083 14.518 C 2.001 15.269,2.014 16.885,2.107 17.635 C 2.310 19.282,2.748 20.750,3.462 22.187 C 5.630 26.546,9.890 29.483,14.687 29.925 C 15.536 30.003,17.310 29.959,18.050 29.841 C 21.046 29.365,23.563 28.114,25.726 26.028 C 28.137 23.702,29.615 20.635,29.924 17.313 C 30.003 16.468,29.959 14.694,29.842 13.956 C 29.363 10.947,28.139 8.473,26.056 6.304 C 24.295 4.470,21.991 3.114,19.565 2.485 C 18.463 2.199,18.020 2.135,16.737 2.080 C 15.264 2.016,15.047 2.019,14.347 2.112 M17.387 4.111 C 19.376 4.282,21.722 5.248,23.436 6.601 C 24.746 7.636,25.924 9.081,26.673 10.573 C 27.406 12.033,27.745 13.159,27.895 14.629 C 27.981 15.474,27.936 17.476,27.818 18.053 C 27.553 19.344,27.288 20.146,26.778 21.202 C 26.131 22.543,25.379 23.582,24.300 24.627 C 22.928 25.956,21.541 26.783,19.627 27.416 C 16.038 28.602,12.077 27.953,8.907 25.660 C 8.276 25.204,7.190 24.175,6.705 23.573 C 5.534 22.122,4.633 20.209,4.231 18.320 C 4.089 17.654,4.083 17.566,4.082 16.053 C 4.080 14.380,4.090 14.275,4.379 13.108 C 4.761 11.567,5.521 9.984,6.498 8.695 C 6.916 8.143,7.934 7.102,8.479 6.668 C 10.029 5.434,11.966 4.546,13.838 4.212 C 14.974 4.008,15.895 3.982,17.387 4.111 M22.726 10.599 C 22.562 10.630,21.882 11.288,17.323 15.834 L 13.553 19.593 11.545 17.607 C 10.440 16.514,9.477 15.598,9.405 15.570 C 9.045 15.433,8.505 15.576,8.275 15.869 C 7.979 16.244,7.987 16.720,8.296 17.106 C 8.708 17.622,12.951 21.815,13.142 21.895 C 13.245 21.938,13.449 21.973,13.593 21.973 C 13.819 21.973,13.895 21.943,14.117 21.768 C 14.449 21.505,21.305 14.697,22.803 13.141 C 23.740 12.169,23.945 11.928,23.975 11.768 C 24.060 11.315,23.858 10.930,23.417 10.707 C 23.140 10.566,23.007 10.545,22.726 10.599 " fill="#1A1C1F" stroke="none" fill-rule="evenodd"></path></svg>