<svg width="12" height="12" viewBox="0 0 12 12" fill="none" xmlns="http://www.w3.org/2000/svg"><path d="M5.340 1.248 C 4.770 1.336,4.369 1.465,3.853 1.725 C 2.600 2.357,1.719 3.439,1.360 4.788 C 1.184 5.449,1.157 6.270,1.289 6.911 C 1.492 7.894,1.965 8.757,2.683 9.451 C 3.058 9.814,3.385 10.046,3.850 10.281 C 6.131 11.433,8.891 10.594,10.167 8.360 C 10.410 7.934,10.607 7.407,10.711 6.906 C 10.839 6.286,10.819 5.496,10.660 4.860 C 10.519 4.295,10.296 3.790,9.979 3.318 C 9.360 2.397,8.365 1.680,7.300 1.388 C 6.816 1.255,6.667 1.236,6.060 1.229 C 5.677 1.224,5.458 1.230,5.340 1.248 M8.836 4.765 L 8.962 4.893 7.066 6.774 L 5.170 8.654 4.240 7.747 C 3.729 7.247,3.249 6.778,3.174 6.703 L 3.038 6.568 3.470 6.150 L 3.903 5.733 4.527 6.357 L 5.150 6.980 6.619 5.511 L 8.087 4.042 8.399 4.340 C 8.570 4.503,8.767 4.695,8.836 4.765 " fill="#1A1C1F" stroke="none" fill-rule="evenodd"></path></svg>