<svg xmlns="http://www.w3.org/2000/svg" width="24" height="24" fill="none"><g clip-path="url(#a)"><path fill="#1A1C1F" fill-rule="evenodd" d="M12 2a9.99 9.99 0 0 1 10 10 9.99 9.99 0 0 1-10 10A9.99 9.99 0 0 1 2 12 9.99 9.99 0 0 1 12 2m4.5 6.375a.97.97 0 0 0-.687.281l-5.657 5.656-2.031-2c-.219-.218-.406-.312-.687-.312-.532 0-1 .438-1 1 0 .25.093.531.28.719l2.72 2.719c.218.218.437.312.687.312.281 0 .531-.125.719-.312l6.375-6.344a1 1 0 0 0 .312-.75c0-.5-.468-.969-1.031-.969" clip-rule="evenodd"/></g><defs><clipPath id="a"><path fill="#fff" d="M0 0h24v24H0z"/></clipPath></defs></svg>