<svg width="14" height="14" viewBox="0 0 14 14" fill="none" xmlns="http://www.w3.org/2000/svg"><path d="M6.195 1.463 C 5.872 1.511,5.289 1.662,5.032 1.764 C 4.707 1.893,4.145 2.184,3.897 2.352 C 3.445 2.657,2.930 3.130,2.609 3.535 C 2.030 4.265,1.635 5.164,1.468 6.129 C 1.424 6.385,1.417 6.514,1.417 7.023 C 1.417 7.568,1.422 7.645,1.478 7.937 C 1.783 9.523,2.640 10.819,3.967 11.697 C 4.101 11.786,4.369 11.936,4.562 12.029 C 6.549 12.995,8.884 12.707,10.592 11.285 C 10.837 11.080,11.261 10.633,11.457 10.372 C 12.094 9.523,12.506 8.451,12.578 7.455 C 12.672 6.158,12.350 4.925,11.642 3.871 C 10.752 2.547,9.242 1.627,7.665 1.448 C 7.354 1.412,6.473 1.421,6.195 1.463 M10.134 5.390 L 10.457 5.705 8.244 7.901 L 6.032 10.098 5.218 9.301 C 4.771 8.863,4.210 8.316,3.973 8.085 L 3.541 7.665 4.047 7.177 L 4.553 6.689 5.281 7.416 L 6.009 8.143 7.723 6.429 L 9.438 4.714 9.625 4.894 C 9.728 4.994,9.957 5.217,10.134 5.390 " fill="#1A1C1F" stroke="none" fill-rule="evenodd"></path></svg>