<svg width="16" height="16" viewBox="0 0 16 16" fill="none" xmlns="http://www.w3.org/2000/svg"><path d="M7.120 1.666 C 6.380 1.775,5.828 1.952,5.138 2.300 C 3.336 3.209,2.128 4.794,1.719 6.787 C 1.575 7.485,1.576 8.526,1.720 9.223 C 1.878 9.986,2.232 10.854,2.642 11.480 C 3.264 12.430,4.122 13.198,5.133 13.708 C 8.175 15.244,11.854 14.125,13.555 11.147 C 13.880 10.579,14.142 9.877,14.281 9.208 C 14.451 8.387,14.425 7.324,14.214 6.480 C 13.844 4.999,13.016 3.760,11.795 2.861 C 10.890 2.194,9.842 1.777,8.760 1.654 C 8.434 1.617,7.399 1.625,7.120 1.666 M11.569 6.146 L 11.951 6.520 9.423 9.031 L 6.894 11.541 5.964 10.631 C 5.452 10.130,4.811 9.504,4.540 9.240 L 4.046 8.760 4.625 8.202 L 5.204 7.644 6.035 8.475 L 6.867 9.307 8.826 7.347 L 10.786 5.387 10.986 5.580 C 11.097 5.686,11.359 5.941,11.569 6.146 " fill="#1A1C1F" stroke="none" fill-rule="evenodd"></path></svg>