<svg width="28" height="28" viewBox="0 0 28 28" fill="none" xmlns="http://www.w3.org/2000/svg"><path d="M12.536 1.849 C 10.599 2.097,8.834 2.753,7.224 3.824 C 4.383 5.713,2.521 8.594,1.913 12.040 C 1.782 12.780,1.734 14.416,1.818 15.243 C 2.001 17.046,2.666 18.985,3.612 20.476 C 4.517 21.902,5.907 23.322,7.289 24.232 C 8.834 25.250,10.668 25.920,12.557 26.156 C 13.230 26.240,14.614 26.253,15.260 26.181 C 18.821 25.784,21.902 23.970,24.019 21.023 C 25.207 19.370,25.991 17.243,26.184 15.149 C 26.252 14.409,26.214 12.854,26.112 12.212 C 25.693 9.579,24.622 7.414,22.799 5.516 C 21.258 3.911,19.242 2.725,17.119 2.174 C 16.156 1.924,15.768 1.868,14.645 1.820 C 13.363 1.765,13.173 1.767,12.536 1.849 M15.202 3.595 C 16.302 3.694,17.505 4.048,18.617 4.600 C 19.680 5.128,20.447 5.663,21.252 6.438 C 22.882 8.009,23.962 10.033,24.340 12.227 C 24.441 12.815,24.485 14.714,24.410 15.286 C 24.175 17.087,23.431 18.908,22.336 20.363 C 21.781 21.101,20.841 22.005,20.032 22.579 C 18.330 23.788,16.094 24.500,14.000 24.500 C 12.451 24.500,10.698 24.085,9.310 23.391 C 7.710 22.590,6.237 21.273,5.227 19.740 C 4.552 18.716,3.976 17.305,3.703 16.007 C 3.574 15.396,3.570 15.333,3.570 14.000 C 3.570 12.524,3.587 12.368,3.859 11.317 C 4.196 10.011,4.940 8.544,5.835 7.419 C 6.226 6.928,7.134 6.042,7.623 5.676 C 8.932 4.695,10.441 4.010,11.919 3.728 C 13.063 3.509,13.877 3.476,15.202 3.595 M19.886 9.274 C 19.741 9.301,19.158 9.866,15.181 13.831 L 11.859 17.144 10.103 15.407 C 9.138 14.451,8.295 13.649,8.231 13.624 C 7.915 13.504,7.442 13.629,7.240 13.885 C 6.982 14.214,6.989 14.630,7.259 14.968 C 7.619 15.420,11.332 19.088,11.499 19.158 C 11.590 19.196,11.767 19.227,11.894 19.227 C 12.091 19.227,12.158 19.201,12.352 19.047 C 12.643 18.817,18.642 12.860,19.953 11.499 C 20.772 10.648,20.952 10.437,20.978 10.297 C 21.053 9.900,20.876 9.564,20.490 9.368 C 20.248 9.246,20.131 9.227,19.886 9.274 " fill="#1A1C1F" stroke="none" fill-rule="evenodd"></path></svg>