<svg width="20" height="20" viewBox="0 0 20 20" fill="none" xmlns="http://www.w3.org/2000/svg"><path d="M8.850 2.088 C 8.382 2.161,7.551 2.377,7.189 2.520 C 6.691 2.717,5.850 3.161,5.470 3.426 C 3.616 4.724,2.418 6.651,2.079 8.883 C 1.995 9.442,1.995 10.562,2.080 11.117 C 2.214 11.987,2.442 12.714,2.833 13.517 C 3.203 14.278,3.692 14.968,4.293 15.580 C 6.830 18.162,10.718 18.738,13.851 16.997 C 17.144 15.166,18.731 11.318,17.667 7.741 C 17.189 6.133,16.148 4.635,14.804 3.623 C 13.831 2.890,12.615 2.357,11.400 2.130 C 10.882 2.033,9.366 2.008,8.850 2.088 M10.538 4.035 C 12.670 4.251,14.460 5.488,15.381 7.382 C 15.924 8.498,16.091 9.596,15.915 10.891 C 15.827 11.535,15.675 12.018,15.360 12.647 C 14.728 13.912,13.824 14.810,12.583 15.404 C 9.884 16.696,6.667 15.805,5.010 13.306 C 3.676 11.293,3.683 8.690,5.030 6.665 C 5.477 5.991,5.991 5.477,6.665 5.030 C 7.827 4.257,9.214 3.901,10.538 4.035 M10.815 9.047 L 8.847 10.993 8.137 10.307 L 7.428 9.622 6.728 10.322 L 6.028 11.022 7.432 12.403 C 8.204 13.162,8.847 13.787,8.860 13.792 C 8.873 13.796,10.076 12.608,11.533 11.150 L 14.183 8.500 13.483 7.801 L 12.783 7.102 10.815 9.047 " fill="#1A1C1F" stroke="none" fill-rule="evenodd"></path></svg>