<svg width="14" height="14" viewBox="0 0 14 14" fill="none" xmlns="http://www.w3.org/2000/svg"><path d="M6.195 1.462 C 5.866 1.512,5.285 1.664,5.032 1.764 C 4.727 1.885,4.167 2.172,3.927 2.330 C 3.108 2.869,2.415 3.657,1.983 4.538 C 1.712 5.091,1.547 5.617,1.456 6.218 C 1.396 6.610,1.396 7.393,1.456 7.782 C 1.604 8.742,1.954 9.580,2.537 10.367 C 2.757 10.664,3.323 11.232,3.617 11.451 C 4.482 12.096,5.456 12.474,6.523 12.579 C 6.855 12.612,7.469 12.594,7.805 12.542 C 9.322 12.307,10.672 11.475,11.566 10.226 C 12.258 9.258,12.638 7.993,12.593 6.804 C 12.538 5.357,11.934 4.005,10.892 2.997 C 10.441 2.560,10.059 2.289,9.499 2.008 C 8.975 1.745,8.529 1.593,7.980 1.491 C 7.618 1.423,6.556 1.406,6.195 1.462 M7.377 2.824 C 9.431 3.032,10.980 4.591,11.177 6.650 C 11.228 7.183,11.138 7.885,10.952 8.406 C 10.867 8.643,10.638 9.094,10.482 9.330 C 10.065 9.963,9.506 10.449,8.808 10.783 C 6.919 11.687,4.667 11.064,3.507 9.314 C 2.236 7.396,2.757 4.790,4.666 3.521 C 5.479 2.980,6.450 2.731,7.377 2.824 M7.570 6.333 L 6.192 7.695 5.696 7.215 L 5.200 6.736 4.709 7.226 L 4.219 7.716 5.202 8.682 C 5.743 9.213,6.192 9.651,6.202 9.654 C 6.211 9.657,7.053 8.825,8.073 7.805 L 9.928 5.950 9.438 5.461 L 8.948 4.972 7.570 6.333 " fill="#1A1C1F" stroke="none" fill-rule="evenodd"></path></svg>