<svg width="28" height="28" viewBox="0 0 28 28" fill="none" xmlns="http://www.w3.org/2000/svg"><path d="M12.536 1.849 C 10.599 2.097,8.834 2.753,7.224 3.824 C 4.383 5.713,2.521 8.594,1.913 12.040 C 1.782 12.780,1.734 14.416,1.818 15.243 C 2.001 17.046,2.666 18.985,3.612 20.476 C 4.517 21.902,5.907 23.322,7.289 24.232 C 8.834 25.250,10.668 25.920,12.557 26.156 C 13.230 26.240,14.614 26.253,15.260 26.181 C 18.821 25.784,21.902 23.970,24.019 21.023 C 25.207 19.370,25.991 17.243,26.184 15.149 C 26.252 14.409,26.214 12.854,26.112 12.212 C 25.693 9.579,24.622 7.414,22.799 5.516 C 21.258 3.911,19.242 2.725,17.119 2.174 C 16.156 1.924,15.768 1.868,14.645 1.820 C 13.363 1.765,13.173 1.767,12.536 1.849 M20.481 9.362 C 20.912 9.577,21.086 9.978,20.929 10.395 C 20.857 10.587,20.298 11.164,16.735 14.726 C 14.473 16.986,12.511 18.923,12.374 19.031 C 12.158 19.201,12.095 19.227,11.894 19.227 C 11.767 19.227,11.593 19.197,11.507 19.161 C 11.328 19.086,9.142 16.951,7.906 15.643 C 7.172 14.867,7.096 14.771,7.068 14.585 C 6.990 14.067,7.391 13.581,7.895 13.580 C 8.016 13.580,8.166 13.600,8.231 13.624 C 8.295 13.649,9.138 14.451,10.103 15.407 L 11.859 17.144 15.181 13.831 C 19.158 9.866,19.741 9.301,19.886 9.274 C 20.129 9.228,20.245 9.245,20.481 9.362 " fill="#1A1C1F" stroke="none" fill-rule="evenodd"></path></svg>