<svg xmlns="http://www.w3.org/2000/svg" width="32" height="32" fill="none"><g clip-path="url(#a)"><path fill="#1A1C1F" fill-rule="evenodd" d="M16 2c7.719 0 14 6.281 14 14s-6.281 14-14 14S2 23.719 2 16 8.281 2 16 2m0 2C9.375 4 4 9.375 4 16s5.375 12 12 12 12-5.375 12-12S22.625 4 16 4m6.973 6.563a.97.97 0 0 0-.692.28l-8.718 8.75-3.813-3.812c-.226-.211-.464-.296-.69-.296-.551 0-1.02.454-1.02 1.015 0 .258.1.516.304.719l4.5 4.5.094.062c.188.145.41.216.629.216a.96.96 0 0 0 .683-.278l9.438-9.438c.238-.238.331-.482.331-.71 0-.534-.48-1.008-1.046-1.008" clip-rule="evenodd"/></g><defs><clipPath id="a"><path fill="#fff" d="M0 0h32v32H0z"/></clipPath></defs></svg>