<svg width="24" height="24" viewBox="0 0 24 24" fill="none" xmlns="http://www.w3.org/2000/svg"><path d="M11.340 2.027 C 9.987 2.138,8.748 2.478,7.560 3.064 C 6.500 3.587,5.738 4.133,4.920 4.956 C 3.506 6.379,2.575 8.146,2.160 10.196 C 1.972 11.127,1.972 12.873,2.160 13.804 C 2.966 17.787,5.770 20.740,9.672 21.717 C 10.357 21.888,10.547 21.917,11.310 21.963 C 12.028 22.006,13.139 21.965,13.620 21.878 C 17.273 21.217,20.246 18.717,21.419 15.320 C 21.896 13.938,22.056 12.752,21.965 11.280 C 21.843 9.328,21.048 7.309,19.774 5.720 C 19.438 5.301,18.725 4.584,18.307 4.244 C 16.874 3.081,14.851 2.239,13.113 2.082 C 12.649 2.040,11.584 2.007,11.340 2.027 M12.680 4.042 C 14.285 4.189,15.822 4.804,17.041 5.789 C 17.723 6.340,18.471 7.218,18.920 7.997 C 20.514 10.758,20.301 14.254,18.381 16.820 C 18.079 17.223,17.432 17.894,17.040 18.211 C 14.585 20.195,11.210 20.553,8.380 19.130 C 7.037 18.454,5.841 17.321,5.080 16.003 C 3.732 13.668,3.663 10.719,4.903 8.320 C 5.578 7.011,6.652 5.873,7.910 5.133 C 9.360 4.280,11.049 3.893,12.680 4.042 M16.131 8.459 C 15.964 8.532,15.433 9.045,12.551 11.917 L 10.161 14.299 9.951 14.098 C 9.835 13.988,9.361 13.527,8.898 13.074 C 8.022 12.217,7.736 12.001,7.480 12.001 C 6.936 12.000,6.501 12.405,6.451 12.959 C 6.413 13.371,6.443 13.410,8.117 15.084 C 8.944 15.911,9.684 16.621,9.760 16.660 C 9.931 16.749,10.284 16.753,10.486 16.669 C 10.676 16.589,12.327 14.988,15.165 12.131 C 17.381 9.901,17.430 9.847,17.480 9.641 C 17.640 8.972,17.182 8.404,16.480 8.403 C 16.359 8.403,16.202 8.428,16.131 8.459 " fill="#1A1C1F" stroke="none" fill-rule="evenodd"></path></svg>