<svg xmlns="http://www.w3.org/2000/svg" width="32" height="32" fill="none"><path fill="#1A1C1F" fill-rule="evenodd" d="M14.72 2.06c-1.337.16-2.192.345-3.214.694a14 14 0 0 0-9.108 9.958 13.97 13.97 0 0 0 2.111 11.263c1.513 2.162 3.665 3.918 6.004 4.898 1.813.759 3.549 1.111 5.487 1.111 2.014 0 3.907-.403 5.746-1.224 3.133-1.398 5.81-4.13 7.127-7.273.76-1.814 1.111-3.55 1.11-5.487-.001-2.779-.782-5.401-2.282-7.665a14.06 14.06 0 0 0-9.621-6.178c-.537-.084-2.898-.153-3.36-.097m8.692 8.62c.539.275.743.862.465 1.331-.187.314-9.725 9.833-9.93 9.911-.274.103-.65.072-.897-.075-.34-.203-4.814-4.71-4.914-4.952-.188-.452-.039-.939.376-1.23.174-.123.277-.154.51-.156.161-.002.351.027.422.063s1.023.957 2.116 2.047l1.987 1.981 4.44-4.438c2.873-2.872 4.506-4.466 4.626-4.518a.9.9 0 0 1 .799.036"/></svg>