<svg width="16" height="16" viewBox="0 0 16 16" fill="none" xmlns="http://www.w3.org/2000/svg"><path d="M7.080 1.670 C 6.705 1.729,6.040 1.901,5.751 2.016 C 5.403 2.155,4.762 2.483,4.488 2.663 C 3.553 3.279,2.753 4.187,2.265 5.187 C 2.042 5.645,1.918 5.979,1.801 6.436 C 1.652 7.019,1.615 7.325,1.615 7.987 C 1.615 8.648,1.654 8.976,1.801 9.561 C 2.254 11.364,3.509 12.910,5.187 13.733 C 5.813 14.040,6.412 14.230,7.093 14.337 C 7.468 14.396,8.480 14.404,8.813 14.351 C 10.034 14.158,11.016 13.744,11.920 13.044 C 12.222 12.811,12.732 12.310,12.972 12.013 C 13.880 10.891,14.400 9.428,14.400 8.000 C 14.400 6.558,13.892 5.133,12.968 3.987 C 12.023 2.814,10.627 1.985,9.120 1.704 C 8.706 1.626,7.493 1.607,7.080 1.670 M8.431 3.228 C 10.784 3.466,12.563 5.263,12.774 7.615 C 12.830 8.234,12.729 9.013,12.516 9.607 C 12.416 9.888,12.153 10.401,11.960 10.693 C 11.015 12.123,9.234 12.958,7.526 12.772 C 6.308 12.639,5.222 12.087,4.434 11.200 C 2.972 9.556,2.805 7.165,4.024 5.332 C 4.986 3.884,6.722 3.055,8.431 3.228 M8.652 7.238 L 7.077 8.795 6.510 8.246 L 5.942 7.698 5.382 8.258 L 4.822 8.818 5.946 9.922 C 6.564 10.530,7.078 11.030,7.088 11.033 C 7.098 11.037,8.061 10.086,9.227 8.920 L 11.347 6.800 10.787 6.241 L 10.227 5.681 8.652 7.238 " fill="#1A1C1F" stroke="none" fill-rule="evenodd"></path></svg>