<svg width="20" height="20" viewBox="0 0 20 20" fill="none" xmlns="http://www.w3.org/2000/svg"><path d="M8.850 2.088 C 8.382 2.161,7.551 2.377,7.189 2.520 C 6.691 2.717,5.850 3.161,5.470 3.426 C 3.616 4.724,2.418 6.651,2.079 8.883 C 1.995 9.442,1.995 10.562,2.080 11.117 C 2.214 11.987,2.442 12.714,2.833 13.517 C 3.203 14.278,3.692 14.968,4.293 15.580 C 6.830 18.162,10.718 18.738,13.851 16.997 C 17.144 15.166,18.731 11.318,17.667 7.741 C 17.189 6.133,16.148 4.635,14.804 3.623 C 13.831 2.890,12.615 2.357,11.400 2.130 C 10.882 2.033,9.366 2.008,8.850 2.088 M8.641 7.158 L 10.033 8.549 10.458 8.133 C 10.692 7.904,11.330 7.274,11.875 6.734 L 12.867 5.750 13.575 6.458 L 14.283 7.167 12.867 8.583 L 11.450 10.000 12.867 11.417 L 14.283 12.833 13.575 13.542 L 12.867 14.250 11.450 12.833 L 10.033 11.417 8.625 12.825 L 7.216 14.233 6.519 13.536 L 5.823 12.839 7.203 11.436 C 7.962 10.664,8.583 10.018,8.583 10.000 C 8.583 9.981,7.962 9.335,7.203 8.564 L 5.823 7.161 6.519 6.464 C 6.903 6.080,7.224 5.767,7.233 5.767 C 7.242 5.767,7.876 6.393,8.641 7.158 " fill="#1A1C1F" stroke="none" fill-rule="evenodd"></path></svg>