<svg xmlns="http://www.w3.org/2000/svg" width="32" height="32" fill="none"><g clip-path="url(#a)"><path fill="#1A1C1F" fill-rule="evenodd" d="M16 2c7.719 0 14 6.281 14 14s-6.281 14-14 14S2 23.719 2 16 8.281 2 16 2m5.563 7.5a1 1 0 0 0-.712.289L16 14.625l-4.914-4.899c-.172-.171-.399-.226-.617-.226-.531 0-.969.406-.969.938 0 .25.086.507.289.71L14.625 16l-4.899 4.914c-.171.172-.226.398-.226.617 0 .532.406.969.938.969.25 0 .507-.086.71-.289L16 17.375l4.914 4.899c.172.171.398.226.617.226.532 0 .969-.406.969-.937a1 1 0 0 0-.289-.712L17.375 16l4.899-4.914c.171-.172.226-.399.226-.617 0-.531-.406-.969-.937-.969" clip-rule="evenodd"/></g><defs><clipPath id="a"><path fill="#fff" d="M0 0h32v32H0z"/></clipPath></defs></svg>