<svg xmlns="http://www.w3.org/2000/svg" width="20" height="20" fill="none"><g clip-path="url(#a)"><path fill="#1A1C1F" fill-rule="evenodd" d="M10 2c4.406 0 8 3.594 8 8s-3.594 8-8 8-8-3.594-8-8 3.594-8 8-8m0 2c-3.312 0-6 2.688-6 6 0 3.313 2.688 6 6 6 3.313 0 6-2.687 6-6 0-3.312-2.687-6-6-6m2.125 2.5L13.5 7.906 11.406 10l2.094 2.094-1.406 1.406L10 11.406 7.906 13.5 6.5 12.094 8.594 10 6.5 7.906 7.906 6.5 10 8.594z" clip-rule="evenodd"/></g><defs><clipPath id="a"><path fill="#fff" d="M0 0h20v20H0z"/></clipPath></defs></svg>