<svg xmlns="http://www.w3.org/2000/svg" width="28" height="28" fill="none"><g clip-path="url(#a)"><path fill="#1A1C1F" fill-rule="evenodd" d="M14 1.75c6.754 0 12.25 5.496 12.25 12.25S20.754 26.25 14 26.25 1.75 20.754 1.75 14 7.246 1.75 14 1.75m4.867 6.563a.87.87 0 0 0-.622.252L14 12.797 9.7 8.51c-.15-.15-.348-.198-.54-.198-.465 0-.848.355-.848.82a.87.87 0 0 0 .253.622L12.797 14 8.51 18.3c-.15.15-.198.348-.198.54 0 .465.355.848.82.848a.87.87 0 0 0 .622-.253L14 15.203l4.3 4.286c.15.15.348.198.54.198.465 0 .848-.355.848-.82a.87.87 0 0 0-.253-.622L15.203 14l4.286-4.3c.15-.15.198-.348.198-.54 0-.465-.355-.848-.82-.848" clip-rule="evenodd"/></g><defs><clipPath id="a"><path fill="#fff" d="M0 0h28v28H0z"/></clipPath></defs></svg>