<svg width="24" height="24" viewBox="0 0 24 24" fill="none" xmlns="http://www.w3.org/2000/svg"><path d="M11.340 2.027 C 9.987 2.138,8.748 2.478,7.560 3.064 C 6.500 3.587,5.738 4.133,4.920 4.956 C 3.506 6.379,2.575 8.146,2.160 10.196 C 1.972 11.127,1.972 12.873,2.160 13.804 C 2.966 17.787,5.770 20.740,9.672 21.717 C 10.357 21.888,10.547 21.917,11.310 21.963 C 12.028 22.006,13.139 21.965,13.620 21.878 C 17.273 21.217,20.246 18.717,21.419 15.320 C 21.896 13.938,22.056 12.752,21.965 11.280 C 21.843 9.328,21.048 7.309,19.774 5.720 C 19.438 5.301,18.725 4.584,18.307 4.244 C 16.874 3.081,14.851 2.239,13.113 2.082 C 12.649 2.040,11.584 2.007,11.340 2.027 M12.408 4.041 C 13.616 4.108,14.485 4.331,15.501 4.836 C 17.145 5.652,18.336 6.836,19.151 8.463 C 19.521 9.202,19.777 10.011,19.901 10.833 C 19.979 11.347,19.979 12.653,19.901 13.167 C 19.295 17.187,15.741 20.149,11.720 19.985 C 9.666 19.902,7.807 19.089,6.360 17.641 C 5.242 16.522,4.468 15.077,4.153 13.520 C 4.070 13.107,4.060 12.951,4.060 12.000 C 4.060 11.051,4.070 10.892,4.152 10.484 C 4.512 8.707,5.491 7.039,6.835 5.915 C 8.017 4.925,9.387 4.309,10.860 4.103 C 11.684 3.988,11.557 3.994,12.408 4.041 M8.190 7.568 C 7.988 7.622,7.665 7.919,7.582 8.128 C 7.492 8.352,7.496 8.674,7.591 8.889 C 7.647 9.015,8.066 9.466,9.120 10.533 L 10.572 12.002 9.194 13.391 C 8.436 14.155,7.754 14.870,7.679 14.980 C 7.568 15.142,7.540 15.227,7.527 15.426 C 7.507 15.738,7.563 15.907,7.762 16.133 C 8.054 16.464,8.517 16.587,8.885 16.430 C 8.978 16.390,9.563 15.841,10.515 14.899 L 11.999 13.430 13.468 14.881 C 15.046 16.440,15.104 16.486,15.497 16.486 C 15.761 16.486,15.943 16.412,16.162 16.214 C 16.384 16.014,16.478 15.802,16.479 15.503 C 16.481 15.090,16.437 15.034,14.865 13.450 L 13.427 12.000 14.805 10.610 C 15.564 9.845,16.246 9.130,16.322 9.020 C 16.454 8.828,16.460 8.805,16.460 8.460 C 16.460 8.033,16.387 7.878,16.086 7.669 C 15.911 7.547,15.880 7.540,15.560 7.543 C 15.318 7.545,15.176 7.567,15.067 7.619 C 14.976 7.662,14.328 8.271,13.456 9.132 L 11.997 10.572 10.649 9.234 C 9.907 8.499,9.219 7.833,9.120 7.754 C 8.832 7.526,8.557 7.471,8.190 7.568 " fill="#1A1C1F" stroke="none" fill-rule="evenodd"></path></svg>