<svg width="16" height="16" viewBox="0 0 16 16" fill="none" xmlns="http://www.w3.org/2000/svg"><path d="M7.080 1.670 C 6.705 1.728,6.041 1.901,5.751 2.016 C 5.353 2.174,4.680 2.529,4.376 2.741 C 2.916 3.763,1.977 5.251,1.678 7.015 C 1.596 7.499,1.589 8.411,1.664 8.893 C 1.834 9.993,2.234 10.949,2.900 11.848 C 3.151 12.187,3.798 12.837,4.133 13.087 C 5.108 13.813,6.223 14.251,7.409 14.372 C 9.007 14.535,10.727 14.012,12.013 12.972 C 12.310 12.732,12.811 12.222,13.044 11.920 C 14.188 10.444,14.637 8.566,14.276 6.773 C 14.013 5.471,13.395 4.342,12.437 3.413 C 11.529 2.533,10.374 1.938,9.120 1.704 C 8.706 1.626,7.493 1.607,7.080 1.670 M6.913 5.726 L 8.026 6.839 8.380 6.493 C 8.574 6.303,9.084 5.799,9.513 5.374 L 10.293 4.600 10.860 5.167 L 11.426 5.733 10.293 6.867 L 9.160 8.000 10.293 9.133 L 11.426 10.267 10.860 10.833 L 10.293 11.400 9.160 10.267 L 8.027 9.134 6.900 10.260 L 5.773 11.387 5.216 10.829 L 4.658 10.271 5.762 9.149 C 6.370 8.531,6.867 8.015,6.867 8.000 C 6.867 7.985,6.370 7.469,5.762 6.851 L 4.658 5.729 5.215 5.171 C 5.522 4.864,5.779 4.613,5.786 4.613 C 5.794 4.613,6.301 5.114,6.913 5.726 " fill="#1A1C1F" stroke="none" fill-rule="evenodd"></path></svg>