<svg width="14" height="14" viewBox="0 0 14 14" fill="none" xmlns="http://www.w3.org/2000/svg"><path d="M6.195 1.462 C 5.867 1.512,5.286 1.664,5.032 1.764 C 4.684 1.902,4.095 2.213,3.829 2.398 C 2.531 3.307,1.693 4.656,1.456 6.218 C 1.396 6.610,1.396 7.393,1.456 7.782 C 1.550 8.391,1.709 8.900,1.983 9.462 C 2.242 9.995,2.584 10.478,3.005 10.906 C 4.461 12.388,6.564 12.947,8.544 12.377 C 9.029 12.237,9.585 11.986,9.996 11.721 C 10.658 11.293,11.304 10.645,11.724 9.988 C 12.327 9.046,12.632 7.929,12.592 6.813 C 12.541 5.363,11.937 4.008,10.892 2.997 C 10.441 2.560,10.059 2.289,9.499 2.008 C 8.975 1.745,8.529 1.593,7.980 1.491 C 7.618 1.423,6.556 1.406,6.195 1.462 M7.377 2.824 C 9.431 3.032,10.980 4.591,11.177 6.650 C 11.228 7.183,11.138 7.885,10.952 8.406 C 10.867 8.643,10.638 9.094,10.482 9.330 C 10.065 9.963,9.506 10.449,8.808 10.783 C 6.919 11.687,4.667 11.064,3.507 9.314 C 2.236 7.396,2.757 4.790,4.666 3.521 C 5.479 2.980,6.450 2.731,7.377 2.824 M5.046 5.046 L 4.550 5.541 5.279 6.271 L 6.008 7.000 5.279 7.729 L 4.550 8.459 5.046 8.954 L 5.541 9.450 6.271 8.721 L 7.000 7.992 7.729 8.721 L 8.459 9.450 8.954 8.954 L 9.450 8.459 8.721 7.729 L 7.992 7.000 8.723 6.268 L 9.455 5.537 8.970 5.042 L 8.485 4.547 7.970 5.056 C 7.687 5.336,7.353 5.665,7.227 5.787 L 7.000 6.008 6.271 5.279 L 5.541 4.550 5.046 5.046 " fill="#1A1C1F" stroke="none" fill-rule="evenodd"></path></svg>