<svg xmlns="http://www.w3.org/2000/svg" width="14" height="14" fill="none"><g clip-path="url(#a)"><path fill="#1A1C1F" fill-rule="evenodd" d="M7 1.4A5.61 5.61 0 0 1 12.6 7 5.61 5.61 0 0 1 7 12.6 5.61 5.61 0 0 1 1.4 7 5.61 5.61 0 0 1 7 1.4m0 1.4a4.201 4.201 0 0 0 0 8.4 4.201 4.201 0 0 0 0-8.4m1.488 1.75.962.984L7.984 7 9.45 8.466l-.984.984L7 7.984 5.534 9.45l-.984-.984L6.016 7 4.55 5.534l.984-.984L7 6.016z" clip-rule="evenodd"/></g><defs><clipPath id="a"><path fill="#fff" d="M0 0h14v14H0z"/></clipPath></defs></svg>