<svg xmlns="http://www.w3.org/2000/svg" width="24" height="24" fill="none"><g clip-path="url(#a)"><path fill="#1A1C1F" fill-rule="evenodd" d="M12 2a9.99 9.99 0 0 1 10 10 9.99 9.99 0 0 1-10 10A9.99 9.99 0 0 1 2 12 9.99 9.99 0 0 1 12 2m0 2c-4.406 0-8 3.594-8 8s3.594 8 8 8 8-3.594 8-8-3.594-8-8-8M7.5 15.5c0-.219.094-.5.281-.687L10.594 12 7.78 9.219A1.17 1.17 0 0 1 7.5 8.5c0-.562.469-1 1-1 .219 0 .5.094.719.281L12 10.594l2.781-2.781c.219-.22.5-.313.781-.313.47 0 .938.313.938 1 0 .25-.125.531-.312.719L13.406 12l2.813 2.781c.187.188.281.5.281.719 0 .563-.469 1-1 1-.219 0-.5-.094-.719-.281L12 13.406 9.188 16.22c-.157.187-.438.281-.688.281-.562 0-1-.469-1-1" clip-rule="evenodd"/></g><defs><clipPath id="a"><path fill="#fff" d="M0 0h24v24H0z"/></clipPath></defs></svg>