<svg width="20" height="20" viewBox="0 0 20 20" fill="none" xmlns="http://www.w3.org/2000/svg"><path d="M8.850 2.088 C 8.382 2.161,7.551 2.377,7.189 2.520 C 6.691 2.717,5.850 3.161,5.470 3.426 C 3.616 4.724,2.418 6.651,2.079 8.883 C 1.995 9.442,1.995 10.562,2.080 11.117 C 2.214 11.987,2.442 12.714,2.833 13.517 C 3.203 14.278,3.692 14.968,4.293 15.580 C 6.830 18.162,10.718 18.738,13.851 16.997 C 17.144 15.166,18.731 11.318,17.667 7.741 C 17.189 6.133,16.148 4.635,14.804 3.623 C 13.831 2.890,12.615 2.357,11.400 2.130 C 10.882 2.033,9.366 2.008,8.850 2.088 M10.538 4.035 C 12.670 4.251,14.460 5.488,15.381 7.382 C 15.924 8.498,16.091 9.596,15.915 10.891 C 15.827 11.535,15.675 12.018,15.360 12.647 C 14.728 13.912,13.824 14.810,12.583 15.404 C 9.884 16.696,6.667 15.805,5.010 13.306 C 3.676 11.293,3.683 8.690,5.030 6.665 C 5.477 5.991,5.991 5.477,6.665 5.030 C 7.827 4.257,9.214 3.901,10.538 4.035 M7.208 7.208 L 6.500 7.916 7.542 8.958 L 8.583 10.000 7.542 11.042 L 6.500 12.084 7.208 12.792 L 7.916 13.500 8.958 12.458 L 10.000 11.417 11.042 12.458 L 12.084 13.500 12.792 12.792 L 13.500 12.084 12.458 11.042 L 11.417 10.000 12.462 8.955 L 13.507 7.910 12.814 7.203 L 12.121 6.496 11.386 7.223 C 10.981 7.623,10.504 8.093,10.325 8.266 L 10.000 8.582 8.958 7.541 L 7.916 6.500 7.208 7.208 " fill="#1A1C1F" stroke="none" fill-rule="evenodd"></path></svg>