<svg width="12" height="12" viewBox="0 0 12 12" fill="none" xmlns="http://www.w3.org/2000/svg"><path d="M5.310 1.254 C 5.034 1.295,4.534 1.425,4.313 1.512 C 4.015 1.630,3.510 1.897,3.282 2.056 C 2.313 2.734,1.632 3.713,1.351 4.829 C 1.241 5.267,1.211 5.515,1.211 6.000 C 1.212 6.477,1.239 6.714,1.343 7.140 C 1.501 7.789,1.843 8.479,2.269 9.010 C 2.552 9.362,2.980 9.749,3.368 10.004 C 5.258 11.241,7.692 11.014,9.317 9.450 C 11.123 7.712,11.298 4.943,9.726 2.989 C 9.414 2.602,8.936 2.180,8.530 1.934 C 7.890 1.547,7.236 1.315,6.576 1.242 C 6.296 1.210,5.553 1.218,5.310 1.254 M5.185 4.295 L 6.020 5.130 6.285 4.870 C 6.431 4.727,6.813 4.349,7.135 4.030 L 7.720 3.450 8.145 3.875 L 8.570 4.300 7.720 5.150 L 6.870 6.000 7.720 6.850 L 8.570 7.700 8.145 8.125 L 7.720 8.550 6.870 7.700 L 6.020 6.850 5.175 7.695 L 4.330 8.540 3.912 8.122 L 3.494 7.703 4.322 6.862 C 4.777 6.399,5.150 6.011,5.150 6.000 C 5.150 5.989,4.777 5.601,4.322 5.138 L 3.494 4.297 3.912 3.878 C 4.142 3.648,4.334 3.460,4.340 3.460 C 4.345 3.460,4.726 3.836,5.185 4.295 " fill="#1A1C1F" stroke="none" fill-rule="evenodd"></path></svg>