<svg xmlns="http://www.w3.org/2000/svg" width="32" height="32" fill="none"><path fill="#1A1C1F" fill-rule="evenodd" d="M14.72 2.06c-1.337.16-2.192.345-3.214.694a14.01 14.01 0 0 0-9.108 9.958 13.97 13.97 0 0 0 2.111 11.263c1.513 2.162 3.665 3.918 6.004 4.898 1.813.759 3.549 1.111 5.487 1.111 2.014 0 3.907-.403 5.746-1.224 3.133-1.398 5.81-4.13 7.127-7.273.76-1.814 1.111-3.55 1.11-5.487-.001-2.779-.782-5.401-2.282-7.665a14.06 14.06 0 0 0-9.621-6.178c-.537-.084-2.898-.153-3.36-.097m3.04 2.074c3.883.583 7.274 3.057 8.983 6.553.876 1.792 1.226 3.309 1.226 5.313 0 .777-.027 1.271-.094 1.707-.534 3.477-2.441 6.452-5.368 8.372-1.079.708-2.675 1.372-3.963 1.65-5.37 1.157-10.888-1.508-13.287-6.416a11.8 11.8 0 0 1-1.133-3.606c-.128-.844-.128-2.57 0-3.414.603-3.954 3.045-7.317 6.563-9.036 1.438-.703 2.776-1.075 4.406-1.224.474-.044 2.118.019 2.667.101m-7.28 6.015c-.394.223-.601.876-.402 1.267.037.072 1.066 1.133 2.287 2.357L14.586 16l-2.249 2.253c-2.483 2.488-2.429 2.418-2.309 2.951.073.33.223.532.496.671.252.129.686.152.892.047.072-.037 1.133-1.066 2.357-2.287L16 17.414l2.257 2.256c2.493 2.493 2.405 2.424 2.951 2.302.572-.129.876-.616.754-1.21-.05-.245-.147-.35-2.3-2.509L17.415 16l2.249-2.253c1.668-1.671 2.258-2.295 2.284-2.414.019-.088.044-.191.056-.229.037-.12-.083-.552-.197-.713-.162-.228-.471-.364-.822-.364-.164 0-.351.026-.415.059-.064.032-1.119 1.058-2.343 2.279L16 14.586l-2.227-2.221c-1.224-1.221-2.279-2.247-2.343-2.279-.206-.105-.713-.071-.95.063"/></svg>