<svg xmlns="http://www.w3.org/2000/svg" width="28" height="28" fill="none"><g clip-path="url(#a)"><path fill="#1A1C1F" fill-rule="evenodd" d="M14 1.75c6.754 0 12.25 5.496 12.25 12.25S20.754 26.25 14 26.25 1.75 20.754 1.75 14 7.246 1.75 14 1.75m0 1.75C8.203 3.5 3.5 8.203 3.5 14S8.203 24.5 14 24.5 24.5 19.797 24.5 14 19.797 3.5 14 3.5M8.75 9.625c0-.492.355-.875.875-.875.246 0 .438.055.629.246L14 12.742l3.746-3.746a.84.84 0 0 1 .629-.246c.492 0 .875.356.875.875 0 .246-.055.438-.246.629L15.258 14l3.746 3.746c.164.164.246.41.246.629 0 .492-.355.875-.875.875-.246 0-.41-.027-.629-.246L14 15.258l-3.746 3.746a.84.84 0 0 1-.629.246c-.492 0-.875-.355-.875-.875 0-.219.027-.41.246-.629L12.742 14l-3.746-3.746a.84.84 0 0 1-.246-.629" clip-rule="evenodd"/></g><defs><clipPath id="a"><path fill="#fff" d="M0 0h28v28H0z"/></clipPath></defs></svg>