<svg width="14" height="14" viewBox="0 0 14 14" fill="none" xmlns="http://www.w3.org/2000/svg"><path d="M6.195 1.462 C 5.867 1.512,5.286 1.664,5.032 1.764 C 4.684 1.902,4.095 2.213,3.829 2.398 C 2.531 3.307,1.693 4.656,1.456 6.218 C 1.396 6.610,1.396 7.393,1.456 7.782 C 1.550 8.391,1.709 8.900,1.983 9.462 C 2.242 9.995,2.584 10.478,3.005 10.906 C 4.461 12.388,6.564 12.947,8.544 12.377 C 9.029 12.237,9.585 11.986,9.996 11.721 C 10.658 11.293,11.304 10.645,11.724 9.988 C 12.327 9.046,12.632 7.929,12.592 6.813 C 12.541 5.363,11.937 4.008,10.892 2.997 C 10.441 2.560,10.059 2.289,9.499 2.008 C 8.975 1.745,8.529 1.593,7.980 1.491 C 7.618 1.423,6.556 1.406,6.195 1.462 M6.049 5.011 L 7.023 5.985 7.309 5.705 C 7.466 5.551,7.913 5.110,8.301 4.725 L 9.007 4.025 9.502 4.521 L 9.998 5.017 9.007 6.008 L 8.015 7.000 9.007 7.992 L 9.998 8.983 9.502 9.479 L 9.007 9.975 8.015 8.983 L 7.023 7.992 6.037 8.978 L 5.051 9.963 4.564 9.475 L 4.076 8.987 5.042 8.005 C 5.574 7.465,6.008 7.013,6.008 7.000 C 6.008 6.987,5.574 6.535,5.042 5.995 L 4.076 5.013 4.564 4.525 C 4.832 4.256,5.057 4.037,5.063 4.037 C 5.069 4.037,5.513 4.475,6.049 5.011 " fill="#1A1C1F" stroke="none" fill-rule="evenodd"></path></svg>