<svg width="28" height="28" viewBox="0 0 28 28" fill="none" xmlns="http://www.w3.org/2000/svg"><path d="M12.536 1.849 C 11.063 2.038,9.772 2.435,8.447 3.106 C 6.343 4.173,4.547 5.882,3.365 7.942 C 2.568 9.332,1.997 11.094,1.822 12.703 C 1.751 13.360,1.762 14.775,1.843 15.431 C 2.269 18.872,4.020 21.841,6.859 23.938 C 8.507 25.155,10.733 25.989,12.851 26.184 C 13.594 26.253,15.147 26.214,15.795 26.111 C 18.411 25.695,20.630 24.592,22.510 22.775 C 24.620 20.736,25.917 18.043,26.184 15.149 C 26.252 14.409,26.214 12.854,26.112 12.212 C 25.693 9.579,24.622 7.414,22.799 5.516 C 21.258 3.911,19.242 2.725,17.119 2.174 C 16.156 1.924,15.768 1.868,14.645 1.820 C 13.363 1.765,13.173 1.767,12.536 1.849 M9.655 8.528 C 9.773 8.623,10.799 9.624,11.935 10.752 L 14.001 12.803 16.112 10.702 C 17.273 9.547,18.312 8.544,18.420 8.472 C 18.656 8.317,18.980 8.298,19.245 8.424 C 19.452 8.522,19.635 8.813,19.674 9.104 C 19.697 9.284,19.681 9.340,19.546 9.543 C 19.462 9.672,18.448 10.727,17.295 11.889 L 15.197 14.001 17.273 16.089 C 18.415 17.237,19.407 18.255,19.479 18.351 C 19.823 18.809,19.681 19.368,19.161 19.604 C 18.922 19.713,18.752 19.716,18.534 19.614 C 18.431 19.566,17.496 18.672,16.180 17.364 L 13.997 15.194 12.143 17.039 C 9.725 19.445,9.526 19.630,9.293 19.669 C 8.794 19.753,8.308 19.316,8.307 18.780 C 8.306 18.568,8.691 18.140,10.705 16.111 L 12.803 13.999 10.702 11.888 C 9.547 10.727,8.544 9.688,8.472 9.580 C 8.375 9.432,8.343 9.325,8.343 9.157 C 8.343 8.427,9.090 8.069,9.655 8.528 " fill="#1A1C1F" stroke="none" fill-rule="evenodd"></path></svg>