<svg width="12" height="12" viewBox="0 0 12 12" fill="none" xmlns="http://www.w3.org/2000/svg"><path d="M5.310 1.254 C 5.034 1.295,4.534 1.425,4.313 1.512 C 4.015 1.630,3.510 1.897,3.282 2.056 C 2.170 2.834,1.451 3.991,1.248 5.330 C 1.197 5.661,1.197 6.338,1.246 6.660 C 1.328 7.188,1.468 7.635,1.700 8.110 C 1.926 8.572,2.216 8.982,2.576 9.348 C 3.134 9.915,3.761 10.307,4.510 10.556 C 6.543 11.232,8.791 10.450,9.989 8.650 C 11.158 6.896,11.053 4.638,9.726 2.989 C 9.414 2.602,8.936 2.180,8.530 1.934 C 7.890 1.547,7.236 1.315,6.576 1.242 C 6.296 1.210,5.553 1.218,5.310 1.254 M6.323 2.421 C 7.428 2.533,8.386 3.101,8.982 3.999 C 9.554 4.859,9.733 5.909,9.479 6.904 C 9.356 7.387,9.075 7.924,8.730 8.339 C 8.000 9.215,6.793 9.701,5.643 9.580 C 4.565 9.466,3.603 8.884,3.006 7.984 C 1.916 6.340,2.363 4.105,3.999 3.018 C 4.695 2.555,5.530 2.341,6.323 2.421 M4.325 4.325 L 3.900 4.750 4.525 5.375 L 5.150 6.000 4.525 6.625 L 3.900 7.250 4.325 7.675 L 4.750 8.100 5.375 7.475 L 6.000 6.850 6.625 7.475 L 7.250 8.100 7.675 7.675 L 8.100 7.250 7.475 6.625 L 6.850 6.000 7.477 5.373 L 8.103 4.747 7.688 4.322 L 7.273 3.897 6.821 4.344 C 6.573 4.589,6.287 4.871,6.185 4.970 L 6.000 5.149 5.375 4.525 L 4.750 3.900 4.325 4.325 " fill="#1A1C1F" stroke="none" fill-rule="evenodd"></path></svg>