<svg xmlns="http://www.w3.org/2000/svg" width="32" height="32" fill="none"><path fill="#1A1C1F" fill-rule="evenodd" d="M14.72 2.06c-1.337.16-2.192.345-3.214.694a14.01 14.01 0 0 0-9.108 9.958 13.97 13.97 0 0 0 2.111 11.263c1.513 2.162 3.665 3.918 6.004 4.898 1.813.759 3.549 1.111 5.487 1.111 2.014 0 3.907-.403 5.746-1.224 3.133-1.398 5.81-4.13 7.127-7.273.76-1.814 1.111-3.55 1.11-5.487-.001-2.779-.782-5.401-2.282-7.665a14.06 14.06 0 0 0-9.621-6.178c-.537-.084-2.898-.153-3.36-.097m-3.905 7.515c.136.056.977.86 2.691 2.573l2.493 2.49 2.52-2.514c2.262-2.256 2.545-2.521 2.756-2.577.582-.154 1.115.191 1.209.781.073.466.09.445-2.609 3.152l-2.513 2.519 2.515 2.521c2.255 2.261 2.52 2.544 2.576 2.755.111.419-.031.827-.361 1.04a1.02 1.02 0 0 1-.773.164c-.212-.033-.384-.194-2.773-2.577l-2.547-2.541-2.493 2.491c-1.714 1.712-2.555 2.517-2.691 2.573-.575.237-1.199-.125-1.299-.753-.073-.466-.09-.445 2.609-3.152l2.513-2.519-2.515-2.521c-2.255-2.261-2.52-2.544-2.576-2.755-.208-.787.529-1.455 1.268-1.15"/></svg>