<svg xmlns="http://www.w3.org/2000/svg" width="24" height="24" fill="none"><g clip-path="url(#a)"><path fill="#1A1C1F" fill-rule="evenodd" d="M12 2a9.99 9.99 0 0 1 10 10 9.99 9.99 0 0 1-10 10A9.99 9.99 0 0 1 2 12 9.99 9.99 0 0 1 12 2m3.5 5.5c-.25 0-.469.094-.719.313L12 10.593 9.219 7.782c-.188-.187-.5-.281-.719-.281-.469 0-1 .375-1 1 0 .219.063.469.281.719L10.594 12 7.78 14.813a1.03 1.03 0 0 0-.281.687c0 .469.375 1 1 1 .219 0 .469-.094.688-.281L12 13.406l2.781 2.813c.188.187.5.281.719.281.469 0 1-.375 1-1a.94.94 0 0 0-.281-.687L13.406 12l2.781-2.781A1 1 0 0 0 16.5 8.5c0-.531-.437-1-1-1" clip-rule="evenodd"/></g><defs><clipPath id="a"><path fill="#fff" d="M0 0h24v24H0z"/></clipPath></defs></svg>