<svg width="28" height="28" viewBox="0 0 28 28" fill="none" xmlns="http://www.w3.org/2000/svg"><path d="M12.536 1.849 C 11.063 2.038,9.772 2.435,8.447 3.106 C 6.343 4.173,4.547 5.882,3.365 7.942 C 2.568 9.332,1.997 11.094,1.822 12.703 C 1.751 13.360,1.762 14.775,1.843 15.431 C 2.269 18.872,4.020 21.841,6.859 23.938 C 8.507 25.155,10.733 25.989,12.851 26.184 C 13.594 26.253,15.147 26.214,15.795 26.111 C 18.411 25.695,20.630 24.592,22.510 22.775 C 24.620 20.736,25.917 18.043,26.184 15.149 C 26.252 14.409,26.214 12.854,26.112 12.212 C 25.693 9.579,24.622 7.414,22.799 5.516 C 21.258 3.911,19.242 2.725,17.119 2.174 C 16.156 1.924,15.768 1.868,14.645 1.820 C 13.363 1.765,13.173 1.767,12.536 1.849 M15.202 3.595 C 16.302 3.694,17.505 4.048,18.617 4.600 C 19.680 5.128,20.447 5.663,21.252 6.438 C 22.882 8.009,23.962 10.033,24.340 12.227 C 24.441 12.815,24.485 14.714,24.410 15.286 C 24.175 17.087,23.431 18.908,22.336 20.363 C 21.985 20.829,21.191 21.657,20.720 22.048 C 19.670 22.920,18.632 23.497,17.313 23.942 C 15.538 24.540,13.784 24.655,11.970 24.290 C 9.835 23.860,8.022 22.875,6.507 21.320 C 5.656 20.447,5.064 19.590,4.504 18.422 C 3.824 17.000,3.546 15.734,3.547 14.056 C 3.548 12.214,3.811 11.014,4.552 9.482 C 5.139 8.266,5.763 7.398,6.704 6.486 C 7.531 5.684,8.279 5.153,9.310 4.633 C 10.478 4.044,11.506 3.742,12.924 3.570 C 13.436 3.508,14.343 3.518,15.202 3.595 M9.316 8.822 C 8.895 8.948,8.610 9.661,8.841 10.013 C 8.883 10.078,9.781 11.001,10.836 12.066 L 12.754 14.002 10.865 15.903 C 9.735 17.041,8.924 17.894,8.845 18.029 C 8.720 18.242,8.716 18.266,8.768 18.496 C 8.797 18.629,8.861 18.803,8.910 18.883 C 9.034 19.087,9.347 19.227,9.680 19.227 L 9.951 19.227 10.330 18.867 C 10.539 18.669,11.450 17.772,12.354 16.873 L 13.997 15.240 15.900 17.132 C 17.058 18.284,17.892 19.076,18.029 19.156 C 18.244 19.281,18.267 19.285,18.496 19.232 C 18.628 19.201,18.805 19.130,18.889 19.073 C 19.210 18.856,19.330 18.299,19.127 17.967 C 19.072 17.877,18.176 16.949,17.136 15.903 L 15.245 14.002 17.162 12.069 C 18.216 11.007,19.115 10.067,19.160 9.980 C 19.268 9.772,19.263 9.498,19.147 9.236 C 19.035 8.983,18.821 8.833,18.513 8.791 C 18.045 8.727,18.136 8.655,15.982 10.789 L 14.000 12.752 12.037 10.807 C 10.958 9.738,10.022 8.842,9.958 8.818 C 9.817 8.764,9.501 8.766,9.316 8.822 " fill="#1A1C1F" stroke="none" fill-rule="evenodd"></path></svg>