<svg width="16" height="16" viewBox="0 0 16 16" fill="none" xmlns="http://www.w3.org/2000/svg"><path d="M7.817 1.630 C 7.488 1.679,7.198 1.835,6.873 2.138 L 6.693 2.307 4.325 7.080 C 3.022 9.705,1.897 11.979,1.825 12.133 C 1.696 12.408,1.693 12.419,1.684 12.709 C 1.677 12.920,1.687 13.053,1.718 13.175 C 1.847 13.689,2.215 14.090,2.760 14.312 L 2.973 14.399 7.787 14.399 C 10.537 14.399,12.747 14.388,12.944 14.373 C 13.388 14.341,13.531 14.279,13.839 13.984 C 14.174 13.664,14.319 13.311,14.320 12.812 C 14.320 12.514,14.280 12.357,14.112 12.000 C 13.784 11.302,11.256 6.129,9.967 3.520 C 9.358 2.286,9.337 2.249,9.168 2.078 C 8.814 1.723,8.310 1.556,7.817 1.630 M10.481 8.032 C 11.771 10.609,12.827 12.736,12.827 12.759 C 12.827 12.796,12.338 12.800,8.067 12.800 C 3.851 12.800,3.307 12.795,3.307 12.760 C 3.307 12.719,6.109 7.098,7.367 4.616 C 7.997 3.372,8.065 3.250,8.098 3.296 C 8.119 3.324,9.191 5.455,10.481 8.032 M7.253 8.000 L 7.253 9.600 8.067 9.600 L 8.880 9.600 8.880 8.000 L 8.880 6.400 8.067 6.400 L 7.253 6.400 7.253 8.000 M7.933 10.427 C 7.669 10.465,7.402 10.687,7.318 10.939 C 7.259 11.116,7.276 11.411,7.354 11.563 C 7.495 11.837,7.828 12.021,8.133 11.993 C 8.334 11.975,8.457 11.914,8.628 11.746 C 8.740 11.637,8.779 11.576,8.815 11.453 C 8.983 10.873,8.528 10.343,7.933 10.427 " fill="#1A1C1F" stroke="none" fill-rule="evenodd"></path></svg>