<svg xmlns="http://www.w3.org/2000/svg" width="14" height="14" fill="none"><g clip-path="url(#a)"><path fill="#1A1C1F" fill-rule="evenodd" d="M7 1.4A5.61 5.61 0 0 1 12.6 7 5.61 5.61 0 0 1 7 12.6 5.61 5.61 0 0 1 1.4 7 5.61 5.61 0 0 1 7 1.4m0 1.4a4.201 4.201 0 0 0 0 8.4 4.201 4.201 0 0 0 0-8.4m0 5.6c.394 0 .7.311.7.689 0 .4-.306.711-.7.711a.71.71 0 0 1-.7-.711c0-.378.328-.689.7-.689m.7-4.2v3.5H6.3V4.2z" clip-rule="evenodd"/></g><defs><clipPath id="a"><path fill="#fff" d="M0 0h14v14H0z"/></clipPath></defs></svg>