<svg width="12" height="12" viewBox="0 0 12 12" fill="none" xmlns="http://www.w3.org/2000/svg"><path d="M5.863 1.222 C 5.616 1.259,5.399 1.376,5.154 1.604 L 5.019 1.730 3.253 5.290 C 2.282 7.248,1.439 8.953,1.379 9.080 C 1.270 9.309,1.270 9.310,1.263 9.531 C 1.258 9.690,1.265 9.790,1.288 9.882 C 1.385 10.267,1.661 10.568,2.070 10.734 L 2.230 10.799 5.830 10.799 C 7.814 10.799,9.550 10.790,9.697 10.780 C 10.041 10.756,10.146 10.712,10.379 10.488 C 10.631 10.248,10.739 9.984,10.740 9.609 C 10.740 9.309,10.756 9.350,10.135 8.070 C 8.755 5.228,7.075 1.819,6.998 1.707 C 6.751 1.349,6.301 1.156,5.863 1.222 M7.860 6.022 C 8.828 7.955,9.620 9.551,9.620 9.568 C 9.620 9.597,9.286 9.600,6.050 9.600 C 2.888 9.600,2.480 9.597,2.480 9.570 C 2.480 9.540,4.816 4.855,5.615 3.282 C 5.998 2.529,6.049 2.438,6.073 2.470 C 6.087 2.490,6.891 4.088,7.860 6.022 M5.440 6.000 L 5.440 7.200 6.050 7.200 L 6.660 7.200 6.660 6.000 L 6.660 4.800 6.050 4.800 L 5.440 4.800 5.440 6.000 M5.950 7.820 C 5.752 7.849,5.551 8.015,5.489 8.204 C 5.444 8.337,5.457 8.558,5.516 8.672 C 5.621 8.877,5.871 9.015,6.099 8.995 C 6.326 8.974,6.551 8.796,6.611 8.589 C 6.737 8.155,6.395 7.757,5.950 7.820 " fill="#1A1C1F" stroke="none" fill-rule="evenodd"></path></svg>