<svg width="16" height="16" viewBox="0 0 16 16" fill="none" xmlns="http://www.w3.org/2000/svg"><path d="M7.080 1.670 C 6.705 1.728,6.041 1.901,5.751 2.016 C 5.353 2.174,4.680 2.529,4.376 2.741 C 2.916 3.763,1.977 5.251,1.678 7.015 C 1.596 7.499,1.589 8.411,1.664 8.893 C 1.834 9.993,2.234 10.949,2.900 11.848 C 3.151 12.187,3.798 12.837,4.133 13.087 C 5.108 13.813,6.223 14.251,7.409 14.372 C 9.007 14.535,10.727 14.012,12.013 12.972 C 12.310 12.732,12.811 12.222,13.044 11.920 C 14.188 10.444,14.637 8.566,14.276 6.773 C 14.013 5.471,13.395 4.342,12.437 3.413 C 11.529 2.533,10.374 1.938,9.120 1.704 C 8.706 1.626,7.493 1.607,7.080 1.670 M8.800 6.800 L 8.800 8.800 8.000 8.800 L 7.200 8.800 7.200 6.800 L 7.200 4.800 8.000 4.800 L 8.800 4.800 8.800 6.800 M8.338 9.854 C 8.474 9.910,8.655 10.095,8.722 10.247 C 8.810 10.447,8.806 10.712,8.713 10.895 C 8.569 11.178,8.305 11.338,7.980 11.339 C 7.424 11.341,7.041 10.719,7.295 10.224 C 7.392 10.033,7.613 9.850,7.789 9.815 C 7.932 9.786,8.222 9.807,8.338 9.854 " fill="#1A1C1F" stroke="none" fill-rule="evenodd"></path></svg>