<svg width="24" height="24" viewBox="0 0 24 24" fill="none" xmlns="http://www.w3.org/2000/svg"><path d="M11.340 2.027 C 9.987 2.138,8.748 2.478,7.560 3.064 C 6.500 3.587,5.738 4.133,4.920 4.956 C 3.506 6.379,2.575 8.146,2.160 10.196 C 1.972 11.127,1.972 12.873,2.160 13.804 C 2.966 17.787,5.770 20.740,9.672 21.717 C 10.357 21.888,10.547 21.917,11.310 21.963 C 12.028 22.006,13.139 21.965,13.620 21.878 C 17.273 21.217,20.246 18.717,21.419 15.320 C 21.896 13.938,22.056 12.752,21.965 11.280 C 21.843 9.328,21.048 7.309,19.774 5.720 C 19.438 5.301,18.725 4.584,18.307 4.244 C 16.874 3.081,14.851 2.239,13.113 2.082 C 12.649 2.040,11.584 2.007,11.340 2.027 M12.408 4.041 C 13.616 4.108,14.485 4.331,15.501 4.836 C 17.145 5.652,18.336 6.836,19.151 8.463 C 19.521 9.202,19.777 10.011,19.901 10.833 C 19.979 11.347,19.979 12.653,19.901 13.167 C 19.295 17.187,15.741 20.149,11.720 19.985 C 9.666 19.902,7.807 19.089,6.360 17.641 C 5.242 16.522,4.468 15.077,4.153 13.520 C 4.070 13.107,4.060 12.951,4.060 12.000 C 4.060 11.051,4.070 10.892,4.152 10.484 C 4.512 8.707,5.491 7.039,6.835 5.915 C 8.017 4.925,9.387 4.309,10.860 4.103 C 11.684 3.988,11.557 3.994,12.408 4.041 M11.719 6.061 C 11.493 6.131,11.225 6.356,11.109 6.574 L 11.020 6.740 11.020 10.040 C 11.020 13.741,10.996 13.442,11.322 13.737 C 11.550 13.943,11.732 14.013,12.040 14.014 C 12.227 14.014,12.345 13.991,12.460 13.931 C 12.668 13.822,12.869 13.610,12.929 13.437 C 12.964 13.337,12.980 12.426,12.990 10.033 L 13.004 6.765 12.903 6.567 C 12.778 6.320,12.560 6.136,12.303 6.059 C 12.065 5.988,11.956 5.988,11.719 6.061 M11.800 15.599 C 11.144 15.726,10.760 16.436,10.987 17.102 C 11.219 17.785,12.184 18.024,12.749 17.540 C 13.227 17.131,13.268 16.354,12.835 15.921 C 12.589 15.675,12.135 15.534,11.800 15.599 " fill="#1A1C1F" stroke="none" fill-rule="evenodd"></path></svg>