<svg width="14" height="14" viewBox="0 0 14 14" fill="none" xmlns="http://www.w3.org/2000/svg"><path d="M6.195 1.462 C 5.867 1.512,5.286 1.664,5.032 1.764 C 4.684 1.902,4.095 2.213,3.829 2.398 C 2.531 3.307,1.693 4.656,1.456 6.218 C 1.396 6.610,1.396 7.393,1.456 7.782 C 1.550 8.391,1.709 8.900,1.983 9.462 C 2.242 9.995,2.584 10.478,3.005 10.906 C 4.461 12.388,6.564 12.947,8.544 12.377 C 9.029 12.237,9.585 11.986,9.996 11.721 C 10.658 11.293,11.304 10.645,11.724 9.988 C 12.327 9.046,12.632 7.929,12.592 6.813 C 12.541 5.363,11.937 4.008,10.892 2.997 C 10.441 2.560,10.059 2.289,9.499 2.008 C 8.975 1.745,8.529 1.593,7.980 1.491 C 7.618 1.423,6.556 1.406,6.195 1.462 M7.700 5.950 L 7.700 7.700 7.000 7.700 L 6.300 7.700 6.300 5.950 L 6.300 4.200 7.000 4.200 L 7.700 4.200 7.700 5.950 M7.303 8.625 C 7.526 8.717,7.686 8.980,7.685 9.252 C 7.682 9.873,6.898 10.160,6.486 9.691 C 6.366 9.554,6.316 9.417,6.316 9.225 C 6.316 9.084,6.326 9.041,6.386 8.934 C 6.474 8.777,6.672 8.617,6.815 8.588 C 6.944 8.561,7.195 8.580,7.303 8.625 " fill="#1A1C1F" stroke="none" fill-rule="evenodd"></path></svg>