<svg width="14" height="14" viewBox="0 0 14 14" fill="none" xmlns="http://www.w3.org/2000/svg"><path d="M6.854 1.425 C 6.560 1.465,6.304 1.601,6.014 1.871 L 5.856 2.018 3.796 6.172 C 2.663 8.456,1.678 10.446,1.609 10.593 C 1.482 10.860,1.482 10.862,1.473 11.120 C 1.468 11.305,1.476 11.421,1.503 11.528 C 1.616 11.978,1.938 12.329,2.415 12.523 L 2.602 12.599 6.802 12.599 C 9.116 12.599,11.142 12.589,11.313 12.577 C 11.714 12.549,11.836 12.497,12.109 12.236 C 12.320 12.035,12.429 11.846,12.494 11.573 C 12.536 11.394,12.541 11.065,12.504 10.892 C 12.470 10.736,11.995 9.748,9.864 5.402 C 8.191 1.990,8.189 1.987,8.022 1.819 C 7.714 1.509,7.291 1.367,6.854 1.425 M9.171 7.027 C 10.300 9.282,11.223 11.143,11.223 11.163 C 11.223 11.197,10.829 11.200,7.058 11.200 C 3.370 11.200,2.893 11.196,2.893 11.165 C 2.893 11.130,5.680 5.541,6.574 3.782 C 7.008 2.929,7.057 2.844,7.086 2.884 C 7.104 2.908,8.042 4.772,9.171 7.027 M6.347 7.000 L 6.347 8.400 7.058 8.400 L 7.770 8.400 7.770 7.000 L 7.770 5.600 7.058 5.600 L 6.347 5.600 6.347 7.000 M6.942 9.123 C 6.706 9.158,6.477 9.349,6.403 9.572 C 6.352 9.727,6.367 9.984,6.435 10.118 C 6.559 10.360,6.847 10.518,7.117 10.494 C 7.381 10.470,7.643 10.262,7.713 10.020 C 7.860 9.515,7.457 9.046,6.942 9.123 " fill="#1A1C1F" stroke="none" fill-rule="evenodd"></path></svg>