<svg xmlns="http://www.w3.org/2000/svg" width="32" height="32" fill="none"><g clip-path="url(#a)"><path fill="#1A1C1F" fill-rule="evenodd" d="M16 2c7.719 0 14 6.281 14 14s-6.281 14-14 14S2 23.719 2 16 8.281 2 16 2m0 2C9.375 4 4 9.375 4 16s5.375 12 12 12 12-5.375 12-12S22.625 4 16 4m0 5c-.562 0-1 .437-1 1v7.75c0 .594.469 1 1 1 .563 0 1-.437 1-1V10c0-.75-.562-1-1-1m0 14.344c-.719 0-1.344-.625-1.344-1.344 0-.75.625-1.344 1.344-1.344.75 0 1.344.594 1.344 1.344 0 .719-.594 1.344-1.344 1.344" clip-rule="evenodd"/></g><defs><clipPath id="a"><path fill="#fff" d="M0 0h32v32H0z"/></clipPath></defs></svg>