<svg width="32" height="32" viewBox="0 0 32 32" fill="none" xmlns="http://www.w3.org/2000/svg"><path d="M14.347 2.112 C 12.071 2.412,10.105 3.141,8.256 4.370 C 5.008 6.530,2.878 9.824,2.186 13.760 C 2.037 14.607,1.981 16.502,2.078 17.400 C 2.470 21.031,4.146 24.228,6.907 26.609 C 9.101 28.502,11.821 29.661,14.687 29.925 C 15.536 30.003,17.310 29.959,18.050 29.841 C 21.046 29.365,23.563 28.114,25.726 26.028 C 28.137 23.702,29.615 20.635,29.924 17.313 C 30.003 16.468,29.959 14.694,29.842 13.956 C 29.363 10.947,28.139 8.473,26.056 6.304 C 24.295 4.470,21.991 3.114,19.565 2.485 C 18.463 2.199,18.020 2.135,16.737 2.080 C 15.264 2.016,15.047 2.019,14.347 2.112 M17.387 4.111 C 19.376 4.282,21.722 5.248,23.436 6.601 C 24.746 7.636,25.924 9.081,26.673 10.573 C 27.406 12.033,27.745 13.159,27.895 14.629 C 27.981 15.474,27.936 17.476,27.818 18.053 C 27.553 19.344,27.288 20.146,26.778 21.202 C 26.131 22.543,25.379 23.582,24.300 24.627 C 22.928 25.956,21.541 26.783,19.627 27.416 C 16.038 28.602,12.077 27.953,8.907 25.660 C 8.276 25.204,7.190 24.175,6.705 23.573 C 5.534 22.122,4.633 20.209,4.231 18.320 C 4.089 17.654,4.083 17.566,4.082 16.053 C 4.080 14.380,4.090 14.275,4.379 13.108 C 4.761 11.567,5.521 9.984,6.498 8.695 C 6.916 8.143,7.934 7.102,8.479 6.668 C 10.029 5.434,11.966 4.546,13.838 4.212 C 14.974 4.008,15.895 3.982,17.387 4.111 M15.598 9.110 C 15.354 9.225,15.113 9.485,15.053 9.697 C 15.031 9.776,15.013 11.690,15.013 13.951 L 15.013 18.061 15.156 18.277 C 15.443 18.710,16.089 18.856,16.512 18.582 C 16.629 18.506,16.783 18.358,16.856 18.253 L 16.987 18.061 17.003 14.257 C 17.019 10.282,16.994 9.636,16.813 9.393 C 16.563 9.057,15.994 8.924,15.598 9.110 M15.486 20.770 C 15.271 20.864,14.895 21.203,14.798 21.391 C 14.687 21.606,14.646 22.073,14.716 22.331 C 14.862 22.873,15.433 23.316,15.993 23.321 C 16.893 23.329,17.555 22.400,17.254 21.550 C 17.130 21.197,16.982 21.033,16.630 20.857 C 16.370 20.727,16.237 20.694,15.978 20.695 C 15.799 20.697,15.578 20.730,15.486 20.770 " fill="#1A1C1F" stroke="none" fill-rule="evenodd"></path></svg>