<svg width="16" height="16" viewBox="0 0 16 16" fill="none" xmlns="http://www.w3.org/2000/svg"><path d="M7.527 1.677 C 7.091 1.839,6.792 2.118,6.525 2.613 C 6.426 2.797,5.297 5.042,4.016 7.603 C 1.561 12.508,1.599 12.427,1.600 12.779 C 1.601 12.994,1.667 13.261,1.776 13.488 C 1.955 13.860,2.372 14.212,2.787 14.338 C 2.939 14.384,3.180 14.387,8.000 14.387 C 12.820 14.387,13.061 14.384,13.213 14.338 C 13.628 14.212,14.045 13.860,14.224 13.488 C 14.391 13.140,14.434 12.820,14.361 12.475 C 14.314 12.253,14.133 11.879,11.442 6.453 L 9.360 2.253 9.193 2.099 C 9.004 1.925,8.801 1.792,8.587 1.704 C 8.463 1.654,8.380 1.643,8.053 1.635 C 7.721 1.627,7.647 1.633,7.527 1.677 M8.800 7.200 L 8.800 9.600 8.000 9.600 L 7.200 9.600 7.200 7.200 L 7.200 4.800 8.000 4.800 L 8.800 4.800 8.800 7.200 M8.268 11.203 C 8.437 11.254,8.613 11.409,8.717 11.600 C 8.804 11.758,8.812 11.793,8.813 11.987 C 8.813 12.154,8.801 12.223,8.755 12.307 C 8.659 12.486,8.513 12.633,8.353 12.712 C 7.973 12.898,7.497 12.744,7.279 12.364 C 7.207 12.238,7.201 12.205,7.201 11.973 C 7.201 11.742,7.207 11.708,7.279 11.583 C 7.366 11.432,7.500 11.309,7.666 11.228 C 7.790 11.168,8.105 11.155,8.268 11.203 " fill="#1A1C1F" stroke="none" fill-rule="evenodd"></path></svg>