<svg width="20" height="20" viewBox="0 0 20 20" fill="none" xmlns="http://www.w3.org/2000/svg"><path d="M9.791 2.036 C 9.372 2.092,9.005 2.287,8.592 2.673 L 8.366 2.883 5.422 8.817 C 3.802 12.080,2.396 14.922,2.297 15.133 C 2.119 15.514,2.118 15.519,2.105 15.886 C 2.097 16.151,2.108 16.316,2.147 16.469 C 2.309 17.111,2.769 17.613,3.450 17.890 L 3.717 17.999 9.717 17.998 C 13.017 17.998,15.915 17.984,16.158 17.969 C 16.726 17.932,16.907 17.855,17.299 17.480 C 17.718 17.080,17.898 16.639,17.900 16.015 C 17.900 15.513,17.925 15.576,16.908 13.483 C 15.536 10.657,12.269 3.996,11.879 3.228 C 11.710 2.895,11.621 2.762,11.454 2.593 C 11.021 2.157,10.414 1.953,9.791 2.036 M13.099 10.036 C 14.713 13.258,16.033 15.918,16.033 15.947 C 16.033 15.995,15.488 16.000,10.083 16.000 C 4.814 16.000,4.133 15.994,4.133 15.950 C 4.133 15.900,8.114 7.916,9.392 5.403 C 10.002 4.205,10.082 4.063,10.121 4.117 C 10.146 4.151,11.486 6.814,13.099 10.036 M9.067 10.000 L 9.067 12.000 10.083 12.000 L 11.100 12.000 11.100 10.000 L 11.100 8.000 10.083 8.000 L 9.067 8.000 9.067 10.000 M9.917 13.034 C 9.586 13.081,9.252 13.358,9.148 13.674 C 9.074 13.895,9.095 14.263,9.193 14.454 C 9.369 14.796,9.785 15.026,10.166 14.991 C 10.418 14.968,10.571 14.892,10.786 14.683 C 10.925 14.547,10.974 14.470,11.018 14.316 C 11.229 13.591,10.660 12.929,9.917 13.034 " fill="#1A1C1F" stroke="none" fill-rule="evenodd"></path></svg>