<svg width="12" height="12" viewBox="0 0 12 12" fill="none" xmlns="http://www.w3.org/2000/svg"><path d="M5.310 1.254 C 5.034 1.295,4.534 1.425,4.313 1.512 C 4.015 1.630,3.510 1.897,3.282 2.056 C 2.313 2.734,1.632 3.713,1.351 4.829 C 1.241 5.267,1.211 5.515,1.211 6.000 C 1.212 6.477,1.239 6.714,1.343 7.140 C 1.501 7.789,1.843 8.479,2.269 9.010 C 2.552 9.362,2.980 9.749,3.368 10.004 C 5.258 11.241,7.692 11.014,9.317 9.450 C 11.123 7.712,11.298 4.943,9.726 2.989 C 9.414 2.602,8.936 2.180,8.530 1.934 C 7.890 1.547,7.236 1.315,6.576 1.242 C 6.296 1.210,5.553 1.218,5.310 1.254 M6.600 5.100 L 6.600 6.600 6.000 6.600 L 5.400 6.600 5.400 5.100 L 5.400 3.600 6.000 3.600 L 6.600 3.600 6.600 5.100 M6.254 7.391 C 6.356 7.432,6.491 7.572,6.541 7.685 C 6.607 7.836,6.605 8.034,6.535 8.171 C 6.465 8.308,6.353 8.412,6.220 8.462 C 5.817 8.615,5.414 8.337,5.413 7.907 C 5.413 7.786,5.422 7.749,5.474 7.657 C 5.550 7.523,5.719 7.386,5.841 7.361 C 5.949 7.340,6.167 7.355,6.254 7.391 " fill="#1A1C1F" stroke="none" fill-rule="evenodd"></path></svg>