<svg width="14" height="14" viewBox="0 0 14 14" fill="none" xmlns="http://www.w3.org/2000/svg"><path d="M6.195 1.462 C 5.867 1.512,5.286 1.664,5.032 1.764 C 4.684 1.902,4.095 2.213,3.829 2.398 C 2.531 3.307,1.693 4.656,1.456 6.218 C 1.396 6.610,1.396 7.393,1.456 7.782 C 1.550 8.391,1.709 8.900,1.983 9.462 C 2.242 9.995,2.584 10.478,3.005 10.906 C 4.461 12.388,6.564 12.947,8.544 12.377 C 9.029 12.237,9.585 11.986,9.996 11.721 C 10.658 11.293,11.304 10.645,11.724 9.988 C 12.327 9.046,12.632 7.929,12.592 6.813 C 12.541 5.363,11.937 4.008,10.892 2.997 C 10.441 2.560,10.059 2.289,9.499 2.008 C 8.975 1.745,8.529 1.593,7.980 1.491 C 7.618 1.423,6.556 1.406,6.195 1.462 M7.377 2.824 C 9.431 3.032,10.980 4.591,11.177 6.650 C 11.228 7.183,11.138 7.885,10.952 8.406 C 10.867 8.643,10.638 9.094,10.482 9.330 C 10.065 9.963,9.506 10.449,8.808 10.783 C 6.919 11.687,4.667 11.064,3.507 9.314 C 2.236 7.396,2.757 4.790,4.666 3.521 C 5.479 2.980,6.450 2.731,7.377 2.824 M6.300 5.950 L 6.300 7.700 7.000 7.700 L 7.700 7.700 7.700 5.950 L 7.700 4.200 7.000 4.200 L 6.300 4.200 6.300 5.950 M6.848 8.421 C 6.652 8.472,6.431 8.659,6.352 8.839 C 6.295 8.971,6.303 9.247,6.369 9.386 C 6.446 9.546,6.646 9.721,6.807 9.768 C 7.135 9.863,7.478 9.706,7.631 9.390 C 7.675 9.299,7.686 9.239,7.685 9.089 C 7.685 8.874,7.640 8.761,7.498 8.619 C 7.342 8.463,7.039 8.371,6.848 8.421 " fill="#1A1C1F" stroke="none" fill-rule="evenodd"></path></svg>