<svg width="28" height="28" viewBox="0 0 28 28" fill="none" xmlns="http://www.w3.org/2000/svg"><path d="M12.536 1.849 C 11.063 2.038,9.772 2.435,8.447 3.106 C 6.343 4.173,4.547 5.882,3.365 7.942 C 2.568 9.332,1.997 11.094,1.822 12.703 C 1.751 13.360,1.762 14.775,1.843 15.431 C 2.269 18.872,4.020 21.841,6.859 23.938 C 8.507 25.155,10.733 25.989,12.851 26.184 C 13.594 26.253,15.147 26.214,15.795 26.111 C 18.411 25.695,20.630 24.592,22.510 22.775 C 24.620 20.736,25.917 18.043,26.184 15.149 C 26.252 14.409,26.214 12.854,26.112 12.212 C 25.693 9.579,24.622 7.414,22.799 5.516 C 21.258 3.911,19.242 2.725,17.119 2.174 C 16.156 1.924,15.768 1.868,14.645 1.820 C 13.363 1.765,13.173 1.767,12.536 1.849 M14.486 7.174 C 14.586 7.245,14.710 7.384,14.762 7.484 C 14.852 7.660,14.855 7.762,14.859 11.684 L 14.863 15.703 14.754 15.926 C 14.467 16.508,13.600 16.545,13.257 15.990 C 13.161 15.833,13.160 15.808,13.160 11.703 L 13.160 7.574 13.295 7.388 C 13.580 6.994,14.099 6.901,14.486 7.174 M14.391 18.163 C 14.648 18.239,15.034 18.626,15.110 18.882 C 15.294 19.506,14.926 20.191,14.311 20.370 C 13.724 20.540,13.081 20.180,12.902 19.580 C 12.816 19.290,12.816 19.208,12.906 18.906 C 12.993 18.614,13.248 18.313,13.510 18.194 C 13.727 18.095,14.114 18.082,14.391 18.163 " fill="#1A1C1F" stroke="none" fill-rule="evenodd"></path></svg>