<svg width="20" height="20" viewBox="0 0 20 20" fill="none" xmlns="http://www.w3.org/2000/svg"><path d="M9.407 2.099 C 9.119 2.204,8.867 2.365,8.627 2.598 C 8.446 2.773,8.354 2.903,8.166 3.250 C 8.037 3.488,6.620 6.303,5.019 9.504 C 1.953 15.634,1.999 15.534,2.001 15.973 C 2.001 16.243,2.084 16.577,2.220 16.860 C 2.443 17.325,2.965 17.764,3.483 17.922 C 3.674 17.981,3.975 17.983,10.000 17.983 C 16.025 17.983,16.326 17.981,16.517 17.922 C 17.035 17.764,17.557 17.325,17.780 16.860 C 17.989 16.425,18.043 16.025,17.951 15.593 C 17.893 15.317,17.672 14.860,14.286 8.033 L 11.700 2.817 11.492 2.624 C 11.255 2.406,11.001 2.240,10.733 2.130 C 10.578 2.067,10.477 2.054,10.067 2.045 C 9.654 2.036,9.557 2.044,9.407 2.099 M11.000 9.000 L 11.000 12.000 10.000 12.000 L 9.000 12.000 9.000 9.000 L 9.000 6.000 10.000 6.000 L 11.000 6.000 11.000 9.000 M10.368 14.017 C 10.581 14.092,10.774 14.269,10.901 14.506 C 11.003 14.695,11.015 14.744,11.015 14.983 C 11.016 15.194,11.001 15.278,10.944 15.383 C 10.823 15.608,10.641 15.791,10.441 15.890 C 9.966 16.123,9.372 15.930,9.099 15.455 C 9.009 15.298,9.001 15.257,9.001 14.967 C 9.001 14.677,9.009 14.635,9.099 14.479 C 9.207 14.290,9.375 14.136,9.582 14.035 C 9.751 13.953,10.160 13.944,10.368 14.017 " fill="#1A1C1F" stroke="none" fill-rule="evenodd"></path></svg>