<svg width="24" height="24" viewBox="0 0 24 24" fill="none" xmlns="http://www.w3.org/2000/svg"><path d="M11.680 2.053 C 11.361 2.125,11.054 2.306,10.780 2.583 C 10.561 2.805,10.470 2.963,9.752 4.363 C 8.520 6.765,5.688 12.367,3.819 16.100 C 1.921 19.892,1.943 19.838,2.027 20.420 C 2.115 21.032,2.464 21.529,2.986 21.787 C 3.253 21.919,3.334 21.939,3.713 21.965 C 4.267 22.004,19.728 22.004,20.281 21.966 C 20.823 21.928,21.141 21.790,21.474 21.449 C 21.891 21.022,22.053 20.530,21.968 19.947 C 21.925 19.653,21.864 19.504,21.356 18.460 C 20.730 17.171,14.735 5.214,14.009 3.805 C 13.634 3.076,13.504 2.863,13.312 2.658 C 12.816 2.128,12.259 1.921,11.680 2.053 M12.114 4.070 C 12.159 4.109,12.640 5.013,13.183 6.080 C 14.406 8.485,19.797 19.264,19.919 19.548 L 20.008 19.756 19.921 19.878 L 19.835 20.000 12.000 20.000 L 4.165 20.000 4.083 19.884 C 4.037 19.820,4.000 19.738,4.000 19.703 C 4.000 19.632,8.971 9.690,10.721 6.260 C 11.693 4.355,11.894 4.000,12.000 4.000 C 12.017 4.000,12.068 4.031,12.114 4.070 M11.729 8.917 C 11.524 8.969,11.294 9.151,11.151 9.374 L 11.020 9.578 11.009 12.213 L 10.998 14.848 11.088 15.027 C 11.303 15.457,11.579 15.643,12.007 15.645 C 12.410 15.647,12.806 15.375,12.925 15.013 C 12.990 14.815,13.025 10.189,12.964 9.754 C 12.915 9.398,12.784 9.195,12.499 9.036 C 12.280 8.913,11.948 8.861,11.729 8.917 M11.667 16.785 C 10.967 17.000,10.762 18.031,11.320 18.532 C 11.848 19.008,12.629 18.835,12.902 18.181 C 12.970 18.020,12.979 17.535,12.918 17.374 C 12.847 17.187,12.610 16.932,12.430 16.848 C 12.193 16.737,11.901 16.713,11.667 16.785 " fill="#1A1C1F" stroke="none" fill-rule="evenodd"></path></svg>