<svg xmlns="http://www.w3.org/2000/svg" width="28" height="28" fill="none"><g clip-path="url(#a)"><path fill="#1A1C1F" fill-rule="evenodd" d="M14 1.75c6.754 0 12.25 5.496 12.25 12.25S20.754 26.25 14 26.25 1.75 20.754 1.75 14 7.246 1.75 14 1.75m0 16.324c-.629 0-1.176.52-1.176 1.176 0 .629.547 1.176 1.176 1.176.656 0 1.176-.547 1.176-1.176 0-.656-.52-1.176-1.176-1.176M14 7a.863.863 0 0 0-.875.875v7.656c0 .52.41.875.875.875a.863.863 0 0 0 .875-.875V7.875A.863.863 0 0 0 14 7" clip-rule="evenodd"/></g><defs><clipPath id="a"><path fill="#fff" d="M0 0h28v28H0z"/></clipPath></defs></svg>