<svg width="28" height="28" viewBox="0 0 28 28" fill="none" xmlns="http://www.w3.org/2000/svg"><path d="M13.580 2.241 C 12.975 2.330,12.580 2.536,12.110 3.009 C 11.777 3.344,11.693 3.468,11.333 4.154 C 10.647 5.459,5.237 15.813,3.577 18.995 C 2.713 20.652,1.959 22.132,1.902 22.285 C 1.814 22.521,1.798 22.656,1.798 23.170 C 1.798 23.681,1.814 23.820,1.900 24.050 C 2.160 24.740,2.781 25.371,3.450 25.623 C 3.913 25.797,4.835 25.811,14.723 25.795 C 23.343 25.782,24.171 25.774,24.401 25.703 C 24.837 25.568,25.152 25.377,25.478 25.049 C 25.993 24.531,26.227 23.950,26.227 23.187 C 26.227 22.404,26.379 22.733,23.218 16.683 C 18.307 7.285,16.538 3.915,16.339 3.576 C 15.973 2.954,15.286 2.419,14.691 2.292 C 14.370 2.224,13.858 2.201,13.580 2.241 M14.332 3.929 C 14.432 3.985,14.546 4.079,14.584 4.137 C 14.828 4.509,23.032 20.158,23.946 21.995 C 24.400 22.906,24.453 23.040,24.453 23.262 C 24.453 23.490,24.436 23.529,24.245 23.742 C 24.130 23.870,23.977 23.999,23.905 24.029 C 23.806 24.069,21.345 24.080,13.975 24.070 L 4.177 24.057 3.990 23.959 C 3.735 23.826,3.539 23.537,3.512 23.255 C 3.483 22.953,3.518 22.884,8.436 13.533 C 10.930 8.792,12.942 4.988,13.246 4.441 C 13.570 3.857,13.915 3.694,14.332 3.929 M13.743 8.364 C 13.528 8.440,13.364 8.571,13.245 8.763 L 13.137 8.937 13.137 13.207 L 13.137 17.477 13.246 17.653 C 13.306 17.749,13.431 17.886,13.522 17.956 C 13.666 18.066,13.733 18.083,14.004 18.083 C 14.285 18.083,14.337 18.068,14.494 17.941 C 14.591 17.862,14.714 17.715,14.767 17.614 C 14.862 17.432,14.863 17.388,14.863 13.179 L 14.863 8.929 14.730 8.736 C 14.646 8.615,14.507 8.499,14.359 8.425 C 14.105 8.298,13.966 8.285,13.743 8.364 M13.684 19.923 C 13.157 20.057,12.738 20.656,12.802 21.189 C 12.835 21.470,12.934 21.671,13.153 21.902 C 13.492 22.259,13.903 22.375,14.341 22.237 C 14.876 22.069,15.184 21.643,15.184 21.070 C 15.185 20.602,14.961 20.228,14.557 20.019 C 14.362 19.919,13.903 19.868,13.684 19.923 " fill="#1A1C1F" stroke="none" fill-rule="evenodd"></path></svg>