<svg xmlns="http://www.w3.org/2000/svg" width="32" height="32" fill="none"><path fill="#1A1C1F" fill-rule="evenodd" d="M14.72 2.06c-1.337.16-2.192.345-3.214.694a14.01 14.01 0 0 0-9.108 9.958 13.97 13.97 0 0 0 2.111 11.263c1.513 2.162 3.665 3.918 6.004 4.898 1.813.759 3.549 1.111 5.487 1.111 2.014 0 3.907-.403 5.746-1.224 3.133-1.398 5.81-4.13 7.127-7.273.76-1.814 1.111-3.55 1.11-5.487-.001-2.779-.782-5.401-2.282-7.665a14.06 14.06 0 0 0-9.621-6.178c-.537-.084-2.898-.153-3.36-.097m1.641 6.023q.356.149.537.477c.08.145.09.589.103 4.638.011 3.145-.002 4.563-.044 4.765-.184.884-1.336 1.068-1.82.289l-.124-.199V13.44c0-2.537.018-4.677.04-4.756.097-.344.557-.68.935-.683.097 0 .264.036.373.082m.299 12.762c.739.395.902 1.372.337 2.014-.377.429-.833.572-1.346.423-.597-.174-1.018-.762-.973-1.358.076-1.007 1.088-1.558 1.982-1.079"/></svg>