<svg width="32" height="32" viewBox="0 0 32 32" fill="none" xmlns="http://www.w3.org/2000/svg"><path d="M15.520 2.562 C 14.829 2.663,14.377 2.899,13.840 3.439 C 13.459 3.821,13.363 3.963,12.952 4.747 C 12.168 6.239,5.985 18.072,4.088 21.709 C 3.101 23.602,2.239 25.294,2.174 25.469 C 2.073 25.738,2.054 25.892,2.054 26.480 C 2.054 27.064,2.073 27.222,2.172 27.485 C 2.468 28.274,3.178 28.995,3.943 29.283 C 4.471 29.482,5.528 29.499,16.853 29.482 L 27.653 29.467 28.027 29.329 C 28.666 29.095,29.124 28.733,29.512 28.158 C 29.849 27.657,29.947 27.278,29.946 26.480 C 29.946 25.892,29.927 25.738,29.826 25.467 C 29.760 25.292,28.623 23.072,27.299 20.534 C 22.543 11.416,18.915 4.499,18.673 4.087 C 18.255 3.376,17.470 2.764,16.790 2.620 C 16.423 2.542,15.838 2.515,15.520 2.562 M16.382 4.491 C 16.497 4.556,16.636 4.682,16.690 4.771 C 17.064 5.388,25.469 21.404,26.995 24.408 C 27.886 26.162,27.947 26.301,27.947 26.575 C 27.947 26.847,27.930 26.888,27.708 27.134 C 27.577 27.280,27.402 27.427,27.320 27.461 C 27.207 27.508,24.394 27.520,15.972 27.508 L 4.773 27.493 4.560 27.382 C 4.268 27.230,4.045 26.900,4.014 26.577 C 3.981 26.232,4.020 26.153,9.641 15.467 C 12.491 10.048,14.791 5.701,15.138 5.076 C 15.509 4.407,15.903 4.222,16.382 4.491 M15.707 9.558 C 15.460 9.646,15.273 9.796,15.137 10.014 L 15.013 10.213 15.013 15.093 L 15.013 19.973 15.138 20.174 C 15.207 20.285,15.349 20.441,15.454 20.521 C 15.618 20.646,15.695 20.667,16.004 20.667 C 16.325 20.667,16.385 20.649,16.565 20.504 C 16.675 20.414,16.816 20.246,16.876 20.130 C 16.986 19.922,16.987 19.872,16.987 15.062 L 16.987 10.204 16.834 9.984 C 16.739 9.846,16.580 9.713,16.410 9.628 C 16.120 9.484,15.961 9.468,15.707 9.558 M15.639 22.769 C 14.855 22.969,14.394 23.944,14.750 24.650 C 14.873 24.895,15.188 25.216,15.426 25.339 C 16.054 25.663,16.873 25.391,17.197 24.753 C 17.554 24.047,17.305 23.219,16.631 22.875 C 16.399 22.757,15.897 22.703,15.639 22.769 " fill="#1A1C1F" stroke="none" fill-rule="evenodd"></path></svg>