<svg xmlns="http://www.w3.org/2000/svg" width="28" height="28" fill="none"><g clip-path="url(#a)"><path fill="#1A1C1F" fill-rule="evenodd" d="M14 1.75c6.754 0 12.25 5.496 12.25 12.25S20.754 26.25 14 26.25 1.75 20.754 1.75 14 7.246 1.75 14 1.75m0 1.75C8.203 3.5 3.5 8.203 3.5 14S8.203 24.5 14 24.5 24.5 19.797 24.5 14 19.797 3.5 14 3.5m0 4.375a.863.863 0 0 0-.875.875v6.781c0 .52.41.875.875.875a.863.863 0 0 0 .875-.875V8.75c0-.657-.492-.875-.875-.875m0 12.55a1.203 1.203 0 0 1-1.176-1.175c0-.656.547-1.176 1.176-1.176.656 0 1.176.52 1.176 1.176 0 .629-.52 1.176-1.176 1.176" clip-rule="evenodd"/></g><defs><clipPath id="a"><path fill="#fff" d="M0 0h28v28H0z"/></clipPath></defs></svg>