<svg width="28" height="28" viewBox="0 0 28 28" fill="none" xmlns="http://www.w3.org/2000/svg"><path d="M13.580 2.241 C 12.975 2.330,12.580 2.536,12.110 3.009 C 11.777 3.344,11.693 3.468,11.333 4.154 C 10.647 5.459,5.237 15.813,3.577 18.995 C 2.713 20.652,1.959 22.132,1.902 22.285 C 1.814 22.521,1.798 22.656,1.798 23.170 C 1.798 23.681,1.814 23.820,1.900 24.050 C 2.160 24.740,2.781 25.371,3.450 25.623 C 3.913 25.797,4.835 25.811,14.723 25.795 C 23.343 25.782,24.171 25.774,24.401 25.703 C 24.837 25.568,25.152 25.377,25.478 25.049 C 25.993 24.531,26.227 23.950,26.227 23.187 C 26.227 22.404,26.379 22.733,23.218 16.683 C 18.307 7.285,16.538 3.915,16.339 3.576 C 15.973 2.954,15.286 2.419,14.691 2.292 C 14.370 2.224,13.858 2.201,13.580 2.241 M14.407 7.932 C 14.490 7.982,14.621 8.111,14.699 8.219 L 14.840 8.414 14.840 12.997 L 14.840 17.579 14.705 17.765 C 14.346 18.262,13.621 18.250,13.275 17.741 L 13.160 17.572 13.160 12.993 L 13.160 8.414 13.301 8.219 C 13.379 8.111,13.510 7.982,13.593 7.932 C 13.797 7.808,14.203 7.808,14.407 7.932 M14.544 20.012 C 14.765 20.124,15.009 20.388,15.110 20.623 C 15.218 20.872,15.205 21.355,15.086 21.583 C 14.848 22.038,14.360 22.338,13.930 22.293 C 13.626 22.262,13.375 22.135,13.153 21.902 C 12.875 21.609,12.822 21.461,12.840 21.025 C 12.854 20.702,12.877 20.613,12.985 20.449 C 13.317 19.947,14.028 19.748,14.544 20.012 " fill="#1A1C1F" stroke="none" fill-rule="evenodd"></path></svg>