<svg width="14" height="14" viewBox="0 0 14 14" fill="none" xmlns="http://www.w3.org/2000/svg"><path d="M6.568 1.477 C 6.171 1.628,5.951 1.842,5.686 2.334 C 5.426 2.818,1.531 10.612,1.468 10.773 C 1.425 10.886,1.416 10.955,1.416 11.188 C 1.415 11.446,1.421 11.483,1.487 11.649 C 1.584 11.895,1.677 12.033,1.867 12.212 C 2.029 12.365,2.253 12.492,2.473 12.557 C 2.559 12.582,3.403 12.588,7.000 12.588 C 11.218 12.588,11.428 12.586,11.562 12.546 C 11.874 12.450,12.226 12.182,12.386 11.916 C 12.564 11.620,12.635 11.239,12.569 10.929 C 12.525 10.721,12.364 10.389,10.012 5.647 L 8.190 1.972 8.044 1.837 C 7.879 1.684,7.701 1.568,7.513 1.491 C 7.405 1.447,7.333 1.437,7.047 1.431 C 6.739 1.424,6.695 1.428,6.568 1.477 M7.700 6.300 L 7.700 8.400 7.000 8.400 L 6.300 8.400 6.300 6.300 L 6.300 4.200 7.000 4.200 L 7.700 4.200 7.700 6.300 M7.234 9.803 C 7.382 9.847,7.536 9.983,7.628 10.150 C 7.703 10.288,7.711 10.318,7.711 10.488 C 7.711 10.635,7.700 10.695,7.661 10.768 C 7.534 11.004,7.323 11.159,7.087 11.191 C 6.824 11.227,6.511 11.065,6.371 10.821 C 6.306 10.708,6.300 10.680,6.300 10.477 C 6.300 10.274,6.306 10.245,6.369 10.135 C 6.445 10.003,6.563 9.895,6.708 9.825 C 6.817 9.772,7.092 9.760,7.234 9.803 " fill="#1A1C1F" stroke="none" fill-rule="evenodd"></path></svg>