<svg xmlns="http://www.w3.org/2000/svg" width="32" height="32" fill="none"><path fill="#1A1C1F" fill-rule="evenodd" d="M14.72 2.06c-1.337.16-2.192.345-3.214.694a14.01 14.01 0 0 0-9.108 9.958 13.97 13.97 0 0 0 2.111 11.263c1.513 2.162 3.665 3.918 6.004 4.898 1.813.759 3.549 1.111 5.487 1.111 2.014 0 3.907-.403 5.746-1.224 3.133-1.398 5.81-4.13 7.127-7.273.76-1.814 1.111-3.55 1.11-5.487-.001-2.779-.782-5.401-2.282-7.665a14.06 14.06 0 0 0-9.621-6.178c-.537-.084-2.898-.153-3.36-.097m3.04 2.074c3.883.583 7.274 3.057 8.983 6.553.876 1.792 1.226 3.309 1.226 5.313 0 .777-.027 1.271-.094 1.707-.534 3.477-2.441 6.452-5.368 8.372-1.079.708-2.675 1.372-3.963 1.65-5.37 1.157-10.888-1.508-13.287-6.416a11.8 11.8 0 0 1-1.133-3.606c-.128-.844-.128-2.57 0-3.414.603-3.954 3.045-7.317 6.563-9.036 1.438-.703 2.776-1.075 4.406-1.224.474-.044 2.118.019 2.667.101m-2.217 4.987a.95.95 0 0 0-.494.58c-.086.249-.089 8.042-.003 8.352.131.475.698.786 1.2.66.314-.079.628-.372.708-.66.04-.147.058-1.451.057-4.213-.002-4.225-.004-4.248-.246-4.516-.278-.308-.827-.399-1.222-.203m.19 11.568a1.49 1.49 0 0 0-.942.717c-.118.226-.15.685-.068.978.106.379.517.78.919.896 1.226.353 2.191-1.098 1.411-2.121-.263-.345-.871-.561-1.32-.47"/></svg>