<svg width="28" height="28" viewBox="0 0 28 28" fill="none" xmlns="http://www.w3.org/2000/svg"><path d="M12.536 1.849 C 11.063 2.038,9.772 2.435,8.447 3.106 C 6.343 4.173,4.547 5.882,3.365 7.942 C 2.568 9.332,1.997 11.094,1.822 12.703 C 1.751 13.360,1.762 14.775,1.843 15.431 C 2.269 18.872,4.020 21.841,6.859 23.938 C 8.507 25.155,10.733 25.989,12.851 26.184 C 13.594 26.253,15.147 26.214,15.795 26.111 C 18.411 25.695,20.630 24.592,22.510 22.775 C 24.620 20.736,25.917 18.043,26.184 15.149 C 26.252 14.409,26.214 12.854,26.112 12.212 C 25.693 9.579,24.622 7.414,22.799 5.516 C 21.258 3.911,19.242 2.725,17.119 2.174 C 16.156 1.924,15.768 1.868,14.645 1.820 C 13.363 1.765,13.173 1.767,12.536 1.849 M15.202 3.595 C 16.302 3.694,17.505 4.048,18.617 4.600 C 19.680 5.128,20.447 5.663,21.252 6.438 C 22.882 8.009,23.962 10.033,24.340 12.227 C 24.441 12.815,24.485 14.714,24.410 15.286 C 24.175 17.087,23.431 18.908,22.336 20.363 C 21.781 21.101,20.841 22.005,20.032 22.579 C 18.330 23.788,16.094 24.500,14.000 24.500 C 12.451 24.500,10.698 24.085,9.310 23.391 C 7.710 22.590,6.237 21.273,5.227 19.740 C 4.552 18.716,3.976 17.305,3.703 16.007 C 3.574 15.396,3.570 15.333,3.570 14.000 C 3.570 12.524,3.587 12.368,3.859 11.317 C 4.196 10.011,4.940 8.544,5.835 7.419 C 6.226 6.928,7.134 6.042,7.623 5.676 C 8.932 4.695,10.441 4.010,11.919 3.728 C 13.063 3.509,13.877 3.476,15.202 3.595 M13.648 7.971 C 13.435 8.071,13.224 8.299,13.172 8.485 C 13.152 8.554,13.137 10.229,13.137 12.207 L 13.137 15.804 13.262 15.993 C 13.513 16.372,14.078 16.499,14.448 16.259 C 14.550 16.193,14.685 16.063,14.749 15.971 L 14.863 15.804 14.877 12.475 C 14.892 8.997,14.870 8.432,14.712 8.219 C 14.492 7.925,13.994 7.809,13.648 7.971 M13.550 18.174 C 13.362 18.256,13.033 18.553,12.948 18.717 C 12.851 18.905,12.815 19.313,12.876 19.540 C 13.004 20.012,13.505 20.402,13.989 20.405 C 15.191 20.412,15.619 18.783,14.555 18.252 C 14.324 18.136,14.208 18.107,13.981 18.108 C 13.825 18.109,13.631 18.139,13.550 18.174 " fill="#1A1C1F" stroke="none" fill-rule="evenodd"></path></svg>