<svg xmlns="http://www.w3.org/2000/svg" width="24" height="24" fill="none"><g clip-path="url(#a)"><path fill="#1A1C1F" fill-rule="evenodd" d="M12 2a9.99 9.99 0 0 1 10 10 9.99 9.99 0 0 1-10 10A9.99 9.99 0 0 1 2 12 9.99 9.99 0 0 1 12 2m.025 13.563c-.625 0-1.125.5-1.125 1.124s.5 1.125 1.125 1.125 1.125-.5 1.125-1.125-.5-1.125-1.125-1.125M12.031 6C11.47 6 11 6.438 11 7v6.062c0 .532.469.97 1.031.97.563 0 .969-.407.969-.97V7c0-.562-.406-1-.969-1" clip-rule="evenodd"/></g><defs><clipPath id="a"><path fill="#fff" d="M0 0h24v24H0z"/></clipPath></defs></svg>