<svg width="12" height="12" viewBox="0 0 12 12" fill="none" xmlns="http://www.w3.org/2000/svg"><path d="M5.644 1.260 C 5.319 1.378,5.094 1.588,4.894 1.960 C 4.820 2.098,3.973 3.781,3.012 5.702 C 1.171 9.381,1.199 9.320,1.200 9.584 C 1.201 9.746,1.251 9.946,1.332 10.116 C 1.466 10.395,1.779 10.659,2.090 10.753 C 2.204 10.788,2.385 10.790,6.000 10.790 C 9.615 10.790,9.796 10.788,9.910 10.753 C 10.178 10.672,10.479 10.442,10.616 10.214 C 10.770 9.959,10.830 9.633,10.773 9.366 C 10.735 9.188,10.625 8.959,8.582 4.840 L 7.020 1.690 6.895 1.574 C 6.753 1.443,6.600 1.344,6.440 1.278 C 6.347 1.240,6.286 1.232,6.040 1.227 C 5.793 1.222,5.734 1.226,5.644 1.260 M6.600 5.400 L 6.600 7.200 6.000 7.200 L 5.400 7.200 5.400 5.400 L 5.400 3.600 6.000 3.600 L 6.600 3.600 6.600 5.400 M6.201 8.403 C 6.328 8.441,6.460 8.557,6.538 8.700 C 6.603 8.818,6.609 8.844,6.609 8.990 C 6.610 9.116,6.600 9.167,6.567 9.230 C 6.494 9.365,6.385 9.475,6.264 9.534 C 5.980 9.674,5.623 9.558,5.460 9.273 C 5.405 9.179,5.400 9.154,5.400 8.980 C 5.400 8.806,5.405 8.781,5.459 8.687 C 5.524 8.574,5.625 8.481,5.749 8.421 C 5.843 8.376,6.079 8.366,6.201 8.403 " fill="#1A1C1F" stroke="none" fill-rule="evenodd"></path></svg>