<svg width="16" height="16" viewBox="0 0 16 16" fill="none" xmlns="http://www.w3.org/2000/svg"><path d="M7.080 1.670 C 6.705 1.728,6.041 1.901,5.751 2.016 C 5.353 2.174,4.680 2.529,4.376 2.741 C 2.916 3.763,1.977 5.251,1.678 7.015 C 1.596 7.499,1.589 8.411,1.664 8.893 C 1.834 9.993,2.234 10.949,2.900 11.848 C 3.151 12.187,3.798 12.837,4.133 13.087 C 5.108 13.813,6.223 14.251,7.409 14.372 C 9.007 14.535,10.727 14.012,12.013 12.972 C 12.310 12.732,12.811 12.222,13.044 11.920 C 14.188 10.444,14.637 8.566,14.276 6.773 C 14.013 5.471,13.395 4.342,12.437 3.413 C 11.529 2.533,10.374 1.938,9.120 1.704 C 8.706 1.626,7.493 1.607,7.080 1.670 M8.431 3.228 C 10.784 3.466,12.563 5.263,12.774 7.615 C 12.830 8.234,12.729 9.013,12.516 9.607 C 12.416 9.888,12.153 10.401,11.960 10.693 C 11.015 12.123,9.234 12.958,7.526 12.772 C 6.308 12.639,5.221 12.086,4.434 11.200 C 2.968 9.549,2.802 7.178,4.024 5.330 C 4.976 3.890,6.725 3.055,8.431 3.228 M7.200 6.800 L 7.200 8.800 8.000 8.800 L 8.800 8.800 8.800 6.800 L 8.800 4.800 8.000 4.800 L 7.200 4.800 7.200 6.800 M7.827 9.624 C 7.681 9.662,7.532 9.754,7.421 9.875 C 7.247 10.063,7.215 10.143,7.216 10.388 C 7.217 10.658,7.280 10.799,7.484 10.986 C 7.881 11.349,8.480 11.226,8.722 10.731 C 8.774 10.624,8.786 10.560,8.784 10.387 C 8.782 10.142,8.730 10.012,8.569 9.851 C 8.391 9.672,8.044 9.566,7.827 9.624 " fill="#1A1C1F" stroke="none" fill-rule="evenodd"></path></svg>