<svg xmlns="http://www.w3.org/2000/svg" width="14" height="14" fill="none"><g clip-path="url(#a)"><path fill="#1A1C1F" fill-rule="evenodd" d="M7 1.4A5.61 5.61 0 0 1 12.6 7 5.61 5.61 0 0 1 7 12.6 5.61 5.61 0 0 1 1.4 7 5.61 5.61 0 0 1 7 1.4m0 1.4a4.201 4.201 0 0 0 0 8.4 4.201 4.201 0 0 0 0-8.4m.7 2.8v2.8h1.4v1.4H4.9V8.4h1.4V7H5.14V5.6zM7 3.544c.416 0 .722.306.722.722A.7.7 0 0 1 7 4.987a.7.7 0 0 1-.722-.721c0-.416.306-.722.722-.722" clip-rule="evenodd"/></g><defs><clipPath id="a"><path fill="#fff" d="M0 0h14v14H0z"/></clipPath></defs></svg>