<svg width="28" height="28" viewBox="0 0 28 28" fill="none" xmlns="http://www.w3.org/2000/svg"><path d="M12.536 1.849 C 10.599 2.097,8.834 2.753,7.224 3.824 C 4.383 5.713,2.521 8.594,1.913 12.040 C 1.782 12.780,1.734 14.416,1.818 15.243 C 2.001 17.046,2.666 18.985,3.612 20.476 C 4.517 21.902,5.907 23.322,7.289 24.232 C 8.834 25.250,10.668 25.920,12.557 26.156 C 13.230 26.240,14.614 26.253,15.260 26.181 C 18.821 25.784,21.902 23.970,24.019 21.023 C 25.207 19.370,25.991 17.243,26.184 15.149 C 26.252 14.409,26.214 12.854,26.112 12.212 C 25.693 9.579,24.622 7.414,22.799 5.516 C 21.258 3.911,19.242 2.725,17.119 2.174 C 16.156 1.924,15.768 1.868,14.645 1.820 C 13.363 1.765,13.173 1.767,12.536 1.849 M14.454 7.241 C 14.698 7.356,15.009 7.701,15.079 7.932 C 15.107 8.027,15.123 8.285,15.113 8.505 C 15.099 8.861,15.081 8.928,14.955 9.108 C 14.771 9.371,14.437 9.592,14.116 9.664 C 13.597 9.780,13.035 9.530,12.752 9.055 C 12.613 8.822,12.600 8.768,12.600 8.411 C 12.600 8.005,12.643 7.869,12.865 7.577 C 13.008 7.389,13.298 7.197,13.522 7.142 C 13.766 7.082,14.220 7.130,14.454 7.241 M14.486 11.562 C 14.864 11.827,14.844 11.639,14.874 15.206 L 14.901 18.376 15.886 18.396 C 16.655 18.412,16.908 18.432,17.042 18.491 C 17.573 18.723,17.605 19.662,17.093 19.980 L 16.917 20.090 14.000 20.090 L 11.083 20.090 10.907 19.980 C 10.663 19.829,10.547 19.582,10.547 19.216 C 10.547 18.978,10.569 18.888,10.665 18.748 C 10.875 18.439,10.960 18.418,12.098 18.396 L 13.113 18.375 13.113 15.865 L 13.113 13.355 12.238 13.339 C 11.477 13.325,11.339 13.311,11.177 13.230 C 10.693 12.987,10.593 12.293,10.981 11.870 C 11.175 11.659,11.350 11.622,12.170 11.621 C 12.791 11.620,12.978 11.597,13.720 11.430 C 13.986 11.370,14.286 11.421,14.486 11.562 " fill="#1A1C1F" stroke="none" fill-rule="evenodd"></path></svg>