<svg width="24" height="24" viewBox="0 0 24 24" fill="none" xmlns="http://www.w3.org/2000/svg"><path d="M11.340 2.027 C 9.987 2.138,8.748 2.478,7.560 3.064 C 6.500 3.587,5.738 4.133,4.920 4.956 C 3.506 6.379,2.575 8.146,2.160 10.196 C 1.972 11.127,1.972 12.873,2.160 13.804 C 2.966 17.787,5.770 20.740,9.672 21.717 C 10.357 21.888,10.547 21.917,11.310 21.963 C 12.028 22.006,13.139 21.965,13.620 21.878 C 17.273 21.217,20.246 18.717,21.419 15.320 C 21.896 13.938,22.056 12.752,21.965 11.280 C 21.843 9.328,21.048 7.309,19.774 5.720 C 19.438 5.301,18.725 4.584,18.307 4.244 C 16.874 3.081,14.851 2.239,13.113 2.082 C 12.649 2.040,11.584 2.007,11.340 2.027 M12.660 4.040 C 14.664 4.222,16.525 5.127,17.850 6.564 C 18.414 7.176,18.734 7.642,19.120 8.420 C 19.515 9.214,19.673 9.659,19.820 10.380 C 20.037 11.450,20.037 12.510,19.819 13.586 C 19.256 16.373,17.233 18.669,14.540 19.577 C 10.777 20.846,6.657 19.138,4.861 15.565 C 4.460 14.767,4.247 14.092,4.096 13.140 C 4.003 12.559,4.005 11.431,4.098 10.821 C 4.469 8.415,5.859 6.342,7.918 5.128 C 9.348 4.285,11.052 3.894,12.660 4.040 M11.696 6.045 C 11.443 6.103,11.121 6.318,10.980 6.525 C 10.573 7.119,10.765 7.941,11.395 8.312 C 11.565 8.411,11.615 8.420,12.000 8.420 C 12.385 8.420,12.435 8.411,12.605 8.312 C 12.818 8.186,13.001 7.990,13.130 7.749 C 13.254 7.516,13.256 6.986,13.133 6.716 C 12.908 6.219,12.261 5.917,11.696 6.045 M9.993 10.034 C 9.636 10.064,9.424 10.185,9.221 10.475 C 9.109 10.635,9.100 10.672,9.100 10.996 C 9.100 11.309,9.111 11.363,9.208 11.510 C 9.337 11.704,9.543 11.869,9.750 11.943 C 9.846 11.977,10.096 11.997,10.450 11.998 L 11.000 12.000 11.000 13.495 L 11.000 14.990 10.390 15.008 C 9.714 15.028,9.558 15.070,9.326 15.292 C 9.065 15.542,8.951 15.910,9.036 16.225 C 9.097 16.451,9.325 16.736,9.551 16.869 L 9.740 16.980 11.993 16.992 L 14.247 17.004 14.423 16.900 C 15.042 16.538,15.180 15.798,14.717 15.322 C 14.465 15.062,14.351 15.029,13.630 15.008 L 13.000 14.990 13.000 13.181 C 13.000 10.884,12.987 10.690,12.824 10.446 C 12.756 10.345,12.619 10.213,12.520 10.153 L 12.340 10.043 11.320 10.025 C 10.759 10.015,10.162 10.019,9.993 10.034 " fill="#1A1C1F" stroke="none" fill-rule="evenodd"></path></svg>