<svg width="28" height="28" viewBox="0 0 28 28" fill="none" xmlns="http://www.w3.org/2000/svg"><path d="M12.536 1.849 C 10.599 2.097,8.834 2.753,7.224 3.824 C 4.383 5.713,2.521 8.594,1.913 12.040 C 1.782 12.780,1.734 14.416,1.818 15.243 C 2.001 17.046,2.666 18.985,3.612 20.476 C 4.517 21.902,5.907 23.322,7.289 24.232 C 8.834 25.250,10.668 25.920,12.557 26.156 C 13.230 26.240,14.614 26.253,15.260 26.181 C 18.821 25.784,21.902 23.970,24.019 21.023 C 25.207 19.370,25.991 17.243,26.184 15.149 C 26.252 14.409,26.214 12.854,26.112 12.212 C 25.693 9.579,24.622 7.414,22.799 5.516 C 21.258 3.911,19.242 2.725,17.119 2.174 C 16.156 1.924,15.768 1.868,14.645 1.820 C 13.363 1.765,13.173 1.767,12.536 1.849 M15.202 3.595 C 16.302 3.694,17.505 4.048,18.617 4.600 C 19.680 5.128,20.447 5.663,21.252 6.438 C 22.882 8.009,23.962 10.033,24.340 12.227 C 24.441 12.815,24.485 14.714,24.410 15.286 C 24.175 17.087,23.431 18.908,22.336 20.363 C 21.781 21.101,20.841 22.005,20.032 22.579 C 18.330 23.788,16.094 24.500,14.000 24.500 C 12.451 24.500,10.698 24.085,9.310 23.391 C 7.710 22.590,6.237 21.273,5.227 19.740 C 4.552 18.716,3.976 17.305,3.703 16.007 C 3.574 15.396,3.570 15.333,3.570 14.000 C 3.570 12.524,3.587 12.368,3.859 11.317 C 4.196 10.011,4.940 8.544,5.835 7.419 C 6.226 6.928,7.134 6.042,7.623 5.676 C 8.932 4.695,10.441 4.010,11.919 3.728 C 13.063 3.509,13.877 3.476,15.202 3.595 M13.517 7.143 C 13.280 7.201,12.970 7.429,12.794 7.674 C 12.337 8.309,12.577 9.188,13.313 9.577 C 13.589 9.723,14.128 9.724,14.402 9.579 C 14.685 9.430,14.873 9.257,15.014 9.016 C 15.124 8.828,15.140 8.751,15.140 8.400 C 15.140 8.049,15.124 7.972,15.015 7.786 C 14.872 7.542,14.609 7.295,14.400 7.209 C 14.199 7.126,13.730 7.091,13.517 7.143 M13.720 11.430 C 12.978 11.597,12.791 11.620,12.170 11.621 C 11.803 11.622,11.423 11.641,11.324 11.664 C 10.841 11.776,10.593 12.398,10.838 12.879 C 11.045 13.284,11.232 13.342,12.355 13.345 L 13.113 13.347 13.113 15.861 L 13.113 18.376 12.122 18.397 C 10.870 18.424,10.727 18.475,10.567 18.957 C 10.429 19.371,10.572 19.790,10.920 19.994 C 11.080 20.088,11.142 20.090,13.953 20.090 C 15.532 20.090,16.879 20.074,16.948 20.055 C 17.320 19.951,17.569 19.463,17.461 19.050 C 17.390 18.779,17.281 18.625,17.075 18.504 C 16.933 18.420,16.813 18.409,15.903 18.394 L 14.890 18.376 14.877 15.220 C 14.864 12.122,14.862 12.060,14.766 11.877 C 14.578 11.517,14.148 11.333,13.720 11.430 " fill="#1A1C1F" stroke="none" fill-rule="evenodd"></path></svg>