<svg xmlns="http://www.w3.org/2000/svg" width="32" height="32" fill="none"><g clip-path="url(#a)"><path fill="#1A1C1F" fill-rule="evenodd" d="M16 2c7.719 0 14 6.281 14 14s-6.281 14-14 14S2 23.719 2 16 8.281 2 16 2m0 2C9.375 4 4 9.375 4 16s5.375 12 12 12 12-5.375 12-12S22.625 4 16 4m-.6 9.12-.525.13H13.25c-.562 0-1 .438-1 1s.438 1 1 1H15V21h-2c-.562 0-1 .438-1 1s.438 1 1 1h6c.563 0 1-.437 1-1s-.437-1-1-1h-2v-7c0-.566-.445-.985-1.003-.992-.183-.002-.39.062-.596.113m.444-5.026c-.813 0-1.5.687-1.5 1.5a1.5 1.5 0 0 0 1.5 1.5c.844 0 1.5-.656 1.5-1.5a1.5 1.5 0 0 0-1.5-1.5" clip-rule="evenodd"/></g><defs><clipPath id="a"><path fill="#fff" d="M0 0h32v32H0z"/></clipPath></defs></svg>