<svg xmlns="http://www.w3.org/2000/svg" width="28" height="28" fill="none"><g clip-path="url(#a)"><path fill="#1A1C1F" fill-rule="evenodd" d="M14 1.75C7.246 1.75 1.75 7.246 1.75 14S7.246 26.25 14 26.25 26.25 20.754 26.25 14 20.754 1.75 14 1.75m-.524 9.73-.46.114h-1.422a.864.864 0 0 0-.875.875c0 .492.383.875.875.875h1.531v5.031h-1.75a.864.864 0 0 0-.875.875c0 .492.383.875.875.875h5.25a.864.864 0 0 0 .875-.875.864.864 0 0 0-.875-.875h-1.75V12.25c0-.496-.389-.862-.878-.868-.16-.002-.34.054-.521.099m.387-4.398a1.33 1.33 0 0 0-1.312 1.313c0 .738.601 1.312 1.312 1.312.739 0 1.313-.574 1.313-1.312 0-.711-.574-1.313-1.313-1.313" clip-rule="evenodd"/></g><defs><clipPath id="a"><path fill="#fff" d="M0 0h28v28H0z"/></clipPath></defs></svg>