<svg xmlns="http://www.w3.org/2000/svg" width="20" height="20" fill="none"><g clip-path="url(#a)"><path fill="#1A1C1F" fill-rule="evenodd" d="M10 2c4.406 0 8 3.594 8 8s-3.594 8-8 8-8-3.594-8-8 3.594-8 8-8m0 2c-3.312 0-6 2.688-6 6 0 3.313 2.688 6 6 6 3.313 0 6-2.687 6-6 0-3.312-2.687-6-6-6m1 4v4h2v2H7v-2h2v-2H7.344V8zm-1-2.937c.594 0 1.031.437 1.031 1.03 0 .595-.437 1.032-1.031 1.032a1 1 0 0 1-1.031-1.031c0-.594.437-1.032 1.031-1.032" clip-rule="evenodd"/></g><defs><clipPath id="a"><path fill="#fff" d="M0 0h20v20H0z"/></clipPath></defs></svg>