<svg width="12" height="12" viewBox="0 0 12 12" fill="none" xmlns="http://www.w3.org/2000/svg"><path d="M5.310 1.254 C 5.033 1.295,4.533 1.425,4.313 1.512 C 4.052 1.616,3.572 1.862,3.366 1.998 C 2.665 2.459,2.065 3.141,1.699 3.890 C 1.531 4.234,1.438 4.484,1.351 4.827 C 1.240 5.259,1.212 5.495,1.211 5.980 C 1.210 6.415,1.227 6.601,1.301 6.960 C 1.599 8.405,2.563 9.648,3.890 10.300 C 4.537 10.617,5.140 10.769,5.850 10.794 C 6.918 10.832,8.010 10.485,8.880 9.833 C 9.126 9.648,9.522 9.263,9.726 9.010 C 10.624 7.895,10.984 6.456,10.707 5.084 C 10.509 4.103,10.043 3.250,9.326 2.559 C 8.944 2.191,8.612 1.957,8.125 1.713 C 7.604 1.451,7.109 1.301,6.576 1.242 C 6.296 1.210,5.553 1.218,5.310 1.254 M6.275 2.744 C 6.391 2.787,6.554 2.906,6.615 2.994 C 6.722 3.145,6.740 3.209,6.740 3.435 C 6.740 3.630,6.735 3.663,6.687 3.759 C 6.616 3.900,6.451 4.062,6.307 4.132 C 6.205 4.181,6.166 4.188,6.000 4.189 C 5.831 4.189,5.797 4.183,5.694 4.133 C 5.551 4.063,5.389 3.906,5.313 3.764 C 5.259 3.663,5.257 3.649,5.263 3.424 C 5.271 3.148,5.296 3.083,5.451 2.927 C 5.562 2.815,5.716 2.727,5.847 2.700 C 5.959 2.677,6.147 2.696,6.275 2.744 M6.600 6.000 L 6.600 7.200 7.200 7.200 L 7.800 7.200 7.800 7.800 L 7.800 8.400 6.000 8.400 L 4.200 8.400 4.200 7.800 L 4.200 7.200 4.800 7.200 L 5.400 7.200 5.400 6.600 L 5.400 6.000 4.930 6.000 L 4.460 6.000 4.460 5.400 L 4.460 4.800 5.530 4.800 L 6.600 4.800 6.600 6.000 " fill="#1A1C1F" stroke="none" fill-rule="evenodd"></path></svg>