<svg xmlns="http://www.w3.org/2000/svg" width="32" height="32" fill="none"><path fill="#1A1C1F" fill-rule="evenodd" d="M14.72 2.06c-1.337.16-2.192.345-3.214.694a14 14 0 0 0-9.108 9.958 13.97 13.97 0 0 0 2.111 11.263c1.513 2.162 3.665 3.918 6.004 4.898 1.813.759 3.549 1.111 5.487 1.111 2.014 0 3.907-.403 5.746-1.224 3.133-1.398 5.81-4.13 7.127-7.273.76-1.814 1.111-3.55 1.11-5.487-.001-2.779-.782-5.401-2.282-7.665a14.06 14.06 0 0 0-9.621-6.178c-.537-.084-2.898-.153-3.36-.097m3.04 2.074c3.883.583 7.274 3.057 8.983 6.553.876 1.792 1.226 3.309 1.226 5.313 0 .777-.027 1.271-.094 1.707-.534 3.477-2.441 6.452-5.368 8.372-1.079.708-2.675 1.372-3.963 1.65-5.37 1.157-10.888-1.508-13.287-6.416a11.8 11.8 0 0 1-1.133-3.606c-.128-.844-.128-2.57 0-3.414.603-3.954 3.045-7.317 6.563-9.036 1.438-.703 2.776-1.075 4.406-1.224.474-.044 2.118.019 2.667.101m-2.452 4.062c-.33.121-.758.56-.872.894-.197.578-.069 1.124.366 1.558.432.433 1.006.556 1.584.339.306-.114.654-.431.821-.747.139-.263.139-1.017 0-1.28a1.94 1.94 0 0 0-.7-.706c-.287-.149-.874-.177-1.199-.058m-.028 4.954c-.416.11-.603.128-1.403.129-.997.001-1.087.021-1.354.303-.274.29-.34.765-.155 1.127.243.476.449.544 1.657.544h.962v5.76h-1.095c-1.367 0-1.563.062-1.792.56-.173.377-.08.908.201 1.158.287.255.291.256 3.699.256s3.412-.001 3.699-.256c.154-.137.299-.49.299-.731s-.145-.594-.299-.731c-.252-.224-.45-.256-1.591-.256h-1.095l-.001-3.586c-.001-3.373-.007-3.6-.099-3.8a.98.98 0 0 0-.552-.531c-.264-.11-.507-.098-1.081.054"/></svg>