<svg xmlns="http://www.w3.org/2000/svg" width="24" height="24" fill="none"><g clip-path="url(#a)"><path fill="#1A1C1F" fill-rule="evenodd" d="M12 2a9.99 9.99 0 0 1 10 10 9.99 9.99 0 0 1-10 10A9.99 9.99 0 0 1 2 12 9.99 9.99 0 0 1 12 2m0 2c-4.437 0-8 3.563-8 8 0 4.406 3.594 8 8 8s8-3.594 8-8c0-4.437-3.594-8-8-8m0 6h-1.937c-.563 0-1 .469-1 1s.437 1 1 1H11v3h-1c-.531 0-1 .438-1 1 0 .531.469 1 1 1h4.031c.531 0 .969-.469.969-1s-.437-1-.969-1H13v-4c0-.562-.406-1-1-1m0-4c-.687 0-1.25.531-1.25 1.219 0 .718.563 1.25 1.25 1.25s1.25-.531 1.25-1.25C13.25 6.53 12.688 6 12 6" clip-rule="evenodd"/></g><defs><clipPath id="a"><path fill="#fff" d="M0 0h24v24H0z"/></clipPath></defs></svg>