<svg width="32" height="32" viewBox="0 0 32 32" fill="none" xmlns="http://www.w3.org/2000/svg"><path d="M14.347 2.112 C 12.601 2.342,11.174 2.779,9.653 3.550 C 7.249 4.769,5.197 6.722,3.846 9.077 C 2.935 10.665,2.282 12.679,2.083 14.518 C 2.001 15.269,2.014 16.885,2.107 17.635 C 2.310 19.282,2.748 20.750,3.462 22.187 C 5.630 26.546,9.890 29.483,14.687 29.925 C 15.536 30.003,17.310 29.959,18.050 29.841 C 21.046 29.365,23.563 28.114,25.726 26.028 C 28.137 23.702,29.615 20.635,29.924 17.313 C 30.003 16.468,29.959 14.694,29.842 13.956 C 29.363 10.947,28.139 8.473,26.056 6.304 C 24.295 4.470,21.991 3.114,19.565 2.485 C 18.463 2.199,18.020 2.135,16.737 2.080 C 15.264 2.016,15.047 2.019,14.347 2.112 M17.387 4.111 C 19.376 4.282,21.722 5.248,23.436 6.601 C 24.746 7.636,25.924 9.081,26.673 10.573 C 27.406 12.033,27.745 13.159,27.895 14.629 C 27.981 15.474,27.936 17.476,27.818 18.053 C 27.553 19.344,27.288 20.146,26.778 21.202 C 26.131 22.543,25.379 23.582,24.300 24.627 C 22.928 25.956,21.541 26.783,19.627 27.416 C 16.038 28.602,12.077 27.953,8.907 25.660 C 8.276 25.204,7.190 24.175,6.705 23.573 C 5.534 22.122,4.633 20.209,4.231 18.320 C 4.089 17.654,4.083 17.566,4.082 16.053 C 4.080 14.380,4.090 14.275,4.379 13.108 C 4.761 11.567,5.521 9.984,6.498 8.695 C 6.916 8.143,7.934 7.102,8.479 6.668 C 10.029 5.434,11.966 4.546,13.838 4.212 C 14.974 4.008,15.895 3.982,17.387 4.111 M15.448 8.164 C 14.999 8.273,14.516 8.770,14.396 9.248 C 14.232 9.899,14.573 10.606,15.216 10.946 C 15.530 11.112,16.148 11.113,16.460 10.948 C 16.783 10.777,16.998 10.579,17.159 10.304 C 17.285 10.089,17.303 10.001,17.303 9.600 C 17.303 9.199,17.285 9.111,17.160 8.898 C 16.997 8.619,16.696 8.338,16.457 8.239 C 16.227 8.144,15.692 8.104,15.448 8.164 M15.680 13.062 C 14.832 13.254,14.618 13.280,13.909 13.281 C 13.490 13.282,13.054 13.304,12.942 13.330 C 12.405 13.455,12.116 14.143,12.368 14.698 C 12.578 15.159,12.877 15.253,14.136 15.253 L 14.987 15.253 14.987 18.127 L 14.987 21.001 13.853 21.025 C 12.423 21.056,12.259 21.115,12.076 21.665 C 11.919 22.138,12.082 22.617,12.480 22.850 C 12.663 22.958,12.734 22.960,15.947 22.960 C 17.751 22.960,19.291 22.942,19.369 22.920 C 19.794 22.801,20.079 22.243,19.955 21.771 C 19.874 21.461,19.750 21.285,19.514 21.147 C 19.352 21.052,19.215 21.039,18.175 21.021 L 17.017 21.002 17.002 17.367 L 16.987 13.733 16.860 13.530 C 16.623 13.148,16.143 12.958,15.680 13.062 " fill="#1A1C1F" stroke="none" fill-rule="evenodd"></path></svg>