<svg width="20" height="20" viewBox="0 0 20 20" fill="none" xmlns="http://www.w3.org/2000/svg"><path d="M8.850 2.088 C 8.382 2.161,7.551 2.377,7.189 2.520 C 6.691 2.717,5.850 3.161,5.470 3.426 C 3.616 4.724,2.418 6.651,2.079 8.883 C 1.995 9.442,1.995 10.562,2.080 11.117 C 2.214 11.987,2.442 12.714,2.833 13.517 C 3.203 14.278,3.692 14.968,4.293 15.580 C 6.830 18.162,10.718 18.738,13.851 16.997 C 17.144 15.166,18.731 11.318,17.667 7.741 C 17.189 6.133,16.148 4.635,14.804 3.623 C 13.831 2.890,12.615 2.357,11.400 2.130 C 10.882 2.033,9.366 2.008,8.850 2.088 M10.458 4.573 C 10.652 4.645,10.923 4.844,11.025 4.989 C 11.203 5.242,11.233 5.348,11.233 5.725 C 11.233 6.050,11.224 6.105,11.145 6.265 C 11.027 6.500,10.752 6.770,10.512 6.886 C 10.340 6.969,10.279 6.980,10.000 6.980 C 9.722 6.980,9.660 6.969,9.490 6.887 C 9.254 6.773,8.982 6.511,8.855 6.274 C 8.765 6.104,8.762 6.082,8.772 5.707 C 8.785 5.247,8.826 5.139,9.085 4.878 C 9.270 4.692,9.527 4.545,9.745 4.500 C 9.932 4.462,10.245 4.494,10.458 4.573 M11.000 10.000 L 11.000 12.000 12.000 12.000 L 13.000 12.000 13.000 13.000 L 13.000 14.000 10.000 14.000 L 7.000 14.000 7.000 13.000 L 7.000 12.000 8.000 12.000 L 9.000 12.000 9.000 11.000 L 9.000 10.000 8.217 10.000 L 7.433 10.000 7.433 9.000 L 7.433 8.000 9.217 8.000 L 11.000 8.000 11.000 10.000 " fill="#1A1C1F" stroke="none" fill-rule="evenodd"></path></svg>