<svg xmlns="http://www.w3.org/2000/svg" width="12" height="12" fill="none"><g clip-path="url(#a)"><path fill="#1A1C1F" fill-rule="evenodd" d="M6 1.2A4.81 4.81 0 0 1 10.8 6 4.81 4.81 0 0 1 6 10.8 4.81 4.81 0 0 1 1.2 6 4.81 4.81 0 0 1 6 1.2m0 1.2a3.6 3.6 0 0 0 0 7.2 3.6 3.6 0 0 0 0-7.2m.6 2.4v2.4h1.2v1.2H4.2V7.2h1.2V6h-.994V4.8zM6 3.038c.356 0 .619.262.619.618A.6.6 0 0 1 6 4.275a.6.6 0 0 1-.619-.619c0-.356.263-.618.619-.618" clip-rule="evenodd"/></g><defs><clipPath id="a"><path fill="#fff" d="M0 0h12v12H0z"/></clipPath></defs></svg>