<svg xmlns="http://www.w3.org/2000/svg" width="28" height="28" fill="none"><g clip-path="url(#a)"><path fill="#1A1C1F" fill-rule="evenodd" d="M14 1.75c6.754 0 12.25 5.496 12.25 12.25S20.754 26.25 14 26.25 1.75 20.754 1.75 14 7.246 1.75 14 1.75m0 1.75C8.203 3.5 3.5 8.203 3.5 14S8.203 24.5 14 24.5 24.5 19.797 24.5 14 19.797 3.5 14 3.5m-.524 7.98-.46.114h-1.422a.864.864 0 0 0-.875.875c0 .492.383.875.875.875h1.531v5.031h-1.75a.864.864 0 0 0-.875.875c0 .492.383.875.875.875h5.25a.864.864 0 0 0 .875-.875.864.864 0 0 0-.875-.875h-1.75V12.25c0-.496-.389-.862-.878-.868-.16-.002-.34.054-.521.099m.387-4.398a1.33 1.33 0 0 0-1.312 1.313c0 .738.601 1.312 1.312 1.312.739 0 1.313-.574 1.313-1.312 0-.711-.574-1.313-1.313-1.313" clip-rule="evenodd"/></g><defs><clipPath id="a"><path fill="#fff" d="M0 0h28v28H0z"/></clipPath></defs></svg>