<svg width="14" height="14" viewBox="0 0 14 14" fill="none" xmlns="http://www.w3.org/2000/svg"><path d="M6.195 1.462 C 5.866 1.512,5.285 1.664,5.032 1.764 C 4.727 1.885,4.167 2.172,3.927 2.330 C 3.108 2.869,2.415 3.657,1.983 4.538 C 1.712 5.091,1.547 5.617,1.456 6.218 C 1.396 6.610,1.396 7.393,1.456 7.782 C 1.604 8.742,1.954 9.580,2.537 10.367 C 2.757 10.664,3.323 11.232,3.617 11.451 C 4.482 12.096,5.456 12.474,6.523 12.579 C 6.855 12.612,7.469 12.594,7.805 12.542 C 9.322 12.307,10.672 11.475,11.566 10.226 C 12.258 9.258,12.638 7.993,12.593 6.804 C 12.538 5.357,11.934 4.005,10.892 2.997 C 10.441 2.560,10.059 2.289,9.499 2.008 C 8.975 1.745,8.529 1.593,7.980 1.491 C 7.618 1.423,6.556 1.406,6.195 1.462 M7.377 2.824 C 9.431 3.032,10.980 4.591,11.177 6.650 C 11.228 7.183,11.138 7.885,10.952 8.406 C 10.867 8.643,10.638 9.094,10.482 9.330 C 10.065 9.963,9.506 10.449,8.808 10.783 C 6.919 11.687,4.667 11.064,3.507 9.314 C 2.236 7.396,2.757 4.790,4.666 3.521 C 5.479 2.980,6.450 2.731,7.377 2.824 M6.824 3.567 C 6.687 3.602,6.504 3.721,6.425 3.824 C 6.137 4.201,6.306 4.788,6.745 4.936 C 7.030 5.033,7.307 4.970,7.515 4.762 C 7.668 4.608,7.711 4.488,7.707 4.229 C 7.703 3.938,7.578 3.746,7.311 3.624 C 7.181 3.564,6.942 3.536,6.824 3.567 M5.133 6.300 L 5.133 7.000 5.717 7.000 L 6.300 7.000 6.300 7.700 L 6.300 8.400 5.600 8.400 L 4.900 8.400 4.900 9.100 L 4.900 9.800 7.000 9.800 L 9.100 9.800 9.100 9.100 L 9.100 8.400 8.400 8.400 L 7.700 8.400 7.700 7.000 L 7.700 5.600 6.417 5.600 L 5.133 5.600 5.133 6.300 " fill="#1A1C1F" stroke="none" fill-rule="evenodd"></path></svg>