<svg width="16" height="16" viewBox="0 0 16 16" fill="none" xmlns="http://www.w3.org/2000/svg"><path d="M7.080 1.670 C 6.705 1.729,6.040 1.901,5.751 2.016 C 5.403 2.155,4.762 2.483,4.488 2.663 C 3.553 3.279,2.753 4.187,2.265 5.187 C 2.042 5.645,1.918 5.979,1.801 6.436 C 1.652 7.019,1.615 7.325,1.615 7.987 C 1.615 8.648,1.654 8.976,1.801 9.561 C 2.254 11.364,3.509 12.910,5.187 13.733 C 5.813 14.040,6.412 14.230,7.093 14.337 C 7.468 14.396,8.480 14.404,8.813 14.351 C 10.034 14.158,11.016 13.744,11.920 13.044 C 12.222 12.811,12.732 12.310,12.972 12.013 C 13.880 10.891,14.400 9.428,14.400 8.000 C 14.400 6.558,13.892 5.133,12.968 3.987 C 12.023 2.814,10.627 1.985,9.120 1.704 C 8.706 1.626,7.493 1.607,7.080 1.670 M8.367 3.658 C 8.521 3.716,8.738 3.875,8.820 3.991 C 8.963 4.194,8.987 4.278,8.987 4.580 C 8.987 4.840,8.979 4.884,8.916 5.012 C 8.822 5.200,8.602 5.416,8.409 5.509 C 8.272 5.575,8.223 5.584,8.000 5.584 C 7.775 5.584,7.728 5.575,7.587 5.507 C 7.396 5.415,7.189 5.214,7.084 5.019 C 7.012 4.883,7.009 4.866,7.018 4.566 C 7.028 4.197,7.061 4.111,7.268 3.903 C 7.416 3.754,7.621 3.636,7.796 3.600 C 7.945 3.569,8.196 3.595,8.367 3.658 M8.800 8.000 L 8.800 9.600 9.600 9.600 L 10.400 9.600 10.400 10.400 L 10.400 11.200 8.000 11.200 L 5.600 11.200 5.600 10.400 L 5.600 9.600 6.400 9.600 L 7.200 9.600 7.200 8.800 L 7.200 8.000 6.573 8.000 L 5.947 8.000 5.947 7.200 L 5.947 6.400 7.373 6.400 L 8.800 6.400 8.800 8.000 " fill="#1A1C1F" stroke="none" fill-rule="evenodd"></path></svg>