<svg xmlns="http://www.w3.org/2000/svg" width="32" height="32" fill="none"><path fill="#1A1C1F" fill-rule="evenodd" d="M14.72 2.06c-1.337.16-2.192.345-3.214.694a14 14 0 0 0-9.108 9.958 13.97 13.97 0 0 0 2.111 11.263c1.513 2.162 3.665 3.918 6.004 4.898 1.813.759 3.549 1.111 5.487 1.111 2.014 0 3.907-.403 5.746-1.224 3.133-1.398 5.81-4.13 7.127-7.273.76-1.814 1.111-3.55 1.11-5.487-.001-2.779-.782-5.401-2.282-7.665a14.06 14.06 0 0 0-9.621-6.178c-.537-.084-2.898-.153-3.36-.097m1.787 6.194c.25.13.561.443.7.706s.139 1.017 0 1.28c-.586 1.11-2.116 1.129-2.688.034-.118-.226-.143-.344-.143-.674s.025-.448.143-.674c.168-.321.498-.622.808-.736.305-.113.901-.081 1.18.064m-.146 4.842c.236.098.417.26.537.477.08.144.09.531.104 3.8l.015 3.64 1.105.002c1.287.001 1.443.04 1.701.43.124.187.15.285.15.555 0 .415-.186.73-.523.883-.212.096-.394.101-3.45.101s-3.238-.005-3.45-.101c-.337-.153-.523-.468-.523-.883 0-.27.026-.368.15-.555.258-.39.414-.429 1.703-.43l1.107-.002v-5.76l-.974-.001c-1.234-.001-1.447-.078-1.664-.599a.99.99 0 0 1 .174-1.071c.267-.282.357-.302 1.354-.303.8-.001.987-.019 1.403-.129.574-.152.817-.164 1.081-.054"/></svg>