<svg width="14" height="14" viewBox="0 0 14 14" fill="none" xmlns="http://www.w3.org/2000/svg"><path d="M6.195 1.462 C 5.866 1.512,5.285 1.664,5.032 1.764 C 4.727 1.885,4.167 2.172,3.927 2.330 C 3.108 2.869,2.415 3.657,1.983 4.538 C 1.712 5.091,1.547 5.617,1.456 6.218 C 1.396 6.610,1.396 7.393,1.456 7.782 C 1.550 8.391,1.709 8.900,1.983 9.462 C 2.242 9.995,2.584 10.478,3.005 10.906 C 3.882 11.799,4.967 12.351,6.230 12.546 C 6.606 12.604,7.395 12.603,7.782 12.544 C 9.340 12.308,10.703 11.461,11.602 10.171 C 12.283 9.194,12.635 8.001,12.592 6.813 C 12.541 5.363,11.937 4.008,10.892 2.997 C 10.441 2.560,10.059 2.289,9.499 2.008 C 8.975 1.745,8.529 1.593,7.980 1.491 C 7.618 1.423,6.556 1.406,6.195 1.462 M7.321 3.201 C 7.456 3.252,7.646 3.391,7.718 3.493 C 7.842 3.670,7.863 3.744,7.863 4.008 C 7.863 4.235,7.857 4.274,7.801 4.385 C 7.719 4.550,7.527 4.739,7.358 4.820 C 7.239 4.878,7.194 4.886,7.000 4.887 C 6.803 4.888,6.763 4.881,6.643 4.821 C 6.477 4.740,6.287 4.557,6.199 4.392 C 6.135 4.273,6.133 4.258,6.141 3.995 C 6.150 3.673,6.178 3.597,6.359 3.415 C 6.489 3.285,6.669 3.182,6.822 3.150 C 6.952 3.123,7.172 3.146,7.321 3.201 M7.700 7.000 L 7.700 8.400 8.400 8.400 L 9.100 8.400 9.100 9.100 L 9.100 9.800 7.000 9.800 L 4.900 9.800 4.900 9.100 L 4.900 8.400 5.600 8.400 L 6.300 8.400 6.300 7.700 L 6.300 7.000 5.752 7.000 L 5.203 7.000 5.203 6.300 L 5.203 5.600 6.452 5.600 L 7.700 5.600 7.700 7.000 " fill="#1A1C1F" stroke="none" fill-rule="evenodd"></path></svg>