<svg xmlns="http://www.w3.org/2000/svg" width="16" height="16" fill="none"><g clip-path="url(#a)"><path fill="#1A1C1F" fill-rule="evenodd" d="M8 1.6c3.525 0 6.4 2.875 6.4 6.4s-2.875 6.4-6.4 6.4S1.6 11.525 1.6 8 4.475 1.6 8 1.6m0 1.6a4.801 4.801 0 0 0 0 9.6 4.801 4.801 0 0 0 0-9.6m.8 3.2v3.2h1.6v1.6H5.6V9.6h1.6V8H5.875V6.4zM8 4.05c.475 0 .825.35.825.825S8.475 5.7 8 5.7a.8.8 0 0 1-.825-.825c0-.475.35-.825.825-.825" clip-rule="evenodd"/></g><defs><clipPath id="a"><path fill="#fff" d="M0 0h16v16H0z"/></clipPath></defs></svg>