<svg width="16" height="16" viewBox="0 0 16 16" fill="none" xmlns="http://www.w3.org/2000/svg"><path d="M7.533 1.618 C 5.232 1.819,3.217 3.195,2.242 5.232 C 1.947 5.849,1.767 6.428,1.661 7.106 C 1.595 7.525,1.596 8.489,1.663 8.893 C 1.906 10.371,2.528 11.579,3.564 12.588 C 5.132 14.115,7.349 14.727,9.480 14.222 C 10.329 14.021,11.155 13.625,11.907 13.058 C 12.206 12.833,12.859 12.171,13.095 11.854 C 13.754 10.969,14.176 9.952,14.339 8.855 C 14.402 8.432,14.402 7.542,14.339 7.118 C 14.025 5.009,12.769 3.262,10.880 2.309 C 9.973 1.851,9.298 1.675,8.269 1.627 C 7.967 1.613,7.702 1.603,7.680 1.605 C 7.658 1.607,7.592 1.613,7.533 1.618 M8.415 3.228 C 9.062 3.292,9.531 3.424,10.094 3.704 C 10.914 4.111,11.468 4.588,11.950 5.304 C 12.309 5.837,12.548 6.401,12.682 7.032 C 12.774 7.462,12.798 8.169,12.736 8.627 C 12.440 10.835,10.710 12.525,8.493 12.773 C 7.201 12.917,5.823 12.473,4.827 11.590 C 4.135 10.977,3.599 10.098,3.373 9.204 C 3.181 8.446,3.177 7.552,3.362 6.822 C 3.597 5.893,4.133 5.015,4.840 4.403 C 5.841 3.535,7.151 3.105,8.415 3.228 M7.187 4.480 C 6.721 4.575,6.168 4.792,6.108 4.903 C 6.085 4.948,6.092 4.999,6.145 5.153 C 6.276 5.538,6.579 6.278,6.610 6.288 C 6.628 6.294,6.735 6.262,6.848 6.217 C 7.220 6.068,7.454 6.017,7.760 6.015 C 8.005 6.014,8.052 6.021,8.136 6.073 C 8.382 6.226,8.374 6.600,8.117 6.864 C 8.067 6.916,7.903 7.046,7.753 7.152 C 7.226 7.528,6.995 7.826,6.934 8.213 C 6.919 8.309,6.907 8.594,6.907 8.847 L 6.907 9.307 7.704 9.307 L 8.501 9.307 8.511 8.831 C 8.522 8.264,8.496 8.314,8.990 7.873 C 9.167 7.716,9.371 7.515,9.443 7.427 C 9.614 7.220,9.804 6.838,9.853 6.600 C 9.904 6.357,9.904 5.900,9.852 5.683 C 9.710 5.078,9.162 4.599,8.459 4.464 C 8.172 4.410,7.491 4.418,7.187 4.480 M7.507 10.050 C 7.284 10.109,7.096 10.263,6.983 10.480 C 6.894 10.652,6.896 10.947,6.987 11.133 C 7.165 11.499,7.553 11.668,7.943 11.550 C 8.284 11.446,8.486 11.174,8.490 10.812 C 8.493 10.504,8.337 10.251,8.054 10.107 C 7.939 10.048,7.634 10.016,7.507 10.050 " fill="#1A1C1F" stroke="none" fill-rule="evenodd"></path></svg>