<svg xmlns="http://www.w3.org/2000/svg" width="14" height="14" fill="none"><g clip-path="url(#a)"><path fill="#1A1C1F" fill-rule="evenodd" d="M7.003 1.4A5.6 5.6 0 0 1 12.6 6.996 5.603 5.603 0 0 1 7.003 12.6C3.898 12.6 1.4 10.069 1.4 6.996 1.4 3.914 3.912 1.4 7.003 1.4m-.22 7.478a.94.94 0 0 0-.944.953c0 .536.413.946.96.946a.93.93 0 0 0 .939-.947.95.95 0 0 0-.954-.952m.133-5.545c-.927 0-1.7.388-2.006.573L5.54 5.41c.392-.208.942-.424 1.342-.424.427 0 .515.246.515.44 0 .79-1.448.75-1.448 2.142V8.4h1.64v-.833c0-.552 1.45-.896 1.45-2.445 0-1.106-.89-1.79-2.122-1.79" clip-rule="evenodd"/></g><defs><clipPath id="a"><path fill="#fff" d="M0 0h14v14H0z"/></clipPath></defs></svg>