<svg xmlns="http://www.w3.org/2000/svg" width="28" height="28" fill="none"><g clip-path="url(#a)"><path fill="#1A1C1F" fill-rule="evenodd" d="M14 1.75c6.755 0 12.25 5.495 12.25 12.25S20.755 26.25 14 26.25 1.75 20.755 1.75 14 7.245 1.75 14 1.75m-.415 16.188a1.203 1.203 0 1 0 0 2.406 1.203 1.203 0 0 0 0-2.407m.74-10.5c-1.334 0-3.169.268-3.169 1.302 0 .476.392.873.874.873.814 0 1.003-.429 2.296-.429.763 0 1.534.406 1.534 1.313 0 2.463-3.178 1.896-3.178 4.874a.873.873 0 1 0 1.746 0c0-1.746 3.177-1.423 3.177-4.875 0-1.744-1.41-3.059-3.28-3.059" clip-rule="evenodd"/></g><defs><clipPath id="a"><path fill="#fff" d="M0 0h28v28H0z"/></clipPath></defs></svg>