<svg width="14" height="14" viewBox="0 0 14 14" fill="none" xmlns="http://www.w3.org/2000/svg"><path d="M6.230 1.458 C 5.582 1.553,5.100 1.708,4.495 2.012 C 3.032 2.751,2.006 4.011,1.587 5.586 C 1.380 6.362,1.348 7.308,1.504 8.063 C 1.610 8.580,1.845 9.227,2.081 9.660 C 2.430 10.296,2.978 10.948,3.540 11.394 C 3.955 11.723,4.575 12.069,5.092 12.260 C 5.380 12.366,5.885 12.493,6.230 12.546 C 6.602 12.602,7.399 12.602,7.770 12.546 C 8.439 12.444,9.118 12.224,9.637 11.940 C 11.524 10.910,12.669 8.916,12.592 6.790 C 12.541 5.364,11.962 4.045,10.941 3.029 C 10.073 2.167,8.869 1.585,7.665 1.448 C 7.381 1.415,6.475 1.422,6.230 1.458 M7.128 3.360 C 7.636 3.395,7.930 3.483,8.265 3.700 C 8.900 4.111,9.166 4.859,8.960 5.658 C 8.848 6.096,8.669 6.358,8.118 6.892 C 7.890 7.112,7.680 7.334,7.650 7.385 C 7.598 7.473,7.595 7.505,7.587 7.939 L 7.580 8.400 6.761 8.400 L 5.943 8.400 5.958 7.840 C 5.966 7.532,5.984 7.230,5.998 7.169 C 6.071 6.841,6.319 6.540,6.824 6.162 C 6.992 6.037,7.173 5.885,7.226 5.824 C 7.454 5.565,7.448 5.229,7.212 5.073 C 6.976 4.917,6.452 4.999,5.784 5.295 L 5.537 5.405 5.229 4.662 C 5.059 4.254,4.926 3.911,4.933 3.900 C 4.953 3.867,5.361 3.676,5.606 3.584 C 5.860 3.489,6.130 3.420,6.435 3.373 C 6.692 3.333,6.731 3.332,7.128 3.360 M7.198 8.983 C 7.367 9.064,7.550 9.246,7.639 9.422 C 7.695 9.532,7.700 9.566,7.700 9.830 C 7.700 10.092,7.695 10.128,7.640 10.238 C 7.500 10.518,7.241 10.708,6.924 10.763 C 6.526 10.831,6.109 10.605,5.931 10.226 C 5.875 10.106,5.868 10.065,5.868 9.835 C 5.868 9.595,5.873 9.568,5.943 9.421 C 6.068 9.158,6.315 8.956,6.568 8.910 C 6.620 8.900,6.750 8.898,6.857 8.903 C 7.012 8.912,7.084 8.929,7.198 8.983 " fill="#1A1C1F" stroke="none" fill-rule="evenodd"></path></svg>