<svg width="12" height="12" viewBox="0 0 12 12" fill="none" xmlns="http://www.w3.org/2000/svg"><path d="M5.440 1.233 C 4.640 1.330,3.788 1.674,3.117 2.173 C 2.871 2.356,2.474 2.739,2.270 2.990 C 1.726 3.660,1.365 4.498,1.236 5.390 C 1.220 5.501,1.211 5.746,1.212 6.030 C 1.214 6.430,1.221 6.528,1.266 6.780 C 1.450 7.816,1.922 8.711,2.663 9.431 C 3.056 9.813,3.375 10.042,3.850 10.281 C 4.322 10.519,4.798 10.670,5.340 10.753 C 5.659 10.802,6.341 10.802,6.660 10.753 C 7.649 10.602,8.522 10.191,9.221 9.547 C 10.078 8.758,10.584 7.788,10.763 6.590 C 10.804 6.319,10.798 5.587,10.753 5.310 C 10.647 4.659,10.448 4.098,10.141 3.582 C 9.401 2.337,8.248 1.541,6.790 1.269 C 6.656 1.244,6.471 1.234,6.060 1.230 C 5.758 1.227,5.479 1.228,5.440 1.233 M6.120 2.881 C 6.617 2.917,6.903 3.018,7.220 3.270 C 7.376 3.395,7.491 3.539,7.588 3.733 C 7.703 3.963,7.729 4.090,7.728 4.410 C 7.726 4.739,7.687 4.916,7.561 5.170 C 7.443 5.407,7.315 5.563,6.941 5.924 C 6.756 6.103,6.583 6.286,6.557 6.330 C 6.513 6.405,6.510 6.433,6.503 6.805 L 6.497 7.200 5.795 7.200 L 5.094 7.200 5.107 6.720 C 5.114 6.456,5.129 6.197,5.141 6.145 C 5.204 5.864,5.404 5.619,5.841 5.289 C 5.991 5.177,6.150 5.042,6.195 4.991 C 6.389 4.770,6.383 4.482,6.182 4.349 C 5.980 4.215,5.530 4.285,4.958 4.539 L 4.746 4.633 4.483 3.999 C 4.338 3.650,4.220 3.359,4.220 3.353 C 4.220 3.331,4.602 3.148,4.805 3.072 C 5.023 2.991,5.255 2.932,5.516 2.891 C 5.737 2.857,5.769 2.856,6.120 2.881 M6.154 7.689 C 6.294 7.753,6.460 7.913,6.537 8.058 C 6.598 8.171,6.600 8.184,6.600 8.423 C 6.600 8.652,6.596 8.677,6.545 8.778 C 6.424 9.017,6.214 9.174,5.947 9.224 C 5.604 9.287,5.237 9.092,5.084 8.765 C 5.036 8.662,5.030 8.627,5.030 8.430 C 5.030 8.224,5.034 8.201,5.094 8.075 C 5.201 7.850,5.413 7.676,5.630 7.637 C 5.777 7.610,6.039 7.636,6.154 7.689 " fill="#1A1C1F" stroke="none" fill-rule="evenodd"></path></svg>