<svg xmlns="http://www.w3.org/2000/svg" width="32" height="32" fill="none"><path fill="#1A1C1F" fill-rule="evenodd" d="m14.747 2.058-.8.108c-1.6.213-3.385.827-4.854 1.67-5.064 2.906-7.788 8.508-6.933 14.259.564 3.804 2.747 7.257 6 9.493 3.188 2.191 7.341 2.943 11.126 2.014a14 14 0 0 0 8.367-5.869 13.96 13.96 0 0 0 2.244-6.053c.113-.904.113-2.449-.001-3.36a14 14 0 0 0-2.195-5.985c-2.223-3.353-5.651-5.554-9.621-6.178-.532-.083-2.927-.154-3.333-.099m2.668 6.582c.701.18 1.163.442 1.685.959.519.513.792.995.928 1.638.148.699.084 1.622-.161 2.328-.291.84-.81 1.425-1.989 2.245-1.116.775-1.303 1.009-1.395 1.743-.059.466-.225.737-.55.894-.37.179-.829.121-1.125-.142-.289-.257-.375-.855-.225-1.565.175-.826.681-1.456 1.758-2.193 1.223-.837 1.633-1.35 1.755-2.192.113-.785-.132-1.301-.773-1.628-.624-.319-1.481-.295-2.655.073-.67.209-.994.231-1.308.086a.98.98 0 0 1-.531-.552c-.21-.503.043-1.004.667-1.321.649-.33 1.413-.467 2.642-.474.697-.005.937.014 1.277.101m-1.2 12.067a1.363 1.363 0 0 1-1.128 2.465c-1.124-.383-1.25-1.975-.198-2.5.221-.11.356-.139.657-.139.332 0 .414.022.669.174"/></svg>