<svg xmlns="http://www.w3.org/2000/svg" width="24" height="24" fill="none"><g clip-path="url(#a)"><path fill="#1A1C1F" fill-rule="evenodd" d="M12 2a9.99 9.99 0 0 1 10 10 9.99 9.99 0 0 1-10 10A9.99 9.99 0 0 1 2 12 9.99 9.99 0 0 1 12 2m-.169 13.531c-.687 0-1.281.563-1.281 1.25 0 .719.594 1.282 1.281 1.282.688 0 1.282-.563 1.282-1.282 0-.687-.594-1.25-1.282-1.25m.39-9.312c-1.25 0-2.72.312-2.72 1.312-.03.532.376.938.876.969s1.125-.344 1.906-.344c.562 0 1.125.219 1.125.844 0 1.75-2.625 1.406-2.625 4.063 0 .53.437.968.969.968.625 0 .968-.5.968-.969 0-1.343 2.625-1.156 2.625-4.062 0-1.687-1.312-2.781-3.125-2.781" clip-rule="evenodd"/></g><defs><clipPath id="a"><path fill="#fff" d="M0 0h24v24H0z"/></clipPath></defs></svg>