<svg width="28" height="28" viewBox="0 0 28 28" fill="none" xmlns="http://www.w3.org/2000/svg"><path d="M12.553 1.848 C 9.636 2.239,7.167 3.475,5.173 5.544 C 3.315 7.472,2.202 9.808,1.844 12.530 C 1.757 13.189,1.745 14.657,1.820 15.308 C 2.149 18.127,3.351 20.619,5.341 22.613 C 6.070 23.342,6.541 23.733,7.303 24.240 C 8.904 25.303,10.843 25.988,12.808 26.184 C 13.626 26.265,15.218 26.216,15.960 26.086 C 18.520 25.638,20.690 24.542,22.511 22.776 C 24.528 20.820,25.785 18.298,26.157 15.462 C 26.237 14.848,26.250 13.350,26.179 12.717 C 25.963 10.766,25.266 8.836,24.207 7.257 C 22.522 4.743,19.972 2.914,17.119 2.174 C 16.162 1.925,15.775 1.870,14.671 1.820 C 13.401 1.763,13.165 1.767,12.553 1.848 M15.202 3.595 C 16.646 3.726,18.432 4.366,19.717 5.213 C 21.937 6.677,23.512 8.882,24.156 11.425 C 24.383 12.324,24.461 12.989,24.461 14.023 C 24.460 15.729,24.144 17.105,23.408 18.600 C 21.941 21.582,19.281 23.624,15.965 24.314 C 14.912 24.533,13.131 24.534,12.055 24.315 C 10.387 23.977,8.794 23.247,7.495 22.226 C 6.981 21.822,6.026 20.840,5.637 20.316 C 4.555 18.859,3.874 17.230,3.619 15.487 C 3.521 14.816,3.521 13.183,3.619 12.513 C 3.995 9.944,5.287 7.633,7.280 5.963 C 8.954 4.560,11.185 3.660,13.300 3.535 C 13.637 3.515,14.682 3.548,15.202 3.595 M13.253 7.513 C 12.423 7.594,11.775 7.825,11.441 8.159 C 11.025 8.575,11.084 9.132,11.580 9.460 C 11.752 9.574,11.818 9.589,12.107 9.583 C 12.325 9.579,12.603 9.527,12.927 9.431 C 13.914 9.137,14.646 9.130,15.201 9.411 C 15.671 9.649,15.844 10.010,15.811 10.687 C 15.774 11.452,15.503 11.833,14.424 12.635 C 14.024 12.933,13.564 13.315,13.401 13.483 C 12.907 13.997,12.655 14.667,12.703 15.343 C 12.731 15.725,12.827 15.924,13.056 16.075 C 13.395 16.298,13.829 16.272,14.109 16.013 C 14.295 15.841,14.364 15.689,14.441 15.288 C 14.478 15.096,14.542 14.873,14.584 14.792 C 14.700 14.567,14.996 14.294,15.563 13.888 C 16.629 13.124,16.926 12.824,17.235 12.198 C 17.507 11.645,17.568 11.354,17.568 10.593 C 17.568 9.957,17.560 9.893,17.426 9.518 C 17.093 8.581,16.391 7.926,15.377 7.606 C 15.114 7.523,14.913 7.500,14.350 7.488 C 13.965 7.480,13.472 7.491,13.253 7.513 M13.168 18.026 C 13.083 18.053,12.911 18.167,12.786 18.279 C 12.159 18.843,12.303 19.817,13.072 20.209 C 13.636 20.497,14.308 20.273,14.629 19.690 C 14.983 19.048,14.666 18.262,13.958 18.021 C 13.766 17.955,13.381 17.958,13.168 18.026 " fill="#1A1C1F" stroke="none" fill-rule="evenodd"></path></svg>