<svg xmlns="http://www.w3.org/2000/svg" width="12" height="12" fill="none"><g clip-path="url(#a)"><path fill="#1A1C1F" fill-rule="evenodd" d="M6 1.2c2.64 0 4.8 2.149 4.8 4.797A4.81 4.81 0 0 1 6 10.8a4.81 4.81 0 0 1-4.8-4.803A4.807 4.807 0 0 1 6 1.2m0 1.2a3.595 3.595 0 0 0-3.594 3.597A3.6 3.6 0 0 0 6 9.6a3.6 3.6 0 0 0 3.594-3.603A3.594 3.594 0 0 0 6 2.4m-.222 6.299c.34 0 .597-.27.597-.598a.58.58 0 0 0-.597-.585.58.58 0 0 0-.598.585c0 .328.258.598.598.598M5.18 6.978h1.195v-.61c0-.407 1.056-.614 1.056-1.779 0-.831-.658-1.288-1.508-1.288-.538 0-1.13.184-1.384.39l.408 1.06c.258-.143.59-.255.877-.255.334 0 .422.152.422.32 0 .59-1.066.537-1.066 1.553z" clip-rule="evenodd"/></g><defs><clipPath id="a"><path fill="#fff" d="M0 0h12v12H0z"/></clipPath></defs></svg>