<svg width="28" height="28" viewBox="0 0 28 28" fill="none" xmlns="http://www.w3.org/2000/svg"><path d="M12.553 1.848 C 9.636 2.239,7.167 3.475,5.173 5.544 C 3.315 7.472,2.202 9.808,1.844 12.530 C 1.757 13.189,1.745 14.657,1.820 15.308 C 2.149 18.127,3.351 20.619,5.341 22.613 C 6.070 23.342,6.541 23.733,7.303 24.240 C 8.904 25.303,10.843 25.988,12.808 26.184 C 13.626 26.265,15.218 26.216,15.960 26.086 C 18.520 25.638,20.690 24.542,22.511 22.776 C 24.528 20.820,25.785 18.298,26.157 15.462 C 26.237 14.848,26.250 13.350,26.179 12.717 C 25.963 10.766,25.266 8.836,24.207 7.257 C 22.522 4.743,19.972 2.914,17.119 2.174 C 16.162 1.925,15.775 1.870,14.671 1.820 C 13.401 1.763,13.165 1.767,12.553 1.848 M15.327 7.584 C 16.360 7.871,17.262 8.769,17.506 9.753 C 17.605 10.152,17.580 11.138,17.460 11.587 C 17.241 12.405,16.806 12.969,15.843 13.681 C 14.636 14.574,14.565 14.654,14.441 15.267 C 14.348 15.721,14.302 15.828,14.125 15.995 C 13.722 16.376,13.050 16.275,12.810 15.796 C 12.689 15.553,12.686 14.896,12.805 14.490 C 12.994 13.846,13.324 13.462,14.347 12.695 C 15.448 11.870,15.694 11.566,15.820 10.873 C 15.950 10.156,15.713 9.665,15.095 9.373 C 14.568 9.125,13.923 9.144,12.903 9.437 C 12.253 9.625,11.861 9.638,11.609 9.482 C 11.271 9.271,11.106 8.889,11.202 8.534 C 11.339 8.025,12.154 7.618,13.251 7.512 C 13.860 7.454,15.001 7.493,15.327 7.584 M14.020 18.032 C 14.246 18.127,14.540 18.408,14.651 18.638 C 14.768 18.879,14.780 19.338,14.675 19.587 C 14.506 19.993,14.143 20.269,13.698 20.330 C 13.283 20.387,12.793 20.137,12.568 19.753 C 12.406 19.477,12.366 18.990,12.480 18.691 C 12.573 18.450,12.933 18.101,13.168 18.026 C 13.395 17.953,13.839 17.957,14.020 18.032 " fill="#1A1C1F" stroke="none" fill-rule="evenodd"></path></svg>