<svg width="32" height="32" viewBox="0 0 32 32" fill="none" xmlns="http://www.w3.org/2000/svg"><path d="M14.347 2.113 C 11.146 2.541,8.442 3.845,6.195 6.046 C 3.910 8.285,2.535 11.067,2.107 14.320 C 2.008 15.074,1.994 16.751,2.081 17.495 C 2.413 20.346,3.548 22.953,5.388 25.091 C 7.771 27.860,11.032 29.564,14.637 29.924 C 15.572 30.017,17.392 29.961,18.240 29.813 C 21.166 29.301,23.646 28.048,25.727 26.030 C 28.069 23.759,29.562 20.712,29.917 17.482 C 29.988 16.831,29.989 15.167,29.919 14.533 C 29.672 12.304,28.875 10.099,27.665 8.293 C 25.739 5.420,22.825 3.331,19.565 2.485 C 18.470 2.200,18.028 2.137,16.767 2.080 C 15.316 2.015,15.046 2.019,14.347 2.113 M17.374 4.109 C 19.022 4.257,21.065 4.990,22.533 5.958 C 25.457 7.886,27.405 10.962,27.871 14.391 C 28.045 15.670,27.970 17.353,27.682 18.667 C 26.929 22.088,24.464 25.211,21.307 26.744 C 19.292 27.721,17.279 28.111,15.067 27.952 C 12.783 27.788,10.425 26.863,8.569 25.403 C 7.979 24.940,6.888 23.819,6.442 23.219 C 5.363 21.765,4.604 20.084,4.231 18.320 C 4.091 17.654,4.085 17.563,4.083 16.027 C 4.080 14.469,4.084 14.408,4.231 13.707 C 4.564 12.122,5.198 10.588,6.027 9.360 C 8.109 6.274,11.455 4.327,15.173 4.038 C 15.496 4.012,16.757 4.053,17.374 4.109 M15.147 8.586 C 14.197 8.679,13.457 8.943,13.076 9.324 C 12.600 9.800,12.667 10.436,13.234 10.811 C 13.547 11.018,13.963 11.011,14.747 10.786 C 15.899 10.454,16.625 10.428,17.224 10.697 C 17.560 10.847,17.883 11.149,17.980 11.403 C 18.240 12.086,18.052 12.978,17.520 13.589 C 17.410 13.716,16.945 14.098,16.487 14.439 C 16.028 14.780,15.501 15.217,15.316 15.409 C 14.750 15.996,14.463 16.762,14.518 17.535 C 14.549 17.971,14.659 18.199,14.921 18.370 C 15.348 18.648,15.861 18.594,16.184 18.236 C 16.369 18.031,16.432 17.869,16.535 17.325 C 16.644 16.752,16.770 16.622,18.338 15.462 C 19.197 14.827,19.570 14.359,19.861 13.552 C 20.270 12.419,20.143 11.009,19.554 10.121 C 19.119 9.466,18.305 8.889,17.493 8.661 C 17.144 8.563,15.816 8.520,15.147 8.586 M15.049 20.601 C 14.774 20.689,14.369 21.085,14.258 21.375 C 13.927 22.240,14.519 23.155,15.463 23.238 C 16.052 23.290,16.687 22.803,16.858 22.169 C 17.027 21.541,16.613 20.820,15.952 20.595 C 15.733 20.520,15.292 20.523,15.049 20.601 " fill="#1A1C1F" stroke="none" fill-rule="evenodd"></path></svg>