<svg width="24" height="24" viewBox="0 0 24 24" fill="none" xmlns="http://www.w3.org/2000/svg"><path d="M11.340 2.027 C 9.987 2.138,8.748 2.478,7.560 3.064 C 6.500 3.587,5.738 4.133,4.920 4.956 C 3.506 6.379,2.575 8.146,2.160 10.196 C 1.972 11.127,1.972 12.873,2.160 13.804 C 2.966 17.787,5.770 20.740,9.672 21.717 C 10.357 21.888,10.547 21.917,11.310 21.963 C 12.028 22.006,13.139 21.965,13.620 21.878 C 17.273 21.217,20.246 18.717,21.419 15.320 C 21.896 13.938,22.056 12.752,21.965 11.280 C 21.843 9.328,21.048 7.309,19.774 5.720 C 19.438 5.301,18.725 4.584,18.307 4.244 C 16.874 3.081,14.851 2.239,13.113 2.082 C 12.649 2.040,11.584 2.007,11.340 2.027 M12.418 4.041 C 13.608 4.107,14.536 4.346,15.537 4.844 C 17.888 6.013,19.497 8.223,19.903 10.840 C 19.990 11.405,19.991 12.558,19.904 13.121 C 19.604 15.071,18.708 16.726,17.251 18.023 C 16.194 18.964,14.832 19.610,13.320 19.889 C 12.658 20.011,11.341 20.011,10.680 19.889 C 8.572 19.500,6.820 18.417,5.575 16.735 C 4.902 15.825,4.382 14.648,4.152 13.516 C 4.070 13.108,4.060 12.949,4.060 12.000 C 4.060 11.051,4.070 10.892,4.152 10.484 C 4.512 8.707,5.491 7.039,6.835 5.915 C 8.017 4.925,9.387 4.309,10.860 4.103 C 11.684 3.988,11.555 3.994,12.418 4.041 M11.411 6.281 C 9.934 6.436,9.199 7.139,9.624 7.989 C 9.788 8.315,9.994 8.453,10.354 8.473 C 10.569 8.485,10.747 8.458,11.214 8.341 C 11.765 8.203,11.834 8.195,12.314 8.207 C 12.803 8.219,12.836 8.226,13.020 8.340 C 13.285 8.505,13.381 8.697,13.378 9.060 C 13.374 9.608,13.137 9.930,12.260 10.580 C 11.603 11.067,11.248 11.431,11.066 11.804 C 10.876 12.193,10.800 12.505,10.800 12.898 C 10.801 13.338,10.851 13.491,11.073 13.719 C 11.417 14.075,11.921 14.125,12.311 13.842 C 12.534 13.680,12.635 13.494,12.716 13.091 C 12.755 12.898,12.816 12.684,12.852 12.615 C 12.938 12.450,13.249 12.174,13.740 11.827 C 13.960 11.672,14.296 11.389,14.486 11.198 C 14.777 10.907,14.861 10.792,15.013 10.476 C 15.248 9.988,15.337 9.583,15.336 9.020 C 15.334 8.223,15.107 7.656,14.584 7.140 C 14.406 6.964,14.157 6.759,14.030 6.685 C 13.392 6.311,12.474 6.169,11.411 6.281 M11.520 15.575 C 11.119 15.691,10.856 15.911,10.685 16.277 C 10.598 16.461,10.580 16.556,10.582 16.820 C 10.584 17.181,10.658 17.366,10.905 17.640 C 11.492 18.290,12.574 18.130,12.965 17.337 C 13.216 16.825,13.109 16.248,12.694 15.883 C 12.379 15.605,11.874 15.473,11.520 15.575 " fill="#1A1C1F" stroke="none" fill-rule="evenodd"></path></svg>