<svg xmlns="http://www.w3.org/2000/svg" width="14" height="14" fill="none"><g clip-path="url(#a)"><path fill="#1A1C1F" fill-rule="evenodd" d="M7 1.4c3.079 0 5.6 2.507 5.6 5.596 0 3.08-2.506 5.604-5.6 5.604-3.095 0-5.6-2.526-5.6-5.603A5.61 5.61 0 0 1 7 1.4m0 1.4a4.194 4.194 0 0 0-4.193 4.196A4.197 4.197 0 0 0 7 11.2a4.197 4.197 0 0 0 4.193-4.203A4.194 4.194 0 0 0 7 2.8m-.26 7.348a.69.69 0 0 0 .697-.696.68.68 0 0 0-.696-.683.68.68 0 0 0-.697.683c0 .382.3.696.697.696M6.045 8.14h1.393v-.71c0-.476 1.233-.717 1.233-2.076 0-.97-.769-1.502-1.76-1.502-.628 0-1.317.214-1.615.455l.476 1.235c.301-.166.689-.297 1.024-.297.39 0 .492.177.492.375 0 .688-1.243.625-1.243 1.81z" clip-rule="evenodd"/></g><defs><clipPath id="a"><path fill="#fff" d="M0 0h14v14H0z"/></clipPath></defs></svg>