<svg xmlns="http://www.w3.org/2000/svg" width="16" height="16" fill="none"><g clip-path="url(#a)"><path fill="#1A1C1F" fill-rule="evenodd" d="M8.003 1.6A6.4 6.4 0 0 1 14.4 7.995c0 3.529-2.86 6.405-6.396 6.405-3.55 0-6.404-2.893-6.404-6.404C1.6 4.473 4.47 1.6 8.003 1.6m-.25 8.546c-.596 0-1.08.47-1.08 1.09 0 .612.472 1.08 1.096 1.08.615 0 1.074-.482 1.074-1.081 0-.585-.468-1.089-1.09-1.089m.15-6.337c-1.058 0-1.942.443-2.291.655l.718 1.717c.448-.236 1.077-.483 1.534-.483.488 0 .589.28.589.503 0 .902-1.655.857-1.655 2.447V9.6h1.873v-.952c0-.63 1.658-1.024 1.658-2.794 0-1.264-1.018-2.045-2.425-2.045" clip-rule="evenodd"/></g><defs><clipPath id="a"><path fill="#fff" d="M0 0h16v16H0z"/></clipPath></defs></svg>