<svg xmlns="http://www.w3.org/2000/svg" width="20" height="20" fill="none"><g clip-path="url(#a)"><path fill="#1A1C1F" fill-rule="evenodd" d="M10 2c4.399 0 8 3.581 8 7.995C18 14.393 14.42 18 10 18s-8-3.608-8-8.005C2 5.592 5.59 2 10 2m0 2a5.99 5.99 0 0 0-5.99 5.995C4.01 13.295 6.673 16 10 16s5.99-2.707 5.99-6.005A5.99 5.99 0 0 0 10 4m-.37 10.498a.987.987 0 0 0 .994-.996c0-.546-.429-.975-.995-.975s-.995.43-.995.975c0 .547.43.996.995.996m-.996-2.869h1.99v-1.014c0-.68 1.761-1.025 1.761-2.966 0-1.386-1.097-2.147-2.513-2.147-.898 0-1.883.307-2.307.65l.68 1.765c.43-.238.983-.424 1.461-.424.558 0 .704.253.704.535 0 .983-1.776.893-1.776 2.587z" clip-rule="evenodd"/></g><defs><clipPath id="a"><path fill="#fff" d="M0 0h20v20H0z"/></clipPath></defs></svg>