<svg width="14" height="14" viewBox="0 0 14 14" fill="none" xmlns="http://www.w3.org/2000/svg"><path d="M6.510 1.425 C 5.163 1.557,3.931 2.149,2.984 3.119 C 2.696 3.414,2.568 3.572,2.332 3.925 C 1.891 4.583,1.584 5.382,1.453 6.217 C 1.391 6.614,1.397 7.450,1.466 7.850 C 1.681 9.102,2.226 10.146,3.118 11.014 C 4.491 12.351,6.429 12.886,8.295 12.445 C 10.113 12.015,11.664 10.615,12.273 8.854 C 12.502 8.193,12.586 7.689,12.586 6.988 C 12.586 6.445,12.553 6.149,12.438 5.680 C 12.189 4.664,11.687 3.777,10.942 3.036 C 10.018 2.118,8.671 1.497,7.471 1.437 C 6.922 1.409,6.702 1.406,6.510 1.425 M7.362 2.824 C 8.086 2.893,8.745 3.128,9.357 3.537 C 10.238 4.126,10.865 5.068,11.097 6.153 C 11.217 6.710,11.197 7.476,11.048 8.057 C 10.563 9.952,8.783 11.277,6.837 11.192 C 4.797 11.103,3.126 9.579,2.857 7.564 C 2.649 5.996,3.331 4.439,4.616 3.551 C 4.864 3.380,5.388 3.118,5.675 3.023 C 6.223 2.840,6.804 2.772,7.362 2.824 M6.288 3.920 C 5.885 4.002,5.396 4.195,5.345 4.291 C 5.324 4.329,5.331 4.375,5.376 4.509 C 5.491 4.846,5.757 5.493,5.784 5.502 C 5.799 5.507,5.893 5.479,5.992 5.440 C 6.318 5.310,6.523 5.265,6.790 5.263 C 7.004 5.262,7.045 5.268,7.119 5.314 C 7.334 5.448,7.327 5.775,7.103 6.006 C 7.059 6.051,6.915 6.165,6.784 6.258 C 6.322 6.587,6.121 6.848,6.067 7.187 C 6.054 7.270,6.044 7.519,6.044 7.741 L 6.043 8.143 6.741 8.143 L 7.439 8.143 7.447 7.727 C 7.457 7.230,7.431 7.281,7.881 6.875 C 8.293 6.504,8.461 6.272,8.587 5.903 C 8.658 5.693,8.678 5.214,8.624 4.984 C 8.497 4.445,8.041 4.040,7.415 3.910 C 7.161 3.858,6.568 3.863,6.288 3.920 M6.568 8.794 C 6.373 8.845,6.209 8.981,6.111 9.170 C 6.033 9.320,6.034 9.578,6.114 9.742 C 6.270 10.061,6.609 10.209,6.950 10.106 C 7.249 10.015,7.426 9.777,7.429 9.461 C 7.431 9.191,7.295 8.970,7.048 8.844 C 6.946 8.792,6.680 8.764,6.568 8.794 " fill="#1A1C1F" stroke="none" fill-rule="evenodd"></path></svg>