<svg xmlns="http://www.w3.org/2000/svg" width="32" height="32" fill="none"><path fill="#1A1C1F" fill-rule="evenodd" d="m14.747 2.058-.8.108c-1.6.213-3.385.827-4.854 1.67-5.064 2.906-7.788 8.508-6.933 14.259.564 3.804 2.747 7.257 6 9.493 3.188 2.191 7.341 2.943 11.126 2.014a14 14 0 0 0 8.367-5.869 13.96 13.96 0 0 0 2.244-6.053c.113-.904.113-2.449-.001-3.36a14 14 0 0 0-2.195-5.985c-2.223-3.353-5.651-5.554-9.621-6.178-.532-.083-2.927-.154-3.333-.099m3.013 2.077c1.261.191 2.36.538 3.547 1.12a12.05 12.05 0 0 1 5.805 6.238c1.325 3.262 1.137 7.013-.508 10.107-1.178 2.214-3.091 4.074-5.297 5.149-1.192.58-2.295.929-3.574 1.13-.813.127-2.653.127-3.466 0-3.941-.619-7.289-3.06-9.012-6.572a11.8 11.8 0 0 1-1.13-3.6c-.13-.846-.13-2.568 0-3.414.407-2.652 1.576-4.956 3.456-6.812.975-.962 1.932-1.647 3.112-2.226 1.419-.696 2.778-1.073 4.4-1.222.476-.044 2.119.019 2.667.102m-2.907 4.476c-1.084.169-1.747.5-2.005 1-.319.62.213 1.371.974 1.374.139.001.512-.081.842-.184 1.262-.396 2.133-.399 2.783-.011.702.419.873 1.368.417 2.31-.202.419-.669.863-1.523 1.447-1.317.9-1.834 1.709-1.832 2.866 0 .576.176.889.598 1.065a.97.97 0 0 0 .826-.031c.324-.157.488-.425.555-.905.101-.727.298-.974 1.379-1.729.875-.61 1.164-.862 1.49-1.294.501-.668.75-1.482.75-2.462 0-1.688-1.03-2.991-2.7-3.419-.331-.084-.577-.104-1.269-.099-.472.003-1.05.035-1.285.072m.036 12.061c-.583.29-.864.954-.678 1.595.161.552.741.986 1.317.986.532 0 1.079-.385 1.273-.897.125-.328.132-.544.03-.883a1.29 1.29 0 0 0-.634-.78c-.381-.218-.896-.226-1.308-.021"/></svg>