<svg width="20" height="20" viewBox="0 0 20 20" fill="none" xmlns="http://www.w3.org/2000/svg"><path d="M9.311 2.036 C 6.522 2.286,4.006 4.026,2.802 6.540 C 2.433 7.310,2.209 8.033,2.076 8.882 C 1.987 9.449,1.996 10.642,2.094 11.215 C 2.401 13.000,3.182 14.496,4.455 15.735 C 6.415 17.644,9.184 18.409,11.850 17.778 C 12.667 17.585,13.648 17.163,14.333 16.710 C 16.301 15.409,17.576 13.406,17.923 11.069 C 18.002 10.540,18.002 9.427,17.923 8.898 C 17.661 7.132,16.881 5.580,15.631 4.337 C 14.297 3.011,12.363 2.128,10.624 2.050 C 9.753 2.012,9.607 2.010,9.311 2.036 M10.519 4.036 C 10.980 4.081,11.457 4.176,11.846 4.300 C 12.231 4.424,12.996 4.802,13.373 5.055 C 14.629 5.900,15.522 7.245,15.853 8.790 C 16.024 9.586,15.996 10.680,15.783 11.510 C 15.090 14.217,12.547 16.110,9.767 15.989 C 6.852 15.862,4.486 13.706,4.081 10.810 C 4.001 10.238,4.030 9.329,4.146 8.781 C 4.486 7.175,5.470 5.757,6.815 4.934 C 7.987 4.217,9.248 3.912,10.519 4.036 M8.983 5.600 C 8.401 5.719,7.710 5.990,7.635 6.129 C 7.606 6.185,7.615 6.248,7.681 6.441 C 7.845 6.923,8.224 7.847,8.263 7.860 C 8.285 7.867,8.418 7.827,8.560 7.771 C 9.026 7.585,9.318 7.521,9.700 7.519 C 10.006 7.517,10.065 7.526,10.170 7.591 C 10.478 7.783,10.467 8.250,10.147 8.580 C 10.084 8.645,9.879 8.807,9.691 8.940 C 9.032 9.410,8.744 9.783,8.668 10.267 C 8.649 10.386,8.634 10.742,8.634 11.058 L 8.633 11.633 9.630 11.633 L 10.627 11.633 10.638 11.039 C 10.652 10.329,10.620 10.393,11.238 9.842 C 11.845 9.300,12.085 8.971,12.267 8.433 C 12.369 8.133,12.396 7.447,12.319 7.120 C 12.138 6.348,11.460 5.750,10.574 5.581 C 10.216 5.512,9.364 5.522,8.983 5.600 M9.383 12.563 C 8.846 12.705,8.518 13.270,8.682 13.771 C 8.805 14.150,9.032 14.361,9.415 14.456 C 9.630 14.509,9.658 14.509,9.857 14.457 C 10.255 14.353,10.524 14.081,10.602 13.708 C 10.692 13.273,10.477 12.843,10.064 12.632 C 9.923 12.560,9.540 12.521,9.383 12.563 " fill="#1A1C1F" stroke="none" fill-rule="evenodd"></path></svg>