<svg xmlns="http://www.w3.org/2000/svg" width="12" height="12" fill="none"><g clip-path="url(#a)"><path fill="#1A1C1F" fill-rule="evenodd" d="M6.002 1.2a4.8 4.8 0 0 1 0 9.6A4.81 4.81 0 0 1 1.2 5.997 4.806 4.806 0 0 1 6.002 1.2m-.188 6.41a.805.805 0 0 0-.81.816.8.8 0 0 0 .823.811c.46 0 .805-.362.805-.81a.815.815 0 0 0-.818-.817m.114-4.753c-.794 0-1.458.332-1.72.491l.54 1.288c.336-.178.807-.363 1.15-.363.366 0 .441.21.441.378 0 .676-1.24.642-1.24 1.835V7.2h1.404v-.714c0-.473 1.244-.768 1.244-2.096 0-.948-.764-1.533-1.82-1.533" clip-rule="evenodd"/></g><defs><clipPath id="a"><path fill="#fff" d="M0 0h12v12H0z"/></clipPath></defs></svg>