<svg width="16" height="16" viewBox="0 0 16 16" fill="none" xmlns="http://www.w3.org/2000/svg"><path d="M7.120 1.665 C 6.342 1.784,5.778 1.969,5.076 2.331 C 4.391 2.685,3.938 3.022,3.400 3.577 C 2.887 4.105,2.556 4.579,2.238 5.240 C 1.953 5.831,1.766 6.436,1.664 7.093 C 1.597 7.525,1.596 8.455,1.662 8.880 C 1.891 10.342,2.520 11.574,3.550 12.574 C 4.074 13.084,4.500 13.389,5.133 13.708 C 5.762 14.026,6.397 14.227,7.120 14.338 C 7.545 14.403,8.455 14.403,8.880 14.338 C 9.518 14.240,10.136 14.057,10.680 13.806 C 13.007 12.731,14.485 10.322,14.391 7.760 C 14.331 6.124,13.672 4.624,12.503 3.462 C 11.583 2.547,10.411 1.945,9.053 1.692 C 8.731 1.632,7.451 1.613,7.120 1.665 M8.486 3.869 C 9.028 3.939,9.616 4.257,9.911 4.642 C 10.045 4.817,10.191 5.103,10.257 5.320 C 10.330 5.561,10.323 6.177,10.244 6.467 C 10.104 6.977,9.905 7.269,9.277 7.876 C 9.018 8.128,8.777 8.381,8.743 8.440 C 8.684 8.540,8.679 8.577,8.671 9.073 L 8.663 9.600 7.727 9.600 L 6.792 9.600 6.810 8.957 C 6.819 8.604,6.840 8.259,6.855 8.191 C 6.939 7.819,7.207 7.491,7.788 7.052 C 7.987 6.902,8.200 6.723,8.260 6.655 C 8.618 6.248,8.452 5.749,7.948 5.713 C 7.626 5.690,7.158 5.809,6.611 6.052 L 6.328 6.177 5.989 5.362 C 5.803 4.914,5.648 4.525,5.645 4.498 C 5.639 4.437,5.893 4.299,6.320 4.131 C 7.037 3.847,7.693 3.768,8.486 3.869 M8.206 10.252 C 8.392 10.338,8.613 10.551,8.717 10.744 C 8.797 10.895,8.800 10.912,8.800 11.232 C 8.800 11.534,8.794 11.575,8.731 11.701 C 8.572 12.021,8.275 12.238,7.913 12.300 C 7.458 12.378,6.982 12.120,6.779 11.687 C 6.714 11.549,6.707 11.503,6.707 11.240 C 6.707 10.965,6.712 10.935,6.792 10.767 C 6.934 10.466,7.217 10.235,7.507 10.183 C 7.703 10.147,8.051 10.182,8.206 10.252 " fill="#1A1C1F" stroke="none" fill-rule="evenodd"></path></svg>