<svg width="20" height="20" viewBox="0 0 20 20" fill="none" xmlns="http://www.w3.org/2000/svg"><path d="M8.900 2.082 C 7.975 2.219,7.285 2.440,6.422 2.875 C 4.331 3.929,2.865 5.730,2.266 7.980 C 2.051 8.788,1.963 9.791,2.029 10.667 C 2.104 11.654,2.478 12.896,2.973 13.800 C 3.594 14.933,4.510 15.934,5.600 16.669 C 5.999 16.939,6.811 17.350,7.263 17.511 C 9.819 18.424,12.630 18.014,14.762 16.417 C 16.874 14.834,18.085 12.314,17.989 9.700 C 17.913 7.646,17.091 5.783,15.613 4.315 C 14.377 3.087,12.669 2.264,10.950 2.068 C 10.544 2.022,9.250 2.031,8.900 2.082 M10.183 4.800 C 10.908 4.850,11.329 4.976,11.806 5.285 C 12.716 5.873,13.093 6.938,12.799 8.085 C 12.640 8.707,12.384 9.082,11.597 9.845 C 11.273 10.159,10.972 10.477,10.929 10.550 C 10.854 10.676,10.849 10.720,10.839 11.342 L 10.828 12.000 9.659 12.000 L 8.489 12.000 8.511 11.200 C 8.523 10.760,8.549 10.329,8.569 10.242 C 8.673 9.773,9.027 9.343,9.749 8.803 C 9.989 8.624,10.247 8.407,10.323 8.320 C 10.649 7.951,10.639 7.471,10.303 7.248 C 9.966 7.025,9.217 7.141,8.263 7.565 L 7.910 7.721 7.470 6.660 C 7.228 6.077,7.038 5.587,7.047 5.571 C 7.076 5.524,7.659 5.251,8.009 5.120 C 8.372 4.985,8.758 4.886,9.193 4.818 C 9.560 4.761,9.616 4.760,10.183 4.800 M10.258 12.817 C 10.490 12.922,10.767 13.189,10.896 13.431 C 10.996 13.619,11.000 13.640,11.000 14.040 C 11.000 14.418,10.993 14.469,10.914 14.626 C 10.645 15.165,10.047 15.475,9.478 15.371 C 9.355 15.348,9.175 15.290,9.077 15.242 C 8.852 15.132,8.589 14.857,8.473 14.608 C 8.393 14.437,8.383 14.379,8.383 14.050 C 8.383 13.707,8.390 13.669,8.490 13.459 C 8.668 13.082,9.021 12.794,9.383 12.728 C 9.624 12.685,10.067 12.730,10.258 12.817 " fill="#1A1C1F" stroke="none" fill-rule="evenodd"></path></svg>