<svg xmlns="http://www.w3.org/2000/svg" width="16" height="16" fill="none"><g clip-path="url(#a)"><path fill="#1A1C1F" fill-rule="evenodd" d="M8 1.6c3.519 0 6.4 2.865 6.4 6.396 0 3.518-2.864 6.404-6.4 6.404s-6.4-2.887-6.4-6.404C1.6 4.473 4.472 1.6 8 1.6m0 1.6a4.793 4.793 0 0 0-4.792 4.796c0 2.64 2.13 4.804 4.792 4.804s4.792-2.165 4.792-4.804A4.793 4.793 0 0 0 8 3.2m-.297 8.398a.79.79 0 0 0 .796-.796.777.777 0 0 0-.796-.78.777.777 0 0 0-.796.78.79.79 0 0 0 .796.796m-.796-2.295H8.5v-.811c0-.545 1.41-.82 1.41-2.373 0-1.108-.879-1.717-2.012-1.717-.718 0-1.505.245-1.845.52l.544 1.412c.343-.19.786-.34 1.17-.34.445 0 .562.203.562.428 0 .787-1.42.715-1.42 2.07z" clip-rule="evenodd"/></g><defs><clipPath id="a"><path fill="#fff" d="M0 0h16v16H0z"/></clipPath></defs></svg>