<svg width="12" height="12" viewBox="0 0 12 12" fill="none" xmlns="http://www.w3.org/2000/svg"><path d="M5.580 1.222 C 3.904 1.376,2.403 2.418,1.679 3.930 C 1.460 4.386,1.325 4.822,1.245 5.329 C 1.192 5.669,1.198 6.385,1.257 6.729 C 1.441 7.801,1.909 8.697,2.673 9.441 C 3.849 10.586,5.510 11.045,7.110 10.667 C 7.928 10.473,8.713 10.039,9.327 9.442 C 9.999 8.786,10.438 8.019,10.661 7.111 C 10.760 6.710,10.788 6.456,10.788 5.990 C 10.788 5.524,10.760 5.271,10.661 4.869 C 10.447 3.997,10.022 3.245,9.378 2.602 C 8.742 1.967,7.836 1.481,6.954 1.301 C 6.610 1.230,5.922 1.191,5.580 1.222 M6.312 2.421 C 6.796 2.469,7.148 2.568,7.570 2.778 C 8.186 3.083,8.601 3.441,8.963 3.978 C 9.360 4.568,9.554 5.171,9.574 5.880 C 9.597 6.689,9.405 7.365,8.963 8.022 C 8.276 9.044,7.085 9.647,5.860 9.593 C 4.112 9.517,2.692 8.223,2.449 6.486 C 2.401 6.143,2.418 5.598,2.488 5.269 C 2.683 4.346,3.218 3.544,3.980 3.032 C 4.683 2.560,5.511 2.343,6.312 2.421 M5.380 3.363 C 5.041 3.434,4.625 3.597,4.583 3.675 C 4.568 3.703,4.568 3.738,4.583 3.792 C 4.601 3.858,4.934 4.721,4.946 4.732 C 4.948 4.735,5.022 4.707,5.110 4.672 C 5.397 4.556,5.588 4.513,5.820 4.511 C 6.004 4.510,6.039 4.516,6.102 4.555 C 6.286 4.669,6.279 4.960,6.087 5.152 C 6.051 5.188,5.929 5.283,5.816 5.363 C 5.419 5.646,5.246 5.870,5.201 6.160 C 5.189 6.231,5.180 6.445,5.180 6.635 L 5.180 6.980 5.778 6.980 L 6.376 6.980 6.383 6.623 C 6.391 6.198,6.372 6.236,6.743 5.905 C 6.875 5.787,7.028 5.636,7.083 5.570 C 7.211 5.415,7.353 5.128,7.390 4.950 C 7.428 4.768,7.428 4.425,7.389 4.262 C 7.282 3.809,6.871 3.449,6.345 3.348 C 6.121 3.305,5.617 3.313,5.380 3.363 M5.630 7.538 C 5.455 7.587,5.327 7.690,5.244 7.849 C 5.171 7.989,5.169 8.204,5.240 8.350 C 5.374 8.624,5.665 8.751,5.957 8.662 C 6.214 8.584,6.367 8.378,6.368 8.109 C 6.369 7.877,6.252 7.688,6.041 7.580 C 5.953 7.536,5.724 7.512,5.630 7.538 " fill="#1A1C1F" stroke="none" fill-rule="evenodd"></path></svg>