<svg xmlns="http://www.w3.org/2000/svg" width="20" height="20" fill="none"><g clip-path="url(#a)"><path fill="#1A1C1F" fill-rule="evenodd" d="M10.004 2C14.41 2 18 5.575 18 9.994 18 14.404 14.425 18 10.005 18 5.568 18 2 14.384 2 9.994 2 5.592 5.589 2 10.004 2M9.69 12.683c-.745 0-1.35.586-1.35 1.361 0 .766.59 1.351 1.37 1.351.769 0 1.343-.603 1.343-1.351 0-.732-.586-1.361-1.363-1.361M9.88 4.76c-1.324 0-2.43.555-2.865.82l.897 2.146c.56-.296 1.346-.605 1.918-.605.61 0 .736.351.736.629 0 1.128-2.068 1.07-2.068 3.059V12h2.341v-1.19c0-.788 2.073-1.28 2.073-3.493 0-1.58-1.273-2.556-3.032-2.556" clip-rule="evenodd"/></g><defs><clipPath id="a"><path fill="#fff" d="M0 0h20v20H0z"/></clipPath></defs></svg>