<svg xmlns="http://www.w3.org/2000/svg" width="16" height="16" fill="none"><g clip-path="url(#a)"><path fill="#1A1C1F" fill-rule="evenodd" d="M8.064 1.6c.617 0 1.117.349 1.386.86l4.725 9.637c.107.242.161.484.161.698 0 .886-.613 1.605-1.472 1.605h-9.6c-.86 0-1.6-.719-1.6-1.605 0-.241.054-.483.161-.698l4.779-9.584c.242-.537.87-.913 1.46-.913m0 1.6-4.8 9.6h9.6zm-.8 6.4V6.4h1.6v3.2zm.8.806c.439 0 .8.361.8.8s-.361.8-.8.8a.804.804 0 0 1-.8-.8c0-.439.361-.8.8-.8" clip-rule="evenodd"/></g><defs><clipPath id="a"><path fill="#fff" d="M0 0h16v16H0z"/></clipPath></defs></svg>