<svg xmlns="http://www.w3.org/2000/svg" width="14" height="14" fill="none"><g clip-path="url(#a)"><path fill="#1A1C1F" fill-rule="evenodd" d="M7.056 1.4c.54 0 .978.305 1.213.752l4.134 8.433c.094.212.141.423.141.61 0 .776-.536 1.405-1.288 1.405h-8.4c-.752 0-1.4-.629-1.4-1.404 0-.211.047-.423.141-.61l4.181-8.387c.212-.47.761-.799 1.278-.799m0 1.4-4.2 8.4h8.4zm-.7 5.6V5.6h1.4v2.8zm.7.705c.384 0 .7.316.7.7s-.316.7-.7.7a.703.703 0 0 1-.7-.7c0-.384.316-.7.7-.7" clip-rule="evenodd"/></g><defs><clipPath id="a"><path fill="#fff" d="M0 0h14v14H0z"/></clipPath></defs></svg>