<svg xmlns="http://www.w3.org/2000/svg" width="28" height="28" fill="none"><g clip-path="url(#a)"><path fill="#1A1C1F" fill-rule="evenodd" d="M14 2.188c.99 0 1.899.535 2.371 1.413l9.576 18.316c.213.396.303.818.303 1.27 0 1.518-1.111 2.625-2.625 2.625H4.5c-1.517 0-2.75-1.11-2.75-2.625 0-.452.09-.874.304-1.27L11.629 3.6A2.69 2.69 0 0 1 14 2.188m0 17.68c-.65 0-1.216.537-1.216 1.216 0 .65.565 1.216 1.216 1.216.679 0 1.217-.565 1.217-1.216 0-.68-.538-1.217-1.217-1.217m0-12.06c-.51 0-.875.433-.875.942v8.518c0 .509.366.874.875.874.51 0 .875-.365.875-.874V8.75c0-.51-.366-.943-.875-.943" clip-rule="evenodd"/></g><defs><clipPath id="a"><path fill="#fff" d="M0 0h28v28H0z"/></clipPath></defs></svg>