<svg xmlns="http://www.w3.org/2000/svg" width="32" height="32" fill="none"><g clip-path="url(#a)"><path fill="#1A1C1F" fill-rule="evenodd" d="M16 2.5c1.132 0 2.17.612 2.71 1.615l10.943 20.933c.244.453.347.935.347 1.452 0 1.735-1.27 3-3 3H5.143C3.41 29.5 2 28.23 2 26.5c0-.517.103-1 .347-1.452L13.29 4.115A3.07 3.07 0 0 1 16 2.5m0 1.843c-.356 0-.646.259-.906.742l-10.99 20.9a1.04 1.04 0 0 0-.139.48c0 .432.388 1.035 1.035 1.035l21.965.035c.553 0 1.035-.515 1.035-1.035a1.04 1.04 0 0 0-.138-.48L16.906 5.085c-.26-.483-.55-.742-.906-.742m-1.39 19.753a1.4 1.4 0 0 1 1.39-1.39c.776 0 1.39.614 1.39 1.39a1.4 1.4 0 0 1-1.39 1.39c-.744 0-1.39-.646-1.39-1.39m.39-4.43c0 .582.418 1.038 1 1.038s1-.456 1-1.038V10.52c0-.582-.418-1.019-1-1.019s-1 .437-1 1.018z" clip-rule="evenodd"/></g><defs><clipPath id="a"><path fill="#fff" d="M0 0h32v32H0z"/></clipPath></defs></svg>