<svg xmlns="http://www.w3.org/2000/svg" width="20" height="20" fill="none"><g clip-path="url(#a)"><path fill="#1A1C1F" fill-rule="evenodd" d="M10.08 2c.772 0 1.397.436 1.732 1.074l5.907 12.048c.134.302.201.604.201.872 0 1.108-.766 2.006-1.84 2.006h-12c-1.074 0-2-.898-2-2.006 0-.302.067-.604.201-.872L8.255 3.14C8.557 2.47 9.342 2 10.08 2m0 2-6 12h12zm-1 8V8h2v4zm1 1.007c.548 0 1 .452 1 1 0 .549-.452 1-1 1s-1-.451-1-1 .452-1 1-1" clip-rule="evenodd"/></g><defs><clipPath id="a"><path fill="#fff" d="M0 0h20v20H0z"/></clipPath></defs></svg>