<svg xmlns="http://www.w3.org/2000/svg" width="24" height="24" fill="none"><g clip-path="url(#a)"><path fill="#1A1C1F" fill-rule="evenodd" d="M12 2c.657 0 1.3.426 1.722 1.213l8.028 16c.156.328.25.689.25.984C22 21.18 21.249 22 20.153 22H3.847C2.75 22 2 21.18 2 20.197c0-.328.094-.656.25-.984l8.06-16C10.74 2.426 11.343 2 12 2m-.016 14.721c-.563 0-1.001.46-1.001 1.05s.438 1.049 1.001 1.049c.564 0 1.002-.46 1.002-1.05s-.438-1.049-1.002-1.049M12 8c-.563 0-1 .41-1 1v5.623c0 .623.437 1.05 1 1.05s1.017-.394 1.017-1.05L13 9c0-.59-.468-1-1-1" clip-rule="evenodd"/></g><defs><clipPath id="a"><path fill="#fff" d="M0 0h24v24H0z"/></clipPath></defs></svg>