<svg xmlns="http://www.w3.org/2000/svg" width="24" height="24" fill="none"><g clip-path="url(#a)"><path fill="#1A1C1F" fill-rule="evenodd" d="M11 14.557c0 .623.437 1.115 1 1.115s1.003-.459 1.003-1.115v-4.63c0-.59-.44-1.05-1.003-1.05s-1 .459-1 1.05zm-.69-11.344C10.74 2.426 11.343 2 12 2s1.3.426 1.722 1.213l8.028 16c.156.328.25.689.25.984C22 21.18 21.249 22 20.153 22H3.847C2.75 22 2 21.18 2 20.197c0-.328.094-.656.25-.984zm1.945.993Q12.096 4 12 4c-.096 0-.191.103-.255.206L4.032 19.519c0 .069-.032.103-.032.206 0 .138.128.275.319.275h15.344c.288 0 .415-.24.288-.48zm-.27 14.614c-.564 0-1.002-.46-1.002-1.05s.438-1.049 1.001-1.049c.564 0 1.002.46 1.002 1.05s-.438 1.049-1.002 1.049" clip-rule="evenodd"/></g><defs><clipPath id="a"><path fill="#fff" d="M0 0h24v24H0z"/></clipPath></defs></svg>