<svg xmlns="http://www.w3.org/2000/svg" width="32" height="32" fill="none"><path fill="#1A1C1F" fill-rule="evenodd" d="M15.219 2.609c-.881.239-1.511.749-1.981 1.604-.226.412-10.563 20.198-10.827 20.724-.308.614-.402.977-.4 1.544.002.845.279 1.515.875 2.113.248.25.469.411.747.545.789.379-.139.353 12.425.354 11.123 0 11.346-.002 11.751-.105.561-.144.899-.336 1.317-.748.584-.576.86-1.266.863-2.16.002-.553-.092-.93-.373-1.49-.451-.9-10.767-20.624-10.95-20.937-.385-.657-1.018-1.175-1.702-1.393-.509-.162-1.256-.183-1.745-.051m1.175 1.868c.092.056.226.182.298.28.072.097 2.639 4.964 5.705 10.816 5.47 10.443 5.574 10.646 5.575 10.942.001.252-.026.341-.161.533a1.4 1.4 0 0 1-.373.351l-.211.119-11.147.001c-7.506 0-11.211-.018-11.345-.055-.424-.118-.747-.557-.743-1.012.002-.231.491-1.183 5.593-10.886 3.076-5.848 5.65-10.712 5.722-10.808.28-.379.738-.497 1.087-.281m-.741 5.096a1.07 1.07 0 0 0-.609.649c-.078.282-.079 9.458-.001 9.739.07.251.34.565.568.66.22.092.558.092.778 0 .228-.095.498-.409.568-.66.08-.287.077-9.458-.003-9.746-.107-.384-.574-.727-.981-.719a1.4 1.4 0 0 0-.32.077m-.186 13.255c-.929.431-1.135 1.549-.416 2.25.394.383.888.502 1.382.334 1.164-.397 1.278-2.026.178-2.558-.316-.153-.845-.165-1.144-.026"/></svg>