<svg xmlns="http://www.w3.org/2000/svg" width="28" height="28" fill="none"><g clip-path="url(#a)"><path fill="#1A1C1F" fill-rule="evenodd" d="M14 2.188c.99 0 1.899.535 2.371 1.413l9.576 18.316c.213.396.303.818.303 1.27 0 1.518-1.111 2.625-2.625 2.625H4.5c-1.517 0-2.75-1.11-2.75-2.625 0-.452.09-.874.304-1.27L11.629 3.6A2.69 2.69 0 0 1 14 2.188M14 3.8c-.311 0-.565.227-.793.65L3.59 22.737a.9.9 0 0 0-.12.42c0 .378.34.906.905.906l19.22.03c.483 0 .905-.45.905-.905a.9.9 0 0 0-.12-.42L14.792 4.45c-.228-.423-.482-.65-.793-.65m-1.216 17.284c0-.68.565-1.217 1.216-1.217.679 0 1.217.538 1.217 1.217 0 .65-.538 1.216-1.217 1.216-.65 0-1.216-.565-1.216-1.216m.341-3.876c0 .51.366.908.875.908.51 0 .875-.399.875-.908V9.204c0-.51-.366-.892-.875-.892-.51 0-.875.382-.875.892z" clip-rule="evenodd"/></g><defs><clipPath id="a"><path fill="#fff" d="M0 0h28v28H0z"/></clipPath></defs></svg>