<svg xmlns="http://www.w3.org/2000/svg" width="16" height="16" fill="none"><g clip-path="url(#a)"><path fill="#1A1C1F" fill-rule="evenodd" d="M8 1.6c.637 0 1.195.338 1.453.857l4.783 9.632c.112.227.163.469.163.695 0 .889-.735 1.616-1.616 1.616H3.217a1.626 1.626 0 0 1-1.616-1.616c0-.243.056-.481.163-.695l4.816-9.6c.266-.53.816-.889 1.42-.889m.001 9.552a.83.83 0 0 0-.832.824.832.832 0 0 0 1.665 0A.83.83 0 0 0 8 11.15m.8-6.352h-1.6v4.8h1.6z" clip-rule="evenodd"/></g><defs><clipPath id="a"><path fill="#fff" d="M0 0h16v16H0z"/></clipPath></defs></svg>