<svg xmlns="http://www.w3.org/2000/svg" width="20" height="20" fill="none"><g clip-path="url(#a)"><path fill="#1A1C1F" fill-rule="evenodd" d="M10 2c.796 0 1.494.422 1.816 1.07l5.979 12.041c.14.284.204.586.204.869 0 1.11-.918 2.02-2.02 2.02H4.02c-1.101 0-2.02-.91-2.02-2.02 0-.303.07-.602.204-.869l6.02-12A2.01 2.01 0 0 1 10 2m.001 11.94a1.04 1.04 0 0 0-1.04 1.03 1.04 1.04 0 0 0 2.081 0c0-.566-.47-1.03-1.04-1.03m1-7.94h-2v6h2z" clip-rule="evenodd"/></g><defs><clipPath id="a"><path fill="#fff" d="M0 0h20v20H0z"/></clipPath></defs></svg>