<svg xmlns="http://www.w3.org/2000/svg" width="32" height="32" fill="none"><g clip-path="url(#a)"><path fill="#1A1C1F" fill-rule="evenodd" d="M16 2.5c1.132 0 2.17.612 2.71 1.615l10.943 20.933c.244.453.347.935.347 1.452 0 1.735-1.27 3-3 3H5.143C3.41 29.5 2 28.23 2 26.5c0-.517.103-1 .347-1.452L13.29 4.115A3.07 3.07 0 0 1 16 2.5m0 20.206a1.4 1.4 0 0 0-1.39 1.39c0 .744.646 1.39 1.39 1.39a1.4 1.4 0 0 0 1.39-1.39 1.38 1.38 0 0 0-1.39-1.39m0-13.784c-.582 0-1 .496-1 1.078v9.735c0 .582.418.998 1 .998s1-.416 1-.998V10c0-.582-.418-1.078-1-1.078" clip-rule="evenodd"/></g><defs><clipPath id="a"><path fill="#fff" d="M0 0h32v32H0z"/></clipPath></defs></svg>