<svg xmlns="http://www.w3.org/2000/svg" width="14" height="14" fill="none"><g clip-path="url(#a)"><path fill="#1A1C1F" fill-rule="evenodd" d="M7 1.4c.557 0 1.046.295 1.271.75l4.185 8.428c.099.198.143.41.143.608 0 .778-.643 1.414-1.414 1.414h-8.37A1.42 1.42 0 0 1 1.4 11.186c0-.212.049-.421.143-.608l4.213-8.4A1.4 1.4 0 0 1 7 1.4m0 8.358c-.4 0-.728.325-.728.72a.728.728 0 0 0 1.457 0 .73.73 0 0 0-.728-.72M7.7 4.2H6.3v4.2h1.4z" clip-rule="evenodd"/></g><defs><clipPath id="a"><path fill="#fff" d="M0 0h14v14H0z"/></clipPath></defs></svg>