<svg xmlns="http://www.w3.org/2000/svg" width="32" height="32" fill="none"><path fill="#1A1C1F" fill-rule="evenodd" d="M15.219 2.609c-.881.239-1.511.749-1.981 1.604-.226.412-10.563 20.198-10.827 20.724-.308.614-.402.977-.4 1.544.002.845.279 1.515.875 2.113.248.25.469.411.747.545.789.379-.139.353 12.425.354 11.123 0 11.346-.002 11.751-.105.561-.144.899-.336 1.317-.748.584-.576.86-1.266.863-2.16.002-.553-.092-.93-.373-1.49-.451-.9-10.767-20.624-10.95-20.937-.385-.657-1.018-1.175-1.702-1.393-.509-.162-1.256-.183-1.745-.051m1.261 6.453c.108.054.254.203.347.352l.16.258v5.124c0 2.818-.018 5.188-.04 5.267-.098.349-.56.681-.947.681s-.849-.332-.947-.681c-.022-.079-.04-2.447-.04-5.263V9.68l.145-.246c.289-.492.801-.636 1.322-.372m-.048 13.72a1.394 1.394 0 0 1 .874 1.754c-.173.521-.756.957-1.279.957-.505 0-1.045-.348-1.282-.826-.148-.301-.142-.882.012-1.174.324-.608 1.059-.921 1.675-.711"/></svg>