<svg xmlns="http://www.w3.org/2000/svg" width="12" height="12" fill="none"><g clip-path="url(#a)"><path fill="#1A1C1F" fill-rule="evenodd" d="M6.048 1.2c.463 0 .838.262 1.04.644l3.543 7.229c.08.181.121.362.121.524 0 .664-.46 1.203-1.104 1.203h-7.2c-.644 0-1.2-.539-1.2-1.203 0-.182.04-.363.12-.524l3.585-7.188c.181-.403.652-.685 1.095-.685m0 1.2-3.6 7.2h7.2zm-.6 4.8V4.8h1.2v2.4zm.6.604c.329 0 .6.271.6.6 0 .33-.271.6-.6.6-.33 0-.6-.27-.6-.6s.27-.6.6-.6" clip-rule="evenodd"/></g><defs><clipPath id="a"><path fill="#fff" d="M0 0h12v12H0z"/></clipPath></defs></svg>