<svg xmlns="http://www.w3.org/2000/svg" width="12" height="12" fill="none"><g clip-path="url(#a)"><path fill="#1A1C1F" fill-rule="evenodd" d="M6 1.2c.477 0 .896.253 1.09.642l3.587 7.225c.084.17.122.351.122.52A1.22 1.22 0 0 1 9.587 10.8H2.413A1.22 1.22 0 0 1 1.2 9.588c0-.182.042-.361.122-.521l3.612-7.2c.2-.398.612-.667 1.065-.667m0 7.164a.624.624 0 0 0-.624.618.624.624 0 0 0 1.25 0A.624.624 0 0 0 6 8.364M6.6 3.6H5.4v3.6h1.2z" clip-rule="evenodd"/></g><defs><clipPath id="a"><path fill="#fff" d="M0 0h12v12H0z"/></clipPath></defs></svg>