<svg xmlns="http://www.w3.org/2000/svg" width="32" height="32" fill="none"><path fill="#1A1C1F" fill-rule="evenodd" d="M11.511 2.147c-.233.142-.378.32-.462.568-.042.121-.062.698-.062 1.745v1.564l-3.191.015-3.191.014-.202.155c-.553.421-.519 1.235.068 1.637l.188.128h22.682l.188-.128c.587-.402.621-1.216.068-1.637l-.202-.155-3.188-.014-3.188-.015-.016-1.669-.016-1.67-.147-.221a1.15 1.15 0 0 0-.358-.33c-.207-.105-.302-.107-4.493-.107h-4.282zm7.476 2.866v1.014h-5.974V4h5.974zM4.56 10.111a.93.93 0 0 0-.486.536c-.169.445-.013.916.397 1.198.175.12.247.13 1.081.155.988.029 1.061.053 1.315.426l.12.176.001 7.313c.001 8.095-.015 7.707.349 8.447.366.744 1.147 1.357 1.996 1.566.239.058 1.506.072 6.774.072h6.48l.375-.118c.48-.151.936-.447 1.294-.84.296-.324.429-.548.617-1.039.114-.296.114-.306.14-7.87l.027-7.573.124-.174c.224-.314.369-.356 1.32-.386.796-.025.871-.036 1.045-.155.587-.403.621-1.216.068-1.637l-.202-.155-.937-.018c-.601-.011-1.043.006-1.231.047-.76.167-1.575.802-1.912 1.491-.339.696-.326.358-.327 8.459l-.001 7.366-.12.176a1.4 1.4 0 0 1-.271.288c-.15.111-.152.111-6.475.125l-6.325.014-.235-.113a1 1 0 0 1-.378-.331l-.143-.216-.027-7.524c-.026-7.513-.026-7.524-.14-7.82-.208-.543-.352-.768-.734-1.145-.698-.689-1.108-.825-2.484-.825-.743 0-.968.017-1.095.084m7.04 2.983a1.1 1.1 0 0 0-.513.533c-.093.203-.098.483-.099 5.845-.001 4.171.015 5.679.061 5.813.149.431.516.701.954.701.339 0 .622-.15.824-.435l.16-.227.014-5.739.014-5.74-.133-.269c-.175-.356-.426-.524-.82-.549-.207-.013-.352.008-.462.067m4-.009a1.08 1.08 0 0 0-.532.586c-.075.198-.083.838-.07 5.938l.015 5.715.16.227a.998.998 0 0 0 1.654 0l.16-.227.014-5.739.014-5.74-.133-.269c-.176-.358-.426-.525-.82-.547-.18-.01-.367.012-.462.056m4 .009a1.1 1.1 0 0 0-.513.533c-.093.203-.098.483-.099 5.845-.001 4.171.015 5.679.061 5.813.149.431.516.701.954.701.339 0 .622-.15.824-.435l.16-.227.014-5.739.014-5.74-.133-.269c-.175-.356-.426-.524-.82-.549-.207-.013-.352.008-.462.067"/></svg>