<svg width="12" height="12" viewBox="0 0 12 12" fill="none" xmlns="http://www.w3.org/2000/svg"><path d="M4.930 1.218 C 4.698 1.226,4.574 1.239,4.540 1.258 C 4.430 1.318,4.326 1.421,4.270 1.523 C 4.211 1.629,4.211 1.633,4.203 2.012 L 4.196 2.394 2.910 2.404 L 1.624 2.414 1.534 2.467 C 1.394 2.549,1.333 2.608,1.270 2.723 C 1.219 2.817,1.212 2.850,1.212 3.000 C 1.212 3.150,1.219 3.183,1.270 3.276 C 1.337 3.400,1.422 3.480,1.560 3.550 L 1.659 3.600 6.005 3.600 L 10.351 3.600 10.430 3.558 C 10.565 3.486,10.669 3.389,10.730 3.277 C 10.782 3.182,10.788 3.151,10.788 3.000 C 10.788 2.875,10.778 2.812,10.751 2.760 C 10.687 2.637,10.607 2.552,10.491 2.482 L 10.378 2.414 9.091 2.404 L 7.804 2.394 7.796 2.012 C 7.787 1.586,7.776 1.543,7.648 1.401 C 7.607 1.355,7.531 1.296,7.481 1.271 C 7.390 1.225,7.387 1.225,6.330 1.215 C 5.747 1.210,5.117 1.211,4.930 1.218 M1.730 4.218 C 1.653 4.226,1.568 4.244,1.540 4.259 C 1.434 4.315,1.326 4.420,1.270 4.523 C 1.219 4.618,1.212 4.650,1.212 4.800 C 1.212 4.950,1.219 4.982,1.270 5.077 C 1.330 5.187,1.435 5.286,1.560 5.352 C 1.619 5.383,1.690 5.390,2.015 5.396 L 2.400 5.404 2.401 7.547 C 2.402 8.726,2.410 9.760,2.419 9.846 C 2.460 10.238,2.754 10.576,3.191 10.732 L 3.382 10.800 5.836 10.800 C 7.238 10.800,8.390 10.791,8.523 10.780 C 8.786 10.758,8.915 10.718,9.093 10.603 C 9.304 10.465,9.474 10.263,9.566 10.038 L 9.610 9.930 9.616 7.667 L 9.622 5.404 9.996 5.396 C 10.310 5.390,10.381 5.382,10.440 5.352 C 10.565 5.286,10.670 5.187,10.730 5.077 C 10.782 4.982,10.788 4.951,10.788 4.800 C 10.788 4.675,10.778 4.612,10.751 4.560 C 10.687 4.437,10.607 4.352,10.489 4.281 L 10.373 4.211 9.902 4.211 C 9.364 4.210,9.291 4.223,9.053 4.364 C 8.804 4.510,8.596 4.756,8.484 5.036 L 8.430 5.170 8.424 7.385 L 8.418 9.600 6.009 9.600 L 3.600 9.600 3.600 7.413 C 3.600 5.330,3.598 5.221,3.563 5.118 C 3.420 4.702,3.117 4.385,2.750 4.264 C 2.654 4.232,2.554 4.222,2.250 4.214 C 2.041 4.209,1.807 4.211,1.730 4.218 M4.608 4.836 C 4.474 4.883,4.358 4.977,4.276 5.106 L 4.210 5.210 4.210 6.880 C 4.210 8.538,4.210 8.551,4.252 8.640 C 4.389 8.931,4.770 9.076,5.045 8.942 C 5.165 8.883,5.284 8.764,5.344 8.644 L 5.390 8.550 5.396 6.906 L 5.401 5.261 5.350 5.160 C 5.286 5.033,5.173 4.919,5.058 4.865 C 4.929 4.804,4.734 4.792,4.608 4.836 M7.008 4.836 C 6.874 4.883,6.758 4.977,6.676 5.106 L 6.610 5.210 6.610 6.880 C 6.610 8.538,6.610 8.551,6.652 8.640 C 6.789 8.931,7.170 9.076,7.445 8.942 C 7.565 8.883,7.684 8.764,7.744 8.644 L 7.790 8.550 7.796 6.906 L 7.801 5.261 7.750 5.160 C 7.686 5.033,7.573 4.919,7.458 4.865 C 7.329 4.804,7.134 4.792,7.008 4.836 " fill="#1A1C1F" stroke="none" fill-rule="evenodd"></path></svg>