<svg xmlns="http://www.w3.org/2000/svg" width="14" height="14" fill="none"><g clip-path="url(#a)"><path fill="#1A1C1F" fill-rule="evenodd" d="M1.4 5.6c0-.394.306-.7.7-.7h.7c.766 0 1.4.7 1.4 1.4v4.9h5.622V6.3c0-.7.634-1.4 1.378-1.4h.7c.394 0 .7.306.7.7s-.306.7-.7.7h-.678v5.031c0 .744-.677 1.269-1.4 1.269H4.2c-.745 0-1.4-.525-1.4-1.269V6.3h-.7a.69.69 0 0 1-.7-.7m0-2.1c0-.394.306-.7.7-.7h2.8v-.7c0-.394.306-.7.7-.7h2.8a.73.73 0 0 1 .503.197.7.7 0 0 1 .197.503v.7h2.8c.394 0 .7.306.7.7s-.306.7-.7.7H2.1a.69.69 0 0 1-.7-.7m3.5 6.3V6.3c0-.394.306-.7.7-.7s.7.306.7.7v3.5c0 .372-.306.7-.7.7a.75.75 0 0 1-.503-.219A.68.68 0 0 1 4.9 9.8m2.8 0V6.3c0-.394.306-.7.7-.7s.7.306.7.7v3.5c0 .372-.306.7-.7.7a.75.75 0 0 1-.503-.219A.68.68 0 0 1 7.7 9.8" clip-rule="evenodd"/></g><defs><clipPath id="a"><path fill="#fff" d="M0 0h14v14H0z"/></clipPath></defs></svg>