<svg width="28" height="28" viewBox="0 0 28 28" fill="none" xmlns="http://www.w3.org/2000/svg"><path d="M10.028 1.926 C 9.637 2.224,9.639 2.214,9.622 3.831 L 9.607 5.259 6.810 5.284 L 4.013 5.309 3.855 5.430 C 3.669 5.572,3.500 5.894,3.500 6.106 C 3.500 6.411,3.736 6.784,4.023 6.934 C 4.130 6.990,5.611 7.000,14.000 7.000 C 24.861 7.000,23.971 7.026,24.255 6.703 C 24.608 6.300,24.547 5.713,24.120 5.409 C 23.982 5.311,23.944 5.309,21.184 5.284 L 18.387 5.259 18.387 3.841 C 18.387 2.278,18.390 2.300,18.087 2.009 C 17.951 1.879,17.869 1.842,17.652 1.815 C 17.504 1.796,15.773 1.779,13.805 1.777 L 10.227 1.773 10.028 1.926 M16.613 4.387 L 16.613 5.273 14.000 5.273 L 11.387 5.273 11.387 4.387 L 11.387 3.500 14.000 3.500 L 16.613 3.500 16.613 4.387 M4.120 8.819 C 3.678 8.924,3.402 9.430,3.546 9.869 C 3.608 10.057,3.829 10.333,3.983 10.415 C 4.036 10.444,4.417 10.483,4.828 10.503 C 5.240 10.523,5.632 10.560,5.700 10.587 C 5.768 10.613,5.884 10.713,5.957 10.808 L 6.090 10.983 6.118 17.496 C 6.137 22.190,6.160 24.075,6.199 24.243 C 6.397 25.095,7.157 25.870,8.073 26.156 C 8.308 26.230,8.813 26.238,14.023 26.260 L 19.717 26.283 20.104 26.141 C 20.910 25.844,21.475 25.288,21.757 24.516 C 21.856 24.244,21.856 24.222,21.885 17.614 L 21.915 10.984 22.024 10.830 C 22.180 10.612,22.375 10.548,22.973 10.520 C 23.907 10.477,23.975 10.464,24.175 10.283 C 24.612 9.888,24.582 9.238,24.112 8.903 C 23.969 8.801,23.925 8.797,23.030 8.797 C 21.971 8.797,21.827 8.827,21.322 9.154 C 20.764 9.514,20.392 9.995,20.222 10.573 C 20.147 10.828,20.139 11.363,20.115 17.434 L 20.090 24.017 19.957 24.192 C 19.884 24.287,19.768 24.390,19.700 24.419 C 19.610 24.458,18.070 24.478,14.043 24.490 L 8.510 24.507 8.308 24.352 C 8.196 24.267,8.062 24.139,8.010 24.068 C 7.916 23.941,7.915 23.888,7.885 17.348 C 7.856 10.780,7.856 10.756,7.757 10.484 C 7.604 10.066,7.434 9.809,7.080 9.464 C 6.679 9.072,6.318 8.889,5.818 8.822 C 5.404 8.767,4.346 8.765,4.120 8.819 M10.145 11.473 C 9.868 11.603,9.711 11.832,9.656 12.188 C 9.627 12.372,9.615 14.296,9.623 17.290 C 9.638 22.588,9.616 22.211,9.924 22.502 C 10.089 22.658,10.266 22.727,10.505 22.727 C 10.775 22.727,10.969 22.628,11.190 22.376 L 11.387 22.154 11.387 17.102 L 11.387 12.051 11.235 11.825 C 11.152 11.702,11.017 11.562,10.936 11.515 C 10.709 11.384,10.373 11.366,10.145 11.473 M13.728 11.431 C 13.553 11.475,13.330 11.668,13.214 11.877 C 13.144 12.004,13.136 12.464,13.124 17.084 L 13.111 22.150 13.308 22.375 C 13.532 22.629,13.724 22.727,14.000 22.727 C 14.275 22.727,14.468 22.629,14.690 22.376 L 14.887 22.154 14.887 17.102 L 14.887 12.051 14.735 11.825 C 14.652 11.702,14.520 11.564,14.443 11.521 C 14.270 11.422,13.935 11.380,13.728 11.431 M17.145 11.473 C 16.868 11.603,16.711 11.832,16.656 12.188 C 16.627 12.372,16.615 14.296,16.623 17.290 C 16.638 22.588,16.616 22.211,16.924 22.502 C 17.089 22.658,17.266 22.727,17.505 22.727 C 17.775 22.727,17.969 22.628,18.190 22.376 L 18.387 22.154 18.387 17.102 L 18.387 12.051 18.235 11.825 C 18.152 11.702,18.017 11.562,17.936 11.515 C 17.709 11.384,17.373 11.366,17.145 11.473 " fill="#1A1C1F" stroke="none" fill-rule="evenodd"></path></svg>