<svg xmlns="http://www.w3.org/2000/svg" width="16" height="16" fill="none"><g clip-path="url(#a)"><path fill="#1A1C1F" fill-rule="evenodd" d="M1.6 6.4c0-.45.35-.8.8-.8h.8c.875 0 1.6.8 1.6 1.6v5.6h6.425V7.2c0-.8.725-1.6 1.575-1.6h.8c.45 0 .8.35.8.8s-.35.8-.8.8h-.775v5.75c0 .85-.773 1.45-1.6 1.45H4.8c-.851 0-1.6-.6-1.6-1.45V7.2h-.8a.79.79 0 0 1-.8-.8m0-2.4c0-.45.35-.8.8-.8h3.2v-.8c0-.45.35-.8.8-.8h3.2c.2 0 .425.075.575.225s.225.35.225.575v.8h3.2c.45 0 .8.35.8.8s-.35.8-.8.8H2.4a.79.79 0 0 1-.8-.8m4 7.2v-4c0-.45.35-.8.8-.8s.8.35.8.8v4c0 .425-.35.8-.8.8-.2 0-.425-.1-.575-.25a.78.78 0 0 1-.225-.55m3.2 0v-4c0-.45.35-.8.8-.8s.8.35.8.8v4c0 .425-.35.8-.8.8-.2 0-.425-.1-.575-.25a.78.78 0 0 1-.225-.55" clip-rule="evenodd"/></g><defs><clipPath id="a"><path fill="#fff" d="M0 0h16v16H0z"/></clipPath></defs></svg>