<svg xmlns="http://www.w3.org/2000/svg" width="32" height="32" fill="none"><g clip-path="url(#a)"><path fill="#1A1C1F" fill-rule="evenodd" d="M4 11c0-.562.438-1 1-1h1.156A2.854 2.854 0 0 1 9 12.844V27c0 .563.469 1 1 1h12.156a.84.84 0 0 0 .844-.844V12.875A2.867 2.867 0 0 1 25.875 10H27c.563 0 1 .438 1 1s-.437 1-1 1h-1.125a.894.894 0 0 0-.875.875v14.281A2.854 2.854 0 0 1 22.156 30H10a3 3 0 0 1-3-3V12.844A.84.84 0 0 0 6.156 12H5c-.562 0-1-.437-1-1m16-9c.563 0 1 .438 1 1v3h6c.563 0 1 .438 1 1s-.437 1-1 1H5c-.562 0-1-.437-1-1s.438-1 1-1h6V3c0-.562.469-1 1-1zm-1 2h-6v2h6zm-8 21V14c0-.562.469-1 1-1 .563 0 1 .438 1 1v11c0 .563-.437 1-1 1-.531 0-1-.437-1-1m4 0V14c0-.562.438-1 1-1s1 .438 1 1v11c0 .563-.437 1-1 1s-1-.437-1-1m4 0V14c0-.562.469-1 1-1 .563 0 1 .438 1 1v11c0 .563-.437 1-1 1-.531 0-1-.437-1-1" clip-rule="evenodd"/></g><defs><clipPath id="a"><path fill="#fff" d="M0 0h32v32H0z"/></clipPath></defs></svg>