<svg width="16" height="16" viewBox="0 0 16 16" fill="none" xmlns="http://www.w3.org/2000/svg"><path d="M6.600 1.623 C 6.269 1.635,6.099 1.651,6.053 1.677 C 5.907 1.758,5.768 1.894,5.693 2.030 C 5.615 2.172,5.614 2.177,5.604 2.683 L 5.594 3.192 3.880 3.206 L 2.165 3.219 2.045 3.289 C 1.858 3.399,1.777 3.477,1.693 3.631 C 1.625 3.757,1.616 3.799,1.616 4.000 C 1.617 4.182,1.629 4.249,1.677 4.343 C 1.756 4.494,1.930 4.665,2.083 4.740 L 2.206 4.800 8.000 4.800 L 13.794 4.800 13.912 4.741 C 14.088 4.653,14.219 4.530,14.306 4.370 C 14.375 4.243,14.384 4.201,14.384 4.000 C 14.384 3.833,14.371 3.749,14.335 3.680 C 14.250 3.517,14.143 3.403,13.988 3.309 L 13.838 3.219 12.122 3.206 L 10.406 3.192 10.394 2.683 C 10.386 2.298,10.372 2.150,10.341 2.076 C 10.280 1.937,10.116 1.766,9.975 1.694 C 9.854 1.633,9.851 1.632,8.467 1.620 C 7.704 1.613,6.864 1.614,6.600 1.623 M2.320 5.625 C 2.210 5.635,2.090 5.659,2.053 5.678 C 1.911 5.754,1.768 5.893,1.694 6.030 C 1.625 6.157,1.616 6.200,1.616 6.400 C 1.616 6.600,1.625 6.643,1.693 6.769 C 1.780 6.927,1.893 7.038,2.061 7.125 C 2.163 7.179,2.220 7.185,2.687 7.195 L 3.200 7.206 3.201 10.076 C 3.202 11.655,3.213 13.035,3.225 13.143 C 3.267 13.502,3.522 13.899,3.853 14.118 C 3.933 14.172,4.111 14.257,4.246 14.308 L 4.493 14.400 7.773 14.399 C 9.650 14.399,11.186 14.388,11.364 14.373 C 11.715 14.344,11.887 14.291,12.124 14.137 C 12.406 13.954,12.632 13.684,12.754 13.384 L 12.813 13.240 12.821 10.223 L 12.829 7.206 13.328 7.195 C 13.782 7.185,13.837 7.179,13.941 7.124 C 14.088 7.048,14.248 6.887,14.324 6.741 C 14.403 6.589,14.409 6.222,14.335 6.080 C 14.249 5.916,14.143 5.802,13.984 5.707 L 13.830 5.614 13.202 5.614 C 12.486 5.613,12.388 5.631,12.070 5.818 C 11.743 6.011,11.473 6.329,11.317 6.707 L 11.240 6.893 11.232 9.847 L 11.224 12.800 8.012 12.800 L 4.800 12.800 4.800 9.884 C 4.800 7.107,4.798 6.961,4.750 6.824 C 4.597 6.377,4.326 6.037,3.948 5.814 C 3.691 5.663,3.554 5.634,3.013 5.620 C 2.742 5.613,2.430 5.615,2.320 5.625 M6.179 6.438 C 6.000 6.486,5.845 6.605,5.720 6.789 L 5.613 6.947 5.613 9.173 C 5.613 11.385,5.614 11.401,5.670 11.520 C 5.745 11.681,5.902 11.832,6.080 11.917 C 6.466 12.099,6.924 11.928,7.124 11.526 L 7.187 11.400 7.187 9.173 L 7.187 6.947 7.082 6.791 C 6.945 6.585,6.763 6.465,6.533 6.428 C 6.327 6.395,6.340 6.395,6.179 6.438 M9.379 6.438 C 9.200 6.486,9.045 6.605,8.920 6.789 L 8.813 6.947 8.813 9.173 C 8.813 11.385,8.814 11.401,8.870 11.520 C 8.945 11.681,9.102 11.832,9.280 11.917 C 9.666 12.099,10.124 11.928,10.324 11.526 L 10.387 11.400 10.387 9.173 L 10.387 6.947 10.282 6.791 C 10.145 6.585,9.963 6.465,9.733 6.428 C 9.527 6.395,9.540 6.395,9.379 6.438 " fill="#1A1C1F" stroke="none" fill-rule="evenodd"></path></svg>