<svg xmlns="http://www.w3.org/2000/svg" width="24" height="24" fill="none"><g clip-path="url(#a)"><path fill="#1A1C1F" fill-rule="evenodd" d="M3 8c0-.562.438-1 1-1h1c1.094 0 2 .906 2 2v11h10V9c0-1.094.906-2 2-2h1c.563 0 1 .438 1 1s-.437 1-1 1h-1v11c0 1.094-.906 2-2 2H7c-1.094 0-2-.906-2-2V9H4c-.562 0-1-.437-1-1m0-3c0-.562.438-1 1-1h4V3c0-.562.438-1 1-1h6a1.017 1.017 0 0 1 1 1v1h4c.563 0 1 .438 1 1s-.437 1-1 1H4c-.562 0-1-.437-1-1m6 12v-7c0-.531.469-1 1-1 .563 0 1 .469 1 1v7c0 .531-.437 1-1 1s-1-.469-1-1m4 0v-7c0-.531.469-1 1-1 .563 0 1 .469 1 1v7c0 .531-.437 1-1 1s-1-.469-1-1" clip-rule="evenodd"/></g><defs><clipPath id="a"><path fill="#fff" d="M0 0h24v24H0z"/></clipPath></defs></svg>