<svg width="14" height="14" viewBox="0 0 14 14" fill="none" xmlns="http://www.w3.org/2000/svg"><path d="M5.763 1.421 C 5.483 1.431,5.337 1.445,5.297 1.467 C 5.169 1.538,5.047 1.658,4.981 1.777 C 4.913 1.901,4.912 1.905,4.904 2.347 L 4.895 2.793 3.393 2.805 L 1.890 2.817 1.759 2.896 C 1.625 2.977,1.532 3.077,1.457 3.220 C 1.426 3.280,1.414 3.354,1.414 3.500 C 1.414 3.675,1.422 3.713,1.481 3.822 C 1.560 3.967,1.659 4.060,1.820 4.142 L 1.935 4.200 7.000 4.200 L 12.065 4.200 12.163 4.151 C 12.322 4.071,12.445 3.957,12.518 3.823 C 12.579 3.713,12.586 3.676,12.586 3.500 C 12.586 3.354,12.574 3.280,12.543 3.220 C 12.468 3.077,12.375 2.977,12.241 2.896 L 12.110 2.817 10.608 2.805 L 9.105 2.793 9.095 2.347 C 9.087 2.011,9.076 1.881,9.048 1.817 C 8.995 1.695,8.852 1.545,8.728 1.483 C 8.622 1.429,8.618 1.429,7.397 1.418 C 6.723 1.411,5.988 1.413,5.763 1.421 M2.042 4.922 C 1.939 4.931,1.829 4.951,1.797 4.968 C 1.672 5.035,1.547 5.157,1.482 5.277 C 1.422 5.387,1.414 5.425,1.414 5.600 C 1.414 5.775,1.422 5.813,1.482 5.923 C 1.552 6.051,1.674 6.167,1.820 6.244 C 1.889 6.280,1.972 6.288,2.351 6.296 L 2.800 6.305 2.801 8.805 C 2.802 10.180,2.811 11.387,2.822 11.487 C 2.856 11.812,3.075 12.157,3.374 12.356 C 3.446 12.404,3.604 12.478,3.725 12.521 L 3.945 12.600 6.808 12.600 C 8.445 12.599,9.788 12.590,9.944 12.577 C 10.250 12.551,10.401 12.504,10.608 12.370 C 10.855 12.209,11.053 11.974,11.160 11.711 L 11.212 11.585 11.219 8.945 L 11.225 6.305 11.662 6.296 C 12.028 6.288,12.112 6.280,12.180 6.244 C 12.326 6.167,12.448 6.051,12.518 5.923 C 12.579 5.813,12.586 5.776,12.586 5.600 C 12.586 5.454,12.574 5.380,12.543 5.320 C 12.468 5.176,12.375 5.077,12.236 4.994 L 12.101 4.912 11.551 4.912 C 10.925 4.912,10.840 4.927,10.562 5.091 C 10.275 5.260,10.039 5.538,9.903 5.868 L 9.835 6.032 9.828 8.616 L 9.821 11.200 7.011 11.200 L 4.200 11.200 4.200 8.649 C 4.200 6.218,4.198 6.091,4.156 5.971 C 3.989 5.485,3.637 5.115,3.208 4.975 C 3.097 4.939,2.981 4.927,2.648 4.918 C 2.417 4.912,2.144 4.914,2.042 4.922 M5.406 5.633 C 5.250 5.676,5.114 5.780,5.005 5.941 L 4.912 6.078 4.912 8.027 L 4.912 9.975 4.966 10.085 C 5.088 10.329,5.342 10.487,5.612 10.487 C 5.878 10.486,6.110 10.336,6.234 10.085 L 6.288 9.975 6.294 8.050 L 6.300 6.125 6.222 5.985 C 6.136 5.830,5.966 5.683,5.833 5.648 C 5.676 5.608,5.518 5.602,5.406 5.633 M8.206 5.633 C 8.050 5.676,7.914 5.780,7.805 5.941 L 7.712 6.078 7.712 8.027 L 7.712 9.975 7.766 10.085 C 7.888 10.329,8.142 10.487,8.412 10.487 C 8.678 10.486,8.910 10.336,9.034 10.085 L 9.088 9.975 9.094 8.050 L 9.100 6.125 9.022 5.985 C 8.936 5.830,8.766 5.683,8.633 5.648 C 8.476 5.608,8.318 5.602,8.206 5.633 " fill="#1A1C1F" stroke="none" fill-rule="evenodd"></path></svg>