<svg xmlns="http://www.w3.org/2000/svg" width="28" height="28" fill="none"><g clip-path="url(#a)"><path fill="#1A1C1F" fill-rule="evenodd" d="M3.5 9.625c0-.492.383-.875.875-.875h1.012a2.497 2.497 0 0 1 2.488 2.488v12.387c0 .492.41.875.875.875h10.637c.41 0 .738-.328.738-.738V11.266a2.51 2.51 0 0 1 2.516-2.516h.984c.492 0 .875.383.875.875a.864.864 0 0 1-.875.875h-.984a.78.78 0 0 0-.766.766v12.496a2.497 2.497 0 0 1-2.488 2.488H8.75a2.626 2.626 0 0 1-2.625-2.625V11.238a.735.735 0 0 0-.738-.738H4.375a.864.864 0 0 1-.875-.875m14-7.875c.492 0 .875.383.875.875V5.25h5.25c.492 0 .875.383.875.875a.864.864 0 0 1-.875.875H4.375a.864.864 0 0 1-.875-.875c0-.492.383-.875.875-.875h5.25V2.625c0-.492.41-.875.875-.875zm-.875 1.75h-5.25v1.75h5.25zm-7 18.375V12.25c0-.492.41-.875.875-.875.492 0 .875.383.875.875v9.625a.864.864 0 0 1-.875.875.88.88 0 0 1-.875-.875m3.5 0V12.25c0-.492.383-.875.875-.875s.875.383.875.875v9.625a.864.864 0 0 1-.875.875.864.864 0 0 1-.875-.875m3.5 0V12.25c0-.492.41-.875.875-.875.492 0 .875.383.875.875v9.625a.864.864 0 0 1-.875.875.88.88 0 0 1-.875-.875" clip-rule="evenodd"/></g><defs><clipPath id="a"><path fill="#fff" d="M0 0h28v28H0z"/></clipPath></defs></svg>