<svg xmlns="http://www.w3.org/2000/svg" width="20" height="20" fill="none"><g clip-path="url(#a)"><path fill="#1A1C1F" fill-rule="evenodd" d="M2 8c0-.562.438-1 1-1h1c1.094 0 2 1 2 2v7h8.031V9c0-1 .906-2 1.969-2h1c.563 0 1 .438 1 1s-.437 1-1 1h-.969v7.188c0 1.063-.967 1.812-2 1.812H6c-1.064 0-2-.75-2-1.812V9H3c-.562 0-1-.437-1-1m0-3c0-.562.438-1 1-1h4V3c0-.562.438-1 1-1h4c.25 0 .531.094.719.281A1 1 0 0 1 13 3v1h4c.563 0 1 .438 1 1s-.437 1-1 1H3c-.562 0-1-.437-1-1m5 9V9c0-.562.438-1 1-1s1 .438 1 1v5c0 .531-.437 1-1 1-.25 0-.531-.125-.719-.312A.97.97 0 0 1 7 14m4 0V9c0-.562.438-1 1-1s1 .438 1 1v5c0 .531-.437 1-1 1-.25 0-.531-.125-.719-.312A.97.97 0 0 1 11 14" clip-rule="evenodd"/></g><defs><clipPath id="a"><path fill="#fff" d="M0 0h20v20H0z"/></clipPath></defs></svg>