<svg width="20" height="20" viewBox="0 0 20 20" fill="none" xmlns="http://www.w3.org/2000/svg"><path d="M8.200 2.029 C 7.829 2.043,7.623 2.065,7.567 2.096 C 7.384 2.197,7.210 2.368,7.116 2.538 C 7.019 2.715,7.018 2.721,7.005 3.354 L 6.993 3.990 4.847 4.007 L 2.702 4.024 2.514 4.137 C 2.321 4.253,2.188 4.396,2.082 4.600 C 2.037 4.686,2.021 4.792,2.020 5.000 C 2.020 5.250,2.031 5.304,2.116 5.461 C 2.229 5.667,2.370 5.800,2.600 5.917 L 2.764 6.000 10.004 6.000 L 17.243 6.000 17.393 5.925 C 17.587 5.829,17.807 5.614,17.904 5.429 C 18.004 5.236,18.012 4.779,17.918 4.600 C 17.812 4.396,17.679 4.253,17.486 4.137 L 17.298 4.024 15.153 4.007 L 13.008 3.990 12.993 3.354 C 12.982 2.873,12.965 2.687,12.926 2.595 C 12.850 2.421,12.645 2.207,12.468 2.117 L 12.316 2.040 10.533 2.024 C 9.552 2.015,8.502 2.018,8.200 2.029 M2.900 7.031 C 2.763 7.043,2.612 7.074,2.567 7.098 C 2.389 7.192,2.211 7.367,2.117 7.538 C 2.031 7.696,2.020 7.750,2.020 8.000 C 2.020 8.250,2.031 8.304,2.117 8.462 C 2.217 8.645,2.391 8.810,2.600 8.920 C 2.698 8.971,2.817 8.983,3.358 8.994 L 4.000 9.007 4.001 12.595 C 4.002 14.569,4.016 16.293,4.031 16.428 C 4.084 16.879,4.403 17.374,4.820 17.651 C 4.923 17.719,5.149 17.826,5.322 17.888 L 5.636 18.000 9.726 17.999 C 12.064 17.999,13.983 17.985,14.206 17.967 C 14.643 17.930,14.859 17.863,15.155 17.671 C 15.507 17.442,15.789 17.105,15.943 16.730 L 16.017 16.550 16.026 12.779 L 16.036 9.007 16.660 8.994 C 17.227 8.982,17.296 8.974,17.426 8.906 C 17.610 8.809,17.810 8.609,17.905 8.426 C 18.004 8.236,18.011 7.778,17.918 7.600 C 17.811 7.395,17.678 7.253,17.481 7.134 L 17.289 7.018 16.503 7.018 C 15.607 7.017,15.486 7.038,15.088 7.273 C 14.679 7.514,14.342 7.911,14.146 8.383 L 14.050 8.617 14.040 12.308 L 14.031 16.000 10.015 16.000 L 6.000 16.000 6.000 12.355 C 6.000 8.883,5.997 8.702,5.938 8.529 C 5.699 7.836,5.196 7.308,4.583 7.107 C 4.424 7.054,4.258 7.038,3.767 7.024 C 3.428 7.015,3.038 7.018,2.900 7.031 M7.723 8.048 C 7.500 8.108,7.306 8.256,7.150 8.487 L 7.017 8.683 7.017 11.467 C 7.017 14.231,7.017 14.251,7.087 14.400 C 7.182 14.602,7.377 14.791,7.600 14.896 C 8.083 15.124,8.655 14.910,8.905 14.408 L 8.983 14.250 8.993 11.509 L 9.002 8.768 8.930 8.626 C 8.750 8.274,8.515 8.092,8.167 8.036 C 7.909 7.994,7.925 7.993,7.723 8.048 M11.723 8.048 C 11.500 8.108,11.306 8.256,11.150 8.487 L 11.017 8.683 11.017 11.467 C 11.017 14.231,11.017 14.251,11.087 14.400 C 11.182 14.602,11.377 14.791,11.600 14.896 C 12.083 15.124,12.655 14.910,12.905 14.408 L 12.983 14.250 12.993 11.509 L 13.002 8.768 12.930 8.626 C 12.750 8.274,12.515 8.092,12.167 8.036 C 11.909 7.994,11.925 7.993,11.723 8.048 " fill="#1A1C1F" stroke="none" fill-rule="evenodd"></path></svg>