<svg xmlns="http://www.w3.org/2000/svg" width="12" height="12" fill="none"><g clip-path="url(#a)"><path fill="#1A1C1F" fill-rule="evenodd" d="M1.2 4.8c0-.337.262-.6.6-.6h.6c.656 0 1.2.6 1.2 1.2v4.2h4.819V5.4c0-.6.543-1.2 1.181-1.2h.6c.338 0 .6.263.6.6 0 .338-.263.6-.6.6h-.581v4.313c0 .637-.58 1.087-1.2 1.087H3.6c-.639 0-1.2-.45-1.2-1.088V5.4h-.6a.59.59 0 0 1-.6-.6m0-1.8c0-.337.262-.6.6-.6h2.4v-.6c0-.338.263-.6.6-.6h2.4c.15 0 .319.056.431.169A.6.6 0 0 1 7.8 1.8v.6h2.4c.338 0 .6.263.6.6s-.263.6-.6.6H1.8a.59.59 0 0 1-.6-.6m3 5.4v-3c0-.338.263-.6.6-.6.338 0 .6.263.6.6v3c0 .319-.263.6-.6.6a.65.65 0 0 1-.431-.187A.58.58 0 0 1 4.2 8.4m2.4 0v-3c0-.338.263-.6.6-.6s.6.263.6.6v3c0 .319-.263.6-.6.6a.65.65 0 0 1-.431-.187A.58.58 0 0 1 6.6 8.4" clip-rule="evenodd"/></g><defs><clipPath id="a"><path fill="#fff" d="M0 0h12v12H0z"/></clipPath></defs></svg>