<svg width="32" height="32" viewBox="0 0 32 32" fill="none" xmlns="http://www.w3.org/2000/svg"><path d="M11.460 2.201 C 11.013 2.542,11.016 2.530,10.997 4.379 L 10.980 6.011 7.784 6.039 L 4.588 6.067 4.406 6.205 C 4.193 6.368,4.000 6.735,4.000 6.979 C 4.000 7.327,4.269 7.753,4.597 7.925 C 4.720 7.989,6.413 8.000,16.000 8.000 C 28.413 8.000,27.396 8.029,27.720 7.661 C 28.124 7.200,28.054 6.529,27.565 6.181 C 27.406 6.068,27.369 6.066,24.209 6.039 L 21.013 6.011 21.013 4.389 C 21.013 2.604,21.017 2.629,20.671 2.296 C 20.516 2.147,20.422 2.105,20.173 2.074 C 20.005 2.053,18.027 2.034,15.777 2.031 L 11.688 2.027 11.460 2.201 M18.987 5.013 L 18.987 6.027 16.000 6.027 L 13.013 6.027 13.013 5.013 L 13.013 4.000 16.000 4.000 L 18.987 4.000 18.987 5.013 M4.708 10.078 C 4.203 10.198,3.887 10.777,4.053 11.279 C 4.124 11.493,4.376 11.809,4.552 11.903 C 4.613 11.936,5.048 11.981,5.518 12.004 C 5.988 12.026,6.437 12.069,6.515 12.099 C 6.593 12.129,6.725 12.243,6.808 12.353 L 6.960 12.552 6.992 19.996 C 7.014 25.360,7.040 27.515,7.085 27.707 C 7.311 28.680,8.179 29.566,9.227 29.893 C 9.495 29.977,10.072 29.987,16.027 30.011 L 22.533 30.038 22.976 29.875 C 23.896 29.536,24.543 28.901,24.865 28.018 C 24.979 27.707,24.979 27.688,25.012 20.131 L 25.044 12.555 25.170 12.378 C 25.348 12.128,25.571 12.055,26.255 12.023 C 27.322 11.974,27.400 11.959,27.628 11.752 C 28.128 11.301,28.094 10.558,27.556 10.174 C 27.394 10.058,27.343 10.053,26.320 10.053 C 25.110 10.053,24.946 10.088,24.367 10.461 C 23.730 10.873,23.305 11.422,23.111 12.084 C 23.025 12.375,23.016 12.987,22.989 19.924 L 22.960 27.448 22.808 27.647 C 22.725 27.757,22.593 27.874,22.515 27.908 C 22.306 27.998,9.864 28.034,9.649 27.945 C 9.565 27.910,9.403 27.781,9.290 27.658 L 9.084 27.435 9.049 26.024 C 9.029 25.248,9.012 22.165,9.009 19.173 C 9.007 16.181,8.988 13.361,8.966 12.907 C 8.929 12.095,8.924 12.072,8.727 11.664 C 8.576 11.350,8.429 11.151,8.128 10.853 C 7.639 10.369,7.240 10.161,6.649 10.082 C 6.176 10.019,4.967 10.017,4.708 10.078 M11.574 13.130 C 11.436 13.201,11.267 13.351,11.174 13.485 L 11.013 13.716 11.013 19.431 C 11.013 22.575,11.032 25.212,11.054 25.292 C 11.111 25.494,11.404 25.815,11.611 25.901 C 11.832 25.994,12.169 25.993,12.391 25.901 C 12.486 25.861,12.666 25.713,12.789 25.573 L 13.013 25.318 13.013 19.545 L 13.013 13.772 12.840 13.515 C 12.527 13.050,12.024 12.897,11.574 13.130 M15.689 13.064 C 15.489 13.114,15.234 13.335,15.102 13.573 C 15.021 13.719,15.012 14.245,14.998 19.524 L 14.984 25.315 15.209 25.571 C 15.465 25.862,15.685 25.973,16.000 25.973 C 16.315 25.973,16.535 25.862,16.789 25.573 L 17.013 25.318 17.013 19.545 L 17.013 13.772 16.840 13.515 C 16.745 13.373,16.595 13.216,16.507 13.166 C 16.309 13.054,15.925 13.006,15.689 13.064 M19.574 13.130 C 19.436 13.201,19.267 13.351,19.174 13.485 L 19.013 13.716 19.013 19.431 C 19.013 22.575,19.032 25.212,19.054 25.292 C 19.111 25.494,19.404 25.815,19.611 25.901 C 19.832 25.994,20.169 25.993,20.391 25.901 C 20.486 25.861,20.666 25.713,20.789 25.573 L 21.013 25.318 21.013 19.545 L 21.013 13.772 20.840 13.515 C 20.527 13.050,20.024 12.897,19.574 13.130 " fill="#1A1C1F" stroke="none" fill-rule="evenodd"></path></svg>