<svg xmlns="http://www.w3.org/2000/svg" width="32" height="32" fill="none"><g clip-path="url(#a)"><path fill="#1A1C1F" fill-rule="evenodd" d="M16 4c6.627 0 12 5.373 12 12 0 2.954-1.067 5.658-2.837 7.749l.03.03-1.415 1.413-.03-.029A11.95 11.95 0 0 1 16 28C9.373 28 4 22.627 4 16c0-2.954 1.067-5.658 2.837-7.749l-.03-.03 1.415-1.413.03.029A11.95 11.95 0 0 1 16 4M6 16c0 5.523 4.477 10 10 10a9.96 9.96 0 0 0 6.329-2.257L8.257 9.67A9.96 9.96 0 0 0 6 16M16 6a9.96 9.96 0 0 0-6.329 2.257L23.743 22.33A9.96 9.96 0 0 0 26 16c0-5.523-4.477-10-10-10" clip-rule="evenodd"/></g><defs><clipPath id="a"><path fill="#fff" d="M0 0h32v32H0z"/></clipPath></defs></svg>