<svg xmlns="http://www.w3.org/2000/svg" width="28" height="28" fill="none"><g clip-path="url(#a)"><path fill="#1A1C1F" fill-rule="evenodd" d="M14 3.5c5.799 0 10.5 4.701 10.5 10.5 0 2.584-.934 4.95-2.482 6.78l.025.026-1.237 1.237-.026-.025A10.46 10.46 0 0 1 14 24.5C8.201 24.5 3.5 19.799 3.5 14c0-2.584.934-4.95 2.482-6.78l-.025-.026 1.237-1.237.026.025A10.46 10.46 0 0 1 14 3.5M5.25 14a8.75 8.75 0 0 0 14.287 6.775L7.225 8.463A8.7 8.7 0 0 0 5.25 14M14 5.25c-2.1 0-4.029.74-5.537 1.975l12.312 12.312A8.75 8.75 0 0 0 14 5.25" clip-rule="evenodd"/></g><defs><clipPath id="a"><path fill="#fff" d="M0 0h28v28H0z"/></clipPath></defs></svg>