<svg width="16" height="16" viewBox="0 0 16 16" fill="none" xmlns="http://www.w3.org/2000/svg"><path d="M7.509 2.429 C 6.363 2.524,5.177 3.034,4.307 3.807 C 3.308 4.694,2.686 5.826,2.463 7.163 C 2.395 7.568,2.395 8.432,2.463 8.837 C 2.739 10.489,3.669 11.892,5.068 12.765 C 5.648 13.127,6.428 13.415,7.163 13.537 C 7.568 13.605,8.432 13.605,8.837 13.537 C 9.933 13.354,10.925 12.886,11.718 12.176 C 12.688 11.308,13.306 10.175,13.538 8.839 C 13.604 8.457,13.604 7.558,13.538 7.163 C 13.414 6.427,13.127 5.647,12.765 5.068 C 11.815 3.545,10.221 2.578,8.419 2.428 C 8.041 2.397,7.899 2.397,7.509 2.429 M8.373 4.039 C 9.048 4.072,9.812 4.368,10.435 4.837 C 10.704 5.040,11.107 5.465,11.286 5.736 C 11.912 6.682,12.125 7.742,11.906 8.816 C 11.826 9.209,11.609 9.764,11.414 10.075 L 11.359 10.163 11.273 10.103 C 11.163 10.027,6.675 5.555,6.196 5.045 C 6.000 4.836,5.845 4.653,5.854 4.639 C 5.879 4.598,6.185 4.438,6.462 4.320 C 6.928 4.122,7.601 3.988,7.987 4.017 C 8.045 4.021,8.219 4.031,8.373 4.039 M7.188 8.327 C 9.770 10.914,10.160 11.312,10.160 11.359 C 10.160 11.397,9.498 11.717,9.253 11.797 C 8.820 11.940,8.529 11.984,8.013 11.984 C 7.483 11.985,7.250 11.951,6.801 11.809 C 6.179 11.612,5.662 11.293,5.187 10.815 C 4.838 10.465,4.641 10.194,4.430 9.773 C 4.141 9.199,4.027 8.700,4.027 8.009 C 4.027 7.394,4.092 7.016,4.281 6.545 C 4.377 6.305,4.635 5.813,4.664 5.813 C 4.673 5.813,5.809 6.944,7.188 8.327 " fill="#1A1C1F" stroke="none" fill-rule="evenodd"></path></svg>