<svg width="28" height="28" viewBox="0 0 28 28" fill="none" xmlns="http://www.w3.org/2000/svg"><path d="M12.763 3.576 C 10.752 3.870,9.232 4.486,7.653 5.645 C 5.584 7.164,4.111 9.603,3.635 12.301 C 3.491 13.112,3.478 14.731,3.608 15.517 C 4.050 18.180,5.287 20.372,7.303 22.065 C 9.124 23.594,11.617 24.500,14.000 24.500 C 17.194 24.500,20.459 22.897,22.305 20.421 C 23.049 19.424,23.550 18.473,23.942 17.313 C 24.683 15.116,24.683 12.888,23.942 10.685 C 23.411 9.111,22.655 7.868,21.517 6.704 C 20.639 5.805,19.834 5.214,18.726 4.653 C 17.971 4.271,17.419 4.055,16.747 3.878 C 15.764 3.618,15.473 3.584,14.140 3.569 C 13.460 3.562,12.840 3.565,12.763 3.576 M16.100 5.516 C 17.741 5.945,19.133 6.754,20.280 7.945 C 21.225 8.926,21.884 10.018,22.300 11.293 C 22.649 12.362,22.694 12.725,22.669 14.266 C 22.650 15.446,22.647 15.482,22.498 16.048 C 22.301 16.795,22.092 17.339,21.734 18.031 C 21.450 18.581,20.881 19.461,20.790 19.491 C 20.764 19.500,17.982 16.744,14.607 13.368 L 8.470 7.228 8.610 7.112 C 9.138 6.675,10.475 5.962,11.249 5.705 C 11.494 5.624,11.945 5.504,12.252 5.440 C 12.786 5.327,12.867 5.323,14.140 5.336 L 15.470 5.350 16.100 5.516 M13.627 14.863 L 19.530 20.772 19.390 20.888 C 18.845 21.341,17.732 21.950,16.940 22.227 C 15.791 22.629,15.012 22.747,13.743 22.712 C 12.716 22.684,12.096 22.574,11.175 22.258 C 9.774 21.777,8.737 21.113,7.693 20.029 C 7.096 19.408,6.674 18.819,6.280 18.057 C 5.902 17.327,5.697 16.791,5.498 16.023 L 5.343 15.423 5.343 14.000 L 5.343 12.577 5.499 11.970 C 5.814 10.743,6.317 9.680,7.038 8.717 L 7.202 8.498 7.463 8.726 C 7.606 8.851,10.380 11.613,13.627 14.863 " fill="#1A1C1F" stroke="none" fill-rule="evenodd"></path></svg>