<svg width="24" height="24" viewBox="0 0 24 24" fill="none" xmlns="http://www.w3.org/2000/svg"><path d="M11.360 3.029 C 10.961 3.055,10.274 3.173,9.781 3.299 C 6.758 4.074,4.410 6.278,3.447 9.244 C 2.855 11.066,2.855 12.931,3.446 14.756 C 3.877 16.085,4.562 17.227,5.520 18.215 C 6.326 19.047,7.064 19.591,8.015 20.058 C 10.179 21.121,12.562 21.282,14.845 20.522 C 16.481 19.977,17.923 18.973,19.012 17.620 C 20.985 15.170,21.530 11.839,20.439 8.898 C 19.891 7.420,18.962 6.105,17.753 5.094 C 16.454 4.009,14.613 3.225,13.028 3.081 C 12.575 3.040,11.639 3.011,11.360 3.029 M12.606 5.042 C 13.981 5.181,15.148 5.633,16.233 6.446 C 17.554 7.437,18.507 8.955,18.841 10.600 C 19.067 11.718,18.998 13.036,18.655 14.131 C 18.472 14.717,17.746 16.120,17.627 16.120 C 17.568 16.120,15.122 13.708,11.400 9.981 L 7.820 6.396 7.920 6.318 C 7.975 6.275,8.201 6.133,8.423 6.002 C 9.718 5.239,11.196 4.899,12.606 5.042 M11.500 12.919 L 16.180 17.603 16.080 17.683 C 15.909 17.819,15.251 18.200,14.929 18.349 C 12.425 19.506,9.474 19.074,7.380 17.246 C 5.768 15.837,4.861 13.615,5.035 11.496 C 5.138 10.233,5.519 9.134,6.230 8.050 L 6.368 7.839 6.594 8.037 C 6.718 8.146,8.926 10.343,11.500 12.919 " fill="#1A1C1F" stroke="none" fill-rule="evenodd"></path></svg>