<svg width="12" height="12" viewBox="0 0 12 12" fill="none" xmlns="http://www.w3.org/2000/svg"><path d="M5.620 1.821 C 4.182 1.959,2.892 2.837,2.254 4.112 C 2.065 4.492,1.919 4.943,1.847 5.372 C 1.796 5.676,1.796 6.324,1.847 6.628 C 2.155 8.470,3.530 9.845,5.372 10.153 C 5.676 10.204,6.324 10.204,6.628 10.153 C 8.469 9.845,9.845 8.469,10.153 6.628 C 10.204 6.324,10.204 5.676,10.153 5.372 C 10.000 4.457,9.599 3.672,8.962 3.040 C 8.394 2.476,7.773 2.125,7.000 1.930 C 6.594 1.828,6.020 1.783,5.620 1.821 M6.186 3.020 C 6.633 3.049,6.949 3.134,7.343 3.331 C 7.757 3.539,8.120 3.843,8.402 4.219 C 8.752 4.684,8.943 5.211,8.991 5.840 C 9.013 6.134,8.946 6.626,8.838 6.960 C 8.789 7.111,8.569 7.567,8.530 7.600 C 8.509 7.617,8.445 7.567,8.237 7.373 C 7.884 7.044,4.480 3.628,4.423 3.546 L 4.378 3.482 4.454 3.433 C 4.771 3.233,5.307 3.056,5.699 3.021 C 5.793 3.012,5.875 3.005,5.880 3.003 C 5.885 3.002,6.023 3.009,6.186 3.020 M5.236 6.085 C 6.926 7.773,7.620 8.481,7.620 8.518 C 7.620 8.551,7.139 8.777,6.920 8.847 C 6.582 8.956,6.358 8.990,5.980 8.989 C 5.601 8.987,5.360 8.947,5.018 8.828 C 4.569 8.672,4.235 8.460,3.890 8.112 C 3.629 7.849,3.483 7.647,3.323 7.330 C 3.105 6.897,3.020 6.526,3.020 6.000 C 3.020 5.545,3.071 5.258,3.218 4.890 C 3.283 4.727,3.477 4.360,3.498 4.360 C 3.504 4.360,4.287 5.136,5.236 6.085 " fill="#1A1C1F" stroke="none" fill-rule="evenodd"></path></svg>