<svg width="32" height="32" viewBox="0 0 32 32" fill="none" xmlns="http://www.w3.org/2000/svg"><path d="M14.279 4.136 C 11.733 4.533,9.307 5.731,7.556 7.457 C 5.839 9.150,4.594 11.565,4.154 14.058 C 3.990 14.985,3.975 16.835,4.124 17.733 C 4.628 20.774,6.044 23.284,8.347 25.217 C 10.425 26.963,13.279 28.000,16.000 28.000 C 19.632 28.000,23.335 26.193,25.449 23.390 C 27.852 20.202,28.585 16.398,27.514 12.664 C 26.734 9.944,24.972 7.563,22.560 5.973 C 21.117 5.022,19.150 4.302,17.466 4.109 C 16.789 4.032,14.846 4.048,14.279 4.136 M17.261 6.108 C 17.859 6.143,18.986 6.437,19.791 6.768 C 21.858 7.618,23.637 9.198,24.711 11.135 C 25.092 11.821,25.427 12.637,25.626 13.361 C 25.907 14.385,25.932 14.646,25.907 16.240 C 25.885 17.643,25.880 17.697,25.717 18.329 C 25.518 19.104,25.263 19.772,24.872 20.541 C 24.592 21.091,23.895 22.199,23.787 22.267 C 23.735 22.298,9.707 8.345,9.707 8.262 C 9.707 8.154,10.672 7.529,11.413 7.156 C 12.611 6.554,13.798 6.186,14.880 6.081 C 15.268 6.043,16.376 6.056,17.261 6.108 M15.520 16.933 L 22.320 23.739 22.160 23.872 C 21.608 24.331,20.519 24.951,19.681 25.283 C 18.685 25.677,17.686 25.900,16.600 25.970 C 14.353 26.116,12.038 25.448,10.164 24.114 C 9.616 23.723,8.608 22.756,8.186 22.214 C 7.278 21.047,6.680 19.828,6.290 18.346 C 6.116 17.687,6.114 17.664,6.092 16.240 C 6.068 14.647,6.093 14.385,6.374 13.361 C 6.682 12.237,7.299 10.964,7.983 10.042 L 8.229 9.710 8.474 9.918 C 8.609 10.033,11.780 13.189,15.520 16.933 " fill="#1A1C1F" stroke="none" fill-rule="evenodd"></path></svg>