<svg xmlns="http://www.w3.org/2000/svg" width="32" height="32" fill="none"><path fill="#1A1C1F" fill-rule="evenodd" d="M14.88 4.054c-2.336.245-4.566 1.131-6.25 2.486-.197.157-.377.287-.401.287-.055 0-1.402 1.347-1.402 1.401 0 .022-.113.178-.25.346-1.029 1.262-1.942 3.196-2.306 4.882a12.01 12.01 0 0 0 6.476 13.322 11.93 11.93 0 0 0 10.506 0c.769-.376 1.635-.917 2.173-1.355.168-.137.325-.25.347-.25.054 0 1.4-1.348 1.4-1.401 0-.022.113-.178.25-.346.438-.538.979-1.404 1.355-2.173a11.97 11.97 0 0 0-1.427-12.761 12.07 12.07 0 0 0-7.591-4.357c-.676-.102-2.254-.146-2.88-.081m3.013 2.13c4.045.811 7.109 3.883 7.929 7.949.109.538.124.768.124 1.867s-.015 1.329-.124 1.867a10 10 0 0 1-.892 2.586c-.353.712-1.039 1.779-1.173 1.824-.028.009-3.206-3.141-7.064-7L9.68 8.261l.16-.133c1.034-.86 2.804-1.663 4.267-1.936.836-.155.845-.156 2.08-.14.899.012 1.235.038 1.706.132m-2.586 10.539 7.013 7.016-.16.133c-.373.31-1.163.804-1.751 1.094-1.578.778-3.388 1.135-5.097 1.006-4.567-.347-8.223-3.591-9.134-8.105-.109-.538-.124-.768-.124-1.867s.015-1.329.124-1.867a10.2 10.2 0 0 1 1.78-4.066c.146-.198.281-.36.3-.36.02 0 3.191 3.157 7.049 7.016"/></svg>