<svg width="14" height="14" viewBox="0 0 14 14" fill="none" xmlns="http://www.w3.org/2000/svg"><path d="M6.570 2.124 C 5.714 2.200,4.844 2.528,4.108 3.052 C 3.842 3.241,3.305 3.766,3.105 4.032 C 2.618 4.681,2.293 5.445,2.155 6.268 C 2.097 6.614,2.097 7.400,2.155 7.734 C 2.323 8.705,2.726 9.561,3.332 10.233 C 4.131 11.119,5.096 11.649,6.268 11.845 C 6.622 11.904,7.378 11.904,7.732 11.845 C 9.686 11.519,11.208 10.155,11.725 8.270 C 11.855 7.797,11.888 7.539,11.888 7.000 C 11.888 6.461,11.855 6.203,11.725 5.730 C 11.487 4.863,11.087 4.174,10.455 3.547 C 9.794 2.890,9.069 2.479,8.167 2.252 C 7.698 2.134,7.045 2.082,6.570 2.124 M7.327 3.534 C 8.035 3.569,8.836 3.933,9.411 4.479 C 10.054 5.091,10.418 5.879,10.489 6.813 C 10.516 7.157,10.436 7.734,10.310 8.120 C 10.258 8.279,10.070 8.683,9.987 8.815 L 9.939 8.893 9.864 8.840 C 9.768 8.774,5.840 4.861,5.422 4.415 C 5.250 4.231,5.115 4.071,5.122 4.059 C 5.144 4.023,5.412 3.883,5.654 3.780 C 6.062 3.607,6.651 3.490,6.988 3.515 C 7.040 3.519,7.192 3.527,7.327 3.534 M6.133 7.123 C 8.113 9.101,8.890 9.894,8.890 9.938 C 8.890 9.976,8.329 10.240,8.073 10.322 C 7.679 10.449,7.418 10.489,6.977 10.487 C 6.534 10.485,6.253 10.439,5.855 10.300 C 5.331 10.117,4.941 9.870,4.538 9.464 C 4.227 9.150,4.056 8.912,3.864 8.526 C 3.622 8.039,3.548 7.733,3.530 7.147 C 3.511 6.529,3.566 6.175,3.754 5.705 C 3.831 5.514,4.056 5.087,4.081 5.087 C 4.088 5.087,5.012 6.003,6.133 7.123 " fill="#1A1C1F" stroke="none" fill-rule="evenodd"></path></svg>