<svg width="20" height="20" viewBox="0 0 20 20" fill="none" xmlns="http://www.w3.org/2000/svg"><path d="M9.386 3.034 C 8.165 3.144,6.918 3.613,5.869 4.360 C 5.492 4.628,4.722 5.379,4.444 5.750 C 3.738 6.692,3.275 7.777,3.078 8.954 C 2.994 9.460,2.994 10.540,3.078 11.046 C 3.305 12.406,3.895 13.659,4.759 14.618 C 5.891 15.874,7.199 16.600,8.883 16.908 C 9.460 17.013,10.540 17.013,11.117 16.908 C 12.801 16.600,14.109 15.874,15.241 14.618 C 16.095 13.670,16.658 12.489,16.908 11.117 C 17.006 10.580,17.013 9.502,16.921 8.954 C 16.769 8.038,16.409 7.061,15.957 6.335 C 15.530 5.650,14.755 4.806,14.168 4.385 C 13.186 3.682,12.136 3.251,11.000 3.086 C 10.550 3.020,9.807 2.996,9.386 3.034 M11.202 5.158 C 14.302 5.967,15.861 9.308,14.480 12.183 C 14.400 12.348,14.305 12.533,14.267 12.593 L 14.199 12.704 14.091 12.629 C 13.954 12.534,8.343 6.944,7.745 6.307 C 7.499 6.044,7.306 5.817,7.316 5.801 C 7.343 5.757,7.783 5.523,8.098 5.385 C 8.331 5.284,8.883 5.127,9.267 5.054 C 9.313 5.046,9.680 5.043,10.083 5.048 C 10.775 5.057,10.839 5.064,11.202 5.158 M8.727 10.142 C 11.546 12.957,12.700 14.135,12.700 14.198 C 12.700 14.246,11.850 14.654,11.552 14.750 C 10.977 14.934,10.664 14.981,10.000 14.980 C 9.301 14.979,8.974 14.926,8.362 14.714 C 7.639 14.465,7.059 14.095,6.483 13.518 C 6.048 13.082,5.807 12.749,5.538 12.217 C 5.176 11.499,5.034 10.876,5.034 10.011 C 5.033 9.242,5.121 8.736,5.355 8.167 C 5.475 7.875,5.795 7.267,5.830 7.267 C 5.840 7.267,7.144 8.560,8.727 10.142 " fill="#1A1C1F" stroke="none" fill-rule="evenodd"></path></svg>