<svg width="28" height="28" viewBox="0 0 28 28" fill="none" xmlns="http://www.w3.org/2000/svg"><path d="M22.415 7.044 C 22.359 7.068,19.655 9.738,16.407 12.976 L 10.501 18.865 8.068 16.467 L 5.634 14.070 5.324 14.073 C 5.086 14.074,4.966 14.101,4.807 14.189 C 4.430 14.397,4.282 14.859,4.466 15.253 C 4.545 15.424,8.935 19.850,9.770 20.602 L 10.183 20.974 10.450 20.975 C 10.672 20.976,10.753 20.953,10.924 20.837 C 11.148 20.685,23.107 8.752,23.401 8.387 C 23.737 7.969,23.648 7.454,23.191 7.174 C 22.961 7.034,22.586 6.971,22.415 7.044 " fill="#1A1C1F" stroke="none" fill-rule="evenodd"></path></svg>