<svg xmlns="http://www.w3.org/2000/svg" width="24" height="24" fill="none"><g clip-path="url(#a)"><path fill="#1A1C1F" fill-rule="evenodd" d="m8.326 17.706-4.04-4.04a.93.93 0 0 1-.294-.686c0-.564.465-1.005 1.004-1.005.27 0 .49.098.686.294l3.355 3.306 9.281-9.306c.196-.171.466-.269.686-.269.539 0 1.004.44 1.004.98 0 .269-.098.514-.245.71L9.747 17.706a.98.98 0 0 1-.71.294.98.98 0 0 1-.711-.294" clip-rule="evenodd"/></g><defs><clipPath id="a"><path fill="#fff" d="M0 0h24v24H0z"/></clipPath></defs></svg>