<svg width="20" height="20" viewBox="0 0 20 20" fill="none" xmlns="http://www.w3.org/2000/svg"><path d="M14.691 5.545 C 14.623 5.571,14.480 5.665,14.375 5.754 C 14.269 5.843,12.788 7.306,11.083 9.005 L 7.983 12.095 6.833 10.953 C 6.186 10.310,5.597 9.754,5.486 9.680 C 5.297 9.555,5.278 9.550,5.019 9.551 C 4.697 9.552,4.539 9.621,4.300 9.867 C 4.074 10.099,4.016 10.234,4.018 10.533 C 4.019 10.865,4.063 10.948,4.499 11.425 C 5.078 12.058,7.266 14.206,7.479 14.350 C 7.662 14.475,7.693 14.484,7.949 14.495 C 8.276 14.509,8.330 14.486,8.675 14.193 C 8.989 13.927,12.905 10.028,14.558 8.336 C 15.506 7.366,15.860 6.982,15.911 6.869 C 16.009 6.653,16.005 6.275,15.902 6.060 C 15.815 5.878,15.582 5.650,15.408 5.578 C 15.235 5.505,14.845 5.488,14.691 5.545 " fill="#1A1C1F" stroke="none" fill-rule="evenodd"></path></svg>