<svg width="16" height="16" viewBox="0 0 16 16" fill="none" xmlns="http://www.w3.org/2000/svg"><path d="M11.809 4.424 C 11.755 4.435,11.678 4.466,11.637 4.493 C 11.508 4.577,10.342 5.720,8.334 7.730 L 6.389 9.678 5.468 8.763 C 4.950 8.249,4.478 7.803,4.389 7.744 C 4.238 7.644,4.222 7.640,4.016 7.641 C 3.757 7.642,3.631 7.697,3.440 7.894 C 3.259 8.079,3.213 8.187,3.214 8.427 C 3.215 8.692,3.251 8.758,3.599 9.140 C 4.063 9.646,5.813 11.365,5.983 11.480 C 6.129 11.580,6.154 11.587,6.360 11.596 C 6.621 11.607,6.664 11.589,6.940 11.354 C 7.191 11.141,10.324 8.022,11.646 6.669 C 12.405 5.893,12.688 5.586,12.729 5.495 C 12.807 5.323,12.804 5.020,12.722 4.848 C 12.655 4.707,12.467 4.521,12.338 4.467 C 12.229 4.422,11.935 4.398,11.809 4.424 " fill="#1A1C1F" stroke="none" fill-rule="evenodd"></path></svg>