<svg width="24" height="24" viewBox="0 0 24 24" fill="none" xmlns="http://www.w3.org/2000/svg"><path d="M18.690 6.073 C 18.413 6.172,18.460 6.126,13.360 11.245 C 11.017 13.597,9.077 15.521,9.049 15.521 C 9.021 15.520,8.240 14.782,7.313 13.881 C 6.385 12.979,5.557 12.193,5.472 12.135 C 5.162 11.920,4.656 11.970,4.340 12.248 C 4.107 12.454,4.042 12.581,4.013 12.897 C 3.971 13.346,3.931 13.298,6.317 15.684 C 7.496 16.863,8.523 17.861,8.600 17.902 C 8.794 18.004,9.244 18.003,9.457 17.900 C 9.559 17.851,10.996 16.448,13.593 13.862 C 17.830 9.643,19.797 7.639,19.902 7.436 C 20.000 7.246,20.021 6.919,19.948 6.705 C 19.860 6.448,19.713 6.271,19.482 6.145 C 19.217 6.001,18.958 5.977,18.690 6.073 " fill="#1A1C1F" stroke="none" fill-rule="evenodd"></path></svg>