<svg width="14" height="14" viewBox="0 0 14 14" fill="none" xmlns="http://www.w3.org/2000/svg"><path d="M10.313 3.871 C 10.268 3.882,10.205 3.901,10.173 3.915 C 10.141 3.929,9.097 4.959,7.852 6.205 L 5.589 8.469 4.807 7.691 C 3.993 6.881,3.838 6.743,3.695 6.696 C 3.576 6.656,3.345 6.679,3.221 6.743 C 3.097 6.806,2.917 6.987,2.856 7.109 C 2.796 7.230,2.795 7.513,2.856 7.635 C 2.879 7.683,3.011 7.846,3.149 7.997 C 3.555 8.440,5.086 9.944,5.235 10.045 C 5.363 10.132,5.385 10.139,5.565 10.146 C 5.793 10.156,5.831 10.140,6.073 9.935 C 6.292 9.748,8.982 7.070,10.167 5.859 C 10.850 5.160,11.102 4.888,11.138 4.809 C 11.210 4.648,11.204 4.390,11.124 4.234 C 11.056 4.101,10.908 3.955,10.791 3.906 C 10.694 3.866,10.423 3.846,10.313 3.871 " fill="#1A1C1F" stroke="none" fill-rule="evenodd"></path></svg>