<svg width="12" height="12" viewBox="0 0 12 12" fill="none" xmlns="http://www.w3.org/2000/svg"><path d="M8.840 3.318 C 8.802 3.327,8.748 3.344,8.720 3.356 C 8.693 3.367,7.797 4.250,6.730 5.318 L 4.791 7.259 4.120 6.593 C 3.422 5.898,3.289 5.779,3.167 5.739 C 3.065 5.706,2.867 5.725,2.761 5.779 C 2.654 5.834,2.500 5.988,2.448 6.093 C 2.396 6.197,2.396 6.440,2.448 6.545 C 2.468 6.586,2.581 6.725,2.699 6.855 C 3.047 7.235,4.360 8.523,4.487 8.610 C 4.597 8.685,4.616 8.690,4.770 8.697 C 4.966 8.705,4.998 8.692,5.205 8.516 C 5.393 8.356,7.787 5.973,8.755 4.981 C 9.307 4.416,9.516 4.189,9.547 4.121 C 9.606 3.991,9.604 3.761,9.543 3.635 C 9.491 3.530,9.349 3.390,9.250 3.349 C 9.167 3.314,8.934 3.297,8.840 3.318 " fill="#1A1C1F" stroke="none" fill-rule="evenodd"></path></svg>