<svg xmlns="http://www.w3.org/2000/svg" width="20" height="20" fill="none"><g clip-path="url(#a)"><path fill="#1A1C1F" fill-rule="evenodd" d="M4.978 7v9h6c.5 0 .997.433 1 1s-.353 1.001-1 1h-6.9a1.11 1.11 0 0 1-1.1-1.1V7c0-.614.406-.998 1-1s1 .5 1 1m10.821-5c.63 0 1.223.576 1.223 1.2v9.599c0 .618-.567 1.2-1.223 1.2H8.244c-.63 0-1.222-.586-1.222-1.2v-9.6C7.022 2.582 7.615 2 8.244 2zM8.978 4h6v8h-6z" clip-rule="evenodd"/></g><defs><clipPath id="a"><path fill="#fff" d="M0 0h20v20H0z"/></clipPath></defs></svg>