<svg xmlns="http://www.w3.org/2000/svg" width="16" height="16" fill="none"><g clip-path="url(#a)"><path fill="#1A1C1F" fill-rule="evenodd" d="M3.983 5.6v7.2h4.8c.4 0 .797.347.8.8.002.453-.283.8-.8.8h-5.52a.886.886 0 0 1-.88-.88V5.6c0-.491.325-.798.8-.8s.8.4.8.8m8.657-4c.503 0 .977.46.977.96v7.679c0 .495-.453.96-.978.96H6.597c-.505 0-.979-.468-.979-.96v-7.68c0-.494.476-.959.979-.959zM7.182 3.2h4.8v6.4h-4.8z" clip-rule="evenodd"/></g><defs><clipPath id="a"><path fill="#fff" d="M0 0h16v16H0z"/></clipPath></defs></svg>