<svg width="28" height="28" viewBox="0 0 28 28" fill="none" xmlns="http://www.w3.org/2000/svg"><path d="M13.067 2.657 C 12.161 2.683,12.155 2.684,11.836 2.835 C 11.609 2.943,11.419 3.085,11.179 3.325 C 10.751 3.756,10.595 4.072,10.539 4.623 C 10.517 4.842,10.504 7.835,10.511 11.273 L 10.523 17.523 10.691 17.873 C 10.981 18.478,11.455 18.908,12.087 19.139 L 12.390 19.250 17.500 19.250 L 22.610 19.250 22.913 19.139 C 23.511 18.920,24.026 18.468,24.291 17.930 C 24.392 17.725,24.431 17.561,24.459 17.220 C 24.511 16.585,24.506 5.256,24.453 4.670 C 24.420 4.299,24.379 4.120,24.284 3.923 C 24.108 3.560,23.584 3.054,23.169 2.848 L 22.843 2.687 21.817 2.654 C 20.632 2.616,14.416 2.619,13.067 2.657 M22.601 4.518 L 22.727 4.648 22.727 10.943 L 22.727 17.238 22.601 17.369 L 22.476 17.500 17.500 17.500 L 12.524 17.500 12.399 17.369 L 12.273 17.238 12.273 10.943 L 12.273 4.648 12.399 4.518 L 12.524 4.387 17.500 4.387 L 22.476 4.387 22.601 4.518 M5.272 8.813 C 4.736 8.895,3.996 9.470,3.729 10.012 C 3.610 10.253,3.577 10.394,3.544 10.788 C 3.488 11.459,3.490 22.933,3.545 23.417 C 3.603 23.923,3.792 24.311,4.163 24.685 C 4.558 25.084,5.005 25.297,5.543 25.344 C 6.070 25.391,14.925 25.391,15.450 25.345 C 15.996 25.297,16.375 25.117,16.805 24.701 C 17.375 24.152,17.499 23.756,17.500 22.491 C 17.500 21.803,17.494 21.752,17.379 21.522 C 17.091 20.944,16.271 20.857,15.935 21.369 C 15.771 21.618,15.729 21.881,15.728 22.654 C 15.727 23.347,15.726 23.352,15.601 23.482 L 15.476 23.613 10.500 23.613 L 5.524 23.613 5.399 23.482 L 5.273 23.352 5.273 17.057 L 5.273 10.762 5.399 10.631 L 5.524 10.500 6.680 10.500 C 7.324 10.500,7.938 10.478,8.068 10.450 C 8.647 10.326,8.922 9.590,8.565 9.122 C 8.325 8.807,8.293 8.800,6.813 8.790 C 6.082 8.785,5.388 8.796,5.272 8.813 " fill="#1A1C1F" stroke="none" fill-rule="evenodd"></path></svg>