<svg width="32" height="32" viewBox="0 0 32 32" fill="none" xmlns="http://www.w3.org/2000/svg"><path d="M15.040 3.037 L 13.893 3.067 13.527 3.240 C 13.267 3.363,13.050 3.525,12.776 3.800 C 12.286 4.292,12.108 4.654,12.045 5.283 C 12.020 5.534,12.005 8.954,12.013 12.883 L 12.027 20.027 12.219 20.427 C 12.542 21.100,13.103 21.617,13.800 21.883 L 14.107 22.000 19.973 22.000 L 25.840 22.000 26.187 21.873 C 26.908 21.609,27.450 21.117,27.781 20.427 L 27.973 20.027 27.989 13.040 C 28.007 5.440,27.994 4.981,27.752 4.484 C 27.534 4.035,26.983 3.510,26.472 3.267 L 26.053 3.067 25.067 3.031 C 23.909 2.990,16.703 2.994,15.040 3.037 M25.830 5.163 L 25.973 5.313 25.973 12.507 L 25.973 19.701 25.830 19.850 L 25.687 20.000 20.000 20.000 L 14.313 20.000 14.170 19.850 L 14.027 19.701 14.027 12.507 L 14.027 5.313 14.170 5.163 L 14.313 5.013 20.000 5.013 L 25.687 5.013 25.830 5.163 M6.008 10.080 C 5.374 10.193,4.567 10.823,4.262 11.442 C 4.126 11.718,4.088 11.879,4.050 12.329 C 3.987 13.096,3.988 26.209,4.052 26.763 C 4.118 27.341,4.334 27.784,4.757 28.211 C 5.209 28.667,5.720 28.911,6.335 28.965 C 6.950 29.019,17.128 29.019,17.692 28.965 C 18.263 28.910,18.712 28.693,19.195 28.237 C 19.852 27.618,19.998 27.167,19.999 25.757 C 20.000 24.913,19.994 24.862,19.862 24.596 C 19.532 23.936,18.596 23.837,18.211 24.422 C 18.025 24.706,17.976 25.006,17.975 25.890 C 17.973 26.682,17.972 26.689,17.830 26.837 L 17.687 26.987 12.000 26.987 L 6.313 26.987 6.170 26.837 L 6.027 26.687 6.027 19.493 L 6.027 12.299 6.170 12.150 L 6.313 12.000 7.666 12.000 C 9.257 12.000,9.405 11.975,9.702 11.652 C 10.031 11.296,10.066 10.789,9.789 10.425 C 9.514 10.065,9.477 10.058,7.787 10.045 C 6.951 10.039,6.150 10.055,6.008 10.080 " fill="#1A1C1F" stroke="none" fill-rule="evenodd"></path></svg>