<svg xmlns="http://www.w3.org/2000/svg" width="14" height="14" fill="none"><g clip-path="url(#a)"><path fill="#1A1C1F" fill-rule="evenodd" d="M3.485 4.9v6.3h4.2a.72.72 0 0 1 .7.7c.002.397-.247.7-.7.7h-4.83a.775.775 0 0 1-.77-.77V4.9c0-.43.284-.698.7-.7s.7.35.7.7m7.575-3.5c.44 0 .855.403.855.84v6.719c0 .433-.396.84-.855.84H5.771c-.441 0-.856-.41-.856-.84v-6.72c0-.432.416-.839.856-.839zM6.285 2.8h4.2v5.6h-4.2z" clip-rule="evenodd"/></g><defs><clipPath id="a"><path fill="#fff" d="M0 0h14v14H0z"/></clipPath></defs></svg>