<svg xmlns="http://www.w3.org/2000/svg" width="32" height="32" fill="none"><g clip-path="url(#a)"><path fill="#1A1C1F" fill-rule="evenodd" d="M9 10a1 1 0 0 1 1 1c0 .513-.483 1.005-1 1H6.5c-.245 0-.5.242-.5.5v14c0 .245.26.501.5.5h11c.245 0 .502-.27.5-.5V25a1 1 0 0 1 1-1c.513 0 1.003.501 1 1v1.5c0 1.325-1.203 2.502-2.5 2.5h-11c-1.325 0-2.496-1.196-2.5-2.5v-14c0-1.325 1.187-2.494 2.5-2.5zm16.5-7c1.325 0 2.507 1.231 2.5 2.5v14c0 1.325-1.203 2.505-2.5 2.5h-11c-1.325 0-2.49-1.198-2.5-2.5v-14c0-1.325 1.185-2.494 2.5-2.5zm-11 2c-.245 0-.494.255-.5.5v14c0 .245.233.506.5.5h11c.245 0 .508-.259.5-.5v-14c0-.245-.278-.492-.5-.5z" clip-rule="evenodd"/></g><defs><clipPath id="a"><path fill="#fff" d="M0 0h32v32H0z"/></clipPath></defs></svg>