<svg xmlns="http://www.w3.org/2000/svg" width="28" height="28" fill="none"><g clip-path="url(#a)"><path fill="#1A1C1F" fill-rule="evenodd" d="M7.875 8.75c.483 0 .875.392.875.875 0 .449-.423.88-.875.875H5.687c-.214 0-.437.212-.437.438v12.25c0 .214.227.438.438.437h9.625c.214 0 .438-.236.437-.438v-1.312c0-.483.392-.875.875-.875.449 0 .878.439.875.875v1.313c0 1.16-1.053 2.19-2.188 2.187H5.688c-1.16 0-2.184-1.046-2.188-2.188v-12.25c0-1.16 1.039-2.182 2.188-2.187zm14.438-6.125c1.16 0 2.193 1.077 2.187 2.188v12.25c0 1.16-1.052 2.191-2.188 2.187h-9.625c-1.16 0-2.178-1.048-2.187-2.188V4.813c0-1.16 1.037-2.182 2.188-2.187zm-9.625 1.75c-.215 0-.433.223-.438.438v12.25c0 .214.204.442.438.437h9.624c.215 0 .445-.226.438-.438V4.813c0-.214-.243-.43-.438-.437h-9.625z" clip-rule="evenodd"/></g><defs><clipPath id="a"><path fill="#fff" d="M0 0h28v28H0z"/></clipPath></defs></svg>