<svg width="20" height="20" viewBox="0 0 20 20" fill="none" xmlns="http://www.w3.org/2000/svg"><path d="M8.467 2.029 C 7.976 2.048,7.899 2.059,7.750 2.131 C 7.529 2.239,7.234 2.539,7.123 2.768 L 7.033 2.952 7.041 8.018 L 7.050 13.083 7.132 13.250 C 7.248 13.487,7.552 13.780,7.806 13.900 L 8.017 14.000 12.036 14.000 L 16.056 14.000 16.264 13.896 C 16.532 13.762,16.796 13.502,16.919 13.250 L 17.017 13.050 17.017 8.017 L 17.017 2.983 16.911 2.760 C 16.782 2.487,16.571 2.270,16.305 2.136 L 16.105 2.035 12.561 2.021 C 10.611 2.014,8.769 2.018,8.467 2.029 M14.967 8.000 L 14.967 12.000 11.967 12.000 L 8.967 12.000 8.967 8.000 L 8.967 4.000 11.967 4.000 L 14.967 4.000 14.967 8.000 M3.739 6.036 C 3.430 6.078,3.167 6.304,3.038 6.640 C 2.988 6.770,2.982 7.247,2.974 11.921 L 2.965 17.059 3.035 17.246 C 3.129 17.497,3.380 17.768,3.640 17.898 L 3.844 18.000 7.547 17.999 C 11.198 17.999,11.252 17.998,11.400 17.931 C 11.599 17.841,11.792 17.652,11.873 17.467 C 11.911 17.381,11.947 17.206,11.958 17.060 C 11.974 16.830,11.967 16.785,11.889 16.626 C 11.794 16.431,11.649 16.267,11.462 16.143 C 11.273 16.018,10.850 16.002,7.758 16.001 L 4.967 16.000 4.966 11.625 C 4.965 9.084,4.952 7.112,4.933 6.920 C 4.895 6.535,4.851 6.442,4.607 6.244 C 4.374 6.054,4.100 5.988,3.739 6.036 " fill="#1A1C1F" stroke="none" fill-rule="evenodd"></path></svg>