<svg width="14" height="14" viewBox="0 0 14 14" fill="none" xmlns="http://www.w3.org/2000/svg"><path d="M5.938 1.420 C 5.582 1.434,5.530 1.441,5.425 1.492 C 5.271 1.568,5.064 1.777,4.986 1.937 L 4.923 2.066 4.929 5.612 L 4.935 9.158 4.992 9.275 C 5.073 9.440,5.286 9.646,5.464 9.730 L 5.612 9.800 8.425 9.800 L 11.239 9.800 11.386 9.727 C 11.570 9.635,11.758 9.448,11.845 9.271 L 11.912 9.135 11.918 5.775 C 11.921 3.927,11.915 2.330,11.903 2.225 C 11.866 1.883,11.705 1.642,11.414 1.495 L 11.274 1.425 8.804 1.415 C 7.446 1.410,6.157 1.412,5.938 1.420 M10.477 5.600 L 10.477 8.400 8.377 8.400 L 6.277 8.400 6.277 5.600 L 6.277 2.800 8.377 2.800 L 10.477 2.800 10.477 5.600 M2.637 4.222 C 2.447 4.250,2.241 4.393,2.155 4.557 C 2.136 4.593,2.111 4.740,2.099 4.884 C 2.087 5.028,2.077 6.668,2.077 8.545 C 2.077 11.927,2.077 11.946,2.125 12.074 C 2.190 12.248,2.367 12.438,2.548 12.529 L 2.691 12.600 5.283 12.599 C 7.769 12.599,7.879 12.597,7.972 12.555 C 8.100 12.497,8.252 12.357,8.313 12.240 C 8.385 12.103,8.385 11.743,8.313 11.608 C 8.250 11.489,8.091 11.337,7.957 11.267 L 7.852 11.212 5.664 11.204 L 3.477 11.197 3.476 8.136 C 3.475 6.452,3.466 4.973,3.455 4.848 C 3.431 4.580,3.398 4.511,3.225 4.371 C 3.066 4.241,2.861 4.190,2.637 4.222 " fill="#1A1C1F" stroke="none" fill-rule="evenodd"></path></svg>