<svg xmlns="http://www.w3.org/2000/svg" width="12" height="12" fill="none"><g clip-path="url(#a)"><path fill="#1A1C1F" fill-rule="evenodd" d="M2.987 4.2v5.4h3.6a.617.617 0 0 1 .6.6c.002.34-.212.6-.6.6h-4.14a.664.664 0 0 1-.66-.66V4.2c0-.369.244-.598.6-.6.357-.002.6.3.6.6m6.493-3c.377 0 .733.345.733.72v5.76c0 .37-.34.72-.733.72H4.947c-.378 0-.734-.352-.734-.72V1.92c0-.371.356-.72.734-.72zM5.387 2.4h3.6v4.8h-3.6z" clip-rule="evenodd"/></g><defs><clipPath id="a"><path fill="#fff" d="M0 0h12v12H0z"/></clipPath></defs></svg>