<svg width="24" height="24" viewBox="0 0 24 24" fill="none" xmlns="http://www.w3.org/2000/svg"><path d="M8.360 2.034 C 7.664 2.063,7.584 2.091,7.300 2.405 C 6.994 2.744,7.021 2.040,7.009 9.992 L 6.998 17.125 7.125 17.364 C 7.259 17.614,7.425 17.771,7.708 17.915 L 7.877 18.000 14.008 18.000 L 20.140 17.999 20.342 17.883 C 20.574 17.750,20.800 17.515,20.918 17.283 C 21.000 17.124,21.000 17.095,21.000 10.000 C 21.000 2.905,21.000 2.876,20.918 2.717 C 20.807 2.498,20.581 2.256,20.378 2.136 L 20.209 2.037 14.594 2.023 C 11.506 2.015,8.701 2.020,8.360 2.034 M19.000 10.000 L 19.000 16.000 14.000 16.000 L 9.000 16.000 9.000 10.000 L 9.000 4.000 14.000 4.000 L 19.000 4.000 19.000 10.000 M3.739 6.043 C 3.651 6.064,3.477 6.161,3.353 6.258 C 3.165 6.406,3.119 6.468,3.077 6.628 C 3.036 6.779,3.022 8.313,3.011 13.815 L 2.997 20.809 3.112 21.055 C 3.281 21.413,3.551 21.691,3.893 21.860 L 4.180 22.002 10.200 21.991 C 16.927 21.979,16.355 22.005,16.668 21.692 C 17.094 21.266,17.097 20.741,16.676 20.320 C 16.561 20.205,16.418 20.106,16.330 20.080 C 16.227 20.050,14.430 20.029,10.591 20.012 L 5.002 19.988 4.991 13.384 C 4.982 8.124,4.970 6.756,4.929 6.664 C 4.728 6.210,4.201 5.935,3.739 6.043 " fill="#1A1C1F" stroke="none" fill-rule="evenodd"></path></svg>