<svg width="12" height="12" viewBox="0 0 12 12" fill="none" xmlns="http://www.w3.org/2000/svg"><path d="M5.090 1.217 C 4.785 1.229,4.740 1.235,4.650 1.279 C 4.518 1.344,4.340 1.523,4.274 1.661 L 4.220 1.771 4.225 4.811 L 4.230 7.850 4.279 7.950 C 4.349 8.092,4.531 8.268,4.684 8.340 L 4.810 8.400 7.222 8.400 L 9.634 8.400 9.759 8.337 C 9.917 8.258,10.078 8.098,10.153 7.947 L 10.210 7.830 10.215 4.950 C 10.219 3.208,10.213 2.002,10.202 1.897 C 10.170 1.608,10.034 1.408,9.783 1.281 L 9.662 1.221 7.546 1.213 C 6.382 1.208,5.277 1.211,5.090 1.217 M8.980 4.800 L 8.980 7.200 7.180 7.200 L 5.380 7.200 5.380 4.800 L 5.380 2.400 7.180 2.400 L 8.980 2.400 8.980 4.800 M2.260 3.620 C 2.099 3.642,1.921 3.765,1.847 3.906 C 1.831 3.937,1.809 4.063,1.799 4.186 C 1.789 4.310,1.781 5.715,1.780 7.324 C 1.780 10.223,1.780 10.239,1.821 10.349 C 1.877 10.498,2.029 10.661,2.184 10.739 L 2.306 10.800 4.528 10.800 C 6.659 10.799,6.753 10.798,6.833 10.762 C 6.943 10.711,7.073 10.591,7.125 10.491 C 7.160 10.425,7.168 10.374,7.169 10.220 C 7.169 10.049,7.164 10.021,7.116 9.940 C 7.044 9.817,6.929 9.711,6.810 9.656 L 6.710 9.610 4.845 9.604 L 2.980 9.597 2.979 6.974 C 2.979 5.531,2.971 4.262,2.961 4.155 C 2.941 3.926,2.912 3.867,2.764 3.746 C 2.628 3.635,2.460 3.593,2.260 3.620 " fill="#1A1C1F" stroke="none" fill-rule="evenodd"></path></svg>