<svg xmlns="http://www.w3.org/2000/svg" width="32" height="32" fill="none"><path fill="#1A1C1F" fill-rule="evenodd" d="M14.093 3.046c-.929.155-1.843 1.044-2.037 1.982-.04.194-.053 2.511-.044 7.612l.015 7.333.114.303c.328.867 1.162 1.558 2.046 1.696.471.073 11.155.073 11.626 0 .987-.154 1.907-1.006 2.129-1.972.037-.159.056-2.683.057-7.495.001-7.991.018-7.569-.329-8.175-.364-.637-1.13-1.177-1.83-1.291-.402-.065-11.353-.059-11.747.007m11.724 2.123.156.156v14.363l-.156.156-.155.156H14.338l-.155-.156-.156-.156V5.325l.156-.156.155-.156h11.324zM5.786 10.123c-.601.207-1.194.697-1.479 1.222-.321.589-.307.216-.307 8.148 0 6.349.01 7.297.082 7.572a2.67 2.67 0 0 0 1.987 1.889c.396.083 11.465.083 11.862.001.687-.143 1.433-.697 1.761-1.306.253-.473.308-.804.308-1.865 0-.91-.007-.981-.124-1.202-.449-.85-1.631-.71-1.845.219-.03.131-.056.607-.056 1.056l-.002.818-.156.156-.155.156H6.338l-.155-.156-.156-.156V12.312l.156-.156.155-.156h1.42c1.54 0 1.632-.014 1.914-.298.223-.226.32-.445.317-.719a1.01 1.01 0 0 0-.619-.9c-.094-.035-.74-.056-1.733-.055-1.361.002-1.621.015-1.851.095"/></svg>