<svg width="16" height="16" viewBox="0 0 16 16" fill="none" xmlns="http://www.w3.org/2000/svg"><path d="M6.773 1.623 C 6.380 1.638,6.319 1.647,6.200 1.705 C 6.024 1.791,5.787 2.031,5.698 2.214 L 5.626 2.362 5.633 6.414 L 5.640 10.467 5.705 10.600 C 5.798 10.789,6.041 11.024,6.245 11.120 L 6.413 11.200 9.629 11.200 L 12.845 11.200 13.011 11.117 C 13.226 11.010,13.437 10.802,13.535 10.600 L 13.613 10.440 13.613 6.413 L 13.613 2.387 13.528 2.207 C 13.426 1.992,13.251 1.813,13.036 1.705 L 12.881 1.626 10.047 1.616 C 8.489 1.611,7.015 1.614,6.773 1.623 M11.973 6.400 L 11.973 9.600 9.573 9.600 L 7.173 9.600 7.173 6.400 L 7.173 3.200 9.573 3.200 L 11.973 3.200 11.973 6.400 M3.013 4.827 C 2.797 4.856,2.561 5.018,2.464 5.204 C 2.441 5.249,2.413 5.414,2.399 5.582 C 2.385 5.746,2.374 7.620,2.374 9.766 C 2.373 13.631,2.374 13.652,2.429 13.799 C 2.503 13.998,2.705 14.215,2.912 14.319 L 3.075 14.400 6.038 14.399 C 8.958 14.399,9.002 14.398,9.120 14.345 C 9.279 14.273,9.433 14.121,9.499 13.973 C 9.529 13.905,9.558 13.765,9.566 13.648 C 9.579 13.464,9.574 13.428,9.511 13.301 C 9.435 13.145,9.319 13.014,9.170 12.915 C 9.019 12.814,8.680 12.801,6.207 12.801 L 3.973 12.800 3.972 9.313 C 3.972 7.379,3.960 5.704,3.947 5.551 C 3.918 5.228,3.884 5.157,3.686 4.995 C 3.504 4.847,3.280 4.791,3.013 4.827 " fill="#1A1C1F" stroke="none" fill-rule="evenodd"></path></svg>