<svg width="32" height="32" viewBox="0 0 32 32" fill="none" xmlns="http://www.w3.org/2000/svg"><path d="M6.618 6.101 C 6.517 6.137,6.356 6.259,6.259 6.371 C 5.941 6.738,5.946 7.212,6.270 7.608 C 6.380 7.742,8.295 9.687,10.525 11.929 L 14.580 16.007 10.927 19.670 C 8.918 21.685,6.993 23.627,6.650 23.986 L 6.027 24.638 6.027 24.929 C 6.027 25.279,6.092 25.469,6.283 25.673 C 6.474 25.878,6.714 25.973,7.033 25.973 C 7.262 25.973,7.335 25.944,7.582 25.749 C 7.739 25.626,9.698 23.701,11.935 21.472 L 16.004 17.418 19.562 20.963 C 21.519 22.913,23.458 24.838,23.871 25.241 L 24.622 25.973 24.921 25.973 C 25.412 25.973,25.669 25.824,25.878 25.417 C 26.046 25.089,25.994 24.714,25.736 24.400 C 25.625 24.265,23.709 22.318,21.478 20.074 L 17.420 15.993 20.938 12.463 C 22.873 10.522,24.797 8.583,25.214 8.156 L 25.973 7.378 25.973 7.079 C 25.973 6.582,25.815 6.313,25.413 6.127 C 25.082 5.975,24.753 5.995,24.490 6.186 C 24.369 6.273,22.409 8.196,20.135 10.459 L 16.001 14.574 11.794 10.389 C 9.335 7.944,7.509 6.168,7.399 6.116 C 7.181 6.013,6.878 6.007,6.618 6.101 " fill="#1A1C1F" stroke="none" fill-rule="evenodd"></path></svg>