<svg xmlns="http://www.w3.org/2000/svg" width="32" height="32" fill="none"><path fill="#1A1C1F" fill-rule="evenodd" d="M6.479 6.156c-.415.249-.588.833-.373 1.261.05.101 1.979 2.073 4.285 4.383l4.194 4.2-4.249 4.253c-3.055 3.058-4.261 4.299-4.291 4.414-.205.793.436 1.482 1.208 1.297.223-.054.541-.358 4.494-4.304L16 17.415l4.227 4.22c2.324 2.321 4.285 4.25 4.357 4.287.219.112.652.083.907-.06.438-.247.624-.838.403-1.279-.05-.101-1.979-2.073-4.286-4.383L17.414 16l4.221-4.227c2.321-2.324 4.25-4.285 4.287-4.357.116-.227.083-.659-.069-.919-.238-.405-.786-.587-1.25-.414-.083.031-2.014 1.919-4.376 4.279L16 14.586l-4.227-4.224c-2.371-2.369-4.292-4.248-4.376-4.28-.271-.1-.683-.067-.918.074"/></svg>