<svg xmlns="http://www.w3.org/2000/svg" width="32" height="32" fill="none"><g clip-path="url(#a)"><path fill="#1A1C1F" fill-rule="evenodd" d="M7.618 6.194 16 14.576 24.293 6.3a.96.96 0 0 1 .704-.3C25.547 6 26 6.42 26 7.005c0 .26-.065.453-.29.68L17.423 16l8.285 8.317a.99.99 0 0 1 .219 1.066.99.99 0 0 1-.93.617c-.26 0-.453-.065-.68-.29L16 17.423 7.707 25.7a.96.96 0 0 1-.704.299A.987.987 0 0 1 6 24.997c0-.26.065-.453.29-.68L14.577 16 6.291 7.683a1 1 0 0 1-.29-.68C6 6.453 6.42 6 7.002 6c.194 0 .42.065.615.194" clip-rule="evenodd"/></g><defs><clipPath id="a"><path fill="#fff" d="M0 0h32v32H0z"/></clipPath></defs></svg>