<svg width="20" height="20" viewBox="0 0 20 20" fill="none" xmlns="http://www.w3.org/2000/svg"><path d="M4.797 4.031 C 4.609 4.068,4.327 4.243,4.209 4.397 C 4.014 4.650,3.957 4.975,4.050 5.291 C 4.115 5.509,4.200 5.602,6.064 7.483 C 6.882 8.308,7.775 9.212,8.049 9.491 L 8.548 9.998 6.462 12.091 C 5.315 13.242,4.307 14.278,4.222 14.395 C 4.040 14.643,3.986 14.814,4.009 15.070 C 4.067 15.713,4.692 16.133,5.319 15.951 C 5.516 15.894,5.521 15.889,7.758 13.657 L 10.000 11.420 12.225 13.637 C 13.697 15.104,14.495 15.876,14.583 15.919 C 14.783 16.014,15.198 16.007,15.408 15.904 C 15.735 15.743,15.959 15.425,15.990 15.075 C 16.014 14.814,15.961 14.644,15.778 14.395 C 15.693 14.278,14.685 13.242,13.538 12.091 L 11.452 9.998 11.919 9.524 C 12.175 9.263,13.120 8.308,14.019 7.400 C 14.918 6.492,15.710 5.679,15.779 5.593 C 16.087 5.210,16.069 4.724,15.733 4.356 C 15.515 4.117,15.298 4.021,14.983 4.022 C 14.558 4.025,14.771 3.841,11.937 6.642 C 10.883 7.682,10.012 8.533,10.000 8.533 C 9.989 8.533,9.045 7.610,7.904 6.483 C 6.762 5.355,5.741 4.359,5.633 4.269 C 5.375 4.054,5.089 3.973,4.797 4.031 " fill="#1A1C1F" stroke="none" fill-rule="evenodd"></path></svg>