<svg width="14" height="14" viewBox="0 0 14 14" fill="none" xmlns="http://www.w3.org/2000/svg"><path d="M3.370 2.822 C 3.319 2.830,3.219 2.869,3.149 2.908 C 2.867 3.067,2.741 3.386,2.835 3.704 C 2.881 3.856,2.941 3.922,4.233 5.227 C 4.799 5.798,5.424 6.430,5.623 6.632 L 5.983 6.999 4.524 8.464 C 3.721 9.269,3.015 9.995,2.956 10.076 C 2.828 10.251,2.790 10.370,2.807 10.552 C 2.829 10.798,2.985 11.020,3.214 11.133 C 3.362 11.205,3.652 11.210,3.792 11.143 C 3.853 11.114,4.412 10.573,5.442 9.546 L 7.000 7.994 8.558 9.546 C 9.588 10.573,10.147 11.114,10.208 11.143 C 10.346 11.209,10.639 11.205,10.782 11.134 C 11.012 11.021,11.171 10.796,11.193 10.552 C 11.210 10.370,11.172 10.251,11.044 10.076 C 10.985 9.995,10.279 9.269,9.476 8.464 L 8.017 6.999 8.307 6.702 C 8.467 6.539,9.092 5.906,9.697 5.297 C 11.063 3.918,11.119 3.857,11.165 3.704 C 11.239 3.455,11.189 3.242,11.013 3.049 C 10.861 2.883,10.709 2.815,10.488 2.815 C 10.300 2.814,10.225 2.846,10.038 3.004 C 9.970 3.062,9.261 3.753,8.463 4.541 C 7.665 5.329,7.006 5.973,6.998 5.973 C 6.990 5.973,6.381 5.377,5.644 4.649 C 3.969 2.994,3.893 2.922,3.773 2.871 C 3.656 2.821,3.500 2.802,3.370 2.822 " fill="#1A1C1F" stroke="none" fill-rule="evenodd"></path></svg>