<svg width="24" height="24" viewBox="0 0 24 24" fill="none" xmlns="http://www.w3.org/2000/svg"><path d="M17.800 5.027 C 17.745 5.036,17.646 5.063,17.580 5.088 C 17.507 5.114,16.397 6.192,14.733 7.853 L 12.005 10.575 9.405 7.992 C 7.974 6.571,6.723 5.342,6.624 5.261 C 6.255 4.959,5.656 4.984,5.324 5.316 C 5.072 5.568,4.979 5.969,5.089 6.333 C 5.152 6.545,5.349 6.752,8.235 9.647 L 10.574 11.995 7.917 14.670 C 6.456 16.142,5.206 17.424,5.140 17.520 C 5.032 17.676,5.020 17.724,5.020 18.000 C 5.020 18.271,5.034 18.328,5.140 18.498 C 5.360 18.849,5.751 19.040,6.132 18.983 C 6.277 18.962,6.377 18.909,6.551 18.764 C 6.677 18.659,7.950 17.418,9.380 16.007 C 10.810 14.595,11.993 13.445,12.009 13.450 C 12.026 13.456,13.050 14.459,14.285 15.680 C 17.197 18.557,17.571 18.909,17.778 18.965 C 18.288 19.102,18.834 18.766,18.961 18.236 C 19.034 17.931,18.994 17.751,18.794 17.491 C 18.698 17.367,17.455 16.085,16.030 14.643 C 14.606 13.200,13.440 12.011,13.440 12.000 C 13.440 11.989,14.606 10.800,16.030 9.357 C 17.455 7.915,18.699 6.632,18.795 6.507 C 19.006 6.233,19.041 6.041,18.942 5.702 C 18.866 5.440,18.609 5.153,18.389 5.086 C 18.223 5.035,17.928 5.005,17.800 5.027 " fill="#1A1C1F" stroke="none" fill-rule="evenodd"></path></svg>