<svg width="16" height="16" viewBox="0 0 16 16" fill="none" xmlns="http://www.w3.org/2000/svg"><path d="M3.840 3.224 C 3.683 3.256,3.465 3.392,3.370 3.517 C 3.210 3.726,3.165 3.978,3.240 4.233 C 3.292 4.408,3.360 4.481,4.865 6.000 C 5.526 6.667,6.240 7.390,6.452 7.606 L 6.838 7.999 5.170 9.673 C 4.252 10.593,3.446 11.423,3.378 11.516 C 3.232 11.716,3.189 11.851,3.208 12.060 C 3.233 12.340,3.412 12.595,3.674 12.723 C 3.842 12.806,4.174 12.812,4.333 12.735 C 4.404 12.701,5.043 12.083,6.220 10.910 L 8.000 9.136 9.780 10.910 C 10.957 12.083,11.596 12.701,11.667 12.735 C 11.826 12.812,12.158 12.806,12.326 12.723 C 12.588 12.595,12.767 12.340,12.792 12.060 C 12.811 11.851,12.768 11.716,12.622 11.516 C 12.554 11.423,11.748 10.593,10.830 9.673 L 9.162 7.999 9.534 7.619 C 9.739 7.411,10.453 6.688,11.122 6.013 C 12.641 4.480,12.708 4.408,12.760 4.233 C 12.844 3.949,12.788 3.705,12.587 3.485 C 12.421 3.304,12.238 3.219,12.013 3.217 C 11.799 3.215,11.680 3.260,11.497 3.413 C 11.413 3.483,10.595 4.280,9.679 5.183 C 8.764 6.087,8.008 6.827,8.000 6.827 C 7.991 6.827,7.239 6.091,6.328 5.191 C 4.587 3.472,4.437 3.330,4.291 3.270 C 4.173 3.222,3.958 3.199,3.840 3.224 " fill="#1A1C1F" stroke="none" fill-rule="evenodd"></path></svg>