<svg xmlns="http://www.w3.org/2000/svg" width="14" height="14" fill="none"><g clip-path="url(#a)"><path fill="#1A1C1F" fill-rule="evenodd" d="M2.8 10.5c0-.197.066-.372.197-.503L5.994 7 2.997 3.98A.68.68 0 0 1 2.8 3.5c0-.35.284-.7.7-.7.175 0 .35.066.48.197L7 5.994l3.019-2.997a.68.68 0 0 1 .48-.197c.373 0 .7.306.7.7 0 .175-.065.35-.196.48L8.006 7l2.997 2.997a.7.7 0 0 1 .197.503c0 .372-.306.7-.7.7a.7.7 0 0 1-.503-.197L7 7.983l-2.997 3.02a.7.7 0 0 1-.503.197.705.705 0 0 1-.7-.7" clip-rule="evenodd"/></g><defs><clipPath id="a"><path fill="#fff" d="M0 0h14v14H0z"/></clipPath></defs></svg>