<svg xmlns="http://www.w3.org/2000/svg" width="12" height="12" fill="none"><g clip-path="url(#a)"><path fill="#1A1C1F" fill-rule="evenodd" d="M2.4 9c0-.169.056-.319.169-.431l2.569-2.57-2.57-2.587A.58.58 0 0 1 2.4 3c0-.3.243-.6.6-.6.15 0 .3.056.412.169L6 5.138l2.588-2.57A.58.58 0 0 1 9 2.4c.319 0 .6.262.6.6 0 .15-.057.3-.169.412L6.862 6l2.57 2.569a.6.6 0 0 1 .168.43c0 .32-.262.6-.6.6a.6.6 0 0 1-.431-.168l-2.57-2.588-2.568 2.589A.6.6 0 0 1 3 9.6a.604.604 0 0 1-.6-.6" clip-rule="evenodd"/></g><defs><clipPath id="a"><path fill="#fff" d="M0 0h12v12H0z"/></clipPath></defs></svg>