<svg width="12" height="12" viewBox="0 0 12 12" fill="none" xmlns="http://www.w3.org/2000/svg"><path d="M2.880 2.418 C 2.762 2.442,2.599 2.544,2.527 2.638 C 2.408 2.794,2.374 2.984,2.430 3.175 C 2.469 3.306,2.520 3.361,3.649 4.500 C 4.144 5.001,4.680 5.543,4.839 5.705 L 5.129 5.999 3.877 7.255 C 3.189 7.945,2.584 8.567,2.533 8.637 C 2.424 8.787,2.392 8.889,2.406 9.045 C 2.440 9.426,2.817 9.679,3.191 9.571 C 3.310 9.536,3.313 9.533,4.655 8.194 L 6.000 6.852 7.335 8.182 C 8.218 9.063,8.697 9.526,8.750 9.551 C 8.870 9.609,9.119 9.604,9.245 9.542 C 9.441 9.446,9.575 9.255,9.594 9.045 C 9.608 8.889,9.576 8.787,9.467 8.637 C 9.416 8.567,8.811 7.945,8.123 7.255 L 6.871 5.999 7.131 5.735 C 7.273 5.589,7.809 5.047,8.321 4.530 C 9.482 3.359,9.531 3.306,9.570 3.175 C 9.633 2.961,9.591 2.779,9.440 2.614 C 9.309 2.470,9.179 2.412,8.990 2.413 C 8.735 2.415,8.864 2.304,7.162 3.985 C 6.530 4.609,6.007 5.120,6.000 5.120 C 5.993 5.120,5.424 4.564,4.737 3.884 C 4.049 3.204,3.437 2.607,3.378 2.557 C 3.233 2.434,3.049 2.383,2.880 2.418 " fill="#1A1C1F" stroke="none" fill-rule="evenodd"></path></svg>