<svg xmlns="http://www.w3.org/2000/svg" width="20" height="20" fill="none"><g clip-path="url(#a)"><path fill="#1A1C1F" fill-rule="evenodd" d="M4 15a1 1 0 0 1 .281-.72L8.563 10 4.28 5.687A.97.97 0 0 1 4 5c0-.5.406-1 1-1 .25 0 .5.094.688.28L10 8.564l4.313-4.282A.97.97 0 0 1 15 4c.531 0 1 .438 1 1 0 .25-.094.5-.281.688L11.438 10l4.28 4.28A.99.99 0 0 1 16 15c0 .53-.438 1-1 1a1 1 0 0 1-.719-.281L10 11.406 5.719 15.72A1 1 0 0 1 5 16c-.563 0-1-.47-1-1" clip-rule="evenodd"/></g><defs><clipPath id="a"><path fill="#fff" d="M0 0h20v20H0z"/></clipPath></defs></svg>