<svg xmlns="http://www.w3.org/2000/svg" width="28" height="28" fill="none"><g clip-path="url(#a)"><path fill="#1A1C1F" fill-rule="evenodd" d="M6.666 5.42 14 12.754l7.256-7.242a.84.84 0 0 1 .616-.262c.482 0 .878.368.878.878 0 .226-.057.396-.254.594L15.246 14l7.25 7.278a.87.87 0 0 1 .191.932.86.86 0 0 1-.815.54c-.226 0-.396-.057-.594-.254L14 15.246l-7.256 7.242a.84.84 0 0 1-.616.262.865.865 0 0 1-.878-.878c0-.226.057-.396.254-.594L12.754 14l-7.25-7.278a.86.86 0 0 1-.254-.594c0-.482.368-.878.878-.878a1 1 0 0 1 .538.17" clip-rule="evenodd"/></g><defs><clipPath id="a"><path fill="#fff" d="M0 0h28v28H0z"/></clipPath></defs></svg>