<svg xmlns="http://www.w3.org/2000/svg" width="16" height="16" fill="none"><g clip-path="url(#a)"><path fill="#1A1C1F" fill-rule="evenodd" d="M3.2 12c0-.225.075-.425.225-.575L6.85 8 3.425 4.55A.78.78 0 0 1 3.2 4c0-.4.325-.8.8-.8.2 0 .4.075.55.225L8 6.85l3.45-3.425c.15-.15.35-.225.55-.225.425 0 .8.35.8.8 0 .2-.075.4-.225.55L9.15 8l3.425 3.425c.15.15.225.35.225.575 0 .425-.35.8-.8.8a.8.8 0 0 1-.575-.225L8 9.125l-3.425 3.45A.8.8 0 0 1 4 12.8c-.45 0-.8-.375-.8-.8" clip-rule="evenodd"/></g><defs><clipPath id="a"><path fill="#fff" d="M0 0h16v16H0z"/></clipPath></defs></svg>