<svg width="28" height="28" viewBox="0 0 28 28" fill="none" xmlns="http://www.w3.org/2000/svg"><path d="M5.810 5.330 C 5.473 5.447,5.252 5.808,5.283 6.188 C 5.300 6.388,5.338 6.475,5.483 6.652 C 5.581 6.772,7.258 8.476,9.209 10.438 L 12.757 14.006 9.584 17.188 C 7.839 18.938,6.156 20.637,5.842 20.964 L 5.273 21.558 5.273 21.813 C 5.273 22.119,5.331 22.285,5.498 22.464 C 5.665 22.643,5.875 22.727,6.154 22.727 C 6.354 22.727,6.418 22.701,6.634 22.531 C 6.771 22.423,8.485 20.739,10.443 18.788 L 14.003 15.240 17.117 18.343 C 18.829 20.049,20.528 21.736,20.893 22.091 L 21.555 22.737 21.882 22.719 C 22.160 22.703,22.234 22.680,22.386 22.559 C 22.620 22.371,22.727 22.152,22.727 21.856 C 22.727 21.646,22.703 21.585,22.543 21.383 C 22.442 21.255,20.759 19.542,18.803 17.574 L 15.246 13.998 18.791 10.441 C 20.740 8.484,22.423 6.771,22.531 6.634 C 22.700 6.419,22.727 6.354,22.727 6.159 C 22.727 5.761,22.578 5.519,22.237 5.362 C 22.003 5.254,21.740 5.250,21.525 5.352 C 21.428 5.398,19.844 6.938,17.680 9.091 L 14.000 12.752 10.382 9.152 C 8.392 7.172,6.677 5.489,6.572 5.413 C 6.364 5.262,6.089 5.232,5.810 5.330 " fill="#1A1C1F" stroke="none" fill-rule="evenodd"></path></svg>