<svg xmlns="http://www.w3.org/2000/svg" width="24" height="24" fill="none"><g clip-path="url(#a)"><path fill="#1A1C1F" fill-rule="evenodd" d="M5 18c0-.281.094-.5.28-.688L10.595 12 5.28 6.687A1.03 1.03 0 0 1 5.03 6c0-.563.439-.97.97-.97.28 0 .5.095.688.25L12 10.595l5.313-5.313A.92.92 0 0 1 18 5c.563 0 1 .438 1 1 0 .28-.094.5-.313.688L13.407 12l5.28 5.313A.84.84 0 0 1 19 18a.98.98 0 0 1-1.363.924.9.9 0 0 1-.324-.237L12 13.407l-5.313 5.28A.91.91 0 0 1 5.97 19 .98.98 0 0 1 5 18" clip-rule="evenodd"/></g><defs><clipPath id="a"><path fill="#fff" d="M0 0h24v24H0z"/></clipPath></defs></svg>