<svg width="28" height="28" viewBox="0 0 28 28" fill="none" xmlns="http://www.w3.org/2000/svg"><path d="M7.273 4.434 C 7.127 4.457,6.844 4.539,6.643 4.617 C 4.313 5.518,3.633 8.452,5.335 10.256 C 5.803 10.751,6.444 11.125,7.083 11.276 C 7.266 11.319,7.620 11.351,7.933 11.354 C 8.541 11.358,8.847 11.280,9.473 10.963 C 10.336 10.527,10.926 9.806,11.246 8.797 C 11.376 8.388,11.390 7.567,11.276 7.083 C 11.039 6.077,10.341 5.211,9.403 4.759 C 9.147 4.635,8.831 4.513,8.703 4.487 C 8.352 4.415,7.572 4.387,7.273 4.434 M19.577 4.430 C 18.663 4.580,17.764 5.147,17.258 5.893 C 16.823 6.533,16.650 7.114,16.650 7.933 C 16.650 8.525,16.733 8.874,16.998 9.403 C 17.446 10.300,18.074 10.851,19.030 11.185 C 19.480 11.343,19.488 11.344,20.183 11.328 C 20.794 11.313,20.927 11.296,21.224 11.189 C 23.561 10.354,24.361 7.566,22.812 5.652 C 22.399 5.141,21.661 4.672,21.008 4.505 C 20.660 4.415,19.906 4.376,19.577 4.430 M7.011 16.754 C 6.395 16.915,5.919 17.183,5.448 17.632 C 4.439 18.595,4.111 20.120,4.635 21.418 C 4.825 21.889,5.044 22.216,5.416 22.586 C 6.390 23.556,7.698 23.847,9.065 23.398 C 9.992 23.094,10.828 22.238,11.189 21.224 C 11.293 20.934,11.314 20.784,11.330 20.220 C 11.348 19.637,11.338 19.516,11.248 19.217 C 10.865 17.941,9.973 17.077,8.708 16.754 C 8.221 16.630,7.485 16.630,7.011 16.754 M19.253 16.753 C 18.271 17.017,17.500 17.635,17.038 18.527 C 16.736 19.108,16.650 19.449,16.650 20.067 C 16.650 20.902,16.836 21.511,17.283 22.136 C 18.249 23.487,19.930 23.967,21.472 23.331 C 23.225 22.608,24.081 20.534,23.347 18.783 C 22.912 17.744,21.884 16.910,20.793 16.711 C 20.363 16.632,19.626 16.652,19.253 16.753 " fill="#1A1C1F" stroke="none" fill-rule="evenodd"></path></svg>