<svg width="24" height="24" viewBox="0 0 24 24" fill="none" xmlns="http://www.w3.org/2000/svg"><path d="M6.257 4.098 C 5.422 4.332,4.691 4.925,4.325 5.664 C 4.094 6.130,4.021 6.450,4.021 7.000 C 4.021 7.580,4.096 7.884,4.372 8.420 C 4.602 8.868,5.133 9.398,5.580 9.628 C 6.393 10.045,7.133 10.102,8.009 9.812 C 8.394 9.685,8.729 9.475,9.072 9.146 C 10.043 8.213,10.266 6.808,9.634 5.593 C 9.329 5.007,8.696 4.460,8.008 4.188 C 7.719 4.074,7.661 4.066,7.080 4.053 C 6.631 4.044,6.404 4.056,6.257 4.098 M16.257 4.098 C 15.422 4.332,14.691 4.925,14.325 5.664 C 14.094 6.130,14.021 6.450,14.021 7.000 C 14.021 7.580,14.096 7.884,14.372 8.420 C 14.602 8.868,15.133 9.398,15.580 9.628 C 16.393 10.045,17.133 10.102,18.009 9.812 C 18.394 9.685,18.729 9.475,19.072 9.146 C 20.043 8.213,20.266 6.808,19.634 5.593 C 19.329 5.007,18.696 4.460,18.008 4.188 C 17.719 4.074,17.661 4.066,17.080 4.053 C 16.631 4.044,16.404 4.056,16.257 4.098 M6.257 14.098 C 5.422 14.332,4.691 14.925,4.325 15.664 C 4.094 16.130,4.021 16.450,4.021 17.000 C 4.021 17.411,4.038 17.553,4.114 17.800 C 4.435 18.834,5.165 19.563,6.201 19.885 C 6.443 19.960,6.591 19.978,6.980 19.978 C 7.559 19.979,7.826 19.916,8.360 19.653 C 8.681 19.496,8.796 19.411,9.102 19.103 C 9.501 18.702,9.718 18.342,9.885 17.800 C 10.005 17.414,10.016 16.681,9.909 16.280 C 9.796 15.855,9.514 15.329,9.239 15.029 C 8.944 14.706,8.428 14.354,8.008 14.188 C 7.719 14.074,7.661 14.066,7.080 14.053 C 6.631 14.044,6.404 14.056,6.257 14.098 M16.257 14.098 C 15.422 14.332,14.691 14.925,14.325 15.664 C 14.094 16.130,14.021 16.450,14.021 17.000 C 14.021 17.411,14.038 17.553,14.114 17.800 C 14.435 18.834,15.165 19.563,16.201 19.885 C 16.443 19.960,16.591 19.978,16.980 19.978 C 17.559 19.979,17.826 19.916,18.360 19.653 C 18.681 19.496,18.796 19.411,19.102 19.103 C 19.501 18.702,19.718 18.342,19.885 17.800 C 20.005 17.414,20.016 16.681,19.909 16.280 C 19.796 15.855,19.514 15.329,19.239 15.029 C 18.944 14.706,18.428 14.354,18.008 14.188 C 17.719 14.074,17.661 14.066,17.080 14.053 C 16.631 14.044,16.404 14.056,16.257 14.098 " fill="#1A1C1F" stroke="none" fill-rule="evenodd"></path></svg>