<svg width="20" height="20" viewBox="0 0 20 20" fill="none" xmlns="http://www.w3.org/2000/svg"><path d="M4.881 3.081 C 4.185 3.277,3.576 3.771,3.271 4.387 C 3.082 4.769,3.018 5.043,3.018 5.483 C 3.018 5.962,3.070 6.189,3.282 6.620 C 3.582 7.230,4.133 7.686,4.834 7.904 C 5.036 7.967,5.159 7.982,5.483 7.982 C 5.965 7.982,6.188 7.930,6.633 7.711 C 6.901 7.580,6.996 7.509,7.251 7.253 C 7.585 6.918,7.765 6.618,7.904 6.167 C 8.004 5.845,8.013 5.234,7.924 4.900 C 7.830 4.546,7.595 4.107,7.366 3.857 C 7.120 3.589,6.690 3.295,6.340 3.157 C 6.099 3.062,6.051 3.055,5.567 3.045 C 5.192 3.037,5.003 3.047,4.881 3.081 M13.881 3.081 C 13.185 3.277,12.576 3.771,12.271 4.387 C 12.082 4.769,12.018 5.043,12.018 5.483 C 12.018 5.962,12.070 6.189,12.282 6.620 C 12.582 7.230,13.133 7.686,13.834 7.904 C 14.036 7.967,14.159 7.982,14.483 7.982 C 14.965 7.982,15.188 7.930,15.633 7.711 C 15.901 7.580,15.996 7.509,16.251 7.253 C 16.585 6.918,16.765 6.618,16.904 6.167 C 17.004 5.845,17.013 5.234,16.924 4.900 C 16.830 4.546,16.595 4.107,16.366 3.857 C 16.120 3.589,15.690 3.295,15.340 3.157 C 15.099 3.062,15.051 3.055,14.567 3.045 C 14.192 3.037,14.003 3.047,13.881 3.081 M4.881 12.081 C 4.185 12.277,3.576 12.771,3.271 13.387 C 3.082 13.769,3.018 14.043,3.018 14.483 C 3.018 14.962,3.070 15.189,3.282 15.620 C 3.582 16.230,4.133 16.686,4.834 16.904 C 5.036 16.967,5.159 16.982,5.483 16.982 C 5.965 16.982,6.188 16.930,6.633 16.711 C 6.901 16.580,6.996 16.509,7.251 16.253 C 7.585 15.918,7.765 15.618,7.904 15.167 C 8.004 14.845,8.013 14.234,7.924 13.900 C 7.830 13.546,7.595 13.107,7.366 12.857 C 7.120 12.589,6.690 12.295,6.340 12.157 C 6.099 12.062,6.051 12.055,5.567 12.045 C 5.192 12.037,5.003 12.047,4.881 12.081 M13.881 12.081 C 13.185 12.277,12.576 12.771,12.271 13.387 C 12.082 13.769,12.018 14.043,12.018 14.483 C 12.018 14.962,12.070 15.189,12.282 15.620 C 12.582 16.230,13.133 16.686,13.834 16.904 C 14.036 16.967,14.159 16.982,14.483 16.982 C 14.965 16.982,15.188 16.930,15.633 16.711 C 15.901 16.580,15.996 16.509,16.251 16.253 C 16.585 15.918,16.765 15.618,16.904 15.167 C 17.004 14.845,17.013 14.234,16.924 13.900 C 16.830 13.546,16.595 13.107,16.366 12.857 C 16.120 12.589,15.690 12.295,15.340 12.157 C 15.099 12.062,15.051 12.055,14.567 12.045 C 14.192 12.037,14.003 12.047,13.881 12.081 " fill="#1A1C1F" stroke="none" fill-rule="evenodd"></path></svg>