<svg width="14" height="14" viewBox="0 0 14 14" fill="none" xmlns="http://www.w3.org/2000/svg"><path d="M3.319 2.190 C 2.767 2.385,2.373 2.777,2.191 3.313 C 2.122 3.515,2.115 3.561,2.114 3.827 C 2.112 4.174,2.147 4.326,2.297 4.633 C 2.509 5.064,2.890 5.379,3.384 5.533 C 3.525 5.577,3.611 5.587,3.838 5.587 C 4.176 5.587,4.332 5.551,4.643 5.398 C 4.830 5.306,4.898 5.256,5.077 5.077 C 5.256 4.898,5.306 4.830,5.398 4.643 C 5.457 4.521,5.523 4.359,5.542 4.282 C 5.686 3.719,5.533 3.106,5.141 2.683 C 4.978 2.507,4.662 2.294,4.433 2.206 C 4.272 2.144,4.229 2.138,3.885 2.130 C 3.521 2.122,3.507 2.123,3.319 2.190 M9.619 2.190 C 9.067 2.385,8.673 2.777,8.491 3.313 C 8.422 3.515,8.415 3.561,8.414 3.827 C 8.412 4.174,8.447 4.326,8.597 4.633 C 8.809 5.064,9.190 5.379,9.684 5.533 C 9.825 5.577,9.911 5.587,10.138 5.587 C 10.476 5.587,10.632 5.551,10.943 5.398 C 11.130 5.306,11.198 5.256,11.377 5.077 C 11.556 4.898,11.606 4.830,11.698 4.643 C 11.757 4.521,11.823 4.359,11.842 4.282 C 11.986 3.719,11.833 3.106,11.441 2.683 C 11.278 2.507,10.962 2.294,10.733 2.206 C 10.572 2.144,10.529 2.138,10.185 2.130 C 9.821 2.122,9.807 2.123,9.619 2.190 M3.319 8.490 C 2.767 8.685,2.373 9.077,2.191 9.613 C 2.122 9.815,2.115 9.861,2.114 10.127 C 2.112 10.474,2.147 10.626,2.297 10.933 C 2.509 11.364,2.890 11.679,3.384 11.833 C 3.525 11.877,3.611 11.887,3.838 11.887 C 4.176 11.887,4.332 11.851,4.643 11.698 C 4.830 11.606,4.898 11.556,5.077 11.377 C 5.256 11.198,5.306 11.130,5.398 10.943 C 5.457 10.821,5.523 10.659,5.542 10.582 C 5.686 10.019,5.533 9.406,5.141 8.983 C 4.978 8.807,4.662 8.594,4.433 8.506 C 4.272 8.444,4.229 8.438,3.885 8.430 C 3.521 8.422,3.507 8.423,3.319 8.490 M9.619 8.490 C 9.067 8.685,8.673 9.077,8.491 9.613 C 8.422 9.815,8.415 9.861,8.414 10.127 C 8.412 10.474,8.447 10.626,8.597 10.933 C 8.809 11.364,9.190 11.679,9.684 11.833 C 9.825 11.877,9.911 11.887,10.138 11.887 C 10.476 11.887,10.632 11.851,10.943 11.698 C 11.130 11.606,11.198 11.556,11.377 11.377 C 11.556 11.198,11.606 11.130,11.698 10.943 C 11.757 10.821,11.823 10.659,11.842 10.582 C 11.986 10.019,11.833 9.406,11.441 8.983 C 11.278 8.807,10.962 8.594,10.733 8.506 C 10.572 8.444,10.529 8.438,10.185 8.430 C 9.821 8.422,9.807 8.423,9.619 8.490 " fill="#1A1C1F" stroke="none" fill-rule="evenodd"></path></svg>