<svg xmlns="http://www.w3.org/2000/svg" width="32" height="32" fill="none"><path fill="#1A1C1F" fill-rule="evenodd" d="M8.179 5.089c-1.577.361-2.737 1.525-3.087 3.095-.129.579-.088 1.445.095 2.012.421 1.304 1.449 2.285 2.797 2.668.482.137 1.476.163 1.883.05 1.608-.448 2.599-1.439 3.047-3.047.113-.407.087-1.401-.05-1.883-.384-1.349-1.337-2.351-2.651-2.785-.532-.176-1.513-.229-2.034-.11m14.078-.017a4 4 0 0 0-.634.181c-1.227.462-2.121 1.443-2.487 2.731-.137.482-.163 1.476-.05 1.883.386 1.386 1.259 2.4 2.45 2.846.613.23.819.268 1.451.268.742 0 1.26-.127 1.881-.463.948-.514 1.613-1.304 1.938-2.305.189-.583.233-1.439.103-2.032a4.01 4.01 0 0 0-3.112-3.09c-.39-.083-1.105-.092-1.54-.019M8.516 19.042a4.01 4.01 0 0 0-3.322 2.745c-.19.584-.233 1.44-.102 2.029.286 1.285 1.058 2.251 2.235 2.799.633.294 1.144.392 1.867.358 1.447-.069 2.625-.815 3.324-2.105.336-.621.463-1.139.463-1.881 0-.632-.038-.838-.268-1.451-.619-1.653-2.394-2.708-4.197-2.494m13.958.002a4.4 4.4 0 0 0-.814.204q-1.97.719-2.574 2.885c-.113.407-.087 1.401.05 1.883.383 1.348 1.363 2.375 2.668 2.797.606.196 1.482.227 2.091.074 1.528-.385 2.607-1.464 2.992-2.992.155-.618.122-1.485-.081-2.108-.597-1.836-2.392-2.972-4.332-2.743"/></svg>