<svg width="16" height="16" viewBox="0 0 16 16" fill="none" xmlns="http://www.w3.org/2000/svg"><path d="M3.793 2.502 C 2.986 2.789,2.462 3.462,2.409 4.280 C 2.358 5.065,2.796 5.821,3.509 6.181 C 3.812 6.334,4.032 6.385,4.387 6.386 C 4.772 6.386,4.951 6.344,5.307 6.169 C 5.521 6.064,5.597 6.007,5.801 5.802 C 5.983 5.619,6.069 5.508,6.152 5.347 C 6.333 4.995,6.385 4.785,6.386 4.413 C 6.386 4.028,6.344 3.849,6.170 3.496 C 5.964 3.077,5.560 2.718,5.080 2.528 C 4.878 2.449,4.844 2.444,4.440 2.434 C 4.024 2.424,4.008 2.426,3.793 2.502 M10.993 2.502 C 10.186 2.789,9.662 3.462,9.609 4.280 C 9.558 5.065,9.996 5.821,10.709 6.181 C 11.012 6.334,11.232 6.385,11.587 6.386 C 11.972 6.386,12.151 6.344,12.507 6.169 C 12.721 6.064,12.797 6.007,13.001 5.802 C 13.183 5.619,13.269 5.508,13.352 5.347 C 13.533 4.995,13.585 4.785,13.586 4.413 C 13.586 4.028,13.544 3.849,13.370 3.496 C 13.164 3.077,12.760 2.718,12.280 2.528 C 12.078 2.449,12.044 2.444,11.640 2.434 C 11.224 2.424,11.208 2.426,10.993 2.502 M3.793 9.702 C 2.986 9.989,2.462 10.662,2.409 11.480 C 2.358 12.265,2.796 13.021,3.509 13.381 C 3.812 13.534,4.032 13.585,4.387 13.586 C 4.772 13.586,4.951 13.544,5.307 13.369 C 5.521 13.264,5.597 13.207,5.801 13.002 C 5.983 12.819,6.069 12.708,6.152 12.547 C 6.333 12.195,6.385 11.985,6.386 11.613 C 6.386 11.228,6.344 11.049,6.170 10.696 C 5.964 10.277,5.560 9.918,5.080 9.728 C 4.878 9.649,4.844 9.644,4.440 9.634 C 4.024 9.624,4.008 9.626,3.793 9.702 M10.993 9.702 C 10.186 9.989,9.662 10.662,9.609 11.480 C 9.558 12.265,9.996 13.021,10.709 13.381 C 11.012 13.534,11.232 13.585,11.587 13.586 C 11.972 13.586,12.151 13.544,12.507 13.369 C 12.721 13.264,12.797 13.207,13.001 13.002 C 13.183 12.819,13.269 12.708,13.352 12.547 C 13.533 12.195,13.585 11.985,13.586 11.613 C 13.586 11.228,13.544 11.049,13.370 10.696 C 13.164 10.277,12.760 9.918,12.280 9.728 C 12.078 9.649,12.044 9.644,11.640 9.634 C 11.224 9.624,11.208 9.626,10.993 9.702 " fill="#1A1C1F" stroke="none" fill-rule="evenodd"></path></svg>