<svg width="12" height="12" viewBox="0 0 12 12" fill="none" xmlns="http://www.w3.org/2000/svg"><path d="M2.929 1.849 C 2.511 1.966,2.145 2.263,1.962 2.632 C 1.848 2.864,1.811 3.025,1.810 3.300 C 1.810 3.507,1.818 3.576,1.857 3.700 C 2.019 4.218,2.383 4.582,2.901 4.743 C 3.022 4.780,3.095 4.789,3.290 4.789 C 3.579 4.789,3.713 4.758,3.980 4.627 C 4.141 4.548,4.198 4.505,4.351 4.352 C 4.551 4.151,4.659 3.971,4.743 3.700 C 4.802 3.507,4.808 3.141,4.755 2.940 C 4.698 2.728,4.557 2.464,4.420 2.314 C 4.272 2.153,4.014 1.977,3.804 1.894 C 3.660 1.837,3.631 1.833,3.340 1.827 C 3.115 1.822,3.002 1.828,2.929 1.849 M8.329 1.849 C 7.911 1.966,7.545 2.263,7.362 2.632 C 7.248 2.864,7.211 3.025,7.210 3.300 C 7.210 3.507,7.218 3.576,7.257 3.700 C 7.419 4.218,7.783 4.582,8.301 4.743 C 8.422 4.780,8.495 4.789,8.690 4.789 C 8.979 4.789,9.113 4.758,9.380 4.627 C 9.541 4.548,9.598 4.505,9.751 4.352 C 9.951 4.151,10.059 3.971,10.143 3.700 C 10.202 3.507,10.208 3.141,10.155 2.940 C 10.098 2.728,9.957 2.464,9.820 2.314 C 9.672 2.153,9.414 1.977,9.204 1.894 C 9.060 1.837,9.031 1.833,8.740 1.827 C 8.515 1.822,8.402 1.828,8.329 1.849 M2.929 7.249 C 2.511 7.366,2.145 7.663,1.962 8.032 C 1.848 8.264,1.811 8.425,1.810 8.700 C 1.810 8.907,1.818 8.976,1.857 9.100 C 2.019 9.618,2.383 9.982,2.901 10.143 C 3.022 10.180,3.095 10.189,3.290 10.189 C 3.579 10.189,3.713 10.158,3.980 10.027 C 4.141 9.948,4.198 9.905,4.351 9.752 C 4.551 9.551,4.659 9.371,4.743 9.100 C 4.802 8.907,4.808 8.541,4.755 8.340 C 4.698 8.128,4.557 7.864,4.420 7.714 C 4.272 7.553,4.014 7.377,3.804 7.294 C 3.660 7.237,3.631 7.233,3.340 7.227 C 3.115 7.222,3.002 7.228,2.929 7.249 M8.329 7.249 C 7.911 7.366,7.545 7.663,7.362 8.032 C 7.248 8.264,7.211 8.425,7.210 8.700 C 7.210 8.907,7.218 8.976,7.257 9.100 C 7.419 9.618,7.783 9.982,8.301 10.143 C 8.422 10.180,8.495 10.189,8.690 10.189 C 8.979 10.189,9.113 10.158,9.380 10.027 C 9.541 9.948,9.598 9.905,9.751 9.752 C 9.951 9.551,10.059 9.371,10.143 9.100 C 10.202 8.907,10.208 8.541,10.155 8.340 C 10.098 8.128,9.957 7.864,9.820 7.714 C 9.672 7.553,9.414 7.377,9.204 7.294 C 9.060 7.237,9.031 7.233,8.740 7.227 C 8.515 7.222,8.402 7.228,8.329 7.249 " fill="#1A1C1F" stroke="none" fill-rule="evenodd"></path></svg>