<svg xmlns="http://www.w3.org/2000/svg" width="32" height="32" fill="none"><path fill="#1A1C1F" fill-rule="evenodd" d="M24.272.082a4.5 4.5 0 0 0-.8.301c-.44.218-.537.303-2.405 2.131-3.324 3.25-18.324 18.299-18.494 18.554a3.3 3.3 0 0 0-.251.453C2.186 21.844 0 30.707 0 30.935c0 .115.063.321.148.484.121.23.203.312.433.433.174.09.368.148.5.148.118 0 2.221-.493 4.674-1.095 3.667-.9 4.529-1.129 4.858-1.289.389-.188.617-.409 8.054-7.808C29.328 11.202 31.264 9.253 31.478 8.907c.543-.876.657-1.813.342-2.8-.244-.764-.466-1.03-2.816-3.364C26.968.719 26.83.594 26.413.38c-.707-.362-1.399-.458-2.141-.298m1.103 2.347c.269.112 3.96 3.787 4.175 4.158q.282.482.051.956c-.06.123-.446.557-.895 1.005l-.789.787-2.595-2.632-2.594-2.632.783-.777c.43-.427.854-.814.942-.86.207-.107.669-.11.922-.005m-1.653 5.895 2.564 2.59-8.039 8.039-8.039 8.039-2.58-2.62-2.58-2.62 8.023-8.023c4.412-4.412 8.037-8.016 8.055-8.009s1.186 1.179 2.596 2.604M7.874 28.006c-.128.068-5.106 1.286-5.136 1.257-.025-.025.986-4.247 1.217-5.08l.051-.187 1.964 1.989c1.129 1.143 1.939 2.002 1.904 2.021"/></svg>