<svg xmlns="http://www.w3.org/2000/svg" width="24" height="24" fill="none"><g clip-path="url(#a)"><path fill="#1A1C1F" fill-rule="evenodd" d="M17.468 2.008a2.04 2.04 0 0 1 1.503.634l2.3 2.278c.447.47.729 1.057.729 1.69 0 .564-.211 1.151-.728 1.668L9.53 20.042c-.282.282-.634.54-.963.588L3.26 21.968c-.07.024-.14.024-.235.024a.94.94 0 0 1-.704-.306c-.212-.211-.376-.516-.305-.798l.023-.118 1.268-5.119c.094-.399.282-.751.54-1.033L15.73 2.736a2.48 2.48 0 0 1 1.738-.728M5.398 15.839l-.07.07c-.024.024-.047.118-.07.212l-.87 3.475 3.429-.822a.5.5 0 0 0 .234-.093l.094-.094zm9.017-8.947-7.561 7.562 2.7 2.724 7.585-7.585-2.724-2.7zm2.982-2.841c-.093 0-.187.023-.258.117l-1.315 1.315 2.748 2.748 1.315-1.339a.3.3 0 0 0 .093-.234.46.46 0 0 0-.14-.306l-2.184-2.184c-.07-.094-.165-.117-.26-.117" clip-rule="evenodd"/></g><defs><clipPath id="a"><path fill="#fff" d="M0 0h24v24H0z"/></clipPath></defs></svg>