<svg width="28" height="28" viewBox="0 0 28 28" fill="none" xmlns="http://www.w3.org/2000/svg"><path d="M21.490 0.033 C 21.202 0.071,20.826 0.201,20.472 0.384 C 20.125 0.564,19.887 0.791,15.689 4.947 C 9.197 11.372,2.434 18.176,2.226 18.490 C 2.087 18.701,2.006 18.922,1.841 19.540 C 1.585 20.497,0.511 24.825,0.207 26.119 C -0.003 27.016,-0.010 27.073,0.049 27.284 C 0.132 27.581,0.418 27.868,0.713 27.950 C 0.925 28.010,0.985 28.000,2.368 27.675 C 4.431 27.191,8.488 26.199,8.866 26.087 C 9.294 25.959,9.545 25.763,10.667 24.679 C 12.270 23.131,25.969 9.490,26.769 8.647 C 27.803 7.556,27.953 7.254,27.953 6.272 C 27.953 5.791,27.935 5.640,27.838 5.334 C 27.693 4.879,27.525 4.629,26.912 3.960 C 26.284 3.275,23.853 0.874,23.520 0.609 C 22.965 0.169,22.168 -0.057,21.490 0.033 M22.255 2.167 C 22.437 2.261,24.334 4.120,25.231 5.081 C 25.947 5.850,26.030 5.992,25.970 6.349 C 25.924 6.619,25.732 6.869,25.048 7.550 L 24.426 8.170 22.155 5.865 L 19.884 3.559 20.500 2.956 C 21.144 2.325,21.380 2.127,21.537 2.084 C 21.695 2.041,22.102 2.088,22.255 2.167 M20.731 7.268 C 21.957 8.494,22.960 9.517,22.960 9.543 C 22.960 9.569,19.803 12.747,15.945 16.605 L 8.931 23.619 6.674 21.324 L 4.417 19.028 11.419 12.034 C 15.270 8.187,18.439 5.040,18.462 5.040 C 18.484 5.040,19.506 6.043,20.731 7.268 M6.577 24.139 C 6.761 24.334,6.860 24.472,6.833 24.499 C 6.794 24.538,4.432 25.140,3.033 25.467 C 2.493 25.594,2.449 25.598,2.436 25.522 C 2.417 25.420,3.070 22.643,3.458 21.172 L 3.505 20.993 4.892 22.408 C 5.654 23.187,6.413 23.966,6.577 24.139 " fill="#1A1C1F" stroke="none" fill-rule="evenodd"></path></svg>