<svg xmlns="http://www.w3.org/2000/svg" width="20" height="20" fill="none"><g clip-path="url(#a)"><path fill="#1A1C1F" fill-rule="evenodd" d="M14.285 2.03c.487 0 .973.163 1.33.488l1.818 1.818c.357.357.552.94.552 1.493a2.2 2.2 0 0 1-.552 1.46l-9.186 9.124c-.324.292-.584.39-1.103.52l-3.929 1.004c-.097.033-.195.033-.292.033-.26 0-.487-.097-.617-.26a1 1 0 0 1-.291-.681v-.162l.974-3.928c.195-.714.292-.844.617-1.17l9.153-9.121a2.13 2.13 0 0 1 1.526-.617m-2.857 4.806L5.586 12.58l1.785 1.818 5.843-5.78zm2.824-2.857-1.427 1.428 1.818 1.818 1.428-1.428z" clip-rule="evenodd"/></g><defs><clipPath id="a"><path fill="#fff" d="M0 0h20v20H0z"/></clipPath></defs></svg>