<svg width="32" height="32" viewBox="0 0 32 32" fill="none" xmlns="http://www.w3.org/2000/svg"><path d="M24.560 0.037 C 23.872 0.128,23.253 0.451,22.527 1.098 C 21.767 1.776,3.093 20.460,2.700 20.938 C 2.468 21.218,2.367 21.399,2.270 21.706 C 2.136 22.132,0.732 27.754,0.264 29.744 C -0.003 30.875,-0.012 30.940,0.056 31.182 C 0.152 31.527,0.421 31.812,0.755 31.923 C 0.985 31.999,1.071 32.003,1.352 31.948 C 2.440 31.737,9.418 30.012,10.208 29.759 C 10.665 29.613,10.750 29.562,11.181 29.187 C 11.949 28.516,28.629 11.925,30.458 10.011 C 31.557 8.862,31.710 8.639,31.897 7.906 C 32.128 7.003,31.917 5.967,31.346 5.199 C 31.030 4.775,28.425 2.116,27.392 1.164 C 26.864 0.678,26.612 0.485,26.310 0.340 C 25.770 0.080,25.104 -0.035,24.560 0.037 M25.595 2.597 C 25.970 2.899,29.296 6.235,29.483 6.498 C 29.576 6.628,29.664 6.832,29.684 6.967 C 29.748 7.393,29.625 7.592,28.729 8.513 L 27.920 9.344 25.320 6.704 L 22.721 4.064 23.551 3.259 C 24.068 2.758,24.445 2.435,24.551 2.402 C 24.644 2.373,24.862 2.361,25.035 2.375 C 25.297 2.396,25.389 2.432,25.595 2.597 M23.693 8.306 C 25.094 9.707,26.240 10.877,26.240 10.907 C 26.240 10.936,22.633 14.567,18.224 18.976 L 10.207 26.993 7.626 24.371 L 5.046 21.750 13.047 13.755 C 17.448 9.358,21.070 5.760,21.097 5.760 C 21.124 5.760,22.292 6.906,23.693 8.306 M7.517 27.588 C 7.727 27.810,7.840 27.968,7.810 27.998 C 7.765 28.043,4.794 28.799,3.347 29.134 C 2.793 29.262,2.773 29.263,2.773 29.165 C 2.773 29.014,3.594 25.557,3.952 24.196 L 4.006 23.992 5.590 25.609 C 6.462 26.499,7.329 27.389,7.517 27.588 " fill="#1A1C1F" stroke="none" fill-rule="evenodd"></path></svg>