<svg xmlns="http://www.w3.org/2000/svg" width="16" height="16" fill="none"><g clip-path="url(#a)"><path fill="#1A1C1F" fill-rule="evenodd" d="M11.428 1.624c.39 0 .779.13 1.064.39l1.455 1.454c.285.286.441.753.441 1.195 0 .415-.156.857-.441 1.168l-7.35 7.298c-.259.234-.467.312-.882.416l-3.142.805c-.078.026-.156.026-.234.026-.208 0-.39-.078-.493-.208a.8.8 0 0 1-.234-.544v-.13l.779-3.143c.156-.571.234-.675.493-.935l7.323-7.298c.338-.337.78-.493 1.22-.493zM9.142 5.468l-4.674 4.596 1.429 1.454 4.674-4.623zm2.259-2.286-1.143 1.143 1.454 1.454 1.143-1.142z" clip-rule="evenodd"/></g><defs><clipPath id="a"><path fill="#fff" d="M0 0h16v16H0z"/></clipPath></defs></svg>