<svg xmlns="http://www.w3.org/2000/svg" width="14" height="14" fill="none"><g clip-path="url(#a)"><path fill="#1A1C1F" fill-rule="evenodd" d="M10 1.42c.34 0 .68.115.93.34l1.274 1.275c.25.25.385.658.385 1.045 0 .363-.136.75-.386 1.022l-6.43 6.386c-.228.205-.41.273-.772.364l-2.75.704c-.067.023-.136.023-.204.023a.55.55 0 0 1-.432-.182.7.7 0 0 1-.204-.477v-.114l.681-2.75c.136-.5.204-.59.431-.818l6.408-6.385A1.5 1.5 0 0 1 10 1.42M8 4.785 3.91 8.807l1.25 1.272 4.09-4.045zm1.976-2-1 1 1.273 1.273 1-1z" clip-rule="evenodd"/></g><defs><clipPath id="a"><path fill="#fff" d="M0 0h14v14H0z"/></clipPath></defs></svg>