<svg width="14" height="14" viewBox="0 0 14 14" fill="none" xmlns="http://www.w3.org/2000/svg"><path d="M9.742 1.447 C 9.545 1.482,9.290 1.588,9.146 1.694 C 8.970 1.823,6.975 3.789,4.347 6.421 C 2.506 8.264,2.284 8.494,2.242 8.603 C 2.179 8.766,2.005 9.412,1.749 10.434 C 1.397 11.841,1.377 11.963,1.466 12.164 C 1.564 12.385,1.806 12.577,1.988 12.577 C 2.121 12.577,2.464 12.499,3.495 12.237 C 5.157 11.815,5.416 11.739,5.582 11.624 C 5.833 11.449,12.220 5.101,12.352 4.895 C 12.496 4.669,12.558 4.456,12.571 4.146 C 12.584 3.823,12.548 3.630,12.422 3.366 C 12.351 3.216,12.283 3.137,11.835 2.680 C 11.195 2.027,10.786 1.649,10.639 1.575 C 10.411 1.459,10.001 1.400,9.742 1.447 M10.716 3.516 L 11.247 4.049 10.745 4.550 L 10.243 5.051 9.607 4.415 L 8.972 3.779 9.467 3.287 L 9.963 2.795 10.074 2.889 C 10.135 2.941,10.424 3.223,10.716 3.516 M7.206 8.055 L 5.168 10.077 4.659 9.571 C 4.379 9.293,4.098 9.006,4.035 8.933 L 3.919 8.801 5.955 6.793 L 7.992 4.785 8.618 5.408 L 9.243 6.032 7.206 8.055 " fill="#1A1C1F" stroke="none" fill-rule="evenodd"></path></svg>