<svg width="16" height="16" viewBox="0 0 16 16" fill="none" xmlns="http://www.w3.org/2000/svg"><path d="M11.133 1.655 C 10.919 1.688,10.696 1.773,10.506 1.896 C 10.344 2.000,8.853 3.468,4.809 7.503 C 2.775 9.532,2.613 9.700,2.560 9.838 C 2.487 10.029,2.268 10.845,1.987 11.973 C 1.579 13.614,1.569 13.682,1.694 13.938 C 1.735 14.020,1.813 14.132,1.869 14.186 C 1.974 14.288,2.182 14.373,2.327 14.373 C 2.447 14.373,2.907 14.266,4.120 13.956 C 5.933 13.492,6.192 13.415,6.380 13.284 C 6.526 13.181,7.590 12.141,10.798 8.961 C 13.584 6.200,14.090 5.679,14.186 5.475 C 14.323 5.186,14.353 5.061,14.366 4.733 C 14.381 4.355,14.341 4.144,14.198 3.847 C 14.116 3.676,14.036 3.583,13.526 3.062 C 12.794 2.316,12.327 1.885,12.159 1.799 C 11.895 1.666,11.461 1.604,11.133 1.655 M12.247 4.018 L 12.853 4.627 12.280 5.200 L 11.706 5.773 10.980 5.046 L 10.253 4.318 10.820 3.756 L 11.386 3.194 11.513 3.302 C 11.583 3.361,11.913 3.684,12.247 4.018 M8.235 9.208 L 5.907 11.522 5.194 10.796 C 4.592 10.184,4.486 10.065,4.514 10.031 C 4.532 10.009,5.579 8.973,6.840 7.729 L 9.133 5.468 9.849 6.181 L 10.564 6.893 8.235 9.208 " fill="#1A1C1F" stroke="none" fill-rule="evenodd"></path></svg>