<svg width="20" height="20" viewBox="0 0 20 20" fill="none" xmlns="http://www.w3.org/2000/svg"><path d="M13.917 2.067 C 13.635 2.118,13.272 2.268,13.066 2.420 C 12.828 2.595,9.611 5.765,5.960 9.422 C 3.531 11.856,3.264 12.134,3.201 12.294 C 3.114 12.519,2.845 13.521,2.486 14.957 C 1.975 17.006,1.961 17.101,2.118 17.422 C 2.306 17.806,2.637 17.999,3.028 17.953 C 3.211 17.931,5.713 17.309,6.983 16.968 C 7.332 16.875,7.694 16.761,7.789 16.715 C 7.884 16.669,8.094 16.516,8.256 16.375 C 8.418 16.233,10.585 14.088,13.072 11.607 C 18.028 6.662,17.725 6.989,17.901 6.406 C 17.965 6.193,17.972 6.109,17.958 5.740 C 17.940 5.242,17.869 4.984,17.668 4.672 C 17.524 4.450,16.437 3.325,15.773 2.712 C 15.346 2.317,15.163 2.200,14.847 2.117 C 14.606 2.055,14.130 2.029,13.917 2.067 M15.316 5.031 L 16.083 5.800 15.366 6.517 L 14.650 7.233 13.733 6.316 L 12.817 5.398 13.525 4.695 L 14.233 3.993 14.391 4.128 C 14.479 4.202,14.895 4.608,15.316 5.031 M10.294 11.507 L 7.383 14.397 6.589 13.607 C 6.153 13.172,5.751 12.762,5.697 12.694 L 5.599 12.572 8.508 9.704 L 11.417 6.836 12.311 7.726 L 13.205 8.617 10.294 11.507 " fill="#1A1C1F" stroke="none" fill-rule="evenodd"></path></svg>