<svg width="12" height="12" viewBox="0 0 12 12" fill="none" xmlns="http://www.w3.org/2000/svg"><path d="M8.350 1.240 C 8.181 1.271,7.963 1.361,7.839 1.452 C 7.691 1.561,5.902 3.323,3.666 5.563 C 2.143 7.089,1.958 7.281,1.922 7.374 C 1.834 7.601,1.295 9.712,1.234 10.066 C 1.189 10.332,1.241 10.490,1.429 10.655 C 1.539 10.752,1.662 10.790,1.807 10.773 C 1.916 10.760,3.076 10.475,3.890 10.260 C 4.525 10.093,4.701 10.032,4.816 9.941 C 5.112 9.705,10.484 4.357,10.587 4.196 C 10.624 4.138,10.680 4.022,10.712 3.940 C 10.764 3.801,10.768 3.769,10.769 3.500 C 10.770 3.234,10.765 3.197,10.714 3.048 C 10.684 2.959,10.632 2.844,10.600 2.792 C 10.532 2.686,9.829 1.964,9.464 1.627 C 9.208 1.390,9.098 1.320,8.908 1.270 C 8.764 1.233,8.478 1.217,8.350 1.240 M9.185 3.014 L 9.640 3.470 9.210 3.900 L 8.780 4.330 8.235 3.784 L 7.690 3.239 8.115 2.817 L 8.540 2.396 8.635 2.477 C 8.687 2.521,8.935 2.763,9.185 3.014 M6.176 6.904 L 4.430 8.638 4.014 8.224 C 3.785 7.996,3.544 7.750,3.478 7.677 L 3.359 7.544 5.105 5.822 L 6.850 4.101 7.386 4.636 L 7.923 5.170 6.176 6.904 " fill="#1A1C1F" stroke="none" fill-rule="evenodd"></path></svg>