<svg xmlns="http://www.w3.org/2000/svg" width="12" height="12" fill="none"><g clip-path="url(#a)"><path fill="#1A1C1F" fill-rule="evenodd" d="M8.571 1.218c.291 0 .584.098.798.291l1.091 1.092c.214.215.331.564.331.896 0 .311-.117.643-.33.876L4.948 9.847c-.196.175-.352.234-.663.312l-2.357.603c-.057.02-.117.02-.175.02a.47.47 0 0 1-.37-.156.6.6 0 0 1-.175-.409v-.098l.585-2.357c.116-.428.174-.506.369-.701l5.493-5.473a1.28 1.28 0 0 1 .915-.37M6.857 4.1 3.352 7.55l1.071 1.09L7.93 5.172zM8.55 2.386l-.857.857 1.091 1.091.857-.857z" clip-rule="evenodd"/></g><defs><clipPath id="a"><path fill="#fff" d="M0 0h12v12H0z"/></clipPath></defs></svg>