<svg xmlns="http://www.w3.org/2000/svg" width="32" height="32" fill="none"><g clip-path="url(#a)"><path fill="#1A1C1F" fill-rule="evenodd" d="M24.965 0c.82 0 1.642.322 2.392 1.073l3.608 3.611C31.607 5.363 32 6.221 32 7.151c0 .823-.286 1.645-1.035 2.396L11.499 28.962c-.427.43-.857.75-1.642.93L1.43 31.965C1.32 32 1.179 32 1.07 32A1.074 1.074 0 0 1 0 30.93c0-.107 0-.215.035-.322l2.108-8.51c.143-.68.428-1.11.929-1.61L22.501 1.075C23.143.43 24.035 0 24.965 0M4 23.992l-1.321 5.327 5.286-1.322zM21.107 5.685 5.035 21.74l5.18 5.256 16.07-16.091zm3.821-3.361c-.286 0-.571.107-.82.358l-1.394 1.394 5.215 5.256 1.429-1.43c.178-.179.356-.465.356-.823 0-.25-.107-.5-.357-.786L25.75 2.682a1.16 1.16 0 0 0-.822-.358" clip-rule="evenodd"/></g><defs><clipPath id="a"><path fill="#fff" d="M0 0h32v32H0z"/></clipPath></defs></svg>