<svg xmlns="http://www.w3.org/2000/svg" width="28" height="28" fill="none"><g clip-path="url(#a)"><path fill="#1A1C1F" fill-rule="evenodd" d="M21.843 0c.72 0 1.438.281 2.094.938l3.157 3.16c.562.595.906 1.346.906 2.16 0 .719-.25 1.438-.906 2.095L10.063 25.34c-.375.376-.751.658-1.438.813L1.25 27.968C1.157 28 1.03 28 .937 28A.94.94 0 0 1 0 27.062c0-.095 0-.189.03-.283l1.845-7.446c.125-.595.375-.969.812-1.407L19.689.938C20.251.375 21.031 0 21.843 0M3.501 20.992l-1.158 4.661 4.625-1.157-3.469-3.504zM18.469 4.975 4.406 19.02l4.531 4.6L23 9.54zm3.344-2.94a1 1 0 0 0-.72.312l-1.218 1.22 4.563 4.599 1.25-1.252a1.03 1.03 0 0 0 .312-.72c0-.218-.094-.438-.312-.687l-3.157-3.162a1.02 1.02 0 0 0-.72-.313z" clip-rule="evenodd"/></g><defs><clipPath id="a"><path fill="#fff" d="M0 0h28v28H0z"/></clipPath></defs></svg>