<svg width="24" height="24" viewBox="0 0 24 24" fill="none" xmlns="http://www.w3.org/2000/svg"><path d="M16.843 2.104 C 16.276 2.256,16.230 2.293,14.361 4.137 C 9.557 8.875,3.916 14.546,3.625 14.929 C 3.452 15.157,3.320 15.604,2.762 17.860 C 1.995 20.957,1.976 21.043,2.036 21.243 C 2.105 21.472,2.479 21.847,2.734 21.942 C 2.980 22.033,2.813 22.067,5.820 21.320 C 8.820 20.575,8.883 20.556,9.160 20.354 C 9.281 20.265,12.122 17.445,15.473 14.086 L 21.566 7.980 21.722 7.657 C 22.010 7.058,22.062 6.657,21.923 6.111 C 21.880 5.944,21.791 5.700,21.723 5.567 C 21.583 5.289,21.029 4.675,20.034 3.697 C 18.699 2.384,18.530 2.249,18.043 2.104 C 17.770 2.024,17.142 2.023,16.843 2.104 M17.749 4.275 C 18.249 4.708,19.914 6.424,19.942 6.534 C 19.957 6.592,19.958 6.684,19.944 6.738 C 19.919 6.837,18.673 8.171,18.587 8.191 C 18.561 8.197,17.928 7.589,17.180 6.841 L 15.821 5.480 16.380 4.916 C 17.009 4.283,17.292 4.040,17.403 4.040 C 17.444 4.040,17.600 4.146,17.749 4.275 M16.000 8.457 L 17.140 9.600 13.349 13.390 L 9.557 17.180 8.214 15.830 L 6.871 14.480 7.312 14.010 C 7.554 13.751,9.248 12.049,11.076 10.226 L 14.399 6.911 14.630 7.113 C 14.756 7.224,15.373 7.829,16.000 8.457 M6.769 17.233 C 7.490 17.955,8.080 18.575,8.080 18.610 C 8.080 18.654,8.007 18.696,7.850 18.741 C 7.114 18.956,4.543 19.571,4.460 19.552 C 4.420 19.543,4.514 19.114,4.837 17.820 C 5.341 15.805,5.308 15.920,5.391 15.920 C 5.428 15.920,6.047 16.511,6.769 17.233 " fill="#1A1C1F" stroke="none" fill-rule="evenodd"></path></svg>