<svg width="28" height="28" viewBox="0 0 28 28" fill="none" xmlns="http://www.w3.org/2000/svg"><path d="M15.868 1.359 C 15.523 1.496,15.262 1.856,15.262 2.193 C 15.262 2.487,15.418 2.712,16.072 3.359 C 16.421 3.705,16.707 4.002,16.707 4.018 C 16.707 4.035,15.606 5.133,14.261 6.459 L 11.815 8.870 11.519 8.678 C 10.284 7.877,8.915 7.629,7.415 7.934 C 6.162 8.190,4.718 8.934,3.360 10.023 C 2.758 10.506,1.397 11.876,1.285 12.110 C 1.179 12.334,1.175 12.670,1.276 12.866 C 1.317 12.944,2.747 14.392,4.454 16.083 L 7.558 19.158 4.495 22.189 C 2.624 24.042,1.409 25.280,1.370 25.372 C 1.294 25.554,1.288 25.845,1.356 26.025 C 1.466 26.315,1.867 26.598,2.170 26.598 C 2.519 26.598,2.669 26.470,4.853 24.299 C 6.021 23.139,7.387 21.785,7.888 21.291 L 8.800 20.391 11.939 23.489 C 15.216 26.722,15.186 26.695,15.569 26.692 C 15.813 26.690,16.070 26.526,16.637 26.007 C 18.567 24.241,19.962 22.040,20.280 20.261 C 20.371 19.749,20.373 18.887,20.284 18.433 C 20.143 17.720,19.744 16.852,19.324 16.345 L 19.179 16.170 21.641 13.735 L 24.103 11.300 24.780 11.970 C 25.153 12.339,25.516 12.663,25.588 12.690 C 25.756 12.754,26.090 12.754,26.259 12.690 C 26.421 12.629,26.633 12.433,26.724 12.259 C 26.816 12.081,26.813 11.713,26.717 11.511 C 26.669 11.409,24.820 9.551,21.941 6.710 C 16.690 1.528,16.649 1.488,16.441 1.382 C 16.275 1.298,16.043 1.289,15.868 1.359 " fill="#282D37" stroke="none" fill-rule="evenodd"></path></svg>