<svg xmlns="http://www.w3.org/2000/svg" width="24" height="24" fill="none"><g clip-path="url(#a)"><path fill="#282D37" fill-rule="evenodd" d="m14.269 2.05 7.684 7.595a1 1 0 0 1-1.313 1.504l-.814-.795-3.388 3.356q.432.636.615 1.342.621 2.55-1.587 5.188c-.63.751-1.225 1.348-1.651 1.693a1 1 0 0 1-1.238.016l-4.61-4.552-4.432 4.388a1 1 0 0 1-1.49-1.328l4.5-4.467-4.5-4.454a1 1 0 0 1-.142-1.245C2.15 9.9 3.07 9.039 3.688 8.553 5.3 7.283 6.975 6.611 8.65 6.928a4.3 4.3 0 0 1 1.623.675l3.387-3.352-.704-.697a1 1 0 0 1 1.312-1.504" clip-rule="evenodd"/></g><defs><clipPath id="a"><path fill="#fff" d="M0 0h24v24H0z"/></clipPath></defs></svg>