<svg xmlns="http://www.w3.org/2000/svg" width="24" height="24" fill="none"><g clip-path="url(#a)"><path fill="#282D37" fill-rule="evenodd" d="m14.269 2.048 7.684 7.595a1 1 0 0 1-1.313 1.504l-.814-.795-3.388 3.356q.432.636.615 1.342.621 2.55-1.587 5.188c-.63.751-1.225 1.348-1.651 1.693a1 1 0 0 1-1.238.016l-4.61-4.552-4.432 4.388a1 1 0 0 1-1.49-1.328l4.5-4.467-4.5-4.454a1 1 0 0 1-.142-1.245C2.15 9.9 3.07 9.037 3.689 8.551 5.302 7.281 6.976 6.61 8.65 6.926a4.3 4.3 0 0 1 1.623.675L13.66 4.25l-.704-.697a1 1 0 0 1 1.31-1.504zM8.276 8.891q-1.732-.34-4.13 1.91l9.06 8.968q2.26-2.374 1.94-4.082c-.113-.707-.51-.98-.613-1.173L9.635 9.656c-.438-.433-.887-.672-1.36-.765m6.805-3.235-3.322 3.29 3.322 3.287 3.322-3.288z" clip-rule="evenodd"/></g><defs><clipPath id="a"><path fill="#fff" d="M0 0h24v24H0z"/></clipPath></defs></svg>