<svg xmlns="http://www.w3.org/2000/svg" width="16" height="16" fill="none"><g clip-path="url(#a)"><path fill="#282D37" fill-rule="evenodd" d="m9.598 1.335 5.053 4.992a.84.84 0 0 1-1.102 1.264l-.422-.408-1.984 1.965q.286.466.387.985c.225 1.16-.242 2.297-1.116 3.384q-.496.626-1.11 1.137a.84.84 0 0 1-1.04.014l-2.908-2.87-2.774 2.748A.84.84 0 0 1 1.33 13.43l2.832-2.814L1.346 7.83a.84.84 0 0 1-.056-1.133 8 8 0 0 1 1.148-1.099c1.095-.862 2.239-1.322 3.401-1.101a3 3 0 0 1 1.004.389l1.982-1.961-.33-.327a.84.84 0 0 1 1.103-1.263" clip-rule="evenodd"/></g><defs><clipPath id="a"><path fill="#fff" d="M0 0h16v16H0z"/></clipPath></defs></svg>