<svg width="14" height="14" viewBox="0 0 14 14" fill="none" xmlns="http://www.w3.org/2000/svg"><path d="M7.691 1.064 C 7.610 1.089,7.537 1.139,7.443 1.233 C 7.284 1.392,7.226 1.538,7.228 1.777 C 7.229 1.992,7.286 2.102,7.527 2.354 L 7.721 2.558 7.133 3.140 C 6.809 3.460,6.417 3.847,6.261 3.999 L 5.977 4.277 5.874 4.216 C 5.723 4.128,5.433 4.017,5.205 3.961 C 4.931 3.894,4.306 3.890,4.014 3.953 C 3.450 4.074,2.826 4.379,2.259 4.811 C 1.806 5.156,1.239 5.701,1.066 5.957 C 0.933 6.154,0.928 6.469,1.056 6.666 C 1.096 6.728,1.693 7.345,2.383 8.038 L 3.638 9.298 2.538 10.383 C 1.465 11.442,1.132 11.791,1.055 11.934 C 1.028 11.984,1.017 12.062,1.018 12.196 C 1.021 12.431,1.092 12.597,1.250 12.737 C 1.407 12.875,1.502 12.912,1.720 12.922 C 1.879 12.930,1.929 12.923,2.012 12.883 C 2.147 12.818,2.407 12.575,3.591 11.410 C 4.145 10.865,4.623 10.404,4.654 10.385 C 4.708 10.352,4.734 10.376,5.885 11.506 C 7.084 12.683,7.303 12.886,7.436 12.942 C 7.478 12.959,7.589 12.973,7.684 12.973 C 7.963 12.973,8.075 12.903,8.543 12.438 C 9.606 11.381,10.127 10.376,10.127 9.384 C 10.127 8.932,10.046 8.589,9.845 8.188 L 9.757 8.011 10.602 7.167 C 11.066 6.703,11.462 6.323,11.481 6.324 C 11.500 6.324,11.604 6.404,11.713 6.501 C 12.030 6.784,12.210 6.841,12.508 6.753 C 12.832 6.656,13.032 6.391,13.032 6.055 C 13.032 5.741,13.117 5.838,11.041 3.784 C 8.856 1.622,8.352 1.136,8.242 1.084 C 8.126 1.029,7.833 1.018,7.691 1.064 " fill="#282D37" stroke="none" fill-rule="evenodd"></path></svg>