<svg width="28" height="28" viewBox="0 0 28 28" fill="none" xmlns="http://www.w3.org/2000/svg"><path d="M15.780 1.408 C 15.516 1.550,15.303 1.845,15.273 2.111 C 15.237 2.426,15.383 2.652,16.083 3.363 C 16.426 3.712,16.707 4.008,16.707 4.023 C 16.707 4.037,15.606 5.133,14.260 6.459 L 11.814 8.870 11.565 8.711 C 10.478 8.017,9.380 7.741,8.120 7.846 C 6.719 7.963,5.208 8.627,3.616 9.825 C 2.946 10.329,1.454 11.804,1.287 12.127 C 1.246 12.206,1.213 12.383,1.213 12.529 L 1.213 12.790 1.724 13.341 C 2.004 13.644,3.432 15.075,4.897 16.521 L 7.560 19.150 4.460 22.233 C 1.383 25.294,1.360 25.318,1.328 25.538 C 1.278 25.885,1.334 26.070,1.559 26.295 C 1.930 26.666,2.265 26.685,2.700 26.361 C 2.845 26.252,3.824 25.312,4.877 24.271 C 5.929 23.231,7.242 21.932,7.794 21.386 L 8.799 20.392 11.179 22.738 C 15.162 26.663,15.196 26.694,15.536 26.693 C 15.766 26.692,16.062 26.510,16.595 26.040 C 17.998 24.803,19.358 22.933,19.927 21.460 C 20.213 20.716,20.306 20.282,20.333 19.549 C 20.349 19.126,20.339 18.752,20.305 18.560 C 20.187 17.879,19.793 16.966,19.395 16.449 L 19.181 16.170 21.642 13.738 L 24.103 11.305 24.766 11.950 C 25.131 12.305,25.496 12.630,25.579 12.673 C 25.816 12.796,26.226 12.747,26.448 12.570 C 26.765 12.317,26.874 11.912,26.721 11.560 C 26.623 11.334,16.991 1.764,16.564 1.468 C 16.308 1.291,16.038 1.270,15.780 1.408 " fill="#282D37" stroke="none" fill-rule="evenodd"></path></svg>