<svg width="20" height="20" viewBox="0 0 20 20" fill="none" xmlns="http://www.w3.org/2000/svg"><path d="M10.986 1.522 C 10.869 1.558,10.770 1.625,10.633 1.761 C 10.408 1.986,10.324 2.198,10.324 2.536 C 10.324 2.838,10.409 3.002,10.752 3.363 L 11.029 3.654 10.190 4.486 C 9.728 4.943,9.168 5.495,8.945 5.713 L 8.539 6.110 8.392 6.023 C 8.176 5.897,7.762 5.739,7.436 5.659 C 7.045 5.563,6.152 5.557,5.734 5.647 C 4.929 5.820,4.037 6.256,3.226 6.874 C 2.558 7.382,1.627 8.288,1.480 8.573 C 1.406 8.717,1.359 9.022,1.384 9.203 C 1.397 9.296,1.450 9.432,1.509 9.524 C 1.566 9.612,2.419 10.493,3.405 11.483 L 5.198 13.283 3.626 14.833 C 1.824 16.611,1.554 16.903,1.480 17.157 C 1.413 17.386,1.458 17.740,1.581 17.948 C 1.677 18.114,1.882 18.300,2.062 18.389 C 2.226 18.469,2.679 18.490,2.836 18.425 C 3.026 18.345,3.329 18.072,4.433 16.984 C 6.262 15.183,6.660 14.800,6.701 14.800 C 6.724 14.800,7.424 15.471,8.257 16.292 C 9.982 17.990,10.394 18.374,10.586 18.467 C 10.684 18.515,10.790 18.533,10.972 18.533 C 11.376 18.533,11.534 18.435,12.204 17.768 C 13.722 16.258,14.467 14.823,14.467 13.406 C 14.467 12.760,14.351 12.270,14.065 11.697 L 13.938 11.444 15.145 10.239 C 15.809 9.576,16.374 9.034,16.401 9.034 C 16.428 9.034,16.578 9.148,16.733 9.287 C 17.186 9.691,17.443 9.773,17.868 9.647 C 18.332 9.509,18.617 9.130,18.617 8.650 C 18.617 8.227,18.630 8.244,16.826 6.447 C 14.581 4.211,12.583 2.250,12.156 1.864 C 11.847 1.585,11.770 1.533,11.629 1.502 C 11.406 1.454,11.184 1.461,10.986 1.522 M14.767 7.349 L 14.917 7.503 13.350 9.060 C 12.365 10.039,11.732 10.694,11.645 10.824 C 11.472 11.083,11.439 11.273,11.515 11.572 C 11.575 11.807,11.633 11.905,11.927 12.263 C 12.038 12.398,12.175 12.603,12.231 12.717 C 12.329 12.915,12.333 12.944,12.333 13.338 C 12.333 13.650,12.317 13.807,12.267 13.983 C 12.124 14.482,11.740 15.143,11.253 15.728 L 10.993 16.039 10.188 15.244 C 9.746 14.807,8.150 13.228,6.643 11.737 L 3.902 9.024 4.126 8.840 C 4.667 8.395,5.606 7.863,6.049 7.750 C 6.174 7.719,6.402 7.700,6.665 7.700 L 7.083 7.700 7.339 7.846 C 7.479 7.926,7.698 8.076,7.825 8.179 C 8.240 8.514,8.586 8.610,8.966 8.496 C 9.162 8.438,9.459 8.166,11.117 6.526 L 12.517 5.142 13.567 6.168 C 14.144 6.733,14.684 7.264,14.767 7.349 " fill="#282D37" stroke="none" fill-rule="evenodd"></path></svg>