<svg width="20" height="20" viewBox="0 0 20 20" fill="none" xmlns="http://www.w3.org/2000/svg"><path d="M10.996 1.513 C 10.595 1.656,10.320 2.049,10.318 2.483 C 10.316 2.841,10.391 2.996,10.738 3.351 L 11.031 3.652 10.074 4.601 C 9.548 5.123,8.988 5.675,8.830 5.828 L 8.543 6.106 8.363 6.005 C 8.144 5.881,7.801 5.749,7.467 5.661 C 7.093 5.563,6.343 5.541,5.896 5.616 C 4.666 5.821,3.364 6.591,2.098 7.863 C 1.473 8.490,1.383 8.637,1.384 9.033 C 1.384 9.498,1.329 9.431,3.380 11.468 L 5.200 13.276 3.405 15.053 C 1.389 17.049,1.452 16.972,1.452 17.433 C 1.452 17.754,1.545 17.973,1.771 18.184 C 1.998 18.397,2.193 18.477,2.483 18.478 C 2.932 18.480,2.870 18.530,4.882 16.542 C 5.871 15.565,6.692 14.770,6.705 14.775 C 6.719 14.779,7.548 15.590,8.547 16.576 C 10.560 18.562,10.538 18.544,10.949 18.546 C 11.248 18.548,11.457 18.462,11.738 18.220 C 12.780 17.328,13.719 16.087,14.145 15.040 C 14.257 14.764,14.384 14.306,14.435 14.000 C 14.485 13.695,14.485 13.098,14.435 12.788 C 14.383 12.469,14.225 11.996,14.069 11.691 L 13.936 11.432 15.154 10.224 C 15.824 9.560,16.384 9.012,16.398 9.007 C 16.412 9.002,16.567 9.132,16.744 9.296 C 17.128 9.652,17.274 9.717,17.646 9.693 C 18.458 9.639,18.900 8.745,18.443 8.078 C 18.392 8.003,16.910 6.521,15.150 4.783 C 12.570 2.235,11.918 1.608,11.783 1.545 C 11.591 1.455,11.201 1.439,10.996 1.513 M14.667 7.249 L 14.917 7.502 13.294 9.110 C 11.464 10.923,11.483 10.899,11.484 11.350 C 11.484 11.657,11.586 11.875,11.881 12.202 C 12.012 12.347,12.155 12.553,12.227 12.698 C 12.347 12.941,12.350 12.954,12.349 13.332 C 12.349 13.632,12.332 13.775,12.272 13.983 C 12.119 14.518,11.749 15.149,11.234 15.753 L 10.992 16.038 10.354 15.410 C 10.004 15.065,8.408 13.487,6.809 11.903 L 3.901 9.025 4.142 8.827 C 4.545 8.498,5.050 8.171,5.443 7.985 C 5.965 7.738,6.169 7.687,6.636 7.685 L 7.022 7.683 7.303 7.823 C 7.468 7.905,7.679 8.048,7.816 8.170 C 8.222 8.532,8.575 8.626,8.999 8.484 C 9.164 8.429,9.270 8.336,10.182 7.448 C 10.733 6.911,11.482 6.172,11.848 5.805 L 12.512 5.137 13.464 6.066 C 13.988 6.577,14.529 7.109,14.667 7.249 " fill="#282D37" stroke="none" fill-rule="evenodd"></path></svg>