<svg width="14" height="14" viewBox="0 0 14 14" fill="none" xmlns="http://www.w3.org/2000/svg"><path d="M7.684 1.893 C 7.554 1.916,7.472 1.962,7.370 2.069 C 7.252 2.193,7.206 2.296,7.192 2.464 C 7.177 2.659,7.247 2.809,7.458 3.033 L 7.618 3.203 6.873 3.931 L 6.127 4.659 5.916 4.559 C 5.656 4.436,5.496 4.393,5.180 4.360 C 4.485 4.288,3.804 4.509,3.029 5.056 C 2.593 5.363,1.965 5.976,1.873 6.182 C 1.820 6.302,1.823 6.568,1.878 6.685 C 1.908 6.748,2.281 7.135,3.020 7.867 L 4.118 8.956 3.102 9.979 C 2.543 10.541,2.040 11.063,1.983 11.138 C 1.896 11.255,1.880 11.294,1.871 11.411 C 1.853 11.665,1.971 11.881,2.197 12.006 C 2.304 12.065,2.347 12.075,2.497 12.075 C 2.645 12.075,2.688 12.065,2.780 12.011 C 2.841 11.976,3.358 11.486,3.946 10.909 C 4.527 10.337,5.008 9.870,5.016 9.870 C 5.023 9.870,5.455 10.286,5.974 10.795 C 7.206 12.001,7.286 12.072,7.441 12.109 C 7.670 12.164,7.833 12.104,8.124 11.860 C 8.641 11.425,9.251 10.605,9.474 10.047 C 9.624 9.671,9.666 9.454,9.668 9.042 C 9.670 8.609,9.631 8.418,9.467 8.066 L 9.372 7.860 10.109 7.122 L 10.847 6.385 11.022 6.551 C 11.233 6.751,11.305 6.791,11.483 6.807 C 11.744 6.831,11.973 6.711,12.098 6.485 C 12.157 6.378,12.168 6.332,12.168 6.195 C 12.168 6.060,12.158 6.013,12.106 5.927 C 12.070 5.866,11.380 5.161,10.461 4.247 C 8.863 2.656,8.176 1.992,8.076 1.938 C 7.998 1.896,7.799 1.874,7.684 1.893 M9.235 4.790 L 9.941 5.496 8.976 6.464 C 7.953 7.490,7.914 7.536,7.892 7.771 C 7.876 7.932,7.937 8.085,8.094 8.282 C 8.170 8.377,8.267 8.513,8.310 8.584 C 8.382 8.703,8.389 8.730,8.396 8.942 C 8.407 9.246,8.358 9.461,8.212 9.749 C 8.095 9.980,7.891 10.279,7.697 10.503 L 7.589 10.628 5.475 8.530 C 4.312 7.377,3.360 6.426,3.360 6.417 C 3.360 6.390,3.680 6.141,3.891 6.003 C 4.296 5.738,4.636 5.617,4.982 5.614 C 5.171 5.613,5.208 5.621,5.350 5.687 C 5.437 5.728,5.591 5.826,5.692 5.904 C 5.881 6.050,6.063 6.137,6.179 6.137 C 6.215 6.137,6.299 6.121,6.365 6.101 C 6.471 6.069,6.541 6.012,6.982 5.590 C 7.255 5.328,7.709 4.882,7.991 4.599 C 8.274 4.315,8.510 4.083,8.517 4.083 C 8.523 4.083,8.846 4.401,9.235 4.790 " fill="#282D37" stroke="none" fill-rule="evenodd"></path></svg>