<svg xmlns="http://www.w3.org/2000/svg" width="20" height="20" fill="none"><g clip-path="url(#a)"><path fill="#282D37" fill-rule="evenodd" d="m11.997 1.67 6.317 6.24a1.05 1.05 0 0 1-1.378 1.58l-.527-.51-2.48 2.455q.358.583.483 1.231c.282 1.45-.302 2.872-1.394 4.23-.413.52-.877.997-1.387 1.422a1.05 1.05 0 0 1-1.3.017l-3.636-3.587-3.468 3.434a1.05 1.05 0 0 1-1.565-1.394l3.54-3.518-3.52-3.483a1.05 1.05 0 0 1-.07-1.416c.295-.357.79-.864 1.436-1.373C4.416 5.92 5.846 5.345 7.299 5.621q.661.126 1.255.486l2.477-2.45-.412-.409a1.05 1.05 0 0 1 1.378-1.579m.527 3.463L9.377 8.248a1.056 1.056 0 0 1-1.477 0c-.327-.323-.65-.514-.993-.564q-1.25-.18-3.006 1.344l7.082 7.01q1.54-1.65 1.368-2.97c-.038-.288-.193-.56-.436-.836-.152-.129-.836-.797-.13-1.63a652 652 0 0 1 3.131-3.1z" clip-rule="evenodd"/></g><defs><clipPath id="a"><path fill="#fff" d="M0 0h20v20H0z"/></clipPath></defs></svg>