<svg width="16" height="16" viewBox="0 0 16 16" fill="none" xmlns="http://www.w3.org/2000/svg"><path d="M8.789 1.215 C 8.697 1.245,8.614 1.302,8.507 1.409 C 8.327 1.589,8.259 1.759,8.259 2.029 C 8.259 2.270,8.327 2.402,8.602 2.691 L 8.823 2.924 8.138 3.602 C 7.762 3.975,7.313 4.417,7.142 4.584 L 6.831 4.888 6.713 4.819 C 6.541 4.718,6.209 4.591,5.948 4.527 C 5.638 4.451,4.924 4.446,4.587 4.518 C 3.946 4.654,3.230 5.005,2.581 5.499 C 2.042 5.909,1.303 6.628,1.184 6.858 C 1.124 6.974,1.087 7.218,1.107 7.363 C 1.117 7.437,1.160 7.546,1.207 7.619 C 1.253 7.689,1.935 8.395,2.724 9.187 L 4.158 10.627 2.901 11.867 C 1.607 13.143,1.276 13.492,1.205 13.653 C 1.137 13.808,1.154 14.133,1.239 14.308 C 1.315 14.462,1.487 14.631,1.647 14.710 C 1.781 14.775,2.142 14.793,2.269 14.740 C 2.420 14.676,2.663 14.457,3.547 13.587 C 5.010 12.147,5.328 11.840,5.361 11.840 C 5.379 11.840,5.939 12.377,6.606 13.033 C 8.446 14.845,8.434 14.835,8.780 14.831 C 9.080 14.828,9.227 14.741,9.692 14.290 C 10.936 13.084,11.573 11.875,11.573 10.725 C 11.573 10.208,11.481 9.816,11.252 9.358 L 11.150 9.155 12.116 8.191 C 12.647 7.661,13.099 7.227,13.121 7.227 C 13.142 7.227,13.262 7.319,13.387 7.430 C 13.749 7.753,13.954 7.818,14.294 7.717 C 14.666 7.607,14.893 7.304,14.893 6.920 C 14.893 6.562,14.992 6.674,12.605 4.312 C 10.118 1.850,9.546 1.298,9.419 1.238 C 9.287 1.176,8.951 1.163,8.789 1.215 " fill="#282D37" stroke="none" fill-rule="evenodd"></path></svg>