<svg width="24" height="24" viewBox="0 0 24 24" fill="none" xmlns="http://www.w3.org/2000/svg"><path d="M13.420 1.875 C 13.221 1.927,13.059 2.028,12.921 2.185 C 12.748 2.383,12.670 2.576,12.667 2.820 C 12.663 3.176,12.735 3.303,13.214 3.791 L 13.658 4.242 12.379 5.524 C 11.675 6.229,10.911 6.982,10.679 7.199 L 10.258 7.592 10.006 7.440 C 8.901 6.776,7.400 6.680,6.042 7.187 C 5.319 7.457,4.631 7.848,3.874 8.418 C 2.988 9.086,2.005 10.051,1.835 10.420 C 1.735 10.639,1.738 11.008,1.842 11.238 C 1.904 11.373,2.478 11.966,4.232 13.706 L 6.540 15.997 4.235 18.288 C 1.726 20.782,1.840 20.648,1.840 21.107 C 1.840 21.239,1.874 21.373,1.944 21.512 C 2.197 22.020,2.782 22.213,3.287 21.957 C 3.402 21.898,4.217 21.116,5.711 19.631 L 7.962 17.393 10.264 19.666 C 11.531 20.917,12.642 21.985,12.733 22.040 C 12.957 22.174,13.380 22.180,13.621 22.053 C 13.969 21.869,14.900 20.938,15.573 20.100 C 16.973 18.356,17.466 16.650,17.038 15.020 C 16.953 14.695,16.672 14.053,16.522 13.843 C 16.477 13.780,16.440 13.720,16.440 13.712 C 16.440 13.703,17.202 12.947,18.133 12.032 L 19.825 10.368 20.263 10.778 C 20.503 11.003,20.763 11.222,20.840 11.263 C 21.044 11.372,21.486 11.366,21.704 11.251 C 22.173 11.003,22.374 10.391,22.143 9.910 C 22.058 9.733,14.362 2.110,14.128 1.971 C 13.964 1.874,13.609 1.826,13.420 1.875 " fill="#282D37" stroke="none" fill-rule="evenodd"></path></svg>