<svg width="24" height="24" viewBox="0 0 24 24" fill="none" xmlns="http://www.w3.org/2000/svg"><path d="M13.234 1.960 C 13.154 2.003,13.032 2.094,12.963 2.163 C 12.750 2.376,12.701 2.506,12.701 2.863 C 12.700 3.245,12.720 3.279,13.296 3.872 L 13.658 4.243 11.976 5.923 L 10.295 7.603 9.957 7.423 C 7.843 6.299,5.601 6.854,3.000 9.148 C 2.488 9.600,2.097 10.012,1.904 10.306 C 1.769 10.510,1.727 10.837,1.801 11.109 C 1.849 11.287,2.017 11.465,4.196 13.652 L 6.540 16.003 4.359 18.172 C 3.160 19.364,2.110 20.425,2.026 20.529 C 1.898 20.686,1.869 20.756,1.851 20.954 C 1.812 21.381,1.994 21.738,2.345 21.927 C 2.617 22.073,2.830 22.100,3.095 22.023 C 3.362 21.946,3.574 21.748,6.167 19.166 L 7.954 17.386 10.107 19.507 C 12.705 22.066,12.698 22.060,12.977 22.123 C 13.274 22.189,13.538 22.120,13.832 21.900 C 14.134 21.673,15.054 20.727,15.489 20.195 C 16.966 18.394,17.490 16.605,17.017 14.975 C 16.915 14.623,16.657 14.033,16.522 13.843 C 16.477 13.780,16.440 13.719,16.440 13.709 C 16.440 13.699,17.201 12.944,18.130 12.031 L 19.820 10.371 20.280 10.789 C 20.533 11.019,20.794 11.237,20.860 11.272 C 20.935 11.313,21.078 11.338,21.240 11.338 C 21.916 11.340,22.376 10.725,22.196 10.060 C 22.160 9.923,21.805 9.550,19.707 7.448 C 16.793 4.528,14.250 2.047,14.070 1.950 C 13.888 1.851,13.430 1.857,13.234 1.960 M16.594 7.156 C 17.400 7.946,18.138 8.673,18.232 8.770 L 18.405 8.948 16.756 10.574 C 15.850 11.468,15.096 12.200,15.082 12.200 C 15.067 12.200,14.313 11.468,13.405 10.574 L 11.755 8.948 11.947 8.750 C 12.530 8.151,15.046 5.720,15.084 5.720 C 15.108 5.720,15.787 6.366,16.594 7.156 M8.660 9.019 C 8.814 9.081,9.012 9.181,9.100 9.241 C 9.556 9.554,14.517 14.464,14.788 14.871 C 15.079 15.309,15.135 15.504,15.137 16.100 C 15.139 16.726,15.084 16.964,14.798 17.555 C 14.491 18.192,14.029 18.853,13.369 19.600 L 13.210 19.780 9.595 16.197 C 7.607 14.226,5.566 12.206,5.060 11.708 L 4.140 10.802 4.300 10.661 C 5.049 9.999,5.656 9.573,6.300 9.257 C 6.940 8.943,7.221 8.877,7.860 8.893 C 8.321 8.904,8.412 8.918,8.660 9.019 " fill="#282D37" stroke="none" fill-rule="evenodd"></path></svg>