<svg xmlns="http://www.w3.org/2000/svg" width="14" height="14" fill="none"><g clip-path="url(#a)"><path fill="#282D37" fill-rule="evenodd" d="m8.398 1.168 4.422 4.368a.735.735 0 0 1-.965 1.106l-.369-.357-1.736 1.72q.25.408.338.861c.198 1.015-.211 2.01-.975 2.961a7 7 0 0 1-.971.996.735.735 0 0 1-.91.011l-2.545-2.51-2.428 2.403a.735.735 0 0 1-1.096-.975l2.478-2.463-2.464-2.438a.735.735 0 0 1-.049-.991 7 7 0 0 1 1.006-.961c.957-.755 1.958-1.157 2.975-.964q.463.088.879.34l1.734-1.716-.289-.285a.735.735 0 0 1 .965-1.106m.369 2.425-2.203 2.18a.74.74 0 0 1-1.034 0c-.229-.225-.455-.36-.695-.394q-.875-.127-2.104.94l4.957 4.907q1.078-1.155.958-2.08c-.027-.2-.135-.391-.305-.584-.107-.09-.586-.557-.091-1.14q1.092-1.09 2.191-2.17z" clip-rule="evenodd"/></g><defs><clipPath id="a"><path fill="#fff" d="M0 0h14v14H0z"/></clipPath></defs></svg>