<svg width="24" height="24" viewBox="0 0 24 24" fill="none" xmlns="http://www.w3.org/2000/svg"><path d="M13.346 1.903 C 13.097 1.982,12.797 2.275,12.729 2.505 C 12.662 2.730,12.668 3.052,12.742 3.231 C 12.776 3.315,12.990 3.569,13.232 3.813 L 13.660 4.245 11.968 5.924 L 10.277 7.603 10.108 7.498 C 9.384 7.048,8.357 6.793,7.540 6.860 C 6.024 6.985,4.606 7.703,2.955 9.182 C 2.394 9.684,1.943 10.181,1.837 10.415 C 1.736 10.637,1.738 11.007,1.841 11.234 C 1.899 11.363,2.507 11.991,4.230 13.702 L 6.540 15.996 4.234 18.288 C 2.223 20.287,1.923 20.601,1.884 20.745 C 1.728 21.326,2.011 21.867,2.556 22.026 C 2.813 22.101,3.048 22.078,3.289 21.955 C 3.398 21.900,4.255 21.076,5.712 19.628 L 7.966 17.386 9.093 18.504 C 12.642 22.022,12.644 22.024,12.875 22.100 C 13.131 22.183,13.399 22.163,13.633 22.043 C 13.949 21.882,14.917 20.912,15.572 20.100 C 16.970 18.366,17.466 16.650,17.038 15.020 C 16.953 14.695,16.672 14.053,16.522 13.843 C 16.477 13.780,16.440 13.720,16.440 13.710 C 16.440 13.701,17.202 12.944,18.133 12.029 L 19.827 10.366 20.263 10.777 C 20.503 11.003,20.759 11.218,20.832 11.256 C 21.305 11.500,21.941 11.259,22.159 10.755 C 22.266 10.506,22.259 10.150,22.143 9.909 C 22.053 9.724,14.305 2.055,14.102 1.951 C 13.905 1.850,13.577 1.829,13.346 1.903 M16.762 7.319 L 18.411 8.939 16.764 10.569 C 15.859 11.466,15.102 12.200,15.083 12.200 C 15.064 12.200,14.306 11.467,13.399 10.571 L 11.750 8.941 13.405 7.313 C 14.315 6.417,15.072 5.687,15.086 5.692 C 15.101 5.696,15.855 6.429,16.762 7.319 M8.573 8.980 C 8.724 9.032,8.948 9.134,9.072 9.207 C 9.364 9.380,14.385 14.322,14.721 14.767 C 14.992 15.127,15.109 15.413,15.153 15.821 C 15.271 16.924,14.746 18.042,13.386 19.580 L 13.209 19.779 9.595 16.195 C 7.607 14.224,5.566 12.205,5.060 11.709 L 4.140 10.807 4.377 10.593 C 5.456 9.619,6.519 9.019,7.413 8.878 C 7.737 8.827,8.266 8.873,8.573 8.980 " fill="#282D37" stroke="none" fill-rule="evenodd"></path></svg>