<svg width="16" height="16" viewBox="0 0 16 16" fill="none" xmlns="http://www.w3.org/2000/svg"><path d="M8.797 1.210 C 8.476 1.325,8.256 1.640,8.254 1.987 C 8.253 2.273,8.313 2.397,8.590 2.681 L 8.825 2.922 8.059 3.681 C 7.638 4.099,7.190 4.540,7.064 4.663 L 6.834 4.885 6.690 4.804 C 6.515 4.705,6.240 4.600,5.973 4.529 C 5.674 4.450,5.074 4.433,4.717 4.493 C 3.733 4.657,2.691 5.273,1.678 6.290 C 1.178 6.792,1.107 6.909,1.107 7.227 C 1.107 7.598,1.063 7.545,2.704 9.175 L 4.160 10.621 2.724 12.043 C 1.111 13.639,1.162 13.577,1.162 13.947 C 1.162 14.203,1.236 14.378,1.417 14.548 C 1.599 14.717,1.755 14.782,1.987 14.783 C 2.346 14.784,2.296 14.824,3.905 13.234 C 4.697 12.452,5.353 11.816,5.364 11.820 C 5.375 11.823,6.038 12.472,6.838 13.261 C 8.448 14.850,8.431 14.835,8.760 14.837 C 8.998 14.838,9.165 14.769,9.391 14.576 C 10.222 13.864,10.976 12.868,11.316 12.032 C 11.405 11.811,11.508 11.445,11.548 11.200 C 11.588 10.956,11.588 10.478,11.548 10.231 C 11.506 9.975,11.380 9.597,11.255 9.353 L 11.149 9.146 12.123 8.180 C 12.659 7.648,13.107 7.210,13.118 7.206 C 13.129 7.202,13.254 7.306,13.395 7.437 C 13.702 7.722,13.820 7.774,14.117 7.754 C 14.767 7.711,15.120 6.996,14.754 6.462 C 14.713 6.402,13.528 5.216,12.120 3.826 C 10.053 1.784,9.535 1.286,9.427 1.236 C 9.273 1.164,8.961 1.151,8.797 1.210 " fill="#282D37" stroke="none" fill-rule="evenodd"></path></svg>