<svg width="32" height="32" viewBox="0 0 32 32" fill="none" xmlns="http://www.w3.org/2000/svg"><path d="M18.043 1.623 C 17.536 1.860,17.313 2.421,17.546 2.878 C 17.610 3.004,17.985 3.437,18.378 3.839 C 18.772 4.241,19.093 4.583,19.093 4.598 C 19.093 4.614,17.835 5.867,16.298 7.382 L 13.502 10.138 13.194 9.941 C 12.743 9.652,11.875 9.254,11.387 9.111 C 10.999 8.998,10.858 8.987,9.840 8.988 C 8.838 8.989,8.672 9.002,8.267 9.112 C 6.449 9.607,4.694 10.636,3.058 12.166 C 2.170 12.996,1.515 13.719,1.438 13.953 C 1.403 14.059,1.385 14.262,1.399 14.405 C 1.423 14.653,1.453 14.695,2.160 15.441 C 2.565 15.868,4.189 17.493,5.770 19.052 L 8.644 21.886 5.099 25.410 C 1.581 28.907,1.554 28.935,1.518 29.186 C 1.498 29.325,1.496 29.518,1.514 29.614 C 1.585 29.993,2.103 30.400,2.514 30.400 C 2.891 30.400,2.895 30.396,8.853 24.496 L 10.053 23.308 13.173 26.380 C 16.388 29.545,16.998 30.127,17.354 30.367 C 17.780 30.654,18.141 30.510,19.046 29.692 C 20.746 28.153,22.213 26.082,22.851 24.320 C 23.128 23.552,23.206 23.156,23.237 22.347 C 23.290 20.945,22.995 19.961,22.180 18.817 L 21.926 18.461 24.738 15.690 L 27.549 12.918 28.308 13.662 C 28.725 14.070,29.149 14.440,29.251 14.483 C 29.996 14.794,30.741 14.166,30.589 13.355 C 30.541 13.096,29.873 12.407,24.887 7.475 C 20.288 2.927,18.976 1.666,18.740 1.567 C 18.494 1.464,18.362 1.475,18.043 1.623 M23.667 9.092 C 24.994 10.413,26.080 11.508,26.080 11.526 C 26.080 11.544,24.830 12.791,23.303 14.296 L 20.526 17.032 17.757 14.264 L 14.988 11.495 15.294 11.182 C 15.462 11.010,16.713 9.777,18.073 8.442 L 20.546 6.016 20.900 6.354 C 21.094 6.540,22.339 7.772,23.667 9.092 M10.965 11.040 C 11.462 11.199,12.121 11.595,12.602 12.024 C 13.291 12.637,19.612 18.916,20.094 19.465 C 20.549 19.985,20.967 20.778,21.070 21.315 C 21.107 21.515,21.123 21.946,21.109 22.409 C 21.089 23.096,21.069 23.224,20.915 23.675 C 20.480 24.947,19.467 26.441,18.165 27.729 L 17.765 28.125 13.466 23.863 C 11.101 21.518,7.950 18.394,6.463 16.921 L 3.760 14.241 4.133 13.891 C 5.611 12.503,7.409 11.371,8.612 11.069 C 9.314 10.893,10.463 10.879,10.965 11.040 " fill="#282D37" stroke="none" fill-rule="evenodd"></path></svg>