<svg xmlns="http://www.w3.org/2000/svg" width="28" height="28" fill="none"><g clip-path="url(#a)"><path fill="#282D37" fill-rule="evenodd" d="M26.55 11.263a.875.875 0 0 1-1.148 1.316l-1.305-1.28-4.91 4.862c3.807 4.633-2.787 10.08-3.105 10.338a.876.876 0 0 1-1.083.014l-6.2-6.127-6.01 5.95a.875.875 0 0 1-1.303-1.163l6.069-6.017-6.103-6.042a.875.875 0 0 1-.126-1.09c1.085-1.333 6.008-6.426 10.493-3.148l4.914-4.865-1.206-1.195a.875.875 0 0 1-.006-1.237c.058-.059.612-.582 1.212 0q1.808 1.75 9.816 9.686z" clip-rule="evenodd"/></g><defs><clipPath id="a"><path fill="#fff" d="M0 0h28v28H0z"/></clipPath></defs></svg>