<svg xmlns="http://www.w3.org/2000/svg" width="16" height="16" fill="none"><g clip-path="url(#a)"><path fill="#282D37" fill-rule="evenodd" d="m9.598 1.335 5.053 4.992a.84.84 0 0 1-1.102 1.264l-.422-.408-1.984 1.965q.286.466.387.985c.225 1.16-.242 2.297-1.116 3.384a7.8 7.8 0 0 1-1.11 1.137.84.84 0 0 1-1.04.014l-2.908-2.87-2.774 2.748A.84.84 0 0 1 1.33 13.43l2.832-2.814L1.346 7.83a.84.84 0 0 1-.056-1.133 8 8 0 0 1 1.148-1.099c1.095-.862 2.239-1.322 3.401-1.101a3 3 0 0 1 1.004.389l1.982-1.961-.33-.327a.84.84 0 0 1 1.103-1.263m.421 2.771L7.502 6.598a.845.845 0 0 1-1.182 0c-.262-.258-.52-.41-.794-.45Q4.526 6 3.12 7.221l5.665 5.608q1.233-1.32 1.095-2.376c-.03-.23-.155-.448-.349-.668-.122-.104-.669-.638-.104-1.304q1.248-1.245 2.505-2.48z" clip-rule="evenodd"/></g><defs><clipPath id="a"><path fill="#fff" d="M0 0h16v16H0z"/></clipPath></defs></svg>