<svg width="14" height="14" viewBox="0 0 14 14" fill="none" xmlns="http://www.w3.org/2000/svg"><path d="M7.684 1.893 C 7.554 1.916,7.472 1.962,7.370 2.069 C 7.252 2.193,7.206 2.296,7.192 2.464 C 7.177 2.659,7.247 2.809,7.458 3.033 L 7.618 3.203 6.873 3.931 L 6.127 4.659 5.916 4.559 C 5.656 4.436,5.496 4.393,5.180 4.360 C 4.485 4.288,3.804 4.509,3.029 5.056 C 2.593 5.363,1.965 5.976,1.873 6.182 C 1.820 6.302,1.823 6.568,1.878 6.685 C 1.908 6.748,2.281 7.135,3.020 7.867 L 4.118 8.956 3.102 9.979 C 2.543 10.541,2.040 11.063,1.983 11.138 C 1.896 11.255,1.880 11.294,1.871 11.411 C 1.853 11.665,1.971 11.881,2.197 12.006 C 2.304 12.065,2.347 12.075,2.497 12.075 C 2.645 12.075,2.688 12.065,2.780 12.011 C 2.841 11.976,3.358 11.486,3.946 10.909 C 4.527 10.337,5.008 9.870,5.016 9.870 C 5.023 9.870,5.455 10.286,5.974 10.795 C 7.206 12.001,7.286 12.072,7.441 12.109 C 7.670 12.164,7.833 12.104,8.124 11.860 C 8.641 11.425,9.251 10.605,9.474 10.047 C 9.624 9.671,9.666 9.454,9.668 9.042 C 9.670 8.609,9.631 8.418,9.467 8.066 L 9.372 7.860 10.109 7.122 L 10.847 6.385 11.022 6.551 C 11.233 6.751,11.305 6.791,11.483 6.807 C 11.744 6.831,11.973 6.711,12.098 6.485 C 12.157 6.378,12.168 6.332,12.168 6.195 C 12.168 6.060,12.158 6.013,12.106 5.927 C 12.070 5.866,11.380 5.161,10.461 4.247 C 8.863 2.656,8.176 1.992,8.076 1.938 C 7.998 1.896,7.799 1.874,7.684 1.893 " fill="#282D37" stroke="none" fill-rule="evenodd"></path></svg>