<svg width="32" height="32" viewBox="0 0 32 32" fill="none" xmlns="http://www.w3.org/2000/svg"><path d="M18.040 1.606 C 17.763 1.743,17.569 1.965,17.496 2.228 C 17.355 2.735,17.452 2.914,18.360 3.825 L 19.116 4.584 18.958 4.750 C 18.871 4.842,17.609 6.091,16.153 7.525 L 13.506 10.134 13.046 9.845 C 12.491 9.497,11.941 9.262,11.257 9.080 C 10.550 8.893,9.311 8.883,8.497 9.057 C 7.013 9.376,5.443 10.183,3.864 11.439 C 3.193 11.972,1.600 13.563,1.479 13.821 C 1.368 14.055,1.359 14.445,1.459 14.683 C 1.503 14.788,2.915 16.226,5.086 18.375 L 8.641 21.895 5.140 25.360 C 2.999 27.478,1.610 28.891,1.566 28.997 C 1.479 29.204,1.472 29.537,1.550 29.743 C 1.669 30.059,2.130 30.396,2.447 30.399 C 2.880 30.403,2.909 30.378,5.413 27.898 C 6.733 26.591,8.318 25.023,8.935 24.413 L 10.057 23.304 13.646 26.845 C 17.389 30.537,17.357 30.509,17.793 30.505 C 18.065 30.503,18.360 30.319,18.961 29.776 C 20.401 28.474,21.713 26.785,22.432 25.307 C 23.029 24.080,23.268 23.145,23.264 22.053 C 23.259 20.849,22.919 19.830,22.185 18.817 L 21.927 18.460 24.741 15.687 L 27.554 12.913 28.270 13.634 C 28.664 14.030,29.076 14.401,29.185 14.457 C 29.417 14.578,29.798 14.591,30.042 14.487 C 30.249 14.398,30.479 14.161,30.557 13.957 C 30.639 13.738,30.626 13.350,30.530 13.146 C 30.483 13.048,28.737 11.280,26.623 9.189 C 20.184 2.821,19.042 1.710,18.826 1.600 C 18.559 1.463,18.324 1.465,18.040 1.606 M23.360 8.775 L 26.116 11.523 23.326 14.273 L 20.536 17.023 17.757 14.258 L 14.978 11.494 17.742 8.763 C 19.263 7.261,20.529 6.031,20.555 6.029 C 20.582 6.028,21.844 7.263,23.360 8.775 M10.853 11.011 C 11.283 11.124,11.867 11.415,12.265 11.714 C 12.726 12.060,19.967 19.243,20.305 19.688 C 20.624 20.110,20.909 20.681,21.048 21.177 C 21.191 21.689,21.181 22.766,21.027 23.337 C 20.785 24.234,20.301 25.159,19.550 26.160 C 19.159 26.681,18.281 27.661,17.933 27.966 L 17.758 28.118 12.653 23.061 C 9.844 20.279,6.695 17.155,5.653 16.118 L 3.760 14.234 4.160 13.860 C 5.517 12.590,7.125 11.538,8.306 11.149 C 9.131 10.877,10.139 10.822,10.853 11.011 " fill="#282D37" stroke="none" fill-rule="evenodd"></path></svg>