<svg xmlns="http://www.w3.org/2000/svg" width="32" height="32" fill="none"><g clip-path="url(#a)"><path fill="#282D37" fill-rule="evenodd" d="M30.343 12.872a1 1 0 0 1-1.312 1.504l-1.491-1.463-5.613 5.557c4.352 5.295-3.184 11.52-3.547 11.814a1 1 0 0 1-1.238.016l-7.086-7.002-6.868 6.8a1 1 0 0 1-1.49-1.329l6.936-6.877-6.975-6.905a1 1 0 0 1-.143-1.245c1.24-1.524 6.866-7.345 11.99-3.598l5.618-5.56-1.38-1.366a1 1 0 0 1-.006-1.414c.067-.067.7-.665 1.386 0q2.066 2 11.218 11.07z" clip-rule="evenodd"/></g><defs><clipPath id="a"><path fill="#fff" d="M0 0h32v32H0z"/></clipPath></defs></svg>