<svg width="28" height="28" viewBox="0 0 28 28" fill="none" xmlns="http://www.w3.org/2000/svg"><path d="M15.785 1.405 C 15.543 1.525,15.373 1.719,15.309 1.950 C 15.186 2.393,15.270 2.550,16.065 3.347 L 16.726 4.011 16.588 4.157 C 16.512 4.237,15.408 5.329,14.134 6.585 L 11.818 8.867 11.415 8.614 C 10.929 8.310,10.449 8.104,9.850 7.945 C 9.231 7.781,8.147 7.772,7.435 7.925 C 6.136 8.204,4.762 8.910,3.381 10.009 C 2.794 10.476,1.400 11.868,1.294 12.094 C 1.197 12.298,1.190 12.639,1.277 12.848 C 1.315 12.940,2.550 14.197,4.450 16.078 L 7.561 19.158 4.497 22.190 C 2.624 24.043,1.409 25.280,1.370 25.372 C 1.294 25.554,1.288 25.845,1.356 26.025 C 1.461 26.302,1.864 26.596,2.141 26.599 C 2.520 26.602,2.545 26.581,4.737 24.411 C 5.892 23.267,7.278 21.895,7.819 21.361 L 8.800 20.390 11.941 23.489 C 15.216 26.720,15.187 26.695,15.569 26.692 C 15.807 26.690,16.065 26.529,16.591 26.054 C 17.851 24.915,18.999 23.437,19.628 22.143 C 20.150 21.070,20.360 20.252,20.356 19.297 C 20.352 18.243,20.054 17.351,19.412 16.465 L 19.186 16.153 21.648 13.726 L 24.110 11.299 24.737 11.929 C 25.081 12.276,25.441 12.600,25.536 12.650 C 25.740 12.756,26.073 12.767,26.286 12.676 C 26.468 12.598,26.669 12.391,26.737 12.212 C 26.809 12.021,26.798 11.681,26.713 11.503 C 26.673 11.417,25.145 9.870,23.295 8.040 C 17.661 2.468,16.662 1.496,16.473 1.400 C 16.239 1.280,16.033 1.282,15.785 1.405 M20.441 7.678 L 22.851 10.083 20.410 12.489 L 17.969 14.894 15.537 12.476 L 13.106 10.057 15.524 7.668 C 16.855 6.353,17.963 5.277,17.987 5.276 C 18.011 5.274,19.115 6.355,20.441 7.678 M9.497 9.634 C 9.873 9.733,10.384 9.988,10.732 10.250 C 11.135 10.553,17.471 16.837,17.767 17.227 C 18.046 17.596,18.296 18.096,18.417 18.529 C 18.542 18.978,18.533 19.920,18.398 20.420 C 18.187 21.205,17.764 22.014,17.106 22.890 C 16.764 23.345,15.996 24.203,15.691 24.470 L 15.539 24.604 11.071 20.178 C 8.614 17.744,5.858 15.010,4.947 14.104 L 3.290 12.455 3.640 12.127 C 4.827 11.017,6.235 10.096,7.268 9.755 C 7.990 9.517,8.871 9.469,9.497 9.634 " fill="#282D37" stroke="none" fill-rule="evenodd"></path></svg>