<svg xmlns="http://www.w3.org/2000/svg" width="32" height="32" fill="none"><g clip-path="url(#a)"><path fill="#282D37" fill-rule="evenodd" d="M19.127 1.804q2.066 2 11.218 11.07a1 1 0 0 1-1.312 1.503l-1.492-1.463-5.613 5.557c4.352 5.295-3.184 11.52-3.547 11.814a1 1 0 0 1-1.238.016l-7.086-7.002-6.867 6.8a1 1 0 0 1-1.49-1.33l6.936-6.876-6.974-6.906a1 1 0 0 1-.143-1.245c1.24-1.524 6.866-7.345 11.99-3.598l5.618-5.56-1.38-1.366a1 1 0 0 1-.006-1.414c.067-.067.7-.665 1.386 0M3.752 14.243l14.032 13.89q5.4-5.234 2.217-8.833l-7.15-7.082q-3.435-3.462-9.1 2.025M20.549 5.99l-5.572 5.516 5.572 5.516 5.572-5.516z" clip-rule="evenodd"/></g><defs><clipPath id="a"><path fill="#fff" d="M0 0h32v32H0z"/></clipPath></defs></svg>