<svg width="14" height="14" viewBox="0 0 14 14" fill="none" xmlns="http://www.w3.org/2000/svg"><path d="M7.661 1.888 C 7.386 1.958,7.187 2.213,7.187 2.495 C 7.187 2.690,7.247 2.814,7.441 3.017 L 7.618 3.203 6.873 3.931 L 6.128 4.660 5.952 4.571 C 5.655 4.423,5.402 4.361,5.040 4.347 C 4.801 4.337,4.674 4.344,4.515 4.374 C 3.964 4.477,3.422 4.743,2.823 5.204 C 2.521 5.436,1.960 6.001,1.894 6.140 C 1.820 6.294,1.806 6.451,1.853 6.617 C 1.892 6.755,1.894 6.757,3.005 7.856 L 4.118 8.957 3.020 10.061 C 1.835 11.251,1.867 11.213,1.867 11.461 C 1.867 11.894,2.290 12.190,2.709 12.051 C 2.826 12.012,2.910 11.935,3.914 10.940 C 4.507 10.351,5.003 9.870,5.017 9.870 C 5.030 9.870,5.530 10.353,6.128 10.944 C 6.789 11.598,7.252 12.037,7.310 12.067 C 7.453 12.140,7.638 12.148,7.795 12.089 C 8.112 11.969,8.852 11.168,9.228 10.538 C 9.520 10.049,9.658 9.617,9.677 9.135 C 9.694 8.695,9.621 8.356,9.433 7.996 C 9.398 7.929,9.369 7.870,9.369 7.863 C 9.369 7.857,9.702 7.522,10.109 7.119 L 10.849 6.386 11.043 6.572 C 11.196 6.719,11.260 6.764,11.351 6.790 C 11.897 6.943,12.353 6.417,12.110 5.915 C 12.046 5.782,8.239 2.020,8.089 1.941 C 7.978 1.883,7.779 1.858,7.661 1.888 " fill="#282D37" stroke="none" fill-rule="evenodd"></path></svg>