<svg xmlns="http://www.w3.org/2000/svg" width="14" height="14" fill="none"><g clip-path="url(#a)"><path fill="#282D37" fill-rule="evenodd" d="m8.198 2.001 3.79 3.744a.63.63 0 0 1-.826.948l-.317-.306-1.488 1.474q.215.35.29.739c.17.87-.181 1.723-.836 2.538a6 6 0 0 1-.832.853.63.63 0 0 1-.78.01L5.017 9.85l-2.08 2.06a.63.63 0 0 1-.94-.836l2.124-2.11-2.112-2.09a.63.63 0 0 1-.042-.85c.177-.215.474-.519.862-.824.82-.647 1.679-.992 2.55-.826q.397.075.753.291l1.487-1.47-.248-.245A.63.63 0 0 1 8.198 2m.316 2.079L6.626 5.949a.634.634 0 0 1-.886 0c-.196-.194-.39-.309-.596-.339q-.75-.108-1.803.807l4.249 4.205q.925-.99.82-1.782c-.022-.172-.115-.336-.261-.5-.091-.078-.502-.479-.078-.979q.936-.933 1.879-1.86z" clip-rule="evenodd"/></g><defs><clipPath id="a"><path fill="#fff" d="M0 0h14v14H0z"/></clipPath></defs></svg>