<svg xmlns="http://www.w3.org/2000/svg" width="28" height="28" fill="none"><g clip-path="url(#a)"><path fill="#282D37" fill-rule="evenodd" d="M16.736 1.578q1.807 1.75 9.816 9.686a.875.875 0 0 1-1.148 1.316l-1.305-1.28-4.911 4.862c3.808 4.633-2.786 10.08-3.104 10.337a.874.874 0 0 1-1.083.014l-6.2-6.127-6.01 5.95a.875.875 0 0 1-1.304-1.163l6.07-6.017-6.103-6.043a.875.875 0 0 1-.125-1.09C2.414 10.69 7.336 5.598 11.82 8.877l4.915-4.865-1.207-1.196a.875.875 0 0 1-.006-1.237c.059-.058.613-.582 1.213 0M3.283 12.462l12.279 12.154q4.725-4.58 1.94-7.729l-6.257-6.197Q8.24 7.661 3.283 12.462m14.697-7.22-4.876 4.826 4.876 4.827 4.875-4.827z" clip-rule="evenodd"/></g><defs><clipPath id="a"><path fill="#fff" d="M0 0h28v28H0z"/></clipPath></defs></svg>