<svg width="28" height="28" viewBox="0 0 28 28" fill="none" xmlns="http://www.w3.org/2000/svg"><path d="M15.788 1.420 C 15.344 1.627,15.149 2.119,15.352 2.518 C 15.409 2.629,15.737 3.007,16.081 3.359 C 16.425 3.711,16.707 4.010,16.707 4.024 C 16.707 4.038,15.607 5.133,14.263 6.457 L 11.819 8.866 11.403 8.615 C 10.924 8.326,10.472 8.125,9.954 7.971 C 9.623 7.873,9.500 7.863,8.610 7.864 C 7.733 7.865,7.588 7.876,7.233 7.973 C 5.644 8.406,4.090 9.316,2.683 10.640 C 1.882 11.394,1.325 12.008,1.258 12.209 C 1.226 12.307,1.213 12.477,1.229 12.611 C 1.255 12.832,1.285 12.872,1.895 13.516 C 2.246 13.887,3.665 15.307,5.048 16.670 L 7.563 19.150 4.462 22.234 C 1.383 25.294,1.360 25.318,1.328 25.538 C 1.311 25.660,1.309 25.828,1.325 25.913 C 1.387 26.244,1.840 26.600,2.200 26.600 C 2.529 26.600,2.559 26.572,7.748 21.433 L 8.799 20.391 11.132 22.691 C 15.135 26.636,15.199 26.694,15.536 26.693 C 15.778 26.692,16.108 26.484,16.665 25.980 C 17.908 24.856,19.125 23.251,19.712 21.963 C 20.151 21.001,20.299 20.424,20.332 19.553 C 20.378 18.327,20.121 17.466,19.407 16.465 L 19.185 16.153 21.645 13.728 L 24.106 11.303 24.769 11.954 C 25.134 12.312,25.505 12.635,25.595 12.672 C 26.247 12.945,26.899 12.395,26.766 11.686 C 26.723 11.459,26.135 10.852,21.776 6.541 C 17.755 2.564,16.604 1.457,16.398 1.371 C 16.182 1.281,16.067 1.291,15.788 1.420 M20.662 7.909 C 21.849 9.090,22.820 10.069,22.820 10.085 C 22.820 10.101,21.727 11.192,20.390 12.509 L 17.960 14.903 15.538 12.481 L 13.115 10.058 13.336 9.831 C 13.457 9.706,14.551 8.627,15.767 7.434 L 17.977 5.264 18.240 5.513 C 18.385 5.650,19.475 6.728,20.662 7.909 M9.419 9.620 C 9.858 9.705,10.536 10.084,11.021 10.516 C 11.631 11.059,17.263 16.654,17.629 17.080 C 17.981 17.491,18.353 18.216,18.436 18.654 C 18.471 18.834,18.484 19.198,18.470 19.611 C 18.451 20.200,18.432 20.326,18.302 20.706 C 17.920 21.833,17.006 23.176,15.850 24.310 L 15.545 24.609 11.783 20.880 C 9.713 18.828,6.956 16.095,5.655 14.805 L 3.290 12.461 3.617 12.153 C 4.600 11.225,5.936 10.306,6.885 9.905 C 7.669 9.573,8.618 9.467,9.419 9.620 " fill="#282D37" stroke="none" fill-rule="evenodd"></path></svg>