<svg width="14" height="14" viewBox="0 0 14 14" fill="none" xmlns="http://www.w3.org/2000/svg"><path d="M7.697 1.059 C 7.417 1.159,7.224 1.435,7.223 1.738 C 7.221 1.989,7.273 2.097,7.516 2.346 L 7.722 2.557 7.052 3.221 C 6.683 3.586,6.291 3.973,6.181 4.080 L 5.980 4.274 5.854 4.203 C 5.701 4.117,5.460 4.025,5.227 3.963 C 4.965 3.894,4.440 3.879,4.127 3.931 C 3.266 4.075,2.355 4.614,1.468 5.504 C 1.031 5.943,0.968 6.046,0.968 6.323 C 0.969 6.649,0.930 6.601,2.366 8.028 L 3.640 9.293 2.383 10.537 C 0.972 11.934,1.016 11.880,1.016 12.203 C 1.016 12.428,1.081 12.581,1.240 12.729 C 1.399 12.878,1.535 12.934,1.738 12.935 C 2.052 12.936,2.009 12.971,3.417 11.580 C 4.110 10.896,4.684 10.339,4.693 10.342 C 4.703 10.346,5.283 10.913,5.983 11.604 C 7.392 12.993,7.377 12.981,7.665 12.982 C 7.874 12.984,8.020 12.923,8.217 12.754 C 8.945 12.131,9.604 11.260,9.901 10.528 C 9.980 10.335,10.069 10.014,10.104 9.800 C 10.139 9.587,10.139 9.168,10.104 8.952 C 10.068 8.728,9.958 8.398,9.848 8.184 L 9.755 8.002 10.608 7.157 C 11.077 6.692,11.469 6.309,11.478 6.305 C 11.488 6.301,11.597 6.392,11.721 6.507 C 11.989 6.757,12.092 6.802,12.352 6.785 C 12.921 6.748,13.230 6.122,12.910 5.654 C 12.874 5.602,11.837 4.564,10.605 3.348 C 8.796 1.561,8.343 1.126,8.249 1.082 C 8.114 1.019,7.841 1.007,7.697 1.059 M10.267 5.074 L 10.442 5.252 9.306 6.377 C 8.025 7.646,8.038 7.629,8.039 7.945 C 8.039 8.160,8.110 8.312,8.317 8.541 C 8.408 8.643,8.509 8.787,8.559 8.889 C 8.643 9.059,8.645 9.068,8.645 9.332 C 8.644 9.542,8.632 9.643,8.591 9.788 C 8.483 10.162,8.224 10.604,7.864 11.027 L 7.694 11.227 7.248 10.787 C 7.003 10.545,5.886 9.441,4.766 8.332 L 2.731 6.317 2.900 6.179 C 3.182 5.948,3.535 5.720,3.810 5.589 C 4.175 5.417,4.318 5.381,4.645 5.379 L 4.915 5.378 5.112 5.476 C 5.228 5.534,5.375 5.633,5.471 5.719 C 5.755 5.972,6.003 6.038,6.299 5.939 C 6.415 5.900,6.489 5.835,7.127 5.213 C 7.513 4.838,8.038 4.320,8.293 4.063 L 8.759 3.596 9.425 4.246 C 9.792 4.604,10.170 4.976,10.267 5.074 " fill="#282D37" stroke="none" fill-rule="evenodd"></path></svg>