<svg width="32" height="32" viewBox="0 0 32 32" fill="none" xmlns="http://www.w3.org/2000/svg"><path d="M15.600 6.106 C 15.378 6.210,15.289 6.290,15.127 6.528 L 14.987 6.735 14.987 10.856 L 14.987 14.977 10.893 14.995 L 6.800 15.013 6.546 15.138 C 6.210 15.304,6.027 15.606,6.027 15.994 C 6.027 16.307,6.107 16.495,6.329 16.700 C 6.653 17.001,6.424 16.985,10.865 17.002 L 14.982 17.018 14.998 21.135 C 15.015 25.666,14.994 25.387,15.342 25.717 C 15.636 25.994,16.069 26.053,16.453 25.867 C 16.747 25.725,16.902 25.500,16.963 25.131 C 16.991 24.962,17.013 23.091,17.013 20.922 L 17.013 17.018 21.133 17.002 C 25.667 16.985,25.392 17.006,25.713 16.658 C 25.922 16.433,25.973 16.303,25.973 16.001 C 25.973 15.694,25.893 15.506,25.671 15.297 C 25.371 15.013,25.491 15.021,21.107 14.998 L 17.013 14.977 17.013 10.873 C 17.013 6.408,17.029 6.637,16.711 6.336 C 16.406 6.046,15.935 5.949,15.600 6.106 " fill="#1A1C1F" stroke="none" fill-rule="evenodd"></path></svg>