<svg xmlns="http://www.w3.org/2000/svg" width="32" height="32" fill="none"><path fill="#1A1C1F" fill-rule="evenodd" d="M15.507 6.137a1.1 1.1 0 0 0-.347.327l-.147.221-.014 4.151-.015 4.151h-3.969c-2.698 0-4.058.019-4.245.059-.751.161-1.022 1.102-.475 1.649.113.113.296.23.408.261.135.038 1.564.057 4.244.057h4.04v4.04c0 2.68.019 4.109.057 4.244.031.112.148.295.261.408.518.518 1.434.293 1.643-.406.049-.164.065-1.221.065-4.252v-4.034h4.04c2.68 0 4.109-.019 4.244-.057.112-.031.295-.148.408-.261.547-.547.276-1.488-.475-1.649-.187-.04-1.547-.059-4.245-.059h-3.969l-.015-4.151-.014-4.151-.147-.221c-.276-.417-.882-.565-1.333-.327"/></svg>