<svg width="24" height="24" viewBox="0 0 24 24" fill="none" xmlns="http://www.w3.org/2000/svg"><path d="M11.752 5.038 C 11.531 5.081,11.296 5.264,11.139 5.515 L 11.000 5.737 11.000 8.366 L 11.000 10.995 8.350 11.007 L 5.700 11.020 5.520 11.126 C 5.165 11.335,5.033 11.573,5.033 12.000 C 5.033 12.427,5.165 12.665,5.520 12.874 L 5.700 12.980 8.348 12.992 L 10.997 13.003 11.008 15.652 L 11.020 18.300 11.126 18.480 C 11.335 18.835,11.573 18.967,12.000 18.967 C 12.427 18.967,12.665 18.835,12.874 18.480 L 12.980 18.300 12.992 15.652 L 13.003 13.003 15.652 12.992 L 18.300 12.980 18.480 12.874 C 18.835 12.665,18.967 12.427,18.967 12.000 C 18.967 11.573,18.835 11.335,18.480 11.126 L 18.300 11.020 15.650 11.007 L 13.000 10.995 13.000 8.376 C 13.000 5.833,12.998 5.752,12.920 5.599 C 12.818 5.401,12.612 5.193,12.436 5.112 C 12.267 5.035,11.948 5.000,11.752 5.038 " fill="#1A1C1F" stroke="none" fill-rule="evenodd"></path></svg>