<svg width="16" height="16" viewBox="0 0 16 16" fill="none" xmlns="http://www.w3.org/2000/svg"><path d="M7.840 3.224 C 7.603 3.275,7.385 3.452,7.267 3.689 L 7.200 3.824 7.200 5.508 L 7.200 7.192 5.500 7.206 L 3.800 7.219 3.667 7.287 C 3.264 7.493,3.097 7.964,3.288 8.353 C 3.371 8.520,3.490 8.633,3.692 8.734 L 3.824 8.800 5.512 8.800 L 7.200 8.800 7.200 10.488 L 7.200 12.176 7.271 12.320 C 7.361 12.500,7.498 12.637,7.668 12.719 C 7.849 12.806,8.146 12.811,8.324 12.729 C 8.456 12.668,8.646 12.491,8.709 12.369 C 8.785 12.222,8.799 11.912,8.799 10.367 L 8.800 8.800 10.367 8.799 C 11.912 8.799,12.222 8.785,12.369 8.709 C 12.491 8.646,12.668 8.456,12.729 8.324 C 12.808 8.149,12.807 7.874,12.725 7.693 C 12.648 7.524,12.503 7.374,12.333 7.287 L 12.200 7.219 10.500 7.206 L 8.800 7.192 8.800 5.508 L 8.800 3.824 8.729 3.682 C 8.643 3.508,8.518 3.380,8.352 3.296 C 8.212 3.225,7.984 3.193,7.840 3.224 " fill="#1A1C1F" stroke="none" fill-rule="evenodd"></path></svg>