<svg width="20" height="20" viewBox="0 0 20 20" fill="none" xmlns="http://www.w3.org/2000/svg"><path d="M9.791 4.035 C 9.481 4.111,9.232 4.314,9.084 4.611 L 9.000 4.780 9.000 6.885 L 9.000 8.990 6.892 9.010 C 5.634 9.022,4.738 9.044,4.672 9.064 C 4.514 9.111,4.291 9.291,4.170 9.468 C 3.855 9.927,4.010 10.554,4.514 10.862 L 4.711 10.983 6.855 10.992 L 9.000 11.001 9.000 13.111 L 9.000 15.220 9.089 15.399 C 9.283 15.788,9.586 15.982,10.000 15.982 C 10.414 15.982,10.717 15.788,10.911 15.399 L 11.000 15.220 11.000 13.111 L 11.000 11.001 13.145 10.992 L 15.289 10.983 15.486 10.862 C 15.990 10.554,16.145 9.927,15.830 9.468 C 15.709 9.291,15.486 9.111,15.328 9.064 C 15.262 9.044,14.366 9.022,13.108 9.010 L 11.000 8.990 11.000 6.885 L 11.000 4.780 10.912 4.603 C 10.803 4.385,10.647 4.225,10.440 4.120 C 10.258 4.028,9.972 3.990,9.791 4.035 " fill="#1A1C1F" stroke="none" fill-rule="evenodd"></path></svg>