<svg width="12" height="12" viewBox="0 0 12 12" fill="none" xmlns="http://www.w3.org/2000/svg"><path d="M5.880 2.418 C 5.703 2.456,5.539 2.589,5.451 2.766 L 5.400 2.868 5.400 4.131 L 5.400 5.394 4.120 5.405 C 2.877 5.416,2.838 5.417,2.754 5.458 C 2.642 5.512,2.512 5.642,2.456 5.758 C 2.390 5.890,2.391 6.112,2.458 6.248 C 2.521 6.376,2.626 6.480,2.760 6.546 L 2.868 6.600 4.134 6.600 L 5.400 6.600 5.400 7.866 L 5.400 9.132 5.454 9.240 C 5.521 9.374,5.636 9.491,5.757 9.547 C 5.893 9.609,6.116 9.607,6.248 9.542 C 6.376 9.479,6.480 9.374,6.546 9.240 L 6.600 9.132 6.600 7.866 L 6.600 6.600 7.866 6.600 L 9.132 6.600 9.240 6.546 C 9.374 6.480,9.479 6.376,9.542 6.248 C 9.609 6.112,9.610 5.890,9.544 5.758 C 9.488 5.642,9.358 5.512,9.246 5.458 C 9.162 5.417,9.123 5.416,7.880 5.405 L 6.600 5.394 6.600 4.131 L 6.600 2.868 6.547 2.762 C 6.482 2.631,6.388 2.535,6.264 2.472 C 6.159 2.419,5.988 2.395,5.880 2.418 " fill="#1A1C1F" stroke="none" fill-rule="evenodd"></path></svg>