<svg width="28" height="28" viewBox="0 0 28 28" fill="none" xmlns="http://www.w3.org/2000/svg"><path d="M13.650 5.343 C 13.456 5.434,13.378 5.504,13.236 5.712 L 13.113 5.893 13.113 9.499 L 13.113 13.105 9.532 13.121 L 5.950 13.137 5.728 13.246 C 5.440 13.388,5.263 13.673,5.263 13.994 C 5.263 14.418,5.575 14.787,5.984 14.845 C 6.119 14.864,7.779 14.881,9.672 14.883 L 13.113 14.887 13.113 18.520 L 13.113 22.154 13.310 22.376 C 13.532 22.629,13.725 22.727,14.000 22.727 C 14.275 22.727,14.468 22.629,14.690 22.376 L 14.887 22.154 14.887 18.520 L 14.887 14.887 18.328 14.883 C 20.221 14.881,21.881 14.864,22.016 14.845 C 22.428 14.786,22.737 14.419,22.734 13.991 C 22.731 13.664,22.560 13.388,22.272 13.246 L 22.050 13.137 18.468 13.121 L 14.887 13.105 14.887 9.514 C 14.887 5.607,14.900 5.808,14.622 5.544 C 14.355 5.290,13.943 5.205,13.650 5.343 " fill="#1A1C1F" stroke="none" fill-rule="evenodd"></path></svg>