<svg width="14" height="14" viewBox="0 0 14 14" fill="none" xmlns="http://www.w3.org/2000/svg"><path d="M6.860 2.821 C 6.653 2.865,6.462 3.020,6.359 3.228 L 6.300 3.346 6.300 4.819 L 6.300 6.293 4.806 6.306 C 3.358 6.319,3.310 6.321,3.213 6.368 C 3.082 6.431,2.931 6.583,2.865 6.717 C 2.788 6.872,2.790 7.131,2.868 7.290 C 2.941 7.439,3.064 7.559,3.220 7.638 L 3.346 7.700 4.823 7.700 L 6.300 7.700 6.300 9.177 L 6.300 10.654 6.362 10.780 C 6.498 11.052,6.710 11.187,7.000 11.187 C 7.290 11.187,7.519 11.040,7.643 10.772 L 7.700 10.652 7.700 9.176 L 7.700 7.700 9.177 7.700 L 10.654 7.700 10.780 7.638 C 10.936 7.559,11.059 7.439,11.132 7.290 C 11.210 7.131,11.212 6.872,11.135 6.717 C 11.069 6.583,10.918 6.431,10.787 6.368 C 10.690 6.321,10.642 6.319,9.194 6.306 L 7.700 6.293 7.700 4.819 L 7.700 3.346 7.638 3.222 C 7.562 3.069,7.453 2.957,7.308 2.884 C 7.186 2.822,6.986 2.794,6.860 2.821 " fill="#1A1C1F" stroke="none" fill-rule="evenodd"></path></svg>