<svg width="16" height="16" viewBox="0 0 16 16" fill="none" xmlns="http://www.w3.org/2000/svg"><path d="M3.840 1.626 C 2.891 1.639,2.833 1.643,2.698 1.698 C 2.313 1.856,1.942 2.201,1.758 2.571 C 1.654 2.781,1.650 2.798,1.626 3.174 C 1.596 3.641,1.594 12.543,1.624 12.914 C 1.643 13.155,1.655 13.197,1.782 13.451 C 1.900 13.688,1.948 13.754,2.130 13.925 C 2.274 14.061,2.411 14.159,2.564 14.236 C 2.783 14.348,2.793 14.350,3.173 14.374 C 3.641 14.404,12.544 14.406,12.914 14.376 C 13.150 14.357,13.198 14.344,13.434 14.227 C 13.783 14.055,14.073 13.771,14.238 13.438 C 14.342 13.228,14.351 13.190,14.374 12.893 C 14.388 12.717,14.399 10.893,14.399 8.840 C 14.399 5.247,14.397 5.103,14.349 4.997 C 14.280 4.845,13.732 4.270,12.370 2.920 C 11.544 2.102,11.175 1.753,11.080 1.703 L 10.947 1.633 7.893 1.622 C 6.214 1.616,4.390 1.618,3.840 1.626 M4.805 4.087 C 4.813 4.955,4.815 4.976,4.876 5.101 C 4.956 5.263,5.137 5.444,5.299 5.524 L 5.427 5.587 7.200 5.587 L 8.973 5.587 9.095 5.527 C 9.251 5.450,9.450 5.251,9.527 5.095 C 9.585 4.977,9.587 4.944,9.595 4.087 L 9.603 3.200 9.995 3.200 L 10.386 3.200 11.593 4.407 L 12.800 5.613 12.800 9.207 L 12.800 12.800 12.000 12.800 L 11.200 12.800 11.200 11.113 L 11.199 9.427 11.120 9.288 C 11.020 9.114,10.877 8.974,10.707 8.884 L 10.573 8.813 8.313 8.805 C 6.016 8.796,5.408 8.813,5.263 8.889 C 5.149 8.949,4.964 9.143,4.877 9.293 L 4.801 9.427 4.800 11.113 L 4.800 12.800 4.000 12.800 L 3.200 12.800 3.200 8.000 L 3.200 3.200 3.998 3.200 L 4.797 3.200 4.805 4.087 M9.600 11.600 L 9.600 12.800 8.000 12.800 L 6.400 12.800 6.400 11.600 L 6.400 10.400 8.000 10.400 L 9.600 10.400 9.600 11.600 " fill="#1A1C1F" stroke="none" fill-rule="evenodd"></path></svg>