<svg width="24" height="24" viewBox="0 0 24 24" fill="none" xmlns="http://www.w3.org/2000/svg"><path d="M5.180 2.039 C 4.423 2.053,3.809 2.082,3.740 2.106 C 2.910 2.399,2.315 3.040,2.076 3.900 C 1.998 4.178,1.992 19.672,2.069 20.080 C 2.145 20.479,2.361 20.877,2.679 21.199 C 3.015 21.540,3.300 21.726,3.707 21.870 L 4.020 21.980 11.920 21.980 C 17.999 21.980,19.880 21.969,20.080 21.931 C 20.477 21.856,20.865 21.644,21.193 21.324 C 21.539 20.987,21.724 20.703,21.870 20.293 L 21.980 19.980 21.991 13.159 L 22.002 6.337 21.874 6.139 C 21.687 5.850,18.107 2.281,17.860 2.137 L 17.660 2.020 12.080 2.017 C 9.011 2.016,5.906 2.026,5.180 2.039 M6.008 5.630 C 6.019 7.111,6.027 7.272,6.092 7.392 C 6.192 7.576,6.446 7.821,6.637 7.918 C 6.794 7.999,6.854 8.000,10.000 8.000 C 13.146 8.000,13.206 7.999,13.363 7.918 C 13.554 7.821,13.808 7.576,13.908 7.392 C 13.973 7.272,13.981 7.111,13.992 5.630 L 14.004 4.000 15.492 4.000 L 16.980 4.000 18.496 5.516 L 20.013 7.033 19.990 13.361 L 19.967 19.690 19.815 19.845 L 19.664 20.000 18.835 20.000 L 18.007 20.000 17.993 16.390 C 17.980 12.989,17.975 12.771,17.906 12.632 C 17.804 12.425,17.481 12.135,17.295 12.084 C 17.091 12.027,6.884 12.023,6.680 12.079 C 6.483 12.134,6.257 12.333,6.119 12.574 L 6.001 12.780 6.000 16.390 L 6.000 20.000 5.172 20.000 L 4.343 20.000 4.192 19.852 L 4.040 19.704 4.040 11.999 L 4.040 4.295 4.160 4.180 C 4.314 4.033,4.455 4.011,5.308 4.005 L 5.996 4.000 6.008 5.630 M12.000 5.000 L 12.000 6.000 10.000 6.000 L 8.000 6.000 8.000 5.000 L 8.000 4.000 10.000 4.000 L 12.000 4.000 12.000 5.000 M16.000 17.000 L 16.000 20.000 12.000 20.000 L 8.000 20.000 8.000 17.000 L 8.000 14.000 12.000 14.000 L 16.000 14.000 16.000 17.000 " fill="#1A1C1F" stroke="none" fill-rule="evenodd"></path></svg>