<svg width="12" height="12" viewBox="0 0 12 12" fill="none" xmlns="http://www.w3.org/2000/svg"><path d="M2.930 1.220 C 2.023 1.231,2.057 1.226,1.783 1.408 C 1.539 1.570,1.369 1.783,1.262 2.058 L 1.210 2.190 1.204 5.810 C 1.201 7.801,1.206 9.531,1.216 9.654 C 1.232 9.863,1.240 9.891,1.328 10.073 C 1.453 10.333,1.664 10.547,1.920 10.676 C 2.088 10.761,2.094 10.762,2.380 10.781 C 2.727 10.803,9.380 10.804,9.675 10.782 C 9.864 10.768,9.894 10.760,10.075 10.671 C 10.338 10.541,10.554 10.328,10.678 10.078 C 10.756 9.921,10.763 9.893,10.781 9.670 C 10.791 9.538,10.799 8.170,10.799 6.630 C 10.799 3.939,10.798 3.827,10.762 3.748 C 10.709 3.632,10.323 3.227,9.298 2.210 C 8.664 1.582,8.381 1.315,8.310 1.277 L 8.210 1.225 5.970 1.217 C 4.738 1.213,3.370 1.215,2.930 1.220 M3.604 3.065 C 3.610 3.724,3.610 3.731,3.659 3.829 C 3.721 3.956,3.844 4.079,3.971 4.141 L 4.070 4.190 5.400 4.190 L 6.730 4.190 6.829 4.141 C 6.956 4.079,7.079 3.956,7.141 3.829 C 7.190 3.731,7.190 3.724,7.196 3.065 L 7.202 2.400 7.496 2.400 L 7.790 2.400 8.695 3.305 L 9.600 4.210 9.600 6.905 L 9.600 9.600 9.000 9.600 L 8.400 9.600 8.400 8.335 L 8.400 7.070 8.342 6.970 C 8.267 6.840,8.154 6.729,8.030 6.663 L 7.930 6.610 6.236 6.604 C 4.513 6.597,4.056 6.610,3.947 6.667 C 3.862 6.711,3.723 6.857,3.658 6.970 L 3.600 7.070 3.600 8.335 L 3.600 9.600 3.000 9.600 L 2.400 9.600 2.400 6.000 L 2.400 2.400 2.999 2.400 L 3.598 2.400 3.604 3.065 M7.200 8.700 L 7.200 9.600 6.000 9.600 L 4.800 9.600 4.800 8.700 L 4.800 7.800 6.000 7.800 L 7.200 7.800 7.200 8.700 " fill="#1A1C1F" stroke="none" fill-rule="evenodd"></path></svg>