<svg xmlns="http://www.w3.org/2000/svg" width="32" height="32" fill="none"><path fill="#1A1C1F" fill-rule="evenodd" d="M4.219 2.111c-.468.126-.913.395-1.313.795a3.1 3.1 0 0 0-.808 1.334C2.004 4.546 2 5.045 2 15.973c0 10.931.004 11.427.098 11.734.158.516.44.996.797 1.354.397.4.81.653 1.332.818l.386.121H16c10.904 0 11.4-.004 11.707-.098a3.3 3.3 0 0 0 1.354-.797c.412-.41.651-.798.814-1.318l.125-.4V17.333c0-9.671-.004-10.06-.098-10.24-.134-.253-4.705-4.834-4.953-4.963-.194-.101-.416-.103-10.32-.1-8.663.003-10.164.015-10.41.081m3.793 4.547.015 2.658.147.213a1.4 1.4 0 0 0 .373.342l.226.129 5.111.014c3.515.01 5.177-.003 5.323-.042.117-.032.305-.141.417-.243.389-.351.376-.244.376-3.137V4h4.079l1.961 1.96L28 7.919v19.264l-.124.235c-.068.13-.226.307-.351.395l-.227.16-1.648.016-1.649.015-.014-5.651-.014-5.651-.16-.227a1.3 1.3 0 0 0-.395-.351L23.183 16h-7.166c-6.348 0-7.19.009-7.365.083a.98.98 0 0 0-.551.53c-.094.203-.099.483-.1 5.803L8 28.004l-1.649-.015-1.649-.016-.227-.16a1.3 1.3 0 0 1-.351-.395L4 27.183V16.017c0-9.959.009-11.188.083-11.365a.98.98 0 0 1 .53-.551c.192-.089.372-.099 1.799-.1L7.997 4zM17.973 6v2h-7.946V4h7.946zm4 17.013V28H10.027v-9.973h11.946z"/></svg>