<svg width="32" height="32" viewBox="0 0 32 32" fill="none" xmlns="http://www.w3.org/2000/svg"><path d="M5.200 2.076 C 4.136 2.107,4.132 2.107,3.787 2.277 C 2.981 2.672,2.321 3.451,2.094 4.272 C 2.006 4.593,2.000 5.278,2.000 15.973 C 2.000 26.664,2.006 27.353,2.094 27.674 C 2.242 28.211,2.493 28.628,2.933 29.067 C 3.362 29.496,3.734 29.722,4.337 29.919 L 4.701 30.038 16.044 30.011 C 24.434 29.992,27.449 29.969,27.627 29.923 C 28.082 29.805,28.613 29.506,28.991 29.156 C 29.418 28.760,29.700 28.312,29.898 27.719 L 30.038 27.300 30.016 17.317 C 29.996 8.185,29.987 7.316,29.907 7.133 C 29.816 6.926,25.301 2.355,24.989 2.155 C 24.836 2.056,24.576 2.053,15.549 2.049 C 10.444 2.047,5.787 2.059,5.200 2.076 M8.000 6.616 C 8.000 9.484,7.987 9.366,8.329 9.687 C 8.721 10.056,8.301 10.032,14.014 10.015 C 18.845 10.001,19.186 9.994,19.365 9.905 C 19.688 9.744,19.885 9.497,19.946 9.178 C 19.978 9.010,20.000 7.879,20.000 6.446 L 20.000 4.000 22.040 4.000 L 24.079 4.000 26.040 5.960 L 28.000 7.919 28.000 17.561 L 28.000 27.202 27.871 27.407 C 27.800 27.519,27.640 27.699,27.515 27.806 L 27.287 28.000 25.644 28.000 L 24.000 28.000 24.000 22.356 L 24.000 16.713 23.806 16.485 C 23.699 16.360,23.517 16.199,23.402 16.126 L 23.193 15.994 15.956 16.010 L 8.720 16.027 8.500 16.170 C 8.379 16.249,8.223 16.405,8.153 16.517 L 8.027 16.720 8.011 22.360 L 7.996 28.000 6.354 28.000 L 4.713 28.000 4.485 27.806 C 4.360 27.699,4.199 27.517,4.126 27.402 L 3.994 27.193 4.010 15.957 L 4.027 4.720 4.173 4.495 C 4.333 4.249,4.563 4.098,4.853 4.048 C 4.956 4.030,5.706 4.012,6.520 4.008 L 8.000 4.000 8.000 6.616 M17.973 6.000 L 17.973 8.000 14.000 8.000 L 10.027 8.000 10.027 6.000 L 10.027 4.000 14.000 4.000 L 17.973 4.000 17.973 6.000 M21.973 23.013 L 21.973 28.000 16.000 28.000 L 10.027 28.000 10.027 23.013 L 10.027 18.027 16.000 18.027 L 21.973 18.027 21.973 23.013 " fill="#1A1C1F" stroke="none" fill-rule="evenodd"></path></svg>