<svg width="28" height="28" viewBox="0 0 28 28" fill="none" xmlns="http://www.w3.org/2000/svg"><path d="M4.550 1.816 C 3.619 1.843,3.616 1.844,3.313 1.992 C 2.609 2.338,2.031 3.019,1.832 3.738 C 1.755 4.019,1.750 4.618,1.750 13.953 C 1.750 21.876,1.762 23.921,1.810 24.125 C 1.910 24.552,2.165 25.018,2.489 25.367 C 2.835 25.741,3.227 25.988,3.746 26.161 L 4.113 26.283 14.038 26.260 C 21.380 26.243,24.018 26.223,24.173 26.182 C 24.632 26.064,25.064 25.808,25.431 25.439 C 25.809 25.059,26.007 24.731,26.179 24.205 L 26.283 23.888 26.264 15.152 C 26.247 7.157,26.239 6.402,26.168 6.241 C 26.089 6.060,22.138 2.061,21.865 1.885 C 21.731 1.799,21.504 1.797,13.605 1.793 C 9.138 1.791,5.063 1.801,4.550 1.816 M7.000 5.789 C 7.000 8.299,6.989 8.195,7.288 8.476 C 7.631 8.799,7.264 8.778,12.262 8.763 C 16.490 8.751,16.787 8.745,16.944 8.667 C 17.227 8.526,17.400 8.310,17.453 8.030 C 17.480 7.884,17.500 6.894,17.500 5.640 L 17.500 3.500 19.285 3.500 L 21.070 3.500 22.785 5.215 L 24.500 6.930 24.500 15.366 L 24.500 23.802 24.387 23.981 C 24.325 24.079,24.185 24.236,24.075 24.330 L 23.877 24.500 22.438 24.500 L 21.000 24.500 21.000 19.562 L 21.000 14.623 20.830 14.425 C 20.736 14.315,20.577 14.174,20.477 14.110 L 20.294 13.995 13.958 14.009 L 7.623 14.023 7.434 14.149 C 7.330 14.217,7.195 14.354,7.134 14.452 L 7.023 14.630 7.010 19.565 L 6.997 24.500 5.560 24.500 L 4.123 24.500 3.925 24.330 C 3.815 24.236,3.674 24.077,3.611 23.977 L 3.495 23.794 3.509 13.962 L 3.523 4.130 3.634 3.952 C 3.765 3.741,4.032 3.561,4.252 3.534 C 4.339 3.524,4.993 3.512,5.705 3.507 L 7.000 3.500 7.000 5.789 M15.727 5.250 L 15.727 7.000 12.250 7.000 L 8.773 7.000 8.773 5.250 L 8.773 3.500 12.250 3.500 L 15.727 3.500 15.727 5.250 M19.227 20.137 L 19.227 24.500 14.000 24.500 L 8.773 24.500 8.773 20.137 L 8.773 15.773 14.000 15.773 L 19.227 15.773 19.227 20.137 " fill="#1A1C1F" stroke="none" fill-rule="evenodd"></path></svg>