<svg xmlns="http://www.w3.org/2000/svg" width="20" height="20" fill="none"><g clip-path="url(#a)"><path fill="#1A1C1F" fill-rule="evenodd" d="M13.4 2a1 1 0 0 1 .608.206l3.7 3.687c.158.167.26.38.292.607V16c0 1.054-1 2-2 2H4c-1.054 0-2-1-2-2V4c0-1.054 1-2 2-2zM6 3.999 4 4v12l2-.001V12c0-.513.5-1 1-1h6c.513 0 1 .5 1 1v3.999L16 16V7.015l-3.016-3.016H12V6c0 .513-.5 1-1 1H7c-.513 0-1-.5-1-1zm6 9H8v3h4z" clip-rule="evenodd"/></g><defs><clipPath id="a"><path fill="#fff" d="M0 0h20v20H0z"/></clipPath></defs></svg>