<svg xmlns="http://www.w3.org/2000/svg" width="16" height="16" fill="none"><g clip-path="url(#a)"><path fill="#1A1C1F" fill-rule="evenodd" d="M10.72 1.6a.8.8 0 0 1 .486.165l2.96 2.95a.9.9 0 0 1 .234.485v7.6c0 .843-.8 1.6-1.6 1.6H3.2c-.843 0-1.6-.8-1.6-1.6V3.2c0-.843.8-1.6 1.6-1.6zM4.8 3.2H3.2v9.6h1.6V9.6c0-.41.4-.8.8-.8h4.8c.41 0 .8.4.8.8v3.2h1.6V5.612l-2.413-2.413H9.6V4.8c0 .41-.4.8-.8.8H5.6c-.41 0-.8-.4-.8-.8zm4.8 7.2H6.4v2.4h3.2z" clip-rule="evenodd"/></g><defs><clipPath id="a"><path fill="#fff" d="M0 0h16v16H0z"/></clipPath></defs></svg>