<svg xmlns="http://www.w3.org/2000/svg" width="28" height="28" fill="none"><g clip-path="url(#a)"><path fill="#1A1C1F" fill-rule="evenodd" d="M21.438 1.75c.193 0 .432.103.584.22l3.972 3.974c.136.137.256.416.256.604v17.077c0 1.398-1.246 2.625-2.625 2.625H4.375c-1.398 0-2.625-1.248-2.625-2.625V4.375c0-1.398 1.182-2.625 2.625-2.625zM7 3.5H4.375a.895.895 0 0 0-.875.875v19.25c0 .449.442.875.875.875H7v-9.625c0-.449.422-.875.875-.875h12.25c.449 0 .875.435.875.875V24.5h2.625c.449 0 .875-.445.875-.875v-16.7L21.074 3.5H17.5v4.375c0 .449-.436.875-.875.875h-8.75C7.426 8.75 7 8.337 7 7.875zm12.25 12.25H8.75v8.75h10.5zM15.75 3.5h-7V7h7z" clip-rule="evenodd"/></g><defs><clipPath id="a"><path fill="#fff" d="M0 0h28v28H0z"/></clipPath></defs></svg>