<svg width="14" height="14" viewBox="0 0 14 14" fill="none" xmlns="http://www.w3.org/2000/svg"><path d="M3.395 1.423 C 2.528 1.434,2.479 1.437,2.361 1.486 C 2.168 1.565,1.951 1.717,1.798 1.880 C 1.639 2.050,1.557 2.181,1.472 2.401 L 1.412 2.555 1.405 6.778 C 1.401 9.101,1.408 11.120,1.419 11.265 C 1.439 11.518,1.445 11.539,1.559 11.770 C 1.662 11.977,1.705 12.035,1.864 12.184 C 1.990 12.304,2.110 12.389,2.243 12.457 C 2.435 12.554,2.444 12.556,2.777 12.577 C 3.186 12.604,10.976 12.605,11.300 12.579 C 11.506 12.563,11.549 12.551,11.755 12.449 C 12.061 12.298,12.314 12.049,12.457 11.758 C 12.548 11.574,12.556 11.544,12.577 11.270 C 12.589 11.104,12.599 9.576,12.599 7.723 C 12.599 4.591,12.597 4.465,12.555 4.372 C 12.495 4.239,12.016 3.736,10.824 2.555 C 10.101 1.839,9.778 1.534,9.695 1.490 L 9.578 1.429 6.942 1.420 C 5.492 1.415,3.895 1.416,3.395 1.423 M4.204 3.576 C 4.212 4.336,4.213 4.354,4.266 4.463 C 4.337 4.605,4.495 4.763,4.637 4.834 L 4.748 4.888 6.300 4.888 L 7.852 4.888 7.963 4.834 C 8.105 4.763,8.263 4.605,8.334 4.463 C 8.387 4.354,8.388 4.336,8.396 3.576 L 8.403 2.800 8.745 2.800 L 9.088 2.800 10.144 3.856 L 11.200 4.911 11.200 8.056 L 11.200 11.200 10.500 11.200 L 9.800 11.200 9.800 9.735 L 9.800 8.269 9.742 8.153 C 9.669 8.005,9.518 7.853,9.368 7.773 L 9.252 7.712 7.275 7.704 C 5.265 7.696,4.732 7.711,4.605 7.778 C 4.505 7.830,4.344 8.000,4.268 8.132 L 4.200 8.248 4.200 9.724 L 4.200 11.200 3.500 11.200 L 2.800 11.200 2.800 7.000 L 2.800 2.800 3.499 2.800 L 4.197 2.800 4.204 3.576 M8.400 10.150 L 8.400 11.200 7.000 11.200 L 5.600 11.200 5.600 10.150 L 5.600 9.100 7.000 9.100 L 8.400 9.100 8.400 10.150 " fill="#1A1C1F" stroke="none" fill-rule="evenodd"></path></svg>