<svg xmlns="http://www.w3.org/2000/svg" width="14" height="14" fill="none"><g clip-path="url(#a)"><path fill="#1A1C1F" fill-rule="evenodd" d="M9.38 1.4a.7.7 0 0 1 .426.144l2.589 2.581a.77.77 0 0 1 .205.425v6.65c0 .738-.7 1.4-1.4 1.4H2.8c-.738 0-1.4-.7-1.4-1.4V2.8c0-.738.7-1.4 1.4-1.4zM4.2 2.8H2.8v8.4h1.4V8.4c0-.359.35-.7.7-.7h4.2c.359 0 .7.35.7.7v2.8h1.4V4.91L9.089 2.8H8.4v1.4c0 .359-.35.7-.7.7H4.9c-.359 0-.7-.35-.7-.7zm4.2 6.3H5.6v2.1h2.8z" clip-rule="evenodd"/></g><defs><clipPath id="a"><path fill="#fff" d="M0 0h14v14H0z"/></clipPath></defs></svg>