<svg width="20" height="20" viewBox="0 0 20 20" fill="none" xmlns="http://www.w3.org/2000/svg"><path d="M4.850 2.033 C 3.611 2.049,3.542 2.053,3.372 2.123 C 2.891 2.320,2.427 2.751,2.198 3.213 C 2.070 3.471,2.063 3.504,2.033 3.933 C 1.996 4.473,1.994 15.755,2.030 16.176 C 2.053 16.436,2.076 16.509,2.227 16.814 C 2.375 17.111,2.435 17.193,2.662 17.406 C 2.843 17.576,3.014 17.699,3.205 17.796 C 3.479 17.934,3.491 17.937,3.967 17.968 C 4.551 18.005,15.680 18.008,16.142 17.971 C 16.438 17.947,16.498 17.929,16.792 17.784 C 17.229 17.568,17.591 17.213,17.797 16.797 C 17.927 16.535,17.939 16.488,17.968 16.116 C 17.985 15.896,17.998 13.617,17.998 11.050 C 17.999 6.558,17.996 6.378,17.936 6.246 C 17.850 6.056,17.165 5.338,15.463 3.650 C 14.431 2.627,13.969 2.192,13.850 2.129 L 13.683 2.042 9.917 2.029 C 7.845 2.022,5.565 2.024,4.850 2.033 M6.006 5.108 C 6.016 6.194,6.018 6.220,6.095 6.376 C 6.195 6.579,6.421 6.805,6.624 6.905 L 6.783 6.983 9.000 6.983 L 11.217 6.983 11.376 6.905 C 11.579 6.805,11.805 6.579,11.905 6.376 C 11.982 6.220,11.984 6.194,11.994 5.108 L 12.004 4.000 12.494 4.000 L 12.983 4.000 14.492 5.508 L 16.000 7.016 16.000 11.508 L 16.000 16.000 15.000 16.000 L 14.000 16.000 14.000 13.907 L 14.000 11.813 13.917 11.647 C 13.812 11.436,13.597 11.218,13.383 11.105 L 13.217 11.017 10.394 11.006 C 7.521 10.995,6.760 11.016,6.579 11.111 C 6.436 11.186,6.205 11.428,6.097 11.617 L 6.001 11.783 6.000 13.892 L 6.000 16.000 5.000 16.000 L 4.000 16.000 4.000 10.000 L 4.000 4.000 4.998 4.000 L 5.996 4.000 6.006 5.108 M12.000 14.500 L 12.000 16.000 10.000 16.000 L 8.000 16.000 8.000 14.500 L 8.000 13.000 10.000 13.000 L 12.000 13.000 12.000 14.500 " fill="#1A1C1F" stroke="none" fill-rule="evenodd"></path></svg>