<svg xmlns="http://www.w3.org/2000/svg" width="12" height="12" fill="none"><g clip-path="url(#a)"><path fill="#1A1C1F" fill-rule="evenodd" d="M8.04 1.2a.6.6 0 0 1 .365.123l2.22 2.213a.66.66 0 0 1 .175.364v5.7c0 .633-.6 1.2-1.2 1.2H2.4c-.633 0-1.2-.6-1.2-1.2V2.4c0-.633.6-1.2 1.2-1.2zM3.6 2.4H2.4v7.2h1.2V7.2c0-.308.3-.6.6-.6h3.6c.308 0 .6.3.6.6v2.4h1.2V4.209L7.79 2.4H7.2v1.2c0 .308-.3.6-.6.6H4.2c-.308 0-.6-.3-.6-.6zm3.6 5.4H4.8v1.8h2.4z" clip-rule="evenodd"/></g><defs><clipPath id="a"><path fill="#fff" d="M0 0h12v12H0z"/></clipPath></defs></svg>