<svg xmlns="http://www.w3.org/2000/svg" width="32" height="32" fill="none"><g clip-path="url(#a)"><path fill="#1A1C1F" fill-rule="evenodd" d="M24.5 2c.221 0 .494.118.668.25l4.54 4.543c.155.156.292.475.292.69V27c0 1.598-1.424 3-3 3H5c-1.598 0-3-1.427-3-3V5c0-1.598 1.351-3 3-3zM8 4H5c-.513 0-1 .443-1 1v22c0 .513.505 1 1 1h3V17c0-.513.482-1 1-1h14c.513 0 1 .497 1 1v11h3c.513 0 1-.508 1-1V7.915L24.085 4H20v5c0 .513-.498 1-1 1H9c-.513 0-1-.471-1-1zm14 14H10v10h12zM18 4h-8v4h8z" clip-rule="evenodd"/></g><defs><clipPath id="a"><path fill="#fff" d="M0 0h32v32H0z"/></clipPath></defs></svg>