<svg xmlns="http://www.w3.org/2000/svg" width="24" height="24" fill="none"><g clip-path="url(#a)"><path fill="#1A1C1F" fill-rule="evenodd" d="M17.4 2a1 1 0 0 1 .608.206 535 535 0 0 1 3.7 3.687c.212.228.263.39.292.607v13c0 1.325-1 2.5-2.5 2.5h-15C3.175 22 2 21 2 19.5v-15C2 3.175 3 2 4.5 2zM6 4H4.5c-.245 0-.5.256-.5.5v15c0 .245.265.5.5.5H6v-7c0-.513.482-1 1-1h10c.513 0 1 .534 1 1v7h1.5c.245 0 .5-.262.5-.5V7.015L16.985 4H14v3c0 .513-.497 1-.999 1H7c-.513 0-1-.504-1-1zm10 10H8v6h8zM12 4H8v2h4z" clip-rule="evenodd"/></g><defs><clipPath id="a"><path fill="#fff" d="M0 0h24v24H0z"/></clipPath></defs></svg>