<svg width="28" height="28" viewBox="0 0 28 28" fill="none" xmlns="http://www.w3.org/2000/svg"><path d="M16.240 5.321 C 14.650 5.510,13.024 6.440,11.840 7.836 L 11.625 8.089 11.271 8.011 C 11.010 7.954,10.686 7.933,10.037 7.933 C 9.254 7.933,9.109 7.946,8.720 8.047 C 7.618 8.335,6.758 8.831,5.994 9.621 C 5.333 10.303,4.982 10.877,4.668 11.785 C 4.485 12.317,4.464 12.353,4.275 12.472 C 3.679 12.850,2.902 13.673,2.512 14.340 C 1.446 16.166,1.523 18.368,2.715 20.099 C 3.035 20.564,3.651 21.190,4.150 21.557 C 4.914 22.119,6.067 22.580,6.981 22.688 C 7.701 22.774,20.337 22.775,21.016 22.690 C 21.573 22.620,22.477 22.334,23.052 22.046 C 23.573 21.785,24.102 21.395,24.579 20.922 C 25.359 20.146,25.787 19.427,26.071 18.410 C 26.246 17.783,26.275 16.732,26.135 16.053 C 25.844 14.642,25.008 13.370,23.818 12.529 L 23.627 12.394 23.600 11.645 C 23.570 10.815,23.496 10.383,23.267 9.713 C 22.705 8.066,21.540 6.734,19.973 5.949 C 19.095 5.509,18.354 5.328,17.313 5.299 C 16.916 5.288,16.433 5.298,16.240 5.321 M17.626 7.069 C 18.601 7.136,19.681 7.652,20.432 8.412 C 21.040 9.026,21.424 9.674,21.686 10.523 C 21.811 10.928,21.816 10.982,21.821 12.017 C 21.823 12.607,21.829 13.116,21.833 13.147 C 21.848 13.268,22.148 13.546,22.534 13.797 C 23.326 14.313,23.793 14.817,24.125 15.513 C 24.363 16.011,24.463 16.474,24.464 17.080 C 24.467 18.088,24.113 18.910,23.339 19.692 C 22.836 20.200,22.256 20.550,21.513 20.792 C 21.136 20.915,21.056 20.923,19.880 20.957 C 19.200 20.976,16.073 20.994,12.932 20.996 L 7.220 21.000 6.725 20.860 C 4.624 20.266,3.316 18.539,3.544 16.662 C 3.680 15.544,4.304 14.577,5.343 13.870 C 6.051 13.389,6.069 13.366,6.234 12.715 C 6.545 11.490,7.254 10.586,8.330 10.045 C 8.836 9.790,9.211 9.698,9.847 9.673 C 10.479 9.647,10.844 9.699,11.567 9.916 C 12.291 10.134,12.453 10.064,12.970 9.310 C 13.598 8.396,14.199 7.860,15.040 7.466 C 15.683 7.165,16.535 6.982,17.080 7.029 C 17.170 7.037,17.416 7.055,17.626 7.069 " fill="#1A1C1F" stroke="none" fill-rule="evenodd"></path></svg>