<svg width="14" height="14" viewBox="0 0 14 14" fill="none" xmlns="http://www.w3.org/2000/svg"><path d="M8.143 2.825 C 7.800 2.866,7.343 2.991,6.996 3.140 C 6.551 3.331,6.216 3.562,5.800 3.969 L 5.569 4.195 5.415 4.211 C 4.430 4.311,3.665 4.789,3.174 5.614 C 3.036 5.845,3.026 5.857,2.863 5.946 C 1.686 6.592,1.125 8.001,1.541 9.263 C 1.806 10.066,2.411 10.701,3.205 11.011 C 3.684 11.197,3.410 11.184,6.971 11.194 L 10.150 11.202 10.371 11.144 C 10.891 11.005,11.229 10.838,11.586 10.542 C 12.067 10.144,12.389 9.613,12.536 8.974 C 12.602 8.688,12.606 8.149,12.545 7.867 C 12.453 7.446,12.284 7.063,12.040 6.724 L 11.900 6.530 11.900 6.351 C 11.899 5.376,11.543 4.513,10.864 3.837 C 10.361 3.337,9.784 3.021,9.116 2.880 C 8.974 2.850,8.881 2.841,8.423 2.815 C 8.353 2.811,8.227 2.815,8.143 2.825 M8.854 4.259 C 9.482 4.388,10.071 4.878,10.325 5.480 C 10.490 5.872,10.526 6.270,10.441 6.798 L 10.397 7.074 10.501 7.158 C 10.665 7.290,10.896 7.535,10.981 7.668 C 11.082 7.826,11.169 8.089,11.189 8.298 C 11.248 8.901,10.819 9.533,10.217 9.732 L 10.045 9.788 7.000 9.788 L 3.955 9.788 3.783 9.732 C 2.990 9.470,2.580 8.538,2.940 7.812 C 3.142 7.407,3.417 7.187,3.932 7.021 L 4.153 6.950 4.213 6.753 C 4.363 6.260,4.605 5.947,4.976 5.764 C 5.322 5.593,5.540 5.573,6.061 5.661 C 6.180 5.681,6.292 5.692,6.310 5.685 C 6.328 5.679,6.387 5.596,6.441 5.502 C 6.727 5.003,6.920 4.778,7.245 4.562 C 7.451 4.425,7.655 4.331,7.887 4.268 C 8.086 4.213,8.609 4.208,8.854 4.259 " fill="#1A1C1F" stroke="none" fill-rule="evenodd"></path></svg>