<svg width="16" height="16" viewBox="0 0 16 16" fill="none" xmlns="http://www.w3.org/2000/svg"><path d="M9.360 3.219 C 9.160 3.240,8.695 3.342,8.458 3.418 C 7.714 3.655,7.212 3.962,6.632 4.536 L 6.370 4.794 6.192 4.812 C 5.062 4.927,4.189 5.473,3.626 6.418 C 3.471 6.680,3.457 6.694,3.272 6.795 C 2.208 7.380,1.554 8.535,1.609 9.733 C 1.667 11.015,2.460 12.115,3.663 12.583 C 4.210 12.797,3.897 12.782,7.969 12.793 L 11.605 12.803 11.897 12.721 C 12.291 12.611,12.561 12.504,12.800 12.363 C 13.429 11.991,13.933 11.397,14.180 10.739 C 14.335 10.327,14.383 10.065,14.384 9.613 C 14.387 8.886,14.203 8.316,13.768 7.701 L 13.600 7.464 13.600 7.259 C 13.600 7.009,13.561 6.646,13.503 6.361 C 13.202 4.860,11.952 3.615,10.422 3.292 C 10.189 3.243,9.549 3.199,9.360 3.219 M10.122 4.868 C 10.841 5.016,11.509 5.572,11.801 6.265 C 11.989 6.711,12.029 7.167,11.933 7.769 L 11.883 8.085 12.001 8.180 C 12.189 8.331,12.453 8.611,12.550 8.763 C 12.665 8.944,12.765 9.244,12.788 9.483 C 12.855 10.179,12.355 10.908,11.663 11.122 L 11.453 11.187 7.987 11.187 L 4.520 11.187 4.324 11.122 C 3.417 10.823,2.949 9.758,3.360 8.928 C 3.590 8.465,3.906 8.213,4.494 8.024 L 4.746 7.943 4.815 7.718 C 4.986 7.155,5.255 6.807,5.682 6.592 C 6.078 6.392,6.327 6.368,6.927 6.470 C 7.063 6.493,7.191 6.506,7.212 6.498 C 7.232 6.490,7.299 6.396,7.361 6.288 C 7.692 5.711,7.913 5.453,8.280 5.212 C 8.528 5.050,8.765 4.944,9.027 4.878 C 9.272 4.816,9.845 4.811,10.122 4.868 " fill="#1A1C1F" stroke="none" fill-rule="evenodd"></path></svg>