<svg xmlns="http://www.w3.org/2000/svg" width="20" height="20" fill="none"><g clip-path="url(#a)"><path fill="#fff" d="M0 0h20v20H0z"/><path fill="#282D37" fill-rule="evenodd" d="M8.182 5.772 8 6l-.204.005A4 4 0 0 0 4.387 8.28l-.033.074-.074.034A4.002 4.002 0 0 0 6 16l8.205-.005A4.006 4.006 0 0 0 18 12l-.007-.237a4 4 0 0 0-.92-2.324l-.086-.096A5 5 0 0 0 12 4c-1.409.066-2.934.726-3.818 1.772" clip-rule="evenodd"/></g><defs><clipPath id="a"><path fill="#fff" d="M0 0h20v20H0z"/></clipPath></defs></svg>