<svg xmlns="http://www.w3.org/2000/svg" width="28" height="28" fill="none"><g clip-path="url(#a)"><path fill="#1A1C1F" fill-rule="evenodd" d="M17.063 5.25c-2.041 0-4.135 1.093-5.304 2.696l-.12.15a5.7 5.7 0 0 0-1.576-.221l-.212.004a5.69 5.69 0 0 0-5.293 4.25l-.06.187c-1.69 1.037-2.748 2.801-2.748 4.746 0 3.16 2.758 5.688 6.125 5.688l12.467-.004c3.284-.113 5.908-2.605 5.908-5.683l-.005-.226c-.076-1.798-1.09-3.453-2.627-4.458q.007-.466.007-.566a6.564 6.564 0 0 0-6.562-6.563m0 1.75a4.812 4.812 0 0 1 4.733 5.688c-.07.381.12.764.466.939 1.377.695 2.238 2.003 2.238 3.435 0 2.1-1.846 3.854-4.204 3.935L7.875 21C5.443 21 3.5 19.22 3.5 17.063c0-1.42.845-2.717 2.202-3.418a.88.88 0 0 0 .464-.652 3.938 3.938 0 0 1 5.502-3.027.875.875 0 0 0 1.132-.391A4.81 4.81 0 0 1 17.062 7" clip-rule="evenodd"/></g><defs><clipPath id="a"><path fill="#fff" d="M0 0h28v28H0z"/></clipPath></defs></svg>