<svg xmlns="http://www.w3.org/2000/svg" width="12" height="12" fill="none"><g clip-path="url(#a)"><path fill="#1A1C1F" fill-rule="evenodd" d="M4.91 3.463 4.8 3.6l-.122.003a2.4 2.4 0 0 0-2.046 1.365l-.02.044-.044.02A2.4 2.4 0 0 0 3.6 9.6l4.923-.003A2.404 2.404 0 0 0 10.8 7.2l-.004-.142a2.4 2.4 0 0 0-.552-1.395l-.052-.057q.008-.146.008-.206a3 3 0 0 0-3-3c-.845.04-1.76.435-2.29 1.063M7.2 3.6a1.8 1.8 0 0 1 1.772 2.12l-.061.34.264.224a1.2 1.2 0 0 1-.704 2.114L3.6 8.4a1.2 1.2 0 0 1-.349-2.349l.307-.093.093-.306a1.2 1.2 0 0 1 1.355-.835l.418.072.207-.37c.316-.563.91-.919 1.569-.919" clip-rule="evenodd"/></g><defs><clipPath id="a"><path fill="#fff" d="M0 0h12v12H0z"/></clipPath></defs></svg>