<svg xmlns="http://www.w3.org/2000/svg" width="14" height="14" fill="none"><g clip-path="url(#a)"><path fill="#1A1C1F" fill-rule="evenodd" d="M5.728 4.04 5.6 4.2l-.143.004a2.8 2.8 0 0 0-2.386 1.592l-.023.052-.052.023A2.801 2.801 0 0 0 4.2 11.2l5.744-.004A2.804 2.804 0 0 0 12.6 8.4l-.005-.166a2.8 2.8 0 0 0-.644-1.627l-.06-.067q.009-.17.009-.24a3.5 3.5 0 0 0-3.5-3.5c-.986.046-2.054.508-2.672 1.24M8.4 4.2a2.1 2.1 0 0 1 2.067 2.473l-.071.398.308.26a1.4 1.4 0 0 1-.821 2.466L4.2 9.8a1.4 1.4 0 0 1-.407-2.74l.358-.109.108-.358A1.4 1.4 0 0 1 5.84 5.62l.488.084.241-.431A2.1 2.1 0 0 1 8.4 4.2" clip-rule="evenodd"/></g><defs><clipPath id="a"><path fill="#fff" d="M0 0h14v14H0z"/></clipPath></defs></svg>