<svg xmlns="http://www.w3.org/2000/svg" width="24" height="24" fill="none"><g clip-path="url(#a)"><path fill="#fff" d="M0 0h24v24H0z"/><path fill="#282D37" fill-rule="evenodd" d="m10.575 6.076-.174.127-.23-.062A5 5 0 0 0 9 6.003l-.217.004a5 5 0 0 0-4.765 4.564l-.012.186-.153.106a4.5 4.5 0 0 0 2.4 8.133l10.971.001A5.005 5.005 0 0 0 22 14.003l-.006-.236a5 5 0 0 0-1.946-3.728l-.144-.105-.034-.18A6 6 0 0 0 14 5.003c-1.14.053-2.51.435-3.425 1.073" clip-rule="evenodd"/></g><defs><clipPath id="a"><path fill="#fff" d="M0 0h24v24H0z"/></clipPath></defs></svg>