<svg width="20" height="20" viewBox="0 0 20 20" fill="none" xmlns="http://www.w3.org/2000/svg"><path d="M11.750 4.023 C 11.201 4.085,10.501 4.269,10.000 4.483 C 9.352 4.761,8.864 5.100,8.294 5.669 L 7.972 5.992 7.744 6.015 C 6.327 6.159,5.238 6.840,4.533 8.023 C 4.342 8.344,4.319 8.368,4.107 8.485 C 2.998 9.094,2.237 10.181,2.050 11.422 C 1.773 13.260,2.819 15.044,4.577 15.729 C 5.263 15.996,4.870 15.977,9.962 15.991 L 14.506 16.003 14.871 15.902 C 15.630 15.690,16.072 15.466,16.586 15.033 C 17.247 14.476,17.702 13.715,17.908 12.820 C 18.003 12.411,18.009 11.642,17.921 11.239 C 17.790 10.631,17.573 10.139,17.220 9.640 L 17.000 9.330 17.000 9.073 C 16.998 7.681,16.491 6.450,15.520 5.481 C 14.806 4.769,13.978 4.316,13.023 4.115 C 12.754 4.058,11.952 4.000,11.750 4.023 M12.652 6.085 C 13.551 6.270,14.386 6.965,14.751 7.831 C 14.986 8.389,15.036 8.959,14.916 9.712 L 14.853 10.106 15.002 10.225 C 15.236 10.414,15.566 10.764,15.687 10.954 C 15.945 11.356,16.046 11.902,15.951 12.371 C 15.809 13.072,15.294 13.659,14.617 13.891 L 14.350 13.983 10.000 13.983 L 5.650 13.983 5.404 13.902 C 4.271 13.529,3.686 12.198,4.200 11.161 C 4.489 10.578,4.878 10.268,5.618 10.030 L 5.933 9.928 6.019 9.647 C 6.233 8.944,6.568 8.509,7.103 8.239 C 7.597 7.991,7.909 7.960,8.659 8.088 C 8.829 8.116,8.989 8.132,9.015 8.122 C 9.040 8.112,9.124 7.994,9.201 7.860 C 9.610 7.148,9.886 6.826,10.350 6.517 C 10.644 6.322,10.936 6.188,11.267 6.097 C 11.552 6.018,12.299 6.012,12.652 6.085 " fill="#1A1C1F" stroke="none" fill-rule="evenodd"></path></svg>