<svg width="12" height="12" viewBox="0 0 12 12" fill="none" xmlns="http://www.w3.org/2000/svg"><path d="M7.030 2.413 C 6.718 2.451,6.287 2.567,6.000 2.690 C 5.610 2.857,5.313 3.063,4.977 3.401 L 4.784 3.595 4.647 3.609 C 3.796 3.695,3.143 4.104,2.721 4.812 C 2.605 5.007,2.592 5.021,2.464 5.091 C 1.799 5.457,1.342 6.109,1.230 6.853 C 1.063 7.958,1.691 9.026,2.748 9.438 C 3.158 9.598,2.923 9.586,5.977 9.595 L 8.704 9.602 8.923 9.541 C 9.378 9.414,9.643 9.280,9.951 9.020 C 10.348 8.686,10.621 8.229,10.745 7.692 C 10.802 7.446,10.805 6.985,10.753 6.743 C 10.674 6.379,10.544 6.083,10.332 5.784 L 10.200 5.598 10.200 5.444 C 10.199 4.608,9.895 3.870,9.312 3.289 C 8.885 2.863,8.387 2.589,7.820 2.470 C 7.644 2.433,7.155 2.398,7.030 2.413 M7.589 3.650 C 8.126 3.761,8.633 4.184,8.852 4.701 C 8.992 5.033,9.022 5.376,8.950 5.827 L 8.912 6.064 9.001 6.135 C 9.142 6.248,9.340 6.458,9.412 6.572 C 9.499 6.708,9.574 6.933,9.591 7.112 C 9.641 7.635,9.267 8.181,8.748 8.341 L 8.590 8.390 6.000 8.390 L 3.410 8.390 3.260 8.343 C 3.075 8.285,3.039 8.267,2.888 8.153 C 2.437 7.814,2.278 7.185,2.520 6.696 C 2.693 6.349,2.929 6.160,3.371 6.018 L 3.560 5.957 3.611 5.788 C 3.740 5.366,3.941 5.105,4.262 4.944 C 4.558 4.794,4.745 4.776,5.195 4.853 C 5.297 4.870,5.393 4.879,5.409 4.873 C 5.424 4.867,5.475 4.797,5.521 4.716 C 5.689 4.423,5.805 4.262,5.946 4.125 C 6.208 3.871,6.517 3.706,6.870 3.633 C 6.977 3.611,7.453 3.622,7.589 3.650 " fill="#1A1C1F" stroke="none" fill-rule="evenodd"></path></svg>