<svg width="28" height="28" viewBox="0 0 28 28" fill="none" xmlns="http://www.w3.org/2000/svg"><path d="M16.240 5.321 C 14.650 5.510,13.024 6.440,11.840 7.836 L 11.625 8.089 11.271 8.011 C 11.010 7.954,10.686 7.933,10.037 7.933 C 9.254 7.933,9.109 7.946,8.720 8.047 C 7.618 8.335,6.758 8.831,5.994 9.621 C 5.333 10.303,4.982 10.877,4.668 11.785 C 4.485 12.317,4.464 12.353,4.275 12.472 C 3.917 12.699,3.377 13.192,3.040 13.602 C 1.217 15.813,1.350 18.817,3.360 20.864 C 4.102 21.619,4.905 22.110,5.977 22.464 C 6.846 22.751,6.788 22.749,14.140 22.749 C 20.360 22.748,20.817 22.743,21.208 22.664 C 22.597 22.385,23.713 21.804,24.618 20.890 C 25.313 20.189,25.773 19.433,26.015 18.598 C 26.180 18.029,26.226 17.697,26.226 17.080 C 26.226 16.461,26.180 16.131,26.013 15.556 C 25.694 14.455,25.084 13.578,23.982 12.636 L 23.673 12.372 23.640 11.868 C 23.555 10.550,23.334 9.671,22.865 8.781 C 21.960 7.062,20.353 5.838,18.439 5.410 C 17.968 5.305,16.778 5.256,16.240 5.321 " fill="#282D37" stroke="none" fill-rule="evenodd"></path></svg>