<svg width="24" height="24" viewBox="0 0 24 24" fill="none" xmlns="http://www.w3.org/2000/svg"><path d="M13.560 5.044 C 12.563 5.157,11.406 5.547,10.683 6.015 L 10.399 6.199 10.130 6.130 C 9.917 6.076,9.679 6.061,9.000 6.061 C 8.188 6.060,8.119 6.066,7.757 6.167 C 6.648 6.478,5.672 7.128,5.018 7.994 C 4.530 8.639,4.204 9.427,4.048 10.336 C 3.983 10.713,3.972 10.739,3.820 10.876 C 2.939 11.666,2.513 12.258,2.242 13.071 C 2.066 13.599,2.026 13.875,2.027 14.540 C 2.028 15.097,2.041 15.230,2.130 15.563 C 2.363 16.438,2.695 17.020,3.318 17.643 C 3.550 17.876,3.873 18.154,4.036 18.260 C 4.377 18.483,4.912 18.724,5.331 18.842 C 5.880 18.996,6.536 19.010,12.300 18.989 C 17.704 18.970,17.784 18.968,18.092 18.886 C 19.122 18.610,19.836 18.201,20.556 17.478 C 21.247 16.782,21.659 16.019,21.904 14.980 C 21.953 14.773,21.970 14.512,21.969 13.980 C 21.969 13.343,21.957 13.216,21.869 12.880 C 21.560 11.703,20.963 10.767,20.069 10.059 C 19.935 9.953,19.908 9.899,19.818 9.560 C 19.542 8.516,19.082 7.675,18.377 6.926 C 17.374 5.860,16.049 5.199,14.608 5.044 C 14.150 4.995,13.996 4.995,13.560 5.044 M14.380 7.040 C 15.349 7.143,16.160 7.528,16.842 8.210 C 17.312 8.680,17.691 9.348,17.839 9.967 C 17.883 10.150,17.955 10.451,17.999 10.636 C 18.098 11.051,18.185 11.168,18.642 11.504 C 19.220 11.928,19.583 12.394,19.824 13.020 C 19.920 13.268,19.934 13.370,19.951 13.907 C 19.968 14.452,19.960 14.544,19.881 14.806 C 19.631 15.629,19.071 16.305,18.342 16.662 C 17.642 17.005,18.215 16.977,11.784 16.990 C 5.459 17.004,5.969 17.023,5.420 16.749 C 4.927 16.503,4.538 16.113,4.284 15.614 C 4.100 15.251,4.026 14.919,4.029 14.460 C 4.034 13.588,4.441 12.883,5.234 12.371 C 5.655 12.098,5.901 11.854,5.957 11.654 C 5.980 11.569,6.000 11.356,6.000 11.180 C 6.002 10.167,6.373 9.329,7.083 8.733 C 7.938 8.016,8.843 7.853,10.044 8.199 C 10.465 8.321,10.759 8.349,10.927 8.284 C 10.978 8.265,11.218 8.103,11.460 7.926 C 12.181 7.396,12.845 7.114,13.539 7.041 C 13.946 6.998,13.984 6.998,14.380 7.040 " fill="#1A1C1F" stroke="none" fill-rule="evenodd"></path></svg>