<svg xmlns="http://www.w3.org/2000/svg" width="32" height="32" fill="none"><g clip-path="url(#a)"><path fill="#fff" d="M0 0h32v32H0z"/><path fill="#282D37" fill-rule="evenodd" d="M19.5 6c-2.333 0-4.725 1.249-6.062 3.081l-.136.172A6.5 6.5 0 0 0 11.5 9l-.242.004a6.5 6.5 0 0 0-6.05 4.858l-.068.214C3.21 15.26 2 17.276 2 19.5 2 23.11 5.153 26 9 26l14.247-.004C27.001 25.866 30 23.018 30 19.5l-.005-.258c-.087-2.055-1.207-3.908-2.963-5.057Q27 13.615 27 13.5C27 9.358 23.64 6 19.5 6" clip-rule="evenodd"/></g><defs><clipPath id="a"><path fill="#fff" d="M0 0h32v32H0z"/></clipPath></defs></svg>