<svg xmlns="http://www.w3.org/2000/svg" width="16" height="16" fill="none"><g clip-path="url(#a)"><path fill="#fff" d="M0 0h16v16H0z"/><path fill="#282D37" fill-rule="evenodd" d="M6.546 4.618 6.4 4.8l-.163.004a3.2 3.2 0 0 0-2.727 1.82l-.027.06-.059.026A3.201 3.201 0 0 0 4.8 12.8l6.564-.004A3.205 3.205 0 0 0 14.4 9.6l-.006-.19a3.2 3.2 0 0 0-.736-1.859l-.068-.077q.01-.194.01-.274a4 4 0 0 0-4-4c-1.127.053-2.347.58-3.054 1.418" clip-rule="evenodd"/></g><defs><clipPath id="a"><path fill="#fff" d="M0 0h16v16H0z"/></clipPath></defs></svg>