<svg xmlns="http://www.w3.org/2000/svg" width="14" height="14" fill="none"><g clip-path="url(#a)"><path fill="#fff" d="M0 0h14v14H0z"/><path fill="#282D37" fill-rule="evenodd" d="M5.728 4.04 5.6 4.2l-.143.004a2.8 2.8 0 0 0-2.386 1.592l-.023.052-.052.023A2.801 2.801 0 0 0 4.2 11.2l5.744-.004A2.804 2.804 0 0 0 12.6 8.4l-.005-.166a2.8 2.8 0 0 0-.644-1.627l-.06-.067q.009-.17.009-.24a3.5 3.5 0 0 0-3.5-3.5c-.986.046-2.054.508-2.672 1.24" clip-rule="evenodd"/></g><defs><clipPath id="a"><path fill="#fff" d="M0 0h14v14H0z"/></clipPath></defs></svg>