<svg xmlns="http://www.w3.org/2000/svg" width="32" height="32" fill="none"><path fill="#282D37" fill-rule="evenodd" d="M18.342 6.106c-1.571.264-3.138 1.087-4.237 2.226-.263.272-.552.589-.641.705l-.164.21-.45-.104c-.362-.083-.638-.102-1.41-.098-.852.004-1.018.02-1.471.141-1.651.441-2.958 1.351-3.845 2.676-.42.629-.544.882-.79 1.615l-.206.614-.327.214c-.179.118-.53.406-.779.641-1.687 1.598-2.384 3.894-1.835 6.044a6.1 6.1 0 0 0 1.543 2.755c.868.912 1.774 1.489 2.945 1.878 1.189.394.772.377 9.352.377 7.276 0 7.708-.005 8.213-.1 2.143-.4 3.92-1.605 4.937-3.346 1.17-2.003 1.074-4.519-.248-6.507-.324-.488-.999-1.196-1.494-1.569-.217-.163-.396-.338-.396-.388-.009-.53-.116-1.726-.186-2.063a7.52 7.52 0 0 0-6.102-5.915c-.601-.102-1.821-.105-2.409-.006"/></svg>