<svg xmlns="http://www.w3.org/2000/svg" width="28" height="28" fill="none"><g clip-path="url(#a)"><path fill="#fff" d="M0 0h28v28H0z"/><path fill="#282D37" fill-rule="evenodd" d="M17.063 5.25c-2.041 0-4.135 1.093-5.304 2.696l-.12.15a5.7 5.7 0 0 0-1.576-.221l-.212.004a5.69 5.69 0 0 0-5.293 4.25l-.06.187c-1.69 1.037-2.748 2.801-2.748 4.746 0 3.16 2.758 5.688 6.125 5.688l12.467-.004c3.284-.113 5.908-2.605 5.908-5.683l-.005-.226c-.076-1.798-1.055-3.42-2.592-4.425a17 17 0 0 1-.028-.6 6.564 6.564 0 0 0-6.562-6.562" clip-rule="evenodd"/></g><defs><clipPath id="a"><path fill="#fff" d="M0 0h28v28H0z"/></clipPath></defs></svg>