<svg width="12" height="12" viewBox="0 0 12 12" fill="none" xmlns="http://www.w3.org/2000/svg"><path d="M7.030 2.413 C 6.718 2.451,6.287 2.567,6.000 2.690 C 5.610 2.857,5.313 3.063,4.977 3.401 L 4.784 3.595 4.647 3.609 C 3.796 3.695,3.143 4.104,2.721 4.812 C 2.603 5.010,2.593 5.020,2.454 5.096 C 1.568 5.583,1.065 6.606,1.232 7.581 C 1.379 8.433,1.943 9.124,2.747 9.438 C 3.158 9.598,2.923 9.586,5.977 9.595 L 8.704 9.602 8.923 9.541 C 9.378 9.414,9.643 9.280,9.951 9.020 C 10.348 8.686,10.621 8.229,10.745 7.692 C 10.802 7.446,10.805 6.985,10.753 6.743 C 10.674 6.379,10.544 6.083,10.332 5.784 L 10.200 5.598 10.200 5.444 C 10.199 4.608,9.895 3.870,9.312 3.289 C 8.885 2.863,8.387 2.589,7.820 2.470 C 7.644 2.433,7.155 2.398,7.030 2.413 " fill="#282D37" stroke="none" fill-rule="evenodd"></path></svg>