<svg width="32" height="32" viewBox="0 0 32 32" fill="none" xmlns="http://www.w3.org/2000/svg"><path d="M18.584 6.077 C 16.763 6.288,14.886 7.358,13.531 8.956 L 13.286 9.244 12.882 9.156 C 12.583 9.090,12.213 9.067,11.471 9.067 C 10.576 9.067,10.410 9.081,9.966 9.197 C 8.706 9.526,7.724 10.092,6.850 10.996 C 6.095 11.775,5.694 12.431,5.335 13.468 C 5.125 14.077,5.102 14.117,4.886 14.254 C 4.476 14.513,3.860 15.077,3.474 15.545 C 1.669 17.735,1.522 20.674,3.103 22.970 C 3.469 23.502,4.173 24.217,4.743 24.637 C 5.582 25.254,6.926 25.801,7.895 25.920 C 8.238 25.962,10.329 25.991,14.427 26.009 C 20.858 26.038,23.985 25.988,24.560 25.845 C 25.996 25.490,27.121 24.874,28.090 23.910 C 28.982 23.025,29.471 22.202,29.795 21.040 C 29.996 20.323,30.028 19.122,29.868 18.347 C 29.536 16.733,28.580 15.280,27.221 14.319 L 27.002 14.165 26.971 13.309 C 26.937 12.360,26.852 11.866,26.591 11.101 C 25.949 9.219,24.617 7.696,22.827 6.799 C 21.823 6.296,20.976 6.089,19.787 6.056 C 19.332 6.044,18.791 6.053,18.584 6.077 M21.029 8.238 C 22.837 8.763,24.201 10.139,24.784 12.027 C 24.927 12.490,24.932 12.550,24.938 13.733 C 24.941 14.408,24.947 14.989,24.952 15.025 C 24.969 15.156,25.305 15.478,25.674 15.716 C 26.900 16.506,27.614 17.434,27.867 18.560 C 27.983 19.080,27.987 19.969,27.874 20.439 C 27.515 21.944,26.256 23.217,24.587 23.762 C 24.153 23.904,24.071 23.912,22.667 23.950 C 21.860 23.972,18.287 23.992,14.726 23.995 L 8.252 24.000 7.686 23.840 C 5.283 23.161,3.789 21.189,4.050 19.042 C 4.206 17.761,4.927 16.646,6.112 15.853 C 6.899 15.326,6.948 15.260,7.149 14.453 C 7.541 12.883,8.661 11.694,10.213 11.200 C 10.483 11.114,10.771 11.074,11.253 11.054 C 11.977 11.025,12.393 11.084,13.219 11.333 C 14.047 11.581,14.232 11.501,14.823 10.640 C 15.045 10.317,15.389 9.882,15.588 9.672 C 16.445 8.769,17.744 8.143,18.933 8.059 C 19.633 8.009,20.494 8.083,21.029 8.238 " fill="#1A1C1F" stroke="none" fill-rule="evenodd"></path></svg>