<svg xmlns="http://www.w3.org/2000/svg" width="32" height="32" fill="none"><path fill="#1A1C1F" fill-rule="evenodd" d="M18.342 6.106c-1.571.264-3.138 1.087-4.237 2.226-.263.272-.552.589-.641.705l-.164.21-.45-.104c-.362-.083-.638-.102-1.41-.098-.852.004-1.018.02-1.471.141-1.651.441-2.958 1.351-3.845 2.676-.42.629-.544.882-.79 1.615l-.206.614-.327.214c-.179.118-.53.406-.779.641-1.687 1.598-2.384 3.894-1.835 6.044a6.1 6.1 0 0 0 1.543 2.755c.868.912 1.774 1.489 2.945 1.878 1.189.394.772.377 9.352.377 8.571 0 8.072.02 9.284-.374 1.108-.361 1.957-.885 2.802-1.728.577-.575.984-1.132 1.28-1.751.95-1.99.763-4.268-.503-6.145-.344-.51-1.049-1.242-1.521-1.579l-.368-.263-.03-.88c-.031-.938-.106-1.381-.362-2.15a7.5 7.5 0 0 0-5.858-5.018c-.601-.102-1.821-.105-2.409-.006M20.86 8.18a5.5 5.5 0 0 1 3.937 3.88c.181.663.224 1.263.154 2.106l-.063.753.144.246c.094.16.232.296.396.39 1.613.928 2.454 2.157 2.551 3.725.071 1.159-.351 2.25-1.22 3.156-.687.715-1.558 1.202-2.572 1.438-.406.094-.811.099-8.214.099H8.187l-.47-.124c-1.037-.274-1.816-.722-2.5-1.438-.654-.684-1.035-1.454-1.167-2.356-.237-1.623.603-3.324 2.084-4.219.215-.13.492-.332.615-.449.206-.197.233-.256.343-.747.217-.971.594-1.674 1.237-2.305.436-.429.682-.607 1.2-.866 1.068-.535 2.309-.6 3.513-.186.593.203.852.226 1.123.098.215-.102.345-.256.774-.914a5.42 5.42 0 0 1 3.698-2.393c.621-.102 1.583-.056 2.223.106"/></svg>