<svg xmlns="http://www.w3.org/2000/svg" width="32" height="32" fill="none"><g clip-path="url(#a)"><path fill="#1A1C1F" fill-rule="evenodd" d="M19.5 6c-2.333 0-4.725 1.249-6.062 3.081l-.136.172A6.5 6.5 0 0 0 11.5 9l-.242.004a6.5 6.5 0 0 0-6.05 4.858l-.068.214C3.21 15.26 2 17.276 2 19.5 2 23.11 5.153 26 9 26l14.247-.004C27.001 25.866 30 23.018 30 19.5l-.005-.258c-.087-2.055-1.246-3.946-3.003-5.095L27 13.5C27 9.358 23.64 6 19.5 6m0 2a5.5 5.5 0 0 1 5.41 6.5 1 1 0 0 0 .532 1.073C27.016 16.37 28 17.863 28 19.5c0 2.4-2.11 4.403-4.804 4.497L9 24c-2.78 0-5-2.035-5-4.5 0-1.622.965-3.104 2.517-3.906a1 1 0 0 0 .53-.745 4.5 4.5 0 0 1 6.288-3.46 1 1 0 0 0 1.293-.446A5.5 5.5 0 0 1 19.5 8" clip-rule="evenodd"/></g><defs><clipPath id="a"><path fill="#fff" d="M0 0h32v32H0z"/></clipPath></defs></svg>