<svg width="20" height="20" viewBox="0 0 20 20" fill="none" xmlns="http://www.w3.org/2000/svg"><path d="M11.750 4.023 C 11.201 4.085,10.501 4.269,10.000 4.483 C 9.352 4.761,8.864 5.100,8.294 5.669 L 7.972 5.992 7.744 6.015 C 6.327 6.159,5.238 6.840,4.533 8.023 C 4.342 8.344,4.319 8.368,4.107 8.485 C 2.998 9.094,2.237 10.181,2.050 11.422 C 1.773 13.260,2.819 15.044,4.577 15.729 C 5.263 15.996,4.870 15.977,9.962 15.991 L 14.506 16.003 14.871 15.902 C 15.630 15.690,16.072 15.466,16.586 15.033 C 17.247 14.476,17.702 13.715,17.908 12.820 C 18.003 12.411,18.009 11.642,17.921 11.239 C 17.790 10.631,17.573 10.139,17.220 9.640 L 17.000 9.330 17.000 9.073 C 16.998 7.681,16.491 6.450,15.520 5.481 C 14.806 4.769,13.978 4.316,13.023 4.115 C 12.754 4.058,11.952 4.000,11.750 4.023 " fill="#282D37" stroke="none" fill-rule="evenodd"></path></svg>