<svg xmlns="http://www.w3.org/2000/svg" width="24" height="24" fill="none"><g clip-path="url(#a)"><path fill="#1A1C1F" fill-rule="evenodd" d="M12 2c5.5 0 10 4.5 10 10a9.99 9.99 0 0 1-10 10A9.99 9.99 0 0 1 2 12 9.99 9.99 0 0 1 12 2M8 13H4.063c.437 3.563 3.25 6.438 6.937 6.938C9.75 18.344 8.688 15.875 8 13m6.563 0h-4.5c1.124 4.688 3.124 6.813 3.75 6.656.437-.093 1-1.406 1-3.75 0-.844-.094-1.812-.25-2.906m5.374 0h-3.375c.157 1 .22 1.969.22 2.875 0 1-.095 1.938-.282 2.719 1.969-1.375 3.031-3.063 3.438-5.594M7.688 5.281C5.563 6.688 4.376 8.688 4.063 11h3.563a20 20 0 0 1-.219-3q0-1.5.282-2.719m2.72-1.031c-.438 0-1.032 1.313-1.032 3.75 0 .875.063 1.875.25 3h4.531c-1.125-4.625-3.031-6.75-3.75-6.75m2.874-.156C14.562 5.844 15.562 8.25 16.22 11h3.718c-.5-3.562-3.156-6.312-6.656-6.906" clip-rule="evenodd"/></g><defs><clipPath id="a"><path fill="#fff" d="M0 0h24v24H0z"/></clipPath></defs></svg>