<svg xmlns="http://www.w3.org/2000/svg" width="16" height="16" fill="none"><g clip-path="url(#a)"><path fill="#1A1C1F" fill-rule="evenodd" d="M8 1.6c1.701 0 3.325.687 4.527 1.873A6.46 6.46 0 0 1 14.4 8c0 3.528-2.872 6.4-6.4 6.4A6.41 6.41 0 0 1 1.6 8c0-3.528 2.872-6.4 6.4-6.4M5.014 8.796H3.262c.313 1.945 1.803 3.484 3.723 3.903-.726-.773-1.604-2.431-1.97-3.903m4.695 0H6.672c.723 2.517 1.857 3.87 2.452 3.87.381 0 .687-.972.684-2.636 0-.375-.028-.79-.099-1.234m3.03 0h-1.422c.071.45.086.872.093 1.264 0 .548-.054 1.041-.148 1.483.663-.677 1.31-1.583 1.477-2.747M4.722 4.488c-.745.65-1.297 1.719-1.46 2.716h1.436a9 9 0 0 1-.12-1.357c0-.61.076-1.05.144-1.36m4.402-1.155c.63.662 1.612 2.312 1.881 3.87h1.733a4.78 4.78 0 0 0-3.614-3.87m-2.281 0c-.34.08-.625.973-.622 2.637 0 .375.028.79.099 1.234h3.037C8.616 4.687 7.45 3.19 6.843 3.334" clip-rule="evenodd"/></g><defs><clipPath id="a"><path fill="#fff" d="M0 0h16v16H0z"/></clipPath></defs></svg>