<svg width="12" height="12" viewBox="0 0 12 12" fill="none" xmlns="http://www.w3.org/2000/svg"><path d="M5.570 1.223 C 4.814 1.293,4.030 1.568,3.380 1.989 C 2.817 2.355,2.257 2.929,1.915 3.490 C 1.201 4.663,1.014 6.062,1.400 7.358 C 1.571 7.931,1.865 8.498,2.237 8.970 C 2.381 9.153,2.750 9.530,2.945 9.694 C 3.256 9.954,3.745 10.253,4.120 10.411 C 4.484 10.564,4.908 10.684,5.330 10.753 C 5.636 10.803,6.335 10.803,6.669 10.753 C 8.024 10.551,9.246 9.776,10.001 8.642 C 10.796 7.444,11.008 5.925,10.570 4.563 C 10.087 3.064,8.978 1.943,7.490 1.449 C 7.002 1.287,6.652 1.231,6.030 1.214 C 5.876 1.210,5.669 1.214,5.570 1.223 M5.322 2.523 C 5.425 2.558,5.536 2.641,5.698 2.803 C 5.968 3.074,6.163 3.369,6.440 3.925 C 6.728 4.503,7.038 5.344,6.978 5.382 C 6.962 5.392,6.454 5.400,5.847 5.400 L 4.744 5.400 4.717 5.225 C 4.674 4.947,4.680 3.778,4.726 3.475 C 4.775 3.152,4.846 2.880,4.924 2.723 C 5.024 2.522,5.143 2.462,5.322 2.523 M7.160 2.593 C 7.242 2.620,7.419 2.695,7.552 2.759 C 8.406 3.169,9.025 3.843,9.370 4.738 C 9.445 4.931,9.540 5.275,9.540 5.352 L 9.540 5.400 8.901 5.400 C 8.310 5.400,8.262 5.397,8.252 5.365 C 8.247 5.346,8.224 5.252,8.202 5.156 C 8.021 4.378,7.545 3.383,7.051 2.751 C 6.857 2.504,6.862 2.513,6.942 2.530 C 6.980 2.538,7.078 2.566,7.160 2.593 M3.489 3.624 C 3.441 3.909,3.440 4.873,3.488 5.179 C 3.505 5.293,3.520 5.390,3.520 5.394 C 3.520 5.397,3.281 5.400,2.990 5.400 L 2.460 5.400 2.460 5.355 C 2.460 5.285,2.551 4.961,2.632 4.746 C 2.795 4.308,3.055 3.879,3.340 3.574 C 3.431 3.478,3.509 3.403,3.515 3.408 C 3.520 3.413,3.508 3.510,3.489 3.624 M3.781 6.685 C 3.793 6.732,3.844 6.891,3.893 7.040 C 4.182 7.909,4.630 8.776,5.074 9.327 C 5.143 9.413,5.200 9.492,5.200 9.501 C 5.200 9.524,4.943 9.451,4.730 9.366 C 4.285 9.189,3.949 8.989,3.650 8.722 C 3.019 8.158,2.660 7.550,2.472 6.725 L 2.444 6.600 3.101 6.600 L 3.758 6.600 3.781 6.685 M7.287 6.659 C 7.352 6.983,7.354 8.073,7.291 8.520 C 7.230 8.958,7.110 9.306,6.977 9.433 C 6.895 9.511,6.771 9.510,6.620 9.429 C 6.483 9.355,6.202 9.080,6.044 8.865 C 5.785 8.513,5.514 7.998,5.294 7.440 C 5.174 7.136,5.020 6.687,5.020 6.642 C 5.020 6.610,5.113 6.607,6.213 6.603 L 7.275 6.600 7.287 6.659 M9.516 6.783 C 9.384 7.394,9.059 7.983,8.529 8.570 L 8.457 8.650 8.468 8.590 C 8.565 8.055,8.581 7.266,8.507 6.695 L 8.495 6.600 9.025 6.600 L 9.556 6.600 9.516 6.783 " fill="#1A1C1F" stroke="none" fill-rule="evenodd"></path></svg>