<svg width="28" height="28" viewBox="0 0 28 28" fill="none" xmlns="http://www.w3.org/2000/svg"><path d="M12.536 1.849 C 11.063 2.038,9.772 2.435,8.447 3.106 C 6.343 4.173,4.547 5.882,3.365 7.942 C 2.568 9.332,1.997 11.094,1.822 12.703 C 1.751 13.360,1.762 14.775,1.843 15.431 C 2.269 18.872,4.020 21.841,6.859 23.938 C 8.507 25.155,10.733 25.989,12.851 26.184 C 13.594 26.253,15.147 26.214,15.795 26.111 C 18.411 25.695,20.630 24.592,22.510 22.775 C 24.620 20.736,25.917 18.043,26.184 15.149 C 26.252 14.409,26.214 12.854,26.112 12.212 C 25.693 9.579,24.622 7.414,22.799 5.516 C 21.258 3.911,19.242 2.725,17.119 2.174 C 16.156 1.924,15.768 1.868,14.645 1.820 C 13.363 1.765,13.173 1.767,12.536 1.849 M14.075 4.002 C 16.229 6.615,17.748 9.722,18.175 12.390 C 18.216 12.647,18.261 12.914,18.275 12.985 L 18.301 13.113 13.887 13.113 L 9.473 13.113 9.474 13.008 C 9.474 12.831,9.564 12.087,9.642 11.620 C 9.754 10.944,10.045 9.852,10.314 9.100 C 10.746 7.888,10.746 7.890,10.681 7.657 C 10.602 7.374,10.344 7.124,10.058 7.052 C 9.794 6.985,9.615 7.015,9.347 7.169 C 9.104 7.308,8.982 7.551,8.612 8.633 C 8.153 9.974,7.931 10.965,7.767 12.402 L 7.686 13.113 5.619 13.113 L 3.553 13.113 3.573 12.962 C 3.726 11.859,3.873 11.222,4.160 10.434 C 5.275 7.371,7.727 5.016,10.838 4.020 C 11.603 3.775,12.750 3.567,13.418 3.553 L 13.700 3.547 14.075 4.002 M17.206 4.038 C 21.040 5.294,23.803 8.564,24.359 12.507 C 24.386 12.699,24.418 12.914,24.430 12.985 L 24.451 13.113 22.270 13.113 L 20.090 13.113 19.962 12.332 C 19.601 10.124,18.857 8.127,17.600 5.997 C 17.300 5.488,16.529 4.317,16.238 3.928 L 16.087 3.727 16.269 3.759 C 16.368 3.776,16.790 3.902,17.206 4.038 M7.016 14.917 L 7.793 14.948 7.793 15.099 C 7.793 15.352,7.970 16.317,8.146 17.026 C 8.678 19.168,9.769 21.491,11.202 23.532 C 11.432 23.859,11.620 24.146,11.620 24.170 C 11.620 24.285,10.195 23.792,9.397 23.401 C 6.366 21.915,4.147 18.910,3.664 15.637 C 3.624 15.366,3.582 15.086,3.570 15.015 L 3.549 14.887 4.894 14.887 C 5.633 14.887,6.588 14.900,7.016 14.917 M18.340 14.992 C 18.339 15.234,18.196 16.347,18.108 16.805 C 17.970 17.522,17.770 18.198,17.423 19.129 C 17.048 20.135,17.039 20.185,17.174 20.465 C 17.435 21.003,18.122 21.158,18.545 20.773 C 18.906 20.444,19.637 18.292,19.902 16.777 C 19.968 16.401,20.110 15.178,20.112 14.968 C 20.113 14.892,20.248 14.887,22.282 14.887 L 24.451 14.887 24.429 15.015 C 24.416 15.086,24.374 15.353,24.335 15.610 C 23.998 17.805,23.006 19.775,21.443 21.353 C 21.161 21.638,20.762 22.005,20.557 22.167 C 18.856 23.512,16.762 24.336,14.675 24.483 L 14.226 24.514 13.949 24.223 C 13.606 23.863,12.828 22.832,12.360 22.119 C 11.319 20.532,10.458 18.739,10.010 17.227 C 9.866 16.742,9.524 15.177,9.521 14.994 C 9.520 14.910,9.728 14.905,14.222 14.896 L 18.340 14.887 18.340 14.992 " fill="#1A1C1F" stroke="none" fill-rule="evenodd"></path></svg>