<svg xmlns="http://www.w3.org/2000/svg" width="32" height="32" fill="none"><g clip-path="url(#a)"><path fill="#1A1C1F" fill-rule="evenodd" d="M16 2c7.719 0 14 6.281 14 14s-6.281 14-14 14S2 23.719 2 16 8.281 2 16 2m4.969 15H10.875c.594 5.406 4.281 9.813 5.313 11 6.187-.125 11.25-4.906 11.75-11h-4.969c-.063 2.094-.563 4.219-1.5 6.406a.98.98 0 0 1-.907.594 1.014 1.014 0 0 1-1.03-1c0-.125.03-.281.093-.406.844-1.907 1.281-3.782 1.344-5.594M8.875 17H4.062c.438 5.25 4.282 9.563 9.313 10.688-1.687-2.22-4.063-6.094-4.5-10.688m9.5-12.75C20.063 6.469 22.5 10.375 22.938 15h5C27.5 9.656 23.53 5.281 18.374 4.25m-2.75-.219A11.96 11.96 0 0 0 4.062 15h4.75c.094-2.094.594-4.219 1.5-6.406A.98.98 0 0 1 11.22 8c.656 0 1.031.469 1.031 1a1 1 0 0 1-.094.406c-.812 1.906-1.25 3.781-1.344 5.594h10.094c-.593-5.375-4.218-9.812-5.281-10.969" clip-rule="evenodd"/></g><defs><clipPath id="a"><path fill="#fff" d="M0 0h32v32H0z"/></clipPath></defs></svg>