<svg xmlns="http://www.w3.org/2000/svg" width="12" height="12" fill="none"><g clip-path="url(#a)"><path fill="#1A1C1F" fill-rule="evenodd" d="M6 1.2c1.276 0 2.494.515 3.395 1.405A4.84 4.84 0 0 1 10.8 6c0 2.646-2.154 4.8-4.8 4.8A4.807 4.807 0 0 1 1.2 6c0-2.646 2.154-4.8 4.8-4.8M3.76 6.597H2.447A3.59 3.59 0 0 0 5.24 9.524c-.544-.58-1.204-1.823-1.478-2.927m3.522 0H5.004C5.546 8.485 6.397 9.5 6.843 9.5c.286 0 .515-.73.513-1.977 0-.282-.021-.593-.074-.926m2.272 0H8.488c.053.338.064.654.07.948 0 .41-.04.78-.111 1.113.497-.509.982-1.188 1.107-2.06M3.541 3.366c-.559.487-.973 1.29-1.094 2.037h1.077a7 7 0 0 1-.09-1.018c0-.457.057-.787.107-1.02M6.843 2.5c.473.496 1.209 1.733 1.411 2.903h1.3A3.59 3.59 0 0 0 6.842 2.5m-1.711 0c-.255.06-.469.73-.466 1.977 0 .282.02.593.074.926h2.278c-.556-1.888-1.43-3.01-1.886-2.903" clip-rule="evenodd"/></g><defs><clipPath id="a"><path fill="#fff" d="M0 0h12v12H0z"/></clipPath></defs></svg>