<svg width="24" height="24" viewBox="0 0 24 24" fill="none" xmlns="http://www.w3.org/2000/svg"><path d="M11.320 2.027 C 9.856 2.172,8.748 2.478,7.560 3.064 C 6.500 3.587,5.738 4.133,4.920 4.956 C 3.506 6.379,2.575 8.146,2.160 10.196 C 1.972 11.127,1.972 12.873,2.160 13.804 C 2.764 16.788,4.442 19.155,7.022 20.661 C 8.070 21.272,9.548 21.779,10.704 21.922 C 11.216 21.986,12.785 21.986,13.300 21.922 C 14.086 21.825,15.204 21.504,16.075 21.125 C 18.091 20.248,19.866 18.566,20.880 16.574 C 21.375 15.601,21.752 14.434,21.894 13.440 C 22.178 11.443,21.841 9.354,20.945 7.567 C 19.731 5.144,17.498 3.244,14.948 2.465 C 14.043 2.188,13.491 2.095,12.440 2.041 C 11.665 2.001,11.588 2.000,11.320 2.027 M13.960 4.248 C 14.766 4.467,15.628 4.842,16.280 5.259 C 17.760 6.205,18.933 7.684,19.519 9.343 C 19.657 9.733,19.859 10.510,19.902 10.810 L 19.929 11.000 18.071 11.000 L 16.213 11.000 16.161 10.770 C 15.991 10.009,15.483 8.427,15.110 7.500 C 14.655 6.368,14.232 5.542,13.653 4.648 C 13.492 4.399,13.360 4.178,13.360 4.156 C 13.360 4.108,13.549 4.137,13.960 4.248 M10.712 4.354 C 10.785 4.393,10.947 4.513,11.073 4.621 C 12.153 5.549,13.339 7.907,14.015 10.470 L 14.154 11.000 11.980 11.000 C 10.756 11.000,9.763 10.984,9.709 10.963 C 9.620 10.930,9.606 10.886,9.539 10.433 C 9.479 10.035,9.462 9.624,9.450 8.292 C 9.436 6.780,9.441 6.606,9.515 6.172 C 9.664 5.302,9.909 4.635,10.169 4.392 C 10.311 4.259,10.509 4.246,10.712 4.354 M7.620 5.600 C 7.464 6.343,7.430 6.805,7.432 8.120 C 7.435 9.313,7.471 9.947,7.585 10.806 L 7.610 11.000 5.841 11.000 L 4.072 11.000 4.101 10.790 C 4.193 10.117,4.500 9.160,4.845 8.471 C 5.249 7.665,5.611 7.155,6.239 6.506 C 6.735 5.994,7.608 5.275,7.665 5.332 C 7.670 5.337,7.650 5.458,7.620 5.600 M8.041 13.170 C 8.692 15.693,9.545 17.792,10.503 19.228 C 10.733 19.571,10.920 19.869,10.920 19.890 C 10.920 19.937,10.696 19.902,10.180 19.774 C 7.618 19.138,5.567 17.384,4.594 14.995 C 4.397 14.511,4.158 13.666,4.102 13.253 C 4.075 13.058,4.079 13.045,4.167 13.029 C 4.218 13.019,5.101 13.008,6.128 13.005 L 7.997 13.000 8.041 13.170 M14.576 13.150 C 14.724 14.111,14.737 14.326,14.738 15.860 C 14.740 17.203,14.730 17.470,14.668 17.780 C 14.498 18.636,14.226 19.344,13.991 19.541 C 13.743 19.750,13.439 19.640,12.962 19.167 C 12.134 18.347,11.296 16.851,10.682 15.100 C 10.523 14.646,10.080 13.160,10.080 13.081 C 10.080 13.021,10.298 13.014,12.466 13.007 L 14.553 13.000 14.576 13.150 M19.798 13.026 C 19.922 13.050,19.925 13.055,19.898 13.216 C 19.850 13.500,19.649 14.287,19.539 14.620 C 19.401 15.040,18.862 16.136,18.596 16.540 C 18.243 17.076,16.642 18.616,16.542 18.516 C 16.532 18.506,16.540 18.426,16.560 18.339 C 16.739 17.527,16.823 16.157,16.761 15.025 C 16.718 14.228,16.630 13.313,16.576 13.097 L 16.551 13.000 18.111 13.000 C 18.968 13.000,19.727 13.011,19.798 13.026 " fill="#1A1C1F" stroke="none" fill-rule="evenodd"></path></svg>