<svg width="32" height="32" viewBox="0 0 32 32" fill="none" xmlns="http://www.w3.org/2000/svg"><path d="M14.347 2.112 C 12.071 2.412,10.105 3.141,8.256 4.370 C 5.008 6.530,2.878 9.824,2.186 13.760 C 2.037 14.607,1.981 16.502,2.078 17.400 C 2.470 21.031,4.146 24.228,6.907 26.609 C 9.101 28.502,11.821 29.661,14.687 29.925 C 15.536 30.003,17.310 29.959,18.050 29.841 C 21.046 29.365,23.563 28.114,25.726 26.028 C 28.137 23.702,29.615 20.635,29.924 17.313 C 30.003 16.468,29.959 14.694,29.842 13.956 C 29.363 10.947,28.139 8.473,26.056 6.304 C 24.295 4.470,21.991 3.114,19.565 2.485 C 18.463 2.199,18.020 2.135,16.737 2.080 C 15.264 2.016,15.047 2.019,14.347 2.112 M16.086 4.573 C 18.546 7.558,20.307 11.159,20.773 14.160 C 20.818 14.453,20.869 14.759,20.885 14.840 L 20.915 14.987 15.871 14.987 L 10.827 14.987 10.827 14.865 C 10.827 14.577,11.002 13.352,11.147 12.631 C 11.292 11.909,11.686 10.620,12.108 9.481 C 12.273 9.039,12.278 9.003,12.211 8.765 C 12.067 8.250,11.501 7.914,11.006 8.049 C 10.470 8.196,10.341 8.397,9.841 9.867 C 9.315 11.415,9.063 12.537,8.877 14.173 L 8.784 14.987 6.422 14.987 L 4.060 14.987 4.084 14.813 C 4.258 13.553,4.427 12.826,4.755 11.924 C 6.029 8.424,8.830 5.733,12.386 4.594 C 13.260 4.314,14.571 4.077,15.335 4.060 L 15.657 4.053 16.086 4.573 M19.664 4.615 C 24.046 6.050,27.203 9.788,27.839 14.293 C 27.870 14.513,27.906 14.759,27.920 14.840 L 27.944 14.987 25.452 14.987 L 22.960 14.987 22.814 14.093 C 22.331 11.134,21.188 8.374,19.252 5.496 C 18.965 5.069,18.653 4.616,18.558 4.490 L 18.385 4.259 18.593 4.296 C 18.707 4.316,19.189 4.460,19.664 4.615 M8.061 17.048 L 8.894 17.083 8.931 17.461 C 9.020 18.382,9.375 19.872,9.790 21.067 C 10.481 23.056,11.521 25.069,12.803 26.893 C 13.065 27.267,13.280 27.596,13.280 27.623 C 13.280 27.754,11.651 27.190,10.740 26.744 C 7.274 25.046,4.739 21.613,4.187 17.871 C 4.141 17.561,4.093 17.241,4.080 17.160 L 4.056 17.013 5.641 17.014 C 6.513 17.014,7.602 17.029,8.061 17.048 M20.959 17.133 C 20.958 17.410,20.796 18.683,20.695 19.206 C 20.537 20.026,20.309 20.798,19.912 21.862 C 19.484 23.012,19.473 23.069,19.627 23.388 C 19.925 24.004,20.711 24.180,21.194 23.740 C 21.607 23.365,22.442 20.905,22.745 19.173 C 22.820 18.744,22.983 17.347,22.986 17.107 C 22.987 17.019,23.141 17.013,25.465 17.013 L 27.944 17.013 27.918 17.160 C 27.904 17.241,27.856 17.547,27.811 17.840 C 27.469 20.068,26.529 22.101,25.040 23.830 C 23.349 25.794,21.109 27.128,18.529 27.707 C 17.820 27.865,16.909 27.997,16.508 27.999 C 16.252 28.000,16.232 27.989,15.928 27.669 C 15.755 27.487,15.322 26.949,14.967 26.473 C 12.905 23.714,11.469 20.585,11.015 17.867 C 10.969 17.588,10.918 17.295,10.902 17.216 C 10.873 17.073,10.875 17.072,11.210 17.053 C 11.395 17.042,13.665 17.029,16.253 17.024 L 20.960 17.013 20.959 17.133 " fill="#1A1C1F" stroke="none" fill-rule="evenodd"></path></svg>