<svg width="20" height="20" viewBox="0 0 20 20" fill="none" xmlns="http://www.w3.org/2000/svg"><path d="M9.283 2.037 C 8.005 2.162,6.703 2.617,5.633 3.315 C 4.690 3.930,3.761 4.882,3.192 5.817 C 2.458 7.020,2.064 8.334,2.011 9.750 C 1.951 11.358,2.413 13.003,3.308 14.360 C 3.629 14.847,3.851 15.121,4.281 15.561 C 4.748 16.040,5.061 16.302,5.578 16.647 C 6.573 17.311,7.613 17.713,8.883 17.922 C 9.396 18.006,10.593 18.006,11.133 17.921 C 12.840 17.653,14.355 16.900,15.562 15.719 C 16.221 15.074,16.673 14.476,17.068 13.722 C 18.440 11.107,18.279 8.049,16.639 5.561 C 16.094 4.734,15.302 3.941,14.467 3.384 C 13.498 2.739,12.421 2.307,11.317 2.120 C 10.830 2.038,9.737 1.993,9.283 2.037 M8.870 4.205 C 9.126 4.293,9.584 4.706,9.917 5.150 C 10.471 5.890,11.163 7.324,11.552 8.542 C 11.620 8.758,11.666 8.945,11.652 8.959 C 11.639 8.972,10.791 8.987,9.768 8.992 L 7.909 9.002 7.889 8.901 C 7.783 8.371,7.779 6.449,7.882 5.757 C 8.001 4.964,8.208 4.393,8.432 4.242 C 8.555 4.159,8.698 4.147,8.870 4.205 M11.933 4.322 C 12.071 4.367,12.367 4.492,12.591 4.600 C 14.000 5.277,15.046 6.417,15.617 7.897 C 15.742 8.219,15.900 8.792,15.900 8.920 L 15.900 9.000 14.836 9.000 C 13.851 9.000,13.770 8.996,13.754 8.942 C 13.745 8.910,13.707 8.753,13.670 8.594 C 13.373 7.319,12.636 5.761,11.817 4.676 C 11.670 4.482,11.528 4.293,11.502 4.257 C 11.455 4.195,11.458 4.193,11.568 4.216 C 11.632 4.229,11.796 4.277,11.933 4.322 M5.815 6.039 C 5.734 6.514,5.733 8.119,5.813 8.631 C 5.842 8.822,5.867 8.983,5.867 8.989 C 5.867 8.995,5.469 9.000,4.983 9.000 L 4.100 9.000 4.100 8.925 C 4.100 8.808,4.252 8.269,4.387 7.909 C 4.659 7.180,5.091 6.465,5.567 5.957 C 5.718 5.796,5.849 5.671,5.858 5.680 C 5.866 5.688,5.847 5.850,5.815 6.039 M6.302 11.142 C 6.322 11.220,6.407 11.486,6.489 11.733 C 6.971 13.181,7.717 14.627,8.456 15.545 C 8.572 15.689,8.667 15.819,8.667 15.835 C 8.667 15.918,7.792 15.598,7.200 15.297 C 6.554 14.970,6.049 14.570,5.492 13.945 C 4.792 13.158,4.374 12.325,4.120 11.208 L 4.073 11.000 5.168 11.000 L 6.264 11.000 6.302 11.142 M12.145 11.098 C 12.253 11.639,12.257 13.454,12.152 14.200 C 12.049 14.931,11.852 15.508,11.633 15.717 C 11.404 15.936,11.048 15.808,10.564 15.333 C 9.931 14.712,9.343 13.721,8.823 12.400 C 8.623 11.892,8.367 11.144,8.367 11.069 C 8.367 11.016,8.522 11.011,10.354 11.005 L 12.125 11.000 12.145 11.098 M15.860 11.305 C 15.639 12.326,15.100 13.301,14.216 14.283 L 14.095 14.417 14.114 14.317 C 14.276 13.419,14.301 12.194,14.178 11.175 L 14.157 11.000 15.042 11.000 L 15.926 11.000 15.860 11.305 " fill="#1A1C1F" stroke="none" fill-rule="evenodd"></path></svg>