<svg width="14" height="14" viewBox="0 0 14 14" fill="none" xmlns="http://www.w3.org/2000/svg"><path d="M6.499 1.427 C 5.613 1.510,4.701 1.829,3.943 2.321 C 3.287 2.747,2.633 3.417,2.234 4.072 C 1.100 5.934,1.132 8.256,2.316 10.052 C 2.541 10.393,2.696 10.585,2.997 10.893 C 3.324 11.228,3.542 11.411,3.904 11.653 C 4.598 12.116,5.332 12.399,6.218 12.545 C 6.575 12.604,7.413 12.604,7.793 12.544 C 8.984 12.359,10.048 11.830,10.893 11.004 C 11.497 10.412,11.925 9.772,12.211 9.030 C 12.757 7.612,12.724 6.138,12.114 4.741 C 11.394 3.094,9.882 1.880,8.093 1.516 C 7.682 1.432,6.905 1.389,6.499 1.427 M6.209 2.944 C 6.388 3.005,6.709 3.294,6.942 3.605 C 7.332 4.125,7.823 5.147,8.086 5.982 C 8.157 6.209,8.167 6.262,8.140 6.279 C 8.123 6.290,7.530 6.299,6.822 6.300 L 5.536 6.300 5.522 6.230 C 5.448 5.860,5.445 4.514,5.518 4.030 C 5.601 3.475,5.746 3.075,5.903 2.969 C 5.989 2.911,6.089 2.903,6.209 2.944 M8.353 3.025 C 8.450 3.057,8.656 3.144,8.811 3.218 C 9.798 3.693,10.532 4.491,10.931 5.524 C 11.019 5.753,11.130 6.154,11.130 6.244 L 11.130 6.300 10.385 6.300 C 9.695 6.300,9.639 6.297,9.628 6.259 C 9.621 6.237,9.595 6.127,9.569 6.015 C 9.361 5.123,8.836 4.017,8.260 3.258 C 8.164 3.130,8.070 3.005,8.051 2.980 C 8.019 2.936,8.021 2.935,8.098 2.951 C 8.142 2.960,8.257 2.994,8.353 3.025 M4.071 4.230 C 4.014 4.530,4.013 5.684,4.069 6.042 C 4.090 6.175,4.107 6.288,4.107 6.292 C 4.107 6.297,3.828 6.300,3.488 6.300 L 2.870 6.300 2.870 6.248 C 2.870 6.166,2.977 5.788,3.071 5.536 C 3.189 5.219,3.351 4.904,3.543 4.618 C 3.714 4.361,4.087 3.942,4.102 3.988 C 4.107 4.003,4.093 4.112,4.071 4.230 M4.411 7.799 C 4.426 7.854,4.485 8.040,4.542 8.213 C 4.879 9.226,5.410 10.255,5.918 10.881 C 6.000 10.982,6.067 11.073,6.067 11.084 C 6.067 11.112,5.768 11.026,5.518 10.927 C 4.999 10.721,4.607 10.487,4.258 10.176 C 3.522 9.518,3.103 8.808,2.884 7.846 L 2.851 7.700 3.618 7.700 L 4.385 7.700 4.411 7.799 M8.502 7.776 C 8.544 8.008,8.563 8.332,8.563 8.826 C 8.564 9.920,8.423 10.684,8.168 10.971 C 8.085 11.065,8.071 11.072,7.964 11.070 C 7.801 11.068,7.636 10.970,7.395 10.733 C 6.947 10.294,6.548 9.621,6.177 8.680 C 6.037 8.326,5.857 7.801,5.857 7.749 C 5.857 7.711,5.966 7.708,7.248 7.704 L 8.488 7.700 8.502 7.776 M11.104 7.904 C 10.985 8.457,10.737 8.990,10.366 9.494 C 10.225 9.686,9.889 10.084,9.878 10.072 C 9.874 10.068,9.891 9.925,9.917 9.754 C 9.996 9.210,10.000 8.389,9.925 7.811 L 9.911 7.700 10.530 7.700 L 11.149 7.700 11.104 7.904 " fill="#1A1C1F" stroke="none" fill-rule="evenodd"></path></svg>