<svg xmlns="http://www.w3.org/2000/svg" width="32" height="32" fill="none"><path fill="#1A1C1F" fill-rule="evenodd" d="M14.72 2.06c-1.337.16-2.192.345-3.214.694a14.01 14.01 0 0 0-9.108 9.958 13.97 13.97 0 0 0 2.111 11.263c1.513 2.162 3.665 3.918 6.004 4.898 1.813.759 3.549 1.111 5.487 1.111 2.014 0 3.907-.403 5.746-1.224 3.133-1.398 5.81-4.13 7.127-7.273.76-1.814 1.111-3.55 1.11-5.487-.001-2.779-.782-5.401-2.282-7.665a14.06 14.06 0 0 0-9.621-6.178c-.537-.084-2.898-.153-3.36-.097m1.285 2.407c2.474 2.916 4.335 6.721 4.793 9.8.03.205.068.451.084.546l.03.174H10.814l.037-.467c.051-.627.258-1.844.43-2.525.158-.624.528-1.749.764-2.322.211-.51.239-.664.169-.923-.177-.659-.974-.949-1.554-.566-.251.167-.376.412-.76 1.496-.605 1.708-.86 2.891-1.076 5l-.032.307H4.051l.025-.12c.014-.066.04-.264.059-.44.155-1.47.827-3.354 1.696-4.755C7.612 6.799 10.608 4.78 13.92 4.22c.769-.13.914-.146 1.387-.158l.347-.009zm3.391.045a12.03 12.03 0 0 1 7.77 7.155c.346.878.626 2.041.745 3.093l.026.227h-4.994l-.035-.28c-.387-3.097-1.572-6.112-3.579-9.107a34 34 0 0 0-.75-1.084l-.195-.257.208.037c.114.021.476.118.804.216M8.945 17.573c.344 2.787 1.605 5.959 3.499 8.8.235.352.533.78.664.95.13.171.226.321.213.334-.039.039-1.131-.285-1.654-.491-3.78-1.487-6.596-4.825-7.395-8.766a12 12 0 0 1-.137-.827 7 7 0 0 0-.059-.44l-.025-.121 2.414.014 2.414.014zm12.015-.432c0 .07-.025.376-.055.68-.149 1.483-.467 2.736-1.096 4.32-.312.786-.332.905-.206 1.207.234.561.856.801 1.397.539.297-.144.43-.349.724-1.114.644-1.673 1.077-3.44 1.181-4.826.018-.235.046-.541.062-.68l.03-.254h4.943l-.026.2c-.217 1.668-.573 2.883-1.219 4.17a12.13 12.13 0 0 1-5.788 5.549 13.2 13.2 0 0 1-3.745 1.012c-.965.105-.93.114-1.31-.338-2.56-3.043-4.348-6.664-4.864-9.846a24 24 0 0 1-.108-.707c0-.022 2.268-.04 5.04-.04h5.04z"/></svg>