<svg width="16" height="16" viewBox="0 0 16 16" fill="none" xmlns="http://www.w3.org/2000/svg"><path d="M7.533 1.618 C 6.611 1.700,5.704 1.974,4.920 2.408 C 3.174 3.374,2.026 5.002,1.678 7.004 C 1.626 7.299,1.618 7.440,1.619 8.013 C 1.620 8.572,1.630 8.732,1.677 9.000 C 1.881 10.147,2.333 11.155,3.027 12.013 C 3.250 12.289,3.766 12.799,4.042 13.018 C 5.724 14.352,7.990 14.749,10.013 14.065 C 10.960 13.745,11.723 13.280,12.437 12.587 C 12.993 12.047,13.405 11.484,13.734 10.813 C 14.039 10.190,14.232 9.581,14.338 8.906 C 14.404 8.479,14.404 7.548,14.337 7.120 C 14.153 5.937,13.697 4.889,12.975 3.987 C 12.748 3.703,12.259 3.222,11.957 2.986 C 11.018 2.250,9.807 1.753,8.714 1.654 C 8.398 1.626,7.690 1.604,7.533 1.618 M7.187 3.410 C 7.827 3.718,8.692 5.153,9.228 6.800 L 9.354 7.187 7.846 7.194 C 7.017 7.197,6.334 7.197,6.330 7.192 C 6.325 7.187,6.306 7.088,6.288 6.972 C 6.266 6.835,6.255 6.440,6.254 5.853 C 6.254 5.119,6.263 4.887,6.301 4.633 C 6.367 4.198,6.463 3.838,6.568 3.630 C 6.721 3.327,6.889 3.267,7.187 3.410 M9.547 3.457 C 9.657 3.493,9.893 3.593,10.073 3.680 C 11.200 4.222,12.037 5.133,12.494 6.318 C 12.593 6.575,12.720 7.034,12.720 7.136 L 12.720 7.200 11.868 7.200 C 11.080 7.200,11.016 7.197,11.004 7.153 C 10.997 7.128,10.958 6.975,10.919 6.813 C 10.668 5.789,10.089 4.578,9.441 3.723 C 9.330 3.577,9.223 3.435,9.201 3.406 C 9.164 3.356,9.166 3.354,9.255 3.373 C 9.305 3.383,9.437 3.421,9.547 3.457 M4.652 4.832 C 4.587 5.211,4.586 6.494,4.650 6.905 C 4.674 7.058,4.693 7.187,4.693 7.191 C 4.693 7.196,4.375 7.200,3.987 7.200 L 3.280 7.200 3.280 7.140 C 3.280 7.046,3.402 6.615,3.509 6.327 C 3.727 5.744,4.073 5.172,4.454 4.766 C 4.575 4.637,4.679 4.537,4.686 4.544 C 4.693 4.551,4.678 4.680,4.652 4.832 M5.041 8.913 C 5.058 8.976,5.125 9.189,5.191 9.387 C 5.576 10.544,6.183 11.720,6.764 12.436 C 6.857 12.551,6.933 12.655,6.933 12.667 C 6.933 12.699,6.592 12.601,6.307 12.488 C 5.713 12.253,5.265 11.985,4.867 11.629 C 4.025 10.877,3.547 10.067,3.296 8.967 L 3.258 8.800 4.135 8.800 L 5.011 8.800 5.041 8.913 M9.716 8.882 C 9.802 9.308,9.805 10.769,9.722 11.360 C 9.639 11.944,9.481 12.406,9.307 12.573 C 9.123 12.749,8.838 12.647,8.451 12.267 C 7.946 11.770,7.476 10.979,7.059 9.920 C 6.899 9.514,6.693 8.916,6.693 8.856 C 6.693 8.813,6.818 8.809,8.283 8.804 L 9.700 8.800 9.716 8.882 M12.690 9.033 C 12.609 9.406,12.516 9.669,12.335 10.040 C 12.100 10.520,11.798 10.954,11.372 11.427 L 11.276 11.533 11.291 11.453 C 11.420 10.739,11.442 9.689,11.343 8.927 L 11.326 8.800 12.034 8.800 L 12.741 8.800 12.690 9.033 " fill="#1A1C1F" stroke="none" fill-rule="evenodd"></path></svg>