<svg xmlns="http://www.w3.org/2000/svg" width="20" height="20" fill="none"><g clip-path="url(#a)"><path fill="#1A1C1F" fill-rule="evenodd" d="M10 2a8.07 8.07 0 0 1 5.659 2.342A8.07 8.07 0 0 1 18 10c0 4.41-3.59 8-8 8s-8-3.59-8-8 3.59-8 8-8m-3.732 8.995h-2.19c.39 2.431 2.253 4.356 4.654 4.878-.908-.965-2.006-3.039-2.464-4.878m5.868 0H8.34c.903 3.147 2.322 4.839 3.065 4.839.477 0 .86-1.216.855-3.296a10 10 0 0 0-.124-1.543m3.788 0h-1.778c.09.563.108 1.09.117 1.58a9 9 0 0 1-.185 1.854c.828-.847 1.637-1.98 1.846-3.434M5.902 5.61c-.931.813-1.621 2.149-1.824 3.395h1.795a11 11 0 0 1-.15-1.696c0-.762.095-1.313.18-1.7m5.503-1.444c.788.828 2.015 2.89 2.352 4.839h2.165a5.98 5.98 0 0 0-4.517-4.84m-2.852 0c-.424.1-.78 1.216-.777 3.296 0 .47.035.988.124 1.543h3.796c-.926-3.147-2.382-5.016-3.143-4.839" clip-rule="evenodd"/></g><defs><clipPath id="a"><path fill="#fff" d="M0 0h20v20H0z"/></clipPath></defs></svg>