<svg xmlns="http://www.w3.org/2000/svg" width="14" height="14" fill="none"><g clip-path="url(#a)"><path fill="#1A1C1F" fill-rule="evenodd" d="M7 1.4a5.65 5.65 0 0 1 3.961 1.64A5.65 5.65 0 0 1 12.6 7c0 3.087-2.513 5.6-5.6 5.6A5.61 5.61 0 0 1 1.4 7c0-3.087 2.513-5.6 5.6-5.6M4.388 7.697H2.854a4.19 4.19 0 0 0 3.258 3.414c-.635-.676-1.404-2.127-1.724-3.414m4.107 0H5.838c.632 2.202 1.625 3.387 2.145 3.387.334 0 .602-.852.6-2.308 0-.328-.026-.691-.088-1.08m2.652 0H9.902c.063.394.076.763.082 1.105 0 .48-.047.911-.13 1.299.58-.594 1.147-1.386 1.293-2.404m-7.015-3.77c-.652.569-1.135 1.504-1.277 2.376H4.11a8 8 0 0 1-.105-1.187c0-.533.067-.919.126-1.19m3.851-1.01c.552.579 1.41 2.022 1.647 3.386h1.515a4.19 4.19 0 0 0-3.162-3.387m-1.996 0c-.297.069-.547.85-.544 2.307 0 .328.025.691.087 1.08h2.657C7.54 4.1 6.52 2.791 5.987 2.916" clip-rule="evenodd"/></g><defs><clipPath id="a"><path fill="#fff" d="M0 0h14v14H0z"/></clipPath></defs></svg>