<svg xmlns="http://www.w3.org/2000/svg" width="28" height="28" fill="none"><g clip-path="url(#a)"><path fill="#1A1C1F" fill-rule="evenodd" d="M14 1.75c6.754 0 12.25 5.496 12.25 12.25S20.754 26.25 14 26.25 1.75 20.754 1.75 14 7.246 1.75 14 1.75m4.348 13.125H9.516c.52 4.73 3.746 8.586 4.648 9.625 5.414-.11 9.844-4.293 10.281-9.625h-4.347c-.055 1.832-.492 3.691-1.313 5.605a.86.86 0 0 1-.793.52.887.887 0 0 1-.902-.875c0-.11.027-.246.082-.355.738-1.668 1.121-3.31 1.176-4.895m-10.582 0H3.555c.382 4.594 3.746 8.367 8.148 9.352-1.476-1.942-3.555-5.332-3.937-9.352m8.312-11.156c1.477 1.941 3.61 5.36 3.992 9.406h4.375c-.383-4.676-3.855-8.504-8.367-9.406m-2.406-.192c-5.36.164-9.68 4.32-10.117 9.598H7.71c.082-1.832.52-3.691 1.312-5.605A.86.86 0 0 1 9.816 7c.575 0 .903.41.903.875 0 .11-.028.246-.082.356-.711 1.667-1.094 3.308-1.176 4.894h8.832c-.52-4.703-3.691-8.586-4.621-9.598" clip-rule="evenodd"/></g><defs><clipPath id="a"><path fill="#fff" d="M0 0h28v28H0z"/></clipPath></defs></svg>