<svg width="28" height="28" viewBox="0 0 28 28" fill="none" xmlns="http://www.w3.org/2000/svg"><path d="M20.907 6.238 C 19.774 6.319,18.118 6.570,17.139 6.811 C 15.098 7.313,13.086 8.285,11.597 9.487 C 11.083 9.902,10.191 10.802,9.739 11.363 C 8.745 12.596,7.747 14.500,7.747 15.165 C 7.747 15.677,8.184 16.054,8.709 15.995 C 9.088 15.952,9.184 15.831,9.746 14.687 C 10.455 13.245,10.957 12.520,11.900 11.573 C 12.722 10.749,13.533 10.167,14.642 9.607 C 16.438 8.701,18.299 8.206,20.578 8.029 C 21.266 7.975,23.433 7.963,23.882 8.009 L 24.164 8.039 24.078 8.348 C 23.843 9.194,23.186 10.965,22.692 12.087 C 20.670 16.675,17.968 19.335,14.700 19.954 C 13.863 20.112,12.492 20.048,11.832 19.819 L 11.660 19.760 12.328 19.430 C 14.277 18.470,16.020 17.306,18.149 15.543 C 18.785 15.017,20.994 12.857,21.145 12.615 C 21.247 12.451,21.273 12.051,21.195 11.853 C 21.050 11.484,20.473 11.241,20.089 11.387 C 20.021 11.413,19.489 11.892,18.908 12.451 C 17.630 13.679,17.097 14.158,16.263 14.823 C 13.086 17.360,9.988 18.862,7.212 19.211 C 6.507 19.300,5.116 19.273,4.503 19.160 C 4.272 19.118,3.821 19.006,3.500 18.913 C 2.746 18.693,2.421 18.682,2.178 18.867 C 1.773 19.176,1.712 19.767,2.047 20.129 C 2.220 20.316,2.517 20.456,3.082 20.618 C 5.019 21.171,6.821 21.186,8.988 20.667 L 9.412 20.565 9.633 20.717 C 10.161 21.081,11.294 21.521,12.117 21.683 C 12.719 21.802,14.464 21.803,15.050 21.686 C 17.108 21.273,18.756 20.369,20.382 18.762 C 22.146 17.019,23.490 14.871,24.720 11.830 C 25.282 10.441,26.180 7.624,26.180 7.252 C 26.180 7.086,26.055 6.810,25.910 6.660 C 25.688 6.428,25.142 6.333,23.559 6.254 C 22.719 6.211,21.393 6.203,20.907 6.238 " fill="#1A1C1F" stroke="none" fill-rule="evenodd"></path></svg>