<svg width="32" height="32" viewBox="0 0 32 32" fill="none" xmlns="http://www.w3.org/2000/svg"><path d="M23.867 7.130 C 23.290 7.168,22.066 7.317,21.281 7.443 C 18.164 7.947,15.380 9.126,13.253 10.843 C 11.764 12.045,10.333 13.835,9.493 15.547 C 8.751 17.060,8.677 17.628,9.170 18.042 C 9.521 18.337,10.036 18.367,10.371 18.112 C 10.517 18.001,10.678 17.722,11.139 16.786 C 11.949 15.138,12.522 14.308,13.600 13.227 C 14.539 12.284,15.467 11.619,16.734 10.980 C 18.787 9.944,20.913 9.378,23.517 9.176 C 24.304 9.115,26.781 9.100,27.293 9.154 L 27.616 9.187 27.518 9.540 C 27.249 10.507,26.499 12.531,25.934 13.813 C 23.623 19.056,20.533 22.097,16.800 22.804 C 15.844 22.985,14.277 22.912,13.523 22.651 L 13.325 22.582 14.089 22.206 C 16.317 21.108,18.309 19.778,20.741 17.764 C 21.394 17.223,23.897 14.795,24.119 14.487 C 24.357 14.158,24.330 13.598,24.064 13.313 C 23.783 13.014,23.302 12.883,22.959 13.014 C 22.881 13.043,22.273 13.591,21.609 14.230 C 20.149 15.634,19.539 16.181,18.587 16.941 C 14.955 19.840,11.415 21.557,8.243 21.955 C 7.437 22.057,5.847 22.027,5.147 21.897 C 4.883 21.849,4.367 21.721,4.000 21.615 C 3.138 21.364,2.767 21.351,2.489 21.563 C 2.026 21.916,1.956 22.590,2.340 23.005 C 2.536 23.218,2.874 23.378,3.522 23.565 C 4.782 23.929,5.501 24.024,6.960 24.021 C 8.290 24.017,8.701 23.971,10.021 23.678 L 10.768 23.511 11.015 23.681 C 11.376 23.930,12.171 24.293,12.814 24.504 C 13.773 24.818,14.175 24.873,15.520 24.877 C 16.912 24.881,17.427 24.802,18.651 24.399 C 22.064 23.276,25.143 20.167,27.311 15.653 C 28.220 13.760,29.284 10.884,29.764 9.023 C 29.943 8.328,29.950 8.229,29.837 7.958 C 29.648 7.506,29.365 7.363,28.445 7.256 C 27.366 7.130,24.889 7.063,23.867 7.130 " fill="#1A1C1F" stroke="none" fill-rule="evenodd"></path></svg>