<svg width="14" height="14" viewBox="0 0 14 14" fill="none" xmlns="http://www.w3.org/2000/svg"><path d="M9.327 3.373 C 8.297 3.514,7.587 3.731,6.774 4.152 C 5.887 4.612,5.193 5.222,4.641 6.026 C 4.372 6.418,4.301 6.645,4.372 6.890 C 4.454 7.169,4.715 7.373,4.991 7.373 C 5.295 7.373,5.456 7.255,5.816 6.767 C 6.224 6.217,6.522 5.924,6.988 5.617 C 7.843 5.054,8.838 4.782,10.293 4.714 C 10.869 4.687,10.943 4.694,10.943 4.773 C 10.943 4.848,10.755 5.382,10.577 5.810 C 10.096 6.964,9.550 7.801,8.891 8.393 C 8.223 8.993,7.609 9.272,6.886 9.304 C 6.624 9.315,6.575 9.312,6.585 9.284 C 6.591 9.266,6.748 9.136,6.936 8.995 C 7.623 8.476,8.466 7.693,8.674 7.378 C 8.866 7.088,8.835 6.757,8.592 6.514 C 8.455 6.377,8.310 6.315,8.120 6.313 C 7.873 6.311,7.760 6.381,7.305 6.823 C 7.093 7.030,6.808 7.293,6.673 7.409 C 5.763 8.190,4.812 8.703,3.920 8.893 C 3.717 8.937,3.604 8.945,3.255 8.945 C 2.847 8.944,2.826 8.942,2.512 8.859 C 2.117 8.754,1.971 8.749,1.802 8.833 C 1.410 9.029,1.292 9.574,1.566 9.920 C 1.754 10.158,2.583 10.368,3.337 10.370 C 3.747 10.370,4.038 10.330,4.523 10.206 L 4.835 10.127 5.060 10.252 C 5.677 10.596,6.433 10.756,7.117 10.688 C 9.448 10.456,11.255 8.501,12.345 5.029 C 12.422 4.785,12.512 4.475,12.545 4.339 C 12.604 4.099,12.605 4.089,12.568 3.962 C 12.489 3.689,12.285 3.485,12.026 3.419 C 11.797 3.361,11.302 3.337,10.407 3.339 C 9.839 3.341,9.479 3.353,9.327 3.373 " fill="#1A1C1F" stroke="none" fill-rule="evenodd"></path></svg>