<svg xmlns="http://www.w3.org/2000/svg" width="32" height="32" fill="none"><g clip-path="url(#a)"><path fill="#1A1C1F" fill-rule="evenodd" d="M29.098 7.328c.585.075.948.677.795 1.246-2.281 8.464-5.89 13.529-10.318 15.487-3.197 1.414-6.674 1.002-8.826-.562-1.633.458-3.327.67-5.022.498a11.8 11.8 0 0 1-3.013-.693c-1.217-.546-.548-2.3.709-1.87a9.5 9.5 0 0 0 2.487.572c4.287.4 8.54-1.94 11.86-4.426q2.379-1.764 4.788-4.307c.81-.903 2.268.155 1.569 1.225 0 0-1.73 1.958-3.765 3.583-2.041 1.678-4.354 3.307-7.068 4.498 1.58.537 6.077 1.166 10.226-4.414q2.451-3.443 4.126-8.997-3.296-.242-5.915.19c-4.089.713-8.877 2.66-10.983 8.306-.392 1.037-2.215.807-1.87-.711 1.261-3.346 3.716-6.463 7.979-8.273 3.168-1.328 7.51-2.012 12.241-1.352" clip-rule="evenodd"/></g><defs><clipPath id="a"><path fill="#fff" d="M0 0h32v32H0z"/></clipPath></defs></svg>