<svg xmlns="http://www.w3.org/2000/svg" width="14" height="14" fill="none"><g clip-path="url(#a)"><path fill="#1A1C1F" fill-rule="evenodd" d="M11.964 3.394c.406.07.713.474.606.872-.888 3.293-2.313 5.293-4.09 6.08-1.306.576-2.73.415-3.64-.231a4.5 4.5 0 0 1-2.981.008c-.854-.311-.378-1.635.47-1.318 1.311.488 3.256-.116 5.235-2.255.782-.713 1.6.27 1.077.894Q7.61 8.581 6.518 9.29c.43.054.923-.005 1.395-.225Q9.92 8.13 10.983 4.7q-3.8-.104-5.25 2.184c-.62 1.042-1.754.261-1.277-.573.77-1.288 1.925-2.137 3.373-2.615 1.194-.394 2.539-.494 4.135-.302" clip-rule="evenodd"/></g><defs><clipPath id="a"><path fill="#fff" d="M0 0h14v14H0z"/></clipPath></defs></svg>