<svg width="12" height="12" viewBox="0 0 12 12" fill="none" xmlns="http://www.w3.org/2000/svg"><path d="M8.160 2.870 C 8.143 2.874,8.018 2.892,7.880 2.910 C 7.580 2.950,7.134 3.042,6.900 3.111 C 6.206 3.319,5.442 3.712,4.928 4.127 C 4.482 4.487,3.978 5.086,3.794 5.475 C 3.513 6.068,4.198 6.600,4.683 6.164 C 4.739 6.113,4.875 5.950,4.986 5.801 C 5.245 5.450,5.401 5.276,5.626 5.087 C 6.419 4.422,7.381 4.106,8.814 4.041 C 9.311 4.019,9.380 4.025,9.380 4.091 C 9.380 4.220,9.035 5.090,8.791 5.578 C 8.471 6.217,8.177 6.641,7.780 7.038 C 7.166 7.652,6.580 7.945,5.902 7.974 C 5.678 7.984,5.636 7.982,5.644 7.958 C 5.649 7.943,5.784 7.831,5.945 7.710 C 6.464 7.318,7.044 6.796,7.314 6.476 C 7.513 6.241,7.530 6.204,7.530 6.000 C 7.530 5.849,7.523 5.818,7.471 5.723 C 7.361 5.525,7.183 5.414,6.969 5.412 C 6.745 5.410,6.656 5.465,6.262 5.848 C 5.875 6.223,5.592 6.470,5.294 6.692 C 4.654 7.167,3.986 7.488,3.360 7.623 C 3.184 7.661,3.091 7.668,2.790 7.667 C 2.441 7.666,2.422 7.664,2.153 7.593 C 1.814 7.504,1.689 7.499,1.545 7.571 C 1.181 7.753,1.097 8.313,1.397 8.560 C 1.576 8.708,2.122 8.846,2.700 8.890 C 3.024 8.915,3.567 8.844,3.963 8.726 L 4.136 8.675 4.313 8.776 C 4.836 9.075,5.510 9.221,6.100 9.161 C 7.579 9.012,8.781 8.089,9.721 6.381 C 10.179 5.549,10.780 3.910,10.780 3.493 C 10.780 3.282,10.652 3.088,10.442 2.981 C 10.266 2.891,10.090 2.877,9.110 2.869 C 8.604 2.866,8.177 2.866,8.160 2.870 " fill="#1A1C1F" stroke="none" fill-rule="evenodd"></path></svg>