<svg width="24" height="24" viewBox="0 0 24 24" fill="none" xmlns="http://www.w3.org/2000/svg"><path d="M16.920 5.845 C 13.983 6.042,11.128 7.157,9.460 8.758 C 8.589 9.593,8.038 10.357,7.438 11.559 C 6.939 12.559,6.846 12.894,6.980 13.214 C 7.233 13.819,8.003 14.050,8.520 13.675 C 8.663 13.571,8.732 13.457,9.064 12.769 C 9.465 11.937,9.566 11.761,9.914 11.280 C 10.193 10.896,10.927 10.145,11.342 9.819 C 12.593 8.836,14.344 8.175,16.420 7.900 C 16.890 7.838,19.200 7.763,19.200 7.810 C 19.200 7.874,18.758 9.108,18.508 9.740 C 18.185 10.559,17.540 11.866,17.163 12.466 C 16.095 14.164,14.839 15.305,13.475 15.814 C 12.843 16.050,12.429 16.126,11.660 16.148 L 10.980 16.168 11.440 15.858 C 12.449 15.177,13.158 14.594,14.025 13.730 C 14.944 12.816,16.053 11.523,16.185 11.211 C 16.276 10.998,16.253 10.759,16.117 10.486 C 15.880 10.012,15.324 9.760,14.903 9.936 C 14.718 10.013,14.497 10.221,14.024 10.760 C 13.476 11.385,12.732 12.156,12.081 12.774 C 10.573 14.206,8.844 15.194,7.264 15.526 C 6.938 15.595,6.710 15.612,6.080 15.615 C 5.215 15.620,4.966 15.588,4.242 15.375 C 3.474 15.150,3.158 15.160,2.816 15.421 C 2.505 15.657,2.426 16.322,2.662 16.704 C 2.814 16.949,3.030 17.084,3.561 17.262 C 4.913 17.717,6.517 17.760,8.059 17.384 L 8.458 17.287 8.727 17.444 C 9.233 17.740,9.822 17.954,10.499 18.089 C 10.856 18.160,11.081 18.177,11.680 18.178 C 12.455 18.179,12.745 18.145,13.400 17.976 C 14.388 17.721,15.375 17.219,16.260 16.521 C 17.001 15.937,17.986 14.835,18.639 13.860 C 19.703 12.272,20.818 9.669,21.403 7.408 C 21.507 7.005,21.515 6.934,21.474 6.768 C 21.345 6.238,21.032 6.011,20.312 5.922 C 19.430 5.813,17.911 5.779,16.920 5.845 " fill="#1A1C1F" stroke="none" fill-rule="evenodd"></path></svg>