<svg xmlns="http://www.w3.org/2000/svg" width="32" height="32" fill="none"><path fill="#1A1C1F" fill-rule="evenodd" d="M23.813 7.129c-3.252.264-5.615.863-7.875 1.993-1.49.746-2.623 1.557-3.753 2.689a13.8 13.8 0 0 0-3.019 4.429c-.229.527-.281.706-.297 1.013-.017.314 0 .408.103.587.22.385.8.564 1.23.38.289-.124.446-.35.775-1.114.665-1.542 1.468-2.74 2.59-3.857 1.086-1.084 1.993-1.715 3.512-2.447 2.123-1.023 4.438-1.559 7.267-1.683 1.08-.047 3.191.001 3.265.074.015.015-.105.432-.267.927q-2.397 7.314-5.971 10.389c-1.645 1.414-3.306 2.178-5.16 2.372-.877.092-2.054-.01-2.698-.233l-.202-.07.85-.412c2.278-1.103 4.671-2.741 7.17-4.906.777-.673 2.742-2.645 2.863-2.874.054-.102.093-.295.094-.471.002-.355-.14-.602-.472-.817-.249-.162-.685-.189-.938-.058-.085.044-.618.542-1.184 1.106-1.523 1.518-2.826 2.638-4.388 3.771-5.054 3.667-9.608 4.902-13.471 3.653-.588-.19-.896-.224-1.154-.126-.505.191-.741.85-.491 1.368.151.312.391.463 1.088.685 1.287.41 2.627.589 4.052.54 1.03-.035 1.658-.119 2.7-.363l.726-.169.234.16c.641.44 1.718.873 2.701 1.085.753.163 2.381.203 3.188.08 2.441-.374 4.505-1.47 6.482-3.442 2.016-2.011 3.58-4.555 4.985-8.109.682-1.724 1.572-4.549 1.572-4.988 0-.289-.19-.647-.425-.803-.219-.145-.818-.237-2.215-.339-.677-.05-2.941-.063-3.467-.02"/></svg>