<svg xmlns="http://www.w3.org/2000/svg" width="24" height="24" fill="none"><g clip-path="url(#a)"><path fill="#1A1C1F" fill-rule="evenodd" d="M20.67 5.958a1 1 0 0 1 .794 1.246c-1.524 5.656-3.958 9.07-6.975 10.405-2.163.957-4.518.706-6.037-.332-1.924.573-3.739.463-5.308-.159-1.036-.328-.835-2.292.71-1.87q5.014 1.87 10.555-4.948c1.027-1.205 2.354.391 1.632 1.156-1.673 2.166-3.388 3.699-5.066 4.697 4.511.38 6.876-4.063 8.23-8.339q-3.144-.2-5.79.82c-2.178.86-3.753 2.41-4.546 4.578-.46 1.255-2.387.536-1.87-.71 1.453-3.5 3.452-5.004 6.513-6.028 3.357-1.122 7.127-.52 7.157-.516" clip-rule="evenodd"/></g><defs><clipPath id="a"><path fill="#fff" d="M0 0h24v24H0z"/></clipPath></defs></svg>