<svg width="16" height="16" viewBox="0 0 16 16" fill="none" xmlns="http://www.w3.org/2000/svg"><path d="M10.880 3.828 C 10.858 3.833,10.690 3.856,10.507 3.881 C 8.745 4.114,7.181 4.847,6.070 5.962 C 5.646 6.387,5.230 6.937,5.059 7.300 C 4.684 8.091,5.597 8.799,6.243 8.218 C 6.319 8.151,6.501 7.933,6.647 7.734 C 7.113 7.105,7.454 6.770,7.987 6.419 C 8.964 5.776,10.101 5.465,11.764 5.387 C 12.421 5.356,12.507 5.364,12.507 5.455 C 12.507 5.625,12.045 6.793,11.723 7.437 C 11.299 8.282,10.902 8.856,10.374 9.384 C 9.555 10.203,8.773 10.593,7.870 10.633 C 7.570 10.646,7.515 10.642,7.525 10.611 C 7.532 10.590,7.713 10.441,7.926 10.280 C 8.827 9.600,9.797 8.679,9.990 8.320 C 10.061 8.186,10.060 7.814,9.987 7.667 C 9.794 7.275,9.327 7.105,8.950 7.290 C 8.833 7.348,8.673 7.484,8.316 7.829 C 7.798 8.330,7.474 8.611,7.046 8.929 C 6.209 9.553,5.307 9.987,4.480 10.164 C 4.248 10.213,4.119 10.223,3.720 10.223 C 3.254 10.222,3.230 10.219,2.870 10.124 C 2.419 10.005,2.252 9.999,2.060 10.095 C 1.663 10.293,1.505 10.798,1.709 11.218 C 1.814 11.434,2.020 11.552,2.520 11.681 C 2.990 11.802,3.355 11.850,3.813 11.851 C 4.283 11.852,4.615 11.806,5.170 11.664 L 5.526 11.573 5.762 11.706 C 6.794 12.288,8.021 12.386,9.247 11.985 C 10.968 11.422,12.447 9.833,13.489 7.427 C 13.722 6.888,13.978 6.180,14.172 5.535 C 14.401 4.775,14.414 4.703,14.362 4.523 C 14.273 4.216,14.038 3.982,13.744 3.908 C 13.482 3.841,12.917 3.813,11.893 3.816 C 11.358 3.818,10.902 3.823,10.880 3.828 " fill="#1A1C1F" stroke="none" fill-rule="evenodd"></path></svg>