<svg width="20" height="20" viewBox="0 0 20 20" fill="none" xmlns="http://www.w3.org/2000/svg"><path d="M13.600 4.785 C 13.572 4.791,13.362 4.820,13.133 4.851 C 11.877 5.017,10.800 5.351,9.714 5.913 C 8.414 6.585,7.426 7.448,6.630 8.608 C 6.245 9.168,6.145 9.492,6.246 9.842 C 6.362 10.241,6.736 10.533,7.130 10.533 C 7.564 10.533,7.794 10.365,8.309 9.668 C 8.891 8.881,9.317 8.462,9.983 8.024 C 11.204 7.220,12.626 6.832,14.705 6.734 C 15.526 6.696,15.633 6.705,15.633 6.818 C 15.633 7.033,15.059 8.483,14.652 9.296 C 14.124 10.350,13.643 11.048,12.993 11.703 C 11.954 12.751,10.982 13.240,9.837 13.291 C 9.463 13.307,9.393 13.303,9.406 13.264 C 9.415 13.238,9.641 13.052,9.908 12.850 C 10.571 12.350,11.160 11.841,11.720 11.284 C 12.227 10.780,12.478 10.466,12.532 10.273 C 12.655 9.829,12.433 9.322,12.027 9.120 C 11.886 9.050,11.806 9.033,11.600 9.033 C 11.214 9.033,11.090 9.109,10.433 9.749 C 9.820 10.346,9.342 10.764,8.860 11.126 C 7.794 11.926,6.649 12.480,5.600 12.705 C 5.309 12.767,5.148 12.779,4.650 12.778 C 4.067 12.778,4.037 12.774,3.588 12.655 C 3.024 12.506,2.816 12.499,2.575 12.619 C 1.981 12.915,1.832 13.766,2.293 14.226 C 2.566 14.499,3.460 14.738,4.500 14.817 C 5.040 14.858,5.945 14.741,6.605 14.544 L 6.894 14.458 7.189 14.626 C 8.468 15.356,10.027 15.483,11.558 14.981 C 13.710 14.278,15.568 12.280,16.860 9.283 C 17.161 8.584,17.471 7.728,17.712 6.930 C 18.001 5.969,18.018 5.879,17.953 5.654 C 17.841 5.271,17.547 4.978,17.180 4.885 C 16.853 4.801,16.146 4.767,14.867 4.771 C 14.197 4.773,13.627 4.779,13.600 4.785 " fill="#1A1C1F" stroke="none" fill-rule="evenodd"></path></svg>