<svg xmlns="http://www.w3.org/2000/svg" width="20" height="20" fill="none"><g clip-path="url(#a)"><path fill="#1A1C1F" fill-rule="evenodd" d="M17.091 4.849c.58.1 1.02.677.866 1.245-1.268 4.705-3.304 7.562-5.844 8.685-1.864.825-3.9.594-5.2-.33a6.42 6.42 0 0 1-4.258.013c-1.22-.445-.54-2.336.672-1.884 1.873.698 4.652-.165 7.478-3.22 1.117-1.02 2.288.385 1.539 1.277q-1.47 1.622-3.033 2.637a3.67 3.67 0 0 0 1.993-.322q2.868-1.336 4.385-6.236-5.428-.147-7.498 3.12c-.886 1.49-2.507.374-1.826-.818 1.1-1.84 2.75-3.054 4.82-3.736 1.704-.562 3.626-.706 5.906-.431" clip-rule="evenodd"/></g><defs><clipPath id="a"><path fill="#fff" d="M0 0h20v20H0z"/></clipPath></defs></svg>