<svg xmlns="http://www.w3.org/2000/svg" width="12" height="12" fill="none"><g clip-path="url(#a)"><path fill="#1A1C1F" fill-rule="evenodd" d="M10.255 2.91c.348.06.611.405.52.746-.762 2.823-1.983 4.537-3.507 5.211-1.118.495-2.34.357-3.12-.197a3.85 3.85 0 0 1-2.555.007c-.732-.267-.324-1.401.403-1.13 1.124.418 2.791-.1 4.487-1.933.67-.61 1.373.232.923.767a9.3 9.3 0 0 1-1.82 1.582c.37.046.792-.005 1.197-.193q1.72-.802 2.63-3.741-3.255-.09-4.498 1.872c-.532.893-1.504.224-1.096-.491.66-1.105 1.65-1.833 2.892-2.242 1.023-.338 2.176-.423 3.544-.259" clip-rule="evenodd"/></g><defs><clipPath id="a"><path fill="#fff" d="M0 0h12v12H0z"/></clipPath></defs></svg>