<svg xmlns="http://www.w3.org/2000/svg" width="16" height="16" fill="none"><g clip-path="url(#a)"><path fill="#1A1C1F" fill-rule="evenodd" d="M13.673 3.88c.464.08.815.54.693.995-1.015 3.764-2.643 6.05-4.675 6.948-1.492.66-3.12.475-4.16-.263a5.13 5.13 0 0 1-3.407.01c-.976-.357-.432-1.869.538-1.508 1.498.559 3.721-.132 5.982-2.576.894-.815 1.83.308 1.231 1.022q-1.176 1.298-2.426 2.11a2.94 2.94 0 0 0 1.594-.258q2.295-1.069 3.509-4.988-4.343-.12-6 2.495c-.708 1.192-2.005.3-1.46-.654.88-1.473 2.2-2.443 3.855-2.99 1.365-.449 2.902-.563 4.726-.344" clip-rule="evenodd"/></g><defs><clipPath id="a"><path fill="#fff" d="M0 0h16v16H0z"/></clipPath></defs></svg>