<svg xmlns="http://www.w3.org/2000/svg" width="28" height="28" fill="none"><g clip-path="url(#a)"><path fill="#1A1C1F" fill-rule="evenodd" d="M25.46 6.412c.513.066.83.593.697 1.09-1.997 7.406-5.155 11.838-9.03 13.552-2.796 1.237-5.838.876-7.722-.492-1.429.4-2.91.585-4.394.435a10.3 10.3 0 0 1-2.636-.606c-1.066-.477-.48-2.012.62-1.636a8.3 8.3 0 0 0 2.176.5c3.751.35 7.473-1.698 10.377-3.873q2.083-1.543 4.19-3.768c.709-.79 1.985.135 1.373 1.072 0 0-1.514 1.713-3.294 3.135-1.787 1.468-3.81 2.893-6.185 3.936 1.382.47 5.317 1.02 8.949-3.862q2.143-3.013 3.61-7.873-2.884-.212-5.176.166c-3.578.624-7.768 2.327-9.61 7.268-.343.908-1.938.706-1.636-.622 1.103-2.928 3.25-5.656 6.98-7.239 2.773-1.162 6.572-1.76 10.712-1.183" clip-rule="evenodd"/></g><defs><clipPath id="a"><path fill="#fff" d="M0 0h28v28H0z"/></clipPath></defs></svg>