<svg xmlns="http://www.w3.org/2000/svg" width="32" height="32" fill="none"><g clip-path="url(#a)"><path fill="#1A1C1F" fill-rule="evenodd" d="M16.519 4.432a1 1 0 0 0-.986-1.411C8.785 3.536 3.536 9.176 3.536 15.982c0 7.18 5.82 13 13 13 5.147 0 9.745-3.018 11.838-7.62a1 1 0 0 0-.987-1.412q-.424.032-.85.032c-6.076 0-11-4.924-11-11 0-1.592.337-3.134.982-4.55m-2.44.825c-.04.132-.623 1.987-.54 4.032.157 6.732 5.457 12.26 12.232 12.67-2.15 3.212-5.502 5.023-9.235 5.023-6.075 0-11-4.924-11-11 0-5.172 3.315-9.228 8.542-10.725" clip-rule="evenodd"/></g><defs><clipPath id="a"><path fill="#fff" d="M0 0h32v32H0z"/></clipPath></defs></svg>