<svg width="24" height="24" viewBox="0 0 24 24" fill="none" xmlns="http://www.w3.org/2000/svg"><path d="M11.620 2.027 C 9.888 2.244,8.985 2.500,7.767 3.118 C 6.793 3.612,5.935 4.230,5.184 4.977 C 3.540 6.614,2.511 8.841,2.316 11.180 C 2.033 14.579,3.463 17.821,6.180 19.940 C 7.561 21.018,9.397 21.765,11.140 21.959 C 11.611 22.012,12.841 22.011,13.366 21.958 C 15.706 21.722,18.053 20.532,19.656 18.768 C 20.029 18.358,20.554 17.662,20.808 17.240 C 21.240 16.522,21.720 15.529,21.720 15.353 C 21.720 15.198,21.596 15.007,21.451 14.939 C 21.318 14.875,21.268 14.875,20.664 14.937 C 18.954 15.113,18.040 15.038,16.760 14.616 C 13.310 13.479,11.048 10.103,11.315 6.487 C 11.394 5.413,11.602 4.601,12.048 3.622 C 12.474 2.688,12.519 2.576,12.520 2.449 C 12.521 2.091,12.223 1.951,11.620 2.027 M9.584 4.545 C 9.538 4.663,9.367 5.652,9.317 6.080 C 9.257 6.603,9.292 7.926,9.382 8.520 C 9.601 9.958,10.228 11.524,11.072 12.740 C 11.931 13.979,13.114 15.043,14.460 15.788 C 15.532 16.382,16.853 16.808,18.100 16.963 C 18.320 16.991,18.507 17.019,18.515 17.025 C 18.551 17.054,17.788 17.838,17.446 18.123 C 15.841 19.464,13.681 20.176,11.730 20.009 C 8.092 19.698,5.193 17.159,4.457 13.640 C 4.096 11.911,4.320 10.123,5.098 8.529 C 5.798 7.094,6.844 5.946,8.160 5.168 C 8.507 4.963,9.492 4.484,9.574 4.481 C 9.593 4.481,9.597 4.509,9.584 4.545 " fill="#1A1C1F" stroke="none" fill-rule="evenodd"></path></svg>