<svg xmlns="http://www.w3.org/2000/svg" width="14" height="14" fill="none"><g clip-path="url(#a)"><path fill="#1A1C1F" fill-rule="evenodd" d="m7.528 2.415.249-.526a.35.35 0 0 0-.333-.5l-.581.028a5.6 5.6 0 1 0 5.327 7.988l.25-.527a.35.35 0 0 0-.333-.499l-.582.027a4.2 4.2 0 0 1-3.997-5.99m-1.671.59-.043.215a5.6 5.6 0 0 0-.087.99l.002.175a5.6 5.6 0 0 0 4.4 5.297l.204.04-.062.074a4.2 4.2 0 1 1-4.414-6.79" clip-rule="evenodd"/></g><defs><clipPath id="a"><path fill="#fff" d="M0 0h14v14H0z"/></clipPath></defs></svg>