<svg xmlns="http://www.w3.org/2000/svg" width="24" height="24" fill="none"><g clip-path="url(#a)"><path fill="#1A1C1F" fill-rule="evenodd" d="m12.081 3.52.404-.826a.5.5 0 0 0-.51-.716l-.913.11c-4.994.607-8.789 4.86-8.789 9.933 0 5.525 4.48 10.005 10.005 10.005 3.862 0 7.328-2.21 8.994-5.617l.404-.827a.5.5 0 0 0-.51-.716l-.913.11a8.005 8.005 0 0 1-8.98-7.946 8 8 0 0 1 .808-3.51m-2.477.952-.074.295c-.17.735-.257 1.493-.257 2.263l.004.28c.14 5.118 4.123 9.275 9.167 9.691l.096.006-.135.167A8.005 8.005 0 0 1 4.273 12.02 8.01 8.01 0 0 1 9.34 4.573z" clip-rule="evenodd"/></g><defs><clipPath id="a"><path fill="#fff" d="M0 0h24v24H0z"/></clipPath></defs></svg>