<svg width="12" height="12" viewBox="0 0 12 12" fill="none" xmlns="http://www.w3.org/2000/svg"><path d="M5.843 1.222 C 4.708 1.294,3.725 1.711,2.856 2.488 C 2.240 3.039,1.714 3.895,1.491 4.709 C 1.312 5.362,1.264 6.170,1.370 6.780 C 1.740 8.930,3.468 10.556,5.620 10.780 C 5.871 10.806,6.393 10.805,6.636 10.779 C 7.366 10.699,8.139 10.419,8.749 10.011 C 9.063 9.801,9.250 9.646,9.532 9.357 C 9.903 8.977,10.112 8.692,10.352 8.233 C 10.685 7.599,10.724 7.483,10.652 7.344 C 10.584 7.212,10.580 7.211,9.871 7.198 C 9.160 7.186,9.034 7.169,8.591 7.027 C 7.526 6.686,6.659 5.822,6.300 4.745 C 6.162 4.329,6.140 4.173,6.140 3.607 C 6.140 3.159,6.145 3.087,6.189 2.878 C 6.250 2.581,6.309 2.412,6.499 1.980 C 6.584 1.788,6.664 1.602,6.678 1.567 C 6.730 1.437,6.619 1.241,6.479 1.213 C 6.402 1.197,6.175 1.200,5.843 1.222 M5.012 2.615 C 4.952 2.808,4.892 3.515,4.909 3.810 C 4.972 4.862,5.336 5.820,5.976 6.620 C 6.438 7.197,7.107 7.709,7.777 8.000 C 8.009 8.100,8.447 8.246,8.650 8.290 C 8.738 8.309,8.817 8.332,8.826 8.340 C 8.848 8.360,8.656 8.565,8.454 8.736 C 7.973 9.145,7.411 9.416,6.778 9.544 C 6.578 9.584,6.494 9.590,6.090 9.589 C 5.568 9.588,5.408 9.563,4.970 9.418 C 3.900 9.064,3.059 8.221,2.700 7.144 C 2.562 6.730,2.540 6.572,2.540 6.010 C 2.540 5.446,2.562 5.290,2.702 4.871 C 3.042 3.849,3.797 3.061,4.840 2.642 C 5.016 2.571,5.026 2.569,5.012 2.615 " fill="#1A1C1F" stroke="none" fill-rule="evenodd"></path></svg>