<svg xmlns="http://www.w3.org/2000/svg" width="20" height="20" fill="none"><g clip-path="url(#a)"><path fill="#1A1C1F" fill-rule="evenodd" d="m10.755 3.45.355-.752a.5.5 0 0 0-.476-.713l-.83.039a8 8 0 1 0 7.61 11.411l.357-.752a.5.5 0 0 0-.475-.713l-.831.038a6 6 0 0 1-5.71-8.558m-2.388.843-.061.307a8 8 0 0 0-.125 1.415l.004.25a8 8 0 0 0 6.285 7.567l.291.057-.088.105a6 6 0 0 1-10.492-3.979 6.01 6.01 0 0 1 4.186-5.722" clip-rule="evenodd"/></g><defs><clipPath id="a"><path fill="#fff" d="M0 0h20v20H0z"/></clipPath></defs></svg>