<svg xmlns="http://www.w3.org/2000/svg" width="20" height="20" fill="none"><path fill="#1A1C1F" fill-rule="evenodd" d="M9.66 2.036c-2.203.149-4.194 1.166-5.642 2.881-.515.609-1.084 1.606-1.368 2.396-.488 1.357-.598 2.986-.295 4.37a8 8 0 0 0 4.295 5.503 7.7 7.7 0 0 0 3.517.818c.954 0 1.641-.11 2.559-.411 1.674-.549 3.121-1.665 4.151-3.203.218-.325.838-1.535.922-1.798.072-.227-.081-.515-.315-.592-.071-.023-.297-.025-.694-.005-.323.016-.776.017-1.007.002-2.71-.175-4.944-2.144-5.49-4.836-.067-.332-.076-.473-.075-1.161.001-.722.008-.816.091-1.203.115-.539.235-.879.561-1.583.144-.313.272-.615.283-.671.029-.146-.087-.391-.226-.475-.095-.059-.162-.067-.494-.063-.21.003-.559.017-.773.031"/></svg>