<svg width="28" height="28" viewBox="0 0 28 28" fill="none" xmlns="http://www.w3.org/2000/svg"><path d="M13.034 2.705 C 11.483 2.881,9.663 3.555,8.246 4.478 C 7.588 4.907,7.220 5.204,6.555 5.843 C 5.014 7.325,3.900 9.279,3.408 11.363 C 3.174 12.356,3.150 12.617,3.152 14.093 C 3.153 15.406,3.159 15.497,3.278 16.053 C 3.683 17.946,4.303 19.365,5.321 20.731 C 7.120 23.145,9.813 24.770,12.763 25.223 C 13.449 25.329,14.902 25.367,15.610 25.298 C 18.407 25.025,21.186 23.596,22.993 21.500 C 23.978 20.358,24.880 18.853,24.888 18.339 C 24.892 18.057,24.754 17.793,24.512 17.623 L 24.322 17.488 23.303 17.476 C 22.229 17.463,21.804 17.412,20.930 17.193 C 17.879 16.426,15.465 14.328,14.303 11.433 C 13.865 10.343,13.682 9.463,13.641 8.260 C 13.595 6.882,13.737 5.887,14.146 4.713 C 14.569 3.502,14.587 3.365,14.360 3.029 C 14.149 2.716,13.766 2.622,13.034 2.705 M12.273 4.642 C 12.273 4.654,12.212 4.953,12.136 5.307 C 11.856 6.625,11.792 7.615,11.901 8.933 C 12.074 11.018,12.987 13.263,14.348 14.951 C 14.739 15.437,15.640 16.342,16.123 16.734 C 17.129 17.552,18.497 18.276,19.857 18.710 C 20.438 18.896,21.261 19.067,22.130 19.182 L 22.538 19.236 22.411 19.406 C 21.737 20.315,20.903 21.170,20.144 21.733 C 17.294 23.846,13.532 24.199,10.323 22.655 C 9.241 22.134,8.451 21.561,7.582 20.666 C 5.972 19.008,5.079 17.023,4.891 14.685 C 4.674 11.982,5.611 9.339,7.457 7.449 C 8.693 6.184,9.964 5.416,12.087 4.653 C 12.178 4.620,12.273 4.614,12.273 4.642 " fill="#1A1C1F" stroke="none" fill-rule="evenodd"></path></svg>