<svg width="20" height="20" viewBox="0 0 20 20" fill="none" xmlns="http://www.w3.org/2000/svg"><path d="M9.738 2.034 C 7.866 2.161,6.278 2.822,4.848 4.068 C 3.991 4.815,3.215 5.921,2.751 7.059 C 2.151 8.530,2.025 10.378,2.419 11.940 C 2.693 13.029,3.266 14.178,3.967 15.046 C 5.074 16.416,6.743 17.450,8.450 17.821 C 9.183 17.980,10.282 18.044,11.002 17.970 C 12.226 17.843,13.512 17.389,14.517 16.731 C 15.482 16.097,16.465 15.089,17.005 14.178 C 17.218 13.819,17.752 12.745,17.794 12.592 C 17.841 12.420,17.787 12.243,17.647 12.112 L 17.536 12.007 16.443 11.991 C 15.216 11.973,15.047 11.950,14.283 11.697 C 12.251 11.024,10.731 9.295,10.299 7.167 C 10.235 6.848,10.230 6.736,10.242 5.900 C 10.255 5.005,10.258 4.974,10.359 4.583 C 10.460 4.189,10.607 3.804,10.981 2.954 C 11.132 2.611,11.166 2.505,11.148 2.421 C 11.119 2.283,11.022 2.128,10.927 2.068 C 10.833 2.008,10.331 1.994,9.738 2.034 " fill="#1A1C1F" stroke="none" fill-rule="evenodd"></path></svg>