<svg width="20" height="20" viewBox="0 0 20 20" fill="none" xmlns="http://www.w3.org/2000/svg"><path d="M9.738 2.034 C 7.866 2.161,6.278 2.822,4.848 4.068 C 3.991 4.815,3.215 5.921,2.751 7.059 C 2.151 8.530,2.025 10.378,2.419 11.940 C 2.693 13.029,3.266 14.178,3.967 15.046 C 5.074 16.416,6.743 17.450,8.450 17.821 C 9.183 17.980,10.282 18.044,11.002 17.970 C 12.522 17.812,14.014 17.194,15.217 16.223 C 15.826 15.731,16.628 14.815,17.005 14.178 C 17.218 13.819,17.752 12.745,17.794 12.592 C 17.841 12.420,17.787 12.243,17.647 12.112 L 17.536 12.007 16.443 11.991 C 15.216 11.973,15.047 11.950,14.283 11.697 C 12.251 11.024,10.731 9.295,10.299 7.167 C 10.235 6.848,10.230 6.736,10.242 5.900 C 10.255 5.005,10.258 4.974,10.359 4.583 C 10.460 4.189,10.607 3.804,10.981 2.954 C 11.132 2.611,11.166 2.505,11.148 2.421 C 11.119 2.283,11.022 2.128,10.927 2.068 C 10.833 2.008,10.331 1.994,9.738 2.034 M8.353 4.358 C 8.309 4.502,8.232 5.082,8.198 5.537 C 8.121 6.542,8.291 7.707,8.671 8.767 C 8.825 9.196,9.199 9.940,9.468 10.350 C 10.333 11.673,11.571 12.730,12.961 13.333 C 13.349 13.501,14.078 13.743,14.417 13.817 C 14.563 13.849,14.696 13.886,14.711 13.900 C 14.749 13.934,14.413 14.289,14.068 14.578 C 13.267 15.251,12.339 15.695,11.297 15.906 C 10.963 15.974,10.823 15.983,10.150 15.982 C 9.279 15.980,9.013 15.939,8.283 15.697 C 6.253 15.024,4.730 13.295,4.302 11.178 C 4.202 10.683,4.202 9.350,4.302 8.855 C 4.704 6.866,6.066 5.223,7.955 4.450 C 8.154 4.368,8.329 4.301,8.344 4.301 C 8.359 4.300,8.363 4.326,8.353 4.358 " fill="#1A1C1F" stroke="none" fill-rule="evenodd"></path></svg>