<svg xmlns="http://www.w3.org/2000/svg" width="12" height="12" fill="none"><g clip-path="url(#a)"><path fill="#1A1C1F" fill-rule="evenodd" d="m6.453 2.07.213-.45a.3.3 0 0 0-.285-.429l-.499.023a4.8 4.8 0 1 0 4.567 6.847l.213-.451a.3.3 0 0 0-.285-.428l-.498.023-.17.004A3.6 3.6 0 0 1 6.453 2.07m-1.433.506-.036.184q-.075.418-.075.849l.002.15a4.8 4.8 0 0 0 3.77 4.54l.176.034-.053.064a3.6 3.6 0 1 1-3.784-5.82" clip-rule="evenodd"/></g><defs><clipPath id="a"><path fill="#fff" d="M0 0h12v12H0z"/></clipPath></defs></svg>