<svg width="16" height="16" viewBox="0 0 16 16" fill="none" xmlns="http://www.w3.org/2000/svg"><path d="M7.790 1.629 C 6.899 1.685,6.099 1.898,5.311 2.286 C 3.903 2.980,2.805 4.167,2.201 5.647 C 1.719 6.828,1.619 8.298,1.935 9.552 C 2.394 11.375,3.622 12.898,5.307 13.736 C 6.177 14.168,6.972 14.365,7.962 14.393 C 8.741 14.414,9.231 14.354,9.938 14.148 C 11.017 13.835,11.919 13.289,12.722 12.463 C 13.206 11.966,13.486 11.582,13.803 10.978 C 14.247 10.132,14.299 9.978,14.203 9.793 C 14.112 9.616,14.106 9.615,13.161 9.598 C 12.445 9.584,12.264 9.573,12.040 9.527 C 10.316 9.171,8.947 7.968,8.401 6.327 C 8.216 5.772,8.187 5.564,8.187 4.809 C 8.187 4.213,8.194 4.116,8.251 3.838 C 8.336 3.433,8.411 3.213,8.662 2.645 C 8.777 2.385,8.886 2.136,8.904 2.090 C 8.973 1.916,8.826 1.655,8.638 1.617 C 8.535 1.596,8.233 1.601,7.790 1.629 " fill="#1A1C1F" stroke="none" fill-rule="evenodd"></path></svg>