<svg width="32" height="32" viewBox="0 0 32 32" fill="none" xmlns="http://www.w3.org/2000/svg"><path d="M14.897 3.092 C 12.747 3.336,10.238 4.391,8.465 5.797 C 7.857 6.279,6.618 7.548,6.171 8.147 C 4.826 9.949,3.937 12.108,3.656 14.256 C 3.547 15.090,3.546 16.856,3.656 17.688 C 3.915 19.671,4.609 21.510,5.735 23.200 C 7.475 25.814,10.276 27.797,13.307 28.562 C 14.314 28.816,15.043 28.913,16.187 28.945 C 17.657 28.987,18.726 28.863,19.978 28.506 C 23.306 27.558,25.901 25.580,27.693 22.626 C 28.210 21.774,28.438 21.266,28.443 20.959 C 28.448 20.637,28.290 20.335,28.014 20.140 L 27.797 19.987 26.632 19.973 C 25.404 19.958,24.917 19.900,23.921 19.649 C 20.180 18.707,17.317 16.045,16.087 12.366 C 15.737 11.318,15.576 10.270,15.574 9.032 C 15.572 7.653,15.744 6.601,16.167 5.387 C 16.651 4.002,16.671 3.846,16.412 3.462 C 16.170 3.104,15.732 2.997,14.897 3.092 M14.027 5.305 C 14.027 5.318,13.956 5.660,13.870 6.065 C 13.550 7.571,13.476 8.703,13.601 10.209 C 13.802 12.637,14.905 15.308,16.489 17.200 C 16.959 17.761,17.894 18.691,18.427 19.126 C 19.002 19.596,19.901 20.168,20.675 20.555 C 22.194 21.316,23.367 21.664,25.292 21.922 L 25.757 21.984 25.613 22.179 C 23.913 24.475,21.937 25.889,19.467 26.578 C 18.264 26.913,16.769 27.053,15.600 26.939 C 11.676 26.556,8.373 24.277,6.665 20.773 C 6.234 19.891,5.971 19.126,5.788 18.228 C 5.211 15.387,5.745 12.405,7.242 10.107 C 8.324 8.446,9.982 7.009,11.840 6.123 C 12.199 5.952,13.348 5.483,13.813 5.317 C 13.918 5.280,14.027 5.274,14.027 5.305 " fill="#1A1C1F" stroke="none" fill-rule="evenodd"></path></svg>