<svg xmlns="http://www.w3.org/2000/svg" width="32" height="32" fill="none"><path fill="#1A1C1F" fill-rule="evenodd" d="M14.64 3.121c-2.282.359-4.395 1.27-6.151 2.654-.516.406-1.514 1.38-1.959 1.911-.764.911-1.612 2.332-2.048 3.429-.65 1.636-.929 3.102-.928 4.885 0 2.096.404 3.836 1.331 5.741 1.224 2.514 3.312 4.598 5.89 5.881 1.835.912 3.678 1.342 5.758 1.342 1.526 0 2.64-.176 4.054-.642 2.809-.926 5.13-2.687 6.748-5.122.522-.784 1.007-1.687 1.093-2.032a.98.98 0 0 0-.597-1.139c-.182-.072-.328-.082-.839-.052-1.213.07-2.656-.144-3.992-.59-3.52-1.176-6.218-4.112-7.134-7.76-.217-.864-.301-1.604-.301-2.64 0-1.593.245-2.846.837-4.276.293-.708.235-1.127-.207-1.481-.187-.149-.242-.164-.64-.174a6 6 0 0 0-.915.065m-.723 2.741c-.081.32-.2.95-.265 1.4-.103.714-.115.967-.091 1.991.021.871.058 1.344.144 1.833.488 2.761 1.707 5.129 3.627 7.048 1.091 1.09 2.111 1.825 3.441 2.479 1.365.671 2.572 1.045 3.951 1.227.379.049.767.101.863.114l.174.024-.302.411c-1.387 1.891-3.301 3.314-5.394 4.012-4.001 1.334-8.322.323-11.292-2.641a10.95 10.95 0 0 1-3.226-7.779c0-4.163 2.151-7.679 5.92-9.678.686-.364 2.288-1.008 2.538-1.02.036-.002.003.215-.088.579"/></svg>