<svg width="12" height="12" viewBox="0 0 12 12" fill="none" xmlns="http://www.w3.org/2000/svg"><path d="M5.843 1.222 C 4.708 1.294,3.725 1.711,2.856 2.488 C 2.240 3.039,1.714 3.895,1.491 4.709 C 1.312 5.362,1.264 6.170,1.370 6.780 C 1.691 8.644,3.038 10.137,4.851 10.638 C 5.520 10.823,6.350 10.854,7.022 10.719 C 7.959 10.531,8.758 10.111,9.436 9.452 C 9.845 9.054,10.098 8.718,10.352 8.233 C 10.685 7.599,10.724 7.483,10.652 7.344 C 10.584 7.212,10.580 7.211,9.871 7.198 C 9.160 7.186,9.034 7.169,8.591 7.027 C 7.526 6.686,6.659 5.822,6.300 4.745 C 6.162 4.329,6.140 4.173,6.140 3.607 C 6.140 3.159,6.145 3.087,6.189 2.878 C 6.250 2.581,6.309 2.412,6.499 1.980 C 6.584 1.788,6.664 1.602,6.678 1.567 C 6.730 1.437,6.619 1.241,6.479 1.213 C 6.402 1.197,6.175 1.200,5.843 1.222 " fill="#1A1C1F" stroke="none" fill-rule="evenodd"></path></svg>