<svg xmlns="http://www.w3.org/2000/svg" width="28" height="28" fill="none"><g clip-path="url(#a)"><path fill="#1A1C1F" fill-rule="evenodd" d="M14.454 3.878a.875.875 0 0 0-.863-1.235C7.687 3.094 3.094 8.029 3.094 13.985c0 6.282 5.093 11.375 11.375 11.375 4.504 0 8.526-2.642 10.358-6.67a.875.875 0 0 0-.863-1.234 9.625 9.625 0 0 1-10.37-9.597c0-1.393.296-2.742.86-3.98m-2.136.722c-.034.115-.544 1.738-.47 3.528.136 5.89 4.774 10.727 10.702 11.086-1.882 2.81-4.814 4.396-8.08 4.396a9.625 9.625 0 0 1-9.626-9.625c0-4.527 2.901-8.075 7.474-9.385" clip-rule="evenodd"/></g><defs><clipPath id="a"><path fill="#fff" d="M0 0h28v28H0z"/></clipPath></defs></svg>