<svg width="14" height="14" viewBox="0 0 14 14" fill="none" xmlns="http://www.w3.org/2000/svg"><path d="M6.802 1.424 C 6.030 1.480,5.338 1.662,4.678 1.984 C 3.051 2.778,1.910 4.300,1.610 6.077 C 1.515 6.642,1.510 7.398,1.598 7.913 C 1.907 9.705,3.027 11.215,4.643 12.019 C 5.172 12.282,5.673 12.442,6.292 12.546 C 6.648 12.605,7.652 12.605,7.992 12.546 C 8.606 12.438,9.264 12.217,9.753 11.954 C 10.222 11.703,10.604 11.420,11.010 11.026 C 11.486 10.563,11.781 10.171,12.078 9.605 C 12.466 8.865,12.512 8.731,12.428 8.569 C 12.348 8.414,12.343 8.413,11.516 8.398 C 10.687 8.383,10.540 8.364,10.023 8.198 C 8.602 7.744,7.513 6.511,7.210 5.017 C 7.164 4.793,7.161 4.715,7.169 4.130 C 7.179 3.504,7.181 3.482,7.251 3.208 C 7.322 2.933,7.425 2.663,7.687 2.068 C 7.793 1.828,7.816 1.753,7.804 1.695 C 7.783 1.598,7.715 1.490,7.649 1.447 C 7.583 1.406,7.208 1.395,6.802 1.424 M5.847 3.051 C 5.818 3.146,5.763 3.558,5.739 3.862 C 5.688 4.495,5.786 5.270,5.999 5.927 C 6.444 7.294,7.401 8.445,8.669 9.136 C 9.055 9.347,9.684 9.583,10.092 9.672 C 10.194 9.694,10.287 9.720,10.297 9.730 C 10.324 9.754,10.089 10.003,9.848 10.205 C 9.287 10.675,8.637 10.987,7.908 11.134 C 7.674 11.182,7.575 11.188,7.105 11.187 C 6.496 11.186,6.313 11.158,5.798 10.988 C 4.549 10.574,3.569 9.592,3.150 8.335 C 2.989 7.852,2.963 7.668,2.963 7.012 C 2.963 6.354,2.989 6.172,3.152 5.683 C 3.541 4.516,4.418 3.584,5.572 3.112 C 5.709 3.056,5.830 3.010,5.841 3.010 C 5.851 3.010,5.854 3.028,5.847 3.051 " fill="#1A1C1F" stroke="none" fill-rule="evenodd"></path></svg>