<svg xmlns="http://www.w3.org/2000/svg" width="16" height="16" fill="none"><g clip-path="url(#a)"><path fill="#1A1C1F" fill-rule="evenodd" d="m8.604 2.76.284-.601a.4.4 0 0 0-.38-.57l-.665.03a6.4 6.4 0 1 0 6.089 9.13l.285-.602a.4.4 0 0 0-.38-.571l-.665.03q-.114.006-.227.006A4.8 4.8 0 0 1 8.604 2.76m-1.91.674-.05.246q-.099.557-.1 1.132l.004.2a6.4 6.4 0 0 0 5.028 6.053l.233.046-.07.084a4.8 4.8 0 1 1-5.045-7.761" clip-rule="evenodd"/></g><defs><clipPath id="a"><path fill="#fff" d="M0 0h16v16H0z"/></clipPath></defs></svg>