<svg width="24" height="24" viewBox="0 0 24 24" fill="none" xmlns="http://www.w3.org/2000/svg"><path d="M11.785 2.164 C 11.594 2.209,11.355 2.395,11.232 2.592 C 11.143 2.734,11.139 2.778,11.126 3.731 L 11.113 4.721 10.518 4.146 C 10.191 3.830,9.862 3.541,9.786 3.505 C 9.618 3.426,9.245 3.420,9.066 3.495 C 8.994 3.525,8.869 3.627,8.787 3.722 C 8.553 3.996,8.498 4.320,8.635 4.622 C 8.683 4.728,9.124 5.205,9.920 6.013 L 11.132 7.243 11.110 8.824 C 11.098 9.693,11.079 10.414,11.069 10.425 C 11.048 10.445,8.216 8.825,8.133 8.746 C 8.107 8.721,7.930 8.133,7.741 7.440 C 7.215 5.516,7.226 5.549,7.034 5.384 C 6.821 5.202,6.648 5.147,6.356 5.168 C 6.066 5.189,5.825 5.342,5.687 5.592 C 5.554 5.832,5.569 6.101,5.756 6.833 C 5.887 7.348,5.902 7.442,5.846 7.421 C 5.810 7.407,5.522 7.250,5.207 7.072 C 4.563 6.708,4.409 6.644,4.180 6.643 C 3.662 6.640,3.225 7.214,3.360 7.720 C 3.432 7.991,3.683 8.203,4.510 8.691 C 4.912 8.928,5.240 9.136,5.240 9.152 C 5.240 9.169,4.992 9.250,4.690 9.333 C 3.390 9.690,3.252 9.757,3.091 10.107 C 3.009 10.287,2.994 10.367,3.014 10.529 C 3.066 10.973,3.429 11.320,3.840 11.320 C 3.972 11.320,5.034 11.059,6.427 10.683 L 7.475 10.401 8.587 11.045 C 9.916 11.814,10.160 11.962,10.160 12.000 C 10.160 12.030,8.737 12.885,7.737 13.456 C 7.357 13.673,7.091 13.800,7.017 13.800 C 6.953 13.800,6.360 13.658,5.700 13.485 C 3.753 12.975,3.743 12.974,3.393 13.196 C 3.187 13.327,3.042 13.579,3.010 13.863 C 2.994 14.000,3.014 14.087,3.098 14.259 C 3.271 14.614,3.401 14.684,4.370 14.943 C 4.606 15.006,4.800 15.071,4.800 15.087 C 4.800 15.124,4.552 15.292,4.129 15.541 C 3.567 15.873,3.410 16.046,3.344 16.410 C 3.264 16.851,3.712 17.357,4.185 17.359 C 4.424 17.360,4.586 17.291,5.298 16.885 C 5.649 16.684,5.950 16.520,5.968 16.520 C 6.019 16.520,6.010 16.565,5.797 17.393 C 5.686 17.826,5.592 18.271,5.589 18.383 C 5.576 18.895,6.160 19.348,6.647 19.203 C 6.867 19.138,7.153 18.906,7.225 18.735 C 7.255 18.663,7.479 17.870,7.724 16.972 C 7.968 16.074,8.182 15.313,8.200 15.280 C 8.251 15.185,11.030 13.536,11.071 13.577 C 11.080 13.587,11.098 14.388,11.110 15.357 L 11.132 17.119 9.914 18.351 C 9.240 19.034,8.666 19.648,8.628 19.728 C 8.377 20.257,8.848 20.960,9.454 20.960 C 9.685 20.960,9.922 20.794,10.519 20.214 L 11.112 19.639 11.127 20.429 C 11.142 21.145,11.151 21.236,11.230 21.385 C 11.394 21.698,11.770 21.911,12.084 21.869 C 12.304 21.839,12.582 21.659,12.735 21.446 L 12.860 21.272 12.874 20.453 L 12.888 19.634 13.414 20.150 C 13.703 20.434,14.018 20.723,14.113 20.791 C 14.441 21.027,14.834 20.998,15.141 20.714 C 15.437 20.442,15.510 20.064,15.336 19.698 C 15.293 19.606,14.780 19.055,14.066 18.332 L 12.868 17.119 12.889 15.358 C 12.901 14.389,12.919 13.588,12.929 13.577 C 12.968 13.538,15.750 15.187,15.799 15.278 C 15.817 15.312,16.032 16.078,16.278 16.980 C 16.523 17.882,16.755 18.683,16.792 18.759 C 16.877 18.934,17.151 19.143,17.372 19.204 C 17.700 19.294,18.134 19.091,18.315 18.764 C 18.455 18.511,18.437 18.291,18.197 17.368 C 18.082 16.923,17.998 16.548,18.012 16.535 C 18.026 16.521,18.321 16.671,18.668 16.867 C 19.416 17.290,19.581 17.360,19.825 17.360 C 20.345 17.360,20.776 16.789,20.640 16.280 C 20.576 16.037,20.326 15.805,19.795 15.492 C 19.357 15.234,19.166 15.099,19.200 15.070 C 19.211 15.061,19.472 14.984,19.780 14.900 C 20.492 14.705,20.647 14.639,20.775 14.471 C 20.900 14.306,21.000 14.036,21.000 13.863 C 21.000 13.646,20.811 13.325,20.607 13.196 C 20.259 12.975,20.195 12.984,18.159 13.524 L 16.938 13.847 15.548 13.044 C 14.084 12.197,13.840 12.048,13.840 12.000 C 13.840 11.950,13.898 11.914,15.229 11.146 L 16.518 10.403 18.089 10.822 C 19.996 11.330,20.168 11.366,20.373 11.295 C 20.912 11.109,21.148 10.506,20.869 10.031 C 20.713 9.766,20.532 9.675,19.698 9.444 C 19.301 9.334,18.946 9.234,18.908 9.222 C 18.871 9.210,18.809 9.190,18.771 9.178 C 18.724 9.163,18.941 9.015,19.461 8.708 C 20.378 8.167,20.572 7.996,20.639 7.670 C 20.675 7.492,20.675 7.404,20.639 7.290 C 20.509 6.879,20.218 6.661,19.800 6.661 C 19.518 6.660,19.534 6.653,18.529 7.220 C 18.303 7.347,18.111 7.444,18.103 7.436 C 18.095 7.427,18.170 7.099,18.271 6.707 L 18.453 5.994 18.385 5.778 C 18.300 5.511,18.170 5.351,17.946 5.243 C 17.531 5.042,16.973 5.219,16.787 5.610 C 16.753 5.682,16.572 6.299,16.385 6.981 C 15.927 8.644,15.900 8.729,15.793 8.795 C 15.299 9.102,12.947 10.440,12.931 10.425 C 12.920 10.413,12.901 9.691,12.889 8.821 L 12.868 7.238 14.006 6.089 C 14.632 5.457,15.204 4.853,15.276 4.747 C 15.349 4.640,15.418 4.483,15.430 4.397 C 15.476 4.054,15.257 3.658,14.943 3.516 C 14.749 3.428,14.410 3.418,14.226 3.495 C 14.153 3.525,13.821 3.815,13.487 4.140 L 12.880 4.729 12.880 3.867 C 12.880 2.922,12.844 2.659,12.692 2.478 C 12.474 2.218,12.099 2.088,11.785 2.164 " fill="#1A1C1F" stroke="none" fill-rule="evenodd"></path></svg>