<svg xmlns="http://www.w3.org/2000/svg" width="20" height="20" fill="none"><g clip-path="url(#a)"><path fill="#1A1C1F" fill-rule="evenodd" d="M10.004 2.25c.38 0 .752.305.743.75l.006 1.189.72-.72c.267-.266.73-.308 1.028-.036.299.271.368.719.034 1.097l-1.782 1.78v2.391L13.007 7.4l.604-2.248a.75.75 0 0 1 .918-.53.735.735 0 0 1 .53.918l-.215.799.847-.489a.75.75 0 1 1 .75 1.3l-1.079.622 1.167.313c.393.088.631.518.53.919-.1.4-.457.642-.918.53l-2.617-.701-2.02 1.166 2.388 1.379 2.249-.601a.75.75 0 1 1 .388 1.448l-.8.214.712.412a.75.75 0 0 1 .275 1.024.744.744 0 0 1-1.025.274l-.945-.546.313 1.168c.098.364-.103.795-.478.918a.777.777 0 0 1-.97-.53l-.703-2.617-2.155-1.244V14l1.782 1.78a.75.75 0 0 1 0 1.061.76.76 0 0 1-1.03.04l-.752-.761.001.88a.75.75 0 0 1-.75.75c-.38 0-.75-.29-.75-.75v-.879l-.72.72a.754.754 0 0 1-1.06 0c-.27-.266-.31-.72 0-1.06L9.254 14v-2.701l-2.156 1.244-.7 2.616a.75.75 0 0 1-.919.53c-.363-.097-.645-.495-.552-.88l.334-1.205-.944.546a.75.75 0 0 1-1.024-.275c-.19-.329-.131-.78.232-.99l.753-.446-.799-.214c-.363-.097-.665-.496-.53-.918s.51-.625.919-.53l2.247.601 2.39-1.379-2.022-1.167-2.615.702a.76.76 0 0 1-.919-.53c-.096-.383.096-.807.497-.919l1.2-.313-1.079-.622a.75.75 0 0 1-.274-1.025.76.76 0 0 1 1.024-.275l.845.488-.213-.798c-.097-.364.061-.803.504-.919.442-.115.825.116.945.53L6.999 7.4 9.253 8.7V6.31l-1.78-1.78a.75.75 0 0 1 0-1.06.76.76 0 0 1 1.031-.037l.75.755V3a.75.75 0 0 1 .75-.75" clip-rule="evenodd"/></g><defs><clipPath id="a"><path fill="#fff" d="M0 0h20v20H0z"/></clipPath></defs></svg>