<svg xmlns="http://www.w3.org/2000/svg" width="32" height="32" fill="none"><g clip-path="url(#a)"><path fill="#1A1C1F" fill-rule="evenodd" d="M16 3.125c.446 0 .883.366.875.875v1.744l1.078-1.077a.875.875 0 0 1 1.237 0 .887.887 0 0 1 0 1.237L16.875 8.22v6.265l5.64-3.256.79-2.948a.875.875 0 0 1 1.072-.619.87.87 0 0 1 .618 1.072l-.337 1.258 1.297-.749a.875.875 0 0 1 1.195.32.89.89 0 0 1-.262 1.16l-1.627.941 1.687.452a.875.875 0 0 1 .619 1.072c-.115.428-.553.73-1 .638l-3.45-.925L17.75 16l5.797 3.346 2.95-.79a.875.875 0 0 1 1.07.62c.116.428-.128.944-.618 1.071l-1.258.337 1.14.658a.875.875 0 0 1-.875 1.516l-1.412-.816.452 1.687a.875.875 0 1 1-1.69.453l-.905-3.377-5.525-3.19v6.627l2.315 2.316a.875.875 0 1 1-1.237 1.237l-1.078-1.078V28a.871.871 0 1 1-1.743 0l-.007-1.383-1.078 1.078a.875.875 0 0 1-1.237-1.237l2.315-2.316v-6.627l-5.526 3.19-.904 3.377a.875.875 0 0 1-1.071.62c-.428-.116-.754-.58-.62-1.073l.452-1.687-1.41.816a.875.875 0 0 1-.876-1.516l1.138-.658-1.256-.337a.875.875 0 1 1 .453-1.69l2.948.789 5.798-3.347L8.88 12.9l-3.376.906a.875.875 0 0 1-.453-1.69l1.686-.453-1.568-.905a.875.875 0 0 1 .875-1.516l1.296.749-.336-1.258a.875.875 0 0 1 .619-1.072c.428-.114.904.092 1.071.62l.79 2.947 5.64 3.256V8.219L12.81 5.904a.875.875 0 0 1 0-1.237c.313-.313.808-.365 1.215-.027l1.1 1.104V4c0-.483.392-.875.875-.875" clip-rule="evenodd"/></g><defs><clipPath id="a"><path fill="#fff" d="M0 0h32v32H0z"/></clipPath></defs></svg>