<svg xmlns="http://www.w3.org/2000/svg" width="24" height="24" fill="none"><g clip-path="url(#a)"><path fill="#1A1C1F" fill-rule="evenodd" d="M12 2.125c.446 0 .883.366.875.875v1.744l1.078-1.077a.875.875 0 0 1 1.237 0 .887.887 0 0 1 0 1.237L12.875 7.22v3.265l3.042-1.756.79-2.948a.875.875 0 0 1 1.072-.619.87.87 0 0 1 .618 1.072l-.337 1.258 1.297-.749a.875.875 0 0 1 1.195.32.89.89 0 0 1-.262 1.16l-1.627.941 1.687.452a.875.875 0 0 1 .619 1.072c-.115.428-.553.73-1 .638l-3.45-.925-2.77 1.6 3.199 1.846 2.95-.79a.875.875 0 0 1 1.07.62c.116.428-.128.944-.618 1.071l-1.258.337 1.14.658a.875.875 0 0 1-.875 1.516l-1.412-.816.452 1.687a.875.875 0 0 1-1.69.453l-.905-3.377-2.927-1.69v3.627l2.315 2.316a.875.875 0 1 1-1.237 1.237l-1.078-1.078V21a.871.871 0 1 1-1.743 0l-.007-1.383-1.078 1.078a.875.875 0 0 1-1.237-1.237l2.315-2.316v-3.627l-2.927 1.69-.905 3.377a.875.875 0 0 1-1.071.62c-.428-.116-.754-.58-.619-1.073l.452-1.687-1.412.816a.875.875 0 0 1-.875-1.516l1.139-.658-1.257-.337a.875.875 0 1 1 .453-1.69l2.949.789 3.199-1.847L7.48 10.4l-3.377.906a.875.875 0 0 1-.453-1.69l1.687-.453-1.569-.905a.875.875 0 1 1 .875-1.516l1.297.749-.337-1.258a.875.875 0 0 1 .619-1.072c.428-.114.904.092 1.071.62l.79 2.947 3.042 1.756V7.219L8.81 4.904a.875.875 0 0 1 0-1.237c.313-.313.809-.365 1.215-.027l1.1 1.104V3c0-.483.392-.875.875-.875" clip-rule="evenodd"/></g><defs><clipPath id="a"><path fill="#fff" d="M0 0h24v24H0z"/></clipPath></defs></svg>