<svg width="16" height="16" viewBox="0 0 16 16" fill="none" xmlns="http://www.w3.org/2000/svg"><path d="M7.807 1.850 C 7.461 1.979,7.388 2.163,7.387 2.916 L 7.387 3.313 7.082 3.020 C 6.715 2.667,6.596 2.600,6.372 2.621 C 6.057 2.649,5.848 2.845,5.821 3.138 C 5.796 3.414,5.828 3.458,6.652 4.290 L 7.387 5.031 7.386 5.949 C 7.386 6.454,7.377 6.880,7.366 6.897 C 7.353 6.918,7.266 6.881,7.093 6.782 C 6.954 6.702,6.568 6.479,6.235 6.287 L 5.630 5.937 5.550 5.682 C 5.506 5.541,5.408 5.199,5.333 4.920 C 5.063 3.921,5.041 3.871,4.817 3.753 C 4.737 3.711,4.658 3.695,4.533 3.695 C 4.318 3.694,4.160 3.773,4.041 3.943 C 3.965 4.051,3.960 4.073,3.965 4.276 C 3.968 4.424,3.995 4.585,4.049 4.780 C 4.093 4.938,4.121 5.063,4.111 5.058 C 4.101 5.052,3.928 4.954,3.725 4.840 C 3.327 4.615,3.205 4.581,2.997 4.637 C 2.746 4.705,2.588 4.897,2.566 5.164 C 2.540 5.463,2.664 5.604,3.261 5.957 C 3.477 6.085,3.653 6.199,3.653 6.211 C 3.653 6.223,3.584 6.252,3.500 6.274 C 2.848 6.450,2.720 6.490,2.627 6.542 C 2.243 6.757,2.259 7.331,2.656 7.563 C 2.867 7.687,2.914 7.679,4.442 7.268 L 5.184 7.068 5.679 7.352 C 6.539 7.846,6.750 7.976,6.740 8.006 C 6.730 8.037,5.958 8.497,5.289 8.872 L 4.885 9.098 4.209 8.919 C 3.409 8.708,3.003 8.614,2.893 8.614 C 2.781 8.614,2.554 8.726,2.482 8.817 C 2.239 9.126,2.332 9.570,2.673 9.726 C 2.777 9.773,3.011 9.846,3.303 9.920 L 3.419 9.950 3.161 10.107 C 2.811 10.321,2.658 10.436,2.612 10.523 C 2.587 10.569,2.574 10.670,2.575 10.802 C 2.576 10.986,2.584 11.020,2.654 11.121 C 2.769 11.287,2.907 11.368,3.096 11.382 C 3.285 11.395,3.319 11.383,3.794 11.125 C 3.996 11.016,4.166 10.931,4.171 10.936 C 4.177 10.942,4.122 11.182,4.049 11.470 C 3.932 11.932,3.920 12.006,3.945 12.100 C 3.990 12.268,4.119 12.422,4.275 12.495 C 4.624 12.658,4.996 12.493,5.107 12.127 C 5.159 11.956,5.655 10.169,5.672 10.090 C 5.681 10.051,5.803 9.965,6.076 9.807 C 6.977 9.284,7.332 9.089,7.359 9.106 C 7.377 9.117,7.387 9.463,7.387 10.166 L 7.387 11.209 6.659 11.945 C 6.154 12.454,5.912 12.717,5.872 12.802 C 5.735 13.087,5.854 13.428,6.143 13.580 C 6.282 13.653,6.534 13.659,6.659 13.592 C 6.706 13.567,6.887 13.409,7.062 13.240 L 7.379 12.934 7.393 13.327 C 7.403 13.615,7.419 13.750,7.453 13.834 C 7.518 13.993,7.675 14.119,7.875 14.173 C 8.024 14.213,8.051 14.213,8.154 14.176 C 8.314 14.119,8.444 14.012,8.528 13.869 C 8.596 13.753,8.600 13.725,8.610 13.340 L 8.619 12.933 8.933 13.235 C 9.105 13.401,9.293 13.559,9.349 13.586 C 9.493 13.654,9.724 13.649,9.880 13.573 C 10.188 13.424,10.292 12.996,10.087 12.721 C 10.049 12.669,9.702 12.308,9.315 11.919 L 8.613 11.211 8.613 10.222 C 8.613 9.678,8.621 9.197,8.629 9.153 L 8.646 9.072 8.943 9.241 C 9.106 9.334,9.485 9.551,9.784 9.725 L 10.328 10.040 10.572 10.947 C 10.896 12.148,10.942 12.282,11.068 12.403 C 11.167 12.498,11.366 12.587,11.481 12.587 C 11.673 12.587,11.912 12.422,12.003 12.227 C 12.078 12.064,12.064 11.891,11.936 11.391 C 11.871 11.139,11.831 10.933,11.846 10.933 C 11.861 10.933,11.976 10.992,12.103 11.063 C 12.446 11.256,12.696 11.377,12.792 11.395 C 12.910 11.418,13.129 11.347,13.239 11.251 C 13.510 11.013,13.506 10.567,13.231 10.351 C 13.177 10.309,13.008 10.202,12.856 10.113 L 12.578 9.951 12.696 9.921 C 13.097 9.817,13.322 9.744,13.395 9.695 C 13.710 9.483,13.743 9.003,13.459 8.760 C 13.229 8.563,13.146 8.569,12.000 8.865 C 11.582 8.973,11.209 9.069,11.170 9.077 C 11.114 9.090,10.981 9.025,10.503 8.751 C 9.620 8.246,9.253 8.026,9.253 8.001 C 9.253 7.979,9.495 7.834,10.378 7.324 L 10.822 7.067 11.564 7.267 C 13.002 7.655,13.072 7.670,13.218 7.631 C 13.392 7.584,13.501 7.494,13.584 7.329 C 13.735 7.026,13.627 6.655,13.352 6.524 C 13.303 6.501,13.057 6.426,12.805 6.357 C 12.553 6.288,12.347 6.223,12.347 6.212 C 12.347 6.201,12.536 6.082,12.767 5.946 C 12.998 5.810,13.231 5.653,13.286 5.596 C 13.533 5.338,13.477 4.904,13.168 4.700 C 13.072 4.636,13.031 4.627,12.855 4.627 C 12.654 4.627,12.652 4.627,12.320 4.816 C 12.137 4.919,11.966 5.012,11.940 5.022 C 11.886 5.041,11.884 5.061,11.992 4.632 C 12.080 4.280,12.082 4.174,11.999 4.012 C 11.877 3.775,11.573 3.632,11.337 3.702 C 11.187 3.747,11.024 3.866,10.966 3.971 C 10.906 4.081,10.864 4.218,10.643 5.027 C 10.554 5.349,10.462 5.682,10.438 5.766 L 10.393 5.919 10.083 6.104 C 9.913 6.205,9.521 6.433,9.213 6.611 L 8.653 6.934 8.637 6.660 C 8.627 6.510,8.618 6.082,8.617 5.710 L 8.613 5.034 9.360 4.275 C 9.771 3.858,10.127 3.478,10.152 3.432 C 10.179 3.381,10.197 3.287,10.197 3.200 C 10.197 2.775,9.755 2.490,9.368 2.665 C 9.305 2.694,9.119 2.850,8.935 3.028 L 8.613 3.341 8.612 2.957 C 8.610 2.387,8.583 2.181,8.495 2.066 C 8.332 1.853,8.043 1.762,7.807 1.850 " fill="#1A1C1F" stroke="none" fill-rule="evenodd"></path></svg>