<svg xmlns="http://www.w3.org/2000/svg" width="32" height="32" fill="none"><path fill="#1A1C1F" fill-rule="evenodd" d="M15.54 3.28c-.367.219-.415.383-.438 1.487l-.019.954-.595-.588c-.327-.323-.647-.615-.711-.647a.9.9 0 0 0-.336-.059c-.58 0-.997.53-.851 1.082.05.191.241.407 1.282 1.453l1.222 1.228-.014 3.131-.013 3.131-2.771-1.598c-1.524-.879-2.786-1.629-2.806-1.666s-.209-.715-.42-1.505-.418-1.501-.459-1.58a1.1 1.1 0 0 0-.237-.281c-.526-.443-1.388-.029-1.387.666 0 .098.073.451.162.785.09.333.156.625.147.648s-.321-.135-.693-.353c-.8-.468-1.013-.519-1.373-.331-.3.156-.435.341-.469.644-.034.308.059.588.251.749.083.07.5.328.926.574s.77.453.763.459-.383.112-.837.233-.918.272-1.033.336c-.512.282-.552 1.088-.071 1.431.321.228.528.202 2.397-.299l1.723-.462 2.64 1.524c1.452.838 2.64 1.547 2.64 1.576 0 .07-5.629 3.322-5.74 3.317a37 37 0 0 1-1.499-.382c-1.62-.433-1.837-.455-2.157-.223-.27.195-.357.404-.326.781.019.232.057.328.18.458.212.223.329.275 1.022.452.33.085.6.171.6.191s-.222.161-.493.315a9 9 0 0 0-.673.411c-.447.33-.436 1.028.023 1.378.166.127.253.153.499.153.276 0 .352-.031 1.044-.435.411-.239.754-.415.763-.39s-.08.409-.2.852c-.248.924-.261 1.117-.095 1.413.129.231.488.454.732.454.193 0 .587-.213.712-.384.059-.082.305-.89.574-1.886.258-.959.481-1.756.496-1.77s1.246-.731 2.736-1.592l2.709-1.564.013 3.316.014 3.316-1.221 1.228c-1.344 1.354-1.406 1.443-1.287 1.866.143.51.676.793 1.157.614.083-.031.417-.321.742-.645l.593-.589.034.253c.019.138.035.491.035.784 0 .585.081.816.363 1.026.212.158.775.151 1.003-.012.294-.21.36-.43.384-1.288l.022-.766.594.59c.326.325.661.616.744.647.652.243 1.33-.358 1.154-1.024-.051-.194-.238-.405-1.283-1.456l-1.222-1.228.014-3.316.013-3.315 2.717 1.568c1.494.863 2.732 1.6 2.752 1.638s.234.819.478 1.735.488 1.739.541 1.827c.305.501 1.058.54 1.415.073.229-.301.221-.559-.05-1.553-.13-.477-.226-.867-.214-.867s.362.198.778.44c.702.408.778.44 1.054.44.246 0 .333-.026.499-.153.459-.35.47-1.048.023-1.378a9 9 0 0 0-.673-.411c-.271-.154-.493-.296-.493-.316s.281-.109.625-.196.697-.208.785-.267c.537-.361.546-1.143.017-1.466-.286-.174-.586-.135-2.108.271-.776.208-1.451.379-1.499.382-.113.005-5.776-3.265-5.755-3.324.008-.025 1.203-.731 2.655-1.569l2.64-1.524 1.733.466c.954.257 1.824.465 1.934.463.264-.005.584-.221.704-.474.178-.375.07-.871-.238-1.091-.081-.057-.552-.214-1.046-.348s-.904-.25-.911-.258c-.007-.007.335-.211.76-.454s.843-.5.928-.572c.195-.164.29-.443.255-.753-.034-.303-.169-.488-.469-.644-.36-.188-.573-.137-1.373.331-.372.218-.684.377-.693.353-.009-.023.057-.315.147-.648.089-.334.162-.685.162-.781 0-.39-.243-.699-.642-.819q-.441-.132-.804.211c-.201.19-.217.233-.557 1.503a71 71 0 0 1-.44 1.587l-.09.281-2.773 1.599-2.774 1.598-.013-3.132-.014-3.132 1.195-1.2c.657-.661 1.224-1.259 1.26-1.329.106-.21.08-.615-.054-.831-.206-.334-.758-.508-1.084-.342-.064.032-.384.324-.711.647l-.595.588-.019-.954c-.023-1.109-.071-1.271-.443-1.489a.86.86 0 0 0-.915.002"/></svg>