<svg xmlns="http://www.w3.org/2000/svg" width="12" height="12" fill="none"><g clip-path="url(#a)"><path fill="#1A1C1F" fill-rule="evenodd" d="M6.003 1.35c.227 0 .45.183.445.45l.004.713.432-.431a.453.453 0 0 1 .617-.022c.179.163.22.431.02.658L6.452 3.786v1.435l1.352-.781.362-1.35a.45.45 0 0 1 .551-.317c.219.058.387.269.319.55l-.13.48.509-.293a.45.45 0 0 1 .45.78l-.648.373.7.188c.237.053.379.31.319.551-.06.24-.275.385-.551.319L8.115 5.3 6.903 6l1.432.827 1.35-.361a.45.45 0 1 1 .232.87l-.48.127.428.247a.45.45 0 1 1-.45.78l-.567-.328.188.7a.464.464 0 0 1-.287.552.466.466 0 0 1-.583-.319l-.42-1.57-1.294-.746V8.4l1.069 1.068a.45.45 0 0 1 0 .637.456.456 0 0 1-.618.023l-.45-.456v.528a.45.45 0 0 1-.45.45.446.446 0 0 1-.45-.45v-.527l-.432.432a.453.453 0 0 1-.637 0 .45.45 0 0 1 0-.637L5.552 8.4V6.78l-1.293.746-.42 1.57a.45.45 0 0 1-.551.318c-.219-.059-.387-.297-.332-.528l.2-.724-.566.328a.45.45 0 0 1-.614-.165c-.114-.197-.079-.468.14-.594l.451-.268-.48-.128c-.218-.058-.398-.298-.318-.55a.45.45 0 0 1 .552-.32l1.348.362 1.434-.828-1.213-.7-1.57.422a.455.455 0 0 1-.55-.319c-.058-.23.057-.484.298-.55l.72-.189-.648-.373a.45.45 0 1 1 .45-.78l.507.293-.127-.48c-.059-.217.036-.48.302-.55.265-.07.495.07.567.318l.36 1.348 1.353.781V3.786L4.484 2.718a.45.45 0 0 1 0-.636.457.457 0 0 1 .619-.022l.45.453V1.8a.45.45 0 0 1 .45-.45" clip-rule="evenodd"/></g><defs><clipPath id="a"><path fill="#fff" d="M0 0h12v12H0z"/></clipPath></defs></svg>