<svg width="12" height="12" viewBox="0 0 12 12" fill="none" xmlns="http://www.w3.org/2000/svg"><path d="M5.855 1.387 C 5.595 1.484,5.542 1.620,5.541 2.197 L 5.540 2.485 5.311 2.265 C 5.037 2.001,4.947 1.950,4.779 1.965 C 4.476 1.993,4.300 2.245,4.381 2.534 C 4.405 2.619,4.466 2.688,4.974 3.201 L 5.540 3.774 5.540 4.462 C 5.540 4.840,5.533 5.160,5.525 5.173 C 5.515 5.188,5.449 5.161,5.320 5.087 C 5.215 5.026,4.925 4.859,4.675 4.714 L 4.220 4.452 4.181 4.331 C 4.159 4.264,4.073 3.959,3.990 3.652 C 3.907 3.346,3.825 3.062,3.808 3.023 C 3.740 2.860,3.597 2.772,3.400 2.771 C 3.238 2.770,3.120 2.830,3.031 2.957 C 2.974 3.038,2.970 3.055,2.973 3.207 C 2.976 3.318,2.996 3.438,3.037 3.585 C 3.070 3.704,3.091 3.797,3.083 3.793 C 3.076 3.789,2.948 3.717,2.800 3.633 C 2.501 3.465,2.452 3.449,2.290 3.469 C 2.088 3.494,1.942 3.654,1.924 3.871 C 1.905 4.098,1.997 4.202,2.446 4.468 C 2.608 4.564,2.740 4.649,2.740 4.658 C 2.740 4.667,2.688 4.689,2.625 4.706 C 2.136 4.838,2.040 4.867,1.970 4.906 C 1.682 5.068,1.695 5.498,1.992 5.672 C 2.151 5.765,2.185 5.759,3.331 5.451 L 3.888 5.301 4.434 5.615 C 4.734 5.788,5.000 5.946,5.025 5.966 L 5.070 6.002 5.022 6.036 C 4.954 6.085,4.214 6.518,3.916 6.682 L 3.662 6.823 3.046 6.662 C 2.255 6.455,2.175 6.441,2.052 6.488 C 1.927 6.536,1.853 6.601,1.802 6.710 C 1.695 6.937,1.802 7.224,2.025 7.306 C 2.109 7.337,2.305 7.395,2.478 7.440 L 2.565 7.463 2.398 7.564 C 2.154 7.710,2.006 7.818,1.966 7.877 C 1.940 7.917,1.931 7.971,1.931 8.092 C 1.930 8.239,1.935 8.261,1.990 8.340 C 2.081 8.472,2.180 8.528,2.338 8.536 C 2.480 8.543,2.516 8.529,2.966 8.281 C 3.052 8.234,3.125 8.199,3.129 8.203 C 3.133 8.207,3.091 8.387,3.037 8.603 C 2.925 9.044,2.925 9.078,3.041 9.238 C 3.152 9.391,3.398 9.463,3.566 9.393 C 3.665 9.351,3.763 9.259,3.801 9.171 C 3.821 9.126,3.927 8.761,4.037 8.360 C 4.147 7.959,4.246 7.605,4.258 7.575 C 4.283 7.510,4.263 7.523,4.954 7.127 C 5.253 6.956,5.507 6.822,5.519 6.829 C 5.533 6.838,5.540 7.096,5.540 7.625 L 5.540 8.407 4.994 8.958 C 4.616 9.340,4.434 9.538,4.404 9.601 C 4.301 9.815,4.390 10.071,4.607 10.185 C 4.712 10.240,4.900 10.244,4.994 10.194 C 5.029 10.175,5.165 10.057,5.296 9.930 L 5.535 9.701 5.545 9.995 C 5.556 10.337,5.583 10.425,5.703 10.528 C 5.749 10.567,5.830 10.609,5.897 10.628 C 6.000 10.656,6.024 10.657,6.107 10.632 C 6.233 10.594,6.327 10.519,6.395 10.404 C 6.447 10.314,6.450 10.296,6.457 10.005 L 6.464 9.699 6.699 9.926 C 6.829 10.051,6.969 10.169,7.012 10.190 C 7.106 10.234,7.282 10.237,7.381 10.195 C 7.599 10.104,7.708 9.822,7.609 9.609 C 7.586 9.560,7.362 9.318,7.016 8.968 L 6.460 8.407 6.462 7.658 C 6.464 7.247,6.470 6.886,6.477 6.857 L 6.490 6.804 6.930 7.058 C 7.172 7.198,7.455 7.361,7.558 7.421 L 7.746 7.530 7.929 8.210 C 8.173 9.112,8.207 9.212,8.301 9.303 C 8.375 9.374,8.524 9.440,8.611 9.440 C 8.755 9.440,8.934 9.316,9.002 9.170 C 9.059 9.047,9.049 8.916,8.952 8.541 C 8.904 8.354,8.873 8.200,8.884 8.200 C 8.895 8.200,8.982 8.244,9.077 8.297 C 9.421 8.491,9.543 8.545,9.639 8.544 C 9.818 8.544,9.983 8.433,10.053 8.267 C 10.114 8.120,10.068 7.888,9.958 7.786 C 9.931 7.762,9.803 7.680,9.672 7.603 L 9.435 7.463 9.522 7.440 C 9.823 7.363,9.992 7.308,10.046 7.271 C 10.283 7.112,10.307 6.752,10.094 6.570 C 9.922 6.422,9.860 6.426,9.000 6.649 C 8.687 6.730,8.406 6.801,8.378 6.808 C 8.336 6.817,8.236 6.768,7.878 6.563 C 7.214 6.183,6.940 6.019,6.940 6.000 C 6.940 5.986,7.273 5.787,7.983 5.377 L 8.116 5.300 8.673 5.450 C 9.752 5.741,9.804 5.753,9.913 5.723 C 10.044 5.688,10.126 5.621,10.188 5.497 C 10.277 5.317,10.246 5.085,10.117 4.966 C 10.045 4.899,9.921 4.852,9.575 4.759 C 9.402 4.712,9.260 4.667,9.260 4.659 C 9.260 4.651,9.402 4.561,9.575 4.459 C 9.926 4.253,10.021 4.170,10.059 4.033 C 10.139 3.748,9.967 3.496,9.671 3.466 C 9.542 3.453,9.509 3.464,9.220 3.626 C 9.104 3.691,8.990 3.752,8.965 3.762 C 8.913 3.782,8.911 3.804,8.994 3.474 C 9.060 3.210,9.061 3.131,8.999 3.009 C 8.908 2.831,8.679 2.724,8.503 2.777 C 8.381 2.813,8.262 2.903,8.220 2.990 C 8.170 3.093,8.129 3.230,7.980 3.780 C 7.783 4.508,7.831 4.418,7.561 4.578 C 7.434 4.654,7.141 4.825,6.910 4.958 L 6.490 5.200 6.477 5.005 C 6.470 4.898,6.464 4.577,6.462 4.293 L 6.460 3.776 7.021 3.205 C 7.329 2.892,7.596 2.607,7.614 2.573 C 7.632 2.538,7.647 2.461,7.647 2.400 C 7.649 2.083,7.316 1.867,7.026 1.999 C 6.979 2.021,6.839 2.137,6.701 2.271 L 6.460 2.506 6.459 2.208 C 6.458 1.788,6.438 1.637,6.371 1.549 C 6.249 1.389,6.032 1.321,5.855 1.387 " fill="#1A1C1F" stroke="none" fill-rule="evenodd"></path></svg>