<svg xmlns="http://www.w3.org/2000/svg" width="16" height="16" fill="none"><g clip-path="url(#a)"><path fill="#1A1C1F" fill-rule="evenodd" d="M8.003 1.8c.304 0 .602.244.595.6l.005.951.576-.575a.604.604 0 0 1 .822-.03c.239.218.294.576.027.878L8.603 5.048v1.913l1.803-1.041.482-1.799a.6.6 0 0 1 .735-.424.59.59 0 0 1 .425.735l-.172.64.677-.392a.6.6 0 0 1 .6 1.04l-.863.498.933.25c.315.07.505.414.425.735-.081.32-.367.514-.735.424l-2.094-.56-1.615.932 1.91 1.103 1.799-.48a.6.6 0 0 1 .31 1.158l-.64.171.57.33a.6.6 0 0 1-.6 1.039l-.756-.438.25.935c.079.29-.082.636-.382.735a.62.62 0 0 1-.777-.425l-.561-2.093-1.724-.996V11.2l1.425 1.424a.6.6 0 0 1 0 .849.61.61 0 0 1-.824.031l-.601-.608v.704a.6.6 0 0 1-.6.6.595.595 0 0 1-.6-.6v-.703l-.575.576a.603.603 0 0 1-.849 0c-.216-.213-.249-.576 0-.849L7.403 11.2V9.04l-1.724.994-.56 2.093a.6.6 0 0 1-.735.425c-.291-.078-.516-.396-.442-.704l.267-.965-.755.437a.6.6 0 0 1-.82-.22c-.152-.263-.104-.624.186-.793l.603-.356-.64-.17c-.29-.079-.532-.398-.424-.736a.6.6 0 0 1 .735-.424l1.798.481L6.804 8l-1.617-.933-2.093.561a.607.607 0 0 1-.735-.424c-.077-.306.077-.645.398-.735l.96-.25-.863-.498a.6.6 0 1 1 .6-1.04l.676.39-.17-.638c-.079-.291.048-.643.402-.735a.6.6 0 0 1 .756.424L5.6 5.92 7.403 6.96V5.048L5.979 3.624a.6.6 0 0 1 0-.848.61.61 0 0 1 .825-.03l.599.604V2.4a.6.6 0 0 1 .6-.6" clip-rule="evenodd"/></g><defs><clipPath id="a"><path fill="#fff" d="M0 0h16v16H0z"/></clipPath></defs></svg>