<svg xmlns="http://www.w3.org/2000/svg" width="28" height="28" fill="none"><g clip-path="url(#a)"><path fill="#1A1C1F" fill-rule="evenodd" d="M14 2.734c.39 0 .773.321.766.766v1.526l.943-.942a.766.766 0 0 1 1.082 0 .776.776 0 0 1 0 1.082l-2.026 2.026v5.482l4.935-2.85.692-2.579c.11-.408.53-.65.938-.541a.76.76 0 0 1 .541.937l-.296 1.101 1.136-.655a.766.766 0 0 1 1.046.28.78.78 0 0 1-.23 1.015l-1.424.823 1.477.396c.408.11.65.53.541.938-.1.374-.484.639-.874.558l-3.02-.81L15.53 14l5.072 2.928 2.581-.69a.766.766 0 0 1 .938.54c.1.375-.113.827-.541.938l-1.102.295.998.576a.766.766 0 0 1-.765 1.326l-1.236-.714.396 1.477a.766.766 0 0 1-1.48.396l-.791-2.955-4.835-2.791v5.798l2.026 2.027a.766.766 0 1 1-1.082 1.082l-.944-.943v1.21a.762.762 0 1 1-1.525 0l-.006-1.21-.943.944a.766.766 0 1 1-1.082-1.083l2.025-2.027v-5.798L8.4 18.116l-.792 2.956a.766.766 0 1 1-1.479-.396l.395-1.477-1.234.714a.766.766 0 0 1-.766-1.326l.996-.576-1.1-.295a.766.766 0 1 1 .397-1.479l2.58.69L12.469 14l-4.698-2.712-2.954.793a.766.766 0 0 1-.396-1.48l1.475-.395-1.372-.792a.766.766 0 1 1 .766-1.326l1.134.655-.295-1.1a.766.766 0 1 1 1.48-.397l.69 2.58 4.935 2.849V7.192l-2.025-2.026a.766.766 0 0 1 0-1.082c.274-.274.707-.32 1.063-.024l.962.966V3.5c0-.423.343-.766.766-.766" clip-rule="evenodd"/></g><defs><clipPath id="a"><path fill="#fff" d="M0 0h28v28H0z"/></clipPath></defs></svg>