<svg xmlns="http://www.w3.org/2000/svg" width="14" height="14" fill="none"><g clip-path="url(#a)"><path fill="#1A1C1F" fill-rule="evenodd" d="M7.003 1.575c.266 0 .526.214.52.525l.004.832.505-.503a.53.53 0 0 1 .719-.026c.209.19.257.503.023.768L7.527 4.417v1.674l1.578-.911.422-1.574a.525.525 0 0 1 .643-.371.515.515 0 0 1 .372.643l-.15.56.592-.343a.525.525 0 0 1 .525.91l-.755.435.816.22c.276.061.442.362.372.643-.07.28-.32.449-.643.37l-1.832-.49L8.053 7l1.672.966 1.574-.421a.525.525 0 1 1 .271 1.014l-.56.15.499.287a.525.525 0 1 1-.525.91l-.662-.383.22.818c.068.254-.073.556-.335.643a.544.544 0 0 1-.68-.372L9.036 8.78l-1.509-.87V9.8l1.247 1.246a.525.525 0 0 1 0 .743.53.53 0 0 1-.72.027l-.527-.532.001.616c0 .29-.235.525-.525.525a.52.52 0 0 1-.526-.525v-.615l-.503.504a.53.53 0 0 1-.742 0 .527.527 0 0 1 0-.743L6.477 9.8V7.91l-1.508.87-.49 1.831a.525.525 0 0 1-.643.372c-.255-.069-.452-.347-.387-.616l.234-.844-.661.382a.525.525 0 0 1-.717-.192c-.133-.23-.092-.546.163-.694l.527-.312-.56-.15c-.254-.067-.465-.347-.37-.642a.525.525 0 0 1 .642-.371l1.574.42L5.953 7l-1.415-.817-1.83.492a.53.53 0 0 1-.644-.371c-.067-.269.068-.565.348-.643l.84-.22-.755-.435a.525.525 0 1 1 .525-.91l.592.342-.15-.56c-.068-.254.043-.561.353-.642a.523.523 0 0 1 .662.371l.42 1.573 1.578.911V4.417L5.232 3.171a.525.525 0 0 1 0-.742.533.533 0 0 1 .721-.026l.524.529.001-.832c0-.29.235-.525.525-.525" clip-rule="evenodd"/></g><defs><clipPath id="a"><path fill="#fff" d="M0 0h14v14H0z"/></clipPath></defs></svg>