<svg width="28" height="28" viewBox="0 0 28 28" fill="none" xmlns="http://www.w3.org/2000/svg"><path d="M13.697 2.816 C 13.505 2.904,13.317 3.103,13.279 3.256 C 13.262 3.326,13.236 3.745,13.221 4.188 L 13.195 4.993 12.641 4.459 C 12.051 3.890,11.938 3.829,11.594 3.894 C 11.356 3.939,11.082 4.203,11.021 4.447 C 10.921 4.841,10.960 4.897,12.242 6.193 L 13.221 7.183 13.195 9.872 C 13.180 11.350,13.157 12.572,13.143 12.586 C 13.092 12.637,8.373 9.877,8.310 9.759 C 8.287 9.717,8.140 9.211,7.982 8.633 C 7.514 6.920,7.506 6.903,7.125 6.744 C 6.683 6.559,6.113 6.931,6.113 7.405 C 6.113 7.478,6.175 7.790,6.250 8.097 C 6.325 8.405,6.378 8.664,6.368 8.674 C 6.358 8.684,6.102 8.555,5.800 8.387 C 5.074 7.984,4.927 7.946,4.619 8.078 C 4.490 8.134,4.343 8.236,4.294 8.306 C 4.172 8.477,4.133 8.758,4.198 8.998 C 4.261 9.232,4.370 9.320,5.240 9.833 C 5.569 10.026,5.829 10.194,5.818 10.204 C 5.807 10.215,5.507 10.306,5.151 10.405 C 4.795 10.505,4.427 10.619,4.334 10.659 C 3.751 10.904,3.715 11.750,4.275 12.016 C 4.532 12.138,4.878 12.072,6.967 11.505 C 7.682 11.311,7.761 11.298,7.877 11.358 C 8.067 11.457,11.390 13.387,11.912 13.702 C 12.162 13.853,12.367 13.990,12.367 14.007 C 12.367 14.090,7.495 16.893,7.351 16.893 C 7.313 16.893,6.805 16.768,6.223 16.615 C 5.641 16.461,5.002 16.311,4.804 16.281 C 4.451 16.227,4.438 16.228,4.234 16.348 C 3.783 16.612,3.745 17.244,4.160 17.561 C 4.299 17.666,4.819 17.846,5.261 17.941 C 5.344 17.959,5.422 17.989,5.434 18.009 C 5.446 18.028,5.213 18.189,4.916 18.367 C 4.619 18.544,4.335 18.749,4.284 18.821 C 3.992 19.230,4.251 19.890,4.744 19.994 C 4.973 20.043,5.237 19.948,5.864 19.590 C 6.183 19.409,6.451 19.269,6.461 19.279 C 6.471 19.289,6.393 19.645,6.289 20.071 C 6.064 20.996,6.070 21.109,6.364 21.403 C 6.625 21.664,6.831 21.705,7.144 21.558 C 7.270 21.499,7.403 21.418,7.439 21.377 C 7.518 21.287,7.738 20.580,8.122 19.174 L 8.411 18.118 10.767 16.755 C 12.062 16.006,13.132 15.404,13.146 15.417 C 13.159 15.430,13.181 16.722,13.195 18.290 L 13.221 21.139 12.175 22.201 C 11.194 23.197,10.965 23.479,10.968 23.690 C 10.971 23.981,11.311 24.375,11.611 24.435 C 11.928 24.499,12.051 24.431,12.637 23.870 L 13.194 23.336 13.224 23.622 C 13.240 23.779,13.253 24.056,13.254 24.239 C 13.254 24.681,13.317 24.885,13.507 25.051 C 13.797 25.306,14.306 25.285,14.564 25.010 C 14.722 24.840,14.793 24.467,14.793 23.803 L 14.793 23.324 15.357 23.864 C 15.781 24.271,15.960 24.411,16.080 24.434 C 16.746 24.559,17.256 23.820,16.866 23.297 C 16.795 23.201,16.296 22.678,15.758 22.134 L 14.779 21.145 14.804 18.293 C 14.818 16.725,14.840 15.431,14.854 15.418 C 14.877 15.394,18.349 17.386,19.188 17.905 C 19.508 18.102,19.603 18.186,19.642 18.306 C 19.668 18.389,19.836 18.992,20.014 19.647 C 20.403 21.078,20.498 21.342,20.665 21.459 C 21.028 21.714,21.390 21.684,21.669 21.376 C 21.928 21.089,21.932 20.959,21.706 20.068 C 21.599 19.644,21.512 19.282,21.513 19.264 C 21.513 19.246,21.782 19.386,22.111 19.575 C 22.755 19.945,23.024 20.043,23.256 19.994 C 23.749 19.890,24.008 19.230,23.716 18.821 C 23.665 18.749,23.381 18.544,23.084 18.367 C 22.787 18.189,22.553 18.030,22.564 18.013 C 22.574 17.996,22.801 17.924,23.067 17.854 C 23.662 17.696,23.883 17.576,24.023 17.336 C 24.108 17.189,24.127 17.098,24.113 16.903 C 24.092 16.612,23.986 16.448,23.734 16.318 C 23.571 16.233,23.526 16.230,23.196 16.281 C 22.998 16.311,22.359 16.461,21.777 16.615 C 21.195 16.768,20.687 16.893,20.649 16.893 C 20.470 16.893,15.615 14.077,15.644 13.990 C 15.659 13.946,17.239 13.012,19.300 11.828 L 20.236 11.290 21.003 11.498 C 22.323 11.857,23.276 12.087,23.441 12.087 C 23.617 12.087,23.860 11.942,23.999 11.754 C 24.215 11.462,24.108 10.869,23.812 10.716 C 23.737 10.678,23.344 10.551,22.938 10.434 C 22.532 10.318,22.191 10.213,22.180 10.203 C 22.169 10.192,22.489 9.987,22.891 9.748 C 23.743 9.241,23.823 9.155,23.823 8.750 C 23.823 8.394,23.707 8.219,23.381 8.078 C 23.073 7.946,22.926 7.984,22.200 8.387 C 21.898 8.555,21.642 8.684,21.632 8.674 C 21.622 8.664,21.675 8.405,21.750 8.097 C 21.825 7.790,21.887 7.478,21.887 7.405 C 21.887 7.037,21.538 6.706,21.145 6.700 C 20.864 6.696,20.557 6.884,20.458 7.123 C 20.420 7.213,20.232 7.857,20.039 8.555 C 19.847 9.252,19.674 9.836,19.656 9.852 C 19.550 9.947,14.878 12.607,14.856 12.585 C 14.841 12.570,14.818 11.348,14.804 9.868 L 14.779 7.178 15.664 6.284 C 16.150 5.792,16.649 5.278,16.773 5.141 L 16.997 4.893 16.978 4.595 C 16.963 4.359,16.935 4.270,16.845 4.172 C 16.694 4.009,16.399 3.876,16.185 3.874 C 15.981 3.873,15.884 3.946,15.248 4.569 L 14.793 5.015 14.793 4.386 C 14.793 3.739,14.735 3.228,14.647 3.087 C 14.488 2.832,13.978 2.687,13.697 2.816 " fill="#1A1C1F" stroke="none" fill-rule="evenodd"></path></svg>