<svg width="20" height="20" viewBox="0 0 20 20" fill="none" xmlns="http://www.w3.org/2000/svg"><path d="M9.759 2.312 C 9.326 2.474,9.235 2.704,9.234 3.645 L 9.233 4.141 8.852 3.774 C 8.394 3.334,8.245 3.250,7.965 3.276 C 7.571 3.311,7.310 3.557,7.277 3.922 C 7.245 4.268,7.285 4.322,8.315 5.362 L 9.233 6.289 9.233 7.403 C 9.233 8.015,9.223 8.551,9.212 8.592 C 9.192 8.667,9.192 8.667,9.088 8.605 C 9.030 8.570,8.545 8.290,8.009 7.982 L 7.035 7.423 6.969 7.220 C 6.932 7.108,6.810 6.679,6.699 6.267 C 6.323 4.881,6.305 4.841,6.021 4.691 C 5.922 4.639,5.823 4.619,5.667 4.618 C 5.397 4.617,5.200 4.717,5.051 4.928 C 4.957 5.063,4.950 5.092,4.956 5.345 C 4.960 5.530,4.993 5.731,5.062 5.975 C 5.117 6.173,5.151 6.329,5.139 6.322 C 5.127 6.315,4.907 6.192,4.650 6.047 C 4.186 5.785,4.182 5.783,3.947 5.785 C 3.753 5.787,3.684 5.803,3.558 5.877 C 3.319 6.017,3.200 6.232,3.200 6.523 C 3.200 6.853,3.363 7.025,4.078 7.448 C 4.347 7.606,4.567 7.749,4.567 7.764 C 4.567 7.778,4.323 7.856,4.026 7.935 C 3.384 8.107,3.185 8.199,3.056 8.387 C 2.922 8.580,2.898 8.861,2.997 9.085 C 3.086 9.285,3.143 9.350,3.327 9.458 C 3.583 9.608,3.652 9.596,5.552 9.085 L 6.480 8.835 7.390 9.359 C 7.890 9.647,8.333 9.910,8.375 9.943 L 8.450 10.003 8.371 10.060 C 8.256 10.142,7.023 10.863,6.527 11.137 L 6.104 11.371 5.077 11.104 C 3.824 10.777,3.663 10.746,3.480 10.796 C 2.951 10.940,2.757 11.567,3.111 11.988 C 3.239 12.139,3.461 12.229,4.129 12.401 L 4.276 12.438 3.996 12.606 C 3.590 12.851,3.344 13.029,3.277 13.129 C 3.233 13.194,3.218 13.285,3.218 13.486 C 3.217 13.732,3.226 13.768,3.316 13.899 C 3.461 14.108,3.632 14.210,3.870 14.227 C 4.107 14.244,4.149 14.229,4.743 13.907 C 4.995 13.770,5.207 13.663,5.214 13.671 C 5.220 13.678,5.151 13.978,5.060 14.338 C 4.915 14.915,4.900 15.008,4.931 15.124 C 5.088 15.707,5.839 15.894,6.230 15.448 C 6.346 15.317,6.338 15.340,6.749 13.850 C 6.921 13.227,7.077 12.675,7.097 12.625 C 7.138 12.517,7.105 12.538,8.256 11.879 C 8.755 11.594,9.179 11.370,9.198 11.382 C 9.222 11.397,9.233 11.826,9.233 12.708 L 9.233 14.011 8.323 14.931 C 7.693 15.567,7.390 15.897,7.340 16.002 C 7.169 16.358,7.317 16.785,7.678 16.974 C 7.850 17.065,8.167 17.074,8.319 16.992 C 8.375 16.962,8.602 16.765,8.823 16.553 L 9.224 16.169 9.241 16.659 C 9.254 17.019,9.274 17.188,9.316 17.292 C 9.398 17.491,9.594 17.649,9.844 17.716 C 10.031 17.766,10.063 17.766,10.192 17.720 C 10.392 17.649,10.555 17.515,10.660 17.336 C 10.745 17.191,10.751 17.156,10.762 16.675 L 10.774 16.166 11.166 16.544 C 11.607 16.969,11.733 17.044,12.003 17.044 C 12.604 17.044,12.960 16.373,12.609 15.901 C 12.561 15.836,12.127 15.385,11.644 14.899 L 10.767 14.014 10.767 12.799 C 10.767 12.130,10.776 11.529,10.787 11.462 L 10.808 11.341 11.195 11.560 C 11.409 11.681,11.882 11.953,12.247 12.165 L 12.910 12.551 13.215 13.684 C 13.621 15.187,13.677 15.352,13.836 15.505 C 13.907 15.573,14.038 15.652,14.136 15.684 C 14.285 15.734,14.335 15.736,14.491 15.701 C 14.824 15.627,15.064 15.325,15.066 14.980 C 15.066 14.886,15.001 14.556,14.920 14.239 C 14.835 13.908,14.788 13.667,14.808 13.667 C 14.828 13.667,14.957 13.732,15.097 13.812 C 15.475 14.030,15.870 14.221,15.990 14.244 C 16.137 14.272,16.412 14.184,16.548 14.064 C 16.788 13.853,16.870 13.472,16.737 13.183 C 16.654 13.003,16.581 12.942,16.120 12.671 L 15.724 12.438 15.870 12.401 C 16.372 12.271,16.653 12.180,16.744 12.119 C 17.138 11.853,17.179 11.254,16.824 10.950 C 16.536 10.703,16.430 10.711,15.000 11.081 C 14.477 11.216,14.011 11.336,13.963 11.346 C 13.893 11.362,13.727 11.281,13.129 10.939 C 12.033 10.312,11.567 10.032,11.567 10.002 C 11.567 9.972,11.841 9.806,12.854 9.222 L 13.524 8.836 14.770 9.168 C 16.347 9.589,16.356 9.590,16.539 9.536 C 16.746 9.475,16.880 9.361,16.980 9.161 C 17.168 8.783,17.034 8.319,16.690 8.155 C 16.628 8.126,16.321 8.032,16.006 7.946 C 15.691 7.860,15.433 7.778,15.433 7.765 C 15.433 7.752,15.670 7.602,15.958 7.432 C 16.544 7.088,16.701 6.950,16.765 6.721 C 16.898 6.246,16.611 5.827,16.118 5.776 C 15.904 5.754,15.849 5.774,15.367 6.044 C 15.174 6.152,14.983 6.253,14.941 6.269 C 14.855 6.303,14.851 6.340,14.989 5.800 C 15.100 5.362,15.102 5.219,14.999 5.016 C 14.846 4.718,14.466 4.540,14.172 4.628 C 13.969 4.689,13.770 4.839,13.700 4.983 C 13.620 5.151,13.554 5.365,13.303 6.283 C 13.193 6.687,13.078 7.103,13.047 7.208 L 12.991 7.399 12.604 7.630 C 12.391 7.757,11.902 8.042,11.517 8.264 L 10.817 8.667 10.795 8.359 C 10.784 8.189,10.772 7.655,10.770 7.171 L 10.767 6.293 11.701 5.342 C 12.215 4.820,12.661 4.345,12.691 4.288 C 12.724 4.227,12.747 4.107,12.746 4.000 C 12.746 3.470,12.192 3.113,11.711 3.331 C 11.631 3.368,11.398 3.562,11.169 3.785 L 10.767 4.176 10.765 3.696 C 10.762 2.984,10.728 2.727,10.618 2.583 C 10.415 2.316,10.053 2.202,9.759 2.312 " fill="#1A1C1F" stroke="none" fill-rule="evenodd"></path></svg>