<svg xmlns="http://www.w3.org/2000/svg" width="32" height="32" fill="none"><path fill="#1A1C1F" fill-rule="evenodd" d="M15.46 2.179c-.434.276-.444.324-.463 2.221-.019 1.811-.003 1.936.271 2.249a.952.952 0 0 0 1.464 0c.274-.313.29-.438.271-2.249-.015-1.506-.026-1.672-.119-1.861-.246-.495-.936-.669-1.424-.36M6.356 5.928c-.423.209-.638.735-.489 1.199.086.268 2.313 2.539 2.64 2.691.786.367 1.625-.381 1.359-1.212-.085-.267-2.313-2.539-2.639-2.691a.98.98 0 0 0-.871.013m18.417-.013c-.326.152-2.554 2.424-2.639 2.691-.266.831.573 1.579 1.359 1.212.327-.152 2.554-2.423 2.64-2.691.266-.831-.574-1.579-1.36-1.212m-9.866 3.173c-.73.121-1.255.292-1.974.645-1.883.924-3.172 2.502-3.722 4.56-.157.585-.164.663-.167 1.68-.003.992.007 1.107.142 1.642.665 2.62 2.581 4.536 5.199 5.198.529.134.658.146 1.615.145.911 0 1.103-.016 1.547-.125 2.678-.662 4.624-2.608 5.286-5.286.109-.445.125-.635.125-1.547s-.016-1.102-.125-1.547c-.673-2.72-2.703-4.71-5.42-5.31-.516-.114-1.96-.146-2.506-.055m2.357 2.087a5.8 5.8 0 0 1 1.613.732c.313.213 1.003.903 1.216 1.216a6 6 0 0 1 .743 1.639 5.34 5.34 0 0 1 0 2.476 6 6 0 0 1-.742 1.639c-.276.409-1.055 1.13-1.524 1.41a5.4 5.4 0 0 1-2.025.682c-1.043.122-2.188-.128-3.115-.682-.469-.28-1.248-1.001-1.524-1.41a6 6 0 0 1-.742-1.639 5.34 5.34 0 0 1 0-2.476c.608-2.325 2.716-3.87 5.103-3.739.278.016.727.084.997.152M2.792 15.036c-.679.169-.987.899-.625 1.482.284.456.331.466 2.233.485 1.811.019 1.936.003 2.249-.271.424-.373.46-.989.081-1.39-.31-.328-.31-.328-2.117-.338-.909-.006-1.728.009-1.821.032m23.101-.025a2 2 0 0 1-.199.052c-.195.043-.52.335-.609.548a.98.98 0 0 0 .266 1.121c.313.274.438.29 2.249.271 1.902-.019 1.949-.029 2.233-.485a.97.97 0 0 0-.348-1.372l-.232-.133-1.653-.011c-.909-.006-1.677-.002-1.707.009M8.507 22.182c-.327.152-2.554 2.423-2.64 2.691-.266.831.574 1.579 1.36 1.212.326-.152 2.554-2.424 2.639-2.691.266-.831-.573-1.579-1.359-1.212m14.115.012c-.423.21-.637.735-.488 1.2.085.267 2.313 2.539 2.639 2.691.786.367 1.626-.381 1.36-1.212-.086-.268-2.313-2.539-2.64-2.691a.98.98 0 0 0-.871.012m-7.023 2.894c-.217.094-.488.412-.56.658-.039.133-.053.754-.042 1.854.019 1.902.029 1.949.485 2.233.485.301 1.134.13 1.393-.366.105-.201.113-.311.128-1.867.011-1.1-.003-1.721-.042-1.854-.074-.252-.346-.566-.572-.661a1.18 1.18 0 0 0-.79.003"/></svg>