<svg xmlns="http://www.w3.org/2000/svg" width="12" height="12" fill="none"><g clip-path="url(#a)"><path fill="#1A1C1F" fill-rule="evenodd" d="M6 9a.6.6 0 0 1 .6.6v.6a.6.6 0 1 1-1.2 0v-.6A.6.6 0 0 1 6 9m2.97-.879.424.425a.6.6 0 1 1-.848.848L8.12 8.97a.6.6 0 0 1 .849-.849m-5.091 0a.6.6 0 0 1 0 .849l-.425.424a.6.6 0 0 1-.272.156l-.1.018h-.103a.6.6 0 0 1-.373-1.022l.424-.425a.6.6 0 0 1 .849 0M6 3.6a2.4 2.4 0 1 1 0 4.8 2.4 2.4 0 0 1 0-4.8m0 1.2a1.2 1.2 0 1 0 0 2.4 1.2 1.2 0 0 0 0-2.4m4.2.6a.6.6 0 1 1 0 1.2h-.6a.6.6 0 0 1 0-1.2zm-7.8 0a.6.6 0 0 1 0 1.2h-.6a.6.6 0 0 1 0-1.2zm1.054-2.794.425.424a.6.6 0 1 1-.849.849l-.424-.425a.6.6 0 0 1 .848-.848m5.94 0a.6.6 0 0 1 0 .848l-.424.425a.6.6 0 0 1-.272.156l-.101.017h-.103a.6.6 0 0 1-.373-1.022l.425-.424a.6.6 0 0 1 .848 0M6 1.2a.6.6 0 0 1 .6.6v.6a.6.6 0 0 1-1.2 0v-.6a.6.6 0 0 1 .6-.6" clip-rule="evenodd"/></g><defs><clipPath id="a"><path fill="#fff" d="M0 0h12v12H0z"/></clipPath></defs></svg>