<svg width="32" height="32" viewBox="0 0 32 32" fill="none" xmlns="http://www.w3.org/2000/svg"><path d="M15.537 2.153 C 15.186 2.321,15.105 2.450,15.041 2.938 C 14.970 3.484,14.973 5.851,15.045 6.186 C 15.180 6.818,15.823 7.149,16.402 6.886 C 16.521 6.833,16.681 6.713,16.758 6.621 C 16.992 6.344,17.027 6.012,17.004 4.297 C 16.985 2.945,16.970 2.722,16.887 2.551 C 16.662 2.089,16.050 1.908,15.537 2.153 M6.424 5.914 C 6.026 6.095,5.774 6.530,5.829 6.942 C 5.865 7.208,6.038 7.420,7.139 8.545 C 8.166 9.594,8.476 9.848,8.789 9.898 C 9.394 9.995,9.987 9.407,9.904 8.792 C 9.867 8.514,9.682 8.291,8.456 7.057 C 7.203 5.794,6.972 5.665,6.424 5.914 M24.800 5.925 C 24.631 6.001,24.260 6.336,23.544 7.057 C 22.318 8.291,22.133 8.514,22.096 8.792 C 22.013 9.407,22.606 9.995,23.211 9.898 C 23.524 9.848,23.834 9.594,24.861 8.545 C 25.962 7.420,26.135 7.208,26.171 6.942 C 26.226 6.530,25.974 6.095,25.576 5.914 C 25.297 5.787,25.097 5.790,24.800 5.925 M14.480 9.173 C 13.255 9.451,11.961 10.173,11.038 11.093 C 9.927 12.201,9.182 13.755,9.058 15.227 C 8.866 17.501,9.535 19.402,11.067 20.933 C 12.296 22.163,13.861 22.876,15.520 22.962 C 16.532 23.015,17.287 22.929,18.068 22.673 C 19.544 22.188,20.682 21.388,21.567 20.213 C 22.053 19.569,22.402 18.892,22.674 18.066 C 22.949 17.231,23.032 16.373,22.944 15.293 C 22.782 13.315,21.606 11.351,19.908 10.220 C 19.092 9.677,18.069 9.252,17.264 9.121 C 16.695 9.029,14.972 9.061,14.480 9.173 M17.330 11.198 C 18.230 11.458,18.881 11.844,19.543 12.511 C 20.489 13.464,20.960 14.622,20.960 16.000 C 20.960 17.637,20.277 18.993,18.933 20.027 C 17.831 20.874,16.218 21.198,14.837 20.851 C 13.771 20.583,12.939 20.060,12.146 19.163 C 11.692 18.648,11.261 17.734,11.116 16.974 C 11.019 16.466,11.019 15.535,11.116 15.028 C 11.486 13.089,13.020 11.541,14.987 11.118 C 15.512 11.005,16.815 11.049,17.330 11.198 M3.093 15.034 C 2.583 15.076,2.484 15.117,2.250 15.383 C 1.844 15.846,2.036 16.706,2.589 16.901 C 2.876 17.002,5.722 17.053,6.135 16.965 C 6.813 16.819,7.159 16.191,6.886 15.600 C 6.774 15.357,6.597 15.178,6.395 15.101 C 6.220 15.035,3.700 14.983,3.093 15.034 M25.746 15.053 C 25.136 15.256,24.860 15.844,25.114 16.402 C 25.252 16.706,25.490 16.887,25.851 16.962 C 26.287 17.053,29.119 17.004,29.411 16.901 C 29.798 16.765,30.042 16.250,29.951 15.762 C 29.910 15.545,29.659 15.233,29.429 15.114 C 29.215 15.004,26.053 14.951,25.746 15.053 M8.533 22.191 C 8.364 22.268,7.993 22.602,7.278 23.323 C 6.052 24.558,5.866 24.780,5.829 25.058 C 5.746 25.674,6.339 26.261,6.944 26.164 C 7.258 26.114,7.567 25.861,8.594 24.811 C 9.696 23.687,9.869 23.475,9.904 23.208 C 9.960 22.796,9.707 22.361,9.309 22.180 C 9.030 22.054,8.830 22.057,8.533 22.191 M22.691 22.180 C 22.293 22.361,22.040 22.796,22.096 23.208 C 22.131 23.469,22.301 23.681,23.307 24.714 C 24.400 25.837,24.734 26.117,25.039 26.163 C 25.666 26.257,26.255 25.683,26.171 25.058 C 26.134 24.780,25.948 24.558,24.722 23.323 C 23.469 22.061,23.239 21.931,22.691 22.180 M15.707 25.052 C 15.536 25.093,15.274 25.315,15.138 25.532 C 15.014 25.733,15.013 25.738,15.017 27.467 C 15.020 29.458,15.031 29.522,15.405 29.784 C 15.607 29.926,15.681 29.947,15.995 29.947 C 16.422 29.947,16.666 29.812,16.864 29.468 C 16.985 29.256,16.987 29.233,16.987 27.485 L 16.987 25.716 16.826 25.485 C 16.571 25.118,16.133 24.948,15.707 25.052 " fill="#1A1C1F" stroke="none" fill-rule="evenodd"></path></svg>