<svg xmlns="http://www.w3.org/2000/svg" width="24" height="24" fill="none"><g clip-path="url(#a)"><path fill="#1A1C1F" fill-rule="evenodd" d="M12 18a1 1 0 0 1 1 1v2a1 1 0 1 1-2 0v-2a1 1 0 0 1 1-1m5.657-1.757 1.414 1.414a1 1 0 0 1-1.414 1.414l-1.414-1.414a1 1 0 0 1 1.414-1.414m-9.9 0a1 1 0 0 1 0 1.414L6.343 19.07a1 1 0 0 1-1.414-1.414l1.414-1.414a1 1 0 0 1 1.414 0M12 8a4 4 0 1 1 0 8 4 4 0 0 1 0-8m0 2a2 2 0 1 0 0 4 2 2 0 0 0 0-4m9 1a1 1 0 1 1 0 2h-2a1 1 0 1 1 0-2zM5 11a1 1 0 1 1 0 2H3a1 1 0 1 1 0-2zm1.343-6.071 1.414 1.414a1 1 0 0 1-1.414 1.414L4.93 6.343A1 1 0 0 1 6.343 4.93m12.728 0a1 1 0 0 1 0 1.414l-1.414 1.414a1 1 0 0 1-1.414-1.414l1.414-1.414a1 1 0 0 1 1.414 0M12 2a1 1 0 0 1 1 1v2a1 1 0 1 1-2 0V3a1 1 0 0 1 1-1" clip-rule="evenodd"/></g><defs><clipPath id="a"><path fill="#fff" d="M0 0h24v24H0z"/></clipPath></defs></svg>