<svg width="12" height="12" viewBox="0 0 12 12" fill="none" xmlns="http://www.w3.org/2000/svg"><path d="M5.880 1.218 C 5.701 1.256,5.544 1.376,5.466 1.536 L 5.410 1.650 5.410 2.100 C 5.410 2.614,5.422 2.664,5.579 2.817 C 5.710 2.943,5.823 2.990,6.000 2.990 C 6.177 2.990,6.290 2.943,6.421 2.817 C 6.578 2.664,6.590 2.614,6.590 2.100 L 6.590 1.650 6.534 1.536 C 6.503 1.473,6.449 1.397,6.414 1.368 C 6.275 1.250,6.041 1.184,5.880 1.218 M2.850 2.466 C 2.669 2.539,2.529 2.672,2.471 2.825 C 2.426 2.944,2.435 3.175,2.490 3.290 C 2.545 3.407,3.086 3.941,3.207 3.999 C 3.499 4.139,3.908 3.968,4.009 3.664 C 4.058 3.516,4.053 3.320,3.997 3.203 C 3.935 3.072,3.424 2.564,3.290 2.499 C 3.174 2.443,2.947 2.426,2.850 2.466 M8.772 2.470 C 8.655 2.515,8.505 2.639,8.262 2.891 C 8.008 3.156,7.957 3.244,7.956 3.428 C 7.954 3.794,8.209 4.049,8.573 4.046 C 8.769 4.044,8.850 3.994,9.172 3.669 C 9.509 3.330,9.560 3.245,9.560 3.031 C 9.559 2.797,9.435 2.600,9.222 2.496 C 9.107 2.440,8.886 2.427,8.772 2.470 M5.650 3.631 C 5.001 3.741,4.463 4.060,4.090 4.557 C 3.876 4.841,3.748 5.116,3.659 5.480 C 3.599 5.729,3.592 6.204,3.645 6.451 C 3.856 7.430,4.550 8.132,5.523 8.353 C 5.747 8.404,6.255 8.400,6.490 8.345 C 7.503 8.110,8.217 7.349,8.372 6.337 C 8.500 5.506,8.133 4.610,7.459 4.101 C 7.057 3.799,6.678 3.657,6.170 3.621 C 5.841 3.597,5.855 3.597,5.650 3.631 M1.690 5.417 C 1.566 5.440,1.402 5.540,1.327 5.638 C 1.144 5.877,1.167 6.198,1.383 6.421 C 1.536 6.578,1.586 6.590,2.100 6.590 C 2.613 6.590,2.664 6.578,2.816 6.422 C 3.102 6.127,3.038 5.672,2.683 5.483 L 2.562 5.419 2.166 5.410 C 1.948 5.406,1.734 5.409,1.690 5.417 M9.490 5.417 C 9.366 5.440,9.202 5.540,9.127 5.638 C 8.944 5.877,8.967 6.198,9.183 6.421 C 9.336 6.578,9.386 6.590,9.900 6.590 C 10.413 6.590,10.464 6.578,10.616 6.422 C 10.902 6.127,10.838 5.672,10.483 5.483 L 10.362 5.419 9.966 5.410 C 9.748 5.406,9.534 5.409,9.490 5.417 M3.184 8.020 C 3.065 8.090,2.684 8.449,2.563 8.606 C 2.510 8.675,2.472 8.754,2.450 8.840 C 2.419 8.961,2.419 8.977,2.450 9.094 C 2.510 9.315,2.656 9.476,2.854 9.541 C 2.952 9.574,3.193 9.556,3.290 9.510 C 3.407 9.455,3.941 8.914,3.999 8.793 C 4.096 8.590,4.045 8.303,3.882 8.141 C 3.749 8.008,3.662 7.972,3.460 7.965 C 3.301 7.959,3.283 7.962,3.184 8.020 M8.284 8.012 C 8.007 8.150,7.870 8.522,7.999 8.788 C 8.049 8.892,8.341 9.208,8.556 9.391 C 8.680 9.498,8.722 9.521,8.840 9.550 C 8.976 9.583,8.983 9.583,9.118 9.542 C 9.294 9.488,9.453 9.352,9.520 9.196 C 9.578 9.060,9.570 8.837,9.502 8.700 C 9.438 8.573,8.932 8.080,8.796 8.012 C 8.648 7.938,8.432 7.938,8.284 8.012 M5.880 9.018 C 5.701 9.056,5.544 9.176,5.466 9.336 L 5.410 9.450 5.410 9.900 C 5.410 10.414,5.422 10.464,5.579 10.617 C 5.710 10.743,5.823 10.790,6.000 10.790 C 6.177 10.790,6.290 10.743,6.421 10.617 C 6.578 10.464,6.590 10.414,6.590 9.900 L 6.590 9.450 6.534 9.336 C 6.503 9.273,6.449 9.197,6.414 9.168 C 6.275 9.050,6.041 8.984,5.880 9.018 " fill="#1A1C1F" stroke="none" fill-rule="evenodd"></path></svg>