<svg xmlns="http://www.w3.org/2000/svg" width="20" height="20" fill="none"><path fill="#1A1C1F" fill-rule="evenodd" d="M9.678 2.06a.98.98 0 0 0-.627.636c-.039.112-.051.297-.051.807 0 .787.037.938.298 1.199a.985.985 0 0 0 1.404 0C10.963 4.44 11 4.291 11 3.5c0-.752-.033-.904-.251-1.159a1.03 1.03 0 0 0-1.071-.281M4.673 4.134c-.329.149-.509.363-.594.71-.048.192-.048.23.001.419.071.278.17.411.677.911.503.496.633.571.993.573a.974.974 0 0 0 .997-.997c-.002-.365-.074-.488-.606-1.025-.555-.559-.719-.659-1.088-.658a.9.9 0 0 0-.38.067m9.841.031c-.147.073-.314.216-.655.56-.532.537-.604.66-.606 1.025a.974.974 0 0 0 .997.997c.373-.002.517-.091 1.07-.655.484-.493.558-.601.614-.896.06-.316-.109-.745-.365-.928-.327-.232-.72-.271-1.055-.103M9.617 6.019c-.991.135-1.72.47-2.373 1.091-1.787 1.697-1.617 4.596.357 6.086 1.961 1.481 4.815.83 5.943-1.354a3.998 3.998 0 0 0-2.749-5.76c-.24-.05-.981-.09-1.178-.063M2.678 9.06a.99.99 0 0 0-.38 1.642c.262.261.411.298 1.202.298s.94-.037 1.202-.298a.99.99 0 0 0-.261-1.592c-.189-.092-.199-.093-.891-.102-.606-.007-.723 0-.872.052m13 0a.99.99 0 0 0-.38 1.642c.262.261.411.298 1.202.298s.94-.037 1.202-.298a.99.99 0 0 0-.261-1.592c-.189-.092-.199-.093-.891-.102-.606-.007-.723 0-.872.052m-10.14 4.208c-.227.046-.423.195-.91.69-.465.473-.506.536-.578.899-.03.148.063.485.181.656a.996.996 0 0 0 1.263.331c.067-.031.337-.267.599-.524.567-.557.654-.699.655-1.068a1 1 0 0 0-1.21-.984m8.507-.001a.986.986 0 0 0-.792.983c.002.36.077.49.573.993.5.507.633.606.911.677.189.049.227.049.419.001.704-.173 1.016-.952.614-1.532-.16-.231-.938-.969-1.103-1.047a1.1 1.1 0 0 0-.622-.075M9.678 15.06a.98.98 0 0 0-.627.636c-.039.112-.051.297-.051.807 0 .787.037.938.298 1.199a.985.985 0 0 0 1.404 0c.261-.262.298-.411.298-1.202 0-.752-.033-.904-.251-1.159a1.03 1.03 0 0 0-1.071-.281"/></svg>