<svg width="28" height="28" viewBox="0 0 28 28" fill="none" xmlns="http://www.w3.org/2000/svg"><path d="M13.595 1.884 C 13.288 2.031,13.217 2.143,13.161 2.571 C 13.099 3.048,13.101 5.120,13.164 5.412 C 13.283 5.965,13.845 6.256,14.352 6.026 C 14.607 5.910,14.775 5.697,14.836 5.412 C 14.896 5.131,14.902 3.011,14.843 2.559 C 14.821 2.384,14.765 2.197,14.717 2.132 C 14.460 1.790,14.003 1.689,13.595 1.884 M5.621 5.174 C 5.273 5.333,5.052 5.714,5.100 6.074 C 5.131 6.302,5.280 6.487,6.160 7.391 C 7.116 8.374,7.409 8.619,7.676 8.659 C 8.225 8.741,8.740 8.239,8.666 7.693 C 8.634 7.449,8.471 7.255,7.399 6.175 C 6.302 5.070,6.101 4.957,5.621 5.174 M21.700 5.184 C 21.552 5.251,21.227 5.544,20.601 6.175 C 19.529 7.255,19.366 7.449,19.334 7.693 C 19.262 8.231,19.780 8.745,20.309 8.661 C 20.584 8.617,20.854 8.395,21.753 7.477 C 22.717 6.492,22.868 6.307,22.900 6.074 C 22.948 5.714,22.727 5.333,22.379 5.174 C 22.135 5.064,21.960 5.066,21.700 5.184 M12.670 8.024 C 11.585 8.278,10.464 8.904,9.658 9.707 C 8.697 10.665,8.041 12.025,7.926 13.298 C 7.747 15.280,8.340 16.974,9.683 18.317 C 10.514 19.147,11.409 19.648,12.658 19.981 C 12.996 20.070,13.161 20.083,14.000 20.082 C 14.833 20.082,15.007 20.068,15.342 19.980 C 17.742 19.345,19.375 17.717,19.969 15.365 C 20.168 14.579,20.138 13.187,19.904 12.390 C 19.292 10.300,17.767 8.761,15.669 8.113 C 15.199 7.969,15.170 7.965,14.117 7.951 C 13.197 7.938,12.990 7.949,12.670 8.024 M15.164 9.798 C 15.951 10.026,16.521 10.364,17.100 10.947 C 17.928 11.781,18.340 12.794,18.340 14.000 C 18.340 15.432,17.743 16.619,16.567 17.523 C 15.602 18.265,14.191 18.549,12.982 18.244 C 12.050 18.010,11.321 17.553,10.628 16.768 C 10.230 16.317,9.854 15.517,9.726 14.852 C 9.641 14.408,9.641 13.593,9.726 13.149 C 10.051 11.453,11.392 10.098,13.113 9.728 C 13.573 9.629,14.713 9.668,15.164 9.798 M2.707 13.153 C 2.265 13.187,2.177 13.223,1.969 13.461 C 1.613 13.865,1.782 14.618,2.265 14.788 C 2.517 14.877,5.007 14.921,5.368 14.844 C 5.961 14.717,6.264 14.167,6.025 13.650 C 5.927 13.437,5.772 13.281,5.593 13.213 C 5.444 13.156,3.259 13.111,2.707 13.153 M22.527 13.171 C 21.994 13.349,21.753 13.864,21.974 14.352 C 22.095 14.618,22.304 14.776,22.620 14.842 C 23.001 14.921,25.479 14.878,25.735 14.788 C 26.073 14.669,26.287 14.218,26.207 13.792 C 26.171 13.602,25.952 13.329,25.752 13.226 C 25.566 13.130,22.794 13.083,22.527 13.171 M7.467 19.417 C 7.319 19.484,6.994 19.777,6.368 20.408 C 5.295 21.488,5.133 21.683,5.100 21.926 C 5.028 22.464,5.547 22.979,6.076 22.894 C 6.351 22.850,6.621 22.628,7.520 21.710 C 8.484 20.726,8.635 20.541,8.666 20.307 C 8.715 19.947,8.494 19.566,8.145 19.408 C 7.902 19.297,7.726 19.300,7.467 19.417 M19.855 19.408 C 19.506 19.566,19.285 19.947,19.334 20.307 C 19.365 20.541,19.516 20.726,20.480 21.710 C 21.379 22.628,21.649 22.850,21.924 22.894 C 22.453 22.979,22.972 22.464,22.900 21.926 C 22.867 21.683,22.705 21.488,21.632 20.408 C 20.536 19.303,20.334 19.190,19.855 19.408 M13.743 21.920 C 13.594 21.957,13.364 22.150,13.246 22.341 C 13.137 22.516,13.137 22.521,13.139 24.033 C 13.143 25.775,13.152 25.832,13.479 26.061 C 13.656 26.185,13.721 26.203,13.996 26.203 C 14.369 26.203,14.583 26.085,14.756 25.784 C 14.862 25.599,14.863 25.579,14.863 24.049 L 14.863 22.502 14.723 22.299 C 14.500 21.978,14.116 21.830,13.743 21.920 " fill="#1A1C1F" stroke="none" fill-rule="evenodd"></path></svg>