<svg width="24" height="24" viewBox="0 0 24 24" fill="none" xmlns="http://www.w3.org/2000/svg"><path d="M11.773 2.036 C 11.586 2.084,11.312 2.256,11.216 2.386 C 10.999 2.681,11.000 2.674,11.000 3.909 C 11.000 5.166,11.024 5.360,11.212 5.606 C 11.379 5.825,11.687 5.974,11.981 5.977 C 12.298 5.981,12.644 5.815,12.810 5.579 C 12.978 5.339,13.010 5.031,12.992 3.806 C 12.975 2.631,12.965 2.576,12.717 2.327 C 12.469 2.077,12.082 1.958,11.773 2.036 M5.369 4.678 C 5.096 4.746,4.794 5.033,4.682 5.333 C 4.622 5.493,4.630 5.711,4.704 5.963 C 4.764 6.164,4.829 6.240,5.574 6.980 C 6.018 7.420,6.455 7.831,6.546 7.893 C 7.099 8.268,7.945 7.853,8.027 7.167 C 8.068 6.820,7.993 6.651,7.601 6.212 C 7.105 5.655,6.275 4.859,6.093 4.767 C 5.913 4.675,5.556 4.631,5.369 4.678 M18.070 4.678 C 17.866 4.743,17.578 4.993,16.855 5.731 C 16.062 6.539,15.959 6.690,15.961 7.043 C 15.964 7.792,16.855 8.299,17.454 7.893 C 17.545 7.831,17.982 7.420,18.424 6.980 C 19.116 6.291,19.237 6.153,19.294 5.983 C 19.375 5.742,19.377 5.590,19.303 5.345 C 19.221 5.072,19.062 4.886,18.814 4.772 C 18.580 4.665,18.243 4.622,18.070 4.678 M11.520 8.047 C 10.576 8.132,9.525 8.711,8.902 9.490 C 7.711 10.979,7.710 13.021,8.900 14.508 C 9.685 15.490,10.931 16.054,12.160 15.986 C 13.842 15.893,15.260 14.832,15.775 13.280 C 16.001 12.601,16.049 12.045,15.941 11.380 C 15.780 10.391,15.273 9.505,14.531 8.916 C 13.668 8.230,12.674 7.943,11.520 8.047 M12.411 10.059 C 13.932 10.381,14.504 12.298,13.407 13.393 C 12.605 14.193,11.395 14.193,10.593 13.393 C 9.823 12.624,9.828 11.378,10.604 10.602 C 11.101 10.105,11.733 9.915,12.411 10.059 M2.880 11.033 C 1.924 11.149,1.681 12.380,2.521 12.856 L 2.740 12.980 4.000 12.980 C 5.216 12.980,5.266 12.977,5.420 12.894 C 5.781 12.698,5.977 12.384,5.977 12.000 C 5.977 11.702,5.889 11.497,5.674 11.294 C 5.394 11.032,5.369 11.027,4.180 11.016 C 3.586 11.011,3.001 11.019,2.880 11.033 M18.880 11.033 C 17.924 11.149,17.681 12.380,18.521 12.856 L 18.740 12.980 20.000 12.980 C 21.216 12.980,21.266 12.977,21.420 12.894 C 21.781 12.698,21.977 12.384,21.977 12.000 C 21.977 11.702,21.889 11.497,21.674 11.294 C 21.394 11.032,21.369 11.027,20.180 11.016 C 19.586 11.011,19.001 11.019,18.880 11.033 M6.731 16.013 C 6.542 16.082,6.071 16.498,5.381 17.206 C 4.887 17.712,4.758 17.869,4.705 18.023 C 4.436 18.813,5.129 19.537,5.931 19.304 C 6.131 19.246,6.213 19.183,6.704 18.710 C 7.500 17.942,7.939 17.437,8.001 17.217 C 8.074 16.955,8.028 16.662,7.878 16.442 C 7.603 16.040,7.137 15.865,6.731 16.013 M16.626 16.018 C 16.379 16.106,16.118 16.368,16.016 16.630 C 15.919 16.878,15.958 17.234,16.106 17.453 C 16.169 17.545,16.580 17.983,17.020 18.426 C 17.787 19.197,17.831 19.235,18.057 19.301 C 18.606 19.460,19.115 19.205,19.302 18.676 C 19.377 18.461,19.376 18.260,19.296 18.027 C 19.247 17.883,19.120 17.722,18.746 17.333 C 17.984 16.539,17.432 16.057,17.221 16.004 C 16.991 15.947,16.816 15.951,16.626 16.018 M11.773 18.036 C 11.586 18.084,11.312 18.256,11.216 18.386 C 10.999 18.681,11.000 18.674,11.000 19.909 C 11.000 21.166,11.024 21.360,11.212 21.606 C 11.379 21.825,11.687 21.974,11.981 21.977 C 12.298 21.981,12.644 21.815,12.810 21.579 C 12.978 21.339,13.010 21.031,12.992 19.806 C 12.975 18.631,12.965 18.576,12.717 18.327 C 12.469 18.077,12.082 17.958,11.773 18.036 " fill="#1A1C1F" stroke="none" fill-rule="evenodd"></path></svg>