<svg xmlns="http://www.w3.org/2000/svg" width="14" height="14" fill="none"><g clip-path="url(#a)"><path fill="#1A1C1F" fill-rule="evenodd" d="M7 10.5a.7.7 0 0 1 .7.7v.7a.7.7 0 1 1-1.4 0v-.7a.7.7 0 0 1 .7-.7m3.465-1.025.495.495a.7.7 0 1 1-.99.99l-.495-.495a.7.7 0 1 1 .99-.99M4.03 9.27l.107.008a.7.7 0 0 1 .388 1.187l-.495.495a.7.7 0 0 1-.388.197l-.107.008A.7.7 0 0 1 3.04 9.97l.495-.495a.7.7 0 0 1 .495-.205M7 4.2a2.8 2.8 0 1 1 0 5.6 2.8 2.8 0 0 1 0-5.6m0 1.4a1.4 1.4 0 1 0 0 2.8 1.4 1.4 0 0 0 0-2.8m4.9.7a.7.7 0 1 1 0 1.4h-.7a.7.7 0 1 1 0-1.4zm-9.1 0a.7.7 0 1 1 0 1.4h-.7a.7.7 0 0 1 0-1.4zm1.23-3.26.495.495a.7.7 0 1 1-.99.99L3.04 4.03a.7.7 0 1 1 .99-.99m6.435-.205.107.008a.7.7 0 0 1 .388 1.187l-.495.495a.7.7 0 0 1-.388.197l-.107.008a.7.7 0 0 1-.495-1.195l.495-.495a.7.7 0 0 1 .495-.205M7 1.4a.7.7 0 0 1 .7.7v.7a.7.7 0 1 1-1.4 0v-.7a.7.7 0 0 1 .7-.7" clip-rule="evenodd"/></g><defs><clipPath id="a"><path fill="#fff" d="M0 0h14v14H0z"/></clipPath></defs></svg>