<svg xmlns="http://www.w3.org/2000/svg" width="32" height="32" fill="none"><g clip-path="url(#a)"><path fill="#1A1C1F" fill-rule="evenodd" d="M16 25a1 1 0 0 1 1 1v3a1 1 0 1 1-2 0v-3a1 1 0 0 1 1-1m-6.364-2.636a1 1 0 0 1 0 1.414L7.515 25.9A1 1 0 0 1 6.1 24.485l2.12-2.121a1 1 0 0 1 1.415 0m14.142 0 2.122 2.121a1 1 0 0 1-1.415 1.415l-2.121-2.122a1 1 0 1 1 1.414-1.414M16 9a7 7 0 1 1 0 14 7 7 0 0 1 0-14m0 2a5 5 0 1 0 0 10 5 5 0 0 0 0-10m13 4a1 1 0 1 1 0 2h-3a1 1 0 1 1 0-2zM6 15a1 1 0 1 1 0 2H3a1 1 0 1 1 0-2zm19.9-8.9a1 1 0 0 1 0 1.415l-2.122 2.121a1 1 0 1 1-1.414-1.414L24.485 6.1a1 1 0 0 1 1.415 0m-18.385 0 2.121 2.122a1 1 0 1 1-1.414 1.414L6.1 7.515A1 1 0 0 1 7.515 6.1M16 2a1 1 0 0 1 1 1v3a1 1 0 1 1-2 0V3a1 1 0 0 1 1-1" clip-rule="evenodd"/></g><defs><clipPath id="a"><path fill="#fff" d="M0 0h32v32H0z"/></clipPath></defs></svg>