<svg width="16" height="16" viewBox="0 0 16 16" fill="none" xmlns="http://www.w3.org/2000/svg"><path d="M7.840 1.624 C 7.600 1.674,7.373 1.854,7.271 2.076 C 7.217 2.191,7.213 2.242,7.213 2.800 C 7.213 3.485,7.229 3.552,7.439 3.756 C 7.613 3.925,7.764 3.987,8.000 3.987 C 8.236 3.987,8.387 3.925,8.561 3.756 C 8.771 3.552,8.787 3.485,8.787 2.800 L 8.787 2.200 8.712 2.048 C 8.671 1.964,8.599 1.863,8.552 1.824 C 8.366 1.667,8.055 1.579,7.840 1.624 M3.800 3.285 C 3.574 3.370,3.411 3.519,3.313 3.728 C 3.257 3.850,3.249 3.900,3.258 4.075 C 3.265 4.203,3.288 4.320,3.320 4.387 C 3.393 4.540,4.114 5.255,4.273 5.330 C 4.430 5.406,4.683 5.412,4.883 5.346 C 5.070 5.284,5.280 5.078,5.342 4.895 C 5.407 4.703,5.401 4.420,5.328 4.268 C 5.244 4.095,4.562 3.416,4.387 3.332 C 4.235 3.259,3.933 3.235,3.800 3.285 M11.720 3.285 C 11.553 3.348,11.416 3.457,11.079 3.796 C 10.676 4.202,10.612 4.307,10.610 4.570 C 10.608 4.827,10.674 4.997,10.838 5.162 C 11.002 5.325,11.177 5.393,11.430 5.392 C 11.697 5.390,11.797 5.327,12.229 4.892 C 12.678 4.440,12.747 4.327,12.746 4.041 C 12.746 3.730,12.588 3.481,12.293 3.329 C 12.156 3.258,11.853 3.235,11.720 3.285 M7.533 4.841 C 6.817 4.965,6.247 5.251,5.760 5.731 C 4.882 6.596,4.583 7.840,4.973 9.005 C 5.340 10.100,6.209 10.875,7.364 11.137 C 7.663 11.205,8.339 11.200,8.653 11.127 C 9.999 10.815,10.959 9.794,11.160 8.462 C 11.393 6.916,10.448 5.423,8.936 4.949 C 8.547 4.827,7.901 4.777,7.533 4.841 M2.253 7.223 C 2.005 7.270,1.775 7.448,1.671 7.676 C 1.589 7.855,1.591 8.155,1.675 8.325 C 1.757 8.491,1.923 8.659,2.076 8.729 C 2.191 8.783,2.242 8.787,2.800 8.787 C 3.484 8.787,3.553 8.771,3.755 8.562 C 4.136 8.169,4.050 7.563,3.577 7.311 L 3.415 7.225 2.888 7.214 C 2.597 7.208,2.312 7.212,2.253 7.223 M12.653 7.223 C 12.405 7.270,12.175 7.448,12.071 7.676 C 11.989 7.855,11.991 8.155,12.075 8.325 C 12.157 8.491,12.323 8.659,12.476 8.729 C 12.591 8.783,12.642 8.787,13.200 8.787 C 13.884 8.787,13.953 8.771,14.155 8.562 C 14.536 8.169,14.450 7.563,13.977 7.311 L 13.815 7.225 13.288 7.214 C 12.997 7.208,12.712 7.212,12.653 7.223 M4.246 10.693 C 4.086 10.786,3.580 11.264,3.417 11.475 C 3.344 11.570,3.296 11.669,3.266 11.792 C 3.222 11.965,3.223 11.977,3.276 12.153 C 3.368 12.455,3.540 12.629,3.838 12.722 C 4.192 12.832,4.433 12.715,4.953 12.176 C 5.329 11.788,5.387 11.687,5.387 11.423 C 5.387 11.168,5.325 11.003,5.176 10.854 C 4.999 10.678,4.883 10.630,4.613 10.620 C 4.401 10.612,4.378 10.616,4.246 10.693 M11.113 10.651 C 10.804 10.762,10.608 11.059,10.608 11.420 C 10.608 11.678,10.672 11.788,11.047 12.176 C 11.418 12.561,11.607 12.697,11.830 12.744 C 12.051 12.790,12.284 12.718,12.481 12.540 C 12.670 12.371,12.746 12.204,12.746 11.960 C 12.746 11.658,12.679 11.546,12.239 11.116 C 11.794 10.680,11.682 10.613,11.401 10.615 C 11.298 10.615,11.168 10.632,11.113 10.651 M7.840 12.024 C 7.600 12.074,7.373 12.254,7.271 12.476 C 7.217 12.591,7.213 12.642,7.213 13.200 C 7.213 13.885,7.229 13.952,7.439 14.156 C 7.613 14.325,7.764 14.387,8.000 14.387 C 8.236 14.387,8.387 14.325,8.561 14.156 C 8.771 13.952,8.787 13.885,8.787 13.200 L 8.787 12.600 8.712 12.448 C 8.671 12.364,8.599 12.263,8.552 12.224 C 8.366 12.067,8.055 11.979,7.840 12.024 " fill="#1A1C1F" stroke="none" fill-rule="evenodd"></path></svg>