<svg width="20" height="20" viewBox="0 0 20 20" fill="none" xmlns="http://www.w3.org/2000/svg"><path d="M9.800 2.030 C 9.502 2.093,9.241 2.294,9.110 2.560 L 9.017 2.750 9.017 3.500 C 9.017 4.356,9.037 4.441,9.299 4.695 C 9.516 4.906,9.705 4.983,10.000 4.983 C 10.295 4.983,10.484 4.906,10.701 4.695 C 10.963 4.441,10.983 4.356,10.983 3.500 L 10.983 2.750 10.890 2.560 C 10.839 2.455,10.749 2.329,10.690 2.280 C 10.458 2.083,10.068 1.974,9.800 2.030 M4.747 4.112 C 4.407 4.223,4.176 4.478,4.078 4.853 C 3.973 5.258,4.135 5.568,4.780 6.192 C 5.259 6.654,5.401 6.738,5.713 6.740 C 6.029 6.741,6.248 6.656,6.452 6.452 C 6.739 6.165,6.830 5.689,6.663 5.341 C 6.557 5.120,5.708 4.273,5.483 4.165 C 5.285 4.070,4.951 4.046,4.747 4.112 M14.700 4.096 C 14.459 4.175,14.284 4.308,13.865 4.729 C 13.344 5.253,13.262 5.385,13.260 5.713 C 13.259 6.029,13.344 6.248,13.548 6.452 C 13.753 6.658,13.967 6.740,14.288 6.737 C 14.621 6.735,14.747 6.658,15.269 6.135 C 15.815 5.590,15.905 5.452,15.925 5.121 C 15.961 4.540,15.581 4.109,15.007 4.080 C 14.884 4.073,14.746 4.081,14.700 4.096 M9.433 6.051 C 8.549 6.192,7.815 6.557,7.200 7.163 C 5.767 8.576,5.605 10.794,6.816 12.405 C 7.392 13.171,8.224 13.699,9.205 13.922 C 9.578 14.007,10.424 14.000,10.817 13.909 C 12.260 13.574,13.327 12.621,13.782 11.261 C 14.066 10.413,14.066 9.587,13.782 8.740 C 13.378 7.531,12.470 6.622,11.264 6.219 C 10.722 6.038,9.958 5.968,9.433 6.051 M10.534 8.087 C 11.339 8.326,11.903 9.014,11.985 9.854 C 12.068 10.713,11.460 11.617,10.617 11.887 C 10.093 12.055,9.588 12.016,9.080 11.767 C 8.842 11.651,8.486 11.318,8.318 11.054 C 7.686 10.066,8.072 8.744,9.146 8.216 C 9.313 8.134,9.533 8.052,9.633 8.035 C 9.873 7.994,10.305 8.019,10.534 8.087 M2.817 9.029 C 2.506 9.087,2.219 9.311,2.089 9.595 C 1.987 9.818,1.989 10.194,2.094 10.406 C 2.196 10.614,2.403 10.823,2.595 10.912 C 2.739 10.978,2.803 10.983,3.500 10.983 C 4.355 10.983,4.441 10.963,4.693 10.703 C 5.170 10.211,5.063 9.454,4.471 9.139 L 4.269 9.031 3.610 9.017 C 3.247 9.010,2.890 9.015,2.817 9.029 M15.817 9.029 C 15.506 9.087,15.219 9.311,15.089 9.595 C 14.987 9.818,14.989 10.194,15.094 10.406 C 15.196 10.614,15.403 10.823,15.595 10.912 C 15.739 10.978,15.803 10.983,16.500 10.983 C 17.355 10.983,17.441 10.963,17.693 10.703 C 18.170 10.211,18.063 9.454,17.471 9.139 L 17.269 9.031 16.610 9.017 C 16.247 9.010,15.890 9.015,15.817 9.029 M5.300 13.370 C 5.023 13.531,4.255 14.312,4.153 14.537 C 4.027 14.815,4.016 14.933,4.096 15.193 C 4.240 15.667,4.583 15.933,5.049 15.933 C 5.411 15.933,5.554 15.847,6.118 15.285 C 6.659 14.747,6.738 14.620,6.740 14.287 C 6.741 13.981,6.656 13.753,6.470 13.568 C 6.249 13.347,6.104 13.287,5.767 13.274 C 5.499 13.264,5.473 13.270,5.300 13.370 M13.807 13.353 C 13.458 13.527,13.258 13.869,13.260 14.287 C 13.262 14.599,13.346 14.741,13.808 15.220 C 14.273 15.701,14.509 15.872,14.787 15.930 C 14.963 15.967,15.006 15.964,15.206 15.901 C 15.805 15.715,16.101 15.091,15.851 14.541 C 15.782 14.389,15.669 14.256,15.299 13.895 C 14.737 13.344,14.605 13.267,14.233 13.267 C 14.027 13.267,13.947 13.283,13.807 13.353 M9.800 15.030 C 9.502 15.093,9.241 15.294,9.110 15.560 L 9.017 15.750 9.017 16.500 C 9.017 17.356,9.037 17.441,9.299 17.695 C 9.516 17.906,9.705 17.983,10.000 17.983 C 10.295 17.983,10.484 17.906,10.701 17.695 C 10.963 17.441,10.983 17.356,10.983 16.500 L 10.983 15.750 10.890 15.560 C 10.839 15.455,10.749 15.329,10.690 15.280 C 10.458 15.083,10.068 14.974,9.800 15.030 " fill="#1A1C1F" stroke="none" fill-rule="evenodd"></path></svg>