<svg xmlns="http://www.w3.org/2000/svg" width="28" height="28" fill="none"><g clip-path="url(#a)"><path fill="#1A1C1F" fill-rule="evenodd" d="M14 21.875c.483 0 .875.392.875.875v2.625a.875.875 0 0 1-1.75 0V22.75c0-.483.392-.875.875-.875m-5.568-2.306a.875.875 0 0 1 0 1.237l-1.857 1.856a.875.875 0 1 1-1.237-1.237l1.856-1.857a.875.875 0 0 1 1.238 0m12.374 0 1.856 1.856a.875.875 0 0 1-1.237 1.237l-1.857-1.856a.875.875 0 1 1 1.238-1.238M14 7.874a6.125 6.125 0 1 1 0 12.25 6.125 6.125 0 0 1 0-12.25m0 1.75a4.375 4.375 0 1 0 0 8.75 4.375 4.375 0 0 0 0-8.75m11.375 3.5a.875.875 0 0 1 0 1.75H22.75a.875.875 0 0 1 0-1.75zm-20.125 0a.875.875 0 0 1 0 1.75H2.625a.875.875 0 0 1 0-1.75zm17.412-7.787a.875.875 0 0 1 0 1.237l-1.856 1.857a.875.875 0 1 1-1.238-1.238l1.857-1.856a.875.875 0 0 1 1.237 0m-16.087 0 1.857 1.856a.875.875 0 1 1-1.238 1.238L5.338 6.575a.875.875 0 1 1 1.237-1.237M14 1.75c.483 0 .875.392.875.875V5.25a.875.875 0 0 1-1.75 0V2.625c0-.483.392-.875.875-.875" clip-rule="evenodd"/></g><defs><clipPath id="a"><path fill="#fff" d="M0 0h28v28H0z"/></clipPath></defs></svg>