<svg width="14" height="14" viewBox="0 0 14 14" fill="none" xmlns="http://www.w3.org/2000/svg"><path d="M6.860 1.421 C 6.650 1.465,6.470 1.603,6.377 1.791 L 6.312 1.925 6.312 2.450 C 6.312 3.049,6.326 3.108,6.509 3.286 C 6.661 3.434,6.793 3.488,7.000 3.488 C 7.207 3.488,7.339 3.434,7.491 3.286 C 7.674 3.108,7.688 3.049,7.688 2.450 L 7.688 1.925 7.623 1.792 C 7.587 1.719,7.524 1.630,7.483 1.596 C 7.321 1.458,7.048 1.382,6.860 1.421 M3.323 2.879 C 3.085 2.956,2.923 3.135,2.855 3.397 C 2.781 3.681,2.894 3.898,3.346 4.334 C 3.681 4.658,3.780 4.716,3.999 4.718 C 4.220 4.719,4.374 4.659,4.517 4.517 C 4.717 4.316,4.781 3.982,4.664 3.738 C 4.590 3.584,3.995 2.991,3.838 2.916 C 3.699 2.849,3.466 2.832,3.323 2.879 M10.290 2.867 C 10.121 2.923,9.999 3.016,9.705 3.310 C 9.340 3.677,9.284 3.770,9.282 3.999 C 9.281 4.220,9.341 4.374,9.483 4.516 C 9.627 4.660,9.765 4.713,9.995 4.713 C 10.237 4.713,10.318 4.664,10.688 4.295 C 11.071 3.912,11.133 3.816,11.148 3.585 C 11.173 3.178,10.907 2.876,10.505 2.856 C 10.419 2.851,10.322 2.857,10.290 2.867 M6.528 4.247 C 6.104 4.326,5.798 4.451,5.434 4.694 C 4.109 5.580,3.807 7.401,4.771 8.683 C 5.174 9.219,5.757 9.589,6.443 9.745 C 6.705 9.805,7.297 9.800,7.572 9.736 C 8.582 9.502,9.329 8.835,9.647 7.883 C 10.009 6.800,9.683 5.617,8.818 4.880 C 8.348 4.480,7.828 4.269,7.204 4.224 C 6.797 4.195,6.807 4.195,6.528 4.247 M1.972 6.320 C 1.754 6.361,1.553 6.517,1.462 6.717 C 1.391 6.873,1.392 7.136,1.466 7.284 C 1.537 7.430,1.682 7.576,1.816 7.638 C 1.917 7.685,1.962 7.688,2.450 7.688 C 3.049 7.688,3.108 7.674,3.285 7.492 C 3.431 7.342,3.487 7.207,3.487 7.000 C 3.487 6.791,3.434 6.654,3.297 6.517 C 3.124 6.344,3.044 6.323,2.524 6.312 C 2.272 6.307,2.023 6.310,1.972 6.320 M11.072 6.320 C 10.854 6.361,10.653 6.517,10.562 6.717 C 10.491 6.873,10.492 7.136,10.566 7.284 C 10.637 7.430,10.782 7.576,10.916 7.638 C 11.017 7.685,11.062 7.688,11.550 7.688 C 12.149 7.688,12.208 7.674,12.385 7.492 C 12.531 7.342,12.587 7.207,12.587 7.000 C 12.587 6.791,12.534 6.654,12.397 6.517 C 12.224 6.344,12.144 6.323,11.624 6.312 C 11.372 6.307,11.123 6.310,11.072 6.320 M3.710 9.360 C 3.635 9.403,3.453 9.562,3.273 9.742 C 2.918 10.096,2.836 10.230,2.838 10.453 C 2.840 10.711,2.995 10.966,3.225 11.088 C 3.308 11.132,3.361 11.141,3.535 11.141 C 3.725 11.142,3.756 11.135,3.862 11.074 C 4.029 10.976,4.598 10.399,4.665 10.260 C 4.706 10.175,4.718 10.109,4.717 9.976 C 4.716 9.685,4.594 9.487,4.335 9.358 C 4.214 9.297,4.166 9.287,4.015 9.287 C 3.860 9.287,3.823 9.296,3.710 9.360 M9.665 9.347 C 9.421 9.469,9.281 9.708,9.282 10.001 C 9.284 10.220,9.342 10.319,9.666 10.654 C 9.991 10.990,10.156 11.110,10.351 11.151 C 10.474 11.177,10.504 11.175,10.645 11.131 C 11.064 11.000,11.270 10.564,11.096 10.179 C 11.048 10.072,10.968 9.979,10.709 9.726 C 10.316 9.341,10.223 9.287,9.963 9.287 C 9.819 9.287,9.763 9.298,9.665 9.347 M6.860 10.521 C 6.650 10.565,6.470 10.703,6.377 10.891 L 6.312 11.025 6.312 11.550 C 6.312 12.149,6.326 12.208,6.509 12.386 C 6.661 12.534,6.793 12.588,7.000 12.588 C 7.207 12.588,7.339 12.534,7.491 12.386 C 7.674 12.208,7.688 12.149,7.688 11.550 L 7.688 11.025 7.623 10.892 C 7.587 10.819,7.524 10.730,7.483 10.696 C 7.321 10.558,7.048 10.482,6.860 10.521 " fill="#1A1C1F" stroke="none" fill-rule="evenodd"></path></svg>