<svg width="16" height="16" viewBox="0 0 16 16" fill="none" xmlns="http://www.w3.org/2000/svg"><path d="M7.733 1.635 C 7.542 1.679,7.285 1.818,7.167 1.942 C 7.043 2.071,6.542 2.798,5.400 4.507 C 4.016 6.576,3.763 6.999,3.507 7.667 C 3.204 8.457,3.087 9.161,3.144 9.838 C 3.303 11.696,4.247 13.137,5.800 13.893 C 7.184 14.566,8.816 14.566,10.200 13.893 C 11.748 13.140,12.694 11.699,12.855 9.850 C 12.935 8.934,12.691 7.941,12.123 6.867 C 11.910 6.465,11.434 5.736,9.938 3.520 C 8.978 2.098,8.875 1.959,8.687 1.838 C 8.377 1.637,8.037 1.565,7.733 1.635 M8.567 4.353 C 9.542 5.794,10.496 7.239,10.648 7.509 C 10.842 7.852,11.054 8.349,11.134 8.648 C 11.303 9.278,11.282 10.046,11.081 10.638 C 10.711 11.726,9.844 12.490,8.702 12.735 C 8.409 12.798,7.590 12.798,7.296 12.735 C 6.454 12.554,5.747 12.083,5.291 11.398 C 5.119 11.140,4.986 10.855,4.896 10.555 C 4.781 10.166,4.762 10.031,4.761 9.547 C 4.760 9.029,4.787 8.865,4.952 8.387 C 5.139 7.843,5.348 7.474,6.193 6.204 C 7.319 4.512,7.975 3.547,7.999 3.547 C 8.011 3.547,8.266 3.910,8.567 4.353 " fill="#1A1C1F" stroke="none" fill-rule="evenodd"></path></svg>