<svg width="14" height="14" viewBox="0 0 14 14" fill="none" xmlns="http://www.w3.org/2000/svg"><path d="M6.767 1.432 C 6.601 1.468,6.375 1.590,6.271 1.699 C 6.162 1.812,5.723 2.451,4.725 3.943 C 3.514 5.755,3.292 6.126,3.073 6.697 C 2.725 7.606,2.658 8.323,2.837 9.217 C 3.102 10.538,3.899 11.584,5.075 12.156 C 6.632 12.914,8.513 12.683,9.812 11.576 C 10.641 10.869,11.142 9.839,11.248 8.619 C 11.326 7.729,11.046 6.726,10.440 5.715 C 10.201 5.316,8.422 2.653,7.971 2.019 C 7.752 1.711,7.659 1.621,7.459 1.526 C 7.199 1.404,7.013 1.378,6.767 1.432 M7.496 3.809 C 8.266 4.948,9.081 6.176,9.240 6.440 C 9.508 6.883,9.734 7.436,9.803 7.817 C 9.843 8.040,9.843 8.660,9.802 8.890 C 9.672 9.625,9.238 10.310,8.650 10.706 C 8.082 11.090,7.437 11.245,6.683 11.179 C 5.577 11.082,4.665 10.364,4.304 9.305 C 4.197 8.993,4.167 8.787,4.166 8.353 C 4.165 7.900,4.189 7.755,4.333 7.338 C 4.500 6.856,4.680 6.540,5.418 5.429 C 6.404 3.948,6.978 3.103,6.999 3.103 C 7.010 3.103,7.233 3.421,7.496 3.809 " fill="#1A1C1F" stroke="none" fill-rule="evenodd"></path></svg>