<svg width="24" height="24" viewBox="0 0 24 24" fill="none" xmlns="http://www.w3.org/2000/svg"><path d="M11.600 2.061 C 11.242 2.161,10.967 2.354,10.716 2.685 C 10.260 3.285,6.725 8.516,6.101 9.515 C 4.474 12.116,4.089 14.510,4.903 16.957 C 6.102 20.560,9.739 22.600,13.600 21.836 C 16.006 21.359,18.025 19.686,18.939 17.411 C 19.513 15.984,19.666 14.341,19.356 12.944 C 19.182 12.160,18.785 11.098,18.390 10.360 C 18.106 9.829,17.731 9.252,15.595 6.060 C 13.491 2.916,13.211 2.518,12.971 2.335 C 12.611 2.060,12.025 1.943,11.600 2.061 M12.424 4.930 C 13.102 5.920,15.857 10.040,16.159 10.515 C 16.684 11.340,17.139 12.339,17.342 13.113 C 17.668 14.359,17.511 15.815,16.920 17.027 C 16.287 18.323,15.280 19.211,13.896 19.693 C 13.215 19.930,12.917 19.975,12.040 19.974 C 11.178 19.973,10.844 19.927,10.206 19.720 C 8.294 19.100,6.921 17.503,6.581 15.505 C 6.510 15.090,6.499 13.915,6.562 13.520 C 6.651 12.968,7.035 11.966,7.499 11.080 C 7.585 10.915,8.468 9.565,9.461 8.080 C 11.619 4.851,11.955 4.360,12.000 4.360 C 12.019 4.360,12.210 4.617,12.424 4.930 " fill="#1A1C1F" stroke="none" fill-rule="evenodd"></path></svg>