<svg xmlns="http://www.w3.org/2000/svg" width="32" height="32" fill="none"><g clip-path="url(#a)"><path fill="#1A1C1F" fill-rule="evenodd" d="M5.562 19.458c0-2.376.986-5.01 2.93-7.825 0 0 4.031-6.006 5.868-8.765A1.94 1.94 0 0 1 15.971 2h.006c.646 0 1.248.32 1.609.857.864 1.285 2.275 3.376 3.504 5.196a1 1 0 0 1-1.657 1.12c-1.23-1.82-2.642-3.914-3.506-5.2-1.742 2.767-5.782 8.785-5.782 8.785-1.716 2.486-2.583 4.736-2.583 6.698 0 4.951 3.549 8.545 8.438 8.545s8.438-3.594 8.438-8.545c0-1.87-.798-4.017-2.373-6.378a1.001 1.001 0 0 1 1.664-1.11c1.797 2.696 2.709 5.215 2.709 7.488C26.438 25.466 21.951 30 16 30c-5.951.002-10.438-4.532-10.438-10.542" clip-rule="evenodd"/></g><defs><clipPath id="a"><path fill="#fff" d="M0 0h32v32H0z"/></clipPath></defs></svg>