<svg width="32" height="32" viewBox="0 0 32 32" fill="none" xmlns="http://www.w3.org/2000/svg"><path d="M15.520 2.073 C 15.205 2.142,14.918 2.306,14.667 2.560 C 14.394 2.836,13.647 3.922,10.907 8.027 C 7.519 13.102,7.130 13.731,6.588 15.008 C 5.785 16.903,5.487 18.495,5.603 20.284 C 5.751 22.580,6.674 24.856,8.130 26.521 C 9.755 28.379,12.114 29.596,14.719 29.917 C 15.384 30.000,16.811 29.986,17.505 29.891 C 20.852 29.431,23.556 27.576,25.158 24.640 C 26.073 22.964,26.516 20.887,26.397 18.838 C 26.293 17.066,25.536 14.927,24.265 12.820 C 23.784 12.022,23.613 11.809,23.341 11.669 C 22.510 11.240,21.632 12.080,22.019 12.933 C 22.073 13.051,22.297 13.447,22.518 13.813 C 24.003 16.279,24.565 18.248,24.376 20.320 C 24.180 22.461,23.405 24.166,21.975 25.605 C 20.816 26.771,19.473 27.482,17.760 27.838 C 17.280 27.937,17.029 27.954,16.000 27.953 C 14.788 27.952,14.592 27.932,13.821 27.735 C 12.450 27.385,11.274 26.779,10.356 25.949 C 8.739 24.487,7.827 22.608,7.623 20.318 C 7.470 18.603,7.838 16.916,8.766 15.088 C 9.165 14.299,9.721 13.423,12.265 9.573 C 13.487 7.725,14.793 5.739,15.168 5.160 C 15.543 4.581,15.869 4.095,15.892 4.081 C 15.943 4.049,16.455 4.770,18.000 7.053 C 18.669 8.043,19.327 8.989,19.462 9.155 C 19.744 9.503,19.994 9.620,20.384 9.585 C 20.839 9.545,21.237 9.096,21.248 8.612 C 21.255 8.340,21.127 8.126,19.638 5.899 C 17.500 2.703,17.304 2.444,16.835 2.215 C 16.532 2.067,15.874 1.995,15.520 2.073 " fill="#1A1C1F" stroke="none" fill-rule="evenodd"></path></svg>