<svg width="12" height="12" viewBox="0 0 12 12" fill="none" xmlns="http://www.w3.org/2000/svg"><path d="M5.800 1.227 C 5.658 1.258,5.465 1.363,5.375 1.456 C 5.282 1.553,4.909 2.096,4.050 3.380 C 3.249 4.578,3.025 4.931,2.848 5.270 C 2.504 5.927,2.310 6.712,2.349 7.280 C 2.421 8.306,2.737 9.051,3.378 9.707 C 3.815 10.154,4.213 10.405,4.792 10.599 C 6.382 11.131,8.122 10.568,9.023 9.231 C 9.370 8.715,9.580 8.090,9.641 7.388 C 9.706 6.641,9.469 5.771,8.974 4.940 C 8.776 4.607,7.222 2.278,6.832 1.730 C 6.644 1.466,6.565 1.390,6.393 1.308 C 6.171 1.203,6.011 1.181,5.800 1.227 M6.385 3.205 C 7.067 4.211,7.873 5.431,7.986 5.631 C 8.185 5.984,8.342 6.385,8.403 6.700 C 8.436 6.873,8.436 7.430,8.402 7.620 C 8.287 8.268,7.909 8.851,7.380 9.199 C 6.914 9.505,6.372 9.632,5.745 9.582 C 4.765 9.503,3.951 8.848,3.672 7.916 C 3.585 7.625,3.572 7.523,3.571 7.160 C 3.570 6.771,3.590 6.647,3.714 6.290 C 3.855 5.883,4.013 5.603,4.604 4.714 C 5.436 3.463,5.982 2.660,5.999 2.660 C 6.008 2.660,6.181 2.905,6.385 3.205 " fill="#1A1C1F" stroke="none" fill-rule="evenodd"></path></svg>