<svg xmlns="http://www.w3.org/2000/svg" width="16" height="16" fill="none"><g clip-path="url(#a)"><path fill="#1A1C1F" fill-rule="evenodd" d="M8 14.4c-2.776 0-4.869-2.111-4.869-4.911 0-1.1.447-2.305 1.328-3.58 0 0 1.736-2.584 2.527-3.772A1.2 1.2 0 0 1 7.987 1.6h.002c.32 0 .622.126.846.346a.8.8 0 0 1 .178.191c.793 1.19 2.533 3.78 2.533 3.78.876 1.267 1.323 2.472 1.323 3.572 0 2.8-2.093 4.91-4.869 4.91M8 3.5C7.135 4.793 5.781 6.81 5.781 6.81c-.699 1.011-1.05 1.91-1.05 2.68 0 1.918 1.374 3.31 3.268 3.31s3.27-1.392 3.27-3.31c0-.77-.351-1.668-1.045-2.672C10.219 6.809 8.864 4.793 8 3.5" clip-rule="evenodd"/></g><defs><clipPath id="a"><path fill="#fff" d="M0 0h16v16H0z"/></clipPath></defs></svg>