<svg xmlns="http://www.w3.org/2000/svg" width="32" height="32" fill="none"><path fill="#1A1C1F" fill-rule="evenodd" d="M15.377 2.103c-.303.095-.536.247-.796.52-.291.306-6.668 9.852-7.169 10.732-.89 1.565-1.456 3.084-1.74 4.672-.112.621-.126 2.152-.027 2.853.218 1.549.718 3.018 1.428 4.201 1.98 3.295 5.661 5.152 9.687 4.886 5.002-.33 8.812-3.875 9.567-8.9.128-.85.128-2.243.001-3.007-.207-1.242-.678-2.636-1.317-3.9-.423-.838-1.092-1.952-1.345-2.242-.369-.421-.886-.503-1.332-.209-.288.19-.431.501-.404.88.02.265.07.38.401.91.54.868.846 1.426 1.134 2.071.637 1.421.895 2.407.946 3.603.145 3.427-1.572 6.483-4.447 7.916a8.5 8.5 0 0 1-2.145.736c-.609.129-.78.142-1.819.142s-1.21-.013-1.819-.142c-2.26-.479-4.011-1.644-5.215-3.47-.962-1.459-1.455-3.313-1.376-5.182.05-1.183.323-2.246.912-3.55.472-1.045.885-1.716 3.285-5.329a599 599 0 0 0 3.197-4.854c.481-.748.892-1.38.913-1.404.02-.025.56.731 1.199 1.68 2.423 3.597 2.464 3.655 2.712 3.775.26.126.6.141.848.037.387-.162.668-.679.592-1.089-.035-.188-.995-1.657-3.151-4.821-.761-1.115-.967-1.323-1.504-1.51-.282-.098-.908-.101-1.216-.005"/></svg>