<svg xmlns="http://www.w3.org/2000/svg" width="28" height="28" fill="none"><g clip-path="url(#a)"><path fill="#1A1C1F" fill-rule="evenodd" d="M4.867 17.025c0-2.079.863-4.383 2.564-6.847 0 0 3.527-5.254 5.134-7.668a1.7 1.7 0 0 1 1.41-.76h.005c.565 0 1.092.28 1.408.75.756 1.125 1.99 2.954 3.066 4.547a.876.876 0 0 1-1.45.979 2314 2314 0 0 1-3.068-4.55c-1.524 2.422-5.06 7.687-5.06 7.687-1.5 2.175-2.26 4.145-2.26 5.861 0 4.333 3.106 7.476 7.384 7.476s7.383-3.143 7.383-7.476c0-1.637-.698-3.515-2.076-5.581a.876.876 0 0 1 1.456-.971c1.572 2.359 2.37 4.564 2.37 6.552 0 5.26-3.926 9.226-9.133 9.226-5.207.001-9.133-3.965-9.133-9.225" clip-rule="evenodd"/></g><defs><clipPath id="a"><path fill="#fff" d="M0 0h28v28H0z"/></clipPath></defs></svg>