<svg xmlns="http://www.w3.org/2000/svg" width="14" height="14" fill="none"><g clip-path="url(#a)"><path fill="#1A1C1F" fill-rule="evenodd" d="M10.103 5.178S8.58 2.91 7.887 1.87a.7.7 0 0 0-.156-.167 1.05 1.05 0 0 0-.74-.303h-.002c-.353 0-.68.177-.876.47-.693 1.04-2.212 3.3-2.211 3.3-.771 1.117-1.163 2.17-1.163 3.133 0 2.45 1.832 4.297 4.261 4.297s4.261-1.847 4.261-4.297c0-.962-.392-2.016-1.158-3.125" clip-rule="evenodd"/></g><defs><clipPath id="a"><path fill="#fff" d="M0 0h14v14H0z"/></clipPath></defs></svg>