<svg xmlns="http://www.w3.org/2000/svg" width="14" height="14" fill="none"><g clip-path="url(#a)"><path fill="#1A1C1F" fill-rule="evenodd" d="M7 12.6c-2.429 0-4.26-1.848-4.26-4.297 0-.963.391-2.017 1.162-3.133 0 0 1.519-2.26 2.21-3.3.197-.293.524-.47.877-.47h.002c.28 0 .544.11.74.303q.09.069.156.167c.693 1.041 2.216 3.307 2.216 3.307.766 1.11 1.157 2.163 1.157 3.126 0 2.45-1.831 4.297-4.26 4.297m0-9.537c-.756 1.131-1.941 2.895-1.941 2.895-.612.885-.92 1.672-.92 2.344C4.14 9.982 5.342 11.2 7 11.2c1.658 0 2.861-1.219 2.861-2.898 0-.672-.307-1.459-.914-2.337-.004-.007-1.19-1.77-1.946-2.902" clip-rule="evenodd"/></g><defs><clipPath id="a"><path fill="#fff" d="M0 0h14v14H0z"/></clipPath></defs></svg>