<svg xmlns="http://www.w3.org/2000/svg" width="20" height="20" fill="none"><g clip-path="url(#a)"><path fill="#1A1C1F" fill-rule="evenodd" d="M14.433 7.396s-2.175-3.237-3.166-4.724a1 1 0 0 0-.223-.239A1.5 1.5 0 0 0 9.987 2h-.003a1.5 1.5 0 0 0-1.252.672c-.989 1.484-3.158 4.714-3.158 4.714-1.102 1.595-1.661 3.1-1.661 4.476C3.913 15.362 6.53 18 10 18s6.087-2.639 6.087-6.138c0-1.375-.56-2.88-1.654-4.466" clip-rule="evenodd"/></g><defs><clipPath id="a"><path fill="#fff" d="M0 0h20v20H0z"/></clipPath></defs></svg>