<svg width="20" height="20" viewBox="0 0 20 20" fill="none" xmlns="http://www.w3.org/2000/svg"><path d="M9.667 2.044 C 9.428 2.099,9.106 2.273,8.958 2.427 C 8.804 2.589,8.178 3.497,6.750 5.633 C 5.020 8.220,4.704 8.748,4.384 9.583 C 4.005 10.571,3.858 11.451,3.931 12.298 C 4.128 14.617,5.315 16.429,7.250 17.367 C 9.480 18.448,12.163 18.119,14.017 16.537 C 15.202 15.526,15.917 14.055,16.069 12.313 C 16.190 10.914,15.734 9.437,14.660 7.758 C 13.964 6.668,11.598 3.161,11.211 2.645 C 10.849 2.162,10.219 1.917,9.667 2.044 M10.709 5.442 C 11.855 7.139,12.978 8.832,13.200 9.200 C 13.582 9.832,13.905 10.621,14.004 11.167 C 14.069 11.521,14.061 12.407,13.990 12.769 C 13.673 14.379,12.495 15.572,10.878 15.919 C 10.511 15.997,9.488 15.997,9.120 15.918 C 7.513 15.574,6.360 14.414,6.012 12.793 C 5.969 12.590,5.953 12.362,5.952 11.933 C 5.950 11.285,5.984 11.079,6.190 10.483 C 6.428 9.795,6.685 9.343,7.741 7.756 C 9.161 5.621,9.968 4.433,10.000 4.433 C 10.015 4.433,10.334 4.887,10.709 5.442 " fill="#1A1C1F" stroke="none" fill-rule="evenodd"></path></svg>