<svg width="20" height="20" viewBox="0 0 20 20" fill="none" xmlns="http://www.w3.org/2000/svg"><path d="M9.667 2.044 C 9.428 2.098,9.107 2.272,8.958 2.427 C 8.762 2.630,6.173 6.452,5.283 7.850 C 4.572 8.968,4.123 10.068,3.980 11.044 C 3.939 11.328,3.930 11.569,3.942 12.066 C 3.959 12.753,4.005 13.092,4.156 13.633 C 4.819 16.017,6.797 17.678,9.317 17.965 C 10.724 18.126,12.271 17.752,13.438 16.971 C 14.850 16.026,15.718 14.630,16.021 12.817 C 16.097 12.361,16.097 11.460,16.021 11.033 C 15.827 9.945,15.394 8.901,14.667 7.767 C 13.943 6.637,11.594 3.156,11.211 2.645 C 10.849 2.162,10.219 1.917,9.667 2.044 " fill="#1A1C1F" stroke="none" fill-rule="evenodd"></path></svg>