<svg width="12" height="12" viewBox="0 0 12 12" fill="none" xmlns="http://www.w3.org/2000/svg"><path d="M5.800 1.227 C 5.658 1.258,5.465 1.363,5.375 1.456 C 5.283 1.553,4.912 2.091,4.050 3.380 C 3.169 4.697,3.026 4.923,2.850 5.270 C 2.599 5.766,2.450 6.202,2.388 6.627 C 2.363 6.797,2.358 6.941,2.365 7.240 C 2.379 7.780,2.446 8.119,2.633 8.586 C 3.050 9.630,3.964 10.414,5.080 10.687 C 6.282 10.981,7.528 10.689,8.436 9.900 C 9.197 9.240,9.648 8.212,9.647 7.140 C 9.647 6.791,9.625 6.617,9.536 6.270 C 9.426 5.844,9.214 5.339,8.978 4.945 C 8.770 4.599,7.219 2.275,6.832 1.730 C 6.644 1.466,6.565 1.390,6.393 1.308 C 6.171 1.203,6.011 1.181,5.800 1.227 " fill="#1A1C1F" stroke="none" fill-rule="evenodd"></path></svg>