<svg xmlns="http://www.w3.org/2000/svg" width="20" height="20" fill="none"><g clip-path="url(#a)"><path fill="#1A1C1F" fill-rule="evenodd" d="M10 18c-3.47 0-6.086-2.64-6.086-6.139 0-1.375.56-2.881 1.66-4.475 0 0 2.17-3.23 3.159-4.714.28-.42.747-.67 1.25-.672h.004c.4 0 .777.158 1.057.433q.128.098.223.239c.99 1.487 3.165 4.724 3.165 4.724 1.095 1.585 1.654 3.09 1.654 4.466 0 3.5-2.616 6.137-6.086 6.137m0-13.624C8.92 5.992 7.227 8.51 7.227 8.51c-.874 1.265-1.314 2.388-1.314 3.35 0 2.398 1.719 4.138 4.086 4.138s4.087-1.74 4.087-4.138c0-.962-.44-2.085-1.306-3.34-.006-.01-1.7-2.53-2.78-4.145" clip-rule="evenodd"/></g><defs><clipPath id="a"><path fill="#fff" d="M0 0h20v20H0z"/></clipPath></defs></svg>