<svg width="16" height="16" viewBox="0 0 16 16" fill="none" xmlns="http://www.w3.org/2000/svg"><path d="M7.733 1.635 C 7.542 1.679,7.285 1.818,7.167 1.942 C 7.115 1.996,6.907 2.280,6.704 2.573 C 6.216 3.281,4.526 5.809,4.227 6.280 C 3.659 7.173,3.298 8.057,3.184 8.836 C 3.130 9.206,3.144 10.049,3.210 10.413 C 3.303 10.918,3.512 11.530,3.724 11.915 C 4.173 12.729,4.849 13.397,5.654 13.823 C 7.100 14.589,8.900 14.589,10.346 13.823 C 11.597 13.161,12.451 12.000,12.775 10.520 C 12.822 10.305,12.835 10.136,12.846 9.651 C 12.858 9.111,12.853 9.017,12.801 8.748 C 12.689 8.161,12.470 7.544,12.153 6.922 C 12.045 6.708,11.553 5.945,10.691 4.653 C 9.006 2.128,8.896 1.973,8.689 1.839 C 8.376 1.637,8.038 1.565,7.733 1.635 " fill="#1A1C1F" stroke="none" fill-rule="evenodd"></path></svg>