<svg xmlns="http://www.w3.org/2000/svg" width="24" height="24" fill="none"><g clip-path="url(#a)"><path fill="#1A1C1F" fill-rule="evenodd" d="M12.001 2c.55 0 1.061.272 1.37.73.426.64 1.02 1.528 1.623 2.428l.279.415 2.123 3.165.042.063c1.382 1.999 2.083 3.88 2.083 5.59 0 4.338-3.226 7.609-7.503 7.609-4.298 0-7.539-3.27-7.539-7.607 0-1.614.626-3.382 1.86-5.26l.225-.332.005-.009.042-.062.081-.12.117-.174c.597-.89 2.162-3.221 3.263-4.869l.237-.354.319-.477c.306-.46.818-.735 1.37-.736zm0 2.275A3268 3268 0 0 1 8.45 9.573l-.113.167-.124.185c-1.155 1.673-1.738 3.173-1.738 4.468 0 3.252 2.332 5.61 5.543 5.61 3.192 0 5.507-2.36 5.507-5.613 0-1.295-.582-2.795-1.73-4.457l-2.25-3.353-.273-.408c-.455-.678-.901-1.344-1.27-1.897" clip-rule="evenodd"/></g><defs><clipPath id="a"><path fill="#fff" d="M0 0h24v24H0z"/></clipPath></defs></svg>