<svg width="14" height="14" viewBox="0 0 14 14" fill="none" xmlns="http://www.w3.org/2000/svg"><path d="M6.767 1.432 C 6.601 1.468,6.375 1.590,6.271 1.699 C 6.163 1.812,5.727 2.445,4.725 3.943 C 3.699 5.478,3.531 5.742,3.324 6.148 C 3.033 6.721,2.860 7.231,2.786 7.731 C 2.738 8.062,2.751 8.792,2.811 9.123 C 3.049 10.426,3.820 11.499,4.948 12.095 C 6.213 12.765,7.787 12.765,9.052 12.095 C 10.422 11.371,11.258 9.936,11.255 8.318 C 11.254 7.919,11.222 7.680,11.114 7.268 C 10.988 6.789,10.735 6.204,10.445 5.722 C 10.197 5.310,8.420 2.651,7.971 2.019 C 7.752 1.711,7.659 1.621,7.459 1.526 C 7.199 1.404,7.013 1.378,6.767 1.432 " fill="#1A1C1F" stroke="none" fill-rule="evenodd"></path></svg>