<svg xmlns="http://www.w3.org/2000/svg" width="12" height="12" fill="none"><g clip-path="url(#a)"><path fill="#1A1C1F" fill-rule="evenodd" d="M6 10.8c-2.082 0-3.652-1.584-3.652-3.683 0-.825.336-1.729.997-2.686 0 0 1.301-1.937 1.895-2.828a.9.9 0 0 1 .75-.403h.002c.24 0 .467.095.634.26a.6.6 0 0 1 .134.143c.595.892 1.9 2.835 1.9 2.835.656.95.992 1.854.992 2.68 0 2.1-1.57 3.682-3.652 3.682m0-8.175c-.648.97-1.664 2.482-1.664 2.482-.524.758-.788 1.433-.788 2.01C3.548 8.554 4.579 9.6 6 9.6c1.42 0 2.452-1.045 2.452-2.484 0-.576-.264-1.25-.784-2.003C7.664 5.107 6.648 3.595 6 2.625" clip-rule="evenodd"/></g><defs><clipPath id="a"><path fill="#fff" d="M0 0h12v12H0z"/></clipPath></defs></svg>