<svg width="28" height="28" viewBox="0 0 28 28" fill="none" xmlns="http://www.w3.org/2000/svg"><path d="M13.580 1.814 C 13.304 1.874,13.053 2.018,12.833 2.240 C 12.595 2.482,11.938 3.436,9.543 7.023 C 6.607 11.422,6.238 12.018,5.765 13.132 C 4.767 15.482,4.618 17.509,5.274 19.798 C 5.544 20.740,5.905 21.524,6.432 22.312 C 7.865 24.454,10.184 25.845,12.879 26.178 C 13.461 26.250,14.710 26.238,15.317 26.154 C 19.345 25.601,22.317 22.682,23.006 18.601 C 23.085 18.131,23.106 17.815,23.106 17.111 C 23.104 15.847,22.955 15.060,22.458 13.697 C 22.146 12.841,21.188 11.032,20.761 10.493 C 20.092 9.649,18.831 10.356,19.272 11.328 C 19.322 11.437,19.518 11.784,19.708 12.098 C 20.997 14.226,21.494 15.969,21.329 17.780 C 21.157 19.650,20.472 21.159,19.229 22.403 C 18.197 23.436,17.032 24.052,15.528 24.360 C 15.074 24.453,14.929 24.460,13.827 24.441 C 12.657 24.422,12.609 24.417,12.110 24.278 C 11.433 24.089,10.978 23.922,10.523 23.696 C 8.659 22.768,7.314 21.014,6.843 18.896 C 6.411 16.955,6.677 15.134,7.678 13.183 C 8.031 12.495,8.528 11.713,10.732 8.377 C 11.801 6.760,12.944 5.022,13.272 4.515 C 13.600 4.008,13.885 3.583,13.905 3.571 C 13.951 3.543,14.398 4.174,15.750 6.172 C 16.336 7.038,16.912 7.866,17.029 8.011 C 17.276 8.315,17.495 8.417,17.836 8.387 C 18.234 8.352,18.582 7.959,18.592 7.535 C 18.598 7.299,18.485 7.108,17.227 5.227 C 15.323 2.380,15.140 2.138,14.731 1.938 C 14.465 1.808,13.890 1.746,13.580 1.814 " fill="#1A1C1F" stroke="none" fill-rule="evenodd"></path></svg>