<svg xmlns="http://www.w3.org/2000/svg" width="16" height="16" fill="none"><g clip-path="url(#a)"><path fill="#1A1C1F" fill-rule="evenodd" d="M11.546 5.917s-1.74-2.59-2.532-3.78a.8.8 0 0 0-.179-.19A1.2 1.2 0 0 0 7.99 1.6h-.003a1.2 1.2 0 0 0-1.001.538c-.792 1.187-2.527 3.77-2.527 3.77C3.578 7.186 3.13 8.39 3.13 9.49c0 2.8 2.094 4.911 4.87 4.911s4.87-2.111 4.87-4.91c0-1.1-.448-2.305-1.324-3.573" clip-rule="evenodd"/></g><defs><clipPath id="a"><path fill="#fff" d="M0 0h16v16H0z"/></clipPath></defs></svg>