<svg xmlns="http://www.w3.org/2000/svg" width="32" height="32" fill="none"><g clip-path="url(#a)"><path fill="#1A1C1F" fill-rule="evenodd" d="M27.003 23c.512 0 .997.416 1 1q.003.75 0 1.5c0 1.326-1.063 2.5-2.5 2.5q-9.5.003-19 0a2.516 2.516 0 0 1-2.5-2.5q-.003-.75 0-1.5a1 1 0 1 1 2 0q.003.75 0 1.5c0 .246.182.5.5.5q9.496.004 19 0c.245 0 .498-.2.5-.5q.003-.75 0-1.5a1 1 0 0 1 1-1m-4.992-.5a1 1 0 1 1 0 2 1 1 0 0 1 0-2m-12 0a1 1 0 1 1 0 2 1 1 0 0 1 0-2m6 0a1 1 0 1 1 0 2 1 1 0 0 1 0-2m-.856-18.03c.392-.63 1.247-.63 1.696 0a4547 4547 0 0 1 4.47 7.153l7.152-4.47c.672-.42 1.64.077 1.514 1.026a422 422 0 0 0-1.777 10.769A2.5 2.5 0 0 1 25.75 21q-9.747.003-19.496 0c-1.15 0-2.251-.811-2.46-2.053A353 353 0 0 1 2.02 8.18c-.149-.817.74-1.5 1.514-1.027q3.578 2.232 7.15 4.469zm.848 2.418L11.85 13.53a1 1 0 0 1-1.276.374l-.102-.056-6.082-3.801 1.372 8.542a.5.5 0 0 0 .319.38l.084.023.088.008h19.497a.5.5 0 0 0 .468-.325l.024-.086 1.372-8.544-6.082 3.803a1 1 0 0 1-1.228-.131l-.083-.092-.067-.095z" clip-rule="evenodd"/></g><defs><clipPath id="a"><path fill="#fff" d="M0 0h32v32H0z"/></clipPath></defs></svg>