<svg xmlns="http://www.w3.org/2000/svg" width="16" height="16" fill="none"><g clip-path="url(#a)"><path fill="#1A1C1F" fill-rule="evenodd" d="M12.4 12.8a.8.8 0 0 1 0 1.6H3.6a.8.8 0 0 1-.8-.8c0-.41.342-.8.8-.8zM7.283 2.042a.8.8 0 0 1 1.38-.088l1.645 3.277 2.847-1.897c.55-.366 1.327.07 1.239.753q-.74 3.381-1.615 7.287a.8.8 0 0 1-.688.62L3.999 12a.8.8 0 0 1-.755-.537l-1.626-7.29c-.15-.674.562-1.194 1.15-.884l2.92 1.942zm.715 2.147L6.715 6.758a.8.8 0 0 1-1.078.356L3.612 5.77l1.029 4.63h6.716l1.029-4.63-1.943 1.296c-.347.231-.888.16-1.112-.226q-.636-1.26-1.332-2.651" clip-rule="evenodd"/></g><defs><clipPath id="a"><path fill="#fff" d="M0 0h16v16H0z"/></clipPath></defs></svg>