<svg width="20" height="20" viewBox="0 0 20 20" fill="none" xmlns="http://www.w3.org/2000/svg"><path d="M9.800 2.030 C 9.619 2.068,9.430 2.170,9.301 2.299 C 9.217 2.384,8.894 2.992,8.156 4.458 C 7.592 5.581,7.114 6.500,7.095 6.500 C 7.076 6.500,6.376 6.047,5.539 5.493 C 3.292 4.007,3.225 3.970,2.891 4.015 C 2.465 4.071,2.121 4.377,2.031 4.781 C 1.979 5.012,1.995 5.090,2.938 9.333 C 3.739 12.939,4.020 14.139,4.135 14.447 C 4.214 14.657,4.431 14.864,4.650 14.936 C 4.758 14.972,5.786 14.983,9.997 14.992 L 15.210 15.003 15.393 14.913 C 15.605 14.810,15.819 14.609,15.884 14.453 C 15.952 14.292,16.217 13.141,17.029 9.483 C 17.936 5.396,18.012 5.027,17.987 4.838 C 17.929 4.413,17.543 4.070,17.059 4.013 C 16.749 3.977,16.809 3.942,14.546 5.439 C 13.663 6.023,12.924 6.500,12.904 6.500 C 12.884 6.500,12.516 5.799,12.087 4.942 C 11.243 3.254,10.790 2.384,10.708 2.291 C 10.621 2.194,10.262 2.039,10.083 2.022 C 9.992 2.013,9.864 2.017,9.800 2.030 M10.729 6.692 C 11.675 8.563,11.741 8.681,11.908 8.802 C 12.102 8.942,12.366 9.013,12.596 8.986 C 12.828 8.959,12.981 8.874,13.935 8.242 C 14.797 7.671,15.423 7.267,15.445 7.267 C 15.453 7.267,15.430 7.405,15.394 7.575 C 15.310 7.968,14.237 12.825,14.212 12.925 L 14.193 13.000 10.000 13.000 L 5.807 13.000 5.787 12.918 C 5.761 12.815,4.695 7.993,4.606 7.575 C 4.570 7.405,4.546 7.267,4.554 7.267 C 4.576 7.267,4.784 7.400,5.800 8.066 C 7.338 9.074,7.340 9.075,7.790 8.939 C 8.212 8.810,8.188 8.848,9.332 6.575 C 9.684 5.874,9.985 5.300,9.999 5.300 C 10.014 5.300,10.342 5.926,10.729 6.692 M4.617 16.029 C 4.261 16.047,4.158 16.064,4.044 16.125 C 3.861 16.222,3.687 16.403,3.593 16.596 C 3.485 16.814,3.487 17.185,3.597 17.410 C 3.710 17.641,3.932 17.849,4.154 17.932 L 4.340 18.002 10.045 17.992 C 15.309 17.984,15.759 17.979,15.867 17.927 C 16.170 17.782,16.361 17.561,16.450 17.254 C 16.584 16.795,16.377 16.341,15.931 16.115 L 15.763 16.031 10.407 16.019 C 7.461 16.012,4.855 16.017,4.617 16.029 " fill="#1A1C1F" stroke="none" fill-rule="evenodd"></path></svg>