<svg width="32" height="32" viewBox="0 0 32 32" fill="none" xmlns="http://www.w3.org/2000/svg"><path d="M15.707 4.071 C 15.286 4.235,15.411 4.061,13.344 7.360 C 11.672 10.029,11.004 11.074,10.797 11.346 L 10.626 11.572 9.086 10.622 C 8.240 10.099,6.863 9.244,6.027 8.721 C 4.147 7.544,3.311 7.063,3.070 7.017 C 2.930 6.991,2.822 7.014,2.629 7.113 C 2.190 7.336,2.027 7.587,2.027 8.036 C 2.027 8.832,3.703 18.777,3.948 19.430 C 4.154 19.981,4.665 20.511,5.248 20.778 C 5.503 20.894,5.672 20.926,6.257 20.963 C 7.182 21.023,25.262 21.023,25.929 20.963 C 26.595 20.904,27.032 20.701,27.499 20.235 C 28.042 19.694,28.119 19.479,28.403 17.707 C 28.537 16.871,28.945 14.387,29.310 12.187 C 29.675 9.987,29.973 8.090,29.973 7.971 C 29.973 7.641,29.777 7.307,29.498 7.162 C 29.146 6.979,28.858 6.999,28.432 7.236 C 27.971 7.492,25.856 8.792,23.347 10.362 L 21.333 11.621 21.141 11.321 C 21.035 11.156,20.167 9.771,19.212 8.244 C 16.635 4.123,16.745 4.286,16.413 4.131 C 16.107 3.989,15.950 3.975,15.707 4.071 M17.740 9.682 C 18.661 11.148,19.634 12.676,19.904 13.078 C 20.445 13.887,20.556 13.973,21.060 13.973 C 21.305 13.973,21.431 13.903,23.472 12.632 C 24.657 11.895,26.059 11.022,26.587 10.694 C 27.115 10.365,27.554 10.114,27.562 10.135 C 27.588 10.198,26.372 17.828,26.239 18.438 C 26.206 18.591,26.131 18.777,26.072 18.851 L 25.966 18.987 16.249 18.983 C 10.906 18.981,6.406 18.961,6.251 18.939 C 6.096 18.917,5.931 18.860,5.884 18.813 C 5.783 18.712,5.762 18.598,5.071 14.213 C 4.420 10.090,4.434 10.187,4.488 10.187 C 4.554 10.187,5.540 10.778,7.333 11.893 C 9.475 13.224,10.530 13.859,10.751 13.952 C 10.945 14.033,11.105 14.017,11.422 13.884 C 11.657 13.785,12.032 13.229,14.294 9.627 C 16.115 6.728,15.951 6.979,16.014 7.000 C 16.043 7.010,16.820 8.217,17.740 9.682 M9.627 22.591 C 9.264 22.779,9.017 23.156,9.015 23.522 C 9.013 23.780,9.216 24.161,9.431 24.304 C 9.637 24.441,9.999 24.507,10.267 24.457 C 10.694 24.377,11.024 23.869,10.975 23.368 C 10.942 23.024,10.770 22.792,10.432 22.634 C 10.116 22.487,9.853 22.473,9.627 22.591 M15.729 22.558 C 15.198 22.718,14.897 23.348,15.097 23.877 C 15.277 24.351,15.912 24.607,16.403 24.402 C 16.863 24.210,17.113 23.637,16.938 23.178 C 16.751 22.688,16.211 22.411,15.729 22.558 M21.627 22.591 C 21.264 22.779,21.017 23.156,21.015 23.522 C 21.013 23.780,21.216 24.161,21.431 24.304 C 21.637 24.441,21.999 24.507,22.267 24.457 C 22.694 24.377,23.024 23.869,22.975 23.368 C 22.942 23.024,22.770 22.792,22.432 22.634 C 22.116 22.487,21.853 22.473,21.627 22.591 M4.726 23.057 C 4.463 23.121,4.132 23.447,4.057 23.717 C 3.988 23.966,3.984 25.447,4.051 25.913 C 4.078 26.100,4.166 26.388,4.246 26.553 C 4.454 26.982,5.050 27.561,5.519 27.791 L 5.891 27.973 15.519 27.988 C 21.167 27.996,25.371 27.982,25.690 27.952 C 26.289 27.898,26.580 27.784,27.073 27.412 C 27.402 27.165,27.753 26.657,27.880 26.247 C 28.018 25.803,28.017 23.787,27.880 23.536 C 27.506 22.852,26.463 22.888,26.094 23.599 C 26.033 23.716,26.001 24.023,25.971 24.765 C 25.939 25.565,25.914 25.789,25.848 25.854 C 25.792 25.911,25.599 25.951,25.243 25.979 C 24.569 26.034,7.510 26.034,6.785 25.980 C 6.389 25.950,6.211 25.914,6.148 25.851 C 6.077 25.780,6.055 25.588,6.026 24.789 C 5.985 23.666,5.914 23.411,5.586 23.208 C 5.342 23.057,4.986 22.995,4.726 23.057 " fill="#1A1C1F" stroke="none" fill-rule="evenodd"></path></svg>