<svg width="12" height="12" viewBox="0 0 12 12" fill="none" xmlns="http://www.w3.org/2000/svg"><path d="M5.880 1.219 C 5.773 1.240,5.659 1.301,5.581 1.379 C 5.530 1.430,5.336 1.795,4.894 2.675 C 4.555 3.349,4.269 3.900,4.258 3.900 C 4.247 3.900,3.827 3.628,3.324 3.296 C 1.968 2.401,1.935 2.382,1.735 2.409 C 1.479 2.443,1.273 2.626,1.219 2.868 C 1.188 3.007,1.196 3.052,1.762 5.600 C 2.240 7.752,2.411 8.481,2.481 8.669 C 2.522 8.777,2.615 8.876,2.736 8.938 C 2.836 8.990,3.338 8.999,6.181 9.000 L 9.132 9.000 9.240 8.946 C 9.367 8.883,9.492 8.764,9.532 8.668 C 9.572 8.572,9.718 7.937,10.199 5.772 C 10.655 3.718,10.800 3.033,10.800 2.932 C 10.800 2.836,10.691 2.632,10.600 2.560 C 10.491 2.474,10.353 2.417,10.222 2.406 C 10.119 2.396,10.096 2.403,9.940 2.483 C 9.847 2.531,9.319 2.870,8.767 3.235 C 8.216 3.601,7.754 3.900,7.742 3.900 C 7.730 3.900,7.510 3.479,7.252 2.965 C 6.746 1.952,6.474 1.430,6.425 1.375 C 6.332 1.271,6.039 1.187,5.880 1.219 M6.458 4.055 C 7.016 5.161,7.042 5.207,7.145 5.281 C 7.257 5.362,7.420 5.408,7.547 5.393 C 7.689 5.376,7.795 5.319,8.302 4.984 C 8.884 4.599,9.255 4.360,9.267 4.360 C 9.272 4.360,9.273 4.376,9.268 4.395 C 9.264 4.414,9.098 5.168,8.899 6.070 C 8.700 6.972,8.533 7.730,8.527 7.755 L 8.516 7.800 6.000 7.800 L 3.484 7.800 3.472 7.751 C 3.457 7.689,2.817 4.796,2.764 4.545 C 2.742 4.443,2.728 4.360,2.732 4.360 C 2.746 4.360,2.875 4.443,3.450 4.821 C 4.386 5.436,4.390 5.438,4.640 5.372 C 4.807 5.329,4.906 5.263,4.980 5.145 C 5.012 5.093,5.252 4.629,5.512 4.115 C 5.772 3.601,5.992 3.180,6.000 3.180 C 6.009 3.180,6.215 3.574,6.458 4.055 M2.770 9.617 C 2.556 9.628,2.495 9.639,2.426 9.675 C 2.317 9.733,2.212 9.842,2.156 9.957 C 2.091 10.088,2.092 10.311,2.158 10.445 C 2.224 10.580,2.364 10.711,2.495 10.760 C 2.604 10.801,2.623 10.801,6.027 10.795 L 9.450 10.790 9.543 10.744 C 9.762 10.635,9.890 10.429,9.889 10.190 C 9.887 9.954,9.776 9.779,9.560 9.670 L 9.460 9.620 6.245 9.612 C 4.477 9.607,2.913 9.610,2.770 9.617 " fill="#1A1C1F" stroke="none" fill-rule="evenodd"></path></svg>