<svg width="28" height="28" viewBox="0 0 28 28" fill="none" xmlns="http://www.w3.org/2000/svg"><path d="M13.743 3.557 C 13.666 3.584,13.547 3.646,13.478 3.694 C 13.365 3.773,12.569 5.001,10.950 7.595 C 10.121 8.922,9.622 9.697,9.448 9.926 L 9.300 10.123 8.628 9.713 C 8.259 9.488,7.012 8.714,5.857 7.995 C 3.549 6.557,3.011 6.241,2.727 6.159 C 2.555 6.109,2.514 6.115,2.307 6.220 C 1.926 6.414,1.773 6.638,1.773 7.003 C 1.773 7.484,2.866 14.250,3.264 16.230 C 3.344 16.631,3.450 17.004,3.527 17.164 C 3.703 17.524,4.146 17.959,4.530 18.147 C 4.811 18.285,4.891 18.301,5.510 18.341 C 6.348 18.395,22.013 18.397,22.663 18.343 C 23.265 18.293,23.633 18.126,24.056 17.709 C 24.537 17.235,24.603 17.051,24.852 15.493 C 24.969 14.762,25.326 12.588,25.646 10.662 C 25.965 8.737,26.227 7.085,26.227 6.991 C 26.227 6.765,26.156 6.587,26.002 6.424 C 25.695 6.099,25.346 6.071,24.878 6.331 C 24.474 6.556,22.624 7.693,20.428 9.067 L 18.666 10.168 18.498 9.906 C 18.406 9.761,17.646 8.550,16.810 7.213 C 14.555 3.608,14.652 3.750,14.361 3.615 C 14.098 3.492,13.962 3.479,13.743 3.557 M15.477 8.402 C 16.258 9.646,17.110 10.983,17.370 11.373 C 17.893 12.158,17.978 12.227,18.428 12.227 C 18.642 12.227,18.752 12.165,20.538 11.053 C 21.575 10.408,22.801 9.645,23.263 9.357 C 23.725 9.069,24.109 8.849,24.117 8.868 C 24.139 8.923,23.076 15.593,22.959 16.133 C 22.930 16.267,22.864 16.430,22.813 16.495 L 22.720 16.613 14.218 16.610 C 9.542 16.608,5.606 16.591,5.470 16.571 C 5.334 16.552,5.189 16.503,5.148 16.462 C 5.060 16.373,5.042 16.274,4.437 12.437 C 3.868 8.829,3.880 8.913,3.927 8.913 C 3.984 8.913,4.847 9.431,6.417 10.406 C 8.291 11.571,9.214 12.127,9.407 12.208 C 9.577 12.279,9.717 12.265,9.994 12.148 C 10.200 12.062,10.528 11.576,12.508 8.423 C 14.099 5.889,13.957 6.107,14.011 6.125 C 14.036 6.133,14.695 7.158,15.477 8.402 M8.423 19.759 C 8.134 19.889,7.887 20.272,7.887 20.592 C 7.887 20.809,8.068 21.143,8.252 21.266 C 8.432 21.386,8.749 21.444,8.984 21.400 C 9.357 21.330,9.646 20.886,9.603 20.447 C 9.575 20.146,9.424 19.943,9.128 19.805 C 8.862 19.681,8.632 19.666,8.423 19.759 M13.635 19.793 C 13.266 19.976,13.072 20.419,13.188 20.811 C 13.329 21.288,13.885 21.547,14.352 21.352 C 14.755 21.184,14.974 20.683,14.821 20.281 C 14.689 19.936,14.332 19.694,13.953 19.694 C 13.889 19.694,13.746 19.738,13.635 19.793 M18.923 19.759 C 18.634 19.889,18.387 20.272,18.387 20.592 C 18.387 20.809,18.568 21.143,18.752 21.266 C 18.932 21.386,19.249 21.444,19.484 21.400 C 19.857 21.330,20.146 20.886,20.103 20.447 C 20.075 20.146,19.924 19.943,19.628 19.805 C 19.362 19.681,19.132 19.666,18.923 19.759 M4.136 20.175 C 3.905 20.231,3.615 20.516,3.550 20.752 C 3.489 20.970,3.486 22.266,3.545 22.674 C 3.568 22.837,3.645 23.089,3.715 23.234 C 3.898 23.609,4.419 24.116,4.829 24.317 L 5.155 24.477 13.579 24.489 C 18.521 24.497,22.200 24.484,22.478 24.458 C 23.003 24.410,23.258 24.311,23.689 23.986 C 23.977 23.769,24.284 23.325,24.395 22.966 C 24.516 22.578,24.515 20.814,24.395 20.594 C 24.068 19.995,23.155 20.027,22.832 20.649 C 22.779 20.751,22.751 21.020,22.725 21.669 C 22.697 22.372,22.675 22.565,22.617 22.623 C 22.566 22.674,22.399 22.707,22.064 22.732 C 21.437 22.779,6.563 22.779,5.936 22.732 C 5.590 22.706,5.435 22.675,5.380 22.620 C 5.317 22.557,5.298 22.390,5.272 21.690 C 5.237 20.707,5.175 20.484,4.888 20.307 C 4.674 20.175,4.363 20.120,4.136 20.175 " fill="#1A1C1F" stroke="none" fill-rule="evenodd"></path></svg>