<svg xmlns="http://www.w3.org/2000/svg" width="28" height="28" fill="none"><g clip-path="url(#a)"><path fill="#1A1C1F" fill-rule="evenodd" d="M23.627 20.126a.88.88 0 0 1 .875.874q.003.656 0 1.313c0 1.16-.93 2.187-2.187 2.188H5.69a2.2 2.2 0 0 1-2.188-2.188v-1.312a.875.875 0 0 1 1.75 0q.003.655 0 1.312c0 .215.16.437.438.438q8.309.003 16.625 0a.44.44 0 0 0 .437-.438q.004-.656 0-1.312c0-.484.392-.876.875-.876m-4.367-.438a.875.875 0 1 1 0 1.75.875.875 0 0 1 0-1.75m-10.5 0a.875.875 0 1 1 0 1.75.875.875 0 0 1 0-1.75m5.25 0a.875.875 0 1 1 0 1.75.875.875 0 0 1 0-1.75m-.75-15.776c.344-.551 1.092-.551 1.484 0a4063 4063 0 0 1 3.912 6.258l6.258-3.911a.876.876 0 0 1 1.324.898q-.767 4.275-1.554 9.422a2.19 2.19 0 0 1-2.152 1.796q-8.53.003-17.06 0c-1.006 0-1.97-.709-2.152-1.796q-.78-4.274-1.554-9.422c-.13-.715.649-1.312 1.325-.898q3.13 1.953 6.257 3.91zm.742 2.115-3.633 5.812a.875.875 0 0 1-1.116.328l-.09-.05-5.321-3.325 1.2 7.474c.029.156.138.28.28.333l.073.02.078.006h17.059a.44.44 0 0 0 .41-.284l.02-.075 1.2-7.476-5.321 3.328a.875.875 0 0 1-1.074-.115l-.073-.08-.059-.084z" clip-rule="evenodd"/></g><defs><clipPath id="a"><path fill="#fff" d="M0 0h28v28H0z"/></clipPath></defs></svg>