<svg width="16" height="16" viewBox="0 0 16 16" fill="none" xmlns="http://www.w3.org/2000/svg"><path d="M7.840 1.624 C 7.695 1.654,7.544 1.736,7.441 1.839 C 7.372 1.908,7.117 2.389,6.525 3.567 C 6.073 4.465,5.692 5.200,5.677 5.200 C 5.662 5.200,5.102 4.838,4.432 4.395 C 2.630 3.204,2.580 3.176,2.313 3.212 C 1.972 3.257,1.697 3.502,1.625 3.824 C 1.583 4.009,1.598 4.081,2.324 7.347 C 3.245 11.491,3.274 11.605,3.444 11.766 C 3.604 11.919,3.681 11.947,4.008 11.974 C 4.173 11.988,6.066 11.999,8.241 12.000 L 12.176 12.000 12.320 11.929 C 12.489 11.844,12.656 11.685,12.709 11.558 C 12.763 11.429,12.954 10.600,13.623 7.585 C 14.350 4.313,14.410 4.021,14.389 3.870 C 14.343 3.530,14.035 3.256,13.647 3.211 C 13.399 3.182,13.342 3.215,11.402 4.504 L 10.311 5.229 9.534 3.688 C 8.653 1.940,8.610 1.860,8.505 1.786 C 8.316 1.651,8.037 1.583,7.840 1.624 M8.610 5.407 C 9.357 6.885,9.390 6.943,9.526 7.042 C 9.681 7.154,9.893 7.211,10.077 7.189 C 10.262 7.167,10.385 7.099,11.148 6.593 C 11.838 6.137,12.338 5.813,12.356 5.813 C 12.362 5.813,12.344 5.924,12.315 6.060 C 12.251 6.360,11.390 10.256,11.369 10.340 L 11.354 10.400 8.000 10.400 L 4.646 10.400 4.630 10.335 C 4.612 10.267,3.845 6.795,3.712 6.187 C 3.669 5.989,3.637 5.823,3.641 5.818 C 3.651 5.807,3.753 5.872,4.640 6.453 C 5.870 7.259,5.872 7.260,6.232 7.151 C 6.570 7.048,6.547 7.084,7.478 5.233 C 7.754 4.687,7.988 4.240,7.999 4.240 C 8.011 4.240,8.285 4.765,8.610 5.407 M3.693 12.823 C 3.408 12.838,3.327 12.851,3.235 12.900 C 3.089 12.978,2.950 13.123,2.874 13.277 C 2.788 13.451,2.790 13.748,2.877 13.927 C 2.966 14.107,3.152 14.282,3.327 14.347 C 3.472 14.401,3.496 14.401,8.036 14.394 L 12.600 14.387 12.725 14.325 C 13.016 14.180,13.187 13.905,13.185 13.587 C 13.182 13.271,13.035 13.039,12.742 12.891 L 12.607 12.822 8.323 12.814 C 5.967 12.809,3.884 12.813,3.693 12.823 " fill="#1A1C1F" stroke="none" fill-rule="evenodd"></path></svg>