<svg width="14" height="14" viewBox="0 0 14 14" fill="none" xmlns="http://www.w3.org/2000/svg"><path d="M6.860 1.421 C 6.733 1.447,6.601 1.519,6.510 1.610 C 6.451 1.669,6.228 2.090,5.709 3.121 C 5.314 3.907,4.980 4.550,4.968 4.550 C 4.955 4.550,4.464 4.233,3.878 3.846 C 2.299 2.802,2.257 2.779,2.024 2.810 C 1.726 2.850,1.485 3.064,1.422 3.346 C 1.385 3.508,1.396 3.560,2.056 6.533 C 2.613 9.041,2.813 9.894,2.894 10.113 C 2.950 10.260,3.102 10.405,3.255 10.455 C 3.330 10.480,4.051 10.488,6.998 10.494 L 10.647 10.502 10.775 10.439 C 10.925 10.366,11.074 10.226,11.120 10.114 C 11.173 9.989,11.468 8.697,12.107 5.798 C 12.464 4.183,12.600 3.525,12.600 3.420 C 12.600 3.308,12.472 3.070,12.367 2.987 C 12.243 2.889,12.096 2.828,11.941 2.809 C 11.724 2.784,11.674 2.813,9.977 3.941 L 9.022 4.575 8.342 3.227 C 7.572 1.698,7.534 1.628,7.442 1.562 C 7.276 1.444,7.032 1.385,6.860 1.421 M7.511 4.684 C 8.170 5.990,8.219 6.077,8.336 6.162 C 8.545 6.313,8.807 6.334,9.043 6.219 C 9.109 6.186,9.417 5.992,9.726 5.788 C 10.380 5.356,10.796 5.087,10.811 5.087 C 10.817 5.087,10.818 5.105,10.813 5.128 C 10.808 5.150,10.614 6.029,10.382 7.082 C 10.151 8.134,9.955 9.019,9.948 9.048 L 9.935 9.100 6.999 9.100 L 4.064 9.100 4.025 8.931 C 4.004 8.838,3.809 7.953,3.591 6.965 C 3.374 5.977,3.192 5.150,3.187 5.128 C 3.182 5.105,3.182 5.087,3.188 5.087 C 3.203 5.087,3.346 5.178,4.060 5.646 C 5.136 6.352,5.138 6.353,5.453 6.257 C 5.749 6.167,5.732 6.194,6.532 4.603 C 6.779 4.112,6.990 3.710,7.000 3.710 C 7.010 3.710,7.240 4.148,7.511 4.684 M3.243 11.220 C 2.890 11.237,2.804 11.267,2.646 11.427 C 2.514 11.562,2.463 11.694,2.463 11.900 C 2.463 12.038,2.476 12.100,2.520 12.192 C 2.598 12.352,2.751 12.494,2.908 12.552 L 3.038 12.601 7.032 12.595 L 11.025 12.588 11.134 12.534 C 11.389 12.407,11.539 12.167,11.537 11.888 C 11.534 11.613,11.405 11.409,11.151 11.280 L 11.033 11.221 7.296 11.213 C 5.240 11.208,3.417 11.212,3.243 11.220 " fill="#1A1C1F" stroke="none" fill-rule="evenodd"></path></svg>