<svg xmlns="http://www.w3.org/2000/svg" width="12" height="12" fill="none"><g clip-path="url(#a)"><path fill="#1A1C1F" fill-rule="evenodd" d="M9.3 9.6a.6.6 0 1 1 0 1.2H2.7a.6.6 0 0 1-.6-.6c0-.308.256-.6.6-.6zM5.462 1.532a.6.6 0 0 1 1.035-.067l1.234 2.458 2.135-1.422c.412-.275.995.052.93.564Q10.24 5.6 9.584 8.53a.6.6 0 0 1-.516.466L2.999 9a.6.6 0 0 1-.566-.403L1.213 3.13a.6.6 0 0 1 .862-.663l2.192 1.456zm.536 1.61-.963 1.926a.6.6 0 0 1-.808.267L2.709 4.328l.772 3.471h5.037l.771-3.471-1.457.971c-.26.174-.666.12-.834-.169Q6.521 4.185 6 3.142" clip-rule="evenodd"/></g><defs><clipPath id="a"><path fill="#fff" d="M0 0h12v12H0z"/></clipPath></defs></svg>