<svg xmlns="http://www.w3.org/2000/svg" width="20" height="20" fill="none"><g clip-path="url(#a)"><path fill="#1A1C1F" fill-rule="evenodd" d="M15.5 16a1 1 0 0 1 0 2h-11a1 1 0 0 1-1-1c0-.513.427-1 1-1zM9.104 2.553a1 1 0 0 1 1.725-.11l2.056 4.096 3.558-2.371c.688-.458 1.66.087 1.55.94q-.926 4.227-2.019 9.109a1 1 0 0 1-.86.776L4.999 15a1 1 0 0 1-.944-.672L2.023 5.217c-.187-.843.702-1.493 1.436-1.105l3.652 2.427zm.894 2.683L8.394 8.447a1 1 0 0 1-1.347.445L4.515 7.213l1.286 5.786h8.395l1.286-5.786-2.428 1.62c-.434.288-1.11.199-1.39-.283a872 872 0 0 1-1.665-3.314" clip-rule="evenodd"/></g><defs><clipPath id="a"><path fill="#fff" d="M0 0h20v20H0z"/></clipPath></defs></svg>