<svg xmlns="http://www.w3.org/2000/svg" width="24" height="24" fill="none"><g clip-path="url(#a)"><path fill="#1A1C1F" fill-rule="evenodd" d="M19.5 20a1 1 0 0 1 1 1c0 .513-.45 1-1 1h-15a1 1 0 0 1-1-1c0-.513.426-1 1-1zM11.104 2.553a1 1 0 0 1 1.725-.11l2.616 5.215 5.106-2.552c.669-.335 1.515.174 1.445.964q-.86 4.853-2.014 11.109a1 1 0 0 1-.864.814L4.999 18a1 1 0 0 1-.955-.705L2.016 6.179a1 1 0 0 1 1.33-1.118L8.55 7.658zm.894 2.683L9.894 9.447a1 1 0 0 1-1.234.494L4.34 7.788l1.493 8.211h12.331l1.493-8.211-4.21 2.106c-.424.212-1.044.106-1.284-.345A482 482 0 0 1 12 5.236" clip-rule="evenodd"/></g><defs><clipPath id="a"><path fill="#fff" d="M0 0h24v24H0z"/></clipPath></defs></svg>