<svg xmlns="http://www.w3.org/2000/svg" width="32" height="32" fill="none"><path fill="#1A1C1F" fill-rule="evenodd" d="M15.6 4.101a1.2 1.2 0 0 0-.327.225c-.063.07-1.116 1.731-2.34 3.692-1.695 2.715-2.246 3.559-2.313 3.54-.048-.013-1.701-1.034-3.674-2.268-4.009-2.507-3.844-2.425-4.36-2.172-.369.181-.572.491-.57.871.004.673 1.652 10.59 1.881 11.32.182.582.651 1.12 1.235 1.417.589.299.08.286 10.847.287 6.532 0 10.025-.018 10.213-.054.897-.17 1.736-.934 1.961-1.786.032-.117.203-1.149.382-2.293a627 627 0 0 1 1.352-8.146c.134-.763.129-.928-.041-1.256-.165-.319-.658-.531-1.037-.446-.132.03-1.585.906-3.846 2.319l-3.633 2.272-.178-.278c-.097-.153-1.106-1.766-2.242-3.585s-2.117-3.364-2.181-3.434c-.155-.17-.5-.324-.729-.324a1.2 1.2 0 0 0-.4.099m2.529 6.197c1.325 2.12 2.164 3.41 2.268 3.49.283.216.77.265 1.05.104.04-.023 1.432-.89 3.094-1.927a270 270 0 0 1 3.043-1.885c.02 0-.214 1.484-1.108 7.033-.222 1.374-.269 1.584-.382 1.72l-.13.154h-9.935c-9.896 0-9.935-.001-10.072-.108a.6.6 0 0 1-.166-.2c-.054-.177-1.369-8.456-1.353-8.523.009-.04 1.258.709 3.082 1.85 1.686 1.054 3.156 1.941 3.266 1.971.247.066.582-.012.818-.191.104-.079.939-1.364 2.267-3.488C15.027 8.447 15.985 6.933 16 6.933s.973 1.514 2.129 3.365M9.627 22.582c-.625.277-.809 1.097-.358 1.595.239.265.76.38 1.114.246.479-.18.729-.762.554-1.291-.157-.478-.833-.762-1.31-.55m6 .007c-.533.239-.76.853-.504 1.358.337.665 1.305.719 1.717.096.2-.303.208-.788.017-1.066-.28-.409-.811-.576-1.23-.388m6-.007c-.625.277-.809 1.097-.358 1.595.239.265.76.38 1.114.246.479-.18.729-.762.554-1.291-.157-.478-.833-.762-1.31-.55m-16.747.431a3 3 0 0 1-.199.05c-.218.048-.503.325-.602.586-.075.196-.085.401-.068 1.318.019.973.034 1.118.142 1.392a2.75 2.75 0 0 0 1.494 1.493l.3.121 9.893.015c6.747.009 9.979-.004 10.163-.042.682-.141 1.398-.676 1.698-1.268.249-.492.299-.803.299-1.864 0-1.042-.036-1.235-.283-1.498-.438-.47-1.242-.366-1.575.203-.136.232-.142.277-.161 1.201-.01.528-.043 1.004-.071 1.058-.137.258.234.249-9.91.249-10.191 0-9.771.011-9.916-.259-.034-.063-.058-.444-.059-.924-.001-1.166-.098-1.478-.523-1.691-.197-.099-.523-.173-.622-.14"/></svg>