<svg width="24" height="24" viewBox="0 0 24 24" fill="none" xmlns="http://www.w3.org/2000/svg"><path d="M11.709 2.055 C 11.479 2.119,11.359 2.223,11.154 2.536 C 11.069 2.666,10.460 3.845,9.800 5.156 C 9.140 6.467,8.585 7.563,8.567 7.591 C 8.543 7.628,7.936 7.345,6.237 6.506 C 3.251 5.030,3.235 5.022,2.960 5.023 C 2.545 5.024,2.155 5.332,2.043 5.748 C 1.990 5.945,2.172 7.078,2.902 11.095 C 3.730 15.648,4.073 17.383,4.180 17.546 C 4.263 17.672,4.438 17.833,4.580 17.913 C 4.691 17.975,5.225 17.980,11.920 17.980 C 15.891 17.980,19.206 17.966,19.287 17.949 C 19.473 17.909,19.803 17.617,19.891 17.413 C 19.928 17.329,20.020 16.936,20.097 16.540 C 20.444 14.747,21.606 8.336,21.889 6.657 C 22.037 5.773,22.029 5.695,21.755 5.384 C 21.531 5.129,21.321 5.027,21.020 5.026 C 20.799 5.025,20.719 5.054,20.015 5.390 C 19.594 5.591,18.399 6.181,17.359 6.701 C 15.915 7.423,15.460 7.633,15.435 7.593 C 15.416 7.564,14.813 6.373,14.094 4.947 C 13.067 2.910,12.760 2.334,12.661 2.258 C 12.384 2.047,12.020 1.969,11.709 2.055 M13.036 7.313 C 13.589 8.410,14.118 9.422,14.212 9.563 C 14.402 9.850,14.577 9.962,14.877 9.991 C 15.134 10.015,15.485 9.872,16.894 9.170 C 18.212 8.513,19.612 7.839,19.628 7.855 C 19.637 7.864,18.245 15.574,18.177 15.890 L 18.154 16.000 12.001 16.000 L 5.849 16.000 5.825 15.906 C 5.812 15.854,5.504 14.166,5.140 12.156 C 4.776 10.145,4.452 8.357,4.420 8.183 C 4.388 8.008,4.367 7.860,4.373 7.854 C 4.389 7.838,5.694 8.467,7.106 9.170 C 8.331 9.781,8.841 10.000,9.034 10.000 C 9.219 10.000,9.489 9.887,9.630 9.750 C 9.824 9.563,9.977 9.282,11.019 7.210 C 11.542 6.170,11.983 5.320,12.000 5.320 C 12.017 5.320,12.483 6.217,13.036 7.313 M4.900 20.035 C 4.213 20.058,4.126 20.068,3.999 20.148 C 3.685 20.343,3.522 20.641,3.522 21.020 C 3.522 21.317,3.615 21.535,3.821 21.715 C 4.150 22.004,3.404 21.980,12.020 21.980 C 20.689 21.980,19.857 22.009,20.175 21.694 C 20.384 21.487,20.478 21.270,20.479 20.995 C 20.481 20.623,20.311 20.332,19.982 20.139 L 19.813 20.040 12.737 20.025 C 8.845 20.016,5.318 20.021,4.900 20.035 " fill="#1A1C1F" stroke="none" fill-rule="evenodd"></path></svg>