<svg xmlns="http://www.w3.org/2000/svg" width="14" height="14" fill="none"><g clip-path="url(#a)"><path fill="#1A1C1F" fill-rule="evenodd" d="M10.85 11.2a.7.7 0 1 1 0 1.4h-7.7a.7.7 0 0 1-.7-.7c0-.359.3-.7.7-.7zM6.372 1.787a.7.7 0 0 1 1.208-.077l1.44 2.867 2.49-1.66c.481-.32 1.162.061 1.085.659q-.65 2.958-1.413 6.376a.7.7 0 0 1-.603.543L3.5 10.5a.7.7 0 0 1-.662-.47L1.416 3.652a.7.7 0 0 1 1.005-.774l2.557 1.7zM7 3.665 5.875 5.913a.7.7 0 0 1-.942.311L3.16 5.05l.9 4.05h5.876l.9-4.05-1.7 1.133c-.303.203-.776.14-.972-.197q-.558-1.103-1.166-2.32" clip-rule="evenodd"/></g><defs><clipPath id="a"><path fill="#fff" d="M0 0h14v14H0z"/></clipPath></defs></svg>