<svg xmlns="http://www.w3.org/2000/svg" width="16" height="16" fill="none"><g clip-path="url(#a)"><path fill="#1A1C1F" fill-rule="evenodd" d="M12 8c0 2.206-1.794 4-4 4s-4-1.794-4-4 1.794-4 4-4 4 1.794 4 4M2.4 8a5.6 5.6 0 1 0 11.2 0A5.6 5.6 0 0 0 2.4 8m7.246.683a.65.65 0 0 0-.724-.015c-.013.009-.344.217-.936.217s-.924-.209-.928-.211a.64.64 0 0 0-.983.693c.136.502.714 1.45 1.922 1.45 1.217 0 1.777-.957 1.901-1.463a.64.64 0 0 0-.252-.67M6.43 7.532a.36.36 0 0 1 .318-.086.8.8 0 0 0 .368-1.558c-1.055-.247-1.751.446-1.828.525a.786.786 0 0 0 .019 1.1c.154.157.36.235.566.235.2 0 .4-.072.557-.216m4.281-1.12c-.077-.08-.772-.774-1.828-.523a.8.8 0 1 0 .368 1.557.37.37 0 0 1 .316.084.799.799 0 0 0 1.144-1.117" clip-rule="evenodd"/></g><defs><clipPath id="a"><path fill="#fff" d="M0 0h16v16H0z"/></clipPath></defs></svg>