<svg xmlns="http://www.w3.org/2000/svg" width="20" height="20" fill="none"><g clip-path="url(#a)"><path fill="#1A1C1F" fill-rule="evenodd" d="M10 3a7 7 0 1 1 0 14 7 7 0 0 1 0-14m0 2c-2.757 0-5 2.243-5 5s2.243 5 5 5 5-2.243 5-5-2.243-5-5-5m-.003 5.222c1.518 0 2.582.936 2.698 1.043a1 1 0 0 1-1.345 1.477c-.024-.021-.611-.521-1.352-.521-.753 0-1.344.512-1.35.517a1.004 1.004 0 0 1-1.409-.08.994.994 0 0 1 .066-1.401c.116-.106 1.174-1.035 2.692-1.035M8 7a1.25 1.25 0 1 1 0 2.5A1.25 1.25 0 0 1 8 7m4 0a1.25 1.25 0 1 1 0 2.5A1.25 1.25 0 0 1 12 7" clip-rule="evenodd"/></g><defs><clipPath id="a"><path fill="#fff" d="M0 0h20v20H0z"/></clipPath></defs></svg>