<svg xmlns="http://www.w3.org/2000/svg" width="32" height="32" fill="none"><path fill="#1A1C1F" fill-rule="evenodd" d="M15.12 4.032c-1.759.182-3.011.524-4.378 1.196a11.92 11.92 0 0 0-5.52 5.519 11.97 11.97 0 0 0 1.427 12.761c.77.96 1.778 1.872 2.844 2.571 1.079.708 2.675 1.372 3.963 1.65a12.01 12.01 0 0 0 13.322-6.476 11.97 11.97 0 0 0-1.427-12.761 12.07 12.07 0 0 0-7.591-4.357c-.545-.082-2.211-.147-2.64-.103m2.56 1.802c4.017.685 7.273 3.662 8.292 7.579.278 1.071.389 2.541.272 3.627-.47 4.383-3.622 7.98-7.876 8.991-1.113.264-2.645.338-3.748.182-4.562-.649-8.072-4.11-8.815-8.693-.091-.561-.091-2.479 0-3.04.475-2.932 2.059-5.417 4.495-7.054 1.214-.817 2.8-1.427 4.18-1.609.235-.031.499-.066.587-.079.343-.048 2.156.018 2.613.096m-5.559 5.207a2.09 2.09 0 0 0-1.434 1.134c-.135.292-.154.393-.154.838 0 .439.02.548.144.813.183.391.6.807.99.991.269.125.372.143.84.143.476 0 .566-.016.838-.15 1.363-.669 1.548-2.49.345-3.399-.427-.323-1.067-.474-1.569-.37m7.025-.003c-.386.069-.751.269-1.071.587-.403.4-.55.771-.552 1.388-.001.4.019.496.168.812.202.431.543.779.964.985.272.134.362.15.838.15.468 0 .571-.018.84-.143.391-.184.808-.601.989-.991.121-.262.142-.378.143-.813.001-.448-.016-.545-.153-.841-.372-.806-1.296-1.29-2.166-1.134m-7.399 8c-.366.089-.659.411-.733.809-.084.447.253.984.694 1.107.297.082 8.287.082 8.584 0 .283-.079.588-.391.667-.682.118-.442-.041-.85-.433-1.11l-.225-.149-4.19-.008c-2.305-.005-4.269.01-4.364.033"/></svg>