<svg width="24" height="24" viewBox="0 0 24 24" fill="none" xmlns="http://www.w3.org/2000/svg"><path d="M11.360 3.029 C 10.961 3.055,10.274 3.173,9.781 3.299 C 6.758 4.074,4.410 6.278,3.447 9.244 C 2.855 11.066,2.855 12.931,3.446 14.756 C 3.877 16.085,4.562 17.227,5.520 18.215 C 6.326 19.047,7.064 19.591,8.015 20.058 C 10.179 21.121,12.562 21.282,14.845 20.522 C 16.481 19.977,17.923 18.973,19.012 17.620 C 20.985 15.170,21.530 11.839,20.439 8.898 C 19.891 7.420,18.962 6.105,17.753 5.094 C 16.454 4.009,14.613 3.225,13.028 3.081 C 12.575 3.040,11.639 3.011,11.360 3.029 M12.351 5.040 C 13.887 5.125,15.194 5.614,16.364 6.542 C 17.731 7.625,18.716 9.358,18.919 11.039 C 18.989 11.619,18.970 12.691,18.881 13.213 C 18.622 14.732,17.815 16.178,16.650 17.211 C 15.285 18.422,13.517 19.062,11.740 18.988 C 8.728 18.863,6.177 16.881,5.303 13.985 C 5.092 13.288,5.040 12.892,5.040 12.003 C 5.040 11.477,5.061 11.102,5.102 10.860 C 5.549 8.271,7.374 6.158,9.873 5.337 C 10.198 5.231,10.857 5.097,11.320 5.045 C 11.485 5.026,11.629 5.008,11.640 5.006 C 11.651 5.004,11.971 5.019,12.351 5.040 M8.813 8.595 C 8.425 8.740,8.127 9.000,7.937 9.360 C 7.882 9.465,7.859 9.613,7.847 9.951 C 7.832 10.376,7.837 10.414,7.939 10.622 C 8.148 11.049,8.601 11.390,9.080 11.480 C 9.663 11.590,10.378 11.200,10.664 10.615 C 10.756 10.428,10.769 10.352,10.769 10.000 C 10.769 9.645,10.756 9.573,10.660 9.377 C 10.522 9.093,10.237 8.810,9.950 8.670 C 9.636 8.517,9.114 8.482,8.813 8.595 M14.213 8.595 C 13.825 8.740,13.527 9.000,13.337 9.360 C 13.282 9.465,13.259 9.613,13.247 9.951 C 13.232 10.376,13.237 10.414,13.339 10.622 C 13.548 11.049,14.001 11.390,14.480 11.480 C 15.063 11.590,15.778 11.200,16.064 10.615 C 16.156 10.428,16.169 10.352,16.169 10.000 C 16.169 9.645,16.156 9.573,16.060 9.377 C 15.922 9.093,15.637 8.810,15.350 8.670 C 15.036 8.517,14.514 8.482,14.213 8.595 M8.359 13.579 C 8.117 13.657,7.865 13.879,7.780 14.089 C 7.681 14.336,7.689 14.710,7.799 14.937 C 7.931 15.211,8.196 15.412,8.860 15.739 C 9.872 16.239,10.639 16.430,11.780 16.467 C 12.554 16.492,13.089 16.439,13.740 16.274 C 14.597 16.058,15.741 15.507,16.068 15.154 C 16.365 14.834,16.365 14.165,16.068 13.847 C 16.020 13.795,15.900 13.705,15.801 13.647 C 15.651 13.559,15.573 13.542,15.321 13.541 C 15.031 13.540,15.006 13.548,14.658 13.746 C 13.761 14.255,12.943 14.483,12.011 14.484 C 11.073 14.484,10.237 14.254,9.362 13.757 C 8.952 13.524,8.681 13.476,8.359 13.579 " fill="#1A1C1F" stroke="none" fill-rule="evenodd"></path></svg>