<svg width="12" height="12" viewBox="0 0 12 12" fill="none" xmlns="http://www.w3.org/2000/svg"><path d="M5.590 1.822 C 3.921 2.004,2.516 3.135,2.010 4.704 C 1.746 5.524,1.733 6.385,1.973 7.180 C 2.192 7.902,2.502 8.418,3.042 8.958 C 3.463 9.379,3.839 9.640,4.329 9.849 C 5.483 10.342,6.747 10.310,7.858 9.758 C 8.355 9.512,8.730 9.222,9.153 8.757 C 9.891 7.947,10.291 6.735,10.182 5.633 C 10.104 4.837,9.825 4.110,9.360 3.490 C 8.970 2.970,8.474 2.557,7.890 2.263 C 7.431 2.033,7.075 1.919,6.595 1.850 C 6.321 1.811,5.822 1.797,5.590 1.822 M6.279 3.022 C 6.982 3.087,7.600 3.380,8.111 3.890 C 8.631 4.408,8.921 5.036,8.981 5.777 C 9.052 6.638,8.735 7.486,8.110 8.110 C 7.677 8.542,7.245 8.782,6.630 8.931 C 6.451 8.975,6.386 8.980,6.017 8.980 C 5.550 8.980,5.395 8.958,5.062 8.847 C 3.992 8.489,3.223 7.576,3.036 6.440 C 3.000 6.221,3.007 5.730,3.049 5.490 C 3.282 4.171,4.380 3.149,5.700 3.022 C 5.949 2.998,6.025 2.998,6.279 3.022 M4.630 4.228 C 4.339 4.300,4.133 4.514,4.071 4.808 C 4.003 5.134,4.178 5.478,4.489 5.630 C 4.587 5.678,4.622 5.684,4.800 5.684 C 4.979 5.684,5.013 5.678,5.115 5.628 C 5.263 5.556,5.408 5.410,5.476 5.265 C 5.523 5.164,5.530 5.125,5.530 4.950 C 5.530 4.776,5.523 4.736,5.477 4.638 C 5.377 4.423,5.183 4.272,4.944 4.222 C 4.815 4.195,4.759 4.196,4.630 4.228 M7.030 4.228 C 6.739 4.300,6.533 4.514,6.471 4.808 C 6.403 5.134,6.578 5.478,6.889 5.630 C 6.987 5.678,7.022 5.684,7.200 5.684 C 7.379 5.684,7.413 5.678,7.515 5.628 C 7.663 5.556,7.808 5.410,7.876 5.265 C 7.923 5.164,7.930 5.125,7.930 4.950 C 7.930 4.776,7.923 4.736,7.877 4.638 C 7.777 4.423,7.583 4.272,7.344 4.222 C 7.215 4.195,7.159 4.196,7.030 4.228 M4.647 6.459 C 4.476 6.500,4.265 6.696,4.221 6.856 C 4.194 6.951,4.194 7.129,4.221 7.224 C 4.304 7.522,4.950 7.925,5.550 8.052 C 6.114 8.172,6.757 8.044,7.297 7.705 C 7.535 7.555,7.661 7.443,7.731 7.317 C 7.784 7.221,7.790 7.192,7.790 7.030 C 7.790 6.869,7.784 6.839,7.732 6.745 C 7.700 6.687,7.644 6.617,7.608 6.589 C 7.338 6.384,7.108 6.389,6.780 6.608 C 6.549 6.762,6.532 6.771,6.352 6.833 C 5.980 6.960,5.668 6.902,5.235 6.623 C 4.971 6.453,4.833 6.415,4.647 6.459 " fill="#1A1C1F" stroke="none" fill-rule="evenodd"></path></svg>