<svg width="12" height="12" viewBox="0 0 12 12" fill="none" xmlns="http://www.w3.org/2000/svg"><path d="M5.590 1.822 C 3.921 2.004,2.516 3.135,2.010 4.704 C 1.746 5.524,1.733 6.385,1.973 7.180 C 2.192 7.902,2.502 8.418,3.042 8.958 C 3.463 9.379,3.839 9.640,4.329 9.849 C 5.483 10.342,6.747 10.310,7.858 9.758 C 8.355 9.512,8.730 9.222,9.153 8.757 C 9.891 7.947,10.291 6.735,10.182 5.633 C 10.104 4.837,9.825 4.110,9.360 3.490 C 8.970 2.970,8.474 2.557,7.890 2.263 C 7.431 2.033,7.075 1.919,6.595 1.850 C 6.321 1.811,5.822 1.797,5.590 1.822 M6.279 3.022 C 6.982 3.087,7.600 3.380,8.111 3.890 C 8.631 4.408,8.921 5.036,8.981 5.777 C 9.052 6.638,8.735 7.486,8.110 8.110 C 7.677 8.542,7.245 8.782,6.630 8.931 C 6.451 8.975,6.386 8.980,6.017 8.980 C 5.550 8.980,5.395 8.958,5.062 8.847 C 3.992 8.489,3.223 7.576,3.036 6.440 C 3.000 6.221,3.007 5.730,3.049 5.490 C 3.282 4.171,4.380 3.149,5.700 3.022 C 5.949 2.998,6.025 2.998,6.279 3.022 M4.630 4.228 C 4.339 4.300,4.133 4.514,4.071 4.808 C 4.003 5.134,4.178 5.478,4.489 5.630 C 4.587 5.678,4.622 5.684,4.800 5.684 C 4.979 5.684,5.013 5.678,5.115 5.628 C 5.263 5.556,5.408 5.410,5.476 5.265 C 5.523 5.164,5.530 5.125,5.530 4.950 C 5.530 4.776,5.523 4.736,5.477 4.638 C 5.377 4.423,5.183 4.272,4.944 4.222 C 4.815 4.195,4.759 4.196,4.630 4.228 M7.030 4.228 C 6.739 4.300,6.533 4.514,6.471 4.808 C 6.403 5.134,6.578 5.478,6.889 5.630 C 6.987 5.678,7.022 5.684,7.200 5.684 C 7.379 5.684,7.413 5.678,7.515 5.628 C 7.663 5.556,7.808 5.410,7.876 5.265 C 7.923 5.164,7.930 5.125,7.930 4.950 C 7.930 4.776,7.923 4.736,7.877 4.638 C 7.777 4.423,7.583 4.272,7.344 4.222 C 7.215 4.195,7.159 4.196,7.030 4.228 M5.750 6.153 C 5.268 6.210,4.719 6.455,4.392 6.759 C 4.257 6.885,4.200 7.012,4.200 7.192 C 4.200 7.310,4.210 7.354,4.261 7.456 C 4.371 7.675,4.554 7.784,4.807 7.783 C 4.962 7.781,5.003 7.766,5.185 7.643 C 5.477 7.447,5.674 7.367,5.922 7.347 C 6.195 7.325,6.468 7.413,6.778 7.624 C 6.859 7.680,6.977 7.743,7.038 7.765 C 7.367 7.881,7.716 7.664,7.800 7.292 C 7.827 7.172,7.785 6.989,7.704 6.871 C 7.564 6.668,7.012 6.336,6.640 6.232 C 6.384 6.160,5.986 6.125,5.750 6.153 " fill="#1A1C1F" stroke="none" fill-rule="evenodd"></path></svg>