<svg xmlns="http://www.w3.org/2000/svg" width="32" height="32" fill="none"><path fill="#1A1C1F" fill-rule="evenodd" d="M15.12 4.032c-1.759.182-3.011.524-4.378 1.196a11.92 11.92 0 0 0-5.52 5.519 11.97 11.97 0 0 0 1.427 12.761c.77.96 1.778 1.872 2.844 2.571 1.079.708 2.675 1.372 3.963 1.65a12.01 12.01 0 0 0 13.322-6.476 11.97 11.97 0 0 0-1.427-12.761 12.07 12.07 0 0 0-7.591-4.357c-.545-.082-2.211-.147-2.64-.103m2.56 1.802c4.017.685 7.273 3.662 8.292 7.579.278 1.071.389 2.541.272 3.627-.47 4.383-3.622 7.98-7.876 8.991-1.113.264-2.645.338-3.748.182-4.562-.649-8.072-4.11-8.815-8.693-.091-.561-.091-2.479 0-3.04.475-2.932 2.059-5.417 4.495-7.054 1.214-.817 2.8-1.427 4.18-1.609.235-.031.499-.066.587-.079.343-.048 2.156.018 2.613.096m-6.114 5.579c-.689.11-1.313.397-1.919.884-.586.47-.904 1.015-.815 1.394.139.589.689.944 1.244.804.179-.045.325-.146.606-.423.491-.482.827-.645 1.392-.674.531-.028.758.03 1.228.314.559.337.989.348 1.348.032.207-.182.387-.517.389-.724.002-.262-.132-.561-.343-.766-.253-.244-1.04-.645-1.496-.762-.397-.102-1.233-.142-1.634-.079m7.522.024c-.777.162-1.685.645-1.915 1.017-.404.654.017 1.455.792 1.507.28.018.33.002.702-.222.487-.294.791-.373 1.325-.342.531.031.874.201 1.37.682.339.329.608.48.851.48.32 0 .788-.319.915-.623a1.16 1.16 0 0 0-.031-.863c-.057-.111-.299-.386-.538-.611-.475-.447-1.135-.817-1.732-.971-.457-.117-1.311-.144-1.739-.054m-8.448 5.652c-.312.139-.613.584-.613.907 0 .19.247.952.46 1.414a7.3 7.3 0 0 0 1.286 1.846 5.87 5.87 0 0 0 2.669 1.558c.476.128.603.139 1.558.139s1.082-.011 1.558-.139c2.008-.542 3.616-2.137 4.276-4.243.077-.244.139-.508.138-.587-.003-.333-.332-.792-.655-.914-.266-.1-.51-.062-1.308.206-1.461.489-2.699.708-4.009.708s-2.548-.219-4.009-.708c-.81-.272-1.078-.309-1.351-.187m4 2.83c1.221.143 2.623.079 3.875-.176l.462-.094-.075.109c-.132.19-.674.609-1.036.799-.587.308-1.096.424-1.866.424s-1.279-.116-1.866-.424c-.362-.19-.904-.609-1.036-.799l-.075-.109.462.094c.254.052.774.131 1.155.176"/></svg>