<svg xmlns="http://www.w3.org/2000/svg" width="20" height="20" fill="none"><g clip-path="url(#a)"><path fill="#1A1C1F" fill-rule="evenodd" d="M15 10c0 2.757-2.243 5-5 5s-5-2.243-5-5 2.243-5 5-5 5 2.243 5 5M3 10a7 7 0 1 0 14 0 7 7 0 0 0-14 0m6.468-1.173a.984.984 0 0 0-.38-1.323c-.465-.276-1.072-.113-1.362.341a.45.45 0 0 1-.355.207 1.001 1.001 0 0 0 .029 2h.03c1.354-.041 1.972-1.104 2.038-1.225m3.161-.775a.46.46 0 0 1-.354-.204 1 1 0 0 0-1.744.979c.066.121.684 1.184 2.038 1.225h.03a1 1 0 0 0 .03-2m-.255 3.866c-.156-.632-.855-1.828-2.377-1.828-1.511 0-2.232 1.185-2.402 1.811a.8.8 0 0 0 .305.851.81.81 0 0 0 .912.024c.017-.011.431-.271 1.171-.271.726 0 1.139.251 1.169.271a.8.8 0 0 0 .9-.005.805.805 0 0 0 .322-.853" clip-rule="evenodd"/></g><defs><clipPath id="a"><path fill="#fff" d="M0 0h20v20H0z"/></clipPath></defs></svg>