<svg width="12" height="12" viewBox="0 0 12 12" fill="none" xmlns="http://www.w3.org/2000/svg"><path d="M5.710 1.814 C 4.765 1.877,3.826 2.289,3.124 2.951 C 1.973 4.034,1.523 5.690,1.973 7.180 C 2.192 7.902,2.502 8.418,3.042 8.958 C 3.463 9.379,3.839 9.640,4.329 9.849 C 5.483 10.342,6.747 10.310,7.858 9.758 C 8.355 9.512,8.730 9.222,9.153 8.757 C 9.891 7.947,10.291 6.735,10.182 5.633 C 10.104 4.837,9.825 4.110,9.360 3.490 C 9.080 3.117,8.695 2.754,8.320 2.508 C 8.121 2.378,7.701 2.161,7.480 2.074 C 6.981 1.877,6.287 1.776,5.710 1.814 M6.279 3.022 C 7.308 3.118,8.213 3.741,8.684 4.676 C 9.115 5.532,9.087 6.618,8.612 7.456 C 8.407 7.819,8.053 8.214,7.727 8.445 C 7.401 8.677,6.968 8.863,6.550 8.951 C 6.325 8.999,5.675 8.999,5.450 8.951 C 5.221 8.903,4.852 8.776,4.667 8.683 C 4.124 8.411,3.599 7.893,3.336 7.372 C 2.856 6.421,2.910 5.267,3.475 4.390 C 3.972 3.619,4.804 3.108,5.700 3.022 C 5.949 2.998,6.025 2.998,6.279 3.022 M4.630 4.228 C 4.339 4.300,4.133 4.514,4.071 4.808 C 4.003 5.134,4.178 5.478,4.489 5.630 C 4.587 5.678,4.622 5.684,4.800 5.684 C 4.979 5.684,5.013 5.678,5.115 5.628 C 5.263 5.556,5.408 5.410,5.476 5.265 C 5.523 5.164,5.530 5.125,5.530 4.950 C 5.530 4.776,5.523 4.736,5.477 4.638 C 5.377 4.423,5.183 4.272,4.944 4.222 C 4.815 4.195,4.759 4.196,4.630 4.228 M7.030 4.228 C 6.739 4.300,6.533 4.514,6.471 4.808 C 6.403 5.134,6.578 5.478,6.889 5.630 C 6.987 5.678,7.022 5.684,7.200 5.684 C 7.379 5.684,7.413 5.678,7.515 5.628 C 7.663 5.556,7.808 5.410,7.876 5.265 C 7.923 5.164,7.930 5.125,7.930 4.950 C 7.930 4.776,7.923 4.736,7.877 4.638 C 7.777 4.423,7.583 4.272,7.344 4.222 C 7.215 4.195,7.159 4.196,7.030 4.228 M4.738 6.618 C 4.229 6.676,4.026 7.259,4.387 7.623 C 4.433 7.669,4.511 7.725,4.560 7.748 C 4.649 7.789,4.671 7.790,6.000 7.790 L 7.350 7.790 7.444 7.744 C 7.893 7.522,7.915 6.913,7.481 6.682 L 7.359 6.617 6.114 6.610 C 5.430 6.606,4.811 6.609,4.738 6.618 " fill="#1A1C1F" stroke="none" fill-rule="evenodd"></path></svg>