<svg width="16" height="16" viewBox="0 0 16 16" fill="none" xmlns="http://www.w3.org/2000/svg"><path d="M7.497 2.426 C 6.403 2.524,5.260 3.001,4.410 3.714 C 3.147 4.775,2.400 6.366,2.400 8.000 C 2.400 9.338,2.925 10.720,3.796 11.676 C 4.361 12.296,4.861 12.683,5.522 13.011 C 7.005 13.747,8.688 13.790,10.228 13.132 C 10.878 12.855,11.390 12.501,11.945 11.945 C 12.833 11.057,13.332 10.076,13.538 8.813 C 13.603 8.415,13.602 7.540,13.537 7.160 C 13.255 5.508,12.351 4.133,10.987 3.279 C 10.716 3.110,10.167 2.834,9.904 2.736 C 9.634 2.635,9.147 2.516,8.810 2.469 C 8.440 2.418,7.819 2.397,7.497 2.426 M8.372 4.029 C 10.060 4.187,11.479 5.415,11.878 7.065 C 12.117 8.050,11.953 9.156,11.442 10.015 C 10.852 11.007,9.868 11.705,8.747 11.929 C 8.257 12.026,7.507 12.005,7.044 11.880 C 6.263 11.670,5.633 11.298,5.088 10.725 C 3.601 9.160,3.665 6.636,5.230 5.134 C 6.082 4.317,7.210 3.920,8.372 4.029 M6.440 5.857 C 6.411 5.862,6.321 5.880,6.240 5.896 C 6.048 5.934,5.691 6.102,5.478 6.254 C 5.205 6.449,5.079 6.673,5.081 6.962 C 5.086 7.480,5.585 7.848,6.096 7.710 C 6.156 7.694,6.276 7.634,6.364 7.577 C 6.520 7.476,6.528 7.474,6.832 7.461 C 7.184 7.445,7.324 7.396,7.492 7.228 C 7.648 7.072,7.717 6.901,7.716 6.667 C 7.716 6.233,7.468 5.963,6.992 5.878 C 6.796 5.844,6.555 5.834,6.440 5.857 M9.014 5.870 C 8.556 5.946,8.288 6.239,8.283 6.667 C 8.280 6.906,8.341 7.061,8.499 7.219 C 8.678 7.398,8.813 7.446,9.180 7.461 C 9.486 7.474,9.504 7.478,9.587 7.551 C 9.741 7.685,9.908 7.743,10.148 7.743 C 10.339 7.744,10.380 7.735,10.508 7.663 C 10.781 7.510,10.956 7.187,10.926 6.892 C 10.860 6.259,9.869 5.729,9.014 5.870 M6.497 8.598 C 6.332 8.658,6.158 8.833,6.090 9.007 C 5.975 9.302,6.208 9.842,6.627 10.253 C 6.856 10.477,7.086 10.618,7.373 10.709 C 8.211 10.975,9.057 10.704,9.589 10.000 C 9.679 9.882,9.849 9.519,9.894 9.352 C 9.965 9.084,9.824 8.783,9.567 8.655 C 9.363 8.553,9.172 8.560,8.908 8.679 C 8.577 8.829,8.408 8.862,7.987 8.862 C 7.567 8.862,7.399 8.829,7.069 8.682 C 6.825 8.573,6.640 8.546,6.497 8.598 " fill="#1A1C1F" stroke="none" fill-rule="evenodd"></path></svg>