<svg width="16" height="16" viewBox="0 0 16 16" fill="none" xmlns="http://www.w3.org/2000/svg"><path d="M7.480 2.427 C 6.467 2.524,5.467 2.913,4.640 3.531 C 4.353 3.745,3.842 4.241,3.622 4.520 C 2.840 5.507,2.400 6.760,2.400 8.000 C 2.400 8.924,2.635 9.831,3.101 10.707 C 3.437 11.337,4.066 12.040,4.757 12.558 C 5.604 13.192,6.871 13.600,7.996 13.600 C 9.334 13.600,10.722 13.074,11.676 12.204 C 12.275 11.659,12.668 11.158,12.983 10.538 C 13.658 9.207,13.780 7.717,13.330 6.301 C 12.874 4.867,11.855 3.684,10.493 3.005 C 9.895 2.708,9.429 2.560,8.796 2.468 C 8.442 2.416,7.797 2.396,7.480 2.427 M8.683 4.067 C 9.484 4.205,10.222 4.592,10.814 5.185 C 12.189 6.565,12.378 8.651,11.274 10.275 C 11.073 10.571,10.603 11.048,10.301 11.262 C 9.873 11.566,9.292 11.815,8.733 11.935 C 8.573 11.969,8.390 11.980,8.000 11.980 C 7.432 11.980,7.264 11.956,6.800 11.808 C 5.380 11.354,4.320 10.141,4.067 8.681 C 4.025 8.441,4.007 7.981,4.029 7.698 C 4.097 6.782,4.455 5.953,5.062 5.305 C 5.749 4.571,6.601 4.139,7.583 4.025 C 7.838 3.996,8.390 4.017,8.683 4.067 M6.173 5.636 C 5.781 5.738,5.510 6.019,5.428 6.411 C 5.337 6.846,5.570 7.304,5.985 7.507 C 6.115 7.571,6.163 7.579,6.400 7.579 C 6.637 7.579,6.685 7.571,6.815 7.507 C 7.106 7.364,7.334 7.059,7.385 6.741 C 7.437 6.427,7.286 6.039,7.033 5.838 C 6.796 5.649,6.443 5.566,6.173 5.636 M9.373 5.636 C 8.981 5.738,8.710 6.019,8.628 6.411 C 8.537 6.846,8.770 7.304,9.185 7.507 C 9.315 7.571,9.363 7.579,9.600 7.579 C 9.837 7.579,9.885 7.571,10.015 7.507 C 10.306 7.364,10.534 7.059,10.585 6.741 C 10.637 6.427,10.486 6.039,10.233 5.838 C 9.996 5.649,9.643 5.566,9.373 5.636 M6.320 8.822 C 5.644 8.892,5.367 9.679,5.849 10.164 C 5.910 10.225,6.014 10.300,6.080 10.331 C 6.198 10.386,6.228 10.387,8.000 10.387 L 9.800 10.387 9.925 10.325 C 10.525 10.030,10.553 9.218,9.975 8.910 L 9.811 8.823 8.152 8.813 C 7.240 8.808,6.415 8.812,6.320 8.822 " fill="#1A1C1F" stroke="none" fill-rule="evenodd"></path></svg>