<svg width="12" height="12" viewBox="0 0 12 12" fill="none" xmlns="http://www.w3.org/2000/svg"><path d="M5.710 1.814 C 4.765 1.877,3.826 2.289,3.124 2.951 C 1.973 4.034,1.523 5.690,1.973 7.180 C 2.192 7.902,2.502 8.418,3.042 8.958 C 3.463 9.379,3.839 9.640,4.329 9.849 C 5.483 10.342,6.747 10.310,7.858 9.758 C 8.355 9.512,8.730 9.222,9.153 8.757 C 9.891 7.947,10.291 6.735,10.182 5.633 C 10.104 4.837,9.825 4.110,9.360 3.490 C 9.080 3.117,8.695 2.754,8.320 2.508 C 8.121 2.378,7.701 2.161,7.480 2.074 C 6.981 1.877,6.287 1.776,5.710 1.814 M6.279 3.022 C 7.308 3.118,8.213 3.741,8.684 4.676 C 9.115 5.532,9.087 6.618,8.612 7.456 C 8.407 7.819,8.053 8.214,7.727 8.445 C 7.401 8.677,6.968 8.863,6.550 8.951 C 6.325 8.999,5.675 8.999,5.450 8.951 C 5.221 8.903,4.852 8.776,4.667 8.683 C 4.124 8.411,3.599 7.893,3.336 7.372 C 2.856 6.421,2.910 5.267,3.475 4.390 C 3.972 3.619,4.804 3.108,5.700 3.022 C 5.949 2.998,6.025 2.998,6.279 3.022 M5.038 4.441 C 4.905 4.462,4.836 4.505,4.663 4.670 C 4.519 4.808,4.501 4.818,4.381 4.840 C 4.214 4.870,4.118 4.921,4.009 5.035 C 3.740 5.315,3.810 5.752,4.156 5.955 C 4.229 5.997,4.279 6.009,4.414 6.016 C 4.797 6.036,5.122 5.902,5.438 5.595 C 5.600 5.436,5.692 5.293,5.731 5.141 C 5.759 5.031,5.759 5.008,5.731 4.895 C 5.650 4.574,5.368 4.389,5.038 4.441 M6.646 4.447 C 6.547 4.483,6.415 4.585,6.356 4.671 C 6.273 4.792,6.231 4.982,6.258 5.116 C 6.322 5.436,6.696 5.798,7.117 5.947 C 7.271 6.002,7.315 6.009,7.520 6.009 C 7.735 6.010,7.756 6.006,7.842 5.956 C 8.076 5.818,8.207 5.527,8.142 5.287 C 8.091 5.099,7.899 4.905,7.723 4.863 C 7.451 4.799,7.464 4.806,7.304 4.642 C 7.175 4.510,7.132 4.479,7.041 4.452 C 6.916 4.415,6.738 4.413,6.646 4.447 M5.730 6.079 C 5.508 6.116,5.241 6.240,5.055 6.395 C 4.748 6.651,4.512 7.085,4.549 7.327 C 4.566 7.441,4.661 7.583,4.777 7.667 C 4.856 7.724,4.878 7.730,5.007 7.729 C 5.128 7.729,5.176 7.717,5.318 7.653 C 5.555 7.547,5.689 7.521,5.980 7.521 C 6.277 7.521,6.431 7.550,6.660 7.651 C 6.754 7.692,6.868 7.730,6.915 7.736 C 7.156 7.763,7.392 7.575,7.432 7.324 C 7.456 7.170,7.317 6.820,7.151 6.620 C 6.934 6.358,6.604 6.145,6.350 6.103 C 6.173 6.073,5.845 6.061,5.730 6.079 " fill="#1A1C1F" stroke="none" fill-rule="evenodd"></path></svg>