<svg width="32" height="32" viewBox="0 0 32 32" fill="none" xmlns="http://www.w3.org/2000/svg"><path d="M15.200 4.036 C 13.408 4.211,12.223 4.531,10.800 5.225 C 9.395 5.911,8.472 6.573,7.409 7.661 C 3.169 12.002,2.858 18.806,6.683 23.547 C 6.872 23.781,7.312 24.250,7.660 24.587 C 9.073 25.956,10.442 26.778,12.373 27.416 C 16.485 28.774,21.093 27.708,24.261 24.667 C 28.674 20.431,29.243 13.723,25.604 8.827 C 25.127 8.183,24.141 7.163,23.520 6.668 C 21.750 5.259,19.433 4.294,17.371 4.109 C 16.741 4.052,15.473 4.010,15.200 4.036 M16.578 5.760 C 18.122 5.838,19.065 6.074,20.415 6.722 C 21.839 7.404,23.086 8.392,24.058 9.607 C 26.496 12.655,26.971 16.856,25.279 20.412 C 24.764 21.494,24.194 22.311,23.337 23.192 C 22.146 24.417,20.831 25.241,19.198 25.784 C 18.051 26.166,17.429 26.258,15.973 26.261 C 14.832 26.263,14.699 26.253,14.053 26.116 C 11.904 25.659,10.160 24.722,8.710 23.246 C 7.818 22.337,7.335 21.656,6.769 20.507 C 6.370 19.696,6.108 18.954,5.912 18.080 C 5.796 17.564,5.787 17.401,5.787 16.000 C 5.787 14.599,5.796 14.436,5.912 13.920 C 6.518 11.210,8.045 8.954,10.299 7.438 C 11.539 6.604,13.156 5.995,14.667 5.793 C 15.376 5.698,15.350 5.698,16.578 5.760 M11.885 11.111 C 11.330 11.318,10.922 11.690,10.675 12.213 C 10.487 12.612,10.476 13.383,10.654 13.775 C 10.813 14.128,11.312 14.635,11.675 14.813 C 11.940 14.943,12.033 14.960,12.507 14.960 C 12.992 14.960,13.068 14.946,13.351 14.802 C 13.759 14.596,14.194 14.126,14.351 13.722 C 14.440 13.494,14.472 13.301,14.473 12.985 C 14.474 12.615,14.451 12.507,14.307 12.199 C 14.105 11.767,13.739 11.394,13.333 11.207 C 12.977 11.042,12.206 10.991,11.885 11.111 M18.859 11.116 C 18.558 11.227,18.123 11.541,17.921 11.794 C 17.651 12.130,17.536 12.488,17.530 13.013 C 17.526 13.397,17.547 13.514,17.666 13.773 C 17.851 14.176,18.285 14.628,18.661 14.813 C 18.927 14.943,19.020 14.960,19.493 14.960 C 19.967 14.960,20.060 14.943,20.325 14.813 C 20.689 14.635,21.188 14.127,21.345 13.775 C 21.434 13.575,21.459 13.412,21.461 13.013 C 21.463 12.574,21.444 12.466,21.322 12.201 C 21.140 11.809,20.723 11.392,20.333 11.213 C 19.956 11.039,19.199 10.989,18.859 11.116 M12.716 19.034 C 11.599 19.066,11.590 19.068,11.403 19.210 C 11.200 19.366,11.050 19.632,11.003 19.922 C 10.959 20.191,11.201 20.657,11.481 20.843 L 11.699 20.987 15.996 20.987 L 20.293 20.987 20.481 20.870 C 21.134 20.464,21.168 19.608,20.547 19.185 L 20.347 19.049 17.093 19.026 C 15.304 19.012,13.334 19.016,12.716 19.034 " fill="#1A1C1F" stroke="none" fill-rule="evenodd"></path></svg>