<svg xmlns="http://www.w3.org/2000/svg" width="32" height="32" fill="none"><g clip-path="url(#a)"><path fill="#1A1C1F" fill-rule="evenodd" d="M26.307 16c0 5.683-4.624 10.307-10.307 10.307S5.693 21.683 5.693 16 10.317 5.693 16 5.693 26.307 10.317 26.307 16M4 16c0 6.627 5.373 12 12 12s12-5.373 12-12S22.627 4 16 4 4 9.373 4 16m10.299-4.703a1 1 0 0 0-1.307.541 2.004 2.004 0 0 1-2.614 1.082 1 1 0 1 0-.764 1.848 4 4 0 0 0 1.525.305c1.57 0 3.063-.931 3.701-2.469a1 1 0 0 0-.541-1.307m8.669 2.164a1 1 0 0 0-1.306-.541 2.005 2.005 0 0 1-2.614-1.082 1.001 1.001 0 0 0-1.848.766 4.01 4.01 0 0 0 3.701 2.469c.509 0 1.026-.098 1.525-.305.51-.211.753-.796.542-1.307m-2.391 7.962c-.022-.01-2.258-.924-4.577-.924s-4.555.914-4.577.924a1.003 1.003 0 0 1-1.359-1.145C10.44 18.625 12.166 15.5 16 15.5s5.56 3.125 5.936 4.778a.998.998 0 0 1-.977 1.221q-.194 0-.382-.076M16 18.499c1.085 0 2.135.163 3.014.362-.607-.715-1.559-1.362-3.014-1.362s-2.406.647-3.014 1.362c.878-.199 1.929-.362 3.014-.362" clip-rule="evenodd"/></g><defs><clipPath id="a"><path fill="#fff" d="M0 0h32v32H0z"/></clipPath></defs></svg>