<svg width="28" height="28" viewBox="0 0 28 28" fill="none" xmlns="http://www.w3.org/2000/svg"><path d="M12.880 3.573 C 11.567 3.732,10.588 4.017,9.450 4.572 C 8.220 5.172,7.413 5.752,6.483 6.704 C 2.773 10.502,2.500 16.454,5.847 20.603 C 6.264 21.119,7.162 21.980,7.735 22.410 C 9.612 23.822,12.000 24.572,14.350 24.486 C 17.926 24.355,21.154 22.447,23.008 19.367 C 25.189 15.743,24.951 11.151,22.404 7.723 C 21.986 7.161,21.123 6.267,20.580 5.835 C 19.032 4.601,17.005 3.758,15.199 3.595 C 14.306 3.514,13.436 3.506,12.880 3.573 M14.506 5.040 C 15.857 5.108,16.682 5.315,17.863 5.882 C 19.109 6.479,20.200 7.343,21.050 8.406 C 23.184 11.073,23.599 14.749,22.119 17.860 C 21.668 18.808,21.169 19.522,20.420 20.293 C 19.378 21.365,18.227 22.086,16.798 22.561 C 15.794 22.895,15.251 22.976,13.977 22.978 C 12.978 22.980,12.861 22.971,12.297 22.851 C 10.416 22.452,8.890 21.632,7.621 20.340 C 6.841 19.545,6.418 18.949,5.923 17.943 C 5.573 17.234,5.344 16.585,5.173 15.820 C 5.072 15.368,5.063 15.226,5.063 14.000 C 5.063 12.774,5.072 12.632,5.173 12.180 C 5.704 9.809,7.040 7.835,9.012 6.508 C 10.101 5.775,11.506 5.246,12.833 5.068 C 13.454 4.986,13.431 4.986,14.506 5.040 M9.800 10.061 C 9.215 10.216,8.611 10.575,8.150 11.041 C 7.863 11.331,7.747 11.560,7.747 11.830 C 7.747 12.347,8.099 12.694,8.625 12.693 C 8.882 12.693,9.009 12.623,9.425 12.250 C 9.871 11.849,10.138 11.742,10.692 11.739 C 11.139 11.737,11.142 11.737,11.570 11.961 C 12.101 12.238,12.358 12.280,12.638 12.138 C 12.867 12.021,13.098 11.725,13.142 11.493 C 13.184 11.267,13.090 10.993,12.898 10.780 C 12.695 10.556,11.930 10.155,11.520 10.058 C 11.133 9.967,10.148 9.968,9.800 10.061 M16.436 10.075 C 15.967 10.213,15.455 10.490,15.187 10.751 C 14.982 10.950,14.936 11.026,14.909 11.207 C 14.892 11.327,14.892 11.491,14.910 11.572 C 14.980 11.892,15.418 12.223,15.773 12.226 C 15.879 12.226,16.108 12.140,16.422 11.982 L 16.908 11.737 17.357 11.738 C 17.748 11.738,17.838 11.755,18.061 11.864 C 18.202 11.933,18.470 12.125,18.658 12.291 C 19.213 12.781,19.411 12.834,19.817 12.601 C 20.121 12.427,20.262 12.231,20.290 11.946 C 20.323 11.600,20.232 11.407,19.862 11.038 C 19.471 10.648,18.942 10.306,18.469 10.137 C 18.171 10.030,18.045 10.014,17.430 10.002 C 16.857 9.991,16.677 10.004,16.436 10.075 M9.387 14.919 C 9.218 14.953,8.881 15.318,8.815 15.537 C 8.744 15.777,8.792 16.010,9.053 16.677 C 9.572 18.005,10.732 19.223,11.958 19.726 C 12.666 20.017,12.964 20.067,14.000 20.067 C 14.863 20.067,14.997 20.056,15.354 19.957 C 17.099 19.472,18.461 18.153,19.068 16.357 C 19.245 15.835,19.243 15.558,19.061 15.300 C 18.983 15.188,18.836 15.049,18.735 14.990 C 18.486 14.845,18.274 14.872,17.344 15.164 C 16.030 15.578,15.152 15.725,14.000 15.725 C 12.855 15.725,12.010 15.584,10.663 15.169 C 9.917 14.940,9.594 14.876,9.387 14.919 M12.007 17.312 C 13.412 17.559,14.599 17.559,16.001 17.311 C 16.293 17.259,16.543 17.228,16.557 17.241 C 16.593 17.278,16.265 17.573,15.951 17.786 C 15.342 18.199,14.851 18.339,14.000 18.339 C 13.320 18.339,12.955 18.266,12.484 18.036 C 12.122 17.860,11.552 17.448,11.478 17.309 C 11.420 17.201,11.375 17.201,12.007 17.312 " fill="#1A1C1F" stroke="none" fill-rule="evenodd"></path></svg>