<svg xmlns="http://www.w3.org/2000/svg" width="32" height="32" fill="none"><path fill="#1A1C1F" fill-rule="evenodd" d="M15.12 4.032c-1.759.182-3.011.524-4.378 1.196a11.92 11.92 0 0 0-5.52 5.519 11.97 11.97 0 0 0 1.427 12.761c.77.96 1.778 1.872 2.844 2.571 1.079.708 2.675 1.372 3.963 1.65a12.01 12.01 0 0 0 13.322-6.476 11.97 11.97 0 0 0-1.427-12.761 12.07 12.07 0 0 0-7.591-4.357c-.545-.082-2.211-.147-2.64-.103m2.56 1.802c4.017.685 7.273 3.662 8.292 7.579.278 1.071.389 2.541.272 3.627-.47 4.383-3.622 7.98-7.876 8.991-1.113.264-2.645.338-3.748.182-4.562-.649-8.072-4.11-8.815-8.693-.091-.561-.091-2.479 0-3.04.475-2.932 2.059-5.417 4.495-7.054 1.214-.817 2.8-1.427 4.18-1.609.235-.031.499-.066.587-.079.343-.048 2.156.018 2.613.096m-4.213 5.503c-.244.127-.312.205-.535.613-.508.926-1.432 1.315-2.415 1.017-.456-.139-.664-.141-.95-.012-.419.191-.626.642-.53 1.153.06.32.404.617.883.762.921.278 1.657.268 2.541-.037 1.002-.345 1.782-1.038 2.289-2.033.39-.766-.027-1.547-.827-1.546-.164 0-.368.037-.456.083m4.213 0c-.24.126-.352.241-.46.476-.129.283-.123.525.023.88.278.674.991 1.466 1.653 1.836 1.02.571 2.101.691 3.189.354.467-.145.69-.302.835-.588a.98.98 0 0 0-.753-1.428c-.158-.017-.362.013-.621.093-1.017.315-2.003-.123-2.501-1.111-.21-.415-.488-.596-.916-.595-.159 0-.361.038-.449.083m-2.818 4.265c-2.07.39-3.726 1.814-4.558 3.918-.24.608-.308.968-.23 1.227.079.265.347.578.577.674.274.115.503.087 1.174-.143 2.911-.998 5.516-.998 8.346.002.641.226.901.257 1.178.141.231-.096.498-.409.579-.679.082-.274-.024-.738-.333-1.457-.776-1.808-2.248-3.119-4.023-3.584-.675-.177-2.033-.227-2.71-.099m2.178 2.024c.472.12 1.124.46 1.533.798.314.26.431.403.331.403-.016 0-.298-.048-.627-.105-.328-.058-.846-.13-1.149-.16-1.076-.107-2.184-.055-3.405.16-.329.057-.611.105-.627.105-.194 0 .528-.61 1.031-.871.685-.355 1.229-.47 2.06-.434.293.012.677.059.853.104"/></svg>