<svg width="28" height="28" viewBox="0 0 28 28" fill="none" xmlns="http://www.w3.org/2000/svg"><path d="M12.880 3.573 C 11.567 3.732,10.588 4.017,9.450 4.572 C 8.220 5.172,7.413 5.752,6.483 6.704 C 2.773 10.502,2.500 16.454,5.847 20.603 C 6.264 21.119,7.162 21.980,7.735 22.410 C 9.612 23.822,12.000 24.572,14.350 24.486 C 17.926 24.355,21.154 22.447,23.008 19.367 C 25.189 15.743,24.951 11.151,22.404 7.723 C 21.986 7.161,21.123 6.267,20.580 5.835 C 19.032 4.601,17.005 3.758,15.199 3.595 C 14.306 3.514,13.436 3.506,12.880 3.573 M14.506 5.040 C 15.857 5.108,16.682 5.315,17.863 5.882 C 19.109 6.479,20.200 7.343,21.050 8.406 C 23.184 11.073,23.599 14.749,22.119 17.860 C 21.668 18.808,21.169 19.522,20.420 20.293 C 19.378 21.365,18.227 22.086,16.798 22.561 C 15.794 22.895,15.251 22.976,13.977 22.978 C 12.978 22.980,12.861 22.971,12.297 22.851 C 10.416 22.452,8.890 21.632,7.621 20.340 C 6.841 19.545,6.418 18.949,5.923 17.943 C 5.573 17.234,5.344 16.585,5.173 15.820 C 5.072 15.368,5.063 15.226,5.063 14.000 C 5.063 12.774,5.072 12.632,5.173 12.180 C 5.704 9.809,7.040 7.835,9.012 6.508 C 10.101 5.775,11.506 5.246,12.833 5.068 C 13.454 4.986,13.431 4.986,14.506 5.040 M11.841 9.911 C 11.601 10.000,11.548 10.052,11.356 10.378 C 11.038 10.921,10.725 11.199,10.273 11.341 C 9.897 11.458,9.675 11.457,9.166 11.336 C 8.704 11.227,8.511 11.242,8.254 11.410 C 7.933 11.619,7.794 12.134,7.962 12.488 C 8.182 12.951,9.242 13.281,10.124 13.160 C 11.324 12.996,12.315 12.312,12.857 11.273 C 13.131 10.747,13.061 10.261,12.672 9.995 C 12.475 9.860,12.084 9.820,11.841 9.911 M15.466 9.935 C 14.974 10.159,14.858 10.684,15.170 11.277 C 15.629 12.150,16.447 12.799,17.430 13.071 C 18.331 13.320,19.690 13.085,19.990 12.628 C 20.235 12.253,20.188 11.787,19.877 11.506 C 19.591 11.247,19.406 11.215,18.891 11.334 C 18.354 11.458,18.152 11.459,17.773 11.341 C 17.385 11.220,17.063 10.968,16.817 10.593 C 16.708 10.427,16.552 10.212,16.471 10.116 C 16.242 9.844,15.830 9.770,15.466 9.935 M13.205 13.630 C 12.764 13.677,12.081 13.894,11.599 14.141 C 10.384 14.764,9.361 15.995,8.924 17.360 C 8.718 18.001,8.747 18.222,9.075 18.551 C 9.416 18.892,9.479 18.889,10.803 18.480 C 12.006 18.109,13.273 17.933,14.397 17.983 C 15.500 18.032,16.335 18.192,17.593 18.597 C 18.361 18.844,18.560 18.853,18.825 18.650 C 19.315 18.277,19.315 17.797,18.825 16.717 C 18.178 15.291,16.803 14.107,15.375 13.746 C 14.813 13.604,13.906 13.555,13.205 13.630 M14.845 15.420 C 15.015 15.456,15.319 15.569,15.522 15.671 C 16.018 15.920,16.629 16.380,16.558 16.451 C 16.546 16.463,16.201 16.421,15.793 16.357 C 14.452 16.147,13.385 16.154,12.023 16.384 C 11.718 16.435,11.455 16.464,11.439 16.447 C 11.373 16.379,12.152 15.797,12.545 15.620 C 12.999 15.417,13.299 15.360,13.930 15.357 C 14.282 15.356,14.666 15.382,14.845 15.420 " fill="#1A1C1F" stroke="none" fill-rule="evenodd"></path></svg>