<svg width="32" height="32" viewBox="0 0 32 32" fill="none" xmlns="http://www.w3.org/2000/svg"><path d="M15.200 4.036 C 13.408 4.211,12.223 4.531,10.800 5.225 C 9.395 5.911,8.472 6.573,7.409 7.661 C 3.169 12.002,2.858 18.806,6.683 23.547 C 6.872 23.781,7.312 24.250,7.660 24.587 C 9.073 25.956,10.442 26.778,12.373 27.416 C 16.485 28.774,21.093 27.708,24.261 24.667 C 28.674 20.431,29.243 13.723,25.604 8.827 C 25.127 8.183,24.141 7.163,23.520 6.668 C 21.750 5.259,19.433 4.294,17.371 4.109 C 16.741 4.052,15.473 4.010,15.200 4.036 M16.578 5.760 C 18.122 5.838,19.065 6.074,20.415 6.722 C 21.839 7.404,23.086 8.392,24.058 9.607 C 26.496 12.655,26.971 16.856,25.279 20.412 C 24.764 21.494,24.194 22.311,23.337 23.192 C 22.146 24.417,20.831 25.241,19.198 25.784 C 18.051 26.166,17.429 26.258,15.973 26.261 C 14.832 26.263,14.699 26.253,14.053 26.116 C 11.904 25.659,10.160 24.722,8.710 23.246 C 7.818 22.337,7.335 21.656,6.769 20.507 C 6.370 19.696,6.108 18.954,5.912 18.080 C 5.796 17.564,5.787 17.401,5.787 16.000 C 5.787 14.599,5.796 14.436,5.912 13.920 C 6.518 11.210,8.045 8.954,10.299 7.438 C 11.539 6.604,13.156 5.995,14.667 5.793 C 15.376 5.698,15.350 5.698,16.578 5.760 M13.533 11.326 C 13.259 11.429,13.197 11.488,12.979 11.861 C 12.615 12.481,12.258 12.799,11.741 12.961 C 11.311 13.095,11.035 13.094,10.464 12.956 C 9.945 12.831,9.727 12.849,9.433 13.040 C 9.067 13.279,8.907 13.867,9.099 14.272 C 9.280 14.652,9.845 14.920,10.715 15.039 C 11.973 15.212,13.413 14.609,14.246 13.561 C 15.006 12.606,15.091 11.839,14.482 11.422 C 14.257 11.268,13.811 11.223,13.533 11.326 M17.742 11.331 C 17.131 11.549,16.966 12.182,17.337 12.888 C 17.862 13.885,18.793 14.625,19.920 14.940 C 20.946 15.226,22.502 14.956,22.845 14.431 C 23.125 14.004,23.072 13.471,22.716 13.150 C 22.389 12.854,22.179 12.817,21.590 12.953 C 20.976 13.094,20.745 13.096,20.312 12.961 C 19.867 12.822,19.498 12.533,19.222 12.107 C 19.098 11.916,18.920 11.670,18.827 11.561 C 18.574 11.266,18.167 11.179,17.742 11.331 M15.093 15.577 C 14.360 15.655,13.399 16.025,12.655 16.515 C 12.485 16.627,12.126 16.931,11.857 17.190 C 11.165 17.857,10.697 18.557,10.328 19.474 C 9.949 20.420,9.958 20.787,10.372 21.201 C 10.760 21.590,10.819 21.588,12.320 21.130 C 15.023 20.305,17.269 20.341,20.107 21.254 C 20.984 21.536,21.211 21.546,21.515 21.314 C 22.074 20.887,22.074 20.339,21.514 19.105 C 20.775 17.476,19.203 16.123,17.571 15.710 C 16.929 15.547,15.891 15.492,15.093 15.577 M16.966 17.623 C 17.160 17.664,17.508 17.793,17.739 17.910 C 18.306 18.195,19.004 18.720,18.923 18.801 C 18.909 18.815,18.516 18.767,18.049 18.693 C 16.518 18.454,15.356 18.462,13.749 18.724 C 13.395 18.782,13.090 18.814,13.072 18.796 C 12.998 18.719,13.893 18.051,14.338 17.852 C 14.856 17.619,15.198 17.554,15.920 17.551 C 16.323 17.550,16.761 17.580,16.966 17.623 " fill="#1A1C1F" stroke="none" fill-rule="evenodd"></path></svg>