<svg xmlns="http://www.w3.org/2000/svg" width="20" height="20" fill="none"><g clip-path="url(#a)"><path fill="#1A1C1F" fill-rule="evenodd" d="M15 10c0 2.757-2.243 5-5 5s-5-2.243-5-5 2.243-5 5-5 5 2.243 5 5M3 10a7 7 0 1 0 14 0 7 7 0 0 0-14 0m9.057.854a.815.815 0 0 0-.904-.019c-.017.011-.431.271-1.171.271s-1.154-.261-1.159-.264a.8.8 0 0 0-1.229.867c.17.627.892 1.812 2.402 1.812 1.522 0 2.221-1.196 2.377-1.829a.8.8 0 0 0-.316-.838M8.039 9.415a.45.45 0 0 1 .397-.107 1 1 0 0 0 .46-1.947c-1.319-.31-2.189.556-2.285.655a.98.98 0 0 0 .024 1.376.99.99 0 0 0 .708.293c.25 0 .5-.09.696-.27m5.351-1.399c-.096-.101-.965-.968-2.285-.655a1 1 0 1 0 .46 1.947.46.46 0 0 1 .395.105.999.999 0 0 0 1.43-1.397" clip-rule="evenodd"/></g><defs><clipPath id="a"><path fill="#fff" d="M0 0h20v20H0z"/></clipPath></defs></svg>