<svg xmlns="http://www.w3.org/2000/svg" width="12" height="12" fill="none"><g clip-path="url(#a)"><path fill="#1A1C1F" fill-rule="evenodd" d="M6 1.8a4.2 4.2 0 1 1 0 8.4 4.2 4.2 0 0 1 0-8.4M6 3C4.346 3 3 4.346 3 6s1.346 3 3 3 3-1.346 3-3-1.346-3-3-3m1.21 3.432a.599.599 0 0 1 .407 1.042c-.07.064-.708.625-1.619.625-.91 0-1.545-.557-1.615-.62a.597.597 0 0 1-.04-.841.6.6 0 0 1 .846-.048c.003.003.358.31.81.31.444 0 .797-.3.811-.313a.6.6 0 0 1 .4-.155M4.8 4.2a.75.75 0 1 1 0 1.5.75.75 0 0 1 0-1.5m2.4 0a.75.75 0 1 1 0 1.5.75.75 0 0 1 0-1.5" clip-rule="evenodd"/></g><defs><clipPath id="a"><path fill="#fff" d="M0 0h12v12H0z"/></clipPath></defs></svg>