<svg xmlns="http://www.w3.org/2000/svg" width="12" height="12" fill="none"><g clip-path="url(#a)"><path fill="#1A1C1F" fill-rule="evenodd" d="M9 6c0 1.654-1.346 3-3 3S3 7.654 3 6s1.346-3 3-3 3 1.346 3 3M1.8 6a4.2 4.2 0 1 0 8.4 0 4.2 4.2 0 0 0-8.4 0m5.434.512a.49.49 0 0 0-.542-.011c-.01.007-.259.163-.703.163s-.692-.157-.695-.159a.48.48 0 0 0-.738.52c.102.377.536 1.088 1.442 1.088.913 0 1.332-.718 1.426-1.098a.48.48 0 0 0-.19-.503m-2.41-.863a.27.27 0 0 1 .238-.064.6.6 0 0 0 .276-1.168c-.792-.186-1.314.333-1.371.393a.59.59 0 0 0 .014.825c.115.118.27.176.425.176.15 0 .3-.054.417-.162m3.21-.84c-.058-.06-.579-.58-1.371-.392a.6.6 0 1 0 .276 1.168.27.27 0 0 1 .237.063.6.6 0 0 0 .858-.838" clip-rule="evenodd"/></g><defs><clipPath id="a"><path fill="#fff" d="M0 0h12v12H0z"/></clipPath></defs></svg>