<svg width="14" height="14" viewBox="0 0 14 14" fill="none" xmlns="http://www.w3.org/2000/svg"><path d="M6.545 2.125 C 5.686 2.201,4.780 2.552,4.060 3.088 C 3.768 3.305,3.275 3.803,3.059 4.099 C 2.397 5.005,2.068 6.063,2.106 7.160 C 2.144 8.211,2.508 9.214,3.140 10.002 C 3.446 10.384,3.950 10.854,4.317 11.100 C 5.189 11.684,6.440 11.991,7.478 11.876 C 8.295 11.786,9.151 11.472,9.777 11.033 C 10.222 10.721,10.773 10.164,11.060 9.734 C 11.899 8.481,12.118 6.945,11.664 5.513 C 11.399 4.680,10.910 3.934,10.233 3.331 C 9.733 2.886,9.008 2.485,8.366 2.299 C 7.809 2.138,7.132 2.073,6.545 2.125 M7.288 3.524 C 8.780 3.645,10.040 4.723,10.393 6.180 C 10.687 7.396,10.296 8.699,9.381 9.549 C 8.894 10.001,8.315 10.299,7.642 10.443 C 7.380 10.499,6.622 10.499,6.358 10.443 C 6.091 10.387,5.660 10.239,5.444 10.131 C 4.776 9.795,4.158 9.167,3.852 8.515 C 3.271 7.275,3.440 5.839,4.291 4.798 C 4.888 4.068,5.744 3.610,6.673 3.525 C 6.965 3.498,6.968 3.498,7.288 3.524 M5.635 5.123 C 5.609 5.129,5.531 5.145,5.460 5.159 C 5.389 5.173,5.244 5.225,5.137 5.275 C 4.565 5.541,4.353 5.865,4.479 6.279 C 4.521 6.417,4.551 6.467,4.652 6.568 C 4.902 6.819,5.241 6.842,5.568 6.630 C 5.705 6.542,5.712 6.540,5.978 6.528 C 6.197 6.519,6.270 6.506,6.360 6.462 C 6.652 6.321,6.810 6.003,6.744 5.687 C 6.693 5.437,6.508 5.246,6.243 5.167 C 6.126 5.133,5.721 5.103,5.635 5.123 M7.849 5.145 C 7.461 5.229,7.250 5.471,7.247 5.833 C 7.245 6.043,7.299 6.179,7.437 6.317 C 7.593 6.473,7.711 6.515,8.032 6.528 C 8.300 6.539,8.316 6.543,8.389 6.607 C 8.523 6.725,8.670 6.775,8.880 6.776 C 9.047 6.776,9.082 6.768,9.195 6.705 C 9.433 6.571,9.586 6.288,9.560 6.031 C 9.501 5.465,8.577 4.986,7.849 5.145 M5.708 7.513 C 5.521 7.571,5.335 7.784,5.307 7.971 C 5.264 8.253,5.545 8.775,5.892 9.061 C 6.167 9.288,6.449 9.407,6.815 9.451 C 7.508 9.536,8.221 9.142,8.528 8.508 C 8.667 8.220,8.694 8.104,8.659 7.946 C 8.601 7.686,8.383 7.513,8.113 7.513 C 8.005 7.513,7.935 7.531,7.795 7.594 C 7.507 7.724,7.358 7.754,6.988 7.754 C 6.621 7.754,6.472 7.725,6.185 7.597 C 5.995 7.512,5.815 7.480,5.708 7.513 " fill="#1A1C1F" stroke="none" fill-rule="evenodd"></path></svg>