<svg xmlns="http://www.w3.org/2000/svg" width="32" height="32" fill="none"><g clip-path="url(#a)"><path fill="#1A1C1F" fill-rule="evenodd" d="M16 4c6.627 0 12 5.373 12 12s-5.373 12-12 12S4 22.627 4 16 9.373 4 16 4m0 1.693C10.317 5.693 5.693 10.317 5.693 16S10.317 26.307 16 26.307 26.307 21.683 26.307 16 21.683 5.693 16 5.693M20.961 18a1 1 0 0 1 .71 1.704C21.578 19.798 19.356 22 16 22s-5.578-2.202-5.671-2.296a1 1 0 1 1 1.42-1.408C11.766 18.312 13.468 20 16 20c2.502 0 4.237-1.69 4.251-1.704a1 1 0 0 1 .71-.296M12.5 11a2 2 0 1 1 0 4 2 2 0 0 1 0-4m7 0a2 2 0 1 1 0 4 2 2 0 0 1 0-4" clip-rule="evenodd"/></g><defs><clipPath id="a"><path fill="#fff" d="M0 0h32v32H0z"/></clipPath></defs></svg>