<svg xmlns="http://www.w3.org/2000/svg" width="24" height="24" fill="none"><g clip-path="url(#a)"><path fill="#1A1C1F" fill-rule="evenodd" d="M19 12c0 3.86-3.14 7-7 7s-7-3.14-7-7 3.14-7 7-7 7 3.14 7 7M3 12a9 9 0 0 0 9 9 9 9 0 0 0 9-9 9 9 0 0 0-9-9 9 9 0 0 0-9 9m4.693 1.647a1 1 0 0 1 1.365-1.074c.01.004 1.28.502 2.942.502s2.929-.497 2.942-.502a1 1 0 0 1 1.365 1.074c-.197 1.333-1.352 3.854-4.307 3.854s-4.109-2.521-4.307-3.854m2.835 1.328c.343.303.817.526 1.472.526s1.129-.224 1.471-.526c-.892.121-2.05.121-2.943 0m-1.462-4.299a.68.68 0 0 1 .508.136 1 1 0 0 0 1.217-1.586 2.69 2.69 0 0 0-3.769.496 1 1 0 1 0 1.587 1.216.7.7 0 0 1 .457-.262m7.726.448a1 1 0 0 0 .185-1.401 2.69 2.69 0 0 0-3.769-.496 1 1 0 1 0 1.217 1.586.68.68 0 0 1 .508-.136.68.68 0 0 1 .456.263 1 1 0 0 0 1.402.185z" clip-rule="evenodd"/></g><defs><clipPath id="a"><path fill="#fff" d="M0 0h24v24H0z"/></clipPath></defs></svg>