<svg width="32" height="32" viewBox="0 0 32 32" fill="none" xmlns="http://www.w3.org/2000/svg"><path d="M15.200 4.036 C 13.408 4.211,12.223 4.531,10.800 5.225 C 9.395 5.911,8.472 6.573,7.409 7.661 C 3.169 12.002,2.858 18.806,6.683 23.547 C 6.872 23.781,7.312 24.250,7.660 24.587 C 9.073 25.956,10.442 26.778,12.373 27.416 C 16.485 28.774,21.093 27.708,24.261 24.667 C 28.674 20.431,29.243 13.723,25.604 8.827 C 25.127 8.183,24.141 7.163,23.520 6.668 C 21.750 5.259,19.433 4.294,17.371 4.109 C 16.741 4.052,15.473 4.010,15.200 4.036 M16.578 5.760 C 18.122 5.838,19.065 6.074,20.415 6.722 C 21.839 7.404,23.086 8.392,24.058 9.607 C 26.496 12.655,26.971 16.856,25.279 20.412 C 24.764 21.494,24.194 22.311,23.337 23.192 C 22.146 24.417,20.831 25.241,19.198 25.784 C 18.051 26.166,17.429 26.258,15.973 26.261 C 14.832 26.263,14.699 26.253,14.053 26.116 C 11.904 25.659,10.160 24.722,8.710 23.246 C 7.818 22.337,7.335 21.656,6.769 20.507 C 6.370 19.696,6.108 18.954,5.912 18.080 C 5.796 17.564,5.787 17.401,5.787 16.000 C 5.787 14.599,5.796 14.436,5.912 13.920 C 6.518 11.210,8.045 8.954,10.299 7.438 C 11.539 6.604,13.156 5.995,14.667 5.793 C 15.376 5.698,15.350 5.698,16.578 5.760 M11.189 11.496 C 10.479 11.668,9.458 12.341,9.101 12.872 C 8.844 13.254,8.779 13.485,8.853 13.757 C 8.971 14.198,9.381 14.507,9.848 14.506 C 10.152 14.506,10.292 14.429,10.771 14.000 C 11.281 13.542,11.586 13.419,12.220 13.416 C 12.730 13.413,12.734 13.414,13.223 13.670 C 13.829 13.986,14.124 14.035,14.444 13.871 C 14.705 13.738,14.969 13.400,15.019 13.135 C 15.068 12.874,14.960 12.563,14.734 12.313 C 14.506 12.061,13.523 11.561,13.077 11.471 C 12.687 11.392,11.557 11.407,11.189 11.496 M18.784 11.514 C 18.248 11.672,17.663 11.989,17.356 12.287 C 17.122 12.515,17.070 12.601,17.039 12.808 C 17.019 12.945,17.019 13.133,17.040 13.226 C 17.120 13.591,17.620 13.970,18.027 13.972 C 18.147 13.973,18.409 13.875,18.768 13.693 L 19.323 13.413 19.836 13.414 C 20.284 13.415,20.386 13.434,20.641 13.559 C 20.802 13.638,21.109 13.858,21.323 14.047 C 21.957 14.607,22.184 14.667,22.649 14.401 C 22.995 14.202,23.157 13.978,23.188 13.653 C 23.226 13.260,23.123 13.041,22.700 12.615 C 22.258 12.170,21.656 11.781,21.107 11.585 C 20.767 11.463,20.623 11.444,19.920 11.431 C 19.265 11.418,19.059 11.433,18.784 11.514 M10.727 17.050 C 10.535 17.089,10.150 17.506,10.075 17.756 C 9.993 18.031,10.048 18.297,10.346 19.060 C 10.940 20.577,12.266 21.969,13.666 22.544 C 14.475 22.877,14.816 22.933,16.000 22.933 C 16.986 22.933,17.139 22.921,17.547 22.808 C 19.542 22.254,21.098 20.746,21.792 18.693 C 21.994 18.097,21.992 17.781,21.784 17.485 C 21.695 17.358,21.527 17.199,21.411 17.131 C 21.128 16.967,20.913 16.994,19.827 17.330 C 18.283 17.809,17.316 17.971,16.000 17.971 C 14.692 17.971,13.725 17.810,12.187 17.337 C 11.334 17.074,10.964 17.001,10.727 17.050 M14.080 19.843 C 15.427 20.056,16.905 20.034,18.304 19.782 C 18.628 19.724,18.907 19.689,18.922 19.704 C 18.964 19.746,18.590 20.082,18.230 20.327 C 17.534 20.799,16.972 20.958,16.000 20.958 C 15.222 20.958,14.805 20.875,14.267 20.613 C 13.845 20.407,13.202 19.939,13.113 19.774 C 13.058 19.671,13.065 19.666,13.234 19.701 C 13.333 19.721,13.713 19.785,14.080 19.843 " fill="#1A1C1F" stroke="none" fill-rule="evenodd"></path></svg>