<svg width="24" height="24" viewBox="0 0 24 24" fill="none" xmlns="http://www.w3.org/2000/svg"><path d="M11.078 3.059 C 9.841 3.211,8.987 3.464,7.940 3.990 C 6.536 4.696,5.282 5.821,4.430 7.140 C 3.456 8.649,2.944 10.519,3.013 12.320 C 3.097 14.535,3.969 16.597,5.496 18.188 C 6.835 19.583,8.394 20.445,10.260 20.820 C 11.815 21.133,13.320 21.035,14.840 20.521 C 16.262 20.041,17.296 19.397,18.362 18.325 C 19.186 17.498,19.762 16.670,20.201 15.683 C 21.541 12.672,21.166 9.261,19.203 6.620 C 18.845 6.138,18.106 5.372,17.640 5.001 C 16.313 3.944,14.576 3.221,13.028 3.081 C 12.285 3.014,11.515 3.006,11.078 3.059 M12.351 5.040 C 13.887 5.125,15.194 5.614,16.364 6.542 C 17.731 7.625,18.716 9.358,18.919 11.039 C 18.989 11.619,18.970 12.691,18.881 13.213 C 18.622 14.732,17.815 16.178,16.650 17.211 C 15.285 18.422,13.517 19.062,11.740 18.988 C 8.728 18.863,6.177 16.881,5.303 13.985 C 5.092 13.288,5.040 12.892,5.040 12.003 C 5.040 11.477,5.061 11.102,5.102 10.860 C 5.549 8.271,7.374 6.158,9.873 5.337 C 10.198 5.231,10.857 5.097,11.320 5.045 C 11.485 5.026,11.629 5.008,11.640 5.006 C 11.651 5.004,11.971 5.019,12.351 5.040 M8.813 8.595 C 8.425 8.740,8.127 9.000,7.937 9.360 C 7.882 9.465,7.859 9.613,7.847 9.951 C 7.832 10.383,7.836 10.411,7.946 10.629 C 8.172 11.078,8.609 11.399,9.097 11.474 C 9.717 11.569,10.374 11.208,10.665 10.612 C 10.756 10.428,10.769 10.350,10.769 10.000 C 10.769 9.645,10.756 9.573,10.660 9.377 C 10.522 9.093,10.237 8.810,9.950 8.670 C 9.636 8.517,9.114 8.482,8.813 8.595 M14.213 8.595 C 13.825 8.740,13.527 9.000,13.337 9.360 C 13.282 9.465,13.259 9.613,13.247 9.951 C 13.232 10.383,13.236 10.411,13.346 10.629 C 13.572 11.078,14.009 11.399,14.497 11.474 C 15.117 11.569,15.774 11.208,16.065 10.612 C 16.156 10.428,16.169 10.350,16.169 10.000 C 16.169 9.645,16.156 9.573,16.060 9.377 C 15.922 9.093,15.637 8.810,15.350 8.670 C 15.036 8.517,14.514 8.482,14.213 8.595 M9.160 14.035 C 8.712 14.057,8.641 14.071,8.474 14.169 C 7.998 14.449,7.863 15.103,8.186 15.568 C 8.352 15.808,8.548 15.921,8.867 15.962 C 9.237 16.010,14.744 16.007,15.114 15.959 C 15.461 15.914,15.618 15.828,15.792 15.585 C 16.148 15.089,16.003 14.430,15.474 14.140 L 15.260 14.023 12.460 14.017 C 10.920 14.013,9.435 14.022,9.160 14.035 " fill="#1A1C1F" stroke="none" fill-rule="evenodd"></path></svg>