<svg xmlns="http://www.w3.org/2000/svg" width="16" height="16" fill="none"><g clip-path="url(#a)"><path fill="#1A1C1F" fill-rule="evenodd" d="M8 2.4a5.6 5.6 0 1 1 0 11.2A5.6 5.6 0 0 1 8 2.4M8 4C5.794 4 4 5.794 4 8s1.794 4 4 4 4-1.794 4-4-1.794-4-4-4m1.614 4.576a.799.799 0 0 1 .542 1.389c-.093.085-.944.834-2.158.834-1.215 0-2.061-.743-2.154-.828a.795.795 0 0 1-.053-1.12.803.803 0 0 1 1.127-.065c.005.004.478.414 1.08.414.593 0 1.063-.4 1.082-.417a.8.8 0 0 1 .534-.207M6.4 5.6a1 1 0 1 1 0 2 1 1 0 0 1 0-2m3.2 0a1 1 0 1 1 0 2 1 1 0 0 1 0-2" clip-rule="evenodd"/></g><defs><clipPath id="a"><path fill="#fff" d="M0 0h16v16H0z"/></clipPath></defs></svg>