<svg xmlns="http://www.w3.org/2000/svg" width="14" height="14" fill="none"><g clip-path="url(#a)"><path fill="#1A1C1F" fill-rule="evenodd" d="M7 2.1a4.9 4.9 0 1 1 0 9.8 4.9 4.9 0 0 1 0-9.8m0 1.4C5.07 3.5 3.5 5.07 3.5 7s1.57 3.5 3.5 3.5 3.5-1.57 3.5-3.5S8.93 3.5 7 3.5m1.413 4.004a.699.699 0 0 1 .473 1.215c-.08.075-.826.73-1.888.73-1.063 0-1.803-.65-1.885-.724a.696.696 0 0 1-.046-.98.7.7 0 0 1 .987-.057c.004.004.417.362.945.362.518 0 .93-.35.946-.365a.7.7 0 0 1 .468-.181M5.6 4.9a.875.875 0 1 1 0 1.75.875.875 0 0 1 0-1.75m2.8 0a.875.875 0 1 1 0 1.75.875.875 0 0 1 0-1.75" clip-rule="evenodd"/></g><defs><clipPath id="a"><path fill="#fff" d="M0 0h14v14H0z"/></clipPath></defs></svg>