<svg width="20" height="20" viewBox="0 0 20 20" fill="none" xmlns="http://www.w3.org/2000/svg"><path d="M9.371 3.033 C 8.002 3.155,6.577 3.750,5.513 4.643 C 3.933 5.968,3.001 7.958,3.001 10.000 C 3.001 11.077,3.261 12.154,3.759 13.141 C 4.179 13.971,4.617 14.534,5.405 15.256 C 6.580 16.332,8.333 17.000,9.983 17.000 C 11.303 17.000,12.783 16.560,13.833 15.857 C 14.356 15.506,15.074 14.837,15.515 14.288 C 16.240 13.387,16.728 12.255,16.923 11.019 C 17.002 10.515,17.002 9.418,16.922 8.950 C 16.568 6.884,15.439 5.167,13.733 4.099 C 13.395 3.887,12.709 3.543,12.380 3.420 C 12.042 3.294,11.434 3.145,11.012 3.087 C 10.551 3.022,9.773 2.997,9.371 3.033 M10.433 5.034 C 12.310 5.199,13.945 6.422,14.645 8.184 C 15.293 9.818,14.997 11.743,13.886 13.122 C 13.152 14.033,12.071 14.688,10.933 14.911 C 10.317 15.033,9.382 15.006,8.806 14.850 C 7.828 14.587,7.042 14.122,6.361 13.406 C 4.501 11.450,4.581 8.295,6.537 6.418 C 7.362 5.627,8.430 5.133,9.528 5.035 C 9.951 4.997,10.013 4.997,10.433 5.034 M8.378 7.402 C 8.167 7.443,8.052 7.515,7.772 7.783 C 7.531 8.013,7.502 8.030,7.301 8.066 C 7.024 8.117,6.863 8.201,6.681 8.391 C 6.233 8.859,6.350 9.586,6.928 9.925 C 7.055 10.000,7.129 10.016,7.382 10.027 C 8.019 10.054,8.584 9.813,9.097 9.296 C 9.338 9.053,9.491 8.809,9.552 8.568 C 9.599 8.386,9.599 8.347,9.551 8.158 C 9.489 7.912,9.368 7.726,9.173 7.577 C 8.970 7.422,8.644 7.350,8.378 7.402 M10.970 7.470 C 10.575 7.668,10.346 8.111,10.428 8.520 C 10.482 8.785,10.641 9.046,10.917 9.320 C 11.192 9.593,11.511 9.791,11.887 9.922 C 12.113 10.001,12.203 10.014,12.533 10.015 C 12.891 10.017,12.927 10.011,13.070 9.926 C 13.370 9.750,13.560 9.450,13.590 9.104 C 13.631 8.642,13.251 8.161,12.783 8.083 C 12.500 8.036,12.422 7.991,12.169 7.732 C 11.958 7.516,11.887 7.465,11.736 7.420 C 11.444 7.334,11.212 7.349,10.970 7.470 M9.550 10.133 C 9.182 10.192,8.736 10.400,8.425 10.659 C 7.911 11.086,7.505 11.845,7.579 12.240 C 7.610 12.405,7.784 12.650,7.962 12.778 C 8.093 12.874,8.129 12.883,8.345 12.881 C 8.544 12.879,8.630 12.858,8.867 12.753 C 9.266 12.578,9.484 12.534,9.967 12.534 C 10.462 12.535,10.719 12.584,11.100 12.752 C 11.256 12.820,11.447 12.884,11.525 12.893 C 11.926 12.938,12.319 12.625,12.386 12.207 C 12.427 11.951,12.194 11.367,11.918 11.033 C 11.557 10.597,11.006 10.241,10.583 10.171 C 10.289 10.123,9.741 10.102,9.550 10.133 " fill="#1A1C1F" stroke="none" fill-rule="evenodd"></path></svg>