<svg xmlns="http://www.w3.org/2000/svg" width="16" height="16" fill="none"><g clip-path="url(#a)"><path fill="#1A1C1F" fill-rule="evenodd" d="M12 8c0 2.206-1.794 4-4 4s-4-1.794-4-4 1.794-4 4-4 4 1.794 4 4M2.4 8a5.6 5.6 0 1 0 11.2 0A5.6 5.6 0 0 0 2.4 8m5.174-.938a.787.787 0 0 0-.304-1.059.813.813 0 0 0-1.09.273.36.36 0 0 1-.283.166.801.801 0 0 0 .023 1.6h.024c1.083-.033 1.578-.884 1.63-.98m2.53-.62a.36.36 0 0 1-.284-.164.8.8 0 0 0-1.395.784c.053.096.547.947 1.63.98h.024a.8.8 0 0 0 .024-1.6m-.205 3.092c-.125-.505-.684-1.462-1.901-1.462-1.21 0-1.786.948-1.922 1.449-.07.255.03.524.244.68a.645.645 0 0 0 .73.02c.013-.009.344-.217.936-.217.581 0 .912.2.936.217a.64.64 0 0 0 .72-.004.64.64 0 0 0 .257-.683" clip-rule="evenodd"/></g><defs><clipPath id="a"><path fill="#fff" d="M0 0h16v16H0z"/></clipPath></defs></svg>