<svg width="12" height="12" viewBox="0 0 12 12" fill="none" xmlns="http://www.w3.org/2000/svg"><path d="M5.710 1.814 C 4.765 1.877,3.826 2.289,3.124 2.951 C 1.973 4.034,1.523 5.690,1.973 7.180 C 2.192 7.902,2.502 8.418,3.042 8.958 C 3.463 9.379,3.839 9.640,4.329 9.849 C 5.483 10.342,6.747 10.310,7.858 9.758 C 8.355 9.512,8.730 9.222,9.153 8.757 C 9.891 7.947,10.291 6.735,10.182 5.633 C 10.104 4.837,9.825 4.110,9.360 3.490 C 9.080 3.117,8.695 2.754,8.320 2.508 C 8.121 2.378,7.701 2.161,7.480 2.074 C 6.981 1.877,6.287 1.776,5.710 1.814 M6.279 3.022 C 7.308 3.118,8.213 3.741,8.684 4.676 C 9.115 5.532,9.087 6.618,8.612 7.456 C 8.407 7.819,8.053 8.214,7.727 8.445 C 7.401 8.677,6.968 8.863,6.550 8.951 C 6.325 8.999,5.675 8.999,5.450 8.951 C 5.221 8.903,4.852 8.776,4.667 8.683 C 4.124 8.411,3.599 7.893,3.336 7.372 C 2.856 6.421,2.910 5.267,3.475 4.390 C 3.972 3.619,4.804 3.108,5.700 3.022 C 5.949 2.998,6.025 2.998,6.279 3.022 M4.772 4.400 C 4.460 4.456,4.078 4.664,3.934 4.855 C 3.843 4.975,3.814 5.059,3.813 5.211 C 3.811 5.326,3.821 5.372,3.867 5.465 C 3.996 5.729,4.286 5.860,4.572 5.782 C 4.617 5.770,4.707 5.726,4.773 5.683 C 4.890 5.607,4.896 5.606,5.124 5.596 C 5.312 5.587,5.374 5.577,5.452 5.539 C 5.566 5.484,5.679 5.376,5.727 5.274 C 5.897 4.916,5.730 4.542,5.351 4.429 C 5.227 4.392,4.903 4.376,4.772 4.400 M6.761 4.403 C 6.417 4.460,6.216 4.679,6.212 5.000 C 6.210 5.180,6.256 5.296,6.375 5.415 C 6.509 5.549,6.609 5.584,6.885 5.596 C 7.114 5.605,7.128 5.608,7.190 5.663 C 7.305 5.764,7.431 5.807,7.611 5.808 C 7.754 5.808,7.785 5.801,7.881 5.747 C 8.086 5.632,8.217 5.390,8.194 5.169 C 8.145 4.694,7.402 4.297,6.761 4.403 M4.906 6.439 C 4.826 6.458,4.770 6.495,4.683 6.582 C 4.579 6.688,4.551 6.755,4.552 6.900 C 4.552 7.234,4.909 7.731,5.294 7.935 C 6.112 8.368,7.111 7.963,7.398 7.082 C 7.421 7.011,7.440 6.934,7.440 6.910 C 7.440 6.813,7.378 6.664,7.307 6.591 C 7.142 6.421,6.936 6.394,6.681 6.509 C 6.433 6.622,6.306 6.647,5.990 6.647 C 5.676 6.647,5.550 6.622,5.301 6.512 C 5.137 6.439,5.007 6.415,4.906 6.439 " fill="#1A1C1F" stroke="none" fill-rule="evenodd"></path></svg>