<svg xmlns="http://www.w3.org/2000/svg" width="14" height="14" fill="none"><g clip-path="url(#a)"><path fill="#1A1C1F" fill-rule="evenodd" d="M7 2.1a4.9 4.9 0 1 1 0 9.8 4.9 4.9 0 0 1 0-9.8m0 1.4C5.07 3.5 3.5 5.07 3.5 7s1.57 3.5 3.5 3.5 3.5-1.57 3.5-3.5S8.93 3.5 7 3.5m-.002 3.655c1.062 0 1.807.656 1.888.73a.7.7 0 0 1-.941 1.034c-.017-.014-.428-.364-.946-.364-.44 0-.8.249-.91.334l-.035.028a.7.7 0 0 1-.987-.056.696.696 0 0 1 .046-.981c.082-.074.822-.725 1.885-.725M5.6 4.9a.875.875 0 1 1 0 1.75.875.875 0 0 1 0-1.75m2.8 0a.875.875 0 1 1 0 1.75.875.875 0 0 1 0-1.75" clip-rule="evenodd"/></g><defs><clipPath id="a"><path fill="#fff" d="M0 0h14v14H0z"/></clipPath></defs></svg>