<svg xmlns="http://www.w3.org/2000/svg" width="28" height="28" fill="none"><g clip-path="url(#a)"><path fill="#1A1C1F" fill-rule="evenodd" d="M14 3.5c5.799 0 10.5 4.701 10.5 10.5S19.799 24.5 14 24.5 3.5 19.799 3.5 14 8.201 3.5 14 3.5m0 1.481c-4.973 0-9.019 4.046-9.019 9.019S9.027 23.019 14 23.019s9.019-4.046 9.019-9.019S18.973 4.981 14 4.981m4.34 10.769a.875.875 0 0 1 .622 1.491c-.081.082-2.026 2.009-4.962 2.009s-4.88-1.927-4.962-2.009a.875.875 0 1 1 1.242-1.232c.015.014 1.505 1.491 3.72 1.491 2.19 0 3.707-1.479 3.72-1.491a.87.87 0 0 1 .62-.259m-7.402-6.125a1.75 1.75 0 1 1 0 3.5 1.75 1.75 0 0 1 0-3.5m6.124 0a1.75 1.75 0 1 1 0 3.5 1.75 1.75 0 0 1 0-3.5" clip-rule="evenodd"/></g><defs><clipPath id="a"><path fill="#fff" d="M0 0h28v28H0z"/></clipPath></defs></svg>