<svg xmlns="http://www.w3.org/2000/svg" width="24" height="24" fill="none"><g clip-path="url(#a)"><path fill="#1A1C1F" fill-rule="evenodd" d="M12 3a9 9 0 0 1 9 9 9 9 0 0 1-9 9 9 9 0 0 1-9-9 9 9 0 0 1 9-9m0 2c-3.86 0-7 3.14-7 7s3.14 7 7 7 7-3.14 7-7-3.14-7-7-7m-.001 8c2.31 0 3.857 1.153 3.922 1.202a1 1 0 0 1-1.203 1.598c-.023-.017-1.116-.8-2.719-.8-1.613 0-2.708.792-2.719.8a1 1 0 0 1-1.397-.205.997.997 0 0 1 .194-1.393C8.141 14.153 9.689 13 11.999 13M9.3 8.5a1.5 1.5 0 1 1 0 3 1.5 1.5 0 0 1 0-3m5.4 0a1.5 1.5 0 1 1 0 3 1.5 1.5 0 0 1 0-3" clip-rule="evenodd"/></g><defs><clipPath id="a"><path fill="#fff" d="M0 0h24v24H0z"/></clipPath></defs></svg>