<svg xmlns="http://www.w3.org/2000/svg" width="28" height="28" fill="none"><g clip-path="url(#a)"><path fill="#1A1C1F" fill-rule="evenodd" d="M23.019 14c0 4.973-4.046 9.019-9.019 9.019S4.981 18.973 4.981 14 9.027 4.981 14 4.981 23.019 9.027 23.019 14M3.5 14c0 5.799 4.701 10.5 10.5 10.5S24.5 19.799 24.5 14 19.799 3.5 14 3.5 3.5 8.201 3.5 14m14.875 3.5a.875.875 0 0 0-.875-.875h-7a.875.875 0 1 0 0 1.75h7a.875.875 0 0 0 .875-.875m-9.187-6.125a1.75 1.75 0 1 1 3.498-.001 1.75 1.75 0 0 1-3.498.001m7.874 1.75a1.75 1.75 0 1 0 .002-3.499 1.75 1.75 0 0 0-.002 3.499" clip-rule="evenodd"/></g><defs><clipPath id="a"><path fill="#fff" d="M0 0h28v28H0z"/></clipPath></defs></svg>