<svg xmlns="http://www.w3.org/2000/svg" width="14" height="14" fill="none"><g clip-path="url(#a)"><path fill="#1A1C1F" fill-rule="evenodd" d="M7 2.1a4.9 4.9 0 1 1 0 9.8 4.9 4.9 0 0 1 0-9.8m0 1.4C5.07 3.5 3.5 5.07 3.5 7s1.57 3.5 3.5 3.5 3.5-1.57 3.5-3.5S8.93 3.5 7 3.5m1.4 4.2a.7.7 0 1 1 0 1.4H5.6a.7.7 0 1 1 0-1.4zM5.6 4.9a.875.875 0 1 1 0 1.75.875.875 0 0 1 0-1.75m2.8 0a.875.875 0 1 1 0 1.75.875.875 0 0 1 0-1.75" clip-rule="evenodd"/></g><defs><clipPath id="a"><path fill="#fff" d="M0 0h14v14H0z"/></clipPath></defs></svg>