<svg width="16" height="16" viewBox="0 0 16 16" fill="none" xmlns="http://www.w3.org/2000/svg"><path d="M7.497 2.426 C 6.403 2.524,5.260 3.001,4.410 3.714 C 3.147 4.775,2.400 6.366,2.400 8.000 C 2.400 9.338,2.925 10.720,3.796 11.676 C 4.361 12.296,4.861 12.683,5.522 13.011 C 7.005 13.747,8.688 13.790,10.228 13.132 C 10.878 12.855,11.390 12.501,11.945 11.945 C 12.833 11.057,13.332 10.076,13.538 8.813 C 13.603 8.415,13.602 7.540,13.537 7.160 C 13.255 5.508,12.351 4.133,10.987 3.279 C 10.716 3.110,10.167 2.834,9.904 2.736 C 9.634 2.635,9.147 2.516,8.810 2.469 C 8.440 2.418,7.819 2.397,7.497 2.426 M8.372 4.029 C 10.060 4.187,11.479 5.415,11.878 7.065 C 12.117 8.050,11.953 9.156,11.442 10.015 C 10.852 11.007,9.868 11.705,8.747 11.929 C 8.257 12.026,7.507 12.005,7.044 11.880 C 6.263 11.670,5.633 11.298,5.088 10.725 C 3.601 9.160,3.665 6.636,5.230 5.134 C 6.082 4.317,7.210 3.920,8.372 4.029 M6.702 5.922 C 6.533 5.954,6.441 6.012,6.217 6.226 C 6.025 6.410,6.002 6.424,5.841 6.453 C 5.619 6.493,5.491 6.561,5.345 6.713 C 4.986 7.087,5.080 7.669,5.542 7.940 C 5.644 8.000,5.703 8.013,5.905 8.022 C 6.415 8.043,6.867 7.851,7.278 7.437 C 7.470 7.243,7.593 7.047,7.642 6.854 C 7.679 6.709,7.679 6.677,7.641 6.527 C 7.591 6.329,7.494 6.181,7.338 6.062 C 7.176 5.938,6.915 5.880,6.702 5.922 M8.780 5.973 C 8.492 6.119,8.342 6.365,8.338 6.695 C 8.336 6.836,8.350 6.901,8.411 7.024 C 8.700 7.614,9.446 8.053,10.106 8.022 C 10.296 8.013,10.359 7.998,10.458 7.940 C 10.696 7.800,10.848 7.559,10.872 7.283 C 10.905 6.913,10.601 6.529,10.227 6.467 C 9.995 6.428,9.935 6.395,9.767 6.212 C 9.558 5.986,9.426 5.919,9.153 5.902 C 8.961 5.889,8.935 5.894,8.780 5.973 M7.640 8.106 C 7.344 8.154,6.988 8.321,6.740 8.527 C 6.331 8.868,6.016 9.447,6.065 9.770 C 6.087 9.921,6.215 10.111,6.369 10.223 C 6.475 10.299,6.503 10.306,6.676 10.305 C 6.835 10.303,6.904 10.286,7.093 10.203 C 7.413 10.062,7.587 10.027,7.973 10.028 C 8.370 10.028,8.575 10.067,8.880 10.201 C 9.005 10.256,9.158 10.307,9.220 10.314 C 9.541 10.350,9.855 10.100,9.909 9.766 C 9.942 9.561,9.756 9.093,9.535 8.827 C 9.246 8.478,8.805 8.193,8.467 8.137 C 8.231 8.097,7.793 8.081,7.640 8.106 " fill="#1A1C1F" stroke="none" fill-rule="evenodd"></path></svg>