<svg xmlns="http://www.w3.org/2000/svg" width="32" height="32" fill="none"><g clip-path="url(#a)"><path fill="#1A1C1F" fill-rule="evenodd" d="M16 4c6.627 0 12 5.373 12 12s-5.373 12-12 12S4 22.627 4 16 9.373 4 16 4m0 1.693C10.317 5.693 5.693 10.317 5.693 16S10.317 26.307 16 26.307 26.307 21.683 26.307 16 21.683 5.693 16 5.693M16 17.5c3.356 0 5.578 2.202 5.671 2.296a1 1 0 1 1-1.42 1.408C20.237 21.19 18.502 19.5 16 19.5c-2.532 0-4.234 1.688-4.251 1.704a1 1 0 1 1-1.42-1.408c.093-.094 2.315-2.296 5.671-2.296M12.5 11a2 2 0 1 1 0 4 2 2 0 0 1 0-4m7 0a2 2 0 1 1 0 4 2 2 0 0 1 0-4" clip-rule="evenodd"/></g><defs><clipPath id="a"><path fill="#fff" d="M0 0h32v32H0z"/></clipPath></defs></svg>