<svg width="14" height="14" viewBox="0 0 14 14" fill="none" xmlns="http://www.w3.org/2000/svg"><path d="M6.545 2.125 C 5.686 2.201,4.780 2.552,4.060 3.088 C 3.768 3.305,3.275 3.803,3.059 4.099 C 2.397 5.005,2.068 6.063,2.106 7.160 C 2.144 8.211,2.508 9.214,3.140 10.002 C 3.446 10.384,3.950 10.854,4.317 11.100 C 5.189 11.684,6.440 11.991,7.478 11.876 C 8.295 11.786,9.151 11.472,9.777 11.033 C 10.222 10.721,10.773 10.164,11.060 9.734 C 11.899 8.481,12.118 6.945,11.664 5.513 C 11.399 4.680,10.910 3.934,10.233 3.331 C 9.733 2.886,9.008 2.485,8.366 2.299 C 7.809 2.138,7.132 2.073,6.545 2.125 M7.288 3.524 C 8.780 3.645,10.040 4.723,10.393 6.180 C 10.687 7.396,10.296 8.699,9.381 9.549 C 8.894 10.001,8.315 10.299,7.642 10.443 C 7.380 10.499,6.622 10.499,6.358 10.443 C 6.091 10.387,5.660 10.239,5.444 10.131 C 4.776 9.795,4.158 9.167,3.852 8.515 C 3.271 7.275,3.440 5.839,4.291 4.798 C 4.888 4.068,5.744 3.610,6.673 3.525 C 6.965 3.498,6.968 3.498,7.288 3.524 M5.421 4.924 C 4.990 5.010,4.668 5.468,4.738 5.899 C 4.783 6.177,4.982 6.444,5.237 6.569 C 5.351 6.624,5.393 6.632,5.600 6.632 C 5.809 6.632,5.848 6.625,5.968 6.566 C 6.140 6.482,6.297 6.324,6.383 6.148 C 6.445 6.022,6.452 5.986,6.452 5.775 C 6.452 5.572,6.444 5.525,6.390 5.411 C 6.308 5.235,6.189 5.109,6.026 5.023 C 5.818 4.913,5.632 4.883,5.421 4.924 M8.221 4.924 C 7.790 5.010,7.468 5.468,7.538 5.899 C 7.583 6.177,7.782 6.444,8.037 6.569 C 8.151 6.624,8.193 6.632,8.400 6.632 C 8.609 6.632,8.648 6.625,8.768 6.566 C 8.940 6.482,9.097 6.324,9.183 6.148 C 9.245 6.022,9.252 5.986,9.252 5.775 C 9.252 5.572,9.244 5.525,9.190 5.411 C 9.108 5.235,8.989 5.109,8.826 5.023 C 8.618 4.913,8.432 4.883,8.221 4.924 M5.421 7.536 C 5.222 7.583,4.976 7.812,4.924 7.999 C 4.893 8.109,4.893 8.317,4.924 8.428 C 5.020 8.774,5.773 9.245,6.467 9.393 C 7.197 9.549,8.054 9.343,8.710 8.855 C 9.017 8.627,9.116 8.443,9.094 8.141 C 9.082 7.962,8.992 7.773,8.879 7.687 C 8.565 7.448,8.291 7.455,7.910 7.709 C 7.641 7.889,7.621 7.900,7.411 7.972 C 6.975 8.121,6.615 8.054,6.108 7.727 C 5.800 7.528,5.639 7.484,5.421 7.536 " fill="#1A1C1F" stroke="none" fill-rule="evenodd"></path></svg>