<svg xmlns="http://www.w3.org/2000/svg" width="32" height="32" fill="none"><g clip-path="url(#a)"><path fill="#1A1C1F" fill-rule="evenodd" d="M26.307 16c0 5.683-4.624 10.307-10.307 10.307S5.693 21.683 5.693 16 10.317 5.693 16 5.693 26.307 10.317 26.307 16M4 16c0 6.627 5.373 12 12 12s12-5.373 12-12S22.627 4 16 4 4 9.373 4 16m6.064 2.222a1 1 0 0 1 1.359-1.145c.022.01 2.258.924 4.577.924s4.555-.914 4.577-.924a1 1 0 0 1 1.359 1.145C21.56 19.875 19.834 23 16 23s-5.56-3.125-5.936-4.778m2.922 1.416C13.593 20.353 14.545 21 16 21s2.406-.647 3.014-1.362c-.878.199-1.929.362-3.014.362s-2.135-.163-3.014-.362m.435-5.863a.998.998 0 1 0 1.217-1.586 4 4 0 0 0-5.609.738 1 1 0 1 0 1.587 1.216 2.007 2.007 0 0 1 2.805-.368m9.589-.847a3.97 3.97 0 0 0-2.651-1.531 3.97 3.97 0 0 0-2.957.793 1 1 0 1 0 1.217 1.586 1.98 1.98 0 0 1 1.479-.396c.529.069 1 .341 1.325.765a1 1 0 0 0 1.402.185 1 1 0 0 0 .185-1.402" clip-rule="evenodd"/></g><defs><clipPath id="a"><path fill="#fff" d="M0 0h32v32H0z"/></clipPath></defs></svg>