<svg width="20" height="20" viewBox="0 0 20 20" fill="none" xmlns="http://www.w3.org/2000/svg"><path d="M9.371 3.033 C 8.002 3.155,6.577 3.750,5.513 4.643 C 3.933 5.968,3.001 7.958,3.001 10.000 C 3.001 11.077,3.261 12.154,3.759 13.141 C 4.179 13.971,4.617 14.534,5.405 15.256 C 6.580 16.332,8.333 17.000,9.983 17.000 C 11.303 17.000,12.783 16.560,13.833 15.857 C 14.356 15.506,15.074 14.837,15.515 14.288 C 16.240 13.387,16.728 12.255,16.923 11.019 C 17.002 10.515,17.002 9.418,16.922 8.950 C 16.568 6.884,15.439 5.167,13.733 4.099 C 13.395 3.887,12.709 3.543,12.380 3.420 C 12.042 3.294,11.434 3.145,11.012 3.087 C 10.551 3.022,9.773 2.997,9.371 3.033 M10.433 5.034 C 12.310 5.199,13.945 6.422,14.645 8.184 C 15.293 9.818,14.997 11.743,13.886 13.122 C 13.152 14.033,12.071 14.688,10.933 14.911 C 10.317 15.033,9.382 15.006,8.806 14.850 C 7.828 14.587,7.042 14.122,6.361 13.406 C 4.501 11.450,4.581 8.295,6.537 6.418 C 7.362 5.627,8.430 5.133,9.528 5.035 C 9.951 4.997,10.013 4.997,10.433 5.034 M8.050 7.319 C 8.013 7.327,7.901 7.350,7.800 7.370 C 7.560 7.418,7.114 7.627,6.848 7.817 C 6.506 8.061,6.348 8.342,6.353 8.700 C 6.360 9.352,6.980 9.810,7.620 9.637 C 7.694 9.617,7.845 9.543,7.955 9.472 C 8.150 9.345,8.160 9.343,8.540 9.326 C 8.853 9.312,8.957 9.294,9.086 9.232 C 9.277 9.139,9.464 8.959,9.545 8.790 C 9.828 8.194,9.550 7.570,8.918 7.382 C 8.751 7.332,8.173 7.290,8.050 7.319 M11.268 7.338 C 10.695 7.433,10.359 7.798,10.354 8.333 C 10.350 8.633,10.426 8.826,10.624 9.024 C 10.848 9.248,11.016 9.307,11.475 9.326 C 11.857 9.342,11.880 9.347,11.984 9.438 C 12.176 9.607,12.385 9.679,12.686 9.679 C 12.924 9.680,12.975 9.669,13.136 9.578 C 13.476 9.387,13.695 8.983,13.657 8.615 C 13.575 7.823,12.336 7.161,11.268 7.338 M8.128 10.746 C 7.894 10.831,7.659 11.083,7.596 11.314 C 7.455 11.840,8.096 12.839,8.824 13.225 C 9.916 13.804,11.229 13.503,11.987 12.500 C 12.098 12.352,12.311 11.899,12.367 11.690 C 12.456 11.355,12.281 10.979,11.959 10.819 C 11.703 10.692,11.465 10.700,11.135 10.849 C 10.721 11.036,10.510 11.078,9.983 11.078 C 9.459 11.078,9.249 11.037,8.836 10.852 C 8.535 10.718,8.300 10.683,8.128 10.746 " fill="#1A1C1F" stroke="none" fill-rule="evenodd"></path></svg>