<svg width="28" height="28" viewBox="0 0 28 28" fill="none" xmlns="http://www.w3.org/2000/svg"><path d="M12.880 3.573 C 11.567 3.732,10.588 4.017,9.450 4.572 C 8.220 5.172,7.413 5.752,6.483 6.704 C 2.773 10.502,2.500 16.454,5.847 20.603 C 6.264 21.119,7.162 21.980,7.735 22.410 C 9.612 23.822,12.000 24.572,14.350 24.486 C 17.926 24.355,21.154 22.447,23.008 19.367 C 25.189 15.743,24.951 11.151,22.404 7.723 C 21.986 7.161,21.123 6.267,20.580 5.835 C 19.032 4.601,17.005 3.758,15.199 3.595 C 14.306 3.514,13.436 3.506,12.880 3.573 M14.506 5.040 C 15.857 5.108,16.682 5.315,17.863 5.882 C 19.109 6.479,20.200 7.343,21.050 8.406 C 23.184 11.073,23.599 14.749,22.119 17.860 C 21.668 18.808,21.169 19.522,20.420 20.293 C 19.378 21.365,18.227 22.086,16.798 22.561 C 15.794 22.895,15.251 22.976,13.977 22.978 C 12.978 22.980,12.861 22.971,12.297 22.851 C 10.416 22.452,8.890 21.632,7.621 20.340 C 6.841 19.545,6.418 18.949,5.923 17.943 C 5.573 17.234,5.344 16.585,5.173 15.820 C 5.072 15.368,5.063 15.226,5.063 14.000 C 5.063 12.774,5.072 12.632,5.173 12.180 C 5.704 9.809,7.040 7.835,9.012 6.508 C 10.101 5.775,11.506 5.246,12.833 5.068 C 13.454 4.986,13.431 4.986,14.506 5.040 M10.399 9.722 C 9.913 9.904,9.548 10.235,9.341 10.681 C 9.176 11.037,9.167 11.710,9.322 12.053 C 9.461 12.362,9.898 12.806,10.216 12.962 C 10.448 13.075,10.528 13.090,10.943 13.089 C 11.514 13.088,11.745 12.994,12.135 12.603 C 12.414 12.323,12.572 12.036,12.652 11.661 C 12.802 10.962,12.361 10.126,11.676 9.810 C 11.354 9.662,10.685 9.616,10.399 9.722 M16.502 9.726 C 16.239 9.824,15.858 10.099,15.681 10.319 C 15.444 10.614,15.344 10.927,15.339 11.387 C 15.335 11.723,15.353 11.824,15.458 12.052 C 15.620 12.404,15.999 12.800,16.328 12.961 C 16.561 13.075,16.642 13.090,17.057 13.090 C 17.471 13.090,17.553 13.075,17.784 12.962 C 18.103 12.805,18.540 12.361,18.677 12.053 C 18.755 11.878,18.777 11.735,18.778 11.387 C 18.780 11.003,18.764 10.908,18.656 10.676 C 18.498 10.333,18.133 9.968,17.791 9.811 C 17.461 9.659,16.799 9.616,16.502 9.726 M9.310 15.847 C 9.093 15.960,8.956 16.105,8.856 16.327 C 8.661 16.760,8.869 17.155,9.566 17.681 C 11.616 19.225,14.004 19.638,16.287 18.843 C 17.569 18.397,19.034 17.382,19.183 16.839 C 19.325 16.319,18.889 15.778,18.326 15.774 C 18.100 15.773,17.970 15.842,17.401 16.265 C 16.831 16.690,16.432 16.915,15.902 17.115 C 15.146 17.399,14.754 17.472,13.977 17.472 C 13.362 17.473,13.222 17.458,12.826 17.349 C 11.884 17.089,11.292 16.797,10.523 16.212 C 10.318 16.055,10.083 15.893,10.001 15.850 C 9.813 15.753,9.493 15.752,9.310 15.847 " fill="#1A1C1F" stroke="none" fill-rule="evenodd"></path></svg>