<svg xmlns="http://www.w3.org/2000/svg" width="12" height="12" fill="none"><g clip-path="url(#a)"><path fill="#1A1C1F" fill-rule="evenodd" d="M9 6c0 1.654-1.346 3-3 3S3 7.654 3 6s1.346-3 3-3 3 1.346 3 3M1.8 6a4.2 4.2 0 1 0 8.4 0 4.2 4.2 0 0 0-8.4 0m3.88-.704a.59.59 0 0 0-.227-.794.61.61 0 0 0-.817.205.27.27 0 0 1-.213.124.6.6 0 0 0 .017 1.2h.018c.812-.024 1.183-.662 1.223-.735m1.897-.465a.27.27 0 0 1-.212-.122.6.6 0 0 0-1.046.587c.04.073.41.71 1.222.735h.018a.6.6 0 0 0 .018-1.2m-.153 2.32c-.093-.38-.513-1.097-1.426-1.097-.906 0-1.339.711-1.441 1.087a.484.484 0 0 0 .73.525c.01-.007.259-.163.703-.163.435 0 .683.15.701.163a.479.479 0 0 0 .733-.515" clip-rule="evenodd"/></g><defs><clipPath id="a"><path fill="#fff" d="M0 0h12v12H0z"/></clipPath></defs></svg>