<svg xmlns="http://www.w3.org/2000/svg" width="14" height="14" fill="none"><g clip-path="url(#a)"><path fill="#1A1C1F" fill-rule="evenodd" d="M10.5 7c0 1.93-1.57 3.5-3.5 3.5S3.5 8.93 3.5 7 5.07 3.5 7 3.5s3.5 1.57 3.5 3.5M2.1 7a4.9 4.9 0 1 0 9.8 0 4.9 4.9 0 0 0-9.8 0m4.528-.821a.69.69 0 0 0-.266-.926.71.71 0 0 0-.954.239.32.32 0 0 1-.248.144.701.701 0 0 0 .02 1.4h.021c.948-.028 1.38-.772 1.427-.857m2.212-.543a.32.32 0 0 1-.248-.142.7.7 0 0 0-1.22.685c.046.085.478.829 1.426.857h.021a.7.7 0 0 0 .021-1.4m-.178 2.707c-.11-.443-.599-1.28-1.664-1.28-1.058 0-1.563.83-1.682 1.268a.564.564 0 0 0 .852.612c.012-.008.302-.19.82-.19.508 0 .797.176.818.19a.558.558 0 0 0 .856-.6" clip-rule="evenodd"/></g><defs><clipPath id="a"><path fill="#fff" d="M0 0h14v14H0z"/></clipPath></defs></svg>