<svg xmlns="http://www.w3.org/2000/svg" width="16" height="16" fill="none"><g clip-path="url(#a)"><path fill="#1A1C1F" fill-rule="evenodd" d="M8 2.4a5.6 5.6 0 1 1 0 11.2A5.6 5.6 0 0 1 8 2.4M8 4C5.794 4 4 5.794 4 8s1.794 4 4 4 4-1.794 4-4-1.794-4-4-4m-.002 4.178c1.214 0 2.065.748 2.158.834a.8.8 0 0 1-1.076 1.182c-.02-.017-.489-.417-1.082-.417-.602 0-1.075.41-1.08.413a.803.803 0 0 1-1.127-.064.795.795 0 0 1 .053-1.12c.093-.085.94-.828 2.154-.828M6.4 5.6a1 1 0 1 1 0 2 1 1 0 0 1 0-2m3.2 0a1 1 0 1 1 0 2 1 1 0 0 1 0-2" clip-rule="evenodd"/></g><defs><clipPath id="a"><path fill="#fff" d="M0 0h16v16H0z"/></clipPath></defs></svg>