<svg xmlns="http://www.w3.org/2000/svg" width="24" height="24" fill="none"><g clip-path="url(#a)"><path fill="#1A1C1F" fill-rule="evenodd" d="M12 3a9 9 0 1 1 0 18 9 9 0 0 1 0-18m0 2c-3.86 0-7 3.14-7 7s3.14 7 7 7 7-3.14 7-7-3.14-7-7-7m3.315 8.501a1.001 1.001 0 0 1 .606 1.797c-.065.049-1.612 1.202-3.922 1.202s-3.858-1.153-3.922-1.202a.997.997 0 0 1 .462-1.783c.262-.039.528.028.741.185.011.008 1.106.8 2.719.8 1.603 0 2.696-.783 2.719-.8.172-.13.382-.2.597-.199M9.3 8.5a1.5 1.5 0 1 1 0 3 1.5 1.5 0 0 1 0-3m5.4 0a1.5 1.5 0 1 1 0 3 1.5 1.5 0 0 1 0-3" clip-rule="evenodd"/></g><defs><clipPath id="a"><path fill="#fff" d="M0 0h24v24H0z"/></clipPath></defs></svg>