<svg width="20" height="20" viewBox="0 0 20 20" fill="none" xmlns="http://www.w3.org/2000/svg"><path d="M9.371 3.033 C 8.002 3.155,6.577 3.750,5.513 4.643 C 3.933 5.968,3.001 7.958,3.001 10.000 C 3.001 11.077,3.261 12.154,3.759 13.141 C 4.179 13.971,4.617 14.534,5.405 15.256 C 6.580 16.332,8.333 17.000,9.983 17.000 C 11.303 17.000,12.783 16.560,13.833 15.857 C 14.356 15.506,15.074 14.837,15.515 14.288 C 16.240 13.387,16.728 12.255,16.923 11.019 C 17.002 10.515,17.002 9.418,16.922 8.950 C 16.568 6.884,15.439 5.167,13.733 4.099 C 13.395 3.887,12.709 3.543,12.380 3.420 C 12.042 3.294,11.434 3.145,11.012 3.087 C 10.551 3.022,9.773 2.997,9.371 3.033 M10.433 5.034 C 12.310 5.199,13.945 6.422,14.645 8.184 C 15.293 9.818,14.997 11.743,13.886 13.122 C 13.152 14.033,12.071 14.688,10.933 14.911 C 10.317 15.033,9.382 15.006,8.806 14.850 C 7.828 14.587,7.042 14.122,6.361 13.406 C 4.501 11.450,4.581 8.295,6.537 6.418 C 7.362 5.627,8.430 5.133,9.528 5.035 C 9.951 4.997,10.013 4.997,10.433 5.034 M7.717 7.045 C 7.226 7.172,6.888 7.524,6.785 8.014 C 6.671 8.557,6.963 9.130,7.481 9.384 C 7.644 9.464,7.704 9.474,8.000 9.474 C 8.296 9.474,8.356 9.464,8.519 9.384 C 8.883 9.206,9.167 8.824,9.232 8.426 C 9.296 8.033,9.107 7.549,8.792 7.298 C 8.495 7.061,8.054 6.958,7.717 7.045 M11.717 7.045 C 11.226 7.172,10.888 7.524,10.785 8.014 C 10.671 8.557,10.963 9.130,11.481 9.384 C 11.644 9.464,11.704 9.474,12.000 9.474 C 12.296 9.474,12.356 9.464,12.519 9.384 C 12.883 9.206,13.167 8.824,13.232 8.426 C 13.296 8.033,13.107 7.549,12.792 7.298 C 12.495 7.061,12.054 6.958,11.717 7.045 M7.744 10.765 C 7.460 10.833,7.109 11.161,7.035 11.427 C 6.984 11.609,6.993 11.900,7.054 12.081 C 7.221 12.569,8.275 13.215,9.238 13.418 C 10.193 13.619,11.258 13.409,12.162 12.842 C 12.559 12.592,12.768 12.405,12.884 12.195 C 12.974 12.034,12.983 11.987,12.983 11.717 C 12.983 11.446,12.974 11.399,12.884 11.238 C 12.830 11.139,12.740 11.024,12.684 10.982 C 12.235 10.641,11.844 10.649,11.300 11.013 C 10.916 11.270,10.887 11.286,10.587 11.388 C 9.965 11.602,9.439 11.502,8.717 11.036 C 8.284 10.755,8.054 10.691,7.744 10.765 " fill="#1A1C1F" stroke="none" fill-rule="evenodd"></path></svg>