<svg xmlns="http://www.w3.org/2000/svg" width="14" height="14" fill="none"><g clip-path="url(#a)"><path fill="#1A1C1F" fill-rule="evenodd" d="M10.5 7c0 1.93-1.57 3.5-3.5 3.5S3.5 8.93 3.5 7 5.07 3.5 7 3.5s3.5 1.57 3.5 3.5M2.1 7a4.9 4.9 0 1 0 9.8 0 4.9 4.9 0 0 0-9.8 0m6.34.598a.57.57 0 0 0-.633-.013c-.012.007-.302.19-.82.19s-.807-.184-.81-.186a.56.56 0 0 0-.861.607c.119.44.624 1.269 1.681 1.269 1.066 0 1.555-.838 1.664-1.28a.56.56 0 0 0-.221-.587M5.627 6.59c.02-.018.13-.11.278-.074a.7.7 0 0 0 .322-1.363c-.923-.217-1.532.389-1.6.458a.69.69 0 0 0 .017.963.7.7 0 0 0 .496.205c.175 0 .35-.062.487-.189m3.746-.979c-.067-.07-.676-.677-1.6-.458a.7.7 0 1 0 .322 1.363.32.32 0 0 1 .277.073.7.7 0 0 0 1.001-.978" clip-rule="evenodd"/></g><defs><clipPath id="a"><path fill="#fff" d="M0 0h14v14H0z"/></clipPath></defs></svg>