<svg width="24" height="24" viewBox="0 0 24 24" fill="none" xmlns="http://www.w3.org/2000/svg"><path d="M11.078 3.059 C 9.841 3.211,8.987 3.464,7.940 3.990 C 6.536 4.696,5.282 5.821,4.430 7.140 C 3.456 8.649,2.944 10.519,3.013 12.320 C 3.097 14.535,3.969 16.597,5.496 18.188 C 6.835 19.583,8.394 20.445,10.260 20.820 C 11.815 21.133,13.320 21.035,14.840 20.521 C 16.262 20.041,17.296 19.397,18.362 18.325 C 19.186 17.498,19.762 16.670,20.201 15.683 C 21.541 12.672,21.166 9.261,19.203 6.620 C 18.845 6.138,18.106 5.372,17.640 5.001 C 16.313 3.944,14.576 3.221,13.028 3.081 C 12.285 3.014,11.515 3.006,11.078 3.059 M12.351 5.040 C 13.887 5.125,15.194 5.614,16.364 6.542 C 17.731 7.625,18.716 9.358,18.919 11.039 C 18.989 11.619,18.970 12.691,18.881 13.213 C 18.622 14.732,17.815 16.178,16.650 17.211 C 15.285 18.422,13.517 19.062,11.740 18.988 C 8.728 18.863,6.177 16.881,5.303 13.985 C 5.092 13.288,5.040 12.892,5.040 12.003 C 5.040 11.477,5.061 11.102,5.102 10.860 C 5.549 8.271,7.374 6.158,9.873 5.337 C 10.198 5.231,10.857 5.097,11.320 5.045 C 11.485 5.026,11.629 5.008,11.640 5.006 C 11.651 5.004,11.971 5.019,12.351 5.040 M8.600 8.740 C 8.101 8.839,7.589 9.131,7.214 9.528 C 6.854 9.910,6.752 10.214,6.859 10.584 C 6.977 10.988,7.327 11.270,7.760 11.309 C 8.043 11.335,8.251 11.250,8.560 10.982 C 8.800 10.774,8.980 10.680,9.141 10.680 C 9.198 10.680,9.413 10.752,9.620 10.840 C 9.889 10.955,10.050 11.000,10.188 10.998 C 10.748 10.993,11.161 10.578,11.159 10.022 C 11.157 9.555,10.934 9.270,10.341 8.976 C 9.789 8.702,9.192 8.621,8.600 8.740 M14.360 8.724 C 14.065 8.769,13.444 9.047,13.192 9.246 C 12.738 9.606,12.725 10.435,13.168 10.773 C 13.535 11.054,13.839 11.070,14.380 10.840 C 14.587 10.752,14.802 10.680,14.859 10.680 C 15.026 10.680,15.203 10.776,15.470 11.009 C 15.825 11.319,16.091 11.384,16.510 11.259 C 16.933 11.134,17.265 10.580,17.162 10.170 C 17.094 9.903,17.015 9.769,16.766 9.509 C 16.173 8.887,15.255 8.588,14.360 8.724 M8.391 12.560 C 7.892 12.710,7.610 13.216,7.713 13.777 C 7.881 14.684,8.370 15.608,9.038 16.281 C 9.582 16.829,10.165 17.172,10.880 17.366 C 11.383 17.502,12.617 17.502,13.120 17.366 C 13.835 17.172,14.418 16.829,14.962 16.281 C 15.630 15.608,16.119 14.684,16.287 13.777 C 16.374 13.303,16.198 12.879,15.824 12.660 C 15.573 12.513,15.295 12.494,14.920 12.598 C 13.548 12.978,13.082 13.050,12.000 13.050 C 10.924 13.050,10.408 12.970,9.080 12.598 C 8.802 12.520,8.567 12.507,8.391 12.560 M12.000 15.052 C 12.539 15.052,13.079 15.040,13.200 15.024 L 13.420 14.996 13.320 15.082 C 12.711 15.609,11.289 15.609,10.680 15.082 L 10.580 14.996 10.800 15.024 C 10.921 15.040,11.461 15.052,12.000 15.052 " fill="#1A1C1F" stroke="none" fill-rule="evenodd"></path></svg>