<svg width="24" height="24" viewBox="0 0 24 24" fill="none" xmlns="http://www.w3.org/2000/svg"><path d="M11.078 3.059 C 9.841 3.211,8.987 3.464,7.940 3.990 C 6.536 4.696,5.282 5.821,4.430 7.140 C 3.456 8.649,2.944 10.519,3.013 12.320 C 3.097 14.535,3.969 16.597,5.496 18.188 C 6.835 19.583,8.394 20.445,10.260 20.820 C 11.815 21.133,13.320 21.035,14.840 20.521 C 16.262 20.041,17.296 19.397,18.362 18.325 C 19.186 17.498,19.762 16.670,20.201 15.683 C 21.541 12.672,21.166 9.261,19.203 6.620 C 18.845 6.138,18.106 5.372,17.640 5.001 C 16.313 3.944,14.576 3.221,13.028 3.081 C 12.285 3.014,11.515 3.006,11.078 3.059 M12.351 5.040 C 13.887 5.125,15.194 5.614,16.364 6.542 C 17.731 7.625,18.716 9.358,18.919 11.039 C 18.989 11.619,18.970 12.691,18.881 13.213 C 18.622 14.732,17.815 16.178,16.650 17.211 C 15.285 18.422,13.517 19.062,11.740 18.988 C 8.728 18.863,6.177 16.881,5.303 13.985 C 5.092 13.288,5.040 12.892,5.040 12.003 C 5.040 11.477,5.061 11.102,5.102 10.860 C 5.549 8.271,7.374 6.158,9.873 5.337 C 10.198 5.231,10.857 5.097,11.320 5.045 C 11.485 5.026,11.629 5.008,11.640 5.006 C 11.651 5.004,11.971 5.019,12.351 5.040 M9.828 8.040 C 9.593 8.083,9.360 8.274,9.140 8.600 C 8.973 8.848,8.908 8.911,8.749 8.977 C 8.571 9.050,8.541 9.052,8.309 8.998 C 7.757 8.870,7.401 8.952,7.109 9.275 C 6.702 9.726,6.811 10.421,7.343 10.758 C 7.784 11.038,8.692 11.107,9.301 10.907 C 10.033 10.668,10.680 10.092,10.947 9.441 C 11.274 8.646,10.665 7.884,9.828 8.040 M13.626 8.065 C 13.361 8.146,13.075 8.434,13.003 8.689 C 12.810 9.380,13.399 10.294,14.340 10.763 C 15.095 11.140,16.190 11.114,16.725 10.705 C 17.202 10.341,17.268 9.664,16.868 9.246 C 16.588 8.955,16.237 8.866,15.817 8.979 C 15.344 9.107,15.131 9.022,14.858 8.596 C 14.685 8.327,14.505 8.157,14.320 8.088 C 14.121 8.014,13.823 8.005,13.626 8.065 M11.380 11.563 C 10.313 11.651,9.255 12.296,8.545 13.290 C 8.263 13.686,8.057 14.101,7.875 14.640 C 7.736 15.053,7.706 15.196,7.703 15.460 C 7.700 15.740,7.714 15.803,7.809 15.966 C 8.079 16.425,8.481 16.574,9.041 16.420 C 10.233 16.093,10.631 16.018,11.475 15.962 C 12.463 15.895,13.652 16.034,14.600 16.326 C 14.919 16.425,15.097 16.456,15.340 16.458 C 15.639 16.460,15.673 16.451,15.851 16.327 C 16.218 16.073,16.363 15.711,16.286 15.245 C 16.140 14.356,15.646 13.414,14.964 12.719 C 14.417 12.163,13.684 11.751,13.012 11.624 C 12.628 11.552,11.862 11.523,11.380 11.563 M12.476 13.562 C 12.719 13.602,13.274 13.837,13.355 13.935 C 13.384 13.968,13.036 13.980,12.000 13.980 C 10.954 13.980,10.616 13.969,10.645 13.934 C 10.722 13.842,11.268 13.601,11.481 13.566 C 11.788 13.515,12.176 13.513,12.476 13.562 " fill="#1A1C1F" stroke="none" fill-rule="evenodd"></path></svg>