<svg width="14" height="14" viewBox="0 0 14 14" fill="none" xmlns="http://www.w3.org/2000/svg"><path d="M6.545 2.125 C 5.686 2.201,4.780 2.552,4.060 3.088 C 3.768 3.305,3.275 3.803,3.059 4.099 C 2.397 5.005,2.068 6.063,2.106 7.160 C 2.144 8.211,2.508 9.214,3.140 10.002 C 3.446 10.384,3.950 10.854,4.317 11.100 C 5.189 11.684,6.440 11.991,7.478 11.876 C 8.295 11.786,9.151 11.472,9.777 11.033 C 10.222 10.721,10.773 10.164,11.060 9.734 C 11.899 8.481,12.118 6.945,11.664 5.513 C 11.399 4.680,10.910 3.934,10.233 3.331 C 9.733 2.886,9.008 2.485,8.366 2.299 C 7.809 2.138,7.132 2.073,6.545 2.125 M7.288 3.524 C 8.780 3.645,10.040 4.723,10.393 6.180 C 10.687 7.396,10.296 8.699,9.381 9.549 C 8.894 10.001,8.315 10.299,7.642 10.443 C 7.380 10.499,6.622 10.499,6.358 10.443 C 6.091 10.387,5.660 10.239,5.444 10.131 C 4.776 9.795,4.158 9.167,3.852 8.515 C 3.271 7.275,3.440 5.839,4.291 4.798 C 4.888 4.068,5.744 3.610,6.673 3.525 C 6.965 3.498,6.968 3.498,7.288 3.524 M5.878 5.183 C 5.724 5.205,5.642 5.255,5.440 5.448 C 5.272 5.609,5.251 5.621,5.111 5.647 C 4.917 5.682,4.804 5.741,4.677 5.874 C 4.363 6.201,4.445 6.710,4.849 6.947 C 4.934 6.997,4.992 7.011,5.149 7.019 C 5.600 7.043,6.009 6.870,6.368 6.503 C 6.553 6.313,6.641 6.174,6.686 5.998 C 6.757 5.722,6.620 5.414,6.359 5.261 C 6.246 5.195,6.032 5.160,5.878 5.183 M7.757 5.188 C 7.437 5.311,7.237 5.650,7.300 5.964 C 7.337 6.150,7.449 6.332,7.642 6.524 C 7.837 6.718,8.057 6.855,8.318 6.945 C 8.479 7.001,8.542 7.010,8.773 7.011 C 9.024 7.012,9.049 7.008,9.149 6.948 C 9.359 6.825,9.492 6.615,9.513 6.373 C 9.541 6.049,9.276 5.713,8.948 5.658 C 8.750 5.625,8.695 5.594,8.518 5.413 C 8.371 5.261,8.321 5.225,8.215 5.194 C 8.069 5.151,7.860 5.148,7.757 5.188 M6.697 7.093 C 6.435 7.130,6.121 7.275,5.897 7.461 C 5.538 7.760,5.254 8.292,5.305 8.568 C 5.327 8.683,5.449 8.855,5.573 8.945 C 5.665 9.011,5.691 9.018,5.842 9.017 C 5.983 9.017,6.038 9.003,6.205 8.929 C 6.481 8.805,6.637 8.774,6.977 8.774 C 7.323 8.774,7.503 8.809,7.770 8.926 C 7.879 8.974,8.013 9.019,8.067 9.025 C 8.348 9.057,8.623 8.838,8.670 8.545 C 8.699 8.365,8.536 7.957,8.343 7.723 C 8.090 7.418,7.704 7.169,7.408 7.120 C 7.201 7.085,6.843 7.072,6.697 7.093 " fill="#1A1C1F" stroke="none" fill-rule="evenodd"></path></svg>