<svg xmlns="http://www.w3.org/2000/svg" width="24" height="24" fill="none"><g clip-path="url(#a)"><path fill="#1A1C1F" fill-rule="evenodd" d="M19 12c0 3.86-3.14 7-7 7s-7-3.14-7-7 3.14-7 7-7 7 3.14 7 7M3 12a9 9 0 0 0 9 9 9 9 0 0 0 9-9 9 9 0 0 0-9-9 9 9 0 0 0-9 9m6.3-3.5a1.5 1.5 0 1 1-.001 3.001A1.5 1.5 0 0 1 9.3 8.5m5.4 3a1.5 1.5 0 1 0-.001-3.001A1.5 1.5 0 0 0 14.7 11.5M16 15a1 1 0 0 0-1-1H9a1 1 0 1 0 0 2h6a1 1 0 0 0 1-1" clip-rule="evenodd"/></g><defs><clipPath id="a"><path fill="#fff" d="M0 0h24v24H0z"/></clipPath></defs></svg>