<svg xmlns="http://www.w3.org/2000/svg" width="28" height="28" fill="none"><g clip-path="url(#a)"><path fill="#1A1C1F" fill-rule="evenodd" d="M23.019 14c0 4.973-4.046 9.019-9.019 9.019S4.981 18.973 4.981 14 9.027 4.981 14 4.981 23.019 9.027 23.019 14M3.5 14c0 5.799 4.701 10.5 10.5 10.5S24.5 19.799 24.5 14 19.799 3.5 14 3.5 3.5 8.201 3.5 14m9.012-4.115a.876.876 0 0 0-1.144.473 1.754 1.754 0 0 1-2.287.947.875.875 0 1 0-.668 1.617c.436.181.888.267 1.334.267 1.373 0 2.68-.815 3.238-2.16a.876.876 0 0 0-.473-1.144m7.585 1.893a.874.874 0 0 0-1.143-.473 1.754 1.754 0 0 1-2.287-.947.876.876 0 0 0-1.617.67 3.51 3.51 0 0 0 3.238 2.16c.446 0 .898-.085 1.335-.266a.876.876 0 0 0 .474-1.144m-2.092 6.967c-.02-.009-1.976-.808-4.005-.808s-3.986.8-4.005.808a.877.877 0 0 1-1.189-1.002c.329-1.446 1.84-4.18 5.194-4.18s4.865 2.734 5.194 4.18a.874.874 0 0 1-1.19 1.002M14 16.187c.95 0 1.868.142 2.637.316-.53-.625-1.364-1.191-2.637-1.191s-2.105.566-2.637 1.191A12 12 0 0 1 14 16.187" clip-rule="evenodd"/></g><defs><clipPath id="a"><path fill="#fff" d="M0 0h28v28H0z"/></clipPath></defs></svg>