<svg xmlns="http://www.w3.org/2000/svg" width="20" height="20" fill="none"><g clip-path="url(#a)"><path fill="#1A1C1F" fill-rule="evenodd" d="m8.857 16.27-5.55-5.388C2.41 10.013 2 8.857 2 7.714c0-2.449 1.992-4.473 4.44-4.473 1.144 0 2.303.44 3.168 1.306l.392.392.294-.262c.95-.843 2.057-1.404 3.265-1.404C15.976 3.273 18 5.1 18 7.486c0 1.273-.361 2.479-1.306 3.396l-5.551 5.387c-.298.29-.719.49-1.143.49s-.845-.2-1.143-.49" clip-rule="evenodd"/></g><defs><clipPath id="a"><path fill="#fff" d="M0 0h20v20H0z"/></clipPath></defs></svg>