<svg xmlns="http://www.w3.org/2000/svg" width="32" height="32" fill="none"><path fill="#1A1C1F" fill-rule="evenodd" d="M8.766 4.168c-1.271.087-2.565.565-3.699 1.367-.505.356-1.42 1.301-1.768 1.825-.869 1.309-1.287 2.677-1.287 4.213 0 1.677.477 3.105 1.503 4.501.251.342 11.805 11.582 12.024 11.697.228.121.654.114.895-.014.194-.104 11.529-11.116 11.891-11.553 1.895-2.288 2.208-5.553.786-8.204-.924-1.724-2.733-3.146-4.604-3.62-.686-.174-1.126-.226-1.893-.226-1.1 0-1.903.151-2.862.541-1.027.417-1.684.886-2.921 2.085l-.889.862-.944-.932c-1.037-1.023-1.462-1.351-2.305-1.775-1.237-.623-2.484-.866-3.927-.767m2.114 2.195c1.197.36 1.653.678 3.308 2.31 1.893 1.866 1.763 1.867 3.652-.032.645-.649 1.332-1.298 1.525-1.443a5.7 5.7 0 0 1 1.675-.832c.453-.14.537-.148 1.493-.148s1.041.009 1.494.148c1.869.574 3.192 1.899 3.736 3.741.201.681.241 1.804.089 2.534a5.3 5.3 0 0 1-.977 2.17c-.244.326-10.859 10.644-10.924 10.619-.025-.009-1.949-1.864-4.278-4.122-7.049-6.836-6.703-6.476-7.166-7.452-.368-.777-.474-1.29-.472-2.283.002-.721.02-.894.143-1.36.524-1.972 2.097-3.503 4.033-3.926.691-.151 2.041-.112 2.669.076"/></svg>