<svg xmlns="http://www.w3.org/2000/svg" width="28" height="28" fill="none"><g clip-path="url(#a)"><path fill="#1A1C1F" fill-rule="evenodd" d="M13.973 24.39a.85.85 0 0 1-.602-.245l-9.734-9.461c-1.285-1.23-1.887-2.926-1.887-4.567 0-3.637 2.953-6.508 6.453-6.508 1.668 0 3.336.657 4.594 1.914L13.973 6.7l1.175-1.176A6.52 6.52 0 0 1 19.77 3.61c3.554 0 6.48 2.871 6.48 6.454 0 1.64-.574 3.308-1.942 4.62l-9.706 9.462a.91.91 0 0 1-.63.246" clip-rule="evenodd"/></g><defs><clipPath id="a"><path fill="#fff" d="M0 0h28v28H0z"/></clipPath></defs></svg>