<svg width="28" height="28" viewBox="0 0 28 28" fill="none" xmlns="http://www.w3.org/2000/svg"><path d="M7.187 3.709 C 6.039 3.899,4.813 4.469,4.055 5.165 C 2.863 6.258,2.241 7.290,1.903 8.732 C 1.813 9.113,1.800 9.300,1.801 10.173 C 1.803 11.143,1.808 11.195,1.946 11.713 C 2.112 12.334,2.357 12.924,2.683 13.487 C 2.888 13.840,3.098 14.068,4.595 15.566 C 6.825 17.796,12.881 23.675,13.460 24.172 C 13.688 24.368,13.693 24.369,14.001 24.352 C 14.259 24.337,14.338 24.312,14.471 24.202 C 14.774 23.950,19.288 19.584,22.946 16.006 C 25.023 13.974,25.324 13.603,25.757 12.542 C 26.080 11.753,26.191 11.202,26.216 10.266 C 26.235 9.562,26.224 9.375,26.137 8.924 C 25.879 7.574,25.313 6.498,24.363 5.552 C 23.441 4.633,22.329 4.021,21.093 3.751 C 20.596 3.642,19.117 3.628,18.573 3.727 C 18.069 3.819,17.338 4.068,16.837 4.319 C 16.118 4.679,15.605 5.080,14.548 6.108 L 13.953 6.687 13.241 5.992 C 12.850 5.609,12.414 5.198,12.273 5.078 C 11.613 4.521,10.570 4.007,9.671 3.798 C 9.033 3.650,7.807 3.605,7.187 3.709 M8.863 5.462 C 9.685 5.546,10.326 5.801,11.014 6.319 C 11.232 6.482,11.856 7.049,12.402 7.577 C 13.373 8.518,13.759 8.819,13.997 8.820 C 14.270 8.821,14.543 8.605,15.694 7.481 C 16.925 6.278,17.238 6.037,17.949 5.741 C 18.586 5.476,18.763 5.450,19.850 5.470 C 20.795 5.487,20.852 5.494,21.187 5.619 C 22.507 6.114,23.397 6.892,23.965 8.050 C 24.268 8.667,24.348 8.952,24.417 9.671 C 24.527 10.796,24.266 11.851,23.659 12.740 C 23.418 13.093,19.140 17.308,14.935 21.336 L 13.980 22.251 13.838 22.133 C 13.684 22.005,10.929 19.342,7.426 15.938 C 4.677 13.268,4.319 12.881,4.014 12.250 C 3.633 11.461,3.584 11.252,3.558 10.288 C 3.538 9.530,3.546 9.405,3.639 9.028 C 3.760 8.538,4.057 7.881,4.367 7.419 C 4.660 6.982,5.353 6.331,5.825 6.049 C 6.709 5.520,7.654 5.338,8.863 5.462 " fill="#1A1C1F" stroke="none" fill-rule="evenodd"></path></svg>