<svg xmlns="http://www.w3.org/2000/svg" width="16" height="16" fill="none"><g clip-path="url(#a)"><path fill="#1A1C1F" fill-rule="evenodd" d="m7.086 13.016-4.441-4.31C1.929 8.01 1.6 7.085 1.6 6.17c0-1.959 1.593-3.578 3.553-3.578a3.6 3.6 0 0 1 2.534 1.045L8 3.95l.235-.209c.76-.675 1.646-1.123 2.612-1.123 1.934 0 3.553 1.461 3.553 3.37 0 1.018-.29 1.983-1.045 2.716l-4.44 4.31a1.35 1.35 0 0 1-.915.392c-.34 0-.676-.16-.914-.391" clip-rule="evenodd"/></g><defs><clipPath id="a"><path fill="#fff" d="M0 0h16v16H0z"/></clipPath></defs></svg>