<svg xmlns="http://www.w3.org/2000/svg" width="32" height="32" fill="none"><path fill="#1A1C1F" fill-rule="evenodd" d="M8.766 4.168c-1.271.087-2.565.565-3.699 1.367-.505.356-1.42 1.301-1.768 1.825-.869 1.309-1.287 2.677-1.287 4.213 0 1.677.477 3.105 1.503 4.501.251.342 11.805 11.582 12.024 11.697.228.121.654.114.895-.014.194-.104 11.529-11.116 11.891-11.553 1.895-2.288 2.208-5.553.786-8.204-.924-1.724-2.733-3.146-4.604-3.62-.686-.174-1.126-.226-1.893-.226-1.1 0-1.903.151-2.862.541-1.027.417-1.684.886-2.921 2.085l-.889.862-.944-.932c-1.037-1.023-1.462-1.351-2.305-1.775-1.237-.623-2.484-.866-3.927-.767"/></svg>