<svg width="16" height="16" viewBox="0 0 16 16" fill="none" xmlns="http://www.w3.org/2000/svg"><path d="M4.521 2.655 C 4.026 2.748,3.502 2.974,3.085 3.274 C 2.817 3.467,2.395 3.905,2.216 4.176 C 1.494 5.267,1.405 6.660,1.985 7.796 C 2.250 8.315,2.320 8.389,4.773 10.770 C 7.371 13.291,7.283 13.210,7.540 13.307 C 7.800 13.406,7.994 13.426,8.204 13.379 C 8.443 13.325,8.596 13.257,8.763 13.130 C 8.918 13.013,12.550 9.499,13.230 8.810 C 13.795 8.236,13.966 7.977,14.171 7.389 C 14.339 6.906,14.380 6.646,14.381 6.040 C 14.382 5.456,14.361 5.328,14.188 4.851 C 13.844 3.904,12.945 3.080,11.934 2.788 C 11.393 2.631,10.780 2.590,10.291 2.678 C 9.606 2.801,8.923 3.155,8.239 3.743 L 7.998 3.950 7.723 3.688 C 7.148 3.141,6.626 2.848,5.938 2.689 C 5.613 2.614,4.838 2.595,4.521 2.655 M5.647 4.266 C 6.066 4.367,6.215 4.471,6.948 5.171 C 7.228 5.439,7.503 5.679,7.564 5.708 C 7.853 5.849,8.205 5.836,8.470 5.676 C 8.548 5.628,8.795 5.417,9.019 5.206 C 9.863 4.413,10.202 4.239,10.912 4.240 C 11.247 4.241,11.467 4.290,11.747 4.426 C 12.131 4.614,12.411 4.886,12.600 5.256 C 12.745 5.539,12.785 5.726,12.781 6.107 C 12.778 6.505,12.721 6.755,12.557 7.093 C 12.456 7.302,12.412 7.355,12.004 7.758 C 11.443 8.312,8.323 11.338,8.153 11.492 L 8.027 11.607 7.904 11.506 C 7.705 11.343,5.062 8.793,4.077 7.813 C 3.558 7.297,3.553 7.291,3.419 7.013 C 3.345 6.859,3.271 6.670,3.255 6.592 C 3.214 6.387,3.221 5.883,3.267 5.684 C 3.310 5.502,3.445 5.213,3.575 5.024 C 3.750 4.770,4.103 4.481,4.387 4.361 C 4.749 4.207,5.244 4.170,5.647 4.266 " fill="#1A1C1F" stroke="none" fill-rule="evenodd"></path></svg>