<svg xmlns="http://www.w3.org/2000/svg" width="32" height="32" fill="none"><g clip-path="url(#a)"><path fill="#1A1C1F" fill-rule="evenodd" d="M15.969 27.875a.97.97 0 0 1-.688-.281L4.156 16.78C2.688 15.375 2 13.438 2 11.563c0-4.157 3.375-7.438 7.375-7.438 1.906 0 3.813.75 5.25 2.188l1.344 1.343 1.344-1.343a7.45 7.45 0 0 1 5.28-2.188C26.657 4.125 30 7.406 30 11.5c0 1.875-.656 3.781-2.219 5.281L16.688 27.594a1.04 1.04 0 0 1-.72.281" clip-rule="evenodd"/></g><defs><clipPath id="a"><path fill="#fff" d="M0 0h32v32H0z"/></clipPath></defs></svg>