<svg width="28" height="28" viewBox="0 0 28 28" fill="none" xmlns="http://www.w3.org/2000/svg"><path d="M7.187 3.709 C 6.039 3.899,4.813 4.469,4.055 5.165 C 2.863 6.258,2.241 7.290,1.903 8.732 C 1.813 9.113,1.800 9.300,1.801 10.173 C 1.803 11.143,1.808 11.195,1.946 11.713 C 2.112 12.334,2.357 12.924,2.683 13.487 C 2.888 13.840,3.098 14.068,4.595 15.566 C 6.825 17.796,12.881 23.675,13.460 24.172 C 13.688 24.368,13.693 24.369,14.001 24.352 C 14.259 24.337,14.338 24.312,14.471 24.202 C 14.774 23.950,19.288 19.584,22.946 16.006 C 25.023 13.974,25.324 13.603,25.757 12.542 C 26.080 11.753,26.191 11.202,26.216 10.266 C 26.235 9.562,26.224 9.375,26.137 8.924 C 25.879 7.574,25.313 6.498,24.363 5.552 C 23.441 4.633,22.329 4.021,21.093 3.751 C 20.596 3.642,19.117 3.628,18.573 3.727 C 18.069 3.819,17.338 4.068,16.837 4.319 C 16.118 4.679,15.605 5.080,14.548 6.108 L 13.953 6.687 13.241 5.992 C 12.850 5.609,12.414 5.198,12.273 5.078 C 11.613 4.521,10.570 4.007,9.671 3.798 C 9.033 3.650,7.807 3.605,7.187 3.709 " fill="#1A1C1F" stroke="none" fill-rule="evenodd"></path></svg>