<svg width="32" height="32" viewBox="0 0 32 32" fill="none" xmlns="http://www.w3.org/2000/svg"><path d="M8.213 4.238 C 6.898 4.457,5.500 5.108,4.629 5.907 C 3.524 6.921,2.925 7.773,2.482 8.962 C 2.128 9.911,2.053 10.387,2.057 11.653 C 2.061 12.729,2.068 12.798,2.227 13.399 C 2.413 14.103,2.685 14.755,3.069 15.418 C 3.300 15.816,3.546 16.084,5.251 17.789 C 7.800 20.338,14.721 27.058,15.383 27.625 C 15.643 27.849,15.649 27.851,16.001 27.831 C 16.296 27.814,16.387 27.785,16.538 27.659 C 16.775 27.461,18.561 25.745,21.703 22.695 C 26.608 17.935,28.217 16.341,28.506 15.958 C 29.509 14.624,29.974 13.202,29.973 11.473 C 29.971 9.436,29.163 7.562,27.694 6.186 C 26.681 5.239,25.429 4.576,24.107 4.287 C 23.538 4.163,21.848 4.147,21.227 4.260 C 20.650 4.365,19.815 4.649,19.243 4.935 C 18.421 5.347,17.834 5.806,16.626 6.981 L 15.946 7.643 15.133 6.848 C 14.686 6.410,14.188 5.940,14.026 5.804 C 13.272 5.167,12.080 4.580,11.053 4.341 C 10.324 4.171,8.922 4.120,8.213 4.238 M10.129 6.242 C 11.069 6.339,11.801 6.630,12.588 7.221 C 12.836 7.408,13.550 8.056,14.173 8.660 C 15.283 9.735,15.724 10.078,15.996 10.079 C 16.305 10.081,16.617 9.835,17.935 8.550 C 19.347 7.173,19.704 6.898,20.513 6.561 C 21.241 6.258,21.444 6.229,22.686 6.252 C 23.765 6.271,23.830 6.279,24.213 6.422 C 25.658 6.963,26.700 7.848,27.331 9.068 C 27.680 9.744,27.830 10.244,27.904 10.982 C 28.017 12.119,27.834 13.096,27.318 14.107 C 27.079 14.573,27.020 14.639,25.176 16.483 C 23.443 18.215,19.803 21.764,17.069 24.385 L 15.978 25.431 15.816 25.295 C 15.639 25.148,12.494 22.110,8.486 18.215 C 5.346 15.163,4.936 14.721,4.588 14.000 C 4.152 13.099,4.096 12.859,4.067 11.758 C 4.043 10.892,4.053 10.748,4.159 10.318 C 4.297 9.758,4.637 9.007,4.991 8.479 C 5.326 7.980,6.118 7.235,6.657 6.913 C 7.667 6.309,8.747 6.100,10.129 6.242 " fill="#1A1C1F" stroke="none" fill-rule="evenodd"></path></svg>