<svg width="12" height="12" viewBox="0 0 12 12" fill="none" xmlns="http://www.w3.org/2000/svg"><path d="M3.410 1.989 C 3.066 2.056,2.815 2.149,2.539 2.313 C 1.818 2.742,1.350 3.439,1.228 4.267 C 1.131 4.922,1.306 5.645,1.692 6.180 C 1.815 6.353,2.449 6.987,3.880 8.371 C 5.507 9.946,5.467 9.910,5.655 9.980 C 5.850 10.054,5.996 10.070,6.153 10.034 C 6.333 9.993,6.447 9.943,6.573 9.848 C 6.688 9.760,9.410 7.127,9.922 6.607 C 10.346 6.177,10.475 5.983,10.628 5.542 C 10.755 5.178,10.785 4.984,10.785 4.530 C 10.785 4.166,10.781 4.113,10.735 3.940 C 10.598 3.422,10.378 3.049,10.003 2.696 C 9.625 2.341,9.162 2.113,8.605 2.008 C 8.382 1.967,7.950 1.966,7.718 2.008 C 7.204 2.101,6.692 2.367,6.180 2.807 L 5.999 2.962 5.791 2.766 C 5.359 2.356,4.965 2.135,4.460 2.017 C 4.237 1.965,3.619 1.948,3.410 1.989 " fill="#1A1C1F" stroke="none" fill-rule="evenodd"></path></svg>