<svg xmlns="http://www.w3.org/2000/svg" width="14" height="14" fill="none"><g clip-path="url(#a)"><path fill="#1A1C1F" fill-rule="evenodd" d="M6.2 11.389 2.314 7.617C1.688 7.01 1.4 6.2 1.4 5.4c0-1.714 1.394-3.132 3.109-3.132.8 0 1.61.309 2.217.915L7 3.457l.206-.183c.664-.59 1.44-.983 2.285-.983 1.692 0 3.109 1.279 3.109 2.949 0 .891-.253 1.735-.914 2.377L7.8 11.39a1.18 1.18 0 0 1-.8.343c-.297 0-.591-.14-.8-.343" clip-rule="evenodd"/></g><defs><clipPath id="a"><path fill="#fff" d="M0 0h14v14H0z"/></clipPath></defs></svg>