<svg width="12" height="12" viewBox="0 0 12 12" fill="none" xmlns="http://www.w3.org/2000/svg"><path d="M3.410 1.989 C 3.066 2.056,2.815 2.149,2.539 2.313 C 1.818 2.742,1.350 3.439,1.228 4.267 C 1.131 4.919,1.308 5.648,1.692 6.180 C 1.835 6.380,2.476 7.013,5.090 9.542 C 5.222 9.669,5.386 9.815,5.455 9.865 C 5.793 10.113,6.225 10.108,6.563 9.855 C 6.685 9.763,9.380 7.158,9.922 6.607 C 10.346 6.177,10.475 5.983,10.628 5.542 C 10.755 5.178,10.785 4.984,10.785 4.530 C 10.785 4.166,10.781 4.113,10.735 3.940 C 10.598 3.422,10.378 3.049,10.003 2.696 C 9.625 2.341,9.162 2.113,8.605 2.008 C 8.382 1.967,7.950 1.966,7.718 2.008 C 7.204 2.101,6.692 2.367,6.180 2.807 L 5.999 2.962 5.791 2.766 C 5.359 2.356,4.965 2.135,4.460 2.017 C 4.237 1.965,3.619 1.948,3.410 1.989 M4.235 3.200 C 4.547 3.275,4.665 3.356,5.191 3.860 C 5.388 4.050,5.582 4.226,5.620 4.251 C 5.697 4.303,5.893 4.360,5.993 4.360 C 6.120 4.360,6.262 4.315,6.375 4.240 C 6.438 4.198,6.620 4.041,6.780 3.891 C 7.391 3.316,7.601 3.204,8.100 3.186 C 8.412 3.174,8.557 3.200,8.786 3.307 C 9.077 3.443,9.313 3.667,9.449 3.939 C 9.559 4.157,9.589 4.295,9.586 4.580 C 9.584 4.878,9.541 5.066,9.418 5.320 C 9.343 5.476,9.310 5.516,9.012 5.810 C 8.598 6.219,6.241 8.505,6.115 8.619 L 6.020 8.705 5.928 8.629 C 5.777 8.505,3.770 6.569,3.048 5.850 C 2.670 5.474,2.665 5.468,2.564 5.260 C 2.509 5.145,2.453 5.002,2.441 4.944 C 2.410 4.790,2.415 4.412,2.451 4.263 C 2.483 4.126,2.584 3.910,2.682 3.768 C 2.813 3.577,3.077 3.361,3.290 3.271 C 3.562 3.155,3.933 3.127,4.235 3.200 " fill="#1A1C1F" stroke="none" fill-rule="evenodd"></path></svg>