<svg width="14" height="14" viewBox="0 0 14 14" fill="none" xmlns="http://www.w3.org/2000/svg"><path d="M3.963 2.322 C 3.531 2.403,3.060 2.605,2.703 2.863 C 2.472 3.029,2.104 3.408,1.948 3.641 C 1.213 4.741,1.224 6.168,1.978 7.217 C 2.069 7.344,2.433 7.719,3.127 8.399 C 4.862 10.102,6.181 11.370,6.347 11.495 C 6.750 11.799,7.254 11.799,7.656 11.497 C 7.799 11.390,10.917 8.377,11.564 7.720 C 12.071 7.206,12.219 6.984,12.400 6.465 C 12.617 5.840,12.656 5.041,12.496 4.492 C 12.356 4.016,12.146 3.644,11.821 3.299 C 11.342 2.790,10.762 2.479,10.039 2.343 C 9.779 2.294,9.275 2.294,9.005 2.343 C 8.405 2.451,7.807 2.761,7.210 3.275 L 6.999 3.456 6.756 3.227 C 6.247 2.744,5.797 2.492,5.196 2.353 C 4.915 2.288,4.233 2.271,3.963 2.322 M4.941 3.733 C 5.305 3.820,5.442 3.915,6.056 4.504 C 6.287 4.725,6.512 4.930,6.557 4.960 C 6.647 5.020,6.875 5.087,6.992 5.087 C 7.266 5.087,7.431 4.988,7.910 4.539 C 8.633 3.860,8.931 3.709,9.548 3.710 C 9.842 3.711,10.034 3.754,10.278 3.873 C 10.931 4.192,11.271 4.828,11.177 5.554 C 11.141 5.826,11.081 6.028,10.972 6.242 C 10.873 6.435,10.804 6.505,9.065 8.192 C 7.400 9.807,7.043 10.150,7.025 10.150 C 7.017 10.150,6.937 10.086,6.847 10.007 C 6.647 9.831,4.413 7.672,3.660 6.927 L 3.109 6.382 2.991 6.137 C 2.926 6.002,2.862 5.836,2.848 5.768 C 2.812 5.589,2.818 5.147,2.859 4.973 C 2.897 4.814,3.014 4.562,3.128 4.396 C 3.281 4.173,3.590 3.921,3.838 3.816 C 4.155 3.681,4.589 3.649,4.941 3.733 " fill="#1A1C1F" stroke="none" fill-rule="evenodd"></path></svg>