<svg xmlns="http://www.w3.org/2000/svg" width="24" height="24" fill="none"><g clip-path="url(#a)"><path fill="#1A1C1F" fill-rule="evenodd" d="M12 20.547a.97.97 0 0 1-.687-.281l-7.72-7.5C2.533 11.734 2 10.328 2 8.922c0-3 2.438-5.469 5.438-5.469 1.437 0 2.827.578 3.843 1.594l.719.719.719-.72a5.49 5.49 0 0 1 3.844-1.593c3.03 0 5.437 2.469 5.437 5.469 0 1.375-.467 2.783-1.562 3.844l-7.75 7.5a.92.92 0 0 1-.688.28" clip-rule="evenodd"/></g><defs><clipPath id="a"><path fill="#fff" d="M0 0h24v24H0z"/></clipPath></defs></svg>