<svg xmlns="http://www.w3.org/2000/svg" width="20" height="20" fill="none"><g clip-path="url(#a)"><path fill="#1A1C1F" fill-rule="evenodd" d="M6.44 3.24c1.144 0 2.303.441 3.168 1.307l.392.392.294-.262c.95-.843 2.057-1.404 3.265-1.404C15.976 3.273 18 5.1 18 7.486c0 1.273-.361 2.479-1.306 3.396l-5.551 5.387c-.298.29-.719.49-1.143.49s-.845-.2-1.143-.49l-5.55-5.387C2.41 10.013 2 8.857 2 7.714c0-2.449 1.992-4.473 4.44-4.473m.012 2A2.47 2.47 0 0 0 4 7.69c0 .62.254 1.28.72 1.73l5.296 5.127 5.297-5.127c.498-.482.687-1.175.687-1.86 0-1.309-1.08-2.287-2.42-2.287-.686 0-1.314.287-1.83.784l-.883.849a1.222 1.222 0 0 1-1.733 0l-.949-.947a2.45 2.45 0 0 0-1.733-.718" clip-rule="evenodd"/></g><defs><clipPath id="a"><path fill="#fff" d="M0 0h20v20H0z"/></clipPath></defs></svg>