<svg xmlns="http://www.w3.org/2000/svg" width="28" height="28" fill="none"><g clip-path="url(#a)"><path fill="#1A1C1F" fill-rule="evenodd" d="M19.77 3.61c3.554 0 6.48 2.87 6.48 6.453 0 1.64-.574 3.308-1.942 4.62l-9.706 9.462a.91.91 0 0 1-.63.246.85.85 0 0 1-.601-.246l-9.734-9.461c-1.285-1.23-1.887-2.926-1.887-4.567 0-3.637 2.953-6.508 6.453-6.508 1.668 0 3.336.657 4.594 1.914L13.973 6.7l1.175-1.176A6.52 6.52 0 0 1 19.77 3.61m-.055 1.777a4.61 4.61 0 0 0-3.309 1.367l-1.804 1.805a.9.9 0 0 1-.63.246.85.85 0 0 1-.601-.246l-1.805-1.805c-.902-.902-2.105-1.367-3.363-1.367-2.598 0-4.703 2.105-4.703 4.758 0 1.203.438 2.406 1.367 3.308l9.106 8.832 9.105-8.832c.957-.93 1.395-2.133 1.395-3.336 0-2.652-2.16-4.73-4.758-4.73" clip-rule="evenodd"/></g><defs><clipPath id="a"><path fill="#fff" d="M0 0h28v28H0z"/></clipPath></defs></svg>