<svg xmlns="http://www.w3.org/2000/svg" width="12" height="12" fill="none"><g clip-path="url(#a)"><path fill="#1A1C1F" fill-rule="evenodd" d="M3.865 1.944c.685 0 1.38.265 1.9.784L6 2.963l.176-.156c.57-.507 1.235-.843 1.96-.843 1.45 0 2.664 1.096 2.664 2.527 0 .765-.217 1.488-.784 2.038l-3.33 3.233a1.01 1.01 0 0 1-.686.294c-.255 0-.507-.12-.686-.294l-3.33-3.233a2.62 2.62 0 0 1-.784-1.9c0-1.47 1.195-2.685 2.665-2.685m.006 1.2c-.804 0-1.471.667-1.471 1.47 0 .372.153.768.432 1.038L6.01 8.728l3.178-3.076c.299-.289.412-.705.412-1.117 0-.784-.647-1.371-1.452-1.371-.412 0-.789.172-1.098.47l-.53.51a.74.74 0 0 1-1.04 0l-.569-.569a1.47 1.47 0 0 0-1.04-.43" clip-rule="evenodd"/></g><defs><clipPath id="a"><path fill="#fff" d="M0 0h12v12H0z"/></clipPath></defs></svg>