<svg xmlns="http://www.w3.org/2000/svg" width="24" height="24" fill="none"><g clip-path="url(#a)"><path fill="#1A1C1F" fill-rule="evenodd" d="M16.563 3.453c3.03 0 5.437 2.47 5.437 5.47 0 1.374-.467 2.782-1.563 3.843l-7.75 7.5a.92.92 0 0 1-.687.28.97.97 0 0 1-.688-.28l-7.718-7.5C2.532 11.733 2 10.327 2 8.922c0-3 2.438-5.469 5.438-5.469 1.437 0 2.827.578 3.843 1.594l.719.718.719-.718a5.49 5.49 0 0 1 3.844-1.594m0 2c-.875 0-1.782.375-2.438 1.031l-1.406 1.407c-.192.19-.449.302-.719.312-.25 0-.5-.125-.688-.313L9.876 6.453a3.5 3.5 0 0 0-2.438-1C5.532 5.453 4 7.016 4 8.923c0 .874.319 1.742 1 2.405l7 6.813 7-6.813a3.4 3.4 0 0 0 1.031-2.438c0-1.874-1.562-3.437-3.468-3.437" clip-rule="evenodd"/></g><defs><clipPath id="a"><path fill="#fff" d="M0 0h24v24H0z"/></clipPath></defs></svg>