<svg xmlns="http://www.w3.org/2000/svg" width="12" height="12" fill="none"><g clip-path="url(#a)"><path fill="#1A1C1F" fill-rule="evenodd" d="m5.314 9.762-3.33-3.233a2.62 2.62 0 0 1-.784-1.9c0-1.47 1.195-2.685 2.664-2.685.686 0 1.382.265 1.9.784L6 2.963l.176-.156c.57-.507 1.235-.843 1.96-.843 1.45 0 2.664 1.096 2.664 2.527 0 .765-.217 1.488-.784 2.038l-3.33 3.233a1.01 1.01 0 0 1-.686.294c-.255 0-.507-.12-.686-.294" clip-rule="evenodd"/></g><defs><clipPath id="a"><path fill="#fff" d="M0 0h12v12H0z"/></clipPath></defs></svg>