<svg width="14" height="14" viewBox="0 0 14 14" fill="none" xmlns="http://www.w3.org/2000/svg"><path d="M3.963 2.322 C 3.531 2.403,3.060 2.605,2.703 2.863 C 2.472 3.029,2.104 3.408,1.948 3.641 C 1.213 4.741,1.224 6.168,1.978 7.217 C 2.069 7.344,2.433 7.719,3.127 8.399 C 4.862 10.102,6.181 11.370,6.347 11.495 C 6.750 11.799,7.254 11.799,7.656 11.497 C 7.799 11.390,10.917 8.377,11.564 7.720 C 12.071 7.206,12.219 6.984,12.400 6.465 C 12.617 5.840,12.656 5.041,12.496 4.492 C 12.356 4.016,12.146 3.644,11.821 3.299 C 11.342 2.790,10.762 2.479,10.039 2.343 C 9.779 2.294,9.275 2.294,9.005 2.343 C 8.405 2.451,7.807 2.761,7.210 3.275 L 6.999 3.456 6.756 3.227 C 6.247 2.744,5.797 2.492,5.196 2.353 C 4.915 2.288,4.233 2.271,3.963 2.322 " fill="#1A1C1F" stroke="none" fill-rule="evenodd"></path></svg>