<svg width="20" height="20" viewBox="0 0 20 20" fill="none" xmlns="http://www.w3.org/2000/svg"><path d="M5.661 3.317 C 5.043 3.434,4.371 3.722,3.861 4.090 C 3.531 4.327,3.005 4.869,2.784 5.201 C 1.868 6.569,1.752 8.316,2.482 9.745 C 2.813 10.395,2.874 10.460,5.933 13.430 C 9.218 16.618,9.103 16.513,9.425 16.634 C 9.751 16.757,9.993 16.783,10.255 16.724 C 10.554 16.656,10.745 16.571,10.954 16.413 C 11.147 16.267,15.684 11.878,16.537 11.012 C 17.244 10.295,17.458 9.972,17.714 9.236 C 17.924 8.632,17.975 8.307,17.976 7.550 C 17.977 6.966,17.968 6.849,17.904 6.605 C 17.672 5.728,17.318 5.113,16.712 4.534 C 16.057 3.908,15.295 3.526,14.345 3.348 C 13.976 3.279,13.247 3.278,12.864 3.347 C 12.008 3.501,11.154 3.944,10.299 4.678 L 9.998 4.937 9.652 4.610 C 8.931 3.927,8.275 3.558,7.433 3.361 C 7.051 3.272,6.033 3.246,5.661 3.317 M7.059 5.333 C 7.581 5.458,7.763 5.585,8.683 6.463 C 9.032 6.796,9.379 7.098,9.455 7.135 C 9.816 7.311,10.256 7.296,10.588 7.094 C 10.685 7.035,10.994 6.771,11.274 6.508 C 12.122 5.710,12.497 5.465,13.040 5.353 C 13.362 5.287,13.918 5.285,14.194 5.351 C 14.849 5.505,15.453 5.977,15.749 6.564 C 15.932 6.928,15.981 7.158,15.977 7.633 C 15.973 8.130,15.902 8.443,15.697 8.867 C 15.571 9.127,15.516 9.194,15.020 9.683 C 14.329 10.366,10.401 14.174,10.192 14.364 L 10.034 14.508 9.882 14.384 C 9.623 14.172,6.315 10.980,5.080 9.750 C 4.450 9.123,4.441 9.113,4.274 8.767 C 4.181 8.574,4.089 8.337,4.069 8.240 C 4.017 7.984,4.026 7.353,4.084 7.105 C 4.138 6.877,4.306 6.517,4.469 6.280 C 4.688 5.962,5.129 5.602,5.483 5.451 C 5.936 5.259,6.555 5.212,7.059 5.333 " fill="#1A1C1F" stroke="none" fill-rule="evenodd"></path></svg>