<svg width="16" height="16" viewBox="0 0 16 16" fill="none" xmlns="http://www.w3.org/2000/svg"><path d="M4.521 2.655 C 4.026 2.748,3.502 2.974,3.085 3.274 C 2.817 3.467,2.395 3.905,2.216 4.176 C 1.494 5.267,1.405 6.660,1.985 7.796 C 2.250 8.315,2.320 8.389,4.773 10.770 C 7.371 13.291,7.283 13.210,7.540 13.307 C 7.800 13.406,7.994 13.426,8.204 13.379 C 8.443 13.325,8.596 13.257,8.763 13.130 C 8.918 13.013,12.550 9.499,13.230 8.810 C 13.795 8.236,13.966 7.977,14.171 7.389 C 14.339 6.906,14.380 6.646,14.381 6.040 C 14.382 5.456,14.361 5.328,14.188 4.851 C 13.844 3.904,12.945 3.080,11.934 2.788 C 11.393 2.631,10.780 2.590,10.291 2.678 C 9.606 2.801,8.923 3.155,8.239 3.743 L 7.998 3.950 7.723 3.688 C 7.148 3.141,6.626 2.848,5.938 2.689 C 5.613 2.614,4.838 2.595,4.521 2.655 " fill="#1A1C1F" stroke="none" fill-rule="evenodd"></path></svg>