<svg width="24" height="24" viewBox="0 0 24 24" fill="none" xmlns="http://www.w3.org/2000/svg"><path d="M6.620 3.522 C 5.462 3.703,4.464 4.216,3.615 5.066 C 2.880 5.803,2.322 6.831,2.096 7.867 C 2.000 8.308,2.001 9.533,2.097 9.977 C 2.309 10.949,2.722 11.776,3.366 12.511 C 3.629 12.811,4.989 14.144,7.821 16.877 C 10.543 19.504,11.516 20.417,11.651 20.474 C 11.819 20.545,12.186 20.546,12.348 20.475 C 12.419 20.445,12.770 20.142,13.128 19.802 C 15.404 17.646,19.942 13.258,20.527 12.647 C 20.968 12.188,21.178 11.896,21.424 11.400 C 22.698 8.837,21.773 5.684,19.320 4.225 C 18.392 3.673,17.474 3.448,16.340 3.494 C 15.439 3.530,14.862 3.683,14.040 4.104 C 13.502 4.379,13.223 4.592,12.547 5.242 L 11.999 5.769 11.473 5.259 C 10.459 4.276,9.728 3.853,8.600 3.594 C 8.206 3.504,7.014 3.460,6.620 3.522 M8.380 5.600 C 9.144 5.842,9.404 6.022,10.443 7.029 C 11.634 8.184,11.723 8.245,12.136 8.183 C 12.399 8.143,12.606 7.984,13.434 7.183 C 14.531 6.122,14.893 5.846,15.433 5.662 C 16.057 5.450,16.907 5.425,17.520 5.599 C 17.897 5.707,18.410 5.977,18.750 6.248 C 19.306 6.691,19.803 7.504,19.943 8.199 C 20.043 8.699,20.007 9.469,19.864 9.892 C 19.731 10.287,19.597 10.554,19.376 10.867 C 19.168 11.160,12.091 18.100,12.000 18.100 C 11.959 18.100,10.773 16.953,7.253 13.512 C 4.639 10.956,4.532 10.838,4.280 10.247 C 4.071 9.755,4.030 9.497,4.050 8.780 C 4.069 8.084,4.101 7.952,4.400 7.359 C 4.869 6.431,5.715 5.766,6.715 5.541 C 7.113 5.451,8.010 5.483,8.380 5.600 " fill="#1A1C1F" stroke="none" fill-rule="evenodd"></path></svg>