<svg xmlns="http://www.w3.org/2000/svg" width="16" height="16" fill="none"><g clip-path="url(#a)"><path fill="#1A1C1F" fill-rule="evenodd" d="M5.153 2.593a3.6 3.6 0 0 1 2.534 1.045L8 3.95l.235-.209c.76-.675 1.646-1.123 2.612-1.123 1.934 0 3.553 1.461 3.553 3.37 0 1.018-.29 1.983-1.045 2.716l-4.44 4.31a1.35 1.35 0 0 1-.915.392c-.34 0-.676-.16-.914-.391l-4.441-4.31C1.929 8.01 1.6 7.085 1.6 6.17c0-1.959 1.593-3.578 3.553-3.578m.009 1.6A1.975 1.975 0 0 0 3.2 6.152c0 .496.204 1.024.575 1.384l4.238 4.102 4.238-4.102c.398-.385.549-.94.549-1.489 0-1.046-.863-1.828-1.936-1.828-.55 0-1.051.23-1.465.627l-.706.679a.978.978 0 0 1-1.386 0l-.759-.758a1.96 1.96 0 0 0-1.386-.574" clip-rule="evenodd"/></g><defs><clipPath id="a"><path fill="#fff" d="M0 0h16v16H0z"/></clipPath></defs></svg>