<svg width="24" height="24" viewBox="0 0 24 24" fill="none" xmlns="http://www.w3.org/2000/svg"><path d="M17.033 3.041 C 16.458 3.131,16.058 3.281,15.611 3.570 C 15.038 3.942,14.626 4.411,14.337 5.020 C 14.106 5.506,14.035 5.806,14.005 6.413 L 13.980 6.926 11.426 8.183 L 8.871 9.441 8.606 9.245 C 8.041 8.828,7.586 8.643,6.922 8.562 C 6.084 8.461,5.200 8.668,4.533 9.124 C 3.663 9.717,3.085 10.730,3.013 11.783 C 2.903 13.408,3.941 14.868,5.560 15.365 C 5.819 15.444,5.944 15.457,6.480 15.455 C 6.940 15.454,7.167 15.436,7.360 15.384 C 7.734 15.283,8.297 15.006,8.612 14.767 L 8.884 14.560 11.432 15.812 L 13.980 17.064 14.005 17.562 C 14.042 18.310,14.193 18.814,14.542 19.362 C 15.002 20.086,15.767 20.646,16.619 20.882 C 16.842 20.944,17.028 20.960,17.533 20.960 C 18.135 20.960,18.187 20.954,18.534 20.838 C 19.673 20.457,20.457 19.673,20.838 18.534 C 20.954 18.187,20.960 18.135,20.960 17.534 C 20.959 17.109,20.940 16.828,20.901 16.683 C 20.462 15.034,18.952 13.909,17.320 14.016 C 16.445 14.073,15.829 14.338,15.124 14.959 L 14.801 15.243 12.371 14.043 L 9.940 12.843 9.951 12.711 C 9.984 12.316,9.972 11.442,9.933 11.312 L 9.887 11.164 12.334 9.948 L 14.780 8.733 15.012 8.936 C 15.566 9.423,15.945 9.657,16.468 9.834 C 17.406 10.153,18.561 9.993,19.400 9.428 C 20.128 8.939,20.653 8.218,20.878 7.401 C 20.945 7.157,20.960 6.984,20.960 6.467 C 20.960 5.865,20.954 5.813,20.838 5.466 C 20.432 4.253,19.490 3.384,18.274 3.102 C 17.945 3.026,17.322 2.995,17.033 3.041 M17.940 5.087 C 18.293 5.175,18.663 5.500,18.860 5.895 C 18.947 6.069,18.960 6.149,18.960 6.500 C 18.960 6.857,18.948 6.929,18.855 7.116 C 18.708 7.409,18.375 7.739,18.092 7.870 C 17.895 7.960,17.805 7.977,17.499 7.977 C 17.180 7.978,17.110 7.964,16.899 7.862 C 16.596 7.713,16.320 7.438,16.163 7.126 C 16.051 6.903,16.040 6.849,16.040 6.491 C 16.041 6.164,16.056 6.067,16.135 5.900 C 16.325 5.498,16.777 5.120,17.164 5.043 C 17.354 5.004,17.684 5.023,17.940 5.087 M7.149 10.663 C 7.411 10.791,7.676 11.046,7.836 11.325 C 7.954 11.531,7.959 11.559,7.959 12.000 C 7.959 12.441,7.954 12.469,7.836 12.675 C 7.673 12.960,7.410 13.210,7.129 13.348 C 6.924 13.448,6.857 13.460,6.500 13.460 C 6.138 13.460,6.077 13.449,5.860 13.342 C 5.569 13.200,5.298 12.930,5.150 12.637 C 5.051 12.440,5.040 12.378,5.040 11.995 C 5.040 11.617,5.051 11.551,5.143 11.377 C 5.366 10.959,5.685 10.683,6.075 10.573 C 6.359 10.492,6.889 10.537,7.149 10.663 M18.129 16.144 C 18.381 16.272,18.719 16.609,18.835 16.849 C 18.907 16.998,18.920 17.096,18.919 17.483 C 18.918 18.022,18.868 18.168,18.574 18.483 C 18.216 18.865,17.752 19.042,17.312 18.965 C 16.780 18.871,16.372 18.577,16.150 18.126 C 16.030 17.882,16.020 17.832,16.023 17.481 C 16.025 17.184,16.043 17.060,16.108 16.920 C 16.299 16.506,16.593 16.232,17.013 16.075 C 17.310 15.964,17.837 15.997,18.129 16.144 " fill="#1A1C1F" stroke="none" fill-rule="evenodd"></path></svg>