<svg width="16" height="16" viewBox="0 0 16 16" fill="none" xmlns="http://www.w3.org/2000/svg"><path d="M11.267 1.632 C 10.859 1.674,10.412 1.838,10.050 2.080 C 9.792 2.253,9.369 2.697,9.224 2.948 C 8.932 3.452,8.817 3.866,8.815 4.418 L 8.814 4.797 7.577 5.385 L 6.340 5.972 6.217 5.871 C 6.016 5.705,5.851 5.602,5.591 5.479 C 4.525 4.975,3.264 5.194,2.426 6.028 C 2.072 6.381,1.845 6.773,1.695 7.290 C 1.633 7.504,1.627 7.570,1.627 8.000 C 1.627 8.428,1.633 8.497,1.694 8.710 C 1.781 9.013,1.985 9.432,2.154 9.653 C 2.320 9.871,2.659 10.195,2.862 10.329 C 3.854 10.985,5.133 10.942,6.096 10.218 L 6.337 10.037 7.564 10.612 L 8.791 11.187 8.819 11.667 C 8.844 12.087,8.859 12.180,8.934 12.413 C 9.157 13.112,9.583 13.653,10.186 14.009 C 11.117 14.556,12.266 14.515,13.192 13.902 C 13.579 13.646,14.019 13.097,14.187 12.662 C 14.361 12.211,14.379 12.097,14.368 11.537 C 14.358 11.046,14.355 11.017,14.273 10.781 C 14.096 10.267,13.893 9.946,13.521 9.590 C 12.916 9.013,12.139 8.740,11.341 8.826 C 10.726 8.892,10.202 9.124,9.709 9.546 C 9.613 9.628,9.519 9.705,9.501 9.716 C 9.467 9.736,8.469 9.276,7.620 8.849 L 7.147 8.610 7.167 8.418 C 7.193 8.170,7.192 7.822,7.166 7.586 L 7.145 7.398 7.459 7.234 C 7.632 7.144,8.162 6.884,8.636 6.656 L 9.499 6.241 9.690 6.416 C 10.083 6.778,10.490 6.997,11.008 7.126 C 11.360 7.214,11.918 7.208,12.274 7.112 C 12.770 6.980,13.226 6.723,13.561 6.388 C 14.386 5.561,14.617 4.368,14.162 3.276 C 13.906 2.662,13.280 2.052,12.656 1.810 C 12.253 1.655,11.720 1.586,11.267 1.632 M11.838 3.228 C 11.932 3.243,12.075 3.288,12.155 3.328 C 12.345 3.421,12.579 3.656,12.680 3.856 C 12.755 4.003,12.761 4.036,12.769 4.370 C 12.778 4.724,12.777 4.727,12.693 4.899 C 12.519 5.252,12.181 5.505,11.788 5.575 C 11.304 5.661,10.783 5.383,10.540 4.909 C 10.455 4.743,10.453 4.731,10.453 4.393 C 10.453 4.075,10.459 4.037,10.522 3.911 C 10.709 3.538,11.011 3.287,11.347 3.226 C 11.507 3.197,11.648 3.197,11.838 3.228 M4.800 6.883 C 5.621 7.165,5.858 8.221,5.240 8.839 C 5.078 9.001,4.892 9.100,4.630 9.164 C 4.006 9.318,3.343 8.846,3.223 8.164 C 3.163 7.824,3.300 7.419,3.561 7.162 C 3.891 6.838,4.360 6.732,4.800 6.883 M12.115 10.542 C 12.374 10.670,12.551 10.842,12.668 11.080 C 12.757 11.260,12.760 11.275,12.760 11.586 C 12.760 11.892,12.756 11.915,12.674 12.088 C 12.562 12.325,12.341 12.556,12.124 12.663 C 11.653 12.895,11.158 12.813,10.789 12.443 C 10.689 12.343,10.593 12.212,10.540 12.103 C 10.457 11.933,10.453 11.915,10.453 11.600 C 10.453 11.287,10.457 11.266,10.538 11.101 C 10.690 10.792,10.918 10.588,11.240 10.473 C 11.342 10.437,11.436 10.427,11.642 10.433 C 11.892 10.440,11.926 10.448,12.115 10.542 " fill="#1A1C1F" stroke="none" fill-rule="evenodd"></path></svg>