<svg width="32" height="32" viewBox="0 0 32 32" fill="none" xmlns="http://www.w3.org/2000/svg"><path d="M22.853 4.180 C 21.608 4.587,20.601 5.555,20.211 6.720 C 20.047 7.210,19.966 8.007,20.032 8.482 L 20.085 8.864 15.576 11.117 L 11.067 13.370 10.667 13.029 C 10.219 12.647,9.376 12.204,8.917 12.111 C 8.762 12.079,8.326 12.053,7.950 12.053 C 7.403 12.053,7.191 12.076,6.899 12.166 C 6.188 12.385,5.586 12.760,5.086 13.295 C 4.662 13.748,4.418 14.158,4.204 14.776 C 4.041 15.248,4.030 15.326,4.030 16.000 C 4.030 16.668,4.042 16.755,4.197 17.203 C 4.411 17.819,4.672 18.262,5.076 18.695 C 5.997 19.679,7.161 20.103,8.519 19.948 C 9.291 19.860,10.258 19.386,10.794 18.834 L 11.001 18.621 15.528 20.884 L 20.055 23.148 20.022 23.641 C 19.936 24.904,20.314 25.923,21.195 26.805 C 22.013 27.622,22.822 27.960,23.973 27.964 C 24.759 27.967,25.049 27.903,25.737 27.572 C 27.620 26.668,28.473 24.475,27.703 22.524 C 27.358 21.652,26.632 20.864,25.794 20.453 C 25.129 20.127,24.802 20.053,24.018 20.053 C 23.246 20.053,22.933 20.111,22.415 20.349 C 22.005 20.537,21.323 20.984,21.124 21.196 C 21.006 21.322,21.000 21.322,20.756 21.239 C 20.620 21.193,18.573 20.189,16.207 19.009 L 11.906 16.863 11.959 16.578 C 11.988 16.421,11.998 16.035,11.981 15.719 L 11.949 15.145 16.446 12.897 L 20.943 10.649 21.285 10.933 C 21.473 11.090,21.756 11.301,21.914 11.402 C 23.045 12.126,24.836 12.150,26.018 11.457 C 26.183 11.360,26.537 11.064,26.804 10.800 C 27.216 10.392,27.326 10.244,27.538 9.813 C 27.838 9.200,27.943 8.819,27.983 8.187 C 28.080 6.666,27.182 5.134,25.796 4.454 C 25.111 4.118,24.809 4.053,23.949 4.056 C 23.345 4.058,23.165 4.078,22.853 4.180 M24.402 6.085 C 24.575 6.117,24.811 6.191,24.926 6.250 C 25.217 6.398,25.618 6.815,25.782 7.138 C 25.906 7.382,25.920 7.471,25.920 8.000 C 25.920 8.526,25.905 8.619,25.785 8.857 C 25.711 9.004,25.508 9.266,25.334 9.440 C 25.065 9.709,24.962 9.773,24.640 9.870 C 23.643 10.173,22.677 9.765,22.208 8.842 C 22.096 8.621,22.080 8.517,22.080 8.000 C 22.080 7.472,22.094 7.381,22.217 7.140 C 22.401 6.776,22.711 6.451,23.048 6.267 C 23.496 6.024,23.828 5.979,24.402 6.085 M8.402 14.085 C 8.575 14.117,8.811 14.191,8.926 14.250 C 9.217 14.398,9.618 14.815,9.782 15.138 C 9.906 15.382,9.920 15.471,9.920 16.000 C 9.920 16.526,9.905 16.619,9.785 16.857 C 9.711 17.004,9.508 17.266,9.334 17.440 C 9.065 17.709,8.962 17.773,8.640 17.870 C 7.643 18.173,6.677 17.765,6.208 16.842 C 6.096 16.621,6.080 16.517,6.080 16.000 C 6.080 15.472,6.094 15.381,6.217 15.140 C 6.401 14.776,6.711 14.451,7.048 14.267 C 7.496 14.024,7.828 13.979,8.402 14.085 M24.402 22.085 C 24.575 22.117,24.811 22.191,24.926 22.250 C 25.217 22.398,25.618 22.815,25.782 23.138 C 25.906 23.382,25.920 23.471,25.920 24.000 C 25.920 24.526,25.905 24.619,25.785 24.857 C 25.711 25.004,25.508 25.266,25.334 25.440 C 25.065 25.709,24.962 25.773,24.640 25.870 C 23.643 26.173,22.677 25.765,22.208 24.842 C 22.096 24.621,22.080 24.517,22.080 24.000 C 22.080 23.472,22.094 23.381,22.217 23.140 C 22.401 22.776,22.711 22.451,23.048 22.267 C 23.496 22.024,23.828 21.979,24.402 22.085 " fill="#1A1C1F" stroke="none" fill-rule="evenodd"></path></svg>