<svg width="20" height="20" viewBox="0 0 20 20" fill="none" xmlns="http://www.w3.org/2000/svg"><path d="M14.083 2.040 C 13.308 2.119,12.619 2.466,12.017 3.080 C 11.544 3.562,11.264 4.069,11.093 4.756 C 11.036 4.987,11.020 5.152,11.019 5.522 L 11.017 5.994 9.472 6.730 L 7.926 7.467 7.771 7.339 C 7.519 7.131,7.314 7.002,6.989 6.849 C 5.422 6.108,3.549 6.631,2.586 8.078 C 2.369 8.405,2.244 8.681,2.119 9.112 C 2.041 9.380,2.033 9.463,2.033 10.000 C 2.033 10.535,2.042 10.621,2.118 10.888 C 2.227 11.267,2.482 11.790,2.692 12.067 C 2.900 12.339,3.324 12.744,3.577 12.911 C 4.818 13.732,6.416 13.677,7.620 12.773 L 7.921 12.547 9.455 13.265 L 10.989 13.983 11.024 14.583 C 11.056 15.108,11.073 15.225,11.167 15.517 C 11.552 16.718,12.420 17.553,13.633 17.888 C 13.880 17.957,13.990 17.967,14.500 17.967 C 15.010 17.967,15.120 17.957,15.367 17.888 C 15.988 17.717,16.517 17.416,16.944 16.993 C 17.363 16.577,17.655 16.098,17.855 15.500 C 17.948 15.224,17.950 15.199,17.950 14.500 L 17.950 13.783 17.840 13.467 C 17.623 12.846,17.344 12.409,16.885 11.973 C 16.139 11.264,15.165 10.926,14.176 11.033 C 13.408 11.115,12.752 11.405,12.137 11.932 C 12.016 12.036,11.898 12.132,11.876 12.145 C 11.833 12.171,10.587 11.596,9.525 11.061 L 8.933 10.763 8.958 10.523 C 8.991 10.213,8.990 9.778,8.957 9.483 L 8.931 9.249 9.257 9.077 C 9.437 8.982,10.099 8.656,10.729 8.353 L 11.874 7.801 12.112 8.020 C 12.593 8.461,13.075 8.726,13.698 8.892 C 13.971 8.964,14.089 8.977,14.517 8.977 C 14.953 8.978,15.058 8.967,15.343 8.891 C 15.963 8.724,16.533 8.403,16.951 7.985 C 17.983 6.951,18.271 5.460,17.703 4.095 C 17.383 3.327,16.600 2.565,15.820 2.263 C 15.316 2.068,14.650 1.983,14.083 2.040 M14.797 4.035 C 14.915 4.054,15.093 4.110,15.194 4.160 C 15.431 4.276,15.724 4.570,15.850 4.819 C 15.944 5.004,15.951 5.044,15.961 5.462 C 15.972 5.905,15.971 5.909,15.866 6.123 C 15.648 6.565,15.226 6.881,14.735 6.969 C 14.130 7.077,13.466 6.721,13.171 6.132 C 13.070 5.930,13.067 5.907,13.067 5.496 C 13.067 5.026,13.076 4.991,13.287 4.666 C 13.627 4.142,14.139 3.928,14.797 4.035 M6.000 8.604 C 7.030 8.958,7.324 10.284,6.544 11.051 C 6.335 11.257,6.114 11.375,5.787 11.455 C 5.008 11.647,4.179 11.058,4.029 10.205 C 3.954 9.781,4.125 9.274,4.451 8.953 C 4.864 8.547,5.450 8.415,6.000 8.604 M15.144 13.177 C 15.468 13.337,15.689 13.552,15.836 13.850 C 15.947 14.075,15.950 14.094,15.950 14.483 C 15.950 14.865,15.945 14.894,15.843 15.110 C 15.626 15.568,15.207 15.887,14.709 15.972 C 14.101 16.076,13.470 15.729,13.175 15.129 C 13.071 14.917,13.067 14.893,13.067 14.500 C 13.067 14.108,13.071 14.083,13.173 13.876 C 13.363 13.490,13.648 13.235,14.050 13.091 C 14.178 13.046,14.295 13.034,14.553 13.042 C 14.865 13.051,14.908 13.060,15.144 13.177 " fill="#1A1C1F" stroke="none" fill-rule="evenodd"></path></svg>