<svg width="14" height="14" viewBox="0 0 14 14" fill="none" xmlns="http://www.w3.org/2000/svg"><path d="M9.858 1.428 C 9.316 1.484,8.834 1.726,8.412 2.156 C 8.081 2.493,7.885 2.849,7.765 3.330 C 7.725 3.491,7.714 3.606,7.713 3.866 L 7.712 4.197 6.630 4.712 L 5.547 5.226 5.469 5.158 C 5.241 4.957,4.816 4.731,4.508 4.646 C 3.664 4.413,2.744 4.655,2.123 5.275 C 1.813 5.583,1.614 5.926,1.483 6.378 C 1.429 6.566,1.423 6.624,1.423 7.000 C 1.423 7.374,1.429 7.435,1.483 7.622 C 1.559 7.887,1.737 8.253,1.885 8.447 C 2.030 8.637,2.327 8.921,2.504 9.038 C 3.372 9.612,4.491 9.574,5.334 8.941 L 5.545 8.783 6.620 9.286 L 7.694 9.788 7.710 10.127 C 7.728 10.524,7.751 10.671,7.832 10.915 C 8.097 11.711,8.718 12.294,9.543 12.522 C 9.716 12.570,9.793 12.577,10.150 12.577 C 10.508 12.577,10.583 12.570,10.757 12.522 C 11.653 12.272,12.288 11.633,12.528 10.736 C 12.576 10.557,12.580 10.499,12.572 10.094 C 12.564 9.665,12.560 9.640,12.489 9.434 C 12.334 8.984,12.156 8.703,11.831 8.392 C 11.074 7.669,9.999 7.505,9.070 7.970 C 8.824 8.094,8.706 8.172,8.496 8.352 C 8.411 8.425,8.329 8.492,8.313 8.502 C 8.283 8.519,7.411 8.117,6.667 7.743 L 6.253 7.534 6.271 7.366 C 6.294 7.149,6.293 6.844,6.270 6.637 L 6.251 6.471 6.503 6.341 C 6.642 6.269,7.105 6.042,7.533 5.836 L 8.312 5.461 8.478 5.614 C 9.249 6.323,10.274 6.491,11.186 6.059 C 11.473 5.923,11.665 5.790,11.866 5.589 C 12.588 4.866,12.790 3.822,12.392 2.866 C 12.168 2.329,11.620 1.795,11.074 1.584 C 10.721 1.448,10.255 1.388,9.858 1.428 M10.358 2.825 C 10.440 2.838,10.565 2.877,10.636 2.912 C 10.802 2.993,11.007 3.199,11.095 3.374 C 11.160 3.503,11.165 3.532,11.173 3.820 C 11.180 4.124,11.179 4.129,11.107 4.282 C 10.958 4.593,10.662 4.816,10.315 4.878 C 9.891 4.954,9.435 4.710,9.223 4.295 C 9.148 4.150,9.147 4.140,9.147 3.844 C 9.147 3.566,9.151 3.532,9.207 3.422 C 9.370 3.096,9.634 2.876,9.928 2.823 C 10.069 2.797,10.192 2.798,10.358 2.825 M4.200 6.023 C 4.918 6.270,5.126 7.193,4.585 7.734 C 4.443 7.876,4.281 7.962,4.051 8.019 C 3.505 8.153,2.925 7.740,2.820 7.144 C 2.768 6.844,2.887 6.492,3.120 6.263 C 3.406 5.982,3.815 5.891,4.200 6.023 M10.601 9.224 C 10.828 9.336,10.982 9.487,11.085 9.695 C 11.163 9.853,11.165 9.865,11.165 10.138 C 11.165 10.405,11.162 10.426,11.090 10.577 C 10.991 10.785,10.798 10.986,10.608 11.080 C 10.196 11.283,9.763 11.211,9.440 10.887 C 9.353 10.800,9.269 10.685,9.222 10.590 C 9.149 10.442,9.147 10.425,9.147 10.150 C 9.147 9.876,9.150 9.858,9.221 9.713 C 9.354 9.443,9.554 9.264,9.835 9.164 C 9.924 9.132,10.007 9.124,10.187 9.129 C 10.406 9.135,10.435 9.142,10.601 9.224 " fill="#1A1C1F" stroke="none" fill-rule="evenodd"></path></svg>