<svg xmlns="http://www.w3.org/2000/svg" width="20" height="20" fill="none"><g clip-path="url(#a)"><path fill="#1A1C1F" fill-rule="evenodd" d="M14.506 2A3.48 3.48 0 0 1 18 5.499a3.495 3.495 0 0 1-3.494 3.498A3.45 3.45 0 0 1 11.89 7.79L8.907 9.223c.061.245.081.511.081.777s-.02.532-.081.777l2.963 1.412c.654-.716 1.594-1.186 2.636-1.186A3.51 3.51 0 0 1 18 14.5 3.495 3.495 0 0 1 14.506 18a3.48 3.48 0 0 1-3.495-3.499c0-.163.021-.348.041-.49l-3.146-1.474a3.47 3.47 0 0 1-2.412.962A3.51 3.51 0 0 1 2 10a3.495 3.495 0 0 1 3.494-3.499c.94 0 1.798.369 2.432.962l3.126-1.494a3.4 3.4 0 0 1-.04-.47A3.495 3.495 0 0 1 14.506 2m0 11.008a1.5 1.5 0 0 0-1.492 1.493c0 .819.674 1.494 1.492 1.494.817 0 1.491-.675 1.491-1.494a1.5 1.5 0 0 0-1.491-1.493M5.494 8.506c-.817 0-1.491.655-1.491 1.494a1.5 1.5 0 0 0 3.003 0c0-.839-.674-1.494-1.512-1.494m9.012-4.521c-.818 0-1.492.675-1.492 1.514a1.501 1.501 0 0 0 3.004 0 1.51 1.51 0 0 0-1.512-1.514" clip-rule="evenodd"/></g><defs><clipPath id="a"><path fill="#fff" d="M0 0h20v20H0z"/></clipPath></defs></svg>