<svg xmlns="http://www.w3.org/2000/svg" width="32" height="32" fill="none"><g clip-path="url(#a)"><path fill="#1A1C1F" fill-rule="evenodd" d="M24 4c2.219 0 4 1.781 4 4s-1.781 4-4 4a4.02 4.02 0 0 1-3.031-1.375l-9.063 4.531a3.9 3.9 0 0 1 0 1.688l9.063 4.531A4.02 4.02 0 0 1 24 20c2.219 0 4 1.781 4 4s-1.781 4-4 4a3.988 3.988 0 0 1-3.906-4.844L11 18.625A3.95 3.95 0 0 1 8 20c-2.219 0-4-1.781-4-4s1.781-4 4-4c1.219 0 2.281.531 3.031 1.375l9.063-4.531A3.988 3.988 0 0 1 24 4m0 18c-1.094 0-2 .906-2 2s.906 2 2 2 2-.906 2-2-.906-2-2-2M8 14c-1.094 0-2 .906-2 2s.906 2 2 2 2-.906 2-2-.906-2-2-2m16-8c-1.094 0-2 .906-2 2s.906 2 2 2 2-.906 2-2-.906-2-2-2" clip-rule="evenodd"/></g><defs><clipPath id="a"><path fill="#fff" d="M0 0h32v32H0z"/></clipPath></defs></svg>