<svg xmlns="http://www.w3.org/2000/svg" width="14" height="14" fill="none"><g clip-path="url(#a)"><path fill="#1A1C1F" fill-rule="evenodd" d="M10.154 1.4A2.437 2.437 0 0 1 12.6 3.85a2.446 2.446 0 0 1-2.446 2.448c-.73 0-1.387-.33-1.83-.845l-2.09 1.003c.044.172.058.358.058.544s-.014.372-.057.544l2.074.988a2.5 2.5 0 0 1 1.845-.83A2.456 2.456 0 0 1 12.6 10.15c0 1.36-1.101 2.449-2.446 2.449a2.437 2.437 0 0 1-2.446-2.45c0-.114.014-.243.029-.343L5.534 8.776c-.43.415-1.03.673-1.688.673A2.456 2.456 0 0 1 1.4 7c0-1.36 1.101-2.45 2.446-2.45.658 0 1.259.259 1.702.674L7.737 4.18a2.4 2.4 0 0 1-.029-.33c0-1.36 1.101-2.449 2.446-2.449m0 7.705a1.05 1.05 0 0 0-1.044 1.046 1.05 1.05 0 0 0 1.044 1.045 1.05 1.05 0 0 0 1.044-1.045 1.05 1.05 0 0 0-1.044-1.046m-6.308-3.15c-.572 0-1.044.458-1.044 1.045a1.05 1.05 0 0 0 2.103 0c0-.587-.473-1.045-1.059-1.045m6.308-3.166a1.054 1.054 0 0 0 0 2.106c.587 0 1.059-.473 1.059-1.046 0-.587-.472-1.06-1.059-1.06" clip-rule="evenodd"/></g><defs><clipPath id="a"><path fill="#fff" d="M0 0h14v14H0z"/></clipPath></defs></svg>