<svg width="28" height="28" viewBox="0 0 28 28" fill="none" xmlns="http://www.w3.org/2000/svg"><path d="M19.997 3.658 C 18.907 4.014,18.026 4.860,17.685 5.880 C 17.542 6.308,17.471 7.006,17.528 7.422 L 17.574 7.756 13.629 9.727 L 9.683 11.699 9.333 11.400 C 8.942 11.066,8.204 10.679,7.803 10.597 C 7.667 10.569,7.286 10.547,6.956 10.547 C 6.478 10.547,6.292 10.567,6.037 10.645 C 5.414 10.837,4.888 11.165,4.450 11.633 C 4.079 12.029,3.866 12.389,3.679 12.929 C 3.536 13.342,3.526 13.410,3.526 14.000 C 3.526 14.590,3.536 14.658,3.679 15.071 C 3.868 15.620,4.083 15.978,4.471 16.388 C 4.903 16.846,5.391 17.157,5.973 17.345 C 6.289 17.447,7.038 17.502,7.461 17.454 C 8.129 17.378,8.978 16.961,9.445 16.480 L 9.626 16.293 13.587 18.274 L 17.548 20.254 17.519 20.686 C 17.448 21.731,17.757 22.626,18.441 23.358 C 18.917 23.866,19.494 24.221,20.113 24.386 C 20.529 24.497,21.470 24.497,21.887 24.386 C 22.376 24.256,22.964 23.924,23.356 23.558 C 24.069 22.892,24.420 22.151,24.480 21.187 C 24.565 19.824,23.794 18.497,22.570 17.896 C 21.988 17.611,21.702 17.547,21.016 17.547 C 20.340 17.547,20.067 17.597,19.613 17.805 C 19.254 17.969,18.658 18.361,18.483 18.546 C 18.380 18.656,18.375 18.657,18.162 18.584 C 18.043 18.544,16.251 17.665,14.181 16.633 L 10.418 14.755 10.464 14.506 C 10.490 14.369,10.498 14.031,10.483 13.754 L 10.455 13.252 14.388 11.286 L 18.320 9.320 18.728 9.648 C 19.470 10.243,20.061 10.455,20.986 10.457 C 21.835 10.460,22.386 10.298,22.983 9.872 C 23.865 9.242,24.420 8.250,24.485 7.187 C 24.568 5.828,23.794 4.497,22.571 3.897 C 21.972 3.603,21.708 3.546,20.955 3.549 C 20.427 3.550,20.270 3.568,19.997 3.658 M21.383 5.326 C 21.519 5.355,21.712 5.419,21.811 5.470 C 22.064 5.598,22.416 5.963,22.559 6.246 C 22.668 6.460,22.680 6.536,22.680 7.010 C 22.679 7.515,22.673 7.547,22.532 7.793 C 22.451 7.934,22.273 8.159,22.135 8.294 C 21.931 8.492,21.823 8.557,21.557 8.637 C 20.688 8.902,19.841 8.543,19.432 7.737 C 19.334 7.544,19.320 7.453,19.320 7.000 C 19.320 6.538,19.333 6.459,19.440 6.248 C 19.662 5.808,20.128 5.419,20.554 5.317 C 20.774 5.264,21.110 5.268,21.383 5.326 M7.383 12.326 C 7.519 12.355,7.712 12.419,7.811 12.470 C 8.064 12.598,8.416 12.963,8.559 13.246 C 8.668 13.460,8.680 13.536,8.680 14.010 C 8.679 14.515,8.673 14.547,8.532 14.793 C 8.451 14.934,8.273 15.159,8.135 15.294 C 7.931 15.492,7.823 15.557,7.557 15.637 C 6.688 15.902,5.841 15.543,5.432 14.737 C 5.334 14.544,5.320 14.453,5.320 14.000 C 5.320 13.538,5.333 13.459,5.440 13.248 C 5.662 12.808,6.128 12.419,6.554 12.317 C 6.774 12.264,7.110 12.268,7.383 12.326 M21.383 19.326 C 21.519 19.355,21.712 19.419,21.811 19.470 C 22.064 19.598,22.416 19.963,22.559 20.246 C 22.668 20.460,22.680 20.536,22.680 21.010 C 22.679 21.515,22.673 21.547,22.532 21.793 C 22.451 21.934,22.273 22.159,22.135 22.294 C 21.931 22.492,21.823 22.557,21.557 22.637 C 20.688 22.902,19.841 22.543,19.432 21.737 C 19.334 21.544,19.320 21.453,19.320 21.000 C 19.320 20.538,19.333 20.459,19.440 20.248 C 19.662 19.808,20.128 19.419,20.554 19.317 C 20.774 19.264,21.110 19.268,21.383 19.326 " fill="#1A1C1F" stroke="none" fill-rule="evenodd"></path></svg>