<svg xmlns="http://www.w3.org/2000/svg" width="16" height="16" fill="none"><g clip-path="url(#a)"><path fill="#1A1C1F" fill-rule="evenodd" d="M11.605 1.6A2.786 2.786 0 0 1 14.4 4.399a2.796 2.796 0 0 1-2.795 2.799 2.76 2.76 0 0 1-2.093-.966L7.125 7.378c.05.196.066.41.066.622s-.017.426-.066.622l2.37 1.13a2.87 2.87 0 0 1 2.11-.95 2.806 2.806 0 0 1 2.795 2.799 2.796 2.796 0 0 1-2.795 2.799 2.786 2.786 0 0 1-2.796-2.799c0-.13.017-.278.033-.393L6.324 10.03c-.49.474-1.177.769-1.929.769A2.807 2.807 0 0 1 1.6 8a2.796 2.796 0 0 1 2.795-2.799c.752 0 1.439.295 1.946.77l2.5-1.196A3 3 0 0 1 8.81 4.4 2.796 2.796 0 0 1 11.605 1.6m0 8.806a1.2 1.2 0 0 0-1.194 1.195 1.2 1.2 0 0 0 1.194 1.195 1.2 1.2 0 0 0 1.193-1.195 1.2 1.2 0 0 0-1.193-1.195m-7.21-3.6A1.19 1.19 0 0 0 3.202 8a1.2 1.2 0 0 0 2.403 0c0-.671-.54-1.195-1.21-1.195m7.21-3.618a1.204 1.204 0 0 0 0 2.406c.67 0 1.21-.54 1.21-1.195 0-.671-.54-1.211-1.21-1.211" clip-rule="evenodd"/></g><defs><clipPath id="a"><path fill="#fff" d="M0 0h16v16H0z"/></clipPath></defs></svg>