<svg xmlns="http://www.w3.org/2000/svg" width="12" height="12" fill="none"><g clip-path="url(#a)"><path fill="#1A1C1F" fill-rule="evenodd" d="M8.703 1.2A2.09 2.09 0 0 1 10.8 3.3c0 1.153-.932 2.098-2.097 2.098a2.07 2.07 0 0 1-1.569-.724l-1.79.86c.037.147.05.306.05.466s-.013.32-.05.466l1.778.848c.392-.43.956-.712 1.581-.712 1.153 0 2.097.945 2.097 2.099 0 1.166-.944 2.099-2.097 2.099a2.09 2.09 0 0 1-2.072-2.394l-1.888-.884a2.08 2.08 0 0 1-1.446.577A2.105 2.105 0 0 1 1.2 6c0-1.166.944-2.1 2.097-2.1.564 0 1.078.222 1.459.578l1.875-.896a2 2 0 0 1-.024-.283c0-1.166.944-2.099 2.096-2.099m0 6.605a.9.9 0 0 0-.895.896.9.9 0 0 0 .895.896.9.9 0 0 0 .895-.896.9.9 0 0 0-.895-.896M3.297 5.104A.893.893 0 0 0 2.402 6a.9.9 0 0 0 1.802 0 .895.895 0 0 0-.907-.896M8.703 2.39a.903.903 0 0 0 0 1.804.903.903 0 1 0 0-1.804" clip-rule="evenodd"/></g><defs><clipPath id="a"><path fill="#fff" d="M0 0h12v12H0z"/></clipPath></defs></svg>