<svg xmlns="http://www.w3.org/2000/svg" width="32" height="32" fill="none"><path fill="#1A1C1F" fill-rule="evenodd" d="M23.337 4.053c-1.535.278-2.804 1.43-3.202 2.907-.112.416-.161 1.257-.094 1.617l.052.283-4.513 2.257-4.514 2.257-.265-.24c-.554-.502-1.132-.826-1.797-1.008-.429-.118-1.493-.131-1.911-.024-2.522.646-3.797 3.32-2.688 5.642a4.14 4.14 0 0 0 1.851 1.851c.627.3.985.376 1.771.374.644-.001.73-.013 1.212-.178.576-.197 1.162-.553 1.528-.93l.235-.24 4.543 2.272 4.544 2.271-.05.271c-.065.35-.014 1.194.096 1.605.363 1.347 1.48 2.457 2.852 2.834.479.132 1.547.132 2.026 0 1.113-.306 2.1-1.119 2.582-2.13.247-.516.35-.924.388-1.533a3.97 3.97 0 0 0-2.424-3.886c-.584-.241-.894-.298-1.586-.295-.729.004-1.12.089-1.717.375-.352.168-1.062.68-1.234.89-.064.078-.526-.14-4.593-2.174l-4.523-2.261.045-.23c.056-.291.057-.963.002-1.248l-.042-.218 4.515-2.257 4.515-2.257.423.355c.813.684 1.581.964 2.636.964 1.006 0 1.746-.25 2.484-.843 1.164-.933 1.727-2.449 1.439-3.875-.313-1.55-1.387-2.694-2.936-3.126-.334-.094-1.3-.136-1.65-.072m1.516 2.153c.388.195.718.521.925.914.158.3.169.354.169.88 0 .524-.011.58-.168.881-.176.337-.576.752-.869.904a2.8 2.8 0 0 1-.542.166c-.866.181-1.736-.26-2.164-1.098-.137-.266-.151-.344-.151-.853s.014-.587.151-.853a2.1 2.1 0 0 1 1.16-1.036c.382-.138 1.118-.091 1.489.095m-16 8c.388.195.718.521.925.914.158.3.169.354.169.88 0 .524-.011.58-.168.881-.176.337-.576.752-.869.904a2.8 2.8 0 0 1-.542.166c-.866.181-1.736-.26-2.164-1.098-.137-.266-.151-.344-.151-.853s.014-.587.151-.853a2.1 2.1 0 0 1 1.16-1.036c.382-.138 1.118-.091 1.489.095m16 8c.388.195.718.521.925.914.158.3.169.354.169.88 0 .524-.011.58-.168.881-.176.337-.576.752-.869.904a2.8 2.8 0 0 1-.542.166c-.866.181-1.736-.26-2.164-1.098-.137-.266-.151-.344-.151-.853s.014-.587.151-.853a2.1 2.1 0 0 1 1.16-1.036c.382-.138 1.118-.091 1.489.095"/></svg>