<svg xmlns="http://www.w3.org/2000/svg" width="28" height="28" fill="none"><g clip-path="url(#a)"><path fill="#1A1C1F" fill-rule="evenodd" d="M21 3.5A3.49 3.49 0 0 1 24.5 7a3.49 3.49 0 0 1-3.5 3.5 3.52 3.52 0 0 1-2.652-1.203l-7.93 3.965a3.4 3.4 0 0 1 0 1.476l7.93 3.965A3.52 3.52 0 0 1 21 17.5a3.49 3.49 0 0 1 3.5 3.5 3.49 3.49 0 0 1-3.5 3.5 3.49 3.49 0 0 1-3.418-4.238l-7.957-3.965A3.46 3.46 0 0 1 7 17.5 3.49 3.49 0 0 1 3.5 14 3.49 3.49 0 0 1 7 10.5c1.066 0 1.996.465 2.652 1.203l7.93-3.965A3.49 3.49 0 0 1 21 3.5m0 15.75c-.957 0-1.75.793-1.75 1.75s.793 1.75 1.75 1.75 1.75-.793 1.75-1.75-.793-1.75-1.75-1.75m-14-7c-.957 0-1.75.793-1.75 1.75s.793 1.75 1.75 1.75 1.75-.793 1.75-1.75-.793-1.75-1.75-1.75m14-7c-.957 0-1.75.793-1.75 1.75s.793 1.75 1.75 1.75 1.75-.793 1.75-1.75-.793-1.75-1.75-1.75" clip-rule="evenodd"/></g><defs><clipPath id="a"><path fill="#fff" d="M0 0h28v28H0z"/></clipPath></defs></svg>