<svg xmlns="http://www.w3.org/2000/svg" width="32" height="32" fill="none"><path fill="#1A1C1F" fill-rule="evenodd" d="M15.547 2.766c-.118.053-.25.139-.294.189-.044.051-.956 1.849-2.026 3.995l-1.947 3.903-4.293.618c-2.713.39-4.353.648-4.454.701-.503.263-.679.951-.36 1.409.081.116 1.521 1.55 3.2 3.187s3.054 2.987 3.054 2.999-.336 1.95-.746 4.305c-.814 4.675-.794 4.485-.499 4.875.072.096.23.224.35.286.459.234.374.27 4.588-1.943 2.105-1.106 3.851-2.01 3.88-2.01s1.775.904 3.879 2.009c4.06 2.131 4.075 2.138 4.511 1.994.104-.034.274-.156.377-.27.364-.402.386-.151-.446-4.922a1057 1057 0 0 1-.748-4.318c0-.016 1.374-1.368 3.054-3.005s3.119-3.071 3.2-3.187c.319-.458.143-1.146-.36-1.409-.101-.053-1.741-.311-4.454-.701l-4.293-.618-1.947-3.903c-1.07-2.146-1.982-3.944-2.026-3.995-.235-.27-.82-.362-1.2-.189M17.6 9.104c.865 1.749 1.618 3.237 1.672 3.307.219.28.358.309 3.906.813 1.875.266 3.462.496 3.527.511.1.022-.117.257-1.467 1.583-3.505 3.444-3.679 3.624-3.721 3.849-.029.156.115 1.092.579 3.76.339 1.953.612 3.555.607 3.559s-1.45-.751-3.21-1.679c-3.075-1.62-3.211-1.686-3.493-1.686s-.418.066-3.493 1.686c-1.76.928-3.205 1.683-3.21 1.679s.265-1.54.6-3.413.61-3.513.61-3.645c0-.131-.038-.319-.085-.416-.047-.099-1.229-1.301-2.659-2.702-1.946-1.908-2.553-2.532-2.489-2.56.047-.02 1.632-.256 3.521-.523 3.577-.507 3.713-.535 3.933-.816.054-.069.807-1.557 1.672-3.307s1.585-3.181 1.6-3.181.735 1.431 1.6 3.181"/></svg>