<svg xmlns="http://www.w3.org/2000/svg" width="16" height="16" fill="none"><g clip-path="url(#a)"><path fill="#1A1C1F" fill-rule="evenodd" d="M8 1.875c.3 0 .6.175.725.45L10.25 5.45l3.475.5a.79.79 0 0 1 .675.8c0 .2-.1.425-.25.575l-2.5 2.425.6 3.45c.075.5-.3.925-.8.925a.8.8 0 0 1-.35-.1L8 12.4l-3.1 1.625a.65.65 0 0 1-.375.1c-.475 0-.85-.475-.775-.925l.6-3.45-2.5-2.425a.86.86 0 0 1-.25-.575c0-.325.225-.725.675-.8l3.475-.5 1.525-3.125A.81.81 0 0 1 8 1.875m0 2.6-1.025 2.05a.8.8 0 0 1-.6.45l-2.25.325L5.75 8.9c.175.175.3.475.25.7l-.4 2.25 2.025-1.05c.125-.075.25-.1.375-.1s.25.025.375.1l2.025 1.05L10 9.6c-.05-.25.075-.525.25-.7l1.625-1.6-2.25-.325a.86.86 0 0 1-.6-.45z" clip-rule="evenodd"/></g><defs><clipPath id="a"><path fill="#fff" d="M0 0h16v16H0z"/></clipPath></defs></svg>