<svg width="24" height="24" viewBox="0 0 24 24" fill="none" xmlns="http://www.w3.org/2000/svg"><path d="M11.729 2.499 C 11.467 2.581,11.297 2.735,11.097 3.072 C 10.997 3.242,10.388 4.444,9.743 5.744 C 9.099 7.044,8.554 8.119,8.533 8.132 C 8.495 8.155,7.242 8.352,4.263 8.800 C 2.482 9.069,2.447 9.079,2.183 9.424 C 1.968 9.706,1.943 10.094,2.119 10.438 C 2.164 10.526,2.885 11.262,3.868 12.222 C 5.899 14.206,6.400 14.717,6.400 14.807 C 6.400 14.844,6.293 15.484,6.162 16.228 C 5.771 18.444,5.440 20.466,5.440 20.630 C 5.440 20.833,5.611 21.170,5.788 21.316 C 5.982 21.476,6.319 21.577,6.553 21.544 C 6.737 21.519,6.940 21.418,10.710 19.462 L 11.999 18.793 14.435 20.056 C 17.298 21.541,17.338 21.560,17.523 21.560 C 17.929 21.560,18.373 21.279,18.502 20.940 C 18.600 20.683,18.579 20.518,18.059 17.440 L 17.603 14.740 19.740 12.620 C 21.817 10.560,21.879 10.494,21.939 10.283 C 22.049 9.890,22.003 9.632,21.776 9.366 C 21.534 9.083,21.460 9.062,19.854 8.819 C 16.205 8.265,15.504 8.155,15.467 8.132 C 15.445 8.118,14.916 7.072,14.290 5.807 C 13.665 4.541,13.072 3.361,12.972 3.183 C 12.733 2.757,12.553 2.573,12.303 2.499 C 12.066 2.428,11.955 2.428,11.729 2.499 M12.988 7.695 C 13.520 8.759,14.002 9.684,14.058 9.750 C 14.259 9.989,14.385 10.018,16.899 10.400 C 17.933 10.557,18.787 10.694,18.798 10.705 C 18.809 10.716,18.096 11.439,17.212 12.312 C 15.453 14.051,15.489 14.006,15.533 14.436 C 15.546 14.559,15.705 15.555,15.887 16.648 C 16.068 17.742,16.206 18.647,16.193 18.661 C 16.161 18.692,15.743 18.482,13.916 17.516 L 12.412 16.720 12.000 16.720 L 11.588 16.720 10.084 17.516 C 8.263 18.479,7.839 18.692,7.808 18.661 C 7.795 18.648,7.933 17.733,8.115 16.629 C 8.512 14.216,8.511 14.221,8.421 14.016 C 8.373 13.909,7.855 13.369,6.766 12.293 C 5.894 11.431,5.191 10.716,5.202 10.705 C 5.213 10.693,6.077 10.556,7.121 10.400 C 9.359 10.065,9.671 10.000,9.864 9.831 C 9.970 9.738,10.230 9.255,10.991 7.735 C 11.535 6.649,11.989 5.760,12.000 5.760 C 12.011 5.760,12.456 6.631,12.988 7.695 " fill="#1A1C1F" stroke="none" fill-rule="evenodd"></path></svg>