<svg xmlns="http://www.w3.org/2000/svg" width="20" height="20" fill="none"><g clip-path="url(#a)"><path fill="#1A1C1F" fill-rule="evenodd" d="M10 2.344c.375 0 .75.219.906.562l1.906 3.907 4.344.625c.469.062.844.468.844 1 0 .25-.125.53-.312.718l-3.125 3.031.75 4.313a.996.996 0 0 1-1 1.156c-.157 0-.313-.062-.438-.125L10 15.5l-3.875 2.031a.8.8 0 0 1-.469.125c-.593 0-1.062-.593-.968-1.156l.75-4.312-3.125-3.032A1.08 1.08 0 0 1 2 8.438c0-.407.281-.907.844-1l4.344-.625 1.906-3.907c.156-.343.531-.562.906-.562m0 3.25L8.719 8.156a1 1 0 0 1-.75.563l-2.813.406 2.032 2c.218.219.375.594.312.875L7 14.813 9.531 13.5a.9.9 0 0 1 .469-.125c.156 0 .313.031.469.125L13 14.813 12.5 12c-.062-.312.094-.656.313-.875l2.03-2-2.812-.406c-.344-.063-.594-.281-.75-.563z" clip-rule="evenodd"/></g><defs><clipPath id="a"><path fill="#fff" d="M0 0h20v20H0z"/></clipPath></defs></svg>