<svg xmlns="http://www.w3.org/2000/svg" width="12" height="12" fill="none"><g clip-path="url(#a)"><path fill="#1A1C1F" fill-rule="evenodd" d="M8.587 10.594a.6.6 0 0 1-.262-.075L6 9.3l-2.325 1.219a.5.5 0 0 1-.281.075c-.357 0-.638-.356-.582-.694l.45-2.588-1.875-1.818a.65.65 0 0 1-.187-.432c0-.243.169-.543.506-.6l2.606-.375 1.144-2.343A.6.6 0 0 1 6 1.406c.225 0 .45.131.544.338l1.143 2.343 2.607.375a.59.59 0 0 1 .506.6c0 .15-.075.32-.187.432L8.737 7.312l.45 2.588a.598.598 0 0 1-.6.694" clip-rule="evenodd"/></g><defs><clipPath id="a"><path fill="#fff" d="M0 0h12v12H0z"/></clipPath></defs></svg>