<svg width="14" height="14" viewBox="0 0 14 14" fill="none" xmlns="http://www.w3.org/2000/svg"><path d="M6.761 1.692 C 6.713 1.710,6.625 1.758,6.566 1.799 C 6.459 1.872,6.443 1.902,5.739 3.323 L 5.020 4.773 3.671 4.968 C 2.074 5.198,1.825 5.245,1.694 5.337 C 1.508 5.467,1.377 5.762,1.409 5.977 C 1.449 6.242,1.425 6.216,3.576 8.307 L 3.804 8.528 3.593 9.742 C 3.248 11.715,3.245 11.743,3.349 11.948 C 3.473 12.192,3.710 12.351,3.955 12.353 C 4.089 12.355,4.120 12.343,4.655 12.072 C 4.963 11.916,5.616 11.578,6.107 11.321 L 6.999 10.853 8.044 11.400 C 8.618 11.702,9.270 12.040,9.492 12.152 C 9.873 12.343,9.904 12.355,10.040 12.354 C 10.355 12.351,10.638 12.112,10.713 11.784 C 10.739 11.671,10.665 11.197,10.300 9.123 L 10.195 8.528 10.423 8.307 C 12.129 6.652,12.469 6.309,12.528 6.183 C 12.614 5.998,12.613 5.778,12.523 5.595 C 12.448 5.444,12.312 5.315,12.171 5.263 C 12.067 5.225,11.598 5.151,10.002 4.921 L 8.980 4.774 8.284 3.368 C 7.901 2.595,7.566 1.931,7.538 1.893 C 7.510 1.853,7.417 1.787,7.323 1.740 C 7.181 1.669,7.135 1.657,7.003 1.658 C 6.918 1.659,6.809 1.674,6.761 1.692 M7.405 4.731 C 7.826 5.561,7.976 5.836,8.056 5.923 C 8.175 6.053,8.357 6.094,9.543 6.266 C 9.960 6.326,10.311 6.384,10.322 6.395 C 10.334 6.405,10.014 6.747,9.610 7.156 C 8.829 7.947,8.750 8.047,8.750 8.247 C 8.750 8.357,8.816 8.781,8.973 9.678 C 9.034 10.028,9.078 10.320,9.071 10.327 C 9.064 10.334,8.629 10.123,8.105 9.858 C 7.156 9.377,7.151 9.375,7.000 9.375 C 6.849 9.375,6.844 9.377,5.895 9.858 C 5.371 10.123,4.936 10.334,4.929 10.326 C 4.921 10.319,4.975 9.969,5.048 9.549 C 5.221 8.558,5.262 8.268,5.242 8.164 C 5.213 8.012,5.084 7.860,4.368 7.135 C 3.979 6.740,3.666 6.408,3.673 6.397 C 3.680 6.385,3.741 6.369,3.809 6.360 C 4.235 6.305,5.519 6.105,5.635 6.076 C 5.828 6.027,5.928 5.955,6.041 5.782 C 6.094 5.701,6.328 5.260,6.560 4.801 C 6.792 4.342,6.989 3.967,6.999 3.967 C 7.009 3.967,7.191 4.311,7.405 4.731 " fill="#1A1C1F" stroke="none" fill-rule="evenodd"></path></svg>