<svg xmlns="http://www.w3.org/2000/svg" width="12" height="12" fill="none"><g clip-path="url(#a)"><path fill="#1A1C1F" fill-rule="evenodd" d="M6 1.406c.225 0 .45.131.544.338l1.144 2.343 2.606.375a.59.59 0 0 1 .506.6c0 .15-.075.32-.187.432L8.738 7.312l.45 2.588a.598.598 0 0 1-.6.694.6.6 0 0 1-.263-.075L6 9.3l-2.325 1.219a.5.5 0 0 1-.281.075c-.356 0-.638-.356-.581-.694l.45-2.588-1.875-1.818a.65.65 0 0 1-.188-.432c0-.243.169-.543.506-.6l2.607-.375 1.143-2.343A.6.6 0 0 1 6 1.406m0 1.95-.769 1.538a.6.6 0 0 1-.45.337l-1.687.244 1.219 1.2c.13.131.225.356.187.525l-.3 1.687L5.719 8.1A.53.53 0 0 1 6 8.025a.53.53 0 0 1 .281.075l1.519.787L7.5 7.2c-.037-.188.056-.394.188-.525l1.218-1.2-1.687-.244a.64.64 0 0 1-.45-.337z" clip-rule="evenodd"/></g><defs><clipPath id="a"><path fill="#fff" d="M0 0h12v12H0z"/></clipPath></defs></svg>