<svg width="14" height="14" viewBox="0 0 14 14" fill="none" xmlns="http://www.w3.org/2000/svg"><path d="M6.761 1.692 C 6.713 1.710,6.625 1.758,6.566 1.799 C 6.459 1.872,6.443 1.902,5.739 3.323 L 5.020 4.773 3.671 4.968 C 2.074 5.198,1.825 5.245,1.694 5.337 C 1.508 5.467,1.377 5.762,1.409 5.977 C 1.449 6.242,1.425 6.216,3.576 8.307 L 3.804 8.528 3.593 9.742 C 3.248 11.715,3.245 11.743,3.349 11.948 C 3.473 12.192,3.710 12.351,3.955 12.353 C 4.089 12.355,4.120 12.343,4.655 12.072 C 4.963 11.916,5.616 11.578,6.107 11.321 L 6.999 10.853 8.044 11.400 C 8.618 11.702,9.270 12.040,9.492 12.152 C 9.873 12.343,9.904 12.355,10.040 12.354 C 10.355 12.351,10.638 12.112,10.713 11.784 C 10.739 11.671,10.665 11.197,10.300 9.123 L 10.195 8.528 10.423 8.307 C 12.129 6.652,12.469 6.309,12.528 6.183 C 12.614 5.998,12.613 5.778,12.523 5.595 C 12.448 5.444,12.312 5.315,12.171 5.263 C 12.067 5.225,11.598 5.151,10.002 4.921 L 8.980 4.774 8.284 3.368 C 7.901 2.595,7.566 1.931,7.538 1.893 C 7.510 1.853,7.417 1.787,7.323 1.740 C 7.181 1.669,7.135 1.657,7.003 1.658 C 6.918 1.659,6.809 1.674,6.761 1.692 " fill="#1A1C1F" stroke="none" fill-rule="evenodd"></path></svg>