<svg width="20" height="20" viewBox="0 0 20 20" fill="none" xmlns="http://www.w3.org/2000/svg"><path d="M9.659 2.417 C 9.590 2.442,9.464 2.511,9.379 2.569 C 9.227 2.674,9.204 2.717,8.198 4.748 L 7.171 6.820 5.244 7.097 C 2.962 7.426,2.607 7.492,2.420 7.624 C 2.154 7.810,1.967 8.232,2.013 8.539 C 2.070 8.916,2.100 8.949,5.109 11.867 L 5.436 12.183 5.149 13.817 C 4.646 16.687,4.636 16.777,4.784 17.069 C 4.948 17.392,5.273 17.622,5.614 17.656 C 5.777 17.673,5.813 17.659,6.617 17.258 C 7.075 17.029,8.023 16.541,8.724 16.172 L 9.998 15.502 11.524 16.303 C 12.363 16.743,13.295 17.227,13.595 17.377 C 14.104 17.632,14.153 17.650,14.345 17.648 C 14.858 17.644,15.315 17.187,15.308 16.683 C 15.305 16.476,15.161 15.585,14.783 13.434 L 14.564 12.184 14.907 11.850 C 18.020 8.825,17.941 8.911,17.989 8.508 C 18.029 8.167,17.834 7.779,17.526 7.589 C 17.347 7.478,17.037 7.424,14.406 7.046 L 12.828 6.820 11.834 4.812 C 11.288 3.707,10.808 2.759,10.769 2.704 C 10.729 2.647,10.595 2.552,10.461 2.485 C 10.259 2.384,10.193 2.367,10.004 2.369 C 9.883 2.370,9.727 2.392,9.659 2.417 M10.597 6.794 C 11.258 8.097,11.424 8.391,11.566 8.511 C 11.748 8.664,11.995 8.716,13.750 8.969 C 14.282 9.046,14.730 9.121,14.746 9.135 C 14.763 9.150,14.304 9.640,13.728 10.223 C 12.613 11.352,12.500 11.496,12.500 11.782 C 12.500 11.936,12.591 12.521,12.817 13.827 C 12.904 14.327,12.967 14.744,12.957 14.754 C 12.948 14.764,12.327 14.461,11.578 14.082 C 10.222 13.396,10.216 13.393,10.000 13.393 C 9.784 13.393,9.778 13.396,8.422 14.082 C 7.673 14.461,7.052 14.763,7.041 14.752 C 7.030 14.741,7.107 14.241,7.212 13.641 C 7.459 12.226,7.517 11.811,7.488 11.663 C 7.447 11.445,7.262 11.228,6.238 10.190 C 5.676 9.621,5.237 9.151,5.254 9.135 C 5.270 9.120,5.771 9.038,6.367 8.951 C 7.773 8.747,8.105 8.687,8.284 8.600 C 8.541 8.475,8.642 8.311,9.432 6.742 C 9.729 6.150,9.984 5.667,9.999 5.667 C 10.013 5.667,10.283 6.174,10.597 6.794 " fill="#1A1C1F" stroke="none" fill-rule="evenodd"></path></svg>