<svg xmlns="http://www.w3.org/2000/svg" width="24" height="24" fill="none"><g clip-path="url(#a)"><path fill="#1A1C1F" fill-rule="evenodd" d="M6.438 21.563c-.625 0-1.125-.625-1-1.157l1-5.687-4.157-4.031C2.094 10.5 2 10.218 2 9.938c0-.47.375-.876.844-.938l5.719-.844L11.093 3c.188-.312.532-.562.907-.562s.719.218.906.562l2.531 5.156 5.72.844c.406.063.843.375.843.938 0 .28-.094.562-.281.75l-4.125 4.03.968 5.688c.125.625-.406 1.157-1 1.157a.9.9 0 0 1-.468-.125L12 18.78l-5.094 2.657a.9.9 0 0 1-.468.125" clip-rule="evenodd"/></g><defs><clipPath id="a"><path fill="#fff" d="M0 0h24v24H0z"/></clipPath></defs></svg>