<svg width="32" height="32" viewBox="0 0 32 32" fill="none" xmlns="http://www.w3.org/2000/svg"><path d="M15.699 2.715 C 15.292 2.818,15.314 2.780,13.233 6.926 L 11.256 10.866 10.974 10.902 C 10.144 11.010,3.976 11.917,3.312 12.029 C 2.810 12.114,2.486 12.195,2.400 12.259 C 2.060 12.509,1.927 13.080,2.116 13.478 C 2.169 13.590,3.446 14.880,5.316 16.709 C 7.027 18.383,8.427 19.754,8.427 19.756 C 8.426 19.758,8.127 21.486,7.760 23.595 C 7.394 25.704,7.065 27.686,7.031 27.999 C 6.971 28.534,6.974 28.582,7.074 28.778 C 7.202 29.028,7.627 29.333,7.848 29.333 C 8.112 29.333,8.770 29.044,10.187 28.304 C 10.935 27.913,12.548 27.071,13.772 26.431 L 15.997 25.269 16.839 25.707 C 17.301 25.947,18.893 26.778,20.375 27.552 C 23.377 29.120,23.902 29.361,24.227 29.317 C 24.480 29.283,24.785 29.053,24.931 28.787 C 25.029 28.608,25.032 28.560,24.971 28.018 C 24.936 27.700,24.607 25.714,24.240 23.603 C 23.873 21.493,23.573 19.764,23.573 19.760 C 23.573 19.756,24.973 18.382,26.685 16.708 C 28.545 14.888,29.832 13.589,29.885 13.477 C 30.067 13.094,29.926 12.492,29.600 12.257 C 29.516 12.196,29.177 12.111,28.688 12.029 C 28.024 11.917,21.856 11.010,21.025 10.902 L 20.744 10.866 18.826 7.046 C 17.771 4.945,16.861 3.150,16.803 3.056 C 16.745 2.962,16.629 2.849,16.544 2.806 C 16.351 2.705,15.919 2.659,15.699 2.715 M17.653 9.211 C 18.766 11.426,19.323 12.480,19.415 12.546 C 19.620 12.694,20.289 12.812,23.600 13.285 C 25.272 13.524,26.664 13.742,26.693 13.769 C 26.728 13.802,25.849 14.709,24.206 16.336 C 22.809 17.721,21.625 18.933,21.576 19.031 C 21.467 19.247,21.474 19.300,22.197 23.532 C 22.467 25.108,22.674 26.411,22.657 26.427 C 22.641 26.444,21.502 25.865,20.127 25.142 C 18.752 24.418,17.318 23.674,16.940 23.487 C 16.037 23.039,15.968 23.038,15.111 23.460 C 14.563 23.730,11.170 25.501,9.821 26.222 C 9.576 26.353,9.361 26.446,9.344 26.428 C 9.326 26.410,9.532 25.143,9.802 23.611 C 10.489 19.703,10.527 19.459,10.483 19.220 C 10.449 19.036,10.163 18.730,7.849 16.407 C 5.575 14.124,5.267 13.795,5.360 13.754 C 5.419 13.728,6.811 13.514,8.453 13.279 C 11.729 12.808,12.382 12.692,12.585 12.546 C 12.677 12.480,13.233 11.428,14.347 9.211 C 15.241 7.431,15.985 5.974,16.000 5.974 C 16.015 5.974,16.759 7.431,17.653 9.211 " fill="#1A1C1F" stroke="none" fill-rule="evenodd"></path></svg>