<svg width="16" height="16" viewBox="0 0 16 16" fill="none" xmlns="http://www.w3.org/2000/svg"><path d="M7.727 1.934 C 7.672 1.954,7.572 2.009,7.503 2.056 C 7.382 2.139,7.363 2.173,6.558 3.798 L 5.737 5.456 4.195 5.678 C 2.370 5.941,2.086 5.994,1.936 6.099 C 1.723 6.248,1.574 6.586,1.611 6.831 C 1.656 7.135,1.629 7.106,4.074 9.480 L 4.348 9.747 4.119 11.053 C 3.706 13.415,3.704 13.431,3.849 13.693 C 3.998 13.962,4.335 14.160,4.586 14.126 C 4.702 14.111,5.499 13.715,6.979 12.938 L 7.999 12.403 9.219 13.042 C 11.249 14.105,11.281 14.120,11.475 14.119 C 11.886 14.116,12.255 13.747,12.247 13.347 C 12.244 13.180,12.125 12.443,11.827 10.747 L 11.651 9.747 11.926 9.480 C 14.486 6.994,14.386 7.106,14.386 6.733 C 14.387 6.582,14.372 6.518,14.312 6.394 C 14.227 6.221,14.071 6.074,13.909 6.015 C 13.790 5.971,13.202 5.878,11.418 5.622 L 10.263 5.456 9.467 3.850 C 9.030 2.966,8.647 2.207,8.615 2.163 C 8.583 2.118,8.476 2.042,8.369 1.988 C 8.207 1.907,8.154 1.894,8.003 1.895 C 7.906 1.896,7.782 1.914,7.727 1.934 M8.479 5.438 C 9.011 6.486,9.139 6.713,9.253 6.809 C 9.398 6.931,9.601 6.974,11.000 7.175 C 11.425 7.237,11.784 7.297,11.797 7.308 C 11.810 7.320,11.444 7.712,10.983 8.179 C 10.091 9.082,10.000 9.197,10.000 9.425 C 10.000 9.548,10.071 10.004,10.254 11.061 C 10.323 11.461,10.374 11.795,10.366 11.803 C 10.358 11.811,9.862 11.569,9.263 11.266 C 8.178 10.717,8.173 10.714,8.000 10.714 C 7.827 10.714,7.822 10.717,6.737 11.266 C 6.138 11.569,5.641 11.810,5.633 11.802 C 5.624 11.793,5.686 11.393,5.769 10.913 C 5.967 9.781,6.013 9.449,5.991 9.330 C 5.957 9.156,5.810 8.982,4.990 8.152 C 4.543 7.698,4.190 7.320,4.203 7.309 C 4.216 7.297,4.617 7.230,5.093 7.161 C 6.216 6.998,6.483 6.949,6.627 6.880 C 6.833 6.780,6.914 6.649,7.545 5.393 C 7.783 4.920,7.987 4.533,7.999 4.533 C 8.010 4.533,8.226 4.941,8.479 5.438 " fill="#1A1C1F" stroke="none" fill-rule="evenodd"></path></svg>