<svg width="28" height="28" viewBox="0 0 28 28" fill="none" xmlns="http://www.w3.org/2000/svg"><path d="M13.737 2.376 C 13.382 2.466,13.401 2.434,11.580 6.060 L 9.848 9.508 9.602 9.540 C 8.876 9.634,3.479 10.427,2.898 10.525 C 2.470 10.598,2.173 10.672,2.100 10.725 C 1.814 10.931,1.692 11.457,1.851 11.793 C 1.898 11.892,3.015 13.020,4.651 14.620 C 6.148 16.085,7.373 17.285,7.373 17.287 C 7.373 17.289,7.110 18.802,6.790 20.650 C 6.469 22.498,6.182 24.232,6.151 24.504 C 6.100 24.967,6.102 25.010,6.190 25.181 C 6.244 25.287,6.379 25.429,6.513 25.520 C 6.924 25.798,6.994 25.772,9.963 24.216 C 11.144 23.598,12.536 22.871,13.056 22.602 L 14.002 22.112 15.949 23.128 C 20.907 25.716,20.901 25.713,21.239 25.650 C 21.443 25.611,21.759 25.349,21.842 25.148 C 21.935 24.923,21.866 24.426,21.210 20.653 C 20.889 18.807,20.627 17.293,20.627 17.290 C 20.627 17.286,21.852 16.085,23.349 14.620 C 24.985 13.020,26.102 11.892,26.149 11.793 C 26.308 11.457,26.186 10.931,25.900 10.725 C 25.827 10.672,25.530 10.598,25.102 10.525 C 24.521 10.427,19.124 9.634,18.397 9.540 L 18.151 9.508 16.473 6.166 C 15.550 4.327,14.753 2.756,14.703 2.674 C 14.652 2.592,14.550 2.493,14.476 2.455 C 14.307 2.367,13.929 2.327,13.737 2.376 M15.447 8.060 C 16.420 9.997,16.907 10.920,16.988 10.978 C 17.168 11.107,17.753 11.211,20.650 11.624 C 22.113 11.833,23.331 12.024,23.357 12.048 C 23.387 12.077,22.618 12.870,21.180 14.294 C 19.958 15.506,18.922 16.567,18.879 16.652 C 18.783 16.841,18.790 16.887,19.423 20.591 C 19.658 21.970,19.839 23.110,19.824 23.125 C 19.809 23.140,19.621 23.059,19.407 22.944 C 18.227 22.314,15.257 20.763,14.778 20.527 C 14.028 20.159,13.968 20.160,13.178 20.550 C 12.847 20.714,11.593 21.365,10.392 21.997 C 9.190 22.629,8.198 23.147,8.187 23.147 C 8.142 23.147,8.182 22.888,8.541 20.880 C 9.103 17.729,9.212 17.031,9.173 16.820 C 9.143 16.656,8.904 16.400,6.868 14.356 C 4.878 12.359,4.608 12.071,4.690 12.035 C 4.741 12.012,5.959 11.825,7.397 11.619 C 10.263 11.207,10.834 11.106,11.012 10.978 C 11.093 10.920,11.579 10.000,12.553 8.060 C 13.336 6.502,13.987 5.227,14.000 5.227 C 14.013 5.227,14.664 6.502,15.447 8.060 " fill="#1A1C1F" stroke="none" fill-rule="evenodd"></path></svg>