<svg width="24" height="24" viewBox="0 0 24 24" fill="none" xmlns="http://www.w3.org/2000/svg"><path d="M11.760 2.477 C 11.705 2.494,11.606 2.536,11.540 2.571 C 11.237 2.729,11.157 2.870,9.856 5.521 C 9.160 6.939,8.578 8.114,8.563 8.131 C 8.547 8.148,7.208 8.358,5.586 8.598 C 2.379 9.073,2.511 9.044,2.227 9.358 C 1.903 9.716,1.930 10.297,2.289 10.686 C 2.383 10.788,3.355 11.739,4.450 12.799 C 6.102 14.399,6.437 14.741,6.420 14.813 C 6.409 14.861,6.176 16.178,5.902 17.740 C 5.362 20.819,5.373 20.710,5.576 21.058 C 5.812 21.459,6.310 21.657,6.723 21.513 C 6.797 21.487,8.007 20.866,9.412 20.133 C 10.816 19.400,11.980 18.800,11.999 18.800 C 12.017 18.800,13.185 19.401,14.594 20.136 C 16.002 20.871,17.221 21.494,17.303 21.521 C 17.494 21.584,17.825 21.550,18.028 21.446 C 18.256 21.330,18.465 21.079,18.538 20.835 L 18.600 20.625 18.098 17.666 C 17.687 15.245,17.605 14.699,17.648 14.659 C 17.965 14.364,21.759 10.641,21.815 10.571 C 21.916 10.442,22.000 10.147,22.000 9.921 C 22.000 9.535,21.696 9.149,21.309 9.044 C 21.216 9.019,19.863 8.810,18.303 8.580 C 16.743 8.350,15.453 8.148,15.438 8.131 C 15.422 8.114,14.836 6.930,14.135 5.500 C 13.059 3.306,12.834 2.874,12.690 2.734 C 12.439 2.488,12.065 2.385,11.760 2.477 " fill="#1A1C1F" stroke="none" fill-rule="evenodd"></path></svg>