<svg xmlns="http://www.w3.org/2000/svg" width="32" height="32" fill="none"><g clip-path="url(#a)"><path fill="#1A1C1F" fill-rule="evenodd" d="M16 2.656c.375 0 .733.18.906.531l3.782 7.657 8.468 1.219c.52.074.844.563.844 1 0 .25-.123.533-.312.718l-6.125 5.969 1.468 8.438c.11.627-.375 1.156-1 1.156a1 1 0 0 1-.468-.125L16 25.25l-7.562 3.969a1 1 0 0 1-.47.125c-.655 0-1.092-.623-1-1.157l1.47-8.437-6.126-5.969A1.02 1.02 0 0 1 2 13.062c0-.381.265-.916.844-1l8.469-1.218 3.78-7.657c.174-.35.532-.53.907-.53m0 3.219-3.125 6.313c-.155.313-.44.517-.75.562l-6.969 1 5.032 4.938c.26.255.39.563.312 1L9.281 26.5l6.25-3.281a1 1 0 0 1 .469-.125c.156 0 .307.04.469.125l6.25 3.281-1.188-6.844c-.065-.374-.066-.628.282-.968l5.03-4.938-6.968-1a1 1 0 0 1-.75-.562z" clip-rule="evenodd"/></g><defs><clipPath id="a"><path fill="#fff" d="M0 0h32v32H0z"/></clipPath></defs></svg>