<svg width="20" height="20" viewBox="0 0 20 20" fill="none" xmlns="http://www.w3.org/2000/svg"><path d="M9.659 2.417 C 9.590 2.442,9.464 2.511,9.379 2.569 C 9.227 2.674,9.204 2.717,8.198 4.748 L 7.171 6.820 5.244 7.097 C 2.962 7.426,2.607 7.492,2.420 7.624 C 2.154 7.810,1.967 8.232,2.013 8.539 C 2.070 8.916,2.100 8.949,5.109 11.867 L 5.436 12.183 5.149 13.817 C 4.646 16.687,4.636 16.777,4.784 17.069 C 4.948 17.392,5.273 17.622,5.614 17.656 C 5.777 17.673,5.813 17.659,6.617 17.258 C 7.075 17.029,8.023 16.541,8.724 16.172 L 9.998 15.502 11.524 16.303 C 12.363 16.743,13.295 17.227,13.595 17.377 C 14.104 17.632,14.153 17.650,14.345 17.648 C 14.858 17.644,15.315 17.187,15.308 16.683 C 15.305 16.476,15.161 15.585,14.783 13.434 L 14.564 12.184 14.907 11.850 C 18.020 8.825,17.941 8.911,17.989 8.508 C 18.029 8.167,17.834 7.779,17.526 7.589 C 17.347 7.478,17.037 7.424,14.406 7.046 L 12.828 6.820 11.834 4.812 C 11.288 3.707,10.808 2.759,10.769 2.704 C 10.729 2.647,10.595 2.552,10.461 2.485 C 10.259 2.384,10.193 2.367,10.004 2.369 C 9.883 2.370,9.727 2.392,9.659 2.417 " fill="#1A1C1F" stroke="none" fill-rule="evenodd"></path></svg>