<svg xmlns="http://www.w3.org/2000/svg" width="14" height="14" fill="none"><g clip-path="url(#a)"><path fill="#1A1C1F" fill-rule="evenodd" d="M10.019 12.36a.7.7 0 0 1-.306-.088L7 10.85l-2.712 1.422a.57.57 0 0 1-.329.087c-.415 0-.743-.415-.678-.809l.525-3.019L1.62 6.41a.75.75 0 0 1-.219-.503c0-.284.197-.634.59-.7l3.041-.437 1.335-2.735A.7.7 0 0 1 7 1.641c.263 0 .525.153.634.393L8.97 4.77l3.04.437a.69.69 0 0 1 .591.7.75.75 0 0 1-.219.503l-2.187 2.122.525 3.019a.698.698 0 0 1-.7.81" clip-rule="evenodd"/></g><defs><clipPath id="a"><path fill="#fff" d="M0 0h14v14H0z"/></clipPath></defs></svg>