<svg xmlns="http://www.w3.org/2000/svg" width="28" height="28" fill="none"><g clip-path="url(#a)"><path fill="#1A1C1F" fill-rule="evenodd" d="M14 2.324c.328 0 .641.158.793.465l3.309 6.7 7.41 1.066c.454.065.738.492.738.875a.93.93 0 0 1-.273.629l-5.36 5.222 1.285 7.383c.096.55-.328 1.012-.875 1.012a.86.86 0 0 1-.41-.11L14 22.094l-6.617 3.472a.86.86 0 0 1-.41.11.894.894 0 0 1-.875-1.012l1.285-7.383-5.36-5.222a.9.9 0 0 1-.273-.63c0-.333.232-.801.738-.874l7.41-1.067 3.31-6.699c.15-.307.464-.465.792-.465m0 2.817-2.734 5.523a.88.88 0 0 1-.657.492l-6.097.875 4.402 4.32c.228.225.342.494.274.876l-1.067 5.96 5.469-2.87a.86.86 0 0 1 .41-.11c.137 0 .269.035.41.11l5.469 2.87-1.04-5.988c-.056-.328-.057-.55.247-.848l4.402-4.32-6.097-.875a.88.88 0 0 1-.657-.492z" clip-rule="evenodd"/></g><defs><clipPath id="a"><path fill="#fff" d="M0 0h28v28H0z"/></clipPath></defs></svg>