<svg xmlns="http://www.w3.org/2000/svg" width="20" height="20" fill="none"><g clip-path="url(#a)"><path fill="#1A1C1F" fill-rule="evenodd" d="M14.313 17.656c-.157 0-.313-.062-.438-.125L10 15.5l-3.875 2.031a.8.8 0 0 1-.469.125c-.593 0-1.062-.593-.968-1.156l.75-4.312-3.125-3.032A1.08 1.08 0 0 1 2 8.438c0-.407.281-.907.844-1l4.344-.625 1.906-3.907c.156-.343.531-.562.906-.562s.75.219.906.562l1.906 3.907 4.344.625c.469.062.844.468.844 1 0 .25-.125.53-.312.718l-3.125 3.031.75 4.313a.996.996 0 0 1-1 1.156" clip-rule="evenodd"/></g><defs><clipPath id="a"><path fill="#fff" d="M0 0h20v20H0z"/></clipPath></defs></svg>