<svg width="16" height="16" viewBox="0 0 16 16" fill="none" xmlns="http://www.w3.org/2000/svg"><path d="M7.727 1.934 C 7.672 1.954,7.572 2.009,7.503 2.056 C 7.382 2.139,7.363 2.173,6.558 3.798 L 5.737 5.456 4.195 5.678 C 2.370 5.941,2.086 5.994,1.936 6.099 C 1.723 6.248,1.574 6.586,1.611 6.831 C 1.656 7.135,1.629 7.106,4.074 9.480 L 4.348 9.747 4.119 11.053 C 3.706 13.415,3.704 13.431,3.849 13.693 C 3.998 13.962,4.335 14.160,4.586 14.126 C 4.702 14.111,5.499 13.715,6.979 12.938 L 7.999 12.403 9.219 13.042 C 11.249 14.105,11.281 14.120,11.475 14.119 C 11.886 14.116,12.255 13.747,12.247 13.347 C 12.244 13.180,12.125 12.443,11.827 10.747 L 11.651 9.747 11.926 9.480 C 14.486 6.994,14.386 7.106,14.386 6.733 C 14.387 6.582,14.372 6.518,14.312 6.394 C 14.227 6.221,14.071 6.074,13.909 6.015 C 13.790 5.971,13.202 5.878,11.418 5.622 L 10.263 5.456 9.467 3.850 C 9.030 2.966,8.647 2.207,8.615 2.163 C 8.583 2.118,8.476 2.042,8.369 1.988 C 8.207 1.907,8.154 1.894,8.003 1.895 C 7.906 1.896,7.782 1.914,7.727 1.934 " fill="#1A1C1F" stroke="none" fill-rule="evenodd"></path></svg>