<svg xmlns="http://www.w3.org/2000/svg" width="28" height="28" fill="none"><g clip-path="url(#a)"><path fill="#1A1C1F" fill-rule="evenodd" d="M21.027 25.676a.86.86 0 0 1-.41-.11L14 22.094l-6.617 3.472a.86.86 0 0 1-.41.11.894.894 0 0 1-.875-1.012l1.285-7.383-5.36-5.222a.9.9 0 0 1-.273-.63c0-.333.232-.801.738-.874l7.41-1.067 3.31-6.699c.15-.307.464-.465.792-.465s.641.158.793.465l3.309 6.7 7.41 1.066c.454.065.738.492.738.875a.93.93 0 0 1-.273.629l-5.36 5.222 1.285 7.383c.096.55-.328 1.012-.875 1.012" clip-rule="evenodd"/></g><defs><clipPath id="a"><path fill="#fff" d="M0 0h28v28H0z"/></clipPath></defs></svg>