<svg width="12" height="12" viewBox="0 0 12 12" fill="none" xmlns="http://www.w3.org/2000/svg"><path d="M5.795 1.450 C 5.754 1.465,5.679 1.507,5.628 1.542 C 5.536 1.604,5.523 1.630,4.919 2.849 L 4.303 4.092 3.146 4.258 C 1.775 4.456,1.564 4.496,1.452 4.574 C 1.293 4.686,1.180 4.939,1.208 5.123 C 1.242 5.350,1.246 5.354,3.065 7.120 L 3.261 7.310 3.080 8.350 C 2.784 10.040,2.782 10.066,2.871 10.241 C 2.969 10.435,3.164 10.573,3.369 10.594 C 3.466 10.604,3.488 10.595,3.970 10.355 C 4.245 10.217,4.814 9.924,5.235 9.704 L 5.999 9.302 6.915 9.782 C 8.435 10.578,8.461 10.590,8.606 10.589 C 8.915 10.586,9.189 10.312,9.184 10.010 C 9.182 9.882,9.104 9.396,8.878 8.110 L 8.738 7.310 8.944 7.110 C 10.865 5.245,10.789 5.329,10.790 5.050 C 10.790 4.937,10.779 4.888,10.734 4.796 C 10.670 4.666,10.553 4.555,10.432 4.511 C 10.343 4.478,9.901 4.409,8.563 4.217 L 7.697 4.092 7.100 2.887 C 6.773 2.225,6.485 1.655,6.462 1.622 C 6.437 1.588,6.357 1.531,6.277 1.491 C 6.155 1.430,6.116 1.420,6.002 1.421 C 5.930 1.422,5.836 1.435,5.795 1.450 M6.359 4.079 C 6.758 4.865,6.855 5.035,6.940 5.107 C 7.049 5.198,7.197 5.229,8.250 5.381 C 8.569 5.427,8.838 5.472,8.848 5.481 C 8.858 5.490,8.583 5.784,8.237 6.134 C 7.568 6.811,7.500 6.898,7.500 7.069 C 7.500 7.166,7.561 7.559,7.691 8.295 C 7.743 8.595,7.781 8.845,7.775 8.852 C 7.769 8.858,7.396 8.677,6.947 8.449 C 6.133 8.037,6.129 8.036,6.000 8.036 C 5.871 8.036,5.867 8.037,5.053 8.449 C 4.604 8.677,4.231 8.858,4.225 8.851 C 4.218 8.845,4.264 8.549,4.326 8.195 C 4.473 7.355,4.510 7.087,4.493 6.998 C 4.468 6.867,4.357 6.737,3.743 6.114 C 3.407 5.774,3.142 5.490,3.152 5.481 C 3.162 5.472,3.399 5.432,3.680 5.392 C 4.495 5.275,4.823 5.218,4.935 5.176 C 5.112 5.110,5.165 5.027,5.659 4.045 C 5.837 3.690,5.990 3.400,5.999 3.400 C 6.007 3.400,6.169 3.705,6.359 4.079 " fill="#1A1C1F" stroke="none" fill-rule="evenodd"></path></svg>