<svg width="32" height="32" viewBox="0 0 32 32" fill="none" xmlns="http://www.w3.org/2000/svg"><path d="M19.532 3.044 C 19.234 3.096,18.802 3.290,18.527 3.496 C 18.253 3.702,18.042 4.099,17.687 5.073 C 17.315 6.095,16.934 6.896,16.509 7.547 C 15.497 9.096,13.741 10.835,11.644 12.362 L 11.048 12.796 10.701 12.563 C 9.922 12.041,9.427 11.977,6.427 12.014 C 4.560 12.037,4.435 12.045,4.107 12.157 C 3.636 12.318,3.216 12.582,2.855 12.943 C 2.493 13.306,2.342 13.553,2.127 14.141 L 1.963 14.587 1.985 19.547 L 2.007 24.507 2.147 24.900 C 2.474 25.817,3.105 26.465,4.027 26.830 C 4.346 26.957,4.353 26.958,6.959 26.976 L 9.571 26.994 9.944 26.848 C 10.149 26.767,10.504 26.574,10.733 26.418 L 11.150 26.134 12.948 26.767 C 16.826 28.133,19.354 28.848,20.800 28.989 C 21.827 29.089,23.280 28.598,24.480 27.747 C 25.147 27.274,26.315 26.103,26.898 25.324 C 28.263 23.497,29.320 21.171,29.801 18.933 C 29.938 18.298,29.945 18.195,29.946 16.747 C 29.946 15.338,29.937 15.191,29.824 14.747 C 29.487 13.416,28.802 12.646,27.587 12.232 C 27.204 12.101,27.078 12.087,25.893 12.049 C 25.189 12.026,23.949 12.006,23.137 12.004 L 21.660 12.000 21.901 11.427 C 22.242 10.617,22.690 9.246,22.829 8.587 C 22.976 7.891,23.029 6.628,22.936 6.047 C 22.849 5.512,22.607 4.811,22.379 4.438 C 22.168 4.092,21.681 3.599,21.351 3.395 C 20.859 3.091,20.099 2.944,19.532 3.044 M20.390 5.145 C 20.472 5.199,20.620 5.413,20.734 5.644 L 20.933 6.048 20.933 7.037 C 20.932 7.992,20.926 8.049,20.755 8.667 C 20.518 9.525,20.090 10.594,19.511 11.776 C 19.248 12.313,19.020 12.832,19.004 12.929 C 18.970 13.138,19.125 13.525,19.313 13.703 C 19.631 14.003,19.469 13.990,23.349 14.030 L 26.938 14.068 27.189 14.196 C 27.501 14.356,27.753 14.714,27.850 15.134 C 27.898 15.345,27.920 15.869,27.920 16.827 C 27.920 18.165,27.915 18.234,27.772 18.800 C 26.718 22.986,23.708 26.762,21.262 26.967 C 20.611 27.022,19.583 26.804,17.596 26.191 C 16.406 25.823,13.551 24.871,12.627 24.534 L 12.000 24.306 12.000 19.437 L 12.000 14.568 12.756 14.022 C 14.515 12.749,16.386 11.022,17.428 9.707 C 18.392 8.490,19.026 7.315,19.553 5.769 L 19.813 5.004 20.030 5.028 C 20.149 5.041,20.312 5.094,20.390 5.145 M9.564 14.203 C 9.974 14.515,9.945 14.128,9.962 19.493 L 9.978 24.293 9.801 24.560 C 9.521 24.984,9.552 24.980,6.956 24.983 L 4.713 24.987 4.496 24.844 C 4.377 24.765,4.223 24.609,4.153 24.497 L 4.027 24.293 4.027 19.493 L 4.027 14.693 4.153 14.491 C 4.313 14.233,4.488 14.119,4.795 14.073 C 4.930 14.053,6.014 14.040,7.204 14.045 L 9.368 14.053 9.564 14.203 " fill="#1A1C1F" stroke="none" fill-rule="evenodd"></path></svg>