<svg xmlns="http://www.w3.org/2000/svg" width="28" height="28" fill="none"><g clip-path="url(#a)"><path fill="#1A1C1F" fill-rule="evenodd" d="M18.938 10.5c.54-1.155 1.201-2.876 1.201-4.375 0-2.06-1.085-3.5-2.639-3.5-1.445 0-1.756.975-2.006 1.76-.123.383-.261.819-.527 1.349-1.29 2.58-4.193 4.704-5.325 5.463a2.6 2.6 0 0 0-1.768-.696H4.375a2.63 2.63 0 0 0-2.625 2.625V21a2.63 2.63 0 0 0 2.625 2.625h3.5a2.62 2.62 0 0 0 1.86-.775c1.628.6 6.978 2.525 8.64 2.525 4.27 0 7.875-6.45 7.875-10.5 0-1.636 0-4.375-3.5-4.375zM8.75 21a.876.876 0 0 1-.875.875h-3.5A.876.876 0 0 1 3.5 21v-7.875c0-.483.393-.875.875-.875h3.5c.482 0 .875.392.875.875zm1.724.256c.008-.085.026-.169.026-.256v-7.875c0-.127-.02-.248-.038-.37 1.141-.746 4.518-3.133 6.07-6.238.327-.652.5-1.2.628-1.6.071-.222.159-.496.156-.525 0 0 .05-.018.183-.018.61 0 .89.908.89 1.751 0 1.999-1.627 4.778-1.642 4.805a.873.873 0 0 0 .753 1.32h5.25c1.398 0 1.75.31 1.75 2.625 0 3.454-3.285 8.75-6.125 8.75-1.083 0-5.204-1.377-7.901-2.369" clip-rule="evenodd"/></g><defs><clipPath id="a"><path fill="#fff" d="M0 0h28v28H0z"/></clipPath></defs></svg>