<svg xmlns="http://www.w3.org/2000/svg" width="14" height="14" fill="none"><g clip-path="url(#a)"><path fill="#1A1C1F" fill-rule="evenodd" d="M9.457 4.9c.113-.33.218-.71.274-1.103.089-.618-.058-1.203-.414-1.65-.342-.428-.846-.7-1.428-.747-1.13.013-1.498 1.173-1.648 1.651-.361.99-.903 1.514-1.351 1.796a.695.695 0 0 0-.69-.648H2.1a.7.7 0 0 0-.7.7V11.2a.7.7 0 0 0 .7.7h2.1c.31 0 .564-.204.656-.482 1.241.52 2.936 1.182 3.544 1.182 2.041 0 4.2-2.519 4.2-4.9 0-.766 0-2.8-2.1-2.8zM2.8 10.5V5.598h.7v4.9zm2.1-.587v-3.52C5.646 6.117 6.877 5.39 7.567 3.5c.153-.489.258-.645.31-.695.11.023.245.088.345.214q.175.22.123.579c-.12.84-.557 1.66-.562 1.669A.7.7 0 0 0 8.4 6.299h2.1c.407 0 .7 0 .7 1.4 0 1.736-1.629 3.5-2.795 3.5-.368-.018-2.022-.65-3.504-1.286" clip-rule="evenodd"/></g><defs><clipPath id="a"><path fill="#fff" d="M0 0h14v14H0z"/></clipPath></defs></svg>