<svg xmlns="http://www.w3.org/2000/svg" width="20" height="20" fill="none"><g clip-path="url(#a)"><path fill="#1A1C1F" fill-rule="evenodd" d="M13.51 6.999a8.7 8.7 0 0 0 .392-1.575c.126-.882-.083-1.719-.592-2.356A2.87 2.87 0 0 0 11.27 2c-1.615.018-2.14 1.675-2.354 2.359C8.4 5.773 7.625 6.521 6.985 6.924A.99.99 0 0 0 6 5.998H3a1 1 0 0 0-1 1V16a1 1 0 0 0 1 1h3a.99.99 0 0 0 .937-.689C8.71 17.055 11.132 18 12 18c2.916 0 6-3.598 6-7 0-1.094 0-4-3-4zm-9.51 8V7.998h1v7.001zm3-.838V9.132C8.066 8.74 9.824 7.702 10.81 5c.219-.698.369-.921.443-.993.158.033.35.126.493.306q.25.314.176.827c-.172 1.2-.796 2.372-.803 2.384a1 1 0 0 0 .88 1.474h3c.581 0 1 0 1 2 0 2.48-2.327 5-3.993 5-.526-.025-2.889-.929-5.006-1.837" clip-rule="evenodd"/></g><defs><clipPath id="a"><path fill="#fff" d="M0 0h20v20H0z"/></clipPath></defs></svg>