<svg width="24" height="24" viewBox="0 0 24 24" fill="none" xmlns="http://www.w3.org/2000/svg"><path d="M14.140 2.138 C 12.797 2.422,11.310 2.794,8.752 3.486 L 7.404 3.850 7.160 3.630 C 6.916 3.409,6.594 3.227,6.220 3.099 C 5.951 3.007,4.222 2.989,3.880 3.075 C 3.088 3.274,2.405 3.905,2.113 4.707 C 2.029 4.937,2.028 4.984,2.010 8.953 L 1.991 12.966 2.103 13.273 C 2.367 13.998,2.784 14.466,3.448 14.780 C 3.825 14.959,4.118 14.998,5.060 14.999 C 6.058 14.999,6.416 14.914,6.962 14.546 C 7.116 14.442,7.191 14.414,7.239 14.440 C 7.276 14.459,7.539 14.677,7.823 14.923 C 8.734 15.713,9.766 16.802,10.336 17.573 C 10.706 18.074,10.960 18.511,11.551 19.660 C 11.868 20.276,12.208 20.901,12.306 21.049 C 13.129 22.289,14.713 22.324,15.845 21.127 C 16.208 20.744,16.373 20.470,16.544 19.968 C 16.938 18.814,16.752 17.419,15.959 15.569 C 15.843 15.299,15.761 15.065,15.777 15.049 C 15.793 15.033,16.701 15.008,17.793 14.994 C 19.628 14.969,19.802 14.961,20.062 14.886 C 20.462 14.770,20.668 14.674,20.926 14.481 C 21.193 14.282,21.528 13.882,21.640 13.630 C 21.761 13.355,21.913 12.740,21.959 12.340 C 22.019 11.804,22.009 10.634,21.939 10.092 C 21.701 8.260,20.749 6.093,19.544 4.647 C 18.348 3.211,16.916 2.253,15.717 2.086 C 15.011 1.988,14.819 1.994,14.140 2.138 M15.504 4.080 C 16.319 4.288,17.138 4.863,17.883 5.752 C 18.710 6.739,19.458 8.169,19.759 9.337 C 19.943 10.051,19.967 10.323,19.953 11.500 C 19.942 12.442,19.931 12.597,19.869 12.710 C 19.713 12.995,19.908 12.978,16.662 13.000 L 13.740 13.020 13.555 13.128 C 13.177 13.351,12.969 13.716,13.013 14.084 C 13.037 14.283,13.122 14.462,13.578 15.277 C 14.040 16.100,14.488 17.224,14.666 18.000 C 14.758 18.406,14.760 18.995,14.670 19.287 C 14.551 19.670,14.195 20.042,14.013 19.972 C 13.981 19.960,13.747 19.534,13.493 19.026 C 12.929 17.898,12.710 17.504,12.349 16.960 C 11.428 15.575,9.799 13.866,8.350 12.766 L 8.000 12.500 8.000 9.132 L 8.000 5.764 8.150 5.721 C 9.447 5.347,14.057 4.169,14.627 4.065 C 15.059 3.987,15.142 3.989,15.504 4.080 M5.810 5.090 C 5.878 5.134,5.928 5.214,5.948 5.310 C 5.966 5.392,5.978 7.103,5.977 9.111 L 5.973 12.762 5.859 12.881 L 5.745 13.000 5.000 13.000 L 4.255 13.000 4.144 12.884 L 4.034 12.769 4.011 9.634 C 3.986 6.196,4.007 5.289,4.115 5.156 C 4.216 5.031,4.402 5.003,5.082 5.012 C 5.596 5.019,5.722 5.032,5.810 5.090 " fill="#1A1C1F" stroke="none" fill-rule="evenodd"></path></svg>