<svg xmlns="http://www.w3.org/2000/svg" width="12" height="12" fill="none"><g clip-path="url(#a)"><path fill="#1A1C1F" fill-rule="evenodd" d="M8.106 4.2c.097-.283.187-.61.235-.946.076-.529-.05-1.031-.355-1.413A1.72 1.72 0 0 0 6.762 1.2c-.969.01-1.284 1.005-1.412 1.415-.31.849-.775 1.298-1.159 1.54a.595.595 0 0 0-.591-.556H1.8a.6.6 0 0 0-.6.6v5.4a.6.6 0 0 0 .6.601h1.8a.59.59 0 0 0 .562-.413C5.226 10.233 6.68 10.8 7.2 10.8c1.75 0 3.6-2.159 3.6-4.2 0-.656 0-2.4-1.8-2.4zM2.4 9V4.798H3v4.2zm1.8-.503V5.479C4.84 5.244 5.894 4.621 6.486 3c.131-.419.221-.553.266-.596.095.02.21.076.296.184q.15.188.105.496c-.103.72-.477 1.423-.482 1.43A.6.6 0 0 0 7.2 5.4H9c.349 0 .6 0 .6 1.2 0 1.488-1.396 3-2.395 3C6.888 9.584 5.47 9.04 4.2 8.497" clip-rule="evenodd"/></g><defs><clipPath id="a"><path fill="#fff" d="M0 0h12v12H0z"/></clipPath></defs></svg>