<svg width="32" height="32" viewBox="0 0 32 32" fill="none" xmlns="http://www.w3.org/2000/svg"><path d="M19.733 3.173 C 18.093 3.528,14.952 4.501,11.988 5.571 L 11.149 5.874 10.808 5.630 C 9.976 5.037,9.635 4.989,6.480 5.027 C 4.442 5.051,4.332 5.058,4.011 5.172 C 3.266 5.437,2.521 6.163,2.205 6.932 C 2.078 7.244,2.058 7.377,2.022 8.213 C 1.999 8.727,1.979 11.012,1.977 13.292 L 1.973 17.437 2.132 17.871 C 2.350 18.469,2.516 18.733,2.923 19.130 C 3.395 19.591,3.962 19.869,4.590 19.949 C 4.880 19.986,5.872 20.000,7.310 19.988 C 9.442 19.969,9.590 19.962,9.868 19.858 C 10.280 19.703,10.676 19.496,10.867 19.336 L 11.028 19.200 11.661 19.662 C 13.875 21.277,15.823 23.262,16.767 24.867 C 17.125 25.476,17.349 25.979,17.729 27.038 C 18.160 28.236,18.430 28.585,19.139 28.860 C 19.369 28.949,19.559 28.978,19.947 28.981 C 21.116 28.990,22.006 28.379,22.555 27.190 C 22.908 26.425,22.960 26.140,22.960 24.960 C 22.960 23.930,22.958 23.912,22.758 23.133 C 22.526 22.231,22.235 21.359,21.916 20.617 C 21.794 20.333,21.711 20.085,21.730 20.066 C 21.749 20.046,22.946 20.014,24.389 19.993 C 26.856 19.958,27.037 19.949,27.412 19.841 C 28.898 19.413,29.700 18.383,29.922 16.617 C 30.019 15.847,29.962 13.945,29.820 13.194 C 29.479 11.394,28.579 9.198,27.518 7.577 C 26.292 5.703,24.727 4.210,23.298 3.550 C 22.533 3.196,22.040 3.084,21.147 3.061 C 20.444 3.042,20.272 3.056,19.733 3.173 M21.974 5.188 C 24.286 5.978,26.809 9.434,27.744 13.093 C 27.895 13.685,27.909 13.821,27.933 14.888 C 27.980 17.017,27.782 17.638,26.974 17.900 C 26.726 17.980,26.287 17.994,23.169 18.022 L 19.645 18.053 19.448 18.187 C 19.188 18.362,18.961 18.810,19.003 19.065 C 19.019 19.166,19.248 19.687,19.511 20.224 C 20.090 21.406,20.518 22.475,20.755 23.333 C 20.925 23.951,20.932 24.008,20.933 24.960 C 20.933 25.932,20.931 25.952,20.782 26.274 C 20.578 26.715,20.342 26.938,20.045 26.971 L 19.813 26.996 19.555 26.231 C 18.905 24.313,18.162 23.078,16.673 21.445 C 15.485 20.142,14.176 18.988,12.669 17.917 L 12.027 17.460 12.013 12.577 L 11.999 7.693 12.920 7.362 C 15.197 6.543,17.881 5.691,19.467 5.283 C 20.214 5.091,20.357 5.070,20.960 5.070 C 21.510 5.070,21.687 5.090,21.974 5.188 M9.518 7.187 C 9.636 7.270,9.788 7.420,9.856 7.522 L 9.981 7.707 9.964 12.542 L 9.947 17.377 9.781 17.582 C 9.430 18.015,9.531 18.000,7.040 18.000 L 4.827 18.000 4.570 17.874 C 4.408 17.794,4.260 17.667,4.170 17.531 L 4.027 17.314 4.027 12.511 L 4.027 7.707 4.150 7.508 C 4.302 7.264,4.509 7.111,4.781 7.041 C 4.908 7.009,5.816 6.998,7.146 7.013 L 9.305 7.037 9.518 7.187 " fill="#1A1C1F" stroke="none" fill-rule="evenodd"></path></svg>