<svg xmlns="http://www.w3.org/2000/svg" width="12" height="12" fill="none"><g clip-path="url(#a)"><path fill="#1A1C1F" fill-rule="evenodd" d="M8.106 7.8c.097.283.187.609.235.946.076.529-.05 1.031-.355 1.413a1.72 1.72 0 0 1-1.224.641c-.969-.01-1.284-1.005-1.412-1.415-.31-.849-.775-1.298-1.159-1.54a.595.595 0 0 1-.591.556H1.8a.6.6 0 0 1-.6-.6V2.4a.6.6 0 0 1 .6-.6h1.8c.265 0 .483.175.562.413C5.226 1.767 6.68 1.2 7.2 1.2c1.75 0 3.6 2.159 3.6 4.2 0 .656 0 2.4-1.8 2.4zM2.4 3v4.201H3v-4.2zm1.8.503v3.018c.64.235 1.694.858 2.286 2.479.131.419.221.553.266.596a.52.52 0 0 0 .296-.184q.15-.188.105-.496c-.103-.72-.477-1.423-.482-1.43A.6.6 0 0 1 7.2 6.6H9c.349 0 .6 0 .6-1.2 0-1.488-1.396-3-2.395-3-.316.015-1.734.558-3.004 1.102" clip-rule="evenodd"/></g><defs><clipPath id="a"><path fill="#fff" d="M0 0h12v12H0z"/></clipPath></defs></svg>