<svg xmlns="http://www.w3.org/2000/svg" width="32" height="32" fill="none"><path fill="#1A1C1F" fill-rule="evenodd" d="M19.504 3.045c-.394.058-.898.325-1.139.605-.264.305-.409.611-.688 1.455-.572 1.726-1.397 3.021-2.929 4.595a22.6 22.6 0 0 1-3.14 2.687l-.578.414-.203-.16a3.3 3.3 0 0 0-1.218-.564c-.517-.109-4.732-.108-5.249.001-.5.106-1.069.419-1.457.802-.374.368-.563.669-.762 1.214L2 14.48v4.987c0 4.687.006 5.005.098 5.304.264.855.849 1.562 1.582 1.909.652.31.731.316 3.493.297l2.507-.017.387-.158c.213-.088.543-.275.732-.417l.345-.258 1.295.462c4.681 1.675 7.705 2.494 8.873 2.405 2.104-.161 4.238-1.67 6.008-4.247.993-1.446 1.867-3.375 2.307-5.092.287-1.118.362-1.73.361-2.935 0-1.179-.086-1.852-.32-2.507q-.572-1.608-2.322-2.063c-.414-.108-.589-.116-3.065-.136l-2.626-.022.086-.196c1.304-2.973 1.586-5.058.92-6.79-.414-1.073-1.275-1.822-2.261-1.963-.421-.061-.466-.061-.896.002m.852 2.072c.205.125.403.453.532.883.145.483.133 1.54-.026 2.257-.231 1.044-.775 2.441-1.447 3.72-.202.384-.383.784-.403.89-.07.376.159.818.526 1.014.222.119.226.119 3.822.146 3.558.026 3.602.028 3.813.141.619.333.793.901.796 2.605.001.898-.017 1.161-.118 1.663-.301 1.501-.886 2.971-1.781 4.477-1.032 1.738-2.618 3.317-3.822 3.807-.997.406-1.584.362-3.876-.292-1.131-.323-3.922-1.239-5.452-1.789l-.92-.331v-4.79c0-2.634-.013-4.822-.028-4.862-.018-.048.183-.217.587-.492 1.58-1.074 3.795-3.094 4.831-4.404 1.004-1.27 1.666-2.477 2.134-3.891l.283-.856.19.001c.104 0 .266.046.359.103M9.37 14.083c.204.078.441.308.53.515.06.142.073 1.009.073 4.937v4.764l-.152.241c-.285.448-.261.444-2.728.463q-2.16.016-2.357-.041a1.06 1.06 0 0 1-.636-.56c-.092-.204-.098-.469-.098-4.909 0-4.441.006-4.704.098-4.906.107-.232.213-.341.46-.472.139-.073.462-.084 2.41-.086 1.465-.002 2.302.017 2.4.054"/></svg>