<svg width="28" height="28" viewBox="0 0 28 28" fill="none" xmlns="http://www.w3.org/2000/svg"><path d="M17.267 2.776 C 15.821 3.090,13.554 3.787,10.862 4.744 L 9.754 5.138 9.456 4.926 C 8.729 4.407,8.430 4.365,5.670 4.399 C 3.887 4.420,3.790 4.426,3.510 4.525 C 2.858 4.757,2.206 5.393,1.930 6.066 C 1.818 6.338,1.801 6.455,1.769 7.187 C 1.750 7.636,1.732 9.635,1.730 11.630 L 1.727 15.257 1.865 15.637 C 2.056 16.160,2.202 16.391,2.558 16.739 C 2.971 17.142,3.467 17.386,4.016 17.456 C 4.270 17.488,5.138 17.500,6.396 17.489 C 8.262 17.473,8.392 17.467,8.634 17.376 C 8.995 17.240,9.342 17.059,9.508 16.919 L 9.650 16.800 10.203 17.204 C 12.134 18.610,13.844 20.354,14.671 21.758 C 14.985 22.291,15.180 22.732,15.513 23.658 C 15.890 24.707,16.126 25.012,16.747 25.253 C 17.126 25.400,17.781 25.401,18.205 25.256 C 18.876 25.026,19.349 24.585,19.693 23.870 C 20.044 23.139,20.090 22.906,20.090 21.840 C 20.090 20.939,20.088 20.923,19.913 20.241 C 19.710 19.452,19.455 18.689,19.176 18.040 C 19.070 17.791,18.997 17.574,19.014 17.557 C 19.031 17.541,20.078 17.512,21.341 17.494 C 23.499 17.464,23.658 17.456,23.986 17.361 C 25.286 16.986,25.987 16.085,26.182 14.540 C 26.267 13.866,26.217 12.202,26.093 11.544 C 25.794 9.970,25.007 8.048,24.078 6.629 C 23.005 4.990,21.636 3.684,20.386 3.106 C 19.716 2.797,19.285 2.699,18.503 2.678 C 17.888 2.662,17.738 2.674,17.267 2.776 M19.137 4.508 C 19.926 4.740,20.929 5.497,21.758 6.486 C 22.909 7.861,23.813 9.644,24.276 11.457 C 24.408 11.974,24.421 12.093,24.441 13.027 C 24.483 14.900,24.311 15.427,23.580 15.669 C 23.389 15.732,22.913 15.746,20.273 15.770 L 17.190 15.797 17.017 15.913 C 16.790 16.067,16.591 16.459,16.627 16.682 C 16.642 16.770,16.842 17.226,17.072 17.696 C 17.579 18.730,17.953 19.666,18.161 20.417 C 18.310 20.957,18.315 21.007,18.316 21.840 C 18.317 22.690,18.315 22.708,18.184 22.990 C 18.006 23.376,17.799 23.571,17.539 23.599 L 17.337 23.621 17.110 22.952 C 16.530 21.238,15.851 20.127,14.478 18.643 C 13.435 17.516,12.299 16.530,10.939 15.572 L 10.523 15.279 10.511 11.005 L 10.500 6.731 11.305 6.442 C 13.297 5.725,15.646 4.980,17.033 4.623 C 17.678 4.457,17.818 4.436,18.320 4.435 C 18.703 4.434,18.964 4.457,19.137 4.508 M8.328 6.288 C 8.431 6.361,8.564 6.493,8.624 6.582 L 8.734 6.743 8.718 10.974 L 8.703 15.205 8.558 15.384 C 8.252 15.763,8.340 15.750,6.160 15.750 L 4.223 15.750 3.999 15.639 C 3.857 15.570,3.727 15.458,3.649 15.339 L 3.523 15.150 3.523 10.947 L 3.523 6.743 3.632 6.569 C 3.764 6.356,3.946 6.222,4.183 6.161 C 4.294 6.133,5.092 6.123,6.252 6.136 L 8.140 6.156 8.328 6.288 " fill="#1A1C1F" stroke="none" fill-rule="evenodd"></path></svg>