<svg width="28" height="28" viewBox="0 0 28 28" fill="none" xmlns="http://www.w3.org/2000/svg"><path d="M17.108 2.660 C 16.617 2.747,16.174 3.017,15.937 3.373 C 15.846 3.511,15.655 3.947,15.514 4.343 C 15.207 5.199,14.799 6.065,14.453 6.593 C 13.541 7.984,12.014 9.489,10.095 10.885 L 9.668 11.197 9.364 10.993 C 8.682 10.536,8.249 10.480,5.623 10.512 C 3.990 10.533,3.880 10.539,3.593 10.638 C 3.182 10.779,2.814 11.009,2.499 11.325 C 2.181 11.642,2.050 11.859,1.861 12.373 L 1.718 12.763 1.737 17.103 L 1.756 21.443 1.879 21.788 C 2.005 22.141,2.216 22.496,2.475 22.791 C 2.666 23.009,3.170 23.339,3.523 23.478 C 3.802 23.587,3.816 23.588,6.089 23.604 L 8.375 23.620 8.701 23.492 C 8.880 23.421,9.191 23.252,9.391 23.116 L 9.756 22.867 11.330 23.421 C 14.722 24.616,16.933 25.241,18.200 25.365 C 19.093 25.453,20.364 25.023,21.420 24.277 C 22.003 23.865,23.023 22.844,23.535 22.158 C 24.730 20.559,25.656 18.524,26.075 16.572 C 26.196 16.010,26.202 15.923,26.202 14.653 C 26.203 13.421,26.195 13.292,26.096 12.903 C 25.801 11.739,25.202 11.065,24.139 10.703 C 23.805 10.589,23.690 10.577,22.680 10.543 C 22.077 10.523,20.991 10.505,20.268 10.503 L 18.952 10.500 19.163 9.998 C 19.462 9.289,19.854 8.090,19.976 7.513 C 20.106 6.899,20.151 5.799,20.067 5.283 C 19.994 4.829,19.776 4.205,19.575 3.873 C 19.397 3.580,18.969 3.147,18.682 2.970 C 18.258 2.708,17.586 2.576,17.108 2.660 M17.842 4.502 C 17.913 4.549,18.042 4.736,18.142 4.938 L 18.317 5.292 18.316 6.158 C 18.315 6.993,18.310 7.043,18.161 7.583 C 17.953 8.334,17.579 9.270,17.072 10.304 C 16.842 10.774,16.642 11.228,16.628 11.313 C 16.599 11.496,16.734 11.834,16.899 11.990 C 17.178 12.253,17.035 12.241,20.429 12.276 L 23.569 12.309 23.789 12.421 C 24.063 12.561,24.284 12.874,24.368 13.242 C 24.411 13.427,24.430 13.885,24.430 14.723 C 24.430 15.895,24.425 15.954,24.301 16.450 C 24.135 17.108,23.979 17.586,23.727 18.207 C 22.720 20.692,20.912 22.832,19.305 23.440 C 18.953 23.574,18.880 23.585,18.363 23.582 C 17.868 23.579,17.718 23.557,17.057 23.389 C 15.874 23.089,12.778 22.098,11.048 21.467 L 10.500 21.267 10.500 17.007 L 10.500 12.747 11.162 12.269 C 11.968 11.686,12.711 11.071,13.539 10.302 C 15.426 8.549,16.417 7.090,17.110 5.047 L 17.337 4.379 17.526 4.399 C 17.631 4.411,17.773 4.457,17.842 4.502 M8.369 12.427 C 8.727 12.701,8.702 12.362,8.717 17.057 L 8.730 21.257 8.576 21.490 C 8.330 21.862,8.358 21.858,6.087 21.861 L 4.123 21.863 3.934 21.738 C 3.830 21.669,3.695 21.533,3.634 21.435 L 3.523 21.257 3.523 17.057 L 3.523 12.857 3.634 12.679 C 3.774 12.454,3.927 12.354,4.196 12.314 C 4.314 12.296,5.262 12.285,6.304 12.289 L 8.197 12.297 8.369 12.427 " fill="#1A1C1F" stroke="none" fill-rule="evenodd"></path></svg>