<svg xmlns="http://www.w3.org/2000/svg" width="24" height="24" fill="none"><g clip-path="url(#a)"><path fill="#1A1C1F" fill-rule="evenodd" d="M15.702 15.004c.513 1.052 1.06 2.473 1.06 3.746 0 1.793-1.24 3.251-2.763 3.251-1.337 0-1.793-.978-2.372-2.216l-.212-.452c-1.066-2.247-3.136-4.081-4.238-4.951-.43.382-.99.622-1.61.622H4.433A2.435 2.435 0 0 1 2 12.572V5.436a2.435 2.435 0 0 1 2.432-2.433h1.136c.735 0 1.386.334 1.833.851 2.436-.676 6.804-1.855 7.6-1.855 3.605 0 7 5.072 7 9.004 0 1.782 0 4-3 4zM6 5.436a.434.434 0 0 0-.432-.433H4.432A.433.433 0 0 0 4 5.436v7.136c0 .238.194.432.432.432h1.136A.43.43 0 0 0 6 12.572zm2 .327v6.726c1.076.8 3.822 3.037 5.222 5.986l.218.463c.216.463.46.986.56 1.062.265 0 .761-.43.761-1.251 0-1.417-1.155-3.514-1.6-4.202a1 1 0 0 1 .838-1.543h5c.963 0 1 0 1-2C20 7.862 17.244 4 15.018 4c-.524.03-3.85.888-7.017 1.763" clip-rule="evenodd"/></g><defs><clipPath id="a"><path fill="#fff" d="M0 0h24v24H0z"/></clipPath></defs></svg>