<svg width="24" height="24" viewBox="0 0 24 24" fill="none" xmlns="http://www.w3.org/2000/svg"><path d="M13.530 2.058 C 13.051 2.167,12.616 2.484,12.306 2.951 C 12.208 3.099,11.868 3.724,11.551 4.340 C 10.773 5.852,10.516 6.253,9.755 7.147 C 9.277 7.708,8.305 8.673,7.707 9.180 C 7.448 9.400,7.223 9.585,7.207 9.590 C 7.191 9.596,7.055 9.520,6.905 9.422 C 6.536 9.180,6.270 9.087,5.787 9.034 C 5.178 8.967,4.050 9.012,3.720 9.116 C 3.377 9.224,3.008 9.447,2.741 9.707 C 2.302 10.136,2.102 10.542,2.040 11.130 C 2.018 11.343,2.001 13.098,2.001 15.260 L 2.001 19.020 2.134 19.340 C 2.458 20.127,2.967 20.624,3.697 20.869 C 4.013 20.975,4.042 20.978,5.000 20.979 C 5.971 20.980,5.983 20.979,6.300 20.868 C 6.648 20.746,6.951 20.564,7.224 20.312 L 7.398 20.151 8.589 20.474 C 11.122 21.160,13.145 21.667,14.220 21.886 C 14.738 21.992,14.872 22.005,15.200 21.984 C 16.577 21.895,17.941 21.142,19.144 19.806 C 19.912 18.953,20.409 18.227,20.864 17.293 C 21.741 15.492,22.040 14.176,21.986 12.360 C 21.961 11.523,21.911 11.160,21.755 10.681 C 21.499 9.895,20.887 9.331,20.060 9.120 C 19.789 9.051,19.560 9.040,17.908 9.019 C 16.892 9.007,15.986 8.987,15.895 8.976 L 15.729 8.956 15.950 8.448 C 16.570 7.018,16.846 5.713,16.723 4.780 C 16.667 4.352,16.465 3.734,16.276 3.412 C 16.201 3.284,15.978 3.017,15.780 2.818 C 15.399 2.435,15.073 2.230,14.641 2.103 C 14.325 2.010,13.829 1.990,13.530 2.058 M14.232 4.094 C 14.597 4.363,14.795 4.894,14.743 5.466 C 14.658 6.403,14.207 7.588,13.359 9.101 C 13.054 9.646,12.981 9.860,13.015 10.110 C 13.063 10.459,13.345 10.833,13.629 10.924 C 13.738 10.959,14.579 10.980,16.660 10.999 C 18.808 11.019,19.572 11.039,19.667 11.076 C 19.847 11.147,19.914 11.349,19.968 11.983 C 20.022 12.637,19.962 13.736,19.838 14.340 C 19.621 15.396,19.047 16.659,18.320 17.680 C 17.449 18.905,16.477 19.682,15.509 19.928 C 15.100 20.032,14.870 20.007,13.751 19.739 C 12.440 19.426,9.146 18.567,8.210 18.295 L 8.000 18.234 8.002 14.867 L 8.004 11.500 8.350 11.240 C 8.837 10.875,9.389 10.379,10.193 9.584 C 11.746 8.051,12.402 7.142,13.420 5.111 C 13.699 4.555,13.946 4.077,13.969 4.050 C 14.028 3.978,14.088 3.988,14.232 4.094 M5.858 11.118 L 5.972 11.237 5.976 14.968 C 5.980 18.512,5.976 18.705,5.907 18.807 C 5.798 18.967,5.645 19.000,5.000 19.000 C 4.355 19.000,4.202 18.967,4.093 18.807 C 4.024 18.705,4.020 18.512,4.024 14.969 L 4.028 11.237 4.141 11.119 L 4.255 11.000 5.000 11.000 L 5.745 11.000 5.858 11.118 " fill="#1A1C1F" stroke="none" fill-rule="evenodd"></path></svg>