<svg width="12" height="12" viewBox="0 0 12 12" fill="none" xmlns="http://www.w3.org/2000/svg"><path d="M6.763 1.270 C 6.228 1.408,5.076 1.823,4.327 2.146 L 4.164 2.217 4.137 2.153 C 4.098 2.059,3.964 1.923,3.856 1.868 L 3.761 1.820 2.700 1.820 L 1.639 1.820 1.540 1.870 C 1.414 1.934,1.306 2.042,1.252 2.158 L 1.210 2.250 1.210 5.100 L 1.210 7.950 1.253 8.043 C 1.308 8.162,1.431 8.284,1.560 8.350 L 1.662 8.402 2.706 8.396 C 3.879 8.389,3.818 8.397,3.993 8.235 C 4.075 8.159,4.160 8.031,4.160 7.982 C 4.160 7.971,4.169 7.939,4.180 7.909 C 4.200 7.856,4.201 7.856,4.255 7.891 C 4.285 7.910,4.384 7.989,4.475 8.065 C 4.845 8.377,5.157 8.869,5.390 9.510 C 5.563 9.983,5.756 10.308,5.981 10.505 C 6.120 10.627,6.235 10.687,6.450 10.751 C 6.673 10.816,6.863 10.810,7.120 10.729 C 7.708 10.543,8.105 10.148,8.285 9.570 C 8.407 9.177,8.364 8.619,8.163 7.985 L 8.105 7.800 8.618 7.800 C 9.205 7.800,9.391 7.782,9.648 7.699 C 10.252 7.506,10.608 7.025,10.750 6.210 C 10.793 5.964,10.811 5.282,10.782 5.040 C 10.731 4.630,10.602 4.165,10.428 3.764 C 9.944 2.653,8.943 1.662,7.980 1.340 C 7.594 1.210,7.103 1.183,6.763 1.270 M7.540 2.461 C 7.825 2.540,8.182 2.757,8.478 3.031 C 8.946 3.463,9.366 4.170,9.511 4.767 C 9.641 5.303,9.609 6.103,9.446 6.405 C 9.343 6.596,9.413 6.585,8.147 6.602 C 7.053 6.616,7.039 6.617,6.947 6.662 C 6.767 6.748,6.660 6.893,6.615 7.110 C 6.585 7.253,6.600 7.310,6.788 7.747 C 7.086 8.440,7.208 8.966,7.131 9.228 C 7.077 9.415,6.857 9.614,6.751 9.573 C 6.709 9.557,6.622 9.374,6.501 9.050 C 6.302 8.513,6.028 8.009,5.744 7.658 C 5.544 7.410,5.182 7.076,4.934 6.912 C 4.711 6.764,4.389 6.587,4.265 6.544 L 4.200 6.522 4.200 5.013 L 4.200 3.505 4.495 3.380 C 5.389 3.001,6.472 2.592,6.906 2.469 C 7.182 2.391,7.282 2.390,7.540 2.461 M3.000 5.100 L 3.000 7.200 2.700 7.200 L 2.400 7.200 2.400 5.100 L 2.400 3.000 2.700 3.000 L 3.000 3.000 3.000 5.100 " fill="#1A1C1F" stroke="none" fill-rule="evenodd"></path></svg>