<svg width="20" height="20" viewBox="0 0 20 20" fill="none" xmlns="http://www.w3.org/2000/svg"><path d="M11.271 2.115 C 10.340 2.362,8.447 3.044,7.212 3.577 L 6.941 3.694 6.882 3.563 C 6.812 3.409,6.596 3.200,6.405 3.102 C 6.273 3.035,6.224 3.033,4.498 3.033 L 2.726 3.033 2.528 3.139 C 2.320 3.250,2.171 3.408,2.075 3.622 C 2.020 3.742,2.017 4.062,2.017 8.500 L 2.017 13.250 2.097 13.414 C 2.200 13.623,2.385 13.808,2.600 13.917 L 2.770 14.003 4.510 13.993 C 6.465 13.982,6.363 13.995,6.655 13.725 C 6.792 13.599,6.933 13.385,6.933 13.303 C 6.933 13.286,6.949 13.231,6.967 13.182 C 7.001 13.094,7.002 13.094,7.092 13.151 C 7.142 13.184,7.307 13.315,7.459 13.442 C 8.072 13.960,8.595 14.785,8.984 15.850 C 9.272 16.639,9.593 17.181,9.969 17.509 C 10.200 17.712,10.391 17.812,10.751 17.918 C 11.121 18.027,11.439 18.017,11.867 17.882 C 12.844 17.573,13.509 16.911,13.808 15.950 C 14.012 15.296,13.941 14.366,13.605 13.308 L 13.508 13.000 14.363 13.000 C 15.342 13.000,15.653 12.970,16.080 12.832 C 17.089 12.507,17.679 11.709,17.917 10.350 C 18.001 9.870,18.020 8.766,17.952 8.285 C 17.792 7.150,17.360 6.025,16.716 5.067 C 15.716 3.581,14.352 2.506,13.006 2.145 C 12.737 2.073,12.592 2.057,12.133 2.046 C 11.629 2.034,11.557 2.039,11.271 2.115 M12.511 4.085 C 12.788 4.155,13.332 4.423,13.609 4.625 C 14.667 5.398,15.552 6.707,15.851 7.945 C 16.070 8.849,16.016 10.178,15.740 10.682 C 15.571 10.992,15.683 10.976,13.579 11.003 C 11.753 11.026,11.733 11.027,11.578 11.102 C 11.279 11.247,11.101 11.488,11.025 11.851 C 10.975 12.088,11.001 12.183,11.313 12.911 C 11.810 14.067,12.013 14.944,11.886 15.381 C 11.795 15.691,11.429 16.023,11.251 15.955 C 11.180 15.928,11.052 15.658,10.798 14.994 C 10.440 14.062,10.053 13.357,9.574 12.763 C 9.241 12.351,8.636 11.794,8.224 11.520 C 7.852 11.273,7.316 10.978,7.108 10.907 L 7.000 10.870 7.000 8.357 L 7.000 5.844 7.088 5.804 C 7.136 5.782,7.523 5.620,7.946 5.444 C 9.374 4.851,10.816 4.314,11.517 4.114 C 11.955 3.989,12.114 3.984,12.511 4.085 M5.000 8.500 L 5.000 12.000 4.500 12.000 L 4.000 12.000 4.000 8.500 L 4.000 5.000 4.500 5.000 L 5.000 5.000 5.000 8.500 " fill="#1A1C1F" stroke="none" fill-rule="evenodd"></path></svg>