<svg width="14" height="14" viewBox="0 0 14 14" fill="none" xmlns="http://www.w3.org/2000/svg"><path d="M7.677 1.427 C 7.077 1.488,6.633 1.961,6.289 2.905 C 6.016 3.652,5.652 4.227,5.221 4.590 C 4.997 4.780,4.909 4.840,4.894 4.814 C 4.888 4.803,4.864 4.738,4.841 4.668 C 4.789 4.507,4.636 4.340,4.473 4.267 L 4.352 4.212 3.138 4.213 L 1.925 4.214 1.809 4.270 C 1.663 4.341,1.526 4.477,1.462 4.617 L 1.412 4.725 1.412 8.050 L 1.412 11.375 1.466 11.485 C 1.534 11.624,1.676 11.766,1.815 11.834 L 1.925 11.888 3.150 11.888 L 4.375 11.888 4.492 11.826 C 4.611 11.763,4.712 11.668,4.805 11.533 C 4.833 11.491,4.872 11.457,4.890 11.457 C 4.909 11.457,5.194 11.563,5.524 11.692 C 7.193 12.347,8.011 12.600,8.452 12.600 C 8.936 12.600,9.667 12.348,10.186 12.003 C 10.612 11.719,11.146 11.211,11.471 10.779 C 12.030 10.037,12.352 9.322,12.536 8.413 C 12.582 8.186,12.588 8.087,12.587 7.583 C 12.586 7.255,12.573 6.937,12.557 6.837 C 12.404 5.887,12.019 5.317,11.355 5.053 C 11.079 4.944,10.932 4.926,10.177 4.909 C 9.475 4.893,9.469 4.892,9.480 4.844 C 9.486 4.817,9.529 4.664,9.576 4.505 C 9.702 4.075,9.733 3.868,9.733 3.442 C 9.734 3.143,9.724 3.033,9.688 2.893 C 9.590 2.522,9.434 2.264,9.125 1.960 C 8.734 1.576,8.188 1.375,7.677 1.427 M8.041 2.872 C 8.253 3.001,8.337 3.166,8.338 3.453 C 8.338 3.826,8.184 4.367,7.885 5.040 C 7.729 5.393,7.715 5.438,7.715 5.578 C 7.718 5.890,7.852 6.107,8.121 6.236 L 8.248 6.297 9.508 6.306 C 10.940 6.316,10.891 6.310,11.015 6.505 C 11.128 6.683,11.159 6.880,11.171 7.492 C 11.183 8.123,11.164 8.273,11.009 8.723 C 10.630 9.826,9.727 10.834,8.870 11.108 C 8.552 11.210,8.414 11.217,8.140 11.144 C 7.691 11.025,6.579 10.613,5.458 10.149 L 4.931 9.931 4.915 9.232 C 4.907 8.847,4.900 8.051,4.900 7.462 L 4.900 6.391 4.972 6.366 C 5.120 6.314,5.475 6.130,5.668 6.004 C 6.150 5.691,6.619 5.217,6.970 4.690 C 7.219 4.317,7.369 4.011,7.583 3.442 C 7.651 3.262,7.742 3.044,7.786 2.956 C 7.873 2.782,7.885 2.778,8.041 2.872 M3.500 8.050 L 3.500 10.500 3.150 10.500 L 2.800 10.500 2.800 8.050 L 2.800 5.600 3.150 5.600 L 3.500 5.600 3.500 8.050 " fill="#1A1C1F" stroke="none" fill-rule="evenodd"></path></svg>