<svg xmlns="http://www.w3.org/2000/svg" width="20" height="20" fill="none"><g clip-path="url(#a)"><path fill="#1A1C1F" fill-rule="evenodd" d="M13.51 13.001a8.7 8.7 0 0 1 .392 1.575c.126.882-.083 1.719-.592 2.356A2.87 2.87 0 0 1 11.27 18c-1.615-.018-2.14-1.675-2.354-2.359-.516-1.414-1.291-2.162-1.931-2.565a.99.99 0 0 1-.985.926H3a1 1 0 0 1-1-1V4a1 1 0 0 1 1-1h3c.442 0 .805.291.937.689C8.71 2.945 11.132 2 12 2c2.916 0 6 3.598 6 7 0 1.094 0 4-3 4zm-9.51-8v7.001h1V5.001zm3 .838v5.029c1.066.392 2.824 1.43 3.81 4.132.219.698.369.921.443.993a.86.86 0 0 0 .493-.306q.25-.314.176-.827c-.172-1.2-.796-2.372-.803-2.384a1 1 0 0 1 .88-1.474h3c.581 0 1 0 1-2 0-2.48-2.327-5-3.993-5-.526.025-2.889.929-5.006 1.837" clip-rule="evenodd"/></g><defs><clipPath id="a"><path fill="#fff" d="M0 0h20v20H0z"/></clipPath></defs></svg>