<svg width="20" height="20" viewBox="0 0 20 20" fill="none" xmlns="http://www.w3.org/2000/svg"><path d="M10.633 2.111 C 9.887 2.375,9.421 2.951,8.984 4.150 C 8.596 5.214,8.073 6.040,7.459 6.558 C 7.138 6.828,7.012 6.914,6.991 6.877 C 6.982 6.862,6.949 6.768,6.916 6.668 C 6.841 6.438,6.623 6.200,6.390 6.095 L 6.217 6.017 4.483 6.018 L 2.750 6.018 2.540 6.131 C 2.321 6.249,2.172 6.406,2.075 6.622 C 2.020 6.742,2.017 7.062,2.017 11.500 L 2.017 16.250 2.094 16.406 C 2.192 16.606,2.394 16.808,2.594 16.906 L 2.750 16.983 4.500 16.983 L 6.250 16.983 6.417 16.895 C 6.587 16.804,6.731 16.669,6.864 16.475 C 6.904 16.415,6.961 16.367,6.989 16.367 C 7.017 16.367,7.417 16.515,7.878 16.697 C 10.211 17.617,11.443 18.000,12.075 18.000 C 12.583 18.000,13.272 17.813,13.917 17.500 C 14.588 17.174,15.134 16.765,15.752 16.127 C 16.966 14.873,17.720 13.360,17.952 11.715 C 18.020 11.234,18.001 10.130,17.917 9.650 C 17.693 8.370,17.146 7.586,16.221 7.219 C 15.829 7.064,15.620 7.038,14.540 7.013 C 13.536 6.990,13.528 6.989,13.543 6.920 C 13.551 6.881,13.613 6.663,13.680 6.434 C 13.861 5.819,13.909 5.497,13.909 4.883 C 13.909 4.392,13.902 4.327,13.817 4.067 C 13.541 3.212,13.035 2.628,12.256 2.267 C 11.901 2.102,11.581 2.033,11.177 2.034 C 10.922 2.035,10.802 2.052,10.633 2.111 M11.533 4.136 C 11.805 4.309,11.907 4.526,11.910 4.933 C 11.913 5.461,11.692 6.235,11.264 7.200 C 11.041 7.705,11.021 7.768,11.022 7.968 C 11.025 8.414,11.217 8.725,11.602 8.909 L 11.783 8.995 13.583 9.008 C 15.629 9.023,15.559 9.014,15.736 9.293 C 15.898 9.548,15.942 9.828,15.959 10.705 C 15.976 11.601,15.954 11.776,15.734 12.436 C 15.212 14.007,13.903 15.474,12.671 15.869 C 12.217 16.014,12.020 16.024,11.629 15.920 C 10.987 15.751,9.398 15.161,7.797 14.498 L 7.044 14.187 7.022 13.238 C 7.010 12.716,7.000 11.578,7.000 10.710 L 7.000 9.130 7.103 9.094 C 7.315 9.020,7.822 8.756,8.098 8.577 C 9.106 7.919,9.996 6.857,10.527 5.676 C 10.600 5.515,10.736 5.176,10.830 4.923 C 10.924 4.669,11.054 4.357,11.119 4.229 C 11.252 3.965,11.262 3.963,11.533 4.136 M5.000 11.500 L 5.000 15.000 4.500 15.000 L 4.000 15.000 4.000 11.500 L 4.000 8.000 4.500 8.000 L 5.000 8.000 5.000 11.500 " fill="#1A1C1F" stroke="none" fill-rule="evenodd"></path></svg>