<svg xmlns="http://www.w3.org/2000/svg" width="32" height="32" fill="none"><path fill="#1A1C1F" fill-rule="evenodd" d="M20.587 3.023c-1.473.178-5.012 1.236-8.975 2.684l-.468.171-.279-.213a4 4 0 0 0-.557-.353c-.56-.28-.75-.297-3.305-.298-1.507 0-2.46.02-2.64.058-1.041.215-1.926 1.058-2.265 2.157-.092.299-.098.617-.098 5.304v4.987l.141.386c.078.212.208.5.289.64.236.404.752.883 1.185 1.102.674.339.785.35 3.376.351 2.147.001 2.357-.007 2.739-.105.415-.106.862-.326 1.145-.565l.151-.127.5.355a24 24 0 0 1 3.01 2.547c1.722 1.723 2.535 2.964 3.141 4.791.289.875.425 1.154.719 1.489.575.651 1.772.809 2.726.358.892-.422 1.521-1.332 1.785-2.582.123-.58.126-1.714.006-2.347a16.8 16.8 0 0 0-1.129-3.509l-.128-.277 2.652-.03c2.509-.027 2.674-.035 3.068-.145.625-.174 1.067-.408 1.452-.768.847-.792 1.159-1.815 1.16-3.804.001-1.545-.216-2.74-.783-4.302-.847-2.339-2.07-4.287-3.643-5.807q-1.756-1.696-3.485-2.042c-.437-.087-1.199-.142-1.49-.106m1.306 2.123c.841.292 1.622.828 2.459 1.69 1.673 1.721 3.011 4.294 3.499 6.728.101.502.119.765.118 1.663-.004 2.089-.278 2.617-1.425 2.749-.241.027-1.872.05-3.626.05-3.071.001-3.197.005-3.396.106-.349.178-.579.63-.51 1.001.02.106.201.506.403.89.672 1.279 1.216 2.676 1.447 3.72.159.717.171 1.774.026 2.257-.197.654-.497.986-.891.986l-.19.001-.283-.856c-.673-2.033-1.655-3.529-3.571-5.442-1.233-1.23-2.394-2.195-3.622-3.01q-.387-.257-.36-.333c.016-.041.029-2.23.029-4.864v-4.79l.92-.33c2.939-1.056 5.844-1.954 7.347-2.272.447-.095 1.274-.066 1.626.056M9.494 7.155c.142.083.289.228.36.354l.119.212v4.749c0 3.226-.018 4.798-.056 4.9-.071.186-.292.424-.504.541-.14.078-.421.091-2.233.105-1.353.011-2.168-.004-2.344-.041-.341-.074-.606-.274-.734-.555-.095-.21-.1-.443-.1-4.913 0-4.44.006-4.705.098-4.909.113-.248.377-.491.584-.536.079-.017.167-.04.196-.051s1.025-.014 2.213-.008l2.16.01z"/></svg>