<svg xmlns="http://www.w3.org/2000/svg" width="14" height="14" fill="none"><g clip-path="url(#a)"><path fill="#1A1C1F" fill-rule="evenodd" d="M9.457 9.1c.113.33.218.71.274 1.103.089.618-.058 1.204-.414 1.65-.342.428-.846.7-1.428.747-1.13-.013-1.498-1.172-1.648-1.651-.361-.99-.903-1.514-1.351-1.796a.695.695 0 0 1-.69.648H2.1a.7.7 0 0 1-.7-.7V2.8a.7.7 0 0 1 .7-.7h2.1c.31 0 .564.204.656.482C6.097 2.062 7.792 1.4 8.4 1.4c2.041 0 4.2 2.519 4.2 4.9 0 .766 0 2.8-2.1 2.8zM2.8 3.5v4.901h.7v-4.9zm2.1.587v3.52c.746.275 1.977 1.002 2.667 2.893.153.489.258.645.31.695a.6.6 0 0 0 .345-.214q.175-.22.123-.579c-.12-.84-.557-1.66-.562-1.669A.7.7 0 0 1 8.4 7.701h2.1c.407 0 .7 0 .7-1.4 0-1.736-1.629-3.5-2.795-3.5-.368.018-2.022.65-3.504 1.286" clip-rule="evenodd"/></g><defs><clipPath id="a"><path fill="#fff" d="M0 0h14v14H0z"/></clipPath></defs></svg>