<svg width="14" height="14" viewBox="0 0 14 14" fill="none" xmlns="http://www.w3.org/2000/svg"><path d="M7.890 1.482 C 7.255 1.646,5.947 2.117,5.048 2.504 L 4.858 2.586 4.827 2.512 C 4.782 2.402,4.625 2.243,4.499 2.180 L 4.388 2.123 3.151 2.123 C 1.923 2.123,1.912 2.124,1.803 2.175 C 1.663 2.241,1.526 2.378,1.462 2.517 L 1.412 2.625 1.412 5.950 L 1.412 9.275 1.462 9.383 C 1.526 9.522,1.669 9.665,1.820 9.742 L 1.939 9.802 3.157 9.795 C 4.526 9.787,4.454 9.796,4.659 9.608 C 4.754 9.519,4.853 9.369,4.853 9.312 C 4.853 9.300,4.864 9.262,4.877 9.227 C 4.900 9.166,4.901 9.165,4.965 9.206 C 5.000 9.229,5.115 9.320,5.221 9.410 C 5.652 9.773,6.016 10.348,6.289 11.095 C 6.490 11.647,6.715 12.026,6.978 12.256 C 7.140 12.398,7.274 12.468,7.526 12.542 C 7.785 12.619,8.007 12.612,8.307 12.517 C 8.974 12.306,9.426 11.868,9.653 11.212 C 9.809 10.760,9.762 10.068,9.524 9.316 L 9.455 9.100 10.054 9.100 C 10.740 9.100,10.957 9.079,11.256 8.983 C 11.961 8.755,12.376 8.195,12.542 7.245 C 12.592 6.958,12.613 6.162,12.579 5.880 C 12.520 5.402,12.370 4.860,12.166 4.391 C 11.603 3.098,10.433 1.938,9.310 1.563 C 8.860 1.412,8.286 1.380,7.890 1.482 M8.758 2.860 C 9.797 3.127,10.900 4.474,11.145 5.775 C 11.173 5.925,11.184 6.105,11.184 6.405 C 11.183 6.926,11.138 7.227,11.030 7.443 C 10.903 7.700,11.005 7.683,9.505 7.702 C 8.227 7.718,8.213 7.719,8.105 7.772 C 7.895 7.873,7.770 8.042,7.717 8.296 C 7.682 8.461,7.701 8.528,7.919 9.038 C 8.267 9.847,8.409 10.461,8.320 10.767 C 8.257 10.984,8.000 11.216,7.876 11.169 C 7.827 11.150,7.725 10.936,7.585 10.558 C 7.349 9.924,7.037 9.351,6.702 8.934 C 6.469 8.646,6.046 8.256,5.757 8.064 C 5.497 7.891,5.121 7.685,4.976 7.635 L 4.900 7.609 4.900 5.849 L 4.900 4.089 5.244 3.943 C 6.479 3.420,7.674 2.978,8.295 2.815 C 8.366 2.796,8.597 2.819,8.758 2.860 M3.500 5.950 L 3.500 8.400 3.150 8.400 L 2.800 8.400 2.800 5.950 L 2.800 3.500 3.150 3.500 L 3.500 3.500 3.500 5.950 " fill="#1A1C1F" stroke="none" fill-rule="evenodd"></path></svg>