<svg xmlns="http://www.w3.org/2000/svg" width="16" height="16" fill="none"><g clip-path="url(#a)"><path fill="#1A1C1F" fill-rule="evenodd" d="M10.808 10.4c.129.377.25.812.314 1.26.1.706-.067 1.376-.474 1.886-.39.49-.966.8-1.632.854-1.292-.014-1.712-1.34-1.883-1.887-.413-1.131-1.033-1.73-1.545-2.052a.794.794 0 0 1-.788.74H2.4a.8.8 0 0 1-.8-.8V3.2a.8.8 0 0 1 .8-.8h2.4a.79.79 0 0 1 .75.551C6.968 2.356 8.906 1.6 9.6 1.6c2.333 0 4.8 2.878 4.8 5.6 0 .875 0 3.2-2.4 3.2zM3.2 4v5.602H4V4zm2.4.671v4.023c.853.314 2.26 1.144 3.048 3.306.175.558.295.737.354.794.127-.026.28-.1.395-.244q.2-.252.14-.662c-.137-.96-.636-1.898-.642-1.907A.8.8 0 0 1 9.6 8.8H12c.465 0 .8 0 .8-1.6 0-1.983-1.861-4-3.194-4-.421.02-2.311.744-4.005 1.47" clip-rule="evenodd"/></g><defs><clipPath id="a"><path fill="#fff" d="M0 0h16v16H0z"/></clipPath></defs></svg>