<svg width="16" height="16" viewBox="0 0 16 16" fill="none" xmlns="http://www.w3.org/2000/svg"><path d="M8.501 1.691 C 7.914 1.898,7.533 2.370,7.186 3.320 C 6.875 4.173,6.458 4.832,5.967 5.246 C 5.710 5.463,5.610 5.531,5.593 5.501 C 5.586 5.490,5.559 5.415,5.533 5.335 C 5.473 5.150,5.298 4.960,5.112 4.876 L 4.973 4.813 3.587 4.814 L 2.200 4.816 2.068 4.880 C 1.900 4.962,1.746 5.115,1.672 5.275 L 1.613 5.400 1.613 9.200 L 1.613 13.000 1.675 13.125 C 1.754 13.285,1.915 13.446,2.075 13.525 L 2.200 13.587 3.600 13.587 L 5.000 13.587 5.133 13.516 C 5.269 13.443,5.385 13.335,5.491 13.180 C 5.524 13.132,5.569 13.093,5.591 13.093 C 5.614 13.093,5.934 13.212,6.303 13.358 C 7.736 13.923,8.612 14.222,9.167 14.336 C 9.452 14.394,9.550 14.403,9.773 14.390 C 10.512 14.348,11.342 13.990,12.080 13.394 C 12.364 13.165,12.885 12.620,13.122 12.306 C 13.750 11.470,14.173 10.502,14.351 9.493 C 14.396 9.239,14.396 8.094,14.351 7.813 C 14.177 6.730,13.736 6.076,12.977 5.775 C 12.662 5.650,12.494 5.630,11.631 5.610 C 10.829 5.592,10.822 5.591,10.834 5.536 C 10.841 5.505,10.890 5.330,10.944 5.147 C 11.089 4.656,11.127 4.398,11.127 3.907 C 11.127 3.514,11.121 3.462,11.054 3.253 C 10.832 2.569,10.428 2.103,9.805 1.813 C 9.379 1.616,8.853 1.567,8.501 1.691 M9.190 3.283 C 9.431 3.429,9.528 3.618,9.529 3.947 C 9.531 4.365,9.353 4.989,9.012 5.760 C 8.833 6.164,8.817 6.214,8.818 6.375 C 8.820 6.732,8.973 6.980,9.281 7.127 L 9.427 7.196 10.867 7.207 C 12.503 7.218,12.447 7.211,12.589 7.434 C 12.718 7.638,12.753 7.862,12.767 8.562 C 12.781 9.284,12.759 9.455,12.582 9.969 C 12.149 11.230,11.117 12.381,10.137 12.695 C 9.774 12.811,9.616 12.819,9.303 12.736 C 8.789 12.601,7.518 12.129,6.237 11.599 L 5.635 11.349 5.617 10.710 C 5.608 10.359,5.600 9.449,5.600 8.688 L 5.600 7.304 5.682 7.275 C 5.852 7.216,6.258 7.005,6.478 6.861 C 6.793 6.656,7.035 6.453,7.334 6.143 C 7.936 5.519,8.317 4.887,8.668 3.930 C 8.738 3.738,8.839 3.494,8.892 3.389 C 8.998 3.178,9.010 3.174,9.190 3.283 M4.000 9.200 L 4.000 12.000 3.600 12.000 L 3.200 12.000 3.200 9.200 L 3.200 6.400 3.600 6.400 L 4.000 6.400 4.000 9.200 " fill="#1A1C1F" stroke="none" fill-rule="evenodd"></path></svg>