<svg width="12" height="12" viewBox="0 0 12 12" fill="none" xmlns="http://www.w3.org/2000/svg"><path d="M6.380 1.267 C 5.932 1.425,5.652 1.771,5.390 2.490 C 5.157 3.130,4.845 3.623,4.475 3.935 C 4.283 4.097,4.207 4.148,4.195 4.126 C 4.189 4.117,4.169 4.061,4.150 4.001 C 4.105 3.863,3.974 3.720,3.834 3.657 L 3.730 3.610 2.690 3.611 L 1.650 3.612 1.546 3.666 C 1.414 3.734,1.307 3.841,1.252 3.958 L 1.210 4.050 1.210 6.900 L 1.210 9.750 1.256 9.844 C 1.315 9.964,1.436 10.085,1.556 10.144 L 1.650 10.190 2.700 10.190 L 3.750 10.190 3.851 10.137 C 3.956 10.081,4.085 9.955,4.124 9.869 C 4.137 9.842,4.163 9.820,4.185 9.820 C 4.207 9.820,4.450 9.909,4.727 10.018 C 5.698 10.401,6.346 10.628,6.773 10.734 C 7.194 10.838,7.614 10.802,8.083 10.622 C 8.992 10.271,9.855 9.422,10.352 8.390 C 10.559 7.960,10.665 7.634,10.754 7.160 C 10.798 6.929,10.803 6.109,10.762 5.850 C 10.640 5.059,10.299 4.556,9.733 4.331 C 9.497 4.238,9.371 4.222,8.723 4.207 C 8.122 4.194,8.117 4.193,8.126 4.152 C 8.131 4.129,8.168 3.998,8.208 3.861 C 8.316 3.493,8.345 3.297,8.344 2.940 C 8.343 2.697,8.335 2.597,8.304 2.480 C 8.220 2.162,8.087 1.942,7.821 1.679 C 7.676 1.536,7.613 1.491,7.439 1.404 C 7.170 1.269,6.975 1.220,6.712 1.220 C 6.553 1.221,6.482 1.231,6.380 1.267 M6.892 2.462 C 6.989 2.521,7.062 2.602,7.107 2.700 C 7.225 2.962,7.098 3.553,6.758 4.320 C 6.624 4.623,6.612 4.661,6.613 4.781 C 6.615 5.049,6.730 5.235,6.961 5.345 L 7.070 5.397 8.150 5.405 C 9.377 5.414,9.336 5.409,9.442 5.576 C 9.539 5.729,9.565 5.897,9.575 6.423 C 9.586 6.962,9.572 7.066,9.439 7.466 C 9.128 8.404,8.340 9.285,7.603 9.521 C 7.330 9.609,7.212 9.614,6.977 9.552 C 6.592 9.450,5.639 9.097,4.678 8.699 L 4.226 8.512 4.213 7.943 C 4.206 7.630,4.200 6.947,4.200 6.426 L 4.200 5.478 4.262 5.456 C 4.389 5.412,4.693 5.254,4.859 5.146 C 5.276 4.874,5.671 4.475,5.975 4.020 C 6.189 3.699,6.322 3.427,6.498 2.954 C 6.555 2.802,6.633 2.614,6.671 2.538 C 6.749 2.384,6.758 2.381,6.892 2.462 M3.000 6.900 L 3.000 9.000 2.700 9.000 L 2.400 9.000 2.400 6.900 L 2.400 4.800 2.700 4.800 L 3.000 4.800 3.000 6.900 " fill="#1A1C1F" stroke="none" fill-rule="evenodd"></path></svg>