<svg xmlns="http://www.w3.org/2000/svg" width="16" height="16" fill="none"><g clip-path="url(#a)"><path fill="#1A1C1F" fill-rule="evenodd" d="M10.808 5.6c.129-.377.25-.812.314-1.26.1-.706-.067-1.376-.474-1.886-.39-.49-.966-.8-1.632-.854-1.292.014-1.712 1.34-1.883 1.887C6.72 4.618 6.1 5.217 5.588 5.54A.794.794 0 0 0 4.8 4.8H2.4a.8.8 0 0 0-.8.8V12.8a.8.8 0 0 0 .8.8h2.4a.79.79 0 0 0 .75-.551c1.418.595 3.356 1.351 4.05 1.351 2.333 0 4.8-2.878 4.8-5.6 0-.875 0-3.2-2.4-3.2zM3.2 12V6.397H4V12zm2.4-.671V7.306C6.453 6.992 7.86 6.162 8.648 4c.175-.558.295-.737.354-.794.127.026.28.1.395.244q.2.252.14.662c-.137.96-.636 1.898-.642 1.907A.8.8 0 0 0 9.6 7.2H12c.465 0 .8 0 .8 1.6 0 1.983-1.861 4-3.194 4-.421-.02-2.311-.744-4.005-1.47" clip-rule="evenodd"/></g><defs><clipPath id="a"><path fill="#fff" d="M0 0h16v16H0z"/></clipPath></defs></svg>