<svg width="16" height="16" viewBox="0 0 16 16" fill="none" xmlns="http://www.w3.org/2000/svg"><path d="M9.017 1.692 C 8.262 1.892,6.870 2.393,5.769 2.861 L 5.550 2.953 5.516 2.870 C 5.465 2.745,5.285 2.564,5.142 2.491 L 5.015 2.427 3.601 2.427 C 2.197 2.427,2.185 2.427,2.061 2.486 C 1.901 2.561,1.746 2.716,1.672 2.875 L 1.613 3.000 1.613 6.800 L 1.613 10.600 1.679 10.732 C 1.762 10.901,1.908 11.046,2.080 11.134 L 2.216 11.202 3.608 11.194 C 5.180 11.186,5.091 11.197,5.335 10.969 C 5.456 10.856,5.486 10.801,5.588 10.510 C 5.605 10.463,5.678 10.510,5.967 10.754 C 6.458 11.168,6.875 11.826,7.186 12.680 C 7.416 13.309,7.675 13.744,7.975 14.007 C 8.160 14.169,8.313 14.249,8.601 14.334 C 8.897 14.421,9.151 14.413,9.493 14.305 C 10.275 14.058,10.807 13.529,11.047 12.760 C 11.210 12.237,11.153 11.493,10.884 10.647 L 10.806 10.400 11.490 10.400 C 12.273 10.400,12.522 10.376,12.865 10.266 C 13.669 10.008,14.143 9.367,14.334 8.280 C 14.401 7.896,14.416 7.013,14.362 6.628 C 14.234 5.724,13.883 4.807,13.379 4.061 C 12.568 2.862,11.482 2.004,10.413 1.718 C 10.189 1.658,10.077 1.645,9.707 1.637 C 9.303 1.627,9.246 1.631,9.017 1.692 M10.053 3.282 C 10.730 3.469,11.497 4.104,12.034 4.920 C 12.619 5.809,12.856 6.694,12.775 7.689 C 12.739 8.138,12.690 8.368,12.592 8.545 C 12.456 8.794,12.546 8.780,10.863 8.802 C 9.402 8.821,9.387 8.822,9.263 8.882 C 9.023 8.998,8.880 9.191,8.820 9.481 C 8.780 9.670,8.801 9.746,9.051 10.329 C 9.449 11.257,9.611 11.953,9.509 12.304 C 9.436 12.553,9.143 12.819,9.001 12.764 C 8.945 12.743,8.829 12.498,8.668 12.067 C 8.399 11.342,8.042 10.685,7.661 10.213 C 7.448 9.950,6.997 9.514,6.747 9.329 C 6.489 9.140,6.068 8.893,5.813 8.782 L 5.613 8.695 5.606 6.683 L 5.600 4.672 5.993 4.505 C 7.401 3.909,8.775 3.402,9.480 3.217 C 9.571 3.193,9.846 3.224,10.053 3.282 M4.000 6.800 L 4.000 9.600 3.600 9.600 L 3.200 9.600 3.200 6.800 L 3.200 4.000 3.600 4.000 L 4.000 4.000 4.000 6.800 " fill="#1A1C1F" stroke="none" fill-rule="evenodd"></path></svg>