<svg xmlns="http://www.w3.org/2000/svg" width="32" height="32" fill="none"><path fill="#1A1C1F" fill-rule="evenodd" d="M12.133 6.106c-.795.216-1.154.479-2.506 1.837l-1.066 1.07H6.609c-1.773 0-1.99.01-2.366.106-1.008.258-1.797 1.021-2.125 2.054L2 11.547v11.946l.148.418c.351.994 1.067 1.674 2.095 1.991.303.094.81.098 11.757.098s11.454-.004 11.757-.098a3.2 3.2 0 0 0 1.274-.721c.401-.38.634-.74.821-1.27l.148-.418V11.6l-.118-.373c-.334-1.055-1.286-1.947-2.298-2.155-.174-.036-1.026-.059-2.209-.059h-1.927l-1.23-1.215c-1.323-1.305-1.597-1.507-2.301-1.69-.437-.114-7.364-.116-7.784-.002m7.36 1.954c.176.048.458.302 1.6 1.436.763.757 1.455 1.403 1.537 1.434.097.036.886.057 2.224.057 1.295 0 2.176.021 2.345.058.325.07.568.261.701.553.093.205.098.5.099 5.897L28 23.177l-.12.235a1.4 1.4 0 0 1-.325.398l-.205.163-11.155.016c-6.135.008-11.258.001-11.384-.017-.279-.04-.574-.282-.712-.585-.092-.202-.097-.515-.098-5.882-.001-6.145-.013-5.873.282-6.189.284-.305.245-.3 2.784-.333 1.29-.016 2.356-.034 2.368-.04s.661-.644 1.443-1.419c1.054-1.045 1.468-1.422 1.605-1.462.268-.077 6.733-.079 7.01-.002m-4.196 3.994c-1.169.186-2.161.708-2.95 1.552a4.9 4.9 0 0 0-1.201 2.209c-.505 1.974.327 4.15 2.027 5.305 2.017 1.369 4.669 1.115 6.374-.609a4.964 4.964 0 0 0 .106-6.905c-.655-.701-1.548-1.233-2.426-1.445-.519-.125-1.481-.179-1.93-.107m-8.71 1.048c-.658.346-.777 1.154-.241 1.638.26.234.397.259 1.289.238.665-.017.735-.028.917-.151.224-.152.462-.578.46-.824-.002-.351-.323-.808-.655-.933-.246-.093-1.579-.069-1.77.032m10.179 1.009c.503.13.929.381 1.346.794.586.58.876 1.276.874 2.098-.003 1.14-.655 2.188-1.661 2.668-.935.447-1.715.447-2.65 0-1.207-.576-1.881-1.967-1.603-3.308.211-1.018 1.08-1.943 2.101-2.237.413-.118 1.164-.125 1.593-.015"/></svg>