<svg xmlns="http://www.w3.org/2000/svg" width="16" height="16" fill="none"><g clip-path="url(#a)"><path fill="#1A1C1F" fill-rule="evenodd" d="M9.59 3.2a1.6 1.6 0 0 1 1.237.584l.839 1.022 1.129-.004a1.6 1.6 0 0 1 1.6 1.476l.005.12V11.2a1.6 1.6 0 0 1-1.6 1.6H3.2a1.6 1.6 0 0 1-1.6-1.6V6.407a1.6 1.6 0 0 1 1.6-1.6h1.153l.81-1.009a1.6 1.6 0 0 1 1.103-.591L6.41 3.2zM8 6.8A1.6 1.6 0 1 0 8 10a1.6 1.6 0 0 0 0-3.2" clip-rule="evenodd"/></g><defs><clipPath id="a"><path fill="#fff" d="M0 0h16v16H0z"/></clipPath></defs></svg>