<svg width="32" height="32" viewBox="0 0 32 32" fill="none" xmlns="http://www.w3.org/2000/svg"><path d="M12.640 6.077 C 12.096 6.106,11.985 6.130,11.654 6.285 C 11.106 6.542,10.807 6.788,9.627 7.952 L 8.560 9.005 6.507 9.026 C 4.726 9.045,4.414 9.060,4.160 9.142 C 3.672 9.300,3.244 9.556,2.904 9.895 C 2.532 10.266,2.309 10.633,2.110 11.200 L 1.971 11.600 1.985 17.573 L 2.000 23.547 2.179 23.991 C 2.508 24.810,3.116 25.441,3.889 25.769 L 4.293 25.941 6.560 25.987 C 9.842 26.054,27.372 26.000,27.680 25.922 C 28.170 25.798,28.703 25.486,29.093 25.095 C 29.501 24.685,29.697 24.365,29.896 23.778 L 30.027 23.395 30.027 17.512 L 30.027 11.630 29.866 11.189 C 29.556 10.341,28.998 9.703,28.235 9.325 C 27.668 9.044,27.444 9.021,25.177 9.017 L 23.448 9.013 22.431 8.011 C 21.211 6.809,20.831 6.487,20.376 6.274 C 20.061 6.127,19.963 6.109,19.256 6.073 C 18.343 6.027,13.527 6.030,12.640 6.077 M19.607 8.121 C 19.698 8.169,20.370 8.789,21.100 9.499 C 21.830 10.208,22.486 10.827,22.558 10.874 C 22.671 10.948,22.993 10.964,24.931 10.990 C 27.061 11.018,27.186 11.025,27.423 11.132 C 27.591 11.207,27.721 11.318,27.823 11.471 L 27.973 11.699 27.990 17.423 L 28.006 23.148 27.859 23.418 C 27.778 23.566,27.623 23.758,27.515 23.844 L 27.318 24.000 16.070 24.000 L 4.823 24.000 4.585 23.880 C 4.447 23.810,4.281 23.664,4.187 23.529 L 4.027 23.297 4.027 17.609 C 4.027 14.480,4.046 11.829,4.069 11.719 C 4.125 11.455,4.386 11.164,4.631 11.091 C 4.749 11.056,5.744 11.017,7.131 10.994 L 9.436 10.955 10.758 9.649 C 11.485 8.931,12.165 8.279,12.269 8.200 C 12.511 8.018,12.605 8.014,16.480 8.024 C 19.122 8.032,19.458 8.042,19.607 8.121 M14.801 12.163 C 14.210 12.312,13.382 12.722,12.907 13.101 C 12.007 13.819,11.450 14.683,11.141 15.840 C 10.976 16.460,10.973 17.538,11.136 18.143 C 11.462 19.349,12.069 20.282,12.969 20.960 C 14.447 22.074,16.395 22.302,18.044 21.555 C 19.069 21.090,19.977 20.208,20.494 19.173 C 20.838 18.486,21.056 17.374,20.990 16.644 C 20.821 14.786,19.773 13.291,18.067 12.479 C 17.384 12.154,17.103 12.096,16.107 12.074 C 15.358 12.058,15.163 12.071,14.801 12.163 M6.797 13.060 C 5.894 13.219,5.741 14.503,6.580 14.885 C 6.756 14.964,6.929 14.984,7.440 14.984 C 8.280 14.984,8.459 14.940,8.697 14.674 C 9.061 14.267,9.096 13.857,8.800 13.448 C 8.549 13.102,8.391 13.045,7.653 13.033 C 7.301 13.026,6.916 13.039,6.797 13.060 M16.969 14.180 C 17.900 14.501,18.707 15.409,18.908 16.360 C 19.127 17.393,18.841 18.345,18.085 19.095 C 17.641 19.535,17.279 19.741,16.670 19.902 C 15.699 20.159,14.687 19.862,13.918 19.095 C 12.972 18.150,12.752 16.881,13.331 15.703 C 13.746 14.859,14.575 14.220,15.440 14.077 C 15.849 14.009,16.626 14.062,16.969 14.180 " fill="#1A1C1F" stroke="none" fill-rule="evenodd"></path></svg>