<svg width="28" height="28" viewBox="0 0 28 28" fill="none" xmlns="http://www.w3.org/2000/svg"><path d="M11.060 5.317 C 10.584 5.343,10.486 5.363,10.197 5.499 C 9.718 5.724,9.456 5.939,8.423 6.958 L 7.490 7.879 5.693 7.897 C 3.998 7.915,3.880 7.921,3.593 8.017 C 2.749 8.300,2.212 8.833,1.879 9.717 L 1.725 10.125 1.738 15.364 L 1.750 20.603 1.906 20.992 C 2.195 21.708,2.726 22.261,3.403 22.548 L 3.757 22.698 5.740 22.738 C 8.622 22.797,23.951 22.750,24.220 22.681 C 24.663 22.569,25.109 22.309,25.453 21.963 C 25.814 21.599,25.984 21.320,26.159 20.806 L 26.273 20.470 26.273 15.323 L 26.273 10.176 26.139 9.808 C 25.864 9.053,25.374 8.490,24.706 8.159 C 24.209 7.913,24.013 7.893,22.030 7.890 L 20.517 7.887 19.627 7.009 C 18.560 5.958,18.227 5.676,17.829 5.490 C 17.554 5.361,17.468 5.346,16.849 5.314 C 16.050 5.274,11.836 5.276,11.060 5.317 M17.156 7.106 C 17.236 7.148,17.824 7.691,18.462 8.311 C 19.101 8.932,19.675 9.474,19.738 9.515 C 19.837 9.580,20.118 9.593,21.814 9.616 C 23.671 9.640,23.788 9.646,23.991 9.738 C 24.313 9.883,24.416 10.061,24.458 10.542 C 24.478 10.763,24.495 13.043,24.496 15.610 L 24.499 20.277 24.363 20.513 C 24.289 20.643,24.154 20.806,24.064 20.875 L 23.900 21.000 13.998 21.000 L 4.097 21.000 3.924 20.863 C 3.829 20.788,3.694 20.621,3.623 20.491 L 3.495 20.254 3.509 15.245 L 3.523 10.236 3.655 10.037 C 3.743 9.904,3.859 9.806,4.005 9.740 C 4.213 9.646,4.317 9.640,6.186 9.616 C 7.882 9.593,8.163 9.580,8.262 9.515 C 8.325 9.474,8.876 8.954,9.487 8.361 C 10.098 7.767,10.666 7.229,10.749 7.166 C 10.944 7.017,11.082 7.012,14.443 7.021 C 16.733 7.028,17.026 7.037,17.156 7.106 M12.927 10.640 C 12.196 10.836,11.438 11.278,10.896 11.826 C 9.617 13.117,9.273 15.055,10.032 16.689 C 10.269 17.198,10.549 17.601,10.925 17.972 C 12.514 19.539,14.984 19.669,16.730 18.278 C 17.878 17.365,18.521 15.815,18.342 14.395 C 18.146 12.840,17.244 11.603,15.806 10.918 C 15.207 10.633,14.966 10.584,14.070 10.564 C 13.386 10.549,13.228 10.560,12.927 10.640 M5.876 11.428 C 5.662 11.499,5.506 11.629,5.383 11.838 C 5.136 12.260,5.314 12.822,5.758 13.024 C 5.911 13.094,6.063 13.111,6.510 13.111 C 7.179 13.111,7.387 13.069,7.563 12.900 C 7.725 12.745,7.887 12.414,7.886 12.239 C 7.886 12.064,7.642 11.652,7.466 11.526 C 7.337 11.434,7.250 11.422,6.659 11.406 C 6.295 11.396,5.942 11.406,5.876 11.428 M14.848 12.408 C 15.662 12.689,16.369 13.482,16.545 14.315 C 16.736 15.219,16.486 16.052,15.824 16.708 C 15.436 17.093,15.120 17.274,14.586 17.414 C 13.737 17.639,12.851 17.379,12.178 16.708 C 11.350 15.882,11.158 14.771,11.665 13.740 C 12.031 12.994,12.738 12.449,13.510 12.318 C 13.865 12.258,14.546 12.304,14.848 12.408 " fill="#1A1C1F" stroke="none" fill-rule="evenodd"></path></svg>