<svg width="14" height="14" viewBox="0 0 14 14" fill="none" xmlns="http://www.w3.org/2000/svg"><path d="M5.553 2.824 C 5.268 2.841,5.178 2.866,4.928 2.998 C 4.685 3.126,4.576 3.236,4.202 3.731 L 3.854 4.192 3.236 4.208 C 2.896 4.217,2.556 4.235,2.481 4.249 C 2.251 4.291,2.012 4.433,1.800 4.655 C 1.600 4.863,1.555 4.936,1.467 5.192 L 1.412 5.355 1.412 7.700 L 1.412 10.045 1.468 10.217 C 1.606 10.635,1.965 10.994,2.383 11.132 L 2.555 11.188 7.000 11.188 L 11.445 11.188 11.617 11.132 C 12.027 10.997,12.370 10.660,12.523 10.243 L 12.587 10.068 12.595 7.922 C 12.604 5.437,12.599 5.332,12.464 5.052 C 12.301 4.716,12.063 4.484,11.714 4.322 C 11.506 4.225,11.306 4.203,10.600 4.201 L 10.152 4.200 9.838 3.786 C 9.425 3.240,9.268 3.084,8.996 2.949 C 8.792 2.849,8.774 2.844,8.482 2.823 C 8.140 2.799,5.965 2.799,5.553 2.824 M8.925 4.900 L 9.451 5.600 10.325 5.600 L 11.200 5.600 11.200 7.700 L 11.200 9.800 7.000 9.800 L 2.800 9.800 2.800 7.700 L 2.800 5.600 3.675 5.600 L 4.549 5.600 5.075 4.900 L 5.601 4.200 7.000 4.200 L 8.399 4.200 8.925 4.900 M6.729 5.983 C 6.316 6.062,5.900 6.393,5.726 6.782 C 5.643 6.968,5.592 7.261,5.608 7.454 C 5.622 7.623,5.689 7.859,5.764 8.003 C 5.865 8.200,6.185 8.508,6.384 8.601 C 6.551 8.679,6.844 8.750,7.000 8.750 C 7.158 8.750,7.447 8.680,7.626 8.598 C 7.776 8.529,8.156 8.163,8.231 8.015 C 8.541 7.403,8.400 6.715,7.875 6.277 C 7.559 6.014,7.136 5.905,6.729 5.983 " fill="#1A1C1F" stroke="none" fill-rule="evenodd"></path></svg>