<svg width="12" height="12" viewBox="0 0 12 12" fill="none" xmlns="http://www.w3.org/2000/svg"><path d="M4.760 2.420 C 4.515 2.435,4.438 2.457,4.224 2.570 C 4.016 2.679,3.923 2.773,3.602 3.198 L 3.303 3.593 2.776 3.607 C 2.485 3.614,2.194 3.630,2.129 3.642 C 1.929 3.678,1.725 3.799,1.543 3.990 C 1.370 4.169,1.330 4.234,1.257 4.450 L 1.210 4.590 1.204 6.490 C 1.198 8.454,1.202 8.594,1.279 8.813 C 1.393 9.137,1.710 9.436,2.052 9.541 L 2.210 9.590 6.000 9.590 L 9.790 9.590 9.948 9.541 C 10.316 9.427,10.627 9.116,10.741 8.748 L 10.790 8.590 10.790 6.620 C 10.790 5.090,10.784 4.626,10.764 4.541 C 10.683 4.197,10.410 3.879,10.045 3.705 C 9.871 3.622,9.695 3.603,9.086 3.601 L 8.702 3.600 8.433 3.245 C 8.078 2.777,7.944 2.643,7.711 2.528 C 7.536 2.442,7.521 2.438,7.270 2.420 C 6.977 2.399,5.113 2.399,4.760 2.420 M7.650 4.200 L 8.101 4.800 8.850 4.800 L 9.600 4.800 9.600 6.600 L 9.600 8.400 6.000 8.400 L 2.400 8.400 2.400 6.600 L 2.400 4.800 3.150 4.800 L 3.899 4.800 4.350 4.200 L 4.801 3.600 6.000 3.600 L 7.199 3.600 7.650 4.200 M5.768 5.129 C 5.199 5.233,4.764 5.799,4.807 6.380 C 4.819 6.532,4.874 6.731,4.940 6.860 C 5.028 7.028,5.302 7.293,5.472 7.372 C 5.615 7.439,5.866 7.500,6.000 7.500 C 6.135 7.500,6.383 7.440,6.536 7.370 C 6.665 7.311,6.991 6.997,7.055 6.870 C 7.268 6.449,7.232 5.958,6.962 5.599 C 6.784 5.363,6.514 5.191,6.228 5.130 C 6.063 5.095,5.958 5.095,5.768 5.129 " fill="#1A1C1F" stroke="none" fill-rule="evenodd"></path></svg>