<svg xmlns="http://www.w3.org/2000/svg" width="12" height="12" fill="none"><g clip-path="url(#a)"><path fill="#1A1C1F" fill-rule="evenodd" d="M7.2 2.4a1.2 1.2 0 0 1 .96.48l.54.72h.9c.633 0 1.2.577 1.2 1.2v3.6a1.2 1.2 0 0 1-1.2 1.2H2.4a1.2 1.2 0 0 1-1.2-1.2V4.804a1.2 1.2 0 0 1 1.196-1.2L3.3 3.6l.541-.721a1.3 1.3 0 0 1 .96-.48zm0 1.2H4.8l-.9 1.2-1.5.004V8.4h7.2V4.8H8.1zM6 5.1a1.2 1.2 0 1 1 0 2.4 1.2 1.2 0 0 1 0-2.4" clip-rule="evenodd"/></g><defs><clipPath id="a"><path fill="#fff" d="M0 0h12v12H0z"/></clipPath></defs></svg>