<svg xmlns="http://www.w3.org/2000/svg" width="14" height="14" fill="none"><g clip-path="url(#a)"><path fill="#1A1C1F" fill-rule="evenodd" d="M8.392 2.8a1.4 1.4 0 0 1 1.082.511l.733.894.989-.003a1.4 1.4 0 0 1 1.4 1.291l.004.105V9.8a1.4 1.4 0 0 1-1.4 1.4H2.8a1.4 1.4 0 0 1-1.4-1.4V5.606a1.4 1.4 0 0 1 1.4-1.4h1.009l.708-.882a1.4 1.4 0 0 1 .966-.518l.126-.006zM7 5.95a1.4 1.4 0 1 0 0 2.8 1.4 1.4 0 0 0 0-2.8" clip-rule="evenodd"/></g><defs><clipPath id="a"><path fill="#fff" d="M0 0h14v14H0z"/></clipPath></defs></svg>