<svg width="12" height="12" viewBox="0 0 12 12" fill="none" xmlns="http://www.w3.org/2000/svg"><path d="M4.960 2.419 C 4.557 2.430,4.498 2.436,4.397 2.476 C 4.132 2.582,3.967 2.731,3.582 3.211 C 3.467 3.353,3.346 3.499,3.313 3.535 L 3.252 3.600 2.931 3.601 C 2.464 3.601,2.129 3.630,1.996 3.680 C 1.773 3.763,1.522 3.967,1.379 4.181 C 1.346 4.230,1.295 4.342,1.265 4.430 L 1.210 4.590 1.204 6.490 C 1.198 8.454,1.202 8.594,1.279 8.813 C 1.393 9.137,1.710 9.436,2.052 9.541 L 2.210 9.590 6.000 9.590 L 9.790 9.590 9.948 9.541 C 10.316 9.427,10.627 9.116,10.741 8.748 L 10.790 8.590 10.790 6.600 L 10.790 4.610 10.741 4.452 C 10.645 4.140,10.418 3.880,10.107 3.726 C 9.927 3.636,9.916 3.634,9.666 3.618 C 9.525 3.609,9.261 3.601,9.078 3.601 L 8.746 3.600 8.488 3.285 C 8.024 2.718,7.862 2.571,7.594 2.471 C 7.472 2.426,7.455 2.425,6.440 2.416 C 5.873 2.411,5.208 2.412,4.960 2.419 M6.325 5.153 C 6.896 5.321,7.271 5.902,7.181 6.480 C 7.096 7.030,6.627 7.454,6.059 7.494 C 5.881 7.507,5.641 7.454,5.448 7.360 C 5.305 7.290,5.092 7.091,4.991 6.932 C 4.611 6.339,4.842 5.547,5.487 5.230 C 5.588 5.180,5.720 5.131,5.780 5.121 C 5.920 5.097,6.189 5.113,6.325 5.153 " fill="#1A1C1F" stroke="none" fill-rule="evenodd"></path></svg>