<svg width="16" height="16" viewBox="0 0 16 16" fill="none" xmlns="http://www.w3.org/2000/svg"><path d="M6.613 3.226 C 6.075 3.240,5.998 3.248,5.863 3.302 C 5.501 3.446,5.294 3.635,4.721 4.347 C 4.539 4.574,4.379 4.767,4.366 4.776 C 4.354 4.785,4.035 4.800,3.659 4.809 C 3.282 4.819,2.913 4.839,2.840 4.854 C 2.612 4.898,2.332 5.056,2.118 5.259 C 1.873 5.492,1.783 5.626,1.688 5.903 L 1.613 6.120 1.613 8.800 L 1.613 11.480 1.687 11.694 C 1.854 12.180,2.255 12.573,2.737 12.722 L 2.947 12.787 8.000 12.787 L 13.053 12.787 13.263 12.722 C 13.741 12.574,14.148 12.176,14.313 11.694 L 14.387 11.480 14.387 8.800 L 14.387 6.120 14.313 5.906 C 14.172 5.494,13.882 5.169,13.475 4.968 C 13.236 4.849,13.222 4.845,12.888 4.824 C 12.700 4.812,12.347 4.802,12.104 4.801 L 11.661 4.800 11.317 4.380 C 10.698 3.624,10.483 3.428,10.125 3.295 C 9.962 3.235,9.940 3.234,8.587 3.222 C 7.831 3.216,6.943 3.218,6.613 3.226 M8.416 6.863 C 8.820 6.971,9.210 7.289,9.404 7.667 C 9.652 8.151,9.660 8.609,9.428 9.081 C 9.231 9.484,8.896 9.781,8.493 9.910 C 8.074 10.044,7.670 10.012,7.264 9.814 C 7.074 9.720,6.789 9.454,6.654 9.243 C 6.149 8.453,6.457 7.395,7.317 6.973 C 7.450 6.907,7.626 6.842,7.707 6.828 C 7.887 6.797,8.233 6.814,8.416 6.863 " fill="#1A1C1F" stroke="none" fill-rule="evenodd"></path></svg>