<svg width="20" height="20" viewBox="0 0 20 20" fill="none" xmlns="http://www.w3.org/2000/svg"><path d="M8.283 4.032 C 7.594 4.050,7.498 4.060,7.328 4.127 C 6.887 4.303,6.612 4.551,5.970 5.351 C 5.779 5.589,5.577 5.832,5.521 5.892 L 5.420 6.000 4.902 6.001 C 4.012 6.004,3.549 6.046,3.300 6.147 C 2.730 6.379,2.337 6.782,2.113 7.367 L 2.017 7.617 2.017 10.983 L 2.017 14.350 2.098 14.596 C 2.293 15.188,2.812 15.707,3.404 15.902 L 3.650 15.983 10.000 15.983 L 16.350 15.983 16.596 15.902 C 17.188 15.707,17.707 15.188,17.902 14.596 L 17.983 14.350 17.983 11.000 L 17.983 7.650 17.891 7.383 C 17.713 6.864,17.356 6.464,16.844 6.209 C 16.545 6.061,16.527 6.056,16.110 6.030 C 15.875 6.015,15.434 6.002,15.130 6.002 L 14.576 6.000 14.147 5.475 C 13.373 4.530,13.103 4.285,12.657 4.119 C 12.453 4.044,12.423 4.042,10.750 4.027 C 9.815 4.019,8.705 4.021,8.283 4.032 M10.520 8.579 C 11.020 8.713,11.514 9.116,11.756 9.586 C 12.065 10.188,12.074 10.762,11.786 11.351 C 11.538 11.854,11.119 12.226,10.617 12.387 C 10.093 12.555,9.588 12.516,9.080 12.267 C 8.842 12.151,8.486 11.818,8.318 11.554 C 7.686 10.566,8.072 9.244,9.146 8.716 C 9.313 8.634,9.533 8.552,9.633 8.535 C 9.859 8.496,10.292 8.518,10.520 8.579 " fill="#1A1C1F" stroke="none" fill-rule="evenodd"></path></svg>