<svg xmlns="http://www.w3.org/2000/svg" width="32" height="32" fill="none"><g clip-path="url(#a)"><path fill="#1A1C1F" fill-rule="evenodd" d="M19.172 6.001a3 3 0 0 1 2.12.879L23.416 9l3.588.004C28.6 9.007 30 10.521 30 12.001V23a3 3 0 0 1-3 3H5a3 3 0 0 1-3-3V12.005a3 3 0 0 1 2.997-3l3.587-.004 2.123-2.121C11.223 6.364 12.062 6 12.83 6zm-3.172 6a5 5 0 1 0 0 10 5 5 0 0 0 0-10m0 2a3 3 0 1 1 0 6 3 3 0 0 1 0-6m-8-1H7a1 1 0 1 0 0 2h1a1 1 0 1 0 0-2" clip-rule="evenodd"/></g><defs><clipPath id="a"><path fill="#fff" d="M0 0h32v32H0z"/></clipPath></defs></svg>