<svg xmlns="http://www.w3.org/2000/svg" width="28" height="28" fill="none"><g clip-path="url(#a)"><path fill="#1A1C1F" fill-rule="evenodd" d="M16.775 5.251c.696 0 1.364.277 1.856.769l1.857 1.856 3.14.004c1.397.001 2.622 1.326 2.622 2.621v9.623a2.625 2.625 0 0 1-2.625 2.625H4.375a2.625 2.625 0 0 1-2.625-2.625v-9.62A2.625 2.625 0 0 1 4.372 7.88l3.139-.004L9.369 6.02a2.78 2.78 0 0 1 1.857-.769zM14 10.501a4.375 4.375 0 1 0 0 8.75 4.375 4.375 0 0 0 0-8.75m0 1.75a2.625 2.625 0 1 1 0 5.25 2.625 2.625 0 0 1 0-5.25m-7-.875h-.875a.875.875 0 1 0 0 1.75H7a.875.875 0 0 0 0-1.75" clip-rule="evenodd"/></g><defs><clipPath id="a"><path fill="#fff" d="M0 0h28v28H0z"/></clipPath></defs></svg>