<svg xmlns="http://www.w3.org/2000/svg" width="14" height="14" fill="none"><g clip-path="url(#a)"><path fill="#1A1C1F" fill-rule="evenodd" d="M8.4 2.8a1.4 1.4 0 0 1 1.12.56l.63.84h1.05c.738 0 1.4.674 1.4 1.4v4.2a1.4 1.4 0 0 1-1.4 1.4H2.8a1.4 1.4 0 0 1-1.4-1.4V5.604a1.4 1.4 0 0 1 1.396-1.4l1.053-.003.631-.841c.24-.32.72-.56 1.12-.56zm0 1.4H5.6L4.55 5.599l-1.75.005V9.8h8.4V5.6H9.45zM7 5.95a1.4 1.4 0 1 1 0 2.8 1.4 1.4 0 0 1 0-2.8" clip-rule="evenodd"/></g><defs><clipPath id="a"><path fill="#fff" d="M0 0h14v14H0z"/></clipPath></defs></svg>