<svg width="28" height="28" viewBox="0 0 28 28" fill="none" xmlns="http://www.w3.org/2000/svg"><path d="M11.083 5.318 C 10.143 5.365,9.893 5.517,8.494 6.890 L 7.486 7.879 5.692 7.897 C 3.999 7.915,3.879 7.921,3.593 8.017 C 2.749 8.300,2.212 8.833,1.879 9.717 L 1.725 10.125 1.738 15.364 L 1.750 20.603 1.906 20.992 C 2.195 21.708,2.726 22.261,3.403 22.548 L 3.757 22.698 5.740 22.738 C 8.622 22.797,23.951 22.750,24.220 22.681 C 24.663 22.569,25.109 22.309,25.453 21.963 C 25.814 21.599,25.984 21.320,26.159 20.806 L 26.273 20.470 26.271 16.127 C 26.270 13.738,26.251 11.356,26.229 10.833 L 26.190 9.883 26.002 9.503 C 25.676 8.846,25.029 8.252,24.383 8.019 C 24.119 7.924,24.004 7.917,22.307 7.897 L 20.510 7.877 19.623 7.004 C 18.558 5.956,18.226 5.676,17.829 5.490 C 17.554 5.361,17.468 5.346,16.849 5.314 C 16.059 5.274,11.905 5.277,11.083 5.318 M14.935 10.617 C 16.572 10.961,17.943 12.349,18.273 13.995 C 18.370 14.479,18.345 15.552,18.228 15.977 C 17.687 17.929,15.973 19.243,13.977 19.236 C 12.783 19.231,11.763 18.798,10.913 17.933 C 10.343 17.353,9.983 16.736,9.772 15.977 C 9.657 15.561,9.630 14.478,9.724 14.018 C 10.063 12.341,11.438 10.943,13.067 10.616 C 13.496 10.530,14.525 10.531,14.935 10.617 M7.509 11.570 C 7.608 11.648,7.723 11.784,7.764 11.872 C 7.977 12.319,7.724 12.939,7.276 13.068 C 7.078 13.124,6.106 13.126,5.864 13.069 C 5.275 12.933,5.081 12.096,5.533 11.644 C 5.761 11.416,5.905 11.386,6.663 11.408 C 7.323 11.427,7.331 11.429,7.509 11.570 M13.487 12.317 C 12.639 12.476,11.872 13.135,11.540 13.988 C 11.436 14.257,11.417 14.379,11.414 14.817 C 11.409 15.401,11.465 15.651,11.701 16.109 C 12.383 17.433,14.142 17.889,15.408 17.071 C 15.937 16.729,16.287 16.269,16.502 15.633 C 16.633 15.248,16.622 14.452,16.480 14.047 C 16.220 13.302,15.570 12.654,14.840 12.412 C 14.503 12.300,13.831 12.253,13.487 12.317 " fill="#1A1C1F" stroke="none" fill-rule="evenodd"></path></svg>