<svg xmlns="http://www.w3.org/2000/svg" width="28" height="28" fill="none"><g clip-path="url(#a)"><path fill="#1A1C1F" fill-rule="evenodd" d="M16.775 5.251c.696 0 1.364.277 1.856.769l1.857 1.856 3.14.004c1.397.001 2.622 1.24 2.622 2.625v9.619a2.625 2.625 0 0 1-2.625 2.625H4.375a2.625 2.625 0 0 1-2.625-2.625v-9.62A2.625 2.625 0 0 1 4.372 7.88l3.139-.004L9.369 6.02c.451-.451 1.237-.769 1.857-.769zm0 1.75h-5.55a.88.88 0 0 0-.619.256L8.494 9.37a.88.88 0 0 1-.618.256l-3.502.004a.875.875 0 0 0-.874.875v9.619c0 .483.392.875.875.875h19.25a.875.875 0 0 0 .875-.875v-9.62a.875.875 0 0 0-.874-.874l-3.502-.004a.88.88 0 0 1-.618-.256l-2.112-2.113a.88.88 0 0 0-.619-.256M14 10.501a4.375 4.375 0 1 1 0 8.75 4.375 4.375 0 0 1 0-8.75m0 1.75a2.625 2.625 0 1 0 0 5.25 2.625 2.625 0 0 0 0-5.25m-7-.875a.875.875 0 1 1 0 1.75h-.875a.875.875 0 0 1 0-1.75z" clip-rule="evenodd"/></g><defs><clipPath id="a"><path fill="#fff" d="M0 0h28v28H0z"/></clipPath></defs></svg>