<svg xmlns="http://www.w3.org/2000/svg" width="16" height="16" fill="none"><g clip-path="url(#a)"><path fill="#1A1C1F" fill-rule="evenodd" d="M9.6 3.2a1.6 1.6 0 0 1 1.28.64l.72.96h1.2c.843 0 1.6.77 1.6 1.6v4.8a1.6 1.6 0 0 1-1.6 1.6H3.2a1.6 1.6 0 0 1-1.6-1.6V6.405a1.6 1.6 0 0 1 1.595-1.6L4.4 4.8l.721-.961c.275-.366.823-.64 1.28-.64zm0 1.6H6.4L5.2 6.399l-2 .006V11.2h9.6V6.4h-2zM8 6.8A1.6 1.6 0 1 1 8 10a1.6 1.6 0 0 1 0-3.2" clip-rule="evenodd"/></g><defs><clipPath id="a"><path fill="#fff" d="M0 0h16v16H0z"/></clipPath></defs></svg>