<svg xmlns="http://www.w3.org/2000/svg" width="32" height="32" fill="none"><path fill="#1A1C1F" fill-rule="evenodd" d="M12.08 6.109c-.147.04-.447.164-.667.274-.351.177-.548.347-1.631 1.416l-1.23 1.214H6.604c-1.768 0-1.985.01-2.361.106-1.008.258-1.797 1.021-2.125 2.054L2 11.547v11.946l.148.418c.351.994 1.067 1.674 2.095 1.991.303.094.81.098 11.757.098s11.454-.004 11.757-.098a3.2 3.2 0 0 0 1.274-.721c.401-.38.634-.74.821-1.27l.148-.418v-5.946c0-5.691-.004-5.96-.101-6.24-.321-.936-.882-1.593-1.712-2.003a3.2 3.2 0 0 0-.661-.237c-.158-.03-1.14-.054-2.182-.054h-1.896l-1.23-1.215c-1.323-1.305-1.597-1.507-2.301-1.69-.439-.114-7.419-.113-7.837.001m5.137 6.05c1.803.438 3.26 1.947 3.67 3.801.129.585.117 1.603-.027 2.193a5.02 5.02 0 0 1-3.393 3.622c-2.726.859-5.646-.812-6.327-3.622-.145-.595-.158-1.613-.028-2.193.404-1.804 1.837-3.329 3.545-3.771a5.45 5.45 0 0 1 2.56-.03m-8.86.911c.363.137.618.521.618.93s-.255.793-.618.93c-.224.084-1.548.073-1.76-.015-.733-.307-.763-1.415-.047-1.793.166-.088.308-.104.927-.106.401-.002.797.023.88.054m6.816 1.056c-.494.142-.872.371-1.285.78-.638.63-.917 1.379-.861 2.309.065 1.095.709 2.028 1.72 2.494.85.392 1.656.392 2.506 0 1.011-.466 1.655-1.399 1.72-2.494.056-.93-.223-1.678-.861-2.31-.625-.619-1.269-.882-2.146-.875a3.5 3.5 0 0 0-.793.096"/></svg>