<svg width="20" height="20" viewBox="0 0 20 20" fill="none" xmlns="http://www.w3.org/2000/svg"><path d="M7.950 4.034 C 7.524 4.058,7.402 4.092,7.040 4.283 C 6.693 4.466,6.538 4.622,6.003 5.330 L 5.506 5.989 4.623 6.012 C 4.137 6.024,3.652 6.051,3.545 6.070 C 3.215 6.131,2.874 6.333,2.571 6.649 C 2.286 6.947,2.221 7.052,2.096 7.417 L 2.017 7.650 2.017 11.000 L 2.017 14.350 2.098 14.596 C 2.293 15.188,2.812 15.707,3.404 15.902 L 3.650 15.983 10.000 15.983 L 16.350 15.983 16.596 15.902 C 17.188 15.707,17.707 15.188,17.902 14.596 L 17.983 14.350 17.983 11.050 C 17.983 8.486,17.974 7.710,17.941 7.569 C 17.806 6.996,17.350 6.466,16.741 6.174 C 16.451 6.036,16.159 6.004,15.143 6.002 L 14.503 6.000 14.055 5.408 C 13.464 4.628,13.239 4.405,12.851 4.214 C 12.564 4.072,12.530 4.064,12.133 4.033 C 11.668 3.998,8.573 3.998,7.950 4.034 M12.750 7.000 L 13.501 8.000 14.750 8.000 L 16.000 8.000 16.000 11.000 L 16.000 14.000 10.000 14.000 L 4.000 14.000 4.000 11.000 L 4.000 8.000 5.250 8.000 L 6.499 8.000 7.250 7.000 L 8.001 6.000 10.000 6.000 L 11.999 6.000 12.750 7.000 M9.613 8.547 C 9.175 8.630,8.765 8.885,8.445 9.271 C 7.958 9.860,7.873 10.735,8.234 11.433 C 8.379 11.714,8.836 12.155,9.120 12.287 C 9.358 12.399,9.777 12.500,10.000 12.500 C 10.225 12.500,10.639 12.399,10.894 12.283 C 11.109 12.184,11.651 11.662,11.759 11.450 C 12.202 10.575,12.000 9.592,11.250 8.968 C 10.799 8.592,10.194 8.436,9.613 8.547 " fill="#1A1C1F" stroke="none" fill-rule="evenodd"></path></svg>