<svg xmlns="http://www.w3.org/2000/svg" width="24" height="24" fill="none"><g clip-path="url(#a)"><path fill="#1A1C1F" fill-rule="evenodd" d="M14.405 4.5a2.5 2.5 0 0 1 1.817.783l1.305 1.383H19.5c1.326 0 2.5 1.034 2.5 2.336V17a2.5 2.5 0 0 1-2.5 2.5h-15A2.5 2.5 0 0 1 2 17V9.167a2.5 2.5 0 0 1 2.5-2.5l2.004-.001 1.258-1.361C8.192 4.838 8.95 4.5 9.6 4.5zM12 9a3.5 3.5 0 1 0 0 7 3.5 3.5 0 0 0 0-7m0 2a1.5 1.5 0 1 0 0 3 1.5 1.5 0 0 0 0-3" clip-rule="evenodd"/></g><defs><clipPath id="a"><path fill="#fff" d="M0 0h24v24H0z"/></clipPath></defs></svg>