<svg width="16" height="16" viewBox="0 0 16 16" fill="none" xmlns="http://www.w3.org/2000/svg"><path d="M6.347 3.227 C 6.020 3.247,5.917 3.276,5.632 3.426 C 5.354 3.572,5.230 3.698,4.802 4.264 L 4.405 4.791 3.698 4.809 C 3.309 4.819,2.921 4.840,2.836 4.856 C 2.572 4.905,2.300 5.067,2.057 5.320 C 1.829 5.557,1.777 5.641,1.677 5.933 L 1.613 6.120 1.613 8.800 L 1.613 11.480 1.687 11.694 C 1.854 12.180,2.255 12.573,2.737 12.722 L 2.947 12.787 8.000 12.787 L 13.053 12.787 13.263 12.722 C 13.733 12.577,14.136 12.187,14.312 11.707 L 14.385 11.507 14.394 9.053 C 14.404 6.214,14.399 6.094,14.244 5.774 C 14.060 5.393,13.791 5.130,13.392 4.939 C 13.221 4.858,13.160 4.843,12.899 4.825 C 12.734 4.813,12.376 4.802,12.101 4.802 L 11.603 4.800 11.243 4.327 C 10.768 3.700,10.590 3.524,10.281 3.371 C 10.048 3.256,10.028 3.251,9.693 3.227 C 9.303 3.198,6.817 3.199,6.347 3.227 M10.200 5.600 L 10.801 6.400 11.800 6.400 L 12.800 6.400 12.800 8.800 L 12.800 11.200 8.000 11.200 L 3.200 11.200 3.200 8.800 L 3.200 6.400 4.200 6.400 L 5.199 6.400 5.800 5.600 L 6.401 4.800 8.000 4.800 L 9.599 4.800 10.200 5.600 M7.690 6.838 C 7.340 6.904,7.012 7.108,6.756 7.417 C 6.363 7.892,6.299 8.579,6.593 9.160 C 6.679 9.329,7.113 9.748,7.285 9.826 C 7.489 9.920,7.820 10.000,8.000 10.000 C 8.180 10.000,8.511 9.920,8.715 9.826 C 8.887 9.748,9.321 9.329,9.407 9.160 C 9.761 8.460,9.600 7.674,9.000 7.174 C 8.643 6.876,8.151 6.750,7.690 6.838 " fill="#1A1C1F" stroke="none" fill-rule="evenodd"></path></svg>