<svg xmlns="http://www.w3.org/2000/svg" width="24" height="24" fill="none"><g clip-path="url(#a)"><path fill="#1A1C1F" fill-rule="evenodd" d="M9.6 4.5c-.639 0-1.408.338-1.838.805L6.504 6.666H4.5a2.5 2.5 0 0 0-2.5 2.5V17a2.5 2.5 0 0 0 2.5 2.5h15A2.5 2.5 0 0 0 22 17V9.002c0-1.291-1.174-2.335-2.5-2.335l-1.973-.001-1.305-1.383a2.5 2.5 0 0 0-1.817-.783zm4.805 2a.5.5 0 0 1 .363.157l1.603 1.696a1 1 0 0 0 .727.314H19.5a.5.5 0 0 1 .5.5V17a.5.5 0 0 1-.5.5h-15A.5.5 0 0 1 4 17V9.167a.5.5 0 0 1 .5-.5h2.443a1 1 0 0 0 .735-.322L9.232 6.66a.5.5 0 0 1 .367-.161zM12 9a3.5 3.5 0 1 0 0 7 3.5 3.5 0 0 0 0-7m0 2a1.5 1.5 0 1 1 0 3 1.5 1.5 0 0 1 0-3" clip-rule="evenodd"/></g><defs><clipPath id="a"><path fill="#fff" d="M0 0h24v24H0z"/></clipPath></defs></svg>