<svg xmlns="http://www.w3.org/2000/svg" width="12" height="12" fill="none"><g clip-path="url(#a)"><path fill="#1A1C1F" fill-rule="evenodd" d="M7.193 2.4c.36 0 .7.16.927.438l.63.766.846-.002a1.2 1.2 0 0 1 1.2 1.107l.004.09V8.4a1.2 1.2 0 0 1-1.2 1.2H2.4a1.2 1.2 0 0 1-1.2-1.2V4.805a1.2 1.2 0 0 1 1.2-1.2h.865l.607-.756a1.2 1.2 0 0 1 .827-.444l.109-.005zM6 5.1a1.2 1.2 0 1 0 0 2.4 1.2 1.2 0 0 0 0-2.4" clip-rule="evenodd"/></g><defs><clipPath id="a"><path fill="#fff" d="M0 0h12v12H0z"/></clipPath></defs></svg>