<svg xmlns="http://www.w3.org/2000/svg" width="32" height="32" fill="none"><g clip-path="url(#a)"><path fill="#1A1C1F" fill-rule="evenodd" d="M19.172 6.001a3 3 0 0 1 2.12.879L23.416 9l3.588.004c1.597.002 2.997 1.418 2.997 3V23a3 3 0 0 1-3 3H5a3 3 0 0 1-3-3V12.005a3 3 0 0 1 2.997-3l3.587-.004 2.123-2.121C11.223 6.364 12.121 6 12.83 6zm0 2h-6.344a1 1 0 0 0-.707.293l-2.414 2.414a1 1 0 0 1-.706.293l-4.002.004a1 1 0 0 0-.999 1V23a1 1 0 0 0 1 1h22a1 1 0 0 0 1-1V12.005a1 1 0 0 0-.999-1l-4.002-.004a1 1 0 0 1-.706-.293l-2.414-2.414a1 1 0 0 0-.707-.293m-3.172 4a5 5 0 1 1 0 10 5 5 0 0 1 0-10m0 2a3 3 0 1 0 0 6 3 3 0 0 0 0-6m-8-1a1 1 0 1 1 0 2H7a1 1 0 1 1 0-2z" clip-rule="evenodd"/></g><defs><clipPath id="a"><path fill="#fff" d="M0 0h32v32H0z"/></clipPath></defs></svg>