<svg width="24" height="24" viewBox="0 0 24 24" fill="none" xmlns="http://www.w3.org/2000/svg"><path d="M9.480 4.557 C 8.540 4.611,8.141 4.869,6.935 6.202 L 6.509 6.672 5.265 6.690 C 4.216 6.704,3.985 6.718,3.800 6.778 C 2.976 7.043,2.393 7.623,2.105 8.460 C 2.024 8.696,2.022 8.778,2.010 13.065 L 1.997 17.430 2.119 17.765 C 2.416 18.577,3.038 19.161,3.880 19.419 C 4.081 19.481,4.651 19.488,10.500 19.507 C 17.765 19.530,19.918 19.500,20.289 19.368 C 21.040 19.101,21.617 18.496,21.917 17.660 L 22.003 17.420 21.992 13.000 L 21.980 8.580 21.877 8.315 C 21.727 7.931,21.582 7.702,21.323 7.443 C 21.038 7.158,20.713 6.958,20.300 6.815 C 19.982 6.705,19.972 6.704,18.752 6.688 L 17.524 6.672 17.316 6.446 C 16.726 5.806,15.989 5.088,15.743 4.915 C 15.238 4.558,15.321 4.567,12.473 4.546 C 11.102 4.536,9.755 4.541,9.480 4.557 M15.599 7.526 C 16.183 8.126,16.634 8.557,16.719 8.595 C 16.838 8.650,17.081 8.662,18.285 8.673 L 19.710 8.685 19.842 8.822 L 19.975 8.959 19.978 13.030 C 19.979 15.765,19.966 17.139,19.938 17.220 C 19.911 17.298,19.841 17.368,19.738 17.420 C 19.582 17.499,19.501 17.500,12.000 17.500 C 4.499 17.500,4.418 17.499,4.262 17.420 C 4.159 17.368,4.089 17.298,4.062 17.220 C 4.034 17.139,4.021 15.764,4.022 13.029 L 4.024 8.957 4.150 8.831 L 4.276 8.705 5.728 8.679 C 6.695 8.661,7.219 8.636,7.296 8.605 C 7.442 8.545,7.907 8.094,8.709 7.232 L 9.332 6.564 9.556 6.549 C 9.679 6.542,10.869 6.532,12.200 6.528 L 14.620 6.520 15.599 7.526 M11.109 9.121 C 10.005 9.445,9.147 10.210,8.755 11.219 C 8.307 12.373,8.503 13.706,9.261 14.660 C 10.602 16.350,13.059 16.449,14.540 14.874 C 14.916 14.474,15.149 14.084,15.323 13.560 C 15.431 13.236,15.453 13.104,15.470 12.660 C 15.509 11.642,15.212 10.832,14.542 10.127 C 14.095 9.656,13.616 9.351,13.020 9.159 C 12.784 9.083,12.632 9.066,12.060 9.055 C 11.472 9.043,11.343 9.052,11.109 9.121 M12.318 11.059 C 12.565 11.093,12.941 11.304,13.100 11.497 C 13.173 11.587,13.284 11.759,13.346 11.880 C 13.446 12.075,13.459 12.142,13.459 12.480 C 13.460 12.825,13.448 12.885,13.333 13.129 C 13.181 13.448,12.924 13.713,12.619 13.862 C 12.427 13.956,12.354 13.969,12.000 13.969 C 11.646 13.969,11.573 13.956,11.381 13.862 C 11.076 13.713,10.819 13.448,10.667 13.129 C 10.552 12.884,10.540 12.825,10.541 12.480 C 10.542 12.147,10.556 12.072,10.653 11.871 C 10.793 11.584,11.051 11.316,11.318 11.181 C 11.517 11.080,11.896 11.000,12.060 11.023 C 12.104 11.030,12.220 11.046,12.318 11.059 " fill="#1A1C1F" stroke="none" fill-rule="evenodd"></path></svg>