<svg width="14" height="14" viewBox="0 0 14 14" fill="none" xmlns="http://www.w3.org/2000/svg"><path d="M4.830 1.422 C 4.441 1.439,4.369 1.454,4.161 1.559 C 3.897 1.694,3.653 1.971,3.566 2.236 C 3.518 2.383,3.514 2.443,3.505 3.293 L 3.496 4.195 3.340 4.211 C 2.811 4.265,2.373 4.469,2.023 4.823 C 1.757 5.093,1.623 5.315,1.484 5.714 L 1.400 5.955 1.400 8.398 L 1.400 10.841 1.467 11.038 C 1.613 11.467,1.738 11.680,2.004 11.955 C 2.297 12.257,2.590 12.427,2.998 12.532 C 3.168 12.576,3.268 12.586,3.523 12.585 C 3.798 12.584,3.865 12.576,4.048 12.521 C 4.164 12.485,4.324 12.425,4.405 12.387 C 4.560 12.313,4.866 12.092,4.980 11.972 L 5.049 11.900 8.189 11.899 C 9.915 11.899,11.435 11.889,11.565 11.877 C 11.696 11.865,11.842 11.839,11.891 11.819 C 12.145 11.713,12.393 11.427,12.517 11.097 L 12.588 10.908 12.595 8.777 L 12.602 6.645 12.551 6.490 C 12.439 6.150,12.287 5.931,12.058 5.781 C 11.880 5.664,11.734 5.623,11.451 5.607 L 11.200 5.593 11.200 4.458 L 11.200 3.324 11.113 3.173 C 11.046 3.057,10.854 2.850,10.290 2.284 C 9.875 1.867,9.509 1.520,9.449 1.486 L 9.343 1.425 7.279 1.415 C 6.144 1.409,5.042 1.412,4.830 1.422 M8.406 3.226 C 8.413 3.460,8.431 3.693,8.447 3.744 C 8.484 3.865,8.721 4.112,8.837 4.152 C 8.890 4.170,9.102 4.186,9.363 4.194 L 9.800 4.206 9.800 4.903 L 9.800 5.600 7.634 5.600 L 5.469 5.600 5.413 5.467 C 5.343 5.297,5.119 4.962,4.995 4.843 L 4.900 4.751 4.900 3.775 L 4.900 2.800 6.647 2.800 L 8.394 2.800 8.406 3.226 M3.792 5.680 C 3.928 5.742,4.006 5.811,4.098 5.950 L 4.165 6.052 4.171 8.368 L 4.178 10.685 4.126 10.796 C 4.007 11.049,3.785 11.187,3.500 11.187 C 3.214 11.187,2.995 11.048,2.868 10.786 L 2.815 10.675 2.813 8.412 C 2.812 6.500,2.817 6.136,2.845 6.067 C 2.905 5.919,3.010 5.789,3.120 5.724 C 3.347 5.591,3.564 5.577,3.792 5.680 M11.200 8.750 L 11.200 10.500 8.400 10.500 L 5.600 10.500 5.600 8.750 L 5.600 7.000 8.400 7.000 L 11.200 7.000 11.200 8.750 M7.197 8.071 C 7.061 8.106,6.877 8.224,6.798 8.328 C 6.529 8.680,6.663 9.202,7.070 9.389 C 7.219 9.457,7.462 9.455,7.618 9.384 C 7.866 9.272,8.050 9.008,8.050 8.763 C 8.050 8.507,7.866 8.224,7.633 8.124 C 7.503 8.068,7.303 8.043,7.197 8.071 M9.297 8.071 C 9.161 8.106,8.977 8.224,8.898 8.328 C 8.629 8.680,8.763 9.202,9.170 9.389 C 9.319 9.457,9.562 9.455,9.718 9.384 C 9.966 9.272,10.150 9.008,10.150 8.763 C 10.150 8.507,9.966 8.224,9.733 8.124 C 9.603 8.068,9.403 8.043,9.297 8.071 " fill="#1A1C1F" stroke="none" fill-rule="evenodd"></path></svg>