<svg xmlns="http://www.w3.org/2000/svg" width="28" height="28" fill="none"><g clip-path="url(#a)"><path fill="#1A1C1F" fill-rule="evenodd" d="M18.396 1.75c.252 0 .462.097.617.253l3.485 3.512a.87.87 0 0 1 .252.618v5.243a2.634 2.634 0 0 1 2.625 2.627v6.995a2.635 2.635 0 0 1-2.627 2.627H10.35v.274c-.007.34-.158 2.351-2.756 2.351-3.068 0-4.969-3.387-4.969-8.787 0-6.821 2.517-8.416 4.375-8.668V3.717c0-1.096.872-1.967 1.967-1.967zM7.595 10.5c-2.322 0-3.226 3-3.226 6.963 0 3.492.986 7.005 3.226 7.005.533 0 1.006-.083 1.006-.596v-2.218c0-.308-.267-.555-.596-.555h-.72c-.841 0-1.17-1.069-1.17-3.616 0-2.238.308-3.614 1.17-3.614h.72c.329 0 .596-.247.596-.555v-2.218c0-.473-.39-.596-1.006-.596m15.153 2.625H10.35v.189c0 1.27-1.053 2.305-2.346 2.305h-.017c-.06.332-.123.904-.123 1.864s.05 1.532.104 1.866h.036c1.293 0 2.346 1.034 2.346 2.305v.221h12.4a.886.886 0 0 0 .875-.878v-6.995a.89.89 0 0 0-.877-.877m-6.987 5.25a.87.87 0 0 1 .864.875.87.87 0 0 1-.864.875h-.02a.87.87 0 0 1-.865-.875.87.87 0 0 1 .865-.875zm5.25 0a.87.87 0 0 1 .864.875.87.87 0 0 1-.864.875h-.02a.87.87 0 0 1-.865-.875.87.87 0 0 1 .865-.875zm-2.625 0a.87.87 0 0 1 .864.875.87.87 0 0 1-.864.875h-.02a.87.87 0 0 1-.865-.875.87.87 0 0 1 .865-.875zM15.76 15.75a.87.87 0 0 1 .864.875.87.87 0 0 1-.864.875h-.02a.87.87 0 0 1-.865-.875.87.87 0 0 1 .865-.875zm5.25 0a.87.87 0 0 1 .864.875.87.87 0 0 1-.864.875h-.02a.87.87 0 0 1-.865-.875.87.87 0 0 1 .865-.875zm-2.625 0a.87.87 0 0 1 .864.875.87.87 0 0 1-.864.875h-.02a.87.87 0 0 1-.865-.875.87.87 0 0 1 .865-.875zM16.674 3.5H8.96a.22.22 0 0 0-.225.225v5.19c1.556.497 1.615 1.981 1.615 2.18v.28H21V7.883h-3.455a.875.875 0 0 1-.87-.87zm1.701.358v2.276h2.248z" clip-rule="evenodd"/></g><defs><clipPath id="a"><path fill="#fff" d="M0 0h28v28H0z"/></clipPath></defs></svg>