<svg xmlns="http://www.w3.org/2000/svg" width="16" height="16" fill="none"><g clip-path="url(#a)"><path fill="#1A1C1F" fill-rule="evenodd" d="M10.474 1.6c.2 0 .4.125.5.2L12.6 3.45l.059.079c.09.137.141.305.141.471v2.4h.326c.8 0 1.275.7 1.275 1.475v4.275c0 .75-.5 1.45-1.275 1.45H5.776c-.44.487-1.07.8-1.776.8A2.403 2.403 0 0 1 1.6 12V7.2c0-1.323 1.077-2.4 2.4-2.4V3.025C4 2.2 4.65 1.6 5.45 1.6zM4 6.4a.8.8 0 0 0-.8.8V12a.8.8 0 0 0 1.6 0V7.2a.8.8 0 0 0-.8-.8M12.8 8H6.4v4h6.4zm-2 1.2a.8.8 0 1 1 0 1.6.8.8 0 0 1 0-1.6m-2.4 0a.8.8 0 1 1 0 1.6.8.8 0 0 1 0-1.6m1.2-6h-4v2.224c.294.265.518.597.653.976h4.947V4.8h-.825C9.95 4.8 9.6 4.4 9.6 4z" clip-rule="evenodd"/></g><defs><clipPath id="a"><path fill="#fff" d="M0 0h16v16H0z"/></clipPath></defs></svg>