<svg width="20" height="20" viewBox="0 0 20 20" fill="none" xmlns="http://www.w3.org/2000/svg"><path d="M6.917 2.030 C 6.449 2.050,6.318 2.066,6.165 2.127 C 5.637 2.335,5.252 2.723,5.090 3.208 C 5.026 3.401,5.020 3.511,5.008 4.703 L 4.994 5.990 4.674 6.029 C 4.005 6.112,3.440 6.374,2.966 6.824 C 2.533 7.235,2.316 7.585,2.096 8.231 L 2.000 8.513 2.000 12.000 L 2.000 15.487 2.096 15.769 C 2.305 16.382,2.483 16.686,2.863 17.079 C 3.281 17.510,3.699 17.753,4.283 17.903 C 4.526 17.966,4.669 17.980,5.033 17.979 C 5.426 17.978,5.522 17.966,5.783 17.886 C 5.948 17.836,6.177 17.751,6.292 17.696 C 6.514 17.590,6.952 17.274,7.115 17.103 L 7.212 17.000 11.665 16.999 C 14.113 16.999,16.284 16.985,16.488 16.968 C 16.692 16.951,16.916 16.914,16.986 16.884 C 17.350 16.732,17.704 16.325,17.881 15.853 L 17.983 15.583 17.993 12.538 L 18.003 9.493 17.930 9.271 C 17.771 8.786,17.553 8.473,17.225 8.258 C 16.972 8.092,16.763 8.032,16.358 8.010 L 16.000 7.990 16.000 6.369 L 16.000 4.748 15.876 4.533 C 15.780 4.367,15.506 4.071,14.701 3.263 C 14.107 2.668,13.585 2.172,13.500 2.124 L 13.350 2.038 10.417 2.023 C 8.803 2.014,7.228 2.018,6.917 2.030 M12.009 4.608 C 12.019 4.943,12.044 5.276,12.067 5.348 C 12.119 5.521,12.458 5.875,12.625 5.931 C 12.699 5.957,13.003 5.981,13.375 5.991 L 14.000 6.008 14.000 7.004 L 14.000 8.000 10.906 8.000 L 7.812 8.000 7.733 7.810 C 7.633 7.568,7.312 7.089,7.136 6.918 L 7.000 6.786 7.000 5.393 L 7.000 4.000 9.496 4.000 L 11.992 4.000 12.009 4.608 M5.417 8.115 C 5.611 8.203,5.722 8.301,5.854 8.501 L 5.950 8.645 5.959 11.956 L 5.968 15.266 5.884 15.432 C 5.697 15.801,5.407 15.982,5.000 15.982 C 4.591 15.982,4.306 15.803,4.110 15.424 L 4.021 15.250 4.019 12.033 C 4.017 9.364,4.025 8.794,4.063 8.683 C 4.137 8.471,4.289 8.276,4.457 8.177 C 4.781 7.988,5.092 7.967,5.417 8.115 M16.000 12.500 L 16.000 15.000 12.000 15.000 L 8.000 15.000 8.000 12.500 L 8.000 10.000 12.000 10.000 L 16.000 10.000 16.000 12.500 M10.283 11.529 C 9.990 11.607,9.707 11.837,9.588 12.097 C 9.487 12.318,9.489 12.695,9.594 12.906 C 9.774 13.272,10.098 13.482,10.483 13.481 C 10.789 13.481,11.009 13.384,11.227 13.154 C 11.593 12.767,11.585 12.209,11.208 11.818 C 10.988 11.591,10.560 11.457,10.283 11.529 M13.283 11.529 C 12.990 11.607,12.707 11.837,12.588 12.097 C 12.487 12.318,12.489 12.695,12.594 12.906 C 12.774 13.272,13.098 13.482,13.483 13.481 C 13.789 13.481,14.009 13.384,14.227 13.154 C 14.593 12.767,14.585 12.209,14.208 11.818 C 13.988 11.591,13.560 11.457,13.283 11.529 " fill="#1A1C1F" stroke="none" fill-rule="evenodd"></path></svg>