<svg xmlns="http://www.w3.org/2000/svg" width="12" height="12" fill="none"><g clip-path="url(#a)"><path fill="#1A1C1F" fill-rule="evenodd" d="M7.856 1.2c.15 0 .3.094.375.15l1.218 1.237.044.06A.66.66 0 0 1 9.6 3v1.8h.245c.6 0 .956.525.956 1.106v3.207c0 .562-.375 1.087-.956 1.087H4.332c-.33.365-.802.6-1.332.6-.992 0-1.8-.808-1.8-1.8V5.4c0-.992.808-1.8 1.8-1.8V2.269C3 1.65 3.487 1.2 4.087 1.2zM2.999 4.8a.6.6 0 0 0-.6.6V9a.6.6 0 0 0 1.2 0V5.4a.6.6 0 0 0-.6-.6M9.6 6H4.8v3h4.8zm-1.5.9a.6.6 0 1 1 0 1.2.6.6 0 0 1 0-1.2m-1.8 0a.6.6 0 1 1 0 1.2.6.6 0 0 1 0-1.2m.9-4.5h-3v1.668c.22.199.389.448.49.732h3.71V3.6h-.618c-.319 0-.582-.3-.582-.6z" clip-rule="evenodd"/></g><defs><clipPath id="a"><path fill="#fff" d="M0 0h12v12H0z"/></clipPath></defs></svg>