<svg width="28" height="28" viewBox="0 0 28 28" fill="none" xmlns="http://www.w3.org/2000/svg"><path d="M8.937 1.816 C 8.215 1.848,8.013 1.927,7.606 2.333 C 7.285 2.654,7.113 2.973,7.050 3.361 C 7.020 3.546,7.001 4.666,7.000 6.242 L 7.000 8.820 6.872 8.820 C 6.659 8.821,5.862 9.119,5.498 9.334 C 5.071 9.585,4.383 10.263,4.084 10.726 C 3.361 11.848,2.872 13.523,2.706 15.447 C 2.312 20.039,3.290 23.888,5.240 25.414 C 5.974 25.988,6.690 26.230,7.653 26.230 C 8.493 26.229,9.215 25.976,9.668 25.523 C 10.037 25.154,10.360 24.367,10.360 23.837 L 10.360 23.613 16.415 23.613 C 19.813 23.612,22.705 23.592,23.005 23.568 C 23.451 23.531,23.585 23.500,23.821 23.383 C 24.528 23.031,25.109 22.350,25.298 21.651 C 25.339 21.500,25.360 20.473,25.374 17.898 C 25.394 14.253,25.369 13.496,25.218 13.109 C 24.997 12.537,24.461 11.953,23.897 11.669 C 23.603 11.520,23.142 11.387,22.923 11.387 L 22.783 11.387 22.766 8.642 L 22.750 5.896 22.621 5.702 C 22.472 5.476,19.038 2.017,18.832 1.885 C 18.699 1.800,18.528 1.797,14.119 1.793 C 11.602 1.791,9.270 1.801,8.937 1.816 M16.669 5.378 L 16.683 7.257 16.794 7.435 C 16.855 7.533,16.990 7.669,17.094 7.738 L 17.283 7.863 19.142 7.877 L 21.000 7.892 21.000 9.639 L 21.000 11.387 15.686 11.387 L 10.373 11.387 10.341 11.035 C 10.297 10.554,10.162 10.144,9.935 9.803 C 9.717 9.478,9.484 9.284,9.037 9.057 L 8.727 8.899 8.730 6.445 C 8.732 5.095,8.748 3.895,8.765 3.780 L 8.797 3.570 9.030 3.542 C 9.158 3.527,10.926 3.511,12.959 3.507 L 16.654 3.500 16.669 5.378 M19.476 4.979 C 20.062 5.575,20.528 6.084,20.511 6.111 C 20.492 6.143,20.114 6.160,19.434 6.160 L 18.387 6.160 18.387 5.009 C 18.387 4.376,18.392 3.867,18.399 3.877 C 18.405 3.888,18.890 4.384,19.476 4.979 M8.250 10.602 C 8.553 10.694,8.563 10.745,8.563 12.178 C 8.563 13.315,8.554 13.481,8.482 13.613 C 8.385 13.790,8.186 13.859,7.770 13.860 C 7.219 13.861,7.015 13.908,6.817 14.078 C 6.403 14.432,6.212 15.165,6.158 16.611 C 6.114 17.765,6.171 19.343,6.272 19.790 C 6.371 20.224,6.521 20.605,6.659 20.769 C 6.861 21.009,7.018 21.062,7.640 21.096 C 8.594 21.149,8.587 21.135,8.587 22.845 L 8.587 24.087 8.454 24.220 C 8.270 24.404,7.991 24.468,7.490 24.442 C 7.160 24.425,7.012 24.393,6.802 24.294 C 5.690 23.767,4.943 22.316,4.542 19.903 C 4.468 19.460,4.457 19.107,4.457 17.313 C 4.457 15.247,4.457 15.233,4.587 14.503 C 4.826 13.158,5.143 12.268,5.622 11.596 C 6.026 11.030,6.648 10.613,7.183 10.548 C 7.495 10.510,8.038 10.537,8.250 10.602 M23.027 13.190 C 23.102 13.207,23.255 13.314,23.365 13.428 L 23.567 13.635 23.567 17.485 C 23.567 21.864,23.607 21.452,23.155 21.741 L 22.928 21.887 16.644 21.887 L 10.360 21.887 10.360 21.663 C 10.360 21.102,10.098 20.504,9.659 20.067 C 9.292 19.700,8.880 19.485,8.394 19.406 C 8.204 19.375,8.024 19.319,7.992 19.280 C 7.947 19.226,7.933 18.812,7.933 17.567 C 7.933 16.664,7.946 15.864,7.961 15.789 C 7.986 15.661,8.009 15.649,8.369 15.574 C 9.361 15.369,10.042 14.735,10.290 13.784 C 10.328 13.635,10.360 13.420,10.360 13.306 L 10.360 13.099 16.625 13.129 C 20.071 13.146,22.952 13.173,23.027 13.190 M15.470 15.807 C 15.308 15.846,15.076 16.052,14.980 16.241 C 14.576 17.033,15.611 17.880,16.273 17.299 C 16.681 16.940,16.717 16.330,16.348 15.997 C 16.146 15.814,15.773 15.733,15.470 15.807 M18.037 15.843 C 17.730 15.951,17.499 16.304,17.501 16.660 C 17.502 16.840,17.658 17.141,17.819 17.276 C 18.385 17.753,19.222 17.367,19.226 16.628 C 19.229 16.007,18.652 15.627,18.037 15.843 M20.648 15.858 C 20.416 15.967,20.227 16.185,20.155 16.426 C 19.997 16.952,20.542 17.561,21.102 17.486 C 21.378 17.449,21.632 17.249,21.775 16.956 C 21.911 16.680,21.909 16.516,21.766 16.215 C 21.591 15.845,21.047 15.672,20.648 15.858 M15.354 18.492 C 15.110 18.617,15.003 18.755,14.927 19.045 C 14.809 19.498,15.114 20.017,15.540 20.085 C 15.884 20.140,16.138 20.075,16.329 19.884 C 16.813 19.400,16.649 18.657,16.011 18.440 C 15.774 18.360,15.583 18.375,15.354 18.492 M18.037 18.475 C 17.811 18.579,17.669 18.727,17.572 18.957 C 17.486 19.164,17.482 19.273,17.554 19.514 C 17.686 19.954,18.260 20.230,18.699 20.064 C 19.114 19.906,19.345 19.320,19.163 18.885 C 19.046 18.606,18.682 18.386,18.340 18.388 C 18.276 18.388,18.139 18.427,18.037 18.475 M20.731 18.426 C 20.438 18.511,20.117 18.934,20.114 19.239 C 20.113 19.413,20.274 19.745,20.437 19.900 C 20.703 20.155,21.258 20.165,21.537 19.920 C 21.709 19.769,21.887 19.428,21.887 19.250 C 21.887 19.076,21.709 18.729,21.553 18.598 C 21.340 18.419,21.002 18.348,20.731 18.426 " fill="#1A1C1F" stroke="none" fill-rule="evenodd"></path></svg>