<svg width="12" height="12" viewBox="0 0 12 12" fill="none" xmlns="http://www.w3.org/2000/svg"><path d="M4.130 1.218 C 3.871 1.230,3.789 1.241,3.699 1.276 C 3.382 1.401,3.151 1.634,3.054 1.925 C 3.016 2.041,3.012 2.107,3.005 2.822 L 2.996 3.594 2.804 3.618 C 2.403 3.667,2.064 3.825,1.780 4.094 C 1.520 4.341,1.390 4.551,1.258 4.939 L 1.200 5.108 1.200 7.203 L 1.200 9.298 1.277 9.517 C 1.467 10.057,1.780 10.415,2.250 10.632 C 2.494 10.745,2.707 10.788,3.020 10.787 C 3.256 10.787,3.313 10.780,3.470 10.732 C 3.569 10.702,3.706 10.650,3.775 10.617 C 3.909 10.554,4.171 10.365,4.269 10.262 L 4.327 10.200 7.019 10.199 C 8.499 10.199,9.801 10.190,9.913 10.180 C 10.025 10.170,10.151 10.148,10.192 10.130 C 10.410 10.039,10.622 9.795,10.729 9.512 L 10.790 9.350 10.796 7.522 L 10.802 5.695 10.758 5.562 C 10.662 5.272,10.532 5.084,10.335 4.955 C 10.183 4.855,10.058 4.819,9.815 4.806 L 9.600 4.794 9.600 3.822 L 9.600 2.849 9.525 2.720 C 9.468 2.620,9.304 2.443,8.820 1.958 C 8.462 1.598,8.151 1.303,8.099 1.273 L 8.007 1.221 6.229 1.212 C 5.250 1.208,4.306 1.210,4.130 1.218 M7.205 2.765 C 7.211 2.966,7.227 3.165,7.240 3.209 C 7.272 3.313,7.475 3.525,7.575 3.559 C 7.620 3.574,7.802 3.588,8.025 3.595 L 8.400 3.605 8.400 4.202 L 8.400 4.800 6.544 4.800 L 4.687 4.800 4.640 4.686 C 4.580 4.541,4.387 4.254,4.282 4.151 L 4.200 4.072 4.200 3.236 L 4.200 2.400 5.698 2.400 L 7.195 2.400 7.205 2.765 M3.220 4.853 C 3.341 4.903,3.437 4.981,3.504 5.087 L 3.570 5.189 3.575 7.174 L 3.581 9.160 3.530 9.259 C 3.419 9.478,3.240 9.590,3.000 9.590 C 2.754 9.589,2.583 9.482,2.466 9.254 L 2.413 9.150 2.411 7.220 C 2.410 5.618,2.415 5.276,2.438 5.210 C 2.549 4.890,2.910 4.726,3.220 4.853 M9.600 7.500 L 9.600 9.000 7.200 9.000 L 4.800 9.000 4.800 7.500 L 4.800 6.000 7.200 6.000 L 9.600 6.000 9.600 7.500 M6.170 6.918 C 5.994 6.964,5.824 7.102,5.753 7.258 C 5.692 7.391,5.694 7.617,5.756 7.744 C 6.006 8.252,6.713 8.193,6.870 7.652 C 6.950 7.379,6.823 7.104,6.555 6.968 C 6.452 6.915,6.269 6.892,6.170 6.918 M7.970 6.918 C 7.794 6.964,7.624 7.102,7.553 7.258 C 7.492 7.391,7.494 7.617,7.556 7.744 C 7.806 8.252,8.513 8.193,8.670 7.652 C 8.750 7.379,8.623 7.104,8.355 6.968 C 8.252 6.915,8.069 6.892,7.970 6.918 " fill="#1A1C1F" stroke="none" fill-rule="evenodd"></path></svg>