<svg xmlns="http://www.w3.org/2000/svg" width="32" height="32" fill="none"><path fill="#1A1C1F" fill-rule="evenodd" d="M9.562 2.104c-.711.222-1.336.9-1.505 1.632-.034.147-.055 1.396-.056 3.291L8 10.08h-.121c-.242 0-.926.225-1.343.442-1.455.758-2.445 2.24-3.016 4.518-.287 1.142-.404 2.022-.49 3.671-.195 3.757.475 7.113 1.813 9.084.68 1.003 1.535 1.687 2.477 1.984 1.468.464 3.095.159 3.848-.72.378-.442.672-1.236.672-1.814v-.258l7.293-.001c8.004-.001 7.52.019 8.225-.326.477-.233 1.092-.853 1.327-1.338.328-.677.326-.655.326-5.322s.002-4.645-.326-5.322c-.251-.517-.851-1.109-1.378-1.358-.401-.19-.828-.307-1.123-.307h-.157V10.01c0-2.541-.013-3.046-.082-3.279-.076-.255-.228-.423-2.17-2.387-1.193-1.206-2.175-2.156-2.29-2.215-.194-.099-.382-.102-5.95-.099-4.597.003-5.793.018-5.973.074M19.04 6.04c0 1.239.022 2.118.056 2.238.073.266.292.516.555.635.197.09.393.098 2.282.099L24 9.013v4H11.856l-.034-.413c-.086-1.056-.584-1.825-1.447-2.234l-.402-.191V7.171c0-2.659.01-3.013.084-3.087S10.617 4 14.59 4h4.45zm4.471.952c.01.028-.519.048-1.24.048h-1.258V4.425l1.24 1.259c.682.693 1.248 1.282 1.258 1.308M9.484 12.128c.328.17.329.179.329 1.78 0 1.198-.014 1.485-.081 1.614-.129.25-.325.318-.916.318-.287 0-.609.024-.714.054-.462.128-.771.688-.966 1.751-.102.552-.115.817-.116 2.355-.001 1.371.017 1.847.087 2.276.165 1.004.411 1.524.817 1.724.176.087.324.107.789.107.623 0 .794.051.989.299.107.136.111.202.111 1.624v1.482l-.137.163c-.184.219-.472.288-1.089.261-.437-.018-.557-.045-.867-.195-1.31-.631-2.188-2.459-2.584-5.377-.118-.867-.135-3.995-.027-4.871.301-2.447.832-3.883 1.761-4.762.34-.322.833-.59 1.242-.677.342-.072 1.176-.027 1.372.074m16.964 2.992c.099.059.255.199.346.312l.166.205v8.726l-.163.205c-.09.113-.269.259-.398.325l-.235.12H11.84v-.237c0-1.169-.855-2.262-2.002-2.561a2.6 2.6 0 0 0-.513-.082c-.188 0-.203-.012-.243-.2-.054-.257-.055-3.484-.001-3.8l.042-.24.458-.089c.599-.116 1.06-.348 1.443-.727.491-.484.813-1.221.815-1.865l.001-.227 7.213.014c7.105.014 7.216.016 7.395.121m-8.876 2.981c-.226.099-.494.422-.536.648-.09.48.124.944.524 1.138.765.37 1.565-.278 1.404-1.138-.044-.232-.313-.552-.548-.65-.217-.091-.633-.09-.844.002m2.988.01a.93.93 0 0 0-.486.537c-.304.797.48 1.582 1.278 1.278a.94.94 0 0 0 .597-.664c.169-.652-.272-1.236-.933-1.235-.164 0-.368.038-.456.084m2.9.068a.956.956 0 0 0-.16 1.507c.401.401.966.413 1.364.03.396-.381.445-.882.13-1.325-.273-.383-.905-.483-1.334-.212m-5.887 2.923c-.247.131-.353.24-.459.471-.198.431-.071.948.303 1.233.179.137.245.154.583.154.336 0 .405-.018.578-.15.489-.373.544-1.154.108-1.537-.297-.26-.798-.337-1.113-.171m2.969.023c-.656.333-.717 1.283-.108 1.686.243.161.641.217.91.128.554-.183.82-.982.494-1.482-.266-.408-.852-.558-1.296-.332m3.058-.039c-.334.156-.61.569-.612.917-.002.246.236.672.461.824.161.109.261.133.551.133s.39-.024.551-.133c.225-.153.462-.577.462-.827 0-.248-.237-.674-.457-.824-.234-.158-.713-.203-.956-.09"/></svg>