<svg width="32" height="32" viewBox="0 0 32 32" fill="none" xmlns="http://www.w3.org/2000/svg"><path d="M10.213 2.076 C 9.389 2.113,9.158 2.202,8.693 2.667 C 8.326 3.034,8.129 3.398,8.057 3.842 C 8.023 4.052,8.001 5.333,8.000 7.133 L 8.000 10.080 7.853 10.080 C 7.611 10.081,6.700 10.422,6.283 10.667 C 5.796 10.955,5.009 11.729,4.668 12.258 C 3.842 13.539,3.282 15.448,3.095 17.627 C 2.642 22.903,3.756 27.297,5.988 29.045 C 6.827 29.701,7.645 29.977,8.747 29.977 C 9.706 29.976,10.531 29.687,11.049 29.169 C 11.471 28.748,11.840 27.848,11.840 27.242 L 11.840 26.987 18.760 26.986 C 22.566 26.985,25.950 26.963,26.279 26.935 C 26.958 26.879,27.192 26.796,27.712 26.425 C 28.268 26.028,28.745 25.359,28.913 24.741 C 28.998 24.429,29.044 16.662,28.966 15.810 C 28.933 15.448,28.868 15.107,28.799 14.930 C 28.549 14.297,27.954 13.660,27.305 13.333 C 26.971 13.164,26.446 13.013,26.192 13.013 L 26.027 13.013 26.023 10.093 C 26.022 8.487,26.002 7.060,25.979 6.922 C 25.956 6.784,25.868 6.569,25.782 6.443 C 25.598 6.174,21.751 2.300,21.522 2.154 C 21.371 2.057,21.164 2.053,16.136 2.049 C 13.260 2.046,10.595 2.058,10.213 2.076 M19.050 6.147 L 19.067 8.293 19.193 8.497 C 19.263 8.609,19.417 8.765,19.536 8.844 L 19.752 8.987 21.876 9.003 L 24.000 9.019 24.000 11.016 L 24.000 13.013 17.927 13.013 L 11.855 13.013 11.818 12.611 C 11.769 12.063,11.614 11.593,11.356 11.207 C 11.101 10.825,10.871 10.632,10.355 10.370 L 9.973 10.176 9.977 7.368 C 9.979 5.824,9.997 4.452,10.017 4.320 L 10.053 4.080 10.320 4.048 C 10.467 4.031,12.487 4.013,14.810 4.008 L 19.033 4.000 19.050 6.147 M23.442 6.984 C 23.419 7.020,22.989 7.040,22.210 7.040 L 21.013 7.040 21.013 5.742 L 21.013 4.444 22.245 5.686 C 22.922 6.369,23.461 6.953,23.442 6.984 M9.429 12.116 C 9.774 12.221,9.787 12.283,9.787 13.891 C 9.787 14.684,9.768 15.399,9.746 15.479 C 9.675 15.733,9.499 15.799,8.780 15.842 C 7.925 15.893,7.737 15.990,7.468 16.528 C 7.207 17.046,7.085 17.715,7.048 18.827 C 7.001 20.230,7.060 22.171,7.163 22.613 C 7.278 23.110,7.454 23.550,7.610 23.736 C 7.842 24.011,8.020 24.070,8.738 24.110 C 9.479 24.151,9.631 24.216,9.744 24.538 C 9.786 24.660,9.808 25.181,9.810 26.124 L 9.813 27.528 9.662 27.680 C 9.450 27.892,9.133 27.964,8.560 27.932 C 8.011 27.901,7.795 27.823,7.321 27.485 C 6.320 26.774,5.589 25.147,5.191 22.747 C 5.107 22.241,5.093 21.834,5.093 19.787 C 5.093 17.425,5.094 17.409,5.242 16.575 C 5.515 15.038,5.877 14.020,6.425 13.253 C 6.886 12.606,7.597 12.129,8.210 12.054 C 8.566 12.011,9.186 12.042,9.429 12.116 M26.317 15.075 C 26.403 15.094,26.577 15.216,26.703 15.346 L 26.933 15.583 26.933 19.983 C 26.933 24.987,26.979 24.516,26.463 24.847 L 26.204 25.013 19.022 25.013 L 11.840 25.013 11.840 24.758 C 11.840 24.116,11.540 23.433,11.039 22.933 C 10.619 22.514,10.148 22.268,9.593 22.178 C 9.376 22.143,9.170 22.078,9.133 22.034 C 9.083 21.972,9.067 21.499,9.067 20.076 C 9.067 19.044,9.081 18.130,9.098 18.045 C 9.127 17.898,9.154 17.884,9.564 17.799 C 10.696 17.566,11.483 16.835,11.758 15.762 C 11.803 15.587,11.840 15.338,11.840 15.207 L 11.840 14.970 19.000 15.005 C 22.938 15.024,26.230 15.056,26.317 15.075 M17.666 18.072 C 17.319 18.172,17.012 18.594,17.015 18.968 C 17.019 19.797,18.001 20.294,18.597 19.770 C 19.064 19.360,19.105 18.663,18.684 18.282 C 18.447 18.068,18.001 17.976,17.666 18.072 M20.613 18.106 C 20.263 18.230,19.999 18.633,20.001 19.040 C 20.003 19.245,20.180 19.589,20.364 19.744 C 21.012 20.289,21.968 19.848,21.972 19.003 C 21.976 18.294,21.316 17.859,20.613 18.106 M23.598 18.124 C 23.333 18.248,23.116 18.497,23.034 18.773 C 22.854 19.374,23.476 20.070,24.117 19.984 C 24.432 19.942,24.723 19.713,24.886 19.379 C 25.041 19.062,25.039 18.875,24.875 18.531 C 24.675 18.109,24.054 17.911,23.598 18.124 M17.548 21.133 C 17.268 21.276,17.146 21.434,17.059 21.766 C 16.924 22.284,17.274 22.876,17.760 22.954 C 18.154 23.017,18.444 22.943,18.662 22.725 C 19.215 22.172,19.028 21.322,18.299 21.075 C 18.027 20.983,17.809 21.000,17.548 21.133 M20.611 21.114 C 20.169 21.314,19.928 21.787,20.045 22.223 C 20.133 22.553,20.249 22.696,20.557 22.853 C 21.104 23.130,21.626 22.961,21.873 22.427 C 22.135 21.859,21.865 21.228,21.292 21.069 C 21.012 20.991,20.858 21.001,20.611 21.114 M23.693 21.059 C 23.357 21.155,22.991 21.638,22.988 21.987 C 22.986 22.187,23.171 22.565,23.356 22.743 C 23.661 23.035,24.294 23.046,24.614 22.766 C 24.810 22.593,25.013 22.204,25.013 22.000 C 25.013 21.802,24.810 21.405,24.632 21.255 C 24.389 21.050,24.003 20.969,23.693 21.059 " fill="#1A1C1F" stroke="none" fill-rule="evenodd"></path></svg>