<svg width="24" height="24" viewBox="0 0 24 24" fill="none" xmlns="http://www.w3.org/2000/svg"><path d="M7.760 2.038 C 7.356 2.059,7.267 2.078,7.030 2.189 C 6.517 2.430,6.139 2.906,6.040 3.435 C 6.018 3.554,6.000 4.211,6.000 4.896 L 6.000 6.142 5.703 6.234 C 5.067 6.431,4.491 6.787,3.978 7.299 C 2.963 8.312,2.337 9.903,2.074 12.140 C 2.012 12.671,2.011 15.214,2.074 15.740 C 2.190 16.717,2.378 17.580,2.639 18.333 C 3.327 20.321,4.651 21.580,6.411 21.924 C 7.823 22.199,9.174 21.643,9.719 20.562 C 9.780 20.440,9.854 20.264,9.881 20.172 L 9.931 20.004 14.716 19.990 C 20.112 19.973,19.700 19.998,20.375 19.651 C 20.668 19.501,20.813 19.392,21.105 19.100 C 21.427 18.780,21.495 18.687,21.672 18.318 C 21.783 18.088,21.898 17.792,21.927 17.660 C 22.004 17.311,22.004 11.688,21.927 11.340 C 21.847 10.977,21.558 10.418,21.285 10.095 C 20.999 9.757,20.595 9.442,20.254 9.293 L 20.007 9.185 19.993 7.443 C 19.980 5.864,19.972 5.688,19.908 5.569 C 19.774 5.321,17.170 2.669,16.615 2.214 C 16.441 2.071,16.418 2.064,16.027 2.035 C 15.550 1.999,8.436 2.002,7.760 2.038 M15.011 5.110 C 15.022 5.763,15.049 6.280,15.076 6.365 C 15.102 6.450,15.208 6.591,15.333 6.710 C 15.619 6.981,15.729 7.000,16.982 7.000 L 18.000 7.000 18.000 8.000 L 18.000 9.000 14.000 9.000 L 10.000 9.000 9.999 8.690 C 9.994 7.760,9.641 7.013,8.994 6.570 C 8.751 6.403,8.294 6.176,8.130 6.141 L 8.000 6.114 8.000 5.057 L 8.000 4.000 11.495 4.000 L 14.991 4.000 15.011 5.110 M7.720 8.116 C 7.976 8.243,8.000 8.346,8.000 9.340 C 8.000 10.192,7.968 10.486,7.870 10.546 C 7.844 10.562,7.617 10.589,7.366 10.606 C 6.966 10.633,6.890 10.650,6.758 10.741 C 6.201 11.127,5.954 12.371,6.014 14.480 C 6.050 15.731,6.134 16.256,6.385 16.789 C 6.598 17.238,6.771 17.335,7.472 17.394 C 7.699 17.413,7.906 17.450,7.932 17.476 C 7.967 17.511,7.980 17.816,7.979 18.588 L 7.978 19.651 7.826 19.782 C 7.299 20.238,6.023 19.920,5.364 19.169 C 4.379 18.046,3.879 15.752,4.038 13.080 C 4.150 11.187,4.443 10.031,5.028 9.176 C 5.421 8.600,6.018 8.185,6.632 8.060 C 6.968 7.991,7.524 8.020,7.720 8.116 M19.409 11.111 C 19.619 11.204,19.853 11.457,19.922 11.665 C 19.997 11.892,20.003 17.104,19.928 17.351 C 19.862 17.570,19.589 17.856,19.380 17.924 C 19.253 17.966,18.277 17.979,14.610 17.990 L 10.000 18.003 10.000 17.728 C 10.000 17.388,9.880 16.900,9.717 16.576 C 9.488 16.121,8.926 15.662,8.375 15.478 C 8.233 15.431,8.102 15.360,8.080 15.319 C 8.017 15.203,8.027 12.712,8.090 12.632 C 8.117 12.597,8.260 12.530,8.408 12.482 C 8.963 12.302,9.481 11.845,9.748 11.300 L 9.900 10.989 14.569 11.012 C 19.041 11.034,19.245 11.038,19.409 11.111 M14.675 12.061 C 14.472 12.125,14.205 12.358,14.094 12.568 C 14.045 12.660,14.024 12.791,14.024 13.000 C 14.024 13.348,14.081 13.483,14.327 13.722 C 14.698 14.083,15.317 14.077,15.684 13.709 C 16.161 13.232,16.065 12.461,15.490 12.150 C 15.247 12.019,14.921 11.983,14.675 12.061 M17.675 12.061 C 17.472 12.125,17.205 12.358,17.094 12.568 C 17.045 12.660,17.024 12.791,17.024 13.000 C 17.024 13.348,17.081 13.483,17.327 13.722 C 17.698 14.083,18.317 14.077,18.684 13.709 C 19.161 13.232,19.065 12.461,18.490 12.150 C 18.247 12.019,17.921 11.983,17.675 12.061 M14.675 15.061 C 14.472 15.125,14.205 15.358,14.094 15.568 C 14.045 15.660,14.024 15.791,14.024 16.000 C 14.024 16.348,14.081 16.483,14.327 16.722 C 14.698 17.083,15.317 17.077,15.684 16.709 C 16.161 16.232,16.065 15.461,15.490 15.150 C 15.247 15.019,14.921 14.983,14.675 15.061 M17.675 15.061 C 17.472 15.125,17.205 15.358,17.094 15.568 C 17.045 15.660,17.024 15.791,17.024 16.000 C 17.024 16.348,17.081 16.483,17.327 16.722 C 17.698 17.083,18.317 17.077,18.684 16.709 C 19.161 16.232,19.065 15.461,18.490 15.150 C 18.247 15.019,17.921 14.983,17.675 15.061 " fill="#1A1C1F" stroke="none" fill-rule="evenodd"></path></svg>