<svg width="16" height="16" viewBox="0 0 16 16" fill="none" xmlns="http://www.w3.org/2000/svg"><path d="M5.533 1.624 C 5.159 1.640,5.054 1.653,4.932 1.701 C 4.509 1.868,4.201 2.178,4.072 2.567 C 4.021 2.721,4.016 2.809,4.006 3.763 L 3.995 4.792 3.739 4.824 C 3.204 4.889,2.752 5.100,2.373 5.459 C 2.026 5.788,1.853 6.068,1.677 6.585 L 1.600 6.810 1.600 9.600 L 1.600 12.390 1.677 12.615 C 1.844 13.106,1.986 13.349,2.290 13.663 C 2.625 14.008,2.959 14.202,3.427 14.323 C 3.785 14.415,4.293 14.409,4.627 14.309 C 4.759 14.269,4.942 14.200,5.034 14.157 C 5.211 14.072,5.562 13.819,5.692 13.682 L 5.770 13.600 9.332 13.600 C 11.291 13.599,13.028 13.588,13.193 13.574 C 13.382 13.559,13.534 13.531,13.606 13.499 C 13.902 13.367,14.172 13.049,14.312 12.667 L 14.386 12.467 14.394 10.019 L 14.402 7.572 14.335 7.387 C 14.194 6.995,14.038 6.776,13.780 6.607 C 13.577 6.474,13.411 6.426,13.087 6.408 L 12.800 6.392 12.800 5.095 L 12.800 3.799 12.701 3.626 C 12.624 3.494,12.405 3.257,11.761 2.611 C 11.286 2.134,10.868 1.738,10.800 1.699 L 10.680 1.630 8.333 1.618 C 7.043 1.611,5.783 1.614,5.533 1.624 M9.607 3.687 C 9.615 3.954,9.636 4.221,9.653 4.278 C 9.695 4.417,9.966 4.700,10.100 4.745 C 10.160 4.765,10.402 4.785,10.700 4.793 L 11.200 4.806 11.200 5.603 L 11.200 6.400 8.725 6.400 L 6.250 6.400 6.187 6.248 C 6.106 6.054,5.850 5.671,5.709 5.535 L 5.600 5.429 5.600 4.315 L 5.600 3.200 7.597 3.200 L 9.593 3.200 9.607 3.687 M4.333 6.492 C 4.489 6.563,4.578 6.641,4.684 6.801 L 4.760 6.916 4.767 9.567 L 4.774 12.217 4.689 12.377 C 4.589 12.566,4.457 12.677,4.247 12.751 C 3.873 12.884,3.483 12.716,3.288 12.339 L 3.216 12.200 3.215 9.613 C 3.214 7.429,3.219 7.012,3.251 6.933 C 3.435 6.484,3.899 6.295,4.333 6.492 M12.800 10.000 L 12.800 12.000 9.600 12.000 L 6.400 12.000 6.400 10.000 L 6.400 8.000 9.600 8.000 L 12.800 8.000 12.800 10.000 M8.227 9.224 C 7.992 9.285,7.766 9.470,7.670 9.678 C 7.589 9.855,7.591 10.156,7.675 10.325 C 7.754 10.485,7.915 10.646,8.075 10.725 C 8.247 10.810,8.520 10.810,8.707 10.725 C 8.990 10.596,9.200 10.294,9.200 10.015 C 9.200 9.722,8.989 9.398,8.724 9.284 C 8.575 9.220,8.346 9.192,8.227 9.224 M10.627 9.224 C 10.392 9.285,10.166 9.470,10.070 9.678 C 9.989 9.855,9.991 10.156,10.075 10.325 C 10.154 10.485,10.315 10.646,10.475 10.725 C 10.647 10.810,10.920 10.810,11.107 10.725 C 11.390 10.596,11.600 10.294,11.600 10.015 C 11.600 9.722,11.389 9.398,11.124 9.284 C 10.975 9.220,10.746 9.192,10.627 9.224 " fill="#1A1C1F" stroke="none" fill-rule="evenodd"></path></svg>