<svg xmlns="http://www.w3.org/2000/svg" width="32" height="32" fill="none"><g clip-path="url(#a)"><path fill="#1A1C1F" fill-rule="evenodd" d="M21.024 2c.288 0 .528.111.706.289l3.982 4.014a1 1 0 0 1 .288.706v5.992a3.01 3.01 0 0 1 3 3.002v7.995A3.01 3.01 0 0 1 25.997 27H11.83v.282c0 .274-.088 2.718-3.15 2.718C5.171 30 3 26.129 3 19.958c0-7.796 2.876-9.619 5-9.907V4.248C8 2.995 8.996 2 10.25 2zM8.678 12c-2.653 0-3.686 3.428-3.686 7.958 0 3.991 1.127 8.005 3.686 8.005.61 0 1.15-.094 1.15-.681v-2.535c0-.352-.305-.634-.68-.634h-.823c-.962 0-1.338-1.221-1.338-4.132 0-2.558.352-4.131 1.338-4.131h.822c.376 0 .681-.282.681-.634v-2.535c0-.54-.446-.681-1.15-.681m17.319 3h-14.17v.216c0 1.452-1.202 2.634-2.68 2.634h-.02c-.07.38-.14 1.034-.14 2.131s.057 1.75.118 2.132h.041c1.479 0 2.682 1.182 2.682 2.634V25h14.17c.544 0 1.003-.459 1-1.003v-7.995c0-.543-.458-1.002-1.001-1.002m-7.986 6c.541 0 .988.442.988 1s-.447 1-.988 1h-.023a.993.993 0 0 1-.988-1c0-.558.447-1 .988-1zm6 0c.541 0 .988.442.988 1s-.447 1-.988 1h-.023a.993.993 0 0 1-.988-1c0-.558.447-1 .988-1zm-3 0c.541 0 .988.442.988 1s-.447 1-.988 1h-.023a.993.993 0 0 1-.988-1c0-.558.447-1 .988-1zm-3-3c.541 0 .988.442.988 1s-.447 1-.988 1h-.023a.993.993 0 0 1-.988-1c0-.558.447-1 .988-1zm6 0c.541 0 .988.442.988 1s-.447 1-.988 1h-.023a.993.993 0 0 1-.988-1c0-.558.447-1 .988-1zm-3 0c.541 0 .988.442.988 1s-.447 1-.988 1h-.023a.993.993 0 0 1-.988-1c0-.558.447-1 .988-1zM19.057 4H10.24a.253.253 0 0 0-.257.257v5.931c1.78.568 1.847 2.265 1.847 2.493V13H24V9.009h-3.948a1 1 0 0 1-.995-.995zM21 4.409V7.01h2.57z" clip-rule="evenodd"/></g><defs><clipPath id="a"><path fill="#fff" d="M0 0h32v32H0z"/></clipPath></defs></svg>