<svg xmlns="http://www.w3.org/2000/svg" width="20" height="20" fill="none"><g clip-path="url(#a)"><path fill="#1A1C1F" fill-rule="evenodd" d="M13.093 2c.25 0 .5.156.625.25l2.031 2.062.073.099c.112.172.177.381.177.589v3h.407c1 0 1.594.875 1.594 1.844v5.344c0 .937-.625 1.812-1.594 1.812H7.22c-.55.609-1.337 1-2.22 1-1.654 0-3-1.346-3-3V9c0-1.654 1.346-3 3-3V3.781C5 2.75 5.812 2 6.812 2zM4.999 8a1 1 0 0 0-1 1v6a1 1 0 0 0 2 0V9a1 1 0 0 0-1-1m11 2h-8v5h8zm-2.5 1.5a1 1 0 1 1 0 2 1 1 0 0 1 0-2m-3 0a1 1 0 1 1 0 2 1 1 0 0 1 0-2m1.5-7.5h-5v2.78c.367.331.647.746.816 1.22h6.184V6h-1.031c-.531 0-.969-.5-.969-1z" clip-rule="evenodd"/></g><defs><clipPath id="a"><path fill="#fff" d="M0 0h20v20H0z"/></clipPath></defs></svg>