<svg xmlns="http://www.w3.org/2000/svg" width="14" height="14" fill="none"><g clip-path="url(#a)"><path fill="#1A1C1F" fill-rule="evenodd" d="M9.165 1.4c.175 0 .35.11.438.175l1.421 1.443.051.07c.079.12.124.266.124.412v2.1h.285c.7 0 1.116.613 1.116 1.29v3.742c0 .656-.437 1.268-1.116 1.268h-6.43a2.1 2.1 0 0 1-1.554.7c-1.158 0-2.1-.942-2.1-2.1V6.3c0-1.158.942-2.1 2.1-2.1V2.647c0-.722.568-1.247 1.268-1.247zM3.5 5.6a.7.7 0 0 0-.7.7v4.2a.7.7 0 0 0 1.4 0V6.3a.7.7 0 0 0-.7-.7M11.2 7H5.6v3.5h5.6zM9.45 8.05a.7.7 0 1 1 0 1.4.7.7 0 0 1 0-1.4m-2.1 0a.7.7 0 1 1 0 1.4.7.7 0 0 1 0-1.4M8.4 2.8H4.9v1.946c.257.232.453.522.572.854h4.328V4.2h-.721c-.372 0-.679-.35-.679-.7z" clip-rule="evenodd"/></g><defs><clipPath id="a"><path fill="#fff" d="M0 0h14v14H0z"/></clipPath></defs></svg>