<svg xmlns="http://www.w3.org/2000/svg" width="24" height="24" fill="none"><g clip-path="url(#a)"><path fill="#1A1C1F" fill-rule="evenodd" d="M16.093 2c.25 0 .5.156.625.25l3.03 3.062c.156.188.25.438.25.688L20 9.183c1.163.414 2 1.513 2 2.817v4.999A3 3 0 0 1 19 20H9.935c-.267 1.171-1.357 2-2.747 2C5.97 22 2 21.421 2 13.969c0-5.645 2.154-7.38 4-7.83V3.781C6 2.75 6.812 2 7.812 2zM7.187 7.999c-2.438 0-3.188 2.75-3.188 5.969 0 3.593 1.063 6.031 3.188 6.031.437 0 .812-.187.812-.562v-1.75c0-.187-.093-.312-.312-.312h-.47c-.874 0-1.218-1-1.218-3.406 0-2.25.344-3.375 1.219-3.375h.5c.187 0 .28-.157.28-.314V8.499c0-.375-.405-.5-.811-.5m11.81 3.003H9.883a2.25 2.25 0 0 1-1.812 1.567c-.038.292-.072.737-.072 1.401 0 .681.03 1.136.067 1.435 1.125.171 1.933 1.096 1.933 2.284v.312h8.998c.552 0 1.002-.449 1.002-.999v-4.999c0-.552-.45-1.001-1.001-1.001M15.011 15c.54 0 .988.442.988 1s-.447 1-.989 1h-.022a.993.993 0 0 1-.989-1c0-.558.447-1 .989-1zm3 0c.54 0 .988.442.988 1s-.447 1-.988 1h-.023A.993.993 0 0 1 17 16c0-.558.447-1 .988-1zm-3-3c.54 0 .988.442.988 1s-.447 1-.989 1h-.022a.993.993 0 0 1-.989-1c0-.558.447-1 .989-1zm3 0c.54 0 .988.442.988 1s-.447 1-.988 1h-.023A.993.993 0 0 1 17 13c0-.558.447-1 .988-1zm-3.012-8h-7v2.102c1.31.311 2 1.355 2 2.398V9h8V7h-2.031c-.531 0-.97-.5-.97-1z" clip-rule="evenodd"/></g><defs><clipPath id="a"><path fill="#fff" d="M0 0h24v24H0z"/></clipPath></defs></svg>