<svg width="32" height="32" viewBox="0 0 32 32" fill="none" xmlns="http://www.w3.org/2000/svg"><path d="M11.090 2.077 L 10.154 2.107 9.757 2.304 C 8.878 2.742,8.266 3.474,8.094 4.293 C 8.041 4.545,8.027 7.063,8.027 16.080 C 8.027 27.146,8.030 27.557,8.127 27.840 C 8.465 28.835,9.182 29.557,10.143 29.872 L 10.533 30.000 16.000 30.000 L 21.467 30.000 21.857 29.872 C 22.335 29.715,22.802 29.421,23.157 29.051 C 23.471 28.724,23.648 28.438,23.834 27.953 L 23.970 27.600 23.987 17.200 C 23.996 11.480,23.983 6.224,23.958 5.520 C 23.917 4.398,23.897 4.203,23.795 3.941 C 23.523 3.244,22.996 2.675,22.304 2.333 L 21.848 2.107 20.831 2.072 C 19.631 2.030,12.442 2.034,11.090 2.077 M12.021 4.172 C 12.071 4.422,12.282 4.714,12.516 4.860 L 12.720 4.987 16.004 4.987 L 19.288 4.987 19.504 4.844 C 19.746 4.684,19.929 4.421,19.981 4.161 L 20.016 3.987 20.635 4.012 C 21.380 4.041,21.587 4.115,21.796 4.432 L 21.947 4.659 21.947 16.000 L 21.947 27.341 21.800 27.562 C 21.506 28.006,21.974 27.973,16.000 27.973 C 10.026 27.973,10.494 28.006,10.200 27.562 L 10.053 27.341 10.053 16.004 L 10.053 4.667 10.174 4.473 C 10.240 4.366,10.332 4.248,10.377 4.210 C 10.525 4.087,10.950 4.007,11.473 4.004 L 11.987 4.000 12.021 4.172 M13.797 24.050 C 13.295 24.151,12.940 24.685,13.035 25.194 C 13.089 25.479,13.283 25.721,13.573 25.867 C 13.839 26.000,13.846 26.000,15.587 26.017 C 17.423 26.035,18.323 25.983,18.534 25.844 C 18.603 25.799,18.727 25.674,18.810 25.565 C 18.938 25.397,18.959 25.321,18.956 25.044 C 18.950 24.604,18.823 24.354,18.513 24.172 L 18.267 24.027 16.133 24.018 C 14.960 24.013,13.908 24.027,13.797 24.050 " fill="#1A1C1F" stroke="none" fill-rule="evenodd"></path></svg>