<svg width="24" height="24" viewBox="0 0 24 24" fill="none" xmlns="http://www.w3.org/2000/svg"><path d="M8.800 2.040 C 8.151 2.082,7.776 2.214,7.260 2.580 C 6.664 3.003,6.194 3.708,6.068 4.370 C 6.032 4.558,6.020 6.462,6.020 12.080 L 6.020 19.540 6.114 19.839 C 6.431 20.849,7.101 21.526,8.120 21.866 L 8.460 21.980 12.000 21.980 L 15.540 21.980 15.919 21.848 C 16.560 21.624,17.021 21.306,17.380 20.841 C 17.600 20.555,17.868 20.002,17.929 19.708 C 17.989 19.419,18.021 5.791,17.963 4.889 C 17.927 4.315,17.908 4.203,17.802 3.939 C 17.506 3.200,16.939 2.603,16.224 2.279 C 15.657 2.022,15.766 2.029,12.360 2.019 C 10.655 2.014,9.053 2.023,8.800 2.040 M10.020 4.161 C 10.056 4.370,10.258 4.668,10.461 4.810 C 10.700 4.977,11.012 5.010,12.215 4.994 C 13.215 4.981,13.268 4.976,13.450 4.886 C 13.726 4.751,13.909 4.518,13.969 4.227 L 14.018 3.989 14.672 4.010 L 15.325 4.032 15.538 4.174 C 15.704 4.283,15.778 4.368,15.866 4.548 L 15.980 4.780 15.980 12.000 L 15.980 19.220 15.869 19.446 C 15.759 19.671,15.620 19.806,15.368 19.936 C 15.246 19.999,14.982 20.003,11.988 19.992 L 8.740 19.980 8.549 19.886 C 8.337 19.782,8.112 19.519,8.036 19.288 C 7.999 19.175,7.993 17.498,8.010 11.911 L 8.032 4.681 8.137 4.502 C 8.263 4.287,8.443 4.143,8.660 4.084 C 8.885 4.023,8.997 4.013,9.526 4.006 L 9.993 4.000 10.020 4.161 M10.897 16.034 C 10.507 16.076,10.198 16.329,10.061 16.718 C 9.906 17.157,10.078 17.587,10.519 17.863 L 10.737 18.000 12.000 18.000 L 13.263 18.000 13.485 17.861 C 13.608 17.784,13.755 17.653,13.813 17.571 C 14.153 17.079,13.982 16.394,13.456 16.136 L 13.231 16.026 12.185 16.017 C 11.610 16.011,11.031 16.019,10.897 16.034 " fill="#1A1C1F" stroke="none" fill-rule="evenodd"></path></svg>