<svg xmlns="http://www.w3.org/2000/svg" width="24" height="24" fill="none"><g clip-path="url(#a)"><path fill="#1A1C1F" fill-rule="evenodd" d="M14.994 2A2.997 2.997 0 0 1 18 5.006v14.043C18 20.693 16.661 22 14.994 22H9.006C7.339 22 6 20.693 6 19.049V5.006A2.997 2.997 0 0 1 9.006 2zM9.996 4h-.988c-.565 0-1.012.446-1.012 1.009v14.03c0 .539.47.961 1.012.961h6a.993.993 0 0 0 .988-.985V4.985A.986.986 0 0 0 15.008 4h-1.012c0 .666-.476.985-.988.985h-2c-.541 0-1.012-.445-1.012-.985M10 17.017c0-.52.433-1.02.992-1.017l1.998.008c.583.002 1.01.432 1.01.998 0 .5-.389.998-1.01.998h-1.998c-.556 0-.992-.47-.992-.987" clip-rule="evenodd"/></g><defs><clipPath id="a"><path fill="#fff" d="M0 0h24v24H0z"/></clipPath></defs></svg>