<svg width="28" height="28" viewBox="0 0 28 28" fill="none" xmlns="http://www.w3.org/2000/svg"><path d="M9.427 1.818 C 8.898 1.844,8.815 1.861,8.540 1.995 C 7.865 2.324,7.413 2.833,7.123 3.591 L 7.024 3.850 7.010 11.805 L 6.997 19.759 5.341 21.426 C 3.655 23.123,3.503 23.305,3.501 23.634 C 3.498 23.981,3.873 24.414,4.233 24.482 C 4.597 24.550,4.662 24.500,6.312 22.880 C 8.809 20.429,19.637 9.610,22.121 7.086 C 24.046 5.129,24.410 4.738,24.459 4.573 C 24.647 3.945,23.930 3.308,23.320 3.563 C 23.237 3.597,22.684 4.101,22.090 4.683 L 21.011 5.740 20.989 4.795 C 20.970 3.929,20.958 3.824,20.851 3.538 C 20.604 2.880,20.110 2.335,19.477 2.022 C 19.133 1.852,19.090 1.843,18.507 1.813 C 17.751 1.774,10.226 1.778,9.427 1.818 M10.519 3.651 C 10.562 3.869,10.747 4.125,10.952 4.253 L 11.130 4.363 14.003 4.363 L 16.877 4.363 17.066 4.238 C 17.278 4.098,17.438 3.869,17.484 3.641 L 17.514 3.489 18.055 3.510 C 18.708 3.536,18.889 3.601,19.072 3.878 L 19.203 4.076 19.217 5.806 L 19.231 7.537 14.001 12.763 L 8.770 17.990 8.784 11.037 L 8.797 4.083 8.902 3.914 C 8.960 3.820,9.040 3.717,9.080 3.684 C 9.209 3.577,9.582 3.506,10.039 3.503 L 10.488 3.500 10.519 3.651 M20.080 11.632 L 19.230 12.483 19.217 18.203 L 19.203 23.924 19.075 24.117 C 18.818 24.506,19.227 24.477,13.997 24.477 L 9.350 24.477 9.156 24.349 C 8.884 24.168,8.810 23.997,8.783 23.485 C 8.769 23.210,8.742 23.053,8.708 23.053 C 8.679 23.053,8.322 23.388,7.914 23.796 L 7.172 24.539 7.303 24.807 C 7.501 25.212,8.003 25.713,8.438 25.939 C 9.049 26.257,8.917 26.250,14.117 26.250 L 18.783 26.250 19.125 26.138 C 19.543 26.001,19.952 25.743,20.262 25.420 C 20.536 25.135,20.690 24.885,20.856 24.459 L 20.977 24.150 20.990 17.465 C 20.998 13.788,20.987 10.780,20.966 10.780 C 20.946 10.780,20.547 11.163,20.080 11.632 M12.072 21.044 C 11.633 21.132,11.322 21.599,11.406 22.045 C 11.453 22.294,11.623 22.506,11.877 22.633 C 12.109 22.750,12.116 22.750,13.634 22.765 C 15.236 22.782,16.032 22.735,16.217 22.614 C 16.278 22.574,16.386 22.464,16.459 22.370 C 16.571 22.222,16.589 22.156,16.586 21.914 C 16.582 21.529,16.470 21.310,16.199 21.150 L 15.983 21.023 14.117 21.016 C 13.090 21.011,12.170 21.024,12.072 21.044 " fill="#1A1C1F" stroke="none" fill-rule="evenodd"></path></svg>