<svg xmlns="http://www.w3.org/2000/svg" width="32" height="32" fill="none"><path fill="#1A1C1F" fill-rule="evenodd" d="M10.193 2.111c-.46.124-.913.393-1.29.768-.427.425-.658.819-.797 1.364-.104.405-.106.611-.106 9.379v8.965L6.101 24.48c-1.247 1.243-1.933 1.967-1.999 2.107-.234.5-.012 1.071.511 1.312.25.116.388.123.687.039.193-.054 1.589-1.429 11.354-11.186C24.708 8.705 27.82 5.563 27.901 5.397a.98.98 0 0 0-.076-.963c-.251-.379-.835-.545-1.228-.349-.094.047-.716.629-1.384 1.293L24 6.586l-.001-.96c-.001-1.11-.061-1.45-.36-2.021-.387-.74-1.191-1.359-1.975-1.52-.194-.04-1.992-.057-5.733-.055-4.584.003-5.497.016-5.738.081m1.847 2.123c.08.297.296.554.571.679.202.092.424.098 3.389.098s3.187-.006 3.389-.098c.275-.125.491-.382.571-.679L20.022 4h.577c.786 0 1.054.115 1.273.545.094.183.101.339.101 2.133v1.936L16 14.587l-5.973 5.973v-7.909c0-7.655.003-7.915.101-8.106.219-.431.473-.54 1.261-.543L11.978 4zm10.933 9.033-1 1.001v6.495c0 6.268-.003 6.501-.101 6.692a.85.85 0 0 1-.499.463c-.172.072-.835.082-5.373.082s-5.201-.01-5.373-.082c-.45-.188-.6-.474-.6-1.143 0-.265-.019-.482-.041-.482s-.432.393-.911.872l-.87.871.084.202c.243.581.83 1.178 1.44 1.464.656.308.451.298 6.324.298 5.104 0 5.432-.006 5.734-.098 1.078-.33 1.888-1.182 2.134-2.245.069-.295.078-1.366.066-7.867l-.014-7.524zm-9.417 10.847a.98.98 0 0 0-.53.788c-.034.35.059.601.305.823.321.29.516.31 2.838.291 2.302-.018 2.295-.017 2.628-.434.145-.183.163-.244.163-.564 0-.448-.163-.732-.52-.905-.227-.11-.301-.113-2.444-.113-2.151 0-2.215.003-2.44.114"/></svg>