<svg xmlns="http://www.w3.org/2000/svg" width="28" height="28" fill="none"><g clip-path="url(#a)"><path fill="#1A1C1F" fill-rule="evenodd" d="M21 10.715v12.91a2.625 2.625 0 0 1-2.625 2.625h-8.75a2.61 2.61 0 0 1-2.441-1.712l1.566-1.575v.662c0 .483.392.875.875.875h8.75a.875.875 0 0 0 .875-.875v-11.16zM18.364 1.75A2.634 2.634 0 0 1 21 4.375v1.388l1.996-2.007a.875.875 0 1 1 1.237 1.238l-19.25 19.25a.875.875 0 0 1-1.237-1.238L7 19.763V4.375A2.616 2.616 0 0 1 9.614 1.75zM15.75 21a.875.875 0 0 1 0 1.75h-3.5a.875.875 0 0 1 0-1.75zM10.5 3.5h-.875a.875.875 0 0 0-.875.875v13.638l10.5-10.5V4.375a.875.875 0 0 0-.875-.875H17.5a.875.875 0 0 1-.875.875h-5.25A.875.875 0 0 1 10.5 3.5" clip-rule="evenodd"/></g><defs><clipPath id="a"><path fill="#fff" d="M0 0h28v28H0z"/></clipPath></defs></svg>