<svg width="20" height="20" viewBox="0 0 20 20" fill="none" xmlns="http://www.w3.org/2000/svg"><path d="M6.533 2.063 C 6.197 2.084,6.123 2.100,5.925 2.195 C 5.434 2.432,5.080 2.925,5.030 3.443 C 5.016 3.593,5.003 5.934,5.002 8.645 L 5.000 13.574 4.295 14.295 C 3.303 15.309,3.111 15.534,3.046 15.758 C 2.841 16.463,3.590 17.175,4.309 16.960 C 4.498 16.903,5.962 15.467,11.935 9.478 C 15.177 6.227,16.875 4.502,16.917 4.415 C 17.019 4.205,17.006 3.797,16.888 3.557 C 16.789 3.355,16.644 3.209,16.424 3.092 C 16.311 3.032,16.231 3.018,16.017 3.019 C 15.701 3.020,15.623 3.054,15.273 3.341 C 15.139 3.451,15.025 3.535,15.020 3.529 C 15.014 3.522,14.985 3.414,14.954 3.288 C 14.851 2.870,14.646 2.556,14.336 2.338 C 13.912 2.040,14.286 2.067,10.377 2.052 C 8.474 2.045,6.744 2.050,6.533 2.063 M8.000 4.533 L 8.000 5.033 10.000 5.033 L 12.000 5.033 12.000 4.533 L 12.000 4.033 12.500 4.033 L 13.000 4.033 13.000 4.808 L 13.000 5.583 10.000 8.583 L 7.000 11.583 7.000 7.808 L 7.000 4.033 7.500 4.033 L 8.000 4.033 8.000 4.533 M13.975 10.275 L 13.000 11.250 13.000 13.642 L 13.000 16.033 10.608 16.033 L 8.216 16.033 7.233 17.019 L 6.250 18.004 9.983 17.992 L 13.717 17.980 13.917 17.902 C 14.507 17.671,14.903 17.191,14.969 16.627 C 15.004 16.325,15.010 9.300,14.975 9.300 C 14.961 9.300,14.511 9.739,13.975 10.275 M10.157 14.093 C 9.686 14.566,9.300 14.971,9.300 14.993 C 9.300 15.023,9.513 15.033,10.167 15.033 L 11.033 15.033 11.033 14.133 C 11.033 13.638,11.029 13.233,11.024 13.233 C 11.019 13.233,10.629 13.620,10.157 14.093 " fill="#1A1C1F" stroke="none" fill-rule="evenodd"></path></svg>