<svg width="28" height="28" viewBox="0 0 28 28" fill="none" xmlns="http://www.w3.org/2000/svg"><path d="M9.704 1.817 L 8.884 1.843 8.537 2.016 C 7.768 2.399,7.233 3.039,7.082 3.757 C 7.036 3.977,7.023 6.180,7.023 14.070 C 7.023 23.753,7.026 24.112,7.111 24.360 C 7.407 25.231,8.034 25.863,8.875 26.138 L 9.217 26.250 14.000 26.250 L 18.783 26.250 19.125 26.138 C 19.543 26.001,19.952 25.743,20.262 25.420 C 20.537 25.134,20.692 24.883,20.855 24.459 L 20.974 24.150 20.989 15.050 C 20.997 10.045,20.985 5.446,20.963 4.830 C 20.928 3.848,20.910 3.678,20.820 3.448 C 20.582 2.838,20.121 2.341,19.516 2.041 L 19.117 1.843 18.204 1.813 C 17.124 1.777,10.883 1.780,9.704 1.817 M10.519 3.651 C 10.562 3.869,10.747 4.125,10.952 4.253 L 11.130 4.363 14.003 4.363 L 16.877 4.363 17.066 4.238 C 17.278 4.098,17.438 3.869,17.484 3.641 L 17.514 3.489 18.055 3.510 C 18.708 3.536,18.889 3.601,19.072 3.878 L 19.203 4.077 19.203 14.000 L 19.203 23.923 19.075 24.117 C 18.818 24.506,19.227 24.477,14.000 24.477 C 8.773 24.477,9.182 24.506,8.925 24.117 L 8.797 23.923 8.797 14.003 L 8.797 4.083 8.902 3.914 C 8.960 3.820,9.040 3.717,9.080 3.684 C 9.209 3.577,9.582 3.506,10.039 3.503 L 10.488 3.500 10.519 3.651 M12.072 21.044 C 11.633 21.132,11.322 21.599,11.406 22.045 C 11.453 22.294,11.623 22.506,11.877 22.633 C 12.109 22.750,12.116 22.750,13.634 22.765 C 15.236 22.782,16.032 22.735,16.217 22.614 C 16.278 22.574,16.386 22.464,16.459 22.370 C 16.571 22.222,16.589 22.156,16.586 21.914 C 16.582 21.529,16.470 21.310,16.199 21.150 L 15.983 21.023 14.117 21.016 C 13.090 21.011,12.170 21.024,12.072 21.044 " fill="#1A1C1F" stroke="none" fill-rule="evenodd"></path></svg>