<svg width="32" height="32" viewBox="0 0 32 32" fill="none" xmlns="http://www.w3.org/2000/svg"><path d="M10.800 2.078 C 10.164 2.108,10.078 2.124,9.760 2.280 C 8.988 2.657,8.472 3.238,8.140 4.104 L 8.027 4.400 8.012 13.491 L 7.997 22.582 6.103 24.488 C 4.074 26.531,3.958 26.675,4.015 27.100 C 4.099 27.723,4.794 28.160,5.310 27.915 C 5.433 27.856,6.232 27.113,7.304 26.059 C 10.283 23.132,22.610 10.815,25.334 8.044 C 28.149 5.181,28.088 5.259,27.953 4.755 C 27.803 4.192,27.164 3.858,26.648 4.073 C 26.552 4.113,25.917 4.692,25.237 5.359 L 24.000 6.573 23.999 5.673 C 23.998 4.201,23.816 3.647,23.098 2.928 C 22.797 2.627,22.585 2.471,22.271 2.316 C 21.859 2.114,21.829 2.107,21.098 2.071 C 20.186 2.027,11.771 2.032,10.800 2.078 M12.021 4.172 C 12.071 4.422,12.282 4.714,12.516 4.860 L 12.720 4.987 16.004 4.987 L 19.288 4.987 19.504 4.844 C 19.746 4.684,19.929 4.421,19.981 4.161 L 20.016 3.987 20.635 4.012 C 21.380 4.041,21.587 4.116,21.796 4.432 L 21.947 4.659 21.962 6.636 L 21.978 8.613 16.001 14.587 L 10.023 20.560 10.038 12.613 L 10.053 4.667 10.174 4.473 C 10.240 4.366,10.332 4.248,10.377 4.210 C 10.525 4.087,10.950 4.007,11.473 4.004 L 11.987 4.000 12.021 4.172 M22.948 13.293 L 21.977 14.267 21.962 20.804 L 21.947 27.341 21.800 27.562 C 21.508 28.004,21.920 27.971,16.400 27.990 C 13.701 28.000,11.296 27.992,11.054 27.972 C 10.300 27.912,10.081 27.670,10.038 26.849 C 10.022 26.528,9.990 26.347,9.952 26.347 C 9.919 26.347,9.511 26.729,9.044 27.196 L 8.197 28.045 8.346 28.351 C 8.573 28.814,9.147 29.387,9.643 29.645 C 10.342 30.008,10.191 30.000,16.133 30.000 L 21.467 30.000 21.857 29.872 C 22.335 29.715,22.802 29.421,23.157 29.051 C 23.469 28.726,23.646 28.440,23.836 27.953 L 23.973 27.600 23.989 19.960 C 23.997 15.758,23.985 12.320,23.962 12.320 C 23.938 12.320,23.482 12.758,22.948 13.293 M13.797 24.050 C 13.295 24.151,12.940 24.685,13.035 25.194 C 13.089 25.479,13.283 25.721,13.573 25.867 C 13.839 26.000,13.846 26.000,15.587 26.017 C 17.423 26.035,18.323 25.983,18.534 25.844 C 18.603 25.799,18.727 25.674,18.810 25.565 C 18.938 25.397,18.959 25.321,18.956 25.044 C 18.950 24.604,18.823 24.354,18.513 24.172 L 18.267 24.027 16.133 24.018 C 14.960 24.013,13.908 24.027,13.797 24.050 " fill="#1A1C1F" stroke="none" fill-rule="evenodd"></path></svg>