<svg xmlns="http://www.w3.org/2000/svg" width="28" height="28" fill="none"><g clip-path="url(#a)"><path fill="#1A1C1F" fill-rule="evenodd" d="M18.375 1.75A2.625 2.625 0 0 1 21 4.375v19.25a2.625 2.625 0 0 1-2.625 2.625h-8.75A2.625 2.625 0 0 1 7 23.625V4.375A2.625 2.625 0 0 1 9.625 1.75zM10.5 3.5h-.875a.875.875 0 0 0-.875.875v19.25c0 .483.392.875.875.875h8.75a.875.875 0 0 0 .875-.875V4.375a.875.875 0 0 0-.875-.875H17.5a.875.875 0 0 1-.875.875h-5.25A.875.875 0 0 1 10.5 3.5M15.75 21a.875.875 0 0 1 0 1.75h-3.5a.875.875 0 0 1 0-1.75z" clip-rule="evenodd"/></g><defs><clipPath id="a"><path fill="#fff" d="M0 0h28v28H0z"/></clipPath></defs></svg>