<svg xmlns="http://www.w3.org/2000/svg" width="12" height="12" fill="none"><g clip-path="url(#a)"><path fill="#1A1C1F" fill-rule="evenodd" d="M1.8 9.59c0 .338.3.62.619.62a.56.56 0 0 0 .412-.188l7.2-7.2a.51.51 0 0 0 .169-.413c0-.318-.244-.618-.581-.618a.6.6 0 0 0-.431.187L9 2.147a.956.956 0 0 0-.956-.938h-4.05c-.544 0-.994.432-.994.957v5.98L1.988 9.179a.6.6 0 0 0-.188.413m1.95 1.2h4.294A.95.95 0 0 0 9 9.835V5.541l-1.2 1.2v2.868H4.95zm.45-3.843V2.409h.6v.6h2.4v-.6h.6v.938zm1.35 2.062h1.069V7.941z" clip-rule="evenodd"/></g><defs><clipPath id="a"><path fill="#fff" d="M0 0h12v12H0z"/></clipPath></defs></svg>