<svg xmlns="http://www.w3.org/2000/svg" width="32" height="32" fill="none"><path fill="#1A1C1F" fill-rule="evenodd" d="M10.217 2.108c-.764.21-1.553.848-1.882 1.521-.356.728-.333-.123-.333 12.371 0 9.953.009 11.375.081 11.677.247 1.05 1.058 1.896 2.13 2.225.302.092.632.098 5.787.098s5.485-.006 5.787-.098c1.073-.329 1.884-1.178 2.133-2.236.118-.502.118-22.83 0-23.332a3.06 3.06 0 0 0-2.16-2.228c-.419-.112-11.136-.109-11.543.002m1.823 2.126c.08.297.296.554.571.679.202.092.424.098 3.389.098s3.187-.006 3.389-.098c.275-.125.491-.382.571-.679L20.022 4h.577c.786 0 1.054.115 1.273.545.098.192.101.514.101 11.455s-.003 11.263-.101 11.455a.85.85 0 0 1-.499.463c-.172.072-.835.082-5.373.082s-5.201-.01-5.373-.082a.85.85 0 0 1-.499-.463c-.098-.192-.101-.514-.101-11.455s.003-11.263.101-11.455c.219-.431.473-.54 1.261-.543L11.978 4zm1.516 19.88a.98.98 0 0 0-.53.788c-.034.35.059.601.305.823.321.29.516.31 2.838.291 2.302-.018 2.295-.017 2.628-.434.145-.183.163-.244.163-.564 0-.448-.163-.732-.52-.905-.227-.11-.301-.113-2.444-.113-2.151 0-2.215.003-2.44.114"/></svg>