<svg width="20" height="20" viewBox="0 0 20 20" fill="none" xmlns="http://www.w3.org/2000/svg"><path d="M6.882 2.032 L 6.182 2.050 5.955 2.161 C 5.632 2.321,5.329 2.616,5.180 2.916 C 5.071 3.138,5.059 3.191,5.032 3.587 C 4.994 4.147,4.993 16.124,5.031 16.519 C 5.093 17.154,5.499 17.690,6.083 17.907 L 6.283 17.981 9.700 17.992 C 11.579 17.998,13.276 17.990,13.470 17.974 C 13.753 17.950,13.866 17.924,14.039 17.843 C 14.351 17.698,14.670 17.387,14.820 17.084 C 14.929 16.862,14.941 16.809,14.968 16.413 C 15.006 15.853,15.006 4.147,14.968 3.587 C 14.941 3.191,14.929 3.138,14.820 2.916 C 14.670 2.613,14.365 2.317,14.043 2.162 C 13.827 2.058,13.793 2.053,13.283 2.030 C 12.680 2.002,7.951 2.004,6.882 2.032 M8.007 4.508 L 8.017 5.017 9.992 5.025 L 11.967 5.034 11.967 4.517 L 11.967 4.000 12.483 4.000 L 13.000 4.000 13.000 10.000 L 13.000 16.000 10.000 16.000 L 7.000 16.000 7.000 10.000 L 7.000 4.000 7.499 4.000 L 7.998 4.000 8.007 4.508 M9.000 14.000 L 9.000 15.000 10.000 15.000 L 11.000 15.000 11.000 14.000 L 11.000 13.000 10.000 13.000 L 9.000 13.000 9.000 14.000 " fill="#1A1C1F" stroke="none" fill-rule="evenodd"></path></svg>