<svg xmlns="http://www.w3.org/2000/svg" width="14" height="14" fill="none"><g clip-path="url(#a)"><path fill="#1A1C1F" fill-rule="evenodd" d="M2.1 11.19c0 .393.35.72.722.72.175 0 .328-.065.481-.218l8.4-8.4c.153-.131.197-.306.197-.481 0-.372-.284-.722-.678-.722a.71.71 0 0 0-.503.219l-.219.197A1.116 1.116 0 0 0 9.384 1.41H4.66c-.634 0-1.159.503-1.159 1.116v6.978l-1.181 1.203a.7.7 0 0 0-.219.481m2.275 1.4h5.01c.634 0 1.115-.504 1.115-1.117V6.464l-1.4 1.4v3.347H5.775zM4.9 8.104V2.81h.7v.7h2.8v-.7h.7v1.094zm1.575 2.406h1.247V9.264z" clip-rule="evenodd"/></g><defs><clipPath id="a"><path fill="#fff" d="M0 0h14v14H0z"/></clipPath></defs></svg>