<svg width="14" height="14" viewBox="0 0 14 14" fill="none" xmlns="http://www.w3.org/2000/svg"><path d="M4.573 1.445 C 4.361 1.458,4.278 1.474,4.177 1.521 C 4.023 1.591,3.874 1.712,3.739 1.875 C 3.582 2.065,3.546 2.164,3.522 2.471 C 3.511 2.620,3.501 4.264,3.501 6.126 L 3.500 9.509 3.299 9.707 C 3.189 9.816,2.900 10.114,2.658 10.368 C 2.141 10.913,2.085 11.000,2.109 11.230 C 2.146 11.586,2.416 11.863,2.757 11.894 C 3.040 11.920,3.008 11.944,4.033 10.943 C 5.739 9.278,11.794 3.189,11.842 3.090 C 11.895 2.981,11.903 2.697,11.856 2.561 C 11.810 2.425,11.665 2.259,11.525 2.182 C 11.413 2.120,11.377 2.112,11.212 2.113 C 10.991 2.114,10.937 2.138,10.691 2.338 C 10.596 2.415,10.517 2.474,10.513 2.469 C 10.510 2.465,10.489 2.390,10.468 2.302 C 10.377 1.932,10.153 1.660,9.808 1.501 L 9.689 1.446 7.265 1.436 C 5.932 1.431,4.721 1.435,4.573 1.445 M5.600 3.173 L 5.600 3.523 7.000 3.523 L 8.400 3.523 8.400 3.173 L 8.400 2.823 8.750 2.823 L 9.100 2.823 9.100 3.366 L 9.100 3.908 7.000 6.008 L 4.900 8.108 4.900 5.466 L 4.900 2.823 5.250 2.823 L 5.600 2.823 5.600 3.173 M9.782 7.193 L 9.100 7.875 9.100 9.549 L 9.100 11.223 7.426 11.223 L 5.751 11.223 5.063 11.912 L 4.375 12.600 6.673 12.598 C 7.937 12.597,9.130 12.589,9.323 12.580 C 9.662 12.563,9.681 12.560,9.852 12.478 C 10.202 12.312,10.440 11.988,10.478 11.626 C 10.502 11.397,10.506 6.510,10.482 6.510 C 10.473 6.510,10.158 6.817,9.782 7.193 M7.111 9.864 C 6.780 10.195,6.510 10.478,6.510 10.494 C 6.510 10.517,6.649 10.523,7.117 10.523 L 7.723 10.523 7.723 9.893 C 7.723 9.547,7.721 9.263,7.717 9.263 C 7.714 9.263,7.441 9.534,7.111 9.864 " fill="#1A1C1F" stroke="none" fill-rule="evenodd"></path></svg>