<svg xmlns="http://www.w3.org/2000/svg" width="24" height="24" fill="none"><g clip-path="url(#a)"><path fill="#1A1C1F" fill-rule="evenodd" d="M2.97 19.997c0-.282.126-.532.313-.72L6 16.554V4.974C6 3.313 7.352 2 9.011 2h6.01C16.522 2 18 3 18 4.566l1.308-1.314c.22-.188.47-.282.72-.282a.99.99 0 0 1 1.002 1.002c0 .282-.126.5-.313.688L4.692 20.685a1.02 1.02 0 0 1-.72.313c-.563 0-1.002-.47-1.002-1.001m4.038 1.22 1.44-1.408c.156.125.333.22.552.22h6c.563 0 1-.47 1-1.002v-6.824l2-2.003v8.827C18 20.685 16.659 22 15 22H9c-.751 0-1.429-.282-1.992-.782M8 14.58l8-8.013V5.002C16 4.469 15.563 4 15 4h-1c0 .563-.469 1.002-1 1.002h-2c-.562 0-1-.439-1-1.002H9c-.562 0-1 .47-1 1.002zm2.45 3.205L12.236 16h.782c.532 0 1.002.438 1.002.97 0 .564-.47 1.033-1.002 1.033h-2.003a.98.98 0 0 1-.563-.219" clip-rule="evenodd"/></g><defs><clipPath id="a"><path fill="#fff" d="M0 0h24v24H0z"/></clipPath></defs></svg>