<svg width="12" height="12" viewBox="0 0 12 12" fill="none" xmlns="http://www.w3.org/2000/svg"><path d="M4.119 1.219 L 3.709 1.230 3.573 1.297 C 3.379 1.392,3.197 1.570,3.108 1.750 C 3.042 1.883,3.035 1.915,3.019 2.152 C 2.996 2.488,2.996 9.674,3.019 9.911 C 3.056 10.298,3.305 10.621,3.660 10.745 L 3.790 10.790 6.010 10.790 L 8.230 10.790 8.345 10.746 C 8.580 10.656,8.783 10.471,8.893 10.244 C 8.951 10.123,8.967 10.064,8.981 9.904 C 9.004 9.649,9.004 2.486,8.981 2.152 C 8.965 1.915,8.958 1.883,8.892 1.750 C 8.802 1.568,8.619 1.390,8.426 1.297 C 8.296 1.235,8.276 1.232,7.970 1.218 C 7.607 1.201,4.745 1.202,4.119 1.219 M4.804 2.705 L 4.810 3.010 5.995 3.015 L 7.180 3.020 7.180 2.710 L 7.180 2.400 7.490 2.400 L 7.800 2.400 7.800 6.000 L 7.800 9.600 6.000 9.600 L 4.200 9.600 4.200 6.000 L 4.200 2.400 4.499 2.400 L 4.799 2.400 4.804 2.705 M5.400 8.400 L 5.400 9.000 6.000 9.000 L 6.600 9.000 6.600 8.400 L 6.600 7.800 6.000 7.800 L 5.400 7.800 5.400 8.400 " fill="#1A1C1F" stroke="none" fill-rule="evenodd"></path></svg>