<svg width="12" height="12" viewBox="0 0 12 12" fill="none" xmlns="http://www.w3.org/2000/svg"><path d="M3.920 1.239 C 3.716 1.250,3.675 1.259,3.555 1.317 C 3.266 1.456,3.050 1.753,3.018 2.055 C 3.009 2.140,3.002 3.545,3.001 5.177 L 3.000 8.145 2.576 8.577 C 1.985 9.182,1.867 9.320,1.828 9.455 C 1.705 9.878,2.154 10.305,2.586 10.176 C 2.699 10.142,3.579 9.279,7.161 5.687 C 9.112 3.730,10.125 2.701,10.150 2.649 C 10.196 2.555,10.202 2.311,10.162 2.195 C 10.123 2.079,9.998 1.936,9.878 1.870 C 9.783 1.817,9.751 1.810,9.610 1.811 C 9.421 1.812,9.374 1.833,9.164 2.005 C 9.084 2.071,9.015 2.121,9.012 2.117 C 9.009 2.113,8.990 2.047,8.972 1.970 C 8.902 1.687,8.752 1.489,8.493 1.334 L 8.351 1.250 7.530 1.237 C 6.492 1.221,4.223 1.223,3.920 1.239 M4.800 2.720 L 4.800 3.020 6.000 3.020 L 7.200 3.020 7.200 2.720 L 7.200 2.420 7.500 2.420 L 7.800 2.420 7.800 2.885 L 7.800 3.350 6.000 5.150 L 4.200 6.950 4.200 4.685 L 4.200 2.420 4.500 2.420 L 4.800 2.420 4.800 2.720 M8.385 6.165 L 7.800 6.750 7.800 8.185 L 7.800 9.620 6.365 9.620 L 4.930 9.620 4.340 10.210 L 3.750 10.800 5.730 10.798 C 6.819 10.798,7.840 10.791,8.000 10.783 C 8.281 10.770,8.295 10.767,8.447 10.695 C 8.741 10.555,8.946 10.279,8.981 9.976 C 9.002 9.795,9.006 5.580,8.985 5.580 C 8.977 5.580,8.707 5.843,8.385 6.165 M6.095 8.455 C 5.812 8.738,5.580 8.981,5.580 8.995 C 5.580 9.014,5.699 9.020,6.100 9.020 L 6.620 9.020 6.620 8.480 C 6.620 8.183,6.618 7.940,6.615 7.940 C 6.612 7.940,6.378 8.172,6.095 8.455 " fill="#1A1C1F" stroke="none" fill-rule="evenodd"></path></svg>