<svg xmlns="http://www.w3.org/2000/svg" width="32" height="32" fill="none"><g clip-path="url(#a)"><path fill="#1A1C1F" fill-rule="evenodd" d="M24 12.246V27a3 3 0 0 1-3 3H11a2.985 2.985 0 0 1-2.79-1.956L10 26.243V27a1 1 0 0 0 1 1h10a1 1 0 0 0 1-1V14.246zM20.988 2A3.01 3.01 0 0 1 24 5v1.586l2.28-2.293a1 1 0 1 1 1.415 1.414l-22 22a1 1 0 0 1-1.414-1.414L8 22.586V5c0-1.657 1.33-3 2.988-3zM18 24a1 1 0 1 1 0 2h-4a1 1 0 1 1 0-2zM12 4h-1a1 1 0 0 0-1 1v15.586l12-12V5a1 1 0 0 0-1-1h-1a1 1 0 0 1-1 1h-6a1 1 0 0 1-1-1" clip-rule="evenodd"/></g><defs><clipPath id="a"><path fill="#fff" d="M0 0h32v32H0z"/></clipPath></defs></svg>