<svg width="16" height="16" viewBox="0 0 16 16" fill="none" xmlns="http://www.w3.org/2000/svg"><path d="M5.213 1.650 C 4.837 1.675,4.642 1.761,4.389 2.014 C 4.159 2.244,4.052 2.461,4.024 2.754 C 4.013 2.875,4.003 4.748,4.002 6.916 L 4.000 10.859 3.436 11.436 C 2.642 12.248,2.489 12.427,2.437 12.606 C 2.273 13.170,2.872 13.740,3.448 13.568 C 3.598 13.523,4.799 12.345,9.575 7.556 C 12.156 4.967,13.500 3.601,13.533 3.532 C 13.594 3.407,13.603 3.082,13.550 2.926 C 13.497 2.772,13.331 2.582,13.171 2.493 C 13.044 2.423,13.002 2.413,12.813 2.415 C 12.561 2.416,12.498 2.444,12.219 2.673 C 12.111 2.761,12.020 2.828,12.016 2.823 C 12.012 2.818,11.987 2.729,11.962 2.627 C 11.864 2.230,11.628 1.928,11.275 1.751 L 11.080 1.653 8.293 1.642 C 6.761 1.636,5.375 1.640,5.213 1.650 M6.400 3.627 L 6.400 4.027 8.000 4.027 L 9.600 4.027 9.600 3.627 L 9.600 3.227 10.000 3.227 L 10.400 3.227 10.400 3.847 L 10.400 4.467 8.000 6.867 L 5.600 9.267 5.600 6.247 L 5.600 3.227 6.000 3.227 L 6.400 3.227 6.400 3.627 M11.180 8.220 L 10.400 9.000 10.400 10.914 L 10.400 12.827 8.486 12.827 L 6.573 12.827 5.787 13.613 L 5.000 14.400 7.640 14.398 C 9.092 14.397,10.455 14.387,10.669 14.377 C 11.043 14.358,11.066 14.353,11.265 14.258 C 11.662 14.070,11.932 13.701,11.975 13.287 C 12.003 13.025,12.007 7.440,11.980 7.440 C 11.969 7.440,11.609 7.791,11.180 8.220 M8.126 11.274 C 7.749 11.651,7.440 11.975,7.440 11.994 C 7.440 12.019,7.599 12.027,8.133 12.027 L 8.827 12.027 8.827 11.307 C 8.827 10.911,8.824 10.587,8.820 10.587 C 8.816 10.587,8.504 10.896,8.126 11.274 " fill="#1A1C1F" stroke="none" fill-rule="evenodd"></path></svg>