<svg width="16" height="16" viewBox="0 0 16 16" fill="none" xmlns="http://www.w3.org/2000/svg"><path d="M5.506 1.625 L 4.945 1.640 4.764 1.729 C 4.506 1.857,4.263 2.093,4.144 2.333 C 4.057 2.510,4.047 2.553,4.025 2.870 C 3.994 3.323,3.994 12.901,4.025 13.221 C 4.064 13.618,4.228 13.906,4.557 14.153 C 4.639 14.215,4.779 14.293,4.867 14.325 L 5.027 14.385 7.779 14.394 C 9.293 14.399,10.650 14.392,10.795 14.379 C 11.135 14.348,11.334 14.259,11.582 14.027 C 11.711 13.906,11.786 13.807,11.856 13.667 C 11.943 13.490,11.953 13.447,11.975 13.130 C 12.005 12.682,12.005 3.318,11.975 2.870 C 11.953 2.553,11.943 2.510,11.856 2.333 C 11.736 2.090,11.492 1.854,11.234 1.730 C 11.063 1.648,11.032 1.642,10.640 1.624 C 10.174 1.602,6.367 1.603,5.506 1.625 M6.406 3.607 L 6.413 4.013 7.993 4.020 L 9.573 4.027 9.573 3.614 L 9.573 3.200 9.987 3.200 L 10.400 3.200 10.400 8.000 L 10.400 12.800 8.000 12.800 L 5.600 12.800 5.600 8.000 L 5.600 3.200 5.999 3.200 L 6.399 3.200 6.406 3.607 M7.200 11.200 L 7.200 12.000 8.000 12.000 L 8.800 12.000 8.800 11.200 L 8.800 10.400 8.000 10.400 L 7.200 10.400 7.200 11.200 " fill="#1A1C1F" stroke="none" fill-rule="evenodd"></path></svg>