<svg xmlns="http://www.w3.org/2000/svg" width="20" height="20" fill="none"><g clip-path="url(#a)"><path fill="#1A1C1F" fill-rule="evenodd" d="M3 15.984c0 .563.5 1.032 1.031 1.032.25 0 .469-.094.688-.313l12-12c.218-.187.281-.437.281-.687 0-.532-.406-1.032-.969-1.032-.281 0-.531.125-.718.313L15 3.578c-.031-.875-.719-1.562-1.594-1.562h-6.75C5.75 2.016 5 2.734 5 3.609v9.97l-1.687 1.718c-.22.219-.313.469-.313.687m3.25 2h7.156A1.58 1.58 0 0 0 15 16.391V9.234l-2 2v4.782H8.25zM7 11.578V4.016h1v1h4v-1h1v1.562zm2.25 3.438h1.781v-1.782z" clip-rule="evenodd"/></g><defs><clipPath id="a"><path fill="#fff" d="M0 0h20v20H0z"/></clipPath></defs></svg>