<svg width="24" height="24" viewBox="0 0 24 24" fill="none" xmlns="http://www.w3.org/2000/svg"><path d="M9.020 2.041 C 8.259 2.070,8.095 2.108,7.580 2.372 C 7.110 2.614,6.558 3.173,6.329 3.640 C 5.997 4.319,6.025 3.719,6.010 10.500 L 5.997 16.540 4.866 17.680 C 3.501 19.057,3.146 19.434,3.060 19.601 C 2.961 19.791,2.970 20.193,3.078 20.416 C 3.229 20.728,3.618 20.997,3.920 20.999 C 4.212 21.000,4.358 20.923,4.774 20.547 C 5.292 20.078,16.192 9.207,18.899 6.459 C 20.924 4.403,20.950 4.375,20.995 4.166 C 21.055 3.887,21.016 3.672,20.864 3.447 C 20.664 3.150,20.460 3.032,20.107 3.009 C 19.672 2.981,19.562 3.049,18.726 3.860 L 18.025 4.539 17.977 4.260 C 17.879 3.689,17.685 3.324,17.245 2.886 C 16.995 2.638,16.862 2.543,16.539 2.384 C 15.876 2.058,15.991 2.073,13.940 2.038 C 11.839 2.002,10.008 2.003,9.020 2.041 M10.031 4.210 C 10.096 4.486,10.257 4.710,10.498 4.859 L 10.694 4.980 11.817 4.994 C 12.525 5.003,13.028 4.992,13.178 4.964 C 13.574 4.891,13.816 4.663,13.965 4.227 L 14.035 4.020 14.648 4.023 C 15.188 4.026,15.279 4.036,15.420 4.110 C 15.635 4.222,15.872 4.473,15.922 4.642 C 15.945 4.718,15.974 5.185,15.986 5.680 L 16.008 6.580 12.000 10.580 L 7.991 14.580 8.013 9.678 C 8.032 5.208,8.040 4.761,8.102 4.608 C 8.191 4.385,8.519 4.090,8.713 4.059 C 8.794 4.045,8.887 4.029,8.920 4.022 C 8.953 4.015,9.205 4.007,9.481 4.005 L 9.981 4.000 10.031 4.210 M16.974 11.250 L 16.009 12.220 15.987 15.744 C 15.970 18.666,15.956 19.292,15.909 19.404 C 15.826 19.602,15.658 19.786,15.446 19.911 L 15.260 20.020 12.040 20.020 L 8.820 20.020 8.643 19.931 L 8.465 19.843 8.303 19.979 C 8.213 20.054,7.880 20.365,7.563 20.669 L 6.986 21.223 7.198 21.375 C 7.515 21.602,7.862 21.779,8.227 21.898 L 8.555 22.005 12.047 21.990 C 15.954 21.974,15.707 21.992,16.340 21.679 C 16.899 21.402,17.402 20.899,17.679 20.340 C 17.998 19.696,17.975 20.094,17.990 14.910 C 17.998 12.364,17.990 10.280,17.972 10.280 C 17.954 10.280,17.505 10.717,16.974 11.250 M11.347 16.875 C 10.867 17.361,10.486 17.778,10.500 17.800 C 10.514 17.822,10.582 17.872,10.653 17.910 C 10.764 17.971,10.931 17.982,12.014 17.993 L 13.247 18.005 13.466 17.873 C 13.826 17.655,13.995 17.370,13.998 16.975 C 14.000 16.728,13.925 16.534,13.750 16.335 C 13.543 16.099,13.359 16.040,12.750 16.013 L 12.220 15.990 11.347 16.875 " fill="#1A1C1F" stroke="none" fill-rule="evenodd"></path></svg>