<svg xmlns="http://www.w3.org/2000/svg" width="16" height="16" fill="none"><g clip-path="url(#a)"><path fill="#1A1C1F" fill-rule="evenodd" d="M2.4 12.788c0 .45.4.825.825.825.2 0 .375-.075.55-.25l9.6-9.6c.175-.15.225-.35.225-.55 0-.425-.325-.825-.775-.825-.225 0-.425.1-.575.25l-.25.224a1.275 1.275 0 0 0-1.275-1.25h-5.4C4.6 1.612 4 2.188 4 2.888v7.975l-1.35 1.375a.8.8 0 0 0-.25.55m2.6 1.6h5.725c.725 0 1.275-.575 1.275-1.275V7.388l-1.6 1.6v3.825H6.6zm.6-5.126v-6.05h.8v.8h3.2v-.8h.8v1.25zm1.8 2.75h1.425v-1.424z" clip-rule="evenodd"/></g><defs><clipPath id="a"><path fill="#fff" d="M0 0h16v16H0z"/></clipPath></defs></svg>