<svg width="14" height="14" viewBox="0 0 14 14" fill="none" xmlns="http://www.w3.org/2000/svg"><path d="M4.818 1.422 C 4.380 1.434,4.317 1.440,4.218 1.486 C 3.946 1.612,3.740 1.805,3.624 2.046 C 3.550 2.199,3.541 2.242,3.522 2.513 C 3.495 2.908,3.495 11.289,3.522 11.569 C 3.556 11.916,3.699 12.168,3.987 12.384 C 4.059 12.438,4.181 12.506,4.258 12.535 L 4.398 12.587 6.790 12.594 C 8.105 12.599,9.293 12.593,9.429 12.582 C 9.747 12.555,9.924 12.477,10.141 12.269 C 10.351 12.068,10.449 11.862,10.478 11.567 C 10.505 11.288,10.505 2.906,10.478 2.511 C 10.459 2.234,10.451 2.197,10.374 2.041 C 10.269 1.830,10.056 1.623,9.830 1.513 C 9.680 1.441,9.653 1.436,9.322 1.420 C 8.921 1.402,5.555 1.403,4.818 1.422 M5.605 3.156 L 5.612 3.512 6.994 3.518 L 8.377 3.524 8.377 3.162 L 8.377 2.800 8.738 2.800 L 9.100 2.800 9.100 7.000 L 9.100 11.200 7.000 11.200 L 4.900 11.200 4.900 7.000 L 4.900 2.800 5.249 2.800 L 5.599 2.800 5.605 3.156 M6.300 9.800 L 6.300 10.500 7.000 10.500 L 7.700 10.500 7.700 9.800 L 7.700 9.100 7.000 9.100 L 6.300 9.100 6.300 9.800 " fill="#1A1C1F" stroke="none" fill-rule="evenodd"></path></svg>