<svg xmlns="http://www.w3.org/2000/svg" width="32" height="32" fill="none"><g clip-path="url(#a)"><path fill="#1A1C1F" fill-rule="evenodd" d="M22 2c1.094 0 2 .906 2 2v2h3a3 3 0 0 1 3 3v10a3 3 0 0 1-3 3h-3v6c0 1.094-.906 2-2 2H10c-1.094 0-2-.906-2-2v-6H5a3 3 0 0 1-3-3V9a3 3 0 0 1 3-3h3V4c0-1.094.906-2 2-2zm0 16H10v10h12zm5-10H5c-.562 0-1 .437-1 1v10c0 .563.438 1 1 1h3v-2c0-1.094.906-2 2-2h12c1.094 0 2 .906 2 2v2h3c.563 0 1-.437 1-1V9c0-.563-.437-1-1-1m-5-4H10v2h12zM8 11c0-.562.438-1 1-1h4c.563 0 1 .438 1 1s-.437 1-1 1H9c-.562 0-1-.437-1-1m4 14c0-.562.438-1 1-1h6c.563 0 1 .438 1 1s-.437 1-1 1h-6c-.562 0-1-.437-1-1m0-4c0-.562.438-1 1-1h6c.563 0 1 .438 1 1s-.437 1-1 1h-6c-.562 0-1-.437-1-1" clip-rule="evenodd"/></g><defs><clipPath id="a"><path fill="#fff" d="M0 0h32v32H0z"/></clipPath></defs></svg>