<svg xmlns="http://www.w3.org/2000/svg" width="12" height="12" fill="none"><g clip-path="url(#a)"><path fill="#1A1C1F" fill-rule="evenodd" d="M7.8 1.2c.3 0 .6.264.6.6v.6h1.444c.581 0 .956.525.956 1.088v3.806c0 .581-.356 1.106-.956 1.106H8.4v1.8c0 .338-.263.6-.6.6H4.2a.58.58 0 0 1-.6-.6V8.4H2.156c-.581 0-.956-.544-.956-1.106V3.488c0-.563.337-1.088.956-1.088H3.6v-.6c0-.337.281-.6.6-.6zm-.6 6H4.8v2.4h2.4zm2.4-3.6H2.4v3.6h1.2v-.6c0-.3.3-.6.6-.6h3.6c.3 0 .6.3.6.6v.6h1.2z" clip-rule="evenodd"/></g><defs><clipPath id="a"><path fill="#fff" d="M0 0h12v12H0z"/></clipPath></defs></svg>