<svg width="24" height="24" viewBox="0 0 24 24" fill="none" xmlns="http://www.w3.org/2000/svg"><path d="M7.916 2.038 C 7.482 2.060,7.431 2.072,7.142 2.215 C 6.572 2.497,6.135 3.069,6.039 3.660 C 6.018 3.792,6.000 4.370,6.000 4.944 L 6.000 5.988 5.270 6.016 C 4.423 6.048,4.141 6.103,3.700 6.321 C 3.093 6.621,2.609 7.105,2.320 7.700 C 2.000 8.362,2.020 8.076,2.020 12.000 L 2.020 15.500 2.114 15.800 C 2.427 16.802,3.138 17.526,4.140 17.862 C 4.429 17.959,4.533 17.971,5.226 17.990 L 5.993 18.011 6.009 19.196 C 6.027 20.567,6.054 20.702,6.402 21.168 C 6.777 21.668,7.186 21.906,7.774 21.962 C 8.257 22.009,15.751 22.008,16.236 21.961 C 16.718 21.915,17.010 21.777,17.358 21.432 C 17.659 21.135,17.767 20.970,17.887 20.633 C 17.970 20.397,17.977 20.299,17.992 19.196 L 18.007 18.011 18.774 17.990 C 19.467 17.971,19.571 17.959,19.860 17.862 C 20.859 17.527,21.574 16.799,21.886 15.800 L 21.980 15.500 21.980 12.000 C 21.980 8.076,22.000 8.362,21.680 7.700 C 21.391 7.105,20.907 6.621,20.300 6.321 C 19.860 6.103,19.577 6.048,18.733 6.016 L 18.007 5.988 17.992 4.804 C 17.977 3.701,17.970 3.603,17.887 3.367 C 17.837 3.228,17.750 3.039,17.692 2.947 C 17.529 2.687,17.153 2.349,16.867 2.204 C 16.616 2.076,16.585 2.071,15.934 2.038 C 15.179 2.000,8.638 2.000,7.916 2.038 M16.000 5.000 L 16.000 6.000 12.000 6.000 L 8.000 6.000 8.000 5.000 L 8.000 4.000 12.000 4.000 L 16.000 4.000 16.000 5.000 M19.400 8.087 C 19.586 8.169,19.746 8.336,19.872 8.580 L 19.975 8.780 19.978 11.980 L 19.980 15.180 19.888 15.380 C 19.837 15.490,19.738 15.640,19.668 15.713 C 19.435 15.956,19.363 15.976,18.660 15.992 L 18.020 16.007 17.956 15.674 C 17.921 15.490,17.841 15.232,17.779 15.100 C 17.626 14.773,17.226 14.382,16.860 14.202 C 16.588 14.068,16.562 14.063,15.940 14.035 C 15.109 13.998,8.891 13.998,8.060 14.035 C 7.438 14.063,7.412 14.068,7.140 14.202 C 6.774 14.382,6.374 14.773,6.221 15.100 C 6.159 15.232,6.079 15.490,6.044 15.674 L 5.980 16.007 5.340 15.992 C 4.612 15.975,4.548 15.955,4.290 15.662 C 4.011 15.345,4.020 15.462,4.022 11.920 C 4.024 8.756,4.025 8.739,4.110 8.580 C 4.206 8.399,4.354 8.232,4.510 8.130 C 4.669 8.025,5.770 8.011,12.980 8.019 C 18.529 8.025,19.276 8.033,19.400 8.087 M6.890 10.037 C 6.516 10.073,6.311 10.211,6.140 10.542 C 5.833 11.135,6.152 11.830,6.791 11.962 C 6.936 11.992,7.400 12.003,8.156 11.994 L 9.300 11.980 9.489 11.869 C 9.803 11.684,10.000 11.343,10.000 10.985 C 9.999 10.777,9.853 10.459,9.677 10.283 C 9.429 10.035,9.370 10.024,8.220 10.016 C 7.648 10.011,7.050 10.021,6.890 10.037 M16.000 18.000 L 16.000 20.000 12.000 20.000 L 8.000 20.000 8.000 18.000 L 8.000 16.000 12.000 16.000 L 16.000 16.000 16.000 18.000 " fill="#1A1C1F" stroke="none" fill-rule="evenodd"></path></svg>