<svg xmlns="http://www.w3.org/2000/svg" width="14" height="14" fill="none"><g clip-path="url(#a)"><path fill="#1A1C1F" fill-rule="evenodd" d="M9.1 1.4c.35 0 .7.308.7.7v.7h1.684c.678 0 1.116.612 1.116 1.269v4.44c0 .678-.416 1.291-1.116 1.291H9.8v2.1c0 .394-.306.7-.7.7H4.9c-.372 0-.7-.262-.7-.7V9.8H2.516C1.838 9.8 1.4 9.166 1.4 8.51V4.068c0-.657.394-1.269 1.116-1.269H4.2v-.7c0-.394.328-.7.7-.7zm-.7 7H5.6v2.8h2.8zm2.8-4.2H2.8v4.2h1.4v-.7c0-.35.35-.7.7-.7h4.2c.35 0 .7.35.7.7v.7h1.4z" clip-rule="evenodd"/></g><defs><clipPath id="a"><path fill="#fff" d="M0 0h14v14H0z"/></clipPath></defs></svg>