<svg width="12" height="12" viewBox="0 0 12 12" fill="none" xmlns="http://www.w3.org/2000/svg"><path d="M3.890 1.218 C 3.304 1.231,3.309 1.230,3.162 1.390 C 3.033 1.530,3.016 1.587,3.007 1.930 C 3.002 2.095,2.994 2.267,2.988 2.313 L 2.978 2.395 2.434 2.403 L 1.890 2.411 1.751 2.489 C 1.513 2.622,1.372 2.792,1.262 3.078 L 1.212 3.210 1.204 4.900 C 1.200 5.842,1.206 6.701,1.216 6.842 C 1.232 7.061,1.243 7.111,1.298 7.226 C 1.411 7.463,1.620 7.651,1.872 7.743 C 1.978 7.782,2.040 7.787,2.495 7.795 L 3.000 7.804 3.000 9.093 C 3.000 10.344,3.001 10.384,3.040 10.460 C 3.098 10.573,3.210 10.677,3.338 10.738 L 3.450 10.790 6.015 10.796 C 8.574 10.801,8.579 10.801,8.660 10.760 C 8.771 10.703,8.895 10.575,8.947 10.463 C 8.989 10.371,8.990 10.351,8.996 9.085 L 9.002 7.800 9.426 7.800 C 9.931 7.799,10.088 7.780,10.253 7.700 C 10.419 7.619,10.595 7.429,10.693 7.226 C 10.763 7.079,10.768 7.057,10.782 6.801 C 10.805 6.393,10.803 3.375,10.779 3.212 C 10.737 2.920,10.552 2.671,10.250 2.500 L 10.092 2.411 9.556 2.403 C 9.261 2.399,9.019 2.394,9.018 2.393 C 9.017 2.391,9.010 2.209,9.002 1.988 C 8.988 1.603,8.985 1.582,8.935 1.496 C 8.878 1.400,8.798 1.330,8.670 1.265 C 8.592 1.225,8.550 1.225,6.500 1.216 C 5.350 1.210,4.176 1.212,3.890 1.218 M4.800 4.200 L 4.800 4.800 3.900 4.800 L 3.000 4.800 3.000 4.200 L 3.000 3.600 3.900 3.600 L 4.800 3.600 4.800 4.200 M7.800 8.100 L 7.800 9.600 6.000 9.600 L 4.200 9.600 4.200 8.100 L 4.200 6.600 6.000 6.600 L 7.800 6.600 7.800 8.100 " fill="#1A1C1F" stroke="none" fill-rule="evenodd"></path></svg>