<svg xmlns="http://www.w3.org/2000/svg" width="20" height="20" fill="none"><g clip-path="url(#a)"><path fill="#1A1C1F" fill-rule="evenodd" d="M14 2c.52 0 1.008.39 1.008.91v1.074h1.366c.91 0 1.626.747 1.626 1.626v5.658c0 .878-.65 1.724-1.529 1.724h-1.463v4c0 .52-.389 1.008-.878 1.008H6c-.52 0-1.008-.39-1.008-.878v-4.13H3.626A1.63 1.63 0 0 1 2 11.366V5.74c0-.91.65-1.756 1.528-1.756h1.464v-.976c0-.52.39-1.008.91-1.008zm-1 9H7v5h6zM8 6H5v2h3z" clip-rule="evenodd"/></g><defs><clipPath id="a"><path fill="#fff" d="M0 0h20v20H0z"/></clipPath></defs></svg>