<svg width="12" height="12" viewBox="0 0 12 12" fill="none" xmlns="http://www.w3.org/2000/svg"><path d="M4.170 1.218 C 3.923 1.240,3.758 1.349,3.656 1.557 C 3.615 1.641,3.610 1.685,3.603 2.023 L 3.596 2.396 2.783 2.404 C 2.020 2.412,1.963 2.415,1.857 2.454 C 1.563 2.562,1.341 2.808,1.247 3.132 C 1.215 3.240,1.211 3.424,1.205 5.210 C 1.196 7.486,1.200 7.565,1.320 7.817 C 1.465 8.120,1.724 8.334,2.001 8.379 C 2.074 8.391,2.448 8.400,2.863 8.400 L 3.596 8.400 3.603 9.385 C 3.610 10.366,3.610 10.370,3.656 10.463 C 3.711 10.575,3.850 10.708,3.966 10.761 C 4.047 10.798,4.127 10.799,5.997 10.800 L 7.944 10.800 8.064 10.736 C 8.195 10.667,8.288 10.570,8.356 10.434 C 8.400 10.346,8.400 10.336,8.400 9.373 L 8.400 8.400 9.135 8.400 C 9.549 8.400,9.927 8.391,10.000 8.379 C 10.189 8.348,10.318 8.282,10.465 8.137 C 10.602 8.002,10.683 7.864,10.758 7.637 L 10.802 7.504 10.795 5.387 C 10.789 3.444,10.786 3.260,10.754 3.152 C 10.669 2.866,10.469 2.616,10.228 2.498 C 10.058 2.414,9.933 2.403,9.077 2.401 L 8.404 2.400 8.397 2.025 C 8.390 1.652,8.390 1.649,8.331 1.543 C 8.266 1.427,8.155 1.320,8.033 1.257 C 7.958 1.218,7.906 1.217,6.143 1.210 C 5.146 1.206,4.258 1.210,4.170 1.218 M9.600 5.400 L 9.600 7.200 9.000 7.200 L 8.400 7.200 8.400 6.872 C 8.400 6.471,8.378 6.385,8.233 6.226 C 8.178 6.166,8.090 6.096,8.038 6.069 L 7.941 6.020 6.000 6.020 L 4.059 6.020 3.962 6.069 C 3.910 6.096,3.822 6.166,3.767 6.226 C 3.622 6.385,3.600 6.471,3.600 6.872 L 3.600 7.200 3.000 7.200 L 2.400 7.200 2.400 5.400 L 2.400 3.600 6.000 3.600 L 9.600 3.600 9.600 5.400 M7.200 8.400 L 7.200 9.600 6.000 9.600 L 4.800 9.600 4.800 8.400 L 4.800 7.200 6.000 7.200 L 7.200 7.200 7.200 8.400 " fill="#1A1C1F" stroke="none" fill-rule="evenodd"></path></svg>