<svg xmlns="http://www.w3.org/2000/svg" width="16" height="16" fill="none"><g clip-path="url(#a)"><path fill="#1A1C1F" fill-rule="evenodd" d="M10.4 1.6c.4 0 .8.352.8.8v.8h1.925c.775 0 1.275.7 1.275 1.45v5.075c0 .775-.475 1.475-1.275 1.475H11.2v2.4c0 .45-.35.8-.8.8H5.6c-.425 0-.8-.3-.8-.8v-2.4H2.875C2.1 11.2 1.6 10.475 1.6 9.725V4.65c0-.75.45-1.45 1.275-1.45H4.8v-.8c0-.45.375-.8.8-.8zm-.8 8H6.4v3.2h3.2zm3.2-4.8H3.2v4.8h1.6v-.8c0-.4.4-.8.8-.8h4.8c.4 0 .8.4.8.8v.8h1.6z" clip-rule="evenodd"/></g><defs><clipPath id="a"><path fill="#fff" d="M0 0h16v16H0z"/></clipPath></defs></svg>