<svg xmlns="http://www.w3.org/2000/svg" width="16" height="16" fill="none"><g clip-path="url(#a)"><path fill="#1A1C1F" fill-rule="evenodd" d="M11.2 1.6c.416 0 .807.311.807.728v.859h1.092c.729 0 1.301.598 1.301 1.3v4.528c0 .702-.52 1.378-1.223 1.378h-1.17v3.2c0 .417-.312.807-.703.807H4.8c-.416 0-.807-.312-.807-.702v-3.305H2.901c-.729 0-1.301-.598-1.301-1.3V4.592c0-.729.52-1.405 1.223-1.405h1.17v-.78c0-.417.312-.807.729-.807zm-.8 7.2H5.6v4h4.8zm-4-4H4v1.6h2.4z" clip-rule="evenodd"/></g><defs><clipPath id="a"><path fill="#fff" d="M0 0h16v16H0z"/></clipPath></defs></svg>