<svg width="20" height="20" viewBox="0 0 20 20" fill="none" xmlns="http://www.w3.org/2000/svg"><path d="M6.967 2.029 C 6.538 2.066,6.266 2.242,6.093 2.596 C 6.025 2.736,6.017 2.808,6.005 3.372 L 5.993 3.993 4.638 4.007 C 3.367 4.020,3.272 4.025,3.094 4.090 C 2.605 4.270,2.235 4.680,2.078 5.219 C 2.025 5.399,2.019 5.706,2.008 8.683 C 1.994 12.476,2.000 12.608,2.200 13.028 C 2.442 13.533,2.873 13.890,3.334 13.965 C 3.457 13.984,4.080 14.000,4.773 14.000 L 5.996 14.000 6.006 15.642 C 6.017 17.275,6.017 17.284,6.093 17.438 C 6.189 17.634,6.451 17.881,6.621 17.937 C 6.721 17.970,7.470 17.983,9.992 17.992 L 13.234 18.003 13.435 17.896 C 13.663 17.775,13.796 17.637,13.917 17.400 L 14.000 17.236 14.000 15.618 L 14.000 14.000 15.225 14.000 C 15.915 14.000,16.545 13.984,16.667 13.965 C 16.986 13.913,17.208 13.798,17.448 13.558 C 17.671 13.335,17.809 13.098,17.930 12.728 L 18.003 12.506 17.992 8.978 C 17.982 5.744,17.976 5.434,17.923 5.253 C 17.783 4.777,17.448 4.360,17.047 4.163 C 16.763 4.023,16.556 4.005,15.128 4.002 L 14.006 4.000 13.995 3.375 C 13.983 2.754,13.983 2.749,13.884 2.571 C 13.778 2.379,13.592 2.199,13.391 2.096 C 13.269 2.033,13.160 2.030,10.257 2.018 C 8.603 2.011,7.123 2.016,6.967 2.029 M16.000 9.000 L 16.000 12.000 15.000 12.000 L 14.000 12.000 14.000 11.456 C 14.000 10.778,13.966 10.644,13.727 10.383 C 13.633 10.280,13.484 10.159,13.396 10.115 L 13.236 10.033 10.000 10.033 L 6.764 10.033 6.604 10.115 C 6.516 10.159,6.367 10.280,6.273 10.383 C 6.034 10.644,6.000 10.778,6.000 11.456 L 6.000 12.000 5.000 12.000 L 4.000 12.000 4.000 9.000 L 4.000 6.000 10.000 6.000 L 16.000 6.000 16.000 9.000 M12.000 14.000 L 12.000 16.000 10.000 16.000 L 8.000 16.000 8.000 14.000 L 8.000 12.000 10.000 12.000 L 12.000 12.000 12.000 14.000 " fill="#1A1C1F" stroke="none" fill-rule="evenodd"></path></svg>