<svg width="28" height="28" viewBox="0 0 28 28" fill="none" xmlns="http://www.w3.org/2000/svg"><path d="M8.014 1.939 C 7.607 2.150,7.354 2.405,7.170 2.793 L 7.023 3.103 7.008 4.188 L 6.992 5.273 5.678 5.274 C 4.003 5.274,3.679 5.309,3.224 5.539 C 2.581 5.864,2.139 6.380,1.872 7.116 L 1.727 7.518 1.727 12.250 L 1.727 16.982 1.871 17.380 C 2.194 18.274,2.730 18.812,3.606 19.123 C 3.936 19.241,3.975 19.244,5.469 19.264 L 6.995 19.284 7.009 22.090 L 7.023 24.897 7.167 25.200 C 7.348 25.581,7.673 25.904,8.070 26.100 L 8.375 26.250 14.000 26.250 L 19.625 26.250 19.930 26.100 C 20.327 25.904,20.652 25.581,20.833 25.200 L 20.977 24.897 20.991 22.090 L 21.005 19.284 22.531 19.264 C 24.025 19.244,24.064 19.241,24.394 19.123 C 24.869 18.954,25.130 18.790,25.485 18.437 C 25.812 18.111,25.984 17.821,26.163 17.293 L 26.273 16.970 26.273 12.244 L 26.273 7.518 26.128 7.116 C 25.861 6.380,25.419 5.864,24.776 5.539 C 24.321 5.309,23.997 5.274,22.323 5.274 L 21.009 5.273 20.993 4.188 L 20.977 3.103 20.833 2.800 C 20.659 2.434,20.349 2.117,19.985 1.933 L 19.717 1.797 14.023 1.786 L 8.330 1.775 8.014 1.939 M19.227 4.387 L 19.227 5.273 14.000 5.273 L 8.773 5.273 8.773 4.387 L 8.773 3.500 14.000 3.500 L 19.227 3.500 19.227 4.387 M18.292 7.031 L 24.007 7.062 24.230 7.286 L 24.453 7.509 24.453 12.243 L 24.453 16.978 24.253 17.199 C 23.996 17.483,23.935 17.492,22.272 17.497 L 21.000 17.500 21.000 16.434 L 21.000 15.368 20.856 15.079 C 20.681 14.729,20.359 14.389,20.017 14.193 L 19.763 14.048 14.000 14.048 L 8.237 14.048 7.983 14.193 C 7.641 14.389,7.319 14.729,7.144 15.079 L 7.000 15.368 7.000 16.434 L 7.000 17.500 5.728 17.497 C 4.084 17.492,4.009 17.481,3.755 17.213 L 3.558 17.004 3.523 14.873 C 3.504 13.700,3.498 11.591,3.509 10.186 C 3.532 7.347,3.518 7.465,3.850 7.200 L 4.013 7.070 6.358 7.046 C 10.648 7.002,12.531 7.000,18.292 7.031 M7.671 8.817 C 7.428 8.856,7.270 8.959,7.147 9.158 C 7.002 9.393,6.973 9.669,7.067 9.914 C 7.151 10.136,7.443 10.434,7.618 10.478 C 7.677 10.493,8.609 10.498,9.688 10.491 L 11.650 10.477 11.849 10.345 C 12.451 9.947,12.296 8.949,11.612 8.816 C 11.374 8.770,7.951 8.771,7.671 8.817 M19.227 20.137 L 19.227 24.500 14.000 24.500 L 8.773 24.500 8.773 20.137 L 8.773 15.773 14.000 15.773 L 19.227 15.773 19.227 20.137 M11.745 17.535 L 11.006 17.549 10.780 17.776 C 10.517 18.039,10.455 18.244,10.541 18.567 C 10.616 18.846,10.750 19.022,10.982 19.146 L 11.177 19.250 13.977 19.250 L 16.777 19.250 17.010 19.133 C 17.576 18.850,17.657 18.135,17.170 17.718 L 16.988 17.562 15.482 17.531 C 14.052 17.502,13.446 17.502,11.745 17.535 M11.745 21.035 L 11.006 21.049 10.780 21.276 C 10.517 21.539,10.455 21.744,10.541 22.067 C 10.616 22.346,10.750 22.522,10.982 22.646 L 11.177 22.750 13.977 22.750 L 16.777 22.750 17.010 22.633 C 17.576 22.350,17.657 21.635,17.170 21.218 L 16.988 21.062 15.482 21.031 C 14.052 21.002,13.446 21.002,11.745 21.035 " fill="#1A1C1F" stroke="none" fill-rule="evenodd"></path></svg>