<svg width="20" height="20" viewBox="0 0 20 20" fill="none" xmlns="http://www.w3.org/2000/svg"><path d="M6.500 2.030 C 5.505 2.053,5.516 2.050,5.271 2.316 C 5.058 2.546,5.029 2.646,5.012 3.182 C 5.004 3.439,4.990 3.727,4.980 3.821 L 4.963 3.992 4.056 4.005 L 3.150 4.018 2.918 4.148 C 2.522 4.370,2.286 4.654,2.104 5.129 L 2.019 5.350 2.007 8.167 C 2.001 9.736,2.009 11.169,2.027 11.403 C 2.054 11.768,2.072 11.851,2.163 12.043 C 2.352 12.438,2.700 12.752,3.119 12.905 C 3.297 12.970,3.400 12.979,4.158 12.992 L 5.000 13.007 5.000 15.155 C 5.000 17.239,5.002 17.307,5.067 17.434 C 5.163 17.622,5.349 17.795,5.564 17.896 L 5.750 17.983 10.024 17.993 C 14.291 18.002,14.299 18.002,14.434 17.933 C 14.618 17.839,14.805 17.645,14.903 17.447 L 14.983 17.283 14.993 15.142 L 15.003 13.000 15.710 12.999 C 16.552 12.999,16.813 12.967,17.090 12.832 C 17.361 12.699,17.662 12.373,17.825 12.035 C 17.938 11.800,17.947 11.758,17.971 11.334 C 18.011 10.627,18.005 5.586,17.964 5.334 C 17.886 4.851,17.584 4.451,17.083 4.167 L 16.820 4.018 15.926 4.005 C 15.435 3.998,15.032 3.990,15.030 3.988 C 15.028 3.985,15.016 3.683,15.002 3.317 C 14.976 2.587,14.961 2.530,14.756 2.326 C 14.696 2.266,14.572 2.177,14.482 2.128 L 14.317 2.039 10.850 2.024 C 8.943 2.016,6.986 2.019,6.500 2.030 M8.000 7.000 L 8.000 8.000 6.500 8.000 L 5.000 8.000 5.000 7.000 L 5.000 6.000 6.500 6.000 L 8.000 6.000 8.000 7.000 M13.000 13.500 L 13.000 16.000 10.000 16.000 L 7.000 16.000 7.000 13.500 L 7.000 11.000 10.000 11.000 L 13.000 11.000 13.000 13.500 " fill="#1A1C1F" stroke="none" fill-rule="evenodd"></path></svg>