<svg xmlns="http://www.w3.org/2000/svg" width="28" height="28" fill="none"><g clip-path="url(#a)"><path fill="#1A1C1F" fill-rule="evenodd" d="M19.25 1.75c.957 0 1.75.793 1.75 1.75v1.75h2.625a2.625 2.625 0 0 1 2.625 2.625v8.75a2.626 2.626 0 0 1-2.625 2.625H21v5.25c0 .957-.793 1.75-1.75 1.75H8.75c-.957 0-1.75-.793-1.75-1.75v-5.25H4.375a2.626 2.626 0 0 1-2.625-2.625v-8.75A2.626 2.626 0 0 1 4.375 5.25H7V3.5c0-.957.793-1.75 1.75-1.75zm0 14H8.75v8.75h10.5zM23.625 7H4.375a.863.863 0 0 0-.875.875v8.75c0 .493.383.875.875.875H7v-1.75c0-.957.793-1.75 1.75-1.75h10.5c.957 0 1.75.793 1.75 1.75v1.75h2.625a.863.863 0 0 0 .875-.875v-8.75A.863.863 0 0 0 23.625 7M19.25 3.5H8.75v1.75h10.5zM7 9.625c0-.492.383-.875.875-.875h3.5c.492 0 .875.383.875.875a.864.864 0 0 1-.875.875h-3.5A.864.864 0 0 1 7 9.625m3.5 12.25c0-.492.383-.875.875-.875h5.25c.492 0 .875.383.875.875a.864.864 0 0 1-.875.875h-5.25a.864.864 0 0 1-.875-.875m0-3.5c0-.492.383-.875.875-.875h5.25c.492 0 .875.383.875.875a.864.864 0 0 1-.875.875h-5.25a.864.864 0 0 1-.875-.875" clip-rule="evenodd"/></g><defs><clipPath id="a"><path fill="#fff" d="M0 0h28v28H0z"/></clipPath></defs></svg>