<svg width="16" height="16" viewBox="0 0 16 16" fill="none" xmlns="http://www.w3.org/2000/svg"><path d="M5.253 1.624 C 4.398 1.642,4.414 1.638,4.217 1.853 C 4.044 2.041,4.022 2.116,4.009 2.573 C 4.003 2.793,3.992 3.023,3.984 3.084 L 3.971 3.194 3.245 3.204 L 2.520 3.214 2.334 3.318 C 2.017 3.496,1.829 3.723,1.683 4.103 L 1.615 4.280 1.606 6.533 C 1.601 7.789,1.608 8.935,1.621 9.122 C 1.643 9.414,1.658 9.481,1.731 9.634 C 1.881 9.950,2.160 10.201,2.495 10.324 C 2.638 10.376,2.720 10.383,3.327 10.394 L 4.000 10.405 4.000 12.124 C 4.000 13.791,4.002 13.845,4.054 13.947 C 4.130 14.098,4.279 14.236,4.451 14.317 L 4.600 14.387 8.028 14.394 L 11.456 14.402 11.615 14.299 C 11.764 14.203,11.856 14.094,11.948 13.907 C 11.980 13.839,11.988 13.554,11.994 12.113 L 12.002 10.400 12.568 10.399 C 13.242 10.399,13.450 10.374,13.672 10.265 C 13.889 10.159,14.130 9.898,14.260 9.629 C 14.349 9.443,14.357 9.405,14.376 9.081 C 14.407 8.563,14.404 4.501,14.372 4.283 C 14.315 3.889,14.074 3.564,13.666 3.333 L 13.454 3.213 12.740 3.204 C 12.348 3.199,12.025 3.193,12.024 3.190 C 12.022 3.188,12.012 2.946,12.002 2.651 C 11.984 2.137,11.981 2.111,11.913 1.995 C 11.838 1.867,11.732 1.774,11.560 1.687 C 11.455 1.633,11.406 1.632,8.733 1.620 C 7.237 1.613,5.671 1.615,5.253 1.624 M6.400 5.600 L 6.400 6.400 5.200 6.400 L 4.000 6.400 4.000 5.600 L 4.000 4.800 5.200 4.800 L 6.400 4.800 6.400 5.600 M10.400 10.800 L 10.400 12.800 8.000 12.800 L 5.600 12.800 5.600 10.800 L 5.600 8.800 8.000 8.800 L 10.400 8.800 10.400 10.800 " fill="#1A1C1F" stroke="none" fill-rule="evenodd"></path></svg>