<svg width="32" height="32" viewBox="0 0 32 32" fill="none" xmlns="http://www.w3.org/2000/svg"><path d="M9.159 2.216 C 8.693 2.457,8.405 2.749,8.195 3.192 L 8.027 3.547 8.009 4.787 L 7.991 6.027 6.489 6.027 C 4.574 6.028,4.204 6.068,3.685 6.330 C 2.949 6.702,2.444 7.291,2.140 8.133 L 1.973 8.592 1.973 14.000 L 1.973 19.408 2.138 19.863 C 2.508 20.884,3.120 21.499,4.121 21.855 C 4.499 21.989,4.543 21.993,6.251 22.016 L 7.995 22.039 8.011 25.246 L 8.027 28.453 8.191 28.800 C 8.398 29.235,8.769 29.605,9.223 29.829 L 9.571 30.000 16.000 30.000 L 22.429 30.000 22.774 29.829 C 23.227 29.606,23.600 29.234,23.808 28.800 L 23.973 28.453 23.989 25.246 L 24.005 22.039 25.749 22.016 C 27.457 21.993,27.501 21.989,27.879 21.855 C 28.422 21.662,28.720 21.474,29.126 21.071 C 29.499 20.699,29.696 20.367,29.901 19.764 L 30.027 19.395 30.027 13.993 L 30.027 8.592 29.860 8.133 C 29.556 7.291,29.051 6.702,28.315 6.330 C 27.796 6.068,27.426 6.028,25.512 6.027 L 24.010 6.027 23.992 4.787 L 23.973 3.547 23.809 3.200 C 23.610 2.782,23.256 2.419,22.840 2.209 L 22.533 2.053 16.027 2.041 L 9.520 2.029 9.159 2.216 M21.973 5.013 L 21.973 6.027 16.000 6.027 L 10.027 6.027 10.027 5.013 L 10.027 4.000 16.000 4.000 L 21.973 4.000 21.973 5.013 M20.905 8.036 L 27.436 8.071 27.691 8.326 L 27.947 8.582 27.947 13.992 L 27.947 19.403 27.717 19.656 C 27.424 19.981,27.354 19.991,25.453 19.996 L 24.000 20.000 24.000 18.782 L 24.000 17.564 23.835 17.234 C 23.635 16.833,23.267 16.445,22.877 16.221 L 22.587 16.054 16.000 16.054 L 9.413 16.054 9.123 16.221 C 8.733 16.445,8.365 16.833,8.165 17.234 L 8.000 17.564 8.000 18.782 L 8.000 20.000 6.547 19.996 C 4.667 19.991,4.582 19.979,4.292 19.672 L 4.066 19.433 4.026 16.941 C 4.005 15.570,3.997 13.159,4.010 11.584 C 4.036 8.403,4.021 8.531,4.400 8.229 L 4.587 8.080 7.293 8.053 C 12.254 8.002,14.326 8.000,20.905 8.036 M8.767 10.076 C 8.489 10.121,8.309 10.239,8.168 10.466 C 8.003 10.734,7.969 11.050,8.076 11.331 C 8.173 11.584,8.506 11.924,8.707 11.975 C 8.774 11.992,9.838 11.998,11.072 11.989 L 13.315 11.973 13.542 11.823 C 14.229 11.368,14.052 10.227,13.270 10.076 C 12.999 10.023,9.087 10.024,8.767 10.076 M21.973 23.013 L 21.973 28.000 16.000 28.000 L 10.027 28.000 10.027 23.013 L 10.027 18.027 16.000 18.027 L 21.973 18.027 21.973 23.013 M13.396 20.036 L 12.579 20.056 12.320 20.315 C 12.019 20.616,11.948 20.850,12.047 21.219 C 12.133 21.538,12.285 21.739,12.551 21.881 L 12.773 22.000 15.947 22.000 C 19.307 22.000,19.339 21.998,19.657 21.748 C 19.836 21.607,19.997 21.259,19.999 21.011 C 20.000 20.760,19.803 20.387,19.573 20.206 L 19.387 20.060 16.800 20.038 C 15.377 20.026,13.846 20.025,13.396 20.036 M13.396 24.036 L 12.579 24.056 12.320 24.315 C 12.019 24.616,11.948 24.850,12.047 25.219 C 12.133 25.538,12.285 25.739,12.551 25.881 L 12.773 26.000 15.947 26.000 C 19.307 26.000,19.339 25.998,19.657 25.748 C 19.836 25.607,19.997 25.259,19.999 25.011 C 20.000 24.760,19.803 24.387,19.573 24.206 L 19.387 24.060 16.800 24.038 C 15.377 24.026,13.846 24.025,13.396 24.036 " fill="#1A1C1F" stroke="none" fill-rule="evenodd"></path></svg>