<svg width="14" height="14" viewBox="0 0 14 14" fill="none" xmlns="http://www.w3.org/2000/svg"><path d="M4.877 1.421 C 4.576 1.446,4.386 1.569,4.265 1.817 C 4.217 1.915,4.212 1.966,4.204 2.363 L 4.195 2.800 3.387 2.801 C 2.381 2.803,2.242 2.815,2.044 2.916 C 1.769 3.055,1.549 3.330,1.454 3.654 C 1.418 3.779,1.413 3.994,1.406 6.078 C 1.396 8.733,1.400 8.826,1.540 9.119 C 1.709 9.473,2.011 9.723,2.334 9.775 C 2.420 9.789,2.856 9.800,3.341 9.800 L 4.197 9.800 4.204 10.949 C 4.212 12.093,4.212 12.099,4.265 12.207 C 4.332 12.343,4.516 12.517,4.634 12.556 C 4.705 12.579,5.228 12.588,6.993 12.594 L 9.260 12.602 9.379 12.542 C 9.530 12.466,9.665 12.331,9.741 12.182 L 9.800 12.065 9.800 10.932 L 9.800 9.800 10.658 9.800 C 11.129 9.799,11.581 9.790,11.661 9.778 C 12.072 9.718,12.386 9.413,12.551 8.910 L 12.602 8.754 12.594 6.285 C 12.587 4.021,12.583 3.803,12.546 3.677 C 12.448 3.344,12.213 3.052,11.933 2.914 C 11.734 2.816,11.589 2.804,10.590 2.802 L 9.804 2.800 9.796 2.363 C 9.788 1.960,9.783 1.917,9.734 1.824 C 9.665 1.694,9.505 1.534,9.381 1.470 C 9.284 1.421,9.270 1.421,7.179 1.412 C 6.022 1.407,4.986 1.411,4.877 1.421 M11.200 6.300 L 11.200 8.400 10.500 8.400 L 9.800 8.400 9.800 8.019 C 9.800 7.545,9.776 7.451,9.609 7.268 C 9.543 7.196,9.439 7.111,9.377 7.080 L 9.265 7.023 7.000 7.023 L 4.735 7.023 4.623 7.080 C 4.561 7.111,4.457 7.196,4.391 7.268 C 4.224 7.451,4.200 7.545,4.200 8.019 L 4.200 8.400 3.500 8.400 L 2.800 8.400 2.800 6.300 L 2.800 4.200 7.000 4.200 L 11.200 4.200 11.200 6.300 M8.400 9.800 L 8.400 11.200 7.000 11.200 L 5.600 11.200 5.600 9.800 L 5.600 8.400 7.000 8.400 L 8.400 8.400 8.400 9.800 " fill="#1A1C1F" stroke="none" fill-rule="evenodd"></path></svg>