<svg xmlns="http://www.w3.org/2000/svg" width="14" height="14" fill="none"><g clip-path="url(#a)"><path fill="#1A1C1F" fill-rule="evenodd" d="M9.8 1.4c.364 0 .706.272.706.637v.752h.956c.637 0 1.138.523 1.138 1.138v3.96c0 .615-.455 1.207-1.07 1.207h-1.024v2.8c0 .364-.273.706-.615.706H4.2c-.364 0-.706-.273-.706-.615v-2.89h-.956A1.14 1.14 0 0 1 1.4 7.955V4.018c0-.638.455-1.23 1.07-1.23h1.024v-.682c0-.365.273-.706.638-.706zm-.7 6.3H4.9v3.5h4.2zM5.6 4.2H3.5v1.4h2.1z" clip-rule="evenodd"/></g><defs><clipPath id="a"><path fill="#fff" d="M0 0h14v14H0z"/></clipPath></defs></svg>