<svg width="14" height="14" viewBox="0 0 14 14" fill="none" xmlns="http://www.w3.org/2000/svg"><path d="M4.573 1.421 C 3.851 1.437,3.862 1.434,3.690 1.621 C 3.541 1.783,3.520 1.852,3.508 2.227 C 3.503 2.408,3.493 2.609,3.486 2.675 L 3.474 2.795 2.850 2.803 L 2.226 2.812 2.065 2.893 C 1.787 3.034,1.603 3.251,1.473 3.591 L 1.414 3.745 1.405 5.717 C 1.401 6.815,1.407 7.818,1.419 7.982 C 1.438 8.238,1.450 8.296,1.514 8.430 C 1.646 8.706,1.890 8.926,2.184 9.034 C 2.308 9.079,2.380 9.085,2.911 9.094 L 3.500 9.105 3.500 10.614 L 3.500 12.124 3.570 12.235 C 3.665 12.385,3.744 12.455,3.897 12.527 L 4.025 12.588 7.017 12.595 C 10.003 12.601,10.009 12.601,10.104 12.553 C 10.233 12.487,10.362 12.353,10.431 12.214 L 10.488 12.098 10.495 10.599 L 10.502 9.100 10.997 9.100 C 11.587 9.099,11.769 9.077,11.963 8.982 C 12.153 8.890,12.364 8.661,12.477 8.425 C 12.555 8.263,12.562 8.229,12.579 7.946 C 12.606 7.493,12.603 3.939,12.576 3.748 C 12.526 3.403,12.314 3.119,11.958 2.917 L 11.774 2.813 11.149 2.804 C 10.805 2.799,10.522 2.793,10.521 2.791 C 10.520 2.790,10.511 2.578,10.503 2.321 C 10.487 1.867,10.485 1.850,10.423 1.744 C 10.362 1.640,10.247 1.544,10.092 1.464 C 10.031 1.433,9.713 1.427,7.618 1.418 C 6.297 1.412,4.926 1.414,4.573 1.421 M5.600 4.900 L 5.600 5.600 4.550 5.600 L 3.500 5.600 3.500 4.900 L 3.500 4.200 4.550 4.200 L 5.600 4.200 5.600 4.900 M9.100 9.450 L 9.100 11.200 7.000 11.200 L 4.900 11.200 4.900 9.450 L 4.900 7.700 7.000 7.700 L 9.100 7.700 9.100 9.450 " fill="#1A1C1F" stroke="none" fill-rule="evenodd"></path></svg>