<svg xmlns="http://www.w3.org/2000/svg" width="20" height="20" fill="none"><path fill="#1A1C1F" fill-rule="evenodd" d="M5.669 2.039c-.246.071-.491.304-.608.578-.027.063-.049.331-.06.733l-.018.633L4.081 4l-.901.017-.255.125c-.427.212-.751.642-.873 1.16-.077.324-.077 6.154-.001 6.447.155.596.627 1.06 1.219 1.2.157.037.413.05.972.051H5v2.142l.001 2.141.079.17c.097.208.314.393.566.482.181.063.301.065 4.413.065h4.228l.173-.086a.98.98 0 0 0 .473-.538c.064-.172.067-.257.067-2.277V13h.793c1.079 0 1.3-.063 1.702-.481.201-.209.294-.361.417-.684.07-.183.071-.217.081-3.283.006-2.094-.002-3.154-.026-3.269a1.66 1.66 0 0 0-.893-1.125l-.285-.141L15.903 4l-.886-.017L15 3.317c-.016-.655-.018-.67-.109-.824-.099-.168-.218-.271-.458-.398l-.15-.078-4.25-.006c-2.735-.004-4.29.006-4.364.028M8 7v1H5V6h3zm5 6.5V16H7v-5h6z"/></svg>