<svg xmlns="http://www.w3.org/2000/svg" width="32" height="32" fill="none"><path fill="#1A1C1F" fill-rule="evenodd" d="M9.27 2.154a1.96 1.96 0 0 0-1.171 1.272C8.016 3.693 8 3.924 8 4.885v1.142H6.278c-1.918 0-2.077.02-2.701.348-.654.344-1.159.949-1.429 1.714L2 8.507v10.986l.148.418c.342.968.98 1.605 1.941 1.938.415.144.429.145 2.164.167L8 22.037v3.105c0 2.68.012 3.145.085 3.395a2.07 2.07 0 0 0 1.235 1.339l.307.124h12.746l.307-.124a2.07 2.07 0 0 0 1.235-1.339c.073-.25.085-.715.085-3.395v-3.105l1.747-.021c1.735-.022 1.749-.023 2.164-.167a2.95 2.95 0 0 0 1.243-.789c.354-.37.519-.641.699-1.152l.147-.415V8.507l-.148-.418c-.27-.765-.775-1.37-1.429-1.714-.624-.328-.783-.348-2.701-.348H24V4.89c0-.882-.019-1.202-.085-1.427a2.03 2.03 0 0 0-1.224-1.326c-.293-.109-.349-.11-6.706-.109l-6.412.001zm12.703 2.859v1.014H10.027V4h11.946zm5.551 3.143c.105.071.249.215.32.32l.129.191v10.666l-.13.193c-.072.106-.214.25-.316.32-.185.127-.195.127-1.853.143l-1.667.015-.017-1.243-.017-1.244-.173-.351a2.22 2.22 0 0 0-1.015-.996l-.305-.143H9.52l-.305.143a2.22 2.22 0 0 0-1.015.996l-.173.351-.017 1.244-.017 1.243-1.667-.015c-1.663-.016-1.668-.016-1.855-.144a1.5 1.5 0 0 1-.316-.316l-.128-.188-.015-5.221c-.009-3.395.005-5.291.04-5.421.064-.24.384-.576.611-.642.095-.028 4.924-.044 11.417-.039l11.253.009zM8.56 10.111a.93.93 0 0 0-.486.536c-.169.445-.013.917.397 1.198l.188.128 2.244.016c1.925.013 2.275.003 2.461-.068.76-.289.845-1.379.138-1.776-.208-.117-.235-.118-2.496-.118-1.967 0-2.308.012-2.446.084m13.413 12.902V28H10.027v-9.973h11.946zm-9.308-2.957c-.203.06-.498.343-.593.569-.156.372-.028.876.292 1.146.092.077.288.166.437.198.374.08 6.026.079 6.401-.001.879-.189 1.078-1.301.324-1.811l-.193-.13-3.253-.01c-1.795-.005-3.326.012-3.415.039m0 4c-.203.06-.498.343-.593.569-.156.372-.028.876.292 1.146.092.077.288.166.437.198.374.08 6.026.079 6.401-.001.879-.189 1.078-1.301.324-1.811l-.193-.13-3.253-.01c-1.795-.005-3.326.012-3.415.039"/></svg>