<svg xmlns="http://www.w3.org/2000/svg" width="20" height="20" fill="none"><g clip-path="url(#a)"><path fill="#1A1C1F" fill-rule="evenodd" d="M13 2c.5 0 1 .44 1 1v1h2.406C17.375 4 18 4.875 18 5.813v6.343c0 .969-.594 1.844-1.594 1.844H14v3c0 .563-.437 1-1 1H7c-.531 0-1-.375-1-1v-3H3.594C2.625 14 2 13.094 2 12.156V5.812C2 4.876 2.563 4 3.594 4H6V3c0-.562.469-1 1-1zm-1 10H8v4h4zm4-6H4v6h2v-1c0-.5.5-1 1-1h6c.5 0 1 .5 1 1v1h2z" clip-rule="evenodd"/></g><defs><clipPath id="a"><path fill="#fff" d="M0 0h20v20H0z"/></clipPath></defs></svg>