<svg width="16" height="16" viewBox="0 0 16 16" fill="none" xmlns="http://www.w3.org/2000/svg"><path d="M5.573 1.624 C 5.230 1.653,5.013 1.793,4.875 2.077 C 4.820 2.188,4.813 2.246,4.804 2.697 L 4.794 3.195 3.711 3.206 C 2.693 3.216,2.617 3.220,2.476 3.272 C 2.084 3.416,1.788 3.744,1.662 4.176 C 1.620 4.319,1.615 4.565,1.606 6.947 C 1.595 9.981,1.600 10.086,1.760 10.422 C 1.953 10.827,2.299 11.112,2.668 11.172 C 2.765 11.187,3.264 11.200,3.818 11.200 L 4.796 11.200 4.805 12.513 C 4.813 13.820,4.814 13.827,4.874 13.951 C 4.956 14.116,5.164 14.307,5.310 14.351 C 5.403 14.380,5.952 14.387,8.040 14.387 L 10.653 14.387 10.812 14.280 C 10.914 14.211,11.009 14.117,11.078 14.014 L 11.187 13.854 11.194 12.527 L 11.201 11.200 12.181 11.200 C 12.732 11.200,13.236 11.187,13.333 11.172 C 13.589 11.131,13.767 11.038,13.958 10.847 C 14.135 10.670,14.225 10.519,14.336 10.212 L 14.403 10.026 14.394 7.193 C 14.385 4.596,14.381 4.347,14.338 4.202 C 14.226 3.822,13.958 3.488,13.637 3.330 C 13.410 3.218,13.245 3.204,12.102 3.202 L 11.205 3.200 11.195 2.700 C 11.186 2.240,11.181 2.191,11.124 2.084 C 11.046 1.935,10.863 1.753,10.719 1.680 C 10.607 1.622,10.602 1.622,8.203 1.613 C 6.882 1.608,5.698 1.613,5.573 1.624 M12.800 7.200 L 12.800 9.600 12.000 9.600 L 11.200 9.600 11.200 9.165 C 11.200 8.622,11.173 8.515,10.982 8.306 C 10.907 8.224,10.787 8.127,10.717 8.092 L 10.588 8.027 8.000 8.027 L 5.412 8.027 5.283 8.092 C 5.213 8.127,5.093 8.224,5.018 8.306 C 4.827 8.515,4.800 8.622,4.800 9.165 L 4.800 9.600 4.000 9.600 L 3.200 9.600 3.200 7.200 L 3.200 4.800 8.000 4.800 L 12.800 4.800 12.800 7.200 M9.600 11.200 L 9.600 12.800 8.000 12.800 L 6.400 12.800 6.400 11.200 L 6.400 9.600 8.000 9.600 L 9.600 9.600 9.600 11.200 " fill="#1A1C1F" stroke="none" fill-rule="evenodd"></path></svg>