<svg xmlns="http://www.w3.org/2000/svg" width="12" height="12" fill="none"><g clip-path="url(#a)"><path fill="#1A1C1F" fill-rule="evenodd" d="M8.4 1.2c.312 0 .605.234.605.546v.644h.82c.546 0 .975.449.975.976V6.76c0 .527-.39 1.034-.917 1.034h-.878v2.4c0 .312-.234.605-.527.605H3.6c-.312 0-.605-.234-.605-.527V7.795h-.82A.98.98 0 0 1 1.2 6.82V3.444c0-.546.39-1.054.917-1.054h.878v-.585c0-.312.234-.605.546-.605zm-.6 5.4H4.2v3h3.6zm-3-3H3v1.2h1.8z" clip-rule="evenodd"/></g><defs><clipPath id="a"><path fill="#fff" d="M0 0h12v12H0z"/></clipPath></defs></svg>