<svg width="32" height="32" viewBox="0 0 32 32" fill="none" xmlns="http://www.w3.org/2000/svg"><path d="M7.280 2.557 C 6.315 2.714,5.585 3.156,4.503 4.237 C 3.015 5.721,2.433 7.180,2.523 9.200 C 2.647 12.006,4.407 15.641,7.338 19.147 C 8.537 20.580,10.503 22.608,11.840 23.788 C 15.680 27.179,19.526 29.232,22.427 29.440 C 23.957 29.550,24.914 29.393,25.946 28.863 C 26.609 28.522,27.118 28.122,27.869 27.352 C 28.549 26.655,28.941 26.150,29.126 25.731 C 29.668 24.507,29.581 23.046,28.907 22.041 C 28.651 21.659,26.047 18.937,25.350 18.324 C 24.452 17.533,23.771 17.269,22.613 17.264 C 21.606 17.260,21.065 17.423,20.424 17.925 C 20.264 18.050,19.760 18.520,19.304 18.968 L 18.476 19.784 18.131 19.509 C 17.176 18.747,15.336 16.997,14.153 15.727 C 13.177 14.680,12.395 13.793,12.313 13.640 C 12.271 13.562,12.425 13.384,13.214 12.600 C 14.008 11.811,14.198 11.591,14.356 11.280 C 15.004 10.010,15.007 8.701,14.363 7.520 C 14.212 7.243,13.890 6.890,12.754 5.757 C 10.285 3.295,9.823 2.924,8.908 2.671 C 8.459 2.546,7.678 2.492,7.280 2.557 M8.731 4.679 C 8.961 4.792,9.372 5.155,10.493 6.237 C 12.249 7.932,12.759 8.491,12.852 8.821 C 12.954 9.187,12.905 9.894,12.755 10.199 C 12.670 10.373,12.238 10.848,11.358 11.736 C 9.982 13.123,9.976 13.131,10.050 13.622 C 10.075 13.790,10.192 14.012,10.463 14.408 C 12.108 16.810,14.744 19.485,17.292 21.337 C 17.952 21.816,18.343 22.025,18.583 22.026 C 18.893 22.027,19.185 21.804,20.400 20.635 C 21.881 19.211,21.943 19.171,22.693 19.178 C 23.133 19.182,23.269 19.204,23.467 19.302 C 23.817 19.477,27.117 22.803,27.333 23.200 C 27.484 23.476,27.493 23.529,27.493 24.080 C 27.493 24.594,27.478 24.696,27.367 24.907 C 27.085 25.441,26.212 26.361,25.516 26.858 C 24.666 27.465,23.750 27.667,22.507 27.523 C 20.045 27.237,17.090 25.694,13.898 23.028 C 9.966 19.743,6.546 15.469,5.159 12.107 C 4.646 10.860,4.462 10.011,4.457 8.853 C 4.450 7.379,4.715 6.800,5.972 5.547 C 6.888 4.633,7.234 4.459,8.042 4.509 C 8.323 4.526,8.515 4.573,8.731 4.679 " fill="#1A1C1F" stroke="none" fill-rule="evenodd"></path></svg>