<svg width="28" height="28" viewBox="0 0 28 28" fill="none" xmlns="http://www.w3.org/2000/svg"><path d="M6.370 2.237 C 5.526 2.375,4.905 2.751,3.944 3.705 C 2.929 4.712,2.376 5.766,2.237 6.955 C 1.899 9.864,3.637 13.630,7.160 17.617 C 7.836 18.382,9.495 20.040,10.290 20.746 C 13.223 23.350,15.933 24.948,18.518 25.597 C 19.346 25.806,20.898 25.849,21.583 25.682 C 22.226 25.527,22.914 25.196,23.473 24.774 C 23.908 24.445,24.874 23.461,25.168 23.047 C 25.827 22.117,25.980 20.901,25.574 19.822 C 25.403 19.366,25.154 19.059,23.872 17.723 C 22.005 15.777,21.575 15.432,20.734 15.206 C 20.261 15.079,19.353 15.067,18.888 15.181 C 18.255 15.337,17.957 15.548,16.891 16.597 L 16.166 17.311 15.865 17.071 C 15.016 16.393,13.452 14.906,12.392 13.770 C 11.535 12.850,10.847 12.070,10.774 11.935 C 10.737 11.867,10.872 11.711,11.562 11.025 C 12.433 10.158,12.579 9.959,12.791 9.346 C 12.943 8.906,12.980 8.681,12.979 8.207 C 12.977 7.639,12.882 7.223,12.638 6.720 C 12.453 6.340,12.392 6.270,11.181 5.060 C 9.007 2.889,8.598 2.559,7.794 2.337 C 7.402 2.228,6.718 2.180,6.370 2.237 M7.646 4.098 C 7.840 4.192,8.216 4.525,9.178 5.453 C 10.649 6.872,11.159 7.426,11.238 7.691 C 11.319 7.959,11.307 8.531,11.215 8.800 C 11.148 8.998,10.976 9.194,9.983 10.204 C 8.946 11.259,8.827 11.396,8.797 11.569 C 8.741 11.906,8.808 12.100,9.157 12.609 C 10.595 14.709,12.902 17.050,15.130 18.670 C 15.708 19.089,16.050 19.272,16.260 19.273 C 16.532 19.274,16.787 19.078,17.850 18.056 C 19.146 16.809,19.200 16.775,19.857 16.781 C 20.241 16.784,20.360 16.803,20.533 16.889 C 20.678 16.961,21.218 17.471,22.260 18.519 C 24.017 20.285,24.043 20.319,24.071 20.977 C 24.086 21.325,24.071 21.443,23.987 21.668 C 23.761 22.268,22.637 23.396,21.887 23.776 C 20.885 24.284,19.410 24.217,17.699 23.588 C 17.136 23.381,15.942 22.806,15.405 22.484 C 10.944 19.807,6.159 14.583,4.515 10.593 C 4.065 9.503,3.904 8.759,3.900 7.747 C 3.894 6.456,4.126 5.950,5.225 4.853 C 6.030 4.050,6.332 3.900,7.043 3.948 C 7.289 3.965,7.465 4.009,7.646 4.098 " fill="#1A1C1F" stroke="none" fill-rule="evenodd"></path></svg>