<svg width="20" height="20" viewBox="0 0 20 20" fill="none" xmlns="http://www.w3.org/2000/svg"><path d="M5.717 2.323 C 5.378 2.368,4.787 2.638,4.417 2.917 C 3.913 3.296,3.325 3.984,2.997 4.579 C 2.519 5.444,2.326 6.291,2.400 7.194 C 2.484 8.226,2.981 9.563,3.757 10.844 C 5.141 13.131,7.377 15.320,9.623 16.588 C 11.188 17.471,12.722 17.859,13.822 17.650 C 15.248 17.380,16.701 16.324,17.310 15.117 C 17.711 14.323,17.721 13.595,17.343 12.900 C 17.174 12.591,15.514 10.935,15.213 10.776 C 14.644 10.475,13.953 10.581,13.433 11.051 C 13.314 11.158,12.924 11.535,12.566 11.889 L 11.916 12.533 11.500 12.178 C 10.632 11.438,10.021 10.862,9.175 9.987 C 8.690 9.484,7.630 8.325,7.544 8.201 C 7.499 8.138,7.540 8.090,8.190 7.424 C 9.057 6.536,9.182 6.389,9.283 6.141 C 9.465 5.692,9.456 5.278,9.254 4.849 C 9.139 4.604,8.961 4.397,7.926 3.296 C 7.419 2.757,7.203 2.584,6.865 2.447 C 6.565 2.325,6.090 2.274,5.717 2.323 " fill="#1A1C1F" stroke="none" fill-rule="evenodd"></path></svg>