<svg width="12" height="12" viewBox="0 0 12 12" fill="none" xmlns="http://www.w3.org/2000/svg"><path d="M3.430 1.394 C 3.145 1.432,2.751 1.641,2.466 1.906 C 1.980 2.359,1.649 2.906,1.489 3.524 C 1.441 3.708,1.420 4.070,1.441 4.327 C 1.545 5.578,2.582 7.321,4.000 8.629 C 5.128 9.670,6.206 10.304,7.270 10.552 C 7.488 10.603,7.544 10.608,7.890 10.608 C 8.243 10.608,8.284 10.604,8.470 10.553 C 9.538 10.258,10.443 9.381,10.562 8.527 C 10.598 8.266,10.544 7.993,10.406 7.740 C 10.349 7.636,10.226 7.502,9.792 7.068 C 9.194 6.472,9.125 6.421,8.853 6.375 C 8.612 6.333,8.322 6.413,8.121 6.575 C 8.071 6.616,7.832 6.844,7.589 7.083 L 7.149 7.518 6.899 7.307 C 6.429 6.908,6.050 6.553,5.532 6.020 C 5.258 5.740,4.660 5.086,4.556 4.955 L 4.496 4.879 4.957 4.412 C 5.212 4.153,5.453 3.891,5.496 3.824 C 5.684 3.533,5.691 3.104,5.512 2.823 C 5.394 2.639,4.499 1.690,4.350 1.591 C 4.092 1.420,3.765 1.350,3.430 1.394 " fill="#1A1C1F" stroke="none" fill-rule="evenodd"></path></svg>