<svg xmlns="http://www.w3.org/2000/svg" width="24" height="24" fill="none"><g clip-path="url(#a)"><path fill="#1A1C1F" fill-rule="evenodd" d="M7.033 2.36c.865 0 1.496.303 2.034.84l2.71 2.735c.328.35.492.795.492 1.309s-.187 1.075-.632 1.496l-1.612 1.636c1.262 1.682 1.753 2.197 3.599 3.669l1.59-1.636c.42-.444.958-.654 1.518-.654.421 0 .889.116 1.192.444l2.781 2.828c.515.537.772 1.191.795 1.916a3.45 3.45 0 0 1-.865 2.15c-1.449 1.683-2.71 2.548-4.72 2.548-2.571 0-5.633-1.566-8.741-4.745-3.32-3.482-4.885-6.614-4.651-9.418.233-2.524 2.78-5.119 4.51-5.119m.117 1.986c-1.075 0-2.617 1.963-2.71 3.202-.351 4.79 7.267 12.153 11.287 12.153 1.613 0 2.22-.468 3.46-1.87.256-.28.373-.584.373-.888a.82.82 0 0 0-.21-.561l-2.688-2.71-2.243 2.266c-.187.187-.374.304-.585.304-.748 0-2.617-1.59-3.552-2.5-.795-.796-2.454-2.829-2.454-3.483 0-.584.841-1.262 2.548-2.992l-2.712-2.71a.69.69 0 0 0-.514-.211" clip-rule="evenodd"/></g><defs><clipPath id="a"><path fill="#fff" d="M0 0h24v24H0z"/></clipPath></defs></svg>