<svg xmlns="http://www.w3.org/2000/svg" width="12" height="12" fill="none"><g clip-path="url(#a)"><path fill="#1A1C1F" fill-rule="evenodd" d="M1.425 4.047c0 2.663 3.883 6.581 6.499 6.581 1.207 0 2.651-1.172 2.651-2.249 0-.32-.106-.639-.355-.888l-.84-.852a.9.9 0 0 0-.652-.284c-.26 0-.52.107-.71.296l-.864.864C6.148 6.71 5.461 5.988 4.491 4.887l.864-.876c.19-.189.296-.45.296-.71a.9.9 0 0 0-.225-.604l-.876-.946a1.22 1.22 0 0 0-.923-.38c-1.042 0-2.202 1.433-2.202 2.676" clip-rule="evenodd"/></g><defs><clipPath id="a"><path fill="#fff" d="M0 0h12v12H0z"/></clipPath></defs></svg>