<svg xmlns="http://www.w3.org/2000/svg" width="32" height="32" fill="none"><path fill="#1A1C1F" fill-rule="evenodd" d="M7.093 2.586c-.752.15-1.279.446-2.099 1.177C3.731 4.889 3 5.976 2.684 7.194c-.184.709-.228 1.913-.101 2.774.529 3.588 3.132 7.824 7.441 12.112 3.658 3.639 7.342 6.092 10.529 7.01 1.129.325 1.488.375 2.674.372.98-.003 1.109-.015 1.593-.145a5.7 5.7 0 0 0 1.869-.899c.84-.598 1.993-1.822 2.34-2.486.668-1.28.603-2.846-.167-3.98-.108-.157-.975-1.085-1.929-2.062-1.747-1.789-2.061-2.062-2.687-2.336-.879-.385-2.137-.427-3.019-.1-.52.192-.862.457-1.814 1.403l-.933.928-.373-.296c-.931-.74-2.541-2.263-3.829-3.622-1.021-1.078-2.011-2.211-2.011-2.302 0-.027.362-.394.804-.816s.897-.888 1.01-1.038c.862-1.143 1.014-2.759.378-4.021a5 5 0 0 0-.396-.624c-.332-.437-3.646-3.627-4.054-3.901a3.91 3.91 0 0 0-2.916-.579m1.66 2.093c.304.15.588.408 2.168 1.974 1.703 1.687 1.824 1.819 1.915 2.094.147.449.125 1.018-.056 1.416-.124.272-.324.493-1.396 1.544-.689.676-1.274 1.294-1.304 1.376-.076.215-.066.544.024.76.092.219.767 1.174 1.337 1.889 1.747 2.195 4.126 4.433 6.27 5.9.557.381.777.447 1.152.346.184-.05.436-.27 1.522-1.331 1.173-1.145 1.334-1.284 1.619-1.391.262-.099.393-.116.769-.097.755.038.766.046 2.629 1.929.903.912 1.725 1.779 1.826 1.926.262.381.378.886.305 1.327-.096.577-.292.896-.998 1.624-1.244 1.28-2.128 1.669-3.628 1.592-1.418-.073-3.14-.647-4.909-1.636C13.32 23.307 7.777 17.558 5.576 13.04c-.807-1.656-1.15-2.922-1.148-4.24.001-1.339.3-1.997 1.434-3.162.937-.961 1.315-1.166 2.113-1.144.36.011.483.04.778.185"/></svg>