<svg width="16" height="16" viewBox="0 0 16 16" fill="none" xmlns="http://www.w3.org/2000/svg"><path d="M4.573 1.859 C 4.303 1.894,3.830 2.110,3.533 2.333 C 2.787 2.894,2.153 3.895,1.959 4.819 C 1.893 5.134,1.899 5.798,1.972 6.168 C 2.416 8.415,4.502 11.171,7.045 12.870 C 8.505 13.845,10.019 14.317,11.058 14.120 C 12.198 13.904,13.362 13.058,13.848 12.093 C 14.168 11.459,14.176 10.874,13.874 10.320 C 13.739 10.072,12.411 8.748,12.171 8.621 C 11.752 8.399,11.210 8.458,10.829 8.767 C 10.762 8.821,10.442 9.126,10.119 9.445 L 9.532 10.024 9.199 9.742 C 8.541 9.185,8.060 8.731,7.349 7.999 C 6.975 7.613,6.106 6.663,6.035 6.561 C 6.000 6.510,6.032 6.472,6.552 5.939 C 7.246 5.228,7.346 5.112,7.426 4.913 C 7.572 4.554,7.565 4.222,7.403 3.880 C 7.311 3.683,7.169 3.518,6.341 2.637 C 5.935 2.206,5.762 2.067,5.492 1.957 C 5.252 1.860,4.872 1.819,4.573 1.859 " fill="#1A1C1F" stroke="none" fill-rule="evenodd"></path></svg>