<svg xmlns="http://www.w3.org/2000/svg" width="16" height="16" fill="none"><g clip-path="url(#a)"><path fill="#1A1C1F" fill-rule="evenodd" d="M4.867 1.829c.426 0 .852.142 1.168.473l1.91 1.926c.252.253.363.552.363.868 0 .347-.142.694-.395.947l-.647.647c.79 1.03 1.039 1.329 2.02 2.052l.695-.695c.252-.252.584-.347.884-.347.315 0 .615.126.868.363l1.893 1.926c.332.331.474.757.474 1.183 0 1.168-1.815 2.999-3.267 2.999-3.796 0-8.933-5.136-8.933-8.775 0-1.667 1.543-3.567 2.967-3.567M4.85 3.363c-.03-.003-.078.013-.125.044-.663.316-1.278 1.247-1.278 1.989 0 2.71 4.553 7.212 7.118 7.212.82 0 1.247-.363 1.925-1.199.126-.19.095-.268.047-.347l-1.672-1.689-.947.916c-.158.126-.332.236-.553.236-.855 0-3.867-3.003-3.867-3.93a.66.66 0 0 1 .221-.52l.916-.947-1.689-1.72a.12.12 0 0 0-.096-.045" clip-rule="evenodd"/></g><defs><clipPath id="a"><path fill="#fff" d="M0 0h16v16H0z"/></clipPath></defs></svg>