<svg xmlns="http://www.w3.org/2000/svg" width="14" height="14" fill="none"><g clip-path="url(#a)"><path fill="#1A1C1F" fill-rule="evenodd" d="M4.259 1.6c.373 0 .745.125 1.022.415l1.67 1.684c.222.221.318.484.318.76 0 .304-.124.608-.345.829l-.566.566c.691.9.909 1.162 1.767 1.795l.608-.608a1.103 1.103 0 0 1 1.533.014l1.657 1.685c.29.29.415.663.415 1.036 0 1.022-1.589 2.624-2.86 2.624-3.32 0-7.816-4.494-7.816-7.679 0-1.458 1.35-3.12 2.597-3.12m-.016 1.343c-.026-.003-.067.01-.109.038-.58.277-1.118 1.091-1.118 1.74 0 2.371 3.984 6.311 6.228 6.311.718 0 1.091-.317 1.685-1.05.11-.165.083-.234.041-.303L9.506 8.201l-.828.801c-.138.11-.29.208-.483.208-.749 0-3.384-2.629-3.384-3.44 0-.179.055-.33.193-.455l.801-.828L4.328 2.98a.1.1 0 0 0-.085-.038" clip-rule="evenodd"/></g><defs><clipPath id="a"><path fill="#fff" d="M0 0h14v14H0z"/></clipPath></defs></svg>