<svg width="12" height="12" viewBox="0 0 12 12" fill="none" xmlns="http://www.w3.org/2000/svg"><path d="M3.419 1.400 C 3.123 1.447,2.736 1.656,2.440 1.929 C 1.954 2.378,1.603 2.988,1.468 3.620 C 1.411 3.890,1.419 4.339,1.488 4.670 C 1.629 5.353,1.968 6.126,2.425 6.809 C 3.659 8.651,5.632 10.156,7.302 10.527 C 7.901 10.661,8.353 10.652,8.734 10.500 C 9.117 10.347,9.425 10.137,9.787 9.782 C 10.075 9.500,10.290 9.220,10.409 8.974 C 10.527 8.728,10.566 8.573,10.566 8.340 C 10.566 8.111,10.498 7.881,10.376 7.698 C 10.285 7.563,9.098 6.332,8.821 6.088 C 8.716 5.994,8.584 5.896,8.527 5.868 C 8.341 5.776,8.021 5.759,7.821 5.830 C 7.687 5.877,7.566 5.973,7.256 6.276 L 6.962 6.564 6.716 6.368 C 6.307 6.042,5.904 5.619,5.541 5.135 L 5.455 5.020 5.734 4.733 C 6.054 4.403,6.125 4.304,6.183 4.114 C 6.217 4.003,6.223 3.942,6.215 3.784 C 6.201 3.480,6.163 3.407,5.849 3.071 C 5.391 2.581,4.386 1.604,4.274 1.540 C 4.053 1.412,3.702 1.355,3.419 1.400 M4.314 3.175 C 4.669 3.535,4.960 3.839,4.960 3.850 C 4.960 3.862,4.905 3.925,4.838 3.991 C 4.614 4.210,4.198 4.666,4.166 4.728 C 4.145 4.767,4.133 4.842,4.133 4.930 C 4.133 5.050,4.143 5.092,4.205 5.226 C 4.451 5.752,5.124 6.535,5.925 7.226 C 6.375 7.615,6.843 7.900,7.030 7.900 C 7.122 7.900,7.303 7.816,7.420 7.719 C 7.484 7.665,7.674 7.488,7.841 7.326 L 8.144 7.031 8.782 7.674 C 9.385 8.282,9.420 8.321,9.420 8.390 C 9.420 8.475,9.359 8.571,9.164 8.794 C 8.618 9.421,8.132 9.575,7.360 9.367 C 6.831 9.225,6.174 8.875,5.552 8.404 C 4.908 7.917,4.163 7.172,3.673 6.524 C 3.126 5.802,2.731 5.005,2.629 4.420 C 2.578 4.130,2.597 3.820,2.678 3.601 C 2.798 3.277,3.049 2.910,3.268 2.742 C 3.401 2.639,3.600 2.520,3.638 2.520 C 3.654 2.520,3.959 2.815,4.314 3.175 " fill="#1A1C1F" stroke="none" fill-rule="evenodd"></path></svg>