<svg xmlns="http://www.w3.org/2000/svg" width="16" height="16" fill="none"><g clip-path="url(#a)"><path fill="#1A1C1F" fill-rule="evenodd" d="M1.9 5.396c0 3.551 5.177 8.775 8.665 8.775 1.61 0 3.535-1.562 3.535-2.999 0-.426-.142-.852-.473-1.183l-1.121-1.137a1.2 1.2 0 0 0-.868-.379c-.347 0-.694.143-.947.395L9.539 10.02C8.197 8.947 7.282 7.984 5.988 6.516L7.14 5.35c.252-.253.394-.6.394-.947 0-.284-.094-.584-.3-.805L6.068 2.334c-.348-.363-.774-.505-1.231-.505-1.39 0-2.936 1.91-2.936 3.567" clip-rule="evenodd"/></g><defs><clipPath id="a"><path fill="#fff" d="M0 0h16v16H0z"/></clipPath></defs></svg>