<svg width="20" height="20" viewBox="0 0 20 20" fill="none" xmlns="http://www.w3.org/2000/svg"><path d="M5.698 2.333 C 5.215 2.410,4.575 2.753,4.083 3.197 C 3.283 3.921,2.671 4.980,2.447 6.033 C 2.352 6.481,2.366 7.229,2.480 7.783 C 2.891 9.783,4.149 11.881,6.116 13.851 C 6.780 14.516,7.252 14.927,7.972 15.467 C 9.882 16.898,11.850 17.700,13.455 17.700 C 14.040 17.700,14.484 17.577,15.095 17.244 C 15.947 16.781,16.969 15.743,17.348 14.957 C 17.537 14.566,17.608 14.289,17.611 13.933 C 17.616 13.354,17.443 12.959,16.952 12.425 C 16.318 11.737,14.653 10.077,14.442 9.923 C 14.147 9.710,13.959 9.654,13.533 9.655 C 12.970 9.656,12.834 9.733,12.094 10.459 L 11.605 10.940 11.194 10.613 C 10.514 10.072,9.842 9.367,9.236 8.559 L 9.093 8.367 9.560 7.883 C 10.098 7.327,10.209 7.172,10.305 6.857 C 10.361 6.672,10.371 6.570,10.359 6.307 C 10.334 5.792,10.276 5.681,9.714 5.084 C 8.910 4.229,7.310 2.674,7.122 2.566 C 6.755 2.354,6.169 2.258,5.698 2.333 M7.190 5.291 C 7.782 5.892,8.267 6.398,8.267 6.417 C 8.267 6.436,8.175 6.542,8.063 6.651 C 7.689 7.016,6.997 7.776,6.943 7.880 C 6.910 7.944,6.889 8.072,6.887 8.217 C 6.885 8.420,6.901 8.485,7.010 8.713 C 7.431 9.601,8.543 10.893,9.875 12.044 C 10.624 12.691,11.404 13.167,11.717 13.167 C 11.870 13.167,12.172 13.026,12.366 12.864 C 12.474 12.775,12.790 12.480,13.068 12.210 L 13.574 11.719 14.637 12.790 C 15.642 13.803,15.700 13.868,15.700 13.983 C 15.700 14.065,15.666 14.154,15.596 14.256 C 15.275 14.722,14.607 15.354,14.253 15.527 C 13.522 15.883,12.633 15.822,11.482 15.336 C 8.952 14.267,5.888 11.208,4.776 8.641 C 4.446 7.878,4.318 7.290,4.341 6.650 C 4.354 6.299,4.369 6.217,4.462 5.978 C 4.656 5.486,5.121 4.821,5.448 4.568 C 5.669 4.398,6.000 4.200,6.063 4.200 C 6.091 4.200,6.598 4.691,7.190 5.291 " fill="#1A1C1F" stroke="none" fill-rule="evenodd"></path></svg>