<svg xmlns="http://www.w3.org/2000/svg" width="20" height="20" fill="none"><g clip-path="url(#a)"><path fill="#1A1C1F" fill-rule="evenodd" d="M2.375 6.745c0 4.439 6.47 10.969 10.83 10.969 2.013 0 4.42-1.953 4.42-3.749 0-.532-.178-1.065-.592-1.48l-1.4-1.42c-.316-.315-.691-.473-1.086-.473a1.7 1.7 0 0 0-1.183.493l-1.44 1.44c-1.677-1.341-2.822-2.545-4.44-4.38l1.44-1.46a1.7 1.7 0 0 0 .494-1.183c0-.355-.118-.73-.375-1.006l-1.46-1.578c-.434-.454-.966-.632-1.539-.632-1.736 0-3.669 2.387-3.669 4.459" clip-rule="evenodd"/></g><defs><clipPath id="a"><path fill="#fff" d="M0 0h20v20H0z"/></clipPath></defs></svg>