<svg xmlns="http://www.w3.org/2000/svg" width="12" height="12" fill="none"><g clip-path="url(#a)"><path fill="#1A1C1F" fill-rule="evenodd" d="M3.65 1.372c.32 0 .64.106.876.355L5.96 3.17c.189.19.272.414.272.651 0 .26-.107.52-.296.71l-.485.486c.592.772.779.996 1.515 1.538l.52-.52a.945.945 0 0 1 1.314.012l1.42 1.443c.25.25.356.569.356.888 0 .876-1.361 2.25-2.45 2.25-2.847 0-6.7-3.852-6.7-6.582 0-1.25 1.157-2.675 2.225-2.675m-.013 1.15c-.022-.002-.058.01-.093.033-.497.237-.959.936-.959 1.492 0 2.032 3.415 5.41 5.339 5.41.615 0 .935-.273 1.444-.9.094-.142.07-.201.035-.26L8.148 7.03l-.71.686c-.118.095-.248.178-.414.178-.642 0-2.9-2.253-2.9-2.947 0-.154.047-.285.166-.391l.686-.71-1.266-1.29a.09.09 0 0 0-.073-.033" clip-rule="evenodd"/></g><defs><clipPath id="a"><path fill="#fff" d="M0 0h12v12H0z"/></clipPath></defs></svg>