<svg width="14" height="14" viewBox="0 0 14 14" fill="none" xmlns="http://www.w3.org/2000/svg"><path d="M3.984 1.634 C 3.817 1.660,3.548 1.767,3.329 1.894 C 2.561 2.339,1.917 3.267,1.713 4.223 C 1.646 4.537,1.656 5.061,1.736 5.447 C 1.979 6.618,2.628 7.830,3.656 9.031 C 3.951 9.376,4.605 10.030,4.947 10.323 C 6.474 11.630,8.118 12.390,9.418 12.390 C 9.828 12.390,10.139 12.304,10.566 12.071 C 11.164 11.746,11.877 11.021,12.144 10.470 C 12.276 10.196,12.325 10.002,12.328 9.753 C 12.331 9.359,12.209 9.073,11.890 8.722 C 11.491 8.284,10.257 7.054,10.109 6.946 C 9.903 6.797,9.771 6.758,9.473 6.758 C 9.080 6.759,8.987 6.812,8.466 7.322 L 8.123 7.657 7.836 7.429 C 7.360 7.051,6.889 6.557,6.465 5.991 L 6.365 5.857 6.692 5.518 C 7.068 5.129,7.147 5.021,7.214 4.800 C 7.252 4.673,7.260 4.595,7.253 4.414 C 7.245 4.211,7.235 4.169,7.157 4.005 C 7.073 3.829,7.036 3.788,6.084 2.838 C 5.038 1.793,5.002 1.762,4.690 1.670 C 4.534 1.623,4.168 1.605,3.984 1.634 M5.033 3.704 C 5.447 4.124,5.787 4.479,5.787 4.492 C 5.787 4.506,5.723 4.579,5.644 4.656 C 5.383 4.911,4.898 5.443,4.860 5.516 C 4.836 5.562,4.822 5.649,4.822 5.752 C 4.821 5.892,4.833 5.941,4.906 6.097 C 5.193 6.710,5.978 7.624,6.913 8.431 C 7.437 8.884,7.983 9.217,8.202 9.217 C 8.309 9.217,8.520 9.118,8.657 9.005 C 8.732 8.942,8.953 8.736,9.148 8.547 L 9.502 8.203 10.246 8.953 C 10.954 9.667,10.990 9.707,10.990 9.790 C 10.990 9.888,10.910 10.012,10.677 10.276 C 10.142 10.883,9.655 11.098,9.006 11.013 C 8.713 10.975,8.378 10.879,8.037 10.735 C 6.269 9.988,4.121 7.845,3.346 6.055 C 3.113 5.515,3.023 5.106,3.038 4.655 C 3.047 4.398,3.055 4.358,3.133 4.169 C 3.282 3.805,3.581 3.377,3.807 3.203 C 3.967 3.079,4.199 2.940,4.244 2.940 C 4.263 2.940,4.618 3.284,5.033 3.704 " fill="#1A1C1F" stroke="none" fill-rule="evenodd"></path></svg>