<svg xmlns="http://www.w3.org/2000/svg" width="28" height="28" fill="none"><g clip-path="url(#a)"><path fill="#1A1C1F" fill-rule="evenodd" d="M6.885 2.188c.847 0 1.72.327 2.376.982l2.759 2.673a3.35 3.35 0 0 1 .982 2.367c0 .874-.328 1.748-.984 2.376l-1.313 1.284c1.094 1.42 4.129 4.479 5.469 5.435l1.449-1.448c.547-.546 1.34-.792 2.133-.792.902 0 1.796.299 2.451.954l2.65 2.7c.655.655.956 1.474.956 2.347a3.4 3.4 0 0 1-.874 2.291c-1.584 1.855-2.841 2.456-4.643 2.456-3.141 0-7.211-2.21-11.587-6.542-4.337-4.37-6.521-8.436-6.521-11.546 0-1.964.71-3.191 2.567-4.774a3.3 3.3 0 0 1 2.13-.764m.027 1.718c-.436 0-.873.164-1.174.437-1.475 1.31-1.885 2.046-1.885 3.382 0 2.592 2.022 6.275 6.06 10.372 4.046 4.033 7.76 6.024 10.383 6.024 1.283 0 2.075-.382 3.386-1.882.3-.382.437-.791.437-1.173a1.72 1.72 0 0 0-.464-1.173l-2.641-2.67a1.58 1.58 0 0 0-1.149-.492 1.6 1.6 0 0 0-1.093.41l-1.915 1.884a.85.85 0 0 1-.601.246.9.9 0 0 1-.465-.136c-1.367-.929-2.598-1.967-3.773-3.114A25.7 25.7 0 0 1 8.9 12.252a.94.94 0 0 1-.136-.492c0-.218.082-.437.246-.6l1.805-1.748c.355-.328.519-.765.519-1.202a1.6 1.6 0 0 0-.52-1.175l-2.7-2.638a1.7 1.7 0 0 0-1.202-.49" clip-rule="evenodd"/></g><defs><clipPath id="a"><path fill="#fff" d="M0 0h28v28H0z"/></clipPath></defs></svg>