<svg xmlns="http://www.w3.org/2000/svg" width="14" height="14" fill="none"><g clip-path="url(#a)"><path fill="#1A1C1F" fill-rule="evenodd" d="M1.662 4.721c0 3.108 4.53 7.679 7.582 7.679 1.409 0 3.094-1.368 3.094-2.624 0-.373-.125-.746-.415-1.036l-.98-.994a1.06 1.06 0 0 0-.76-.332c-.304 0-.608.125-.828.346L8.346 8.768c-1.173-.94-1.974-1.782-3.107-3.066L6.247 4.68c.221-.221.346-.525.346-.829 0-.248-.083-.51-.263-.704L5.308 2.042c-.304-.317-.676-.442-1.077-.442-1.215 0-2.569 1.671-2.569 3.121" clip-rule="evenodd"/></g><defs><clipPath id="a"><path fill="#fff" d="M0 0h14v14H0z"/></clipPath></defs></svg>