<svg width="24" height="24" viewBox="0 0 24 24" fill="none" xmlns="http://www.w3.org/2000/svg"><path d="M6.380 2.473 C 6.087 2.583,5.533 2.869,5.280 3.040 C 4.676 3.451,3.984 4.178,3.509 4.900 C 2.400 6.584,2.216 8.266,2.906 10.412 C 3.610 12.600,5.234 14.975,7.646 17.340 C 9.096 18.763,10.438 19.770,11.860 20.505 C 13.640 21.425,15.220 21.777,16.691 21.581 C 17.429 21.483,17.963 21.295,18.617 20.905 C 19.053 20.644,19.415 20.339,20.076 19.677 C 20.837 18.915,21.149 18.450,21.366 17.758 C 21.445 17.507,21.460 17.377,21.458 16.940 C 21.456 16.484,21.443 16.383,21.350 16.116 C 21.292 15.949,21.179 15.700,21.098 15.562 C 20.920 15.259,20.172 14.458,18.750 13.051 C 17.590 11.903,17.550 11.874,17.014 11.794 C 16.630 11.737,16.196 11.799,15.865 11.959 C 15.547 12.112,15.095 12.513,14.287 13.358 L 13.633 14.041 13.527 13.964 C 12.924 13.533,11.540 12.250,11.041 11.660 C 10.720 11.280,10.131 10.530,10.076 10.429 C 10.042 10.369,10.170 10.222,10.875 9.503 C 11.336 9.033,11.796 8.537,11.897 8.400 C 12.141 8.068,12.258 7.692,12.257 7.240 C 12.256 6.798,12.162 6.490,11.927 6.160 C 11.697 5.836,8.990 3.119,8.649 2.869 C 8.511 2.768,8.250 2.627,8.069 2.555 C 7.760 2.433,7.704 2.424,7.160 2.412 C 6.669 2.401,6.549 2.410,6.380 2.473 M7.375 4.404 C 7.503 4.439,7.786 4.700,8.955 5.861 L 10.380 7.275 9.335 8.327 C 8.287 9.384,7.967 9.757,7.878 10.025 C 7.772 10.348,7.895 10.684,8.392 11.420 C 9.059 12.408,9.942 13.440,10.743 14.166 C 12.049 15.349,13.116 16.088,13.694 16.209 C 13.871 16.246,13.924 16.242,14.053 16.181 C 14.142 16.138,14.713 15.608,15.437 14.895 L 16.669 13.682 17.989 15.013 C 18.714 15.745,19.359 16.420,19.420 16.513 C 19.648 16.857,19.551 17.361,19.170 17.823 C 18.841 18.223,18.114 18.932,17.813 19.146 C 17.298 19.514,16.679 19.680,15.820 19.680 C 15.191 19.680,14.840 19.620,14.180 19.400 C 11.440 18.487,7.875 15.380,5.932 12.212 C 5.416 11.372,4.908 10.277,4.703 9.564 C 4.461 8.721,4.383 7.591,4.534 7.101 C 4.742 6.426,5.192 5.715,5.775 5.140 C 6.445 4.480,6.898 4.271,7.375 4.404 " fill="#1A1C1F" stroke="none" fill-rule="evenodd"></path></svg>