<svg width="14" height="14" viewBox="0 0 14 14" fill="none" xmlns="http://www.w3.org/2000/svg"><path d="M4.002 1.625 C 3.752 1.664,3.349 1.848,3.092 2.042 C 2.439 2.532,1.884 3.409,1.714 4.217 C 1.657 4.488,1.662 5.074,1.724 5.385 C 2.117 7.368,3.932 9.770,6.164 11.261 C 7.440 12.114,8.768 12.527,9.676 12.355 C 10.675 12.165,11.690 11.428,12.117 10.582 C 12.398 10.026,12.405 9.516,12.140 9.030 C 12.074 8.909,11.931 8.752,11.423 8.246 C 10.726 7.551,10.646 7.491,10.328 7.437 C 10.050 7.389,9.706 7.484,9.475 7.671 C 9.416 7.718,9.137 7.985,8.854 8.264 L 8.340 8.772 8.049 8.525 C 7.460 8.025,6.986 7.578,6.421 6.990 C 6.076 6.631,5.339 5.824,5.280 5.741 C 5.250 5.697,5.278 5.663,5.733 5.197 C 6.000 4.923,6.268 4.641,6.330 4.569 C 6.527 4.338,6.624 4.002,6.579 3.710 C 6.535 3.428,6.439 3.272,6.037 2.832 C 5.224 1.941,5.055 1.794,4.718 1.681 C 4.572 1.632,4.161 1.600,4.002 1.625 " fill="#1A1C1F" stroke="none" fill-rule="evenodd"></path></svg>