<svg width="16" height="16" viewBox="0 0 16 16" fill="none" xmlns="http://www.w3.org/2000/svg"><path d="M4.554 1.867 C 4.279 1.911,3.797 2.136,3.507 2.356 C 3.044 2.708,2.593 3.263,2.309 3.832 C 1.798 4.854,1.772 5.771,2.217 7.059 C 2.692 8.434,3.579 9.768,4.892 11.081 C 6.594 12.782,8.473 13.863,10.173 14.120 C 10.511 14.170,10.976 14.171,11.236 14.122 C 11.611 14.050,12.105 13.815,12.512 13.516 C 12.817 13.291,13.325 12.786,13.562 12.472 C 13.781 12.184,13.973 11.813,14.042 11.547 C 14.101 11.317,14.103 10.965,14.045 10.750 C 13.961 10.436,13.855 10.260,13.561 9.940 C 13.055 9.389,11.722 8.061,11.553 7.939 C 11.324 7.772,11.166 7.724,10.840 7.722 C 10.380 7.719,10.266 7.784,9.649 8.394 L 9.285 8.754 8.956 8.492 C 8.410 8.056,7.873 7.493,7.389 6.847 L 7.274 6.694 7.648 6.306 C 7.854 6.093,8.060 5.863,8.105 5.794 C 8.360 5.409,8.354 4.753,8.093 4.411 C 7.985 4.269,6.458 2.727,6.085 2.382 C 5.749 2.072,5.617 1.986,5.360 1.909 C 5.183 1.855,4.764 1.834,4.554 1.867 M5.752 4.233 C 6.226 4.713,6.613 5.118,6.613 5.134 C 6.613 5.149,6.540 5.233,6.450 5.321 C 6.152 5.613,5.598 6.221,5.554 6.304 C 5.528 6.356,5.511 6.457,5.510 6.574 C 5.508 6.737,5.521 6.788,5.609 6.974 C 6.041 7.885,7.502 9.439,8.647 10.205 C 8.914 10.383,9.237 10.531,9.366 10.532 C 9.494 10.534,9.733 10.425,9.893 10.291 C 9.979 10.220,10.232 9.984,10.454 9.768 L 10.859 9.375 11.709 10.232 C 12.509 11.038,12.560 11.095,12.560 11.185 C 12.560 11.303,12.493 11.411,12.240 11.702 C 11.980 12.001,11.606 12.322,11.403 12.421 C 10.818 12.707,10.107 12.658,9.185 12.268 C 7.164 11.415,4.709 8.966,3.824 6.920 C 3.557 6.303,3.454 5.835,3.473 5.320 C 3.483 5.036,3.494 4.976,3.570 4.788 C 3.741 4.366,4.105 3.845,4.365 3.648 C 4.543 3.513,4.802 3.360,4.850 3.360 C 4.873 3.360,5.278 3.753,5.752 4.233 " fill="#1A1C1F" stroke="none" fill-rule="evenodd"></path></svg>