<svg xmlns="http://www.w3.org/2000/svg" width="20" height="20" fill="none"><g clip-path="url(#a)"><path fill="#1A1C1F" fill-rule="evenodd" d="M6.084 2.286c.533 0 1.065.178 1.46.592L9.93 5.285c.316.316.454.69.454 1.085 0 .434-.178.868-.494 1.184l-.808.809c.987 1.287 1.298 1.66 2.525 2.564l.868-.868c.316-.315.73-.434 1.105-.434.394 0 .77.158 1.085.454l2.367 2.407c.414.414.592.947.592 1.48 0 1.46-2.269 3.748-4.084 3.748-4.744 0-11.166-6.42-11.166-10.97 0-2.083 1.929-4.458 3.709-4.458m-.022 1.918c-.037-.004-.096.016-.156.055-.828.395-1.598 1.559-1.598 2.486 0 3.387 5.692 9.016 8.898 9.016 1.026 0 1.558-.454 2.407-1.5.158-.236.118-.335.059-.434l-2.091-2.11-1.184 1.144c-.197.157-.414.295-.69.295-1.07 0-4.834-3.754-4.834-4.912 0-.256.079-.473.276-.65l1.145-1.185-2.111-2.15a.15.15 0 0 0-.121-.055" clip-rule="evenodd"/></g><defs><clipPath id="a"><path fill="#fff" d="M0 0h20v20H0z"/></clipPath></defs></svg>