<svg xmlns="http://www.w3.org/2000/svg" width="32" height="32" fill="none"><g clip-path="url(#a)"><path fill="#1A1C1F" fill-rule="evenodd" d="M7.869 2.5c.967 0 1.966.374 2.715 1.122l3.153 3.056a3.83 3.83 0 0 1 1.122 2.705c0 .999-.375 1.997-1.125 2.715l-1.5 1.467c1.25 1.623 4.72 5.12 6.25 6.212l1.657-1.655c.625-.624 1.53-.905 2.437-.905 1.031 0 2.053.342 2.802 1.09l3.028 3.087c.749.748 1.092 1.683 1.092 2.681 0 .904-.312 1.87-.999 2.619-1.81 2.12-3.246 2.806-5.306 2.806-3.59 0-8.24-2.525-13.242-7.476C4.997 17.03 2.5 12.384 2.5 8.83c0-2.245.812-3.648 2.934-5.456A3.77 3.77 0 0 1 7.87 2.5M7.9 4.464c-.5 0-.999.187-1.342.499C4.872 6.46 4.404 7.301 4.404 8.83c0 2.962 2.31 7.171 6.924 11.853 4.625 4.609 8.87 6.885 11.867 6.885 1.467 0 2.372-.436 3.87-2.151.344-.437.5-.904.5-1.34 0-.5-.187-.967-.53-1.342l-3.02-3.05a1.8 1.8 0 0 0-1.312-.563 1.83 1.83 0 0 0-1.25.469l-2.187 2.153a.97.97 0 0 1-.688.281c-.187 0-.375-.062-.531-.156-1.563-1.061-2.969-2.247-4.313-3.558a29.3 29.3 0 0 1-3.562-4.308 1.1 1.1 0 0 1-.156-.562c0-.25.093-.499.28-.686l2.063-1.998c.407-.374.594-.874.594-1.373 0-.469-.187-.968-.594-1.343L9.273 5.025a1.94 1.94 0 0 0-1.373-.56" clip-rule="evenodd"/></g><defs><clipPath id="a"><path fill="#fff" d="M0 0h32v32H0z"/></clipPath></defs></svg>