<svg xmlns="http://www.w3.org/2000/svg" width="20" height="20" fill="none"><path fill="#1A1C1F" fill-rule="evenodd" d="M5.54 2.352c-.849.228-1.667.881-2.311 1.843a5.2 5.2 0 0 0-.785 1.838c-.071.338-.079 1.08-.015 1.475.389 2.393 2.34 5.34 5.004 7.556 2.349 1.955 4.791 2.926 6.468 2.574 1.684-.354 3.28-1.721 3.649-3.126a2.14 2.14 0 0 0-.304-1.77c-.185-.26-1.778-1.836-1.963-1.941-.455-.26-.969-.267-1.483-.023-.186.089-.334.22-1.05.927l-.833.823-.284-.237a29 29 0 0 1-2.578-2.422C8.328 9.097 7.5 8.177 7.5 8.143c0-.013.357-.384.794-.825.446-.45.834-.871.885-.96.377-.658.303-1.375-.199-1.925-.69-.758-1.401-1.513-1.552-1.648a2.05 2.05 0 0 0-.857-.437c-.281-.06-.802-.058-1.031.004"/></svg>