<svg xmlns="http://www.w3.org/2000/svg" width="32" height="32" fill="none"><path fill="#1A1C1F" fill-rule="evenodd" d="M16 2c7.719 0 14 6.281 14 14s-6.281 14-14 14S2 23.719 2 16 8.281 2 16 2m0 2C9.375 4 4 9.375 4 16s5.375 12 12 12 12-5.375 12-12S22.625 4 16 4m-6 7c0-.562.406-1 1-1 .281 0 .5.063.719.281L16 14.562l4.281-4.28A.96.96 0 0 1 21 10c.563 0 1 .406 1 1 0 .281-.062.5-.281.719L17.437 16l4.282 4.281c.187.188.281.469.281.719 0 .563-.406 1-1 1-.281 0-.469-.031-.719-.281L16 17.437l-4.281 4.282A.96.96 0 0 1 11 22c-.562 0-1-.406-1-1 0-.25.031-.469.281-.719L14.562 16l-4.28-4.281A.96.96 0 0 1 10 11" clip-rule="evenodd"/></svg>