<svg width="28" height="28" viewBox="0 0 28 28" fill="none" xmlns="http://www.w3.org/2000/svg"><path d="M13.459 3.131 C 13.162 3.180,12.852 3.312,12.535 3.522 C 12.239 3.719,9.593 6.582,4.945 11.737 C 2.792 14.124,2.666 14.272,2.633 14.449 C 2.567 14.800,2.824 15.237,3.196 15.406 C 3.600 15.590,3.824 15.481,4.619 14.716 L 5.223 14.133 5.237 19.235 L 5.250 24.337 5.357 24.509 C 5.551 24.821,5.717 24.885,6.435 24.925 C 7.231 24.970,10.479 24.971,11.211 24.926 C 11.732 24.894,11.765 24.886,11.903 24.755 C 11.983 24.679,12.094 24.533,12.149 24.430 C 12.249 24.246,12.250 24.207,12.265 21.525 L 12.279 18.807 14.026 18.807 L 15.773 18.807 15.773 21.580 L 15.773 24.353 15.925 24.551 C 16.008 24.660,16.170 24.799,16.285 24.859 L 16.493 24.969 19.295 24.956 C 22.027 24.944,22.101 24.941,22.283 24.846 C 22.408 24.781,22.520 24.666,22.622 24.498 L 22.773 24.247 22.773 20.092 C 22.774 17.807,22.787 15.543,22.804 15.061 L 22.835 14.186 23.399 14.739 C 24.028 15.355,24.184 15.457,24.500 15.457 C 24.879 15.457,25.237 15.184,25.341 14.815 C 25.432 14.488,25.374 14.331,25.003 13.899 C 23.748 12.438,17.438 5.558,16.011 4.094 C 15.261 3.325,15.054 3.201,14.397 3.128 C 13.920 3.074,13.793 3.075,13.459 3.131 M14.358 4.924 C 14.629 5.060,14.623 5.052,18.468 9.442 L 21.000 12.332 21.000 17.762 L 21.000 23.193 19.250 23.193 L 17.500 23.193 17.500 20.424 L 17.500 17.654 17.394 17.496 C 17.219 17.237,17.028 17.138,16.624 17.100 C 16.426 17.082,15.073 17.078,13.617 17.092 C 10.754 17.121,10.896 17.106,10.680 17.381 C 10.529 17.573,10.505 18.037,10.502 20.802 L 10.500 23.193 8.750 23.193 L 7.000 23.193 7.000 17.762 L 7.000 12.330 7.550 11.707 C 7.853 11.364,9.097 9.949,10.315 8.564 C 12.569 5.999,13.446 5.048,13.697 4.893 C 13.887 4.776,14.078 4.785,14.358 4.924 " fill="#1A1C1F" stroke="none" fill-rule="evenodd"></path></svg>