<svg width="14" height="14" viewBox="0 0 14 14" fill="none" xmlns="http://www.w3.org/2000/svg"><path d="M6.778 1.426 C 6.610 1.441,6.392 1.520,6.227 1.623 C 6.178 1.655,5.831 1.977,5.457 2.339 C 4.550 3.219,1.498 6.317,1.452 6.405 C 1.400 6.505,1.401 6.795,1.454 6.935 C 1.509 7.079,1.735 7.291,1.872 7.328 C 2.015 7.367,2.219 7.361,2.359 7.314 C 2.452 7.283,2.520 7.235,2.640 7.115 L 2.799 6.956 2.805 9.504 L 2.812 12.052 2.862 12.161 C 2.927 12.302,3.098 12.473,3.239 12.538 C 3.345 12.587,3.375 12.588,4.212 12.588 C 4.830 12.588,5.102 12.580,5.170 12.560 C 5.307 12.518,5.446 12.387,5.528 12.222 L 5.600 12.079 5.600 10.240 L 5.600 8.400 6.999 8.400 L 8.398 8.400 8.405 10.273 L 8.412 12.145 8.476 12.254 C 8.546 12.374,8.676 12.487,8.812 12.547 C 8.889 12.581,9.015 12.588,9.724 12.595 C 10.463 12.604,10.560 12.600,10.678 12.563 C 10.840 12.512,11.055 12.323,11.134 12.161 L 11.188 12.052 11.200 9.501 L 11.212 6.950 11.325 7.081 C 11.472 7.252,11.584 7.324,11.739 7.348 C 11.890 7.372,12.104 7.343,12.224 7.281 C 12.343 7.219,12.472 7.079,12.534 6.942 C 12.603 6.790,12.609 6.515,12.545 6.396 C 12.480 6.276,11.588 5.362,9.842 3.627 C 7.866 1.663,7.753 1.561,7.467 1.477 C 7.306 1.430,6.992 1.407,6.778 1.426 " fill="#1A1C1F" stroke="none" fill-rule="evenodd"></path></svg>