<svg xmlns="http://www.w3.org/2000/svg" width="12" height="12" fill="none"><g clip-path="url(#a)"><path fill="#1A1C1F" fill-rule="evenodd" d="M4.22 10.8H3.005a.62.62 0 0 1-.603-.609V5.953l-.17.187a.57.57 0 0 1-.421.176.6.6 0 0 1-.61-.62c0-.13.048-.258.14-.352L4.866 1.81c.258-.26.539-.61 1.136-.61s.878.352 1.136.609l3.488 3.477a.606.606 0 0 1-.445 1.03c-.14 0-.271-.033-.362-.129L9.6 5.953v4.238c0 .328-.31.609-.603.609H7.804c-.316 0-.603-.21-.603-.527V7.2H4.8v3.003c0 .316-.205.597-.58.597" clip-rule="evenodd"/></g><defs><clipPath id="a"><path fill="#fff" d="M0 0h12v12H0z"/></clipPath></defs></svg>