<svg xmlns="http://www.w3.org/2000/svg" width="32" height="32" fill="none"><path fill="#1A1C1F" fill-rule="evenodd" d="M15.173 3.616c-.4.119-.825.349-1.112.602-.424.373-10.888 11.892-10.983 12.09-.198.415.012 1.02.429 1.231.604.306.81.226 1.733-.679l.733-.719.001 5.73c0 3.776.019 5.797.055 5.927a.91.91 0 0 0 .573.612c.233.09.483.097 3.451.097 3.143 0 3.204-.002 3.414-.112.132-.069.273-.209.373-.369l.16-.258.015-3.137.016-3.138h3.993l.015 3.191.014 3.191.134.196c.073.109.241.251.373.316.239.119.258.12 3.253.136 1.658.01 3.138.002 3.291-.016a.95.95 0 0 0 .763-.509L26 27.76l.027-5.801.026-5.801.693.694c.809.811.998.914 1.476.799.643-.154.956-.853.65-1.451-.041-.08-2.51-2.804-5.488-6.053-3.755-4.098-5.509-5.975-5.727-6.128-.505-.355-.838-.458-1.55-.479-.475-.015-.686.003-.934.076m1.349 2.041c.123.071 1.574 1.687 3.838 4.275L24 14.093v12.414h-4v-6.311l-.133-.226a.82.82 0 0 0-.366-.339c-.231-.112-.265-.113-3.587-.099l-3.354.015-.171.128c-.373.28-.361.161-.377 3.672l-.014 3.16H8V14.095l3.676-4.181c2.792-3.175 3.732-4.21 3.907-4.304.278-.15.631-.132.939.047"/></svg>