<svg width="16" height="16" viewBox="0 0 16 16" fill="none" xmlns="http://www.w3.org/2000/svg"><path d="M7.747 1.630 C 7.555 1.647,7.305 1.737,7.118 1.855 C 7.061 1.890,6.695 2.229,6.304 2.606 C 5.340 3.539,1.711 7.220,1.659 7.320 C 1.607 7.420,1.603 7.757,1.653 7.906 C 1.698 8.043,1.929 8.287,2.074 8.352 C 2.225 8.420,2.502 8.424,2.691 8.361 C 2.802 8.324,2.878 8.271,3.018 8.131 L 3.200 7.949 3.200 10.858 L 3.200 13.767 3.260 13.890 C 3.338 14.049,3.552 14.263,3.714 14.342 L 3.840 14.404 4.847 14.395 C 5.840 14.387,5.855 14.386,5.980 14.324 C 6.122 14.254,6.264 14.096,6.345 13.918 C 6.397 13.803,6.399 13.748,6.399 11.700 L 6.400 9.600 7.999 9.600 L 9.598 9.600 9.606 11.740 L 9.613 13.880 9.686 14.004 C 9.767 14.142,9.915 14.270,10.071 14.339 C 10.159 14.378,10.303 14.386,11.113 14.395 C 11.957 14.404,12.068 14.400,12.203 14.358 C 12.388 14.300,12.634 14.083,12.725 13.899 L 12.787 13.773 12.800 10.858 L 12.813 7.943 12.943 8.093 C 13.111 8.288,13.239 8.370,13.416 8.398 C 13.588 8.426,13.834 8.391,13.970 8.321 C 14.106 8.251,14.254 8.090,14.325 7.933 C 14.371 7.833,14.386 7.751,14.386 7.600 C 14.387 7.427,14.376 7.382,14.309 7.267 C 14.226 7.124,9.681 2.559,9.187 2.121 C 8.866 1.837,8.727 1.745,8.533 1.688 C 8.350 1.635,7.991 1.608,7.747 1.630 " fill="#1A1C1F" stroke="none" fill-rule="evenodd"></path></svg>