<svg width="12" height="12" viewBox="0 0 12 12" fill="none" xmlns="http://www.w3.org/2000/svg"><path d="M5.674 1.242 C 5.632 1.252,5.529 1.293,5.445 1.335 C 5.303 1.404,5.237 1.462,4.571 2.113 C 3.695 2.967,1.315 5.383,1.255 5.478 C 1.220 5.534,1.212 5.575,1.214 5.708 C 1.216 5.921,1.254 6.012,1.400 6.147 C 1.529 6.266,1.642 6.310,1.815 6.306 C 2.001 6.301,2.112 6.250,2.263 6.098 L 2.400 5.961 2.400 8.137 L 2.400 10.314 2.461 10.436 C 2.528 10.570,2.635 10.674,2.778 10.745 C 2.868 10.789,2.883 10.790,3.610 10.790 C 4.163 10.790,4.372 10.783,4.437 10.764 C 4.547 10.730,4.686 10.593,4.751 10.454 L 4.800 10.350 4.800 8.775 L 4.800 7.200 6.000 7.200 L 7.200 7.200 7.200 8.795 L 7.200 10.390 7.259 10.492 C 7.327 10.611,7.413 10.689,7.540 10.748 C 7.626 10.788,7.661 10.790,8.380 10.790 C 9.124 10.790,9.131 10.790,9.223 10.744 C 9.344 10.683,9.485 10.543,9.543 10.425 L 9.590 10.330 9.600 8.143 L 9.610 5.957 9.725 6.086 C 9.878 6.260,9.973 6.305,10.183 6.304 C 10.314 6.304,10.362 6.294,10.451 6.251 C 10.711 6.123,10.850 5.822,10.772 5.553 C 10.741 5.446,10.710 5.409,10.282 4.964 C 9.678 4.337,7.145 1.820,6.879 1.582 C 6.631 1.362,6.517 1.292,6.336 1.250 C 6.189 1.217,5.801 1.212,5.674 1.242 " fill="#1A1C1F" stroke="none" fill-rule="evenodd"></path></svg>