<svg xmlns="http://www.w3.org/2000/svg" width="32" height="32" fill="none"><g clip-path="url(#a)"><path fill="#1A1C1F" fill-rule="evenodd" d="M16 3.5c.688 0 1.437.22 1.969.75l10.75 11.72a.9.9 0 0 1 .21.332c.047.126.071.26.071.386 0 .562-.469 1-1 1-.219 0-.5-.094-.625-.22L26 16.095V27.5c0 .516-.375 1-.875 1H19c-.5 0-.969-.375-.969-.875V21.5H14v6c0 .516-.406 1-.906 1H7c-.5 0-1-.375-1-.875v-11.53l-1.281 1.28a1 1 0 0 1-.719.313c-.25 0-.531-.125-.719-.313A.97.97 0 0 1 3 16.687c0-.218.063-.468.219-.625L13.875 4.376A2.95 2.95 0 0 1 16 3.5m0 2c-.219 0-.469.063-.625.22L8 14.093V26.5h4v-6c0-.53.375-1 .875-1H19c.531 0 1 .375 1 .875V26.5h4V14.094L16.719 5.78A1.04 1.04 0 0 0 16 5.5" clip-rule="evenodd"/></g><defs><clipPath id="a"><path fill="#fff" d="M0 0h32v32H0z"/></clipPath></defs></svg>