<svg xmlns="http://www.w3.org/2000/svg" width="12" height="12" fill="none"><g clip-path="url(#a)"><path fill="#1A1C1F" fill-rule="evenodd" d="M6 1.2c.598 0 .879.351 1.137.609l3.488 3.477a.606.606 0 0 1-.445 1.03.5.5 0 0 1-.362-.129l-.223-.234v4.238c0 .328-.304.609-.597.609H3.004a.617.617 0 0 1-.597-.609V5.953l-.176.187a.6.6 0 0 1-.421.176.6.6 0 0 1-.61-.62c0-.13.048-.258.14-.352L4.866 1.81c.258-.26.539-.61 1.136-.61m0 1.2L3.6 4.8v4.8h4.8V4.8z" clip-rule="evenodd"/></g><defs><clipPath id="a"><path fill="#fff" d="M0 0h12v12H0z"/></clipPath></defs></svg>