<svg xmlns="http://www.w3.org/2000/svg" width="20" height="20" fill="none"><path fill="#1A1C1F" fill-rule="evenodd" d="M9.612 2.034a2.2 2.2 0 0 0-.75.301c-.158.099-1.04.964-3.456 3.391C3.543 7.597 2.132 9.04 2.09 9.117c-.057.105-.072.189-.072.4 0 .321.073.507.282.716.201.201.395.28.7.282.333.002.559-.105.815-.389l.184-.203.009 3.664.009 3.663.078.15c.107.204.289.388.488.495l.167.088 1.211.01c1.382.012 1.455.002 1.712-.224.088-.078.184-.206.231-.309l.079-.177.009-2.641.01-2.642H12v2.621c0 1.929.01 2.656.04 2.754.055.186.29.434.501.529.173.078.193.079 1.379.089 1.161.01 1.209.008 1.394-.062.257-.096.52-.358.616-.613.07-.186.07-.211.07-3.794V9.918l.204.225c.274.304.406.37.746.372.323.002.568-.097.779-.314.27-.279.347-.755.177-1.106-.051-.105-.982-1.054-3.347-3.413-3.512-3.503-3.433-3.431-3.926-3.585a2.9 2.9 0 0 0-1.021-.063"/></svg>