<svg xmlns="http://www.w3.org/2000/svg" width="20" height="20" fill="none"><g clip-path="url(#a)"><path fill="#1A1C1F" fill-rule="evenodd" d="M10 2c.995 0 1.463.585 1.893 1.015l5.814 5.795c.195.195.293.448.293.722 0 .566-.468.995-1.034.995-.234 0-.449-.059-.605-.215l-.37-.39v7.063c0 .547-.508 1.015-.996 1.015h-9.99a1.03 1.03 0 0 1-.995-1.015V9.922l-.293.312a1 1 0 0 1-.702.293C2.429 10.527 2 10.078 2 9.493c0-.215.078-.43.234-.586l5.873-5.892C8.537 2.585 9.005 2 10 2m0 2L6 8v8h8V8z" clip-rule="evenodd"/></g><defs><clipPath id="a"><path fill="#fff" d="M0 0h20v20H0z"/></clipPath></defs></svg>