<svg width="24" height="24" viewBox="0 0 24 24" fill="none" xmlns="http://www.w3.org/2000/svg"><path d="M11.420 3.063 C 10.904 3.178,10.415 3.419,10.048 3.740 C 9.755 3.996,4.561 9.951,3.429 11.329 C 3.014 11.835,2.971 11.933,3.013 12.288 C 3.081 12.855,3.649 13.255,4.205 13.126 C 4.432 13.074,4.580 12.984,4.828 12.747 L 4.997 12.587 5.008 16.443 C 5.018 19.520,5.031 20.324,5.073 20.420 C 5.144 20.584,5.305 20.746,5.520 20.874 L 5.700 20.980 7.838 20.994 C 9.014 21.001,10.072 20.995,10.189 20.981 C 10.452 20.948,10.687 20.779,10.859 20.502 L 10.980 20.306 10.994 18.153 L 11.007 16.000 12.002 16.000 L 12.996 16.000 13.008 18.130 C 13.021 20.514,13.003 20.363,13.320 20.680 C 13.639 20.999,13.467 20.980,16.000 20.980 C 17.758 20.980,18.293 20.968,18.407 20.928 C 18.575 20.868,18.798 20.640,18.918 20.403 C 18.999 20.245,19.000 20.191,19.000 16.416 L 19.000 12.589 19.194 12.771 C 19.301 12.871,19.464 12.991,19.557 13.038 C 20.188 13.360,20.925 12.954,20.989 12.248 C 21.015 11.954,20.953 11.827,20.525 11.289 C 19.802 10.381,14.580 4.401,13.916 3.719 C 13.658 3.454,13.245 3.229,12.820 3.120 C 12.391 3.010,11.772 2.985,11.420 3.063 M12.472 5.111 C 12.633 5.184,12.988 5.608,15.273 8.448 L 17.000 10.595 17.000 14.798 L 17.000 19.000 16.002 19.000 L 15.004 19.000 14.992 16.850 C 14.979 14.453,14.988 14.539,14.699 14.284 C 14.415 14.036,14.447 14.039,12.428 14.013 C 11.412 13.999,10.368 14.002,10.108 14.018 C 9.670 14.046,9.624 14.057,9.450 14.174 C 9.346 14.244,9.208 14.388,9.141 14.497 L 9.020 14.694 9.006 16.847 L 8.993 19.000 7.996 19.000 L 7.000 19.000 7.000 14.797 L 7.000 10.595 8.388 8.887 C 9.869 7.067,11.229 5.422,11.427 5.212 C 11.493 5.142,11.600 5.073,11.664 5.059 C 11.728 5.045,11.798 5.027,11.820 5.021 C 11.908 4.993,12.348 5.054,12.472 5.111 " fill="#1A1C1F" stroke="none" fill-rule="evenodd"></path></svg>