<svg xmlns="http://www.w3.org/2000/svg" width="14" height="14" fill="none"><g clip-path="url(#a)"><path fill="#1A1C1F" fill-rule="evenodd" d="M7 1.4c.697 0 1.024.41 1.325.71l4.07 4.057a.703.703 0 0 1-.519 1.202c-.164 0-.314-.041-.423-.15l-.26-.274v4.945c0 .382-.355.71-.696.71H3.503a.72.72 0 0 1-.696-.71V6.945l-.205.219a.7.7 0 0 1-.492.205c-.41 0-.71-.314-.71-.724 0-.15.055-.3.164-.41L5.675 2.11c.3-.3.628-.71 1.325-.71m0 1.4L4.2 5.6v5.6h5.6V5.6z" clip-rule="evenodd"/></g><defs><clipPath id="a"><path fill="#fff" d="M0 0h14v14H0z"/></clipPath></defs></svg>