<svg width="12" height="12" viewBox="0 0 12 12" fill="none" xmlns="http://www.w3.org/2000/svg"><path d="M5.674 1.242 C 5.632 1.252,5.529 1.293,5.445 1.335 C 5.303 1.404,5.237 1.462,4.571 2.113 C 3.695 2.967,1.315 5.383,1.255 5.478 C 1.220 5.534,1.212 5.575,1.214 5.708 C 1.216 5.921,1.254 6.012,1.400 6.147 C 1.534 6.270,1.643 6.310,1.836 6.306 C 1.999 6.302,2.108 6.249,2.272 6.095 L 2.400 5.975 2.400 8.144 L 2.400 10.312 2.454 10.421 C 2.522 10.556,2.640 10.676,2.770 10.740 L 2.870 10.790 6.000 10.790 L 9.130 10.790 9.224 10.743 C 9.338 10.687,9.508 10.511,9.560 10.395 C 9.598 10.313,9.599 10.243,9.600 8.143 L 9.600 5.976 9.740 6.106 C 9.902 6.256,9.982 6.299,10.128 6.314 C 10.535 6.356,10.885 5.942,10.772 5.553 C 10.741 5.446,10.710 5.409,10.282 4.964 C 9.678 4.337,7.145 1.820,6.879 1.582 C 6.631 1.362,6.517 1.292,6.336 1.250 C 6.189 1.217,5.801 1.212,5.674 1.242 M8.400 7.195 L 8.400 9.600 6.000 9.600 L 3.600 9.600 3.600 7.205 L 3.600 4.810 4.805 3.605 L 6.010 2.400 7.205 3.595 L 8.400 4.790 8.400 7.195 " fill="#1A1C1F" stroke="none" fill-rule="evenodd"></path></svg>