<svg width="14" height="14" viewBox="0 0 14 14" fill="none" xmlns="http://www.w3.org/2000/svg"><path d="M6.778 1.426 C 6.610 1.441,6.392 1.520,6.227 1.623 C 6.178 1.655,5.831 1.977,5.457 2.339 C 4.550 3.219,1.498 6.317,1.452 6.405 C 1.400 6.505,1.401 6.795,1.454 6.935 C 1.509 7.079,1.735 7.291,1.872 7.328 C 2.013 7.366,2.219 7.361,2.354 7.316 C 2.434 7.289,2.522 7.230,2.635 7.125 L 2.800 6.972 2.800 9.502 L 2.800 12.031 2.863 12.157 C 2.942 12.316,3.081 12.457,3.232 12.531 L 3.348 12.588 7.000 12.588 L 10.652 12.588 10.760 12.535 C 10.898 12.467,11.069 12.284,11.143 12.127 L 11.200 12.005 11.200 9.487 L 11.200 6.969 11.357 7.121 C 11.444 7.204,11.539 7.285,11.569 7.301 C 11.719 7.381,12.050 7.371,12.224 7.281 C 12.343 7.219,12.472 7.079,12.534 6.942 C 12.603 6.790,12.609 6.515,12.545 6.396 C 12.480 6.276,11.588 5.362,9.842 3.627 C 7.866 1.663,7.753 1.561,7.467 1.477 C 7.306 1.430,6.992 1.407,6.778 1.426 M8.406 4.194 L 9.800 5.588 9.800 8.394 L 9.800 11.200 7.000 11.200 L 4.200 11.200 4.200 8.394 L 4.200 5.588 5.594 4.194 C 6.361 3.427,6.993 2.800,7.000 2.800 C 7.006 2.800,7.639 3.427,8.406 4.194 " fill="#1A1C1F" stroke="none" fill-rule="evenodd"></path></svg>