<svg width="20" height="20" viewBox="0 0 20 20" fill="none" xmlns="http://www.w3.org/2000/svg"><path d="M9.416 2.080 C 9.342 2.103,9.178 2.173,9.053 2.234 C 8.857 2.331,8.687 2.480,7.858 3.282 C 6.592 4.506,2.142 9.021,2.074 9.150 C 2.009 9.275,2.004 9.697,2.066 9.882 C 2.123 10.055,2.411 10.359,2.594 10.441 C 2.697 10.487,2.813 10.505,3.003 10.505 C 3.332 10.505,3.474 10.443,3.780 10.162 L 4.000 9.961 4.000 13.574 L 4.000 17.187 4.090 17.368 C 4.203 17.594,4.402 17.796,4.618 17.902 L 4.783 17.983 9.983 17.983 C 14.247 17.983,15.206 17.975,15.310 17.939 C 15.487 17.876,15.812 17.564,15.914 17.359 L 16.000 17.187 16.000 13.571 L 16.000 9.956 16.231 10.178 C 16.518 10.456,16.642 10.512,16.967 10.513 C 17.172 10.513,17.251 10.497,17.407 10.422 C 17.931 10.169,18.150 9.539,17.878 9.069 C 17.780 8.901,12.056 3.158,11.467 2.636 C 11.051 2.268,10.860 2.152,10.560 2.084 C 10.289 2.022,9.607 2.020,9.416 2.080 M14.000 11.992 L 14.000 16.000 10.000 16.000 L 6.000 16.000 6.000 12.008 L 6.000 8.017 8.008 6.008 L 10.016 4.000 12.008 5.992 L 14.000 7.983 14.000 11.992 " fill="#1A1C1F" stroke="none" fill-rule="evenodd"></path></svg>