<svg width="32" height="32" viewBox="0 0 32 32" fill="none" xmlns="http://www.w3.org/2000/svg"><path d="M15.382 3.578 C 15.043 3.635,14.688 3.785,14.329 4.023 C 13.987 4.250,12.300 6.069,6.930 12.001 C 3.512 15.777,3.055 16.302,3.017 16.505 C 2.940 16.916,3.180 17.367,3.583 17.568 C 3.736 17.644,3.921 17.707,3.994 17.707 C 4.259 17.707,4.602 17.469,5.279 16.818 L 5.969 16.153 5.985 21.987 L 6.000 27.821 6.143 28.037 C 6.233 28.173,6.382 28.301,6.543 28.380 L 6.800 28.507 9.973 28.507 C 11.719 28.507,13.212 28.488,13.292 28.466 C 13.495 28.409,13.800 28.129,13.923 27.887 C 14.022 27.693,14.027 27.548,14.027 24.589 L 14.027 21.493 16.027 21.493 L 18.027 21.493 18.027 24.653 C 18.027 28.198,18.003 27.974,18.424 28.295 C 18.708 28.511,19.210 28.539,22.459 28.522 C 25.169 28.507,25.260 28.503,25.467 28.396 C 25.609 28.322,25.737 28.190,25.853 27.998 L 26.027 27.711 26.027 22.931 C 26.027 20.302,26.042 17.714,26.062 17.181 L 26.097 16.212 26.752 16.854 C 27.478 17.566,27.764 17.742,28.099 17.681 C 28.705 17.570,29.095 17.012,28.955 16.456 C 28.886 16.183,28.886 16.182,25.977 12.987 C 22.099 8.726,19.382 5.783,18.287 4.658 C 17.452 3.799,17.205 3.655,16.427 3.574 C 15.850 3.515,15.758 3.515,15.382 3.578 M16.240 5.552 C 16.357 5.584,16.546 5.697,16.659 5.805 C 17.003 6.131,18.459 7.763,21.298 11.007 L 24.000 14.094 24.000 20.300 L 24.000 26.507 22.000 26.507 L 20.000 26.507 20.000 23.341 L 20.000 20.176 19.879 19.996 C 19.679 19.699,19.460 19.587,18.999 19.543 C 18.772 19.522,17.226 19.518,15.563 19.534 L 12.539 19.564 12.350 19.708 C 12.241 19.791,12.136 19.933,12.100 20.046 C 12.058 20.180,12.031 21.212,12.014 23.373 L 11.989 26.507 9.995 26.507 L 8.000 26.507 8.000 20.300 L 8.000 14.094 10.809 10.900 C 13.247 8.127,14.162 7.100,15.253 5.909 C 15.396 5.753,15.580 5.617,15.707 5.573 C 15.969 5.481,15.977 5.481,16.240 5.552 " fill="#1A1C1F" stroke="none" fill-rule="evenodd"></path></svg>