<svg xmlns="http://www.w3.org/2000/svg" width="16" height="16" fill="none"><g clip-path="url(#a)"><path fill="#1A1C1F" fill-rule="evenodd" d="M8 1.6c.796 0 1.17.468 1.514.812l4.652 4.636a.8.8 0 0 1 .234.577c0 .453-.375.796-.827.796-.188 0-.36-.046-.484-.171l-.297-.312v5.65c0 .437-.406.812-.796.812H4.004a.823.823 0 0 1-.796-.812v-5.65l-.234.25a.8.8 0 0 1-.562.233c-.469 0-.812-.359-.812-.827a.66.66 0 0 1 .187-.468l4.699-4.714C6.829 2.068 7.204 1.6 8 1.6m0 1.6L4.8 6.4v6.4h6.4V6.4z" clip-rule="evenodd"/></g><defs><clipPath id="a"><path fill="#fff" d="M0 0h16v16H0z"/></clipPath></defs></svg>