<svg width="20" height="20" viewBox="0 0 20 20" fill="none" xmlns="http://www.w3.org/2000/svg"><path d="M9.416 2.080 C 9.342 2.103,9.179 2.173,9.053 2.234 C 8.858 2.330,8.688 2.479,7.874 3.265 C 6.633 4.464,2.142 9.021,2.074 9.150 C 1.995 9.299,2.004 9.742,2.090 9.934 C 2.167 10.107,2.447 10.381,2.621 10.454 C 2.790 10.525,3.147 10.523,3.364 10.451 C 3.503 10.405,3.597 10.338,3.772 10.163 L 4.000 9.936 4.000 13.572 L 4.000 17.209 4.075 17.359 C 4.189 17.587,4.373 17.776,4.599 17.897 L 4.802 18.005 6.059 17.994 C 7.300 17.983,7.319 17.982,7.475 17.905 C 7.653 17.818,7.831 17.620,7.931 17.398 C 7.997 17.254,7.999 17.185,7.999 14.625 L 8.000 12.000 9.999 12.000 L 11.997 12.000 12.007 14.675 L 12.017 17.350 12.108 17.505 C 12.209 17.677,12.394 17.838,12.589 17.924 C 12.699 17.973,12.879 17.982,13.891 17.993 C 14.947 18.005,15.085 18.000,15.254 17.947 C 15.485 17.875,15.793 17.604,15.906 17.373 L 15.983 17.217 16.000 13.573 L 16.017 9.929 16.179 10.116 C 16.388 10.359,16.548 10.462,16.770 10.498 C 16.985 10.532,17.292 10.489,17.462 10.401 C 17.633 10.314,17.817 10.112,17.906 9.917 C 17.963 9.791,17.982 9.688,17.983 9.500 C 17.983 9.284,17.970 9.228,17.886 9.083 C 17.780 8.902,12.094 3.191,11.467 2.636 C 11.051 2.268,10.860 2.152,10.560 2.084 C 10.289 2.022,9.607 2.020,9.416 2.080 " fill="#1A1C1F" stroke="none" fill-rule="evenodd"></path></svg>