<svg xmlns="http://www.w3.org/2000/svg" width="20" height="20" fill="none"><g clip-path="url(#a)"><path fill="#1A1C1F" fill-rule="evenodd" d="M7.034 18h-2.03C4.518 18 4 17.57 4 16.985V9.922l-.283.312a.96.96 0 0 1-.702.293C2.429 10.527 2 10.078 2 9.493c0-.215.078-.43.234-.586l5.873-5.892C8.536 2.585 9.005 2 10 2s1.463.586 1.893 1.015l5.814 5.795a1 1 0 0 1 .293.722c0 .566-.468.995-1.034.995-.234 0-.453-.055-.605-.215L16 9.922v7.063c0 .547-.517 1.015-1.005 1.015h-1.99c-.527 0-1.005-.351-1.005-.878V12H8v5.005c0 .527-.341.995-.966.995" clip-rule="evenodd"/></g><defs><clipPath id="a"><path fill="#fff" d="M0 0h20v20H0z"/></clipPath></defs></svg>