<svg xmlns="http://www.w3.org/2000/svg" width="16" height="16" fill="none"><g clip-path="url(#a)"><path fill="#1A1C1F" fill-rule="evenodd" d="M5.627 14.4H4.004c-.39 0-.804-.343-.804-.812v-5.65l-.226.25a.76.76 0 0 1-.562.233c-.47 0-.812-.359-.812-.827 0-.172.063-.343.187-.468l4.699-4.714C6.829 2.068 7.204 1.6 8 1.6s1.17.469 1.514.812l4.652 4.636a.8.8 0 0 1 .234.577c0 .453-.375.796-.827.796-.188 0-.363-.043-.484-.171l-.29-.312v5.65c0 .437-.413.812-.803.812h-1.592c-.422 0-.804-.281-.804-.702V9.6H6.4v4.004c0 .421-.273.796-.773.796" clip-rule="evenodd"/></g><defs><clipPath id="a"><path fill="#fff" d="M0 0h16v16H0z"/></clipPath></defs></svg>