<svg xmlns="http://www.w3.org/2000/svg" width="14" height="14" fill="none"><g clip-path="url(#a)"><path fill="#1A1C1F" fill-rule="evenodd" d="M4.924 12.6h-1.42a.726.726 0 0 1-.704-.71V6.945l-.198.219a.67.67 0 0 1-.492.205c-.41 0-.71-.314-.71-.724 0-.15.055-.3.164-.41L5.675 2.11c.3-.3.628-.71 1.325-.71s1.024.41 1.325.71l4.07 4.057a.7.7 0 0 1 .205.505c0 .396-.328.697-.724.697-.164 0-.317-.038-.423-.15l-.253-.274v4.945c0 .382-.362.71-.703.71H9.103c-.368 0-.703-.246-.703-.615V8.4H5.6v3.503c0 .37-.239.697-.676.697" clip-rule="evenodd"/></g><defs><clipPath id="a"><path fill="#fff" d="M0 0h14v14H0z"/></clipPath></defs></svg>