<svg xmlns="http://www.w3.org/2000/svg" width="24" height="24" fill="none"><g clip-path="url(#a)"><path fill="#1A1C1F" fill-rule="evenodd" d="M12 3c.719 0 1.469.219 2 .75l6.719 7.719a1 1 0 0 1 .28.719c0 .562-.437.968-1 .968a.96.96 0 0 1-.624-.219L19 12.595V20c0 .531-.406 1-.906 1H14c-.531 0-1-.469-1-1v-4h-2v4c0 .531-.406 1-.906 1H6c-.531 0-1-.406-1-.906v-7.5l-.281.281a1.04 1.04 0 0 1-.72.281c-.437 0-1-.312-1-.969 0-.25.032-.468.22-.656l6.656-7.656C10.5 3.281 11.219 3 12 3m0 2c-.22 0-.47.063-.625.219L7 10.594V19h2v-4c0-.5.375-1 .906-1H14c.53 0 1 .406 1 .906V19h2v-8.406L12.719 5.28c-.19-.217-.47-.28-.72-.28" clip-rule="evenodd"/></g><defs><clipPath id="a"><path fill="#fff" d="M0 0h24v24H0z"/></clipPath></defs></svg>