<svg xmlns="http://www.w3.org/2000/svg" width="28" height="28" fill="none"><g clip-path="url(#a)"><path fill="#1A1C1F" fill-rule="evenodd" d="M13.999 3.063c.602 0 1.257.192 1.723.656l9.406 10.253a.8.8 0 0 1 .184.293.88.88 0 0 1-.813 1.211c-.191 0-.438-.082-.547-.19l-1.203-1.203v9.98c0 .452-.328.875-.766.875h-5.36c-.437 0-.847-.328-.847-.766v-5.36h-3.527v5.25c0 .453-.355.875-.793.875H6.124c-.438 0-.875-.328-.875-.765v-10.09l-1.121 1.122a.87.87 0 0 1-.63.273.94.94 0 0 1-.628-.273.85.85 0 0 1-.246-.602c0-.19.055-.41.19-.546L12.14 3.83a2.58 2.58 0 0 1 1.859-.767m0 1.75c-.191 0-.41.055-.547.19l-6.453 7.33v10.855h3.5v-5.25c0-.465.328-.875.766-.875h5.359c.465 0 .875.328.875.765v5.36h3.5V12.333l-6.371-7.274a.9.9 0 0 0-.63-.246" clip-rule="evenodd"/></g><defs><clipPath id="a"><path fill="#fff" d="M0 0h28v28H0z"/></clipPath></defs></svg>