<svg width="16" height="16" viewBox="0 0 16 16" fill="none" xmlns="http://www.w3.org/2000/svg"><path d="M7.747 1.630 C 7.554 1.647,7.305 1.737,7.114 1.857 C 6.951 1.960,5.513 3.371,3.718 5.190 C 1.987 6.944,1.795 7.145,1.676 7.332 C 1.586 7.473,1.578 7.610,1.645 7.852 C 1.683 7.987,1.717 8.040,1.852 8.174 C 2.039 8.361,2.138 8.400,2.428 8.400 C 2.673 8.400,2.798 8.343,3.030 8.126 L 3.200 7.967 3.200 10.858 L 3.200 13.750 3.272 13.894 C 3.362 14.075,3.522 14.237,3.694 14.321 L 3.827 14.387 7.981 14.394 C 12.055 14.401,12.138 14.400,12.254 14.349 C 12.424 14.274,12.626 14.073,12.720 13.886 L 12.800 13.725 12.800 10.846 L 12.800 7.967 12.990 8.146 C 13.227 8.369,13.316 8.410,13.573 8.410 C 13.737 8.410,13.801 8.397,13.925 8.337 C 14.345 8.135,14.520 7.631,14.302 7.256 C 14.226 7.124,9.651 2.531,9.187 2.121 C 8.866 1.837,8.727 1.745,8.533 1.688 C 8.350 1.635,7.991 1.608,7.747 1.630 M11.200 9.607 L 11.200 12.800 8.000 12.800 L 4.800 12.800 4.800 9.593 L 4.800 6.387 6.393 4.793 L 7.987 3.200 9.593 4.807 L 11.200 6.413 11.200 9.607 " fill="#1A1C1F" stroke="none" fill-rule="evenodd"></path></svg>