<svg width="14" height="14" viewBox="0 0 14 14" fill="none" xmlns="http://www.w3.org/2000/svg"><path d="M3.757 1.421 L 2.742 1.435 2.635 1.498 C 2.495 1.580,2.373 1.718,2.325 1.846 C 2.214 2.149,1.482 4.560,1.434 4.783 C 1.388 4.994,1.392 5.181,1.447 5.411 C 1.563 5.893,1.852 6.265,2.273 6.473 C 2.523 6.597,2.701 6.636,2.998 6.635 C 3.222 6.634,3.281 6.625,3.459 6.563 C 3.746 6.464,3.899 6.366,4.125 6.137 L 4.320 5.939 4.476 6.105 C 4.660 6.301,4.768 6.386,4.958 6.481 C 5.205 6.604,5.350 6.636,5.658 6.635 C 5.898 6.635,5.965 6.626,6.125 6.573 C 6.434 6.471,6.707 6.286,6.890 6.054 C 6.944 5.986,6.994 5.929,7.000 5.929 C 7.006 5.929,7.046 5.976,7.089 6.033 C 7.193 6.174,7.475 6.395,7.668 6.486 C 8.128 6.704,8.575 6.700,9.037 6.475 C 9.237 6.377,9.474 6.188,9.589 6.034 C 9.633 5.975,9.675 5.927,9.682 5.927 C 9.689 5.928,9.727 5.971,9.765 6.024 C 9.803 6.076,9.907 6.180,9.994 6.254 C 10.384 6.584,10.910 6.721,11.356 6.608 C 11.733 6.513,12.022 6.329,12.259 6.034 C 12.542 5.683,12.662 5.180,12.564 4.760 C 12.482 4.413,11.707 1.900,11.642 1.773 C 11.589 1.669,11.448 1.534,11.328 1.475 C 11.237 1.430,11.169 1.429,8.003 1.418 C 6.226 1.413,4.315 1.414,3.757 1.421 M2.100 9.272 L 2.100 11.194 2.005 11.209 C 1.790 11.244,1.566 11.413,1.466 11.617 C 1.390 11.773,1.392 12.031,1.470 12.192 C 1.548 12.351,1.701 12.494,1.857 12.552 C 1.985 12.600,1.993 12.600,7.000 12.600 C 12.007 12.600,12.015 12.600,12.143 12.552 C 12.299 12.494,12.452 12.351,12.530 12.192 C 12.608 12.031,12.610 11.773,12.534 11.617 C 12.434 11.413,12.210 11.244,11.995 11.209 L 11.900 11.194 11.900 9.272 L 11.900 7.350 7.000 7.350 L 2.100 7.350 2.100 9.272 " fill="#1A1C1F" stroke="none" fill-rule="evenodd"></path></svg>