<svg xmlns="http://www.w3.org/2000/svg" width="14" height="14" fill="none"><g clip-path="url(#a)"><path fill="#1A1C1F" fill-rule="evenodd" d="M11.9 7.35v3.85a.7.7 0 1 1 0 1.4H2.1a.7.7 0 0 1 0-1.4V7.35zm-.868-5.95a.7.7 0 0 1 .67.495l.812 2.655c.054.165.086.341.086.525a1.575 1.575 0 0 1-2.917.824A1.574 1.574 0 0 1 7 5.9a1.574 1.574 0 0 1-2.684 0 1.575 1.575 0 0 1-2.814-1.383l.797-2.62a.7.7 0 0 1 .67-.496z" clip-rule="evenodd"/></g><defs><clipPath id="a"><path fill="#fff" d="M0 0h14v14H0z"/></clipPath></defs></svg>