<svg xmlns="http://www.w3.org/2000/svg" width="32" height="32" fill="none"><g clip-path="url(#a)"><path fill="#1A1C1F" fill-rule="evenodd" d="M6 28a1 1 0 1 1 0-2V15.373a3.5 3.5 0 0 1-1.446-3.488l1.303-6.29A1.99 1.99 0 0 1 7.815 4h16.372c.892 0 1.755.62 1.959 1.595l1.294 6.229q.06.341.06.676c0 1.189-.592 2.24-1.5 2.872V26a1 1 0 0 1 1 1c0 .513-.401 1-1 1zm18-6H8v4h16zm-2-6.629q-.9.63-2 .629-1.099 0-2-.629-.9.63-2 .629-1.099 0-2-.629-.9.63-2 .629-1.099 0-2-.629-.93.648-2 .629v4h16v-4a3.5 3.5 0 0 1-2-.629M24.187 6H7.815L6.52 12.258a1.5 1.5 0 0 0-.02.242c0 .828.565 1.5 1.5 1.5q.936 0 2-1.5 1.054 1.5 2 1.5.949 0 2-1.5Q15.09 14 16.006 14T18 12.5q1.066 1.5 2 1.5.935 0 2-1.5 1.088 1.5 2 1.5c.915 0 1.5-.672 1.5-1.5 0-.07-.017-.235-.024-.301z" clip-rule="evenodd"/></g><defs><clipPath id="a"><path fill="#fff" d="M0 0h32v32H0z"/></clipPath></defs></svg>