<svg xmlns="http://www.w3.org/2000/svg" width="16" height="16" fill="none"><g clip-path="url(#a)"><path fill="#1A1C1F" fill-rule="evenodd" d="M2.4 14.4a.8.8 0 0 1 0-1.6V7.676a2.59 2.59 0 0 1-.705-2.569l.578-2.294A1.6 1.6 0 0 1 3.826 1.6h8.349c.693 0 1.363.462 1.553 1.213l.59 2.294q.083.329.083.693c0 .737-.306 1.402-.8 1.876V12.8a.8.8 0 1 1 0 1.6zm9.6-3.2H4v1.6h8zm-1.466-3.13A2.6 2.6 0 0 1 8 8.07a2.56 2.56 0 0 1-1.267.33q-.675 0-1.267-.33-.705.38-1.466.322V9.6h8V8.4q-.826.039-1.467-.33m1.64-4.87H3.826L3.23 5.608c-.016.072-.03.116-.03.192a1 1 0 0 0 1 1q.603 0 1.267-.84.69.84 1.266.84T8 5.96q.714.84 1.267.84.55 0 1.265-.84.7.84 1.268.84a1 1 0 0 0 1-1c0-.083 0-.113-.018-.192z" clip-rule="evenodd"/></g><defs><clipPath id="a"><path fill="#fff" d="M0 0h16v16H0z"/></clipPath></defs></svg>