<svg xmlns="http://www.w3.org/2000/svg" width="12" height="12" fill="none"><g clip-path="url(#a)"><path fill="#1A1C1F" fill-rule="evenodd" d="M10.201 6.3v3.3a.6.6 0 1 1 0 1.2h-8.4a.6.6 0 1 1 0-1.2V6.3zm-.744-5.1a.6.6 0 0 1 .574.424l.697 2.276c.046.141.073.292.073.45a1.35 1.35 0 0 1-2.5.706 1.35 1.35 0 0 1-2.3 0 1.347 1.347 0 0 1-2.3 0A1.35 1.35 0 0 1 1.288 3.87l.683-2.245a.6.6 0 0 1 .574-.425z" clip-rule="evenodd"/></g><defs><clipPath id="a"><path fill="#fff" d="M0 0h12v12H0z"/></clipPath></defs></svg>