<svg xmlns="http://www.w3.org/2000/svg" width="28" height="28" fill="none"><g clip-path="url(#a)"><path fill="#1A1C1F" fill-rule="evenodd" d="M5.25 24.5a.875.875 0 0 1 0-1.75v-9.299A3.06 3.06 0 0 1 3.986 10.4l1.14-5.503A1.74 1.74 0 0 1 6.839 3.5h14.325c.78 0 1.536.543 1.714 1.396l1.132 5.45q.053.299.053.591c0 1.04-.518 1.96-1.311 2.514l-.001 9.299a.875.875 0 0 1 0 1.75zM21 19.25H7v3.5h14zm-1.75-5.8a3 3 0 0 1-1.75.55 3 3 0 0 1-1.75-.55A3 3 0 0 1 14 14a3 3 0 0 1-1.75-.55 3 3 0 0 1-1.75.55 3 3 0 0 1-1.75-.55A2.9 2.9 0 0 1 7 14v3.5h14V14q-.945 0-1.75-.55m1.914-8.2H6.839l-1.134 5.476q-.015.105-.016.211c0 .725.493 1.313 1.312 1.313q.819 0 1.75-1.313.92 1.313 1.75 1.313t1.75-1.313q.952 1.313 1.753 1.313.802 0 1.746-1.313.934 1.313 1.75 1.313.819 0 1.75-1.313.951 1.313 1.75 1.313c.8 0 1.314-.588 1.314-1.313 0-.06-.016-.205-.022-.263z" clip-rule="evenodd"/></g><defs><clipPath id="a"><path fill="#fff" d="M0 0h28v28H0z"/></clipPath></defs></svg>