<svg xmlns="http://www.w3.org/2000/svg" width="32" height="32" fill="none"><path fill="#1A1C1F" fill-rule="evenodd" d="M7.346 4.057a2.1 2.1 0 0 0-1.305 1.034c-.101.199-.316 1.128-.83 3.575-.635 3.031-.693 3.354-.693 3.867 0 .46.025.637.14.987.194.594.476 1.048.929 1.496l.386.382v10.615l-.225.036c-.286.046-.658.411-.712.699-.09.481.123.945.524 1.139l.234.113 10.21-.001c9.914-.001 10.216-.004 10.432-.103.421-.19.656-.776.501-1.246-.087-.264-.43-.56-.696-.603l-.214-.034V15.404l.386-.385c.724-.72 1.068-1.52 1.07-2.486.001-.514-.055-.826-.679-3.813q-.68-3.253-.815-3.559c-.168-.378-.593-.793-1.016-.991l-.306-.143-8.56-.009c-4.866-.004-8.647.012-8.761.039M24.842 9.16c.358 1.723.652 3.243.652 3.377a1.456 1.456 0 0 1-1.437 1.45c-.547.006-1.143-.363-1.726-1.069l-.327-.395-.126.152c-.688.832-1.095 1.16-1.581 1.273-.671.156-1.284-.186-2.087-1.166l-.212-.258-.35.418c-1.161 1.386-2.137 1.381-3.307-.016l-.338-.403-.125.152c-.688.832-1.095 1.16-1.581 1.273-.701.163-1.257-.162-2.174-1.272l-.124-.151-.348.418c-.751.903-1.391 1.192-2.162.976-.375-.105-.784-.517-.897-.902a2.2 2.2 0 0 1-.086-.48c0-.105.294-1.612.653-3.35l.653-3.16h16.377zm-13.935 6.661c.379.133.5.15 1.093.15s.714-.017 1.093-.15a4.3 4.3 0 0 0 .667-.296l.241-.148.239.149c.132.082.444.217.693.299.39.127.54.148 1.067.148s.677-.021 1.067-.148c.249-.082.561-.217.693-.299l.239-.149.241.148c.132.081.432.214.667.296.379.133.5.15 1.093.15s.714-.017 1.093-.15a4.3 4.3 0 0 0 .667-.296l.24-.147.261.154c.357.211.949.402 1.38.446l.359.037V20H8v-3.985l.373-.034c.409-.038 1.087-.264 1.415-.472l.21-.133.241.148c.133.082.433.215.668.297M24 24.027v2H8v-4h16z"/></svg>