<svg width="28" height="28" viewBox="0 0 28 28" fill="none" xmlns="http://www.w3.org/2000/svg"><path d="M8.307 3.543 L 6.277 3.570 6.049 3.704 C 5.740 3.885,5.477 4.130,5.345 4.359 C 5.190 4.627,4.930 5.749,4.193 9.333 C 3.949 10.516,3.912 11.150,4.053 11.709 C 4.185 12.231,4.420 12.633,4.860 13.092 L 5.227 13.473 5.227 18.117 L 5.227 22.762 5.076 22.792 C 4.700 22.867,4.387 23.236,4.387 23.602 C 4.387 23.853,4.561 24.169,4.799 24.348 L 5.001 24.500 13.983 24.500 C 23.848 24.500,23.071 24.524,23.362 24.212 C 23.822 23.720,23.620 22.980,22.978 22.809 L 22.773 22.754 22.773 18.114 L 22.773 13.473 23.140 13.092 C 23.775 12.430,24.033 11.803,24.033 10.924 C 24.033 10.558,23.978 10.198,23.728 8.959 C 23.287 6.770,22.828 4.721,22.725 4.489 C 22.615 4.240,22.215 3.844,21.908 3.680 L 21.677 3.557 16.007 3.536 C 12.888 3.525,9.423 3.528,8.307 3.543 M21.344 6.125 C 22.226 10.399,22.311 10.852,22.284 11.103 C 22.215 11.747,21.685 12.227,21.041 12.227 C 20.564 12.227,20.041 11.902,19.532 11.291 L 19.255 10.960 19.022 11.232 C 18.636 11.680,18.333 11.944,18.027 12.095 C 17.774 12.220,17.699 12.235,17.443 12.218 C 17.282 12.207,17.076 12.162,16.985 12.119 C 16.746 12.003,16.333 11.643,16.023 11.280 L 15.752 10.963 15.520 11.233 C 14.950 11.897,14.550 12.173,14.102 12.213 C 13.597 12.257,13.103 11.964,12.525 11.278 L 12.256 10.959 12.022 11.231 C 11.636 11.680,11.333 11.944,11.027 12.095 C 10.774 12.220,10.699 12.235,10.443 12.218 C 10.282 12.207,10.076 12.162,9.985 12.119 C 9.746 12.003,9.333 11.643,9.022 11.279 L 8.751 10.962 8.544 11.209 C 7.974 11.888,7.553 12.176,7.076 12.214 C 6.543 12.257,6.134 12.050,5.883 11.611 C 5.634 11.174,5.635 11.158,6.183 8.470 C 6.455 7.135,6.712 5.870,6.755 5.658 L 6.832 5.273 14.000 5.273 L 21.169 5.273 21.344 6.125 M9.092 13.646 C 9.605 13.904,9.895 13.971,10.500 13.972 C 11.088 13.973,11.419 13.893,11.973 13.618 L 12.257 13.477 12.580 13.639 C 13.142 13.920,13.357 13.971,13.977 13.971 C 14.609 13.972,14.886 13.909,15.417 13.641 L 15.743 13.477 16.027 13.618 C 16.581 13.893,16.912 13.973,17.500 13.973 C 18.088 13.973,18.419 13.893,18.973 13.618 L 19.257 13.477 19.543 13.621 C 19.893 13.798,20.573 14.000,20.819 14.000 L 21.000 14.000 21.000 15.750 L 21.000 17.500 14.000 17.500 L 7.000 17.500 7.000 15.750 L 7.000 14.000 7.179 14.000 C 7.459 14.000,8.062 13.828,8.398 13.653 C 8.566 13.566,8.720 13.492,8.739 13.490 C 8.759 13.488,8.918 13.558,9.092 13.646 M21.000 21.023 L 21.000 22.773 14.000 22.773 L 7.000 22.773 7.000 21.023 L 7.000 19.273 14.000 19.273 L 21.000 19.273 21.000 21.023 " fill="#1A1C1F" stroke="none" fill-rule="evenodd"></path></svg>