<svg width="20" height="20" viewBox="0 0 20 20" fill="none" xmlns="http://www.w3.org/2000/svg"><path d="M4.483 2.029 C 3.860 2.052,3.812 2.066,3.562 2.291 C 3.489 2.358,3.401 2.466,3.367 2.532 C 3.305 2.654,3.076 3.380,2.395 5.617 L 2.020 6.850 2.020 7.250 C 2.020 7.600,2.032 7.683,2.113 7.917 C 2.248 8.309,2.380 8.518,2.681 8.819 C 2.982 9.120,3.192 9.252,3.583 9.387 C 3.810 9.464,3.905 9.478,4.217 9.479 C 4.936 9.480,5.522 9.211,5.987 8.666 C 6.073 8.565,6.154 8.483,6.167 8.483 C 6.181 8.483,6.253 8.561,6.327 8.655 C 6.571 8.963,7.012 9.257,7.450 9.404 C 7.646 9.470,7.748 9.482,8.083 9.480 C 8.421 9.477,8.525 9.463,8.750 9.389 C 9.192 9.244,9.513 9.021,9.876 8.608 L 10.001 8.465 10.107 8.591 C 10.433 8.975,10.797 9.233,11.235 9.387 C 11.556 9.500,12.126 9.517,12.467 9.424 C 12.931 9.296,13.470 8.943,13.717 8.605 C 13.772 8.530,13.824 8.468,13.833 8.469 C 13.842 8.469,13.900 8.537,13.960 8.619 C 14.021 8.701,14.182 8.858,14.319 8.966 C 15.061 9.556,15.934 9.656,16.764 9.246 C 17.070 9.095,17.497 8.697,17.676 8.395 C 17.890 8.034,17.977 7.712,17.980 7.267 C 17.984 6.828,18.013 6.944,17.382 4.883 C 16.886 3.261,16.683 2.628,16.622 2.512 C 16.552 2.379,16.343 2.187,16.177 2.104 L 16.037 2.034 10.544 2.021 C 7.522 2.013,4.795 2.017,4.483 2.029 M3.000 13.246 L 3.000 15.991 2.864 16.013 C 2.557 16.062,2.238 16.304,2.095 16.595 C 1.986 16.818,1.988 17.187,2.100 17.417 C 2.212 17.645,2.429 17.848,2.652 17.931 C 2.836 18.000,2.847 18.000,10.000 18.000 C 17.153 18.000,17.164 18.000,17.348 17.931 C 17.571 17.848,17.788 17.645,17.900 17.417 C 18.012 17.187,18.014 16.818,17.905 16.595 C 17.762 16.304,17.443 16.062,17.136 16.013 L 17.000 15.991 17.000 13.246 L 17.000 10.500 10.000 10.500 L 3.000 10.500 3.000 13.246 " fill="#1A1C1F" stroke="none" fill-rule="evenodd"></path></svg>