<svg xmlns="http://www.w3.org/2000/svg" width="14" height="14" fill="none"><g clip-path="url(#a)"><path fill="#1A1C1F" fill-rule="evenodd" d="M2.1 12.6a.7.7 0 0 1 0-1.4V6.717a2.27 2.27 0 0 1-.617-2.248l.507-2.007A1.4 1.4 0 0 1 3.348 1.4h7.304c.607 0 1.193.405 1.36 1.062l.515 2.007q.075.286.074.606c0 .645-.269 1.227-.7 1.641V11.2a.7.7 0 1 1 0 1.4zm8.4-2.8h-7v1.4h7zM9.218 7.06A2.27 2.27 0 0 1 7 7.06a2.24 2.24 0 0 1-1.108.29 2.23 2.23 0 0 1-1.11-.29c-.39.218-.836.316-1.282.283V8.4h7V7.35q-.724.034-1.284-.29m1.435-4.26H3.348l-.52 2.107c-.015.063-.027.102-.027.168 0 .483.392.875.875.875q.527 0 1.108-.735.604.735 1.109.735.504 0 1.108-.735.625.735 1.108.735.482 0 1.107-.735.613.735 1.11.735a.875.875 0 0 0 .874-.875c0-.073 0-.1-.015-.168z" clip-rule="evenodd"/></g><defs><clipPath id="a"><path fill="#fff" d="M0 0h14v14H0z"/></clipPath></defs></svg>