<svg width="12" height="12" viewBox="0 0 12 12" fill="none" xmlns="http://www.w3.org/2000/svg"><path d="M2.650 1.219 C 2.414 1.228,2.336 1.238,2.284 1.266 C 2.184 1.321,2.062 1.438,2.019 1.521 C 1.984 1.591,1.855 2.000,1.407 3.470 L 1.212 4.110 1.212 4.340 C 1.211 4.525,1.220 4.599,1.258 4.719 C 1.400 5.179,1.698 5.483,2.160 5.642 C 2.266 5.678,2.336 5.686,2.540 5.687 C 2.813 5.689,2.892 5.673,3.110 5.571 C 3.291 5.487,3.478 5.345,3.593 5.203 C 3.644 5.141,3.692 5.090,3.701 5.090 C 3.709 5.090,3.753 5.137,3.799 5.194 C 3.960 5.396,4.250 5.584,4.520 5.662 C 4.571 5.677,4.713 5.688,4.850 5.688 C 5.046 5.688,5.115 5.680,5.228 5.643 C 5.501 5.553,5.725 5.406,5.890 5.208 C 5.944 5.143,5.991 5.087,5.994 5.082 C 5.996 5.078,6.023 5.105,6.053 5.142 C 6.237 5.370,6.454 5.523,6.724 5.615 C 7.066 5.732,7.345 5.723,7.684 5.581 C 7.854 5.510,8.118 5.310,8.222 5.172 C 8.259 5.122,8.295 5.081,8.300 5.081 C 8.306 5.082,8.346 5.127,8.390 5.183 C 8.620 5.474,9.084 5.701,9.449 5.700 C 9.716 5.699,10.038 5.588,10.265 5.418 C 10.610 5.159,10.821 4.707,10.794 4.282 C 10.783 4.097,10.744 3.956,10.420 2.890 C 10.011 1.546,9.960 1.420,9.788 1.306 L 9.685 1.237 9.327 1.219 C 8.949 1.200,3.160 1.200,2.650 1.219 M1.800 7.947 L 1.800 9.594 1.693 9.618 C 1.525 9.655,1.381 9.752,1.306 9.878 C 1.107 10.211,1.222 10.590,1.571 10.753 C 1.647 10.789,1.822 10.790,5.973 10.795 L 10.296 10.801 10.407 10.759 C 10.542 10.709,10.673 10.587,10.740 10.450 C 10.807 10.312,10.809 10.091,10.743 9.957 C 10.657 9.782,10.472 9.642,10.285 9.611 L 10.200 9.596 10.200 7.948 L 10.200 6.300 6.000 6.300 L 1.800 6.300 1.800 7.947 " fill="#1A1C1F" stroke="none" fill-rule="evenodd"></path></svg>