<svg xmlns="http://www.w3.org/2000/svg" width="20" height="20" fill="none"><path fill="#1A1C1F" fill-rule="evenodd" d="M3.933 2.055c-.263.092-.516.319-.605.545-.068.17-1.24 4.024-1.282 4.217-.184.828.212 1.794.933 2.276.435.291.908.426 1.388.396.642-.041 1.258-.354 1.626-.827.083-.108.162-.195.174-.195a.5.5 0 0 1 .119.137c.256.369.848.745 1.331.846.72.15 1.498-.073 2.012-.577a4 4 0 0 0 .299-.323l.072-.1.072.1c.04.055.174.2.299.323.269.264.711.5 1.079.577.849.177 1.747-.168 2.296-.883l.089-.117.071.1c.185.26.528.548.835.699.397.196.709.263 1.126.241a2.17 2.17 0 0 0 1.49-.68 2.24 2.24 0 0 0 .595-2.01c-.066-.302-1.228-4.088-1.304-4.249a1.06 1.06 0 0 0-.467-.454l-.164-.08-5.967-.007c-5.347-.006-5.982-.002-6.117.045M3 13.246v2.745l-.142.022a1.02 1.02 0 0 0-.791.644.996.996 0 0 0 .578 1.272l.191.071h14.328l.191-.071a.996.996 0 0 0 .578-1.272 1.02 1.02 0 0 0-.791-.644L17 15.991V10.5H3z"/></svg>