<svg width="16" height="16" viewBox="0 0 16 16" fill="none" xmlns="http://www.w3.org/2000/svg"><path d="M3.747 1.624 C 3.069 1.642,3.059 1.644,2.850 1.833 C 2.670 1.996,2.685 1.953,2.032 4.107 L 1.616 5.480 1.615 5.787 C 1.615 6.033,1.627 6.133,1.677 6.293 C 1.852 6.861,2.220 7.260,2.779 7.487 C 2.997 7.575,3.372 7.616,3.648 7.580 C 4.053 7.528,4.519 7.267,4.785 6.942 C 4.859 6.852,4.926 6.777,4.933 6.777 C 4.941 6.776,4.989 6.830,5.040 6.897 C 5.273 7.199,5.665 7.445,6.084 7.551 C 6.491 7.654,6.989 7.573,7.385 7.341 C 7.550 7.244,7.828 6.997,7.938 6.849 L 7.991 6.777 8.242 7.024 C 8.513 7.290,8.714 7.418,9.027 7.523 C 9.180 7.575,9.269 7.586,9.520 7.586 C 9.851 7.587,10.082 7.534,10.359 7.394 C 10.538 7.304,10.818 7.074,10.948 6.909 C 11.006 6.836,11.059 6.775,11.067 6.775 C 11.074 6.775,11.122 6.830,11.173 6.897 C 11.405 7.197,11.809 7.448,12.218 7.547 C 12.620 7.643,12.982 7.601,13.373 7.413 C 13.745 7.234,14.033 6.945,14.216 6.570 C 14.410 6.171,14.448 5.788,14.335 5.356 C 14.175 4.745,13.380 2.173,13.305 2.027 C 13.244 1.906,13.083 1.754,12.941 1.683 L 12.828 1.626 8.594 1.617 C 6.265 1.611,4.084 1.614,3.747 1.624 M2.400 10.596 L 2.400 12.792 2.257 12.824 C 2.033 12.874,1.842 13.002,1.741 13.170 C 1.470 13.625,1.625 14.107,2.120 14.348 C 2.189 14.381,2.981 14.388,7.964 14.394 L 13.728 14.401 13.877 14.346 C 14.056 14.278,14.230 14.117,14.320 13.933 C 14.410 13.749,14.411 13.455,14.324 13.276 C 14.210 13.042,13.963 12.856,13.713 12.814 L 13.600 12.795 13.600 10.598 L 13.600 8.400 8.000 8.400 L 2.400 8.400 2.400 10.596 " fill="#1A1C1F" stroke="none" fill-rule="evenodd"></path></svg>