<svg xmlns="http://www.w3.org/2000/svg" width="20" height="20" fill="none"><g clip-path="url(#a)"><path fill="#1A1C1F" fill-rule="evenodd" d="M17 10.5V16a1 1 0 0 1 1 1c0 .513-.419 1-1 1H3a1 1 0 0 1 0-2v-5.5zM15.76 2a1 1 0 0 1 .957.707l1.16 3.793c.078.235.123.487.123.75a2.25 2.25 0 0 1-4.168 1.177A2.248 2.248 0 0 1 10 8.428a2.25 2.25 0 0 1-3.834-.001 2.25 2.25 0 0 1-4.02-1.976l1.14-3.742A1 1 0 0 1 4.24 2z" clip-rule="evenodd"/></g><defs><clipPath id="a"><path fill="#fff" d="M0 0h20v20H0z"/></clipPath></defs></svg>