<svg xmlns="http://www.w3.org/2000/svg" width="24" height="24" fill="none"><g clip-path="url(#a)"><path fill="#1A1C1F" fill-rule="evenodd" d="M4 21a1 1 0 0 1 0-2v-6.764c-.614-.55-1-1.347-1-2.236 0-.442.06-.634.159-.989l1.18-4.515A1.995 1.995 0 0 1 6.272 3h11.455c.857 0 1.671.525 1.935 1.497l1.181 4.514c.11.316.157.65.157.989a3 3 0 0 1-1 2.235V19a1 1 0 0 1 0 2zm14-4H6v2h12zm-1.5-4.402Q15.81 13 15 13t-1.5-.402A3 3 0 0 1 12 13a3 3 0 0 1-1.5-.402A2.94 2.94 0 0 1 9 13a2.95 2.95 0 0 1-1.5-.402q-.668.39-1.5.402v2h12v-2a3.04 3.04 0 0 1-1.5-.402M17.727 5H6.275L5.02 9.794A1 1 0 0 0 6 11q.774 0 1.499-1.19Q8.16 11 9 11t1.5-1.19Q11.205 11 12 11t1.5-1.19Q14.157 11 15 11q.844 0 1.5-1.19Q17.175 11 18 11a1 1 0 0 0 1-1c0-.092-.069-.373-.104-.499z" clip-rule="evenodd"/></g><defs><clipPath id="a"><path fill="#fff" d="M0 0h24v24H0z"/></clipPath></defs></svg>