<svg width="14" height="14" viewBox="0 0 14 14" fill="none" xmlns="http://www.w3.org/2000/svg"><path d="M3.687 1.422 C 3.041 1.436,2.990 1.440,2.870 1.490 C 2.656 1.580,2.492 1.692,2.326 1.863 C 2.083 2.116,2.057 2.188,1.653 3.780 L 1.395 4.795 1.410 5.133 C 1.428 5.521,1.474 5.723,1.609 6.012 C 1.718 6.245,1.837 6.427,1.987 6.591 L 2.100 6.715 2.100 8.954 L 2.100 11.194 2.005 11.209 C 1.790 11.244,1.566 11.413,1.466 11.617 C 1.390 11.773,1.392 12.031,1.470 12.192 C 1.548 12.351,1.701 12.494,1.857 12.552 C 1.985 12.600,1.993 12.600,7.000 12.600 C 12.007 12.600,12.015 12.600,12.143 12.552 C 12.299 12.494,12.452 12.351,12.530 12.192 C 12.608 12.031,12.610 11.773,12.534 11.617 C 12.434 11.413,12.210 11.244,11.995 11.209 L 11.900 11.194 11.900 8.950 L 11.900 6.706 11.995 6.614 C 12.105 6.507,12.261 6.279,12.361 6.078 C 12.532 5.734,12.619 5.294,12.593 4.900 C 12.571 4.558,12.022 2.440,11.877 2.136 C 11.788 1.948,11.508 1.677,11.293 1.569 C 10.975 1.408,11.225 1.419,7.630 1.412 C 5.840 1.409,4.065 1.413,3.687 1.422 M10.904 3.809 C 11.203 5.012,11.210 5.045,11.178 5.217 C 11.132 5.469,10.937 5.739,10.722 5.851 C 10.625 5.901,10.435 5.949,10.333 5.950 C 10.203 5.950,9.966 5.867,9.819 5.770 C 9.745 5.721,9.576 5.580,9.442 5.455 L 9.198 5.228 9.089 5.355 C 8.945 5.524,8.644 5.763,8.452 5.860 C 8.314 5.930,8.277 5.938,8.110 5.938 C 7.944 5.937,7.903 5.928,7.767 5.860 C 7.576 5.765,7.273 5.526,7.127 5.355 L 7.018 5.227 6.782 5.451 C 6.493 5.723,6.320 5.842,6.120 5.903 C 5.930 5.962,5.853 5.962,5.665 5.904 C 5.463 5.841,5.283 5.719,5.006 5.456 L 4.774 5.235 4.623 5.395 C 4.103 5.947,3.646 6.080,3.215 5.806 C 2.936 5.629,2.776 5.300,2.823 5.003 C 2.835 4.927,2.957 4.400,3.095 3.833 L 3.346 2.800 6.999 2.800 L 10.652 2.800 10.904 3.809 M5.000 7.161 C 5.285 7.282,5.358 7.301,5.641 7.326 C 6.088 7.367,6.463 7.308,6.841 7.136 L 6.997 7.065 7.194 7.149 C 7.533 7.295,7.711 7.330,8.108 7.330 C 8.506 7.330,8.683 7.295,9.022 7.149 L 9.219 7.065 9.401 7.148 C 9.668 7.270,9.911 7.328,10.226 7.343 L 10.500 7.357 10.500 7.878 L 10.500 8.400 7.000 8.400 L 3.500 8.400 3.500 7.878 L 3.500 7.357 3.751 7.343 C 4.039 7.327,4.374 7.249,4.597 7.145 C 4.680 7.106,4.757 7.073,4.767 7.072 C 4.777 7.071,4.882 7.111,5.000 7.161 M10.500 10.500 L 10.500 11.200 7.000 11.200 L 3.500 11.200 3.500 10.500 L 3.500 9.800 7.000 9.800 L 10.500 9.800 10.500 10.500 " fill="#1A1C1F" stroke="none" fill-rule="evenodd"></path></svg>