<svg xmlns="http://www.w3.org/2000/svg" width="12" height="12" fill="none"><g clip-path="url(#a)"><path fill="#1A1C1F" fill-rule="evenodd" d="M1.8 10.8a.6.6 0 1 1 0-1.2V5.757a1.94 1.94 0 0 1-.53-1.927l.435-1.72A1.2 1.2 0 0 1 2.87 1.2h6.26c.52 0 1.022.347 1.165.91l.442 1.72q.063.246.063.52c0 .553-.23 1.052-.6 1.407V9.6a.6.6 0 0 1 0 1.2zM9 8.4H3v1.2h6zM7.9 6.052a1.95 1.95 0 0 1-1.9 0 1.9 1.9 0 0 1-.95.248 1.9 1.9 0 0 1-.95-.248q-.529.285-1.1.242V7.2h6v-.9a1.96 1.96 0 0 1-1.1-.248M9.13 2.4H2.87l-.445 1.806c-.012.054-.023.087-.023.144 0 .414.336.75.75.75q.451 0 .95-.63.518.63.95.63t.95-.63q.536.63.95.63t.949-.63q.525.63.95.63a.75.75 0 0 0 .75-.75c0-.062 0-.085-.013-.144z" clip-rule="evenodd"/></g><defs><clipPath id="a"><path fill="#fff" d="M0 0h12v12H0z"/></clipPath></defs></svg>