<svg width="12" height="12" viewBox="0 0 12 12" fill="none" xmlns="http://www.w3.org/2000/svg"><path d="M3.170 1.218 C 2.638 1.230,2.580 1.235,2.471 1.275 C 2.110 1.410,1.842 1.689,1.728 2.048 C 1.700 2.137,1.569 2.638,1.436 3.160 L 1.196 4.110 1.210 4.400 C 1.219 4.572,1.240 4.751,1.262 4.840 C 1.331 5.109,1.505 5.428,1.707 5.653 L 1.800 5.756 1.800 7.676 L 1.800 9.596 1.715 9.611 C 1.528 9.642,1.342 9.783,1.255 9.958 C 1.190 10.090,1.193 10.311,1.260 10.450 C 1.327 10.587,1.458 10.709,1.591 10.759 C 1.701 10.800,1.708 10.800,6.000 10.800 C 10.292 10.800,10.299 10.800,10.409 10.759 C 10.542 10.709,10.673 10.587,10.740 10.450 C 10.807 10.312,10.809 10.091,10.743 9.957 C 10.657 9.782,10.472 9.642,10.285 9.611 L 10.200 9.596 10.200 7.672 L 10.200 5.748 10.281 5.669 C 10.376 5.577,10.509 5.382,10.595 5.210 C 10.743 4.913,10.815 4.550,10.794 4.212 C 10.775 3.905,10.310 2.103,10.181 1.831 C 10.102 1.667,9.863 1.436,9.680 1.347 C 9.384 1.205,9.636 1.215,6.540 1.210 C 5.006 1.208,3.489 1.211,3.170 1.218 M9.344 3.255 C 9.462 3.725,9.569 4.166,9.580 4.235 C 9.660 4.702,9.247 5.146,8.783 5.092 C 8.591 5.069,8.409 4.963,8.134 4.711 L 7.890 4.487 7.730 4.650 C 7.453 4.932,7.161 5.100,6.950 5.100 C 6.737 5.100,6.468 4.943,6.182 4.653 L 6.013 4.483 5.812 4.674 C 5.701 4.779,5.556 4.901,5.491 4.943 C 5.090 5.206,4.737 5.125,4.287 4.669 L 4.104 4.484 3.885 4.700 C 3.703 4.878,3.637 4.930,3.498 4.998 C 3.382 5.055,3.292 5.084,3.209 5.093 C 2.767 5.137,2.352 4.714,2.420 4.288 C 2.430 4.223,2.536 3.772,2.654 3.285 L 2.870 2.400 6.000 2.400 L 9.130 2.400 9.344 3.255 M4.272 6.131 C 4.816 6.357,5.346 6.351,5.865 6.116 L 6.000 6.054 6.155 6.125 C 6.376 6.226,6.510 6.261,6.755 6.279 C 7.162 6.309,7.491 6.253,7.801 6.100 L 7.893 6.055 8.032 6.117 C 8.285 6.228,8.509 6.282,8.765 6.294 L 9.000 6.306 9.000 6.753 L 9.000 7.200 6.000 7.200 L 3.000 7.200 3.000 6.753 L 3.000 6.306 3.215 6.294 C 3.461 6.282,3.745 6.215,3.940 6.124 C 4.011 6.091,4.077 6.063,4.085 6.062 C 4.093 6.061,4.177 6.092,4.272 6.131 M9.000 9.000 L 9.000 9.600 6.000 9.600 L 3.000 9.600 3.000 9.000 L 3.000 8.400 6.000 8.400 L 9.000 8.400 9.000 9.000 " fill="#1A1C1F" stroke="none" fill-rule="evenodd"></path></svg>