<svg xmlns="http://www.w3.org/2000/svg" width="20" height="20" fill="none"><g clip-path="url(#a)"><path fill="#1A1C1F" fill-rule="evenodd" d="M3.001 18a1 1 0 0 1 0-2V9.595a3.24 3.24 0 0 1-.883-3.211l.724-2.868C3.038 2.73 3.76 2 4.782 2h10.435c.866 0 1.703.578 1.941 1.516l.737 2.868q.105.41.105.866a3.24 3.24 0 0 1-1 2.344V16a1 1 0 0 1 1 1c0 .513-.402 1-1 1zm12-4h-10v2h10zm-1.834-3.913a3.24 3.24 0 0 1-3.166 0 3.2 3.2 0 0 1-1.583.413q-.843 0-1.584-.413a3.27 3.27 0 0 1-1.833.404V12h10v-1.5q-1.034.049-1.834-.413M15.217 4H4.783L4.04 7.01c-.02.09-.038.145-.038.24 0 .69.56 1.25 1.25 1.25q.753 0 1.583-1.05Q7.697 8.5 8.42 8.5q.72 0 1.583-1.05.894 1.05 1.583 1.05.69 0 1.582-1.05.874 1.05 1.585 1.05c.69 0 1.25-.56 1.25-1.25 0-.104.001-.142-.023-.24L15.22 4z" clip-rule="evenodd"/></g><defs><clipPath id="a"><path fill="#fff" d="M0 0h20v20H0z"/></clipPath></defs></svg>