<svg width="16" height="16" viewBox="0 0 16 16" fill="none" xmlns="http://www.w3.org/2000/svg"><path d="M4.200 1.625 C 3.476 1.641,3.417 1.646,3.280 1.703 C 2.949 1.841,2.639 2.087,2.479 2.340 C 2.362 2.524,2.248 2.901,1.949 4.099 C 1.578 5.578,1.555 5.737,1.639 6.217 C 1.722 6.690,1.925 7.129,2.217 7.467 L 2.400 7.679 2.400 10.237 L 2.400 12.795 2.287 12.814 C 2.037 12.856,1.790 13.042,1.676 13.276 C 1.589 13.455,1.590 13.749,1.680 13.933 C 1.769 14.116,1.944 14.278,2.122 14.345 C 2.268 14.400,2.277 14.400,8.000 14.400 C 13.723 14.400,13.732 14.400,13.878 14.345 C 14.056 14.278,14.231 14.116,14.320 13.933 C 14.410 13.749,14.411 13.455,14.324 13.276 C 14.210 13.042,13.963 12.856,13.713 12.814 L 13.600 12.795 13.600 10.229 L 13.600 7.663 13.683 7.585 C 13.778 7.495,13.957 7.249,14.076 7.047 C 14.285 6.691,14.418 6.102,14.392 5.643 C 14.380 5.423,14.332 5.193,14.133 4.400 C 13.830 3.192,13.677 2.656,13.575 2.444 C 13.483 2.251,13.229 1.985,13.013 1.853 C 12.932 1.804,12.770 1.731,12.653 1.691 L 12.440 1.618 8.707 1.612 C 6.653 1.610,4.625 1.615,4.200 1.625 M12.461 4.353 C 12.619 4.988,12.760 5.576,12.775 5.660 C 12.850 6.082,12.573 6.562,12.160 6.726 C 11.960 6.805,11.639 6.805,11.461 6.726 C 11.262 6.637,11.081 6.503,10.786 6.229 L 10.512 5.975 10.388 6.120 C 10.223 6.313,9.879 6.586,9.660 6.697 C 9.502 6.777,9.459 6.787,9.267 6.787 C 9.079 6.787,9.031 6.776,8.879 6.701 C 8.667 6.596,8.312 6.315,8.145 6.120 L 8.021 5.974 7.750 6.231 C 7.428 6.536,7.224 6.675,6.992 6.747 C 6.778 6.813,6.689 6.813,6.474 6.747 C 6.237 6.674,6.032 6.533,5.724 6.234 L 5.461 5.978 5.286 6.164 C 4.797 6.683,4.363 6.878,3.958 6.761 C 3.474 6.622,3.155 6.168,3.226 5.717 C 3.240 5.631,3.380 5.029,3.537 4.380 L 3.823 3.200 7.999 3.200 L 12.174 3.200 12.461 4.353 M5.688 8.175 C 6.039 8.330,6.304 8.384,6.720 8.385 C 7.140 8.387,7.368 8.343,7.766 8.183 L 8.026 8.078 8.139 8.136 C 8.380 8.259,8.702 8.349,8.987 8.373 C 9.517 8.417,9.985 8.338,10.400 8.135 L 10.520 8.076 10.744 8.172 C 11.077 8.315,11.333 8.375,11.687 8.392 L 12.000 8.408 12.000 9.004 L 12.000 9.600 8.000 9.600 L 4.000 9.600 4.000 9.004 L 4.000 8.408 4.300 8.392 C 4.645 8.373,4.933 8.306,5.223 8.177 C 5.335 8.127,5.437 8.084,5.449 8.083 C 5.461 8.081,5.569 8.123,5.688 8.175 M12.000 12.000 L 12.000 12.800 8.000 12.800 L 4.000 12.800 4.000 12.000 L 4.000 11.200 8.000 11.200 L 12.000 11.200 12.000 12.000 " fill="#1A1C1F" stroke="none" fill-rule="evenodd"></path></svg>