<svg xmlns="http://www.w3.org/2000/svg" width="16" height="16" fill="none"><g clip-path="url(#a)"><path fill="#1A1C1F" fill-rule="evenodd" d="M13.602 8.4v4.4a.8.8 0 0 1 0 1.6h-11.2a.8.8 0 0 1 0-1.6V8.4zm-.992-6.8a.8.8 0 0 1 .765.567l.93 3.034c.06.188.097.39.097.6a1.8 1.8 0 0 1-3.334.941 1.8 1.8 0 0 1-3.067 0 1.8 1.8 0 0 1-3.067 0A1.8 1.8 0 0 1 1.717 5.16l.91-2.993a.8.8 0 0 1 .766-.567h9.217" clip-rule="evenodd"/></g><defs><clipPath id="a"><path fill="#fff" d="M0 0h16v16H0z"/></clipPath></defs></svg>