<svg width="24" height="24" viewBox="0 0 24 24" fill="none" xmlns="http://www.w3.org/2000/svg"><path d="M6.918 3.039 L 5.735 3.060 5.422 3.215 C 5.062 3.393,4.672 3.755,4.533 4.041 C 4.415 4.282,4.222 4.930,3.864 6.288 C 3.167 8.927,3.030 9.495,3.010 9.840 C 2.964 10.632,3.303 11.540,3.837 12.058 L 4.000 12.216 4.000 15.605 L 4.000 18.993 3.843 19.019 C 3.757 19.034,3.591 19.103,3.473 19.173 C 3.176 19.351,3.021 19.635,3.022 20.000 C 3.023 20.286,3.080 20.429,3.305 20.707 C 3.418 20.847,3.479 20.883,3.670 20.927 C 4.011 21.006,19.991 21.005,20.332 20.927 C 20.542 20.879,20.581 20.852,20.741 20.648 C 20.964 20.363,21.035 20.094,20.966 19.795 C 20.882 19.430,20.589 19.133,20.215 19.031 C 20.054 18.987,20.049 18.981,20.025 18.783 C 20.012 18.671,20.001 17.148,20.000 15.398 L 20.000 12.216 20.163 12.058 C 20.528 11.703,20.832 11.109,20.943 10.533 C 21.021 10.125,21.015 9.866,20.917 9.387 C 20.773 8.680,19.860 5.193,19.631 4.480 C 19.424 3.831,19.123 3.472,18.569 3.208 C 18.269 3.066,18.250 3.062,17.621 3.035 C 16.896 3.003,8.725 3.006,6.918 3.039 M15.584 5.026 L 17.742 5.053 17.996 6.036 C 18.136 6.577,18.411 7.641,18.608 8.400 C 18.991 9.883,19.030 10.149,18.902 10.400 C 18.565 11.062,17.804 11.173,17.169 10.653 C 17.071 10.573,16.892 10.371,16.770 10.204 C 16.648 10.037,16.535 9.885,16.519 9.867 C 16.503 9.849,16.391 9.977,16.268 10.151 C 16.022 10.503,15.752 10.756,15.482 10.888 C 15.225 11.013,14.768 11.010,14.501 10.881 C 14.265 10.766,13.867 10.382,13.661 10.070 C 13.577 9.944,13.504 9.840,13.498 9.840 C 13.492 9.840,13.407 9.953,13.308 10.090 C 13.081 10.408,12.708 10.763,12.478 10.882 C 12.206 11.022,11.769 11.013,11.493 10.863 C 11.245 10.728,10.935 10.429,10.690 10.087 C 10.591 9.948,10.497 9.849,10.481 9.867 C 10.465 9.885,10.348 10.042,10.219 10.215 C 9.976 10.543,9.678 10.809,9.440 10.912 C 9.256 10.991,8.744 10.991,8.560 10.912 C 8.317 10.807,8.004 10.526,7.754 10.187 C 7.621 10.007,7.507 9.855,7.502 9.849 C 7.496 9.843,7.400 9.963,7.287 10.115 C 6.902 10.633,6.495 10.932,6.104 10.986 C 5.841 11.022,5.509 10.909,5.321 10.721 C 4.998 10.398,4.966 10.164,5.139 9.395 C 5.285 8.749,6.241 5.105,6.274 5.072 C 6.289 5.056,6.481 5.037,6.700 5.030 C 7.511 5.003,13.494 5.001,15.584 5.026 M8.023 12.816 C 8.733 13.069,9.303 13.058,10.111 12.775 L 10.521 12.631 10.711 12.711 C 11.198 12.919,11.480 12.977,12.000 12.975 C 12.512 12.974,12.746 12.925,13.322 12.700 C 13.504 12.629,13.506 12.629,13.767 12.733 C 14.616 13.073,15.329 13.078,16.177 12.751 C 16.461 12.641,16.508 12.634,16.618 12.679 C 16.907 12.798,17.504 12.960,17.742 12.985 L 18.000 13.011 18.000 14.006 L 18.000 15.000 12.000 15.000 L 6.000 15.000 6.000 14.000 L 6.000 13.000 6.155 13.000 C 6.349 13.000,7.001 12.835,7.240 12.725 C 7.455 12.626,7.504 12.632,8.023 12.816 M18.000 18.000 L 18.000 19.000 12.000 19.000 L 6.000 19.000 6.000 18.000 L 6.000 17.000 12.000 17.000 L 18.000 17.000 18.000 18.000 " fill="#1A1C1F" stroke="none" fill-rule="evenodd"></path></svg>