<svg width="32" height="32" viewBox="0 0 32 32" fill="none" xmlns="http://www.w3.org/2000/svg"><path d="M9.467 4.049 L 7.173 4.080 6.913 4.233 C 6.561 4.440,6.260 4.720,6.108 4.982 C 5.966 5.229,5.791 5.921,5.366 7.920 C 4.629 11.389,4.576 11.679,4.548 12.400 C 4.523 13.050,4.530 13.120,4.664 13.520 C 4.867 14.122,5.081 14.469,5.558 14.966 L 5.973 15.398 5.973 20.706 L 5.973 26.015 5.793 26.049 C 5.544 26.095,5.209 26.351,5.102 26.575 C 4.907 26.988,5.066 27.511,5.484 27.826 L 5.715 28.000 15.697 27.998 C 21.188 27.996,25.856 27.975,26.071 27.950 C 26.393 27.913,26.491 27.878,26.625 27.752 C 27.229 27.185,27.032 26.273,26.260 26.067 L 26.027 26.005 26.027 20.701 L 26.027 15.398 26.445 14.962 C 27.172 14.205,27.467 13.490,27.467 12.483 C 27.467 12.062,27.404 11.656,27.117 10.238 C 26.605 7.700,26.087 5.393,25.971 5.130 C 25.846 4.846,25.389 4.393,25.037 4.206 L 24.773 4.065 18.267 4.041 C 14.688 4.028,10.728 4.032,9.467 4.049 M24.683 8.413 C 25.585 12.767,25.579 12.717,25.296 13.236 C 24.963 13.848,24.241 14.122,23.570 13.893 C 23.230 13.776,22.690 13.349,22.323 12.907 L 22.006 12.525 21.739 12.836 C 21.052 13.636,20.536 13.974,20.005 13.972 C 19.471 13.970,18.907 13.615,18.332 12.919 L 18.006 12.526 17.739 12.836 C 16.448 14.339,15.564 14.349,14.305 12.874 L 14.007 12.525 13.740 12.836 C 13.299 13.349,12.952 13.650,12.602 13.822 C 12.313 13.965,12.228 13.983,11.935 13.963 C 11.751 13.951,11.515 13.900,11.412 13.850 C 11.138 13.718,10.667 13.307,10.311 12.890 L 10.001 12.528 9.764 12.810 C 9.113 13.587,8.632 13.916,8.087 13.959 C 7.478 14.008,7.010 13.771,6.724 13.270 C 6.439 12.770,6.440 12.752,7.066 9.680 C 7.377 8.155,7.671 6.709,7.720 6.467 L 7.808 6.027 15.998 6.027 L 24.189 6.027 24.683 8.413 M11.067 15.872 C 11.293 15.939,11.567 15.967,12.000 15.967 C 12.695 15.967,13.022 15.891,13.620 15.590 L 13.992 15.402 14.316 15.563 C 14.985 15.895,15.274 15.964,16.000 15.964 C 16.726 15.964,17.015 15.895,17.684 15.563 L 18.008 15.402 18.380 15.590 C 18.978 15.891,19.305 15.967,20.000 15.967 C 20.694 15.967,21.022 15.891,21.618 15.591 L 21.989 15.404 22.395 15.594 C 22.834 15.800,23.537 16.000,23.822 16.000 L 24.000 16.000 24.000 18.000 L 24.000 20.000 16.000 20.000 L 8.000 20.000 8.000 18.000 L 8.000 16.000 8.202 16.000 C 8.581 16.000,9.418 15.736,9.808 15.495 L 9.989 15.382 10.368 15.580 C 10.576 15.688,10.891 15.820,11.067 15.872 M24.000 24.027 L 24.000 26.027 16.000 26.027 L 8.000 26.027 8.000 24.027 L 8.000 22.027 16.000 22.027 L 24.000 22.027 24.000 24.027 " fill="#1A1C1F" stroke="none" fill-rule="evenodd"></path></svg>