<svg width="20" height="20" viewBox="0 0 20 20" fill="none" xmlns="http://www.w3.org/2000/svg"><path d="M5.450 2.031 C 4.337 2.049,4.275 2.054,4.095 2.126 C 3.645 2.308,3.218 2.679,3.038 3.046 C 2.902 3.323,2.791 3.708,2.365 5.386 C 1.968 6.949,1.963 6.984,2.033 7.653 C 2.100 8.286,2.508 9.132,2.930 9.513 L 3.000 9.577 3.000 12.784 L 3.000 15.991 2.864 16.013 C 2.557 16.062,2.238 16.304,2.095 16.595 C 1.986 16.818,1.988 17.187,2.100 17.417 C 2.212 17.645,2.429 17.848,2.652 17.931 C 2.836 18.000,2.846 18.000,10.036 18.000 L 17.236 18.000 17.402 17.916 C 17.616 17.807,17.821 17.602,17.911 17.405 C 18.012 17.184,18.009 16.808,17.905 16.595 C 17.762 16.304,17.443 16.062,17.136 16.013 L 17.000 15.991 17.000 12.785 L 17.000 9.579 17.103 9.481 C 17.223 9.368,17.447 9.062,17.595 8.809 C 17.856 8.365,18.022 7.628,17.991 7.053 C 17.976 6.779,17.917 6.494,17.669 5.508 C 17.292 4.006,17.096 3.321,16.968 3.052 C 16.762 2.621,16.140 2.155,15.650 2.064 C 15.427 2.022,7.497 1.997,5.450 2.031 M15.598 5.508 C 16.042 7.261,16.054 7.360,15.876 7.740 C 15.699 8.120,15.430 8.354,15.059 8.452 C 14.822 8.515,14.677 8.512,14.436 8.437 C 14.154 8.349,13.942 8.206,13.513 7.811 L 13.142 7.471 12.988 7.649 C 12.778 7.893,12.329 8.247,12.067 8.377 C 11.878 8.470,11.819 8.483,11.584 8.482 C 11.349 8.482,11.290 8.468,11.095 8.371 C 10.823 8.236,10.390 7.894,10.182 7.650 L 10.026 7.468 9.688 7.788 C 9.286 8.171,9.030 8.344,8.741 8.434 C 8.472 8.517,8.361 8.517,8.093 8.434 C 7.791 8.340,7.499 8.140,7.144 7.781 L 6.837 7.472 6.543 7.772 C 6.224 8.099,5.911 8.326,5.650 8.419 C 5.429 8.498,5.068 8.499,4.841 8.421 C 4.516 8.310,4.201 7.994,4.079 7.659 C 3.967 7.350,3.976 7.299,4.571 4.858 L 4.780 4.000 9.998 4.000 L 15.217 4.000 15.598 5.508 M7.155 10.232 C 7.658 10.434,7.884 10.479,8.400 10.481 C 8.928 10.484,9.217 10.428,9.706 10.228 L 10.029 10.097 10.196 10.181 C 10.675 10.424,11.318 10.529,11.953 10.468 C 12.284 10.436,12.693 10.319,13.000 10.169 L 13.150 10.095 13.430 10.215 C 13.847 10.394,14.166 10.468,14.608 10.490 L 15.000 10.510 15.000 11.255 L 15.000 12.000 10.000 12.000 L 5.000 12.000 5.000 11.255 L 5.000 10.510 5.375 10.490 C 5.807 10.466,6.166 10.382,6.529 10.221 C 6.669 10.158,6.793 10.106,6.805 10.104 C 6.817 10.102,6.974 10.159,7.155 10.232 M15.000 15.000 L 15.000 16.000 10.000 16.000 L 5.000 16.000 5.000 15.000 L 5.000 14.000 10.000 14.000 L 15.000 14.000 15.000 15.000 " fill="#1A1C1F" stroke="none" fill-rule="evenodd"></path></svg>