<svg xmlns="http://www.w3.org/2000/svg" width="12" height="12" fill="none"><g clip-path="url(#a)"><path fill="#1A1C1F" fill-rule="evenodd" d="M8.4 1.2c.338 0 .6.262.6.6v3.6h1.2c.338 0 .6.262.6.6v4.2c0 .338-.263.6-.6.6h-3a.59.59 0 0 1-.6-.6V9H5.4v1.2c0 .338-.263.6-.6.6h-3a.59.59 0 0 1-.6-.6V6c0-.338.262-.6.6-.6H3V1.8c0-.338.263-.6.6-.6zm-.6 1.2H4.2v4.2H2.4v3h1.8V8.4c0-.338.263-.6.6-.6h2.4c.337 0 .6.262.6.6v1.2h1.8v-3H7.8zm-2.4 3V4.2h1.2v1.2z" clip-rule="evenodd"/></g><defs><clipPath id="a"><path fill="#fff" d="M0 0h12v12H0z"/></clipPath></defs></svg>