<svg xmlns="http://www.w3.org/2000/svg" width="20" height="20" fill="none"><g clip-path="url(#a)"><path fill="#1A1C1F" fill-rule="evenodd" d="M14 2c.563 0 1 .438 1 1v6h2c.563 0 1 .438 1 1v7c0 .563-.438 1-1 1h-5c-.563 0-1-.438-1-1v-2H9v2c0 .563-.438 1-1 1H3c-.563 0-1-.438-1-1v-7c0-.563.438-1 1-1h2V3c0-.563.438-1 1-1zm-1 2H7v7H4v5h3v-2c0-.563.438-1 1-1h4c.563 0 1 .437 1 1v2h3v-5h-3zM9 9V7h2v2z" clip-rule="evenodd"/></g><defs><clipPath id="a"><path fill="#fff" d="M0 0h20v20H0z"/></clipPath></defs></svg>