<svg width="28" height="28" viewBox="0 0 28 28" fill="none" xmlns="http://www.w3.org/2000/svg"><path d="M7.503 2.762 C 7.356 2.847,7.172 3.001,7.096 3.103 L 6.956 3.290 6.955 9.086 L 6.953 14.881 4.652 14.896 L 2.350 14.910 2.156 15.038 C 2.049 15.109,1.914 15.256,1.856 15.365 L 1.750 15.563 1.750 20.137 C 1.750 25.295,1.715 24.831,2.128 25.195 L 2.346 25.387 7.000 25.387 L 11.654 25.387 11.872 25.195 C 12.261 24.852,12.239 25.012,12.277 22.283 C 12.297 20.868,12.330 19.808,12.357 19.740 C 12.429 19.560,12.664 19.364,12.863 19.317 C 13.097 19.263,14.903 19.263,15.137 19.317 C 15.336 19.364,15.571 19.560,15.643 19.740 C 15.670 19.808,15.703 20.868,15.723 22.283 C 15.761 25.012,15.739 24.852,16.128 25.195 L 16.346 25.387 21.000 25.387 L 25.654 25.387 25.872 25.195 C 26.274 24.840,26.243 25.179,26.262 20.977 C 26.271 18.923,26.262 16.834,26.240 16.333 C 26.202 15.435,26.200 15.420,26.071 15.251 C 25.806 14.903,25.961 14.923,23.350 14.897 L 21.004 14.873 20.990 9.082 C 20.978 3.858,20.969 3.274,20.901 3.127 C 20.789 2.884,20.611 2.744,20.359 2.699 C 20.237 2.677,17.354 2.648,13.953 2.633 L 7.770 2.607 7.503 2.762 M19.227 14.000 L 19.227 23.613 18.368 23.613 L 17.510 23.613 17.490 21.595 C 17.469 19.589,17.468 19.575,17.354 19.273 C 17.102 18.605,16.637 18.098,15.972 17.769 L 15.570 17.570 14.000 17.570 L 12.430 17.570 12.013 17.775 C 11.465 18.045,11.021 18.482,10.763 19.006 C 10.530 19.479,10.504 19.773,10.502 21.945 L 10.500 23.613 9.637 23.613 L 8.773 23.613 8.773 14.000 L 8.773 4.387 14.000 4.387 L 19.227 4.387 19.227 14.000 M12.950 7.176 C 11.627 7.627,10.693 8.738,10.546 10.038 C 10.457 10.826,10.564 11.435,10.910 12.110 C 11.082 12.445,11.211 12.616,11.548 12.954 C 11.905 13.313,12.038 13.411,12.413 13.595 C 13.357 14.058,14.173 14.115,15.167 13.788 C 15.671 13.622,15.966 13.435,16.422 12.996 C 16.895 12.540,17.120 12.186,17.323 11.573 C 17.458 11.166,17.470 11.078,17.472 10.500 C 17.474 9.912,17.464 9.842,17.328 9.448 C 17.118 8.842,16.890 8.481,16.429 8.022 C 16.095 7.690,15.948 7.582,15.584 7.403 C 14.973 7.104,14.711 7.046,13.955 7.048 C 13.391 7.049,13.283 7.062,12.950 7.176 M14.383 8.826 C 14.519 8.855,14.712 8.919,14.811 8.970 C 15.064 9.098,15.416 9.463,15.559 9.746 C 15.668 9.960,15.680 10.036,15.680 10.510 C 15.679 11.015,15.673 11.047,15.532 11.293 C 15.451 11.434,15.273 11.659,15.135 11.794 C 14.931 11.992,14.823 12.057,14.557 12.137 C 13.688 12.402,12.841 12.043,12.432 11.237 C 12.334 11.044,12.320 10.953,12.320 10.500 C 12.320 10.038,12.333 9.959,12.440 9.748 C 12.662 9.308,13.128 8.919,13.554 8.817 C 13.774 8.764,14.110 8.768,14.383 8.826 M7.000 20.113 L 7.000 23.613 5.250 23.613 L 3.500 23.613 3.500 20.113 L 3.500 16.613 5.250 16.613 L 7.000 16.613 7.000 20.113 M24.500 20.113 L 24.500 23.613 22.750 23.613 L 21.000 23.613 21.000 20.113 L 21.000 16.613 22.750 16.613 L 24.500 16.613 24.500 20.113 " fill="#1A1C1F" stroke="none" fill-rule="evenodd"></path></svg>