<svg xmlns="http://www.w3.org/2000/svg" width="32" height="32" fill="none"><g clip-path="url(#a)"><path fill="#1A1C1F" fill-rule="evenodd" d="M23 3c.563 0 1 .469 1 1v13h5c.563 0 1 .438 1 1v10c0 .563-.438 1-1 1H19c-.563 0-1-.438-1-1v-5c0-.563-.438-1-1-1h-2c-.563 0-1 .438-1 1v5c0 .563-.438 1-1 1H3c-.563 0-1-.438-1-1V18c0-.563.469-1 1-1h4.969V4c0-.501.531-1 1.031-1zM8 19H4v8h4zM22 5H10v22h2v-4a3 3 0 0 1 3-3h2a3 3 0 0 1 3 3v4h2zm6 14h-4v8h4zM16 8c2.219 0 4 1.781 4 4a4.02 4.02 0 0 1-1.156 2.844A4.02 4.02 0 0 1 16 16c-2.219 0-4-1.781-4-4s1.781-4 4-4m0 2c-1.094 0-2 .906-2 2s.906 2 2 2 2-.906 2-2-.906-2-2-2" clip-rule="evenodd"/></g><defs><clipPath id="a"><path fill="#fff" d="M0 0h32v32H0z"/></clipPath></defs></svg>