<svg xmlns="http://www.w3.org/2000/svg" width="28" height="28" fill="none"><g clip-path="url(#a)"><path fill="#1A1C1F" fill-rule="evenodd" d="M20.125 2.625c.492 0 .875.41.875.875v11.375h4.375c.492 0 .875.383.875.875v8.75a.86.86 0 0 1-.875.875h-8.75a.866.866 0 0 1-.875-.875v-4.375a.86.86 0 0 0-.875-.875h-1.75a.863.863 0 0 0-.875.875V24.5a.86.86 0 0 1-.875.875h-8.75a.866.866 0 0 1-.875-.875v-8.75c0-.492.41-.875.875-.875h4.348V3.5c0-.438.465-.875.902-.875zM7 16.625H3.5v7H7zm12.25-12.25H8.75v19.25h1.75v-3.5a2.626 2.626 0 0 1 2.625-2.625h1.75a2.626 2.626 0 0 1 2.625 2.625v3.5h1.75zm5.25 12.25H21v7h3.5zM14 7a3.49 3.49 0 0 1 3.5 3.5c0 .93-.355 1.832-1.012 2.488A3.52 3.52 0 0 1 14 14a3.49 3.49 0 0 1-3.5-3.5A3.49 3.49 0 0 1 14 7m0 1.75c-.957 0-1.75.793-1.75 1.75s.793 1.75 1.75 1.75 1.75-.793 1.75-1.75-.793-1.75-1.75-1.75" clip-rule="evenodd"/></g><defs><clipPath id="a"><path fill="#fff" d="M0 0h28v28H0z"/></clipPath></defs></svg>