<svg width="12" height="12" viewBox="0 0 12 12" fill="none" xmlns="http://www.w3.org/2000/svg"><path d="M4.000 1.218 C 3.460 1.229,3.382 1.234,3.323 1.267 C 3.225 1.320,3.097 1.457,3.045 1.562 L 3.000 1.654 3.000 3.524 L 3.000 5.394 2.313 5.405 C 1.716 5.415,1.617 5.421,1.558 5.450 C 1.432 5.514,1.328 5.616,1.264 5.736 L 1.200 5.856 1.200 8.101 L 1.200 10.346 1.244 10.434 C 1.312 10.570,1.405 10.667,1.536 10.736 L 1.656 10.800 3.298 10.800 L 4.941 10.800 5.040 10.750 C 5.177 10.680,5.262 10.600,5.331 10.476 L 5.390 10.370 5.397 9.685 L 5.404 9.000 6.000 9.000 L 6.596 9.000 6.603 9.685 L 6.610 10.370 6.669 10.476 C 6.738 10.600,6.823 10.680,6.960 10.750 L 7.059 10.800 8.702 10.800 L 10.344 10.800 10.464 10.736 C 10.595 10.667,10.688 10.570,10.756 10.434 L 10.800 10.346 10.800 8.101 L 10.800 5.856 10.736 5.736 C 10.672 5.616,10.568 5.514,10.442 5.450 C 10.383 5.421,10.284 5.415,9.687 5.405 L 9.000 5.394 9.000 3.525 L 9.000 1.656 8.936 1.536 C 8.873 1.418,8.767 1.313,8.650 1.255 C 8.598 1.229,8.318 1.224,6.600 1.216 C 5.505 1.211,4.336 1.212,4.000 1.218 M7.800 4.500 L 7.800 6.600 8.700 6.600 L 9.600 6.600 9.600 8.100 L 9.600 9.600 8.700 9.600 L 7.800 9.600 7.800 8.929 C 7.800 8.284,7.798 8.255,7.757 8.175 C 7.686 8.035,7.635 7.977,7.512 7.897 L 7.394 7.820 6.000 7.820 L 4.606 7.820 4.483 7.900 C 4.397 7.955,4.337 8.014,4.285 8.095 L 4.210 8.210 4.204 8.905 L 4.199 9.600 3.299 9.600 L 2.400 9.600 2.400 8.100 L 2.400 6.600 3.300 6.600 L 4.200 6.600 4.200 4.500 L 4.200 2.400 6.000 2.400 L 7.800 2.400 7.800 4.500 M5.400 4.800 L 5.400 5.400 6.000 5.400 L 6.600 5.400 6.600 4.800 L 6.600 4.200 6.000 4.200 L 5.400 4.200 5.400 4.800 " fill="#1A1C1F" stroke="none" fill-rule="evenodd"></path></svg>