<svg xmlns="http://www.w3.org/2000/svg" width="32" height="32" fill="none"><path fill="#1A1C1F" fill-rule="evenodd" d="M8.585 3.132a1.2 1.2 0 0 0-.451.379l-.161.231-.014 6.636-.014 6.635H5.357c-2.463 0-2.598.005-2.792.105a.98.98 0 0 0-.536.71c-.04.196-.054 1.823-.044 5.347.015 5.019.016 5.067.126 5.278.062.118.214.286.338.374l.227.16h10.648l.227-.16c.124-.088.276-.256.338-.374.107-.206.112-.304.138-3.013.026-2.77.028-2.802.144-2.989a1.1 1.1 0 0 1 .327-.306c.201-.113.267-.118 1.502-.118s1.301.005 1.502.118c.115.065.263.203.327.306.116.187.118.219.144 2.989.026 2.709.031 2.807.138 3.013.062.118.214.286.338.374l.227.16h10.648l.227-.16c.124-.088.276-.256.338-.374.11-.212.111-.242.111-5.44 0-5.121-.002-5.231-.107-5.436a1.4 1.4 0 0 0-.311-.374l-.205-.163-2.689-.015L24 17.01v-6.586c0-7.147.014-6.791-.283-7.108-.302-.324.252-.301-7.639-.317l-7.202-.014zM21.973 16v10.987h-1.967l-.018-2.307c-.019-2.248-.022-2.315-.141-2.639-.331-.899-1.073-1.62-1.951-1.896-.351-.111-.475-.118-1.896-.118s-1.545.007-1.896.118c-.878.276-1.62.997-1.951 1.896-.119.324-.122.391-.141 2.639l-.018 2.307h-1.967V5.013h11.946zm-6.636-7.947a4.08 4.08 0 0 0-3.211 2.934c-.132.479-.132 1.547 0 2.026a4.16 4.16 0 0 0 1.39 2.113c1.301 1.044 3.114 1.154 4.606.28.391-.23 1.054-.893 1.284-1.284.964-1.645.729-3.631-.584-4.944-.511-.512-1.095-.847-1.835-1.053-.334-.094-1.3-.136-1.65-.072m1.516 2.153c.383.192.75.557.941.933.139.274.153.35.153.861 0 .524-.011.58-.168.881-.176.337-.576.752-.869.904a2.8 2.8 0 0 1-.542.166c-.866.181-1.736-.26-2.164-1.098-.137-.266-.151-.344-.151-.853s.014-.587.151-.853a2.1 2.1 0 0 1 1.16-1.036c.382-.138 1.118-.091 1.489.095M8 22.987v4H4v-8h4zm20 0v4h-4v-8h4z"/></svg>