<svg width="16" height="16" viewBox="0 0 16 16" fill="none" xmlns="http://www.w3.org/2000/svg"><path d="M5.387 1.624 C 4.616 1.638,4.510 1.645,4.430 1.689 C 4.300 1.760,4.129 1.942,4.060 2.083 L 4.000 2.206 4.000 4.699 L 4.000 7.192 3.079 7.207 L 2.158 7.221 2.010 7.311 C 1.852 7.406,1.748 7.519,1.656 7.695 L 1.599 7.804 1.606 10.829 L 1.613 13.853 1.720 14.013 C 1.791 14.120,1.880 14.209,1.987 14.280 L 2.147 14.387 4.370 14.394 L 6.592 14.401 6.716 14.340 C 6.869 14.266,7.043 14.096,7.124 13.943 C 7.184 13.829,7.186 13.806,7.195 12.913 L 7.205 12.000 8.000 12.000 L 8.795 12.000 8.804 12.913 L 8.813 13.827 8.892 13.970 C 8.982 14.130,9.113 14.254,9.289 14.342 L 9.408 14.401 11.630 14.394 L 13.853 14.387 14.012 14.280 C 14.114 14.211,14.209 14.117,14.278 14.014 L 14.387 13.854 14.394 10.829 L 14.401 7.804 14.344 7.695 C 14.252 7.519,14.148 7.406,13.990 7.311 L 13.842 7.221 12.921 7.207 L 12.000 7.192 12.000 4.696 C 12.000 2.201,12.000 2.199,11.943 2.093 C 11.849 1.916,11.746 1.804,11.596 1.715 L 11.453 1.631 8.853 1.619 C 7.423 1.613,5.863 1.615,5.387 1.624 M10.400 6.000 L 10.400 8.800 11.600 8.800 L 12.800 8.800 12.800 10.800 L 12.800 12.800 11.601 12.800 L 10.402 12.800 10.394 11.873 L 10.387 10.947 10.281 10.789 C 10.210 10.683,10.125 10.599,10.017 10.529 L 9.858 10.427 8.000 10.427 L 6.142 10.427 5.983 10.529 C 5.875 10.599,5.790 10.683,5.719 10.789 L 5.613 10.947 5.606 11.873 L 5.598 12.800 4.399 12.800 L 3.200 12.800 3.200 10.800 L 3.200 8.800 4.400 8.800 L 5.600 8.800 5.600 6.000 L 5.600 3.200 8.000 3.200 L 10.400 3.200 10.400 6.000 M7.200 6.400 L 7.200 7.200 8.000 7.200 L 8.800 7.200 8.800 6.400 L 8.800 5.600 8.000 5.600 L 7.200 5.600 7.200 6.400 " fill="#1A1C1F" stroke="none" fill-rule="evenodd"></path></svg>