<svg width="14" height="14" viewBox="0 0 14 14" fill="none" xmlns="http://www.w3.org/2000/svg"><path d="M4.690 1.421 L 3.955 1.435 3.847 1.499 C 3.719 1.573,3.636 1.667,3.557 1.823 L 3.500 1.935 3.500 4.114 L 3.500 6.293 2.699 6.305 C 2.000 6.316,1.888 6.323,1.818 6.358 C 1.671 6.433,1.549 6.552,1.474 6.692 L 1.400 6.832 1.400 9.448 L 1.400 12.065 1.449 12.163 C 1.532 12.328,1.646 12.448,1.792 12.526 L 1.932 12.600 3.848 12.600 L 5.765 12.600 5.882 12.541 C 6.023 12.469,6.163 12.333,6.234 12.198 C 6.286 12.101,6.287 12.076,6.296 11.299 L 6.305 10.500 7.000 10.500 L 7.696 10.500 7.704 11.299 C 7.711 12.024,7.716 12.106,7.756 12.180 C 7.837 12.332,7.952 12.451,8.092 12.526 L 8.232 12.600 10.148 12.600 L 12.065 12.600 12.182 12.541 C 12.330 12.466,12.466 12.330,12.541 12.182 L 12.600 12.065 12.600 9.450 L 12.600 6.835 12.550 6.737 C 12.471 6.580,12.381 6.481,12.241 6.396 L 12.110 6.318 11.305 6.305 L 10.500 6.293 10.500 4.114 C 10.500 1.936,10.500 1.935,10.450 1.837 C 10.371 1.680,10.281 1.581,10.146 1.501 L 10.022 1.427 7.723 1.417 C 6.459 1.412,5.094 1.414,4.690 1.421 M9.100 5.250 L 9.100 7.700 10.150 7.700 L 11.200 7.700 11.200 9.450 L 11.200 11.200 10.150 11.200 L 9.100 11.200 9.100 10.417 C 9.100 9.665,9.098 9.631,9.050 9.537 C 8.967 9.374,8.908 9.307,8.764 9.213 L 8.626 9.123 7.007 9.123 C 5.423 9.123,5.386 9.124,5.295 9.171 C 5.174 9.232,5.033 9.375,4.965 9.502 C 4.914 9.599,4.912 9.622,4.904 10.401 L 4.896 11.200 3.848 11.200 L 2.800 11.200 2.800 9.450 L 2.800 7.700 3.850 7.700 L 4.900 7.700 4.900 5.250 L 4.900 2.800 7.000 2.800 L 9.100 2.800 9.100 5.250 M6.300 5.600 L 6.300 6.300 7.000 6.300 L 7.700 6.300 7.700 5.600 L 7.700 4.900 7.000 4.900 L 6.300 4.900 6.300 5.600 " fill="#1A1C1F" stroke="none" fill-rule="evenodd"></path></svg>