<svg width="32" height="32" viewBox="0 0 32 32" fill="none" xmlns="http://www.w3.org/2000/svg"><path d="M8.549 3.160 C 8.396 3.255,8.199 3.429,8.111 3.547 L 7.950 3.760 7.948 10.383 L 7.947 17.007 5.316 17.023 L 2.685 17.040 2.464 17.187 C 2.342 17.267,2.188 17.435,2.121 17.560 L 2.000 17.787 2.000 23.013 C 2.000 28.908,1.960 28.378,2.432 28.794 L 2.682 29.013 8.000 29.013 L 13.318 29.013 13.568 28.794 C 14.013 28.402,13.987 28.585,14.031 25.467 C 14.054 23.849,14.092 22.638,14.123 22.560 C 14.205 22.354,14.473 22.130,14.701 22.077 C 14.968 22.015,17.032 22.015,17.299 22.077 C 17.527 22.130,17.795 22.354,17.877 22.560 C 17.907 22.637,17.946 23.866,17.969 25.467 C 18.013 28.584,17.988 28.402,18.432 28.794 L 18.682 29.013 24.000 29.013 L 29.318 29.013 29.568 28.794 C 30.028 28.389,29.992 28.776,30.014 23.973 C 30.024 21.627,30.013 19.238,29.989 18.666 C 29.946 17.640,29.943 17.623,29.796 17.430 C 29.492 17.032,29.670 17.055,26.686 17.025 L 24.004 16.998 23.989 10.379 C 23.975 4.409,23.965 3.742,23.887 3.573 C 23.759 3.296,23.555 3.136,23.268 3.085 C 23.128 3.060,19.821 3.027,15.920 3.013 L 8.827 2.986 8.549 3.160 M21.973 16.000 L 21.973 26.987 20.987 26.987 L 20.000 26.987 19.998 25.080 C 19.996 22.598,19.966 22.261,19.699 21.721 C 19.404 21.123,18.897 20.623,18.271 20.315 L 17.795 20.080 16.000 20.080 L 14.205 20.080 13.729 20.315 C 13.104 20.623,12.596 21.123,12.302 21.719 C 12.033 22.263,12.003 22.596,12.001 25.053 L 12.000 26.987 11.013 26.987 L 10.027 26.987 10.027 16.000 L 10.027 5.013 16.000 5.013 L 21.973 5.013 21.973 16.000 M14.800 8.201 C 13.438 8.666,12.424 9.753,12.103 11.093 C 12.002 11.516,12.017 12.585,12.131 13.013 C 12.438 14.174,13.406 15.262,14.524 15.703 C 15.482 16.081,16.443 16.086,17.453 15.718 C 17.987 15.523,18.346 15.283,18.821 14.804 C 19.337 14.283,19.576 13.897,19.798 13.227 C 19.951 12.762,19.966 12.661,19.968 12.000 C 19.970 11.328,19.959 11.248,19.803 10.797 C 19.563 10.105,19.303 9.692,18.776 9.167 C 18.394 8.788,18.227 8.665,17.810 8.461 C 17.113 8.119,16.812 8.053,15.949 8.054 C 15.304 8.055,15.181 8.071,14.800 8.201 M16.402 10.085 C 16.575 10.117,16.811 10.191,16.926 10.250 C 17.217 10.398,17.618 10.815,17.782 11.138 C 17.906 11.382,17.920 11.471,17.920 12.000 C 17.920 12.526,17.905 12.619,17.785 12.857 C 17.711 13.004,17.508 13.266,17.334 13.440 C 17.065 13.709,16.962 13.773,16.640 13.870 C 15.643 14.173,14.677 13.765,14.208 12.842 C 14.096 12.621,14.080 12.517,14.080 12.000 C 14.080 11.472,14.094 11.381,14.217 11.140 C 14.401 10.776,14.711 10.451,15.048 10.267 C 15.496 10.024,15.828 9.979,16.402 10.085 M8.000 22.987 L 8.000 26.987 6.000 26.987 L 4.000 26.987 4.000 22.987 L 4.000 18.987 6.000 18.987 L 8.000 18.987 8.000 22.987 M28.000 22.987 L 28.000 26.987 26.000 26.987 L 24.000 26.987 24.000 22.987 L 24.000 18.987 26.000 18.987 L 28.000 18.987 28.000 22.987 " fill="#1A1C1F" stroke="none" fill-rule="evenodd"></path></svg>