<svg width="24" height="24" viewBox="0 0 24 24" fill="none" xmlns="http://www.w3.org/2000/svg"><path d="M7.300 2.035 C 6.811 2.054,6.631 2.076,6.537 2.127 C 6.390 2.208,6.135 2.482,6.068 2.632 C 6.032 2.714,6.017 3.863,6.009 7.364 L 5.997 11.989 4.359 12.008 L 2.721 12.028 2.507 12.170 C 2.197 12.376,2.053 12.613,2.020 12.972 C 2.005 13.130,1.999 15.060,2.007 17.260 C 2.023 21.788,1.991 21.391,2.358 21.735 C 2.507 21.873,2.594 21.921,2.745 21.947 C 2.852 21.965,4.587 21.980,6.600 21.980 L 10.260 21.980 10.446 21.871 C 10.644 21.754,10.802 21.589,10.909 21.385 C 10.966 21.277,10.978 21.006,11.003 19.333 C 11.029 17.568,11.037 17.392,11.105 17.253 C 11.215 17.028,11.367 16.990,12.080 17.008 C 12.697 17.024,12.781 17.046,12.904 17.228 C 12.975 17.333,12.981 17.463,13.001 19.280 C 13.024 21.448,13.014 21.374,13.315 21.675 C 13.404 21.764,13.549 21.873,13.637 21.918 C 13.794 21.999,13.851 22.000,17.500 22.000 C 21.149 22.000,21.206 21.999,21.363 21.918 C 21.451 21.873,21.597 21.761,21.687 21.668 C 22.003 21.345,21.979 21.716,21.991 16.991 C 22.002 12.814,22.001 12.760,21.922 12.603 C 21.822 12.407,21.602 12.190,21.407 12.094 C 21.274 12.029,21.102 12.021,19.632 12.007 L 18.003 11.992 17.990 7.386 C 17.980 3.892,17.965 2.745,17.928 2.635 C 17.901 2.554,17.800 2.417,17.704 2.328 C 17.365 2.015,17.818 2.042,12.613 2.025 C 10.043 2.017,7.652 2.021,7.300 2.035 M16.010 8.610 C 16.020 12.040,16.036 13.256,16.071 13.361 C 16.126 13.524,16.445 13.852,16.620 13.927 C 16.709 13.964,17.164 13.981,18.370 13.992 L 20.000 14.006 20.000 17.003 L 20.000 20.000 17.480 20.000 L 14.960 20.000 14.960 18.526 C 14.960 17.170,14.954 17.034,14.882 16.826 C 14.611 16.038,14.058 15.451,13.309 15.156 C 12.893 14.992,11.355 14.955,10.840 15.097 C 9.904 15.356,9.175 16.181,9.043 17.133 C 9.019 17.305,9.000 18.020,9.000 18.723 L 9.000 20.000 6.500 20.000 L 4.000 20.000 4.000 17.004 L 4.000 14.007 5.653 13.994 L 7.306 13.980 7.502 13.859 C 7.610 13.793,7.752 13.660,7.819 13.566 C 7.938 13.397,7.941 13.380,7.966 12.767 C 7.981 12.422,7.995 10.308,7.996 8.070 L 8.000 4.000 11.998 4.000 L 15.997 4.000 16.010 8.610 M11.628 6.043 C 10.889 6.194,10.253 6.804,10.060 7.548 C 9.796 8.558,10.481 9.662,11.542 9.939 C 12.929 10.300,14.300 8.929,13.939 7.542 C 13.772 6.900,13.259 6.341,12.636 6.122 C 12.368 6.028,11.888 5.990,11.628 6.043 " fill="#1A1C1F" stroke="none" fill-rule="evenodd"></path></svg>