<svg width="20" height="20" viewBox="0 0 20 20" fill="none" xmlns="http://www.w3.org/2000/svg"><path d="M6.700 2.030 C 5.769 2.048,5.637 2.057,5.538 2.111 C 5.375 2.200,5.161 2.428,5.075 2.604 L 5.000 2.757 5.000 5.874 L 5.000 8.990 3.851 9.008 L 2.702 9.026 2.543 9.118 C 2.340 9.235,2.171 9.412,2.075 9.605 L 2.000 9.757 2.000 13.500 L 2.000 17.243 2.074 17.390 C 2.187 17.617,2.342 17.778,2.560 17.894 L 2.759 18.000 5.497 18.000 L 8.236 18.000 8.400 17.917 C 8.629 17.801,8.771 17.667,8.885 17.461 L 8.983 17.283 8.995 16.142 L 9.007 15.000 10.000 15.000 L 10.993 15.000 11.005 16.142 L 11.017 17.283 11.115 17.461 C 11.229 17.667,11.371 17.801,11.600 17.917 L 11.764 18.000 14.503 18.000 L 17.241 18.000 17.438 17.895 C 17.663 17.775,17.797 17.637,17.917 17.400 L 18.000 17.236 18.000 13.500 L 18.000 9.764 17.929 9.624 C 17.815 9.400,17.687 9.258,17.487 9.138 L 17.301 9.026 16.150 9.008 L 15.000 8.990 15.000 5.877 C 15.000 2.765,15.000 2.764,14.929 2.624 C 14.816 2.401,14.687 2.258,14.495 2.144 L 14.317 2.039 11.033 2.024 C 9.227 2.016,7.277 2.019,6.700 2.030 M13.000 7.500 L 13.000 11.000 14.500 11.000 L 16.000 11.000 16.000 13.500 L 16.000 16.000 14.500 16.000 L 13.000 16.000 13.000 14.882 C 13.000 13.807,12.997 13.759,12.929 13.625 C 12.810 13.391,12.725 13.296,12.520 13.162 L 12.323 13.033 10.000 13.033 L 7.677 13.033 7.472 13.166 C 7.329 13.258,7.229 13.357,7.142 13.491 L 7.017 13.683 7.007 14.842 L 6.998 16.000 5.499 16.000 L 4.000 16.000 4.000 13.500 L 4.000 11.000 5.500 11.000 L 7.000 11.000 7.000 7.500 L 7.000 4.000 10.000 4.000 L 13.000 4.000 13.000 7.500 M9.000 8.000 L 9.000 9.000 10.000 9.000 L 11.000 9.000 11.000 8.000 L 11.000 7.000 10.000 7.000 L 9.000 7.000 9.000 8.000 " fill="#1A1C1F" stroke="none" fill-rule="evenodd"></path></svg>