<svg xmlns="http://www.w3.org/2000/svg" width="14" height="14" fill="none"><g clip-path="url(#a)"><path fill="#1A1C1F" fill-rule="evenodd" d="M9.8 1.4c.394 0 .7.306.7.7v4.2h1.4c.394 0 .7.306.7.7v4.9a.69.69 0 0 1-.7.7H8.4a.69.69 0 0 1-.7-.7v-1.4H6.3v1.4a.69.69 0 0 1-.7.7H2.1a.69.69 0 0 1-.7-.7V7c0-.394.306-.7.7-.7h1.4V2.1c0-.394.306-.7.7-.7zm-.7 1.4H4.9v4.9H2.8v3.5h2.1V9.8c0-.394.306-.7.7-.7h2.8c.394 0 .7.306.7.7v1.4h2.1V7.7H9.1zM6.3 6.3V4.9h1.4v1.4z" clip-rule="evenodd"/></g><defs><clipPath id="a"><path fill="#fff" d="M0 0h14v14H0z"/></clipPath></defs></svg>