<svg xmlns="http://www.w3.org/2000/svg" width="16" height="16" fill="none"><g clip-path="url(#a)"><path fill="#1A1C1F" fill-rule="evenodd" d="M11.2 1.6c.45 0 .8.35.8.8v4.8h1.6c.45 0 .8.35.8.8v5.6c0 .45-.35.8-.8.8h-4a.79.79 0 0 1-.8-.8V12H7.2v1.6c0 .45-.35.8-.8.8h-4a.79.79 0 0 1-.8-.8V8c0-.45.35-.8.8-.8H4V2.4c0-.45.35-.8.8-.8zm-.8 1.6H5.6v5.6H3.2v4h2.4v-1.6c0-.45.35-.8.8-.8h3.2c.45 0 .8.35.8.8v1.6h2.4v-4h-2.4zm-3.2 4V5.6h1.6v1.6z" clip-rule="evenodd"/></g><defs><clipPath id="a"><path fill="#fff" d="M0 0h16v16H0z"/></clipPath></defs></svg>