<svg xmlns="http://www.w3.org/2000/svg" width="24" height="24" fill="none"><path d="M2.643 2.069 C 2.407 2.152,2.149 2.416,2.066 2.660 C 2.005 2.839,2.000 3.592,2.000 12.000 C 2.000 22.264,1.973 21.375,2.299 21.701 C 2.625 22.027,1.736 22.000,12.000 22.000 C 22.264 22.000,21.375 22.027,21.701 21.701 C 22.027 21.375,22.000 22.264,22.000 12.000 C 22.000 1.736,22.027 2.625,21.701 2.299 C 21.375 1.972,22.268 2.000,11.983 2.003 C 3.791 2.006,2.801 2.013,2.643 2.069 M21.000 12.000 L 21.000 21.000 12.000 21.000 L 3.000 21.000 3.000 12.000 L 3.000 3.000 12.000 3.000 L 21.000 3.000 21.000 12.000 M5.800 5.045 C 5.574 5.088,5.338 5.252,5.181 5.474 C 5.077 5.623,5.058 5.689,5.046 5.957 C 5.034 6.215,5.047 6.297,5.120 6.444 C 5.181 6.567,6.018 7.432,7.893 9.310 L 10.579 12.000 7.874 14.710 C 6.386 16.201,5.137 17.481,5.100 17.556 C 4.994 17.767,4.976 18.125,5.059 18.344 C 5.265 18.883,5.886 19.149,6.400 18.917 C 6.538 18.855,7.208 18.209,9.290 16.129 L 12.000 13.421 14.690 16.107 C 16.588 18.002,17.433 18.818,17.558 18.881 C 17.781 18.992,18.149 19.002,18.380 18.904 C 18.740 18.751,18.972 18.406,18.975 18.020 C 18.979 17.546,19.113 17.702,16.146 14.730 L 13.421 12.000 16.129 9.290 C 18.209 7.208,18.855 6.538,18.917 6.400 C 19.022 6.168,19.025 5.799,18.925 5.580 C 18.830 5.371,18.528 5.097,18.334 5.043 C 18.096 4.977,17.800 4.993,17.600 5.083 C 17.462 5.145,16.792 5.791,14.710 7.872 L 12.000 10.579 9.310 7.893 C 7.555 6.141,6.564 5.180,6.460 5.129 C 6.256 5.030,6.029 5.001,5.800 5.045 " stroke="none" fill-rule="evenodd" fill="black"></path></svg>