<svg xmlns="http://www.w3.org/2000/svg" width="24" height="24" fill="none"><g fill="#1A1C1F" clip-path="url(#a)"><path d="M6.711 5.293a1 1 0 0 0-1.414 1.414L10.59 12l-5.293 5.293a1 1 0 1 0 1.414 1.414l5.293-5.293 5.293 5.293a1 1 0 0 0 1.414-1.414L13.418 12l5.293-5.293a1 1 0 1 0-1.414-1.414l-5.293 5.293z"/><path fill-rule="evenodd" d="M2 3a1 1 0 0 1 1-1h18a1 1 0 0 1 1 1v18a1 1 0 0 1-1 1H3a1 1 0 0 1-1-1zm1 0h18v18H3z" clip-rule="evenodd"/></g><defs><clipPath id="a"><path fill="#fff" d="M0 0h24v24H0z"/></clipPath></defs></svg>