<svg xmlns="http://www.w3.org/2000/svg" width="32" height="32" fill="none"><g fill="#1A1C1F" clip-path="url(#a)"><path d="M8.889 7.116A1.25 1.25 0 1 0 7.12 8.884L14.237 16l-7.116 7.116a1.25 1.25 0 0 0 1.768 1.768l7.116-7.116 7.116 7.116a1.25 1.25 0 0 0 1.768-1.768L17.773 16l7.116-7.116a1.25 1.25 0 0 0-1.768-1.768l-7.116 7.116z"/><path fill-rule="evenodd" d="M2 3a1 1 0 0 1 1-1h26a1 1 0 0 1 1 1v26a1 1 0 0 1-1 1H3a1 1 0 0 1-1-1zm1 0h26v26H3z" clip-rule="evenodd"/></g><defs><clipPath id="a"><path fill="#fff" d="M0 0h32v32H0z"/></clipPath></defs></svg>