<svg xmlns="http://www.w3.org/2000/svg" width="20" height="20" fill="none"><g fill="#1A1C1F" clip-path="url(#a)"><path d="M5.769 4.634a.8.8 0 0 0-1.131 1.132L8.872 10l-4.234 4.234a.8.8 0 0 0 1.13 1.132l4.235-4.235 4.235 4.235a.8.8 0 0 0 1.13-1.132L11.136 10l4.234-4.234a.8.8 0 0 0-1.131-1.132L10.003 8.87z"/><path fill-rule="evenodd" d="M2 2.8a.8.8 0 0 1 .8-.8h14.4a.8.8 0 0 1 .8.8v14.4a.8.8 0 0 1-.8.8H2.8a.8.8 0 0 1-.8-.8zm.8 0h14.4v14.4H2.8z" clip-rule="evenodd"/></g><defs><clipPath id="a"><path fill="#fff" d="M0 0h20v20H0z"/></clipPath></defs></svg>