<svg xmlns="http://www.w3.org/2000/svg" width="32" height="32" fill="none"><path d="M2.587 2.089 C 2.417 2.183,2.184 2.414,2.102 2.571 C 1.989 2.787,1.989 29.213,2.102 29.429 C 2.203 29.623,2.446 29.847,2.630 29.917 C 2.842 29.996,29.158 29.996,29.370 29.917 C 29.574 29.839,29.811 29.609,29.900 29.402 C 30.010 29.145,30.010 2.855,29.900 2.598 C 29.811 2.391,29.574 2.161,29.370 2.083 C 29.153 2.002,2.735 2.007,2.587 2.089 M29.013 16.000 L 29.013 29.013 16.000 29.013 L 2.987 29.013 2.987 16.000 L 2.987 2.987 16.000 2.987 L 29.013 2.987 29.013 16.000 M7.493 6.874 C 6.872 7.159,6.599 7.902,6.884 8.533 C 6.967 8.717,7.834 9.616,10.602 12.387 L 14.212 16.000 10.602 19.613 C 7.834 22.384,6.967 23.283,6.884 23.467 C 6.673 23.934,6.774 24.523,7.126 24.874 C 7.480 25.229,8.107 25.335,8.549 25.115 C 8.700 25.040,9.961 23.817,12.386 21.396 L 16.000 17.788 19.613 21.398 C 22.384 24.166,23.283 25.033,23.467 25.116 C 23.621 25.186,23.822 25.225,24.029 25.225 C 24.911 25.229,25.489 24.294,25.116 23.467 C 25.033 23.282,24.172 22.389,21.398 19.613 L 17.788 16.000 21.398 12.387 C 24.172 9.611,25.033 8.718,25.116 8.533 C 25.489 7.706,24.911 6.771,24.029 6.775 C 23.822 6.775,23.621 6.814,23.467 6.884 C 23.283 6.967,22.384 7.834,19.613 10.602 L 16.000 14.212 12.386 10.604 C 9.961 8.183,8.700 6.960,8.549 6.885 C 8.262 6.742,7.790 6.737,7.493 6.874 " stroke="none" fill-rule="evenodd" fill="black"></path></svg>