<svg xmlns="http://www.w3.org/2000/svg" width="14" height="14" fill="none"><g clip-path="url(#a)"><path fill="#1A1C1F" fill-rule="evenodd" d="M2.85 8.405C3.706 7.855 5.44 7.307 7 7.307c1.954 0 3.382.637 4.238 1.098h.66c.373 0 .702.307.702.702 0 .396-.33.703-.703.703h-.55C10.624 11.523 8.889 12.643 7 12.6c-1.888-.022-3.623-1.076-4.348-2.789h-.55a.694.694 0 0 1-.702-.703c0-.395.307-.702.703-.702zm-.703-2.328c0-2.59 2.196-4.677 4.897-4.677s4.897 2.086 4.897 4.677a.694.694 0 0 1-.703.703.694.694 0 0 1-.703-.703c0-1.8-1.559-3.25-3.491-3.25-1.91 0-3.47 1.45-3.47 3.25 0 .395-.329.703-.724.703a.707.707 0 0 1-.703-.703m1.889 3.36c.57 1.12 1.712 1.756 2.964 1.778s2.393-.636 2.964-1.756A6.8 6.8 0 0 0 7 8.712c-1.01.022-1.976.308-2.964.725" clip-rule="evenodd"/></g><defs><clipPath id="a"><path fill="#fff" d="M0 0h14v14H0z"/></clipPath></defs></svg>