<svg width="32" height="32" viewBox="0 0 32 32" fill="none" xmlns="http://www.w3.org/2000/svg"><path d="M14.213 3.148 C 12.159 3.463,10.285 4.276,8.587 5.591 C 8.007 6.040,7.011 7.039,6.541 7.644 C 5.037 9.577,4.127 12.044,4.020 14.480 C 3.991 15.142,3.995 15.184,4.119 15.413 C 4.412 15.957,5.056 16.144,5.538 15.826 C 5.882 15.598,5.974 15.358,6.032 14.540 C 6.171 12.570,6.677 11.016,7.666 9.520 C 9.077 7.385,11.067 5.979,13.653 5.291 L 14.373 5.099 16.000 5.099 L 17.627 5.099 18.347 5.291 C 20.879 5.965,22.900 7.377,24.276 9.435 C 25.312 10.984,25.829 12.545,25.964 14.534 C 26.020 15.349,26.115 15.596,26.462 15.826 C 26.637 15.941,26.745 15.972,26.982 15.972 C 27.351 15.972,27.590 15.843,27.813 15.526 C 27.972 15.298,27.973 15.293,27.969 14.595 C 27.954 12.296,27.060 9.773,25.550 7.765 C 23.826 5.472,21.145 3.792,18.347 3.252 C 17.121 3.016,15.362 2.971,14.213 3.148 M13.653 15.200 C 12.177 15.427,10.435 15.875,9.227 16.336 C 7.457 17.013,5.876 17.853,4.850 18.664 L 4.393 19.024 3.505 19.051 C 2.649 19.077,2.610 19.083,2.434 19.218 C 2.209 19.389,2.027 19.751,2.027 20.027 C 2.027 20.308,2.207 20.658,2.452 20.852 L 2.655 21.013 3.474 21.016 L 4.293 21.018 4.703 21.856 C 6.315 25.149,9.095 27.485,12.619 28.507 C 15.515 29.347,18.652 29.071,21.429 27.732 C 22.763 27.089,23.781 26.359,24.881 25.256 C 25.991 24.144,26.916 22.815,27.473 21.533 L 27.698 21.013 28.522 21.013 L 29.345 21.013 29.548 20.852 C 29.793 20.658,29.973 20.308,29.973 20.027 C 29.973 19.751,29.791 19.389,29.566 19.218 C 29.390 19.083,29.351 19.077,28.497 19.051 L 27.610 19.025 27.115 18.638 C 25.133 17.088,22.070 15.858,18.667 15.245 C 18.141 15.150,17.787 15.131,16.187 15.115 C 14.548 15.099,14.238 15.109,13.653 15.200 M16.726 17.067 C 19.412 17.274,21.580 17.855,23.794 18.960 C 24.442 19.283,25.662 19.992,25.799 20.125 C 25.925 20.247,25.325 21.431,24.567 22.560 C 24.123 23.221,22.941 24.433,22.254 24.934 C 21.149 25.737,19.853 26.342,18.471 26.697 C 17.510 26.945,16.408 27.025,15.133 26.941 C 13.297 26.821,11.427 26.132,9.794 24.974 C 9.234 24.578,7.902 23.245,7.505 22.685 C 6.836 21.742,6.075 20.247,6.201 20.125 C 6.237 20.090,6.531 19.901,6.853 19.705 C 9.137 18.321,11.712 17.440,14.320 17.150 C 14.998 17.075,15.265 17.053,15.846 17.023 C 15.951 17.018,16.347 17.037,16.726 17.067 M11.481 19.514 C 11.054 19.826,10.908 20.385,11.136 20.832 C 11.283 21.120,11.619 21.295,12.407 21.492 C 14.675 22.062,16.777 22.102,19.058 21.621 C 20.041 21.413,20.505 21.251,20.713 21.044 C 21.073 20.683,21.074 20.108,20.714 19.687 C 20.381 19.298,20.210 19.290,18.907 19.602 C 16.936 20.074,14.806 20.046,12.750 19.521 C 12.516 19.461,12.185 19.398,12.015 19.381 C 11.730 19.352,11.689 19.362,11.481 19.514 M13.726 23.290 C 13.517 23.331,13.188 23.665,13.098 23.929 C 12.998 24.223,12.996 24.281,13.070 24.548 C 13.156 24.859,13.407 25.108,13.726 25.198 C 14.567 25.438,16.982 25.449,18.154 25.218 C 18.844 25.083,19.174 24.445,18.886 23.809 C 18.681 23.359,18.322 23.216,17.609 23.302 C 16.511 23.434,15.337 23.429,14.000 23.285 C 13.912 23.276,13.789 23.278,13.726 23.290 " fill="#1A1C1F" stroke="none" fill-rule="evenodd"></path></svg>