<svg width="20" height="20" viewBox="0 0 20 20" fill="none" xmlns="http://www.w3.org/2000/svg"><path d="M9.583 2.020 C 8.515 2.104,7.582 2.371,6.669 2.854 C 5.317 3.568,4.227 4.716,3.646 6.035 C 3.133 7.200,2.924 8.589,3.182 9.116 C 3.276 9.309,3.460 9.490,3.662 9.588 C 3.853 9.682,4.255 9.690,4.449 9.604 C 4.771 9.462,4.984 9.222,5.062 8.917 C 5.080 8.843,5.112 8.591,5.133 8.356 C 5.196 7.628,5.383 7.038,5.742 6.430 C 5.950 6.077,6.371 5.562,6.644 5.326 C 7.362 4.705,8.244 4.288,9.171 4.130 C 9.528 4.069,9.670 4.062,10.233 4.077 C 10.919 4.096,11.188 4.139,11.750 4.320 C 12.766 4.647,13.735 5.389,14.325 6.292 C 14.759 6.957,14.945 7.531,15.034 8.483 C 15.083 9.007,15.142 9.174,15.353 9.385 C 15.747 9.779,16.345 9.780,16.746 9.388 C 17.019 9.121,17.046 9.018,17.023 8.325 C 16.995 7.463,16.820 6.757,16.436 5.950 C 16.078 5.199,15.688 4.649,15.101 4.066 C 14.020 2.993,12.641 2.311,11.100 2.086 C 10.742 2.034,9.883 1.997,9.583 2.020 M8.735 10.518 C 7.228 10.708,5.908 11.094,4.581 11.732 L 4.046 11.989 3.385 12.010 C 2.799 12.029,2.708 12.040,2.573 12.105 C 2.222 12.275,2.022 12.598,2.020 13.000 C 2.018 13.323,2.112 13.545,2.338 13.748 C 2.574 13.960,2.730 14.005,3.303 14.025 L 3.789 14.041 3.915 14.296 C 4.558 15.601,5.603 16.621,6.973 17.283 C 9.599 18.549,12.662 18.108,14.709 16.168 C 15.246 15.660,15.684 15.071,16.033 14.391 L 16.217 14.034 16.533 14.033 C 17.337 14.029,17.673 13.882,17.889 13.441 C 17.967 13.282,17.982 13.209,17.981 13.000 C 17.979 12.693,17.895 12.498,17.678 12.299 C 17.422 12.062,17.313 12.032,16.641 12.010 L 16.050 11.991 15.467 11.717 C 14.147 11.096,13.099 10.775,11.700 10.564 C 11.067 10.469,9.339 10.442,8.735 10.518 M11.254 12.568 C 12.221 12.716,13.357 13.069,14.110 13.455 L 14.235 13.519 14.042 13.828 C 13.671 14.426,13.060 15.029,12.480 15.372 C 11.672 15.849,10.595 16.092,9.680 16.003 C 8.751 15.912,7.990 15.650,7.270 15.174 C 6.787 14.855,6.153 14.170,5.869 13.662 C 5.774 13.491,5.770 13.473,5.824 13.452 C 7.306 12.880,8.319 12.600,9.263 12.501 C 9.702 12.455,10.739 12.490,11.254 12.568 " fill="#1A1C1F" stroke="none" fill-rule="evenodd"></path></svg>