<svg width="14" height="14" viewBox="0 0 14 14" fill="none" xmlns="http://www.w3.org/2000/svg"><path d="M6.708 1.414 C 6.395 1.445,6.151 1.478,6.008 1.509 C 4.451 1.847,3.148 2.872,2.552 4.225 C 2.193 5.040,2.047 6.013,2.227 6.381 C 2.341 6.615,2.548 6.747,2.819 6.762 C 3.023 6.774,3.145 6.734,3.312 6.602 C 3.470 6.477,3.542 6.322,3.571 6.042 C 3.615 5.615,3.646 5.423,3.702 5.229 C 4.047 4.031,5.109 3.115,6.413 2.892 C 6.715 2.840,7.277 2.831,7.576 2.872 C 8.872 3.052,9.972 3.935,10.375 5.120 C 10.444 5.321,10.491 5.578,10.524 5.932 C 10.538 6.083,10.559 6.238,10.570 6.278 C 10.605 6.399,10.704 6.548,10.801 6.625 C 11.215 6.953,11.851 6.706,11.923 6.190 C 11.933 6.116,11.932 5.916,11.921 5.745 C 11.814 4.106,10.757 2.613,9.184 1.878 C 8.755 1.677,8.270 1.534,7.770 1.460 C 7.525 1.424,6.885 1.396,6.708 1.414 M6.300 7.341 C 5.028 7.497,4.089 7.769,3.080 8.271 L 2.835 8.393 2.371 8.408 C 1.848 8.424,1.774 8.444,1.609 8.614 C 1.471 8.756,1.415 8.895,1.413 9.100 C 1.412 9.247,1.422 9.297,1.477 9.408 C 1.555 9.567,1.711 9.712,1.862 9.766 C 1.937 9.792,2.081 9.809,2.312 9.817 L 2.653 9.829 2.740 10.007 C 3.444 11.436,4.893 12.406,6.577 12.576 C 8.515 12.771,10.362 11.775,11.228 10.067 L 11.352 9.824 11.573 9.823 C 12.012 9.821,12.181 9.778,12.363 9.623 C 12.584 9.434,12.657 9.063,12.525 8.807 C 12.453 8.668,12.325 8.546,12.175 8.473 C 12.080 8.427,12.017 8.419,11.651 8.407 L 11.235 8.394 10.827 8.202 C 9.903 7.767,9.170 7.543,8.190 7.395 C 7.907 7.353,7.731 7.343,7.117 7.338 C 6.712 7.334,6.345 7.336,6.300 7.341 M7.873 8.797 C 8.554 8.901,9.349 9.147,9.877 9.418 L 9.964 9.463 9.860 9.637 C 9.556 10.148,9.020 10.640,8.499 10.887 C 8.268 10.997,7.972 11.093,7.677 11.155 C 7.356 11.223,6.818 11.227,6.475 11.166 C 5.964 11.075,5.489 10.889,5.091 10.624 C 4.749 10.397,4.307 9.919,4.109 9.564 L 4.036 9.433 4.408 9.291 C 5.159 9.005,5.901 8.812,6.491 8.750 C 6.797 8.718,7.512 8.742,7.873 8.797 " fill="#1A1C1F" stroke="none" fill-rule="evenodd"></path></svg>