<svg xmlns="http://www.w3.org/2000/svg" width="20" height="20" fill="none"><g clip-path="url(#a)"><path fill="#1A1C1F" fill-rule="evenodd" d="M4.071 12.007c1.224-.784 3.702-1.569 5.929-1.569 2.792 0 4.83.91 6.054 1.569h.942A1.01 1.01 0 0 1 18 13.01a1.01 1.01 0 0 1-1.004 1.003h-.785c-1.035 2.447-3.513 4.047-6.211 3.984-2.698-.031-5.176-1.537-6.211-3.984h-.785A.99.99 0 0 1 2 13.011a.99.99 0 0 1 1.004-1.004zM3.067 8.682C3.067 4.98 6.204 2 10.063 2c3.858 0 6.995 2.98 6.995 6.682a.99.99 0 0 1-1.004 1.003.99.99 0 0 1-1.004-1.003c0-2.573-2.227-4.643-4.987-4.643-2.73 0-4.957 2.07-4.957 4.643 0 .564-.47 1.003-1.035 1.003a1.01 1.01 0 0 1-1.004-1.003m2.698 4.8c.816 1.599 2.447 2.509 4.235 2.54s3.42-.91 4.235-2.51A9.7 9.7 0 0 0 10 12.446c-1.443.031-2.823.44-4.235 1.035" clip-rule="evenodd"/></g><defs><clipPath id="a"><path fill="#fff" d="M0 0h20v20H0z"/></clipPath></defs></svg>