<svg xmlns="http://www.w3.org/2000/svg" width="24" height="24" fill="none"><g clip-path="url(#a)"><path fill="#1A1C1F" fill-rule="evenodd" d="M12 12.906c3.094 0 6.375 1.156 7.469 2.093H21c.563 0 1 .469 1 1 0 .563-.437 1-1 1h-1.281a8.18 8.18 0 0 1-7.439 5.032H12c-3.375.062-6.437-1.938-7.719-5.032h-1.28c-.563 0-1-.437-1-1 0-.531.437-1 1-1h1.53c1.094-.937 4.375-2.094 7.469-2.094m0 2c-2.031.03-4 .5-5.812 1.406A6.07 6.07 0 0 0 12 20.03c2.531.094 4.844-1.406 5.844-3.718A13.5 13.5 0 0 0 12 14.905m1.531 1.343c.563 0 1 .438 1 1 0 .938-1.125 1.219-2.531 1.219-1.312 0-2.531-.187-2.531-1.219 0-.531.437-1 .969-1 .124 0 .78.219 1.562.219.406 0 .844-.219 1.531-.219M12 1.97c4.75 0 8.594 3.843 8.594 8.624 0 .531-.438 1-1 1-.532 0-.969-.469-.969-1A6.63 6.63 0 0 0 12 3.968a6.61 6.61 0 0 0-6.625 6.625c0 .563-.469 1-1.031 1-.531 0-.969-.5-.969-1C3.406 5.812 7.219 1.968 12 1.968" clip-rule="evenodd"/></g><defs><clipPath id="a"><path fill="#fff" d="M0 0h24v24H0z"/></clipPath></defs></svg>