<svg xmlns="http://www.w3.org/2000/svg" width="28" height="28" fill="none"><g clip-path="url(#a)"><path fill="#1A1C1F" fill-rule="evenodd" d="M1.75 17.522c0-.483.392-.876.875-.875l1.254.001c1.104-1.191 5.584-3.504 10.13-3.504 4.545 0 9.011 2.314 10.115 3.504l1.251-.001a.875.875 0 1 1 0 1.75h-1.146a11.04 11.04 0 0 1-10.222 6.978 11.05 11.05 0 0 1-10.231-6.977l-1.151-.001a.875.875 0 0 1-.875-.875m1.757-4.404C3.507 7.323 8.205 2.625 14 2.625s10.493 4.698 10.493 10.493a.875.875 0 1 1-1.75 0 8.743 8.743 0 0 0-17.486 0 .875.875 0 1 1-1.75 0m1.858 4.519a9.219 9.219 0 0 0 17.27 0 15.9 15.9 0 0 0-8.628-2.744 15.96 15.96 0 0 0-8.641 2.744m4.88 1.006a.816.816 0 0 1-.61-.806c0-.452.325-.912.837-.912q.135 0 .287.045a11.1 11.1 0 0 0 6.486 0 1 1 0 0 1 .281-.044c.512 0 .845.464.845.918 0 .336-.183.667-.612.8a12.76 12.76 0 0 1-7.514 0m1.876 3.443c-.497-.082-.724-.462-.724-.845 0-.48.356-.968.982-.886a11.2 11.2 0 0 0 3.243 0c.64-.108 1.005.39 1.005.88 0 .393-.234.781-.748.85a12.8 12.8 0 0 1-3.758 0" clip-rule="evenodd"/></g><defs><clipPath id="a"><path fill="#fff" d="M0 0h28v28H0z"/></clipPath></defs></svg>