<svg xmlns="http://www.w3.org/2000/svg" width="32" height="32" fill="none"><g clip-path="url(#a)"><path fill="#1A1C1F" fill-rule="evenodd" d="M2 20.025a1 1 0 0 1 1-1l1.433.001c1.262-1.361 6.382-4.004 11.577-4.004 5.194 0 10.299 2.644 11.56 4.004l1.43-.001a1 1 0 1 1 0 2l-1.31.001A12.62 12.62 0 0 1 16.008 29a12.63 12.63 0 0 1-11.693-7.974L3 21.025a1 1 0 0 1-1-1m2.008-5.033C4.008 8.369 9.377 3 16 3s11.992 5.369 11.992 11.992a1 1 0 1 1-2 0C25.992 9.474 21.518 5 16 5s-9.992 4.474-9.992 9.992a1 1 0 1 1-2 0m2.124 5.164a10.536 10.536 0 0 0 19.736 0 18.17 18.17 0 0 0-9.86-3.135 18.24 18.24 0 0 0-9.876 3.135m5.576 1.15c-.487-.15-.697-.532-.697-.92 0-.517.372-1.043.957-1.043q.155-.001.328.052a12.67 12.67 0 0 0 7.413 0q.17-.052.321-.051c.585 0 .966.53.966 1.049 0 .385-.21.763-.7.913a14.6 14.6 0 0 1-8.588 0m2.145 3.935c-.569-.094-.828-.527-.828-.966 0-.55.407-1.106 1.122-1.012a12.8 12.8 0 0 0 3.707 0c.731-.124 1.148.445 1.148 1.005 0 .45-.267.894-.855.973a14.6 14.6 0 0 1-4.294 0" clip-rule="evenodd"/></g><defs><clipPath id="a"><path fill="#fff" d="M0 0h32v32H0z"/></clipPath></defs></svg>