<svg width="24" height="24" viewBox="0 0 24 24" fill="none" xmlns="http://www.w3.org/2000/svg"><path d="M10.785 2.062 C 8.388 2.388,6.112 3.838,4.789 5.880 C 3.935 7.199,3.396 8.909,3.384 10.343 C 3.380 10.760,3.387 10.799,3.500 11.021 C 3.794 11.595,4.474 11.764,4.971 11.385 C 5.269 11.157,5.329 10.966,5.438 9.888 C 5.526 9.024,5.737 8.305,6.123 7.563 C 7.036 5.803,8.604 4.597,10.580 4.135 C 11.034 4.029,11.112 4.023,12.000 4.023 C 12.824 4.022,12.990 4.033,13.346 4.111 C 15.376 4.556,17.076 5.891,17.958 7.736 C 18.343 8.540,18.500 9.163,18.601 10.280 C 18.650 10.833,18.718 11.056,18.900 11.270 C 19.069 11.466,19.299 11.564,19.597 11.565 C 19.902 11.567,20.129 11.468,20.321 11.250 C 20.605 10.927,20.650 10.600,20.540 9.680 C 20.246 7.225,19.071 5.148,17.160 3.707 C 16.719 3.374,16.393 3.177,15.769 2.865 C 14.861 2.410,14.158 2.198,13.108 2.061 C 12.530 1.986,11.339 1.987,10.785 2.062 M10.480 13.003 C 8.326 13.248,6.128 13.939,4.851 14.775 L 4.522 14.990 3.631 15.008 C 2.651 15.028,2.559 15.047,2.327 15.279 C 1.936 15.670,1.905 16.272,2.254 16.670 C 2.478 16.925,2.643 16.969,3.500 17.003 C 3.918 17.019,4.263 17.034,4.267 17.036 C 4.270 17.038,4.384 17.251,4.520 17.510 C 5.730 19.813,7.657 21.296,10.175 21.858 C 11.094 22.064,12.772 22.074,13.718 21.881 C 14.707 21.678,15.820 21.224,16.648 20.684 C 17.857 19.895,18.757 18.887,19.482 17.506 C 19.617 17.250,19.730 17.038,19.733 17.036 C 19.737 17.034,20.095 17.019,20.528 17.003 C 21.308 16.974,21.319 16.972,21.507 16.856 C 22.008 16.546,22.142 15.900,21.802 15.429 C 21.535 15.059,21.321 15.002,20.196 15.001 L 19.491 15.000 19.196 14.806 C 18.036 14.044,16.332 13.452,14.358 13.123 C 13.780 13.027,13.408 12.991,12.640 12.960 C 11.401 12.910,11.281 12.913,10.480 13.003 M13.500 15.020 C 14.877 15.199,16.339 15.610,17.434 16.124 L 17.848 16.318 17.634 16.718 C 17.183 17.561,16.583 18.268,15.860 18.811 C 15.203 19.304,14.198 19.748,13.300 19.943 C 13.045 19.998,12.780 20.012,12.000 20.012 C 10.899 20.012,10.716 19.986,9.910 19.719 C 8.954 19.401,8.234 18.956,7.519 18.241 C 7.037 17.760,6.710 17.320,6.380 16.707 C 6.219 16.408,6.198 16.345,6.245 16.301 C 6.331 16.218,7.366 15.789,7.920 15.607 C 8.900 15.284,10.121 15.031,11.040 14.961 C 11.661 14.913,12.912 14.943,13.500 15.020 M10.195 16.295 C 9.853 16.418,9.648 16.614,9.538 16.927 C 9.410 17.289,9.491 17.653,9.759 17.921 C 10.093 18.255,10.515 18.388,11.395 18.437 C 13.192 18.535,14.236 18.233,14.464 17.549 C 14.606 17.119,14.441 16.656,14.062 16.421 C 13.782 16.248,13.406 16.237,12.572 16.380 C 11.858 16.502,11.706 16.498,10.880 16.337 C 10.302 16.225,10.378 16.230,10.195 16.295 " fill="#1A1C1F" stroke="none" fill-rule="evenodd"></path></svg>