<svg xmlns="http://www.w3.org/2000/svg" width="16" height="16" fill="none"><g clip-path="url(#a)"><path fill="#1A1C1F" fill-rule="evenodd" d="M3.257 9.605C4.236 8.978 6.218 8.351 8 8.351c2.233 0 3.865.727 4.843 1.254h.754c.427 0 .803.352.803.803a.81.81 0 0 1-.803.803h-.628C12.14 13.17 10.159 14.45 8 14.4c-2.158-.026-4.14-1.23-4.969-3.187h-.628a.793.793 0 0 1-.803-.803c0-.452.351-.804.803-.804zm-.803-2.66c0-2.96 2.51-5.345 5.596-5.345s5.596 2.384 5.596 5.345a.793.793 0 0 1-.803.803.793.793 0 0 1-.803-.803c0-2.057-1.781-3.714-3.99-3.714-2.183 0-3.965 1.657-3.965 3.714a.814.814 0 0 1-.828.803.81.81 0 0 1-.803-.803m2.158 3.84c.653 1.28 1.958 2.008 3.388 2.033s2.735-.728 3.388-2.008A7.8 7.8 0 0 0 8 9.957c-1.154.025-2.259.351-3.388.828" clip-rule="evenodd"/></g><defs><clipPath id="a"><path fill="#fff" d="M0 0h16v16H0z"/></clipPath></defs></svg>