<svg xmlns="http://www.w3.org/2000/svg" width="12" height="12" fill="none"><g clip-path="url(#a)"><path fill="#1A1C1F" fill-rule="evenodd" d="M2.443 7.204c.734-.47 2.22-.941 3.557-.941 1.675 0 2.898.546 3.633.941h.565c.32 0 .602.264.602.602a.606.606 0 0 1-.602.603h-.471A3.96 3.96 0 0 1 6 10.799c-1.619-.019-3.106-.922-3.727-2.39h-.47a.595.595 0 0 1-.603-.603c0-.338.263-.602.602-.602zM1.84 5.21c0-2.22 1.883-4.009 4.198-4.009s4.197 1.788 4.197 4.009a.595.595 0 0 1-.602.602.595.595 0 0 1-.603-.602c0-1.543-1.336-2.786-2.992-2.786-1.638 0-2.974 1.243-2.974 2.786a.61.61 0 0 1-.621.602.606.606 0 0 1-.603-.602m1.62 2.88c.488.96 1.467 1.505 2.54 1.524s2.052-.546 2.54-1.505A5.8 5.8 0 0 0 6 7.468c-.866.018-1.694.263-2.54.62" clip-rule="evenodd"/></g><defs><clipPath id="a"><path fill="#fff" d="M0 0h12v12H0z"/></clipPath></defs></svg>