<svg width="28" height="28" viewBox="0 0 28 28" fill="none" xmlns="http://www.w3.org/2000/svg"><path d="M12.437 2.754 C 10.639 3.030,8.999 3.742,7.513 4.892 C 7.006 5.285,6.135 6.159,5.723 6.688 C 4.397 8.393,3.613 10.520,3.517 12.670 C 3.492 13.250,3.496 13.286,3.604 13.487 C 3.861 13.963,4.424 14.126,4.845 13.848 C 5.147 13.648,5.227 13.439,5.277 12.722 C 5.398 11.004,5.842 9.640,6.708 8.330 C 7.943 6.462,9.684 5.232,11.947 4.629 L 12.577 4.462 14.000 4.462 L 15.423 4.462 16.053 4.629 C 18.667 5.325,20.654 6.915,21.815 9.240 C 22.360 10.333,22.626 11.355,22.719 12.717 C 22.767 13.430,22.851 13.646,23.155 13.848 C 23.307 13.948,23.402 13.975,23.609 13.975 C 23.932 13.975,24.141 13.863,24.336 13.585 C 24.476 13.386,24.477 13.381,24.473 12.771 C 24.460 10.763,23.676 8.549,22.356 6.794 C 20.850 4.791,18.495 3.315,16.053 2.846 C 14.978 2.639,13.442 2.600,12.437 2.754 M11.947 13.300 C 10.655 13.499,9.131 13.890,8.073 14.294 C 6.524 14.886,5.141 15.622,4.243 16.331 L 3.843 16.647 3.068 16.669 C 2.318 16.689,2.289 16.694,2.132 16.814 C 1.933 16.965,1.773 17.281,1.773 17.523 C 1.773 17.769,1.931 18.076,2.144 18.244 L 2.320 18.384 3.034 18.397 L 3.748 18.410 4.126 19.157 C 5.281 21.440,6.956 23.130,9.123 24.196 C 12.248 25.734,15.683 25.753,18.783 24.248 C 21.073 23.137,23.062 21.091,24.038 18.842 L 24.236 18.387 24.956 18.387 L 25.677 18.387 25.855 18.246 C 26.069 18.076,26.227 17.770,26.227 17.523 C 26.227 17.281,26.067 16.965,25.868 16.814 C 25.711 16.694,25.682 16.689,24.933 16.669 L 24.160 16.648 23.727 16.309 C 21.991 14.952,19.311 13.876,16.333 13.339 C 15.873 13.256,15.564 13.240,14.163 13.226 C 12.730 13.212,12.459 13.221,11.947 13.300 M15.423 15.009 C 17.742 15.258,19.958 16.007,21.963 17.219 C 22.268 17.403,22.543 17.579,22.574 17.609 C 22.684 17.716,22.158 18.755,21.496 19.740 C 21.100 20.328,20.113 21.342,19.483 21.806 C 18.539 22.503,17.372 23.050,16.170 23.359 C 15.320 23.577,14.360 23.647,13.242 23.574 C 11.634 23.468,9.998 22.865,8.570 21.852 C 8.080 21.505,6.914 20.339,6.567 19.849 C 5.982 19.024,5.316 17.716,5.426 17.609 C 5.543 17.496,6.528 16.922,7.093 16.638 C 9.109 15.625,11.127 15.078,13.440 14.916 C 13.824 14.889,14.688 14.930,15.423 15.009 M10.046 17.075 C 9.672 17.348,9.544 17.837,9.744 18.228 C 9.872 18.480,10.167 18.633,10.857 18.806 C 12.840 19.304,14.680 19.340,16.676 18.918 C 17.536 18.737,17.942 18.595,18.124 18.413 C 18.439 18.098,18.439 17.594,18.124 17.226 C 17.833 16.886,17.684 16.879,16.543 17.152 C 15.572 17.384,15.219 17.420,13.953 17.418 C 12.726 17.416,12.273 17.363,11.247 17.103 C 10.991 17.039,10.660 16.973,10.512 16.958 C 10.264 16.933,10.228 16.942,10.046 17.075 M11.947 20.420 C 11.703 20.528,11.538 20.709,11.454 20.962 C 11.359 21.247,11.397 21.495,11.572 21.737 C 11.818 22.077,12.164 22.159,13.533 22.199 C 14.481 22.227,15.436 22.169,15.929 22.054 C 16.505 21.919,16.771 21.375,16.525 20.833 C 16.346 20.439,16.031 20.314,15.407 20.390 C 14.413 20.510,13.624 20.505,12.320 20.369 C 12.188 20.355,12.050 20.374,11.947 20.420 " fill="#1A1C1F" stroke="none" fill-rule="evenodd"></path></svg>