<svg width="16" height="16" viewBox="0 0 16 16" fill="none" xmlns="http://www.w3.org/2000/svg"><path d="M7.667 1.616 C 7.020 1.667,6.468 1.793,5.907 2.019 C 4.721 2.494,3.751 3.323,3.146 4.377 C 2.590 5.346,2.295 6.781,2.545 7.293 C 2.678 7.564,2.912 7.712,3.232 7.728 C 3.407 7.737,3.457 7.729,3.582 7.672 C 3.761 7.590,3.934 7.422,4.005 7.261 C 4.040 7.183,4.072 7.011,4.096 6.777 C 4.144 6.316,4.175 6.147,4.258 5.884 C 4.674 4.565,5.876 3.554,7.319 3.307 C 7.675 3.246,8.312 3.234,8.658 3.282 C 10.162 3.491,11.445 4.538,11.874 5.907 C 11.950 6.150,11.988 6.368,12.027 6.787 C 12.066 7.200,12.114 7.338,12.278 7.506 C 12.581 7.816,13.065 7.824,13.384 7.525 C 13.592 7.330,13.630 7.215,13.628 6.793 C 13.625 6.090,13.471 5.440,13.148 4.760 C 12.863 4.161,12.551 3.720,12.081 3.253 C 11.214 2.392,10.121 1.851,8.880 1.669 C 8.595 1.627,7.908 1.597,7.667 1.616 M7.093 8.402 C 5.865 8.536,4.620 8.904,3.505 9.460 L 3.240 9.592 2.711 9.608 C 2.115 9.626,2.028 9.649,1.838 9.845 C 1.681 10.007,1.617 10.166,1.616 10.400 C 1.614 10.659,1.690 10.836,1.870 10.998 C 2.060 11.168,2.184 11.204,2.642 11.220 L 3.031 11.233 3.132 11.437 C 3.936 13.069,5.593 14.178,7.516 14.372 C 9.731 14.596,11.842 13.457,12.832 11.505 L 12.973 11.227 13.227 11.226 C 13.869 11.223,14.139 11.106,14.311 10.753 C 14.374 10.626,14.386 10.567,14.385 10.400 C 14.383 10.154,14.316 9.999,14.142 9.839 C 13.936 9.649,13.847 9.624,13.311 9.607 L 12.840 9.592 12.533 9.447 C 11.342 8.882,10.534 8.628,9.360 8.452 C 9.040 8.403,8.831 8.392,8.147 8.385 C 7.692 8.381,7.218 8.388,7.093 8.402 M8.996 10.054 C 9.777 10.173,10.684 10.454,11.289 10.764 L 11.389 10.816 11.233 11.063 C 10.824 11.715,10.210 12.241,9.533 12.521 C 9.034 12.728,8.336 12.850,7.867 12.814 C 7.086 12.755,6.401 12.530,5.818 12.142 C 5.428 11.882,4.922 11.336,4.696 10.930 L 4.612 10.780 5.038 10.618 C 5.885 10.296,6.711 10.080,7.400 10.001 C 7.737 9.962,8.579 9.990,8.996 10.054 " fill="#1A1C1F" stroke="none" fill-rule="evenodd"></path></svg>