<svg width="12" height="12" viewBox="0 0 12 12" fill="none" xmlns="http://www.w3.org/2000/svg"><path d="M5.730 1.213 C 4.893 1.282,4.091 1.579,3.450 2.056 C 3.225 2.223,2.786 2.658,2.629 2.870 C 2.145 3.522,1.855 4.341,1.851 5.070 C 1.850 5.338,1.852 5.355,1.906 5.464 C 2.007 5.670,2.182 5.783,2.416 5.796 C 2.591 5.806,2.696 5.772,2.839 5.659 C 2.992 5.538,3.038 5.423,3.073 5.066 C 3.120 4.588,3.219 4.251,3.414 3.910 C 3.841 3.161,4.611 2.630,5.489 2.480 C 5.756 2.434,6.234 2.426,6.494 2.462 C 7.605 2.616,8.547 3.373,8.893 4.388 C 8.952 4.561,8.992 4.781,9.021 5.085 C 9.046 5.356,9.060 5.412,9.129 5.530 C 9.317 5.850,9.773 5.902,10.048 5.633 C 10.212 5.473,10.228 5.411,10.214 4.995 C 10.197 4.478,10.092 4.054,9.861 3.570 C 9.647 3.120,9.414 2.791,9.061 2.440 C 8.418 1.799,7.585 1.387,6.660 1.252 C 6.445 1.220,5.910 1.198,5.730 1.213 M5.240 6.311 C 4.308 6.428,3.438 6.690,2.624 7.098 L 2.421 7.200 2.175 7.201 C 1.744 7.204,1.598 7.224,1.486 7.296 C 1.152 7.510,1.111 7.986,1.403 8.249 C 1.545 8.376,1.638 8.403,1.982 8.415 L 2.274 8.425 2.349 8.577 C 2.952 9.802,4.194 10.634,5.637 10.779 C 7.298 10.947,8.882 10.092,9.624 8.629 L 9.730 8.420 9.920 8.419 C 10.169 8.418,10.356 8.393,10.452 8.348 C 10.559 8.297,10.695 8.157,10.746 8.044 C 10.799 7.926,10.804 7.687,10.755 7.576 C 10.707 7.465,10.575 7.334,10.450 7.273 C 10.345 7.221,10.317 7.217,9.984 7.206 L 9.630 7.195 9.280 7.030 C 8.488 6.657,7.860 6.465,7.020 6.339 C 6.640 6.281,5.604 6.265,5.240 6.311 M6.747 7.540 C 7.332 7.629,8.013 7.840,8.465 8.072 L 8.539 8.110 8.449 8.261 C 8.193 8.696,7.733 9.119,7.285 9.332 C 7.087 9.426,6.833 9.509,6.580 9.562 C 6.305 9.619,5.844 9.624,5.550 9.571 C 5.112 9.493,4.705 9.334,4.364 9.106 C 4.071 8.912,3.692 8.502,3.522 8.198 L 3.459 8.085 3.778 7.964 C 4.414 7.722,5.033 7.560,5.550 7.501 C 5.803 7.472,6.434 7.493,6.747 7.540 " fill="#1A1C1F" stroke="none" fill-rule="evenodd"></path></svg>