<svg xmlns="http://www.w3.org/2000/svg" width="28" height="28" fill="none"><g clip-path="url(#a)"><path fill="#1A1C1F" fill-rule="evenodd" d="M15.75 3.5a2.625 2.625 0 0 1 2.625 2.625v3.5h3.5A2.625 2.625 0 0 1 24.5 12.25v3.5a2.625 2.625 0 0 1-2.625 2.625h-3.5v3.5A2.625 2.625 0 0 1 15.75 24.5h-3.5a2.625 2.625 0 0 1-2.625-2.625v-3.5h-3.5A2.625 2.625 0 0 1 3.5 15.75v-3.5a2.625 2.625 0 0 1 2.625-2.625h3.5v-3.5A2.625 2.625 0 0 1 12.25 3.5zm0 1.75h-3.5a.875.875 0 0 0-.87.773l-.005.102v5.25h-5.25a.875.875 0 0 0-.87.773l-.005.102v3.5c0 .449.338.819.773.87l.102.005h5.25v5.25c0 .449.338.819.773.87l.102.005h3.5a.875.875 0 0 0 .87-.773l.005-.102v-5.25h5.25a.875.875 0 0 0 .87-.773l.005-.102v-3.5a.875.875 0 0 0-.773-.87l-.102-.005h-5.25v-5.25a.875.875 0 0 0-.773-.87z" clip-rule="evenodd"/></g><defs><clipPath id="a"><path fill="#fff" d="M0 0h28v28H0z"/></clipPath></defs></svg>