<svg width="32" height="32" viewBox="0 0 32 32" fill="none" xmlns="http://www.w3.org/2000/svg"><path d="M13.753 4.050 C 13.282 4.084,13.125 4.119,12.829 4.258 C 12.409 4.454,12.297 4.536,11.849 4.976 C 11.600 5.219,11.454 5.425,11.293 5.757 C 11.014 6.332,10.995 6.530,10.990 9.053 L 10.987 10.987 9.640 10.989 C 7.493 10.994,6.325 11.059,5.968 11.195 C 5.583 11.341,5.256 11.559,4.907 11.903 C 4.497 12.307,4.344 12.543,4.177 13.030 L 4.027 13.467 4.027 16.027 L 4.028 18.587 4.171 18.972 C 4.506 19.881,5.114 20.478,6.089 20.854 L 6.503 21.013 8.745 21.013 L 10.987 21.013 10.988 22.920 C 10.989 23.969,11.011 25.051,11.038 25.325 C 11.106 26.027,11.328 26.483,11.881 27.052 C 12.342 27.527,12.551 27.664,13.093 27.847 C 13.465 27.973,13.475 27.973,16.027 27.973 L 18.587 27.972 18.972 27.829 C 19.881 27.494,20.478 26.886,20.854 25.911 L 21.013 25.497 21.013 23.255 L 21.013 21.013 23.255 21.013 L 25.497 21.013 25.911 20.854 C 26.886 20.478,27.494 19.881,27.829 18.972 L 27.972 18.587 27.973 16.027 L 27.973 13.467 27.823 13.030 C 27.656 12.543,27.503 12.307,27.093 11.903 C 26.744 11.559,26.417 11.341,26.032 11.195 C 25.675 11.059,24.507 10.994,22.360 10.989 L 21.013 10.987 21.013 8.745 L 21.013 6.503 20.854 6.089 C 20.766 5.862,20.619 5.557,20.528 5.413 C 20.290 5.038,19.810 4.588,19.439 4.392 C 18.794 4.051,18.741 4.045,16.427 4.026 C 15.268 4.017,14.065 4.027,13.753 4.050 M18.564 6.189 C 18.645 6.248,18.768 6.385,18.836 6.494 L 18.960 6.693 18.976 9.850 L 18.993 13.007 22.150 13.024 L 25.307 13.040 25.506 13.164 C 25.615 13.232,25.759 13.364,25.826 13.457 L 25.947 13.627 25.945 16.010 L 25.944 18.394 25.780 18.597 C 25.475 18.977,25.651 18.958,22.150 18.976 L 18.993 18.992 18.976 22.153 L 18.960 25.315 18.813 25.536 C 18.733 25.658,18.565 25.812,18.440 25.879 C 18.215 25.999,18.196 26.000,16.080 26.000 C 14.907 26.000,13.857 25.981,13.748 25.958 C 13.515 25.908,13.260 25.708,13.131 25.474 C 13.049 25.322,13.038 25.010,13.023 22.147 L 13.006 18.987 9.831 18.987 L 6.655 18.987 6.446 18.821 C 6.039 18.498,6.053 18.604,6.055 15.971 C 6.057 13.627,6.057 13.622,6.176 13.455 C 6.242 13.363,6.385 13.232,6.494 13.164 L 6.693 13.040 9.850 13.024 L 13.007 13.008 13.024 9.851 L 13.040 6.693 13.164 6.494 C 13.368 6.165,13.524 6.088,14.032 6.062 C 14.278 6.050,15.365 6.050,16.447 6.062 C 18.306 6.082,18.423 6.089,18.564 6.189 " fill="#1A1C1F" stroke="none" fill-rule="evenodd"></path></svg>