<svg xmlns="http://www.w3.org/2000/svg" width="20" height="20" fill="none"><path fill="#1A1C1F" fill-rule="evenodd" d="M7.678 3.061a.97.97 0 0 0-.627.635C7.008 3.819 7 4.085 7 5.42v1.578l-1.625.009-1.625.01-.191.093a1 1 0 0 0-.492.547C3.002 7.829 3 7.915 3 10c0 2.131.001 2.167.071 2.355.095.254.32.479.574.574.185.069.237.071 1.773.071H7v1.582c0 1.536.002 1.588.071 1.773.095.254.32.479.574.574.188.07.224.071 2.355.071s2.167-.001 2.355-.071c.254-.095.479-.32.574-.574.069-.185.071-.237.071-1.773V13h1.582c1.536 0 1.588-.002 1.773-.071.254-.095.479-.32.574-.574.07-.188.071-.224.071-2.355 0-2.085-.002-2.171-.067-2.343a1 1 0 0 0-.492-.547l-.191-.093-1.625-.01L13 6.998V5.417c0-1.502-.003-1.59-.067-1.76a1 1 0 0 0-.492-.547l-.191-.093-2.2-.008c-2.044-.007-2.212-.004-2.372.052"/></svg>