<svg width="28" height="28" viewBox="0 0 28 28" fill="none" xmlns="http://www.w3.org/2000/svg"><path d="M12.032 3.544 C 11.357 3.593,10.990 3.763,10.454 4.275 C 10.142 4.574,10.040 4.709,9.882 5.035 C 9.637 5.541,9.621 5.713,9.617 7.922 L 9.613 9.613 8.458 9.616 C 6.567 9.620,5.532 9.677,5.222 9.795 C 4.894 9.920,4.611 10.106,4.309 10.396 C 3.961 10.730,3.800 10.976,3.654 11.402 L 3.523 11.783 3.523 14.023 L 3.524 16.263 3.645 16.595 C 3.935 17.387,4.476 17.918,5.328 18.247 L 5.690 18.387 7.652 18.387 L 9.613 18.387 9.615 20.055 C 9.615 20.973,9.635 21.919,9.658 22.159 C 9.717 22.773,9.912 23.173,10.395 23.670 C 10.800 24.086,10.982 24.206,11.457 24.366 C 11.782 24.476,11.791 24.477,14.023 24.476 L 16.263 24.475 16.601 24.351 C 17.396 24.057,17.918 23.525,18.247 22.672 L 18.387 22.310 18.387 20.348 L 18.387 18.387 20.348 18.387 L 22.310 18.387 22.672 18.247 C 23.525 17.918,24.057 17.396,24.351 16.601 L 24.475 16.263 24.476 14.023 L 24.477 11.783 24.346 11.402 C 24.199 10.975,24.065 10.768,23.706 10.415 C 23.401 10.115,23.115 9.924,22.778 9.795 C 22.468 9.677,21.433 9.620,19.542 9.616 L 18.387 9.613 18.387 7.652 L 18.387 5.690 18.247 5.328 C 18.170 5.129,18.042 4.863,17.962 4.736 C 17.754 4.408,17.333 4.014,17.009 3.843 C 16.445 3.545,16.399 3.539,14.373 3.523 C 13.359 3.515,12.306 3.524,12.032 3.544 M16.242 5.415 C 16.314 5.466,16.422 5.587,16.482 5.683 L 16.590 5.857 16.604 8.619 L 16.619 11.381 19.381 11.396 L 22.143 11.410 22.317 11.518 C 22.413 11.578,22.539 11.693,22.597 11.775 L 22.703 11.923 22.701 14.011 L 22.698 16.098 22.556 16.274 C 22.291 16.604,22.443 16.588,19.381 16.604 L 16.619 16.618 16.604 19.384 L 16.590 22.150 16.462 22.344 C 16.391 22.451,16.244 22.586,16.135 22.644 C 15.938 22.749,15.921 22.750,14.070 22.750 C 13.043 22.750,12.125 22.733,12.030 22.713 C 11.826 22.670,11.602 22.495,11.490 22.289 C 11.417 22.157,11.409 21.884,11.395 19.378 L 11.380 16.613 8.594 16.613 L 5.807 16.613 5.584 16.415 C 5.369 16.225,5.359 16.203,5.311 15.867 C 5.280 15.644,5.271 14.862,5.287 13.710 C 5.311 11.968,5.315 11.897,5.410 11.765 C 5.464 11.689,5.587 11.578,5.683 11.518 L 5.857 11.410 8.619 11.396 L 11.381 11.381 11.396 8.619 L 11.410 5.857 11.518 5.683 C 11.694 5.399,11.836 5.327,12.254 5.304 C 12.457 5.294,13.408 5.293,14.367 5.303 C 16.022 5.320,16.117 5.326,16.242 5.415 " fill="#1A1C1F" stroke="none" fill-rule="evenodd"></path></svg>