<svg width="20" height="20" viewBox="0 0 20 20" fill="none" xmlns="http://www.w3.org/2000/svg"><path d="M7.900 3.029 C 7.534 3.068,7.261 3.252,7.110 3.560 L 7.017 3.750 7.007 5.370 L 6.997 6.990 5.369 7.008 L 3.742 7.025 3.536 7.135 C 3.321 7.249,3.172 7.406,3.075 7.622 C 3.021 7.739,3.017 7.936,3.017 10.000 L 3.017 12.250 3.094 12.406 C 3.192 12.606,3.394 12.808,3.594 12.906 C 3.750 12.983,3.754 12.983,5.374 12.993 L 6.997 13.003 7.007 14.626 C 7.017 16.246,7.017 16.250,7.094 16.406 C 7.192 16.606,7.394 16.808,7.594 16.906 L 7.750 16.983 10.000 16.983 L 12.250 16.983 12.406 16.906 C 12.606 16.808,12.808 16.606,12.906 16.406 C 12.983 16.250,12.983 16.246,12.993 14.626 L 13.003 13.003 14.626 12.993 C 16.246 12.983,16.250 12.983,16.406 12.906 C 16.606 12.808,16.808 12.606,16.906 12.406 L 16.983 12.250 16.983 10.000 C 16.983 7.936,16.979 7.739,16.925 7.622 C 16.828 7.406,16.679 7.249,16.464 7.135 L 16.258 7.025 14.631 7.008 L 13.003 6.990 12.993 5.370 C 12.984 3.917,12.977 3.737,12.925 3.622 C 12.829 3.408,12.680 3.250,12.469 3.137 L 12.269 3.031 10.193 3.018 C 9.051 3.011,8.019 3.016,7.900 3.029 " fill="#1A1C1F" stroke="none" fill-rule="evenodd"></path></svg>