<svg width="16" height="16" viewBox="0 0 16 16" fill="none" xmlns="http://www.w3.org/2000/svg"><path d="M6.320 2.423 C 6.028 2.454,5.809 2.601,5.688 2.848 L 5.613 3.000 5.605 4.296 L 5.598 5.593 4.299 5.606 C 3.004 5.619,3.000 5.619,2.868 5.682 C 2.701 5.761,2.547 5.914,2.472 6.075 C 2.413 6.200,2.413 6.204,2.413 8.000 L 2.413 9.800 2.475 9.925 C 2.554 10.085,2.715 10.246,2.875 10.325 C 3.000 10.387,3.003 10.387,4.299 10.395 L 5.598 10.402 5.605 11.701 C 5.613 12.997,5.613 13.000,5.675 13.125 C 5.754 13.285,5.915 13.446,6.075 13.525 L 6.200 13.587 8.000 13.587 L 9.800 13.587 9.925 13.525 C 10.085 13.446,10.246 13.285,10.325 13.125 C 10.387 13.000,10.387 12.997,10.395 11.701 L 10.402 10.402 11.701 10.395 C 12.997 10.387,13.000 10.387,13.125 10.325 C 13.285 10.246,13.446 10.085,13.525 9.925 L 13.587 9.800 13.587 8.000 C 13.587 6.204,13.587 6.200,13.528 6.075 C 13.453 5.914,13.299 5.761,13.132 5.682 C 13.000 5.619,12.996 5.619,11.701 5.606 L 10.402 5.593 10.395 4.296 C 10.387 3.027,10.385 2.997,10.328 2.875 C 10.253 2.714,10.099 2.561,9.935 2.483 L 9.805 2.422 8.149 2.413 C 7.238 2.408,6.415 2.413,6.320 2.423 " fill="#1A1C1F" stroke="none" fill-rule="evenodd"></path></svg>