<svg width="24" height="24" viewBox="0 0 24 24" fill="none" xmlns="http://www.w3.org/2000/svg"><path d="M9.958 3.037 C 9.477 3.059,9.442 3.067,9.143 3.214 C 8.572 3.497,8.136 4.069,8.039 4.660 C 8.018 4.792,8.000 5.598,8.000 6.450 L 8.000 8.000 6.610 8.001 C 4.800 8.003,4.521 8.028,4.130 8.221 C 3.562 8.502,3.125 9.086,3.039 9.681 C 2.990 10.018,2.990 13.982,3.039 14.319 C 3.152 15.104,3.872 15.832,4.660 15.961 C 4.792 15.982,5.598 16.000,6.450 16.000 L 8.000 16.000 8.000 17.550 C 8.000 18.402,8.018 19.208,8.039 19.340 C 8.169 20.140,8.907 20.859,9.704 20.962 C 9.856 20.981,10.889 20.997,12.000 20.997 C 13.111 20.997,14.144 20.981,14.296 20.962 C 15.093 20.859,15.831 20.140,15.961 19.340 C 15.982 19.208,16.000 18.402,16.000 17.550 L 16.000 16.000 17.550 16.000 C 18.402 16.000,19.208 15.982,19.340 15.961 C 20.140 15.831,20.859 15.093,20.962 14.296 C 20.981 14.144,20.997 13.111,20.997 12.000 C 20.997 10.889,20.981 9.856,20.962 9.704 C 20.884 9.096,20.450 8.508,19.870 8.221 C 19.479 8.028,19.200 8.003,17.390 8.001 L 16.000 8.000 16.000 6.450 C 16.000 5.598,15.982 4.792,15.961 4.660 C 15.865 4.072,15.427 3.497,14.864 3.218 C 14.575 3.075,14.531 3.066,14.030 3.036 C 13.441 3.001,10.740 3.002,9.958 3.037 M14.000 7.500 L 14.000 10.000 16.500 10.000 L 19.000 10.000 19.000 12.000 L 19.000 14.000 16.500 14.000 L 14.000 14.000 14.000 16.500 L 14.000 19.000 12.000 19.000 L 10.000 19.000 10.000 16.500 L 10.000 14.000 7.500 14.000 L 5.000 14.000 5.000 12.000 L 5.000 10.000 7.500 10.000 L 10.000 10.000 10.000 7.500 L 10.000 5.000 12.000 5.000 L 14.000 5.000 14.000 7.500 " fill="#1A1C1F" stroke="none" fill-rule="evenodd"></path></svg>