<svg width="12" height="12" viewBox="0 0 12 12" fill="none" xmlns="http://www.w3.org/2000/svg"><path d="M4.740 1.818 C 4.517 1.844,4.357 1.952,4.266 2.136 L 4.210 2.250 4.204 3.222 L 4.198 4.194 3.224 4.204 L 2.250 4.214 2.146 4.267 C 2.014 4.334,1.907 4.440,1.852 4.558 C 1.811 4.649,1.810 4.666,1.810 6.000 L 1.810 7.350 1.856 7.444 C 1.915 7.564,2.036 7.685,2.156 7.744 C 2.250 7.790,2.252 7.790,3.224 7.796 L 4.198 7.802 4.204 8.776 C 4.210 9.748,4.210 9.750,4.256 9.844 C 4.315 9.964,4.436 10.085,4.556 10.144 L 4.650 10.190 6.000 10.190 L 7.350 10.190 7.444 10.144 C 7.564 10.085,7.685 9.964,7.744 9.844 C 7.790 9.750,7.790 9.748,7.796 8.776 L 7.802 7.802 8.776 7.796 C 9.748 7.790,9.750 7.790,9.844 7.744 C 9.964 7.685,10.085 7.564,10.144 7.444 L 10.190 7.350 10.190 6.000 L 10.190 4.650 10.142 4.553 C 10.081 4.428,9.986 4.334,9.854 4.267 L 9.750 4.214 8.776 4.204 L 7.802 4.194 7.796 3.222 L 7.790 2.250 7.742 2.153 C 7.681 2.029,7.586 1.934,7.457 1.868 L 7.355 1.817 6.113 1.810 C 5.429 1.806,4.811 1.809,4.740 1.818 " fill="#1A1C1F" stroke="none" fill-rule="evenodd"></path></svg>