<svg xmlns="http://www.w3.org/2000/svg" width="32" height="32" fill="none"><path fill="#1A1C1F" fill-rule="evenodd" d="M13.347 4.081c-.555.12-1.007.377-1.454.825-.394.395-.564.668-.78 1.254-.088.24-.1.491-.115 2.543l-.018 2.276-2.25.02c-2.469.023-2.458.022-3.157.374-.388.196-1.007.806-1.215 1.196a4 4 0 0 0-.252.689C4.008 13.638 4 13.854 4 16s.008 2.362.106 2.742c.133.522.325.877.683 1.265.353.382.724.629 1.238.825l.4.153 2.277.017 2.276.018.018 2.276c.019 2.486.007 2.38.354 3.104.176.366.838 1.042 1.217 1.243.152.08.462.193.689.251.38.098.596.106 2.742.106s2.362-.008 2.742-.106a2.7 2.7 0 0 0 1.265-.683c.382-.353.629-.724.825-1.238l.153-.4.017-2.277.018-2.276 2.276-.018 2.277-.017.4-.153a3.1 3.1 0 0 0 1.238-.825c.358-.388.55-.743.683-1.265.098-.38.106-.596.106-2.742s-.008-2.362-.106-2.742a4 4 0 0 0-.252-.689c-.208-.39-.827-1-1.215-1.196-.699-.352-.688-.351-3.157-.374l-2.25-.02-.018-2.276-.017-2.276-.153-.4c-.388-1.02-1.197-1.735-2.203-1.948-.506-.108-4.787-.106-5.282.002m5.231 2.122c.108.082.244.243.302.358.103.201.107.318.107 3.33v3.122h3.122c2.993 0 3.13.005 3.326.105.259.132.472.382.512.604.017.094.024 1.183.016 2.42l-.016 2.248-.164.205c-.328.41-.151.391-3.663.392h-3.133v3.122c0 2.993-.005 3.13-.105 3.326a.98.98 0 0 1-.717.537c-.195.041-.97.055-2.361.044-2.24-.017-2.23-.016-2.504-.318-.296-.324-.287-.21-.287-3.587v-3.122l-3.195-.014-3.195-.015-.205-.164c-.405-.324-.395-.243-.379-2.854l.014-2.324.15-.196a1.2 1.2 0 0 1 .358-.302c.201-.103.318-.107 3.33-.107h3.122V9.891c0-2.964.005-3.132.102-3.32.118-.23.297-.409.485-.485.084-.034.987-.05 2.458-.043l2.324.01z"/></svg>