<svg width="14" height="14" viewBox="0 0 14 14" fill="none" xmlns="http://www.w3.org/2000/svg"><path d="M5.530 2.120 C 5.274 2.148,5.083 2.276,4.977 2.492 L 4.912 2.625 4.905 3.759 L 4.898 4.893 3.761 4.905 C 2.632 4.917,2.624 4.918,2.509 4.972 C 2.364 5.041,2.227 5.176,2.162 5.317 C 2.112 5.424,2.112 5.438,2.112 7.000 L 2.112 8.575 2.166 8.685 C 2.234 8.824,2.376 8.966,2.515 9.034 C 2.625 9.088,2.628 9.088,3.761 9.095 L 4.898 9.102 4.905 10.239 C 4.912 11.372,4.912 11.375,4.966 11.485 C 5.034 11.624,5.176 11.766,5.315 11.834 L 5.425 11.888 7.000 11.888 L 8.575 11.888 8.685 11.834 C 8.824 11.766,8.966 11.624,9.034 11.485 C 9.088 11.375,9.088 11.372,9.095 10.239 L 9.102 9.102 10.239 9.095 C 11.372 9.088,11.375 9.088,11.485 9.034 C 11.624 8.966,11.766 8.824,11.834 8.685 L 11.888 8.575 11.888 7.000 C 11.888 5.438,11.888 5.424,11.838 5.317 C 11.773 5.176,11.636 5.041,11.491 4.972 C 11.376 4.918,11.368 4.917,10.239 4.905 L 9.102 4.893 9.095 3.759 C 9.089 2.655,9.087 2.622,9.038 2.517 C 8.974 2.377,8.837 2.241,8.694 2.173 C 8.581 2.121,8.581 2.121,7.131 2.112 C 6.334 2.107,5.613 2.111,5.530 2.120 " fill="#1A1C1F" stroke="none" fill-rule="evenodd"></path></svg>