<svg xmlns="http://www.w3.org/2000/svg" width="32" height="32" fill="none"><g clip-path="url(#a)"><path fill="#1A1C1F" fill-rule="evenodd" d="M18 4a3 3 0 0 1 3 3v4h4a3 3 0 0 1 3 3v4a3 3 0 0 1-3 3h-4v4a3 3 0 0 1-3 3h-4a3 3 0 0 1-3-3v-4H7a3 3 0 0 1-3-3v-4a3 3 0 0 1 3-3h4V7a3 3 0 0 1 3-3zm0 2h-4a1 1 0 0 0-.993.883L13 7v6H7a1 1 0 0 0-.993.883L6 14v4a1 1 0 0 0 .883.993L7 19h6v6a1 1 0 0 0 .883.993L14 26h4a1 1 0 0 0 .993-.883L19 25v-6h6a1 1 0 0 0 .993-.883L26 18v-4a1 1 0 0 0-.883-.993L25 13h-6V7a1 1 0 0 0-.883-.993z" clip-rule="evenodd"/></g><defs><clipPath id="a"><path fill="#fff" d="M0 0h32v32H0z"/></clipPath></defs></svg>