<svg width="32" height="32" viewBox="0 0 32 32" fill="none" xmlns="http://www.w3.org/2000/svg"><path d="M16.915 5.121 C 16.750 5.196,16.211 5.698,15.041 6.866 C 14.138 7.768,13.348 8.591,13.286 8.693 C 13.152 8.916,13.139 9.255,13.255 9.532 C 13.353 9.766,16.625 13.054,16.904 13.199 C 17.168 13.335,17.647 13.285,17.896 13.095 C 18.260 12.817,18.402 12.260,18.206 11.877 C 18.157 11.783,17.743 11.325,17.286 10.860 L 16.453 10.013 17.200 10.043 C 21.343 10.215,24.781 13.120,25.665 17.197 C 25.765 17.658,25.782 17.905,25.784 18.960 C 25.786 20.044,25.773 20.249,25.666 20.723 C 25.323 22.257,24.834 23.271,23.676 24.857 C 23.214 25.490,23.393 26.186,24.095 26.484 C 24.644 26.717,25.169 26.318,26.034 25.013 C 26.955 23.622,27.592 21.867,27.784 20.186 C 27.855 19.570,27.855 18.638,27.784 17.893 C 27.434 14.192,25.084 10.834,21.683 9.176 C 20.293 8.498,18.946 8.144,17.480 8.071 C 17.095 8.052,16.800 8.014,16.800 7.985 C 16.800 7.956,17.120 7.603,17.512 7.201 C 18.245 6.447,18.293 6.369,18.293 5.938 C 18.293 5.542,18.009 5.179,17.612 5.069 C 17.328 4.990,17.178 5.001,16.915 5.121 M16.560 16.058 C 15.366 16.171,14.151 17.015,13.631 18.094 C 13.259 18.865,13.220 19.130,13.189 21.067 C 13.152 23.394,13.236 24.129,13.630 24.933 C 14.094 25.880,14.974 26.595,16.000 26.859 C 16.254 26.924,16.569 26.948,17.173 26.946 C 17.873 26.945,18.057 26.926,18.373 26.827 C 19.713 26.405,20.651 25.456,21.010 24.159 C 21.104 23.818,21.125 23.548,21.152 22.294 C 21.194 20.342,21.124 19.086,20.943 18.566 C 20.324 16.787,18.699 15.857,16.560 16.058 M7.357 16.547 C 6.695 16.850,5.012 17.726,4.655 17.952 C 3.952 18.400,4.011 19.283,4.768 19.653 C 5.158 19.844,5.285 19.818,6.243 19.356 L 7.013 18.985 7.048 19.266 C 7.067 19.420,7.085 20.775,7.088 22.275 L 7.093 25.004 5.978 25.022 L 4.862 25.040 4.631 25.201 C 4.310 25.426,4.203 25.652,4.226 26.060 C 4.240 26.318,4.276 26.428,4.392 26.581 C 4.701 26.986,4.442 26.960,8.104 26.960 C 9.910 26.960,11.451 26.942,11.529 26.920 C 11.954 26.801,12.239 26.243,12.115 25.771 C 12.034 25.462,11.910 25.285,11.674 25.147 C 11.511 25.050,11.377 25.038,10.282 25.021 L 9.071 25.002 9.056 20.968 L 9.040 16.933 8.919 16.764 C 8.746 16.521,8.471 16.370,8.148 16.340 C 7.900 16.317,7.807 16.341,7.357 16.547 M18.344 18.229 C 18.697 18.405,18.950 18.717,19.080 19.137 C 19.162 19.404,19.173 19.683,19.173 21.467 C 19.173 23.720,19.159 23.838,18.814 24.353 C 18.680 24.553,18.557 24.655,18.279 24.796 C 17.942 24.967,17.875 24.982,17.301 25.003 C 16.488 25.035,16.106 24.938,15.739 24.609 C 15.586 24.471,15.429 24.262,15.354 24.095 L 15.227 23.813 15.227 21.547 C 15.227 19.084,15.233 19.020,15.524 18.625 C 15.870 18.154,16.345 18.014,17.440 18.059 C 17.971 18.080,18.092 18.103,18.344 18.229 " fill="#1A1C1F" stroke="none" fill-rule="evenodd"></path></svg>