<svg width="28" height="28" viewBox="0 0 28 28" fill="none" xmlns="http://www.w3.org/2000/svg"><path d="M14.770 4.476 C 14.541 4.583,11.649 7.473,11.576 7.668 C 11.549 7.740,11.527 7.891,11.527 8.003 C 11.527 8.115,11.549 8.266,11.576 8.339 C 11.641 8.512,14.533 11.414,14.756 11.530 C 14.960 11.636,15.293 11.647,15.506 11.556 C 15.688 11.478,15.889 11.271,15.957 11.092 C 16.020 10.924,16.021 10.591,15.958 10.421 C 15.931 10.349,15.569 9.947,15.153 9.527 L 14.397 8.763 15.097 8.790 C 15.876 8.820,16.486 8.926,17.171 9.152 C 19.942 10.065,22.003 12.426,22.498 15.252 C 22.679 16.285,22.619 17.608,22.345 18.643 C 22.100 19.566,21.532 20.697,20.949 21.422 C 20.544 21.925,20.473 22.079,20.496 22.404 C 20.509 22.586,20.551 22.725,20.629 22.840 C 20.760 23.032,21.133 23.240,21.349 23.240 C 21.731 23.240,22.146 22.849,22.785 21.887 C 23.520 20.779,23.983 19.602,24.252 18.153 C 24.379 17.465,24.369 15.754,24.234 15.003 C 23.891 13.109,23.041 11.420,21.752 10.071 C 20.908 9.189,20.092 8.578,19.073 8.066 C 17.801 7.428,16.330 7.050,15.108 7.048 C 14.858 7.047,14.653 7.031,14.653 7.011 C 14.653 6.991,14.929 6.703,15.265 6.369 C 15.601 6.036,15.906 5.696,15.941 5.613 C 16.019 5.435,16.026 5.098,15.957 4.915 C 15.788 4.467,15.231 4.261,14.770 4.476 " fill="#1A1C1F" stroke="none" fill-rule="evenodd"></path></svg>