<svg xmlns="http://www.w3.org/2000/svg" width="20" height="20" fill="none"><g clip-path="url(#a)"><path fill="#1A1C1F" fill-rule="evenodd" d="M15.692 15.475c-.645 0-1.034-.546-1.034-.957 0-.469.74-1.6.74-2.87 0-2.693-2.05-4.723-4.547-4.957l.682.644c.157.195.293.449.293.703 0 .507-.468.956-.995.956a1.03 1.03 0 0 1-.716-.278L7.935 6.52a1 1 0 0 1-.268-.708.9.9 0 0 1 .273-.644l2.208-2.225a.94.94 0 0 1 .682-.293 1 1 0 0 1 .995.995.95.95 0 0 1-.293.684l-.448.449a6.88 6.88 0 0 1 6.246 6.87l-.008.313c-.07 1.41-.599 3.514-1.632 3.514M3.682 17.349h1.933c.566 0 .956-.468.956-.976a.98.98 0 0 0-.976-.976v-3.844a.946.946 0 0 0-1.487-.787L3.1 11.44a.95.95 0 0 0-.432.796c0 .566.47.994 1.015.975v2.187c-.546 0-.956.45-.956.995 0 .508.41.956.956.956m6.58-6.851c1.6 0 2.694 1.133 2.694 2.87v1.092c0 1.758-1.134 2.89-2.793 2.89-1.503 0-2.596-1.152-2.596-2.85v-1.21c0-1.66 1.132-2.791 2.694-2.791zm-.02 1.947-.085.005c-.383.024-.638.165-.638.82v1.23c0 .684.215.893.742.883.468-.01.723-.24.723-.941v-1.094c0-.82-.39-.912-.742-.903" clip-rule="evenodd"/></g><defs><clipPath id="a"><path fill="#fff" d="M0 0h20v20H0z"/></clipPath></defs></svg>