<svg xmlns="http://www.w3.org/2000/svg" width="32" height="32" fill="none"><path fill="#1A1C1F" fill-rule="evenodd" d="M14.546 8.058a2.3 2.3 0 0 0-.427.162c-.124.063-2.194 1.469-4.599 3.124-4.707 3.239-4.878 3.371-5.092 3.945-.257.687-.111 1.479.37 2.005.381.417 9.098 6.421 9.561 6.585.771.273 1.588.05 2.144-.585.47-.536.478-.584.51-2.852l.027-1.984 3.867 2.666c4.124 2.844 4.177 2.876 4.8 2.876.356 0 .886-.179 1.186-.401.308-.227.53-.523.692-.925l.122-.301.015-6.101c.009-3.746-.005-6.245-.037-6.475-.13-.937-.747-1.587-1.669-1.758a2 2 0 0 0-1.216.192c-.132.07-1.932 1.294-4 2.72l-3.76 2.594-.027-1.986c-.027-1.912-.032-1.997-.15-2.29-.362-.901-1.378-1.432-2.317-1.211"/></svg>