<svg width="14" height="14" viewBox="0 0 14 14" fill="none" xmlns="http://www.w3.org/2000/svg"><path d="M5.981 1.905 C 5.841 1.954,5.683 2.104,5.608 2.256 C 5.558 2.359,5.544 2.421,5.544 2.541 C 5.543 2.766,5.607 2.890,5.846 3.128 C 5.955 3.236,6.043 3.331,6.043 3.339 C 6.043 3.347,5.977 3.359,5.897 3.367 C 5.456 3.408,4.873 3.582,4.397 3.814 C 2.493 4.741,1.431 6.766,1.738 8.881 C 1.814 9.398,1.945 9.860,2.119 10.219 C 2.257 10.504,2.492 10.755,2.666 10.803 C 3.087 10.918,3.550 10.582,3.550 10.163 C 3.550 10.064,3.513 9.939,3.376 9.575 C 3.033 8.658,2.977 8.253,3.095 7.537 C 3.318 6.181,4.377 5.080,5.763 4.762 C 5.872 4.737,6.019 4.710,6.090 4.701 L 6.218 4.685 5.957 4.934 C 5.637 5.237,5.540 5.403,5.545 5.635 C 5.548 5.811,5.597 5.924,5.730 6.067 C 5.969 6.322,6.355 6.365,6.647 6.170 C 6.790 6.074,8.319 4.500,8.379 4.386 C 8.456 4.241,8.459 3.931,8.385 3.792 C 8.357 3.740,7.943 3.303,7.463 2.820 C 6.676 2.026,6.581 1.937,6.477 1.904 C 6.335 1.858,6.111 1.859,5.981 1.905 " fill="#1A1C1F" stroke="none" fill-rule="evenodd"></path></svg>