<svg width="24" height="24" viewBox="0 0 24 24" fill="none" xmlns="http://www.w3.org/2000/svg"><path d="M13.660 3.053 C 13.389 3.159,13.261 3.269,12.498 4.049 C 11.456 5.113,10.888 5.735,10.839 5.862 C 10.818 5.919,10.800 6.077,10.800 6.213 C 10.801 6.416,10.823 6.499,10.925 6.676 C 11.053 6.899,12.509 8.411,13.165 9.002 C 13.463 9.269,13.541 9.319,13.728 9.357 C 14.325 9.482,14.861 9.075,14.912 8.457 C 14.936 8.170,14.813 7.923,14.440 7.508 C 14.286 7.337,14.160 7.178,14.160 7.155 C 14.160 7.040,15.306 7.293,15.900 7.539 C 16.859 7.935,17.755 8.638,18.400 9.501 C 18.667 9.856,19.097 10.666,19.255 11.111 C 19.469 11.710,19.534 12.151,19.537 13.000 C 19.539 13.601,19.523 13.861,19.468 14.135 C 19.254 15.187,18.812 16.075,18.023 17.037 C 17.633 17.514,17.552 17.670,17.550 17.957 C 17.548 18.202,17.675 18.508,17.847 18.668 C 18.004 18.815,18.314 18.931,18.546 18.928 C 18.837 18.926,19.097 18.776,19.443 18.412 C 20.690 17.098,21.481 15.215,21.548 13.395 C 21.619 11.464,21.093 9.771,19.947 8.244 C 18.901 6.849,17.326 5.801,15.609 5.357 C 15.204 5.252,14.493 5.121,14.326 5.120 C 14.297 5.120,14.394 4.989,14.542 4.830 C 14.823 4.528,14.999 4.219,15.000 4.028 C 15.002 3.477,14.490 2.991,13.923 3.003 C 13.844 3.005,13.726 3.027,13.660 3.053 M11.790 12.063 C 11.201 12.170,10.767 12.404,10.320 12.857 C 9.968 13.214,9.790 13.499,9.642 13.948 C 9.452 14.519,9.429 14.856,9.453 16.700 C 9.477 18.590,9.489 18.676,9.803 19.310 C 10.137 19.982,10.707 20.492,11.398 20.736 C 11.721 20.850,11.774 20.857,12.360 20.858 C 12.901 20.860,13.018 20.848,13.280 20.766 C 14.206 20.477,14.861 19.825,15.176 18.877 C 15.353 18.347,15.374 18.084,15.377 16.420 C 15.380 14.971,15.374 14.833,15.295 14.480 C 15.131 13.745,14.850 13.207,14.416 12.797 C 13.743 12.162,12.761 11.888,11.790 12.063 M5.164 12.228 C 4.925 12.276,2.776 13.696,2.649 13.890 C 2.380 14.298,2.436 14.878,2.778 15.220 C 3.096 15.538,3.516 15.559,4.022 15.281 C 4.184 15.193,4.335 15.120,4.358 15.120 C 4.387 15.120,4.400 15.741,4.400 17.080 L 4.400 19.040 3.778 19.040 C 3.082 19.040,3.034 19.053,2.738 19.326 C 2.514 19.532,2.421 19.795,2.452 20.132 C 2.492 20.579,2.856 20.930,3.330 20.980 C 3.467 20.994,4.507 21.000,5.640 20.993 L 7.700 20.980 7.887 20.870 C 8.331 20.609,8.490 20.197,8.340 19.692 C 8.297 19.548,8.230 19.444,8.105 19.328 C 7.805 19.052,7.761 19.040,7.042 19.040 L 6.400 19.040 6.399 16.190 C 6.398 14.623,6.382 13.217,6.362 13.067 C 6.314 12.692,6.194 12.521,5.872 12.365 C 5.620 12.244,5.346 12.191,5.164 12.228 M12.786 14.085 C 12.957 14.137,13.194 14.377,13.290 14.594 C 13.394 14.828,13.457 16.046,13.425 17.180 C 13.392 18.351,13.288 18.656,12.839 18.892 C 12.649 18.993,12.588 19.005,12.378 18.989 C 12.092 18.967,11.946 18.899,11.748 18.694 C 11.476 18.415,11.468 18.346,11.464 16.480 C 11.460 14.847,11.461 14.817,11.549 14.628 C 11.730 14.235,11.873 14.109,12.213 14.042 C 12.389 14.007,12.577 14.021,12.786 14.085 " fill="#1A1C1F" stroke="none" fill-rule="evenodd"></path></svg>