<svg xmlns="http://www.w3.org/2000/svg" width="32" height="32" fill="none"><g clip-path="url(#a)"><path fill="#1A1C1F" fill-rule="evenodd" d="M7.765 16.08c1.82 0 3.14 1.165 3.14 2.769 0 .802-.3 1.427-.743 1.916.78.527 1.26 1.409 1.26 2.465 0 3.68-4.648 3.906-6.397 3.99h-.05a1 1 0 0 1-.046-1.998c3.96-.19 4.492-1.114 4.492-1.992 0-.646-.387-1-1.09-1-.447 0-.735.029-1.662.212a1 1 0 0 1-.42-1.954c1.21-.282 2.655-.793 2.655-1.64 0-.711-.872-.767-1.14-.767-.648 0-1.314.18-2.094.564a1 1 0 0 1-.886-1.793c1.066-.526 2.013-.771 2.98-.771m9.71-11.3c.549 0 1 .418 1 .997a1 1 0 0 1-.29.708l-1.32 1.318c6.12-.064 11.145 4.858 11.145 10.968 0 2.637-.934 5.21-2.706 7.204l-.076.091a.95.95 0 0 1-.665.264c-.58 0-.998-.45-.998-1.03 0-.224.064-.45.225-.643a8.95 8.95 0 0 0 2.223-5.917c0-5.18-4.413-9.167-9.407-8.942l1.579 1.576c.193.192.29.45.29.707a.98.98 0 0 1-1 .998 1 1 0 0 1-.708-.29l-3.156-3.15a1 1 0 0 1-.29-.708 1 1 0 0 1 .29-.708l3.157-3.153a1 1 0 0 1 .71-.288zm-.15 11c2.32 0 3.995 1.5 3.995 4.02v2.927c0 2.553-1.74 4.02-3.994 4.053-2.255.032-3.963-1.5-3.963-3.989v-3.087c0-2.424 1.772-3.924 3.963-3.924m0 1.995c-1.384 0-1.997.61-1.997 1.93v3.087c0 1.447.58 2.026 1.998 2.026 1.385 0 2.03-.676 2.03-2.09V19.8c0-1.447-.58-2.026-2.03-2.026" clip-rule="evenodd"/></g><defs><clipPath id="a"><path fill="#fff" d="M0 0h32v32H0z"/></clipPath></defs></svg>