<svg xmlns="http://www.w3.org/2000/svg" width="20" height="20" fill="none"><g clip-path="url(#a)"><path fill="#1A1C1F" fill-rule="evenodd" d="M15.353 5a2 2 0 0 1 1.999 2v6a2.001 2.001 0 0 1-3.135 1.647L11 12.429V13a2.001 2.001 0 0 1-3.136 1.647l-4.351-3a2 2 0 0 1 0-3.294l4.35-3a2.005 2.005 0 0 1 2.848.612c.189.313.289.67.289 1.035v.571l3.216-2.218c.34-.234.737-.353 1.136-.353M9 7l-4.352 3L9 13zm6.35 0-4.35 3 4.35 3z" clip-rule="evenodd"/></g><defs><clipPath id="a"><path fill="#fff" d="M0 0h20v20H0z"/></clipPath></defs></svg>