<svg width="16" height="16" viewBox="0 0 16 16" fill="none" xmlns="http://www.w3.org/2000/svg"><path d="M8.461 2.158 C 8.350 2.186,8.265 2.242,8.057 2.425 C 7.760 2.686,6.294 4.216,6.219 4.344 C 6.159 4.446,6.147 4.498,6.147 4.653 C 6.147 4.995,6.173 5.030,7.251 6.109 C 8.316 7.175,8.331 7.186,8.653 7.183 C 8.781 7.182,8.879 7.165,8.963 7.127 C 9.253 6.999,9.453 6.706,9.453 6.413 C 9.452 6.187,9.356 6.025,9.003 5.660 C 8.843 5.495,8.728 5.360,8.746 5.360 C 8.837 5.360,9.351 5.479,9.573 5.551 C 10.197 5.754,10.665 6.045,11.149 6.530 C 11.578 6.960,11.778 7.253,12.005 7.782 C 12.233 8.314,12.347 9.020,12.294 9.569 C 12.258 9.945,12.195 10.193,11.985 10.787 C 11.692 11.618,11.685 11.663,11.820 11.924 C 11.962 12.196,12.253 12.374,12.556 12.373 C 13.067 12.370,13.512 11.661,13.748 10.474 C 13.891 9.755,13.890 8.818,13.747 8.184 C 13.414 6.706,12.597 5.513,11.370 4.711 C 10.705 4.277,9.863 3.956,9.146 3.864 C 9.014 3.847,8.907 3.821,8.907 3.806 C 8.907 3.791,9.004 3.678,9.122 3.554 C 9.446 3.217,9.514 3.019,9.417 2.699 C 9.351 2.483,9.213 2.309,9.035 2.220 C 8.904 2.155,8.601 2.122,8.461 2.158 M7.867 8.427 C 7.482 8.476,7.163 8.616,6.849 8.871 C 6.520 9.139,6.336 9.400,6.184 9.817 C 6.113 10.009,6.099 10.095,6.079 10.440 C 6.025 11.346,6.060 12.074,6.172 12.400 C 6.312 12.807,6.447 13.035,6.695 13.283 C 6.949 13.537,7.151 13.664,7.480 13.776 C 7.780 13.877,8.296 13.896,8.670 13.819 C 9.333 13.682,9.836 13.287,10.121 12.680 C 10.304 12.290,10.343 12.096,10.362 11.467 C 10.386 10.702,10.347 10.194,10.240 9.866 C 10.141 9.560,10.031 9.357,9.854 9.152 C 9.540 8.789,9.205 8.576,8.803 8.484 C 8.531 8.421,8.109 8.396,7.867 8.427 M3.560 8.505 C 3.447 8.524,3.004 8.794,2.563 9.114 C 2.237 9.350,2.146 9.494,2.148 9.773 C 2.149 10.020,2.229 10.201,2.406 10.361 C 2.535 10.476,2.730 10.560,2.872 10.560 L 2.933 10.560 2.933 11.436 L 2.933 12.312 2.793 12.344 C 2.574 12.394,2.377 12.543,2.281 12.731 C 2.211 12.869,2.200 12.918,2.200 13.105 C 2.200 13.265,2.214 13.347,2.253 13.427 C 2.325 13.573,2.511 13.752,2.661 13.822 C 2.782 13.878,2.819 13.880,3.720 13.880 C 4.617 13.880,4.658 13.878,4.777 13.823 C 5.075 13.685,5.238 13.433,5.238 13.107 C 5.239 12.708,4.984 12.408,4.581 12.333 L 4.482 12.314 4.474 10.684 L 4.467 9.053 4.405 8.929 C 4.244 8.605,3.923 8.444,3.560 8.505 M8.551 10.042 C 8.593 10.073,8.657 10.151,8.693 10.216 L 8.760 10.333 8.760 11.133 C 8.759 12.023,8.760 12.019,8.575 12.181 C 8.464 12.279,8.359 12.303,8.107 12.289 C 7.902 12.277,7.817 12.232,7.713 12.080 C 7.654 11.993,7.653 11.980,7.653 11.140 C 7.653 10.305,7.655 10.285,7.713 10.180 C 7.803 10.018,7.927 9.970,8.231 9.979 C 8.430 9.985,8.490 9.997,8.551 10.042 " fill="#1A1C1F" stroke="none" fill-rule="evenodd"></path></svg>