<svg width="24" height="24" viewBox="0 0 24 24" fill="none" xmlns="http://www.w3.org/2000/svg"><path d="M9.834 3.062 C 9.574 3.143,9.264 3.432,9.184 3.668 C 9.050 4.060,9.146 4.356,9.554 4.815 C 9.688 4.966,9.789 5.106,9.777 5.125 C 9.765 5.144,9.700 5.160,9.633 5.160 C 9.565 5.160,9.286 5.205,9.011 5.261 C 7.400 5.587,5.949 6.365,4.800 7.520 C 3.604 8.721,2.803 10.349,2.578 12.035 C 2.511 12.538,2.503 13.564,2.562 14.041 C 2.773 15.749,3.512 17.325,4.694 18.588 C 5.076 18.997,5.431 19.135,5.812 19.024 C 6.067 18.949,6.285 18.774,6.430 18.527 C 6.519 18.375,6.540 18.291,6.540 18.080 C 6.540 17.750,6.489 17.647,6.058 17.119 C 5.359 16.261,4.966 15.527,4.701 14.583 C 4.502 13.874,4.497 12.333,4.692 11.640 C 5.274 9.570,6.760 8.001,8.701 7.406 C 9.153 7.267,9.751 7.149,9.905 7.167 C 10.004 7.179,9.995 7.195,9.704 7.520 C 9.295 7.978,9.182 8.207,9.211 8.522 C 9.274 9.221,9.995 9.634,10.626 9.334 C 10.814 9.245,11.329 8.753,12.320 7.715 C 13.315 6.674,13.322 6.665,13.349 6.362 C 13.387 5.942,13.330 5.828,12.782 5.232 C 12.082 4.471,10.731 3.160,10.585 3.100 C 10.376 3.015,10.039 2.998,9.834 3.062 M10.512 12.080 C 9.834 12.206,9.038 12.508,8.721 12.759 C 8.505 12.930,8.360 13.236,8.360 13.520 C 8.360 14.011,8.743 14.435,9.250 14.505 C 9.390 14.524,9.507 14.496,9.901 14.349 C 10.561 14.103,10.882 14.028,11.287 14.024 C 11.578 14.021,11.652 14.033,11.744 14.102 C 11.900 14.218,11.936 14.291,11.903 14.423 C 11.831 14.708,11.341 15.001,10.500 15.262 C 9.746 15.496,9.519 15.643,9.374 15.989 C 9.217 16.362,9.375 16.894,9.715 17.141 C 10.010 17.355,10.168 17.382,10.671 17.305 C 11.627 17.159,11.999 17.170,12.175 17.346 C 12.369 17.540,12.351 17.946,12.136 18.228 C 11.854 18.598,11.072 18.823,9.520 18.981 C 8.802 19.053,8.649 19.098,8.446 19.292 C 8.235 19.495,8.148 19.701,8.148 20.000 C 8.148 20.318,8.239 20.515,8.491 20.748 C 8.756 20.992,8.965 21.028,9.763 20.967 C 11.120 20.864,12.339 20.545,12.973 20.128 C 13.257 19.941,13.762 19.446,13.921 19.199 C 14.277 18.643,14.406 17.764,14.236 17.050 C 14.162 16.741,13.941 16.319,13.702 16.030 L 13.479 15.761 13.579 15.601 C 13.860 15.156,13.986 14.384,13.863 13.863 C 13.711 13.217,13.276 12.656,12.688 12.347 C 12.296 12.141,12.091 12.087,11.535 12.041 C 10.955 11.993,10.987 11.991,10.512 12.080 M17.688 12.102 C 16.788 12.345,16.125 12.932,15.776 13.794 C 15.540 14.378,15.480 14.924,15.480 16.480 C 15.480 18.208,15.568 18.798,15.926 19.486 C 16.342 20.286,17.188 20.865,18.088 20.965 C 19.062 21.074,19.915 20.801,20.538 20.183 C 20.860 19.864,21.068 19.540,21.232 19.103 C 21.450 18.524,21.478 18.302,21.506 16.920 C 21.548 14.801,21.436 14.082,20.944 13.322 C 20.551 12.715,19.951 12.280,19.262 12.102 C 18.951 12.021,17.988 12.022,17.688 12.102 M18.920 14.122 C 19.111 14.219,19.258 14.382,19.368 14.620 C 19.460 14.819,19.460 14.827,19.458 16.520 L 19.455 18.220 19.352 18.420 C 19.138 18.834,18.920 18.977,18.500 18.979 C 18.266 18.980,18.190 18.962,18.034 18.871 C 17.809 18.739,17.615 18.460,17.572 18.206 C 17.554 18.104,17.541 17.281,17.542 16.378 L 17.544 14.735 17.666 14.518 C 17.925 14.057,18.458 13.889,18.920 14.122 " fill="#1A1C1F" stroke="none" fill-rule="evenodd"></path></svg>