<svg width="32" height="32" viewBox="0 0 32 32" fill="none" xmlns="http://www.w3.org/2000/svg"><path d="M14.602 8.051 C 14.196 8.130,13.742 8.427,8.907 11.778 C 5.523 14.123,4.861 14.604,4.690 14.840 C 4.263 15.429,4.199 16.210,4.523 16.868 C 4.735 17.299,4.793 17.349,6.293 18.408 C 10.153 21.134,13.681 23.529,14.255 23.813 C 14.649 24.008,14.681 24.014,15.068 23.985 C 15.800 23.930,16.499 23.476,16.794 22.866 C 16.970 22.502,17.009 22.080,17.016 20.453 C 17.020 19.661,17.039 18.898,17.058 18.756 L 17.093 18.499 19.973 20.484 C 24.816 23.823,25.102 24.000,25.633 24.000 C 25.990 24.000,26.525 23.833,26.844 23.622 C 27.144 23.423,27.475 22.979,27.627 22.572 C 27.737 22.281,27.737 22.230,27.721 15.979 L 27.705 9.680 27.589 9.374 C 27.354 8.755,26.986 8.376,26.403 8.153 C 26.062 8.023,25.496 8.001,25.125 8.104 C 24.861 8.176,23.828 8.864,19.795 11.647 C 18.318 12.667,17.095 13.486,17.076 13.467 C 17.058 13.449,17.028 12.566,17.010 11.504 C 16.978 9.676,16.970 9.557,16.857 9.264 C 16.532 8.425,15.510 7.874,14.602 8.051 M14.960 11.482 C 15.006 13.116,14.975 21.843,14.923 21.894 C 14.871 21.947,6.400 16.091,6.400 16.001 C 6.400 15.949,14.793 10.098,14.887 10.085 C 14.906 10.082,14.939 10.711,14.960 11.482 M25.671 12.169 C 25.691 13.318,25.707 15.984,25.707 18.094 C 25.707 21.461,25.697 21.928,25.628 21.901 C 25.524 21.861,24.952 21.477,22.698 19.931 C 18.304 16.919,17.031 16.012,17.103 15.946 C 17.127 15.924,18.155 15.210,19.387 14.360 C 20.619 13.509,22.515 12.199,23.600 11.449 C 24.685 10.699,25.587 10.084,25.605 10.082 C 25.622 10.081,25.652 11.020,25.671 12.169 " fill="#1A1C1F" stroke="none" fill-rule="evenodd"></path></svg>