<svg width="16" height="16" viewBox="0 0 16 16" fill="none" xmlns="http://www.w3.org/2000/svg"><path d="M6.949 4.028 C 6.615 4.084,6.546 4.123,5.493 4.837 C 4.088 5.791,2.698 6.775,2.562 6.911 C 2.300 7.173,2.161 7.506,2.141 7.920 C 2.114 8.459,2.307 8.900,2.705 9.215 C 3.019 9.463,4.620 10.580,5.837 11.398 C 6.654 11.949,6.735 11.984,7.189 11.981 C 7.684 11.979,7.977 11.859,8.321 11.517 C 8.663 11.178,8.797 10.823,8.799 10.248 C 8.800 10.113,8.810 9.997,8.822 9.990 C 8.834 9.982,9.149 10.187,9.522 10.445 C 10.640 11.219,11.472 11.776,11.613 11.846 C 11.835 11.955,11.992 11.987,12.293 11.983 C 12.729 11.978,13.055 11.846,13.371 11.549 C 13.576 11.355,13.716 11.136,13.807 10.869 L 13.880 10.653 13.880 8.000 L 13.879 5.347 13.807 5.131 C 13.524 4.295,12.649 3.830,11.827 4.080 C 11.585 4.153,11.269 4.355,9.725 5.422 C 9.243 5.755,8.838 6.020,8.825 6.012 C 8.811 6.004,8.800 5.887,8.799 5.752 C 8.797 5.119,8.616 4.705,8.199 4.372 C 7.828 4.077,7.385 3.955,6.949 4.028 " fill="#1A1C1F" stroke="none" fill-rule="evenodd"></path></svg>