<svg width="12" height="12" viewBox="0 0 12 12" fill="none" xmlns="http://www.w3.org/2000/svg"><path d="M2.615 3.023 C 2.158 3.080,1.731 3.473,1.617 3.940 C 1.596 4.028,1.591 4.437,1.591 6.000 C 1.592 7.782,1.595 7.961,1.626 8.080 C 1.682 8.289,1.773 8.452,1.921 8.608 C 2.076 8.771,2.214 8.861,2.423 8.935 C 2.550 8.979,2.602 8.986,2.800 8.985 C 2.993 8.984,3.052 8.976,3.163 8.935 C 3.341 8.870,3.440 8.807,4.479 8.092 C 5.070 7.686,5.373 7.489,5.382 7.505 C 5.389 7.519,5.400 7.638,5.407 7.770 C 5.414 7.902,5.434 8.064,5.451 8.130 C 5.583 8.622,6.086 9.000,6.610 9.000 C 6.727 9.000,6.978 8.941,7.106 8.883 C 7.233 8.826,9.243 7.450,9.803 7.036 C 10.152 6.779,10.284 6.607,10.360 6.308 C 10.433 6.023,10.396 5.678,10.266 5.434 C 10.148 5.213,9.931 5.042,8.600 4.119 C 7.842 3.594,7.237 3.189,7.125 3.133 C 6.968 3.053,6.811 3.018,6.600 3.017 C 6.249 3.016,6.004 3.116,5.757 3.363 C 5.505 3.615,5.403 3.884,5.400 4.300 C 5.400 4.394,5.392 4.481,5.383 4.495 C 5.372 4.513,5.199 4.404,4.769 4.108 C 4.065 3.622,3.375 3.159,3.289 3.115 C 3.136 3.035,2.838 2.995,2.615 3.023 " fill="#1A1C1F" stroke="none" fill-rule="evenodd"></path></svg>