<svg width="28" height="28" viewBox="0 0 28 28" fill="none" xmlns="http://www.w3.org/2000/svg"><path d="M12.814 7.049 C 12.486 7.104,12.267 7.231,11.025 8.079 C 6.606 11.098,4.272 12.752,4.103 12.985 C 3.671 13.582,3.672 14.420,4.106 15.019 C 4.250 15.217,4.900 15.693,7.373 17.413 C 11.248 20.107,12.390 20.859,12.757 20.958 C 13.016 21.028,13.449 20.987,13.784 20.860 C 14.110 20.736,14.535 20.338,14.697 20.004 C 14.849 19.688,14.883 19.316,14.889 17.873 C 14.891 17.168,14.908 16.499,14.925 16.388 L 14.957 16.186 17.477 17.924 C 21.715 20.845,21.964 21.000,22.429 21.000 C 22.742 21.000,23.209 20.854,23.488 20.669 C 23.751 20.495,24.041 20.107,24.174 19.750 C 24.270 19.495,24.270 19.454,24.256 13.981 L 24.242 8.470 24.140 8.202 C 23.935 7.662,23.615 7.331,23.102 7.132 C 22.806 7.018,22.316 6.999,21.985 7.091 C 21.753 7.154,20.844 7.759,17.321 10.192 C 16.029 11.084,14.958 11.800,14.941 11.783 C 14.924 11.767,14.898 10.993,14.883 10.065 C 14.857 8.502,14.848 8.358,14.758 8.129 C 14.462 7.376,13.626 6.911,12.814 7.049 M13.090 10.051 C 13.130 11.487,13.102 19.113,13.057 19.159 C 13.011 19.205,5.600 14.079,5.600 14.001 C 5.600 13.955,12.944 8.836,13.026 8.824 C 13.043 8.822,13.071 9.374,13.090 10.051 M22.462 10.718 C 22.479 11.761,22.493 14.095,22.493 15.903 C 22.493 18.905,22.487 19.187,22.418 19.161 C 22.333 19.128,20.952 18.195,18.970 16.831 C 15.822 14.664,14.907 14.006,14.965 13.953 C 14.986 13.934,15.885 13.309,16.963 12.565 C 18.041 11.820,19.700 10.674,20.650 10.018 C 21.600 9.361,22.389 8.823,22.404 8.822 C 22.419 8.821,22.445 9.674,22.462 10.718 " fill="#1A1C1F" stroke="none" fill-rule="evenodd"></path></svg>