<svg width="24" height="24" viewBox="0 0 24 24" fill="none" xmlns="http://www.w3.org/2000/svg"><path d="M9.834 3.062 C 9.574 3.143,9.264 3.432,9.184 3.668 C 9.050 4.060,9.146 4.356,9.554 4.815 C 9.688 4.966,9.789 5.106,9.777 5.125 C 9.765 5.144,9.700 5.160,9.633 5.160 C 9.565 5.160,9.286 5.205,9.011 5.261 C 7.400 5.587,5.949 6.365,4.800 7.520 C 3.604 8.721,2.803 10.349,2.578 12.035 C 2.511 12.538,2.503 13.564,2.562 14.041 C 2.773 15.749,3.512 17.325,4.694 18.588 C 5.076 18.997,5.431 19.135,5.812 19.024 C 6.067 18.949,6.285 18.774,6.430 18.527 C 6.519 18.375,6.540 18.291,6.540 18.080 C 6.540 17.750,6.489 17.647,6.058 17.119 C 5.359 16.261,4.966 15.527,4.701 14.583 C 4.502 13.874,4.497 12.333,4.692 11.640 C 5.274 9.570,6.760 8.001,8.701 7.406 C 9.153 7.267,9.751 7.149,9.905 7.167 C 10.004 7.179,9.995 7.195,9.704 7.520 C 9.295 7.978,9.182 8.207,9.211 8.522 C 9.274 9.223,9.994 9.634,10.630 9.333 C 10.925 9.193,13.148 6.922,13.285 6.620 C 13.368 6.437,13.379 6.088,13.307 5.890 C 13.281 5.819,13.089 5.570,12.881 5.337 C 12.312 4.700,10.731 3.160,10.587 3.101 C 10.376 3.016,10.040 2.998,9.834 3.062 M17.688 12.102 C 16.788 12.345,16.125 12.932,15.776 13.794 C 15.540 14.378,15.480 14.924,15.480 16.480 C 15.480 18.208,15.568 18.798,15.926 19.486 C 16.342 20.286,17.188 20.865,18.088 20.965 C 19.062 21.074,19.915 20.801,20.538 20.183 C 20.860 19.864,21.068 19.540,21.232 19.103 C 21.450 18.524,21.478 18.302,21.506 16.920 C 21.548 14.801,21.436 14.082,20.944 13.322 C 20.551 12.715,19.951 12.280,19.262 12.102 C 18.951 12.021,17.988 12.022,17.688 12.102 M11.200 12.155 C 11.006 12.219,10.812 12.335,9.947 12.911 C 8.663 13.764,8.547 13.890,8.546 14.422 C 8.545 14.836,8.822 15.242,9.190 15.363 C 9.488 15.462,9.945 15.350,10.350 15.079 L 10.480 14.992 10.480 16.996 L 10.480 19.000 9.990 19.002 C 9.720 19.004,9.414 19.019,9.309 19.036 C 9.079 19.074,8.825 19.247,8.661 19.477 C 8.496 19.709,8.471 20.092,8.601 20.395 C 8.709 20.644,8.988 20.905,9.195 20.949 C 9.384 20.989,13.616 20.989,13.805 20.949 C 14.012 20.905,14.291 20.644,14.399 20.395 C 14.529 20.092,14.504 19.709,14.339 19.477 C 14.175 19.247,13.921 19.074,13.691 19.036 C 13.586 19.019,13.271 19.004,12.992 19.002 L 12.484 19.000 12.472 15.910 C 12.459 12.466,12.482 12.734,12.174 12.426 C 12.089 12.342,11.967 12.245,11.902 12.211 C 11.765 12.140,11.347 12.107,11.200 12.155 M18.920 14.122 C 19.111 14.219,19.258 14.382,19.368 14.620 C 19.460 14.819,19.460 14.827,19.458 16.520 L 19.455 18.220 19.352 18.420 C 19.138 18.834,18.920 18.977,18.500 18.979 C 18.266 18.980,18.190 18.962,18.034 18.871 C 17.809 18.739,17.615 18.460,17.572 18.206 C 17.554 18.104,17.541 17.281,17.542 16.378 L 17.544 14.735 17.666 14.518 C 17.925 14.057,18.458 13.889,18.920 14.122 " fill="#1A1C1F" stroke="none" fill-rule="evenodd"></path></svg>