<svg width="16" height="16" viewBox="0 0 16 16" fill="none" xmlns="http://www.w3.org/2000/svg"><path d="M6.916 2.157 C 6.784 2.191,6.599 2.310,6.509 2.418 C 6.400 2.551,6.347 2.720,6.347 2.931 C 6.348 3.174,6.407 3.287,6.682 3.573 C 6.810 3.705,6.910 3.818,6.904 3.822 C 6.898 3.827,6.783 3.845,6.649 3.862 C 4.932 4.083,3.309 5.252,2.513 6.842 C 2.117 7.632,1.935 8.412,1.935 9.320 C 1.936 10.762,2.437 12.133,3.037 12.332 C 3.509 12.489,4.053 12.101,4.053 11.609 C 4.053 11.533,3.985 11.302,3.856 10.940 C 3.624 10.288,3.529 9.925,3.494 9.560 C 3.446 9.062,3.551 8.356,3.745 7.870 C 4.172 6.805,5.022 5.981,6.107 5.585 C 6.285 5.520,6.746 5.405,6.960 5.372 L 7.080 5.353 6.785 5.658 C 6.599 5.850,6.464 6.016,6.418 6.106 C 6.230 6.484,6.412 6.945,6.819 7.125 C 6.994 7.203,7.310 7.200,7.468 7.120 C 7.689 7.007,9.506 5.164,9.595 4.962 C 9.652 4.833,9.651 4.469,9.594 4.360 C 9.541 4.260,8.127 2.793,7.760 2.458 C 7.611 2.322,7.459 2.199,7.423 2.185 C 7.328 2.149,7.015 2.132,6.916 2.157 " fill="#1A1C1F" stroke="none" fill-rule="evenodd"></path></svg>