<svg width="20" height="20" viewBox="0 0 20 20" fill="none" xmlns="http://www.w3.org/2000/svg"><path d="M8.700 2.599 C 8.267 2.682,7.928 3.104,7.921 3.567 C 7.916 3.848,8.021 4.045,8.373 4.417 L 8.630 4.689 8.190 4.764 C 6.251 5.098,4.617 6.157,3.530 7.783 C 3.084 8.450,2.708 9.378,2.532 10.244 C 2.193 11.912,2.630 14.286,3.422 15.078 C 3.724 15.380,3.961 15.449,4.326 15.338 C 4.732 15.215,5.025 14.881,5.055 14.508 C 5.069 14.337,5.049 14.254,4.865 13.733 C 4.389 12.383,4.347 12.176,4.377 11.319 C 4.398 10.710,4.455 10.384,4.618 9.933 C 4.743 9.588,5.006 9.068,5.217 8.750 C 5.845 7.805,7.020 6.999,8.150 6.741 C 8.505 6.659,8.800 6.618,8.800 6.650 C 8.800 6.662,8.634 6.844,8.431 7.054 C 8.006 7.493,7.921 7.644,7.923 7.952 C 7.925 8.207,8.014 8.414,8.200 8.600 C 8.407 8.807,8.595 8.881,8.917 8.881 C 9.342 8.881,9.368 8.863,10.401 7.846 C 11.420 6.842,11.892 6.336,11.986 6.145 C 12.075 5.965,12.074 5.535,11.985 5.350 C 11.888 5.149,9.495 2.766,9.300 2.676 C 9.132 2.599,8.875 2.566,8.700 2.599 M8.265 10.401 C 7.788 10.468,7.090 10.729,6.783 10.956 C 6.480 11.181,6.354 11.658,6.498 12.039 C 6.580 12.256,6.765 12.463,6.974 12.572 C 7.087 12.631,7.169 12.646,7.367 12.644 C 7.580 12.642,7.677 12.619,8.028 12.486 C 8.512 12.303,8.794 12.261,8.963 12.348 C 9.036 12.386,9.066 12.421,9.053 12.455 C 9.042 12.483,9.033 12.511,9.033 12.519 C 9.033 12.565,8.631 12.720,8.209 12.837 C 7.658 12.990,7.439 13.092,7.315 13.255 C 6.973 13.703,7.133 14.357,7.655 14.640 C 7.906 14.776,8.008 14.782,8.473 14.686 C 8.703 14.639,8.953 14.600,9.029 14.600 C 9.372 14.600,9.428 14.999,9.108 15.163 C 8.820 15.309,8.386 15.395,7.483 15.483 C 6.880 15.543,6.744 15.590,6.548 15.806 C 6.091 16.312,6.247 17.070,6.864 17.343 C 7.066 17.432,7.375 17.450,7.854 17.401 C 8.758 17.309,9.362 17.156,9.933 16.875 C 10.268 16.711,10.353 16.650,10.603 16.402 C 10.761 16.245,10.931 16.045,10.982 15.958 C 11.206 15.570,11.332 14.955,11.264 14.582 C 11.191 14.179,10.906 13.751,10.568 13.534 C 10.475 13.475,10.400 13.419,10.400 13.409 C 10.400 13.400,10.485 13.301,10.589 13.188 C 10.692 13.076,10.824 12.887,10.880 12.767 C 10.973 12.572,10.983 12.520,10.980 12.250 C 10.976 11.910,10.875 11.580,10.684 11.283 C 10.434 10.897,9.950 10.558,9.492 10.450 C 9.228 10.388,8.551 10.361,8.265 10.401 M14.394 10.468 C 13.558 10.585,12.831 11.152,12.444 11.990 C 12.275 12.355,12.240 12.582,12.216 13.462 C 12.179 14.785,12.251 15.310,12.549 15.899 C 13.128 17.040,14.497 17.549,15.790 17.103 C 16.679 16.797,17.236 16.173,17.503 15.183 C 17.643 14.667,17.618 12.810,17.465 12.317 C 17.296 11.773,16.999 11.310,16.628 11.014 C 16.337 10.782,16.158 10.685,15.797 10.564 C 15.528 10.474,15.433 10.459,15.053 10.449 C 14.813 10.442,14.516 10.451,14.394 10.468 M15.177 12.415 C 15.344 12.475,15.424 12.550,15.520 12.741 C 15.598 12.895,15.600 12.915,15.600 13.791 C 15.600 14.715,15.584 14.848,15.458 15.034 C 15.251 15.339,14.641 15.391,14.371 15.128 C 14.195 14.955,14.184 14.876,14.183 13.800 C 14.183 12.843,14.185 12.813,14.259 12.676 C 14.399 12.412,14.828 12.291,15.177 12.415 " fill="#1A1C1F" stroke="none" fill-rule="evenodd"></path></svg>