<svg width="12" height="12" viewBox="0 0 12 12" fill="none" xmlns="http://www.w3.org/2000/svg"><path d="M5.180 1.606 C 4.835 1.702,4.646 2.098,4.799 2.404 C 4.824 2.455,4.917 2.576,5.005 2.673 L 5.165 2.850 5.077 2.866 C 4.475 2.974,4.143 3.075,3.750 3.269 C 2.411 3.931,1.568 5.185,1.438 6.707 C 1.365 7.558,1.642 8.683,2.025 9.092 C 2.165 9.242,2.259 9.285,2.446 9.284 C 2.613 9.284,2.760 9.219,2.870 9.097 C 3.045 8.904,3.065 8.721,2.950 8.396 C 2.628 7.495,2.612 7.431,2.614 6.980 C 2.615 6.331,2.750 5.857,3.069 5.381 C 3.443 4.824,3.989 4.391,4.591 4.174 C 4.728 4.125,5.162 4.020,5.227 4.020 C 5.291 4.020,5.258 4.069,5.054 4.278 C 4.931 4.405,4.828 4.530,4.799 4.590 C 4.638 4.920,4.872 5.319,5.263 5.382 C 5.419 5.407,5.529 5.383,5.657 5.295 C 5.766 5.220,6.756 4.248,6.996 3.980 C 7.211 3.740,7.248 3.661,7.236 3.472 C 7.231 3.394,7.210 3.294,7.189 3.250 C 7.139 3.143,5.675 1.672,5.579 1.633 C 5.476 1.590,5.284 1.578,5.180 1.606 " fill="#1A1C1F" stroke="none" fill-rule="evenodd"></path></svg>