<svg width="20" height="20" viewBox="0 0 20 20" fill="none" xmlns="http://www.w3.org/2000/svg"><path d="M8.642 2.700 C 8.376 2.756,8.106 3.003,7.971 3.315 C 7.906 3.467,7.919 3.841,7.996 4.015 C 8.033 4.099,8.187 4.294,8.352 4.465 C 8.542 4.662,8.626 4.771,8.596 4.781 C 8.571 4.790,8.424 4.814,8.269 4.834 C 6.744 5.035,5.130 5.924,4.084 7.140 C 3.682 7.606,3.437 7.977,3.143 8.560 C 2.383 10.066,2.211 11.734,2.637 13.464 C 2.971 14.821,3.504 15.524,4.148 15.457 C 4.618 15.409,5.064 14.983,5.066 14.582 C 5.067 14.397,5.003 14.169,4.783 13.566 C 4.422 12.577,4.314 11.969,4.371 11.250 C 4.550 8.990,6.138 7.234,8.426 6.768 C 8.610 6.731,8.779 6.700,8.801 6.700 C 8.824 6.700,8.678 6.869,8.478 7.077 C 8.035 7.534,7.933 7.712,7.933 8.033 C 7.933 8.458,8.205 8.805,8.640 8.938 C 8.908 9.019,9.087 9.005,9.359 8.882 C 9.499 8.819,9.675 8.662,10.206 8.126 C 11.196 7.128,11.937 6.333,11.985 6.218 C 12.057 6.045,12.075 5.818,12.033 5.617 C 11.998 5.448,11.962 5.390,11.722 5.121 C 11.210 4.548,9.445 2.802,9.329 2.753 C 9.180 2.692,8.819 2.664,8.642 2.700 " fill="#1A1C1F" stroke="none" fill-rule="evenodd"></path></svg>