<svg width="16" height="16" viewBox="0 0 16 16" fill="none" xmlns="http://www.w3.org/2000/svg"><path d="M6.867 2.169 C 6.528 2.301,6.338 2.566,6.336 2.907 C 6.335 3.161,6.408 3.303,6.681 3.574 C 6.805 3.698,6.907 3.808,6.907 3.819 C 6.907 3.831,6.868 3.840,6.820 3.840 C 6.697 3.840,6.325 3.908,6.023 3.986 C 4.634 4.345,3.390 5.296,2.667 6.551 C 2.039 7.640,1.803 8.888,1.987 10.149 C 2.153 11.292,2.539 12.125,2.991 12.319 C 3.458 12.520,4.057 12.124,4.057 11.614 C 4.057 11.502,4.015 11.359,3.858 10.942 C 3.471 9.911,3.404 9.428,3.537 8.613 C 3.770 7.190,4.842 5.973,6.249 5.534 C 6.511 5.452,6.942 5.360,7.062 5.360 C 7.085 5.360,6.970 5.487,6.806 5.641 C 6.443 5.985,6.331 6.175,6.337 6.439 C 6.341 6.641,6.397 6.770,6.549 6.933 C 6.716 7.112,6.892 7.186,7.147 7.184 C 7.490 7.182,7.493 7.180,8.560 6.099 C 9.163 5.488,9.531 5.096,9.573 5.017 C 9.664 4.847,9.669 4.495,9.582 4.333 C 9.550 4.275,9.076 3.775,8.529 3.222 C 7.630 2.315,7.521 2.214,7.402 2.176 C 7.250 2.127,6.983 2.123,6.867 2.169 " fill="#1A1C1F" stroke="none" fill-rule="evenodd"></path></svg>