<svg xmlns="http://www.w3.org/2000/svg" width="16" height="16" fill="none"><g clip-path="url(#a)"><path fill="#1A1C1F" fill-rule="evenodd" d="M3.237 12.312c.515 0 .828-.437.828-.765 0-.375-.594-1.28-.594-2.296 0-2.155 1.64-3.779 3.639-3.966l-.547.515c-.125.156-.234.36-.234.562 0 .406.375.766.796.766a.82.82 0 0 0 .574-.224l1.742-1.756a.81.81 0 0 0 .158-.845.7.7 0 0 0-.162-.236l-1.766-1.78a.75.75 0 0 0-.546-.235.8.8 0 0 0-.796.796c0 .203.078.39.234.547l.36.36A5.503 5.503 0 0 0 1.925 9.25c0 1.11.422 3.062 1.312 3.062M7.055 8.28c1.009 0 1.74.662 1.74 1.573q0 .496-.504.867c.46.256.738.646.738 1.105 0 1.97-2.402 2.084-3.19 2.123H5.8a.777.777 0 0 1-.037-1.554c1.123-.054 1.71-.22 1.71-.492 0-.11-.069-.23-.217-.23-.404 0-.56.135-.803.135a.784.784 0 0 1-.756-.773c0-.333.243-.626.602-.7.596-.12.964-.26.964-.372 0-.059-.072-.127-.242-.127-.47 0-.762.3-1.127.3-.396 0-.758-.353-.758-.779a.78.78 0 0 1 .433-.696c.527-.26 1-.38 1.486-.38m4.865.051c1.28 0 2.155.906 2.155 2.296v.874c0 1.406-.906 2.312-2.233 2.312-1.203 0-2.077-.922-2.077-2.28v-.969c0-1.327.906-2.233 2.155-2.233m-.015 1.558c-.344.01-.579.097-.579.66v.983c0 .547.172.714.594.706.375-.007.578-.19.578-.752v-.875c0-.656-.312-.729-.593-.722" clip-rule="evenodd"/></g><defs><clipPath id="a"><path fill="#fff" d="M0 0h16v16H0z"/></clipPath></defs></svg>