<svg width="16" height="16" viewBox="0 0 16 16" fill="none" xmlns="http://www.w3.org/2000/svg"><path d="M7.000 4.019 C 6.860 4.037,6.633 4.109,6.495 4.179 C 6.146 4.356,2.776 6.697,2.561 6.912 C 2.426 7.047,2.276 7.291,2.208 7.488 C 2.157 7.638,2.147 7.721,2.147 8.000 C 2.147 8.386,2.198 8.581,2.371 8.845 C 2.510 9.058,2.610 9.150,3.034 9.458 C 3.752 9.980,6.233 11.684,6.454 11.808 C 6.682 11.935,6.882 11.982,7.200 11.983 C 7.673 11.984,7.985 11.855,8.320 11.520 C 8.658 11.182,8.767 10.911,8.792 10.352 C 8.801 10.158,8.816 9.993,8.826 9.987 C 8.836 9.981,9.246 10.252,9.736 10.591 C 11.134 11.557,11.591 11.852,11.787 11.918 C 12.459 12.143,13.229 11.865,13.623 11.255 C 13.898 10.831,13.902 10.775,13.888 7.735 L 13.876 5.320 13.816 5.147 C 13.717 4.862,13.597 4.666,13.407 4.476 C 12.971 4.039,12.266 3.890,11.707 4.116 C 11.548 4.180,10.991 4.547,9.684 5.449 C 9.224 5.766,8.837 6.019,8.824 6.011 C 8.811 6.003,8.800 5.887,8.799 5.752 C 8.797 5.119,8.616 4.705,8.199 4.372 C 7.847 4.092,7.412 3.964,7.000 4.019 M7.193 8.000 C 7.193 8.990,7.186 9.929,7.177 10.087 L 7.160 10.374 6.013 9.584 C 4.291 8.398,3.760 8.025,3.760 8.001 C 3.760 7.976,4.168 7.690,5.932 6.475 L 7.160 5.629 7.177 5.915 C 7.186 6.072,7.193 7.010,7.193 8.000 M12.249 5.857 C 12.271 6.118,12.267 9.831,12.244 10.137 L 12.227 10.368 11.760 10.046 C 10.489 9.171,8.853 8.019,8.853 7.999 C 8.853 7.975,10.069 7.119,11.333 6.253 C 11.737 5.976,12.097 5.729,12.133 5.703 C 12.170 5.676,12.207 5.655,12.216 5.654 C 12.225 5.654,12.240 5.745,12.249 5.857 " fill="#1A1C1F" stroke="none" fill-rule="evenodd"></path></svg>