<svg width="14" height="14" viewBox="0 0 14 14" fill="none" xmlns="http://www.w3.org/2000/svg"><path d="M6.036 1.892 C 5.857 1.934,5.672 2.108,5.580 2.320 C 5.534 2.427,5.543 2.689,5.597 2.811 C 5.623 2.869,5.731 3.006,5.846 3.125 C 5.980 3.264,6.038 3.340,6.017 3.347 C 5.999 3.353,5.896 3.370,5.788 3.384 C 5.346 3.442,4.814 3.613,4.352 3.843 C 2.931 4.553,1.992 5.849,1.735 7.455 C 1.679 7.806,1.678 8.500,1.734 8.867 C 1.878 9.818,2.192 10.533,2.561 10.750 C 2.714 10.840,2.965 10.843,3.138 10.758 C 3.301 10.677,3.460 10.512,3.508 10.373 C 3.574 10.179,3.560 10.092,3.382 9.595 C 3.016 8.572,2.965 8.108,3.137 7.347 C 3.395 6.203,4.251 5.268,5.407 4.868 C 5.614 4.796,6.071 4.690,6.173 4.690 C 6.192 4.690,6.088 4.808,5.942 4.953 C 5.623 5.269,5.553 5.390,5.553 5.623 C 5.553 5.921,5.743 6.164,6.048 6.256 C 6.236 6.314,6.361 6.304,6.554 6.217 C 6.654 6.171,6.775 6.063,7.170 5.664 C 7.881 4.946,8.355 4.435,8.396 4.341 C 8.445 4.229,8.444 3.909,8.395 3.815 C 8.348 3.726,7.086 2.420,6.768 2.131 C 6.567 1.948,6.515 1.913,6.415 1.892 C 6.279 1.863,6.161 1.863,6.036 1.892 M9.847 7.439 C 9.505 7.553,9.386 7.624,9.141 7.861 C 8.823 8.167,8.729 8.329,8.604 8.785 C 8.555 8.960,8.552 9.018,8.553 9.742 C 8.554 10.503,8.555 10.514,8.617 10.744 C 8.808 11.452,9.267 11.925,9.923 12.091 C 10.176 12.155,10.699 12.142,10.964 12.065 C 11.620 11.874,12.054 11.417,12.245 10.715 C 12.305 10.491,12.306 10.478,12.305 9.730 C 12.305 9.030,12.301 8.958,12.255 8.791 C 12.142 8.379,12.011 8.139,11.760 7.886 C 11.559 7.682,11.338 7.543,11.072 7.452 C 10.900 7.393,10.850 7.388,10.465 7.380 C 10.055 7.373,10.040 7.374,9.847 7.439 M6.370 7.441 C 6.269 7.458,6.201 7.495,5.862 7.715 C 5.435 7.992,5.256 8.133,5.206 8.231 C 5.147 8.347,5.109 8.559,5.126 8.672 C 5.172 8.965,5.476 9.240,5.756 9.240 L 5.810 9.240 5.810 10.010 C 5.810 10.632,5.804 10.780,5.779 10.780 C 5.762 10.780,5.696 10.796,5.631 10.815 C 5.482 10.859,5.314 11.005,5.232 11.162 C 5.179 11.263,5.169 11.311,5.169 11.468 C 5.169 11.690,5.210 11.791,5.362 11.943 C 5.545 12.126,5.602 12.140,6.242 12.151 C 6.550 12.157,6.935 12.151,7.098 12.138 C 7.351 12.119,7.410 12.107,7.498 12.055 C 7.864 11.840,7.950 11.341,7.674 11.028 C 7.571 10.910,7.413 10.817,7.273 10.791 C 7.225 10.782,7.185 10.773,7.182 10.772 C 7.180 10.770,7.171 10.128,7.163 9.345 C 7.153 8.359,7.140 7.896,7.121 7.838 C 7.034 7.575,6.680 7.387,6.370 7.441 M10.686 8.768 C 10.731 8.790,10.797 8.852,10.834 8.904 C 10.898 8.996,10.902 9.019,10.924 9.371 C 10.949 9.761,10.935 10.217,10.894 10.410 C 10.845 10.636,10.675 10.755,10.400 10.756 C 10.199 10.757,10.101 10.715,10.011 10.592 L 9.940 10.493 9.940 9.749 C 9.940 8.950,9.942 8.938,10.063 8.825 C 10.140 8.752,10.222 8.731,10.430 8.729 C 10.553 8.727,10.629 8.739,10.686 8.768 " fill="#1A1C1F" stroke="none" fill-rule="evenodd"></path></svg>