<svg xmlns="http://www.w3.org/2000/svg" width="20" height="20" fill="none"><g clip-path="url(#a)"><path fill="#1A1C1F" fill-rule="evenodd" d="M16.193 15.358c-.644 0-1.034-.546-1.034-.957 0-.469.741-1.6.741-2.87 0-2.693-2.05-4.724-4.548-4.958l.683.644c.156.196.293.45.293.704 0 .506-.468.955-.996.955a1.03 1.03 0 0 1-.716-.277L8.438 6.401a1 1 0 0 1-.268-.708.9.9 0 0 1 .273-.643l2.207-2.226a.94.94 0 0 1 .682-.292 1 1 0 0 1 .996.994.95.95 0 0 1-.293.684l-.449.45a6.88 6.88 0 0 1 6.247 6.87l-.008.313c-.07 1.41-.599 3.514-1.632 3.514M4.71 10.383c1.261 0 2.176.827 2.176 1.966q0 .619-.63 1.083c.573.32.92.807.92 1.381 0 2.461-3 2.606-3.987 2.655h-.048a.972.972 0 0 1-.046-1.944c1.404-.066 2.138-.274 2.138-.613 0-.137-.086-.288-.272-.288-.505 0-.699.168-1.004.168-.487 0-.945-.434-.945-.966 0-.416.304-.782.753-.874.745-.152 1.205-.325 1.205-.466 0-.073-.09-.16-.303-.16-.588 0-.951.377-1.408.377-.496 0-.948-.443-.948-.975 0-.353.199-.7.542-.87.658-.323 1.249-.474 1.857-.474m6.054-.002c1.6 0 2.694 1.131 2.694 2.87v1.092c0 1.756-1.133 2.89-2.792 2.89-1.503 0-2.596-1.152-2.596-2.85v-1.211c0-1.66 1.132-2.792 2.694-2.792m-.02 1.947-.084.004c-.383.023-.638.164-.638.82v1.23c0 .684.215.893.742.883.468-.01.722-.24.722-.942V13.23c0-.82-.39-.912-.742-.902" clip-rule="evenodd"/></g><defs><clipPath id="a"><path fill="#fff" d="M0 0h20v20H0z"/></clipPath></defs></svg>