<svg xmlns="http://www.w3.org/2000/svg" width="12" height="12" fill="none"><g clip-path="url(#a)"><path fill="#1A1C1F" fill-rule="evenodd" d="M2.416 9.245c.388 0 .623-.33.623-.576 0-.282-.448-.964-.448-1.727 0-1.622 1.234-2.844 2.74-2.985l-.413.387c-.094.118-.176.27-.176.423 0 .306.282.576.6.576a.62.62 0 0 0 .43-.168l1.313-1.32a.61.61 0 0 0 .118-.637.5.5 0 0 0-.122-.178L5.754 1.7a.57.57 0 0 0-.41-.176c-.33 0-.6.27-.6.6a.57.57 0 0 0 .175.41l.27.27a4.14 4.14 0 0 0-3.76 4.138c0 .834.318 2.303.988 2.303M5.29 6.21c.758 0 1.31.498 1.31 1.183q-.001.375-.38.653c.345.193.554.486.554.831 0 1.482-1.807 1.57-2.4 1.598h-.03a.585.585 0 1 1-.028-1.17c.846-.04 1.288-.165 1.288-.37 0-.082-.053-.173-.163-.173-.304 0-.421.102-.606.102a.59.59 0 0 1-.569-.582c0-.25.183-.47.454-.526.449-.092.726-.196.726-.28 0-.045-.055-.096-.183-.096-.353 0-.572.226-.848.226a.59.59 0 0 1-.57-.586c0-.213.12-.422.325-.524.397-.195.753-.286 1.12-.286m3.66.038c.964 0 1.622.682 1.622 1.728v.658c0 1.057-.682 1.74-1.68 1.74-.905 0-1.564-.694-1.564-1.717V7.93c0-1 .681-1.68 1.622-1.68zm-.012 1.173c-.258.006-.434.073-.434.496v.74c0 .412.129.538.446.531.282-.005.434-.143.434-.566v-.658c0-.494-.235-.549-.447-.543" clip-rule="evenodd"/></g><defs><clipPath id="a"><path fill="#fff" d="M0 0h12v12H0z"/></clipPath></defs></svg>