<svg xmlns="http://www.w3.org/2000/svg" width="32" height="32" fill="none"><g clip-path="url(#a)"><path fill="#1A1C1F" fill-rule="evenodd" d="M25.704 8a2 2 0 0 1 2 2v12a2.001 2.001 0 0 1-3.135 1.647l-7.57-5.218V22a2.001 2.001 0 0 1-3.134 1.647l-8.703-6a2 2 0 0 1 0-3.294l8.703-6A2.002 2.002 0 0 1 17 10v3.571l7.569-5.218c.34-.234.737-.353 1.135-.353M15 10l-8.703 6L15 22zm10.704 0L17 16l8.704 6z" clip-rule="evenodd"/></g><defs><clipPath id="a"><path fill="#fff" d="M0 0h32v32H0z"/></clipPath></defs></svg>