<svg width="20" height="20" viewBox="0 0 20 20" fill="none" xmlns="http://www.w3.org/2000/svg"><path d="M10.525 2.712 C 10.382 2.766,10.367 2.776,10.054 3.050 C 9.672 3.384,7.874 5.259,7.775 5.427 C 7.699 5.557,7.683 5.622,7.683 5.817 C 7.683 6.244,7.716 6.288,9.064 7.637 C 10.401 8.975,10.412 8.984,10.826 8.977 C 11.226 8.972,11.541 8.770,11.739 8.393 C 11.794 8.288,11.814 8.193,11.815 8.033 C 11.816 7.735,11.705 7.543,11.270 7.092 C 11.079 6.894,10.932 6.723,10.943 6.712 C 10.973 6.682,11.642 6.827,11.976 6.936 C 12.729 7.183,13.330 7.559,13.936 8.164 C 14.903 9.132,15.375 10.260,15.373 11.600 C 15.373 12.220,15.303 12.564,15.012 13.391 C 14.616 14.519,14.606 14.578,14.775 14.904 C 14.967 15.274,15.364 15.497,15.757 15.456 C 16.317 15.399,16.773 14.732,17.083 13.519 C 17.447 12.091,17.410 10.794,16.966 9.458 C 16.417 7.806,15.325 6.493,13.775 5.620 C 13.065 5.220,12.092 4.899,11.342 4.816 C 11.227 4.804,11.133 4.778,11.133 4.759 C 11.133 4.741,11.263 4.589,11.421 4.423 C 11.579 4.257,11.728 4.075,11.751 4.019 C 11.937 3.572,11.727 3.000,11.297 2.782 C 11.091 2.677,10.709 2.643,10.525 2.712 " fill="#1A1C1F" stroke="none" fill-rule="evenodd"></path></svg>