<svg xmlns="http://www.w3.org/2000/svg" width="32" height="32" fill="none"><g clip-path="url(#a)"><path fill="#1A1C1F" fill-rule="evenodd" d="M17 8c.398 0 .795.12 1.135.353l8.703 6a2 2 0 0 1 0 3.294l-8.703 6A2.003 2.003 0 0 1 15 22v-3.57l-7.568 5.217a2.003 2.003 0 0 1-2.847-.612A2 2 0 0 1 4.297 22V10a2.001 2.001 0 0 1 3.135-1.647L15 13.571v-3.57a2 2 0 0 1 2-2m0 2v12l8.703-6zM6.297 10v12L15 16z" clip-rule="evenodd"/></g><defs><clipPath id="a"><path fill="#fff" d="M0 0h32v32H0z"/></clipPath></defs></svg>