<svg width="24" height="24" viewBox="0 0 24 24" fill="none" xmlns="http://www.w3.org/2000/svg"><path d="M9.835 3.053 C 9.486 3.184,9.245 3.422,9.159 3.723 C 9.051 4.098,9.158 4.395,9.547 4.802 C 9.858 5.128,9.862 5.160,9.592 5.160 C 9.525 5.160,9.243 5.206,8.965 5.262 C 6.531 5.753,4.431 7.352,3.346 9.540 C 2.769 10.703,2.511 11.806,2.512 13.100 C 2.513 14.698,2.945 16.149,3.817 17.480 C 4.102 17.916,4.575 18.494,4.869 18.768 C 5.314 19.181,5.896 19.161,6.293 18.720 C 6.577 18.403,6.638 18.019,6.460 17.660 C 6.406 17.550,6.233 17.316,6.075 17.140 C 5.354 16.332,4.842 15.318,4.612 14.240 C 4.509 13.756,4.509 12.444,4.613 11.960 C 4.960 10.331,5.933 8.909,7.304 8.032 C 8.006 7.582,8.974 7.249,9.872 7.147 C 10.075 7.124,10.090 7.095,9.631 7.603 C 9.279 7.993,9.200 8.149,9.201 8.449 C 9.203 8.839,9.419 9.174,9.780 9.345 C 10.030 9.463,10.285 9.467,10.578 9.357 C 10.778 9.283,10.910 9.161,12.004 8.047 C 12.765 7.272,13.237 6.761,13.284 6.660 C 13.387 6.439,13.384 6.037,13.277 5.800 C 13.176 5.577,10.867 3.239,10.621 3.112 C 10.422 3.009,10.032 2.979,9.835 3.053 " fill="#1A1C1F" stroke="none" fill-rule="evenodd"></path></svg>