<svg width="12" height="12" viewBox="0 0 12 12" fill="none" xmlns="http://www.w3.org/2000/svg"><path d="M6.340 1.597 C 6.312 1.607,6.263 1.628,6.230 1.646 C 6.146 1.690,4.693 3.154,4.647 3.240 C 4.589 3.349,4.595 3.640,4.657 3.760 C 4.688 3.819,4.955 4.102,5.426 4.574 C 6.233 5.384,6.236 5.386,6.490 5.388 C 6.673 5.389,6.804 5.331,6.936 5.192 C 7.110 5.008,7.141 4.808,7.033 4.571 C 6.992 4.480,6.930 4.406,6.755 4.238 C 6.497 3.989,6.496 3.990,6.839 4.060 C 7.118 4.117,7.316 4.185,7.590 4.321 C 8.424 4.733,8.997 5.477,9.194 6.400 C 9.222 6.531,9.230 6.660,9.230 6.960 C 9.230 7.320,9.226 7.367,9.175 7.568 C 9.144 7.688,9.059 7.945,8.987 8.138 C 8.850 8.502,8.801 8.658,8.800 8.734 C 8.800 8.818,8.881 8.996,8.961 9.087 C 9.100 9.245,9.352 9.331,9.532 9.282 C 9.730 9.229,9.914 9.036,10.059 8.732 C 10.312 8.198,10.459 7.315,10.401 6.670 C 10.310 5.647,9.903 4.761,9.201 4.059 C 8.569 3.428,7.767 3.020,6.904 2.889 C 6.797 2.873,6.697 2.860,6.681 2.860 C 6.666 2.860,6.730 2.781,6.824 2.685 C 6.918 2.589,7.015 2.470,7.040 2.421 C 7.177 2.150,7.059 1.804,6.779 1.651 C 6.696 1.606,6.641 1.592,6.531 1.587 C 6.454 1.584,6.367 1.588,6.340 1.597 " fill="#1A1C1F" stroke="none" fill-rule="evenodd"></path></svg>