<svg width="14" height="14" viewBox="0 0 14 14" fill="none" xmlns="http://www.w3.org/2000/svg"><path d="M7.782 1.794 C 7.743 1.804,7.676 1.831,7.633 1.853 C 7.462 1.942,5.919 3.514,5.795 3.725 C 5.713 3.865,5.706 4.114,5.781 4.259 C 5.856 4.405,6.122 4.693,6.875 5.440 C 7.531 6.092,7.579 6.134,7.698 6.169 C 7.971 6.250,8.235 6.188,8.423 5.999 C 8.574 5.847,8.621 5.740,8.621 5.542 C 8.620 5.306,8.570 5.215,8.261 4.893 C 7.964 4.585,7.963 4.590,8.318 4.665 C 9.201 4.853,9.936 5.309,10.432 5.978 C 10.843 6.532,11.054 7.090,11.109 7.771 C 11.155 8.333,11.098 8.670,10.830 9.406 C 10.669 9.851,10.617 10.021,10.617 10.095 C 10.617 10.124,10.638 10.207,10.665 10.278 C 10.781 10.588,11.164 10.812,11.448 10.736 C 11.913 10.611,12.279 9.883,12.441 8.762 C 12.486 8.450,12.479 7.586,12.429 7.292 C 12.102 5.384,10.707 3.865,8.855 3.400 C 8.675 3.354,8.442 3.305,8.336 3.289 C 8.230 3.274,8.143 3.258,8.143 3.254 C 8.143 3.250,8.232 3.151,8.339 3.034 C 8.556 2.799,8.606 2.715,8.626 2.546 C 8.662 2.237,8.456 1.914,8.167 1.825 C 8.049 1.789,7.863 1.774,7.782 1.794 M2.916 7.304 C 2.581 7.351,2.093 7.534,1.878 7.693 C 1.675 7.844,1.587 8.148,1.670 8.415 C 1.729 8.604,1.922 8.800,2.100 8.853 C 2.300 8.912,2.372 8.901,2.811 8.739 C 3.151 8.614,3.426 8.604,3.468 8.716 C 3.504 8.808,3.347 8.884,2.837 9.022 C 2.670 9.067,2.494 9.124,2.446 9.148 C 1.927 9.413,2.073 10.203,2.665 10.335 C 2.756 10.356,2.823 10.350,3.067 10.302 C 3.228 10.270,3.401 10.243,3.453 10.243 C 3.613 10.243,3.701 10.382,3.630 10.521 C 3.545 10.685,3.163 10.788,2.379 10.859 C 1.901 10.902,1.733 10.980,1.601 11.222 C 1.423 11.550,1.553 11.987,1.876 12.145 C 2.038 12.224,2.260 12.242,2.627 12.204 C 3.261 12.140,3.683 12.033,4.083 11.836 C 4.318 11.721,4.377 11.679,4.552 11.505 C 4.764 11.293,4.866 11.137,4.944 10.906 C 5.137 10.329,4.990 9.818,4.540 9.508 C 4.468 9.459,4.410 9.412,4.410 9.404 C 4.410 9.396,4.443 9.358,4.483 9.320 C 4.726 9.092,4.850 8.807,4.822 8.537 C 4.801 8.340,4.694 8.040,4.585 7.877 C 4.431 7.644,4.081 7.411,3.778 7.339 C 3.592 7.295,3.119 7.275,2.916 7.304 M7.172 7.302 C 6.999 7.329,6.827 7.389,6.615 7.498 C 6.364 7.626,6.046 7.940,5.918 8.185 C 5.713 8.580,5.647 8.915,5.648 9.555 C 5.649 10.395,5.704 10.745,5.896 11.110 C 6.023 11.354,6.328 11.682,6.564 11.827 C 6.687 11.903,6.948 11.995,7.140 12.030 C 7.371 12.072,7.602 12.071,7.848 12.028 C 8.639 11.890,9.153 11.402,9.372 10.582 C 9.410 10.437,9.415 10.329,9.413 9.637 C 9.411 8.860,9.411 8.854,9.349 8.645 C 9.221 8.215,9.007 7.884,8.710 7.654 C 8.531 7.516,8.270 7.386,8.078 7.339 C 7.918 7.300,7.339 7.277,7.172 7.302 M7.811 8.701 C 7.944 8.768,8.000 8.884,8.031 9.154 C 8.059 9.399,8.039 10.232,8.001 10.368 C 7.934 10.613,7.640 10.743,7.338 10.661 C 7.225 10.630,7.152 10.566,7.086 10.442 C 7.040 10.353,7.037 10.313,7.036 9.660 C 7.035 8.994,7.037 8.968,7.087 8.866 C 7.140 8.758,7.232 8.687,7.360 8.654 C 7.480 8.623,7.705 8.646,7.811 8.701 " fill="#1A1C1F" stroke="none" fill-rule="evenodd"></path></svg>