<svg width="32" height="32" viewBox="0 0 32 32" fill="none" xmlns="http://www.w3.org/2000/svg"><path d="M14.229 5.066 C 13.664 5.236,13.391 5.885,13.661 6.414 C 13.723 6.537,14.059 6.928,14.407 7.283 C 14.755 7.638,15.040 7.957,15.040 7.991 C 15.040 8.033,14.916 8.053,14.665 8.053 C 12.898 8.053,10.632 8.757,9.040 9.800 C 6.201 11.660,4.431 14.553,4.054 17.947 C 3.883 19.488,4.132 21.316,4.728 22.907 C 5.071 23.821,5.764 25.029,6.394 25.813 C 6.906 26.450,7.256 26.640,7.683 26.512 C 8.113 26.383,8.423 25.963,8.425 25.504 C 8.427 25.224,8.342 25.054,7.935 24.518 C 7.044 23.347,6.414 21.970,6.164 20.647 C 6.046 20.022,6.046 17.898,6.164 17.275 C 6.359 16.250,6.889 14.972,7.513 14.027 C 7.863 13.497,8.625 12.650,9.169 12.187 C 10.282 11.238,11.714 10.525,13.079 10.240 C 13.595 10.132,14.580 10.028,15.087 10.027 L 15.373 10.027 14.550 10.871 C 14.098 11.336,13.687 11.801,13.637 11.906 C 13.442 12.316,13.589 12.849,13.967 13.104 C 14.191 13.255,14.438 13.302,14.755 13.255 C 14.995 13.219,15.060 13.161,16.724 11.502 C 17.671 10.559,18.495 9.703,18.556 9.600 C 18.704 9.349,18.704 8.943,18.555 8.693 C 18.494 8.591,17.705 7.769,16.802 6.867 C 15.120 5.188,14.903 5.011,14.533 5.019 C 14.445 5.021,14.308 5.042,14.229 5.066 M23.467 16.035 C 21.943 16.238,20.821 17.115,20.269 18.533 L 20.082 19.013 20.081 21.413 C 20.080 24.136,20.078 24.123,20.509 24.999 C 20.932 25.860,21.608 26.433,22.616 26.784 C 23.104 26.953,23.147 26.959,23.947 26.956 C 24.907 26.953,25.231 26.886,25.908 26.552 C 26.694 26.164,27.358 25.433,27.697 24.581 C 27.978 23.876,28.015 23.436,27.983 21.227 C 27.950 18.996,27.925 18.790,27.600 18.124 C 27.111 17.121,26.266 16.446,25.142 16.159 C 24.726 16.052,23.831 15.986,23.467 16.035 M14.187 16.549 C 13.658 16.794,11.609 17.859,11.384 18.006 C 11.087 18.201,10.921 18.707,11.038 19.060 C 11.119 19.306,11.508 19.648,11.801 19.730 C 12.090 19.811,12.300 19.744,13.240 19.273 L 13.920 18.933 13.920 21.968 L 13.920 25.003 12.809 25.021 L 11.699 25.040 11.472 25.190 C 10.904 25.566,10.904 26.434,11.472 26.810 L 11.699 26.960 15.017 26.975 L 18.334 26.990 18.562 26.815 C 18.848 26.595,18.987 26.337,18.985 26.027 C 18.984 25.679,18.824 25.368,18.555 25.190 L 18.328 25.040 17.143 25.022 L 15.957 25.005 15.939 21.022 C 15.920 17.122,15.918 17.036,15.811 16.854 C 15.644 16.570,15.326 16.372,14.984 16.341 C 14.724 16.318,14.640 16.340,14.187 16.549 M25.153 18.243 C 25.565 18.449,25.823 18.739,25.926 19.109 C 25.968 19.261,25.990 20.017,25.994 21.440 C 25.999 23.295,25.989 23.582,25.908 23.843 C 25.647 24.685,24.990 25.048,23.813 25.001 C 22.910 24.965,22.508 24.738,22.184 24.078 L 22.054 23.813 22.054 21.573 C 22.053 19.068,22.062 19.001,22.429 18.572 C 22.781 18.161,23.227 18.025,24.167 18.045 C 24.755 18.058,24.806 18.068,25.153 18.243 " fill="#1A1C1F" stroke="none" fill-rule="evenodd"></path></svg>