<svg xmlns="http://www.w3.org/2000/svg" width="28" height="28" fill="none"><g clip-path="url(#a)"><path fill="#1A1C1F" fill-rule="evenodd" d="M6.793 14.07c1.59 0 2.746 1.02 2.746 2.422 0 .703-.261 1.25-.65 1.677.683.462 1.103 1.233 1.103 2.158 0 3.22-4.067 3.416-5.597 3.49h-.043a.875.875 0 0 1-.04-1.748c3.463-.167 3.93-.974 3.93-1.742 0-.566-.34-.876-.955-.876-.39 0-.642.025-1.453.186a.875.875 0 0 1-.367-1.71c1.059-.246 2.322-.694 2.322-1.435 0-.623-.763-.672-.996-.672-.568 0-1.151.158-1.834.495a.876.876 0 0 1-.775-1.57c.933-.46 1.762-.675 2.609-.675m8.497-9.887a.86.86 0 0 1 .873.872c0 .226-.084.45-.253.62l-1.156 1.153c5.356-.056 9.753 4.25 9.753 9.597 0 2.308-.817 4.56-2.368 6.304l-.067.08a.83.83 0 0 1-.581.23c-.507 0-.874-.394-.874-.9a.86.86 0 0 1 .197-.564 7.83 7.83 0 0 0 1.945-5.178c0-4.53-3.861-8.02-8.23-7.824l1.38 1.38c.17.168.254.393.254.618a.86.86 0 0 1-.873.873.88.88 0 0 1-.62-.254l-2.763-2.757a.87.87 0 0 1-.254-.62c0-.225.085-.45.254-.619l2.762-2.758a.88.88 0 0 1 .62-.253m-.132 9.625c2.03 0 3.495 1.313 3.495 3.518v2.56c0 2.235-1.522 3.518-3.495 3.547-1.973.028-3.467-1.313-3.467-3.49v-2.702c0-2.12 1.55-3.433 3.467-3.433m0 1.745c-1.212 0-1.748.534-1.748 1.688v2.702c0 1.266.508 1.773 1.748 1.773 1.212 0 1.776-.59 1.776-1.83v-2.56c0-1.267-.508-1.773-1.776-1.773" clip-rule="evenodd"/></g><defs><clipPath id="a"><path fill="#fff" d="M0 0h28v28H0z"/></clipPath></defs></svg>