<svg width="16" height="16" viewBox="0 0 16 16" fill="none" xmlns="http://www.w3.org/2000/svg"><path d="M3.465 4.027 C 2.884 4.118,2.392 4.545,2.193 5.131 L 2.120 5.347 2.120 8.000 L 2.120 10.653 2.193 10.869 C 2.367 11.382,2.757 11.767,3.267 11.927 C 3.535 12.012,3.942 12.010,4.200 11.923 C 4.411 11.852,4.832 11.580,6.266 10.590 C 6.869 10.174,7.164 9.984,7.175 10.007 C 7.185 10.025,7.200 10.184,7.209 10.360 C 7.218 10.536,7.245 10.752,7.269 10.840 C 7.479 11.627,8.358 12.149,9.140 11.952 C 9.261 11.921,9.411 11.873,9.473 11.845 C 9.585 11.794,10.572 11.129,11.867 10.232 C 12.916 9.505,13.300 9.225,13.434 9.089 C 13.986 8.527,14.013 7.568,13.493 6.969 C 13.361 6.817,12.291 6.052,10.547 4.863 C 9.375 4.064,9.279 4.017,8.813 4.016 C 8.505 4.016,8.323 4.061,8.040 4.209 C 7.695 4.389,7.379 4.773,7.268 5.147 C 7.244 5.227,7.217 5.443,7.209 5.627 C 7.200 5.810,7.185 5.975,7.175 5.994 C 7.162 6.018,6.904 5.854,6.318 5.450 C 4.845 4.434,4.391 4.141,4.205 4.083 C 4.001 4.021,3.668 3.995,3.465 4.027 M10.480 6.761 C 12.227 7.964,12.240 7.974,12.240 8.001 C 12.240 8.027,11.836 8.311,10.080 9.519 C 9.413 9.979,8.852 10.366,8.833 10.380 C 8.807 10.401,8.800 9.922,8.800 8.002 L 8.800 5.597 8.967 5.715 C 9.058 5.780,9.739 6.250,10.480 6.761 M4.861 6.391 C 6.499 7.518,7.147 7.974,7.147 7.998 C 7.147 8.020,5.773 8.988,4.373 9.954 L 3.773 10.368 3.756 10.151 C 3.725 9.767,3.730 5.653,3.761 5.653 C 3.777 5.653,4.272 5.985,4.861 6.391 " fill="#1A1C1F" stroke="none" fill-rule="evenodd"></path></svg>