<svg xmlns="http://www.w3.org/2000/svg" width="14" height="14" fill="none"><g clip-path="url(#a)"><path fill="#1A1C1F" fill-rule="evenodd" d="M11.342 10.75c-.45 0-.724-.382-.724-.67 0-.327.52-1.12.52-2.008 0-1.885-1.436-3.306-3.185-3.47l.48.45c.108.137.204.315.204.492 0 .356-.328.67-.697.67a.72.72 0 0 1-.502-.195L5.914 4.482a.7.7 0 0 1-.188-.495c0-.178.07-.328.19-.451l1.546-1.558a.66.66 0 0 1 .478-.205.7.7 0 0 1 .697.697.66.66 0 0 1-.205.478l-.315.314a4.815 4.815 0 0 1 4.373 4.81l-.006.219c-.049.987-.419 2.46-1.142 2.46M3.304 7.269c.883 0 1.523.579 1.523 1.376q-.001.434-.44.76c.401.223.644.564.644.966 0 1.722-2.1 1.824-2.79 1.857h-.035a.68.68 0 0 1-.032-1.36c.982-.046 1.496-.192 1.496-.43 0-.095-.06-.201-.19-.201-.354 0-.49.118-.703.118a.686.686 0 0 1-.66-.677c0-.291.211-.547.525-.611.522-.107.844-.228.844-.326 0-.052-.063-.112-.212-.112-.41 0-.666.263-.986.263a.69.69 0 0 1-.664-.682c0-.247.14-.49.38-.608.46-.228.874-.333 1.3-.333m4.238-.002c1.12 0 1.885.793 1.885 2.009v.765c0 1.23-.792 2.023-1.954 2.023-1.052 0-1.817-.807-1.817-1.995V9.22c0-1.161.792-1.954 1.886-1.954M7.528 8.63l-.059.002c-.268.017-.447.115-.447.575v.86c0 .479.15.625.52.618.328-.006.505-.167.505-.658V9.26c0-.574-.272-.637-.519-.631" clip-rule="evenodd"/></g><defs><clipPath id="a"><path fill="#fff" d="M0 0h14v14H0z"/></clipPath></defs></svg>