<svg width="12" height="12" viewBox="0 0 12 12" fill="none" xmlns="http://www.w3.org/2000/svg"><path d="M6.710 1.520 C 6.666 1.527,6.594 1.551,6.550 1.574 C 6.440 1.632,5.045 3.040,4.969 3.170 C 4.918 3.257,4.910 3.290,4.910 3.420 C 4.911 3.612,4.940 3.671,5.150 3.906 C 5.419 4.208,6.429 5.192,6.530 5.251 C 6.663 5.329,6.848 5.340,7.010 5.279 C 7.237 5.193,7.400 4.969,7.400 4.741 C 7.400 4.558,7.350 4.470,7.095 4.208 C 6.966 4.076,6.860 3.961,6.860 3.954 C 6.860 3.925,7.347 4.030,7.558 4.104 C 8.299 4.365,8.937 4.939,9.268 5.641 C 9.426 5.976,9.500 6.254,9.542 6.664 C 9.585 7.088,9.520 7.438,9.274 8.118 C 9.150 8.461,9.132 8.528,9.132 8.650 C 9.131 8.866,9.237 9.038,9.443 9.150 C 9.537 9.201,9.571 9.208,9.721 9.209 C 9.908 9.210,9.933 9.200,10.085 9.063 C 10.587 8.612,10.865 7.078,10.630 6.052 C 10.378 4.952,9.766 4.057,8.858 3.460 C 8.358 3.130,7.795 2.911,7.231 2.827 C 7.104 2.808,7.000 2.786,7.000 2.779 C 7.000 2.771,7.068 2.689,7.152 2.597 C 7.361 2.367,7.387 2.311,7.388 2.100 C 7.388 1.841,7.295 1.688,7.074 1.583 C 6.940 1.518,6.835 1.501,6.710 1.520 M2.517 6.259 C 2.118 6.310,1.668 6.501,1.510 6.686 C 1.228 7.015,1.461 7.575,1.896 7.614 C 1.998 7.624,2.048 7.613,2.317 7.522 C 2.582 7.433,2.642 7.420,2.780 7.420 C 2.918 7.420,2.941 7.425,2.960 7.460 C 2.978 7.493,2.973 7.509,2.931 7.548 C 2.878 7.597,2.616 7.692,2.370 7.751 C 2.161 7.802,1.993 7.887,1.919 7.981 C 1.850 8.068,1.800 8.208,1.800 8.312 C 1.800 8.520,2.001 8.789,2.200 8.848 C 2.339 8.889,2.401 8.888,2.603 8.841 C 2.971 8.756,3.064 8.766,3.119 8.896 C 3.139 8.946,3.138 8.966,3.111 9.018 C 3.035 9.165,2.686 9.261,2.020 9.320 C 1.707 9.347,1.591 9.380,1.486 9.470 C 1.167 9.743,1.248 10.273,1.635 10.444 C 1.805 10.520,2.485 10.477,2.930 10.362 C 3.653 10.177,4.067 9.855,4.234 9.350 C 4.279 9.213,4.287 9.154,4.289 8.940 C 4.290 8.701,4.287 8.684,4.228 8.560 C 4.156 8.409,3.998 8.228,3.859 8.137 L 3.762 8.074 3.890 7.936 C 4.081 7.729,4.110 7.658,4.110 7.390 C 4.110 7.118,4.057 6.935,3.927 6.759 C 3.782 6.562,3.498 6.368,3.240 6.291 C 3.110 6.252,2.711 6.235,2.517 6.259 M6.167 6.260 C 5.855 6.304,5.553 6.462,5.307 6.711 C 5.169 6.849,5.127 6.908,5.042 7.083 C 4.884 7.407,4.858 7.544,4.846 8.100 C 4.833 8.714,4.856 8.988,4.947 9.267 C 5.033 9.534,5.146 9.726,5.317 9.899 C 5.553 10.135,5.815 10.271,6.149 10.329 C 6.368 10.368,6.462 10.368,6.693 10.330 C 7.079 10.268,7.349 10.134,7.602 9.882 C 7.794 9.690,7.892 9.532,7.979 9.275 C 8.075 8.993,8.090 8.857,8.090 8.280 C 8.090 7.704,8.075 7.567,7.979 7.286 C 7.815 6.801,7.434 6.434,6.957 6.300 C 6.788 6.253,6.367 6.231,6.167 6.260 M6.599 7.422 C 6.724 7.448,6.826 7.539,6.859 7.650 C 6.891 7.763,6.907 8.341,6.885 8.653 C 6.869 8.891,6.862 8.925,6.812 9.000 C 6.738 9.112,6.631 9.159,6.449 9.160 C 6.189 9.160,6.077 9.062,6.039 8.796 C 5.997 8.504,6.029 7.677,6.087 7.565 C 6.153 7.437,6.379 7.374,6.599 7.422 " fill="#1A1C1F" stroke="none" fill-rule="evenodd"></path></svg>