<svg width="28" height="28" viewBox="0 0 28 28" fill="none" xmlns="http://www.w3.org/2000/svg"><path d="M14.801 4.481 C 14.656 4.546,14.185 4.985,13.161 6.008 C 12.371 6.797,11.680 7.517,11.625 7.607 C 11.493 7.827,11.493 8.181,11.626 8.400 C 11.681 8.490,12.390 9.227,13.201 10.038 C 14.797 11.633,14.821 11.652,15.267 11.609 C 15.533 11.583,15.783 11.409,15.920 11.153 C 16.014 10.978,16.035 10.626,15.963 10.437 C 15.938 10.373,15.579 9.973,15.163 9.547 L 14.408 8.773 14.682 8.773 C 15.118 8.773,15.946 8.863,16.412 8.960 C 19.094 9.518,21.375 11.574,22.234 14.207 C 22.507 15.042,22.559 15.428,22.559 16.590 C 22.559 17.521,22.546 17.726,22.457 18.135 C 22.224 19.207,21.781 20.231,21.186 21.076 C 21.007 21.329,20.786 21.645,20.693 21.778 C 20.317 22.318,20.485 22.920,21.083 23.174 C 21.560 23.376,22.019 23.031,22.765 21.910 C 23.685 20.527,24.264 18.793,24.339 17.197 C 24.376 16.399,24.301 15.278,24.169 14.670 C 23.959 13.697,23.469 12.469,22.962 11.643 C 22.402 10.731,21.389 9.614,20.564 8.999 C 18.997 7.830,17.162 7.152,15.318 7.062 C 14.967 7.045,14.700 7.012,14.700 6.987 C 14.700 6.961,14.980 6.653,15.323 6.301 C 15.965 5.641,16.007 5.573,16.007 5.196 C 16.007 4.849,15.758 4.532,15.410 4.435 C 15.162 4.366,15.031 4.376,14.801 4.481 M14.537 14.053 C 13.825 14.110,13.106 14.446,12.553 14.980 C 12.029 15.486,11.755 16.004,11.616 16.753 C 11.590 16.895,11.557 17.640,11.542 18.410 C 11.515 19.878,11.559 20.699,11.695 21.210 C 11.930 22.100,12.597 22.907,13.417 23.292 C 13.911 23.524,14.230 23.581,15.027 23.579 C 15.641 23.578,15.799 23.562,16.077 23.474 C 17.260 23.099,18.062 22.282,18.394 21.114 C 18.496 20.756,18.499 20.679,18.498 18.830 C 18.495 16.659,18.477 16.496,18.155 15.847 C 17.506 14.537,16.253 13.916,14.537 14.053 M6.627 14.389 C 5.979 14.667,4.077 15.663,3.903 15.815 C 3.734 15.962,3.628 16.241,3.651 16.480 C 3.682 16.801,3.858 17.043,4.172 17.197 C 4.513 17.363,4.624 17.341,5.463 16.937 L 6.137 16.612 6.168 16.834 C 6.185 16.957,6.200 18.141,6.203 19.467 L 6.207 21.877 5.238 21.895 C 4.435 21.910,4.245 21.926,4.121 21.993 C 3.807 22.162,3.607 22.589,3.684 22.926 C 3.736 23.155,3.832 23.297,4.044 23.459 L 4.216 23.590 7.140 23.590 L 10.063 23.590 10.253 23.465 C 10.475 23.318,10.640 23.013,10.640 22.750 C 10.640 22.487,10.475 22.182,10.253 22.035 L 10.064 21.910 9.000 21.894 L 7.937 21.878 7.924 18.345 C 7.908 14.387,7.936 14.687,7.564 14.440 C 7.300 14.266,6.956 14.247,6.627 14.389 M16.051 15.952 C 16.354 16.101,16.578 16.373,16.687 16.720 C 16.782 17.028,16.834 19.485,16.761 20.297 C 16.700 20.981,16.531 21.357,16.178 21.594 C 15.866 21.802,15.688 21.848,15.090 21.874 C 14.180 21.913,13.772 21.724,13.455 21.117 L 13.333 20.883 13.311 19.157 C 13.288 17.388,13.323 16.744,13.458 16.483 C 13.553 16.300,13.801 16.064,14.023 15.946 C 14.273 15.814,14.567 15.780,15.237 15.806 C 15.725 15.824,15.829 15.843,16.051 15.952 " fill="#1A1C1F" stroke="none" fill-rule="evenodd"></path></svg>