<svg width="20" height="20" viewBox="0 0 20 20" fill="none" xmlns="http://www.w3.org/2000/svg"><path d="M11.105 2.568 C 11.025 2.584,10.905 2.638,10.838 2.687 C 10.607 2.858,8.379 5.116,8.292 5.267 C 8.114 5.579,8.131 5.922,8.342 6.238 C 8.495 6.467,10.280 8.295,10.634 8.584 C 11.095 8.961,11.563 8.967,12.006 8.600 C 12.191 8.447,12.313 8.173,12.310 7.913 C 12.307 7.582,12.200 7.401,11.742 6.951 L 11.358 6.575 11.653 6.622 C 13.108 6.855,14.360 7.668,15.140 8.887 C 15.539 9.510,15.789 10.276,15.870 11.122 C 15.938 11.841,15.842 12.364,15.430 13.519 C 15.183 14.214,15.141 14.413,15.197 14.624 C 15.246 14.804,15.465 15.079,15.657 15.201 C 16.210 15.552,16.808 15.277,17.205 14.489 C 17.656 13.596,17.918 12.016,17.802 10.883 C 17.580 8.711,16.417 6.833,14.585 5.685 C 13.773 5.176,12.901 4.860,11.859 4.698 L 11.601 4.658 11.879 4.365 C 12.230 3.996,12.307 3.845,12.307 3.523 C 12.307 3.227,12.252 3.086,12.051 2.871 C 11.809 2.613,11.447 2.497,11.105 2.568 M4.165 10.434 C 3.655 10.506,2.933 10.783,2.647 11.017 C 2.127 11.444,2.263 12.320,2.895 12.620 C 3.081 12.708,3.436 12.693,3.733 12.585 C 4.283 12.385,4.387 12.358,4.624 12.354 C 4.813 12.351,4.877 12.363,4.923 12.409 C 5.057 12.543,4.831 12.671,4.112 12.869 C 3.542 13.026,3.327 13.130,3.193 13.315 C 2.908 13.708,2.975 14.192,3.363 14.540 C 3.472 14.638,3.595 14.710,3.722 14.750 C 3.907 14.809,3.926 14.809,4.183 14.753 C 4.850 14.607,5.039 14.604,5.166 14.740 C 5.262 14.844,5.250 14.950,5.125 15.085 C 4.934 15.292,4.464 15.410,3.417 15.515 C 2.745 15.582,2.687 15.601,2.465 15.828 C 2.066 16.236,2.071 16.773,2.477 17.179 C 2.716 17.418,2.819 17.450,3.317 17.447 C 4.211 17.441,5.133 17.245,5.817 16.916 C 6.361 16.655,6.840 16.164,7.019 15.683 C 7.205 15.184,7.206 14.567,7.021 14.190 C 6.934 14.010,6.596 13.648,6.404 13.526 C 6.347 13.490,6.300 13.455,6.300 13.449 C 6.300 13.442,6.376 13.350,6.470 13.244 C 6.825 12.839,6.930 12.535,6.865 12.104 C 6.813 11.765,6.721 11.526,6.546 11.278 C 6.277 10.897,5.860 10.607,5.400 10.481 C 5.175 10.420,4.462 10.393,4.165 10.434 M10.300 10.430 C 10.047 10.459,9.795 10.537,9.519 10.672 C 8.848 11.001,8.394 11.570,8.176 12.355 L 8.084 12.683 8.085 13.817 C 8.085 14.882,8.090 14.966,8.159 15.217 C 8.468 16.338,9.317 17.110,10.339 17.199 C 10.534 17.216,10.832 17.216,11.032 17.200 C 12.306 17.096,13.270 16.125,13.431 14.783 C 13.474 14.422,13.476 13.345,13.434 12.883 C 13.326 11.685,12.535 10.698,11.513 10.484 C 11.234 10.425,10.590 10.397,10.300 10.430 M11.125 12.413 C 11.250 12.477,11.392 12.643,11.424 12.761 C 11.437 12.810,11.448 13.277,11.449 13.800 C 11.450 14.730,11.448 14.753,11.372 14.909 C 11.255 15.146,11.061 15.250,10.733 15.250 C 10.456 15.250,10.270 15.178,10.158 15.028 C 10.059 14.895,10.026 14.493,10.041 13.581 C 10.053 12.790,10.058 12.739,10.127 12.626 C 10.219 12.478,10.267 12.438,10.425 12.379 C 10.581 12.320,10.985 12.340,11.125 12.413 " fill="#1A1C1F" stroke="none" fill-rule="evenodd"></path></svg>