<svg width="16" height="16" viewBox="0 0 16 16" fill="none" xmlns="http://www.w3.org/2000/svg"><path d="M6.960 2.079 C 6.619 2.145,6.336 2.489,6.335 2.840 C 6.335 3.071,6.424 3.244,6.688 3.522 L 6.904 3.751 6.632 3.797 C 5.321 4.018,4.261 4.577,3.402 5.501 C 2.835 6.111,2.473 6.717,2.215 7.488 C 1.877 8.500,1.838 9.548,2.098 10.653 C 2.331 11.643,2.678 12.194,3.133 12.296 C 3.258 12.324,3.296 12.320,3.468 12.268 C 3.633 12.218,3.684 12.187,3.813 12.058 C 3.978 11.893,4.053 11.728,4.053 11.530 C 4.053 11.457,3.982 11.218,3.852 10.852 C 3.517 9.910,3.437 9.483,3.493 8.927 C 3.552 8.332,3.653 7.974,3.899 7.480 C 4.157 6.963,4.457 6.579,4.874 6.232 C 5.413 5.783,6.007 5.494,6.668 5.360 C 7.124 5.267,7.122 5.260,6.755 5.633 C 6.484 5.910,6.428 5.982,6.386 6.107 C 6.293 6.382,6.341 6.625,6.534 6.859 C 6.714 7.078,7.163 7.187,7.415 7.074 C 7.583 6.999,7.887 6.721,8.682 5.917 C 9.444 5.145,9.580 4.983,9.628 4.792 C 9.667 4.637,9.648 4.414,9.584 4.275 C 9.512 4.121,7.595 2.212,7.440 2.141 C 7.305 2.079,7.100 2.053,6.960 2.079 M6.600 8.320 C 6.227 8.374,5.670 8.585,5.427 8.765 C 5.197 8.935,5.096 9.278,5.185 9.584 C 5.248 9.800,5.472 10.030,5.678 10.091 C 5.894 10.154,5.963 10.145,6.372 10.001 C 6.880 9.823,7.158 9.800,7.238 9.930 C 7.302 10.034,7.054 10.147,6.381 10.322 C 6.089 10.398,5.904 10.511,5.801 10.678 C 5.727 10.797,5.720 10.829,5.723 11.025 C 5.726 11.341,5.840 11.547,6.090 11.693 C 6.301 11.815,6.402 11.823,6.780 11.748 C 7.195 11.665,7.315 11.662,7.386 11.733 C 7.512 11.859,7.463 12.040,7.277 12.135 C 7.061 12.245,6.518 12.347,5.933 12.387 C 5.481 12.418,5.257 12.531,5.106 12.803 C 5.036 12.929,5.027 12.973,5.027 13.160 C 5.028 13.412,5.085 13.564,5.241 13.719 C 5.450 13.928,5.714 13.979,6.284 13.921 C 7.006 13.847,7.489 13.725,7.947 13.501 C 8.219 13.367,8.280 13.323,8.496 13.108 C 8.834 12.771,8.970 12.476,9.026 11.960 C 9.071 11.549,8.827 11.067,8.454 10.827 C 8.380 10.780,8.320 10.733,8.320 10.723 C 8.320 10.712,8.369 10.657,8.428 10.599 C 8.692 10.342,8.821 10.027,8.788 9.720 C 8.763 9.494,8.644 9.162,8.520 8.975 C 8.352 8.722,7.967 8.458,7.627 8.364 C 7.450 8.315,6.823 8.288,6.600 8.320 M11.515 8.375 C 10.846 8.468,10.265 8.922,9.955 9.592 C 9.819 9.887,9.791 10.070,9.772 10.786 C 9.743 11.836,9.801 12.248,10.039 12.719 C 10.427 13.483,11.257 13.904,12.152 13.791 C 12.912 13.695,13.527 13.270,13.827 12.634 C 14.010 12.243,14.054 12.024,14.071 11.400 C 14.089 10.705,14.051 10.110,13.972 9.853 C 13.744 9.119,13.231 8.601,12.546 8.415 C 12.353 8.362,11.766 8.340,11.515 8.375 M12.142 9.932 C 12.275 9.980,12.339 10.040,12.416 10.192 C 12.479 10.316,12.480 10.331,12.479 11.032 C 12.479 11.425,12.468 11.794,12.454 11.851 C 12.420 12.002,12.350 12.083,12.187 12.167 C 11.893 12.317,11.532 12.230,11.408 11.978 C 11.348 11.856,11.347 11.836,11.348 11.067 C 11.349 10.229,11.360 10.139,11.478 10.029 C 11.608 9.907,11.937 9.859,12.142 9.932 " fill="#1A1C1F" stroke="none" fill-rule="evenodd"></path></svg>