<svg width="12" height="12" viewBox="0 0 12 12" fill="none" xmlns="http://www.w3.org/2000/svg"><path d="M5.106 1.579 C 4.983 1.635,4.851 1.766,4.798 1.885 C 4.742 2.011,4.735 2.229,4.784 2.340 C 4.801 2.378,4.892 2.494,4.987 2.597 C 5.082 2.699,5.160 2.790,5.160 2.798 C 5.160 2.806,5.072 2.824,4.965 2.838 C 4.433 2.907,3.795 3.148,3.330 3.455 C 2.451 4.035,1.876 4.813,1.590 5.811 C 1.460 6.265,1.434 6.481,1.446 7.040 C 1.455 7.489,1.460 7.554,1.517 7.822 C 1.713 8.749,2.030 9.240,2.432 9.240 C 2.746 9.240,3.071 8.909,3.033 8.629 C 3.026 8.580,2.954 8.357,2.873 8.134 C 2.700 7.659,2.648 7.467,2.618 7.180 C 2.550 6.533,2.722 5.844,3.087 5.298 C 3.575 4.568,4.303 4.118,5.239 3.969 L 5.329 3.955 5.095 4.183 C 4.817 4.453,4.755 4.563,4.753 4.778 C 4.751 5.225,5.299 5.495,5.678 5.235 C 5.902 5.081,7.120 3.830,7.182 3.691 C 7.233 3.574,7.248 3.425,7.221 3.294 C 7.199 3.187,7.183 3.167,6.872 2.836 C 6.359 2.292,5.718 1.671,5.597 1.602 C 5.503 1.548,5.471 1.540,5.340 1.541 C 5.236 1.541,5.164 1.552,5.106 1.579 M4.950 6.240 C 4.654 6.283,4.216 6.453,4.048 6.590 C 3.745 6.839,3.804 7.334,4.159 7.528 C 4.340 7.626,4.442 7.622,4.792 7.504 C 4.956 7.449,5.131 7.398,5.182 7.392 C 5.293 7.379,5.411 7.409,5.428 7.453 C 5.459 7.533,5.317 7.604,4.908 7.711 C 4.582 7.797,4.513 7.829,4.414 7.938 C 4.320 8.042,4.279 8.143,4.277 8.270 C 4.275 8.483,4.384 8.676,4.565 8.779 C 4.717 8.866,4.812 8.875,5.060 8.823 C 5.175 8.799,5.331 8.780,5.405 8.780 C 5.540 8.780,5.541 8.780,5.573 8.849 C 5.601 8.907,5.602 8.926,5.580 8.979 C 5.566 9.013,5.532 9.059,5.505 9.081 C 5.387 9.173,4.989 9.258,4.481 9.300 C 4.344 9.312,4.199 9.329,4.160 9.340 C 3.967 9.392,3.801 9.570,3.759 9.772 C 3.706 10.028,3.856 10.315,4.100 10.427 C 4.350 10.541,5.344 10.410,5.851 10.195 C 6.364 9.978,6.692 9.576,6.760 9.080 C 6.795 8.825,6.747 8.596,6.619 8.410 C 6.557 8.319,6.353 8.119,6.285 8.083 C 6.241 8.059,6.242 8.056,6.368 7.908 C 6.560 7.684,6.587 7.615,6.585 7.360 C 6.584 7.123,6.539 6.970,6.415 6.776 C 6.269 6.549,5.940 6.319,5.680 6.263 C 5.548 6.234,5.089 6.220,4.950 6.240 M8.670 6.280 C 8.259 6.326,7.824 6.603,7.592 6.965 C 7.383 7.293,7.321 7.610,7.321 8.350 C 7.321 9.079,7.409 9.425,7.687 9.791 C 7.825 9.972,7.987 10.102,8.210 10.210 C 8.489 10.345,8.595 10.366,8.960 10.354 C 9.313 10.343,9.432 10.318,9.672 10.200 C 10.191 9.946,10.479 9.503,10.563 8.832 C 10.594 8.579,10.573 7.760,10.529 7.549 C 10.486 7.339,10.397 7.113,10.298 6.959 C 10.079 6.620,9.712 6.361,9.370 6.303 C 9.196 6.274,8.832 6.262,8.670 6.280 M9.188 7.479 C 9.224 7.501,9.279 7.566,9.312 7.624 L 9.370 7.730 9.370 8.291 L 9.370 8.853 9.310 8.969 C 9.224 9.136,9.176 9.165,8.975 9.175 C 8.742 9.186,8.668 9.157,8.585 9.019 L 8.520 8.912 8.520 8.301 C 8.521 7.706,8.522 7.688,8.565 7.612 C 8.650 7.464,8.766 7.415,8.997 7.430 C 9.076 7.436,9.147 7.454,9.188 7.479 " fill="#1A1C1F" stroke="none" fill-rule="evenodd"></path></svg>