<svg width="14" height="14" viewBox="0 0 14 14" fill="none" xmlns="http://www.w3.org/2000/svg"><path d="M6.102 1.820 C 5.796 1.867,5.550 2.166,5.544 2.497 C 5.541 2.693,5.615 2.831,5.862 3.093 L 6.042 3.283 5.794 3.324 C 5.222 3.418,4.832 3.544,4.336 3.795 C 3.170 4.386,2.309 5.386,1.918 6.603 C 1.559 7.718,1.640 9.167,2.115 10.142 C 2.233 10.384,2.444 10.635,2.599 10.716 C 2.745 10.793,2.959 10.787,3.131 10.703 C 3.369 10.586,3.547 10.330,3.547 10.104 C 3.547 10.058,3.483 9.837,3.404 9.613 C 3.071 8.659,3.044 8.524,3.064 7.925 C 3.083 7.360,3.161 7.048,3.412 6.545 C 3.637 6.093,3.900 5.757,4.264 5.453 C 4.736 5.060,5.256 4.808,5.835 4.690 C 6.234 4.608,6.232 4.603,5.921 4.918 C 5.610 5.233,5.547 5.341,5.547 5.565 C 5.546 5.807,5.693 6.041,5.913 6.148 C 6.091 6.235,6.345 6.254,6.488 6.190 C 6.635 6.124,6.901 5.881,7.596 5.177 C 8.263 4.502,8.383 4.360,8.425 4.193 C 8.459 4.057,8.442 3.862,8.386 3.741 C 8.323 3.606,6.646 1.936,6.510 1.873 C 6.392 1.819,6.240 1.799,6.102 1.820 M5.786 7.281 C 5.445 7.328,4.966 7.508,4.745 7.672 C 4.610 7.772,4.503 7.989,4.503 8.166 C 4.503 8.371,4.562 8.509,4.712 8.658 C 4.847 8.792,5.009 8.867,5.164 8.867 C 5.204 8.867,5.395 8.812,5.588 8.745 C 5.882 8.643,5.965 8.623,6.107 8.623 C 6.364 8.621,6.425 8.716,6.238 8.825 C 6.200 8.848,5.989 8.917,5.770 8.979 C 5.219 9.137,5.102 9.213,5.026 9.467 C 4.931 9.780,5.078 10.110,5.373 10.252 C 5.557 10.341,5.640 10.348,5.873 10.293 C 6.147 10.229,6.373 10.208,6.433 10.240 C 6.459 10.254,6.494 10.298,6.510 10.337 C 6.558 10.454,6.496 10.558,6.333 10.632 C 6.154 10.714,5.745 10.793,5.330 10.826 C 5.138 10.841,4.928 10.868,4.863 10.886 C 4.703 10.931,4.552 11.051,4.468 11.203 C 4.407 11.313,4.398 11.352,4.398 11.515 C 4.398 11.732,4.449 11.860,4.591 12.005 C 4.778 12.194,5.028 12.236,5.583 12.171 C 6.754 12.035,7.439 11.685,7.735 11.072 C 7.858 10.816,7.893 10.646,7.882 10.348 C 7.875 10.130,7.864 10.071,7.811 9.957 C 7.715 9.750,7.519 9.536,7.314 9.414 C 7.276 9.392,7.284 9.376,7.392 9.256 C 7.708 8.908,7.767 8.628,7.618 8.189 C 7.474 7.766,7.112 7.435,6.659 7.314 C 6.494 7.270,5.997 7.251,5.786 7.281 M10.162 7.319 C 9.500 7.397,8.999 7.768,8.710 8.393 C 8.591 8.651,8.567 8.811,8.550 9.438 C 8.526 10.357,8.575 10.717,8.784 11.129 C 9.142 11.834,9.911 12.196,10.741 12.052 C 11.501 11.919,12.006 11.457,12.242 10.675 C 12.305 10.466,12.305 10.463,12.306 9.707 C 12.307 9.045,12.302 8.926,12.264 8.773 C 12.030 7.823,11.363 7.294,10.418 7.308 C 10.316 7.309,10.200 7.314,10.162 7.319 M10.624 8.690 C 10.741 8.732,10.796 8.785,10.864 8.918 C 10.919 9.026,10.920 9.040,10.919 9.653 C 10.919 10.301,10.907 10.420,10.832 10.522 C 10.676 10.733,10.245 10.770,10.060 10.589 C 9.936 10.468,9.928 10.413,9.930 9.672 C 9.931 8.952,9.941 8.871,10.043 8.775 C 10.157 8.668,10.444 8.626,10.624 8.690 " fill="#1A1C1F" stroke="none" fill-rule="evenodd"></path></svg>