<svg width="12" height="12" viewBox="0 0 12 12" fill="none" xmlns="http://www.w3.org/2000/svg"><path d="M5.170 3.020 C 5.115 3.028,5.029 3.051,4.980 3.071 C 4.859 3.119,3.014 4.360,2.163 4.967 C 1.907 5.149,1.800 5.271,1.687 5.510 C 1.547 5.804,1.547 6.196,1.687 6.490 C 1.766 6.656,1.901 6.840,2.004 6.922 C 2.158 7.043,3.913 8.250,4.564 8.682 C 4.998 8.970,5.053 8.990,5.400 8.989 C 5.608 8.988,5.672 8.980,5.780 8.942 C 6.093 8.832,6.326 8.626,6.470 8.333 C 6.569 8.131,6.599 7.991,6.601 7.720 C 6.602 7.627,6.609 7.535,6.616 7.517 C 6.627 7.491,6.735 7.557,7.180 7.864 C 8.148 8.531,8.705 8.894,8.830 8.941 C 8.994 9.001,9.299 9.016,9.486 8.972 C 9.878 8.880,10.191 8.609,10.345 8.230 L 10.410 8.070 10.410 6.020 L 10.410 3.970 10.366 3.829 C 10.260 3.492,9.981 3.205,9.626 3.066 C 9.503 3.018,9.465 3.013,9.220 3.013 C 8.990 3.013,8.934 3.019,8.840 3.056 C 8.683 3.118,8.412 3.293,7.472 3.938 C 7.017 4.251,6.637 4.505,6.627 4.503 C 6.618 4.502,6.604 4.381,6.597 4.235 C 6.577 3.825,6.484 3.588,6.256 3.364 C 6.042 3.155,5.835 3.051,5.570 3.021 C 5.370 2.998,5.316 2.998,5.170 3.020 M5.390 4.649 C 5.407 5.146,5.395 7.752,5.376 7.771 C 5.354 7.792,2.820 6.035,2.820 5.999 C 2.820 5.989,3.020 5.842,3.265 5.671 C 4.248 4.986,5.351 4.224,5.363 4.222 C 5.370 4.221,5.382 4.413,5.390 4.649 M9.216 6.304 C 9.212 7.103,9.204 7.763,9.197 7.770 C 9.186 7.781,7.980 6.959,7.100 6.341 C 6.687 6.050,6.640 6.015,6.640 6.001 C 6.640 5.983,7.080 5.673,8.207 4.896 L 9.190 4.218 9.206 4.534 C 9.215 4.708,9.219 5.504,9.216 6.304 " fill="#1A1C1F" stroke="none" fill-rule="evenodd"></path></svg>