<svg width="24" height="24" viewBox="0 0 24 24" fill="none" xmlns="http://www.w3.org/2000/svg"><path d="M13.912 3.055 C 13.831 3.085,13.644 3.215,13.497 3.344 C 13.081 3.710,11.200 5.644,11.129 5.779 C 11.044 5.942,11.044 6.457,11.129 6.620 C 11.213 6.781,12.671 8.309,13.253 8.848 C 13.634 9.200,13.753 9.287,13.925 9.338 C 14.184 9.415,14.216 9.415,14.475 9.338 C 14.889 9.215,15.174 8.842,15.178 8.420 C 15.181 8.113,15.117 7.986,14.742 7.560 C 14.577 7.373,14.442 7.196,14.442 7.166 C 14.438 7.055,15.369 7.236,15.979 7.465 C 17.769 8.137,19.188 9.730,19.663 11.600 C 19.859 12.376,19.860 13.685,19.664 14.418 C 19.398 15.414,19.008 16.157,18.303 17.012 C 17.913 17.484,17.800 17.685,17.800 17.902 C 17.800 18.326,18.116 18.772,18.489 18.877 C 18.759 18.952,19.070 18.917,19.296 18.785 C 19.506 18.661,19.996 18.116,20.382 17.576 C 20.685 17.152,21.137 16.288,21.333 15.760 C 22.083 13.736,21.979 11.555,21.039 9.606 C 20.615 8.726,20.103 8.022,19.393 7.339 C 18.495 6.474,17.536 5.894,16.340 5.491 C 15.942 5.357,15.189 5.190,14.749 5.138 L 14.519 5.111 14.803 4.811 C 14.960 4.647,15.121 4.437,15.163 4.346 C 15.369 3.893,15.126 3.290,14.660 3.098 C 14.462 3.016,14.078 2.994,13.912 3.055 M4.880 12.027 C 4.137 12.106,3.092 12.473,2.720 12.786 C 2.648 12.847,2.546 12.987,2.495 13.098 C 2.270 13.581,2.459 14.146,2.923 14.381 C 3.269 14.557,3.397 14.552,3.950 14.345 C 4.628 14.092,4.887 14.029,5.280 14.024 C 5.812 14.018,6.052 14.199,5.908 14.500 C 5.780 14.770,5.351 15.008,4.540 15.261 C 3.785 15.497,3.559 15.643,3.414 15.989 C 3.257 16.362,3.415 16.894,3.755 17.141 C 4.056 17.359,4.203 17.382,4.750 17.297 C 5.327 17.207,5.984 17.197,6.132 17.276 C 6.252 17.340,6.360 17.542,6.360 17.701 C 6.360 18.431,5.558 18.797,3.570 18.977 C 2.831 19.044,2.658 19.101,2.436 19.347 C 2.071 19.753,2.078 20.273,2.454 20.674 C 2.708 20.944,2.833 20.981,3.460 20.973 C 4.410 20.962,5.491 20.771,6.273 20.478 C 6.768 20.292,7.018 20.153,7.317 19.895 C 8.055 19.259,8.332 18.679,8.337 17.760 C 8.339 17.499,8.316 17.205,8.285 17.080 C 8.202 16.741,7.988 16.327,7.742 16.030 L 7.519 15.761 7.639 15.548 C 7.913 15.062,8.026 14.408,7.922 13.908 C 7.718 12.929,6.793 12.136,5.768 12.060 C 5.205 12.019,5.021 12.012,4.880 12.027 M12.240 12.040 C 11.718 12.094,11.164 12.321,10.766 12.646 C 10.329 13.001,9.981 13.595,9.784 14.320 C 9.681 14.697,9.680 14.712,9.682 16.140 C 9.685 18.028,9.709 18.346,9.888 18.868 C 10.074 19.410,10.236 19.675,10.620 20.065 C 10.888 20.337,11.001 20.418,11.320 20.571 C 11.794 20.798,12.157 20.880,12.691 20.880 C 13.186 20.880,13.600 20.786,14.019 20.579 C 14.702 20.242,15.158 19.678,15.465 18.791 C 15.606 18.385,15.650 17.619,15.630 15.982 C 15.614 14.790,15.604 14.627,15.526 14.327 C 15.161 12.921,14.192 12.104,12.800 12.029 C 12.635 12.020,12.383 12.025,12.240 12.040 M13.141 14.138 C 13.347 14.259,13.491 14.435,13.587 14.683 C 13.648 14.839,13.656 15.049,13.658 16.480 C 13.660 18.004,13.655 18.113,13.580 18.316 C 13.475 18.599,13.245 18.856,13.020 18.942 C 12.491 19.144,11.869 18.780,11.761 18.205 C 11.737 18.082,11.720 17.310,11.720 16.415 C 11.720 14.710,11.724 14.673,11.949 14.369 C 12.217 14.006,12.741 13.904,13.141 14.138 " fill="#1A1C1F" stroke="none" fill-rule="evenodd"></path></svg>