<svg width="14" height="14" viewBox="0 0 14 14" fill="none" xmlns="http://www.w3.org/2000/svg"><path d="M7.367 1.898 C 7.271 1.935,7.260 1.942,7.061 2.111 C 6.829 2.308,5.510 3.684,5.442 3.800 C 5.389 3.890,5.378 3.936,5.378 4.072 C 5.378 4.371,5.402 4.402,6.345 5.346 C 7.281 6.283,7.289 6.288,7.578 6.284 C 7.858 6.280,8.079 6.139,8.217 5.875 C 8.256 5.801,8.270 5.736,8.270 5.623 C 8.270 5.407,8.197 5.282,7.880 4.955 L 7.619 4.686 7.736 4.703 C 7.972 4.737,8.395 4.853,8.616 4.943 C 9.336 5.237,9.919 5.747,10.322 6.434 C 10.706 7.091,10.850 7.931,10.710 8.708 C 10.695 8.794,10.609 9.078,10.519 9.338 C 10.430 9.599,10.336 9.880,10.310 9.963 C 10.231 10.224,10.280 10.421,10.471 10.612 C 10.593 10.734,10.744 10.802,10.936 10.820 C 11.063 10.831,11.098 10.825,11.210 10.770 C 11.600 10.579,11.926 9.870,12.080 8.879 C 12.134 8.527,12.134 7.806,12.080 7.453 C 11.775 5.482,10.384 3.955,8.448 3.466 C 8.326 3.434,8.128 3.397,8.009 3.381 C 7.890 3.366,7.793 3.344,7.793 3.331 C 7.793 3.318,7.884 3.213,7.995 3.096 C 8.105 2.980,8.209 2.852,8.226 2.813 C 8.356 2.500,8.209 2.100,7.908 1.947 C 7.764 1.874,7.497 1.850,7.367 1.898 " fill="#1A1C1F" stroke="none" fill-rule="evenodd"></path></svg>