<svg width="14" height="14" viewBox="0 0 14 14" fill="none" xmlns="http://www.w3.org/2000/svg"><path d="M3.052 3.526 C 2.771 3.563,2.524 3.684,2.301 3.895 C 2.121 4.064,1.998 4.256,1.919 4.490 L 1.855 4.678 1.855 7.000 L 1.855 9.322 1.921 9.508 C 2.063 9.910,2.281 10.169,2.616 10.334 C 2.971 10.510,3.313 10.540,3.675 10.429 C 3.860 10.372,4.175 10.170,5.483 9.266 C 6.009 8.903,6.268 8.737,6.279 8.756 C 6.287 8.772,6.300 8.911,6.308 9.065 C 6.324 9.384,6.367 9.567,6.467 9.757 C 6.734 10.259,7.369 10.575,7.920 10.479 C 8.255 10.420,8.230 10.435,9.893 9.290 C 11.893 7.914,11.961 7.854,12.087 7.360 C 12.172 7.027,12.129 6.624,11.977 6.339 C 11.840 6.082,11.587 5.882,10.033 4.806 C 9.105 4.163,8.440 3.719,8.294 3.646 C 8.218 3.608,8.097 3.562,8.027 3.545 C 7.846 3.500,7.509 3.506,7.338 3.556 C 6.873 3.694,6.490 4.064,6.359 4.503 C 6.338 4.575,6.315 4.763,6.307 4.928 C 6.299 5.090,6.286 5.235,6.277 5.250 C 6.267 5.266,6.005 5.099,5.563 4.793 C 4.585 4.116,3.909 3.667,3.795 3.618 C 3.586 3.529,3.297 3.493,3.052 3.526 M8.867 5.706 C 10.328 6.711,10.710 6.980,10.710 7.001 C 10.710 7.023,10.371 7.262,8.855 8.306 C 8.290 8.695,7.799 9.033,7.764 9.058 L 7.700 9.103 7.700 7.000 L 7.700 4.898 7.846 5.001 C 7.926 5.057,8.385 5.374,8.867 5.706 M4.138 5.511 C 5.514 6.457,6.253 6.978,6.253 7.000 C 6.253 7.026,6.117 7.123,4.795 8.038 C 3.330 9.052,3.312 9.065,3.287 9.027 C 3.276 9.009,3.267 8.187,3.267 7.198 C 3.267 5.565,3.278 4.947,3.308 4.947 C 3.314 4.947,3.687 5.201,4.138 5.511 " fill="#1A1C1F" stroke="none" fill-rule="evenodd"></path></svg>