<svg width="12" height="12" viewBox="0 0 12 12" fill="none" xmlns="http://www.w3.org/2000/svg"><path d="M5.154 1.608 C 4.963 1.679,4.824 1.823,4.770 2.007 C 4.697 2.252,4.754 2.414,5.006 2.674 C 5.105 2.776,5.173 2.860,5.158 2.860 C 5.069 2.860,4.697 2.929,4.500 2.982 C 3.806 3.167,3.170 3.532,2.658 4.040 C 2.307 4.388,2.065 4.726,1.849 5.170 C 1.619 5.642,1.484 6.139,1.439 6.680 C 1.365 7.557,1.644 8.706,2.027 9.104 C 2.161 9.243,2.261 9.289,2.430 9.289 C 2.595 9.289,2.712 9.243,2.839 9.129 C 2.966 9.014,3.029 8.879,3.028 8.720 C 3.028 8.607,3.008 8.538,2.876 8.190 C 2.638 7.560,2.589 7.322,2.606 6.861 C 2.635 6.072,2.908 5.450,3.469 4.889 C 3.911 4.446,4.438 4.165,5.037 4.052 C 5.339 3.994,5.339 3.993,5.089 4.236 C 4.851 4.465,4.771 4.589,4.748 4.762 C 4.728 4.907,4.782 5.057,4.900 5.186 C 5.028 5.326,5.162 5.388,5.340 5.389 C 5.596 5.391,5.589 5.396,6.404 4.584 C 7.251 3.740,7.252 3.739,7.236 3.460 C 7.229 3.343,7.215 3.285,7.178 3.223 C 7.107 3.104,5.691 1.686,5.592 1.636 C 5.487 1.582,5.261 1.568,5.154 1.608 " fill="#1A1C1F" stroke="none" fill-rule="evenodd"></path></svg>