<svg width="32" height="32" viewBox="0 0 32 32" fill="none" xmlns="http://www.w3.org/2000/svg"><path d="M16.880 5.115 C 16.618 5.238,13.314 8.540,13.230 8.763 C 13.142 8.997,13.163 9.371,13.276 9.589 C 13.408 9.844,16.725 13.149,16.923 13.224 C 17.131 13.302,17.516 13.294,17.723 13.208 C 17.965 13.107,18.233 12.783,18.271 12.545 C 18.310 12.299,18.310 12.288,18.269 12.028 C 18.239 11.841,18.126 11.706,17.346 10.921 L 16.457 10.027 17.009 10.027 C 18.435 10.027,19.998 10.456,21.308 11.207 C 23.642 12.545,25.255 14.821,25.710 17.417 C 25.854 18.237,25.866 19.570,25.738 20.347 C 25.481 21.906,24.849 23.345,23.892 24.554 C 23.697 24.800,23.507 25.076,23.469 25.168 C 23.368 25.412,23.421 25.873,23.577 26.104 C 23.725 26.323,24.153 26.560,24.399 26.560 C 24.835 26.560,25.309 26.113,26.040 25.013 C 26.952 23.640,27.543 22.046,27.765 20.360 C 27.879 19.495,27.844 17.990,27.689 17.120 C 27.311 14.997,26.327 13.045,24.860 11.510 C 23.899 10.505,23.005 9.835,21.819 9.231 C 20.377 8.497,18.675 8.057,17.267 8.054 C 16.981 8.054,16.747 8.035,16.747 8.013 C 16.747 7.990,17.061 7.660,17.446 7.279 C 17.830 6.898,18.178 6.509,18.219 6.415 C 18.307 6.211,18.316 5.827,18.237 5.617 C 18.043 5.105,17.406 4.869,16.880 5.115 " fill="#1A1C1F" stroke="none" fill-rule="evenodd"></path></svg>