<svg xmlns="http://www.w3.org/2000/svg" width="28" height="28" fill="none"><g clip-path="url(#a)"><path fill="#1A1C1F" fill-rule="evenodd" d="M22.49 7a1.75 1.75 0 0 1 1.75 1.75v10.5a1.75 1.75 0 0 1-2.742 1.442l-6.624-4.567v3.125a1.75 1.75 0 0 1-2.742 1.442l-7.615-5.25a1.75 1.75 0 0 1 0-2.883l7.615-5.25a1.752 1.752 0 0 1 2.742 1.441v3.126l6.623-4.567c.299-.205.645-.309.994-.309m-9.365 1.75L5.51 14l7.615 5.25zm9.366 0L14.875 14l7.616 5.25z" clip-rule="evenodd"/></g><defs><clipPath id="a"><path fill="#fff" d="M0 0h28v28H0z"/></clipPath></defs></svg>