<svg width="14" height="14" viewBox="0 0 14 14" fill="none" xmlns="http://www.w3.org/2000/svg"><path d="M6.069 3.526 C 5.841 3.560,5.635 3.670,5.039 4.072 C 3.852 4.873,2.368 5.921,2.241 6.048 C 2.012 6.277,1.891 6.568,1.873 6.930 C 1.855 7.299,1.950 7.605,2.163 7.866 C 2.298 8.032,2.816 8.408,4.454 9.530 C 5.522 10.262,5.704 10.377,5.875 10.431 C 6.221 10.540,6.576 10.508,6.918 10.338 C 7.155 10.221,7.316 10.079,7.465 9.857 C 7.624 9.619,7.676 9.439,7.693 9.077 C 7.700 8.916,7.713 8.772,7.721 8.756 C 7.732 8.737,7.991 8.903,8.517 9.266 C 10.173 10.409,10.268 10.464,10.654 10.493 C 11.281 10.539,11.896 10.108,12.093 9.485 L 12.145 9.322 12.145 7.047 C 12.145 5.276,12.138 4.736,12.115 4.611 C 12.033 4.177,11.665 3.756,11.224 3.591 C 11.053 3.527,10.764 3.499,10.537 3.524 C 10.242 3.558,10.080 3.655,8.437 4.793 C 7.989 5.103,7.733 5.266,7.723 5.249 C 7.714 5.235,7.701 5.090,7.694 4.927 C 7.675 4.469,7.565 4.201,7.279 3.919 C 6.958 3.602,6.514 3.458,6.069 3.526 M6.294 7.000 C 6.294 7.789,6.288 8.580,6.280 8.757 L 6.265 9.079 5.122 8.290 C 3.484 7.160,3.290 7.023,3.290 7.002 C 3.290 6.979,3.626 6.743,5.145 5.696 L 6.265 4.924 6.280 5.244 C 6.288 5.421,6.294 6.211,6.294 7.000 M10.718 5.160 C 10.744 5.527,10.736 9.025,10.709 9.042 C 10.683 9.058,10.540 8.963,9.497 8.241 C 8.238 7.369,7.745 7.016,7.753 6.992 C 7.765 6.958,10.649 4.949,10.689 4.947 C 10.697 4.947,10.710 5.043,10.718 5.160 " fill="#1A1C1F" stroke="none" fill-rule="evenodd"></path></svg>