<svg width="32" height="32" viewBox="0 0 32 32" fill="none" xmlns="http://www.w3.org/2000/svg"><path d="M17.124 4.862 C 16.987 4.901,16.505 5.351,15.196 6.660 C 13.295 8.562,13.280 8.580,13.356 9.086 C 13.387 9.293,13.459 9.404,13.834 9.825 C 14.521 10.595,16.876 12.880,17.083 12.978 C 17.556 13.203,18.214 12.945,18.396 12.463 C 18.490 12.217,18.465 11.833,18.343 11.633 C 18.283 11.534,17.871 11.084,17.428 10.633 L 16.623 9.813 16.938 9.814 C 17.436 9.815,18.441 9.913,18.905 10.006 C 20.036 10.234,21.391 10.861,22.418 11.633 C 24.157 12.939,25.352 14.808,25.823 16.960 C 25.931 17.456,25.945 17.660,25.943 18.747 C 25.941 20.068,25.884 20.490,25.568 21.508 C 25.387 22.095,24.821 23.230,24.441 23.773 C 24.272 24.014,24.016 24.379,23.872 24.583 C 23.669 24.872,23.606 25.013,23.586 25.216 C 23.521 25.895,24.167 26.461,24.813 26.291 C 25.123 26.210,25.536 25.770,26.105 24.915 C 27.459 22.882,28.085 20.680,27.980 18.314 C 27.900 16.501,27.398 14.761,26.535 13.311 C 25.233 11.122,23.316 9.493,20.921 8.539 C 20.005 8.174,18.411 7.840,17.586 7.840 C 17.396 7.840,17.165 7.825,17.073 7.807 L 16.906 7.773 17.598 7.061 C 17.979 6.669,18.329 6.272,18.377 6.179 C 18.512 5.918,18.461 5.450,18.270 5.199 C 18.010 4.859,17.578 4.732,17.124 4.862 M16.553 15.865 C 16.038 15.959,15.832 16.029,15.350 16.278 C 14.392 16.770,13.716 17.674,13.462 18.800 C 13.350 19.295,13.302 21.633,13.378 22.853 C 13.436 23.766,13.547 24.277,13.794 24.764 C 14.239 25.640,15.155 26.369,16.160 26.647 C 16.667 26.788,17.901 26.775,18.460 26.624 C 19.266 26.407,19.947 25.971,20.459 25.347 C 20.767 24.971,21.144 24.191,21.226 23.760 C 21.262 23.573,21.300 22.544,21.317 21.280 L 21.347 19.120 21.146 18.518 C 20.824 17.550,20.402 16.952,19.729 16.504 C 18.828 15.905,17.645 15.667,16.553 15.865 M6.738 16.182 C 5.877 16.347,4.639 16.875,4.432 17.166 C 4.138 17.579,4.194 18.108,4.569 18.463 C 4.920 18.796,5.245 18.799,6.066 18.479 C 7.580 17.886,8.743 17.999,8.884 18.750 C 8.932 19.006,8.742 19.371,8.441 19.601 C 8.106 19.857,7.724 20.029,6.837 20.323 C 6.417 20.463,5.977 20.640,5.859 20.718 C 5.291 21.095,5.404 22.032,6.056 22.348 C 6.295 22.464,6.328 22.466,6.793 22.405 C 8.018 22.246,8.342 22.226,8.654 22.291 C 9.188 22.402,9.386 22.672,9.386 23.295 C 9.387 23.645,9.295 23.871,9.035 24.158 C 8.556 24.689,7.493 25.002,5.507 25.197 C 5.029 25.244,4.630 25.310,4.536 25.359 C 3.857 25.710,3.842 26.682,4.509 27.095 C 4.688 27.205,4.735 27.209,5.482 27.174 C 8.145 27.050,9.961 26.378,10.795 25.209 C 11.094 24.791,11.225 24.488,11.331 23.977 C 11.436 23.470,11.435 23.089,11.329 22.571 C 11.208 21.980,10.973 21.539,10.552 21.112 L 10.194 20.749 10.429 20.399 C 10.732 19.948,10.834 19.615,10.866 18.976 C 10.898 18.350,10.783 17.903,10.464 17.409 C 10.117 16.873,9.653 16.533,8.937 16.293 C 8.421 16.120,7.346 16.065,6.738 16.182 M18.175 17.898 C 18.761 18.048,19.155 18.449,19.256 18.998 C 19.290 19.187,19.305 20.108,19.296 21.425 C 19.280 23.525,19.279 23.550,19.154 23.825 C 19.005 24.155,18.651 24.499,18.303 24.653 C 17.986 24.794,17.158 24.842,16.682 24.749 C 16.082 24.631,15.786 24.418,15.535 23.924 L 15.402 23.661 15.374 21.684 C 15.346 19.648,15.386 18.925,15.543 18.620 C 15.912 17.908,17.021 17.603,18.175 17.898 " fill="#1A1C1F" stroke="none" fill-rule="evenodd"></path></svg>