<svg width="12" height="12" viewBox="0 0 12 12" fill="none" xmlns="http://www.w3.org/2000/svg"><path d="M6.357 1.598 C 6.316 1.606,6.258 1.629,6.227 1.649 C 6.141 1.702,4.686 3.170,4.651 3.238 C 4.564 3.406,4.597 3.682,4.722 3.841 C 4.832 3.979,5.832 4.993,6.035 5.171 C 6.247 5.357,6.305 5.384,6.494 5.383 C 6.675 5.383,6.817 5.323,6.927 5.200 C 7.046 5.069,7.089 4.968,7.088 4.820 C 7.087 4.623,7.034 4.529,6.789 4.280 C 6.674 4.163,6.580 4.057,6.580 4.044 C 6.580 4.010,6.616 4.013,6.877 4.072 C 7.469 4.205,7.957 4.473,8.380 4.899 C 8.716 5.237,8.950 5.612,9.096 6.052 C 9.202 6.369,9.220 6.498,9.220 6.957 C 9.220 7.455,9.208 7.516,8.972 8.176 C 8.791 8.683,8.783 8.724,8.831 8.859 C 8.912 9.084,9.120 9.257,9.352 9.291 C 9.861 9.368,10.304 8.513,10.403 7.266 C 10.443 6.760,10.369 6.204,10.189 5.660 C 9.841 4.610,9.084 3.752,8.070 3.260 C 7.649 3.055,7.427 2.988,6.752 2.864 L 6.675 2.850 6.838 2.670 C 7.048 2.438,7.090 2.353,7.089 2.170 C 7.087 1.941,6.962 1.741,6.758 1.645 C 6.659 1.598,6.467 1.576,6.357 1.598 " fill="#1A1C1F" stroke="none" fill-rule="evenodd"></path></svg>