<svg xmlns="http://www.w3.org/2000/svg" width="12" height="12" fill="none"><g clip-path="url(#a)"><path fill="#1A1C1F" fill-rule="evenodd" d="M2.416 9.297c.388 0 .623-.33.623-.577 0-.282-.448-.964-.448-1.727 0-1.622 1.234-2.844 2.74-2.985l-.413.388c-.094.117-.176.27-.176.423 0 .306.282.575.6.575a.62.62 0 0 0 .43-.168l1.313-1.32a.61.61 0 0 0 .118-.637.5.5 0 0 0-.122-.178l-1.328-1.34a.57.57 0 0 0-.41-.175c-.33 0-.6.27-.6.6a.57.57 0 0 0 .175.41l.27.27a4.14 4.14 0 0 0-3.76 4.138c0 .833.318 2.303.988 2.303m2.573 1.127h1.164a.58.58 0 0 0 .576-.588.59.59 0 0 0-.588-.587V6.935a.57.57 0 0 0-.896-.473l-.607.406a.57.57 0 0 0-.26.48c0 .34.282.597.61.587v1.315c-.328 0-.575.27-.575.6 0 .306.247.575.576.575M8.95 6.3c.965 0 1.623.681 1.623 1.728v.657c0 1.057-.682 1.74-1.68 1.74-.905 0-1.564-.694-1.564-1.716v-.727c0-1 .681-1.68 1.622-1.68zm-.011 1.173c-.258.006-.434.072-.434.495v.74c0 .412.129.538.446.531.282-.005.434-.143.434-.566v-.658c0-.494-.235-.549-.447-.543" clip-rule="evenodd"/></g><defs><clipPath id="a"><path fill="#fff" d="M0 0h12v12H0z"/></clipPath></defs></svg>