<svg xmlns="http://www.w3.org/2000/svg" width="32" height="32" fill="none"><path fill="#1A1C1F" fill-rule="evenodd" d="M14.07 5.122a.95.95 0 0 0-.512.748c-.043.451.069.638.841 1.409.382.381.694.711.694.734 0 .022-.21.04-.468.04-1.681 0-3.787.625-5.345 1.587-1.442.889-2.77 2.201-3.625 3.579a10.93 10.93 0 0 0-1.091 9.228 10.9 10.9 0 0 0 1.934 3.5c.505.611.875.736 1.419.477.37-.175.579-.676.487-1.167-.021-.115-.158-.342-.346-.577a9.2 9.2 0 0 1-1.88-3.933c-.105-.49-.121-.715-.122-1.787-.001-1.075.014-1.294.118-1.769a9.1 9.1 0 0 1 1.352-3.197c.529-.797 1.609-1.876 2.417-2.414 1.458-.972 2.966-1.47 4.644-1.534l.8-.031-.838.846c-.513.517-.87.923-.92 1.044-.284.686.17 1.375.904 1.375.134 0 .321-.033.415-.074.096-.042.948-.854 1.916-1.827 1.621-1.629 1.747-1.768 1.78-1.978l.038-.24a4 4 0 0 0-.036-.254c-.036-.229-.121-.324-1.755-1.966-1.125-1.13-1.791-1.76-1.931-1.826-.274-.128-.64-.125-.89.007m9.262 10.931c-1.495.219-2.648 1.194-3.124 2.64-.119.361-.124.448-.143 2.572-.021 2.408.003 2.696.285 3.409.471 1.194 1.419 1.969 2.741 2.243.493.102 1.574.068 2.056-.063 1.486-.407 2.512-1.541 2.776-3.067.07-.409.081-.84.064-2.553-.024-2.305-.038-2.41-.45-3.248-.686-1.395-2.425-2.195-4.205-1.933m-10.308 1.074c-.871.444-1.65.868-1.73.942-.08.075-.185.24-.233.366-.185.483.03.972.537 1.22.403.197.549.166 1.525-.323l.797-.399v6.08l-1.053.002c-.907.001-1.084.014-1.269.099-.741.336-.754 1.394-.021 1.768.205.104.293.107 3.507.093l3.298-.015.197-.15q.546-.416.381-1.067c-.073-.289-.233-.482-.518-.628-.176-.091-.322-.102-1.345-.102H15.95l-.015-3.986c-.014-3.592-.024-4.003-.103-4.147-.194-.35-.55-.56-.952-.56-.245 0-.428.08-1.856.807m12.174 1.108c.358.176.556.402.713.815.075.195.091.533.105 2.23.012 1.369-.002 2.1-.044 2.318-.19.977-.819 1.425-1.999 1.424-.957-.001-1.443-.239-1.746-.853l-.174-.353-.016-2.124c-.019-2.333-.002-2.519.272-2.978.325-.543 1.042-.771 2.136-.679.31.026.505.078.753.2"/></svg>