<svg xmlns="http://www.w3.org/2000/svg" width="12" height="12" fill="none"><g clip-path="url(#a)"><path fill="#1A1C1F" fill-rule="evenodd" d="M9.735 9.225c-.388 0-.623-.33-.623-.576 0-.282.447-.964.447-1.727 0-1.622-1.234-2.844-2.738-2.985l.41.387c.095.118.177.27.177.423 0 .306-.282.576-.6.576a.62.62 0 0 1-.43-.168l-1.313-1.32a.6.6 0 0 1-.16-.427c0-.153.058-.282.163-.388l1.33-1.34a.57.57 0 0 1 .41-.176c.33 0 .6.27.6.6a.57.57 0 0 1-.177.41l-.27.27a4.14 4.14 0 0 1 3.76 4.138l-.005.187c-.042.85-.359 2.116-.98 2.116M2.822 6.23c.76 0 1.31.497 1.31 1.183q0 .374-.38.653c.346.192.555.485.555.831 0 1.482-1.807 1.57-2.4 1.598h-.03a.586.586 0 1 1-.027-1.17c.845-.04 1.287-.165 1.287-.37 0-.082-.052-.173-.164-.173-.304 0-.42.102-.604.102a.59.59 0 0 1-.569-.582c0-.25.183-.47.453-.526.45-.092.726-.196.726-.28 0-.045-.055-.096-.183-.096-.354 0-.573.226-.848.226a.59.59 0 0 1-.57-.587c0-.212.12-.422.326-.523.396-.196.752-.286 1.118-.286m3.644-.002c.964 0 1.623.682 1.623 1.728v.658c0 1.057-.68 1.74-1.68 1.74-.905 0-1.563-.694-1.563-1.717V7.91c0-1 .681-1.68 1.621-1.68zm-.01 1.173-.052.002c-.23.015-.384.1-.384.494v.74c0 .412.13.538.446.531.282-.005.435-.143.435-.566v-.658c0-.494-.235-.549-.446-.543" clip-rule="evenodd"/></g><defs><clipPath id="a"><path fill="#fff" d="M0 0h12v12H0z"/></clipPath></defs></svg>