<svg xmlns="http://www.w3.org/2000/svg" width="12" height="12" fill="none"><g clip-path="url(#a)"><path fill="#1A1C1F" fill-rule="evenodd" d="M9.222 2.99a1.204 1.204 0 0 1 1.204 1.204v3.612a1.205 1.205 0 0 1-1.887.991L6.603 7.462v.344a1.205 1.205 0 0 1-1.888.991l-2.62-1.806a1.204 1.204 0 0 1 0-1.982l2.62-1.806a1.21 1.21 0 0 1 1.243-.075c.396.208.645.62.645 1.066v.344l1.936-1.335c.204-.14.443-.213.683-.213M5.4 4.194 2.779 6l2.62 1.806zm3.823 0L6.602 6l2.62 1.806V4.194" clip-rule="evenodd"/></g><defs><clipPath id="a"><path fill="#fff" d="M0 0h12v12H0z"/></clipPath></defs></svg>