<svg width="14" height="14" viewBox="0 0 14 14" fill="none" xmlns="http://www.w3.org/2000/svg"><path d="M6.069 3.526 C 5.843 3.560,5.636 3.669,5.074 4.048 C 3.859 4.868,2.369 5.920,2.241 6.048 C 2.122 6.167,1.992 6.380,1.932 6.552 C 1.887 6.683,1.878 6.756,1.878 7.000 C 1.878 7.338,1.924 7.508,2.075 7.739 C 2.245 8.000,2.382 8.105,4.037 9.243 C 5.757 10.426,5.701 10.392,6.032 10.466 C 6.691 10.612,7.391 10.205,7.622 9.541 C 7.670 9.405,7.685 9.308,7.694 9.077 C 7.701 8.916,7.713 8.772,7.721 8.756 C 7.731 8.737,7.982 8.898,8.482 9.243 C 10.022 10.308,10.207 10.421,10.508 10.478 C 10.780 10.530,11.078 10.480,11.380 10.333 C 11.684 10.185,11.942 9.898,12.063 9.574 C 12.151 9.338,12.163 8.973,12.151 6.746 C 12.141 4.837,12.136 4.644,12.099 4.527 C 11.930 3.997,11.528 3.640,10.977 3.531 C 10.746 3.486,10.524 3.505,10.280 3.591 C 10.136 3.642,9.575 4.008,8.437 4.793 C 7.998 5.097,7.733 5.266,7.723 5.249 C 7.714 5.235,7.701 5.090,7.693 4.928 C 7.685 4.763,7.662 4.575,7.641 4.503 C 7.512 4.070,7.126 3.693,6.678 3.561 C 6.513 3.513,6.253 3.498,6.069 3.526 " fill="#1A1C1F" stroke="none" fill-rule="evenodd"></path></svg>