<svg xmlns="http://www.w3.org/2000/svg" width="32" height="32" fill="none"><path fill="#1A1C1F" fill-rule="evenodd" d="M14.546 8.058a2.3 2.3 0 0 0-.427.162c-.397.202-8.962 6.13-9.228 6.386-.775.749-.783 2.024-.016 2.776.132.129 2.251 1.623 4.709 3.32 4.983 3.439 4.822 3.344 5.58 3.281a2.06 2.06 0 0 0 1.698-1.25c.119-.296.124-.376.151-2.29l.027-1.984 3.867 2.666c4.125 2.843 4.177 2.875 4.8 2.875.356 0 .886-.179 1.186-.401.308-.227.53-.523.692-.925l.122-.301.015-6.101c.009-3.746-.005-6.245-.037-6.475-.13-.935-.743-1.586-1.653-1.755a2 2 0 0 0-1.232.189c-.132.069-1.932 1.294-4 2.721l-3.76 2.595-.027-1.987c-.027-1.913-.032-1.998-.15-2.291-.358-.891-1.389-1.43-2.317-1.211m.428 10.93-.014 2.987-4.293-2.96c-2.362-1.628-4.294-2.983-4.294-3.012s1.932-1.385 4.294-3.013l4.293-2.961.014 2.986c.007 1.642.007 4.329 0 5.973m10.713 2.969c-.011.011-1.965-1.319-4.341-2.955-3.315-2.282-4.308-2.99-4.261-3.039.034-.035 1.982-1.387 4.328-3.004l4.267-2.94.014 5.959c.007 3.278.004 5.968-.007 5.979"/></svg>