<svg width="28" height="28" viewBox="0 0 28 28" fill="none" xmlns="http://www.w3.org/2000/svg"><path d="M12.740 7.274 C 12.428 7.343,12.611 7.223,8.610 9.981 C 4.470 12.835,4.413 12.879,4.189 13.382 C 4.052 13.693,4.052 14.307,4.189 14.618 C 4.408 15.109,4.469 15.157,8.097 17.670 C 10.893 19.607,12.131 20.444,12.430 20.599 C 12.903 20.844,13.574 20.809,14.041 20.514 C 14.290 20.356,14.597 20.002,14.726 19.726 C 14.838 19.485,14.839 19.474,14.840 17.920 C 14.841 17.060,14.854 16.308,14.870 16.249 C 14.887 16.187,14.924 16.151,14.959 16.164 C 14.992 16.177,16.160 16.972,17.554 17.932 C 21.900 20.922,21.604 20.743,22.213 20.743 C 22.598 20.743,22.693 20.727,22.926 20.617 C 23.264 20.459,23.608 20.109,23.796 19.734 L 23.940 19.445 23.940 14.000 L 23.940 8.555 23.791 8.256 C 23.602 7.879,23.270 7.544,22.924 7.383 C 22.693 7.275,22.596 7.258,22.213 7.257 C 21.808 7.257,21.750 7.268,21.537 7.392 C 21.222 7.575,19.052 9.040,16.777 10.607 C 14.945 11.868,14.909 11.890,14.881 11.768 C 14.864 11.699,14.849 10.938,14.846 10.076 L 14.840 8.508 14.698 8.224 C 14.518 7.864,14.093 7.461,13.782 7.354 C 13.519 7.264,12.974 7.223,12.740 7.274 " fill="#1A1C1F" stroke="none" fill-rule="evenodd"></path></svg>