<svg width="28" height="28" viewBox="0 0 28 28" fill="none" xmlns="http://www.w3.org/2000/svg"><path d="M12.343 4.460 C 12.015 4.631,11.853 4.889,11.854 5.237 C 11.856 5.565,11.995 5.775,12.618 6.393 C 12.942 6.713,13.207 6.991,13.207 7.011 C 13.207 7.031,13.006 7.047,12.760 7.047 C 11.909 7.047,10.706 7.282,9.777 7.630 C 6.846 8.729,4.619 11.172,3.827 14.160 C 3.628 14.909,3.546 15.468,3.515 16.287 C 3.428 18.622,4.220 20.957,5.696 22.720 C 6.130 23.238,6.457 23.345,6.928 23.121 C 7.251 22.968,7.434 22.529,7.354 22.100 C 7.335 21.999,7.216 21.800,7.051 21.595 C 6.211 20.547,5.686 19.450,5.406 18.153 C 5.313 17.725,5.300 17.528,5.299 16.590 C 5.298 15.406,5.352 15.031,5.652 14.128 C 6.414 11.836,8.320 9.943,10.640 9.174 C 11.397 8.924,11.976 8.819,12.763 8.789 L 13.463 8.763 12.730 9.503 C 12.281 9.956,11.969 10.311,11.925 10.417 C 11.677 11.017,12.074 11.620,12.717 11.620 C 12.834 11.620,12.997 11.591,13.080 11.555 C 13.163 11.519,13.909 10.808,14.756 9.957 C 16.175 8.532,16.285 8.409,16.314 8.226 C 16.331 8.117,16.346 8.023,16.347 8.016 C 16.348 8.009,16.334 7.909,16.316 7.793 C 16.284 7.593,16.210 7.511,14.780 6.075 C 13.953 5.245,13.199 4.526,13.104 4.477 C 12.893 4.367,12.537 4.360,12.343 4.460 " fill="#1A1C1F" stroke="none" fill-rule="evenodd"></path></svg>