<svg width="24" height="24" viewBox="0 0 24 24" fill="none" xmlns="http://www.w3.org/2000/svg"><path d="M4.692 6.075 C 4.165 6.229,3.644 6.655,3.410 7.121 C 3.308 7.324,3.271 7.462,3.241 7.760 C 3.188 8.265,3.189 15.739,3.241 16.235 C 3.294 16.740,3.426 17.013,3.798 17.385 C 4.113 17.700,4.373 17.847,4.787 17.944 C 5.106 18.019,5.515 18.001,5.820 17.898 C 6.052 17.819,6.834 17.305,9.220 15.660 C 10.937 14.476,10.940 14.474,10.965 14.587 C 10.979 14.649,10.993 15.006,10.996 15.380 C 10.999 15.754,11.020 16.185,11.042 16.337 C 11.209 17.496,12.492 18.272,13.620 17.896 C 13.842 17.822,14.536 17.370,16.480 16.033 C 19.759 13.778,20.238 13.427,20.443 13.120 C 20.859 12.497,20.903 11.729,20.559 11.084 C 20.393 10.773,20.242 10.620,19.716 10.230 C 18.598 9.402,14.075 6.311,13.776 6.170 C 13.555 6.067,13.506 6.060,12.998 6.060 L 12.456 6.060 12.158 6.209 C 11.792 6.392,11.535 6.609,11.340 6.902 C 11.064 7.319,11.033 7.466,11.005 8.527 C 10.991 9.048,10.968 9.486,10.954 9.500 C 10.939 9.514,9.950 8.850,8.754 8.025 C 6.362 6.374,6.047 6.171,5.769 6.099 C 5.408 6.005,4.963 5.996,4.692 6.075 M10.530 11.689 C 10.745 11.842,10.920 11.980,10.920 11.996 C 10.920 12.045,10.273 12.502,7.320 14.538 C 6.209 15.304,5.277 15.949,5.250 15.970 C 5.210 16.002,5.200 15.204,5.200 12.008 L 5.200 8.005 7.670 9.708 C 9.029 10.645,10.316 11.536,10.530 11.689 M15.200 9.521 C 17.357 11.006,18.711 11.952,18.735 11.992 C 18.754 12.023,18.042 12.526,15.180 14.500 C 14.102 15.243,13.171 15.886,13.110 15.929 L 13.000 16.005 13.000 11.999 L 13.000 7.993 13.190 8.131 C 13.295 8.206,14.199 8.832,15.200 9.521 " fill="#1A1C1F" stroke="none" fill-rule="evenodd"></path></svg>