<svg width="16" height="16" viewBox="0 0 16 16" fill="none" xmlns="http://www.w3.org/2000/svg"><path d="M3.406 4.041 C 3.105 4.101,2.843 4.245,2.611 4.477 C 2.383 4.705,2.292 4.848,2.192 5.127 L 2.124 5.320 2.112 7.708 C 2.097 10.756,2.103 10.831,2.376 11.254 C 2.722 11.790,3.391 12.089,3.991 11.975 C 4.335 11.910,4.546 11.781,6.306 10.564 C 6.900 10.153,7.164 9.985,7.178 10.007 C 7.190 10.025,7.200 10.142,7.201 10.267 C 7.204 10.926,7.433 11.391,7.912 11.715 C 8.189 11.902,8.457 11.984,8.800 11.985 C 9.252 11.987,9.352 11.945,10.123 11.426 C 10.858 10.931,12.131 10.054,12.747 9.617 C 13.203 9.294,13.392 9.145,13.493 9.030 C 13.989 8.466,13.989 7.540,13.493 6.969 C 13.359 6.815,12.335 6.082,10.547 4.863 C 9.375 4.064,9.279 4.017,8.813 4.016 C 8.505 4.016,8.323 4.061,8.040 4.209 C 7.695 4.389,7.379 4.773,7.268 5.147 C 7.244 5.227,7.217 5.443,7.209 5.627 C 7.200 5.810,7.185 5.975,7.175 5.994 C 7.162 6.018,6.904 5.854,6.318 5.450 C 4.903 4.474,4.386 4.139,4.230 4.093 C 3.899 3.997,3.693 3.984,3.406 4.041 " fill="#1A1C1F" stroke="none" fill-rule="evenodd"></path></svg>