<svg xmlns="http://www.w3.org/2000/svg" width="14" height="14" fill="none"><g clip-path="url(#a)"><path fill="#1A1C1F" fill-rule="evenodd" d="M10.747 3.5a1.4 1.4 0 0 1 1.4 1.4v4.2a1.4 1.4 0 0 1-2.195 1.153L7.7 8.7v.4a1.4 1.4 0 0 1-2.195 1.153l-3.046-2.1a1.4 1.4 0 0 1 0-2.306l3.046-2.1A1.403 1.403 0 0 1 7.7 4.9v.4l2.25-1.553c.239-.164.516-.247.796-.247M6.3 4.9 3.254 7 6.3 9.1zm4.446 0L7.7 7l3.046 2.1z" clip-rule="evenodd"/></g><defs><clipPath id="a"><path fill="#fff" d="M0 0h14v14H0z"/></clipPath></defs></svg>