<svg width="28" height="28" viewBox="0 0 28 28" fill="none" xmlns="http://www.w3.org/2000/svg"><path d="M5.087 7.074 C 4.504 7.229,4.056 7.646,3.861 8.213 L 3.757 8.517 3.744 14.006 C 3.730 19.443,3.731 19.497,3.826 19.750 C 3.960 20.109,4.230 20.475,4.496 20.657 C 4.775 20.848,5.250 21.000,5.571 21.000 C 6.037 21.000,6.299 20.837,10.518 17.926 C 11.901 16.972,13.045 16.203,13.060 16.218 C 13.075 16.233,13.101 17.005,13.117 17.934 C 13.151 19.802,13.156 19.834,13.466 20.256 C 13.922 20.879,14.724 21.150,15.376 20.904 C 15.764 20.757,19.688 18.105,22.880 15.832 C 24.070 14.985,24.190 14.817,24.194 14.000 C 24.196 13.421,24.113 13.201,23.759 12.843 C 23.425 12.505,16.228 7.519,15.568 7.168 C 15.366 7.061,15.286 7.047,14.875 7.047 C 14.471 7.047,14.380 7.062,14.175 7.165 C 13.851 7.327,13.604 7.532,13.437 7.774 C 13.157 8.182,13.150 8.226,13.117 10.066 C 13.101 10.995,13.074 11.768,13.058 11.785 C 13.041 11.801,11.771 10.948,10.236 9.890 C 8.700 8.832,7.223 7.814,6.953 7.629 C 6.362 7.223,6.166 7.121,5.843 7.052 C 5.530 6.986,5.405 6.990,5.087 7.074 M8.540 10.843 C 12.766 13.749,13.017 13.925,13.019 13.981 C 13.021 14.051,12.457 14.463,10.687 15.688 C 7.094 18.173,5.593 19.189,5.563 19.158 C 5.545 19.140,5.523 16.794,5.515 13.945 C 5.503 9.677,5.512 8.771,5.562 8.801 C 5.596 8.821,6.936 9.740,8.540 10.843 M17.663 10.678 C 21.147 13.078,22.400 13.955,22.400 13.995 C 22.400 14.041,19.762 15.894,16.427 18.190 L 14.910 19.234 14.896 14.645 C 14.888 12.122,14.895 9.777,14.912 9.436 L 14.943 8.816 15.067 8.895 C 15.134 8.939,16.303 9.741,17.663 10.678 " fill="#1A1C1F" stroke="none" fill-rule="evenodd"></path></svg>