<svg width="20" height="20" viewBox="0 0 20 20" fill="none" xmlns="http://www.w3.org/2000/svg"><path d="M8.642 2.700 C 8.376 2.756,8.106 3.003,7.971 3.315 C 7.906 3.467,7.919 3.841,7.996 4.015 C 8.033 4.099,8.187 4.294,8.352 4.465 C 8.542 4.662,8.626 4.771,8.596 4.781 C 8.571 4.790,8.424 4.814,8.269 4.834 C 6.744 5.035,5.130 5.924,4.084 7.140 C 3.682 7.606,3.437 7.977,3.143 8.560 C 2.383 10.066,2.211 11.734,2.637 13.464 C 2.971 14.821,3.504 15.524,4.148 15.457 C 4.618 15.409,5.064 14.983,5.066 14.582 C 5.067 14.397,5.003 14.169,4.783 13.566 C 4.422 12.577,4.314 11.969,4.371 11.250 C 4.550 8.990,6.138 7.234,8.426 6.768 C 8.610 6.731,8.779 6.700,8.801 6.700 C 8.824 6.700,8.678 6.869,8.478 7.077 C 8.035 7.534,7.933 7.712,7.933 8.033 C 7.933 8.458,8.205 8.805,8.640 8.938 C 8.908 9.019,9.087 9.005,9.359 8.882 C 9.499 8.819,9.675 8.662,10.206 8.126 C 11.196 7.128,11.937 6.333,11.985 6.218 C 12.057 6.045,12.075 5.818,12.033 5.617 C 11.998 5.448,11.962 5.390,11.722 5.121 C 11.210 4.548,9.445 2.802,9.329 2.753 C 9.180 2.692,8.819 2.664,8.642 2.700 M14.151 10.600 C 13.488 10.781,12.907 11.230,12.557 11.833 C 12.431 12.050,12.274 12.556,12.234 12.874 C 12.192 13.211,12.191 14.428,12.233 14.891 C 12.268 15.277,12.405 15.733,12.582 16.050 C 12.806 16.451,13.254 16.884,13.650 17.083 C 14.031 17.274,14.245 17.316,14.833 17.316 C 15.441 17.316,15.656 17.271,16.123 17.047 C 16.817 16.715,17.262 16.148,17.495 15.302 C 17.581 14.988,17.582 14.969,17.580 13.900 C 17.578 12.903,17.572 12.796,17.507 12.559 C 17.346 11.971,17.158 11.628,16.800 11.266 C 16.513 10.975,16.198 10.777,15.817 10.645 C 15.571 10.561,15.504 10.553,14.967 10.545 C 14.478 10.538,14.346 10.546,14.151 10.600 M9.083 10.630 C 8.997 10.645,8.781 10.761,8.471 10.961 C 7.772 11.412,7.512 11.612,7.437 11.759 C 7.353 11.924,7.294 12.250,7.321 12.399 C 7.371 12.677,7.603 12.980,7.868 13.118 C 7.927 13.148,8.055 13.181,8.154 13.191 L 8.333 13.209 8.333 14.305 C 8.333 15.341,8.330 15.400,8.273 15.400 C 8.090 15.400,7.854 15.511,7.685 15.677 C 7.256 16.098,7.271 16.754,7.718 17.120 C 7.973 17.329,8.035 17.341,8.917 17.358 C 9.357 17.366,9.907 17.358,10.140 17.340 C 10.502 17.313,10.586 17.295,10.713 17.221 C 11.509 16.754,11.282 15.588,10.361 15.416 L 10.239 15.394 10.228 13.338 L 10.216 11.283 10.141 11.143 C 9.934 10.754,9.527 10.557,9.083 10.630 M15.266 12.525 C 15.330 12.557,15.425 12.645,15.477 12.721 C 15.569 12.851,15.575 12.884,15.606 13.387 C 15.640 13.937,15.620 14.601,15.561 14.876 C 15.521 15.066,15.407 15.212,15.224 15.305 C 15.113 15.361,15.042 15.371,14.814 15.362 C 14.509 15.349,14.412 15.302,14.275 15.100 C 14.201 14.992,14.200 14.975,14.200 13.927 C 14.200 12.786,14.202 12.769,14.376 12.607 C 14.486 12.503,14.603 12.473,14.900 12.470 C 15.076 12.468,15.184 12.484,15.266 12.525 " fill="#1A1C1F" stroke="none" fill-rule="evenodd"></path></svg>