<svg xmlns="http://www.w3.org/2000/svg" width="14" height="14" fill="none"><g clip-path="url(#a)"><path fill="#1A1C1F" fill-rule="evenodd" d="M2.833 10.774c.45 0 .724-.383.724-.67 0-.328-.52-1.12-.52-2.01 0-1.884 1.436-3.305 3.185-3.47l-.48.45c-.108.138-.204.316-.204.493 0 .356.328.67.697.67a.72.72 0 0 0 .502-.195L8.26 4.505a.71.71 0 0 0 .139-.74.6.6 0 0 0-.141-.206L6.712 2a.66.66 0 0 0-.477-.205.7.7 0 0 0-.697.697c0 .178.069.342.205.478l.315.314a4.815 4.815 0 0 0-4.373 4.81c0 .97.369 2.679 1.148 2.679m3.34-3.53c.884 0 1.524.58 1.524 1.377q0 .434-.441.759c.4.224.645.565.645.967 0 1.722-2.102 1.823-2.792 1.857h-.033a.68.68 0 0 1-.033-1.36c.983-.047 1.497-.192 1.497-.43 0-.096-.06-.201-.19-.201-.354 0-.49.118-.703.118a.686.686 0 0 1-.662-.677c0-.291.213-.547.527-.612.522-.106.844-.227.844-.326 0-.051-.063-.11-.212-.11-.412 0-.666.262-.986.262a.69.69 0 0 1-.664-.682c0-.247.14-.49.38-.61.46-.226.874-.332 1.3-.332m4.258.045c1.12 0 1.885.793 1.885 2.009v.765c0 1.23-.793 2.023-1.955 2.023-1.051 0-1.816-.807-1.816-1.995v-.848c0-1.161.792-1.954 1.886-1.954m.043 1.364h-.058c-.3.007-.505.085-.505.577v.86c0 .479.15.625.52.618.327-.006.505-.167.505-.658v-.766c0-.574-.274-.637-.52-.631z" clip-rule="evenodd"/></g><defs><clipPath id="a"><path fill="#fff" d="M0 0h14v14H0z"/></clipPath></defs></svg>