<svg width="24" height="24" viewBox="0 0 24 24" fill="none" xmlns="http://www.w3.org/2000/svg"><path d="M13.660 3.053 C 13.387 3.160,13.254 3.275,12.440 4.108 C 11.380 5.193,10.889 5.731,10.839 5.863 C 10.817 5.919,10.800 6.077,10.800 6.213 C 10.801 6.416,10.823 6.499,10.925 6.676 C 11.053 6.899,12.509 8.411,13.165 9.002 C 13.463 9.269,13.541 9.319,13.728 9.357 C 14.325 9.482,14.861 9.075,14.912 8.457 C 14.936 8.170,14.813 7.923,14.440 7.508 C 14.286 7.337,14.160 7.180,14.160 7.158 C 14.160 7.106,14.252 7.110,14.645 7.179 C 15.885 7.395,16.954 7.961,17.871 8.886 C 18.296 9.315,18.614 9.762,18.912 10.350 C 19.398 11.306,19.535 11.901,19.538 13.060 C 19.540 13.648,19.524 13.896,19.468 14.155 C 19.239 15.217,18.802 16.084,18.007 17.054 C 17.635 17.509,17.552 17.673,17.550 17.957 C 17.548 18.202,17.675 18.508,17.847 18.668 C 18.004 18.815,18.314 18.931,18.546 18.928 C 18.837 18.926,19.097 18.776,19.443 18.412 C 20.417 17.386,21.106 16.031,21.421 14.520 C 21.608 13.622,21.598 12.293,21.397 11.387 C 20.801 8.701,18.932 6.554,16.337 5.577 C 15.841 5.391,14.658 5.122,14.326 5.120 C 14.297 5.120,14.394 4.989,14.542 4.830 C 14.823 4.528,14.999 4.219,15.000 4.028 C 15.002 3.477,14.490 2.991,13.923 3.003 C 13.844 3.005,13.726 3.027,13.660 3.053 " fill="#1A1C1F" stroke="none" fill-rule="evenodd"></path></svg>