<svg width="48" height="48" viewBox="0 0 48 48" fill="none" xmlns="http://www.w3.org/2000/svg"><path d="M22.068 11.151 C 21.531 11.343,5.850 22.169,5.240 22.769 C 4.774 23.228,4.665 24.251,5.011 24.927 C 5.242 25.378,5.954 25.891,14.800 31.973 C 21.811 36.793,21.976 36.901,22.407 36.943 C 23.298 37.028,24.037 36.677,24.483 35.955 L 24.667 35.658 24.717 30.952 C 24.745 28.363,24.789 26.224,24.815 26.198 C 24.841 26.172,27.486 27.960,30.691 30.171 C 40.400 36.868,40.757 37.096,41.400 36.995 C 42.143 36.877,42.743 36.419,43.119 35.682 L 43.285 35.356 43.262 24.018 C 43.237 11.745,43.265 12.477,42.808 11.823 C 42.432 11.287,41.528 10.946,40.829 11.077 C 40.478 11.143,38.150 12.697,30.414 18.031 C 27.364 20.135,24.845 21.832,24.817 21.803 C 24.788 21.774,24.745 19.655,24.721 17.094 L 24.677 12.438 24.457 12.062 C 23.959 11.212,22.961 10.832,22.068 11.151 M22.667 15.053 C 22.735 17.546,22.735 30.406,22.667 32.966 L 22.615 34.931 17.328 31.290 C 9.140 25.650,6.930 24.110,6.900 24.021 C 6.886 23.977,8.774 22.626,11.097 21.021 C 20.327 14.641,22.522 13.130,22.567 13.125 C 22.593 13.122,22.638 13.990,22.667 15.053 M41.183 25.773 C 41.170 30.731,41.137 34.810,41.109 34.838 C 41.063 34.884,32.550 29.053,27.800 25.721 C 25.509 24.114,25.440 24.064,25.440 23.999 C 25.440 23.931,29.221 21.284,35.720 16.804 L 41.080 13.109 41.143 14.935 C 41.178 15.939,41.196 20.816,41.183 25.773 " fill="#1A1C1F" stroke="none" fill-rule="evenodd"></path></svg>