<svg xmlns="http://www.w3.org/2000/svg" width="64" height="64" fill="none"><g clip-path="url(#a)"><path fill="#1A1C1F" fill-rule="evenodd" d="M33.5 16c.597 0 1.193.178 1.703.53l18.857 13a3 3 0 0 1 0 4.94l-18.857 13a2.997 2.997 0 0 1-4.27-.919A3 3 0 0 1 30.5 45v-9.356L13.345 47.47a2.99 2.99 0 0 1-3.097.186A3 3 0 0 1 8.643 45V19a3 3 0 0 1 4.702-2.47L30.5 28.356V19a3 3 0 0 1 3-3m0 3v26l18.857-13zm-21.857 0v26L30.5 32z" clip-rule="evenodd"/></g><defs><clipPath id="a"><path fill="#fff" d="M0 0h64v64H0z"/></clipPath></defs></svg>