<svg width="12" height="12" viewBox="0 0 12 12" fill="none" xmlns="http://www.w3.org/2000/svg"><path d="M5.219 3.020 C 4.967 3.060,4.881 3.107,4.090 3.647 C 2.743 4.565,2.011 5.091,1.883 5.231 C 1.634 5.503,1.540 5.919,1.640 6.308 C 1.716 6.607,1.848 6.779,2.198 7.038 C 2.458 7.230,3.430 7.904,4.258 8.467 C 4.975 8.955,5.045 8.987,5.400 8.989 C 5.751 8.991,6.002 8.881,6.270 8.610 C 6.495 8.381,6.597 8.099,6.600 7.700 C 6.600 7.606,6.608 7.519,6.616 7.505 C 6.628 7.487,6.749 7.561,7.041 7.763 C 7.865 8.332,8.553 8.796,8.660 8.857 C 8.790 8.930,9.065 9.000,9.220 9.000 C 9.280 8.999,9.389 8.986,9.460 8.969 C 9.893 8.867,10.226 8.543,10.380 8.073 L 10.424 7.936 10.415 5.973 L 10.406 4.010 10.354 3.850 C 10.290 3.654,10.211 3.526,10.063 3.374 C 9.751 3.053,9.290 2.932,8.870 3.060 C 8.693 3.114,8.398 3.302,7.231 4.108 C 6.817 4.393,6.628 4.513,6.619 4.495 C 6.611 4.481,6.600 4.357,6.594 4.219 C 6.577 3.828,6.483 3.602,6.241 3.360 C 5.974 3.094,5.580 2.963,5.219 3.020 " fill="#1A1C1F" stroke="none" fill-rule="evenodd"></path></svg>