<svg width="24" height="24" viewBox="0 0 24 24" fill="none" xmlns="http://www.w3.org/2000/svg"><path d="M9.834 3.062 C 9.574 3.143,9.264 3.432,9.184 3.668 C 9.050 4.060,9.146 4.356,9.554 4.815 C 9.688 4.966,9.789 5.106,9.777 5.125 C 9.765 5.144,9.700 5.160,9.633 5.160 C 9.565 5.160,9.286 5.205,9.011 5.261 C 7.400 5.587,5.949 6.365,4.800 7.520 C 3.604 8.721,2.803 10.349,2.578 12.035 C 2.511 12.538,2.503 13.564,2.562 14.041 C 2.773 15.749,3.512 17.325,4.694 18.588 C 5.076 18.997,5.431 19.135,5.812 19.024 C 6.067 18.949,6.285 18.774,6.430 18.527 C 6.519 18.375,6.540 18.291,6.540 18.080 C 6.540 17.750,6.489 17.647,6.058 17.119 C 5.359 16.261,4.966 15.527,4.701 14.583 C 4.502 13.874,4.497 12.333,4.692 11.640 C 5.274 9.570,6.760 8.001,8.701 7.406 C 9.153 7.267,9.751 7.149,9.905 7.167 C 10.004 7.179,9.995 7.195,9.704 7.520 C 9.295 7.978,9.182 8.207,9.211 8.522 C 9.274 9.223,9.994 9.634,10.630 9.333 C 10.925 9.193,13.148 6.922,13.285 6.620 C 13.368 6.437,13.379 6.088,13.307 5.890 C 13.281 5.819,13.089 5.570,12.881 5.337 C 12.312 4.700,10.731 3.160,10.587 3.101 C 10.376 3.016,10.040 2.998,9.834 3.062 " fill="#1A1C1F" stroke="none" fill-rule="evenodd"></path></svg>