<svg width="64" height="64" viewBox="0 0 64 64" fill="none" xmlns="http://www.w3.org/2000/svg"><path d="M10.741 16.148 C 10.067 16.399,9.478 16.875,9.075 17.493 L 8.693 18.080 8.665 31.879 L 8.638 45.679 8.869 46.142 C 9.470 47.346,10.359 47.914,11.654 47.923 C 12.173 47.926,12.551 47.868,12.801 47.747 C 13.006 47.648,15.322 46.092,17.948 44.290 C 20.575 42.488,24.429 39.844,26.514 38.414 C 28.599 36.985,30.338 35.849,30.379 35.890 C 30.420 35.931,30.477 38.180,30.507 40.889 C 30.560 45.787,30.561 45.816,30.810 46.321 C 31.065 46.838,31.649 47.389,32.320 47.745 C 32.587 47.886,32.923 47.943,33.496 47.945 L 34.299 47.947 35.434 47.223 C 39.239 44.797,53.931 34.585,54.600 33.900 C 54.996 33.496,55.360 32.584,55.360 32.000 C 55.360 31.529,55.024 30.567,54.743 30.233 C 54.482 29.923,53.511 29.218,49.067 26.116 C 42.245 21.354,35.707 16.875,34.871 16.390 C 34.453 16.148,34.258 16.107,33.532 16.107 C 32.831 16.107,32.584 16.155,32.128 16.383 C 31.492 16.700,30.879 17.361,30.709 17.913 C 30.636 18.149,30.564 20.160,30.518 23.223 C 30.477 25.934,30.420 28.175,30.392 28.204 C 30.363 28.232,27.797 26.499,24.690 24.352 C 17.772 19.572,13.428 16.635,12.828 16.332 C 12.240 16.035,11.273 15.949,10.741 16.148 " fill="#1A1C1F" stroke="none" fill-rule="evenodd"></path></svg>