<svg width="14" height="14" viewBox="0 0 14 14" fill="none" xmlns="http://www.w3.org/2000/svg"><path d="M6.036 1.892 C 5.857 1.934,5.672 2.108,5.580 2.320 C 5.534 2.427,5.543 2.689,5.597 2.811 C 5.623 2.869,5.731 3.006,5.846 3.125 C 5.980 3.264,6.038 3.340,6.017 3.347 C 5.999 3.353,5.896 3.370,5.788 3.384 C 5.346 3.442,4.814 3.613,4.352 3.843 C 2.931 4.553,1.992 5.849,1.735 7.455 C 1.679 7.806,1.678 8.500,1.734 8.867 C 1.878 9.818,2.192 10.533,2.561 10.750 C 2.714 10.840,2.965 10.843,3.138 10.758 C 3.301 10.677,3.460 10.512,3.508 10.373 C 3.574 10.179,3.560 10.092,3.382 9.595 C 3.016 8.572,2.965 8.108,3.137 7.347 C 3.395 6.203,4.251 5.268,5.407 4.868 C 5.614 4.796,6.071 4.690,6.173 4.690 C 6.192 4.690,6.088 4.808,5.942 4.953 C 5.623 5.269,5.553 5.390,5.553 5.623 C 5.553 5.921,5.743 6.164,6.048 6.256 C 6.236 6.314,6.361 6.304,6.554 6.217 C 6.654 6.171,6.775 6.063,7.170 5.664 C 7.881 4.946,8.355 4.435,8.396 4.341 C 8.445 4.229,8.444 3.909,8.395 3.815 C 8.348 3.726,7.086 2.420,6.768 2.131 C 6.567 1.948,6.515 1.913,6.415 1.892 C 6.279 1.863,6.161 1.863,6.036 1.892 " fill="#1A1C1F" stroke="none" fill-rule="evenodd"></path></svg>