<svg width="28" height="28" viewBox="0 0 28 28" fill="none" xmlns="http://www.w3.org/2000/svg"><path d="M12.368 4.461 C 11.910 4.659,11.726 5.168,11.953 5.613 C 12.008 5.720,12.302 6.062,12.606 6.373 C 12.911 6.683,13.160 6.962,13.160 6.992 C 13.160 7.029,13.047 7.047,12.814 7.047 C 11.938 7.047,10.540 7.331,9.613 7.699 C 5.389 9.373,2.890 13.756,3.639 18.177 C 3.922 19.845,4.595 21.357,5.621 22.627 C 6.044 23.150,6.371 23.316,6.739 23.195 C 7.109 23.073,7.370 22.710,7.372 22.316 C 7.374 22.071,7.299 21.922,6.943 21.454 C 6.164 20.429,5.613 19.224,5.394 18.067 C 5.293 17.532,5.291 15.720,5.391 15.146 C 5.558 14.188,6.083 12.970,6.709 12.087 C 7.111 11.520,7.971 10.660,8.540 10.255 C 9.039 9.900,10.103 9.355,10.658 9.169 C 11.375 8.930,12.362 8.775,13.177 8.774 L 13.452 8.773 12.731 9.512 C 12.335 9.919,11.976 10.326,11.932 10.418 C 11.762 10.777,11.890 11.243,12.221 11.466 C 12.417 11.598,12.633 11.640,12.911 11.598 C 13.121 11.567,13.177 11.516,14.634 10.064 C 15.462 9.239,16.183 8.490,16.236 8.400 C 16.366 8.181,16.366 7.826,16.236 7.607 C 16.183 7.517,15.472 6.778,14.656 5.965 C 13.442 4.757,13.139 4.478,12.991 4.437 C 12.747 4.370,12.562 4.376,12.368 4.461 " fill="#1A1C1F" stroke="none" fill-rule="evenodd"></path></svg>