<svg width="32" height="32" viewBox="0 0 32 32" fill="none" xmlns="http://www.w3.org/2000/svg"><path d="M14.229 5.066 C 13.664 5.236,13.391 5.885,13.661 6.414 C 13.723 6.537,14.059 6.928,14.407 7.283 C 14.755 7.638,15.040 7.957,15.040 7.991 C 15.040 8.033,14.916 8.053,14.665 8.053 C 12.898 8.053,10.632 8.757,9.040 9.800 C 6.201 11.660,4.431 14.553,4.054 17.947 C 3.883 19.488,4.132 21.316,4.728 22.907 C 5.071 23.821,5.764 25.029,6.394 25.813 C 6.906 26.450,7.256 26.640,7.683 26.512 C 8.113 26.383,8.423 25.963,8.425 25.504 C 8.427 25.224,8.342 25.054,7.935 24.518 C 7.044 23.347,6.414 21.970,6.164 20.647 C 6.046 20.022,6.046 17.898,6.164 17.275 C 6.359 16.250,6.889 14.972,7.513 14.027 C 7.863 13.497,8.625 12.650,9.169 12.187 C 10.282 11.238,11.714 10.525,13.079 10.240 C 13.595 10.132,14.580 10.028,15.087 10.027 L 15.373 10.027 14.550 10.871 C 14.098 11.336,13.687 11.801,13.637 11.906 C 13.442 12.316,13.589 12.849,13.967 13.104 C 14.191 13.255,14.438 13.302,14.755 13.255 C 14.995 13.219,15.060 13.161,16.724 11.502 C 17.671 10.559,18.495 9.703,18.556 9.600 C 18.704 9.349,18.704 8.943,18.555 8.693 C 18.494 8.591,17.705 7.769,16.802 6.867 C 15.120 5.188,14.903 5.011,14.533 5.019 C 14.445 5.021,14.308 5.042,14.229 5.066 " fill="#1A1C1F" stroke="none" fill-rule="evenodd"></path></svg>