<svg width="32" height="32" viewBox="0 0 32 32" fill="none" xmlns="http://www.w3.org/2000/svg"><path d="M5.813 8.085 C 5.147 8.262,4.635 8.738,4.413 9.387 L 4.294 9.733 4.278 16.006 C 4.263 22.221,4.264 22.282,4.372 22.572 C 4.526 22.982,4.835 23.400,5.138 23.608 C 5.457 23.827,6.000 24.000,6.367 24.000 C 6.898 24.000,7.182 23.824,12.022 20.488 C 13.603 19.398,14.910 18.519,14.927 18.536 C 14.943 18.552,14.972 19.434,14.990 20.496 C 15.023 22.343,15.029 22.440,15.147 22.746 C 15.234 22.972,15.358 23.153,15.569 23.362 C 16.192 23.981,17.004 24.154,17.731 23.821 C 18.377 23.526,26.641 17.834,27.137 17.344 C 27.264 17.218,27.433 16.978,27.511 16.810 C 27.634 16.548,27.653 16.438,27.653 15.999 C 27.653 15.532,27.639 15.462,27.477 15.132 C 27.366 14.908,27.216 14.703,27.077 14.587 C 26.437 14.054,18.378 8.504,17.790 8.191 C 17.561 8.070,17.469 8.053,17.000 8.053 C 16.538 8.053,16.434 8.071,16.200 8.188 C 15.830 8.374,15.547 8.608,15.357 8.885 C 15.036 9.351,15.029 9.401,14.991 11.504 C 14.972 12.566,14.942 13.449,14.924 13.468 C 14.905 13.486,13.502 12.544,11.805 11.375 C 7.448 8.373,7.410 8.346,7.173 8.227 C 6.940 8.110,6.479 7.998,6.251 8.004 C 6.171 8.005,5.975 8.042,5.813 8.085 M9.760 12.392 C 14.618 15.733,14.877 15.914,14.878 15.978 C 14.881 16.059,14.222 16.541,12.213 17.929 C 7.983 20.852,6.392 21.930,6.357 21.895 C 6.337 21.875,6.312 19.193,6.303 15.937 C 6.290 11.060,6.299 10.024,6.357 10.058 C 6.395 10.081,7.927 11.131,9.760 12.392 M20.187 12.204 C 24.168 14.946,25.600 15.949,25.600 15.994 C 25.600 16.047,22.585 18.164,18.773 20.788 L 17.040 21.982 17.024 16.791 C 17.015 13.936,17.023 11.257,17.043 10.838 L 17.078 10.075 17.219 10.166 C 17.297 10.215,18.632 11.133,20.187 12.204 " fill="#1A1C1F" stroke="none" fill-rule="evenodd"></path></svg>