<svg xmlns="http://www.w3.org/2000/svg" width="48" height="48" fill="none"><g clip-path="url(#a)"><path fill="#1A1C1F" fill-rule="evenodd" d="M41.231 11a2 2 0 0 1 2 2v22a2.001 2.001 0 0 1-3.135 1.647L24.726 26.05V35a2.001 2.001 0 0 1-3.136 1.647l-15.956-11a2 2 0 0 1 0-3.294l15.956-11A2.002 2.002 0 0 1 24.725 13v8.95l15.371-10.597c.34-.234.737-.353 1.135-.353m-18.506 2L6.77 24l15.956 11zm18.506 0L25.275 24l15.956 11z" clip-rule="evenodd"/></g><defs><clipPath id="a"><path fill="#fff" d="M0 0h48v48H0z"/></clipPath></defs></svg>