<svg width="28" height="28" viewBox="0 0 28 28" fill="none" xmlns="http://www.w3.org/2000/svg"><path d="M14.994 4.252 C 14.838 4.297,12.932 6.129,12.114 7.020 C 11.714 7.456,11.704 7.473,11.680 7.738 C 11.662 7.937,11.676 8.049,11.732 8.158 C 11.823 8.333,13.657 10.214,14.408 10.901 C 14.871 11.324,14.958 11.385,15.147 11.413 C 15.538 11.472,15.946 11.263,16.083 10.935 C 16.157 10.759,16.166 10.418,16.103 10.250 C 16.078 10.186,15.719 9.786,15.303 9.360 L 14.548 8.587 14.804 8.587 C 16.923 8.587,18.817 9.345,20.341 10.803 C 22.000 12.390,22.801 14.389,22.713 16.723 C 22.647 18.461,22.162 19.786,21.040 21.288 C 20.644 21.819,20.592 21.958,20.647 22.329 C 20.707 22.726,21.234 23.107,21.623 23.034 C 22.202 22.926,23.339 21.291,23.882 19.787 C 24.415 18.308,24.566 17.222,24.457 15.648 C 24.334 13.873,23.691 12.182,22.569 10.687 C 22.162 10.143,21.301 9.269,20.765 8.856 C 19.323 7.742,17.304 6.959,15.663 6.879 C 15.403 6.866,15.100 6.845,14.990 6.831 L 14.790 6.807 15.419 6.154 C 16.097 5.450,16.172 5.324,16.136 4.943 C 16.085 4.414,15.551 4.091,14.994 4.252 M14.747 13.840 C 14.683 13.852,14.504 13.884,14.350 13.911 C 13.350 14.090,12.379 14.851,11.988 15.761 C 11.740 16.341,11.703 16.632,11.679 18.252 C 11.649 20.301,11.718 20.910,12.063 21.630 C 12.326 22.177,12.887 22.755,13.442 23.051 C 14.037 23.368,15.026 23.499,15.800 23.364 C 17.109 23.135,18.038 22.355,18.463 21.128 C 18.620 20.673,18.685 19.526,18.645 17.897 C 18.611 16.542,18.566 16.231,18.327 15.719 C 17.791 14.569,16.721 13.892,15.353 13.839 C 15.084 13.828,14.811 13.829,14.747 13.840 M5.971 14.139 C 5.311 14.245,4.215 14.690,3.941 14.962 C 3.548 15.354,3.671 16.042,4.177 16.287 C 4.468 16.428,4.688 16.405,5.327 16.166 C 6.596 15.691,7.440 15.723,7.714 16.255 C 7.796 16.413,7.799 16.456,7.748 16.628 C 7.603 17.111,7.143 17.408,5.931 17.800 C 5.170 18.046,5.019 18.135,4.896 18.405 C 4.738 18.753,4.825 19.153,5.116 19.419 C 5.359 19.642,5.538 19.668,6.176 19.572 C 6.488 19.526,6.943 19.487,7.187 19.486 C 7.908 19.482,8.147 19.671,8.198 20.285 C 8.230 20.664,8.166 20.851,7.906 21.139 C 7.486 21.603,6.556 21.877,4.819 22.047 C 4.400 22.088,4.051 22.146,3.969 22.189 C 3.380 22.493,3.357 23.316,3.927 23.693 L 4.109 23.814 5.029 23.760 C 6.407 23.680,7.501 23.421,8.377 22.970 C 8.815 22.744,9.499 22.069,9.678 21.686 C 10.211 20.548,10.026 19.267,9.211 18.450 L 8.926 18.164 9.113 17.870 C 9.216 17.709,9.341 17.459,9.392 17.317 C 9.508 16.989,9.549 16.348,9.476 15.996 C 9.305 15.174,8.621 14.486,7.700 14.213 C 7.396 14.122,6.354 14.078,5.971 14.139 M15.883 15.661 C 16.394 15.785,16.758 16.142,16.845 16.601 C 16.920 16.999,16.959 19.551,16.900 20.129 C 16.839 20.714,16.748 20.953,16.473 21.251 C 16.214 21.532,15.886 21.657,15.319 21.688 C 14.364 21.742,13.823 21.485,13.559 20.851 C 13.407 20.484,13.354 18.989,13.437 17.356 C 13.480 16.493,13.536 16.296,13.819 16.011 C 14.224 15.602,15.062 15.460,15.883 15.661 " fill="#1A1C1F" stroke="none" fill-rule="evenodd"></path></svg>