<svg width="28" height="28" viewBox="0 0 28 28" fill="none" xmlns="http://www.w3.org/2000/svg"><path d="M12.368 4.461 C 11.910 4.659,11.726 5.168,11.953 5.613 C 12.008 5.720,12.302 6.062,12.606 6.373 C 12.911 6.683,13.160 6.962,13.160 6.992 C 13.160 7.029,13.047 7.047,12.814 7.047 C 11.938 7.047,10.540 7.331,9.613 7.699 C 5.389 9.373,2.890 13.756,3.639 18.177 C 3.922 19.845,4.595 21.357,5.621 22.627 C 6.044 23.150,6.371 23.316,6.739 23.195 C 7.109 23.073,7.370 22.710,7.372 22.316 C 7.374 22.071,7.299 21.922,6.943 21.454 C 6.164 20.429,5.613 19.224,5.394 18.067 C 5.293 17.532,5.291 15.720,5.391 15.146 C 5.558 14.188,6.083 12.970,6.709 12.087 C 7.111 11.520,7.971 10.660,8.540 10.255 C 9.039 9.900,10.103 9.355,10.658 9.169 C 11.375 8.930,12.362 8.775,13.177 8.774 L 13.452 8.773 12.731 9.512 C 12.335 9.919,11.976 10.326,11.932 10.418 C 11.762 10.777,11.890 11.243,12.221 11.466 C 12.417 11.598,12.633 11.640,12.911 11.598 C 13.121 11.567,13.177 11.516,14.634 10.064 C 15.462 9.239,16.183 8.490,16.236 8.400 C 16.366 8.181,16.366 7.826,16.236 7.607 C 16.183 7.517,15.472 6.778,14.656 5.965 C 13.442 4.757,13.139 4.478,12.991 4.437 C 12.747 4.370,12.562 4.376,12.368 4.461 M20.533 14.030 C 19.624 14.152,18.804 14.592,18.303 15.227 C 18.011 15.597,17.868 15.851,17.705 16.287 L 17.575 16.637 17.572 18.737 C 17.570 21.120,17.568 21.107,17.945 21.875 C 18.315 22.628,18.907 23.129,19.789 23.435 C 20.215 23.583,20.254 23.588,20.953 23.587 C 21.792 23.584,22.065 23.528,22.680 23.228 C 23.003 23.070,23.155 22.956,23.498 22.612 C 23.969 22.141,24.184 21.772,24.371 21.114 C 24.473 20.755,24.477 20.682,24.473 18.807 C 24.469 16.633,24.452 16.478,24.150 15.858 C 23.720 14.978,22.988 14.392,22.001 14.139 C 21.636 14.046,20.853 13.988,20.533 14.030 M11.433 14.969 C 10.702 15.350,10.046 15.700,9.976 15.746 C 9.702 15.926,9.553 16.361,9.658 16.677 C 9.729 16.893,10.070 17.192,10.326 17.264 C 10.578 17.334,10.762 17.276,11.585 16.864 L 12.180 16.566 12.180 19.226 L 12.180 21.887 11.375 21.889 C 10.932 21.891,10.469 21.909,10.345 21.929 C 9.945 21.995,9.703 22.253,9.670 22.652 C 9.642 22.989,9.782 23.289,10.047 23.465 L 10.236 23.590 13.148 23.603 L 16.059 23.617 16.239 23.474 C 16.721 23.092,16.736 22.432,16.271 22.055 L 16.102 21.918 15.031 21.896 L 13.961 21.874 13.946 18.415 C 13.930 15.014,13.928 14.954,13.833 14.770 C 13.683 14.483,13.419 14.321,13.061 14.296 L 12.763 14.275 11.433 14.969 M22.014 15.940 C 22.148 16.005,22.330 16.144,22.420 16.248 C 22.707 16.584,22.726 16.704,22.757 18.363 C 22.798 20.619,22.717 21.144,22.269 21.513 C 21.911 21.808,21.253 21.954,20.630 21.878 C 20.004 21.801,19.681 21.592,19.440 21.110 L 19.320 20.870 19.320 18.819 L 19.320 16.767 19.440 16.539 C 19.609 16.218,19.807 16.028,20.085 15.918 C 20.426 15.784,20.489 15.777,21.163 15.800 C 21.694 15.818,21.801 15.836,22.014 15.940 " fill="#1A1C1F" stroke="none" fill-rule="evenodd"></path></svg>