<svg width="14" height="14" viewBox="0 0 14 14" fill="none" xmlns="http://www.w3.org/2000/svg"><path d="M7.499 3.522 C 7.203 3.568,6.934 3.708,6.709 3.931 C 6.432 4.207,6.333 4.454,6.308 4.935 C 6.300 5.089,6.287 5.228,6.278 5.245 C 6.268 5.265,5.948 5.058,5.261 4.584 C 3.716 3.520,3.721 3.523,3.247 3.524 C 3.021 3.524,2.948 3.534,2.818 3.580 C 2.604 3.655,2.464 3.740,2.301 3.895 C 2.121 4.064,1.998 4.256,1.919 4.490 L 1.855 4.678 1.855 7.000 L 1.855 9.322 1.919 9.510 C 2.061 9.930,2.370 10.255,2.773 10.409 C 3.037 10.509,3.477 10.508,3.743 10.406 C 3.884 10.353,4.402 10.011,5.599 9.184 C 6.058 8.867,6.267 8.735,6.278 8.755 C 6.287 8.772,6.300 8.911,6.308 9.065 C 6.324 9.384,6.367 9.567,6.467 9.757 C 6.623 10.051,6.954 10.324,7.281 10.431 C 7.525 10.511,7.847 10.511,8.108 10.431 C 8.310 10.370,8.593 10.188,10.068 9.171 C 11.638 8.089,11.845 7.923,11.988 7.635 C 12.199 7.209,12.173 6.640,11.927 6.263 C 11.877 6.187,11.801 6.090,11.759 6.048 C 11.559 5.848,8.609 3.803,8.294 3.646 C 8.065 3.532,7.750 3.483,7.499 3.522 " fill="#1A1C1F" stroke="none" fill-rule="evenodd"></path></svg>