<svg xmlns="http://www.w3.org/2000/svg" width="32" height="32" fill="none"><path fill="#1A1C1F" fill-rule="evenodd" d="M14.053 5.06c-.344.214-.506.49-.506.865 0 .368.137.577.858 1.305l.695.702-.577.037c-1.672.107-2.957.439-4.363 1.126-2.686 1.314-4.758 3.708-5.65 6.532-1.054 3.332-.427 7.054 1.656 9.83.704.937.979 1.113 1.522.972.474-.123.739-.482.739-1.003 0-.315-.036-.381-.629-1.16a8.9 8.9 0 0 1-1.696-4.072c-.135-.914-.086-2.361.108-3.207a9.04 9.04 0 0 1 6.966-6.852c.58-.12 1.956-.238 2.106-.18.065.025-.121.241-.768.892-.469.473-.879.927-.91 1.01-.129.34-.009.89.244 1.114a1.2 1.2 0 0 0 .697.254c.4-.002.575-.146 2.343-1.926 1.595-1.604 1.719-1.743 1.764-1.966a1.12 1.12 0 0 0-.18-.864c-.161-.233-3.352-3.357-3.522-3.447-.186-.099-.712-.077-.897.038m-.429 10.965a6.5 6.5 0 0 0-1.517.465c-.63.267-.774.368-.914.644-.263.515-.066 1.091.461 1.349.361.176.502.161 1.173-.129.682-.294 1.137-.399 1.733-.401.388-.001.55.022.693.096.282.146.422.296.458.489.129.689-.639 1.27-2.249 1.702-.642.173-.879.317-1.029.627a.97.97 0 0 0-.031.826.85.85 0 0 0 .463.499c.239.123.518.128 1.082.019 1.638-.314 2.287-.056 2.287.909-.001 1.17-1.163 1.715-4.139 1.941-.724.055-.922.144-1.135.508a.98.98 0 0 0 .123 1.169c.299.316.512.36 1.416.298 3.802-.26 5.741-1.583 5.741-3.915 0-.895-.271-1.583-.855-2.166l-.358-.358.227-.325c.604-.868.637-2.122.08-2.991-.382-.595-1.138-1.095-1.894-1.254-.451-.095-1.302-.096-1.816-.002m9.443.01c-1.254.267-2.267 1.097-2.716 2.224-.289.726-.306.922-.285 3.339.019 2.119.025 2.233.141 2.614.49 1.622 1.76 2.602 3.5 2.703 1.434.083 2.729-.477 3.536-1.528.217-.283.437-.739.578-1.2l.147-.48.02-2.027c.022-2.216-.007-2.597-.249-3.283-.449-1.267-1.482-2.134-2.829-2.375-.525-.093-1.373-.087-1.843.013m1.947 2.04c.381.145.62.343.768.637.23.453.254.747.234 2.888-.017 1.904-.023 2.014-.133 2.283-.323.795-.935 1.113-2.043 1.063-.677-.03-1.063-.16-1.343-.452-.442-.461-.47-.65-.47-3.104 0-1.858.008-2.046.105-2.358.058-.186.178-.427.268-.535.188-.228.623-.457.995-.525.406-.074 1.304-.016 1.619.103"/></svg>