<svg width="20" height="20" viewBox="0 0 20 20" fill="none" xmlns="http://www.w3.org/2000/svg"><path d="M10.525 2.712 C 10.382 2.766,10.367 2.776,10.054 3.050 C 9.672 3.384,7.874 5.259,7.775 5.427 C 7.699 5.557,7.683 5.622,7.683 5.817 C 7.683 6.244,7.716 6.288,9.064 7.637 C 10.401 8.975,10.412 8.984,10.826 8.977 C 11.226 8.972,11.541 8.770,11.739 8.393 C 11.794 8.288,11.814 8.193,11.815 8.033 C 11.816 7.735,11.705 7.543,11.270 7.092 C 11.079 6.894,10.932 6.723,10.943 6.712 C 10.973 6.682,11.642 6.827,11.976 6.936 C 12.729 7.183,13.330 7.559,13.936 8.164 C 14.903 9.132,15.375 10.260,15.373 11.600 C 15.373 12.220,15.303 12.564,15.012 13.391 C 14.616 14.519,14.606 14.578,14.775 14.904 C 14.967 15.274,15.364 15.497,15.757 15.456 C 16.317 15.399,16.773 14.732,17.083 13.519 C 17.447 12.091,17.410 10.794,16.966 9.458 C 16.417 7.806,15.325 6.493,13.775 5.620 C 13.065 5.220,12.092 4.899,11.342 4.816 C 11.227 4.804,11.133 4.778,11.133 4.759 C 11.133 4.741,11.263 4.589,11.421 4.423 C 11.579 4.257,11.728 4.075,11.751 4.019 C 11.937 3.572,11.727 3.000,11.297 2.782 C 11.091 2.677,10.709 2.643,10.525 2.712 M9.818 10.535 C 9.170 10.636,8.557 10.990,8.139 11.505 C 7.989 11.689,7.780 12.093,7.684 12.383 C 7.581 12.694,7.533 14.102,7.599 14.883 C 7.645 15.436,7.836 15.952,8.137 16.335 C 8.498 16.795,8.844 17.048,9.350 17.219 C 9.725 17.347,10.370 17.370,10.838 17.273 C 11.806 17.073,12.480 16.452,12.817 15.450 C 12.942 15.076,12.994 14.192,12.943 13.290 C 12.910 12.723,12.895 12.615,12.805 12.344 C 12.634 11.828,12.518 11.638,12.141 11.256 C 11.765 10.875,11.428 10.689,10.933 10.589 C 10.606 10.522,10.068 10.497,9.818 10.535 M4.450 10.630 C 4.309 10.654,3.757 10.991,3.200 11.394 C 2.957 11.569,2.862 11.660,2.793 11.786 C 2.669 12.013,2.646 12.237,2.720 12.503 C 2.769 12.681,2.811 12.748,2.965 12.902 C 3.154 13.092,3.374 13.200,3.573 13.200 L 3.667 13.200 3.667 14.295 L 3.667 15.389 3.492 15.429 C 3.215 15.493,2.970 15.679,2.851 15.917 C 2.764 16.090,2.750 16.153,2.750 16.383 C 2.751 16.581,2.768 16.685,2.816 16.783 C 2.906 16.966,3.138 17.191,3.327 17.278 C 3.478 17.348,3.523 17.350,4.650 17.350 C 5.771 17.350,5.823 17.347,5.971 17.279 C 6.344 17.106,6.547 16.791,6.548 16.383 C 6.549 15.885,6.230 15.510,5.727 15.416 L 5.603 15.393 5.593 13.355 C 5.582 11.155,5.590 11.261,5.407 10.991 C 5.229 10.728,4.805 10.569,4.450 10.630 M10.689 12.552 C 10.741 12.589,10.821 12.694,10.867 12.785 L 10.950 12.950 10.948 13.917 C 10.946 14.838,10.943 14.890,10.874 15.021 C 10.784 15.195,10.631 15.325,10.482 15.352 C 10.418 15.364,10.262 15.368,10.134 15.361 C 9.877 15.347,9.771 15.290,9.642 15.100 C 9.568 14.992,9.567 14.975,9.567 13.923 L 9.567 12.856 9.651 12.711 C 9.698 12.632,9.739 12.566,9.743 12.566 C 9.747 12.566,9.810 12.543,9.883 12.516 C 10.085 12.441,10.566 12.462,10.689 12.552 " fill="#1A1C1F" stroke="none" fill-rule="evenodd"></path></svg>