<svg width="16" height="16" viewBox="0 0 16 16" fill="none" xmlns="http://www.w3.org/2000/svg"><path d="M6.916 2.157 C 6.784 2.191,6.599 2.310,6.509 2.418 C 6.400 2.551,6.347 2.720,6.347 2.931 C 6.348 3.174,6.407 3.287,6.682 3.573 C 6.810 3.705,6.910 3.818,6.904 3.822 C 6.898 3.827,6.783 3.845,6.649 3.862 C 4.932 4.083,3.309 5.252,2.513 6.842 C 2.117 7.632,1.935 8.412,1.935 9.320 C 1.936 10.762,2.437 12.133,3.037 12.332 C 3.509 12.489,4.053 12.101,4.053 11.609 C 4.053 11.533,3.985 11.302,3.856 10.940 C 3.624 10.288,3.529 9.925,3.494 9.560 C 3.446 9.062,3.551 8.356,3.745 7.870 C 4.172 6.805,5.022 5.981,6.107 5.585 C 6.285 5.520,6.746 5.405,6.960 5.372 L 7.080 5.353 6.785 5.658 C 6.599 5.850,6.464 6.016,6.418 6.106 C 6.230 6.484,6.412 6.945,6.819 7.125 C 6.994 7.203,7.310 7.200,7.468 7.120 C 7.689 7.007,9.506 5.164,9.595 4.962 C 9.652 4.833,9.651 4.469,9.594 4.360 C 9.541 4.260,8.127 2.793,7.760 2.458 C 7.611 2.322,7.459 2.199,7.423 2.185 C 7.328 2.149,7.015 2.132,6.916 2.157 M11.320 8.475 C 10.951 8.585,10.630 8.776,10.370 9.040 C 10.149 9.265,9.999 9.515,9.894 9.836 C 9.774 10.205,9.750 10.488,9.767 11.333 C 9.781 12.022,9.787 12.081,9.852 12.307 C 9.891 12.439,9.972 12.649,10.033 12.773 C 10.126 12.965,10.187 13.044,10.425 13.281 C 10.648 13.504,10.748 13.582,10.907 13.661 C 11.230 13.821,11.392 13.853,11.880 13.853 C 12.245 13.853,12.337 13.845,12.516 13.793 C 13.275 13.573,13.776 13.049,13.994 12.247 C 14.063 11.990,14.064 11.976,14.063 11.120 C 14.063 10.320,14.058 10.237,14.006 10.047 C 13.876 9.576,13.727 9.302,13.440 9.012 C 13.210 8.780,12.958 8.621,12.653 8.517 C 12.457 8.449,12.402 8.443,11.960 8.436 C 11.560 8.429,11.453 8.436,11.320 8.475 M7.253 8.504 C 7.154 8.524,6.492 8.938,6.173 9.179 C 6.013 9.300,5.978 9.342,5.923 9.480 C 5.830 9.711,5.823 9.849,5.895 10.039 C 6.007 10.336,6.307 10.560,6.592 10.560 L 6.667 10.560 6.667 11.440 C 6.667 12.273,6.664 12.320,6.618 12.320 C 6.463 12.320,6.280 12.410,6.134 12.556 C 5.900 12.791,5.836 13.071,5.947 13.368 C 6.019 13.562,6.157 13.715,6.341 13.805 L 6.493 13.880 7.427 13.880 C 8.498 13.880,8.496 13.880,8.744 13.632 C 9.183 13.192,8.923 12.451,8.288 12.333 L 8.190 12.315 8.180 10.684 C 8.173 9.519,8.161 9.026,8.139 8.958 C 8.036 8.651,7.610 8.432,7.253 8.504 M12.213 10.020 C 12.264 10.046,12.340 10.116,12.382 10.176 C 12.454 10.280,12.460 10.309,12.485 10.696 C 12.514 11.141,12.499 11.667,12.452 11.889 C 12.395 12.155,12.203 12.292,11.886 12.293 C 11.656 12.293,11.544 12.246,11.442 12.105 L 11.360 11.992 11.360 11.141 C 11.360 10.232,11.362 10.214,11.497 10.088 C 11.593 9.999,11.674 9.977,11.907 9.975 C 12.059 9.974,12.146 9.987,12.213 10.020 " fill="#1A1C1F" stroke="none" fill-rule="evenodd"></path></svg>