<svg xmlns="http://www.w3.org/2000/svg" width="28" height="28" fill="none"><g clip-path="url(#a)"><path fill="#1A1C1F" fill-rule="evenodd" d="M24.369 16.616c0-5.347-4.398-9.653-9.753-9.597l1.156-1.153a.87.87 0 0 0 .252-.62.86.86 0 0 0-.873-.872.88.88 0 0 0-.62.253l-2.763 2.758a.87.87 0 0 0-.254.62c0 .225.086.45.255.62l2.762 2.756c.17.17.394.254.62.254a.86.86 0 0 0 .874-.873.87.87 0 0 0-.253-.619l-1.383-1.379c4.37-.197 8.232 3.293 8.232 7.824a7.83 7.83 0 0 1-1.945 5.178.86.86 0 0 0-.197.563c0 .507.367.9.874.9a.83.83 0 0 0 .58-.23L22 22.92c1.55-1.745 2.369-3.996 2.369-6.304m-20.737-.188c0-.31.196-.647.48-.788l2.564-1.294a.9.9 0 0 1 .367-.085c.393 0 .901.282.901.873v6.745h1.833a.86.86 0 0 1 .874.872.88.88 0 0 1-.874.873H4.534a.878.878 0 0 1-.622-1.494.86.86 0 0 1 .622-.25h1.663v-5.31l-1.296.646a.9.9 0 0 1-.367.085c-.48 0-.902-.422-.902-.873M15.02 14c2.03 0 3.495 1.313 3.495 3.52v2.56c0 2.234-1.523 3.517-3.495 3.546s-3.467-1.313-3.467-3.49v-2.702c0-2.12 1.55-3.433 3.467-3.433m0 1.746c-1.213 0-1.748.534-1.748 1.688v2.702c0 1.266.508 1.773 1.748 1.773 1.212 0 1.776-.59 1.776-1.83v-2.56c0-1.267-.508-1.773-1.776-1.773" clip-rule="evenodd"/></g><defs><clipPath id="a"><path fill="#fff" d="M0 0h28v28H0z"/></clipPath></defs></svg>