<svg width="16" height="16" viewBox="0 0 16 16" fill="none" xmlns="http://www.w3.org/2000/svg"><path d="M8.412 2.169 C 8.235 2.237,8.108 2.354,7.182 3.301 C 6.305 4.197,6.217 4.296,6.174 4.425 C 6.110 4.618,6.131 4.841,6.231 5.031 C 6.287 5.136,6.551 5.419,7.240 6.111 C 8.303 7.179,8.315 7.188,8.667 7.185 C 8.828 7.184,8.893 7.170,9.003 7.113 C 9.295 6.962,9.494 6.630,9.457 6.355 C 9.426 6.130,9.316 5.963,8.992 5.649 L 8.686 5.353 8.816 5.371 C 9.495 5.465,10.137 5.716,10.674 6.098 C 10.961 6.303,11.392 6.733,11.582 7.005 C 12.206 7.898,12.446 8.978,12.242 9.966 C 12.194 10.196,12.111 10.452,11.842 11.195 C 11.779 11.370,11.733 11.544,11.733 11.610 C 11.733 12.095,12.260 12.478,12.746 12.347 C 12.938 12.295,13.214 11.999,13.368 11.680 C 13.567 11.269,13.707 10.782,13.805 10.160 C 13.875 9.713,13.869 8.822,13.792 8.400 C 13.464 6.598,12.376 5.147,10.760 4.358 C 10.226 4.097,9.546 3.894,9.047 3.848 C 8.955 3.839,8.880 3.826,8.880 3.819 C 8.880 3.811,8.992 3.690,9.128 3.549 C 9.339 3.331,9.383 3.270,9.425 3.137 C 9.544 2.755,9.318 2.304,8.942 2.176 C 8.798 2.127,8.530 2.123,8.412 2.169 " fill="#1A1C1F" stroke="none" fill-rule="evenodd"></path></svg>