<svg xmlns="http://www.w3.org/2000/svg" width="16" height="16" fill="none"><g clip-path="url(#a)"><path fill="#1A1C1F" fill-rule="evenodd" d="M12.554 12.38c-.516 0-.828-.437-.828-.765 0-.375.593-1.28.593-2.296 0-2.155-1.64-3.779-3.638-3.966l.546.515c.125.156.234.36.234.562 0 .406-.374.766-.796.766a.82.82 0 0 1-.574-.224L6.349 5.216a.8.8 0 0 1-.214-.566c0-.203.078-.375.218-.515l1.766-1.78a.75.75 0 0 1 .546-.235.8.8 0 0 1 .796.796.76.76 0 0 1-.234.547l-.359.36a5.503 5.503 0 0 1 4.997 5.496l-.006.25c-.056 1.128-.479 2.811-1.305 2.811m-9.607 1.5h1.546a.77.77 0 0 0 .765-.781.783.783 0 0 0-.78-.781V9.24a.757.757 0 0 0-1.19-.628l-.807.538a.76.76 0 0 0-.284.943.78.78 0 0 0 .75.474v1.75c-.437 0-.765.359-.765.796 0 .406.328.767.765.767M8.21 8.398c1.28 0 2.155.906 2.155 2.296v.874c0 1.406-.906 2.312-2.233 2.312-1.203 0-2.077-.922-2.077-2.28v-.969c0-1.327.906-2.233 2.155-2.233m.045 1.558h-.06l-.068.003c-.306.02-.51.132-.51.657v.983c0 .547.171.714.593.706.375-.007.578-.19.578-.752v-.875c0-.656-.313-.729-.594-.722z" clip-rule="evenodd"/></g><defs><clipPath id="a"><path fill="#fff" d="M0 0h16v16H0z"/></clipPath></defs></svg>