<svg xmlns="http://www.w3.org/2000/svg" width="32" height="32" fill="none"><path fill="#1A1C1F" fill-rule="evenodd" d="M16.88 5.115c-.262.123-3.566 3.425-3.65 3.648a1.17 1.17 0 0 0 .046.826c.132.255 3.449 3.56 3.647 3.635.208.078.593.07.8-.016.242-.101.51-.425.548-.663.039-.246.039-.257-.002-.517-.03-.187-.143-.322-.923-1.107l-.889-.894h.552c1.426 0 2.989.429 4.299 1.18 2.334 1.338 3.947 3.614 4.402 6.21.144.82.156 2.153.028 2.93a9.15 9.15 0 0 1-1.846 4.207c-.195.246-.385.522-.423.614-.101.244-.048.705.108.936.148.219.576.456.822.456.436 0 .91-.447 1.641-1.547a11 11 0 0 0 1.725-4.653c.114-.865.079-2.37-.076-3.24a10.87 10.87 0 0 0-2.829-5.61c-.961-1.005-1.855-1.675-3.041-2.279-1.442-.734-3.144-1.174-4.552-1.177-.286 0-.52-.019-.52-.041s.314-.353.699-.734.732-.77.773-.864c.088-.204.097-.588.018-.798-.194-.512-.831-.748-1.357-.502m-.445 10.941c-.86.154-1.645.568-2.206 1.162-.603.639-.899 1.319-.999 2.294-.07.681-.072 3.212-.004 3.901.068.678.171 1.058.437 1.6.284.581.896 1.212 1.457 1.503.707.368 1.062.445 2.027.44.781-.003.891-.016 1.306-.151 1.346-.439 2.191-1.319 2.573-2.683.112-.397.117-.515.118-2.629.001-2.513-.012-2.608-.459-3.518-.426-.868-1.301-1.553-2.323-1.82-.479-.125-1.49-.177-1.927-.099M6.227 17.104c-.855.432-1.638.858-1.739.946-.59.518-.353 1.429.435 1.682.297.095.5.037 1.325-.376.406-.203.762-.369.791-.369.036 0 .054 1.013.054 3.013v3.013H6.024c-.879 0-1.1.016-1.24.087-.397.2-.586.491-.586.9s.256.793.619.93q.152.057 3.348.057c3.402 0 3.407-.001 3.694-.256.154-.137.299-.49.299-.731s-.145-.594-.299-.731c-.254-.226-.447-.256-1.644-.256H9.067v-3.97c0-2.682-.019-4.018-.057-4.12-.134-.352-.531-.603-.957-.603-.243 0-.431.081-1.826.784m12.04 1.073c.498.228.776.622.877 1.244.072.44.072 3.648 0 4.099-.16 1.012-.785 1.496-1.944 1.505a4.6 4.6 0 0 1-.78-.06c-.599-.126-1.04-.556-1.163-1.133-.035-.161-.057-1.082-.057-2.358 0-2.295.015-2.431.314-2.844.339-.468.756-.607 1.766-.588.618.012.758.031.987.135"/></svg>