<svg xmlns="http://www.w3.org/2000/svg" width="14" height="14" fill="none"><g clip-path="url(#a)"><path fill="#1A1C1F" fill-rule="evenodd" d="M2.833 10.833c.45 0 .724-.383.724-.67 0-.328-.52-1.12-.52-2.009 0-1.885 1.436-3.306 3.185-3.47l-.48.45c-.108.137-.204.315-.204.492 0 .356.328.67.697.67a.72.72 0 0 0 .502-.195L8.26 4.564a.71.71 0 0 0 .139-.74.6.6 0 0 0-.141-.206L6.712 2.06a.66.66 0 0 0-.477-.205.7.7 0 0 0-.697.697c0 .178.069.342.205.478l.315.314a4.815 4.815 0 0 0-4.373 4.811c0 .97.369 2.678 1.148 2.678m2.992 1.312h1.353c.397 0 .67-.328.67-.684 0-.369-.3-.683-.683-.683V8.086a.662.662 0 0 0-1.041-.55l-.706.471a.67.67 0 0 0-.303.557c0 .397.328.697.71.684v1.53c-.382 0-.67.314-.67.697 0 .355.288.67.67.67m4.606-4.797c1.12 0 1.885.793 1.885 2.009v.765c0 1.23-.793 2.023-1.955 2.023-1.051 0-1.816-.807-1.816-1.995v-.848c0-1.161.792-1.954 1.886-1.954m.043 1.364h-.058c-.3.007-.505.085-.505.577v.86c0 .479.15.625.52.618.327-.006.505-.167.505-.658v-.766c0-.574-.274-.637-.52-.631z" clip-rule="evenodd"/></g><defs><clipPath id="a"><path fill="#fff" d="M0 0h14v14H0z"/></clipPath></defs></svg>