<svg width="20" height="20" viewBox="0 0 20 20" fill="none" xmlns="http://www.w3.org/2000/svg"><path d="M10.517 2.708 C 10.309 2.782,10.118 2.957,8.964 4.138 C 7.877 5.249,7.773 5.365,7.718 5.530 C 7.637 5.773,7.663 6.051,7.789 6.289 C 7.859 6.421,8.186 6.771,9.050 7.639 C 10.368 8.963,10.395 8.983,10.817 8.982 C 11.131 8.981,11.348 8.883,11.567 8.643 C 11.762 8.430,11.853 8.178,11.821 7.944 C 11.782 7.663,11.645 7.454,11.244 7.065 C 10.981 6.811,10.887 6.700,10.932 6.700 C 11.091 6.700,11.732 6.846,12.042 6.954 C 12.775 7.208,13.401 7.602,13.967 8.167 C 15.098 9.296,15.613 10.950,15.302 12.458 C 15.243 12.745,15.139 13.064,14.803 13.993 C 14.724 14.213,14.667 14.430,14.667 14.513 C 14.667 15.118,15.323 15.598,15.924 15.432 C 16.175 15.363,16.511 15.006,16.708 14.600 C 16.997 14.006,17.216 13.154,17.303 12.283 C 17.350 11.813,17.326 11.030,17.250 10.567 C 16.877 8.294,15.470 6.413,13.400 5.420 C 12.755 5.111,11.921 4.867,11.311 4.810 C 11.195 4.799,11.100 4.783,11.100 4.773 C 11.100 4.764,11.242 4.610,11.415 4.432 C 11.688 4.150,11.737 4.083,11.785 3.915 C 11.925 3.434,11.643 2.878,11.177 2.720 C 11.002 2.660,10.667 2.654,10.517 2.708 " fill="#1A1C1F" stroke="none" fill-rule="evenodd"></path></svg>