<svg width="20" height="20" viewBox="0 0 20 20" fill="none" xmlns="http://www.w3.org/2000/svg"><path d="M8.699 5.033 C 8.412 5.079,8.206 5.161,7.917 5.345 C 7.112 5.857,4.076 7.961,3.366 8.498 C 2.927 8.831,2.667 9.389,2.667 10.000 C 2.667 10.551,2.841 10.981,3.214 11.351 C 3.508 11.642,4.870 12.608,7.365 14.295 C 8.195 14.857,8.414 14.956,8.908 14.991 C 9.529 15.035,10.206 14.709,10.601 14.174 C 10.885 13.787,10.997 13.406,11.000 12.817 C 11.000 12.670,11.013 12.531,11.027 12.509 C 11.046 12.479,11.380 12.693,12.168 13.238 C 14.468 14.829,14.603 14.910,15.052 14.968 C 15.962 15.086,16.782 14.640,17.171 13.815 C 17.352 13.433,17.350 13.468,17.349 10.033 C 17.349 6.472,17.352 6.524,17.130 6.097 C 16.889 5.635,16.483 5.297,15.950 5.114 C 15.725 5.037,15.628 5.022,15.333 5.022 C 14.715 5.023,14.646 5.059,12.502 6.537 C 11.498 7.229,11.047 7.522,11.031 7.493 C 11.019 7.469,11.000 7.261,10.990 7.031 C 10.961 6.380,10.806 6.003,10.401 5.600 C 9.957 5.157,9.300 4.939,8.699 5.033 M8.992 10.000 C 8.992 11.164,8.983 12.308,8.971 12.543 L 8.950 12.969 7.467 11.947 C 5.199 10.384,4.700 10.033,4.700 10.001 C 4.700 9.971,5.212 9.611,7.567 7.989 L 8.950 7.035 8.971 7.459 C 8.983 7.693,8.992 8.836,8.992 10.000 M15.312 7.342 C 15.339 7.694,15.333 12.290,15.305 12.672 L 15.283 12.960 14.750 12.592 C 12.488 11.032,11.067 10.031,11.067 9.996 C 11.067 9.969,12.572 8.910,14.167 7.816 C 14.671 7.471,15.121 7.161,15.167 7.128 C 15.213 7.096,15.259 7.068,15.270 7.068 C 15.281 7.067,15.300 7.190,15.312 7.342 " fill="#1A1C1F" stroke="none" fill-rule="evenodd"></path></svg>