<svg xmlns="http://www.w3.org/2000/svg" width="64" height="64" fill="none"><g clip-path="url(#a)"><path fill="#1A1C1F" fill-rule="evenodd" d="M52.358 16a2.996 2.996 0 0 1 3 3v26a3 3 0 0 1-4.703 2.47L33.5 35.644V45a3 3 0 0 1-4.703 2.47l-18.857-13a3 3 0 0 1 0-4.94l18.857-13A3 3 0 0 1 33.5 19v9.356L50.655 16.53c.5-.346 1.095-.53 1.703-.53M30.5 19 11.643 32 30.5 45zm21.857 0L33.5 32l18.857 13z" clip-rule="evenodd"/></g><defs><clipPath id="a"><path fill="#fff" d="M0 0h64v64H0z"/></clipPath></defs></svg>