<svg xmlns="http://www.w3.org/2000/svg" width="16" height="16" fill="none"><g clip-path="url(#a)"><path fill="#1A1C1F" fill-rule="evenodd" d="M12.963 12.286c-.516 0-.828-.437-.828-.765 0-.375.593-1.28.593-2.296 0-2.155-1.64-3.78-3.638-3.966l.546.515c.125.156.234.36.234.562 0 .406-.374.766-.796.766a.82.82 0 0 1-.574-.224L6.758 5.122a.8.8 0 0 1-.214-.566c0-.203.078-.375.218-.515l1.766-1.78a.75.75 0 0 1 .546-.235.8.8 0 0 1 .796.796.76.76 0 0 1-.234.547l-.359.36a5.503 5.503 0 0 1 4.997 5.496l-.006.25c-.056 1.128-.479 2.81-1.305 2.81m-9.187-3.98c1.01 0 1.74.66 1.74 1.573q0 .496-.504.867c.46.256.737.645.737 1.105 0 1.969-2.4 2.084-3.19 2.123h-.038a.778.778 0 0 1-.037-1.554c1.123-.054 1.71-.22 1.71-.492 0-.11-.069-.23-.217-.23-.404 0-.56.135-.803.135a.784.784 0 0 1-.756-.774c0-.333.242-.625.602-.7.596-.121.964-.26.964-.371 0-.06-.072-.127-.242-.127-.47 0-.762.3-1.127.3-.396 0-.759-.353-.759-.78 0-.281.16-.56.434-.695.527-.26 1-.38 1.486-.38m4.843-.002c1.28 0 2.155.906 2.155 2.296v.874c0 1.406-.906 2.312-2.233 2.312-1.203 0-2.077-.922-2.077-2.28v-.97c0-1.326.906-2.232 2.155-2.232m.045 1.558h-.06l-.068.003c-.306.02-.51.132-.51.657v.983c0 .547.171.714.593.706.375-.007.578-.19.578-.752v-.875c0-.656-.313-.73-.594-.722z" clip-rule="evenodd"/></g><defs><clipPath id="a"><path fill="#fff" d="M0 0h16v16H0z"/></clipPath></defs></svg>