<svg width="16" height="16" viewBox="0 0 16 16" fill="none" xmlns="http://www.w3.org/2000/svg"><path d="M8.461 2.158 C 8.350 2.186,8.265 2.242,8.057 2.425 C 7.760 2.686,6.294 4.216,6.219 4.344 C 6.159 4.446,6.147 4.498,6.147 4.653 C 6.147 4.995,6.173 5.030,7.251 6.109 C 8.316 7.175,8.331 7.186,8.653 7.183 C 8.781 7.182,8.879 7.165,8.963 7.127 C 9.253 6.999,9.453 6.706,9.453 6.413 C 9.452 6.187,9.356 6.025,9.003 5.660 C 8.843 5.495,8.728 5.360,8.746 5.360 C 8.837 5.360,9.351 5.479,9.573 5.551 C 10.197 5.754,10.665 6.045,11.149 6.530 C 11.578 6.960,11.778 7.253,12.005 7.782 C 12.233 8.314,12.347 9.020,12.294 9.569 C 12.258 9.945,12.195 10.193,11.985 10.787 C 11.692 11.618,11.685 11.663,11.820 11.924 C 11.962 12.196,12.253 12.374,12.556 12.373 C 13.067 12.370,13.512 11.661,13.748 10.474 C 13.891 9.755,13.890 8.818,13.747 8.184 C 13.414 6.706,12.597 5.513,11.370 4.711 C 10.705 4.277,9.863 3.956,9.146 3.864 C 9.014 3.847,8.907 3.821,8.907 3.806 C 8.907 3.791,9.004 3.678,9.122 3.554 C 9.446 3.217,9.514 3.019,9.417 2.699 C 9.351 2.483,9.213 2.309,9.035 2.220 C 8.904 2.155,8.601 2.122,8.461 2.158 " fill="#1A1C1F" stroke="none" fill-rule="evenodd"></path></svg>