<svg width="14" height="14" viewBox="0 0 14 14" fill="none" xmlns="http://www.w3.org/2000/svg"><path d="M7.362 1.895 C 7.216 1.947,7.080 2.072,6.273 2.898 C 5.516 3.673,5.440 3.758,5.402 3.872 C 5.346 4.041,5.364 4.236,5.452 4.402 C 5.501 4.494,5.732 4.741,6.335 5.347 C 7.258 6.274,7.276 6.288,7.572 6.287 C 7.792 6.286,7.944 6.218,8.097 6.050 C 8.233 5.901,8.297 5.725,8.275 5.561 C 8.248 5.362,8.151 5.216,7.869 4.945 C 7.723 4.805,7.619 4.690,7.637 4.690 C 7.740 4.690,8.120 4.772,8.346 4.842 C 9.497 5.201,10.395 6.152,10.674 7.306 C 10.838 7.980,10.801 8.574,10.555 9.258 C 10.497 9.421,10.408 9.668,10.358 9.807 C 10.305 9.952,10.267 10.102,10.267 10.159 C 10.267 10.504,10.563 10.798,10.934 10.822 C 11.152 10.836,11.263 10.785,11.452 10.583 C 11.864 10.142,12.168 8.960,12.125 7.957 C 12.057 6.330,11.208 4.883,9.823 4.030 C 9.274 3.692,8.495 3.421,7.918 3.367 C 7.836 3.359,7.770 3.348,7.770 3.341 C 7.770 3.335,7.869 3.227,7.990 3.102 C 8.182 2.905,8.216 2.858,8.250 2.741 C 8.348 2.404,8.150 2.015,7.824 1.904 C 7.701 1.862,7.467 1.858,7.362 1.895 " fill="#1A1C1F" stroke="none" fill-rule="evenodd"></path></svg>