<svg xmlns="http://www.w3.org/2000/svg" width="24" height="24" fill="none"><g clip-path="url(#a)"><path fill="#1A1C1F" fill-rule="evenodd" d="M11.288 12c1.528 0 2.638.99 2.638 2.354q0 .804-.467 1.423c.539.454.863 1.133.863 1.932 0 3.043-3.72 3.222-5.121 3.29h-.049a1 1 0 0 1-.047-2c3.032-.145 3.205-.861 3.215-1.228v-.062c0-.131 0-.531-.6-.531-.324 0-.535.02-1.226.158a1 1 0 0 1-.42-1.955c.556-.13 1.85-.49 1.85-1.027 0-.327-.487-.353-.636-.353-.46 0-.937.13-1.502.408a1 1 0 0 1-.884-1.795c.85-.418 1.608-.614 2.386-.614m-1.132-9c.219 0 .469.063.656.219l2.282 2.312a.92.92 0 0 1 .281.688 1 1 0 0 1-.281.718l-2.188 2.22q-.28.28-.75.28c-.531 0-.969-.468-.969-1 0-.25.094-.5.313-.687l.563-.625c-3.126.219-5.563 2.844-5.563 6 0 1.53.625 3.063 1.781 4.25a.97.97 0 0 1 .282.688c0 .562-.47 1-1 1a.97.97 0 0 1-.688-.282A8 8 0 0 1 2.5 13.094c0-4.156 3.219-7.625 7.375-7.97l-.406-.405a1 1 0 0 1-.344-.75c0-.531.469-.97 1.031-.97m8.344 9c1.781 0 3 1.348 3 3.355v2.29c0 2.007-1.219 3.355-3 3.355-1.813 0-3-1.348-3-3.324v-2.383c0-2.007 1.188-3.293 3-3.293m0 2c-.625 0-1 .472-1 1.258v2.42c0 .85.375 1.322 1 1.322s1-.472 1-1.352v-2.296c0-.85-.375-1.352-1-1.352" clip-rule="evenodd"/></g><defs><clipPath id="a"><path fill="#fff" d="M0 0h24v24H0z"/></clipPath></defs></svg>