<svg width="28" height="28" viewBox="0 0 28 28" fill="none" xmlns="http://www.w3.org/2000/svg"><path d="M12.425 4.377 C 12.112 4.475,11.853 4.836,11.853 5.177 C 11.853 5.479,12.003 5.705,12.629 6.347 L 13.210 6.943 12.730 6.975 C 11.638 7.048,10.550 7.271,9.742 7.589 C 6.783 8.754,4.616 11.138,3.831 14.094 C 3.579 15.043,3.528 15.462,3.530 16.567 C 3.532 17.654,3.603 18.207,3.853 19.098 C 4.233 20.451,4.968 21.849,5.745 22.697 C 6.079 23.062,6.221 23.147,6.496 23.146 C 7.042 23.143,7.416 22.719,7.362 22.163 C 7.345 21.981,7.292 21.871,7.089 21.597 C 6.125 20.291,5.675 19.340,5.406 18.037 C 5.315 17.598,5.300 17.385,5.302 16.567 C 5.304 15.447,5.371 14.975,5.640 14.153 C 6.484 11.583,8.564 9.632,11.174 8.961 C 11.752 8.812,12.598 8.713,13.088 8.735 L 13.412 8.750 12.718 9.473 C 11.947 10.277,11.854 10.404,11.854 10.640 C 11.854 11.198,12.220 11.572,12.766 11.573 C 12.845 11.573,13.011 11.509,13.139 11.429 C 13.406 11.262,16.087 8.598,16.234 8.353 C 16.360 8.145,16.361 7.836,16.237 7.562 C 16.169 7.413,15.834 7.050,15.036 6.264 C 14.428 5.664,13.734 4.992,13.495 4.771 C 13.064 4.372,13.057 4.369,12.795 4.357 C 12.649 4.350,12.483 4.359,12.425 4.377 M12.070 14.004 C 11.615 14.060,10.809 14.317,10.327 14.560 C 9.856 14.797,9.732 14.967,9.731 15.375 C 9.730 15.733,9.886 16.000,10.184 16.152 C 10.470 16.298,10.651 16.282,11.206 16.063 C 11.875 15.800,12.210 15.728,12.766 15.727 C 13.206 15.727,13.249 15.735,13.452 15.864 C 13.740 16.047,13.819 16.276,13.701 16.585 C 13.528 17.039,13.004 17.343,11.727 17.731 C 11.440 17.818,11.191 17.926,11.102 18.001 C 10.947 18.132,10.783 18.437,10.781 18.597 C 10.778 18.948,11.077 19.373,11.393 19.467 C 11.543 19.512,11.721 19.503,12.406 19.413 C 13.119 19.320,13.278 19.312,13.514 19.359 C 14.018 19.459,14.186 19.683,14.187 20.249 C 14.187 20.559,14.171 20.620,14.037 20.828 C 13.684 21.378,12.832 21.692,11.223 21.863 C 9.999 21.994,9.911 22.014,9.709 22.206 C 9.295 22.600,9.391 23.277,9.900 23.566 C 10.083 23.669,10.152 23.680,10.581 23.673 C 11.449 23.658,12.755 23.450,13.468 23.211 C 15.093 22.668,15.958 21.632,15.958 20.230 C 15.958 19.494,15.757 18.968,15.251 18.383 C 14.977 18.066,14.929 17.986,14.973 17.925 C 15.575 17.082,15.674 16.136,15.247 15.284 C 14.987 14.763,14.349 14.272,13.678 14.075 C 13.359 13.981,12.548 13.946,12.070 14.004 M20.401 14.000 C 19.680 14.102,19.027 14.430,18.502 14.955 C 18.088 15.369,17.862 15.749,17.679 16.333 C 17.571 16.679,17.570 16.710,17.572 18.783 L 17.573 20.883 17.703 21.257 C 17.900 21.824,18.130 22.198,18.523 22.591 C 18.940 23.008,19.325 23.235,19.894 23.400 C 20.663 23.622,21.409 23.608,22.200 23.358 C 22.720 23.193,23.116 22.945,23.544 22.517 C 23.965 22.097,24.168 21.736,24.383 21.031 L 24.508 20.619 24.487 18.698 C 24.466 16.652,24.452 16.515,24.211 15.944 C 23.819 15.018,22.970 14.290,22.026 14.073 C 21.641 13.984,20.787 13.946,20.401 14.000 M21.506 15.748 C 21.912 15.782,22.322 16.001,22.497 16.277 C 22.735 16.653,22.750 16.805,22.746 18.812 L 22.742 20.660 22.601 20.958 C 22.422 21.335,22.178 21.577,21.845 21.708 C 21.629 21.792,21.485 21.811,21.023 21.813 C 20.284 21.817,20.003 21.734,19.691 21.422 C 19.306 21.037,19.297 20.975,19.297 18.760 C 19.297 16.727,19.303 16.666,19.544 16.285 C 19.782 15.910,20.418 15.662,21.023 15.709 C 21.126 15.717,21.343 15.735,21.506 15.748 " fill="#1A1C1F" stroke="none" fill-rule="evenodd"></path></svg>