<svg width="24" height="24" viewBox="0 0 24 24" fill="none" xmlns="http://www.w3.org/2000/svg"><path d="M18.376 6.060 C 17.955 6.151,18.010 6.116,15.006 8.190 C 13.942 8.924,13.060 9.514,13.046 9.499 C 13.032 9.485,13.009 9.048,12.995 8.527 C 12.968 7.503,12.937 7.335,12.708 6.972 C 12.311 6.344,11.736 6.040,10.945 6.040 C 10.565 6.040,10.519 6.049,10.259 6.174 C 9.960 6.318,9.208 6.809,7.740 7.818 C 5.371 9.448,3.923 10.477,3.740 10.662 C 3.120 11.289,3.039 12.363,3.555 13.120 C 3.765 13.428,4.237 13.776,7.460 15.993 C 9.449 17.361,10.155 17.821,10.380 17.896 C 11.388 18.233,12.525 17.667,12.886 16.650 C 12.955 16.454,12.971 16.279,12.994 15.473 C 13.009 14.952,13.031 14.516,13.044 14.503 C 13.057 14.490,13.840 15.012,14.784 15.663 C 17.132 17.284,17.945 17.818,18.180 17.896 C 19.107 18.203,20.167 17.743,20.592 16.849 C 20.725 16.567,20.738 16.508,20.770 16.003 C 20.789 15.704,20.799 13.687,20.791 11.520 L 20.778 7.580 20.683 7.340 C 20.426 6.684,19.865 6.198,19.206 6.058 C 18.883 5.989,18.696 5.990,18.376 6.060 M10.990 11.980 C 10.990 13.542,10.979 15.078,10.965 15.392 L 10.940 15.965 10.600 15.729 C 10.413 15.599,9.405 14.903,8.360 14.181 C 6.098 12.619,5.280 12.039,5.280 11.999 C 5.280 11.966,6.879 10.843,9.340 9.146 L 10.940 8.043 10.965 8.592 C 10.979 8.893,10.990 10.418,10.990 11.980 M18.790 11.980 C 18.790 13.542,18.779 15.077,18.765 15.391 L 18.740 15.961 16.760 14.595 C 14.330 12.919,13.080 12.038,13.080 12.002 C 13.080 11.967,14.300 11.108,16.758 9.413 L 18.740 8.046 18.765 8.593 C 18.779 8.894,18.790 10.418,18.790 11.980 " fill="#1A1C1F" stroke="none" fill-rule="evenodd"></path></svg>