<svg width="20" height="20" viewBox="0 0 20 20" fill="none" xmlns="http://www.w3.org/2000/svg"><path d="M4.358 5.037 C 3.913 5.095,3.524 5.306,3.182 5.676 C 2.946 5.930,2.765 6.261,2.693 6.568 C 2.659 6.710,2.650 7.469,2.651 10.033 L 2.652 13.317 2.743 13.586 C 3.000 14.357,3.682 14.909,4.467 14.982 C 4.783 15.011,5.176 14.951,5.425 14.834 C 5.641 14.733,6.436 14.204,8.049 13.088 C 8.661 12.664,8.954 12.480,8.969 12.508 C 8.981 12.531,9.000 12.730,9.012 12.950 C 9.046 13.614,9.187 13.983,9.550 14.353 C 10.129 14.944,10.850 15.130,11.619 14.886 C 11.908 14.795,12.166 14.628,14.350 13.124 C 16.949 11.334,17.090 11.208,17.267 10.514 C 17.389 10.039,17.327 9.463,17.110 9.056 C 16.914 8.689,16.552 8.404,14.333 6.866 C 13.007 5.946,12.057 5.313,11.849 5.209 C 11.575 5.072,11.336 5.020,10.983 5.021 C 10.446 5.023,9.983 5.220,9.585 5.616 C 9.188 6.011,9.047 6.363,9.012 7.050 C 9.000 7.270,8.981 7.469,8.969 7.492 C 8.953 7.522,8.638 7.322,7.948 6.846 C 6.357 5.747,5.489 5.179,5.313 5.121 C 5.170 5.073,4.708 4.997,4.617 5.005 C 4.598 5.007,4.482 5.021,4.358 5.037 " fill="#1A1C1F" stroke="none" fill-rule="evenodd"></path></svg>