<svg width="20" height="20" viewBox="0 0 20 20" fill="none" xmlns="http://www.w3.org/2000/svg"><path d="M8.544 2.719 C 8.343 2.793,8.118 3.007,8.012 3.223 C 7.940 3.369,7.920 3.459,7.920 3.630 C 7.919 3.952,8.010 4.128,8.351 4.468 C 8.506 4.622,8.633 4.758,8.633 4.769 C 8.633 4.781,8.539 4.799,8.424 4.810 C 7.801 4.868,6.951 5.121,6.284 5.447 C 3.557 6.779,2.043 9.661,2.483 12.683 C 2.691 14.115,3.173 15.156,3.739 15.399 C 4.197 15.596,4.788 15.336,5.008 14.840 C 5.120 14.587,5.081 14.355,4.808 13.633 C 4.343 12.409,4.257 11.772,4.422 10.767 C 4.710 9.005,6.014 7.506,7.754 6.937 C 8.092 6.826,8.664 6.700,8.827 6.700 C 8.854 6.700,8.709 6.858,8.505 7.052 C 8.053 7.483,7.914 7.720,7.921 8.049 C 7.926 8.301,7.996 8.463,8.186 8.667 C 8.525 9.029,9.085 9.094,9.491 8.818 C 9.697 8.678,11.886 6.424,11.970 6.266 C 12.080 6.058,12.084 5.615,11.977 5.417 C 11.879 5.235,9.567 2.889,9.375 2.776 C 9.250 2.704,9.174 2.686,8.953 2.678 C 8.771 2.671,8.638 2.685,8.544 2.719 " fill="#1A1C1F" stroke="none" fill-rule="evenodd"></path></svg>