<svg width="32" height="32" viewBox="0 0 32 32" fill="none" xmlns="http://www.w3.org/2000/svg"><path d="M16.915 5.121 C 16.750 5.196,16.211 5.698,15.041 6.866 C 14.138 7.768,13.348 8.591,13.286 8.693 C 13.152 8.916,13.139 9.255,13.255 9.532 C 13.353 9.766,16.625 13.054,16.904 13.199 C 17.168 13.335,17.647 13.285,17.896 13.095 C 18.260 12.817,18.402 12.260,18.206 11.877 C 18.157 11.783,17.743 11.325,17.286 10.860 L 16.453 10.013 17.200 10.043 C 21.343 10.215,24.781 13.120,25.665 17.197 C 25.765 17.658,25.782 17.905,25.784 18.960 C 25.786 20.044,25.773 20.249,25.666 20.723 C 25.323 22.257,24.834 23.271,23.676 24.857 C 23.214 25.490,23.393 26.186,24.095 26.484 C 24.644 26.717,25.169 26.318,26.034 25.013 C 26.955 23.622,27.592 21.867,27.784 20.186 C 27.855 19.570,27.855 18.638,27.784 17.893 C 27.434 14.192,25.084 10.834,21.683 9.176 C 20.293 8.498,18.946 8.144,17.480 8.071 C 17.095 8.052,16.800 8.014,16.800 7.985 C 16.800 7.956,17.120 7.603,17.512 7.201 C 18.245 6.447,18.293 6.369,18.293 5.938 C 18.293 5.542,18.009 5.179,17.612 5.069 C 17.328 4.990,17.178 5.001,16.915 5.121 " fill="#1A1C1F" stroke="none" fill-rule="evenodd"></path></svg>