<svg xmlns="http://www.w3.org/2000/svg" width="16" height="16" fill="none"><g clip-path="url(#a)"><path fill="#1A1C1F" fill-rule="evenodd" d="M3.237 12.38c.515 0 .828-.437.828-.765 0-.375-.594-1.28-.594-2.296 0-2.155 1.64-3.779 3.639-3.966l-.547.515c-.125.156-.234.36-.234.562 0 .406.375.766.796.766a.82.82 0 0 0 .574-.224l1.742-1.756a.81.81 0 0 0 .158-.846.7.7 0 0 0-.162-.235l-1.766-1.78a.75.75 0 0 0-.546-.235.8.8 0 0 0-.796.796c0 .203.078.39.234.547l.36.36a5.503 5.503 0 0 0-4.998 5.495c0 1.11.422 3.062 1.312 3.062m3.42 1.5h1.546a.77.77 0 0 0 .765-.781.783.783 0 0 0-.78-.781V9.24a.757.757 0 0 0-1.19-.628l-.807.538a.76.76 0 0 0-.284.943.78.78 0 0 0 .75.474v1.75c-.437 0-.765.359-.765.796 0 .406.328.767.765.767m5.263-5.482c1.28 0 2.155.906 2.155 2.296v.874c0 1.406-.906 2.312-2.233 2.312-1.203 0-2.077-.922-2.077-2.28v-.969c0-1.327.906-2.233 2.155-2.233m-.015 1.558c-.344.009-.579.097-.579.66v.983c0 .547.172.714.594.706.375-.007.578-.19.578-.752v-.875c0-.656-.312-.729-.593-.722" clip-rule="evenodd"/></g><defs><clipPath id="a"><path fill="#fff" d="M0 0h16v16H0z"/></clipPath></defs></svg>