<svg xmlns="http://www.w3.org/2000/svg" width="32" height="32" fill="none"><path fill="#1A1C1F" fill-rule="evenodd" d="M5.76 8.085c-.588.155-1.095.621-1.342 1.233l-.125.309v12.746l.122.301c.162.402.384.698.692.925.3.222.83.401 1.186.401.622 0 .676-.032 4.8-2.875l3.867-2.666.027 1.984c.027 1.914.032 1.994.151 2.29a2.06 2.06 0 0 0 1.702 1.25c.743.062.599.148 5.577-3.285 2.458-1.695 4.577-3.188 4.709-3.317.76-.745.752-2.032-.017-2.774-.321-.311-8.94-6.252-9.323-6.428-.988-.452-2.236.062-2.649 1.09-.118.293-.123.378-.15 2.291l-.027 1.987-3.733-2.575a547 547 0 0 0-3.923-2.691c-.235-.145-.748-.282-1.035-.277a2.5 2.5 0 0 0-.509.081"/></svg>