<svg xmlns="http://www.w3.org/2000/svg" width="20" height="20" fill="none"><g clip-path="url(#a)"><path fill="#1A1C1F" fill-rule="evenodd" d="M4.046 15.475c.644 0 1.034-.546 1.034-.957 0-.469-.741-1.6-.741-2.87 0-2.693 2.05-4.723 4.548-4.957l-.683.644c-.156.194-.293.449-.293.702 0 .507.468.956.996.956.253 0 .532-.091.716-.277l2.178-2.196c.185-.186.268-.454.268-.708a.9.9 0 0 0-.273-.644L9.589 2.942a.94.94 0 0 0-.682-.292 1 1 0 0 0-.996.994.95.95 0 0 0 .293.684l.449.45a6.88 6.88 0 0 0-6.247 6.87c0 1.386.527 3.827 1.64 3.827m4.275 1.874h1.933c.566 0 .956-.468.956-.976a.98.98 0 0 0-.976-.976v-3.844a.946.946 0 0 0-1.487-.787l-1.009.674a.95.95 0 0 0-.432.796c0 .566.468.994 1.015.975v2.187c-.547 0-.957.45-.957.995 0 .508.41.956.957.956m6.579-6.851c1.6 0 2.694 1.133 2.694 2.87v1.092c0 1.758-1.133 2.89-2.792 2.89-1.503 0-2.596-1.152-2.596-2.85v-1.21c0-1.66 1.132-2.791 2.694-2.791zm-.02 1.947c-.43.011-.722.123-.722.825v1.23c0 .684.215.893.742.883.468-.01.722-.24.722-.941v-1.094c0-.82-.39-.912-.742-.903" clip-rule="evenodd"/></g><defs><clipPath id="a"><path fill="#fff" d="M0 0h20v20H0z"/></clipPath></defs></svg>