<svg width="12" height="12" viewBox="0 0 12 12" fill="none" xmlns="http://www.w3.org/2000/svg"><path d="M6.357 1.598 C 6.316 1.606,6.258 1.629,6.227 1.649 C 6.141 1.702,4.686 3.170,4.651 3.238 C 4.564 3.406,4.597 3.682,4.722 3.841 C 4.832 3.979,5.832 4.993,6.035 5.171 C 6.247 5.357,6.305 5.384,6.494 5.383 C 6.675 5.383,6.817 5.323,6.927 5.200 C 7.046 5.069,7.089 4.968,7.088 4.820 C 7.087 4.623,7.034 4.529,6.789 4.280 C 6.674 4.163,6.580 4.057,6.580 4.044 C 6.580 4.010,6.616 4.013,6.877 4.072 C 7.469 4.205,7.957 4.473,8.380 4.899 C 8.717 5.237,8.950 5.612,9.097 6.053 C 9.210 6.391,9.224 6.509,9.215 7.014 C 9.206 7.535,9.211 7.511,8.969 8.182 C 8.796 8.663,8.782 8.734,8.839 8.885 C 8.889 9.017,9.028 9.172,9.145 9.227 C 9.187 9.246,9.268 9.272,9.325 9.284 C 9.847 9.393,10.302 8.541,10.403 7.262 C 10.443 6.760,10.368 6.202,10.189 5.660 C 9.841 4.610,9.084 3.752,8.070 3.260 C 7.649 3.055,7.427 2.988,6.752 2.864 L 6.675 2.850 6.838 2.670 C 7.048 2.438,7.090 2.353,7.089 2.170 C 7.087 1.941,6.962 1.741,6.758 1.645 C 6.659 1.598,6.467 1.576,6.357 1.598 M5.730 6.351 C 5.547 6.397,5.266 6.545,5.115 6.674 C 4.923 6.839,4.811 6.983,4.708 7.196 C 4.562 7.496,4.553 7.564,4.552 8.380 L 4.551 9.090 4.628 9.314 C 4.757 9.694,4.939 9.954,5.204 10.140 C 5.556 10.387,5.978 10.472,6.451 10.389 C 6.998 10.294,7.459 9.922,7.648 9.425 C 7.765 9.116,7.768 9.085,7.769 8.350 C 7.769 7.706,7.766 7.661,7.724 7.510 C 7.596 7.053,7.306 6.675,6.941 6.490 C 6.659 6.348,6.599 6.334,6.210 6.327 C 5.938 6.323,5.821 6.328,5.730 6.351 M2.655 6.381 C 2.527 6.412,1.913 6.805,1.756 6.956 C 1.476 7.223,1.567 7.701,1.930 7.872 C 1.985 7.898,2.068 7.925,2.115 7.932 L 2.200 7.945 2.200 8.602 L 2.200 9.260 2.133 9.260 C 2.044 9.260,1.835 9.367,1.768 9.446 C 1.519 9.741,1.602 10.163,1.948 10.361 L 2.050 10.420 2.780 10.420 L 3.510 10.420 3.612 10.361 C 3.830 10.236,3.959 10.010,3.933 9.798 C 3.901 9.527,3.690 9.299,3.440 9.266 L 3.360 9.255 3.360 8.041 L 3.360 6.826 3.299 6.704 C 3.201 6.508,3.039 6.394,2.830 6.372 C 2.775 6.367,2.696 6.371,2.655 6.381 M6.394 7.527 C 6.430 7.545,6.484 7.603,6.514 7.655 L 6.570 7.750 6.577 8.290 C 6.585 9.001,6.567 9.082,6.373 9.185 C 6.307 9.220,6.256 9.229,6.129 9.230 C 5.985 9.230,5.958 9.224,5.882 9.174 C 5.733 9.075,5.730 9.057,5.731 8.350 C 5.732 7.824,5.737 7.721,5.764 7.670 C 5.838 7.530,5.960 7.476,6.180 7.486 C 6.269 7.490,6.356 7.507,6.394 7.527 " fill="#1A1C1F" stroke="none" fill-rule="evenodd"></path></svg>