<svg width="20" height="20" viewBox="0 0 20 20" fill="none" xmlns="http://www.w3.org/2000/svg"><path d="M4.258 5.051 C 3.572 5.188,2.975 5.724,2.742 6.414 L 2.651 6.683 2.650 10.000 L 2.650 13.317 2.744 13.583 C 2.947 14.157,3.258 14.527,3.737 14.763 C 4.244 15.014,4.732 15.057,5.250 14.898 C 5.514 14.817,5.964 14.528,7.832 13.238 C 8.584 12.719,8.955 12.481,8.969 12.509 C 8.981 12.531,9.000 12.730,9.012 12.950 C 9.023 13.170,9.056 13.440,9.086 13.550 C 9.395 14.707,10.807 15.336,11.867 14.790 C 12.148 14.645,15.106 12.623,16.208 11.822 C 16.740 11.436,16.862 11.323,17.039 11.052 C 17.391 10.513,17.427 9.701,17.125 9.093 C 16.928 8.696,16.621 8.451,14.333 6.866 C 13.060 5.983,12.045 5.307,11.841 5.205 C 11.736 5.152,11.567 5.089,11.467 5.065 C 11.204 5.001,10.725 5.009,10.483 5.080 C 9.820 5.277,9.270 5.808,9.085 6.433 C 9.055 6.534,9.021 6.804,9.011 7.033 C 9.000 7.263,8.981 7.469,8.969 7.493 C 8.953 7.522,8.627 7.315,7.898 6.813 C 6.129 5.593,5.483 5.173,5.288 5.116 C 4.873 4.996,4.617 4.980,4.258 5.051 M12.450 8.001 C 14.482 9.398,15.300 9.971,15.300 10.000 C 15.300 10.033,14.846 10.353,12.650 11.866 C 11.843 12.422,11.142 12.905,11.092 12.940 L 11.000 13.005 11.000 10.001 L 11.000 6.997 11.208 7.144 C 11.323 7.225,11.882 7.610,12.450 8.001 M5.912 7.872 C 7.831 9.192,8.933 9.968,8.933 10.000 C 8.933 10.037,8.739 10.176,6.850 11.483 C 4.925 12.816,4.738 12.940,4.699 12.916 C 4.679 12.903,4.667 11.951,4.667 10.306 C 4.667 7.959,4.683 7.067,4.725 7.067 C 4.733 7.067,5.267 7.429,5.912 7.872 " fill="#1A1C1F" stroke="none" fill-rule="evenodd"></path></svg>