<svg xmlns="http://www.w3.org/2000/svg" width="28" height="28" fill="none"><g clip-path="url(#a)"><path fill="#1A1C1F" fill-rule="evenodd" d="M12.775 13.938c1.591 0 2.746 1.02 2.746 2.422 0 .703-.261 1.25-.649 1.677.682.462 1.102 1.232 1.102 2.157 0 3.221-4.066 3.417-5.597 3.49q-.021.003-.043.002a.875.875 0 1 1-.04-1.75c3.463-.166 3.93-.973 3.93-1.742 0-.565-.339-.876-.955-.876l-.095.001-.183.006c-.273.015-.567.06-1.175.18a.874.874 0 0 1-.367-1.71c1.059-.247 2.322-.694 2.322-1.435 0-.623-.763-.672-.996-.672-.568 0-1.15.158-1.833.494a.875.875 0 0 1-.776-1.568c.933-.462 1.762-.676 2.609-.676m-.058-9.625c.226 0 .451.084.62.253L16.1 7.324c.17.17.254.394.254.62s-.085.45-.254.62l-2.762 2.756a.87.87 0 0 1-.62.254.86.86 0 0 1-.874-.873c0-.225.084-.45.253-.619l1.382-1.379c-4.37-.197-8.231 3.293-8.231 7.824 0 1.885.676 3.743 1.945 5.178.13.159.2.358.197.563 0 .507-.367.9-.874.9-.254 0-.507-.112-.648-.309-1.55-1.745-2.368-3.996-2.368-6.304 0-5.347 4.397-9.653 9.753-9.597l-1.156-1.153a.87.87 0 0 1-.253-.62.86.86 0 0 1 .873-.872m8.288 9.625c2.03 0 3.495 1.313 3.495 3.518v2.56c0 2.235-1.522 3.518-3.495 3.547-1.973.028-3.467-1.313-3.467-3.49v-2.702c0-2.12 1.55-3.433 3.467-3.433m0 1.745c-1.212 0-1.748.534-1.748 1.688v2.702c0 1.266.507 1.773 1.748 1.773 1.212 0 1.776-.59 1.776-1.83v-2.56c0-1.267-.508-1.773-1.776-1.773" clip-rule="evenodd"/></g><defs><clipPath id="a"><path fill="#fff" d="M0 0h28v28H0z"/></clipPath></defs></svg>