<svg xmlns="http://www.w3.org/2000/svg" width="20" height="20" fill="none"><g clip-path="url(#a)"><path fill="#1A1C1F" fill-rule="evenodd" d="M4.046 15.39c.644 0 1.034-.546 1.034-.956 0-.468-.741-1.6-.741-2.87 0-2.693 2.05-4.723 4.548-4.957l-.683.644c-.156.195-.293.449-.293.703 0 .507.468.956.996.956.253 0 .532-.092.716-.278l2.178-2.196c.185-.186.268-.454.268-.708a.9.9 0 0 0-.273-.644L9.589 2.859a.94.94 0 0 0-.682-.293 1 1 0 0 0-.996.995.95.95 0 0 0 .293.684l.449.449a6.88 6.88 0 0 0-6.247 6.87c0 1.386.527 3.826 1.64 3.826m4.773-5.04c1.26 0 2.175.827 2.175 1.966q0 .619-.63 1.083c.574.32.921.808.921 1.382 0 2.46-3.001 2.606-3.987 2.653H7.25a.972.972 0 0 1-.046-1.943c1.403-.066 2.137-.274 2.137-.614 0-.136-.086-.288-.271-.288-.505 0-.7.17-1.004.17-.488 0-.945-.434-.945-.968 0-.415.303-.782.752-.873.745-.152 1.205-.326 1.205-.466 0-.073-.09-.16-.302-.16-.588 0-.952.377-1.409.377-.495 0-.948-.443-.948-.975 0-.353.2-.7.542-.87.659-.323 1.25-.474 1.858-.474m6.08.063c1.601 0 2.695 1.133 2.695 2.87v1.093c0 1.757-1.133 2.89-2.792 2.89-1.503 0-2.596-1.152-2.596-2.85v-1.212c0-1.66 1.132-2.79 2.694-2.79zm-.019 1.947c-.43.011-.722.123-.722.825v1.23c0 .684.215.893.742.883.468-.01.722-.24.722-.941v-1.093c0-.82-.39-.912-.742-.903" clip-rule="evenodd"/></g><defs><clipPath id="a"><path fill="#fff" d="M0 0h20v20H0z"/></clipPath></defs></svg>