<svg xmlns="http://www.w3.org/2000/svg" width="16" height="16" fill="none"><g clip-path="url(#a)"><path fill="#1A1C1F" fill-rule="evenodd" d="M8.8 4c.319 0 .636.095.908.282l3.482 2.4a1.603 1.603 0 0 1 0 2.636l-3.482 2.4A1.601 1.601 0 0 1 7.2 10.4v-.457l-2.573 1.775A1.6 1.6 0 0 1 2.119 10.4V5.6a1.6 1.6 0 0 1 2.508-1.318l2.572 1.775V5.6a1.6 1.6 0 0 1 1.6-1.6m0 1.6v4.8L12.282 8zm-5.081 0v4.8L7.199 8z" clip-rule="evenodd"/></g><defs><clipPath id="a"><path fill="#fff" d="M0 0h16v16H0z"/></clipPath></defs></svg>