<svg width="48" height="48" viewBox="0 0 48 48" fill="none" xmlns="http://www.w3.org/2000/svg"><path d="M6.239 11.115 C 5.634 11.299,5.061 11.824,4.871 12.370 C 4.782 12.625,4.762 14.684,4.761 24.000 C 4.760 36.861,4.700 35.759,5.438 36.423 C 6.055 36.978,6.925 37.128,7.561 36.791 C 7.947 36.586,12.168 33.713,18.468 29.368 C 21.035 27.597,23.156 26.170,23.182 26.196 C 23.208 26.222,23.253 28.362,23.282 30.951 L 23.334 35.659 23.518 35.956 C 23.762 36.351,24.419 36.861,24.767 36.927 C 25.250 37.017,25.872 36.923,26.248 36.702 C 27.000 36.261,41.063 26.572,42.234 25.688 C 42.911 25.178,43.131 24.830,43.184 24.186 C 43.232 23.615,43.071 23.075,42.761 22.769 C 42.170 22.185,26.457 11.339,25.926 11.149 C 25.039 10.832,24.039 11.215,23.544 12.061 L 23.324 12.436 23.279 17.095 C 23.254 19.657,23.210 21.776,23.182 21.804 C 23.154 21.832,20.654 20.148,17.626 18.061 C 9.914 12.746,7.893 11.376,7.501 11.198 C 7.154 11.041,6.602 11.004,6.239 11.115 " fill="#1A1C1F" stroke="none" fill-rule="evenodd"></path></svg>