<svg xmlns="http://www.w3.org/2000/svg" width="14" height="14" fill="none"><g clip-path="url(#a)"><path fill="#1A1C1F" fill-rule="evenodd" d="M10.984 10.833c-.45 0-.724-.383-.724-.67 0-.328.52-1.12.52-2.009 0-1.885-1.436-3.306-3.185-3.47l.479.45c.109.137.205.315.205.492 0 .356-.328.67-.697.67a.72.72 0 0 1-.502-.195L5.556 4.564a.7.7 0 0 1-.188-.495c0-.178.069-.328.19-.451L7.104 2.06a.66.66 0 0 1 .478-.205.7.7 0 0 1 .697.697.66.66 0 0 1-.205.478l-.315.314a4.815 4.815 0 0 1 4.373 4.81l-.006.219c-.049.987-.419 2.46-1.142 2.46m-8.405 1.312h1.352c.397 0 .67-.328.67-.684 0-.369-.3-.683-.683-.683V8.086a.662.662 0 0 0-1.041-.55l-.706.471a.67.67 0 0 0-.303.557c0 .397.328.697.71.684v1.53c-.382 0-.669.314-.669.697 0 .355.287.67.67.67m4.605-4.797c1.12 0 1.885.793 1.885 2.009v.765c0 1.23-.792 2.023-1.954 2.023-1.052 0-1.817-.807-1.817-1.995v-.848c0-1.161.792-1.954 1.886-1.954M7.17 8.712l-.059.002c-.268.017-.447.115-.447.575v.86c0 .479.15.625.52.618.328-.006.505-.167.505-.658v-.766c0-.574-.272-.637-.519-.631" clip-rule="evenodd"/></g><defs><clipPath id="a"><path fill="#fff" d="M0 0h14v14H0z"/></clipPath></defs></svg>