<svg width="64" height="64" viewBox="0 0 64 64" fill="none" xmlns="http://www.w3.org/2000/svg"><path d="M29.727 16.102 C 29.206 16.269,22.094 21.086,13.920 26.809 C 9.889 29.631,9.466 29.949,9.175 30.370 C 8.477 31.379,8.478 32.617,9.178 33.638 C 9.310 33.831,9.807 34.279,10.283 34.633 C 12.584 36.346,22.071 42.887,26.980 46.146 L 29.694 47.947 30.500 47.944 C 31.132 47.942,31.407 47.889,31.770 47.697 C 32.410 47.359,33.131 46.610,33.291 46.117 C 33.385 45.826,33.442 44.290,33.485 40.835 C 33.519 38.156,33.580 35.931,33.621 35.890 C 33.662 35.849,35.390 36.977,37.461 38.397 C 39.532 39.817,43.387 42.461,46.027 44.273 C 48.667 46.085,50.994 47.649,51.199 47.748 C 51.448 47.868,51.829 47.926,52.346 47.923 C 53.646 47.914,54.500 47.359,55.132 46.111 L 55.360 45.662 55.360 31.976 L 55.360 18.290 55.133 17.865 C 54.481 16.643,53.590 16.061,52.381 16.065 C 51.860 16.068,51.557 16.132,51.200 16.316 C 50.513 16.671,46.940 19.083,39.842 23.983 C 36.440 26.332,33.635 28.230,33.607 28.202 C 33.579 28.175,33.523 25.934,33.482 23.223 C 33.437 20.208,33.364 18.148,33.293 17.920 C 32.924 16.726,30.938 15.713,29.727 16.102 M30.479 31.893 C 30.480 37.027,30.451 42.054,30.414 43.066 L 30.347 44.905 24.373 40.787 C 16.123 35.098,11.840 32.098,11.840 32.008 C 11.840 31.915,14.895 29.774,23.675 23.715 L 30.347 19.111 30.412 20.835 C 30.448 21.784,30.478 26.760,30.479 31.893 M52.350 32.160 C 52.351 38.203,52.321 43.539,52.283 44.019 L 52.213 44.891 49.867 43.287 C 42.515 38.260,33.707 32.104,33.707 31.994 C 33.707 31.888,40.564 27.108,49.493 20.989 L 52.213 19.125 52.281 20.149 C 52.318 20.712,52.349 26.117,52.350 32.160 " fill="#1A1C1F" stroke="none" fill-rule="evenodd"></path></svg>