<svg width="48" height="48" viewBox="0 0 48 48" fill="none" xmlns="http://www.w3.org/2000/svg"><path d="M22.072 11.145 C 21.756 11.263,20.133 12.353,15.400 15.625 C 9.406 19.768,5.488 22.522,5.242 22.766 C 4.683 23.320,4.646 24.466,5.165 25.167 C 5.397 25.479,11.554 29.785,19.516 35.203 C 22.025 36.910,22.033 36.914,22.517 36.945 C 23.412 37.002,24.018 36.687,24.459 35.935 L 24.677 35.562 24.721 30.906 C 24.745 28.345,24.786 26.227,24.813 26.200 C 24.841 26.173,27.180 27.748,30.011 29.701 C 36.420 34.119,40.024 36.570,40.439 36.790 C 41.073 37.128,41.945 36.978,42.559 36.426 C 43.280 35.777,43.217 36.880,43.262 24.075 C 43.301 12.845,43.300 12.748,43.140 12.386 C 42.754 11.515,41.947 10.986,41.116 11.062 C 40.868 11.084,40.543 11.165,40.393 11.242 C 40.039 11.424,37.181 13.369,30.376 18.062 C 27.348 20.150,24.847 21.834,24.818 21.805 C 24.789 21.776,24.742 19.657,24.714 17.096 C 24.686 14.535,24.635 12.368,24.600 12.280 C 24.479 11.975,24.153 11.603,23.787 11.351 C 23.484 11.142,23.324 11.092,22.889 11.067 C 22.568 11.049,22.247 11.080,22.072 11.145 " fill="#1A1C1F" stroke="none" fill-rule="evenodd"></path></svg>