<svg xmlns="http://www.w3.org/2000/svg" width="32" height="32" fill="none"><path fill="#1A1C1F" fill-rule="evenodd" d="M5.813 8.073c-.842.232-1.376.847-1.498 1.724-.032.23-.046 2.729-.037 6.475l.015 6.101.122.301c.162.402.384.698.692.925.3.222.83.401 1.186.401.622 0 .676-.032 4.8-2.875l3.867-2.666.027 1.984c.027 1.91.032 1.995.15 2.288.394.981 1.519 1.497 2.504 1.148.256-.091 1.375-.836 4.747-3.158 2.427-1.672 4.538-3.157 4.692-3.301.805-.752.818-2.052.029-2.813-.327-.316-8.935-6.249-9.339-6.437-.257-.12-.377-.142-.784-.142-.437-.001-.514.015-.836.173-.441.217-.841.638-1.012 1.066-.119.296-.124.376-.151 2.293l-.027 1.987-3.733-2.575a547 547 0 0 0-3.923-2.691c-.235-.145-.748-.282-1.035-.277a2.2 2.2 0 0 0-.456.069m4.88 4.957c2.259 1.554 4.147 2.864 4.195 2.911.082.079-.241.313-4.209 3.046a640 640 0 0 1-4.342 2.977c-.024.01-.044-2.675-.044-5.966v-5.984l.147.095c.081.052 1.995 1.367 4.253 2.921m10.687-.008c2.336 1.61 4.253 2.946 4.261 2.969.011.032-7.675 5.378-8.475 5.894l-.153.099v-5.982c0-4.415.016-5.972.06-5.945.033.021 1.971 1.355 4.307 2.965"/></svg>