<svg width="32" height="32" viewBox="0 0 32 32" fill="none" xmlns="http://www.w3.org/2000/svg"><path d="M14.070 5.122 C 13.779 5.276,13.589 5.554,13.558 5.870 C 13.515 6.321,13.627 6.508,14.399 7.279 C 14.781 7.660,15.093 7.990,15.093 8.013 C 15.093 8.035,14.883 8.053,14.625 8.053 C 12.944 8.053,10.838 8.678,9.280 9.640 C 7.838 10.529,6.510 11.841,5.655 13.219 C 3.935 15.992,3.540 19.335,4.564 22.447 C 4.980 23.711,5.643 24.912,6.498 25.947 C 7.003 26.558,7.373 26.683,7.917 26.424 C 8.287 26.249,8.496 25.748,8.404 25.257 C 8.383 25.142,8.246 24.915,8.058 24.680 C 7.103 23.490,6.497 22.221,6.178 20.747 C 6.073 20.257,6.057 20.032,6.056 18.960 C 6.055 17.885,6.070 17.666,6.174 17.191 C 6.438 15.994,6.857 15.003,7.526 13.994 C 8.055 13.197,9.135 12.118,9.943 11.580 C 11.401 10.608,12.909 10.110,14.587 10.046 L 15.387 10.015 14.549 10.861 C 14.036 11.378,13.679 11.784,13.629 11.905 C 13.345 12.591,13.799 13.280,14.533 13.280 C 14.667 13.280,14.854 13.247,14.948 13.206 C 15.044 13.164,15.896 12.352,16.864 11.379 C 18.485 9.750,18.611 9.611,18.644 9.401 C 18.664 9.277,18.681 9.169,18.682 9.161 C 18.684 9.153,18.667 9.039,18.646 8.907 C 18.610 8.678,18.525 8.583,16.891 6.941 C 15.766 5.811,15.100 5.181,14.960 5.115 C 14.686 4.987,14.320 4.990,14.070 5.122 " fill="#1A1C1F" stroke="none" fill-rule="evenodd"></path></svg>