<svg xmlns="http://www.w3.org/2000/svg" width="32" height="32" fill="none"><path fill="#1A1C1F" fill-rule="evenodd" d="M17.04 4.888c-.233.121-3.482 3.37-3.604 3.603a1.02 1.02 0 0 0 0 .869c.138.296 3.371 3.513 3.642 3.625.522.215 1.131-.025 1.319-.522a1.4 1.4 0 0 0 0-.766c-.03-.083-.444-.543-.92-1.023l-.864-.872.827.03c1.301.046 2.278.293 3.493.884 3.344 1.625 5.337 5.068 5.04 8.706-.151 1.843-.728 3.331-1.884 4.86-.413.545-.482.667-.503.882-.036.377.062.662.305.881.338.306.739.363 1.133.162.377-.193 1.37-1.595 1.883-2.659.713-1.478 1.028-2.773 1.078-4.428.094-3.145-1.041-5.957-3.299-8.171a11.2 11.2 0 0 0-3.939-2.485c-.909-.336-2.336-.623-3.101-.625-.186 0-.431-.015-.543-.034l-.203-.033.72-.727c.396-.4.745-.794.777-.876a1.4 1.4 0 0 0 0-.766 1.1 1.1 0 0 0-.515-.53c-.227-.096-.642-.089-.842.015m-.533 10.978c-.935.174-1.659.581-2.241 1.259-.535.623-.787 1.273-.885 2.276-.086.874-.031 3.914.079 4.389.243 1.052.745 1.802 1.569 2.347.723.478 1.475.668 2.461.621.708-.034 1.218-.16 1.817-.452.572-.279 1.285-.996 1.564-1.575.423-.874.433-.955.433-3.478l.001-2.24-.149-.478c-.202-.648-.466-1.132-.845-1.545-.87-.95-2.366-1.392-3.804-1.124m-9.707.298c-.836.141-2.077.646-2.332.949a.988.988 0 0 0 .267 1.485c.345.202.626.184 1.238-.08.606-.262.996-.369 1.512-.416.793-.072 1.341.182 1.404.649q.129.953-2.169 1.61c-.977.28-1.228.509-1.226 1.117.002.46.342.871.789.955.115.022.47-.01.889-.078 1.665-.274 2.224-.045 2.221.907-.001.311-.027.42-.154.649-.391.703-1.532 1.094-3.731 1.28-.774.065-.886.087-1.073.211-.552.365-.568 1.209-.031 1.618l.202.153.804-.005c1.487-.009 2.992-.325 4.032-.848 1.357-.681 2.034-1.805 1.957-3.248-.046-.874-.364-1.561-.963-2.085l-.265-.232.161-.204q.561-.714.558-1.72c-.004-1.273-.838-2.277-2.175-2.619-.441-.113-1.389-.137-1.915-.048m11.008 1.652c.539.067.881.229 1.148.54.36.421.377.555.377 2.897 0 1.864-.01 2.111-.096 2.374-.155.471-.402.762-.82.968-.336.166-.404.18-.988.197-1.047.032-1.584-.205-1.892-.833l-.15-.306-.016-2.23c-.018-2.483-.006-2.598.325-3.032.223-.293.65-.514 1.104-.573.496-.064.517-.064 1.008-.002"/></svg>