<svg xmlns="http://www.w3.org/2000/svg" width="28" height="28" fill="none"><g clip-path="url(#a)"><path fill="#1A1C1F" fill-rule="evenodd" d="M3.5 16.616c0-5.347 4.397-9.653 9.753-9.597l-1.156-1.153a.87.87 0 0 1-.253-.62.86.86 0 0 1 .873-.872c.226 0 .451.084.62.253L16.1 7.385c.17.17.254.394.254.62s-.085.45-.254.62l-2.762 2.756a.88.88 0 0 1-.62.254.86.86 0 0 1-.874-.873c0-.225.084-.45.253-.619l1.382-1.379c-4.37-.197-8.231 3.293-8.231 7.824 0 1.885.676 3.743 1.945 5.178.13.159.2.358.197.563 0 .507-.367.9-.874.9-.254 0-.507-.112-.648-.309-1.55-1.745-2.368-3.996-2.368-6.304m6.117-.188c0-.31.197-.647.479-.788l2.565-1.294a.9.9 0 0 1 .367-.085c.394 0 .902.282.902.873v6.745h1.832a.86.86 0 0 1 .874.872.88.88 0 0 1-.874.873h-5.243a.878.878 0 0 1-.621-1.494.86.86 0 0 1 .621-.25h1.663v-5.31l-1.297.646a.9.9 0 0 1-.366.085c-.48 0-.902-.422-.902-.873M21.005 14c2.03 0 3.495 1.313 3.495 3.52v2.56c0 2.234-1.522 3.517-3.495 3.546s-3.467-1.313-3.467-3.49v-2.702c0-2.12 1.55-3.433 3.467-3.433m0 1.746c-1.212 0-1.748.534-1.748 1.688v2.702c0 1.266.507 1.773 1.748 1.773 1.212 0 1.776-.59 1.776-1.83v-2.56c0-1.267-.508-1.773-1.776-1.773" clip-rule="evenodd"/></g><defs><clipPath id="a"><path fill="#fff" d="M0 0h28v28H0z"/></clipPath></defs></svg>