<svg width="64" height="64" viewBox="0 0 64 64" fill="none" xmlns="http://www.w3.org/2000/svg"><path d="M10.741 16.148 C 10.067 16.399,9.478 16.875,9.075 17.493 L 8.693 18.080 8.693 32.000 L 8.693 45.920 9.120 46.557 C 9.839 47.630,11.023 48.129,12.284 47.890 C 12.894 47.774,13.176 47.587,23.753 40.302 C 27.402 37.789,30.410 35.733,30.439 35.733 C 30.468 35.733,30.507 38.001,30.526 40.773 C 30.560 45.812,30.560 45.814,30.810 46.321 C 31.065 46.838,31.649 47.389,32.320 47.745 C 32.587 47.886,32.923 47.943,33.496 47.945 L 34.299 47.947 35.434 47.223 C 39.239 44.797,53.931 34.585,54.600 33.900 C 54.996 33.496,55.360 32.584,55.360 32.000 C 55.360 31.529,55.024 30.567,54.743 30.233 C 54.482 29.923,53.511 29.218,49.067 26.116 C 42.245 21.354,35.707 16.875,34.871 16.390 C 34.453 16.148,34.258 16.107,33.532 16.107 C 32.831 16.107,32.584 16.155,32.128 16.383 C 31.492 16.700,30.879 17.361,30.709 17.913 C 30.636 18.149,30.564 20.160,30.518 23.223 C 30.477 25.934,30.420 28.175,30.392 28.204 C 30.363 28.232,27.797 26.499,24.690 24.352 C 17.772 19.572,13.428 16.635,12.828 16.332 C 12.240 16.035,11.273 15.949,10.741 16.148 M49.600 30.131 C 50.451 30.729,51.375 31.380,51.653 31.577 C 51.932 31.773,52.160 31.968,52.160 32.009 C 52.160 32.096,47.979 35.026,40.533 40.157 C 37.571 42.199,34.775 44.130,34.320 44.449 L 33.493 45.028 33.493 32.014 L 33.493 19.000 40.773 24.022 C 44.777 26.783,48.749 29.533,49.600 30.131 M18.880 24.006 C 26.496 29.242,30.226 31.851,30.264 31.967 C 30.283 32.024,29.350 32.736,28.189 33.550 C 25.166 35.671,16.085 41.959,13.749 43.549 L 11.765 44.899 11.696 43.766 C 11.606 42.296,11.606 21.861,11.696 20.299 L 11.765 19.105 12.736 19.777 C 13.270 20.147,16.035 22.050,18.880 24.006 " fill="#1A1C1F" stroke="none" fill-rule="evenodd"></path></svg>