<svg width="32" height="32" viewBox="0 0 32 32" fill="none" xmlns="http://www.w3.org/2000/svg"><path d="M14.200 5.003 C 13.842 5.114,13.547 5.527,13.547 5.917 C 13.547 6.262,13.718 6.520,14.432 7.253 L 15.096 7.934 14.575 7.969 C 13.585 8.037,12.585 8.205,11.866 8.424 C 8.200 9.543,5.343 12.475,4.379 16.108 C 4.091 17.192,4.033 17.671,4.035 18.933 C 4.037 20.176,4.118 20.808,4.403 21.826 C 4.837 23.372,5.678 24.971,6.565 25.940 C 6.948 26.357,7.110 26.454,7.424 26.452 C 8.048 26.449,8.475 25.965,8.414 25.330 C 8.394 25.121,8.332 24.995,8.083 24.656 C 7.008 23.197,6.479 22.074,6.178 20.613 C 6.075 20.112,6.058 19.867,6.060 18.933 C 6.062 17.653,6.138 17.114,6.446 16.175 C 6.920 14.733,7.681 13.533,8.809 12.453 C 9.478 11.813,10.046 11.399,10.784 11.013 C 11.804 10.480,12.705 10.189,13.759 10.052 C 14.364 9.973,15.232 9.934,15.282 9.984 C 15.299 10.001,14.960 10.384,14.528 10.834 C 13.652 11.747,13.547 11.890,13.547 12.164 C 13.546 13.004,14.337 13.487,15.016 13.062 C 15.321 12.871,18.385 9.826,18.554 9.547 C 18.625 9.429,18.666 9.271,18.665 9.120 C 18.663 8.653,18.537 8.487,17.131 7.103 C 16.406 6.390,15.614 5.623,15.369 5.400 C 14.935 5.002,14.919 4.993,14.623 4.979 C 14.456 4.971,14.266 4.982,14.200 5.003 M13.787 16.004 C 13.091 16.100,12.132 16.427,11.551 16.768 C 11.154 17.000,10.982 17.550,11.167 17.992 C 11.262 18.222,11.580 18.480,11.864 18.559 C 12.109 18.628,11.990 18.660,13.333 18.172 C 13.727 18.029,13.874 18.005,14.453 17.986 C 15.120 17.965,15.120 17.965,15.370 18.126 C 15.703 18.340,15.793 18.601,15.658 18.955 C 15.472 19.441,14.915 19.780,13.635 20.185 C 13.008 20.383,12.802 20.473,12.642 20.618 C 12.149 21.063,12.258 21.873,12.852 22.173 C 13.135 22.317,13.381 22.324,13.981 22.206 C 14.226 22.157,14.679 22.115,14.987 22.112 C 15.492 22.107,15.570 22.120,15.781 22.240 C 16.096 22.419,16.213 22.651,16.213 23.093 C 16.211 24.261,15.239 24.754,12.382 25.038 C 11.426 25.133,11.171 25.221,10.986 25.522 C 10.809 25.808,10.783 26.213,10.925 26.491 C 11.067 26.768,11.312 26.973,11.558 27.019 C 11.865 27.077,13.138 27.001,13.840 26.883 C 15.507 26.603,16.553 26.159,17.310 25.411 C 18.084 24.645,18.402 23.521,18.163 22.391 C 18.053 21.872,17.858 21.504,17.430 21.009 C 17.117 20.647,17.061 20.556,17.112 20.485 C 17.531 19.899,17.714 19.356,17.715 18.689 C 17.718 17.445,16.941 16.475,15.629 16.086 C 15.269 15.979,14.287 15.935,13.787 16.004 M23.315 16.000 C 22.491 16.116,21.745 16.492,21.145 17.092 C 20.672 17.565,20.414 17.999,20.205 18.667 C 20.082 19.062,20.080 19.097,20.082 21.467 L 20.084 23.867 20.232 24.293 C 20.458 24.942,20.720 25.369,21.169 25.818 C 21.646 26.295,22.086 26.555,22.736 26.743 C 23.615 26.997,24.468 26.981,25.371 26.695 C 25.966 26.506,26.418 26.223,26.908 25.734 C 27.388 25.254,27.621 24.842,27.866 24.036 L 28.009 23.565 27.986 21.369 C 27.961 19.031,27.945 18.875,27.669 18.222 C 27.223 17.164,26.257 16.336,25.173 16.082 C 24.740 15.981,23.762 15.938,23.315 16.000 M24.579 17.998 C 25.042 18.037,25.511 18.287,25.711 18.602 C 25.983 19.031,26.000 19.206,25.995 21.499 L 25.991 23.611 25.829 23.952 C 25.626 24.383,25.347 24.659,24.965 24.809 C 24.719 24.906,24.555 24.927,24.027 24.929 C 23.182 24.934,22.861 24.839,22.504 24.483 C 22.065 24.043,22.054 23.972,22.054 21.440 C 22.053 19.117,22.060 19.047,22.336 18.611 C 22.609 18.182,23.335 17.899,24.027 17.953 C 24.144 17.962,24.392 17.982,24.579 17.998 " fill="#1A1C1F" stroke="none" fill-rule="evenodd"></path></svg>