<svg xmlns="http://www.w3.org/2000/svg" width="24" height="24" fill="none"><g clip-path="url(#a)"><path fill="#1A1C1F" fill-rule="evenodd" d="M5.325 12c1.53 0 2.64.99 2.64 2.354q0 .804-.468 1.423c.54.454.863 1.133.863 1.932 0 3.043-3.72 3.222-5.12 3.29L3.19 21a1 1 0 0 1-.047-2c3.032-.146 3.205-.862 3.215-1.229v-.062c0-.131 0-.531-.6-.531-.324 0-.535.021-1.226.158a1 1 0 0 1-.42-1.955c.555-.13 1.85-.49 1.85-1.027 0-.327-.487-.353-.637-.353-.46 0-.936.13-1.5.408a1 1 0 0 1-.885-1.795C3.79 12.196 4.548 12 5.325 12m8.91-9c.56 0 1.024.434 1.024.961a1 1 0 0 1-.34.745l-.404.403c4.124.341 7.32 3.783 7.32 7.908a7.94 7.94 0 0 1-2.358 5.644.96.96 0 0 1-.683.28 1 1 0 0 1-.992-.993.96.96 0 0 1 .28-.683c1.147-1.178 1.767-2.698 1.767-4.217 0-3.132-2.42-5.737-5.52-5.954l.558.62a.88.88 0 0 1 .31.682c0 .527-.434.992-.96.992q-.466 0-.746-.279l-2.17-2.202a.98.98 0 0 1-.28-.713c0-.279.094-.496.28-.682l2.263-2.295c.186-.145.415-.221.651-.217m-1.568 9c1.768 0 2.977 1.334 2.977 3.318v2.264c0 1.985-1.21 3.318-2.977 3.318-1.799 0-2.977-1.333-2.977-3.287v-2.357c0-1.984 1.178-3.256 2.977-3.256m.023 2c-.625 0-1 .472-1 1.258v2.421c0 .85.375 1.321 1 1.321s1-.472 1-1.352v-2.296c0-.849-.375-1.352-1-1.352" clip-rule="evenodd"/></g><defs><clipPath id="a"><path fill="#fff" d="M0 0h24v24H0z"/></clipPath></defs></svg>