<svg width="16" height="16" viewBox="0 0 16 16" fill="none" xmlns="http://www.w3.org/2000/svg"><path d="M8.876 2.064 C 8.808 2.082,8.720 2.118,8.681 2.144 C 8.458 2.290,6.698 4.101,6.607 4.278 C 6.529 4.431,6.528 4.719,6.606 4.869 C 6.691 5.032,7.031 5.398,7.884 6.244 C 8.607 6.962,8.662 7.011,8.798 7.051 C 9.110 7.142,9.411 7.072,9.626 6.856 C 9.799 6.682,9.852 6.560,9.852 6.333 C 9.852 6.063,9.793 5.957,9.445 5.598 C 9.252 5.400,9.163 5.290,9.189 5.284 C 9.211 5.280,9.327 5.295,9.448 5.319 C 10.373 5.502,11.221 5.982,11.762 6.630 C 12.339 7.320,12.624 8.010,12.695 8.891 C 12.748 9.544,12.682 9.922,12.364 10.779 C 12.172 11.299,12.152 11.372,12.156 11.554 C 12.168 12.058,12.788 12.441,13.226 12.215 C 13.481 12.082,13.725 11.757,13.883 11.336 C 14.167 10.581,14.284 9.867,14.258 9.053 C 14.242 8.538,14.203 8.264,14.079 7.796 C 13.529 5.709,11.810 4.148,9.665 3.787 C 9.475 3.755,9.317 3.725,9.312 3.721 C 9.308 3.717,9.403 3.607,9.523 3.477 C 9.801 3.174,9.878 3.016,9.860 2.789 C 9.827 2.381,9.541 2.083,9.147 2.045 C 9.066 2.037,8.945 2.046,8.876 2.064 M3.332 8.349 C 2.955 8.398,2.398 8.606,2.147 8.792 C 1.917 8.962,1.816 9.305,1.905 9.613 C 1.992 9.909,2.323 10.160,2.630 10.160 C 2.678 10.160,2.886 10.101,3.092 10.028 C 3.600 9.849,3.878 9.826,3.958 9.956 C 4.023 10.062,3.845 10.143,3.071 10.358 C 2.930 10.397,2.771 10.462,2.705 10.508 C 2.225 10.838,2.408 11.629,3.005 11.803 C 3.140 11.842,3.164 11.841,3.494 11.775 C 3.917 11.692,4.035 11.688,4.106 11.759 C 4.245 11.899,4.182 12.075,3.956 12.179 C 3.754 12.271,3.273 12.362,2.741 12.409 C 2.319 12.445,2.286 12.452,2.128 12.539 C 1.852 12.689,1.713 12.948,1.741 13.262 C 1.768 13.556,1.925 13.782,2.187 13.904 C 2.427 14.016,3.272 13.960,3.967 13.786 C 4.505 13.651,4.877 13.460,5.199 13.156 C 5.509 12.861,5.669 12.546,5.736 12.099 C 5.808 11.615,5.602 11.151,5.188 10.867 C 5.107 10.810,5.040 10.757,5.040 10.748 C 5.040 10.738,5.089 10.683,5.148 10.625 C 5.411 10.369,5.539 10.065,5.510 9.761 C 5.489 9.533,5.383 9.224,5.265 9.046 C 4.889 8.479,4.213 8.235,3.332 8.349 M8.227 8.346 C 8.017 8.370,7.821 8.435,7.560 8.569 C 7.397 8.652,7.289 8.736,7.103 8.920 C 6.889 9.133,6.843 9.196,6.725 9.441 C 6.487 9.933,6.439 10.253,6.462 11.224 C 6.478 11.923,6.497 12.058,6.634 12.444 C 6.741 12.747,6.859 12.933,7.100 13.178 C 7.348 13.429,7.534 13.553,7.824 13.659 C 8.232 13.808,8.879 13.813,9.299 13.670 C 9.660 13.546,9.861 13.422,10.120 13.161 C 10.400 12.880,10.508 12.708,10.630 12.352 C 10.758 11.977,10.784 11.692,10.766 10.840 C 10.749 10.067,10.733 9.957,10.585 9.592 C 10.364 9.048,9.954 8.647,9.411 8.443 C 9.134 8.339,8.638 8.298,8.227 8.346 M8.934 9.934 C 8.972 9.953,9.039 10.020,9.082 10.083 L 9.160 10.195 9.160 11.029 L 9.160 11.862 9.080 11.978 C 8.943 12.173,8.679 12.256,8.407 12.188 C 8.262 12.152,8.177 12.082,8.104 11.941 C 8.057 11.850,8.053 11.776,8.053 11.023 L 8.053 10.205 8.121 10.089 C 8.194 9.965,8.255 9.921,8.400 9.890 C 8.526 9.863,8.848 9.889,8.934 9.934 " fill="#1A1C1F" stroke="none" fill-rule="evenodd"></path></svg>