<svg width="28" height="28" viewBox="0 0 28 28" fill="none" xmlns="http://www.w3.org/2000/svg"><path d="M14.801 4.481 C 14.656 4.546,14.185 4.985,13.161 6.008 C 12.371 6.797,11.680 7.517,11.625 7.607 C 11.493 7.827,11.493 8.181,11.626 8.400 C 11.681 8.490,12.390 9.227,13.201 10.038 C 14.797 11.633,14.821 11.652,15.267 11.609 C 15.533 11.583,15.783 11.409,15.920 11.153 C 16.014 10.978,16.035 10.626,15.963 10.437 C 15.938 10.373,15.579 9.973,15.163 9.547 L 14.408 8.773 14.659 8.774 C 15.089 8.775,15.989 8.862,16.368 8.939 C 17.209 9.110,18.322 9.581,19.081 10.088 C 20.034 10.724,20.838 11.552,21.454 12.530 C 21.677 12.884,22.097 13.791,22.233 14.210 C 22.633 15.449,22.695 16.965,22.403 18.358 C 22.224 19.214,21.747 20.280,21.190 21.070 C 21.009 21.327,20.786 21.645,20.693 21.778 C 20.317 22.318,20.485 22.920,21.083 23.174 C 21.560 23.376,22.019 23.031,22.765 21.910 C 23.685 20.527,24.264 18.793,24.339 17.197 C 24.378 16.353,24.299 15.258,24.150 14.600 C 23.598 12.154,22.166 10.061,20.093 8.672 C 18.614 7.680,16.640 7.047,15.029 7.047 C 14.815 7.047,14.700 7.028,14.700 6.994 C 14.700 6.965,14.980 6.653,15.323 6.301 C 15.965 5.641,16.007 5.573,16.007 5.196 C 16.007 4.849,15.758 4.532,15.410 4.435 C 15.162 4.366,15.031 4.376,14.801 4.481 " fill="#1A1C1F" stroke="none" fill-rule="evenodd"></path></svg>