<svg width="48" height="48" viewBox="0 0 48 48" fill="none" xmlns="http://www.w3.org/2000/svg"><path d="M6.239 11.115 C 5.634 11.299,5.061 11.824,4.871 12.370 C 4.782 12.625,4.762 14.684,4.761 24.000 C 4.760 36.861,4.700 35.759,5.438 36.423 C 6.054 36.977,6.925 37.128,7.561 36.791 C 7.947 36.587,12.262 33.650,18.507 29.341 C 21.052 27.585,23.157 26.170,23.185 26.198 C 23.212 26.225,23.254 28.343,23.278 30.904 L 23.321 35.560 23.541 35.934 C 23.982 36.687,24.587 37.002,25.481 36.945 C 25.954 36.915,26.000 36.890,27.722 35.722 C 32.314 32.607,41.241 26.434,42.234 25.687 C 42.996 25.114,43.160 24.815,43.160 24.000 C 43.160 23.066,43.067 22.939,41.648 21.929 C 38.852 19.940,28.713 12.923,26.941 11.751 C 25.887 11.054,25.546 10.951,24.804 11.107 C 24.312 11.210,23.917 11.490,23.567 11.984 L 23.334 12.313 23.282 17.035 C 23.253 19.632,23.207 21.780,23.179 21.807 C 23.152 21.835,20.886 20.311,18.144 18.421 C 10.423 13.096,7.880 11.370,7.505 11.200 C 7.155 11.041,6.604 11.004,6.239 11.115 M12.880 17.228 C 21.238 22.989,22.571 23.927,22.538 24.025 C 22.480 24.200,6.973 34.920,6.894 34.840 C 6.821 34.767,6.773 15.870,6.842 14.340 C 6.882 13.458,6.922 13.136,6.988 13.176 C 7.039 13.206,9.690 15.029,12.880 17.228 M29.695 16.051 C 37.073 21.121,41.120 23.934,41.120 23.993 C 41.120 24.024,41.021 24.123,40.900 24.212 C 40.566 24.458,33.656 29.237,29.240 32.276 L 25.320 34.973 25.296 25.187 C 25.274 16.638,25.306 13.120,25.404 13.120 C 25.419 13.120,27.350 14.439,29.695 16.051 " fill="#1A1C1F" stroke="none" fill-rule="evenodd"></path></svg>