<svg xmlns="http://www.w3.org/2000/svg" width="12" height="12" fill="none"><g clip-path="url(#a)"><path fill="#1A1C1F" fill-rule="evenodd" d="M6.603 2.99c.24 0 .478.072.683.213l2.62 1.806a1.206 1.206 0 0 1 0 1.982l-2.62 1.806a1.205 1.205 0 0 1-1.887-.99v-.345L3.462 8.797a1.204 1.204 0 0 1-1.887-.99V4.193a1.205 1.205 0 0 1 1.887-.99L5.4 4.537v-.344A1.205 1.205 0 0 1 6.603 2.99m0 1.204v3.612L9.223 6zm-3.824 0v3.612L5.4 6z" clip-rule="evenodd"/></g><defs><clipPath id="a"><path fill="#fff" d="M0 0h12v12H0z"/></clipPath></defs></svg>