<svg width="20" height="20" viewBox="0 0 20 20" fill="none" xmlns="http://www.w3.org/2000/svg"><path d="M8.699 5.033 C 8.412 5.079,8.206 5.161,7.917 5.345 C 7.112 5.857,4.076 7.961,3.366 8.498 C 2.927 8.831,2.667 9.389,2.667 10.000 C 2.667 10.618,2.914 11.144,3.381 11.519 C 3.827 11.877,7.690 14.548,8.082 14.769 C 8.297 14.890,8.717 15.000,8.964 14.999 C 9.415 14.998,9.984 14.783,10.321 14.486 C 10.550 14.284,10.783 13.935,10.886 13.638 C 10.953 13.446,10.975 13.303,10.990 12.972 C 11.000 12.740,11.018 12.532,11.030 12.509 C 11.044 12.482,11.426 12.727,12.167 13.238 C 14.679 14.970,14.702 14.983,15.333 14.983 C 15.626 14.983,15.730 14.967,15.967 14.890 C 16.620 14.676,17.121 14.143,17.291 13.480 C 17.345 13.268,17.350 13.000,17.350 10.000 C 17.350 7.000,17.345 6.732,17.291 6.520 C 17.199 6.163,17.051 5.915,16.752 5.616 C 16.189 5.055,15.522 4.883,14.771 5.105 C 14.489 5.189,13.971 5.520,12.052 6.846 C 11.354 7.329,11.047 7.523,11.031 7.493 C 11.019 7.469,11.000 7.261,10.990 7.031 C 10.961 6.380,10.806 6.003,10.401 5.600 C 9.957 5.157,9.300 4.939,8.699 5.033 " fill="#1A1C1F" stroke="none" fill-rule="evenodd"></path></svg>