<svg width="28" height="28" viewBox="0 0 28 28" fill="none" xmlns="http://www.w3.org/2000/svg"><path d="M5.340 7.277 C 4.889 7.385,4.430 7.788,4.194 8.283 L 4.060 8.563 4.060 14.004 L 4.060 19.445 4.204 19.734 C 4.392 20.109,4.736 20.459,5.074 20.617 C 5.308 20.727,5.402 20.743,5.787 20.743 C 6.149 20.742,6.264 20.724,6.417 20.643 C 6.671 20.508,8.317 19.397,10.920 17.606 C 13.032 16.153,13.091 16.116,13.119 16.235 C 13.136 16.302,13.151 17.062,13.154 17.924 L 13.160 19.492 13.302 19.776 C 13.605 20.382,14.215 20.767,14.872 20.767 C 15.289 20.767,15.502 20.669,16.403 20.067 C 18.887 18.407,23.211 15.382,23.478 15.117 C 23.851 14.748,24.008 14.154,23.873 13.624 C 23.742 13.107,23.566 12.902,22.763 12.331 C 20.990 11.069,16.155 7.745,15.653 7.443 C 15.387 7.283,15.373 7.280,14.864 7.280 C 14.402 7.280,14.319 7.293,14.108 7.398 C 13.809 7.547,13.425 7.950,13.275 8.271 C 13.161 8.515,13.161 8.524,13.155 10.080 C 13.152 10.940,13.136 11.699,13.119 11.767 C 13.091 11.889,13.044 11.860,10.920 10.398 C 7.358 7.947,6.437 7.344,6.162 7.285 C 5.896 7.228,5.559 7.225,5.340 7.277 " fill="#1A1C1F" stroke="none" fill-rule="evenodd"></path></svg>