<svg xmlns="http://www.w3.org/2000/svg" width="28" height="28" fill="none"><g clip-path="url(#a)"><path fill="#1A1C1F" fill-rule="evenodd" d="M14.875 7c.348 0 .696.104.993.309l7.615 5.25a1.75 1.75 0 0 1 0 2.882l-7.615 5.25a1.752 1.752 0 0 1-2.743-1.441v-3.125L6.503 20.69A1.752 1.752 0 0 1 3.76 19.25V8.75a1.751 1.751 0 0 1 2.743-1.441l6.622 4.566V8.75A1.75 1.75 0 0 1 14.875 7m0 1.75v10.5L22.49 14zm-9.365 0v10.5L13.125 14z" clip-rule="evenodd"/></g><defs><clipPath id="a"><path fill="#fff" d="M0 0h28v28H0z"/></clipPath></defs></svg>