<svg width="12" height="12" viewBox="0 0 12 12" fill="none" xmlns="http://www.w3.org/2000/svg"><path d="M2.540 3.023 C 2.479 3.033,2.374 3.067,2.305 3.099 C 1.985 3.249,1.773 3.471,1.646 3.790 L 1.590 3.930 1.590 6.000 L 1.590 8.070 1.655 8.230 C 1.810 8.612,2.120 8.880,2.518 8.973 C 2.701 9.016,3.008 9.001,3.170 8.940 C 3.298 8.893,3.977 8.449,4.850 7.844 C 5.194 7.606,5.375 7.492,5.385 7.507 C 5.393 7.520,5.400 7.605,5.400 7.696 C 5.400 8.118,5.502 8.387,5.760 8.645 C 6.015 8.900,6.307 9.013,6.670 8.995 C 7.018 8.978,7.000 8.988,8.240 8.139 C 9.466 7.301,9.990 6.930,10.080 6.838 C 10.292 6.622,10.408 6.330,10.409 6.010 C 10.409 5.777,10.380 5.641,10.289 5.459 C 10.159 5.198,10.116 5.164,8.800 4.250 C 7.583 3.405,7.145 3.118,6.997 3.066 C 6.710 2.966,6.337 2.990,6.062 3.127 C 5.897 3.208,5.671 3.420,5.574 3.582 C 5.459 3.777,5.418 3.931,5.406 4.220 C 5.400 4.357,5.389 4.481,5.382 4.495 C 5.373 4.511,5.201 4.403,4.859 4.167 C 3.914 3.513,3.383 3.159,3.256 3.100 C 3.057 3.008,2.800 2.980,2.540 3.023 M3.670 4.810 C 4.863 5.631,5.360 5.980,5.360 5.998 C 5.360 6.020,2.951 7.709,2.815 7.783 C 2.782 7.800,2.780 7.709,2.780 5.999 L 2.780 4.197 2.835 4.236 C 2.865 4.257,3.241 4.515,3.670 4.810 M7.643 4.913 C 9.310 6.059,9.228 6.000,9.187 6.029 C 9.100 6.088,6.934 7.578,6.780 7.684 L 6.610 7.802 6.604 6.216 C 6.599 4.842,6.607 4.220,6.630 4.220 C 6.633 4.220,7.089 4.532,7.643 4.913 " fill="#1A1C1F" stroke="none" fill-rule="evenodd"></path></svg>