<svg width="14" height="14" viewBox="0 0 14 14" fill="none" xmlns="http://www.w3.org/2000/svg"><path d="M7.367 1.898 C 7.271 1.935,7.260 1.942,7.061 2.111 C 6.826 2.311,5.512 3.682,5.443 3.798 C 5.389 3.890,5.378 3.935,5.378 4.072 C 5.378 4.371,5.402 4.402,6.345 5.346 C 7.281 6.283,7.289 6.288,7.578 6.284 C 7.858 6.280,8.079 6.139,8.217 5.875 C 8.256 5.801,8.270 5.736,8.270 5.623 C 8.270 5.407,8.197 5.282,7.880 4.955 L 7.619 4.686 7.736 4.703 C 7.972 4.737,8.395 4.853,8.616 4.943 C 9.336 5.237,9.919 5.747,10.322 6.434 C 10.706 7.091,10.850 7.931,10.710 8.708 C 10.695 8.794,10.609 9.078,10.519 9.338 C 10.430 9.599,10.336 9.880,10.310 9.963 C 10.231 10.224,10.280 10.421,10.471 10.612 C 10.593 10.734,10.744 10.802,10.936 10.820 C 11.063 10.831,11.098 10.825,11.210 10.770 C 11.600 10.579,11.926 9.870,12.080 8.879 C 12.134 8.527,12.134 7.806,12.080 7.453 C 11.775 5.482,10.385 3.955,8.448 3.466 C 8.326 3.434,8.128 3.397,8.009 3.381 C 7.890 3.366,7.793 3.344,7.793 3.331 C 7.793 3.318,7.884 3.213,7.995 3.096 C 8.105 2.980,8.209 2.852,8.226 2.813 C 8.356 2.500,8.209 2.100,7.908 1.947 C 7.764 1.874,7.497 1.850,7.367 1.898 M6.872 7.373 C 6.682 7.400,6.382 7.499,6.247 7.579 C 5.976 7.740,5.693 8.020,5.556 8.263 C 5.404 8.534,5.342 8.754,5.319 9.111 C 5.269 9.876,5.302 10.559,5.401 10.848 C 5.526 11.215,5.635 11.400,5.855 11.619 C 6.079 11.844,6.252 11.953,6.545 12.055 C 6.722 12.117,6.753 12.121,7.140 12.121 C 7.526 12.121,7.559 12.117,7.747 12.055 C 8.499 11.804,8.916 11.288,9.043 10.453 C 9.114 9.983,9.074 9.001,8.970 8.659 C 8.864 8.315,8.764 8.147,8.512 7.892 C 8.240 7.617,7.998 7.481,7.658 7.410 C 7.453 7.367,7.048 7.348,6.872 7.373 M3.115 7.441 C 3.016 7.458,2.633 7.692,2.240 7.975 C 1.951 8.184,1.879 8.301,1.881 8.563 C 1.881 8.697,1.894 8.765,1.935 8.849 C 2.035 9.055,2.302 9.240,2.501 9.240 L 2.567 9.240 2.567 10.006 L 2.567 10.773 2.441 10.801 C 2.251 10.843,2.081 10.973,1.995 11.141 C 1.934 11.261,1.925 11.303,1.925 11.467 C 1.926 11.625,1.936 11.674,1.988 11.774 C 2.054 11.899,2.168 12.014,2.292 12.078 C 2.402 12.135,2.864 12.162,3.512 12.151 C 4.017 12.142,4.082 12.137,4.181 12.093 C 4.312 12.034,4.475 11.877,4.538 11.748 C 4.599 11.624,4.602 11.348,4.543 11.196 C 4.471 11.009,4.239 10.834,4.009 10.791 L 3.922 10.775 3.915 9.348 L 3.908 7.922 3.854 7.813 C 3.713 7.529,3.432 7.388,3.115 7.441 M7.482 8.786 C 7.519 8.813,7.575 8.886,7.607 8.950 L 7.665 9.065 7.664 9.742 C 7.662 10.387,7.660 10.423,7.612 10.515 C 7.510 10.711,7.367 10.774,7.069 10.752 C 6.914 10.741,6.834 10.695,6.749 10.570 C 6.697 10.494,6.697 10.482,6.697 9.749 C 6.697 8.857,6.700 8.842,6.924 8.759 C 7.060 8.709,7.399 8.725,7.482 8.786 " fill="#1A1C1F" stroke="none" fill-rule="evenodd"></path></svg>