<svg xmlns="http://www.w3.org/2000/svg" width="24" height="24" fill="none"><g clip-path="url(#a)"><path fill="#1A1C1F" fill-rule="evenodd" d="M21.572 13.017c0-4.125-3.195-7.567-7.32-7.908l.404-.403a1 1 0 0 0 .341-.745c0-.527-.465-.96-1.023-.96a1.03 1.03 0 0 0-.652.216L11.06 5.512a.91.91 0 0 0-.28.682c0 .28.094.527.28.713l2.17 2.203q.278.28.744.28c.527 0 .961-.466.961-.993a.88.88 0 0 0-.31-.682l-.558-.62c3.1.217 5.52 2.822 5.52 5.954 0 1.52-.62 3.04-1.768 4.217a.96.96 0 0 0-.279.683 1 1 0 0 0 .992.992.96.96 0 0 0 .683-.279 7.94 7.94 0 0 0 2.357-5.644zm-19.144 6.99a1 1 0 0 1 .992-.992h.993v-3.962l-.465.28a1.05 1.05 0 0 1-.528.154c-.558 0-.96-.465-.96-.993 0-.31.123-.62.402-.837l1.985-1.302c.155-.093.341-.155.527-.155.558 0 1.024.434 1.024.992v5.823h1.023a1 1 0 0 1 .705 1.698.98.98 0 0 1-.705.287h-4a.98.98 0 0 1-.993-.993M12.405 12c1.768 0 2.977 1.334 2.977 3.318v2.264c0 1.985-1.21 3.318-2.977 3.318-1.799 0-2.977-1.333-2.977-3.287v-2.357c0-1.984 1.178-3.256 2.977-3.256m.023 2c-.625 0-1 .472-1 1.258v2.421c0 .85.375 1.321 1 1.321s1-.472 1-1.352v-2.296c0-.849-.375-1.352-1-1.352" clip-rule="evenodd"/></g><defs><clipPath id="a"><path fill="#fff" d="M0 0h24v24H0z"/></clipPath></defs></svg>