<svg xmlns="http://www.w3.org/2000/svg" width="12" height="12" fill="none"><g clip-path="url(#a)"><path fill="#1A1C1F" fill-rule="evenodd" d="M9.427 9.297c-.388 0-.623-.33-.623-.577 0-.282.447-.964.447-1.727 0-1.622-1.234-2.844-2.738-2.985l.41.388c.095.117.177.27.177.423 0 .306-.282.575-.6.575a.62.62 0 0 1-.43-.168l-1.313-1.32a.6.6 0 0 1-.161-.427c0-.153.059-.282.164-.388l1.329-1.34a.57.57 0 0 1 .41-.175c.33 0 .6.27.6.6a.57.57 0 0 1-.176.41l-.27.27a4.14 4.14 0 0 1 3.76 4.138l-.005.187c-.042.85-.359 2.116-.981 2.116m-7.229 1.127h1.164c.34 0 .575-.281.575-.588a.59.59 0 0 0-.587-.587V6.935a.57.57 0 0 0-.895-.473l-.608.406a.57.57 0 0 0-.26.48c0 .34.282.597.611.587v1.315c-.329 0-.576.27-.576.6 0 .306.247.575.576.575M6.158 6.3c.964 0 1.623.681 1.623 1.728v.657c0 1.057-.681 1.74-1.68 1.74-.905 0-1.563-.694-1.563-1.716v-.727c0-1 .681-1.68 1.621-1.68zm-.011 1.173-.051.002c-.23.014-.384.1-.384.494v.74c0 .412.13.537.446.53.282-.005.435-.143.435-.566v-.658c0-.494-.235-.549-.446-.543" clip-rule="evenodd"/></g><defs><clipPath id="a"><path fill="#fff" d="M0 0h12v12H0z"/></clipPath></defs></svg>