<svg width="24" height="24" viewBox="0 0 24 24" fill="none" xmlns="http://www.w3.org/2000/svg"><path d="M13.630 3.057 C 13.547 3.087,13.419 3.157,13.345 3.214 C 13.095 3.404,10.941 5.642,10.863 5.792 C 10.812 5.891,10.786 6.022,10.786 6.188 C 10.785 6.615,10.873 6.733,12.178 8.044 C 12.850 8.719,13.404 9.242,13.498 9.291 C 13.727 9.409,14.160 9.410,14.380 9.293 C 14.711 9.116,14.918 8.777,14.919 8.409 C 14.920 8.108,14.840 7.952,14.486 7.563 C 14.049 7.081,14.053 7.103,14.404 7.138 C 14.802 7.177,15.504 7.362,15.920 7.537 C 16.922 7.960,17.849 8.703,18.474 9.582 C 18.765 9.992,19.148 10.752,19.299 11.220 C 19.539 11.960,19.635 13.116,19.520 13.880 C 19.345 15.047,18.839 16.095,17.962 17.110 C 17.715 17.396,17.628 17.530,17.579 17.698 C 17.369 18.420,18.064 19.110,18.789 18.899 C 19.043 18.825,19.351 18.558,19.767 18.051 C 20.726 16.881,21.315 15.489,21.523 13.900 C 21.600 13.310,21.549 12.091,21.421 11.480 C 20.920 9.090,19.434 7.122,17.275 5.984 C 16.531 5.592,15.509 5.270,14.651 5.157 L 14.282 5.109 14.578 4.795 C 14.923 4.428,15.025 4.197,14.986 3.871 C 14.914 3.259,14.224 2.845,13.630 3.057 " fill="#1A1C1F" stroke="none" fill-rule="evenodd"></path></svg>