<svg width="12" height="12" viewBox="0 0 12 12" fill="none" xmlns="http://www.w3.org/2000/svg"><path d="M5.180 1.606 C 4.835 1.702,4.646 2.098,4.799 2.404 C 4.824 2.455,4.917 2.576,5.005 2.673 L 5.165 2.850 5.077 2.866 C 4.475 2.974,4.143 3.075,3.750 3.269 C 2.411 3.931,1.568 5.185,1.438 6.707 C 1.365 7.558,1.642 8.683,2.025 9.092 C 2.165 9.242,2.259 9.285,2.446 9.284 C 2.613 9.284,2.760 9.219,2.870 9.097 C 3.045 8.904,3.065 8.721,2.950 8.396 C 2.628 7.495,2.612 7.431,2.614 6.980 C 2.615 6.331,2.750 5.857,3.069 5.381 C 3.443 4.824,3.989 4.391,4.591 4.174 C 4.728 4.125,5.162 4.020,5.227 4.020 C 5.291 4.020,5.258 4.069,5.054 4.278 C 4.931 4.405,4.828 4.530,4.799 4.590 C 4.638 4.920,4.872 5.319,5.263 5.382 C 5.419 5.407,5.529 5.383,5.657 5.295 C 5.766 5.220,6.756 4.248,6.996 3.980 C 7.211 3.740,7.248 3.661,7.236 3.472 C 7.231 3.394,7.210 3.294,7.189 3.250 C 7.139 3.143,5.675 1.672,5.579 1.633 C 5.476 1.590,5.284 1.578,5.180 1.606 M8.664 6.328 C 8.306 6.387,8.015 6.541,7.770 6.803 C 7.597 6.988,7.518 7.118,7.428 7.372 C 7.334 7.635,7.312 7.883,7.328 8.530 C 7.341 9.074,7.358 9.185,7.476 9.471 C 7.661 9.918,8.032 10.252,8.480 10.374 C 8.579 10.401,8.683 10.409,8.920 10.408 C 9.197 10.407,9.249 10.401,9.406 10.353 C 10.035 10.162,10.417 9.720,10.542 9.039 C 10.578 8.846,10.579 7.875,10.543 7.663 C 10.433 6.999,10.004 6.515,9.390 6.360 C 9.182 6.307,8.876 6.294,8.664 6.328 M5.427 6.378 C 5.351 6.397,5.290 6.434,4.940 6.668 C 4.578 6.910,4.449 7.033,4.407 7.177 C 4.312 7.505,4.500 7.825,4.840 7.913 L 4.980 7.949 4.980 8.604 L 4.980 9.260 4.923 9.260 C 4.844 9.260,4.632 9.370,4.570 9.444 C 4.460 9.575,4.430 9.658,4.430 9.840 C 4.430 10.040,4.469 10.132,4.612 10.271 C 4.754 10.409,4.759 10.410,5.580 10.410 C 6.305 10.410,6.311 10.410,6.405 10.363 C 6.585 10.275,6.703 10.090,6.716 9.880 C 6.734 9.572,6.525 9.307,6.230 9.267 L 6.140 9.255 6.140 8.027 L 6.140 6.799 6.090 6.700 C 6.027 6.576,5.918 6.465,5.812 6.419 C 5.715 6.378,5.516 6.356,5.427 6.378 M9.118 7.500 C 9.203 7.524,9.271 7.586,9.326 7.690 C 9.366 7.766,9.368 7.800,9.369 8.341 L 9.370 8.913 9.310 9.031 C 9.230 9.189,9.153 9.228,8.930 9.227 C 8.830 9.227,8.742 9.215,8.696 9.195 C 8.534 9.125,8.489 8.887,8.506 8.197 C 8.518 7.730,8.531 7.670,8.643 7.567 C 8.727 7.489,8.964 7.455,9.118 7.500 " fill="#1A1C1F" stroke="none" fill-rule="evenodd"></path></svg>