<svg xmlns="http://www.w3.org/2000/svg" width="32" height="32" fill="none"><g clip-path="url(#a)"><path fill="#1A1C1F" fill-rule="evenodd" d="M13 30a1 1 0 0 1-1-1c0-.513.45-1 1-1h2v-4l.003-.055A9 9 0 0 1 7 15a1 1 0 1 1 2 0 7 7 0 1 0 14 0 1 1 0 0 1 2 0 9 9 0 0 1-8.002 8.945L17 24v4h2a1 1 0 0 1 1 1c0 .513-.45 1-1 1zm3-28c2.689 0 4.886 2.34 5 5v8a5 5 0 0 1-5 5c-2.689 0-4.886-2.34-5-5V7a5 5 0 0 1 5-5m0 2c-1.598 0-2.909 1.425-3 3v8a3 3 0 0 0 3 3c1.598 0 2.909-1.425 3-3V7a3 3 0 0 0-3-3" clip-rule="evenodd"/></g><defs><clipPath id="a"><path fill="#fff" d="M0 0h32v32H0z"/></clipPath></defs></svg>