<svg width="20" height="20" viewBox="0 0 20 20" fill="none" xmlns="http://www.w3.org/2000/svg"><path d="M9.594 2.034 C 8.361 2.229,7.459 3.016,7.091 4.217 C 7.022 4.444,7.019 4.512,7.008 6.680 L 6.997 8.910 7.082 9.213 C 7.447 10.507,8.532 11.405,9.833 11.488 C 11.034 11.564,12.196 10.851,12.721 9.715 C 12.965 9.185,12.974 9.104,12.991 7.300 C 13.007 5.539,12.970 4.496,12.882 4.200 C 12.622 3.327,11.922 2.566,11.062 2.223 C 10.617 2.045,10.013 1.967,9.594 2.034 M10.387 4.100 C 10.582 4.184,10.782 4.376,10.881 4.575 L 10.967 4.746 10.967 6.744 L 10.967 8.741 10.859 8.942 C 10.604 9.421,10.065 9.616,9.584 9.404 C 9.388 9.317,9.117 9.043,9.064 8.879 C 9.033 8.784,9.019 8.230,9.009 6.757 L 8.995 4.764 9.085 4.607 C 9.198 4.410,9.346 4.250,9.513 4.143 C 9.736 4.000,10.112 3.982,10.387 4.100 M14.583 10.077 C 14.369 10.179,14.189 10.379,13.991 10.733 C 13.457 11.687,12.620 12.352,11.473 12.733 C 10.851 12.940,10.592 12.983,9.983 12.982 C 9.400 12.980,9.128 12.938,8.567 12.759 C 7.529 12.430,6.562 11.717,6.100 10.941 C 5.777 10.398,5.693 10.290,5.500 10.175 C 5.330 10.073,5.301 10.067,4.998 10.067 C 4.682 10.067,4.674 10.069,4.478 10.195 C 4.122 10.426,3.947 10.812,4.027 11.192 C 4.143 11.747,4.793 12.682,5.508 13.324 C 6.394 14.118,7.379 14.626,8.611 14.923 L 9.000 15.017 9.000 15.504 L 9.000 15.992 8.375 16.007 C 7.774 16.020,7.743 16.025,7.574 16.112 C 7.188 16.310,6.980 16.661,7.008 17.067 C 7.018 17.200,7.052 17.340,7.098 17.430 C 7.200 17.629,7.464 17.885,7.621 17.937 C 7.719 17.970,8.283 17.983,9.973 17.992 L 12.195 18.003 12.365 17.917 C 12.888 17.652,13.119 17.062,12.886 16.585 C 12.781 16.370,12.513 16.117,12.339 16.066 C 12.272 16.047,11.943 16.022,11.608 16.010 L 11.000 15.990 11.000 15.503 L 11.000 15.016 11.425 14.912 C 13.378 14.432,15.017 13.190,15.796 11.600 C 15.970 11.244,15.983 11.200,15.982 10.983 C 15.981 10.705,15.893 10.482,15.707 10.289 C 15.512 10.087,15.359 10.023,15.033 10.009 C 14.787 9.998,14.728 10.007,14.583 10.077 " fill="#1A1C1F" stroke="none" fill-rule="evenodd"></path></svg>