<svg width="12" height="12" viewBox="0 0 12 12" fill="none" xmlns="http://www.w3.org/2000/svg"><path d="M5.810 1.202 C 5.614 1.221,5.437 1.271,5.247 1.360 C 5.037 1.457,4.923 1.536,4.753 1.699 C 4.580 1.864,4.461 2.030,4.361 2.243 C 4.207 2.574,4.214 2.490,4.205 4.024 L 4.197 5.398 4.271 5.604 C 4.362 5.861,4.453 6.032,4.592 6.204 C 5.076 6.805,5.864 7.047,6.562 6.809 C 7.126 6.618,7.532 6.197,7.732 5.600 L 7.789 5.430 7.790 4.060 C 7.790 2.525,7.796 2.600,7.641 2.268 C 7.303 1.544,6.585 1.126,5.810 1.202 M6.266 2.460 C 6.383 2.520,6.475 2.612,6.535 2.730 L 6.586 2.830 6.588 4.020 C 6.590 4.955,6.584 5.229,6.563 5.298 C 6.530 5.408,6.358 5.585,6.225 5.645 C 6.089 5.708,5.885 5.705,5.751 5.640 C 5.625 5.579,5.520 5.474,5.460 5.350 L 5.413 5.253 5.411 4.071 C 5.410 3.192,5.416 2.869,5.435 2.810 C 5.484 2.648,5.638 2.494,5.814 2.428 C 5.922 2.387,6.157 2.404,6.266 2.460 M2.863 6.022 C 2.611 6.071,2.396 6.326,2.393 6.580 C 2.390 6.884,2.694 7.394,3.150 7.851 C 3.718 8.419,4.473 8.829,5.225 8.976 L 5.400 9.010 5.400 9.312 L 5.400 9.614 5.012 9.626 C 4.673 9.636,4.613 9.643,4.542 9.679 C 4.338 9.783,4.222 9.962,4.205 10.198 C 4.196 10.315,4.202 10.352,4.245 10.446 C 4.310 10.586,4.434 10.710,4.573 10.774 L 4.683 10.824 5.996 10.815 C 7.517 10.804,7.450 10.812,7.617 10.630 C 7.749 10.485,7.807 10.334,7.795 10.170 C 7.783 10.020,7.711 9.873,7.603 9.775 C 7.456 9.643,7.435 9.637,6.997 9.625 L 6.600 9.614 6.600 9.310 L 6.600 9.005 6.701 8.992 C 6.757 8.984,6.912 8.947,7.046 8.908 C 7.765 8.700,8.334 8.367,8.841 7.861 C 9.293 7.410,9.606 6.889,9.605 6.590 C 9.605 6.380,9.490 6.192,9.292 6.079 C 9.200 6.026,9.172 6.020,9.010 6.020 C 8.847 6.020,8.820 6.026,8.725 6.080 C 8.608 6.148,8.515 6.260,8.375 6.504 C 8.197 6.813,7.923 7.096,7.580 7.323 C 7.392 7.448,7.207 7.536,6.939 7.629 C 6.549 7.766,6.436 7.784,5.990 7.785 C 5.616 7.785,5.576 7.781,5.380 7.730 C 4.539 7.508,3.927 7.065,3.575 6.423 C 3.397 6.098,3.158 5.964,2.863 6.022 " fill="#1A1C1F" stroke="none" fill-rule="evenodd"></path></svg>