<svg xmlns="http://www.w3.org/2000/svg" width="28" height="28" fill="none"><g clip-path="url(#a)"><path fill="#1A1C1F" fill-rule="evenodd" d="M11.375 26.25a.875.875 0 0 1-.875-.875c0-.449.394-.875.875-.875h1.75V21l.003-.048a7.876 7.876 0 0 1-7.003-7.827.875.875 0 1 1 1.75 0 6.125 6.125 0 1 0 12.25 0 .875.875 0 1 1 1.75 0 7.876 7.876 0 0 1-7.002 7.827l.002.048v3.5h1.75c.483 0 .875.392.875.875 0 .449-.394.875-.875.875zM14 1.75c2.353 0 4.276 2.047 4.375 4.375v7A4.376 4.376 0 0 1 14 17.5c-2.353 0-4.276-2.047-4.375-4.375v-7A4.375 4.375 0 0 1 14 1.75m0 1.75c-1.398 0-2.545 1.247-2.625 2.625v7A2.625 2.625 0 0 0 14 15.75c1.398 0 2.545-1.247 2.625-2.625v-7A2.625 2.625 0 0 0 14 3.5" clip-rule="evenodd"/></g><defs><clipPath id="a"><path fill="#fff" d="M0 0h28v28H0z"/></clipPath></defs></svg>