<svg width="14" height="14" viewBox="0 0 14 14" fill="none" xmlns="http://www.w3.org/2000/svg"><path d="M6.778 1.416 C 6.392 1.450,5.953 1.641,5.630 1.918 C 5.338 2.168,5.141 2.470,4.988 2.901 L 4.896 3.162 4.906 4.737 L 4.916 6.312 4.980 6.510 C 5.222 7.254,5.771 7.786,6.498 7.983 C 6.770 8.057,7.238 8.057,7.512 7.984 C 7.892 7.882,8.156 7.733,8.444 7.457 C 8.728 7.184,8.911 6.878,9.043 6.455 L 9.102 6.263 9.095 4.712 L 9.087 3.162 9.022 2.953 C 8.755 2.090,8.050 1.507,7.174 1.424 C 7.034 1.411,6.908 1.402,6.895 1.404 C 6.882 1.406,6.830 1.411,6.778 1.416 M3.336 7.056 C 3.022 7.138,2.819 7.410,2.819 7.745 C 2.819 8.100,3.290 8.796,3.915 9.364 C 4.494 9.891,5.358 10.317,6.166 10.477 L 6.300 10.503 6.300 10.848 L 6.300 11.193 5.860 11.206 C 5.472 11.218,5.407 11.225,5.322 11.269 C 5.000 11.433,4.837 11.783,4.936 12.098 C 4.987 12.262,5.156 12.456,5.315 12.534 L 5.425 12.588 6.977 12.588 C 8.203 12.588,8.550 12.582,8.631 12.557 C 8.755 12.520,8.954 12.324,9.035 12.161 C 9.107 12.014,9.108 11.772,9.037 11.617 C 8.974 11.477,8.837 11.341,8.691 11.272 C 8.587 11.223,8.532 11.217,8.138 11.206 L 7.700 11.193 7.700 10.848 L 7.700 10.503 7.834 10.477 C 8.152 10.414,8.641 10.254,8.969 10.105 C 9.702 9.773,10.480 9.097,10.891 8.435 C 11.099 8.101,11.179 7.909,11.180 7.746 C 11.181 7.472,11.055 7.251,10.818 7.116 C 10.711 7.055,10.677 7.047,10.500 7.047 C 10.340 7.047,10.279 7.058,10.185 7.102 C 10.036 7.173,9.973 7.241,9.811 7.512 C 9.474 8.075,9.073 8.448,8.509 8.725 C 7.993 8.978,7.543 9.086,7.000 9.086 C 6.460 9.086,6.020 8.981,5.499 8.729 C 4.943 8.461,4.535 8.085,4.209 7.542 C 4.126 7.404,4.017 7.253,3.965 7.206 C 3.815 7.069,3.537 7.003,3.336 7.056 " fill="#1A1C1F" stroke="none" fill-rule="evenodd"></path></svg>