<svg width="24" height="24" viewBox="0 0 24 24" fill="none" xmlns="http://www.w3.org/2000/svg"><path d="M11.680 2.025 C 10.323 2.186,9.225 3.024,8.724 4.283 C 8.506 4.830,8.502 4.905,8.502 8.340 L 8.503 11.500 8.613 11.860 C 8.827 12.560,9.131 13.054,9.650 13.545 C 10.604 14.450,12.029 14.735,13.236 14.262 C 14.243 13.867,14.923 13.155,15.309 12.089 C 15.445 11.713,15.451 11.672,15.487 10.880 C 15.508 10.429,15.518 8.935,15.509 7.560 C 15.493 5.151,15.489 5.048,15.405 4.724 C 15.010 3.198,13.708 2.111,12.178 2.028 C 11.981 2.017,11.757 2.016,11.680 2.025 M12.674 4.175 C 12.949 4.317,13.190 4.566,13.341 4.864 L 13.460 5.100 13.457 8.262 L 13.453 11.425 13.337 11.640 C 13.175 11.937,12.904 12.203,12.620 12.342 C 12.403 12.449,12.342 12.460,11.980 12.460 C 11.601 12.460,11.567 12.453,11.330 12.324 C 11.039 12.167,10.807 11.931,10.663 11.645 L 10.560 11.443 10.560 8.257 L 10.560 5.071 10.687 4.833 C 10.834 4.558,11.111 4.292,11.411 4.140 C 11.605 4.042,11.650 4.036,12.040 4.049 C 12.404 4.062,12.489 4.079,12.674 4.175 M5.701 10.048 C 5.596 10.077,5.465 10.169,5.317 10.317 C 5.030 10.604,4.978 10.790,5.014 11.397 C 5.126 13.304,6.025 15.129,7.460 16.363 C 8.347 17.126,9.363 17.639,10.510 17.905 L 11.000 18.018 11.000 19.003 L 11.000 19.988 9.886 20.011 C 8.679 20.036,8.577 20.053,8.346 20.272 C 8.284 20.331,8.185 20.461,8.127 20.560 C 7.993 20.787,7.978 21.175,8.094 21.410 C 8.209 21.640,8.454 21.869,8.648 21.928 C 8.783 21.969,9.509 21.980,12.040 21.980 C 15.653 21.980,15.356 22.004,15.680 21.680 C 15.913 21.447,15.977 21.300,15.977 21.000 C 15.978 20.699,15.904 20.518,15.690 20.298 C 15.434 20.035,15.388 20.026,14.130 20.008 L 13.000 19.992 13.000 19.005 L 13.000 18.018 13.490 17.905 C 14.827 17.597,15.956 16.970,16.921 16.000 C 18.162 14.753,18.890 13.124,18.987 11.380 C 19.017 10.830,18.955 10.573,18.734 10.347 C 18.354 9.957,17.882 9.903,17.436 10.198 C 17.128 10.402,17.033 10.644,16.959 11.419 C 16.872 12.325,16.625 13.034,16.147 13.753 C 15.409 14.861,14.394 15.559,13.040 15.889 C 12.550 16.008,11.450 16.008,10.960 15.889 C 9.794 15.605,8.821 15.010,8.160 14.180 C 7.462 13.302,7.100 12.366,7.006 11.195 C 6.967 10.699,6.901 10.512,6.695 10.305 C 6.446 10.057,6.043 9.953,5.701 10.048 " fill="#1A1C1F" stroke="none" fill-rule="evenodd"></path></svg>