<svg xmlns="http://www.w3.org/2000/svg" width="14" height="14" fill="none"><g clip-path="url(#a)"><path fill="#1A1C1F" fill-rule="evenodd" d="M5.6 12.6a.7.7 0 0 1-.7-.7c0-.359.315-.7.7-.7h.7v-.7c-1.488-.233-2.881-1.24-3.441-2.52a.7.7 0 0 1 1.282-.56C4.554 8.363 5.801 9.1 7 9.1s2.446-.735 2.859-1.68a.7.7 0 0 1 1.282.56c-.56 1.281-1.952 2.288-3.441 2.52v.7h.7a.7.7 0 0 1 .7.7.72.72 0 0 1-.7.7zM7 1.4c1.118 0 2.1.938 2.1 2.1v2.45A2.1 2.1 0 0 1 7 8.05c-1.118 0-2.1-.938-2.1-2.1V3.5c0-1.16.94-2.1 2.1-2.1m0 1.4a.72.72 0 0 0-.7.7v2.45a.7.7 0 0 0 .7.7.72.72 0 0 0 .7-.7V3.5a.7.7 0 0 0-.7-.7" clip-rule="evenodd"/></g><defs><clipPath id="a"><path fill="#fff" d="M0 0h14v14H0z"/></clipPath></defs></svg>