<svg width="28" height="28" viewBox="0 0 28 28" fill="none" xmlns="http://www.w3.org/2000/svg"><path d="M13.323 1.816 C 12.964 1.861,12.475 2.019,12.072 2.221 C 10.940 2.789,10.234 3.630,9.787 4.947 L 9.637 5.390 9.641 9.520 L 9.644 13.650 9.770 14.070 C 10.029 14.931,10.427 15.614,11.010 16.197 C 11.736 16.923,12.581 17.349,13.509 17.457 C 14.849 17.612,16.134 17.158,17.092 16.189 C 17.691 15.583,17.997 15.035,18.264 14.089 L 18.391 13.641 18.376 9.655 L 18.361 5.670 18.239 5.226 C 18.006 4.374,17.633 3.721,17.021 3.094 C 16.424 2.482,15.655 2.026,14.987 1.890 C 14.597 1.810,13.692 1.769,13.323 1.816 M6.673 12.332 C 6.214 12.583,6.160 12.694,6.160 13.391 C 6.160 14.842,6.673 16.369,7.606 17.698 C 7.994 18.251,8.858 19.115,9.427 19.518 C 10.332 20.160,11.475 20.646,12.599 20.868 L 13.113 20.970 13.113 22.730 L 13.113 24.491 12.114 24.507 L 11.115 24.523 10.912 24.664 C 10.632 24.859,10.486 25.152,10.519 25.452 C 10.553 25.762,10.721 26.003,10.999 26.139 L 11.223 26.250 13.990 26.264 L 16.756 26.277 16.983 26.154 C 17.516 25.864,17.650 25.263,17.279 24.822 C 17.058 24.559,16.925 24.530,15.855 24.509 L 14.887 24.491 14.887 22.730 L 14.887 20.969 15.412 20.865 C 16.537 20.642,17.673 20.157,18.573 19.518 C 19.139 19.117,20.000 18.255,20.404 17.686 C 21.287 16.442,21.840 14.806,21.847 13.417 C 21.850 12.837,21.821 12.730,21.603 12.517 C 21.266 12.188,20.683 12.208,20.361 12.559 C 20.206 12.728,20.166 12.878,20.089 13.570 C 19.942 14.897,19.609 15.805,18.930 16.728 C 17.220 19.054,14.189 19.866,11.517 18.714 C 10.319 18.198,9.143 17.073,8.542 15.868 C 8.172 15.127,8.023 14.581,7.908 13.550 C 7.828 12.828,7.764 12.652,7.501 12.443 C 7.362 12.332,7.270 12.299,7.058 12.286 C 6.890 12.275,6.747 12.292,6.673 12.332 " fill="#1A1C1F" stroke="none" fill-rule="evenodd"></path></svg>