<svg xmlns="http://www.w3.org/2000/svg" width="20" height="20" fill="none"><g clip-path="url(#a)"><path fill="#1A1C1F" fill-rule="evenodd" d="M7.988 18a1 1 0 0 1-1-1c0-.513.45-1 1-1h1v-1c-2.126-.332-4.116-1.77-4.916-3.6a1 1 0 0 1 1.832-.8c.59 1.348 2.372 2.4 4.084 2.4 1.713 0 3.494-1.05 4.084-2.4a1 1 0 1 1 1.832.8c-.8 1.83-2.79 3.268-4.916 3.6v1h1a1 1 0 0 1 1 1c0 .513-.45 1-1 1zm2-16c1.598 0 3 1.34 3 3v3.5a3 3 0 0 1-3 3c-1.598 0-3-1.34-3-3V5a3 3 0 0 1 3-3m0 2c-.513 0-1 .45-1 1v3.5a1 1 0 0 0 1 1c.513 0 1-.45 1-1V5a1 1 0 0 0-1-1" clip-rule="evenodd"/></g><defs><clipPath id="a"><path fill="#fff" d="M0 0h20v20H0z"/></clipPath></defs></svg>