<svg xmlns="http://www.w3.org/2000/svg" width="32" height="32" fill="none"><path fill="#1A1C1F" fill-rule="evenodd" d="M14.961 2.112c-1.141.254-2.188.906-2.883 1.793-.383.49-.787 1.319-.943 1.935l-.122.48v4.587c0 4.585 0 4.586.121 5.059.494 1.94 1.909 3.404 3.777 3.907.56.15 1.71.138 2.316-.025a4.96 4.96 0 0 0 2.373-1.401c.632-.667 1.002-1.329 1.265-2.265.118-.418.119-.465.137-4.822.013-3.12 0-4.524-.043-4.825-.295-2.047-1.778-3.797-3.689-4.353-.527-.153-1.766-.191-2.309-.07m1.603 1.945c.824.149 1.669.772 2.062 1.522.367.702.359.578.359 5.354 0 4.696.003 4.643-.314 5.272-.573 1.135-1.563 1.787-2.705 1.782-1.351-.007-2.53-.942-2.872-2.278-.12-.474-.121-8.807 0-9.284.224-.886.91-1.751 1.683-2.122a2.76 2.76 0 0 1 1.787-.246M7.46 14.179c-.369.234-.448.443-.439 1.154.016 1.319.43 2.807 1.124 4.047a9.08 9.08 0 0 0 6.228 4.467l.614.115V28l-1.08.001c-.936.001-1.109.014-1.294.1-.904.417-.76 1.663.217 1.872.174.038 1.309.052 3.331.042L19.227 30l.226-.121c.558-.298.715-1.037.317-1.49-.309-.352-.458-.387-1.677-.388L17.013 28v-4.038l.614-.115a9.04 9.04 0 0 0 7.031-6.407c.314-1.092.424-2.501.226-2.901-.246-.495-.936-.669-1.424-.36-.342.217-.43.435-.482 1.191-.122 1.784-.745 3.214-1.946 4.469A6.87 6.87 0 0 1 16 21.989a6.87 6.87 0 0 1-5.032-2.15c-1.204-1.257-1.824-2.681-1.946-4.469-.052-.756-.14-.974-.482-1.191a.84.84 0 0 0-.54-.152.84.84 0 0 0-.54.152"/></svg>