<svg xmlns="http://www.w3.org/2000/svg" width="12" height="12" fill="none"><g clip-path="url(#a)"><path fill="#1A1C1F" fill-rule="evenodd" d="M4.796 10.816a.6.6 0 0 1-.602-.602c0-.309.27-.602.602-.602h.602V9.01c-1.28-.2-2.478-1.066-2.96-2.167a.602.602 0 1 1 1.104-.482C3.897 7.173 4.97 7.806 6 7.806s2.103-.632 2.458-1.445a.602.602 0 0 1 1.104.482C9.08 7.945 7.882 8.81 6.602 9.01v.602h.602c.332 0 .602.27.602.602 0 .309-.27.602-.602.602zM6 1.184c.962 0 1.806.807 1.806 1.806v2.107c0 .997-.809 1.806-1.806 1.806-.962 0-1.806-.807-1.806-1.806V2.99c0-.997.809-1.806 1.806-1.806m0 1.204a.62.62 0 0 0-.602.602v2.107c0 .332.27.602.602.602.309 0 .602-.27.602-.602V2.99A.6.6 0 0 0 6 2.388" clip-rule="evenodd"/></g><defs><clipPath id="a"><path fill="#fff" d="M0 0h12v12H0z"/></clipPath></defs></svg>