<svg xmlns="http://www.w3.org/2000/svg" width="16" height="16" fill="none"><g clip-path="url(#a)"><path fill="#1A1C1F" fill-rule="evenodd" d="M6.4 14.4a.8.8 0 0 1-.8-.8c0-.41.36-.8.8-.8h.8V12c-1.7-.266-3.293-1.416-3.933-2.88a.8.8 0 0 1 1.466-.64C5.205 9.558 6.631 10.4 8 10.4c1.37 0 2.795-.84 3.267-1.92a.8.8 0 0 1 1.466.64c-.64 1.464-2.232 2.614-3.933 2.88v.8h.8a.8.8 0 0 1 .8.8c0 .41-.36.8-.8.8zM8 1.6c1.278 0 2.4 1.072 2.4 2.4v2.8A2.4 2.4 0 0 1 8 9.2c-1.278 0-2.4-1.072-2.4-2.4V4A2.4 2.4 0 0 1 8 1.6m0 1.6c-.41 0-.8.36-.8.8v2.8a.8.8 0 0 0 .8.8c.41 0 .8-.36.8-.8V4a.8.8 0 0 0-.8-.8" clip-rule="evenodd"/></g><defs><clipPath id="a"><path fill="#fff" d="M0 0h16v16H0z"/></clipPath></defs></svg>