<svg xmlns="http://www.w3.org/2000/svg" width="24" height="24" fill="none"><g clip-path="url(#a)"><path fill="#1A1C1F" fill-rule="evenodd" d="M18 10a1 1 0 0 1 1 1c0 3.528-2.606 6.516-6 7v2h2a1 1 0 0 1 1 1c0 .513-.45 1-1 1H9a1 1 0 0 1-1-1c0-.513.45-1 1-1h2v-2c-3.394-.484-6-3.472-6-7a1 1 0 1 1 2 0 5 5 0 1 0 10 0 1 1 0 0 1 1-1m-6-8c1.869 0 3.5 1.57 3.5 3.5V11a3.5 3.5 0 0 1-3.5 3.5c-1.869 0-3.5-1.57-3.5-3.5V5.5A3.5 3.5 0 0 1 12 2m0 2c-.78 0-1.5.67-1.5 1.5V11a1.5 1.5 0 0 0 1.5 1.5c.78 0 1.5-.67 1.5-1.5V5.5A1.5 1.5 0 0 0 12 4" clip-rule="evenodd"/></g><defs><clipPath id="a"><path fill="#fff" d="M0 0h24v24H0z"/></clipPath></defs></svg>