<svg width="16" height="16" viewBox="0 0 16 16" fill="none" xmlns="http://www.w3.org/2000/svg"><path d="M7.391 1.681 C 6.979 1.795,6.656 1.982,6.341 2.287 C 6.011 2.609,5.819 2.930,5.667 3.419 L 5.594 3.652 5.606 5.433 L 5.618 7.213 5.692 7.440 C 5.912 8.118,6.345 8.633,6.947 8.933 C 7.546 9.232,8.127 9.274,8.760 9.063 C 9.495 8.819,10.030 8.271,10.295 7.493 C 10.383 7.232,10.404 6.739,10.394 5.093 C 10.383 3.438,10.385 3.452,10.146 2.967 C 9.857 2.379,9.359 1.946,8.730 1.733 C 8.481 1.649,8.443 1.644,8.027 1.636 C 7.649 1.628,7.559 1.635,7.391 1.681 M8.335 3.292 C 8.494 3.363,8.643 3.508,8.719 3.665 C 8.772 3.774,8.773 3.823,8.773 5.396 C 8.773 6.981,8.772 7.018,8.718 7.124 C 8.648 7.262,8.462 7.447,8.325 7.518 C 7.965 7.701,7.509 7.548,7.312 7.179 L 7.227 7.019 7.227 5.396 L 7.227 3.773 7.306 3.636 C 7.410 3.454,7.616 3.286,7.812 3.224 C 7.918 3.191,8.186 3.225,8.335 3.292 M3.759 8.061 C 3.625 8.111,3.427 8.253,3.361 8.345 C 3.273 8.469,3.223 8.639,3.219 8.829 C 3.217 8.985,3.229 9.032,3.328 9.239 C 3.709 10.032,4.435 10.792,5.314 11.315 C 5.758 11.580,6.363 11.817,6.940 11.950 L 7.200 12.011 7.200 12.401 L 7.200 12.792 6.697 12.807 C 6.254 12.820,6.180 12.829,6.082 12.879 C 5.714 13.067,5.528 13.467,5.641 13.827 C 5.700 14.013,5.893 14.235,6.074 14.325 L 6.200 14.387 7.973 14.387 C 9.370 14.387,9.772 14.379,9.864 14.351 C 10.003 14.309,10.232 14.093,10.319 13.921 C 10.505 13.557,10.332 13.088,9.938 12.889 C 9.811 12.825,9.772 12.820,9.301 12.806 L 8.800 12.792 8.800 12.401 L 8.800 12.011 9.060 11.950 C 9.637 11.817,10.242 11.580,10.686 11.315 C 11.574 10.786,12.301 10.019,12.689 9.203 C 12.767 9.040,12.783 8.976,12.782 8.840 C 12.779 8.594,12.712 8.421,12.558 8.268 C 12.377 8.086,12.184 8.015,11.933 8.038 C 11.596 8.069,11.433 8.193,11.200 8.600 C 11.019 8.915,10.884 9.093,10.652 9.320 C 10.156 9.806,9.441 10.172,8.667 10.335 C 8.351 10.402,7.649 10.402,7.333 10.335 C 6.559 10.172,5.844 9.806,5.348 9.320 C 5.116 9.093,4.981 8.915,4.800 8.600 C 4.639 8.320,4.509 8.172,4.360 8.105 C 4.215 8.040,3.882 8.015,3.759 8.061 " fill="#1A1C1F" stroke="none" fill-rule="evenodd"></path></svg>