<svg width="16" height="16" viewBox="0 0 16 16" fill="none" xmlns="http://www.w3.org/2000/svg"><path d="M7.641 1.628 C 6.713 1.774,5.975 2.424,5.689 3.347 L 5.615 3.587 5.606 5.288 C 5.599 6.770,5.603 7.020,5.641 7.221 C 5.797 8.055,6.406 8.767,7.205 9.052 C 7.833 9.276,8.453 9.241,9.057 8.947 C 9.674 8.647,10.132 8.088,10.325 7.400 C 10.384 7.191,10.385 7.152,10.394 5.520 C 10.401 4.332,10.395 3.796,10.372 3.653 C 10.195 2.523,9.226 1.655,8.093 1.614 C 7.932 1.608,7.728 1.614,7.641 1.628 M3.666 8.101 C 3.374 8.242,3.218 8.490,3.215 8.818 C 3.213 9.001,3.220 9.023,3.379 9.338 C 3.595 9.765,3.888 10.152,4.286 10.534 C 4.779 11.008,5.328 11.373,5.933 11.629 C 6.246 11.762,6.739 11.914,7.047 11.974 L 7.200 12.004 7.200 12.400 L 7.200 12.796 6.700 12.805 C 6.217 12.813,6.195 12.816,6.064 12.885 C 5.785 13.032,5.600 13.324,5.600 13.617 C 5.600 13.917,5.826 14.234,6.116 14.343 C 6.266 14.399,6.296 14.400,7.983 14.400 C 9.990 14.400,9.886 14.412,10.149 14.149 C 10.329 13.969,10.400 13.809,10.400 13.583 C 10.400 13.308,10.212 13.016,9.953 12.888 C 9.804 12.815,9.786 12.813,9.300 12.805 L 8.800 12.796 8.800 12.400 L 8.800 12.004 8.953 11.974 C 9.261 11.914,9.754 11.762,10.067 11.629 C 10.672 11.373,11.221 11.008,11.715 10.534 C 12.109 10.155,12.402 9.767,12.620 9.338 C 12.780 9.023,12.787 9.001,12.785 8.818 C 12.782 8.484,12.617 8.229,12.317 8.094 C 12.172 8.029,12.129 8.022,11.950 8.032 C 11.603 8.053,11.418 8.188,11.222 8.566 C 10.771 9.434,9.868 10.067,8.716 10.325 C 8.320 10.413,7.680 10.413,7.284 10.325 C 6.143 10.070,5.240 9.440,4.789 8.585 C 4.575 8.179,4.401 8.051,4.040 8.034 C 3.847 8.024,3.811 8.031,3.666 8.101 " fill="#1A1C1F" stroke="none" fill-rule="evenodd"></path></svg>