<svg width="32" height="32" viewBox="0 0 32 32" fill="none" xmlns="http://www.w3.org/2000/svg"><path d="M12.640 8.085 C 12.418 8.181,12.180 8.398,12.075 8.597 C 12.012 8.719,12.000 9.856,12.000 16.000 C 12.000 24.000,11.974 23.399,12.339 23.720 C 12.868 24.184,13.656 24.011,13.901 23.377 C 13.996 23.131,14.000 22.814,14.000 15.947 L 14.000 8.773 13.881 8.551 C 13.637 8.094,13.091 7.890,12.640 8.085 M18.709 8.053 C 18.471 8.124,18.245 8.315,18.119 8.551 L 18.000 8.773 18.000 15.947 C 18.000 22.814,18.004 23.131,18.099 23.377 C 18.344 24.011,19.132 24.184,19.661 23.720 C 20.026 23.399,20.000 24.000,20.000 16.000 C 20.000 7.994,20.027 8.602,19.658 8.277 C 19.382 8.036,19.037 7.954,18.709 8.053 " fill="#1A1C1F" stroke="none" fill-rule="evenodd"></path></svg>