<svg width="64" height="64" viewBox="0 0 64 64" fill="none" xmlns="http://www.w3.org/2000/svg"><path d="M24.899 16.210 C 24.660 16.331,24.358 16.573,24.229 16.748 L 23.995 17.065 24.024 31.972 C 24.053 46.662,24.056 46.885,24.267 47.241 C 24.826 48.189,26.137 48.211,26.745 47.283 C 26.923 47.012,26.933 46.147,26.933 32.000 C 26.933 17.853,26.923 16.988,26.745 16.717 C 26.317 16.064,25.584 15.863,24.899 16.210 M37.868 16.197 C 37.666 16.306,37.403 16.526,37.283 16.685 C 37.068 16.974,37.067 17.063,37.067 31.986 C 37.067 46.147,37.077 47.012,37.255 47.283 C 37.863 48.211,39.174 48.189,39.733 47.241 C 39.944 46.885,39.947 46.688,39.947 32.000 C 39.947 17.823,39.938 17.103,39.753 16.765 C 39.557 16.405,38.877 16.007,38.452 16.002 C 38.333 16.001,38.071 16.089,37.868 16.197 " fill="#1A1C1F" stroke="none" fill-rule="evenodd"></path></svg>