<svg width="16" height="16" viewBox="0 0 16 16" fill="none" xmlns="http://www.w3.org/2000/svg"><path d="M9.427 4.023 C 9.185 4.086,8.970 4.261,8.871 4.476 L 8.813 4.600 8.813 8.000 L 8.813 11.400 8.875 11.525 C 8.954 11.685,9.115 11.846,9.275 11.925 C 9.445 12.009,9.745 12.011,9.924 11.929 C 10.086 11.855,10.242 11.696,10.330 11.515 L 10.401 11.370 10.394 7.985 C 10.387 4.785,10.384 4.594,10.338 4.497 C 10.266 4.343,10.068 4.146,9.922 4.083 C 9.776 4.020,9.545 3.992,9.427 4.023 M6.114 4.096 C 5.956 4.154,5.738 4.359,5.663 4.519 L 5.601 4.653 5.600 8.001 L 5.600 11.350 5.669 11.488 C 5.806 11.762,6.105 11.953,6.400 11.953 C 6.696 11.953,6.987 11.767,7.128 11.489 L 7.200 11.346 7.200 7.997 L 7.200 4.648 7.131 4.517 C 6.976 4.223,6.749 4.076,6.427 4.063 C 6.293 4.057,6.189 4.068,6.114 4.096 " fill="#1A1C1F" stroke="none" fill-rule="evenodd"></path></svg>