<svg width="20" height="20" viewBox="0 0 20 20" fill="none" xmlns="http://www.w3.org/2000/svg"><path d="M7.783 5.029 C 7.483 5.108,7.236 5.302,7.110 5.560 L 7.017 5.750 7.007 9.946 C 6.996 14.769,6.969 14.342,7.314 14.685 C 7.742 15.110,8.258 15.110,8.686 14.685 C 9.031 14.343,9.003 14.769,8.993 9.947 L 8.983 5.750 8.908 5.599 C 8.805 5.391,8.616 5.204,8.416 5.113 C 8.232 5.028,7.937 4.989,7.783 5.029 M11.783 5.029 C 11.483 5.108,11.236 5.302,11.110 5.560 L 11.017 5.750 11.017 10.000 L 11.017 14.250 11.094 14.406 C 11.192 14.607,11.391 14.805,11.592 14.904 C 11.814 15.013,12.186 15.013,12.408 14.904 C 12.582 14.818,12.811 14.606,12.887 14.459 C 12.989 14.262,13.003 13.635,12.993 9.683 L 12.983 5.750 12.908 5.599 C 12.805 5.391,12.616 5.204,12.416 5.113 C 12.232 5.028,11.937 4.989,11.783 5.029 " fill="#1A1C1F" stroke="none" fill-rule="evenodd"></path></svg>