<svg width="28" height="28" viewBox="0 0 28 28" fill="none" xmlns="http://www.w3.org/2000/svg"><path d="M11.060 7.074 C 10.866 7.158,10.657 7.348,10.566 7.523 C 10.510 7.629,10.500 8.626,10.500 14.015 L 10.500 20.380 10.620 20.557 C 10.782 20.796,10.905 20.889,11.148 20.958 C 11.529 21.065,11.953 20.878,12.146 20.518 L 12.250 20.323 12.250 14.000 L 12.250 7.677 12.146 7.482 C 12.025 7.255,11.857 7.124,11.597 7.052 C 11.353 6.985,11.258 6.989,11.060 7.074 M16.370 7.044 C 16.159 7.111,15.963 7.278,15.854 7.482 L 15.750 7.677 15.750 14.000 L 15.750 20.323 15.854 20.518 C 16.047 20.878,16.471 21.065,16.852 20.958 C 17.095 20.889,17.218 20.796,17.380 20.557 L 17.500 20.380 17.500 14.000 L 17.500 7.620 17.394 7.464 C 17.167 7.126,16.705 6.937,16.370 7.044 " fill="#1A1C1F" stroke="none" fill-rule="evenodd"></path></svg>