<svg width="24" height="24" viewBox="0 0 24 24" fill="none" xmlns="http://www.w3.org/2000/svg"><path d="M13.731 6.038 C 13.484 6.098,13.238 6.296,13.106 6.540 L 13.020 6.700 13.020 11.980 L 13.020 17.260 13.115 17.453 C 13.287 17.802,13.749 18.044,14.126 17.984 C 14.485 17.926,14.838 17.651,14.926 17.359 C 14.970 17.213,14.980 16.235,14.980 12.020 C 14.980 9.182,14.966 6.794,14.949 6.713 C 14.906 6.510,14.604 6.182,14.389 6.105 C 14.171 6.027,13.894 5.999,13.731 6.038 M9.580 6.104 C 9.390 6.207,9.157 6.446,9.076 6.620 C 9.005 6.773,9.002 6.989,9.002 11.720 C 9.002 14.437,9.018 16.824,9.038 17.025 C 9.057 17.226,9.101 17.444,9.135 17.511 C 9.224 17.683,9.554 17.911,9.794 17.966 C 10.213 18.063,10.697 17.836,10.885 17.453 L 10.980 17.260 10.980 11.977 L 10.980 6.694 10.859 6.498 C 10.793 6.391,10.661 6.248,10.566 6.181 C 10.410 6.072,10.359 6.059,10.047 6.050 C 9.787 6.042,9.670 6.055,9.580 6.104 " fill="#1A1C1F" stroke="none" fill-rule="evenodd"></path></svg>