<svg width="14" height="14" viewBox="0 0 14 14" fill="none" xmlns="http://www.w3.org/2000/svg"><path d="M5.398 3.556 C 5.191 3.623,5.063 3.737,4.957 3.946 L 4.900 4.058 4.900 6.960 C 4.900 9.572,4.904 9.873,4.938 9.972 C 4.990 10.125,5.196 10.344,5.338 10.399 C 5.475 10.451,5.740 10.451,5.862 10.400 C 5.984 10.348,6.169 10.168,6.234 10.038 L 6.288 9.928 6.295 6.995 L 6.301 4.061 6.242 3.945 C 6.157 3.777,6.058 3.674,5.914 3.603 C 5.761 3.529,5.541 3.508,5.398 3.556 M8.198 3.556 C 7.991 3.623,7.863 3.737,7.757 3.946 L 7.700 4.058 7.700 7.003 L 7.700 9.947 7.753 10.054 C 7.831 10.215,7.995 10.368,8.151 10.427 C 8.502 10.558,8.862 10.408,9.037 10.057 L 9.100 9.931 9.100 6.995 L 9.100 4.058 9.042 3.943 C 8.957 3.777,8.858 3.674,8.714 3.603 C 8.561 3.529,8.341 3.508,8.198 3.556 " fill="#1A1C1F" stroke="none" fill-rule="evenodd"></path></svg>