<svg width="48" height="48" viewBox="0 0 48 48" fill="none" xmlns="http://www.w3.org/2000/svg"><path d="M18.511 11.162 C 18.008 11.419,18.040 10.551,18.040 24.000 C 18.040 37.486,18.006 36.591,18.524 36.836 C 18.854 36.993,19.146 36.993,19.476 36.836 C 19.994 36.591,19.960 37.491,19.960 23.949 L 19.960 11.603 19.710 11.353 C 19.403 11.046,18.895 10.966,18.511 11.162 M28.511 11.162 C 28.008 11.419,28.040 10.551,28.040 24.000 C 28.040 37.486,28.006 36.591,28.524 36.836 C 28.854 36.993,29.146 36.993,29.476 36.836 C 29.994 36.591,29.960 37.491,29.960 23.949 L 29.960 11.603 29.710 11.353 C 29.403 11.046,28.895 10.966,28.511 11.162 " fill="#1A1C1F" stroke="none" fill-rule="evenodd"></path></svg>