<svg width="12" height="12" viewBox="0 0 12 12" fill="none" xmlns="http://www.w3.org/2000/svg"><path d="M4.690 3.019 C 4.507 3.050,4.331 3.186,4.244 3.364 L 4.198 3.458 4.205 5.984 C 4.210 7.995,4.217 8.526,4.238 8.590 C 4.268 8.682,4.420 8.839,4.534 8.896 C 4.576 8.917,4.649 8.940,4.697 8.948 C 4.796 8.963,5.001 8.931,5.085 8.887 C 5.156 8.851,5.293 8.711,5.332 8.636 C 5.390 8.523,5.399 8.161,5.399 5.828 L 5.400 3.466 5.348 3.368 C 5.214 3.113,4.952 2.974,4.690 3.019 M7.083 3.021 C 6.908 3.056,6.718 3.213,6.638 3.387 C 6.602 3.467,6.601 3.567,6.601 6.000 C 6.601 8.868,6.585 8.600,6.770 8.797 C 6.894 8.930,7.027 8.987,7.212 8.987 C 7.390 8.986,7.500 8.937,7.629 8.799 C 7.805 8.611,7.789 8.872,7.796 6.003 C 7.801 3.489,7.801 3.454,7.761 3.373 C 7.694 3.234,7.606 3.145,7.474 3.082 C 7.334 3.015,7.210 2.996,7.083 3.021 " fill="#1A1C1F" stroke="none" fill-rule="evenodd"></path></svg>