<svg xmlns="http://www.w3.org/2000/svg" width="48" height="48" fill="none"><g clip-path="url(#a)"><path fill="#1A1C1F" fill-rule="evenodd" d="M14.531 9c.677 0 1.354.208 1.927.573l18.886 11.719A3.29 3.29 0 0 1 36.75 24c0 1.094-.52 2.083-1.406 2.708L16.458 38.427a3.6 3.6 0 0 1-1.927.573c-1.823 0-3.281-1.51-3.281-3.333V12.333C11.25 10.51 12.708 9 14.531 9m0 2c-.655 0-1.281.52-1.281 1.333q-.003 11.667 0 23.334c0 .738.583 1.333 1.281 1.333.235 0 .489-.06.852-.26A955 955 0 0 1 34.19 25.074c.36-.254.56-.637.56-1.074 0-.389-.2-.85-.546-1.063q-4.077-2.602-18.82-11.677a1.63 1.63 0 0 0-.853-.26" clip-rule="evenodd"/></g><defs><clipPath id="a"><path fill="#fff" d="M0 0h48v48H0z"/></clipPath></defs></svg>