<svg width="20" height="20" viewBox="0 0 20 20" fill="none" xmlns="http://www.w3.org/2000/svg"><path d="M5.776 4.046 C 5.445 4.154,5.220 4.346,5.086 4.633 C 5.017 4.783,5.017 4.787,5.007 10.007 L 4.998 15.232 5.083 15.400 C 5.322 15.871,5.873 16.118,6.281 15.938 C 6.672 15.765,12.784 12.246,13.932 11.533 C 14.597 11.120,14.747 10.961,14.905 10.502 C 15.099 9.940,14.957 9.297,14.550 8.885 C 14.339 8.672,13.474 8.154,9.633 5.944 C 6.504 4.143,6.299 4.031,6.095 4.015 C 5.993 4.007,5.856 4.020,5.776 4.046 M8.133 7.474 C 10.445 8.737,12.621 9.953,12.647 9.996 C 12.659 10.014,8.722 12.208,7.328 12.960 L 7.000 13.137 7.000 10.123 C 7.000 8.465,7.010 7.061,7.021 7.002 C 7.037 6.923,7.056 6.901,7.096 6.916 C 7.126 6.928,7.593 7.178,8.133 7.474 " fill="#1A1C1F" stroke="none" fill-rule="evenodd"></path></svg>