<svg width="32" height="32" viewBox="0 0 32 32" fill="none" xmlns="http://www.w3.org/2000/svg"><path d="M9.851 7.114 C 9.369 7.293,8.911 7.710,8.702 8.160 C 8.601 8.379,8.556 8.588,8.526 8.987 C 8.474 9.682,8.474 22.318,8.526 23.013 C 8.576 23.673,8.722 24.018,9.118 24.411 C 9.513 24.804,9.793 24.928,10.335 24.952 C 10.578 24.962,10.859 24.956,10.958 24.937 C 11.234 24.885,12.804 23.917,18.427 20.331 C 22.590 17.676,23.055 17.344,23.293 16.859 C 23.425 16.590,23.440 16.503,23.440 16.000 C 23.440 15.064,23.298 14.874,21.893 13.924 C 20.174 12.762,11.721 7.397,11.311 7.209 C 10.945 7.040,10.182 6.991,9.851 7.114 M13.850 11.155 C 17.059 13.188,20.300 15.257,21.025 15.736 C 21.223 15.867,21.378 15.995,21.370 16.021 C 21.351 16.081,20.354 16.729,16.267 19.333 C 11.705 22.240,10.670 22.880,10.535 22.880 C 10.520 22.880,10.507 19.772,10.507 15.973 C 10.507 12.175,10.517 9.067,10.530 9.067 C 10.543 9.067,12.037 10.006,13.850 11.155 " fill="#1A1C1F" stroke="none" fill-rule="evenodd"></path></svg>