<svg width="64" height="64" viewBox="0 0 64 64" fill="none" xmlns="http://www.w3.org/2000/svg"><path d="M19.147 12.146 C 17.981 12.355,16.839 13.273,16.242 14.483 L 15.840 15.296 15.840 31.834 C 15.840 45.424,15.866 48.474,15.985 48.937 C 16.286 50.110,17.465 51.292,18.774 51.735 C 19.652 52.031,21.014 51.999,21.760 51.663 C 22.243 51.446,25.414 49.397,34.560 43.395 C 45.913 35.945,46.786 35.351,47.238 34.780 C 48.529 33.147,48.506 30.692,47.187 29.124 C 46.728 28.578,23.385 13.179,21.867 12.420 C 21.336 12.155,19.903 12.011,19.147 12.146 " fill="#1A1C1F" stroke="none" fill-rule="evenodd"></path></svg>