<svg width="14" height="14" viewBox="0 0 14 14" fill="none" xmlns="http://www.w3.org/2000/svg"><path d="M4.107 2.824 C 3.868 2.855,3.599 3.081,3.543 3.297 C 3.518 3.396,3.512 4.101,3.512 7.059 L 3.512 10.700 3.593 10.837 C 3.694 11.005,3.839 11.115,4.030 11.167 C 4.309 11.243,4.221 11.282,5.822 10.364 C 8.693 8.718,10.003 7.940,10.168 7.785 C 10.321 7.640,10.442 7.403,10.481 7.169 C 10.548 6.768,10.363 6.322,10.034 6.094 C 9.790 5.924,8.869 5.385,6.025 3.747 C 4.340 2.776,4.370 2.791,4.107 2.824 " fill="#1A1C1F" stroke="none" fill-rule="evenodd"></path></svg>