<svg width="28" height="28" viewBox="0 0 28 28" fill="none" xmlns="http://www.w3.org/2000/svg"><path d="M8.742 6.480 C 8.451 6.580,8.126 6.837,7.931 7.120 C 7.633 7.553,7.653 7.048,7.654 14.010 L 7.654 20.370 7.770 20.618 C 7.937 20.978,8.358 21.380,8.701 21.508 C 9.086 21.652,9.563 21.650,9.927 21.501 C 10.075 21.441,10.617 21.128,11.130 20.806 C 13.203 19.507,18.312 16.230,19.345 15.538 C 20.137 15.008,20.318 14.723,20.321 14.000 C 20.322 13.611,20.307 13.525,20.197 13.300 C 20.128 13.159,19.991 12.967,19.894 12.873 C 19.711 12.696,18.242 11.733,14.749 9.498 C 11.216 7.238,10.134 6.572,9.836 6.480 C 9.488 6.371,9.055 6.371,8.742 6.480 " fill="#1A1C1F" stroke="none" fill-rule="evenodd"></path></svg>