<svg width="48" height="48" viewBox="0 0 48 48" fill="none" xmlns="http://www.w3.org/2000/svg"><path d="M13.760 9.109 C 12.907 9.290,11.996 10.053,11.578 10.935 L 11.320 11.480 11.320 23.960 L 11.320 36.440 11.506 36.900 C 11.868 37.796,12.552 38.446,13.511 38.805 C 14.101 39.025,15.002 39.031,15.604 38.819 C 16.128 38.634,20.331 36.064,30.500 29.710 C 35.395 26.651,35.789 26.388,36.073 25.997 C 37.009 24.706,36.890 22.790,35.810 21.733 C 35.451 21.382,34.695 20.899,27.640 16.519 C 20.305 11.964,16.547 9.661,16.000 9.386 C 15.560 9.165,15.370 9.119,14.760 9.087 C 14.364 9.066,13.914 9.076,13.760 9.109 " fill="#1A1C1F" stroke="none" fill-rule="evenodd"></path></svg>