<svg width="16" height="16" viewBox="0 0 16 16" fill="none" xmlns="http://www.w3.org/2000/svg"><path d="M4.680 3.227 C 4.444 3.263,4.198 3.454,4.079 3.694 L 4.013 3.827 4.013 7.973 C 4.013 11.279,4.020 12.146,4.048 12.250 C 4.112 12.490,4.316 12.678,4.601 12.761 C 4.902 12.849,4.895 12.852,7.040 11.626 C 9.612 10.156,11.420 9.078,11.619 8.897 C 11.793 8.738,11.931 8.468,11.978 8.192 C 12.021 7.939,11.980 7.682,11.854 7.424 C 11.707 7.124,11.583 7.021,10.825 6.569 C 9.828 5.975,5.435 3.438,5.173 3.305 C 5.018 3.226,4.854 3.200,4.680 3.227 " fill="#1A1C1F" stroke="none" fill-rule="evenodd"></path></svg>