<svg width="12" height="12" viewBox="0 0 12 12" fill="none" xmlns="http://www.w3.org/2000/svg"><path d="M3.495 2.422 C 3.310 2.465,3.145 2.597,3.059 2.771 L 3.010 2.870 3.010 5.980 C 3.010 8.459,3.015 9.110,3.036 9.187 C 3.084 9.367,3.237 9.509,3.451 9.571 C 3.669 9.634,3.698 9.623,4.653 9.078 C 5.740 8.458,8.369 6.929,8.624 6.767 C 8.717 6.709,8.885 6.473,8.941 6.323 C 9.064 5.996,8.972 5.580,8.721 5.325 C 8.617 5.220,8.165 4.945,6.720 4.109 C 4.931 3.074,3.814 2.440,3.743 2.420 C 3.658 2.397,3.599 2.397,3.495 2.422 " fill="#1A1C1F" stroke="none" fill-rule="evenodd"></path></svg>