<svg width="24" height="24" viewBox="0 0 24 24" fill="none" xmlns="http://www.w3.org/2000/svg"><path d="M7.668 5.039 C 7.105 5.113,6.477 5.586,6.219 6.130 C 6.096 6.388,6.072 6.489,6.039 6.884 C 5.990 7.473,5.991 16.650,6.040 17.191 C 6.087 17.718,6.214 17.997,6.568 18.356 C 6.877 18.669,7.034 18.770,7.387 18.887 C 7.735 19.002,8.311 19.013,8.642 18.911 C 8.873 18.840,9.867 18.234,13.680 15.842 C 17.243 13.608,17.574 13.372,17.772 12.931 C 17.909 12.624,18.000 12.268,18.000 12.034 C 18.000 11.492,17.731 10.893,17.324 10.526 C 17.142 10.361,16.038 9.648,13.960 8.352 C 9.871 5.802,8.856 5.182,8.660 5.116 C 8.412 5.033,7.975 4.999,7.668 5.039 M11.100 8.938 C 14.148 10.845,15.920 11.970,15.920 11.999 C 15.920 12.041,14.995 12.626,8.310 16.807 L 8.000 17.001 8.000 12.000 L 8.000 6.999 8.310 7.193 C 8.480 7.300,9.736 8.085,11.100 8.938 " fill="#1A1C1F" stroke="none" fill-rule="evenodd"></path></svg>