<svg width="12" height="12" viewBox="0 0 12 12" fill="none" xmlns="http://www.w3.org/2000/svg"><path d="M3.423 2.430 C 3.246 2.485,3.076 2.653,3.018 2.830 C 2.997 2.894,2.991 3.446,2.985 5.560 C 2.982 7.018,2.986 8.435,2.995 8.711 C 3.011 9.205,3.012 9.213,3.065 9.304 C 3.132 9.418,3.218 9.492,3.360 9.557 C 3.540 9.640,3.631 9.630,3.901 9.498 C 4.342 9.282,8.307 6.987,8.607 6.773 C 8.986 6.504,9.109 5.982,8.898 5.546 C 8.779 5.300,8.704 5.250,6.780 4.136 C 4.719 2.942,3.839 2.442,3.766 2.421 C 3.665 2.393,3.530 2.397,3.423 2.430 M5.630 4.895 C 6.974 5.634,7.600 5.986,7.600 6.000 C 7.600 6.014,6.850 6.433,5.100 7.396 L 4.230 7.875 4.217 7.692 C 4.200 7.451,4.196 4.469,4.213 4.276 L 4.225 4.126 4.538 4.296 C 4.709 4.389,5.201 4.658,5.630 4.895 " fill="#1A1C1F" stroke="none" fill-rule="evenodd"></path></svg>