<svg width="16" height="16" viewBox="0 0 16 16" fill="none" xmlns="http://www.w3.org/2000/svg"><path d="M4.680 3.227 C 4.472 3.259,4.227 3.428,4.117 3.616 C 4.059 3.715,4.043 3.786,4.023 4.051 C 4.008 4.235,4.001 6.000,4.007 8.270 C 4.016 12.505,4.008 12.287,4.166 12.483 C 4.329 12.687,4.641 12.822,4.874 12.790 C 5.012 12.771,5.425 12.549,7.040 11.626 C 9.612 10.156,11.420 9.078,11.619 8.897 C 11.793 8.738,11.931 8.468,11.978 8.192 C 12.021 7.939,11.980 7.682,11.854 7.424 C 11.707 7.124,11.583 7.021,10.825 6.569 C 9.828 5.975,5.435 3.438,5.173 3.305 C 5.018 3.226,4.855 3.200,4.680 3.227 M6.360 5.899 C 8.416 7.024,10.040 7.930,10.100 7.985 C 10.126 8.008,9.619 8.299,7.873 9.260 L 5.613 10.506 5.605 8.366 C 5.601 7.189,5.605 6.067,5.615 5.872 C 5.630 5.557,5.637 5.518,5.676 5.533 C 5.700 5.542,6.008 5.707,6.360 5.899 " fill="#1A1C1F" stroke="none" fill-rule="evenodd"></path></svg>