<svg width="28" height="28" viewBox="0 0 28 28" fill="none" xmlns="http://www.w3.org/2000/svg"><path d="M8.619 6.225 C 8.198 6.381,7.797 6.747,7.615 7.140 C 7.520 7.343,7.488 7.512,7.456 7.957 C 7.434 8.265,7.422 11.205,7.429 14.490 L 7.443 20.463 7.544 20.710 C 7.824 21.391,8.404 21.831,9.052 21.852 C 9.541 21.868,9.715 21.809,10.394 21.401 C 11.635 20.653,17.232 17.100,18.790 16.070 C 20.379 15.020,20.510 14.863,20.510 14.000 C 20.510 13.136,20.417 13.026,18.760 11.925 C 16.818 10.634,10.463 6.616,9.895 6.320 C 9.680 6.207,9.575 6.185,9.219 6.173 C 8.938 6.163,8.737 6.181,8.619 6.225 M12.703 10.131 C 16.789 12.722,18.713 13.963,18.713 14.008 C 18.713 14.049,18.448 14.222,15.565 16.067 C 11.107 18.919,9.344 20.020,9.230 20.020 C 9.210 20.020,9.193 17.301,9.193 13.977 C 9.193 10.653,9.203 7.933,9.215 7.933 C 9.227 7.933,10.797 8.922,12.703 10.131 " fill="#1A1C1F" stroke="none" fill-rule="evenodd"></path></svg>