<svg width="64" height="64" viewBox="0 0 64 64" fill="none" xmlns="http://www.w3.org/2000/svg"><path d="M19.147 12.146 C 17.981 12.355,16.839 13.273,16.242 14.483 L 15.840 15.296 15.840 31.834 C 15.840 45.424,15.866 48.474,15.985 48.937 C 16.286 50.110,17.465 51.292,18.774 51.735 C 19.652 52.031,21.014 51.999,21.760 51.663 C 22.243 51.446,25.414 49.397,34.560 43.395 C 45.913 35.945,46.786 35.351,47.238 34.780 C 48.529 33.147,48.506 30.692,47.187 29.124 C 46.728 28.578,23.385 13.179,21.867 12.420 C 21.336 12.155,19.903 12.011,19.147 12.146 M21.032 15.394 C 21.755 15.774,24.046 17.262,32.800 23.038 C 42.442 29.400,44.967 31.119,45.102 31.416 C 45.270 31.786,45.259 32.268,45.074 32.626 C 44.868 33.024,43.296 34.131,36.800 38.450 C 27.900 44.367,21.467 48.490,20.644 48.804 C 19.976 49.059,19.498 48.950,19.122 48.457 L 18.827 48.070 18.827 31.998 C 18.827 14.336,18.783 15.486,19.467 15.188 C 19.969 14.969,20.307 15.013,21.032 15.394 " fill="#1A1C1F" stroke="none" fill-rule="evenodd"></path></svg>