<svg xmlns="http://www.w3.org/2000/svg" width="12" height="12" fill="none"><g clip-path="url(#a)"><path fill="#1A1C1F" fill-rule="evenodd" d="M2.4 9.002V3.01c0-.305.235-.598.61-.61a.6.6 0 0 1 .34.106l3.722 2.673a.98.98 0 0 1 0 1.63L3.326 9.506a.63.63 0 0 1-.558.05.59.59 0 0 1-.368-.554m6.004-.598V3.596a.6.6 0 0 1 .598-.598.6.6 0 0 1 .598.598v4.808a.6.6 0 0 1-.598.598.6.6 0 0 1-.598-.598" clip-rule="evenodd"/></g><defs><clipPath id="a"><path fill="#fff" d="M0 0h12v12H0z"/></clipPath></defs></svg>