<svg xmlns="http://www.w3.org/2000/svg" width="24" height="24" fill="none"><g clip-path="url(#a)"><path fill="#1A1C1F" fill-rule="evenodd" d="M7.044 5c.399 0 .798.14 1.15.376l6.454 4.956c.54.376.845 1.01.845 1.668s-.305 1.292-.845 1.668l-6.453 4.956c-.346.24-.755.37-1.175.376C5.987 19 5 18.13 5 16.956V7.044A2.06 2.06 0 0 1 7.044 5M7 7v10l6.5-5zm10.003 10.003V6.973c0-.54.447-.986.987-.986s1.01.446 1.01.986v10.03c0 .54-.446.987-1.01.987a.99.99 0 0 1-.987-.987" clip-rule="evenodd"/></g><defs><clipPath id="a"><path fill="#fff" d="M0 0h24v24H0z"/></clipPath></defs></svg>