<svg xmlns="http://www.w3.org/2000/svg" width="64" height="64" fill="none"><g clip-path="url(#a)"><path fill="#1A1C1F" fill-rule="evenodd" d="M44.126 51.236 20.358 35.611A4.4 4.4 0 0 1 18.5 32c0-1.458.689-2.778 1.858-3.611l23.768-15.625A4.75 4.75 0 0 1 46.67 12c2.405 0 4.33 2.014 4.33 4.444v31.112C51 49.986 49.076 52 46.67 52a4.76 4.76 0 0 1-2.544-.764M16 13.5v37a1.5 1.5 0 1 1-3 0v-37a1.5 1.5 0 1 1 3 0" clip-rule="evenodd"/></g><defs><clipPath id="a"><path fill="#fff" d="M0 0h64v64H0z"/></clipPath></defs></svg>