<svg xmlns="http://www.w3.org/2000/svg" width="28" height="28" fill="none"><g clip-path="url(#a)"><path fill="#1A1C1F" fill-rule="evenodd" d="M7.848 6.125c.355 0 .71.11 1.011.3l8.778 6.153c.465.328.738.848.738 1.422s-.273 1.094-.738 1.422l-8.778 6.152c-.3.192-.656.301-1.011.301-.957 0-1.723-.793-1.723-1.75V7.875c0-.957.793-1.75 1.723-1.75m.027 1.75.027 12.25L16.625 14zm12.25 12.25V7.875c0-.492.383-.875.875-.875s.875.383.875.875v12.25A.866.866 0 0 1 21 21a.863.863 0 0 1-.875-.875" clip-rule="evenodd"/></g><defs><clipPath id="a"><path fill="#fff" d="M0 0h28v28H0z"/></clipPath></defs></svg>