<svg xmlns="http://www.w3.org/2000/svg" width="12" height="12" fill="none"><g clip-path="url(#a)"><path fill="#1A1C1F" fill-rule="evenodd" d="M3 2.388c.117 0 .235.035.341.106l3.735 2.682a.984.984 0 0 1 0 1.635L3.317 9.519a.63.63 0 0 1-.329.094c-.341 0-.6-.27-.6-.6V3c0-.306.235-.6.612-.612m.588 1.718v3.788L6.13 6zm4.824 4.306V3.588c0-.33.27-.6.6-.6s.6.27.6.6v4.824c0 .33-.27.6-.6.6s-.6-.27-.6-.6" clip-rule="evenodd"/></g><defs><clipPath id="a"><path fill="#fff" d="M0 0h12v12H0z"/></clipPath></defs></svg>