<svg xmlns="http://www.w3.org/2000/svg" width="32" height="32" fill="none"><path fill="#1A1C1F" fill-rule="evenodd" d="M22.679 7.044c-.155.027-.37.086-.478.131-.267.112-10.382 7.198-10.644 7.457a2.4 2.4 0 0 0-.375.56c-.147.311-.168.411-.168.808 0 .399.021.497.171.815.108.229.266.45.426.6.427.397 10.299 7.282 10.656 7.432.429.18 1.034.185 1.477.013.357-.14.777-.498.971-.829.31-.53.298-.211.297-8.029-.001-4.54-.021-7.259-.054-7.404a1.94 1.94 0 0 0-1.081-1.367c-.427-.206-.773-.26-1.198-.187M7.6 8.101a.98.98 0 0 0-.531.551c-.073.175-.082 1.016-.082 7.362v7.163l.12.235c.066.129.212.309.325.398.183.146.243.163.568.163s.385-.017.568-.163c.113-.089.259-.269.325-.398l.12-.235-.001-7.175c-.001-6.862-.005-7.185-.099-7.389-.242-.522-.81-.744-1.313-.512"/></svg>