<svg xmlns="http://www.w3.org/2000/svg" width="28" height="28" fill="none"><g clip-path="url(#a)"><path fill="#1A1C1F" fill-rule="evenodd" d="M6.364 19.94V8.06c0-.927.768-1.696 1.67-1.696.345 0 .69.106.98.292l8.512 5.966c.451.318.716.822.716 1.379 0 .556-.265 1.06-.716 1.379l-8.511 5.964c-.293.188-.633.29-.981.293-.928 0-1.67-.77-1.67-1.698m13.575 0V8.06c0-.476.371-.847.849-.847.477 0 .848.37.848.848v11.88a.84.84 0 0 1-.848.848.837.837 0 0 1-.849-.85" clip-rule="evenodd"/></g><defs><clipPath id="a"><path fill="#fff" d="M0 0h28v28H0z"/></clipPath></defs></svg>