<svg xmlns="http://www.w3.org/2000/svg" width="64" height="64" fill="none"><g clip-path="url(#a)"><path fill="#1A1C1F" fill-rule="evenodd" d="M13 47.556V16.444C13 14.014 14.925 12 17.331 12a4.75 4.75 0 0 1 2.544.764l23.769 15.625A4.4 4.4 0 0 1 45.5 32a4.4 4.4 0 0 1-1.856 3.611L19.875 51.236a4.75 4.75 0 0 1-2.544.764C14.925 52 13 49.986 13 47.556M51 13.5v37a1.5 1.5 0 1 1-3 0v-37a1.5 1.5 0 1 1 3 0" clip-rule="evenodd"/></g><defs><clipPath id="a"><path fill="#fff" d="M0 0h64v64H0z"/></clipPath></defs></svg>