<svg xmlns="http://www.w3.org/2000/svg" width="20" height="20" fill="none"><g clip-path="url(#a)"><path fill="#1A1C1F" fill-rule="evenodd" d="M14.984 4A1.02 1.02 0 0 1 16 5.016v9.987c0 .547-.43.997-.997.997a1.05 1.05 0 0 1-.547-.156l-6.243-4.495A1.63 1.63 0 0 1 7.49 10c0-.547.274-1.055.723-1.368l6.204-4.456A1 1 0 0 1 14.984 4m-.977 2.853L9.784 10l4.223 3.147zm-8.014 7.154V5.993a1 1 0 0 0-.996-.996c-.548 0-.997.45-.997.997v8.013a1 1 0 0 0 .997.996 1 1 0 0 0 .996-.996" clip-rule="evenodd"/></g><defs><clipPath id="a"><path fill="#fff" d="M0 0h20v20H0z"/></clipPath></defs></svg>