<svg width="20" height="20" viewBox="0 0 20 20" fill="none" xmlns="http://www.w3.org/2000/svg"><path d="M4.850 4.033 C 4.544 4.078,4.261 4.292,4.093 4.607 L 4.017 4.750 4.007 9.994 L 3.998 15.239 4.073 15.388 C 4.188 15.619,4.351 15.787,4.555 15.887 C 4.711 15.964,4.785 15.979,4.996 15.977 C 5.136 15.976,5.287 15.960,5.333 15.941 C 5.479 15.882,8.765 13.543,11.209 11.758 C 11.922 11.237,12.221 10.958,12.342 10.698 C 12.518 10.324,12.541 9.798,12.400 9.425 C 12.261 9.059,12.132 8.925,11.384 8.368 C 9.878 7.245,5.610 4.196,5.417 4.104 C 5.265 4.032,5.046 4.004,4.850 4.033 M14.783 5.029 C 14.521 5.099,14.224 5.326,14.110 5.546 C 14.083 5.598,14.047 5.778,14.031 5.946 C 13.991 6.357,13.993 13.630,14.033 14.042 C 14.069 14.411,14.105 14.497,14.309 14.707 C 14.491 14.894,14.723 14.980,15.050 14.979 C 15.226 14.979,15.318 14.961,15.426 14.905 C 15.619 14.805,15.804 14.613,15.903 14.414 L 15.983 14.250 15.983 10.000 L 15.983 5.750 15.908 5.599 C 15.809 5.399,15.625 5.214,15.427 5.113 C 15.254 5.026,14.948 4.986,14.783 5.029 M7.717 8.140 C 9.576 9.523,10.145 9.956,10.161 10.000 C 10.169 10.023,7.154 12.302,6.175 13.012 L 6.000 13.139 6.000 9.999 C 6.000 7.491,6.008 6.865,6.042 6.892 C 6.065 6.910,6.818 7.472,7.717 8.140 " fill="#1A1C1F" stroke="none" fill-rule="evenodd"></path></svg>