<svg xmlns="http://www.w3.org/2000/svg" width="20" height="20" fill="none"><g clip-path="url(#a)"><path fill="#1A1C1F" fill-rule="evenodd" d="M16 15.003V5.016c0-.508-.39-.997-1.016-1.016a1 1 0 0 0-.567.176L8.213 8.632A1.67 1.67 0 0 0 7.49 10c0 .528.274 1.055.723 1.348l6.243 4.496c.156.097.352.156.547.156.567 0 .997-.45.997-.997m-10.006-.996V5.993a1 1 0 0 0-.997-.996c-.548 0-.997.45-.997.997v8.013a1 1 0 0 0 .997.996c.547 0 .997-.45.997-.996" clip-rule="evenodd"/></g><defs><clipPath id="a"><path fill="#fff" d="M0 0h20v20H0z"/></clipPath></defs></svg>