<svg width="64" height="64" viewBox="0 0 64 64" fill="none" xmlns="http://www.w3.org/2000/svg"><path d="M13.813 12.201 C 13.281 12.433,13.211 12.607,13.106 13.944 C 13.049 14.666,13.020 22.801,13.037 33.067 C 13.070 53.042,13.001 51.394,13.824 51.784 C 14.432 52.073,15.104 51.957,15.532 51.491 C 15.847 51.147,15.877 51.049,15.943 50.120 C 16.060 48.496,15.954 13.221,15.831 12.853 C 15.758 12.633,15.577 12.458,15.253 12.293 C 14.723 12.024,14.285 11.996,13.813 12.201 M45.623 12.158 C 45.343 12.208,44.847 12.401,44.520 12.585 C 43.609 13.099,37.075 17.380,27.980 23.421 C 20.928 28.106,19.693 28.964,19.370 29.405 C 18.288 30.882,18.283 33.111,19.358 34.579 C 19.789 35.166,21.383 36.262,32.206 43.414 C 42.271 50.064,44.009 51.188,44.800 51.563 C 45.437 51.865,45.585 51.892,46.613 51.892 C 47.646 51.893,47.788 51.867,48.432 51.562 C 49.317 51.143,50.132 50.325,50.588 49.400 L 50.933 48.698 50.963 32.696 C 50.979 23.738,50.950 16.339,50.897 15.890 C 50.719 14.392,49.869 13.154,48.567 12.497 C 48.055 12.238,47.747 12.163,47.030 12.120 C 46.537 12.090,45.904 12.107,45.623 12.158 M47.364 15.280 C 47.559 15.412,47.768 15.664,47.829 15.840 C 47.904 16.055,47.941 21.368,47.943 32.053 C 47.946 47.050,47.936 47.966,47.758 48.292 C 47.505 48.755,47.013 48.999,46.476 48.927 C 46.231 48.894,45.667 48.634,45.133 48.309 C 41.249 45.939,24.944 35.199,22.752 33.566 C 21.561 32.679,21.407 32.411,21.612 31.585 C 21.700 31.230,21.950 31.040,25.173 28.875 C 29.120 26.225,40.320 18.850,43.368 16.893 C 46.495 14.886,46.674 14.814,47.364 15.280 " fill="#1A1C1F" stroke="none" fill-rule="evenodd"></path></svg>