<svg width="48" height="48" viewBox="0 0 48 48" fill="none" xmlns="http://www.w3.org/2000/svg"><path d="M9.376 9.265 C 9.244 9.389,9.093 9.632,9.041 9.805 C 8.906 10.257,8.965 38.100,9.102 38.420 C 9.224 38.706,9.646 38.959,10.000 38.959 C 10.354 38.959,10.776 38.706,10.898 38.420 C 10.968 38.255,11.000 34.654,11.023 24.130 C 11.052 11.149,11.044 10.033,10.921 9.711 C 10.748 9.258,10.441 9.040,9.976 9.040 C 9.693 9.040,9.566 9.088,9.376 9.265 M34.920 9.110 C 34.445 9.237,33.440 9.824,28.360 12.945 C 20.737 17.629,15.021 21.249,14.476 21.739 C 14.231 21.959,13.987 22.289,13.822 22.624 C 13.576 23.124,13.560 23.209,13.560 24.000 C 13.560 24.788,13.577 24.878,13.816 25.362 C 13.957 25.647,14.197 26.008,14.350 26.164 C 14.735 26.558,18.653 29.057,26.760 34.078 C 32.903 37.884,34.412 38.773,34.909 38.885 C 35.583 39.035,36.509 38.950,37.065 38.685 C 37.708 38.379,38.346 37.734,38.652 37.080 C 38.856 36.644,38.912 36.397,38.966 35.695 C 39.052 34.575,39.052 13.418,38.965 12.297 C 38.909 11.561,38.860 11.354,38.635 10.897 C 38.315 10.245,37.720 9.642,37.097 9.338 C 36.727 9.158,36.502 9.109,35.901 9.081 C 35.493 9.061,35.052 9.074,34.920 9.110 " fill="#1A1C1F" stroke="none" fill-rule="evenodd"></path></svg>