<svg xmlns="http://www.w3.org/2000/svg" width="28" height="28" fill="none"><g clip-path="url(#a)"><path fill="#1A1C1F" fill-rule="evenodd" d="M21.637 19.94V8.06c0-.927-.77-1.696-1.67-1.696-.345 0-.69.106-.982.292l-8.511 5.966c-.45.318-.716.822-.716 1.379 0 .556.265 1.06.716 1.379l8.511 5.964c.291.186.637.293.98.293.93 0 1.672-.77 1.672-1.698m-13.576 0V8.06a.84.84 0 0 0-.848-.847.84.84 0 0 0-.85.848v11.88c0 .476.373.848.85.848a.837.837 0 0 0 .848-.85" clip-rule="evenodd"/></g><defs><clipPath id="a"><path fill="#fff" d="M0 0h28v28H0z"/></clipPath></defs></svg>