<svg xmlns="http://www.w3.org/2000/svg" width="64" height="64" fill="none"><g clip-path="url(#a)"><path fill="#1A1C1F" fill-rule="evenodd" d="M44.126 12.764 20.358 28.389A4.4 4.4 0 0 0 18.5 32c0 1.458.689 2.778 1.858 3.611l23.768 15.625c.757.486 1.65.764 2.544.764 2.405 0 4.33-2.014 4.33-4.444V16.444C51 14.014 49.076 12 46.67 12c-.894 0-1.788.278-2.544.764M48 16.444v31.112C48 48.364 47.385 49 46.67 49c-.248 0-.498-.019-.92-.286a770 770 0 0 1-23.682-15.571c-.47-.317-.568-.715-.568-1.143s.099-.827.567-1.144l23.68-15.568c.242-.156.453-.288.922-.288.674 0 1.332.5 1.332 1.444M13 13.5v37a1.5 1.5 0 1 0 3 0v-37a1.5 1.5 0 1 0-3 0" clip-rule="evenodd"/></g><defs><clipPath id="a"><path fill="#fff" d="M0 0h64v64H0z"/></clipPath></defs></svg>