<svg width="12" height="12" viewBox="0 0 12 12" fill="none" xmlns="http://www.w3.org/2000/svg"><path d="M2.747 2.471 C 2.626 2.530,2.492 2.668,2.438 2.790 C 2.401 2.874,2.400 2.958,2.405 6.033 L 2.410 9.190 2.490 9.310 C 2.635 9.527,2.857 9.626,3.102 9.583 C 3.235 9.559,3.283 9.527,4.440 8.702 C 6.359 7.333,7.158 6.744,7.276 6.610 C 7.563 6.284,7.574 5.755,7.302 5.404 C 7.239 5.322,6.679 4.901,5.630 4.146 C 4.152 3.082,3.330 2.500,3.249 2.460 C 3.126 2.400,2.884 2.405,2.747 2.471 M8.880 3.019 C 8.768 3.041,8.658 3.102,8.574 3.188 C 8.463 3.303,8.439 3.362,8.419 3.567 C 8.395 3.815,8.396 8.178,8.420 8.425 C 8.430 8.533,8.450 8.641,8.463 8.665 C 8.511 8.756,8.612 8.866,8.690 8.911 C 8.789 8.968,8.998 9.007,9.108 8.989 C 9.285 8.959,9.467 8.816,9.547 8.643 L 9.590 8.550 9.590 6.010 C 9.590 3.247,9.597 3.426,9.478 3.249 C 9.408 3.145,9.291 3.067,9.146 3.030 C 9.024 2.998,8.990 2.997,8.880 3.019 " fill="#1A1C1F" stroke="none" fill-rule="evenodd"></path></svg>