<svg xmlns="http://www.w3.org/2000/svg" width="14" height="14" fill="none"><g clip-path="url(#a)"><path fill="#1A1C1F" fill-rule="evenodd" d="M11.2 10.502v-6.99a.714.714 0 0 0-.711-.712.7.7 0 0 0-.397.123l-4.343 3.12a1.144 1.144 0 0 0 0 1.902l4.37 3.146a.74.74 0 0 0 .383.109.69.69 0 0 0 .698-.698m-7.005-.697v-5.61a.7.7 0 0 0-.697-.697.7.7 0 0 0-.698.697v5.61a.7.7 0 0 0 .698.697.7.7 0 0 0 .697-.697" clip-rule="evenodd"/></g><defs><clipPath id="a"><path fill="#fff" d="M0 0h14v14H0z"/></clipPath></defs></svg>