<svg width="14" height="14" viewBox="0 0 14 14" fill="none" xmlns="http://www.w3.org/2000/svg"><path d="M3.395 2.822 C 3.179 2.856,2.982 3.005,2.865 3.225 L 2.812 3.325 2.805 6.994 L 2.799 10.662 2.849 10.762 C 3.013 11.088,3.318 11.248,3.641 11.179 C 3.787 11.147,3.814 11.129,5.588 9.862 C 7.626 8.407,8.309 7.907,8.427 7.788 C 8.556 7.658,8.689 7.405,8.728 7.216 C 8.765 7.039,8.744 6.765,8.681 6.599 C 8.585 6.345,8.480 6.238,7.912 5.814 C 6.835 5.011,3.936 2.941,3.792 2.873 C 3.683 2.821,3.527 2.801,3.395 2.822 M10.348 3.521 C 10.145 3.574,9.913 3.776,9.846 3.958 C 9.818 4.034,9.812 4.518,9.806 6.994 L 9.798 9.939 9.849 10.057 C 9.922 10.226,10.136 10.418,10.307 10.467 C 10.637 10.564,10.976 10.406,11.142 10.080 L 11.201 9.962 11.195 6.994 C 11.189 4.187,11.186 4.020,11.146 3.935 C 11.083 3.800,10.910 3.628,10.782 3.573 C 10.653 3.518,10.452 3.493,10.348 3.521 M5.402 5.697 C 6.648 6.625,7.103 6.971,7.112 6.998 C 7.119 7.018,6.148 7.757,4.900 8.679 C 4.547 8.940,4.245 9.164,4.229 9.176 C 4.206 9.194,4.200 8.756,4.200 7.000 L 4.200 4.801 4.276 4.859 C 4.318 4.890,4.824 5.268,5.402 5.697 " fill="#1A1C1F" stroke="none" fill-rule="evenodd"></path></svg>