<svg xmlns="http://www.w3.org/2000/svg" width="14" height="14" fill="none"><g clip-path="url(#a)"><path fill="#1A1C1F" fill-rule="evenodd" d="M2.8 10.503v-6.99c0-.357.274-.699.711-.713.137 0 .274.041.397.123l4.343 3.12a1.144 1.144 0 0 1 0 1.902l-4.37 3.146a.74.74 0 0 1-.652.057.69.69 0 0 1-.43-.646zm7.005-.698v-5.61a.7.7 0 0 1 .697-.697.7.7 0 0 1 .698.697v5.61a.7.7 0 0 1-.697.697.7.7 0 0 1-.698-.697" clip-rule="evenodd"/></g><defs><clipPath id="a"><path fill="#fff" d="M0 0h14v14H0z"/></clipPath></defs></svg>