<svg xmlns="http://www.w3.org/2000/svg" width="12" height="12" fill="none"><g clip-path="url(#a)"><path fill="#1A1C1F" fill-rule="evenodd" d="M9.6 9.002V3.01a.61.61 0 0 0-.61-.61.6.6 0 0 0-.34.106L4.928 5.179a.98.98 0 0 0 0 1.63l3.746 2.697a.63.63 0 0 0 .328.094c.34 0 .598-.27.598-.598m-6.004-.598V3.596a.6.6 0 0 0-.598-.598.6.6 0 0 0-.598.598v4.808a.6.6 0 0 0 .598.598.6.6 0 0 0 .598-.598" clip-rule="evenodd"/></g><defs><clipPath id="a"><path fill="#fff" d="M0 0h12v12H0z"/></clipPath></defs></svg>