<svg width="12" height="12" viewBox="0 0 12 12" fill="none" xmlns="http://www.w3.org/2000/svg"><path d="M8.750 2.460 C 8.664 2.503,7.887 3.052,6.560 4.008 C 4.817 5.263,4.706 5.351,4.610 5.541 C 4.408 5.939,4.491 6.415,4.811 6.697 C 5.067 6.923,8.600 9.465,8.780 9.553 C 8.826 9.575,8.902 9.587,9.000 9.588 C 9.249 9.591,9.427 9.476,9.558 9.230 L 9.600 9.151 9.600 6.011 L 9.600 2.871 9.546 2.763 C 9.478 2.630,9.330 2.494,9.206 2.452 C 9.072 2.406,8.850 2.410,8.750 2.460 M2.836 3.027 C 2.659 3.076,2.516 3.211,2.439 3.400 C 2.414 3.459,2.410 3.853,2.410 6.010 L 2.410 8.550 2.453 8.643 C 2.533 8.816,2.715 8.959,2.892 8.989 C 3.002 9.007,3.211 8.968,3.310 8.911 C 3.388 8.866,3.489 8.756,3.537 8.665 C 3.589 8.567,3.599 8.154,3.599 6.000 C 3.599 3.846,3.589 3.433,3.537 3.335 C 3.409 3.094,3.093 2.956,2.836 3.027 " fill="#1A1C1F" stroke="none" fill-rule="evenodd"></path></svg>