<svg width="20" height="20" viewBox="0 0 20 20" fill="none" xmlns="http://www.w3.org/2000/svg"><path d="M14.733 4.046 C 14.651 4.068,14.486 4.152,14.367 4.233 C 13.715 4.675,9.621 7.619,8.616 8.368 C 8.067 8.776,7.888 8.929,7.791 9.071 C 7.379 9.668,7.414 10.495,7.873 11.016 C 8.069 11.239,9.452 12.259,12.617 14.516 C 14.516 15.871,14.606 15.930,14.813 15.969 C 15.022 16.007,15.296 15.971,15.468 15.883 C 15.621 15.803,15.821 15.590,15.916 15.402 L 16.000 15.236 16.000 10.008 L 16.000 4.780 15.914 4.607 C 15.702 4.182,15.172 3.930,14.733 4.046 M4.767 5.030 C 4.497 5.087,4.239 5.302,4.099 5.585 L 4.017 5.750 4.017 10.000 L 4.017 14.250 4.097 14.414 C 4.196 14.613,4.381 14.805,4.574 14.905 C 4.755 14.999,5.105 15.006,5.358 14.920 C 5.544 14.858,5.793 14.641,5.886 14.462 C 5.992 14.256,6.006 13.655,5.994 9.675 C 5.980 5.328,5.998 5.658,5.765 5.365 C 5.573 5.122,5.091 4.961,4.767 5.030 " fill="#1A1C1F" stroke="none" fill-rule="evenodd"></path></svg>