<svg xmlns="http://www.w3.org/2000/svg" width="14" height="14" fill="none"><g clip-path="url(#a)"><path fill="#1A1C1F" fill-rule="evenodd" d="M3.512 2.801c.137 0 .274.041.397.123l4.343 3.12a1.144 1.144 0 0 1 0 1.902L3.88 11.091a.74.74 0 0 1-.652.058.69.69 0 0 1-.43-.647v-6.99c0-.356.275-.698.712-.712zm.684 1.997v4.406l2.956-2.203zm5.61 5.008v-5.61a.7.7 0 0 1 .697-.697.7.7 0 0 1 .697.697v5.61a.7.7 0 0 1-.697.697.7.7 0 0 1-.697-.697" clip-rule="evenodd"/></g><defs><clipPath id="a"><path fill="#fff" d="M0 0h14v14H0z"/></clipPath></defs></svg>