<svg width="24" height="24" viewBox="0 0 24 24" fill="none" xmlns="http://www.w3.org/2000/svg"><path d="M6.340 5.144 C 5.578 5.478,5.113 6.067,5.037 6.792 C 4.994 7.196,4.995 16.807,5.037 17.212 C 5.143 18.219,6.152 19.070,7.140 18.986 C 7.688 18.939,7.839 18.859,8.964 18.017 C 11.237 16.314,14.722 13.602,14.988 13.329 C 15.574 12.728,15.638 11.567,15.126 10.833 C 14.955 10.589,14.556 10.267,11.640 8.025 C 8.704 5.767,8.050 5.280,7.805 5.169 C 7.610 5.081,7.512 5.065,7.080 5.053 C 6.611 5.039,6.565 5.045,6.340 5.144 M17.664 6.060 C 17.427 6.151,17.252 6.303,17.119 6.533 L 16.999 6.740 17.011 11.980 C 17.020 15.947,17.035 17.255,17.072 17.363 C 17.167 17.644,17.522 17.914,17.887 17.981 C 18.233 18.044,18.698 17.786,18.893 17.423 L 18.980 17.260 18.991 12.010 C 19.004 6.245,19.021 6.701,18.774 6.376 C 18.552 6.084,18.007 5.929,17.664 6.060 M9.960 9.281 C 12.625 11.332,13.414 11.949,13.431 11.996 C 13.444 12.031,12.539 12.739,9.340 15.199 C 8.130 16.129,7.109 16.918,7.070 16.951 C 7.003 17.009,7.000 16.770,7.000 12.003 L 7.000 6.993 7.250 7.191 C 7.388 7.299,8.607 8.240,9.960 9.281 " fill="#1A1C1F" stroke="none" fill-rule="evenodd"></path></svg>