<svg xmlns="http://www.w3.org/2000/svg" width="48" height="48" fill="none"><g clip-path="url(#a)"><path fill="#1A1C1F" fill-rule="evenodd" d="M39 12.333v23.334C39 37.49 37.542 39 35.719 39a3.6 3.6 0 0 1-1.927-.573L14.907 26.708A3.28 3.28 0 0 1 13.5 24c0-1.094.521-2.083 1.407-2.708L33.792 9.573A3.6 3.6 0 0 1 35.719 9C37.542 9 39 10.51 39 12.333m-4.134-1.073q-14.744 9.075-18.819 11.677c-.347.213-.547.674-.547 1.063 0 .437.2.82.56 1.074A956 956 0 0 1 34.867 36.74c.363.2.617.26.852.26.699 0 1.281-.595 1.281-1.333Q37.005 24 37 12.333C37 11.52 36.374 11 35.719 11c-.282 0-.589.092-.853.26M11 10v28a1 1 0 0 1-2 0V10a1 1 0 0 1 2 0" clip-rule="evenodd"/></g><defs><clipPath id="a"><path fill="#fff" d="M0 0h48v48H0z"/></clipPath></defs></svg>