<svg xmlns="http://www.w3.org/2000/svg" width="32" height="32" fill="none"><path fill="#1A1C1F" fill-rule="evenodd" d="M8.599 7.042c-.755.152-1.394.802-1.561 1.586-.035.164-.049 2.786-.039 7.532l.014 7.28.129.32c.178.442.662.924 1.098 1.094.46.178 1.058.176 1.493-.007.357-.15 10.229-7.036 10.656-7.432.16-.15.318-.371.426-.6.15-.318.171-.416.171-.815 0-.397-.021-.497-.168-.808a2.4 2.4 0 0 0-.375-.56c-.114-.113-2.52-1.824-5.345-3.802-3.656-2.56-5.216-3.624-5.411-3.688-.354-.117-.801-.158-1.088-.1M23.6 8.101a.98.98 0 0 0-.531.551c-.073.175-.082 1.016-.082 7.362v7.163l.12.235c.066.129.212.309.325.398.183.146.243.163.568.163s.385-.017.568-.163c.113-.089.259-.269.325-.398l.12-.235-.001-7.175c-.001-6.862-.005-7.185-.099-7.389-.242-.522-.81-.744-1.313-.512m-9.44 4.513c2.552 1.782 4.68 3.28 4.728 3.327.081.079-.288.349-4.813 3.524-2.696 1.89-4.938 3.458-4.982 3.482-.071.04-.08-.751-.08-6.949V9.004l.254.184c.139.101 2.341 1.643 4.893 3.426"/></svg>