<svg width="16" height="16" viewBox="0 0 16 16" fill="none" xmlns="http://www.w3.org/2000/svg"><path d="M11.783 3.226 C 11.744 3.238,11.625 3.304,11.518 3.373 C 11.155 3.608,7.843 5.986,6.893 6.694 C 6.286 7.147,6.191 7.247,6.074 7.560 C 5.991 7.783,5.989 8.212,6.071 8.430 C 6.163 8.676,6.326 8.888,6.554 9.061 C 7.037 9.427,10.711 12.064,11.403 12.541 C 11.618 12.690,11.738 12.754,11.839 12.776 C 12.222 12.858,12.606 12.644,12.749 12.268 C 12.799 12.137,12.800 12.015,12.799 7.980 C 12.799 3.974,12.797 3.823,12.749 3.716 C 12.684 3.574,12.527 3.401,12.389 3.320 C 12.329 3.285,12.202 3.244,12.107 3.228 C 11.909 3.197,11.881 3.196,11.783 3.226 M3.709 4.056 C 3.537 4.125,3.370 4.284,3.279 4.467 L 3.213 4.600 3.213 8.000 L 3.213 11.400 3.279 11.532 C 3.398 11.772,3.620 11.946,3.857 11.985 C 3.982 12.006,4.268 11.961,4.380 11.903 C 4.474 11.854,4.658 11.668,4.709 11.568 C 4.787 11.418,4.799 10.935,4.799 7.800 C 4.799 4.213,4.819 4.535,4.583 4.279 C 4.352 4.028,4.004 3.940,3.709 4.056 " fill="#1A1C1F" stroke="none" fill-rule="evenodd"></path></svg>