<svg xmlns="http://www.w3.org/2000/svg" width="32" height="32" fill="none"><g clip-path="url(#a)"><path fill="#1A1C1F" fill-rule="evenodd" d="M23.031 7C24.094 7 25 7.906 25 9v14c0 1.094-.875 2-1.969 2-.406 0-.812-.125-1.156-.344l-10.031-7.031A1.97 1.97 0 0 1 11 16c0-.656.313-1.25.844-1.625l10.031-7.031c.344-.219.75-.344 1.156-.344M23 9l-10 7 9.969 7zM9 23V9c0-.563-.438-1-1-1s-1 .438-1 1v14c0 .563.438 1 1 1s1-.438 1-1" clip-rule="evenodd"/></g><defs><clipPath id="a"><path fill="#fff" d="M0 0h32v32H0z"/></clipPath></defs></svg>