<svg xmlns="http://www.w3.org/2000/svg" width="20" height="20" fill="none"><g clip-path="url(#a)"><path fill="#1A1C1F" fill-rule="evenodd" d="M5.016 4c.196 0 .391.059.567.176l6.204 4.456c.45.313.723.82.723 1.368 0 .528-.274 1.055-.723 1.348l-6.243 4.496a1.05 1.05 0 0 1-.93.083.99.99 0 0 1-.614-.924V5.016C4 4.508 4.39 4.02 5.016 4m.978 2.853v6.294L10.216 10zm8.013 7.154V5.993a1 1 0 0 1 .996-.996c.547 0 .997.45.997.997v8.013a1 1 0 0 1-.997.996 1 1 0 0 1-.996-.996" clip-rule="evenodd"/></g><defs><clipPath id="a"><path fill="#fff" d="M0 0h20v20H0z"/></clipPath></defs></svg>