<svg width="14" height="14" viewBox="0 0 14 14" fill="none" xmlns="http://www.w3.org/2000/svg"><path d="M3.227 2.867 C 3.110 2.922,2.927 3.086,2.879 3.179 C 2.860 3.216,2.834 3.364,2.822 3.507 C 2.810 3.652,2.801 5.310,2.800 7.217 L 2.800 10.665 2.849 10.763 C 2.994 11.050,3.206 11.188,3.500 11.187 C 3.617 11.186,3.702 11.173,3.757 11.146 C 3.854 11.098,4.735 10.477,6.370 9.301 C 8.545 7.738,8.488 7.783,8.620 7.521 C 8.838 7.087,8.773 6.573,8.460 6.248 C 8.358 6.142,8.054 5.910,7.210 5.296 C 6.546 4.813,4.340 3.238,4.008 3.009 L 3.757 2.837 3.541 2.829 C 3.364 2.823,3.307 2.830,3.227 2.867 M10.348 3.521 C 10.160 3.570,9.956 3.731,9.881 3.891 C 9.859 3.936,9.832 4.043,9.821 4.127 C 9.810 4.212,9.801 5.557,9.801 7.117 L 9.800 9.952 9.857 10.072 C 9.981 10.340,10.209 10.486,10.500 10.486 C 10.784 10.485,11.004 10.348,11.131 10.091 L 11.188 9.975 11.188 7.000 C 11.188 4.180,11.186 4.020,11.146 3.935 C 11.083 3.800,10.910 3.628,10.782 3.573 C 10.653 3.518,10.452 3.493,10.348 3.521 " fill="#1A1C1F" stroke="none" fill-rule="evenodd"></path></svg>