<svg xmlns="http://www.w3.org/2000/svg" width="14" height="14" fill="none"><g clip-path="url(#a)"><path fill="#1A1C1F" fill-rule="evenodd" d="M10.489 2.8a.714.714 0 0 1 .711.711v6.991a.69.69 0 0 1-.698.698.74.74 0 0 1-.383-.11L5.75 7.945a1.144 1.144 0 0 1 0-1.902l4.343-3.119a.7.7 0 0 1 .397-.123zm-.684 1.997L6.849 7l2.956 2.203zm-5.61 5.008v-5.61a.7.7 0 0 0-.697-.697.7.7 0 0 0-.698.697v5.61a.7.7 0 0 0 .698.697.7.7 0 0 0 .697-.697" clip-rule="evenodd"/></g><defs><clipPath id="a"><path fill="#fff" d="M0 0h14v14H0z"/></clipPath></defs></svg>