<svg xmlns="http://www.w3.org/2000/svg" width="28" height="28" fill="none"><g clip-path="url(#a)"><path fill="#1A1C1F" fill-rule="evenodd" d="M20.152 6.125c.93 0 1.723.793 1.723 1.75v12.25c0 .957-.766 1.75-1.723 1.75-.355 0-.71-.11-1.011-.3l-8.778-6.153A1.73 1.73 0 0 1 9.625 14c0-.574.273-1.094.738-1.422l8.778-6.152c.3-.192.656-.301 1.011-.301m-.027 1.75L11.375 14l8.723 6.125zm-12.25 12.25V7.875A.864.864 0 0 0 7 7a.864.864 0 0 0-.875.875v12.25c0 .492.383.875.875.875a.863.863 0 0 0 .875-.875" clip-rule="evenodd"/></g><defs><clipPath id="a"><path fill="#fff" d="M0 0h28v28H0z"/></clipPath></defs></svg>