<svg xmlns="http://www.w3.org/2000/svg" width="32" height="32" fill="none"><g clip-path="url(#a)"><path fill="#1A1C1F" fill-rule="evenodd" d="M7 23V9c0-1.094.906-2 1.969-2 .406 0 .812.125 1.156.344l10.031 7.031c.532.375.844.969.844 1.625s-.313 1.25-.844 1.625l-10.031 7.031c-.344.219-.75.344-1.156.344C7.875 25 7 24.094 7 23m16 0V9c0-.563.438-1 1-1s1 .438 1 1v14c0 .563-.438 1-1 1s-1-.438-1-1" clip-rule="evenodd"/></g><defs><clipPath id="a"><path fill="#fff" d="M0 0h32v32H0z"/></clipPath></defs></svg>