<svg width="14" height="14" viewBox="0 0 14 14" fill="none" xmlns="http://www.w3.org/2000/svg"><path d="M10.231 2.856 C 10.096 2.915,6.391 5.570,5.726 6.085 C 5.404 6.334,5.282 6.551,5.257 6.918 C 5.243 7.130,5.283 7.327,5.379 7.520 C 5.512 7.783,5.452 7.736,7.630 9.302 C 9.251 10.467,10.145 11.098,10.243 11.146 C 10.298 11.173,10.383 11.186,10.500 11.187 C 10.794 11.188,11.006 11.050,11.151 10.763 L 11.200 10.665 11.200 7.007 L 11.200 3.349 11.137 3.224 C 11.058 3.069,10.885 2.910,10.741 2.860 C 10.609 2.816,10.329 2.813,10.231 2.856 M3.308 3.533 C 3.104 3.588,2.935 3.745,2.845 3.967 C 2.817 4.036,2.812 4.496,2.812 7.012 L 2.812 9.975 2.867 10.086 C 2.939 10.232,3.068 10.361,3.210 10.430 C 3.370 10.509,3.629 10.511,3.783 10.435 C 3.922 10.367,4.069 10.217,4.142 10.070 L 4.200 9.954 4.199 7.001 C 4.199 3.654,4.218 3.967,4.002 3.736 C 3.828 3.551,3.549 3.469,3.308 3.533 " fill="#1A1C1F" stroke="none" fill-rule="evenodd"></path></svg>