<svg width="16" height="16" viewBox="0 0 16 16" fill="none" xmlns="http://www.w3.org/2000/svg"><path d="M3.844 3.230 C 3.610 3.274,3.354 3.485,3.250 3.721 C 3.201 3.832,3.200 3.962,3.206 8.044 L 3.213 12.253 3.320 12.413 C 3.597 12.828,4.065 12.911,4.493 12.620 C 5.119 12.194,8.378 9.844,9.202 9.224 C 9.756 8.808,9.863 8.679,9.959 8.308 C 10.068 7.888,9.956 7.442,9.666 7.140 C 9.448 6.913,4.613 3.415,4.333 3.283 C 4.205 3.222,4.002 3.200,3.844 3.230 M11.801 4.029 C 11.573 4.085,11.363 4.271,11.253 4.513 C 11.203 4.623,11.201 4.724,11.201 8.001 L 11.200 11.376 11.266 11.508 C 11.367 11.710,11.480 11.829,11.647 11.912 C 11.775 11.975,11.832 11.986,12.000 11.985 C 12.326 11.982,12.576 11.825,12.721 11.532 L 12.787 11.400 12.787 8.013 C 12.787 4.329,12.796 4.567,12.637 4.332 C 12.476 4.093,12.098 3.956,11.801 4.029 M6.133 6.480 C 7.648 7.605,8.133 7.974,8.133 8.002 C 8.133 8.026,7.352 8.617,5.813 9.759 C 5.293 10.146,4.852 10.473,4.833 10.487 C 4.807 10.508,4.800 10.007,4.800 8.000 L 4.800 5.487 4.887 5.553 C 4.934 5.589,5.495 6.006,6.133 6.480 " fill="#1A1C1F" stroke="none" fill-rule="evenodd"></path></svg>