<svg xmlns="http://www.w3.org/2000/svg" width="64" height="64" fill="none"><g clip-path="url(#a)"><path fill="#1A1C1F" fill-rule="evenodd" d="M17.331 12a4.75 4.75 0 0 1 2.544.764l23.769 15.625A4.4 4.4 0 0 1 45.5 32a4.4 4.4 0 0 1-1.856 3.611L19.875 51.236a4.75 4.75 0 0 1-2.544.764C14.925 52 13 49.986 13 47.556V16.444C13 14.014 14.925 12 17.331 12m0 3C16.66 15 16 15.5 16 16.444v31.112c0 .808.616 1.444 1.331 1.444.248 0 .497-.02.92-.286a769 769 0 0 0 23.682-15.571c.47-.317.567-.715.567-1.143s-.098-.827-.567-1.144l-23.68-15.568c-.243-.156-.452-.288-.922-.288M51 13.5v37a1.5 1.5 0 1 1-3 0v-37a1.5 1.5 0 1 1 3 0" clip-rule="evenodd"/></g><defs><clipPath id="a"><path fill="#fff" d="M0 0h64v64H0z"/></clipPath></defs></svg>