<svg width="32" height="32" viewBox="0 0 32 32" fill="none" xmlns="http://www.w3.org/2000/svg"><path d="M22.401 7.100 C 22.152 7.175,19.995 8.652,15.253 11.991 C 11.379 14.720,11.411 14.695,11.155 15.251 C 11.042 15.494,11.018 15.627,11.018 16.000 C 11.018 16.530,11.158 16.901,11.498 17.278 C 11.759 17.568,14.374 19.436,19.013 22.648 C 21.402 24.302,22.235 24.848,22.468 24.912 C 22.782 24.999,23.395 24.985,23.672 24.885 C 24.198 24.695,24.720 24.169,24.892 23.659 C 24.976 23.409,24.985 22.826,25.001 16.436 C 25.011 12.303,24.998 9.264,24.968 8.938 C 24.888 8.078,24.584 7.605,23.882 7.245 C 23.590 7.096,23.485 7.072,23.067 7.059 C 22.803 7.050,22.503 7.069,22.401 7.100 M7.590 8.127 C 7.401 8.217,7.266 8.330,7.163 8.485 L 7.013 8.712 6.998 15.962 L 6.983 23.212 7.151 23.473 C 7.404 23.868,7.584 23.973,8.000 23.973 C 8.416 23.973,8.596 23.868,8.849 23.474 L 9.016 23.213 9.001 15.993 C 8.987 8.789,8.986 8.773,8.875 8.560 C 8.731 8.284,8.412 8.062,8.107 8.024 C 7.920 8.002,7.806 8.024,7.590 8.127 M22.980 15.685 C 22.984 18.283,22.971 20.985,22.952 21.689 L 22.917 22.968 19.765 20.757 C 13.945 16.674,13.119 16.079,13.122 15.978 C 13.123 15.946,13.381 15.741,13.695 15.521 C 14.010 15.302,16.211 13.760,18.587 12.095 L 22.907 9.067 22.940 10.014 C 22.958 10.534,22.976 13.086,22.980 15.685 " fill="#1A1C1F" stroke="none" fill-rule="evenodd"></path></svg>