<svg width="12" height="12" viewBox="0 0 12 12" fill="none" xmlns="http://www.w3.org/2000/svg"><path d="M8.826 2.421 C 8.731 2.450,8.206 2.817,6.440 4.087 C 4.881 5.209,4.757 5.305,4.649 5.468 C 4.415 5.825,4.456 6.338,4.743 6.641 C 4.837 6.741,6.049 7.631,7.590 8.734 C 8.534 9.409,8.782 9.575,8.870 9.591 C 8.981 9.612,9.202 9.590,9.277 9.551 C 9.362 9.507,9.506 9.365,9.553 9.277 C 9.606 9.178,9.616 8.639,9.618 5.550 L 9.620 2.890 9.562 2.768 C 9.453 2.537,9.279 2.419,9.030 2.408 C 8.953 2.404,8.861 2.410,8.826 2.421 M2.825 3.020 C 2.661 3.054,2.490 3.214,2.409 3.410 C 2.384 3.469,2.380 3.848,2.380 6.005 L 2.380 8.532 2.434 8.641 C 2.550 8.872,2.747 9.004,2.980 9.005 C 3.215 9.006,3.396 8.890,3.531 8.648 L 3.600 8.526 3.600 6.008 L 3.600 3.490 3.542 3.368 C 3.407 3.083,3.141 2.954,2.825 3.020 M8.395 5.990 C 8.395 6.727,8.390 7.450,8.383 7.596 L 8.370 7.862 8.240 7.766 C 7.444 7.180,5.900 6.017,5.900 6.004 C 5.900 5.985,6.497 5.531,7.600 4.711 L 8.370 4.138 8.383 4.394 C 8.390 4.535,8.395 5.253,8.395 5.990 " fill="#1A1C1F" stroke="none" fill-rule="evenodd"></path></svg>