<svg width="64" height="64" viewBox="0 0 64 64" fill="none" xmlns="http://www.w3.org/2000/svg"><path d="M16.320 12.144 C 15.179 12.390,14.024 13.368,13.399 14.618 L 13.013 15.389 13.013 32.007 L 13.013 48.624 13.381 49.329 C 13.882 50.290,14.301 50.794,14.962 51.229 C 15.829 51.800,16.503 51.979,17.587 51.927 C 19.084 51.856,18.361 52.289,31.835 43.385 C 42.685 36.215,44.211 35.166,44.642 34.579 C 45.708 33.123,45.711 30.881,44.650 29.432 C 44.390 29.079,43.711 28.548,42.173 27.497 C 38.392 24.915,21.612 13.901,19.680 12.733 C 19.387 12.556,18.979 12.352,18.773 12.280 C 18.312 12.118,16.823 12.036,16.320 12.144 M48.779 12.256 C 48.592 12.373,48.352 12.602,48.246 12.764 C 48.063 13.043,48.052 13.924,48.020 31.195 C 48.002 41.171,48.019 49.735,48.057 50.227 C 48.121 51.034,48.161 51.155,48.468 51.490 C 48.896 51.957,49.568 52.073,50.176 51.784 C 51.002 51.393,50.934 53.172,50.930 32.053 C 50.928 19.425,50.891 13.070,50.818 12.861 C 50.573 12.160,49.458 11.829,48.779 12.256 M17.761 15.147 C 18.212 15.318,20.777 16.955,26.933 20.997 C 32.746 24.813,41.641 30.747,42.133 31.137 C 42.366 31.321,42.400 31.431,42.400 32.004 C 42.400 32.790,42.587 32.607,39.733 34.607 C 35.964 37.249,22.196 46.290,18.987 48.231 C 17.517 49.120,16.895 49.173,16.349 48.457 L 16.053 48.070 16.053 32.008 C 16.053 18.939,16.079 15.901,16.193 15.701 C 16.367 15.397,16.934 15.041,17.246 15.040 C 17.375 15.040,17.606 15.088,17.761 15.147 " fill="#1A1C1F" stroke="none" fill-rule="evenodd"></path></svg>