<svg width="16" height="16" viewBox="0 0 16 16" fill="none" xmlns="http://www.w3.org/2000/svg"><path d="M3.795 3.238 C 3.564 3.311,3.368 3.483,3.258 3.710 L 3.200 3.831 3.206 8.042 L 3.213 12.253 3.320 12.413 C 3.513 12.703,3.817 12.838,4.140 12.778 C 4.323 12.744,4.353 12.725,6.277 11.349 C 8.700 9.616,9.505 9.028,9.640 8.892 C 10.100 8.428,10.116 7.616,9.675 7.146 C 9.538 7.000,7.944 5.829,5.783 4.286 C 4.387 3.290,4.338 3.258,4.145 3.226 C 3.951 3.194,3.934 3.195,3.795 3.238 M11.801 4.029 C 11.573 4.085,11.363 4.271,11.253 4.513 C 11.203 4.623,11.201 4.724,11.201 8.001 L 11.200 11.376 11.266 11.508 C 11.367 11.710,11.480 11.829,11.647 11.912 C 11.775 11.975,11.832 11.986,12.000 11.985 C 12.326 11.982,12.576 11.825,12.721 11.532 L 12.787 11.400 12.787 8.013 C 12.787 4.329,12.796 4.567,12.637 4.332 C 12.476 4.093,12.098 3.956,11.801 4.029 " fill="#1A1C1F" stroke="none" fill-rule="evenodd"></path></svg>