<svg width="32" height="32" viewBox="0 0 32 32" fill="none" xmlns="http://www.w3.org/2000/svg"><path d="M8.186 7.192 C 7.556 7.490,7.129 8.072,7.041 8.756 C 7.011 8.986,6.989 12.073,6.988 16.251 C 6.987 23.246,6.988 23.360,7.094 23.638 C 7.406 24.457,8.127 24.975,8.957 24.976 C 9.620 24.977,9.612 24.982,12.907 22.702 C 17.557 19.484,20.240 17.568,20.500 17.281 C 20.842 16.901,20.982 16.531,20.982 16.000 C 20.982 15.484,20.848 15.113,20.533 14.754 C 20.321 14.512,17.426 12.443,13.013 9.378 C 10.663 7.746,9.815 7.190,9.553 7.111 C 9.423 7.072,9.134 7.040,8.912 7.040 C 8.577 7.040,8.451 7.067,8.186 7.192 M23.590 8.127 C 23.401 8.217,23.266 8.330,23.163 8.485 L 23.013 8.712 22.998 15.962 L 22.983 23.212 23.151 23.473 C 23.404 23.868,23.584 23.973,24.000 23.973 C 24.416 23.973,24.596 23.868,24.849 23.474 L 25.016 23.213 25.001 15.993 C 24.987 8.789,24.986 8.773,24.875 8.560 C 24.731 8.284,24.412 8.062,24.107 8.024 C 23.920 8.002,23.806 8.024,23.590 8.127 M13.973 12.489 C 16.423 14.204,18.528 15.677,18.651 15.764 C 18.775 15.850,18.877 15.946,18.878 15.978 C 18.882 16.082,17.735 16.906,11.876 21.008 C 10.356 22.072,9.096 22.927,9.076 22.907 C 9.056 22.887,9.033 19.750,9.024 15.936 L 9.009 9.001 9.264 9.186 C 9.405 9.288,11.524 10.774,13.973 12.489 " fill="#1A1C1F" stroke="none" fill-rule="evenodd"></path></svg>