<svg xmlns="http://www.w3.org/2000/svg" width="24" height="24" fill="none"><g clip-path="url(#a)"><path fill="#1A1C1F" fill-rule="evenodd" d="M16.956 5A2.06 2.06 0 0 1 19 7.044v9.912C19 18.131 18.013 19 16.98 19c-.423 0-.822-.14-1.175-.376l-6.453-4.956c-.54-.376-.845-1.01-.845-1.668s.305-1.292.845-1.668l6.453-4.956c.353-.235.752-.376 1.151-.376M17 7l-6.5 5 6.5 5zM6.997 17.003V6.973a.993.993 0 0 0-.987-.986c-.54 0-1.01.446-1.01.986v10.03c0 .54.446.987 1.01.987.54 0 .987-.446.987-.987" clip-rule="evenodd"/></g><defs><clipPath id="a"><path fill="#fff" d="M0 0h24v24H0z"/></clipPath></defs></svg>