<svg xmlns="http://www.w3.org/2000/svg" width="16" height="16" fill="none"><g clip-path="url(#a)"><path fill="#1A1C1F" fill-rule="evenodd" d="M11.987 3.2c.5.016.813.406.813.813v7.99a.79.79 0 0 1-.797.797.84.84 0 0 1-.438-.125L6.57 9.079a1.307 1.307 0 0 1 .001-2.173l4.963-3.565a.8.8 0 0 1 .453-.141m-.782 2.283L7.828 8l3.377 2.517zm-6.41 5.722v-6.41a.8.8 0 0 0-.798-.798.8.8 0 0 0-.797.798v6.41a.8.8 0 0 0 .797.798.8.8 0 0 0 .798-.798" clip-rule="evenodd"/></g><defs><clipPath id="a"><path fill="#fff" d="M0 0h16v16H0z"/></clipPath></defs></svg>