<svg xmlns="http://www.w3.org/2000/svg" width="48" height="48" fill="none"><g clip-path="url(#a)"><path fill="#1A1C1F" fill-rule="evenodd" d="M33.793 38.427 14.907 26.708A3.29 3.29 0 0 1 13.5 24c0-1.094.52-2.083 1.407-2.708L33.793 9.573A3.6 3.6 0 0 1 35.719 9C37.543 9 39 10.51 39 12.333v23.334C39.002 37.49 37.543 39 35.72 39a3.6 3.6 0 0 1-1.928-.573M11 10v28a1 1 0 0 1-2 0V10a1 1 0 0 1 2 0" clip-rule="evenodd"/></g><defs><clipPath id="a"><path fill="#fff" d="M0 0h48v48H0z"/></clipPath></defs></svg>