<svg width="16" height="16" viewBox="0 0 16 16" fill="none" xmlns="http://www.w3.org/2000/svg"><path d="M11.781 3.238 C 11.639 3.275,11.681 3.247,10.347 4.197 C 7.504 6.220,6.383 7.052,6.244 7.239 C 5.970 7.608,5.926 8.144,6.136 8.578 C 6.259 8.833,6.339 8.898,8.040 10.138 C 9.000 10.837,11.175 12.395,11.507 12.620 C 11.935 12.911,12.403 12.828,12.680 12.413 L 12.787 12.253 12.794 8.044 C 12.800 3.987,12.799 3.831,12.751 3.723 C 12.588 3.356,12.155 3.140,11.781 3.238 M3.781 4.036 C 3.546 4.102,3.354 4.281,3.251 4.533 C 3.219 4.613,3.213 5.138,3.213 8.013 L 3.213 11.400 3.279 11.532 C 3.424 11.825,3.674 11.982,4.000 11.985 C 4.338 11.988,4.569 11.838,4.734 11.508 L 4.800 11.376 4.799 8.001 C 4.799 4.699,4.798 4.624,4.746 4.511 C 4.658 4.316,4.543 4.194,4.365 4.109 C 4.168 4.014,3.956 3.988,3.781 4.036 M11.193 7.987 C 11.193 9.028,11.186 10.016,11.176 10.183 L 11.160 10.486 9.893 9.542 C 8.100 8.206,7.867 8.029,7.867 8.000 C 7.867 7.978,8.399 7.576,10.733 5.835 L 11.160 5.517 11.177 5.805 C 11.186 5.964,11.193 6.945,11.193 7.987 " fill="#1A1C1F" stroke="none" fill-rule="evenodd"></path></svg>