<svg width="28" height="28" viewBox="0 0 28 28" fill="none" xmlns="http://www.w3.org/2000/svg"><path d="M19.362 6.500 C 19.022 6.644,17.514 7.674,13.347 10.610 C 10.095 12.902,10.099 12.898,9.882 13.382 C 9.753 13.669,9.744 14.303,9.864 14.583 C 10.093 15.116,10.161 15.170,13.930 17.810 C 17.622 20.396,19.243 21.488,19.495 21.558 C 19.591 21.584,19.829 21.606,20.024 21.606 C 20.325 21.607,20.421 21.586,20.660 21.466 C 20.987 21.302,21.340 20.948,21.471 20.650 C 21.522 20.536,21.584 20.269,21.609 20.057 C 21.639 19.813,21.651 17.450,21.643 13.673 L 21.630 7.677 21.497 7.405 C 21.330 7.066,20.955 6.679,20.651 6.533 C 20.302 6.365,19.717 6.351,19.362 6.500 M6.828 7.324 C 6.705 7.380,6.584 7.486,6.501 7.611 L 6.370 7.810 6.370 13.997 C 6.370 19.799,6.375 20.193,6.452 20.333 C 6.752 20.883,7.574 20.909,7.925 20.379 L 8.050 20.190 8.063 14.265 C 8.071 10.710,8.059 8.213,8.032 8.021 C 7.979 7.639,7.855 7.444,7.588 7.322 C 7.343 7.211,7.075 7.212,6.828 7.324 " fill="#1A1C1F" stroke="none" fill-rule="evenodd"></path></svg>