<svg xmlns="http://www.w3.org/2000/svg" width="16" height="16" fill="none"><g clip-path="url(#a)"><path fill="#1A1C1F" fill-rule="evenodd" d="M3.2 12.003v-7.99c0-.408.313-.798.813-.814.156 0 .313.047.453.14L9.43 6.906c.36.25.579.656.579 1.094 0 .422-.22.844-.58 1.08l-4.993 3.595a.84.84 0 0 1-.744.067.79.79 0 0 1-.491-.739zm8.005-.799v-6.41a.8.8 0 0 1 .798-.798.8.8 0 0 1 .797.798v6.41a.8.8 0 0 1-.797.798.8.8 0 0 1-.798-.798" clip-rule="evenodd"/></g><defs><clipPath id="a"><path fill="#fff" d="M0 0h16v16H0z"/></clipPath></defs></svg>