<svg xmlns="http://www.w3.org/2000/svg" width="48" height="48" fill="none"><g clip-path="url(#a)"><path fill="#1A1C1F" fill-rule="evenodd" d="M12.281 9c.677 0 1.354.208 1.927.573l18.886 11.719A3.29 3.29 0 0 1 34.5 24c0 1.094-.52 2.083-1.406 2.708L14.208 38.427a3.6 3.6 0 0 1-1.927.573C10.458 39 9 37.49 9 35.667V12.333C9 10.51 10.458 9 12.281 9m0 2c-.655 0-1.281.52-1.281 1.333Q10.997 24 11 35.667c0 .738.583 1.333 1.281 1.333.235 0 .489-.06.852-.26A955 955 0 0 1 31.94 25.074c.36-.254.56-.637.56-1.074 0-.389-.2-.85-.546-1.063q-4.077-2.602-18.82-11.677a1.63 1.63 0 0 0-.853-.26M39 10v28a1 1 0 0 1-2 0V10a1 1 0 0 1 2 0" clip-rule="evenodd"/></g><defs><clipPath id="a"><path fill="#fff" d="M0 0h48v48H0z"/></clipPath></defs></svg>