<svg width="28" height="28" viewBox="0 0 28 28" fill="none" xmlns="http://www.w3.org/2000/svg"><path d="M7.607 6.435 C 7.150 6.583,6.724 6.956,6.507 7.397 L 6.370 7.677 6.357 13.697 C 6.348 17.627,6.360 19.844,6.391 20.082 C 6.417 20.283,6.480 20.540,6.530 20.652 C 6.660 20.948,7.014 21.303,7.340 21.466 C 7.579 21.586,7.675 21.607,7.976 21.606 C 8.475 21.606,8.605 21.558,9.251 21.131 C 10.972 19.994,16.876 15.861,17.593 15.291 C 18.077 14.907,18.302 14.330,18.204 13.725 C 18.148 13.374,18.012 13.109,17.764 12.864 C 17.366 12.471,9.364 6.879,8.725 6.547 C 8.519 6.440,8.407 6.415,8.099 6.407 C 7.892 6.401,7.671 6.414,7.607 6.435 M20.534 7.265 C 20.363 7.301,20.181 7.445,20.058 7.643 L 19.950 7.817 19.950 14.003 L 19.950 20.190 20.082 20.389 C 20.435 20.923,21.295 20.874,21.553 20.306 C 21.623 20.153,21.631 19.638,21.643 14.863 C 21.658 9.083,21.628 7.767,21.478 7.566 C 21.297 7.323,20.886 7.192,20.534 7.265 " fill="#1A1C1F" stroke="none" fill-rule="evenodd"></path></svg>