<svg width="28" height="28" viewBox="0 0 28 28" fill="none" xmlns="http://www.w3.org/2000/svg"><path d="M19.589 6.219 C 19.200 6.347,10.365 12.533,10.036 12.908 C 9.758 13.224,9.641 13.548,9.641 14.000 C 9.641 14.465,9.763 14.789,10.063 15.121 C 10.454 15.554,19.189 21.650,19.625 21.794 C 19.732 21.829,19.958 21.843,20.224 21.830 C 20.745 21.805,21.012 21.692,21.352 21.352 C 21.691 21.014,21.796 20.767,21.843 20.193 C 21.896 19.559,21.896 8.308,21.843 7.765 C 21.776 7.071,21.493 6.644,20.896 6.340 C 20.641 6.209,20.549 6.188,20.183 6.176 C 19.938 6.168,19.691 6.186,19.589 6.219 M6.743 7.055 C 6.525 7.136,6.363 7.266,6.245 7.456 L 6.137 7.630 6.137 14.008 L 6.137 20.385 6.277 20.585 C 6.472 20.862,6.682 20.975,7.000 20.975 C 7.318 20.975,7.528 20.862,7.723 20.585 L 7.863 20.385 7.863 14.031 C 7.863 7.677,7.863 7.677,7.766 7.490 C 7.578 7.130,7.095 6.924,6.743 7.055 M20.107 13.697 C 20.111 15.955,20.099 18.319,20.083 18.950 L 20.052 20.097 17.294 18.162 C 12.202 14.589,11.479 14.069,11.482 13.981 C 11.483 13.953,11.708 13.773,11.983 13.581 C 12.258 13.390,14.184 12.040,16.263 10.583 L 20.043 7.934 20.073 8.762 C 20.089 9.217,20.104 11.438,20.107 13.697 " fill="#1A1C1F" stroke="none" fill-rule="evenodd"></path></svg>