<svg width="12" height="12" viewBox="0 0 12 12" fill="none" xmlns="http://www.w3.org/2000/svg"><path d="M2.797 2.431 C 2.669 2.471,2.516 2.613,2.441 2.764 L 2.380 2.886 2.382 5.568 C 2.384 8.650,2.393 9.177,2.447 9.277 C 2.501 9.378,2.651 9.518,2.753 9.563 C 2.865 9.613,3.080 9.617,3.188 9.572 C 3.281 9.533,3.501 9.382,4.450 8.703 C 6.038 7.566,7.152 6.749,7.251 6.645 C 7.412 6.478,7.502 6.243,7.502 5.990 C 7.501 5.713,7.406 5.487,7.215 5.308 C 7.095 5.195,6.397 4.684,4.880 3.600 C 3.582 2.673,3.235 2.434,3.165 2.417 C 3.069 2.395,2.893 2.402,2.797 2.431 M8.850 3.018 C 8.703 3.056,8.535 3.196,8.469 3.335 C 8.415 3.448,8.403 3.984,8.401 6.408 L 8.400 8.526 8.469 8.648 C 8.601 8.883,8.778 9.002,9.000 9.003 C 9.262 9.004,9.466 8.868,9.580 8.615 C 9.618 8.532,9.619 8.457,9.619 6.000 L 9.620 3.470 9.571 3.366 C 9.514 3.243,9.382 3.105,9.270 3.050 C 9.183 3.008,8.954 2.991,8.850 3.018 M4.560 4.831 C 5.787 5.742,6.100 5.980,6.100 6.001 C 6.100 6.019,5.452 6.510,4.320 7.349 C 3.951 7.623,3.639 7.855,3.625 7.866 C 3.605 7.881,3.600 7.505,3.600 6.000 C 3.600 4.495,3.605 4.119,3.625 4.135 C 3.639 4.146,4.059 4.459,4.560 4.831 " fill="#1A1C1F" stroke="none" fill-rule="evenodd"></path></svg>