<svg xmlns="http://www.w3.org/2000/svg" width="16" height="16" fill="none"><g clip-path="url(#a)"><path fill="#1A1C1F" fill-rule="evenodd" d="M4.013 3.2c.156 0 .313.046.453.14L9.43 6.905c.36.25.579.656.579 1.094 0 .422-.22.844-.58 1.08l-4.993 3.595a.84.84 0 0 1-.745.067.79.79 0 0 1-.49-.739v-7.99c0-.407.313-.797.813-.813zm.782 2.282v5.035l3.377-2.518zm6.41 5.722v-6.41a.8.8 0 0 1 .797-.798.8.8 0 0 1 .797.798v6.41a.8.8 0 0 1-.796.798.8.8 0 0 1-.799-.798" clip-rule="evenodd"/></g><defs><clipPath id="a"><path fill="#fff" d="M0 0h16v16H0z"/></clipPath></defs></svg>