<svg xmlns="http://www.w3.org/2000/svg" width="12" height="12" fill="none"><g clip-path="url(#a)"><path fill="#1A1C1F" fill-rule="evenodd" d="M9 2.388A.614.614 0 0 1 9.612 3v6.012c0 .33-.259.6-.6.6a.63.63 0 0 1-.33-.094L4.925 6.812a.984.984 0 0 1 0-1.636L8.66 2.494A.6.6 0 0 1 9 2.388m-.588 1.718L5.87 6l2.542 1.894zM3.588 8.412V3.588c0-.33-.27-.6-.6-.6s-.6.27-.6.6v4.824c0 .33.27.6.6.6s.6-.27.6-.6" clip-rule="evenodd"/></g><defs><clipPath id="a"><path fill="#fff" d="M0 0h12v12H0z"/></clipPath></defs></svg>