<svg width="20" height="20" viewBox="0 0 20 20" fill="none" xmlns="http://www.w3.org/2000/svg"><path d="M14.641 4.068 C 14.511 4.120,13.248 5.012,10.450 7.029 C 8.342 8.548,7.926 8.869,7.774 9.097 C 7.572 9.399,7.517 9.591,7.517 9.983 C 7.517 10.625,7.698 10.935,8.362 11.434 C 9.398 12.210,12.511 14.459,13.926 15.454 C 14.496 15.854,14.632 15.935,14.788 15.968 C 15.252 16.064,15.692 15.843,15.916 15.402 L 16.000 15.236 16.000 10.010 L 16.000 4.784 15.910 4.605 C 15.797 4.384,15.550 4.157,15.344 4.086 C 15.175 4.029,14.765 4.018,14.641 4.068 M4.767 5.030 C 4.498 5.087,4.239 5.302,4.099 5.585 L 4.017 5.750 4.017 10.000 L 4.017 14.250 4.097 14.414 C 4.196 14.613,4.381 14.805,4.574 14.905 C 4.755 14.999,5.105 15.006,5.358 14.920 C 5.544 14.858,5.793 14.641,5.885 14.463 C 5.984 14.272,5.998 13.682,5.999 9.748 L 6.000 5.780 5.914 5.608 C 5.809 5.396,5.520 5.126,5.346 5.076 C 5.159 5.022,4.901 5.002,4.767 5.030 M13.992 10.000 C 13.992 11.219,13.983 12.416,13.971 12.660 L 13.950 13.103 13.800 12.994 C 12.949 12.373,9.833 10.028,9.833 10.007 C 9.833 9.975,10.729 9.294,12.600 7.901 L 13.950 6.897 13.971 7.340 C 13.983 7.584,13.992 8.781,13.992 10.000 " fill="#1A1C1F" stroke="none" fill-rule="evenodd"></path></svg>