<svg width="48" height="48" viewBox="0 0 48 48" fill="none" xmlns="http://www.w3.org/2000/svg"><path d="M11.475 9.110 C 10.618 9.334,9.742 10.079,9.349 10.917 C 9.152 11.340,9.089 11.608,9.035 12.263 C 8.948 13.315,8.947 34.565,9.034 35.695 C 9.116 36.761,9.383 37.393,10.017 38.027 C 10.601 38.611,11.227 38.896,12.029 38.944 C 13.070 39.006,13.317 38.912,15.422 37.647 C 17.891 36.164,24.280 32.205,28.480 29.557 C 33.982 26.088,33.729 26.275,34.182 25.362 C 34.423 24.877,34.440 24.789,34.440 24.000 C 34.440 23.209,34.424 23.124,34.178 22.624 C 33.752 21.760,33.727 21.741,28.640 18.536 C 22.564 14.707,14.292 9.648,13.542 9.303 C 13.088 9.094,11.945 8.987,11.475 9.110 M37.376 9.265 C 37.244 9.389,37.093 9.632,37.041 9.805 C 36.906 10.257,36.965 38.100,37.102 38.420 C 37.224 38.706,37.646 38.959,38.000 38.959 C 38.354 38.959,38.776 38.706,38.898 38.420 C 38.968 38.255,39.000 34.654,39.023 24.130 C 39.052 11.149,39.044 10.033,38.921 9.711 C 38.748 9.258,38.441 9.040,37.976 9.040 C 37.693 9.040,37.566 9.088,37.376 9.265 M13.052 11.266 C 13.921 11.724,29.039 21.069,31.006 22.364 C 31.625 22.772,32.196 23.204,32.275 23.324 C 32.627 23.860,32.500 24.562,31.974 24.992 C 31.790 25.142,30.434 25.999,28.960 26.898 C 25.208 29.185,23.073 30.507,18.200 33.558 C 12.871 36.895,12.758 36.960,12.324 36.960 C 11.863 36.960,11.479 36.762,11.261 36.411 L 11.080 36.120 11.080 23.960 L 11.080 11.800 11.257 11.551 C 11.647 11.006,12.347 10.894,13.052 11.266 " fill="#1A1C1F" stroke="none" fill-rule="evenodd"></path></svg>