<svg width="28" height="28" viewBox="0 0 28 28" fill="none" xmlns="http://www.w3.org/2000/svg"><path d="M7.162 6.290 C 6.797 6.467,6.482 6.786,6.291 7.175 L 6.137 7.488 6.123 13.958 C 6.110 20.382,6.111 20.430,6.206 20.679 C 6.480 21.400,7.113 21.855,7.838 21.853 C 8.424 21.851,8.413 21.857,11.293 19.864 C 15.353 17.055,17.712 15.370,17.941 15.117 C 18.237 14.789,18.359 14.463,18.359 14.000 C 18.359 13.550,18.242 13.224,17.969 12.914 C 17.794 12.714,13.597 9.718,9.855 7.122 C 8.614 6.261,8.473 6.193,7.887 6.171 C 7.475 6.156,7.423 6.164,7.162 6.290 M20.743 7.055 C 20.525 7.136,20.363 7.266,20.245 7.456 L 20.137 7.630 20.137 14.008 L 20.137 20.385 20.277 20.588 C 20.439 20.821,20.753 21.000,21.000 21.000 C 21.247 21.000,21.561 20.821,21.723 20.588 L 21.863 20.385 21.863 14.031 C 21.863 7.677,21.863 7.677,21.766 7.490 C 21.578 7.130,21.095 6.924,20.743 7.055 M12.227 10.928 C 14.370 12.428,16.212 13.718,16.320 13.793 C 16.428 13.868,16.517 13.953,16.518 13.981 C 16.521 14.072,15.615 14.724,10.788 18.103 C 9.239 19.187,7.958 20.060,7.941 20.043 C 7.924 20.026,7.904 17.282,7.896 13.944 L 7.882 7.876 8.106 8.038 C 8.229 8.127,10.084 9.427,12.227 10.928 " fill="#1A1C1F" stroke="none" fill-rule="evenodd"></path></svg>