<svg xmlns="http://www.w3.org/2000/svg" width="16" height="16" fill="none"><g clip-path="url(#a)"><path fill="#1A1C1F" fill-rule="evenodd" d="M12.8 12.003v-7.99a.816.816 0 0 0-.813-.814c-.162.001-.32.05-.453.14L6.57 6.906c-.36.25-.58.656-.58 1.094 0 .422.22.844.58 1.08l4.994 3.595a.84.84 0 0 0 .744.067.79.79 0 0 0 .491-.739zm-8.005-.799v-6.41a.8.8 0 0 0-.798-.798.8.8 0 0 0-.797.798v6.41a.8.8 0 0 0 .797.798.8.8 0 0 0 .798-.798" clip-rule="evenodd"/></g><defs><clipPath id="a"><path fill="#fff" d="M0 0h16v16H0z"/></clipPath></defs></svg>