<svg width="14" height="14" viewBox="0 0 14 14" fill="none" xmlns="http://www.w3.org/2000/svg"><path d="M4.958 3.522 C 4.540 3.536,4.538 3.536,4.364 3.617 C 4.167 3.709,3.974 3.855,3.831 4.020 C 3.702 4.169,3.631 4.295,3.566 4.492 L 3.512 4.655 3.512 7.000 L 3.512 9.345 3.568 9.517 C 3.706 9.935,4.065 10.294,4.483 10.432 L 4.655 10.488 7.000 10.488 L 9.345 10.488 9.517 10.432 C 9.930 10.296,10.282 9.947,10.424 9.532 L 10.488 9.345 10.488 7.000 L 10.488 4.655 10.432 4.483 C 10.300 4.083,9.946 3.718,9.555 3.580 C 9.468 3.550,9.323 3.535,8.983 3.522 C 8.459 3.501,5.582 3.502,4.958 3.522 " fill="#1A1C1F" stroke="none" fill-rule="evenodd"></path></svg>