<svg width="20" height="20" viewBox="0 0 20 20" fill="none" xmlns="http://www.w3.org/2000/svg"><path d="M7.083 5.031 L 6.483 5.050 6.223 5.175 C 5.929 5.315,5.859 5.364,5.603 5.610 C 5.365 5.840,5.196 6.104,5.098 6.404 L 5.017 6.650 5.017 10.000 L 5.017 13.350 5.098 13.596 C 5.293 14.188,5.812 14.707,6.404 14.902 L 6.650 14.983 10.017 14.983 L 13.383 14.983 13.626 14.895 C 13.952 14.775,14.144 14.646,14.422 14.359 C 14.691 14.079,14.798 13.909,14.906 13.583 L 14.983 13.350 14.983 10.000 L 14.983 6.650 14.902 6.404 C 14.714 5.833,14.208 5.311,13.650 5.115 C 13.527 5.072,13.317 5.050,12.850 5.031 C 12.130 5.002,7.991 5.002,7.083 5.031 " fill="#1A1C1F" stroke="none" fill-rule="evenodd"></path></svg>