<svg width="28" height="28" viewBox="0 0 28 28" fill="none" xmlns="http://www.w3.org/2000/svg"><path d="M9.796 7.277 L 9.021 7.303 8.658 7.488 C 8.211 7.715,7.720 8.175,7.536 8.540 C 7.465 8.681,7.357 8.942,7.297 9.120 L 7.187 9.443 7.187 14.000 L 7.187 18.557 7.297 18.880 C 7.460 19.361,7.621 19.651,7.886 19.940 C 8.202 20.286,8.524 20.492,9.022 20.668 L 9.434 20.813 14.000 20.813 L 18.566 20.813 18.978 20.668 C 19.874 20.352,20.382 19.826,20.703 18.880 L 20.813 18.557 20.813 14.000 L 20.813 9.443 20.703 9.120 C 20.433 8.325,20.013 7.822,19.343 7.491 L 18.970 7.307 18.153 7.273 C 17.210 7.235,10.945 7.238,9.796 7.277 " fill="#1A1C1F" stroke="none" fill-rule="evenodd"></path></svg>