<svg width="12" height="12" viewBox="0 0 12 12" fill="none" xmlns="http://www.w3.org/2000/svg"><path d="M4.150 3.020 C 3.841 3.033,3.756 3.057,3.544 3.193 C 3.301 3.348,3.135 3.571,3.029 3.884 L 2.980 4.027 2.980 6.000 L 2.980 7.973 3.029 8.116 C 3.179 8.558,3.487 8.861,3.902 8.974 C 4.020 9.007,4.186 9.009,5.970 9.009 C 7.389 9.009,7.945 9.003,8.040 8.985 C 8.418 8.915,8.796 8.587,8.941 8.203 C 8.978 8.106,8.987 8.021,9.004 7.600 C 9.031 6.939,9.012 4.092,8.980 3.930 C 8.916 3.603,8.651 3.278,8.310 3.108 C 8.180 3.044,8.149 3.037,7.900 3.020 C 7.609 3.000,4.611 3.000,4.150 3.020 M7.800 6.000 L 7.800 7.800 6.000 7.800 L 4.200 7.800 4.200 6.000 L 4.200 4.200 6.000 4.200 L 7.800 4.200 7.800 6.000 " fill="#1A1C1F" stroke="none" fill-rule="evenodd"></path></svg>