<svg width="16" height="16" viewBox="0 0 16 16" fill="none" xmlns="http://www.w3.org/2000/svg"><path d="M5.667 4.025 C 5.189 4.041,5.186 4.041,4.987 4.134 C 4.762 4.238,4.541 4.405,4.378 4.594 C 4.231 4.765,4.150 4.909,4.075 5.133 L 4.013 5.320 4.013 8.000 L 4.013 10.680 4.087 10.894 C 4.251 11.370,4.630 11.749,5.106 11.913 L 5.320 11.987 8.000 11.987 L 10.680 11.987 10.876 11.922 C 11.315 11.778,11.736 11.380,11.896 10.960 C 11.991 10.710,12.003 10.313,11.994 7.747 L 11.986 5.293 11.915 5.097 C 11.749 4.643,11.357 4.246,10.920 4.092 C 10.822 4.057,10.654 4.040,10.280 4.025 C 9.698 4.002,6.383 4.002,5.667 4.025 " fill="#1A1C1F" stroke="none" fill-rule="evenodd"></path></svg>