<svg width="28" height="28" viewBox="0 0 28 28" fill="none" xmlns="http://www.w3.org/2000/svg"><path d="M9.730 7.040 L 8.937 7.070 8.539 7.261 C 7.852 7.591,7.407 8.082,7.136 8.808 L 7.000 9.170 7.000 14.001 L 7.000 18.832 7.140 19.196 C 7.455 20.013,7.988 20.546,8.805 20.860 L 9.168 21.000 13.986 21.000 L 18.804 21.000 19.169 20.867 C 20.012 20.559,20.558 20.015,20.864 19.176 L 21.000 18.804 21.000 14.000 L 21.000 9.196 20.867 8.831 C 20.794 8.631,20.676 8.375,20.605 8.262 C 20.298 7.777,19.775 7.356,19.220 7.150 C 18.961 7.053,18.884 7.051,14.740 7.031 C 12.421 7.019,10.166 7.023,9.730 7.040 M18.751 8.839 C 18.894 8.914,19.097 9.121,19.174 9.272 C 19.212 9.345,19.227 10.672,19.227 13.999 C 19.227 19.034,19.242 18.740,18.962 19.000 C 18.649 19.291,18.969 19.273,14.000 19.273 C 9.031 19.273,9.351 19.291,9.038 19.000 C 8.758 18.740,8.773 19.034,8.773 14.000 C 8.773 10.110,8.784 9.355,8.839 9.249 C 8.911 9.112,9.115 8.910,9.263 8.828 C 9.330 8.791,10.702 8.776,13.991 8.775 C 17.891 8.774,18.645 8.784,18.751 8.839 " fill="#1A1C1F" stroke="none" fill-rule="evenodd"></path></svg>