<svg xmlns="http://www.w3.org/2000/svg" width="32" height="32" fill="none"><path fill="#1A1C1F" fill-rule="evenodd" d="M10.364 8.079A3.04 3.04 0 0 0 8.15 10.07l-.123.357v11.146l.123.357a3.13 3.13 0 0 0 1.92 1.92l.357.123h11.146l.357-.123a3.13 3.13 0 0 0 1.92-1.92l.123-.357V10.427l-.123-.357a3.14 3.14 0 0 0-1.926-1.924l-.351-.119-5.44-.01c-4.413-.008-5.502.004-5.769.062m11.152 2.076c.122.071.271.222.338.34l.119.213v10.584l-.119.213a1.1 1.1 0 0 1-.36.354l-.241.141H10.747l-.232-.133a1.1 1.1 0 0 1-.36-.351l-.128-.219V10.693l.126-.207c.069-.114.219-.264.333-.333l.207-.126h10.604z"/></svg>