<svg width="48" height="48" viewBox="0 0 48 48" fill="none" xmlns="http://www.w3.org/2000/svg"><path d="M13.800 11.112 C 13.120 11.155,12.936 11.197,12.572 11.398 C 12.047 11.688,11.521 12.260,11.224 12.865 L 11.000 13.320 11.000 24.000 L 11.000 34.680 11.235 35.160 C 11.535 35.774,12.226 36.465,12.840 36.765 L 13.320 37.000 24.000 37.000 L 34.680 37.000 35.160 36.765 C 35.774 36.465,36.465 35.774,36.765 35.160 L 37.000 34.680 37.000 24.000 L 37.000 13.320 36.776 12.865 C 36.445 12.190,35.920 11.649,35.297 11.342 L 34.764 11.080 24.682 11.071 C 19.137 11.066,14.240 11.084,13.800 11.112 M34.696 13.296 L 34.960 13.551 34.960 23.958 C 34.960 35.453,35.001 34.562,34.455 34.860 C 34.216 34.991,33.551 35.000,24.000 35.000 C 14.449 35.000,13.784 34.991,13.545 34.860 C 12.999 34.562,13.040 35.452,13.040 23.966 L 13.040 13.568 13.296 13.304 L 13.551 13.040 23.992 13.040 L 34.432 13.040 34.696 13.296 " fill="#1A1C1F" stroke="none" fill-rule="evenodd"></path></svg>