<svg width="12" height="12" viewBox="0 0 12 12" fill="none" xmlns="http://www.w3.org/2000/svg"><path d="M4.250 3.019 C 3.892 3.031,3.889 3.031,3.740 3.100 C 3.572 3.179,3.406 3.304,3.284 3.446 C 3.174 3.573,3.113 3.681,3.057 3.850 L 3.010 3.990 3.004 5.890 C 2.998 7.854,3.002 7.994,3.079 8.213 C 3.193 8.537,3.510 8.836,3.852 8.941 L 4.010 8.990 6.000 8.990 L 7.990 8.990 8.148 8.941 C 8.513 8.828,8.828 8.513,8.941 8.148 L 8.990 7.990 8.990 6.000 L 8.990 4.010 8.941 3.852 C 8.857 3.580,8.654 3.324,8.402 3.172 C 8.202 3.051,8.127 3.035,7.700 3.019 C 7.251 3.001,4.785 3.002,4.250 3.019 " fill="#1A1C1F" stroke="none" fill-rule="evenodd"></path></svg>