<svg xmlns="http://www.w3.org/2000/svg" width="28" height="28" fill="none"><g clip-path="url(#a)"><path fill="#1A1C1F" fill-rule="evenodd" d="M18.375 7A2.626 2.626 0 0 1 21 9.625v8.75A2.626 2.626 0 0 1 18.375 21h-8.75A2.626 2.626 0 0 1 7 18.375v-8.75A2.626 2.626 0 0 1 9.625 7zm0 1.75h-8.75a.864.864 0 0 0-.875.875v8.75c0 .492.383.875.875.875h8.75a.863.863 0 0 0 .875-.875v-8.75a.863.863 0 0 0-.875-.875" clip-rule="evenodd"/></g><defs><clipPath id="a"><path fill="#fff" d="M0 0h28v28H0z"/></clipPath></defs></svg>