<svg width="24" height="24" viewBox="0 0 24 24" fill="none" xmlns="http://www.w3.org/2000/svg"><path d="M9.600 6.040 L 8.300 6.061 7.979 6.190 C 7.531 6.370,7.098 6.666,6.771 7.016 C 6.469 7.340,6.273 7.693,6.114 8.200 L 6.020 8.500 6.020 12.000 L 6.020 15.500 6.114 15.800 C 6.284 16.346,6.499 16.702,6.898 17.102 C 7.298 17.501,7.654 17.716,8.200 17.886 L 8.500 17.980 12.000 17.980 L 15.500 17.980 15.800 17.886 C 16.346 17.716,16.702 17.501,17.102 17.102 C 17.501 16.702,17.716 16.346,17.886 15.800 L 17.980 15.500 17.980 12.000 L 17.980 8.500 17.886 8.200 C 17.835 8.035,17.720 7.761,17.632 7.590 C 17.238 6.831,16.340 6.174,15.569 6.080 C 15.205 6.036,11.461 6.011,9.600 6.040 M15.380 8.084 C 15.604 8.189,15.715 8.286,15.846 8.490 L 15.977 8.693 15.978 11.976 C 15.980 15.080,15.976 15.268,15.907 15.407 C 15.810 15.602,15.592 15.822,15.399 15.920 C 15.247 15.998,15.160 16.000,12.000 16.000 C 8.840 16.000,8.753 15.998,8.601 15.920 C 8.408 15.822,8.190 15.602,8.093 15.407 C 8.024 15.268,8.020 15.080,8.021 11.977 L 8.022 8.695 8.150 8.496 C 8.273 8.303,8.414 8.173,8.580 8.099 C 8.734 8.029,9.643 8.011,12.440 8.019 C 14.760 8.027,15.281 8.038,15.380 8.084 " fill="#1A1C1F" stroke="none" fill-rule="evenodd"></path></svg>