<svg width="32" height="32" viewBox="0 0 32 32" fill="none" xmlns="http://www.w3.org/2000/svg"><path d="M11.120 8.045 L 10.213 8.080 9.760 8.298 C 8.962 8.682,8.410 9.302,8.137 10.123 L 8.000 10.534 8.000 16.012 L 8.000 21.490 8.155 21.915 C 8.499 22.856,9.144 23.502,10.087 23.846 L 10.510 24.000 15.998 24.000 L 21.487 24.000 21.877 23.860 C 22.848 23.510,23.512 22.846,23.860 21.877 L 24.000 21.487 24.000 16.000 L 24.000 10.513 23.860 10.123 C 23.525 9.191,22.856 8.501,21.966 8.171 C 21.670 8.061,21.576 8.059,16.846 8.035 C 14.195 8.021,11.619 8.026,11.120 8.045 M21.540 10.188 C 21.663 10.277,21.811 10.427,21.868 10.522 C 21.970 10.689,21.973 10.821,21.973 15.989 C 21.973 21.754,21.991 21.417,21.671 21.714 C 21.313 22.047,21.680 22.027,15.989 22.026 L 10.800 22.025 10.589 21.905 C 10.473 21.840,10.299 21.682,10.202 21.556 L 10.027 21.325 10.027 16.020 C 10.027 11.557,10.039 10.692,10.102 10.571 C 10.184 10.414,10.417 10.183,10.587 10.089 C 10.662 10.047,12.235 10.029,16.005 10.028 L 21.317 10.027 21.540 10.188 " fill="#1A1C1F" stroke="none" fill-rule="evenodd"></path></svg>