<svg width="14" height="14" viewBox="0 0 14 14" fill="none" xmlns="http://www.w3.org/2000/svg"><path d="M3.150 2.824 C 2.768 2.831,2.431 2.849,2.392 2.862 C 2.255 2.910,2.040 3.031,1.933 3.121 C 1.697 3.319,1.555 3.522,1.466 3.792 L 1.412 3.955 1.412 7.000 C 1.412 9.915,1.414 10.050,1.455 10.173 C 1.620 10.656,1.944 10.980,2.427 11.145 C 2.550 11.187,2.717 11.188,7.012 11.188 L 11.468 11.188 11.637 11.127 C 11.877 11.039,12.003 10.959,12.181 10.781 C 12.359 10.603,12.439 10.477,12.527 10.237 L 12.588 10.068 12.588 7.000 L 12.588 3.932 12.527 3.763 C 12.493 3.670,12.436 3.545,12.401 3.485 C 12.314 3.337,12.080 3.108,11.911 3.006 C 11.643 2.844,11.618 2.840,10.792 2.821 C 9.906 2.802,4.138 2.804,3.150 2.824 M8.400 9.100 L 8.400 9.800 5.600 9.800 L 2.800 9.800 2.800 9.100 L 2.800 8.400 5.600 8.400 L 8.400 8.400 8.400 9.100 M11.177 9.100 L 11.177 9.800 10.488 9.800 L 9.800 9.800 9.800 9.100 L 9.800 8.400 10.488 8.400 L 11.177 8.400 11.177 9.100 " fill="#1A1C1F" stroke="none" fill-rule="evenodd"></path></svg>