<svg width="20" height="20" viewBox="0 0 20 20" fill="none" xmlns="http://www.w3.org/2000/svg"><path d="M4.467 4.032 L 3.483 4.050 3.223 4.175 C 2.929 4.315,2.859 4.364,2.603 4.610 C 2.365 4.840,2.196 5.104,2.098 5.404 L 2.017 5.650 2.017 10.017 L 2.017 14.383 2.113 14.633 C 2.353 15.257,2.775 15.674,3.389 15.891 L 3.650 15.983 10.017 15.983 L 16.383 15.983 16.624 15.895 C 16.966 15.770,17.147 15.655,17.401 15.401 C 17.655 15.147,17.770 14.966,17.895 14.624 L 17.983 14.383 17.983 10.000 L 17.983 5.617 17.895 5.376 C 17.847 5.243,17.766 5.065,17.716 4.979 C 17.591 4.767,17.257 4.439,17.016 4.294 C 16.632 4.062,16.597 4.056,15.417 4.031 C 14.190 4.004,5.935 4.004,4.467 4.032 M12.000 13.000 L 12.000 14.000 8.000 14.000 L 4.000 14.000 4.000 13.000 L 4.000 12.000 8.000 12.000 L 12.000 12.000 12.000 13.000 M15.967 13.000 L 15.967 14.000 14.983 14.000 L 14.000 14.000 14.000 13.000 L 14.000 12.000 14.983 12.000 L 15.967 12.000 15.967 13.000 " fill="#1A1C1F" stroke="none" fill-rule="evenodd"></path></svg>