<svg width="24" height="24" viewBox="0 0 24 24" fill="none" xmlns="http://www.w3.org/2000/svg"><path d="M5.000 5.036 C 3.886 5.061,3.854 5.064,3.613 5.167 C 2.895 5.473,2.299 6.121,2.094 6.820 C 2.028 7.042,2.022 7.421,2.010 11.990 L 1.996 16.920 2.100 17.209 C 2.253 17.632,2.387 17.857,2.669 18.161 C 2.982 18.499,3.282 18.701,3.720 18.868 L 4.060 18.997 11.988 18.999 L 19.915 19.000 20.208 18.896 C 20.616 18.750,20.888 18.588,21.182 18.312 C 21.504 18.011,21.704 17.710,21.868 17.280 L 21.997 16.940 21.999 12.012 L 22.000 7.085 21.896 6.792 C 21.750 6.384,21.588 6.113,21.314 5.820 C 21.035 5.522,20.680 5.281,20.316 5.144 L 20.052 5.045 13.096 5.027 C 9.270 5.018,5.627 5.021,5.000 5.036 M19.785 7.103 C 19.846 7.148,19.914 7.238,19.935 7.303 C 19.960 7.376,19.980 9.128,19.990 12.015 L 20.005 16.609 19.902 16.764 C 19.844 16.852,19.752 16.932,19.690 16.949 C 19.547 16.989,4.454 16.990,4.311 16.950 C 4.251 16.933,4.157 16.852,4.101 16.770 L 4.000 16.621 4.002 12.361 C 4.003 10.017,4.019 7.905,4.038 7.666 C 4.082 7.089,4.102 7.069,4.631 7.036 C 4.845 7.023,8.317 7.014,12.347 7.016 L 19.674 7.020 19.785 7.103 M6.932 13.036 C 6.653 13.059,6.578 13.081,6.432 13.186 C 6.337 13.254,6.206 13.396,6.141 13.500 C 6.037 13.667,6.022 13.726,6.025 13.975 C 6.031 14.423,6.188 14.704,6.540 14.894 C 6.700 14.980,6.708 14.980,9.481 14.980 L 12.262 14.980 12.457 14.879 C 12.679 14.765,12.893 14.490,12.964 14.227 C 13.077 13.805,12.848 13.333,12.421 13.107 C 12.262 13.024,12.223 13.022,9.760 13.015 C 8.385 13.012,7.112 13.021,6.932 13.036 M15.813 13.039 C 15.491 13.108,15.264 13.282,15.107 13.579 C 14.990 13.802,14.991 14.199,15.109 14.423 C 15.205 14.607,15.471 14.862,15.632 14.927 C 15.691 14.951,16.065 14.979,16.461 14.990 C 17.176 15.010,17.184 15.009,17.386 14.907 C 18.162 14.514,18.202 13.572,17.461 13.138 C 17.300 13.044,17.245 13.036,16.634 13.020 C 16.274 13.011,15.905 13.019,15.813 13.039 " fill="#1A1C1F" stroke="none" fill-rule="evenodd"></path></svg>