<svg xmlns="http://www.w3.org/2000/svg" width="32" height="32" fill="none"><g clip-path="url(#a)"><path fill="#1A1C1F" fill-rule="evenodd" d="M27 6c1.625 0 3 1.188 3 3v14c0 1.625-1.188 3-3 3H5c-1.594 0-3-1.25-3-2.813V9c0-1.594 1.188-3 3-3zm0 2H5c-.563 0-1 .375-1 1v14c0 .5.375 1 .875 1H27c.5 0 1-.313 1-1V9c0-.5-.313-1-1-1M7 20c0-.469.436-.984 1-.985L19 19c.563 0 1 .438 1 1 0 .5-.313 1-1 1H8c-.563 0-1-.438-1-1m0-4c0-.5.375-1 1-1h8c.563 0 1 .438 1 1 0 .5-.438 1-1 1H8c-.563 0-1-.438-1-1m12 0c0-.5.313-1 1-1h4c.563 0 1 .438 1 1 0 .5-.313 1-1 1h-4c-.563 0-1-.438-1-1m3 4c0-.5.438-1 1-1h1c.563 0 1 .438 1 1 0 .5-.438 1-1 1h-1c-.563 0-1-.438-1-1" clip-rule="evenodd"/></g><defs><clipPath id="a"><path fill="#fff" d="M0 0h32v32H0z"/></clipPath></defs></svg>