<svg width="12" height="12" viewBox="0 0 12 12" fill="none" xmlns="http://www.w3.org/2000/svg"><path d="M2.540 2.418 C 2.061 2.430,2.047 2.432,1.933 2.485 C 1.576 2.651,1.295 2.975,1.217 3.310 C 1.200 3.382,1.191 4.125,1.186 6.003 L 1.178 8.597 1.244 8.773 C 1.398 9.181,1.672 9.438,2.106 9.580 L 2.242 9.624 5.966 9.614 C 8.517 9.607,9.736 9.597,9.837 9.582 C 10.050 9.551,10.250 9.448,10.426 9.280 C 10.590 9.125,10.679 8.988,10.756 8.777 L 10.810 8.630 10.810 6.010 C 10.810 3.888,10.805 3.373,10.783 3.300 C 10.672 2.922,10.400 2.621,10.027 2.464 L 9.924 2.421 6.477 2.413 C 4.581 2.408,2.809 2.411,2.540 2.418 M9.600 6.010 L 9.600 8.420 6.000 8.420 L 2.400 8.420 2.400 6.010 L 2.400 3.600 6.000 3.600 L 9.600 3.600 9.600 6.010 M3.580 7.200 L 3.580 7.800 4.790 7.800 L 6.000 7.800 6.000 7.200 L 6.000 6.600 4.790 6.600 L 3.580 6.600 3.580 7.200 M7.200 7.200 L 7.200 7.800 7.810 7.800 L 8.420 7.800 8.420 7.200 L 8.420 6.600 7.810 6.600 L 7.200 6.600 7.200 7.200 " fill="#1A1C1F" stroke="none" fill-rule="evenodd"></path></svg>