<svg width="32" height="32" viewBox="0 0 32 32" fill="none" xmlns="http://www.w3.org/2000/svg"><path d="M5.173 6.079 C 4.296 6.106,4.091 6.128,3.862 6.220 C 3.148 6.509,2.514 7.153,2.199 7.911 C 2.067 8.228,2.061 8.297,2.014 9.867 C 1.988 10.761,1.977 14.217,1.989 17.547 C 2.012 23.520,2.014 23.605,2.124 23.947 C 2.411 24.833,3.087 25.489,4.083 25.845 L 4.591 26.027 16.020 26.027 L 27.448 26.027 27.817 25.901 C 28.429 25.693,28.753 25.499,29.129 25.117 C 29.498 24.743,29.798 24.219,29.922 23.733 C 29.966 23.561,29.991 21.405,30.011 16.046 L 30.039 8.598 29.919 8.232 C 29.616 7.314,29.105 6.690,28.349 6.316 L 27.956 6.122 26.871 6.077 C 25.665 6.027,6.813 6.029,5.173 6.079 M27.490 8.137 C 27.883 8.343,27.902 8.400,27.957 9.556 C 27.984 10.123,27.999 13.456,27.990 16.964 L 27.973 23.341 27.823 23.568 C 27.529 24.013,28.676 23.973,15.973 23.973 C 4.801 23.973,4.665 23.972,4.492 23.868 C 4.396 23.810,4.253 23.669,4.174 23.556 L 4.031 23.349 4.029 16.035 C 4.027 8.989,4.030 8.713,4.127 8.519 C 4.308 8.154,4.470 8.084,5.227 8.048 C 5.593 8.031,10.705 8.019,16.587 8.022 L 27.280 8.027 27.490 8.137 M8.742 15.038 C 7.594 15.067,7.591 15.067,7.403 15.210 C 6.899 15.595,6.890 16.398,7.386 16.776 C 7.479 16.848,7.683 16.930,7.839 16.960 C 8.012 16.993,9.683 17.013,12.176 17.013 L 16.231 17.013 16.461 16.879 C 16.959 16.587,17.137 15.926,16.838 15.475 C 16.562 15.058,16.630 15.071,14.536 15.032 C 12.442 14.993,10.457 14.995,8.742 15.038 M20.182 15.032 C 19.645 15.064,19.574 15.080,19.396 15.216 C 18.832 15.647,18.894 16.481,19.519 16.870 C 19.704 16.985,19.734 16.987,22.000 16.987 C 24.065 16.987,24.310 16.978,24.460 16.895 C 24.849 16.682,25.077 16.167,24.965 15.753 C 24.885 15.458,24.621 15.160,24.384 15.097 C 24.141 15.033,20.994 14.984,20.182 15.032 M22.823 19.033 C 22.604 19.080,22.290 19.303,22.156 19.507 C 21.918 19.871,21.987 20.369,22.322 20.704 C 22.589 20.971,22.851 21.031,23.641 21.004 C 24.412 20.979,24.600 20.898,24.839 20.491 C 25.045 20.139,25.040 19.766,24.824 19.455 C 24.589 19.118,24.404 19.049,23.653 19.018 C 23.301 19.003,22.928 19.010,22.823 19.033 M8.283 19.090 C 7.536 19.120,7.525 19.122,7.363 19.277 C 7.107 19.523,6.967 19.857,7.009 20.123 C 7.055 20.414,7.248 20.702,7.503 20.860 L 7.707 20.987 13.467 20.987 C 19.926 20.987,19.519 21.012,19.808 20.600 C 19.946 20.402,19.968 20.324,19.970 20.005 C 19.973 19.672,19.958 19.617,19.812 19.437 C 19.723 19.328,19.568 19.193,19.466 19.139 C 19.290 19.044,19.058 19.040,14.161 19.050 C 11.344 19.056,8.699 19.074,8.283 19.090 " fill="#1A1C1F" stroke="none" fill-rule="evenodd"></path></svg>