<svg width="12" height="12" viewBox="0 0 12 12" fill="none" xmlns="http://www.w3.org/2000/svg"><path d="M2.710 2.420 C 2.356 2.427,2.084 2.441,2.046 2.454 C 1.767 2.551,1.482 2.790,1.357 3.031 C 1.197 3.340,1.210 3.072,1.210 6.010 L 1.210 8.630 1.268 8.780 C 1.409 9.149,1.651 9.391,2.020 9.532 L 2.170 9.590 5.970 9.590 C 9.106 9.590,9.789 9.585,9.880 9.563 C 10.088 9.511,10.270 9.409,10.426 9.254 C 10.591 9.092,10.660 8.985,10.737 8.775 L 10.790 8.630 10.790 6.000 L 10.790 3.370 10.737 3.225 C 10.665 3.028,10.598 2.919,10.464 2.782 C 10.324 2.640,10.167 2.534,10.009 2.476 C 9.899 2.435,9.842 2.431,9.230 2.418 C 8.441 2.402,3.562 2.403,2.710 2.420 M7.200 7.800 L 7.200 8.400 4.800 8.400 L 2.400 8.400 2.400 7.800 L 2.400 7.200 4.800 7.200 L 7.200 7.200 7.200 7.800 M9.580 7.800 L 9.580 8.400 8.990 8.400 L 8.400 8.400 8.400 7.800 L 8.400 7.200 8.990 7.200 L 9.580 7.200 9.580 7.800 " fill="#1A1C1F" stroke="none" fill-rule="evenodd"></path></svg>