<svg width="28" height="28" viewBox="0 0 28 28" fill="none" xmlns="http://www.w3.org/2000/svg"><path d="M4.597 5.319 C 3.617 5.344,3.558 5.351,3.313 5.467 C 2.703 5.754,2.180 6.299,1.930 6.907 C 1.809 7.202,1.804 7.248,1.762 8.610 C 1.739 9.380,1.730 12.415,1.742 15.353 C 1.765 20.629,1.766 20.700,1.863 20.973 C 2.141 21.759,2.714 22.305,3.597 22.627 L 3.997 22.773 14.007 22.773 L 24.017 22.773 24.340 22.663 C 24.875 22.481,25.159 22.312,25.488 21.978 C 25.811 21.650,26.073 21.192,26.182 20.767 C 26.221 20.615,26.242 18.740,26.260 14.040 L 26.284 7.522 26.179 7.203 C 25.914 6.400,25.467 5.853,24.805 5.526 L 24.462 5.357 23.512 5.317 C 22.471 5.274,6.247 5.275,4.597 5.319 M24.111 7.148 C 24.214 7.216,24.339 7.352,24.388 7.451 C 24.474 7.624,24.477 7.829,24.477 14.027 L 24.477 20.423 24.345 20.622 C 24.088 21.011,25.091 20.977,13.977 20.977 C 4.201 20.977,4.082 20.976,3.931 20.884 C 3.847 20.834,3.721 20.710,3.651 20.609 L 3.525 20.427 3.524 14.028 C 3.523 7.867,3.527 7.623,3.611 7.454 C 3.770 7.134,3.911 7.074,4.573 7.042 C 4.894 7.027,9.379 7.016,14.540 7.019 L 23.924 7.023 24.111 7.148 M7.650 13.154 C 6.648 13.183,6.642 13.184,6.478 13.309 C 6.006 13.669,6.032 14.371,6.530 14.723 L 6.728 14.863 10.462 14.877 L 14.196 14.890 14.400 14.770 C 14.615 14.645,14.808 14.368,14.862 14.109 C 14.936 13.750,14.651 13.285,14.310 13.208 C 14.082 13.157,8.993 13.116,7.650 13.154 M17.518 13.154 C 17.201 13.181,17.110 13.208,16.964 13.320 C 16.726 13.501,16.594 13.808,16.631 14.089 C 16.666 14.347,16.858 14.637,17.081 14.768 C 17.236 14.859,17.328 14.864,19.070 14.878 C 21.209 14.896,21.363 14.880,21.615 14.612 C 22.023 14.180,21.920 13.510,21.404 13.244 C 21.218 13.148,21.145 13.144,19.553 13.133 C 18.642 13.127,17.726 13.136,17.518 13.154 M19.960 16.655 C 19.582 16.735,19.256 17.144,19.262 17.533 C 19.266 17.811,19.467 18.135,19.717 18.266 C 19.881 18.352,19.984 18.363,20.580 18.363 C 21.208 18.363,21.269 18.355,21.432 18.254 C 21.620 18.138,21.812 17.850,21.862 17.609 C 21.929 17.287,21.698 16.853,21.393 16.725 C 21.215 16.651,20.211 16.602,19.960 16.655 M7.271 16.704 C 6.591 16.730,6.585 16.731,6.443 16.867 C 6.266 17.037,6.113 17.344,6.114 17.526 C 6.116 17.737,6.272 18.034,6.454 18.173 C 6.564 18.257,6.717 18.314,6.914 18.344 C 7.099 18.373,9.031 18.385,12.040 18.377 C 16.682 18.364,16.877 18.360,17.049 18.274 C 17.327 18.136,17.477 17.873,17.477 17.519 C 17.477 17.271,17.456 17.199,17.337 17.031 C 17.053 16.630,17.448 16.659,12.414 16.669 C 9.962 16.674,7.648 16.690,7.271 16.704 " fill="#1A1C1F" stroke="none" fill-rule="evenodd"></path></svg>