<svg xmlns="http://www.w3.org/2000/svg" width="32" height="32" fill="none"><path fill="#1A1C1F" fill-rule="evenodd" d="M4.133 6.126a2.8 2.8 0 0 0-1.254.753 2.96 2.96 0 0 0-.785 1.34C2.006 8.537 2 9.059 2 16.08c0 7.233.004 7.531.101 7.813.164.479.33.767.629 1.096a3.14 3.14 0 0 0 1.346.865l.431.146h23.04l.413-.141a2.77 2.77 0 0 0 1.227-.783c.328-.345.583-.805.721-1.304.085-.307.092-.898.092-7.825V8.453l-.141-.413a3.8 3.8 0 0 0-.311-.678c-.23-.359-.744-.825-1.117-1.013-.684-.345.204-.323-12.465-.319-10.733.004-11.534.01-11.833.096M27.44 8.1c.117.054.258.148.312.209.25.281.243.077.246 7.706.002 6.352-.008 7.211-.08 7.385-.111.264-.224.383-.478.5-.205.094-.661.098-11.467.099-10.608.001-11.264-.005-11.438-.092a1.2 1.2 0 0 1-.347-.325l-.161-.231-.016-7.236c-.011-4.927.002-7.297.04-7.428a.9.9 0 0 1 .505-.586c.209-.095.629-.099 11.444-.099 10.781 0 11.235.004 11.44.098m-19.7 6.939c-.523.126-.844.693-.699 1.233.08.297.386.605.678.684.157.042 1.441.056 4.398.045l4.176-.014.199-.124c.537-.334.665-1.037.274-1.502-.31-.369-.023-.347-4.659-.356-2.303-.005-4.268.011-4.367.034m12.012-.003c-.562.139-.865.662-.712 1.231.08.296.383.608.668.687.302.084 4.372.081 4.617-.003.268-.092.413-.208.526-.42.216-.409.184-.85-.085-1.17-.298-.354-.246-.347-2.659-.357-1.203-.005-2.262.009-2.355.032m-8.872 4.002c-2.384.021-3.256.046-3.339.093-.182.104-.431.417-.501.628-.158.479.171 1.057.682 1.199.131.036 2.11.054 5.825.052 6.366-.003 5.955.024 6.264-.415.142-.203.162-.276.162-.595 0-.327-.016-.384-.165-.568a1.6 1.6 0 0 0-.347-.312c-.174-.103-.279-.107-2.768-.109-1.422-.001-4.038.011-5.813.027m11.813.026c-.269.099-.588.435-.66.697-.135.489.2 1.068.695 1.201.135.037.5.054.897.043.588-.016.692-.033.867-.142.537-.334.665-1.037.274-1.502-.246-.292-.403-.34-1.166-.359-.513-.012-.749.004-.907.062"/></svg>