<svg width="16" height="16" viewBox="0 0 16 16" fill="none" xmlns="http://www.w3.org/2000/svg"><path d="M3.600 3.227 C 3.139 3.236,2.778 3.255,2.728 3.272 C 2.356 3.402,1.976 3.719,1.809 4.042 C 1.596 4.453,1.613 4.096,1.613 8.013 L 1.613 11.507 1.690 11.707 C 1.879 12.198,2.202 12.521,2.693 12.710 L 2.893 12.787 7.987 12.787 L 13.080 12.787 13.293 12.714 C 13.557 12.625,13.723 12.521,13.922 12.322 C 14.121 12.123,14.225 11.957,14.314 11.693 L 14.387 11.480 14.387 8.000 L 14.387 4.520 14.312 4.304 C 14.272 4.185,14.201 4.029,14.156 3.958 C 14.043 3.779,13.795 3.543,13.602 3.430 C 13.292 3.248,13.273 3.245,12.333 3.224 C 11.322 3.202,4.729 3.204,3.600 3.227 M12.800 8.000 L 12.800 11.200 8.000 11.200 L 3.200 11.200 3.200 8.000 L 3.200 4.800 8.000 4.800 L 12.800 4.800 12.800 8.000 M4.800 9.600 L 4.800 10.400 6.400 10.400 L 8.000 10.400 8.000 9.600 L 8.000 8.800 6.400 8.800 L 4.800 8.800 4.800 9.600 M9.600 9.600 L 9.600 10.400 10.400 10.400 L 11.200 10.400 11.200 9.600 L 11.200 8.800 10.400 8.800 L 9.600 8.800 9.600 9.600 " fill="#1A1C1F" stroke="none" fill-rule="evenodd"></path></svg>