<svg xmlns="http://www.w3.org/2000/svg" width="28" height="28" fill="none"><g clip-path="url(#a)"><path fill="#1A1C1F" fill-rule="evenodd" d="M23.625 5.25c1.422 0 2.625 1.04 2.625 2.626v12.25c0 1.421-1.04 2.624-2.625 2.624H4.375c-1.395 0-2.625-1.093-2.625-2.46V7.876c0-1.395 1.04-2.625 2.625-2.625zm0 1.75H4.375c-.492 0-.875.329-.875.876v12.25c0 .438.328.874.766.874h19.359c.438 0 .875-.273.875-.875V7.875c0-.437-.273-.874-.875-.874m-17.5 10.5c0-.41.382-.86.875-.861l9.625-.014c.492 0 .875.384.875.875 0 .439-.273.875-.875.875H7a.863.863 0 0 1-.875-.875m0-3.5c0-.437.328-.874.875-.874h7c.492 0 .875.383.875.875 0 .438-.383.875-.875.875H7A.863.863 0 0 1 6.125 14m10.5 0c0-.437.273-.874.875-.874H21c.492 0 .875.383.875.875 0 .438-.273.875-.875.875h-3.5a.863.863 0 0 1-.875-.875m2.625 3.5c0-.437.383-.875.875-.875H21c.492 0 .875.384.875.875 0 .439-.383.875-.875.875h-.875a.863.863 0 0 1-.875-.875" clip-rule="evenodd"/></g><defs><clipPath id="a"><path fill="#fff" d="M0 0h28v28H0z"/></clipPath></defs></svg>