<svg width="16" height="16" viewBox="0 0 16 16" fill="none" xmlns="http://www.w3.org/2000/svg"><path d="M3.573 3.225 L 2.787 3.240 2.556 3.351 C 2.387 3.432,2.272 3.512,2.124 3.653 C 1.888 3.877,1.781 4.034,1.684 4.300 L 1.613 4.493 1.613 8.000 L 1.613 11.507 1.690 11.707 C 1.879 12.198,2.202 12.521,2.693 12.710 L 2.893 12.787 7.987 12.787 L 13.080 12.787 13.293 12.714 C 13.557 12.625,13.723 12.521,13.922 12.322 C 14.121 12.123,14.225 11.957,14.314 11.693 L 14.387 11.480 14.387 8.000 L 14.387 4.520 14.312 4.304 C 14.272 4.185,14.201 4.029,14.156 3.958 C 14.043 3.779,13.795 3.543,13.602 3.430 C 13.292 3.248,13.273 3.245,12.333 3.224 C 11.352 3.203,4.748 3.204,3.573 3.225 M9.600 10.400 L 9.600 11.200 6.400 11.200 L 3.200 11.200 3.200 10.400 L 3.200 9.600 6.400 9.600 L 9.600 9.600 9.600 10.400 M12.773 10.400 L 12.773 11.200 11.987 11.200 L 11.200 11.200 11.200 10.400 L 11.200 9.600 11.987 9.600 L 12.773 9.600 12.773 10.400 " fill="#1A1C1F" stroke="none" fill-rule="evenodd"></path></svg>