<svg xmlns="http://www.w3.org/2000/svg" width="20" height="20" fill="none"><path fill="#1A1C1F" fill-rule="evenodd" d="M3.572 4.051c-.358.078-.69.265-.972.548a1.84 1.84 0 0 0-.534.921C2.002 5.77 2 5.904 2 10c0 4.112.002 4.23.067 4.483q.133.522.53.92.398.397.92.53c.256.066.372.067 6.483.067 6.04 0 6.23-.002 6.474-.064.39-.1.642-.244.93-.532a1.83 1.83 0 0 0 .532-.93c.062-.242.064-.41.064-4.474s-.002-4.232-.064-4.474c-.1-.39-.244-.642-.532-.929a1.9 1.9 0 0 0-.987-.547c-.338-.071-12.518-.07-12.845.001M12 13v1H4v-2h8zm3.967 0v1H14v-2h1.967z"/></svg>