<svg xmlns="http://www.w3.org/2000/svg" width="28" height="28" fill="none"><g clip-path="url(#a)"><path fill="#1A1C1F" fill-rule="evenodd" d="M23.625 3.5c.478 0 .875.35.875.875a.88.88 0 0 1-.246.622L4.997 24.247a.87.87 0 0 1-.622.253.853.853 0 0 1-.875-.875c0-.226.078-.455.246-.622l4.266-4.245-.465-.383H4.375A2.626 2.626 0 0 1 1.75 15.75v-3.5a2.626 2.626 0 0 1 2.625-2.625h3.172l5.031-4.188a.82.82 0 0 1 .529-.19.87.87 0 0 1 .893.878v6.645l3.254-3.282A.86.86 0 0 1 17.84 8c.151 0 .316.037.452.122l.219.137 1.914-1.914-.547-.328c-.287-.173-.45-.45-.45-.752 0-.473.379-.895.876-.895.145 0 .292.034.422.115l.957.602 1.32-1.333a.86.86 0 0 1 .621-.253zM12.25 7.984l-3.8 3.2c-.17.115-.37.181-.575.19h-3.5a.863.863 0 0 0-.875.876v3.5c0 .492.383.875.875.875h3.5c.191 0 .41.082.574.19l.793.685 3.008-2.98zM10.719 21l1.862 1.558a.87.87 0 0 0 1.42-.683L14 17.745zm6.255-1.87c0 .475.413.886.881.886a.94.94 0 0 0 .439-.136c2.296-1.316 3.581-3.392 3.581-5.88 0-1.203-.3-2.297-.875-3.281l-1.285 1.312c.275.62.415 1.29.41 1.969 0 2.352-1.477 3.67-2.709 4.372a.88.88 0 0 0-.442.758m2.455 3.606c0 .496.4.889.887.889a.8.8 0 0 0 .411-.108A10.94 10.94 0 0 0 26.25 14c0-2.352-.766-4.566-2.105-6.426l-1.258 1.258A9.04 9.04 0 0 1 24.5 14c0 3.309-1.777 6.372-4.621 7.984a.86.86 0 0 0-.45.752" clip-rule="evenodd"/></g><defs><clipPath id="a"><path fill="#fff" d="M0 0h28v28H0z"/></clipPath></defs></svg>