<svg xmlns="http://www.w3.org/2000/svg" width="20" height="20" fill="none"><g clip-path="url(#a)"><path fill="#1A1C1F" fill-rule="evenodd" d="M11.018 4c.564 0 1.003.469 1.003 1v10c0 .563-.439 1-1.003 1-.188 0-.376-.063-.532-.156L7.728 14h-.72C5.348 14 4 12.656 4 11.031v-2C4 7.375 5.347 6 7.008 6h.72l2.758-1.813A.85.85 0 0 1 11.018 4m-1.002 2.875-1.442.969c-.17.103-.365.157-.564.156H7.008c-.564 0-1.003.469-1.003 1v2c0 .563.439 1 1.003 1H8.01c.22 0 .408.094.564.188l1.442.937zM12.992 12c0-1 1.003-1 1.003-1.969 0-1-1.003-1-1.003-2 0-.5.501-1.031 1.003-1.031C14.997 7 16 8.5 16 10.031c0 1.5-1.003 3-2.005 3-.502 0-1.003-.5-1.003-1.031" clip-rule="evenodd"/></g><defs><clipPath id="a"><path fill="#fff" d="M0 0h20v20H0z"/></clipPath></defs></svg>