<svg xmlns="http://www.w3.org/2000/svg" width="32" height="32" fill="none"><g clip-path="url(#a)"><path fill="#1A1C1F" fill-rule="evenodd" d="M22 6c.5 0 1 .406 1 1v18c0 .593-.5 1-1 1a.96.96 0 0 1-.625-.22L15.625 21H12c-1.594 0-3-1.25-3-2.813V14a3 3 0 0 1 3-3h3.625l5.75-4.781A.96.96 0 0 1 22 6m-1 3.125-4.375 3.655A1.1 1.1 0 0 1 16 13h-4c-.563 0-1 .437-1 1v4c0 .562.438 1 1 1h4c.219 0 .469.093.625.218L21 22.875z" clip-rule="evenodd"/></g><defs><clipPath id="a"><path fill="#fff" d="M0 0h32v32H0z"/></clipPath></defs></svg>