<svg xmlns="http://www.w3.org/2000/svg" width="14" height="14" fill="none"><g clip-path="url(#a)"><path fill="#1A1C1F" fill-rule="evenodd" d="M7.713 2.8c.395 0 .702.328.702.7v7c0 .394-.307.7-.702.7a.74.74 0 0 1-.373-.11L5.41 9.8h-.505C3.743 9.8 2.8 8.86 2.8 7.722v-1.4c0-1.16.943-2.122 2.105-2.122h.505l1.93-1.269a.6.6 0 0 1 .373-.13M7.01 4.813l-1.009.678a.76.76 0 0 1-.395.11h-.702a.706.706 0 0 0-.701.699v1.4c0 .394.307.7.701.7h.702c.154 0 .285.066.395.131l1.009.656zM9.095 8.4c0-.7.701-.7.701-1.378 0-.7-.701-.7-.701-1.4 0-.35.35-.722.701-.722.702 0 1.404 1.05 1.404 2.122 0 1.05-.702 2.1-1.404 2.1-.35 0-.701-.35-.701-.722" clip-rule="evenodd"/></g><defs><clipPath id="a"><path fill="#fff" d="M0 0h14v14H0z"/></clipPath></defs></svg>