<svg xmlns="http://www.w3.org/2000/svg" width="16" height="16" fill="none"><g clip-path="url(#a)"><path fill="#1A1C1F" fill-rule="evenodd" d="M7.2 3.2c.45 0 .8.375.8.8v8c0 .45-.35.8-.8.8-.15 0-.3-.05-.425-.125l-2.2-1.475H4c-1.325 0-2.4-1.075-2.4-2.375v-1.6C1.6 5.9 2.675 4.8 4 4.8h.575l2.2-1.45c.125-.1.275-.15.425-.15m-.8 2.3-1.15.775a.86.86 0 0 1-.45.125H4c-.45 0-.8.375-.8.8v1.6c0 .45.35.8.8.8h.8q.263 0 .45.15l1.15.75zm3.2 4.875c.8 0 1.6-1.2 1.6-2.4S10.4 5.6 9.6 5.6c-.4 0-.8.375-.8.8 0 .775.8.775.8 1.575s-.8.8-.8 1.6c0 .4.4.8.8.8m1.6 3.225c.2 0 .375-.075.525-.2A7.41 7.41 0 0 0 14.4 7.95c0-1.8-.975-3.725-2.65-5.325a.78.78 0 0 0-.55-.225c-.425 0-.8.375-.8.8 0 .225.1.45.25.6C12 5.05 12.8 6.625 12.8 7.95a5.86 5.86 0 0 1-2.125 4.25.8.8 0 0 0-.275.6c0 .45.375.8.8.8" clip-rule="evenodd"/></g><defs><clipPath id="a"><path fill="#fff" d="M0 0h16v16H0z"/></clipPath></defs></svg>