<svg width="12" height="12" viewBox="0 0 12 12" fill="none" xmlns="http://www.w3.org/2000/svg"><path d="M8.166 1.851 C 7.951 1.958,7.811 2.176,7.812 2.402 C 7.812 2.604,7.872 2.705,8.185 3.033 C 8.513 3.377,8.657 3.552,8.868 3.865 C 9.223 4.393,9.452 4.919,9.553 5.436 C 9.600 5.676,9.599 6.221,9.553 6.480 C 9.421 7.211,9.150 7.836,8.713 8.420 C 8.635 8.524,8.415 8.769,8.225 8.963 C 8.019 9.174,7.868 9.345,7.849 9.389 C 7.812 9.478,7.808 9.692,7.841 9.794 C 7.940 10.096,8.260 10.275,8.552 10.190 C 8.717 10.142,8.813 10.069,9.133 9.746 C 9.495 9.382,9.685 9.154,9.894 8.837 C 10.472 7.961,10.800 6.912,10.800 5.943 C 10.800 5.583,10.779 5.385,10.707 5.060 C 10.508 4.161,10.017 3.269,9.234 2.384 C 8.983 2.100,8.779 1.913,8.651 1.849 C 8.510 1.779,8.308 1.780,8.166 1.851 M5.261 2.413 C 5.204 2.425,5.032 2.535,4.093 3.154 L 3.415 3.600 3.213 3.600 C 2.661 3.601,2.385 3.664,2.067 3.860 C 1.666 4.106,1.408 4.448,1.250 4.940 C 1.196 5.108,1.195 5.116,1.186 5.800 C 1.172 6.802,1.197 7.027,1.361 7.370 C 1.551 7.767,1.897 8.102,2.285 8.265 C 2.497 8.354,2.746 8.398,3.120 8.413 L 3.450 8.427 4.269 8.976 C 4.719 9.278,5.128 9.543,5.176 9.565 C 5.441 9.682,5.791 9.547,5.936 9.272 L 5.990 9.170 5.996 6.210 C 6.001 3.242,5.994 2.824,5.933 2.705 C 5.893 2.629,5.763 2.513,5.656 2.458 C 5.570 2.414,5.367 2.391,5.261 2.413 M4.796 6.303 C 4.792 7.147,4.784 7.843,4.777 7.849 C 4.771 7.856,4.569 7.734,4.330 7.578 C 4.090 7.423,3.855 7.278,3.806 7.256 C 3.731 7.223,3.655 7.216,3.274 7.206 C 2.889 7.196,2.820 7.189,2.753 7.156 C 2.647 7.102,2.505 6.968,2.453 6.871 C 2.411 6.792,2.410 6.772,2.410 6.010 C 2.410 5.231,2.410 5.230,2.457 5.140 C 2.520 5.018,2.611 4.926,2.727 4.867 C 2.819 4.820,2.850 4.816,3.287 4.801 C 3.625 4.789,3.769 4.777,3.820 4.755 C 3.859 4.739,4.088 4.594,4.330 4.433 L 4.770 4.141 4.786 4.456 C 4.795 4.629,4.799 5.460,4.796 6.303 M7.034 4.228 C 6.873 4.288,6.737 4.410,6.656 4.568 C 6.622 4.632,6.613 4.685,6.614 4.810 C 6.615 5.021,6.651 5.093,6.893 5.368 C 7.143 5.652,7.180 5.731,7.180 5.982 C 7.180 6.155,7.174 6.185,7.121 6.292 C 7.088 6.357,6.999 6.479,6.923 6.564 C 6.729 6.778,6.665 6.878,6.625 7.028 C 6.581 7.197,6.608 7.343,6.712 7.495 C 6.821 7.652,6.951 7.739,7.115 7.765 C 7.385 7.806,7.588 7.715,7.854 7.434 C 8.181 7.088,8.369 6.613,8.393 6.070 C 8.420 5.470,8.230 4.941,7.842 4.535 C 7.711 4.398,7.641 4.343,7.532 4.289 C 7.362 4.207,7.158 4.181,7.034 4.228 " fill="#1A1C1F" stroke="none" fill-rule="evenodd"></path></svg>