<svg width="28" height="28" viewBox="0 0 28 28" fill="none" xmlns="http://www.w3.org/2000/svg"><path d="M18.886 5.339 C 18.737 5.420,18.039 5.990,15.498 8.108 L 13.706 9.601 11.905 9.626 C 10.438 9.646,10.052 9.665,9.827 9.727 C 9.016 9.950,8.345 10.566,8.036 11.369 L 7.912 11.690 7.896 13.789 C 7.879 16.142,7.903 16.479,8.122 16.926 C 8.363 17.418,8.957 17.952,9.517 18.179 C 9.930 18.347,10.429 18.387,12.132 18.387 L 13.697 18.388 15.353 19.771 C 17.779 21.795,18.746 22.585,18.889 22.660 C 19.205 22.824,19.715 22.680,19.973 22.353 L 20.115 22.174 20.103 14.015 L 20.090 5.857 19.983 5.684 C 19.924 5.589,19.802 5.466,19.713 5.411 C 19.500 5.279,19.065 5.242,18.886 5.339 M18.362 8.832 C 18.403 9.793,18.375 19.861,18.331 19.905 C 18.298 19.937,17.830 19.561,15.775 17.855 C 15.198 17.376,14.613 16.906,14.474 16.811 L 14.223 16.637 12.233 16.612 C 10.935 16.595,10.202 16.568,10.124 16.534 C 9.976 16.470,9.717 16.181,9.682 16.040 C 9.667 15.982,9.662 15.021,9.669 13.904 C 9.685 11.640,9.671 11.736,10.015 11.524 C 10.186 11.418,10.209 11.416,12.199 11.387 C 13.725 11.365,14.238 11.343,14.327 11.296 C 14.478 11.216,15.440 10.439,17.010 9.128 C 17.703 8.550,18.284 8.075,18.300 8.075 C 18.317 8.074,18.345 8.415,18.362 8.832 " fill="#1A1C1F" stroke="none" fill-rule="evenodd"></path></svg>