<svg width="16" height="16" viewBox="0 0 16 16" fill="none" xmlns="http://www.w3.org/2000/svg"><path d="M10.979 2.437 C 10.765 2.516,10.584 2.678,10.474 2.890 C 10.430 2.973,10.416 3.049,10.416 3.200 C 10.415 3.483,10.473 3.586,10.889 4.030 C 11.080 4.234,11.325 4.512,11.434 4.647 C 12.075 5.445,12.541 6.388,12.722 7.253 C 12.919 8.195,12.622 9.577,11.991 10.647 C 11.746 11.062,11.460 11.419,10.957 11.935 C 10.438 12.467,10.415 12.504,10.414 12.813 C 10.413 13.033,10.478 13.190,10.637 13.354 C 10.827 13.549,11.135 13.641,11.377 13.576 C 11.755 13.474,12.590 12.639,13.151 11.800 C 14.005 10.526,14.466 8.919,14.374 7.544 C 14.312 6.619,13.965 5.607,13.373 4.626 C 12.845 3.751,11.794 2.553,11.473 2.459 C 11.292 2.407,11.086 2.398,10.979 2.437 M7.063 3.227 C 6.953 3.246,6.756 3.368,5.484 4.206 L 4.581 4.800 4.324 4.800 C 3.928 4.801,3.496 4.847,3.306 4.909 C 2.507 5.171,1.897 5.818,1.675 6.640 C 1.615 6.861,1.613 6.898,1.614 8.040 C 1.615 9.385,1.610 9.352,1.855 9.853 C 2.101 10.355,2.449 10.704,2.947 10.947 C 3.323 11.131,3.522 11.174,4.101 11.197 L 4.600 11.216 5.626 11.903 C 6.948 12.789,6.944 12.787,7.200 12.786 C 7.347 12.786,7.433 12.770,7.526 12.728 C 7.678 12.658,7.859 12.478,7.940 12.315 L 8.000 12.194 8.000 8.035 C 8.000 3.277,8.025 3.727,7.749 3.452 C 7.627 3.330,7.557 3.282,7.467 3.260 C 7.293 3.216,7.173 3.207,7.063 3.227 M6.393 8.013 C 6.393 9.172,6.386 10.200,6.377 10.297 L 6.360 10.474 5.787 10.102 C 5.471 9.897,5.170 9.707,5.116 9.679 C 5.033 9.636,4.926 9.625,4.396 9.605 C 3.879 9.585,3.757 9.573,3.680 9.533 C 3.512 9.446,3.433 9.375,3.329 9.216 L 3.227 9.058 3.227 8.022 C 3.227 6.854,3.222 6.889,3.428 6.668 C 3.641 6.441,3.687 6.428,4.408 6.402 C 4.965 6.382,5.049 6.373,5.151 6.324 C 5.215 6.293,5.513 6.101,5.813 5.897 L 6.360 5.527 6.377 5.717 C 6.386 5.821,6.393 6.855,6.393 8.013 M9.413 5.636 C 9.267 5.676,9.073 5.805,8.982 5.925 C 8.852 6.095,8.818 6.191,8.817 6.387 C 8.816 6.700,8.880 6.828,9.237 7.227 C 9.518 7.540,9.558 7.628,9.569 7.965 C 9.577 8.218,9.573 8.246,9.507 8.368 C 9.468 8.439,9.329 8.623,9.198 8.776 C 8.927 9.091,8.835 9.255,8.811 9.469 C 8.783 9.709,8.849 9.884,9.042 10.091 C 9.239 10.302,9.371 10.360,9.643 10.359 C 9.906 10.357,10.126 10.246,10.400 9.973 C 10.732 9.645,10.977 9.188,11.122 8.625 C 11.203 8.315,11.210 7.754,11.139 7.419 C 11.030 6.913,10.869 6.557,10.586 6.201 C 10.319 5.866,10.039 5.678,9.730 5.628 C 9.533 5.596,9.565 5.595,9.413 5.636 " fill="#1A1C1F" stroke="none" fill-rule="evenodd"></path></svg>