<svg width="28" height="28" viewBox="0 0 28 28" fill="none" xmlns="http://www.w3.org/2000/svg"><path d="M23.403 3.533 C 23.250 3.571,23.017 3.767,22.329 4.440 L 21.674 5.080 21.302 4.847 C 20.522 4.359,20.323 4.304,19.946 4.475 C 19.724 4.576,19.589 4.733,19.481 5.017 C 19.330 5.412,19.515 5.775,20.040 6.115 C 20.209 6.224,20.347 6.335,20.347 6.362 C 20.347 6.389,19.935 6.825,19.431 7.331 L 18.516 8.250 18.260 8.133 C 17.764 7.905,17.273 8.069,17.069 8.530 C 16.963 8.770,16.980 8.989,17.130 9.329 L 17.223 9.539 15.623 11.140 L 14.023 12.741 14.000 9.295 L 13.977 5.850 13.845 5.651 C 13.643 5.346,13.297 5.220,12.888 5.302 C 12.728 5.334,12.155 5.791,9.375 8.103 L 7.574 9.601 5.782 9.626 C 3.821 9.653,3.717 9.666,3.161 9.946 C 2.795 10.131,2.254 10.664,2.077 11.013 C 2.005 11.155,1.897 11.415,1.837 11.593 C 1.728 11.914,1.727 11.933,1.727 14.014 L 1.727 16.112 1.842 16.431 C 1.905 16.607,2.013 16.861,2.082 16.997 C 2.236 17.302,2.833 17.901,3.153 18.071 C 3.657 18.338,3.786 18.353,5.764 18.375 L 7.584 18.395 7.793 18.573 L 8.003 18.752 5.902 20.868 C 4.746 22.031,3.738 23.066,3.662 23.166 C 3.543 23.323,3.523 23.390,3.523 23.636 C 3.523 23.960,3.634 24.174,3.895 24.352 C 4.096 24.490,4.426 24.531,4.600 24.439 C 4.913 24.275,6.314 22.904,13.387 15.846 C 22.803 6.448,24.378 4.844,24.458 4.577 C 24.564 4.224,24.402 3.828,24.080 3.649 C 23.908 3.553,23.561 3.494,23.403 3.533 M23.515 8.197 L 22.896 8.811 23.133 9.224 C 23.844 10.463,24.187 11.405,24.388 12.670 C 24.495 13.343,24.495 14.669,24.389 15.353 C 23.984 17.954,22.558 20.200,20.386 21.658 C 20.086 21.859,19.768 22.098,19.680 22.190 C 19.338 22.541,19.351 22.993,19.712 23.354 C 20.043 23.686,20.455 23.687,20.995 23.360 C 22.649 22.355,24.178 20.701,25.042 18.982 C 25.917 17.240,26.268 15.652,26.214 13.679 C 26.178 12.357,25.997 11.409,25.556 10.230 C 25.241 9.390,24.584 8.137,24.225 7.695 L 24.134 7.583 23.515 8.197 M12.220 12.227 L 12.227 14.537 10.736 16.027 L 9.246 17.517 8.905 17.213 C 8.506 16.857,8.375 16.768,8.161 16.702 C 8.072 16.674,7.157 16.638,6.067 16.617 C 3.880 16.576,3.880 16.576,3.655 16.235 L 3.523 16.037 3.523 14.027 C 3.523 11.754,3.520 11.779,3.889 11.534 L 4.076 11.410 6.087 11.387 C 7.843 11.366,8.114 11.354,8.237 11.286 C 8.428 11.180,9.196 10.556,10.803 9.202 L 12.157 8.062 12.185 8.989 C 12.201 9.499,12.217 10.956,12.220 12.227 M20.334 11.398 C 19.981 11.765,19.746 12.045,19.757 12.087 C 19.768 12.125,19.832 12.345,19.899 12.575 C 20.082 13.194,20.137 13.787,20.074 14.453 C 20.005 15.173,19.927 15.457,19.628 16.077 C 19.211 16.941,18.753 17.445,17.678 18.219 C 17.147 18.602,17.050 18.717,17.001 19.015 C 16.933 19.433,17.218 19.849,17.655 19.971 C 17.962 20.057,18.137 19.996,18.726 19.603 C 20.270 18.570,21.246 17.248,21.689 15.591 C 21.794 15.196,21.810 15.028,21.828 14.163 C 21.845 13.295,21.836 13.128,21.748 12.695 C 21.596 11.957,21.130 10.781,20.988 10.779 C 20.956 10.779,20.662 11.057,20.334 11.398 M12.351 19.386 C 11.401 20.324,10.778 20.973,10.787 21.015 C 10.802 21.081,12.012 22.108,12.530 22.494 C 12.959 22.814,13.298 22.832,13.667 22.553 C 13.977 22.318,13.975 22.330,13.991 19.962 C 13.999 18.787,13.988 17.827,13.968 17.827 C 13.947 17.827,13.219 18.529,12.351 19.386 " fill="#1A1C1F" stroke="none" fill-rule="evenodd"></path></svg>