<svg xmlns="http://www.w3.org/2000/svg" width="14" height="14" fill="none"><g clip-path="url(#a)"><path fill="#1A1C1F" fill-rule="evenodd" d="M9.107 2.8a.7.7 0 0 1 .698.698v7.004c0 .397-.3.698-.698.698a.7.7 0 0 1-.37-.11L6.81 9.806h-.506c-1.163 0-2.107-.944-2.107-2.08v-1.41c0-1.15.944-2.12 2.107-2.12h.506l1.929-1.273a.6.6 0 0 1 .369-.123M8.41 4.811l-1.014.684a.9.9 0 0 1-.396.11H6.3a.7.7 0 0 0-.697.697v1.396c0 .396.3.697.697.697H7c.15 0 .287.069.396.137l1.013.657V4.81z" clip-rule="evenodd"/></g><defs><clipPath id="a"><path fill="#fff" d="M0 0h14v14H0z"/></clipPath></defs></svg>