<svg width="12" height="12" viewBox="0 0 12 12" fill="none" xmlns="http://www.w3.org/2000/svg"><path d="M7.636 2.427 C 7.553 2.458,7.451 2.523,6.498 3.151 L 5.827 3.594 5.458 3.605 C 4.916 3.622,4.671 3.699,4.317 3.965 C 3.975 4.222,3.762 4.544,3.645 4.980 C 3.596 5.161,3.593 5.201,3.585 5.800 C 3.574 6.647,3.594 6.929,3.687 7.186 C 3.854 7.653,4.198 8.030,4.646 8.240 C 4.894 8.357,5.095 8.398,5.513 8.417 L 5.870 8.433 6.670 8.965 C 7.110 9.257,7.515 9.519,7.568 9.548 C 7.686 9.610,7.878 9.619,8.027 9.568 C 8.132 9.532,8.293 9.389,8.352 9.279 C 8.406 9.177,8.416 8.652,8.418 5.539 L 8.420 2.868 8.366 2.759 C 8.301 2.628,8.170 2.493,8.068 2.450 C 7.960 2.405,7.727 2.393,7.636 2.427 M7.187 4.343 C 7.204 4.579,7.200 7.617,7.183 7.753 L 7.170 7.855 6.808 7.623 C 6.609 7.495,6.376 7.350,6.291 7.302 L 6.136 7.213 5.692 7.201 C 5.259 7.189,5.246 7.187,5.134 7.133 C 5.067 7.100,4.993 7.043,4.953 6.994 C 4.815 6.823,4.820 6.862,4.820 6.010 L 4.820 5.239 4.870 5.140 C 4.933 5.016,5.030 4.918,5.145 4.862 C 5.224 4.824,5.287 4.817,5.699 4.800 C 6.259 4.777,6.208 4.795,6.760 4.423 C 6.975 4.278,7.155 4.160,7.162 4.160 C 7.169 4.160,7.180 4.242,7.187 4.343 " fill="#1A1C1F" stroke="none" fill-rule="evenodd"></path></svg>