<svg xmlns="http://www.w3.org/2000/svg" width="24" height="24" fill="none"><g clip-path="url(#a)"><path fill="#1A1C1F" fill-rule="evenodd" d="M11.42 4.967c.568 0 .994.474.994 1.018v12.08c0 .567-.426 1.017-.994 1.017-.19 0-.426-.048-.569-.166l-4.286-2.889H4.86a2.5 2.5 0 0 1-2.51-2.51v-3.009c0-1.42 1.113-2.51 2.51-2.51h1.705l4.286-2.865c.17-.113.38-.166.569-.166m-1.018 2.89-2.96 1.965c-.17.112-.378.19-.569.19H4.86a.48.48 0 0 0-.497.473v3.03a.5.5 0 0 0 .497.498h2.013c.19 0 .4.076.568.19l2.96 1.99zm4.499 8.95c.19 0 .379-.07.545-.165 1.539-1.042 2.368-2.818 2.368-4.665s-.853-3.576-2.368-4.642a1.1 1.1 0 0 0-.545-.166.975.975 0 0 0-.86 1.427.96.96 0 0 0 .315.35c.995.663 1.516 1.823 1.516 3.031 0 1.207-.521 2.368-1.516 3.054-.26.19-.426.498-.426.806 0 .52.427.97.971.97m1.918 2.89c.169 0 .334-.05.474-.143a8.74 8.74 0 0 0 3.193-11.926 8.75 8.75 0 0 0-3.193-3.206.83.83 0 0 0-.474-.118c-.52 0-.97.403-.97.947 0 .332.189.663.496.853A6.82 6.82 0 0 1 19.732 12c0 2.416-1.303 4.665-3.387 5.897a.96.96 0 0 0-.497.83c0 .52.45.97.971.97" clip-rule="evenodd"/></g><defs><clipPath id="a"><path fill="#fff" d="M0 0h24v24H0z"/></clipPath></defs></svg>