<svg xmlns="http://www.w3.org/2000/svg" width="32" height="32" fill="none"><g clip-path="url(#a)"><path fill="#1A1C1F" fill-rule="evenodd" d="M15 6c.5 0 1 .406 1 1v18c0 .594-.5 1-1 1a.96.96 0 0 1-.625-.219L8.625 21H5c-1.594 0-3-1.249-3-2.813V14a3 3 0 0 1 3-3h3.625l5.75-4.781A.96.96 0 0 1 15 6m-1 3.125-4.375 3.656A1.05 1.05 0 0 1 9 13H5c-.563 0-1 .438-1 1v4c0 .563.438 1 1 1h4c.219 0 .472.09.625.219L14 22.875zm6.406 13.75c.157 0 .344-.063.5-.156C23.47 21.25 25 18.906 25 16s-1.531-5.25-4.094-6.719a1.04 1.04 0 0 0-.5-.156c-.531 0-1 .469-1 1 0 .375.188.688.5.875 2 1.125 3.094 2.875 3.094 5s-1.094 3.875-3.094 5a1.007 1.007 0 0 0 .5 1.875M23.22 27a.9.9 0 0 0 .468-.125A12.49 12.49 0 0 0 30 16c0-4.563-2.438-8.656-6.313-10.875A.9.9 0 0 0 23.22 5c-.563 0-1 .438-1 1 0 .344.156.688.5.875C25.969 8.719 28 12.188 28 16s-2.031 7.281-5.281 9.125c-.344.188-.5.531-.5.875 0 .531.438 1 1.001 1" clip-rule="evenodd"/></g><defs><clipPath id="a"><path fill="#fff" d="M0 0h32v32H0z"/></clipPath></defs></svg>