<svg width="14" height="14" viewBox="0 0 14 14" fill="none" xmlns="http://www.w3.org/2000/svg"><path d="M8.979 2.823 C 8.879 2.841,8.746 2.923,7.642 3.651 L 6.825 4.188 6.405 4.203 C 5.665 4.228,5.287 4.378,4.832 4.829 C 4.543 5.116,4.381 5.385,4.267 5.767 C 4.219 5.928,4.216 5.998,4.206 6.878 C 4.195 7.913,4.207 8.080,4.314 8.393 C 4.416 8.689,4.576 8.937,4.819 9.181 C 5.074 9.436,5.305 9.578,5.661 9.698 C 5.910 9.782,5.924 9.784,6.370 9.798 L 6.825 9.812 7.782 10.451 C 8.308 10.803,8.786 11.112,8.843 11.138 C 8.976 11.198,9.256 11.203,9.384 11.148 C 9.507 11.094,9.664 10.942,9.731 10.811 L 9.788 10.698 9.794 7.012 L 9.800 3.325 9.722 3.185 C 9.573 2.917,9.272 2.771,8.979 2.823 M8.385 5.711 C 8.410 7.118,8.404 9.147,8.375 9.147 C 8.361 9.147,8.158 9.024,7.925 8.873 C 7.692 8.723,7.421 8.559,7.322 8.508 L 7.142 8.416 6.632 8.401 C 6.056 8.383,5.992 8.366,5.813 8.187 C 5.621 7.995,5.623 8.012,5.624 6.998 L 5.624 6.102 5.692 5.983 C 5.772 5.843,5.898 5.727,6.036 5.666 C 6.118 5.629,6.228 5.618,6.674 5.600 C 7.145 5.582,7.226 5.573,7.311 5.531 C 7.364 5.505,7.618 5.342,7.875 5.170 C 8.132 4.998,8.348 4.856,8.355 4.855 C 8.363 4.854,8.376 5.239,8.385 5.711 " fill="#1A1C1F" stroke="none" fill-rule="evenodd"></path></svg>