<svg width="12" height="12" viewBox="0 0 12 12" fill="none" xmlns="http://www.w3.org/2000/svg"><path d="M8.281 1.821 C 8.075 1.864,7.911 2.025,7.839 2.256 C 7.769 2.481,7.820 2.654,8.023 2.870 L 8.138 2.993 7.070 4.060 L 6.002 5.128 5.996 3.969 L 5.990 2.810 5.935 2.717 C 5.828 2.534,5.630 2.421,5.416 2.420 C 5.304 2.420,5.263 2.430,5.156 2.486 C 5.029 2.553,4.449 2.927,3.800 3.360 L 3.450 3.594 3.060 3.607 C 2.844 3.615,2.615 3.634,2.545 3.650 C 2.106 3.752,1.631 4.143,1.392 4.600 C 1.274 4.827,1.218 5.025,1.196 5.300 C 1.173 5.590,1.190 6.862,1.219 7.003 C 1.247 7.140,1.349 7.392,1.433 7.534 C 1.680 7.951,2.053 8.226,2.563 8.368 L 2.716 8.410 2.291 8.854 C 2.057 9.098,1.849 9.331,1.828 9.374 C 1.770 9.493,1.777 9.703,1.844 9.831 C 1.909 9.955,2.050 10.088,2.176 10.143 C 2.317 10.206,2.527 10.201,2.668 10.132 C 2.758 10.088,3.366 9.486,6.448 6.392 L 10.121 2.704 10.161 2.547 C 10.209 2.363,10.201 2.259,10.128 2.106 C 10.030 1.901,9.845 1.800,9.573 1.800 C 9.389 1.800,9.286 1.849,9.128 2.014 L 9.006 2.140 8.868 2.018 C 8.792 1.951,8.695 1.878,8.652 1.856 C 8.561 1.810,8.406 1.795,8.281 1.821 M4.787 4.265 C 4.794 4.323,4.800 4.816,4.800 5.360 L 4.800 6.350 4.334 6.816 C 3.887 7.262,3.865 7.281,3.814 7.262 C 3.785 7.251,3.555 7.233,3.304 7.222 C 2.970 7.208,2.826 7.195,2.771 7.172 C 2.654 7.123,2.543 7.024,2.479 6.913 L 2.420 6.810 2.420 6.009 L 2.420 5.208 2.476 5.119 C 2.508 5.070,2.566 5.001,2.607 4.965 C 2.751 4.839,2.767 4.836,3.259 4.826 C 3.706 4.817,3.711 4.816,3.830 4.760 C 3.896 4.728,4.130 4.580,4.350 4.431 C 4.570 4.282,4.755 4.160,4.762 4.160 C 4.769 4.160,4.780 4.207,4.787 4.265 M9.913 4.631 L 9.457 5.081 9.507 5.276 C 9.610 5.668,9.621 5.967,9.551 6.435 C 9.480 6.906,9.356 7.289,9.127 7.748 C 8.897 8.209,8.616 8.582,8.174 9.014 C 7.875 9.306,7.813 9.410,7.811 9.618 C 7.809 9.850,7.943 10.050,8.177 10.162 C 8.247 10.196,8.308 10.208,8.420 10.209 C 8.550 10.210,8.584 10.202,8.677 10.151 C 8.736 10.118,8.905 9.975,9.053 9.832 C 9.568 9.338,9.918 8.868,10.209 8.284 C 10.540 7.618,10.726 6.962,10.800 6.200 C 10.834 5.853,10.780 5.366,10.659 4.906 C 10.568 4.561,10.423 4.179,10.384 4.181 C 10.377 4.181,10.164 4.384,9.913 4.631 M8.223 6.344 C 7.869 6.678,6.880 7.672,6.880 7.693 C 6.880 7.706,6.923 7.733,6.975 7.753 C 7.106 7.804,7.382 7.804,7.484 7.753 C 7.652 7.670,8.004 7.253,8.165 6.947 C 8.286 6.717,8.442 6.200,8.390 6.200 C 8.382 6.200,8.307 6.265,8.223 6.344 M5.502 9.028 L 5.035 9.496 5.082 9.527 C 5.384 9.724,5.772 9.614,5.934 9.284 C 5.986 9.177,5.990 9.151,5.997 8.865 C 6.001 8.697,5.996 8.560,5.987 8.560 C 5.977 8.560,5.759 8.771,5.502 9.028 " fill="#1A1C1F" stroke="none" fill-rule="evenodd"></path></svg>