<svg width="24" height="24" viewBox="0 0 24 24" fill="none" xmlns="http://www.w3.org/2000/svg"><path d="M19.380 3.686 C 19.214 3.748,18.975 3.945,18.460 4.445 L 18.020 4.873 17.569 4.599 C 17.059 4.289,16.879 4.241,16.528 4.319 C 16.345 4.360,16.269 4.406,16.097 4.577 C 15.927 4.747,15.880 4.826,15.840 5.003 C 15.754 5.389,15.935 5.775,16.337 6.063 C 16.458 6.149,16.557 6.246,16.558 6.277 C 16.559 6.308,16.331 6.565,16.050 6.847 L 15.540 7.360 15.347 7.262 C 14.953 7.061,14.581 7.091,14.280 7.349 C 13.906 7.669,13.813 8.213,14.068 8.587 L 14.171 8.740 13.319 9.570 C 12.850 10.027,12.457 10.390,12.444 10.378 C 12.432 10.365,12.412 9.288,12.400 7.984 L 12.379 5.612 12.258 5.416 C 12.035 5.055,11.532 4.847,11.178 4.969 C 10.978 5.038,10.200 5.536,8.217 6.862 L 6.654 7.907 5.597 7.934 C 5.016 7.949,4.450 7.979,4.340 8.001 C 3.748 8.120,2.994 8.709,2.700 9.282 C 2.462 9.747,2.460 9.767,2.460 11.900 C 2.460 14.034,2.462 14.054,2.700 14.518 C 2.888 14.884,3.437 15.433,3.800 15.619 C 4.204 15.826,4.353 15.848,5.520 15.876 C 6.561 15.900,6.800 15.928,6.800 16.028 C 6.800 16.042,6.199 16.659,5.465 17.399 C 4.031 18.845,3.881 19.031,3.880 19.363 C 3.879 20.076,4.600 20.570,5.194 20.263 C 5.424 20.144,19.495 6.130,20.218 5.300 C 20.613 4.846,20.657 4.749,20.602 4.448 C 20.520 4.003,20.173 3.687,19.734 3.657 C 19.605 3.649,19.446 3.662,19.380 3.686 M19.805 8.495 L 19.111 9.190 19.258 9.615 C 19.551 10.465,19.599 10.782,19.600 11.854 C 19.600 12.651,19.587 12.872,19.520 13.200 C 19.164 14.949,18.128 16.499,16.630 17.525 C 16.432 17.660,16.208 17.826,16.133 17.892 C 15.553 18.401,15.817 19.307,16.597 19.487 C 16.864 19.548,17.077 19.485,17.508 19.214 C 19.179 18.165,20.474 16.514,21.099 14.635 C 21.383 13.782,21.477 13.317,21.517 12.578 C 21.588 11.268,21.490 10.422,21.134 9.245 C 21.001 8.804,20.578 7.800,20.525 7.800 C 20.511 7.800,20.187 8.113,19.805 8.495 M10.395 10.780 L 10.400 12.461 9.330 13.529 L 8.260 14.598 7.860 14.334 C 7.189 13.890,7.276 13.911,5.920 13.882 C 4.660 13.855,4.621 13.849,4.512 13.646 C 4.435 13.500,4.436 10.296,4.514 10.150 C 4.616 9.960,4.700 9.947,5.983 9.923 L 7.185 9.900 7.723 9.562 C 8.018 9.377,8.728 8.913,9.300 8.532 L 10.340 7.840 10.365 8.470 C 10.378 8.816,10.392 9.856,10.395 10.780 M16.695 11.610 L 15.799 12.500 15.718 12.820 C 15.617 13.217,15.307 13.863,15.063 14.188 C 14.961 14.323,14.748 14.546,14.589 14.683 C 14.430 14.820,14.242 14.997,14.171 15.076 C 13.630 15.677,14.054 16.640,14.860 16.640 C 15.230 16.640,15.581 16.428,16.142 15.864 C 16.947 15.056,17.455 14.071,17.668 12.909 C 17.779 12.302,17.753 10.720,17.632 10.720 C 17.609 10.720,17.187 11.120,16.695 11.610 M11.226 17.038 C 10.618 17.653,10.120 18.180,10.120 18.210 C 10.120 18.275,10.675 18.643,11.015 18.804 C 11.290 18.934,11.422 18.946,11.695 18.863 C 11.945 18.788,12.134 18.639,12.269 18.409 L 12.380 18.220 12.393 17.070 C 12.400 16.393,12.390 15.920,12.369 15.920 C 12.349 15.920,11.835 16.423,11.226 17.038 " fill="#1A1C1F" stroke="none" fill-rule="evenodd"></path></svg>