<svg width="16" height="16" viewBox="0 0 16 16" fill="none" xmlns="http://www.w3.org/2000/svg"><path d="M10.264 3.227 C 10.152 3.246,9.909 3.397,8.697 4.195 L 7.800 4.786 7.320 4.803 C 6.811 4.821,6.653 4.849,6.310 4.982 C 5.800 5.180,5.229 5.733,4.999 6.252 C 4.826 6.644,4.820 6.692,4.807 7.841 C 4.799 8.485,4.805 8.983,4.822 9.121 C 4.884 9.631,5.114 10.096,5.493 10.480 C 5.781 10.772,6.064 10.948,6.461 11.081 C 6.755 11.180,6.769 11.182,7.280 11.198 L 7.800 11.214 8.930 11.967 C 10.139 12.773,10.230 12.821,10.483 12.791 C 10.764 12.758,11.023 12.575,11.139 12.328 C 11.184 12.232,11.187 12.007,11.187 7.987 L 11.187 3.747 11.089 3.596 C 10.907 3.317,10.581 3.171,10.264 3.227 M9.582 6.471 C 9.610 7.931,9.604 10.453,9.573 10.453 C 9.544 10.453,9.318 10.314,8.813 9.986 C 8.637 9.872,8.417 9.742,8.323 9.698 C 8.156 9.620,8.144 9.618,7.575 9.601 C 7.051 9.585,6.985 9.577,6.873 9.523 C 6.718 9.448,6.553 9.285,6.480 9.134 C 6.425 9.020,6.424 8.990,6.432 7.982 C 6.441 6.830,6.433 6.885,6.633 6.663 C 6.742 6.543,6.871 6.469,7.022 6.442 C 7.079 6.432,7.375 6.413,7.681 6.401 C 8.163 6.382,8.253 6.372,8.352 6.323 C 8.415 6.293,8.707 6.106,9.000 5.909 C 9.293 5.712,9.540 5.549,9.549 5.548 C 9.558 5.547,9.573 5.963,9.582 6.471 " fill="#1A1C1F" stroke="none" fill-rule="evenodd"></path></svg>