<svg width="24" height="24" viewBox="0 0 24 24" fill="none" xmlns="http://www.w3.org/2000/svg"><path d="M15.777 5.036 C 15.630 5.073,14.713 5.658,12.700 7.000 L 11.220 7.987 10.156 8.013 C 9.570 8.028,8.994 8.058,8.876 8.080 C 8.120 8.221,7.340 8.980,7.088 9.820 C 7.040 9.980,7.024 10.363,7.011 11.719 C 6.992 13.519,7.019 14.004,7.160 14.359 C 7.378 14.914,7.858 15.441,8.376 15.697 C 8.834 15.923,9.080 15.959,10.202 15.959 L 11.184 15.960 11.602 16.245 C 11.832 16.402,12.831 17.075,13.822 17.741 C 15.759 19.043,15.762 19.045,16.175 18.983 C 16.408 18.948,16.690 18.763,16.828 18.555 L 16.940 18.386 16.966 17.403 C 16.980 16.862,16.991 14.431,16.991 12.000 C 16.991 9.569,16.980 7.136,16.966 6.593 L 16.940 5.607 16.820 5.437 C 16.601 5.129,16.125 4.946,15.777 5.036 M14.980 8.938 C 15.013 10.080,14.991 16.022,14.953 16.060 C 14.940 16.073,14.275 15.649,13.475 15.118 C 12.675 14.587,11.948 14.115,11.860 14.070 C 11.714 13.995,11.597 13.986,10.491 13.959 C 9.133 13.927,9.109 13.922,9.052 13.650 C 9.034 13.568,9.020 12.798,9.020 11.940 C 9.020 10.251,9.028 10.178,9.233 10.078 C 9.311 10.039,9.665 10.019,10.540 10.002 L 11.740 9.980 12.000 9.822 C 12.315 9.632,14.277 8.355,14.640 8.104 C 14.783 8.005,14.911 7.924,14.925 7.922 C 14.939 7.921,14.964 8.378,14.980 8.938 " fill="#1A1C1F" stroke="none" fill-rule="evenodd"></path></svg>