<svg xmlns="http://www.w3.org/2000/svg" width="12" height="12" fill="none"><g clip-path="url(#a)"><path fill="#1A1C1F" fill-rule="evenodd" d="M9.594 1.784c.282 0 .6.188.6.587 0 .13-.036.259-.118.376L2.828 10.03a.58.58 0 0 1-.422.164.624.624 0 0 1-.623-.61.5.5 0 0 1 .141-.353l.804-.827c-.84-.123-1.544-.82-1.544-1.78v-1.2c0-.97.842-1.82 1.691-1.82h.553L5.084 2.51a.6.6 0 0 1 .329-.105c.293 0 .587.234.587.528v2.208l2.138-2.15-.141-.152a.53.53 0 0 1-.188-.423c0-.33.27-.622.61-.622.224 0 .306.07.588.352l.165-.188a.54.54 0 0 1 .422-.176M4.802 4.122l-.681.47c-.256.176-.388.223-.529.223h-.6a.595.595 0 0 0-.598.61v1.198c0 .253.19.588.599.588h.599c.12 0 .155.032.27.07l.94-.94zm.235 5.38L6 8.538v.47a.605.605 0 0 1-.623.623c-.105 0-.176-.036-.34-.13m1.809-1.81 1.562-1.538c-.059.587-.364 1.127-.81 1.527a.53.53 0 0 1-.365.129c-.129 0-.211-.024-.387-.118m.963 1.927c0-.165.07-.34.2-.458a4.39 4.39 0 0 0 1.597-3.195c0-.33-.035-.54-.153-.881l.94-.928c.27.564.4 1.186.423 1.809a5.66 5.66 0 0 1-2.02 4.11c-.1.09-.23.141-.365.142-.352 0-.622-.258-.622-.6" clip-rule="evenodd"/></g><defs><clipPath id="a"><path fill="#fff" d="M0 0h12v12H0z"/></clipPath></defs></svg>