<svg xmlns="http://www.w3.org/2000/svg" width="32" height="32" fill="none"><path fill="#1A1C1F" fill-rule="evenodd" d="M22.8 5.099c-.39.213-.56.487-.56.901 0 .289.099.543.273.703.07.065.348.257.618.427a10.7 10.7 0 0 1 3.419 3.534c.625 1.058 1.111 2.422 1.323 3.716.132.802.132 2.438 0 3.24a10.85 10.85 0 0 1-1.958 4.676c-.712.961-1.94 2.081-2.924 2.665-.447.266-.679.513-.728.775-.129.687.306 1.251.966 1.251.231 0 .339-.041.728-.273 1.221-.728 2.675-2.044 3.543-3.207 1.289-1.727 2.09-3.691 2.399-5.88.12-.852.12-2.392-.001-3.254-.235-1.683-.815-3.368-1.63-4.736-1.011-1.697-2.616-3.322-4.263-4.317-.378-.228-.506-.278-.75-.292-.2-.011-.347.012-.455.071m-8.273 1.03c-.092.056-1.45 1.169-3.019 2.475l-2.853 2.373L6.554 11c-1.814.019-2.141.035-2.394.116-.709.226-1.408.774-1.746 1.368a4 4 0 0 0-.289.689c-.124.396-.125.428-.125 2.934 0 2.511.001 2.536.123 2.874.356.986 1.222 1.728 2.279 1.952.288.061.806.079 2.304.079l1.933.001 2.85 2.37c1.568 1.303 2.911 2.41 2.986 2.459.483.316 1.182.109 1.423-.422.096-.212.1-.55.101-9.408.001-9.881.014-9.386-.254-9.682-.269-.298-.892-.4-1.218-.201m5.476 3.108c-.447.233-.657.652-.567 1.131.051.275.242.471.849.871.597.393 1.3 1.037 1.67 1.53.33.439.732 1.293.88 1.871.105.406.123.615.123 1.36s-.018.954-.123 1.36c-.148.578-.55 1.432-.88 1.871-.371.493-1.102 1.164-1.676 1.538-.566.369-.722.512-.809.741-.078.206-.071.539.015.746.158.377.682.675 1.064.603.428-.08 1.7-1.001 2.401-1.738.988-1.038 1.607-2.219 1.912-3.644.166-.777.166-2.177 0-2.954-.321-1.5-.953-2.667-2.034-3.753-.595-.598-1.033-.946-1.699-1.348-.52-.314-.793-.359-1.126-.185m-6.043 10.18-.013 3.416-2.189-1.83c-1.204-1.006-2.26-1.866-2.347-1.909-.13-.066-.562-.085-2.451-.107-2.581-.03-2.51-.019-2.787-.438l-.146-.221v-4.656l.15-.227c.283-.428.29-.429 2.75-.43 1.483-.001 2.219-.021 2.362-.064.147-.044.857-.605 2.432-1.921l2.226-1.86.013 3.415c.008 1.878.008 4.952 0 6.832"/></svg>