<svg xmlns="http://www.w3.org/2000/svg" width="24" height="24" fill="none"><g clip-path="url(#a)"><path fill="#1A1C1F" fill-rule="evenodd" d="M19.686 3.635a.94.94 0 0 1 .938.94c0 .304-.14.54-.328.726L5.442 20.108a.97.97 0 0 1-.634.258c-.516 0-.94-.445-.94-.962 0-.28.119-.516.33-.727l2.628-2.652-.211-.14h-1.69a2.474 2.474 0 0 1-2.487-2.489v-2.98a2.46 2.46 0 0 1 2.487-2.488h1.69l4.247-2.84a1 1 0 0 1 .564-.163c.563 0 .985.47.985 1.01v4.528l1.76-1.737a1 1 0 0 1-.258-.657c0-.54.446-.962.962-.962.258 0 .54.164.657.258l1.103-1.103-.328-.21a1.01 1.01 0 0 1-.493-.846c0-.54.446-.938.962-.938.164 0 .328.023.47.117l.774.493 1.009-.986a.87.87 0 0 1 .657-.257m-9.27 4.154L7.484 9.735a1 1 0 0 1-.563.188H4.925a.476.476 0 0 0-.492.47v3.003c0 .258.21.493.492.493H6.92c.188 0 .399.07.563.188l.775.516 2.159-2.136v-4.67zm-.351 10.42.797.54c.14.116.376.162.564.162.563 0 .985-.445.985-1.009v-2.04zm5.725-5.68c-.164.962-.657 1.807-1.455 2.37a1.01 1.01 0 0 0-.422.798c0 .516.422.962.962.962.188 0 .376-.07.54-.165 1.525-1.032 2.346-2.792 2.346-4.622a7 7 0 0 0-.117-1.22zm4.74-4.74a8.8 8.8 0 0 1 1.033 4.106 8.66 8.66 0 0 1-4.318 7.486.85.85 0 0 1-.47.14.98.98 0 0 1-.961-.962c0-.328.188-.657.493-.82 2.065-1.22 3.355-3.45 3.355-5.844 0-.938-.188-1.854-.563-2.698z" clip-rule="evenodd"/></g><defs><clipPath id="a"><path fill="#fff" d="M0 0h24v24H0z"/></clipPath></defs></svg>