<svg width="14" height="14" viewBox="0 0 14 14" fill="none" xmlns="http://www.w3.org/2000/svg"><path d="M9.663 2.127 C 9.351 2.183,9.114 2.478,9.112 2.812 C 9.112 3.045,9.168 3.142,9.532 3.535 C 10.117 4.166,10.437 4.610,10.732 5.205 C 11.089 5.925,11.239 6.593,11.177 7.198 C 11.102 7.943,10.859 8.693,10.489 9.322 C 10.277 9.681,10.025 9.995,9.588 10.442 C 9.133 10.907,9.113 10.939,9.112 11.212 C 9.112 11.406,9.170 11.544,9.313 11.687 C 9.455 11.830,9.594 11.888,9.789 11.888 C 10.062 11.888,10.196 11.806,10.639 11.367 C 11.215 10.793,11.582 10.293,11.910 9.634 C 12.401 8.646,12.641 7.555,12.577 6.600 C 12.550 6.191,12.481 5.866,12.322 5.389 C 12.002 4.432,11.498 3.607,10.678 2.700 C 10.220 2.195,9.995 2.068,9.663 2.127 M6.181 2.823 C 6.135 2.831,6.057 2.863,6.006 2.894 C 5.864 2.981,4.910 3.603,4.438 3.916 L 4.011 4.200 3.784 4.200 C 3.437 4.201,3.059 4.241,2.893 4.295 C 2.200 4.523,1.667 5.084,1.465 5.798 C 1.414 5.979,1.412 6.016,1.413 7.023 C 1.413 8.214,1.409 8.183,1.623 8.622 C 1.838 9.060,2.143 9.366,2.578 9.579 C 2.906 9.739,3.079 9.776,3.588 9.797 L 4.027 9.816 4.923 10.416 C 6.073 11.186,6.075 11.187,6.300 11.187 C 6.586 11.188,6.805 11.049,6.941 10.782 L 7.000 10.665 7.000 7.028 C 7.000 2.868,7.022 3.261,6.780 3.020 C 6.673 2.913,6.612 2.872,6.533 2.852 C 6.382 2.815,6.277 2.806,6.181 2.823 M5.585 5.046 C 5.605 5.301,5.601 8.945,5.581 9.067 L 5.565 9.163 5.063 8.838 C 4.787 8.660,4.523 8.494,4.477 8.469 C 4.404 8.431,4.310 8.422,3.846 8.404 C 3.394 8.387,3.287 8.376,3.220 8.341 C 3.073 8.265,3.004 8.203,2.913 8.064 L 2.823 7.926 2.823 7.019 C 2.823 5.997,2.819 6.028,2.999 5.835 C 3.185 5.636,3.226 5.625,3.853 5.602 C 4.244 5.588,4.421 5.573,4.480 5.548 C 4.525 5.529,4.782 5.365,5.052 5.183 C 5.321 5.002,5.548 4.853,5.556 4.853 C 5.563 4.853,5.576 4.940,5.585 5.046 M8.237 4.932 C 8.108 4.966,7.939 5.080,7.859 5.184 C 7.746 5.333,7.716 5.417,7.715 5.588 C 7.714 5.860,7.771 5.976,8.072 6.312 C 8.337 6.606,8.363 6.662,8.373 6.957 C 8.381 7.191,8.378 7.213,8.319 7.321 C 8.285 7.384,8.163 7.545,8.048 7.679 C 7.811 7.955,7.731 8.098,7.709 8.285 C 7.685 8.495,7.742 8.649,7.912 8.830 C 8.084 9.014,8.200 9.065,8.438 9.064 C 8.674 9.063,8.861 8.965,9.112 8.714 C 9.400 8.424,9.592 8.062,9.736 7.538 C 9.809 7.273,9.807 6.723,9.731 6.417 C 9.628 5.996,9.507 5.737,9.275 5.440 C 9.043 5.144,8.783 4.968,8.513 4.924 C 8.341 4.896,8.369 4.896,8.237 4.932 " fill="#1A1C1F" stroke="none" fill-rule="evenodd"></path></svg>