<svg width="32" height="32" viewBox="0 0 32 32" fill="none" xmlns="http://www.w3.org/2000/svg"><path d="M26.747 4.038 C 26.571 4.081,26.305 4.306,25.518 5.075 L 24.770 5.807 24.292 5.511 C 24.029 5.349,23.724 5.170,23.615 5.115 C 23.099 4.850,22.484 5.134,22.242 5.748 C 22.084 6.148,22.327 6.605,22.893 6.972 C 23.091 7.100,23.253 7.230,23.253 7.261 C 23.253 7.292,22.783 7.793,22.209 8.374 L 21.164 9.430 20.871 9.295 C 20.301 9.035,19.741 9.221,19.508 9.748 C 19.386 10.023,19.406 10.273,19.578 10.662 L 19.684 10.902 17.855 12.731 L 16.027 14.561 16.000 10.623 L 15.973 6.685 15.827 6.464 C 15.746 6.343,15.606 6.204,15.514 6.157 C 15.302 6.047,14.841 6.001,14.661 6.071 C 14.510 6.130,13.480 6.964,10.541 9.406 L 8.639 10.987 7.453 10.991 C 6.800 10.993,5.808 11.012,5.247 11.034 L 4.228 11.073 3.777 11.290 C 3.273 11.531,2.728 11.998,2.461 12.416 C 2.373 12.554,2.235 12.859,2.154 13.093 L 2.008 13.520 1.984 15.928 C 1.962 18.314,1.963 18.340,2.081 18.702 C 2.293 19.345,2.495 19.681,2.927 20.108 C 3.367 20.542,3.697 20.746,4.191 20.887 C 4.456 20.963,4.839 20.981,6.587 21.000 L 8.667 21.023 8.906 21.226 L 9.145 21.430 6.664 23.930 C 5.214 25.391,4.145 26.510,4.092 26.623 C 3.782 27.276,4.396 28.083,5.128 27.984 C 5.301 27.961,5.435 27.866,5.907 27.431 C 6.676 26.724,23.394 10.043,25.895 7.488 C 28.091 5.246,28.086 5.252,27.955 4.764 C 27.875 4.462,27.757 4.302,27.520 4.170 C 27.324 4.061,26.927 3.993,26.747 4.038 M26.875 9.367 L 26.169 10.068 26.469 10.594 C 27.771 12.879,28.216 15.099,27.865 17.555 C 27.448 20.464,25.808 23.049,23.302 24.748 C 22.546 25.260,22.328 25.472,22.242 25.780 C 22.068 26.400,22.642 27.038,23.314 26.974 C 24.026 26.905,26.166 25.189,27.254 23.813 C 28.735 21.940,29.664 19.693,29.917 17.375 C 29.995 16.661,29.985 15.243,29.897 14.507 C 29.736 13.165,29.365 11.914,28.751 10.640 C 28.412 9.936,27.918 9.080,27.686 8.795 L 27.582 8.667 26.875 9.367 M13.966 13.920 L 13.973 16.614 12.270 18.317 L 10.567 20.019 10.177 19.672 C 9.721 19.266,9.572 19.163,9.327 19.088 C 9.225 19.057,8.180 19.014,6.933 18.991 C 4.463 18.945,4.438 18.941,4.192 18.579 L 4.053 18.375 4.053 16.000 L 4.053 13.625 4.192 13.421 C 4.444 13.050,4.452 13.049,6.987 13.016 C 8.965 12.990,9.274 12.975,9.413 12.897 C 9.634 12.775,10.428 12.131,12.299 10.559 L 13.893 9.220 13.926 10.223 C 13.945 10.775,13.963 12.439,13.966 13.920 M23.239 13.026 C 22.835 13.446,22.567 13.766,22.580 13.813 C 22.592 13.857,22.665 14.108,22.742 14.371 C 22.951 15.079,23.014 15.756,22.941 16.517 C 22.861 17.362,22.774 17.672,22.403 18.427 C 21.930 19.391,21.376 19.991,20.167 20.848 C 19.581 21.264,19.479 21.386,19.432 21.733 C 19.340 22.406,19.982 23.004,20.609 22.828 C 20.924 22.740,21.661 22.259,22.283 21.737 C 23.664 20.577,24.555 19.081,24.877 17.384 C 24.988 16.799,24.990 15.205,24.880 14.632 C 24.726 13.825,24.147 12.321,23.990 12.319 C 23.952 12.319,23.614 12.637,23.239 13.026 M14.120 22.151 C 13.130 23.129,12.320 23.960,12.320 23.998 C 12.320 24.037,12.354 24.095,12.395 24.127 C 12.435 24.160,12.917 24.559,13.465 25.013 C 14.012 25.468,14.525 25.869,14.603 25.904 C 14.841 26.011,15.254 25.986,15.488 25.852 C 15.746 25.705,15.886 25.522,15.949 25.249 C 16.007 24.999,16.017 20.373,15.960 20.374 C 15.938 20.374,15.110 21.174,14.120 22.151 " fill="#1A1C1F" stroke="none" fill-rule="evenodd"></path></svg>