<svg xmlns="http://www.w3.org/2000/svg" width="16" height="16" fill="none"><g clip-path="url(#a)"><path fill="#1A1C1F" fill-rule="evenodd" d="M8.815 3.2c.45 0 .802.375.802.8v8c0 .45-.351.8-.802.8a.85.85 0 0 1-.426-.125L6.183 11.2h-.577C4.278 11.2 3.2 10.125 3.2 8.825v-1.6C3.2 5.9 4.278 4.8 5.606 4.8h.577l2.206-1.45a.68.68 0 0 1 .426-.15m-.802 2.3-1.153.775a.87.87 0 0 1-.452.125h-.802a.807.807 0 0 0-.802.8v1.6c0 .45.351.8.802.8h.802c.176 0 .326.075.452.15l1.153.75zm2.38 4.1c0-.8.803-.8.803-1.575 0-.8-.802-.8-.802-1.6 0-.4.4-.825.802-.825.802 0 1.604 1.2 1.604 2.425 0 1.2-.802 2.4-1.604 2.4-.401 0-.803-.4-.803-.825" clip-rule="evenodd"/></g><defs><clipPath id="a"><path fill="#fff" d="M0 0h16v16H0z"/></clipPath></defs></svg>