<svg width="28" height="28" viewBox="0 0 28 28" fill="none" xmlns="http://www.w3.org/2000/svg"><path d="M19.950 4.474 C 19.847 4.522,19.727 4.601,19.683 4.650 C 19.558 4.791,19.460 5.066,19.460 5.276 C 19.460 5.671,19.616 5.842,20.543 6.460 C 22.422 7.713,23.812 9.830,24.323 12.215 C 24.420 12.670,24.430 12.837,24.430 14.000 C 24.430 15.170,24.420 15.329,24.320 15.797 C 23.949 17.539,23.140 19.087,21.938 20.357 C 21.458 20.863,21.047 21.204,20.290 21.723 C 19.527 22.246,19.483 22.301,19.483 22.746 C 19.483 23.045,19.499 23.104,19.614 23.256 C 19.904 23.636,20.316 23.701,20.821 23.447 C 21.684 23.014,23.077 21.802,23.904 20.767 C 25.096 19.273,25.907 17.336,26.156 15.386 C 26.238 14.748,26.250 13.320,26.178 12.739 C 25.987 11.190,25.399 9.504,24.602 8.222 C 23.828 6.976,22.634 5.747,21.375 4.901 C 20.597 4.378,20.332 4.299,19.950 4.474 M12.774 5.338 C 12.610 5.428,12.388 5.608,9.751 7.797 L 7.579 9.601 5.784 9.626 C 3.821 9.653,3.717 9.666,3.161 9.946 C 2.795 10.131,2.254 10.664,2.077 11.013 C 2.005 11.155,1.897 11.415,1.837 11.593 C 1.728 11.912,1.727 11.943,1.729 13.763 C 1.732 16.172,1.751 16.409,1.983 16.880 C 2.292 17.508,2.867 17.997,3.593 18.251 C 3.885 18.353,3.968 18.358,5.732 18.376 L 7.568 18.394 9.629 20.106 C 12.491 22.484,12.665 22.625,12.807 22.679 C 13.163 22.814,13.640 22.659,13.851 22.339 L 13.977 22.150 13.990 14.467 C 13.997 10.242,13.984 6.548,13.962 6.260 C 13.917 5.685,13.862 5.559,13.587 5.397 C 13.385 5.279,12.941 5.247,12.774 5.338 M17.678 8.028 C 17.282 8.096,16.957 8.538,16.997 8.953 C 17.027 9.267,17.124 9.385,17.681 9.785 C 18.742 10.547,19.187 11.030,19.603 11.877 C 20.000 12.683,20.067 12.987,20.067 14.000 C 20.067 15.013,20.000 15.317,19.603 16.123 C 19.185 16.974,18.708 17.489,17.640 18.247 C 17.244 18.527,17.147 18.621,17.069 18.796 C 16.899 19.181,17.043 19.622,17.421 19.871 C 17.789 20.115,18.127 20.025,18.909 19.476 C 20.338 18.473,21.265 17.176,21.689 15.591 C 21.795 15.193,21.810 15.031,21.828 14.140 C 21.845 13.255,21.836 13.087,21.752 12.717 C 21.444 11.347,20.915 10.383,19.930 9.393 C 19.452 8.913,18.915 8.491,18.455 8.234 C 18.099 8.035,17.917 7.987,17.678 8.028 M12.215 14.000 C 12.215 16.323,12.202 18.609,12.186 19.081 L 12.157 19.940 10.733 18.754 C 8.846 17.181,8.351 16.778,8.224 16.712 C 8.151 16.673,7.511 16.644,6.124 16.618 C 3.874 16.575,3.880 16.576,3.655 16.235 L 3.523 16.037 3.523 14.027 C 3.523 11.754,3.520 11.779,3.889 11.534 L 4.076 11.410 6.087 11.387 C 7.201 11.374,8.128 11.344,8.167 11.320 C 8.400 11.175,9.176 10.551,10.570 9.388 L 12.157 8.064 12.186 8.920 C 12.202 9.391,12.215 11.677,12.215 14.000 " fill="#1A1C1F" stroke="none" fill-rule="evenodd"></path></svg>