<svg xmlns="http://www.w3.org/2000/svg" width="14" height="14" fill="none"><g clip-path="url(#a)"><path fill="#1A1C1F" fill-rule="evenodd" d="M11.18 2.097c.327 0 .696.219.696.683 0 .15-.04.3-.137.437l-8.427 8.468a.68.68 0 0 1-.491.192.726.726 0 0 1-.724-.71c0-.15.049-.293.164-.41l.935-.963C2.219 9.652 1.4 8.843 1.4 7.724V6.33c0-1.127.979-2.117 1.967-2.117h.642l1.926-1.27a.7.7 0 0 1 .382-.123c.342 0 .683.273.683.615v2.567l2.486-2.5-.164-.177a.62.62 0 0 1-.219-.491c0-.383.315-.724.71-.724.26 0 .356.082.684.41l.19-.22a.63.63 0 0 1 .492-.204zM5.606 4.815l-.792.546c-.298.206-.451.26-.615.26h-.697a.69.69 0 0 0-.696.71v1.393c0 .294.22.683.696.683H4.2c.14 0 .18.038.314.082l1.093-1.092zm.273 6.256L7 9.95v.546c0 .41-.3.724-.724.724-.123 0-.206-.041-.397-.15m2.104-2.104L9.8 7.177c-.068.684-.423 1.312-.942 1.777a.62.62 0 0 1-.424.15c-.15 0-.246-.027-.45-.137zm1.12 2.24c0-.191.082-.396.233-.532a5.1 5.1 0 0 0 1.857-3.716c0-.382-.04-.628-.177-1.024l1.092-1.08c.314.657.465 1.38.492 2.104-.068 1.858-.929 3.579-2.35 4.78a.64.64 0 0 1-.423.165c-.41 0-.724-.3-.724-.697" clip-rule="evenodd"/></g><defs><clipPath id="a"><path fill="#fff" d="M0 0h14v14H0z"/></clipPath></defs></svg>