<svg width="32" height="32" viewBox="0 0 32 32" fill="none" xmlns="http://www.w3.org/2000/svg"><path d="M21.563 6.116 C 21.397 6.210,20.076 7.294,17.099 9.776 L 15.664 10.973 13.605 11.001 C 11.929 11.024,11.488 11.045,11.231 11.116 C 10.304 11.372,9.537 12.075,9.184 12.993 L 9.042 13.360 9.024 15.759 C 9.004 18.448,9.032 18.833,9.282 19.344 C 9.558 19.906,10.237 20.516,10.877 20.776 C 11.348 20.968,11.919 21.013,13.865 21.015 L 15.653 21.016 18.345 23.257 C 21.730 26.076,21.540 25.930,21.870 25.962 C 22.198 25.993,22.535 25.874,22.749 25.651 C 22.878 25.516,22.909 25.428,22.941 25.105 C 22.992 24.605,22.990 7.269,22.939 6.867 C 22.875 6.354,22.586 6.090,22.040 6.045 C 21.807 6.025,21.692 6.043,21.563 6.116 M20.986 10.147 C 21.033 11.309,21.000 22.698,20.949 22.749 C 20.910 22.787,20.522 22.478,18.667 20.932 C 17.392 19.870,16.527 19.176,16.359 19.083 C 16.272 19.035,15.625 19.010,13.973 18.989 C 11.426 18.956,11.502 18.968,11.199 18.550 L 11.040 18.331 11.040 16.000 L 11.040 13.669 11.199 13.450 C 11.502 13.031,11.425 13.044,13.981 13.013 L 16.256 12.987 16.523 12.800 C 16.792 12.612,18.144 11.509,19.920 10.031 C 20.448 9.591,20.895 9.230,20.914 9.229 C 20.933 9.228,20.965 9.641,20.986 10.147 " fill="#1A1C1F" stroke="none" fill-rule="evenodd"></path></svg>