<svg xmlns="http://www.w3.org/2000/svg" width="14" height="14" fill="none"><g clip-path="url(#a)"><path fill="#1A1C1F" fill-rule="evenodd" d="M6.3 2.8c.394 0 .7.328.7.7v7a.69.69 0 0 1-.7.7.74.74 0 0 1-.372-.11L4.003 9.8H3.5c-1.16 0-2.1-.94-2.1-2.078v-1.4c0-1.16.94-2.122 2.1-2.122h.503l1.925-1.269A.6.6 0 0 1 6.3 2.8m-.7 2.013-1.006.678A.76.76 0 0 1 4.2 5.6h-.7c-.394 0-.7.328-.7.7v1.4c0 .394.306.7.7.7h.7a.6.6 0 0 1 .394.131l1.006.656zm2.8 4.265c.7 0 1.4-1.05 1.4-2.1S9.1 4.9 8.4 4.9c-.35 0-.7.328-.7.7 0 .678.7.678.7 1.378s-.7.7-.7 1.4c0 .35.35.7.7.7M9.8 11.9a.7.7 0 0 0 .46-.175 6.49 6.49 0 0 0 2.34-4.769c0-1.575-.853-3.26-2.319-4.66A.68.68 0 0 0 9.8 2.1a.72.72 0 0 0-.7.7c0 .197.088.394.219.525C10.5 4.419 11.2 5.797 11.2 6.956a5.13 5.13 0 0 1-1.86 3.719.7.7 0 0 0-.24.525c0 .394.328.7.7.7" clip-rule="evenodd"/></g><defs><clipPath id="a"><path fill="#fff" d="M0 0h14v14H0z"/></clipPath></defs></svg>