<svg width="20" height="20" viewBox="0 0 20 20" fill="none" xmlns="http://www.w3.org/2000/svg"><path d="M12.827 4.033 C 12.684 4.059,12.486 4.182,10.917 5.215 L 9.750 5.983 9.150 6.004 C 8.508 6.026,8.187 6.085,7.814 6.250 C 7.198 6.522,6.522 7.199,6.249 7.817 C 6.203 7.921,6.131 8.121,6.091 8.261 C 6.019 8.508,6.017 8.566,6.017 10.017 C 6.017 11.475,6.019 11.524,6.092 11.776 C 6.379 12.767,7.077 13.509,8.033 13.839 C 8.355 13.951,8.503 13.972,9.133 13.998 L 9.750 14.024 11.117 14.933 C 11.868 15.433,12.551 15.873,12.633 15.911 C 12.858 16.015,13.228 16.006,13.450 15.892 C 13.647 15.790,13.797 15.640,13.905 15.433 L 13.983 15.283 13.992 10.017 L 14.000 4.750 13.889 4.550 C 13.676 4.167,13.246 3.958,12.827 4.033 M11.978 8.089 C 12.013 9.914,12.005 13.067,11.966 13.067 C 11.930 13.067,11.647 12.893,11.017 12.483 C 10.797 12.340,10.521 12.178,10.404 12.123 C 10.195 12.025,10.180 12.023,9.468 12.001 C 8.814 11.981,8.731 11.971,8.591 11.904 C 8.397 11.810,8.192 11.606,8.101 11.418 C 8.032 11.277,8.031 11.237,8.040 9.977 L 8.050 8.682 8.162 8.508 C 8.223 8.412,8.331 8.288,8.400 8.233 C 8.635 8.047,8.714 8.031,9.535 8.002 C 10.206 7.978,10.312 7.967,10.439 7.905 C 10.518 7.866,10.883 7.633,11.250 7.386 C 11.617 7.139,11.925 6.937,11.936 6.936 C 11.947 6.934,11.966 7.453,11.978 8.089 " fill="#1A1C1F" stroke="none" fill-rule="evenodd"></path></svg>