<svg xmlns="http://www.w3.org/2000/svg" width="20" height="20" fill="none"><g clip-path="url(#a)"><path fill="#1A1C1F" fill-rule="evenodd" d="M9 4c.563 0 1 .469 1 1v10c0 .563-.438 1-1 1-.188 0-.375-.063-.531-.156L5.719 14H5c-1.656 0-3-1.344-3-2.969v-2C2 7.375 3.344 6 5 6h.719l2.75-1.813A.85.85 0 0 1 9 4M8 6.875l-1.438.969A1.1 1.1 0 0 1 6 8H5c-.563 0-1 .469-1 1v2c0 .563.438 1 1 1h1q.328 0 .563.188L8 13.124zm4 6.094c1 0 2-1.5 2-3S13 7 12 7c-.5 0-1 .469-1 1 0 .969 1 .969 1 1.969s-1 1-1 2c0 .5.5 1 1 1M14 17c.25 0 .469-.094.656-.25A9.27 9.27 0 0 0 18 9.937c0-2.25-1.219-4.656-3.313-6.656A.97.97 0 0 0 14 3c-.531 0-1 .469-1 1 0 .281.125.563.313.75C15 6.313 16 8.281 16 9.938a7.33 7.33 0 0 1-2.656 5.312A1 1 0 0 0 13 16c0 .563.469 1 1 1" clip-rule="evenodd"/></g><defs><clipPath id="a"><path fill="#fff" d="M0 0h20v20H0z"/></clipPath></defs></svg>