<svg xmlns="http://www.w3.org/2000/svg" width="32" height="32" fill="none"><g clip-path="url(#a)"><path fill="#1A1C1F" fill-rule="evenodd" d="M27 4c.547 0 1 .4 1 1a1 1 0 0 1-.281.711l-22.008 22A1 1 0 0 1 5 28c-.546 0-1-.4-1-1 0-.258.09-.52.281-.71l4.875-4.852L8.625 21H5a3 3 0 0 1-3-3v-4a3 3 0 0 1 3-3h3.625l5.75-4.786a.93.93 0 0 1 .604-.216A.994.994 0 0 1 16 7v7.594l3.719-3.75a.984.984 0 0 1 .671-1.701 1 1 0 0 1 .516.138l.25.156 2.188-2.187-.625-.375c-.328-.197-.514-.514-.514-.86 0-.54.433-1.022 1.001-1.022.165 0 .333.039.482.132l1.093.688L26.29 4.29A.99.99 0 0 1 27 4M14 9.125l-4.344 3.656A1.26 1.26 0 0 1 9 13H5c-.563 0-1 .438-1 1v4c0 .563.438 1 1 1h4c.219 0 .469.094.656.219l.906.78L14 16.595zM12.25 24l2.128 1.78A.995.995 0 0 0 16 25v-4.72zm7.15-2.138c0 .544.47 1.013 1.006 1.013.157 0 .34-.063.501-.155C23.531 21.216 25 18.844 25 16a7.3 7.3 0 0 0-1-3.75l-1.469 1.5c.282.625.469 1.375.469 2.25 0 2.688-1.688 4.194-3.096 4.997a1 1 0 0 0-.504.865m2.805 4.122c0 .567.457 1.016 1.014 1.016a.9.9 0 0 0 .47-.123A12.51 12.51 0 0 0 30 16c0-2.688-.875-5.22-2.406-7.344l-1.438 1.438A10.33 10.33 0 0 1 28 16c0 3.78-2.031 7.282-5.282 9.125a.98.98 0 0 0-.513.859" clip-rule="evenodd"/></g><defs><clipPath id="a"><path fill="#fff" d="M0 0h32v32H0z"/></clipPath></defs></svg>