<svg xmlns="http://www.w3.org/2000/svg" width="16" height="16" fill="none"><g clip-path="url(#a)"><path fill="#1A1C1F" fill-rule="evenodd" d="M10.408 3.2a.8.8 0 0 1 .797.797v8.007a.78.78 0 0 1-.797.797.8.8 0 0 1-.422-.126l-2.205-1.47h-.578c-1.33 0-2.408-1.078-2.408-2.376V7.22c0-1.314 1.079-2.424 2.408-2.424h.578L9.986 3.34a.7.7 0 0 1 .422-.14M9.61 5.498l-1.157.782c-.14.077-.295.12-.454.125h-.797a.8.8 0 0 0-.798.798v1.594c0 .454.344.798.798.798H8c.172 0 .328.078.454.156l1.157.75z" clip-rule="evenodd"/></g><defs><clipPath id="a"><path fill="#fff" d="M0 0h16v16H0z"/></clipPath></defs></svg>