<svg width="32" height="32" viewBox="0 0 32 32" fill="none" xmlns="http://www.w3.org/2000/svg"><path d="M22.784 5.124 C 22.445 5.296,22.277 5.546,22.253 5.912 C 22.219 6.429,22.349 6.605,23.200 7.183 C 25.640 8.843,27.086 10.951,27.767 13.840 C 27.914 14.464,27.918 14.518,27.918 16.000 C 27.918 17.482,27.914 17.536,27.767 18.160 C 27.223 20.468,26.152 22.334,24.551 23.767 C 23.984 24.274,23.593 24.575,22.976 24.980 C 22.435 25.334,22.286 25.517,22.252 25.867 C 22.188 26.534,22.688 27.046,23.332 26.974 C 23.965 26.902,25.897 25.395,26.999 24.112 C 27.687 23.312,28.198 22.530,28.693 21.520 C 29.317 20.248,29.681 19.071,29.890 17.646 C 30.001 16.888,30.002 15.118,29.891 14.354 C 29.678 12.883,29.131 11.194,28.491 10.027 C 27.566 8.342,26.054 6.694,24.431 5.603 C 23.553 5.013,23.202 4.911,22.784 5.124 M14.599 6.101 C 14.410 6.204,14.142 6.422,11.136 8.918 L 8.646 10.987 7.456 10.991 C 6.802 10.993,5.808 11.012,5.247 11.034 L 4.228 11.073 3.777 11.290 C 3.273 11.531,2.728 11.998,2.461 12.416 C 2.373 12.554,2.235 12.859,2.155 13.093 L 2.009 13.520 1.987 15.600 C 1.975 16.744,1.987 17.950,2.014 18.279 C 2.058 18.814,2.085 18.923,2.267 19.292 C 2.620 20.009,3.277 20.568,4.107 20.858 C 4.440 20.975,4.535 20.980,6.551 21.001 L 8.649 21.022 11.004 22.979 C 14.257 25.681,14.474 25.857,14.637 25.919 C 15.043 26.073,15.588 25.896,15.830 25.531 L 15.973 25.314 15.988 16.534 C 15.996 11.705,15.982 7.484,15.956 7.154 C 15.905 6.497,15.843 6.353,15.527 6.168 C 15.297 6.034,14.790 5.997,14.599 6.101 M20.154 9.196 C 19.666 9.365,19.380 9.773,19.425 10.237 C 19.459 10.589,19.591 10.750,20.196 11.178 C 21.388 12.020,21.928 12.606,22.404 13.573 C 22.857 14.494,22.933 14.843,22.933 16.000 C 22.933 17.138,22.858 17.493,22.434 18.371 C 21.954 19.363,21.418 19.955,20.231 20.802 C 19.560 21.280,19.465 21.389,19.428 21.721 C 19.369 22.242,19.671 22.682,20.184 22.826 C 20.500 22.914,20.667 22.866,21.190 22.538 C 23.180 21.289,24.395 19.602,24.863 17.440 C 25.019 16.718,25.019 15.282,24.863 14.560 C 24.526 13.001,23.911 11.875,22.775 10.733 C 22.212 10.168,21.556 9.659,21.031 9.380 C 20.591 9.146,20.407 9.108,20.154 9.196 M13.960 15.973 C 13.960 18.672,13.945 21.309,13.927 21.832 L 13.893 22.785 11.867 21.098 C 10.752 20.170,9.718 19.326,9.570 19.223 L 9.300 19.036 7.010 18.992 C 4.455 18.943,4.438 18.941,4.192 18.579 L 4.053 18.375 4.053 16.000 L 4.053 13.625 4.192 13.421 C 4.444 13.050,4.452 13.049,6.987 13.016 C 8.236 13.000,9.289 12.964,9.333 12.937 C 9.600 12.771,10.487 12.058,12.080 10.729 L 13.893 9.216 13.927 10.141 C 13.945 10.650,13.960 13.275,13.960 15.973 " fill="#1A1C1F" stroke="none" fill-rule="evenodd"></path></svg>