<svg xmlns="http://www.w3.org/2000/svg" width="20" height="20" fill="none"><g clip-path="url(#a)"><path fill="#1A1C1F" fill-rule="evenodd" d="M13.01 4a1 1 0 0 1 .997.997v10.006c0 .567-.43.997-.998.997a1 1 0 0 1-.527-.156l-2.755-1.838h-.723c-1.661 0-3.01-1.348-3.01-2.97V9.023c0-1.642 1.349-3.03 3.01-3.03h.723l2.755-1.817A.86.86 0 0 1 13.01 4m-.996 2.873-1.446.977a1.3 1.3 0 0 1-.567.156h-.997a1 1 0 0 0-.997.997v1.994c0 .566.43.997.997.997h.995c.215 0 .41.097.567.195l1.446.938V6.873z" clip-rule="evenodd"/></g><defs><clipPath id="a"><path fill="#fff" d="M0 0h20v20H0z"/></clipPath></defs></svg>