<svg xmlns="http://www.w3.org/2000/svg" width="32" height="32" fill="none"><path fill="#1A1C1F" fill-rule="evenodd" d="M26.613 4.081c-.102.046-.558.454-1.013.906l-.827.823-.638-.398c-.564-.352-.669-.399-.895-.399-.335 0-.562.1-.771.338-.147.167-.282.477-.282.649 0 .342.285.736.711.984.151.089.311.185.355.214.065.042-.132.265-1.009 1.144l-1.09 1.091-.222-.13c-.258-.151-.738-.178-.975-.054-.515.269-.676.812-.403 1.36l.141.282-1.847 1.848L16 14.586l-.001-3.893c-.001-3.687-.007-3.905-.101-4.113-.155-.34-.428-.518-.836-.544-.269-.017-.376 0-.518.084-.099.058-1.465 1.175-3.037 2.482L8.65 10.977 6.552 11c-1.812.019-2.139.035-2.392.116-.709.226-1.408.774-1.746 1.368a4 4 0 0 0-.289.689c-.123.395-.125.431-.125 2.854l.001 2.453.145.431c.268.79.844 1.449 1.565 1.791.592.28.874.309 3.009.313l1.947.003.24.211.24.21-2.492 2.494c-1.713 1.714-2.517 2.556-2.573 2.692-.323.782.419 1.579 1.232 1.322.169-.053 2.178-2.035 11.345-11.193C24.428 8.992 27.828 5.562 27.898 5.413c.203-.434.06-.978-.325-1.233-.258-.171-.697-.216-.96-.099m.253 5.293c-.374.374-.679.694-.679.71s.155.29.345.61a10.43 10.43 0 0 1 .358 9.985c-.55 1.094-1.037 1.782-1.872 2.642-.638.658-1.186 1.107-1.887 1.546-.582.365-.81.593-.89.89-.106.395.037.771.401 1.048.156.119.266.155.524.17.314.019.346.008.788-.257 2.171-1.302 4.01-3.404 5.002-5.716A12.3 12.3 0 0 0 29.988 16c-.005-1.988-.414-3.726-1.302-5.527-.318-.647-1.017-1.78-1.098-1.78-.024 0-.349.307-.722.681m-14.594 8.941-1.702 1.702-.46-.403c-.733-.643-.498-.596-3.15-.627-2.581-.03-2.51-.019-2.787-.438l-.146-.221v-4.656l.15-.227c.283-.428.289-.429 2.76-.43 1.792-.001 2.205-.016 2.4-.082.174-.06.817-.57 2.423-1.921l2.187-1.84.013 3.72.014 3.72zm11.324-5.659-.708.737-.338.353.161.5c.088.275.189.703.225.949.086.59.036 1.604-.108 2.192-.136.556-.542 1.402-.895 1.866-.389.513-1.097 1.154-1.705 1.547-.582.376-.755.57-.799.9a.995.995 0 0 0 .597 1.081c.42.19.658.115 1.543-.487.899-.612 1.775-1.504 2.335-2.378.411-.642.77-1.556.958-2.439.092-.433.116-.728.118-1.45.002-1.005-.07-1.494-.343-2.328-.169-.518-.536-1.343-.621-1.396-.028-.017-.217.142-.42.353m-9.489 9.504c-1.207 1.183-1.848 1.848-1.814 1.88.087.081 1.959 1.632 2.127 1.761.53.409 1.34.14 1.527-.507.039-.135.053-.976.042-2.583l-.016-2.381z"/></svg>