<svg xmlns="http://www.w3.org/2000/svg" width="24" height="24" fill="none"><g clip-path="url(#a)"><path fill="#1A1C1F" fill-rule="evenodd" d="M13 5c.563 0 1 .469 1 1v12c0 .563-.438 1-1 1-.188 0-.406-.031-.563-.156l-4.25-2.875H6.5a2.49 2.49 0 0 1-2.5-2.5V10.5C4 9.094 5.125 8 6.5 8h1.688l4.25-2.844C12.624 5.063 12.812 5 13 5m4 2c.188 0 .406.063.563.188C19.125 8.25 20 10.094 20 11.968c0 1.938-.875 3.782-2.438 4.845A.94.94 0 0 1 17 17c-.563 0-1-.469-1-1 0-.313.156-.625.438-.844C17.467 14.437 18 13.25 18 12c0-1.281-.531-2.469-1.563-3.188A.98.98 0 0 1 16 8c0-.563.469-1 1-1m-5 .875L9.062 9.813A.94.94 0 0 1 8.5 10h-2c-.281 0-.5.219-.5.469v3c0 .281.219.5.5.5h2c.188 0 .406.094.563.187L12 16.125z" clip-rule="evenodd"/></g><defs><clipPath id="a"><path fill="#fff" d="M0 0h24v24H0z"/></clipPath></defs></svg>