<svg width="32" height="32" viewBox="0 0 32 32" fill="none" xmlns="http://www.w3.org/2000/svg"><path d="M17.307 6.103 C 17.141 6.177,15.966 7.130,13.040 9.564 L 11.333 10.984 9.973 10.988 C 9.225 10.990,8.241 11.012,7.787 11.036 C 7.079 11.074,6.910 11.100,6.613 11.221 C 5.842 11.535,5.171 12.215,4.872 12.987 L 4.727 13.360 4.705 15.710 C 4.692 17.102,4.705 18.241,4.737 18.504 C 4.863 19.546,5.632 20.449,6.726 20.840 L 7.120 20.980 9.237 21.010 L 11.355 21.040 13.606 22.907 C 14.844 23.933,16.193 25.043,16.604 25.373 C 17.343 25.968,17.353 25.973,17.632 25.973 C 18.105 25.973,18.358 25.824,18.579 25.413 L 18.693 25.200 18.693 16.053 C 18.693 6.308,18.704 6.704,18.441 6.370 C 18.208 6.073,17.660 5.944,17.307 6.103 M16.693 16.027 L 16.693 22.880 14.547 21.092 C 13.366 20.108,12.316 19.245,12.213 19.174 L 12.026 19.044 9.665 18.993 C 7.058 18.938,7.186 18.957,6.897 18.579 L 6.747 18.382 6.747 16.002 C 6.747 13.347,6.726 13.497,7.128 13.190 L 7.325 13.040 9.627 13.013 L 11.928 12.987 12.164 12.831 C 12.467 12.632,13.314 11.943,15.147 10.405 C 15.953 9.728,16.631 9.174,16.653 9.174 C 16.675 9.174,16.693 12.257,16.693 16.027 M22.570 9.405 C 22.323 9.495,22.055 9.774,21.982 10.018 C 21.904 10.280,21.904 10.414,21.983 10.678 C 22.035 10.853,22.123 10.945,22.498 11.218 C 23.903 12.242,24.360 12.737,24.856 13.776 C 25.173 14.439,25.288 14.943,25.319 15.813 C 25.361 16.997,25.134 17.918,24.575 18.833 C 24.223 19.409,23.462 20.163,22.696 20.694 C 22.004 21.174,21.901 21.321,21.938 21.775 C 21.980 22.284,22.380 22.662,22.880 22.665 C 23.330 22.668,24.409 21.935,25.283 21.033 C 26.459 19.818,27.074 18.492,27.258 16.773 C 27.438 15.082,27.013 13.351,26.079 11.974 C 25.407 10.984,24.316 10.023,23.268 9.499 C 22.907 9.319,22.836 9.309,22.570 9.405 M21.335 13.162 C 21.121 13.198,20.768 13.474,20.667 13.686 C 20.557 13.918,20.553 14.269,20.657 14.517 C 20.697 14.614,20.854 14.837,21.006 15.013 C 21.370 15.437,21.493 15.699,21.493 16.049 C 21.493 16.405,21.395 16.611,21.027 17.023 C 20.682 17.409,20.587 17.612,20.587 17.954 C 20.587 18.488,21.009 18.907,21.546 18.903 C 22.253 18.898,22.917 18.207,23.310 17.067 C 23.409 16.782,23.430 16.606,23.429 16.080 C 23.428 15.321,23.372 15.052,23.092 14.472 C 22.666 13.590,21.955 13.059,21.335 13.162 " fill="#1A1C1F" stroke="none" fill-rule="evenodd"></path></svg>