<svg xmlns="http://www.w3.org/2000/svg" width="32" height="32" fill="none"><g clip-path="url(#a)"><path fill="#1A1C1F" fill-rule="evenodd" d="M17.688 6c.5 0 1 .406 1 1v18c0 .594-.5 1-1 1a.96.96 0 0 1-.625-.219L11.313 21H7.687c-1.594 0-3-1.25-3-2.813V14a3 3 0 0 1 3-3h3.625l5.75-4.781A.96.96 0 0 1 17.688 6m-1 3.125-4.375 3.656a1.05 1.05 0 0 1-.626.219h-4c-.562 0-1 .438-1 1v4c0 .563.438 1 1 1h4c.22 0 .472.09.626.219l4.374 3.656zm6.656.375c2.531 1.438 3.968 3.719 3.968 6.531 0 2.782-1.437 5.094-3.969 6.532a.9.9 0 0 1-.468.125.974.974 0 0 1-.97-.97c0-.343.157-.655.5-.843 1.907-1.094 2.97-2.781 2.97-4.844 0-2.062-1.062-3.75-2.97-4.843a.96.96 0 0 1-.5-.844c0-.438.345-1 .97-1 .157 0 .313.062.468.156m-2.782 8.469c0-.969.97-.969.97-1.938-.032-.968-.939-.968-.97-1.937-.03-.5.47-.969.97-.969.968 0 1.936 1.438 1.936 2.906s-.968 2.907-1.936 2.907c-.5 0-.97-.469-.97-.969" clip-rule="evenodd"/></g><defs><clipPath id="a"><path fill="#fff" d="M0 0h32v32H0z"/></clipPath></defs></svg>