<svg width="20" height="20" viewBox="0 0 20 20" fill="none" xmlns="http://www.w3.org/2000/svg"><path d="M10.810 4.032 C 10.684 4.062,10.709 4.046,9.040 5.141 L 7.731 6.000 7.457 6.001 C 7.044 6.001,6.419 6.060,6.189 6.120 C 5.803 6.219,5.308 6.508,4.940 6.849 C 4.576 7.187,4.253 7.736,4.090 8.297 C 4.019 8.542,4.017 8.599,4.019 10.050 L 4.021 11.550 4.114 11.833 C 4.463 12.889,5.219 13.620,6.254 13.902 C 6.460 13.958,6.647 13.977,7.117 13.990 L 7.717 14.007 8.967 14.832 C 10.402 15.780,10.631 15.921,10.816 15.971 C 11.201 16.075,11.705 15.835,11.910 15.450 C 11.978 15.323,11.982 15.252,12.009 13.917 C 12.049 11.932,12.018 4.853,11.969 4.693 C 11.916 4.522,11.696 4.253,11.526 4.154 C 11.413 4.088,11.017 3.988,10.933 4.004 C 10.924 4.005,10.869 4.018,10.810 4.032 M9.978 8.089 C 10.013 9.923,10.005 13.067,9.966 13.067 C 9.926 13.067,9.835 13.011,9.087 12.523 C 8.778 12.322,8.448 12.127,8.354 12.091 C 8.212 12.036,8.064 12.021,7.464 12.002 C 6.652 11.976,6.559 11.951,6.304 11.696 C 6.030 11.422,6.033 11.444,6.033 10.005 C 6.033 8.787,6.036 8.725,6.101 8.597 C 6.203 8.399,6.392 8.205,6.576 8.112 C 6.729 8.034,6.784 8.028,7.519 8.001 C 8.209 7.976,8.315 7.965,8.441 7.903 C 8.519 7.865,8.883 7.632,9.250 7.386 C 9.617 7.140,9.925 6.937,9.936 6.936 C 9.947 6.934,9.966 7.453,9.978 8.089 M13.789 7.035 C 13.503 7.106,13.115 7.493,13.032 7.789 C 12.971 8.008,13.009 8.303,13.130 8.545 C 13.187 8.658,13.360 8.892,13.514 9.065 C 13.891 9.488,13.946 9.602,13.961 9.993 C 13.972 10.271,13.965 10.320,13.888 10.476 C 13.841 10.572,13.688 10.777,13.549 10.933 C 13.214 11.306,13.118 11.448,13.053 11.665 C 12.986 11.893,12.986 12.073,13.053 12.301 C 13.128 12.552,13.469 12.892,13.735 12.981 C 14.704 13.304,15.906 11.820,15.989 10.200 C 16.033 9.332,15.711 8.330,15.180 7.687 C 14.776 7.197,14.208 6.930,13.789 7.035 " fill="#1A1C1F" stroke="none" fill-rule="evenodd"></path></svg>