<svg width="24" height="24" viewBox="0 0 24 24" fill="none" xmlns="http://www.w3.org/2000/svg"><path d="M12.739 5.054 C 12.530 5.122,11.951 5.490,9.900 6.859 L 8.220 7.980 7.140 8.007 C 5.969 8.036,5.833 8.057,5.398 8.278 C 4.660 8.653,4.160 9.329,4.037 10.120 C 4.007 10.317,3.997 10.997,4.008 12.216 L 4.023 14.020 4.138 14.300 C 4.294 14.682,4.471 14.950,4.747 15.222 C 5.056 15.526,5.316 15.695,5.680 15.826 C 5.973 15.932,6.005 15.935,7.077 15.951 L 8.175 15.967 10.057 17.237 C 12.449 18.850,12.632 18.964,12.856 18.990 C 13.270 19.036,13.671 18.833,13.878 18.471 L 13.999 18.260 13.999 12.380 C 13.999 9.127,13.982 6.300,13.962 6.053 C 13.921 5.562,13.873 5.433,13.673 5.276 C 13.366 5.037,13.034 4.958,12.739 5.054 M16.800 7.037 C 16.380 7.122,16.058 7.492,16.011 7.943 C 15.976 8.283,16.117 8.525,16.587 8.930 C 17.058 9.337,17.303 9.655,17.578 10.220 C 17.903 10.887,17.940 11.072,17.940 12.020 C 17.940 12.943,17.903 13.116,17.560 13.800 C 17.308 14.302,17.167 14.483,16.579 15.060 C 16.149 15.481,16.084 15.563,16.045 15.728 C 15.986 15.974,15.988 16.066,16.059 16.303 C 16.165 16.662,16.533 16.947,16.945 16.989 C 17.130 17.008,17.194 16.994,17.410 16.887 C 17.547 16.819,17.822 16.621,18.020 16.446 C 18.981 15.600,19.598 14.510,19.885 13.150 C 20.009 12.562,20.009 11.400,19.886 10.814 C 19.639 9.643,19.167 8.740,18.373 7.918 C 17.869 7.397,17.512 7.127,17.226 7.053 C 17.006 6.996,17.007 6.996,16.800 7.037 M12.000 11.999 L 12.000 16.118 10.750 15.288 C 8.956 14.096,8.854 14.037,8.506 13.997 C 8.349 13.978,7.787 13.963,7.258 13.962 L 6.296 13.960 6.161 13.821 L 6.027 13.683 6.023 12.051 C 6.022 11.154,6.034 10.372,6.050 10.313 C 6.067 10.254,6.139 10.164,6.210 10.113 C 6.337 10.022,6.365 10.020,7.543 10.000 L 8.745 9.980 9.123 9.751 C 9.330 9.626,10.058 9.154,10.740 8.703 C 11.422 8.252,11.985 7.883,11.990 7.882 C 11.995 7.881,12.000 9.734,12.000 11.999 " fill="#1A1C1F" stroke="none" fill-rule="evenodd"></path></svg>