<svg width="20" height="20" viewBox="0 0 20 20" fill="none" xmlns="http://www.w3.org/2000/svg"><path d="M15.655 3.046 C 15.528 3.082,15.440 3.145,15.238 3.343 L 14.983 3.595 14.757 3.383 C 14.438 3.084,14.291 3.019,13.986 3.042 C 13.408 3.086,13.027 3.484,13.020 4.050 C 13.016 4.340,13.097 4.521,13.358 4.803 L 13.540 5.000 11.795 6.770 L 10.050 8.541 10.028 8.262 C 10.016 8.109,10.005 7.251,10.003 6.357 C 10.000 4.798,9.997 4.725,9.933 4.600 C 9.695 4.132,9.087 3.919,8.630 4.142 C 8.530 4.191,7.836 4.637,7.088 5.132 L 5.727 6.033 5.255 6.034 C 4.571 6.035,4.254 6.075,3.952 6.201 C 3.237 6.499,2.635 7.083,2.280 7.821 C 2.042 8.317,2.031 8.406,2.010 9.872 C 1.990 11.290,2.006 11.507,2.166 11.980 C 2.339 12.493,2.477 12.713,2.882 13.120 C 3.226 13.467,3.275 13.503,3.634 13.679 C 3.845 13.782,4.126 13.893,4.259 13.925 C 4.391 13.957,4.500 13.994,4.500 14.008 C 4.500 14.021,4.294 14.250,4.042 14.517 C 3.054 15.563,3.001 15.636,3.000 15.944 C 3.000 16.292,3.228 16.656,3.565 16.846 C 3.730 16.938,3.775 16.948,4.032 16.946 C 4.234 16.945,4.349 16.927,4.429 16.886 C 4.490 16.854,5.330 16.051,6.295 15.102 C 8.772 12.667,16.469 4.898,16.787 4.513 C 16.979 4.280,17.017 3.826,16.868 3.537 C 16.661 3.136,16.117 2.916,15.655 3.046 M7.978 7.608 C 7.990 7.980,8.000 8.801,8.000 9.434 L 8.000 10.584 7.225 11.358 L 6.450 12.132 6.309 12.083 C 6.217 12.051,5.920 12.024,5.442 12.004 C 4.644 11.971,4.537 11.947,4.339 11.757 C 4.278 11.698,4.188 11.583,4.139 11.500 L 4.050 11.350 4.040 10.058 L 4.030 8.766 4.137 8.565 C 4.196 8.454,4.298 8.321,4.364 8.270 C 4.612 8.075,4.660 8.064,5.311 8.046 C 6.353 8.018,6.375 8.010,7.317 7.355 C 7.647 7.125,7.926 6.936,7.936 6.935 C 7.947 6.934,7.966 7.237,7.978 7.608 M16.509 7.709 L 15.737 8.483 15.817 8.759 C 16.033 9.497,16.010 10.433,15.750 11.452 C 15.410 12.784,14.708 13.947,13.609 15.000 C 13.179 15.413,13.083 15.556,13.028 15.867 C 12.933 16.404,13.364 16.940,13.931 16.991 C 14.328 17.026,14.520 16.911,15.219 16.217 C 15.866 15.574,16.364 14.926,16.806 14.150 C 17.437 13.043,17.845 11.722,17.971 10.374 C 18.035 9.690,17.955 9.004,17.699 8.040 C 17.606 7.693,17.360 7.016,17.305 6.959 C 17.292 6.946,16.934 7.283,16.509 7.709 M12.909 11.330 C 11.869 12.342,11.467 12.761,11.467 12.830 C 11.467 12.849,11.573 12.897,11.704 12.937 C 11.989 13.023,12.249 13.011,12.469 12.899 C 12.824 12.719,13.445 11.934,13.700 11.340 C 13.860 10.969,14.043 10.300,13.985 10.300 C 13.975 10.300,13.491 10.764,12.909 11.330 M9.171 15.045 L 8.393 15.824 8.538 15.893 C 8.785 16.012,8.973 16.045,9.165 16.003 C 9.501 15.931,9.762 15.732,9.905 15.438 C 9.970 15.303,9.981 15.217,9.993 14.775 C 10.001 14.495,9.994 14.267,9.978 14.267 C 9.962 14.267,9.599 14.617,9.171 15.045 " fill="#1A1C1F" stroke="none" fill-rule="evenodd"></path></svg>