<svg xmlns="http://www.w3.org/2000/svg" width="28" height="28" fill="none"><g clip-path="url(#a)"><path fill="#1A1C1F" fill-rule="evenodd" d="M19.25 5.25a.88.88 0 0 1 .875.875v15.75a.88.88 0 0 1-.875.875.84.84 0 0 1-.547-.192l-5.031-4.183H10.5c-1.394 0-2.625-1.094-2.625-2.461V12.25A2.626 2.626 0 0 1 10.5 9.625h3.172l5.03-4.184a.84.84 0 0 1 .548-.191m-.875 2.734-3.828 3.2a.95.95 0 0 1-.547.19h-3.5a.864.864 0 0 0-.875.876v3.5c0 .492.383.875.875.875H14a.95.95 0 0 1 .547.191l3.828 3.2z" clip-rule="evenodd"/></g><defs><clipPath id="a"><path fill="#fff" d="M0 0h28v28H0z"/></clipPath></defs></svg>