<svg width="24" height="24" viewBox="0 0 24 24" fill="none" xmlns="http://www.w3.org/2000/svg"><path d="M16.487 4.369 C 16.414 4.393,16.265 4.493,16.157 4.590 C 15.802 4.909,15.754 5.399,16.040 5.793 C 16.105 5.883,16.387 6.117,16.687 6.330 C 17.521 6.923,18.055 7.462,18.579 8.240 C 19.073 8.974,19.502 10.048,19.625 10.855 C 19.705 11.379,19.680 12.999,19.585 13.403 C 19.409 14.162,18.964 15.183,18.525 15.840 C 18.112 16.459,17.460 17.106,16.680 17.670 C 16.449 17.837,16.209 18.020,16.146 18.077 C 15.672 18.507,15.815 19.304,16.417 19.585 C 16.862 19.792,17.214 19.677,18.045 19.053 C 19.842 17.704,20.976 15.955,21.455 13.792 C 22.003 11.324,21.353 8.587,19.732 6.531 C 19.187 5.841,18.196 4.972,17.440 4.521 C 17.177 4.365,17.108 4.342,16.880 4.333 C 16.737 4.328,16.560 4.344,16.487 4.369 M11.166 5.004 C 10.984 5.059,10.677 5.255,8.479 6.720 L 6.579 7.988 5.459 8.010 C 4.376 8.031,4.331 8.035,4.064 8.136 C 3.262 8.440,2.747 8.952,2.490 9.699 L 2.380 10.020 2.380 12.000 C 2.380 13.930,2.382 13.987,2.468 14.260 C 2.658 14.863,3.129 15.432,3.672 15.713 C 4.203 15.987,4.296 16.004,5.520 16.036 L 6.620 16.066 8.688 17.454 C 9.826 18.218,10.858 18.896,10.982 18.961 C 11.240 19.097,11.449 19.113,11.725 19.019 C 11.979 18.932,12.274 18.659,12.330 18.460 C 12.362 18.346,12.379 16.497,12.389 12.006 L 12.403 5.713 12.295 5.529 C 12.168 5.311,12.033 5.179,11.836 5.078 C 11.655 4.986,11.341 4.951,11.166 5.004 M14.567 7.243 C 14.077 7.439,13.830 7.939,13.983 8.424 C 14.044 8.619,14.096 8.685,14.396 8.953 C 14.894 9.399,15.071 9.588,15.263 9.883 C 15.636 10.455,15.793 10.982,15.828 11.784 C 15.865 12.628,15.752 13.163,15.392 13.852 C 15.249 14.126,15.128 14.273,14.655 14.750 C 14.344 15.064,14.056 15.388,14.016 15.470 C 13.971 15.563,13.942 15.712,13.942 15.863 C 13.940 16.065,13.960 16.139,14.061 16.303 C 14.292 16.678,14.727 16.868,15.119 16.764 C 15.725 16.603,16.697 15.602,17.178 14.642 C 17.380 14.240,17.583 13.664,17.686 13.200 C 17.768 12.836,17.780 12.676,17.778 12.000 C 17.775 10.914,17.629 10.255,17.203 9.400 C 16.761 8.516,15.974 7.630,15.351 7.316 C 15.110 7.194,14.768 7.162,14.567 7.243 M10.374 8.310 C 10.407 8.809,10.407 15.672,10.374 15.947 L 10.350 16.154 8.985 15.244 C 8.234 14.744,7.510 14.268,7.375 14.185 L 7.130 14.035 5.915 14.005 C 4.627 13.973,4.578 13.965,4.450 13.770 C 4.387 13.674,4.379 13.505,4.367 12.032 C 4.354 10.443,4.356 10.396,4.436 10.267 C 4.576 10.039,4.627 10.030,5.940 10.004 L 7.140 9.979 7.480 9.773 C 7.667 9.660,8.378 9.196,9.060 8.744 C 9.742 8.291,10.311 7.921,10.324 7.921 C 10.337 7.920,10.360 8.095,10.374 8.310 " fill="#1A1C1F" stroke="none" fill-rule="evenodd"></path></svg>