<svg width="16" height="16" viewBox="0 0 16 16" fill="none" xmlns="http://www.w3.org/2000/svg"><path d="M8.653 3.225 C 8.549 3.251,8.424 3.329,7.206 4.129 L 6.185 4.800 5.953 4.800 C 5.624 4.801,5.139 4.847,4.948 4.896 C 4.859 4.919,4.705 4.979,4.605 5.029 C 3.951 5.357,3.543 5.830,3.302 6.540 L 3.218 6.787 3.206 7.816 C 3.198 8.483,3.204 8.934,3.223 9.097 C 3.336 10.057,4.059 10.877,5.011 11.123 C 5.159 11.162,5.342 11.180,5.693 11.191 L 6.173 11.206 7.217 11.897 C 8.467 12.726,8.579 12.787,8.824 12.786 C 9.138 12.783,9.426 12.594,9.548 12.310 L 9.606 12.175 9.618 8.788 C 9.632 4.970,9.613 3.801,9.536 3.655 C 9.455 3.504,9.242 3.316,9.101 3.271 C 8.935 3.219,8.753 3.200,8.653 3.225 M7.982 6.471 C 8.012 8.002,8.004 10.453,7.971 10.453 C 7.955 10.453,7.688 10.289,7.378 10.089 C 7.069 9.888,6.755 9.701,6.681 9.672 C 6.571 9.630,6.443 9.617,5.971 9.602 C 5.321 9.580,5.246 9.560,5.043 9.357 C 4.824 9.138,4.827 9.155,4.827 8.004 C 4.827 7.030,4.829 6.980,4.881 6.878 C 4.962 6.719,5.113 6.564,5.259 6.490 C 5.381 6.428,5.426 6.423,6.013 6.402 C 6.565 6.382,6.649 6.373,6.751 6.324 C 6.815 6.293,7.107 6.106,7.400 5.909 C 7.693 5.712,7.940 5.549,7.949 5.548 C 7.958 5.547,7.973 5.963,7.982 6.471 M11.032 5.629 C 10.794 5.685,10.484 6.001,10.425 6.248 C 10.348 6.568,10.460 6.858,10.811 7.252 C 11.113 7.591,11.157 7.682,11.169 7.994 C 11.178 8.218,11.172 8.256,11.110 8.381 C 11.072 8.457,10.950 8.622,10.838 8.747 C 10.473 9.152,10.415 9.272,10.416 9.613 C 10.418 9.881,10.468 9.988,10.693 10.195 C 10.975 10.457,11.237 10.488,11.614 10.307 C 12.091 10.078,12.516 9.463,12.708 8.725 C 13.033 7.480,12.380 5.924,11.415 5.642 C 11.256 5.596,11.184 5.593,11.032 5.629 " fill="#1A1C1F" stroke="none" fill-rule="evenodd"></path></svg>