<svg xmlns="http://www.w3.org/2000/svg" width="12" height="12" fill="none"><g clip-path="url(#a)"><path fill="#1A1C1F" fill-rule="evenodd" d="M7.812 2.388c.341 0 .6.282.6.6v6.024c0 .34-.259.6-.6.6a.6.6 0 0 1-.318-.094L5.835 8.412H5.4c-1 0-1.812-.812-1.812-1.788V5.412c0-.99.812-1.824 1.812-1.824h.435l1.66-1.094q.14-.106.317-.106m-.6 1.73-.87.588A.8.8 0 0 1 6 4.8h-.6c-.341 0-.6.282-.6.6v1.2c0 .34.259.6.6.6H6c.13 0 .247.059.341.118l.87.564z" clip-rule="evenodd"/></g><defs><clipPath id="a"><path fill="#fff" d="M0 0h12v12H0z"/></clipPath></defs></svg>