<svg width="16" height="16" viewBox="0 0 16 16" fill="none" xmlns="http://www.w3.org/2000/svg"><path d="M12.587 2.423 C 12.428 2.476,12.288 2.569,12.145 2.718 L 11.991 2.877 11.809 2.708 C 11.560 2.477,11.476 2.440,11.213 2.441 C 10.953 2.442,10.804 2.505,10.640 2.683 C 10.481 2.856,10.418 3.013,10.418 3.240 C 10.418 3.480,10.478 3.618,10.679 3.834 L 10.833 4.000 9.452 5.401 C 8.693 6.172,8.063 6.807,8.053 6.814 C 8.015 6.837,8.000 6.353,8.000 5.086 C 8.000 3.860,7.997 3.779,7.949 3.686 C 7.830 3.453,7.529 3.254,7.265 3.232 C 7.031 3.213,6.886 3.295,5.312 4.342 L 4.585 4.827 4.206 4.827 C 3.657 4.828,3.404 4.860,3.162 4.961 C 2.592 5.198,2.108 5.666,1.826 6.253 C 1.631 6.661,1.625 6.705,1.608 7.883 C 1.591 9.032,1.604 9.204,1.732 9.584 C 1.871 9.995,1.982 10.170,2.306 10.496 C 2.581 10.773,2.620 10.803,2.907 10.943 C 3.076 11.026,3.301 11.115,3.407 11.140 C 3.513 11.166,3.600 11.195,3.600 11.206 C 3.600 11.216,3.447 11.388,3.260 11.586 C 2.619 12.267,2.454 12.460,2.427 12.558 C 2.332 12.899,2.515 13.293,2.854 13.478 C 2.967 13.539,3.029 13.554,3.183 13.557 C 3.553 13.563,3.427 13.663,4.981 12.136 C 6.953 10.198,13.168 3.926,13.430 3.610 C 13.584 3.424,13.614 3.061,13.494 2.829 C 13.430 2.704,13.270 2.554,13.124 2.481 C 12.998 2.418,12.700 2.386,12.587 2.423 M6.382 6.007 C 6.392 6.260,6.400 6.917,6.400 7.466 L 6.400 8.466 5.784 9.083 L 5.167 9.700 5.047 9.663 C 4.976 9.642,4.688 9.617,4.349 9.603 C 3.716 9.577,3.629 9.557,3.471 9.405 C 3.422 9.358,3.350 9.266,3.311 9.200 L 3.240 9.080 3.232 8.046 L 3.224 7.013 3.310 6.852 C 3.357 6.763,3.438 6.657,3.491 6.616 C 3.689 6.460,3.728 6.451,4.249 6.437 C 5.082 6.414,5.100 6.408,5.853 5.884 C 6.117 5.700,6.340 5.549,6.349 5.548 C 6.358 5.547,6.373 5.754,6.382 6.007 M13.203 6.177 L 12.588 6.787 12.653 7.006 C 12.750 7.334,12.783 7.641,12.765 8.067 C 12.732 8.867,12.525 9.615,12.120 10.392 C 11.810 10.988,11.579 11.293,10.925 11.967 C 10.682 12.217,10.486 12.443,10.463 12.499 C 10.398 12.653,10.405 12.978,10.476 13.125 C 10.597 13.376,10.872 13.568,11.145 13.593 C 11.464 13.621,11.614 13.530,12.186 12.961 C 13.319 11.832,14.022 10.487,14.291 8.933 C 14.446 8.040,14.423 7.449,14.201 6.599 C 14.092 6.182,13.911 5.659,13.857 5.606 C 13.824 5.572,13.741 5.645,13.203 6.177 M10.353 9.038 C 9.535 9.834,9.173 10.210,9.173 10.264 C 9.173 10.318,9.541 10.408,9.705 10.393 C 9.922 10.373,10.063 10.291,10.307 10.042 C 10.651 9.690,10.931 9.227,11.076 8.769 C 11.149 8.537,11.208 8.266,11.189 8.247 C 11.183 8.241,10.807 8.597,10.353 9.038 M7.335 12.039 L 6.710 12.664 6.828 12.715 C 7.060 12.813,7.150 12.833,7.287 12.815 C 7.591 12.775,7.876 12.533,7.956 12.246 C 8.002 12.084,8.021 11.413,7.980 11.413 C 7.969 11.413,7.678 11.695,7.335 12.039 " fill="#1A1C1F" stroke="none" fill-rule="evenodd"></path></svg>