<svg xmlns="http://www.w3.org/2000/svg" width="24" height="24" fill="none"><g clip-path="url(#a)"><path fill="#1A1C1F" fill-rule="evenodd" d="M16.028 5c.564 0 .972.469.972 1v12c0 .563-.408 1-.972 1-.188 0-.439-.031-.564-.156L11.2 15.969H9.477c-1.38 0-2.477-1.094-2.477-2.5V10.5C7 9.094 8.097 8 9.477 8H11.2l4.263-2.844c.157-.093.377-.156.565-.156m-1.034 2.875-2.947 1.938a.94.94 0 0 1-.564.187H9.477a.46.46 0 0 0-.47.469v3c0 .281.187.5.47.5h2.006c.188 0 .407.094.564.187l2.947 1.969z" clip-rule="evenodd"/></g><defs><clipPath id="a"><path fill="#fff" d="M0 0h24v24H0z"/></clipPath></defs></svg>