<svg xmlns="http://www.w3.org/2000/svg" width="12" height="12" fill="none"><g clip-path="url(#a)"><path fill="#1A1C1F" fill-rule="evenodd" d="M6.613 2.388c.34 0 .604.282.604.602v6.02a.595.595 0 0 1-.604.602.64.64 0 0 1-.32-.094l-1.66-1.11h-.434c-1 0-1.811-.81-1.811-1.787V5.417c0-.997.811-1.825 1.81-1.825h.435L6.293 2.5a.5.5 0 0 1 .32-.113m-.604 1.73-.867.584a.65.65 0 0 1-.34.094h-.603a.607.607 0 0 0-.604.602v1.204c0 .339.264.602.604.602h.603a.66.66 0 0 1 .34.113l.867.564V4.118m1.792 3.086c0-.602.604-.602.604-1.185 0-.602-.604-.602-.604-1.204 0-.301.302-.621.604-.621.603 0 1.207.903 1.207 1.825 0 .903-.604 1.806-1.207 1.806-.302 0-.604-.301-.604-.621" clip-rule="evenodd"/></g><defs><clipPath id="a"><path fill="#fff" d="M0 0h12v12H0z"/></clipPath></defs></svg>