<svg width="20" height="20" viewBox="0 0 20 20" fill="none" xmlns="http://www.w3.org/2000/svg"><path d="M13.729 3.045 C 13.275 3.211,12.972 3.645,13.010 4.075 C 13.036 4.369,13.140 4.535,13.617 5.050 C 14.453 5.951,14.909 6.586,15.331 7.436 C 15.710 8.199,15.918 8.902,15.982 9.633 C 16.047 10.382,15.746 11.771,15.325 12.672 C 14.938 13.498,14.522 14.072,13.696 14.918 C 13.047 15.584,13.018 15.631,13.019 16.017 C 13.020 16.291,13.103 16.493,13.298 16.694 C 13.533 16.936,13.919 17.052,14.222 16.970 C 14.694 16.842,15.737 15.798,16.439 14.750 C 17.506 13.156,18.083 11.149,17.967 9.430 C 17.862 7.861,17.094 6.090,15.858 4.567 C 15.164 3.711,14.574 3.136,14.323 3.072 C 14.078 3.009,13.856 2.999,13.729 3.045 M8.828 4.033 C 8.690 4.058,8.438 4.214,6.855 5.257 L 5.726 6.000 5.405 6.000 C 4.910 6.001,4.369 6.058,4.133 6.136 C 3.133 6.464,2.371 7.273,2.093 8.300 C 2.019 8.576,2.017 8.620,2.019 10.067 L 2.021 11.550 2.113 11.833 C 2.393 12.686,2.926 13.314,3.683 13.684 C 4.151 13.912,4.398 13.966,5.125 13.996 L 5.752 14.022 7.051 14.890 C 8.715 16.002,8.682 15.983,9.000 15.983 C 9.420 15.983,9.723 15.785,9.929 15.376 L 10.000 15.236 10.000 10.041 C 10.000 4.097,10.031 4.659,9.686 4.315 C 9.533 4.162,9.446 4.103,9.333 4.075 C 9.117 4.021,8.967 4.008,8.828 4.033 M7.993 10.083 C 7.994 11.587,7.985 12.878,7.973 12.954 L 7.950 13.091 7.233 12.627 C 6.839 12.372,6.462 12.135,6.396 12.100 C 6.293 12.046,6.160 12.032,5.493 12.005 C 4.670 11.973,4.635 11.966,4.387 11.787 C 4.333 11.748,4.232 11.628,4.162 11.520 L 4.033 11.323 4.033 10.027 C 4.033 8.568,4.027 8.611,4.285 8.335 C 4.550 8.052,4.607 8.036,5.511 8.002 C 6.218 7.976,6.312 7.965,6.443 7.900 C 6.524 7.860,6.896 7.620,7.270 7.368 L 7.950 6.910 7.971 7.130 C 7.982 7.251,7.992 8.580,7.993 10.083 M11.610 7.097 C 11.438 7.177,11.194 7.415,11.106 7.588 C 11.007 7.784,10.986 8.026,11.047 8.266 C 11.109 8.506,11.201 8.649,11.547 9.033 C 11.898 9.425,11.947 9.535,11.961 9.957 C 11.972 10.273,11.966 10.308,11.884 10.460 C 11.835 10.549,11.661 10.779,11.497 10.970 C 11.159 11.364,11.044 11.569,11.013 11.836 C 10.980 12.129,11.061 12.354,11.289 12.601 C 11.393 12.712,11.520 12.826,11.572 12.853 C 11.839 12.991,12.278 12.971,12.580 12.806 C 12.799 12.687,13.182 12.303,13.383 12.001 C 13.583 11.700,13.766 11.281,13.880 10.865 C 13.958 10.582,13.967 10.491,13.967 9.966 C 13.967 9.481,13.955 9.340,13.898 9.133 C 13.641 8.193,13.161 7.487,12.562 7.167 C 12.374 7.066,12.316 7.052,12.050 7.042 C 11.805 7.033,11.724 7.043,11.610 7.097 " fill="#1A1C1F" stroke="none" fill-rule="evenodd"></path></svg>