<svg width="14" height="14" viewBox="0 0 14 14" fill="none" xmlns="http://www.w3.org/2000/svg"><path d="M10.970 2.126 C 10.891 2.145,10.826 2.191,10.678 2.333 L 10.488 2.515 10.330 2.367 C 10.104 2.157,10.004 2.114,9.785 2.130 C 9.681 2.138,9.572 2.163,9.511 2.192 C 9.266 2.310,9.115 2.555,9.113 2.835 C 9.111 3.037,9.164 3.154,9.347 3.357 L 9.478 3.500 8.256 4.739 L 7.035 5.978 7.020 5.783 C 7.011 5.676,7.004 5.076,7.002 4.450 C 7.000 3.380,6.997 3.306,6.956 3.225 C 6.850 3.018,6.601 2.850,6.367 2.829 C 6.152 2.810,6.042 2.872,4.683 3.776 L 4.012 4.223 3.680 4.224 C 3.200 4.224,2.978 4.253,2.766 4.341 C 2.294 4.538,1.859 4.945,1.623 5.411 C 1.588 5.480,1.523 5.646,1.480 5.780 L 1.400 6.023 1.400 6.949 C 1.400 7.926,1.411 8.063,1.509 8.365 C 1.625 8.724,1.734 8.899,2.017 9.184 C 2.258 9.427,2.293 9.452,2.544 9.575 C 2.692 9.648,2.888 9.725,2.981 9.748 C 3.074 9.770,3.150 9.796,3.150 9.805 C 3.150 9.825,2.968 10.024,2.546 10.465 C 2.125 10.905,2.112 10.927,2.112 11.163 C 2.113 11.327,2.122 11.368,2.181 11.475 C 2.317 11.723,2.529 11.858,2.788 11.862 C 3.109 11.868,3.004 11.951,4.324 10.654 C 6.012 8.995,11.524 3.433,11.751 3.159 C 11.886 2.996,11.912 2.678,11.807 2.476 C 11.663 2.198,11.302 2.047,10.970 2.126 M5.585 5.361 C 5.593 5.640,5.600 6.215,5.600 6.638 L 5.600 7.408 5.061 7.948 L 4.521 8.487 4.418 8.456 C 4.360 8.439,4.096 8.416,3.808 8.403 C 3.251 8.379,3.176 8.362,3.037 8.230 C 2.994 8.189,2.931 8.108,2.897 8.050 L 2.835 7.945 2.828 7.041 L 2.821 6.136 2.896 5.995 C 2.937 5.918,3.009 5.825,3.055 5.789 C 3.228 5.652,3.262 5.644,3.718 5.632 C 4.447 5.613,4.462 5.607,5.122 5.148 C 5.353 4.988,5.548 4.856,5.555 4.855 C 5.563 4.854,5.576 5.082,5.585 5.361 M11.552 5.404 L 11.015 5.938 11.071 6.128 C 11.304 6.917,11.144 8.010,10.649 9.005 C 10.364 9.579,10.086 9.952,9.546 10.485 C 9.158 10.868,9.114 10.940,9.115 11.199 C 9.116 11.395,9.152 11.503,9.264 11.645 C 9.354 11.758,9.585 11.875,9.755 11.892 C 10.026 11.920,10.165 11.837,10.640 11.364 C 11.640 10.369,12.243 9.234,12.494 7.875 C 12.638 7.098,12.621 6.526,12.435 5.798 C 12.352 5.478,12.168 4.951,12.121 4.902 C 12.094 4.875,12.009 4.950,11.552 5.404 M9.052 7.916 C 8.327 8.622,8.027 8.934,8.027 8.981 C 8.027 9.015,8.316 9.100,8.433 9.100 C 8.610 9.100,8.760 9.039,8.904 8.907 C 9.165 8.669,9.465 8.240,9.613 7.891 C 9.687 7.718,9.809 7.271,9.794 7.227 C 9.789 7.213,9.455 7.523,9.052 7.916 M6.418 10.534 L 5.870 11.082 6.009 11.145 C 6.289 11.273,6.590 11.214,6.800 10.990 C 6.963 10.815,6.983 10.751,6.995 10.343 C 7.000 10.147,6.996 9.987,6.985 9.987 C 6.974 9.987,6.718 10.233,6.418 10.534 " fill="#1A1C1F" stroke="none" fill-rule="evenodd"></path></svg>