<svg width="12" height="12" viewBox="0 0 12 12" fill="none" xmlns="http://www.w3.org/2000/svg"><path d="M6.480 2.414 C 6.424 2.425,6.120 2.617,5.239 3.195 L 4.630 3.595 4.260 3.606 C 3.833 3.618,3.678 3.650,3.427 3.776 C 3.046 3.968,2.708 4.309,2.559 4.652 C 2.408 4.997,2.381 5.198,2.382 6.000 C 2.382 6.684,2.403 6.932,2.479 7.160 C 2.578 7.459,2.680 7.620,2.920 7.860 C 3.312 8.252,3.657 8.387,4.350 8.417 L 4.670 8.430 5.360 8.892 C 6.270 9.501,6.359 9.556,6.501 9.592 C 6.608 9.619,6.632 9.619,6.742 9.591 C 6.870 9.558,6.945 9.516,7.057 9.412 C 7.160 9.316,7.181 9.256,7.201 9.003 C 7.211 8.875,7.219 7.442,7.219 5.820 L 7.220 2.870 7.171 2.766 C 7.114 2.643,6.982 2.505,6.870 2.451 C 6.790 2.412,6.583 2.393,6.480 2.414 M5.987 4.343 C 6.004 4.579,6.000 7.617,5.983 7.753 L 5.970 7.855 5.740 7.707 C 5.256 7.394,5.008 7.245,4.950 7.232 C 4.917 7.225,4.696 7.211,4.460 7.202 C 4.154 7.189,4.009 7.176,3.957 7.154 C 3.853 7.111,3.724 6.988,3.668 6.877 L 3.620 6.781 3.620 6.000 C 3.620 5.119,3.616 5.144,3.780 4.980 C 3.930 4.830,3.966 4.821,4.475 4.801 C 4.804 4.788,4.955 4.774,5.020 4.751 C 5.069 4.733,5.299 4.593,5.530 4.440 C 5.761 4.286,5.955 4.160,5.962 4.160 C 5.969 4.160,5.980 4.242,5.987 4.343 M8.261 4.222 C 8.114 4.267,7.937 4.430,7.849 4.600 C 7.823 4.650,7.813 4.716,7.812 4.832 C 7.812 5.043,7.862 5.147,8.090 5.400 C 8.184 5.505,8.288 5.643,8.320 5.708 C 8.375 5.816,8.380 5.844,8.380 6.024 C 8.380 6.283,8.362 6.319,8.054 6.660 C 7.863 6.872,7.812 6.984,7.813 7.188 C 7.814 7.384,7.857 7.490,7.995 7.627 C 8.132 7.765,8.238 7.810,8.421 7.810 C 8.555 7.810,8.589 7.802,8.721 7.736 C 9.111 7.543,9.445 7.028,9.571 6.423 C 9.616 6.208,9.612 5.802,9.563 5.570 C 9.436 4.968,9.074 4.432,8.683 4.263 C 8.563 4.211,8.361 4.192,8.261 4.222 " fill="#1A1C1F" stroke="none" fill-rule="evenodd"></path></svg>