<svg width="14" height="14" viewBox="0 0 14 14" fill="none" xmlns="http://www.w3.org/2000/svg"><path d="M7.572 2.822 C 7.480 2.844,7.368 2.914,6.305 3.613 L 5.411 4.200 5.220 4.200 C 4.931 4.201,4.493 4.242,4.332 4.284 C 4.164 4.327,3.927 4.442,3.734 4.573 C 3.315 4.857,3.024 5.270,2.866 5.801 C 2.812 5.983,2.812 5.999,2.813 7.035 L 2.815 8.085 2.880 8.283 C 3.072 8.873,3.447 9.315,3.978 9.579 C 4.296 9.736,4.486 9.777,4.982 9.792 L 5.402 9.805 6.314 10.410 C 7.409 11.135,7.506 11.189,7.721 11.187 C 7.978 11.186,8.215 11.043,8.337 10.815 C 8.385 10.727,8.388 10.679,8.403 9.952 C 8.423 8.937,8.423 4.579,8.403 3.850 C 8.385 3.204,8.384 3.202,8.192 3.010 C 8.043 2.861,7.760 2.775,7.572 2.822 M6.985 5.711 C 7.010 7.110,7.004 9.147,6.975 9.147 C 6.961 9.147,6.801 9.051,6.619 8.933 C 6.067 8.577,5.925 8.491,5.825 8.454 C 5.757 8.429,5.581 8.414,5.225 8.402 C 4.657 8.383,4.591 8.366,4.413 8.187 C 4.221 7.995,4.223 8.011,4.223 7.003 C 4.223 6.151,4.225 6.107,4.271 6.018 C 4.342 5.879,4.474 5.744,4.603 5.679 C 4.710 5.624,4.749 5.620,5.263 5.601 C 5.747 5.583,5.821 5.576,5.909 5.532 C 5.964 5.505,6.218 5.342,6.475 5.170 C 6.732 4.998,6.948 4.856,6.955 4.855 C 6.963 4.854,6.976 5.239,6.985 5.711 M9.653 4.924 C 9.442 4.977,9.173 5.252,9.122 5.467 C 9.055 5.747,9.152 6.000,9.460 6.345 C 9.724 6.642,9.763 6.722,9.773 6.995 C 9.780 7.191,9.775 7.224,9.721 7.333 C 9.688 7.400,9.571 7.555,9.462 7.677 C 9.138 8.038,9.046 8.295,9.133 8.593 C 9.185 8.775,9.372 8.976,9.570 9.064 C 9.695 9.121,9.732 9.127,9.854 9.115 C 10.509 9.046,11.143 8.117,11.192 7.152 C 11.223 6.531,11.001 5.835,10.626 5.381 C 10.343 5.038,9.946 4.851,9.653 4.924 " fill="#1A1C1F" stroke="none" fill-rule="evenodd"></path></svg>