<svg xmlns="http://www.w3.org/2000/svg" width="28" height="28" fill="none"><g clip-path="url(#a)"><path fill="#1A1C1F" fill-rule="evenodd" d="M13.125 5.25a.88.88 0 0 1 .875.875v15.75a.88.88 0 0 1-.875.875.84.84 0 0 1-.547-.191l-5.031-4.184H4.375c-1.395 0-2.625-1.093-2.625-2.46V12.25a2.626 2.626 0 0 1 2.625-2.625h3.172l5.031-4.184a.84.84 0 0 1 .547-.191m-.875 2.734-3.828 3.2a.92.92 0 0 1-.547.191h-3.5a.865.865 0 0 0-.875.875v3.5c0 .492.383.875.875.875h3.5a.92.92 0 0 1 .547.191l3.828 3.2zm5.605 12.032a.9.9 0 0 0 .438-.137c2.242-1.285 3.582-3.336 3.582-5.879s-1.34-4.594-3.582-5.879a.9.9 0 0 0-.438-.137.9.9 0 0 0-.875.875c0 .329.165.602.438.766 1.75.984 2.707 2.516 2.707 4.375 0 1.86-.957 3.39-2.707 4.375a.882.882 0 0 0 .438 1.64zm2.461 3.609a.77.77 0 0 0 .41-.11A10.93 10.93 0 0 0 26.25 14a10.93 10.93 0 0 0-5.523-9.516.77.77 0 0 0-.41-.109.864.864 0 0 0-.876.875c0 .3.137.602.438.766A9.16 9.16 0 0 1 24.5 14a9.16 9.16 0 0 1-4.621 7.984.85.85 0 0 0-.438.766c0 .465.383.875.875.875" clip-rule="evenodd"/></g><defs><clipPath id="a"><path fill="#fff" d="M0 0h28v28H0z"/></clipPath></defs></svg>