<svg xmlns="http://www.w3.org/2000/svg" width="28" height="28" fill="none"><g clip-path="url(#a)"><path fill="#1A1C1F" fill-rule="evenodd" d="M15.477 5.25a.88.88 0 0 1 .875.875v15.75a.88.88 0 0 1-.876.875.84.84 0 0 1-.546-.191l-5.031-4.184H6.727c-1.395 0-2.626-1.094-2.626-2.46V12.25a2.626 2.626 0 0 1 2.625-2.625H9.9l5.03-4.184a.84.84 0 0 1 .547-.191M14.6 7.984l-3.828 3.2a.92.92 0 0 1-.546.191h-3.5a.865.865 0 0 0-.876.875v3.5c0 .492.383.875.875.875h3.5a.92.92 0 0 1 .547.191l3.829 3.2zm5.824.329c2.215 1.257 3.473 3.253 3.473 5.714 0 2.434-1.258 4.457-3.472 5.715a.77.77 0 0 1-.41.11.85.85 0 0 1-.848-.848c0-.3.137-.574.438-.738 1.667-.957 2.597-2.434 2.597-4.239s-.93-3.28-2.597-4.238a.84.84 0 0 1-.439-.738c0-.383.301-.875.848-.875.137 0 .273.055.41.137m-2.433 7.41c0-.848.848-.848.848-1.696-.027-.847-.82-.847-.848-1.695-.027-.437.41-.848.848-.848.848 0 1.695 1.258 1.695 2.543s-.848 2.543-1.695 2.543c-.437 0-.848-.41-.848-.847" clip-rule="evenodd"/></g><defs><clipPath id="a"><path fill="#fff" d="M0 0h28v28H0z"/></clipPath></defs></svg>