<svg xmlns="http://www.w3.org/2000/svg" width="20" height="20" fill="none"><g clip-path="url(#a)"><path fill="#1A1C1F" fill-rule="evenodd" d="M15.97 2.995c.469 0 .996.312.996.976 0 .214-.059.429-.195.624L4.73 16.693a.97.97 0 0 1-.702.273 1.037 1.037 0 0 1-1.034-1.015c0-.214.07-.417.234-.585l1.337-1.375C3.17 13.788 2 12.631 2 11.035v-1.99C2 7.435 3.398 6.02 4.81 6.02h.917l2.751-1.815a1 1 0 0 1 .546-.176c.488 0 .976.39.976.878v3.669l3.551-3.571-.234-.254a.88.88 0 0 1-.312-.702c0-.547.449-1.035 1.014-1.035.371 0 .508.118.976.586l.273-.312c.182-.208.429-.293.702-.293M8.01 6.878l-1.132.78c-.425.294-.644.371-.878.371h-.995a.99.99 0 0 0-.995 1.016v1.99c0 .42.315.976.995.976H6c.2 0 .257.054.449.117l1.56-1.561zm.39 8.936 1.6-1.6v.781c0 .585-.43 1.034-1.034 1.034-.176 0-.293-.059-.566-.215m3.005-3.004L14 10.254c-.098.975-.605 1.873-1.346 2.536a.9.9 0 0 1-.605.215c-.215 0-.351-.04-.644-.195m1.6 3.2c0-.274.117-.566.332-.761a7.28 7.28 0 0 0 2.653-5.308c0-.546-.058-.897-.253-1.463l1.56-1.542c.45.937.664 1.971.703 3.005-.098 2.654-1.327 5.113-3.356 6.83a.9.9 0 0 1-.605.234c-.585 0-1.034-.43-1.034-.995" clip-rule="evenodd"/></g><defs><clipPath id="a"><path fill="#fff" d="M0 0h20v20H0z"/></clipPath></defs></svg>