<svg width="28" height="28" viewBox="0 0 28 28" fill="none" xmlns="http://www.w3.org/2000/svg"><path d="M15.143 5.340 C 14.998 5.405,13.970 6.239,11.410 8.369 L 9.917 9.611 8.727 9.614 C 8.072 9.616,7.211 9.635,6.813 9.656 C 6.194 9.690,6.046 9.713,5.787 9.819 C 5.112 10.093,4.525 10.688,4.263 11.363 L 4.136 11.690 4.117 13.746 C 4.106 14.964,4.117 15.961,4.145 16.191 C 4.255 17.102,4.927 17.892,5.886 18.235 L 6.230 18.358 8.075 18.376 L 9.920 18.394 11.015 19.307 C 13.990 21.788,15.042 22.644,15.171 22.689 C 15.545 22.819,16.067 22.608,16.251 22.251 C 16.336 22.086,16.340 21.874,16.362 16.698 C 16.375 13.738,16.368 10.076,16.348 8.560 L 16.310 5.803 16.175 5.626 C 15.940 5.318,15.478 5.190,15.143 5.340 M14.607 14.023 L 14.607 20.020 12.728 18.455 C 11.695 17.595,10.771 16.835,10.673 16.768 L 10.497 16.645 8.447 16.613 C 6.178 16.577,6.293 16.594,6.035 16.256 L 5.903 16.084 5.903 14.004 L 5.903 11.923 6.010 11.774 C 6.069 11.691,6.184 11.576,6.267 11.517 C 6.416 11.410,6.424 11.410,8.427 11.387 L 10.437 11.363 10.644 11.227 C 10.908 11.053,11.650 10.450,13.253 9.104 C 13.959 8.512,14.552 8.027,14.572 8.027 C 14.591 8.027,14.607 10.725,14.607 14.023 M19.749 8.230 C 19.220 8.421,19.003 9.181,19.371 9.557 C 19.448 9.636,19.715 9.844,19.964 10.019 C 21.043 10.777,21.742 11.722,22.032 12.810 C 22.181 13.372,22.205 14.393,22.083 14.980 C 21.812 16.286,21.160 17.197,19.836 18.122 C 19.255 18.528,19.163 18.660,19.196 19.053 C 19.233 19.501,19.583 19.830,20.025 19.832 C 20.239 19.834,20.732 19.587,21.163 19.263 C 21.579 18.951,22.298 18.259,22.584 17.897 C 24.037 16.055,24.300 13.310,23.228 11.177 C 22.652 10.030,21.623 8.981,20.488 8.382 C 20.054 8.154,19.993 8.141,19.749 8.230 M18.496 11.592 C 18.169 11.745,18.013 11.977,18.013 12.309 C 18.013 12.630,18.086 12.795,18.380 13.137 C 18.699 13.507,18.807 13.737,18.807 14.043 C 18.807 14.355,18.721 14.534,18.399 14.895 C 18.097 15.233,18.013 15.410,18.013 15.709 C 18.013 16.177,18.383 16.543,18.853 16.540 C 19.479 16.536,20.071 15.912,20.399 14.910 C 20.487 14.642,20.505 14.487,20.503 14.047 C 20.498 13.402,20.447 13.164,20.204 12.661 C 19.990 12.216,19.597 11.764,19.306 11.627 C 18.977 11.472,18.770 11.463,18.496 11.592 " fill="#1A1C1F" stroke="none" fill-rule="evenodd"></path></svg>