<svg xmlns="http://www.w3.org/2000/svg" width="12" height="12" fill="none"><g clip-path="url(#a)"><path fill="#1A1C1F" fill-rule="evenodd" d="M5.398 2.388c.339 0 .602.282.602.602v6.02a.594.594 0 0 1-.602.602.63.63 0 0 1-.32-.094l-1.655-1.11H2.99a1.803 1.803 0 0 1-1.806-1.787V5.417c0-.997.809-1.825 1.806-1.825h.433l1.655-1.091a.5.5 0 0 1 .32-.113m-.602 1.73-.865.584a.65.65 0 0 1-.339.094H2.99a.606.606 0 0 0-.602.602v1.204c0 .339.263.602.602.602h.602q.198 0 .339.113l.865.564V4.118m2.408 3.67c.602 0 1.204-.904 1.204-1.807s-.602-1.787-1.204-1.787c-.301 0-.602.282-.602.602 0 .583.602.583.602 1.185s-.602.602-.602 1.204c0 .301.301.603.602.603m1.204 2.426c.15 0 .282-.056.395-.15a5.58 5.58 0 0 0 2.013-4.102c0-1.354-.734-2.803-1.994-4.007a.584.584 0 0 0-.835.012.62.62 0 0 0-.181.421c0 .17.075.339.188.452 1.016.94 1.618 2.125 1.618 3.122a4.4 4.4 0 0 1-1.599 3.199.6.6 0 0 0-.207.451c0 .339.282.602.602.602" clip-rule="evenodd"/></g><defs><clipPath id="a"><path fill="#fff" d="M0 0h12v12H0z"/></clipPath></defs></svg>