<svg xmlns="http://www.w3.org/2000/svg" width="32" height="32" fill="none"><path fill="#1A1C1F" fill-rule="evenodd" d="M17.24 6.12c-.094.051-1.456 1.161-3.026 2.467L11.36 10.96l-2.093.031c-1.81.026-2.133.043-2.387.126-1.074.349-1.839 1.144-2.106 2.188-.115.453-.118 5.082-.003 5.515.276 1.036 1.195 1.882 2.296 2.113.287.061.819.079 2.32.081l1.946.002 2.943 2.447c1.619 1.346 2.999 2.466 3.067 2.488.202.066.6.041.773-.049.263-.136.481-.426.545-.727.083-.386.083-17.964 0-18.35-.067-.314-.302-.617-.565-.726-.24-.101-.651-.09-.856.021m-.547 9.881v6.882l-2.253-1.884c-1.239-1.036-2.301-1.906-2.36-1.934-.059-.027-1.151-.062-2.427-.077-1.621-.02-2.352-.047-2.426-.09a1.6 1.6 0 0 1-.447-.481c-.042-.081-.06-.821-.06-2.416 0-1.876.014-2.326.075-2.444.101-.193.345-.417.528-.487.097-.037.91-.057 2.294-.057 1.363 0 2.218-.021 2.349-.058.152-.042.807-.561 2.454-1.942a405 405 0 0 1 2.26-1.889c.007-.002.013 3.093.013 6.877m5.909-6.615c-.435.131-.711.562-.67 1.046.014.174.066.351.129.437.058.079.356.312.662.517 1.591 1.065 2.426 2.377 2.612 4.101.141 1.309-.252 2.75-1.022 3.749-.334.432-1.047 1.086-1.504 1.378-.762.486-.889.643-.889 1.093 0 .769.775 1.194 1.485.813.874-.469 1.988-1.457 2.581-2.288.824-1.156 1.251-2.443 1.306-3.939.093-2.523-1.003-4.736-3.083-6.227-.561-.402-1.178-.735-1.349-.728a1.2 1.2 0 0 0-.258.048m-1.361 3.791a1.2 1.2 0 0 0-.381.251c-.257.246-.344.521-.27.854.072.32.126.412.455.776.363.403.466.625.462 1-.003.366-.101.566-.467.954-.32.338-.403.479-.457.768-.078.426.169.877.579 1.059.762.337 1.702-.414 2.122-1.696.138-.422.156-.55.154-1.116-.002-.736-.077-1.049-.408-1.689-.453-.879-1.176-1.348-1.789-1.161"/></svg>