<svg xmlns="http://www.w3.org/2000/svg" width="16" height="16" fill="none"><g clip-path="url(#a)"><path fill="#1A1C1F" fill-rule="evenodd" d="M12.777 2.396c.374 0 .796.25.796.78a.86.86 0 0 1-.156.5l-9.632 9.678a.77.77 0 0 1-.562.219.83.83 0 0 1-.827-.812c0-.172.056-.334.187-.468l1.07-1.1C2.535 11.03 1.6 10.106 1.6 8.827V7.236c0-1.288 1.118-2.42 2.248-2.42h.733l2.201-1.451a.8.8 0 0 1 .438-.14c.39 0 .78.312.78.702v2.934l2.841-2.856-.187-.203a.7.7 0 0 1-.25-.562c0-.437.359-.827.812-.827.296 0 .405.093.78.468l.219-.25a.72.72 0 0 1 .562-.235m-6.37 3.106-.905.625c-.34.234-.515.296-.702.296h-.796a.79.79 0 0 0-.796.812v1.592c0 .335.252.78.796.78H4.8c.16 0 .205.044.359.094l1.249-1.248v-2.95zm.313 7.15L8 11.372v.624a.804.804 0 0 1-.827.827c-.14 0-.234-.047-.453-.171m2.404-2.404L11.2 8.203c-.078.78-.484 1.498-1.077 2.03a.7.7 0 0 1-.484.17c-.172 0-.28-.03-.515-.155m1.28 2.56a.84.84 0 0 1 .265-.609 5.83 5.83 0 0 0 2.123-4.246c.007-.4-.062-.796-.203-1.17l1.25-1.234c.358.75.53 1.577.561 2.404-.078 2.123-1.061 4.09-2.685 5.463a.73.73 0 0 1-.484.188c-.468 0-.827-.344-.827-.796" clip-rule="evenodd"/></g><defs><clipPath id="a"><path fill="#fff" d="M0 0h16v16H0z"/></clipPath></defs></svg>