<svg xmlns="http://www.w3.org/2000/svg" width="32" height="32" fill="none"><path fill="#1A1C1F" fill-rule="evenodd" d="M21.52 6.123c-.088.057-1.444 1.174-3.013 2.482l-2.854 2.379-1.84.003c-1.012.002-2.014.026-2.226.053-1.172.152-2.19 1.06-2.489 2.221-.071.276-.085.717-.085 2.802 0 2.693.012 2.816.308 3.373.228.43.824.993 1.292 1.223.664.325.901.352 3.094.355l1.946.003 2.88 2.402c1.584 1.321 2.94 2.432 3.014 2.47.495.256 1.189-.005 1.383-.519.039-.104.057-3.003.057-9.387 0-8.688-.006-9.247-.094-9.419a1.3 1.3 0 0 0-.296-.345c-.172-.138-.257-.165-.56-.18-.282-.014-.391.003-.517.084M21.013 16c0 3.755-.018 6.826-.04 6.825s-1.04-.837-2.263-1.859c-1.854-1.55-2.263-1.868-2.463-1.919-.16-.04-.956-.06-2.36-.06-2.043 0-2.128-.004-2.351-.112a.86.86 0 0 1-.377-.36l-.146-.248v-4.534l.146-.248a.86.86 0 0 1 .377-.36c.223-.108.307-.112 2.381-.112 1.513 0 2.214-.019 2.363-.063.154-.046.831-.58 2.433-1.918 1.221-1.02 2.238-1.855 2.26-1.856s.04 3.069.04 6.824"/></svg>