<svg width="12" height="12" viewBox="0 0 12 12" fill="none" xmlns="http://www.w3.org/2000/svg"><path d="M2.341 1.281 C 2.026 1.364,1.755 1.536,1.537 1.793 C 1.407 1.946,1.337 2.071,1.262 2.287 L 1.200 2.463 1.200 6.418 L 1.200 10.372 1.258 10.463 C 1.337 10.589,1.411 10.655,1.540 10.717 C 1.681 10.785,1.906 10.791,2.029 10.731 C 2.076 10.707,2.416 10.388,2.880 9.931 C 3.305 9.512,3.691 9.143,3.739 9.110 L 3.826 9.050 4.508 9.037 C 4.883 9.030,6.181 9.023,7.392 9.022 C 9.519 9.020,9.598 9.019,9.707 8.981 C 10.117 8.840,10.451 8.543,10.640 8.152 C 10.802 7.818,10.790 8.056,10.790 5.060 L 10.790 2.390 10.743 2.250 C 10.674 2.047,10.574 1.876,10.436 1.729 C 10.285 1.567,10.178 1.489,9.948 1.372 C 9.782 1.287,9.748 1.277,9.558 1.260 C 9.438 1.249,7.897 1.242,5.920 1.242 C 2.588 1.242,2.486 1.243,2.341 1.281 M9.600 5.117 L 9.600 7.814 6.745 7.826 C 5.061 7.834,3.814 7.848,3.705 7.859 C 3.552 7.876,3.489 7.895,3.333 7.969 C 3.102 8.079,3.002 8.157,2.665 8.487 L 2.400 8.747 2.400 5.583 L 2.400 2.420 6.000 2.420 L 9.600 2.420 9.600 5.117 M3.600 4.220 L 3.600 4.820 6.000 4.820 L 8.400 4.820 8.400 4.220 L 8.400 3.620 6.000 3.620 L 3.600 3.620 3.600 4.220 M3.600 6.020 L 3.600 6.620 6.000 6.620 L 8.400 6.620 8.400 6.020 L 8.400 5.420 6.000 5.420 L 3.600 5.420 3.600 6.020 " fill="#1A1C1F" stroke="none" fill-rule="evenodd"></path></svg>