<svg xmlns="http://www.w3.org/2000/svg" width="16" height="16" fill="none"><g clip-path="url(#a)"><path fill="#1A1C1F" fill-rule="evenodd" d="M1.6 13.682c0 .406.406.687.796.687.203 0 .39-.063.546-.219l1.874-1.889c.156-.171.452-.23.624-.23h7.056c1.03 0 1.904-.987 1.904-2.033V3.473c0-.999-.921-1.842-1.982-1.842H3.66c-1.186 0-2.06.921-2.06 1.967zm1.608-2.03L3.2 3.233h9.6v7.2H5.33c-.64 0-1.139.237-1.576.674zM4.8 7.233v1.6h6.4v-1.6zm0-2.4v1.6l6.4-.009V4.831z" clip-rule="evenodd"/></g><defs><clipPath id="a"><path fill="#fff" d="M0 0h16v16H0z"/></clipPath></defs></svg>