<svg xmlns="http://www.w3.org/2000/svg" width="28" height="28" fill="none"><g clip-path="url(#a)"><path fill="#1A1C1F" fill-rule="evenodd" d="M23.625 2.188c1.395 0 2.625 1.256 2.625 2.621v13.149c0 1.42-1.165 2.6-2.625 2.61H8.613c-.218 0-.41.055-.547.192l-4.62 4.588c-.274.273-.63.465-.958.465a.757.757 0 0 1-.738-.765V4.809c0-1.392 1.166-2.621 2.628-2.621zm.11 1.747H4.374c-.437 0-.875.328-.875.765v18.136l3.227-3.278c.41-.41.93-.745 1.695-.745h15.203c.438 0 .875-.328.875-.765V4.809c0-.437-.328-.874-.766-.874m-17.61 9.627A.88.88 0 0 1 7 12.688h14c.492 0 .875.382.875.874 0 .437-.328.874-.766.874H7a.863.863 0 0 1-.875-.874m0-4.376c0-.437.383-.873.875-.873h14c.492 0 .875.382.875.873 0 .437-.328.874-.766.874H7a.863.863 0 0 1-.875-.874" clip-rule="evenodd"/></g><defs><clipPath id="a"><path fill="#fff" d="M0 0h28v28H0z"/></clipPath></defs></svg>