<svg width="14" height="14" viewBox="0 0 14 14" fill="none" xmlns="http://www.w3.org/2000/svg"><path d="M4.177 1.446 L 2.812 1.458 2.625 1.524 C 2.266 1.651,2.034 1.808,1.801 2.083 C 1.642 2.270,1.562 2.413,1.472 2.668 L 1.400 2.874 1.400 7.487 L 1.400 12.101 1.467 12.207 C 1.560 12.354,1.647 12.431,1.797 12.503 C 1.962 12.582,2.224 12.590,2.367 12.519 C 2.422 12.492,2.818 12.120,3.360 11.586 C 3.856 11.098,4.307 10.667,4.363 10.628 L 4.464 10.558 5.248 10.543 C 5.679 10.535,7.197 10.527,8.622 10.525 L 11.212 10.523 11.402 10.445 C 11.684 10.331,11.841 10.229,12.042 10.030 C 12.363 9.712,12.540 9.342,12.579 8.906 C 12.594 8.742,12.600 7.556,12.595 5.705 L 12.587 2.765 12.521 2.584 C 12.366 2.157,12.012 1.778,11.589 1.587 C 11.270 1.443,11.428 1.450,8.353 1.442 C 6.807 1.438,4.927 1.440,4.177 1.446 M11.200 5.970 L 11.200 9.116 7.857 9.132 C 6.019 9.140,4.429 9.157,4.324 9.169 C 4.110 9.192,3.846 9.295,3.630 9.438 C 3.558 9.486,3.342 9.677,3.150 9.863 L 2.800 10.202 2.800 6.512 L 2.800 2.823 7.000 2.823 L 11.200 2.823 11.200 5.970 M4.200 4.923 L 4.200 5.623 7.000 5.623 L 9.800 5.623 9.800 4.923 L 9.800 4.223 7.000 4.223 L 4.200 4.223 4.200 4.923 M4.200 7.023 L 4.200 7.723 7.000 7.723 L 9.800 7.723 9.800 7.023 L 9.800 6.323 7.000 6.323 L 4.200 6.323 4.200 7.023 " fill="#1A1C1F" stroke="none" fill-rule="evenodd"></path></svg>