<svg width="12" height="12" viewBox="0 0 12 12" fill="none" xmlns="http://www.w3.org/2000/svg"><path d="M3.110 1.239 C 2.307 1.253,2.330 1.249,2.015 1.413 C 1.805 1.523,1.537 1.795,1.424 2.014 C 1.257 2.336,1.259 2.319,1.239 3.800 C 1.230 4.521,1.219 6.289,1.216 7.730 L 1.210 10.350 1.263 10.450 C 1.379 10.667,1.554 10.769,1.810 10.769 C 1.926 10.770,1.991 10.759,2.046 10.732 C 2.090 10.710,2.480 10.341,2.974 9.852 L 3.826 9.010 6.698 9.000 L 9.570 8.989 9.741 8.924 C 9.954 8.843,10.103 8.746,10.273 8.579 C 10.508 8.347,10.622 8.153,10.701 7.850 C 10.738 7.705,10.744 7.602,10.761 6.740 C 10.771 6.218,10.781 5.038,10.784 4.120 C 10.789 2.771,10.785 2.433,10.763 2.360 C 10.623 1.888,10.392 1.602,9.983 1.392 C 9.826 1.312,9.730 1.277,9.620 1.259 C 9.453 1.231,4.439 1.216,3.110 1.239 M9.000 3.620 L 9.000 4.220 6.000 4.220 L 3.000 4.220 3.000 3.620 L 3.000 3.020 6.000 3.020 L 9.000 3.020 9.000 3.620 M9.000 6.020 L 9.000 6.620 6.000 6.620 L 3.000 6.620 3.000 6.020 L 3.000 5.420 6.000 5.420 L 9.000 5.420 9.000 6.020 " fill="#1A1C1F" stroke="none" fill-rule="evenodd"></path></svg>