<svg width="16" height="16" viewBox="0 0 16 16" fill="none" xmlns="http://www.w3.org/2000/svg"><path d="M3.122 1.708 C 2.703 1.818,2.362 2.033,2.068 2.372 C 1.878 2.592,1.805 2.717,1.692 3.021 L 1.600 3.267 1.600 8.548 L 1.600 13.830 1.677 13.951 C 1.783 14.118,1.882 14.207,2.053 14.289 C 2.242 14.380,2.541 14.388,2.705 14.307 C 2.769 14.276,3.221 13.851,3.840 13.241 C 4.406 12.683,4.922 12.191,4.986 12.147 L 5.102 12.067 6.011 12.049 C 6.511 12.040,8.241 12.031,9.856 12.029 C 12.692 12.027,12.797 12.025,12.943 11.975 C 13.592 11.751,14.069 11.263,14.312 10.573 L 14.387 10.360 14.387 6.787 L 14.387 3.213 14.324 3.013 C 14.240 2.740,14.107 2.511,13.915 2.306 C 13.713 2.089,13.570 1.985,13.263 1.829 C 13.046 1.720,12.990 1.703,12.756 1.680 C 12.600 1.665,10.636 1.655,7.907 1.655 C 3.451 1.656,3.314 1.658,3.122 1.708 M12.800 6.822 L 12.800 10.418 8.993 10.436 C 6.799 10.446,5.082 10.464,4.940 10.480 C 4.736 10.502,4.652 10.526,4.444 10.625 C 4.136 10.772,4.003 10.875,3.553 11.316 L 3.200 11.663 3.200 7.445 L 3.200 3.227 8.000 3.227 L 12.800 3.227 12.800 6.822 M4.800 5.627 L 4.800 6.427 8.000 6.427 L 11.200 6.427 11.200 5.627 L 11.200 4.827 8.000 4.827 L 4.800 4.827 4.800 5.627 M4.800 8.027 L 4.800 8.827 8.000 8.827 L 11.200 8.827 11.200 8.027 L 11.200 7.227 8.000 7.227 L 4.800 7.227 4.800 8.027 " fill="#1A1C1F" stroke="none" fill-rule="evenodd"></path></svg>