<svg width="20" height="20" viewBox="0 0 20 20" fill="none" xmlns="http://www.w3.org/2000/svg"><path d="M3.900 2.135 C 3.024 2.361,2.389 2.968,2.082 3.872 L 2.000 4.112 2.000 10.699 L 2.000 17.287 2.096 17.439 C 2.229 17.648,2.352 17.759,2.567 17.862 C 2.802 17.975,3.177 17.985,3.382 17.884 C 3.461 17.845,4.026 17.314,4.800 16.551 C 5.508 15.854,6.152 15.238,6.232 15.183 L 6.378 15.083 7.497 15.061 C 8.113 15.049,10.282 15.038,12.317 15.036 L 16.017 15.032 16.289 14.922 C 16.699 14.755,16.919 14.611,17.215 14.314 C 17.676 13.851,17.913 13.351,17.970 12.722 C 17.991 12.489,17.999 10.787,17.993 8.150 L 17.982 3.950 17.893 3.706 C 17.766 3.363,17.622 3.126,17.392 2.880 C 17.141 2.611,16.962 2.482,16.577 2.286 C 16.298 2.145,16.240 2.128,15.927 2.100 C 15.731 2.082,13.126 2.069,9.867 2.070 C 4.322 2.070,4.142 2.072,3.900 2.135 M16.000 8.528 L 16.000 13.023 11.242 13.044 C 8.431 13.057,6.356 13.080,6.172 13.100 C 5.912 13.128,5.810 13.158,5.553 13.281 C 5.172 13.464,5.002 13.596,4.442 14.145 L 4.000 14.578 4.000 9.306 L 4.000 4.033 10.000 4.033 L 16.000 4.033 16.000 8.528 M6.000 7.033 L 6.000 8.033 10.000 8.033 L 14.000 8.033 14.000 7.033 L 14.000 6.033 10.000 6.033 L 6.000 6.033 6.000 7.033 M6.000 10.033 L 6.000 11.033 10.000 11.033 L 14.000 11.033 14.000 10.033 L 14.000 9.033 10.000 9.033 L 6.000 9.033 6.000 10.033 " fill="#1A1C1F" stroke="none" fill-rule="evenodd"></path></svg>