<svg width="32" height="32" viewBox="0 0 32 32" fill="none" xmlns="http://www.w3.org/2000/svg"><path d="M5.573 2.558 C 4.069 2.591,4.019 2.602,3.301 3.067 C 2.782 3.402,2.336 4.030,2.073 4.794 C 1.977 5.073,1.973 5.493,1.975 16.662 C 1.976 23.102,1.998 28.403,2.024 28.608 C 2.093 29.144,2.342 29.429,2.786 29.479 C 3.096 29.514,3.390 29.384,3.832 29.016 C 4.018 28.861,5.286 27.632,6.651 26.286 C 8.015 24.939,9.217 23.771,9.322 23.692 L 9.512 23.547 18.476 23.514 C 24.800 23.490,27.516 23.463,27.699 23.421 C 28.449 23.248,29.345 22.524,29.692 21.811 C 30.007 21.166,30.000 21.376,30.000 12.880 L 30.000 5.093 29.872 4.703 C 29.602 3.878,29.041 3.244,28.222 2.837 L 27.717 2.587 26.405 2.552 C 24.841 2.512,7.485 2.516,5.573 2.558 M24.271 4.533 L 27.405 4.533 27.572 4.674 C 27.664 4.751,27.797 4.930,27.869 5.072 L 28.000 5.330 28.000 12.150 C 28.000 15.901,27.984 19.408,27.965 19.943 C 27.925 21.045,27.890 21.148,27.493 21.355 C 27.280 21.467,27.274 21.467,18.213 21.496 L 9.147 21.525 8.804 21.646 C 8.616 21.713,8.352 21.843,8.218 21.935 C 8.083 22.027,7.079 23.004,5.985 24.105 L 3.998 26.107 4.012 15.624 C 4.026 5.793,4.032 5.133,4.119 5.001 C 4.170 4.924,4.300 4.793,4.408 4.710 L 4.605 4.560 7.676 4.528 C 9.365 4.510,13.085 4.504,15.942 4.515 C 18.800 4.525,22.548 4.533,24.271 4.533 M8.587 9.541 C 7.743 9.569,7.579 9.588,7.452 9.674 C 7.114 9.903,6.944 10.345,7.043 10.738 C 7.121 11.044,7.367 11.339,7.616 11.422 C 7.768 11.473,9.577 11.493,15.493 11.508 C 19.717 11.519,23.443 11.512,23.773 11.492 C 24.494 11.449,24.645 11.372,24.870 10.933 C 25.126 10.435,24.982 9.956,24.489 9.667 L 24.241 9.522 16.907 9.515 C 12.874 9.512,9.129 9.524,8.587 9.541 M8.213 14.552 C 7.550 14.589,7.432 14.631,7.235 14.894 C 6.865 15.390,6.970 16.006,7.482 16.338 L 7.701 16.480 15.624 16.479 C 19.981 16.478,23.771 16.455,24.046 16.429 C 24.624 16.373,24.722 16.310,24.908 15.878 C 25.097 15.439,24.969 15.001,24.559 14.689 L 24.381 14.554 16.604 14.536 C 12.326 14.526,8.551 14.534,8.213 14.552 " fill="#1A1C1F" stroke="none" fill-rule="evenodd"></path></svg>