<svg xmlns="http://www.w3.org/2000/svg" width="12" height="12" fill="none"><g clip-path="url(#a)"><path fill="#1A1C1F" fill-rule="evenodd" d="M1.2 10.261c0 .305.304.516.597.516a.56.56 0 0 0 .41-.164l1.405-1.417c.117-.129.34-.173.468-.173h5.292c.772 0 1.428-.74 1.428-1.524V2.605c0-.75-.69-1.382-1.487-1.382H2.745c-.89 0-1.545.691-1.545 1.476zM2.406 8.74 2.4 2.423h7.2v5.4H3.998c-.48 0-.855.179-1.182.507zM3.6 5.423v1.2h4.8v-1.2zm0-1.8v1.2l4.8-.005V3.623z" clip-rule="evenodd"/></g><defs><clipPath id="a"><path fill="#fff" d="M0 0h12v12H0z"/></clipPath></defs></svg>