<svg xmlns="http://www.w3.org/2000/svg" width="20" height="20" fill="none"><path fill="#1A1C1F" fill-rule="evenodd" d="M4.153 2.069a2.48 2.48 0 0 0-2.049 2.114c-.023.171-.049 2.55-.073 6.589-.034 5.716-.033 6.339.015 6.501.129.446.551.722 1.048.686.123-.008.276-.042.34-.074s.75-.69 1.524-1.463l1.409-1.405L11.142 15l4.775-.017.291-.104c.37-.132.608-.275.895-.539.364-.336.622-.776.751-1.281.063-.248.1-2.287.118-6.426.013-2.873.025-2.707-.247-3.266-.112-.23-.196-.341-.441-.588-.266-.267-.346-.325-.652-.473-.603-.292-.131-.273-6.611-.269-3.137.002-5.778.017-5.868.032M15 6.033v1H5v-2h10zm0 4v1H5v-2h10z"/></svg>