<svg xmlns="http://www.w3.org/2000/svg" width="14" height="14" fill="none"><g clip-path="url(#a)"><path fill="#1A1C1F" fill-rule="evenodd" d="M10.865 1.423c.97 0 1.749.766 1.735 1.75l-.055 5.577c-.013.956-.765 1.75-1.72 1.75H4.622c-.095 0-.177.013-.245.081l-1.79 1.804a.62.62 0 0 1-.478.192c-.382 0-.71-.26-.71-.697l.055-8.735a1.73 1.73 0 0 1 1.748-1.722zm-.365 4.9h-7v1.4h7zm0-2.8h-7v1.4h7z" clip-rule="evenodd"/></g><defs><clipPath id="a"><path fill="#fff" d="M0 0h14v14H0z"/></clipPath></defs></svg>