<svg xmlns="http://www.w3.org/2000/svg" width="14" height="14" fill="none"><g clip-path="url(#a)"><path fill="#1A1C1F" fill-rule="evenodd" d="M1.4 11.972c0 .355.355.6.697.6a.65.65 0 0 0 .478-.19l1.639-1.653c.136-.15.396-.202.546-.202h6.174c.901 0 1.666-.864 1.666-1.779V3.04c0-.874-.806-1.612-1.735-1.612H3.203c-1.038 0-1.803.806-1.803 1.721zm1.407-1.776L2.8 2.827h8.4v6.3H4.664c-.56 0-.997.209-1.38.591zM4.2 6.327v1.4h5.6v-1.4zm0-2.1v1.4l5.6-.007V4.227z" clip-rule="evenodd"/></g><defs><clipPath id="a"><path fill="#fff" d="M0 0h14v14H0z"/></clipPath></defs></svg>