<svg xmlns="http://www.w3.org/2000/svg" width="20" height="20" fill="none"><g clip-path="url(#a)"><path fill="#1A1C1F" fill-rule="evenodd" d="M2 17.102c0 .508.507.859.995.859a.93.93 0 0 0 .683-.273l2.342-2.361c.195-.215.565-.288.78-.288h8.82c1.287 0 2.38-1.234 2.38-2.541V4.34c0-1.248-1.151-2.302-2.478-2.302H4.576C3.093 2.039 2 3.19 2 4.498zm2.01-2.536L4 4.039h12v9H6.663c-.8 0-1.424.297-1.97.844zM6 9.039v2h8v-2zm0-3v2l8-.01V6.04z" clip-rule="evenodd"/></g><defs><clipPath id="a"><path fill="#fff" d="M0 0h20v20H0z"/></clipPath></defs></svg>