<svg xmlns="http://www.w3.org/2000/svg" width="32" height="32" fill="none"><g clip-path="url(#a)"><path fill="#1A1C1F" fill-rule="evenodd" d="M27 2.5c1.594 0 3 1.436 3 2.997v15.026c0 1.623-1.332 2.972-3 2.984H9.844c-.25 0-.469.062-.625.218L3.938 28.97c-.313.313-.72.531-1.094.531A.865.865 0 0 1 2 28.626V5.496C2 3.906 3.332 2.5 5.003 2.5zm.125 1.998H5c-.5 0-1 .374-1 .874v20.726l3.688-3.746c.468-.468 1.062-.852 1.937-.852H27c.5 0 1-.375 1-.874V5.496c0-.499-.375-.998-.875-.998M7 15.498c0-.499.406-.998 1-.998h16c.563 0 1 .437 1 .999 0 .5-.375.999-.875.999H8c-.562 0-1-.437-1-1m0-5C7 10 7.438 9.5 8 9.5h16c.563 0 1 .437 1 .999 0 .5-.375.999-.875.999H8c-.562 0-1-.437-1-1" clip-rule="evenodd"/></g><defs><clipPath id="a"><path fill="#fff" d="M0 0h32v32H0z"/></clipPath></defs></svg>