<svg width="20" height="20" viewBox="0 0 20 20" fill="none" xmlns="http://www.w3.org/2000/svg"><path d="M5.167 2.065 C 3.849 2.088,3.885 2.083,3.358 2.355 C 3.010 2.534,2.564 2.989,2.373 3.357 C 2.097 3.891,2.099 3.871,2.066 6.283 C 2.050 7.457,2.032 10.404,2.027 12.833 L 2.017 17.250 2.105 17.417 C 2.298 17.778,2.590 17.949,3.017 17.949 C 3.210 17.949,3.318 17.932,3.410 17.887 C 3.483 17.851,4.133 17.234,4.956 16.420 L 6.376 15.017 11.113 15.006 C 15.796 14.996,15.852 14.995,16.067 14.927 C 16.917 14.657,17.520 14.067,17.800 13.235 C 17.918 12.882,17.941 12.043,17.945 7.800 L 17.950 3.883 17.857 3.650 C 17.806 3.522,17.726 3.354,17.681 3.276 C 17.555 3.062,17.262 2.731,17.062 2.576 C 16.785 2.362,16.316 2.145,16.030 2.097 C 15.756 2.052,7.343 2.027,5.167 2.065 M15.000 6.033 L 15.000 7.033 10.000 7.033 L 5.000 7.033 5.000 6.033 L 5.000 5.033 10.000 5.033 L 15.000 5.033 15.000 6.033 M15.000 10.033 L 15.000 11.033 10.000 11.033 L 5.000 11.033 5.000 10.033 L 5.000 9.033 10.000 9.033 L 15.000 9.033 15.000 10.033 " fill="#1A1C1F" stroke="none" fill-rule="evenodd"></path></svg>