<svg width="16" height="16" viewBox="0 0 16 16" fill="none" xmlns="http://www.w3.org/2000/svg"><path d="M4.187 1.652 C 3.071 1.671,3.109 1.665,2.687 1.884 C 2.406 2.030,2.049 2.393,1.898 2.686 C 1.677 3.114,1.679 3.094,1.652 5.053 C 1.640 6.007,1.626 8.365,1.621 10.293 L 1.613 13.800 1.684 13.933 C 1.838 14.223,2.072 14.359,2.413 14.359 C 2.568 14.359,2.654 14.346,2.728 14.309 C 2.787 14.280,3.306 13.788,3.965 13.136 L 5.101 12.013 8.902 12.004 L 12.703 11.995 12.932 11.915 C 13.210 11.817,13.380 11.723,13.573 11.558 C 13.923 11.260,14.161 10.887,14.268 10.467 C 14.317 10.275,14.325 10.124,14.347 9.000 C 14.361 8.311,14.375 6.739,14.379 5.507 C 14.385 3.697,14.380 3.244,14.351 3.147 C 14.164 2.517,13.856 2.135,13.310 1.856 C 13.102 1.750,12.974 1.703,12.827 1.678 C 12.604 1.642,6.034 1.622,4.187 1.652 M12.000 4.827 L 12.000 5.627 8.000 5.627 L 4.000 5.627 4.000 4.827 L 4.000 4.027 8.000 4.027 L 12.000 4.027 12.000 4.827 M12.000 8.027 L 12.000 8.827 8.000 8.827 L 4.000 8.827 4.000 8.027 L 4.000 7.227 8.000 7.227 L 12.000 7.227 12.000 8.027 " fill="#1A1C1F" stroke="none" fill-rule="evenodd"></path></svg>