<svg xmlns="http://www.w3.org/2000/svg" width="16" height="16" fill="none"><g clip-path="url(#a)"><path fill="#1A1C1F" fill-rule="evenodd" d="M12.417 1.627a1.96 1.96 0 0 1 1.983 2L14.337 10c-.015 1.093-.874 2-1.966 2H5.284c-.11 0-.203.015-.281.093l-2.045 2.062c-.156.172-.359.219-.546.219-.437 0-.812-.297-.812-.797l.062-9.982c0-1.094.89-1.968 1.998-1.968zM12 7.227H4v1.6h8zm0-3.2H4v1.6h8z" clip-rule="evenodd"/></g><defs><clipPath id="a"><path fill="#fff" d="M0 0h16v16H0z"/></clipPath></defs></svg>