<svg width="24" height="24" viewBox="0 0 24 24" fill="none" xmlns="http://www.w3.org/2000/svg"><path d="M5.500 2.037 C 4.336 2.062,4.292 2.066,4.030 2.166 C 3.298 2.448,2.656 3.013,2.323 3.668 C 2.115 4.077,2.078 4.233,2.039 4.860 C 1.994 5.598,1.991 20.617,2.037 21.050 C 2.062 21.290,2.095 21.397,2.181 21.521 C 2.431 21.882,2.845 22.055,3.236 21.961 C 3.480 21.903,3.485 21.898,5.200 20.261 C 6.796 18.738,7.382 18.195,7.533 18.100 C 7.657 18.021,7.743 18.020,13.620 17.998 C 20.259 17.974,19.735 17.998,20.351 17.697 C 21.053 17.354,21.613 16.667,21.880 15.820 L 21.969 15.540 21.990 9.977 L 22.011 4.413 21.920 4.137 C 21.593 3.145,20.965 2.514,19.940 2.149 L 19.660 2.049 13.180 2.030 C 9.616 2.020,6.160 2.023,5.500 2.037 M18.241 4.034 L 19.342 4.060 19.517 4.189 C 19.613 4.259,19.752 4.402,19.826 4.506 L 19.960 4.694 19.960 9.999 L 19.960 15.304 19.844 15.487 C 19.733 15.663,19.571 15.809,19.360 15.925 C 19.277 15.971,18.246 15.984,13.280 16.005 C 7.839 16.027,7.278 16.035,7.060 16.097 C 6.517 16.249,6.156 16.527,4.905 17.759 L 3.989 18.660 4.011 11.687 L 4.032 4.714 4.147 4.528 C 4.211 4.425,4.352 4.274,4.461 4.191 L 4.660 4.041 5.680 4.030 C 7.797 4.006,17.185 4.010,18.241 4.034 M7.540 7.038 C 6.588 7.062,6.538 7.072,6.305 7.306 C 6.103 7.508,6.022 7.711,6.021 8.023 C 6.020 8.270,6.036 8.332,6.141 8.503 C 6.208 8.611,6.345 8.756,6.446 8.824 C 6.602 8.928,6.682 8.951,6.965 8.973 C 7.479 9.013,16.609 9.003,17.034 8.962 C 17.463 8.920,17.628 8.837,17.814 8.568 C 18.126 8.119,18.006 7.470,17.556 7.173 C 17.422 7.084,17.341 7.068,16.872 7.038 C 16.309 7.001,9.033 7.002,7.540 7.038 M7.160 11.037 C 6.740 11.056,6.637 11.074,6.520 11.147 C 6.203 11.345,6.000 11.669,6.000 11.975 C 6.001 12.326,6.219 12.700,6.528 12.879 L 6.740 13.001 11.980 12.989 C 15.930 12.980,17.254 12.965,17.358 12.929 C 17.530 12.869,17.780 12.630,17.892 12.420 C 17.952 12.306,17.977 12.185,17.978 11.999 C 17.981 11.653,17.853 11.398,17.580 11.202 L 17.383 11.060 16.781 11.033 C 16.060 11.001,7.873 11.005,7.160 11.037 " fill="#1A1C1F" stroke="none" fill-rule="evenodd"></path></svg>