<svg xmlns="http://www.w3.org/2000/svg" width="32" height="32" fill="none"><path fill="#1A1C1F" fill-rule="evenodd" d="M4.301 2.591c-.39.095-.944.384-1.268.661-.335.288-.712.855-.888 1.336L2 4.987l-.017 11.76c-.011 8.306.001 11.839.042 12.028.099.462.468.749.909.706.543-.052.605-.105 3.573-3.06 1.54-1.533 2.867-2.813 2.95-2.844.104-.04 2.842-.057 8.96-.058 9.5-.001 9.151.009 9.796-.279.638-.285 1.244-.886 1.52-1.507.278-.624.267-.275.267-8.746 0-7.511-.005-7.909-.098-8.214a3.22 3.22 0 0 0-1.638-1.939 3.7 3.7 0 0 0-.738-.274c-.185-.034-4.314-.052-11.6-.049-9.569.004-11.361.016-11.625.08M27.53 4.629a1 1 0 0 1 .333.397l.137.275v7.719c0 5.339-.018 7.766-.057 7.87-.081.213-.256.389-.503.503-.205.094-.574.098-9.067.1-5.941.001-8.967.02-9.2.057a3.2 3.2 0 0 0-.693.22c-.312.148-.552.37-2.413 2.244L4 26.095V15.659c0-10.276.002-10.44.105-10.642.117-.23.401-.431.691-.488.105-.02 5.219-.034 11.364-.03l11.173.008zM7.722 9.546a1.007 1.007 0 0 0-.461 1.627c.321.367-.186.347 8.789.347 5.3 0 8.15-.019 8.278-.055.355-.098.687-.589.684-1.012-.003-.363-.356-.799-.734-.904-.24-.067-16.335-.07-16.556-.003m-.136 5.049c-.426.21-.667.7-.554 1.124.089.332.233.518.505.65l.23.111h8.279c9.126 0 8.451.026 8.717-.333.149-.201.25-.475.25-.678 0-.232-.246-.656-.466-.802l-.2-.134-8.294-.012c-7.537-.011-8.309-.005-8.467.074"/></svg>