<svg width="28" height="28" viewBox="0 0 28 28" fill="none" xmlns="http://www.w3.org/2000/svg"><path d="M4.877 2.238 C 3.560 2.267,3.517 2.277,2.888 2.683 C 2.434 2.977,2.044 3.526,1.814 4.195 C 1.730 4.439,1.727 4.806,1.728 14.579 C 1.729 20.215,1.748 24.853,1.771 25.032 C 1.832 25.501,2.049 25.750,2.438 25.794 C 2.708 25.824,2.966 25.711,3.347 25.394 C 3.507 25.261,4.618 24.185,5.816 23.003 C 7.013 21.821,8.067 20.798,8.158 20.729 L 8.323 20.603 16.166 20.574 C 21.700 20.554,24.077 20.530,24.237 20.493 C 24.893 20.342,25.677 19.709,25.981 19.085 C 26.256 18.521,26.249 18.704,26.250 11.270 L 26.250 4.457 26.138 4.115 C 25.904 3.401,25.403 2.835,24.691 2.481 L 24.253 2.263 23.081 2.233 C 21.683 2.198,6.545 2.202,4.877 2.238 M20.887 3.967 L 23.980 3.967 24.125 4.089 C 24.206 4.157,24.323 4.314,24.386 4.438 L 24.500 4.664 24.500 10.631 C 24.500 13.913,24.486 16.982,24.469 17.450 C 24.434 18.414,24.404 18.505,24.057 18.686 C 23.870 18.783,23.865 18.783,15.937 18.809 L 8.003 18.835 7.704 18.940 C 7.539 18.999,7.308 19.112,7.191 19.193 C 7.073 19.273,6.194 20.128,5.237 21.091 L 3.498 22.843 3.511 13.671 C 3.523 5.069,3.528 4.492,3.604 4.376 C 3.648 4.308,3.762 4.194,3.857 4.121 L 4.029 3.990 6.786 3.962 C 8.303 3.947,11.400 3.941,13.669 3.950 C 15.939 3.959,19.187 3.967,20.887 3.967 M7.537 8.351 C 6.717 8.375,6.639 8.385,6.504 8.480 C 6.322 8.611,6.229 8.752,6.163 8.997 C 6.059 9.382,6.306 9.875,6.664 9.995 C 6.797 10.039,8.369 10.056,13.557 10.070 C 17.253 10.079,20.513 10.073,20.802 10.056 C 21.226 10.030,21.356 10.005,21.478 9.924 C 21.654 9.807,21.887 9.382,21.887 9.176 C 21.887 8.968,21.718 8.658,21.523 8.509 L 21.350 8.377 20.207 8.347 C 18.853 8.311,8.814 8.315,7.537 8.351 M7.187 12.733 C 6.606 12.766,6.503 12.802,6.331 13.032 C 6.007 13.467,6.099 14.005,6.547 14.296 L 6.739 14.420 13.671 14.419 C 17.484 14.418,20.800 14.398,21.040 14.375 C 21.546 14.326,21.632 14.271,21.795 13.893 C 21.960 13.510,21.847 13.126,21.490 12.854 L 21.336 12.736 14.530 12.720 C 10.786 12.711,7.482 12.717,7.187 12.733 " fill="#1A1C1F" stroke="none" fill-rule="evenodd"></path></svg>