<svg width="14" height="14" viewBox="0 0 14 14" fill="none" xmlns="http://www.w3.org/2000/svg"><path d="M3.628 1.446 C 2.692 1.462,2.720 1.458,2.351 1.648 C 2.107 1.774,1.795 2.092,1.661 2.350 C 1.468 2.724,1.469 2.709,1.446 4.398 C 1.435 5.220,1.422 7.283,1.419 8.983 L 1.412 12.075 1.474 12.192 C 1.608 12.445,1.813 12.564,2.112 12.564 C 2.247 12.564,2.323 12.553,2.387 12.521 C 2.438 12.495,2.893 12.064,3.469 11.494 L 4.463 10.512 7.814 10.500 L 11.165 10.488 11.365 10.411 C 11.612 10.317,11.787 10.204,11.985 10.009 C 12.259 9.738,12.392 9.512,12.484 9.158 C 12.528 8.989,12.534 8.866,12.554 7.863 C 12.566 7.254,12.578 5.878,12.582 4.807 C 12.587 3.233,12.582 2.838,12.557 2.753 C 12.393 2.203,12.124 1.869,11.646 1.624 C 11.464 1.531,11.352 1.490,11.223 1.469 C 11.029 1.437,5.184 1.419,3.628 1.446 M10.500 4.223 L 10.500 4.923 7.000 4.923 L 3.500 4.923 3.500 4.223 L 3.500 3.523 7.000 3.523 L 10.500 3.523 10.500 4.223 M10.500 7.023 L 10.500 7.723 7.000 7.723 L 3.500 7.723 3.500 7.023 L 3.500 6.323 7.000 6.323 L 10.500 6.323 10.500 7.023 " fill="#1A1C1F" stroke="none" fill-rule="evenodd"></path></svg>