<svg xmlns="http://www.w3.org/2000/svg" width="20" height="20" fill="none"><g clip-path="url(#a)"><path fill="#1A1C1F" fill-rule="evenodd" d="M15.522 2.033c1.385 0 2.497 1.094 2.478 2.5l-.078 7.966c-.02 1.367-1.093 2.5-2.459 2.5H6.605c-.137 0-.254.02-.351.117l-2.556 2.577c-.196.215-.45.274-.683.274-.547 0-1.015-.371-1.015-.996l.078-12.477c0-1.367 1.112-2.46 2.498-2.46zm-.522 7H5v2h10zm0-4H5v2h10z" clip-rule="evenodd"/></g><defs><clipPath id="a"><path fill="#fff" d="M0 0h20v20H0z"/></clipPath></defs></svg>