<svg width="14" height="14" viewBox="0 0 14 14" fill="none" xmlns="http://www.w3.org/2000/svg"><path d="M3.138 2.822 L 2.438 2.835 2.237 2.932 C 2.088 3.003,1.988 3.073,1.859 3.196 C 1.652 3.393,1.559 3.530,1.474 3.762 L 1.412 3.932 1.412 7.000 L 1.412 10.068 1.479 10.243 C 1.647 10.680,1.943 10.972,2.372 11.124 L 2.555 11.188 7.000 11.188 L 11.445 11.188 11.628 11.124 C 12.064 10.969,12.369 10.664,12.524 10.228 L 12.588 10.045 12.588 6.988 L 12.588 3.932 12.527 3.763 C 12.493 3.670,12.436 3.545,12.401 3.485 C 12.314 3.337,12.080 3.108,11.911 3.006 C 11.643 2.844,11.618 2.840,10.792 2.821 C 9.934 2.802,4.185 2.803,3.138 2.822 M10.564 4.221 L 10.919 4.235 10.144 4.818 C 9.169 5.550,7.339 6.911,7.146 7.047 L 7.000 7.149 6.854 7.047 C 6.520 6.811,3.356 4.468,3.142 4.296 L 3.052 4.225 3.375 4.217 C 3.996 4.204,10.211 4.206,10.564 4.221 M11.200 7.793 L 11.200 9.800 7.000 9.800 L 2.800 9.800 2.802 7.939 C 2.804 6.916,2.811 6.022,2.820 5.953 L 2.835 5.828 4.083 6.756 C 6.339 8.433,6.937 8.873,6.975 8.883 C 7.023 8.895,7.397 8.623,9.532 7.026 C 10.443 6.345,11.191 5.787,11.194 5.787 C 11.197 5.787,11.200 6.690,11.200 7.793 " fill="#1A1C1F" stroke="none" fill-rule="evenodd"></path></svg>