<svg width="24" height="24" viewBox="0 0 24 24" fill="none" xmlns="http://www.w3.org/2000/svg"><path d="M4.420 5.038 L 3.460 5.060 3.192 5.191 C 2.671 5.446,2.238 5.951,2.095 6.469 C 2.024 6.727,2.020 6.978,2.020 11.660 L 2.020 16.580 2.163 16.947 C 2.353 17.433,2.527 17.717,2.835 18.048 C 3.243 18.484,3.775 18.790,4.365 18.929 C 4.534 18.969,6.168 18.980,12.040 18.980 L 19.500 18.980 19.800 18.886 C 20.345 18.716,20.702 18.501,21.102 18.102 C 21.408 17.797,21.493 17.681,21.651 17.360 C 21.753 17.151,21.874 16.842,21.920 16.673 C 22.002 16.370,22.003 16.319,21.991 11.513 C 21.979 6.943,21.974 6.647,21.905 6.440 C 21.724 5.891,21.352 5.459,20.848 5.210 L 20.544 5.060 19.642 5.034 C 18.577 5.002,5.814 5.006,4.420 5.038 M16.500 8.923 C 14.116 11.311,12.566 12.814,12.392 12.904 C 12.192 13.009,11.822 12.999,11.600 12.883 C 11.478 12.818,10.493 11.863,8.520 9.895 L 5.620 7.002 12.020 7.001 L 18.420 7.000 16.500 8.923 M9.667 13.809 C 10.525 14.642,10.719 14.783,11.260 14.965 C 11.500 15.046,11.615 15.060,12.060 15.058 C 12.629 15.055,12.819 15.005,13.372 14.710 C 13.660 14.557,13.837 14.388,17.399 10.868 L 19.940 8.357 19.971 9.488 C 19.988 10.111,19.997 11.907,19.990 13.480 C 19.977 16.667,19.998 16.436,19.693 16.726 C 19.377 17.026,20.080 17.000,12.232 16.998 C 8.353 16.997,5.048 16.981,4.887 16.963 C 4.555 16.924,4.392 16.823,4.180 16.523 L 4.060 16.353 4.048 12.287 L 4.037 8.220 6.448 10.622 C 7.775 11.944,9.223 13.378,9.667 13.809 " fill="#1A1C1F" stroke="none" fill-rule="evenodd"></path></svg>