<svg width="12" height="12" viewBox="0 0 12 12" fill="none" xmlns="http://www.w3.org/2000/svg"><path d="M2.710 2.420 C 2.356 2.427,2.084 2.441,2.046 2.454 C 1.767 2.551,1.482 2.790,1.357 3.031 C 1.197 3.340,1.210 3.072,1.210 6.010 L 1.210 8.630 1.268 8.780 C 1.409 9.149,1.651 9.391,2.020 9.532 L 2.170 9.590 6.000 9.590 L 9.830 9.590 9.980 9.532 C 10.349 9.391,10.591 9.149,10.732 8.780 L 10.790 8.630 10.790 6.000 L 10.790 3.370 10.737 3.225 C 10.665 3.028,10.598 2.919,10.464 2.782 C 10.324 2.640,10.167 2.534,10.009 2.476 C 9.899 2.435,9.842 2.431,9.230 2.418 C 8.441 2.402,3.562 2.403,2.710 2.420 M9.045 3.618 L 9.359 3.630 8.695 4.129 C 7.860 4.757,6.291 5.923,6.125 6.040 L 6.000 6.128 5.875 6.040 C 5.607 5.851,3.071 3.974,2.757 3.732 L 2.625 3.630 2.887 3.619 C 3.254 3.604,8.660 3.603,9.045 3.618 M9.600 6.680 L 9.600 8.400 6.000 8.400 L 2.400 8.400 2.402 6.805 C 2.403 5.928,2.410 5.162,2.417 5.103 L 2.430 4.996 2.670 5.174 C 2.802 5.272,3.403 5.719,4.006 6.167 C 5.770 7.479,5.968 7.623,6.002 7.614 C 6.049 7.601,6.600 7.197,8.180 6.015 C 8.955 5.435,9.592 4.960,9.595 4.960 C 9.598 4.960,9.600 5.734,9.600 6.680 " fill="#1A1C1F" stroke="none" fill-rule="evenodd"></path></svg>