<svg width="20" height="20" viewBox="0 0 20 20" fill="none" xmlns="http://www.w3.org/2000/svg"><path d="M4.463 4.032 L 3.477 4.050 3.159 4.208 C 2.629 4.471,2.279 4.878,2.079 5.467 C 2.019 5.642,2.017 5.836,2.017 10.017 L 2.017 14.383 2.113 14.633 C 2.353 15.257,2.775 15.674,3.389 15.891 L 3.650 15.983 10.000 15.983 L 16.350 15.983 16.611 15.891 C 17.234 15.671,17.671 15.234,17.891 14.611 L 17.983 14.350 17.983 9.983 L 17.983 5.617 17.895 5.376 C 17.847 5.243,17.766 5.065,17.716 4.979 C 17.591 4.767,17.257 4.439,17.016 4.294 C 16.632 4.062,16.597 4.056,15.417 4.031 C 14.190 4.004,5.937 4.004,4.463 4.032 M15.093 6.029 L 15.602 6.050 13.593 7.554 C 11.208 9.339,10.039 10.200,10.000 10.200 C 9.958 10.200,7.709 8.549,5.375 6.804 L 4.366 6.050 4.808 6.032 C 5.427 6.006,14.472 6.004,15.093 6.029 M16.000 11.133 L 16.000 14.000 10.000 14.000 L 4.000 14.000 4.003 11.342 C 4.005 9.880,4.016 8.604,4.028 8.506 L 4.050 8.329 4.317 8.525 C 4.464 8.633,5.439 9.357,6.484 10.134 C 9.614 12.463,9.946 12.704,10.003 12.689 C 10.082 12.669,10.995 11.999,13.633 10.025 C 14.926 9.058,15.987 8.267,15.992 8.267 C 15.996 8.267,16.000 9.557,16.000 11.133 " fill="#1A1C1F" stroke="none" fill-rule="evenodd"></path></svg>