<svg width="32" height="32" viewBox="0 0 32 32" fill="none" xmlns="http://www.w3.org/2000/svg"><path d="M4.453 6.073 C 3.414 6.104,3.316 6.116,3.097 6.233 C 2.757 6.414,2.338 6.857,2.157 7.227 L 2.000 7.547 1.986 15.477 L 1.972 23.407 2.131 23.843 C 2.516 24.899,3.101 25.487,4.137 25.862 L 4.592 26.027 15.993 26.027 L 27.395 26.027 27.778 25.896 C 28.361 25.698,28.682 25.503,29.099 25.093 C 29.500 24.699,29.689 24.386,29.901 23.764 L 30.027 23.395 30.025 16.031 C 30.025 11.980,30.002 8.386,29.976 8.043 C 29.943 7.620,29.893 7.340,29.820 7.175 C 29.681 6.862,29.215 6.397,28.861 6.217 L 28.585 6.077 17.079 6.058 C 10.751 6.048,5.069 6.055,4.453 6.073 M21.600 12.976 C 18.510 16.058,16.539 17.985,16.419 18.042 C 16.312 18.092,16.104 18.133,15.957 18.133 C 15.724 18.133,15.653 18.105,15.405 17.910 C 15.248 17.787,12.936 15.508,10.267 12.845 L 5.413 8.002 16.000 8.003 L 26.587 8.003 21.600 12.976 M12.075 17.432 C 14.554 19.869,14.588 19.897,15.253 20.057 C 15.732 20.173,16.498 20.150,16.920 20.007 C 17.620 19.769,17.558 19.827,23.699 13.709 L 28.011 9.413 27.983 16.393 L 27.955 23.372 27.799 23.566 C 27.714 23.673,27.564 23.814,27.467 23.880 L 27.291 24.000 16.000 24.000 L 4.709 24.000 4.533 23.880 C 4.436 23.814,4.286 23.672,4.200 23.565 L 4.043 23.370 4.016 16.392 L 3.989 9.413 6.861 12.272 C 8.441 13.844,10.787 16.166,12.075 17.432 " fill="#1A1C1F" stroke="none" fill-rule="evenodd"></path></svg>