<svg xmlns="http://www.w3.org/2000/svg" width="32" height="32" fill="none"><g clip-path="url(#a)"><path fill="#1A1C1F" fill-rule="evenodd" d="M28 6c1.094 0 2 .906 2 2v15a3 3 0 0 1-3 3H5a3 3 0 0 1-3-3V8c0-1.094.906-2 2-2zm0 3.406-9.875 9.875a3 3 0 0 1-2.125.875c-.719 0-1.437-.218-1.969-.75L4 9.406V23c0 .563.438 1 1 1h22c.563 0 1-.437 1-1zM26.594 8H5.406l9.875 9.875a.96.96 0 0 0 .719.281c.219 0 .531-.093.75-.312z" clip-rule="evenodd"/></g><defs><clipPath id="a"><path fill="#fff" d="M0 0h32v32H0z"/></clipPath></defs></svg>