<svg xmlns="http://www.w3.org/2000/svg" width="32" height="32" fill="none"><path fill="#1A1C1F" fill-rule="evenodd" d="M3.364 6.114a2.2 2.2 0 0 0-1.241 1.182L2 7.6v15.893l.148.418c.342.967.974 1.599 1.941 1.941l.418.148h22.986l.418-.148a3 3 0 0 0 1.243-.792c.354-.37.519-.641.699-1.152l.147-.415.016-7.706c.016-7.99.012-8.138-.203-8.627-.143-.323-.586-.769-.945-.951l-.308-.156-12.48-.011c-11.161-.01-12.505-.002-12.716.072m18.263 6.85c-2.96 2.962-5.044 5.007-5.168 5.071-.236.123-.56.144-.833.053-.139-.045-1.45-1.325-5.199-5.074L5.414 8h21.172zm-7.161 6.784c.556.373 1.713.511 2.387.284.793-.266.582-.074 6.041-5.521l5.108-5.097-.015 6.959-.014 6.96-.13.193c-.072.106-.214.25-.316.32l-.186.127H4.659l-.186-.127a1.5 1.5 0 0 1-.316-.32l-.13-.193-.014-6.952-.015-6.952 5.123 5.085c2.818 2.797 5.223 5.152 5.345 5.234"/></svg>