<svg width="16" height="16" viewBox="0 0 16 16" fill="none" xmlns="http://www.w3.org/2000/svg"><path d="M3.600 3.227 C 3.139 3.236,2.778 3.255,2.728 3.272 C 2.356 3.402,1.976 3.719,1.809 4.042 C 1.596 4.453,1.613 4.096,1.613 8.013 L 1.613 11.507 1.690 11.707 C 1.879 12.198,2.202 12.521,2.693 12.710 L 2.893 12.787 8.000 12.787 L 13.107 12.787 13.307 12.710 C 13.793 12.523,14.123 12.193,14.310 11.707 L 14.387 11.507 14.387 8.013 L 14.387 4.520 14.312 4.304 C 14.272 4.185,14.201 4.029,14.156 3.958 C 14.043 3.779,13.795 3.543,13.602 3.430 C 13.292 3.248,13.273 3.245,12.333 3.224 C 11.322 3.202,4.729 3.204,3.600 3.227 M12.074 4.824 L 12.481 4.840 10.874 6.043 C 8.966 7.471,8.031 8.160,8.000 8.160 C 7.967 8.160,6.132 6.813,4.246 5.403 L 3.493 4.840 3.846 4.825 C 4.341 4.805,11.577 4.803,12.074 4.824 M12.800 8.907 L 12.800 11.200 8.000 11.200 L 3.200 11.200 3.203 9.073 C 3.204 7.904,3.213 6.883,3.223 6.804 L 3.240 6.662 3.560 6.899 C 3.736 7.029,4.537 7.625,5.341 8.222 C 7.693 9.972,7.957 10.163,8.003 10.152 C 8.066 10.135,8.800 9.596,10.907 8.020 C 11.941 7.246,12.790 6.613,12.793 6.613 C 12.797 6.613,12.800 7.645,12.800 8.907 " fill="#1A1C1F" stroke="none" fill-rule="evenodd"></path></svg>