<svg width="28" height="28" viewBox="0 0 28 28" fill="none" xmlns="http://www.w3.org/2000/svg"><path d="M3.897 5.314 C 2.987 5.341,2.902 5.351,2.710 5.453 C 2.413 5.612,2.046 6.000,1.887 6.323 L 1.750 6.603 1.738 13.542 L 1.726 20.481 1.865 20.863 C 2.202 21.786,2.714 22.301,3.620 22.629 L 4.018 22.773 13.994 22.773 L 23.970 22.773 24.306 22.659 C 24.816 22.486,25.097 22.315,25.462 21.957 C 25.813 21.612,25.978 21.338,26.163 20.793 L 26.273 20.470 26.272 14.027 C 26.272 10.483,26.252 7.338,26.229 7.037 C 26.200 6.668,26.156 6.423,26.092 6.278 C 25.971 6.005,25.564 5.597,25.255 5.441 L 25.015 5.319 14.946 5.302 C 9.408 5.292,4.436 5.298,3.897 5.314 M18.900 11.354 C 16.202 14.045,14.472 15.736,14.366 15.786 C 14.273 15.830,14.091 15.867,13.962 15.867 C 13.758 15.867,13.696 15.842,13.479 15.671 C 13.342 15.564,11.319 13.569,8.983 11.239 L 4.737 7.002 14.000 7.003 L 23.263 7.003 18.900 11.354 M10.589 15.276 C 12.734 17.384,12.766 17.410,13.347 17.550 C 13.774 17.653,14.437 17.633,14.805 17.507 C 15.419 17.296,15.366 17.346,20.737 11.996 L 24.510 8.237 24.486 14.342 L 24.463 20.448 24.326 20.619 C 24.250 20.713,24.119 20.837,24.034 20.895 L 23.880 21.000 14.000 21.000 L 4.120 21.000 3.966 20.895 C 3.881 20.837,3.750 20.713,3.674 20.618 L 3.535 20.446 3.513 14.341 L 3.491 8.237 6.027 10.761 C 7.422 12.150,9.475 14.182,10.589 15.276 " fill="#1A1C1F" stroke="none" fill-rule="evenodd"></path></svg>