<svg xmlns="http://www.w3.org/2000/svg" width="28" height="28" fill="none"><g clip-path="url(#a)"><path fill="#1A1C1F" fill-rule="evenodd" d="M24.5 5.25c.957 0 1.75.793 1.75 1.75v13.125a2.626 2.626 0 0 1-2.625 2.625H4.375a2.626 2.626 0 0 1-2.625-2.625V7c0-.957.793-1.75 1.75-1.75zm0 2.98-8.64 8.641a2.63 2.63 0 0 1-1.86.766c-.629 0-1.258-.192-1.723-.657L3.5 8.23v11.895c0 .492.383.875.875.875h19.25a.864.864 0 0 0 .875-.875zM23.27 7H4.73l8.641 8.64c.191.192.41.247.629.247a.98.98 0 0 0 .656-.274z" clip-rule="evenodd"/></g><defs><clipPath id="a"><path fill="#fff" d="M0 0h28v28H0z"/></clipPath></defs></svg>