<svg xmlns="http://www.w3.org/2000/svg" width="20" height="20" fill="none"><g clip-path="url(#a)"><path fill="#1A1C1F" fill-rule="evenodd" d="M17.71 2.29c.274.292.372.702.215 1.073l-5.62 14.013a1 1 0 0 1-.918.624c-.468-.02-.82-.293-.936-.683L8.519 11.48 2.683 9.55A.99.99 0 0 1 2 8.652c0-.43.234-.8.625-.957l14.012-5.62c.371-.157.781-.059 1.074.214m-2.478 2.478L5.884 8.515l3.727 1.23c.293.117.527.331.625.644l1.23 3.727z" clip-rule="evenodd"/></g><defs><clipPath id="a"><path fill="#fff" d="M0 0h20v20H0z"/></clipPath></defs></svg>