<svg width="20" height="20" viewBox="0 0 20 20" fill="none" xmlns="http://www.w3.org/2000/svg"><path d="M16.793 2.035 C 16.641 2.072,8.550 5.311,3.477 7.366 C 2.371 7.814,2.265 7.877,2.118 8.178 C 2.002 8.415,1.978 8.642,2.046 8.869 C 2.106 9.070,2.285 9.333,2.422 9.423 C 2.471 9.455,3.862 9.933,5.513 10.485 L 8.515 11.489 9.207 13.569 C 9.587 14.714,10.043 16.078,10.221 16.600 C 10.537 17.530,10.547 17.553,10.701 17.704 C 10.987 17.985,11.440 18.063,11.804 17.895 C 12.188 17.717,11.994 18.161,15.382 9.700 C 17.612 4.134,17.964 3.233,17.991 3.031 C 18.014 2.858,17.921 2.571,17.784 2.391 C 17.580 2.124,17.114 1.957,16.793 2.035 M15.192 4.858 C 15.174 4.923,13.706 8.563,12.567 11.367 C 12.161 12.366,11.752 13.375,11.657 13.608 C 11.562 13.842,11.475 14.033,11.464 14.033 C 11.452 14.033,11.194 13.285,10.889 12.370 C 10.228 10.391,10.155 10.194,10.024 10.044 C 9.968 9.981,9.832 9.883,9.722 9.827 C 9.611 9.772,8.704 9.453,7.706 9.119 L 5.891 8.512 10.504 6.659 C 13.041 5.640,15.137 4.804,15.162 4.803 C 15.190 4.801,15.202 4.823,15.192 4.858 " fill="#1A1C1F" stroke="none" fill-rule="evenodd"></path></svg>