<svg xmlns="http://www.w3.org/2000/svg" width="12" height="12" fill="none"><g clip-path="url(#a)"><path fill="#1A1C1F" fill-rule="evenodd" d="M10.627 1.374a.6.6 0 0 1 .128.644l-3.372 8.407a.6.6 0 0 1-.55.375c-.282-.012-.492-.176-.563-.41L5.111 6.89 1.61 5.729a.59.59 0 0 1-.41-.538c0-.258.14-.48.375-.574l8.407-3.372a.6.6 0 0 1 .645.129M9.139 2.86 3.53 5.109l2.237.738c.176.07.316.199.375.386l.737 2.237z" clip-rule="evenodd"/></g><defs><clipPath id="a"><path fill="#fff" d="M0 0h12v12H0z"/></clipPath></defs></svg>