<svg xmlns="http://www.w3.org/2000/svg" width="14" height="14" fill="none"><g clip-path="url(#a)"><path fill="#1A1C1F" fill-rule="evenodd" d="M12.398 1.602c.19.205.26.492.15.752l-3.935 9.809a.7.7 0 0 1-.642.437c-.328-.014-.574-.205-.655-.478L5.963 8.037 1.878 6.685a.69.69 0 0 1-.478-.629c0-.3.164-.56.437-.67l9.81-3.934a.7.7 0 0 1 .75.15m-1.735 1.735L4.119 5.96l2.609.861a.72.72 0 0 1 .437.451l.86 2.61z" clip-rule="evenodd"/></g><defs><clipPath id="a"><path fill="#fff" d="M0 0h14v14H0z"/></clipPath></defs></svg>