<svg width="32" height="32" viewBox="0 0 32 32" fill="none" xmlns="http://www.w3.org/2000/svg"><path d="M26.453 3.525 C 25.764 3.792,23.292 4.750,20.960 5.654 C 16.478 7.391,9.266 10.203,6.053 11.465 C 4.997 11.880,4.031 12.280,3.905 12.353 C 3.615 12.522,3.227 13.014,3.109 13.360 C 2.899 13.978,3.046 14.768,3.472 15.307 C 3.816 15.742,3.953 15.800,10.316 18.178 L 12.872 19.133 14.321 22.993 C 16.425 28.598,16.191 28.031,16.540 28.379 C 16.908 28.746,17.222 28.903,17.708 28.964 C 18.378 29.048,18.924 28.856,19.419 28.362 C 19.652 28.130,19.713 28.004,20.215 26.735 C 21.382 23.785,25.157 14.105,28.779 4.773 C 29.017 4.159,29.037 3.874,28.863 3.538 C 28.691 3.203,28.471 3.072,28.055 3.054 C 27.727 3.040,27.633 3.067,26.453 3.525 M18.569 11.965 L 13.378 17.156 10.462 16.068 C 7.337 14.901,5.561 14.221,5.311 14.094 C 5.193 14.034,5.173 14.005,5.231 13.974 C 5.273 13.951,7.923 12.911,11.120 11.661 C 14.317 10.412,18.433 8.803,20.267 8.086 C 22.100 7.370,23.636 6.781,23.680 6.778 C 23.724 6.776,21.424 9.109,18.569 11.965 M25.182 8.412 C 25.150 8.493,24.285 10.720,23.260 13.360 C 22.235 16.000,20.648 20.068,19.733 22.400 C 18.818 24.732,18.057 26.682,18.042 26.733 C 18.027 26.785,17.998 26.827,17.979 26.827 C 17.935 26.827,18.065 27.162,16.300 22.480 L 14.832 18.587 20.014 13.402 C 22.864 10.551,25.206 8.228,25.218 8.240 C 25.231 8.253,25.215 8.330,25.182 8.412 " fill="#1A1C1F" stroke="none" fill-rule="evenodd"></path></svg>