<svg width="12" height="12" viewBox="0 0 12 12" fill="none" xmlns="http://www.w3.org/2000/svg"><path d="M10.080 1.219 C 10.001 1.236,4.947 3.259,2.028 4.443 C 1.427 4.686,1.358 4.729,1.271 4.907 C 1.201 5.049,1.187 5.185,1.228 5.322 C 1.263 5.441,1.371 5.600,1.452 5.653 C 1.480 5.672,2.314 5.959,3.305 6.290 L 5.106 6.894 5.710 8.695 C 6.149 10.008,6.328 10.516,6.368 10.569 C 6.445 10.670,6.548 10.733,6.698 10.771 C 6.847 10.809,6.946 10.799,7.092 10.732 C 7.216 10.674,7.274 10.602,7.380 10.372 C 7.559 9.985,8.164 8.493,9.699 4.650 C 10.586 2.431,10.780 1.929,10.795 1.818 C 10.809 1.715,10.753 1.542,10.671 1.435 C 10.550 1.277,10.275 1.176,10.080 1.219 M9.115 2.915 C 9.104 2.958,8.207 5.181,7.475 6.980 C 7.178 7.712,6.925 8.335,6.913 8.365 C 6.901 8.395,6.885 8.420,6.878 8.420 C 6.871 8.420,6.717 7.972,6.534 7.425 C 6.143 6.249,6.094 6.117,6.014 6.026 C 5.981 5.988,5.899 5.930,5.833 5.896 C 5.767 5.863,5.222 5.672,4.623 5.472 L 3.534 5.107 6.302 3.995 C 7.824 3.384,9.082 2.883,9.097 2.882 C 9.114 2.881,9.121 2.894,9.115 2.915 " fill="#1A1C1F" stroke="none" fill-rule="evenodd"></path></svg>