<svg xmlns="http://www.w3.org/2000/svg" width="24" height="24" fill="none"><g clip-path="url(#a)"><path fill="#1A1C1F" fill-rule="evenodd" d="M21.184 2.81c.291.267.364.68.243 1.07l-6.344 16.478c-.267.704-.899 1.142-1.628 1.142h-.073a1.74 1.74 0 0 1-1.628-1.24l-1.896-6.124-6.1-1.896a1.71 1.71 0 0 1-1.24-1.604A1.77 1.77 0 0 1 3.636 8.91l16.478-6.343c.365-.146.778-.049 1.07.243M17.83 7.574l-6.003 6.051 1.652 5.323zm-1.41-1.41L5.046 10.539l5.347 1.652z" clip-rule="evenodd"/></g><defs><clipPath id="a"><path fill="#fff" d="M0 0h24v24H0z"/></clipPath></defs></svg>