<svg width="14" height="14" viewBox="0 0 14 14" fill="none" xmlns="http://www.w3.org/2000/svg"><path d="M11.755 1.424 C 11.649 1.450,6.412 3.547,2.486 5.135 C 1.656 5.471,1.587 5.512,1.483 5.725 C 1.400 5.893,1.384 6.053,1.433 6.210 C 1.478 6.352,1.603 6.535,1.695 6.596 C 1.730 6.619,2.704 6.953,3.859 7.339 L 5.961 8.042 6.421 9.428 C 6.675 10.191,6.994 11.146,7.131 11.550 C 7.377 12.275,7.382 12.286,7.491 12.393 C 7.691 12.589,8.008 12.644,8.262 12.526 C 8.531 12.402,8.395 12.713,10.768 6.790 C 12.328 2.894,12.575 2.263,12.594 2.122 C 12.610 2.001,12.545 1.799,12.449 1.674 C 12.306 1.487,11.980 1.370,11.755 1.424 M10.634 3.401 C 10.621 3.447,9.578 6.036,8.797 7.957 C 8.513 8.656,8.226 9.362,8.160 9.526 C 8.093 9.689,8.032 9.823,8.024 9.823 C 8.016 9.823,7.836 9.301,7.623 8.662 C 7.164 7.283,7.109 7.136,7.016 7.031 C 6.978 6.986,6.882 6.918,6.805 6.879 C 6.728 6.840,6.093 6.617,5.394 6.383 L 4.124 5.959 7.353 4.661 C 9.129 3.948,10.596 3.363,10.614 3.362 C 10.633 3.361,10.641 3.376,10.634 3.401 " fill="#1A1C1F" stroke="none" fill-rule="evenodd"></path></svg>