<svg width="24" height="24" viewBox="0 0 24 24" fill="none" xmlns="http://www.w3.org/2000/svg"><path d="M19.980 2.655 C 19.109 2.945,8.047 7.197,4.306 8.681 C 3.333 9.067,3.259 9.104,3.061 9.298 C 2.287 10.053,2.366 11.342,3.226 11.969 C 3.447 12.130,3.742 12.230,6.720 13.160 C 9.306 13.968,9.771 14.120,9.828 14.174 C 9.854 14.199,10.139 15.066,10.461 16.100 C 11.373 19.028,11.802 20.364,11.893 20.560 C 12.004 20.799,12.372 21.164,12.637 21.299 C 13.337 21.653,14.125 21.524,14.679 20.965 C 14.887 20.755,14.922 20.691,15.196 20.000 C 16.327 17.150,20.521 6.267,21.031 4.860 C 21.538 3.458,21.555 3.348,21.319 2.991 C 21.184 2.787,20.967 2.628,20.736 2.564 C 20.504 2.499,20.419 2.510,19.980 2.655 M16.008 6.550 C 15.436 7.175,10.462 12.108,10.378 12.134 C 10.326 12.151,9.541 11.927,8.218 11.518 C 5.201 10.585,5.109 10.555,5.146 10.520 C 5.165 10.503,7.241 9.695,9.760 8.726 C 12.279 7.756,14.781 6.793,15.320 6.585 C 15.859 6.377,16.306 6.205,16.314 6.203 C 16.322 6.202,16.184 6.357,16.008 6.550 M17.738 7.770 C 17.690 7.924,15.330 14.112,14.460 16.360 C 14.005 17.537,13.604 18.577,13.568 18.670 C 13.532 18.764,13.492 18.840,13.479 18.840 C 13.457 18.840,12.944 17.229,12.136 14.626 L 11.828 13.633 12.684 12.766 C 14.205 11.227,17.739 7.680,17.753 7.680 C 17.760 7.680,17.753 7.720,17.738 7.770 " fill="#1A1C1F" stroke="none" fill-rule="evenodd"></path></svg>