<svg width="28" height="28" viewBox="0 0 28 28" fill="none" xmlns="http://www.w3.org/2000/svg"><path d="M23.450 2.967 C 23.014 3.137,21.229 3.828,19.483 4.504 C 15.997 5.853,7.941 8.992,5.297 10.032 C 4.373 10.395,3.527 10.745,3.417 10.809 C 3.163 10.957,2.824 11.387,2.720 11.690 C 2.536 12.230,2.665 12.922,3.038 13.394 C 3.339 13.774,3.429 13.812,9.096 15.931 L 11.262 16.741 12.530 20.119 C 14.379 25.041,14.168 24.528,14.472 24.831 C 14.789 25.147,15.060 25.285,15.476 25.344 C 16.053 25.426,16.557 25.251,16.992 24.817 C 17.196 24.613,17.249 24.504,17.725 23.300 C 18.686 20.874,21.947 12.510,25.181 4.177 C 25.390 3.639,25.407 3.390,25.256 3.096 C 25.105 2.803,24.912 2.688,24.548 2.672 C 24.268 2.660,24.178 2.684,23.450 2.967 M16.263 10.453 C 13.774 12.943,11.711 14.980,11.680 14.980 C 11.611 14.980,6.633 13.125,5.426 12.649 C 4.958 12.465,4.565 12.297,4.552 12.277 C 4.530 12.240,7.484 11.074,16.147 7.701 C 18.393 6.827,20.325 6.072,20.440 6.023 C 20.556 5.974,20.681 5.933,20.720 5.930 C 20.758 5.928,18.753 7.964,16.263 10.453 M21.425 8.938 C 18.954 15.321,15.757 23.473,15.725 23.473 C 15.694 23.473,15.790 23.723,14.262 19.670 L 12.978 16.263 17.514 11.725 C 20.009 9.229,22.055 7.203,22.062 7.223 C 22.069 7.243,21.782 8.015,21.425 8.938 " fill="#1A1C1F" stroke="none" fill-rule="evenodd"></path></svg>