<svg xmlns="http://www.w3.org/2000/svg" width="32" height="32" fill="none"><g clip-path="url(#a)"><path fill="#1A1C1F" fill-rule="evenodd" d="M28.717 3.29c.258.29.355.709.226 1.096l-9.1 23.324a1.99 1.99 0 0 1-1.87 1.29 1.99 1.99 0 0 1-1.905-1.323l-3.194-8.548-8.551-3.194C3.516 15.612 3 14.87 3 14.032c0-.84.484-1.581 1.29-1.904l23.33-9.065c.387-.129.807-.064 1.097.226m-3.42 4.838L14.842 18.58l3.13 8.388zm-1.452-1.42L5.033 14.033l8.357 3.129z" clip-rule="evenodd"/></g><defs><clipPath id="a"><path fill="#fff" d="M0 0h32v32H0z"/></clipPath></defs></svg>