<svg width="16" height="16" viewBox="0 0 16 16" fill="none" xmlns="http://www.w3.org/2000/svg"><path d="M13.431 1.629 C 13.335 1.652,8.235 3.691,4.400 5.240 C 3.469 5.616,2.543 5.989,2.343 6.070 C 1.928 6.237,1.797 6.333,1.694 6.542 C 1.601 6.732,1.582 6.914,1.637 7.096 C 1.685 7.255,1.828 7.467,1.936 7.538 C 1.975 7.563,3.087 7.945,4.407 8.388 L 6.808 9.192 7.612 11.589 C 8.054 12.908,8.430 14.013,8.448 14.044 C 8.503 14.144,8.696 14.290,8.837 14.338 C 9.141 14.442,9.506 14.360,9.665 14.152 C 9.824 13.943,10.037 13.427,12.333 7.693 C 14.090 3.304,14.371 2.586,14.393 2.425 C 14.411 2.287,14.337 2.057,14.227 1.913 C 14.063 1.698,13.692 1.565,13.431 1.629 M12.153 3.887 C 12.139 3.938,10.984 6.803,10.054 9.093 C 9.729 9.893,9.401 10.700,9.325 10.887 C 9.249 11.074,9.180 11.227,9.171 11.227 C 9.162 11.227,8.953 10.624,8.708 9.887 C 8.181 8.303,8.127 8.158,8.019 8.036 C 7.975 7.985,7.866 7.907,7.777 7.862 C 7.689 7.817,6.963 7.562,6.164 7.295 L 4.712 6.810 8.403 5.327 C 10.433 4.512,12.110 3.843,12.130 3.842 C 12.152 3.841,12.161 3.858,12.153 3.887 " fill="#1A1C1F" stroke="none" fill-rule="evenodd"></path></svg>