<svg xmlns="http://www.w3.org/2000/svg" width="28" height="28" fill="none"><g clip-path="url(#a)"><path fill="#1A1C1F" fill-rule="evenodd" d="M25.128 2.878c.225.254.31.621.197.96l-7.962 20.408a1.74 1.74 0 0 1-1.637 1.129 1.74 1.74 0 0 1-1.666-1.157l-2.795-7.48-7.482-2.795c-.706-.282-1.158-.931-1.158-1.665s.424-1.383 1.13-1.666L24.167 2.68c.338-.112.706-.056.96.198m-2.993 4.234-9.148 9.146 2.739 7.339zm-1.27-1.242L4.403 12.278l7.312 2.738z" clip-rule="evenodd"/></g><defs><clipPath id="a"><path fill="#fff" d="M0 0h28v28H0z"/></clipPath></defs></svg>