<svg xmlns="http://www.w3.org/2000/svg" width="32" height="32" fill="none"><path fill="#1A1C1F" fill-rule="evenodd" d="M27.788 3.025c-.229.045-23.59 9.136-23.822 9.271-.318.185-.688.622-.825.973a2.1 2.1 0 0 0 .269 1.967c.376.496.423.517 5.087 2.259l4.377 1.635 1.634 4.373c.898 2.406 1.687 4.46 1.752 4.566.185.299.621.66.956.791.225.088.422.12.76.123.424.003.485-.01.864-.198.42-.208.707-.477.891-.838.155-.302 9.186-23.472 9.245-23.716.097-.405-.133-.924-.489-1.107a1.4 1.4 0 0 0-.699-.099m-9.192 8.912-5.217 5.218-4.157-1.551c-2.606-.972-4.131-1.567-4.089-1.595.057-.037 18.576-7.269 18.654-7.284.014-.003-2.322 2.343-5.191 5.212m6.587-3.524c-1.11 2.905-7.186 18.467-7.21 18.467-.019 0-.731-1.866-1.584-4.147l-1.55-4.146 5.207-5.214c2.864-2.867 5.213-5.213 5.22-5.213.008 0-.03.114-.083.253"/></svg>