<svg xmlns="http://www.w3.org/2000/svg" width="16" height="16" fill="none"><g clip-path="url(#a)"><path fill="#1A1C1F" fill-rule="evenodd" d="M14.169 1.831a.8.8 0 0 1 .171.859L9.844 13.9a.8.8 0 0 1-.734.5c-.375-.016-.656-.234-.75-.546L6.816 9.185 2.146 7.64a.79.79 0 0 1-.546-.718c0-.343.187-.64.5-.765L13.31 1.66a.8.8 0 0 1 .859.171m-1.983 1.983L4.707 6.812l2.982.984a.82.82 0 0 1 .5.515l.983 2.982z" clip-rule="evenodd"/></g><defs><clipPath id="a"><path fill="#fff" d="M0 0h16v16H0z"/></clipPath></defs></svg>