<svg xmlns="http://www.w3.org/2000/svg" width="32" height="32" fill="none"><path fill="#1A1C1F" fill-rule="evenodd" d="M4.4 2.561c-1.04.207-1.916 1.006-2.282 2.079L2 4.987l-.017 11.706c-.012 8.587 0 11.782.044 11.988.141.65.816.99 1.413.71.144-.067 1.121-1.011 3.013-2.909 1.54-1.546 2.848-2.838 2.907-2.873.08-.047 2.369-.069 9.173-.089l9.067-.027.386-.141c.497-.181.78-.35 1.094-.653.501-.482.793-1.088.893-1.854.041-.31.053-2.78.041-8.152-.02-8.534.009-7.871-.366-8.632-.35-.711-1.222-1.349-2.044-1.497-.377-.068-22.864-.071-23.204-.003m23.056 2.047c.199.104.364.291.461.524.074.176.083 1.067.083 7.881 0 6.815-.009 7.706-.083 7.881a1.1 1.1 0 0 1-.424.511c-.079.046-2.45.069-9.2.089-8.642.025-9.108.032-9.386.125-.665.222-.794.332-2.893 2.453l-2.013 2.035L4 15.692c0-11.209-.014-10.608.255-10.911.227-.255-.304-.243 11.734-.246 9.624-.001 11.345.01 11.467.073m-11.89 2.003a1.1 1.1 0 0 0-.524.631c-.081.293-.075 6.254.007 6.528.119.398.584.738 1.004.735.362-.002.798-.354.908-.734.039-.134.053-1.213.042-3.371-.015-2.996-.022-3.185-.118-3.378-.219-.441-.883-.648-1.319-.411m.059 9.521c-.93.298-1.27 1.511-.628 2.24.288.327.622.477 1.056.474.408-.002.655-.096.948-.361.728-.658.507-1.921-.402-2.301a1.6 1.6 0 0 0-.974-.052"/></svg>