<svg width="12" height="12" viewBox="0 0 12 12" fill="none" xmlns="http://www.w3.org/2000/svg"><path d="M2.310 1.258 C 1.947 1.364,1.585 1.649,1.394 1.980 C 1.273 2.190,1.238 2.328,1.217 2.680 C 1.206 2.874,1.201 4.522,1.204 6.680 C 1.211 10.808,1.194 10.410,1.368 10.595 C 1.498 10.735,1.609 10.785,1.797 10.787 C 2.053 10.790,2.046 10.795,2.960 9.889 C 3.405 9.447,3.801 9.069,3.840 9.048 C 3.907 9.013,4.029 9.011,6.730 9.004 L 9.550 8.996 9.737 8.929 C 10.197 8.765,10.517 8.466,10.697 8.034 C 10.748 7.911,10.764 7.837,10.780 7.646 C 10.804 7.355,10.805 3.383,10.781 2.770 C 10.762 2.276,10.748 2.213,10.601 1.962 C 10.370 1.566,9.952 1.284,9.531 1.240 C 9.423 1.228,7.951 1.221,5.890 1.222 C 2.655 1.223,2.422 1.225,2.310 1.258 M9.600 5.097 L 9.600 7.794 6.795 7.806 C 5.094 7.814,3.917 7.827,3.804 7.839 C 3.635 7.858,3.595 7.871,3.384 7.979 C 3.121 8.113,2.976 8.223,2.635 8.542 L 2.400 8.763 2.400 5.581 L 2.400 2.400 6.000 2.400 L 9.600 2.400 9.600 5.097 M5.866 3.021 C 5.544 3.061,5.060 3.234,5.060 3.310 C 5.060 3.343,5.252 3.871,5.321 4.028 L 5.362 4.120 5.436 4.088 C 5.792 3.933,6.136 3.897,6.278 3.999 C 6.373 4.066,6.384 4.225,6.303 4.367 C 6.285 4.399,6.167 4.502,6.040 4.596 C 5.777 4.792,5.696 4.873,5.630 5.001 C 5.564 5.130,5.540 5.288,5.540 5.594 L 5.540 5.860 6.010 5.860 L 6.480 5.860 6.480 5.576 L 6.480 5.292 6.807 4.961 C 7.127 4.637,7.135 4.626,7.201 4.460 C 7.258 4.314,7.268 4.259,7.276 4.073 C 7.286 3.809,7.251 3.654,7.141 3.484 C 6.955 3.197,6.627 3.034,6.190 3.012 C 6.091 3.007,5.945 3.011,5.866 3.021 M5.838 6.330 C 5.734 6.363,5.575 6.494,5.525 6.587 C 5.477 6.676,5.478 6.965,5.527 7.056 C 5.580 7.155,5.711 7.273,5.810 7.311 C 5.918 7.352,6.117 7.344,6.222 7.293 C 6.454 7.181,6.574 6.894,6.492 6.647 C 6.450 6.519,6.367 6.430,6.232 6.368 C 6.094 6.305,5.957 6.292,5.838 6.330 " fill="#1A1C1F" stroke="none" fill-rule="evenodd"></path></svg>