<svg width="24" height="24" viewBox="0 0 24 24" fill="none" xmlns="http://www.w3.org/2000/svg"><path d="M11.940 2.042 C 10.762 2.058,10.255 2.079,10.140 2.116 C 10.052 2.145,9.818 2.251,9.620 2.352 C 9.327 2.502,9.189 2.607,8.878 2.918 C 8.564 3.232,8.466 3.361,8.329 3.640 C 8.011 4.290,8.020 4.188,8.020 6.980 C 8.020 8.918,8.032 9.508,8.074 9.680 C 8.103 9.801,8.214 10.081,8.321 10.303 C 8.704 11.099,9.446 11.701,10.320 11.925 C 10.443 11.957,11.433 11.979,13.460 11.996 C 15.670 12.014,16.441 12.032,16.505 12.069 C 16.620 12.135,17.462 12.931,19.049 14.475 C 19.781 15.187,20.445 15.813,20.524 15.866 C 20.936 16.142,21.606 15.945,21.880 15.469 L 21.999 15.260 22.000 9.873 L 22.000 4.486 21.876 4.133 C 21.572 3.262,21.116 2.732,20.315 2.320 C 19.976 2.145,19.887 2.117,19.555 2.082 C 19.115 2.035,14.304 2.010,11.940 2.042 M18.253 3.987 L 19.366 4.013 19.546 4.133 C 19.857 4.338,19.920 4.477,19.962 5.046 C 19.981 5.318,19.998 7.124,19.999 9.060 L 20.000 12.579 19.270 11.857 C 18.346 10.942,18.041 10.665,17.771 10.493 C 17.454 10.289,17.021 10.117,16.723 10.074 C 16.578 10.054,15.160 10.023,13.572 10.005 L 10.684 9.974 10.493 9.856 C 10.388 9.791,10.248 9.660,10.181 9.566 L 10.060 9.393 10.060 7.000 L 10.060 4.607 10.181 4.435 C 10.248 4.340,10.380 4.208,10.474 4.141 C 10.634 4.029,10.679 4.018,11.093 3.997 C 11.745 3.963,16.953 3.956,18.253 3.987 M4.425 8.062 C 3.805 8.178,3.336 8.428,2.882 8.883 C 2.527 9.240,2.296 9.624,2.121 10.149 L 1.998 10.518 2.009 15.889 C 2.021 21.843,2.000 21.394,2.284 21.678 C 2.597 21.991,3.151 22.083,3.466 21.874 C 3.554 21.816,4.441 20.966,5.437 19.987 C 6.433 19.007,7.310 18.176,7.387 18.139 C 7.512 18.080,7.859 18.069,10.514 18.037 C 12.156 18.017,13.590 17.984,13.700 17.964 C 14.625 17.794,15.494 16.989,15.818 16.002 C 16.017 15.394,16.046 14.887,15.899 14.595 C 15.633 14.068,15.027 13.868,14.525 14.141 C 14.407 14.205,14.270 14.312,14.220 14.379 C 14.119 14.515,14.018 14.811,13.982 15.080 C 13.927 15.488,13.653 15.861,13.331 15.964 C 13.222 15.999,12.358 16.021,10.200 16.041 C 8.175 16.061,7.165 16.085,7.047 16.116 C 6.769 16.190,6.372 16.384,6.092 16.584 C 5.949 16.686,5.420 17.175,4.916 17.670 L 4.000 18.570 4.005 15.775 C 4.007 14.238,4.021 12.446,4.035 11.793 L 4.060 10.607 4.181 10.433 C 4.346 10.199,4.616 10.059,5.016 10.000 C 5.402 9.944,5.586 9.856,5.771 9.640 C 6.174 9.169,6.006 8.413,5.433 8.117 C 5.230 8.012,4.809 7.989,4.425 8.062 " fill="#1A1C1F" stroke="none" fill-rule="evenodd"></path></svg>