<svg xmlns="http://www.w3.org/2000/svg" width="16" height="16" fill="none"><g clip-path="url(#a)"><path fill="#1A1C1F" fill-rule="evenodd" d="M12.33 1.6c1.207 0 2.07.906 2.07 1.999v6.403A2.007 2.007 0 0 1 12.392 12H5.475c-.236 0-.44.063-.58.219l-1.93 1.952c-.502.5-1.365.125-1.365-.578V3.6c0-1.093.91-1.999 2.024-1.999zm.47 1.6H3.2v8.48l.581-.548c.425-.406.974-.7 1.556-.732H12.8zM7.14 8.875c0 .5.408.874.878.874s.879-.375.879-.874A.896.896 0 0 0 8.018 8a.896.896 0 0 0-.878.875M7.2 7.2V4h1.6v3.201z" clip-rule="evenodd"/></g><defs><clipPath id="a"><path fill="#fff" d="M0 0h16v16H0z"/></clipPath></defs></svg>