<svg width="28" height="28" viewBox="0 0 28 28" fill="none" xmlns="http://www.w3.org/2000/svg"><path d="M4.990 2.235 L 3.656 2.263 3.263 2.460 C 3.047 2.568,2.771 2.742,2.651 2.847 C 2.353 3.104,2.007 3.635,1.852 4.071 L 1.725 4.430 1.737 14.757 L 1.750 25.083 1.861 25.308 C 2.021 25.634,2.266 25.784,2.638 25.783 C 2.883 25.782,2.953 25.761,3.108 25.645 C 3.208 25.570,4.372 24.434,5.693 23.120 C 7.015 21.807,8.148 20.705,8.210 20.673 C 8.300 20.627,9.991 20.609,16.214 20.591 L 24.103 20.568 24.471 20.435 C 24.944 20.264,25.229 20.079,25.545 19.737 C 25.829 19.431,26.044 19.029,26.168 18.573 C 26.245 18.290,26.250 17.828,26.248 11.457 C 26.247 6.596,26.232 4.546,26.194 4.303 C 26.057 3.428,25.390 2.664,24.481 2.342 L 24.150 2.224 15.237 2.215 C 10.334 2.211,5.723 2.220,4.990 2.235 M24.096 4.080 C 24.170 4.130,24.285 4.256,24.353 4.360 L 24.477 4.550 24.477 11.390 L 24.477 18.230 24.348 18.424 C 24.094 18.808,24.930 18.769,16.086 18.811 C 10.828 18.836,8.104 18.865,7.933 18.898 C 7.329 19.015,7.122 19.190,4.818 21.513 L 3.500 22.843 3.514 13.720 C 3.525 6.815,3.542 4.556,3.584 4.430 C 3.615 4.338,3.693 4.213,3.759 4.151 C 3.872 4.045,3.917 4.038,4.704 4.010 C 5.158 3.993,9.678 3.982,14.747 3.985 C 23.774 3.990,23.966 3.992,24.096 4.080 M12.670 6.235 C 12.222 6.328,11.701 6.588,11.539 6.800 C 11.428 6.946,11.410 7.012,11.410 7.284 C 11.410 7.636,11.484 7.781,11.758 7.967 C 12.013 8.141,12.185 8.146,12.829 7.998 C 13.611 7.819,14.121 7.813,14.415 7.980 C 14.699 8.141,14.807 8.351,14.772 8.672 C 14.720 9.146,14.565 9.345,13.769 9.957 C 12.931 10.601,12.742 10.841,12.580 11.468 C 12.386 12.215,12.613 12.779,13.166 12.928 C 13.664 13.062,14.092 12.739,14.186 12.158 C 14.258 11.719,14.354 11.587,14.913 11.164 C 16.193 10.194,16.527 9.604,16.462 8.425 C 16.399 7.284,15.710 6.504,14.527 6.236 C 14.107 6.141,13.128 6.140,12.670 6.235 M13.078 14.045 C 12.849 14.100,12.570 14.304,12.426 14.521 C 12.322 14.678,12.295 14.778,12.283 15.046 C 12.270 15.344,12.283 15.401,12.412 15.622 C 12.659 16.045,13.141 16.267,13.568 16.154 C 14.063 16.023,14.362 15.673,14.407 15.172 C 14.440 14.805,14.282 14.443,13.999 14.238 C 13.757 14.063,13.355 13.979,13.078 14.045 " fill="#1A1C1F" stroke="none" fill-rule="evenodd"></path></svg>