<svg width="20" height="20" viewBox="0 0 20 20" fill="none" xmlns="http://www.w3.org/2000/svg"><path d="M3.891 2.083 C 3.276 2.252,2.646 2.742,2.323 3.300 C 2.121 3.651,2.063 3.880,2.029 4.467 C 2.010 4.790,2.001 7.536,2.007 11.133 C 2.018 18.014,1.990 17.350,2.280 17.659 C 2.503 17.898,2.684 17.976,3.016 17.978 C 3.257 17.980,3.307 17.969,3.452 17.884 C 3.553 17.826,4.134 17.275,4.950 16.466 C 5.683 15.738,6.336 15.115,6.400 15.081 C 6.512 15.022,6.721 15.018,11.217 15.006 L 15.917 14.993 16.228 14.882 C 16.995 14.608,17.529 14.110,17.828 13.390 C 17.914 13.186,17.940 13.062,17.966 12.743 C 18.007 12.256,18.008 5.632,17.968 4.617 C 17.936 3.802,17.919 3.720,17.688 3.306 C 17.313 2.632,16.600 2.142,15.885 2.066 C 15.705 2.047,13.256 2.035,9.817 2.037 C 5.159 2.039,4.019 2.048,3.891 2.083 M16.000 8.495 L 16.000 12.989 11.325 13.011 C 8.512 13.024,6.525 13.046,6.337 13.066 C 5.770 13.128,5.214 13.460,4.413 14.215 L 4.000 14.605 4.000 9.302 L 4.000 4.000 10.000 4.000 L 16.000 4.000 16.000 8.495 M9.786 5.033 C 9.659 5.049,9.449 5.088,9.319 5.119 C 9.077 5.178,8.518 5.402,8.454 5.466 C 8.428 5.492,8.444 5.579,8.512 5.776 C 8.632 6.125,8.900 6.810,8.928 6.839 C 8.940 6.852,9.052 6.818,9.177 6.765 C 9.662 6.557,10.248 6.511,10.463 6.664 C 10.627 6.781,10.641 7.050,10.495 7.290 C 10.459 7.349,10.262 7.520,10.057 7.671 C 9.633 7.981,9.494 8.118,9.383 8.335 C 9.273 8.550,9.233 8.813,9.233 9.323 L 9.233 9.767 10.017 9.767 L 10.800 9.767 10.800 9.294 L 10.800 8.821 11.345 8.269 C 11.878 7.729,11.892 7.710,12.001 7.433 C 12.096 7.190,12.114 7.099,12.127 6.788 C 12.144 6.348,12.085 6.090,11.901 5.806 C 11.593 5.330,11.041 5.056,10.317 5.019 C 10.152 5.011,9.913 5.017,9.786 5.033 M9.730 10.550 C 9.557 10.606,9.292 10.823,9.208 10.979 C 9.168 11.053,9.152 11.165,9.152 11.367 C 9.152 11.684,9.186 11.774,9.382 11.975 C 9.573 12.172,9.680 12.215,9.983 12.216 C 10.282 12.217,10.419 12.167,10.598 11.992 C 10.924 11.673,10.953 11.104,10.657 10.800 C 10.431 10.567,10.022 10.456,9.730 10.550 " fill="#1A1C1F" stroke="none" fill-rule="evenodd"></path></svg>