<svg xmlns="http://www.w3.org/2000/svg" width="14" height="14" fill="none"><g clip-path="url(#a)"><path fill="#1A1C1F" fill-rule="evenodd" d="M10.788 1.4c1.057 0 1.812.793 1.812 1.749v5.602c0 .957-.782 1.75-1.757 1.75H4.79c-.206 0-.384.054-.508.19L2.594 12.4c-.439.437-1.194.109-1.194-.506V3.15c0-.956.796-1.749 1.77-1.749zm.412 1.4H2.8v7.42l.509-.48c.37-.355.852-.613 1.36-.64H11.2zM7 7.35a.6.6 0 0 1 .613.606.61.61 0 0 1-.613.619.61.61 0 0 1-.612-.619A.6.6 0 0 1 7 7.35m.136-3.85c.771 0 1.368.414 1.368 1.169 0 .58-.29.9-.55 1.13-.262.23-.41.338-.408.484v.553H6.462v-.553c0-.436.217-.655.445-.822l.294-.205c.132-.101.228-.212.228-.381 0-.153-.08-.291-.383-.291-.26 0-.562.101-.796.23l-.37-.96c.231-.187.767-.354 1.256-.354" clip-rule="evenodd"/></g><defs><clipPath id="a"><path fill="#fff" d="M0 0h14v14H0z"/></clipPath></defs></svg>