<svg width="32" height="32" viewBox="0 0 32 32" fill="none" xmlns="http://www.w3.org/2000/svg"><path d="M12.347 2.077 L 11.120 2.107 10.773 2.284 C 9.965 2.697,9.464 3.249,9.168 4.053 L 9.040 4.400 9.040 10.000 C 9.040 15.331,9.045 15.614,9.140 15.893 C 9.450 16.804,10.233 17.579,11.143 17.876 C 11.490 17.989,11.550 17.990,17.496 18.022 C 22.895 18.050,23.511 18.062,23.629 18.139 C 23.701 18.187,24.804 19.252,26.080 20.507 C 27.356 21.762,28.472 22.833,28.560 22.888 C 28.839 23.060,29.289 22.997,29.640 22.737 C 30.012 22.460,29.981 23.219,30.014 13.470 L 30.043 4.663 29.922 4.291 C 29.622 3.376,29.052 2.685,28.289 2.314 L 27.867 2.108 26.560 2.073 C 25.025 2.031,14.130 2.034,12.347 2.077 M26.977 4.045 L 27.474 4.080 27.701 4.321 L 27.929 4.562 27.964 7.463 C 27.984 9.059,28.000 12.442,28.000 14.982 L 28.000 19.599 26.787 18.396 C 25.063 16.687,24.848 16.498,24.389 16.280 L 23.993 16.092 22.570 16.049 C 21.787 16.025,19.013 16.005,16.405 16.003 L 11.664 16.000 11.439 15.816 C 11.010 15.464,11.040 15.907,11.040 9.972 C 11.040 4.712,11.041 4.678,11.150 4.501 C 11.353 4.173,11.542 4.084,12.107 4.049 C 12.811 4.005,26.366 4.002,26.977 4.045 M4.468 9.067 C 3.936 9.132,3.381 9.419,2.938 9.858 C 2.544 10.248,2.313 10.616,2.128 11.147 L 2.007 11.493 1.985 20.331 L 1.962 29.170 2.078 29.409 C 2.142 29.541,2.277 29.722,2.379 29.811 C 2.694 30.087,3.221 30.026,3.680 29.659 C 3.812 29.554,4.901 28.500,6.100 27.316 C 7.300 26.133,8.344 25.140,8.420 25.110 C 8.512 25.074,10.304 25.045,13.600 25.028 L 18.640 25.002 18.987 24.866 C 19.902 24.508,20.507 23.874,20.837 22.925 C 20.951 22.598,20.977 22.406,21.000 21.760 C 21.031 20.863,20.979 20.595,20.729 20.346 C 20.636 20.253,20.443 20.134,20.301 20.079 C 20.075 19.994,20.010 19.990,19.795 20.047 C 19.475 20.133,19.209 20.339,19.107 20.580 C 19.056 20.702,19.011 21.062,18.985 21.560 C 18.940 22.406,18.888 22.577,18.608 22.785 C 18.394 22.945,17.512 22.982,13.760 22.989 C 11.927 22.993,9.875 23.013,9.200 23.035 L 7.973 23.073 7.645 23.242 C 7.171 23.484,6.802 23.807,5.313 25.277 L 3.987 26.587 4.014 19.102 L 4.042 11.618 4.198 11.422 C 4.455 11.099,4.629 11.044,5.566 10.992 C 6.345 10.948,6.413 10.936,6.582 10.807 C 6.805 10.637,6.987 10.274,6.987 10.000 C 6.987 9.700,6.798 9.351,6.544 9.183 C 6.337 9.046,6.296 9.040,5.577 9.031 C 5.164 9.027,4.665 9.042,4.468 9.067 " fill="#1A1C1F" stroke="none" fill-rule="evenodd"></path></svg>