<svg xmlns="http://www.w3.org/2000/svg" width="14" height="14" fill="none"><g clip-path="url(#a)"><path fill="#1A1C1F" fill-rule="evenodd" d="M10.788 1.4c1.057 0 1.812.793 1.812 1.749v5.602c0 .957-.782 1.75-1.757 1.75H4.79c-.206 0-.384.054-.508.19L2.594 12.4c-.439.437-1.194.109-1.194-.506V3.15c0-.956.796-1.749 1.77-1.749zm.412 1.4H2.8v7.42l.509-.48c.37-.355.852-.613 1.36-.64H11.2zM6.248 7.765c0 .438.356.765.768.765a.766.766 0 0 0 .769-.765A.784.784 0 0 0 7.016 7a.784.784 0 0 0-.768.765M6.3 6.301V3.5h1.4v2.801z" clip-rule="evenodd"/></g><defs><clipPath id="a"><path fill="#fff" d="M0 0h14v14H0z"/></clipPath></defs></svg>