<svg width="16" height="16" viewBox="0 0 16 16" fill="none" xmlns="http://www.w3.org/2000/svg"><path d="M4.000 1.625 C 3.126 1.645,3.086 1.652,2.720 1.842 C 2.406 2.005,2.023 2.366,1.850 2.661 C 1.813 2.724,1.742 2.886,1.692 3.021 L 1.600 3.267 1.600 8.523 L 1.600 13.779 1.669 13.909 C 1.829 14.214,2.099 14.387,2.413 14.387 C 2.734 14.386,2.737 14.384,3.991 13.139 L 5.116 12.022 8.871 11.999 C 11.303 11.983,12.692 11.965,12.813 11.946 C 13.044 11.910,13.421 11.732,13.627 11.561 C 13.819 11.402,14.059 11.117,14.157 10.933 C 14.200 10.853,14.272 10.681,14.317 10.551 L 14.400 10.316 14.400 6.803 L 14.400 3.291 14.319 3.040 C 14.214 2.719,14.117 2.538,13.926 2.313 C 13.723 2.074,13.543 1.930,13.275 1.793 C 13.084 1.695,13.018 1.676,12.800 1.654 C 12.493 1.623,5.116 1.599,4.000 1.625 M8.800 5.200 L 8.800 7.200 8.000 7.200 L 7.200 7.200 7.200 5.200 L 7.200 3.200 8.000 3.200 L 8.800 3.200 8.800 5.200 M8.307 8.068 C 8.487 8.119,8.688 8.278,8.793 8.453 C 8.877 8.593,8.880 8.607,8.880 8.892 C 8.880 9.168,8.875 9.195,8.802 9.321 C 8.639 9.606,8.386 9.761,8.053 9.780 C 7.790 9.795,7.597 9.726,7.418 9.551 C 7.234 9.371,7.163 9.209,7.151 8.942 C 7.135 8.581,7.254 8.331,7.524 8.157 C 7.766 8.002,7.981 7.977,8.307 8.068 " fill="#1A1C1F" stroke="none" fill-rule="evenodd"></path></svg>