<svg xmlns="http://www.w3.org/2000/svg" width="14" height="14" fill="none"><g clip-path="url(#a)"><path fill="#1A1C1F" fill-rule="evenodd" d="M10.788 1.4c1.057 0 1.812.793 1.812 1.749v5.602c0 .957-.782 1.75-1.757 1.75H4.79c-.206 0-.384.054-.508.19L2.594 12.4c-.439.437-1.194.109-1.194-.506V3.15c0-.956.796-1.749 1.77-1.749zM7 7.612a.77.77 0 0 0-.787.78c0 .437.34.795.787.795a.785.785 0 0 0 .788-.795c0-.436-.34-.78-.788-.78m.17-4.91c-.63 0-1.32.305-1.618.546l.477 1.238c.301-.167.69-.298 1.025-.298.392 0 .494.178.494.375 0 .218-.124.36-.294.492l-.378.264c-.294.214-.574.496-.574 1.059v.534h1.396v-.534c-.003-.189.19-.328.526-.625s.71-.707.71-1.456c0-.972-.77-1.595-1.764-1.595" clip-rule="evenodd"/></g><defs><clipPath id="a"><path fill="#fff" d="M0 0h14v14H0z"/></clipPath></defs></svg>