<svg xmlns="http://www.w3.org/2000/svg" width="12" height="12" fill="none"><g clip-path="url(#a)"><path fill="#1A1C1F" fill-rule="evenodd" d="M1.2 10.2v-6c0-.297.24-.6.6-.6s.6.3.6.6l.006 4.867.714-.468c.187-.117.375-.199.667-.199H7.8c.3 0 .6.24.6.6s-.28.606-.6.6l-4.013-.006-1.65 1.112a.9.9 0 0 1-.328.094c-.305 0-.609-.179-.609-.6m8.394-9c.656 0 1.206.55 1.206 1.206v5.397c0 .351-.304.597-.609.597a.6.6 0 0 1-.328-.094l-1.65-1.112H4.806A1.21 1.21 0 0 1 3.6 6V2.406c0-.656.55-1.206 1.206-1.206zm0 1.206H4.806V6h3.407q.369 0 .667.21l.714.469z" clip-rule="evenodd"/></g><defs><clipPath id="a"><path fill="#fff" d="M0 0h12v12H0z"/></clipPath></defs></svg>