<svg xmlns="http://www.w3.org/2000/svg" width="12" height="12" fill="none"><g clip-path="url(#a)"><path fill="#1A1C1F" fill-rule="evenodd" d="M9.247 1.2c.906 0 1.553.68 1.553 1.5V7.5c0 .82-.67 1.5-1.506 1.5H4.106c-.177 0-.33.046-.435.163l-1.447 1.464c-.377.375-1.024.094-1.024-.433V2.699c0-.82.682-1.499 1.518-1.499zM9.6 2.4H2.4v6.36l.436-.41c.318-.306.73-.526 1.167-.55H9.6zM6 6.3c.299 0 .525.229.525.52 0 .29-.226.53-.525.53a.523.523 0 0 1-.525-.53c0-.291.226-.52.525-.52M6.117 3c.66 0 1.173.355 1.173 1.002 0 .498-.249.77-.473.968s-.351.29-.35.416v.473H5.54v-.473c0-.375.186-.562.382-.705l.251-.176c.113-.087.196-.181.196-.326 0-.132-.068-.25-.329-.25-.223 0-.481.087-.682.198l-.317-.824C5.238 3.143 5.698 3 6.117 3" clip-rule="evenodd"/></g><defs><clipPath id="a"><path fill="#fff" d="M0 0h12v12H0z"/></clipPath></defs></svg>