<svg xmlns="http://www.w3.org/2000/svg" width="16" height="16" fill="none"><g clip-path="url(#a)"><path fill="#1A1C1F" fill-rule="evenodd" d="M12.33 1.6c1.207 0 2.07.906 2.07 1.999v6.403A2.007 2.007 0 0 1 12.392 12H5.475c-.236 0-.44.063-.58.219l-1.93 1.952c-.502.5-1.365.125-1.365-.578V3.6c0-1.093.91-1.999 2.024-1.999zm.47 1.6H3.2v8.48l.581-.548c.425-.406.974-.7 1.556-.732H12.8zM8 8.4c.398 0 .7.305.7.693A.7.7 0 0 1 8 9.8a.7.7 0 0 1-.7-.707c0-.388.302-.693.7-.693M8.155 4c.882 0 1.564.473 1.564 1.336 0 .664-.331 1.028-.63 1.29-.298.264-.468.388-.465.555v.631H7.385v-.631c0-.5.248-.75.51-.94l.334-.234c.151-.116.261-.242.261-.436 0-.175-.09-.333-.437-.333-.298 0-.643.117-.91.265L6.72 4.405C6.984 4.19 7.597 4 8.155 4" clip-rule="evenodd"/></g><defs><clipPath id="a"><path fill="#fff" d="M0 0h16v16H0z"/></clipPath></defs></svg>