<svg xmlns="http://www.w3.org/2000/svg" width="16" height="16" fill="none"><g clip-path="url(#a)"><path fill="#1A1C1F" fill-rule="evenodd" d="M1.6 13.6v-8c0-.396.32-.8.8-.8s.8.4.8.8l.008 6.49.952-.625c.25-.156.5-.265.89-.265h5.35c.4 0 .8.32.8.8a.78.78 0 0 1-.8.8l-5.35-.008-2.201 1.483c-.14.063-.297.125-.437.125-.406 0-.812-.238-.812-.8m11.192-12c.874 0 1.608.734 1.608 1.608v7.196c0 .468-.406.796-.812.796a.8.8 0 0 1-.437-.125l-2.2-1.483H6.407C5.534 9.592 4.8 8.874 4.8 8V3.208c0-.874.734-1.608 1.608-1.608zm0 1.608H6.408V8h4.542q.492 0 .89.281l.952.624z" clip-rule="evenodd"/></g><defs><clipPath id="a"><path fill="#fff" d="M0 0h16v16H0z"/></clipPath></defs></svg>