<svg xmlns="http://www.w3.org/2000/svg" width="28" height="28" fill="none"><g clip-path="url(#a)"><path fill="#1A1C1F" fill-rule="evenodd" d="M23.625 2.188c1.367 0 2.625 1.011 2.625 2.625v13.125c0 1.367-.982 2.625-2.625 2.625H8.613c-.246 0-.424.04-.629.245l-4.73 4.759a.9.9 0 0 1-.629.245c-.41 0-.875-.327-.875-.875V4.814c0-1.368 1.097-2.625 2.625-2.625zm0 1.75H4.375c-.41 0-.875.218-.875.874v18.02l3.227-3.254c.53-.535 1.086-.765 1.886-.765h15.012c.41 0 .875-.246.875-.875V4.813c0-.41-.326-.875-.875-.875M14 5.688c.41 0 .875.283.875.902v5.223a.864.864 0 0 1-.875.874c-.437 0-.875-.41-.875-.874V6.59c0-.492.383-.902.875-.902m.044 10.817c.68 0 1.225-.539 1.225-1.212s-.545-1.238-1.225-1.238-1.225.565-1.225 1.238.544 1.212 1.225 1.212" clip-rule="evenodd"/></g><defs><clipPath id="a"><path fill="#fff" d="M0 0h28v28H0z"/></clipPath></defs></svg>