<svg width="14" height="14" viewBox="0 0 14 14" fill="none" xmlns="http://www.w3.org/2000/svg"><path d="M4.258 1.423 C 2.874 1.434,2.756 1.438,2.648 1.479 C 2.090 1.687,1.698 2.064,1.504 2.578 C 1.454 2.712,1.439 2.805,1.421 3.103 C 1.407 3.318,1.401 5.213,1.405 7.770 C 1.412 12.613,1.393 12.145,1.596 12.361 C 1.752 12.528,1.879 12.583,2.111 12.585 C 2.280 12.586,2.315 12.578,2.417 12.519 C 2.487 12.478,2.894 12.093,3.465 11.526 C 3.978 11.016,4.435 10.580,4.480 10.557 C 4.558 10.515,4.707 10.513,7.852 10.504 L 11.142 10.495 11.360 10.417 C 11.896 10.226,12.270 9.877,12.480 9.373 C 12.539 9.230,12.558 9.143,12.576 8.920 C 12.605 8.581,12.606 3.947,12.578 3.232 C 12.556 2.656,12.539 2.582,12.368 2.289 C 12.091 1.815,11.605 1.493,11.095 1.447 C 10.820 1.422,6.400 1.407,4.258 1.423 M11.200 5.946 L 11.200 9.093 7.916 9.107 C 5.828 9.116,4.556 9.131,4.424 9.146 C 4.247 9.168,4.180 9.189,3.973 9.293 C 3.670 9.445,3.467 9.597,3.093 9.948 L 2.800 10.224 2.800 6.512 L 2.800 2.800 7.000 2.800 L 11.200 2.800 11.200 5.946 " fill="#1A1C1F" stroke="none" fill-rule="evenodd"></path></svg>