<svg width="12" height="12" viewBox="0 0 12 12" fill="none" xmlns="http://www.w3.org/2000/svg"><path d="M2.310 1.258 C 1.947 1.364,1.585 1.649,1.394 1.980 C 1.273 2.190,1.238 2.328,1.217 2.680 C 1.206 2.874,1.201 4.522,1.204 6.680 C 1.211 10.808,1.194 10.410,1.368 10.595 C 1.498 10.735,1.609 10.785,1.797 10.787 C 2.053 10.790,2.046 10.795,2.960 9.889 C 3.405 9.447,3.801 9.069,3.840 9.048 C 3.907 9.013,4.029 9.011,6.730 9.004 L 9.550 8.996 9.737 8.929 C 10.197 8.765,10.517 8.466,10.697 8.034 C 10.748 7.911,10.764 7.837,10.780 7.646 C 10.804 7.355,10.805 3.383,10.781 2.770 C 10.762 2.276,10.748 2.213,10.601 1.962 C 10.370 1.566,9.952 1.284,9.531 1.240 C 9.423 1.228,7.951 1.221,5.890 1.222 C 2.655 1.223,2.422 1.225,2.310 1.258 M6.590 2.372 C 6.656 2.388,6.802 2.446,6.914 2.501 C 7.184 2.632,7.377 2.816,7.499 3.057 C 7.607 3.273,7.639 3.420,7.640 3.702 C 7.640 4.227,7.473 4.547,6.951 5.018 C 6.614 5.322,6.612 5.325,6.603 5.655 L 6.596 5.920 5.995 5.920 L 5.394 5.920 5.405 5.585 C 5.425 5.001,5.510 4.850,6.040 4.457 C 6.278 4.281,6.408 4.155,6.441 4.068 C 6.474 3.981,6.463 3.816,6.421 3.746 C 6.353 3.634,6.280 3.610,6.020 3.611 C 5.763 3.613,5.636 3.640,5.379 3.750 C 5.290 3.789,5.208 3.820,5.199 3.820 C 5.189 3.820,5.162 3.783,5.139 3.737 C 5.066 3.595,4.760 2.796,4.771 2.778 C 4.817 2.704,5.334 2.466,5.596 2.398 C 5.894 2.321,6.331 2.309,6.590 2.372 M6.311 6.605 C 6.425 6.663,6.536 6.777,6.604 6.904 C 6.643 6.977,6.650 7.020,6.650 7.190 C 6.650 7.362,6.643 7.404,6.601 7.490 C 6.529 7.636,6.391 7.766,6.249 7.819 C 5.907 7.948,5.557 7.810,5.395 7.482 C 5.357 7.405,5.350 7.357,5.350 7.190 C 5.350 7.020,5.357 6.977,5.396 6.904 C 5.486 6.736,5.627 6.614,5.800 6.558 C 5.827 6.549,5.931 6.544,6.030 6.547 C 6.178 6.552,6.228 6.562,6.311 6.605 " fill="#1A1C1F" stroke="none" fill-rule="evenodd"></path></svg>