<svg xmlns="http://www.w3.org/2000/svg" width="20" height="20" fill="none"><g clip-path="url(#a)"><path fill="#1A1C1F" fill-rule="evenodd" d="M15.569 2C16.94 2 18 3.132 18 4.498v8a2.51 2.51 0 0 1-2.51 2.497H6.627a.5.5 0 0 0-.352.156l-2.57 2.556a.99.99 0 0 1-.685.293C2.51 18 2 17.59 2 16.985V4.498C2 3.132 3.196 2 4.588 2zm-5.564 8c-.592 0-1.105.489-1.105 1.115s.513 1.135 1.105 1.135a1.14 1.14 0 0 0 1.145-1.135c0-.626-.513-1.115-1.145-1.115M11 4H9v4.995h2z" clip-rule="evenodd"/></g><defs><clipPath id="a"><path fill="#fff" d="M0 0h20v20H0z"/></clipPath></defs></svg>