<svg width="16" height="16" viewBox="0 0 16 16" fill="none" xmlns="http://www.w3.org/2000/svg"><path d="M3.130 1.664 C 2.769 1.752,2.305 2.051,2.064 2.351 C 1.748 2.744,1.658 2.988,1.624 3.546 C 1.609 3.792,1.601 5.957,1.606 8.880 C 1.614 14.401,1.593 13.878,1.817 14.121 C 1.991 14.310,2.153 14.381,2.415 14.383 C 2.605 14.384,2.646 14.375,2.762 14.307 C 2.842 14.261,3.307 13.820,3.960 13.172 C 4.547 12.590,5.069 12.092,5.120 12.064 C 5.210 12.016,5.364 12.014,8.985 12.005 L 12.757 11.995 13.029 11.890 C 13.627 11.659,14.028 11.276,14.263 10.712 C 14.331 10.548,14.352 10.449,14.373 10.195 C 14.405 9.805,14.407 4.506,14.375 3.693 C 14.349 3.041,14.335 2.976,14.151 2.645 C 13.850 2.105,13.280 1.713,12.708 1.653 C 12.321 1.612,3.301 1.623,3.130 1.664 M12.800 6.796 L 12.800 10.392 9.047 10.408 C 6.713 10.419,5.205 10.436,5.059 10.453 C 4.858 10.477,4.782 10.502,4.536 10.625 C 4.183 10.802,3.966 10.963,3.534 11.370 L 3.200 11.684 3.200 7.442 L 3.200 3.200 8.000 3.200 L 12.800 3.200 12.800 6.796 M7.821 4.028 C 7.392 4.081,6.747 4.313,6.747 4.413 C 6.747 4.458,7.002 5.161,7.095 5.370 L 7.149 5.493 7.248 5.450 C 7.584 5.305,7.892 5.239,8.134 5.260 C 8.392 5.284,8.505 5.408,8.469 5.632 C 8.440 5.813,8.364 5.902,8.013 6.161 C 7.463 6.568,7.387 6.726,7.387 7.458 L 7.387 7.813 8.013 7.813 L 8.640 7.813 8.640 7.433 L 8.640 7.052 9.043 6.653 C 9.264 6.433,9.473 6.205,9.507 6.147 C 9.772 5.694,9.777 5.041,9.520 4.640 C 9.351 4.376,9.010 4.149,8.660 4.067 C 8.441 4.015,8.061 3.997,7.821 4.028 M7.784 8.440 C 7.645 8.484,7.434 8.658,7.367 8.783 C 7.305 8.897,7.304 9.287,7.365 9.400 C 7.423 9.508,7.584 9.670,7.686 9.723 C 7.801 9.783,8.054 9.801,8.200 9.760 C 8.347 9.719,8.542 9.553,8.617 9.405 C 8.741 9.163,8.700 8.819,8.526 8.640 C 8.345 8.453,8.018 8.365,7.784 8.440 " fill="#1A1C1F" stroke="none" fill-rule="evenodd"></path></svg>