<svg width="12" height="12" viewBox="0 0 12 12" fill="none" xmlns="http://www.w3.org/2000/svg"><path d="M3.050 1.218 C 2.450 1.230,2.402 1.234,2.281 1.277 C 2.019 1.371,1.834 1.490,1.632 1.695 C 1.456 1.874,1.358 2.023,1.276 2.239 L 1.210 2.410 1.205 6.369 L 1.200 10.329 1.254 10.435 C 1.433 10.790,1.854 10.902,2.146 10.674 C 2.203 10.630,2.607 10.238,3.043 9.805 L 3.836 9.017 6.653 8.999 C 8.471 8.987,9.520 8.973,9.610 8.959 C 9.783 8.933,10.065 8.799,10.220 8.671 C 10.364 8.552,10.544 8.338,10.618 8.200 C 10.650 8.139,10.704 8.011,10.738 7.913 L 10.800 7.737 10.800 5.103 L 10.800 2.468 10.739 2.280 C 10.662 2.041,10.585 1.897,10.449 1.738 C 10.303 1.565,10.150 1.443,9.955 1.343 C 9.813 1.271,9.764 1.257,9.600 1.241 C 9.372 1.219,3.960 1.200,3.050 1.218 M6.600 3.900 L 6.600 5.400 6.000 5.400 L 5.400 5.400 5.400 3.900 L 5.400 2.400 6.000 2.400 L 6.600 2.400 6.600 3.900 M6.240 6.052 C 6.370 6.093,6.520 6.215,6.595 6.340 C 6.658 6.445,6.660 6.455,6.660 6.669 C 6.660 6.876,6.656 6.896,6.602 6.991 C 6.481 7.201,6.290 7.320,6.048 7.336 C 5.717 7.357,5.455 7.158,5.369 6.821 C 5.311 6.597,5.376 6.370,5.544 6.203 C 5.730 6.019,5.971 5.967,6.240 6.052 " fill="#1A1C1F" stroke="none" fill-rule="evenodd"></path></svg>