<svg width="14" height="14" viewBox="0 0 14 14" fill="none" xmlns="http://www.w3.org/2000/svg"><path d="M3.628 1.423 C 2.696 1.439,2.700 1.438,2.415 1.580 C 1.986 1.794,1.669 2.141,1.504 2.578 C 1.454 2.712,1.439 2.805,1.421 3.103 C 1.407 3.318,1.401 5.213,1.405 7.770 C 1.412 12.613,1.393 12.145,1.596 12.361 C 1.752 12.528,1.879 12.583,2.111 12.585 C 2.280 12.586,2.315 12.578,2.417 12.519 C 2.487 12.478,2.894 12.093,3.465 11.526 C 3.978 11.016,4.435 10.580,4.480 10.557 C 4.558 10.515,4.707 10.513,7.852 10.504 L 11.142 10.495 11.360 10.417 C 11.896 10.226,12.270 9.877,12.480 9.373 C 12.539 9.230,12.558 9.143,12.576 8.920 C 12.605 8.581,12.606 3.947,12.578 3.232 C 12.556 2.656,12.539 2.582,12.369 2.290 C 12.133 1.887,11.746 1.595,11.276 1.465 C 11.095 1.415,11.091 1.415,7.793 1.412 C 5.977 1.410,4.103 1.415,3.628 1.423 M7.443 2.731 C 7.712 2.759,7.835 2.797,8.106 2.935 C 8.388 3.080,8.616 3.304,8.748 3.567 C 8.875 3.819,8.913 3.990,8.913 4.319 C 8.914 4.932,8.719 5.304,8.109 5.854 C 7.717 6.207,7.715 6.212,7.704 6.597 L 7.695 6.907 6.994 6.907 L 6.293 6.907 6.306 6.516 C 6.329 5.826,6.433 5.647,7.084 5.173 C 7.311 5.007,7.478 4.843,7.514 4.747 C 7.553 4.645,7.541 4.452,7.491 4.370 C 7.413 4.242,7.326 4.212,7.035 4.212 C 6.743 4.212,6.613 4.240,6.301 4.367 C 6.180 4.416,6.072 4.457,6.062 4.457 C 6.052 4.457,6.022 4.412,5.994 4.358 C 5.908 4.190,5.553 3.262,5.566 3.241 C 5.592 3.199,5.900 3.031,6.120 2.940 C 6.480 2.789,6.639 2.755,7.187 2.710 C 7.206 2.709,7.321 2.718,7.443 2.731 M7.363 7.706 C 7.496 7.774,7.625 7.906,7.705 8.055 C 7.750 8.140,7.758 8.190,7.758 8.388 C 7.758 8.665,7.711 8.788,7.536 8.962 C 7.317 9.182,6.944 9.241,6.659 9.100 C 6.499 9.022,6.378 8.898,6.294 8.728 C 6.250 8.639,6.242 8.584,6.242 8.388 C 6.242 8.190,6.250 8.140,6.295 8.055 C 6.400 7.858,6.565 7.717,6.767 7.651 C 6.799 7.640,6.920 7.634,7.035 7.638 C 7.207 7.644,7.266 7.656,7.363 7.706 " fill="#1A1C1F" stroke="none" fill-rule="evenodd"></path></svg>