<svg xmlns="http://www.w3.org/2000/svg" width="32" height="32" fill="none"><g clip-path="url(#a)"><path fill="#1A1C1F" fill-rule="evenodd" d="M6 9c.563 0 1 .438 1 1 0 .5-.375 1-1 1H5c-.5 0-1 .375-1 1v14.594l2.719-2.719c.5-.5 1.187-.875 1.906-.875H18c.5 0 1-.375 1-1v-1c0-.562.438-1 1-1 .5 0 1 .375 1 1v1c0 1.594-1.25 3-2.812 3H8.844c-.25 0-.531.094-.719.281l-4.219 4.25c-.187.188-.625.469-1.125.469C2.344 30 2 29.531 2 29V12c0-1.594 1.25-3 3-3zm21-7a3 3 0 0 1 3 3v17c0 .594-.5 1-1.031 1a.94.94 0 0 1-.688-.281l-4.406-4.438a.97.97 0 0 0-.687-.281H12a3 3 0 0 1-3-3V5a3 3 0 0 1 3-3zm.125 2H12c-.562 0-1 .438-1 1v10c0 .563.438 1 1 1h11.188c.78 0 1.53.313 2.093.875L28 19.594V5c0-.5-.375-1-.875-1" clip-rule="evenodd"/></g><defs><clipPath id="a"><path fill="#fff" d="M0 0h32v32H0z"/></clipPath></defs></svg>