<svg width="32" height="32" viewBox="0 0 32 32" fill="none" xmlns="http://www.w3.org/2000/svg"><path d="M5.729 2.554 L 4.178 2.587 3.729 2.811 C 3.482 2.935,3.167 3.134,3.029 3.253 C 2.679 3.557,2.278 4.180,2.111 4.679 L 1.971 5.100 1.986 16.883 L 2.000 28.667 2.126 28.924 C 2.310 29.296,2.590 29.467,3.015 29.466 C 3.295 29.465,3.375 29.442,3.552 29.309 C 3.666 29.223,4.996 27.925,6.507 26.423 C 8.017 24.922,9.312 23.663,9.384 23.626 C 9.487 23.573,11.403 23.553,18.530 23.533 L 27.547 23.507 27.967 23.355 C 28.981 22.988,29.612 22.295,29.905 21.227 C 29.994 20.901,30.000 20.403,29.998 13.093 C 29.997 7.473,29.979 5.197,29.935 4.912 C 29.781 3.927,29.005 3.040,27.979 2.676 L 27.600 2.542 17.440 2.532 C 11.852 2.527,6.582 2.537,5.729 2.554 M27.539 4.663 C 27.622 4.720,27.754 4.864,27.832 4.983 L 27.973 5.200 27.973 13.013 L 27.973 20.827 27.827 21.052 C 27.538 21.496,28.499 21.451,18.384 21.499 C 12.514 21.526,9.261 21.560,9.076 21.597 C 8.715 21.667,8.405 21.807,8.133 22.020 C 8.016 22.113,7.037 23.070,5.958 24.148 L 3.996 26.107 4.014 15.680 C 4.028 7.792,4.048 5.207,4.096 5.063 C 4.131 4.958,4.221 4.815,4.296 4.745 C 4.425 4.623,4.477 4.615,5.376 4.583 C 5.895 4.564,11.060 4.551,16.853 4.554 C 27.170 4.560,27.390 4.562,27.539 4.663 " fill="#1A1C1F" stroke="none" fill-rule="evenodd"></path></svg>