<svg xmlns="http://www.w3.org/2000/svg" width="20" height="20" fill="none"><path fill="#1A1C1F" fill-rule="evenodd" d="M4.117 2.048a2.56 2.56 0 0 0-1.384.75c-.325.33-.465.549-.612.96l-.104.292v13.2l.077.156c.234.477.778.704 1.256.526.189-.07.28-.154 1.619-1.486.781-.777 1.426-1.416 1.433-1.42s2.152-.016 4.765-.026c5.355-.021 4.859.005 5.466-.292.268-.13.364-.201.618-.456a2.4 2.4 0 0 0 .654-1.085l.078-.25V4.083l-.076-.264a2.35 2.35 0 0 0-.656-1.103c-.242-.242-.357-.329-.584-.442-.566-.281.037-.256-6.5-.263-4.61-.004-5.865.003-6.05.037M11 6.5V9H9V4h2zm-.507 3.617c.232.106.417.278.535.5.079.148.089.203.089.5s-.01.351-.089.5c-.305.572-.986.792-1.533.494-.447-.244-.688-.807-.549-1.284a1.107 1.107 0 0 1 1.547-.71"/></svg>