<svg xmlns="http://www.w3.org/2000/svg" width="16" height="16" fill="none"><g clip-path="url(#a)"><path fill="#1A1C1F" fill-rule="evenodd" d="M12.455 1.6c1.098 0 1.945.905 1.945 1.998v6.4a2.007 2.007 0 0 1-2.008 1.998h-7.09a.4.4 0 0 0-.282.125l-2.055 2.045a.8.8 0 0 1-.55.234.82.82 0 0 1-.815-.812v-9.99c0-1.093.957-1.998 2.07-1.998zM8.005 8a.89.89 0 0 0-.885.892c0 .501.41.908.884.908a.913.913 0 0 0 .916-.908A.9.9 0 0 0 8.004 8M8.8 3.2H7.2v3.996h1.6z" clip-rule="evenodd"/></g><defs><clipPath id="a"><path fill="#fff" d="M0 0h16v16H0z"/></clipPath></defs></svg>