<svg xmlns="http://www.w3.org/2000/svg" width="32" height="32" fill="none"><path fill="#1A1C1F" fill-rule="evenodd" d="M4.4 2.561c-1.04.207-1.916 1.006-2.282 2.079L2 4.987l-.017 11.706c-.012 8.587 0 11.782.044 11.988.141.65.816.99 1.413.71.144-.067 1.121-1.011 3.013-2.909 1.54-1.546 2.848-2.838 2.907-2.873.08-.047 2.369-.069 9.173-.089l9.067-.027.386-.141c.497-.181.78-.35 1.094-.653.501-.482.793-1.088.893-1.854.041-.31.053-2.78.041-8.152-.02-8.534.009-7.871-.366-8.632-.35-.711-1.222-1.349-2.044-1.497-.377-.068-22.864-.071-23.204-.003m23.056 2.047c.199.104.364.291.461.524.074.176.083 1.067.083 7.881 0 6.815-.009 7.706-.083 7.881a1.1 1.1 0 0 1-.424.511c-.079.046-2.45.069-9.2.089-8.642.025-9.108.032-9.386.125-.665.222-.794.332-2.893 2.453l-2.013 2.035L4 15.692c0-11.209-.014-10.608.255-10.911.227-.255-.304-.243 11.734-.246 9.624-.001 11.345.01 11.467.073M15.04 7.038c-.89.092-1.538.343-1.833.711-.134.167-.165.259-.18.533-.023.424.119.694.461.874.308.162.512.157 1.259-.036 1.08-.278 1.736-.194 2.039.261.14.211.154.465.045.826-.115.382-.301.583-1.066 1.149-.967.716-1.201 1.009-1.389 1.735-.118.454-.107.905.029 1.185.262.542.984.704 1.461.328.179-.14.345-.488.346-.726.002-.217.129-.529.284-.696.064-.07.389-.321.722-.559 1.216-.869 1.606-1.552 1.608-2.817.002-1.114-.47-1.906-1.437-2.414-.596-.313-1.47-.445-2.349-.354m-.107 9.009c-.449.147-.752.448-.878.872-.21.706.296 1.464 1.045 1.567.715.098 1.375-.486 1.378-1.221.003-.498-.232-.898-.652-1.112-.236-.12-.686-.174-.893-.106"/></svg>