<svg xmlns="http://www.w3.org/2000/svg" width="14" height="14" fill="none"><g clip-path="url(#a)"><path fill="#1A1C1F" fill-rule="evenodd" d="M10.898 1.4c.96 0 1.702.792 1.702 1.748v5.6c0 .956-.782 1.749-1.757 1.749H4.64a.35.35 0 0 0-.247.109l-1.798 1.79a.7.7 0 0 1-.48.204.715.715 0 0 1-.714-.71V3.148c0-.956.837-1.748 1.812-1.748zM7.004 7a.78.78 0 0 0-.774.78c0 .439.36.795.774.795a.8.8 0 0 0 .801-.794c0-.439-.36-.781-.801-.781M7.7 2.8H6.3v3.497h1.4z" clip-rule="evenodd"/></g><defs><clipPath id="a"><path fill="#fff" d="M0 0h14v14H0z"/></clipPath></defs></svg>