<svg width="20" height="20" viewBox="0 0 20 20" fill="none" xmlns="http://www.w3.org/2000/svg"><path d="M3.891 2.083 C 3.276 2.252,2.646 2.742,2.323 3.300 C 2.121 3.651,2.063 3.880,2.029 4.467 C 2.010 4.790,2.001 7.536,2.007 11.133 C 2.018 18.014,1.990 17.350,2.280 17.659 C 2.503 17.898,2.684 17.976,3.016 17.978 C 3.257 17.980,3.307 17.969,3.452 17.884 C 3.553 17.826,4.134 17.275,4.950 16.466 C 5.683 15.738,6.336 15.115,6.400 15.081 C 6.512 15.022,6.721 15.018,11.217 15.006 L 15.917 14.993 16.228 14.882 C 16.995 14.608,17.529 14.110,17.828 13.390 C 17.914 13.186,17.940 13.062,17.966 12.743 C 18.007 12.256,18.008 5.632,17.968 4.617 C 17.936 3.802,17.919 3.720,17.688 3.306 C 17.313 2.632,16.600 2.142,15.885 2.066 C 15.705 2.047,13.256 2.035,9.817 2.037 C 5.159 2.039,4.019 2.048,3.891 2.083 M16.000 8.495 L 16.000 12.989 11.325 13.011 C 8.512 13.024,6.525 13.046,6.337 13.066 C 5.770 13.128,5.214 13.460,4.413 14.215 L 4.000 14.605 4.000 9.302 L 4.000 4.000 10.000 4.000 L 16.000 4.000 16.000 8.495 M9.000 7.000 L 9.000 9.000 10.000 9.000 L 11.000 9.000 11.000 7.000 L 11.000 5.000 10.000 5.000 L 9.000 5.000 9.000 7.000 M9.805 10.036 C 9.511 10.094,9.172 10.364,9.032 10.652 C 8.743 11.250,9.114 11.979,9.794 12.152 C 10.376 12.299,10.969 11.895,11.098 11.263 C 11.239 10.570,10.527 9.894,9.805 10.036 " fill="#1A1C1F" stroke="none" fill-rule="evenodd"></path></svg>