<svg width="16" height="16" viewBox="0 0 16 16" fill="none" xmlns="http://www.w3.org/2000/svg"><path d="M6.893 1.626 C 6.027 1.640,6.011 1.641,5.853 1.708 C 5.381 1.907,5.023 2.294,4.852 2.790 C 4.802 2.937,4.800 3.032,4.800 5.605 L 4.800 8.268 4.881 8.478 C 5.083 9.003,5.490 9.392,5.989 9.538 C 6.132 9.580,6.367 9.585,8.553 9.594 L 10.959 9.603 12.046 10.330 C 12.644 10.730,13.193 11.086,13.267 11.122 C 13.448 11.210,13.714 11.210,13.912 11.123 C 14.068 11.053,14.265 10.860,14.338 10.703 C 14.384 10.605,14.387 10.408,14.387 6.773 C 14.387 3.136,14.384 2.939,14.338 2.788 C 14.217 2.398,13.965 2.071,13.617 1.855 C 13.230 1.615,13.509 1.636,10.467 1.623 C 8.985 1.616,7.377 1.618,6.893 1.626 M12.795 6.024 C 12.790 7.578,12.779 8.856,12.770 8.865 C 12.761 8.875,12.551 8.749,12.303 8.587 C 12.056 8.424,11.742 8.235,11.606 8.167 L 11.359 8.044 10.966 8.024 C 10.750 8.013,9.634 8.003,8.487 8.002 L 6.400 8.000 6.400 5.600 L 6.400 3.200 9.601 3.200 L 12.803 3.200 12.795 6.024 M2.227 4.823 C 1.976 4.889,1.714 5.113,1.651 5.314 C 1.623 5.404,1.614 6.266,1.607 9.619 L 1.598 13.811 1.663 13.939 C 1.788 14.184,1.971 14.321,2.255 14.381 C 2.379 14.407,2.431 14.404,2.573 14.367 C 2.778 14.313,2.906 14.235,4.113 13.423 L 5.040 12.800 7.646 12.800 C 10.245 12.800,10.643 12.788,10.799 12.707 C 10.896 12.657,11.089 12.439,11.142 12.320 C 11.206 12.174,11.200 11.829,11.129 11.676 C 11.056 11.517,10.900 11.361,10.732 11.281 L 10.600 11.217 7.693 11.215 C 4.944 11.213,4.778 11.216,4.628 11.262 C 4.401 11.332,4.270 11.404,3.711 11.763 L 3.213 12.083 3.199 8.741 C 3.184 4.970,3.205 5.302,2.968 5.061 C 2.774 4.864,2.459 4.763,2.227 4.823 " fill="#1A1C1F" stroke="none" fill-rule="evenodd"></path></svg>