<svg xmlns="http://www.w3.org/2000/svg" width="28" height="28" fill="none"><g clip-path="url(#a)"><path fill="#1A1C1F" fill-rule="evenodd" d="M23.625 2.188c1.367 0 2.625 1.011 2.625 2.625v13.125c0 1.367-.982 2.625-2.625 2.625H8.613c-.246 0-.424.04-.629.245l-4.73 4.759a.9.9 0 0 1-.629.245c-.41 0-.875-.327-.875-.875V4.814c0-1.368 1.097-2.625 2.625-2.625zm0 1.75H4.375c-.41 0-.875.218-.875.874v18.02l3.227-3.254c.53-.535 1.086-.765 1.886-.765h15.012c.41 0 .875-.246.875-.875V4.813c0-.41-.326-.875-.875-.875M13.344 14c.587 0 1.094.486 1.094 1.08 0 .621-.507 1.108-1.094 1.108a1.105 1.105 0 0 1-1.094-1.108c0-.594.507-1.08 1.094-1.08m.411-7.875c1.586 0 2.735.957 2.735 2.434 0 2.543-2.297 2.379-2.297 3.554 0 .41-.3.848-.848.848a.85.85 0 0 1-.847-.848c0-2.324 2.297-2.023 2.297-3.554 0-.547-.493-.739-.985-.739-.684 0-1.23.328-1.668.301a.8.8 0 0 1-.765-.848c0-.875 1.285-1.148 2.378-1.148" clip-rule="evenodd"/></g><defs><clipPath id="a"><path fill="#fff" d="M0 0h28v28H0z"/></clipPath></defs></svg>