<svg width="16" height="16" viewBox="0 0 16 16" fill="none" xmlns="http://www.w3.org/2000/svg"><path d="M4.160 1.626 C 3.079 1.644,3.087 1.643,2.760 1.806 C 2.270 2.050,1.907 2.447,1.719 2.946 C 1.662 3.099,1.645 3.206,1.624 3.546 C 1.609 3.792,1.601 5.957,1.606 8.880 C 1.614 14.401,1.593 13.878,1.817 14.121 C 1.991 14.310,2.153 14.381,2.415 14.383 C 2.605 14.384,2.646 14.375,2.762 14.307 C 2.842 14.261,3.307 13.820,3.960 13.172 C 4.547 12.590,5.069 12.092,5.120 12.064 C 5.210 12.016,5.364 12.014,8.984 12.005 L 12.755 11.995 12.998 11.903 C 13.565 11.687,13.950 11.351,14.188 10.867 C 14.398 10.438,14.384 10.681,14.394 7.400 C 14.403 4.251,14.382 3.197,14.306 2.975 C 14.190 2.637,13.890 2.226,13.606 2.018 C 13.421 1.882,13.122 1.739,12.887 1.674 C 12.680 1.617,12.673 1.617,8.920 1.613 C 6.852 1.611,4.710 1.617,4.160 1.626 M12.800 6.796 L 12.800 10.392 9.047 10.408 C 6.713 10.419,5.205 10.436,5.059 10.453 C 4.858 10.477,4.782 10.502,4.536 10.625 C 4.183 10.802,3.966 10.963,3.534 11.370 L 3.200 11.684 3.200 7.442 L 3.200 3.200 8.000 3.200 L 12.800 3.200 12.800 6.796 " fill="#1A1C1F" stroke="none" fill-rule="evenodd"></path></svg>