<svg width="28" height="28" viewBox="0 0 28 28" fill="none" xmlns="http://www.w3.org/2000/svg"><path d="M4.990 2.235 L 3.656 2.263 3.263 2.460 C 3.047 2.568,2.771 2.742,2.651 2.847 C 2.353 3.104,2.007 3.635,1.852 4.071 L 1.725 4.430 1.737 14.757 L 1.750 25.083 1.861 25.308 C 2.021 25.634,2.266 25.784,2.638 25.783 C 2.883 25.782,2.953 25.761,3.108 25.645 C 3.208 25.570,4.372 24.434,5.693 23.120 C 7.015 21.807,8.148 20.705,8.210 20.673 C 8.300 20.627,9.991 20.609,16.214 20.591 L 24.103 20.568 24.471 20.435 C 24.944 20.264,25.229 20.079,25.545 19.737 C 25.829 19.431,26.044 19.029,26.168 18.573 C 26.245 18.290,26.250 17.828,26.248 11.457 C 26.247 6.596,26.232 4.546,26.194 4.303 C 26.057 3.428,25.390 2.664,24.481 2.342 L 24.150 2.224 15.237 2.215 C 10.334 2.211,5.723 2.220,4.990 2.235 M24.096 4.080 C 24.170 4.130,24.285 4.256,24.353 4.360 L 24.477 4.550 24.477 11.390 L 24.477 18.230 24.348 18.424 C 24.094 18.808,24.930 18.769,16.086 18.811 C 10.828 18.836,8.104 18.865,7.933 18.898 C 7.329 19.015,7.122 19.190,4.818 21.513 L 3.500 22.843 3.514 13.720 C 3.525 6.815,3.542 4.556,3.584 4.430 C 3.615 4.338,3.693 4.213,3.759 4.151 C 3.872 4.045,3.917 4.038,4.704 4.010 C 5.158 3.993,9.678 3.982,14.747 3.985 C 23.774 3.990,23.966 3.992,24.096 4.080 M13.622 5.802 C 13.509 5.862,13.354 6.000,13.277 6.109 L 13.137 6.308 13.137 9.162 C 13.137 12.337,13.119 12.151,13.457 12.448 C 13.877 12.817,14.422 12.737,14.738 12.259 L 14.863 12.070 14.877 9.640 C 14.884 8.304,14.871 6.970,14.849 6.677 L 14.807 6.144 14.619 5.969 C 14.312 5.683,13.960 5.624,13.622 5.802 M13.509 14.189 C 13.227 14.334,12.984 14.627,12.897 14.925 C 12.657 15.750,13.198 16.472,14.059 16.473 C 14.448 16.473,14.729 16.353,14.955 16.089 C 15.474 15.483,15.298 14.563,14.598 14.214 C 14.280 14.056,13.790 14.044,13.509 14.189 " fill="#1A1C1F" stroke="none" fill-rule="evenodd"></path></svg>