<svg width="20" height="20" viewBox="0 0 20 20" fill="none" xmlns="http://www.w3.org/2000/svg"><path d="M8.667 2.033 C 7.562 2.049,7.509 2.053,7.325 2.127 C 6.761 2.355,6.286 2.858,6.091 3.433 L 6.017 3.650 6.007 6.979 C 5.996 10.685,5.980 10.400,6.228 10.883 C 6.380 11.181,6.799 11.608,7.086 11.759 C 7.527 11.989,7.361 11.979,10.691 11.992 L 13.699 12.004 15.058 12.912 C 15.805 13.412,16.492 13.857,16.583 13.902 C 16.811 14.013,17.144 14.013,17.390 13.904 C 17.585 13.817,17.831 13.574,17.923 13.378 C 17.980 13.256,17.983 13.009,17.983 8.450 C 17.983 3.831,17.981 3.643,17.920 3.467 C 17.750 2.970,17.447 2.583,17.021 2.319 C 16.538 2.019,16.880 2.044,13.133 2.029 C 11.309 2.022,9.299 2.024,8.667 2.033 M15.993 7.531 C 15.988 9.472,15.974 11.070,15.963 11.082 C 15.951 11.093,15.689 10.936,15.379 10.733 C 15.070 10.530,14.678 10.294,14.508 10.209 L 14.199 10.054 13.708 10.030 C 13.438 10.016,12.043 10.004,10.608 10.002 L 8.000 10.000 8.000 7.000 L 8.000 4.000 12.002 4.000 L 16.003 4.000 15.993 7.531 M2.781 6.029 C 2.602 6.076,2.331 6.243,2.230 6.370 C 1.998 6.663,2.018 6.178,2.007 12.008 L 1.998 17.265 2.082 17.424 C 2.230 17.707,2.415 17.864,2.698 17.947 C 3.166 18.084,3.235 18.053,4.894 16.943 L 6.305 16.000 9.561 16.000 C 12.806 15.999,13.304 15.985,13.499 15.884 C 13.619 15.822,13.862 15.548,13.922 15.408 C 14.000 15.224,14.014 14.933,13.955 14.728 C 13.879 14.466,13.715 14.268,13.462 14.133 L 13.250 14.020 9.633 14.018 C 5.697 14.017,5.849 14.010,5.456 14.207 C 5.349 14.260,4.981 14.484,4.639 14.704 L 4.017 15.103 4.000 10.927 L 3.983 6.750 3.908 6.599 C 3.805 6.391,3.616 6.204,3.416 6.113 C 3.231 6.027,2.938 5.989,2.781 6.029 " fill="#1A1C1F" stroke="none" fill-rule="evenodd"></path></svg>