<svg width="32" height="32" viewBox="0 0 32 32" fill="none" xmlns="http://www.w3.org/2000/svg"><path d="M5.729 2.554 L 4.178 2.587 3.729 2.811 C 3.482 2.935,3.167 3.134,3.029 3.253 C 2.679 3.557,2.278 4.180,2.111 4.679 L 1.971 5.100 1.986 16.883 L 2.000 28.667 2.126 28.924 C 2.310 29.296,2.590 29.467,3.015 29.466 C 3.295 29.465,3.375 29.442,3.552 29.309 C 3.666 29.223,4.996 27.925,6.507 26.423 C 8.017 24.922,9.312 23.663,9.384 23.626 C 9.487 23.573,11.403 23.553,18.530 23.533 L 27.547 23.507 27.967 23.355 C 28.981 22.988,29.612 22.295,29.905 21.227 C 29.994 20.901,30.000 20.403,29.998 13.093 C 29.997 7.473,29.979 5.197,29.935 4.912 C 29.781 3.927,29.005 3.040,27.979 2.676 L 27.600 2.542 17.440 2.532 C 11.852 2.527,6.582 2.537,5.729 2.554 M27.539 4.663 C 27.622 4.720,27.754 4.864,27.832 4.983 L 27.973 5.200 27.973 13.013 L 27.973 20.827 27.827 21.052 C 27.538 21.496,28.499 21.451,18.384 21.499 C 12.514 21.526,9.261 21.560,9.076 21.597 C 8.715 21.667,8.405 21.807,8.133 22.020 C 8.016 22.113,7.037 23.070,5.958 24.148 L 3.996 26.107 4.014 15.680 C 4.028 7.792,4.048 5.207,4.096 5.063 C 4.131 4.958,4.221 4.815,4.296 4.745 C 4.425 4.623,4.477 4.615,5.376 4.583 C 5.895 4.564,11.060 4.551,16.853 4.554 C 27.170 4.560,27.390 4.562,27.539 4.663 M14.480 7.126 C 13.982 7.229,13.372 7.530,13.197 7.759 C 12.996 8.023,12.962 8.447,13.116 8.766 C 13.208 8.956,13.291 9.036,13.507 9.144 C 13.849 9.314,13.972 9.314,14.667 9.140 C 15.056 9.042,15.381 8.997,15.733 8.993 C 16.182 8.987,16.267 9.002,16.475 9.120 C 16.798 9.304,16.923 9.544,16.882 9.911 C 16.823 10.452,16.646 10.680,15.736 11.379 C 14.779 12.115,14.563 12.390,14.377 13.106 C 14.156 13.960,14.415 14.605,15.047 14.775 C 15.616 14.928,16.105 14.559,16.213 13.895 C 16.295 13.393,16.405 13.243,17.044 12.758 C 18.217 11.870,18.636 11.323,18.775 10.499 C 18.862 9.979,18.817 9.231,18.673 8.827 C 18.365 7.962,17.592 7.331,16.577 7.118 C 16.105 7.019,14.977 7.023,14.480 7.126 M14.952 16.050 C 14.166 16.240,13.782 17.146,14.188 17.853 C 14.369 18.169,14.628 18.363,15.000 18.462 C 15.475 18.587,16.038 18.333,16.310 17.870 C 16.429 17.667,16.453 17.564,16.452 17.253 C 16.450 16.796,16.311 16.498,15.992 16.267 C 15.724 16.073,15.260 15.976,14.952 16.050 " fill="#1A1C1F" stroke="none" fill-rule="evenodd"></path></svg>