<svg width="20" height="20" viewBox="0 0 20 20" fill="none" xmlns="http://www.w3.org/2000/svg"><path d="M3.900 2.135 C 3.024 2.361,2.389 2.968,2.082 3.872 L 2.000 4.112 2.000 10.699 L 2.000 17.287 2.096 17.439 C 2.229 17.648,2.352 17.759,2.567 17.862 C 2.802 17.975,3.177 17.985,3.382 17.884 C 3.461 17.845,4.026 17.314,4.800 16.551 C 5.508 15.854,6.152 15.238,6.232 15.183 L 6.378 15.083 7.497 15.061 C 8.113 15.049,10.276 15.038,12.303 15.036 C 15.865 15.033,15.996 15.031,16.178 14.968 C 16.858 14.734,17.420 14.236,17.734 13.586 C 18.003 13.030,17.983 13.427,17.983 8.433 L 17.983 3.983 17.905 3.750 C 17.790 3.411,17.623 3.127,17.394 2.882 C 17.141 2.611,16.963 2.482,16.577 2.286 C 16.298 2.145,16.240 2.128,15.927 2.100 C 15.731 2.082,13.126 2.069,9.867 2.070 C 4.322 2.070,4.142 2.072,3.900 2.135 M16.000 8.528 L 16.000 13.023 11.242 13.044 C 8.431 13.057,6.356 13.080,6.172 13.100 C 5.912 13.128,5.810 13.158,5.553 13.281 C 5.172 13.464,5.002 13.596,4.442 14.145 L 4.000 14.578 4.000 9.306 L 4.000 4.033 10.000 4.033 L 16.000 4.033 16.000 8.528 " fill="#1A1C1F" stroke="none" fill-rule="evenodd"></path></svg>