<svg xmlns="http://www.w3.org/2000/svg" width="20" height="20" fill="none"><g clip-path="url(#a)"><path fill="#1A1C1F" fill-rule="evenodd" d="M15.412 2C16.922 2 18 3.132 18 4.499v8.003A2.51 2.51 0 0 1 15.49 15H6.843c-.294 0-.549.078-.725.273l-2.412 2.44C3.079 18.338 2 17.87 2 16.99V4.5C2 3.132 3.137 2 4.53 2zM16 4H4v10.6l.727-.684c.53-.509 1.217-.877 1.944-.916H16zm-7.075 7.093c0 .625.51 1.093 1.098 1.093s1.098-.468 1.098-1.093A1.12 1.12 0 0 0 10.023 10c-.588 0-1.098.508-1.098 1.093M9 9.002V5h2v4.002z" clip-rule="evenodd"/></g><defs><clipPath id="a"><path fill="#fff" d="M0 0h20v20H0z"/></clipPath></defs></svg>