<svg xmlns="http://www.w3.org/2000/svg" width="20" height="20" fill="none"><g clip-path="url(#a)"><path fill="#1A1C1F" fill-rule="evenodd" d="M15.412 2C16.922 2 18 3.132 18 4.499v8.003A2.51 2.51 0 0 1 15.49 15H6.843c-.294 0-.549.078-.725.273l-2.412 2.44C3.079 18.338 2 17.87 2 16.99V4.5C2 3.132 3.137 2 4.53 2zM16 4H4v10.6l.727-.684c.53-.509 1.217-.877 1.944-.916H16zm-6 6.5c.498 0 .875.381.875.866a.87.87 0 0 1-.875.884.87.87 0 0 1-.875-.884c0-.485.377-.866.875-.866m.194-5.5c1.102 0 1.955.592 1.955 1.67 0 .83-.414 1.284-.787 1.614-.373.329-.586.483-.582.692v.79H9.232v-.79c0-.624.31-.936.636-1.174l.419-.293c.188-.145.326-.303.326-.545 0-.219-.114-.416-.547-.416-.372 0-.803.145-1.137.33L8.4 5.506C8.73 5.239 9.496 5 10.194 5" clip-rule="evenodd"/></g><defs><clipPath id="a"><path fill="#fff" d="M0 0h20v20H0z"/></clipPath></defs></svg>