<svg width="14" height="14" viewBox="0 0 14 14" fill="none" xmlns="http://www.w3.org/2000/svg"><path d="M5.962 1.422 C 5.300 1.434,5.254 1.438,5.128 1.489 C 4.733 1.649,4.400 2.000,4.263 2.403 L 4.212 2.555 4.205 4.886 C 4.198 7.480,4.186 7.280,4.359 7.618 C 4.466 7.827,4.759 8.126,4.960 8.231 C 5.269 8.393,5.153 8.385,7.484 8.394 L 9.589 8.403 10.541 9.039 C 11.064 9.388,11.544 9.700,11.608 9.731 C 11.767 9.809,12.001 9.809,12.173 9.732 C 12.310 9.672,12.482 9.502,12.546 9.365 C 12.586 9.280,12.588 9.106,12.588 5.915 C 12.588 2.682,12.587 2.550,12.544 2.427 C 12.393 1.987,12.091 1.668,11.652 1.486 L 11.515 1.430 9.088 1.420 C 7.754 1.414,6.347 1.416,5.962 1.422 M11.195 5.271 C 11.191 6.631,11.182 7.749,11.174 7.757 C 11.166 7.765,10.956 7.639,10.707 7.478 C 10.053 7.053,10.043 7.049,9.635 7.023 C 9.450 7.011,8.466 7.001,7.449 7.000 L 5.600 7.000 5.600 4.900 L 5.600 2.800 8.401 2.800 L 11.202 2.800 11.195 5.271 M1.948 4.220 C 1.737 4.275,1.549 4.429,1.462 4.617 L 1.412 4.725 1.405 8.405 L 1.399 12.086 1.455 12.197 C 1.564 12.411,1.725 12.531,1.973 12.583 C 2.081 12.606,2.127 12.604,2.252 12.571 C 2.431 12.524,2.541 12.456,3.600 11.745 L 4.411 11.200 6.691 11.200 C 8.964 11.200,9.313 11.189,9.449 11.119 C 9.534 11.075,9.703 10.884,9.749 10.780 C 9.806 10.652,9.800 10.351,9.738 10.217 C 9.674 10.077,9.537 9.941,9.391 9.871 L 9.275 9.816 6.732 9.814 C 4.326 9.812,4.181 9.814,4.049 9.855 C 3.851 9.916,3.728 9.983,3.264 10.282 C 3.037 10.427,2.841 10.547,2.827 10.547 C 2.809 10.547,2.799 9.704,2.795 7.636 C 2.789 4.885,2.786 4.720,2.746 4.635 C 2.683 4.500,2.510 4.328,2.382 4.273 C 2.254 4.218,2.052 4.193,1.948 4.220 " fill="#1A1C1F" stroke="none" fill-rule="evenodd"></path></svg>