<svg xmlns="http://www.w3.org/2000/svg" width="32" height="32" fill="none"><path fill="#1A1C1F" fill-rule="evenodd" d="M11.206 2.111c-.768.207-1.548.855-1.886 1.569a4 4 0 0 0-.248.683c-.082.395-.082 10.879 0 11.274.212 1.027 1.028 1.894 2.128 2.263.277.092.625.099 6.24.112 3.271.008 6.007.028 6.08.044.083.019 1.047.942 2.533 2.425 1.32 1.316 2.468 2.419 2.55 2.45.519.193 1.217-.13 1.357-.628.022-.079.04-4.115.04-8.97V4.507l-.148-.418c-.354-1.001-1.122-1.727-2.095-1.981-.459-.119-16.106-.117-16.551.003m16.261 1.988c.103.054.258.2.346.324l.16.226.014 7.474.014 7.473-1.56-1.547c-1.303-1.29-1.614-1.572-1.881-1.7-.717-.344-.222-.319-6.862-.348l-6.061-.028-.205-.165a1.6 1.6 0 0 1-.312-.347c-.105-.178-.107-.277-.107-5.408 0-2.874.018-5.29.04-5.369.06-.214.303-.474.545-.584.206-.093.561-.098 7.949-.099 7.43-.001 7.742.003 7.92.098M4.248 9.098c-.995.241-1.819 1.057-2.15 2.131-.093.303-.098.733-.098 9.171v8.853l.133.266c.228.453.586.567 1.178.375.271-.088.436-.24 2.609-2.401 1.276-1.269 2.38-2.34 2.453-2.38.109-.06 1.067-.078 5.227-.1l5.093-.027.316-.12q1.344-.51 1.825-1.915c.124-.361.147-.528.168-1.224.026-.883-.01-1.084-.244-1.363-.167-.197-.503-.361-.746-.363a1.17 1.17 0 0 0-.696.282c-.262.244-.299.388-.328 1.268-.027.808-.032.836-.177 1.027-.313.409.103.379-5.558.409-5.027.027-5.069.029-5.369.143-.58.22-.903.486-2.405 1.982l-1.48 1.474.014-7.475.014-7.474.165-.205c.3-.371.419-.41 1.355-.443.812-.028.84-.033 1.031-.179.596-.454.529-1.357-.126-1.69-.183-.094-.309-.106-1.05-.102-.529.003-.958.032-1.154.08"/></svg>