<svg width="28" height="28" viewBox="0 0 28 28" fill="none" xmlns="http://www.w3.org/2000/svg"><path d="M10.803 1.818 L 9.730 1.843 9.427 1.998 C 8.719 2.360,8.281 2.843,8.022 3.547 L 7.910 3.850 7.910 8.750 C 7.910 13.407,7.914 13.663,7.997 13.907 C 8.265 14.699,8.954 15.382,9.744 15.639 C 10.056 15.741,10.075 15.741,15.309 15.769 C 20.034 15.794,20.572 15.804,20.675 15.872 C 20.738 15.913,21.704 16.846,22.820 17.944 C 23.936 19.042,24.913 19.979,24.990 20.027 C 25.234 20.177,25.628 20.122,25.935 19.894 C 26.260 19.653,26.234 20.316,26.262 11.786 L 26.288 4.080 26.181 3.755 C 25.920 2.954,25.421 2.350,24.753 2.025 L 24.383 1.845 23.240 1.814 C 21.897 1.777,12.363 1.780,10.803 1.818 M23.629 3.540 L 24.041 3.571 24.239 3.781 L 24.438 3.991 24.469 6.347 C 24.486 7.643,24.500 10.604,24.500 12.926 L 24.500 17.149 23.415 16.073 C 21.931 14.601,21.743 14.436,21.339 14.244 L 20.994 14.080 19.749 14.043 C 19.064 14.022,16.636 14.004,14.355 14.003 L 10.206 14.000 10.009 13.839 C 9.633 13.531,9.660 13.919,9.660 8.725 C 9.660 4.123,9.661 4.093,9.757 3.938 C 9.934 3.651,10.099 3.573,10.593 3.543 C 11.218 3.504,23.128 3.501,23.629 3.540 M3.910 7.933 C 3.029 8.042,2.203 8.776,1.862 9.753 L 1.756 10.057 1.737 17.790 L 1.717 25.524 1.818 25.733 C 1.874 25.848,1.992 26.006,2.081 26.085 C 2.357 26.327,2.819 26.273,3.220 25.952 C 3.335 25.859,4.289 24.936,5.340 23.901 C 6.391 22.865,7.304 21.997,7.370 21.970 C 7.447 21.940,9.067 21.914,11.900 21.900 L 16.310 21.877 16.613 21.758 C 17.415 21.445,17.943 20.889,18.232 20.059 C 18.332 19.773,18.355 19.605,18.375 19.040 C 18.402 18.255,18.357 18.020,18.137 17.802 C 18.056 17.722,17.888 17.617,17.763 17.570 C 17.566 17.495,17.508 17.491,17.321 17.541 C 17.041 17.616,16.808 17.796,16.719 18.008 C 16.674 18.115,16.635 18.429,16.612 18.865 C 16.573 19.605,16.527 19.755,16.282 19.937 C 16.095 20.076,15.324 20.109,12.063 20.116 C 10.472 20.119,8.677 20.137,8.073 20.155 L 6.977 20.189 6.689 20.336 C 6.275 20.549,5.951 20.831,4.649 22.117 L 3.489 23.263 3.512 16.716 L 3.535 10.168 3.672 9.996 C 3.898 9.711,4.049 9.664,4.870 9.618 C 5.552 9.580,5.611 9.569,5.759 9.457 C 5.954 9.308,6.113 8.990,6.113 8.750 C 6.113 8.487,5.948 8.182,5.726 8.035 C 5.545 7.915,5.509 7.910,4.880 7.902 C 4.519 7.898,4.082 7.912,3.910 7.933 " fill="#1A1C1F" stroke="none" fill-rule="evenodd"></path></svg>