<svg xmlns="http://www.w3.org/2000/svg" width="28" height="28" fill="none"><g clip-path="url(#a)"><path fill="#1A1C1F" fill-rule="evenodd" d="M5.25 7.875c.492 0 .875.383.875.875 0 .438-.328.875-.875.875h-.875c-.437 0-.875.328-.875.875v12.77l2.379-2.38c.437-.437 1.039-.765 1.668-.765h8.203c.438 0 .875-.328.875-.875v-.875c0-.492.383-.875.875-.875.438 0 .875.328.875.875v.875c0 1.395-1.094 2.625-2.46 2.625H7.737a.91.91 0 0 0-.629.246L3.418 25.84c-.164.164-.547.41-.984.41-.383 0-.684-.41-.684-.875V10.5c0-1.395 1.094-2.625 2.625-2.625zM23.625 1.75a2.626 2.626 0 0 1 2.625 2.625V19.25c0 .52-.437.875-.902.875a.82.82 0 0 1-.602-.246l-3.855-3.883a.85.85 0 0 0-.602-.246H10.5a2.626 2.626 0 0 1-2.625-2.625v-8.75A2.626 2.626 0 0 1 10.5 1.75zm.11 1.75H10.5a.864.864 0 0 0-.875.875v8.75c0 .492.383.875.875.875h9.79c.683 0 1.339.273 1.831.766l2.379 2.379V4.375c0-.437-.328-.875-.766-.875" clip-rule="evenodd"/></g><defs><clipPath id="a"><path fill="#fff" d="M0 0h28v28H0z"/></clipPath></defs></svg>