<svg xmlns="http://www.w3.org/2000/svg" width="16" height="16" fill="none"><g clip-path="url(#a)"><path fill="#1A1C1F" fill-rule="evenodd" d="M12.33 1.6c1.207 0 2.07.906 2.07 1.999v6.403A2.007 2.007 0 0 1 12.392 12H5.475c-.236 0-.44.063-.58.219l-1.93 1.952c-.502.5-1.365.125-1.365-.578V3.6c0-1.093.91-1.999 2.024-1.999zM8 8.7c-.512 0-.9.392-.9.891 0 .5.388.909.9.909s.9-.41.9-.909A.88.88 0 0 0 8 8.7m.195-5.612c-.72 0-1.51.348-1.85.624l.545 1.414c.345-.19.788-.34 1.172-.34.447 0 .564.203.564.43 0 .248-.142.411-.336.56l-.432.303c-.336.245-.656.567-.656 1.21V7.9h1.596v-.611c-.004-.215.216-.375.6-.714.385-.34.812-.808.812-1.664 0-1.11-.88-1.823-2.015-1.823" clip-rule="evenodd"/></g><defs><clipPath id="a"><path fill="#fff" d="M0 0h16v16H0z"/></clipPath></defs></svg>