<svg width="14" height="14" viewBox="0 0 14 14" fill="none" xmlns="http://www.w3.org/2000/svg"><path d="M3.628 1.423 C 2.696 1.439,2.700 1.438,2.415 1.580 C 1.986 1.794,1.669 2.141,1.504 2.578 C 1.454 2.712,1.439 2.805,1.421 3.103 C 1.407 3.318,1.401 5.213,1.405 7.770 C 1.412 12.613,1.393 12.145,1.596 12.361 C 1.752 12.528,1.879 12.583,2.111 12.585 C 2.280 12.586,2.315 12.578,2.417 12.519 C 2.487 12.478,2.894 12.093,3.465 11.526 C 3.978 11.016,4.435 10.580,4.480 10.557 C 4.558 10.515,4.707 10.513,7.852 10.504 L 11.142 10.495 11.360 10.417 C 11.896 10.226,12.270 9.877,12.480 9.373 C 12.539 9.230,12.558 9.143,12.576 8.920 C 12.605 8.581,12.606 3.947,12.578 3.232 C 12.556 2.656,12.539 2.582,12.369 2.290 C 12.133 1.887,11.746 1.595,11.276 1.465 C 11.095 1.415,11.091 1.415,7.793 1.412 C 5.977 1.410,4.103 1.415,3.628 1.423 M11.200 5.946 L 11.200 9.093 7.916 9.107 C 5.828 9.116,4.556 9.131,4.424 9.146 C 4.247 9.168,4.180 9.189,3.973 9.293 C 3.670 9.445,3.467 9.597,3.093 9.948 L 2.800 10.224 2.800 6.512 L 2.800 2.800 7.000 2.800 L 11.200 2.800 11.200 5.946 M6.843 3.524 C 6.468 3.571,5.903 3.774,5.903 3.861 C 5.903 3.901,6.127 4.516,6.208 4.699 L 6.255 4.806 6.342 4.769 C 6.636 4.642,6.906 4.584,7.117 4.603 C 7.343 4.623,7.442 4.732,7.410 4.928 C 7.385 5.085,7.317 5.166,7.040 5.369 C 6.743 5.587,6.646 5.683,6.568 5.834 C 6.491 5.985,6.463 6.169,6.463 6.526 L 6.463 6.837 7.012 6.837 L 7.560 6.837 7.560 6.506 L 7.560 6.175 7.941 5.788 C 8.314 5.410,8.325 5.397,8.401 5.203 C 8.467 5.033,8.480 4.969,8.489 4.751 C 8.501 4.444,8.459 4.263,8.331 4.064 C 8.115 3.731,7.729 3.539,7.222 3.514 C 7.106 3.508,6.936 3.513,6.843 3.524 M6.811 7.385 C 6.690 7.424,6.504 7.576,6.446 7.685 C 6.392 7.786,6.391 8.126,6.445 8.226 C 6.640 8.590,7.132 8.675,7.419 8.394 C 7.647 8.171,7.667 7.773,7.460 7.560 C 7.301 7.397,7.016 7.319,6.811 7.385 " fill="#1A1C1F" stroke="none" fill-rule="evenodd"></path></svg>