<svg width="20" height="20" viewBox="0 0 20 20" fill="none" xmlns="http://www.w3.org/2000/svg"><path d="M5.033 2.031 C 4.109 2.051,3.997 2.060,3.800 2.126 C 3.348 2.279,2.899 2.593,2.552 3.000 C 2.346 3.242,2.228 3.454,2.103 3.811 L 2.000 4.105 2.000 10.664 L 2.000 17.223 2.086 17.387 C 2.286 17.767,2.624 17.983,3.017 17.983 C 3.417 17.983,3.421 17.980,4.989 16.424 L 6.396 15.028 11.090 14.998 C 14.132 14.979,15.865 14.956,16.017 14.933 C 16.305 14.888,16.776 14.665,17.033 14.452 C 17.273 14.253,17.574 13.897,17.698 13.665 C 17.752 13.563,17.843 13.344,17.898 13.177 L 18.000 12.873 18.000 8.494 L 18.000 4.114 17.898 3.800 C 17.770 3.403,17.646 3.172,17.419 2.905 C 17.166 2.607,16.916 2.406,16.594 2.241 C 16.356 2.119,16.272 2.095,16.000 2.068 C 15.620 2.029,6.493 1.998,5.033 2.031 M11.000 6.500 L 11.000 9.000 10.000 9.000 L 9.000 9.000 9.000 6.500 L 9.000 4.000 10.000 4.000 L 11.000 4.000 11.000 6.500 M10.400 10.086 C 10.616 10.155,10.867 10.358,10.992 10.566 C 11.097 10.741,11.100 10.759,11.100 11.115 C 11.099 11.461,11.093 11.494,11.002 11.654 C 10.580 12.388,9.550 12.435,9.105 11.740 C 8.801 11.268,8.867 10.694,9.268 10.319 C 9.586 10.021,9.956 9.945,10.400 10.086 " fill="#1A1C1F" stroke="none" fill-rule="evenodd"></path></svg>