<svg width="16" height="16" viewBox="0 0 16 16" fill="none" xmlns="http://www.w3.org/2000/svg"><path d="M3.130 1.664 C 2.769 1.752,2.305 2.051,2.064 2.351 C 1.748 2.744,1.658 2.988,1.624 3.546 C 1.609 3.792,1.601 5.957,1.606 8.880 C 1.614 14.401,1.593 13.878,1.817 14.121 C 1.991 14.310,2.153 14.381,2.415 14.383 C 2.605 14.384,2.646 14.375,2.762 14.307 C 2.842 14.261,3.307 13.820,3.960 13.172 C 4.547 12.590,5.069 12.092,5.120 12.064 C 5.210 12.016,5.364 12.014,8.985 12.005 L 12.757 11.995 13.029 11.890 C 13.627 11.659,14.028 11.276,14.263 10.712 C 14.331 10.548,14.352 10.449,14.373 10.195 C 14.405 9.805,14.407 4.506,14.375 3.693 C 14.349 3.041,14.335 2.976,14.151 2.645 C 13.850 2.105,13.280 1.713,12.708 1.653 C 12.321 1.612,3.301 1.623,3.130 1.664 M8.507 3.121 C 9.316 3.204,9.978 3.745,10.147 4.460 C 10.198 4.677,10.197 5.150,10.146 5.399 C 10.051 5.859,9.834 6.171,9.219 6.733 C 8.821 7.097,8.817 7.106,8.804 7.540 L 8.794 7.893 7.993 7.893 L 7.192 7.893 7.207 7.447 C 7.233 6.668,7.346 6.467,8.053 5.943 C 8.370 5.708,8.544 5.540,8.588 5.424 C 8.632 5.308,8.618 5.088,8.561 4.995 C 8.470 4.845,8.374 4.813,8.027 4.815 C 7.684 4.817,7.515 4.854,7.173 5.000 C 7.053 5.051,6.945 5.093,6.932 5.093 C 6.918 5.093,6.882 5.043,6.850 4.981 C 6.756 4.796,6.348 3.727,6.362 3.703 C 6.391 3.656,6.746 3.463,6.994 3.360 C 7.329 3.220,7.603 3.150,7.920 3.122 C 8.059 3.111,8.187 3.099,8.204 3.097 C 8.221 3.095,8.357 3.106,8.507 3.121 M8.421 8.813 C 8.583 8.901,8.718 9.039,8.804 9.205 C 8.847 9.290,8.866 9.382,8.875 9.555 C 8.886 9.782,8.884 9.796,8.789 9.987 C 8.623 10.324,8.361 10.485,7.979 10.486 C 7.640 10.486,7.353 10.300,7.193 9.975 C 7.143 9.873,7.133 9.810,7.134 9.587 C 7.134 9.360,7.143 9.303,7.195 9.205 C 7.314 8.981,7.503 8.819,7.733 8.743 C 7.770 8.731,7.908 8.725,8.040 8.729 C 8.247 8.735,8.300 8.746,8.421 8.813 " fill="#1A1C1F" stroke="none" fill-rule="evenodd"></path></svg>