<svg xmlns="http://www.w3.org/2000/svg" width="12" height="12" fill="none"><g clip-path="url(#a)"><path fill="#1A1C1F" fill-rule="evenodd" d="M9.247 1.2c.906 0 1.553.68 1.553 1.5V7.5c0 .82-.67 1.5-1.506 1.5H4.106c-.177 0-.33.046-.435.163l-1.447 1.464c-.377.375-1.024.094-1.024-.433V2.699c0-.82.682-1.499 1.518-1.499zM6 6.525a.66.66 0 0 0-.675.668c0 .375.291.682.675.682a.673.673 0 0 0 .675-.682A.66.66 0 0 0 6 6.525m.146-4.21c-.54 0-1.132.262-1.387.469l.409 1.06c.258-.142.59-.255.879-.255.335 0 .423.153.423.322 0 .187-.107.31-.253.421l-.323.227c-.253.184-.492.425-.492.908v.458h1.197v-.458c-.003-.162.162-.281.45-.536.288-.254.608-.606.608-1.248 0-.833-.66-1.367-1.511-1.367" clip-rule="evenodd"/></g><defs><clipPath id="a"><path fill="#fff" d="M0 0h12v12H0z"/></clipPath></defs></svg>