<svg xmlns="http://www.w3.org/2000/svg" width="14" height="14" fill="none"><g clip-path="url(#a)"><path fill="#1A1C1F" fill-rule="evenodd" d="M1.4 11.9v-7c0-.347.28-.7.7-.7s.7.35.7.7l.007 5.679.833-.547a1.35 1.35 0 0 1 .779-.232H9.1c.35 0 .7.28.7.7s-.326.707-.7.7l-4.681-.007-1.926 1.298c-.123.054-.26.109-.383.109-.355 0-.71-.208-.71-.7m9.793-10.5c.765 0 1.407.642 1.407 1.407v6.296c0 .41-.355.697-.71.697a.7.7 0 0 1-.383-.11L9.581 8.394H5.607A1.41 1.41 0 0 1 4.2 7V2.807c0-.765.642-1.407 1.407-1.407zm0 1.407H5.607V7H9.58q.43 0 .779.246l.833.546z" clip-rule="evenodd"/></g><defs><clipPath id="a"><path fill="#fff" d="M0 0h14v14H0z"/></clipPath></defs></svg>