<svg xmlns="http://www.w3.org/2000/svg" width="20" height="20" fill="none"><g clip-path="url(#a)"><path fill="#1A1C1F" fill-rule="evenodd" d="M15.412 2C16.922 2 18 3.132 18 4.499v8.003A2.51 2.51 0 0 1 15.49 15H6.843c-.294 0-.549.078-.725.273l-2.412 2.44C3.079 18.338 2 17.87 2 16.99V4.5C2 3.132 3.137 2 4.53 2zM10 10.875c-.64 0-1.125.49-1.125 1.114S9.36 13.125 10 13.125s1.125-.512 1.125-1.136-.485-1.114-1.125-1.114m.243-7.015c-.9 0-1.886.435-2.312.78l.682 1.768c.43-.238.985-.426 1.465-.426.559 0 .705.255.705.537 0 .311-.178.515-.42.702l-.54.377c-.42.306-.82.71-.82 1.513v.764h1.995v-.764c-.005-.269.27-.468.75-.892s1.014-1.01 1.014-2.08c0-1.389-1.1-2.28-2.519-2.28" clip-rule="evenodd"/></g><defs><clipPath id="a"><path fill="#fff" d="M0 0h20v20H0z"/></clipPath></defs></svg>