<svg width="24" height="24" viewBox="0 0 24 24" fill="none" xmlns="http://www.w3.org/2000/svg"><path d="M5.220 2.039 C 4.402 2.061,4.319 2.070,4.047 2.169 C 3.123 2.502,2.427 3.237,2.104 4.223 L 1.998 4.547 2.009 12.903 C 2.018 19.685,2.030 21.283,2.072 21.380 C 2.145 21.545,2.388 21.790,2.580 21.890 C 2.789 22.000,3.200 22.008,3.400 21.907 C 3.540 21.837,4.004 21.406,6.126 19.374 C 6.750 18.777,7.322 18.237,7.398 18.174 L 7.535 18.060 8.858 18.034 C 9.585 18.020,12.260 18.007,14.802 18.004 L 19.425 18.000 19.762 17.886 C 20.861 17.514,21.508 16.883,21.878 15.822 L 22.004 15.463 21.990 9.982 C 21.975 3.832,22.002 4.363,21.673 3.682 C 21.535 3.396,21.447 3.281,21.105 2.942 C 20.662 2.502,20.401 2.328,19.953 2.173 C 19.708 2.088,19.549 2.065,18.980 2.038 C 18.219 2.001,6.594 2.002,5.220 2.039 M19.510 4.168 C 19.600 4.228,19.723 4.342,19.784 4.422 C 19.885 4.554,19.897 4.609,19.929 5.073 C 19.970 5.665,19.943 15.239,19.900 15.428 C 19.860 15.608,19.633 15.857,19.410 15.965 L 19.220 16.057 13.320 16.084 C 10.075 16.099,7.348 16.123,7.260 16.139 C 6.991 16.186,6.321 16.539,6.040 16.784 C 5.897 16.908,5.389 17.387,4.910 17.848 L 4.040 18.687 4.042 12.213 C 4.044 8.653,4.059 5.473,4.077 5.146 C 4.113 4.492,4.126 4.457,4.416 4.222 C 4.560 4.106,4.590 4.099,5.034 4.076 C 5.290 4.063,8.615 4.054,12.423 4.056 L 19.346 4.060 19.510 4.168 M11.740 5.559 C 11.450 5.592,10.475 5.896,10.160 6.051 C 10.016 6.122,9.982 6.159,9.990 6.232 C 9.995 6.283,10.136 6.682,10.303 7.118 L 10.607 7.912 10.857 7.798 C 11.414 7.546,12.180 7.444,12.503 7.579 C 12.767 7.689,12.834 8.107,12.638 8.423 C 12.593 8.496,12.344 8.717,12.085 8.914 C 11.504 9.357,11.235 9.646,11.117 9.950 C 11.040 10.148,11.025 10.280,11.009 10.910 L 10.990 11.640 11.990 11.640 L 12.990 11.640 13.007 11.021 L 13.024 10.402 13.692 9.726 C 14.285 9.127,14.376 9.016,14.496 8.755 C 14.751 8.199,14.818 7.659,14.695 7.163 C 14.596 6.766,14.458 6.529,14.144 6.219 C 13.831 5.909,13.498 5.712,13.135 5.623 C 12.840 5.551,12.109 5.517,11.740 5.559 M11.757 12.556 C 11.467 12.615,11.218 12.824,11.083 13.120 C 10.707 13.951,11.699 14.812,12.495 14.345 C 12.755 14.193,12.994 13.799,12.998 13.515 C 13.001 13.344,12.878 13.016,12.756 12.868 C 12.555 12.624,12.108 12.485,11.757 12.556 " fill="#1A1C1F" stroke="none" fill-rule="evenodd"></path></svg>