<svg xmlns="http://www.w3.org/2000/svg" width="24" height="24" fill="none"><g clip-path="url(#a)"><path fill="#1A1C1F" fill-rule="evenodd" d="M18.995 2A3.026 3.026 0 0 1 22 5.005v10c0 1.643-1.361 2.98-3.005 2.98H7.962a.96.96 0 0 0-.704.283l-3.568 3.45a.94.94 0 0 1-.68.282C2.492 22 2 21.6 2 20.99V5.006A3.026 3.026 0 0 1 5.005 2zm0 2.019H5.005a.963.963 0 0 0-.986.986v13.709l1.854-1.808c.54-.493 1.197-.822 1.902-.845h11.22c.564 0 .986-.446.986-1.01V5.006a.963.963 0 0 0-.986-.986m-7 8.501c.566 0 .995.43.995.976s-.429.995-.995.995a.987.987 0 0 1-.995-.995c0-.547.43-.976.995-.976m.242-7.02c1.416 0 2.513.76 2.513 2.147 0 1.05-.516 1.634-.99 2.055-.592.526-.758.618-.76.91v1.015h-2v-1.015c0-.81.406-1.212.83-1.518l.45-.312c.28-.202.495-.414.495-.756 0-.282-.146-.536-.703-.536-.479 0-1.032.187-1.462.425L9.93 6.15q1.41-.65 2.307-.65" clip-rule="evenodd"/></g><defs><clipPath id="a"><path fill="#fff" d="M0 0h24v24H0z"/></clipPath></defs></svg>