<svg width="12" height="12" viewBox="0 0 12 12" fill="none" xmlns="http://www.w3.org/2000/svg"><path d="M5.220 1.220 C 4.516 1.230,4.509 1.230,4.390 1.281 C 4.043 1.427,3.772 1.714,3.654 2.060 L 3.610 2.190 3.604 4.188 C 3.598 6.411,3.588 6.240,3.737 6.530 C 3.828 6.709,4.079 6.965,4.252 7.055 C 4.516 7.194,4.417 7.187,6.415 7.195 L 8.219 7.202 9.035 7.747 C 9.483 8.047,9.895 8.314,9.950 8.341 C 10.087 8.408,10.286 8.408,10.435 8.342 C 10.559 8.287,10.724 8.118,10.763 8.005 C 10.785 7.944,10.790 7.397,10.790 5.060 C 10.790 2.298,10.789 2.186,10.752 2.080 C 10.650 1.782,10.468 1.550,10.213 1.391 C 9.922 1.211,10.126 1.226,7.900 1.218 C 6.816 1.213,5.611 1.215,5.220 1.220 M9.596 4.518 C 9.593 5.683,9.584 6.642,9.578 6.649 C 9.571 6.656,9.413 6.562,9.228 6.440 C 9.042 6.318,8.807 6.177,8.705 6.125 L 8.519 6.033 8.225 6.018 C 8.063 6.009,7.226 6.002,6.365 6.001 L 4.800 6.000 4.800 4.200 L 4.800 2.400 7.201 2.400 L 9.602 2.400 9.596 4.518 M1.669 3.618 C 1.561 3.645,1.399 3.746,1.338 3.822 C 1.200 3.997,1.211 3.729,1.205 7.215 L 1.199 10.359 1.248 10.455 C 1.341 10.638,1.479 10.741,1.692 10.786 C 1.784 10.805,1.823 10.803,1.930 10.775 C 2.084 10.735,2.179 10.676,3.085 10.067 L 3.780 9.600 5.735 9.600 C 7.684 9.600,7.982 9.591,8.100 9.530 C 8.171 9.493,8.317 9.329,8.353 9.245 C 8.400 9.134,8.409 8.960,8.373 8.837 C 8.327 8.680,8.229 8.561,8.077 8.480 L 7.950 8.411 5.770 8.411 C 3.709 8.410,3.583 8.412,3.471 8.447 C 3.300 8.499,3.202 8.553,2.783 8.822 L 2.410 9.062 2.400 6.556 L 2.390 4.050 2.345 3.959 C 2.283 3.835,2.169 3.723,2.050 3.668 C 1.939 3.616,1.763 3.593,1.669 3.618 " fill="#1A1C1F" stroke="none" fill-rule="evenodd"></path></svg>