<svg xmlns="http://www.w3.org/2000/svg" width="32" height="32" fill="none"><g clip-path="url(#a)"><path fill="#1A1C1F" fill-rule="evenodd" d="M27 2.5c1.563 0 3 1.156 3 3v15c0 1.563-1.123 3-3 3H9.844c-.281 0-.485.046-.719.281L3.719 29.22A1.04 1.04 0 0 1 3 29.5c-.469 0-1-.374-1-1v-23c0-1.562 1.254-3 3-3zm0 2H5c-.469 0-1 .25-1 1v20.594l3.688-3.719c.606-.612 1.241-.875 2.156-.875H27c.469 0 1-.281 1-1v-15c0-.469-.372-1-1-1M15.25 16c.67 0 1.25.556 1.25 1.235 0 .71-.58 1.265-1.25 1.265S14 17.945 14 17.235c0-.68.58-1.235 1.25-1.235m.47-9c1.813 0 3.125 1.094 3.125 2.781 0 2.906-2.625 2.719-2.625 4.063 0 .468-.343.968-.968.968a.973.973 0 0 1-.969-.968c0-2.657 2.625-2.313 2.625-4.063 0-.625-.563-.844-1.125-.844-.781 0-1.406.375-1.906.344s-.907-.437-.875-.969c0-1 1.468-1.312 2.718-1.312" clip-rule="evenodd"/></g><defs><clipPath id="a"><path fill="#fff" d="M0 0h32v32H0z"/></clipPath></defs></svg>