<svg xmlns="http://www.w3.org/2000/svg" width="20" height="20" fill="none"><g clip-path="url(#a)"><path fill="#1A1C1F" fill-rule="evenodd" d="M2 17V7c0-.495.4-1 1-1s1 .5 1 1l.01 8.112 1.19-.78c.312-.195.624-.332 1.112-.332H13c.5 0 1 .4 1 1s-.466 1.01-1 1l-6.688-.01-2.751 1.854c-.176.078-.37.156-.546.156C2.507 18 2 17.702 2 17M15.99 2C17.083 2 18 2.917 18 4.01v8.995c0 .585-.507.995-1.015.995a.98.98 0 0 1-.546-.156l-2.751-1.854H8.01C6.917 11.99 6 11.093 6 10V4.01C6 2.917 6.917 2 8.01 2zm0 2.01H8.01V10h5.678q.614 0 1.112.351l1.19.78z" clip-rule="evenodd"/></g><defs><clipPath id="a"><path fill="#fff" d="M0 0h20v20H0z"/></clipPath></defs></svg>