<svg width="12" height="12" viewBox="0 0 12 12" fill="none" xmlns="http://www.w3.org/2000/svg"><path d="M2.310 1.258 C 1.947 1.364,1.585 1.649,1.394 1.980 C 1.273 2.190,1.238 2.328,1.217 2.680 C 1.206 2.874,1.201 4.522,1.204 6.680 C 1.211 10.808,1.194 10.410,1.368 10.595 C 1.498 10.735,1.609 10.785,1.797 10.787 C 2.053 10.790,2.046 10.795,2.960 9.889 C 3.405 9.447,3.801 9.069,3.840 9.048 C 3.907 9.013,4.029 9.011,6.730 9.004 L 9.550 8.996 9.737 8.929 C 10.197 8.765,10.517 8.466,10.697 8.034 C 10.748 7.911,10.764 7.837,10.780 7.646 C 10.804 7.355,10.805 3.383,10.781 2.770 C 10.762 2.276,10.748 2.213,10.601 1.962 C 10.370 1.566,9.952 1.284,9.531 1.240 C 9.423 1.228,7.951 1.221,5.890 1.222 C 2.655 1.223,2.422 1.225,2.310 1.258 M9.600 5.097 L 9.600 7.794 6.795 7.806 C 5.094 7.814,3.917 7.827,3.804 7.839 C 3.635 7.858,3.595 7.871,3.384 7.979 C 3.121 8.113,2.976 8.223,2.635 8.542 L 2.400 8.763 2.400 5.581 L 2.400 2.400 6.000 2.400 L 9.600 2.400 9.600 5.097 M5.400 4.200 L 5.400 5.400 6.000 5.400 L 6.600 5.400 6.600 4.200 L 6.600 3.000 6.000 3.000 L 5.400 3.000 5.400 4.200 M5.894 6.022 C 5.778 6.040,5.642 6.117,5.539 6.223 C 5.193 6.580,5.377 7.164,5.876 7.291 C 6.023 7.328,6.122 7.318,6.272 7.251 C 6.545 7.128,6.719 6.813,6.660 6.549 C 6.580 6.192,6.254 5.968,5.894 6.022 " fill="#1A1C1F" stroke="none" fill-rule="evenodd"></path></svg>