<svg xmlns="http://www.w3.org/2000/svg" width="12" height="12" fill="none"><g clip-path="url(#a)"><path fill="#1A1C1F" fill-rule="evenodd" d="M9.341 1.2c.824 0 1.459.679 1.459 1.499v4.8c0 .82-.67 1.498-1.506 1.498H3.976a.3.3 0 0 0-.211.094l-1.541 1.533a.6.6 0 0 1-.412.176.613.613 0 0 1-.612-.609V2.7c0-.82.718-1.499 1.553-1.499zM6.003 6a.67.67 0 0 0-.663.67c0 .375.308.68.663.68a.684.684 0 0 0 .687-.68.674.674 0 0 0-.687-.67M6.6 2.4H5.4v2.997h1.2z" clip-rule="evenodd"/></g><defs><clipPath id="a"><path fill="#fff" d="M0 0h12v12H0z"/></clipPath></defs></svg>