<svg width="24" height="24" viewBox="0 0 24 24" fill="none" xmlns="http://www.w3.org/2000/svg"><path d="M5.220 2.039 C 4.402 2.061,4.319 2.070,4.047 2.169 C 3.123 2.502,2.427 3.237,2.104 4.223 L 1.998 4.547 2.009 12.903 C 2.018 19.685,2.030 21.283,2.072 21.380 C 2.145 21.545,2.388 21.790,2.580 21.890 C 2.789 22.000,3.200 22.008,3.400 21.907 C 3.540 21.837,4.004 21.406,6.126 19.374 C 6.750 18.777,7.322 18.237,7.398 18.174 L 7.535 18.060 8.858 18.034 C 9.585 18.020,12.260 18.007,14.802 18.004 L 19.425 18.000 19.762 17.886 C 20.861 17.514,21.508 16.883,21.878 15.822 L 22.004 15.463 21.990 9.982 C 21.975 3.832,22.002 4.363,21.673 3.682 C 21.535 3.396,21.447 3.281,21.105 2.942 C 20.662 2.502,20.401 2.328,19.953 2.173 C 19.708 2.088,19.549 2.065,18.980 2.038 C 18.219 2.001,6.594 2.002,5.220 2.039 M19.510 4.168 C 19.600 4.228,19.723 4.342,19.784 4.422 C 19.885 4.554,19.897 4.609,19.929 5.073 C 19.970 5.665,19.943 15.239,19.900 15.428 C 19.860 15.608,19.633 15.857,19.410 15.965 L 19.220 16.057 13.320 16.084 C 10.075 16.099,7.348 16.123,7.260 16.139 C 6.991 16.186,6.321 16.539,6.040 16.784 C 5.897 16.908,5.389 17.387,4.910 17.848 L 4.040 18.687 4.042 12.213 C 4.044 8.653,4.059 5.473,4.077 5.146 C 4.113 4.492,4.126 4.457,4.416 4.222 C 4.560 4.106,4.590 4.099,5.034 4.076 C 5.290 4.063,8.615 4.054,12.423 4.056 L 19.346 4.060 19.510 4.168 M11.667 6.063 C 11.432 6.137,11.153 6.402,11.075 6.624 C 11.032 6.745,11.020 7.098,11.020 8.220 C 11.020 9.012,11.035 9.730,11.053 9.815 C 11.074 9.914,11.150 10.038,11.266 10.163 C 11.500 10.413,11.739 10.498,12.129 10.470 C 12.468 10.446,12.676 10.318,12.859 10.022 L 12.980 9.826 12.980 8.343 C 12.980 7.527,12.965 6.791,12.948 6.706 C 12.908 6.521,12.650 6.227,12.427 6.113 C 12.218 6.007,11.907 5.986,11.667 6.063 M11.689 11.714 C 11.416 11.810,11.126 12.058,11.000 12.304 C 10.919 12.461,10.900 12.557,10.900 12.799 C 10.900 13.062,10.916 13.128,11.024 13.320 C 11.228 13.682,11.632 13.920,12.043 13.920 C 12.508 13.920,13.013 13.543,13.142 13.099 C 13.228 12.805,13.200 12.544,13.054 12.276 C 12.796 11.801,12.172 11.545,11.689 11.714 " fill="#1A1C1F" stroke="none" fill-rule="evenodd"></path></svg>