<svg width="14" height="14" viewBox="0 0 14 14" fill="none" xmlns="http://www.w3.org/2000/svg"><path d="M3.558 1.421 C 2.829 1.435,2.808 1.437,2.644 1.496 C 2.309 1.619,2.028 1.815,1.793 2.092 C 1.642 2.271,1.560 2.416,1.472 2.668 L 1.400 2.874 1.400 7.465 L 1.400 12.056 1.460 12.171 C 1.600 12.437,1.837 12.588,2.112 12.588 C 2.392 12.588,2.395 12.586,3.494 11.495 L 4.481 10.516 7.799 10.505 L 11.118 10.495 11.328 10.427 C 11.679 10.315,11.932 10.144,12.192 9.842 C 12.345 9.665,12.441 9.489,12.528 9.226 L 12.600 9.010 12.600 5.945 L 12.600 2.880 12.529 2.660 C 12.439 2.382,12.352 2.221,12.193 2.033 C 12.016 1.825,11.841 1.684,11.616 1.569 C 11.449 1.484,11.391 1.467,11.200 1.447 C 10.939 1.421,4.651 1.399,3.558 1.421 M7.700 4.550 L 7.700 6.300 7.000 6.300 L 6.300 6.300 6.300 4.550 L 6.300 2.800 7.000 2.800 L 7.700 2.800 7.700 4.550 M7.280 7.060 C 7.431 7.108,7.607 7.250,7.694 7.396 C 7.768 7.519,7.770 7.531,7.770 7.781 C 7.770 8.023,7.765 8.046,7.701 8.158 C 7.406 8.672,6.685 8.705,6.373 8.218 C 6.161 7.887,6.207 7.486,6.487 7.223 C 6.710 7.015,6.969 6.962,7.280 7.060 " fill="#1A1C1F" stroke="none" fill-rule="evenodd"></path></svg>