<svg xmlns="http://www.w3.org/2000/svg" width="20" height="20" fill="none"><path fill="#1A1C1F" fill-rule="evenodd" d="M4.104 2.037c-.843.142-1.6.757-1.926 1.564-.185.458-.177.123-.177 7.106C2 17.154 2 17.164 2.069 17.348a1.1 1.1 0 0 0 .521.555c.127.062.215.078.427.079.432 0 .43.002 1.886-1.479.891-.906 1.329-1.329 1.446-1.393l.168-.093L11.233 15l4.717-.017.233-.078q1.17-.396 1.626-1.463c.2-.468.194-.316.183-5.059-.012-4.857.009-4.452-.261-5a2.5 2.5 0 0 0-1.298-1.187c-.488-.188-.051-.176-6.35-.182-3.33-.004-5.876.006-5.979.023M11 3.951c.119.03.357.123.529.205.258.123.362.198.588.422.223.221.3.325.409.555.173.363.221.595.219 1.05-.004.867-.289 1.405-1.152 2.174-.592.527-.574.495-.587 1.051l-.011.459H9v-.442c0-.243.016-.539.035-.658.08-.501.348-.854.998-1.313.616-.435.742-.596.743-.948 0-.191-.055-.296-.221-.42-.14-.104-.686-.117-1.054-.024-.231.059-.381.116-.854.325-.022.01-.173-.338-.375-.86l-.339-.877.092-.075c.197-.163.818-.447 1.223-.561.557-.157 1.283-.183 1.752-.063m-.592 7.002c.62.218.895.987.568 1.587a1.08 1.08 0 0 1-.976.574 1.04 1.04 0 0 1-.725-.263c-.819-.736-.264-2.061.821-1.962.098.009.239.038.312.064"/></svg>