<svg width="20" height="20" viewBox="0 0 20 20" fill="none" xmlns="http://www.w3.org/2000/svg"><path d="M3.891 2.083 C 3.276 2.252,2.646 2.742,2.323 3.300 C 2.121 3.651,2.063 3.880,2.029 4.467 C 2.010 4.790,2.001 7.536,2.007 11.133 C 2.018 18.014,1.990 17.350,2.280 17.659 C 2.503 17.898,2.684 17.976,3.016 17.978 C 3.257 17.980,3.307 17.969,3.452 17.884 C 3.553 17.826,4.134 17.275,4.950 16.466 C 5.683 15.738,6.336 15.115,6.400 15.081 C 6.512 15.022,6.721 15.018,11.217 15.006 L 15.917 14.993 16.228 14.882 C 16.995 14.608,17.529 14.110,17.828 13.390 C 17.914 13.186,17.940 13.062,17.966 12.743 C 18.007 12.256,18.008 5.632,17.968 4.617 C 17.936 3.802,17.919 3.720,17.688 3.306 C 17.313 2.632,16.600 2.142,15.885 2.066 C 15.705 2.047,13.256 2.035,9.817 2.037 C 5.159 2.039,4.019 2.048,3.891 2.083 M10.983 3.953 C 11.093 3.980,11.337 4.077,11.524 4.168 C 11.973 4.386,12.296 4.694,12.498 5.095 C 12.675 5.447,12.732 5.702,12.733 6.136 C 12.734 7.069,12.486 7.537,11.524 8.416 C 11.027 8.871,11.021 8.882,11.005 9.425 L 10.992 9.867 9.991 9.867 L 8.990 9.867 9.009 9.308 C 9.041 8.335,9.183 8.084,10.067 7.429 C 10.463 7.135,10.680 6.925,10.735 6.779 C 10.790 6.635,10.772 6.360,10.701 6.243 C 10.588 6.057,10.467 6.016,10.033 6.019 C 9.605 6.021,9.394 6.067,8.966 6.250 C 8.816 6.314,8.681 6.367,8.664 6.367 C 8.648 6.367,8.603 6.305,8.564 6.229 C 8.444 5.992,7.934 4.660,7.952 4.630 C 8.028 4.507,8.890 4.110,9.326 3.997 C 9.824 3.868,10.552 3.849,10.983 3.953 M10.519 11.008 C 10.709 11.106,10.894 11.295,11.007 11.507 C 11.072 11.629,11.083 11.700,11.083 11.983 C 11.083 12.270,11.072 12.340,11.001 12.483 C 10.708 13.080,9.954 13.292,9.393 12.936 C 9.057 12.723,8.883 12.360,8.907 11.921 C 8.931 11.492,9.138 11.176,9.517 10.993 C 9.703 10.903,9.739 10.897,10.033 10.908 C 10.294 10.919,10.380 10.936,10.519 11.008 " fill="#1A1C1F" stroke="none" fill-rule="evenodd"></path></svg>