<svg xmlns="http://www.w3.org/2000/svg" width="24" height="24" fill="none"><g clip-path="url(#a)"><path fill="#1A1C1F" fill-rule="evenodd" d="M16.936 8h2.777a1 1 0 1 0 0-2h-2.857V3a1 1 0 1 0-2 0v3H12a1 1 0 1 0 0 2h2.776c-.424 2.892-2.557 5.278-3.787 6.438L8.571 7.664a1 1 0 0 0-1.883 0l-4.63 13a1 1 0 0 0 1.884.672l1.382-3.882h4.617l1.376 3.856a.999.999 0 1 0 1.884-.672l-1.485-4.163c.864-.727 2.904-2.622 4.14-5.244 1.55 3.297 4.38 5.447 4.545 5.569a1.002 1.002 0 0 0 1.589-.942 1 1 0 0 0-.39-.658c-.046-.033-4.067-3.111-4.664-7.2m-9.309 2.978 1.597 4.476h-3.19z" clip-rule="evenodd"/></g><defs><clipPath id="a"><path fill="#fff" d="M0 0h24v24H0z"/></clipPath></defs></svg>