<svg width="20" height="20" viewBox="0 0 20 20" fill="none" xmlns="http://www.w3.org/2000/svg"><path d="M12.743 2.048 C 12.460 2.137,12.188 2.409,12.095 2.696 C 12.070 2.775,12.051 3.209,12.042 3.937 L 12.028 5.057 10.919 5.075 C 9.814 5.094,9.809 5.094,9.642 5.179 C 9.283 5.361,9.081 5.718,9.106 6.128 C 9.123 6.407,9.201 6.571,9.417 6.784 C 9.675 7.038,9.700 7.043,10.892 7.058 C 11.465 7.066,11.933 7.079,11.933 7.089 C 11.933 7.098,11.902 7.228,11.864 7.378 C 11.552 8.600,10.672 10.050,9.502 11.267 C 9.264 11.514,9.261 11.516,9.228 11.433 C 9.195 11.353,8.703 9.989,7.977 7.967 C 7.471 6.558,7.444 6.491,7.315 6.340 C 7.251 6.265,7.116 6.164,7.015 6.115 C 6.863 6.040,6.789 6.025,6.569 6.026 C 6.240 6.028,6.058 6.103,5.841 6.326 L 5.683 6.488 4.804 8.953 C 3.182 13.497,2.564 15.245,2.277 16.095 C 1.954 17.052,1.944 17.143,2.121 17.469 C 2.437 18.050,3.175 18.175,3.677 17.735 C 3.854 17.579,3.944 17.353,4.770 15.008 L 4.949 14.500 6.566 14.500 L 8.184 14.500 8.430 15.192 C 9.169 17.268,9.276 17.531,9.445 17.695 C 9.620 17.864,9.847 17.947,10.133 17.946 C 10.292 17.946,10.430 17.925,10.511 17.890 C 10.826 17.753,11.043 17.469,11.100 17.117 C 11.142 16.858,11.094 16.689,10.515 15.080 C 10.246 14.330,10.019 13.686,10.010 13.650 C 9.999 13.598,10.165 13.412,10.741 12.833 C 11.684 11.886,12.244 11.191,12.746 10.350 C 13.080 9.789,13.030 9.814,13.207 10.120 C 13.807 11.160,14.677 12.230,15.682 13.166 C 16.440 13.871,16.777 14.053,17.170 13.969 C 17.686 13.858,18.037 13.401,17.991 12.898 C 17.981 12.794,17.947 12.653,17.915 12.585 C 17.882 12.514,17.660 12.278,17.387 12.023 C 16.754 11.432,16.343 11.013,16.029 10.637 C 15.430 9.919,14.844 8.993,14.554 8.306 C 14.381 7.895,14.147 7.142,14.182 7.107 C 14.195 7.094,14.673 7.075,15.244 7.065 L 16.283 7.047 16.462 6.950 C 16.833 6.747,17.019 6.417,16.994 6.006 C 16.971 5.635,16.775 5.341,16.441 5.177 L 16.250 5.083 15.158 5.072 L 14.067 5.060 14.066 3.938 C 14.066 2.822,14.066 2.816,13.985 2.644 C 13.822 2.293,13.645 2.137,13.310 2.050 C 13.081 1.990,12.931 1.990,12.743 2.048 M6.861 10.792 C 7.430 12.367,7.457 12.449,7.420 12.474 C 7.400 12.488,7.016 12.499,6.567 12.499 C 6.117 12.499,5.734 12.488,5.714 12.474 C 5.678 12.451,5.735 12.282,6.339 10.608 C 6.453 10.292,6.555 10.033,6.567 10.033 C 6.578 10.033,6.711 10.375,6.861 10.792 " fill="#1A1C1F" stroke="none" fill-rule="evenodd"></path></svg>