<svg width="32" height="32" viewBox="0 0 32 32" fill="none" xmlns="http://www.w3.org/2000/svg"><path d="M21.360 2.000 C 21.331 2.009,21.243 2.031,21.164 2.049 C 20.957 2.094,20.693 2.337,20.580 2.584 C 20.490 2.784,20.482 2.990,20.481 5.320 L 20.480 7.840 18.078 7.840 C 15.463 7.840,15.452 7.841,15.132 8.147 C 14.955 8.317,14.818 8.740,14.863 8.976 C 14.943 9.400,15.255 9.717,15.678 9.808 C 15.853 9.845,16.764 9.867,18.192 9.867 L 20.432 9.867 20.402 10.040 C 20.386 10.135,20.348 10.381,20.318 10.587 C 20.229 11.186,19.911 12.333,19.646 13.005 C 18.974 14.711,17.938 16.406,16.562 18.050 C 15.987 18.737,14.533 20.257,14.493 20.213 C 14.479 20.199,13.613 17.787,12.567 14.853 C 11.522 11.920,10.622 9.460,10.568 9.387 C 10.404 9.163,10.087 9.015,9.771 9.014 C 9.279 9.013,8.978 9.262,8.764 9.848 C 8.691 10.049,7.142 14.389,5.321 19.493 C 2.862 26.390,2.011 28.835,2.010 29.013 C 2.004 29.664,2.622 30.143,3.248 29.975 C 3.513 29.903,3.801 29.662,3.897 29.432 C 3.935 29.339,4.438 27.941,5.014 26.325 L 6.062 23.387 9.770 23.373 L 13.478 23.359 14.566 26.412 C 15.549 29.172,15.672 29.483,15.845 29.657 C 16.462 30.278,17.544 29.809,17.546 28.920 C 17.547 28.855,17.031 27.356,16.400 25.590 C 15.769 23.824,15.253 22.348,15.253 22.310 C 15.253 22.271,15.355 22.151,15.480 22.042 C 16.398 21.239,17.818 19.737,18.645 18.693 C 19.716 17.341,20.797 15.546,21.335 14.226 C 21.404 14.057,21.477 13.937,21.497 13.959 C 21.518 13.982,21.677 14.315,21.852 14.700 C 22.906 17.027,24.751 19.502,26.947 21.539 C 27.758 22.290,28.432 22.834,28.656 22.916 C 29.206 23.118,29.787 22.822,29.952 22.258 C 30.013 22.045,30.020 21.932,29.978 21.776 C 29.899 21.484,29.818 21.388,29.211 20.869 C 27.607 19.497,26.103 17.822,25.029 16.213 C 23.652 14.152,22.858 12.171,22.587 10.123 L 22.554 9.873 24.944 9.856 C 27.015 9.842,27.358 9.828,27.520 9.753 C 27.744 9.649,27.972 9.415,28.050 9.210 C 28.184 8.856,28.068 8.335,27.804 8.095 C 27.529 7.847,27.451 7.840,24.908 7.840 L 22.507 7.840 22.506 5.400 C 22.506 2.878,22.491 2.679,22.283 2.385 C 22.123 2.160,21.571 1.930,21.360 2.000 M11.281 17.200 C 12.066 19.400,12.720 21.230,12.733 21.267 C 12.753 21.319,12.143 21.333,9.792 21.333 C 8.110 21.333,6.827 21.313,6.827 21.286 C 6.827 21.249,9.615 13.379,9.739 13.067 C 9.778 12.967,9.587 12.454,11.281 17.200 " fill="#1A1C1F" stroke="none" fill-rule="evenodd"></path></svg>