<svg xmlns="http://www.w3.org/2000/svg" width="12" height="12" fill="none"><g clip-path="url(#a)"><path fill="#1A1C1F" fill-rule="evenodd" d="M8.494 4.239h1.115a.6.6 0 1 0 0-1.2H8.43V1.793a.6.6 0 1 0-1.2 0v1.246H6.05a.6.6 0 1 0 0 1.2h1.115c-.232 1.178-1.08 2.156-1.617 2.674L4.505 3.991a.6.6 0 0 0-1.13 0l-2.137 6a.6.6 0 1 0 1.13.403l.605-1.7h1.935l.603 1.688a.598.598 0 0 0 1.107.056.6.6 0 0 0 .023-.459l-.657-1.843c.362-.301 1.242-1.102 1.844-2.238.749 1.413 1.942 2.32 2.015 2.375a.6.6 0 0 0 .72-.96c-.019-.015-1.725-1.325-2.069-3.074M3.401 7.494l.54-1.514.54 1.514z" clip-rule="evenodd"/></g><defs><clipPath id="a"><path fill="#fff" d="M0 0h12v12H0z"/></clipPath></defs></svg>