<svg width="24" height="24" viewBox="0 0 24 24" fill="none" xmlns="http://www.w3.org/2000/svg"><path d="M15.600 2.035 C 15.260 2.146,14.997 2.407,14.902 2.725 C 14.851 2.899,14.840 3.197,14.840 4.467 L 14.840 6.000 13.345 6.000 C 11.728 6.000,11.654 6.008,11.374 6.222 C 11.301 6.277,11.192 6.408,11.131 6.511 C 11.036 6.672,11.020 6.744,11.020 7.000 C 11.020 7.256,11.036 7.328,11.131 7.489 C 11.192 7.592,11.301 7.723,11.374 7.778 C 11.653 7.991,11.732 8.000,13.305 8.000 C 14.664 8.000,14.760 8.005,14.760 8.070 C 14.759 8.109,14.715 8.334,14.661 8.571 C 14.349 9.947,13.554 11.487,12.450 12.855 C 12.048 13.353,11.023 14.435,10.987 14.400 C 10.976 14.389,10.427 12.866,9.767 11.016 C 9.108 9.165,8.541 7.599,8.508 7.535 C 8.307 7.147,7.795 6.923,7.372 7.037 C 7.149 7.097,6.881 7.306,6.774 7.502 C 6.726 7.589,5.637 10.603,4.354 14.200 C 2.118 20.466,2.021 20.752,2.020 21.020 C 2.020 21.254,2.038 21.331,2.131 21.489 C 2.490 22.100,3.365 22.168,3.785 21.618 C 3.852 21.529,4.110 20.863,4.486 19.808 C 4.812 18.891,5.136 17.982,5.205 17.790 L 5.330 17.439 7.635 17.450 L 9.940 17.460 10.647 19.436 C 11.085 20.662,11.397 21.474,11.467 21.574 C 11.728 21.945,12.283 22.070,12.713 21.856 C 12.938 21.744,13.078 21.590,13.184 21.338 C 13.325 21.002,13.307 20.931,12.485 18.628 L 11.718 16.482 11.889 16.335 C 12.331 15.954,13.626 14.604,14.014 14.120 C 14.681 13.287,15.377 12.221,15.744 11.471 L 15.856 11.242 16.079 11.671 C 16.773 13.006,17.716 14.268,18.922 15.479 C 19.555 16.114,20.318 16.772,20.556 16.887 C 21.266 17.232,22.068 16.675,21.988 15.893 C 21.959 15.611,21.815 15.370,21.551 15.161 C 21.102 14.805,20.379 14.124,19.942 13.643 C 18.394 11.942,17.441 10.276,17.057 8.600 C 17.004 8.369,16.961 8.139,16.960 8.090 L 16.960 8.000 18.413 8.000 C 20.045 8.000,20.117 7.990,20.390 7.725 C 20.903 7.227,20.778 6.416,20.138 6.098 C 19.991 6.025,19.876 6.019,18.433 6.008 L 16.886 5.996 16.873 4.388 C 16.858 2.617,16.862 2.644,16.599 2.345 C 16.527 2.263,16.395 2.158,16.307 2.113 C 16.131 2.024,15.759 1.983,15.600 2.035 M8.440 13.253 C 8.862 14.437,9.200 15.413,9.190 15.423 C 9.180 15.433,8.469 15.436,7.610 15.430 L 6.048 15.420 6.833 13.211 C 7.265 11.996,7.630 11.024,7.644 11.051 C 7.659 11.078,8.017 12.069,8.440 13.253 " fill="#1A1C1F" stroke="none" fill-rule="evenodd"></path></svg>