<svg xmlns="http://www.w3.org/2000/svg" width="14" height="14" fill="none"><g clip-path="url(#a)"><path fill="#1A1C1F" fill-rule="evenodd" d="M9.91 4.945h1.3a.7.7 0 1 0 0-1.4H9.835V2.091a.7.7 0 0 0-1.4 0v1.454H7.057a.7.7 0 1 0 0 1.4h1.301c-.27 1.374-1.26 2.516-1.886 3.12L5.255 4.656a.7.7 0 0 0-1.318 0l-2.493 7a.7.7 0 1 0 1.318.47l.706-1.982h2.258l.703 1.969a.697.697 0 0 0 .895.423.7.7 0 0 0 .424-.894l-.767-2.15c.423-.352 1.449-1.285 2.152-2.61.873 1.648 2.265 2.706 2.35 2.77a.7.7 0 1 0 .84-1.12c-.021-.017-2.012-1.546-2.413-3.587M3.968 8.743l.63-1.766.63 1.766z" clip-rule="evenodd"/></g><defs><clipPath id="a"><path fill="#fff" d="M0 0h14v14H0z"/></clipPath></defs></svg>