<svg xmlns="http://www.w3.org/2000/svg" width="20" height="20" fill="none"><g clip-path="url(#a)"><path fill="#1A1C1F" fill-rule="evenodd" d="M14.157 7.065h1.859a1 1 0 1 0 0-2h-1.967V2.988a1 1 0 1 0-2 0v2.077h-1.967a1 1 0 0 0 0 2h1.859c-.387 1.963-1.8 3.594-2.695 4.457l-1.738-4.87a1 1 0 0 0-1.883 0l-3.562 10a1 1 0 1 0 1.883.672l1.009-2.833H8.18l1.004 2.813a.998.998 0 0 0 1.613.405 1 1 0 0 0 .27-1.077L9.974 13.56c.604-.502 2.07-1.836 3.074-3.73 1.248 2.356 3.236 3.867 3.358 3.958a1 1 0 0 0 1.2-1.6c-.031-.024-2.875-2.208-3.448-5.123M5.669 12.49l.899-2.524.9 2.524z" clip-rule="evenodd"/></g><defs><clipPath id="a"><path fill="#fff" d="M0 0h20v20H0z"/></clipPath></defs></svg>