<svg xmlns="http://www.w3.org/2000/svg" width="28" height="28" fill="none"><g clip-path="url(#a)"><path fill="#1A1C1F" fill-rule="evenodd" d="M19.732 8.604h4.003a.875.875 0 1 0 0-1.75h-4.058v-4.24a.875.875 0 1 0-1.75 0v4.241H13.87a.875.875 0 1 0 0 1.75h4.004c-.404 4.165-3.558 7.586-5.197 9.097L9.374 8.445a.875.875 0 0 0-1.647 0L1.805 25.07a.875.875 0 1 0 1.647.588l1.864-5.231h6.474l1.855 5.2a.875.875 0 1 0 1.65-.588l-1.982-5.556c1.207-1.025 4.044-3.703 5.489-7.352 1.813 4.59 5.835 7.645 6.054 7.81a.877.877 0 0 0 1.224-.177.875.875 0 0 0-.175-1.224c-.062-.045-5.63-4.301-6.173-9.936M8.55 11.346l2.615 7.33H5.94z" clip-rule="evenodd"/></g><defs><clipPath id="a"><path fill="#fff" d="M0 0h28v28H0z"/></clipPath></defs></svg>