<svg width="12" height="12" viewBox="0 0 12 12" fill="none" xmlns="http://www.w3.org/2000/svg"><path d="M7.634 1.228 C 7.513 1.273,7.407 1.352,7.342 1.448 C 7.232 1.607,7.220 1.699,7.220 2.403 L 7.220 3.038 6.555 3.044 C 5.911 3.050,5.887 3.051,5.798 3.095 C 5.408 3.288,5.332 3.786,5.650 4.077 C 5.820 4.232,5.864 4.240,6.562 4.240 C 6.891 4.240,7.160 4.246,7.160 4.253 C 7.160 4.261,7.136 4.357,7.107 4.468 C 6.973 4.979,6.684 5.545,6.290 6.070 C 6.052 6.388,5.575 6.921,5.551 6.897 C 5.543 6.890,5.308 6.242,5.029 5.457 C 4.749 4.672,4.501 3.988,4.477 3.936 C 4.426 3.824,4.323 3.721,4.200 3.657 C 4.068 3.588,3.810 3.590,3.674 3.659 C 3.567 3.714,3.431 3.850,3.397 3.935 C 3.386 3.965,2.889 5.353,2.295 7.020 C 1.433 9.436,1.212 10.075,1.205 10.173 C 1.192 10.340,1.238 10.472,1.354 10.600 C 1.475 10.735,1.575 10.784,1.752 10.796 C 1.939 10.808,2.067 10.765,2.198 10.648 C 2.318 10.540,2.322 10.531,2.692 9.485 L 2.970 8.700 3.940 8.700 L 4.910 8.700 5.228 9.591 C 5.581 10.578,5.594 10.604,5.808 10.716 C 5.944 10.787,6.180 10.792,6.323 10.727 C 6.537 10.629,6.668 10.425,6.669 10.190 C 6.670 10.059,6.649 9.992,6.333 9.110 C 6.148 8.593,5.993 8.164,5.988 8.158 C 5.984 8.151,6.100 8.037,6.246 7.904 C 6.813 7.387,7.378 6.693,7.709 6.111 L 7.827 5.903 7.945 6.106 C 8.255 6.644,8.660 7.162,9.159 7.660 C 9.509 8.010,9.814 8.269,9.950 8.331 C 10.097 8.399,10.215 8.410,10.352 8.370 C 10.700 8.269,10.882 7.927,10.767 7.589 C 10.729 7.479,10.642 7.386,10.282 7.070 C 9.456 6.344,8.769 5.313,8.550 4.468 C 8.522 4.362,8.500 4.268,8.500 4.259 C 8.500 4.250,8.786 4.239,9.135 4.236 C 9.757 4.230,9.772 4.229,9.860 4.183 C 10.047 4.085,10.161 3.937,10.196 3.745 C 10.234 3.533,10.167 3.344,10.003 3.196 C 9.837 3.048,9.792 3.040,9.069 3.040 L 8.443 3.040 8.436 2.355 L 8.430 1.670 8.378 1.560 C 8.308 1.411,8.243 1.339,8.117 1.271 C 7.990 1.201,7.760 1.181,7.634 1.228 M4.210 6.732 C 4.353 7.134,4.473 7.471,4.477 7.482 C 4.481 7.493,4.264 7.500,3.940 7.500 C 3.641 7.500,3.400 7.492,3.403 7.483 C 3.407 7.474,3.527 7.136,3.670 6.733 C 3.813 6.330,3.934 6.001,3.940 6.001 C 3.946 6.001,4.067 6.330,4.210 6.732 " fill="#1A1C1F" stroke="none" fill-rule="evenodd"></path></svg>