<svg width="14" height="14" viewBox="0 0 14 14" fill="none" xmlns="http://www.w3.org/2000/svg"><path d="M8.920 1.434 C 8.722 1.496,8.532 1.686,8.466 1.887 C 8.449 1.942,8.436 2.246,8.429 2.756 L 8.420 3.540 7.644 3.552 C 6.870 3.565,6.868 3.565,6.751 3.625 C 6.498 3.752,6.357 4.002,6.374 4.289 C 6.386 4.485,6.441 4.600,6.592 4.749 C 6.773 4.927,6.790 4.930,7.624 4.941 C 8.025 4.946,8.353 4.956,8.353 4.962 C 8.353 4.969,8.331 5.060,8.305 5.164 C 8.155 5.750,7.793 6.466,7.335 7.077 C 7.110 7.378,6.601 7.965,6.521 8.018 C 6.467 8.053,6.552 8.273,5.612 5.660 C 5.400 5.070,5.201 4.548,5.169 4.501 C 5.044 4.312,4.854 4.218,4.595 4.217 C 4.373 4.217,4.240 4.273,4.089 4.428 C 3.978 4.542,3.978 4.544,3.421 6.104 C 2.191 9.550,1.808 10.633,1.605 11.232 C 1.366 11.940,1.359 11.998,1.485 12.229 C 1.706 12.635,2.222 12.723,2.574 12.414 C 2.698 12.306,2.761 12.147,3.339 10.506 L 3.464 10.150 4.596 10.150 L 5.728 10.150 5.901 10.634 C 6.418 12.087,6.493 12.272,6.612 12.387 C 6.734 12.505,6.893 12.563,7.093 12.562 C 7.383 12.562,7.578 12.443,7.701 12.193 C 7.758 12.076,7.774 12.016,7.774 11.897 C 7.775 11.715,7.762 11.674,7.336 10.485 C 7.151 9.970,7.000 9.538,7.000 9.526 C 7.000 9.514,7.229 9.274,7.509 8.993 C 8.194 8.306,8.592 7.811,8.964 7.181 C 9.054 7.030,9.130 6.907,9.134 6.907 C 9.138 6.907,9.202 7.009,9.276 7.134 C 9.709 7.863,10.230 8.505,10.920 9.162 C 11.568 9.779,11.825 9.890,12.196 9.715 C 12.363 9.636,12.520 9.458,12.568 9.292 C 12.613 9.138,12.601 8.937,12.541 8.810 C 12.517 8.760,12.362 8.595,12.171 8.416 C 11.728 8.002,11.440 7.709,11.220 7.446 C 10.801 6.943,10.391 6.295,10.188 5.814 C 10.067 5.526,9.903 4.999,9.927 4.975 C 9.936 4.966,10.271 4.953,10.671 4.946 L 11.398 4.933 11.523 4.865 C 11.783 4.723,11.913 4.492,11.896 4.204 C 11.880 3.945,11.742 3.739,11.509 3.624 L 11.375 3.558 10.611 3.550 L 9.847 3.542 9.846 2.757 C 9.846 1.976,9.846 1.971,9.790 1.851 C 9.676 1.605,9.551 1.496,9.317 1.435 C 9.157 1.393,9.051 1.393,8.920 1.434 M4.803 7.554 C 5.201 8.657,5.220 8.715,5.194 8.732 C 5.180 8.742,4.911 8.749,4.597 8.749 C 4.282 8.749,4.014 8.742,4.000 8.732 C 3.982 8.721,4.026 8.570,4.133 8.272 C 4.221 8.028,4.358 7.647,4.437 7.426 C 4.517 7.204,4.589 7.023,4.597 7.023 C 4.605 7.023,4.698 7.262,4.803 7.554 " fill="#1A1C1F" stroke="none" fill-rule="evenodd"></path></svg>