<svg width="12" height="12" viewBox="0 0 12 12" fill="none" xmlns="http://www.w3.org/2000/svg"><path d="M7.646 1.229 C 7.476 1.282,7.313 1.445,7.257 1.618 C 7.242 1.665,7.231 1.925,7.225 2.362 L 7.217 3.034 6.551 3.045 C 5.888 3.056,5.886 3.057,5.785 3.107 C 5.658 3.172,5.532 3.315,5.489 3.443 C 5.447 3.569,5.457 3.779,5.510 3.890 C 5.562 3.999,5.735 4.165,5.831 4.199 C 5.888 4.219,6.080 4.229,6.523 4.238 C 6.861 4.245,7.142 4.255,7.148 4.262 C 7.164 4.278,7.054 4.662,6.979 4.853 C 6.890 5.078,6.702 5.447,6.565 5.666 C 6.346 6.014,5.974 6.483,5.673 6.790 C 5.556 6.910,5.556 6.910,5.536 6.860 C 5.516 6.811,5.196 5.921,4.786 4.780 C 4.483 3.935,4.466 3.894,4.389 3.804 C 4.281 3.678,4.133 3.615,3.943 3.615 C 3.748 3.615,3.635 3.661,3.505 3.796 L 3.410 3.893 2.882 5.372 C 1.909 8.098,1.538 9.147,1.366 9.657 C 1.172 10.231,1.166 10.286,1.273 10.482 C 1.461 10.827,1.894 10.904,2.201 10.646 C 2.297 10.565,2.379 10.371,2.693 9.485 L 2.970 8.700 3.940 8.700 L 4.910 8.700 5.058 9.115 C 5.501 10.361,5.566 10.519,5.667 10.617 C 5.772 10.718,5.908 10.768,6.080 10.768 C 6.328 10.767,6.495 10.666,6.601 10.451 C 6.650 10.351,6.663 10.299,6.664 10.198 C 6.665 10.042,6.654 10.008,6.287 8.983 C 6.128 8.539,6.001 8.164,6.004 8.150 C 6.007 8.135,6.114 8.026,6.240 7.907 C 6.854 7.328,7.335 6.745,7.684 6.155 C 7.760 6.026,7.826 5.920,7.829 5.920 C 7.832 5.920,7.887 6.008,7.951 6.115 C 8.332 6.756,8.793 7.321,9.406 7.896 C 9.855 8.318,10.066 8.432,10.302 8.381 C 10.612 8.315,10.822 8.041,10.795 7.739 C 10.789 7.676,10.768 7.592,10.749 7.551 C 10.729 7.508,10.600 7.371,10.442 7.224 C 9.604 6.444,9.113 5.814,8.780 5.090 C 8.648 4.803,8.482 4.291,8.512 4.261 C 8.518 4.255,8.804 4.245,9.147 4.239 L 9.770 4.228 9.877 4.170 C 10.100 4.048,10.211 3.850,10.196 3.603 C 10.183 3.381,10.065 3.205,9.864 3.106 L 9.750 3.050 9.095 3.043 L 8.440 3.036 8.440 2.363 C 8.440 1.693,8.439 1.689,8.391 1.586 C 8.293 1.376,8.187 1.282,7.986 1.230 C 7.849 1.194,7.758 1.194,7.646 1.229 M4.117 6.475 C 4.458 7.420,4.474 7.470,4.452 7.485 C 4.440 7.493,4.210 7.499,3.940 7.499 C 3.671 7.499,3.440 7.493,3.428 7.485 C 3.413 7.475,3.437 7.383,3.503 7.200 C 3.856 6.217,3.929 6.020,3.940 6.020 C 3.947 6.020,4.027 6.225,4.117 6.475 " fill="#1A1C1F" stroke="none" fill-rule="evenodd"></path></svg>