<svg width="28" height="28" viewBox="0 0 28 28" fill="none" xmlns="http://www.w3.org/2000/svg"><path d="M18.690 1.750 C 18.664 1.758,18.587 1.778,18.519 1.793 C 18.337 1.832,18.106 2.044,18.008 2.261 C 17.929 2.436,17.922 2.617,17.921 4.655 L 17.920 6.860 15.819 6.860 C 13.530 6.860,13.520 6.861,13.241 7.129 C 13.086 7.277,12.966 7.647,13.005 7.854 C 13.075 8.225,13.348 8.502,13.719 8.582 C 13.871 8.615,14.669 8.633,15.918 8.633 L 17.878 8.633 17.852 8.785 C 17.838 8.868,17.805 9.084,17.778 9.263 C 17.536 10.901,16.608 12.968,15.322 14.734 C 15.102 15.036,14.720 15.524,14.473 15.818 C 13.977 16.407,12.715 17.724,12.681 17.687 C 12.669 17.674,11.911 15.563,10.996 12.997 C 10.082 10.430,9.294 8.277,9.247 8.213 C 9.103 8.018,8.826 7.888,8.549 7.887 C 8.119 7.886,7.856 8.104,7.669 8.617 C 7.604 8.793,6.249 12.591,4.656 17.057 C 2.504 23.091,1.760 25.231,1.759 25.387 C 1.753 25.956,2.294 26.376,2.842 26.228 C 3.074 26.165,3.326 25.954,3.410 25.753 C 3.443 25.672,3.883 24.448,4.388 23.034 L 5.304 20.463 8.549 20.451 L 11.794 20.439 12.745 23.110 C 13.606 25.525,13.713 25.797,13.864 25.950 C 14.404 26.493,15.351 26.083,15.353 25.305 C 15.353 25.248,14.902 23.937,14.350 22.391 C 13.798 20.846,13.347 19.554,13.347 19.521 C 13.347 19.487,13.436 19.382,13.545 19.286 C 14.349 18.584,15.591 17.270,16.314 16.357 C 17.251 15.173,18.197 13.603,18.668 12.448 C 18.728 12.300,18.792 12.195,18.810 12.214 C 18.828 12.234,18.968 12.526,19.120 12.863 C 20.043 14.898,21.657 17.064,23.579 18.846 C 24.288 19.504,24.878 19.980,25.074 20.051 C 25.555 20.228,26.064 19.969,26.208 19.476 C 26.347 18.996,26.252 18.849,25.223 17.960 C 24.254 17.122,22.976 15.717,22.231 14.668 C 20.829 12.696,20.019 10.789,19.764 8.858 L 19.735 8.639 21.826 8.624 C 23.639 8.612,23.938 8.600,24.080 8.534 C 24.276 8.443,24.476 8.238,24.544 8.059 C 24.661 7.749,24.560 7.293,24.328 7.083 C 24.088 6.866,24.020 6.860,21.795 6.860 L 19.693 6.860 19.693 4.725 C 19.693 2.518,19.680 2.344,19.497 2.087 C 19.357 1.890,18.875 1.688,18.690 1.750 M9.871 15.050 C 10.558 16.975,11.130 18.576,11.142 18.608 C 11.159 18.655,10.625 18.667,8.568 18.667 C 7.097 18.667,5.973 18.649,5.973 18.625 C 5.973 18.593,8.413 11.706,8.522 11.433 C 8.556 11.346,8.389 10.897,9.871 15.050 " fill="#1A1C1F" stroke="none" fill-rule="evenodd"></path></svg>