<svg width="16" height="16" viewBox="0 0 16 16" fill="none" xmlns="http://www.w3.org/2000/svg"><path d="M10.194 1.639 C 9.968 1.709,9.750 1.927,9.676 2.157 C 9.656 2.220,9.641 2.567,9.634 3.149 L 9.622 4.045 8.735 4.060 C 7.851 4.075,7.847 4.075,7.714 4.143 C 7.544 4.229,7.375 4.420,7.319 4.591 C 7.263 4.759,7.276 5.038,7.347 5.187 C 7.416 5.331,7.647 5.553,7.775 5.598 C 7.851 5.625,8.107 5.639,8.698 5.651 C 9.148 5.660,9.523 5.674,9.531 5.682 C 9.553 5.704,9.405 6.218,9.305 6.470 C 9.185 6.773,8.933 7.268,8.752 7.556 C 8.461 8.018,7.965 8.645,7.565 9.053 C 7.408 9.213,7.408 9.213,7.381 9.147 C 7.355 9.081,6.928 7.895,6.381 6.373 C 5.977 5.246,5.955 5.192,5.852 5.072 C 5.707 4.903,5.510 4.820,5.258 4.820 C 4.997 4.820,4.847 4.882,4.673 5.061 L 4.547 5.191 3.843 7.162 C 2.551 10.782,2.051 12.195,1.823 12.867 C 1.565 13.628,1.555 13.714,1.696 13.974 C 1.950 14.440,2.539 14.541,2.941 14.188 C 3.083 14.063,3.135 13.935,3.816 12.007 L 3.960 11.600 5.253 11.600 L 6.547 11.600 6.744 12.153 C 7.335 13.814,7.421 14.025,7.556 14.156 C 7.746 14.340,8.120 14.414,8.386 14.322 C 8.628 14.238,8.864 13.919,8.897 13.632 C 8.915 13.479,8.887 13.390,8.365 11.928 L 7.982 10.856 8.304 10.555 C 9.125 9.787,9.772 9.004,10.245 8.207 C 10.347 8.034,10.435 7.893,10.440 7.893 C 10.445 7.893,10.502 7.986,10.568 8.100 C 11.045 8.927,11.748 9.792,12.541 10.528 C 13.155 11.099,13.421 11.243,13.736 11.175 C 14.115 11.094,14.400 10.758,14.400 10.394 C 14.400 10.090,14.316 9.974,13.671 9.390 C 12.805 8.606,12.025 7.549,11.644 6.645 C 11.505 6.316,11.318 5.714,11.345 5.686 C 11.356 5.675,11.738 5.660,12.195 5.652 L 13.027 5.638 13.169 5.560 C 13.466 5.398,13.615 5.133,13.595 4.804 C 13.577 4.508,13.420 4.273,13.153 4.142 L 13.000 4.067 12.127 4.057 L 11.253 4.048 11.253 3.151 C 11.253 2.258,11.252 2.253,11.188 2.115 C 11.058 1.834,10.916 1.709,10.648 1.640 C 10.465 1.592,10.345 1.592,10.194 1.639 M5.488 8.633 C 5.609 8.967,5.765 9.402,5.836 9.600 C 5.924 9.845,5.956 9.966,5.936 9.980 C 5.920 9.990,5.613 9.999,5.253 9.999 C 4.894 9.999,4.587 9.990,4.571 9.980 C 4.551 9.966,4.583 9.845,4.671 9.600 C 5.141 8.290,5.238 8.027,5.253 8.027 C 5.263 8.027,5.368 8.300,5.488 8.633 " fill="#1A1C1F" stroke="none" fill-rule="evenodd"></path></svg>