<svg width="14" height="14" viewBox="0 0 14 14" fill="none" xmlns="http://www.w3.org/2000/svg"><path d="M8.906 1.432 C 8.765 1.485,8.642 1.577,8.565 1.689 C 8.437 1.875,8.423 1.982,8.423 2.804 L 8.423 3.544 7.647 3.551 C 6.896 3.558,6.868 3.560,6.764 3.611 C 6.309 3.836,6.221 4.417,6.592 4.756 C 6.790 4.938,6.841 4.947,7.658 4.947 L 8.357 4.947 8.341 5.022 C 8.201 5.673,7.841 6.411,7.338 7.082 C 7.060 7.452,6.505 8.074,6.476 8.047 C 6.467 8.038,6.193 7.282,5.867 6.367 C 5.540 5.451,5.251 4.652,5.223 4.592 C 5.164 4.462,5.044 4.341,4.900 4.266 C 4.746 4.186,4.445 4.188,4.286 4.269 C 4.162 4.332,4.003 4.492,3.964 4.591 C 3.950 4.626,3.371 6.246,2.677 8.190 C 1.671 11.009,1.414 11.754,1.405 11.869 C 1.391 12.063,1.445 12.217,1.580 12.367 C 1.721 12.524,1.838 12.581,2.044 12.595 C 2.263 12.609,2.412 12.560,2.564 12.423 C 2.705 12.297,2.709 12.286,3.141 11.066 L 3.465 10.150 4.597 10.150 L 5.729 10.150 6.099 11.189 C 6.511 12.341,6.526 12.371,6.775 12.501 C 6.935 12.585,7.210 12.591,7.377 12.515 C 7.626 12.400,7.779 12.163,7.781 11.888 C 7.782 11.735,7.758 11.658,7.388 10.628 C 7.172 10.025,6.991 9.525,6.987 9.517 C 6.982 9.510,7.117 9.376,7.286 9.221 C 7.948 8.618,8.608 7.809,8.994 7.129 L 9.132 6.887 9.269 7.124 C 9.631 7.751,10.103 8.355,10.686 8.937 C 11.094 9.345,11.450 9.647,11.608 9.720 C 11.780 9.799,11.917 9.812,12.077 9.765 C 12.483 9.647,12.695 9.248,12.561 8.854 C 12.517 8.726,12.416 8.617,11.996 8.248 C 11.183 7.534,10.446 6.514,10.113 5.641 C 10.041 5.454,9.917 5.027,9.917 4.969 C 9.917 4.958,10.250 4.946,10.658 4.942 C 11.384 4.935,11.400 4.934,11.503 4.880 C 11.722 4.766,11.854 4.593,11.895 4.369 C 11.940 4.122,11.862 3.902,11.670 3.729 C 11.477 3.556,11.424 3.547,10.581 3.547 L 9.850 3.547 9.842 2.748 L 9.835 1.948 9.775 1.820 C 9.693 1.646,9.617 1.562,9.470 1.482 C 9.321 1.401,9.054 1.377,8.906 1.432 M4.912 7.854 C 5.079 8.323,5.219 8.717,5.223 8.728 C 5.227 8.741,4.974 8.750,4.597 8.750 C 4.248 8.750,3.966 8.741,3.971 8.730 C 3.975 8.719,4.115 8.326,4.282 7.856 C 4.449 7.386,4.590 7.001,4.597 7.001 C 4.603 7.001,4.745 7.385,4.912 7.854 " fill="#1A1C1F" stroke="none" fill-rule="evenodd"></path></svg>