<svg width="28" height="28" viewBox="0 0 28 28" fill="none" xmlns="http://www.w3.org/2000/svg"><path d="M18.575 1.781 C 18.351 1.846,18.179 1.978,18.052 2.183 L 17.943 2.357 17.930 4.605 L 17.916 6.853 15.783 6.869 C 13.451 6.887,13.431 6.889,13.214 7.164 C 12.850 7.627,12.999 8.266,13.528 8.511 C 13.736 8.607,13.815 8.610,15.808 8.624 C 16.944 8.632,17.873 8.643,17.873 8.648 C 17.869 8.781,17.654 9.893,17.571 10.205 C 17.093 12.006,15.905 14.141,14.408 15.886 C 13.833 16.556,12.728 17.694,12.690 17.655 C 12.669 17.634,12.565 17.375,12.459 17.080 C 12.353 16.785,11.724 15.031,11.061 13.183 C 9.336 8.372,9.293 8.258,9.134 8.110 C 8.894 7.883,8.508 7.828,8.190 7.974 C 7.955 8.082,7.873 8.175,7.729 8.495 C 7.666 8.635,6.686 11.354,5.552 14.537 C 2.166 24.041,1.774 25.169,1.774 25.430 C 1.772 25.949,2.344 26.372,2.844 26.222 C 2.950 26.190,3.110 26.100,3.201 26.021 C 3.379 25.866,3.377 25.871,4.807 21.859 L 5.291 20.501 6.410 20.471 C 7.025 20.454,8.488 20.440,9.661 20.440 L 11.793 20.440 12.179 21.525 C 13.097 24.105,13.598 25.471,13.700 25.672 C 13.820 25.911,14.039 26.118,14.216 26.162 C 14.428 26.216,14.784 26.152,14.973 26.027 C 15.207 25.872,15.374 25.542,15.341 25.302 C 15.328 25.207,14.871 23.867,14.326 22.323 L 13.335 19.517 14.313 18.543 C 15.712 17.149,16.468 16.246,17.282 14.993 C 17.800 14.196,18.058 13.739,18.461 12.903 L 18.799 12.203 19.104 12.842 C 20.140 15.012,21.545 16.901,23.518 18.776 C 24.237 19.460,24.786 19.908,25.056 20.030 C 25.565 20.263,26.136 19.920,26.250 19.314 C 26.302 19.035,26.189 18.865,25.568 18.292 C 24.630 17.425,23.579 16.346,23.030 15.685 C 21.560 13.915,20.512 11.993,20.046 10.213 C 19.916 9.716,19.741 8.837,19.740 8.673 C 19.740 8.656,20.680 8.635,21.828 8.626 C 23.833 8.611,23.924 8.606,24.101 8.513 C 24.202 8.460,24.349 8.337,24.428 8.241 C 24.555 8.083,24.570 8.031,24.570 7.754 C 24.569 7.219,24.352 6.973,23.819 6.905 C 23.642 6.882,22.642 6.862,21.598 6.862 L 19.699 6.860 19.685 4.655 C 19.670 2.507,19.667 2.444,19.569 2.231 C 19.489 2.058,19.421 1.988,19.242 1.898 C 18.954 1.753,18.777 1.722,18.575 1.781 M8.932 12.425 C 10.843 17.737,11.139 18.597,11.065 18.628 C 10.967 18.670,6.161 18.670,6.058 18.628 C 5.989 18.601,6.094 18.272,6.878 16.053 C 8.330 11.945,8.515 11.434,8.546 11.434 C 8.562 11.433,8.736 11.880,8.932 12.425 " fill="#1A1C1F" stroke="none" fill-rule="evenodd"></path></svg>