<svg width="20" height="20" viewBox="0 0 20 20" fill="none" xmlns="http://www.w3.org/2000/svg"><path d="M12.723 2.046 C 12.521 2.122,12.346 2.253,12.236 2.413 C 12.053 2.679,12.033 2.832,12.033 4.005 L 12.033 5.063 10.925 5.073 C 9.851 5.083,9.812 5.086,9.663 5.159 C 9.013 5.480,8.887 6.310,9.417 6.794 C 9.701 7.054,9.773 7.067,10.940 7.067 L 11.939 7.067 11.915 7.175 C 11.715 8.104,11.202 9.159,10.483 10.117 C 10.086 10.646,9.292 11.534,9.251 11.495 C 9.239 11.483,8.847 10.403,8.381 9.095 C 7.915 7.787,7.501 6.646,7.462 6.561 C 7.377 6.374,7.205 6.201,7.000 6.095 C 6.780 5.981,6.350 5.983,6.123 6.099 C 5.946 6.189,5.718 6.417,5.662 6.559 C 5.643 6.609,4.816 8.922,3.825 11.700 C 2.388 15.727,2.020 16.792,2.008 16.955 C 1.987 17.233,2.064 17.453,2.257 17.667 C 2.459 17.892,2.625 17.973,2.921 17.993 C 3.232 18.013,3.446 17.942,3.663 17.747 C 3.864 17.567,3.870 17.552,4.487 15.809 L 4.950 14.500 6.567 14.500 L 8.184 14.500 8.713 15.984 C 9.301 17.630,9.323 17.673,9.679 17.859 C 9.907 17.978,10.301 17.987,10.538 17.878 C 10.895 17.714,11.113 17.375,11.115 16.983 C 11.117 16.764,11.082 16.654,10.555 15.183 C 10.246 14.322,9.988 13.607,9.981 13.596 C 9.974 13.585,10.167 13.395,10.409 13.173 C 11.354 12.311,12.297 11.155,12.848 10.185 L 13.045 9.838 13.241 10.177 C 13.758 11.073,14.433 11.936,15.265 12.767 C 15.848 13.350,16.357 13.781,16.583 13.885 C 16.829 13.998,17.024 14.017,17.253 13.951 C 17.833 13.782,18.136 13.211,17.945 12.649 C 17.882 12.466,17.737 12.310,17.137 11.783 C 15.976 10.763,14.923 9.306,14.447 8.059 C 14.345 7.792,14.167 7.181,14.167 7.098 C 14.167 7.083,14.643 7.066,15.225 7.060 C 16.262 7.050,16.286 7.048,16.433 6.971 C 16.745 6.808,16.934 6.561,16.993 6.241 C 17.057 5.889,16.946 5.574,16.671 5.327 C 16.396 5.079,16.320 5.067,15.115 5.067 L 14.071 5.067 14.061 3.925 L 14.050 2.783 13.964 2.600 C 13.847 2.352,13.738 2.232,13.529 2.118 C 13.316 2.002,12.934 1.968,12.723 2.046 M7.017 11.220 C 7.255 11.890,7.455 12.452,7.461 12.469 C 7.468 12.488,7.106 12.500,6.567 12.500 C 6.069 12.500,5.666 12.487,5.672 12.472 C 5.678 12.456,5.878 11.894,6.117 11.222 C 6.355 10.551,6.558 10.001,6.567 10.001 C 6.576 10.001,6.778 10.549,7.017 11.220 " fill="#1A1C1F" stroke="none" fill-rule="evenodd"></path></svg>