<svg width="32" height="32" viewBox="0 0 32 32" fill="none" xmlns="http://www.w3.org/2000/svg"><path d="M21.229 2.035 C 20.972 2.110,20.776 2.260,20.630 2.494 L 20.507 2.693 20.491 5.267 L 20.475 7.840 18.304 7.842 C 15.986 7.844,15.479 7.877,15.258 8.041 C 14.663 8.485,14.774 9.408,15.461 9.726 C 15.698 9.836,15.789 9.841,18.070 9.857 L 20.434 9.874 20.404 10.017 C 20.388 10.096,20.350 10.324,20.319 10.524 C 19.957 12.881,18.622 15.568,16.618 17.973 C 16.244 18.421,14.990 19.779,14.679 20.071 C 14.591 20.154,14.504 20.199,14.486 20.170 C 14.450 20.112,13.998 18.859,12.480 14.613 C 10.809 9.942,10.616 9.434,10.439 9.268 C 10.165 9.010,9.724 8.946,9.360 9.114 C 9.092 9.237,8.998 9.343,8.834 9.708 C 8.761 9.869,7.642 12.976,6.346 16.613 C 2.496 27.416,2.027 28.769,2.027 29.058 C 2.027 29.657,2.676 30.140,3.251 29.968 C 3.371 29.932,3.554 29.828,3.659 29.738 C 3.861 29.561,3.859 29.567,5.494 24.982 L 6.047 23.430 7.437 23.395 C 8.201 23.376,9.873 23.360,11.152 23.360 L 13.477 23.360 14.451 26.093 C 15.530 29.123,15.689 29.508,15.942 29.721 C 16.155 29.901,16.304 29.940,16.642 29.908 C 17.162 29.858,17.596 29.374,17.532 28.916 C 17.517 28.808,16.995 27.276,16.372 25.511 L 15.239 22.302 16.306 21.244 C 18.617 18.952,19.926 17.177,21.099 14.747 L 21.485 13.947 21.833 14.676 C 23.011 17.143,24.740 19.467,26.899 21.486 C 27.736 22.268,28.341 22.758,28.635 22.892 C 29.242 23.169,29.965 22.697,29.990 22.007 C 30.004 21.618,29.900 21.480,28.958 20.640 C 25.420 17.485,23.186 13.877,22.642 10.441 C 22.597 10.155,22.560 9.911,22.560 9.900 C 22.560 9.888,23.634 9.869,24.947 9.859 C 27.234 9.840,27.342 9.835,27.544 9.729 C 27.660 9.669,27.828 9.529,27.917 9.418 C 28.062 9.238,28.080 9.178,28.080 8.862 C 28.079 8.250,27.831 7.969,27.222 7.891 C 27.019 7.865,25.877 7.843,24.683 7.842 L 22.513 7.840 22.497 5.320 C 22.480 2.865,22.477 2.793,22.364 2.550 C 22.273 2.352,22.195 2.273,21.991 2.170 C 21.662 2.004,21.460 1.968,21.229 2.035 M10.209 14.200 C 12.292 19.990,12.726 21.254,12.644 21.290 C 12.534 21.337,7.041 21.337,6.923 21.290 C 6.845 21.258,6.964 20.882,7.861 18.347 C 9.521 13.652,9.732 13.068,9.767 13.067 C 9.786 13.067,9.984 13.577,10.209 14.200 " fill="#1A1C1F" stroke="none" fill-rule="evenodd"></path></svg>