<svg width="16" height="16" viewBox="0 0 16 16" fill="none" xmlns="http://www.w3.org/2000/svg"><path d="M10.179 1.637 C 10.017 1.697,9.877 1.803,9.789 1.930 C 9.642 2.143,9.627 2.265,9.627 3.204 L 9.627 4.051 8.740 4.059 C 7.881 4.066,7.850 4.069,7.731 4.127 C 7.210 4.384,7.110 5.048,7.533 5.435 C 7.760 5.643,7.819 5.653,8.750 5.653 C 9.188 5.653,9.547 5.661,9.547 5.671 C 9.547 5.681,9.515 5.810,9.476 5.958 C 9.297 6.638,8.912 7.393,8.387 8.093 C 8.069 8.517,7.434 9.227,7.401 9.196 C 7.391 9.186,7.078 8.322,6.705 7.276 C 6.332 6.230,6.001 5.317,5.970 5.248 C 5.901 5.099,5.764 4.961,5.600 4.876 C 5.424 4.784,5.080 4.786,4.898 4.879 C 4.757 4.951,4.574 5.133,4.530 5.247 C 4.514 5.287,3.853 7.138,3.060 9.360 C 1.910 12.582,1.616 13.433,1.606 13.564 C 1.590 13.787,1.651 13.962,1.806 14.134 C 1.967 14.314,2.100 14.379,2.337 14.394 C 2.586 14.410,2.756 14.354,2.930 14.198 C 3.091 14.053,3.096 14.041,3.590 12.647 L 3.960 11.600 5.253 11.600 L 6.547 11.600 6.971 12.787 C 7.441 14.104,7.458 14.138,7.743 14.287 C 7.925 14.383,8.241 14.390,8.431 14.302 C 8.691 14.183,8.873 13.922,8.899 13.630 C 8.915 13.461,8.945 13.556,8.340 11.861 L 7.981 10.855 8.331 10.536 C 9.083 9.849,9.839 8.923,10.279 8.148 L 10.436 7.871 10.593 8.142 C 11.007 8.858,11.546 9.549,12.212 10.214 C 12.679 10.680,13.085 11.025,13.267 11.108 C 13.463 11.198,13.619 11.214,13.803 11.160 C 14.266 11.026,14.509 10.569,14.356 10.119 C 14.306 9.973,14.189 9.848,13.710 9.427 C 12.781 8.611,11.938 7.445,11.558 6.447 C 11.476 6.233,11.333 5.745,11.333 5.678 C 11.333 5.666,11.714 5.652,12.180 5.648 C 13.010 5.640,13.029 5.639,13.147 5.577 C 13.396 5.446,13.547 5.249,13.594 4.993 C 13.645 4.711,13.557 4.459,13.337 4.262 C 13.117 4.063,13.056 4.053,12.092 4.053 L 11.257 4.053 11.249 3.140 L 11.240 2.227 11.171 2.080 C 11.077 1.881,10.991 1.785,10.823 1.694 C 10.653 1.601,10.347 1.574,10.179 1.637 M5.613 8.976 C 5.804 9.512,5.964 9.962,5.969 9.975 C 5.974 9.990,5.685 10.000,5.253 10.000 C 4.855 10.000,4.533 9.990,4.538 9.977 C 4.543 9.965,4.703 9.515,4.893 8.978 C 5.084 8.441,5.246 8.001,5.253 8.001 C 5.261 8.001,5.423 8.440,5.613 8.976 " fill="#1A1C1F" stroke="none" fill-rule="evenodd"></path></svg>