<svg xmlns="http://www.w3.org/2000/svg" width="16" height="16" fill="none"><g clip-path="url(#a)"><path fill="#1A1C1F" fill-rule="evenodd" d="M11.325 5.652h1.488a.8.8 0 1 0 0-1.6h-1.574V2.39a.8.8 0 0 0-1.6 0v1.662H8.065a.8.8 0 0 0 0 1.6h1.488c-.31 1.57-1.44 2.875-2.156 3.565l-1.39-3.896a.8.8 0 0 0-1.507 0l-2.85 8a.8.8 0 1 0 1.507.538l.807-2.266h2.58l.804 2.25a.797.797 0 0 0 1.022.484.8.8 0 0 0 .485-1.022l-.877-2.457c.483-.402 1.656-1.469 2.46-2.983.998 1.884 2.588 3.092 2.686 3.165a.8.8 0 0 0 .96-1.28c-.025-.019-2.3-1.766-2.759-4.098m-6.79 4.34.72-2.019.72 2.02z" clip-rule="evenodd"/></g><defs><clipPath id="a"><path fill="#fff" d="M0 0h16v16H0z"/></clipPath></defs></svg>