<svg xmlns="http://www.w3.org/2000/svg" width="32" height="32" fill="none"><g clip-path="url(#a)"><path fill="#1A1C1F" fill-rule="evenodd" d="M22.55 9.834h4.575a1 1 0 0 0 0-2h-4.637V2.988a1 1 0 0 0-2 0v4.847H15.85a1 1 0 1 0 0 2h4.576c-.462 4.76-4.066 8.669-5.94 10.396L10.713 9.65a1 1 0 0 0-1.883 0l-6.768 19a1 1 0 1 0 1.883.673l2.13-5.98h7.4l2.12 5.944a1 1 0 1 0 1.884-.672l-2.265-6.35c1.38-1.171 4.622-4.232 6.273-8.402 2.072 5.245 6.67 8.738 6.92 8.925a1 1 0 0 0 1.398-.201 1 1 0 0 0-.2-1.4c-.07-.051-6.433-4.915-7.055-11.354M9.772 12.967l2.99 8.378H6.787z" clip-rule="evenodd"/></g><defs><clipPath id="a"><path fill="#fff" d="M0 0h32v32H0z"/></clipPath></defs></svg>