<svg width="24" height="24" viewBox="0 0 24 24" fill="none" xmlns="http://www.w3.org/2000/svg"><path d="M15.591 2.039 C 15.316 2.124,15.060 2.355,14.930 2.635 C 14.871 2.762,14.860 2.982,14.849 4.386 L 14.835 5.993 13.288 6.006 C 11.761 6.020,11.737 6.021,11.551 6.113 C 11.371 6.202,11.195 6.382,11.078 6.600 C 11.046 6.659,11.023 6.824,11.023 7.000 C 11.023 7.176,11.046 7.341,11.078 7.400 C 11.195 7.618,11.371 7.798,11.551 7.887 C 11.736 7.978,11.771 7.980,13.227 8.000 C 14.044 8.011,14.727 8.033,14.743 8.049 C 14.782 8.089,14.580 8.932,14.413 9.420 C 14.087 10.374,13.268 11.823,12.535 12.740 C 12.061 13.333,11.025 14.443,10.987 14.397 C 10.979 14.388,10.728 13.696,10.428 12.860 C 8.811 8.346,8.513 7.531,8.446 7.440 C 8.214 7.124,7.762 6.950,7.408 7.039 C 7.166 7.100,6.867 7.323,6.779 7.507 C 6.679 7.718,6.042 9.479,4.320 14.300 C 2.013 20.760,1.973 20.880,2.025 21.201 C 2.090 21.608,2.569 21.999,3.003 22.000 C 3.187 22.000,3.497 21.885,3.648 21.760 C 3.824 21.614,3.985 21.220,4.801 18.930 L 5.331 17.440 6.799 17.440 C 7.607 17.440,8.646 17.452,9.109 17.466 L 9.951 17.492 10.460 18.916 C 11.229 21.065,11.421 21.537,11.587 21.699 C 12.053 22.152,12.891 21.984,13.164 21.383 C 13.326 21.026,13.280 20.851,12.305 18.126 L 11.728 16.511 12.455 15.786 C 12.855 15.387,13.360 14.862,13.578 14.620 C 14.295 13.824,15.134 12.627,15.623 11.703 C 15.746 11.470,15.853 11.280,15.860 11.280 C 15.867 11.280,15.975 11.473,16.100 11.710 C 16.606 12.668,17.230 13.574,18.026 14.505 C 18.498 15.058,19.640 16.188,20.094 16.551 C 20.539 16.908,20.686 16.977,21.000 16.978 C 21.639 16.980,22.106 16.405,21.964 15.790 C 21.900 15.509,21.778 15.356,21.280 14.929 C 20.696 14.429,19.734 13.435,19.260 12.842 C 18.448 11.827,17.742 10.632,17.381 9.662 C 17.224 9.241,17.023 8.506,16.978 8.193 L 16.952 8.006 18.466 7.993 C 20.175 7.977,20.139 7.983,20.428 7.669 C 20.811 7.253,20.796 6.673,20.394 6.294 C 20.113 6.031,20.144 6.035,18.439 6.010 L 16.888 5.988 16.869 4.404 C 16.857 3.390,16.834 2.769,16.805 2.677 C 16.742 2.478,16.511 2.222,16.310 2.127 C 16.113 2.035,15.749 1.990,15.591 2.039 M8.016 12.070 C 8.697 13.967,9.160 15.300,9.160 15.370 C 9.160 15.435,9.060 15.440,7.620 15.440 C 6.330 15.440,6.080 15.431,6.080 15.384 C 6.080 15.263,7.595 11.080,7.639 11.080 C 7.650 11.080,7.820 11.526,8.016 12.070 " fill="#1A1C1F" stroke="none" fill-rule="evenodd"></path></svg>