<svg width="16" height="16" viewBox="0 0 16 16" fill="none" xmlns="http://www.w3.org/2000/svg"><path d="M11.793 1.712 C 11.735 1.741,11.680 1.874,11.680 1.989 C 11.680 2.103,11.570 2.473,11.479 2.664 C 11.235 3.180,10.775 3.618,10.253 3.832 C 10.096 3.897,9.831 3.964,9.629 3.989 C 9.463 4.011,9.387 4.072,9.387 4.184 C 9.387 4.323,9.454 4.366,9.747 4.415 C 10.568 4.550,11.248 5.102,11.549 5.877 C 11.591 5.987,11.640 6.164,11.656 6.271 C 11.712 6.639,11.777 6.728,11.955 6.684 C 12.048 6.660,12.067 6.618,12.118 6.325 C 12.204 5.823,12.400 5.443,12.760 5.079 C 13.169 4.664,13.512 4.499,14.195 4.387 C 14.320 4.366,14.400 4.290,14.400 4.191 C 14.400 4.080,14.306 4.009,14.133 3.988 C 13.776 3.944,13.328 3.771,13.057 3.573 C 12.545 3.198,12.191 2.608,12.106 1.988 C 12.085 1.839,12.066 1.788,12.012 1.740 C 11.938 1.675,11.886 1.668,11.793 1.712 M6.142 4.932 C 6.001 4.996,5.963 5.070,5.908 5.387 C 5.743 6.352,5.343 7.147,4.667 7.848 C 3.986 8.557,3.152 9.001,2.162 9.183 C 1.975 9.218,1.792 9.266,1.754 9.291 C 1.612 9.384,1.562 9.604,1.643 9.776 C 1.701 9.899,1.817 9.962,2.053 9.999 C 3.067 10.160,3.890 10.580,4.614 11.305 C 5.333 12.026,5.737 12.808,5.908 13.813 C 5.961 14.123,5.998 14.198,6.133 14.266 C 6.256 14.329,6.343 14.334,6.461 14.283 C 6.627 14.213,6.659 14.149,6.744 13.719 C 6.915 12.861,7.251 12.160,7.800 11.520 C 8.414 10.803,9.370 10.242,10.298 10.054 C 10.449 10.024,10.636 9.986,10.712 9.971 C 11.028 9.908,11.141 9.545,10.912 9.325 C 10.851 9.267,10.773 9.242,10.440 9.176 C 10.220 9.132,9.914 9.052,9.760 8.999 C 8.633 8.606,7.715 7.807,7.177 6.752 C 6.968 6.341,6.841 5.969,6.744 5.481 C 6.659 5.051,6.627 4.987,6.461 4.917 C 6.346 4.868,6.275 4.871,6.142 4.932 M6.427 8.527 C 6.569 8.718,7.120 9.275,7.330 9.440 C 7.433 9.521,7.517 9.593,7.517 9.600 C 7.517 9.607,7.433 9.679,7.330 9.760 C 7.120 9.925,6.569 10.482,6.427 10.673 C 6.375 10.742,6.326 10.796,6.318 10.792 C 6.309 10.789,6.233 10.703,6.148 10.600 C 5.921 10.327,5.646 10.050,5.373 9.820 C 5.241 9.708,5.133 9.609,5.133 9.600 C 5.133 9.591,5.242 9.492,5.375 9.380 C 5.638 9.160,6.007 8.783,6.190 8.548 C 6.254 8.467,6.312 8.400,6.320 8.401 C 6.327 8.401,6.375 8.458,6.427 8.527 " fill="#1A1C1F" stroke="none" fill-rule="evenodd"></path></svg>