<svg width="12" height="12" viewBox="0 0 12 12" fill="none" xmlns="http://www.w3.org/2000/svg"><path d="M8.845 1.284 C 8.801 1.306,8.760 1.405,8.760 1.492 C 8.760 1.577,8.677 1.855,8.609 1.998 C 8.426 2.385,8.081 2.713,7.690 2.874 C 7.572 2.923,7.374 2.973,7.222 2.992 C 7.097 3.008,7.040 3.054,7.040 3.138 C 7.040 3.242,7.090 3.275,7.310 3.311 C 7.926 3.412,8.436 3.826,8.662 4.408 C 8.694 4.490,8.730 4.623,8.742 4.704 C 8.784 4.979,8.833 5.046,8.967 5.013 C 9.036 4.995,9.050 4.963,9.088 4.744 C 9.153 4.367,9.300 4.083,9.570 3.809 C 9.877 3.498,10.134 3.374,10.646 3.290 C 10.740 3.275,10.800 3.218,10.800 3.143 C 10.800 3.060,10.730 3.007,10.600 2.991 C 10.332 2.958,9.996 2.828,9.793 2.679 C 9.409 2.399,9.143 1.956,9.079 1.491 C 9.064 1.379,9.049 1.341,9.009 1.305 C 8.953 1.256,8.914 1.251,8.845 1.284 M4.606 3.699 C 4.501 3.747,4.472 3.803,4.431 4.040 C 4.300 4.810,3.969 5.437,3.407 5.982 C 2.922 6.453,2.317 6.759,1.622 6.887 C 1.482 6.913,1.344 6.950,1.315 6.968 C 1.209 7.038,1.171 7.203,1.232 7.332 C 1.276 7.424,1.363 7.471,1.540 7.499 C 2.300 7.620,2.918 7.935,3.461 8.479 C 4.000 9.019,4.302 9.606,4.431 10.360 C 4.471 10.592,4.499 10.648,4.600 10.700 C 4.692 10.747,4.757 10.750,4.846 10.713 C 4.970 10.660,4.994 10.612,5.058 10.289 C 5.238 9.386,5.686 8.667,6.397 8.138 C 6.645 7.954,7.025 7.753,7.313 7.653 C 7.493 7.591,7.597 7.566,8.034 7.478 C 8.271 7.431,8.356 7.158,8.184 6.994 C 8.138 6.950,8.080 6.932,7.830 6.882 C 7.665 6.849,7.436 6.789,7.320 6.749 C 6.475 6.455,5.786 5.855,5.383 5.064 C 5.226 4.756,5.131 4.477,5.058 4.111 C 4.994 3.788,4.970 3.740,4.846 3.687 C 4.760 3.651,4.706 3.653,4.606 3.699 M4.820 6.395 C 4.926 6.538,5.340 6.956,5.498 7.080 C 5.575 7.140,5.638 7.195,5.638 7.200 C 5.638 7.205,5.575 7.260,5.498 7.320 C 5.340 7.444,4.927 7.862,4.820 8.005 C 4.782 8.056,4.745 8.097,4.738 8.094 C 4.732 8.092,4.675 8.027,4.611 7.950 C 4.441 7.745,4.234 7.537,4.030 7.365 C 3.931 7.281,3.850 7.207,3.850 7.200 C 3.850 7.193,3.932 7.119,4.031 7.035 C 4.228 6.870,4.505 6.587,4.643 6.411 C 4.690 6.350,4.734 6.300,4.740 6.301 C 4.745 6.301,4.782 6.344,4.820 6.395 " fill="#1A1C1F" stroke="none" fill-rule="evenodd"></path></svg>