<svg width="20" height="20" viewBox="0 0 20 20" fill="none" xmlns="http://www.w3.org/2000/svg"><path d="M14.742 2.141 C 14.669 2.176,14.601 2.342,14.600 2.486 C 14.600 2.629,14.462 3.091,14.349 3.330 C 14.043 3.974,13.469 4.522,12.817 4.790 C 12.621 4.871,12.289 4.955,12.037 4.987 C 11.829 5.013,11.733 5.090,11.733 5.230 C 11.733 5.404,11.817 5.458,12.183 5.518 C 13.210 5.687,14.060 6.377,14.436 7.346 C 14.489 7.483,14.550 7.705,14.570 7.839 C 14.640 8.298,14.722 8.410,14.944 8.354 C 15.060 8.325,15.084 8.272,15.147 7.906 C 15.255 7.278,15.500 6.804,15.950 6.349 C 16.462 5.831,16.891 5.624,17.744 5.484 C 17.900 5.458,18.000 5.363,18.000 5.239 C 18.000 5.101,17.883 5.011,17.667 4.984 C 17.219 4.930,16.660 4.714,16.321 4.466 C 15.682 3.998,15.239 3.260,15.132 2.484 C 15.106 2.299,15.082 2.234,15.015 2.175 C 14.922 2.093,14.857 2.085,14.742 2.141 M7.677 6.165 C 7.501 6.245,7.453 6.338,7.386 6.734 C 7.166 8.016,6.614 9.062,5.679 9.970 C 4.869 10.754,3.862 11.265,2.703 11.479 C 2.469 11.522,2.240 11.583,2.192 11.614 C 2.015 11.730,1.952 12.005,2.054 12.219 C 2.127 12.374,2.271 12.452,2.567 12.499 C 3.833 12.700,4.863 13.225,5.768 14.131 C 6.666 15.032,7.171 16.010,7.386 17.266 C 7.452 17.654,7.498 17.747,7.666 17.833 C 7.820 17.912,7.928 17.917,8.076 17.854 C 8.283 17.766,8.324 17.686,8.430 17.149 C 8.644 16.076,9.064 15.200,9.750 14.399 C 10.517 13.504,11.712 12.802,12.872 12.568 C 13.062 12.530,13.295 12.483,13.390 12.464 C 13.786 12.385,13.926 11.931,13.640 11.657 C 13.564 11.584,13.466 11.553,13.049 11.470 C 12.775 11.415,12.393 11.316,12.200 11.249 C 10.792 10.758,9.643 9.759,8.972 8.440 C 8.710 7.927,8.552 7.461,8.430 6.851 C 8.324 6.314,8.283 6.234,8.076 6.146 C 7.933 6.085,7.844 6.089,7.677 6.165 M8.033 10.659 C 8.211 10.897,8.900 11.593,9.163 11.800 C 9.291 11.901,9.397 11.991,9.397 12.000 C 9.397 12.009,9.291 12.099,9.163 12.200 C 8.900 12.406,8.211 13.103,8.033 13.341 C 7.969 13.427,7.908 13.495,7.897 13.491 C 7.887 13.487,7.791 13.378,7.684 13.250 C 7.401 12.909,7.057 12.562,6.717 12.275 C 6.552 12.135,6.417 12.012,6.417 12.000 C 6.417 11.988,6.553 11.865,6.719 11.725 C 7.047 11.450,7.508 10.979,7.738 10.685 C 7.817 10.583,7.890 10.500,7.900 10.501 C 7.909 10.502,7.969 10.573,8.033 10.659 " fill="#1A1C1F" stroke="none" fill-rule="evenodd"></path></svg>