<svg width="28" height="28" viewBox="0 0 28 28" fill="none" xmlns="http://www.w3.org/2000/svg"><path d="M21.449 1.878 C 21.411 1.938,21.359 2.227,21.329 2.543 C 21.264 3.228,21.180 3.566,20.971 3.983 C 20.758 4.408,20.596 4.638,20.294 4.942 C 19.685 5.555,18.942 5.877,17.901 5.980 C 17.238 6.046,17.115 6.099,17.115 6.323 C 17.115 6.532,17.254 6.610,17.696 6.646 C 17.909 6.664,18.220 6.700,18.387 6.725 C 19.326 6.870,20.227 7.455,20.741 8.254 C 21.123 8.847,21.247 9.238,21.329 10.103 C 21.383 10.675,21.450 10.869,21.596 10.879 C 21.904 10.900,21.956 10.805,22.025 10.100 C 22.057 9.774,22.121 9.375,22.168 9.212 C 22.394 8.421,22.926 7.701,23.613 7.256 C 24.198 6.877,24.591 6.753,25.476 6.666 C 26.112 6.604,26.238 6.547,26.238 6.323 C 26.238 6.099,26.116 6.046,25.452 5.981 C 24.423 5.879,23.669 5.554,23.090 4.962 C 22.361 4.216,22.122 3.635,22.000 2.310 C 21.962 1.893,21.890 1.773,21.677 1.773 C 21.560 1.773,21.497 1.803,21.449 1.878 M10.837 5.579 C 10.781 5.619,10.714 5.690,10.688 5.737 C 10.663 5.784,10.525 6.680,10.382 7.729 C 10.087 9.892,10.041 10.126,9.802 10.710 C 9.408 11.671,8.744 12.490,7.863 13.099 C 7.622 13.266,6.992 13.565,6.617 13.689 C 6.150 13.844,6.051 13.861,3.852 14.162 C 1.851 14.436,1.824 14.443,1.753 14.727 C 1.711 14.895,1.834 15.142,1.989 15.205 C 2.063 15.234,2.984 15.375,4.037 15.518 C 5.089 15.661,6.111 15.819,6.307 15.869 C 8.152 16.339,9.669 17.916,10.076 19.787 C 10.114 19.963,10.640 23.748,10.640 23.848 C 10.640 23.866,10.695 23.936,10.763 24.004 C 10.906 24.147,11.164 24.170,11.328 24.055 C 11.471 23.955,11.505 23.802,11.693 22.377 C 11.978 20.215,12.040 19.822,12.164 19.413 C 12.641 17.831,13.813 16.585,15.366 16.007 C 15.794 15.848,16.176 15.780,18.107 15.516 C 19.146 15.374,20.039 15.246,20.090 15.230 C 20.486 15.112,20.477 14.532,20.078 14.422 C 19.982 14.396,19.108 14.268,18.137 14.139 C 16.096 13.866,16.066 13.861,15.540 13.694 C 14.780 13.454,14.172 13.090,13.569 12.514 C 12.933 11.906,12.484 11.210,12.212 10.407 C 12.060 9.958,12.042 9.851,11.740 7.651 C 11.601 6.638,11.473 5.772,11.455 5.727 C 11.415 5.625,11.197 5.507,11.049 5.507 C 10.990 5.507,10.894 5.539,10.837 5.579 M11.390 12.647 C 11.785 13.245,12.703 14.157,13.291 14.537 C 13.681 14.789,13.716 14.823,13.641 14.877 C 13.594 14.910,13.369 15.067,13.140 15.227 C 12.394 15.746,11.624 16.566,11.193 17.301 L 11.076 17.499 10.756 17.021 C 10.328 16.385,9.516 15.572,8.879 15.145 L 8.402 14.824 8.809 14.554 C 9.588 14.037,10.301 13.323,10.789 12.568 C 10.925 12.358,11.050 12.190,11.067 12.195 C 11.083 12.200,11.229 12.403,11.390 12.647 M18.308 18.948 C 18.126 19.019,18.072 19.179,18.017 19.810 C 17.951 20.558,17.838 20.919,17.553 21.293 C 17.130 21.848,16.689 22.050,15.680 22.149 C 15.056 22.210,14.995 22.225,14.898 22.334 C 14.734 22.518,14.774 22.803,14.979 22.913 C 15.028 22.939,15.378 22.992,15.756 23.030 C 16.337 23.088,16.490 23.121,16.747 23.241 C 17.136 23.423,17.418 23.656,17.620 23.959 C 17.863 24.325,17.952 24.640,18.017 25.358 C 18.084 26.113,18.149 26.245,18.452 26.245 C 18.754 26.245,18.811 26.138,18.883 25.425 C 18.964 24.622,19.013 24.422,19.211 24.094 C 19.412 23.758,19.558 23.603,19.857 23.408 C 20.227 23.166,20.454 23.101,21.172 23.028 C 21.542 22.991,21.885 22.939,21.935 22.913 C 22.139 22.803,22.179 22.518,22.015 22.334 C 21.918 22.225,21.857 22.210,21.233 22.149 C 20.261 22.053,19.797 21.852,19.401 21.354 C 19.051 20.913,18.944 20.559,18.873 19.607 C 18.847 19.256,18.821 19.149,18.742 19.063 C 18.627 18.938,18.452 18.892,18.308 18.948 " fill="#1A1C1F" stroke="none" fill-rule="evenodd"></path></svg>