<svg width="16" height="16" viewBox="0 0 16 16" fill="none" xmlns="http://www.w3.org/2000/svg"><path d="M11.795 1.720 C 11.733 1.763,11.695 1.864,11.668 2.053 C 11.640 2.249,11.500 2.632,11.385 2.829 C 11.161 3.213,10.799 3.559,10.424 3.748 C 10.224 3.849,9.878 3.957,9.661 3.986 C 9.490 4.009,9.387 4.083,9.387 4.182 C 9.388 4.321,9.432 4.346,9.839 4.437 C 10.837 4.662,11.480 5.349,11.681 6.405 C 11.716 6.591,11.790 6.693,11.890 6.693 C 12.019 6.693,12.049 6.645,12.122 6.312 C 12.243 5.761,12.414 5.436,12.778 5.069 C 13.133 4.710,13.466 4.535,14.007 4.425 C 14.300 4.366,14.400 4.307,14.400 4.195 C 14.400 4.117,14.317 4.033,14.221 4.012 C 13.522 3.860,13.188 3.710,12.855 3.397 C 12.475 3.039,12.236 2.612,12.133 2.104 C 12.067 1.782,12.064 1.773,11.985 1.722 C 11.906 1.670,11.867 1.669,11.795 1.720 M6.142 4.935 C 6.001 5.005,5.971 5.072,5.881 5.507 C 5.704 6.367,5.376 7.037,4.814 7.686 C 4.147 8.455,3.321 8.927,2.209 9.175 C 1.999 9.222,1.795 9.276,1.756 9.296 C 1.664 9.343,1.587 9.536,1.611 9.663 C 1.633 9.781,1.720 9.890,1.826 9.935 C 1.873 9.954,2.060 10.000,2.243 10.037 C 2.427 10.075,2.685 10.140,2.817 10.184 C 3.754 10.490,4.627 11.166,5.214 12.041 C 5.548 12.539,5.765 13.081,5.894 13.747 C 5.968 14.124,6.003 14.197,6.144 14.265 C 6.276 14.329,6.344 14.333,6.461 14.284 C 6.603 14.224,6.639 14.156,6.724 13.796 C 6.911 13.004,7.098 12.531,7.417 12.040 C 7.878 11.332,8.493 10.791,9.264 10.416 C 9.630 10.238,9.948 10.131,10.376 10.041 C 10.821 9.948,10.870 9.930,10.947 9.829 C 11.031 9.718,11.054 9.603,11.014 9.483 C 10.960 9.319,10.875 9.273,10.443 9.178 C 9.943 9.067,9.632 8.965,9.280 8.797 C 8.069 8.219,7.121 7.056,6.815 5.773 C 6.628 4.988,6.639 5.014,6.476 4.931 C 6.348 4.866,6.280 4.867,6.142 4.935 M6.425 8.524 C 6.539 8.675,7.100 9.247,7.333 9.450 L 7.507 9.601 7.320 9.766 C 7.082 9.977,6.697 10.360,6.484 10.600 L 6.319 10.787 6.154 10.600 C 5.946 10.365,5.593 10.011,5.333 9.779 L 5.133 9.600 5.320 9.436 C 5.581 9.206,6.073 8.704,6.199 8.538 C 6.257 8.462,6.311 8.400,6.319 8.401 C 6.327 8.401,6.375 8.457,6.425 8.524 " fill="#1A1C1F" stroke="none" fill-rule="evenodd"></path></svg>