<svg width="28" height="28" viewBox="0 0 28 28" fill="none" xmlns="http://www.w3.org/2000/svg"><path d="M21.507 1.821 C 21.421 1.871,21.404 1.948,21.304 2.714 C 21.172 3.725,20.904 4.305,20.281 4.927 C 19.658 5.550,19.075 5.812,17.956 5.973 C 17.599 6.025,17.266 6.089,17.217 6.115 C 17.154 6.149,17.127 6.213,17.127 6.327 C 17.127 6.469,17.148 6.500,17.280 6.556 C 17.365 6.591,17.654 6.643,17.922 6.672 C 18.963 6.783,19.607 7.060,20.246 7.672 C 20.889 8.286,21.198 8.978,21.325 10.079 C 21.356 10.348,21.410 10.637,21.445 10.721 C 21.500 10.853,21.531 10.873,21.677 10.873 C 21.822 10.873,21.853 10.853,21.908 10.721 C 21.943 10.637,21.997 10.348,22.028 10.079 C 22.152 9.007,22.406 8.415,23.028 7.753 C 23.623 7.118,24.330 6.802,25.433 6.675 C 25.702 6.644,25.990 6.590,26.074 6.555 C 26.205 6.500,26.227 6.469,26.227 6.327 C 26.227 6.213,26.199 6.149,26.137 6.115 C 26.087 6.089,25.755 6.025,25.398 5.973 C 24.380 5.826,23.754 5.569,23.217 5.079 C 22.479 4.405,22.168 3.730,22.025 2.497 C 21.972 2.040,21.924 1.878,21.821 1.809 C 21.750 1.762,21.598 1.767,21.507 1.821 M10.815 5.599 C 10.750 5.650,10.685 5.742,10.669 5.804 C 10.654 5.865,10.525 6.721,10.384 7.706 C 10.035 10.140,9.983 10.372,9.637 11.062 C 9.162 12.009,8.271 12.922,7.397 13.359 C 6.617 13.749,6.255 13.835,4.200 14.116 C 2.583 14.337,2.100 14.419,1.946 14.498 C 1.709 14.619,1.677 14.922,1.882 15.111 C 2.006 15.225,2.186 15.261,3.687 15.471 C 6.267 15.832,6.623 15.909,7.327 16.265 C 8.572 16.894,9.622 18.157,9.985 19.463 C 10.038 19.654,10.186 20.566,10.315 21.490 C 10.444 22.414,10.572 23.333,10.600 23.532 C 10.644 23.845,10.670 23.910,10.789 24.010 C 10.947 24.144,11.174 24.163,11.327 24.056 C 11.460 23.963,11.532 23.617,11.739 22.073 C 12.071 19.586,12.111 19.402,12.481 18.642 C 13.135 17.298,14.326 16.288,15.703 15.910 C 15.908 15.854,16.994 15.678,18.117 15.518 C 19.716 15.291,20.179 15.210,20.250 15.146 C 20.439 14.975,20.411 14.634,20.197 14.495 C 20.072 14.414,19.704 14.353,17.780 14.094 C 16.228 13.886,15.779 13.796,15.227 13.582 C 13.741 13.008,12.507 11.607,12.109 10.042 C 12.072 9.896,11.915 8.879,11.760 7.782 C 11.604 6.685,11.466 5.757,11.452 5.721 C 11.421 5.641,11.153 5.507,11.024 5.507 C 10.974 5.507,10.880 5.548,10.815 5.599 M11.357 12.595 C 11.879 13.339,12.661 14.116,13.363 14.587 C 13.534 14.702,13.672 14.811,13.671 14.829 C 13.670 14.848,13.447 15.021,13.175 15.213 C 12.405 15.758,11.605 16.602,11.193 17.301 L 11.076 17.499 10.814 17.115 C 10.299 16.360,9.538 15.599,8.787 15.087 L 8.403 14.825 8.857 14.520 C 9.443 14.124,10.332 13.239,10.726 12.658 C 10.887 12.421,11.037 12.227,11.059 12.227 C 11.081 12.227,11.215 12.392,11.357 12.595 M18.174 19.061 C 18.132 19.124,18.078 19.329,18.053 19.516 C 17.880 20.797,17.782 21.076,17.351 21.513 C 16.968 21.902,16.531 22.061,15.542 22.167 C 15.274 22.196,15.020 22.239,14.977 22.262 C 14.855 22.327,14.771 22.574,14.822 22.719 C 14.885 22.898,15.020 22.943,15.750 23.031 C 16.476 23.118,16.709 23.190,17.096 23.447 C 17.391 23.643,17.573 23.854,17.744 24.197 C 17.894 24.499,17.914 24.585,18.012 25.350 C 18.115 26.162,18.196 26.291,18.563 26.236 C 18.744 26.209,18.807 26.035,18.900 25.309 C 19.000 24.524,19.060 24.324,19.300 23.961 C 19.646 23.440,20.106 23.183,20.883 23.075 C 21.870 22.938,21.953 22.920,22.038 22.816 C 22.138 22.695,22.142 22.577,22.052 22.403 C 21.965 22.236,21.945 22.229,21.365 22.167 C 20.386 22.061,19.924 21.894,19.551 21.510 C 19.129 21.078,18.956 20.597,18.878 19.648 C 18.832 19.090,18.742 18.951,18.423 18.948 C 18.289 18.947,18.232 18.973,18.174 19.061 " fill="#1A1C1F" stroke="none" fill-rule="evenodd"></path></svg>