<svg width="24" height="24" viewBox="0 0 24 24" fill="none" xmlns="http://www.w3.org/2000/svg"><path d="M18.168 2.082 C 18.119 2.126,18.080 2.173,18.080 2.185 C 18.080 2.197,18.044 2.383,18.001 2.596 C 17.855 3.313,17.536 3.915,17.045 4.401 C 16.552 4.889,16.012 5.170,15.278 5.322 C 14.699 5.442,14.567 5.566,14.759 5.810 C 14.820 5.887,14.903 5.923,15.109 5.960 C 15.980 6.121,16.629 6.455,17.140 7.007 C 17.598 7.501,17.859 8.031,18.006 8.760 C 18.066 9.058,18.104 9.159,18.183 9.230 C 18.391 9.415,18.566 9.301,18.639 8.934 C 18.781 8.219,18.989 7.715,19.334 7.256 C 19.820 6.610,20.535 6.176,21.409 5.998 C 21.870 5.904,21.944 5.873,21.981 5.757 C 22.049 5.541,21.900 5.413,21.500 5.343 C 20.022 5.085,18.907 3.970,18.676 2.518 C 18.604 2.066,18.385 1.879,18.168 2.082 M9.039 5.074 C 8.963 5.115,8.877 5.194,8.849 5.251 C 8.821 5.308,8.745 5.711,8.679 6.147 C 8.508 7.284,8.392 7.693,8.038 8.402 C 7.500 9.479,6.501 10.483,5.417 11.034 C 4.766 11.365,4.174 11.537,3.200 11.678 C 2.311 11.807,2.212 11.832,2.122 11.947 C 1.956 12.157,1.979 12.451,2.174 12.634 C 2.263 12.718,2.381 12.743,3.713 12.959 C 5.848 13.306,7.681 14.862,8.355 16.900 C 8.495 17.323,8.564 17.650,8.680 18.440 C 8.818 19.380,8.871 19.479,9.254 19.511 C 9.447 19.527,9.482 19.517,9.596 19.414 C 9.722 19.301,9.726 19.287,9.884 18.320 C 10.059 17.253,10.196 16.765,10.483 16.194 C 11.095 14.973,11.988 14.084,13.220 13.471 C 13.850 13.157,14.308 13.031,15.440 12.859 C 15.825 12.801,16.197 12.729,16.267 12.700 C 16.590 12.565,16.616 12.012,16.306 11.866 C 16.237 11.833,15.865 11.759,15.480 11.701 C 14.663 11.577,14.377 11.517,13.940 11.374 C 12.175 10.796,10.767 9.380,10.167 7.576 C 10.094 7.358,9.980 6.821,9.883 6.239 C 9.710 5.203,9.694 5.157,9.451 5.054 C 9.280 4.982,9.206 4.986,9.039 5.074 M9.460 10.508 C 9.664 10.797,10.572 11.717,10.950 12.018 C 11.110 12.145,11.240 12.262,11.240 12.277 C 11.240 12.293,11.101 12.415,10.930 12.550 C 10.540 12.857,9.792 13.609,9.497 13.991 L 9.273 14.282 9.082 14.031 C 8.845 13.720,7.906 12.775,7.570 12.510 C 7.433 12.401,7.320 12.299,7.320 12.282 C 7.320 12.265,7.542 12.062,7.814 11.831 C 8.281 11.433,8.808 10.883,9.120 10.468 C 9.197 10.366,9.269 10.282,9.280 10.282 C 9.291 10.282,9.372 10.384,9.460 10.508 M15.132 16.718 C 15.044 16.772,14.992 16.844,14.965 16.948 C 14.944 17.032,14.896 17.217,14.860 17.360 C 14.766 17.732,14.576 18.064,14.300 18.340 C 14.022 18.617,13.733 18.770,13.267 18.887 C 12.846 18.993,12.743 19.048,12.679 19.202 C 12.567 19.474,12.738 19.646,13.220 19.744 C 14.092 19.920,14.720 20.554,14.900 21.440 C 14.990 21.879,15.153 22.051,15.415 21.985 C 15.595 21.940,15.662 21.833,15.733 21.477 C 15.909 20.588,16.535 19.922,17.349 19.760 C 17.843 19.661,17.882 19.644,17.943 19.499 C 18.026 19.301,18.014 19.208,17.890 19.084 C 17.811 19.006,17.706 18.960,17.522 18.923 C 16.551 18.733,15.938 18.139,15.740 17.201 C 15.669 16.860,15.599 16.733,15.455 16.678 C 15.315 16.625,15.278 16.630,15.132 16.718 " fill="#1A1C1F" stroke="none" fill-rule="evenodd"></path></svg>