<svg width="24" height="24" viewBox="0 0 24 24" fill="none" xmlns="http://www.w3.org/2000/svg"><path d="M18.163 2.070 C 18.099 2.122,18.067 2.212,18.038 2.420 C 17.881 3.560,17.193 4.527,16.180 5.030 C 15.859 5.189,15.611 5.266,15.180 5.339 C 14.764 5.409,14.656 5.490,14.697 5.699 C 14.726 5.846,14.808 5.912,14.997 5.941 C 15.676 6.047,16.250 6.265,16.680 6.580 C 16.919 6.756,17.360 7.217,17.497 7.435 C 17.790 7.900,17.966 8.392,18.059 9.003 C 18.088 9.192,18.154 9.274,18.301 9.303 C 18.513 9.344,18.591 9.237,18.664 8.800 C 18.919 7.286,20.065 6.170,21.580 5.962 C 21.882 5.920,22.000 5.835,22.000 5.660 C 22.000 5.475,21.885 5.404,21.480 5.336 C 20.082 5.101,18.982 4.061,18.703 2.709 C 18.668 2.541,18.640 2.357,18.640 2.300 C 18.640 2.169,18.474 2.000,18.346 2.000 C 18.293 2.000,18.210 2.032,18.163 2.070 M9.013 5.078 C 8.942 5.121,8.865 5.193,8.841 5.238 C 8.817 5.283,8.753 5.639,8.698 6.030 C 8.574 6.922,8.540 7.090,8.392 7.560 C 7.837 9.324,6.381 10.796,4.620 11.373 C 4.163 11.523,3.877 11.582,3.046 11.699 C 2.642 11.755,2.277 11.820,2.234 11.843 C 2.124 11.902,2.000 12.119,2.000 12.254 C 2.000 12.419,2.115 12.635,2.235 12.698 C 2.293 12.727,2.681 12.799,3.097 12.858 C 3.977 12.982,4.228 13.036,4.708 13.205 C 6.591 13.869,8.046 15.470,8.500 17.373 C 8.553 17.597,8.635 18.068,8.680 18.420 C 8.789 19.256,8.836 19.385,9.067 19.487 C 9.332 19.604,9.629 19.499,9.722 19.255 C 9.742 19.203,9.812 18.787,9.878 18.330 C 9.944 17.874,10.044 17.342,10.100 17.149 C 10.687 15.132,12.341 13.539,14.360 13.045 C 14.547 13.000,15.033 12.915,15.440 12.858 C 15.847 12.801,16.223 12.733,16.276 12.707 C 16.607 12.546,16.628 12.019,16.310 11.855 C 16.248 11.823,15.869 11.751,15.469 11.696 C 15.068 11.641,14.567 11.553,14.356 11.500 C 12.238 10.970,10.587 9.313,10.043 7.170 C 10.000 6.999,9.917 6.519,9.859 6.103 C 9.802 5.686,9.730 5.297,9.699 5.238 C 9.635 5.115,9.420 5.000,9.254 5.000 C 9.191 5.000,9.083 5.035,9.013 5.078 M9.460 10.509 C 9.700 10.849,10.449 11.612,10.889 11.964 L 11.278 12.275 10.929 12.546 C 10.482 12.892,9.892 13.483,9.544 13.931 L 9.272 14.282 9.071 14.011 C 8.817 13.670,7.813 12.672,7.510 12.460 C 7.385 12.372,7.286 12.289,7.291 12.276 C 7.296 12.263,7.481 12.107,7.701 11.930 C 8.153 11.568,8.711 11.000,9.040 10.569 C 9.160 10.410,9.268 10.280,9.280 10.281 C 9.291 10.281,9.372 10.384,9.460 10.509 M15.085 16.742 C 14.994 16.819,14.958 16.889,14.939 17.032 C 14.865 17.592,14.625 18.066,14.237 18.416 C 13.961 18.665,13.613 18.829,13.192 18.908 C 12.923 18.958,12.839 18.992,12.750 19.086 C 12.626 19.216,12.611 19.348,12.700 19.520 C 12.764 19.643,12.839 19.673,13.300 19.756 C 14.056 19.893,14.747 20.584,14.884 21.340 C 14.967 21.801,14.997 21.876,15.120 21.940 C 15.266 22.015,15.373 22.016,15.517 21.941 C 15.652 21.872,15.669 21.832,15.739 21.434 C 15.892 20.557,16.557 19.892,17.434 19.739 C 17.832 19.669,17.872 19.652,17.941 19.517 C 18.011 19.382,18.015 19.278,17.956 19.146 C 17.898 19.019,17.807 18.978,17.420 18.903 C 16.969 18.816,16.633 18.639,16.316 18.323 C 16.020 18.027,15.822 17.663,15.754 17.290 C 15.673 16.840,15.643 16.763,15.520 16.700 C 15.353 16.613,15.223 16.626,15.085 16.742 " fill="#1A1C1F" stroke="none" fill-rule="evenodd"></path></svg>