<svg width="32" height="32" viewBox="0 0 32 32" fill="none" xmlns="http://www.w3.org/2000/svg"><path d="M24.513 2.147 C 24.470 2.214,24.410 2.545,24.376 2.907 C 24.302 3.689,24.206 4.076,23.967 4.553 C 23.724 5.038,23.538 5.301,23.193 5.648 C 22.497 6.349,21.648 6.717,20.459 6.835 C 19.700 6.910,19.560 6.971,19.560 7.227 C 19.560 7.466,19.719 7.554,20.224 7.596 C 20.467 7.616,20.823 7.657,21.013 7.686 C 22.087 7.851,23.117 8.520,23.704 9.433 C 24.141 10.111,24.283 10.557,24.376 11.547 C 24.438 12.199,24.514 12.422,24.681 12.433 C 25.033 12.457,25.092 12.349,25.172 11.543 C 25.208 11.171,25.282 10.714,25.335 10.528 C 25.593 9.624,26.201 8.801,26.987 8.293 C 27.654 7.860,28.104 7.717,29.115 7.618 C 29.842 7.547,29.987 7.482,29.987 7.227 C 29.987 6.971,29.847 6.910,29.088 6.835 C 27.912 6.719,27.051 6.347,26.389 5.671 C 25.555 4.818,25.282 4.154,25.143 2.640 C 25.099 2.163,25.017 2.027,24.773 2.027 C 24.640 2.027,24.568 2.060,24.513 2.147 M12.386 6.376 C 12.321 6.422,12.244 6.503,12.215 6.556 C 12.187 6.610,12.029 7.635,11.865 8.834 C 11.528 11.305,11.475 11.573,11.202 12.240 C 10.752 13.338,9.993 14.274,8.987 14.971 C 8.711 15.162,7.990 15.502,7.562 15.645 C 7.029 15.822,6.916 15.841,4.402 16.185 C 2.115 16.499,2.085 16.507,2.004 16.831 C 1.956 17.022,2.096 17.305,2.273 17.377 C 2.358 17.411,3.411 17.572,4.613 17.735 C 5.816 17.898,6.984 18.078,7.208 18.136 C 9.317 18.673,11.050 20.475,11.515 22.613 C 11.559 22.814,12.160 27.141,12.160 27.255 C 12.160 27.275,12.223 27.355,12.301 27.433 C 12.464 27.596,12.759 27.623,12.947 27.491 C 13.110 27.377,13.148 27.203,13.363 25.573 C 13.689 23.102,13.760 22.653,13.901 22.187 C 14.447 20.378,15.786 18.954,17.561 18.294 C 18.051 18.112,18.487 18.034,20.693 17.733 C 21.881 17.571,22.901 17.424,22.960 17.406 C 23.413 17.270,23.403 16.608,22.946 16.483 C 22.837 16.453,21.838 16.307,20.728 16.158 C 18.395 15.847,18.361 15.841,17.760 15.651 C 16.891 15.376,16.197 14.960,15.507 14.301 C 14.780 13.607,14.268 12.811,13.957 11.893 C 13.783 11.381,13.762 11.258,13.417 8.744 C 13.258 7.587,13.111 6.597,13.091 6.545 C 13.046 6.428,12.797 6.293,12.628 6.293 C 12.560 6.293,12.451 6.331,12.386 6.376 M13.017 14.453 C 13.469 15.137,14.518 16.179,15.190 16.613 C 15.636 16.901,15.676 16.940,15.589 17.002 C 15.537 17.039,15.279 17.219,15.017 17.402 C 14.164 17.995,13.284 18.933,12.792 19.773 L 12.659 19.999 12.292 19.453 C 11.804 18.725,10.875 17.797,10.148 17.308 L 9.602 16.942 10.068 16.633 C 10.958 16.042,11.773 15.226,12.331 14.364 C 12.486 14.124,12.629 13.932,12.648 13.937 C 12.666 13.942,12.833 14.175,13.017 14.453 M20.923 21.655 C 20.716 21.736,20.654 21.919,20.590 22.640 C 20.515 23.495,20.386 23.907,20.061 24.334 C 19.577 24.969,19.073 25.200,17.920 25.313 C 17.207 25.383,17.137 25.400,17.027 25.524 C 16.839 25.735,16.884 26.061,17.118 26.186 C 17.175 26.216,17.575 26.276,18.007 26.320 C 18.671 26.387,18.846 26.424,19.140 26.561 C 19.584 26.769,19.907 27.035,20.137 27.382 C 20.415 27.800,20.517 28.160,20.590 28.980 C 20.668 29.843,20.742 29.995,21.088 29.995 C 21.434 29.995,21.498 29.872,21.580 29.058 C 21.673 28.139,21.730 27.911,21.955 27.536 C 22.185 27.152,22.352 26.975,22.693 26.752 C 23.117 26.475,23.376 26.401,24.196 26.318 C 24.619 26.276,25.012 26.216,25.068 26.186 C 25.302 26.061,25.347 25.735,25.160 25.524 C 25.049 25.400,24.979 25.383,24.267 25.313 C 23.155 25.204,22.626 24.974,22.173 24.405 C 21.772 23.900,21.652 23.501,21.571 22.409 C 21.542 22.008,21.513 21.888,21.421 21.788 C 21.288 21.643,21.089 21.590,20.923 21.655 " fill="#1A1C1F" stroke="none" fill-rule="evenodd"></path></svg>