<svg width="14" height="14" viewBox="0 0 14 14" fill="none" xmlns="http://www.w3.org/2000/svg"><path d="M10.319 1.498 C 10.268 1.523,10.220 1.639,10.220 1.740 C 10.220 1.840,10.123 2.164,10.044 2.331 C 9.830 2.782,9.428 3.166,8.972 3.353 C 8.834 3.410,8.603 3.468,8.426 3.491 C 8.280 3.509,8.213 3.563,8.213 3.661 C 8.213 3.783,8.272 3.821,8.528 3.863 C 9.247 3.981,9.842 4.464,10.105 5.142 C 10.142 5.238,10.185 5.393,10.199 5.487 C 10.248 5.809,10.305 5.887,10.461 5.848 C 10.542 5.828,10.559 5.791,10.603 5.534 C 10.679 5.095,10.850 4.763,11.165 4.444 C 11.523 4.081,11.823 3.937,12.420 3.839 C 12.530 3.821,12.600 3.754,12.600 3.667 C 12.600 3.570,12.518 3.508,12.367 3.489 C 12.054 3.451,11.662 3.300,11.425 3.126 C 10.977 2.798,10.667 2.282,10.592 1.739 C 10.575 1.609,10.557 1.564,10.510 1.522 C 10.445 1.465,10.400 1.460,10.319 1.498 M5.374 4.315 C 5.251 4.371,5.217 4.437,5.170 4.714 C 5.026 5.558,4.675 6.253,4.084 6.867 C 3.487 7.487,2.758 7.876,1.892 8.035 C 1.729 8.066,1.568 8.108,1.534 8.130 C 1.410 8.211,1.366 8.404,1.437 8.554 C 1.489 8.662,1.590 8.717,1.797 8.749 C 2.683 8.890,3.404 9.257,4.037 9.892 C 4.666 10.522,5.020 11.207,5.170 12.086 C 5.216 12.358,5.249 12.423,5.366 12.483 C 5.474 12.538,5.550 12.542,5.653 12.498 C 5.798 12.436,5.826 12.380,5.901 12.004 C 6.051 11.254,6.345 10.640,6.825 10.080 C 7.362 9.452,8.199 8.962,9.010 8.798 C 9.143 8.771,9.306 8.738,9.373 8.725 C 9.650 8.669,9.749 8.352,9.548 8.160 C 9.495 8.108,9.426 8.087,9.135 8.029 C 8.274 7.858,7.579 7.491,6.995 6.901 C 6.427 6.327,6.068 5.636,5.901 4.796 C 5.826 4.420,5.798 4.364,5.653 4.302 C 5.553 4.259,5.491 4.262,5.374 4.315 M5.623 7.461 C 5.747 7.628,6.230 8.115,6.414 8.260 C 6.504 8.331,6.578 8.394,6.578 8.400 C 6.578 8.406,6.504 8.469,6.414 8.540 C 6.230 8.684,5.748 9.172,5.623 9.339 C 5.578 9.399,5.536 9.446,5.528 9.443 C 5.521 9.441,5.454 9.365,5.379 9.275 C 5.181 9.036,4.940 8.794,4.702 8.592 C 4.586 8.495,4.492 8.408,4.492 8.400 C 4.492 8.392,4.587 8.305,4.703 8.208 C 4.933 8.015,5.256 7.685,5.416 7.480 C 5.472 7.408,5.523 7.350,5.530 7.351 C 5.536 7.351,5.578 7.401,5.623 7.461 " fill="#1A1C1F" stroke="none" fill-rule="evenodd"></path></svg>