<svg width="20" height="20" viewBox="0 0 20 20" fill="none" xmlns="http://www.w3.org/2000/svg"><path d="M14.743 2.150 C 14.666 2.204,14.618 2.330,14.585 2.567 C 14.550 2.811,14.375 3.290,14.231 3.537 C 13.951 4.017,13.499 4.449,13.030 4.685 C 12.780 4.811,12.348 4.946,12.076 4.982 C 11.863 5.011,11.733 5.104,11.734 5.227 C 11.735 5.401,11.790 5.432,12.298 5.547 C 13.546 5.828,14.350 6.687,14.601 8.006 C 14.645 8.239,14.738 8.367,14.863 8.367 C 15.024 8.367,15.061 8.306,15.152 7.890 C 15.305 7.191,15.523 6.785,15.990 6.323 C 16.449 5.869,16.831 5.670,17.503 5.533 C 17.875 5.457,18.000 5.384,18.000 5.244 C 18.000 5.147,17.897 5.041,17.776 5.015 C 16.903 4.826,16.485 4.637,16.069 4.246 C 15.594 3.799,15.295 3.265,15.166 2.630 C 15.084 2.228,15.079 2.216,14.982 2.152 C 14.883 2.087,14.834 2.087,14.743 2.150 M7.678 6.169 C 7.501 6.256,7.461 6.343,7.354 6.877 C 7.090 8.187,6.463 9.284,5.488 10.138 C 4.707 10.822,3.867 11.227,2.700 11.483 C 2.178 11.597,2.121 11.626,2.049 11.815 C 1.982 11.990,2.001 12.150,2.106 12.284 C 2.202 12.406,2.313 12.447,2.804 12.547 C 3.033 12.593,3.356 12.675,3.522 12.730 C 4.696 13.113,5.787 13.958,6.518 15.051 C 6.936 15.675,7.206 16.353,7.368 17.183 C 7.460 17.655,7.504 17.747,7.680 17.832 C 7.845 17.912,7.930 17.917,8.076 17.855 C 8.254 17.779,8.299 17.695,8.405 17.245 C 8.647 16.223,8.882 15.639,9.312 14.993 C 9.756 14.325,10.210 13.869,10.863 13.432 C 11.515 12.995,12.183 12.716,12.970 12.551 C 13.526 12.435,13.587 12.412,13.683 12.286 C 13.789 12.147,13.817 12.004,13.768 11.854 C 13.700 11.648,13.594 11.592,13.053 11.472 C 12.428 11.334,12.040 11.207,11.600 10.997 C 10.608 10.523,9.707 9.697,9.149 8.750 C 8.803 8.163,8.610 7.654,8.436 6.875 C 8.315 6.336,8.286 6.272,8.117 6.177 C 7.951 6.083,7.855 6.081,7.678 6.169 M8.615 11.285 C 8.781 11.451,9.022 11.681,9.150 11.794 L 9.383 12.002 9.150 12.208 C 8.853 12.470,8.335 12.987,8.089 13.267 L 7.899 13.483 7.693 13.250 C 7.432 12.955,6.990 12.513,6.667 12.224 L 6.417 12.001 6.650 11.795 C 6.978 11.506,7.591 10.879,7.750 10.671 L 7.883 10.496 8.098 10.740 C 8.216 10.874,8.449 11.119,8.615 11.285 " fill="#1A1C1F" stroke="none" fill-rule="evenodd"></path></svg>