<svg width="32" height="32" viewBox="0 0 32 32" fill="none" xmlns="http://www.w3.org/2000/svg"><path d="M24.579 2.081 C 24.481 2.138,24.461 2.226,24.347 3.101 C 24.195 4.276,23.891 4.924,23.153 5.654 C 22.438 6.360,21.807 6.641,20.521 6.827 C 20.113 6.886,19.733 6.958,19.676 6.989 C 19.605 7.027,19.573 7.101,19.573 7.231 C 19.573 7.393,19.598 7.429,19.749 7.492 C 19.846 7.533,20.176 7.592,20.482 7.625 C 21.672 7.752,22.408 8.068,23.138 8.767 C 23.873 9.470,24.227 10.260,24.371 11.519 C 24.407 11.827,24.468 12.157,24.508 12.252 C 24.572 12.403,24.607 12.427,24.773 12.427 C 24.940 12.427,24.975 12.403,25.038 12.252 C 25.078 12.157,25.140 11.827,25.175 11.519 C 25.316 10.293,25.607 9.617,26.317 8.860 C 26.998 8.135,27.806 7.773,29.066 7.629 C 29.373 7.593,29.703 7.532,29.799 7.492 C 29.949 7.429,29.973 7.393,29.973 7.231 C 29.973 7.101,29.942 7.027,29.871 6.989 C 29.814 6.958,29.434 6.886,29.026 6.827 C 27.863 6.659,27.147 6.365,26.534 5.804 C 25.690 5.034,25.334 4.262,25.171 2.854 C 25.111 2.331,25.056 2.146,24.939 2.067 C 24.858 2.013,24.684 2.020,24.579 2.081 M12.360 6.399 C 12.286 6.457,12.211 6.562,12.193 6.633 C 12.176 6.703,12.029 7.681,11.868 8.807 C 11.468 11.589,11.409 11.854,11.014 12.642 C 10.470 13.724,9.453 14.768,8.453 15.268 C 7.563 15.713,7.149 15.811,4.800 16.133 C 2.298 16.475,2.125 16.516,2.024 16.780 C 1.906 17.091,2.115 17.346,2.560 17.433 C 2.721 17.465,3.705 17.612,4.747 17.759 C 5.788 17.907,6.772 18.053,6.933 18.084 C 8.976 18.476,10.848 20.215,11.411 22.244 C 11.472 22.462,11.642 23.504,11.789 24.560 C 11.936 25.616,12.083 26.666,12.115 26.894 C 12.165 27.251,12.194 27.326,12.330 27.440 C 12.511 27.593,12.770 27.615,12.945 27.493 C 13.097 27.386,13.179 26.991,13.413 25.227 C 13.673 23.257,13.800 22.507,13.950 22.048 C 14.554 20.199,16.120 18.685,17.947 18.183 C 18.180 18.119,19.422 17.918,20.705 17.735 C 23.239 17.375,23.220 17.381,23.285 17.032 C 23.322 16.837,23.223 16.631,23.049 16.538 C 22.924 16.471,22.337 16.379,20.320 16.108 C 18.546 15.869,18.034 15.766,17.402 15.523 C 15.703 14.866,14.295 13.267,13.839 11.477 C 13.796 11.310,13.617 10.155,13.442 8.911 C 13.266 7.667,13.109 6.610,13.094 6.563 C 13.058 6.448,12.789 6.293,12.626 6.293 C 12.553 6.293,12.434 6.341,12.360 6.399 M13.048 14.490 C 13.516 15.151,14.449 16.084,15.110 16.552 C 15.394 16.753,15.625 16.933,15.624 16.952 C 15.623 16.971,15.367 17.167,15.055 17.387 C 14.179 18.006,13.264 18.971,12.792 19.773 L 12.659 19.999 12.359 19.560 C 11.760 18.683,10.917 17.840,10.042 17.242 L 9.604 16.943 10.122 16.593 C 10.790 16.142,11.763 15.177,12.241 14.493 C 12.440 14.207,12.621 13.973,12.643 13.973 C 12.665 13.973,12.847 14.206,13.048 14.490 M20.770 21.784 C 20.723 21.857,20.660 22.091,20.631 22.304 C 20.434 23.768,20.322 24.087,19.830 24.587 C 19.392 25.031,18.892 25.212,17.763 25.334 C 17.456 25.367,17.165 25.416,17.117 25.442 C 16.977 25.517,16.881 25.799,16.939 25.965 C 17.011 26.169,17.165 26.221,18.000 26.321 C 18.829 26.421,19.096 26.503,19.538 26.796 C 20.219 27.248,20.480 27.841,20.613 29.234 C 20.670 29.825,20.852 30.051,21.217 29.983 C 21.425 29.944,21.494 29.753,21.600 28.925 C 21.714 28.028,21.782 27.798,22.057 27.384 C 22.453 26.789,22.978 26.495,23.867 26.372 C 24.995 26.215,25.089 26.194,25.187 26.075 C 25.300 25.937,25.305 25.803,25.202 25.604 C 25.103 25.413,25.080 25.405,24.417 25.333 C 23.282 25.211,22.765 25.021,22.327 24.565 C 21.857 24.076,21.707 23.684,21.603 22.667 C 21.571 22.359,21.533 22.053,21.518 21.988 C 21.446 21.661,20.941 21.524,20.770 21.784 " fill="#1A1C1F" stroke="none" fill-rule="evenodd"></path></svg>