<svg width="14" height="14" viewBox="0 0 14 14" fill="none" xmlns="http://www.w3.org/2000/svg"><path d="M10.320 1.505 C 10.266 1.543,10.233 1.631,10.209 1.797 C 10.185 1.968,10.063 2.303,9.962 2.476 C 9.766 2.812,9.449 3.114,9.121 3.279 C 8.946 3.368,8.643 3.462,8.453 3.488 C 8.304 3.508,8.213 3.573,8.214 3.659 C 8.214 3.781,8.253 3.802,8.609 3.883 C 9.483 4.080,10.045 4.681,10.221 5.604 C 10.252 5.767,10.317 5.857,10.404 5.857 C 10.517 5.857,10.543 5.814,10.607 5.523 C 10.712 5.041,10.862 4.757,11.180 4.435 C 11.492 4.121,11.783 3.968,12.256 3.872 C 12.512 3.820,12.600 3.769,12.600 3.671 C 12.600 3.603,12.528 3.529,12.443 3.510 C 11.832 3.378,11.539 3.246,11.248 2.972 C 10.879 2.624,10.669 2.217,10.581 1.672 C 10.566 1.576,10.475 1.470,10.408 1.470 C 10.388 1.470,10.348 1.486,10.320 1.505 M5.374 4.318 C 5.251 4.379,5.224 4.438,5.146 4.818 C 4.991 5.571,4.701 6.164,4.213 6.725 C 3.626 7.399,2.904 7.812,1.933 8.028 C 1.540 8.115,1.489 8.138,1.438 8.245 C 1.357 8.415,1.421 8.604,1.587 8.684 C 1.632 8.706,1.800 8.750,1.961 8.783 C 2.123 8.815,2.349 8.873,2.465 8.911 C 3.285 9.178,4.048 9.770,4.562 10.536 C 4.855 10.971,5.044 11.446,5.158 12.028 C 5.222 12.359,5.253 12.423,5.376 12.482 C 5.492 12.538,5.551 12.542,5.653 12.498 C 5.778 12.446,5.809 12.387,5.884 12.071 C 6.051 11.365,6.225 10.930,6.520 10.491 C 6.888 9.942,7.312 9.551,7.898 9.221 C 8.293 8.998,8.655 8.873,9.293 8.738 C 9.505 8.694,9.600 8.626,9.640 8.492 C 9.661 8.421,9.661 8.379,9.640 8.308 C 9.594 8.155,9.522 8.115,9.134 8.029 C 8.199 7.820,7.567 7.479,6.963 6.855 C 6.419 6.293,6.098 5.674,5.905 4.812 C 5.821 4.435,5.800 4.391,5.682 4.324 C 5.566 4.258,5.499 4.257,5.374 4.318 M6.031 7.900 C 6.159 8.029,6.333 8.194,6.417 8.267 L 6.568 8.401 6.405 8.545 C 6.196 8.730,5.834 9.092,5.663 9.287 L 5.529 9.438 5.385 9.275 C 5.202 9.068,4.893 8.759,4.667 8.557 L 4.492 8.400 4.655 8.257 C 4.885 8.054,5.314 7.615,5.425 7.469 L 5.518 7.347 5.657 7.506 C 5.734 7.593,5.902 7.771,6.031 7.900 " fill="#1A1C1F" stroke="none" fill-rule="evenodd"></path></svg>