<svg width="12" height="12" viewBox="0 0 12 12" fill="none" xmlns="http://www.w3.org/2000/svg"><path d="M8.846 1.290 C 8.800 1.322,8.771 1.398,8.751 1.540 C 8.730 1.687,8.625 1.974,8.539 2.122 C 8.264 2.593,7.780 2.917,7.245 2.989 C 7.118 3.007,7.040 3.063,7.040 3.136 C 7.041 3.241,7.074 3.259,7.379 3.328 C 8.128 3.497,8.610 4.012,8.761 4.804 C 8.787 4.944,8.843 5.020,8.918 5.020 C 9.015 5.020,9.037 4.983,9.091 4.734 C 9.153 4.453,9.227 4.265,9.348 4.083 C 9.532 3.806,9.874 3.518,10.136 3.419 C 10.199 3.395,10.353 3.353,10.480 3.325 C 10.724 3.271,10.800 3.229,10.800 3.147 C 10.800 3.088,10.738 3.025,10.666 3.009 C 10.146 2.896,9.889 2.780,9.642 2.549 C 9.324 2.250,9.145 1.900,9.070 1.433 C 9.057 1.351,8.978 1.260,8.922 1.260 C 8.904 1.260,8.870 1.274,8.846 1.290 M4.607 3.701 C 4.501 3.754,4.478 3.804,4.411 4.130 C 4.309 4.624,4.153 5.009,3.903 5.383 C 3.363 6.189,2.640 6.666,1.620 6.890 C 1.482 6.920,1.346 6.957,1.318 6.971 C 1.202 7.031,1.168 7.239,1.255 7.358 C 1.311 7.436,1.404 7.472,1.681 7.528 C 2.452 7.683,3.077 8.043,3.614 8.643 C 4.026 9.103,4.274 9.609,4.411 10.270 C 4.479 10.602,4.501 10.647,4.613 10.702 C 4.756 10.770,4.912 10.724,4.976 10.593 C 4.990 10.564,5.029 10.421,5.062 10.275 C 5.240 9.483,5.534 8.940,6.053 8.440 C 6.295 8.206,6.467 8.077,6.740 7.922 C 7.129 7.703,7.369 7.618,7.970 7.489 C 8.103 7.461,8.141 7.444,8.194 7.387 C 8.270 7.307,8.293 7.210,8.261 7.112 C 8.220 6.989,8.156 6.955,7.832 6.883 C 7.457 6.800,7.224 6.724,6.960 6.598 C 6.342 6.303,5.795 5.791,5.452 5.185 C 5.260 4.847,5.171 4.596,5.033 4.013 C 4.979 3.783,4.949 3.731,4.846 3.687 C 4.757 3.650,4.704 3.653,4.607 3.701 M5.169 6.771 C 5.269 6.871,5.413 7.008,5.490 7.077 L 5.630 7.201 5.490 7.325 C 5.312 7.482,5.024 7.770,4.863 7.950 L 4.739 8.090 4.615 7.950 C 4.459 7.773,4.194 7.508,4.000 7.335 L 3.850 7.201 4.000 7.067 C 4.208 6.883,4.555 6.528,4.650 6.402 L 4.730 6.298 4.859 6.444 C 4.930 6.524,5.069 6.672,5.169 6.771 " fill="#1A1C1F" stroke="none" fill-rule="evenodd"></path></svg>