<svg width="14" height="14" viewBox="0 0 14 14" fill="none" xmlns="http://www.w3.org/2000/svg"><path d="M6.837 1.865 C 6.746 1.893,6.014 2.230,5.736 2.372 C 5.477 2.504,5.313 2.640,5.260 2.765 C 5.166 2.991,5.210 3.245,5.374 3.424 C 5.499 3.560,5.620 3.615,5.795 3.616 C 5.947 3.617,6.086 3.564,6.680 3.282 L 7.000 3.130 7.368 3.305 C 7.570 3.402,7.797 3.507,7.872 3.539 C 8.096 3.633,8.340 3.612,8.512 3.483 C 8.869 3.217,8.838 2.714,8.452 2.483 C 8.305 2.394,7.418 1.975,7.215 1.899 C 7.068 1.843,6.945 1.832,6.837 1.865 M9.864 3.323 C 9.548 3.436,9.374 3.793,9.485 4.106 C 9.558 4.314,9.627 4.368,10.126 4.613 L 10.590 4.840 10.598 5.482 C 10.608 6.188,10.612 6.208,10.752 6.354 C 10.935 6.544,11.176 6.601,11.416 6.511 C 11.566 6.454,11.667 6.365,11.743 6.221 C 11.794 6.127,11.795 6.110,11.795 5.192 C 11.795 4.325,11.792 4.252,11.751 4.177 C 11.654 3.994,11.590 3.953,10.831 3.594 C 10.199 3.295,10.056 3.255,9.864 3.323 M3.710 3.346 C 3.573 3.399,2.752 3.794,2.567 3.896 C 2.357 4.012,2.320 4.044,2.255 4.165 C 2.206 4.256,2.205 4.283,2.205 5.133 C 2.205 5.615,2.214 6.059,2.224 6.122 C 2.247 6.255,2.379 6.414,2.531 6.493 C 2.663 6.561,2.937 6.561,3.068 6.493 C 3.181 6.434,3.323 6.291,3.363 6.195 C 3.384 6.146,3.396 5.929,3.402 5.481 L 3.410 4.837 3.799 4.649 C 4.280 4.417,4.363 4.358,4.445 4.191 C 4.600 3.873,4.455 3.483,4.136 3.358 C 4.037 3.320,3.795 3.312,3.710 3.346 M5.250 5.222 C 5.138 5.280,5.100 5.363,4.693 6.428 C 4.141 7.872,3.962 8.377,3.978 8.441 C 4.006 8.554,4.269 8.601,4.456 8.526 C 4.576 8.478,4.618 8.417,4.720 8.143 C 4.766 8.021,4.810 7.903,4.819 7.881 C 4.834 7.843,4.886 7.840,5.460 7.840 L 6.085 7.840 6.161 8.033 C 6.308 8.402,6.358 8.483,6.463 8.525 C 6.569 8.568,6.778 8.575,6.870 8.540 C 6.904 8.528,6.942 8.492,6.956 8.461 C 6.988 8.392,6.978 8.359,6.586 7.292 C 6.104 5.977,5.879 5.406,5.812 5.320 C 5.776 5.275,5.711 5.226,5.668 5.210 C 5.546 5.168,5.343 5.173,5.250 5.222 M7.664 5.196 C 7.557 5.217,7.490 5.302,7.466 5.448 C 7.439 5.615,7.438 7.905,7.465 8.184 C 7.485 8.397,7.512 8.445,7.658 8.519 C 7.838 8.611,8.017 8.546,8.114 8.354 C 8.164 8.255,8.167 8.225,8.167 7.680 L 8.167 7.111 8.350 7.121 C 8.653 7.139,8.645 7.130,8.995 7.820 C 9.162 8.149,9.312 8.435,9.329 8.455 C 9.427 8.569,9.760 8.596,9.888 8.501 C 10.000 8.418,9.987 8.350,9.767 7.884 C 9.513 7.346,9.430 7.198,9.300 7.053 L 9.194 6.936 9.344 6.862 C 9.646 6.713,9.766 6.495,9.763 6.102 C 9.759 5.697,9.632 5.465,9.332 5.314 C 9.193 5.244,9.116 5.222,8.948 5.203 C 8.749 5.182,7.765 5.176,7.664 5.196 M8.907 5.770 C 9.022 5.832,9.053 5.916,9.053 6.160 C 9.053 6.561,8.997 6.608,8.499 6.622 L 8.167 6.632 8.167 6.172 L 8.167 5.712 8.499 5.721 C 8.759 5.727,8.848 5.738,8.907 5.770 M5.618 6.469 C 5.882 7.200,5.923 7.323,5.910 7.336 C 5.891 7.354,5.075 7.354,5.057 7.336 C 5.036 7.314,5.455 6.137,5.484 6.137 C 5.491 6.137,5.552 6.286,5.618 6.469 M2.567 7.490 C 2.437 7.551,2.322 7.659,2.255 7.782 C 2.206 7.873,2.205 7.897,2.205 8.762 C 2.206 9.399,2.214 9.675,2.235 9.745 C 2.285 9.914,2.419 10.008,3.040 10.313 C 3.695 10.634,3.861 10.697,3.999 10.674 C 4.220 10.637,4.453 10.450,4.503 10.268 C 4.537 10.146,4.532 9.963,4.490 9.841 C 4.432 9.669,4.304 9.572,3.831 9.343 L 3.410 9.138 3.402 8.507 C 3.395 8.068,3.384 7.854,3.363 7.805 C 3.249 7.534,2.829 7.368,2.567 7.490 M11.011 7.478 C 10.881 7.520,10.694 7.680,10.643 7.792 C 10.613 7.860,10.605 7.993,10.598 8.506 L 10.590 9.138 10.197 9.330 C 9.725 9.560,9.632 9.625,9.558 9.771 C 9.478 9.931,9.463 10.054,9.506 10.203 C 9.603 10.539,9.909 10.722,10.236 10.642 C 10.298 10.627,10.611 10.485,10.932 10.326 C 11.554 10.019,11.709 9.913,11.764 9.759 C 11.788 9.692,11.795 9.458,11.795 8.773 C 11.795 7.897,11.794 7.873,11.745 7.782 C 11.604 7.522,11.286 7.390,11.011 7.478 M5.608 10.398 C 5.478 10.444,5.312 10.593,5.251 10.719 C 5.191 10.843,5.182 11.009,5.226 11.164 C 5.284 11.370,5.381 11.440,6.070 11.779 C 6.734 12.106,6.859 12.157,7.000 12.157 C 7.143 12.157,7.271 12.105,7.926 11.782 C 8.572 11.464,8.669 11.397,8.752 11.214 C 8.851 10.997,8.783 10.688,8.602 10.529 C 8.453 10.399,8.391 10.378,8.181 10.387 C 7.996 10.396,7.980 10.401,7.496 10.633 L 7.001 10.870 6.540 10.652 C 5.910 10.355,5.807 10.327,5.608 10.398 " fill="#1A1C1F" stroke="none" fill-rule="evenodd"></path></svg>