<svg width="32" height="32" viewBox="0 0 32 32" fill="none" xmlns="http://www.w3.org/2000/svg"><path d="M15.200 3.959 C 14.255 4.399,12.788 5.167,12.646 5.297 C 12.443 5.483,12.306 5.840,12.347 6.079 C 12.436 6.610,12.943 7.037,13.396 6.965 C 13.515 6.946,13.879 6.809,14.206 6.661 C 14.533 6.512,14.839 6.379,14.886 6.364 C 14.962 6.341,14.975 6.425,14.997 7.049 C 15.015 7.584,15.045 7.810,15.117 7.961 C 15.303 8.351,15.740 8.530,16.247 8.425 C 16.475 8.378,16.567 8.325,16.710 8.157 C 16.956 7.869,17.013 7.636,17.013 6.913 L 17.013 6.292 17.427 6.498 C 18.180 6.874,18.554 7.001,18.835 6.974 C 19.313 6.928,19.703 6.490,19.703 6.000 C 19.703 5.444,19.472 5.267,17.474 4.289 C 16.013 3.574,16.024 3.576,15.200 3.959 M23.032 7.307 C 22.745 7.390,22.556 7.548,22.425 7.809 C 22.190 8.282,22.286 8.731,22.684 9.020 C 22.801 9.105,23.199 9.328,23.569 9.517 C 24.548 10.017,24.519 9.936,23.884 10.372 C 23.329 10.754,23.074 11.029,23.011 11.315 C 22.931 11.681,23.245 12.255,23.608 12.407 C 24.006 12.573,24.323 12.481,25.072 11.979 C 25.318 11.815,25.549 11.680,25.586 11.680 C 25.637 11.680,25.654 11.881,25.655 12.520 C 25.655 12.982,25.677 13.453,25.704 13.567 C 25.801 13.985,26.375 14.392,26.765 14.321 C 27.082 14.263,27.401 14.046,27.533 13.798 C 27.650 13.580,27.654 13.520,27.670 11.798 C 27.690 9.687,27.670 9.532,27.343 9.250 C 27.214 9.139,26.442 8.723,25.520 8.268 C 23.602 7.321,23.335 7.218,23.032 7.307 M6.800 8.102 C 5.920 8.540,5.051 8.988,4.869 9.097 C 4.330 9.422,4.347 9.341,4.347 11.662 L 4.347 13.644 4.507 13.871 C 4.707 14.155,4.991 14.306,5.326 14.306 C 5.650 14.306,5.852 14.201,6.127 13.888 L 6.347 13.638 6.347 12.689 C 6.347 12.072,6.367 11.727,6.404 11.704 C 6.435 11.685,6.659 11.801,6.901 11.962 C 7.546 12.391,7.777 12.498,8.062 12.499 C 8.594 12.502,9.074 11.902,8.984 11.349 C 8.933 11.036,8.699 10.774,8.116 10.372 C 7.481 9.936,7.452 10.017,8.431 9.517 C 8.801 9.328,9.200 9.104,9.319 9.018 C 9.736 8.715,9.815 8.132,9.497 7.693 C 9.306 7.429,9.048 7.307,8.685 7.307 C 8.425 7.307,8.261 7.376,6.800 8.102 M12.204 11.868 C 11.984 11.988,11.827 12.360,10.322 16.320 C 9.336 18.916,9.356 18.852,9.456 19.005 C 9.561 19.165,9.923 19.271,10.205 19.224 C 10.685 19.144,10.789 19.025,11.122 18.173 L 11.325 17.653 12.209 17.654 C 12.695 17.654,13.325 17.669,13.607 17.688 L 14.121 17.722 14.314 18.208 C 14.651 19.058,14.768 19.181,15.284 19.230 C 15.529 19.253,15.641 19.238,15.783 19.163 C 16.064 19.014,16.095 18.927,15.980 18.601 C 15.479 17.174,13.693 12.451,13.543 12.153 C 13.474 12.018,13.380 11.934,13.228 11.873 C 12.960 11.766,12.397 11.763,12.204 11.868 M17.616 11.826 C 17.448 11.841,17.358 11.885,17.261 12.000 C 17.143 12.141,17.128 12.218,17.095 12.864 C 17.075 13.254,17.066 14.713,17.076 16.107 C 17.093 18.533,17.098 18.648,17.201 18.827 C 17.342 19.071,17.744 19.278,17.988 19.232 C 18.265 19.181,18.537 18.922,18.607 18.645 C 18.642 18.503,18.667 17.924,18.667 17.224 L 18.667 16.042 19.126 16.061 C 19.582 16.080,19.587 16.082,19.758 16.280 C 19.853 16.390,20.197 17.017,20.523 17.673 C 21.177 18.992,21.262 19.099,21.735 19.205 C 22.000 19.264,22.057 19.260,22.282 19.167 C 22.441 19.101,22.559 19.011,22.602 18.920 C 22.665 18.788,22.646 18.723,22.369 18.122 C 21.845 16.983,21.431 16.206,21.192 15.913 L 20.960 15.628 21.229 15.492 C 21.596 15.306,21.890 15.028,22.036 14.730 C 22.143 14.510,22.158 14.400,22.158 13.813 C 22.159 13.042,22.087 12.819,21.706 12.405 C 21.391 12.064,21.005 11.895,20.407 11.837 C 19.938 11.791,18.077 11.784,17.616 11.826 M20.299 13.079 C 20.527 13.202,20.613 13.440,20.613 13.947 C 20.613 14.461,20.531 14.680,20.279 14.836 C 20.116 14.936,19.991 14.956,19.378 14.976 L 18.667 15.001 18.667 13.975 L 18.667 12.950 19.400 12.969 C 19.957 12.984,20.173 13.011,20.299 13.079 M12.800 13.884 C 12.800 13.893,13.004 14.472,13.253 15.170 C 13.502 15.868,13.692 16.460,13.676 16.486 C 13.644 16.538,11.877 16.552,11.825 16.501 C 11.808 16.483,11.945 16.033,12.131 15.501 C 12.625 14.088,12.710 13.867,12.757 13.867 C 12.781 13.867,12.800 13.874,12.800 13.884 M5.040 17.717 C 4.792 17.807,4.606 17.957,4.470 18.174 C 4.347 18.373,4.347 18.379,4.347 20.267 C 4.347 21.308,4.364 22.223,4.386 22.300 C 4.454 22.542,4.781 22.796,5.563 23.216 C 6.758 23.858,8.425 24.650,8.640 24.679 C 9.078 24.737,9.599 24.318,9.679 23.844 C 9.728 23.555,9.626 23.229,9.422 23.026 C 9.327 22.931,8.884 22.665,8.438 22.434 C 7.992 22.204,7.640 21.994,7.656 21.969 C 7.672 21.943,7.901 21.774,8.166 21.593 C 8.694 21.232,8.863 21.044,8.960 20.718 C 9.127 20.153,8.615 19.525,7.985 19.521 C 7.745 19.520,7.494 19.641,6.873 20.058 C 6.620 20.229,6.398 20.353,6.379 20.335 C 6.361 20.317,6.346 19.988,6.346 19.604 C 6.344 18.757,6.279 18.264,6.144 18.083 C 5.932 17.800,5.346 17.605,5.040 17.717 M26.123 17.860 C 25.726 18.115,25.691 18.226,25.667 19.307 C 25.656 19.820,25.637 20.270,25.625 20.307 C 25.611 20.350,25.400 20.240,25.038 20.001 C 24.410 19.588,24.151 19.493,23.792 19.547 C 23.329 19.616,22.922 20.201,23.010 20.669 C 23.064 20.954,23.318 21.240,23.830 21.590 C 24.097 21.773,24.328 21.943,24.343 21.967 C 24.358 21.991,24.005 22.200,23.560 22.432 C 23.110 22.666,22.664 22.938,22.557 23.045 C 22.165 23.433,22.169 24.007,22.566 24.385 C 22.842 24.648,23.129 24.733,23.458 24.651 C 23.756 24.576,26.665 23.131,27.120 22.832 C 27.674 22.467,27.653 22.566,27.653 20.347 C 27.653 18.440,27.652 18.425,27.530 18.212 C 27.348 17.893,27.092 17.741,26.700 17.718 C 26.410 17.701,26.345 17.717,26.123 17.860 M15.683 23.055 C 15.433 23.136,15.113 23.468,15.044 23.717 C 15.013 23.828,14.987 24.321,14.987 24.810 L 14.987 25.701 14.307 25.370 C 13.699 25.075,13.592 25.040,13.301 25.041 C 12.955 25.042,12.714 25.157,12.521 25.414 C 12.384 25.597,12.298 25.975,12.342 26.205 C 12.416 26.602,12.633 26.758,14.220 27.555 C 16.143 28.521,15.859 28.516,17.660 27.617 C 18.405 27.245,19.113 26.869,19.234 26.782 C 19.534 26.564,19.704 26.205,19.660 25.882 C 19.588 25.353,19.230 25.042,18.693 25.041 C 18.412 25.040,18.297 25.077,17.740 25.347 C 17.392 25.515,17.089 25.653,17.067 25.653 C 17.045 25.653,17.016 25.227,17.004 24.707 C 16.985 23.905,16.966 23.727,16.878 23.548 C 16.688 23.162,16.100 22.919,15.683 23.055 " fill="#1A1C1F" stroke="none" fill-rule="evenodd"></path></svg>