<svg xmlns="http://www.w3.org/2000/svg" width="32" height="32" fill="none"><path fill="#1A1C1F" fill-rule="evenodd" d="M14.188 4.454c-1.364.683-1.563.798-1.676.974-.172.265-.211.488-.137.768.083.313.288.569.552.689.359.163.53.132 1.323-.238l.729-.34.017.726c.02.845.09 1.05.435 1.278.178.118.274.142.569.142.446 0 .688-.145.881-.53.12-.24.132-.326.132-.943v-.679l.722.343c.773.367 1.025.417 1.374.271.228-.096.498-.41.568-.66.069-.248.069-.262.001-.507-.109-.39-.254-.491-1.877-1.3-1.354-.675-1.572-.768-1.803-.768s-.447.093-1.81.774M8.4 7.327c-.117.039-1.009.468-1.981.955-1.281.642-1.797.927-1.874 1.035-.216.304-.233.492-.215 2.443.016 1.769.022 1.876.126 2.053.38.647 1.266.678 1.704.058l.16-.227.017-1.008c.01-.555.029-1.009.043-1.009s.289.179.611.398c.625.425.898.534 1.198.478.57-.107.964-.811.746-1.334-.121-.288-.286-.447-.864-.828-.274-.181-.498-.344-.498-.363s.386-.225.856-.459c.471-.234.914-.486.984-.559a.97.97 0 0 0 .211-1.054c-.208-.498-.723-.741-1.224-.579m14.507.003c-.47.172-.742.803-.557 1.293.106.281.364.47 1.221.896.471.234.856.44.856.459s-.224.182-.498.363c-.573.377-.744.54-.86.817-.117.283-.103.463.064.79.197.386.491.55.931.52.274-.019.363-.06.919-.431.339-.226.628-.41.643-.41s.027.402.028.893c0 .491.026.989.059 1.107.076.275.405.59.7.671.458.125.999-.151 1.171-.597.078-.203.091-.476.093-2.053.002-1.24-.017-1.876-.058-2-.14-.411-.192-.445-2.147-1.414-1.995-.989-2.166-1.05-2.565-.904m-10.791 4.603c-.153.13-.319.527-1.429 3.427-.69 1.804-1.268 3.344-1.284 3.423-.065.324.399.538.916.422.413-.092.491-.2.853-1.166l.145-.387 1.391.014 1.391.014.202.507c.357.894.43.975.93 1.042.486.064.822-.098.822-.397 0-.129-2.43-6.595-2.535-6.744-.16-.228-.352-.301-.8-.301-.39 0-.444.013-.602.146m5.284-.076a.8.8 0 0 0-.214.198c-.085.121-.094.388-.109 3.252-.012 2.234.001 3.18.045 3.333.08.279.289.495.547.564a.7.7 0 0 0 .686-.153c.291-.244.312-.362.312-1.743v-1.255l.413.001c.666 0 .651-.016 1.425 1.57.619 1.269.675 1.364.865 1.46.282.143.605.187.861.118.264-.071.455-.29.41-.47-.017-.069-.304-.686-.636-1.37-.488-1.003-.653-1.293-.852-1.492-.206-.206-.231-.252-.153-.278.488-.164.867-.479 1.047-.868.096-.207.113-.344.113-.911 0-.608-.012-.693-.14-.964-.243-.519-.626-.819-1.256-.983-.407-.105-3.177-.113-3.364-.009m2.867 1.196c.272.136.373.379.373.894 0 .507-.098.745-.372.903-.155.089-.307.111-.894.128l-.707.021V12.96h.706c.566 0 .744.019.894.093m-7.005 2.138c.244.684.445 1.266.445 1.293 0 .028-.407.049-.96.049-.528 0-.96-.018-.96-.04 0-.049.83-2.387.914-2.573.044-.099.067-.113.088-.053zM5.2 17.678a2 2 0 0 1-.196.051c-.207.045-.471.288-.584.535-.088.196-.098.384-.099 2.003 0 1.105.021 1.864.057 1.991.108.391.293.515 2.182 1.47.983.497 1.879.92 1.992.941.727.135 1.36-.662 1.072-1.35-.135-.323-.277-.43-1.157-.872-.462-.231-.84-.439-.839-.461 0-.021.216-.181.481-.354.264-.173.55-.394.637-.492.562-.641.101-1.62-.762-1.62-.279 0-.329.023-.941.427-.355.234-.655.426-.668.426-.012 0-.029-.438-.038-.973-.019-1.116-.069-1.289-.444-1.542-.194-.131-.562-.226-.693-.18m21.214.026c-.228.056-.525.287-.641.499-.077.141-.096.342-.11 1.17-.01.55-.028 1-.041 1-.012 0-.3-.184-.639-.41-.561-.374-.643-.412-.93-.433q-.662-.046-.937.542c-.153.328-.16.522-.03.808.115.254.318.44.874.8.227.147.412.285.413.306 0 .022-.379.23-.844.463-.584.292-.895.481-1.011.613-.459.522-.276 1.277.374 1.549.426.177.497.153 2.502-.861 1.982-1.002 2.121-1.096 2.232-1.509.038-.139.053-.844.043-2.014-.015-1.706-.022-1.812-.127-2.014a1.04 1.04 0 0 0-1.128-.509M15.867 23.01c-.03.012-.118.035-.196.052-.207.045-.471.288-.584.536-.083.183-.098.359-.099 1.161l-.001.945-.7-.345c-.589-.291-.745-.346-.977-.346-.879 0-1.323 1.091-.686 1.687.082.077.817.473 1.633.88 1.297.647 1.516.74 1.743.74s.446-.093 1.743-.741c.868-.433 1.543-.804 1.628-.893.293-.312.378-.711.227-1.072-.161-.387-.49-.601-.922-.601-.215 0-.388.062-.958.344l-.696.343-.018-.997c-.02-1.129-.053-1.241-.447-1.514-.192-.134-.559-.228-.69-.179"/></svg>