<svg xmlns="http://www.w3.org/2000/svg" width="12" height="12" fill="none"><g clip-path="url(#a)"><path fill="#1A1C1F" fill-rule="evenodd" d="M5.203 8.932 6 9.317l.796-.385a.52.52 0 0 1 .701.244.53.53 0 0 1-.24.701l-1.029.496a.53.53 0 0 1-.456 0l-1.026-.496a.525.525 0 1 1 .456-.945M2.4 6.375c.268 0 .525.218.525.525v.93l.672.325c.276.132.36.46.244.702a.523.523 0 0 1-.701.244l-.968-.468a.53.53 0 0 1-.297-.473V6.9c0-.29.235-.525.525-.525m7.2 0a.52.52 0 0 1 .52.525l.005 1.26a.53.53 0 0 1-.239.44l-1.009.492a.525.525 0 0 1-.7-.244.53.53 0 0 1 .244-.7l.653-.317.001-.93c0-.312.257-.526.525-.526M7.462 4.436q.916 0 .916.806 0 .33-.162.506a.8.8 0 0 1-.359.198.64.64 0 0 1 .264.296q.277.577.417.862c.055.112-.037.242-.246.242-.103 0-.285-.032-.352-.166l-.386-.808a.6.6 0 0 0-.153-.223q-.064-.05-.208-.05h-.195v.942a.304.304 0 1 1-.61 0V4.68c0-.134.11-.243.243-.243zm-2.714 0c.128 0 .243.074.29.2l.927 2.455c.051.138.027.255-.218.255-.218 0-.3-.055-.354-.191l-.173-.428H4.14l-.145.391c-.06.165-.145.228-.363.228s-.27-.109-.218-.246l.944-2.464c.041-.107.136-.2.254-.2zm-.048.778-.386 1.08h.772zm2.698-.32q.286 0 .349.163a.7.7 0 0 1 .03.243q0 .204-.074.285-.09.1-.31.1h-.397v-.791zm-3.575-1.76c.115.242.018.58-.249.7l-.649.307v.96a.526.526 0 0 1-1.05 0V3.81c0-.181.092-.347.241-.443l1.008-.483a.525.525 0 0 1 .699.25M8.82 2.86l1.006.476a.53.53 0 0 1 .296.407l.004 1.357a.525.525 0 0 1-1.046.066l-.005-1.025-.678-.322a.516.516 0 0 1-.253-.685c.13-.274.406-.384.676-.274M6.152 1.598l1.063.498a.525.525 0 0 1-.39.973L6 2.681l-.786.374a.513.513 0 0 1-.688-.22.54.54 0 0 1 .247-.739l1.003-.47a.53.53 0 0 1 .377-.028" clip-rule="evenodd"/></g><defs><clipPath id="a"><path fill="#fff" d="M0 0h12v12H0z"/></clipPath></defs></svg>