<svg width="20" height="20" viewBox="0 0 20 20" fill="none" xmlns="http://www.w3.org/2000/svg"><path d="M9.767 2.663 C 9.628 2.708,8.574 3.195,8.194 3.389 C 7.825 3.577,7.590 3.771,7.515 3.950 C 7.380 4.272,7.442 4.636,7.677 4.891 C 7.855 5.085,8.029 5.165,8.277 5.166 C 8.497 5.167,8.701 5.090,9.508 4.706 L 10.000 4.471 10.522 4.721 C 10.810 4.858,11.134 5.008,11.244 5.054 C 11.595 5.202,11.957 5.155,12.216 4.927 C 12.605 4.584,12.616 3.993,12.239 3.662 C 12.117 3.554,11.150 3.069,10.517 2.798 C 10.178 2.652,9.933 2.608,9.767 2.663 M14.092 4.748 C 13.501 4.958,13.307 5.723,13.733 6.162 C 13.825 6.257,14.037 6.380,14.494 6.604 L 15.128 6.915 15.141 7.832 C 15.149 8.470,15.166 8.780,15.195 8.850 C 15.307 9.117,15.696 9.367,16.000 9.367 C 16.306 9.367,16.626 9.168,16.778 8.885 C 16.848 8.753,16.850 8.721,16.850 7.417 C 16.850 6.179,16.846 6.075,16.788 5.967 C 16.648 5.705,16.553 5.645,15.468 5.133 C 14.559 4.704,14.366 4.650,14.092 4.748 M5.333 4.763 C 5.196 4.810,3.936 5.416,3.668 5.565 C 3.367 5.731,3.314 5.777,3.221 5.950 C 3.152 6.080,3.150 6.119,3.150 7.333 C 3.150 8.021,3.162 8.656,3.178 8.745 C 3.198 8.867,3.239 8.944,3.343 9.056 C 3.547 9.278,3.699 9.345,4.000 9.343 C 4.303 9.342,4.387 9.311,4.588 9.126 C 4.843 8.891,4.847 8.874,4.860 7.830 L 4.872 6.910 5.428 6.642 C 6.123 6.306,6.247 6.217,6.356 5.979 C 6.567 5.520,6.359 4.973,5.909 4.798 C 5.795 4.753,5.427 4.732,5.333 4.763 M7.567 7.424 C 7.420 7.479,7.332 7.584,7.232 7.825 C 7.085 8.176,6.161 10.604,5.885 11.363 C 5.734 11.778,5.668 12.003,5.682 12.057 C 5.721 12.212,6.092 12.284,6.366 12.190 C 6.514 12.139,6.602 12.005,6.758 11.595 L 6.883 11.267 7.804 11.267 L 8.724 11.267 8.784 11.425 C 8.817 11.512,8.899 11.705,8.967 11.853 C 9.079 12.097,9.104 12.128,9.229 12.178 C 9.383 12.239,9.682 12.251,9.815 12.201 C 9.862 12.183,9.917 12.132,9.938 12.087 C 9.983 11.988,9.968 11.941,9.409 10.417 C 8.720 8.539,8.399 7.723,8.302 7.600 C 8.252 7.536,8.159 7.465,8.097 7.444 C 7.980 7.403,7.655 7.391,7.567 7.424 M10.949 7.423 C 10.911 7.430,10.840 7.469,10.789 7.510 C 10.638 7.631,10.626 7.829,10.639 9.961 C 10.648 11.427,10.660 11.901,10.692 11.957 C 10.769 12.091,10.960 12.209,11.126 12.225 C 11.327 12.243,11.486 12.144,11.592 11.934 C 11.663 11.792,11.667 11.750,11.667 10.972 L 11.667 10.158 11.929 10.173 C 12.362 10.198,12.348 10.183,12.867 11.201 C 13.307 12.064,13.320 12.085,13.467 12.160 C 13.659 12.259,13.981 12.252,14.125 12.145 C 14.286 12.025,14.268 11.931,13.953 11.262 C 13.591 10.495,13.471 10.283,13.285 10.076 L 13.135 9.908 13.349 9.803 C 13.829 9.567,14.050 9.059,13.937 8.450 C 13.824 7.840,13.450 7.511,12.783 7.435 C 12.501 7.403,11.097 7.393,10.949 7.423 M12.724 8.243 C 12.889 8.332,12.933 8.451,12.933 8.799 C 12.933 9.373,12.853 9.440,12.142 9.461 L 11.667 9.474 11.667 8.817 L 11.667 8.160 12.142 8.173 C 12.514 8.182,12.640 8.197,12.724 8.243 M8.025 9.242 C 8.403 10.286,8.461 10.461,8.442 10.480 C 8.416 10.506,7.250 10.506,7.224 10.480 C 7.194 10.449,7.793 8.767,7.834 8.767 C 7.845 8.767,7.931 8.980,8.025 9.242 M3.766 10.662 C 3.531 10.740,3.331 10.909,3.212 11.133 C 3.155 11.241,3.150 11.345,3.151 12.517 C 3.151 13.423,3.163 13.822,3.193 13.921 C 3.265 14.163,3.455 14.297,4.342 14.733 C 5.278 15.192,5.515 15.281,5.713 15.248 C 6.029 15.195,6.361 14.928,6.433 14.669 C 6.482 14.494,6.474 14.233,6.414 14.058 C 6.331 13.813,6.148 13.675,5.473 13.347 L 4.872 13.055 4.859 12.152 C 4.846 11.175,4.838 11.129,4.656 10.939 C 4.441 10.713,4.015 10.581,3.766 10.662 M15.730 10.683 C 15.544 10.743,15.277 10.971,15.205 11.132 C 15.162 11.228,15.149 11.418,15.140 12.151 L 15.128 13.053 14.539 13.343 C 14.215 13.502,13.895 13.677,13.829 13.732 C 13.597 13.923,13.493 14.277,13.580 14.576 C 13.728 15.084,14.190 15.337,14.685 15.181 C 15.022 15.075,16.458 14.343,16.618 14.195 C 16.849 13.982,16.850 13.977,16.850 12.533 C 16.850 11.282,16.848 11.247,16.778 11.117 C 16.578 10.746,16.123 10.557,15.730 10.683 M8.011 14.855 C 7.934 14.882,7.804 14.963,7.722 15.036 C 7.451 15.275,7.362 15.590,7.465 15.949 C 7.550 16.245,7.691 16.347,8.674 16.829 C 9.622 17.295,9.800 17.367,10.000 17.367 C 10.205 17.367,10.388 17.293,11.323 16.832 C 12.246 16.377,12.384 16.282,12.503 16.020 C 12.644 15.711,12.547 15.269,12.288 15.042 C 12.076 14.855,11.987 14.826,11.687 14.839 C 11.423 14.851,11.401 14.859,10.709 15.190 L 10.002 15.528 9.342 15.217 C 8.444 14.794,8.296 14.753,8.011 14.855 " fill="#1A1C1F" stroke="none" fill-rule="evenodd"></path></svg>