<svg width="28" height="28" viewBox="0 0 28 28" fill="none" xmlns="http://www.w3.org/2000/svg"><path d="M13.300 3.464 C 12.473 3.849,11.189 4.521,11.065 4.635 C 10.887 4.798,10.768 5.110,10.803 5.320 C 10.882 5.783,11.325 6.157,11.721 6.094 C 11.825 6.078,12.144 5.958,12.430 5.828 C 12.716 5.698,12.984 5.582,13.025 5.569 C 13.092 5.549,13.104 5.622,13.122 6.168 C 13.138 6.636,13.164 6.833,13.228 6.966 C 13.390 7.307,13.773 7.464,14.216 7.372 C 14.415 7.331,14.496 7.284,14.622 7.137 C 14.837 6.886,14.887 6.681,14.887 6.049 L 14.887 5.506 15.248 5.686 C 15.911 6.017,16.234 6.126,16.484 6.102 C 17.058 6.047,17.433 5.326,17.138 4.848 C 17.010 4.641,16.562 4.375,15.290 3.753 C 14.012 3.127,14.021 3.129,13.300 3.464 M20.153 6.393 C 19.902 6.467,19.736 6.604,19.622 6.833 C 19.416 7.247,19.500 7.640,19.849 7.892 C 19.951 7.967,20.299 8.162,20.622 8.327 C 21.480 8.765,21.454 8.694,20.899 9.076 C 20.413 9.410,20.190 9.651,20.135 9.901 C 20.065 10.220,20.339 10.723,20.657 10.856 C 21.005 11.001,21.283 10.920,21.938 10.482 C 22.153 10.338,22.356 10.220,22.388 10.220 C 22.433 10.220,22.447 10.396,22.448 10.955 C 22.448 11.359,22.468 11.771,22.491 11.871 C 22.576 12.237,23.078 12.593,23.420 12.531 C 23.697 12.480,23.976 12.290,24.092 12.073 C 24.193 11.883,24.197 11.830,24.212 10.325 C 24.230 8.479,24.212 8.341,23.925 8.094 C 23.813 7.996,23.137 7.632,22.330 7.234 C 20.652 6.406,20.418 6.316,20.153 6.393 M5.950 7.089 C 5.180 7.472,4.420 7.864,4.260 7.960 C 3.789 8.244,3.803 8.173,3.803 10.204 L 3.803 11.939 3.943 12.137 C 4.119 12.385,4.368 12.517,4.660 12.517 C 4.944 12.517,5.120 12.426,5.361 12.152 L 5.553 11.934 5.553 11.103 C 5.553 10.569,5.571 10.261,5.603 10.242 C 5.630 10.225,5.845 10.338,6.081 10.494 C 6.658 10.873,6.916 10.984,7.133 10.944 C 7.579 10.863,7.933 10.371,7.861 9.930 C 7.816 9.657,7.612 9.427,7.103 9.076 C 6.843 8.897,6.647 8.734,6.667 8.714 C 6.688 8.694,7.028 8.508,7.424 8.302 C 7.820 8.096,8.190 7.883,8.247 7.830 C 8.525 7.570,8.554 7.069,8.310 6.732 C 8.142 6.501,7.917 6.393,7.600 6.393 C 7.372 6.393,7.228 6.454,5.950 7.089 M10.685 10.393 C 10.622 10.437,10.545 10.505,10.514 10.545 C 10.438 10.642,9.857 12.105,9.040 14.257 C 8.160 16.573,8.186 16.494,8.279 16.636 C 8.418 16.849,8.917 16.895,9.247 16.726 C 9.408 16.643,9.515 16.459,9.729 15.902 L 9.903 15.447 10.680 15.447 C 11.107 15.447,11.659 15.461,11.906 15.477 L 12.356 15.507 12.525 15.932 C 12.837 16.719,12.943 16.819,13.466 16.821 C 13.763 16.823,13.821 16.809,13.926 16.710 C 13.992 16.648,14.047 16.562,14.047 16.519 C 14.047 16.427,13.496 14.913,12.672 12.740 C 11.803 10.446,11.830 10.506,11.602 10.402 C 11.348 10.287,10.846 10.282,10.685 10.393 M15.414 10.347 C 15.267 10.361,15.188 10.400,15.104 10.500 C 15.000 10.623,14.987 10.691,14.958 11.256 C 14.940 11.597,14.933 12.874,14.941 14.093 C 14.956 16.216,14.961 16.317,15.051 16.473 C 15.182 16.701,15.516 16.864,15.757 16.819 C 15.984 16.777,16.214 16.552,16.282 16.308 C 16.312 16.199,16.333 15.693,16.333 15.080 L 16.333 14.037 16.735 14.054 C 17.134 14.070,17.139 14.072,17.289 14.245 C 17.372 14.341,17.673 14.890,17.957 15.464 C 18.530 16.618,18.604 16.712,19.018 16.804 C 19.250 16.856,19.300 16.853,19.497 16.771 C 19.636 16.714,19.739 16.634,19.777 16.555 C 19.832 16.440,19.816 16.383,19.573 15.856 C 19.114 14.860,18.752 14.180,18.543 13.923 L 18.340 13.675 18.575 13.556 C 18.896 13.393,19.154 13.150,19.282 12.889 C 19.376 12.696,19.389 12.602,19.388 12.087 C 19.386 11.414,19.322 11.212,18.999 10.862 C 18.730 10.570,18.375 10.410,17.881 10.358 C 17.495 10.317,15.827 10.310,15.414 10.347 M17.762 11.444 C 17.961 11.552,18.037 11.760,18.037 12.203 C 18.037 12.653,17.965 12.845,17.744 12.981 C 17.602 13.069,17.492 13.086,16.956 13.104 L 16.333 13.126 16.333 12.228 L 16.333 11.331 16.975 11.348 C 17.462 11.361,17.652 11.384,17.762 11.444 M11.200 12.148 C 11.200 12.156,11.378 12.663,11.596 13.274 C 11.814 13.884,11.981 14.403,11.967 14.425 C 11.938 14.471,10.392 14.483,10.347 14.438 C 10.332 14.423,10.452 14.029,10.615 13.563 C 11.047 12.327,11.121 12.133,11.163 12.133 C 11.183 12.133,11.200 12.140,11.200 12.148 M4.435 15.501 C 4.211 15.566,4.039 15.698,3.912 15.903 C 3.804 16.076,3.803 16.082,3.803 17.733 C 3.803 18.645,3.819 19.445,3.838 19.512 C 3.897 19.724,4.183 19.946,4.868 20.314 C 5.913 20.876,7.371 21.569,7.560 21.594 C 8.099 21.666,8.599 21.042,8.448 20.488 C 8.366 20.190,8.189 20.047,7.382 19.630 C 6.993 19.428,6.686 19.244,6.700 19.221 C 6.715 19.198,6.884 19.072,7.078 18.942 C 7.557 18.618,7.764 18.401,7.835 18.146 C 8.028 17.457,7.260 16.850,6.613 17.180 C 6.505 17.235,6.235 17.402,6.014 17.551 C 5.792 17.700,5.598 17.809,5.582 17.793 C 5.566 17.777,5.553 17.490,5.553 17.154 C 5.553 16.439,5.491 15.983,5.372 15.820 C 5.276 15.689,4.948 15.512,4.737 15.477 C 4.660 15.464,4.524 15.475,4.435 15.501 M22.855 15.631 C 22.515 15.846,22.480 15.953,22.460 16.847 C 22.450 17.270,22.432 17.663,22.420 17.720 C 22.400 17.818,22.369 17.805,21.906 17.500 C 21.359 17.139,21.132 17.057,20.818 17.104 C 20.413 17.164,20.057 17.675,20.134 18.085 C 20.181 18.334,20.403 18.585,20.851 18.891 C 21.085 19.051,21.287 19.200,21.300 19.221 C 21.313 19.242,21.005 19.425,20.615 19.628 C 20.221 19.833,19.831 20.071,19.737 20.164 C 19.395 20.504,19.398 21.006,19.745 21.336 C 19.987 21.567,20.238 21.642,20.526 21.569 C 20.786 21.504,23.332 20.240,23.730 19.978 C 24.214 19.660,24.197 19.739,24.197 17.850 C 24.197 16.952,24.181 16.159,24.161 16.089 C 24.112 15.913,23.855 15.632,23.674 15.556 C 23.413 15.447,23.100 15.476,22.855 15.631 M13.722 20.173 C 13.504 20.244,13.224 20.535,13.163 20.752 C 13.136 20.850,13.114 21.281,13.114 21.709 L 13.113 22.488 12.518 22.199 C 11.986 21.941,11.893 21.910,11.639 21.911 C 11.336 21.912,11.125 22.013,10.956 22.237 C 10.834 22.401,10.761 22.728,10.800 22.938 C 10.862 23.269,11.105 23.441,12.482 24.131 C 14.121 24.952,13.881 24.950,15.453 24.165 C 16.104 23.839,16.724 23.510,16.829 23.434 C 17.092 23.243,17.241 22.930,17.203 22.647 C 17.139 22.184,16.826 21.912,16.357 21.911 C 16.108 21.910,16.010 21.942,15.487 22.196 L 14.898 22.483 14.879 21.636 C 14.862 20.916,14.846 20.762,14.768 20.604 C 14.602 20.266,14.088 20.054,13.722 20.173 " fill="#1A1C1F" stroke="none" fill-rule="evenodd"></path></svg>