<svg width="12" height="12" viewBox="0 0 12 12" fill="none" xmlns="http://www.w3.org/2000/svg"><path d="M5.860 1.599 C 5.783 1.623,5.155 1.911,4.916 2.033 C 4.695 2.146,4.554 2.262,4.509 2.370 C 4.428 2.563,4.465 2.781,4.606 2.935 C 4.713 3.051,4.817 3.099,4.966 3.100 C 5.098 3.100,5.221 3.054,5.705 2.823 L 6.000 2.683 6.313 2.833 C 6.486 2.915,6.681 3.005,6.746 3.033 C 6.939 3.114,7.149 3.096,7.296 2.985 C 7.602 2.757,7.576 2.327,7.245 2.128 C 7.119 2.052,6.358 1.693,6.185 1.627 C 6.058 1.580,5.953 1.570,5.860 1.599 M8.455 2.849 C 8.094 2.977,7.985 3.443,8.253 3.711 C 8.292 3.750,8.470 3.851,8.697 3.962 L 9.077 4.148 9.084 4.699 C 9.090 5.082,9.100 5.268,9.117 5.310 C 9.184 5.470,9.418 5.620,9.600 5.620 C 9.786 5.620,9.999 5.486,10.076 5.320 C 10.125 5.216,10.138 3.811,10.091 3.650 C 10.032 3.446,9.981 3.410,9.281 3.080 C 8.735 2.822,8.619 2.790,8.455 2.849 M3.180 2.868 C 3.141 2.883,2.930 2.980,2.710 3.085 C 2.013 3.417,1.939 3.472,1.898 3.690 C 1.869 3.848,1.885 5.201,1.917 5.299 C 1.945 5.384,2.064 5.510,2.170 5.565 C 2.231 5.597,2.286 5.607,2.400 5.606 C 2.582 5.605,2.632 5.586,2.753 5.476 C 2.906 5.335,2.908 5.325,2.916 4.698 L 2.923 4.146 3.257 3.985 C 3.674 3.784,3.748 3.730,3.814 3.587 C 3.940 3.312,3.816 2.984,3.545 2.879 C 3.460 2.845,3.253 2.839,3.180 2.868 M4.503 4.474 C 4.467 4.492,4.422 4.528,4.405 4.555 C 4.369 4.610,4.160 5.141,3.817 6.050 C 3.462 6.989,3.396 7.182,3.410 7.236 C 3.434 7.332,3.660 7.372,3.820 7.308 C 3.924 7.266,3.956 7.217,4.060 6.945 L 4.146 6.720 4.681 6.720 L 5.216 6.720 5.281 6.885 C 5.407 7.202,5.449 7.271,5.539 7.307 C 5.630 7.344,5.810 7.350,5.889 7.320 C 5.917 7.310,5.950 7.279,5.963 7.252 C 5.990 7.193,5.981 7.165,5.645 6.250 C 5.232 5.123,5.040 4.634,4.981 4.560 C 4.951 4.521,4.896 4.479,4.858 4.466 C 4.759 4.432,4.581 4.435,4.503 4.474 M6.569 4.454 C 6.547 4.458,6.504 4.482,6.474 4.506 C 6.383 4.579,6.376 4.698,6.383 5.976 C 6.389 6.856,6.396 7.140,6.415 7.174 C 6.461 7.255,6.576 7.325,6.676 7.335 C 6.796 7.346,6.891 7.287,6.955 7.161 C 6.998 7.075,7.000 7.050,7.000 6.583 L 7.000 6.095 7.157 6.104 C 7.417 6.119,7.409 6.110,7.720 6.720 C 7.984 7.239,7.992 7.251,8.080 7.296 C 8.195 7.356,8.389 7.351,8.475 7.287 C 8.572 7.215,8.561 7.158,8.372 6.757 C 8.154 6.297,8.083 6.170,7.971 6.045 L 7.881 5.945 8.009 5.882 C 8.268 5.754,8.370 5.568,8.368 5.230 C 8.366 4.884,8.256 4.684,7.999 4.555 C 7.880 4.495,7.814 4.476,7.670 4.460 C 7.499 4.441,6.656 4.436,6.569 4.454 M7.635 4.946 C 7.733 4.999,7.760 5.071,7.760 5.280 C 7.760 5.624,7.712 5.664,7.285 5.676 L 7.000 5.684 7.000 5.290 L 7.000 4.896 7.285 4.904 C 7.508 4.909,7.584 4.918,7.635 4.946 M4.815 5.545 C 5.042 6.172,5.077 6.276,5.065 6.288 C 5.050 6.304,4.350 6.304,4.334 6.288 C 4.316 6.270,4.676 5.260,4.700 5.260 C 4.707 5.260,4.759 5.388,4.815 5.545 M2.260 6.397 C 2.118 6.444,1.999 6.545,1.927 6.680 C 1.893 6.745,1.890 6.807,1.890 7.510 C 1.891 8.056,1.898 8.293,1.915 8.353 C 1.959 8.498,2.073 8.578,2.605 8.840 C 3.313 9.187,3.383 9.204,3.607 9.084 C 3.845 8.956,3.940 8.702,3.849 8.435 C 3.798 8.288,3.689 8.205,3.284 8.008 L 2.923 7.833 2.916 7.291 C 2.907 6.705,2.903 6.677,2.794 6.563 C 2.664 6.428,2.409 6.349,2.260 6.397 M9.438 6.411 C 9.327 6.445,9.166 6.582,9.123 6.679 C 9.097 6.737,9.090 6.851,9.084 7.291 L 9.077 7.832 8.723 8.006 C 8.529 8.101,8.337 8.206,8.297 8.239 C 8.158 8.354,8.096 8.566,8.148 8.746 C 8.237 9.051,8.514 9.202,8.812 9.109 C 9.018 9.044,9.910 8.588,9.988 8.508 C 10.108 8.384,10.110 8.369,10.110 7.520 C 10.110 6.646,10.114 6.668,9.945 6.519 C 9.800 6.392,9.623 6.354,9.438 6.411 M4.806 8.913 C 4.761 8.929,4.683 8.978,4.633 9.021 C 4.470 9.165,4.417 9.354,4.479 9.569 C 4.529 9.744,4.614 9.807,5.183 10.087 C 5.462 10.224,5.738 10.356,5.796 10.378 C 5.922 10.428,6.044 10.431,6.174 10.389 C 6.318 10.341,7.304 9.851,7.375 9.791 C 7.593 9.607,7.592 9.218,7.373 9.025 C 7.245 8.913,7.192 8.895,7.012 8.903 C 6.854 8.911,6.840 8.915,6.425 9.114 L 6.001 9.317 5.605 9.130 C 5.066 8.876,4.978 8.852,4.806 8.913 " fill="#1A1C1F" stroke="none" fill-rule="evenodd"></path></svg>