<svg xmlns="http://www.w3.org/2000/svg" width="16" height="16" fill="none"><g clip-path="url(#a)"><path fill="#1A1C1F" fill-rule="evenodd" d="M6.937 11.909 8 12.423l1.062-.513c.39-.183.78.004.935.325a.71.71 0 0 1-.32.934l-1.372.662a.7.7 0 0 1-.61 0l-1.368-.662a.7.7 0 0 1-.325-.935.706.706 0 0 1 .935-.325M3.2 8.5c.357 0 .7.29.7.7v1.241l.895.433c.369.175.481.613.326.935a.697.697 0 0 1-.935.325l-1.29-.623a.7.7 0 0 1-.396-.63V9.2a.7.7 0 0 1 .7-.7m9.6 0c.357 0 .7.285.694.7l.006 1.68a.7.7 0 0 1-.318.587l-1.345.656a.7.7 0 0 1-.935-.325.71.71 0 0 1 .325-.935l.872-.422.001-1.24a.7.7 0 0 1 .7-.7M9.95 5.915q1.221 0 1.221 1.074 0 .44-.216.675-.16.17-.479.264.211.113.352.395.37.768.557 1.15c.072.148-.05.321-.328.321-.139 0-.38-.041-.47-.22l-.515-1.079q-.105-.219-.203-.297-.087-.067-.278-.067h-.26v1.258a.406.406 0 0 1-.812 0v-3.15c0-.179.144-.324.323-.324zm-3.619 0c.17 0 .324.098.388.267l1.234 3.273c.069.183.036.34-.29.34-.291 0-.4-.074-.472-.255l-.23-.57H5.52l-.194.521c-.082.22-.194.303-.484.303s-.36-.144-.29-.327L5.81 6.182c.055-.143.181-.267.339-.267zm-.064 1.036-.515 1.44h1.029zm3.596-.426q.382 0 .466.217.04.103.04.325 0 .272-.099.38-.12.132-.412.132h-.53V6.525zM5.097 4.179c.154.322.024.773-.332.933l-.865.41V6.8c0 .414-.343.7-.7.7a.705.705 0 0 1-.7-.7V5.08a.7.7 0 0 1 .322-.589l1.343-.644a.7.7 0 0 1 .932.332m6.661-.366 1.342.635a.7.7 0 0 1 .394.543l.006 1.81a.7.7 0 0 1-1.395.087L12.1 5.522l-.904-.43a.69.69 0 0 1-.338-.913c.173-.366.542-.513.901-.366M8.203 2.13l1.417.665a.7.7 0 0 1-.519 1.297L8 3.575l-1.048.499a.684.684 0 0 1-.918-.295.72.72 0 0 1 .33-.984L7.7 2.168a.7.7 0 0 1 .503-.038" clip-rule="evenodd"/></g><defs><clipPath id="a"><path fill="#fff" d="M0 0h16v16H0z"/></clipPath></defs></svg>