<svg xmlns="http://www.w3.org/2000/svg" width="20" height="20" fill="none"><g clip-path="url(#a)"><path fill="#1A1C1F" fill-rule="evenodd" d="m8.67 14.886 1.33.642 1.327-.641a.87.87 0 0 1 1.169.407c.194.402.057.917-.4 1.168l-1.715.826a.88.88 0 0 1-.762 0l-1.71-.826a.875.875 0 0 1-.407-1.169.88.88 0 0 1 1.169-.407M4 10.626a.88.88 0 0 1 .875.874v1.551l1.12.541a.88.88 0 0 1 .406 1.169.87.87 0 0 1-1.168.407l-1.614-.78a.88.88 0 0 1-.494-.788v-2.1c0-.483.392-.875.875-.875m12 0c.446 0 .875.356.868.874l.007 2.1a.88.88 0 0 1-.398.734l-1.681.82a.875.875 0 0 1-1.169-.407.886.886 0 0 1 .407-1.168l1.09-.528.001-1.55c0-.52.429-.876.875-.876m-3.563-3.232q1.527 0 1.527 1.343 0 .549-.27.843-.2.211-.598.33.264.141.438.494.465.96.697 1.437c.09.186-.062.402-.41.402-.173 0-.476-.052-.588-.276l-.643-1.348q-.13-.275-.254-.371-.108-.084-.347-.084h-.326v1.572a.507.507 0 0 1-1.015 0V7.798c0-.223.181-.404.404-.404zm-4.523 0a.51.51 0 0 1 .484.333l1.543 4.092c.086.229.045.424-.363.424-.363 0-.498-.091-.59-.318l-.287-.713H6.9l-.242.652c-.102.274-.242.379-.605.379s-.451-.18-.363-.41l1.573-4.106c.068-.179.226-.333.423-.333zm-.08 1.295-.644 1.8h1.286zm4.495-.533q.477 0 .582.272.051.128.051.405 0 .34-.124.475-.15.165-.515.165h-.663V8.156zM6.372 5.224c.191.403.03.966-.415 1.165l-1.082.513V8.5A.877.877 0 0 1 4 9.375a.88.88 0 0 1-.875-.875V6.35c0-.3.154-.576.402-.736l1.679-.805a.875.875 0 0 1 1.166.415m8.326-.458 1.677.794a.88.88 0 0 1 .493.679l.007 2.261a.875.875 0 0 1-1.743.11l-.008-1.708-1.13-.536c-.404-.192-.64-.685-.423-1.142.217-.458.677-.641 1.127-.458m-4.444-2.103 1.771.83a.875.875 0 0 1-.649 1.622L10 4.468l-1.31.624c-.403.191-.9.085-1.148-.368s-.039-1.014.413-1.23l1.67-.784a.88.88 0 0 1 .63-.047" clip-rule="evenodd"/></g><defs><clipPath id="a"><path fill="#fff" d="M0 0h20v20H0z"/></clipPath></defs></svg>