<svg width="24" height="24" viewBox="0 0 24 24" fill="none" xmlns="http://www.w3.org/2000/svg"><path d="M11.747 2.042 C 11.663 2.063,11.129 2.315,10.560 2.602 C 9.356 3.209,9.159 3.354,9.056 3.709 C 8.918 4.181,9.166 4.683,9.638 4.892 C 9.936 5.024,10.168 4.999,10.610 4.790 L 10.993 4.608 11.007 5.454 C 11.022 6.395,11.029 6.422,11.307 6.686 C 11.543 6.910,11.703 6.977,12.000 6.977 C 12.301 6.978,12.482 6.904,12.702 6.690 C 12.956 6.444,12.976 6.357,12.992 5.434 L 13.007 4.608 13.374 4.782 C 13.813 4.990,14.002 5.027,14.287 4.958 C 14.459 4.917,14.541 4.865,14.721 4.684 C 15.035 4.367,15.103 4.106,14.979 3.690 C 14.887 3.379,14.684 3.229,13.646 2.705 C 12.302 2.027,12.099 1.956,11.747 2.042 M6.120 4.806 C 5.799 4.932,3.471 6.104,3.346 6.202 C 3.288 6.248,3.190 6.370,3.130 6.473 L 3.020 6.660 3.020 8.220 C 3.020 9.618,3.027 9.793,3.089 9.905 C 3.342 10.369,3.803 10.573,4.289 10.438 C 4.501 10.379,4.764 10.166,4.879 9.958 C 4.970 9.794,4.979 9.730,4.993 9.133 L 5.009 8.486 5.368 8.673 C 5.786 8.891,6.023 8.915,6.300 8.771 C 6.617 8.605,6.800 8.340,6.800 8.047 C 6.799 7.697,6.616 7.409,6.226 7.148 C 6.167 7.108,6.129 7.059,6.141 7.038 C 6.154 7.018,6.339 6.912,6.552 6.802 C 6.766 6.692,7.018 6.546,7.111 6.477 C 7.567 6.142,7.652 5.475,7.291 5.075 C 6.992 4.744,6.540 4.640,6.120 4.806 M17.150 4.766 C 16.927 4.829,16.620 5.123,16.544 5.348 C 16.415 5.725,16.496 6.123,16.754 6.374 C 16.837 6.455,17.118 6.634,17.379 6.771 C 17.640 6.908,17.859 7.038,17.865 7.060 C 17.871 7.082,17.778 7.162,17.658 7.238 C 17.538 7.314,17.390 7.448,17.330 7.534 C 17.234 7.673,17.221 7.729,17.221 8.003 C 17.221 8.287,17.232 8.328,17.346 8.487 C 17.511 8.715,17.774 8.850,18.059 8.854 C 18.246 8.857,18.332 8.830,18.639 8.669 L 19.000 8.481 19.002 9.070 C 19.003 9.445,19.022 9.712,19.055 9.804 C 19.126 10.002,19.292 10.209,19.488 10.345 C 19.639 10.450,19.683 10.460,20.003 10.460 C 20.329 10.460,20.363 10.452,20.526 10.336 C 20.622 10.268,20.757 10.129,20.826 10.028 C 20.945 9.853,20.953 9.817,20.981 9.332 C 20.997 9.051,21.002 8.332,20.992 7.735 L 20.973 6.649 20.864 6.463 C 20.723 6.222,20.639 6.172,19.100 5.397 C 17.897 4.791,17.804 4.751,17.560 4.738 C 17.417 4.730,17.232 4.743,17.150 4.766 M9.040 8.669 C 8.771 8.770,8.752 8.811,7.422 12.298 C 6.618 14.406,6.651 14.302,6.749 14.434 C 6.853 14.575,7.057 14.644,7.280 14.615 C 7.704 14.561,7.819 14.437,8.064 13.770 L 8.214 13.360 8.957 13.360 C 9.366 13.360,9.874 13.372,10.086 13.386 L 10.472 13.412 10.679 13.905 C 10.807 14.209,10.924 14.429,10.985 14.477 C 11.274 14.704,11.957 14.644,12.022 14.385 C 12.048 14.282,11.800 13.573,11.084 11.711 C 9.948 8.753,9.934 8.725,9.636 8.665 C 9.485 8.635,9.124 8.637,9.040 8.669 M13.120 8.710 C 12.851 8.845,12.860 8.745,12.860 11.560 C 12.860 14.388,12.850 14.280,13.133 14.485 C 13.484 14.739,13.960 14.565,14.076 14.140 C 14.102 14.045,14.120 13.585,14.120 13.010 L 14.120 12.040 14.370 12.042 C 14.676 12.044,14.914 12.123,15.020 12.257 C 15.064 12.313,15.334 12.822,15.620 13.389 C 16.113 14.367,16.148 14.424,16.300 14.499 C 16.496 14.595,16.939 14.625,17.076 14.552 C 17.129 14.523,17.207 14.453,17.250 14.396 C 17.327 14.292,17.327 14.291,17.218 14.016 C 17.159 13.864,16.922 13.367,16.692 12.911 C 16.377 12.287,16.230 12.039,16.098 11.909 L 15.923 11.735 16.151 11.630 C 16.633 11.407,16.850 11.109,16.929 10.562 C 17.016 9.968,16.853 9.409,16.496 9.081 C 16.095 8.711,15.734 8.641,14.220 8.640 C 13.386 8.640,13.242 8.649,13.120 8.710 M15.384 9.664 C 15.619 9.780,15.696 9.949,15.698 10.358 C 15.700 10.778,15.616 10.972,15.377 11.097 C 15.246 11.167,15.131 11.182,14.670 11.194 L 14.120 11.208 14.120 10.378 L 14.120 9.549 14.675 9.569 C 15.109 9.584,15.264 9.605,15.384 9.664 M9.776 11.345 C 9.981 11.914,10.141 12.393,10.132 12.410 C 10.114 12.443,8.600 12.453,8.600 12.420 C 8.600 12.401,9.228 10.623,9.320 10.380 C 9.343 10.319,9.372 10.278,9.383 10.290 C 9.395 10.301,9.572 10.776,9.776 11.345 M3.669 13.573 C 3.461 13.638,3.263 13.806,3.131 14.031 L 3.020 14.220 3.020 15.740 L 3.020 17.260 3.133 17.452 C 3.195 17.557,3.321 17.698,3.413 17.765 C 3.505 17.832,4.177 18.185,4.906 18.549 C 6.331 19.261,6.454 19.302,6.816 19.201 C 7.331 19.057,7.637 18.452,7.461 17.924 C 7.366 17.638,7.201 17.493,6.639 17.203 C 6.376 17.067,6.160 16.939,6.160 16.920 C 6.160 16.900,6.236 16.831,6.330 16.766 C 6.659 16.538,6.801 16.305,6.799 15.991 C 6.797 15.549,6.447 15.188,5.970 15.135 C 5.799 15.116,5.740 15.135,5.390 15.317 L 5.000 15.520 4.998 14.930 C 4.996 14.278,4.965 14.139,4.765 13.886 C 4.517 13.573,4.075 13.447,3.669 13.573 M19.670 13.560 C 19.498 13.612,19.249 13.830,19.129 14.034 C 19.024 14.213,19.019 14.246,19.007 14.870 L 18.993 15.519 18.653 15.340 C 18.357 15.184,18.280 15.160,18.069 15.160 C 17.493 15.160,17.148 15.564,17.221 16.155 C 17.242 16.331,17.276 16.401,17.408 16.544 C 17.497 16.641,17.631 16.757,17.705 16.803 C 17.779 16.849,17.840 16.902,17.840 16.922 C 17.840 16.941,17.638 17.060,17.392 17.186 C 16.742 17.519,16.530 17.738,16.462 18.149 C 16.400 18.517,16.655 18.984,17.010 19.154 C 17.104 19.199,17.291 19.248,17.428 19.263 L 17.675 19.290 19.017 18.599 C 19.754 18.220,20.443 17.853,20.547 17.784 C 20.656 17.713,20.789 17.576,20.859 17.463 L 20.980 17.266 20.980 15.743 L 20.980 14.220 20.870 14.033 C 20.665 13.684,20.361 13.515,19.952 13.523 C 19.858 13.525,19.731 13.542,19.670 13.560 M11.675 17.060 C 11.473 17.125,11.206 17.358,11.094 17.568 C 11.035 17.678,11.021 17.829,11.009 18.480 C 11.002 18.909,10.989 19.282,10.980 19.308 C 10.969 19.341,10.852 19.304,10.618 19.194 C 10.286 19.039,10.257 19.033,9.939 19.046 C 9.646 19.058,9.587 19.074,9.434 19.181 C 9.340 19.248,9.207 19.391,9.141 19.498 C 9.034 19.671,9.020 19.729,9.020 19.997 C 9.020 20.258,9.036 20.327,9.134 20.493 C 9.279 20.741,9.385 20.807,10.688 21.462 C 12.111 22.178,11.891 22.180,13.354 21.440 C 13.962 21.133,14.550 20.813,14.659 20.729 C 14.889 20.554,14.995 20.334,14.998 20.020 C 15.001 19.703,14.935 19.539,14.720 19.324 C 14.346 18.950,13.975 18.917,13.365 19.203 C 13.180 19.289,13.022 19.360,13.014 19.360 C 13.007 19.360,13.000 19.046,13.000 18.662 C 13.000 17.873,12.962 17.630,12.804 17.412 C 12.575 17.096,12.062 16.936,11.675 17.060 " fill="#1A1C1F" stroke="none" fill-rule="evenodd"></path></svg>