<svg xmlns="http://www.w3.org/2000/svg" width="32" height="32" fill="none"><g clip-path="url(#a)"><path fill="#1A1C1F" fill-rule="evenodd" d="M15.999 22.998c.513 0 1 .417 1 1v1.72l1.234-.62a1 1 0 0 1 1.343.446c.23.458.067 1.065-.445 1.342l-2.682 1.346c-.242.122-.6.143-.891 0l-2.687-1.345a1 1 0 0 1-.445-1.343c.23-.458.838-.708 1.342-.445l1.23.617v-1.718a1 1 0 0 1 1-1m11.667-4.332.002 3.317c0 .366-.211.722-.552.894l-3.41 1.712a1 1 0 0 1-1.342-.445 1.015 1.015 0 0 1 .445-1.342l1.614-.812-.982-.661a1 1 0 0 1-.271-1.388c.286-.426.87-.592 1.388-.271l1.108.746v-1.75c0-.55.466-1 .999-1s1 .44 1 1m-22.334-1c.513 0 1 .41 1 1v1.749l1.108-.746a1 1 0 0 1 1.388.27c.287.426.208 1.069-.27 1.389l-.984.662 1.58.793a.995.995 0 0 1 .446 1.343.983.983 0 0 1-1.338.445l-3.378-1.694c-.3-.15-.552-.49-.552-.894v-3.318a1 1 0 0 1 1-1M19.85 11.76q2.353 0 2.353 2.07 0 .848-.417 1.3-.309.327-.922.51.407.217.677.761.715 1.481 1.074 2.215c.14.287-.096.62-.633.62-.266 0-.733-.08-.905-.424l-.992-2.079q-.201-.423-.392-.573-.167-.13-.535-.13h-.503v2.424a.782.782 0 1 1-1.564 0v-6.07c0-.345.279-.624.623-.624zm-.167 1.175H18.65v2.031h1.021q.564 0 .794-.255.192-.207.192-.731 0-.43-.079-.626-.162-.42-.897-.419M9.6 7.825c.227.46.068 1.084-.446 1.339l-1.64.803 1.043.703c.464.319.583.932.25 1.428-.334.495-.912.513-1.368.23l-1.109-.746.001 1.75c0 .576-.487 1-1 1s-1-.412-1-1V9.93c0-.358.222-.738.558-.897L8.262 7.37a1 1 0 0 1 1.339.454m14.13-.455 3.38 1.663c.337.175.548.49.555.898v3.401a1 1 0 0 1-2 0v-1.751l-1.109.747a1 1 0 0 1-1.116-1.658l1.041-.703-1.636-.807c-.558-.287-.701-.885-.42-1.413.282-.528.887-.567 1.305-.377m-10.857 4.39c.328 0 .624.19.747.514L16 18.582c.133.353.07.654-.56.654-.56 0-.768-.14-.91-.49l-.443-1.098h-2.775l-.373 1.004c-.157.423-.373.584-.933.584s-.695-.278-.56-.63l2.426-6.332c.105-.275.348-.514.653-.514zm-.124 1.997-.992 2.776h1.983zm3.692-9.986 2.715 1.339a1 1 0 0 1 .454 1.339c-.227.46-.81.706-1.34.454l-1.273-.628v1.223a1 1 0 0 1-1 1 .99.99 0 0 1-1-1V6.276l-1.204.595a.987.987 0 0 1-1.35-.465c-.219-.466-.12-1.02.466-1.329l2.648-1.306c.291-.13.546-.143.884 0" clip-rule="evenodd"/></g><defs><clipPath id="a"><path fill="#fff" d="M0 0h32v32H0z"/></clipPath></defs></svg>