<svg xmlns="http://www.w3.org/2000/svg" width="14" height="14" fill="none"><g clip-path="url(#a)"><path fill="#1A1C1F" fill-rule="evenodd" d="m6.07 10.42.93.45.929-.45c.34-.159.682.005.818.286a.62.62 0 0 1-.28.817l-1.2.579a.62.62 0 0 1-.534 0l-1.196-.579a.612.612 0 1 1 .533-1.103M2.8 7.438c.312 0 .613.254.613.612v1.086l.783.379c.322.153.42.537.285.818a.61.61 0 0 1-.818.284l-1.13-.545a.62.62 0 0 1-.345-.552V8.05c0-.338.274-.612.612-.612m8.4 0c.312 0 .613.25.608.612l.005 1.47a.61.61 0 0 1-.279.514l-1.177.574a.613.613 0 0 1-.818-.285.62.62 0 0 1 .285-.818l.763-.37V8.05c0-.363.3-.612.613-.612M8.706 5.176q1.069 0 1.069.94 0 .384-.19.59a.93.93 0 0 1-.418.231q.185.099.307.346.324.672.488 1.005c.063.13-.044.282-.288.282-.12 0-.332-.036-.41-.193l-.451-.943a.7.7 0 0 0-.178-.26q-.075-.06-.243-.06h-.228v1.101a.355.355 0 1 1-.71 0V5.459c0-.156.126-.283.283-.283zm-3.166 0c.149 0 .283.086.339.233l1.08 2.864c.06.16.032.297-.254.297-.254 0-.35-.064-.413-.223L6.09 7.85H4.83l-.17.456c-.071.192-.17.265-.423.265-.255 0-.316-.126-.255-.286l1.102-2.875c.048-.125.158-.233.296-.233zm-.057.906-.45 1.26h.9zm3.148-.373q.333 0 .407.19.035.09.035.284 0 .24-.086.333-.105.115-.361.115h-.464V5.71zM4.46 3.657c.133.282.02.676-.291.816l-.757.359V5.95c0 .362-.3.613-.613.613a.617.617 0 0 1-.612-.613V4.445c0-.21.107-.404.281-.515l1.175-.564a.613.613 0 0 1 .816.29m5.828-.32 1.174.555c.19.09.318.27.345.475l.005 1.583a.612.612 0 0 1-1.22.077l-.006-1.195-.792-.376a.6.6 0 0 1-.295-.8c.151-.32.474-.448.789-.32M7.178 1.863l1.24.582a.612.612 0 0 1-.454 1.135l-.965-.453-.917.436a.6.6 0 0 1-.803-.257.63.63 0 0 1 .288-.861l1.17-.55a.6.6 0 0 1 .44-.032" clip-rule="evenodd"/></g><defs><clipPath id="a"><path fill="#fff" d="M0 0h14v14H0z"/></clipPath></defs></svg>