<svg xmlns="http://www.w3.org/2000/svg" width="28" height="28" fill="none"><g clip-path="url(#a)"><path fill="#1A1C1F" fill-rule="evenodd" d="M13.999 20.124a.88.88 0 0 1 .875.875v1.504l1.08-.542a.875.875 0 0 1 1.175.39.89.89 0 0 1-.39 1.174l-2.347 1.178a.92.92 0 0 1-.78 0l-2.35-1.177a.875.875 0 0 1-.39-1.175c.202-.4.734-.62 1.175-.39l1.076.54V21c0-.484.393-.875.876-.875m10.208-3.791.002 2.902c0 .32-.184.632-.482.783l-2.984 1.497a.875.875 0 0 1-1.174-.39.89.89 0 0 1 .39-1.174l1.411-.71-.86-.578a.875.875 0 0 1-.237-1.215c.251-.372.762-.518 1.215-.237l.97.653v-1.531c-.001-.482.407-.876.874-.876.466 0 .875.386.875.876m-19.541-.876c.448 0 .874.36.875.876l-.001 1.53.97-.653a.875.875 0 0 1 1.215.237.883.883 0 0 1-.237 1.215l-.86.579 1.382.695a.87.87 0 0 1 .39 1.174.86.86 0 0 1-1.171.39l-2.956-1.482a.89.89 0 0 1-.482-.783v-2.903c0-.483.391-.875.875-.875m12.702-5.167q2.058 0 2.059 1.812 0 .741-.365 1.137-.27.286-.806.446.355.19.591.666.625 1.296.94 1.938c.123.251-.083.543-.553.543-.234 0-.642-.07-.793-.372l-.868-1.819q-.175-.37-.343-.5-.146-.115-.467-.114h-.44v2.12a.684.684 0 1 1-1.37 0v-5.311c0-.302.245-.546.546-.546zm-.146 1.028h-.903v1.778h.894q.493 0 .695-.224.167-.18.167-.64 0-.375-.068-.547-.142-.367-.785-.367M8.4 6.846c.198.403.06.95-.39 1.172l-1.435.703.912.615c.406.28.51.816.218 1.25-.292.433-.797.449-1.196.202l-.97-.654v1.531a.884.884 0 0 1-.874.875.876.876 0 0 1-.875-.874V8.689c0-.314.193-.646.487-.785L7.23 6.45a.875.875 0 0 1 1.172.397m12.363-.397 2.957 1.455a.87.87 0 0 1 .486.785v2.977a.875.875 0 0 1-1.75 0v-1.533l-.97.654a.875.875 0 0 1-.976-1.451l.91-.615-1.431-.706c-.488-.25-.613-.775-.367-1.237.247-.461.775-.495 1.141-.33m-9.499 3.841c.287 0 .546.166.653.45L14 16.26c.116.308.06.572-.49.572-.49 0-.672-.123-.796-.43l-.388-.96H9.898l-.327.879c-.137.37-.326.51-.816.51s-.608-.243-.49-.551l2.123-5.54c.092-.241.305-.45.571-.45zm-.11 1.748-.866 2.428h1.734zm3.232-8.739 2.375 1.172a.875.875 0 0 1 .398 1.172.88.88 0 0 1-1.172.397l-1.115-.55v1.071a.875.875 0 0 1-.874.875.866.866 0 0 1-.875-.875v-1.07l-1.054.52a.863.863 0 0 1-1.182-.406c-.191-.408-.105-.892.408-1.163L13.613 3.3c.255-.114.478-.124.774 0" clip-rule="evenodd"/></g><defs><clipPath id="a"><path fill="#fff" d="M0 0h28v28H0z"/></clipPath></defs></svg>