<svg xmlns="http://www.w3.org/2000/svg" width="32" height="32" fill="none"><path fill="#1A1C1F" fill-rule="evenodd" d="M10.08 3.032q-.585.152-.744.745c-.051.188-.045.304.028.64.262 1.187.876 2.398 1.649 3.25l.303.333-.303.333c-.763.841-1.346 1.977-1.635 3.186-.135.565-.191 1.561-.102 1.829.095.287.417.551.759.622.203.042 1.992.055 6.126.044 5.719-.014 5.843-.016 6.049-.121.115-.058.283-.199.373-.312.164-.205.164-.205.16-.88-.003-.74-.09-1.22-.356-1.981-.304-.867-.822-1.749-1.4-2.387L20.684 8l.303-.333c.78-.859 1.408-2.103 1.647-3.26.096-.466.06-.731-.137-1.008-.272-.381-.925-.496-1.322-.233-.289.191-.37.331-.518.902a5.4 5.4 0 0 1-1.283 2.374l-.307.335-.507-.221a9 9 0 0 0-1.013-.359c-.464-.125-.596-.137-1.547-.137s-1.083.012-1.547.137a9 9 0 0 0-1.013.359l-.507.221-.308-.335c-.714-.777-1.006-1.352-1.367-2.693-.069-.255-.271-.519-.478-.625-.178-.091-.528-.137-.7-.092m6.56 5.024c.936.151 1.833.616 2.562 1.331.727.713 1.156 1.429 1.412 2.36l.07.253h-4.687c-3.725 0-4.683-.014-4.666-.067.386-1.238.688-1.772 1.412-2.499 1.079-1.085 2.529-1.597 3.897-1.378M4.201 14.343c-.871.407-1.664.789-1.762.849-.392.242-.537.835-.312 1.276.178.349.628.588.994.529.097-.016.783-.311 1.525-.655s1.374-.626 1.406-.626.483.206 1.003.458l.945.459v1.762l-.177-.074c-.097-.041-.473-.22-.834-.398-.945-.465-.869-.475-2.585.323-2.006.933-2.09.98-2.252 1.257-.246.419-.136 1.024.233 1.286.213.152.563.244.77.203.098-.019.787-.32 1.53-.668l1.352-.633.488.227c.269.125.707.337.974.471l.486.244.028.87c.016.479.021.878.012.888s-.397-.164-.862-.386c-1.156-.553-1.024-.564-2.705.215-2.108.978-2.137.994-2.301 1.274a1 1 0 0 0-.031.972c.178.349.628.59.991.531.095-.015.792-.315 1.549-.667l1.375-.64.486.229c.268.126.93.444 1.473.707l.987.477.3.449c1.155 1.724 2.857 2.867 4.927 3.308.515.109.731.124 1.786.124s1.271-.015 1.786-.124c2.072-.441 3.771-1.583 4.921-3.305l.297-.446 1.098-.534c.604-.293 1.269-.613 1.477-.709l.379-.177 1.359.632c.747.347 1.445.647 1.551.667.375.07.822-.162 1.006-.522a1 1 0 0 0-.031-.972c-.164-.279-.189-.294-2.299-1.274-1.684-.782-1.559-.772-2.714-.216-.462.223-.847.397-.857.387-.009-.01-.004-.409.013-.888l.03-.87.592-.297c.326-.164.764-.376.974-.471l.381-.174 1.352.633c.743.348 1.432.649 1.53.668.207.041.557-.051.77-.203.369-.263.479-.867.233-1.287-.162-.277-.291-.348-2.306-1.282-1.657-.768-1.59-.76-2.531-.297-.361.178-.737.357-.834.398l-.177.074v-1.762l.945-.459c.52-.252.973-.458 1.006-.458.032 0 .665.281 1.406.626.74.344 1.425.639 1.522.655.202.033.52-.058.736-.209.369-.259.479-.866.233-1.285-.162-.277-.246-.324-2.252-1.257-1.192-.554-1.428-.646-1.656-.646-.232 0-.449.088-1.698.693l-1.432.694H9.19l-1.432-.694c-1.264-.612-1.463-.693-1.701-.692-.234.001-.482.1-1.856.742m17.772 5.164c-.001 2.232-.012 2.544-.102 2.98-.432 2.098-2.033 3.763-4.182 4.352-.394.108-.556.12-1.689.12s-1.295-.012-1.689-.12c-2.054-.562-3.565-2.062-4.138-4.105-.11-.395-.117-.535-.134-3.067l-.018-2.654h11.952zm-9.413-.392a1.1 1.1 0 0 0-.503.528c-.157.414.018.957.386 1.201l.216.143 3.257.014 3.257.015.237-.121c.687-.352.784-1.219.187-1.674l-.202-.154-3.337-.012c-2.708-.01-3.368.002-3.498.06m2.232 3.92c-.68.172-.987.9-.625 1.483.275.442.379.469 1.833.469s1.558-.027 1.833-.469a.96.96 0 0 0-.339-1.363c-.238-.14-.251-.142-1.387-.152-.631-.005-1.222.009-1.315.032"/></svg>