<svg xmlns="http://www.w3.org/2000/svg" width="24" height="24" fill="none"><g clip-path="url(#a)"><path fill="#1A1C1F" fill-rule="evenodd" d="M17.099 2.018c.541.11.891.639.781 1.18a5.96 5.96 0 0 1-1.665 3.045 6 6 0 0 1 1.695 3.262h2.091a1 1 0 0 1 .707.293l1 1a.999.999 0 1 1-1.414 1.414l-.707-.707h-1.586v2h2a1 1 0 0 1 .707.293l1 1a.999.999 0 1 1-1.414 1.414l-.707-.707h-1.586l-.002.495c0 .52-.073 1.022-.198 1.504h2.198a1 1 0 0 1 .707.293l1 1a.999.999 0 1 1-1.414 1.414l-.707-.707h-2.586c-.043 0-.079-.02-.121-.024A5.99 5.99 0 0 1 11.999 22a5.99 5.99 0 0 1-4.879-2.52c-.042.006-.079.025-.122.025H4.413l-.707.707a.997.997 0 0 1-1.414 0 1 1 0 0 1 0-1.414l1-1a1 1 0 0 1 .707-.293h2.198A6 6 0 0 1 5.999 16v-.496H4.413l-.707.707a.997.997 0 0 1-1.414 0 1 1 0 0 1 0-1.414l1-1a1 1 0 0 1 .707-.293h2v-2H4.413l-.707.707a.997.997 0 0 1-1.414 0 1 1 0 0 1 0-1.414l1-1a1 1 0 0 1 .707-.293H6.09a6 6 0 0 1 1.695-3.262A5.97 5.97 0 0 1 6.12 3.198c-.11-.541.24-1.07.781-1.18a1.003 1.003 0 0 1 1.179.78 3.98 3.98 0 0 0 1.385 2.279A5.95 5.95 0 0 1 12 4.507c.907 0 1.764.208 2.535.57a4 4 0 0 0 1.385-2.278c.11-.541.637-.884 1.179-.781m-1.098 9.487h-8V16c0 2.206 1.794 4 4 4s4-1.794 4-4zm-3 4.494a1 1 0 1 1 0 2h-2a1 1 0 1 1 0-2zm1-3a1 1 0 1 1 0 2h-4a1 1 0 1 1 0-2zm-2-6.491c-1.857 0-3.409 1.278-3.857 2.997h7.714c-.448-1.72-2-2.997-3.857-2.997" clip-rule="evenodd"/></g><defs><clipPath id="a"><path fill="#fff" d="M0 0h24v24H0z"/></clipPath></defs></svg>