<svg xmlns="http://www.w3.org/2000/svg" width="12" height="12" fill="none"><g clip-path="url(#a)"><path fill="#1A1C1F" fill-rule="evenodd" d="m4.719 1.5.577.993c.226-.055.46-.093.704-.093.238 0 .466.035.687.087l.599-.996a.6.6 0 0 1 1.028.62l-.534.888A3 3 0 0 1 8.94 4.8h1.26a.6.6 0 1 1 0 1.2H9v.6h1.2a.6.6 0 1 1 0 1.2H9q0 .31-.06.6h1.26a.6.6 0 1 1 0 1.2H8.384A2.98 2.98 0 0 1 6 10.8a2.99 2.99 0 0 1-2.387-1.202L3.6 9.6H1.8a.6.6 0 1 1 0-1.2h1.26A3 3 0 0 1 3 7.8H1.8a.6.6 0 1 1 0-1.2H3V6H1.8a.6.6 0 1 1 0-1.2h1.26a3 3 0 0 1 1.148-1.79l-.527-.908a.6.6 0 0 1 1.038-.603M7.8 6H4.2v1.8c0 .993.808 1.8 1.8 1.8s1.8-.807 1.8-1.8zM6.6 7.2a.6.6 0 1 1 0 1.2H5.4a.6.6 0 1 1 0-1.2zM6 3.6c-.781 0-1.441.504-1.69 1.2h3.38A1.8 1.8 0 0 0 6 3.6" clip-rule="evenodd"/></g><defs><clipPath id="a"><path fill="#fff" d="M0 0h12v12H0z"/></clipPath></defs></svg>