<svg width="24" height="24" viewBox="0 0 24 24" fill="none" xmlns="http://www.w3.org/2000/svg"><path d="M6.790 2.056 C 6.455 2.178,6.183 2.485,6.127 2.803 C 6.086 3.041,6.136 3.337,6.303 3.835 C 6.558 4.600,6.923 5.240,7.486 5.909 L 7.763 6.239 7.454 6.609 C 6.783 7.415,6.443 8.088,6.161 9.166 L 6.070 9.511 4.882 9.526 L 3.694 9.540 3.517 9.656 C 3.256 9.828,2.188 10.914,2.098 11.100 C 1.977 11.349,1.991 11.730,2.130 11.967 C 2.459 12.528,3.110 12.668,3.590 12.281 C 3.694 12.197,3.915 11.992,4.079 11.824 L 4.378 11.520 5.189 11.520 L 6.000 11.520 6.000 12.516 L 6.000 13.512 4.847 13.526 L 3.694 13.540 3.517 13.656 C 3.256 13.828,2.188 14.914,2.098 15.100 C 1.977 15.349,1.991 15.730,2.130 15.967 C 2.459 16.528,3.110 16.668,3.590 16.281 C 3.694 16.197,3.915 15.992,4.079 15.824 L 4.378 15.520 5.183 15.520 L 5.987 15.520 6.015 16.130 C 6.029 16.465,6.068 16.884,6.100 17.060 C 6.132 17.236,6.159 17.410,6.159 17.446 C 6.160 17.505,6.039 17.513,4.927 17.526 L 3.694 17.540 3.517 17.656 C 3.256 17.828,2.188 18.914,2.098 19.100 C 1.977 19.349,1.991 19.730,2.130 19.967 C 2.459 20.528,3.110 20.668,3.590 20.281 C 3.694 20.197,3.915 19.992,4.079 19.824 L 4.378 19.520 5.764 19.520 L 7.151 19.520 7.265 19.670 C 7.480 19.953,7.980 20.451,8.300 20.700 C 9.088 21.315,9.949 21.708,10.941 21.906 C 11.441 22.005,12.559 22.005,13.059 21.906 C 14.431 21.632,15.612 20.949,16.531 19.898 L 16.860 19.521 18.236 19.521 L 19.611 19.520 20.064 19.958 C 20.461 20.343,20.544 20.405,20.741 20.462 C 21.002 20.538,21.167 20.518,21.444 20.378 C 21.681 20.258,21.865 20.037,21.941 19.783 C 22.015 19.534,22.015 19.464,21.937 19.202 C 21.880 19.011,21.809 18.924,21.227 18.341 C 20.871 17.984,20.517 17.658,20.440 17.617 C 20.314 17.550,20.175 17.541,19.070 17.527 C 17.961 17.513,17.840 17.505,17.841 17.446 C 17.841 17.410,17.868 17.236,17.900 17.060 C 17.932 16.884,17.971 16.465,17.985 16.130 L 18.013 15.520 18.817 15.520 L 19.622 15.520 19.921 15.824 C 20.085 15.992,20.306 16.197,20.410 16.281 C 20.890 16.668,21.541 16.528,21.870 15.967 C 22.009 15.730,22.023 15.349,21.902 15.100 C 21.814 14.919,20.754 13.842,20.483 13.659 L 20.307 13.540 19.153 13.526 L 18.000 13.512 18.000 12.516 L 18.000 11.520 18.811 11.520 L 19.622 11.520 19.921 11.824 C 20.085 11.992,20.306 12.197,20.410 12.281 C 20.890 12.668,21.541 12.528,21.870 11.967 C 22.009 11.730,22.023 11.349,21.902 11.100 C 21.814 10.919,20.754 9.842,20.483 9.659 L 20.307 9.540 19.113 9.526 L 17.919 9.511 17.896 9.406 C 17.827 9.091,17.657 8.537,17.533 8.220 C 17.298 7.625,17.038 7.201,16.536 6.598 L 16.237 6.239 16.514 5.909 C 17.078 5.239,17.434 4.614,17.708 3.815 C 17.837 3.439,17.858 3.330,17.859 3.014 C 17.860 2.669,17.853 2.637,17.739 2.475 C 17.672 2.380,17.540 2.248,17.446 2.181 C 17.292 2.073,17.236 2.059,16.927 2.046 C 16.590 2.033,16.574 2.037,16.381 2.166 C 16.117 2.344,16.033 2.479,15.858 3.012 C 15.589 3.829,15.281 4.350,14.772 4.850 L 14.537 5.081 14.186 4.939 C 13.384 4.616,12.382 4.473,11.487 4.555 C 10.880 4.610,10.298 4.744,9.814 4.939 L 9.463 5.081 9.228 4.850 C 8.717 4.348,8.397 3.806,8.138 3.006 C 7.972 2.490,7.823 2.266,7.560 2.135 C 7.327 2.020,6.987 1.985,6.790 2.056 M12.958 6.641 C 13.768 6.836,14.581 7.363,15.114 8.037 C 15.410 8.412,15.744 9.055,15.819 9.393 L 15.846 9.520 12.003 9.520 C 9.889 9.520,8.160 9.505,8.160 9.486 C 8.160 9.408,8.320 8.998,8.459 8.720 C 9.041 7.559,10.174 6.740,11.450 6.560 C 11.822 6.507,12.570 6.548,12.958 6.641 M15.986 14.075 C 15.962 16.427,15.953 16.654,15.881 16.935 C 15.648 17.845,15.009 18.786,14.290 19.273 C 13.469 19.830,12.614 20.050,11.605 19.962 C 10.613 19.876,9.846 19.493,9.092 18.708 C 8.669 18.267,8.345 17.701,8.139 17.040 C 8.056 16.774,8.008 15.361,8.003 13.030 L 8.000 11.520 12.007 11.520 L 16.013 11.520 15.986 14.075 M10.014 13.034 C 9.643 13.058,9.593 13.071,9.436 13.184 C 9.117 13.416,8.941 13.873,9.036 14.227 C 9.107 14.490,9.321 14.765,9.542 14.879 L 9.738 14.980 11.999 14.980 L 14.260 14.980 14.449 14.887 C 14.629 14.798,14.805 14.618,14.922 14.400 C 14.954 14.341,14.976 14.177,14.976 14.000 C 14.976 13.661,14.921 13.524,14.698 13.301 C 14.421 13.023,14.472 13.029,12.340 13.019 C 11.284 13.013,10.237 13.020,10.014 13.034 M10.869 16.037 C 10.531 16.074,10.316 16.218,10.142 16.524 C 10.040 16.705,10.020 16.782,10.021 17.000 C 10.023 17.302,10.117 17.515,10.344 17.736 C 10.586 17.971,10.648 17.980,12.020 17.980 C 13.238 17.980,13.263 17.978,13.449 17.887 C 13.629 17.798,13.805 17.618,13.922 17.400 C 13.954 17.341,13.976 17.177,13.976 17.000 C 13.976 16.661,13.921 16.524,13.698 16.301 C 13.439 16.042,13.378 16.030,12.200 16.018 C 11.617 16.012,11.018 16.020,10.869 16.037 " fill="#1A1C1F" stroke="none" fill-rule="evenodd"></path></svg>