<svg width="12" height="12" viewBox="0 0 12 12" fill="none" xmlns="http://www.w3.org/2000/svg"><path d="M4.080 1.219 C 3.796 1.277,3.584 1.551,3.605 1.830 C 3.616 1.972,3.663 2.070,3.982 2.625 L 4.203 3.009 4.096 3.098 C 3.650 3.470,3.321 3.960,3.137 4.526 L 3.050 4.794 2.348 4.804 L 1.646 4.814 1.521 4.881 C 1.084 5.114,1.104 5.721,1.556 5.944 C 1.648 5.989,1.666 5.990,2.325 5.996 L 3.000 6.002 3.000 6.298 L 3.000 6.594 2.324 6.604 L 1.647 6.614 1.521 6.681 C 1.084 6.914,1.104 7.521,1.556 7.744 C 1.648 7.789,1.666 7.790,2.325 7.796 L 3.000 7.802 3.000 7.916 C 3.001 8.025,3.028 8.256,3.052 8.350 L 3.063 8.394 2.355 8.404 L 1.646 8.414 1.521 8.481 C 1.084 8.714,1.104 9.321,1.556 9.544 C 1.650 9.590,1.652 9.590,2.631 9.596 L 3.613 9.602 3.776 9.789 C 4.194 10.269,4.821 10.625,5.471 10.752 C 5.718 10.800,6.281 10.800,6.527 10.753 C 7.199 10.621,7.774 10.290,8.245 9.762 L 8.380 9.610 9.365 9.600 C 10.344 9.590,10.351 9.590,10.444 9.544 C 10.895 9.322,10.915 8.713,10.479 8.481 L 10.354 8.414 9.645 8.404 L 8.937 8.394 8.948 8.350 C 8.972 8.256,8.999 8.025,9.000 7.916 L 9.000 7.802 9.675 7.796 C 10.334 7.790,10.352 7.789,10.444 7.744 C 10.895 7.521,10.915 6.913,10.479 6.681 L 10.353 6.614 9.676 6.604 L 9.000 6.594 9.000 6.298 L 9.000 6.002 9.675 5.996 C 10.334 5.990,10.352 5.989,10.444 5.944 C 10.895 5.722,10.915 5.113,10.479 4.881 L 10.354 4.814 9.652 4.804 L 8.950 4.794 8.864 4.532 C 8.755 4.199,8.671 4.020,8.511 3.781 C 8.340 3.525,8.158 3.317,7.953 3.143 L 7.783 2.998 8.019 2.604 C 8.376 2.007,8.389 1.979,8.389 1.800 C 8.389 1.550,8.273 1.369,8.044 1.264 C 7.802 1.154,7.480 1.231,7.331 1.435 C 7.295 1.485,7.140 1.733,6.987 1.985 C 6.835 2.237,6.705 2.452,6.699 2.462 C 6.692 2.473,6.605 2.468,6.480 2.448 C 6.228 2.408,5.600 2.418,5.415 2.465 L 5.300 2.495 5.066 2.092 C 4.724 1.505,4.634 1.369,4.546 1.314 C 4.413 1.231,4.217 1.190,4.080 1.219 M6.437 3.662 C 6.926 3.786,7.374 4.150,7.605 4.610 C 7.632 4.665,7.661 4.730,7.669 4.755 L 7.683 4.800 6.000 4.800 L 4.317 4.800 4.331 4.755 C 4.384 4.583,4.564 4.312,4.741 4.138 C 5.199 3.684,5.829 3.507,6.437 3.662 M7.793 7.045 C 7.778 8.173,7.776 8.201,7.663 8.473 C 7.568 8.702,7.415 8.921,7.222 9.104 C 7.024 9.292,6.824 9.415,6.564 9.508 C 6.392 9.569,6.386 9.570,6.000 9.570 C 5.614 9.570,5.608 9.569,5.436 9.508 C 5.186 9.418,4.977 9.292,4.794 9.120 C 4.604 8.942,4.502 8.808,4.399 8.602 C 4.248 8.302,4.235 8.240,4.218 7.730 C 4.210 7.477,4.203 6.984,4.202 6.635 L 4.200 6.000 6.003 6.000 L 7.807 6.000 7.793 7.045 M5.310 7.217 C 4.922 7.272,4.694 7.692,4.860 8.046 C 4.916 8.165,5.044 8.294,5.160 8.348 C 5.246 8.388,5.280 8.390,6.000 8.390 C 6.743 8.390,6.751 8.390,6.844 8.344 C 7.293 8.122,7.315 7.513,6.881 7.282 L 6.759 7.217 6.084 7.210 C 5.713 7.206,5.365 7.209,5.310 7.217 " fill="#1A1C1F" stroke="none" fill-rule="evenodd"></path></svg>