<svg width="14" height="14" viewBox="0 0 14 14" fill="none" xmlns="http://www.w3.org/2000/svg"><path d="M4.772 1.423 C 4.439 1.478,4.181 1.803,4.206 2.135 C 4.219 2.301,4.269 2.406,4.643 3.057 L 4.903 3.510 4.779 3.614 C 4.573 3.786,4.307 4.074,4.144 4.300 C 3.939 4.586,3.781 4.906,3.659 5.283 L 3.558 5.593 2.742 5.605 C 1.947 5.617,1.922 5.619,1.809 5.672 C 1.663 5.741,1.526 5.877,1.462 6.017 C 1.391 6.172,1.393 6.434,1.467 6.586 C 1.536 6.726,1.675 6.865,1.815 6.934 C 1.922 6.987,1.944 6.989,2.712 6.996 L 3.500 7.003 3.500 7.348 L 3.500 7.693 2.712 7.705 C 1.948 7.717,1.922 7.719,1.809 7.772 C 1.663 7.841,1.526 7.977,1.462 8.117 C 1.391 8.272,1.393 8.534,1.467 8.686 C 1.536 8.826,1.675 8.965,1.815 9.034 C 1.922 9.087,1.944 9.089,2.712 9.096 L 3.500 9.103 3.500 9.236 C 3.501 9.362,3.533 9.632,3.560 9.741 L 3.573 9.793 2.749 9.805 C 1.947 9.817,1.922 9.819,1.809 9.872 C 1.663 9.941,1.526 10.077,1.462 10.217 C 1.391 10.372,1.393 10.634,1.467 10.786 C 1.536 10.926,1.675 11.065,1.815 11.134 C 1.925 11.188,1.927 11.188,3.071 11.195 L 4.218 11.202 4.374 11.388 C 4.855 11.958,5.613 12.394,6.383 12.544 C 6.671 12.600,7.328 12.601,7.615 12.545 C 8.395 12.392,9.086 11.995,9.619 11.390 L 9.777 11.212 10.926 11.200 C 12.068 11.188,12.076 11.188,12.185 11.134 C 12.325 11.065,12.464 10.926,12.533 10.786 C 12.607 10.634,12.609 10.372,12.538 10.217 C 12.474 10.077,12.337 9.941,12.191 9.872 C 12.078 9.819,12.053 9.817,11.251 9.805 L 10.427 9.793 10.440 9.741 C 10.467 9.632,10.499 9.362,10.500 9.236 L 10.500 9.103 11.287 9.096 C 12.056 9.089,12.078 9.087,12.185 9.034 C 12.325 8.965,12.464 8.826,12.533 8.686 C 12.607 8.534,12.609 8.272,12.538 8.117 C 12.474 7.977,12.337 7.841,12.191 7.772 C 12.078 7.719,12.052 7.717,11.287 7.705 L 10.500 7.693 10.500 7.348 L 10.500 7.003 11.287 6.996 C 12.056 6.989,12.078 6.987,12.185 6.934 C 12.325 6.865,12.464 6.726,12.533 6.586 C 12.607 6.434,12.609 6.172,12.538 6.017 C 12.474 5.877,12.337 5.741,12.191 5.672 C 12.078 5.619,12.053 5.617,11.258 5.605 L 10.442 5.593 10.342 5.287 C 10.215 4.900,10.116 4.691,9.930 4.411 C 9.737 4.122,9.503 3.855,9.269 3.656 L 9.081 3.496 9.345 3.059 C 9.787 2.326,9.838 2.193,9.777 1.940 C 9.673 1.506,9.194 1.290,8.783 1.493 C 8.598 1.583,8.584 1.602,8.152 2.316 C 7.974 2.610,7.822 2.861,7.815 2.873 C 7.807 2.886,7.706 2.879,7.560 2.856 C 7.266 2.809,6.533 2.821,6.318 2.876 L 6.183 2.911 5.898 2.419 C 5.445 1.642,5.406 1.588,5.227 1.501 C 5.065 1.422,4.922 1.398,4.772 1.423 M7.510 4.272 C 8.100 4.422,8.643 4.875,8.893 5.427 C 8.930 5.509,8.960 5.581,8.960 5.588 C 8.960 5.595,8.077 5.600,6.998 5.600 L 5.037 5.600 5.053 5.548 C 5.125 5.310,5.398 4.931,5.653 4.713 C 6.174 4.270,6.861 4.107,7.510 4.272 M9.098 7.706 C 9.097 8.094,9.088 8.669,9.079 8.983 C 9.063 9.484,9.055 9.574,9.009 9.707 C 8.786 10.362,8.323 10.842,7.678 11.088 L 7.478 11.165 7.000 11.165 L 6.522 11.165 6.322 11.088 C 6.036 10.979,5.787 10.826,5.584 10.633 C 5.369 10.430,5.250 10.272,5.132 10.036 C 4.955 9.683,4.941 9.615,4.922 9.007 C 4.912 8.705,4.903 8.130,4.902 7.729 L 4.900 7.000 7.000 7.000 L 9.100 7.000 9.098 7.706 M6.183 8.420 C 5.930 8.460,5.704 8.661,5.632 8.910 C 5.538 9.231,5.708 9.595,6.017 9.738 C 6.121 9.787,6.154 9.788,7.000 9.788 C 7.867 9.788,7.876 9.788,7.985 9.734 C 8.125 9.665,8.264 9.526,8.333 9.386 C 8.407 9.234,8.409 8.972,8.338 8.817 C 8.274 8.677,8.137 8.541,7.993 8.473 C 7.884 8.422,7.855 8.420,7.084 8.411 C 6.647 8.407,6.241 8.410,6.183 8.420 " fill="#1A1C1F" stroke="none" fill-rule="evenodd"></path></svg>