<svg xmlns="http://www.w3.org/2000/svg" width="28" height="28" fill="none"><g clip-path="url(#a)"><path fill="#1A1C1F" fill-rule="evenodd" d="m23.066 11.963 2.677 1.247a.874.874 0 1 1-.737 1.585l-2.3-1.07L21 14.55v1.556l1.316-.638a.87.87 0 0 1 .75-.006l2.678 1.247a.874.874 0 1 1-.737 1.585l-2.3-1.07-1.707.823v.611c0 .335-.033.662-.08.984l1.396-.677a.88.88 0 0 1 .75-.005l2.678 1.247a.874.874 0 1 1-.738 1.585l-2.302-1.07-2.589 1.254a6.72 6.72 0 0 1-5.83 3.399h-.57a6.72 6.72 0 0 1-5.83-3.399l-2.59-1.254-2.3 1.071a.875.875 0 0 1-.74-1.585l2.678-1.247a.88.88 0 0 1 .751.005l1.397.677A6.6 6.6 0 0 1 7 18.66v-.61l-1.705-.827-2.3 1.071a.876.876 0 0 1-.738-1.585l2.677-1.247a.87.87 0 0 1 .75.006l1.317.638V14.55l-1.705-.826-2.3 1.071a.876.876 0 0 1-.738-1.585l2.677-1.247a.87.87 0 0 1 .75.006l2.391 1.158h11.849l2.39-1.158a.87.87 0 0 1 .75-.006m-3.815 2.913H8.75v3.784a4.97 4.97 0 0 0 4.966 4.966h.568a4.97 4.97 0 0 0 4.966-4.966zm-4.375 5.25a.875.875 0 1 1 0 1.75h-1.75a.875.875 0 1 1 0-1.75zm1.749-3.493a.875.875 0 1 1 0 1.75h-5.262a.875.875 0 1 1 0-1.75zm2.403-14.007.11.012a.875.875 0 0 1 .711 1.012 6.3 6.3 0 0 1-1.75 3.347 6.26 6.26 0 0 1 1.75 3.352q.089.509.089 1.027a.875.875 0 0 1-.875.875H8.937a.875.875 0 0 1-.875-.875c0-.344.03-.69.089-1.027A6.26 6.26 0 0 1 9.9 6.997a6.3 6.3 0 0 1-1.75-3.347.875.875 0 0 1 1.724-.3c.174 1 .709 1.906 1.468 2.58A5.64 5.64 0 0 1 14 5.25c.942 0 1.847.247 2.657.68.759-.675 1.294-1.58 1.468-2.58a.88.88 0 0 1 .795-.722zM14 7.001c-1.908 0-3.68 1.525-4.096 3.5h8.192C17.68 8.526 15.909 7 14 7" clip-rule="evenodd"/></g><defs><clipPath id="a"><path fill="#fff" d="M0 0h28v28H0z"/></clipPath></defs></svg>