<svg width="16" height="16" viewBox="0 0 16 16" fill="none" xmlns="http://www.w3.org/2000/svg"><path d="M5.453 1.625 C 5.072 1.690,4.778 2.061,4.807 2.440 C 4.822 2.629,4.884 2.761,5.309 3.500 L 5.604 4.012 5.462 4.130 C 5.226 4.327,4.922 4.656,4.736 4.915 C 4.502 5.242,4.322 5.607,4.182 6.038 L 4.067 6.393 3.133 6.406 C 2.220 6.418,2.197 6.420,2.068 6.481 C 1.900 6.561,1.744 6.717,1.671 6.876 C 1.590 7.054,1.593 7.354,1.677 7.526 C 1.756 7.687,1.914 7.846,2.075 7.925 C 2.197 7.985,2.222 7.987,3.100 7.995 L 4.000 8.003 4.000 8.398 L 4.000 8.793 3.100 8.806 C 2.223 8.818,2.197 8.820,2.068 8.882 C 1.901 8.961,1.744 9.117,1.671 9.276 C 1.590 9.454,1.593 9.754,1.677 9.926 C 1.756 10.087,1.914 10.246,2.075 10.325 C 2.197 10.385,2.222 10.387,3.100 10.395 L 4.000 10.403 4.001 10.555 C 4.001 10.700,4.037 11.008,4.069 11.133 L 4.084 11.193 3.142 11.206 C 2.220 11.218,2.197 11.220,2.068 11.281 C 1.900 11.361,1.744 11.517,1.671 11.676 C 1.590 11.854,1.593 12.154,1.677 12.326 C 1.756 12.487,1.914 12.646,2.075 12.725 C 2.200 12.787,2.202 12.787,3.510 12.794 L 4.820 12.802 4.999 13.014 C 5.550 13.667,6.413 14.164,7.295 14.336 C 7.624 14.400,8.375 14.401,8.703 14.337 C 9.599 14.162,10.365 13.720,10.994 13.015 L 11.174 12.813 12.487 12.800 C 13.792 12.787,13.801 12.786,13.925 12.725 C 14.528 12.428,14.553 11.618,13.970 11.307 L 13.801 11.217 12.858 11.205 L 11.916 11.193 11.931 11.133 C 11.963 11.008,11.999 10.700,11.999 10.555 L 12.000 10.403 12.900 10.395 C 13.778 10.387,13.803 10.385,13.925 10.325 C 14.527 10.028,14.553 9.218,13.970 8.907 L 13.802 8.817 12.901 8.805 L 12.000 8.793 12.000 8.398 L 12.000 8.003 12.900 7.995 C 13.778 7.987,13.803 7.985,13.925 7.925 C 14.528 7.628,14.553 6.818,13.970 6.507 L 13.801 6.417 12.867 6.405 L 11.933 6.393 11.819 6.043 C 11.674 5.599,11.562 5.361,11.348 5.041 C 11.125 4.708,10.883 4.432,10.604 4.192 L 10.378 3.998 10.692 3.472 C 11.086 2.812,11.173 2.641,11.192 2.481 C 11.223 2.215,11.094 1.925,10.874 1.769 C 10.721 1.660,10.589 1.621,10.380 1.622 C 10.240 1.623,10.173 1.639,10.035 1.707 C 9.827 1.809,9.809 1.833,9.317 2.647 C 9.113 2.983,8.940 3.269,8.931 3.283 C 8.922 3.299,8.818 3.293,8.665 3.268 C 8.233 3.198,7.479 3.220,7.092 3.314 C 7.078 3.317,6.914 3.062,6.729 2.747 C 6.261 1.949,6.178 1.825,6.061 1.752 C 5.885 1.641,5.651 1.592,5.453 1.625 M8.575 4.880 C 9.235 5.049,9.831 5.532,10.140 6.147 C 10.176 6.220,10.215 6.307,10.225 6.340 L 10.244 6.400 8.000 6.400 L 5.756 6.400 5.775 6.340 C 5.870 6.033,6.198 5.591,6.520 5.335 C 7.106 4.869,7.871 4.700,8.575 4.880 M10.398 8.847 C 10.397 9.312,10.386 9.969,10.375 10.307 C 10.358 10.836,10.347 10.944,10.296 11.093 C 10.041 11.842,9.512 12.391,8.775 12.672 L 8.547 12.759 8.000 12.759 L 7.453 12.759 7.225 12.672 C 6.589 12.430,6.077 11.958,5.812 11.371 C 5.631 10.971,5.627 10.932,5.608 9.393 L 5.591 8.000 7.996 8.000 L 10.400 8.000 10.398 8.847 M7.066 9.622 C 6.899 9.648,6.670 9.784,6.567 9.918 C 6.392 10.145,6.358 10.467,6.480 10.728 C 6.555 10.887,6.726 11.059,6.880 11.131 C 6.995 11.184,7.041 11.187,8.000 11.187 C 8.991 11.187,9.001 11.186,9.125 11.125 C 9.725 10.830,9.753 10.018,9.175 9.710 L 9.011 9.622 8.099 9.613 C 7.597 9.607,7.133 9.612,7.066 9.622 " fill="#1A1C1F" stroke="none" fill-rule="evenodd"></path></svg>