<svg xmlns="http://www.w3.org/2000/svg" width="32" height="32" fill="none"><g clip-path="url(#a)"><path fill="#1A1C1F" fill-rule="evenodd" d="m26.361 13.672 3.06 1.425a1 1 0 1 1-.843 1.812l-2.629-1.224-1.949.944v1.778l1.504-.73a1 1 0 0 1 .858-.006l3.06 1.425a1 1 0 1 1-.843 1.812l-2.629-1.224-1.95.942v.698c0 .383-.038.756-.092 1.124l1.596-.773a1 1 0 0 1 .858-.006l3.06 1.425a1 1 0 1 1-.844 1.812l-2.63-1.224-2.959 1.434C21.666 27.432 19.178 29 16.325 29h-.65c-2.852 0-5.341-1.568-6.664-3.884l-2.959-1.433-2.63 1.224a1 1 0 0 1-.844-1.812l3.06-1.425a1 1 0 0 1 .858.006l1.596.773A7.6 7.6 0 0 1 8 21.326v-.698l-1.949-.944-2.629 1.224a1.001 1.001 0 0 1-1.328-.484 1 1 0 0 1 .485-1.328l3.06-1.425a1 1 0 0 1 .858.007l1.504.729v-1.778l-1.949-.944-2.629 1.224a1.001 1.001 0 0 1-1.328-.484 1 1 0 0 1 .485-1.328l3.06-1.425a1 1 0 0 1 .858.007l2.732 1.324h13.541l2.732-1.324a1 1 0 0 1 .858-.007m-4.36 3.33h-12v4.324a5.68 5.68 0 0 0 5.675 5.676h.65a5.68 5.68 0 0 0 5.675-5.676zm-5 5.999a1 1 0 1 1 0 2h-2a1 1 0 1 1 0-2zM19 19.01a1 1 0 1 1 0 2h-6.014a1 1 0 1 1 0-2zM11.286 3.828c.199 1.144.81 2.179 1.677 2.949A6.45 6.45 0 0 1 16 6c1.077 0 2.111.283 3.037.777.867-.771 1.478-1.806 1.677-2.95a1 1 0 0 1 1.971.344 7.2 7.2 0 0 1-2.001 3.826 7.15 7.15 0 0 1 2.001 3.83q.1.582.101 1.174a1 1 0 0 1-1 1H10.214a1 1 0 0 1-1-1c0-.393.034-.787.101-1.173a7.15 7.15 0 0 1 2.001-3.831 7.2 7.2 0 0 1-2.001-3.825 1 1 0 0 1 1.971-.344M16.001 8c-2.181 0-4.205 1.743-4.681 4h9.362c-.476-2.257-2.5-4-4.681-4" clip-rule="evenodd"/></g><defs><clipPath id="a"><path fill="#fff" d="M0 0h32v32H0z"/></clipPath></defs></svg>