<svg xmlns="http://www.w3.org/2000/svg" width="20" height="20" fill="none"><g clip-path="url(#a)"><path fill="#1A1C1F" fill-rule="evenodd" d="m7.865 2.499.961 1.656A5 5 0 0 1 10 4c.396 0 .776.058 1.145.145l.998-1.66a1.001 1.001 0 0 1 1.714 1.03L12.966 5A5 5 0 0 1 14.899 8H17a1 1 0 1 1 0 2h-2v1h2a1 1 0 1 1 0 2h-2q-.001.514-.101 1H17a1 1 0 1 1 0 2h-3.026c-.913 1.207-2.345 2-3.974 2s-3.065-.794-3.978-2.004L6 16H3a1 1 0 1 1 0-2h2.101A5 5 0 0 1 5 13H3a1 1 0 1 1 0-2h2v-1H3a1 1 0 1 1 0-2h2.101a5 5 0 0 1 1.912-2.985l-.878-1.513a1 1 0 0 1 1.73-1.004M13 10H7v3c0 1.654 1.346 3 3 3s3-1.346 3-3zm-2 2a1 1 0 1 1 0 2H9a1 1 0 1 1 0-2zm-1-6a3 3 0 0 0-2.816 2h5.632A3 3 0 0 0 10 6" clip-rule="evenodd"/></g><defs><clipPath id="a"><path fill="#fff" d="M0 0h20v20H0z"/></clipPath></defs></svg>