<svg xmlns="http://www.w3.org/2000/svg" width="16" height="16" fill="none"><g clip-path="url(#a)"><path fill="#1A1C1F" fill-rule="evenodd" d="m6.292 1.999.769 1.325C7.363 3.25 7.675 3.2 8 3.2c.317 0 .62.046.916.116l.798-1.328a.801.801 0 0 1 1.372.824L10.373 4a4 4 0 0 1 1.546 2.402H13.6a.8.8 0 1 1 0 1.6H12v.8h1.6a.8.8 0 1 1 0 1.6H12q-.001.41-.08.8h1.68a.8.8 0 1 1 0 1.6h-2.42A3.98 3.98 0 0 1 8 14.4a3.98 3.98 0 0 1-3.182-1.604q-.01.002-.018.004H2.4a.8.8 0 1 1 0-1.6h1.68a4 4 0 0 1-.08-.8H2.4a.8.8 0 1 1 0-1.6H4V8H2.4a.8.8 0 1 1 0-1.6h1.68a4 4 0 0 1 1.53-2.388l-.702-1.21a.8.8 0 0 1 1.384-.804M10.4 8.001H5.6v2.4c0 1.323 1.077 2.4 2.4 2.4s2.4-1.077 2.4-2.4zM8.8 9.6a.8.8 0 1 1 0 1.6H7.2a.8.8 0 1 1 0-1.6zM8 4.8a2.4 2.4 0 0 0-2.253 1.6h4.506A2.4 2.4 0 0 0 8 4.8" clip-rule="evenodd"/></g><defs><clipPath id="a"><path fill="#fff" d="M0 0h16v16H0z"/></clipPath></defs></svg>