<svg width="28" height="28" viewBox="0 0 28 28" fill="none" xmlns="http://www.w3.org/2000/svg"><path d="M8.551 2.780 C 8.203 2.989,8.091 3.315,8.195 3.822 C 8.407 4.859,8.921 5.890,9.622 6.685 L 9.900 7.000 9.622 7.315 C 8.651 8.416,8.029 10.031,8.081 11.320 C 8.095 11.652,8.113 11.719,8.232 11.874 C 8.306 11.972,8.463 12.096,8.582 12.151 C 8.796 12.250,8.817 12.250,13.277 12.263 C 15.741 12.270,18.125 12.259,18.574 12.239 C 19.370 12.202,19.397 12.198,19.563 12.071 C 19.878 11.830,19.904 11.757,19.896 11.130 C 19.887 10.476,19.833 10.137,19.642 9.550 C 19.374 8.727,18.929 7.940,18.378 7.315 L 18.100 7.000 18.377 6.685 C 19.437 5.481,20.119 3.585,19.703 3.000 C 19.560 2.799,19.253 2.660,18.953 2.660 C 18.466 2.660,18.287 2.856,18.037 3.663 C 17.768 4.529,17.441 5.112,16.889 5.705 L 16.683 5.926 16.163 5.716 C 15.250 5.345,15.036 5.309,13.869 5.330 C 12.873 5.348,12.849 5.350,12.400 5.500 C 12.149 5.584,11.802 5.716,11.630 5.793 L 11.317 5.935 11.090 5.686 C 10.521 5.061,10.235 4.547,9.962 3.663 C 9.710 2.846,9.531 2.659,8.996 2.660 C 8.816 2.661,8.697 2.693,8.551 2.780 M14.874 7.120 C 15.284 7.220,15.894 7.505,16.256 7.764 C 16.653 8.048,17.200 8.615,17.464 9.014 C 17.690 9.357,17.903 9.824,18.030 10.255 L 18.102 10.500 14.167 10.500 C 12.002 10.500,10.166 10.487,10.086 10.471 C 10.006 10.455,9.940 10.414,9.940 10.379 C 9.940 10.235,10.319 9.356,10.520 9.033 C 11.176 7.980,12.425 7.174,13.627 7.029 C 13.916 6.994,14.550 7.040,14.874 7.120 M4.877 12.013 C 4.281 12.244,2.163 13.267,2.036 13.385 C 1.784 13.619,1.701 14.017,1.836 14.341 C 1.921 14.543,2.195 14.776,2.431 14.847 C 2.675 14.920,2.747 14.896,4.169 14.251 C 4.758 13.985,5.268 13.767,5.303 13.767 C 5.338 13.767,5.734 13.944,6.183 14.160 L 7.000 14.553 7.000 15.326 L 7.000 16.099 6.755 15.988 C 6.620 15.928,6.308 15.779,6.060 15.659 C 5.503 15.387,5.338 15.361,4.961 15.488 C 4.580 15.617,2.415 16.630,2.177 16.791 C 1.897 16.981,1.805 17.133,1.785 17.441 C 1.753 17.933,2.046 18.290,2.545 18.366 C 2.753 18.397,3.094 18.262,4.541 17.578 L 5.280 17.229 5.755 17.452 C 6.017 17.574,6.404 17.762,6.616 17.868 L 7.000 18.061 7.000 18.829 L 7.000 19.597 6.545 19.383 C 5.401 18.846,5.383 18.842,4.920 19.005 C 4.391 19.191,2.265 20.204,2.076 20.359 C 1.669 20.695,1.665 21.286,2.069 21.640 C 2.162 21.722,2.325 21.815,2.431 21.847 C 2.672 21.919,2.776 21.885,3.967 21.339 C 4.442 21.122,4.935 20.896,5.063 20.838 L 5.297 20.732 6.573 21.345 L 7.850 21.958 8.119 22.349 C 9.186 23.896,10.645 24.864,12.530 25.273 C 13.064 25.389,14.932 25.390,15.470 25.274 C 15.997 25.161,16.867 24.865,17.272 24.661 C 18.201 24.193,19.246 23.275,19.838 22.405 L 20.137 21.967 20.953 21.572 C 21.402 21.354,21.983 21.076,22.242 20.953 L 22.714 20.730 23.456 21.076 C 24.563 21.594,25.263 21.887,25.390 21.886 C 25.555 21.884,25.858 21.732,26.002 21.578 C 26.337 21.219,26.301 20.670,25.923 20.359 C 25.734 20.203,23.520 19.151,23.044 18.990 C 22.682 18.868,22.486 18.892,22.021 19.117 C 21.832 19.209,21.524 19.354,21.338 19.439 L 21.000 19.595 21.000 18.828 L 21.000 18.061 21.432 17.844 C 21.669 17.724,22.055 17.538,22.289 17.429 L 22.714 17.231 23.456 17.579 C 24.951 18.280,25.249 18.397,25.455 18.366 C 25.954 18.290,26.247 17.933,26.215 17.441 C 26.195 17.133,26.103 16.981,25.823 16.791 C 25.585 16.630,23.420 15.617,23.039 15.488 C 22.662 15.361,22.497 15.387,21.940 15.659 C 21.692 15.779,21.380 15.928,21.245 15.988 L 21.000 16.099 21.000 15.326 L 21.000 14.553 21.817 14.160 C 22.266 13.944,22.664 13.767,22.700 13.767 C 22.737 13.767,23.246 13.984,23.832 14.251 C 25.216 14.880,25.311 14.913,25.550 14.846 C 26.026 14.714,26.255 14.395,26.216 13.921 C 26.192 13.632,26.094 13.475,25.821 13.290 C 25.592 13.135,23.426 12.121,23.024 11.981 C 22.633 11.844,22.561 11.866,21.117 12.557 L 19.950 13.114 13.994 13.114 L 8.037 13.113 7.064 12.642 C 5.908 12.083,5.468 11.899,5.289 11.902 C 5.216 11.904,5.031 11.953,4.877 12.013 M19.215 17.185 C 19.193 19.815,19.189 19.845,18.760 20.752 C 18.474 21.358,18.318 21.582,17.837 22.081 C 17.214 22.728,16.619 23.097,15.688 23.415 L 15.190 23.585 14.000 23.584 L 12.810 23.583 12.343 23.430 C 10.896 22.955,9.848 22.041,9.213 20.701 C 8.826 19.885,8.821 19.843,8.788 17.208 L 8.758 14.887 13.997 14.887 L 19.235 14.887 19.215 17.185 M11.304 16.700 C 11.035 16.724,10.934 16.756,10.810 16.855 C 10.419 17.168,10.401 17.734,10.771 18.122 C 11.032 18.397,10.903 18.387,13.982 18.387 L 16.815 18.387 17.040 18.243 C 17.308 18.071,17.443 17.868,17.483 17.580 C 17.519 17.315,17.378 16.994,17.150 16.820 L 16.996 16.703 14.320 16.686 C 12.848 16.677,11.491 16.683,11.304 16.700 M13.113 20.153 C 12.947 20.171,12.768 20.209,12.717 20.239 C 12.572 20.321,12.378 20.543,12.323 20.688 C 12.199 21.017,12.333 21.510,12.599 21.699 C 12.778 21.827,13.237 21.885,14.075 21.886 C 15.178 21.887,15.418 21.815,15.625 21.417 C 15.840 21.004,15.699 20.510,15.295 20.261 C 15.160 20.177,15.041 20.163,14.279 20.144 C 13.805 20.132,13.280 20.136,13.113 20.153 " fill="#1A1C1F" stroke="none" fill-rule="evenodd"></path></svg>