<svg width="20" height="20" viewBox="0 0 20 20" fill="none" xmlns="http://www.w3.org/2000/svg"><path d="M6.800 2.031 C 6.509 2.091,6.212 2.328,6.088 2.597 C 6.037 2.709,6.018 2.816,6.018 3.000 C 6.019 3.292,6.032 3.321,6.632 4.366 L 7.005 5.015 6.827 5.163 C 6.532 5.409,6.152 5.820,5.920 6.144 C 5.628 6.552,5.402 7.009,5.227 7.547 L 5.083 7.990 3.913 8.008 L 2.742 8.025 2.534 8.136 C 1.807 8.523,1.841 9.536,2.594 9.906 C 2.746 9.981,2.777 9.984,3.875 9.994 L 5.000 10.004 5.000 10.497 L 5.000 10.990 3.871 11.007 L 2.743 11.025 2.535 11.135 C 1.807 11.523,1.841 12.535,2.594 12.906 C 2.746 12.981,2.777 12.984,3.875 12.994 L 5.000 13.004 5.001 13.194 C 5.001 13.375,5.047 13.759,5.086 13.916 L 5.105 13.990 3.923 14.008 L 2.742 14.025 2.534 14.136 C 1.807 14.523,1.841 15.536,2.594 15.906 C 2.750 15.983,2.753 15.983,4.388 15.993 L 6.025 16.003 6.249 16.268 C 6.936 17.082,8.019 17.706,9.119 17.920 C 9.530 18.001,10.469 18.001,10.878 17.921 C 11.993 17.703,12.980 17.135,13.742 16.272 L 13.967 16.017 15.609 16.000 C 17.240 15.983,17.251 15.983,17.406 15.906 C 18.158 15.536,18.192 14.522,17.466 14.136 L 17.258 14.025 16.077 14.008 L 14.895 13.990 14.914 13.916 C 14.953 13.759,14.999 13.375,14.999 13.194 L 15.000 13.004 16.125 12.994 C 17.223 12.984,17.254 12.981,17.406 12.906 C 18.158 12.536,18.192 11.522,17.465 11.135 L 17.257 11.025 16.129 11.007 L 15.000 10.990 15.000 10.497 L 15.000 10.004 16.125 9.994 C 17.223 9.984,17.254 9.981,17.406 9.906 C 18.158 9.536,18.192 8.522,17.466 8.136 L 17.258 8.025 16.087 8.008 L 14.917 7.990 14.774 7.553 C 14.592 6.999,14.452 6.701,14.185 6.302 C 13.910 5.888,13.574 5.506,13.239 5.224 L 12.971 4.998 13.349 4.372 C 13.935 3.399,13.981 3.299,13.982 3.000 C 13.982 2.583,13.788 2.282,13.406 2.107 C 13.003 1.923,12.466 2.051,12.219 2.392 C 12.158 2.476,11.900 2.888,11.646 3.308 C 11.391 3.729,11.175 4.087,11.164 4.104 C 11.153 4.122,11.008 4.113,10.800 4.080 C 10.380 4.014,9.333 4.031,9.025 4.109 L 8.834 4.158 8.444 3.487 C 7.874 2.508,7.723 2.282,7.577 2.190 C 7.356 2.051,7.028 1.984,6.800 2.031 M10.729 6.103 C 11.572 6.318,12.346 6.965,12.704 7.753 C 12.757 7.870,12.800 7.973,12.800 7.983 C 12.800 7.992,11.539 8.000,9.998 8.000 L 7.196 8.000 7.218 7.925 C 7.321 7.586,7.711 7.044,8.076 6.733 C 8.819 6.100,9.802 5.867,10.729 6.103 M12.988 11.742 C 12.964 13.622,12.959 13.669,12.772 14.122 C 12.614 14.503,12.359 14.868,12.037 15.173 C 11.707 15.486,11.373 15.691,10.941 15.846 C 10.653 15.949,10.644 15.950,10.000 15.950 C 9.356 15.950,9.347 15.949,9.059 15.846 C 8.643 15.697,8.295 15.487,7.990 15.200 C 7.673 14.903,7.503 14.680,7.331 14.337 C 7.081 13.839,7.059 13.732,7.031 12.900 C 7.017 12.488,7.004 11.666,7.003 11.075 L 7.000 10.000 10.005 10.000 L 13.011 10.000 12.988 11.742 M8.833 12.028 C 8.624 12.061,8.337 12.230,8.209 12.397 C 8.068 12.580,7.987 12.860,8.010 13.083 C 8.045 13.426,8.287 13.769,8.595 13.912 C 8.745 13.981,8.791 13.983,10.000 13.983 C 11.239 13.983,11.251 13.983,11.406 13.906 C 12.155 13.538,12.192 12.522,11.471 12.138 L 11.268 12.030 10.126 12.017 C 9.497 12.010,8.916 12.014,8.833 12.028 " fill="#1A1C1F" stroke="none" fill-rule="evenodd"></path></svg>