<svg width="24" height="24" viewBox="0 0 24 24" fill="none" xmlns="http://www.w3.org/2000/svg"><path d="M5.000 2.036 C 3.886 2.061,3.854 2.064,3.613 2.167 C 2.906 2.468,2.339 3.079,2.095 3.800 C 2.026 4.002,2.020 4.174,2.020 5.940 C 2.020 8.085,2.019 8.078,2.295 8.659 L 2.467 9.022 2.333 9.261 C 2.259 9.393,2.159 9.626,2.109 9.780 C 2.022 10.054,2.020 10.103,2.020 11.960 C 2.020 14.083,2.020 14.079,2.295 14.659 L 2.467 15.022 2.333 15.261 C 2.260 15.393,2.160 15.617,2.113 15.760 C 2.030 16.007,2.025 16.107,2.009 17.716 C 1.990 19.642,2.016 20.014,2.201 20.455 C 2.432 21.007,2.880 21.479,3.420 21.740 C 3.952 21.996,3.365 21.980,12.040 21.980 L 19.980 21.980 20.304 21.855 C 21.046 21.569,21.561 21.070,21.836 20.369 C 21.981 20.002,22.009 19.527,21.990 17.716 C 21.971 15.825,21.973 15.842,21.678 15.290 L 21.523 15.000 21.679 14.710 C 21.984 14.139,21.980 14.177,21.980 12.000 C 21.980 9.823,21.984 9.861,21.679 9.290 L 21.523 9.000 21.679 8.710 C 21.984 8.140,21.980 8.172,21.980 6.040 C 21.980 4.629,21.967 4.083,21.928 3.920 C 21.751 3.165,21.113 2.455,20.341 2.155 L 20.057 2.045 13.099 2.027 C 9.271 2.018,5.627 2.021,5.000 2.036 M19.750 4.071 C 19.800 4.100,19.872 4.171,19.910 4.230 C 19.974 4.327,19.980 4.483,19.980 6.000 C 19.980 7.517,19.974 7.673,19.910 7.770 C 19.764 7.993,20.251 7.980,12.060 7.980 C 6.112 7.980,4.424 7.969,4.297 7.930 C 4.025 7.848,4.023 7.837,4.007 6.300 C 3.990 4.651,4.011 4.318,4.140 4.168 C 4.226 4.068,4.263 4.058,4.626 4.036 C 4.843 4.023,8.314 4.014,12.340 4.016 C 18.224 4.019,19.678 4.030,19.750 4.071 M5.773 5.036 C 4.752 5.295,4.764 6.729,5.790 6.965 C 6.728 7.182,7.383 6.011,6.710 5.322 C 6.472 5.078,6.080 4.959,5.773 5.036 M19.750 10.071 C 19.800 10.100,19.872 10.171,19.910 10.230 C 19.974 10.327,19.980 10.483,19.980 12.000 C 19.980 13.517,19.974 13.673,19.910 13.770 C 19.764 13.993,20.251 13.980,12.060 13.980 C 6.112 13.980,4.424 13.969,4.297 13.930 C 4.025 13.848,4.023 13.837,4.007 12.300 C 3.990 10.651,4.011 10.318,4.140 10.168 C 4.226 10.068,4.263 10.058,4.626 10.036 C 4.843 10.023,8.314 10.014,12.340 10.016 C 18.224 10.019,19.678 10.030,19.750 10.071 M5.773 11.036 C 4.752 11.295,4.764 12.729,5.790 12.965 C 6.728 13.182,7.383 12.011,6.710 11.322 C 6.472 11.078,6.080 10.959,5.773 11.036 M19.750 16.071 C 19.800 16.100,19.872 16.171,19.910 16.230 C 19.974 16.327,19.980 16.483,19.980 18.000 C 19.980 19.517,19.974 19.673,19.910 19.770 C 19.764 19.993,20.251 19.980,12.060 19.980 C 6.112 19.980,4.424 19.969,4.297 19.930 C 4.025 19.848,4.023 19.837,4.007 18.300 C 3.990 16.651,4.011 16.318,4.140 16.168 C 4.226 16.068,4.263 16.058,4.626 16.036 C 4.843 16.023,8.314 16.014,12.340 16.016 C 18.224 16.019,19.678 16.030,19.750 16.071 M5.773 17.036 C 4.752 17.295,4.764 18.729,5.790 18.965 C 6.728 19.182,7.383 18.011,6.710 17.322 C 6.472 17.078,6.080 16.959,5.773 17.036 " fill="#1A1C1F" stroke="none" fill-rule="evenodd"></path></svg>