<svg xmlns="http://www.w3.org/2000/svg" width="20" height="20" fill="none"><path fill="#1A1C1F" fill-rule="evenodd" d="M3.567 3.052a1.9 1.9 0 0 0-.968.545 1.85 1.85 0 0 0-.533.923 1.86 1.86 0 0 0 0 .96c.096.377.244.632.533.921s.544.437.921.533C3.772 6.999 3.912 7 10 7s6.228-.001 6.48-.066c.377-.096.632-.244.921-.533s.437-.544.533-.921a2 2 0 0 0-.174-1.424c-.159-.304-.548-.682-.86-.834-.478-.235-.047-.221-6.917-.219-5.185.002-6.235.01-6.416.049m.881 1.062c.348.17.534.478.535.886 0 .207-.016.282-.093.441a.99.99 0 0 1-1.233.492 1 1 0 0 1-.491-1.477c.266-.419.821-.567 1.282-.342m-.881 3.938a1.9 1.9 0 0 0-.968.545 1.85 1.85 0 0 0-.533.923 1.86 1.86 0 0 0 0 .96c.096.377.244.632.533.921s.544.437.921.533c.252.065.392.066 6.48.066s6.228-.001 6.48-.066c.377-.096.632-.244.921-.533s.437-.544.533-.921a2 2 0 0 0-.174-1.424c-.159-.304-.548-.682-.86-.834-.478-.235-.047-.221-6.917-.219-5.185.002-6.235.01-6.416.049m.881 1.062c.348.17.534.478.535.886 0 .207-.016.282-.093.441a1 1 0 0 1-.547.492c-.735.275-1.494-.397-1.311-1.161a.993.993 0 0 1 1.416-.658m-.881 3.938a1.9 1.9 0 0 0-.968.545 1.85 1.85 0 0 0-.533.923 1.86 1.86 0 0 0 0 .96c.096.377.244.632.533.921s.544.437.921.533c.252.065.392.066 6.48.066s6.228-.001 6.48-.066c.377-.096.632-.244.921-.533s.437-.544.533-.921a2 2 0 0 0-.174-1.424c-.159-.304-.548-.682-.86-.834-.478-.235-.047-.221-6.917-.219-5.185.002-6.235.01-6.416.049m.881 1.062c.348.17.534.478.535.886 0 .207-.016.282-.093.441a1 1 0 0 1-.547.492c-.735.275-1.494-.397-1.311-1.161a.993.993 0 0 1 1.416-.658"/></svg>