<svg xmlns="http://www.w3.org/2000/svg" width="16" height="16" fill="none"><g clip-path="url(#a)"><path fill="#1A1C1F" fill-rule="evenodd" d="M12.8 10.4a1.6 1.6 0 0 1 0 3.2H3.2a1.6 1.6 0 1 1 0-3.2zm-9.6.8a.8.8 0 1 0 0 1.6.8.8 0 0 0 0-1.6m9.6-4.8a1.6 1.6 0 0 1 0 3.2H3.2a1.6 1.6 0 1 1 0-3.2zm-9.6.8a.8.8 0 1 0 0 1.6.8.8 0 0 0 0-1.6m9.6-4.8a1.6 1.6 0 0 1 0 3.2H3.2a1.6 1.6 0 1 1 0-3.2zm-9.6.8a.8.8 0 1 0 0 1.6.8.8 0 0 0 0-1.6" clip-rule="evenodd"/></g><defs><clipPath id="a"><path fill="#fff" d="M0 0h16v16H0z"/></clipPath></defs></svg>