<svg width="12" height="12" viewBox="0 0 12 12" fill="none" xmlns="http://www.w3.org/2000/svg"><path d="M2.570 1.819 C 2.107 1.831,2.086 1.833,1.960 1.886 C 1.705 1.993,1.447 2.232,1.330 2.470 C 1.264 2.604,1.200 2.862,1.200 2.994 C 1.200 3.246,1.307 3.544,1.467 3.737 C 1.638 3.945,1.820 4.069,2.060 4.143 L 2.210 4.190 6.000 4.190 L 9.790 4.190 9.948 4.141 C 10.310 4.029,10.615 3.730,10.734 3.370 C 10.832 3.072,10.803 2.714,10.660 2.441 C 10.512 2.161,10.153 1.887,9.868 1.837 C 9.735 1.813,3.378 1.798,2.570 1.819 M2.674 2.482 C 2.888 2.585,2.980 2.744,2.980 3.014 C 2.980 3.131,2.970 3.181,2.930 3.260 C 2.866 3.386,2.758 3.494,2.642 3.547 C 2.507 3.609,2.283 3.606,2.153 3.542 C 1.895 3.415,1.759 3.130,1.828 2.860 C 1.928 2.473,2.303 2.305,2.674 2.482 M2.570 4.819 C 2.107 4.831,2.086 4.833,1.960 4.886 C 1.705 4.993,1.447 5.232,1.330 5.470 C 1.264 5.604,1.200 5.862,1.200 5.994 C 1.200 6.246,1.307 6.544,1.467 6.737 C 1.638 6.945,1.820 7.069,2.060 7.143 L 2.210 7.190 6.000 7.190 L 9.790 7.190 9.948 7.141 C 10.310 7.029,10.615 6.730,10.734 6.370 C 10.832 6.072,10.803 5.714,10.660 5.441 C 10.512 5.161,10.153 4.887,9.868 4.837 C 9.735 4.813,3.378 4.798,2.570 4.819 M2.674 5.482 C 2.888 5.585,2.980 5.744,2.980 6.014 C 2.980 6.131,2.970 6.181,2.930 6.260 C 2.866 6.386,2.770 6.482,2.647 6.542 C 2.513 6.608,2.291 6.609,2.157 6.543 C 2.039 6.485,1.914 6.360,1.857 6.242 C 1.793 6.109,1.793 5.886,1.859 5.752 C 2.012 5.437,2.349 5.326,2.674 5.482 M2.570 7.819 C 2.107 7.831,2.086 7.833,1.960 7.886 C 1.705 7.993,1.447 8.232,1.330 8.470 C 1.264 8.604,1.200 8.862,1.200 8.994 C 1.200 9.246,1.307 9.544,1.467 9.737 C 1.638 9.945,1.820 10.069,2.060 10.143 L 2.210 10.190 6.000 10.190 L 9.790 10.190 9.948 10.141 C 10.310 10.029,10.615 9.730,10.734 9.370 C 10.832 9.072,10.803 8.714,10.660 8.441 C 10.512 8.161,10.153 7.887,9.868 7.837 C 9.735 7.813,3.378 7.798,2.570 7.819 M2.674 8.482 C 2.888 8.585,2.980 8.744,2.980 9.014 C 2.980 9.131,2.970 9.181,2.930 9.260 C 2.866 9.386,2.770 9.482,2.647 9.542 C 2.513 9.608,2.291 9.609,2.157 9.543 C 2.039 9.485,1.914 9.360,1.857 9.242 C 1.793 9.109,1.793 8.886,1.859 8.752 C 2.012 8.437,2.349 8.326,2.674 8.482 " fill="#1A1C1F" stroke="none" fill-rule="evenodd"></path></svg>