<svg xmlns="http://www.w3.org/2000/svg" width="12" height="12" fill="none"><g clip-path="url(#a)"><path fill="#1A1C1F" fill-rule="evenodd" d="M9 1.792a1.8 1.8 0 0 1 1.342 3c.284.318.458.739.458 1.2s-.174.882-.459 1.2c.286.319.459.74.459 1.2 0 .959-.771 1.8-1.8 1.816l-6-.016a1.8 1.8 0 0 1-1.342-3 1.8 1.8 0 0 1-.458-1.2c0-.46.173-.881.458-1.2a1.798 1.798 0 0 1 1.342-3zm-6 6a.6.6 0 0 0 0 1.2h6a.6.6 0 0 0 0-1.2zm0-2.4a.6.6 0 0 0-.6.6c0 .308.256.6.6.6h6a.6.6 0 0 0 .6-.6c0-.308-.23-.58-.6-.6zm0-2.4a.6.6 0 0 0-.6.6c0 .308.257.6.6.6h6a.6.6 0 0 0 0-1.2z" clip-rule="evenodd"/></g><defs><clipPath id="a"><path fill="#fff" d="M0 0h12v12H0z"/></clipPath></defs></svg>