<svg width="12" height="12" viewBox="0 0 12 12" fill="none" xmlns="http://www.w3.org/2000/svg"><path d="M3.120 1.818 C 2.610 1.831,2.584 1.833,2.433 1.886 C 2.082 2.009,1.821 2.193,1.594 2.479 C 1.093 3.108,1.075 3.987,1.548 4.647 L 1.654 4.794 1.565 4.912 C 1.447 5.067,1.311 5.351,1.261 5.548 C 1.128 6.065,1.232 6.606,1.548 7.047 L 1.654 7.194 1.565 7.312 C 1.447 7.467,1.314 7.748,1.258 7.960 C 1.198 8.187,1.193 8.601,1.248 8.808 C 1.400 9.379,1.796 9.836,2.331 10.059 C 2.650 10.192,2.432 10.184,5.931 10.194 C 8.273 10.202,9.151 10.198,9.261 10.181 C 9.635 10.123,9.957 9.960,10.233 9.687 C 10.522 9.401,10.679 9.124,10.762 8.750 C 10.804 8.561,10.794 8.144,10.742 7.950 C 10.689 7.750,10.553 7.467,10.435 7.312 L 10.345 7.193 10.435 7.072 C 10.557 6.906,10.670 6.676,10.732 6.466 C 10.777 6.312,10.784 6.253,10.784 5.999 C 10.784 5.761,10.776 5.678,10.741 5.549 C 10.683 5.339,10.569 5.098,10.446 4.930 L 10.345 4.793 10.432 4.675 C 10.564 4.496,10.632 4.366,10.698 4.170 C 10.855 3.697,10.823 3.237,10.601 2.790 C 10.378 2.341,9.988 2.018,9.486 1.867 L 9.310 1.815 6.480 1.810 C 4.923 1.808,3.411 1.811,3.120 1.818 M9.254 3.055 C 9.368 3.116,9.470 3.221,9.530 3.340 C 9.602 3.482,9.601 3.709,9.528 3.856 C 9.467 3.979,9.351 4.086,9.204 4.155 L 9.097 4.204 5.994 4.195 C 3.672 4.188,2.871 4.179,2.814 4.162 C 2.699 4.125,2.539 3.984,2.476 3.862 C 2.428 3.771,2.420 3.732,2.420 3.593 C 2.421 3.404,2.456 3.309,2.572 3.181 C 2.693 3.046,2.730 3.035,3.100 3.019 C 3.281 3.012,4.721 3.006,6.300 3.008 L 9.170 3.010 9.254 3.055 M9.262 5.461 C 9.364 5.513,9.487 5.636,9.539 5.738 C 9.602 5.862,9.597 6.118,9.528 6.256 C 9.467 6.379,9.351 6.486,9.204 6.555 L 9.097 6.604 5.994 6.595 C 3.672 6.588,2.871 6.579,2.814 6.562 C 2.699 6.525,2.539 6.384,2.476 6.262 C 2.428 6.171,2.420 6.132,2.420 5.993 C 2.421 5.804,2.456 5.709,2.572 5.581 C 2.694 5.445,2.728 5.435,3.120 5.418 C 3.313 5.410,4.755 5.407,6.326 5.412 C 9.151 5.420,9.183 5.421,9.262 5.461 M9.226 7.841 C 9.315 7.866,9.480 8.022,9.538 8.136 C 9.603 8.263,9.598 8.516,9.528 8.656 C 9.467 8.779,9.351 8.886,9.204 8.955 L 9.097 9.004 5.994 8.995 C 3.672 8.988,2.871 8.979,2.814 8.962 C 2.699 8.925,2.539 8.784,2.476 8.662 C 2.428 8.571,2.420 8.532,2.420 8.393 C 2.421 8.204,2.456 8.109,2.572 7.981 C 2.696 7.843,2.726 7.835,3.140 7.818 C 3.694 7.796,9.137 7.817,9.226 7.841 " fill="#1A1C1F" stroke="none" fill-rule="evenodd"></path></svg>