<svg width="20" height="20" viewBox="0 0 20 20" fill="none" xmlns="http://www.w3.org/2000/svg"><path d="M4.267 3.032 C 3.519 3.051,3.474 3.056,3.278 3.139 C 2.804 3.340,2.358 3.771,2.171 4.208 C 1.817 5.033,2.036 5.916,2.748 6.532 C 2.956 6.711,3.137 6.813,3.417 6.906 L 3.650 6.983 10.000 6.983 L 16.350 6.983 16.583 6.906 C 16.973 6.776,17.247 6.584,17.555 6.224 C 17.854 5.875,18.028 5.321,17.989 4.849 C 17.966 4.581,17.849 4.207,17.719 3.985 C 17.599 3.779,17.243 3.431,17.005 3.286 C 16.670 3.083,16.583 3.065,15.800 3.032 C 15.023 3.000,5.548 3.000,4.267 3.032 M4.457 4.137 C 4.814 4.308,4.967 4.574,4.967 5.024 C 4.967 5.219,4.950 5.302,4.883 5.433 C 4.777 5.644,4.597 5.823,4.403 5.912 C 4.180 6.014,3.807 6.009,3.587 5.901 C 2.971 5.600,2.823 4.777,3.300 4.300 C 3.605 3.995,4.033 3.935,4.457 4.137 M4.267 8.032 C 3.519 8.051,3.474 8.056,3.278 8.139 C 2.804 8.340,2.358 8.771,2.171 9.208 C 1.817 10.033,2.036 10.916,2.748 11.532 C 2.956 11.711,3.137 11.813,3.417 11.906 L 3.650 11.983 10.000 11.983 L 16.350 11.983 16.583 11.906 C 16.973 11.776,17.247 11.584,17.555 11.224 C 17.854 10.875,18.028 10.321,17.989 9.849 C 17.966 9.581,17.849 9.207,17.719 8.985 C 17.599 8.779,17.243 8.431,17.005 8.286 C 16.670 8.083,16.583 8.065,15.800 8.032 C 15.023 8.000,5.548 8.000,4.267 8.032 M4.457 9.136 C 4.814 9.309,4.967 9.575,4.967 10.024 C 4.967 10.219,4.950 10.302,4.883 10.433 C 4.777 10.644,4.597 10.823,4.403 10.912 C 4.184 11.012,3.807 11.009,3.595 10.905 C 3.398 10.809,3.190 10.600,3.095 10.403 C 2.988 10.183,2.991 9.812,3.101 9.585 C 3.353 9.062,3.918 8.875,4.457 9.136 M4.267 13.032 C 3.519 13.051,3.474 13.056,3.278 13.139 C 2.804 13.340,2.358 13.771,2.171 14.208 C 1.817 15.033,2.036 15.916,2.748 16.532 C 2.956 16.711,3.137 16.813,3.417 16.906 L 3.650 16.983 10.000 16.983 L 16.350 16.983 16.583 16.906 C 16.973 16.776,17.247 16.584,17.555 16.224 C 17.854 15.875,18.028 15.321,17.989 14.849 C 17.966 14.581,17.849 14.207,17.719 13.985 C 17.599 13.779,17.243 13.431,17.005 13.286 C 16.670 13.083,16.583 13.065,15.800 13.032 C 15.023 13.000,5.548 13.000,4.267 13.032 M4.457 14.136 C 4.814 14.309,4.967 14.575,4.967 15.024 C 4.967 15.219,4.950 15.302,4.883 15.433 C 4.777 15.644,4.597 15.823,4.403 15.912 C 4.184 16.012,3.807 16.009,3.595 15.905 C 3.398 15.809,3.190 15.600,3.095 15.403 C 2.988 15.183,2.991 14.812,3.101 14.585 C 3.353 14.062,3.918 13.875,4.457 14.136 " fill="#1A1C1F" stroke="none" fill-rule="evenodd"></path></svg>