<svg width="20" height="20" viewBox="0 0 20 20" fill="none" xmlns="http://www.w3.org/2000/svg"><path d="M5.233 3.030 C 4.346 3.051,4.308 3.054,4.056 3.143 C 3.470 3.349,3.036 3.655,2.656 4.132 C 1.822 5.180,1.791 6.645,2.581 7.745 L 2.757 7.990 2.608 8.187 C 2.410 8.448,2.183 8.922,2.101 9.245 C 1.881 10.111,2.054 11.011,2.581 11.745 L 2.757 11.990 2.608 12.187 C 2.525 12.295,2.394 12.518,2.315 12.683 C 1.805 13.748,1.929 14.914,2.649 15.825 C 3.037 16.315,3.613 16.710,4.167 16.866 C 4.609 16.990,5.319 17.004,10.567 16.993 L 15.517 16.982 15.767 16.906 C 16.388 16.718,16.944 16.339,17.348 15.829 C 17.596 15.515,17.764 15.188,17.887 14.783 C 17.967 14.519,17.978 14.428,17.978 14.017 C 17.979 13.637,17.965 13.497,17.904 13.267 C 17.810 12.912,17.588 12.444,17.392 12.186 L 17.242 11.989 17.391 11.786 C 17.595 11.510,17.783 11.127,17.886 10.776 C 17.962 10.521,17.973 10.422,17.973 9.998 C 17.974 9.601,17.961 9.464,17.902 9.248 C 17.809 8.908,17.583 8.437,17.392 8.186 L 17.242 7.989 17.386 7.793 C 17.606 7.494,17.720 7.277,17.829 6.949 C 18.376 5.312,17.483 3.616,15.809 3.112 L 15.517 3.024 10.833 3.017 C 8.258 3.013,5.737 3.019,5.233 3.030 M15.424 5.092 C 15.614 5.193,15.783 5.368,15.883 5.567 C 16.004 5.804,16.002 6.182,15.880 6.427 C 15.778 6.632,15.584 6.810,15.339 6.924 L 15.162 7.007 9.989 6.991 C 6.195 6.979,4.784 6.965,4.693 6.936 C 4.508 6.878,4.247 6.655,4.134 6.458 C 4.044 6.301,4.034 6.254,4.034 6.000 C 4.035 5.671,4.090 5.518,4.288 5.299 C 4.481 5.086,4.572 5.059,5.200 5.032 C 5.502 5.020,7.895 5.011,10.517 5.013 L 15.283 5.017 15.424 5.092 M15.440 9.104 C 15.615 9.193,15.806 9.390,15.894 9.571 C 16.003 9.797,15.997 10.193,15.880 10.427 C 15.778 10.632,15.584 10.810,15.339 10.924 L 15.162 11.007 9.989 10.991 C 6.195 10.979,4.784 10.965,4.693 10.936 C 4.508 10.878,4.247 10.655,4.134 10.458 C 4.044 10.301,4.034 10.254,4.034 10.000 C 4.035 9.672,4.090 9.518,4.286 9.302 C 4.492 9.073,4.544 9.058,5.217 9.031 C 5.547 9.017,7.953 9.013,10.564 9.022 C 15.208 9.038,15.314 9.039,15.440 9.104 M15.374 13.069 C 15.530 13.111,15.813 13.382,15.900 13.574 C 16.002 13.797,15.992 14.202,15.880 14.427 C 15.778 14.632,15.584 14.810,15.339 14.924 L 15.162 15.007 9.989 14.991 C 6.195 14.979,4.784 14.965,4.693 14.936 C 4.508 14.878,4.247 14.655,4.134 14.458 C 4.044 14.301,4.034 14.254,4.034 14.000 C 4.035 13.672,4.090 13.518,4.286 13.302 C 4.492 13.073,4.544 13.058,5.217 13.030 C 6.098 12.994,15.223 13.029,15.374 13.069 " fill="#1A1C1F" stroke="none" fill-rule="evenodd"></path></svg>