<svg xmlns="http://www.w3.org/2000/svg" width="20" height="20" fill="none"><g clip-path="url(#a)"><path fill="#1A1C1F" fill-rule="evenodd" d="M15 2.987a3 3 0 0 1 2.236 5 3 3 0 0 1 .764 2c0 .769-.29 1.47-.765 2 .476.53.765 1.232.765 2 0 1.598-1.285 3-3 3.026l-10-.026a3 3 0 0 1-2.236-5 3 3 0 0 1-.764-2c0-.768.289-1.47.764-2a3 3 0 0 1-.764-2c0-1.598 1.28-3 3-3zm-10 10a1 1 0 1 0 0 2h10a1 1 0 0 0 1-1c0-.513-.403-1-1-1zm0-4a1 1 0 0 0-1 1c0 .513.427 1 1 1h10a1 1 0 0 0 1-1c0-.513-.382-.968-1-1zm0-4a1 1 0 0 0-1 1c0 .513.43 1 1 1h10a1 1 0 1 0 0-2z" clip-rule="evenodd"/></g><defs><clipPath id="a"><path fill="#fff" d="M0 0h20v20H0z"/></clipPath></defs></svg>