<svg xmlns="http://www.w3.org/2000/svg" width="12" height="12" fill="none"><g clip-path="url(#a)"><path fill="#1A1C1F" fill-rule="evenodd" d="M9.6 7.8a1.2 1.2 0 1 1 0 2.4H2.4a1.2 1.2 0 0 1 0-2.4zm-7.2.6a.6.6 0 1 0 0 1.2.6.6 0 0 0 0-1.2m7.2-3.6a1.2 1.2 0 1 1 0 2.4H2.4a1.2 1.2 0 0 1 0-2.4zm-7.2.6a.6.6 0 1 0 0 1.2.6.6 0 0 0 0-1.2m7.2-3.6a1.2 1.2 0 1 1 0 2.4H2.4a1.2 1.2 0 0 1 0-2.4zm-7.2.6a.6.6 0 1 0 0 1.2.6.6 0 0 0 0-1.2" clip-rule="evenodd"/></g><defs><clipPath id="a"><path fill="#fff" d="M0 0h12v12H0z"/></clipPath></defs></svg>