<svg width="16" height="16" viewBox="0 0 16 16" fill="none" xmlns="http://www.w3.org/2000/svg"><path d="M4.200 2.425 C 3.607 2.440,3.425 2.453,3.316 2.489 C 2.642 2.710,2.135 3.148,1.841 3.762 C 1.666 4.130,1.618 4.350,1.618 4.800 C 1.618 5.143,1.626 5.213,1.689 5.421 C 1.788 5.745,1.887 5.952,2.059 6.189 L 2.205 6.392 2.086 6.549 C 1.929 6.756,1.748 7.135,1.681 7.397 C 1.501 8.102,1.648 8.832,2.091 9.434 L 2.207 9.591 2.087 9.749 C 2.021 9.836,1.915 10.015,1.851 10.147 C 1.363 11.156,1.618 12.319,2.485 13.038 C 2.704 13.219,3.132 13.446,3.373 13.508 C 3.690 13.590,4.409 13.602,8.427 13.594 L 12.413 13.586 12.613 13.525 C 13.112 13.374,13.555 13.071,13.882 12.658 C 14.083 12.404,14.210 12.157,14.310 11.827 C 14.373 11.615,14.382 11.542,14.383 11.213 C 14.383 10.909,14.372 10.798,14.323 10.613 C 14.248 10.330,14.070 9.955,13.913 9.749 L 13.793 9.591 13.913 9.429 C 14.076 9.208,14.226 8.901,14.309 8.621 C 14.369 8.416,14.378 8.337,14.379 7.998 C 14.379 7.681,14.369 7.571,14.321 7.398 C 14.247 7.126,14.066 6.750,13.913 6.549 L 13.793 6.391 13.909 6.234 C 14.168 5.882,14.318 5.510,14.375 5.080 C 14.518 3.998,13.857 2.923,12.814 2.541 C 12.480 2.418,12.633 2.423,8.680 2.415 C 6.627 2.411,4.611 2.416,4.200 2.425 M12.339 4.074 C 12.491 4.155,12.626 4.294,12.707 4.453 C 12.803 4.643,12.802 4.946,12.704 5.141 C 12.624 5.302,12.469 5.447,12.280 5.536 L 12.147 5.599 8.587 5.597 C 4.494 5.594,3.791 5.582,3.657 5.510 C 3.533 5.444,3.348 5.253,3.282 5.124 C 3.207 4.977,3.205 4.624,3.278 4.463 C 3.345 4.315,3.512 4.134,3.627 4.085 C 3.785 4.017,4.398 4.007,8.400 4.010 L 12.227 4.013 12.339 4.074 M12.352 7.283 C 12.492 7.354,12.645 7.512,12.715 7.657 C 12.803 7.837,12.798 8.154,12.704 8.341 C 12.624 8.502,12.469 8.647,12.280 8.736 L 12.147 8.799 8.587 8.797 C 4.494 8.794,3.791 8.782,3.657 8.710 C 3.533 8.644,3.348 8.453,3.282 8.324 C 3.207 8.177,3.205 7.824,3.278 7.663 C 3.340 7.527,3.502 7.344,3.611 7.287 C 3.751 7.214,4.449 7.204,8.451 7.217 C 12.168 7.230,12.251 7.231,12.352 7.283 M12.299 10.455 C 12.424 10.488,12.651 10.706,12.720 10.859 C 12.801 11.038,12.794 11.362,12.704 11.541 C 12.624 11.702,12.469 11.847,12.280 11.936 L 12.147 11.999 8.587 11.997 C 6.629 11.996,4.739 11.987,4.387 11.977 C 3.669 11.956,3.659 11.954,3.452 11.747 C 3.273 11.567,3.227 11.454,3.227 11.194 C 3.228 10.938,3.273 10.813,3.429 10.641 C 3.594 10.459,3.636 10.446,4.173 10.424 C 4.875 10.396,12.178 10.424,12.299 10.455 " fill="#1A1C1F" stroke="none" fill-rule="evenodd"></path></svg>