<svg width="14" height="14" viewBox="0 0 14 14" fill="none" xmlns="http://www.w3.org/2000/svg"><path d="M3.663 2.121 C 3.042 2.136,3.016 2.138,2.839 2.200 C 2.429 2.344,2.125 2.559,1.859 2.892 C 1.275 3.626,1.254 4.651,1.806 5.421 L 1.930 5.593 1.826 5.731 C 1.687 5.914,1.528 6.246,1.470 6.472 C 1.317 7.078,1.438 7.707,1.806 8.221 L 1.930 8.393 1.826 8.531 C 1.768 8.606,1.675 8.763,1.619 8.878 C 1.192 9.756,1.417 10.779,2.175 11.408 C 2.366 11.567,2.741 11.766,2.952 11.819 C 3.232 11.891,3.894 11.902,7.397 11.895 L 10.862 11.887 11.037 11.834 C 11.327 11.747,11.612 11.592,11.830 11.404 C 12.178 11.104,12.391 10.779,12.521 10.348 C 12.577 10.163,12.584 10.099,12.585 9.812 C 12.585 9.546,12.576 9.448,12.533 9.287 C 12.467 9.038,12.312 8.711,12.174 8.530 L 12.069 8.392 12.174 8.250 C 12.317 8.056,12.448 7.788,12.520 7.543 C 12.572 7.365,12.580 7.294,12.581 6.998 C 12.581 6.720,12.572 6.624,12.531 6.473 C 12.466 6.235,12.308 5.906,12.174 5.730 L 12.069 5.592 12.170 5.455 C 12.397 5.147,12.529 4.821,12.578 4.445 C 12.703 3.498,12.125 2.557,11.213 2.223 C 10.919 2.116,11.056 2.120,7.583 2.113 C 5.780 2.109,4.016 2.113,3.663 2.121 M10.823 3.580 C 10.955 3.654,11.046 3.754,11.127 3.913 C 11.202 4.062,11.197 4.336,11.116 4.499 C 11.045 4.642,10.909 4.767,10.737 4.847 L 10.613 4.905 6.992 4.894 C 4.336 4.886,3.349 4.875,3.285 4.856 C 3.156 4.815,2.973 4.658,2.894 4.521 C 2.831 4.411,2.824 4.378,2.824 4.200 C 2.824 3.970,2.863 3.863,3.000 3.711 C 3.142 3.554,3.185 3.541,3.617 3.523 C 3.828 3.514,5.508 3.507,7.350 3.509 L 10.698 3.512 10.823 3.580 M10.809 6.373 C 10.930 6.435,11.078 6.587,11.132 6.705 C 11.201 6.858,11.194 7.143,11.116 7.299 C 11.045 7.442,10.909 7.567,10.737 7.647 L 10.613 7.705 6.992 7.694 C 4.336 7.686,3.349 7.675,3.285 7.656 C 3.156 7.615,2.973 7.458,2.894 7.321 C 2.831 7.211,2.824 7.178,2.824 7.000 C 2.824 6.770,2.863 6.663,3.000 6.511 C 3.145 6.350,3.180 6.340,3.663 6.321 C 3.901 6.312,5.586 6.310,7.408 6.316 C 10.635 6.327,10.722 6.329,10.809 6.373 M10.762 9.148 C 10.871 9.177,11.069 9.367,11.130 9.502 C 11.201 9.658,11.195 9.942,11.116 10.099 C 11.045 10.242,10.909 10.367,10.737 10.447 L 10.613 10.505 6.992 10.494 C 4.336 10.486,3.349 10.475,3.285 10.456 C 3.156 10.415,2.973 10.258,2.894 10.121 C 2.831 10.011,2.824 9.978,2.824 9.800 C 2.824 9.570,2.863 9.463,3.000 9.311 C 3.145 9.150,3.180 9.140,3.663 9.121 C 4.296 9.096,10.656 9.121,10.762 9.148 " fill="#1A1C1F" stroke="none" fill-rule="evenodd"></path></svg>