<svg xmlns="http://www.w3.org/2000/svg" width="14" height="14" fill="none"><g clip-path="url(#a)"><path fill="#1A1C1F" fill-rule="evenodd" d="M11.2 9.1a1.4 1.4 0 1 1 0 2.8H2.8a1.4 1.4 0 0 1 0-2.8zm-8.4.7a.7.7 0 1 0 0 1.4.7.7 0 0 0 0-1.4m8.4-4.2a1.4 1.4 0 1 1 0 2.8H2.8a1.4 1.4 0 0 1 0-2.8zm-8.4.7a.7.7 0 1 0 0 1.4.7.7 0 0 0 0-1.4m8.4-4.2a1.4 1.4 0 1 1 0 2.8H2.8a1.4 1.4 0 0 1 0-2.8zm-8.4.7a.7.7 0 1 0 0 1.4.7.7 0 0 0 0-1.4" clip-rule="evenodd"/></g><defs><clipPath id="a"><path fill="#fff" d="M0 0h14v14H0z"/></clipPath></defs></svg>