<svg xmlns="http://www.w3.org/2000/svg" width="28" height="28" fill="none"><g clip-path="url(#a)"><path fill="#1A1C1F" fill-rule="evenodd" d="M23.624 2.625A2.625 2.625 0 0 1 26.25 5.25v3.5c0 .673-.253 1.286-.669 1.75.375.418.67 1.014.67 1.75v3.5c0 .673-.254 1.286-.67 1.75.375.418.693 1.065.67 1.75v3.5c0 1.398-1.126 2.625-2.626 2.625H4.374c-1.398 0-2.625-1.132-2.625-2.625v-3.5c0-.672.253-1.285.669-1.75a2.64 2.64 0 0 1-.669-1.75v-3.5c0-.672.253-1.286.669-1.75a2.64 2.64 0 0 1-.669-1.75v-3.5a2.62 2.62 0 0 1 2.625-2.625zm-19.25 15.75a.875.875 0 0 0-.875.875v3.5c0 .449.36.875.875.875h19.25a.885.885 0 0 0 .875-.875v-3.5a.88.88 0 0 0-.875-.875zm1.75 1.75a.875.875 0 1 1 0 1.75.875.875 0 0 1 0-1.75m15.75 0c.484 0 .875.392.875.875 0 .449-.392.875-.875.875h-3.5A.875.875 0 0 1 17.5 21c0-.449.371-.875.875-.875zm-17.5-8.75a.867.867 0 0 0-.869.875l-.006 3.5c0 .449.379.875.875.875h19.25a.887.887 0 0 0 .875-.875v-3.5a.866.866 0 0 0-.875-.875zm1.75 1.75a.875.875 0 1 1 0 1.75.875.875 0 0 1 0-1.75m15.75 0a.875.875 0 0 1 0 1.75h-3.5A.875.875 0 0 1 17.5 14c0-.449.372-.875.875-.875zm-17.5-8.75a.886.886 0 0 0-.875.875v3.5c0 .449.383.875.875.875h19.25c.45 0 .875-.38.875-.852V5.25a.88.88 0 0 0-.875-.875zm1.75 1.75a.875.875 0 1 1 0 1.75.875.875 0 0 1 0-1.75m15.75 0a.875.875 0 0 1 .102 1.744l-3.602.006a.875.875 0 1 1 0-1.75z" clip-rule="evenodd"/></g><defs><clipPath id="a"><path fill="#fff" d="M0 0h28v28H0z"/></clipPath></defs></svg>