<svg xmlns="http://www.w3.org/2000/svg" width="14" height="14" fill="none"><g clip-path="url(#a)"><path fill="#1A1C1F" fill-rule="evenodd" d="M10.5 2.09a2.1 2.1 0 0 1 1.565 3.5c.333.372.535.863.535 1.4 0 .539-.202 1.03-.535 1.401.333.371.535.862.535 1.4 0 1.118-.9 2.1-2.1 2.118l-7-.018a2.1 2.1 0 0 1-1.565-3.5 2.1 2.1 0 0 1-.535-1.4c0-.538.202-1.029.535-1.4A2.098 2.098 0 0 1 3.5 2.09zm-7 7a.7.7 0 0 0 0 1.4h7a.7.7 0 1 0 0-1.4zm0-2.8a.7.7 0 0 0-.7.7c0 .36.3.7.7.7h7a.7.7 0 0 0 .7-.7c0-.358-.267-.677-.7-.7zm0-2.8a.7.7 0 0 0-.7.7c0 .36.3.7.7.7h7a.7.7 0 1 0 0-1.4z" clip-rule="evenodd"/></g><defs><clipPath id="a"><path fill="#fff" d="M0 0h14v14H0z"/></clipPath></defs></svg>