<svg xmlns="http://www.w3.org/2000/svg" width="24" height="24" fill="none"><g clip-path="url(#a)"><path fill="#1A1C1F" fill-rule="evenodd" d="M19.5 2A2.497 2.497 0 0 1 22 4.5v3a2.5 2.5 0 0 1-.5 1.501c.275.365.5.875.5 1.499v3a2.5 2.5 0 0 1-.5 1.501c.275.365.5.874.5 1.499v3c0 1.326-1.058 2.5-2.5 2.5h-15A2.5 2.5 0 0 1 2 19.5v-3c0-.563.186-1.082.5-1.5a2.55 2.55 0 0 1-.5-1.5v-3c0-.563.186-1.082.5-1.5A2.52 2.52 0 0 1 2 7.5v-3C2 3.175 3.07 2 4.5 2zm0 14h-15c-.245 0-.5.19-.5.5v3c0 .245.206.5.5.5h15c.245 0 .5-.21.5-.5v-3a.5.5 0 0 0-.5-.5M6 17a1 1 0 1 1 0 2 1 1 0 0 1 0-2m13.5-7h-15a.504.504 0 0 0-.5.5v3c0 .245.208.5.5.5h15c.245 0 .5-.207.5-.5v-3a.5.5 0 0 0-.5-.5M6 11a1 1 0 1 1 0 2 1 1 0 0 1 0-2m13.5-7h-15a.507.507 0 0 0-.5.5v3c0 .245.218.5.5.5h15c.245 0 .5-.203.5-.5v-3a.5.5 0 0 0-.5-.5M6 5a1 1 0 1 1 0 2 1 1 0 0 1 0-2" clip-rule="evenodd"/></g><defs><clipPath id="a"><path fill="#fff" d="M0 0h24v24H0z"/></clipPath></defs></svg>