<svg xmlns="http://www.w3.org/2000/svg" width="32" height="32" fill="none"><g clip-path="url(#a)"><path fill="#1A1C1F" fill-rule="evenodd" d="M27 3a3 3 0 0 1 3 3v4c0 .769-.29 1.47-.765 2 .428.478.764 1.16.764 2v4c0 .769-.289 1.47-.764 2 .428.478.791 1.217.764 2v4c0 1.598-1.285 3-3 3H5c-1.597 0-3-1.294-3-3v-4c0-.768.29-1.47.764-2A3 3 0 0 1 2 18v-4c0-.768.29-1.47.764-2A3.02 3.02 0 0 1 2 10V6c0-1.598 1.28-3 3-3zM5 21a1 1 0 0 0-1 1v4c0 .513.411 1 1 1h22c.512 0 1-.426 1-1v-4c0-.513-.416-1-1-1zm2 2a1 1 0 1 1 0 2 1 1 0 0 1 0-2m18 0a1 1 0 0 1 1 1c0 .513-.45 1-1 1h-4a1 1 0 0 1-1-1c0-.513.423-1 1-1zM5 13a.99.99 0 0 0-.994 1L4 18c0 .513.433 1 1 1h22c.513 0 1-.43 1-1v-4a.99.99 0 0 0-1-1zm2 2a1 1 0 1 1 0 2 1 1 0 0 1 0-2m18 0a1 1 0 1 1 0 2h-4a1 1 0 0 1-1-1c0-.513.423-1 1-1zM5 5c-.514 0-.994.42-1 1v4c0 .513.437 1 1 1h22c.512 0 1-.435 1-.974V6c0-.513-.416-1-1-1zm2 2a1 1 0 1 1 0 2 1 1 0 0 1 0-2m18 0a1 1 0 0 1 .116 1.993L20.999 9a1 1 0 1 1 0-2z" clip-rule="evenodd"/></g><defs><clipPath id="a"><path fill="#fff" d="M0 0h32v32H0z"/></clipPath></defs></svg>