<svg xmlns="http://www.w3.org/2000/svg" width="32" height="32" fill="none"><path fill="#1A1C1F" fill-rule="evenodd" d="M4.56 3.042a2.99 2.99 0 0 0-2.257 1.663c-.296.63-.303.713-.302 3.348v2.427l.145.43c.08.236.242.567.36.736.118.168.214.328.214.356s-.08.155-.178.284c-.251.328-.446.85-.517 1.381-.039.299-.053 1.2-.04 2.634l.02 2.179.143.43c.079.236.24.567.358.736.118.168.214.328.214.356s-.08.155-.178.284c-.251.328-.446.85-.517 1.381-.04.302-.053 1.187-.038 2.634.024 2.351.032 2.422.334 3.038.325.665 1.035 1.275 1.775 1.526l.357.122 11.374.014c12.467.015 11.76.032 12.461-.298.724-.342 1.297-.997 1.565-1.792l.145-.431.001-2.48.001-2.48-.13-.398a3.7 3.7 0 0 0-.36-.74c-.127-.189-.23-.363-.23-.387s.096-.181.214-.349c.118-.169.279-.5.357-.736l.143-.43.021-2.142c.028-2.815-.027-3.241-.507-3.958-.125-.188-.228-.361-.228-.385s.096-.181.214-.349c.118-.169.28-.5.359-.736l.145-.43.001-2.427c.001-2.632-.007-2.719-.3-3.343-.328-.699-1.03-1.316-1.795-1.575l-.357-.122-11.334-.007c-6.233-.004-11.477.012-11.653.036m22.893 2.084c.141.069.291.2.377.33l.143.216v4.656l-.143.216c-.086.13-.236.261-.377.33l-.233.113H16c-11.175 0-11.221-.001-11.444-.109a1.1 1.1 0 0 1-.377-.329l-.152-.22V5.68l.131-.187c.072-.102.168-.218.213-.256.27-.228-.207-.219 11.625-.222l11.224-.002zM6.792 7.038c-.666.158-.981.877-.64 1.459.159.273.311.384.641.472.433.116.907-.126 1.107-.567.334-.735-.327-1.55-1.108-1.364m13.883.025c-.385.14-.673.541-.673.937 0 .412.329.843.734.962q.197.057 2.357.041c2.071-.016 2.169-.021 2.374-.128.129-.068.273-.208.366-.357a.96.96 0 0 0-.339-1.363l-.241-.142-2.186-.012c-1.763-.01-2.227.002-2.392.062m6.775 6.054c.14.064.279.185.373.328l.15.227v4.657l-.152.22c-.087.126-.25.267-.377.329-.223.108-.269.109-11.444.109s-11.221-.001-11.444-.109a1.1 1.1 0 0 1-.377-.329l-.152-.22v-4.657l.142-.215c.083-.126.238-.262.373-.329l.231-.115L16 13.015c10.914.001 11.233.004 11.45.102M6.792 15.038a.992.992 0 0 0-.666 1.428c.134.262.334.414.662.502.744.199 1.431-.608 1.129-1.329-.193-.464-.658-.712-1.125-.601m13.883.025c-.385.14-.673.541-.673.937 0 .412.329.843.734.962q.197.057 2.357.041c2.071-.016 2.169-.021 2.374-.128.129-.068.273-.208.366-.357a.96.96 0 0 0-.339-1.363l-.241-.142-2.186-.012c-1.763-.01-2.227.002-2.392.062m6.778 6.063c.141.069.291.2.377.33l.143.216v4.656l-.143.216c-.086.13-.236.261-.377.33l-.233.113H15.981c-11.17 0-11.24-.001-11.45-.108a1.1 1.1 0 0 1-.358-.33l-.146-.221v-4.656l.142-.215c.083-.126.238-.262.373-.329l.231-.115H27.22zM6.792 23.038a.992.992 0 0 0-.666 1.428c.134.262.334.414.662.502.744.199 1.431-.608 1.129-1.329-.193-.464-.658-.712-1.125-.601m13.883.025c-.385.14-.673.541-.673.937 0 .229.153.573.325.731.3.276.364.282 2.66.282 2.328 0 2.363-.004 2.684-.309a.956.956 0 0 0-.177-1.549l-.241-.142-2.186-.012c-1.763-.01-2.227.002-2.392.062"/></svg>