<svg xmlns="http://www.w3.org/2000/svg" width="16" height="16" fill="none"><g clip-path="url(#a)"><path fill="#1A1C1F" fill-rule="evenodd" d="M12 2.39a2.4 2.4 0 0 1 1.789 4c.38.423.611.984.611 1.6 0 .615-.231 1.176-.612 1.6.38.424.612.985.612 1.6 0 1.278-1.028 2.4-2.4 2.42l-8-.02a2.4 2.4 0 0 1-1.789-4 2.4 2.4 0 0 1-.611-1.6c0-.615.231-1.176.611-1.6A2.398 2.398 0 0 1 4 2.39zm-8 8a.8.8 0 0 0 0 1.6h8a.8.8 0 0 0 0-1.6zm0-3.2a.8.8 0 0 0-.8.8c0 .41.342.8.8.8h8a.8.8 0 0 0 .8-.8c0-.41-.306-.775-.8-.8zm0-3.2a.8.8 0 0 0-.8.8c0 .41.343.8.8.8h8a.8.8 0 0 0 0-1.6z" clip-rule="evenodd"/></g><defs><clipPath id="a"><path fill="#fff" d="M0 0h16v16H0z"/></clipPath></defs></svg>