<svg width="14" height="14" viewBox="0 0 14 14" fill="none" xmlns="http://www.w3.org/2000/svg"><path d="M2.963 2.123 C 2.464 2.136,2.431 2.140,2.293 2.198 C 1.966 2.337,1.663 2.626,1.528 2.928 C 1.460 3.080,1.400 3.350,1.400 3.500 C 1.400 3.641,1.459 3.913,1.519 4.055 C 1.664 4.393,2.019 4.712,2.383 4.832 L 2.555 4.888 7.000 4.888 L 11.445 4.888 11.617 4.832 C 12.035 4.694,12.386 4.345,12.523 3.932 C 12.575 3.775,12.585 3.704,12.585 3.488 C 12.584 3.273,12.575 3.205,12.525 3.063 C 12.492 2.970,12.437 2.847,12.404 2.789 C 12.319 2.645,12.070 2.402,11.904 2.301 C 11.669 2.158,11.608 2.145,11.060 2.123 C 10.514 2.100,3.817 2.100,2.963 2.123 M3.120 2.896 C 3.370 3.015,3.477 3.202,3.477 3.517 C 3.477 3.653,3.465 3.712,3.418 3.803 C 3.344 3.951,3.218 4.076,3.082 4.138 C 2.926 4.210,2.665 4.206,2.511 4.131 C 2.079 3.920,1.976 3.344,2.310 3.010 C 2.524 2.796,2.823 2.754,3.120 2.896 M2.963 5.623 C 2.464 5.636,2.431 5.640,2.293 5.698 C 1.966 5.837,1.663 6.126,1.528 6.428 C 1.460 6.580,1.400 6.850,1.400 7.000 C 1.400 7.141,1.459 7.413,1.519 7.555 C 1.664 7.893,2.019 8.212,2.383 8.332 L 2.555 8.388 7.000 8.388 L 11.445 8.388 11.617 8.332 C 12.035 8.194,12.386 7.845,12.523 7.432 C 12.575 7.275,12.585 7.204,12.585 6.988 C 12.584 6.773,12.575 6.705,12.525 6.563 C 12.492 6.470,12.437 6.347,12.404 6.289 C 12.319 6.145,12.070 5.902,11.904 5.801 C 11.669 5.658,11.608 5.645,11.060 5.623 C 10.514 5.600,3.817 5.600,2.963 5.623 M3.120 6.395 C 3.370 6.516,3.477 6.702,3.477 7.016 C 3.477 7.295,3.332 7.524,3.083 7.638 C 2.929 7.709,2.665 7.707,2.516 7.633 C 2.379 7.566,2.233 7.420,2.166 7.282 C 2.091 7.127,2.092 6.867,2.169 6.710 C 2.348 6.343,2.743 6.212,3.120 6.395 M2.963 9.123 C 2.464 9.136,2.431 9.140,2.293 9.198 C 1.966 9.337,1.663 9.626,1.528 9.928 C 1.460 10.080,1.400 10.350,1.400 10.500 C 1.400 10.641,1.459 10.913,1.519 11.055 C 1.664 11.393,2.019 11.712,2.383 11.832 L 2.555 11.888 7.000 11.888 L 11.445 11.888 11.617 11.832 C 12.035 11.694,12.386 11.345,12.523 10.932 C 12.575 10.775,12.585 10.704,12.585 10.488 C 12.584 10.273,12.575 10.205,12.525 10.063 C 12.492 9.970,12.437 9.847,12.404 9.789 C 12.319 9.645,12.070 9.402,11.904 9.301 C 11.669 9.158,11.608 9.145,11.060 9.123 C 10.514 9.100,3.817 9.100,2.963 9.123 M3.120 9.895 C 3.370 10.016,3.477 10.202,3.477 10.516 C 3.477 10.795,3.332 11.024,3.083 11.138 C 2.929 11.209,2.665 11.207,2.516 11.133 C 2.379 11.066,2.233 10.920,2.166 10.782 C 2.091 10.627,2.092 10.367,2.169 10.210 C 2.348 9.843,2.743 9.712,3.120 9.895 " fill="#1A1C1F" stroke="none" fill-rule="evenodd"></path></svg>