<svg width="12" height="12" viewBox="0 0 12 12" fill="none" xmlns="http://www.w3.org/2000/svg"><path d="M5.652 1.221 C 4.880 1.309,4.208 1.635,3.664 2.184 C 2.653 3.206,2.419 4.704,3.058 6.067 C 3.178 6.323,3.340 6.592,3.654 7.054 C 3.940 7.475,4.003 7.600,4.059 7.859 C 4.115 8.120,4.200 8.235,4.424 8.354 L 4.509 8.400 6.000 8.400 C 7.482 8.400,7.491 8.400,7.570 8.357 C 7.797 8.237,7.885 8.118,7.941 7.859 C 7.998 7.595,8.050 7.496,8.414 6.949 C 8.590 6.684,8.776 6.391,8.827 6.297 C 9.033 5.918,9.201 5.429,9.262 5.030 C 9.302 4.770,9.296 4.201,9.251 3.950 C 9.044 2.793,8.298 1.878,7.199 1.431 C 7.031 1.363,6.736 1.283,6.522 1.248 C 6.300 1.211,5.854 1.197,5.652 1.221 M6.210 2.420 C 6.619 2.463,7.017 2.628,7.318 2.877 C 7.979 3.426,8.236 4.261,8.010 5.128 C 7.913 5.497,7.836 5.645,7.357 6.366 C 7.183 6.628,7.003 6.922,6.956 7.020 L 6.870 7.197 6.000 7.198 L 5.130 7.199 5.047 7.024 C 5.001 6.928,4.821 6.634,4.646 6.370 C 4.471 6.106,4.289 5.824,4.242 5.744 C 3.859 5.087,3.803 4.260,4.100 3.625 C 4.405 2.974,5.035 2.509,5.730 2.423 C 5.924 2.398,6.003 2.398,6.210 2.420 M5.489 3.098 C 5.456 3.106,5.373 3.143,5.306 3.179 C 4.856 3.418,4.513 3.929,4.544 4.311 C 4.578 4.716,5.025 4.969,5.391 4.790 C 5.517 4.729,5.611 4.626,5.689 4.465 C 5.756 4.327,5.801 4.275,5.910 4.211 C 6.017 4.149,6.153 4.000,6.201 3.894 C 6.225 3.841,6.239 3.764,6.240 3.686 C 6.241 3.351,6.004 3.098,5.680 3.087 C 5.609 3.084,5.523 3.089,5.489 3.098 M4.740 9.018 C 4.230 9.076,4.025 9.658,4.386 10.022 C 4.514 10.151,4.612 10.186,4.871 10.196 L 5.093 10.205 5.117 10.319 C 5.161 10.533,5.357 10.734,5.567 10.781 C 5.632 10.795,5.815 10.801,6.060 10.797 C 6.419 10.790,6.457 10.786,6.543 10.744 C 6.717 10.657,6.863 10.466,6.892 10.284 L 6.904 10.205 7.127 10.196 C 7.388 10.186,7.485 10.151,7.613 10.023 C 7.903 9.731,7.839 9.273,7.481 9.082 L 7.359 9.017 6.114 9.010 C 5.430 9.006,4.811 9.009,4.740 9.018 " fill="#1A1C1F" stroke="none" fill-rule="evenodd"></path></svg>