<svg xmlns="http://www.w3.org/2000/svg" width="20" height="20" fill="none"><g clip-path="url(#a)"><path fill="#1A1C1F" fill-rule="evenodd" d="M12 14.999H8a1 1 0 1 0 0 2h.504v.002a1 1 0 0 0 1 1h.992a1 1 0 0 0 1-1v-.002h.503a1 1 0 1 0 0-2m-2-13c3.034 0 5.5 2.468 5.5 5.5 0 1.982-.9 3.264-1.559 4.2-.368.524-.686.976-.699 1.336-.02.538-.462.964-1 .964H7.759a1 1 0 0 1-1-.964c-.013-.36-.331-.813-.7-1.336-.657-.935-1.558-2.218-1.558-4.2 0-3.032 2.467-5.5 5.5-5.5m0 2c-1.93 0-3.5 1.57-3.5 3.5 0 1.35.609 2.214 1.196 3.05.32.458.65.925.855 1.45h2.899c.205-.525.534-.992.856-1.45.587-.836 1.195-1.7 1.195-3.05 0-1.93-1.57-3.5-3.5-3.5m-.974 1.197a1 1 0 0 1 .78 1.842.5.5 0 0 0-.29.327.999.999 0 1 1-1.924-.539 2.53 2.53 0 0 1 1.435-1.63z" clip-rule="evenodd"/></g><defs><clipPath id="a"><path fill="#fff" d="M0 0h20v20H0z"/></clipPath></defs></svg>