<svg width="24" height="24" viewBox="0 0 24 24" fill="none" xmlns="http://www.w3.org/2000/svg"><path d="M11.311 2.044 C 10.488 2.124,9.680 2.359,8.921 2.740 C 6.895 3.756,5.566 5.508,5.114 7.760 C 5.035 8.150,5.021 8.342,5.022 9.020 C 5.022 9.881,5.067 10.228,5.261 10.900 C 5.538 11.859,5.979 12.568,7.013 13.717 C 7.397 14.145,7.770 14.591,7.842 14.709 L 7.971 14.923 8.001 15.839 C 8.027 16.667,8.039 16.772,8.119 16.937 C 8.216 17.138,8.411 17.319,8.663 17.441 C 8.820 17.518,8.921 17.520,12.000 17.520 L 15.175 17.520 15.356 17.432 C 15.599 17.315,15.863 17.044,15.920 16.854 C 15.946 16.769,15.980 16.301,15.996 15.814 L 16.026 14.928 16.161 14.704 C 16.235 14.582,16.593 14.152,16.955 13.750 C 17.796 12.818,18.066 12.454,18.358 11.860 C 18.839 10.880,19.031 9.933,18.986 8.760 C 18.862 5.564,16.626 2.876,13.517 2.186 C 12.761 2.018,12.054 1.973,11.311 2.044 M13.260 4.173 C 14.466 4.511,15.471 5.232,16.143 6.241 C 17.257 7.915,17.271 10.177,16.176 11.587 C 16.078 11.713,15.735 12.109,15.413 12.467 C 14.685 13.276,14.517 13.497,14.321 13.900 C 14.134 14.285,14.039 14.637,14.014 15.040 C 13.981 15.565,14.030 15.520,13.482 15.520 L 13.006 15.520 12.993 14.130 C 12.980 12.760,12.979 12.737,12.885 12.547 C 12.742 12.256,12.437 12.067,12.079 12.047 C 11.741 12.028,11.576 12.081,11.348 12.281 C 11.032 12.559,11.027 12.590,11.008 14.150 L 10.992 15.520 10.517 15.520 C 9.970 15.520,10.019 15.565,9.986 15.040 C 9.961 14.633,9.866 14.282,9.678 13.900 C 9.473 13.485,9.298 13.257,8.565 12.448 C 7.825 11.631,7.641 11.391,7.441 10.980 C 6.743 9.552,6.907 7.645,7.848 6.240 C 8.460 5.327,9.496 4.548,10.505 4.242 C 11.112 4.058,11.262 4.041,12.100 4.057 C 12.805 4.070,12.943 4.084,13.260 4.173 M10.670 5.243 C 10.086 5.381,9.135 6.123,8.683 6.793 C 8.201 7.509,8.172 8.009,8.588 8.425 C 8.807 8.644,8.945 8.698,9.283 8.699 C 9.719 8.700,9.882 8.591,10.265 8.040 C 10.581 7.585,10.740 7.440,11.200 7.187 C 11.599 6.968,11.818 6.761,11.897 6.531 C 12.161 5.756,11.489 5.050,10.670 5.243 M8.812 18.555 C 8.390 18.609,8.040 18.995,8.008 19.443 C 7.993 19.640,8.008 19.716,8.096 19.896 C 8.223 20.154,8.456 20.377,8.667 20.440 C 8.751 20.466,9.083 20.496,9.405 20.508 L 9.991 20.531 10.008 20.895 C 10.028 21.310,10.105 21.504,10.344 21.736 C 10.586 21.971,10.648 21.980,12.020 21.980 C 13.238 21.980,13.263 21.978,13.449 21.887 C 13.630 21.798,13.809 21.613,13.921 21.400 C 13.950 21.346,13.981 21.127,13.992 20.916 L 14.010 20.531 14.595 20.508 C 15.262 20.483,15.425 20.446,15.623 20.272 C 16.162 19.799,16.094 19.007,15.484 18.648 L 15.300 18.540 12.160 18.534 C 10.433 18.531,8.926 18.541,8.812 18.555 " fill="#1A1C1F" stroke="none" fill-rule="evenodd"></path></svg>