<svg width="14" height="14" viewBox="0 0 14 14" fill="none" xmlns="http://www.w3.org/2000/svg"><path d="M6.604 1.424 C 5.025 1.589,3.678 2.744,3.282 4.272 C 3.187 4.638,3.163 4.842,3.163 5.285 C 3.163 5.736,3.185 5.907,3.291 6.312 C 3.455 6.940,3.650 7.324,4.263 8.229 C 4.597 8.722,4.670 8.867,4.736 9.169 C 4.801 9.473,4.900 9.607,5.161 9.746 L 5.261 9.800 6.995 9.800 C 8.718 9.800,8.729 9.800,8.827 9.750 C 9.091 9.616,9.198 9.474,9.264 9.169 C 9.291 9.047,9.341 8.885,9.377 8.808 C 9.413 8.731,9.622 8.398,9.842 8.067 C 10.353 7.297,10.551 6.902,10.701 6.351 C 11.055 5.051,10.754 3.705,9.888 2.712 C 9.319 2.061,8.485 1.600,7.619 1.458 C 7.350 1.414,6.856 1.397,6.604 1.424 M7.233 2.823 C 7.889 2.888,8.466 3.197,8.893 3.712 C 9.084 3.942,9.285 4.331,9.355 4.605 C 9.531 5.292,9.419 6.068,9.051 6.701 C 8.997 6.795,8.786 7.121,8.584 7.427 C 8.381 7.732,8.170 8.075,8.115 8.189 L 8.015 8.397 7.000 8.398 L 5.985 8.398 5.888 8.195 C 5.835 8.083,5.624 7.740,5.420 7.432 C 5.216 7.124,5.004 6.795,4.949 6.701 C 4.502 5.935,4.437 4.969,4.783 4.230 C 5.139 3.470,5.874 2.928,6.685 2.826 C 6.909 2.798,6.978 2.798,7.233 2.823 M6.404 3.614 C 6.187 3.670,5.856 3.908,5.641 4.164 C 5.242 4.639,5.190 5.152,5.510 5.463 C 5.715 5.663,6.033 5.714,6.289 5.589 C 6.439 5.516,6.533 5.411,6.648 5.190 C 6.707 5.076,6.762 5.008,6.837 4.955 C 7.158 4.726,7.282 4.545,7.283 4.302 C 7.285 3.917,7.002 3.615,6.627 3.601 C 6.543 3.598,6.443 3.604,6.404 3.614 M5.530 10.519 C 4.938 10.581,4.696 11.269,5.117 11.692 C 5.267 11.843,5.380 11.883,5.683 11.895 L 5.942 11.906 5.970 12.040 C 6.019 12.277,6.211 12.485,6.455 12.565 C 6.554 12.597,6.654 12.602,7.050 12.596 C 7.488 12.589,7.533 12.584,7.632 12.535 C 7.835 12.436,8.006 12.210,8.040 11.998 L 8.055 11.906 8.315 11.895 C 8.620 11.883,8.733 11.843,8.882 11.693 C 9.030 11.544,9.087 11.409,9.087 11.200 C 9.088 10.914,8.949 10.693,8.694 10.573 C 8.581 10.521,8.581 10.521,7.131 10.512 C 6.334 10.507,5.613 10.511,5.530 10.519 " fill="#1A1C1F" stroke="none" fill-rule="evenodd"></path></svg>