<svg xmlns="http://www.w3.org/2000/svg" width="14" height="14" fill="none"><g clip-path="url(#a)"><path fill="#1A1C1F" fill-rule="evenodd" d="M8.4 10.5H5.6a.7.7 0 1 0 0 1.4h.352a.7.7 0 0 0 .7.7h.695a.7.7 0 0 0 .7-.7H8.4a.7.7 0 1 0 0-1.4M7 1.4a3.855 3.855 0 0 1 3.85 3.85c0 1.387-.63 2.284-1.09 2.94-.259.366-.481.682-.49.934a.7.7 0 0 1-.7.675H5.43a.7.7 0 0 1-.7-.675c-.009-.252-.231-.569-.489-.935-.46-.654-1.091-1.552-1.091-2.94A3.855 3.855 0 0 1 7 1.4m0 1.4a2.453 2.453 0 0 0-2.45 2.45c0 .944.426 1.55.837 2.134.225.32.455.648.598 1.015h2.03c.143-.367.373-.694.599-1.015.41-.585.836-1.19.836-2.135A2.453 2.453 0 0 0 7 2.8m-.682.837a.7.7 0 0 1 .546 1.29.35.35 0 0 0-.202.228.7.7 0 1 1-1.348-.377 1.77 1.77 0 0 1 1.004-1.14" clip-rule="evenodd"/></g><defs><clipPath id="a"><path fill="#fff" d="M0 0h14v14H0z"/></clipPath></defs></svg>