<svg width="16" height="16" viewBox="0 0 16 16" fill="none" xmlns="http://www.w3.org/2000/svg"><path d="M7.553 1.627 C 6.530 1.734,5.615 2.175,4.886 2.912 C 3.425 4.388,3.191 6.603,4.294 8.510 C 4.357 8.618,4.588 8.976,4.808 9.305 C 5.264 9.988,5.336 10.128,5.412 10.478 C 5.488 10.827,5.610 10.990,5.912 11.143 C 6.024 11.200,6.036 11.200,8.000 11.200 C 9.964 11.200,9.976 11.200,10.088 11.143 C 10.390 10.990,10.512 10.827,10.588 10.478 C 10.618 10.340,10.676 10.155,10.717 10.067 C 10.758 9.979,10.997 9.598,11.248 9.220 C 11.832 8.339,12.058 7.888,12.230 7.259 C 12.634 5.773,12.290 4.234,11.300 3.099 C 10.651 2.355,9.697 1.828,8.708 1.666 C 8.402 1.616,7.836 1.597,7.553 1.627 M8.267 3.226 C 9.234 3.322,10.068 3.897,10.493 4.759 C 10.809 5.401,10.872 6.100,10.680 6.837 C 10.551 7.330,10.446 7.530,9.810 8.488 C 9.578 8.836,9.337 9.229,9.274 9.359 L 9.160 9.597 8.000 9.597 L 6.840 9.598 6.729 9.366 C 6.669 9.238,6.428 8.845,6.194 8.493 C 5.961 8.141,5.719 7.765,5.656 7.658 C 5.145 6.783,5.071 5.679,5.467 4.834 C 5.919 3.868,6.868 3.241,7.933 3.204 C 7.977 3.203,8.127 3.213,8.267 3.226 M7.319 4.130 C 7.274 4.142,7.164 4.190,7.074 4.238 C 6.503 4.542,6.055 5.178,6.054 5.686 C 6.053 5.994,6.281 6.319,6.566 6.417 C 6.979 6.557,7.373 6.387,7.572 5.982 C 7.671 5.780,7.728 5.712,7.876 5.617 C 8.162 5.433,8.322 5.182,8.324 4.913 C 8.326 4.475,8.001 4.130,7.573 4.115 C 7.478 4.112,7.363 4.119,7.319 4.130 M6.320 12.022 C 5.643 12.093,5.367 12.878,5.848 13.363 C 6.019 13.535,6.149 13.581,6.497 13.595 L 6.794 13.606 6.811 13.711 C 6.851 13.959,7.039 14.207,7.276 14.325 C 7.395 14.384,7.426 14.387,8.000 14.387 C 8.573 14.387,8.606 14.384,8.724 14.325 C 8.957 14.209,9.150 13.954,9.189 13.712 L 9.206 13.606 9.503 13.595 C 9.851 13.581,9.981 13.535,10.151 13.364 C 10.538 12.974,10.452 12.364,9.975 12.110 L 9.811 12.023 8.152 12.013 C 7.240 12.008,6.415 12.012,6.320 12.022 " fill="#1A1C1F" stroke="none" fill-rule="evenodd"></path></svg>