<svg xmlns="http://www.w3.org/2000/svg" width="16" height="16" fill="none"><g clip-path="url(#a)"><path fill="#1A1C1F" fill-rule="evenodd" d="M9.6 12H6.4a.8.8 0 1 0 0 1.6h.403a.8.8 0 0 0 .8.8h.793a.8.8 0 0 0 .8-.8H9.6a.8.8 0 1 0 0-1.6M8 1.6c2.427 0 4.4 1.974 4.4 4.4 0 1.585-.72 2.61-1.247 3.36-.294.418-.549.78-.559 1.068a.8.8 0 0 1-.8.771H6.206a.8.8 0 0 1-.8-.771c-.01-.288-.265-.65-.56-1.069C4.32 8.611 3.6 7.585 3.6 6c0-2.425 1.973-4.4 4.4-4.4m0 1.6A2.803 2.803 0 0 0 5.2 6c0 1.08.487 1.77.956 2.44.257.366.52.74.684 1.16h2.32c.164-.42.427-.794.684-1.16.47-.67.956-1.36.956-2.44 0-1.545-1.256-2.8-2.8-2.8m-.78.957a.8.8 0 0 1 .624 1.473.4.4 0 0 0-.23.262.8.8 0 1 1-1.54-.431A2.02 2.02 0 0 1 7.22 4.157" clip-rule="evenodd"/></g><defs><clipPath id="a"><path fill="#fff" d="M0 0h16v16H0z"/></clipPath></defs></svg>