<svg xmlns="http://www.w3.org/2000/svg" width="32" height="32" fill="none"><g clip-path="url(#a)"><path fill="#1A1C1F" fill-rule="evenodd" d="M20 26h-2.482q-.009-.002-.018-.004-.011.002-.02.004h-2.96q-.01-.002-.02-.004-.01.002-.018.004H12a1 1 0 1 0 0 2h1.5v1a1 1 0 0 0 1 1h3a1 1 0 0 0 1-1v-1H20a1 1 0 1 0-.002-2m0-3h-8a1 1 0 1 0 0 2h8a1 1 0 1 0 0-2M16 2c5.404 0 9.8 4.397 9.8 9.8 0 3.648-1.64 5.461-2.957 6.919-.77.852-1.378 1.525-1.451 2.367a1 1 0 0 1-.997.914l-4.366-.006c-.01.001-.018.006-.029.006l-.028-.006-4.37-.006a1 1 0 0 1-.995-.91c-.075-.838-.681-1.508-1.45-2.359C7.84 17.262 6.2 15.448 6.2 11.8 6.2 6.396 10.595 2 16 2m0 1.999c-4.302 0-7.8 3.499-7.8 7.8 0 2.878 1.24 4.251 2.44 5.578.704.778 1.425 1.577 1.77 2.611l2.59.004v-2.668l-1.262-1.737a1 1 0 1 1 1.617-1.175l.644.886.643-.886a.999.999 0 1 1 1.618 1.175L17 17.324v2.671l2.585.004c.343-1.039 1.067-1.841 1.774-2.623 1.2-1.327 2.44-2.699 2.44-5.577 0-4.301-3.498-7.8-7.8-7.8m-2.825 1.947a1 1 0 1 1 .872 1.799 4.51 4.51 0 0 0-2.229 2.391 1 1 0 0 1-1.857-.742 6.5 6.5 0 0 1 3.213-3.447z" clip-rule="evenodd"/></g><defs><clipPath id="a"><path fill="#fff" d="M0 0h32v32H0z"/></clipPath></defs></svg>