<svg width="28" height="28" viewBox="0 0 28 28" fill="none" xmlns="http://www.w3.org/2000/svg"><path d="M13.043 1.823 C 11.057 1.992,8.889 3.130,7.537 4.711 C 5.611 6.962,4.941 10.037,5.777 12.787 C 6.153 14.022,6.631 14.804,7.877 16.226 C 8.884 17.374,9.129 17.751,9.264 18.361 C 9.359 18.786,9.484 18.987,9.727 19.106 C 9.894 19.188,10.087 19.198,12.129 19.236 C 13.351 19.259,15.169 19.271,16.170 19.264 C 17.922 19.251,17.998 19.246,18.208 19.149 C 18.490 19.019,18.631 18.799,18.754 18.301 C 18.905 17.692,19.163 17.305,20.203 16.132 C 21.701 14.442,22.319 13.142,22.538 11.223 C 22.738 9.475,22.279 7.448,21.331 5.890 C 19.943 3.610,17.469 2.050,14.877 1.821 C 14.286 1.768,13.668 1.769,13.043 1.823 M15.217 3.622 C 17.766 4.055,19.878 6.029,20.615 8.665 C 20.740 9.112,20.743 9.153,20.743 10.360 C 20.742 11.506,20.734 11.626,20.634 11.993 C 20.331 13.109,19.915 13.798,18.723 15.161 C 17.955 16.041,17.616 16.501,17.337 17.044 L 17.103 17.499 15.995 17.499 L 14.887 17.500 14.887 16.319 L 14.887 15.139 15.235 14.665 C 16.146 13.425,16.248 13.192,16.063 12.774 C 15.920 12.452,15.660 12.297,15.260 12.297 C 14.870 12.297,14.724 12.397,14.313 12.952 C 14.154 13.167,14.013 13.343,14.000 13.343 C 13.987 13.344,13.841 13.163,13.676 12.942 C 13.307 12.450,13.080 12.273,12.815 12.274 C 12.341 12.274,12.014 12.498,11.902 12.897 C 11.792 13.289,11.881 13.471,12.769 14.673 L 13.113 15.140 13.113 16.320 L 13.113 17.500 11.998 17.500 L 10.883 17.500 10.668 17.058 C 10.416 16.540,10.074 16.075,9.280 15.167 C 7.994 13.696,7.505 12.833,7.302 11.672 C 7.209 11.140,7.209 9.577,7.303 9.040 C 7.543 7.664,8.385 6.190,9.473 5.242 C 10.377 4.456,11.517 3.884,12.663 3.643 C 13.230 3.524,14.576 3.513,15.217 3.622 M11.554 5.207 C 11.192 5.339,10.437 5.889,9.960 6.366 C 9.446 6.881,9.206 7.218,8.882 7.877 C 8.687 8.273,8.671 8.334,8.689 8.584 C 8.715 8.944,8.858 9.157,9.182 9.317 C 9.472 9.460,9.720 9.444,9.987 9.267 C 10.144 9.163,10.200 9.080,10.644 8.307 C 10.908 7.845,11.431 7.328,12.032 6.933 C 12.624 6.544,12.764 6.359,12.762 5.971 C 12.760 5.629,12.619 5.410,12.299 5.249 C 12.041 5.120,11.825 5.107,11.554 5.207 M11.103 20.155 C 10.152 20.183,10.141 20.185,9.978 20.309 C 9.800 20.445,9.669 20.678,9.627 20.931 C 9.589 21.167,9.801 21.575,10.046 21.737 L 10.237 21.863 13.997 21.863 L 17.757 21.863 17.921 21.761 C 18.493 21.406,18.522 20.657,17.979 20.287 L 17.803 20.168 14.933 20.147 C 13.355 20.136,11.631 20.139,11.103 20.155 M10.025 22.925 C 9.493 23.326,9.500 23.989,10.040 24.346 C 10.232 24.474,10.252 24.477,11.021 24.492 L 11.807 24.508 11.808 24.959 C 11.809 25.540,11.857 25.734,12.048 25.933 C 12.359 26.256,12.320 26.250,14.000 26.250 C 15.680 26.250,15.641 26.256,15.952 25.933 C 16.143 25.734,16.191 25.540,16.192 24.959 L 16.193 24.508 16.979 24.492 C 17.748 24.477,17.768 24.474,17.960 24.346 C 18.196 24.190,18.327 23.989,18.367 23.720 C 18.407 23.453,18.248 23.131,17.975 22.925 L 17.773 22.773 14.000 22.773 L 10.227 22.773 10.025 22.925 " fill="#1A1C1F" stroke="none" fill-rule="evenodd"></path></svg>