<svg xmlns="http://www.w3.org/2000/svg" width="24" height="24" fill="none"><g clip-path="url(#a)"><path fill="#1A1C1F" fill-rule="evenodd" d="M15.001 18.5H8.999a1 1 0 1 0 0 2H10v.498a1 1 0 0 0 1 1h2.002a1 1 0 0 0 1-1V20.5h.999a1 1 0 1 0 0-2M12 2.002c3.86 0 7 3.14 7 7 0 2.624-1.223 3.894-2.116 4.821-.604.628-.895.952-.895 1.438v1.24a1 1 0 0 1-1 1H9.011a1 1 0 0 1-1-1v-1.24c0-.486-.291-.81-.895-1.437C6.223 12.897 5 11.627 5 9.002c0-3.86 3.14-7 7-7m-.002 2c-2.757 0-5 2.243-5 5 0 1.818.757 2.603 1.557 3.435.682.709 1.455 1.511 1.455 2.825v.239h.994v-2.49a1 1 0 1 1 2 0v2.49h.984v-.24c0-1.312.773-2.115 1.453-2.823.801-.833 1.557-1.619 1.557-3.437 0-2.756-2.243-5-5-5m-1.385 1.25a1 1 0 0 1 .698 1.875 2.02 2.02 0 0 0-1.118 1.03 1.003 1.003 0 0 1-1.331.48 1 1 0 0 1-.48-1.33 4.04 4.04 0 0 1 2.23-2.057z" clip-rule="evenodd"/></g><defs><clipPath id="a"><path fill="#fff" d="M0 0h24v24H0z"/></clipPath></defs></svg>