<svg xmlns="http://www.w3.org/2000/svg" width="32" height="32" fill="none"><path fill="#1A1C1F" fill-rule="evenodd" d="M14.576 2.11c-2.725.397-5.186 1.961-6.736 4.28-1.659 2.481-2.093 5.699-1.151 8.515.414 1.236 1.076 2.277 2.326 3.655 1.075 1.184 1.493 1.827 1.573 2.415.042.306.173.604.326.739.291.254.142.246 4.873.287 3.391.03 4.526.024 4.76-.025.506-.105.787-.431.864-.999.081-.591.461-1.181 1.524-2.364 1.344-1.495 1.954-2.448 2.376-3.708.685-2.047.654-4.296-.086-6.398-1.192-3.384-4.265-5.891-7.845-6.4-.682-.097-2.132-.095-2.804.003m2.837 2.022c1.586.284 3.222 1.189 4.318 2.388.687.75 1.345 1.855 1.654 2.776.464 1.384.525 3.111.16 4.506-.33 1.257-.804 2.023-2.261 3.656-.798.894-1.144 1.368-1.453 1.995l-.269.547h-2.549v-2.697l.622-.851c.342-.468.665-.947.719-1.065.302-.665-.167-1.36-.918-1.36-.414 0-.624.146-1.043.728-.198.274-.375.498-.394.498-.018 0-.168-.188-.333-.418-.334-.467-.614-.737-.816-.787-.277-.07-.7.006-.905.163-.363.277-.5.823-.303 1.204.053.102.377.568.72 1.037l.625.851V20h-2.554l-.236-.493c-.31-.648-.615-1.067-1.503-2.067-1.231-1.388-1.717-2.105-2.057-3.033-.318-.871-.391-1.349-.392-2.567-.001-1.182.064-1.631.368-2.538.925-2.754 3.406-4.805 6.32-5.225.627-.091 1.815-.064 2.48.055M13.12 5.978c-.43.195-1.245.775-1.654 1.178a6.1 6.1 0 0 0-1.265 1.738c-.24.479-.301.652-.301.853.002.859.974 1.322 1.624.774.089-.074.26-.33.38-.568a8 8 0 0 1 .418-.73c.274-.403.974-1.049 1.383-1.276.491-.273.789-.557.86-.819.232-.86-.609-1.529-1.445-1.15m-1.373 17.06c-.366.089-.659.411-.733.809-.084.447.253.984.694 1.107.297.082 8.287.082 8.584 0 .283-.079.588-.391.667-.682.118-.442-.041-.85-.433-1.11l-.225-.149-4.19-.008c-2.305-.005-4.269.01-4.364.033m-.287 3.141c-.666.423-.588 1.391.138 1.721.179.081.356.098 1.051.099l.836.001.017.657c.017.614.028.673.165.879.08.122.248.276.373.343.222.119.26.121 1.96.121 1.654 0 1.743-.005 1.947-.111.117-.062.285-.214.373-.338.154-.218.161-.252.178-.889l.017-.662.836-.001c.695-.001.872-.018 1.051-.099.726-.33.804-1.298.138-1.721l-.241-.152h-8.598z"/></svg>