<svg xmlns="http://www.w3.org/2000/svg" width="28" height="28" fill="none"><g clip-path="url(#a)"><path fill="#1A1C1F" fill-rule="evenodd" d="M17.5 22.75h-2.171q-.008-.002-.017-.003-.008.002-.017.003h-2.59q-.009-.002-.017-.003-.008.002-.017.003h-2.17a.875.875 0 1 0 0 1.75h1.312v.875c0 .484.392.875.875.875h2.625a.875.875 0 0 0 .875-.875V24.5H17.5a.875.875 0 1 0 0-1.75m0-2.625h-7a.875.875 0 1 0 0 1.75h7a.875.875 0 1 0 0-1.75M14 1.75c4.729 0 8.575 3.847 8.575 8.575 0 3.192-1.435 4.778-2.587 6.054-.674.746-1.207 1.334-1.27 2.071a.874.874 0 0 1-.873.8l-3.82-.005-.025.005c-.008 0-.016-.005-.025-.005l-3.823-.006a.875.875 0 0 1-.87-.796c-.067-.733-.597-1.32-1.27-2.064-1.152-1.275-2.587-2.862-2.587-6.054C5.425 5.597 9.27 1.75 14 1.75m0 1.75a6.833 6.833 0 0 0-6.825 6.824c0 2.518 1.085 3.72 2.135 4.88.616.682 1.247 1.38 1.548 2.285l2.267.004v-2.334l-1.105-1.52a.875.875 0 1 1 1.416-1.028l.564.775.562-.775a.874.874 0 1 1 1.416 1.028l-1.103 1.52v2.337l2.262.003c.3-.909.934-1.61 1.553-2.295l.126-.14.25-.282c.918-1.046 1.759-2.242 1.759-4.458A6.833 6.833 0 0 0 14 3.5m-2.472 1.703a.875.875 0 1 1 .764 1.574 3.95 3.95 0 0 0-1.95 2.092.875.875 0 0 1-1.627-.65 5.7 5.7 0 0 1 2.812-3.015z" clip-rule="evenodd"/></g><defs><clipPath id="a"><path fill="#fff" d="M0 0h28v28H0z"/></clipPath></defs></svg>