<svg width="20" height="20" viewBox="0 0 20 20" fill="none" xmlns="http://www.w3.org/2000/svg"><path d="M9.442 2.033 C 8.163 2.168,7.018 2.719,6.107 3.640 C 5.277 4.479,4.757 5.504,4.563 6.683 C 4.505 7.033,4.505 8.075,4.562 8.400 C 4.768 9.573,5.088 10.276,6.082 11.743 C 6.569 12.462,6.672 12.666,6.765 13.098 C 6.860 13.536,7.006 13.734,7.370 13.919 L 7.531 14.000 10.000 14.000 C 12.455 14.000,12.470 14.000,12.610 13.929 C 12.988 13.737,13.141 13.534,13.235 13.098 C 13.330 12.659,13.416 12.493,14.023 11.581 C 14.620 10.683,14.798 10.374,15.019 9.847 C 15.889 7.773,15.549 5.506,14.125 3.874 C 13.313 2.944,12.122 2.285,10.885 2.083 C 10.502 2.021,9.795 1.996,9.442 2.033 M10.333 4.033 C 11.542 4.153,12.585 4.871,13.117 5.949 C 13.512 6.751,13.590 7.625,13.350 8.547 C 13.189 9.161,13.063 9.401,12.261 10.611 C 11.971 11.048,11.670 11.538,11.592 11.700 L 11.450 11.996 10.000 11.997 L 8.550 11.998 8.412 11.707 C 8.336 11.547,8.035 11.057,7.743 10.617 C 6.935 9.398,6.811 9.163,6.649 8.542 C 6.304 7.219,6.634 5.938,7.558 5.014 C 8.082 4.490,8.818 4.129,9.550 4.038 C 9.871 3.998,9.969 3.997,10.333 4.033 M9.150 5.163 C 8.881 5.233,8.408 5.552,8.163 5.827 C 7.777 6.261,7.547 6.783,7.575 7.167 C 7.602 7.548,7.799 7.830,8.162 8.006 C 8.380 8.111,8.745 8.101,8.987 7.983 C 9.198 7.880,9.325 7.739,9.497 7.417 C 9.584 7.256,9.668 7.150,9.770 7.077 C 10.235 6.742,10.400 6.498,10.400 6.145 C 10.400 5.584,10.008 5.163,9.467 5.144 C 9.348 5.140,9.205 5.149,9.150 5.163 M7.900 15.028 C 7.054 15.116,6.708 16.098,7.310 16.703 C 7.524 16.918,7.686 16.976,8.119 16.993 L 8.488 17.008 8.528 17.201 C 8.598 17.539,8.873 17.835,9.222 17.949 C 9.363 17.996,9.506 18.003,10.071 17.994 C 10.697 17.984,10.762 17.977,10.903 17.908 C 11.193 17.765,11.438 17.443,11.486 17.140 L 11.507 17.008 11.879 16.993 C 12.314 16.976,12.476 16.918,12.688 16.705 C 13.171 16.219,13.065 15.455,12.471 15.138 L 12.269 15.031 10.193 15.018 C 9.051 15.011,8.019 15.015,7.900 15.028 " fill="#1A1C1F" stroke="none" fill-rule="evenodd"></path></svg>