<svg width="32" height="32" viewBox="0 0 32 32" fill="none" xmlns="http://www.w3.org/2000/svg"><path d="M14.907 2.083 C 12.637 2.277,10.159 3.577,8.613 5.384 C 6.413 7.956,5.647 11.471,6.603 14.613 C 7.032 16.025,7.578 16.919,9.003 18.544 C 10.153 19.856,10.433 20.287,10.588 20.984 C 10.696 21.469,10.839 21.699,11.116 21.835 C 11.308 21.929,11.528 21.941,13.862 21.984 C 15.258 22.010,17.336 22.024,18.480 22.016 C 20.482 22.001,20.569 21.996,20.809 21.885 C 21.121 21.741,21.312 21.465,21.393 21.038 C 21.523 20.361,21.844 19.858,22.960 18.587 C 23.925 17.488,24.492 16.705,24.854 15.973 C 25.957 13.749,26.107 11.167,25.277 8.685 C 24.434 6.162,22.622 4.130,20.164 2.952 C 18.591 2.198,16.876 1.914,14.907 2.083 M17.391 4.139 C 19.348 4.475,21.294 5.736,22.390 7.379 C 22.819 8.021,23.244 8.857,23.409 9.387 C 24.035 11.380,23.825 13.832,22.898 15.378 C 22.607 15.864,22.100 16.523,21.394 17.333 C 20.397 18.477,20.074 18.927,19.701 19.693 L 19.551 20.000 18.282 20.000 L 17.013 20.000 17.013 18.651 L 17.013 17.301 17.411 16.760 C 18.452 15.343,18.569 15.077,18.358 14.599 C 18.195 14.230,17.897 14.053,17.440 14.053 C 16.994 14.053,16.827 14.168,16.358 14.802 C 16.176 15.048,16.015 15.249,16.000 15.250 C 15.985 15.250,15.819 15.044,15.629 14.791 C 15.208 14.228,14.948 14.027,14.645 14.027 C 14.104 14.028,13.730 14.283,13.602 14.739 C 13.477 15.187,13.578 15.395,14.593 16.769 L 14.987 17.302 14.987 18.651 L 14.987 20.000 13.708 20.000 L 12.430 20.000 12.244 19.597 C 11.963 18.990,11.661 18.568,10.715 17.466 C 9.178 15.674,8.764 14.999,8.416 13.717 C 8.260 13.143,8.214 11.097,8.340 10.366 C 8.617 8.764,9.572 7.085,10.827 5.991 C 11.859 5.092,13.162 4.439,14.472 4.163 C 15.122 4.027,16.660 4.014,17.391 4.139 M13.205 5.951 C 12.791 6.102,11.928 6.730,11.384 7.276 C 10.795 7.866,10.556 8.198,10.174 8.957 C 9.972 9.357,9.920 9.514,9.920 9.726 C 9.920 10.403,10.515 10.890,11.137 10.723 C 11.446 10.639,11.654 10.408,12.027 9.731 C 12.429 9.000,12.963 8.440,13.749 7.924 C 14.428 7.479,14.587 7.268,14.585 6.824 C 14.583 6.434,14.422 6.183,14.056 5.999 C 13.762 5.851,13.515 5.837,13.205 5.951 M12.716 23.034 C 11.599 23.066,11.590 23.068,11.403 23.210 C 11.200 23.366,11.050 23.632,11.003 23.922 C 10.959 24.191,11.201 24.657,11.481 24.843 L 11.699 24.987 15.996 24.987 L 20.293 24.987 20.481 24.870 C 21.134 24.464,21.168 23.608,20.547 23.185 L 20.347 23.049 17.093 23.026 C 15.304 23.012,13.334 23.016,12.716 23.034 M11.457 26.200 C 10.849 26.658,10.857 27.416,11.474 27.825 C 11.694 27.970,11.717 27.974,12.596 27.991 L 13.493 28.009 13.495 28.524 C 13.496 29.188,13.551 29.411,13.769 29.638 C 14.124 30.007,14.080 30.000,16.000 30.000 C 17.918 30.000,17.876 30.007,18.228 29.641 C 18.456 29.403,18.507 29.206,18.507 28.552 L 18.507 28.009 19.404 27.991 C 20.283 27.974,20.306 27.970,20.526 27.825 C 20.796 27.646,20.945 27.416,20.991 27.109 C 21.037 26.804,20.855 26.436,20.543 26.200 L 20.312 26.027 16.000 26.027 L 11.688 26.027 11.457 26.200 " fill="#1A1C1F" stroke="none" fill-rule="evenodd"></path></svg>