<svg xmlns="http://www.w3.org/2000/svg" width="12" height="12" fill="none"><g clip-path="url(#a)"><path fill="#1A1C1F" fill-rule="evenodd" d="M7.2 9H4.8a.6.6 0 1 0 0 1.2h.302a.6.6 0 0 0 .6.6h.595a.6.6 0 0 0 .6-.6H7.2a.6.6 0 1 0 0-1.2M6 1.2c1.82 0 3.3 1.48 3.3 3.3 0 1.189-.54 1.958-.935 2.52-.22.314-.412.585-.42.801a.6.6 0 0 1-.6.578h-2.69a.6.6 0 0 1-.6-.578c-.008-.216-.2-.488-.42-.802C3.24 6.46 2.7 5.69 2.7 4.5 2.7 2.68 4.18 1.2 6 1.2m0 1.2c-1.158 0-2.1.941-2.1 2.1 0 .81.365 1.328.717 1.83.193.274.39.554.513.87h1.74c.123-.316.32-.596.513-.87.353-.502.717-1.02.717-1.83 0-1.159-.942-2.1-2.1-2.1m-.585.718a.6.6 0 0 1 .468 1.105.3.3 0 0 0-.173.196.6.6 0 1 1-1.155-.323c.122-.436.443-.801.86-.978" clip-rule="evenodd"/></g><defs><clipPath id="a"><path fill="#fff" d="M0 0h12v12H0z"/></clipPath></defs></svg>