<svg xmlns="http://www.w3.org/2000/svg" width="16" height="16" fill="none"><g clip-path="url(#a)"><path fill="#1A1C1F" fill-rule="evenodd" d="M1.6 13.6V2.4c0-.453.347-.8.8-.8h11.2c.453 0 .8.347.8.8v3.196a.79.79 0 0 1-.8.804.8.8 0 0 1-.8-.804V3.2H3.2v9.6h3.2a.81.81 0 0 1 .804.8.8.8 0 0 1-.804.8h-4a.787.787 0 0 1-.8-.8m2.404-5.584c0-2.217 1.78-4.012 3.98-4.012 1.14 0 2.248.484 3.013 1.358.14.156.203.343.203.515 0 .437-.375.812-.796.812a.78.78 0 0 1-.609-.281 2.38 2.38 0 0 0-1.78-.812 2.42 2.42 0 0 0-2.419 2.42c0 .67.297 1.326.812 1.78a.83.83 0 0 1 .28.608.79.79 0 0 1-.795.796.8.8 0 0 1-.531-.203 3.97 3.97 0 0 1-1.358-2.981M6.4 8.004c0-.44.345-.8.8-.8.44 0 .8.36.8.8s-.36.8-.8.8c-.455 0-.8-.36-.8-.8m3.707-.769c.203 0 .406.078.562.234L11.2 8l.312-.297a.78.78 0 0 1 .562-.218c.203 0 .406.062.562.218l.937.921c.546.562.811 1.296.811 2.045 0 .672-.234 1.358-.702 1.905l.468.437c.156.156.25.374.25.593 0 .453-.36.796-.812.796a.84.84 0 0 1-.546-.219l-.484-.468c-.562.453-1.249.671-1.982.671-.718 0-1.42-.296-1.936-.811l-.937-.937a.74.74 0 0 1-.234-.562c0-.218.078-.421.234-.562L8 11.216l-.562-.562a.78.78 0 0 1-.265-.594.8.8 0 0 1 .796-.796.8.8 0 0 1 .593.25l.562.562.952-.936-.546-.547a.79.79 0 0 1 0-1.124.8.8 0 0 1 .577-.234m1.967 2.154L9.39 12.074l.375.36c.25.249.577.358.905.358s.656-.107.91-.333l.776-.775c.297-.281.437-.64.437-1.015 0-.328-.11-.655-.343-.905z" clip-rule="evenodd"/></g><defs><clipPath id="a"><path fill="#fff" d="M0 0h16v16H0z"/></clipPath></defs></svg>