<svg width="12" height="12" viewBox="0 0 12 12" fill="none" xmlns="http://www.w3.org/2000/svg"><path d="M2.680 1.219 C 1.806 1.228,1.580 1.235,1.540 1.258 C 1.421 1.323,1.320 1.426,1.266 1.535 L 1.210 1.650 1.204 5.740 C 1.198 9.867,1.205 10.375,1.268 10.496 C 1.308 10.574,1.451 10.699,1.566 10.756 L 1.657 10.801 3.304 10.796 L 4.950 10.790 5.040 10.746 C 5.176 10.678,5.265 10.596,5.330 10.477 C 5.381 10.383,5.388 10.350,5.388 10.200 C 5.389 10.065,5.380 10.014,5.346 9.950 C 5.296 9.856,5.154 9.708,5.073 9.666 C 4.971 9.614,4.674 9.601,3.525 9.601 L 2.400 9.600 2.400 6.000 L 2.400 2.400 5.999 2.400 L 9.598 2.400 9.604 3.375 L 9.610 4.350 9.667 4.466 C 9.730 4.594,9.867 4.719,9.995 4.763 C 10.110 4.803,10.333 4.794,10.444 4.744 C 10.562 4.692,10.677 4.577,10.741 4.449 L 10.790 4.350 10.796 3.004 L 10.801 1.658 10.737 1.537 C 10.673 1.418,10.567 1.313,10.450 1.255 C 10.398 1.229,9.970 1.224,7.080 1.216 C 5.259 1.211,3.280 1.212,2.680 1.219 M5.691 3.021 C 4.581 3.145,3.629 3.867,3.222 4.893 C 2.907 5.688,2.943 6.594,3.321 7.340 C 3.468 7.631,3.805 8.061,4.036 8.250 C 4.301 8.469,4.675 8.436,4.881 8.177 C 4.974 8.059,5.008 7.954,5.006 7.790 C 5.004 7.629,4.952 7.524,4.776 7.328 C 4.578 7.107,4.470 6.957,4.389 6.789 C 4.249 6.498,4.235 6.439,4.225 6.080 C 4.214 5.661,4.239 5.531,4.388 5.230 C 4.578 4.846,4.846 4.578,5.230 4.388 C 5.531 4.239,5.661 4.214,6.080 4.225 C 6.439 4.235,6.498 4.249,6.789 4.389 C 6.961 4.472,7.111 4.581,7.338 4.790 C 7.430 4.875,7.537 4.958,7.576 4.974 C 7.615 4.990,7.710 5.003,7.793 5.003 C 7.914 5.004,7.962 4.994,8.049 4.951 C 8.263 4.847,8.389 4.646,8.389 4.410 C 8.388 4.211,8.335 4.113,8.101 3.879 C 7.790 3.568,7.342 3.293,6.932 3.162 C 6.563 3.043,6.031 2.983,5.691 3.021 M5.280 5.418 C 5.099 5.457,4.929 5.591,4.853 5.757 C 4.795 5.885,4.794 6.114,4.853 6.241 C 4.913 6.374,5.007 6.471,5.136 6.534 C 5.290 6.610,5.501 6.612,5.649 6.540 C 6.029 6.354,6.110 5.859,5.806 5.579 C 5.658 5.442,5.455 5.380,5.280 5.418 M7.352 5.471 C 7.237 5.514,7.116 5.622,7.051 5.742 C 7.005 5.826,6.991 5.881,6.984 6.003 C 6.971 6.220,7.010 6.290,7.313 6.601 L 7.558 6.852 7.204 7.205 L 6.850 7.558 6.609 7.322 C 6.315 7.034,6.232 6.982,6.045 6.966 C 5.853 6.950,5.714 6.994,5.584 7.110 C 5.443 7.237,5.395 7.345,5.394 7.537 C 5.393 7.765,5.430 7.830,5.737 8.144 L 5.996 8.410 5.846 8.567 C 5.656 8.765,5.610 8.861,5.611 9.060 C 5.612 9.166,5.623 9.234,5.651 9.290 C 5.693 9.379,6.259 9.967,6.570 10.245 C 6.680 10.343,6.837 10.463,6.919 10.511 C 7.595 10.910,8.533 10.862,9.269 10.392 C 9.330 10.352,9.393 10.320,9.407 10.320 C 9.422 10.320,9.527 10.401,9.642 10.501 C 9.756 10.600,9.906 10.709,9.975 10.743 C 10.086 10.799,10.114 10.804,10.225 10.795 C 10.444 10.778,10.644 10.646,10.743 10.456 C 10.778 10.388,10.787 10.336,10.787 10.210 C 10.787 9.975,10.747 9.899,10.482 9.641 L 10.264 9.429 10.358 9.299 C 10.485 9.124,10.532 9.040,10.612 8.846 C 10.737 8.544,10.768 8.373,10.768 7.990 C 10.768 7.603,10.735 7.425,10.606 7.121 C 10.473 6.806,10.352 6.647,9.892 6.190 C 9.659 5.959,9.425 5.741,9.371 5.705 C 9.276 5.642,9.267 5.640,9.060 5.640 C 8.857 5.640,8.844 5.643,8.750 5.702 C 8.696 5.736,8.597 5.817,8.530 5.881 L 8.408 5.999 8.269 5.858 C 8.091 5.677,7.907 5.530,7.797 5.480 C 7.692 5.433,7.470 5.428,7.352 5.471 M9.464 7.512 C 9.578 7.723,9.612 8.028,9.549 8.269 C 9.488 8.506,9.416 8.604,9.000 9.022 C 8.665 9.358,8.591 9.423,8.478 9.477 C 8.193 9.612,7.937 9.629,7.670 9.532 C 7.506 9.473,7.425 9.417,7.209 9.214 L 7.037 9.053 8.043 8.046 L 9.050 7.038 9.230 7.225 C 9.329 7.327,9.434 7.457,9.464 7.512 " fill="#1A1C1F" stroke="none" fill-rule="evenodd"></path></svg>