<svg xmlns="http://www.w3.org/2000/svg" width="28" height="28" fill="none"><g clip-path="url(#a)"><path fill="#1A1C1F" fill-rule="evenodd" d="M1.75 18.402V4.375c0-1.394 1.148-2.625 2.543-2.625h14.108C19.823 1.75 21 2.98 21 4.375v7.032c0 .465-.411.847-.903.847a.85.85 0 0 1-.848-.847V4.375c0-.465-.383-.875-.848-.875H4.293c-.465 0-.793.41-.793.875v14.027c0 .465.41.848.875.848h7.028c.465 0 .848.409.848.874a.86.86 0 0 1-.848.875L4.375 21C2.98 21 1.75 19.824 1.75 18.402M11.375 5.25a6.12 6.12 0 0 1 6.125 6.125c0 3.372-2.753 6.125-6.125 6.125a6.12 6.12 0 0 1-6.125-6.125c0-3.4 2.725-6.125 6.125-6.125m0 1.75A4.38 4.38 0 0 0 7 11.375a4.38 4.38 0 0 0 4.375 4.375 4.38 4.38 0 0 0 4.375-4.375A4.38 4.38 0 0 0 11.375 7m-1.764 3.5c.5 0 .889.367.889.875 0 .48-.389.875-.889.875a.873.873 0 0 1-.861-.875c0-.508.389-.875.861-.875m3.514 0c.48 0 .875.367.875.875a.88.88 0 0 1-.875.875.88.88 0 0 1-.875-.875c0-.508.395-.875.875-.875m6.098 4.266c.191 0 .383.054.52.191l1.558 1.559.601-.602a.86.86 0 0 1 .602-.273c.191 0 .383.054.52.191l1.722 1.695a4.33 4.33 0 0 1 1.34 3.118c0 1.038-.383 2.105-1.176 3.062l1.094 1.094a.85.85 0 0 1 .246.601c0 .465-.383.848-.82.848-.192 0-.41-.082-.63-.246l-1.093-1.094a4.25 4.25 0 0 1-2.953 1.176 4.43 4.43 0 0 1-3.063-1.203l-1.777-1.778a.85.85 0 0 1-.246-.601.9.9 0 0 1 .164-.52l.656-.656-1.476-1.476a.95.95 0 0 1-.246-.602c0-.492.382-.848.847-.848.192 0 .383.055.52.165l1.558 1.558 2.407-2.406-1.477-1.504a.85.85 0 0 1-.246-.602c0-.437.41-.847.848-.847m3.308 2.926-4.812 4.812 1.011 1.039c.547.52 1.286.848 2.051.848.602 0 1.203-.192 1.696-.63l1.175-1.175a2.8 2.8 0 0 0 .739-1.887c0-.683-.246-1.34-.739-1.86z" clip-rule="evenodd"/></g><defs><clipPath id="a"><path fill="#fff" d="M0 0h28v28H0z"/></clipPath></defs></svg>