<svg xmlns="http://www.w3.org/2000/svg" width="12" height="12" fill="none"><g clip-path="url(#a)"><path fill="#1A1C1F" fill-rule="evenodd" d="M1.2 10.2V1.8c0-.34.26-.6.6-.6h8.4c.34 0 .6.26.6.6v2.397c0 .34-.26.603-.6.603a.6.6 0 0 1-.6-.603V2.4H2.4v7.2h2.4a.6.6 0 1 1 0 1.2h-3a.59.59 0 0 1-.6-.6m1.803-4.188c0-1.663 1.335-3.009 2.985-3.009.855 0 1.686.363 2.26 1.018a.58.58 0 0 1 .152.387.62.62 0 0 1-.597.609.58.58 0 0 1-.457-.211 1.79 1.79 0 0 0-1.334-.609c-1.007 0-1.815.82-1.815 1.815 0 .503.223.995.609 1.334.129.117.21.281.21.457a.59.59 0 0 1-.596.597.6.6 0 0 1-.399-.152 2.97 2.97 0 0 1-1.018-2.236M4.8 6.003c0-.33.259-.6.6-.6.33 0 .6.27.6.6s-.27.6-.6.6c-.341 0-.6-.27-.6-.6m2.78-.577c.153 0 .305.059.422.176L8.4 6l.234-.222a.58.58 0 0 1 .422-.164c.152 0 .304.046.421.164l.703.69c.41.422.608.972.608 1.534 0 .503-.175 1.018-.527 1.428l.352.328a.64.64 0 0 1 .187.445c0 .34-.27.597-.609.597a.63.63 0 0 1-.41-.164l-.362-.351c-.422.34-.937.503-1.487.503a2.07 2.07 0 0 1-1.452-.608l-.702-.703a.56.56 0 0 1-.176-.421c0-.164.058-.316.176-.422L6 8.412l-.421-.422a.59.59 0 0 1-.2-.445.6.6 0 0 1 .598-.597c.163 0 .327.059.444.188l.422.421.714-.702-.41-.41a.594.594 0 0 1 0-.843.6.6 0 0 1 .433-.176m1.476 1.616L7.042 9.056l.28.269c.188.187.434.27.68.27.28 0 .562-.106.76-.329l.504-.503c.223-.21.328-.48.328-.761a.99.99 0 0 0-.257-.68z" clip-rule="evenodd"/></g><defs><clipPath id="a"><path fill="#fff" d="M0 0h12v12H0z"/></clipPath></defs></svg>