<svg width="14" height="14" viewBox="0 0 14 14" fill="none" xmlns="http://www.w3.org/2000/svg"><path d="M3.068 1.421 C 2.099 1.432,1.843 1.441,1.797 1.467 C 1.658 1.544,1.540 1.664,1.477 1.791 L 1.412 1.925 1.405 6.697 C 1.398 11.499,1.406 12.104,1.479 12.244 C 1.527 12.338,1.679 12.470,1.820 12.542 L 1.938 12.602 3.857 12.595 L 5.775 12.588 5.880 12.536 C 6.039 12.458,6.143 12.362,6.218 12.223 C 6.278 12.113,6.286 12.075,6.286 11.900 C 6.287 11.742,6.277 11.683,6.237 11.608 C 6.178 11.498,6.013 11.326,5.918 11.277 C 5.800 11.216,5.454 11.201,4.112 11.201 L 2.800 11.200 2.800 7.000 L 2.800 2.800 6.999 2.800 L 11.198 2.800 11.205 3.938 C 11.211 5.037,11.213 5.079,11.261 5.181 C 11.333 5.337,11.442 5.450,11.592 5.523 C 11.763 5.606,12.014 5.612,12.184 5.535 C 12.323 5.473,12.471 5.325,12.537 5.184 C 12.588 5.076,12.588 5.064,12.595 3.505 L 12.602 1.934 12.526 1.794 C 12.452 1.655,12.329 1.533,12.192 1.464 C 12.130 1.433,11.632 1.428,8.202 1.418 C 6.046 1.413,3.736 1.414,3.068 1.421 M6.708 3.515 C 5.958 3.595,5.336 3.852,4.782 4.311 C 3.889 5.052,3.432 6.132,3.522 7.288 C 3.587 8.116,3.920 8.830,4.531 9.453 C 4.808 9.736,4.905 9.787,5.157 9.787 C 5.373 9.787,5.509 9.731,5.656 9.580 C 5.782 9.450,5.844 9.285,5.841 9.088 C 5.838 8.900,5.777 8.777,5.573 8.550 C 5.341 8.292,5.214 8.116,5.120 7.920 C 4.957 7.580,4.941 7.513,4.930 7.093 C 4.916 6.604,4.945 6.453,5.119 6.102 C 5.341 5.653,5.653 5.341,6.102 5.119 C 6.453 4.945,6.604 4.916,7.093 4.930 C 7.513 4.941,7.580 4.957,7.920 5.120 C 8.120 5.217,8.296 5.345,8.558 5.586 C 8.788 5.797,8.870 5.836,9.093 5.838 C 9.230 5.840,9.284 5.829,9.388 5.778 C 9.639 5.655,9.787 5.422,9.788 5.145 C 9.788 4.933,9.732 4.817,9.515 4.585 C 9.163 4.207,8.594 3.851,8.088 3.689 C 7.697 3.564,7.035 3.480,6.708 3.515 M6.160 6.321 C 5.948 6.366,5.767 6.510,5.668 6.710 C 5.623 6.801,5.612 6.861,5.612 7.000 C 5.613 7.288,5.743 7.500,5.992 7.623 C 6.172 7.712,6.418 7.714,6.591 7.630 C 7.034 7.413,7.129 6.835,6.774 6.508 C 6.601 6.349,6.364 6.277,6.160 6.321 M8.595 6.375 C 8.471 6.415,8.304 6.561,8.229 6.694 C 8.172 6.796,8.157 6.855,8.148 7.001 C 8.133 7.257,8.177 7.337,8.532 7.701 L 8.818 7.994 8.405 8.406 L 7.992 8.818 7.710 8.542 C 7.367 8.207,7.270 8.146,7.053 8.127 C 6.828 8.109,6.666 8.159,6.514 8.295 C 6.349 8.444,6.291 8.574,6.292 8.795 C 6.292 9.059,6.337 9.137,6.693 9.502 L 6.996 9.812 6.821 9.994 C 6.725 10.095,6.623 10.226,6.596 10.286 C 6.529 10.432,6.526 10.704,6.590 10.838 C 6.645 10.953,7.641 11.954,7.875 12.130 C 8.237 12.401,8.661 12.547,9.147 12.570 C 9.748 12.597,10.229 12.477,10.731 12.173 C 10.852 12.100,10.963 12.040,10.978 12.040 C 10.993 12.040,11.115 12.135,11.249 12.251 C 11.382 12.367,11.557 12.494,11.637 12.534 C 11.767 12.598,11.800 12.605,11.929 12.595 C 12.185 12.574,12.418 12.421,12.533 12.198 C 12.574 12.120,12.585 12.059,12.585 11.912 C 12.585 11.637,12.538 11.549,12.229 11.248 L 11.976 11.001 12.078 10.861 C 12.287 10.574,12.421 10.285,12.513 9.918 C 12.555 9.750,12.563 9.654,12.562 9.310 C 12.561 8.944,12.554 8.877,12.499 8.668 C 12.416 8.357,12.222 7.969,12.031 7.732 C 11.849 7.506,11.077 6.751,10.926 6.651 C 10.823 6.583,10.808 6.580,10.571 6.580 C 10.333 6.580,10.318 6.583,10.209 6.652 C 10.146 6.692,10.030 6.786,9.952 6.862 L 9.809 6.999 9.659 6.846 C 9.451 6.636,9.221 6.450,9.098 6.395 C 8.984 6.343,8.726 6.333,8.595 6.375 M11.042 8.764 C 11.168 8.999,11.211 9.332,11.151 9.618 C 11.094 9.888,10.990 10.034,10.500 10.526 C 10.110 10.918,10.023 10.994,9.891 11.056 C 9.559 11.214,9.260 11.234,8.948 11.121 C 8.757 11.051,8.663 10.987,8.410 10.750 L 8.210 10.562 9.384 9.387 L 10.558 8.211 10.768 8.429 C 10.884 8.549,11.007 8.699,11.042 8.764 " fill="#1A1C1F" stroke="none" fill-rule="evenodd"></path></svg>