<svg width="16" height="16" viewBox="0 0 16 16" fill="none" xmlns="http://www.w3.org/2000/svg"><path d="M3.547 1.624 C 2.405 1.637,2.107 1.647,2.053 1.677 C 1.895 1.764,1.760 1.902,1.688 2.047 L 1.613 2.200 1.613 7.920 C 1.613 12.577,1.620 13.676,1.649 13.833 C 1.683 14.017,1.691 14.031,1.843 14.172 C 1.939 14.261,2.045 14.332,2.114 14.352 C 2.202 14.379,2.711 14.387,4.413 14.387 L 6.600 14.387 6.721 14.326 C 6.904 14.235,7.020 14.127,7.106 13.969 C 7.175 13.844,7.184 13.800,7.184 13.600 C 7.185 13.420,7.173 13.351,7.129 13.266 C 7.051 13.120,6.804 12.892,6.677 12.851 C 6.600 12.826,6.141 12.815,4.887 12.807 L 3.200 12.796 3.200 7.998 L 3.200 3.200 7.999 3.200 L 12.798 3.200 12.805 4.500 L 12.813 5.800 12.889 5.955 C 12.973 6.126,13.156 6.291,13.326 6.351 C 13.480 6.404,13.777 6.391,13.925 6.326 C 14.083 6.255,14.253 6.087,14.328 5.925 C 14.386 5.801,14.387 5.788,14.394 4.005 L 14.402 2.209 14.341 2.085 C 14.267 1.934,14.095 1.756,13.956 1.685 C 13.856 1.634,13.756 1.632,9.413 1.621 C 6.971 1.614,4.331 1.616,3.547 1.624 M7.667 4.017 C 6.326 4.160,5.229 4.859,4.546 6.006 C 3.839 7.195,3.837 8.824,4.541 9.985 C 4.751 10.331,4.893 10.513,5.178 10.804 C 5.496 11.128,5.606 11.186,5.893 11.185 C 6.356 11.182,6.682 10.850,6.675 10.387 C 6.672 10.172,6.602 10.031,6.369 9.771 C 6.104 9.476,5.959 9.276,5.852 9.052 C 5.665 8.663,5.647 8.586,5.634 8.107 C 5.619 7.548,5.652 7.374,5.850 6.973 C 6.104 6.461,6.461 6.104,6.973 5.850 C 7.374 5.652,7.548 5.619,8.107 5.634 C 8.586 5.647,8.663 5.665,9.052 5.852 C 9.281 5.962,9.481 6.108,9.784 6.387 C 10.050 6.631,10.137 6.672,10.391 6.674 C 10.546 6.675,10.610 6.662,10.728 6.604 C 11.016 6.463,11.185 6.196,11.186 5.880 C 11.187 5.616,11.116 5.486,10.802 5.172 C 10.386 4.757,9.789 4.390,9.243 4.215 C 8.797 4.073,8.040 3.977,7.667 4.017 M7.040 7.224 C 6.798 7.275,6.572 7.455,6.471 7.676 C 6.393 7.847,6.392 8.152,6.470 8.321 C 6.551 8.498,6.676 8.628,6.848 8.712 C 7.054 8.813,7.335 8.816,7.532 8.720 C 8.038 8.473,8.146 7.811,7.742 7.438 C 7.544 7.256,7.274 7.174,7.040 7.224 M9.803 7.295 C 9.649 7.352,9.488 7.496,9.401 7.656 C 9.340 7.768,9.321 7.842,9.312 8.004 C 9.295 8.293,9.346 8.386,9.751 8.801 L 10.078 9.136 9.605 9.607 L 9.133 10.077 8.797 9.749 C 8.381 9.344,8.289 9.293,7.973 9.294 C 7.699 9.294,7.555 9.354,7.387 9.536 C 7.235 9.701,7.192 9.814,7.191 10.053 C 7.191 10.352,7.242 10.442,7.649 10.859 L 7.995 11.214 7.795 11.422 C 7.685 11.537,7.570 11.687,7.538 11.755 C 7.462 11.923,7.459 12.234,7.532 12.387 C 7.596 12.519,8.737 13.668,9.000 13.865 C 9.667 14.363,10.592 14.507,11.490 14.251 C 11.743 14.179,12.126 14.004,12.358 13.856 C 12.441 13.803,12.524 13.760,12.543 13.760 C 12.562 13.760,12.703 13.868,12.856 14.001 C 13.008 14.133,13.208 14.279,13.300 14.324 C 13.448 14.398,13.485 14.406,13.633 14.394 C 13.925 14.370,14.192 14.195,14.324 13.941 C 14.370 13.851,14.383 13.781,14.383 13.613 C 14.383 13.300,14.329 13.199,13.976 12.854 L 13.686 12.572 13.811 12.399 C 14.159 11.917,14.334 11.417,14.364 10.813 C 14.399 10.133,14.234 9.532,13.863 8.980 C 13.731 8.783,12.682 7.731,12.495 7.606 C 12.368 7.523,12.356 7.520,12.081 7.520 C 11.809 7.520,11.791 7.524,11.667 7.603 C 11.595 7.648,11.463 7.756,11.374 7.842 L 11.210 7.998 11.025 7.811 C 10.787 7.569,10.543 7.374,10.396 7.307 C 10.256 7.244,9.960 7.238,9.803 7.295 M12.619 10.016 C 12.770 10.297,12.816 10.704,12.733 11.026 C 12.650 11.343,12.555 11.473,12.028 12.000 C 11.756 12.272,11.473 12.533,11.400 12.581 C 11.177 12.728,10.955 12.781,10.606 12.769 C 10.175 12.754,10.018 12.675,9.566 12.242 L 9.384 12.069 10.726 10.727 L 12.067 9.384 12.307 9.633 C 12.439 9.770,12.579 9.942,12.619 10.016 " fill="#1A1C1F" stroke="none" fill-rule="evenodd"></path></svg>