<svg width="28" height="28" viewBox="0 0 28 28" fill="none" xmlns="http://www.w3.org/2000/svg"><path d="M4.527 1.814 L 3.570 1.843 3.243 2.007 C 2.868 2.194,2.329 2.696,2.126 3.046 C 2.055 3.168,1.942 3.420,1.876 3.606 L 1.755 3.943 1.736 11.341 L 1.717 18.738 1.863 19.117 C 2.203 19.999,2.764 20.564,3.618 20.886 L 3.922 21.000 7.549 20.999 C 9.544 20.999,11.312 20.979,11.478 20.955 C 11.836 20.903,11.981 20.808,12.122 20.532 C 12.324 20.137,12.233 19.719,11.884 19.440 L 11.705 19.297 7.964 19.273 L 4.223 19.250 4.002 19.141 C 3.634 18.960,3.581 18.844,3.535 18.110 C 3.513 17.762,3.502 14.474,3.509 10.803 C 3.523 4.368,3.526 4.124,3.612 3.952 C 3.660 3.855,3.773 3.719,3.862 3.651 L 4.025 3.527 11.311 3.525 C 18.385 3.523,18.602 3.526,18.776 3.612 C 18.874 3.661,19.011 3.786,19.079 3.889 L 19.203 4.076 19.227 7.837 L 19.250 11.597 19.359 11.787 C 19.481 11.999,19.788 12.223,19.971 12.234 C 20.362 12.257,20.690 12.105,20.868 11.819 L 20.977 11.643 20.990 7.783 L 21.003 3.923 20.870 3.581 C 20.593 2.867,20.089 2.311,19.438 2.001 L 19.063 1.822 12.273 1.803 C 8.539 1.792,5.053 1.797,4.527 1.814 M10.568 5.317 C 9.827 5.403,8.800 5.767,8.125 6.183 C 6.655 7.090,5.638 8.631,5.342 10.400 C 5.226 11.095,5.266 12.161,5.432 12.824 C 5.671 13.775,6.062 14.540,6.697 15.299 C 7.525 16.288,8.678 17.004,9.991 17.342 C 10.430 17.455,10.558 17.468,11.317 17.468 C 12.247 17.468,12.650 17.408,13.347 17.163 C 14.231 16.853,14.966 16.382,15.674 15.674 C 16.564 14.784,17.088 13.841,17.367 12.629 C 17.447 12.282,17.465 12.044,17.467 11.340 C 17.469 10.514,17.463 10.453,17.322 9.934 C 17.051 8.933,16.674 8.198,16.046 7.449 C 15.184 6.420,14.008 5.705,12.693 5.410 C 12.239 5.308,11.084 5.257,10.568 5.317 M12.415 7.143 C 12.854 7.248,13.531 7.556,13.883 7.811 C 14.522 8.272,15.177 9.109,15.446 9.805 C 15.874 10.916,15.797 12.335,15.253 13.347 C 14.590 14.579,13.540 15.390,12.264 15.653 C 11.800 15.748,10.973 15.748,10.510 15.653 C 7.943 15.124,6.406 12.446,7.251 9.976 C 7.752 8.514,9.060 7.363,10.523 7.098 C 11.159 6.982,11.807 6.998,12.415 7.143 M9.370 10.544 C 8.897 10.694,8.642 11.262,8.838 11.730 C 8.921 11.930,9.202 12.159,9.437 12.219 C 9.653 12.274,9.942 12.205,10.166 12.045 C 10.333 11.926,10.500 11.601,10.500 11.394 C 10.500 11.099,10.291 10.751,10.033 10.617 C 9.873 10.534,9.525 10.496,9.370 10.544 M12.848 10.552 C 12.469 10.661,12.163 11.210,12.279 11.571 C 12.455 12.122,13.015 12.373,13.522 12.128 C 14.058 11.868,14.149 11.137,13.695 10.738 C 13.453 10.526,13.160 10.461,12.848 10.552 M18.970 14.827 C 18.808 14.866,18.576 15.072,18.480 15.261 C 18.371 15.473,18.361 15.715,18.450 15.926 C 18.485 16.009,18.864 16.440,19.291 16.885 L 20.069 17.693 19.931 17.865 C 19.855 17.959,19.320 18.508,18.741 19.085 L 17.689 20.133 16.906 19.360 C 16.476 18.935,16.056 18.552,15.974 18.510 C 15.644 18.341,15.144 18.464,14.928 18.768 C 14.785 18.968,14.752 19.385,14.862 19.598 C 14.906 19.682,15.289 20.105,15.714 20.539 L 16.486 21.326 16.128 21.701 C 15.931 21.907,15.750 22.129,15.725 22.194 C 15.656 22.377,15.673 22.637,15.768 22.843 C 15.951 23.238,17.863 25.099,18.430 25.434 C 18.778 25.640,19.316 25.863,19.721 25.971 C 19.911 26.021,20.222 26.045,20.724 26.047 C 21.329 26.050,21.513 26.033,21.820 25.950 C 22.320 25.814,23.059 25.445,23.417 25.153 L 23.710 24.913 24.326 25.507 C 24.665 25.834,25.010 26.129,25.093 26.164 C 25.302 26.251,25.561 26.241,25.791 26.136 C 26.011 26.036,26.113 25.905,26.204 25.604 C 26.319 25.221,26.249 25.091,25.538 24.356 L 24.909 23.706 25.109 23.441 C 25.814 22.507,26.166 21.274,26.044 20.159 C 25.985 19.611,25.880 19.269,25.592 18.684 C 25.415 18.321,25.290 18.157,24.763 17.587 C 23.935 16.691,23.026 15.830,22.797 15.722 C 22.694 15.675,22.562 15.635,22.503 15.634 C 22.317 15.633,22.030 15.815,21.661 16.169 L 21.303 16.512 20.480 15.700 C 20.027 15.253,19.600 14.867,19.532 14.841 C 19.405 14.792,19.138 14.786,18.970 14.827 M23.529 18.737 C 24.282 19.577,24.504 20.335,24.292 21.339 C 24.170 21.914,23.951 22.245,23.171 23.032 C 22.274 23.938,22.074 24.092,21.592 24.248 C 20.897 24.472,20.211 24.406,19.460 24.042 C 19.163 23.898,19.003 23.768,18.410 23.185 L 17.710 22.497 20.113 20.092 L 22.515 17.688 22.813 17.979 C 22.977 18.139,23.299 18.480,23.529 18.737 " fill="#1A1C1F" stroke="none" fill-rule="evenodd"></path></svg>