<svg xmlns="http://www.w3.org/2000/svg" width="32" height="32" fill="none"><g clip-path="url(#a)"><path fill="#1A1C1F" fill-rule="evenodd" d="M2 21.031V5c0-1.594 1.313-3 2.906-3H21.03C22.655 2 24 3.406 24 5v8.036c0 .532-.47.969-1.032.969a.974.974 0 0 1-.97-.969V5c0-.531-.437-1-.968-1H4.906C4.375 4 4 4.469 4 5v16.031c0 .531.469.969 1 .969h8.033c.53 0 .968.467.968.999a.98.98 0 0 1-.968 1L5 24c-1.594 0-3-1.344-3-2.969M13 6c3.853 0 7 3.115 7 7 0 3.853-3.147 7-7 7-3.885 0-7-3.147-7-7 0-3.885 3.115-7 7-7m0 2c-2.756 0-5 2.243-5 5 0 2.756 2.244 5 5 5s5-2.244 5-5c0-2.757-2.244-5-5-5m-2.016 4c.572 0 1.016.42 1.016 1 0 .548-.444 1-1.016 1A.997.997 0 0 1 10 13c0-.58.444-1 .984-1M15 12c.548 0 1 .42 1 1 0 .548-.452 1-1 1s-1-.452-1-1c0-.58.452-1 1-1m6.969 4.875c.218 0 .437.063.593.219l1.782 1.781.687-.687c.219-.22.469-.313.688-.313s.437.063.593.219l1.97 1.937a4.95 4.95 0 0 1 1.53 3.563c0 1.187-.437 2.406-1.343 3.5l1.25 1.25a.97.97 0 0 1 .281.687c0 .532-.437.969-.937.969-.22 0-.47-.094-.72-.281l-1.25-1.25a4.86 4.86 0 0 1-3.374 1.343c-1.25 0-2.5-.437-3.5-1.375l-2.032-2.03a.97.97 0 0 1-.28-.688c0-.219.062-.407.187-.594l.75-.75-1.688-1.687a1.1 1.1 0 0 1-.281-.688c0-.562.438-.969.969-.969.218 0 .437.063.593.188L20.22 23l2.75-2.75-1.688-1.719a.97.97 0 0 1-.281-.687c0-.5.469-.969.969-.969m3.781 3.344-5.5 5.5 1.156 1.187c.625.594 1.469.969 2.344.969.688 0 1.375-.219 1.938-.719l1.343-1.343a3.19 3.19 0 0 0 .844-2.157c0-.781-.281-1.531-.844-2.125z" clip-rule="evenodd"/></g><defs><clipPath id="a"><path fill="#fff" d="M0 0h32v32H0z"/></clipPath></defs></svg>