<svg width="24" height="24" viewBox="0 0 24 24" fill="none" xmlns="http://www.w3.org/2000/svg"><path d="M6.400 2.041 C 4.389 2.061,4.291 2.065,4.078 2.146 C 3.069 2.529,2.389 3.252,2.092 4.260 C 2.026 4.484,2.021 4.922,2.010 10.994 L 1.997 17.488 2.140 17.874 C 2.467 18.757,2.998 19.361,3.764 19.718 C 4.345 19.989,4.212 19.980,7.643 19.980 L 10.746 19.980 10.943 19.859 C 11.282 19.650,11.516 19.203,11.463 18.868 C 11.408 18.528,11.127 18.164,10.851 18.076 C 10.742 18.042,9.863 18.021,7.720 18.003 C 4.395 17.975,4.587 17.993,4.312 17.689 C 4.002 17.344,4.029 17.972,4.024 11.181 C 4.022 7.837,4.035 4.978,4.053 4.829 C 4.082 4.593,4.108 4.533,4.249 4.369 C 4.338 4.265,4.455 4.156,4.510 4.126 C 4.723 4.011,6.008 3.991,11.672 4.013 L 17.285 4.035 17.458 4.137 C 17.554 4.193,17.681 4.297,17.742 4.369 C 17.976 4.646,17.965 4.500,17.998 8.058 C 18.030 11.621,18.019 11.467,18.254 11.745 C 18.572 12.123,19.283 12.138,19.657 11.775 C 19.736 11.698,19.841 11.560,19.890 11.468 L 19.980 11.300 19.980 7.920 C 19.980 4.800,19.975 4.520,19.909 4.280 C 19.635 3.285,18.924 2.521,17.938 2.165 L 17.620 2.051 13.060 2.035 C 10.552 2.027,7.555 2.029,6.400 2.041 M10.390 6.041 C 9.825 6.105,9.032 6.363,8.520 6.649 C 7.891 7.000,7.270 7.581,6.853 8.208 C 5.721 9.907,5.722 12.093,6.854 13.794 C 8.081 15.638,10.385 16.434,12.517 15.753 C 13.782 15.348,14.860 14.427,15.459 13.240 C 15.636 12.888,15.834 12.318,15.923 11.900 C 15.990 11.585,15.990 10.415,15.923 10.100 C 15.638 8.764,14.918 7.654,13.866 6.927 C 13.517 6.686,12.980 6.411,12.615 6.287 C 11.995 6.076,11.027 5.969,10.390 6.041 M11.742 8.102 C 12.773 8.370,13.630 9.255,13.896 10.326 C 13.982 10.675,13.986 11.339,13.904 11.691 C 13.768 12.275,13.273 13.027,12.790 13.386 C 12.487 13.610,12.071 13.813,11.720 13.908 C 11.369 14.002,10.635 14.003,10.280 13.909 C 9.413 13.679,8.661 13.049,8.282 12.236 C 8.093 11.829,8.040 11.559,8.040 11.000 C 8.040 10.441,8.093 10.171,8.282 9.764 C 8.658 8.957,9.354 8.364,10.220 8.115 C 10.541 8.022,11.406 8.015,11.742 8.102 M9.479 10.059 C 9.240 10.136,8.989 10.355,8.878 10.585 C 8.658 11.038,8.870 11.648,9.330 11.884 C 9.973 12.215,10.760 11.745,10.760 11.031 C 10.760 10.752,10.691 10.547,10.535 10.365 C 10.289 10.077,9.835 9.946,9.479 10.059 M11.866 10.065 C 11.618 10.141,11.318 10.433,11.249 10.665 C 11.132 11.059,11.214 11.416,11.484 11.687 C 11.666 11.870,11.955 12.000,12.180 12.000 C 12.513 12.000,12.928 11.733,13.079 11.422 C 13.206 11.160,13.199 10.773,13.063 10.542 C 12.814 10.117,12.328 9.923,11.866 10.065 M16.511 13.557 C 16.089 13.694,15.800 14.093,15.800 14.541 C 15.800 14.842,15.865 14.953,16.306 15.403 L 16.681 15.786 16.184 16.273 C 15.911 16.541,15.671 16.760,15.652 16.760 C 15.633 16.760,15.519 16.660,15.399 16.538 C 15.007 16.140,14.793 15.998,14.548 15.972 C 14.070 15.923,13.654 16.140,13.458 16.541 C 13.364 16.732,13.352 16.796,13.371 17.004 C 13.398 17.298,13.489 17.446,13.923 17.898 L 14.237 18.226 14.055 18.403 C 13.682 18.766,13.561 19.233,13.740 19.620 C 13.835 19.827,15.256 21.249,15.577 21.459 C 16.150 21.833,16.634 21.958,17.514 21.959 C 18.093 21.960,18.149 21.953,18.494 21.838 C 18.899 21.702,19.193 21.551,19.512 21.313 L 19.724 21.155 20.076 21.490 C 20.454 21.849,20.638 21.961,20.904 21.991 C 21.415 22.048,21.944 21.573,21.992 21.016 C 22.017 20.719,21.909 20.514,21.502 20.084 L 21.154 19.717 21.259 19.548 C 21.470 19.210,21.724 18.637,21.806 18.317 C 21.876 18.038,21.886 17.903,21.871 17.424 C 21.855 16.925,21.838 16.815,21.725 16.471 C 21.535 15.894,21.310 15.586,20.442 14.718 C 19.584 13.859,19.461 13.778,19.065 13.809 C 18.766 13.833,18.537 13.944,18.274 14.190 L 18.078 14.372 17.769 14.074 C 17.274 13.596,17.201 13.551,16.889 13.536 C 16.741 13.528,16.571 13.538,16.511 13.557 M19.439 16.580 C 19.778 17.007,19.820 17.120,19.820 17.600 C 19.820 18.004,19.815 18.030,19.680 18.280 C 19.578 18.469,19.385 18.696,18.973 19.111 C 18.345 19.743,18.120 19.886,17.620 19.972 C 17.132 20.055,16.787 19.932,16.348 19.517 L 16.060 19.245 17.578 17.724 C 19.306 15.994,19.083 16.131,19.439 16.580 " fill="#1A1C1F" stroke="none" fill-rule="evenodd"></path></svg>