<svg xmlns="http://www.w3.org/2000/svg" width="32" height="32" fill="none"><path fill="#1A1C1F" fill-rule="evenodd" d="M4.173 2.109c-.95.257-1.753 1.082-2.075 2.131-.093.305-.098.717-.098 8.773v8.454l.128.39a3.2 3.2 0 0 0 1.94 1.992l.332.123 4.373.016c4.81.017 4.639.028 4.958-.306.082-.086.181-.275.218-.42.116-.447-.037-.846-.42-1.095l-.217-.14-4.136-.002c-2.649 0-4.222-.021-4.375-.056a1.01 1.01 0 0 1-.699-.549c-.096-.212-.1-.525-.1-8.433s.004-8.222.1-8.433c.055-.121.19-.289.301-.374l.202-.153 8.244-.016c5.617-.011 8.306.002 8.437.04a.92.92 0 0 1 .582.485c.102.2.105.331.105 4.345 0 2.96.018 4.208.062 4.384.128.508.681.838 1.181.705a1.03 1.03 0 0 0 .685-.562c.098-.221.101-.398.087-4.619L23.973 4.4l-.124-.332c-.327-.875-1.016-1.58-1.851-1.895l-.318-.12-8.613-.01c-7.296-.008-8.656.002-8.894.066m7.587 4.004c-.983.176-2.163.681-2.933 1.255a7.04 7.04 0 0 0-2.482 7.791c.774 2.411 2.858 4.236 5.415 4.741.557.11 2.018.095 2.574-.025 1.469-.319 2.538-.9 3.59-1.951 1.051-1.052 1.632-2.121 1.951-3.59.12-.556.135-2.017.025-2.574-.578-2.929-2.84-5.159-5.734-5.653-.592-.101-1.828-.098-2.406.006m1.929 1.943c2.105.286 3.856 1.972 4.228 4.074.083.465.069 1.415-.028 1.886-.307 1.498-1.425 2.901-2.815 3.531-2.682 1.216-5.841-.143-6.785-2.92-.63-1.851-.17-3.816 1.212-5.174 1.137-1.117 2.614-1.61 4.188-1.397m-3.102 4.042c-.296.141-.456.332-.537.641a1 1 0 0 0 .073.735c.092.171.422.441.585.476.08.018.172.04.205.05a1 1 0 0 0 .293-.034.993.993 0 0 0 .685-1.41c-.221-.457-.847-.677-1.304-.458m4 0a1.3 1.3 0 0 0-.341.239c-.125.137-.286.62-.248.745.011.036.034.131.052.213.054.244.383.561.671.647.83.246 1.549-.604 1.17-1.386-.224-.463-.841-.68-1.304-.458m6.933 4.908c-.462.287-.639.815-.421 1.25.047.094.479.568.96 1.054s.874.906.874.934-.612.662-1.36 1.409l-1.36 1.359-.946-.943c-.818-.816-.977-.951-1.17-.994-.747-.164-1.358.44-1.179 1.165.051.21.178.36.995 1.188l.936.947-.408.413c-.225.226-.434.48-.465.562a1.12 1.12 0 0 0 .052.812c.137.283 2.294 2.422 2.762 2.739.447.302.997.556 1.583.732.427.127.573.144 1.307.148.709.004.886-.012 1.244-.116.795-.229 1.365-.522 1.921-.985l.259-.215.674.669c.372.368.756.709.856.759.378.19.898.072 1.153-.262.124-.162.25-.57.213-.691a4 4 0 0 1-.053-.22c-.024-.109-.267-.393-.76-.891l-.724-.731.215-.282a5.7 5.7 0 0 0 .982-2.018c.17-.63.173-1.803.006-2.409a6 6 0 0 0-.685-1.519c-.277-.426-2.596-2.762-2.876-2.898-.44-.213-.721-.114-1.307.459l-.455.446-.905-.909c-.498-.5-.969-.943-1.049-.985-.207-.11-.674-.098-.869.023m5.956 5.157c.284.54.371.897.371 1.51a3.17 3.17 0 0 1-.419 1.601c-.225.391-1.888 2.047-2.247 2.237-.907.479-1.883.482-2.861.008-.507-.245-.786-.473-1.522-1.242l-.551-.577 2.743-2.746 2.743-2.747.775.793c.592.606.82.879.968 1.163"/></svg>