<svg xmlns="http://www.w3.org/2000/svg" width="14" height="14" fill="none"><g clip-path="url(#a)"><path fill="#1A1C1F" fill-rule="evenodd" d="M1.4 11.9V2.1c0-.396.304-.7.7-.7h9.8c.396 0 .7.304.7.7v2.797a.69.69 0 0 1-.7.703.7.7 0 0 1-.7-.703V2.8H2.8v8.4h2.8c.382 0 .703.318.703.7a.7.7 0 0 1-.703.7H2.1a.69.69 0 0 1-.7-.7m2.103-4.886c0-1.94 1.558-3.51 3.483-3.51.997 0 1.967.423 2.636 1.188.123.136.178.3.178.45a.72.72 0 0 1-.697.71.68.68 0 0 1-.532-.245c-.396-.45-.97-.71-1.557-.71a2.12 2.12 0 0 0-2.117 2.117c0 .587.26 1.16.71 1.557.15.136.246.328.246.532a.69.69 0 0 1-.697.697.7.7 0 0 1-.464-.178 3.47 3.47 0 0 1-1.189-2.608m2.097-.01c0-.385.302-.7.7-.7.384 0 .7.315.7.7s-.316.7-.7.7a.694.694 0 0 1-.7-.7m3.244-.673c.177 0 .355.068.492.205L9.8 7l.273-.26a.68.68 0 0 1 .492-.19.68.68 0 0 1 .492.19l.82.806c.477.492.71 1.134.71 1.79 0 .587-.205 1.188-.615 1.666l.41.382a.75.75 0 0 1 .218.52.694.694 0 0 1-.71.696.73.73 0 0 1-.478-.191l-.424-.41c-.491.396-1.092.587-1.734.587-.629 0-1.243-.26-1.694-.71l-.82-.82a.65.65 0 0 1-.204-.491.65.65 0 0 1 .205-.492L7 9.813l-.492-.491a.68.68 0 0 1-.232-.52.7.7 0 0 1 .697-.696c.19 0 .382.069.519.219l.491.492.834-.82-.478-.478a.693.693 0 0 1 0-.983.7.7 0 0 1 .505-.205m1.72 1.885-2.348 2.349.327.314c.219.219.506.314.793.314.327 0 .655-.123.887-.382l.588-.588c.26-.245.382-.56.382-.887a1.15 1.15 0 0 0-.3-.793z" clip-rule="evenodd"/></g><defs><clipPath id="a"><path fill="#fff" d="M0 0h14v14H0z"/></clipPath></defs></svg>