<svg width="32" height="32" viewBox="0 0 32 32" fill="none" xmlns="http://www.w3.org/2000/svg"><path d="M5.200 2.073 L 4.080 2.107 3.707 2.293 C 3.278 2.507,2.661 3.081,2.429 3.481 C 2.348 3.621,2.220 3.909,2.144 4.121 L 2.006 4.507 1.984 12.960 L 1.962 21.414 2.129 21.848 C 2.518 22.856,3.159 23.502,4.135 23.869 L 4.482 24.000 8.628 23.999 C 10.908 23.998,12.928 23.975,13.117 23.948 C 13.527 23.889,13.692 23.780,13.853 23.466 C 14.084 23.014,13.980 22.535,13.582 22.217 L 13.377 22.053 9.102 22.027 L 4.827 22.000 4.574 21.875 C 4.153 21.668,4.093 21.536,4.040 20.697 C 4.015 20.299,4.002 16.541,4.011 12.347 C 4.026 4.991,4.030 4.713,4.128 4.517 C 4.183 4.405,4.312 4.250,4.413 4.173 L 4.599 4.032 12.926 4.029 C 21.012 4.027,21.259 4.030,21.458 4.128 C 21.571 4.184,21.727 4.326,21.805 4.444 L 21.947 4.659 21.973 8.956 L 22.000 13.253 22.125 13.471 C 22.263 13.713,22.614 13.969,22.824 13.981 C 23.270 14.008,23.645 13.834,23.849 13.507 L 23.973 13.307 23.988 8.895 L 24.004 4.484 23.851 4.092 C 23.535 3.277,22.960 2.642,22.215 2.286 L 21.787 2.081 14.053 2.060 C 9.800 2.048,5.816 2.054,5.200 2.073 M12.078 6.077 C 10.854 6.219,9.474 6.824,8.490 7.651 C 7.223 8.716,6.387 10.200,6.105 11.886 C 5.973 12.680,6.018 13.898,6.208 14.656 C 6.481 15.743,6.928 16.618,7.653 17.484 C 8.599 18.615,9.917 19.433,11.419 19.820 C 11.925 19.951,12.059 19.963,12.960 19.962 C 14.047 19.959,14.441 19.900,15.244 19.618 C 17.253 18.913,18.913 17.253,19.618 15.244 C 19.900 14.442,19.959 14.047,19.962 12.960 C 19.964 11.840,19.896 11.460,19.512 10.472 C 18.796 8.623,17.241 7.108,15.360 6.429 C 14.675 6.181,14.116 6.083,13.253 6.057 C 12.813 6.044,12.284 6.053,12.078 6.077 M14.185 8.163 C 16.041 8.606,17.570 10.236,17.900 12.122 C 18.020 12.805,17.973 13.726,17.785 14.375 C 17.369 15.816,16.188 17.123,14.827 17.649 C 13.693 18.087,12.335 18.088,11.200 17.650 C 8.728 16.696,7.429 13.909,8.288 11.399 C 8.859 9.730,10.355 8.415,12.027 8.112 C 12.752 7.980,13.494 7.998,14.185 8.163 M10.709 12.051 C 10.168 12.221,9.876 12.870,10.100 13.406 C 10.196 13.634,10.517 13.896,10.785 13.964 C 11.032 14.027,11.362 13.949,11.618 13.766 C 11.809 13.630,12.000 13.258,12.000 13.021 C 12.000 12.684,11.761 12.287,11.466 12.133 C 11.284 12.039,10.885 11.995,10.709 12.051 M14.683 12.059 C 14.251 12.184,13.901 12.812,14.033 13.225 C 14.234 13.854,14.874 14.140,15.453 13.860 C 16.066 13.564,16.170 12.728,15.651 12.272 C 15.375 12.029,15.040 11.956,14.683 12.059 M21.680 16.945 C 21.353 17.024,21.017 17.484,21.015 17.855 C 21.012 18.172,21.149 18.364,22.047 19.297 L 22.936 20.221 22.778 20.417 C 22.691 20.525,22.080 21.152,21.418 21.811 L 20.216 23.010 19.321 22.126 C 18.829 21.639,18.350 21.202,18.256 21.154 C 17.879 20.961,17.308 21.101,17.061 21.449 C 16.897 21.678,16.860 22.154,16.985 22.398 C 17.035 22.494,17.473 22.978,17.959 23.473 L 18.841 24.373 18.432 24.801 C 17.993 25.260,17.919 25.390,17.921 25.697 C 17.924 26.095,18.089 26.316,19.241 27.461 C 19.849 28.066,20.501 28.676,20.689 28.816 C 21.120 29.138,21.769 29.450,22.380 29.628 C 22.793 29.748,22.960 29.766,23.680 29.771 C 24.379 29.776,24.572 29.759,24.933 29.660 C 25.511 29.501,26.354 29.079,26.762 28.746 L 27.098 28.472 27.770 29.121 C 28.140 29.479,28.517 29.816,28.608 29.872 C 28.934 30.071,29.587 29.939,29.787 29.634 C 29.836 29.559,29.908 29.392,29.947 29.262 C 30.078 28.825,29.998 28.675,29.189 27.839 L 28.474 27.099 28.764 26.683 C 29.564 25.536,29.902 24.302,29.765 23.039 C 29.697 22.413,29.577 22.022,29.249 21.353 C 29.045 20.939,28.903 20.750,28.301 20.099 C 27.355 19.076,26.316 18.091,26.053 17.969 C 25.936 17.914,25.785 17.868,25.718 17.868 C 25.505 17.866,25.177 18.074,24.755 18.479 L 24.347 18.871 23.405 17.943 C 22.888 17.432,22.400 16.990,22.322 16.961 C 22.177 16.906,21.873 16.898,21.680 16.945 M26.890 21.413 C 27.751 22.374,28.005 23.240,27.762 24.387 C 27.623 25.043,27.374 25.418,26.483 26.321 C 25.463 27.354,25.230 27.533,24.677 27.712 C 23.882 27.968,23.099 27.892,22.240 27.477 C 21.901 27.313,21.718 27.163,21.040 26.497 L 20.240 25.711 22.986 22.963 L 25.732 20.215 26.072 20.547 C 26.259 20.730,26.627 21.120,26.890 21.413 " fill="#1A1C1F" stroke="none" fill-rule="evenodd"></path></svg>