<svg width="28" height="28" viewBox="0 0 28 28" fill="none" xmlns="http://www.w3.org/2000/svg"><path d="M9.462 4.104 C 9.344 4.179,9.227 4.279,9.203 4.325 C 9.144 4.440,8.795 5.711,7.653 9.963 L 6.689 13.557 4.943 13.581 C 3.767 13.598,3.166 13.623,3.103 13.659 C 2.947 13.748,2.762 13.967,2.682 14.160 C 2.577 14.411,2.625 14.694,2.815 14.940 C 3.106 15.320,3.014 15.307,5.427 15.307 C 7.747 15.307,7.688 15.313,7.941 15.042 C 8.111 14.860,8.210 14.524,9.475 9.811 C 9.663 9.111,9.834 8.555,9.855 8.576 C 9.904 8.625,10.435 10.827,11.619 15.890 C 12.800 20.941,13.384 23.395,13.436 23.534 C 13.634 24.054,14.312 24.212,14.761 23.842 C 14.970 23.669,14.944 23.749,16.795 17.710 C 18.634 11.712,18.497 12.134,18.561 12.252 C 18.589 12.304,18.785 12.850,18.996 13.465 C 19.494 14.919,19.544 15.031,19.769 15.171 L 19.950 15.283 22.180 15.297 C 23.559 15.306,24.511 15.293,24.676 15.263 C 24.900 15.223,24.971 15.185,25.114 15.027 C 25.332 14.786,25.421 14.458,25.339 14.200 C 25.281 14.020,25.065 13.755,24.897 13.659 C 24.833 13.622,24.183 13.598,22.824 13.581 L 20.844 13.557 20.068 11.200 C 19.641 9.904,19.253 8.785,19.206 8.713 C 18.996 8.393,18.451 8.245,18.119 8.417 C 17.809 8.577,17.810 8.576,16.565 12.600 C 15.161 17.139,14.365 19.672,14.332 19.706 C 14.312 19.726,14.273 19.642,14.244 19.519 C 14.216 19.397,13.625 16.871,12.932 13.907 C 10.477 3.400,10.753 4.530,10.578 4.276 C 10.459 4.103,10.160 3.969,9.891 3.968 C 9.735 3.967,9.621 4.003,9.462 4.104 " fill="#1A1C1F" stroke="none" fill-rule="evenodd"></path></svg>