<svg width="32" height="32" viewBox="0 0 32 32" fill="none" xmlns="http://www.w3.org/2000/svg"><path d="M10.817 4.686 C 10.680 4.774,10.545 4.890,10.518 4.943 C 10.450 5.074,10.051 6.527,8.747 11.387 L 7.644 15.493 5.649 15.522 C 4.319 15.541,3.618 15.571,3.547 15.611 C 3.368 15.711,3.157 15.962,3.065 16.183 C 2.945 16.470,3.000 16.793,3.217 17.075 C 3.550 17.508,3.445 17.493,6.202 17.493 C 8.854 17.493,8.786 17.500,9.075 17.191 C 9.267 16.986,9.383 16.596,10.588 12.107 C 10.930 10.831,11.219 9.777,11.230 9.766 C 11.289 9.705,11.570 10.862,13.366 18.533 C 15.011 25.558,15.303 26.773,15.397 26.973 C 15.498 27.187,15.852 27.454,16.095 27.500 C 16.337 27.545,16.622 27.453,16.866 27.252 C 17.107 27.052,16.906 27.659,19.313 19.841 C 20.310 16.601,21.135 13.941,21.145 13.930 C 21.185 13.890,21.283 14.145,21.709 15.389 C 22.278 17.050,22.337 17.179,22.593 17.338 L 22.800 17.467 25.346 17.483 C 26.935 17.493,28.007 17.478,28.199 17.444 C 28.457 17.398,28.538 17.354,28.702 17.173 C 28.950 16.898,29.052 16.523,28.958 16.229 C 28.893 16.022,28.645 15.719,28.453 15.611 C 28.381 15.570,27.623 15.541,26.084 15.522 L 23.821 15.493 22.934 12.800 C 22.446 11.319,22.003 10.040,21.949 9.958 C 21.896 9.876,21.746 9.747,21.617 9.672 C 21.200 9.427,20.682 9.513,20.416 9.870 C 20.304 10.021,19.786 11.624,18.428 16.027 C 17.138 20.210,16.423 22.474,16.378 22.521 C 16.357 22.544,16.312 22.448,16.279 22.308 C 16.246 22.168,15.524 19.077,14.674 15.440 C 13.824 11.803,12.942 8.035,12.716 7.067 C 12.489 6.099,12.256 5.203,12.198 5.077 C 12.039 4.733,11.791 4.568,11.394 4.545 C 11.103 4.528,11.039 4.544,10.817 4.686 " fill="#1A1C1F" stroke="none" fill-rule="evenodd"></path></svg>