<svg width="20" height="20" viewBox="0 0 20 20" fill="none" xmlns="http://www.w3.org/2000/svg"><path d="M6.781 3.029 C 6.622 3.070,6.336 3.237,6.250 3.340 C 6.094 3.525,5.987 3.906,5.182 7.137 L 4.720 8.991 3.731 9.007 L 2.743 9.024 2.535 9.135 C 1.807 9.523,1.841 10.535,2.594 10.906 C 2.748 10.983,2.764 10.983,4.145 10.993 C 5.686 11.004,5.803 10.994,6.048 10.820 C 6.373 10.588,6.404 10.512,6.784 9.008 C 6.891 8.582,6.990 8.244,7.002 8.258 C 7.032 8.292,7.037 8.311,8.079 12.450 C 8.582 14.448,9.019 16.173,9.051 16.283 C 9.099 16.447,9.145 16.518,9.313 16.684 C 9.614 16.983,9.925 17.066,10.286 16.945 C 10.520 16.866,10.719 16.720,10.813 16.557 C 10.858 16.480,10.986 16.128,11.097 15.775 C 11.264 15.245,12.854 9.996,13.025 9.408 C 13.053 9.312,13.087 9.233,13.102 9.233 C 13.128 9.233,13.231 9.471,13.466 10.075 C 13.712 10.708,13.901 10.898,14.353 10.967 C 14.503 10.990,15.078 11.000,15.920 10.993 C 17.233 10.983,17.252 10.982,17.406 10.906 C 18.160 10.535,18.192 9.525,17.462 9.132 L 17.250 9.018 16.218 9.001 L 15.186 8.983 14.892 8.200 C 14.348 6.748,13.924 5.651,13.848 5.497 C 13.766 5.334,13.640 5.223,13.400 5.100 C 13.222 5.008,12.852 4.991,12.667 5.065 C 12.495 5.134,12.281 5.287,12.204 5.394 C 12.122 5.510,11.809 6.500,10.863 9.648 C 10.461 10.985,10.125 12.086,10.117 12.094 C 10.077 12.134,9.910 11.500,8.882 7.400 C 8.020 3.964,7.899 3.526,7.771 3.367 C 7.579 3.127,7.072 2.955,6.781 3.029 " fill="#1A1C1F" stroke="none" fill-rule="evenodd"></path></svg>