<svg width="12" height="12" viewBox="0 0 12 12" fill="none" xmlns="http://www.w3.org/2000/svg"><path d="M4.070 1.818 C 3.899 1.862,3.748 1.977,3.688 2.109 C 3.624 2.249,3.502 2.703,3.139 4.162 L 2.832 5.395 2.240 5.404 L 1.648 5.414 1.522 5.481 C 1.084 5.714,1.104 6.321,1.556 6.544 C 1.649 6.590,1.659 6.590,2.487 6.596 C 3.412 6.603,3.482 6.596,3.629 6.492 C 3.821 6.355,3.849 6.286,4.081 5.365 C 4.140 5.131,4.194 4.947,4.201 4.955 C 4.219 4.975,4.222 4.987,4.850 7.479 C 5.153 8.683,5.416 9.718,5.435 9.779 C 5.461 9.865,5.496 9.917,5.589 10.011 C 5.768 10.190,5.955 10.240,6.171 10.167 C 6.312 10.120,6.431 10.032,6.488 9.934 C 6.515 9.888,6.606 9.630,6.690 9.360 C 6.817 8.952,7.714 5.990,7.815 5.645 C 7.832 5.587,7.852 5.540,7.861 5.540 C 7.877 5.540,7.939 5.683,8.079 6.045 C 8.228 6.427,8.346 6.545,8.618 6.582 C 8.699 6.594,9.103 6.600,9.555 6.596 C 10.339 6.590,10.351 6.589,10.444 6.544 C 10.896 6.321,10.915 5.715,10.477 5.479 L 10.350 5.411 9.731 5.401 L 9.111 5.390 8.935 4.920 C 8.609 4.049,8.354 3.391,8.309 3.298 C 8.260 3.201,8.184 3.134,8.040 3.060 C 7.933 3.005,7.711 2.995,7.600 3.039 C 7.498 3.080,7.368 3.172,7.323 3.236 C 7.271 3.309,7.114 3.805,6.548 5.689 C 6.290 6.546,6.075 7.252,6.070 7.257 C 6.047 7.280,5.925 6.820,5.402 4.729 C 4.809 2.355,4.744 2.118,4.657 2.013 C 4.542 1.873,4.241 1.773,4.070 1.818 " fill="#1A1C1F" stroke="none" fill-rule="evenodd"></path></svg>