<svg width="14" height="14" viewBox="0 0 14 14" fill="none" xmlns="http://www.w3.org/2000/svg"><path d="M4.747 2.121 C 4.635 2.149,4.435 2.266,4.375 2.338 C 4.266 2.467,4.191 2.735,3.627 4.996 L 3.304 6.293 2.614 6.306 C 1.954 6.317,1.920 6.320,1.809 6.372 C 1.663 6.441,1.526 6.577,1.462 6.717 C 1.391 6.872,1.393 7.134,1.467 7.286 C 1.536 7.426,1.675 7.565,1.815 7.634 C 1.924 7.688,1.935 7.688,2.901 7.695 C 3.980 7.703,4.062 7.696,4.233 7.574 C 4.461 7.412,4.483 7.359,4.748 6.307 C 4.823 6.009,4.892 5.770,4.901 5.776 C 4.910 5.781,4.923 5.810,4.929 5.839 C 4.951 5.939,6.321 11.352,6.348 11.444 C 6.388 11.583,6.627 11.809,6.787 11.860 C 6.944 11.910,7.054 11.911,7.200 11.861 C 7.364 11.806,7.503 11.704,7.569 11.590 C 7.647 11.457,7.673 11.371,8.859 7.443 C 9.020 6.911,9.156 6.470,9.162 6.464 C 9.181 6.444,9.214 6.516,9.370 6.913 C 9.547 7.361,9.629 7.497,9.777 7.588 C 9.944 7.690,10.114 7.703,11.144 7.695 C 12.063 7.688,12.076 7.688,12.185 7.634 C 12.325 7.565,12.464 7.426,12.533 7.286 C 12.607 7.134,12.609 6.872,12.538 6.717 C 12.474 6.578,12.338 6.442,12.191 6.370 C 12.078 6.316,12.054 6.314,11.352 6.301 L 10.630 6.288 10.425 5.740 C 10.056 4.754,9.748 3.957,9.693 3.848 C 9.636 3.734,9.548 3.656,9.380 3.570 C 9.255 3.506,8.996 3.494,8.867 3.546 C 8.747 3.594,8.596 3.701,8.543 3.776 C 8.485 3.857,8.267 4.550,7.604 6.753 C 7.323 7.689,7.088 8.460,7.082 8.466 C 7.054 8.493,6.911 7.951,6.291 5.470 C 5.611 2.751,5.534 2.470,5.434 2.349 C 5.299 2.185,4.948 2.069,4.747 2.121 " fill="#1A1C1F" stroke="none" fill-rule="evenodd"></path></svg>