<svg width="16" height="16" viewBox="0 0 16 16" fill="none" xmlns="http://www.w3.org/2000/svg"><path d="M5.425 2.424 C 5.298 2.456,5.069 2.590,5.000 2.672 C 4.875 2.820,4.789 3.125,4.145 5.710 L 3.776 7.193 2.988 7.206 C 2.228 7.218,2.195 7.221,2.068 7.281 C 1.900 7.361,1.744 7.517,1.671 7.676 C 1.590 7.854,1.593 8.154,1.677 8.326 C 1.756 8.487,1.914 8.646,2.075 8.725 C 2.199 8.786,2.212 8.787,3.316 8.795 C 4.549 8.804,4.643 8.795,4.838 8.656 C 5.099 8.471,5.123 8.410,5.427 7.208 C 5.513 6.868,5.591 6.595,5.602 6.601 C 5.612 6.607,5.626 6.640,5.634 6.673 C 5.659 6.788,7.225 12.974,7.255 13.078 C 7.301 13.238,7.574 13.496,7.756 13.555 C 7.936 13.612,8.061 13.612,8.229 13.556 C 8.416 13.493,8.575 13.376,8.651 13.246 C 8.687 13.184,8.808 12.840,8.919 12.482 C 9.091 11.930,10.297 7.950,10.420 7.527 C 10.442 7.450,10.470 7.387,10.481 7.387 C 10.503 7.387,10.585 7.577,10.773 8.060 C 10.969 8.566,11.121 8.719,11.483 8.774 C 11.602 8.792,12.063 8.800,12.736 8.795 C 13.786 8.787,13.802 8.786,13.925 8.725 C 14.528 8.428,14.553 7.621,13.969 7.305 L 13.800 7.214 12.974 7.200 L 12.149 7.187 11.914 6.560 C 11.478 5.398,11.139 4.521,11.078 4.398 C 11.013 4.267,10.912 4.178,10.720 4.080 C 10.577 4.007,10.281 3.993,10.133 4.052 C 9.996 4.107,9.825 4.229,9.763 4.315 C 9.697 4.408,9.448 5.200,8.691 7.718 C 8.369 8.788,8.100 9.669,8.094 9.675 C 8.062 9.707,7.902 9.101,7.240 6.453 C 6.739 4.450,6.457 3.349,6.354 3.005 C 6.272 2.731,6.162 2.594,5.937 2.492 C 5.785 2.422,5.551 2.391,5.425 2.424 " fill="#1A1C1F" stroke="none" fill-rule="evenodd"></path></svg>