<svg width="24" height="24" viewBox="0 0 24 24" fill="none" xmlns="http://www.w3.org/2000/svg"><path d="M7.670 3.558 C 7.518 3.607,7.260 3.818,7.165 3.972 C 7.070 4.125,6.934 4.640,5.962 8.520 L 5.215 11.500 3.957 11.523 C 2.544 11.549,2.514 11.555,2.261 11.850 C 1.904 12.267,1.926 12.800,2.316 13.203 C 2.599 13.495,2.613 13.497,4.500 13.498 C 6.380 13.499,6.385 13.498,6.681 13.202 C 6.911 12.973,6.886 13.049,7.441 10.880 C 7.924 8.988,8.027 8.613,8.057 8.644 C 8.065 8.653,8.587 10.586,9.215 12.940 C 10.894 19.228,11.092 19.935,11.210 20.091 C 11.391 20.328,11.619 20.455,11.895 20.472 C 12.254 20.495,12.451 20.428,12.676 20.208 L 12.867 20.020 13.414 18.400 C 13.715 17.509,14.409 15.439,14.955 13.800 L 15.948 10.820 16.057 11.180 C 16.117 11.378,16.239 11.783,16.329 12.080 C 16.612 13.020,16.764 13.260,17.195 13.451 C 17.367 13.527,17.443 13.529,19.277 13.509 C 20.587 13.495,21.230 13.473,21.340 13.440 C 21.571 13.371,21.859 13.060,21.938 12.795 C 22.016 12.532,22.016 12.421,21.938 12.192 C 21.860 11.963,21.649 11.713,21.451 11.615 C 21.313 11.546,21.171 11.539,19.775 11.527 L 18.251 11.513 17.725 9.767 C 16.951 7.195,16.899 7.041,16.761 6.874 C 16.473 6.525,15.959 6.421,15.559 6.630 C 15.173 6.832,15.201 6.767,14.156 9.886 C 12.756 14.064,12.111 15.964,12.097 15.951 C 12.090 15.944,11.500 13.743,10.785 11.059 C 8.939 4.132,8.938 4.127,8.808 3.941 C 8.634 3.691,8.375 3.552,8.051 3.536 C 7.902 3.528,7.731 3.538,7.670 3.558 " fill="#1A1C1F" stroke="none" fill-rule="evenodd"></path></svg>