<svg width="20" height="20" viewBox="0 0 20 20" fill="none" xmlns="http://www.w3.org/2000/svg"><path d="M4.900 2.034 C 4.412 2.055,4.318 2.068,4.060 2.157 C 3.661 2.294,3.302 2.508,3.010 2.780 C 2.549 3.209,2.287 3.628,2.100 4.229 L 1.997 4.559 2.007 5.905 C 2.017 7.234,2.018 7.252,2.094 7.406 C 2.461 8.152,3.439 8.193,3.867 7.480 L 3.983 7.286 4.004 6.013 C 4.024 4.778,4.027 4.735,4.100 4.583 C 4.198 4.382,4.357 4.223,4.576 4.110 L 4.750 4.021 6.018 4.002 L 7.286 3.983 7.480 3.867 C 8.168 3.454,8.166 2.505,7.478 2.144 L 7.283 2.042 6.367 2.026 C 5.862 2.017,5.202 2.021,4.900 2.034 M12.833 2.029 C 12.255 2.125,11.883 2.713,12.046 3.275 C 12.117 3.520,12.271 3.713,12.514 3.862 L 12.711 3.983 13.986 4.004 C 15.202 4.023,15.267 4.028,15.409 4.096 C 15.608 4.193,15.781 4.366,15.890 4.577 L 15.979 4.750 15.998 6.018 L 16.017 7.286 16.133 7.480 C 16.561 8.193,17.539 8.152,17.906 7.406 C 17.982 7.252,17.983 7.234,17.993 5.906 L 18.003 4.563 17.916 4.273 C 17.812 3.930,17.618 3.515,17.453 3.284 C 17.152 2.864,16.679 2.475,16.214 2.265 C 15.745 2.053,15.633 2.039,14.245 2.021 C 13.551 2.011,12.916 2.015,12.833 2.029 M6.817 6.028 C 6.624 6.064,6.344 6.227,6.230 6.370 C 6.019 6.637,6.017 6.653,6.017 7.750 C 6.017 8.887,6.024 8.924,6.300 9.200 C 6.576 9.476,6.613 9.483,7.750 9.483 C 8.887 9.483,8.924 9.476,9.200 9.200 C 9.476 8.924,9.483 8.887,9.483 7.750 C 9.483 6.872,9.476 6.734,9.425 6.622 C 9.328 6.407,9.179 6.249,8.966 6.136 L 8.763 6.027 7.856 6.015 C 7.358 6.009,6.890 6.014,6.817 6.028 M11.317 6.028 C 11.124 6.064,10.844 6.227,10.730 6.370 C 10.519 6.637,10.517 6.653,10.517 7.750 C 10.517 8.887,10.524 8.924,10.800 9.200 C 11.076 9.476,11.113 9.483,12.250 9.483 C 13.387 9.483,13.424 9.476,13.700 9.200 C 13.976 8.924,13.983 8.887,13.983 7.750 C 13.983 6.872,13.976 6.734,13.925 6.622 C 13.828 6.407,13.679 6.249,13.466 6.136 L 13.263 6.027 12.356 6.015 C 11.858 6.009,11.390 6.014,11.317 6.028 M6.817 10.528 C 6.624 10.564,6.344 10.727,6.230 10.870 C 6.019 11.137,6.017 11.153,6.017 12.250 C 6.017 13.387,6.024 13.424,6.300 13.700 C 6.576 13.976,6.613 13.983,7.750 13.983 C 8.887 13.983,8.924 13.976,9.200 13.700 C 9.476 13.424,9.483 13.387,9.483 12.250 C 9.483 11.372,9.476 11.234,9.425 11.122 C 9.328 10.907,9.179 10.749,8.966 10.636 L 8.763 10.527 7.856 10.515 C 7.358 10.509,6.890 10.514,6.817 10.528 M11.147 10.530 C 10.938 10.556,10.749 10.676,10.616 10.867 L 10.517 11.011 10.517 11.752 L 10.517 12.493 10.620 12.635 C 10.676 12.714,10.784 12.822,10.860 12.877 C 10.975 12.960,11.037 12.979,11.244 12.992 L 11.492 13.008 11.508 13.256 C 11.521 13.463,11.540 13.525,11.623 13.640 C 11.678 13.716,11.786 13.824,11.865 13.880 L 12.007 13.983 12.750 13.983 L 13.493 13.983 13.635 13.880 C 13.714 13.824,13.824 13.714,13.880 13.635 L 13.983 13.493 13.983 12.752 L 13.983 12.011 13.889 11.875 C 13.718 11.629,13.468 11.503,13.146 11.501 L 13.009 11.500 12.993 11.251 C 12.980 11.050,12.959 10.976,12.886 10.870 C 12.758 10.685,12.561 10.559,12.356 10.529 C 12.151 10.500,11.388 10.501,11.147 10.530 M2.778 12.030 C 2.591 12.078,2.320 12.253,2.209 12.397 C 2.009 12.656,2.000 12.738,2.001 14.181 L 2.002 15.483 2.127 15.852 C 2.475 16.880,3.153 17.551,4.181 17.883 L 4.551 18.003 5.901 17.993 C 7.234 17.983,7.252 17.982,7.406 17.906 C 8.160 17.535,8.192 16.524,7.462 16.133 L 7.250 16.019 5.983 16.001 L 4.717 15.983 4.559 15.891 C 4.356 15.771,4.187 15.596,4.099 15.414 C 4.033 15.278,4.027 15.192,4.002 14.010 C 3.973 12.586,3.975 12.597,3.710 12.327 C 3.625 12.241,3.485 12.140,3.399 12.103 C 3.217 12.024,2.931 11.991,2.778 12.030 M16.783 12.029 C 16.483 12.107,16.238 12.298,16.114 12.552 L 16.024 12.737 15.997 14.004 C 15.973 15.191,15.966 15.279,15.901 15.414 C 15.813 15.596,15.644 15.771,15.441 15.891 L 15.283 15.983 14.017 16.001 L 12.750 16.019 12.538 16.133 C 11.807 16.525,11.839 17.534,12.594 17.906 C 12.748 17.982,12.766 17.983,14.099 17.993 L 15.449 18.003 15.819 17.883 C 16.847 17.551,17.525 16.880,17.873 15.852 L 17.998 15.483 17.999 14.179 C 18.000 13.041,17.993 12.852,17.944 12.699 C 17.870 12.471,17.623 12.199,17.405 12.105 C 17.220 12.026,16.932 11.990,16.783 12.029 " fill="#1A1C1F" stroke="none" fill-rule="evenodd"></path></svg>