<svg xmlns="http://www.w3.org/2000/svg" width="12" height="12" fill="none"><g clip-path="url(#a)"><path fill="#1A1C1F" fill-rule="evenodd" d="M10.2 7.2a.6.6 0 0 1 .6.6V9c0 .992-.808 1.8-1.8 1.8H7.8a.6.6 0 1 1 0-1.2H9a.6.6 0 0 0 .6-.6V7.8a.6.6 0 0 1 .6-.6m-.6-3V3a.6.6 0 0 0-.6-.6H7.8a.6.6 0 1 1 0-1.2H9c.992 0 1.8.808 1.8 1.8v1.2a.6.6 0 1 1-1.2 0M2.4 7.8V9c0 .331.27.6.6.6h1.2a.6.6 0 1 1 0 1.2H3c-.992 0-1.8-.808-1.8-1.8V7.8a.6.6 0 1 1 1.2 0m-.6-3a.6.6 0 0 1-.6-.6V3c0-.992.808-1.8 1.8-1.8h1.2a.6.6 0 1 1 0 1.2H3a.6.6 0 0 0-.6.6v1.2a.6.6 0 0 1-.6.6m6.15 2.1H7.8v-.15a.45.45 0 0 0-.45-.45h-.6a.45.45 0 0 0-.45.45v.6c0 .248.202.45.45.45h.15v.15c0 .248.202.45.45.45h.6a.45.45 0 0 0 .45-.45v-.6a.45.45 0 0 0-.45-.45m-2.25.9v-.9a.6.6 0 0 0-.6-.6h-.9a.6.6 0 0 0-.6.6v.9a.6.6 0 0 0 .6.6h.9a.6.6 0 0 0 .6-.6m2.7-2.7v-.9a.6.6 0 0 0-.6-.6h-.9a.6.6 0 0 0-.6.6v.9a.6.6 0 0 0 .6.6h.9a.6.6 0 0 0 .6-.6m-2.7 0v-.9a.6.6 0 0 0-.6-.6h-.9a.6.6 0 0 0-.6.6v.9a.6.6 0 0 0 .6.6h.9a.6.6 0 0 0 .6-.6" clip-rule="evenodd"/></g><defs><clipPath id="a"><path fill="#fff" d="M0 0h12v12H0z"/></clipPath></defs></svg>