<svg xmlns="http://www.w3.org/2000/svg" width="20" height="20" fill="none"><g clip-path="url(#a)"><path fill="#1A1C1F" fill-rule="evenodd" d="M7.167 11A1.83 1.83 0 0 1 9 12.83v3.34A1.83 1.83 0 0 1 7.167 18H3.83A1.83 1.83 0 0 1 2 16.17v-3.34A1.83 1.83 0 0 1 3.829 11zM7 13H4v3h3zm9.17-11c1.01.001 1.829.82 1.83 1.83v3.34c0 1.01-.82 1.829-1.83 1.83h-3.34A1.83 1.83 0 0 1 11 7.17V3.83A1.83 1.83 0 0 1 12.83 2zM16 4h-3v3h3zM7.17 2C8.18 2.001 9 2.82 9 3.83v3.34A1.83 1.83 0 0 1 7.17 9H3.83A1.83 1.83 0 0 1 2 7.17V3.83A1.83 1.83 0 0 1 3.83 2zM7 4H4v3h3zm5 11a1 1 0 0 1-1-1v-2a1 1 0 0 1 1-1h2a1 1 0 0 1 1 1v2h2a1 1 0 0 1 1 1v2a1 1 0 0 1-1 1h-2a1 1 0 0 1-1-1v-2z" clip-rule="evenodd"/></g><defs><clipPath id="a"><path fill="#fff" d="M0 0h20v20H0z"/></clipPath></defs></svg>