<svg xmlns="http://www.w3.org/2000/svg" width="16" height="16" fill="none"><g clip-path="url(#a)"><path fill="#1A1C1F" fill-rule="evenodd" d="M5.734 8.8c.809 0 1.465.654 1.466 1.463v2.673A1.465 1.465 0 0 1 5.734 14.4H3.063A1.465 1.465 0 0 1 1.6 12.936v-2.673A1.465 1.465 0 0 1 3.063 8.8zM5.6 10.4H3.2v2.4h2.4zm7.336-8.8c.808 0 1.463.656 1.464 1.464v2.671c0 .809-.655 1.464-1.464 1.465h-2.672A1.465 1.465 0 0 1 8.8 5.736V3.064c0-.808.656-1.463 1.464-1.464zM12.8 3.2h-2.4v2.4h2.4zM5.736 1.6c.808 0 1.463.655 1.464 1.463v2.674A1.466 1.466 0 0 1 5.736 7.2H3.064A1.466 1.466 0 0 1 1.6 5.737V3.063A1.465 1.465 0 0 1 3.064 1.6zM5.6 3.2H3.2v2.4h2.4zm4 8.8a.8.8 0 0 1-.8-.8V9.6a.8.8 0 0 1 .8-.8h1.6a.8.8 0 0 1 .8.8v1.6h1.6a.8.8 0 0 1 .8.8v1.6a.8.8 0 0 1-.8.8H12a.8.8 0 0 1-.8-.8V12z" clip-rule="evenodd"/></g><defs><clipPath id="a"><path fill="#fff" d="M0 0h16v16H0z"/></clipPath></defs></svg>