<svg width="20" height="20" viewBox="0 0 20 20" fill="none" xmlns="http://www.w3.org/2000/svg"><path d="M3.850 2.031 C 3.289 2.055,3.196 2.081,2.826 2.324 C 2.541 2.511,2.366 2.713,2.195 3.055 C 2.005 3.434,1.993 3.609,2.007 5.750 C 2.019 7.549,2.019 7.550,2.098 7.750 C 2.187 7.977,2.341 8.231,2.499 8.410 C 2.647 8.579,3.008 8.812,3.267 8.905 L 3.483 8.983 5.500 8.983 L 7.517 8.983 7.730 8.906 C 7.961 8.823,8.218 8.670,8.410 8.501 C 8.580 8.352,8.813 7.990,8.904 7.733 C 8.980 7.520,8.981 7.493,8.993 5.762 C 9.000 4.736,8.992 3.869,8.972 3.674 C 8.934 3.292,8.856 3.079,8.642 2.774 C 8.458 2.512,8.227 2.326,7.883 2.164 L 7.617 2.039 5.983 2.024 C 5.085 2.016,4.125 2.019,3.850 2.031 M12.850 2.031 C 12.289 2.055,12.196 2.081,11.826 2.324 C 11.541 2.511,11.366 2.713,11.195 3.055 C 11.005 3.434,10.993 3.609,11.008 5.750 L 11.020 7.550 11.100 7.757 C 11.272 8.207,11.635 8.609,12.052 8.813 C 12.416 8.991,12.518 8.999,14.594 8.999 L 16.506 9.000 16.756 8.900 C 17.257 8.699,17.596 8.394,17.819 7.942 C 17.983 7.612,17.996 7.414,17.998 5.333 C 17.999 4.040,17.989 3.636,17.952 3.467 C 17.824 2.870,17.460 2.431,16.867 2.155 L 16.617 2.039 14.983 2.024 C 14.085 2.016,13.125 2.019,12.850 2.031 M7.000 5.500 L 7.000 7.000 5.500 7.000 L 4.000 7.000 4.000 5.500 L 4.000 4.000 5.500 4.000 L 7.000 4.000 7.000 5.500 M16.000 5.500 L 16.000 7.000 14.500 7.000 L 13.000 7.000 13.000 5.500 L 13.000 4.000 14.500 4.000 L 16.000 4.000 16.000 5.500 M3.850 11.031 C 3.289 11.055,3.196 11.081,2.826 11.324 C 2.541 11.511,2.366 11.713,2.195 12.055 C 2.005 12.434,1.993 12.609,2.007 14.750 C 2.019 16.549,2.019 16.550,2.098 16.750 C 2.187 16.977,2.341 17.231,2.499 17.410 C 2.648 17.580,3.010 17.813,3.267 17.904 C 3.480 17.980,3.507 17.981,5.238 17.993 C 7.129 18.007,7.546 17.986,7.837 17.864 C 8.204 17.710,8.559 17.402,8.756 17.067 C 8.794 17.002,8.864 16.850,8.913 16.728 L 9.000 16.505 8.999 14.594 C 8.999 13.082,8.989 12.638,8.952 12.467 C 8.824 11.870,8.460 11.431,7.867 11.155 L 7.617 11.039 5.983 11.024 C 5.085 11.016,4.125 11.019,3.850 11.031 M11.833 11.029 C 11.517 11.081,11.248 11.279,11.110 11.560 L 11.017 11.750 11.017 13.000 C 11.017 14.239,11.017 14.251,11.094 14.406 C 11.192 14.606,11.394 14.808,11.594 14.906 C 11.746 14.981,11.777 14.984,12.873 14.994 L 13.996 15.004 14.006 16.127 C 14.016 17.223,14.019 17.254,14.094 17.406 C 14.192 17.606,14.394 17.808,14.594 17.906 C 14.749 17.983,14.761 17.983,16.000 17.983 C 17.239 17.983,17.251 17.983,17.406 17.906 C 17.606 17.808,17.808 17.606,17.906 17.406 C 17.983 17.251,17.983 17.239,17.983 16.000 C 17.983 14.885,17.977 14.736,17.925 14.622 C 17.828 14.406,17.679 14.249,17.464 14.134 L 17.257 14.025 16.131 14.007 L 15.004 13.990 14.994 12.870 C 14.985 11.893,14.976 11.734,14.925 11.622 C 14.828 11.408,14.680 11.250,14.469 11.137 L 14.268 11.030 13.126 11.017 C 12.497 11.010,11.916 11.015,11.833 11.029 M7.000 14.500 L 7.000 16.000 5.500 16.000 L 4.000 16.000 4.000 14.500 L 4.000 13.000 5.500 13.000 L 7.000 13.000 7.000 14.500 " fill="#1A1C1F" stroke="none" fill-rule="evenodd"></path></svg>