<svg width="14" height="14" viewBox="0 0 14 14" fill="none" xmlns="http://www.w3.org/2000/svg"><path d="M2.695 1.421 C 2.302 1.438,2.237 1.457,1.978 1.627 C 1.779 1.757,1.656 1.899,1.538 2.135 C 1.405 2.401,1.394 2.552,1.405 4.033 C 1.413 5.245,1.414 5.264,1.467 5.413 C 1.536 5.607,1.698 5.852,1.839 5.974 C 1.899 6.026,2.032 6.110,2.135 6.162 C 2.288 6.238,2.360 6.259,2.532 6.277 C 2.805 6.306,4.895 6.306,5.168 6.277 C 5.745 6.217,6.217 5.745,6.277 5.168 C 6.305 4.900,6.306 2.806,6.278 2.540 C 6.253 2.305,6.192 2.146,6.049 1.942 C 5.921 1.759,5.759 1.629,5.518 1.515 L 5.332 1.426 4.188 1.416 C 3.560 1.411,2.888 1.413,2.695 1.421 M8.995 1.421 C 8.602 1.438,8.537 1.457,8.278 1.627 C 8.079 1.757,7.956 1.899,7.838 2.135 C 7.762 2.288,7.741 2.360,7.723 2.532 C 7.694 2.805,7.694 4.895,7.723 5.168 C 7.761 5.536,7.965 5.868,8.278 6.074 C 8.364 6.131,8.498 6.202,8.575 6.233 L 8.715 6.288 10.132 6.295 L 11.548 6.302 11.722 6.233 C 12.105 6.079,12.344 5.854,12.506 5.495 C 12.583 5.323,12.598 5.044,12.598 3.733 C 12.599 2.830,12.592 2.545,12.567 2.424 C 12.483 2.030,12.232 1.718,11.852 1.532 L 11.632 1.425 10.488 1.416 C 9.860 1.410,9.188 1.413,8.995 1.421 M4.900 3.850 L 4.900 4.900 3.850 4.900 L 2.800 4.900 2.800 3.850 L 2.800 2.800 3.850 2.800 L 4.900 2.800 4.900 3.850 M11.200 3.850 L 11.200 4.900 10.150 4.900 L 9.100 4.900 9.100 3.850 L 9.100 2.800 10.150 2.800 L 11.200 2.800 11.200 3.850 M2.695 7.721 C 2.302 7.738,2.237 7.757,1.978 7.927 C 1.779 8.057,1.656 8.199,1.538 8.435 C 1.405 8.701,1.394 8.852,1.405 10.333 C 1.413 11.545,1.414 11.564,1.467 11.713 C 1.536 11.907,1.698 12.152,1.839 12.274 C 1.899 12.326,2.032 12.410,2.135 12.462 C 2.288 12.538,2.360 12.559,2.532 12.577 C 2.800 12.605,4.893 12.606,5.159 12.578 C 5.641 12.527,6.039 12.212,6.229 11.732 L 6.300 11.552 6.300 10.215 C 6.299 9.160,6.292 8.846,6.267 8.724 C 6.183 8.330,5.932 8.018,5.552 7.832 L 5.332 7.725 4.188 7.716 C 3.560 7.710,2.888 7.713,2.695 7.721 M8.283 7.720 C 8.141 7.743,7.945 7.854,7.861 7.959 C 7.710 8.150,7.712 8.138,7.712 9.100 C 7.712 9.967,7.712 9.976,7.766 10.085 C 7.834 10.224,7.976 10.366,8.115 10.434 C 8.222 10.487,8.244 10.489,9.011 10.496 L 9.797 10.503 9.804 11.289 C 9.811 12.056,9.813 12.078,9.866 12.185 C 9.934 12.324,10.076 12.466,10.215 12.534 C 10.324 12.588,10.333 12.588,11.200 12.588 C 12.067 12.588,12.076 12.588,12.185 12.534 C 12.324 12.466,12.466 12.324,12.534 12.185 C 12.588 12.076,12.588 12.067,12.588 11.200 C 12.588 10.354,12.587 10.321,12.538 10.217 C 12.473 10.076,12.336 9.941,12.191 9.872 C 12.078 9.819,12.052 9.817,11.289 9.805 L 10.503 9.793 10.496 9.009 C 10.489 8.264,10.486 8.220,10.438 8.117 C 10.374 7.977,10.237 7.841,10.093 7.773 C 9.984 7.722,9.955 7.720,9.184 7.711 C 8.747 7.707,8.341 7.710,8.283 7.720 M4.900 10.150 L 4.900 11.200 3.850 11.200 L 2.800 11.200 2.800 10.150 L 2.800 9.100 3.850 9.100 L 4.900 9.100 4.900 10.150 " fill="#1A1C1F" stroke="none" fill-rule="evenodd"></path></svg>