<svg width="12" height="12" viewBox="0 0 12 12" fill="none" xmlns="http://www.w3.org/2000/svg"><path d="M2.330 1.218 C 1.971 1.233,1.921 1.247,1.696 1.394 C 1.524 1.506,1.420 1.628,1.317 1.833 C 1.203 2.060,1.196 2.165,1.204 3.450 C 1.212 4.529,1.212 4.530,1.259 4.650 C 1.312 4.786,1.405 4.938,1.499 5.046 C 1.587 5.146,1.803 5.285,1.960 5.343 L 2.090 5.390 3.300 5.390 L 4.510 5.390 4.640 5.342 C 4.782 5.290,4.932 5.201,5.046 5.101 C 5.146 5.013,5.285 4.797,5.343 4.640 L 5.390 4.510 5.390 3.290 L 5.390 2.070 5.332 1.930 C 5.206 1.627,5.042 1.451,4.756 1.312 L 4.570 1.222 3.610 1.214 C 3.082 1.209,2.506 1.211,2.330 1.218 M7.730 1.218 C 7.371 1.233,7.321 1.247,7.096 1.394 C 6.924 1.506,6.820 1.628,6.717 1.833 C 6.603 2.060,6.596 2.165,6.604 3.450 C 6.612 4.529,6.612 4.530,6.659 4.650 C 6.712 4.786,6.805 4.938,6.899 5.046 C 6.982 5.140,7.197 5.282,7.350 5.342 L 7.470 5.390 8.684 5.396 L 9.898 5.402 10.051 5.341 C 10.354 5.219,10.557 5.037,10.692 4.765 C 10.790 4.567,10.798 4.448,10.799 3.200 C 10.799 2.424,10.793 2.182,10.771 2.080 C 10.694 1.722,10.476 1.459,10.120 1.293 L 9.970 1.223 9.010 1.214 C 8.482 1.209,7.906 1.211,7.730 1.218 M4.200 3.300 L 4.200 4.200 3.300 4.200 L 2.400 4.200 2.400 3.300 L 2.400 2.400 3.300 2.400 L 4.200 2.400 4.200 3.300 M9.600 3.300 L 9.600 4.200 8.700 4.200 L 7.800 4.200 7.800 3.300 L 7.800 2.400 8.700 2.400 L 9.600 2.400 9.600 3.300 M2.330 6.618 C 1.971 6.633,1.921 6.647,1.696 6.794 C 1.524 6.906,1.420 7.028,1.317 7.233 C 1.203 7.460,1.196 7.565,1.204 8.850 C 1.212 9.929,1.212 9.930,1.259 10.050 C 1.312 10.186,1.405 10.338,1.499 10.446 C 1.587 10.546,1.803 10.685,1.960 10.743 L 2.090 10.790 3.310 10.790 L 4.530 10.790 4.670 10.732 C 5.000 10.596,5.213 10.377,5.348 10.037 L 5.400 9.903 5.400 8.757 C 5.399 7.849,5.393 7.583,5.371 7.480 C 5.294 7.122,5.076 6.859,4.720 6.693 L 4.570 6.623 3.610 6.614 C 3.082 6.609,2.506 6.611,2.330 6.618 M7.110 6.617 C 6.912 6.645,6.730 6.784,6.645 6.973 C 6.614 7.042,6.610 7.131,6.610 7.800 C 6.610 8.543,6.610 8.551,6.656 8.644 C 6.715 8.764,6.836 8.885,6.956 8.944 C 7.048 8.989,7.066 8.990,7.724 8.996 L 8.398 9.002 8.404 9.676 C 8.410 10.334,8.411 10.352,8.456 10.444 C 8.515 10.564,8.636 10.685,8.756 10.744 C 8.849 10.790,8.857 10.790,9.600 10.790 C 10.343 10.790,10.351 10.790,10.444 10.744 C 10.564 10.685,10.685 10.564,10.744 10.444 C 10.790 10.351,10.790 10.343,10.790 9.600 L 10.790 8.850 10.742 8.753 C 10.681 8.628,10.586 8.534,10.454 8.467 L 10.350 8.414 9.676 8.404 L 9.002 8.394 8.996 7.722 C 8.990 7.060,8.989 7.049,8.942 6.953 C 8.881 6.829,8.786 6.734,8.657 6.668 L 8.555 6.617 7.883 6.610 C 7.513 6.606,7.165 6.609,7.110 6.617 M4.200 8.700 L 4.200 9.600 3.300 9.600 L 2.400 9.600 2.400 8.700 L 2.400 7.800 3.300 7.800 L 4.200 7.800 4.200 8.700 " fill="#1A1C1F" stroke="none" fill-rule="evenodd"></path></svg>