<svg width="16" height="16" viewBox="0 0 16 16" fill="none" xmlns="http://www.w3.org/2000/svg"><path d="M3.080 1.625 C 2.631 1.644,2.557 1.665,2.261 1.859 C 2.033 2.008,1.893 2.170,1.758 2.440 C 1.606 2.744,1.594 2.914,1.605 4.608 C 1.615 5.993,1.616 6.016,1.676 6.187 C 1.794 6.520,2.043 6.829,2.331 6.997 C 2.396 7.035,2.535 7.097,2.642 7.136 L 2.835 7.205 4.437 7.194 L 6.040 7.183 6.219 7.113 C 6.662 6.940,6.958 6.636,7.123 6.184 L 7.200 5.972 7.200 4.400 L 7.200 2.828 7.123 2.616 C 7.006 2.298,6.827 2.052,6.593 1.889 C 6.421 1.770,6.179 1.657,6.063 1.642 C 5.895 1.620,3.514 1.607,3.080 1.625 M10.280 1.625 C 9.831 1.644,9.757 1.665,9.461 1.859 C 9.233 2.008,9.093 2.170,8.958 2.440 C 8.806 2.744,8.794 2.914,8.806 4.608 C 8.815 5.990,8.816 6.016,8.876 6.188 C 9.002 6.547,9.300 6.883,9.642 7.051 C 9.932 7.193,10.014 7.199,11.676 7.200 L 13.204 7.200 13.400 7.122 C 13.835 6.948,14.109 6.689,14.292 6.280 C 14.381 6.081,14.398 5.772,14.398 4.280 C 14.399 3.235,14.391 2.909,14.362 2.773 C 14.259 2.296,13.967 1.944,13.493 1.724 L 13.293 1.632 11.987 1.620 C 11.268 1.614,10.500 1.616,10.280 1.625 M5.600 4.400 L 5.600 5.600 4.400 5.600 L 3.200 5.600 3.200 4.400 L 3.200 3.200 4.400 3.200 L 5.600 3.200 5.600 4.400 M12.800 4.400 L 12.800 5.600 11.600 5.600 L 10.400 5.600 10.400 4.400 L 10.400 3.200 11.600 3.200 L 12.800 3.200 12.800 4.400 M3.080 8.825 C 2.631 8.844,2.557 8.865,2.261 9.059 C 2.033 9.208,1.893 9.370,1.758 9.640 C 1.606 9.944,1.594 10.114,1.605 11.808 C 1.615 13.197,1.616 13.215,1.677 13.387 C 1.755 13.608,1.941 13.888,2.102 14.027 C 2.170 14.087,2.323 14.183,2.440 14.242 C 2.744 14.394,2.916 14.406,4.609 14.395 L 6.013 14.385 6.206 14.316 C 6.653 14.154,6.978 13.818,7.136 13.353 L 7.200 13.164 7.200 11.596 L 7.200 10.028 7.123 9.816 C 7.006 9.498,6.827 9.252,6.593 9.089 C 6.421 8.970,6.179 8.857,6.063 8.842 C 5.895 8.820,3.514 8.807,3.080 8.825 M9.467 8.823 C 9.214 8.865,8.998 9.023,8.888 9.248 L 8.813 9.400 8.813 10.400 C 8.813 11.391,8.814 11.401,8.875 11.525 C 8.954 11.685,9.115 11.846,9.275 11.925 C 9.397 11.985,9.422 11.987,10.298 11.995 L 11.197 12.003 11.205 12.902 C 11.213 13.778,11.215 13.803,11.275 13.925 C 11.354 14.085,11.515 14.246,11.675 14.325 C 11.799 14.386,11.809 14.387,12.800 14.387 C 13.791 14.387,13.801 14.386,13.925 14.325 C 14.085 14.246,14.246 14.085,14.325 13.925 C 14.386 13.801,14.387 13.791,14.387 12.800 C 14.387 11.827,14.385 11.797,14.328 11.675 C 14.253 11.514,14.099 11.361,13.932 11.282 C 13.803 11.220,13.777 11.218,12.902 11.206 L 12.003 11.193 11.995 10.296 C 11.986 9.442,11.983 9.394,11.928 9.275 C 11.854 9.114,11.699 8.961,11.534 8.883 C 11.408 8.824,11.377 8.822,10.496 8.813 C 9.996 8.807,9.533 8.812,9.467 8.823 M5.600 11.600 L 5.600 12.800 4.400 12.800 L 3.200 12.800 3.200 11.600 L 3.200 10.400 4.400 10.400 L 5.600 10.400 5.600 11.600 " fill="#1A1C1F" stroke="none" fill-rule="evenodd"></path></svg>