<svg width="14" height="14" viewBox="0 0 14 14" fill="none" xmlns="http://www.w3.org/2000/svg"><path d="M3.407 1.423 C 3.094 1.438,3.018 1.450,2.842 1.510 C 2.563 1.606,2.312 1.755,2.107 1.946 C 1.784 2.247,1.601 2.539,1.470 2.961 L 1.398 3.191 1.405 4.133 C 1.412 5.064,1.412 5.076,1.466 5.185 C 1.723 5.707,2.407 5.735,2.707 5.236 L 2.788 5.100 2.802 4.210 C 2.816 3.357,2.818 3.315,2.867 3.214 C 2.935 3.075,3.056 2.953,3.204 2.877 L 3.325 2.814 4.212 2.801 C 5.079 2.789,5.101 2.787,5.198 2.735 C 5.452 2.599,5.587 2.379,5.587 2.100 C 5.587 1.891,5.533 1.753,5.397 1.617 C 5.218 1.438,5.182 1.431,4.433 1.417 C 4.068 1.411,3.606 1.413,3.407 1.423 M8.983 1.420 C 8.578 1.487,8.318 1.899,8.432 2.293 C 8.482 2.464,8.590 2.599,8.760 2.704 L 8.897 2.788 9.789 2.802 C 10.643 2.816,10.685 2.818,10.786 2.867 C 10.925 2.935,11.047 3.056,11.123 3.204 L 11.186 3.325 11.199 4.213 L 11.212 5.100 11.293 5.236 C 11.593 5.735,12.277 5.707,12.534 5.185 C 12.588 5.076,12.588 5.064,12.595 4.130 L 12.602 3.186 12.518 2.927 C 12.404 2.573,12.258 2.323,12.020 2.072 C 11.799 1.840,11.582 1.686,11.321 1.576 C 10.984 1.434,10.922 1.426,9.963 1.414 C 9.482 1.408,9.041 1.411,8.983 1.420 M4.783 4.220 C 4.562 4.257,4.374 4.395,4.277 4.592 L 4.212 4.725 4.212 5.425 C 4.212 6.221,4.217 6.247,4.410 6.440 C 4.603 6.633,4.629 6.638,5.425 6.638 C 6.221 6.638,6.247 6.633,6.440 6.440 C 6.633 6.247,6.638 6.221,6.638 5.425 C 6.638 4.758,6.636 4.720,6.588 4.617 C 6.524 4.477,6.387 4.341,6.244 4.273 C 6.137 4.223,6.097 4.220,5.510 4.211 C 5.168 4.207,4.841 4.211,4.783 4.220 M7.933 4.220 C 7.712 4.257,7.524 4.395,7.427 4.592 L 7.362 4.725 7.362 5.425 C 7.362 6.221,7.367 6.247,7.560 6.440 C 7.753 6.633,7.779 6.638,8.575 6.638 C 9.371 6.638,9.397 6.633,9.590 6.440 C 9.783 6.247,9.788 6.221,9.788 5.425 C 9.788 4.758,9.786 4.720,9.738 4.617 C 9.674 4.477,9.537 4.341,9.394 4.273 C 9.287 4.223,9.247 4.220,8.660 4.211 C 8.318 4.207,7.991 4.211,7.933 4.220 M4.783 7.370 C 4.562 7.407,4.374 7.545,4.277 7.742 L 4.212 7.875 4.212 8.575 C 4.212 9.371,4.217 9.397,4.410 9.590 C 4.603 9.783,4.629 9.788,5.425 9.788 C 6.221 9.788,6.247 9.783,6.440 9.590 C 6.633 9.397,6.638 9.371,6.638 8.575 C 6.638 7.908,6.636 7.870,6.588 7.767 C 6.524 7.627,6.387 7.491,6.244 7.423 C 6.137 7.373,6.097 7.370,5.510 7.361 C 5.168 7.357,4.841 7.361,4.783 7.370 M7.803 7.371 C 7.657 7.389,7.524 7.473,7.431 7.607 L 7.362 7.708 7.362 8.227 L 7.362 8.745 7.434 8.845 C 7.473 8.900,7.549 8.976,7.602 9.014 C 7.682 9.072,7.726 9.085,7.871 9.095 L 8.044 9.106 8.055 9.279 C 8.065 9.424,8.078 9.468,8.136 9.548 C 8.174 9.601,8.250 9.677,8.305 9.716 L 8.405 9.788 8.925 9.788 L 9.445 9.788 9.545 9.716 C 9.600 9.677,9.677 9.600,9.716 9.545 L 9.788 9.445 9.788 8.927 L 9.788 8.408 9.722 8.312 C 9.603 8.140,9.428 8.052,9.202 8.051 L 9.106 8.050 9.095 7.876 C 9.086 7.735,9.071 7.683,9.020 7.609 C 8.930 7.480,8.793 7.391,8.649 7.371 C 8.506 7.350,7.971 7.350,7.803 7.371 M1.944 8.421 C 1.814 8.454,1.624 8.577,1.546 8.678 C 1.407 8.859,1.400 8.917,1.400 9.920 L 1.400 10.824 1.480 11.067 C 1.614 11.476,1.769 11.733,2.045 12.003 C 2.297 12.250,2.596 12.420,2.991 12.540 L 3.194 12.602 4.134 12.595 C 5.063 12.588,5.076 12.588,5.185 12.534 C 5.325 12.465,5.464 12.326,5.533 12.186 C 5.607 12.034,5.609 11.772,5.538 11.617 C 5.474 11.477,5.338 11.341,5.191 11.271 C 5.077 11.216,5.062 11.215,4.188 11.202 L 3.302 11.188 3.191 11.123 C 3.049 11.040,2.931 10.917,2.869 10.789 C 2.822 10.692,2.818 10.636,2.801 9.806 C 2.781 8.810,2.783 8.818,2.597 8.629 C 2.538 8.569,2.440 8.498,2.379 8.472 C 2.252 8.417,2.052 8.394,1.944 8.421 M11.747 8.421 C 11.525 8.478,11.350 8.622,11.263 8.819 C 11.219 8.917,11.214 8.995,11.198 9.807 C 11.181 10.635,11.177 10.695,11.131 10.790 C 11.069 10.917,10.951 11.040,10.809 11.123 L 10.698 11.188 9.812 11.202 C 8.938 11.215,8.923 11.216,8.809 11.271 C 8.662 11.341,8.526 11.477,8.462 11.617 C 8.391 11.772,8.393 12.034,8.467 12.186 C 8.536 12.326,8.675 12.465,8.815 12.534 C 8.924 12.588,8.936 12.588,9.870 12.595 L 10.814 12.602 11.073 12.518 C 11.793 12.286,12.268 11.816,12.511 11.096 L 12.598 10.838 12.599 9.925 C 12.600 9.129,12.595 8.996,12.560 8.890 C 12.509 8.730,12.336 8.539,12.183 8.474 C 12.053 8.418,11.853 8.393,11.747 8.421 " fill="#1A1C1F" stroke="none" fill-rule="evenodd"></path></svg>