<svg xmlns="http://www.w3.org/2000/svg" width="12" height="12" fill="none"><g clip-path="url(#a)"><path fill="#1A1C1F" fill-rule="evenodd" d="M4.3 6.6c.607 0 1.1.49 1.1 1.098v2.004A1.1 1.1 0 0 1 4.3 10.8H2.297A1.1 1.1 0 0 1 1.2 9.702V7.698c0-.606.492-1.097 1.097-1.098zm-.1 1.2H2.4v1.8h1.8zm5.502-6.6c.606 0 1.097.492 1.098 1.098v2.004A1.1 1.1 0 0 1 9.702 5.4H7.698A1.1 1.1 0 0 1 6.6 4.302V2.298c0-.606.492-1.097 1.098-1.098zM9.6 2.4H7.8v1.8h1.8zM4.302 1.2c.606 0 1.097.492 1.098 1.098v2.005A1.1 1.1 0 0 1 4.302 5.4H2.298A1.1 1.1 0 0 1 1.2 4.303V2.298c0-.606.492-1.097 1.098-1.098zM4.2 2.4H2.4v1.8h1.8zm3 6.6a.6.6 0 0 1-.6-.6V7.2a.6.6 0 0 1 .6-.6h1.2a.6.6 0 0 1 .6.6v1.2h1.2a.6.6 0 0 1 .6.6v1.2a.6.6 0 0 1-.6.6H9a.6.6 0 0 1-.6-.6V9z" clip-rule="evenodd"/></g><defs><clipPath id="a"><path fill="#fff" d="M0 0h12v12H0z"/></clipPath></defs></svg>