<svg xmlns="http://www.w3.org/2000/svg" width="14" height="14" fill="none"><g clip-path="url(#a)"><path fill="#1A1C1F" fill-rule="evenodd" d="M5.017 7.7c.708 0 1.282.572 1.283 1.28v2.34a1.28 1.28 0 0 1-1.283 1.28H2.68c-.707 0-1.28-.574-1.28-1.28V8.98A1.28 1.28 0 0 1 2.68 7.7zM4.9 9.1H2.8v2.1h2.1zm6.42-7.7c.706 0 1.28.574 1.28 1.28V5.02c0 .707-.573 1.28-1.28 1.281H8.98c-.706 0-1.28-.574-1.28-1.28V2.68c0-.706.574-1.28 1.28-1.28zm-.12 1.4H9.1v2.1h2.1zM5.02 1.4c.706 0 1.28.573 1.28 1.28v2.34A1.283 1.283 0 0 1 5.02 6.3H2.68A1.283 1.283 0 0 1 1.4 5.02V2.68A1.28 1.28 0 0 1 2.68 1.4zM4.9 2.8H2.8v2.1h2.1zm3.5 7.7a.7.7 0 0 1-.7-.7V8.4a.7.7 0 0 1 .7-.7h1.4a.7.7 0 0 1 .7.7v1.4h1.4a.7.7 0 0 1 .7.7v1.4a.7.7 0 0 1-.7.7h-1.4a.7.7 0 0 1-.7-.7v-1.4z" clip-rule="evenodd"/></g><defs><clipPath id="a"><path fill="#fff" d="M0 0h14v14H0z"/></clipPath></defs></svg>