<svg width="32" height="32" viewBox="0 0 32 32" fill="none" xmlns="http://www.w3.org/2000/svg"><path d="M5.973 3.036 C 5.165 3.079,4.872 3.165,4.339 3.515 C 3.761 3.894,3.352 4.447,3.131 5.147 C 3.015 5.516,3.013 5.558,3.013 9.040 C 3.013 12.557,3.013 12.560,3.134 12.907 C 3.458 13.839,4.066 14.481,4.940 14.815 L 5.307 14.955 8.560 14.975 C 12.367 14.998,12.726 14.978,13.307 14.702 C 13.890 14.425,14.390 13.932,14.679 13.348 C 14.970 12.760,14.979 12.632,14.979 9.013 C 14.979 5.386,14.971 5.268,14.675 4.671 C 14.407 4.130,13.979 3.671,13.486 3.396 C 12.844 3.037,12.829 3.035,9.600 3.015 C 8.001 3.005,6.369 3.015,5.973 3.036 M20.533 3.043 C 19.844 3.060,19.207 3.100,19.117 3.130 C 18.685 3.279,18.290 3.523,17.932 3.862 C 17.614 4.163,17.497 4.323,17.291 4.737 L 17.040 5.243 17.025 8.742 C 17.016 10.893,17.031 12.374,17.064 12.587 C 17.128 13.005,17.406 13.583,17.712 13.937 C 18.017 14.289,18.603 14.689,19.031 14.837 L 19.387 14.960 23.013 14.960 L 26.640 14.960 27.001 14.835 C 27.899 14.525,28.565 13.827,28.868 12.880 C 28.986 12.509,28.987 12.482,28.987 9.013 C 28.987 5.545,28.986 5.517,28.868 5.147 C 28.641 4.436,28.242 3.902,27.638 3.501 C 26.967 3.055,26.969 3.056,24.213 3.032 C 22.879 3.020,21.223 3.025,20.533 3.043 M12.520 5.149 C 12.615 5.209,12.753 5.340,12.826 5.440 L 12.960 5.621 12.960 9.027 L 12.960 12.433 12.733 12.673 C 12.578 12.837,12.439 12.928,12.293 12.961 C 12.010 13.027,6.197 13.027,5.787 12.962 C 5.504 12.917,5.443 12.884,5.267 12.682 L 5.067 12.453 5.067 9.023 L 5.067 5.593 5.208 5.407 C 5.388 5.172,5.500 5.113,5.865 5.063 C 6.027 5.042,7.552 5.027,9.254 5.032 C 12.273 5.040,12.352 5.043,12.520 5.149 M26.588 5.197 C 26.980 5.496,26.960 5.293,26.960 9.040 L 26.960 12.400 26.838 12.571 C 26.771 12.665,26.639 12.797,26.545 12.865 L 26.373 12.987 23.161 13.002 C 20.877 13.013,19.883 13.000,19.721 12.957 C 19.570 12.917,19.417 12.817,19.267 12.661 L 19.040 12.425 19.040 9.014 L 19.040 5.604 19.207 5.413 C 19.408 5.184,19.532 5.112,19.813 5.059 C 19.931 5.037,21.461 5.027,23.214 5.037 L 26.402 5.056 26.588 5.197 M7.920 7.031 C 7.566 7.080,7.276 7.267,7.134 7.539 C 7.029 7.740,7.017 7.860,6.997 8.859 C 6.979 9.750,6.991 10.014,7.059 10.247 C 7.159 10.591,7.400 10.845,7.707 10.928 C 7.988 11.005,10.041 11.004,10.320 10.928 C 10.459 10.890,10.614 10.783,10.762 10.624 L 10.992 10.380 10.976 9.008 L 10.960 7.636 10.797 7.432 C 10.509 7.071,10.379 7.037,9.216 7.014 C 8.650 7.003,8.067 7.010,7.920 7.031 M21.850 7.038 C 21.554 7.093,21.267 7.292,21.133 7.536 C 21.052 7.685,21.040 7.870,21.040 9.013 C 21.040 10.408,21.054 10.494,21.324 10.739 C 21.555 10.948,21.791 10.982,23.015 10.984 C 24.131 10.987,24.203 10.981,24.429 10.867 C 24.583 10.789,24.728 10.655,24.840 10.487 L 25.013 10.228 25.013 8.974 L 25.013 7.721 24.826 7.466 C 24.544 7.081,24.402 7.043,23.157 7.015 C 22.579 7.002,21.991 7.012,21.850 7.038 M5.733 17.064 C 5.084 17.108,4.849 17.187,4.331 17.539 C 3.785 17.910,3.421 18.390,3.146 19.103 L 2.987 19.517 2.987 22.732 C 2.987 26.094,3.012 26.606,3.200 27.108 C 3.425 27.710,4.100 28.422,4.729 28.721 C 5.278 28.982,5.346 28.987,9.040 28.987 C 12.481 28.987,12.509 28.986,12.880 28.868 C 13.810 28.571,14.475 27.949,14.815 27.060 L 14.955 26.693 14.975 23.467 C 14.998 19.817,14.971 19.291,14.734 18.771 C 14.422 18.082,13.710 17.427,12.987 17.164 C 12.672 17.049,12.609 17.047,9.493 17.036 C 7.748 17.030,6.056 17.043,5.733 17.064 M18.877 17.059 C 18.485 17.090,18.376 17.122,18.111 17.281 C 17.733 17.508,17.339 17.928,17.152 18.302 L 17.013 18.581 17.013 20.492 L 17.013 22.403 17.175 22.723 C 17.386 23.141,17.868 23.619,18.294 23.832 L 18.630 24.000 20.297 24.000 L 21.964 24.000 21.986 25.640 C 22.011 27.483,22.029 27.595,22.388 28.070 C 22.504 28.223,22.729 28.450,22.889 28.573 C 23.401 28.968,23.426 28.973,25.482 29.001 L 27.312 29.026 27.669 28.850 C 28.140 28.619,28.619 28.140,28.850 27.669 L 29.025 27.312 29.002 25.403 C 28.979 23.585,28.972 23.479,28.859 23.188 C 28.708 22.800,28.377 22.457,27.939 22.235 L 27.600 22.063 25.800 22.038 L 24.000 22.012 24.000 20.321 L 24.000 18.630 23.832 18.294 C 23.634 17.897,23.175 17.420,22.797 17.217 L 22.531 17.073 20.932 17.048 C 20.053 17.034,19.128 17.039,18.877 17.059 M12.523 19.136 C 12.596 19.183,12.724 19.317,12.808 19.433 L 12.960 19.643 12.960 23.002 C 12.960 26.306,12.958 26.364,12.850 26.539 C 12.789 26.638,12.663 26.773,12.570 26.839 L 12.400 26.960 9.040 26.960 C 5.311 26.960,5.514 26.979,5.208 26.599 L 5.046 26.398 5.043 23.052 L 5.040 19.707 5.164 19.493 C 5.391 19.100,5.471 19.071,6.400 19.033 C 6.855 19.014,8.389 19.010,9.809 19.024 C 12.076 19.046,12.407 19.059,12.523 19.136 M21.770 19.067 C 21.819 19.086,21.885 19.176,21.916 19.266 C 21.978 19.444,21.995 21.159,21.939 21.570 C 21.884 21.968,21.806 21.996,20.704 22.019 C 19.622 22.041,19.356 22.011,19.163 21.845 C 19.022 21.724,19.021 21.716,18.997 20.840 C 18.971 19.875,19.010 19.314,19.115 19.172 C 19.152 19.121,19.276 19.060,19.391 19.035 C 19.624 18.986,21.629 19.013,21.770 19.067 M7.782 21.060 C 7.529 21.113,7.289 21.289,7.137 21.534 C 7.017 21.728,7.013 21.768,7.014 22.987 C 7.015 24.438,7.034 24.517,7.449 24.822 L 7.707 25.011 8.967 25.012 L 10.228 25.013 10.487 24.840 C 10.655 24.728,10.789 24.583,10.867 24.429 C 10.980 24.204,10.987 24.128,10.984 23.095 C 10.983 22.493,10.962 21.895,10.937 21.768 C 10.883 21.487,10.744 21.290,10.501 21.147 C 10.336 21.050,10.214 21.039,9.147 21.030 C 8.501 21.025,7.887 21.039,7.782 21.060 M26.785 24.119 C 26.974 24.242,27.007 24.538,26.976 25.815 C 26.950 26.919,26.941 26.950,26.621 27.039 C 26.381 27.105,24.689 27.108,24.406 27.043 C 24.043 26.958,24.029 26.922,24.008 25.992 C 23.985 25.032,24.033 24.314,24.129 24.184 C 24.233 24.041,24.538 24.007,25.629 24.017 C 26.490 24.025,26.666 24.041,26.785 24.119 " fill="#1A1C1F" stroke="none" fill-rule="evenodd"></path></svg>