<svg xmlns="http://www.w3.org/2000/svg" width="24" height="24" fill="none"><g clip-path="url(#a)"><path fill="#1A1C1F" fill-rule="evenodd" d="M14.5 8v1.5h1.501L16 8zm1.5 3.5h-1.5c-1.103 0-2-.897-2-2V8c0-1.103.897-2 2-2H16c1.103 0 2 .897 2 2v1.5c0 1.103-.897 2-2 2m1 3h-1v-1a1 1 0 0 0-1-1h-1.5a1 1 0 0 0-1 1V15a1 1 0 0 0 1 1h1v1a1 1 0 0 0 1 1H17a1 1 0 0 0 1-1v-1.5a1 1 0 0 0-1-1m-9 0V16h1.501L9.5 14.5zM9.5 18H8c-1.103 0-2-.897-2-2v-1.5c0-1.103.897-2 2-2h1.5c1.103 0 2 .897 2 2V16c0 1.103-.897 2-2 2M8 8v1.5h1.501L9.5 8zm1.5 3.5H8c-1.103 0-2-.897-2-2V8c0-1.103.897-2 2-2h1.5c1.103 0 2 .897 2 2v1.5c0 1.103-.897 2-2 2M3.002 8.972a1 1 0 0 0 1-1q-.003-.985 0-1.97c.003-1.144.945-2 2-2h1.971c.575-.002 1-.489 1-1a1 1 0 0 0-1-1q-.985-.003-1.971 0a3.99 3.99 0 0 0-4 4q-.004.998 0 1.985c.001.565.487.985 1 .985m12.97-4.97Q16.986 4 18 4.002c1.176.003 2 .945 2 2q-.017.978-.028 1.957a1.017 1.017 0 0 0 .986 1.014 1 1 0 0 0 1.014-.985q.018-.987.028-1.972c.025-2.248-1.857-4.014-4-4.014a229 229 0 0 0-2.028 0 1.001 1.001 0 0 0 0 2m5.026 10.968a1 1 0 0 0-1 1q.003 1.015 0 2.028c-.002 1.122-.945 2-2 2q-1.014-.003-2.028 0c-.578.002-1 .49-1 1a1 1 0 0 0 1 1q1.014.003 2.028 0a3.99 3.99 0 0 0 4-4q.004-1.013 0-2.028c-.002-.63-.487-1-1-1M8.972 20.998c0 .512-.418.998-1 1q-.985.003-1.97 0c-2.143 0-3.996-1.732-4-4a343 343 0 0 1 0-2.029 1 1 0 0 1 1-1 .996.996 0 0 1 1 1V18a1.99 1.99 0 0 0 2 2h1.97a1 1 0 0 1 1 1" clip-rule="evenodd"/></g><defs><clipPath id="a"><path fill="#fff" d="M0 0h24v24H0z"/></clipPath></defs></svg>