<svg width="16" height="16" viewBox="0 0 16 16" fill="none" xmlns="http://www.w3.org/2000/svg"><path d="M3.893 1.626 C 3.536 1.643,3.449 1.657,3.248 1.726 C 2.929 1.835,2.642 2.006,2.408 2.224 C 2.039 2.567,1.829 2.902,1.680 3.384 L 1.598 3.647 1.606 4.724 C 1.613 5.787,1.614 5.802,1.675 5.925 C 1.969 6.522,2.751 6.554,3.093 5.984 L 3.187 5.829 3.203 4.811 C 3.218 3.837,3.221 3.789,3.277 3.673 C 3.354 3.514,3.492 3.375,3.662 3.288 L 3.800 3.216 4.813 3.201 C 5.805 3.187,5.829 3.185,5.941 3.126 C 6.229 2.972,6.383 2.721,6.385 2.400 C 6.386 2.161,6.325 2.005,6.168 1.848 C 5.963 1.643,5.923 1.635,5.067 1.619 C 4.649 1.612,4.121 1.615,3.893 1.626 M10.267 1.625 C 9.808 1.694,9.506 2.170,9.637 2.620 C 9.694 2.816,9.817 2.970,10.011 3.090 L 10.169 3.187 11.188 3.203 C 12.162 3.219,12.214 3.222,12.328 3.277 C 12.486 3.354,12.625 3.493,12.712 3.662 L 12.784 3.800 12.799 4.814 L 12.813 5.829 12.907 5.984 C 13.249 6.554,14.031 6.522,14.325 5.925 C 14.386 5.802,14.387 5.787,14.394 4.720 L 14.402 3.641 14.307 3.345 C 14.181 2.957,14.008 2.656,13.760 2.391 C 13.522 2.138,13.344 2.002,13.070 1.865 C 12.679 1.669,12.581 1.647,11.960 1.625 C 11.292 1.600,10.434 1.600,10.267 1.625 M5.467 4.823 C 5.214 4.865,4.998 5.023,4.888 5.248 L 4.813 5.400 4.813 6.200 C 4.813 7.110,4.819 7.139,5.040 7.360 C 5.261 7.581,5.290 7.587,6.200 7.587 C 7.110 7.587,7.139 7.581,7.360 7.360 C 7.581 7.139,7.587 7.110,7.587 6.200 C 7.587 5.433,7.584 5.395,7.528 5.275 C 7.453 5.114,7.299 4.961,7.134 4.883 C 7.011 4.825,6.968 4.822,6.295 4.813 C 5.906 4.807,5.533 4.812,5.467 4.823 M9.067 4.823 C 8.814 4.865,8.598 5.023,8.488 5.248 L 8.413 5.400 8.413 6.200 C 8.413 7.110,8.419 7.139,8.640 7.360 C 8.861 7.581,8.890 7.587,9.800 7.587 C 10.710 7.587,10.739 7.581,10.960 7.360 C 11.181 7.139,11.187 7.110,11.187 6.200 C 11.187 5.433,11.184 5.395,11.128 5.275 C 11.053 5.114,10.899 4.961,10.734 4.883 C 10.611 4.825,10.568 4.822,9.895 4.813 C 9.506 4.807,9.133 4.812,9.067 4.823 M5.467 8.423 C 5.214 8.465,4.998 8.623,4.888 8.848 L 4.813 9.000 4.813 9.800 C 4.813 10.710,4.819 10.739,5.040 10.960 C 5.261 11.181,5.290 11.187,6.200 11.187 C 7.110 11.187,7.139 11.181,7.360 10.960 C 7.581 10.739,7.587 10.710,7.587 9.800 C 7.587 9.033,7.584 8.995,7.528 8.875 C 7.453 8.714,7.299 8.561,7.134 8.483 C 7.011 8.425,6.968 8.422,6.295 8.413 C 5.906 8.407,5.533 8.412,5.467 8.423 M8.880 8.424 C 8.738 8.444,8.598 8.543,8.490 8.699 L 8.413 8.809 8.413 9.402 L 8.413 9.995 8.496 10.108 C 8.541 10.171,8.627 10.258,8.688 10.302 C 8.780 10.368,8.830 10.383,8.996 10.394 L 9.193 10.407 9.206 10.604 C 9.217 10.770,9.232 10.820,9.298 10.912 C 9.342 10.973,9.429 11.059,9.492 11.104 L 9.605 11.187 10.200 11.187 L 10.795 11.187 10.908 11.104 C 10.971 11.059,11.059 10.971,11.104 10.908 L 11.187 10.795 11.187 10.200 L 11.187 9.605 11.103 9.489 C 10.977 9.313,10.812 9.222,10.590 9.206 L 10.407 9.193 10.394 8.997 C 10.384 8.840,10.367 8.780,10.309 8.696 C 10.201 8.541,10.048 8.446,9.871 8.423 C 9.687 8.400,9.045 8.401,8.880 8.424 M2.227 9.623 C 1.986 9.687,1.789 9.842,1.688 10.048 L 1.613 10.200 1.605 11.279 L 1.597 12.358 1.693 12.654 C 1.962 13.485,2.515 14.038,3.345 14.307 L 3.641 14.402 4.720 14.394 C 5.787 14.387,5.802 14.386,5.925 14.325 C 6.528 14.028,6.553 13.220,5.969 12.906 L 5.800 12.815 4.787 12.801 L 3.773 12.787 3.647 12.712 C 3.485 12.617,3.350 12.477,3.279 12.331 C 3.226 12.222,3.222 12.153,3.202 11.208 C 3.178 10.069,3.180 10.077,2.968 9.861 C 2.774 9.664,2.458 9.563,2.227 9.623 M13.425 9.624 C 13.172 9.689,12.972 9.853,12.872 10.079 C 12.822 10.190,12.816 10.281,12.798 11.208 C 12.778 12.154,12.774 12.222,12.721 12.331 C 12.650 12.477,12.515 12.617,12.353 12.712 L 12.227 12.787 11.213 12.802 C 10.213 12.816,10.198 12.817,10.068 12.880 C 9.900 12.962,9.744 13.117,9.671 13.276 C 9.590 13.454,9.593 13.754,9.677 13.926 C 9.756 14.087,9.914 14.246,10.075 14.325 C 10.198 14.386,10.213 14.387,11.280 14.394 L 12.359 14.402 12.655 14.307 C 13.477 14.041,14.020 13.504,14.298 12.681 L 14.398 12.387 14.399 11.343 C 14.400 10.433,14.394 10.282,14.355 10.160 C 14.296 9.977,14.099 9.759,13.924 9.684 C 13.775 9.620,13.546 9.592,13.425 9.624 " fill="#1A1C1F" stroke="none" fill-rule="evenodd"></path></svg>