<svg width="24" height="24" viewBox="0 0 24 24" fill="none" xmlns="http://www.w3.org/2000/svg"><path d="M5.280 3.037 C 4.631 3.083,4.159 3.315,3.688 3.818 C 3.399 4.126,3.237 4.404,3.114 4.800 C 3.021 5.097,3.020 5.118,3.020 7.040 C 3.020 8.828,3.026 8.997,3.095 9.200 C 3.234 9.610,3.412 9.892,3.740 10.223 C 4.081 10.568,4.341 10.737,4.760 10.886 C 5.018 10.978,5.032 10.979,7.000 10.979 C 8.968 10.979,8.982 10.978,9.240 10.886 C 9.650 10.740,9.917 10.569,10.243 10.243 C 10.569 9.916,10.740 9.650,10.886 9.240 C 10.978 8.982,10.978 8.967,10.978 7.000 C 10.978 5.033,10.978 5.018,10.886 4.760 C 10.740 4.350,10.569 4.084,10.243 3.757 C 9.916 3.431,9.639 3.253,9.260 3.127 C 9.040 3.053,8.882 3.045,7.360 3.027 C 6.447 3.016,5.511 3.021,5.280 3.037 M15.280 3.037 C 14.631 3.083,14.159 3.315,13.688 3.818 C 13.399 4.126,13.237 4.404,13.114 4.800 C 13.021 5.097,13.020 5.118,13.020 7.040 C 13.020 8.828,13.026 8.997,13.095 9.200 C 13.234 9.610,13.412 9.892,13.740 10.223 C 14.081 10.568,14.341 10.737,14.760 10.886 C 15.018 10.978,15.032 10.979,17.000 10.979 C 18.968 10.979,18.982 10.978,19.240 10.886 C 19.650 10.740,19.917 10.569,20.243 10.243 C 20.569 9.916,20.740 9.650,20.886 9.240 C 20.978 8.982,20.978 8.967,20.978 7.000 C 20.978 5.033,20.978 5.018,20.886 4.760 C 20.740 4.350,20.569 4.084,20.243 3.757 C 19.916 3.431,19.639 3.253,19.260 3.127 C 19.040 3.053,18.882 3.045,17.360 3.027 C 16.447 3.016,15.511 3.021,15.280 3.037 M8.750 5.071 C 8.800 5.100,8.872 5.171,8.910 5.230 C 8.974 5.327,8.980 5.483,8.980 6.998 L 8.980 8.660 8.887 8.790 C 8.836 8.861,8.746 8.933,8.687 8.950 C 8.547 8.989,5.453 8.989,5.313 8.950 C 5.254 8.933,5.164 8.861,5.113 8.790 C 5.021 8.661,5.020 8.648,5.007 7.300 C 5.000 6.552,5.006 5.791,5.021 5.608 C 5.052 5.216,5.133 5.088,5.382 5.038 C 5.469 5.021,6.242 5.010,7.100 5.013 C 8.287 5.018,8.682 5.032,8.750 5.071 M18.750 5.071 C 18.800 5.100,18.872 5.171,18.910 5.230 C 18.974 5.327,18.980 5.483,18.980 6.998 L 18.980 8.660 18.887 8.790 C 18.836 8.861,18.746 8.933,18.687 8.950 C 18.547 8.989,15.453 8.989,15.313 8.950 C 15.254 8.933,15.164 8.861,15.113 8.790 C 15.021 8.661,15.020 8.648,15.007 7.300 C 15.000 6.552,15.006 5.791,15.021 5.608 C 15.052 5.216,15.133 5.088,15.382 5.038 C 15.469 5.021,16.242 5.010,17.100 5.013 C 18.287 5.018,18.682 5.032,18.750 5.071 M5.280 13.037 C 4.631 13.083,4.159 13.315,3.688 13.818 C 3.399 14.126,3.237 14.404,3.114 14.800 C 3.021 15.097,3.020 15.118,3.020 17.040 C 3.020 18.828,3.026 18.997,3.095 19.200 C 3.234 19.610,3.412 19.892,3.740 20.223 C 4.081 20.568,4.341 20.737,4.760 20.886 C 5.018 20.978,5.032 20.979,7.000 20.979 C 8.968 20.979,8.982 20.978,9.240 20.886 C 9.650 20.740,9.917 20.569,10.243 20.243 C 10.569 19.916,10.740 19.650,10.886 19.240 C 10.978 18.982,10.978 18.967,10.978 17.000 C 10.978 15.033,10.978 15.018,10.886 14.760 C 10.740 14.350,10.569 14.084,10.243 13.757 C 9.916 13.431,9.639 13.253,9.260 13.127 C 9.040 13.053,8.882 13.045,7.360 13.027 C 6.447 13.016,5.511 13.021,5.280 13.037 M14.073 13.034 C 13.684 13.058,13.631 13.071,13.473 13.181 C 13.212 13.364,13.052 13.628,13.020 13.930 C 13.005 14.067,12.999 14.873,13.007 15.720 C 13.022 17.441,13.010 17.370,13.320 17.680 C 13.621 17.981,13.608 17.979,14.866 17.993 L 15.992 18.006 16.006 19.156 L 16.020 20.306 16.141 20.503 C 16.208 20.612,16.346 20.756,16.449 20.826 C 16.629 20.947,16.659 20.953,17.185 20.981 C 17.487 20.997,18.315 21.002,19.025 20.992 L 20.315 20.974 20.508 20.856 C 20.613 20.791,20.756 20.655,20.824 20.554 C 20.938 20.384,20.949 20.336,20.973 19.915 C 20.988 19.665,21.000 18.852,21.000 18.108 C 21.000 16.594,21.001 16.600,20.698 16.305 C 20.415 16.031,20.384 16.025,19.133 16.007 L 18.005 15.991 17.993 14.866 L 17.980 13.740 17.871 13.554 C 17.758 13.362,17.588 13.197,17.404 13.102 C 17.323 13.060,16.976 13.043,15.899 13.028 C 15.130 13.017,14.308 13.020,14.073 13.034 M8.750 15.071 C 8.800 15.100,8.872 15.171,8.910 15.230 C 8.974 15.327,8.980 15.483,8.980 16.998 L 8.980 18.660 8.887 18.790 C 8.836 18.861,8.746 18.933,8.687 18.950 C 8.547 18.989,5.453 18.989,5.313 18.950 C 5.254 18.933,5.164 18.861,5.113 18.790 C 5.021 18.661,5.020 18.648,5.007 17.300 C 5.000 16.552,5.006 15.791,5.021 15.608 C 5.052 15.216,5.133 15.088,5.382 15.038 C 5.469 15.021,6.242 15.010,7.100 15.013 C 8.287 15.018,8.682 15.032,8.750 15.071 " fill="#1A1C1F" stroke="none" fill-rule="evenodd"></path></svg>