<svg xmlns="http://www.w3.org/2000/svg" width="32" height="32" fill="none"><path fill="#1A1C1F" fill-rule="evenodd" d="M5.545 3.039c-1.201.155-2.222 1.115-2.48 2.335-.112.527-.112 6.752 0 7.279a2.97 2.97 0 0 0 2.147 2.25c.476.123 7.081.126 7.563.003a2.96 2.96 0 0 0 2.131-2.131c.12-.474.12-7.051 0-7.524-.297-1.163-1.284-2.062-2.426-2.209-.455-.059-6.482-.062-6.935-.003m14.027-.002c-1.065.143-1.97.867-2.388 1.909l-.144.361-.015 3.542c-.011 2.454.003 3.631.044 3.829.212 1.023 1.119 1.953 2.17 2.225.484.125 7.064.125 7.549 0a2.97 2.97 0 0 0 2.147-2.25c.112-.527.112-6.752 0-7.279a3.09 3.09 0 0 0-1.998-2.24c-.345-.115-.403-.117-3.71-.127-1.848-.005-3.493.008-3.655.03m-7.109 2.08a.93.93 0 0 1 .373.328l.151.227v6.682l-.147.222c-.081.122-.242.27-.358.33-.205.104-.306.107-3.481.107-3.668 0-3.461.022-3.8-.397l-.161-.199V5.61l.161-.199c.339-.419.133-.398 3.785-.396 3.081.001 3.266.006 3.477.102m14.132.087c.411.329.391.135.392 3.793q0 3.264-.057 3.413a1.08 1.08 0 0 1-.515.53c-.139.06-.779.073-3.41.073-3.148 0-3.244-.003-3.462-.108a1.1 1.1 0 0 1-.377-.334l-.153-.224V5.672l.143-.215c.083-.125.238-.263.373-.33.23-.114.244-.115 3.546-.101l3.315.014zM7.71 7.064c-.297.109-.459.243-.586.486-.1.19-.112.32-.128 1.357-.019 1.271.008 1.441.272 1.742.281.32.373.338 1.758.338 1.396 0 1.463-.015 1.773-.397l.161-.2.016-1.235c.01-.679.002-1.314-.015-1.409-.038-.204-.293-.513-.529-.642-.232-.127-2.399-.158-2.722-.04m13.977-.001c-.246.09-.478.302-.591.539-.12.254-.121 2.497-.001 2.784.111.265.225.384.478.5.188.086.365.098 1.445.099 1.187.002 1.24-.003 1.466-.122.177-.094.272-.195.385-.413l.151-.289-.017-1.236-.016-1.236-.16-.226c-.293-.415-.418-.448-1.76-.463-.904-.009-1.221.005-1.38.063M5.268 17.096a2.9 2.9 0 0 0-1.272.702c-.398.369-.622.703-.829 1.242l-.154.4-.015 3.413c-.018 3.778-.013 3.843.321 4.518.234.473.862 1.092 1.335 1.317.668.317.75.323 4.359.323 2.641 0 3.35-.014 3.64-.076a2.97 2.97 0 0 0 2.25-2.147c.125-.485.125-7.065 0-7.549-.137-.53-.377-.938-.797-1.359-.427-.426-.947-.716-1.46-.813-.177-.033-1.589-.052-3.68-.049-2.698.003-3.455.019-3.698.078m13.292-.034c-.54.17-1.128.674-1.376 1.178l-.144.293v3.947l.18.332c.224.413.657.829 1.06 1.018l.307.143 1.693.016 1.693.017v1.483c0 1.554.034 1.898.224 2.296.181.378.755.92 1.136 1.073.317.127.339.129 2.188.129h1.868l.35-.173a2.45 2.45 0 0 0 1.075-1.075l.173-.35v-1.948c0-1.905-.003-1.954-.122-2.249a1.81 1.81 0 0 0-.907-.963l-.355-.176-1.799-.016-1.799-.016-.016-1.717-.016-1.717-.143-.307c-.189-.403-.605-.836-1.018-1.06l-.332-.18-1.893-.01c-1.042-.006-1.954.009-2.027.032m-6.016 2.085c.109.073.253.229.32.346l.123.214v3.253c0 1.789-.018 3.317-.04 3.396-.058.204-.3.473-.503.558-.14.059-.802.073-3.442.073-3.663-.001-3.469.019-3.798-.392l-.164-.205-.015-3.309c-.014-3.272-.013-3.312.098-3.541a.92.92 0 0 1 .603-.504c.092-.022 1.619-.036 3.394-.032l3.227.009zm9.327-.008c.094.116.102.224.102 1.324 0 .756-.021 1.237-.057 1.305-.115.215-.355.259-1.426.259-1.109 0-1.305-.037-1.425-.27-.108-.208-.111-2.305-.004-2.498.142-.256.238-.273 1.517-.259 1.181.013 1.193.014 1.293.139M7.6 21.102a1.12 1.12 0 0 0-.536.578c-.071.184-.082.424-.068 1.418.02 1.359.038 1.428.464 1.728l.229.161 1.236.016 1.236.017.289-.151c.218-.113.319-.208.413-.385.119-.225.124-.28.124-1.454 0-1.505-.052-1.683-.56-1.916-.188-.087-.362-.098-1.44-.097-1.013 0-1.255.015-1.387.085m19.121 2.979a.56.56 0 0 1 .211.183c.085.16.069 2.512-.018 2.627-.129.17-.351.202-1.399.202-1.104 0-1.341-.042-1.457-.258-.089-.166-.074-2.399.016-2.562.137-.247.253-.269 1.409-.271.864-.002 1.114.014 1.238.079"/></svg>