<svg xmlns="http://www.w3.org/2000/svg" width="32" height="32" fill="none"><g clip-path="url(#a)"><path fill="#1A1C1F" fill-rule="evenodd" d="M12.063 17C13.687 17 15 18.344 15 19.969v6.093A2.934 2.934 0 0 1 12.063 29H5.969C4.344 29 3 27.688 3 26.063v-6.094C3.031 18.344 4.344 17 5.969 17zm0 2H5.969a.974.974 0 0 0-.969.969v6.062c0 .532.438.969.969.969h6.094c.53 0 .937-.437.937-.969V19.97c0-.532-.406-.969-.937-.969m0-16C13.695 3 15 4.335 15 5.969v6.094A2.934 2.934 0 0 1 12.063 15H5.937A2.934 2.934 0 0 1 3 12.063V5.969C3 4.344 4.313 3 5.938 3zm0 2H5.969A.974.974 0 0 0 5 5.969v6.094c0 .53.438.937.969.968h6.094c.53-.031.937-.437.937-.969V5.97c0-.532-.406-.938-.937-.969M22 17c1 0 2 1 2 2v3h3c1 0 2 .625 2 2v3c0 1-1 2-2 2h-3c-1 0-2-1-2-2v-3h-3c-1 0-2-1-2-2v-3c0-1 1-2 2-2zm4.5 7h-2c-.25 0-.5.219-.5.5v2.125c0 .25.219.438.438.438h2.156c.218 0 .406-.188.406-.438V24.5c0-.25-.25-.5-.5-.5m-4.906-5h-2.157a.47.47 0 0 0-.437.438v2.125c0 .25.219.437.438.437H21.5c.281 0 .5-.219.5-.5v-2.062c0-.22-.187-.438-.406-.438m4.468-16C27.688 3 29 4.344 29 5.969v6.094A2.934 2.934 0 0 1 26.063 15h-6.094C18.344 15 17 13.688 17 12.063V5.969A2.99 2.99 0 0 1 19.969 3zm0 2H19.97a.974.974 0 0 0-.969.969v6.094c0 .53.438.937.969.968h6.093c.532-.031.938-.437.938-.969V5.97c0-.532-.406-.938-.937-.969M7 24v-2c0-.531.469-1 1-1h2c.563 0 1 .469 1 1v2c0 .563-.437 1-1 1H8c-.531 0-1-.437-1-1m0-14V8c0-.531.469-1 1-1h2c.563 0 1 .469 1 1v2c0 .563-.437 1-1 1H8c-.531 0-1-.437-1-1m14 0V8c0-.531.469-1 1-1h2c.563 0 1 .469 1 1v2c0 .563-.437 1-1 1h-2c-.531 0-1-.437-1-1" clip-rule="evenodd"/></g><defs><clipPath id="a"><path fill="#fff" d="M0 0h32v32H0z"/></clipPath></defs></svg>