<svg xmlns="http://www.w3.org/2000/svg" width="14" height="14" fill="none"><g clip-path="url(#a)"><path fill="#1A1C1F" fill-rule="evenodd" d="M11.9 8.4a.7.7 0 0 1 .7.7v1.4c0 1.158-.942 2.1-2.1 2.1H9.1a.7.7 0 1 1 0-1.4h1.4a.7.7 0 0 0 .7-.7V9.1a.7.7 0 0 1 .7-.7m-.7-3.5V3.5a.7.7 0 0 0-.7-.7H9.1a.7.7 0 1 1 0-1.4h1.4c1.158 0 2.1.942 2.1 2.1v1.4a.7.7 0 1 1-1.4 0M2.8 9.1v1.4a.7.7 0 0 0 .7.7h1.4a.7.7 0 1 1 0 1.4H3.5c-1.158 0-2.1-.942-2.1-2.1V9.1a.7.7 0 1 1 1.4 0m-.7-3.5a.7.7 0 0 1-.7-.7V3.5c0-1.158.942-2.1 2.1-2.1h1.4a.7.7 0 1 1 0 1.4H3.5a.7.7 0 0 0-.7.7v1.4a.7.7 0 0 1-.7.7m7.175 2.45H9.1v-.175a.525.525 0 0 0-.525-.525h-.7a.525.525 0 0 0-.525.525v.7c0 .29.235.525.525.525h.175v.175c0 .29.235.525.525.525h.7c.29 0 .525-.235.525-.525v-.7a.525.525 0 0 0-.525-.525M6.65 9.1V8.05a.7.7 0 0 0-.7-.7H4.9a.7.7 0 0 0-.7.7V9.1a.7.7 0 0 0 .7.7h1.05a.7.7 0 0 0 .7-.7M9.8 5.95V4.9a.7.7 0 0 0-.7-.7H8.05a.7.7 0 0 0-.7.7v1.05a.7.7 0 0 0 .7.7H9.1a.7.7 0 0 0 .7-.7m-3.15 0V4.9a.7.7 0 0 0-.7-.7H4.9a.7.7 0 0 0-.7.7v1.05a.7.7 0 0 0 .7.7h1.05a.7.7 0 0 0 .7-.7" clip-rule="evenodd"/></g><defs><clipPath id="a"><path fill="#fff" d="M0 0h14v14H0z"/></clipPath></defs></svg>