<svg width="12" height="12" viewBox="0 0 12 12" fill="none" xmlns="http://www.w3.org/2000/svg"><path d="M2.920 1.220 C 2.652 1.233,2.587 1.243,2.436 1.294 C 2.197 1.377,1.981 1.504,1.806 1.668 C 1.530 1.926,1.372 2.177,1.260 2.538 L 1.198 2.736 1.204 3.543 C 1.210 4.340,1.211 4.351,1.256 4.444 C 1.477 4.891,2.063 4.916,2.320 4.488 L 2.390 4.372 2.402 3.608 C 2.413 2.878,2.416 2.841,2.458 2.755 C 2.515 2.635,2.619 2.531,2.746 2.466 L 2.850 2.412 3.611 2.401 L 4.372 2.390 4.489 2.320 C 4.909 2.069,4.895 1.489,4.464 1.273 C 4.373 1.227,4.350 1.225,3.800 1.215 C 3.486 1.209,3.091 1.212,2.920 1.220 M7.700 1.217 C 7.355 1.275,7.130 1.629,7.227 1.963 C 7.270 2.109,7.369 2.235,7.512 2.320 L 7.628 2.390 8.392 2.402 C 9.122 2.413,9.159 2.416,9.245 2.458 C 9.365 2.515,9.469 2.619,9.534 2.746 L 9.588 2.850 9.599 3.611 L 9.610 4.372 9.680 4.488 C 9.937 4.916,10.523 4.891,10.744 4.444 C 10.789 4.351,10.790 4.340,10.796 3.544 L 10.802 2.738 10.749 2.564 C 10.687 2.358,10.571 2.109,10.472 1.970 C 10.291 1.718,10.008 1.485,9.728 1.359 C 9.447 1.232,9.380 1.224,8.547 1.212 C 8.131 1.207,7.750 1.209,7.700 1.217 M4.100 3.617 C 3.908 3.649,3.734 3.781,3.653 3.957 C 3.612 4.046,3.610 4.078,3.610 4.650 C 3.610 5.332,3.614 5.354,3.780 5.520 C 3.946 5.686,3.968 5.690,4.650 5.690 C 5.332 5.690,5.354 5.686,5.520 5.520 C 5.686 5.354,5.690 5.332,5.690 4.650 C 5.690 4.058,5.689 4.049,5.642 3.953 C 5.581 3.829,5.486 3.734,5.357 3.668 C 5.256 3.617,5.248 3.616,4.722 3.609 C 4.430 3.606,4.149 3.609,4.100 3.617 M6.800 3.617 C 6.608 3.649,6.434 3.781,6.353 3.957 C 6.312 4.046,6.310 4.078,6.310 4.650 C 6.310 5.332,6.314 5.354,6.480 5.520 C 6.646 5.686,6.668 5.690,7.350 5.690 C 8.032 5.690,8.054 5.686,8.220 5.520 C 8.386 5.354,8.390 5.332,8.390 4.650 C 8.390 4.058,8.389 4.049,8.342 3.953 C 8.281 3.829,8.186 3.734,8.057 3.668 C 7.956 3.617,7.948 3.616,7.422 3.609 C 7.130 3.606,6.850 3.609,6.800 3.617 M4.100 6.317 C 3.908 6.349,3.734 6.481,3.653 6.657 C 3.612 6.746,3.610 6.778,3.610 7.350 C 3.610 8.032,3.614 8.054,3.780 8.220 C 3.946 8.386,3.968 8.390,4.650 8.390 C 5.332 8.390,5.354 8.386,5.520 8.220 C 5.686 8.054,5.690 8.032,5.690 7.350 C 5.690 6.758,5.689 6.749,5.642 6.653 C 5.581 6.529,5.486 6.434,5.357 6.368 C 5.256 6.317,5.248 6.316,4.722 6.309 C 4.430 6.306,4.149 6.309,4.100 6.317 M6.688 6.318 C 6.563 6.333,6.449 6.405,6.370 6.520 L 6.310 6.607 6.310 7.051 L 6.310 7.496 6.372 7.581 C 6.406 7.628,6.471 7.693,6.516 7.726 C 6.585 7.776,6.622 7.787,6.747 7.795 L 6.895 7.805 6.905 7.953 C 6.913 8.078,6.924 8.115,6.974 8.184 C 7.007 8.229,7.072 8.294,7.119 8.328 L 7.204 8.390 7.650 8.390 L 8.096 8.390 8.181 8.328 C 8.228 8.294,8.294 8.228,8.328 8.181 L 8.390 8.096 8.390 7.651 L 8.390 7.207 8.333 7.125 C 8.231 6.977,8.081 6.902,7.888 6.900 L 7.805 6.900 7.796 6.750 C 7.788 6.630,7.776 6.586,7.731 6.522 C 7.651 6.406,7.536 6.334,7.403 6.318 C 7.267 6.300,6.830 6.301,6.688 6.318 M1.667 7.218 C 1.555 7.247,1.392 7.352,1.326 7.438 C 1.206 7.594,1.200 7.643,1.201 8.509 L 1.201 9.290 1.276 9.511 C 1.485 10.128,1.892 10.531,2.509 10.730 L 2.731 10.802 3.540 10.796 C 4.340 10.790,4.351 10.789,4.444 10.744 C 4.896 10.521,4.915 9.915,4.477 9.679 L 4.350 9.611 3.590 9.601 L 2.830 9.590 2.735 9.534 C 2.613 9.463,2.512 9.358,2.459 9.248 C 2.419 9.165,2.416 9.117,2.402 8.405 C 2.385 7.556,2.383 7.546,2.228 7.393 C 2.086 7.252,1.837 7.175,1.667 7.218 M10.070 7.218 C 9.889 7.265,9.743 7.379,9.668 7.533 L 9.613 7.644 9.598 8.402 C 9.584 9.117,9.581 9.165,9.541 9.248 C 9.488 9.358,9.387 9.463,9.265 9.534 L 9.170 9.590 8.410 9.601 L 7.650 9.611 7.523 9.679 C 7.084 9.915,7.103 10.521,7.556 10.744 C 7.649 10.789,7.660 10.790,8.460 10.796 L 9.269 10.802 9.491 10.730 C 10.108 10.531,10.515 10.128,10.724 9.511 L 10.799 9.290 10.799 8.507 C 10.800 7.825,10.796 7.711,10.766 7.620 C 10.722 7.483,10.574 7.320,10.443 7.263 C 10.332 7.215,10.159 7.194,10.070 7.218 " fill="#1A1C1F" stroke="none" fill-rule="evenodd"></path></svg>