<svg xmlns="http://www.w3.org/2000/svg" width="16" height="16" fill="none"><g clip-path="url(#a)"><path fill="#1A1C1F" fill-rule="evenodd" d="M13.6 9.6a.8.8 0 0 1 .8.8V12c0 1.323-1.077 2.4-2.4 2.4h-1.6a.8.8 0 1 1 0-1.6H12a.8.8 0 0 0 .8-.8v-1.6a.8.8 0 0 1 .8-.8m-.8-4V4a.8.8 0 0 0-.8-.8h-1.6a.8.8 0 1 1 0-1.6H12c1.323 0 2.4 1.077 2.4 2.4v1.6a.8.8 0 1 1-1.6 0m-9.6 4.8V12c0 .442.36.8.8.8h1.6a.8.8 0 1 1 0 1.6H4A2.403 2.403 0 0 1 1.6 12v-1.6a.8.8 0 1 1 1.6 0m-.8-4a.8.8 0 0 1-.8-.8V4c0-1.323 1.077-2.4 2.4-2.4h1.6a.8.8 0 1 1 0 1.6H4a.8.8 0 0 0-.8.8v1.6a.8.8 0 0 1-.8.8m8.2 2.8h-.2V9a.6.6 0 0 0-.6-.6H9a.6.6 0 0 0-.6.6v.8a.6.6 0 0 0 .6.6h.2v.2a.6.6 0 0 0 .6.6h.8a.6.6 0 0 0 .6-.6v-.8a.6.6 0 0 0-.6-.6m-3 1.2V9.2a.8.8 0 0 0-.8-.8H5.6a.8.8 0 0 0-.8.8v1.2a.8.8 0 0 0 .8.8h1.2a.8.8 0 0 0 .8-.8m3.6-3.6V5.6a.8.8 0 0 0-.8-.8H9.2a.8.8 0 0 0-.8.8v1.2a.8.8 0 0 0 .8.8h1.2a.8.8 0 0 0 .8-.8m-3.6 0V5.6a.8.8 0 0 0-.8-.8H5.6a.8.8 0 0 0-.8.8v1.2a.8.8 0 0 0 .8.8h1.2a.8.8 0 0 0 .8-.8" clip-rule="evenodd"/></g><defs><clipPath id="a"><path fill="#fff" d="M0 0h16v16H0z"/></clipPath></defs></svg>