<svg xmlns="http://www.w3.org/2000/svg" width="32" height="32" fill="none"><path fill="#1A1C1F" fill-rule="evenodd" d="M5.019 2.131c-1.087.267-2.125 1.109-2.6 2.109-.359.756-.408 1.065-.414 2.613-.006 1.559-.001 1.58.408 1.91.42.34 1.109.22 1.417-.245l.143-.216L4 6.909l.027-1.392.173-.351a2.22 2.22 0 0 1 1.015-.996c.301-.141.325-.144 1.696-.17l1.391-.027.216-.143c.462-.306.584-.998.25-1.412-.311-.383-.355-.392-1.941-.387-1.176.003-1.48.02-1.808.1m18.528-.02a1.6 1.6 0 0 0-.287.199c-.424.389-.335 1.186.169 1.52l.216.143L25.063 4l1.417.027.347.165c.44.209.772.541.981.981l.165.347.001 1.333c0 1.508.02 1.6.418 1.917.183.146.243.163.564.163.446 0 .732-.163.902-.516.103-.213.112-.334.123-1.59.013-1.581-.023-1.809-.414-2.6a4.07 4.07 0 0 0-2.737-2.124c-.53-.113-3.064-.107-3.283.008M8.96 7.045c-.632.124-1.384.691-1.674 1.264-.278.548-.299.739-.299 2.678 0 1.938.021 2.13.299 2.678.173.342.652.821 1.011 1.013.532.285.74.309 2.69.309s2.157-.024 2.689-.309c.347-.185.817-.655 1.002-1.002.285-.532.309-.739.309-2.689s-.024-2.158-.309-2.69c-.322-.603-1.042-1.132-1.712-1.257-.349-.065-3.668-.061-4.006.005m9.947.017c-.433.109-.769.298-1.129.634a2.53 2.53 0 0 0-.763 1.424c-.03.191-.054 1.031-.054 1.867s.024 1.676.054 1.866c.155.997.979 1.868 1.961 2.074.38.08 3.641.08 4.021 0 1.014-.213 1.827-1.098 1.962-2.134.068-.521.067-3.173-.001-3.643-.146-1.012-.967-1.892-1.961-2.103-.403-.086-3.736-.073-4.09.015m-6.078 2.082.131.131v1.686c0 1.106-.02 1.723-.058 1.794-.123.231-.325.258-1.915.258s-1.792-.027-1.916-.258c-.038-.071-.058-.688-.058-1.794V9.275l.131-.131.131-.131h3.423zm10.02.033.138.165v3.296l-.156.174-.156.175h-1.649c-1.773 0-1.86-.013-1.98-.275-.084-.185-.082-3.29.003-3.449.13-.245.143-.246 1.946-.248l1.716-.002zM8.702 17.118c-.832.303-1.415.933-1.638 1.769-.109.408-.11 3.786-.002 4.193a2.57 2.57 0 0 0 2.088 1.878c.48.069 3.193.069 3.674 0a2.48 2.48 0 0 0 1.454-.763c.653-.699.709-.949.709-3.19 0-1.079-.023-1.854-.06-2.029-.153-.729-.684-1.4-1.375-1.738l-.405-.198-2.08-.013c-1.945-.011-2.099-.005-2.365.091m8.816-.005c-.23.14-.438.403-.502.635-.076.272-.073 3.174.003 3.452.079.288.277.539.529.667.188.096.315.106 1.33.106H20v1.122c0 1.252.022 1.359.336 1.635.298.262.573.294 2.346.274 1.547-.017 1.56-.018 1.79-.15.143-.082.286-.225.373-.373l.142-.241v-1.733c0-1.956-.006-1.988-.418-2.317l-.205-.163-1.195-.017-1.196-.016v-1.119c0-.993-.011-1.142-.101-1.317-.115-.226-.227-.335-.469-.458-.148-.075-.415-.087-1.947-.086-1.636 0-1.789.008-1.938.099m-4.722 2.012.164.138v3.448l-.164.138-.164.138h-1.626c-1.656 0-1.774-.013-1.924-.209-.093-.121-.093-3.462 0-3.582.151-.195.253-.206 1.914-.208l1.636-.001zm-10.223 3.95c-.283.139-.477.403-.549.748-.106.51-.037 2.598.103 3.137.193.74.496 1.265 1.045 1.814 1.016 1.015 1.883 1.282 4.036 1.244 1.107-.02 1.265-.064 1.557-.431.337-.422.217-1.11-.247-1.417l-.216-.143L6.911 28l-1.391-.027-.347-.165a2.03 2.03 0 0 1-.981-.981l-.165-.347L4 25.067c-.028-1.493-.044-1.591-.303-1.825-.273-.247-.802-.326-1.124-.167m25.969.026c-.135.067-.29.204-.373.329l-.142.215-.029 1.391c-.026 1.285-.038 1.414-.15 1.697-.17.427-.569.848-1.011 1.066l-.354.174-1.419.027-1.419.027-.221.146a1.03 1.03 0 0 0-.365 1.23c.109.262.412.498.726.565.342.073 1.948.076 2.588.004 1.738-.195 3.053-1.327 3.498-3.012.093-.351.118-.639.141-1.627.02-.834.009-1.294-.036-1.51-.146-.701-.806-1.033-1.434-.722"/></svg>