<svg xmlns="http://www.w3.org/2000/svg" width="28" height="28" fill="none"><g clip-path="url(#a)"><path fill="#1A1C1F" fill-rule="evenodd" d="M10.555 14.875c1.422 0 2.57 1.176 2.57 2.598v5.332a2.567 2.567 0 0 1-2.57 2.57H5.223c-1.422 0-2.598-1.148-2.598-2.57v-5.332c.027-1.422 1.176-2.598 2.598-2.598zm0 1.75H5.223a.85.85 0 0 0-.848.848v5.304c0 .465.383.848.848.848h5.332c.465 0 .82-.383.82-.848v-5.304c0-.465-.355-.848-.82-.848m0-14c1.428 0 2.57 1.168 2.57 2.598v5.332a2.567 2.567 0 0 1-2.57 2.57h-5.36a2.567 2.567 0 0 1-2.57-2.57V5.223c0-1.422 1.148-2.598 2.57-2.598zm0 1.75H5.223a.85.85 0 0 0-.848.848v5.332c0 .465.383.82.848.847h5.332c.465-.027.82-.382.82-.847V5.223c0-.465-.355-.82-.82-.848m8.695 10.5c.875 0 1.75.875 1.75 1.75v2.625h2.625c.875 0 1.75.547 1.75 1.75v2.625c0 .875-.875 1.75-1.75 1.75H21c-.875 0-1.75-.875-1.75-1.75V21h-2.625c-.875 0-1.75-.875-1.75-1.75v-2.625c0-.875.875-1.75 1.75-1.75zM23.188 21h-1.75a.45.45 0 0 0-.438.438v1.859c0 .219.191.383.383.383h1.887c.19 0 .355-.164.355-.383v-1.86a.47.47 0 0 0-.437-.437m-4.293-4.375h-1.887a.41.41 0 0 0-.383.383v1.86c0 .218.191.382.383.382h1.805a.43.43 0 0 0 .437-.437v-1.805c0-.192-.164-.383-.355-.383m3.91-14c1.422 0 2.57 1.176 2.57 2.598v5.332a2.567 2.567 0 0 1-2.57 2.57h-5.332c-1.422 0-2.598-1.148-2.598-2.57V5.223a2.614 2.614 0 0 1 2.598-2.598zm0 1.75h-5.332a.85.85 0 0 0-.848.848v5.332c0 .465.383.82.848.847h5.332c.465-.027.82-.382.82-.847V5.223c0-.465-.355-.82-.82-.848M6.125 21v-1.75A.9.9 0 0 1 7 18.375h1.75c.492 0 .875.41.875.875V21a.864.864 0 0 1-.875.875H7A.88.88 0 0 1 6.125 21m0-12.25V7A.9.9 0 0 1 7 6.125h1.75c.492 0 .875.41.875.875v1.75a.864.864 0 0 1-.875.875H7a.88.88 0 0 1-.875-.875m12.25 0V7a.9.9 0 0 1 .875-.875H21c.492 0 .875.41.875.875v1.75a.864.864 0 0 1-.875.875h-1.75a.88.88 0 0 1-.875-.875" clip-rule="evenodd"/></g><defs><clipPath id="a"><path fill="#fff" d="M0 0h28v28H0z"/></clipPath></defs></svg>