<svg xmlns="http://www.w3.org/2000/svg" width="28" height="28" fill="none"><g clip-path="url(#a)"><path fill="#1A1C1F" fill-rule="evenodd" d="M11.362 19.675a.43.43 0 0 1-.438.437H8.3a.43.43 0 0 1-.437-.437V17.05c0-.246.191-.438.437-.438h2.625c.246 0 .438.192.438.438zm-.438-4.813H8.3a2.194 2.194 0 0 0-2.187 2.188v2.625c0 1.203.984 2.187 2.187 2.187h2.625a2.194 2.194 0 0 0 2.188-2.187V17.05a2.194 2.194 0 0 0-2.188-2.188m.438-3.937a.43.43 0 0 1-.438.437H8.3a.43.43 0 0 1-.437-.437V8.3c0-.246.191-.438.437-.438h2.625c.246 0 .438.192.438.438zm-.438-4.813H8.3A2.194 2.194 0 0 0 6.112 8.3v2.625c0 1.203.984 2.187 2.187 2.187h2.625a2.194 2.194 0 0 0 2.188-2.187V8.3a2.194 2.194 0 0 0-2.188-2.188m4.813 8.75a.9.9 0 0 0-.875.875v2.625a.9.9 0 0 0 .875.875h1.75v1.75c0 .493.383.875.875.875h2.625a.863.863 0 0 0 .875-.875v-2.625a.864.864 0 0 0-.875-.875h-1.75v-1.75a.9.9 0 0 0-.875-.875zm4.375-3.937a.43.43 0 0 1-.438.437H17.05a.43.43 0 0 1-.437-.437V8.3c0-.246.192-.438.437-.438h2.625c.246 0 .438.192.438.438zm-.438-4.813H17.05A2.194 2.194 0 0 0 14.862 8.3v2.625c0 1.203.984 2.187 2.187 2.187h2.625a2.194 2.194 0 0 0 2.188-2.187V8.3a2.194 2.194 0 0 0-2.188-2.188m1.302-4.36a.876.876 0 0 0 0 1.75q.887-.003 1.774 0a1.74 1.74 0 0 1 1.75 1.75q-.015.855-.024 1.713a.89.89 0 0 0 .862.887.875.875 0 0 0 .887-.862q.016-.863.025-1.726c.022-1.967-1.625-3.512-3.5-3.512q-.887-.003-1.774 0m-15.724 0a3.49 3.49 0 0 0-3.5 3.5q-.004.873 0 1.737a.875.875 0 0 0 1.75-.013q-.003-.863 0-1.725c.002-1 .827-1.75 1.75-1.75q.863.003 1.724 0a.886.886 0 0 0 .875-.875.875.875 0 0 0-.875-.875zm-3.5 19.221q-.003.887 0 1.776a3.507 3.507 0 0 0 3.5 3.5h1.724a.88.88 0 0 0 .875-.875.875.875 0 0 0-.875-.875H5.252a1.74 1.74 0 0 1-1.75-1.75v-1.776a.87.87 0 0 0-.875-.875.875.875 0 0 0-.875.875m23.621-.874c.45 0 .874.323.875.875q.005.887 0 1.775a3.49 3.49 0 0 1-3.5 3.5h-1.774a.875.875 0 0 1-.875-.875c0-.448.369-.874.875-.875a292 292 0 0 1 1.774 0c.923 0 1.749-.769 1.75-1.75q.003-.887 0-1.775c0-.483.392-.875.875-.875" clip-rule="evenodd"/></g><defs><clipPath id="a"><path fill="#fff" d="M0 0h28v28H0z"/></clipPath></defs></svg>