<svg xmlns="http://www.w3.org/2000/svg" width="20" height="20" fill="none"><g clip-path="url(#a)"><path fill="#1A1C1F" fill-rule="evenodd" d="M17 12a1 1 0 0 1 1 1v2c0 1.654-1.346 3-3 3h-2a1 1 0 1 1 0-2h2c.551 0 1-.448 1-1v-2a1 1 0 0 1 1-1m-1-5V5c0-.552-.449-1-1-1h-2a1 1 0 1 1 0-2h2c1.654 0 3 1.346 3 3v2a1 1 0 1 1-2 0M4 13v2c0 .552.449 1 1 1h2a1 1 0 1 1 0 2H5c-1.654 0-3-1.346-3-3v-2a1 1 0 1 1 2 0M3 8a1 1 0 0 1-1-1V5c0-1.654 1.346-3 3-3h2a1 1 0 1 1 0 2H5c-.551 0-1 .448-1 1v2a1 1 0 0 1-1 1m10.25 3.5H13v-.25a.75.75 0 0 0-.75-.75h-1a.75.75 0 0 0-.75.75v1c0 .414.336.75.75.75h.25v.25c0 .414.336.75.75.75h1a.75.75 0 0 0 .75-.75v-1a.75.75 0 0 0-.75-.75M9.5 13v-1.5a1 1 0 0 0-1-1H7a1 1 0 0 0-1 1V13a1 1 0 0 0 1 1h1.5a1 1 0 0 0 1-1M14 8.5V7a1 1 0 0 0-1-1h-1.5a1 1 0 0 0-1 1v1.5a1 1 0 0 0 1 1H13a1 1 0 0 0 1-1m-4.5 0V7a1 1 0 0 0-1-1H7a1 1 0 0 0-1 1v1.5a1 1 0 0 0 1 1h1.5a1 1 0 0 0 1-1" clip-rule="evenodd"/></g><defs><clipPath id="a"><path fill="#fff" d="M0 0h20v20H0z"/></clipPath></defs></svg>