<svg width="28" height="28" viewBox="0 0 28 28" fill="none" xmlns="http://www.w3.org/2000/svg"><path d="M4.689 1.821 C 3.809 1.914,2.754 2.628,2.244 3.476 C 2.156 3.622,2.023 3.913,1.948 4.122 C 1.827 4.459,1.807 4.600,1.767 5.343 C 1.721 6.210,1.745 7.055,1.824 7.307 C 1.910 7.585,2.296 7.841,2.624 7.839 C 2.947 7.837,3.415 7.497,3.474 7.221 C 3.487 7.164,3.504 6.602,3.512 5.973 L 3.527 4.830 3.681 4.531 C 3.870 4.165,4.205 3.830,4.553 3.660 C 4.811 3.533,4.822 3.532,5.965 3.514 C 6.598 3.504,7.164 3.485,7.221 3.474 C 7.379 3.441,7.658 3.174,7.753 2.964 C 7.867 2.713,7.861 2.488,7.735 2.241 C 7.603 1.982,7.440 1.863,7.155 1.816 C 6.877 1.770,5.135 1.774,4.689 1.821 M20.837 1.814 C 20.708 1.832,20.558 1.872,20.503 1.902 C 20.202 2.070,20.048 2.492,20.157 2.854 C 20.222 3.072,20.481 3.375,20.662 3.446 C 20.737 3.475,21.281 3.501,21.980 3.509 L 23.170 3.523 23.432 3.652 C 23.783 3.825,24.069 4.085,24.267 4.414 L 24.430 4.686 24.459 5.878 C 24.475 6.536,24.512 7.158,24.542 7.266 C 24.607 7.502,24.896 7.770,25.136 7.815 C 25.409 7.866,25.790 7.761,25.965 7.585 C 26.196 7.354,26.227 7.153,26.226 5.871 C 26.225 4.576,26.192 4.359,25.900 3.762 C 25.464 2.870,24.604 2.150,23.660 1.885 C 23.376 1.805,21.268 1.752,20.837 1.814 M8.096 6.159 C 7.733 6.186,7.629 6.214,7.338 6.367 C 6.700 6.702,6.264 7.284,6.162 7.933 C 6.100 8.327,6.100 10.900,6.162 11.293 C 6.233 11.750,6.431 12.111,6.808 12.475 C 7.176 12.830,7.485 12.992,7.933 13.064 C 8.327 13.127,10.900 13.127,11.293 13.064 C 11.742 12.992,12.051 12.830,12.418 12.475 C 12.796 12.111,12.993 11.750,13.065 11.293 C 13.127 10.900,13.127 8.327,13.065 7.933 C 12.995 7.486,12.794 7.114,12.441 6.774 C 12.034 6.384,11.643 6.202,11.110 6.155 C 10.628 6.113,8.682 6.115,8.096 6.159 M16.869 6.156 C 16.522 6.179,16.394 6.210,16.145 6.334 C 15.590 6.610,15.188 7.056,14.967 7.642 C 14.870 7.899,14.866 7.979,14.866 9.613 C 14.866 11.248,14.870 11.328,14.967 11.585 C 15.261 12.365,15.932 12.944,16.683 13.067 C 17.044 13.126,19.679 13.127,20.038 13.068 C 20.814 12.941,21.474 12.364,21.751 11.571 C 21.849 11.291,21.858 11.173,21.877 9.885 C 21.889 9.011,21.877 8.357,21.845 8.112 C 21.702 7.048,20.915 6.252,19.914 6.156 C 19.478 6.114,17.505 6.114,16.869 6.156 M11.232 7.988 C 11.340 8.089,11.340 8.092,11.340 9.358 C 11.340 10.056,11.326 10.757,11.310 10.917 C 11.262 11.376,11.311 11.363,9.613 11.363 C 7.940 11.363,7.967 11.370,7.917 10.958 C 7.901 10.822,7.887 10.123,7.887 9.406 C 7.887 8.132,7.889 8.100,7.988 7.995 L 8.090 7.887 9.607 7.887 C 11.100 7.887,11.126 7.888,11.232 7.988 M19.993 8.030 L 20.113 8.174 20.113 9.631 L 20.113 11.088 19.953 11.244 L 19.792 11.400 18.378 11.376 C 16.856 11.351,16.733 11.331,16.671 11.110 C 16.652 11.044,16.637 10.346,16.637 9.560 C 16.637 8.233,16.643 8.123,16.723 8.034 C 16.839 7.907,16.888 7.903,18.488 7.894 L 19.872 7.887 19.993 8.030 M7.863 14.925 C 7.072 15.034,6.281 15.865,6.158 16.716 C 6.102 17.101,6.103 19.630,6.159 20.016 C 6.240 20.579,6.641 21.194,7.128 21.505 C 7.250 21.582,7.487 21.695,7.653 21.755 C 7.950 21.861,7.996 21.863,9.613 21.862 C 11.167 21.861,11.288 21.855,11.555 21.764 C 12.369 21.487,12.961 20.786,13.065 19.973 C 13.125 19.514,13.126 17.042,13.067 16.683 C 12.961 16.035,12.490 15.417,11.858 15.099 L 11.519 14.928 9.808 14.910 C 8.867 14.901,7.992 14.907,7.863 14.925 M15.493 14.919 C 15.327 14.951,15.100 15.135,14.973 15.341 C 14.864 15.516,14.863 15.523,14.863 17.033 L 14.863 18.550 14.991 18.768 C 15.062 18.887,15.198 19.034,15.295 19.094 C 15.462 19.198,15.516 19.204,16.485 19.218 L 17.500 19.233 17.500 20.152 C 17.501 21.146,17.536 21.373,17.722 21.571 C 17.977 21.841,18.128 21.863,19.693 21.863 C 20.476 21.863,21.174 21.847,21.244 21.828 C 21.421 21.778,21.688 21.533,21.796 21.321 C 21.878 21.160,21.887 21.042,21.885 20.034 C 21.883 18.740,21.833 18.058,21.728 17.898 C 21.688 17.837,21.580 17.729,21.489 17.659 L 21.322 17.532 20.278 17.510 L 19.233 17.487 19.218 16.479 C 19.201 15.334,19.183 15.262,18.844 15.038 L 18.650 14.910 17.130 14.903 C 16.294 14.899,15.558 14.906,15.493 14.919 M11.196 16.734 L 11.340 16.855 11.340 18.363 L 11.340 19.872 11.193 19.995 L 11.046 20.119 9.584 20.105 C 8.134 20.090,8.122 20.089,8.016 19.984 C 7.910 19.877,7.910 19.876,7.910 18.367 C 7.910 16.961,7.916 16.850,7.997 16.761 C 8.109 16.636,8.184 16.630,9.738 16.621 L 11.053 16.613 11.196 16.734 M2.260 20.202 C 2.016 20.313,1.884 20.483,1.789 20.808 C 1.726 21.028,1.718 21.228,1.741 22.073 C 1.771 23.205,1.816 23.533,2.001 24.009 C 2.173 24.455,2.403 24.789,2.816 25.199 C 3.674 26.050,4.276 26.249,5.997 26.249 C 6.561 26.250,7.101 26.233,7.197 26.213 C 7.538 26.141,7.838 25.754,7.838 25.387 C 7.838 25.173,7.702 24.884,7.521 24.715 C 7.326 24.531,7.132 24.506,5.898 24.503 L 4.866 24.500 4.536 24.335 C 4.153 24.143,3.849 23.834,3.657 23.440 C 3.530 23.182,3.528 23.165,3.498 21.961 C 3.465 20.631,3.439 20.489,3.190 20.312 C 3.042 20.207,2.747 20.113,2.567 20.115 C 2.502 20.115,2.364 20.154,2.260 20.202 M25.060 20.188 C 24.970 20.227,24.837 20.315,24.764 20.384 C 24.518 20.618,24.500 20.697,24.498 21.569 C 24.495 22.720,24.447 23.221,24.315 23.494 C 24.176 23.780,23.799 24.156,23.471 24.337 L 23.217 24.477 21.955 24.500 C 20.859 24.520,20.676 24.534,20.568 24.605 C 20.358 24.743,20.218 24.925,20.158 25.137 C 20.041 25.557,20.205 25.937,20.594 26.145 C 20.782 26.246,20.836 26.250,21.957 26.248 C 23.224 26.247,23.587 26.195,24.186 25.930 C 24.963 25.586,25.653 24.867,25.967 24.074 C 26.197 23.493,26.230 23.271,26.259 22.143 C 26.289 20.978,26.252 20.697,26.033 20.418 C 25.821 20.149,25.386 20.046,25.060 20.188 " fill="#1A1C1F" stroke="none" fill-rule="evenodd"></path></svg>