<svg width="32" height="32" viewBox="0 0 32 32" fill="none" xmlns="http://www.w3.org/2000/svg"><path d="M5.387 2.078 C 4.966 2.122,4.726 2.197,4.247 2.435 C 3.291 2.909,2.586 3.703,2.226 4.711 C 2.085 5.105,2.065 5.247,2.017 6.196 C 1.953 7.463,2.009 8.305,2.171 8.524 C 2.546 9.030,3.243 9.091,3.690 8.656 C 3.798 8.551,3.911 8.402,3.940 8.326 C 3.970 8.249,4.003 7.587,4.013 6.853 L 4.032 5.520 4.189 5.202 C 4.389 4.799,4.809 4.376,5.198 4.185 C 5.500 4.038,5.506 4.037,6.817 4.016 C 7.541 4.004,8.187 3.983,8.252 3.970 C 8.433 3.932,8.752 3.627,8.861 3.387 C 8.991 3.100,8.985 2.844,8.840 2.561 C 8.689 2.265,8.503 2.129,8.177 2.075 C 7.869 2.025,5.876 2.027,5.387 2.078 M23.813 2.073 C 23.667 2.094,23.495 2.139,23.432 2.174 C 23.088 2.365,22.912 2.848,23.036 3.262 C 23.111 3.511,23.407 3.857,23.614 3.938 C 23.699 3.971,24.329 4.001,25.120 4.011 L 26.480 4.027 26.780 4.174 C 27.181 4.371,27.507 4.669,27.733 5.045 L 27.920 5.356 27.953 6.718 C 27.971 7.470,28.014 8.180,28.048 8.304 C 28.122 8.574,28.453 8.880,28.727 8.931 C 29.258 9.031,29.793 8.723,29.912 8.249 C 30.007 7.870,29.992 5.499,29.891 5.073 C 29.784 4.619,29.435 3.924,29.112 3.526 C 28.616 2.913,27.790 2.366,27.040 2.154 C 26.716 2.062,24.313 2.002,23.813 2.073 M9.225 7.039 C 8.842 7.070,8.708 7.108,8.385 7.277 C 7.658 7.660,7.158 8.325,7.042 9.067 C 6.971 9.517,6.971 12.457,7.042 12.907 C 7.124 13.428,7.350 13.841,7.781 14.257 C 8.201 14.663,8.554 14.848,9.067 14.930 C 9.517 15.002,12.457 15.002,12.907 14.930 C 13.419 14.848,13.772 14.663,14.193 14.257 C 14.624 13.841,14.850 13.428,14.931 12.907 C 15.002 12.457,15.002 9.517,14.931 9.067 C 14.852 8.559,14.622 8.129,14.226 7.750 C 13.740 7.282,13.334 7.093,12.697 7.036 C 12.107 6.983,9.893 6.985,9.225 7.039 M19.279 7.035 C 18.882 7.061,18.736 7.097,18.452 7.239 C 17.817 7.554,17.358 8.064,17.105 8.733 C 16.994 9.028,16.989 9.119,16.989 10.987 C 16.989 12.854,16.994 12.946,17.105 13.240 C 17.442 14.131,18.208 14.793,19.067 14.934 C 19.479 15.001,22.490 15.002,22.901 14.935 C 23.954 14.762,24.816 13.846,24.958 12.746 C 25.026 12.221,25.026 9.677,24.958 9.200 C 24.793 8.050,23.870 7.142,22.759 7.035 C 22.261 6.988,20.005 6.988,19.279 7.035 M12.837 9.129 C 12.960 9.245,12.960 9.249,12.960 10.695 C 12.960 11.492,12.944 12.294,12.925 12.476 C 12.870 13.001,12.926 12.987,10.987 12.987 C 9.075 12.987,9.105 12.994,9.048 12.524 C 9.030 12.368,9.014 11.570,9.014 10.750 C 9.013 9.293,9.016 9.257,9.129 9.137 L 9.245 9.013 10.979 9.013 C 12.686 9.013,12.715 9.015,12.837 9.129 M22.849 9.177 L 22.987 9.342 22.987 11.007 L 22.987 12.672 22.803 12.850 L 22.620 13.028 21.003 13.001 C 19.264 12.972,19.123 12.950,19.052 12.698 C 19.031 12.622,19.013 11.825,19.013 10.926 C 19.013 9.409,19.020 9.283,19.112 9.182 C 19.244 9.036,19.301 9.032,21.129 9.022 L 22.711 9.013 22.849 9.177 M8.985 17.062 C 8.314 17.171,7.599 17.717,7.278 18.367 C 7.021 18.887,6.989 19.178,6.989 20.987 C 6.989 22.752,7.023 23.087,7.252 23.551 C 7.561 24.179,8.060 24.617,8.747 24.862 C 9.084 24.983,9.142 24.986,10.960 24.986 C 12.621 24.987,12.862 24.976,13.147 24.889 C 13.928 24.649,14.604 24.013,14.841 23.295 C 14.941 22.991,14.953 22.800,14.974 21.221 C 14.989 20.133,14.976 19.345,14.940 19.116 C 14.819 18.335,14.266 17.597,13.532 17.236 L 13.172 17.059 11.213 17.039 C 10.135 17.028,9.132 17.038,8.985 17.062 M17.733 17.051 C 17.524 17.083,17.267 17.282,17.112 17.532 C 16.987 17.732,16.987 17.741,16.987 19.467 L 16.987 21.200 17.133 21.449 C 17.213 21.585,17.369 21.753,17.480 21.822 C 17.671 21.941,17.732 21.947,18.840 21.964 L 20.000 21.981 20.000 23.030 C 20.001 24.167,20.041 24.427,20.254 24.652 C 20.545 24.961,20.717 24.987,22.507 24.987 C 23.401 24.987,24.199 24.968,24.279 24.946 C 24.481 24.889,24.786 24.609,24.910 24.367 C 25.004 24.183,25.013 24.048,25.011 22.895 C 25.009 21.417,24.952 20.637,24.833 20.455 C 24.787 20.385,24.663 20.262,24.558 20.182 L 24.368 20.037 23.174 20.011 L 21.981 19.986 21.964 18.833 C 21.944 17.525,21.923 17.443,21.536 17.186 L 21.315 17.040 19.604 17.033 C 18.663 17.029,17.821 17.037,17.733 17.051 M12.796 19.125 L 12.960 19.263 12.960 20.987 L 12.960 22.711 12.792 22.852 L 12.624 22.993 10.953 22.977 C 9.297 22.960,9.282 22.959,9.161 22.839 C 9.040 22.717,9.040 22.716,9.040 20.991 C 9.040 19.384,9.047 19.257,9.139 19.155 C 9.268 19.013,9.353 19.006,11.129 18.996 L 12.632 18.987 12.796 19.125 M2.582 23.088 C 2.304 23.214,2.153 23.409,2.045 23.781 C 1.972 24.032,1.963 24.260,1.989 25.226 C 2.025 26.520,2.075 26.895,2.286 27.439 C 2.483 27.945,2.740 28.322,3.209 28.791 C 3.856 29.438,4.363 29.717,5.230 29.902 C 5.586 29.979,5.925 29.999,6.853 29.999 C 7.499 30.000,8.116 29.981,8.225 29.958 C 8.614 29.875,8.958 29.433,8.958 29.013 C 8.958 28.769,8.802 28.439,8.594 28.244 C 8.375 28.038,8.146 28.009,6.714 28.004 L 5.561 28.000 5.183 27.811 C 4.747 27.593,4.399 27.240,4.180 26.792 C 4.038 26.502,4.036 26.475,4.000 25.102 C 3.960 23.578,3.929 23.415,3.646 23.214 C 3.477 23.094,3.139 22.987,2.933 22.988 C 2.860 22.989,2.702 23.033,2.582 23.088 M28.640 23.072 C 28.537 23.116,28.385 23.217,28.302 23.296 C 28.019 23.565,28.000 23.650,27.996 24.704 C 27.991 26.024,27.942 26.533,27.788 26.851 C 27.630 27.177,27.199 27.607,26.824 27.813 L 26.533 27.973 25.089 28.002 C 23.846 28.026,23.624 28.043,23.505 28.121 C 23.266 28.277,23.106 28.486,23.038 28.728 C 22.903 29.208,23.092 29.643,23.536 29.880 C 23.751 29.995,23.813 30.000,25.093 29.998 C 26.542 29.996,26.956 29.937,27.641 29.634 C 28.529 29.242,29.318 28.419,29.677 27.513 C 29.939 26.849,29.977 26.596,30.011 25.307 C 30.045 23.975,30.003 23.654,29.752 23.335 C 29.510 23.028,29.013 22.910,28.640 23.072 " fill="#1A1C1F" stroke="none" fill-rule="evenodd"></path></svg>