<svg width="28" height="28" viewBox="0 0 28 28" fill="none" xmlns="http://www.w3.org/2000/svg"><path d="M5.250 2.656 C 4.517 2.694,4.269 2.766,3.797 3.076 C 3.291 3.407,2.933 3.891,2.740 4.503 C 2.638 4.827,2.637 4.863,2.637 7.910 C 2.637 10.987,2.637 10.990,2.742 11.293 C 3.026 12.110,3.557 12.671,4.322 12.963 L 4.643 13.085 7.496 13.103 C 10.812 13.124,11.136 13.105,11.653 12.860 C 12.149 12.624,12.593 12.186,12.839 11.689 C 13.095 11.173,13.111 10.948,13.111 7.887 C 13.111 4.817,13.095 4.601,12.836 4.077 C 12.606 3.615,12.228 3.210,11.800 2.971 C 11.238 2.657,11.223 2.655,8.423 2.638 C 7.037 2.630,5.609 2.638,5.250 2.656 M17.943 2.662 C 17.353 2.677,16.806 2.712,16.727 2.739 C 16.314 2.882,16.009 3.075,15.669 3.410 C 15.378 3.698,15.270 3.847,15.109 4.182 L 14.910 4.597 14.897 7.653 C 14.889 9.533,14.902 10.827,14.931 11.013 C 14.987 11.379,15.230 11.885,15.498 12.195 C 15.765 12.503,16.277 12.853,16.652 12.982 L 16.963 13.090 20.137 13.090 L 23.310 13.090 23.626 12.981 C 24.412 12.710,24.995 12.099,25.259 11.270 C 25.363 10.946,25.363 10.921,25.363 7.887 C 25.363 4.852,25.363 4.828,25.259 4.503 C 25.061 3.882,24.712 3.414,24.183 3.063 C 23.596 2.673,23.601 2.674,21.163 2.652 C 19.983 2.642,18.534 2.646,17.943 2.662 M10.955 4.506 C 11.038 4.558,11.159 4.672,11.223 4.760 L 11.340 4.918 11.340 7.898 L 11.340 10.879 11.142 11.088 C 11.006 11.232,10.884 11.312,10.757 11.341 C 10.509 11.399,5.422 11.399,5.063 11.341 C 4.816 11.302,4.763 11.273,4.608 11.097 L 4.434 10.897 4.433 7.891 L 4.433 4.885 4.552 4.730 C 4.704 4.531,4.815 4.474,5.132 4.431 C 5.274 4.412,6.608 4.399,8.097 4.403 C 10.739 4.410,10.808 4.412,10.955 4.506 M23.265 4.548 C 23.607 4.809,23.590 4.632,23.590 7.910 L 23.590 10.850 23.483 11.000 C 23.424 11.082,23.309 11.198,23.226 11.256 L 23.077 11.363 20.266 11.377 C 18.267 11.387,17.398 11.375,17.256 11.337 C 17.124 11.302,16.990 11.215,16.858 11.078 L 16.660 10.872 16.660 7.887 L 16.660 4.903 16.806 4.737 C 16.982 4.536,17.090 4.473,17.337 4.426 C 17.439 4.407,18.779 4.399,20.313 4.408 L 23.103 4.425 23.265 4.548 M6.930 6.152 C 6.620 6.195,6.367 6.359,6.243 6.596 C 6.152 6.771,6.140 6.880,6.122 7.720 C 6.109 8.328,6.121 8.733,6.156 8.892 C 6.231 9.225,6.463 9.491,6.739 9.561 C 7.011 9.629,8.781 9.630,9.030 9.562 C 9.151 9.528,9.287 9.435,9.417 9.296 L 9.618 9.082 9.604 7.882 L 9.590 6.682 9.447 6.503 C 9.195 6.187,9.082 6.157,8.064 6.137 C 7.569 6.127,7.058 6.134,6.930 6.152 M19.119 6.158 C 18.859 6.206,18.608 6.380,18.492 6.594 C 18.420 6.725,18.410 6.886,18.410 7.887 C 18.410 9.107,18.422 9.182,18.659 9.396 C 18.861 9.579,19.067 9.609,20.138 9.611 C 21.114 9.613,21.178 9.608,21.375 9.508 C 21.510 9.440,21.637 9.323,21.735 9.176 L 21.887 8.949 21.887 7.853 L 21.887 6.756 21.723 6.533 C 21.476 6.196,21.351 6.162,20.262 6.138 C 19.757 6.127,19.242 6.136,19.119 6.158 M5.040 14.931 C 4.446 14.969,4.250 15.034,3.790 15.347 C 3.312 15.671,2.993 16.092,2.753 16.715 L 2.613 17.077 2.614 19.890 C 2.614 21.437,2.633 22.872,2.657 23.078 C 2.681 23.284,2.746 23.574,2.801 23.723 C 2.997 24.247,3.592 24.873,4.138 25.132 C 4.619 25.360,4.679 25.363,7.910 25.363 C 10.921 25.363,10.946 25.363,11.270 25.259 C 12.084 24.999,12.666 24.456,12.963 23.678 L 13.086 23.357 13.103 20.533 C 13.123 17.340,13.099 16.879,12.893 16.424 C 12.619 15.821,11.996 15.249,11.363 15.018 C 11.089 14.918,11.032 14.916,8.330 14.907 C 6.816 14.901,5.335 14.912,5.040 14.931 M16.517 14.926 C 16.175 14.954,16.079 14.981,15.847 15.121 C 15.516 15.320,15.171 15.687,15.008 16.014 L 14.887 16.258 14.887 17.934 L 14.887 19.610 15.038 19.896 C 15.238 20.272,15.640 20.669,16.007 20.853 L 16.302 21.000 17.760 21.000 L 19.219 21.000 19.237 22.435 C 19.257 24.046,19.272 24.136,19.601 24.575 C 19.811 24.855,20.279 25.221,20.524 25.297 C 20.633 25.331,21.289 25.360,22.297 25.374 L 23.898 25.397 24.210 25.244 C 24.623 25.042,25.042 24.623,25.244 24.210 L 25.398 23.897 25.376 22.227 C 25.356 20.635,25.350 20.544,25.250 20.287 C 25.119 19.949,24.804 19.625,24.429 19.442 L 24.154 19.308 22.577 19.284 L 21.000 19.260 21.000 17.781 L 21.000 16.302 20.853 16.007 C 20.679 15.660,20.278 15.242,19.946 15.064 L 19.712 14.938 18.314 14.916 C 17.546 14.904,16.737 14.909,16.517 14.926 M10.960 16.745 C 11.022 16.786,11.134 16.902,11.207 17.004 L 11.340 17.187 11.340 20.126 C 11.340 23.018,11.338 23.068,11.243 23.222 C 11.190 23.308,11.080 23.426,10.998 23.484 L 10.850 23.590 7.910 23.590 C 4.647 23.590,4.824 23.607,4.557 23.274 L 4.416 23.098 4.413 20.171 L 4.410 17.243 4.519 17.052 C 4.705 16.728,4.822 16.687,5.647 16.655 C 6.045 16.639,7.377 16.636,8.608 16.648 C 10.555 16.668,10.861 16.680,10.960 16.745 M19.078 16.702 C 19.127 16.728,19.181 16.816,19.197 16.898 C 19.236 17.091,19.235 18.591,19.197 18.874 C 19.149 19.222,19.081 19.247,18.116 19.266 C 17.169 19.285,16.936 19.259,16.768 19.114 C 16.645 19.008,16.644 19.002,16.623 18.235 C 16.599 17.391,16.634 16.900,16.725 16.775 C 16.758 16.731,16.867 16.677,16.967 16.656 C 17.215 16.603,18.965 16.642,19.078 16.702 M6.809 18.428 C 6.588 18.474,6.378 18.628,6.245 18.843 C 6.140 19.012,6.137 19.047,6.138 20.113 C 6.139 21.383,6.155 21.453,6.518 21.719 L 6.743 21.884 7.846 21.886 L 8.949 21.887 9.176 21.735 C 9.323 21.637,9.440 21.510,9.508 21.375 C 9.607 21.180,9.613 21.109,9.613 20.222 C 9.613 18.946,9.550 18.693,9.178 18.492 C 9.053 18.425,8.870 18.411,8.003 18.403 C 7.439 18.397,6.901 18.409,6.809 18.428 M23.437 21.104 C 23.541 21.172,23.564 21.230,23.592 21.495 C 23.644 21.978,23.594 23.455,23.523 23.540 C 23.417 23.668,23.138 23.706,22.330 23.705 C 21.497 23.704,21.222 23.669,21.099 23.546 C 20.958 23.405,20.970 21.356,21.113 21.161 C 21.204 21.036,21.471 21.006,22.425 21.015 C 23.178 21.022,23.333 21.036,23.437 21.104 " fill="#1A1C1F" stroke="none" fill-rule="evenodd"></path></svg>