<svg xmlns="http://www.w3.org/2000/svg" width="32" height="32" fill="none"><g clip-path="url(#a)"><path fill="#1A1C1F" fill-rule="evenodd" d="M12.985 22.486c0 .28-.219.5-.5.5h-3a.494.494 0 0 1-.5-.5v-3c0-.282.219-.5.5-.5h3c.281 0 .5.218.5.5zm-.5-5.5h-3a2.507 2.507 0 0 0-2.5 2.5v3c0 1.374 1.125 2.5 2.5 2.5h3c1.375 0 2.5-1.126 2.5-2.5v-3c0-1.376-1.125-2.5-2.5-2.5m.5-4.5c0 .28-.219.5-.5.5h-3a.494.494 0 0 1-.5-.5v-3c0-.282.219-.5.5-.5h3c.281 0 .5.218.5.5zm-.5-5.5h-3a2.507 2.507 0 0 0-2.5 2.5v3c0 1.374 1.125 2.5 2.5 2.5h3c1.375 0 2.5-1.126 2.5-2.5v-3c0-1.376-1.125-2.5-2.5-2.5m5.5 10c-.531 0-1 .468-1 1v3c0 .53.469 1 1 1h2v2c0 .563.438 1 1 1h3c.563 0 1-.437 1-1v-3c0-.562-.437-1-1-1h-2v-2c0-.532-.469-1-1-1zm5-4.5c0 .28-.219.5-.5.5h-3a.494.494 0 0 1-.5-.5v-3c0-.282.219-.5.5-.5h3c.281 0 .5.218.5.5zm-.5-5.5h-3a2.507 2.507 0 0 0-2.5 2.5v3c0 1.374 1.125 2.5 2.5 2.5h3c1.375 0 2.5-1.126 2.5-2.5v-3c0-1.376-1.125-2.5-2.5-2.5m1.487-4.983a1.001 1.001 0 0 0 0 2q1.014-.005 2.028 0c1.176.002 2 .944 2 2q-.017.976-.028 1.957a1.017 1.017 0 0 0 .986 1.013 1 1 0 0 0 1.014-.985q.018-.987.028-1.972c.025-2.247-1.857-4.013-4-4.013a229 229 0 0 0-2.028 0M6.002 2a3.99 3.99 0 0 0-4 4q-.004 1 0 1.986c.001.565.487.986 1 .986a1 1 0 0 0 1-1q-.003-.985 0-1.971c.003-1.143.945-2 2-2q.986.003 1.971 0c.575-.002 1-.488 1-1a1 1 0 0 0-1-1q-.985-.003-1.971 0m-4 21.969a343 343 0 0 0 0 2.029c.005 2.267 1.857 4 4 4q.986.003 1.971 0c.581-.002 1-.488 1-1a1 1 0 0 0-1-1H6.002a1.99 1.99 0 0 1-2-2q.003-1.016 0-2.03a.995.995 0 0 0-1-1 1 1 0 0 0-1 1m26.996-1c.513 0 .998.37 1 1q.004 1.015 0 2.029a3.99 3.99 0 0 1-4 4q-1.014.003-2.028 0a1 1 0 0 1-1-1c0-.512.422-.998 1-1q1.014-.003 2.028 0c1.055 0 1.998-.878 2-2q.003-1.014 0-2.028a1 1 0 0 1 1-1" clip-rule="evenodd"/></g><defs><clipPath id="a"><path fill="#fff" d="M0 0h32v32H0z"/></clipPath></defs></svg>