<svg xmlns="http://www.w3.org/2000/svg" width="14" height="14" fill="none"><g clip-path="url(#a)"><path fill="#1A1C1F" fill-rule="evenodd" d="M7 2.1c3.09 0 5.6 2.559 5.6 5.6 0 1.602-.702 2.993-1.902 4.03a.74.74 0 0 1-.462.17H3.76a.7.7 0 0 1-.458-.17C2.102 10.693 1.4 9.302 1.4 7.7c0-3.041 2.51-5.6 5.6-5.6m2.945 2.655a.693.693 0 0 0-.99 0L7.362 6.347A1.402 1.402 0 0 0 5.6 7.7a1.4 1.4 0 1 0 2.753-.362l1.592-1.593a.7.7 0 0 0 0-.99" clip-rule="evenodd"/></g><defs><clipPath id="a"><path fill="#fff" d="M0 0h14v14H0z"/></clipPath></defs></svg>