<svg xmlns="http://www.w3.org/2000/svg" width="16" height="16" fill="none"><g clip-path="url(#a)"><path fill="#1A1C1F" fill-rule="evenodd" d="M14.227 7.317a6 6 0 0 1 .173 1.482 6.38 6.38 0 0 1-1.922 4.573.8.8 0 0 1-1.12-1.143A4.78 4.78 0 0 0 12.8 8.8c0-.305-.025-.656-.13-1.113a.8.8 0 0 1 1.557-.37M8 2.399c.473 0 .94.046 1.368.138a.8.8 0 1 1-.336 1.564A5 5 0 0 0 8 4a4.8 4.8 0 0 0-3.358 8.23.8.8 0 1 1-1.12 1.143A6.4 6.4 0 0 1 8 2.4m4.166 2.235a.795.795 0 0 1 0 1.131q-1.234 1.24-2.62 2.62A1.602 1.602 0 0 1 8 10.4a1.6 1.6 0 1 1 .415-3.145l2.62-2.62a.8.8 0 0 1 1.13 0" clip-rule="evenodd"/></g><defs><clipPath id="a"><path fill="#fff" d="M0 0h16v16H0z"/></clipPath></defs></svg>