<svg xmlns="http://www.w3.org/2000/svg" width="20" height="20" fill="none"><g clip-path="url(#a)"><path fill="#1A1C1F" fill-rule="evenodd" d="M17.784 9.146c.184.78.216 1.346.216 1.853 0 2.18-.877 4.222-2.403 5.716a1 1 0 1 1-1.4-1.429A5.98 5.98 0 0 0 16 11c0-.382-.03-.82-.162-1.391a1 1 0 1 1 1.946-.462M10 2.999c.59 0 1.175.057 1.71.173a1 1 0 0 1-.42 1.955A6.2 6.2 0 0 0 10 4.999a6 6 0 0 0-4.198 10.287 1 1 0 0 1-1.399 1.43A8 8 0 0 1 10 3m5.207 2.793c.36.36.427.985 0 1.414q-1.543 1.551-3.274 3.276a2 2 0 1 1-1.415-1.415l3.275-3.275a1 1 0 0 1 1.414 0" clip-rule="evenodd"/></g><defs><clipPath id="a"><path fill="#fff" d="M0 0h20v20H0z"/></clipPath></defs></svg>