<svg xmlns="http://www.w3.org/2000/svg" width="32" height="32" fill="none"><g clip-path="url(#a)"><path fill="#1A1C1F" fill-rule="evenodd" d="M28.92 12.608A13.8 13.8 0 0 1 30 18c0 3.662-1.413 7.104-3.898 9.693a1 1 0 1 1-1.443-1.385A11.95 11.95 0 0 0 28 18c0-1.61-.319-3.196-.92-4.608a1 1 0 0 1 1.84-.784M16 4c1.875 0 3.7.369 5.395 1.077a1 1 0 0 1-.772 1.845A12 12 0 0 0 16 6C9.373 6 4 11.372 4 18c0 3.14 1.21 6.087 3.341 8.308a1 1 0 1 1-1.443 1.385A13.95 13.95 0 0 1 2 18C2 10.268 8.268 4 16 4m7.073 19.657a1 1 0 1 1-1.414 1.414 1 1 0 0 1 1.414-1.415m-12.728 0a1 1 0 1 1-1.414 1.414 1 1 0 0 1 1.414-1.415m14.61-4.294a1 1 0 1 1-.519 1.932 1 1 0 0 1 .518-1.932m-16.68.707a1 1 0 1 1-1.932.518 1 1 0 0 1 1.932-.518M24.707 9.293a1 1 0 0 1 0 1.414l-6.772 6.777q.067.248.067.516a2 2 0 1 1-1.485-1.933l6.776-6.774a1 1 0 0 1 1.414 0m.954 6.119a1 1 0 1 1-1.931.517 1 1 0 0 1 1.931-.518m-18.093-.708a1 1 0 1 1-.518 1.932 1 1 0 0 1 .518-1.932m2.777-3.775a1 1 0 1 1-1.414 1.414 1 1 0 0 1 1.414-1.414M18.59 8.34a1 1 0 1 1-.517 1.932 1 1 0 0 1 .517-1.932m-3.951.708a1 1 0 1 1-1.932.517 1 1 0 0 1 1.932-.517" clip-rule="evenodd"/></g><defs><clipPath id="a"><path fill="#fff" d="M0 0h32v32H0z"/></clipPath></defs></svg>