<svg width="20" height="20" viewBox="0 0 20 20" fill="none" xmlns="http://www.w3.org/2000/svg"><path d="M9.150 3.055 C 7.278 3.278,5.645 4.058,4.348 5.350 C 3.170 6.524,2.405 8.018,2.097 9.750 C 1.993 10.333,1.993 11.667,2.097 12.250 C 2.398 13.940,3.141 15.417,4.267 16.562 C 4.607 16.907,4.755 16.982,5.100 16.982 C 5.401 16.982,5.595 16.905,5.795 16.705 C 6.016 16.484,6.081 16.327,6.080 16.017 C 6.078 15.674,6.012 15.524,5.724 15.211 C 4.289 13.648,3.736 11.760,4.136 9.786 C 4.605 7.469,6.428 5.642,8.774 5.137 C 9.423 4.997,10.401 4.982,11.117 5.100 C 11.479 5.160,11.734 5.143,11.926 5.047 C 12.249 4.886,12.500 4.494,12.500 4.150 C 12.500 3.764,12.181 3.323,11.825 3.217 C 11.578 3.143,11.123 3.075,10.602 3.035 C 10.027 2.990,9.649 2.995,9.150 3.055 M14.228 5.546 C 14.143 5.569,14.034 5.614,13.986 5.645 C 13.937 5.677,13.135 6.460,12.202 7.386 L 10.506 9.070 10.281 9.031 C 9.623 8.916,8.914 9.205,8.435 9.783 C 7.959 10.358,7.876 11.241,8.234 11.933 C 8.379 12.214,8.836 12.655,9.120 12.787 C 9.358 12.899,9.777 13.000,10.000 13.000 C 10.223 13.000,10.638 12.900,10.886 12.787 C 11.085 12.695,11.545 12.273,11.700 12.039 C 11.920 11.708,12.050 11.043,11.970 10.667 L 11.931 10.486 13.326 9.085 C 15.254 7.147,15.379 7.013,15.450 6.799 C 15.559 6.472,15.457 6.059,15.205 5.807 C 14.973 5.575,14.542 5.460,14.228 5.546 M16.417 8.476 C 16.089 8.633,15.903 8.861,15.832 9.190 C 15.802 9.333,15.807 9.427,15.867 9.756 C 16.054 10.793,15.998 11.903,15.713 12.804 C 15.453 13.628,15.035 14.340,14.367 15.100 C 13.983 15.535,13.922 15.662,13.920 16.017 C 13.919 16.327,13.984 16.484,14.205 16.705 C 14.405 16.905,14.599 16.982,14.900 16.982 C 15.257 16.982,15.402 16.906,15.772 16.526 C 16.819 15.450,17.563 13.999,17.867 12.445 C 18.072 11.396,18.007 9.755,17.731 9.017 C 17.592 8.647,17.277 8.429,16.850 8.409 C 16.621 8.398,16.560 8.408,16.417 8.476 " fill="#1A1C1F" stroke="none" fill-rule="evenodd"></path></svg>