<svg xmlns="http://www.w3.org/2000/svg" width="20" height="20" fill="none"><g clip-path="url(#a)"><path fill="#1A1C1F" fill-rule="evenodd" d="M10 3c4.414 0 8 3.656 8 8 0 2.288-1.003 4.276-2.717 5.757-.152.13-.402.243-.66.243H5.371a1 1 0 0 1-.654-.243C3.003 15.276 2 13.288 2 10.999 2 6.656 5.586 3 10 3m4.207 3.792a.99.99 0 0 0-1.414 0q-1.043 1.046-2.276 2.275A2.002 2.002 0 0 0 8 10.999a2 2 0 1 0 3.932-.517l2.275-2.276a1 1 0 0 0 0-1.414" clip-rule="evenodd"/></g><defs><clipPath id="a"><path fill="#fff" d="M0 0h20v20H0z"/></clipPath></defs></svg>