<svg xmlns="http://www.w3.org/2000/svg" width="24" height="24" fill="none"><g clip-path="url(#a)"><path fill="#1A1C1F" fill-rule="evenodd" d="M21.443 10.203A10 10 0 0 1 22 13.5a9.97 9.97 0 0 1-2.547 6.667 1 1 0 1 1-1.49-1.334A7.97 7.97 0 0 0 20 13.5c0-.91-.152-1.798-.445-2.638a1 1 0 0 1 1.888-.66M12 3.5c1.152 0 2.278.195 3.343.572a1 1 0 1 1-.669 1.885A8 8 0 0 0 4 13.5c0 1.997.733 3.877 2.037 5.334a1 1 0 1 1-1.49 1.334A9.97 9.97 0 0 1 2 13.5c0-5.523 4.477-10 10-10m6.707 3.293c.36.36.424.99 0 1.414l-4.773 4.775a2 2 0 0 1-1.932 2.518 2 2 0 1 1 .515-3.933l4.776-4.774a1 1 0 0 1 1.414 0" clip-rule="evenodd"/></g><defs><clipPath id="a"><path fill="#fff" d="M0 0h24v24H0z"/></clipPath></defs></svg>