<svg width="24" height="24" viewBox="0 0 24 24" fill="none" xmlns="http://www.w3.org/2000/svg"><path d="M10.380 3.643 C 8.217 4.040,6.536 4.892,5.025 6.358 C 3.451 7.884,2.545 9.635,2.115 11.980 C 1.998 12.619,1.988 14.209,2.097 14.900 C 2.372 16.645,3.011 18.178,4.023 19.518 C 4.587 20.265,4.860 20.478,5.260 20.479 C 5.594 20.480,5.761 20.412,5.981 20.186 C 6.198 19.963,6.281 19.766,6.279 19.475 C 6.278 19.225,6.178 19.035,5.752 18.475 C 4.997 17.480,4.566 16.624,4.285 15.559 C 3.965 14.348,3.929 13.074,4.180 11.863 C 4.444 10.593,5.063 9.338,5.950 8.280 C 6.872 7.181,8.242 6.295,9.727 5.841 C 11.114 5.416,12.790 5.416,14.300 5.842 C 14.542 5.910,14.825 5.976,14.929 5.988 C 15.618 6.071,16.168 5.366,15.943 4.690 C 15.811 4.292,15.510 4.095,14.709 3.881 C 13.676 3.605,13.576 3.593,12.140 3.577 C 10.949 3.564,10.777 3.570,10.380 3.643 M17.708 6.547 C 17.567 6.571,16.552 7.540,14.247 9.850 L 12.554 11.547 12.141 11.528 C 11.643 11.506,11.311 11.590,10.938 11.832 C 10.327 12.229,10.018 12.800,10.025 13.520 C 10.031 14.115,10.206 14.523,10.628 14.925 C 11.175 15.447,11.921 15.616,12.628 15.379 C 12.985 15.259,13.187 15.127,13.465 14.832 C 13.847 14.428,13.971 14.082,13.977 13.412 L 13.982 12.925 16.301 10.592 C 17.576 9.310,18.699 8.156,18.796 8.029 C 19.068 7.671,19.067 7.332,18.793 6.931 C 18.580 6.619,18.158 6.469,17.708 6.547 M20.044 9.665 C 19.799 9.788,19.626 10.001,19.541 10.289 C 19.476 10.510,19.484 10.578,19.641 11.140 C 19.898 12.060,19.976 12.622,19.971 13.540 C 19.963 15.429,19.417 16.967,18.194 18.548 C 17.827 19.022,17.722 19.229,17.721 19.483 C 17.718 20.057,18.152 20.482,18.737 20.479 C 19.140 20.477,19.412 20.267,19.977 19.518 C 21.010 18.150,21.678 16.504,21.926 14.720 C 22.004 14.152,21.994 12.691,21.907 12.120 C 21.766 11.194,21.485 10.209,21.281 9.928 C 21.119 9.704,20.813 9.560,20.500 9.560 C 20.316 9.560,20.203 9.586,20.044 9.665 " fill="#1A1C1F" stroke="none" fill-rule="evenodd"></path></svg>