<svg width="32" height="32" viewBox="0 0 32 32" fill="none" xmlns="http://www.w3.org/2000/svg"><path d="M14.827 4.060 C 11.982 4.291,9.256 5.422,7.023 7.299 C 4.199 9.671,2.450 12.952,2.075 16.577 C 1.984 17.461,2.040 19.374,2.180 20.187 C 2.631 22.790,3.581 24.899,5.213 26.921 C 5.914 27.789,6.305 28.052,6.777 27.973 C 7.065 27.924,7.402 27.664,7.523 27.397 C 7.737 26.926,7.658 26.730,6.858 25.739 C 6.524 25.325,6.104 24.759,5.924 24.480 C 4.993 23.037,4.370 21.360,4.130 19.645 C 4.009 18.782,4.010 17.248,4.132 16.378 C 4.661 12.616,6.788 9.476,10.096 7.576 C 11.998 6.483,14.145 5.959,16.347 6.050 C 17.873 6.113,18.765 6.275,20.167 6.744 C 20.567 6.877,20.971 6.987,21.066 6.987 C 21.632 6.987,22.124 6.318,21.972 5.755 C 21.877 5.404,21.586 5.164,20.952 4.916 C 19.177 4.222,16.846 3.897,14.827 4.060 M13.376 8.373 C 12.832 8.537,12.535 9.223,12.782 9.745 C 12.891 9.973,13.225 10.225,13.484 10.273 C 13.742 10.322,14.126 10.212,14.313 10.037 C 14.647 9.725,14.745 9.272,14.565 8.875 C 14.377 8.461,13.838 8.233,13.376 8.373 M17.884 8.452 C 17.577 8.608,17.477 8.731,17.387 9.064 C 17.299 9.393,17.364 9.682,17.582 9.923 C 18.073 10.466,18.882 10.384,19.200 9.759 C 19.515 9.142,19.118 8.418,18.422 8.341 C 18.208 8.318,18.109 8.338,17.884 8.452 M23.689 9.052 C 23.526 9.083,22.915 9.669,19.413 13.153 L 16.507 16.044 15.947 16.065 C 15.464 16.083,15.347 16.106,15.102 16.233 C 14.723 16.428,14.370 16.791,14.196 17.163 C 14.071 17.429,14.053 17.533,14.053 18.000 C 14.053 18.481,14.069 18.564,14.209 18.850 C 14.744 19.941,16.102 20.316,17.107 19.651 C 17.699 19.259,18.081 18.430,17.977 17.760 L 17.940 17.520 21.224 14.213 C 23.030 12.395,24.615 10.765,24.747 10.591 C 24.960 10.310,24.987 10.245,24.987 9.996 C 24.987 9.359,24.383 8.920,23.689 9.052 M9.253 10.744 C 8.890 10.877,8.639 11.262,8.641 11.680 C 8.645 12.244,9.336 12.752,9.880 12.589 C 10.201 12.493,10.374 12.354,10.502 12.089 C 10.816 11.441,10.432 10.728,9.743 10.684 C 9.587 10.673,9.374 10.700,9.253 10.744 M27.590 12.128 C 27.408 12.214,27.266 12.330,27.175 12.468 C 26.942 12.820,26.948 12.962,27.225 13.762 C 27.838 15.537,28.070 17.151,27.947 18.792 C 27.745 21.497,26.837 23.711,25.044 25.867 C 24.435 26.599,24.325 26.834,24.420 27.192 C 24.556 27.699,24.890 27.967,25.393 27.970 C 25.795 27.972,26.012 27.817,26.651 27.067 C 28.442 24.968,29.612 22.259,29.916 19.509 C 30.013 18.635,29.988 16.932,29.867 16.107 C 29.681 14.841,29.166 13.024,28.841 12.490 C 28.698 12.254,28.401 12.068,28.107 12.029 C 27.917 12.003,27.809 12.024,27.590 12.128 M6.998 14.727 C 6.601 14.841,6.241 15.415,6.322 15.804 C 6.468 16.507,7.213 16.861,7.809 16.512 C 8.175 16.298,8.384 15.798,8.263 15.427 C 8.161 15.109,8.005 14.931,7.712 14.794 C 7.422 14.660,7.279 14.646,6.998 14.727 M24.385 14.727 C 24.288 14.755,24.118 14.869,24.006 14.980 C 23.627 15.360,23.606 15.898,23.957 16.297 C 24.178 16.548,24.381 16.646,24.689 16.648 C 25.163 16.652,25.513 16.384,25.656 15.907 C 25.781 15.486,25.538 14.989,25.105 14.779 C 24.858 14.659,24.667 14.645,24.385 14.727 M6.982 19.408 C 6.585 19.537,6.324 19.910,6.324 20.349 C 6.324 20.685,6.460 20.930,6.766 21.145 C 6.956 21.279,7.045 21.305,7.307 21.305 C 7.569 21.305,7.657 21.279,7.845 21.146 C 8.413 20.745,8.437 19.900,7.891 19.539 C 7.674 19.395,7.221 19.330,6.982 19.408 M24.369 19.408 C 23.963 19.540,23.715 19.896,23.712 20.349 C 23.710 20.685,23.845 20.929,24.153 21.145 C 24.343 21.279,24.431 21.305,24.693 21.305 C 24.955 21.305,25.044 21.279,25.232 21.146 C 25.800 20.745,25.824 19.900,25.277 19.539 C 25.061 19.395,24.608 19.330,24.369 19.408 M9.370 23.414 C 8.926 23.548,8.601 24.033,8.661 24.473 C 8.783 25.359,9.851 25.646,10.418 24.945 C 10.601 24.719,10.662 24.336,10.563 24.036 C 10.484 23.796,10.149 23.491,9.884 23.417 C 9.650 23.352,9.578 23.352,9.370 23.414 M22.087 23.420 C 21.816 23.500,21.612 23.674,21.487 23.933 C 21.172 24.584,21.640 25.333,22.361 25.333 C 22.879 25.333,23.281 24.969,23.339 24.448 C 23.410 23.798,22.723 23.233,22.087 23.420 " fill="#1A1C1F" stroke="none" fill-rule="evenodd"></path></svg>