<svg xmlns="http://www.w3.org/2000/svg" width="16" height="16" fill="none"><g clip-path="url(#a)"><path fill="#1A1C1F" fill-rule="evenodd" d="M8 2.4c3.53 0 6.4 2.925 6.4 6.4 0 1.83-.803 3.42-2.174 4.605a.85.85 0 0 1-.527.195H4.297a.8.8 0 0 1-.523-.195C2.403 12.221 1.6 10.631 1.6 8.8c0-3.475 2.869-6.4 6.4-6.4m3.366 3.034a.793.793 0 0 0-1.132 0q-.834.836-1.82 1.82A1.602 1.602 0 0 0 6.4 8.8a1.6 1.6 0 1 0 3.146-.414l1.82-1.82a.8.8 0 0 0 0-1.132" clip-rule="evenodd"/></g><defs><clipPath id="a"><path fill="#fff" d="M0 0h16v16H0z"/></clipPath></defs></svg>