<svg width="16" height="16" viewBox="0 0 16 16" fill="none" xmlns="http://www.w3.org/2000/svg"><path d="M7.600 2.418 C 7.022 2.460,6.221 2.632,5.760 2.814 C 4.495 3.313,3.410 4.180,2.674 5.280 C 2.029 6.246,1.652 7.409,1.609 8.573 C 1.546 10.258,2.189 11.846,3.439 13.093 C 3.786 13.439,3.928 13.536,4.129 13.565 C 4.212 13.577,5.996 13.587,8.093 13.587 L 11.907 13.587 12.027 13.527 C 12.268 13.407,12.766 12.918,13.153 12.422 C 14.317 10.930,14.690 8.952,14.158 7.097 C 13.815 5.902,13.200 4.915,12.267 4.062 C 11.721 3.564,10.975 3.103,10.250 2.818 C 9.508 2.526,8.404 2.360,7.600 2.418 M11.182 5.314 C 11.451 5.457,11.568 5.665,11.571 6.008 C 11.575 6.348,11.581 6.339,10.422 7.507 L 9.549 8.388 9.579 8.627 C 9.604 8.828,9.601 8.901,9.565 9.080 C 9.410 9.836,8.738 10.400,7.992 10.400 C 7.805 10.400,7.469 10.314,7.264 10.213 C 7.074 10.120,6.789 9.854,6.654 9.643 C 6.445 9.316,6.362 8.881,6.438 8.506 C 6.607 7.672,7.426 7.085,8.226 7.225 L 8.406 7.256 9.303 6.367 C 10.185 5.492,10.429 5.273,10.578 5.226 C 10.723 5.179,11.007 5.220,11.182 5.314 " fill="#1A1C1F" stroke="none" fill-rule="evenodd"></path></svg>