<svg xmlns="http://www.w3.org/2000/svg" width="32" height="32" fill="none"><path fill="#1A1C1F" fill-rule="evenodd" d="M14.789 4.058c-3.326.297-6.318 1.7-8.684 4.072-1.7 1.704-2.825 3.577-3.509 5.843-.972 3.221-.743 6.655.655 9.814.754 1.701 2.433 3.973 3.077 4.162.687.201 1.38-.391 1.276-1.089-.039-.258-.094-.339-.769-1.135-2.493-2.941-3.4-6.873-2.46-10.668 1.1-4.436 4.745-7.908 9.252-8.811.927-.185 1.575-.234 2.714-.204 1.48.038 2.657.259 3.899.731.804.306 1.152.277 1.505-.124.399-.455.333-1.071-.154-1.437-.224-.169-1.035-.471-1.886-.705a14.4 14.4 0 0 0-4.916-.449m-1.573 4.371c-.399.211-.592.65-.5 1.139.072.385.519.726.949.724.838-.004 1.297-.967.776-1.629-.252-.321-.846-.434-1.225-.234m4.66.005q-.516.257-.516.873c0 .27.026.367.15.554.237.359.776.534 1.174.383.256-.098.512-.377.592-.649.25-.841-.609-1.552-1.4-1.161m5.697.664c-.119.051-1.431 1.324-3.612 3.503l-3.426 3.422-.467.002c-.548.003-.883.104-1.255.377a1.98 1.98 0 0 0-.798 1.575c-.013 1.734 2.025 2.655 3.322 1.501.456-.405.745-1.178.644-1.718l-.045-.24 3.429-3.44c3.542-3.553 3.646-3.669 3.646-4.08 0-.346-.323-.805-.654-.93-.211-.08-.563-.067-.784.028M9.185 10.755c-.562.278-.715 1.051-.298 1.513.485.536 1.308.451 1.624-.169.125-.246.147-.659.046-.857a1.4 1.4 0 0 0-.488-.5c-.192-.101-.667-.093-.884.013M27.6 12.101a.98.98 0 0 0-.531.551c-.122.292-.105.41.153 1.102 1.527 4.082.736 8.682-2.057 11.97-.245.288-.511.613-.593.721-.441.586-.033 1.464.714 1.535.426.041.667-.106 1.234-.753 1.864-2.126 2.987-4.628 3.374-7.52.103-.766.119-2.434.03-3.2-.185-1.607-.829-3.829-1.218-4.201-.314-.301-.731-.378-1.106-.205M6.904 14.767c-.441.201-.679.677-.561 1.125.125.475.492.767.964.767.841 0 1.301-.982.76-1.624-.172-.205-.506-.366-.76-.366-.103 0-.284.044-.403.098m17.387 0a.985.985 0 0 0-.292 1.605c.569.57 1.533.262 1.681-.537.105-.567-.402-1.166-.987-1.166-.102 0-.283.044-.402.098M6.818 19.468c-.241.127-.395.336-.476.644-.204.774.629 1.456 1.367 1.121.745-.338.793-1.401.08-1.765-.274-.14-.706-.14-.971 0m17.386 0c-.243.129-.393.334-.472.648-.196.781.624 1.453 1.364 1.117.745-.338.793-1.401.079-1.765-.274-.14-.706-.14-.971 0M9.253 23.456c-.312.147-.545.436-.59.734-.147.985 1.02 1.566 1.69.841.207-.223.266-.366.268-.652.006-.715-.74-1.218-1.368-.923m12.816-.043a.98.98 0 0 0-.682.928c0 .299.073.497.256.69.284.301.62.391 1.016.273a.99.99 0 0 0 .687-1.071c-.066-.583-.704-.993-1.277-.82"/></svg>