<svg xmlns="http://www.w3.org/2000/svg" width="14" height="14" fill="none"><g clip-path="url(#a)"><path fill="#1A1C1F" fill-rule="evenodd" d="M12.449 6.402A5.3 5.3 0 0 1 12.6 7.7a5.58 5.58 0 0 1-1.682 4.002.7.7 0 1 1-.98-1A4.18 4.18 0 0 0 11.2 7.698c0-.267-.021-.574-.113-.974a.7.7 0 1 1 1.362-.323M7 2.1c.414 0 .822.04 1.197.121a.7.7 0 1 1-.294 1.369A4.4 4.4 0 0 0 7 3.499 4.2 4.2 0 0 0 4.062 10.7a.7.7 0 0 1-.98 1A5.6 5.6 0 0 1 7 2.1m3.645 1.955a.696.696 0 0 1 0 .99Q9.565 6.13 8.353 7.338A1.402 1.402 0 0 1 7 9.099a1.4 1.4 0 1 1 .363-2.752l2.292-2.293a.7.7 0 0 1 .99 0" clip-rule="evenodd"/></g><defs><clipPath id="a"><path fill="#fff" d="M0 0h14v14H0z"/></clipPath></defs></svg>