<svg width="14" height="14" viewBox="0 0 14 14" fill="none" xmlns="http://www.w3.org/2000/svg"><path d="M6.615 2.116 C 6.182 2.146,5.622 2.262,5.180 2.415 C 4.650 2.597,3.930 2.999,3.485 3.363 C 3.216 3.582,2.750 4.061,2.557 4.317 C 1.813 5.304,1.400 6.509,1.400 7.688 C 1.400 9.089,1.969 10.421,3.010 11.457 C 3.282 11.727,3.406 11.821,3.539 11.860 C 3.659 11.894,9.838 11.912,10.225 11.879 C 10.395 11.864,10.526 11.841,10.575 11.816 C 10.678 11.763,11.237 11.212,11.425 10.978 C 12.862 9.196,12.988 6.765,11.748 4.761 C 11.312 4.057,10.617 3.367,9.905 2.934 C 8.904 2.325,7.753 2.039,6.615 2.116 M9.785 4.649 C 10.020 4.775,10.122 4.957,10.125 5.257 C 10.128 5.554,10.134 5.547,9.120 6.569 L 8.355 7.339 8.381 7.549 C 8.403 7.725,8.401 7.788,8.369 7.945 C 8.234 8.607,7.647 9.100,6.993 9.100 C 6.830 9.100,6.536 9.025,6.356 8.937 C 6.190 8.855,5.941 8.623,5.822 8.438 C 5.639 8.152,5.567 7.771,5.634 7.443 C 5.781 6.714,6.498 6.200,7.197 6.321 L 7.355 6.349 8.140 5.571 C 8.913 4.805,9.126 4.614,9.256 4.572 C 9.383 4.532,9.631 4.568,9.785 4.649 " fill="#1A1C1F" stroke="none" fill-rule="evenodd"></path></svg>