<svg width="16" height="16" viewBox="0 0 16 16" fill="none" xmlns="http://www.w3.org/2000/svg"><path d="M7.320 2.444 C 5.822 2.622,4.516 3.247,3.479 4.280 C 2.536 5.219,1.924 6.415,1.677 7.800 C 1.594 8.267,1.594 9.333,1.677 9.800 C 1.921 11.167,2.520 12.348,3.440 13.277 C 3.686 13.525,3.812 13.586,4.080 13.586 C 4.321 13.586,4.476 13.524,4.636 13.364 C 4.813 13.187,4.865 13.062,4.864 12.813 C 4.863 12.534,4.811 12.423,4.549 12.133 C 4.000 11.527,3.643 10.922,3.430 10.240 C 3.064 9.069,3.158 7.801,3.693 6.703 C 4.343 5.370,5.554 4.425,7.018 4.110 C 7.549 3.995,8.305 3.983,8.893 4.080 C 9.183 4.128,9.387 4.114,9.541 4.038 C 9.799 3.909,10.000 3.595,10.000 3.320 C 10.000 3.011,9.745 2.659,9.460 2.574 C 9.262 2.514,8.899 2.460,8.481 2.428 C 8.022 2.392,7.719 2.396,7.320 2.444 M11.383 4.436 C 11.314 4.455,11.227 4.491,11.189 4.516 C 11.150 4.542,10.508 5.168,9.762 5.909 L 8.405 7.256 8.225 7.224 C 7.583 7.113,6.856 7.504,6.561 8.120 C 6.349 8.562,6.361 9.101,6.593 9.560 C 6.679 9.729,7.113 10.148,7.285 10.226 C 7.489 10.320,7.820 10.400,8.000 10.400 C 8.178 10.400,8.511 10.320,8.709 10.229 C 8.868 10.156,9.236 9.819,9.360 9.632 C 9.536 9.366,9.640 8.834,9.576 8.534 L 9.545 8.389 10.661 7.268 C 12.203 5.718,12.303 5.610,12.360 5.439 C 12.447 5.177,12.370 4.861,12.166 4.652 C 11.981 4.461,11.638 4.367,11.383 4.436 M13.132 6.782 C 12.941 6.873,12.813 6.995,12.738 7.155 C 12.638 7.370,12.632 7.461,12.694 7.807 C 12.844 8.640,12.799 9.520,12.571 10.243 C 12.361 10.907,12.033 11.466,11.493 12.080 C 11.187 12.428,11.138 12.529,11.136 12.813 C 11.135 13.062,11.187 13.187,11.364 13.364 C 11.524 13.524,11.679 13.586,11.920 13.586 C 12.206 13.586,12.322 13.525,12.618 13.221 C 13.492 12.322,14.106 11.089,14.317 9.809 C 14.456 8.970,14.395 7.775,14.184 7.213 C 14.074 6.917,13.822 6.744,13.480 6.727 C 13.297 6.719,13.248 6.726,13.132 6.782 " fill="#1A1C1F" stroke="none" fill-rule="evenodd"></path></svg>