<svg width="28" height="28" viewBox="0 0 28 28" fill="none" xmlns="http://www.w3.org/2000/svg"><path d="M13.253 3.531 C 10.551 3.723,8.180 4.676,6.143 6.388 C 3.674 8.463,2.144 11.334,1.816 14.505 C 1.736 15.275,1.785 16.951,1.907 17.666 C 2.292 19.914,3.140 21.795,4.562 23.556 C 5.323 24.500,5.768 24.693,6.297 24.310 C 6.599 24.091,6.732 23.723,6.626 23.401 C 6.595 23.306,6.337 22.943,6.054 22.593 C 4.900 21.168,4.231 19.884,3.844 18.347 C 3.622 17.469,3.536 16.742,3.535 15.750 C 3.535 14.777,3.621 14.055,3.849 13.140 C 4.736 9.576,7.531 6.700,11.107 5.670 C 12.103 5.383,12.726 5.301,13.883 5.303 C 15.416 5.305,16.132 5.415,17.511 5.861 C 17.940 6.000,18.357 6.113,18.437 6.113 C 18.928 6.113,19.358 5.526,19.225 5.035 C 19.143 4.728,18.887 4.519,18.333 4.302 C 16.889 3.737,14.804 3.421,13.253 3.531 M11.704 7.326 C 11.228 7.470,10.968 8.070,11.185 8.527 C 11.279 8.727,11.572 8.947,11.799 8.989 C 12.024 9.032,12.360 8.936,12.524 8.782 C 12.816 8.509,12.902 8.113,12.744 7.765 C 12.580 7.403,12.108 7.204,11.704 7.326 M15.649 7.396 C 15.380 7.532,15.292 7.639,15.214 7.931 C 15.136 8.219,15.194 8.472,15.385 8.683 C 15.814 9.158,16.521 9.086,16.800 8.539 C 17.076 7.999,16.728 7.366,16.119 7.299 C 15.932 7.278,15.846 7.296,15.649 7.396 M20.727 7.920 C 20.585 7.947,20.050 8.460,16.987 11.508 L 14.443 14.039 13.953 14.057 C 13.531 14.073,13.429 14.093,13.214 14.204 C 12.883 14.375,12.574 14.692,12.421 15.017 C 12.312 15.250,12.297 15.342,12.297 15.750 C 12.297 16.171,12.310 16.244,12.433 16.494 C 12.904 17.454,14.105 17.780,14.976 17.184 C 15.500 16.826,15.821 16.126,15.730 15.540 L 15.698 15.330 18.571 12.437 C 20.151 10.845,21.538 9.419,21.654 9.267 C 21.840 9.021,21.863 8.964,21.863 8.746 C 21.863 8.189,21.335 7.805,20.727 7.920 M8.097 9.401 C 7.779 9.517,7.559 9.854,7.561 10.220 C 7.565 10.714,8.169 11.158,8.645 11.015 C 8.926 10.931,9.077 10.810,9.189 10.578 C 9.464 10.011,9.128 9.387,8.525 9.348 C 8.388 9.339,8.202 9.362,8.097 9.401 M24.243 10.555 C 23.915 10.673,23.613 11.047,23.613 11.335 C 23.613 11.393,23.709 11.717,23.826 12.055 C 24.356 13.589,24.564 15.038,24.455 16.450 C 24.272 18.825,23.480 20.751,21.914 22.633 C 21.381 23.274,21.284 23.480,21.368 23.793 C 21.487 24.237,21.779 24.471,22.218 24.473 C 22.570 24.476,22.760 24.340,23.320 23.683 C 24.905 21.825,25.933 19.426,26.183 17.000 C 26.267 16.194,26.217 14.436,26.092 13.778 C 25.878 12.650,25.482 11.334,25.236 10.929 C 25.046 10.616,24.569 10.436,24.243 10.555 M6.123 12.886 C 5.776 12.986,5.461 13.488,5.532 13.829 C 5.660 14.443,6.312 14.754,6.833 14.448 C 7.153 14.260,7.336 13.824,7.231 13.498 C 7.140 13.221,7.004 13.064,6.748 12.945 C 6.495 12.827,6.369 12.815,6.123 12.886 M21.337 12.886 C 21.252 12.910,21.103 13.010,21.006 13.108 C 20.673 13.440,20.656 13.910,20.962 14.260 C 21.156 14.480,21.333 14.565,21.603 14.567 C 22.018 14.570,22.324 14.336,22.449 13.918 C 22.559 13.551,22.346 13.115,21.967 12.931 C 21.750 12.827,21.584 12.815,21.337 12.886 M6.109 16.982 C 5.762 17.095,5.534 17.421,5.534 17.805 C 5.533 18.099,5.652 18.314,5.920 18.502 C 6.087 18.619,6.164 18.642,6.393 18.642 C 6.622 18.642,6.700 18.619,6.865 18.503 C 7.361 18.152,7.382 17.413,6.904 17.096 C 6.715 16.971,6.319 16.914,6.109 16.982 M21.292 16.989 C 21.209 17.015,21.070 17.106,20.984 17.193 C 20.656 17.520,20.666 18.052,21.005 18.392 C 21.515 18.902,22.357 18.611,22.474 17.884 C 22.515 17.623,22.327 17.222,22.095 17.079 C 21.911 16.965,21.515 16.921,21.292 16.989 M8.199 20.487 C 7.810 20.604,7.526 21.029,7.578 21.414 C 7.685 22.189,8.620 22.440,9.116 21.827 C 9.276 21.629,9.329 21.294,9.243 21.032 C 9.174 20.822,8.880 20.554,8.648 20.490 C 8.444 20.433,8.381 20.433,8.199 20.487 M19.326 20.493 C 19.089 20.562,18.911 20.715,18.801 20.942 C 18.525 21.511,18.935 22.167,19.566 22.167 C 20.019 22.167,20.371 21.848,20.421 21.392 C 20.484 20.823,19.882 20.329,19.326 20.493 " fill="#1A1C1F" stroke="none" fill-rule="evenodd"></path></svg>