<svg xmlns="http://www.w3.org/2000/svg" width="12" height="12" fill="none"><g clip-path="url(#a)"><path fill="#1A1C1F" fill-rule="evenodd" d="M6 1.8c2.648 0 4.8 2.193 4.8 4.8 0 1.373-.602 2.565-1.63 3.454a.64.64 0 0 1-.396.146H3.223a.6.6 0 0 1-.393-.146C1.802 9.165 1.2 7.973 1.2 6.6c0-2.607 2.152-4.8 4.8-4.8m2.524 2.275a.594.594 0 0 0-.848 0Q7.05 4.703 6.31 5.44A1.202 1.202 0 0 0 4.8 6.6a1.2 1.2 0 1 0 2.36-.31l1.364-1.366a.6.6 0 0 0 0-.849" clip-rule="evenodd"/></g><defs><clipPath id="a"><path fill="#fff" d="M0 0h12v12H0z"/></clipPath></defs></svg>