<svg xmlns="http://www.w3.org/2000/svg" width="20" height="20" fill="none"><path fill="#1A1C1F" fill-rule="evenodd" d="M9.3 3.035a8.6 8.6 0 0 0-2.025.451 9 9 0 0 0-2.258 1.281 10 10 0 0 0-1.25 1.25c-1.929 2.43-2.31 5.66-.979 8.299.441.877 1.258 1.904 1.942 2.445.323.255-.04.239 5.27.239 5.313 0 4.946.017 5.273-.241.253-.199.772-.729 1.038-1.06q1.593-1.979 1.679-4.432c.066-1.891-.549-3.729-1.757-5.25a10 10 0 0 0-1.25-1.25 9 9 0 0 0-2.258-1.281A8.2 8.2 0 0 0 9.3 3.035m4.543 3.532c.398.149.64.496.64.916 0 .446.016.426-1.338 1.785l-1.213 1.218.034.178c.118.622-.089 1.261-.562 1.735a1.83 1.83 0 0 1-.924.535c-.47.12-.981.058-1.424-.173-.3-.157-.682-.551-.835-.863-.391-.796-.247-1.678.376-2.301.473-.473 1.117-.681 1.739-.563l.178.034 1.202-1.197c1.119-1.116 1.297-1.273 1.517-1.34.157-.048.429-.032.61.036"/></svg>