<svg width="14" height="14" viewBox="0 0 14 14" fill="none" xmlns="http://www.w3.org/2000/svg"><path d="M6.405 2.138 C 5.094 2.295,3.952 2.841,3.044 3.745 C 2.219 4.566,1.684 5.613,1.468 6.825 C 1.395 7.233,1.395 8.167,1.468 8.575 C 1.638 9.530,1.988 10.346,2.546 11.083 C 2.817 11.442,3.138 11.770,3.283 11.836 C 3.437 11.907,3.701 11.908,3.853 11.838 C 3.985 11.778,4.133 11.634,4.204 11.498 C 4.246 11.418,4.256 11.361,4.256 11.212 C 4.255 10.967,4.209 10.869,3.980 10.617 C 3.522 10.114,3.216 9.605,3.024 9.030 C 2.677 7.988,2.751 6.858,3.231 5.867 C 3.795 4.703,4.860 3.872,6.142 3.596 C 6.596 3.498,7.281 3.487,7.782 3.570 C 8.035 3.612,8.214 3.600,8.348 3.533 C 8.599 3.408,8.764 3.125,8.744 2.858 C 8.738 2.778,8.710 2.672,8.680 2.613 C 8.607 2.467,8.422 2.298,8.288 2.254 C 8.133 2.203,7.790 2.153,7.408 2.124 C 6.991 2.094,6.754 2.097,6.405 2.138 M9.960 3.882 C 9.900 3.898,9.824 3.930,9.790 3.952 C 9.756 3.974,9.195 4.522,8.542 5.169 L 7.356 6.347 7.176 6.319 C 6.609 6.231,5.970 6.590,5.726 7.132 C 5.643 7.318,5.591 7.611,5.608 7.804 C 5.622 7.973,5.689 8.209,5.764 8.353 C 5.865 8.550,6.185 8.858,6.384 8.951 C 6.551 9.029,6.844 9.100,7.000 9.100 C 7.156 9.100,7.447 9.030,7.620 8.951 C 7.760 8.887,8.082 8.591,8.190 8.428 C 8.344 8.196,8.435 7.730,8.379 7.467 L 8.352 7.340 9.328 6.359 C 10.651 5.031,10.765 4.908,10.812 4.771 C 10.885 4.557,10.844 4.332,10.695 4.122 C 10.557 3.929,10.207 3.814,9.960 3.882 M11.492 5.934 C 11.263 6.043,11.132 6.203,11.083 6.433 C 11.061 6.533,11.065 6.599,11.107 6.829 C 11.238 7.555,11.199 8.332,10.999 8.963 C 10.817 9.539,10.525 10.038,10.057 10.570 C 9.788 10.875,9.745 10.963,9.744 11.212 C 9.743 11.429,9.789 11.539,9.943 11.693 C 10.083 11.833,10.219 11.887,10.430 11.887 C 10.674 11.887,10.782 11.833,11.017 11.592 C 11.964 10.619,12.532 9.302,12.589 7.945 C 12.614 7.349,12.538 6.651,12.411 6.312 C 12.314 6.053,12.094 5.901,11.795 5.886 C 11.635 5.879,11.592 5.886,11.492 5.934 " fill="#1A1C1F" stroke="none" fill-rule="evenodd"></path></svg>