<svg width="12" height="12" viewBox="0 0 12 12" fill="none" xmlns="http://www.w3.org/2000/svg"><path d="M5.490 1.833 C 4.753 1.921,4.104 2.141,3.502 2.508 C 2.303 3.239,1.504 4.429,1.258 5.853 C 1.221 6.071,1.214 6.185,1.214 6.600 C 1.214 7.017,1.220 7.128,1.258 7.347 C 1.430 8.337,1.880 9.240,2.537 9.916 C 2.759 10.144,2.846 10.189,3.060 10.189 C 3.241 10.189,3.357 10.143,3.477 10.023 C 3.610 9.890,3.648 9.796,3.648 9.610 C 3.647 9.400,3.608 9.316,3.411 9.100 C 2.568 8.173,2.244 7.046,2.482 5.870 C 2.763 4.480,3.878 3.366,5.277 3.079 C 5.674 2.997,6.242 2.989,6.670 3.060 C 6.887 3.096,7.040 3.086,7.156 3.028 C 7.349 2.932,7.500 2.696,7.500 2.490 C 7.500 2.265,7.313 2.000,7.106 1.932 C 6.972 1.888,6.679 1.845,6.350 1.821 C 5.992 1.794,5.789 1.797,5.490 1.833 M8.537 3.327 C 8.486 3.341,8.421 3.368,8.392 3.387 C 8.364 3.405,7.883 3.875,7.323 4.430 L 6.305 5.440 6.151 5.416 C 5.748 5.354,5.304 5.546,5.038 5.899 C 4.771 6.255,4.732 6.756,4.940 7.160 C 5.028 7.328,5.302 7.593,5.472 7.672 C 5.615 7.739,5.866 7.800,6.000 7.800 C 6.134 7.800,6.383 7.740,6.531 7.672 C 6.651 7.617,6.927 7.364,7.020 7.224 C 7.152 7.025,7.230 6.626,7.182 6.400 L 7.159 6.292 8.006 5.441 C 9.154 4.288,9.227 4.208,9.270 4.079 C 9.335 3.883,9.274 3.636,9.123 3.484 C 8.984 3.345,8.725 3.276,8.537 3.327 M9.849 5.086 C 9.706 5.155,9.609 5.246,9.553 5.366 C 9.478 5.527,9.474 5.596,9.520 5.855 C 9.633 6.484,9.600 7.137,9.428 7.682 C 9.272 8.177,9.021 8.604,8.620 9.060 C 8.390 9.321,8.353 9.397,8.352 9.610 C 8.352 9.796,8.390 9.890,8.523 10.023 C 8.643 10.143,8.759 10.189,8.940 10.189 C 9.154 10.189,9.241 10.144,9.463 9.916 C 10.255 9.102,10.742 7.961,10.791 6.810 C 10.812 6.299,10.747 5.700,10.638 5.410 C 10.555 5.188,10.366 5.058,10.110 5.046 C 9.972 5.039,9.936 5.045,9.849 5.086 " fill="#1A1C1F" stroke="none" fill-rule="evenodd"></path></svg>