<svg xmlns="http://www.w3.org/2000/svg" width="12" height="12" fill="none"><g clip-path="url(#a)"><path fill="#1A1C1F" fill-rule="evenodd" d="M10.67 5.488c.111.468.13.807.13 1.111a4.79 4.79 0 0 1-1.442 3.43.6.6 0 1 1-.84-.857A3.59 3.59 0 0 0 9.6 6.599c0-.229-.018-.492-.097-.834a.6.6 0 0 1 1.167-.277M6 1.799c.354 0 .705.035 1.026.104a.6.6 0 0 1-.252 1.173A3.7 3.7 0 0 0 6 3a3.6 3.6 0 0 0-2.519 6.173.6.6 0 1 1-.84.857A4.8 4.8 0 0 1 6 1.8m3.124 1.676a.596.596 0 0 1 0 .849q-.924.93-1.964 1.965A1.202 1.202 0 0 1 6 7.8a1.2 1.2 0 1 1 .311-2.359l1.965-1.965a.6.6 0 0 1 .848 0" clip-rule="evenodd"/></g><defs><clipPath id="a"><path fill="#fff" d="M0 0h12v12H0z"/></clipPath></defs></svg>