<svg xmlns="http://www.w3.org/2000/svg" width="28" height="28" fill="none"><g clip-path="url(#a)"><path fill="#1A1C1F" fill-rule="evenodd" d="M25.305 11.032c.62 1.454.945 3.075.945 4.718a12.2 12.2 0 0 1-3.411 8.481.875.875 0 0 1-1.263-1.212 10.46 10.46 0 0 0 2.924-7.27c0-1.408-.279-2.796-.805-4.031a.875.875 0 1 1 1.61-.686M14 3.5c1.64 0 3.238.323 4.72.942a.875.875 0 1 1-.674 1.615A10.5 10.5 0 0 0 14 5.25c-5.799 0-10.5 4.7-10.5 10.5a10.46 10.46 0 0 0 2.924 7.27.875.875 0 0 1-1.263 1.211A12.2 12.2 0 0 1 1.75 15.75C1.75 8.984 7.235 3.5 14 3.5m6.189 17.2a.875.875 0 1 1-1.238 1.237.875.875 0 0 1 1.238-1.238m-11.137 0a.875.875 0 1 1-1.237 1.237.875.875 0 0 1 1.237-1.238m12.783-3.757a.875.875 0 1 1-.453 1.69.875.875 0 0 1 .453-1.69M7.24 17.56a.875.875 0 1 1-1.69.453.875.875 0 0 1 1.69-.453m14.379-9.43a.874.874 0 0 1 0 1.237l-5.926 5.93q.059.218.059.452a1.75 1.75 0 1 1-1.3-1.692l5.93-5.927a.875.875 0 0 1 1.237 0m.835 5.354a.875.875 0 1 1-1.69.453.875.875 0 0 1 1.69-.453m-15.832-.619a.875.875 0 1 1-.453 1.69.875.875 0 0 1 .453-1.69m2.43-3.303A.875.875 0 1 1 7.815 10.8a.875.875 0 0 1 1.237-1.237m7.215-2.265a.875.875 0 1 1-.453 1.69.875.875 0 0 1 .453-1.69m-3.458.619a.875.875 0 1 1-1.69.453.875.875 0 0 1 1.69-.453" clip-rule="evenodd"/></g><defs><clipPath id="a"><path fill="#fff" d="M0 0h28v28H0z"/></clipPath></defs></svg>