<svg width="20" height="20" viewBox="0 0 20 20" fill="none" xmlns="http://www.w3.org/2000/svg"><path d="M9.339 3.037 C 7.945 3.161,6.741 3.593,5.517 4.410 C 4.694 4.959,3.866 5.799,3.325 6.633 C 2.504 7.899,2.065 9.263,2.011 10.717 C 1.932 12.824,2.738 14.813,4.300 16.367 C 4.689 16.753,4.865 16.888,5.056 16.942 C 5.228 16.992,14.055 17.017,14.607 16.970 C 14.850 16.949,15.038 16.916,15.107 16.880 C 15.267 16.797,16.034 16.036,16.332 15.664 C 17.564 14.127,18.142 12.236,17.966 10.317 C 17.830 8.827,17.270 7.392,16.347 6.167 C 16.075 5.806,15.407 5.118,15.033 4.813 C 14.470 4.354,13.541 3.812,12.847 3.537 C 11.826 3.133,10.457 2.937,9.339 3.037 M13.978 6.642 C 14.314 6.821,14.460 7.081,14.464 7.510 C 14.468 7.935,14.477 7.924,13.028 9.384 L 11.936 10.485 11.973 10.784 C 12.005 11.036,12.002 11.126,11.956 11.350 C 11.792 12.149,11.188 12.773,10.410 12.946 C 9.973 13.044,9.555 12.991,9.115 12.782 C 8.844 12.654,8.500 12.340,8.318 12.054 C 8.056 11.645,7.953 11.102,8.048 10.633 C 8.259 9.591,9.283 8.857,10.282 9.031 L 10.508 9.070 11.629 7.958 C 12.732 6.865,13.036 6.592,13.223 6.532 C 13.404 6.474,13.759 6.525,13.978 6.642 " fill="#1A1C1F" stroke="none" fill-rule="evenodd"></path></svg>