<svg width="12" height="12" viewBox="0 0 12 12" fill="none" xmlns="http://www.w3.org/2000/svg"><path d="M5.660 1.814 C 5.279 1.844,4.813 1.941,4.440 2.070 C 3.985 2.226,3.368 2.572,2.987 2.882 C 2.784 3.048,2.406 3.428,2.254 3.619 C 1.247 4.886,0.943 6.538,1.440 8.040 C 1.523 8.291,1.766 8.785,1.917 9.010 C 2.216 9.456,2.758 10.036,2.979 10.146 L 3.088 10.200 5.819 10.200 C 8.478 10.199,8.945 10.190,9.048 10.136 C 9.223 10.044,9.624 9.631,9.915 9.243 C 10.981 7.826,11.090 5.921,10.197 4.299 C 9.972 3.890,9.742 3.586,9.392 3.235 C 9.003 2.845,8.666 2.595,8.194 2.349 C 7.412 1.942,6.499 1.749,5.660 1.814 M8.387 3.985 C 8.589 4.093,8.676 4.249,8.678 4.506 C 8.681 4.761,8.686 4.754,7.815 5.632 L 7.159 6.294 7.181 6.441 C 7.236 6.793,7.111 7.155,6.840 7.433 C 6.686 7.589,6.556 7.673,6.370 7.732 C 5.943 7.869,5.501 7.771,5.193 7.471 C 5.029 7.310,4.935 7.167,4.872 6.977 C 4.675 6.386,4.947 5.777,5.529 5.509 C 5.731 5.415,5.932 5.385,6.145 5.416 L 6.307 5.440 6.979 4.774 C 7.635 4.123,7.808 3.968,7.930 3.923 C 8.037 3.883,8.251 3.913,8.387 3.985 " fill="#1A1C1F" stroke="none" fill-rule="evenodd"></path></svg>