<svg width="12" height="12" viewBox="0 0 12 12" fill="none" xmlns="http://www.w3.org/2000/svg"><path d="M5.620 1.813 C 4.457 1.895,3.542 2.164,2.677 2.679 C 2.099 3.023,1.375 3.631,1.259 3.870 C 1.187 4.018,1.190 4.229,1.266 4.384 C 1.371 4.598,1.566 4.720,1.804 4.720 C 1.965 4.720,2.057 4.668,2.361 4.405 C 2.820 4.008,3.146 3.782,3.579 3.561 C 4.332 3.178,5.115 2.999,6.040 2.999 C 6.456 2.999,6.695 3.020,7.060 3.091 C 7.972 3.269,8.808 3.701,9.610 4.409 C 9.911 4.675,9.966 4.705,10.171 4.716 C 10.315 4.724,10.350 4.719,10.444 4.675 C 10.573 4.616,10.681 4.510,10.744 4.383 C 10.806 4.257,10.807 4.032,10.745 3.895 C 10.667 3.721,10.149 3.254,9.690 2.942 C 8.855 2.375,7.936 2.015,6.954 1.871 C 6.780 1.845,5.806 1.792,5.730 1.804 C 5.719 1.806,5.670 1.810,5.620 1.813 M5.553 4.822 C 4.885 4.896,4.165 5.246,3.660 5.740 C 3.453 5.943,3.408 6.041,3.425 6.255 C 3.457 6.648,3.817 6.890,4.206 6.781 C 4.292 6.757,4.345 6.721,4.609 6.505 C 4.999 6.187,5.408 6.033,5.930 6.008 C 6.334 5.988,6.692 6.063,7.049 6.243 C 7.243 6.341,7.338 6.405,7.569 6.594 C 7.838 6.813,7.981 6.855,8.229 6.786 C 8.328 6.759,8.370 6.732,8.461 6.641 C 8.601 6.501,8.650 6.365,8.635 6.159 C 8.622 5.968,8.550 5.848,8.338 5.664 C 7.887 5.271,7.285 4.974,6.704 4.859 C 6.472 4.813,5.824 4.792,5.553 4.822 M5.768 7.828 C 5.564 7.867,5.328 7.995,5.162 8.158 C 5.008 8.308,4.938 8.418,4.864 8.625 C 4.793 8.827,4.790 9.166,4.858 9.360 C 5.003 9.773,5.338 10.076,5.754 10.168 C 5.945 10.210,6.081 10.208,6.272 10.160 C 6.513 10.099,6.662 10.016,6.827 9.853 C 6.994 9.689,7.064 9.579,7.133 9.375 C 7.423 8.521,6.660 7.658,5.768 7.828 " fill="#1A1C1F" stroke="none" fill-rule="evenodd"></path></svg>