<svg width="12" height="12" viewBox="0 0 12 12" fill="none" xmlns="http://www.w3.org/2000/svg"><path d="M5.920 1.813 C 4.916 1.884,4.174 2.072,3.408 2.450 C 2.821 2.739,2.217 3.165,1.789 3.590 C 1.560 3.817,1.510 3.912,1.510 4.120 C 1.510 4.244,1.520 4.290,1.566 4.384 C 1.671 4.598,1.866 4.720,2.104 4.720 C 2.266 4.720,2.357 4.668,2.670 4.397 C 3.497 3.682,4.218 3.311,5.170 3.113 C 5.605 3.022,5.937 2.995,6.470 3.006 C 7.084 3.019,7.371 3.064,7.944 3.241 L 8.146 3.304 7.401 4.049 L 6.656 4.794 6.253 4.806 C 6.021 4.813,5.770 4.832,5.660 4.851 C 5.117 4.946,4.518 5.244,4.060 5.644 C 3.776 5.892,3.706 6.019,3.725 6.251 C 3.751 6.576,4.005 6.809,4.332 6.810 C 4.453 6.810,4.492 6.801,4.600 6.745 C 4.669 6.709,4.730 6.684,4.735 6.689 C 4.740 6.694,4.277 7.169,3.707 7.744 C 2.406 9.055,2.183 9.289,2.144 9.378 C 2.095 9.494,2.101 9.750,2.157 9.856 C 2.290 10.110,2.572 10.244,2.838 10.181 C 2.919 10.161,2.975 10.125,3.115 10.004 C 3.333 9.814,8.958 4.204,9.809 3.328 C 10.373 2.747,10.435 2.675,10.466 2.580 C 10.556 2.303,10.441 2.021,10.184 1.884 C 10.077 1.827,10.047 1.820,9.899 1.820 C 9.670 1.820,9.608 1.854,9.299 2.154 L 9.043 2.402 8.946 2.354 C 8.595 2.176,7.804 1.950,7.254 1.870 C 7.079 1.845,6.105 1.792,6.030 1.804 C 6.019 1.806,5.970 1.810,5.920 1.813 M6.064 8.767 C 5.343 9.486,5.257 9.579,5.270 9.620 C 5.289 9.681,5.543 9.933,5.669 10.016 C 5.930 10.187,6.354 10.241,6.657 10.142 C 7.012 10.026,7.334 9.705,7.442 9.361 C 7.559 8.987,7.478 8.555,7.233 8.256 C 7.136 8.137,6.933 7.960,6.895 7.960 C 6.883 7.960,6.509 8.323,6.064 8.767 " fill="#1A1C1F" stroke="none" fill-rule="evenodd"></path></svg>