<svg xmlns="http://www.w3.org/2000/svg" width="28" height="28" fill="none"><g clip-path="url(#a)"><path fill="#1A1C1F" fill-rule="evenodd" d="M24.244 3.756a.87.87 0 0 1 0 1.238 54082 54082 0 0 1-19.25 19.25.875.875 0 0 1-1.238 0 .884.884 0 0 1 0-1.238q2.421-2.425 4.847-4.846a.92.92 0 0 1-.318-.687c0-.164.055-.315.16-.468 1.034-1.5 2.522-2.534 4.204-2.893l2.637-2.638A8.4 8.4 0 0 0 14 11.375c-2.926 0-5.664 1.504-7.381 3.993-.17.245-.467.355-.74.355a.86.86 0 0 1-.848-.875.94.94 0 0 1 .166-.519C7.243 11.402 10.5 9.625 14 9.625c.941 0 1.867.13 2.757.38l2.069-2.07A12.9 12.9 0 0 0 14 7C9.762 7 5.859 9.05 3.333 12.521a.92.92 0 0 1-.735.385c-.493 0-.848-.41-.848-.875q0-.286.167-.518C4.752 7.603 9.187 5.25 14 5.25c2.168 0 4.259.472 6.162 1.35l2.844-2.844a.875.875 0 0 1 1.238 0M13.986 18.375c1.43 0 2.639 1.203 2.639 2.652 0 1.422-1.21 2.598-2.639 2.598s-2.611-1.176-2.611-2.598c0-1.449 1.182-2.652 2.611-2.652m0 1.75c-.472 0-.861.41-.861.902 0 .465.389.848.861.848s.889-.383.889-.848a.91.91 0 0 0-.889-.902m2.989-5.412a7.14 7.14 0 0 1 2.552 2.292c.106.153.16.304.16.468 0 .273-.164.567-.407.741a.8.8 0 0 1-.468.161.9.9 0 0 1-.739-.41 5.16 5.16 0 0 0-2.417-1.933zm3.11-3.11a11.3 11.3 0 0 1 2.69 2.726.94.94 0 0 1 .167.519c0 .492-.41.875-.848.875a.89.89 0 0 1-.734-.359 9.9 9.9 0 0 0-2.542-2.494zm3.121-3.121a15.4 15.4 0 0 1 2.878 3.031.86.86 0 0 1 .166.518c0 .465-.355.875-.848.875a.92.92 0 0 1-.735-.385 13.7 13.7 0 0 0-2.709-2.79z" clip-rule="evenodd"/></g><defs><clipPath id="a"><path fill="#fff" d="M0 0h28v28H0z"/></clipPath></defs></svg>