<svg width="20" height="20" viewBox="0 0 20 20" fill="none" xmlns="http://www.w3.org/2000/svg"><path d="M9.867 3.023 C 7.399 3.189,5.502 3.905,3.699 5.351 C 3.149 5.791,2.701 6.239,2.598 6.450 C 2.478 6.697,2.483 7.047,2.610 7.307 C 2.785 7.664,3.111 7.867,3.507 7.867 C 3.768 7.867,3.932 7.778,4.350 7.414 C 5.187 6.683,5.735 6.302,6.471 5.936 C 7.872 5.239,9.117 4.971,10.765 5.010 C 11.742 5.033,12.368 5.132,13.247 5.403 L 13.578 5.505 12.336 6.748 L 11.093 7.990 10.422 8.010 C 10.034 8.021,9.616 8.053,9.433 8.085 C 8.529 8.244,7.530 8.739,6.766 9.407 C 6.294 9.821,6.177 10.031,6.208 10.418 C 6.252 10.959,6.674 11.349,7.220 11.350 C 7.422 11.350,7.487 11.334,7.667 11.241 C 7.782 11.182,7.884 11.140,7.892 11.148 C 7.901 11.156,7.122 11.955,6.161 12.923 C 4.006 15.095,3.639 15.480,3.574 15.631 C 3.491 15.823,3.503 16.251,3.594 16.426 C 3.817 16.850,4.286 17.074,4.729 16.968 C 4.865 16.935,4.959 16.875,5.191 16.673 C 5.555 16.356,14.854 7.083,16.314 5.580 C 17.287 4.579,17.392 4.460,17.443 4.301 C 17.593 3.839,17.402 3.368,16.974 3.140 C 16.795 3.045,16.745 3.033,16.498 3.033 C 16.117 3.033,16.014 3.091,15.498 3.590 L 15.071 4.004 14.911 3.923 C 14.128 3.532,12.625 3.145,11.590 3.069 C 11.110 3.033,10.106 3.006,9.867 3.023 M10.107 14.611 C 8.905 15.810,8.761 15.964,8.783 16.034 C 8.816 16.135,9.238 16.555,9.445 16.690 C 9.534 16.749,9.729 16.838,9.878 16.889 C 10.107 16.967,10.206 16.982,10.500 16.983 C 10.917 16.983,11.222 16.899,11.538 16.694 C 12.737 15.920,12.822 14.321,11.713 13.418 C 11.611 13.335,11.511 13.267,11.491 13.267 C 11.471 13.267,10.848 13.872,10.107 14.611 " fill="#1A1C1F" stroke="none" fill-rule="evenodd"></path></svg>