<svg width="14" height="14" viewBox="0 0 14 14" fill="none" xmlns="http://www.w3.org/2000/svg"><path d="M6.918 2.117 C 5.357 2.201,4.019 2.673,2.842 3.554 C 2.435 3.858,2.057 4.190,1.924 4.359 C 1.736 4.597,1.704 4.862,1.832 5.124 C 1.949 5.364,2.181 5.507,2.455 5.507 C 2.639 5.507,2.755 5.444,3.045 5.190 C 3.619 4.687,4.013 4.412,4.529 4.155 C 5.510 3.667,6.382 3.479,7.536 3.507 C 8.220 3.523,8.657 3.592,9.273 3.782 L 9.504 3.854 8.635 4.723 L 7.765 5.593 7.295 5.607 C 7.024 5.615,6.731 5.637,6.603 5.659 C 5.970 5.771,5.271 6.117,4.736 6.585 C 4.406 6.874,4.324 7.022,4.346 7.293 C 4.376 7.671,4.672 7.944,5.054 7.945 C 5.195 7.945,5.241 7.934,5.367 7.869 C 5.448 7.827,5.519 7.798,5.525 7.804 C 5.530 7.809,4.985 8.369,4.313 9.046 C 2.804 10.567,2.547 10.836,2.502 10.942 C 2.444 11.076,2.452 11.376,2.516 11.498 C 2.672 11.795,3.000 11.952,3.311 11.877 C 3.405 11.855,3.471 11.812,3.634 11.671 C 3.889 11.449,10.398 4.958,11.421 3.905 C 12.130 3.175,12.174 3.125,12.214 2.998 C 12.316 2.674,12.158 2.321,11.847 2.175 C 11.693 2.103,11.399 2.102,11.251 2.174 C 11.193 2.202,11.017 2.350,10.849 2.513 L 10.550 2.802 10.438 2.746 C 10.072 2.562,9.297 2.328,8.685 2.218 C 8.287 2.147,7.352 2.093,6.918 2.117 M7.075 10.228 C 6.234 11.067,6.133 11.175,6.148 11.223 C 6.171 11.295,6.467 11.588,6.614 11.685 C 6.771 11.788,7.065 11.879,7.292 11.893 C 7.760 11.923,8.234 11.677,8.513 11.259 C 8.917 10.655,8.785 9.870,8.199 9.392 C 8.127 9.334,8.058 9.287,8.044 9.287 C 8.030 9.287,7.594 9.710,7.075 10.228 " fill="#1A1C1F" stroke="none" fill-rule="evenodd"></path></svg>