<svg xmlns="http://www.w3.org/2000/svg" width="32" height="32" fill="none"><path fill="#1A1C1F" fill-rule="evenodd" d="M26.613 4.084c-.114.049-.839.732-1.875 1.766L23.05 7.536l-.658-.27a17 17 0 0 0-3.964-1.088c-.907-.14-2.93-.191-3.929-.1-4.584.417-8.832 2.716-11.751 6.36-.632.788-.742.985-.737 1.325a.97.97 0 0 0 1.516.811c.078-.052.388-.406.69-.787 2.246-2.838 5.42-4.803 8.876-5.493 1.062-.212 1.64-.263 2.96-.261 1.394.002 2.23.099 3.453.398.637.156 1.869.553 1.946.628.022.021-.483.56-1.122 1.198l-1.162 1.16-.797-.159c-3.48-.697-6.855.101-9.755 2.307-.909.691-2.37 2.253-2.74 2.928-.266.485-.056 1.131.445 1.374.277.134.637.126.923-.022.086-.045.387-.378.669-.741 1.6-2.063 3.698-3.385 6.207-3.913.608-.128.798-.144 1.8-.147.616-.002 1.214.016 1.329.04l.209.044-1.508 1.509c-1.501 1.501-1.51 1.509-1.809 1.574-.738.16-1.848.697-2.599 1.256-.947.707-1.934 1.838-2.049 2.349-.055.242.05.623.222.806l.121.129L7 23.589c-1.962 1.963-2.862 2.899-2.918 3.036a.9.9 0 0 0 .017.762c.141.31.432.545.731.59.56.084-.347.944 11.829-11.221C24.427 8.994 27.828 5.562 27.898 5.413c.243-.518.031-1.061-.511-1.312a.92.92 0 0 0-.774-.017m-.794 6.337-.708.709.445.364c.68.559 1.618 1.525 2.225 2.293.618.781.84.954 1.231.954.713 0 1.192-.772.883-1.423-.103-.217-.873-1.193-1.436-1.82-.367-.408-1.517-1.488-1.796-1.687l-.137-.098zm-3.578 3.578c-.394.395-.705.726-.692.737l.451.335c.564.418 1.538 1.365 1.957 1.902.534.685.642.798.869.901a.964.964 0 0 0 1.338-.627c.064-.218.068-.324.022-.508-.16-.633-2.067-2.709-3.095-3.369l-.135-.087zm-3.587 3.588-.731.733.545.282c.72.372 1.387.915 1.839 1.495.493.633.656.782.944.862.195.055.292.056.459.006.274-.082.575-.348.697-.618.19-.417.114-.668-.399-1.325a9.1 9.1 0 0 0-1.936-1.793c-.313-.207-.595-.376-.628-.376-.032 0-.388.33-.79.734m-3.294 3.484c-.436.084-1.089.451-1.455.817-1.192 1.191-1.198 3.038-.014 4.221 1.187 1.188 3.036 1.175 4.239-.03.703-.703 1-1.7.798-2.676-.225-1.09-1.241-2.106-2.331-2.331a3.8 3.8 0 0 0-1.237-.001m1.118 2.081c.378.212.593.704.484 1.109-.108.398-.583.752-1.01.752-.163 0-.488-.144-.636-.282-.538-.503-.307-1.468.406-1.694.199-.063.528-.013.756.115"/></svg>