<svg xmlns="http://www.w3.org/2000/svg" width="12" height="12" fill="none"><g clip-path="url(#a)"><path fill="#1A1C1F" fill-rule="evenodd" d="M6.88 7.949c.368.202.62.592.62 1.051 0 .656-.525 1.2-1.2 1.2a1.2 1.2 0 0 1-1.052-.62zM6.339 1.8c.943 0 1.869.207 2.714.598l.424-.422a.6.6 0 0 1 .898.792l-.05.056-7.2 7.2a.6.6 0 0 1-.848 0c-.217-.216-.253-.562 0-.848L4.76 6.69c.013-.016 0-.042-.016-.042a.6.6 0 0 1-.431.17c-.357 0-.6-.32-.6-.602 0-.15.056-.32.187-.432.694-.658 1.444-.996 2.438-.996q.156 0 .311.014l1.495-1.494a5.2 5.2 0 0 0-1.806-.324c-1.482 0-2.813.545-3.825 1.56a.6.6 0 0 1-.413.188c-.263 0-.6-.207-.6-.602 0-.169.056-.3.169-.432C2.962 2.42 4.444 1.8 6.338 1.8" clip-rule="evenodd"/></g><defs><clipPath id="a"><path fill="#fff" d="M0 0h12v12H0z"/></clipPath></defs></svg>