<svg xmlns="http://www.w3.org/2000/svg" width="14" height="14" fill="none"><g clip-path="url(#a)"><path fill="#1A1C1F" fill-rule="evenodd" d="M1.4 4.819c0-.198.066-.351.197-.505C3.107 2.824 4.834 2.1 7.044 2.1c1.99 0 3.915.79 5.337 2.214a.76.76 0 0 1 .219.505.68.68 0 0 1-.7.701.77.77 0 0 1-.503-.197A6.07 6.07 0 0 0 7.044 3.48c-1.728 0-3.281.636-4.463 1.82a.7.7 0 0 1-.481.22c-.306 0-.7-.242-.7-.702m2.581 2.433c0-.175.066-.373.219-.504.81-.767 1.684-1.162 2.844-1.162 1.072 0 2.078.416 2.844 1.162a.68.68 0 0 1 .196.504c0 .329-.218.702-.7.702a.68.68 0 0 1-.48-.198 2.69 2.69 0 0 0-1.86-.767c-.7 0-1.4.285-1.86.767a.7.7 0 0 1-.503.198c-.415 0-.7-.373-.7-.702M5.6 10.5c0-.766.613-1.4 1.4-1.4.766 0 1.4.612 1.4 1.4 0 .766-.612 1.4-1.4 1.4-.766 0-1.4-.613-1.4-1.4" clip-rule="evenodd"/></g><defs><clipPath id="a"><path fill="#fff" d="M0 0h14v14H0z"/></clipPath></defs></svg>