<svg width="16" height="16" viewBox="0 0 16 16" fill="none" xmlns="http://www.w3.org/2000/svg"><path d="M7.893 2.418 C 5.990 2.547,4.530 3.075,3.143 4.137 C 2.755 4.435,2.333 4.812,2.199 4.981 C 1.917 5.338,1.947 5.801,2.270 6.092 C 2.425 6.230,2.592 6.293,2.806 6.293 C 3.014 6.293,3.146 6.223,3.480 5.931 C 4.150 5.347,4.588 5.042,5.177 4.749 C 6.298 4.191,7.294 3.976,8.612 4.008 C 9.394 4.026,9.894 4.105,10.598 4.323 L 10.862 4.404 9.868 5.398 L 8.875 6.392 8.337 6.408 C 8.035 6.417,7.689 6.443,7.547 6.467 C 6.832 6.591,6.023 6.992,5.413 7.526 C 5.035 7.857,4.942 8.025,4.967 8.334 C 5.001 8.767,5.340 9.079,5.776 9.080 C 5.937 9.080,5.989 9.067,6.133 8.993 C 6.226 8.945,6.307 8.912,6.314 8.918 C 6.320 8.925,5.703 9.558,4.942 10.325 C 3.209 12.073,2.911 12.385,2.859 12.504 C 2.793 12.658,2.802 13.001,2.876 13.141 C 3.053 13.480,3.429 13.659,3.783 13.574 C 3.892 13.548,3.967 13.500,4.153 13.338 C 4.444 13.086,11.880 5.669,13.051 4.464 C 13.830 3.663,13.914 3.568,13.955 3.441 C 14.074 3.071,13.922 2.695,13.579 2.512 C 13.436 2.436,13.396 2.427,13.198 2.427 C 12.893 2.427,12.811 2.472,12.399 2.872 L 12.057 3.203 11.929 3.139 C 11.303 2.826,10.100 2.516,9.272 2.455 C 8.888 2.427,8.085 2.405,7.893 2.418 M8.085 11.689 C 7.124 12.648,7.009 12.771,7.027 12.827 C 7.053 12.909,7.391 13.244,7.559 13.354 C 7.739 13.472,8.074 13.576,8.333 13.592 C 8.869 13.626,9.410 13.345,9.729 12.868 C 10.191 12.177,10.040 11.280,9.370 10.734 C 9.289 10.668,9.209 10.613,9.193 10.613 C 9.177 10.613,8.679 11.097,8.085 11.689 " fill="#1A1C1F" stroke="none" fill-rule="evenodd"></path></svg>