<svg width="24" height="24" viewBox="0 0 24 24" fill="none" xmlns="http://www.w3.org/2000/svg"><path d="M11.280 4.024 C 8.749 4.203,6.358 5.133,4.463 6.675 C 3.508 7.452,2.438 8.611,2.133 9.199 C 1.924 9.602,1.970 9.966,2.272 10.289 C 2.524 10.558,2.722 10.656,3.008 10.654 C 3.375 10.652,3.560 10.531,3.953 10.038 C 5.012 8.710,6.056 7.841,7.421 7.152 C 9.054 6.328,10.172 6.067,12.080 6.067 C 13.842 6.067,15.051 6.329,16.460 7.018 C 17.805 7.675,18.886 8.569,19.928 9.884 C 20.464 10.561,20.603 10.659,21.020 10.657 C 21.645 10.655,22.127 10.019,21.964 9.414 C 21.833 8.928,20.548 7.472,19.540 6.666 C 17.752 5.238,15.663 4.361,13.421 4.097 C 12.931 4.039,11.675 3.997,11.280 4.024 M11.200 7.985 C 11.145 7.993,10.938 8.020,10.740 8.045 C 10.311 8.098,9.591 8.271,9.120 8.433 C 7.805 8.886,6.610 9.659,5.589 10.716 C 4.599 11.742,4.327 12.323,4.611 12.809 C 4.820 13.165,5.224 13.390,5.581 13.350 C 5.926 13.311,6.090 13.190,6.533 12.646 C 7.157 11.882,7.754 11.362,8.533 10.903 C 9.638 10.253,10.719 9.960,12.015 9.960 C 13.450 9.960,14.920 10.475,16.102 11.391 C 16.492 11.693,17.084 12.280,17.383 12.660 C 17.718 13.085,17.883 13.235,18.093 13.304 C 18.604 13.474,19.187 13.168,19.347 12.646 C 19.481 12.212,19.325 11.861,18.659 11.089 C 17.123 9.307,14.934 8.173,12.700 8.000 C 12.205 7.962,11.415 7.954,11.200 7.985 M11.400 11.962 C 10.440 12.028,9.393 12.445,8.531 13.106 C 8.008 13.506,7.386 14.231,7.195 14.662 C 6.991 15.124,7.236 15.708,7.720 15.911 C 7.907 15.990,8.302 15.986,8.499 15.903 C 8.702 15.818,8.783 15.742,9.140 15.300 C 9.774 14.515,10.521 14.083,11.460 13.958 C 12.688 13.794,13.912 14.275,14.680 15.223 C 15.058 15.689,15.170 15.803,15.327 15.884 C 15.889 16.170,16.565 15.850,16.723 15.223 C 16.818 14.849,16.673 14.503,16.169 13.901 C 15.364 12.939,13.967 12.146,12.820 12.001 C 12.404 11.949,11.829 11.933,11.400 11.962 M11.560 16.044 C 11.269 16.100,10.886 16.320,10.623 16.580 C 9.801 17.393,9.799 18.564,10.617 19.384 C 11.276 20.045,12.126 20.178,12.936 19.749 C 13.659 19.365,14.106 18.481,13.972 17.699 C 13.784 16.606,12.655 15.831,11.560 16.044 " fill="#1A1C1F" stroke="none" fill-rule="evenodd"></path></svg>