<svg width="28" height="28" viewBox="0 0 28 28" fill="none" xmlns="http://www.w3.org/2000/svg"><path d="M13.034 4.854 C 10.181 5.048,7.430 6.085,5.063 7.859 C 3.989 8.664,2.198 10.527,1.859 11.191 C 1.710 11.484,1.773 11.945,1.997 12.197 C 2.112 12.326,2.423 12.458,2.613 12.458 C 2.946 12.458,3.133 12.319,3.632 11.700 C 4.167 11.036,5.286 9.899,5.850 9.446 C 7.989 7.729,10.651 6.725,13.393 6.602 C 15.705 6.498,17.797 6.950,19.873 8.001 C 20.624 8.382,21.586 8.999,22.199 9.493 C 22.765 9.950,23.780 10.982,24.345 11.675 C 24.868 12.316,25.053 12.457,25.376 12.459 C 25.551 12.460,25.831 12.354,25.963 12.237 C 26.103 12.112,26.225 11.804,26.226 11.570 C 26.227 11.301,26.032 10.969,25.483 10.308 C 23.697 8.155,21.506 6.609,18.909 5.666 C 17.205 5.048,14.893 4.728,13.034 4.854 M12.973 9.246 C 10.521 9.495,8.180 10.647,6.382 12.488 C 5.852 13.030,5.264 13.754,5.133 14.025 C 4.949 14.405,5.057 14.846,5.398 15.106 C 5.548 15.221,5.610 15.237,5.900 15.237 C 6.325 15.237,6.402 15.182,6.970 14.476 C 8.329 12.785,9.987 11.701,11.991 11.193 C 12.726 11.007,13.941 10.926,14.811 11.005 C 16.397 11.148,17.980 11.784,19.343 12.827 C 19.771 13.154,20.496 13.872,20.980 14.449 C 21.633 15.227,21.729 15.292,22.171 15.249 C 22.584 15.209,22.931 14.832,22.931 14.423 C 22.931 14.150,22.779 13.865,22.339 13.318 C 20.705 11.282,18.382 9.863,15.899 9.384 C 15.003 9.211,13.852 9.157,12.973 9.246 M12.903 13.630 C 11.260 13.907,9.485 15.059,8.537 16.466 C 8.338 16.761,8.307 16.839,8.307 17.039 C 8.307 17.500,8.636 17.865,9.093 17.909 C 9.396 17.938,9.638 17.809,9.925 17.467 C 10.805 16.416,11.463 15.928,12.553 15.511 C 12.901 15.379,12.911 15.378,13.953 15.377 C 14.937 15.377,15.024 15.384,15.330 15.487 C 16.375 15.842,17.246 16.469,17.998 17.410 C 18.334 17.830,18.526 17.941,18.863 17.909 C 19.311 17.865,19.670 17.474,19.670 17.029 C 19.670 16.852,19.633 16.759,19.454 16.492 C 18.493 15.055,16.784 13.939,15.102 13.651 C 14.652 13.574,13.313 13.561,12.903 13.630 M13.380 18.015 C 12.914 18.132,12.281 18.542,11.984 18.917 C 11.327 19.749,11.206 20.834,11.669 21.752 C 11.870 22.150,12.429 22.707,12.824 22.902 C 14.039 23.504,15.435 23.096,16.224 21.908 C 16.891 20.904,16.664 19.444,15.712 18.621 C 15.484 18.424,15.017 18.154,14.783 18.084 C 14.499 18.000,13.612 17.956,13.380 18.015 M14.248 19.750 C 14.518 19.831,14.729 20.062,14.821 20.377 C 14.895 20.633,14.894 20.645,14.791 20.865 C 14.666 21.133,14.550 21.250,14.316 21.348 C 13.760 21.580,13.163 21.200,13.161 20.614 C 13.159 20.216,13.328 19.929,13.650 19.781 C 13.870 19.680,13.993 19.673,14.248 19.750 " fill="#1A1C1F" stroke="none" fill-rule="evenodd"></path></svg>