<svg width="28" height="28" viewBox="0 0 28 28" fill="none" xmlns="http://www.w3.org/2000/svg"><path d="M23.390 3.533 C 23.248 3.560,22.903 3.879,21.414 5.357 L 20.172 6.591 19.435 6.302 C 18.222 5.827,16.901 5.493,15.703 5.361 C 14.893 5.271,12.835 5.283,12.133 5.382 C 10.402 5.625,9.032 6.048,7.490 6.813 C 5.924 7.589,4.874 8.335,3.622 9.560 C 2.889 10.275,2.046 11.272,1.850 11.653 C 1.808 11.735,1.773 11.898,1.773 12.016 C 1.773 12.531,2.126 12.880,2.646 12.880 C 2.955 12.880,3.119 12.756,3.630 12.139 C 4.343 11.278,4.686 10.911,5.228 10.429 C 7.198 8.677,9.313 7.646,11.900 7.176 C 12.427 7.080,12.626 7.070,13.977 7.070 C 15.576 7.070,15.890 7.100,16.951 7.353 C 17.599 7.508,18.760 7.884,18.760 7.939 C 18.760 7.964,18.314 8.436,17.768 8.989 L 16.777 9.995 16.170 9.877 C 15.323 9.713,14.774 9.660,13.919 9.660 C 12.300 9.660,10.885 9.992,9.426 10.715 C 8.137 11.354,7.046 12.177,6.095 13.231 C 5.080 14.354,4.907 14.706,5.128 15.192 C 5.364 15.712,6.019 15.883,6.422 15.529 C 6.513 15.449,6.715 15.225,6.872 15.031 C 8.357 13.189,9.915 12.161,12.051 11.612 C 12.607 11.469,12.659 11.464,13.837 11.446 C 14.504 11.435,15.098 11.444,15.156 11.466 C 15.253 11.503,15.155 11.613,13.966 12.791 C 13.211 13.540,12.612 14.097,12.530 14.127 C 12.453 14.154,12.243 14.222,12.063 14.278 C 10.986 14.611,9.791 15.400,8.996 16.302 C 8.274 17.122,8.151 17.516,8.473 17.989 L 8.594 18.169 6.452 20.319 C 3.652 23.130,3.561 23.229,3.521 23.497 C 3.447 23.991,3.885 24.496,4.389 24.499 C 4.523 24.500,4.617 24.449,4.872 24.239 C 5.491 23.728,8.202 21.046,16.196 13.038 C 24.509 4.708,24.500 4.718,24.500 4.370 C 24.500 4.218,24.387 3.934,24.277 3.810 C 24.091 3.601,23.690 3.476,23.390 3.533 M22.574 9.138 L 21.971 9.736 22.373 10.074 C 22.957 10.566,23.636 11.263,24.267 12.019 C 24.887 12.761,25.037 12.880,25.359 12.880 C 25.876 12.880,26.227 12.529,26.227 12.011 C 26.227 11.695,26.084 11.467,25.298 10.523 C 24.731 9.843,23.373 8.540,23.231 8.540 C 23.201 8.540,22.906 8.809,22.574 9.138 M19.461 12.251 L 18.841 12.877 19.279 13.216 C 19.835 13.646,20.648 14.453,21.111 15.036 C 21.308 15.284,21.538 15.530,21.622 15.582 C 22.050 15.846,22.597 15.702,22.815 15.267 C 22.942 15.013,22.966 14.813,22.895 14.607 C 22.724 14.109,21.465 12.690,20.522 11.932 C 20.073 11.571,20.159 11.545,19.461 12.251 M16.330 15.384 L 15.682 16.021 16.117 16.261 C 16.921 16.705,17.192 16.936,18.048 17.908 C 18.499 18.420,18.845 18.505,19.261 18.203 C 19.489 18.039,19.648 17.790,19.680 17.550 C 19.699 17.408,19.673 17.312,19.557 17.095 C 19.367 16.738,18.814 16.100,18.328 15.675 C 17.980 15.372,17.093 14.747,17.010 14.747 C 16.992 14.747,16.686 15.033,16.330 15.384 M13.474 18.435 C 12.836 18.543,11.975 19.212,11.675 19.833 C 11.165 20.891,11.349 22.023,12.163 22.837 C 13.204 23.879,14.773 23.873,15.825 22.824 C 16.399 22.251,16.656 21.588,16.600 20.823 C 16.552 20.164,16.289 19.633,15.760 19.121 C 15.160 18.541,14.328 18.291,13.474 18.435 M14.373 20.247 C 14.643 20.391,14.806 20.634,14.830 20.929 C 14.857 21.247,14.790 21.416,14.557 21.627 C 14.347 21.817,14.072 21.911,13.847 21.868 C 13.624 21.827,13.332 21.605,13.238 21.407 C 13.062 21.036,13.199 20.497,13.526 20.275 C 13.740 20.130,14.130 20.117,14.373 20.247 " fill="#1A1C1F" stroke="none" fill-rule="evenodd"></path></svg>