<svg xmlns="http://www.w3.org/2000/svg" width="32" height="32" fill="none"><g clip-path="url(#a)"><path fill="#1A1C1F" fill-rule="evenodd" d="M27.707 4.293c.36.36.428.986 0 1.414a61832 61832 0 0 1-22 22 1 1 0 0 1-1.414 0 1.01 1.01 0 0 1 0-1.414 4012 4012 0 0 1 5.539-5.54 1.05 1.05 0 0 1-.363-.784c0-.188.062-.36.183-.535 1.181-1.714 2.882-2.896 4.803-3.306l3.015-3.014A9.6 9.6 0 0 0 16 13c-3.344 0-6.473 1.719-8.436 4.564-.193.28-.533.405-.845.405a.98.98 0 0 1-.969-1c0-.188.063-.412.19-.593C8.277 13.031 12 11 16 11c1.076 0 2.134.15 3.151.434l2.364-2.365A14.8 14.8 0 0 0 16 8c-4.844 0-9.304 2.344-12.191 6.31-.207.284-.528.44-.84.44-.563 0-.969-.469-.969-1q0-.327.19-.592C5.431 8.688 10.5 6 16 6c2.477 0 4.867.539 7.042 1.543l3.25-3.25a1 1 0 0 1 1.415 0M15.984 21C17.618 21 19 22.375 19 24.031 19 25.656 17.618 27 15.984 27 14.351 27 13 25.656 13 24.031 13 22.375 14.35 21 15.984 21m0 2c-.54 0-.984.468-.984 1.031 0 .532.444.969.984.969S17 24.563 17 24.031C17 23.47 16.524 23 15.984 23m3.416-6.185c1.143.598 2.142 1.494 2.917 2.62.12.174.183.346.183.534 0 .312-.187.648-.466.847A.9.9 0 0 1 21.5 21c-.344 0-.653-.187-.845-.468-.702-1.026-1.665-1.794-2.762-2.21zm3.554-3.554a12.9 12.9 0 0 1 3.076 3.115c.126.181.189.405.189.593 0 .562-.469 1-.969 1-.312 0-.636-.125-.839-.41a11.3 11.3 0 0 0-2.905-2.85zm3.567-3.568a17.6 17.6 0 0 1 3.289 3.465q.191.264.19.592c0 .531-.406 1-.969 1-.312 0-.633-.156-.84-.44a15.7 15.7 0 0 0-3.096-3.19z" clip-rule="evenodd"/></g><defs><clipPath id="a"><path fill="#fff" d="M0 0h32v32H0z"/></clipPath></defs></svg>