<svg xmlns="http://www.w3.org/2000/svg" width="20" height="20" fill="none"><g clip-path="url(#a)"><path fill="#1A1C1F" fill-rule="evenodd" d="M11.468 13.248A1.99 1.99 0 0 1 12.5 15c0 1.094-.875 2-2 2-.75 0-1.411-.411-1.753-1.032zM10.563 3c1.572 0 3.115.345 4.525.997l.705-.704a1 1 0 0 1 1.497 1.32l-.083.094-12 12a1 1 0 0 1-1.414 0c-.36-.36-.421-.937 0-1.414l4.14-4.142c.022-.027 0-.07-.027-.07a.99.99 0 0 1-.718.281c-.594 0-1-.532-1-1.002 0-.25.093-.532.312-.72 1.156-1.096 2.406-1.66 4.063-1.66q.261 0 .519.023l2.491-2.49a8.6 8.6 0 0 0-3.01-.54c-2.47 0-4.688.908-6.376 2.6-.187.188-.437.313-.687.313-.437 0-1-.345-1-1.002 0-.282.094-.501.281-.72C4.938 4.033 7.406 3 10.562 3" clip-rule="evenodd"/></g><defs><clipPath id="a"><path fill="#fff" d="M0 0h20v20H0z"/></clipPath></defs></svg>