<svg xmlns="http://www.w3.org/2000/svg" width="20" height="20" fill="none"><g clip-path="url(#a)"><path fill="#1A1C1F" fill-rule="evenodd" d="M2 6.884c0-.282.094-.501.281-.72C4.438 4.033 6.906 3 10.062 3c2.844 0 5.594 1.128 7.626 3.163.187.188.312.47.312.72 0 .596-.437 1.003-1 1.003a1.1 1.1 0 0 1-.719-.282 8.67 8.67 0 0 0-6.218-2.63c-2.47 0-4.688.907-6.376 2.599-.187.188-.437.313-.687.313-.437 0-1-.345-1-1.002m3.688 3.476c0-.25.093-.532.312-.72 1.156-1.096 2.406-1.66 4.063-1.66 1.53 0 2.968.595 4.062 1.66.219.22.281.47.281.72 0 .47-.312 1.002-1 1.002-.25 0-.5-.094-.687-.281-.719-.69-1.656-1.097-2.656-1.097s-2 .408-2.657 1.097a.99.99 0 0 1-.718.281c-.594 0-1-.532-1-1.002M8 15c0-1.094.875-2 2-2 1.094 0 2 .875 2 2 0 1.094-.875 2-2 2-1.094 0-2-.875-2-2" clip-rule="evenodd"/></g><defs><clipPath id="a"><path fill="#fff" d="M0 0h20v20H0z"/></clipPath></defs></svg>