<svg width="14" height="14" viewBox="0 0 14 14" fill="none" xmlns="http://www.w3.org/2000/svg"><path d="M6.557 2.116 C 5.181 2.212,4.128 2.525,3.102 3.141 C 2.570 3.460,1.797 4.076,1.574 4.359 C 1.386 4.597,1.354 4.862,1.482 5.124 C 1.599 5.364,1.831 5.507,2.105 5.507 C 2.291 5.507,2.405 5.444,2.718 5.169 C 3.855 4.173,4.920 3.686,6.297 3.534 C 6.831 3.474,7.584 3.491,8.062 3.571 C 9.207 3.765,10.233 4.277,11.212 5.144 C 11.562 5.454,11.627 5.490,11.866 5.502 C 12.034 5.511,12.075 5.505,12.185 5.454 C 12.335 5.386,12.462 5.262,12.535 5.113 C 12.608 4.966,12.608 4.704,12.535 4.543 C 12.442 4.335,11.817 3.774,11.270 3.407 C 10.310 2.763,9.241 2.349,8.112 2.182 C 7.913 2.153,6.724 2.089,6.673 2.105 C 6.667 2.107,6.614 2.111,6.557 2.116 M6.479 5.626 C 5.699 5.712,4.859 6.120,4.270 6.697 C 4.029 6.933,3.976 7.048,3.996 7.295 C 4.030 7.719,4.401 8.010,4.808 7.933 C 4.977 7.901,5.060 7.856,5.242 7.697 C 5.469 7.499,5.744 7.320,5.971 7.222 C 6.703 6.910,7.524 6.932,8.224 7.284 C 8.450 7.398,8.561 7.473,8.831 7.693 C 9.084 7.899,9.239 7.966,9.428 7.950 C 9.836 7.914,10.104 7.597,10.075 7.186 C 10.059 6.966,9.974 6.822,9.740 6.619 C 9.186 6.137,8.439 5.775,7.758 5.658 C 7.500 5.613,6.758 5.595,6.479 5.626 M6.729 9.134 C 6.493 9.177,6.218 9.326,6.022 9.518 C 5.842 9.693,5.761 9.821,5.676 10.063 C 5.591 10.304,5.587 10.671,5.668 10.916 C 5.823 11.390,6.226 11.755,6.713 11.863 C 6.936 11.912,7.094 11.910,7.317 11.853 C 7.598 11.782,7.773 11.686,7.965 11.495 C 8.159 11.304,8.241 11.176,8.322 10.937 C 8.588 10.154,8.094 9.310,7.266 9.135 C 7.074 9.094,6.951 9.094,6.729 9.134 " fill="#1A1C1F" stroke="none" fill-rule="evenodd"></path></svg>