<svg xmlns="http://www.w3.org/2000/svg" width="16" height="16" fill="none"><g clip-path="url(#a)"><path fill="#1A1C1F" fill-rule="evenodd" d="M9.174 10.598c.49.27.826.79.826 1.402 0 .875-.7 1.6-1.6 1.6-.6 0-1.129-.329-1.403-.826zM8.45 2.4a8.6 8.6 0 0 1 3.62.797l.564-.563a.8.8 0 0 1 1.198 1.056l-.066.076-9.6 9.6a.8.8 0 0 1-1.132 0c-.288-.289-.336-.75 0-1.132l3.313-3.313c.017-.022 0-.057-.022-.057a.8.8 0 0 1-.575.226c-.475 0-.8-.426-.8-.802 0-.2.075-.426.25-.576.925-.877 1.925-1.328 3.25-1.328q.21 0 .416.018l1.992-1.991a6.9 6.9 0 0 0-2.408-.432c-1.975 0-3.75.726-5.1 2.08-.15.15-.35.25-.55.25-.35 0-.8-.276-.8-.802 0-.226.075-.4.225-.576C3.95 3.227 5.925 2.4 8.45 2.4" clip-rule="evenodd"/></g><defs><clipPath id="a"><path fill="#fff" d="M0 0h16v16H0z"/></clipPath></defs></svg>