<svg xmlns="http://www.w3.org/2000/svg" width="14" height="14" fill="none"><g clip-path="url(#a)"><path fill="#1A1C1F" fill-rule="evenodd" d="M8.028 9.273c.428.236.722.691.722 1.227 0 .766-.613 1.4-1.4 1.4a1.4 1.4 0 0 1-1.227-.722zM7.394 2.1c1.1 0 2.18.241 3.167.698l.494-.493a.7.7 0 0 1 1.048.924l-.058.066-8.4 8.4a.7.7 0 0 1-.99 0c-.252-.252-.295-.656 0-.99l2.899-2.9c.015-.018 0-.049-.02-.049a.7.7 0 0 1-.503.198c-.415 0-.7-.373-.7-.702 0-.175.066-.373.219-.504.81-.767 1.684-1.162 2.844-1.162q.183 0 .363.016l1.744-1.743a6 6 0 0 0-2.107-.378c-1.728 0-3.282.636-4.463 1.82a.7.7 0 0 1-.481.22c-.306 0-.7-.242-.7-.702 0-.198.066-.351.197-.505C3.457 2.824 5.184 2.1 7.394 2.1" clip-rule="evenodd"/></g><defs><clipPath id="a"><path fill="#fff" d="M0 0h14v14H0z"/></clipPath></defs></svg>