<svg xmlns="http://www.w3.org/2000/svg" width="32" height="32" fill="none"><path fill="#1A1C1F" fill-rule="evenodd" d="M14.773 5.548c-3.425.267-6.644 1.544-9.36 3.713-1.037.829-2.628 2.505-3.207 3.38-.192.291-.238.543-.155.861.202.78 1.135.991 1.686.383.076-.083.302-.368.503-.632.474-.621 1.885-2.033 2.533-2.533 2.316-1.786 4.785-2.797 7.627-3.124.924-.106 2.79-.079 3.67.053a15.1 15.1 0 0 1 7.229 3.138c.681.537 1.976 1.836 2.459 2.466.202.264.429.549.505.632.551.608 1.484.397 1.686-.383.128-.494.008-.73-.962-1.89-2.289-2.735-5.441-4.73-8.827-5.583-1.699-.429-3.727-.61-5.387-.481m.24 4.995c-3.429.298-6.612 2.087-8.784 4.938-.173.228-.35.497-.392.598a.98.98 0 0 0 .914 1.376c.401 0 .642-.159 1.025-.675 1.583-2.13 3.841-3.588 6.337-4.09.73-.147 2.256-.199 3.064-.105 1.174.136 2.548.59 3.614 1.194 1.331.754 2.426 1.727 3.484 3.096.169.219.371.414.495.477.772.399 1.679-.379 1.391-1.192-.195-.547-1.554-2.086-2.558-2.895-1.902-1.532-4.143-2.467-6.475-2.703a16 16 0 0 0-2.115-.019m.08 4.98c-1.273.159-2.53.681-3.607 1.496-.843.637-1.856 1.785-1.982 2.243-.16.586.335 1.218.954 1.218.377 0 .642-.169.989-.629.812-1.08 1.818-1.788 3.098-2.181.431-.132.543-.144 1.402-.146.815-.003.991.013 1.386.121a6 6 0 0 1 3.111 2.104c.464.614.634.731 1.058.731.57 0 1.083-.603.981-1.152-.071-.376-.892-1.396-1.61-2.001-1.079-.908-2.248-1.477-3.544-1.725-.552-.106-1.698-.146-2.236-.079m0 5.129a3.09 3.09 0 0 0-2.005 2.175c-.115.456-.077 1.232.081 1.68.23.646.791 1.302 1.386 1.62 1.205.642 2.556.441 3.531-.525.618-.612.901-1.262.901-2.072 0-.992-.493-1.92-1.319-2.483-.544-.371-.885-.476-1.615-.498-.531-.016-.66-.002-.96.103m1.313 1.957c.28.127.481.391.561.737.058.254.053.292-.077.557-.184.371-.427.537-.833.566-.6.044-1.035-.35-1.035-.938.001-.327.091-.555.293-.738.326-.296.705-.36 1.091-.184"/></svg>