<svg width="32" height="32" viewBox="0 0 32 32" fill="none" xmlns="http://www.w3.org/2000/svg"><path d="M26.731 4.038 C 26.570 4.069,26.175 4.433,24.473 6.123 L 23.053 7.533 22.212 7.203 C 20.826 6.659,19.315 6.278,17.947 6.127 C 17.020 6.024,14.669 6.038,13.867 6.151 C 11.917 6.425,10.343 6.906,8.613 7.757 C 6.472 8.809,4.685 10.191,3.124 12.000 C 2.164 13.112,2.005 13.377,2.037 13.817 C 2.077 14.362,2.462 14.732,2.989 14.732 C 3.353 14.732,3.532 14.609,4.019 14.024 C 5.439 12.316,6.406 11.418,7.840 10.478 C 9.627 9.305,11.418 8.598,13.600 8.201 C 14.203 8.092,14.430 8.080,15.973 8.080 C 17.801 8.080,18.160 8.114,19.372 8.404 C 20.124 8.583,21.440 9.011,21.440 9.076 C 21.440 9.105,20.930 9.645,20.306 10.275 L 19.172 11.422 18.479 11.288 C 18.098 11.214,17.554 11.128,17.269 11.097 C 16.611 11.025,15.200 11.024,14.612 11.095 C 11.749 11.441,8.961 12.903,6.987 15.094 C 5.814 16.394,5.609 16.808,5.860 17.362 C 6.050 17.780,6.476 18.014,6.924 17.947 C 7.215 17.904,7.443 17.691,8.243 16.720 C 9.632 15.033,11.536 13.846,13.773 13.271 C 14.408 13.107,14.467 13.102,15.813 13.081 C 16.576 13.069,17.255 13.079,17.321 13.104 C 17.433 13.146,17.320 13.272,15.961 14.619 C 15.098 15.475,14.413 16.111,14.320 16.145 C 14.232 16.176,13.992 16.254,13.787 16.318 C 12.888 16.596,11.792 17.224,10.994 17.921 C 10.490 18.360,9.791 19.176,9.612 19.534 C 9.421 19.916,9.473 20.340,9.748 20.654 C 9.825 20.741,9.638 20.941,7.141 23.454 C 5.661 24.942,4.356 26.277,4.240 26.420 C 4.051 26.654,4.030 26.709,4.028 26.988 C 4.027 27.247,4.053 27.335,4.187 27.529 C 4.373 27.796,4.731 28.000,5.014 28.000 C 5.280 28.000,5.583 27.740,7.591 25.788 C 10.574 22.890,27.669 5.728,27.837 5.463 C 28.020 5.174,28.043 4.952,27.918 4.654 C 27.803 4.379,27.694 4.271,27.387 4.126 C 27.130 4.006,26.994 3.988,26.731 4.038 M25.819 10.421 L 25.113 11.129 25.570 11.514 C 26.236 12.075,27.013 12.873,27.734 13.736 C 28.442 14.585,28.614 14.720,28.981 14.720 C 29.573 14.720,29.973 14.319,29.973 13.727 C 29.973 13.352,29.807 13.094,28.781 11.877 C 28.311 11.319,27.041 10.080,26.665 9.812 L 26.526 9.713 25.819 10.421 M22.241 14.001 L 21.532 14.717 22.033 15.104 C 22.670 15.596,23.600 16.519,24.130 17.185 C 24.578 17.748,24.767 17.896,25.104 17.950 C 25.786 18.059,26.388 17.339,26.158 16.689 C 25.955 16.114,24.517 14.487,23.476 13.656 C 22.934 13.223,23.041 13.193,22.241 14.001 M18.662 17.581 L 17.923 18.309 18.420 18.584 C 19.338 19.092,19.648 19.356,20.626 20.466 C 21.142 21.052,21.537 21.148,22.013 20.804 C 22.273 20.616,22.455 20.332,22.492 20.058 C 22.513 19.895,22.484 19.786,22.351 19.537 C 22.134 19.129,21.502 18.400,20.946 17.915 C 20.548 17.568,19.535 16.853,19.440 16.853 C 19.419 16.853,19.069 17.181,18.662 17.581 M15.399 21.069 C 14.669 21.191,13.685 21.956,13.343 22.667 C 13.123 23.122,13.013 23.568,13.014 23.998 C 13.018 25.625,14.375 26.982,16.002 26.986 C 17.373 26.989,18.674 25.906,18.937 24.543 C 19.084 23.783,18.879 22.927,18.397 22.283 C 17.671 21.314,16.577 20.871,15.399 21.069 M16.426 23.139 C 16.735 23.304,16.921 23.582,16.949 23.919 C 16.979 24.282,16.903 24.476,16.637 24.716 C 16.396 24.934,16.082 25.041,15.825 24.992 C 15.571 24.945,15.236 24.691,15.129 24.465 C 14.928 24.041,15.085 23.425,15.458 23.171 C 15.702 23.005,16.149 22.990,16.426 23.139 " fill="#1A1C1F" stroke="none" fill-rule="evenodd"></path></svg>