<svg xmlns="http://www.w3.org/2000/svg" width="12" height="12" fill="none"><g clip-path="url(#a)"><path fill="#1A1C1F" fill-rule="evenodd" d="M1.2 4.13c0-.169.056-.3.169-.432C2.663 2.42 4.144 1.8 6.038 1.8c1.706 0 3.356.677 4.575 1.898a.65.65 0 0 1 .187.432.58.58 0 0 1-.6.602.66.66 0 0 1-.431-.17 5.2 5.2 0 0 0-3.731-1.578c-1.482 0-2.813.545-3.825 1.56a.6.6 0 0 1-.413.188c-.262 0-.6-.207-.6-.602m2.213 2.086c0-.15.056-.32.187-.432.694-.658 1.444-.996 2.438-.996.918 0 1.78.357 2.437.996a.58.58 0 0 1 .169.432c0 .282-.188.601-.6.601-.15 0-.3-.056-.413-.169a2.3 2.3 0 0 0-1.593-.657c-.6 0-1.2.244-1.594.657a.6.6 0 0 1-.431.17c-.357 0-.6-.32-.6-.602M4.8 9c0-.656.525-1.2 1.2-1.2.656 0 1.2.525 1.2 1.2 0 .656-.525 1.2-1.2 1.2-.656 0-1.2-.525-1.2-1.2" clip-rule="evenodd"/></g><defs><clipPath id="a"><path fill="#fff" d="M0 0h12v12H0z"/></clipPath></defs></svg>