<svg width="24" height="24" viewBox="0 0 24 24" fill="none" xmlns="http://www.w3.org/2000/svg"><path d="M19.743 3.043 C 19.515 3.099,19.406 3.193,18.314 4.271 L 17.327 5.245 17.168 5.164 C 16.704 4.928,15.706 4.569,15.040 4.400 C 13.987 4.132,13.116 4.026,12.000 4.027 C 10.041 4.030,8.440 4.401,6.700 5.258 C 5.623 5.788,4.742 6.389,3.863 7.196 C 3.121 7.877,2.365 8.752,2.133 9.199 C 1.924 9.602,1.970 9.966,2.272 10.289 C 2.524 10.558,2.722 10.656,3.008 10.654 C 3.375 10.652,3.560 10.531,3.953 10.038 C 5.012 8.710,6.056 7.841,7.421 7.152 C 8.210 6.753,8.816 6.519,9.500 6.348 C 10.521 6.092,10.764 6.070,12.254 6.091 C 13.477 6.109,13.618 6.119,14.066 6.212 C 14.557 6.315,15.417 6.556,15.671 6.662 L 15.808 6.719 15.647 6.910 C 15.558 7.014,15.219 7.365,14.893 7.688 L 14.300 8.276 13.913 8.181 C 13.253 8.020,12.859 7.990,11.695 8.011 C 10.794 8.028,10.558 8.044,10.240 8.116 C 8.162 8.581,6.361 9.691,5.063 11.308 C 4.700 11.759,4.532 12.065,4.494 12.337 C 4.426 12.838,5.041 13.411,5.581 13.350 C 5.926 13.311,6.090 13.190,6.537 12.642 C 7.179 11.854,7.810 11.316,8.640 10.845 C 9.766 10.207,10.747 9.959,12.140 9.961 L 12.620 9.962 11.540 11.031 L 10.460 12.100 10.060 12.254 C 9.072 12.634,8.221 13.250,7.581 14.051 C 7.256 14.457,7.160 14.698,7.160 15.108 L 7.160 15.414 5.168 17.417 C 3.882 18.711,3.149 19.477,3.100 19.580 C 2.975 19.837,2.992 20.208,3.141 20.477 C 3.388 20.927,3.972 21.121,4.406 20.897 C 4.474 20.862,5.378 20.000,6.415 18.981 C 8.858 16.582,20.069 5.343,20.547 4.814 C 20.949 4.370,21.028 4.203,20.984 3.887 C 20.903 3.296,20.321 2.900,19.743 3.043 M19.905 8.316 L 19.209 9.008 19.542 9.414 C 19.725 9.637,19.990 9.964,20.130 10.139 C 20.447 10.535,20.661 10.660,21.019 10.659 C 21.439 10.658,21.791 10.396,21.942 9.972 C 22.052 9.664,21.993 9.361,21.754 9.010 C 21.562 8.727,20.909 7.920,20.744 7.762 L 20.600 7.625 19.905 8.316 M17.212 11.010 L 16.525 11.700 16.807 11.998 C 16.961 12.162,17.197 12.432,17.330 12.598 C 17.731 13.097,17.878 13.233,18.093 13.304 C 18.631 13.483,19.295 13.093,19.376 12.551 C 19.435 12.158,19.262 11.785,18.737 11.173 C 18.442 10.829,17.955 10.320,17.921 10.320 C 17.909 10.320,17.590 10.630,17.212 11.010 M14.507 13.713 L 13.800 14.421 14.084 14.638 C 14.341 14.833,14.463 14.962,15.006 15.611 C 15.228 15.876,15.435 15.977,15.760 15.977 C 16.057 15.978,16.261 15.896,16.459 15.699 C 16.768 15.389,16.835 14.913,16.622 14.528 C 16.402 14.129,15.709 13.357,15.326 13.084 L 15.214 13.005 14.507 13.713 M11.560 16.044 C 11.269 16.100,10.886 16.320,10.623 16.580 C 9.801 17.393,9.799 18.564,10.617 19.384 C 11.276 20.045,12.126 20.178,12.936 19.749 C 13.659 19.365,14.106 18.481,13.972 17.699 C 13.784 16.606,12.655 15.831,11.560 16.044 " fill="#1A1C1F" stroke="none" fill-rule="evenodd"></path></svg>