<svg width="20" height="20" viewBox="0 0 20 20" fill="none" xmlns="http://www.w3.org/2000/svg"><path d="M9.367 3.022 C 7.693 3.140,6.457 3.453,5.180 4.083 C 4.202 4.565,3.195 5.275,2.481 5.983 C 2.100 6.361,2.017 6.521,2.017 6.867 C 2.017 7.073,2.033 7.150,2.110 7.307 C 2.285 7.664,2.611 7.867,3.007 7.867 C 3.276 7.867,3.429 7.780,3.936 7.342 C 4.904 6.503,5.715 5.993,6.700 5.600 C 8.141 5.026,10.004 4.843,11.604 5.118 C 13.156 5.385,14.657 6.144,16.017 7.348 C 16.517 7.792,16.610 7.842,16.952 7.860 C 17.192 7.873,17.249 7.864,17.407 7.792 C 17.621 7.694,17.802 7.517,17.907 7.304 C 18.010 7.095,18.011 6.720,17.908 6.492 C 17.778 6.201,16.916 5.423,16.150 4.903 C 14.756 3.957,13.228 3.359,11.588 3.118 C 11.304 3.076,9.606 2.984,9.533 3.006 C 9.524 3.009,9.449 3.016,9.367 3.022 M9.255 8.037 C 8.143 8.160,6.941 8.743,6.100 9.567 C 5.755 9.904,5.680 10.068,5.709 10.421 C 5.757 11.026,6.288 11.443,6.869 11.333 C 7.107 11.288,7.229 11.223,7.472 11.011 C 8.223 10.357,8.958 10.054,9.900 10.011 C 10.558 9.981,11.162 10.110,11.748 10.405 C 12.072 10.569,12.230 10.675,12.615 10.990 C 13.061 11.354,13.303 11.425,13.708 11.312 C 14.324 11.139,14.603 10.320,14.231 9.779 C 14.176 9.700,14.008 9.531,13.857 9.405 C 13.039 8.718,12.078 8.260,11.083 8.083 C 10.717 8.018,9.665 7.991,9.255 8.037 M9.613 13.047 C 9.274 13.112,8.881 13.325,8.603 13.597 C 8.347 13.846,8.230 14.030,8.107 14.376 C 7.988 14.712,7.983 15.277,8.097 15.600 C 8.249 16.036,8.622 16.506,8.979 16.716 C 9.416 16.972,9.965 17.056,10.434 16.938 C 10.853 16.832,11.100 16.698,11.379 16.422 C 11.653 16.151,11.770 15.970,11.893 15.624 C 12.012 15.288,12.017 14.723,11.903 14.400 C 11.565 13.435,10.592 12.860,9.613 13.047 " fill="#1A1C1F" stroke="none" fill-rule="evenodd"></path></svg>