<svg xmlns="http://www.w3.org/2000/svg" width="32" height="32" fill="none"><g clip-path="url(#a)"><path fill="#1A1C1F" fill-rule="evenodd" d="M15.984 20.5c1.634 0 3.016 1.375 3.016 3.031 0 1.625-1.382 2.969-3.016 2.969-1.633 0-2.984-1.344-2.984-2.969 0-1.656 1.35-3.031 2.984-3.031m0 2c-.54 0-.984.468-.984 1.031 0 .532.444.969.984.969S17 24.063 17 23.531c0-.562-.476-1.031-1.016-1.031M2 13.25q0-.327.19-.592C5.431 8.188 10.5 5.5 16 5.5s10.569 2.656 13.81 7.158q.191.264.19.592c0 .531-.406 1-.969 1-.312 0-.633-.156-.84-.44C25.304 9.844 20.813 7.5 16 7.5c-4.844 0-9.304 2.344-12.191 6.31-.207.284-.528.44-.84.44-.563 0-.969-.469-.969-1m3.75 3.219c0-.188.063-.412.19-.593C8.277 12.531 12 10.5 16 10.5c3.969 0 7.691 2.031 10.03 5.376.126.181.189.405.189.593 0 .562-.469 1-.969 1-.312 0-.636-.125-.839-.41C22.395 14.219 19.312 12.5 16 12.5c-3.344 0-6.473 1.719-8.436 4.564-.193.28-.533.405-.845.405a.98.98 0 0 1-.969-1m3.719 3c0-.188.062-.36.183-.535 1.483-2.153 3.786-3.465 6.317-3.465 2.562 0 4.864 1.312 6.348 3.465.12.175.183.347.183.535 0 .312-.187.648-.466.847a.9.9 0 0 1-.534.184c-.344 0-.653-.187-.845-.468-1.09-1.594-2.811-2.563-4.686-2.563-1.844 0-3.566.968-4.655 2.563-.192.28-.533.468-.845.468-.531 0-1-.469-1-1.031" clip-rule="evenodd"/></g><defs><clipPath id="a"><path fill="#fff" d="M0 0h32v32H0z"/></clipPath></defs></svg>