<svg width="32" height="32" viewBox="0 0 32 32" fill="none" xmlns="http://www.w3.org/2000/svg"><path d="M14.896 5.550 C 11.653 5.757,8.423 6.983,5.713 9.035 C 4.526 9.934,2.500 12.054,2.125 12.789 C 1.954 13.124,2.026 13.651,2.282 13.939 C 2.413 14.087,2.769 14.238,2.987 14.238 C 3.367 14.238,3.580 14.079,4.151 13.371 C 4.762 12.613,6.041 11.314,6.686 10.796 C 9.130 8.833,12.173 7.686,15.307 7.545 C 17.949 7.426,20.339 7.942,22.712 9.144 C 23.570 9.579,24.670 10.284,25.370 10.850 C 26.017 11.372,27.177 12.551,27.823 13.343 C 28.421 14.075,28.632 14.236,29.002 14.239 C 29.201 14.240,29.521 14.119,29.672 13.985 C 29.832 13.842,29.971 13.491,29.972 13.223 C 29.974 12.915,29.751 12.535,29.124 11.781 C 27.198 9.460,24.824 7.732,22.078 6.650 C 20.474 6.018,18.797 5.667,16.827 5.549 C 15.842 5.490,15.849 5.490,14.896 5.550 M14.800 10.569 C 12.525 10.798,10.102 11.832,8.281 13.351 C 7.359 14.119,6.135 15.477,5.866 16.030 C 5.656 16.462,5.780 16.967,6.169 17.264 C 6.341 17.395,6.411 17.413,6.743 17.413 C 7.229 17.413,7.317 17.351,7.965 16.544 C 9.519 14.612,11.413 13.373,13.704 12.792 C 14.544 12.579,15.932 12.486,16.927 12.577 C 18.739 12.741,20.548 13.468,22.107 14.659 C 22.559 15.005,23.411 15.840,23.856 16.373 C 24.649 17.326,24.793 17.440,25.199 17.440 C 25.522 17.440,25.751 17.338,25.959 17.102 C 26.177 16.854,26.263 16.548,26.190 16.279 C 26.076 15.856,25.485 15.086,24.561 14.156 C 21.962 11.541,18.346 10.212,14.800 10.569 M14.747 15.574 C 12.828 15.918,10.840 17.210,9.757 18.818 C 9.529 19.156,9.493 19.245,9.493 19.473 C 9.493 20.000,9.870 20.417,10.392 20.467 C 10.738 20.500,11.014 20.353,11.343 19.962 C 12.193 18.948,12.834 18.419,13.721 17.999 C 14.593 17.587,14.882 17.534,16.125 17.559 C 17.121 17.580,17.229 17.592,17.589 17.722 C 18.782 18.152,19.722 18.837,20.569 19.897 C 20.954 20.378,21.173 20.504,21.558 20.467 C 22.070 20.418,22.480 19.970,22.480 19.462 C 22.480 19.259,22.437 19.153,22.234 18.848 C 21.206 17.313,19.529 16.155,17.632 15.671 C 17.281 15.582,16.995 15.558,16.107 15.544 C 15.505 15.534,14.893 15.548,14.747 15.574 M15.291 20.588 C 15.180 20.616,14.940 20.713,14.758 20.803 C 13.198 21.577,12.576 23.351,13.336 24.860 C 13.566 25.314,14.204 25.951,14.656 26.174 C 16.044 26.862,17.640 26.395,18.542 25.038 C 19.304 23.890,19.044 22.222,17.957 21.281 C 17.696 21.055,17.163 20.748,16.894 20.668 C 16.571 20.572,15.556 20.521,15.291 20.588 M16.283 22.571 C 16.591 22.664,16.833 22.928,16.938 23.287 C 17.023 23.580,17.022 23.594,16.904 23.846 C 16.761 24.152,16.629 24.286,16.361 24.397 C 15.921 24.581,15.387 24.415,15.158 24.023 C 15.057 23.850,15.039 23.751,15.053 23.461 C 15.073 23.039,15.225 22.798,15.584 22.620 C 15.847 22.490,15.981 22.481,16.283 22.571 " fill="#1A1C1F" stroke="none" fill-rule="evenodd"></path></svg>