<svg xmlns="http://www.w3.org/2000/svg" width="28" height="28" fill="none"><g clip-path="url(#a)"><path fill="#1A1C1F" fill-rule="evenodd" d="M13.986 17.938c1.43 0 2.639 1.203 2.639 2.652 0 1.422-1.21 2.598-2.639 2.598s-2.611-1.176-2.611-2.598c0-1.45 1.182-2.652 2.611-2.652m0 1.75c-.472 0-.861.41-.861.902 0 .465.389.848.861.848s.889-.383.889-.848a.91.91 0 0 0-.889-.902M1.75 11.594q0-.288.167-.518C4.752 7.164 9.187 4.812 14 4.812s9.247 2.325 12.084 6.264a.86.86 0 0 1 .166.518c0 .465-.355.875-.848.875a.92.92 0 0 1-.735-.385C22.141 8.614 18.211 6.563 14 6.563c-4.238 0-8.141 2.05-10.667 5.52a.92.92 0 0 1-.735.386c-.493 0-.848-.41-.848-.875m3.281 2.816a.94.94 0 0 1 .166-.518C7.243 10.965 10.5 9.188 14 9.188c3.473 0 6.73 1.777 8.776 4.704a.94.94 0 0 1 .166.518c0 .492-.41.875-.848.875a.89.89 0 0 1-.734-.358c-1.764-2.485-4.462-3.99-7.36-3.99-2.926 0-5.664 1.505-7.381 3.994-.17.245-.467.354-.74.354a.86.86 0 0 1-.848-.875m3.254 2.625c0-.164.055-.315.16-.468 1.298-1.883 3.313-3.032 5.528-3.032 2.242 0 4.256 1.149 5.554 3.032.106.153.16.304.16.468 0 .274-.164.567-.407.742a.8.8 0 0 1-.468.16.9.9 0 0 1-.739-.409c-.953-1.395-2.46-2.243-4.1-2.243-1.614 0-3.12.848-4.073 2.243a.95.95 0 0 1-.74.41c-.465 0-.875-.41-.875-.903" clip-rule="evenodd"/></g><defs><clipPath id="a"><path fill="#fff" d="M0 0h28v28H0z"/></clipPath></defs></svg>