<svg width="28" height="28" viewBox="0 0 28 28" fill="none" xmlns="http://www.w3.org/2000/svg"><path d="M9.800 3.716 C 8.582 3.951,7.934 4.472,7.741 5.371 C 7.639 5.847,7.744 6.185,8.442 7.630 C 9.015 8.818,9.166 9.007,9.627 9.118 C 9.964 9.199,10.507 8.824,10.574 8.464 C 10.624 8.200,10.551 7.992,9.985 6.786 C 9.702 6.183,9.483 5.669,9.498 5.645 C 9.542 5.573,10.025 5.451,10.133 5.485 C 10.188 5.503,10.750 6.025,11.381 6.647 C 12.729 7.972,12.855 8.074,13.155 8.072 C 13.528 8.071,13.882 7.849,13.997 7.545 C 14.066 7.364,14.059 7.074,13.982 6.889 C 13.909 6.713,12.095 4.843,11.458 4.285 C 11.174 4.037,10.956 3.888,10.781 3.822 C 10.526 3.727,10.025 3.673,9.800 3.716 M19.810 7.610 C 18.972 7.694,18.660 7.783,12.997 9.551 C 9.901 10.518,7.958 11.107,7.867 11.107 C 7.830 11.107,7.373 10.768,6.852 10.354 C 5.418 9.217,5.126 9.038,4.571 8.960 C 4.047 8.885,3.376 9.040,2.674 9.396 C 2.081 9.698,1.674 10.395,1.744 10.992 C 1.776 11.264,2.123 12.305,2.942 14.583 C 4.130 17.892,4.213 18.072,4.872 18.753 C 5.435 19.337,6.105 19.746,6.807 19.936 C 7.092 20.013,7.313 20.034,7.910 20.038 C 8.757 20.044,8.615 20.074,10.538 19.477 C 11.163 19.283,11.687 19.138,11.703 19.154 C 11.719 19.170,11.747 20.018,11.765 21.037 C 11.783 22.064,11.819 22.957,11.845 23.040 C 11.992 23.504,12.349 23.926,12.766 24.128 C 13.512 24.489,14.873 24.214,15.367 23.601 C 15.594 23.320,15.856 22.862,17.278 20.255 C 18.532 17.957,19.034 17.059,19.176 16.858 C 19.232 16.778,19.496 16.675,20.277 16.425 C 23.681 15.335,24.139 15.174,24.518 14.931 C 26.008 13.976,26.637 12.146,26.017 10.569 C 25.573 9.440,24.890 8.737,23.679 8.158 C 22.659 7.671,21.228 7.468,19.810 7.610 M21.583 9.385 C 22.182 9.459,23.204 9.766,23.116 9.846 C 23.094 9.866,22.804 9.971,22.470 10.081 C 21.433 10.422,21.195 10.554,21.064 10.860 C 20.983 11.051,20.982 11.347,21.063 11.541 C 21.146 11.739,21.421 11.976,21.637 12.036 C 21.860 12.098,21.994 12.067,23.277 11.661 C 23.849 11.480,24.351 11.344,24.392 11.360 C 24.456 11.385,24.463 11.452,24.441 11.819 C 24.399 12.520,24.137 13.055,23.668 13.395 C 23.390 13.595,23.179 13.669,20.137 14.630 C 19.110 14.954,18.193 15.270,18.099 15.331 C 17.893 15.466,17.871 15.504,15.693 19.493 L 14.083 22.443 13.845 22.513 C 13.714 22.551,13.595 22.571,13.582 22.557 C 13.568 22.544,13.546 21.437,13.533 20.098 C 13.512 17.985,13.499 17.641,13.433 17.495 C 13.344 17.298,13.166 17.160,12.895 17.079 C 12.652 17.006,12.607 17.017,10.640 17.616 C 8.454 18.282,8.337 18.311,7.908 18.311 C 7.048 18.311,6.123 17.774,5.729 17.046 C 5.511 16.644,3.521 11.053,3.560 10.952 C 3.589 10.878,4.145 10.687,4.334 10.687 C 4.436 10.687,4.742 10.907,5.675 11.655 C 6.979 12.701,7.340 12.960,7.549 13.001 C 7.703 13.032,8.066 12.924,13.137 11.340 C 18.836 9.559,19.247 9.438,19.867 9.361 C 20.419 9.293,20.889 9.300,21.583 9.385 M17.290 11.383 C 16.803 11.502,16.333 12.074,16.333 12.547 C 16.333 13.062,16.739 13.599,17.239 13.744 C 17.833 13.917,18.384 13.662,18.686 13.076 C 18.872 12.713,18.818 12.239,18.543 11.843 C 18.327 11.532,17.668 11.290,17.290 11.383 M13.397 12.654 C 13.026 12.761,12.687 13.103,12.555 13.505 C 12.376 14.048,12.813 14.835,13.370 14.975 C 13.863 15.099,14.281 14.988,14.616 14.643 C 14.770 14.486,14.859 14.343,14.909 14.176 C 14.999 13.874,14.998 13.751,14.906 13.443 C 14.728 12.840,14.026 12.474,13.397 12.654 M9.622 13.861 C 9.221 13.944,8.939 14.205,8.770 14.651 C 8.655 14.953,8.656 15.147,8.776 15.466 C 8.939 15.901,9.475 16.287,9.917 16.287 C 10.383 16.287,10.943 15.859,11.079 15.398 C 11.176 15.072,11.173 14.942,11.058 14.636 C 10.955 14.359,10.652 14.039,10.392 13.931 C 10.180 13.843,9.856 13.813,9.622 13.861 " fill="#1A1C1F" stroke="none" fill-rule="evenodd"></path></svg>