<svg xmlns="http://www.w3.org/2000/svg" width="24" height="24" fill="none"><g clip-path="url(#a)"><path fill="#1A1C1F" fill-rule="evenodd" d="M14.576 7.284c2.965-.955 6.749.102 7.46 2.478.457 1.518-.573 3.32-2.275 3.846q-1.71.538-3.422 1.073l-2.826 5.166c-.195.323-.685.719-1.065.808a9 9 0 0 1-.492.121c-1.005.201-2.03-.567-2.041-1.695q-.014-1.183-.021-2.367l-1.835.562c-1.864.503-3.8-.49-4.44-2.287l-1.693-4.756a1.666 1.666 0 0 1 .837-1.962l.608-.25a2.11 2.11 0 0 1 2.134.301q.811.64 1.618 1.285zm3.047 1.693c-.683-.087-1.704-.047-2.443.213q-2.326.721-7.967 2.483a1 1 0 0 1-.919-.171q-1.02-.805-2.034-1.615c-.032-.025-.058-.034-.095-.026l-.22.085 1.559 4.376c.271.77 1.123 1.302 2.15.988l2.935-.902c.602-.185 1.32.273 1.294.947q.016 1.627.027 3.256l2.868-5.244c.104-.19.316-.393.579-.475l3.81-1.194c.668-.206 1.208-.955.872-1.54l-1.429.524a1 1 0 0 1-1.283-.595.98.98 0 0 1 .296-1.11M9.52 12.56a1 1 0 1 1-1.904.612 1 1 0 0 1 1.904-.612m3.11-1.002a1 1 0 1 1-1.902.615 1 1 0 0 1 1.902-.615m3.11-1a1 1 0 1 1-1.906.611 1 1 0 0 1 1.905-.612m-5.506-6.83 1.957 1.955a1 1 0 0 1 .001 1.414c-.36.361-.964.42-1.414.001q-.945-.938-1.883-1.881l-.093.025.755 1.56a1.006 1.006 0 0 1-.465 1.336 1.01 1.01 0 0 1-1.335-.465l-.895-1.85c-.483-1.28.227-1.943.755-2.248q.208-.12.416-.194.219-.065.439-.123a1.78 1.78 0 0 1 1.762.47" clip-rule="evenodd"/></g><defs><clipPath id="a"><path fill="#fff" d="M0 0h24v24H0z"/></clipPath></defs></svg>