<svg xmlns="http://www.w3.org/2000/svg" width="16" height="16" fill="none"><g clip-path="url(#a)"><path fill="#1A1C1F" fill-rule="evenodd" d="m13.066 5.434-1.94.642.402 1.112q1.913-.621 2.66-.862c.453.862.128 1.714-1.013 2.062l-2.647.83-2.086 3.814a.58.58 0 0 1-.314.248l-.476.123a.5.5 0 0 1-.628-.494l-.022-2.58-1.836.572A1.86 1.86 0 0 1 2.811 9.78L1.645 6.504c-.068-.224-.026-.421.193-.53l.386-.16c.16-.07.336-.019.492.118l1.27 1.256L9.99 5.315c1.126-.363 2.252-.24 3.076.119M5.389 7.965a.6.6 0 1 0 .687.984.6.6 0 0 0-.687-.984m1.992-.6a.599.599 0 1 0 .685.983.599.599 0 0 0-.685-.983m1.993-.61a.599.599 0 1 0 .685.982.599.599 0 0 0-.685-.983M6.169 2.746 8.325 4.78l-2.566.786L4.7 3.528a.557.557 0 0 1 .37-.781l.524-.148a.6.6 0 0 1 .576.148" clip-rule="evenodd"/></g><defs><clipPath id="a"><path fill="#fff" d="M0 0h16v16H0z"/></clipPath></defs></svg>