<svg width="20" height="20" viewBox="0 0 20 20" fill="none" xmlns="http://www.w3.org/2000/svg"><path d="M7.033 3.255 C 6.835 3.292,6.309 3.444,6.217 3.490 C 5.949 3.625,5.770 3.939,5.816 4.194 C 5.860 4.441,7.162 6.933,7.246 6.933 C 7.328 6.933,10.367 5.979,10.367 5.953 C 10.367 5.939,8.717 4.378,8.200 3.903 C 7.916 3.642,7.622 3.392,7.547 3.348 C 7.410 3.266,7.187 3.226,7.033 3.255 M13.817 6.389 C 13.162 6.446,13.033 6.481,10.217 7.356 C 6.653 8.463,5.020 8.967,4.996 8.967 C 4.982 8.967,4.616 8.620,4.182 8.197 C 3.375 7.410,3.157 7.233,2.994 7.233 C 2.888 7.233,2.563 7.350,2.305 7.481 C 2.117 7.576,2.033 7.704,2.033 7.894 C 2.033 8.011,2.435 9.204,3.044 10.900 C 3.644 12.570,3.613 12.494,3.800 12.760 C 4.162 13.276,4.709 13.610,5.381 13.725 C 5.652 13.772,5.707 13.772,5.981 13.722 C 6.147 13.692,6.808 13.510,7.450 13.317 C 8.091 13.124,8.640 12.967,8.669 12.967 C 8.716 12.967,8.726 13.045,8.745 13.542 C 8.757 13.858,8.767 14.499,8.767 14.967 C 8.768 15.900,8.803 16.365,8.881 16.484 C 8.909 16.527,8.985 16.603,9.051 16.653 C 9.223 16.784,9.415 16.793,9.809 16.688 C 10.194 16.585,10.362 16.505,10.477 16.368 C 10.566 16.263,10.958 15.560,12.345 13.019 L 13.163 11.522 14.423 11.128 C 15.844 10.685,16.664 10.411,16.933 10.290 C 17.355 10.101,17.762 9.690,17.888 9.325 C 17.984 9.050,17.971 8.484,17.864 8.200 L 17.782 7.983 17.633 7.985 C 17.538 7.987,17.060 8.124,16.333 8.359 C 14.983 8.795,14.424 8.969,14.411 8.955 C 14.371 8.916,13.919 7.603,13.938 7.585 C 13.945 7.579,14.417 7.422,14.989 7.237 C 15.560 7.051,16.084 6.876,16.153 6.847 C 16.306 6.783,16.291 6.770,15.883 6.635 C 15.524 6.515,15.134 6.446,14.553 6.401 C 14.130 6.367,14.082 6.366,13.817 6.389 M12.503 8.411 C 12.584 8.454,12.695 8.552,12.749 8.630 C 12.833 8.749,12.851 8.808,12.860 9.010 C 12.869 9.209,12.858 9.275,12.794 9.400 C 12.532 9.906,11.840 9.927,11.516 9.438 C 11.293 9.101,11.437 8.587,11.805 8.405 C 12.008 8.305,12.306 8.307,12.503 8.411 M10.031 9.192 C 10.120 9.247,10.223 9.352,10.282 9.448 C 10.535 9.857,10.305 10.412,9.832 10.537 C 9.511 10.622,9.191 10.483,9.016 10.184 C 8.843 9.890,8.923 9.451,9.185 9.251 C 9.455 9.045,9.759 9.024,10.031 9.192 M7.567 9.960 C 7.785 10.095,7.880 10.285,7.882 10.589 C 7.883 10.802,7.872 10.843,7.782 10.971 C 7.631 11.186,7.410 11.310,7.174 11.312 C 6.516 11.316,6.187 10.512,6.655 10.043 C 6.732 9.966,6.845 9.888,6.906 9.869 C 7.090 9.813,7.397 9.855,7.567 9.960 " fill="#1A1C1F" stroke="none" fill-rule="evenodd"></path></svg>