<svg xmlns="http://www.w3.org/2000/svg" width="32" height="32" fill="none"><g clip-path="url(#a)"><path fill="#1A1C1F" fill-rule="evenodd" d="M20.838 9.037c3.472-1.01 7.757-.253 8.949 3.14.782 2.227-.533 4.694-2.807 5.389q-2.531.798-5.066 1.593l-4.047 7.43c-.207.383-.57.743-.915.87-.347.128-.486.184-.914.28-1.295.293-2.573-.573-2.573-1.966a1581 1581 0 0 1-.007-3.956l-2.918.916c-2.467.728-4.987-.382-6.077-2.95q-.99-2.786-2.367-6.71a1.92 1.92 0 0 1 .976-2.366l.142-.061.71-.274a2.62 2.62 0 0 1 2.435.288l.149.112 2.477 1.986zm5.674 2.217c-1.278-.67-3.43-.882-5.323-.233q-6.06 1.9-12.114 3.806a.99.99 0 0 1-.926-.174 915 915 0 0 1-2.894-2.322c-.146-.118-.342-.183-.61-.093q-.322.119-.637.244l2.333 6.614c.482 1.27 1.91 2.17 3.617 1.723q2.102-.654 4.199-1.316c.606-.19 1.3.185 1.3.953q.006 2.657.008 5.314c0 .018.016.046.052.039q.26-.072.568-.153l.024-.02 4.242-7.788c.103-.19.346-.408.578-.475q2.723-.861 5.45-1.715c1.158-.365 1.78-1.469 1.535-2.753q-1.295.414-2.63.847a1 1 0 0 1-.613-1.904q.918-.3 1.841-.594m-13.84 5.51a1.408 1.408 0 1 1-2.681.861 1.408 1.408 0 0 1 2.68-.862m4.375-1.41a1.408 1.408 0 1 1-2.68.862 1.408 1.408 0 0 1 2.68-.862m4.376-1.41a1.407 1.407 0 1 1-2.679.863 1.407 1.407 0 0 1 2.679-.863m-8.358-9.102q1.358 1.35 2.712 2.7a1 1 0 1 1-1.411 1.418q-1.365-1.355-2.724-2.714a.16.16 0 0 0-.126-.031q-.307.08-.61.169c-.057.016-.105.06-.105.128q.6 1.245 1.216 2.487a1 1 0 0 1-.459 1.337c-.46.226-1.095.036-1.338-.459a616 616 0 0 1-1.237-2.532 2.13 2.13 0 0 1 1.385-2.888q.304-.086.61-.169c.697-.196 1.463-.067 2.087.554" clip-rule="evenodd"/></g><defs><clipPath id="a"><path fill="#fff" d="M0 0h32v32H0z"/></clipPath></defs></svg>