<svg width="28" height="28" viewBox="0 0 28 28" fill="none" xmlns="http://www.w3.org/2000/svg"><path d="M9.665 4.647 C 9.349 4.732,9.014 4.879,8.898 4.983 C 8.775 5.095,8.641 5.372,8.607 5.586 C 8.582 5.740,8.615 5.850,8.818 6.302 C 9.007 6.722,10.331 9.358,10.383 9.417 C 10.397 9.433,13.999 8.230,14.031 8.198 C 14.086 8.143,13.872 7.915,12.289 6.340 C 10.889 4.949,10.586 4.669,10.430 4.626 C 10.186 4.558,9.974 4.564,9.665 4.647 M19.179 8.582 C 18.623 8.702,17.849 8.938,12.444 10.636 L 7.692 12.130 6.891 11.488 C 5.724 10.554,5.085 10.059,4.900 9.946 C 4.679 9.812,4.008 9.805,3.635 9.934 C 3.005 10.150,2.706 10.397,2.634 10.757 C 2.606 10.897,3.109 12.405,4.331 15.846 C 4.862 17.342,4.891 17.407,5.248 17.862 C 5.696 18.435,6.273 18.836,6.953 19.048 C 7.252 19.141,7.399 19.156,7.957 19.154 C 8.697 19.152,8.441 19.215,11.151 18.367 C 11.933 18.123,12.584 17.935,12.598 17.949 C 12.612 17.963,12.634 19.049,12.647 20.362 L 12.670 22.750 12.800 22.970 C 12.968 23.258,13.266 23.438,13.570 23.436 C 13.867 23.435,14.519 23.221,14.662 23.079 C 14.815 22.926,15.390 21.909,17.104 18.760 C 17.893 17.310,18.562 16.098,18.591 16.067 C 18.620 16.036,19.441 15.759,20.417 15.452 C 23.014 14.635,23.743 14.382,24.033 14.197 C 24.619 13.824,25.096 13.173,25.272 12.507 C 25.360 12.173,25.385 11.581,25.325 11.233 C 25.291 11.032,25.277 11.012,25.185 11.038 C 25.129 11.054,24.363 11.299,23.483 11.582 C 21.728 12.146,21.722 12.147,21.387 11.904 C 21.048 11.659,20.913 11.179,21.088 10.838 C 21.266 10.487,21.385 10.429,23.072 9.870 C 23.583 9.701,24.052 9.535,24.115 9.502 L 24.229 9.442 24.002 9.297 C 23.619 9.051,22.979 8.773,22.503 8.646 C 22.079 8.533,21.971 8.524,20.813 8.510 C 19.748 8.498,19.521 8.507,19.179 8.582 M18.170 11.517 C 18.881 11.904,19.010 12.866,18.428 13.449 C 18.060 13.818,17.535 13.906,17.081 13.674 C 16.858 13.560,16.597 13.307,16.491 13.103 C 16.392 12.910,16.355 12.442,16.422 12.198 C 16.480 11.983,16.788 11.606,16.990 11.501 C 17.357 11.312,17.804 11.318,18.170 11.517 M14.116 12.652 C 14.640 12.798,14.933 13.212,14.933 13.808 C 14.933 14.231,14.827 14.484,14.549 14.722 C 13.763 15.394,12.553 14.837,12.553 13.801 C 12.553 12.991,13.316 12.430,14.116 12.652 M10.488 13.962 C 10.843 14.128,11.153 14.623,11.153 15.024 C 11.153 15.330,11.009 15.653,10.764 15.891 C 10.005 16.630,8.813 16.174,8.737 15.116 C 8.716 14.822,8.728 14.765,8.863 14.490 C 9.101 14.007,9.492 13.797,10.057 13.849 C 10.185 13.860,10.379 13.912,10.488 13.962 " fill="#1A1C1F" stroke="none" fill-rule="evenodd"></path></svg>