<svg xmlns="http://www.w3.org/2000/svg" width="14" height="14" fill="none"><g clip-path="url(#a)"><path fill="#1A1C1F" fill-rule="evenodd" d="M6.166 2.478 8.09 4.394l.216-.067c1.649-.53 3.58.032 4.153 1.327.413.934-.116 1.945-1.159 2.322l-1.888.594-1.479 2.702a1 1 0 0 1-.455.418c-1.044.514-1.774-.195-1.774-.91q-.006-.52-.01-1.04l-.655.202c-1.07.35-2.279-.138-2.683-1.29l-.907-2.547c-.134-.455 0-.975.526-1.242q.078-.038.16-.074c.415-.185.84-.062 1.136.215l.69.684.924-.29-.796-1.625c-.255-.596.056-1.365.733-1.528q.116-.034.23-.065a1.09 1.09 0 0 1 1.114.298m2.563 3.184q-2.376.743-4.75 1.488c-.22.07-.56.07-.75-.218q.127.387.447 1.253a.707.707 0 0 0 .94.423q.783-.24 1.565-.482c.422-.13.9.162.906.663l.009 1.097 1.223-2.234c.058-.106.115-.217.404-.333q.689-.221 2.035-.637c.378-.116.472-.257.41-.474-.06-.218-.397-.437-.769-.557-.458-.148-1.159-.148-1.67.01" clip-rule="evenodd"/></g><defs><clipPath id="a"><path fill="#fff" d="M0 0h14v14H0z"/></clipPath></defs></svg>