<svg xmlns="http://www.w3.org/2000/svg" width="20" height="20" fill="none"><g clip-path="url(#a)"><path fill="#1A1C1F" fill-rule="evenodd" d="m16.333 6.792-2.425.803.502 1.39q2.39-.777 3.325-1.077c.566 1.077.16 2.141-1.266 2.577l-3.309 1.037-2.608 4.768a.73.73 0 0 1-.392.31l-.595.153c-.393.112-.785-.196-.785-.617l-.028-3.225-2.294.715a2.323 2.323 0 0 1-2.944-1.402L2.056 8.13c-.085-.28-.032-.527.241-.663l.483-.2c.2-.088.42-.023.615.148l1.588 1.57 7.504-2.342c1.408-.452 2.815-.299 3.845.15M6.736 9.956a.75.75 0 1 0 .86 1.23.75.75 0 0 0-.86-1.23m2.49-.75a.748.748 0 1 0 .859 1.23.75.75 0 1 0-.858-1.228m2.491-.763a.749.749 0 1 0 .858 1.23.749.749 0 1 0-.858-1.23M7.711 3.434l2.695 2.54-3.207.982L5.875 4.41a.696.696 0 0 1 .462-.977l.654-.184a.75.75 0 0 1 .72.185" clip-rule="evenodd"/></g><defs><clipPath id="a"><path fill="#fff" d="M0 0h20v20H0z"/></clipPath></defs></svg>