<svg width="12" height="12" viewBox="0 0 12 12" fill="none" xmlns="http://www.w3.org/2000/svg"><path d="M4.286 1.880 C 3.883 1.992,3.695 2.125,3.552 2.400 C 3.484 2.531,3.420 2.764,3.420 2.881 C 3.420 3.003,3.542 3.307,3.840 3.924 C 4.006 4.266,4.146 4.567,4.152 4.592 C 4.163 4.634,4.148 4.642,3.927 4.710 C 3.797 4.751,3.623 4.805,3.541 4.831 L 3.392 4.878 3.071 4.563 C 2.588 4.089,2.537 4.060,2.172 4.060 C 1.937 4.060,1.924 4.062,1.789 4.127 C 1.395 4.318,1.235 4.536,1.206 4.921 C 1.195 5.065,1.200 5.088,1.296 5.371 C 1.527 6.055,2.065 7.539,2.121 7.650 C 2.282 7.966,2.578 8.255,2.910 8.420 C 3.178 8.553,3.400 8.605,3.710 8.608 C 3.978 8.610,4.088 8.590,4.559 8.448 C 4.718 8.401,4.853 8.366,4.859 8.372 C 4.865 8.378,4.876 8.614,4.882 8.897 C 4.894 9.378,4.898 9.418,4.944 9.543 C 5.054 9.838,5.295 10.058,5.600 10.141 C 5.926 10.230,6.428 10.079,6.665 9.821 C 6.782 9.694,6.899 9.491,7.600 8.206 L 8.070 7.344 8.600 7.179 C 9.335 6.950,9.797 6.792,9.936 6.722 C 10.187 6.595,10.481 6.313,10.626 6.060 C 10.654 6.010,10.701 5.898,10.731 5.810 C 10.777 5.673,10.785 5.615,10.785 5.410 C 10.786 5.237,10.776 5.136,10.751 5.050 C 10.631 4.640,10.291 4.227,9.867 3.977 C 9.087 3.516,8.123 3.422,7.120 3.711 L 6.937 3.764 6.163 2.996 C 5.039 1.879,5.022 1.867,4.649 1.850 C 4.469 1.841,4.404 1.847,4.286 1.880 M8.803 4.820 C 8.963 4.859,9.220 4.977,9.372 5.081 C 9.541 5.197,9.619 5.386,9.552 5.515 C 9.487 5.641,9.458 5.653,8.415 5.979 C 7.496 6.266,7.300 6.340,7.217 6.433 C 7.177 6.478,6.907 6.956,6.450 7.794 C 6.263 8.137,6.106 8.413,6.100 8.407 C 6.095 8.401,6.085 8.170,6.078 7.893 C 6.066 7.345,6.059 7.311,5.939 7.159 C 5.901 7.111,5.827 7.056,5.746 7.017 C 5.636 6.962,5.593 6.952,5.482 6.953 C 5.344 6.955,5.289 6.970,4.340 7.258 C 3.795 7.423,3.711 7.438,3.555 7.392 C 3.390 7.344,3.283 7.254,3.197 7.090 C 3.134 6.969,2.800 6.071,2.800 6.021 C 2.800 6.011,2.851 6.033,2.912 6.071 C 3.035 6.145,3.157 6.172,3.287 6.153 C 3.332 6.147,4.279 5.857,5.390 5.510 C 7.744 4.773,7.660 4.798,7.880 4.781 C 8.163 4.759,8.632 4.779,8.803 4.820 " fill="#1A1C1F" stroke="none" fill-rule="evenodd"></path></svg>