<svg xmlns="http://www.w3.org/2000/svg" width="24" height="24" fill="none"><g clip-path="url(#a)"><path fill="#1A1C1F" fill-rule="evenodd" d="M19.808 7.79q-.83.267-1.654.538c-.59.195-.8.772-.642 1.26a1 1 0 0 0 1.26.642q1.47-.474 2.938-.955.126.208.203.432c.317.915-.212 2.254-1.797 2.747l-4.155 1.303-3.242 5.952a.83.83 0 0 1-.492.424l-.457.105c-.493.14-.987-.247-.987-.774v-4.051l-3.206.985c-1.725.564-3.275-.457-3.733-1.76L2.048 9.496a.675.675 0 0 1 .388-.88L3 8.403a1.15 1.15 0 0 1 1.086.091l2.33 1.848 9.299-2.889c1.251-.352 2.83-.194 4.094.337m-11.35 3.658c-.644.258-.79.808-.644 1.26.133.412.645.848 1.258.645.523-.173.815-.733.646-1.259-.17-.525-.75-.85-1.26-.646m3.11-1a1.005 1.005 0 0 0-.645 1.258c.134.413.645.843 1.258.645.525-.169.815-.733.646-1.258-.12-.376-.6-.863-1.259-.646m3.11-1.002c-.258.09-.838.481-.666 1.16.167.664.837.869 1.28.744a.995.995 0 0 0 .619-1.328c-.163-.417-.743-.747-1.233-.576M9.163 4.001l2.974 2.779-3.44 1.073-1.401-2.795c-.246-.458.035-1.021.564-1.162l.458-.141A.92.92 0 0 1 9.163 4" clip-rule="evenodd"/></g><defs><clipPath id="a"><path fill="#fff" d="M0 0h24v24H0z"/></clipPath></defs></svg>