<svg width="16" height="16" viewBox="0 0 16 16" fill="none" xmlns="http://www.w3.org/2000/svg"><path d="M5.366 2.666 C 4.895 2.791,4.759 2.883,4.677 3.128 C 4.606 3.342,4.622 3.387,5.087 4.280 C 5.561 5.191,5.760 5.547,5.797 5.547 C 5.837 5.547,7.388 5.068,7.932 4.888 L 8.304 4.765 8.119 4.591 C 8.017 4.495,7.705 4.200,7.427 3.935 C 6.626 3.174,6.156 2.748,6.036 2.677 C 5.865 2.576,5.714 2.573,5.366 2.666 M10.933 5.122 C 10.417 5.185,10.436 5.179,6.640 6.360 C 5.679 6.659,4.691 6.965,4.443 7.040 L 3.994 7.178 3.897 7.089 C 3.844 7.040,3.559 6.764,3.263 6.475 C 2.711 5.935,2.524 5.787,2.395 5.787 C 2.310 5.787,2.050 5.880,1.844 5.985 C 1.694 6.061,1.627 6.163,1.627 6.316 C 1.627 6.427,2.428 8.752,2.851 9.870 C 3.116 10.568,3.998 11.094,4.726 10.987 C 4.932 10.957,5.293 10.857,6.360 10.535 C 6.653 10.446,6.914 10.373,6.940 10.373 C 6.978 10.373,6.987 10.398,6.989 10.500 C 7.010 11.973,7.041 13.018,7.065 13.099 C 7.107 13.235,7.280 13.379,7.431 13.402 C 7.574 13.423,7.960 13.340,8.184 13.239 C 8.394 13.145,8.286 13.322,9.650 10.829 L 10.531 9.217 11.539 8.903 C 12.850 8.493,13.370 8.316,13.619 8.195 C 13.868 8.073,14.144 7.812,14.248 7.600 C 14.393 7.304,14.408 6.921,14.290 6.573 L 14.227 6.387 14.093 6.391 C 14.008 6.394,13.710 6.478,13.267 6.622 C 12.322 6.931,11.540 7.175,11.529 7.165 C 11.497 7.133,11.134 6.083,11.151 6.068 C 11.156 6.064,11.571 5.926,12.073 5.762 C 12.575 5.598,12.992 5.454,12.999 5.441 C 13.017 5.413,12.735 5.300,12.499 5.242 C 12.086 5.139,11.290 5.078,10.933 5.122 M9.956 6.703 C 10.179 6.796,10.340 7.087,10.304 7.329 C 10.278 7.505,10.146 7.680,9.975 7.767 C 9.732 7.890,9.469 7.844,9.292 7.648 C 9.071 7.404,9.062 7.132,9.266 6.865 C 9.401 6.688,9.733 6.610,9.956 6.703 M8.026 7.355 C 8.097 7.398,8.178 7.481,8.226 7.559 C 8.428 7.885,8.244 8.329,7.866 8.429 C 7.500 8.526,7.143 8.251,7.140 7.870 C 7.135 7.394,7.625 7.110,8.026 7.355 M6.053 7.969 C 6.338 8.143,6.403 8.570,6.185 8.834 C 6.072 8.970,5.913 9.048,5.747 9.047 C 5.212 9.046,4.944 8.415,5.319 8.039 C 5.508 7.851,5.812 7.822,6.053 7.969 " fill="#1A1C1F" stroke="none" fill-rule="evenodd"></path></svg>