<svg width="14" height="14" viewBox="0 0 14 14" fill="none" xmlns="http://www.w3.org/2000/svg"><path d="M5.000 2.193 C 4.638 2.294,4.484 2.376,4.309 2.564 C 4.173 2.710,4.073 2.916,4.020 3.159 C 3.956 3.457,3.983 3.542,4.496 4.607 C 4.680 4.991,4.837 5.329,4.844 5.358 C 4.856 5.405,4.840 5.415,4.663 5.469 C 4.556 5.502,4.353 5.566,4.212 5.610 L 3.956 5.691 3.594 5.334 C 3.024 4.772,2.960 4.737,2.528 4.737 C 2.246 4.737,2.235 4.739,2.082 4.816 C 1.619 5.049,1.440 5.294,1.407 5.740 C 1.392 5.948,1.389 5.940,1.983 7.607 C 2.444 8.900,2.443 8.895,2.582 9.104 C 2.965 9.675,3.551 10.005,4.258 10.048 C 4.535 10.064,4.763 10.023,5.307 9.860 C 5.499 9.802,5.662 9.761,5.669 9.768 C 5.676 9.775,5.688 10.045,5.696 10.368 C 5.708 10.880,5.717 10.975,5.760 11.110 C 5.871 11.452,6.171 11.732,6.533 11.831 C 6.914 11.935,7.499 11.759,7.776 11.458 C 7.912 11.310,8.049 11.073,8.867 9.574 L 9.415 8.568 10.033 8.376 C 10.938 8.094,11.404 7.937,11.537 7.870 C 12.260 7.504,12.660 6.826,12.579 6.107 C 12.501 5.428,11.929 4.779,11.101 4.433 C 10.589 4.220,10.187 4.143,9.590 4.145 C 9.110 4.147,8.801 4.190,8.345 4.319 L 8.092 4.391 7.190 3.495 C 5.879 2.193,5.859 2.178,5.424 2.158 C 5.214 2.148,5.138 2.155,5.000 2.193 M10.270 5.623 C 10.457 5.669,10.757 5.807,10.934 5.928 C 11.147 6.075,11.231 6.308,11.126 6.462 C 11.049 6.575,10.941 6.621,10.255 6.837 C 8.785 7.298,8.517 7.395,8.420 7.505 C 8.372 7.558,8.020 8.184,7.513 9.116 C 7.302 9.503,7.124 9.815,7.117 9.808 C 7.110 9.802,7.099 9.532,7.092 9.209 C 7.077 8.569,7.069 8.529,6.929 8.352 C 6.885 8.296,6.798 8.232,6.703 8.186 C 6.467 8.070,6.337 8.080,5.752 8.259 C 4.486 8.646,4.498 8.643,4.328 8.643 C 4.208 8.644,4.135 8.630,4.048 8.591 C 3.789 8.473,3.736 8.375,3.393 7.398 C 3.324 7.200,3.267 7.030,3.267 7.021 C 3.267 7.011,3.326 7.039,3.398 7.082 C 3.541 7.169,3.684 7.200,3.834 7.179 C 3.888 7.171,4.992 6.833,6.288 6.428 C 7.585 6.022,8.724 5.669,8.820 5.642 C 9.138 5.552,9.938 5.542,10.270 5.623 " fill="#1A1C1F" stroke="none" fill-rule="evenodd"></path></svg>