<svg width="16" height="16" viewBox="0 0 16 16" fill="none" xmlns="http://www.w3.org/2000/svg"><path d="M5.710 2.507 C 5.274 2.629,5.040 2.761,4.874 2.981 C 4.697 3.217,4.601 3.459,4.571 3.747 C 4.546 3.981,4.642 4.239,5.132 5.255 C 5.360 5.728,5.547 6.130,5.547 6.149 C 5.547 6.169,5.453 6.212,5.327 6.251 C 5.206 6.289,4.975 6.361,4.814 6.412 L 4.522 6.504 4.094 6.084 C 3.450 5.452,3.382 5.413,2.896 5.413 C 2.583 5.413,2.566 5.416,2.386 5.503 C 1.833 5.770,1.613 6.090,1.615 6.627 C 1.615 6.866,1.616 6.869,1.970 7.867 C 2.823 10.269,2.803 10.220,3.074 10.573 C 3.597 11.256,4.562 11.617,5.400 11.443 C 5.547 11.413,5.846 11.334,6.065 11.268 C 6.285 11.203,6.471 11.155,6.479 11.163 C 6.487 11.171,6.501 11.480,6.510 11.849 C 6.524 12.434,6.533 12.543,6.583 12.697 C 6.709 13.088,7.053 13.408,7.467 13.521 C 7.901 13.640,8.570 13.439,8.887 13.095 C 9.043 12.925,9.228 12.605,10.148 10.916 L 10.760 9.792 11.467 9.572 C 12.496 9.251,13.035 9.070,13.187 8.993 C 13.713 8.727,14.138 8.258,14.305 7.757 C 14.371 7.560,14.380 7.494,14.381 7.200 C 14.381 6.925,14.371 6.837,14.322 6.696 C 14.073 5.972,13.523 5.423,12.693 5.071 C 11.720 4.657,10.646 4.616,9.493 4.948 L 9.249 5.018 8.218 3.995 C 6.719 2.506,6.696 2.489,6.199 2.466 C 5.957 2.455,5.873 2.462,5.710 2.507 M11.738 6.426 C 11.952 6.479,12.294 6.636,12.496 6.775 C 12.721 6.930,12.826 7.182,12.737 7.354 C 12.650 7.521,12.611 7.537,11.220 7.971 C 9.994 8.354,9.733 8.453,9.623 8.577 C 9.568 8.638,9.166 9.353,8.586 10.418 C 8.345 10.861,8.141 11.217,8.134 11.209 C 8.126 11.202,8.113 10.894,8.105 10.524 C 8.092 9.923,8.084 9.841,8.035 9.731 C 7.962 9.568,7.811 9.421,7.629 9.338 C 7.395 9.231,7.226 9.243,6.680 9.408 C 6.431 9.483,5.987 9.617,5.693 9.706 C 5.061 9.897,4.944 9.916,4.739 9.856 C 4.461 9.775,4.304 9.605,4.157 9.227 C 4.060 8.977,3.733 8.052,3.733 8.027 C 3.733 8.014,3.801 8.044,3.883 8.094 C 4.047 8.193,4.210 8.229,4.382 8.204 C 4.443 8.195,5.315 7.931,6.320 7.617 C 8.725 6.865,10.013 6.465,10.160 6.425 C 10.457 6.344,11.407 6.345,11.738 6.426 " fill="#1A1C1F" stroke="none" fill-rule="evenodd"></path></svg>