<svg width="32" height="32" viewBox="0 0 32 32" fill="none" xmlns="http://www.w3.org/2000/svg"><path d="M11.200 4.247 C 10.803 4.323,10.252 4.500,9.984 4.636 C 9.243 5.014,8.727 5.913,8.817 6.671 C 8.854 6.978,9.099 7.583,9.648 8.720 C 10.303 10.077,10.475 10.294,11.002 10.421 C 11.387 10.513,12.008 10.085,12.085 9.673 C 12.142 9.369,12.052 9.112,11.408 7.747 C 11.086 7.063,10.837 6.480,10.854 6.452 C 10.905 6.370,11.456 6.229,11.578 6.268 C 11.639 6.288,12.318 6.920,13.087 7.674 C 13.856 8.427,14.571 9.085,14.677 9.135 C 15.156 9.363,15.813 9.108,15.996 8.623 C 16.075 8.416,16.068 8.084,15.979 7.873 C 15.896 7.672,13.823 5.534,13.095 4.897 C 12.779 4.622,12.519 4.443,12.333 4.373 C 12.049 4.266,11.447 4.200,11.200 4.247 M22.622 8.697 C 21.710 8.785,21.306 8.901,14.853 10.915 C 11.315 12.020,9.095 12.693,8.990 12.693 C 8.949 12.693,8.427 12.306,7.831 11.833 C 6.192 10.534,5.859 10.330,5.225 10.240 C 4.625 10.155,3.858 10.331,3.057 10.739 C 2.378 11.083,1.913 11.880,1.993 12.562 C 2.030 12.873,2.426 14.062,3.362 16.667 C 4.720 20.448,4.815 20.653,5.567 21.432 C 6.040 21.921,6.473 22.235,7.054 22.507 C 7.735 22.826,8.104 22.899,9.067 22.903 C 10.005 22.907,9.876 22.935,12.044 22.260 C 12.757 22.038,13.356 21.871,13.374 21.890 C 13.393 21.909,13.425 22.877,13.446 24.042 C 13.466 25.216,13.507 26.237,13.537 26.332 C 13.705 26.862,14.113 27.344,14.589 27.575 C 15.443 27.988,16.996 27.674,17.563 26.973 C 17.812 26.666,18.309 25.795,19.867 22.933 C 21.177 20.527,21.752 19.498,21.915 19.267 C 21.979 19.176,22.266 19.062,23.093 18.797 C 26.977 17.556,27.588 17.341,28.020 17.064 C 29.179 16.322,29.898 15.117,30.001 13.744 C 30.090 12.562,29.481 11.129,28.522 10.267 C 27.145 9.028,25.029 8.465,22.622 8.697 M24.667 10.726 C 25.351 10.810,26.519 11.161,26.418 11.252 C 26.394 11.275,26.025 11.408,25.600 11.547 C 24.256 11.989,24.000 12.190,24.000 12.805 C 24.000 13.422,24.605 13.909,25.187 13.759 C 25.311 13.727,25.948 13.532,26.602 13.326 C 27.256 13.119,27.830 12.965,27.877 12.983 C 27.950 13.011,27.958 13.088,27.933 13.508 C 27.885 14.309,27.585 14.920,27.049 15.308 C 26.731 15.538,26.476 15.627,23.013 16.719 C 21.581 17.170,20.812 17.439,20.674 17.536 C 20.433 17.705,20.323 17.896,17.803 22.518 L 16.096 25.649 15.823 25.728 C 15.673 25.772,15.538 25.795,15.522 25.780 C 15.506 25.764,15.481 24.499,15.466 22.969 C 15.442 20.555,15.427 20.161,15.352 19.995 C 15.250 19.769,15.047 19.611,14.737 19.519 C 14.460 19.436,14.408 19.448,12.160 20.133 C 9.638 20.900,9.530 20.928,9.029 20.924 C 8.038 20.918,6.998 20.313,6.547 19.481 C 6.298 19.022,4.024 12.632,4.069 12.517 C 4.101 12.432,4.737 12.213,4.952 12.213 C 5.067 12.213,5.423 12.471,6.484 13.320 C 7.978 14.516,8.388 14.811,8.627 14.859 C 8.804 14.894,9.233 14.766,15.030 12.955 C 21.565 10.913,21.997 10.786,22.705 10.699 C 23.336 10.621,23.873 10.628,24.667 10.726 M19.760 13.009 C 19.204 13.145,18.667 13.799,18.667 14.339 C 18.667 14.928,19.131 15.542,19.701 15.707 C 20.380 15.905,21.010 15.614,21.355 14.944 C 21.568 14.529,21.506 13.988,21.192 13.535 C 20.946 13.180,20.192 12.903,19.760 13.009 M15.310 14.462 C 14.887 14.584,14.499 14.975,14.348 15.434 C 14.144 16.054,14.643 16.954,15.280 17.114 C 15.844 17.256,16.321 17.129,16.704 16.735 C 16.879 16.556,16.982 16.392,17.039 16.202 C 17.141 15.856,17.141 15.716,17.036 15.363 C 16.831 14.675,16.029 14.256,15.310 14.462 M10.996 15.842 C 10.539 15.936,10.216 16.234,10.023 16.744 C 9.891 17.090,9.893 17.311,10.030 17.676 C 10.216 18.173,10.828 18.613,11.333 18.613 C 12.019 18.613,12.747 17.882,12.747 17.192 C 12.747 16.878,12.548 16.453,12.288 16.214 C 11.911 15.866,11.481 15.742,10.996 15.842 " fill="#1A1C1F" stroke="none" fill-rule="evenodd"></path></svg>