<svg width="14" height="14" viewBox="0 0 14 14" fill="none" xmlns="http://www.w3.org/2000/svg"><path d="M4.832 2.299 C 4.410 2.391,4.205 2.494,4.126 2.654 C 4.031 2.848,4.048 2.947,4.244 3.337 C 4.558 3.962,5.028 4.835,5.057 4.847 C 5.093 4.861,7.257 4.193,7.257 4.168 C 7.257 4.158,6.137 3.098,5.786 2.775 C 5.363 2.386,5.278 2.319,5.168 2.289 C 5.053 2.258,5.020 2.259,4.832 2.299 M9.581 4.482 C 9.145 4.528,9.074 4.549,5.787 5.573 C 5.087 5.790,4.286 6.039,4.005 6.125 L 3.495 6.281 3.410 6.203 C 3.364 6.160,3.114 5.918,2.856 5.665 C 2.372 5.193,2.209 5.063,2.096 5.063 C 2.022 5.063,1.794 5.145,1.613 5.237 C 1.482 5.303,1.423 5.393,1.423 5.527 C 1.423 5.610,1.656 6.305,2.088 7.513 C 2.524 8.732,2.530 8.748,2.661 8.933 C 2.913 9.292,3.297 9.527,3.763 9.607 C 3.946 9.639,3.988 9.638,4.183 9.605 C 4.301 9.585,4.766 9.457,5.215 9.322 C 5.664 9.187,6.050 9.077,6.072 9.077 C 6.105 9.077,6.114 9.098,6.115 9.188 C 6.134 10.477,6.161 11.390,6.182 11.461 C 6.219 11.583,6.370 11.707,6.506 11.727 C 6.708 11.758,7.203 11.605,7.318 11.477 C 7.387 11.402,7.548 11.114,8.444 9.475 L 9.214 8.065 10.096 7.790 C 11.244 7.431,11.699 7.277,11.916 7.170 C 12.135 7.064,12.376 6.836,12.467 6.650 C 12.594 6.390,12.608 6.053,12.503 5.752 C 12.453 5.608,12.439 5.587,12.383 5.581 C 12.313 5.573,12.168 5.615,11.200 5.927 C 10.377 6.192,10.097 6.278,10.088 6.269 C 10.060 6.241,9.743 5.322,9.757 5.310 C 9.761 5.306,10.124 5.185,10.563 5.042 C 11.002 4.900,11.367 4.773,11.374 4.762 C 11.388 4.739,11.374 4.732,11.114 4.643 C 10.878 4.562,10.585 4.511,10.173 4.480 C 9.829 4.455,9.844 4.455,9.581 4.482 M8.752 5.888 C 8.907 5.970,8.991 6.103,9.003 6.290 C 9.015 6.481,8.965 6.620,8.849 6.722 C 8.627 6.917,8.353 6.907,8.139 6.695 C 7.942 6.498,7.929 6.241,8.105 6.011 C 8.239 5.835,8.542 5.777,8.752 5.888 M7.013 6.428 C 7.498 6.712,7.247 7.455,6.688 7.388 C 6.443 7.359,6.250 7.140,6.247 6.888 C 6.243 6.474,6.663 6.223,7.013 6.428 M5.296 6.972 C 5.546 7.125,5.602 7.499,5.412 7.730 C 5.212 7.971,4.880 7.984,4.655 7.759 C 4.513 7.617,4.470 7.436,4.529 7.225 C 4.561 7.107,4.725 6.944,4.844 6.911 C 4.984 6.872,5.175 6.898,5.296 6.972 " fill="#1A1C1F" stroke="none" fill-rule="evenodd"></path></svg>