<svg xmlns="http://www.w3.org/2000/svg" width="20" height="20" fill="none"><g clip-path="url(#a)"><path fill="#1A1C1F" fill-rule="evenodd" d="M8.808 3.54q1.377 1.368 2.75 2.738l.307-.096c2.356-.758 5.115.045 5.933 1.895.59 1.334-.165 2.78-1.655 3.318l-2.698.849-2.112 3.86a1.43 1.43 0 0 1-.65.596c-1.491.734-2.535-.278-2.535-1.3q-.008-.742-.014-1.485l-.935.288c-1.53.5-3.256-.197-3.834-1.843L2.071 8.721c-.193-.649 0-1.393.75-1.774q.112-.055.228-.105c.594-.265 1.201-.089 1.624.307l.986.977 1.32-.413L5.841 5.39c-.364-.851.08-1.95 1.046-2.183q.165-.049.33-.093a1.56 1.56 0 0 1 1.59.426m3.662 4.548q-3.394 1.06-6.786 2.127c-.314.098-.8.098-1.07-.311q.18.552.637 1.79c.151.43.67.862 1.343.603q1.12-.342 2.236-.688a.997.997 0 0 1 1.294.947q.009.784.012 1.568l1.748-3.193c.083-.151.164-.31.578-.474q.984-.315 2.906-.911c.54-.166.675-.368.587-.678-.087-.31-.569-.623-1.1-.795-.654-.212-1.655-.212-2.385.015" clip-rule="evenodd"/></g><defs><clipPath id="a"><path fill="#fff" d="M0 0h20v20H0z"/></clipPath></defs></svg>