<svg width="24" height="24" viewBox="0 0 24 24" fill="none" xmlns="http://www.w3.org/2000/svg"><path d="M8.591 3.241 C 7.836 3.368,7.122 3.836,6.860 4.376 C 6.711 4.681,6.679 5.135,6.779 5.520 C 6.923 6.073,7.781 7.769,8.030 7.991 C 8.497 8.409,9.276 8.240,9.545 7.662 C 9.717 7.293,9.665 7.034,9.238 6.135 C 9.103 5.852,8.957 5.530,8.914 5.420 L 8.834 5.220 8.965 5.340 C 9.037 5.406,9.496 5.849,9.985 6.325 C 10.975 7.289,11.105 7.379,11.500 7.378 C 11.926 7.378,12.275 7.122,12.416 6.707 C 12.503 6.449,12.497 6.219,12.396 6.011 C 12.224 5.656,10.039 3.514,9.693 3.361 C 9.375 3.220,8.974 3.177,8.591 3.241 M15.920 7.005 C 15.209 7.087,15.280 7.066,9.951 8.726 L 7.121 9.607 6.471 9.090 C 5.275 8.140,5.045 7.998,4.578 7.917 C 4.038 7.823,3.496 7.932,2.822 8.269 C 2.331 8.516,1.991 8.958,1.881 9.492 C 1.854 9.623,1.846 9.797,1.862 9.892 C 1.939 10.347,3.671 15.192,3.891 15.569 C 4.386 16.413,5.216 17.043,6.152 17.284 C 6.333 17.330,6.667 17.372,6.960 17.386 C 7.545 17.413,7.599 17.403,8.911 17.013 C 9.401 16.868,9.812 16.759,9.825 16.772 C 9.855 16.801,9.916 18.213,9.918 18.925 C 9.920 19.465,9.921 19.471,10.060 19.749 C 10.314 20.256,10.668 20.571,11.153 20.721 C 11.461 20.816,11.702 20.820,12.112 20.738 C 12.503 20.658,12.836 20.502,13.137 20.255 C 13.408 20.033,13.485 19.902,15.320 16.550 L 16.340 14.687 17.440 14.339 C 19.514 13.684,20.223 13.439,20.483 13.289 C 20.803 13.104,21.491 12.423,21.673 12.113 C 22.022 11.517,22.139 11.055,22.111 10.371 C 22.095 9.988,22.072 9.849,21.986 9.625 C 21.599 8.621,20.648 7.804,19.334 7.347 C 18.376 7.013,17.025 6.878,15.920 7.005 M17.503 9.093 C 17.097 9.625,17.278 10.385,17.874 10.650 C 18.167 10.780,18.364 10.752,19.239 10.453 C 19.677 10.304,20.046 10.192,20.059 10.205 C 20.071 10.218,20.092 10.344,20.105 10.484 C 20.127 10.720,20.118 10.761,19.994 10.998 C 19.755 11.456,19.607 11.544,18.430 11.921 C 15.897 12.734,15.211 12.964,15.090 13.039 C 15.018 13.083,14.899 13.214,14.825 13.330 C 14.658 13.591,13.781 15.169,12.758 17.049 C 12.138 18.189,11.975 18.460,11.954 18.389 C 11.940 18.340,11.925 17.886,11.922 17.380 C 11.912 15.890,11.865 15.127,11.768 14.910 C 11.649 14.639,11.321 14.429,10.986 14.408 C 10.690 14.389,10.474 14.442,9.037 14.882 C 7.500 15.352,7.242 15.414,6.918 15.391 C 6.400 15.353,5.847 14.993,5.631 14.551 C 5.471 14.223,3.933 9.970,3.966 9.943 C 3.973 9.937,4.026 9.920,4.082 9.907 C 4.212 9.876,4.286 9.922,5.000 10.483 C 6.470 11.636,6.645 11.747,6.936 11.706 C 7.121 11.680,8.557 11.250,11.100 10.461 C 15.054 9.234,15.711 9.042,16.100 9.003 C 16.276 8.985,16.686 8.968,17.012 8.965 L 17.604 8.960 17.503 9.093 M14.440 9.932 C 14.244 9.994,13.898 10.349,13.844 10.544 C 13.732 10.947,13.832 11.313,14.125 11.577 C 14.486 11.901,14.843 11.948,15.257 11.726 C 15.493 11.599,15.660 11.381,15.745 11.089 C 15.956 10.362,15.201 9.693,14.440 9.932 M11.331 10.922 C 11.131 10.984,10.820 11.321,10.739 11.563 C 10.532 12.188,11.015 12.853,11.680 12.857 C 12.110 12.860,12.545 12.504,12.638 12.074 C 12.769 11.462,12.347 10.932,11.701 10.896 C 11.568 10.888,11.402 10.900,11.331 10.922 M8.230 11.938 C 7.885 12.071,7.626 12.401,7.575 12.773 C 7.501 13.311,8.009 13.859,8.580 13.857 C 9.177 13.855,9.656 13.265,9.544 12.669 C 9.506 12.464,9.309 12.197,9.085 12.046 C 8.922 11.936,8.839 11.908,8.633 11.896 C 8.474 11.886,8.324 11.902,8.230 11.938 " fill="#1A1C1F" stroke="none" fill-rule="evenodd"></path></svg>