<svg width="20" height="20" viewBox="0 0 20 20" fill="none" xmlns="http://www.w3.org/2000/svg"><path d="M7.138 3.134 C 6.805 3.227,6.514 3.348,6.381 3.450 C 6.005 3.737,5.766 4.178,5.713 4.684 C 5.683 4.978,5.806 5.310,6.417 6.573 C 6.701 7.161,6.933 7.662,6.933 7.686 C 6.933 7.711,6.819 7.765,6.658 7.814 C 6.507 7.861,6.219 7.951,6.018 8.015 L 5.652 8.130 5.118 7.605 C 4.313 6.815,4.228 6.767,3.620 6.767 C 3.228 6.767,3.207 6.770,2.982 6.879 C 2.325 7.196,2.058 7.559,2.010 8.202 C 1.992 8.442,2.000 8.481,2.160 8.952 C 2.545 10.091,3.441 12.565,3.535 12.750 C 4.114 13.889,5.506 14.563,6.750 14.304 C 6.933 14.266,7.308 14.168,7.582 14.086 C 7.856 14.003,8.088 13.944,8.098 13.954 C 8.108 13.964,8.126 14.350,8.137 14.811 C 8.155 15.542,8.167 15.678,8.229 15.872 C 8.387 16.360,8.816 16.760,9.333 16.902 C 9.876 17.050,10.713 16.799,11.109 16.368 C 11.303 16.157,11.499 15.818,12.667 13.677 L 13.450 12.240 14.067 12.049 C 15.377 11.644,16.304 11.327,16.555 11.201 C 17.189 10.881,17.721 10.249,17.920 9.581 C 18.009 9.282,18.000 8.653,17.903 8.370 C 17.506 7.216,16.461 6.389,14.967 6.047 C 13.995 5.825,12.958 5.871,11.866 6.185 L 11.561 6.273 10.272 4.993 C 8.399 3.132,8.370 3.111,7.749 3.083 C 7.447 3.069,7.341 3.078,7.138 3.134 M14.672 8.033 C 14.939 8.098,15.368 8.295,15.620 8.469 C 15.901 8.662,16.032 8.977,15.921 9.192 C 15.812 9.402,15.764 9.421,14.025 9.964 C 12.493 10.443,12.166 10.567,12.028 10.721 C 11.960 10.798,11.457 11.691,10.732 13.023 C 10.431 13.576,10.177 14.021,10.167 14.012 C 10.158 14.002,10.142 13.617,10.131 13.156 C 10.115 12.404,10.106 12.301,10.044 12.164 C 9.890 11.821,9.516 11.585,9.133 11.589 C 8.907 11.591,8.811 11.617,7.233 12.096 C 6.326 12.372,6.185 12.396,5.924 12.320 C 5.577 12.219,5.380 12.007,5.196 11.533 C 5.075 11.221,4.667 10.064,4.667 10.034 C 4.667 10.018,4.751 10.056,4.854 10.118 C 5.059 10.241,5.262 10.286,5.478 10.255 C 5.554 10.244,7.132 9.762,8.983 9.183 C 10.835 8.604,12.463 8.098,12.600 8.060 C 13.056 7.931,14.199 7.917,14.672 8.033 " fill="#1A1C1F" stroke="none" fill-rule="evenodd"></path></svg>