<svg xmlns="http://www.w3.org/2000/svg" width="32" height="32" fill="none"><g clip-path="url(#a)"><path fill="#1A1C1F" fill-rule="evenodd" d="M27.748 10.838q-1.535.498-3.065 1.002c-.64.278-.8.773-.64 1.26.16.488.714.834 1.262.64 1.789-.581 1.828-.638 3.574-1.168.473 1.794-.508 3.5-2.184 4.029l-5.45 1.715-4.242 7.788c-.136.25-.368.433-.643.507l-.568.154a1.04 1.04 0 0 1-1.312-1.003l-.009-5.315-4.199 1.317a3.934 3.934 0 0 1-4.85-2.324l-2.368-6.711a.916.916 0 0 1 .535-1.16l.71-.275a1.62 1.62 0 0 1 1.598.248l2.894 2.32 12.114-3.805c2.235-.715 5.182-.57 6.843.781m-16.832 5.007a1.407 1.407 0 1 0 .863 2.678 1.407 1.407 0 0 0-.863-2.678m4.376-1.41a1.406 1.406 0 1 0 .861 2.678 1.406 1.406 0 0 0-.861-2.678m4.376-1.409a1.406 1.406 0 1 0 .861 2.678 1.406 1.406 0 0 0-.861-2.678m-7.293-7.485 3.754 3.805-4.252 1.445L9.92 6.94a1.124 1.124 0 0 1 .731-1.528l.615-.172c.397-.11.823.005 1.11.3" clip-rule="evenodd"/></g><defs><clipPath id="a"><path fill="#fff" d="M0 0h32v32H0z"/></clipPath></defs></svg>