<svg xmlns="http://www.w3.org/2000/svg" width="14" height="14" fill="none"><g clip-path="url(#a)"><path fill="#1A1C1F" fill-rule="evenodd" d="m11.433 4.755-1.698.562.352.973q1.673-.545 2.327-.755c.397.755.113 1.5-.886 1.805l-2.316.726-1.825 3.337a.5.5 0 0 1-.275.217l-.416.107a.438.438 0 0 1-.55-.431l-.02-2.258-1.605.5a1.626 1.626 0 0 1-2.061-.98L1.44 5.69c-.06-.196-.023-.369.168-.464l.338-.14c.14-.062.294-.016.43.104L3.488 6.29l5.253-1.64c.985-.317 1.97-.21 2.692.105M4.715 6.97a.525.525 0 1 0 .602.86.525.525 0 0 0-.602-.86m1.744-.525a.524.524 0 1 0 .599.86.524.524 0 0 0-.6-.86m1.743-.535a.524.524 0 1 0 .6.86.524.524 0 0 0-.6-.86M5.398 2.404l1.886 1.777-2.245.688-.926-1.782a.488.488 0 0 1 .323-.684l.458-.128a.53.53 0 0 1 .504.129" clip-rule="evenodd"/></g><defs><clipPath id="a"><path fill="#fff" d="M0 0h14v14H0z"/></clipPath></defs></svg>