<svg xmlns="http://www.w3.org/2000/svg" width="28" height="28" fill="none"><g clip-path="url(#a)"><path fill="#1A1C1F" fill-rule="evenodd" d="M24.28 9.484q-1.344.435-2.682.876c-.56.243-.7.677-.56 1.103.14.427.625.73 1.104.56 1.565-.509 1.599-.559 3.127-1.023.414 1.57-.444 3.064-1.91 3.526l-4.77 1.5-3.711 6.815a.9.9 0 0 1-.563.444l-.497.134a.91.91 0 0 1-1.148-.877l-.008-4.65-3.674 1.152a3.443 3.443 0 0 1-4.244-2.034l-2.071-5.872a.8.8 0 0 1 .468-1.015l.621-.24a1.42 1.42 0 0 1 1.398.216l2.532 2.03 10.6-3.33c1.955-.624 4.534-.498 5.987.685m-14.728 4.38a1.231 1.231 0 1 0 .754 2.344 1.231 1.231 0 0 0-.754-2.344m3.828-1.233a1.23 1.23 0 1 0 .754 2.343 1.23 1.23 0 0 0-.754-2.343m3.83-1.233a1.23 1.23 0 1 0 .753 2.343 1.23 1.23 0 0 0-.754-2.343m-6.382-6.55 3.285 3.33-3.72 1.264-1.714-3.37a.984.984 0 0 1 .64-1.337l.538-.15a.99.99 0 0 1 .971.263" clip-rule="evenodd"/></g><defs><clipPath id="a"><path fill="#fff" d="M0 0h28v28H0z"/></clipPath></defs></svg>