<svg xmlns="http://www.w3.org/2000/svg" width="28" height="28" fill="none"><g clip-path="url(#a)"><path fill="#1A1C1F" fill-rule="evenodd" d="M18.233 7.907c3.038-.883 6.787-.22 7.83 2.748.685 1.949-.466 4.107-2.455 4.715q-2.215.699-4.434 1.394l-3.54 6.502c-.181.335-.498.65-.801.761-.303.112-.425.161-.8.245-1.133.256-2.251-.502-2.251-1.72q-.006-1.731-.007-3.462l-2.552.801c-2.16.637-4.364-.334-5.318-2.58a1564 1564 0 0 1-2.071-5.873c-.286-.812.09-1.7.854-2.07l.124-.053.621-.24a2.29 2.29 0 0 1 2.131.253l.13.097 2.168 1.738zm4.965 1.94c-1.119-.585-3.002-.772-4.658-.204q-5.3 1.664-10.6 3.33a.87.87 0 0 1-.81-.152q-1.268-1.014-2.532-2.032c-.128-.103-.3-.16-.534-.081q-.28.105-.557.214l2.041 5.787c.422 1.111 1.671 1.898 3.165 1.508q1.84-.573 3.674-1.152c.53-.166 1.137.162 1.137.834q.007 2.325.008 4.65c0 .016.014.04.045.034q.228-.062.498-.134l.02-.017 3.712-6.815a.96.96 0 0 1 .506-.416 1758 1758 0 0 1 4.77-1.5c1.012-.32 1.556-1.285 1.342-2.41q-1.132.364-2.301.742a.875.875 0 1 1-.537-1.666q.804-.262 1.611-.52m-12.11 4.82a1.232 1.232 0 1 1-2.346.755 1.232 1.232 0 0 1 2.346-.754m3.829-1.232a1.232 1.232 0 1 1-2.346.754 1.232 1.232 0 0 1 2.345-.754m3.828-1.234a1.231 1.231 0 1 1-2.344.755 1.231 1.231 0 0 1 2.344-.755m-7.313-7.965Q12.62 5.417 13.805 6.6a.875.875 0 0 1-1.235 1.24q-1.194-1.185-2.383-2.375a.14.14 0 0 0-.11-.027 25 25 0 0 0-.535.148c-.049.014-.091.053-.091.112q.525 1.089 1.064 2.176a.875.875 0 0 1-.402 1.17.9.9 0 0 1-1.17-.401Q8.398 7.536 7.86 6.427A1.862 1.862 0 0 1 9.072 3.9q.266-.075.534-.148c.61-.171 1.28-.059 1.826.484" clip-rule="evenodd"/></g><defs><clipPath id="a"><path fill="#fff" d="M0 0h28v28H0z"/></clipPath></defs></svg>