<svg xmlns="http://www.w3.org/2000/svg" width="12" height="12" fill="none"><g clip-path="url(#a)"><path fill="#1A1C1F" fill-rule="evenodd" d="m9.8 4.075-1.455.482.301.834q1.434-.465 1.995-.646c.34.646.096 1.285-.76 1.546l-1.985.622-1.565 2.861a.44.44 0 0 1-.235.186l-.357.092a.376.376 0 0 1-.47-.37L5.25 7.747l-1.376.429a1.394 1.394 0 0 1-1.766-.841l-.875-2.457c-.051-.168-.02-.316.144-.398l.29-.12c.12-.053.252-.014.369.09l.953.941 4.502-1.405c.845-.272 1.69-.18 2.308.09M4.042 5.974a.45.45 0 1 0 .515.738.45.45 0 0 0-.515-.738m1.494-.45a.45.45 0 1 0 .513.737.45.45 0 0 0-.513-.737m1.494-.458a.45.45 0 1 0 .514.737.45.45 0 0 0-.514-.737M4.627 2.06l1.617 1.523-1.925.59-.794-1.528a.418.418 0 0 1 .277-.586l.393-.11a.45.45 0 0 1 .432.11" clip-rule="evenodd"/></g><defs><clipPath id="a"><path fill="#fff" d="M0 0h12v12H0z"/></clipPath></defs></svg>