<svg xmlns="http://www.w3.org/2000/svg" width="16" height="16" fill="none"><g clip-path="url(#a)"><path fill="#1A1C1F" fill-rule="evenodd" d="m7.047 2.832 2.199 2.19.246-.077c1.885-.606 4.092.036 4.747 1.517.471 1.067-.132 2.223-1.324 2.654l-2.159.679-1.69 3.088c-.119.198-.255.347-.52.477-1.193.588-2.027-.222-2.027-1.04q-.008-.594-.011-1.188l-.749.23c-1.223.4-2.605-.157-3.067-1.474L1.656 6.977c-.154-.52 0-1.114.601-1.42q.09-.045.182-.083c.476-.212.961-.071 1.3.245l.789.781 1.055-.33-.91-1.858c-.29-.68.064-1.56.838-1.747l.264-.074a1.25 1.25 0 0 1 1.272.341m2.93 3.638q-2.717.849-5.43 1.702c-.25.079-.639.079-.856-.25q.144.443.51 1.433c.12.345.536.69 1.074.482l1.79-.55a.798.798 0 0 1 1.034.758q.008.627.01 1.254l1.398-2.554c.066-.121.132-.248.463-.38q.787-.252 2.324-.729c.433-.132.54-.294.47-.542s-.455-.498-.88-.636c-.523-.17-1.324-.17-1.908.012" clip-rule="evenodd"/></g><defs><clipPath id="a"><path fill="#fff" d="M0 0h16v16H0z"/></clipPath></defs></svg>