<svg xmlns="http://www.w3.org/2000/svg" width="12" height="12" fill="none"><g clip-path="url(#a)"><path fill="#1A1C1F" fill-rule="evenodd" d="m5.285 2.124 1.65 1.643.184-.058c1.414-.455 3.07.027 3.56 1.137.354.8-.1 1.668-.993 1.99l-1.619.51L6.8 9.662a.86.86 0 0 1-.39.358c-.895.44-1.521-.167-1.521-.78L4.88 8.35l-.562.173c-.917.3-1.953-.118-2.3-1.106q-.39-1.09-.777-2.183c-.115-.39 0-.836.45-1.065q.067-.033.137-.063c.357-.159.721-.053.975.184l.592.586.79-.247-.681-1.394c-.218-.51.048-1.17.628-1.31q.099-.03.198-.056a.94.94 0 0 1 .954.256m2.197 2.729q-2.037.636-4.071 1.276c-.189.059-.48.059-.643-.187q.108.332.382 1.074c.091.259.402.518.806.362q.672-.205 1.342-.413a.598.598 0 0 1 .776.569q.006.47.008.94L7.13 6.558c.05-.09.099-.185.347-.284q.59-.189 1.744-.547c.324-.1.405-.22.352-.406-.052-.186-.341-.374-.66-.477-.392-.128-.993-.128-1.43.009" clip-rule="evenodd"/></g><defs><clipPath id="a"><path fill="#fff" d="M0 0h12v12H0z"/></clipPath></defs></svg>