<svg xmlns="http://www.w3.org/2000/svg" width="32" height="32" fill="none"><path fill="#1A1C1F" fill-rule="evenodd" d="M10.747 4.349a6 6 0 0 0-.773.276c-.796.387-1.291 1.355-1.131 2.215.079.424 1.288 2.961 1.55 3.254.236.263.645.393.965.307.263-.071.579-.338.677-.572.16-.383.113-.546-.568-1.953-.352-.728-.64-1.356-.64-1.396 0-.076.48-.24.702-.24.093 0 .496.371 1.565 1.44 1.471 1.472 1.579 1.557 1.973 1.557.4 0 .797-.262.93-.614a1.17 1.17 0 0 0-.046-.825c-.056-.109-.784-.875-1.617-1.703-1.364-1.355-1.552-1.523-1.882-1.677-.507-.237-1.028-.258-1.705-.069m11.777 4.349c-.86.101-1.686.339-7.473 2.156-3.323 1.043-6.071 1.879-6.106 1.857a87 87 0 0 1-1.372-1.083c-1.414-1.129-1.709-1.304-2.355-1.4-.507-.075-.932.002-1.717.31-.548.216-.672.288-.938.549-.483.473-.685 1.156-.523 1.766.188.71 2.465 7.045 2.67 7.432.486.914 1.301 1.718 2.186 2.157.678.336 1.124.444 1.957.476.913.035 1.131-.008 3.067-.617l1.493-.47.028 2.164c.025 1.921.039 2.195.126 2.428.211.57.622 1.005 1.145 1.213.242.097.406.12.835.12.46 0 .605-.024 1.055-.175.458-.153.56-.211.84-.477.298-.285.45-.547 2.392-4.117 1.941-3.567 2.087-3.818 2.254-3.878.098-.036 1.295-.414 2.659-.841 1.489-.467 2.65-.86 2.906-.986 1.757-.864 2.713-2.907 2.235-4.773-.115-.45-.492-1.221-.786-1.609-.884-1.167-2.319-1.931-4.088-2.178-.628-.087-1.843-.099-2.49-.024m1.636 1.966c.337.027.805.088 1.04.137.441.091 1.254.379 1.252.443-.001.02-.379.156-.84.303-1.094.347-1.312.457-1.479.743-.342.582-.039 1.3.623 1.477.259.069.417.029 2.311-.589.44-.143.818-.25.84-.236.022.013.04.225.04.47 0 .953-.436 1.713-1.2 2.095-.118.059-.694.256-1.28.439-2.774.863-4.559 1.437-4.7 1.51a1.2 1.2 0 0 0-.27.206c-.064.068-1.079 1.893-2.257 4.055l-2.141 3.931-.284.083a4 4 0 0 1-.317.082c-.017 0-.032-1.242-.034-2.76-.002-2.903-.01-3.013-.246-3.277-.141-.159-.491-.307-.73-.308-.117-.001-1.161.297-2.427.693-1.221.383-2.388.719-2.592.748a2.94 2.94 0 0 1-2.486-.85c-.2-.201-.412-.479-.492-.646-.078-.161-.668-1.781-1.311-3.6l-1.169-3.306.275-.128c.151-.07.394-.139.541-.152l.266-.024 1.6 1.286c1.536 1.235 1.77 1.39 2.091 1.391.064 0 2.981-.899 6.48-1.998 3.5-1.1 6.551-2.038 6.78-2.085.343-.071.794-.126 1.423-.175.044-.003.356.016.693.042m-4.409 2.344c-.664.17-1.144.849-1.066 1.509a1.44 1.44 0 0 0 1.251 1.252c.819.097 1.557-.578 1.557-1.423 0-.315-.261-.857-.498-1.034-.383-.286-.858-.402-1.244-.304m-4.604 1.503c-.491.221-.854.76-.854 1.268 0 .534.463 1.189.94 1.329.525.156 1.026.051 1.409-.294.762-.684.567-1.877-.375-2.303a1.5 1.5 0 0 0-1.12 0m-4.286 1.36c-.579.184-.996.854-.923 1.477.089.751.813 1.333 1.548 1.246.741-.087 1.328-.813 1.243-1.537a1.43 1.43 0 0 0-1.868-1.186"/></svg>