<svg width="12" height="12" viewBox="0 0 12 12" fill="none" xmlns="http://www.w3.org/2000/svg"><path d="M4.060 1.990 C 3.690 2.087,3.573 2.161,3.510 2.340 C 3.449 2.509,3.468 2.555,4.047 3.647 C 4.191 3.921,4.321 4.149,4.334 4.154 C 4.358 4.163,5.198 3.910,5.890 3.685 L 6.230 3.575 6.058 3.412 C 5.963 3.323,5.679 3.056,5.428 2.818 C 4.786 2.212,4.622 2.065,4.527 2.008 C 4.405 1.935,4.284 1.931,4.060 1.990 M8.200 3.841 C 7.820 3.888,7.784 3.898,4.980 4.770 C 4.226 5.004,3.472 5.238,3.302 5.289 L 2.995 5.383 2.923 5.316 C 2.883 5.280,2.669 5.073,2.448 4.856 C 2.030 4.448,1.893 4.340,1.794 4.340 C 1.732 4.340,1.405 4.463,1.322 4.517 C 1.267 4.553,1.220 4.654,1.220 4.737 C 1.220 4.807,1.461 5.523,1.826 6.540 C 2.186 7.542,2.168 7.496,2.280 7.656 C 2.497 7.966,2.825 8.166,3.229 8.235 C 3.391 8.263,3.424 8.263,3.589 8.233 C 3.688 8.215,4.085 8.106,4.470 7.990 C 4.855 7.875,5.185 7.780,5.205 7.780 C 5.233 7.780,5.240 7.798,5.241 7.865 C 5.264 9.202,5.280 9.762,5.299 9.824 C 5.330 9.926,5.460 10.035,5.573 10.052 C 5.685 10.068,5.986 10.001,6.151 9.922 C 6.297 9.853,6.221 9.978,7.161 8.260 C 7.561 7.529,7.896 6.924,7.906 6.918 C 7.916 6.911,8.249 6.804,8.647 6.680 C 9.605 6.381,10.030 6.236,10.215 6.146 C 10.399 6.056,10.610 5.856,10.688 5.697 C 10.794 5.478,10.806 5.189,10.718 4.930 L 10.670 4.790 10.580 4.791 C 10.523 4.792,10.232 4.876,9.793 5.018 C 8.972 5.283,8.655 5.381,8.646 5.373 C 8.623 5.350,8.351 4.562,8.363 4.551 C 8.367 4.548,8.678 4.445,9.054 4.322 C 9.431 4.199,9.744 4.090,9.749 4.081 C 9.763 4.060,9.551 3.975,9.375 3.931 C 9.065 3.855,8.467 3.809,8.200 3.841 M7.502 5.047 C 7.635 5.117,7.706 5.231,7.716 5.391 C 7.727 5.555,7.685 5.674,7.585 5.762 C 7.453 5.878,7.322 5.906,7.152 5.856 C 7.039 5.822,6.890 5.670,6.859 5.558 C 6.801 5.342,6.918 5.103,7.121 5.022 C 7.216 4.984,7.407 4.996,7.502 5.047 M6.014 5.512 C 6.336 5.700,6.292 6.186,5.942 6.309 C 5.651 6.412,5.358 6.208,5.355 5.903 C 5.351 5.550,5.713 5.336,6.014 5.512 M4.540 5.976 C 4.754 6.108,4.803 6.427,4.639 6.626 C 4.478 6.820,4.206 6.840,4.007 6.673 C 3.879 6.565,3.830 6.378,3.882 6.193 C 3.910 6.092,4.050 5.952,4.152 5.924 C 4.272 5.890,4.436 5.912,4.540 5.976 " fill="#1A1C1F" stroke="none" fill-rule="evenodd"></path></svg>