<svg xmlns="http://www.w3.org/2000/svg" width="32" height="32" fill="none"><path fill="#1A1C1F" fill-rule="evenodd" d="M10.787 5.379c-.3.1-.499.203-.625.326-.235.227-.374.623-.325.927.02.128.45 1.038 1.025 2.168a176 176 0 0 0 1.009 1.967c.016.017 4.178-1.374 4.23-1.415.049-.038-3.812-3.896-4.009-4.005q-.452-.252-1.305.032m11.906 4.306c-1.169.164-.664.018-8.044 2.337l-5.857 1.84-1.474-1.181c-.811-.65-1.583-1.243-1.716-1.318-.207-.117-.307-.136-.695-.136-.4 0-.515.024-.966.202-.287.114-.573.266-.651.347-.153.16-.303.482-.303.651 0 .087 2.025 5.908 2.461 7.074.223.599.772 1.286 1.36 1.707a3.73 3.73 0 0 0 2.25.717c.676 0 .803-.031 3.259-.802a100 100 0 0 1 2.093-.643c.024 0 .043 1.189.043 2.643 0 1.838.019 2.718.063 2.89.085.338.416.667.758.753.226.057.31.049.77-.073.331-.088.58-.189.695-.282.136-.109.706-1.112 2.345-4.121l2.165-3.977 2.775-.869c1.527-.478 2.945-.949 3.151-1.046.456-.216 1.004-.703 1.303-1.16.406-.619.598-1.5.485-2.228-.033-.216-.072-.403-.086-.417s-.874.255-1.913.598c-1.038.342-1.92.622-1.959.622-.35-.001-.751-.272-.905-.611-.187-.411-.114-.81.202-1.103.222-.206.332-.249 1.926-.767.809-.263 1.446-.498 1.436-.529-.033-.107-.843-.555-1.306-.723-.835-.303-1.314-.38-2.465-.4a19 19 0 0 0-1.2.005m-1.929 3.453c.878.515.983 1.686.209 2.326-.554.459-1.322.408-1.849-.122-.308-.309-.404-.55-.404-1.011 0-.339.055-.513.25-.798.372-.54 1.225-.728 1.794-.395M16.293 14.5c.543.247.801.663.799 1.287-.002.443-.081.65-.365.951-.517.55-1.418.575-1.955.054-.306-.296-.423-.578-.424-1.02-.002-.583.279-1.026.799-1.261.312-.141.849-.147 1.146-.011m-4.32 1.434c1.023.527 1.02 1.996-.004 2.497a1.36 1.36 0 0 1-1.565-.22c-.754-.681-.504-1.991.447-2.343.294-.108.847-.076 1.122.066"/></svg>