<svg xmlns="http://www.w3.org/2000/svg" width="14" height="14" fill="none"><g clip-path="url(#a)"><path fill="#1A1C1F" fill-rule="evenodd" d="M2.902 3.4a1.3 1.3 0 0 1 .356.04q.24.054 3.21.794a.7.7 0 0 1 .172.068q1.909 1.062 2.978 2.242a.7.7 0 0 1 .142.7l-.843 1.663a.7.7 0 0 1-.618.381l-2.112-.052a1.664 1.664 0 0 1-3.3-.25l-.666-.052a.7.7 0 0 1-.641-.61q-.177-1.33-.18-1.527-.003-.198.125-2.08A1.4 1.4 0 0 1 2.902 3.4M12.58 8.07c.087.348-.113.757-.51.849l-1.4.35a.7.7 0 1 1-.34-1.359l1.4-.35a.7.7 0 0 1 .85.51M2.739 5.163l-.005 1.162A.595.595 0 0 0 3.92 6.4l.005-.43 1.796.378.95.635a.61.61 0 0 0 .812-.14.6.6 0 0 0-.087-.8l-1.11-.748a1.2 1.2 0 0 0-.208-.088l-2.625-.552a.595.595 0 0 0-.713.508" clip-rule="evenodd"/></g><defs><clipPath id="a"><path fill="#fff" d="M0 0h14v14H0z"/></clipPath></defs></svg>