<svg xmlns="http://www.w3.org/2000/svg" width="32" height="32" fill="none"><path fill="#1A1C1F" fill-rule="evenodd" d="M21.701 7.248c-1.164.268-1.39.359-1.578.639-.229.339-.217.558.082 1.514.149.476.253.881.233.9-.062.057-6.787 1.603-6.857 1.576-.052-.02-.621-1.729-.621-1.865 0-.021.27-.039.6-.04.667-.001.911-.074 1.17-.352a1 1 0 0 0 .185-1.049c-.087-.207-.408-.5-.609-.557-.19-.053-4.422-.053-4.612 0-.201.057-.522.35-.609.557a.99.99 0 0 0 .185 1.047c.249.263.422.323 1.016.354l.553.028.446 1.409c.251.792.427 1.434.403 1.467-.171.228-1.514 1.844-1.533 1.844-.014 0-.167-.072-.341-.16-1.029-.519-2.573-.648-3.786-.316-1.486.406-2.838 1.546-3.497 2.946-1.445 3.071.195 6.686 3.462 7.633a5.37 5.37 0 0 0 3.018-.003c2.209-.633 3.796-2.589 3.976-4.9.094-1.201-.317-2.639-1.024-3.584-.126-.169-.224-.323-.217-.342s.175-.231.371-.471l.357-.437.807 2.461c1.027 3.132.943 3.02 2.217 2.977.558-.019.668-.039.902-.162.147-.076.341-.219.432-.317s1.05-1.486 2.13-3.085a872 872 0 0 1 2.217-3.269l.253-.363.145.469.213.691.069.222-.33.214c-1.193.776-1.991 1.889-2.367 3.303-.119.449-.138.628-.138 1.32 0 .691.019.87.138 1.317a5.45 5.45 0 0 0 1.387 2.478 5.42 5.42 0 0 0 5.458 1.481 5.5 5.5 0 0 0 3.774-3.764c.748-2.599-.509-5.347-2.976-6.503-.797-.373-1.789-.559-2.64-.494l-.405.031-.742-2.393a660 660 0 0 0-.764-2.455c-.013-.039.169-.104.502-.179.869-.196 1.11-.344 1.277-.781.245-.643-.241-1.305-.951-1.294-.155.002-.776.118-1.381.257m-4.132 8.19c-1.047 1.544-1.923 2.789-1.945 2.765-.052-.055-1.454-4.338-1.428-4.363.026-.027 5.24-1.238 5.261-1.223.009.007-.84 1.276-1.888 2.821m-9.089.749c.161.049.31.105.331.125.021.019-.441.618-1.025 1.331-1.124 1.369-1.215 1.523-1.145 1.935.103.608.761.99 1.331.772.272-.104.295-.129 1.492-1.592.498-.607.923-1.105.946-1.105.055 0 .298.484.428.852.147.419.183 1.249.075 1.762-.213 1.008-.945 1.954-1.856 2.395-1.048.507-2.13.497-3.175-.028s-1.78-1.658-1.866-2.876a3.53 3.53 0 0 1 .371-1.785c.434-.886 1.368-1.623 2.333-1.84.436-.098 1.351-.07 1.76.054m16.773-.054c1.315.275 2.402 1.392 2.671 2.745.297 1.49-.469 3.084-1.806 3.756-1.045.525-2.127.535-3.175.028-.901-.437-1.645-1.388-1.85-2.369a3.53 3.53 0 0 1 1.142-3.406c.132-.114.247-.186.255-.16l.495 1.592c.264.851.524 1.607.579 1.68a.994.994 0 0 0 1.509.114c.219-.219.342-.57.29-.829-.024-.123-.818-2.727-.964-3.164-.031-.092.38-.086.854.013"/></svg>