<svg width="16" height="16" viewBox="0 0 16 16" fill="none" xmlns="http://www.w3.org/2000/svg"><path d="M3.067 3.921 C 2.666 3.968,2.186 4.297,1.963 4.677 C 1.803 4.950,1.757 5.188,1.695 6.053 C 1.576 7.705,1.578 7.862,1.735 8.973 C 1.833 9.666,1.862 9.771,2.000 9.927 C 2.195 10.148,2.419 10.213,3.200 10.273 C 3.293 10.280,3.293 10.281,3.313 10.440 C 3.428 11.361,4.258 12.110,5.162 12.106 C 6.034 12.102,6.742 11.593,7.006 10.778 L 7.080 10.553 7.507 10.569 C 8.585 10.612,9.508 10.620,9.658 10.589 C 9.849 10.549,10.013 10.427,10.147 10.225 C 10.202 10.141,10.458 9.664,10.717 9.163 L 11.186 8.253 11.184 8.040 C 11.181 7.774,11.130 7.649,10.924 7.413 C 10.337 6.740,9.037 5.747,7.859 5.073 C 7.537 4.888,7.327 4.825,5.565 4.386 C 3.654 3.909,3.465 3.874,3.067 3.921 M4.473 5.439 C 5.240 5.592,6.393 5.837,6.808 5.937 C 7.095 6.005,7.101 6.008,7.608 6.346 C 8.341 6.833,8.541 6.987,8.602 7.110 C 8.675 7.258,8.671 7.574,8.594 7.720 C 8.470 7.957,8.258 8.080,7.975 8.080 C 7.840 8.080,7.798 8.065,7.585 7.939 C 7.454 7.861,7.166 7.676,6.945 7.528 L 6.543 7.259 5.582 7.057 C 5.053 6.945,4.591 6.851,4.557 6.847 C 4.495 6.840,4.493 6.845,4.477 7.120 C 4.468 7.274,4.442 7.443,4.420 7.495 C 4.319 7.734,4.068 7.897,3.801 7.897 C 3.546 7.897,3.340 7.773,3.213 7.543 L 3.133 7.400 3.134 6.599 L 3.136 5.797 3.208 5.674 C 3.326 5.472,3.563 5.317,3.766 5.309 C 3.791 5.308,4.109 5.366,4.473 5.439 M13.400 8.653 C 13.132 8.702,11.881 9.025,11.703 9.092 C 11.403 9.204,11.213 9.489,11.215 9.827 C 11.216 10.049,11.283 10.208,11.445 10.376 C 11.717 10.656,11.923 10.663,12.853 10.429 C 13.987 10.144,14.085 10.106,14.236 9.886 C 14.530 9.458,14.390 8.908,13.936 8.706 C 13.754 8.625,13.623 8.612,13.400 8.653 " fill="#1A1C1F" stroke="none" fill-rule="evenodd"></path></svg>