<svg xmlns="http://www.w3.org/2000/svg" width="28" height="28" fill="none"><g clip-path="url(#a)"><path fill="#1A1C1F" fill-rule="evenodd" d="M21.065 6.772a.876.876 0 0 1-.66 1.046l-.953.215 1.34 4.296a4.813 4.813 0 1 1-1.663.546l-.38-1.22-3.874 5.712c-.26.38-.69.608-1.15.607l-.713-.006a.88.88 0 0 1-.73-.597l-1.366-4.172-.664.81a4.8 4.8 0 0 1 1.123 3.09 4.812 4.812 0 1 1-2.473-4.206l1.368-1.667-.799-2.512H8.75a.875.875 0 0 1 0-1.75h3.5a.875.875 0 0 1 0 1.75h-.938l.538 1.718 6.078-1.411-.428-1.372c-.118-.378.037-.977.642-1.114l1.876-.425a.876.876 0 0 1 1.047.662m.372 7.264-.111.002.839 2.69a.875.875 0 0 1-1.672.524l-.826-2.652a3.062 3.062 0 1 0 1.77-.564m-14.875 0A3.063 3.063 0 1 0 9.112 15.4L7.35 17.545a.875.875 0 0 1-1.354-1.111l1.767-2.154a3.1 3.1 0 0 0-1.2-.244m10.502-3.017-4.668 1.083 1.28 3.911z" clip-rule="evenodd"/></g><defs><clipPath id="a"><path fill="#fff" d="M0 0h28v28H0z"/></clipPath></defs></svg>