<svg width="14" height="14" viewBox="0 0 14 14" fill="none" xmlns="http://www.w3.org/2000/svg"><path d="M2.683 3.431 C 2.302 3.476,1.862 3.798,1.683 4.163 C 1.554 4.428,1.526 4.614,1.459 5.647 C 1.393 6.684,1.392 6.834,1.446 7.303 C 1.519 7.939,1.605 8.444,1.659 8.556 C 1.716 8.675,1.861 8.810,1.996 8.869 C 2.081 8.907,2.450 8.962,2.800 8.989 C 2.881 8.995,2.882 8.996,2.899 9.135 C 2.999 9.941,3.726 10.596,4.516 10.593 C 5.279 10.589,5.899 10.143,6.131 9.431 L 6.195 9.233 6.568 9.248 C 7.524 9.285,8.320 9.293,8.451 9.265 C 8.618 9.230,8.761 9.123,8.880 8.944 C 8.930 8.869,9.154 8.451,9.378 8.015 L 9.786 7.222 9.785 7.035 C 9.784 6.802,9.739 6.693,9.559 6.487 C 9.045 5.897,7.907 5.028,6.877 4.439 C 6.595 4.277,6.411 4.222,4.869 3.838 C 3.198 3.420,3.032 3.390,2.683 3.431 M3.923 4.760 C 4.612 4.898,5.603 5.110,5.957 5.195 C 6.208 5.254,6.213 5.257,6.657 5.553 C 7.299 5.979,7.473 6.114,7.526 6.221 C 7.590 6.350,7.587 6.627,7.520 6.755 C 7.411 6.962,7.226 7.070,6.978 7.070 C 6.860 7.070,6.823 7.057,6.637 6.946 C 6.522 6.878,6.270 6.716,6.076 6.586 L 5.723 6.350 4.874 6.172 C 4.407 6.074,4.004 5.992,3.978 5.990 C 3.935 5.985,3.931 6.003,3.917 6.230 C 3.909 6.365,3.887 6.513,3.868 6.558 C 3.779 6.767,3.559 6.910,3.326 6.910 C 3.103 6.910,2.922 6.801,2.811 6.600 L 2.742 6.475 2.743 5.774 L 2.744 5.072 2.807 4.965 C 2.911 4.787,3.118 4.652,3.298 4.645 C 3.322 4.644,3.603 4.696,3.923 4.760 M11.725 7.571 C 11.491 7.614,10.396 7.897,10.241 7.955 C 9.978 8.054,9.812 8.303,9.813 8.598 C 9.814 8.793,9.872 8.932,10.015 9.079 C 10.252 9.324,10.432 9.331,11.247 9.126 C 12.239 8.876,12.324 8.842,12.456 8.650 C 12.714 8.276,12.592 7.795,12.194 7.618 C 12.035 7.547,11.920 7.536,11.725 7.571 " fill="#1A1C1F" stroke="none" fill-rule="evenodd"></path></svg>