<svg width="12" height="12" viewBox="0 0 12 12" fill="none" xmlns="http://www.w3.org/2000/svg"><path d="M8.400 2.650 C 8.120 2.694,7.589 2.814,7.511 2.851 C 7.357 2.924,7.262 3.113,7.289 3.292 C 7.297 3.344,7.348 3.535,7.402 3.716 C 7.456 3.897,7.500 4.062,7.500 4.082 C 7.500 4.125,7.500 4.125,6.052 4.560 C 5.102 4.845,5.032 4.864,5.008 4.831 C 4.970 4.778,4.800 4.383,4.794 4.335 C 4.791 4.302,4.806 4.288,4.860 4.272 C 4.968 4.240,5.110 4.086,5.151 3.955 C 5.182 3.858,5.183 3.832,5.160 3.751 C 5.127 3.632,5.044 3.518,4.947 3.458 L 4.870 3.410 4.116 3.411 L 3.362 3.411 3.276 3.472 C 3.222 3.510,3.169 3.574,3.133 3.642 C 3.084 3.736,3.078 3.766,3.086 3.874 C 3.106 4.145,3.314 4.299,3.659 4.300 C 3.720 4.300,3.780 4.307,3.791 4.315 C 3.803 4.323,3.923 4.599,4.057 4.927 L 4.301 5.524 4.001 5.899 L 3.701 6.275 3.522 6.208 C 3.181 6.079,2.713 6.072,2.377 6.188 C 1.698 6.424,1.246 7.101,1.286 7.820 C 1.326 8.520,1.767 9.094,2.433 9.312 C 2.599 9.366,2.630 9.370,2.930 9.369 C 3.236 9.368,3.258 9.365,3.434 9.305 C 3.660 9.227,3.790 9.155,3.965 9.011 C 4.319 8.718,4.529 8.313,4.571 7.840 C 4.588 7.645,4.542 7.377,4.450 7.131 C 4.411 7.028,4.380 6.934,4.380 6.921 C 4.380 6.870,4.668 6.482,4.690 6.503 C 4.697 6.510,4.787 6.717,4.889 6.963 C 5.201 7.713,5.206 7.721,5.413 7.823 C 5.529 7.880,5.570 7.890,5.690 7.889 C 5.947 7.888,5.941 7.893,7.154 6.620 C 7.771 5.972,8.014 5.727,8.027 5.741 C 8.042 5.756,8.200 6.269,8.200 6.301 C 8.200 6.317,8.132 6.387,8.050 6.456 C 7.760 6.698,7.574 6.980,7.481 7.320 C 7.423 7.531,7.423 7.948,7.481 8.160 C 7.571 8.489,7.766 8.789,8.035 9.011 C 8.210 9.155,8.340 9.227,8.566 9.305 C 8.742 9.366,8.764 9.369,9.060 9.369 C 9.415 9.369,9.528 9.346,9.793 9.219 C 10.332 8.960,10.682 8.428,10.714 7.820 C 10.749 7.147,10.367 6.518,9.753 6.240 C 9.595 6.169,9.491 6.140,9.280 6.112 C 9.114 6.090,9.109 6.088,9.076 6.020 C 9.024 5.912,8.317 3.636,8.328 3.609 C 8.333 3.595,8.441 3.561,8.567 3.531 C 8.876 3.459,8.995 3.373,9.059 3.173 C 9.124 2.973,8.973 2.699,8.766 2.641 C 8.672 2.615,8.616 2.617,8.400 2.650 M7.282 5.155 C 7.264 5.189,6.668 5.822,6.067 6.447 L 5.781 6.745 5.738 6.647 C 5.589 6.307,5.365 5.728,5.377 5.715 C 5.385 5.707,5.774 5.584,6.241 5.442 C 6.708 5.300,7.135 5.170,7.190 5.153 C 7.245 5.137,7.293 5.122,7.296 5.121 C 7.299 5.121,7.293 5.136,7.282 5.155 M3.255 7.074 C 3.394 7.143,3.525 7.276,3.594 7.416 C 3.645 7.519,3.650 7.551,3.650 7.740 C 3.650 7.932,3.645 7.960,3.592 8.064 C 3.518 8.210,3.382 8.346,3.241 8.416 C 3.143 8.464,3.107 8.470,2.930 8.470 C 2.749 8.470,2.718 8.464,2.610 8.411 C 2.465 8.340,2.329 8.205,2.255 8.058 C 2.205 7.960,2.200 7.929,2.200 7.740 C 2.201 7.501,2.223 7.434,2.354 7.270 C 2.446 7.155,2.628 7.039,2.748 7.017 C 2.901 6.990,3.140 7.017,3.255 7.074 M9.395 7.070 C 9.527 7.130,9.676 7.278,9.746 7.419 C 9.794 7.517,9.800 7.550,9.800 7.739 C 9.800 7.929,9.795 7.960,9.745 8.058 C 9.671 8.206,9.525 8.350,9.385 8.416 C 9.284 8.463,9.246 8.470,9.070 8.470 C 8.891 8.470,8.858 8.464,8.756 8.414 C 8.613 8.344,8.484 8.214,8.408 8.065 C 8.355 7.960,8.350 7.932,8.350 7.740 C 8.350 7.548,8.355 7.520,8.409 7.411 C 8.500 7.224,8.659 7.092,8.880 7.018 C 8.973 6.986,9.280 7.018,9.395 7.070 " fill="#1A1C1F" stroke="none" fill-rule="evenodd"></path></svg>