<svg width="20" height="20" viewBox="0 0 20 20" fill="none" xmlns="http://www.w3.org/2000/svg"><path d="M4.933 5.032 C 3.876 5.302,3.033 6.023,2.668 6.968 C 2.561 7.245,2.318 8.155,2.184 8.774 C 2.077 9.271,2.077 9.552,2.183 10.391 C 2.285 11.194,2.351 11.539,2.434 11.702 C 2.518 11.866,2.732 12.046,2.908 12.099 C 3.133 12.167,3.677 12.230,3.723 12.193 C 3.745 12.176,3.810 12.079,3.867 11.978 C 4.005 11.733,4.448 11.277,4.735 11.085 C 5.048 10.875,5.423 10.706,5.708 10.646 C 5.997 10.586,6.857 10.580,7.088 10.637 C 7.309 10.692,7.788 10.901,8.041 11.054 C 8.156 11.124,8.371 11.301,8.518 11.449 C 8.935 11.865,9.200 12.343,9.302 12.862 L 9.343 13.073 10.649 13.062 L 11.955 13.050 12.119 12.949 C 12.216 12.889,12.328 12.780,12.392 12.682 C 12.574 12.405,13.619 10.300,13.701 10.044 C 13.845 9.597,13.745 9.399,13.031 8.720 C 12.155 7.889,11.103 7.107,9.916 6.407 C 9.089 5.920,7.588 5.329,6.550 5.083 C 6.064 4.968,5.280 4.943,4.933 5.032 M5.700 6.351 C 7.326 6.678,8.096 6.978,9.551 7.851 C 10.628 8.498,10.707 8.574,10.728 8.986 C 10.743 9.278,10.703 9.413,10.545 9.596 C 10.368 9.804,10.198 9.881,9.917 9.882 C 9.649 9.883,9.669 9.893,8.477 9.196 C 7.620 8.695,7.362 8.566,6.895 8.406 C 6.590 8.301,5.999 8.145,5.550 8.050 C 5.492 8.038,5.467 8.084,5.354 8.410 C 5.135 9.041,4.994 9.234,4.665 9.350 C 4.100 9.550,3.497 9.061,3.582 8.472 C 3.622 8.196,4.134 6.709,4.239 6.564 C 4.292 6.490,4.406 6.386,4.491 6.332 C 4.705 6.196,4.949 6.200,5.700 6.351 M16.083 11.031 C 15.123 11.275,14.621 11.421,14.459 11.504 C 14.292 11.589,14.146 11.796,14.097 12.019 C 14.015 12.384,14.177 12.742,14.508 12.932 C 14.806 13.102,14.836 13.100,16.000 12.806 C 17.539 12.418,17.541 12.417,17.717 12.186 C 17.981 11.840,17.958 11.363,17.663 11.071 C 17.360 10.770,17.130 10.764,16.083 11.031 M6.067 12.111 C 5.345 12.280,4.815 13.031,4.930 13.723 C 5.044 14.413,5.516 14.905,6.190 15.035 C 6.701 15.133,7.337 14.852,7.641 14.394 C 8.184 13.577,7.847 12.511,6.937 12.165 C 6.712 12.080,6.308 12.054,6.067 12.111 " fill="#1A1C1F" stroke="none" fill-rule="evenodd"></path></svg>