<svg width="24" height="24" viewBox="0 0 24 24" fill="none" xmlns="http://www.w3.org/2000/svg"><path d="M16.345 5.106 C 16.084 5.137,15.619 5.205,15.312 5.257 C 14.687 5.363,14.542 5.439,14.383 5.742 C 14.254 5.988,14.280 6.243,14.515 7.015 C 14.628 7.386,14.720 7.696,14.720 7.704 C 14.720 7.712,14.668 7.745,14.604 7.778 C 14.482 7.841,11.806 8.818,10.865 9.143 C 10.337 9.325,10.307 9.331,10.256 9.262 C 10.205 9.192,9.600 7.798,9.600 7.750 C 9.600 7.737,9.666 7.704,9.747 7.678 C 10.106 7.559,10.403 7.105,10.341 6.768 C 10.300 6.545,10.135 6.291,9.951 6.169 L 9.786 6.060 8.263 6.060 L 6.740 6.060 6.546 6.174 C 6.095 6.439,6.032 7.121,6.425 7.487 C 6.596 7.648,6.733 7.686,7.249 7.716 C 7.506 7.732,7.725 7.752,7.734 7.762 C 7.743 7.772,8.002 8.368,8.310 9.087 L 8.870 10.395 8.354 11.007 C 8.060 11.357,7.804 11.626,7.758 11.633 C 7.714 11.640,7.512 11.592,7.309 11.525 C 6.746 11.342,6.504 11.302,5.960 11.305 C 4.754 11.311,3.740 11.811,2.972 12.777 C 2.469 13.410,2.211 14.109,2.173 14.940 C 2.124 16.009,2.469 16.967,3.172 17.708 C 4.086 18.670,5.132 19.059,6.457 18.929 C 6.980 18.878,7.423 18.731,7.945 18.438 C 8.383 18.191,9.071 17.503,9.318 17.065 C 9.729 16.334,9.878 15.654,9.818 14.780 C 9.778 14.193,9.561 13.550,9.224 13.023 L 9.076 12.793 9.214 12.626 C 9.290 12.535,9.412 12.390,9.487 12.305 L 9.622 12.150 9.978 12.985 C 10.494 14.197,10.697 14.597,10.871 14.749 C 11.080 14.931,11.353 15.015,11.657 14.990 C 12.110 14.954,12.166 14.907,13.524 13.399 C 15.364 11.358,15.734 10.959,15.761 10.988 C 15.777 11.006,15.847 11.191,15.917 11.400 L 16.044 11.780 15.916 11.880 C 15.007 12.596,14.630 13.094,14.348 13.951 C 14.179 14.465,14.134 14.963,14.196 15.609 C 14.244 16.102,14.395 16.553,14.682 17.065 C 14.929 17.503,15.617 18.191,16.055 18.438 C 16.825 18.871,17.543 19.018,18.452 18.929 C 20.090 18.769,21.495 17.446,21.784 15.792 C 21.875 15.272,21.841 14.587,21.700 14.100 C 21.476 13.325,21.101 12.738,20.512 12.241 C 19.749 11.597,19.097 11.343,18.078 11.291 L 17.656 11.269 17.069 9.425 C 16.321 7.071,16.263 6.883,16.283 6.864 C 16.292 6.855,16.516 6.809,16.780 6.763 C 17.407 6.652,17.583 6.563,17.733 6.278 C 17.831 6.092,17.845 6.027,17.828 5.840 C 17.795 5.458,17.617 5.214,17.287 5.096 C 17.106 5.031,16.950 5.033,16.345 5.106 M14.494 9.771 C 14.428 9.842,14.043 10.269,13.638 10.720 C 13.234 11.171,12.651 11.816,12.344 12.153 L 11.784 12.767 11.647 12.493 C 11.493 12.190,11.099 11.299,11.020 11.077 L 10.969 10.935 11.274 10.820 C 12.512 10.357,14.583 9.612,14.597 9.625 C 14.607 9.634,14.560 9.699,14.494 9.771 M6.552 13.058 C 6.577 13.084,6.356 13.373,5.785 14.060 C 5.529 14.368,5.284 14.693,5.240 14.783 C 5.082 15.104,5.171 15.501,5.458 15.753 C 5.646 15.918,5.755 15.960,5.993 15.959 C 6.377 15.957,6.479 15.874,7.359 14.840 C 7.650 14.499,7.902 14.214,7.921 14.207 C 7.980 14.186,8.083 14.605,8.108 14.967 C 8.154 15.646,7.970 16.147,7.500 16.624 C 6.440 17.700,4.733 17.393,4.067 16.007 C 3.922 15.704,3.906 15.639,3.888 15.274 C 3.876 15.028,3.888 14.785,3.919 14.646 C 3.983 14.352,4.194 13.951,4.420 13.693 C 4.686 13.389,5.190 13.093,5.560 13.024 C 5.680 13.002,6.524 13.031,6.552 13.058 M18.920 13.208 C 19.338 13.410,19.674 13.734,19.886 14.140 C 20.074 14.498,20.136 14.820,20.111 15.300 C 20.093 15.639,20.075 15.712,19.925 16.023 C 19.540 16.826,18.710 17.331,17.880 17.267 C 17.311 17.222,16.844 17.001,16.461 16.595 C 16.026 16.134,15.848 15.627,15.891 14.967 C 15.925 14.447,16.149 13.929,16.470 13.627 L 16.590 13.515 16.837 14.287 C 17.210 15.456,17.235 15.515,17.438 15.724 C 17.587 15.877,17.654 15.915,17.810 15.937 C 18.134 15.984,18.352 15.929,18.545 15.751 C 18.761 15.552,18.860 15.307,18.827 15.050 C 18.814 14.945,18.677 14.456,18.522 13.961 C 18.367 13.467,18.240 13.047,18.240 13.028 C 18.240 12.956,18.591 13.050,18.920 13.208 " fill="#1A1C1F" stroke="none" fill-rule="evenodd"></path></svg>