<svg xmlns="http://www.w3.org/2000/svg" width="32" height="32" fill="none"><path fill="#1A1C1F" fill-rule="evenodd" d="M21.798 7.435c-1.288.297-1.437.36-1.598.675-.143.281-.116.484.195 1.454.194.603.268.904.227.919-.072.026-7.105 1.624-7.148 1.624-.026 0-.727-2.128-.727-2.207 0-.019.307-.033.682-.033.601 0 .71-.015.919-.12.313-.158.479-.41.479-.729 0-.322-.147-.589-.406-.737-.206-.118-.228-.119-2.421-.119s-2.215.001-2.422.119c-.472.27-.553.888-.171 1.311.174.194.332.238.958.271l.578.03.475 1.467c.261.807.475 1.486.475 1.509s-.364.479-.809 1.013l-.825.992c-.009.012-.194-.066-.411-.171-1.715-.837-3.786-.683-5.382.4-1.652 1.121-2.56 3.186-2.261 5.14a5.3 5.3 0 0 0 1.408 2.905c.975 1.031 2.206 1.61 3.591 1.688 3.598.205 6.364-3.161 5.47-6.656a5.3 5.3 0 0 0-.799-1.742 5 5 0 0 1-.302-.47c0-.067.937-1.131.967-1.098.018.02.402 1.176.853 2.569.881 2.721.92 2.809 1.31 2.938.121.04.408.054.784.039.661-.026.967-.126 1.213-.396.077-.084 1.167-1.689 2.422-3.567a614 614 0 0 1 2.32-3.458c.021-.024.172.355.335.842l.296.885-.143.087c-.789.475-1.437 1.069-1.874 1.718a5.4 5.4 0 0 0-.658 4.565c1.086 3.445 5.179 4.851 8.148 2.798.524-.362 1.215-1.096 1.535-1.631.532-.888.828-2.08.76-3.054-.172-2.449-1.887-4.441-4.236-4.921-.383-.079-.67-.099-1.213-.087l-.712.016-.077-.24a482 482 0 0 0-1.557-4.809c-.011-.02.322-.114.74-.211.694-.159.778-.191.956-.366a.826.826 0 0 0 .087-1.095c-.131-.167-.487-.344-.682-.34-.074.001-.681.129-1.349.283m-2.065 5.019c0 .091-4.162 6.213-4.183 6.153-.103-.3-1.538-4.778-1.543-4.816-.004-.027 1.265-.342 2.82-.701 3.173-.731 2.906-.672 2.906-.636M8.407 15.968c.143.038.362.115.487.171l.227.101-1.075 1.28c-1.41 1.678-1.379 1.634-1.379 1.968 0 .322.131.569.386.729.212.133.696.122.915-.022.077-.05.661-.716 1.297-1.48l1.157-1.387.093.123c.158.208.417.777.512 1.125.059.219.09.538.091.944.003 1.046-.305 1.783-1.06 2.538-.482.482-.914.748-1.525.938-.325.101-.519.124-1.04.124-.735 0-1.191-.112-1.786-.439-.698-.383-1.404-1.248-1.671-2.045-.319-.953-.186-2.122.344-3.02.231-.392.844-1.005 1.236-1.236.825-.487 1.904-.646 2.791-.412m17.079.038c.581.147 1.081.437 1.55.901.63.623.952 1.265 1.071 2.135.152 1.114-.217 2.185-1.04 3.017-.478.483-.903.745-1.52.937-.571.177-1.509.177-2.08 0a3.69 3.69 0 0 1-2.437-2.383c-.127-.376-.144-.508-.144-1.12.001-.617.017-.74.148-1.12.254-.738.781-1.447 1.397-1.879l.164-.115.575 1.769c.497 1.528.598 1.791.746 1.938a.822.822 0 0 0 1.417-.587c0-.102-.248-.954-.552-1.894s-.54-1.722-.523-1.738c.05-.051.818.036 1.228.139"/></svg>