<svg width="32" height="32" viewBox="0 0 32 32" fill="none" xmlns="http://www.w3.org/2000/svg"><path d="M7.227 7.220 C 6.418 7.436,5.968 7.673,5.250 8.263 C 4.366 8.988,3.915 9.750,3.575 11.093 C 3.460 11.548,3.183 12.778,2.960 13.827 L 2.554 15.735 2.570 17.614 L 2.587 19.493 2.757 19.854 C 2.998 20.361,3.393 20.760,3.891 21.000 C 4.410 21.250,4.687 21.259,5.045 21.037 C 5.756 20.596,5.682 19.701,4.900 19.290 C 4.606 19.135,4.599 19.127,4.567 18.859 C 4.549 18.709,4.534 18.029,4.534 17.348 L 4.533 16.109 4.850 14.628 C 5.661 10.837,5.729 10.609,6.204 10.094 C 6.526 9.743,7.100 9.358,7.511 9.217 C 7.798 9.118,7.980 9.094,8.453 9.095 C 9.003 9.095,9.080 9.109,9.680 9.318 C 11.205 9.848,13.080 10.711,14.123 11.363 C 14.845 11.814,15.721 12.474,16.480 13.138 C 17.264 13.824,19.172 15.733,19.890 16.550 L 20.444 17.180 20.327 17.736 C 20.107 18.784,19.867 19.321,19.429 19.742 L 19.227 19.937 17.493 19.958 C 15.988 19.975,15.738 19.990,15.589 20.069 C 15.247 20.252,14.992 20.766,15.061 21.135 C 15.106 21.377,15.366 21.731,15.586 21.851 C 15.744 21.938,15.936 21.947,17.653 21.947 C 19.823 21.947,19.828 21.946,20.490 21.445 C 21.167 20.932,21.683 20.222,21.925 19.468 C 22.188 18.648,22.507 17.284,22.507 16.975 C 22.507 16.606,22.407 16.417,21.878 15.787 C 20.339 13.954,17.561 11.295,16.099 10.257 C 14.864 9.379,12.847 8.353,10.930 7.626 C 9.748 7.178,9.570 7.139,8.587 7.114 C 7.785 7.094,7.664 7.103,7.227 7.220 M8.400 11.036 C 8.059 11.119,7.632 11.462,7.470 11.783 C 7.298 12.124,6.771 14.488,6.766 14.940 C 6.763 15.236,6.864 15.448,7.116 15.670 C 7.521 16.025,8.032 16.010,8.427 15.631 C 8.634 15.432,8.683 15.277,9.042 13.667 C 9.102 13.400,9.153 13.280,9.207 13.280 C 9.319 13.280,10.566 13.815,11.392 14.217 C 12.579 14.795,13.150 15.209,14.392 16.393 C 15.139 17.104,15.339 17.219,15.709 17.150 C 16.138 17.069,16.530 16.590,16.532 16.141 C 16.534 15.827,16.404 15.616,15.850 15.033 C 15.221 14.372,14.492 13.756,13.773 13.280 C 13.134 12.856,11.671 12.103,10.533 11.612 C 9.115 11.001,8.847 10.928,8.400 11.036 M9.440 18.026 C 8.780 18.112,8.049 18.516,7.500 19.098 C 6.834 19.803,6.523 20.643,6.574 21.598 C 6.623 22.528,6.950 23.262,7.602 23.911 C 8.170 24.477,8.626 24.718,9.439 24.883 C 10.945 25.188,12.527 24.357,13.204 22.906 C 13.805 21.617,13.551 20.075,12.575 19.089 C 11.918 18.425,11.328 18.120,10.523 18.028 C 10.008 17.969,9.876 17.969,9.440 18.026 M27.581 18.350 C 27.217 18.415,26.766 18.597,25.573 19.161 C 24.656 19.595,24.592 19.617,24.133 19.653 C 23.869 19.674,23.555 19.734,23.434 19.786 C 22.961 19.990,22.758 20.537,22.974 21.024 C 23.167 21.460,23.557 21.653,24.240 21.652 C 24.906 21.651,25.270 21.529,26.912 20.756 C 27.592 20.435,27.797 20.363,28.239 20.292 C 28.991 20.171,29.225 20.025,29.378 19.579 C 29.515 19.179,29.380 18.736,29.044 18.480 C 28.870 18.347,28.801 18.330,28.358 18.315 C 28.088 18.306,27.738 18.322,27.581 18.350 M10.714 20.140 C 11.836 20.700,11.751 22.386,10.578 22.825 C 10.228 22.956,9.916 22.962,9.553 22.845 C 8.511 22.509,8.235 21.102,9.064 20.355 C 9.378 20.072,9.563 20.005,10.030 20.002 C 10.360 20.000,10.483 20.025,10.714 20.140 " fill="#1A1C1F" stroke="none" fill-rule="evenodd"></path></svg>