<svg xmlns="http://www.w3.org/2000/svg" width="14" height="14" fill="none"><g clip-path="url(#a)"><path fill="#1A1C1F" fill-rule="evenodd" d="m10.166 4.084-.48.096.914 2.925a1.925 1.925 0 1 1-1.013.28l-.23-.737-2.227 2.35a.7.7 0 0 1-.243.167c-.332.136-.736 0-.913-.383q-.253-.613-.501-1.226l-.4.5a1.925 1.925 0 1 1-.761-.729l.706-.883-.588-1.44h-.317a.525.525 0 1 1 0-1.05h1.396c.29 0 .525.236.525.525 0 .266-.22.522-.472.522q.13.337.28.686l2.94-.882-.27-.87a.518.518 0 0 1 .398-.67l1.05-.21c.205-.041.525.05.605.365.112.43-.24.634-.4.664m-6.753 4.07a.875.875 0 1 0 0 1.75.875.875 0 0 0 0-1.75m7.175 0a.875.875 0 1 0 0 1.75.875.875 0 0 0 0-1.75M8.553 5.97l-2.311.693.498 1.22z" clip-rule="evenodd"/></g><defs><clipPath id="a"><path fill="#fff" d="M0 0h14v14H0z"/></clipPath></defs></svg>