<svg width="28" height="28" viewBox="0 0 28 28" fill="none" xmlns="http://www.w3.org/2000/svg"><path d="M19.880 6.328 C 18.937 6.530,18.138 6.738,17.963 6.828 C 17.701 6.962,17.579 7.183,17.611 7.467 C 17.624 7.582,17.718 7.950,17.818 8.283 C 17.919 8.617,18.015 8.954,18.032 9.033 L 18.063 9.175 14.930 9.887 C 13.206 10.278,11.791 10.592,11.784 10.584 C 11.756 10.550,11.187 8.797,11.182 8.730 C 11.177 8.668,11.268 8.653,11.783 8.633 C 12.463 8.606,12.667 8.541,12.846 8.289 C 12.924 8.179,12.950 8.078,12.950 7.878 C 12.950 7.592,12.871 7.441,12.629 7.260 C 12.503 7.166,12.447 7.163,10.500 7.163 C 8.544 7.163,8.497 7.165,8.368 7.261 C 8.117 7.448,8.016 7.649,8.038 7.924 C 8.061 8.204,8.168 8.377,8.405 8.516 C 8.529 8.589,8.670 8.613,9.063 8.626 L 9.562 8.644 9.795 9.350 C 9.922 9.739,10.113 10.326,10.219 10.656 L 10.411 11.256 10.281 11.426 C 10.210 11.520,9.891 11.912,9.572 12.297 C 9.253 12.682,8.986 13.004,8.980 13.012 C 8.973 13.021,8.778 12.943,8.547 12.839 C 7.942 12.566,7.491 12.458,6.833 12.427 C 5.908 12.383,5.250 12.518,4.445 12.914 C 3.276 13.490,2.373 14.617,2.023 15.938 C 1.918 16.335,1.900 16.499,1.900 17.057 C 1.900 17.615,1.918 17.778,2.023 18.176 C 2.553 20.176,4.262 21.597,6.297 21.730 C 8.496 21.873,10.540 20.370,11.089 18.205 C 11.431 16.857,11.181 15.563,10.331 14.284 C 10.189 14.071,10.143 13.963,10.171 13.911 C 10.261 13.744,10.935 13.017,10.968 13.052 C 10.987 13.073,11.311 14.024,11.687 15.165 C 12.063 16.306,12.428 17.345,12.497 17.475 C 12.689 17.832,12.826 17.885,13.487 17.858 C 14.090 17.833,14.391 17.749,14.571 17.556 C 14.699 17.419,15.929 15.610,17.642 13.038 C 18.238 12.142,18.734 11.401,18.743 11.391 C 18.781 11.347,18.829 11.461,19.067 12.152 L 19.315 12.875 18.916 13.140 C 18.122 13.669,17.483 14.418,17.147 15.214 C 16.873 15.864,16.781 16.324,16.781 17.057 C 16.780 17.791,16.869 18.250,17.135 18.888 C 17.445 19.635,18.177 20.514,18.868 20.970 C 19.760 21.559,20.964 21.841,22.003 21.703 C 22.490 21.639,23.283 21.387,23.657 21.178 C 24.325 20.805,25.099 20.065,25.451 19.462 C 25.904 18.688,26.180 17.573,26.112 16.801 C 25.877 14.156,23.786 12.294,21.199 12.426 L 20.721 12.450 20.578 12.000 C 20.499 11.752,20.183 10.772,19.877 9.820 C 19.571 8.869,19.320 8.068,19.320 8.041 C 19.320 8.014,19.588 7.925,19.915 7.843 C 20.616 7.667,20.772 7.582,20.909 7.298 C 21.095 6.914,20.956 6.539,20.558 6.352 C 20.319 6.240,20.295 6.239,19.880 6.328 M17.215 10.978 C 17.098 11.203,14.021 15.738,13.696 16.167 C 13.658 16.216,13.616 16.245,13.603 16.232 C 13.574 16.202,12.273 12.153,12.273 12.091 C 12.273 12.068,12.709 11.942,13.242 11.811 C 14.182 11.579,17.160 10.882,17.233 10.876 C 17.253 10.875,17.245 10.921,17.215 10.978 M22.047 13.960 C 22.391 14.018,22.837 14.184,23.106 14.353 C 23.433 14.559,23.931 15.069,24.150 15.423 C 24.499 15.986,24.566 16.247,24.567 17.057 C 24.569 17.672,24.556 17.793,24.461 18.060 C 24.229 18.712,23.627 19.462,23.058 19.807 C 22.914 19.895,22.628 20.024,22.423 20.095 C 22.091 20.209,21.983 20.223,21.443 20.223 C 20.904 20.223,20.795 20.209,20.463 20.095 C 19.678 19.826,18.997 19.248,18.630 18.538 C 18.343 17.984,18.293 17.763,18.294 17.037 C 18.295 16.488,18.310 16.361,18.408 16.085 C 18.622 15.477,19.102 14.811,19.562 14.482 L 19.769 14.334 20.246 15.788 C 20.508 16.589,20.769 17.325,20.826 17.425 C 21.102 17.909,21.819 17.899,22.080 17.407 C 22.225 17.135,22.220 17.111,21.586 15.097 C 21.424 14.583,21.277 14.093,21.258 14.008 L 21.224 13.852 21.497 13.883 C 21.647 13.900,21.895 13.935,22.047 13.960 M7.329 13.973 C 7.469 14.010,7.672 14.078,7.780 14.125 L 7.977 14.210 7.039 15.330 C 5.940 16.640,5.833 16.793,5.833 17.054 C 5.834 17.567,6.272 17.880,6.791 17.739 C 6.995 17.683,7.193 17.471,8.466 15.945 C 9.214 15.048,9.127 15.070,9.430 15.705 C 9.664 16.197,9.704 16.391,9.705 17.033 C 9.706 17.896,9.531 18.424,9.045 19.022 C 8.612 19.556,8.152 19.883,7.537 20.095 C 7.202 20.210,7.101 20.223,6.557 20.220 C 6.033 20.218,5.897 20.200,5.567 20.094 C 4.685 19.810,3.916 19.044,3.547 18.083 C 3.387 17.666,3.360 16.816,3.492 16.296 C 3.652 15.662,3.839 15.341,4.340 14.839 C 4.831 14.346,5.145 14.159,5.748 14.001 C 6.170 13.891,6.960 13.877,7.329 13.973 " fill="#1A1C1F" stroke="none" fill-rule="evenodd"></path></svg>