<svg xmlns="http://www.w3.org/2000/svg" width="16" height="16" fill="none"><g clip-path="url(#a)"><path fill="#1A1C1F" fill-rule="evenodd" d="M11.618 4.668q-.273.057-.548.109l1.044 3.342a2.2 2.2 0 1 1-1.158.32l-.262-.841-2.545 2.686a.8.8 0 0 1-.278.19c-.38.155-.841 0-1.044-.438q-.288-.7-.573-1.4l-.456.57a2.2 2.2 0 1 1-.87-.833l.807-1.009-.673-1.645H4.7a.6.6 0 0 1 0-1.2q.798-.002 1.596 0a.6.6 0 0 1 .6.6c0 .304-.251.596-.54.596q.148.386.32.784l3.36-1.008-.309-.993a.592.592 0 0 1 .455-.767l1.2-.24c.236-.047.601.058.693.417.127.492-.275.726-.457.76M3.9 9.319a1 1 0 1 0 0 2 1 1 0 0 0 0-2m8.2 0a1 1 0 1 0 0 2 1 1 0 0 0 0-2M9.774 6.823l-2.64.792.57 1.393z" clip-rule="evenodd"/></g><defs><clipPath id="a"><path fill="#fff" d="M0 0h16v16H0z"/></clipPath></defs></svg>