<svg width="16" height="16" viewBox="0 0 16 16" fill="none" xmlns="http://www.w3.org/2000/svg"><path d="M11.200 3.532 C 10.808 3.596,10.116 3.753,10.015 3.801 C 9.810 3.899,9.683 4.150,9.719 4.390 C 9.729 4.459,9.797 4.713,9.869 4.954 C 9.941 5.196,10.000 5.415,10.000 5.442 C 10.000 5.501,10.000 5.501,8.069 6.080 C 6.803 6.461,6.710 6.485,6.677 6.441 C 6.626 6.371,6.400 5.844,6.393 5.780 C 6.388 5.736,6.408 5.717,6.480 5.696 C 6.625 5.654,6.813 5.448,6.868 5.273 C 6.909 5.144,6.910 5.109,6.880 5.001 C 6.836 4.842,6.726 4.691,6.596 4.610 L 6.493 4.547 5.487 4.548 L 4.480 4.550 4.367 4.631 C 4.065 4.844,4.024 5.269,4.278 5.530 C 4.406 5.661,4.534 5.706,4.845 5.731 C 4.965 5.740,5.068 5.754,5.074 5.761 C 5.080 5.768,5.231 6.132,5.409 6.570 L 5.733 7.366 5.334 7.866 L 4.934 8.366 4.690 8.275 C 4.359 8.150,4.063 8.116,3.667 8.154 C 3.302 8.190,3.062 8.268,2.766 8.445 C 2.078 8.859,1.670 9.627,1.715 10.426 C 1.769 11.392,2.367 12.142,3.324 12.444 C 3.450 12.484,3.563 12.493,3.907 12.492 C 4.315 12.491,4.344 12.487,4.579 12.406 C 4.880 12.303,5.053 12.207,5.286 12.014 C 5.762 11.621,6.037 11.091,6.094 10.453 C 6.117 10.193,6.056 9.837,5.933 9.507 C 5.882 9.371,5.840 9.245,5.840 9.227 C 5.840 9.194,6.056 8.873,6.172 8.733 C 6.228 8.666,6.243 8.660,6.265 8.693 C 6.280 8.715,6.390 8.973,6.511 9.267 C 6.912 10.244,6.943 10.296,7.218 10.431 C 7.372 10.507,7.427 10.520,7.586 10.519 C 7.930 10.517,7.917 10.528,9.553 8.813 C 10.414 7.911,10.686 7.637,10.703 7.655 C 10.709 7.661,10.768 7.837,10.834 8.045 L 10.954 8.423 10.743 8.600 C 10.346 8.932,10.100 9.303,9.975 9.759 C 9.897 10.042,9.897 10.598,9.975 10.881 C 10.095 11.319,10.355 11.719,10.714 12.014 C 10.947 12.207,11.120 12.303,11.421 12.406 C 11.655 12.487,11.687 12.491,12.080 12.492 C 12.553 12.493,12.703 12.462,13.058 12.292 C 14.087 11.798,14.559 10.569,14.131 9.498 C 13.833 8.752,13.135 8.225,12.338 8.144 C 12.195 8.130,12.148 8.114,12.119 8.069 C 12.069 7.992,11.089 4.849,11.104 4.811 C 11.111 4.794,11.250 4.748,11.415 4.710 C 11.746 4.632,11.854 4.578,11.969 4.432 C 12.157 4.192,12.140 3.904,11.924 3.671 C 11.774 3.510,11.575 3.472,11.200 3.532 M9.733 6.840 C 9.733 6.867,9.122 7.519,8.088 8.597 L 7.708 8.993 7.651 8.863 C 7.451 8.406,7.154 7.637,7.170 7.620 C 7.181 7.609,7.681 7.451,8.281 7.269 C 9.392 6.932,9.715 6.834,9.727 6.829 C 9.730 6.828,9.733 6.833,9.733 6.840 M4.335 9.427 C 4.515 9.514,4.700 9.701,4.792 9.888 C 4.859 10.025,4.867 10.067,4.867 10.320 C 4.867 10.576,4.860 10.613,4.790 10.752 C 4.691 10.946,4.509 11.128,4.321 11.221 C 4.190 11.285,4.143 11.293,3.907 11.293 C 3.666 11.293,3.625 11.286,3.480 11.215 C 3.287 11.120,3.098 10.933,3.003 10.743 C 2.941 10.618,2.933 10.572,2.934 10.321 C 2.935 10.001,2.964 9.912,3.139 9.693 C 3.256 9.547,3.495 9.389,3.649 9.357 C 3.829 9.319,4.187 9.356,4.335 9.427 M12.527 9.427 C 12.699 9.505,12.904 9.710,12.997 9.897 C 13.059 10.022,13.067 10.068,13.067 10.320 C 13.067 10.574,13.059 10.618,12.994 10.748 C 12.899 10.939,12.703 11.133,12.513 11.222 C 12.379 11.284,12.327 11.293,12.093 11.293 C 11.855 11.293,11.810 11.285,11.675 11.219 C 11.484 11.125,11.312 10.952,11.211 10.753 C 11.140 10.613,11.133 10.576,11.133 10.320 C 11.133 10.067,11.141 10.025,11.208 9.887 C 11.331 9.637,11.548 9.455,11.840 9.357 C 11.964 9.315,12.374 9.357,12.527 9.427 " fill="#1A1C1F" stroke="none" fill-rule="evenodd"></path></svg>