<svg xmlns="http://www.w3.org/2000/svg" width="28" height="28" fill="none"><g clip-path="url(#a)"><path fill="#1A1C1F" fill-rule="evenodd" d="M20.982 6.837a.744.744 0 0 1-.473.862l-1.224.282 1.439 4.454c3.206-.411 5.395 2.042 5.395 4.628a4.681 4.681 0 1 1-6.81-4.17l-.512-1.586-4.076 6.094c-.048.07-.264.403-.904.462l-.716.006a.74.74 0 0 1-.673-.426l-1.462-4.493-.87 1.042a4.681 4.681 0 1 1-1.141-.954l1.47-1.761-.862-2.658H8.75a.744.744 0 1 1 0-1.488h3.5c.41 0 .744.333.744.744 0 .38-.323.744-.744.744h-1.123l.643 1.982 6.334-1.437-.484-1.5a.744.744 0 0 1 .455-.929l2.018-.46c.4-.09.799.16.889.562m-14.42 7.032a3.194 3.194 0 1 0 2.563 1.287l-1.992 2.383c-.238.283-.732.355-1.047.094-.29-.24-.39-.71-.094-1.047L7.983 14.2a3.2 3.2 0 0 0-1.42-.332m14.628.01.955 2.955c.117.36-.077.8-.44.928a.76.76 0 0 1-.975-.47l-.955-2.957a3.194 3.194 0 1 0 4.856 2.727c0-1.763-1.443-3.298-3.441-3.184m-3.892-3.007-5.068 1.15 1.402 4.33z" clip-rule="evenodd"/></g><defs><clipPath id="a"><path fill="#fff" d="M0 0h28v28H0z"/></clipPath></defs></svg>