<svg width="16" height="16" viewBox="0 0 16 16" fill="none" xmlns="http://www.w3.org/2000/svg"><path d="M3.947 4.025 C 3.101 4.242,2.426 4.818,2.135 5.574 C 2.049 5.796,1.854 6.524,1.747 7.020 C 1.662 7.417,1.662 7.642,1.747 8.313 C 1.828 8.955,1.881 9.231,1.947 9.362 C 2.015 9.493,2.186 9.637,2.326 9.679 C 2.511 9.735,2.942 9.784,2.980 9.754 C 2.998 9.739,3.052 9.660,3.099 9.577 C 3.213 9.377,3.566 9.013,3.790 8.865 C 4.037 8.700,4.342 8.564,4.567 8.517 C 4.798 8.469,5.486 8.464,5.670 8.510 C 5.848 8.553,6.231 8.721,6.433 8.843 C 6.525 8.899,6.697 9.041,6.814 9.159 C 7.148 9.492,7.360 9.874,7.441 10.290 L 7.475 10.458 8.519 10.449 L 9.564 10.440 9.695 10.359 C 9.773 10.311,9.862 10.224,9.914 10.146 C 10.059 9.924,10.895 8.240,10.961 8.035 C 11.076 7.677,10.996 7.519,10.424 6.976 C 9.724 6.311,8.882 5.686,7.932 5.126 C 7.271 4.736,6.071 4.263,5.240 4.067 C 4.851 3.975,4.224 3.954,3.947 4.025 M4.613 5.093 C 5.576 5.289,6.021 5.431,6.690 5.760 C 7.126 5.974,8.090 6.537,8.337 6.721 C 8.518 6.857,8.587 6.999,8.587 7.236 C 8.587 7.443,8.548 7.551,8.426 7.690 C 8.265 7.873,7.999 7.958,7.773 7.897 C 7.714 7.881,7.342 7.680,6.946 7.451 C 6.551 7.222,6.135 6.988,6.023 6.931 C 5.681 6.759,5.107 6.581,4.440 6.440 C 4.393 6.430,4.373 6.466,4.282 6.728 C 4.107 7.234,3.995 7.388,3.732 7.480 C 3.281 7.640,2.798 7.248,2.866 6.777 C 2.898 6.557,3.307 5.367,3.391 5.251 C 3.434 5.192,3.525 5.109,3.593 5.065 C 3.768 4.954,3.956 4.959,4.613 5.093 M12.867 8.824 C 12.098 9.020,11.697 9.137,11.567 9.203 C 11.433 9.271,11.317 9.437,11.277 9.615 C 11.212 9.907,11.341 10.194,11.606 10.345 C 11.845 10.482,11.868 10.480,12.800 10.245 C 14.031 9.934,14.033 9.934,14.173 9.749 C 14.385 9.472,14.367 9.091,14.131 8.857 C 13.888 8.616,13.704 8.611,12.867 8.824 M4.853 9.689 C 4.019 9.884,3.664 10.871,4.183 11.554 C 4.591 12.092,5.317 12.194,5.847 11.790 C 6.596 11.220,6.430 10.066,5.550 9.732 C 5.370 9.664,5.046 9.644,4.853 9.689 " fill="#1A1C1F" stroke="none" fill-rule="evenodd"></path></svg>