<svg xmlns="http://www.w3.org/2000/svg" width="24" height="24" fill="none"><g clip-path="url(#a)"><path fill="#1A1C1F" fill-rule="evenodd" d="M7.5 13.467a2.5 2.5 0 1 1 0 5 2.5 2.5 0 0 1 0-5M2.337 8.71c.544-2.163 2.705-3.528 4.909-3.098q.406.077 2.098.71a17 17 0 0 1 5.274 3.268q1.233 1.122 2.154 2.242a1 1 0 0 1 .193.896c-.116.428-.35.976-.704 1.656l-.903 1.598a1 1 0 0 1-.728.477L12 16.46c-.51.007-.97-.424-.97-.993 0-.57.46-.993.97-.993l1.93-.008.934-1.79q-1.09-1.15-1.592-1.607a15 15 0 0 0-4.623-2.872q-1.242-.524-1.951-.65a2.21 2.21 0 0 0-2.41 1.607Q4 10.272 4 10.568v3.162c.473.16.751.736.601 1.226a1.007 1.007 0 0 1-1.248.665C2.509 15.384 2 14.673 2 13.73v-3.264q0-.327.337-1.757M21 13.467a1 1 0 0 1 1 1c0 .513-.419 1-1 1q-.28 0-.531.136l-.91.497c-.447.235-.922.367-1.559.367a1 1 0 0 1-1-1c0-.513.393-1 1-1q.384 0 .6-.122l.91-.497c.457-.25.97-.38 1.49-.38m-13.5 2a.5.5 0 1 0 0 1 .5.5 0 0 0 0-1m-.792-6.795q.195 0 .515.107l2.784 1.123q.496.23.93.563l1.554 1.33a1 1 0 0 1-1.29 1.507l-1.505-1.269a3 3 0 0 0-.503-.304l-2.11-.852-.112.829A1 1 0 0 1 5 11.46l.202-1.617c.156-.699.765-1.17 1.506-1.17" clip-rule="evenodd"/></g><defs><clipPath id="a"><path fill="#fff" d="M0 0h24v24H0z"/></clipPath></defs></svg>