<svg width="28" height="28" viewBox="0 0 28 28" fill="none" xmlns="http://www.w3.org/2000/svg"><path d="M6.303 6.322 C 5.706 6.480,5.187 6.747,4.690 7.152 C 3.823 7.857,3.436 8.490,3.128 9.707 C 3.028 10.105,2.785 11.181,2.590 12.099 L 2.235 13.768 2.249 15.412 L 2.263 17.057 2.413 17.372 C 2.623 17.816,2.969 18.165,3.404 18.375 C 3.858 18.593,4.101 18.601,4.414 18.407 C 5.037 18.022,4.972 17.238,4.287 16.879 C 4.030 16.743,4.024 16.736,3.996 16.502 C 3.980 16.371,3.967 15.778,3.967 15.184 L 3.967 14.106 4.244 12.804 C 4.946 9.507,5.013 9.284,5.428 8.832 C 5.710 8.526,6.213 8.188,6.572 8.065 C 6.823 7.978,6.982 7.958,7.397 7.958 C 7.879 7.958,7.945 7.970,8.476 8.155 C 9.265 8.429,10.403 8.908,11.177 9.291 C 12.285 9.839,13.236 10.481,14.327 11.414 C 14.987 11.980,16.749 13.736,17.404 14.481 L 17.888 15.033 17.786 15.519 C 17.594 16.436,17.383 16.906,17.001 17.274 L 16.823 17.445 15.307 17.463 C 13.630 17.483,13.606 17.487,13.378 17.792 C 13.041 18.243,13.130 18.771,13.594 19.078 L 13.783 19.203 15.443 19.203 C 17.064 19.203,17.110 19.201,17.367 19.097 C 17.870 18.893,18.459 18.360,18.874 17.731 C 19.138 17.331,19.627 15.649,19.680 14.955 C 19.712 14.544,19.655 14.424,19.143 13.813 C 17.814 12.228,15.356 9.877,14.086 8.974 C 12.997 8.200,11.272 7.322,9.563 6.673 C 8.532 6.281,8.374 6.247,7.513 6.225 C 6.805 6.207,6.708 6.215,6.303 6.322 M7.276 9.686 C 7.021 9.764,6.656 10.071,6.538 10.307 C 6.386 10.608,5.925 12.674,5.920 13.072 C 5.917 13.332,6.006 13.517,6.227 13.711 C 6.581 14.022,7.028 14.009,7.373 13.677 C 7.555 13.503,7.597 13.367,7.912 11.958 C 7.964 11.725,8.009 11.620,8.057 11.620 C 8.154 11.620,9.245 12.088,9.968 12.440 C 11.007 12.946,11.507 13.308,12.593 14.344 C 13.246 14.966,13.422 15.067,13.745 15.006 C 14.121 14.936,14.463 14.516,14.466 14.124 C 14.467 13.849,14.353 13.664,13.868 13.154 C 13.319 12.576,12.680 12.037,12.052 11.620 C 11.493 11.249,10.212 10.590,9.217 10.161 C 7.910 9.597,7.717 9.550,7.276 9.686 M8.260 15.772 C 7.683 15.848,7.043 16.201,6.562 16.711 C 5.980 17.328,5.708 18.063,5.752 18.898 C 5.796 19.713,6.081 20.354,6.654 20.925 C 7.163 21.433,7.662 21.682,8.398 21.796 C 9.399 21.951,10.563 21.476,11.181 20.659 C 12.117 19.425,12.042 17.762,11.004 16.707 C 10.418 16.111,9.908 15.850,9.182 15.774 C 8.706 15.724,8.634 15.724,8.260 15.772 M24.134 16.056 C 23.812 16.113,23.413 16.275,22.377 16.767 C 21.571 17.149,21.519 17.167,21.117 17.198 C 20.886 17.215,20.610 17.267,20.505 17.313 C 20.091 17.492,19.914 17.970,20.103 18.396 C 20.286 18.811,20.674 18.976,21.365 18.935 C 21.876 18.905,22.135 18.816,23.314 18.267 C 24.143 17.882,24.314 17.819,24.712 17.755 C 25.395 17.645,25.604 17.503,25.719 17.071 C 25.818 16.703,25.665 16.317,25.349 16.131 C 25.166 16.025,24.531 15.986,24.134 16.056 M9.374 17.623 C 10.357 18.112,10.282 19.588,9.256 19.972 C 8.949 20.087,8.676 20.092,8.359 19.990 C 7.448 19.695,7.206 18.464,7.931 17.811 C 8.206 17.563,8.367 17.504,8.776 17.502 C 9.065 17.500,9.172 17.522,9.374 17.623 " fill="#1A1C1F" stroke="none" fill-rule="evenodd"></path></svg>