<svg width="20" height="20" viewBox="0 0 20 20" fill="none" xmlns="http://www.w3.org/2000/svg"><path d="M3.833 4.902 C 3.335 4.958,2.733 5.371,2.454 5.846 C 2.254 6.187,2.196 6.485,2.118 7.567 C 1.970 9.632,1.973 9.828,2.169 11.217 C 2.292 12.082,2.328 12.213,2.501 12.409 C 2.744 12.685,3.024 12.766,4.000 12.841 C 4.116 12.850,4.117 12.851,4.141 13.050 C 4.262 14.025,5.012 14.849,5.993 15.085 C 6.272 15.152,6.822 15.137,7.122 15.055 C 7.887 14.845,8.507 14.246,8.758 13.473 L 8.850 13.191 9.400 13.211 C 10.821 13.265,11.886 13.275,12.073 13.236 C 12.312 13.186,12.516 13.033,12.686 12.777 C 12.757 12.670,13.077 12.073,13.398 11.450 L 13.981 10.317 13.979 10.044 C 13.976 9.642,13.896 9.501,13.373 8.980 C 12.509 8.120,11.590 7.421,10.200 6.566 C 9.431 6.093,9.481 6.110,6.833 5.451 C 4.568 4.887,4.337 4.845,3.833 4.902 M5.591 6.798 C 6.547 6.989,7.991 7.297,8.508 7.420 C 8.850 7.502,8.886 7.519,9.374 7.840 C 10.215 8.393,10.637 8.706,10.730 8.848 C 10.806 8.962,10.816 9.012,10.815 9.248 C 10.814 9.455,10.798 9.547,10.743 9.650 C 10.586 9.946,10.322 10.100,9.969 10.100 C 9.800 10.100,9.748 10.081,9.482 9.923 C 9.318 9.826,8.957 9.595,8.681 9.410 L 8.179 9.074 6.977 8.821 C 6.316 8.681,5.739 8.563,5.696 8.559 C 5.618 8.550,5.616 8.556,5.597 8.904 C 5.581 9.173,5.558 9.296,5.502 9.412 C 5.369 9.687,5.068 9.871,4.753 9.871 C 4.433 9.871,4.175 9.717,4.016 9.429 L 3.917 9.250 3.919 8.247 L 3.921 7.244 4.010 7.091 C 4.158 6.840,4.454 6.646,4.707 6.636 C 4.739 6.634,5.136 6.707,5.591 6.798 M16.700 10.824 C 16.654 10.833,16.258 10.929,15.820 11.039 C 14.532 11.360,14.404 11.412,14.200 11.689 C 14.073 11.862,13.987 12.170,14.011 12.368 C 14.050 12.701,14.296 13.042,14.595 13.177 C 14.868 13.300,15.126 13.274,16.117 13.024 C 17.389 12.702,17.510 12.660,17.700 12.470 C 17.885 12.285,17.973 12.058,17.973 11.767 C 17.973 11.365,17.811 11.086,17.473 10.906 C 17.297 10.812,17.245 10.801,17.029 10.805 C 16.894 10.807,16.746 10.816,16.700 10.824 " fill="#1A1C1F" stroke="none" fill-rule="evenodd"></path></svg>