<svg xmlns="http://www.w3.org/2000/svg" width="20" height="20" fill="none"><g clip-path="url(#a)"><path fill="#1A1C1F" fill-rule="evenodd" d="M6.415 12.054a1.5 1.5 0 1 1 0 3 1.5 1.5 0 0 1 0-3m-.26-7.065c.26.033 1.565.367 3.173 1.072q2.707 1.505 4.217 3.173a.85.85 0 0 1 .126.957l-1.21 2.413a.85.85 0 0 1-.75.463q-1.971.008-2.378 0c-.104-1.385-1.501-2.513-2.918-2.513a3 3 0 0 0-2.69 1.668l-.651-.073a.85.85 0 0 1-.746-.722q-.243-1.763-.243-2.067 0-.307.426-1.905a3.203 3.203 0 0 1 3.643-2.466m11.735 6.456c.107.42-.136.93-.613 1.034l-2.152.55a.85.85 0 0 1-.421-1.646l2.152-.55a.85.85 0 0 1 1.034.612M4.149 6.685l-.545 1.598a.85.85 0 0 0 1.571.64l.307-.89q1.523.294 2.372.787l1.624.963a.85.85 0 0 0 .968-1.392l-1.415-.857a8.9 8.9 0 0 0-2.438-1.002L5.082 6.22a.85.85 0 0 0-.933.465" clip-rule="evenodd"/></g><defs><clipPath id="a"><path fill="#fff" d="M0 0h20v20H0z"/></clipPath></defs></svg>