<svg xmlns="http://www.w3.org/2000/svg" width="12" height="12" fill="none"><g clip-path="url(#a)"><path fill="#1A1C1F" fill-rule="evenodd" d="M2.487 2.914q.102-.009.306.035t2.75.68a.6.6 0 0 1 .148.058c1.091.608 1.942 1.246 2.553 1.922a.6.6 0 0 1 .122.6l-.722 1.426a.6.6 0 0 1-.53.326l-1.81-.044a1.426 1.426 0 0 1-2.829-.215l-.572-.044a.6.6 0 0 1-.549-.524q-.15-1.14-.154-1.308-.002-.17.107-1.783a1.2 1.2 0 0 1 1.18-1.129m8.296 4.002a.6.6 0 0 1-.437.728l-1.2.3a.6.6 0 0 1-.291-1.165l1.2-.3a.6.6 0 0 1 .728.437m-8.436-2.49-.003.995a.51.51 0 0 0 1.016.064l.004-.368 1.539.324.814.545a.523.523 0 0 0 .696-.12.516.516 0 0 0-.074-.686l-.951-.642a1 1 0 0 0-.179-.075L2.96 3.99a.51.51 0 0 0-.612.435" clip-rule="evenodd"/></g><defs><clipPath id="a"><path fill="#fff" d="M0 0h12v12H0z"/></clipPath></defs></svg>