<svg xmlns="http://www.w3.org/2000/svg" width="12" height="12" fill="none"><g clip-path="url(#a)"><path fill="#1A1C1F" fill-rule="evenodd" d="m8.713 3.5-.41.083.783 2.507a1.65 1.65 0 1 1-.869.24l-.196-.632-1.91 2.015a.6.6 0 0 1-.208.143.606.606 0 0 1-.782-.329q-.217-.525-.43-1.05l-.342.428a1.65 1.65 0 1 1-.652-.624l.604-.758-.504-1.234h-.272a.45.45 0 0 1 0-.9h1.197a.45.45 0 0 1 .45.45c0 .228-.189.447-.404.447q.11.29.24.588l2.52-.756-.233-.744a.444.444 0 0 1 .342-.576l.9-.18c.176-.035.45.044.519.313a.45.45 0 0 1-.343.57M2.925 6.99a.75.75 0 1 0 0 1.5.75.75 0 0 0 0-1.5m6.15 0a.75.75 0 1 0 0 1.5.75.75 0 0 0 0-1.5M7.331 5.117l-1.98.594.426 1.045z" clip-rule="evenodd"/></g><defs><clipPath id="a"><path fill="#fff" d="M0 0h12v12H0z"/></clipPath></defs></svg>