<svg width="12" height="12" viewBox="0 0 12 12" fill="none" xmlns="http://www.w3.org/2000/svg"><path d="M2.930 3.027 C 2.283 3.215,1.817 3.619,1.601 4.181 C 1.537 4.347,1.391 4.893,1.311 5.265 C 1.246 5.563,1.246 5.731,1.310 6.235 C 1.371 6.716,1.411 6.923,1.461 7.021 C 1.511 7.120,1.639 7.227,1.745 7.259 C 1.883 7.301,2.206 7.338,2.235 7.315 C 2.249 7.304,2.289 7.245,2.324 7.183 C 2.410 7.032,2.668 6.767,2.841 6.651 C 3.025 6.527,3.252 6.424,3.417 6.389 C 3.579 6.355,4.094 6.351,4.244 6.383 C 4.377 6.411,4.660 6.533,4.825 6.632 C 4.894 6.674,5.022 6.781,5.111 6.869 C 5.361 7.119,5.520 7.406,5.581 7.717 L 5.606 7.844 6.390 7.837 L 7.173 7.830 7.272 7.769 C 7.330 7.733,7.397 7.668,7.435 7.609 C 7.545 7.443,8.172 6.180,8.221 6.026 C 8.307 5.758,8.247 5.639,7.818 5.232 C 7.303 4.743,6.697 4.290,6.006 3.878 C 5.589 3.629,5.025 3.385,4.420 3.191 C 3.945 3.038,3.772 3.004,3.410 2.992 C 3.116 2.981,3.077 2.984,2.930 3.027 M3.325 3.791 C 4.136 3.948,4.533 4.075,5.090 4.354 C 5.376 4.498,6.091 4.920,6.253 5.041 C 6.388 5.142,6.440 5.249,6.440 5.427 C 6.440 5.582,6.411 5.663,6.319 5.768 C 6.217 5.884,6.115 5.929,5.950 5.929 C 5.787 5.929,5.811 5.940,5.221 5.595 C 4.375 5.099,4.126 4.998,3.330 4.830 C 3.294 4.823,3.280 4.850,3.212 5.046 C 3.107 5.348,3.051 5.449,2.941 5.528 C 2.780 5.645,2.647 5.667,2.470 5.607 C 2.261 5.536,2.118 5.302,2.149 5.083 C 2.173 4.918,2.480 4.025,2.543 3.938 C 2.575 3.894,2.644 3.832,2.695 3.799 C 2.774 3.749,2.808 3.740,2.924 3.740 C 2.999 3.740,3.179 3.763,3.325 3.791 M9.650 6.618 C 8.750 6.847,8.638 6.888,8.541 7.022 C 8.364 7.266,8.440 7.608,8.704 7.758 C 8.865 7.850,8.916 7.852,9.252 7.771 C 9.818 7.635,10.410 7.475,10.482 7.438 C 10.635 7.361,10.739 7.179,10.739 6.990 C 10.739 6.791,10.631 6.622,10.450 6.538 C 10.311 6.473,10.161 6.488,9.650 6.618 M3.640 7.267 C 3.048 7.405,2.767 8.088,3.091 8.601 C 3.276 8.894,3.650 9.078,3.954 9.024 C 4.227 8.976,4.451 8.838,4.585 8.636 C 4.910 8.146,4.708 7.506,4.162 7.299 C 4.027 7.248,3.785 7.233,3.640 7.267 " fill="#1A1C1F" stroke="none" fill-rule="evenodd"></path></svg>