<svg xmlns="http://www.w3.org/2000/svg" width="16" height="16" fill="none"><g clip-path="url(#a)"><path fill="#1A1C1F" fill-rule="evenodd" d="M5.132 9.643a1.2 1.2 0 1 1 0 2.4 1.2 1.2 0 0 1 0-2.4m-.209-5.652c.209.027 1.253.294 2.54.858q2.165 1.205 3.373 2.538c.19.21.23.514.101.766l-.968 1.93a.68.68 0 0 1-.6.37q-1.578.008-1.902 0c-.084-1.108-1.202-2.01-2.335-2.01A2.4 2.4 0 0 0 2.98 9.778l-.52-.06a.68.68 0 0 1-.597-.577q-.195-1.41-.195-1.653t.34-1.524A2.56 2.56 0 0 1 4.924 3.99m9.389 5.165c.086.336-.109.744-.49.827l-1.722.44a.68.68 0 1 1-.337-1.317l1.722-.44a.68.68 0 0 1 .827.49M3.319 5.348l-.435 1.278a.68.68 0 0 0 1.256.513l.246-.712q1.218.234 1.897.63l1.3.77a.68.68 0 0 0 .774-1.115l-1.132-.685a7 7 0 0 0-1.95-.802l-1.21-.249a.68.68 0 0 0-.746.372" clip-rule="evenodd"/></g><defs><clipPath id="a"><path fill="#fff" d="M0 0h16v16H0z"/></clipPath></defs></svg>