<svg xmlns="http://www.w3.org/2000/svg" width="32" height="32" fill="none"><path fill="#1A1C1F" fill-rule="evenodd" d="M6.635 7.904c-1.081.109-2.032.852-2.421 1.893-.06.161-.461 1.845-.89 3.741l-.781 3.449.004 1.733c.006 1.994.037 2.185.457 2.755.422.573.834.796 1.847 1.001.365.073.671.127.68.118.008-.009.026-.266.04-.572.042-.983.392-1.864 1.009-2.537 1.623-1.773 4.288-1.776 5.925-.008.389.42.769 1.118.909 1.67.11.437.151 1.104.091 1.511-.034.238-.031.344.01.356.032.01 1.354.045 2.938.077 3.17.066 3.192.064 3.782-.253.372-.199.976-.807 1.304-1.311.305-.468.363-.641.76-2.247.256-1.039.272-1.137.212-1.359-.115-.429-1.146-1.635-2.852-3.336-2.068-2.062-3.125-2.91-4.852-3.895-1.062-.605-2.185-1.067-5.064-2.08-1.947-.685-2.367-.781-3.108-.706m3.392 2.892c3.397 1.198 4.127 1.593 6.074 3.282.871.756.966.885.966 1.309 0 .692-.713 1.18-1.341.918-.105-.044-.524-.365-.932-.714-1.369-1.172-1.986-1.579-3.114-2.057-.714-.302-3.834-1.397-3.872-1.359-.016.015-.148.552-.293 1.193-.289 1.272-.381 1.483-.713 1.641-.429.204-.788.157-1.135-.147a.92.92 0 0 1-.334-.693c0-.223.668-3.195.755-3.358a1.63 1.63 0 0 1 .883-.764c.411-.153.699-.083 3.056.749m17.626 8.732c-.492.091-.794.21-1.905.75l-1.105.538-.582.035c-.521.03-.602.049-.77.177-.559.426-.529 1.239.06 1.643.163.113.26.131.752.147.821.025 1.114-.06 2.457-.714 1.046-.509 1.187-.563 1.6-.616.6-.076.886-.19 1.081-.431.266-.329.268-.904.004-1.218-.298-.353-.815-.455-1.592-.311m-18.64.679c-.53.174-1.084.645-1.28 1.088a2.1 2.1 0 0 0 .029 1.727c.373.763 1.303 1.249 2.086 1.092.905-.182 1.51-.789 1.675-1.68.148-.801-.313-1.676-1.095-2.076-.277-.141-.388-.166-.801-.179-.264-.009-.54.004-.614.028"/></svg>