<svg xmlns="http://www.w3.org/2000/svg" width="28" height="28" fill="none"><g clip-path="url(#a)"><path fill="#1A1C1F" fill-rule="evenodd" d="M8.355 17.623a1.75 1.75 0 1 1 0 3.5 1.75 1.75 0 0 1 0-3.5m-1.8-10.71q.635.108 4.043 1.37a14.9 14.9 0 0 1 5.011 2.955q2.363 2.114 3.929 4.092c.17.215.23.497.16.763q-.516 2.205-.654 2.437c-.63 1.067-1.386 1.717-2.326 1.717l-4.948-.107c.503-2.544-1.512-4.267-3.415-4.267a3.514 3.514 0 0 0-3.477 3.904 10 10 0 0 1-1.11-.212 2.03 2.03 0 0 1-1.538-1.97q-.026-2.553.021-2.79.432-1.93 1.32-5.877a2.625 2.625 0 0 1 2.985-2.016m18.35 10.106a.875.875 0 1 1 0 1.75c-.284 0-.548.042-.825.16q-.277.117-1.59.776c-.302.149-.628.238-.961.263q-.154.008-.638.008a.875.875 0 0 1-.875-.875c0-.449.379-.85.773-.87q.251-.005.54-.005a.8.8 0 0 0 .386-.09l1.436-.708a4 4 0 0 1 1.753-.409M5.254 9.632 4.68 12.18a.875.875 0 0 0 1.68.48l.464-2.045 2.855 1.003a8.8 8.8 0 0 1 2.533 1.396l1.297 1.108a.875.875 0 0 0 1.221-1.249l-1.095-.952a10.5 10.5 0 0 0-3.04-1.83 212 212 0 0 0-3.805-1.333 1.313 1.313 0 0 0-1.534.873" clip-rule="evenodd"/></g><defs><clipPath id="a"><path fill="#fff" d="M0 0h28v28H0z"/></clipPath></defs></svg>