<svg xmlns="http://www.w3.org/2000/svg" width="32" height="32" fill="none"><g clip-path="url(#a)"><path fill="#1A1C1F" fill-rule="evenodd" d="M9.548 20.14a2 2 0 1 1 0 4 2 2 0 0 1 0-4M7.492 7.9q.726.125 4.62 1.566a17 17 0 0 1 5.727 3.377q2.7 2.415 4.49 4.677a1 1 0 0 1 .183.872q-.59 2.52-.747 2.785c-.72 1.22-1.585 1.963-2.659 1.963l-5.654-.123c.574-2.908-1.728-4.877-3.904-4.877a4.015 4.015 0 0 0-3.973 4.462q-.64-.084-1.27-.242a2.32 2.32 0 0 1-1.757-2.25q-.03-2.92.025-3.189.494-2.207 1.508-6.718A3 3 0 0 1 7.492 7.9m20.97 11.55a1 1 0 1 1 0 2c-.323 0-.626.048-.942.182q-.316.135-1.818.888c-.344.17-.717.272-1.097.3q-.176.01-.729.01a1 1 0 0 1-1-1c0-.513.432-.972.883-.994q.288-.006.616-.006.23.006.442-.103l1.642-.81a4.5 4.5 0 0 1 2.003-.467M6.006 11.008l-.658 2.913a1 1 0 0 0 1.92.548l.53-2.337 3.263 1.147a10 10 0 0 1 2.895 1.596l1.482 1.266a1 1 0 0 0 1.395-1.427l-1.25-1.09a12 12 0 0 0-3.476-2.09 242 242 0 0 0-4.348-1.524 1.5 1.5 0 0 0-1.753.998" clip-rule="evenodd"/></g><defs><clipPath id="a"><path fill="#fff" d="M0 0h32v32H0z"/></clipPath></defs></svg>