<svg xmlns="http://www.w3.org/2000/svg" width="32" height="32" fill="none"><g clip-path="url(#a)"><path fill="#1A1C1F" fill-rule="evenodd" d="M24.075 7.739a1 1 0 0 1-.756 1.196l-1.088.245 1.532 4.91q.362-.049.737-.049a5.5 5.5 0 1 1-2.638.673l-.435-1.394L17 19.848a1.59 1.59 0 0 1-1.315.693l-.815-.006a1 1 0 0 1-.834-.683l-1.561-4.767-.759.925A5.48 5.48 0 0 1 13 19.54a5.5 5.5 0 1 1-2.826-4.807l1.563-1.904-.913-2.871H10a1 1 0 0 1 0-2h4a1 1 0 1 1 0 2h-1.072l.615 1.964 6.946-1.613L20 8.74c-.134-.431.043-1.116.734-1.273l2.144-.485a1 1 0 0 1 1.197.756m.425 8.302-.128.003.959 3.074a1 1 0 0 1-1.911.598l-.944-3.03a3.5 3.5 0 1 0 2.024-.644m-17 0a3.5 3.5 0 1 0 2.912 1.559L8.4 20.05a1 1 0 1 1-1.548-1.27l2.02-2.46a3.5 3.5 0 0 0-1.372-.28m12.002-3.448-5.335 1.238 1.462 4.47z" clip-rule="evenodd"/></g><defs><clipPath id="a"><path fill="#fff" d="M0 0h32v32H0z"/></clipPath></defs></svg>