<svg xmlns="http://www.w3.org/2000/svg" width="20" height="20" fill="none"><g clip-path="url(#a)"><path fill="#1A1C1F" fill-rule="evenodd" d="M14.522 5.835a41 41 0 0 1-.684.136l1.305 4.178a2.75 2.75 0 1 1-1.447.4l-.328-1.052-3.182 3.358a1 1 0 0 1-.348.238c-.474.194-1.05 0-1.304-.548q-.361-.875-.716-1.75l-.57.713a2.75 2.75 0 1 1-1.088-1.04L7.17 9.205 6.328 7.15h-.453a.75.75 0 1 1 0-1.5q.998-.003 1.995 0a.75.75 0 0 1 .75.75c0 .38-.314.745-.674.745q.184.482.4.98l4.2-1.26-.387-1.241a.74.74 0 0 1 .569-.96l1.5-.3c.294-.058.751.074.865.522.16.615-.343.907-.57.95m-9.647 5.814a1.25 1.25 0 1 0 0 2.5 1.25 1.25 0 0 0 0-2.5m10.25 0a1.25 1.25 0 1 0 0 2.5 1.25 1.25 0 0 0 0-2.5m-2.907-3.12-3.301.99.712 1.741z" clip-rule="evenodd"/></g><defs><clipPath id="a"><path fill="#fff" d="M0 0h20v20H0z"/></clipPath></defs></svg>