<svg xmlns="http://www.w3.org/2000/svg" width="28" height="28" fill="none"><g clip-path="url(#a)"><path fill="#1A1C1F" fill-rule="evenodd" d="M8.788 15.71a3.062 3.062 0 1 1 0 6.124 3.062 3.062 0 0 1 0-6.125m0 1.75a1.312 1.312 0 1 0 0 2.624 1.312 1.312 0 0 0 0-2.625M3.17 9.445a4.375 4.375 0 0 1 5.146-3.184q.756.144 3.09 1.183a14.9 14.9 0 0 1 3.853 2.448q2.595 2.278 4.274 4.398c.146.185.21.419.183.649-.028.23-.552 2.349-.677 2.552-.615 1-1.39 1.704-2.162 1.71q-.771.007-2.941.001c-.421 0-.773-.42-.773-.869 0-.448.367-.869.773-.869q2.531 0 2.719-.01c.222.013.48-.266.718-.61q.239-.342.518-1.802-2.021-2.357-3.786-3.834c-1.035-.866-2.144-1.607-3.37-2.147C9.512 8.523 8.28 8.03 7.8 7.946a2.625 2.625 0 0 0-2.925 1.9l-.9 4.205v2.506c0 .168.108.246.212.272a.875.875 0 0 1-.424 1.698c-.854-.213-1.538-1.001-1.538-1.94v-2.628q0-.21.945-4.513m21.73 6.535a.875.875 0 1 1 0 1.75c-.283 0-.563.054-.825.159l-1.59.777c-.301.148-.684.255-.96.263q-.277.008-.638.008a.875.875 0 0 1-.875-.875.87.87 0 0 1 .875-.87l.437-.005q.152 0 .294-.051.095-.035 1.529-.747a4 4 0 0 1 1.753-.41M6.419 10.545c.2-.638.866-1.06 1.533-.919q1.625.668 2.703 1.175a10.5 10.5 0 0 1 2.906 2.033q.476.48.746.79c.27.31.218.847-.106 1.153a.875.875 0 0 1-1.157.04 37 37 0 0 0-.756-.78c-.616-.626-1.467-1.215-2.326-1.627l-1.973-.859-.385 1.791c-.086.36-.52.685-1.01.577s-.75-.577-.69-.936q.074-.41.515-2.438" clip-rule="evenodd"/></g><defs><clipPath id="a"><path fill="#fff" d="M0 0h28v28H0z"/></clipPath></defs></svg>