<svg width="20" height="20" viewBox="0 0 20 20" fill="none" xmlns="http://www.w3.org/2000/svg"><path d="M14.000 4.416 C 13.510 4.495,12.645 4.691,12.519 4.751 C 12.262 4.873,12.104 5.188,12.149 5.487 C 12.162 5.574,12.246 5.891,12.336 6.193 C 12.426 6.495,12.500 6.769,12.500 6.803 C 12.500 6.876,12.500 6.876,10.087 7.600 C 8.504 8.076,8.387 8.106,8.347 8.051 C 8.283 7.964,7.999 7.306,7.991 7.225 C 7.985 7.170,8.010 7.147,8.100 7.120 C 8.281 7.067,8.516 6.811,8.585 6.591 C 8.636 6.430,8.638 6.386,8.600 6.251 C 8.545 6.053,8.407 5.864,8.245 5.763 L 8.117 5.683 6.860 5.684 L 5.604 5.685 5.460 5.787 C 5.082 6.056,5.029 6.585,5.348 6.912 C 5.507 7.076,5.667 7.133,6.056 7.163 C 6.206 7.175,6.335 7.192,6.342 7.201 C 6.350 7.209,6.538 7.665,6.761 8.212 L 7.167 9.208 6.667 9.833 L 6.168 10.458 5.863 10.343 C 5.449 10.188,5.079 10.144,4.583 10.193 C 4.127 10.238,3.826 10.335,3.458 10.557 C 2.590 11.081,2.087 12.027,2.144 13.033 C 2.212 14.240,2.960 15.178,4.155 15.555 C 4.311 15.604,4.457 15.616,4.883 15.616 C 5.396 15.615,5.429 15.611,5.723 15.509 C 6.101 15.378,6.317 15.258,6.608 15.018 C 7.202 14.528,7.549 13.858,7.618 13.067 C 7.647 12.743,7.571 12.297,7.416 11.884 C 7.352 11.714,7.300 11.556,7.300 11.534 C 7.300 11.449,7.780 10.803,7.816 10.839 C 7.828 10.851,7.977 11.196,8.147 11.605 C 8.317 12.015,8.497 12.437,8.548 12.544 C 8.734 12.934,9.070 13.151,9.483 13.149 C 9.913 13.146,9.903 13.155,11.924 11.033 C 12.951 9.954,13.357 9.546,13.379 9.568 C 13.387 9.577,13.460 9.796,13.543 10.056 L 13.692 10.529 13.428 10.750 C 12.932 11.165,12.625 11.629,12.469 12.199 C 12.372 12.552,12.371 13.247,12.468 13.601 C 12.618 14.149,12.944 14.648,13.392 15.018 C 13.686 15.260,13.902 15.379,14.277 15.506 C 14.540 15.596,14.644 15.612,15.017 15.625 C 15.381 15.638,15.498 15.629,15.750 15.569 C 17.386 15.179,18.288 13.436,17.664 11.873 C 17.409 11.234,16.884 10.685,16.255 10.400 C 15.992 10.281,15.818 10.234,15.467 10.187 C 15.190 10.150,15.182 10.147,15.127 10.033 C 15.039 9.852,13.862 6.059,13.880 6.014 C 13.888 5.991,14.041 5.940,14.220 5.899 C 14.606 5.811,14.724 5.765,14.864 5.647 C 15.225 5.344,15.190 4.734,14.798 4.493 C 14.610 4.377,14.375 4.355,14.000 4.416 M12.137 8.592 C 12.106 8.648,11.113 9.703,10.111 10.746 L 9.634 11.241 9.564 11.079 C 9.315 10.511,8.942 9.546,8.962 9.525 C 8.975 9.511,9.623 9.307,10.402 9.070 C 11.180 8.834,11.892 8.617,11.983 8.589 C 12.075 8.561,12.154 8.537,12.160 8.536 C 12.165 8.534,12.155 8.560,12.137 8.592 M5.419 11.785 C 5.643 11.892,5.875 12.126,5.990 12.360 C 6.074 12.531,6.083 12.584,6.083 12.900 C 6.083 13.220,6.075 13.266,5.987 13.440 C 5.864 13.683,5.636 13.911,5.401 14.026 C 5.238 14.106,5.179 14.117,4.883 14.117 C 4.582 14.117,4.531 14.107,4.350 14.019 C 4.108 13.900,3.882 13.675,3.758 13.431 C 3.675 13.267,3.667 13.215,3.667 12.900 C 3.668 12.502,3.705 12.390,3.924 12.117 C 4.077 11.925,4.379 11.731,4.579 11.696 C 4.825 11.652,5.233 11.695,5.419 11.785 M15.655 11.781 C 15.878 11.884,16.126 12.129,16.243 12.365 C 16.324 12.528,16.333 12.583,16.333 12.898 C 16.333 13.215,16.324 13.267,16.242 13.431 C 16.118 13.676,15.875 13.917,15.642 14.027 C 15.473 14.106,15.409 14.117,15.117 14.117 C 14.819 14.117,14.763 14.107,14.593 14.023 C 14.355 13.906,14.139 13.690,14.014 13.442 C 13.925 13.266,13.917 13.220,13.917 12.900 C 13.917 12.581,13.925 12.533,14.014 12.351 C 14.167 12.041,14.431 11.820,14.800 11.696 C 14.958 11.643,15.462 11.693,15.655 11.781 " fill="#1A1C1F" stroke="none" fill-rule="evenodd"></path></svg>