<svg width="32" height="32" viewBox="0 0 32 32" fill="none" xmlns="http://www.w3.org/2000/svg"><path d="M22.544 7.071 C 21.799 7.206,20.783 7.467,20.504 7.595 C 20.145 7.759,19.971 8.026,19.979 8.400 C 19.981 8.547,20.086 9.009,20.211 9.428 C 20.335 9.846,20.425 10.220,20.411 10.257 C 20.397 10.295,20.268 10.353,20.126 10.387 C 17.352 11.048,15.510 11.472,14.199 11.754 L 13.597 11.883 13.525 11.741 C 13.398 11.492,12.955 10.077,12.988 10.024 C 13.005 9.996,13.242 9.973,13.513 9.973 C 14.332 9.973,14.705 9.799,14.904 9.322 C 15.084 8.889,14.963 8.481,14.564 8.173 L 14.338 8.000 12.000 8.000 L 9.662 8.000 9.436 8.173 C 9.037 8.481,8.916 8.889,9.096 9.322 C 9.280 9.763,9.673 9.973,10.316 9.974 C 10.824 9.975,10.838 9.985,10.974 10.416 C 11.335 11.569,11.621 12.529,11.652 12.693 C 11.685 12.870,11.657 12.916,11.137 13.551 C 10.834 13.920,10.490 14.334,10.371 14.472 L 10.155 14.723 9.747 14.535 C 9.035 14.206,8.532 14.111,7.493 14.108 C 6.773 14.107,6.504 14.128,6.187 14.208 C 4.981 14.514,3.852 15.269,3.095 16.273 C 1.303 18.652,1.791 22.096,4.176 23.900 C 6.392 25.576,9.445 25.362,11.388 23.394 C 12.288 22.481,12.817 21.364,12.971 20.045 C 13.106 18.899,12.712 17.399,12.016 16.412 C 11.890 16.232,11.787 16.049,11.788 16.003 C 11.789 15.957,11.943 15.733,12.131 15.504 L 12.473 15.088 13.198 17.291 C 13.597 18.502,14.012 19.673,14.122 19.892 C 14.398 20.446,14.491 20.502,15.173 20.525 C 16.222 20.559,16.591 20.393,17.123 19.645 C 17.308 19.386,18.167 18.129,19.032 16.853 C 19.897 15.577,20.791 14.262,21.018 13.930 L 21.432 13.327 21.577 13.797 C 21.656 14.055,21.752 14.365,21.789 14.485 L 21.856 14.703 21.383 15.036 C 20.271 15.822,19.580 16.814,19.176 18.209 C 19.055 18.626,19.040 18.775,19.040 19.536 C 19.040 20.506,19.116 20.895,19.465 21.712 C 19.974 22.904,21.054 24.011,22.222 24.541 C 23.734 25.227,25.374 25.195,26.907 24.452 C 28.812 23.528,29.981 21.664,29.981 19.547 C 29.981 17.632,29.075 15.984,27.440 14.923 C 26.540 14.338,25.630 14.082,24.451 14.081 L 23.755 14.080 23.017 11.693 C 22.612 10.381,22.277 9.285,22.274 9.258 C 22.270 9.231,22.387 9.175,22.533 9.134 C 23.504 8.864,23.594 8.829,23.790 8.643 C 24.279 8.177,24.166 7.425,23.561 7.124 C 23.252 6.970,23.138 6.964,22.544 7.071 M19.411 12.680 C 19.409 12.729,16.795 16.583,16.136 17.508 C 15.873 17.877,15.639 18.168,15.616 18.154 C 15.583 18.133,14.975 16.304,14.266 14.094 C 14.225 13.967,14.215 13.856,14.242 13.839 C 14.268 13.823,15.316 13.570,16.571 13.278 C 17.826 12.986,18.937 12.725,19.040 12.699 C 19.282 12.637,19.414 12.630,19.411 12.680 M25.216 16.137 C 26.282 16.355,27.183 17.082,27.655 18.107 C 27.890 18.617,27.968 18.981,27.965 19.547 C 27.957 21.215,26.887 22.546,25.238 22.941 C 23.720 23.304,22.071 22.498,21.373 21.053 C 21.116 20.520,21.041 20.172,21.043 19.520 C 21.044 18.867,21.172 18.371,21.481 17.813 C 21.671 17.471,22.321 16.747,22.438 16.747 C 22.471 16.747,22.573 16.993,22.665 17.293 C 22.757 17.594,22.989 18.327,23.182 18.921 C 23.500 19.901,23.550 20.017,23.719 20.156 C 24.335 20.664,25.205 20.335,25.365 19.533 C 25.397 19.374,25.300 19.014,24.714 17.127 C 24.556 16.618,24.427 16.168,24.427 16.127 C 24.427 16.028,24.698 16.032,25.216 16.137 M8.365 16.163 C 8.899 16.278,8.916 16.227,7.918 17.471 C 6.719 18.966,6.639 19.090,6.643 19.448 C 6.648 19.980,7.098 20.403,7.654 20.397 C 7.817 20.396,7.990 20.355,8.100 20.291 C 8.199 20.234,8.718 19.659,9.253 19.013 C 9.789 18.368,10.276 17.796,10.336 17.742 C 10.444 17.645,10.447 17.648,10.632 18.036 C 10.899 18.596,10.949 18.830,10.952 19.520 C 10.955 20.211,10.879 20.539,10.584 21.125 C 10.027 22.231,8.949 22.935,7.680 23.021 C 6.681 23.089,5.494 22.593,4.889 21.854 C 4.324 21.165,4.043 20.423,4.034 19.600 C 4.027 18.947,4.101 18.624,4.405 17.989 C 4.790 17.184,5.515 16.544,6.392 16.234 C 6.692 16.128,6.851 16.109,7.424 16.108 C 7.797 16.107,8.220 16.132,8.365 16.163 " fill="#1A1C1F" stroke="none" fill-rule="evenodd"></path></svg>