<svg width="14" height="14" viewBox="0 0 14 14" fill="none" xmlns="http://www.w3.org/2000/svg"><path d="M9.800 3.091 C 9.457 3.147,8.852 3.284,8.763 3.326 C 8.583 3.411,8.473 3.631,8.504 3.841 C 8.513 3.901,8.572 4.124,8.635 4.335 C 8.698 4.546,8.750 4.739,8.750 4.762 C 8.750 4.813,8.750 4.813,7.061 5.320 C 5.953 5.653,5.871 5.674,5.843 5.636 C 5.798 5.575,5.600 5.114,5.594 5.057 C 5.590 5.019,5.607 5.003,5.670 4.984 C 5.797 4.947,5.961 4.767,6.010 4.614 C 6.045 4.501,6.047 4.470,6.020 4.376 C 5.981 4.237,5.885 4.105,5.771 4.034 L 5.682 3.978 4.802 3.979 L 3.921 3.981 3.822 4.051 C 3.759 4.096,3.697 4.170,3.656 4.249 C 3.598 4.358,3.591 4.394,3.600 4.519 C 3.624 4.835,3.867 5.016,4.269 5.017 C 4.340 5.017,4.409 5.025,4.423 5.035 C 4.436 5.044,4.576 5.365,4.733 5.748 L 5.018 6.444 4.668 6.882 L 4.317 7.320 4.103 7.240 C 3.814 7.131,3.541 7.101,3.181 7.137 C 2.867 7.169,2.662 7.239,2.393 7.406 C 1.803 7.775,1.462 8.430,1.501 9.123 C 1.548 9.968,2.072 10.625,2.908 10.888 C 3.018 10.923,3.120 10.931,3.418 10.931 C 3.778 10.931,3.800 10.928,4.010 10.855 C 4.268 10.766,4.391 10.698,4.599 10.532 C 4.940 10.262,5.192 9.869,5.284 9.467 C 5.371 9.086,5.350 8.776,5.212 8.389 C 5.087 8.037,5.084 8.070,5.273 7.811 C 5.365 7.686,5.449 7.583,5.459 7.583 C 5.470 7.583,5.511 7.659,5.549 7.753 C 5.588 7.846,5.682 8.074,5.759 8.260 C 6.049 8.960,6.083 9.013,6.316 9.127 C 6.451 9.193,6.498 9.205,6.638 9.204 C 6.939 9.202,6.932 9.209,8.346 7.723 C 9.081 6.952,9.350 6.682,9.367 6.699 C 9.373 6.705,9.424 6.859,9.481 7.041 L 9.583 7.371 9.407 7.518 C 9.058 7.809,8.838 8.140,8.728 8.540 C 8.660 8.786,8.660 9.273,8.728 9.520 C 8.833 9.904,9.061 10.254,9.374 10.512 C 9.578 10.681,9.730 10.765,9.994 10.856 C 10.199 10.927,10.224 10.930,10.570 10.931 C 10.984 10.931,11.116 10.904,11.426 10.755 C 12.326 10.323,12.739 9.247,12.365 8.311 C 12.104 7.658,11.494 7.197,10.800 7.126 C 10.715 7.118,10.634 7.104,10.622 7.096 C 10.596 7.080,10.466 6.681,10.011 5.215 C 9.843 4.677,9.711 4.224,9.716 4.209 C 9.722 4.194,9.848 4.154,9.997 4.119 C 10.307 4.047,10.427 3.975,10.523 3.802 C 10.646 3.580,10.570 3.275,10.359 3.145 C 10.227 3.064,10.062 3.048,9.800 3.091 M8.496 6.014 C 8.474 6.053,7.779 6.792,7.078 7.522 L 6.745 7.868 6.684 7.732 C 6.581 7.499,6.250 6.669,6.258 6.662 C 6.262 6.659,6.743 6.512,7.327 6.336 C 7.911 6.160,8.415 6.008,8.447 5.997 C 8.479 5.986,8.508 5.976,8.512 5.975 C 8.515 5.974,8.508 5.992,8.496 6.014 M3.793 8.249 C 3.950 8.325,4.113 8.488,4.193 8.652 C 4.252 8.772,4.258 8.809,4.258 9.030 C 4.258 9.254,4.253 9.286,4.190 9.410 C 4.109 9.570,3.916 9.759,3.763 9.830 C 3.672 9.872,3.609 9.882,3.418 9.882 C 3.207 9.882,3.172 9.875,3.045 9.813 C 2.875 9.730,2.717 9.573,2.631 9.401 C 2.573 9.287,2.567 9.251,2.567 9.030 C 2.568 8.751,2.593 8.673,2.747 8.482 C 2.849 8.354,3.058 8.216,3.193 8.187 C 3.350 8.154,3.663 8.186,3.793 8.249 M10.958 8.247 C 11.115 8.318,11.288 8.490,11.370 8.655 C 11.427 8.769,11.433 8.808,11.433 9.028 C 11.433 9.250,11.427 9.287,11.369 9.401 C 11.282 9.573,11.113 9.742,10.950 9.819 C 10.831 9.874,10.787 9.882,10.582 9.882 C 10.373 9.882,10.334 9.875,10.215 9.816 C 10.049 9.735,9.898 9.583,9.810 9.409 C 9.747 9.286,9.742 9.254,9.742 9.030 C 9.742 8.809,9.748 8.772,9.807 8.653 C 9.913 8.436,10.110 8.270,10.360 8.187 C 10.471 8.150,10.824 8.185,10.958 8.247 " fill="#1A1C1F" stroke="none" fill-rule="evenodd"></path></svg>