<svg xmlns="http://www.w3.org/2000/svg" width="24" height="24" fill="none"><g clip-path="url(#a)"><path fill="#1A1C1F" fill-rule="evenodd" d="M7 14.394a2 2 0 1 1 0 4 2 2 0 0 1 0-4m.017-8.743q.826.171 1.826.57a16.9 16.9 0 0 1 5.674 3.407q1.225 1.114 2.14 2.226a.89.89 0 0 1 .163.762c-.164.732-1.35 3.019-1.574 3.365a.85.85 0 0 1-.729.413q-2.257-.09-3.828-.163c-.086-2.023-1.775-3.537-3.689-3.537a3.7 3.7 0 0 0-3.598 2.834c-.096-.036-1.252-.419-1.252-1.693v-3.441q0-.244.288-1.523a4.06 4.06 0 0 1 4.579-3.22M21 13.694a.85.85 0 0 1 .107 1.693q-.494.032-.71.161l-.91.497q-.594.35-1.487.349a.85.85 0 0 1-.107-1.693c.268-.026.518 0 .78-.148q.417-.224.909-.497A2.96 2.96 0 0 1 21 13.694M4.444 8.539l-.413 1.61a1 1 0 0 0 1.904.6l.273-1.056 2.798.962q.3.104.573.268.18.108 1.846 1.289a1 1 0 0 0 1.393-.243c.293-.417.225-1.018-.144-1.314q-.37-.297-1.768-1.253a5 5 0 0 0-.986-.539L6.223 7.589a1.5 1.5 0 0 0-1.78.95" clip-rule="evenodd"/></g><defs><clipPath id="a"><path fill="#fff" d="M0 0h24v24H0z"/></clipPath></defs></svg>