<svg width="24" height="24" viewBox="0 0 24 24" fill="none" xmlns="http://www.w3.org/2000/svg"><path d="M6.020 5.565 C 4.734 5.712,3.578 6.411,2.901 7.452 C 2.608 7.903,2.443 8.316,2.265 9.041 C 2.012 10.077,2.000 10.208,2.001 12.020 C 2.002 12.922,2.018 13.826,2.038 14.028 C 2.085 14.516,2.233 14.824,2.582 15.159 C 3.134 15.689,3.834 15.792,4.280 15.411 C 4.523 15.203,4.613 14.998,4.613 14.651 C 4.613 14.401,4.598 14.337,4.495 14.171 C 4.430 14.066,4.290 13.917,4.184 13.840 L 3.991 13.700 4.015 11.900 L 4.039 10.100 4.180 9.580 C 4.432 8.649,4.712 8.219,5.290 7.868 C 5.695 7.622,6.008 7.546,6.514 7.570 C 7.058 7.596,7.540 7.743,8.760 8.252 C 11.011 9.192,12.772 10.430,14.448 12.252 L 14.845 12.683 14.388 13.572 L 13.932 14.460 12.836 14.484 C 11.593 14.511,11.552 14.520,11.295 14.812 C 10.858 15.309,11.001 16.058,11.590 16.347 L 11.820 16.460 13.240 16.460 C 14.831 16.460,14.900 16.451,15.146 16.204 C 15.522 15.825,16.587 13.848,16.882 12.980 C 17.000 12.633,17.010 12.241,16.906 12.047 C 16.748 11.751,15.599 10.516,14.771 9.751 C 14.022 9.059,13.389 8.559,12.580 8.022 C 11.468 7.284,10.616 6.845,9.249 6.304 C 7.566 5.638,6.838 5.472,6.020 5.565 M6.360 8.715 C 5.977 8.799,5.571 9.090,5.379 9.419 C 5.326 9.508,5.256 9.698,5.223 9.841 C 5.130 10.243,4.991 11.442,5.018 11.614 C 5.072 11.958,5.359 12.299,5.674 12.394 C 5.883 12.456,6.213 12.452,6.374 12.385 C 6.572 12.302,6.784 12.098,6.881 11.898 C 6.929 11.799,6.998 11.531,7.034 11.302 L 7.100 10.885 7.960 11.234 C 9.465 11.847,9.462 11.845,10.596 12.791 C 10.913 13.056,11.255 13.314,11.356 13.366 C 11.962 13.676,12.736 13.168,12.736 12.460 C 12.736 12.054,12.624 11.907,11.720 11.134 C 11.123 10.623,10.725 10.313,10.454 10.149 C 10.204 9.997,9.270 9.599,7.882 9.052 C 6.987 8.699,6.710 8.638,6.360 8.715 M7.180 13.502 C 7.136 13.512,7.001 13.541,6.880 13.565 C 6.442 13.654,5.892 14.007,5.562 14.411 C 5.326 14.701,5.173 15.021,5.075 15.431 C 4.778 16.670,5.517 17.932,6.789 18.357 C 7.142 18.475,7.859 18.475,8.211 18.357 C 8.632 18.216,8.925 18.035,9.244 17.720 C 10.238 16.739,10.245 15.224,9.260 14.230 C 8.793 13.757,8.287 13.531,7.630 13.501 C 7.426 13.491,7.224 13.492,7.180 13.502 M20.463 13.522 C 20.130 13.578,19.889 13.674,19.161 14.040 C 18.413 14.417,18.244 14.479,17.960 14.481 C 17.436 14.484,17.028 14.919,17.028 15.475 C 17.028 15.780,17.114 15.984,17.326 16.188 C 17.534 16.387,17.706 16.440,18.141 16.440 C 18.723 16.440,18.978 16.364,19.873 15.922 C 20.516 15.604,20.723 15.520,20.963 15.481 C 21.344 15.419,21.565 15.314,21.739 15.111 C 22.022 14.779,22.069 14.334,21.859 13.974 C 21.616 13.561,21.145 13.408,20.463 13.522 M7.693 15.525 C 7.896 15.630,7.960 15.726,7.960 15.929 C 7.960 16.178,7.879 16.332,7.706 16.415 C 7.534 16.496,7.469 16.496,7.308 16.416 C 7.103 16.313,7.042 16.207,7.041 15.957 C 7.040 15.776,7.057 15.719,7.130 15.652 C 7.322 15.478,7.516 15.434,7.693 15.525 " fill="#1A1C1F" stroke="none" fill-rule="evenodd"></path></svg>