<svg xmlns="http://www.w3.org/2000/svg" width="14" height="14" fill="none"><g clip-path="url(#a)"><path fill="#1A1C1F" fill-rule="evenodd" d="M4.49 8.438a1.05 1.05 0 1 1 0 2.1 1.05 1.05 0 0 1 0-2.1m-.182-4.946c.182.024 1.096.257 2.222.75 1.263.705 2.247 1.443 2.952 2.222.165.183.2.45.088.67l-.847 1.689a.6.6 0 0 1-.526.324q-1.38.006-1.664 0c-.073-.97-1.05-1.76-2.043-1.76a2.1 2.1 0 0 0-1.882 1.169l-.456-.052a.595.595 0 0 1-.522-.505q-.17-1.233-.17-1.447t.298-1.334a2.24 2.24 0 0 1 2.55-1.726m8.215 4.52c.075.293-.095.65-.429.723l-1.506.386a.595.595 0 1 1-.295-1.153l1.506-.385a.595.595 0 0 1 .724.428M2.904 4.68l-.38 1.118a.595.595 0 0 0 1.099.449l.214-.623q1.065.205 1.66.55l1.138.674a.595.595 0 0 0 .677-.975l-.99-.6a6.2 6.2 0 0 0-1.707-.7l-1.058-.219a.595.595 0 0 0-.653.326" clip-rule="evenodd"/></g><defs><clipPath id="a"><path fill="#fff" d="M0 0h14v14H0z"/></clipPath></defs></svg>