<svg width="12" height="12" viewBox="0 0 12 12" fill="none" xmlns="http://www.w3.org/2000/svg"><path d="M2.300 2.941 C 2.000 2.976,1.639 3.223,1.472 3.508 C 1.353 3.712,1.318 3.891,1.271 4.540 C 1.209 5.410,1.194 5.829,1.219 6.076 C 1.254 6.428,1.357 7.136,1.390 7.252 C 1.426 7.377,1.541 7.513,1.673 7.584 C 1.765 7.634,2.006 7.674,2.400 7.705 C 2.470 7.710,2.470 7.710,2.485 7.830 C 2.571 8.521,3.194 9.082,3.871 9.079 C 4.525 9.076,5.056 8.694,5.255 8.084 L 5.310 7.914 5.640 7.927 C 6.492 7.959,7.132 7.965,7.244 7.942 C 7.387 7.912,7.510 7.820,7.611 7.667 C 7.653 7.604,7.845 7.246,8.038 6.871 L 8.389 6.190 8.388 6.030 C 8.388 5.828,8.348 5.736,8.182 5.549 C 7.721 5.030,6.777 4.310,5.895 3.805 C 5.654 3.667,5.494 3.619,4.220 3.301 C 2.760 2.936,2.596 2.906,2.300 2.941 M3.420 4.092 C 3.954 4.199,4.804 4.380,5.105 4.452 C 5.310 4.501,5.332 4.512,5.625 4.704 C 6.129 5.036,6.382 5.224,6.438 5.309 C 6.483 5.377,6.490 5.407,6.489 5.549 C 6.488 5.673,6.479 5.728,6.446 5.790 C 6.352 5.968,6.193 6.060,5.981 6.060 C 5.880 6.060,5.849 6.049,5.689 5.954 C 5.591 5.896,5.374 5.757,5.208 5.646 L 4.906 5.443 4.178 5.291 C 3.778 5.207,3.432 5.136,3.410 5.134 C 3.373 5.130,3.369 5.146,3.358 5.340 C 3.351 5.455,3.332 5.582,3.315 5.621 C 3.240 5.800,3.051 5.923,2.851 5.923 C 2.660 5.923,2.505 5.830,2.409 5.657 L 2.350 5.550 2.351 4.949 L 2.352 4.348 2.406 4.255 C 2.511 4.075,2.700 3.970,2.880 3.992 C 2.929 3.998,3.172 4.043,3.420 4.092 M10.050 6.490 C 9.875 6.522,9.061 6.728,8.860 6.791 C 8.610 6.870,8.487 6.994,8.426 7.226 C 8.396 7.339,8.395 7.375,8.415 7.473 C 8.464 7.706,8.650 7.894,8.877 7.941 C 9.015 7.970,9.084 7.959,9.690 7.808 C 10.480 7.611,10.565 7.578,10.677 7.414 C 10.898 7.093,10.793 6.681,10.452 6.530 C 10.315 6.469,10.217 6.459,10.050 6.490 " fill="#1A1C1F" stroke="none" fill-rule="evenodd"></path></svg>