<svg xmlns="http://www.w3.org/2000/svg" width="16" height="16" fill="none"><g clip-path="url(#a)"><path fill="#1A1C1F" fill-rule="evenodd" d="M3.316 3.886q.135-.013.408.046.273.06 3.667.907a.8.8 0 0 1 .197.077Q9.771 6.13 10.992 7.48a.8.8 0 0 1 .162.8l-.963 1.9a.8.8 0 0 1-.706.436l-2.414-.06a1.902 1.902 0 0 1-3.77-.286l-.763-.058a.8.8 0 0 1-.733-.699q-.2-1.52-.205-1.745-.003-.225.143-2.377a1.6 1.6 0 0 1 1.573-1.504m11.06 5.335c.1.398-.128.866-.582.97l-1.6.4a.8.8 0 0 1-.97-.582.806.806 0 0 1 .582-.97l1.6-.4a.8.8 0 0 1 .97.582M3.13 5.901l-.005 1.328a.68.68 0 0 0 1.354.085l.006-.49 2.052.43 1.086.727a.697.697 0 0 0 .928-.16.69.69 0 0 0-.1-.915l-1.268-.855a1.4 1.4 0 0 0-.237-.1L3.945 5.32a.68.68 0 0 0-.815.58" clip-rule="evenodd"/></g><defs><clipPath id="a"><path fill="#fff" d="M0 0h16v16H0z"/></clipPath></defs></svg>