<svg width="28" height="28" viewBox="0 0 28 28" fill="none" xmlns="http://www.w3.org/2000/svg"><path d="M19.740 6.185 C 19.018 6.316,18.150 6.544,17.912 6.665 C 17.725 6.760,17.641 6.840,17.557 7.000 C 17.418 7.264,17.434 7.414,17.689 8.261 C 17.792 8.605,17.871 8.917,17.863 8.955 C 17.855 8.998,17.726 9.056,17.523 9.108 C 17.033 9.234,13.260 10.106,12.532 10.261 L 11.897 10.397 11.834 10.273 C 11.723 10.055,11.336 8.818,11.365 8.771 C 11.380 8.747,11.587 8.727,11.824 8.727 C 12.540 8.727,12.867 8.574,13.041 8.156 C 13.199 7.778,13.093 7.421,12.743 7.152 L 12.546 7.000 10.500 7.000 L 8.454 7.000 8.257 7.152 C 7.907 7.421,7.801 7.778,7.959 8.156 C 8.120 8.542,8.464 8.726,9.027 8.727 C 9.498 8.728,9.473 8.702,9.704 9.441 C 10.010 10.415,10.215 11.120,10.218 11.203 C 10.220 11.267,9.652 11.991,9.075 12.663 L 8.886 12.883 8.529 12.718 C 7.906 12.430,7.466 12.347,6.557 12.345 C 5.926 12.344,5.691 12.362,5.413 12.432 C 4.359 12.700,3.370 13.360,2.708 14.239 C 1.657 15.634,1.464 17.530,2.214 19.116 C 2.484 19.687,2.748 20.066,3.171 20.489 C 4.529 21.847,6.548 22.268,8.323 21.563 C 9.996 20.898,11.133 19.387,11.350 17.540 C 11.468 16.537,11.123 15.224,10.514 14.360 C 10.404 14.203,10.314 14.042,10.314 14.003 C 10.315 13.963,10.450 13.766,10.615 13.566 L 10.914 13.202 11.548 15.129 C 11.897 16.189,12.261 17.213,12.356 17.405 C 12.598 17.891,12.680 17.940,13.276 17.959 C 13.872 17.979,14.213 17.911,14.498 17.718 C 14.748 17.550,14.937 17.287,16.939 14.327 C 17.643 13.287,18.338 12.262,18.485 12.049 L 18.753 11.662 18.879 12.073 C 18.948 12.299,19.030 12.570,19.062 12.675 L 19.120 12.868 18.709 13.158 C 17.737 13.844,17.133 14.713,16.779 15.933 C 16.673 16.298,16.660 16.428,16.660 17.098 C 16.660 17.712,16.678 17.917,16.755 18.201 C 16.982 19.033,17.283 19.615,17.797 20.215 C 18.977 21.593,20.806 22.196,22.522 21.771 C 24.747 21.221,26.231 19.345,26.232 17.080 C 26.233 15.431,25.432 13.981,24.010 13.057 C 23.222 12.546,22.426 12.322,21.394 12.321 L 20.785 12.320 20.140 10.232 C 19.786 9.083,19.493 8.124,19.489 8.100 C 19.486 8.077,19.588 8.028,19.717 7.992 C 20.566 7.756,20.645 7.725,20.816 7.563 C 21.244 7.155,21.145 6.497,20.616 6.233 C 20.347 6.099,20.244 6.094,19.740 6.185 M16.987 11.088 C 16.987 11.147,14.220 15.208,13.832 15.718 C 13.697 15.896,13.674 15.909,13.635 15.834 C 13.601 15.770,12.894 13.623,12.460 12.263 C 12.436 12.188,12.436 12.125,12.461 12.109 C 12.484 12.095,13.360 11.884,14.407 11.641 C 15.454 11.398,16.426 11.170,16.567 11.134 C 16.855 11.061,16.987 11.047,16.987 11.088 M22.064 14.120 C 22.997 14.311,23.785 14.947,24.198 15.843 C 24.403 16.288,24.472 16.607,24.471 17.103 C 24.468 18.271,23.816 19.330,22.789 19.830 C 21.762 20.331,20.591 20.233,19.656 19.568 C 19.120 19.186,18.635 18.472,18.475 17.827 C 18.440 17.686,18.412 17.349,18.412 17.080 C 18.414 16.510,18.525 16.075,18.793 15.592 C 18.980 15.255,19.557 14.622,19.634 14.669 C 19.662 14.686,19.793 15.041,19.926 15.458 C 20.591 17.549,20.612 17.597,20.931 17.756 C 21.192 17.887,21.495 17.874,21.757 17.720 C 21.999 17.578,22.098 17.446,22.172 17.164 C 22.230 16.944,22.221 16.908,21.625 14.986 C 21.487 14.540,21.373 14.147,21.373 14.111 C 21.373 14.025,21.611 14.028,22.064 14.120 M7.319 14.143 C 7.786 14.243,7.801 14.199,6.929 15.287 C 5.879 16.596,5.809 16.704,5.812 17.017 C 5.817 17.482,6.211 17.852,6.697 17.848 C 6.840 17.846,6.991 17.810,7.088 17.754 C 7.174 17.704,7.628 17.201,8.097 16.637 C 8.565 16.072,8.991 15.571,9.044 15.524 C 9.138 15.440,9.141 15.442,9.303 15.781 C 9.537 16.272,9.581 16.476,9.583 17.080 C 9.585 17.684,9.520 17.971,9.261 18.485 C 8.774 19.452,7.831 20.068,6.720 20.144 C 5.846 20.203,4.807 19.769,4.278 19.122 C 3.783 18.519,3.537 17.870,3.530 17.150 C 3.524 16.579,3.589 16.296,3.854 15.741 C 4.191 15.036,4.826 14.476,5.593 14.205 C 5.855 14.112,5.995 14.095,6.496 14.094 C 6.822 14.094,7.192 14.116,7.319 14.143 " fill="#1A1C1F" stroke="none" fill-rule="evenodd"></path></svg>