<svg xmlns="http://www.w3.org/2000/svg" width="32" height="32" fill="none"><g clip-path="url(#a)"><path fill="#1A1C1F" fill-rule="evenodd" d="M23.98 7.813a.85.85 0 0 1-.54.986l-1.4.322 1.644 5.09c3.664-.47 6.166 2.334 6.166 5.29a5.35 5.35 0 1 1-7.783-4.767l-.585-1.811-4.658 6.963c-.054.081-.302.461-1.033.529l-.819.006a.85.85 0 0 1-.768-.486L12.533 14.8l-.994 1.19a5.4 5.4 0 0 1 1.311 3.51 5.35 5.35 0 1 1-2.616-4.6l1.68-2.012-.985-3.038H10a.85.85 0 0 1 0-1.7h4c.47 0 .85.38.85.85 0 .433-.369.85-.85.85h-1.283l.734 2.266 7.239-1.643-.553-1.715a.85.85 0 0 1 .52-1.06l2.306-.527a.85.85 0 0 1 1.016.642M7.5 15.85a3.65 3.65 0 1 0 2.928 1.47l-2.276 2.725c-.272.323-.837.405-1.197.107-.33-.275-.445-.81-.107-1.197l2.276-2.725a3.6 3.6 0 0 0-1.624-.38m16.717.01 1.092 3.379c.133.412-.089.913-.503 1.06s-.946-.037-1.115-.538L22.6 16.383a3.65 3.65 0 1 0 5.55 3.117c0-2.016-1.65-3.77-3.933-3.64m-4.448-3.435-5.792 1.315 1.602 4.948z" clip-rule="evenodd"/></g><defs><clipPath id="a"><path fill="#fff" d="M0 0h32v32H0z"/></clipPath></defs></svg>