<svg xmlns="http://www.w3.org/2000/svg" width="32" height="32" fill="none"><g clip-path="url(#a)"><path fill="#1A1C1F" fill-rule="evenodd" d="M10.043 17.953a3.5 3.5 0 1 1 0 7 3.5 3.5 0 0 1 0-7m0 2a1.5 1.5 0 1 0 0 3 1.5 1.5 0 0 0 0-3m-6.42-9.157a5 5 0 0 1 5.881-3.639q.864.165 3.531 1.352a17 17 0 0 1 4.404 2.798q2.967 2.602 4.885 5.026a1 1 0 0 1 .208.741c-.032.263-.63 2.685-.773 2.917-.703 1.143-1.589 1.947-2.471 1.955a363 363 0 0 1-3.361 0c-.482 0-.884-.48-.884-.993 0-.512.42-.993.884-.993q2.892 0 3.107-.012c.254.015.548-.304.82-.696q.273-.392.594-2.06-2.31-2.693-4.328-4.382c-1.183-.99-2.45-1.837-3.85-2.453S9.46 9.177 8.915 9.082a3 3 0 0 0-3.344 2.17l-1.028 4.806v2.865c0 .191.124.28.243.31a1 1 0 0 1-.485 1.94c-.976-.243-1.758-1.143-1.758-2.217v-3.003q0-.24 1.08-5.157m24.834 7.468a1 1 0 0 1 0 2 2.5 2.5 0 0 0-.942.182l-1.818.888c-.344.17-.782.291-1.098.3q-.315.009-.728.009a1 1 0 0 1-1-1c0-.513.415-1 1-.993l.499-.007a1 1 0 0 0 .337-.058q.108-.038 1.746-.854a4.5 4.5 0 0 1 2.004-.467M7.336 12.052c.228-.73.99-1.212 1.752-1.05a68 68 0 0 1 3.089 1.342 12 12 0 0 1 3.322 2.324q.544.549.852.903c.308.355.25.967-.121 1.317a1 1 0 0 1-1.322.046 42 42 0 0 0-.864-.892c-.705-.715-1.678-1.389-2.659-1.86l-2.254-.98-.44 2.046c-.099.41-.595.783-1.155.659s-.856-.659-.79-1.07q.086-.468.59-2.785" clip-rule="evenodd"/></g><defs><clipPath id="a"><path fill="#fff" d="M0 0h32v32H0z"/></clipPath></defs></svg>