<svg width="14" height="14" viewBox="0 0 14 14" fill="none" xmlns="http://www.w3.org/2000/svg"><path d="M3.418 3.532 C 2.663 3.751,2.120 4.223,1.868 4.877 C 1.793 5.072,1.622 5.708,1.529 6.142 C 1.454 6.490,1.454 6.686,1.528 7.274 C 1.600 7.836,1.646 8.077,1.704 8.191 C 1.763 8.307,1.913 8.432,2.036 8.469 C 2.197 8.518,2.574 8.561,2.607 8.534 C 2.623 8.522,2.670 8.453,2.710 8.382 C 2.860 8.121,3.206 7.803,3.527 7.633 C 3.869 7.451,3.964 7.432,4.503 7.432 L 4.982 7.432 5.238 7.542 C 5.579 7.689,5.760 7.809,5.985 8.038 C 6.262 8.320,6.442 8.651,6.511 9.004 L 6.540 9.151 7.454 9.143 L 8.369 9.135 8.484 9.064 C 8.551 9.022,8.630 8.946,8.675 8.877 C 8.802 8.684,9.534 7.210,9.591 7.031 C 9.692 6.718,9.621 6.579,9.121 6.104 C 8.507 5.520,7.773 4.975,6.935 4.481 C 6.478 4.212,5.798 3.925,5.087 3.701 C 4.564 3.536,4.398 3.505,3.978 3.490 C 3.635 3.478,3.590 3.482,3.418 3.532 M3.879 4.423 C 4.826 4.606,5.289 4.754,5.938 5.080 C 6.272 5.247,7.106 5.740,7.295 5.881 C 7.453 6.000,7.513 6.124,7.513 6.331 C 7.513 6.512,7.480 6.607,7.373 6.729 C 7.254 6.864,7.134 6.917,6.942 6.918 C 6.754 6.918,6.762 6.922,5.927 6.433 C 5.103 5.950,4.770 5.820,3.885 5.635 C 3.844 5.627,3.827 5.659,3.748 5.887 C 3.595 6.329,3.496 6.464,3.266 6.545 C 2.871 6.685,2.448 6.342,2.508 5.930 C 2.536 5.737,2.894 4.696,2.967 4.595 C 3.005 4.543,3.084 4.470,3.144 4.432 C 3.237 4.373,3.276 4.363,3.411 4.363 C 3.498 4.363,3.709 4.390,3.879 4.423 M11.258 7.721 C 10.963 7.796,10.585 7.898,10.419 7.947 C 10.147 8.027,10.106 8.046,10.018 8.134 C 9.919 8.233,9.847 8.405,9.847 8.541 C 9.847 8.642,9.908 8.816,9.974 8.903 C 10.051 9.003,10.246 9.118,10.372 9.136 C 10.443 9.146,10.638 9.106,11.200 8.964 C 12.277 8.692,12.279 8.692,12.402 8.530 C 12.587 8.288,12.571 7.954,12.364 7.750 C 12.152 7.539,11.991 7.535,11.258 7.721 M4.247 8.478 C 3.845 8.572,3.529 8.910,3.454 9.326 C 3.387 9.703,3.580 10.129,3.921 10.357 C 4.294 10.606,4.757 10.590,5.116 10.317 C 5.772 9.817,5.626 8.808,4.856 8.515 C 4.698 8.456,4.415 8.438,4.247 8.478 " fill="#1A1C1F" stroke="none" fill-rule="evenodd"></path></svg>