<svg xmlns="http://www.w3.org/2000/svg" width="20" height="20" fill="none"><g clip-path="url(#a)"><path fill="#1A1C1F" fill-rule="evenodd" d="M4.145 4.857q.169-.015.51.059.34.075 4.584 1.132a1 1 0 0 1 .246.098c1.818 1.012 3.237 2.076 4.256 3.203a1 1 0 0 1 .202 1l-1.204 2.375a1 1 0 0 1-.883.545l-3.017-.075a2.377 2.377 0 0 1-4.714-.358l-.953-.073a1 1 0 0 1-.915-.873Q2.005 9.99 2 9.71q-.005-.282.178-2.972a2 2 0 0 1 1.966-1.88m13.826 6.67c.124.497-.161 1.082-.728 1.212l-2 .5a1 1 0 0 1-1.213-.727 1.007 1.007 0 0 1 .728-1.213l2-.5a1 1 0 0 1 1.213.728M3.912 7.376l-.006 1.66a.85.85 0 0 0 1.693.106l.007-.613 2.565.54 1.357.907c.358.239.893.165 1.16-.2a.86.86 0 0 0-.124-1.143L8.98 7.564a2 2 0 0 0-.297-.125l-3.751-.79a.85.85 0 0 0-1.019.727" clip-rule="evenodd"/></g><defs><clipPath id="a"><path fill="#fff" d="M0 0h20v20H0z"/></clipPath></defs></svg>