<svg xmlns="http://www.w3.org/2000/svg" width="12" height="12" fill="none"><g clip-path="url(#a)"><path fill="#1A1C1F" fill-rule="evenodd" d="M3.849 7.232a.9.9 0 1 1 0 1.8.9.9 0 0 1 0-1.8m-.156-4.239c.156.02.94.22 1.904.644q1.624.904 2.53 1.903a.51.51 0 0 1 .076.574l-.727 1.448a.51.51 0 0 1-.45.278q-1.182.005-1.426 0c-.063-.83-.9-1.508-1.751-1.508a1.8 1.8 0 0 0-1.614 1.001l-.39-.044a.51.51 0 0 1-.448-.433q-.146-1.057-.146-1.24 0-.185.256-1.143a1.92 1.92 0 0 1 2.186-1.48m7.041 3.874c.064.252-.082.558-.368.62l-1.29.33a.51.51 0 1 1-.254-.987l1.292-.33a.51.51 0 0 1 .62.367M2.489 4.011l-.326.959a.51.51 0 0 0 .942.384l.184-.534q.915.176 1.423.472l.975.578a.51.51 0 0 0 .58-.836L5.42 4.52a5.3 5.3 0 0 0-1.463-.601l-.907-.187a.51.51 0 0 0-.56.279" clip-rule="evenodd"/></g><defs><clipPath id="a"><path fill="#fff" d="M0 0h12v12H0z"/></clipPath></defs></svg>