<svg width="28" height="28" viewBox="0 0 28 28" fill="none" xmlns="http://www.w3.org/2000/svg"><path d="M5.647 6.939 C 4.929 7.059,4.178 7.601,3.838 8.244 C 3.666 8.568,3.506 9.202,2.734 12.606 L 2.240 14.782 2.240 16.246 C 2.241 17.831,2.269 18.137,2.450 18.507 C 2.612 18.839,3.019 19.251,3.322 19.389 C 3.538 19.488,4.257 19.680,4.693 19.756 L 4.836 19.781 4.891 19.197 C 5.023 17.800,5.650 16.849,6.830 16.255 C 7.782 15.776,8.976 15.788,9.934 16.286 C 10.641 16.654,11.121 17.150,11.499 17.904 C 11.745 18.395,11.820 18.768,11.818 19.495 C 11.817 19.835,11.830 20.122,11.847 20.132 C 11.923 20.179,16.661 20.254,16.972 20.213 C 17.475 20.148,17.776 19.987,18.233 19.542 C 18.948 18.844,19.094 18.546,19.486 16.982 C 19.759 15.892,19.766 15.731,19.552 15.399 C 18.914 14.404,16.109 11.570,14.716 10.511 C 13.711 9.748,12.373 8.994,11.153 8.503 C 9.914 8.005,7.459 7.149,6.837 6.998 C 6.492 6.914,5.953 6.888,5.647 6.939 M7.441 8.993 C 8.432 9.310,10.356 10.014,11.013 10.299 C 12.099 10.770,12.863 11.262,13.911 12.168 C 14.839 12.971,14.991 13.189,14.912 13.609 C 14.813 14.135,14.210 14.477,13.762 14.261 C 13.675 14.220,13.246 13.890,12.810 13.530 C 11.462 12.416,10.928 12.102,9.472 11.559 C 8.786 11.304,6.882 10.640,6.835 10.640 C 6.827 10.640,6.744 10.971,6.651 11.375 C 6.320 12.802,6.239 12.996,5.917 13.141 C 5.616 13.277,5.323 13.259,5.079 13.089 C 4.795 12.892,4.652 12.602,4.689 12.297 C 4.721 12.029,5.091 10.327,5.234 9.789 C 5.338 9.398,5.546 9.105,5.859 8.912 C 6.239 8.677,6.499 8.690,7.441 8.993 M24.127 17.103 C 23.698 17.199,23.520 17.272,22.493 17.768 L 21.583 18.209 21.086 18.247 C 20.518 18.291,20.350 18.359,20.185 18.610 C 19.943 18.977,19.996 19.423,20.318 19.735 C 20.506 19.917,20.710 19.971,21.210 19.972 C 21.849 19.972,21.991 19.924,23.730 19.118 C 24.158 18.920,24.394 18.841,24.732 18.784 C 25.015 18.737,25.248 18.667,25.378 18.590 C 25.897 18.286,25.877 17.469,25.343 17.177 C 25.085 17.036,24.569 17.004,24.127 17.103 M7.929 17.681 C 7.523 17.766,6.936 18.255,6.759 18.654 C 6.696 18.796,6.652 19.014,6.638 19.256 C 6.592 20.026,6.949 20.617,7.662 20.954 C 8.165 21.192,8.587 21.181,9.136 20.916 C 9.788 20.601,10.217 19.775,10.079 19.098 C 9.962 18.528,9.578 18.030,9.077 17.800 C 8.820 17.682,8.219 17.620,7.929 17.681 " fill="#1A1C1F" stroke="none" fill-rule="evenodd"></path></svg>