<svg xmlns="http://www.w3.org/2000/svg" width="24" height="24" fill="none"><g clip-path="url(#a)"><path fill="#1A1C1F" fill-rule="evenodd" d="M17.843 5.763c.057.43-.176.867-.73.955q-.435.06-.87.115l1.424 4.456q.164-.014.333-.014a3.85 3.85 0 1 1-1.953.531l-.286-.897-3.368 3.744a1.1 1.1 0 0 1-1.775-.195l-.999-2.312-.55.653a3.85 3.85 0 1 1-1.3-1.095l1.1-1.308-1.144-2.671H7a.85.85 0 0 1-.85-.85c0-.433.334-.85.85-.85q1.25-.003 2.5 0a.85.85 0 0 1 .073 1.695q.345.812.706 1.649l4.471-1.626-.434-1.36a.846.846 0 0 1 .698-1.1q.936-.13 1.874-.25a.85.85 0 0 1 .955.73M6 12.975a2.15 2.15 0 1 0 1.922 1.186L6.65 15.673a.86.86 0 0 1-1.197.102c-.33-.277-.436-.82-.103-1.197q.633-.759 1.27-1.512a2.2 2.2 0 0 0-.62-.091m12.209.01.6 1.882a.85.85 0 0 1-.55 1.068.855.855 0 0 1-1.069-.551q-.303-.94-.601-1.88a2.15 2.15 0 1 0 1.62-.518M14.67 9.581l-3.72 1.352.807 1.884z" clip-rule="evenodd"/></g><defs><clipPath id="a"><path fill="#fff" d="M0 0h24v24H0z"/></clipPath></defs></svg>