<svg xmlns="http://www.w3.org/2000/svg" width="32" height="32" fill="none"><path fill="#1A1C1F" fill-rule="evenodd" d="M7.787 7.095c-.425.059-1.162.284-1.52.464-.758.381-1.657 1.191-2.045 1.842-.47.79-.552 1.084-1.344 4.824L2.56 15.73v1.807c0 1.677.008 1.829.108 2.121a2.3 2.3 0 0 0 1.556 1.486c.249.073.345.077.533.027.633-.168.948-.79.689-1.36a1.08 1.08 0 0 0-.618-.557c-.104-.035-.213-.107-.242-.161-.031-.059-.053-.69-.053-1.543v-1.444l.533-2.493c.629-2.938.688-3.102 1.333-3.712.608-.573 1.249-.834 2.045-.834.516 0 .859.086 1.792.45 2.598 1.013 3.76 1.639 5.391 2.903 1.105.858 2.966 2.661 4.263 4.132l.556.631-.095.462c-.246 1.184-.455 1.663-.913 2.084l-.236.218h-1.641c-.912 0-1.725.024-1.83.053-.351.097-.692.578-.69.972.003.401.336.839.719.943.275.074 3.374.078 3.766.004.64-.12 1.336-.656 1.936-1.49.348-.484.44-.738.839-2.322.24-.954.269-1.298.136-1.574-.261-.539-2.528-2.973-4.144-4.448-1.338-1.221-1.988-1.735-3.001-2.374-1.463-.921-4.547-2.281-5.762-2.54-.472-.101-1.305-.137-1.743-.076m.586 3.941c-.392.12-.779.455-.949.823-.123.266-.673 2.8-.673 3.101 0 .441.383.876.85.964.359.067.839-.175 1.013-.512.042-.082.174-.599.292-1.15.119-.551.225-1.011.237-1.022s.449.164.972.39c2.227.963 2.865 1.375 4.258 2.748.59.582.731.694.942.749.316.084.605.006.88-.235.239-.209.338-.437.338-.77 0-.335-.101-.492-.736-1.148-1.446-1.493-2.723-2.291-5.652-3.53-.915-.387-1.124-.457-1.36-.453a2 2 0 0 0-.412.045m.863 7.016c-.186.042-.51.162-.72.266-1.8.892-2.478 3.007-1.54 4.801.252.481.873 1.116 1.344 1.375 1.958 1.074 4.332.154 5.039-1.953.289-.862.222-1.777-.194-2.642-.171-.355-.305-.537-.65-.882-.447-.447-.817-.682-1.407-.891-.407-.145-1.391-.184-1.872-.074m18.341.299c-.432.085-.769.219-1.87.745l-1.094.522-.533.037c-.572.039-.719.09-.943.327-.468.495-.292 1.27.356 1.57.295.137 1.049.136 1.578-.001.221-.058.878-.337 1.489-.633 1.191-.577 1.221-.588 1.827-.649.508-.052.774-.207.94-.549.249-.515.065-1.092-.431-1.351-.162-.085-.926-.095-1.319-.018M10.632 20.08c.301.126.647.473.781.784.146.34.134.91-.027 1.243-.529 1.092-2.114 1.108-2.664.026a1.49 1.49 0 0 1 .887-2.11c.274-.09.734-.064 1.023.057"/></svg>