<svg xmlns="http://www.w3.org/2000/svg" width="24" height="24" fill="none"><g clip-path="url(#a)"><path fill="#1A1C1F" fill-rule="evenodd" d="M18.213 15.8c.42.43 1.465 1.7 2.286 1.7a1 1 0 0 1 1 1c0 .513-.445 1.005-1 1q-1.524-.013-3-1.508-1.565 1.51-3.004 1.508t-2.996-1.507q-1.545 1.507-3 1.507-1.453 0-3-1.506-1.551 1.506-3 1.506a1 1 0 0 1-1-1c0-.513.436-1 1-1 .867 0 1.8-1.065 2.2-1.6a1 1 0 0 1 1.6 0c.4.535 1.209 1.6 2.2 1.6s1.8-1.067 2.2-1.6a1 1 0 0 1 1.6 0c.4.533 1.128 1.6 2.202 1.6 1.073 0 1.825-1.103 2.198-1.6a1 1 0 0 1 1.514-.1M10.47 4.5c1.646 0 2.958.711 3.928 1.867.376.447.652.893.843 1.284l6.074-1.134a1 1 0 0 1 1.123 1.329l-3.045 6.101a1 1 0 0 1-1.341.447c-.459-.229-.724-.803-.381-1.462q-3.582.64-9.17 1.668a1 1 0 0 1-.47-1.94l10.758-1.963.915-1.845L3.867 11.81c-.211.044-.335.154-.362.333L3.499 14.5a1 1 0 0 1-1.993.117l-.007-2.393c0-1.171.758-2.048 1.812-2.335l1.624-.315c.455-.186.788-1.6.573-3.19a1 1 0 0 1 .696-1.09zM7.575 7.064c.032.731-.02 1.43-.165 2.051l5.746-1.075a4 4 0 0 0-.29-.387c-.57-.68-1.28-1.091-2.184-1.147z" clip-rule="evenodd"/></g><defs><clipPath id="a"><path fill="#fff" d="M0 0h24v24H0z"/></clipPath></defs></svg>