<svg width="28" height="28" viewBox="0 0 28 28" fill="none" xmlns="http://www.w3.org/2000/svg"><path d="M14.047 6.706 C 13.982 6.717,13.038 6.872,11.947 7.050 C 8.897 7.550,8.454 7.637,8.275 7.773 C 8.041 7.951,8.000 8.156,8.070 8.787 C 8.158 9.573,8.082 10.235,7.838 10.820 C 7.607 11.372,7.470 11.556,7.244 11.617 C 7.148 11.643,6.650 11.739,6.137 11.831 C 3.207 12.356,3.134 12.378,2.587 12.890 C 2.190 13.261,1.981 13.678,1.914 14.232 C 1.862 14.669,1.849 17.118,1.898 17.363 C 1.941 17.582,2.276 17.905,2.503 17.948 C 2.754 17.995,3.177 17.897,3.625 17.688 C 4.149 17.443,4.368 17.283,4.953 16.717 L 5.458 16.229 5.914 16.661 C 7.261 17.937,8.217 18.226,9.321 17.689 C 9.784 17.464,10.137 17.200,10.701 16.661 L 11.152 16.230 11.608 16.662 C 13.422 18.381,14.596 18.371,16.433 16.623 L 16.846 16.230 17.321 16.682 C 18.088 17.411,18.634 17.755,19.259 17.902 C 19.843 18.039,20.472 17.899,20.877 17.542 C 21.156 17.297,21.792 16.344,23.505 13.603 C 25.551 10.330,26.092 9.433,26.117 9.270 C 26.147 9.072,25.969 8.735,25.760 8.594 C 25.615 8.496,25.560 8.487,25.270 8.510 C 25.090 8.524,23.610 8.767,21.980 9.050 C 20.350 9.333,18.964 9.573,18.900 9.584 C 18.799 9.600,18.734 9.538,18.410 9.113 C 17.542 7.974,16.587 7.208,15.630 6.882 C 15.343 6.785,14.420 6.653,14.210 6.680 C 14.184 6.683,14.111 6.695,14.047 6.706 M15.245 8.331 C 15.648 8.483,16.145 8.818,16.523 9.193 C 16.874 9.542,17.106 9.836,17.064 9.879 C 17.047 9.895,16.840 9.945,16.602 9.991 C 15.714 10.161,9.483 11.247,9.394 11.247 C 9.302 11.247,9.302 11.242,9.405 10.885 C 9.530 10.454,9.613 9.825,9.613 9.308 L 9.613 8.932 11.282 8.660 C 14.700 8.102,14.648 8.107,15.245 8.331 M22.111 11.172 C 22.361 11.302,22.463 11.461,22.482 11.749 C 22.503 12.079,22.395 12.308,22.163 12.422 C 21.987 12.508,20.894 12.699,17.547 13.227 C 12.008 14.101,8.066 14.696,7.721 14.711 C 7.473 14.722,7.251 14.565,7.131 14.293 C 6.981 13.954,7.114 13.528,7.420 13.370 C 7.575 13.290,14.934 12.117,21.140 11.184 C 21.727 11.096,21.959 11.093,22.111 11.172 M22.502 18.156 C 22.442 18.180,22.164 18.410,21.885 18.667 C 21.051 19.432,20.470 19.754,19.808 19.818 C 19.130 19.883,18.338 19.535,17.531 18.815 C 17.355 18.659,17.119 18.496,17.006 18.452 C 16.815 18.380,16.786 18.379,16.602 18.450 C 16.493 18.492,16.225 18.675,16.007 18.857 C 15.327 19.425,14.674 19.762,14.146 19.817 C 13.613 19.872,12.911 19.583,12.155 18.994 C 11.629 18.585,11.303 18.388,11.153 18.388 C 10.996 18.388,10.737 18.543,10.290 18.904 C 9.848 19.261,9.444 19.513,9.042 19.682 C 8.632 19.855,8.048 19.856,7.598 19.685 C 7.171 19.523,6.692 19.242,6.137 18.828 C 5.880 18.636,5.594 18.456,5.502 18.428 C 5.273 18.357,5.026 18.471,4.572 18.853 C 3.929 19.395,3.565 19.576,2.555 19.855 C 1.880 20.042,1.669 20.667,2.131 21.115 C 2.326 21.304,2.509 21.351,2.890 21.307 C 3.624 21.224,4.253 20.955,5.050 20.381 C 5.398 20.130,5.358 20.128,5.787 20.417 C 6.138 20.654,6.765 20.963,7.187 21.107 C 7.969 21.375,8.610 21.385,9.343 21.139 C 9.852 20.969,10.170 20.808,10.727 20.442 L 11.163 20.155 11.543 20.407 C 12.047 20.740,12.276 20.867,12.685 21.040 C 13.874 21.545,15.014 21.363,16.368 20.454 C 16.593 20.303,16.781 20.207,16.823 20.223 C 16.861 20.238,17.045 20.353,17.232 20.479 C 18.509 21.340,19.829 21.546,20.965 21.059 C 21.385 20.879,21.985 20.527,22.320 20.265 C 22.480 20.141,22.634 20.024,22.663 20.006 C 22.694 19.988,22.900 20.131,23.145 20.341 C 23.675 20.794,24.043 21.015,24.513 21.164 C 25.248 21.397,25.629 21.366,25.916 21.049 C 26.138 20.803,26.177 20.585,26.047 20.317 C 25.924 20.064,25.765 19.965,25.198 19.789 C 24.519 19.577,24.189 19.337,23.416 18.491 C 23.269 18.330,23.095 18.178,23.028 18.153 C 22.880 18.096,22.647 18.098,22.502 18.156 " fill="#1A1C1F" stroke="none" fill-rule="evenodd"></path></svg>