<svg xmlns="http://www.w3.org/2000/svg" width="32" height="32" fill="none"><path fill="#1A1C1F" fill-rule="evenodd" d="M16.027 7.662c-5.162.844-6.305 1.044-6.444 1.125-.374.219-.479.543-.367 1.133.092.489.059 1.482-.066 1.947-.098.364-.445 1.116-.596 1.289-.088.102-.373.164-2.279.496-1.198.209-2.302.429-2.452.488-.389.153-.901.534-1.118.832-.523.718-.57.976-.571 3.14-.001 1.684.001 1.715.122 1.943a.95.95 0 0 0 .781.478c.497 0 1.312-.331 1.896-.771.176-.133.542-.46.813-.728l.494-.488.566.546c.649.625 1.306 1.076 1.854 1.273a2.5 2.5 0 0 0 1.748-.028c.576-.228 1.103-.597 1.765-1.237l.573-.554.567.546c1.964 1.891 3.414 1.887 5.39-.016l.552-.531.573.556c.855.831 1.542 1.247 2.291 1.386.711.133 1.413-.078 1.897-.57.148-.15.694-.952 1.287-1.889 1.878-2.969 4.419-7.065 4.495-7.248.121-.288.044-.578-.224-.847-.227-.227-.32-.258-.694-.231-.088.006-1.79.298-3.783.647s-3.628.63-3.634.623c-.006-.006-.19-.252-.409-.545-1.041-1.397-2.212-2.304-3.411-2.641-.385-.109-1.288-.178-1.616-.124m1.117 1.753c.692.18 1.484.735 2.11 1.479.28.332.311.39.228.423-.052.021-1.967.366-4.255.765l-4.39.769c-.201.038-.226.032-.195-.044.177-.44.306-1.164.331-1.85l.026-.75 2.621-.431c1.441-.237 2.753-.434 2.915-.437.163-.003.437.031.609.076m8.216 3.386c.479.295.49 1.049.02 1.399-.115.086-1.597.332-8.319 1.382-5.55.868-8.238 1.268-8.364 1.244-.25-.047-.57-.373-.619-.629-.091-.489.217-.955.681-1.024l8.148-1.28c4.691-.737 7.996-1.234 8.106-1.218.103.015.259.072.347.126m.281 7.969c-.08.042-.332.266-.56.498-.894.909-1.809 1.399-2.618 1.399-.771 0-1.634-.417-2.442-1.18-.644-.608-.972-.615-1.609-.038-.826.749-1.758 1.218-2.419 1.218-.632 0-1.526-.443-2.416-1.196-.702-.595-.952-.6-1.606-.03-.643.56-1.328.974-1.887 1.14-.858.254-1.892-.12-3.189-1.155-.71-.566-.915-.548-1.703.146-.723.636-1.124.827-2.429 1.154-.252.064-.503.314-.583.583-.127.423.197.962.626 1.042.486.092 1.51-.164 2.198-.549.192-.108.519-.323.726-.479s.398-.283.425-.283a.7.7 0 0 1 .213.125c.638.482 1.706.982 2.406 1.127 1.114.23 2.222-.067 3.497-.939.252-.172.473-.313.491-.313.017 0 .219.135.448.299.489.351 1.35.78 1.803.899 1.327.349 2.541.012 4.075-1.13.073-.054.159-.013.536.257 1.249.892 2.618 1.202 3.869.874.528-.138 1.451-.625 1.964-1.037.257-.207.481-.375.497-.375s.189.146.384.326c.833.766 1.795 1.223 2.564 1.219.698-.003 1.141-.614.863-1.189-.135-.278-.368-.421-.879-.54-.742-.172-1.316-.567-1.983-1.368-.196-.234-.423-.46-.506-.503-.192-.1-.567-.101-.756-.002"/></svg>