<svg width="14" height="14" viewBox="0 0 14 14" fill="none" xmlns="http://www.w3.org/2000/svg"><path d="M7.105 2.794 C 6.912 2.806,5.196 3.061,4.305 3.211 C 3.901 3.278,3.800 3.325,3.682 3.495 C 3.606 3.603,3.605 3.609,3.605 3.862 C 3.606 4.003,3.621 4.298,3.639 4.518 C 3.695 5.195,3.620 5.609,3.424 5.700 C 3.382 5.720,3.154 5.774,2.917 5.822 C 2.304 5.944,2.176 5.992,1.921 6.198 C 1.788 6.306,1.598 6.596,1.542 6.777 C 1.482 6.972,1.459 7.457,1.481 8.057 L 1.499 8.519 1.572 8.628 C 1.612 8.688,1.696 8.769,1.760 8.808 C 1.860 8.869,1.900 8.879,2.077 8.886 C 2.542 8.905,2.924 8.725,3.420 8.253 L 3.676 8.009 3.792 8.115 C 4.060 8.358,4.344 8.529,4.654 8.634 C 5.329 8.864,5.910 8.711,6.673 8.103 C 6.795 8.005,6.906 7.917,6.920 7.907 C 6.934 7.896,7.003 7.945,7.092 8.029 C 7.511 8.428,7.913 8.647,8.376 8.728 C 8.632 8.772,8.979 8.695,9.197 8.545 C 9.351 8.440,9.629 8.170,9.788 7.973 C 9.985 7.730,9.974 7.734,10.228 7.795 C 10.617 7.888,10.706 7.825,11.165 7.128 C 11.524 6.584,12.364 5.254,12.451 5.093 C 12.502 4.996,12.509 4.959,12.502 4.807 C 12.496 4.654,12.485 4.618,12.418 4.521 C 12.341 4.409,12.198 4.309,12.062 4.269 C 11.965 4.242,11.754 4.271,10.548 4.481 C 10.029 4.571,9.594 4.641,9.580 4.635 C 9.566 4.630,9.503 4.533,9.440 4.419 C 9.124 3.847,8.745 3.407,8.335 3.135 C 7.981 2.900,7.508 2.769,7.105 2.794 M7.569 4.073 C 7.645 4.110,7.782 4.211,7.873 4.296 C 8.085 4.494,8.364 4.877,8.297 4.877 C 8.291 4.877,7.968 4.934,7.579 5.003 C 7.190 5.073,6.436 5.205,5.903 5.296 C 5.371 5.387,4.913 5.466,4.885 5.472 L 4.836 5.483 4.848 4.906 C 4.854 4.588,4.861 4.326,4.864 4.323 C 4.866 4.320,5.324 4.250,5.881 4.167 C 6.439 4.084,6.927 4.011,6.965 4.005 C 7.003 3.999,7.124 3.997,7.233 4.000 C 7.399 4.004,7.454 4.016,7.569 4.073 M3.459 9.123 C 3.417 9.149,3.283 9.264,3.161 9.378 C 2.722 9.792,2.389 9.994,2.086 10.031 C 1.879 10.056,1.766 10.109,1.641 10.237 C 1.518 10.364,1.486 10.460,1.497 10.675 C 1.504 10.821,1.517 10.862,1.576 10.947 C 1.665 11.073,1.818 11.169,1.988 11.205 C 2.103 11.229,2.154 11.225,2.382 11.180 C 2.801 11.098,3.043 10.986,3.485 10.671 C 3.598 10.590,3.706 10.523,3.724 10.523 C 3.742 10.523,3.847 10.591,3.959 10.673 C 4.245 10.884,4.471 11.008,4.745 11.103 C 4.953 11.175,5.017 11.186,5.268 11.195 C 5.831 11.216,6.162 11.088,6.886 10.572 L 6.994 10.495 7.125 10.601 C 7.622 11.006,8.134 11.212,8.633 11.207 C 9.100 11.202,9.491 11.048,10.053 10.646 C 10.148 10.579,10.239 10.523,10.257 10.523 C 10.275 10.523,10.381 10.592,10.494 10.676 C 10.887 10.970,11.507 11.223,11.832 11.223 C 12.176 11.223,12.460 10.949,12.460 10.617 C 12.460 10.451,12.411 10.334,12.294 10.216 C 12.180 10.102,12.107 10.072,11.795 10.013 C 11.515 9.961,11.263 9.798,10.821 9.386 C 10.683 9.257,10.534 9.135,10.491 9.114 C 10.386 9.065,10.124 9.064,10.020 9.114 C 9.977 9.135,9.833 9.251,9.701 9.373 C 9.384 9.667,9.199 9.804,8.962 9.923 C 8.792 10.008,8.746 10.021,8.623 10.019 C 8.343 10.015,8.042 9.838,7.577 9.407 C 7.426 9.266,7.267 9.135,7.223 9.114 C 7.119 9.065,6.858 9.065,6.753 9.114 C 6.710 9.135,6.567 9.251,6.435 9.374 C 6.112 9.673,5.929 9.809,5.698 9.921 C 5.542 9.997,5.480 10.015,5.372 10.015 C 5.081 10.015,4.775 9.839,4.305 9.402 C 4.151 9.259,3.991 9.127,3.950 9.109 C 3.833 9.059,3.551 9.067,3.459 9.123 " fill="#1A1C1F" stroke="none" fill-rule="evenodd"></path></svg>