<svg xmlns="http://www.w3.org/2000/svg" width="12" height="12" fill="none"><g clip-path="url(#a)"><path fill="#1A1C1F" fill-rule="evenodd" d="M9.185 7.948q.248.256.357.343c.212.17.447.304.637.304a.51.51 0 1 1 0 1.02q-.668 0-1.393-.627-.72.627-1.407.627-.686 0-1.393-.627-.725.626-1.4.626-.673 0-1.4-.626-.718.621-1.39.627a.51.51 0 1 1-.017-1.02c.176.003.412-.117.655-.307a3 3 0 0 0 .37-.347.51.51 0 0 1 .781.007c.066.08.193.212.357.343.211.17.473.305.645.304.172 0 .405-.118.646-.308a3 3 0 0 0 .371-.346.51.51 0 0 1 .78.007c.066.08.194.212.358.343.212.17.466.305.645.304.18 0 .405-.119.646-.308.17-.132.302-.265.371-.346a.51.51 0 0 1 .78.007M7.787 3.304c.182.244.315.486.404.685l1.94-.342a.51.51 0 0 1 .549.722L9.342 6.473c-.13.204-.3.255-.463.237s-.22-.083-.305-.083c-.086 0-.505.866-1.225.866q-.72 0-1.402-.748-.786.748-1.467.748-.682 0-1.34-.633-.647.771-1.361.771c-.26 0-.506-.192-.506-.446L1.269 6.14c0-.507.343-.945.825-1.073l.782-.148c.217-.048.324-.383.247-1.18l-.049-.391a.503.503 0 0 1 .43-.58l2.394-.358c.773-.124 1.405.247 1.889.895m-1.65.104-1.995.295c.037.424.02.738-.023 1.003l3.02-.532c-.372-.616-.7-.78-1.002-.766" clip-rule="evenodd"/></g><defs><clipPath id="a"><path fill="#fff" d="M0 0h12v12H0z"/></clipPath></defs></svg>