<svg xmlns="http://www.w3.org/2000/svg" width="32" height="32" fill="none"><g clip-path="url(#a)"><path fill="#1A1C1F" fill-rule="evenodd" d="M6.94 20.8c.415.4 1.601 1.732 2.559 1.723.957-.01 2.073-1.138 2.474-1.63a1 1 0 0 1 1.552 0c.4.492 1.526 1.64 2.476 1.63s2.098-1.172 2.472-1.63a1 1 0 0 1 1.467-.093c.414.398 1.584 1.725 2.56 1.723.977-.002 2.1-1.171 2.473-1.63a1 1 0 0 1 1.467-.093c.415.398 1.568 1.73 2.559 1.723a1 1 0 0 1 1 1 .994.994 0 0 1-1.006 1q-1.548-.009-3.244-1.558-1.712 1.57-3.248 1.558-1.538-.012-3.252-1.56-1.635 1.554-3.246 1.552-1.613-.003-3.254-1.55-1.72 1.558-3.25 1.558t-3.25-1.557q-1.69 1.557-3.25 1.557a1 1 0 0 1 0-2c.595 0 2.1-1.17 2.473-1.63a1 1 0 0 1 1.469-.092M20.517 9.522c.412.453.747.903 1.004 1.3l7.306-1.283c.815-.143 1.424.702 1.074 1.418l-5.053 8.097a1 1 0 0 1-1.752-.958l1.379-2.213L9.168 18.51a1 1 0 0 1-.452-1.945L25.89 13.61l1.072-1.716-22.23 3.902c-.428.06-.691.308-.73.838L4 19.523a1 1 0 0 1-1.994.117l-.001-3.072c.078-1.482 1.007-2.471 2.244-2.718l4.16-.73c.675-.98.904-2.207.62-3.373a1 1 0 0 1 .696-1.2l6.113-1.01c1.778-.293 3.347.52 4.679 1.984m-4.171-.034-5.21.863a6.2 6.2 0 0 1-.303 2.345l8.493-1.49a8 8 0 0 0-.288-.338c-.865-.95-1.775-1.453-2.692-1.38" clip-rule="evenodd"/></g><defs><clipPath id="a"><path fill="#fff" d="M0 0h32v32H0z"/></clipPath></defs></svg>