<svg width="28" height="28" viewBox="0 0 28 28" fill="none" xmlns="http://www.w3.org/2000/svg"><path d="M11.292 7.019 C 9.867 7.260,8.614 7.481,8.506 7.510 C 8.297 7.566,8.059 7.740,7.969 7.903 C 7.930 7.974,7.917 8.300,7.926 9.007 C 7.933 9.568,7.917 10.120,7.889 10.259 C 7.863 10.397,7.744 10.715,7.625 10.967 L 7.410 11.424 7.123 11.496 C 6.966 11.536,6.133 11.696,5.273 11.851 C 4.413 12.007,3.595 12.168,3.453 12.208 C 3.102 12.309,2.722 12.548,2.445 12.843 C 2.142 13.166,2.046 13.331,1.871 13.829 L 1.727 14.241 1.729 15.369 C 1.731 16.794,1.780 17.422,1.899 17.588 C 1.948 17.655,2.107 17.770,2.253 17.844 C 2.580 18.008,2.831 17.989,3.126 17.775 C 3.450 17.541,3.462 17.479,3.504 15.814 C 3.543 14.235,3.567 14.077,3.784 13.966 C 3.968 13.873,6.176 13.470,14.560 11.998 C 22.122 10.671,23.475 10.439,23.504 10.468 C 23.532 10.496,22.893 11.543,22.707 11.775 C 22.643 11.855,22.529 11.923,22.419 11.947 C 22.319 11.970,19.780 12.410,16.777 12.926 C 8.224 14.395,7.790 14.474,7.389 14.652 C 7.179 14.745,7.080 14.894,7.016 15.216 C 6.945 15.571,7.249 16.045,7.620 16.156 C 7.831 16.220,8.191 16.163,14.747 15.045 C 20.434 14.075,21.278 13.936,21.309 13.967 C 21.325 13.982,21.115 14.359,20.844 14.804 C 20.573 15.248,20.296 15.733,20.228 15.881 C 20.113 16.133,20.109 16.166,20.162 16.390 C 20.242 16.722,20.533 17.013,20.828 17.058 C 21.260 17.123,21.510 16.987,21.830 16.511 C 22.424 15.628,25.847 10.085,26.123 9.558 C 26.281 9.257,26.285 9.239,26.228 9.035 C 26.153 8.765,25.900 8.469,25.684 8.398 C 25.583 8.365,25.421 8.355,25.276 8.373 C 24.970 8.413,22.770 8.782,20.557 9.166 C 19.607 9.331,18.829 9.462,18.827 9.458 C 18.765 9.323,18.055 8.457,17.766 8.165 C 17.055 7.445,16.404 7.009,15.657 6.755 C 15.278 6.625,15.170 6.610,14.560 6.596 C 13.889 6.581,13.861 6.585,11.292 7.019 M15.120 8.428 C 15.430 8.526,15.826 8.765,16.197 9.079 C 16.550 9.377,16.875 9.741,16.829 9.787 C 16.789 9.827,16.311 9.915,12.833 10.524 C 11.127 10.823,9.674 11.078,9.606 11.092 L 9.481 11.117 9.568 10.787 C 9.683 10.348,9.753 9.824,9.753 9.400 C 9.753 9.209,9.767 9.053,9.783 9.053 C 9.799 9.053,10.686 8.905,11.754 8.725 C 14.302 8.294,14.609 8.267,15.120 8.428 M5.157 18.032 C 5.080 18.066,4.828 18.265,4.597 18.475 C 3.835 19.168,3.088 19.619,2.506 19.739 C 1.894 19.865,1.604 20.435,1.871 20.986 C 1.987 21.226,2.262 21.406,2.577 21.449 C 3.116 21.523,4.181 21.098,4.986 20.490 C 5.226 20.308,5.446 20.161,5.476 20.162 C 5.506 20.163,5.740 20.321,5.997 20.514 C 6.825 21.136,7.577 21.436,8.307 21.437 C 9.053 21.439,9.813 21.133,10.656 20.492 L 11.157 20.112 11.470 20.363 C 12.451 21.149,13.098 21.419,14.000 21.419 C 14.902 21.419,15.549 21.149,16.530 20.363 L 16.843 20.112 17.333 20.484 C 17.861 20.885,18.509 21.226,18.993 21.356 C 19.180 21.406,19.468 21.438,19.740 21.439 C 20.118 21.440,20.243 21.419,20.590 21.296 C 21.092 21.119,21.578 20.844,22.123 20.430 L 22.539 20.114 22.908 20.412 C 23.592 20.965,24.291 21.300,25.005 21.419 C 25.571 21.514,25.943 21.370,26.129 20.985 C 26.242 20.753,26.255 20.456,26.162 20.240 C 26.045 19.965,25.864 19.846,25.371 19.717 C 25.120 19.652,24.839 19.568,24.748 19.529 C 24.488 19.421,24.055 19.090,23.506 18.582 C 22.609 17.750,22.449 17.752,21.552 18.597 C 20.744 19.357,20.181 19.693,19.712 19.693 C 19.478 19.693,19.031 19.537,18.779 19.366 C 18.493 19.173,18.140 18.879,17.683 18.454 C 17.168 17.975,16.911 17.880,16.545 18.033 C 16.458 18.069,16.149 18.323,15.859 18.597 C 14.716 19.673,14.123 19.888,13.323 19.513 C 12.954 19.341,12.806 19.226,12.109 18.571 C 11.236 17.749,11.069 17.752,10.171 18.597 C 9.040 19.662,8.415 19.891,7.669 19.515 C 7.335 19.346,7.079 19.147,6.463 18.575 C 5.832 17.990,5.534 17.866,5.157 18.032 " fill="#1A1C1F" stroke="none" fill-rule="evenodd"></path></svg>