<svg xmlns="http://www.w3.org/2000/svg" width="32" height="32" fill="none"><path fill="#1A1C1F" fill-rule="evenodd" d="M15.973 7.524c-.205.027-1.725.275-3.377.55-2.9.483-3.01.505-3.2.657-.328.262-.397.45-.347.949.076.764.052 1.778-.052 2.158-.092.336-.386 1-.527 1.19-.056.075-.533.176-2.294.487-1.847.326-2.281.419-2.56.551-.727.342-1.199.884-1.467 1.686l-.145.435-.002 1.786c-.002 2.02.004 2.055.411 2.351a.97.97 0 0 0 1.217-.042c.338-.284.341-.3.37-2.202.029-1.91.037-1.953.381-2.156.101-.06 3.926-.753 11.339-2.055 6.153-1.08 11.194-1.958 11.202-1.95s-.22.39-.507.849c-.332.532-.56.844-.628.86-.059.014-3.944.685-8.634 1.49-9.486 1.629-8.807 1.481-9.046 1.975-.312.644.159 1.414.864 1.413.126 0 3.648-.587 7.827-1.304s7.608-1.294 7.619-1.282c.012.011-.282.505-.653 1.098-.371.592-.701 1.175-.733 1.296-.11.418.168.962.58 1.134.365.153.844.043 1.117-.256.226-.249 5.187-8.254 5.242-8.461a.8.8 0 0 0 .035-.285 3 3 0 0 1-.055-.218c-.039-.178-.313-.499-.515-.604a1.1 1.1 0 0 0-.406-.077c-.14.001-1.886.288-3.879.639s-3.627.632-3.629.626a34 34 0 0 0-.399-.545c-.771-1.045-1.831-1.961-2.75-2.378a4.6 4.6 0 0 0-2.399-.365m1.464 2.154c.498.211.928.52 1.439 1.035.393.396.437.458.347.495-.057.023-1.903.355-4.103.738s-4.065.71-4.145.726l-.146.029.079-.257c.127-.413.238-1.183.238-1.653l.001-.435.36-.06 2.52-.429c2.49-.426 2.808-.443 3.41-.189M5.84 20.616c-.088.046-.316.236-.507.423-.774.758-1.819 1.417-2.372 1.494-.393.055-.642.204-.805.482-.267.456-.138 1.05.29 1.333.682.451 2.181-.02 3.462-1.089.333-.277.336-.278.459-.182 1.036.807 1.389 1.02 2.064 1.247.623.209 1.087.246 1.652.132.775-.157 1.49-.526 2.302-1.187l.359-.292.388.317c1.049.856 1.873 1.202 2.868 1.202s1.819-.346 2.867-1.201l.386-.316.422.337c.892.714 1.828 1.136 2.658 1.198.961.073 1.982-.365 3.236-1.385l.186-.151.336.28c.789.659 1.536 1.041 2.345 1.2.753.147 1.165.017 1.423-.451.258-.466.098-1.075-.347-1.322-.113-.063-.381-.141-.596-.174-.641-.098-1.184-.439-2.087-1.312-.571-.552-.754-.666-1.068-.666-.354 0-.53.112-1.148.733-1.187 1.191-1.974 1.478-2.858 1.042-.375-.185-.86-.567-1.515-1.193-.497-.474-.683-.583-.997-.579-.35.003-.474.083-1.123.72-1.386 1.36-2.181 1.562-3.288.837-.164-.108-.587-.477-.939-.821-.668-.651-.804-.739-1.146-.739-.344 0-.482.089-1.12.717-.649.639-1.106.97-1.581 1.148-.783.293-1.42.018-2.619-1.13-.335-.321-.69-.618-.79-.659-.236-.099-.597-.096-.797.007"/></svg>