<svg xmlns="http://www.w3.org/2000/svg" width="14" height="14" fill="none"><g clip-path="url(#a)"><path fill="#1A1C1F" fill-rule="evenodd" d="M4.336 9.011c.27.464.567 1.053 1.029 1.053s.758-.59 1.029-1.053a.7.7 0 0 1 1.209 0c.27.463.514 1.053 1.028 1.053.515 0 .76-.59 1.03-1.053a.7.7 0 0 1 1.208 0c.27.462.642 1.053 1.029 1.053a.7.7 0 0 1 .7.7.71.71 0 0 1-.7.7q-.882-.01-1.634-.922-.779.915-1.633.922-.853.005-1.633-.921-.823.92-1.633.92t-1.634-.92q-.795.92-1.633.92a.7.7 0 1 1 0-1.4c.388 0 .759-.588 1.029-1.052a.7.7 0 0 1 1.21 0m2.378-6.436q1.236.185 2.804 1.993l2.25-.423c.563-.106 1.05.492.737 1.037q-.698 1.215-1.4 2.431a.7.7 0 0 1-.956.257.71.71 0 0 1-.257-.956q.317-.556.64-1.113L2.798 7.264v.7a.7.7 0 1 1-1.4 0 58 58 0 0 1 0-.7c0-.708.358-1.223 1.171-1.388l.606-.114q.31-1.96.342-2.237a.71.71 0 0 1 .564-.609q.942-.18 1.885-.357c.245-.04.49-.023.748.016m-.506 1.363q-.264.048-1.362.258l-.182 1.286 3.232-.609C7.22 4.235 6.812 4.02 6.45 3.95c-.073-.014-.128-.03-.243-.012" clip-rule="evenodd"/></g><defs><clipPath id="a"><path fill="#fff" d="M0 0h14v14H0z"/></clipPath></defs></svg>