<svg xmlns="http://www.w3.org/2000/svg" width="20" height="20" fill="none"><g clip-path="url(#a)"><path fill="#1A1C1F" fill-rule="evenodd" d="M15.308 13.246q.414.427.596.572c.353.284.744.507 1.06.507a.85.85 0 0 1 0 1.7q-1.11 0-2.32-1.044-1.203 1.044-2.346 1.044t-2.321-1.044q-1.209 1.042-2.332 1.042-1.124 0-2.334-1.042-1.197 1.035-2.316 1.044a.85.85 0 0 1-.88-.85c0-.433.362-.858.85-.85.294.005.686-.195 1.091-.512.281-.22.503-.443.617-.577a.85.85 0 0 1 1.302.011c.11.133.322.353.594.572.353.283.79.507 1.076.506.286 0 .674-.197 1.077-.513.282-.22.504-.443.619-.577a.85.85 0 0 1 1.3.012c.11.132.323.353.596.572.353.283.777.507 1.075.506.298 0 .674-.198 1.077-.513.281-.22.503-.443.618-.577a.85.85 0 0 1 1.3.011m-2.33-7.74c.304.408.526.81.674 1.142l3.234-.57a.85.85 0 0 1 .914 1.204l-2.23 3.506c-.216.34-.501.425-.772.395-.271-.031-.365-.137-.508-.137s-.842 1.443-2.042 1.443q-1.201 0-2.336-1.247-1.31 1.247-2.446 1.247t-2.233-1.056q-1.078 1.286-2.268 1.286c-.433 0-.844-.32-.844-.744l-.006-1.744A1.85 1.85 0 0 1 3.49 8.443l1.303-.247c.361-.08.54-.638.41-1.967l-.08-.651c-.063-.428.187-.87.715-.965l3.991-.599c1.288-.206 2.341.413 3.147 1.493m-2.749.174-3.326.492c.063.706.034 1.229-.037 1.67l5.032-.885c-.62-1.027-1.166-1.3-1.669-1.277" clip-rule="evenodd"/></g><defs><clipPath id="a"><path fill="#fff" d="M0 0h20v20H0z"/></clipPath></defs></svg>