<svg width="20" height="20" viewBox="0 0 20 20" fill="none" xmlns="http://www.w3.org/2000/svg"><path d="M7.585 3.835 C 5.638 4.204,5.444 4.260,5.253 4.510 C 5.088 4.727,5.042 4.911,4.864 6.083 C 4.792 6.560,4.686 7.237,4.629 7.588 L 4.525 8.226 4.171 8.299 C 3.229 8.492,2.869 8.639,2.539 8.964 C 2.329 9.170,2.134 9.513,2.062 9.800 C 2.030 9.931,2.017 10.222,2.017 10.817 L 2.017 11.650 2.116 11.829 C 2.222 12.021,2.401 12.193,2.595 12.289 C 2.771 12.377,3.235 12.374,3.417 12.284 C 3.600 12.193,3.825 11.961,3.910 11.773 C 3.972 11.636,3.982 11.541,3.994 10.995 L 4.007 10.373 4.129 10.351 C 4.195 10.339,6.192 9.963,8.567 9.515 C 14.632 8.372,14.982 8.307,14.996 8.320 C 15.003 8.326,14.835 8.638,14.621 9.012 C 14.066 9.985,14.017 10.098,14.017 10.383 C 14.018 10.667,14.103 10.865,14.320 11.082 C 14.606 11.367,15.079 11.446,15.444 11.270 C 15.697 11.147,15.869 10.887,16.954 8.993 C 17.869 7.396,17.968 7.204,17.990 6.988 C 18.030 6.605,17.781 6.181,17.417 6.012 C 17.123 5.875,16.943 5.894,14.904 6.282 C 14.273 6.402,13.727 6.500,13.690 6.500 C 13.648 6.500,13.365 6.246,12.920 5.808 C 11.895 4.800,11.348 4.379,10.592 4.017 C 10.152 3.806,9.837 3.713,9.400 3.668 C 8.865 3.612,8.666 3.630,7.585 3.835 M9.599 5.768 C 9.742 5.824,10.015 5.972,10.205 6.098 C 10.548 6.326,11.233 6.882,11.233 6.933 C 11.233 6.947,11.200 6.968,11.158 6.978 C 10.826 7.058,6.848 7.800,6.751 7.800 C 6.680 7.800,6.673 7.788,6.686 7.692 C 6.736 7.326,6.939 6.016,6.947 6.009 C 6.967 5.988,7.615 5.857,8.231 5.749 C 9.003 5.613,9.203 5.616,9.599 5.768 M4.989 12.452 C 4.731 12.546,4.604 12.679,4.233 13.243 C 4.015 13.575,3.781 13.883,3.642 14.024 C 3.399 14.271,3.301 14.319,2.883 14.402 C 2.496 14.478,2.245 14.656,2.094 14.962 C 2.034 15.084,2.018 15.173,2.018 15.383 C 2.019 15.615,2.031 15.673,2.117 15.829 C 2.223 16.023,2.404 16.196,2.595 16.287 C 2.789 16.379,3.172 16.387,3.502 16.304 C 4.039 16.170,4.477 15.903,5.047 15.364 L 5.337 15.089 5.527 15.273 C 6.231 15.956,6.886 16.319,7.483 16.358 C 8.228 16.405,8.855 16.132,9.644 15.418 L 10.004 15.091 10.310 15.390 C 10.694 15.763,10.910 15.925,11.257 16.099 C 11.666 16.304,12.006 16.380,12.416 16.357 C 13.123 16.319,13.685 16.036,14.375 15.372 L 14.666 15.091 15.009 15.422 C 15.549 15.941,15.911 16.155,16.508 16.306 C 16.836 16.389,17.212 16.379,17.417 16.281 C 17.597 16.196,17.803 15.984,17.901 15.782 C 17.966 15.650,17.982 15.566,17.980 15.364 C 17.978 15.048,17.895 14.861,17.660 14.651 C 17.489 14.497,17.422 14.470,16.917 14.353 C 16.784 14.322,16.626 14.258,16.550 14.204 C 16.357 14.066,16.074 13.719,15.718 13.181 C 15.546 12.922,15.349 12.663,15.280 12.606 C 15.004 12.378,14.590 12.334,14.250 12.495 C 13.989 12.618,13.875 12.752,13.536 13.326 C 13.104 14.058,12.815 14.320,12.399 14.358 C 11.909 14.402,11.598 14.138,11.059 13.218 C 10.692 12.591,10.446 12.400,10.002 12.400 C 9.563 12.399,9.301 12.599,8.919 13.225 C 8.499 13.916,8.301 14.140,7.983 14.288 C 7.583 14.475,7.187 14.319,6.809 13.827 C 6.734 13.730,6.551 13.455,6.402 13.217 C 6.090 12.717,5.915 12.537,5.667 12.456 C 5.458 12.389,5.165 12.387,4.989 12.452 " fill="#1A1C1F" stroke="none" fill-rule="evenodd"></path></svg>