<svg xmlns="http://www.w3.org/2000/svg" width="28" height="28" fill="none"><g clip-path="url(#a)"><path fill="#1A1C1F" fill-rule="evenodd" d="M23.309 18.335c.257.332.545.659.725.824.425.39.97.632 1.34.676.44.052.744.337.744.747 0 .411-.333.744-.744.744q-1.34 0-2.662-1.382-1.527 1.383-3.026 1.382-1.497 0-2.905-1.175-1.432 1.175-2.782 1.175t-2.835-1.198q-1.53 1.198-2.852 1.198T5.376 20.13q-1.422 1.197-2.752 1.197a.744.744 0 1 1 0-1.487q.945-.214 1.457-.583c.326-.235.576-.471.704-.615a.747.747 0 0 1 1.063-.048c.307.281.622.498.845.64.501.32 1.116.6 1.619.602.502.001.997-.223 1.545-.592.209-.14.466-.33.783-.63.317-.301.748-.3 1.06.004s.564.488.77.628c.55.375 1.085.594 1.529.594.442 0 .97-.217 1.509-.591.2-.14.447-.305.75-.625a.744.744 0 0 1 1.104.03c.118.137.358.366.687.597.53.372 1.088.589 1.637.589.529 0 1.115-.264 1.697-.718.216-.169.502-.395.794-.757.293-.36.875-.36 1.132-.029M17.855 8.42c.38.419.685.835.911 1.193l6.48-1.137a.744.744 0 0 1 .802 1.048l-2.196 3.523q-1.891 3.03-2.547 4.036c-.656 1.007-1.619.875-1.619.875q-1.29 0-2.843-1.75-1.566 1.75-2.844 1.75t-2.844-1.75q-1.554 1.75-2.843 1.75-1.29 0-2.844-1.75-1.55 1.75-2.844 1.75a.75.75 0 0 1-.744-.744l.005-2.708c-.005-1.151.832-2.053 1.862-2.259l3.687-.646a3.8 3.8 0 0 0 .593-3.103.743.743 0 0 1 .601-.91l5.25-.864c1.504-.246 2.838.445 3.977 1.696M7.58 13.286a.744.744 0 0 0 .228 1.459l14.184-2.217a.744.744 0 0 0-.228-1.458zm6.699-5.115-4.68.762c.084.831-.055 1.64-.321 2.343l7.869-1.381c-1.084-1.398-2.014-1.797-2.868-1.724" clip-rule="evenodd"/></g><defs><clipPath id="a"><path fill="#fff" d="M0 0h28v28H0z"/></clipPath></defs></svg>