<svg width="14" height="14" viewBox="0 0 14 14" fill="none" xmlns="http://www.w3.org/2000/svg"><path d="M5.259 2.694 C 4.199 2.895,4.051 2.929,3.884 3.007 C 3.725 3.081,3.638 3.176,3.581 3.338 C 3.525 3.498,3.504 3.605,3.405 4.258 C 3.354 4.592,3.280 5.066,3.240 5.312 L 3.168 5.758 2.920 5.809 C 2.260 5.945,2.008 6.047,1.777 6.275 C 1.631 6.419,1.494 6.659,1.444 6.860 C 1.421 6.952,1.412 7.155,1.412 7.572 L 1.412 8.155 1.481 8.280 C 1.556 8.415,1.681 8.535,1.817 8.603 C 1.940 8.664,2.264 8.661,2.392 8.599 C 2.520 8.535,2.677 8.373,2.737 8.241 C 2.780 8.145,2.788 8.078,2.796 7.696 L 2.805 7.261 2.890 7.245 C 2.937 7.237,4.251 6.990,5.810 6.696 C 9.955 5.915,10.487 5.816,10.497 5.824 C 10.502 5.829,10.384 6.046,10.235 6.308 C 9.846 6.990,9.812 7.069,9.812 7.268 C 9.812 7.467,9.872 7.605,10.024 7.757 C 10.224 7.957,10.555 8.013,10.811 7.889 C 10.988 7.803,11.104 7.627,11.866 6.298 C 12.508 5.177,12.577 5.043,12.593 4.892 C 12.620 4.627,12.454 4.339,12.201 4.210 C 12.003 4.110,11.878 4.124,10.373 4.409 C 9.964 4.486,9.607 4.550,9.582 4.550 C 9.553 4.550,9.351 4.368,9.044 4.065 C 8.330 3.363,7.944 3.066,7.415 2.812 C 7.107 2.664,6.886 2.599,6.580 2.567 C 6.201 2.528,6.068 2.540,5.259 2.694 M6.495 3.968 C 6.758 4.017,7.089 4.201,7.478 4.515 C 7.780 4.758,7.877 4.847,7.861 4.863 C 7.836 4.888,4.834 5.460,4.727 5.460 C 4.676 5.460,4.671 5.452,4.680 5.384 C 4.715 5.128,4.858 4.211,4.863 4.206 C 4.890 4.179,6.152 3.948,6.290 3.945 C 6.329 3.944,6.421 3.954,6.495 3.968 M3.492 8.716 C 3.311 8.783,3.221 8.876,2.962 9.271 C 2.659 9.731,2.447 9.961,2.274 10.017 C 2.210 10.037,2.095 10.066,2.018 10.081 C 1.747 10.135,1.571 10.259,1.466 10.473 C 1.424 10.559,1.413 10.621,1.413 10.768 C 1.413 10.931,1.422 10.971,1.482 11.080 C 1.556 11.216,1.683 11.337,1.817 11.401 C 1.952 11.466,2.221 11.471,2.452 11.413 C 2.827 11.319,3.134 11.132,3.533 10.755 L 3.736 10.562 3.869 10.691 C 4.213 11.025,4.536 11.247,4.856 11.369 C 5.041 11.440,5.069 11.444,5.355 11.443 C 5.633 11.442,5.676 11.436,5.862 11.371 C 6.138 11.274,6.411 11.097,6.734 10.807 L 7.002 10.565 7.219 10.775 C 7.483 11.030,7.662 11.164,7.890 11.277 C 8.248 11.454,8.610 11.498,8.977 11.410 C 9.359 11.319,9.664 11.138,10.037 10.784 L 10.267 10.565 10.507 10.796 C 10.883 11.158,11.174 11.326,11.590 11.424 C 11.790 11.471,12.062 11.459,12.192 11.397 C 12.318 11.337,12.462 11.188,12.531 11.048 C 12.576 10.955,12.587 10.896,12.586 10.755 C 12.585 10.533,12.526 10.403,12.362 10.255 C 12.242 10.148,12.195 10.129,11.842 10.047 C 11.749 10.026,11.638 9.981,11.585 9.943 C 11.448 9.845,11.247 9.598,11.002 9.226 C 10.883 9.046,10.746 8.865,10.697 8.825 C 10.503 8.665,10.213 8.633,9.975 8.746 C 9.792 8.833,9.712 8.926,9.474 9.330 C 9.174 9.839,8.970 10.024,8.679 10.051 C 8.327 10.082,8.120 9.900,7.698 9.184 C 7.474 8.804,7.303 8.680,7.002 8.680 C 6.694 8.680,6.510 8.820,6.243 9.258 C 5.949 9.741,5.811 9.898,5.588 10.002 C 5.349 10.114,5.128 10.057,4.900 9.825 C 4.763 9.685,4.678 9.566,4.363 9.070 C 4.240 8.874,4.120 8.769,3.964 8.719 C 3.821 8.672,3.615 8.671,3.492 8.716 " fill="#1A1C1F" stroke="none" fill-rule="evenodd"></path></svg>