<svg xmlns="http://www.w3.org/2000/svg" width="16" height="16" fill="none"><g clip-path="url(#a)"><path fill="#1A1C1F" fill-rule="evenodd" d="M12.246 10.597q.332.342.477.458c.283.226.595.405.849.405a.68.68 0 0 1 0 1.36q-.89 0-1.857-.835-.962.835-1.876.835-.915 0-1.858-.835-.966.834-1.865.834-.9 0-1.867-.834-.959.828-1.853.835a.68.68 0 0 1-.704-.68c0-.347.29-.687.68-.68.235.004.549-.156.873-.41.225-.176.402-.354.494-.461a.68.68 0 0 1 1.041.009c.087.106.258.282.476.457.282.227.63.406.86.405.229 0 .54-.158.862-.41a3.7 3.7 0 0 0 .494-.462.68.68 0 0 1 1.041.01c.088.105.258.282.476.457.283.226.622.406.86.405.24 0 .54-.158.862-.41a3.7 3.7 0 0 0 .495-.462.68.68 0 0 1 1.04.01m-1.864-6.192c.243.326.421.648.54.913l2.586-.456a.68.68 0 0 1 .732.964L12.456 8.63c-.173.271-.401.34-.618.315s-.291-.11-.406-.11-.674 1.155-1.634 1.155q-.96 0-1.869-.998-1.047.999-1.956.998-.91 0-1.787-.845-.863 1.029-1.814 1.029c-.347 0-.675-.256-.675-.595l-.005-1.395c0-.676.457-1.26 1.1-1.43l1.043-.198c.29-.064.432-.51.329-1.574l-.065-.52a.67.67 0 0 1 .572-.773l3.193-.478c1.03-.166 1.873.33 2.518 1.193m-2.199.139-2.66.393c.05.565.027.984-.03 1.337l4.026-.709c-.496-.82-.934-1.04-1.336-1.021" clip-rule="evenodd"/></g><defs><clipPath id="a"><path fill="#fff" d="M0 0h16v16H0z"/></clipPath></defs></svg>