<svg width="12" height="12" viewBox="0 0 12 12" fill="none" xmlns="http://www.w3.org/2000/svg"><path d="M4.508 2.309 C 3.599 2.482,3.472 2.511,3.330 2.577 C 3.193 2.641,3.119 2.722,3.069 2.861 C 3.020 3.000,3.006 3.080,2.891 3.828 C 2.831 4.214,2.767 4.621,2.748 4.733 L 2.715 4.936 2.502 4.979 C 1.937 5.095,1.721 5.184,1.523 5.378 C 1.403 5.497,1.285 5.699,1.238 5.870 C 1.217 5.944,1.210 6.105,1.210 6.480 C 1.210 6.971,1.212 6.993,1.255 7.074 C 1.322 7.200,1.405 7.285,1.524 7.351 C 1.618 7.403,1.649 7.410,1.800 7.410 C 2.001 7.410,2.084 7.376,2.217 7.244 C 2.369 7.093,2.387 7.025,2.396 6.597 L 2.404 6.224 2.517 6.203 C 2.579 6.192,3.849 5.953,5.340 5.672 C 8.892 5.002,8.989 4.984,8.998 4.992 C 9.002 4.996,8.901 5.183,8.773 5.407 C 8.440 5.990,8.410 6.059,8.410 6.230 C 8.410 6.631,8.798 6.907,9.195 6.790 C 9.386 6.733,9.464 6.625,10.046 5.616 C 10.491 4.844,10.739 4.397,10.771 4.306 C 10.861 4.055,10.711 3.728,10.450 3.607 C 10.274 3.525,10.173 3.536,8.891 3.779 C 8.540 3.846,8.235 3.900,8.213 3.900 C 8.189 3.900,8.013 3.742,7.752 3.485 C 7.137 2.880,6.809 2.627,6.355 2.410 C 6.091 2.283,5.902 2.228,5.640 2.201 C 5.315 2.167,5.201 2.177,4.508 2.309 M5.735 3.451 C 5.892 3.510,6.100 3.629,6.270 3.757 C 6.445 3.889,6.740 4.143,6.740 4.160 C 6.740 4.181,6.745 4.180,6.020 4.318 C 4.829 4.546,4.098 4.680,4.050 4.680 C 4.008 4.680,4.004 4.673,4.011 4.615 C 4.042 4.396,4.164 3.610,4.168 3.605 C 4.180 3.593,4.569 3.514,4.938 3.449 C 5.388 3.370,5.520 3.370,5.735 3.451 M2.993 7.471 C 2.838 7.528,2.761 7.608,2.539 7.947 C 2.280 8.341,2.097 8.538,1.949 8.586 C 1.894 8.603,1.796 8.628,1.730 8.641 C 1.497 8.687,1.347 8.794,1.257 8.977 C 1.193 9.107,1.192 9.352,1.256 9.474 C 1.321 9.599,1.404 9.685,1.524 9.751 C 1.622 9.805,1.646 9.810,1.830 9.810 C 2.242 9.809,2.582 9.641,3.031 9.216 L 3.202 9.053 3.316 9.164 C 3.739 9.574,4.131 9.791,4.490 9.815 C 4.937 9.843,5.313 9.679,5.786 9.251 L 6.002 9.055 6.186 9.234 C 6.416 9.458,6.546 9.555,6.754 9.659 C 7.000 9.782,7.204 9.828,7.450 9.814 C 7.874 9.791,8.211 9.621,8.625 9.223 L 8.800 9.055 9.006 9.253 C 9.329 9.565,9.547 9.693,9.905 9.784 C 10.108 9.835,10.330 9.827,10.450 9.765 C 10.551 9.714,10.712 9.543,10.754 9.445 C 10.773 9.400,10.787 9.309,10.788 9.220 C 10.789 9.032,10.739 8.919,10.596 8.790 C 10.494 8.698,10.453 8.682,10.150 8.612 C 10.070 8.593,9.975 8.555,9.930 8.522 C 9.814 8.440,9.650 8.238,9.434 7.912 C 9.330 7.755,9.210 7.598,9.168 7.564 C 8.957 7.390,8.619 7.400,8.407 7.587 C 8.350 7.637,8.256 7.771,8.136 7.973 C 7.859 8.438,7.692 8.592,7.439 8.615 C 7.138 8.642,6.960 8.486,6.598 7.872 C 6.406 7.546,6.259 7.440,6.001 7.440 C 5.738 7.440,5.580 7.560,5.352 7.935 C 5.099 8.349,4.981 8.484,4.790 8.573 C 4.550 8.685,4.312 8.592,4.085 8.296 C 4.040 8.238,3.931 8.073,3.841 7.930 C 3.654 7.630,3.549 7.522,3.400 7.474 C 3.275 7.433,3.099 7.432,2.993 7.471 " fill="#1A1C1F" stroke="none" fill-rule="evenodd"></path></svg>