<svg xmlns="http://www.w3.org/2000/svg" width="24" height="24" fill="none"><g clip-path="url(#a)"><path fill="#1A1C1F" fill-rule="evenodd" d="M12.061 16.283c.314.266.659.482.82.577.5.295 1.1.553 1.618.553s1.1-.22 1.668-.554c.268-.158.44-.265.822-.577.383-.313.901-.274 1.209.088.13.154.39.41.735.665.48.355 1.097.63 1.566.63a.85.85 0 1 1 0 1.7q-1.51 0-3.024-1.323-1.671 1.104-3.011 1.07t-2.98-1.13q-1.706 1.13-3.069 1.13t-2.939-1.065q-1.547 1.319-2.977 1.319a.85.85 0 0 1 0-1.7c.47 0 .976-.232 1.523-.633.353-.26.626-.52.767-.678.318-.357.854-.373 1.216-.055.361.318.565.443.768.567.561.345 1.143.546 1.642.546.5 0 1.138-.269 1.66-.562a7 7 0 0 0 .886-.588.86.86 0 0 1 1.1.02M10.357 4.665c1.22-.207 2.972.656 3.927 1.814.39.473.678.942.865 1.344l6.19-1.142a.85.85 0 0 1 .96 1.124l-3.02 6.118c-.218.484-.858.665-1.242.36a5.6 5.6 0 0 1-.581-.511q-1.47 1.593-2.957 1.594-1.488 0-3-1.569-1.553 1.568-3 1.569-1.446 0-3.001-1.567-1.533 1.567-2.999 1.567c-.462 0-.85-.414-.843-.744l-.007-3.607c0-.373.238-.724.59-.809q.351-.085 2.84-.528c.495-.347.788-1.747.578-3.298a.86.86 0 0 1 .684-.95zm8.631 5.186a.85.85 0 0 0-.893-.684L7.777 11.21a.85.85 0 0 0 .327 1.655l10.319-2.042a.85.85 0 0 0 .565-.971M7.417 6.956c.047.85-.024 1.673-.204 2.328l6.176-1.14c-.83-1.339-2.01-1.906-2.867-1.777z" clip-rule="evenodd"/></g><defs><clipPath id="a"><path fill="#fff" d="M0 0h24v24H0z"/></clipPath></defs></svg>