<svg xmlns="http://www.w3.org/2000/svg" width="14" height="14" fill="none"><g clip-path="url(#a)"><path fill="#1A1C1F" fill-rule="evenodd" d="M10.715 9.272q.29.3.418.401c.247.198.52.355.742.355a.595.595 0 1 1 0 1.19q-.778 0-1.624-.731-.843.73-1.642.73-.8 0-1.625-.73-.846.73-1.633.73t-1.633-.73q-.84.724-1.622.73a.594.594 0 1 1-.02-1.19c.205.004.48-.136.763-.358.197-.154.352-.31.432-.404a.595.595 0 0 1 .912.008c.076.093.225.247.416.4.246.198.552.355.752.354.2 0 .472-.137.755-.358.197-.155.352-.31.432-.404a.595.595 0 0 1 .911.008c.077.092.226.247.417.4.247.198.544.355.752.354.21 0 .472-.138.754-.358.197-.155.353-.31.433-.404a.595.595 0 0 1 .91.007m-1.63-5.417c.212.285.368.567.471.799l2.264-.4a.595.595 0 0 1 .64.844L10.9 7.552c-.152.238-.352.297-.542.276-.19-.022-.255-.096-.355-.096s-.59 1.01-1.43 1.01q-.84 0-1.635-.873-.916.873-1.712.873t-1.563-.739q-.754.9-1.588.9c-.303 0-.59-.224-.59-.52L1.48 7.162c0-.592.4-1.103.963-1.252l.913-.173c.253-.056.377-.447.287-1.377l-.056-.456a.587.587 0 0 1 .5-.675l2.794-.419c.901-.145 1.639.289 2.203 1.045m-1.925.12-2.328.345c.044.495.024.86-.026 1.17l3.523-.62c-.434-.719-.817-.91-1.169-.894" clip-rule="evenodd"/></g><defs><clipPath id="a"><path fill="#fff" d="M0 0h14v14H0z"/></clipPath></defs></svg>