<svg xmlns="http://www.w3.org/2000/svg" width="20" height="20" fill="none"><g clip-path="url(#a)"><path fill="#1A1C1F" fill-rule="evenodd" d="M6.195 12.874c.386.662.809 1.503 1.469 1.503s1.084-.843 1.47-1.504a1 1 0 0 1 1.727 0c.386.661.735 1.504 1.47 1.504s1.084-.843 1.47-1.504a1 1 0 0 1 1.726 0c.387.66.918 1.504 1.47 1.504a1 1 0 0 1 1 1c0 .513-.432 1.006-1 1q-1.26-.014-2.334-1.317-1.114 1.31-2.332 1.317-1.22.007-2.334-1.316-1.176 1.316-2.333 1.316T5.33 15.062q-1.134 1.315-2.333 1.315a1 1 0 1 1 0-2c.555 0 1.084-.841 1.47-1.503a1 1 0 0 1 1.728 0M9.59 3.678q1.766.265 4.006 2.848l3.215-.605c.803-.151 1.499.703 1.052 1.482q-.998 1.737-2 3.473a1 1 0 0 1-1.366.367 1.01 1.01 0 0 1-.367-1.365q.453-.795.914-1.59L3.997 10.377v1a1 1 0 1 1-2 0 83 83 0 0 1 0-1c0-1.01.511-1.747 1.673-1.983q.434-.08.865-.162.444-2.8.489-3.197c.045-.395.353-.781.807-.869q1.344-.258 2.692-.51c.35-.057.7-.033 1.068.022m-.723 1.947q-.375.069-1.945.369l-.26 1.837 4.616-.87c-.965-.91-1.548-1.22-2.063-1.319-.105-.02-.184-.042-.348-.017" clip-rule="evenodd"/></g><defs><clipPath id="a"><path fill="#fff" d="M0 0h20v20H0z"/></clipPath></defs></svg>