<svg width="16" height="16" viewBox="0 0 16 16" fill="none" xmlns="http://www.w3.org/2000/svg"><path d="M8.120 3.193 C 7.904 3.207,6.735 3.379,5.253 3.616 C 4.404 3.751,4.367 3.765,4.204 3.999 C 4.122 4.117,4.120 4.127,4.121 4.413 C 4.121 4.575,4.138 4.912,4.159 5.164 C 4.223 5.937,4.137 6.410,3.913 6.515 C 3.865 6.537,3.605 6.599,3.333 6.653 C 3.062 6.707,2.770 6.775,2.685 6.803 C 2.258 6.946,1.906 7.310,1.758 7.761 C 1.695 7.956,1.693 7.978,1.695 8.829 L 1.696 9.697 1.769 9.821 C 1.988 10.196,2.435 10.266,3.075 10.026 C 3.305 9.940,3.581 9.743,3.909 9.432 L 4.201 9.153 4.334 9.274 C 4.771 9.671,5.272 9.912,5.786 9.975 C 6.347 10.043,6.926 9.818,7.626 9.260 C 7.766 9.149,7.893 9.049,7.908 9.037 C 7.925 9.024,8.005 9.081,8.108 9.179 C 8.816 9.854,9.600 10.128,10.205 9.913 C 10.310 9.875,10.440 9.815,10.494 9.778 C 10.679 9.652,10.940 9.404,11.141 9.162 C 11.421 8.825,11.394 8.837,11.688 8.908 C 12.134 9.014,12.234 8.943,12.760 8.147 C 13.159 7.543,14.131 6.004,14.231 5.817 C 14.288 5.710,14.296 5.666,14.288 5.493 C 14.281 5.319,14.268 5.277,14.192 5.167 C 14.104 5.040,13.941 4.924,13.789 4.881 C 13.678 4.849,13.376 4.891,12.066 5.120 C 11.469 5.224,10.966 5.304,10.950 5.298 C 10.933 5.292,10.861 5.180,10.789 5.050 C 10.438 4.414,9.985 3.888,9.528 3.584 C 9.121 3.314,8.582 3.165,8.120 3.193 M8.653 4.655 C 8.851 4.752,9.219 5.109,9.393 5.373 C 9.461 5.476,9.513 5.562,9.510 5.565 C 9.503 5.572,7.243 5.970,6.360 6.119 C 5.964 6.186,5.615 6.247,5.583 6.254 L 5.527 6.266 5.540 5.606 C 5.547 5.244,5.556 4.944,5.558 4.941 C 5.561 4.938,6.042 4.864,6.628 4.776 C 7.214 4.689,7.771 4.605,7.867 4.591 C 7.962 4.576,8.142 4.567,8.267 4.570 C 8.455 4.576,8.520 4.590,8.653 4.655 M3.954 10.426 C 3.906 10.455,3.744 10.595,3.594 10.736 C 3.107 11.194,2.731 11.420,2.383 11.464 C 1.946 11.519,1.707 11.759,1.707 12.143 C 1.707 12.347,1.745 12.457,1.863 12.592 C 1.996 12.743,2.183 12.812,2.453 12.808 C 2.931 12.801,3.407 12.607,4.023 12.167 C 4.131 12.090,4.236 12.027,4.256 12.027 C 4.276 12.027,4.397 12.104,4.524 12.198 C 4.851 12.439,5.110 12.581,5.422 12.689 C 5.660 12.771,5.733 12.784,6.020 12.795 C 6.664 12.818,7.043 12.672,7.870 12.082 L 7.994 11.994 8.142 12.115 C 8.711 12.579,9.296 12.814,9.867 12.808 C 10.399 12.803,10.847 12.626,11.491 12.167 C 11.599 12.090,11.704 12.027,11.724 12.027 C 11.743 12.027,11.864 12.105,11.993 12.201 C 12.442 12.537,13.150 12.827,13.522 12.827 C 14.037 12.827,14.387 12.305,14.177 11.851 C 14.066 11.613,13.915 11.525,13.480 11.444 C 13.160 11.384,12.872 11.198,12.367 10.727 C 12.209 10.580,12.039 10.440,11.989 10.416 C 11.870 10.360,11.571 10.359,11.453 10.415 C 11.404 10.439,11.240 10.572,11.089 10.711 C 10.726 11.044,10.511 11.205,10.260 11.332 C 9.983 11.473,9.858 11.489,9.632 11.415 C 9.325 11.314,9.054 11.124,8.584 10.680 C 8.457 10.560,8.311 10.443,8.260 10.418 C 8.136 10.360,7.839 10.358,7.718 10.416 C 7.669 10.439,7.505 10.573,7.354 10.713 C 6.984 11.056,6.776 11.211,6.509 11.340 C 6.326 11.429,6.258 11.448,6.136 11.447 C 5.804 11.444,5.454 11.241,4.920 10.745 C 4.744 10.581,4.561 10.431,4.514 10.410 C 4.381 10.353,4.059 10.362,3.954 10.426 " fill="#1A1C1F" stroke="none" fill-rule="evenodd"></path></svg>