<svg width="12" height="12" viewBox="0 0 12 12" fill="none" xmlns="http://www.w3.org/2000/svg"><path d="M6.070 2.396 C 5.942 2.403,4.946 2.551,4.070 2.691 C 3.290 2.816,3.261 2.826,3.144 3.021 C 3.078 3.129,3.078 3.131,3.086 3.340 C 3.091 3.456,3.106 3.700,3.121 3.883 C 3.155 4.305,3.132 4.584,3.049 4.753 C 3.010 4.833,2.978 4.871,2.933 4.890 C 2.898 4.904,2.704 4.949,2.500 4.990 C 2.296 5.030,2.078 5.081,2.013 5.103 C 1.694 5.209,1.430 5.483,1.319 5.821 C 1.271 5.967,1.270 5.984,1.271 6.621 L 1.272 7.273 1.326 7.366 C 1.492 7.648,1.824 7.700,2.306 7.520 C 2.479 7.455,2.686 7.307,2.931 7.074 L 3.150 6.865 3.260 6.965 C 3.375 7.069,3.633 7.246,3.770 7.315 C 3.913 7.387,4.159 7.459,4.337 7.482 C 4.752 7.535,5.195 7.363,5.720 6.945 C 5.824 6.862,5.920 6.786,5.931 6.778 C 5.944 6.768,6.004 6.811,6.081 6.884 C 6.352 7.143,6.643 7.327,6.920 7.416 C 7.221 7.513,7.407 7.517,7.660 7.431 C 7.879 7.357,8.101 7.178,8.355 6.872 C 8.556 6.630,8.556 6.630,8.774 6.682 C 9.099 6.761,9.178 6.704,9.570 6.110 C 9.878 5.644,10.598 4.504,10.672 4.365 C 10.716 4.283,10.722 4.250,10.717 4.119 C 10.711 3.984,10.703 3.959,10.640 3.872 C 10.597 3.812,10.528 3.751,10.463 3.714 C 10.298 3.621,10.285 3.622,8.923 3.862 C 8.545 3.928,8.225 3.979,8.213 3.974 C 8.200 3.969,8.146 3.885,8.092 3.787 C 7.565 2.833,6.861 2.349,6.070 2.396 M6.490 3.491 C 6.646 3.570,6.864 3.777,7.016 3.991 C 7.085 4.087,7.138 4.169,7.135 4.172 C 7.128 4.179,5.557 4.456,4.770 4.589 C 4.473 4.640,4.211 4.685,4.188 4.690 L 4.145 4.700 4.155 4.205 C 4.161 3.933,4.166 3.708,4.168 3.706 C 4.169 3.704,4.535 3.648,4.980 3.582 C 5.426 3.516,5.844 3.453,5.910 3.442 C 5.976 3.431,6.107 3.425,6.202 3.427 C 6.347 3.431,6.392 3.441,6.490 3.491 M2.965 7.820 C 2.930 7.841,2.808 7.946,2.695 8.052 C 2.330 8.396,2.048 8.565,1.787 8.598 C 1.615 8.619,1.516 8.664,1.414 8.766 C 1.312 8.868,1.280 8.950,1.280 9.110 C 1.280 9.261,1.309 9.343,1.397 9.444 C 1.590 9.663,2.022 9.662,2.495 9.440 C 2.684 9.351,2.790 9.287,3.017 9.125 C 3.098 9.067,3.176 9.020,3.190 9.020 C 3.205 9.020,3.314 9.090,3.433 9.175 C 3.701 9.366,3.838 9.440,4.081 9.522 C 4.242 9.577,4.306 9.588,4.515 9.596 C 4.997 9.614,5.282 9.504,5.903 9.062 L 5.995 8.996 6.107 9.087 C 6.534 9.434,6.972 9.610,7.400 9.606 C 7.799 9.602,8.135 9.470,8.618 9.125 C 8.699 9.067,8.778 9.020,8.793 9.020 C 8.807 9.020,8.898 9.079,8.995 9.151 C 9.331 9.403,9.863 9.620,10.142 9.620 C 10.437 9.620,10.680 9.385,10.680 9.100 C 10.680 8.958,10.638 8.857,10.538 8.756 C 10.440 8.658,10.378 8.633,10.110 8.583 C 9.870 8.538,9.654 8.399,9.275 8.045 C 9.157 7.935,9.029 7.830,8.992 7.812 C 8.902 7.770,8.678 7.770,8.589 7.812 C 8.551 7.830,8.429 7.930,8.316 8.034 C 7.846 8.469,7.540 8.633,7.298 8.582 C 7.065 8.531,6.841 8.386,6.474 8.043 C 6.356 7.934,6.229 7.830,6.192 7.812 C 6.102 7.770,5.878 7.770,5.789 7.812 C 5.751 7.830,5.629 7.930,5.516 8.035 C 5.239 8.291,5.082 8.408,4.884 8.504 C 4.750 8.569,4.697 8.584,4.604 8.584 C 4.355 8.584,4.093 8.434,3.690 8.059 C 3.558 7.936,3.421 7.823,3.386 7.808 C 3.286 7.765,3.044 7.772,2.965 7.820 " fill="#1A1C1F" stroke="none" fill-rule="evenodd"></path></svg>