<svg width="16" height="16" viewBox="0 0 16 16" fill="none" xmlns="http://www.w3.org/2000/svg"><path d="M6.413 3.003 C 4.773 3.316,4.587 3.357,4.423 3.444 C 4.102 3.615,4.067 3.710,3.891 4.867 C 3.834 5.248,3.749 5.790,3.703 6.071 L 3.620 6.581 3.337 6.639 C 2.583 6.794,2.295 6.911,2.031 7.171 C 1.866 7.335,1.738 7.552,1.662 7.800 C 1.620 7.937,1.613 8.056,1.613 8.640 L 1.613 9.320 1.692 9.463 C 1.778 9.617,1.921 9.754,2.076 9.831 C 2.217 9.901,2.588 9.899,2.733 9.827 C 2.880 9.755,3.060 9.569,3.128 9.419 C 3.178 9.309,3.186 9.233,3.195 8.793 C 3.201 8.518,3.213 8.293,3.223 8.293 C 3.232 8.294,4.926 7.976,6.987 7.587 C 11.881 6.665,11.985 6.646,11.997 6.656 C 12.003 6.661,11.868 6.910,11.697 7.210 C 11.253 7.988,11.213 8.079,11.214 8.307 C 11.214 8.534,11.283 8.692,11.456 8.865 C 11.685 9.094,12.063 9.157,12.356 9.015 C 12.559 8.917,12.738 8.643,13.659 7.027 C 14.316 5.873,14.375 5.758,14.392 5.591 C 14.424 5.284,14.225 4.945,13.934 4.810 C 13.699 4.700,13.554 4.715,11.923 5.026 C 11.419 5.122,10.982 5.200,10.952 5.200 C 10.918 5.200,10.692 4.997,10.336 4.647 C 9.516 3.840,9.078 3.503,8.474 3.213 C 8.122 3.045,7.870 2.971,7.520 2.934 C 7.123 2.892,6.928 2.905,6.413 3.003 M7.421 4.535 C 7.596 4.567,7.811 4.657,8.040 4.794 C 8.312 4.956,9.016 5.526,8.984 5.558 C 8.963 5.580,8.601 5.651,6.953 5.961 C 6.135 6.114,5.437 6.240,5.402 6.240 C 5.344 6.240,5.338 6.231,5.349 6.153 C 5.389 5.861,5.552 4.813,5.558 4.807 C 5.589 4.776,7.031 4.512,7.188 4.508 C 7.233 4.507,7.338 4.519,7.421 4.535 M3.991 9.961 C 3.785 10.037,3.684 10.143,3.386 10.594 C 3.212 10.860,3.025 11.107,2.914 11.219 C 2.719 11.417,2.641 11.455,2.307 11.521 C 1.997 11.583,1.796 11.725,1.676 11.970 C 1.627 12.067,1.615 12.138,1.615 12.307 C 1.615 12.492,1.625 12.539,1.693 12.663 C 1.778 12.818,1.923 12.957,2.076 13.030 C 2.231 13.104,2.538 13.109,2.802 13.043 C 3.231 12.936,3.581 12.723,4.037 12.291 L 4.270 12.071 4.422 12.219 C 4.815 12.600,5.184 12.853,5.550 12.993 C 5.761 13.074,5.793 13.079,6.120 13.078 C 6.437 13.077,6.486 13.070,6.700 12.995 C 7.014 12.885,7.327 12.682,7.696 12.350 L 8.003 12.073 8.248 12.313 C 8.672 12.726,9.013 12.935,9.442 13.044 C 9.625 13.090,9.715 13.098,9.933 13.086 C 10.499 13.055,10.948 12.829,11.500 12.297 L 11.733 12.073 12.007 12.337 C 12.438 12.752,12.770 12.944,13.246 13.056 C 13.482 13.111,13.787 13.096,13.934 13.021 C 14.078 12.946,14.304 12.702,14.348 12.572 C 14.368 12.514,14.383 12.383,14.382 12.280 C 14.381 12.042,14.308 11.882,14.127 11.720 C 13.992 11.598,13.938 11.576,13.534 11.482 C 13.432 11.459,13.301 11.406,13.243 11.366 C 13.093 11.262,12.861 10.977,12.574 10.544 C 12.437 10.337,12.279 10.130,12.224 10.085 C 11.942 9.853,11.492 9.867,11.208 10.117 C 11.133 10.183,11.010 10.355,10.867 10.597 C 10.744 10.804,10.587 11.043,10.520 11.128 C 10.267 11.447,9.944 11.562,9.618 11.451 C 9.378 11.369,9.171 11.128,8.798 10.496 C 8.541 10.062,8.346 9.920,8.002 9.920 C 7.647 9.920,7.445 10.073,7.138 10.577 C 6.726 11.255,6.475 11.485,6.145 11.491 C 5.799 11.498,5.571 11.293,5.122 10.573 C 4.880 10.187,4.728 10.026,4.542 9.963 C 4.390 9.911,4.130 9.910,3.991 9.961 " fill="#1A1C1F" stroke="none" fill-rule="evenodd"></path></svg>