<svg xmlns="http://www.w3.org/2000/svg" width="12" height="12" fill="none"><g clip-path="url(#a)"><path fill="#1A1C1F" fill-rule="evenodd" d="M3.717 7.724c.231.398.485.902.881.902.397 0 .65-.505.882-.902a.6.6 0 0 1 1.037 0c.231.397.44.902.881.902s.65-.506.882-.902a.6.6 0 0 1 1.036 0c.232.396.55.902.882.902a.6.6 0 0 1 .6.6c0 .308-.259.604-.6.6q-.755-.008-1.4-.79-.668.786-1.4.79-.73.005-1.4-.79-.705.79-1.4.79-.694 0-1.4-.789-.68.79-1.4.79a.6.6 0 0 1 0-1.2c.333 0 .65-.505.882-.903a.6.6 0 0 1 1.037 0m2.038-5.517q1.059.16 2.403 1.709l1.93-.363c.481-.091.899.422.63.889q-.598 1.043-1.2 2.084a.6.6 0 0 1-.819.22.607.607 0 0 1-.22-.82q.272-.477.548-.953L2.398 6.226v.6a.6.6 0 0 1-1.2 0v-.6c0-.606.307-1.048 1.004-1.19q.26-.047.52-.097a89 89 0 0 0 .292-1.918.61.61 0 0 1 .484-.521 338 338 0 0 1 1.616-.307c.21-.033.42-.02.64.014M5.32 3.375q-.226.041-1.167.221L3.997 4.7l2.77-.522c-.578-.547-.928-.732-1.237-.792-.063-.012-.11-.025-.209-.01" clip-rule="evenodd"/></g><defs><clipPath id="a"><path fill="#fff" d="M0 0h12v12H0z"/></clipPath></defs></svg>