<svg xmlns="http://www.w3.org/2000/svg" width="16" height="16" fill="none"><g clip-path="url(#a)"><path fill="#1A1C1F" fill-rule="evenodd" d="M4.956 10.299c.308.53.647 1.203 1.175 1.203s.867-.675 1.176-1.204a.8.8 0 0 1 1.382 0c.309.53.588 1.204 1.176 1.204.587 0 .867-.675 1.175-1.204a.8.8 0 0 1 1.382 0c.309.529.734 1.204 1.176 1.204a.8.8 0 0 1 .8.8c0 .41-.346.804-.8.8q-1.009-.012-1.867-1.054-.891 1.048-1.866 1.053-.976.007-1.867-1.052-.942 1.053-1.867 1.053-.926 0-1.867-1.053-.907 1.053-1.866 1.053a.8.8 0 0 1 0-1.6c.443 0 .867-.673 1.175-1.203a.8.8 0 0 1 1.383 0m2.717-7.357q1.412.212 3.205 2.279l2.572-.484c.642-.121 1.199.562.841 1.185q-.798 1.39-1.6 2.779a.8.8 0 0 1-1.092.294.81.81 0 0 1-.294-1.093q.363-.636.731-1.272L3.198 8.301v.8a.8.8 0 1 1-1.6 0 67 67 0 0 1 0-.8c0-.808.408-1.397 1.338-1.586q.347-.064.692-.13.355-2.24.39-2.557a.81.81 0 0 1 .647-.695q1.074-.207 2.154-.409c.28-.045.56-.026.854.018M7.095 4.5q-.301.055-1.556.295l-.21 1.47 3.694-.696c-.772-.729-1.238-.976-1.65-1.055-.084-.016-.147-.034-.278-.014" clip-rule="evenodd"/></g><defs><clipPath id="a"><path fill="#fff" d="M0 0h16v16H0z"/></clipPath></defs></svg>