<svg xmlns="http://www.w3.org/2000/svg" width="28" height="28" fill="none"><g clip-path="url(#a)"><path fill="#1A1C1F" fill-rule="evenodd" d="M6.073 18.2c.363.35 1.4 1.516 2.239 1.508.837-.009 1.814-.996 2.164-1.427a.875.875 0 0 1 1.358 0c.35.43 1.336 1.435 2.167 1.427s1.836-1.025 2.163-1.427a.875.875 0 0 1 1.283-.081c.363.348 1.387 1.51 2.241 1.508s1.836-1.025 2.163-1.427a.875.875 0 0 1 1.284-.08c.363.348 1.372 1.512 2.239 1.506.483 0 .875.392.875.875a.87.87 0 0 1-.88.875q-1.355-.007-2.839-1.363-1.497 1.374-2.842 1.363-1.345-.01-2.845-1.364-1.43 1.36-2.84 1.357-1.411-.002-2.848-1.356-1.503 1.364-2.843 1.363-1.34 0-2.844-1.362-1.479 1.362-2.844 1.363a.875.875 0 1 1 0-1.75c.52 0 1.837-1.024 2.164-1.427a.875.875 0 0 1 1.285-.08m11.878-9.869c.361.396.654.79.879 1.137l6.393-1.122a.875.875 0 0 1 .94 1.24l-4.422 7.085a.875.875 0 0 1-1.533-.838l1.207-1.936-13.393 2.298a.875.875 0 0 1-.396-1.702l15.028-2.584.938-1.502-19.451 3.414c-.374.053-.605.27-.638.734l-.004 2.528a.875.875 0 0 1-1.744.102l-.001-2.688c.068-1.296.88-2.162 1.963-2.378l3.64-.639A3.67 3.67 0 0 0 7.9 8.53a.875.875 0 0 1 .61-1.05l5.348-.885c1.556-.255 2.93.457 4.095 1.737m-3.65-.03-4.558.755a5.4 5.4 0 0 1-.265 2.052l7.432-1.304a7 7 0 0 0-.253-.295c-.756-.831-1.553-1.272-2.355-1.208" clip-rule="evenodd"/></g><defs><clipPath id="a"><path fill="#fff" d="M0 0h28v28H0z"/></clipPath></defs></svg>