<svg width="32" height="32" viewBox="0 0 32 32" fill="none" xmlns="http://www.w3.org/2000/svg"><path d="M12.906 8.022 C 11.277 8.297,9.844 8.550,9.721 8.583 C 9.483 8.647,9.211 8.846,9.108 9.032 C 9.063 9.113,9.049 9.486,9.058 10.293 C 9.066 10.935,9.048 11.566,9.016 11.725 C 8.986 11.882,8.850 12.245,8.716 12.531 C 8.489 13.013,8.455 13.057,8.272 13.112 C 8.162 13.145,7.211 13.329,6.157 13.520 C 5.102 13.712,4.108 13.906,3.947 13.953 C 3.546 14.067,3.111 14.341,2.794 14.678 C 2.448 15.046,2.339 15.234,2.133 15.813 L 1.963 16.293 1.991 18.000 C 2.007 19.014,2.042 19.787,2.078 19.904 C 2.190 20.279,2.724 20.578,3.150 20.506 C 3.429 20.459,3.777 20.197,3.878 19.957 C 3.944 19.801,3.970 19.411,4.004 18.073 C 4.049 16.268,4.077 16.089,4.325 15.960 C 4.531 15.854,8.258 15.177,18.613 13.365 C 26.083 12.058,26.829 11.931,26.861 11.964 C 26.893 11.996,26.163 13.193,25.951 13.457 C 25.878 13.548,25.748 13.626,25.622 13.654 C 25.507 13.680,22.264 14.242,18.414 14.904 C 8.290 16.644,8.382 16.626,8.192 16.918 C 8.033 17.162,7.976 17.510,8.050 17.776 C 8.135 18.078,8.423 18.379,8.708 18.464 C 8.950 18.537,9.361 18.473,16.853 17.194 C 23.365 16.084,24.318 15.927,24.354 15.963 C 24.372 15.980,24.131 16.413,23.820 16.924 C 23.509 17.435,23.192 17.989,23.115 18.155 C 22.986 18.437,22.981 18.476,23.043 18.731 C 23.134 19.110,23.466 19.444,23.803 19.495 C 24.298 19.569,24.582 19.413,24.948 18.870 C 25.627 17.861,29.539 11.526,29.855 10.923 C 30.036 10.579,30.040 10.558,29.975 10.326 C 29.889 10.018,29.600 9.679,29.353 9.598 C 29.238 9.560,29.053 9.548,28.887 9.570 C 28.537 9.614,26.023 10.037,23.494 10.476 C 22.408 10.664,21.519 10.814,21.516 10.809 C 21.514 10.804,21.342 10.572,21.133 10.293 C 20.401 9.314,19.403 8.424,18.566 8.003 C 17.852 7.644,17.510 7.562,16.640 7.540 C 15.870 7.521,15.855 7.523,12.906 8.022 M17.304 9.636 C 17.420 9.677,17.660 9.791,17.837 9.890 C 18.332 10.167,19.328 11.090,19.234 11.184 C 19.187 11.231,18.652 11.330,14.667 12.027 C 12.716 12.369,11.056 12.661,10.978 12.676 L 10.836 12.705 10.935 12.328 C 11.067 11.826,11.147 11.227,11.147 10.743 C 11.147 10.525,11.162 10.347,11.180 10.347 C 11.199 10.347,12.213 10.178,13.434 9.971 C 16.330 9.481,16.753 9.445,17.304 9.636 M5.893 20.608 C 5.805 20.647,5.517 20.875,5.253 21.115 C 4.382 21.906,3.529 22.421,2.863 22.558 C 2.165 22.702,1.834 23.354,2.138 23.984 C 2.271 24.258,2.585 24.463,2.946 24.513 C 3.561 24.597,4.779 24.112,5.698 23.417 C 5.972 23.210,6.224 23.041,6.258 23.042 C 6.292 23.043,6.560 23.224,6.853 23.444 C 7.800 24.155,8.660 24.499,9.493 24.500 C 10.347 24.501,11.214 24.152,12.178 23.420 L 12.750 22.985 13.108 23.272 C 14.230 24.170,14.969 24.478,16.000 24.478 C 17.031 24.478,17.770 24.170,18.892 23.272 L 19.250 22.985 19.809 23.410 C 20.778 24.147,21.672 24.502,22.560 24.502 C 22.991 24.503,23.137 24.478,23.532 24.338 C 24.105 24.136,24.661 23.821,25.284 23.349 L 25.759 22.988 26.180 23.328 C 26.972 23.967,27.751 24.342,28.577 24.479 C 29.224 24.587,29.649 24.423,29.862 23.983 C 30.062 23.571,29.986 23.110,29.669 22.812 C 29.555 22.705,29.374 22.630,29.009 22.540 C 28.733 22.471,28.414 22.375,28.300 22.327 C 27.985 22.194,27.500 21.826,26.864 21.237 C 25.839 20.287,25.652 20.288,24.636 21.250 C 23.725 22.113,23.064 22.507,22.528 22.507 C 22.256 22.507,21.748 22.326,21.434 22.118 C 21.276 22.013,20.919 21.722,20.640 21.471 C 19.850 20.760,19.603 20.580,19.368 20.549 C 19.008 20.501,18.809 20.612,18.145 21.235 C 16.810 22.487,16.144 22.730,15.227 22.301 C 14.805 22.104,14.636 21.973,13.839 21.224 C 12.841 20.285,12.650 20.288,11.624 21.254 C 10.332 22.470,9.617 22.733,8.765 22.303 C 8.386 22.111,8.097 21.887,7.388 21.234 C 6.655 20.559,6.322 20.419,5.893 20.608 " fill="#1A1C1F" stroke="none" fill-rule="evenodd"></path></svg>