<svg xmlns="http://www.w3.org/2000/svg" width="32" height="32" fill="none"><g clip-path="url(#a)"><path fill="#1A1C1F" fill-rule="evenodd" d="M26.639 20.955c.294.379.622.752.829.941.485.446 1.107.722 1.53.772.504.06.85.385.85.855s-.38.85-.85.85q-1.53 0-3.041-1.58-1.746 1.58-3.458 1.58t-3.321-1.344q-1.636 1.344-3.18 1.344-1.54 0-3.24-1.37-1.748 1.37-3.26 1.37-1.51 0-3.354-1.369-1.626 1.37-3.145 1.369a.85.85 0 1 1 0-1.7q1.08-.245 1.665-.666c.373-.269.658-.539.805-.703a.853.853 0 0 1 1.214-.055c.352.322.712.569.966.732.573.366 1.275.686 1.85.687s1.14-.254 1.766-.676c.238-.16.532-.376.895-.72s.855-.342 1.212.005.644.557.879.717c.629.43 1.24.679 1.748.679.506 0 1.108-.248 1.724-.675.23-.16.511-.35.858-.714a.85.85 0 0 1 1.262.034c.134.156.408.418.785.682.605.425 1.242.673 1.87.673.604 0 1.274-.301 1.94-.82.247-.193.573-.452.907-.865s1-.412 1.294-.033M20.405 9.622c.435.478.784.954 1.042 1.364l7.405-1.3a.85.85 0 0 1 .917 1.197l-2.51 4.026a347 347 0 0 1-2.91 4.614c-.75 1.15-1.85 1-1.85 1q-1.476-.002-3.25-2-1.79 2-3.25 2-1.461 0-3.25-2-1.777 2-3.25 2t-3.25-2q-1.77 2-3.25 2a.857.857 0 0 1-.85-.85l.005-3.096c-.005-1.315.951-2.346 2.129-2.581l4.213-.74a4.34 4.34 0 0 0 .677-3.545.85.85 0 0 1 .688-1.04l6-.987c1.718-.282 3.243.508 4.544 1.938M8.664 15.184a.85.85 0 0 0 .26 1.667l16.21-2.533a.85.85 0 0 0-.26-1.667zM16.32 9.34l-5.348.87a5.9 5.9 0 0 1-.367 2.678l8.993-1.579c-1.24-1.597-2.302-2.053-3.278-1.97" clip-rule="evenodd"/></g><defs><clipPath id="a"><path fill="#fff" d="M0 0h32v32H0z"/></clipPath></defs></svg>