<svg width="24" height="24" viewBox="0 0 24 24" fill="none" xmlns="http://www.w3.org/2000/svg"><path d="M10.155 4.581 C 9.377 4.687,6.563 5.224,6.160 5.343 C 6.003 5.390,5.894 5.456,5.777 5.577 C 5.539 5.825,5.503 5.995,5.535 6.732 C 5.590 7.964,5.462 8.858,5.163 9.328 C 5.024 9.548,4.970 9.568,4.040 9.756 C 3.185 9.929,3.087 9.957,2.780 10.114 C 2.444 10.285,1.991 10.719,1.812 11.040 C 1.745 11.161,1.648 11.377,1.597 11.520 C 1.506 11.774,1.504 11.814,1.503 13.260 C 1.502 14.925,1.499 14.903,1.811 15.206 C 2.025 15.414,2.254 15.494,2.577 15.473 C 2.879 15.454,3.091 15.331,3.304 15.052 C 3.486 14.813,3.520 14.544,3.521 13.317 C 3.522 12.235,3.547 11.978,3.660 11.895 C 3.696 11.869,3.872 11.820,4.052 11.786 C 9.077 10.838,16.738 9.410,19.060 8.988 C 19.501 8.908,19.582 8.903,19.594 8.952 C 19.612 9.027,18.776 10.720,18.721 10.720 C 18.673 10.720,11.036 12.115,9.111 12.475 C 7.735 12.732,7.707 12.743,7.464 13.134 C 7.366 13.292,7.348 13.362,7.349 13.590 C 7.350 14.016,7.485 14.265,7.826 14.465 C 8.177 14.672,7.889 14.710,13.140 13.760 C 16.956 13.070,17.575 12.962,17.598 12.985 C 17.608 12.995,17.594 13.083,17.568 13.182 C 17.372 13.913,17.873 14.535,18.603 14.469 C 18.959 14.437,19.137 14.315,19.348 13.960 C 19.622 13.498,22.395 7.927,22.460 7.707 C 22.570 7.337,22.395 6.935,22.005 6.661 C 21.706 6.451,21.726 6.448,17.344 7.262 C 15.872 7.536,15.295 7.629,15.258 7.598 C 15.230 7.575,15.134 7.433,15.045 7.283 C 14.639 6.600,13.973 5.864,13.365 5.426 C 12.777 5.003,12.065 4.705,11.345 4.581 C 10.927 4.509,10.679 4.509,10.155 4.581 M11.440 6.666 C 11.605 6.720,11.864 6.838,12.015 6.927 C 12.313 7.103,12.947 7.701,13.053 7.906 C 13.116 8.028,13.115 8.032,13.029 8.053 C 12.700 8.133,7.963 9.021,7.642 9.064 L 7.429 9.092 7.453 8.956 C 7.513 8.619,7.566 8.097,7.592 7.600 L 7.620 7.060 8.220 6.949 C 10.735 6.483,10.854 6.472,11.440 6.666 M5.098 15.615 C 4.953 15.682,4.807 15.809,4.580 16.064 C 3.800 16.940,3.343 17.294,2.813 17.430 C 2.641 17.474,2.398 17.532,2.273 17.557 C 2.025 17.609,1.729 17.828,1.617 18.045 C 1.378 18.508,1.554 19.097,2.010 19.359 C 2.199 19.467,2.255 19.479,2.564 19.480 C 3.348 19.480,4.122 19.138,5.069 18.371 C 5.294 18.189,5.490 18.040,5.504 18.040 C 5.519 18.040,5.676 18.164,5.855 18.315 C 6.469 18.833,6.996 19.146,7.589 19.344 C 8.043 19.496,8.690 19.520,9.175 19.404 C 9.804 19.254,10.344 18.960,11.065 18.375 C 11.292 18.191,11.488 18.040,11.500 18.040 C 11.512 18.040,11.712 18.195,11.945 18.383 C 12.649 18.954,13.188 19.250,13.807 19.407 C 14.247 19.518,14.971 19.497,15.359 19.363 C 15.926 19.166,16.535 18.806,17.160 18.298 C 17.334 18.156,17.486 18.040,17.498 18.040 C 17.510 18.040,17.686 18.180,17.890 18.350 C 18.756 19.076,19.504 19.430,20.260 19.470 C 20.718 19.494,20.917 19.441,21.142 19.234 C 21.459 18.942,21.560 18.557,21.422 18.167 C 21.292 17.796,21.037 17.612,20.509 17.507 C 19.891 17.383,19.641 17.217,18.669 16.282 C 17.879 15.522,17.713 15.440,17.223 15.564 C 16.990 15.622,16.825 15.766,16.384 16.297 C 15.670 17.154,15.150 17.481,14.504 17.479 C 13.829 17.477,13.307 17.139,12.528 16.202 C 12.094 15.679,11.932 15.561,11.616 15.532 C 11.205 15.495,11.064 15.560,10.700 15.951 C 9.843 16.872,9.548 17.142,9.221 17.304 C 8.918 17.453,8.887 17.460,8.522 17.458 C 8.219 17.457,8.092 17.438,7.907 17.365 C 7.571 17.231,7.105 16.861,6.760 16.454 C 6.237 15.835,6.002 15.620,5.792 15.567 C 5.513 15.497,5.323 15.510,5.098 15.615 " fill="#1A1C1F" stroke="none" fill-rule="evenodd"></path></svg>