<svg xmlns="http://www.w3.org/2000/svg" width="32" height="32" fill="none"><path fill="#1A1C1F" fill-rule="evenodd" d="M8.533 2.064c-1.489.176-2.741 1.144-3.233 2.5-.295.812-.287.494-.286 10.47.001 10.06-.013 9.579.309 10.268.084.179.265.463.401.631l.249.305.001.841c.002 1.062.063 1.497.271 1.923.378.773 1.038 1.021 2.724 1.024 1.543.002 2.234-.211 2.65-.814.269-.391.342-.689.369-1.492l.024-.733h7.976l.024.76c.029.945.131 1.256.545 1.67.499.499 1.164.642 2.776.593 1.316-.039 1.715-.163 2.179-.679.39-.434.469-.754.502-2.047l.027-1.063.242-.297a3.16 3.16 0 0 0 .624-1.315c.118-.56.119-18.559 0-19.239-.245-1.402-1.01-2.416-2.247-2.977-.789-.358-.227-.335-8.473-.343-4.107-.004-7.551.002-7.654.014m14.661 1.99c.887.116 1.48.605 1.688 1.393.058.221.08 1.506.11 6.454.024 3.835.019 6.179-.012 6.179-.027 0-.385.047-.795.104-2.772.387-5.227.552-8.185.551-2.991 0-5.706-.182-8.205-.55a23 23 0 0 0-.76-.105c-.065 0-.06-11.382.005-12.098.057-.631.192-.986.506-1.335.257-.284.764-.532 1.203-.589.491-.063 13.958-.067 14.445-.004M10.587 6.089c-.151.083-.399.319-.467.443-.261.482-.039 1.139.46 1.366.21.095.455.1 5.42.1s5.21-.005 5.42-.1a1.1 1.1 0 0 0 .355-.279c.142-.188.269-.57.23-.693a3 3 0 0 1-.055-.218c-.039-.178-.313-.499-.515-.604-.128-.066-.923-.077-5.446-.076-3.758.001-5.327.019-5.402.061M2.613 7.1c-.172.068-.412.297-.524.5-.078.14-.091.423-.107 2.24-.012 1.441.002 2.167.045 2.362a.997.997 0 0 0 1.147.787c.313-.047.691-.37.772-.662.032-.115.054-1.06.054-2.342 0-2.27-.01-2.37-.255-2.642-.239-.264-.785-.381-1.132-.243m25.947.029c-.247.13-.353.239-.46.471-.09.196-.098.393-.099 2.41-.001 1.422.019 2.249.056 2.347.076.203.359.493.568.583.38.163.898.023 1.153-.31.234-.307.256-.563.238-2.796-.014-1.813-.027-2.094-.105-2.234-.117-.211-.355-.433-.541-.503-.217-.082-.625-.066-.81.032M7.897 20.212c2.923.392 4.746.504 8.236.506 3.506.002 5.257-.104 7.849-.479.504-.073.944-.132.978-.132.046 0 .058.524.044 2.066l-.017 2.067-.134.239a1 1 0 0 1-.374.374l-.239.134H7.813l-.265-.134a.74.74 0 0 1-.4-.398l-.135-.265-.016-2.042c-.013-1.651-.003-2.041.053-2.041.039 0 .42.047.847.105m1.95 1.356c-1.05.391-1.123 1.837-.117 2.305 1.227.571 2.346-.977 1.424-1.971-.313-.337-.896-.486-1.307-.334m11.593-.028c-.587.192-.925.634-.925 1.207a1.23 1.23 0 0 0 1.755 1.126c.911-.424.97-1.688.104-2.195-.252-.148-.701-.214-.934-.138M9.973 27.493V28H8v-1.013h1.973zm14.027 0V28h-1.973v-1.013H24z"/></svg>