<svg xmlns="http://www.w3.org/2000/svg" width="32" height="32" fill="none"><g clip-path="url(#a)"><path fill="#1A1C1F" fill-rule="evenodd" d="M9.585 3.076h12.83c1.176.016 1.802.152 2.451.5.637.34 1.142.845 1.483 1.482.347.65.483 1.275.5 2.451l.001 16.492c0 .738-.077 1.139-.3 1.557q-.212.392-.548.67L26 27.924a1 1 0 0 1-1 1h-2a1 1 0 0 1-1-1v-1.15H10v1.15a1 1 0 0 1-1 1H7a1 1 0 0 1-1-1v-1.696a2.2 2.2 0 0 1-.549-.67c-.201-.376-.284-.738-.298-1.345L5.152 7.509c.017-1.176.152-1.802.5-2.451a3.58 3.58 0 0 1 1.482-1.483c.65-.347 1.275-.483 2.451-.5M8.35 21.674a1.5 1.5 0 1 0 .001 3.001 1.5 1.5 0 0 0 0-3m15.3 0a1.5 1.5 0 1 0 .001 3.001 1.5 1.5 0 0 0 0-3m1.5-13.75H6.851v11.043c3.149.493 6.381.707 9.15.707q4.574 0 9.15-.707zM29 9.09c.433 0 .85.351.843.85l.007 3c0 .47-.38.85-.85.85a.844.844 0 0 1-.843-.85l-.007-3c0-.469.38-.85.85-.85m-26 0c.433 0 .85.338.85.85v3a.85.85 0 1 1-1.7 0v-3c0-.469.38-.85.85-.85m8-5.015a.855.855 0 0 0-.85.85c0 .433.342.85.85.85l10.013-.006c.48.006.837-.41.837-.844 0-.433-.34-.85-.838-.843z" clip-rule="evenodd"/></g><defs><clipPath id="a"><path fill="#fff" d="M0 0h32v32H0z"/></clipPath></defs></svg>