<svg width="16" height="16" viewBox="0 0 16 16" fill="none" xmlns="http://www.w3.org/2000/svg"><path d="M5.107 1.626 C 4.321 1.647,4.165 1.675,3.762 1.868 C 3.012 2.227,2.559 2.853,2.448 3.686 C 2.431 3.818,2.400 3.943,2.380 3.963 C 2.352 3.991,2.251 4.000,1.971 4.000 L 1.600 4.000 1.600 5.600 L 1.600 7.200 2.000 7.200 L 2.400 7.200 2.400 9.723 L 2.400 12.247 2.468 12.436 C 2.610 12.830,2.794 13.093,3.068 13.294 L 3.200 13.391 3.200 13.896 L 3.200 14.400 4.200 14.400 L 5.200 14.400 5.200 14.000 L 5.200 13.600 8.000 13.600 L 10.800 13.600 10.800 14.000 L 10.800 14.400 11.800 14.400 L 12.800 14.400 12.800 13.905 L 12.800 13.409 12.873 13.351 C 13.031 13.225,13.271 12.961,13.355 12.820 C 13.404 12.738,13.479 12.577,13.522 12.462 L 13.600 12.253 13.600 9.727 L 13.600 7.200 14.000 7.200 L 14.400 7.200 14.400 5.600 L 14.400 4.000 14.033 4.000 C 13.832 3.999,13.650 3.989,13.630 3.976 C 13.609 3.963,13.579 3.850,13.557 3.703 C 13.469 3.108,13.241 2.651,12.847 2.276 C 12.611 2.052,12.361 1.897,12.058 1.787 C 11.599 1.619,11.650 1.622,8.587 1.614 C 7.054 1.610,5.488 1.615,5.107 1.626 M11.467 3.274 C 11.576 3.306,11.648 3.353,11.751 3.455 C 11.994 3.696,11.980 3.535,11.993 6.243 L 12.005 8.605 11.769 8.623 C 9.103 8.817,6.896 8.817,4.230 8.622 L 3.993 8.605 4.007 6.216 C 4.020 3.883,4.022 3.824,4.075 3.702 C 4.152 3.527,4.297 3.377,4.460 3.303 C 4.596 3.242,4.624 3.240,5.560 3.224 C 6.088 3.215,7.600 3.213,8.920 3.219 C 11.051 3.229,11.336 3.235,11.467 3.274 M5.600 4.680 L 5.600 5.360 8.000 5.360 L 10.400 5.360 10.400 4.680 L 10.400 4.000 8.000 4.000 L 5.600 4.000 5.600 4.680 M5.173 10.813 L 5.173 11.413 4.587 11.413 L 4.000 11.413 4.000 10.813 L 4.000 10.213 4.587 10.213 L 5.173 10.213 5.173 10.813 M12.080 10.609 C 12.080 10.827,12.072 11.097,12.063 11.209 L 12.046 11.413 11.463 11.413 L 10.880 11.413 10.880 10.813 L 10.880 10.213 11.480 10.213 L 12.080 10.213 12.080 10.609 " fill="#1A1C1F" stroke="none" fill-rule="evenodd"></path></svg>