<svg xmlns="http://www.w3.org/2000/svg" width="14" height="14" fill="none"><g clip-path="url(#a)"><path fill="#1A1C1F" fill-rule="evenodd" d="M9.405 1.453c.66 0 1.002.066 1.36.257.331.177.595.441.773.773.148.278.221.547.247.963l.675.001v2.8h-.665v4.003c0 .328-.032.535-.122.735s-.29.457-.473.546v1.016H9.45v-.805h-4.9v.805H2.8l-.001-1.014a1.23 1.23 0 0 1-.43-.463c-.107-.2-.152-.39-.162-.687q-.01-.295-.002-4.136H1.54v-2.8l.676-.001c.025-.416.098-.685.246-.963.178-.332.442-.596.774-.773.327-.175.643-.246 1.2-.256zm-5.31 7.77a.7.7 0 1 0 0 1.4.7.7 0 0 0 0-1.4m5.736 0a.7.7 0 1 0 0 1.4.7.7 0 0 0 0-1.4m.774-5.251h-7.21V8.09a24.2 24.2 0 0 0 7.21 0zM9.1 2.222H4.9v1.05h4.2z" clip-rule="evenodd"/></g><defs><clipPath id="a"><path fill="#fff" d="M0 0h14v14H0z"/></clipPath></defs></svg>