<svg xmlns="http://www.w3.org/2000/svg" width="20" height="20" fill="none"><g clip-path="url(#a)"><path fill="#1A1C1F" fill-rule="evenodd" d="M13.436 2.075c.941 0 1.431.095 1.942.368.474.253.85.63 1.104 1.104.213.397.317.782.353 1.376l.965.002v4l-.95-.001v5.72c0 .467-.046.764-.174 1.049s-.415.653-.676.78v1.452h-2.5v-1.15H6.499l.001 1.15H4l-.002-1.45a1.76 1.76 0 0 1-.614-.66c-.152-.285-.217-.56-.231-.981q-.014-.423-.003-5.91l-.95.001v-4l.965-.002c.036-.594.14-.979.353-1.376.253-.474.63-.85 1.104-1.104.468-.25.919-.351 1.716-.366zm-7.586 11.1a1 1 0 1 0 0 2 1 1 0 0 0 0-2m8.194 0a1 1 0 1 0 0 2 1 1 0 0 0 0-2m1.106-7.501H4.85l.001 5.883q2.575.386 5.149.386 2.575 0 5.15-.386zM13 3.175H7v1.5h6z" clip-rule="evenodd"/></g><defs><clipPath id="a"><path fill="#fff" d="M0 0h20v20H0z"/></clipPath></defs></svg>