<svg width="12" height="12" viewBox="0 0 12 12" fill="none" xmlns="http://www.w3.org/2000/svg"><path d="M3.820 1.220 C 3.539 1.228,3.269 1.245,3.220 1.258 C 2.738 1.382,2.371 1.622,2.135 1.968 C 1.973 2.205,1.852 2.534,1.827 2.807 C 1.820 2.882,1.801 2.956,1.786 2.972 C 1.764 2.993,1.693 3.000,1.479 3.000 L 1.200 3.000 1.200 4.200 L 1.200 5.400 1.500 5.400 L 1.800 5.400 1.800 7.294 L 1.800 9.187 1.863 9.359 C 1.964 9.635,2.097 9.820,2.305 9.973 L 2.400 10.043 2.400 10.422 L 2.400 10.800 3.150 10.800 L 3.900 10.800 3.900 10.500 L 3.900 10.200 6.000 10.200 L 8.100 10.200 8.100 10.500 L 8.100 10.800 8.850 10.800 L 9.600 10.800 9.600 10.428 L 9.600 10.057 9.655 10.013 C 9.775 9.918,9.954 9.720,10.018 9.611 C 10.056 9.548,10.112 9.425,10.143 9.337 L 10.200 9.177 10.200 7.289 L 10.200 5.400 10.500 5.400 L 10.800 5.400 10.800 4.200 L 10.800 3.000 10.525 3.000 C 10.374 3.000,10.238 2.992,10.223 2.982 C 10.207 2.972,10.184 2.887,10.168 2.777 C 10.101 2.331,9.931 1.988,9.635 1.707 C 9.458 1.539,9.271 1.423,9.043 1.340 C 8.699 1.214,8.738 1.216,6.430 1.210 C 5.275 1.207,4.101 1.212,3.820 1.220 M8.600 2.455 C 8.682 2.480,8.736 2.514,8.813 2.591 C 8.996 2.773,8.985 2.651,8.995 4.682 L 9.004 6.455 8.827 6.468 C 6.829 6.614,5.293 6.614,3.182 6.467 L 2.994 6.454 3.005 4.662 C 3.015 2.912,3.016 2.868,3.056 2.777 C 3.114 2.645,3.222 2.533,3.345 2.477 C 3.447 2.431,3.468 2.430,4.170 2.418 C 4.566 2.412,5.700 2.410,6.690 2.415 C 8.284 2.422,8.503 2.426,8.600 2.455 M4.200 3.510 L 4.200 4.020 6.000 4.020 L 7.800 4.020 7.800 3.510 L 7.800 3.000 6.000 3.000 L 4.200 3.000 4.200 3.510 M3.880 8.110 L 3.880 8.560 3.440 8.560 L 3.000 8.560 3.000 8.110 L 3.000 7.660 3.440 7.660 L 3.880 7.660 3.880 8.110 M9.060 7.945 C 9.060 8.102,9.054 8.304,9.047 8.395 L 9.034 8.560 8.597 8.560 L 8.160 8.560 8.160 8.110 L 8.160 7.660 8.610 7.660 L 9.060 7.660 9.060 7.945 " fill="#1A1C1F" stroke="none" fill-rule="evenodd"></path></svg>