<svg width="32" height="32" viewBox="0 0 32 32" fill="none" xmlns="http://www.w3.org/2000/svg"><path d="M8.027 2.159 C 6.656 2.529,5.687 3.422,5.253 4.714 C 5.141 5.049,5.102 5.305,5.060 5.971 C 4.983 7.208,5.030 24.373,5.111 24.715 C 5.203 25.104,5.390 25.477,5.692 25.874 L 5.961 26.229 5.987 27.288 C 6.016 28.451,6.071 28.736,6.354 29.183 C 6.747 29.801,7.450 30.027,8.987 30.027 C 10.625 30.027,11.344 29.759,11.719 29.011 C 11.919 28.613,11.999 28.175,12.000 27.480 L 12.000 26.987 15.993 26.987 L 19.985 26.987 20.014 27.720 C 20.057 28.780,20.216 29.185,20.742 29.569 C 21.195 29.900,21.777 30.024,22.880 30.025 C 23.765 30.025,24.455 29.948,24.836 29.806 C 25.246 29.653,25.710 29.191,25.837 28.809 C 25.954 28.456,26.025 27.754,26.026 26.923 L 26.027 26.246 26.302 25.883 C 26.453 25.683,26.629 25.400,26.693 25.253 C 26.975 24.607,26.960 25.170,26.959 14.933 L 26.958 5.413 26.811 4.939 C 26.729 4.679,26.602 4.338,26.528 4.181 C 26.182 3.449,25.543 2.831,24.715 2.428 C 24.314 2.233,24.136 2.179,23.751 2.135 C 23.454 2.101,20.519 2.082,15.787 2.084 C 9.671 2.086,8.244 2.100,8.027 2.159 M22.053 4.046 L 23.493 4.082 23.840 4.246 C 24.328 4.477,24.503 4.644,24.726 5.096 L 24.921 5.490 24.970 10.172 C 25.020 14.991,25.013 17.992,24.952 18.053 C 24.905 18.100,23.314 18.312,22.000 18.447 C 19.879 18.666,19.202 18.693,16.000 18.693 C 12.904 18.693,12.165 18.666,10.187 18.475 C 8.885 18.349,7.106 18.110,7.049 18.054 C 6.992 17.996,6.977 8.595,7.031 7.013 C 7.087 5.400,7.123 5.209,7.454 4.773 C 7.608 4.570,7.757 4.456,8.075 4.293 L 8.493 4.080 9.967 4.051 C 12.158 4.008,20.399 4.004,22.053 4.046 M11.096 6.067 C 10.651 6.082,10.570 6.101,10.411 6.222 C 10.146 6.424,10.027 6.651,10.027 6.956 C 10.027 7.314,10.197 7.650,10.469 7.830 L 10.686 7.973 16.005 7.973 L 21.324 7.973 21.555 7.811 C 21.880 7.584,22.056 7.151,21.968 6.801 C 21.932 6.660,21.824 6.466,21.708 6.334 C 21.511 6.112,21.502 6.109,21.061 6.072 C 20.625 6.036,12.101 6.031,11.096 6.067 M2.587 7.120 C 2.371 7.237,2.195 7.407,2.088 7.600 C 2.010 7.742,2.000 8.014,2.000 9.973 C 2.000 12.185,2.000 12.187,2.125 12.440 C 2.270 12.734,2.449 12.877,2.788 12.968 C 3.083 13.047,3.376 12.976,3.626 12.766 C 3.975 12.472,3.972 12.497,3.991 10.293 C 4.000 9.193,3.992 8.144,3.973 7.962 C 3.914 7.393,3.620 7.104,3.053 7.058 C 2.833 7.041,2.701 7.058,2.587 7.120 M28.623 7.114 C 28.381 7.204,28.234 7.329,28.115 7.547 C 28.037 7.688,28.027 7.973,28.027 10.031 L 28.027 12.355 28.173 12.547 C 28.428 12.881,28.625 12.986,28.991 12.987 C 29.414 12.987,29.716 12.800,29.885 12.436 C 29.997 12.193,30.000 12.129,30.000 9.973 C 30.000 7.856,29.995 7.752,29.893 7.579 C 29.835 7.479,29.700 7.328,29.594 7.243 C 29.360 7.053,28.938 6.997,28.623 7.114 M8.267 20.265 C 10.977 20.616,12.616 20.707,16.213 20.707 C 19.843 20.706,21.231 20.626,23.809 20.264 C 24.423 20.178,24.939 20.122,24.956 20.139 C 25.001 20.184,24.989 24.107,24.943 24.279 C 24.891 24.479,24.611 24.785,24.367 24.910 C 24.169 25.011,23.977 25.013,16.027 25.013 C 8.803 25.013,7.868 25.004,7.692 24.931 C 7.437 24.824,7.270 24.665,7.134 24.401 C 7.032 24.202,7.023 24.067,6.998 22.342 C 6.984 21.327,6.988 20.407,7.009 20.298 C 7.046 20.103,7.051 20.099,7.243 20.128 C 7.351 20.145,7.812 20.207,8.267 20.265 M9.915 21.565 C 9.168 21.770,8.804 22.599,9.152 23.298 C 9.364 23.723,9.814 24.000,10.290 24.000 C 10.576 24.000,11.035 23.748,11.235 23.482 C 11.933 22.554,11.040 21.257,9.915 21.565 M21.387 21.577 C 20.866 21.735,20.533 22.188,20.533 22.739 C 20.533 23.276,20.766 23.643,21.253 23.873 C 21.859 24.159,22.551 23.903,22.856 23.280 C 23.322 22.327,22.407 21.266,21.387 21.577 M9.973 27.493 L 9.973 28.000 8.987 28.000 L 8.000 28.000 8.000 27.493 L 8.000 26.987 8.987 26.987 L 9.973 26.987 9.973 27.493 M24.000 27.493 L 24.000 28.000 23.013 28.000 L 22.027 28.000 22.027 27.493 L 22.027 26.987 23.013 26.987 L 24.000 26.987 24.000 27.493 " fill="#1A1C1F" stroke="none" fill-rule="evenodd"></path></svg>