<svg width="14" height="14" viewBox="0 0 14 14" fill="none" xmlns="http://www.w3.org/2000/svg"><path d="M4.480 1.422 C 3.780 1.441,3.646 1.465,3.292 1.634 C 2.635 1.948,2.239 2.496,2.142 3.225 C 2.127 3.341,2.100 3.450,2.082 3.468 C 2.058 3.492,1.970 3.500,1.725 3.500 L 1.400 3.500 1.400 4.900 L 1.400 6.300 1.750 6.300 L 2.100 6.300 2.100 8.503 L 2.100 10.706 2.172 10.911 C 2.286 11.234,2.443 11.454,2.689 11.635 L 2.800 11.717 2.800 12.159 L 2.800 12.600 3.675 12.600 L 4.550 12.600 4.550 12.250 L 4.550 11.900 7.000 11.900 L 9.450 11.900 9.450 12.250 L 9.450 12.600 10.325 12.600 L 11.200 12.600 11.200 12.167 L 11.200 11.733 11.264 11.682 C 11.404 11.571,11.613 11.340,11.688 11.213 C 11.732 11.140,11.798 10.996,11.834 10.893 L 11.900 10.707 11.900 8.503 L 11.900 6.300 12.250 6.300 L 12.600 6.300 12.600 4.900 L 12.600 3.500 12.279 3.500 C 12.103 3.499,11.944 3.490,11.926 3.479 C 11.908 3.467,11.881 3.368,11.862 3.240 C 11.742 2.431,11.269 1.825,10.550 1.563 C 10.151 1.417,10.192 1.419,7.525 1.412 C 6.190 1.409,4.820 1.413,4.480 1.422 M10.033 2.865 C 10.129 2.893,10.192 2.933,10.282 3.023 C 10.495 3.235,10.482 3.093,10.494 5.462 L 10.505 7.530 10.298 7.545 C 7.965 7.715,6.034 7.715,3.701 7.545 L 3.493 7.529 3.506 5.439 C 3.518 3.404,3.520 3.345,3.566 3.239 C 3.632 3.087,3.759 2.955,3.903 2.890 C 4.022 2.836,4.046 2.835,4.865 2.821 C 5.327 2.814,6.650 2.812,7.805 2.817 C 9.666 2.825,9.920 2.831,10.033 2.865 M4.900 4.095 L 4.900 4.690 7.000 4.690 L 9.100 4.690 9.100 4.095 L 9.100 3.500 7.000 3.500 L 4.900 3.500 4.900 4.095 M4.527 9.462 L 4.527 9.987 4.013 9.987 L 3.500 9.987 3.500 9.462 L 3.500 8.937 4.013 8.937 L 4.527 8.937 4.527 9.462 M10.570 9.269 C 10.570 9.452,10.563 9.688,10.555 9.794 L 10.540 9.987 10.030 9.987 L 9.520 9.987 9.520 9.462 L 9.520 8.937 10.045 8.937 L 10.570 8.937 10.570 9.269 " fill="#1A1C1F" stroke="none" fill-rule="evenodd"></path></svg>