<svg xmlns="http://www.w3.org/2000/svg" width="16" height="16" fill="none"><g clip-path="url(#a)"><path fill="#1A1C1F" fill-rule="evenodd" d="M10.749 1.6c.77 0 1.182.08 1.61.308.4.214.719.533.933.933.18.336.267.661.296 1.158L14.4 4v3.2h-.8v4.575c0 .387-.046.73-.201.993s-.367.486-.599.611V14.4h-2v-.8H5.2v.8h-2v-1.019a1.53 1.53 0 0 1-.599-.613c-.13-.245-.187-.48-.199-.834L2.4 7.2h-.8V4l.812-.001c.03-.497.117-.822.296-1.158.214-.4.533-.719.933-.933.393-.21.828-.308 1.475-.306zm-5.565 8.6h-1.2v1.2h1.2zm6.887 0h-1.2v1.2h1.2zm-1.187-7H5.116c-.258 0-.602 0-.855.216-.252.215-.258.586-.26.9q-.002.313.001 4.283 2.255.173 3.998.173t3.998-.173l.001-4.283c0-.337-.007-.685-.256-.9-.25-.215-.562-.215-.859-.215M10.4 4v1.36H5.6V4z" clip-rule="evenodd"/></g><defs><clipPath id="a"><path fill="#fff" d="M0 0h16v16H0z"/></clipPath></defs></svg>