<svg width="16" height="16" viewBox="0 0 16 16" fill="none" xmlns="http://www.w3.org/2000/svg"><path d="M5.200 1.681 C 4.344 1.701,4.202 1.725,3.800 1.920 C 3.167 2.228,2.758 2.750,2.600 3.453 C 2.563 3.615,2.534 3.792,2.534 3.847 L 2.533 3.947 2.147 3.947 L 1.760 3.947 1.760 5.547 L 1.760 7.147 2.130 7.147 L 2.500 7.147 2.514 9.647 C 2.529 12.382,2.521 12.240,2.691 12.604 C 2.751 12.732,2.833 12.839,2.987 12.993 L 3.200 13.206 3.200 13.777 L 3.200 14.347 4.200 14.347 L 5.200 14.347 5.200 13.880 L 5.200 13.413 8.000 13.413 L 10.800 13.413 10.800 13.880 L 10.800 14.347 11.800 14.347 L 12.800 14.347 12.800 13.765 L 12.800 13.183 12.923 13.092 C 13.062 12.988,13.252 12.737,13.338 12.543 C 13.475 12.233,13.471 12.316,13.486 9.647 L 13.500 7.147 13.870 7.147 L 14.240 7.147 14.240 5.547 L 14.240 3.947 13.859 3.947 L 13.478 3.947 13.446 3.708 C 13.383 3.249,13.207 2.811,12.969 2.526 C 12.662 2.160,12.280 1.908,11.825 1.771 L 11.587 1.700 9.493 1.679 C 7.134 1.655,6.259 1.655,5.200 1.681 M10.400 3.133 L 10.400 3.733 8.000 3.733 L 5.600 3.733 5.600 3.133 L 5.600 2.533 8.000 2.533 L 10.400 2.533 10.400 3.133 M12.101 6.878 C 12.097 8.167,12.085 9.231,12.074 9.241 C 12.048 9.268,10.966 9.403,10.389 9.452 C 8.872 9.580,7.128 9.580,5.611 9.452 C 5.034 9.403,3.952 9.268,3.926 9.241 C 3.915 9.231,3.903 8.167,3.899 6.878 L 3.892 4.533 8.000 4.533 L 12.108 4.533 12.101 6.878 M5.043 10.647 C 5.533 10.900,5.609 11.555,5.193 11.938 C 5.046 12.073,4.918 12.119,4.680 12.119 C 4.577 12.119,4.446 12.102,4.389 12.082 C 4.250 12.034,4.065 11.860,3.978 11.694 C 3.918 11.580,3.907 11.527,3.907 11.333 C 3.907 11.151,3.919 11.085,3.966 10.997 C 4.061 10.819,4.152 10.728,4.325 10.642 C 4.462 10.573,4.520 10.560,4.682 10.560 C 4.848 10.560,4.899 10.572,5.043 10.647 M11.598 10.643 C 11.874 10.781,12.005 11.006,12.010 11.347 C 12.012 11.536,12.003 11.576,11.934 11.703 C 11.624 12.266,10.869 12.273,10.543 11.715 C 10.459 11.572,10.429 11.290,10.478 11.114 C 10.541 10.892,10.741 10.674,10.950 10.599 C 11.007 10.579,11.138 10.562,11.242 10.561 C 11.402 10.560,11.457 10.573,11.598 10.643 " fill="#1A1C1F" stroke="none" fill-rule="evenodd"></path></svg>