<svg xmlns="http://www.w3.org/2000/svg" width="12" height="12" fill="none"><g clip-path="url(#a)"><path fill="#1A1C1F" fill-rule="evenodd" d="M8.062 1.245c.564 0 .858.057 1.165.22a1.6 1.6 0 0 1 .662.663c.128.239.19.47.212.826l.579.001v2.4h-.57v3.43c0 .282-.028.46-.104.63-.077.171-.25.393-.406.469v.871H8.1v-.69H3.9v.69H2.4l-.001-.87a1.05 1.05 0 0 1-.369-.396c-.09-.171-.13-.336-.138-.589q-.008-.253-.002-3.546l-.57.001v-2.4l.579-.001c.021-.357.084-.587.212-.826a1.6 1.6 0 0 1 .662-.662c.281-.15.551-.21 1.03-.22zM3.51 7.905a.6.6 0 1 0 0 1.2.6.6 0 0 0 0-1.2m4.916 0a.6.6 0 1 0 0 1.2.6.6 0 0 0 0-1.2m.664-4.5H2.91v3.53a20.8 20.8 0 0 0 6.18 0zm-1.29-1.5H4.2v.9h3.6z" clip-rule="evenodd"/></g><defs><clipPath id="a"><path fill="#fff" d="M0 0h12v12H0z"/></clipPath></defs></svg>