<svg width="12" height="12" viewBox="0 0 12 12" fill="none" xmlns="http://www.w3.org/2000/svg"><path d="M3.890 1.260 C 3.259 1.276,3.150 1.295,2.850 1.440 C 2.375 1.671,2.070 2.060,1.950 2.591 C 1.923 2.712,1.900 2.844,1.900 2.885 L 1.900 2.960 1.610 2.960 L 1.320 2.960 1.320 4.160 L 1.320 5.360 1.598 5.360 L 1.875 5.360 1.886 7.235 C 1.897 9.287,1.891 9.180,2.019 9.454 C 2.065 9.552,2.123 9.629,2.241 9.744 L 2.400 9.901 2.400 10.331 L 2.400 10.760 3.150 10.760 L 3.900 10.760 3.900 10.410 L 3.900 10.060 6.000 10.060 L 8.100 10.060 8.100 10.410 L 8.100 10.760 8.850 10.760 L 9.600 10.760 9.600 10.324 L 9.600 9.887 9.692 9.819 C 9.796 9.741,9.939 9.553,10.003 9.407 C 10.106 9.175,10.103 9.237,10.114 7.235 L 10.125 5.360 10.403 5.360 L 10.680 5.360 10.680 4.160 L 10.680 2.960 10.394 2.960 L 10.109 2.960 10.085 2.781 C 10.037 2.431,9.904 2.104,9.721 1.890 C 9.482 1.610,9.211 1.431,8.869 1.329 L 8.690 1.275 7.150 1.259 C 5.412 1.241,4.672 1.241,3.890 1.260 M7.800 2.350 L 7.800 2.800 6.000 2.800 L 4.200 2.800 4.200 2.350 L 4.200 1.900 6.000 1.900 L 7.800 1.900 7.800 2.350 M9.076 5.158 C 9.073 6.125,9.064 6.923,9.056 6.931 C 9.036 6.951,8.225 7.052,7.792 7.089 C 6.667 7.184,5.333 7.184,4.208 7.089 C 3.775 7.052,2.964 6.951,2.944 6.931 C 2.936 6.923,2.928 6.125,2.924 5.158 L 2.919 3.400 6.000 3.400 L 9.081 3.400 9.076 5.158 M3.782 7.985 C 4.065 8.132,4.171 8.450,4.040 8.757 C 3.987 8.878,3.840 9.023,3.729 9.062 C 3.628 9.097,3.393 9.097,3.292 9.062 C 3.187 9.026,3.049 8.895,2.983 8.771 C 2.938 8.685,2.931 8.645,2.931 8.500 C 2.930 8.363,2.939 8.314,2.974 8.248 C 3.045 8.114,3.114 8.046,3.244 7.981 C 3.347 7.930,3.390 7.920,3.511 7.920 C 3.636 7.920,3.674 7.929,3.782 7.985 M8.698 7.982 C 8.906 8.086,9.004 8.255,9.007 8.510 C 9.009 8.701,8.969 8.793,8.821 8.941 C 8.671 9.091,8.487 9.132,8.256 9.067 C 8.119 9.029,7.986 8.921,7.905 8.783 C 7.856 8.700,7.850 8.670,7.850 8.510 C 7.850 8.295,7.897 8.181,8.036 8.059 C 8.147 7.961,8.255 7.924,8.432 7.922 C 8.552 7.920,8.592 7.929,8.698 7.982 " fill="#1A1C1F" stroke="none" fill-rule="evenodd"></path></svg>