<svg width="20" height="20" viewBox="0 0 20 20" fill="none" xmlns="http://www.w3.org/2000/svg"><path d="M6.417 2.032 C 5.398 2.059,5.211 2.092,4.702 2.335 C 3.765 2.783,3.199 3.566,3.060 4.607 C 3.038 4.773,3.000 4.929,2.974 4.954 C 2.940 4.989,2.814 5.000,2.464 5.000 L 2.000 5.000 2.000 7.000 L 2.000 9.000 2.500 9.000 L 3.000 9.000 3.000 12.147 L 3.000 15.295 3.103 15.588 C 3.266 16.048,3.490 16.362,3.842 16.622 L 4.000 16.739 4.000 17.370 L 4.000 18.000 5.250 18.000 L 6.500 18.000 6.500 17.500 L 6.500 17.000 10.000 17.000 L 13.500 17.000 13.500 17.500 L 13.500 18.000 14.750 18.000 L 16.000 18.000 16.000 17.381 L 16.000 16.762 16.091 16.689 C 16.291 16.529,16.590 16.200,16.697 16.019 C 16.760 15.914,16.854 15.708,16.906 15.561 L 17.000 15.295 17.000 12.148 L 17.000 9.000 17.500 9.000 L 18.000 9.000 18.000 7.000 L 18.000 5.000 17.542 4.999 C 17.290 4.999,17.063 4.986,17.038 4.970 C 17.011 4.953,16.973 4.812,16.946 4.629 C 16.836 3.885,16.551 3.314,16.058 2.845 C 15.764 2.566,15.451 2.372,15.072 2.233 C 14.501 2.025,14.557 2.028,10.767 2.018 C 8.869 2.013,6.912 2.019,6.417 2.032 M14.333 4.093 C 14.471 4.133,14.560 4.190,14.689 4.319 C 14.993 4.621,14.975 4.419,14.992 7.804 L 15.007 10.757 14.695 10.779 C 11.138 11.026,8.860 11.026,5.304 10.779 L 4.990 10.757 5.008 7.770 C 5.026 4.859,5.028 4.779,5.094 4.628 C 5.189 4.409,5.371 4.222,5.575 4.129 C 5.747 4.051,5.773 4.050,7.050 4.031 C 7.765 4.021,9.655 4.019,11.250 4.026 C 13.806 4.037,14.172 4.045,14.333 4.093 M7.000 5.850 L 7.000 6.700 10.000 6.700 L 13.000 6.700 13.000 5.850 L 13.000 5.000 10.000 5.000 L 7.000 5.000 7.000 5.850 M6.467 13.517 L 6.467 14.267 5.733 14.267 L 5.000 14.267 5.000 13.517 L 5.000 12.767 5.733 12.767 L 6.467 12.767 6.467 13.517 M15.100 13.212 C 15.100 13.456,15.090 13.794,15.078 13.962 L 15.057 14.267 14.328 14.267 L 13.600 14.267 13.600 13.517 L 13.600 12.767 14.350 12.767 L 15.100 12.767 15.100 13.212 " fill="#1A1C1F" stroke="none" fill-rule="evenodd"></path></svg>