<svg xmlns="http://www.w3.org/2000/svg" width="32" height="32" fill="none"><path fill="#1A1C1F" fill-rule="evenodd" d="M8.587 3.131c-1.598.188-2.829 1.228-3.254 2.745-.201.72-.22 1.692-.201 10.471.016 7.844.023 8.393.112 8.693.111.374.296.707.549.986l.18.2v.805c0 .968.059 1.283.285 1.541.277.316.373.335 1.742.335s1.465-.019 1.742-.335c.21-.239.285-.571.285-1.268v-.531h11.946v.531c0 .697.075 1.029.285 1.268.277.316.373.335 1.742.335s1.465-.019 1.742-.335c.226-.258.285-.573.285-1.541v-.805l.18-.2c.253-.279.438-.612.549-.986.089-.3.096-.849.112-8.693.019-8.779 0-9.751-.201-10.471-.31-1.107-1.022-1.946-2.049-2.411-.802-.364-.234-.34-8.431-.349-4.078-.004-7.498.003-7.6.015m12.989 1.194a.833.833 0 0 1-.193 1.342c-.171.088-.516.093-5.446.08-5.256-.014-5.263-.014-5.413-.126a.846.846 0 0 1 .035-1.395l.179-.121 5.323.014 5.324.014zm3.544 9.142c0 3.036-.018 5.52-.04 5.52s-.461.059-.974.131c-5.26.74-11.25.73-16.416-.027a20 20 0 0 0-.76-.104c-.031 0-.05-2.089-.05-5.52v-5.52h18.24zM2.559 9.24a1.4 1.4 0 0 0-.287.27c-.107.144-.113.224-.128 1.798-.01 1.051.004 1.723.041 1.858.068.254.345.514.629.591a.85.85 0 0 0 .733-.167c.279-.219.293-.322.293-2.162 0-1.892-.01-1.948-.368-2.187-.249-.166-.669-.167-.913-.001m25.969.001c-.358.239-.368.295-.368 2.191 0 1.458.012 1.724.087 1.881.245.518.913.626 1.34.218a.95.95 0 0 0 .227-.355c.072-.262.068-3.172-.006-3.443-.107-.392-.408-.613-.837-.613a.74.74 0 0 0-.443.121M8.987 21.834c.941.446 1.136 1.724.371 2.429-.311.287-.568.39-.985.396-.857.012-1.492-.62-1.492-1.486 0-.622.306-1.108.852-1.355.349-.158.902-.151 1.254.016m15.28-.016c.546.247.852.733.852 1.355 0 .866-.635 1.498-1.492 1.486-.417-.006-.674-.109-.985-.396-.765-.705-.57-1.983.371-2.429.352-.167.905-.174 1.254-.016"/></svg>