<svg xmlns="http://www.w3.org/2000/svg" width="24" height="24" fill="none"><g clip-path="url(#a)"><path fill="#1A1C1F" fill-rule="evenodd" d="M16.436 2.075c.94 0 1.43.095 1.941.368.474.253.851.63 1.105 1.104.25.468.35.919.366 1.716v.942a.85.85 0 0 1 .451-.13c.434 0 .876.352.85.85v3a.85.85 0 0 1-1.3.72v6.716c0 .941-.094 1.431-.367 1.942-.173.322-.402.6-.68.824l-.003.798a1 1 0 0 1-1 1h-.6c-.552 0-1-.383-1-1.15H7.8c0 .753-.447 1.15-1 1.15h-.6a1 1 0 0 1-1-1l-.001-.798a2.7 2.7 0 0 1-.68-.824c-.251-.468-.351-.919-.366-1.716l-.002-6.941a.85.85 0 0 1-.45.129.86.86 0 0 1-.85-.85v-3a.85.85 0 0 1 1.3-.721v-.715c0-.941.094-1.431.367-1.942.254-.474.63-.85 1.105-1.104.468-.25.918-.351 1.715-.366zm-9.562 14.75a1.125 1.125 0 1 0 0 2.25 1.125 1.125 0 0 0 0-2.25m10.25 0a1.125 1.125 0 1 0 0 2.25 1.125 1.125 0 0 0 0-2.25m1.024-10.9h-12.3v8.63c2.324.355 4.434.52 6.151.52q2.642 0 6.149-.518zM9 3.175a.76.76 0 0 0-.75.75c0 .38.296.75.75.75h6a.74.74 0 0 0 .75-.75c0-.38-.36-.75-.75-.75z" clip-rule="evenodd"/></g><defs><clipPath id="a"><path fill="#fff" d="M0 0h24v24H0z"/></clipPath></defs></svg>