<svg xmlns="http://www.w3.org/2000/svg" width="16" height="16" fill="none"><g clip-path="url(#a)"><path fill="#1A1C1F" fill-rule="evenodd" d="M10.749 1.66c.753 0 1.145.076 1.553.294.38.203.681.505.884.884.17.317.253.625.282 1.1l.772.002v3.2h-.76v4.574c0 .375-.037.612-.14.84-.102.228-.331.523-.54.624v1.162h-2v-.92H5.2v.92h-2l-.001-1.16a1.4 1.4 0 0 1-.492-.529c-.121-.227-.174-.446-.185-.784a417 417 0 0 1-.002-4.728l-.76.001v-3.2l.772-.002c.029-.475.112-.783.282-1.1.203-.38.505-.681.884-.884.374-.2.735-.28 1.372-.292zM4.68 10.54a.8.8 0 1 0 0 1.6.8.8 0 0 0 0-1.6m6.555 0a.8.8 0 1 0 0 1.6.8.8 0 0 0 0-1.6m.885-6H3.88v4.706q2.06.309 4.12.309t4.12-.31zm-1.72-2H5.6v1.2h4.8z" clip-rule="evenodd"/></g><defs><clipPath id="a"><path fill="#fff" d="M0 0h16v16H0z"/></clipPath></defs></svg>