<svg xmlns="http://www.w3.org/2000/svg" width="24" height="24" fill="none"><g clip-path="url(#a)"><path fill="#1A1C1F" fill-rule="evenodd" d="M16.436 2c.964 0 1.477.1 2.012.385.5.268.9.666 1.167 1.167.262.49.367.962.383 1.78l.002.802A1 1 0 0 1 20.5 6c.513 0 1 .433 1 1v3a1 1 0 0 1-1.5.866v6.57c0 .964-.1 1.477-.385 2.012q-.241.45-.613.781L19 21a1 1 0 0 1-1 1h-1a1 1 0 0 1-1-1H8a1 1 0 0 1-1 1H6a1 1 0 0 1-1-1v-.77a2.8 2.8 0 0 1-.615-.782c-.262-.49-.367-.962-.383-1.78v-6.802A1 1 0 0 1 3.5 11c-.513 0-1-.426-1-1V7a1 1 0 0 1 1.501-.866L4 5.564c0-.964.1-1.477.385-2.012.268-.5.666-.9 1.167-1.167.49-.262 1.005-.385 1.842-.383zM12 15.15q-2.639 0-5.999-.441v2.897c.001.406 0 .763.299 1.075.298.313.7.318 1.094.318h9.212c.49 0 .87-.024 1.13-.317.262-.294.264-.722.263-1.076v-2.897q-3.36.441-5.999.441M8 16a1 1 0 1 1 0 2 1 1 0 0 1 0-2m8 0a1 1 0 1 1 0 2 1 1 0 0 1 0-2m.606-11.999c-.395-.004-8.725.003-9.212 0-.486-.003-.79.034-1.066.265-.275.23-.326.581-.327 1.128l.001 7.297Q9.4 13.15 12 13.15t5.998-.459q.002-6.823.001-7.297c-.001-.473.001-.759-.262-1.074s-.737-.315-1.131-.319M15 5a1 1 0 0 1 1 1c0 .513-.383 1-1 1H9a1 1 0 0 1-1-1c0-.513.424-1 1-.998z" clip-rule="evenodd"/></g><defs><clipPath id="a"><path fill="#fff" d="M0 0h24v24H0z"/></clipPath></defs></svg>