<svg xmlns="http://www.w3.org/2000/svg" width="28" height="28" fill="none"><g clip-path="url(#a)"><path fill="#1A1C1F" fill-rule="evenodd" d="M8.387 2.691h11.226c1.03.015 1.577.134 2.145.437.557.298 1 .74 1.297 1.298.304.568.423 1.115.437 2.145L23.494 21c0 .646-.068.996-.263 1.362a1.9 1.9 0 0 1-.48.586v1.485a.875.875 0 0 1-.876.875h-1.75a.875.875 0 0 1-.875-.875v-1.007H8.75v1.007a.875.875 0 0 1-.875.875h-1.75a.875.875 0 0 1-.875-.875v-1.485a1.9 1.9 0 0 1-.48-.586c-.176-.33-.249-.646-.262-1.177V6.571c.014-1.03.133-1.577.437-2.145.298-.558.74-1 1.297-1.298.568-.303 1.116-.422 2.145-.437m-1.08 16.274a1.313 1.313 0 1 0 0 2.626 1.313 1.313 0 0 0 0-2.626m13.387 0a1.313 1.313 0 1 0 0 2.626 1.313 1.313 0 0 0 0-2.626m1.312-12.031H5.995l-.001 9.662a53 53 0 0 0 8.006.619q4.003 0 8.006-.62zm3.369 1.02c.38 0 .744.306.738.743l.006 2.625c0 .41-.333.744-.744.744a.74.74 0 0 1-.738-.744l-.006-2.625c0-.41.333-.744.744-.744m-22.75 0a.74.74 0 0 1 .744.743v2.625a.744.744 0 1 1-1.488 0V8.697c0-.41.333-.744.744-.744m7-4.39a.75.75 0 0 0-.744.745c0 .379.3.743.744.743l8.76-.005c.421.005.734-.36.734-.738 0-.38-.297-.744-.733-.738z" clip-rule="evenodd"/></g><defs><clipPath id="a"><path fill="#fff" d="M0 0h28v28H0z"/></clipPath></defs></svg>