<svg width="14" height="14" viewBox="0 0 14 14" fill="none" xmlns="http://www.w3.org/2000/svg"><path d="M4.585 1.470 C 3.798 1.488,3.681 1.508,3.325 1.680 C 2.771 1.950,2.415 2.404,2.275 3.023 C 2.243 3.164,2.217 3.318,2.217 3.366 L 2.217 3.453 1.878 3.453 L 1.540 3.453 1.540 4.853 L 1.540 6.253 1.864 6.253 L 2.188 6.253 2.200 8.441 C 2.213 10.835,2.206 10.709,2.355 11.030 C 2.409 11.144,2.477 11.233,2.614 11.368 L 2.800 11.551 2.800 12.052 L 2.800 12.553 3.675 12.553 L 4.550 12.553 4.550 12.145 L 4.550 11.737 7.000 11.737 L 9.450 11.737 9.450 12.145 L 9.450 12.553 10.325 12.553 L 11.200 12.553 11.200 12.044 L 11.200 11.535 11.308 11.455 C 11.429 11.365,11.595 11.145,11.670 10.975 C 11.791 10.703,11.787 10.777,11.800 8.441 L 11.812 6.253 12.136 6.253 L 12.460 6.253 12.460 4.853 L 12.460 3.453 12.127 3.453 L 11.794 3.453 11.765 3.245 C 11.710 2.836,11.554 2.455,11.341 2.205 C 11.068 1.884,10.736 1.665,10.355 1.554 C 10.185 1.505,10.088 1.494,9.726 1.483 C 9.030 1.462,5.318 1.453,4.585 1.470 M9.100 2.742 L 9.100 3.267 7.000 3.267 L 4.900 3.267 4.900 2.742 L 4.900 2.217 7.000 2.217 L 9.100 2.217 9.100 2.742 M10.588 6.018 C 10.585 7.146,10.574 8.077,10.565 8.086 C 10.542 8.109,9.596 8.228,9.091 8.270 C 7.778 8.382,6.222 8.382,4.909 8.270 C 4.404 8.228,3.458 8.109,3.435 8.086 C 3.426 8.077,3.415 7.146,3.412 6.018 L 3.405 3.967 7.000 3.967 L 10.595 3.967 10.588 6.018 M4.413 9.316 C 4.841 9.538,4.908 10.110,4.544 10.445 C 4.415 10.564,4.303 10.604,4.095 10.604 C 4.005 10.604,3.891 10.589,3.840 10.572 C 3.718 10.530,3.557 10.377,3.481 10.233 C 3.428 10.132,3.419 10.086,3.419 9.917 C 3.419 9.757,3.429 9.699,3.470 9.622 C 3.553 9.466,3.633 9.387,3.785 9.311 C 3.905 9.251,3.955 9.240,4.097 9.240 C 4.242 9.240,4.287 9.251,4.413 9.316 M10.148 9.313 C 10.390 9.434,10.505 9.630,10.508 9.928 C 10.510 10.151,10.464 10.258,10.291 10.431 C 10.116 10.607,9.902 10.654,9.632 10.579 C 9.472 10.534,9.317 10.408,9.222 10.247 C 9.165 10.150,9.158 10.115,9.158 9.928 C 9.158 9.678,9.213 9.545,9.376 9.402 C 9.505 9.288,9.631 9.244,9.837 9.242 C 9.978 9.240,10.024 9.251,10.148 9.313 " fill="#1A1C1F" stroke="none" fill-rule="evenodd"></path></svg>