<svg xmlns="http://www.w3.org/2000/svg" width="32" height="32" fill="none"><g clip-path="url(#a)"><path fill="#1A1C1F" fill-rule="evenodd" d="M9.58 2h12.84c1.197.018 1.845.158 2.517.518.663.354 1.19.88 1.544 1.544.36.672.5 1.32.517 2.518L27 23.435c0 .964-.099 1.477-.385 2.012q-.241.451-.613.782L26 27.717c0 .557 0 2.296-2.282 2.282q-.782-.005-1.436 0c-2.264 0-2.264-1.64-2.279-2.083L20 26.999h-8v.718c0 .557 0 2.282-2.282 2.282H8.282C6 30 6 28.4 6 27.717v-1.488a2.8 2.8 0 0 1-.614-.782c-.263-.49-.368-.962-.384-1.78L5 6.845c0-1.37.134-2.063.52-2.783a3.73 3.73 0 0 1 1.543-1.544c.673-.36 1.32-.5 2.518-.517M8.008 27l-.006 1h2v-1zm15.995 0h-2v1h2zM25 23.435v-3.348c-3.218.508-5.78.662-9 .662q-4.5 0-8.998-.662.006 3.34-.002 3.58c-.008.24-.003.7.283 1.015.286.316.678.316 1.461.316h14.862c.396 0 .851-.011 1.123-.316C25 24.378 25 24 25 23.435m-14.75-1.936a1.25 1.25 0 1 1 0 2.5 1.25 1.25 0 0 1 0-2.5m11.5 0a1.25 1.25 0 1 1 0 2.5 1.25 1.25 0 0 1 0-2.5M9.428 4.004c-.76.019-1.086.098-1.421.277q-.472.253-.724.724c-.18.335-.26.663-.278 1.422v11.638c2.841.467 6.227.684 8.995.684q4.5 0 9-.684l-.01-11.82c-.027-.632-.108-.933-.272-1.24a1.73 1.73 0 0 0-.724-.724c-.335-.179-.663-.258-1.422-.277zM29 7.014c.513 0 1 .44 1 1v4a1 1 0 0 1-1 1c-.513 0-1-.423-1-1v-4a1 1 0 0 1 1-1m-26 0c.513 0 1 .41 1 .985v4.015a1 1 0 0 1-1 1c-.513 0-1-.424-1-1v-4a1 1 0 0 1 1-1M21 6a1 1 0 1 1 0 2H11a1 1 0 0 1-1-1c0-.513.425-1 1-1z" clip-rule="evenodd"/></g><defs><clipPath id="a"><path fill="#fff" d="M0 0h32v32H0z"/></clipPath></defs></svg>