<svg width="24" height="24" viewBox="0 0 24 24" fill="none" xmlns="http://www.w3.org/2000/svg"><path d="M7.540 2.036 L 6.420 2.062 6.020 2.202 C 5.537 2.372,5.252 2.554,4.861 2.946 C 4.543 3.264,4.377 3.519,4.223 3.927 C 4.084 4.296,4.040 4.593,4.007 5.360 C 3.991 5.731,3.967 6.047,3.953 6.060 C 3.940 6.074,3.823 6.063,3.694 6.037 C 3.356 5.967,3.065 6.057,2.802 6.312 C 2.504 6.600,2.503 6.609,2.502 8.500 C 2.501 10.379,2.502 10.386,2.797 10.681 C 3.062 10.946,3.343 11.036,3.686 10.965 C 3.819 10.938,3.940 10.927,3.954 10.941 C 3.968 10.955,3.991 12.653,4.005 14.713 C 4.027 18.000,4.038 18.489,4.095 18.700 C 4.202 19.093,4.530 19.714,4.772 19.981 L 4.990 20.222 5.006 20.762 C 5.021 21.262,5.030 21.316,5.130 21.487 C 5.262 21.712,5.434 21.862,5.631 21.924 C 5.847 21.991,6.940 22.018,7.208 21.962 C 7.330 21.937,7.490 21.872,7.564 21.817 C 7.735 21.691,7.913 21.427,7.970 21.215 L 8.014 21.050 8.277 21.025 C 8.422 21.012,10.214 21.000,12.261 21.000 L 15.981 21.000 16.030 21.208 C 16.090 21.459,16.249 21.699,16.439 21.824 C 16.661 21.970,16.942 22.010,17.634 21.992 C 18.342 21.974,18.457 21.941,18.699 21.695 C 18.932 21.457,18.972 21.327,18.992 20.741 L 19.010 20.222 19.227 19.981 C 19.467 19.714,19.799 19.088,19.906 18.700 C 19.964 18.487,19.974 18.032,19.990 14.667 C 20.007 11.164,20.013 10.876,20.074 10.900 C 20.443 11.042,20.788 11.007,21.076 10.798 C 21.350 10.600,21.445 10.414,21.488 9.990 C 21.545 9.428,21.509 6.855,21.441 6.680 C 21.255 6.197,20.745 5.940,20.195 6.052 C 20.015 6.089,20.001 6.053,20.001 5.534 C 19.999 4.635,19.853 3.952,19.555 3.454 C 19.268 2.976,18.560 2.392,18.055 2.220 C 17.514 2.035,17.543 2.036,12.980 2.023 C 10.604 2.016,8.156 2.022,7.540 2.036 M17.239 4.065 C 17.517 4.109,17.737 4.280,17.884 4.568 C 17.957 4.711,17.960 4.868,17.960 8.712 L 17.960 12.708 17.230 12.794 C 15.045 13.054,13.886 13.128,12.000 13.128 C 10.114 13.128,8.955 13.054,6.770 12.794 L 6.040 12.708 6.040 8.733 L 6.040 4.757 6.136 4.569 C 6.236 4.373,6.337 4.263,6.538 4.135 C 6.647 4.066,6.779 4.058,8.158 4.037 C 9.887 4.011,17.031 4.033,17.239 4.065 M9.060 5.037 C 8.799 5.052,8.618 5.083,8.540 5.127 C 8.386 5.212,8.189 5.422,8.096 5.600 C 7.995 5.794,7.997 6.207,8.100 6.418 C 8.201 6.626,8.448 6.862,8.632 6.928 C 8.749 6.969,9.458 6.980,12.040 6.980 L 15.300 6.980 15.492 6.867 C 16.007 6.564,16.144 5.904,15.792 5.415 C 15.594 5.139,15.460 5.076,14.988 5.037 C 14.543 5.000,9.708 5.000,9.060 5.037 M7.240 14.859 C 10.783 15.247,13.217 15.247,16.760 14.859 C 17.255 14.805,17.739 14.749,17.836 14.735 L 18.012 14.709 17.991 16.486 C 17.971 18.200,17.967 18.269,17.885 18.431 C 17.763 18.669,17.557 18.859,17.355 18.921 C 17.131 18.990,7.861 19.028,7.108 18.964 C 6.584 18.919,6.449 18.864,6.262 18.619 C 6.033 18.318,6.033 18.324,6.010 16.446 L 5.988 14.709 6.164 14.735 C 6.261 14.749,6.745 14.805,7.240 14.859 M7.773 16.036 C 6.752 16.295,6.764 17.729,7.790 17.965 C 8.728 18.182,9.383 17.011,8.710 16.322 C 8.472 16.078,8.080 15.959,7.773 16.036 M15.773 16.036 C 15.384 16.135,15.065 16.480,15.020 16.853 C 14.903 17.801,16.003 18.367,16.680 17.708 C 16.952 17.444,17.057 17.060,16.953 16.712 C 16.894 16.517,16.639 16.221,16.441 16.120 C 16.265 16.031,15.952 15.991,15.773 16.036 " fill="#1A1C1F" stroke="none" fill-rule="evenodd"></path></svg>