<svg xmlns="http://www.w3.org/2000/svg" width="14" height="14" fill="none"><g clip-path="url(#a)"><path fill="#1A1C1F" fill-rule="evenodd" d="M9.405 1.4c.675 0 1.034.07 1.409.27.35.187.629.466.816.816.157.294.234.578.26 1.013l.71.001v2.8h-.7v4.003c0 .338-.04.638-.176.869a1.43 1.43 0 0 1-.524.535v.893H9.45v-.7h-4.9v.7H2.8v-.892a1.34 1.34 0 0 1-.524-.536c-.114-.214-.163-.42-.174-.73L2.1 6.3h-.7V3.5l.71-.001c.026-.435.103-.72.26-1.013.187-.35.466-.629.816-.816.343-.184.724-.27 1.29-.269zM4.536 8.925h-1.05v1.05h1.05zm6.026 0h-1.05v1.05h1.05zM9.524 2.801H4.476c-.225 0-.527 0-.747.188-.221.188-.227.512-.228.787q-.001.274.001 3.748A46 46 0 0 0 7 7.676q1.526 0 3.498-.152l.001-3.748c0-.295-.006-.6-.224-.787s-.491-.188-.751-.188M9.1 3.5v1.19H4.9V3.5z" clip-rule="evenodd"/></g><defs><clipPath id="a"><path fill="#fff" d="M0 0h14v14H0z"/></clipPath></defs></svg>