<svg xmlns="http://www.w3.org/2000/svg" width="12" height="12" fill="none"><g clip-path="url(#a)"><path fill="#1A1C1F" fill-rule="evenodd" d="M8.062 1.2c.578 0 .886.06 1.207.231.3.16.54.4.7.7.134.252.2.496.222.868L10.8 3v2.4h-.6v3.43c0 .291-.035.548-.151.746a1.2 1.2 0 0 1-.449.458v.766H8.1v-.6H3.9v.6H2.4v-.764a1.15 1.15 0 0 1-.449-.46c-.098-.184-.14-.36-.15-.626L1.8 5.4h-.6V3h.609c.022-.373.087-.617.222-.87.16-.3.4-.538.7-.699.294-.157.62-.231 1.106-.23zM3.888 7.65h-.9v.9h.9zm5.165 0h-.9v.9h.9zm-.89-5.25H3.837c-.194 0-.452 0-.641.162-.19.162-.194.44-.195.675v3.212q1.692.13 2.999.13 1.306 0 2.998-.13L9 3.237c0-.253-.005-.514-.192-.675-.187-.16-.421-.16-.644-.161M7.8 3v1.02H4.2V3z" clip-rule="evenodd"/></g><defs><clipPath id="a"><path fill="#fff" d="M0 0h12v12H0z"/></clipPath></defs></svg>