<svg width="28" height="28" viewBox="0 0 28 28" fill="none" xmlns="http://www.w3.org/2000/svg"><path d="M7.023 1.889 C 5.824 2.213,4.976 2.994,4.597 4.125 C 4.498 4.418,4.464 4.642,4.428 5.225 C 4.360 6.307,4.401 21.326,4.472 21.626 C 4.553 21.966,4.717 22.292,4.980 22.640 L 5.216 22.950 5.238 23.877 C 5.264 24.941,5.331 25.243,5.634 25.641 C 5.960 26.068,6.433 26.222,7.539 26.260 C 9.823 26.339,10.498 25.833,10.500 24.045 L 10.500 23.613 13.993 23.613 L 17.487 23.613 17.513 24.255 C 17.550 25.183,17.689 25.537,18.149 25.873 C 18.546 26.163,19.055 26.271,20.020 26.272 C 20.795 26.272,21.399 26.204,21.731 26.080 C 22.090 25.946,22.496 25.542,22.607 25.208 C 22.710 24.899,22.771 24.285,22.773 23.557 L 22.773 22.965 23.014 22.647 C 23.146 22.473,23.301 22.225,23.356 22.097 C 23.603 21.531,23.590 22.024,23.589 13.067 L 23.589 4.737 23.459 4.322 C 23.388 4.094,23.277 3.795,23.212 3.658 C 22.909 3.018,22.350 2.477,21.626 2.125 C 21.274 1.954,21.119 1.907,20.782 1.868 C 20.522 1.838,17.955 1.822,13.813 1.823 C 8.462 1.826,7.214 1.838,7.023 1.889 M19.273 3.540 L 20.557 3.572 20.860 3.715 C 21.287 3.917,21.440 4.064,21.635 4.458 L 21.805 4.802 21.848 8.743 C 21.892 12.829,21.886 15.743,21.833 15.796 C 21.759 15.870,19.102 16.179,17.523 16.297 C 16.436 16.379,11.556 16.378,10.453 16.296 C 8.617 16.159,6.254 15.883,6.165 15.794 C 6.117 15.746,6.106 7.525,6.152 6.160 C 6.201 4.723,6.232 4.559,6.522 4.177 C 6.657 3.999,6.787 3.899,7.065 3.757 L 7.431 3.570 8.697 3.545 C 10.571 3.507,17.794 3.504,19.273 3.540 M9.732 5.308 C 9.317 5.322,9.250 5.337,9.110 5.444 C 8.877 5.621,8.774 5.819,8.774 6.087 C 8.773 6.399,8.922 6.694,9.161 6.851 L 9.350 6.977 14.004 6.977 L 18.659 6.977 18.861 6.835 C 19.016 6.726,19.089 6.629,19.172 6.419 C 19.270 6.173,19.276 6.125,19.224 5.942 C 19.193 5.829,19.089 5.649,18.993 5.541 C 18.819 5.345,18.818 5.345,18.404 5.313 C 17.998 5.282,10.646 5.278,9.732 5.308 M2.263 6.230 C 2.075 6.333,1.920 6.481,1.827 6.650 C 1.759 6.774,1.750 7.014,1.750 8.727 L 1.750 10.663 1.861 10.888 C 2.112 11.400,2.741 11.533,3.176 11.167 C 3.478 10.913,3.475 10.932,3.492 9.007 C 3.500 8.044,3.494 7.126,3.477 6.967 C 3.424 6.468,3.167 6.216,2.671 6.176 C 2.479 6.161,2.364 6.176,2.263 6.230 M25.045 6.225 C 24.833 6.304,24.705 6.413,24.600 6.603 C 24.532 6.727,24.523 6.976,24.523 8.777 L 24.523 10.811 24.652 10.979 C 24.874 11.270,25.046 11.363,25.367 11.363 C 25.737 11.363,26.002 11.200,26.149 10.882 C 26.247 10.669,26.250 10.613,26.250 8.727 C 26.250 6.874,26.246 6.783,26.157 6.632 C 26.105 6.545,25.988 6.412,25.895 6.337 C 25.690 6.171,25.320 6.122,25.045 6.225 M7.420 17.754 C 9.738 18.046,11.068 18.117,14.163 18.118 C 17.360 18.119,18.571 18.048,20.833 17.731 C 21.370 17.656,21.822 17.606,21.837 17.621 C 21.875 17.660,21.864 21.093,21.825 21.244 C 21.780 21.419,21.535 21.687,21.321 21.796 C 21.148 21.885,20.980 21.887,14.024 21.887 C 7.703 21.887,6.884 21.879,6.731 21.814 C 6.507 21.721,6.361 21.582,6.242 21.351 C 6.153 21.177,6.145 21.059,6.123 19.550 C 6.111 18.661,6.115 17.856,6.133 17.760 C 6.165 17.590,6.169 17.587,6.338 17.613 C 6.433 17.628,6.920 17.692,7.420 17.754 M8.676 18.870 C 8.022 19.049,7.703 19.774,8.008 20.385 C 8.145 20.659,8.334 20.824,8.631 20.929 C 8.912 21.028,9.132 21.017,9.405 20.890 C 10.072 20.579,10.255 19.756,9.783 19.195 C 9.538 18.905,9.059 18.764,8.676 18.870 M18.713 18.880 C 18.258 19.018,17.967 19.415,17.967 19.896 C 17.967 20.366,18.170 20.687,18.597 20.889 C 19.127 21.139,19.732 20.915,19.999 20.370 C 20.406 19.537,19.606 18.608,18.713 18.880 M8.727 24.057 L 8.727 24.500 7.863 24.500 L 7.000 24.500 7.000 24.057 L 7.000 23.613 7.863 23.613 L 8.727 23.613 8.727 24.057 M21.000 24.057 L 21.000 24.500 20.137 24.500 L 19.273 24.500 19.273 24.057 L 19.273 23.613 20.137 23.613 L 21.000 23.613 21.000 24.057 " fill="#1A1C1F" stroke="none" fill-rule="evenodd"></path></svg>