<svg width="20" height="20" viewBox="0 0 20 20" fill="none" xmlns="http://www.w3.org/2000/svg"><path d="M6.533 2.101 C 5.426 2.126,5.257 2.154,4.750 2.400 C 3.958 2.785,3.447 3.438,3.250 4.317 C 3.204 4.518,3.167 4.740,3.167 4.808 L 3.167 4.933 2.683 4.933 L 2.200 4.933 2.200 6.933 L 2.200 8.933 2.663 8.933 L 3.125 8.933 3.143 12.058 C 3.162 15.477,3.151 15.300,3.364 15.755 C 3.439 15.914,3.541 16.049,3.734 16.242 L 4.000 16.508 4.000 17.221 L 4.000 17.933 5.250 17.933 L 6.500 17.933 6.500 17.350 L 6.500 16.767 10.000 16.767 L 13.500 16.767 13.500 17.350 L 13.500 17.933 14.750 17.933 L 16.000 17.933 16.000 17.206 L 16.000 16.479 16.154 16.365 C 16.327 16.235,16.565 15.921,16.672 15.679 C 16.844 15.291,16.838 15.395,16.857 12.058 L 16.875 8.933 17.338 8.933 L 17.800 8.933 17.800 6.933 L 17.800 4.933 17.324 4.933 L 16.848 4.933 16.808 4.635 C 16.728 4.052,16.506 3.508,16.202 3.150 C 15.811 2.690,15.345 2.383,14.782 2.214 L 14.483 2.125 11.850 2.098 C 8.893 2.069,7.908 2.069,6.533 2.101 M13.000 3.917 L 13.000 4.667 10.000 4.667 L 7.000 4.667 7.000 3.917 L 7.000 3.167 10.000 3.167 L 13.000 3.167 13.000 3.917 M15.126 8.597 C 15.121 10.209,15.106 11.538,15.093 11.551 C 15.060 11.585,13.709 11.754,12.987 11.815 C 11.112 11.974,8.888 11.974,7.013 11.815 C 6.291 11.754,4.940 11.585,4.907 11.551 C 4.894 11.538,4.879 10.209,4.874 8.597 L 4.865 5.667 10.000 5.667 L 15.135 5.667 15.126 8.597 M6.304 13.309 C 6.916 13.625,7.011 14.443,6.492 14.922 C 6.308 15.092,6.148 15.148,5.850 15.148 C 5.722 15.148,5.558 15.128,5.486 15.103 C 5.312 15.043,5.081 14.825,4.972 14.618 C 4.897 14.475,4.884 14.408,4.884 14.167 C 4.884 13.939,4.898 13.856,4.957 13.746 C 5.076 13.523,5.190 13.410,5.407 13.302 C 5.578 13.216,5.649 13.200,5.852 13.200 C 6.060 13.200,6.124 13.215,6.304 13.309 M14.497 13.304 C 14.842 13.476,15.007 13.757,15.012 14.183 C 15.015 14.420,15.004 14.470,14.917 14.629 C 14.528 15.335,13.587 15.341,13.174 14.638 C 13.093 14.500,13.083 14.450,13.083 14.183 C 13.083 13.825,13.162 13.635,13.394 13.431 C 13.579 13.268,13.758 13.206,14.053 13.203 C 14.254 13.200,14.320 13.216,14.497 13.304 " fill="#1A1C1F" stroke="none" fill-rule="evenodd"></path></svg>