<svg width="28" height="28" viewBox="0 0 28 28" fill="none" xmlns="http://www.w3.org/2000/svg"><path d="M7.210 2.785 C 6.205 3.010,5.330 3.675,4.914 4.529 C 4.647 5.076,4.576 5.419,4.526 6.404 C 4.475 7.417,4.473 19.189,4.524 20.767 C 4.565 22.030,4.603 22.187,4.994 22.672 L 5.217 22.949 5.235 23.759 C 5.254 24.637,5.310 24.866,5.559 25.091 C 5.744 25.258,5.993 25.293,7.000 25.293 C 7.545 25.293,8.037 25.271,8.143 25.242 C 8.578 25.123,8.736 24.807,8.764 23.998 L 8.785 23.427 14.000 23.427 L 19.215 23.427 19.236 23.998 C 19.264 24.807,19.422 25.123,19.857 25.242 C 19.963 25.271,20.455 25.293,21.000 25.293 C 22.007 25.293,22.256 25.258,22.441 25.091 C 22.690 24.866,22.746 24.637,22.765 23.759 L 22.783 22.949 23.006 22.672 C 23.411 22.170,23.434 22.064,23.482 20.487 C 23.540 18.588,23.498 6.050,23.432 5.626 C 23.308 4.829,23.019 4.250,22.474 3.707 C 22.169 3.403,22.006 3.284,21.625 3.090 C 21.218 2.883,21.095 2.843,20.738 2.802 C 20.333 2.755,7.414 2.739,7.210 2.785 M17.521 3.634 L 18.779 3.663 18.933 3.865 C 19.060 4.032,19.087 4.108,19.087 4.303 C 19.087 4.584,18.960 4.818,18.744 4.936 C 18.607 5.011,18.269 5.017,14.070 5.017 C 11.580 5.017,9.465 5.000,9.369 4.980 C 8.846 4.869,8.757 4.031,9.234 3.707 L 9.402 3.593 12.832 3.599 C 14.719 3.603,16.829 3.619,17.521 3.634 M21.971 11.756 C 21.963 14.398,21.943 16.572,21.927 16.588 C 21.890 16.625,20.867 16.771,19.787 16.892 C 15.511 17.375,10.988 17.312,6.750 16.710 C 6.394 16.659,6.089 16.605,6.073 16.588 C 6.057 16.572,6.037 14.398,6.029 11.756 L 6.014 6.953 14.000 6.953 L 21.986 6.953 21.971 11.756 M2.303 8.052 C 2.059 8.177,1.946 8.332,1.908 8.599 C 1.889 8.733,1.873 9.410,1.872 10.103 C 1.870 11.642,1.902 11.773,2.321 11.972 C 2.663 12.134,3.085 12.011,3.256 11.697 C 3.326 11.569,3.339 11.371,3.351 10.158 C 3.368 8.524,3.342 8.322,3.097 8.135 C 2.891 7.979,2.522 7.940,2.303 8.052 M25.037 8.051 C 24.653 8.259,24.631 8.378,24.649 10.158 C 24.662 11.393,24.673 11.567,24.747 11.704 C 24.881 11.948,25.082 12.048,25.399 12.028 C 25.704 12.008,25.871 11.909,26.017 11.662 C 26.105 11.512,26.110 11.419,26.110 10.010 C 26.110 8.361,26.106 8.333,25.807 8.120 C 25.617 7.985,25.224 7.949,25.037 8.051 M7.668 19.043 C 8.174 19.171,8.587 19.714,8.587 20.252 C 8.587 20.783,8.329 21.214,7.877 21.439 C 7.685 21.535,7.568 21.560,7.306 21.559 C 6.767 21.557,6.410 21.345,6.170 20.883 C 5.996 20.550,5.992 20.004,6.160 19.676 C 6.434 19.139,7.040 18.884,7.668 19.043 M21.122 19.062 C 21.417 19.150,21.692 19.384,21.840 19.676 C 22.008 20.004,22.004 20.550,21.830 20.883 C 21.590 21.345,21.233 21.557,20.694 21.559 C 20.432 21.560,20.315 21.535,20.123 21.439 C 19.475 21.116,19.229 20.356,19.560 19.695 C 19.849 19.117,20.465 18.867,21.122 19.062 " fill="#1A1C1F" stroke="none" fill-rule="evenodd"></path></svg>