<svg xmlns="http://www.w3.org/2000/svg" width="20" height="20" fill="none"><g clip-path="url(#a)"><path fill="#1A1C1F" fill-rule="evenodd" d="M13.436 2c.964 0 1.477.1 2.012.385.5.268.9.666 1.167 1.167.224.42.334.826.37 1.446L18 5v4h-1v5.718c0 .484-.058.913-.252 1.242-.194.33-.458.608-.748.764V18h-2.5v-1h-7v1H4v-1.274a1.9 1.9 0 0 1-.748-.766c-.164-.306-.234-.6-.249-1.043L3 9H2V5l1.015-.002c.036-.62.146-1.027.37-1.446.268-.5.666-.9 1.167-1.167.49-.262 1.034-.385 1.842-.383zM6.48 12.75h-1.5v1.5h1.5zm8.609 0h-1.5v1.5h1.5zm-1.483-8.749H6.394c-.321 0-.752 0-1.067.27-.316.268-.324.731-.326 1.123q-.002.393.002 5.354 2.819.217 4.997.217a66 66 0 0 0 4.997-.217l.002-5.354c0-.42-.008-.856-.32-1.124s-.702-.268-1.073-.269M13 5v1.7H7V5z" clip-rule="evenodd"/></g><defs><clipPath id="a"><path fill="#fff" d="M0 0h20v20H0z"/></clipPath></defs></svg>