<svg xmlns="http://www.w3.org/2000/svg" width="32" height="32" fill="none"><path fill="#1A1C1F" fill-rule="evenodd" d="M12.773 5.073c-1.624.067-3.258.198-3.621.292a3.66 3.66 0 0 0-1.505.853c-.535.534-.61.742-1.441 3.955l-.735 2.84-1.362.002c-1.213.001-1.386.012-1.581.1-.435.197-.583.62-.543 1.548C2.03 15.728 2.319 16 3.403 16h.58l.034.815c.03.733.164 2.147.382 4.038.083.716.208 1.153.441 1.543l.147.244.026 1.551.027 1.55.161.314c.185.363.463.598.917.778.288.114.402.123 1.72.143.949.013 1.516-.001 1.732-.043.619-.122 1.037-.43 1.266-.933.1-.221.124-.382.141-.946l.02-.68.222.039c.297.052 8.135.051 9.061-.001l.733-.041v.551c0 .909.218 1.382.797 1.729.491.295.871.347 2.411.325 1.261-.018 1.373-.028 1.661-.142.454-.181.732-.417.917-.779l.161-.314.016-1.515.017-1.514.152-.25c.243-.396.376-.878.484-1.749a65 65 0 0 0 .351-3.926l.036-.787h.58c1.057 0 1.367-.276 1.419-1.26.046-.883-.059-1.259-.432-1.535-.142-.105-.235-.113-1.6-.138l-1.449-.027-.752-2.885c-.414-1.586-.813-3.014-.886-3.173-.355-.769-1.125-1.381-2.038-1.619-1.017-.264-6.706-.428-10.085-.29m5.04 1.967c1.808.048 4.166.177 4.507.245.254.051.595.272.71.461.104.17 1.437 5.191 1.39 5.238-.012.013-.478.002-1.035-.024-2.806-.13-7.388-.18-10.572-.115a246 246 0 0 0-4.197.115c-.557.027-1.023.038-1.036.024s.27-1.159.63-2.544c.433-1.665.698-2.586.779-2.714.166-.258.517-.421 1.027-.476.784-.083 2.392-.169 3.877-.207l1.76-.046c.147-.004 1.119.016 2.16.043m3.227 7.841c2.876.085 3.97.146 4.27.236.474.143.618.387.653 1.109.013.286.015.521.004.522l-1.179.153c-.985.127-1.187.169-1.347.278-.217.146-.455.576-.453.818.001.219.164.557.352.733.309.289.525.309 1.7.155.411-.054.752-.094.758-.089s-.046.541-.117 1.191c-.133 1.228-.203 1.497-.427 1.644-.355.233-2.988.631-5.147.779-1.312.09-6.718.09-8.08 0-2.985-.197-4.783-.477-5.268-.821-.253-.179-.302-.356-.438-1.6a33 33 0 0 1-.119-1.193c.006-.005.419.04.918.099 1.029.123 1.227.105 1.497-.132.322-.283.442-.634.343-1.002-.073-.271-.376-.617-.604-.688-.093-.029-.589-.104-1.103-.165-1.376-.166-1.226-.092-1.226-.606 0-.776.139-1.028.647-1.18.271-.081 2.598-.209 4.686-.257 1.821-.042 8.082-.032 9.68.016m-9.147 2.697c-.249.108-.519.376-.582.578-.027.09-.114.551-.191 1.025-.166 1.013-.145 1.181.187 1.512.342.343.808.4 1.217.149.275-.169.425-.444.498-.909l.064-.413h5.828l.063.402c.072.468.157.653.384.844a1 1 0 0 0 1.601-.508c.048-.178.034-.369-.082-1.077-.174-1.062-.2-1.148-.414-1.355-.358-.347-.172-.333-4.478-.331-3.368.002-3.934.014-4.095.083m13.12 6.822v.613h-2.031l.016-.437.015-.437.694-.118a48 48 0 0 0 1.266-.228c.022-.004.04.27.04.607M8 24.023l.893.17c.112.021.12.05.12.421v.399H6.987v-.593c0-.586.001-.592.12-.568.066.014.468.091.893.171"/></svg>