<svg xmlns="http://www.w3.org/2000/svg" width="32" height="32" fill="none"><path fill="#1A1C1F" fill-rule="evenodd" d="M14 5.55c-2.019.077-4.85.266-5.162.344-.776.196-1.374.673-1.71 1.367-.139.285-.396 1.166-.942 3.219a828 828 0 0 1-.779 2.92c-.025.086-.136.093-1.317.095-1.401.001-1.563.029-1.833.325-.194.211-.23.395-.23 1.172 0 .804.051 1 .328 1.258.206.192.392.23 1.115.23h.69v.587c0 .622.393 4.892.484 5.253.029.117.111.357.181.533.12.3.13.401.149 1.574.023 1.397.046 1.507.375 1.796.283.249.607.296 1.87.275 1.031-.017 1.089-.024 1.341-.153.399-.206.513-.467.548-1.259l.028-.621.885.036c4.544.185 8.132.182 12.206-.012l.76-.036v.491c0 .955.178 1.309.744 1.477.347.103 2.123.122 2.566.027.342-.074.646-.333.734-.626.04-.134.062-.674.062-1.524 0-1.033.017-1.348.076-1.463a3 3 0 0 0 .157-.464c.106-.409.46-4.018.499-5.078l.03-.813h.715c.759 0 .898-.034 1.117-.275.251-.276.286-.425.286-1.212 0-.778-.036-.962-.23-1.173-.27-.295-.433-.324-1.826-.325l-1.283-.002-.709-2.946c-.522-2.171-.754-3.038-.877-3.294-.32-.66-1.072-1.247-1.875-1.463-.764-.205-6.281-.349-9.173-.24m4.909 1.705c3.239.094 3.925.132 4.104.225.196.102.415.332.52.547.096.194 1.344 5.407 1.305 5.446-.016.016-.829-.003-1.807-.042-2.418-.096-11.649-.096-14.062 0-.978.039-1.789.06-1.801.048-.017-.017 1.237-4.754 1.398-5.283.05-.163.346-.463.568-.577.184-.093.44-.121 1.952-.211 3.616-.216 4.816-.24 7.823-.153M8.086 17.41c1.341.138 1.469.174 1.709.49.115.151.152.265.169.524.034.54-.213.896-.724 1.039-.186.052-2.644-.164-3.011-.265-.829-.228-.967-1.411-.211-1.81.259-.137.557-.134 2.068.022m18.017.05c.231.176.401.508.401.78 0 .414-.332.848-.733.958-.109.03-.792.113-1.518.184-1.466.143-1.571.135-1.889-.144a.976.976 0 0 1-.204-1.242c.232-.397.35-.437 1.689-.581.655-.07 1.385-.123 1.622-.118.385.009.452.026.632.163m-6.368.674c.356.182.45.395.613 1.381.083.501.134.984.119 1.131-.086.903-1.353 1.152-1.801.355a2.3 2.3 0 0 1-.178-.588l-.065-.386-2.411-.014c-1.327-.008-2.412-.004-2.412.008 0 .22-.19.899-.296 1.059-.462.699-1.63.435-1.765-.399-.045-.275.227-1.888.364-2.163a.9.9 0 0 1 .332-.36l.218-.13 3.536-.001c3.442 0 3.541.003 3.746.107"/></svg>