<svg xmlns="http://www.w3.org/2000/svg" width="16" height="16" fill="none"><g clip-path="url(#a)"><path fill="#1A1C1F" fill-rule="evenodd" d="M10.905 2.777c.672 0 1.312.475 1.487 1.128q.175.652.65 2.872H14.4v1.6h-.884q-.18 1.638-.24 2.103t-.475.957v1.786H10.8V12.17a19.1 19.1 0 0 1-5.6 0l-.005 1.053H3.2v-1.785a2 2 0 0 1-.5-1.116 317 317 0 0 1-.217-1.945H1.6v-1.6h1.357l.609-2.745c.19-.644.754-1.25 1.47-1.25zM6.91 9.184a.6.6 0 0 0-.464.361l-.243.967c-.029.264.094.504.389.625.294.12.66-.084.762-.33l.114-.43h1.063l.112.423a.6.6 0 0 0 1.153-.288l-.242-.967a.6.6 0 0 0-.464-.361zm-2.975-.525a.6.6 0 0 0-.349 1.146l1.248.294a.6.6 0 0 0 .348-1.146zm8.858.45a.6.6 0 0 0-.639-.463l-1.25.283a.6.6 0 0 0 .19 1.183l1.25-.283a.6.6 0 0 0 .45-.72m-1.627-4.972H4.835l-.515 2.64h7.36z" clip-rule="evenodd"/></g><defs><clipPath id="a"><path fill="#fff" d="M0 0h16v16H0z"/></clipPath></defs></svg>