<svg xmlns="http://www.w3.org/2000/svg" width="20" height="20" fill="none"><g clip-path="url(#a)"><path fill="#1A1C1F" fill-rule="evenodd" d="M13.63 3.471c.842 0 1.641.594 1.86 1.41q.219.816.813 3.59H18v2h-1.105q-.225 2.049-.3 2.63-.075.58-.594 1.195v2.233H13.5v-1.317a23.9 23.9 0 0 1-7 0l-.007 1.317H4v-2.232a2.5 2.5 0 0 1-.625-1.395q-.09-.784-.271-2.43H2v-2h1.696l.761-3.432c.238-.806.943-1.562 1.838-1.562zM8.638 11.48a.75.75 0 0 0-.579.452l-.304 1.208c-.036.33.118.63.486.781.368.15.825-.105.952-.412l.143-.538h1.329l.14.53a.75.75 0 0 0 1.442-.361l-.304-1.208a.75.75 0 0 0-.58-.452zm-3.719-.656a.75.75 0 0 0-.435 1.432l1.56.367a.75.75 0 0 0 .434-1.432zm11.074.562a.75.75 0 0 0-.799-.578l-1.562.354a.75.75 0 0 0 .236 1.477l1.563-.353a.75.75 0 0 0 .562-.9m-2.034-6.215H6.043l-.643 3.3h9.2z" clip-rule="evenodd"/></g><defs><clipPath id="a"><path fill="#fff" d="M0 0h20v20H0z"/></clipPath></defs></svg>