<svg width="28" height="28" viewBox="0 0 28 28" fill="none" xmlns="http://www.w3.org/2000/svg"><path d="M12.787 4.861 C 11.377 4.890,9.563 4.984,8.377 5.090 C 7.545 5.164,7.163 5.304,6.754 5.686 C 6.206 6.199,6.154 6.347,5.085 10.407 C 4.899 11.113,4.718 11.714,4.682 11.743 C 4.639 11.778,4.234 11.803,3.487 11.815 C 2.278 11.836,2.200 11.850,1.976 12.094 C 1.826 12.258,1.774 12.519,1.774 13.113 C 1.774 13.738,1.820 13.944,2.009 14.159 C 2.189 14.364,2.423 14.420,3.101 14.420 L 3.640 14.420 3.640 14.837 C 3.640 15.308,3.725 16.394,3.901 18.177 C 4.003 19.212,4.042 19.451,4.164 19.810 C 4.301 20.213,4.308 20.274,4.341 21.303 C 4.360 21.894,4.400 22.464,4.429 22.571 C 4.490 22.796,4.712 23.013,4.978 23.107 C 5.108 23.153,5.442 23.170,6.207 23.170 C 7.355 23.170,7.456 23.150,7.710 22.876 C 7.883 22.690,7.938 22.482,7.968 21.915 L 7.994 21.408 8.675 21.439 C 12.128 21.596,15.643 21.596,19.326 21.440 L 20.101 21.406 20.122 21.945 C 20.148 22.633,20.251 22.870,20.604 23.052 C 20.831 23.169,20.848 23.170,21.932 23.170 C 22.915 23.170,23.047 23.161,23.193 23.083 C 23.664 22.831,23.675 22.794,23.710 21.303 C 23.736 20.195,23.751 20.012,23.835 19.781 C 23.998 19.333,24.360 15.894,24.360 14.790 L 24.360 14.420 24.932 14.420 C 25.619 14.419,25.801 14.375,25.987 14.163 C 26.180 13.944,26.226 13.741,26.226 13.113 C 26.226 12.519,26.174 12.258,26.024 12.094 C 25.798 11.848,25.726 11.835,24.473 11.815 L 23.302 11.797 23.056 10.763 C 22.518 8.503,22.029 6.616,21.917 6.371 C 21.777 6.067,21.413 5.666,21.065 5.435 C 20.484 5.050,20.085 4.982,17.943 4.901 C 16.242 4.837,14.552 4.824,12.787 4.861 M16.312 6.347 C 17.235 6.373,18.441 6.415,18.992 6.441 C 20.497 6.513,20.480 6.497,20.881 8.126 C 21.279 9.742,21.748 11.775,21.727 11.795 C 21.717 11.805,20.988 11.788,20.106 11.758 C 18.493 11.703,7.825 11.727,6.778 11.788 C 6.339 11.813,6.300 11.809,6.300 11.732 C 6.300 11.658,7.081 8.666,7.392 7.546 C 7.579 6.873,7.813 6.655,8.430 6.582 C 8.875 6.529,11.021 6.401,12.299 6.351 C 13.698 6.296,14.468 6.295,16.312 6.347 M7.093 15.240 C 7.930 15.325,8.197 15.377,8.387 15.492 C 8.605 15.625,8.700 15.837,8.702 16.193 C 8.704 16.580,8.581 16.796,8.276 16.944 C 8.079 17.039,8.019 17.045,7.511 17.017 C 6.835 16.981,5.683 16.858,5.454 16.798 C 5.090 16.701,4.853 16.372,4.853 15.960 C 4.853 15.566,5.054 15.278,5.409 15.162 C 5.549 15.116,6.131 15.143,7.093 15.240 M22.787 15.244 C 22.935 15.320,23.077 15.528,23.155 15.785 C 23.256 16.117,23.036 16.569,22.694 16.731 C 22.485 16.831,21.393 16.971,20.510 17.012 C 19.804 17.045,19.672 17.004,19.444 16.677 C 19.250 16.398,19.231 16.131,19.383 15.799 C 19.538 15.459,19.699 15.386,20.510 15.285 C 21.860 15.117,22.519 15.105,22.787 15.244 M17.331 15.909 C 17.568 16.057,17.663 16.279,17.782 16.970 C 17.922 17.779,17.924 18.179,17.789 18.396 C 17.483 18.888,16.760 18.928,16.412 18.472 C 16.295 18.318,16.147 17.866,16.147 17.661 C 16.147 17.565,16.121 17.560,15.412 17.531 C 15.007 17.514,14.056 17.500,13.298 17.500 L 11.919 17.500 11.842 17.831 C 11.694 18.462,11.502 18.709,11.102 18.783 C 10.722 18.854,10.223 18.557,10.127 18.203 C 10.074 18.004,10.124 17.510,10.271 16.782 C 10.373 16.277,10.434 16.128,10.601 15.978 C 10.833 15.769,10.755 15.773,14.023 15.785 L 17.150 15.797 17.331 15.909 " fill="#1A1C1F" stroke="none" fill-rule="evenodd"></path></svg>