<svg width="20" height="20" viewBox="0 0 20 20" fill="none" xmlns="http://www.w3.org/2000/svg"><path d="M7.183 3.532 C 5.872 3.554,5.918 3.548,5.489 3.774 C 5.214 3.920,4.780 4.353,4.639 4.623 C 4.528 4.835,4.333 5.612,3.880 7.642 L 3.688 8.500 2.844 8.500 L 2.000 8.500 2.000 9.500 L 2.000 10.500 2.545 10.500 L 3.090 10.500 3.147 11.008 C 3.411 13.334,3.477 13.628,3.845 14.125 L 4.000 14.334 4.000 15.417 L 4.000 16.500 5.250 16.500 L 6.500 16.500 6.500 15.864 C 6.500 15.259,6.503 15.230,6.562 15.249 C 6.596 15.259,6.953 15.306,7.354 15.352 C 8.919 15.530,11.081 15.530,12.646 15.352 C 13.047 15.306,13.404 15.259,13.438 15.249 C 13.497 15.230,13.500 15.259,13.500 15.864 L 13.500 16.500 14.750 16.500 L 16.000 16.500 16.000 15.418 L 16.000 14.337 16.163 14.121 C 16.413 13.791,16.549 13.404,16.648 12.744 C 16.686 12.493,16.900 10.598,16.900 10.516 C 16.900 10.507,17.147 10.500,17.450 10.500 L 18.000 10.500 18.000 9.500 L 18.000 8.500 17.150 8.500 C 16.683 8.500,16.300 8.492,16.300 8.482 C 16.300 8.440,15.688 5.719,15.599 5.367 C 15.462 4.823,15.383 4.609,15.242 4.404 C 15.012 4.068,14.495 3.693,14.100 3.574 C 13.960 3.532,8.995 3.502,7.183 3.532 M13.947 5.236 C 13.958 5.246,14.102 5.959,14.268 6.819 C 14.434 7.679,14.577 8.410,14.587 8.442 C 14.604 8.497,14.370 8.500,10.000 8.500 C 5.630 8.500,5.396 8.497,5.413 8.442 C 5.423 8.410,5.551 7.753,5.699 6.983 C 5.847 6.213,5.984 5.505,6.003 5.410 L 6.038 5.236 6.360 5.224 C 6.891 5.204,13.926 5.215,13.947 5.236 M5.467 10.989 C 6.520 11.228,6.687 11.293,6.835 11.529 C 7.021 11.825,6.948 12.273,6.677 12.497 C 6.499 12.644,6.308 12.686,6.039 12.637 C 5.704 12.577,4.672 12.338,4.492 12.280 C 4.178 12.178,3.944 11.757,4.028 11.445 C 4.075 11.269,4.227 11.034,4.344 10.957 C 4.565 10.812,4.702 10.816,5.467 10.989 M15.479 10.874 C 15.687 10.936,15.913 11.178,15.965 11.394 C 16.058 11.781,15.873 12.130,15.503 12.269 C 15.085 12.425,13.851 12.681,13.665 12.650 C 13.400 12.605,13.124 12.343,13.083 12.096 C 13.023 11.745,13.171 11.418,13.450 11.283 C 13.616 11.202,14.111 11.072,14.835 10.918 C 15.287 10.823,15.303 10.822,15.479 10.874 M11.236 11.528 C 11.477 11.546,11.545 11.565,11.661 11.646 C 11.864 11.787,11.925 11.910,12.066 12.475 C 12.288 13.357,12.277 13.526,11.985 13.795 C 11.744 14.017,11.465 14.052,11.149 13.900 C 10.927 13.792,10.823 13.616,10.701 13.142 L 10.664 13.000 10.000 13.000 L 9.336 13.000 9.299 13.142 C 9.134 13.786,8.946 13.983,8.500 13.983 C 8.218 13.983,8.010 13.869,7.876 13.641 C 7.744 13.417,7.756 13.165,7.927 12.492 C 8.076 11.910,8.135 11.787,8.338 11.646 C 8.454 11.566,8.522 11.547,8.747 11.531 C 9.127 11.503,10.893 11.501,11.236 11.528 " fill="#1A1C1F" stroke="none" fill-rule="evenodd"></path></svg>