<svg xmlns="http://www.w3.org/2000/svg" width="12" height="12" fill="none"><g clip-path="url(#a)"><path fill="#1A1C1F" fill-rule="evenodd" d="M8.178 2.104c.504.004 1.001.399 1.116.842q.114.444.488 2.154H10.8v1.2h-.663q-.135 1.344-.18 1.577c-.045.234-.175.547-.357.719V9.9H8.1v-.755a14.3 14.3 0 0 1-4.2 0l-.004.755H2.4V8.596c-.14-.14-.278-.414-.33-.603q-.052-.189-.208-1.693H1.2V5.1h1.018l.456-2.059c.143-.483.566-.941 1.252-.941s3.749 0 4.252.004M5.182 6.905a.45.45 0 0 0-.347.271l-.182.725A.45.45 0 0 0 5 8.39a.433.433 0 0 0 .514-.267l.086-.323h.797l.084.317a.45.45 0 0 0 .865-.216l-.182-.725a.45.45 0 0 0-.347-.27zm-2.231-.393a.45.45 0 0 0-.261.86l.935.22a.45.45 0 0 0 .261-.86zm6.644.337a.45.45 0 0 0-.48-.347l-.937.212a.45.45 0 0 0 .142.887l.938-.212a.45.45 0 0 0 .337-.54M8.375 3.12h-4.75L3.24 5.1h5.52z" clip-rule="evenodd"/></g><defs><clipPath id="a"><path fill="#fff" d="M0 0h12v12H0z"/></clipPath></defs></svg>