<svg xmlns="http://www.w3.org/2000/svg" width="24" height="24" fill="none"><g clip-path="url(#a)"><path fill="#1A1C1F" fill-rule="evenodd" d="M17 4c.992 0 1.686.666 1.98 1.625L20 10h1.352c.336 0 .648.267.648.578v.733c0 .334-.261.69-.648.689h-.835c.033.162.05.38.05.536q0 .156-.388 3.472-.046.382-.178.727L20 19a1 1 0 0 1-1 1h-.6a1 1 0 0 1-1-1v-.342a43 43 0 0 1-10.8 0V19a1 1 0 0 1-1 1H5a1 1 0 0 1-1-1v-2.262a3 3 0 0 1-.152-.548l-.398-3.403A2.5 2.5 0 0 1 3.483 12L2.648 12c-.37 0-.648-.321-.648-.69v-.666A.63.63 0 0 1 2.648 10H4l.978-4.213C5.208 4.797 6.025 4.074 7 4zm-2.994 9.75-4.142.007a1 1 0 0 0-.833.683l-.296 1.48a.987.987 0 0 0 .8 1.06.99.99 0 0 0 1.148-.67l.118-.561h2.385l.119.56a1 1 0 0 0 1.947-.39l-.296-1.48a1 1 0 0 0-.95-.689m-9.487.054a1 1 0 0 0 .672 1.147l1.479.296a1 1 0 0 0 .39-1.948l-1.48-.296a1 1 0 0 0-1.06.8m13.9-.8-1.478.295a1 1 0 0 0 .39 1.948l1.478-.296a1 1 0 0 0-.39-1.948M7.165 5.693c-.208 0-.406.144-.498.375L5.745 10h12.51l-.886-3.827c-.06-.255-.239-.43-.442-.47z" clip-rule="evenodd"/></g><defs><clipPath id="a"><path fill="#fff" d="M0 0h24v24H0z"/></clipPath></defs></svg>