<svg xmlns="http://www.w3.org/2000/svg" width="14" height="14" fill="none"><g clip-path="url(#a)"><path fill="#1A1C1F" fill-rule="evenodd" d="M9.542 2.455c.587.004 1.167.465 1.301.982q.133.517.57 2.513H12.6v1.4h-.774q-.157 1.567-.21 1.84c-.052.273-.204.637-.415.838v1.522H9.45v-.881a16.7 16.7 0 0 1-4.9 0l-.005.881H2.8v-1.522c-.164-.163-.324-.482-.385-.703q-.06-.221-.242-1.975H1.4v-1.4h1.187l.533-2.402c.167-.564.66-1.098 1.46-1.098s4.374 0 4.962.005m-3.496 5.6a.53.53 0 0 0-.405.317l-.213.846a.52.52 0 0 0 .406.57.505.505 0 0 0 .6-.311l.1-.377h.93l.099.37a.525.525 0 0 0 1.009-.252l-.213-.846a.53.53 0 0 0-.405-.316zm-2.603-.458A.525.525 0 0 0 3.138 8.6l1.092.257a.525.525 0 0 0 .304-1.003zm7.751.394a.525.525 0 0 0-.559-.405l-1.093.247a.525.525 0 0 0 .165 1.035l1.094-.248a.525.525 0 0 0 .393-.63M9.77 3.64H4.23l-.45 2.31h6.44z" clip-rule="evenodd"/></g><defs><clipPath id="a"><path fill="#fff" d="M0 0h14v14H0z"/></clipPath></defs></svg>