<svg width="12" height="12" viewBox="0 0 12 12" fill="none" xmlns="http://www.w3.org/2000/svg"><path d="M4.350 2.099 C 3.577 2.110,3.546 2.112,3.437 2.156 C 3.179 2.260,2.921 2.498,2.781 2.762 C 2.712 2.891,2.642 3.167,2.400 4.260 C 2.311 4.662,2.233 5.010,2.227 5.035 L 2.216 5.080 1.708 5.080 L 1.200 5.080 1.200 5.680 L 1.200 6.280 1.528 6.280 L 1.855 6.280 1.868 6.385 C 1.874 6.443,1.916 6.802,1.960 7.183 C 2.013 7.639,2.055 7.920,2.082 8.003 C 2.137 8.170,2.224 8.344,2.316 8.469 L 2.390 8.570 2.396 9.245 L 2.403 9.920 3.151 9.920 L 3.900 9.920 3.900 9.530 C 3.900 9.214,3.905 9.140,3.927 9.140 C 3.942 9.140,4.143 9.163,4.372 9.191 C 5.265 9.299,6.735 9.299,7.628 9.191 C 7.857 9.163,8.058 9.140,8.073 9.140 C 8.095 9.140,8.100 9.214,8.100 9.530 L 8.100 9.920 8.850 9.920 L 9.600 9.920 9.600 9.241 C 9.600 8.770,9.607 8.558,9.622 8.549 C 9.634 8.541,9.687 8.469,9.739 8.389 C 9.845 8.228,9.928 8.015,9.959 7.830 C 9.975 7.734,10.140 6.330,10.140 6.290 C 10.140 6.285,10.288 6.280,10.470 6.280 L 10.800 6.280 10.800 5.680 L 10.800 5.080 10.290 5.080 C 10.010 5.080,9.780 5.076,9.780 5.070 C 9.780 5.045,9.412 3.404,9.360 3.200 C 9.328 3.074,9.283 2.916,9.261 2.850 C 9.177 2.610,8.978 2.377,8.744 2.246 C 8.475 2.096,8.613 2.106,6.790 2.096 C 5.888 2.091,4.790 2.092,4.350 2.099 M8.106 3.113 L 8.378 3.126 8.399 3.228 C 8.410 3.284,8.491 3.708,8.580 4.170 C 8.669 4.632,8.746 5.026,8.752 5.045 C 8.762 5.078,8.622 5.080,6.000 5.080 C 3.378 5.080,3.238 5.078,3.248 5.045 C 3.254 5.026,3.331 4.632,3.420 4.170 C 3.509 3.708,3.590 3.283,3.602 3.226 L 3.623 3.121 3.806 3.115 C 4.170 3.102,7.840 3.100,8.106 3.113 M3.270 6.573 C 3.922 6.719,4.042 6.769,4.120 6.930 C 4.186 7.066,4.172 7.265,4.089 7.384 C 3.952 7.579,3.833 7.607,3.466 7.532 C 3.065 7.450,2.662 7.346,2.608 7.311 C 2.537 7.264,2.443 7.127,2.418 7.032 C 2.374 6.872,2.466 6.649,2.613 6.558 C 2.764 6.465,2.790 6.466,3.270 6.573 M9.373 6.551 C 9.598 6.682,9.662 6.964,9.518 7.189 C 9.445 7.306,9.377 7.335,8.954 7.439 C 8.293 7.600,8.172 7.608,8.022 7.499 C 7.861 7.383,7.794 7.127,7.879 6.953 C 7.971 6.762,8.021 6.739,8.690 6.580 C 9.155 6.470,9.229 6.466,9.373 6.551 M6.986 6.957 C 7.109 7.033,7.155 7.126,7.243 7.473 C 7.343 7.866,7.353 8.030,7.282 8.155 C 7.178 8.335,6.930 8.426,6.748 8.351 C 6.567 8.275,6.501 8.177,6.420 7.865 L 6.398 7.780 6.000 7.780 L 5.602 7.780 5.580 7.865 C 5.523 8.087,5.492 8.152,5.410 8.232 C 5.328 8.311,5.180 8.380,5.091 8.380 C 4.936 8.379,4.748 8.244,4.689 8.089 C 4.648 7.983,4.658 7.879,4.740 7.542 C 4.837 7.144,4.895 7.018,5.006 6.956 C 5.086 6.911,5.242 6.904,6.080 6.907 L 6.910 6.910 6.986 6.957 " fill="#1A1C1F" stroke="none" fill-rule="evenodd"></path></svg>