<svg width="20" height="20" viewBox="0 0 20 20" fill="none" xmlns="http://www.w3.org/2000/svg"><path d="M7.217 3.499 C 5.963 3.516,5.910 3.519,5.729 3.593 C 5.452 3.705,5.093 3.971,4.903 4.206 C 4.630 4.544,4.547 4.736,4.385 5.405 C 4.247 5.977,3.700 8.407,3.700 8.448 C 3.700 8.458,3.318 8.467,2.850 8.467 L 2.000 8.467 2.000 9.467 L 2.000 10.467 2.546 10.467 L 3.092 10.467 3.113 10.642 C 3.124 10.738,3.193 11.337,3.267 11.972 C 3.355 12.731,3.425 13.199,3.471 13.337 C 3.560 13.608,3.709 13.906,3.862 14.117 L 3.983 14.283 3.994 15.408 L 4.005 16.533 5.252 16.533 L 6.500 16.533 6.500 15.883 C 6.500 15.283,6.504 15.233,6.559 15.233 C 6.592 15.233,6.851 15.262,7.134 15.298 C 8.126 15.422,8.503 15.441,10.000 15.441 C 11.497 15.441,11.874 15.422,12.866 15.298 C 13.149 15.262,13.408 15.233,13.441 15.233 C 13.496 15.233,13.500 15.283,13.500 15.883 L 13.500 16.533 14.750 16.533 L 16.000 16.533 16.000 15.404 C 16.000 14.437,16.007 14.269,16.050 14.233 C 16.140 14.158,16.395 13.721,16.478 13.500 C 16.522 13.381,16.575 13.186,16.595 13.067 C 16.623 12.897,16.900 10.555,16.900 10.484 C 16.900 10.474,17.147 10.467,17.450 10.467 L 18.000 10.467 18.000 9.467 L 18.000 8.467 17.150 8.467 C 16.683 8.467,16.300 8.459,16.300 8.450 C 16.300 8.407,15.688 5.681,15.601 5.339 C 15.547 5.125,15.472 4.860,15.434 4.750 C 15.296 4.351,14.963 3.961,14.573 3.743 C 14.126 3.493,14.359 3.511,11.283 3.495 C 9.762 3.487,7.932 3.489,7.217 3.499 M13.947 5.203 C 13.958 5.213,14.102 5.926,14.268 6.786 C 14.433 7.646,14.577 8.376,14.587 8.408 C 14.604 8.464,14.370 8.467,10.000 8.467 C 5.630 8.467,5.396 8.464,5.413 8.408 C 5.423 8.376,5.552 7.720,5.700 6.950 C 5.848 6.180,5.984 5.472,6.003 5.376 L 6.038 5.202 6.344 5.190 C 6.844 5.170,13.926 5.182,13.947 5.203 M5.450 10.955 C 6.133 11.108,6.521 11.220,6.659 11.306 C 6.819 11.404,6.933 11.650,6.933 11.894 C 6.933 12.238,6.721 12.518,6.395 12.604 C 6.260 12.640,6.190 12.635,5.845 12.567 C 5.218 12.443,4.438 12.244,4.348 12.185 C 4.229 12.107,4.072 11.878,4.030 11.720 C 3.957 11.453,4.111 11.081,4.355 10.930 C 4.606 10.775,4.650 10.776,5.450 10.955 M15.621 10.918 C 15.999 11.139,16.105 11.602,15.865 11.981 C 15.741 12.176,15.630 12.225,14.923 12.398 C 13.830 12.666,13.620 12.679,13.370 12.499 C 13.202 12.377,13.105 12.191,13.079 11.942 C 13.056 11.718,13.104 11.574,13.262 11.394 C 13.397 11.240,13.510 11.200,14.420 10.983 C 15.263 10.782,15.379 10.776,15.621 10.918 M11.644 11.596 C 11.845 11.721,11.920 11.871,12.070 12.451 C 12.240 13.110,12.256 13.382,12.136 13.591 C 11.963 13.892,11.550 14.044,11.247 13.918 C 10.945 13.791,10.834 13.628,10.701 13.108 L 10.664 12.967 10.000 12.967 L 9.336 12.967 9.299 13.108 C 9.204 13.480,9.154 13.587,9.013 13.723 C 8.879 13.853,8.625 13.967,8.469 13.966 C 8.226 13.966,7.910 13.731,7.814 13.482 C 7.747 13.306,7.763 13.131,7.901 12.570 C 8.062 11.907,8.158 11.696,8.343 11.593 C 8.477 11.519,8.736 11.507,10.133 11.512 L 11.517 11.517 11.644 11.596 " fill="#1A1C1F" stroke="none" fill-rule="evenodd"></path></svg>