<svg width="16" height="16" viewBox="0 0 16 16" fill="none" xmlns="http://www.w3.org/2000/svg"><path d="M5.773 2.799 C 4.770 2.813,4.728 2.816,4.583 2.874 C 4.238 3.014,3.895 3.330,3.708 3.682 C 3.658 3.776,3.586 4.001,3.521 4.270 C 3.430 4.644,2.960 6.734,2.960 6.763 C 2.960 6.769,2.654 6.773,2.280 6.773 L 1.600 6.773 1.600 7.573 L 1.600 8.373 2.037 8.373 L 2.474 8.373 2.490 8.513 C 2.499 8.590,2.555 9.069,2.614 9.578 C 2.684 10.178,2.741 10.561,2.776 10.671 C 2.847 10.887,2.966 11.124,3.089 11.293 L 3.187 11.427 3.195 12.327 L 3.204 13.227 4.202 13.227 L 5.200 13.227 5.200 12.707 C 5.200 12.285,5.207 12.187,5.236 12.187 C 5.256 12.187,5.523 12.217,5.830 12.254 C 6.599 12.347,7.751 12.383,8.807 12.348 C 9.350 12.330,9.795 12.299,10.170 12.254 C 10.477 12.217,10.744 12.187,10.764 12.187 C 10.793 12.187,10.800 12.285,10.800 12.707 L 10.800 13.227 11.800 13.227 L 12.800 13.227 12.800 12.323 C 12.800 11.550,12.806 11.415,12.840 11.386 C 12.912 11.327,13.116 10.977,13.182 10.800 C 13.218 10.705,13.261 10.543,13.277 10.440 C 13.301 10.299,13.520 8.438,13.520 8.384 C 13.520 8.378,13.718 8.373,13.960 8.373 L 14.400 8.373 14.400 7.573 L 14.400 6.773 13.720 6.773 C 13.346 6.773,13.040 6.767,13.040 6.760 C 13.040 6.725,12.550 4.545,12.481 4.271 C 12.438 4.100,12.377 3.888,12.347 3.800 C 12.237 3.481,11.970 3.169,11.659 2.994 C 11.301 2.794,11.487 2.808,9.027 2.796 C 7.809 2.789,6.345 2.791,5.773 2.799 M10.768 4.151 L 11.171 4.168 11.198 4.304 C 11.213 4.379,11.322 4.944,11.440 5.560 C 11.559 6.176,11.662 6.701,11.669 6.727 C 11.683 6.771,11.496 6.773,8.000 6.773 C 4.504 6.773,4.317 6.771,4.331 6.727 C 4.338 6.701,4.441 6.176,4.560 5.560 C 4.678 4.944,4.788 4.377,4.803 4.301 L 4.830 4.162 5.088 4.153 C 5.604 4.136,10.376 4.134,10.768 4.151 M4.360 8.764 C 5.229 8.958,5.390 9.026,5.493 9.239 C 5.581 9.421,5.563 9.687,5.452 9.845 C 5.269 10.105,5.111 10.143,4.621 10.043 C 4.087 9.933,3.550 9.795,3.478 9.748 C 3.383 9.686,3.258 9.502,3.224 9.376 C 3.166 9.163,3.289 8.865,3.484 8.744 C 3.685 8.620,3.720 8.621,4.360 8.764 M12.497 8.734 C 12.780 8.900,12.875 9.243,12.721 9.544 C 12.626 9.732,12.520 9.781,11.883 9.933 C 11.048 10.132,10.892 10.141,10.696 9.999 C 10.562 9.902,10.484 9.753,10.463 9.554 C 10.444 9.374,10.483 9.259,10.611 9.113 C 10.720 8.989,10.798 8.961,11.533 8.787 C 12.211 8.626,12.303 8.621,12.497 8.734 M9.315 9.277 C 9.478 9.378,9.540 9.501,9.657 9.963 C 9.791 10.489,9.804 10.707,9.709 10.873 C 9.571 11.114,9.240 11.235,8.998 11.134 C 8.756 11.033,8.667 10.902,8.560 10.487 L 8.531 10.373 8.000 10.373 L 7.469 10.373 7.440 10.487 C 7.362 10.790,7.324 10.868,7.206 10.980 C 7.043 11.134,6.847 11.197,6.672 11.151 C 6.603 11.132,6.502 11.086,6.448 11.049 C 6.339 10.974,6.213 10.754,6.213 10.638 C 6.213 10.440,6.427 9.583,6.509 9.449 C 6.588 9.322,6.713 9.243,6.867 9.223 C 6.940 9.213,7.498 9.207,8.107 9.210 L 9.213 9.213 9.315 9.277 " fill="#1A1C1F" stroke="none" fill-rule="evenodd"></path></svg>