<svg width="32" height="32" viewBox="0 0 32 32" fill="none" xmlns="http://www.w3.org/2000/svg"><path d="M13.093 5.070 C 10.955 5.142,9.389 5.283,8.908 5.449 C 8.484 5.595,7.961 5.921,7.631 6.246 C 7.118 6.751,6.997 7.102,5.997 10.969 L 5.471 13.005 4.056 13.022 C 2.689 13.039,2.633 13.044,2.444 13.162 C 2.324 13.237,2.200 13.381,2.124 13.535 C 2.014 13.758,2.000 13.864,2.000 14.453 C 2.000 15.716,2.272 16.000,3.476 16.000 L 4.000 16.000 4.000 16.440 C 4.001 17.270,4.364 20.897,4.511 21.550 C 4.555 21.742,4.678 22.066,4.784 22.270 L 4.978 22.640 5.000 24.187 C 5.023 25.728,5.023 25.734,5.161 25.988 C 5.353 26.343,5.734 26.681,6.109 26.830 C 6.418 26.953,6.473 26.956,8.027 26.958 C 9.567 26.960,9.638 26.955,9.924 26.840 C 10.328 26.676,10.631 26.403,10.806 26.047 C 10.935 25.782,10.954 25.674,10.976 25.060 L 11.001 24.371 11.194 24.411 C 11.446 24.462,19.941 24.457,20.540 24.405 L 21.000 24.365 21.027 24.996 C 21.059 25.754,21.152 26.047,21.461 26.364 C 21.980 26.898,22.506 27.010,24.320 26.974 C 25.462 26.951,25.601 26.938,25.889 26.827 C 26.264 26.683,26.620 26.371,26.832 26.001 L 26.986 25.733 26.986 24.226 L 26.987 22.718 27.120 22.507 C 27.318 22.193,27.502 21.592,27.594 20.960 C 27.757 19.832,27.999 17.091,28.000 16.360 L 28.000 16.000 28.524 16.000 C 29.728 16.000,30.000 15.716,30.000 14.453 C 30.000 13.695,29.933 13.483,29.616 13.241 L 29.433 13.102 27.983 13.071 L 26.533 13.040 26.146 11.547 C 25.623 9.528,25.148 7.772,24.987 7.269 C 24.660 6.243,23.690 5.486,22.476 5.310 C 20.910 5.082,16.266 4.963,13.093 5.070 M17.520 7.040 C 20.974 7.141,22.262 7.234,22.603 7.408 C 22.984 7.603,23.046 7.728,23.409 9.045 C 23.955 11.027,24.426 12.928,24.383 12.972 C 24.361 12.994,23.852 12.988,23.251 12.959 C 19.866 12.796,12.822 12.796,8.881 12.959 C 8.207 12.987,7.638 12.992,7.617 12.971 C 7.567 12.921,8.445 9.447,8.829 8.179 C 9.049 7.451,9.325 7.300,10.613 7.204 C 11.347 7.148,13.633 7.047,14.693 7.023 C 15.016 7.015,15.388 7.005,15.520 6.999 C 15.652 6.993,16.552 7.011,17.520 7.040 M22.560 14.934 C 23.337 14.964,24.271 15.012,24.635 15.041 C 25.707 15.127,25.894 15.295,25.955 16.229 L 25.989 16.739 25.808 16.769 C 25.708 16.786,25.243 16.849,24.773 16.909 C 23.744 17.042,23.571 17.084,23.368 17.254 C 23.186 17.408,22.987 17.802,22.987 18.009 C 22.987 18.386,23.406 18.897,23.772 18.966 C 23.886 18.988,24.360 18.963,24.868 18.908 C 25.360 18.855,25.769 18.821,25.778 18.832 C 25.803 18.865,25.664 20.179,25.574 20.763 C 25.441 21.625,25.394 21.670,24.422 21.868 C 22.705 22.218,20.874 22.393,18.272 22.457 C 12.898 22.589,8.043 22.247,6.880 21.653 C 6.718 21.571,6.631 21.479,6.560 21.317 C 6.470 21.112,6.359 20.377,6.250 19.267 L 6.207 18.827 6.360 18.827 C 6.443 18.827,6.839 18.865,7.240 18.911 C 8.185 19.021,8.370 18.993,8.669 18.694 C 9.089 18.274,9.100 17.754,8.698 17.332 C 8.464 17.086,8.336 17.050,7.175 16.903 C 6.677 16.840,6.215 16.768,6.148 16.742 C 6.038 16.700,6.027 16.662,6.028 16.335 C 6.031 15.620,6.210 15.255,6.611 15.148 C 6.991 15.046,9.646 14.901,11.893 14.858 C 13.572 14.827,21.154 14.880,22.560 14.934 M12.267 17.540 C 11.837 17.576,11.619 17.685,11.422 17.962 C 11.240 18.217,10.963 19.897,11.043 20.254 C 11.098 20.497,11.425 20.829,11.723 20.942 C 11.923 21.019,11.995 21.023,12.200 20.968 C 12.697 20.835,12.911 20.556,13.024 19.896 L 13.088 19.520 16.001 19.520 L 18.914 19.520 18.970 19.880 C 19.049 20.385,19.157 20.608,19.411 20.792 C 19.826 21.093,20.333 21.053,20.693 20.693 C 21.003 20.384,21.034 20.183,20.906 19.340 C 20.758 18.371,20.663 18.031,20.491 17.847 C 20.173 17.509,20.334 17.522,16.320 17.514 C 14.311 17.510,12.487 17.522,12.267 17.540 M25.002 24.418 L 25.017 25.013 24.002 25.013 L 22.987 25.013 22.987 24.727 C 22.987 24.119,22.969 24.137,23.645 24.031 C 23.972 23.980,24.384 23.906,24.560 23.868 C 24.736 23.830,24.904 23.804,24.933 23.810 C 24.964 23.817,24.993 24.077,25.002 24.418 M8.027 24.028 C 9.066 24.219,9.013 24.187,9.013 24.639 L 9.013 25.013 8.000 25.013 L 6.987 25.013 6.987 24.462 C 6.987 24.159,7.002 23.896,7.021 23.877 C 7.040 23.858,7.106 23.853,7.168 23.867 C 7.230 23.880,7.616 23.953,8.027 24.028 " fill="#1A1C1F" stroke="none" fill-rule="evenodd"></path></svg>