<svg width="24" height="24" viewBox="0 0 24 24" fill="none" xmlns="http://www.w3.org/2000/svg"><path d="M7.700 4.037 C 6.815 4.066,6.677 4.098,6.259 4.375 C 5.969 4.568,5.561 4.987,5.433 5.223 C 5.274 5.517,5.128 6.048,4.660 8.047 C 4.427 9.044,4.227 9.892,4.215 9.930 C 4.197 9.993,4.129 10.000,3.567 10.003 C 2.593 10.007,2.348 10.038,2.204 10.176 C 2.053 10.321,2.000 10.556,2.000 11.076 C 2.000 11.409,2.014 11.494,2.093 11.643 C 2.241 11.923,2.374 11.978,2.950 11.994 L 3.440 12.008 3.440 12.345 C 3.440 12.946,3.778 15.929,3.899 16.396 C 3.933 16.527,4.017 16.757,4.086 16.907 L 4.212 17.180 4.231 18.200 C 4.248 19.163,4.255 19.230,4.341 19.400 C 4.459 19.633,4.692 19.864,4.875 19.929 C 4.974 19.964,5.263 19.980,5.780 19.980 C 6.539 19.980,6.540 19.980,6.729 19.869 C 7.053 19.679,7.240 19.344,7.240 18.955 L 7.240 18.760 12.000 18.760 L 16.760 18.760 16.760 18.955 C 16.760 19.344,16.947 19.679,17.271 19.869 C 17.460 19.980,17.461 19.980,18.220 19.980 C 18.737 19.980,19.026 19.964,19.125 19.929 C 19.308 19.864,19.541 19.633,19.659 19.400 C 19.744 19.231,19.751 19.160,19.770 18.200 L 19.790 17.180 19.918 16.912 C 20.090 16.550,20.172 16.118,20.337 14.680 C 20.511 13.167,20.572 12.467,20.554 12.208 L 20.540 12.007 21.040 11.994 C 21.627 11.978,21.753 11.926,21.905 11.641 C 21.986 11.487,22.000 11.405,22.000 11.073 C 22.000 10.556,21.947 10.320,21.796 10.176 C 21.652 10.038,21.407 10.007,20.433 10.003 C 19.872 10.000,19.803 9.993,19.784 9.930 C 19.772 9.892,19.617 9.239,19.439 8.480 C 18.898 6.173,18.726 5.523,18.587 5.262 C 18.406 4.921,17.967 4.493,17.604 4.304 C 17.053 4.016,17.351 4.033,12.700 4.021 C 10.390 4.015,8.140 4.022,7.700 4.037 M16.734 6.115 C 16.818 6.193,16.871 6.356,17.042 7.055 C 17.400 8.519,17.719 9.935,17.696 9.958 C 17.666 9.988,6.333 9.986,6.303 9.956 C 6.271 9.924,6.862 7.302,7.065 6.580 C 7.218 6.034,7.170 6.064,7.932 6.036 C 8.288 6.023,10.392 6.014,12.607 6.016 L 16.634 6.020 16.734 6.115 M17.538 12.027 C 18.249 12.052,18.302 12.059,18.385 12.142 C 18.519 12.275,18.575 12.511,18.543 12.810 L 18.515 13.068 18.227 13.117 C 17.558 13.232,17.140 13.328,17.000 13.400 C 16.698 13.554,16.520 13.866,16.520 14.240 C 16.520 14.520,16.594 14.709,16.791 14.927 C 17.060 15.226,17.327 15.289,17.925 15.196 C 18.080 15.172,18.217 15.163,18.229 15.176 C 18.257 15.204,18.177 15.796,18.116 16.015 C 18.060 16.220,17.741 16.539,17.535 16.598 C 16.983 16.755,13.641 17.000,12.042 17.000 C 10.448 17.000,7.059 16.754,6.465 16.596 C 6.251 16.539,5.940 16.221,5.880 16.000 C 5.820 15.779,5.761 15.411,5.760 15.265 C 5.760 15.154,5.765 15.150,5.910 15.175 C 6.606 15.293,6.925 15.234,7.200 14.935 C 7.413 14.705,7.480 14.540,7.480 14.249 C 7.480 13.802,7.200 13.434,6.761 13.304 C 6.659 13.274,6.330 13.208,6.031 13.159 L 5.487 13.069 5.460 12.801 C 5.429 12.491,5.482 12.247,5.604 12.136 C 5.680 12.068,5.776 12.058,6.554 12.038 C 7.864 12.006,16.673 11.996,17.538 12.027 M10.060 13.435 C 9.609 13.463,9.489 13.512,9.271 13.754 C 9.076 13.969,8.684 14.641,8.568 14.960 C 8.457 15.264,8.471 15.449,8.622 15.707 C 8.881 16.149,9.335 16.333,9.815 16.191 C 10.011 16.133,10.351 15.812,10.476 15.567 L 10.562 15.400 11.995 15.400 L 13.429 15.400 13.571 15.630 C 13.908 16.173,14.290 16.340,14.830 16.179 C 15.108 16.097,15.363 15.816,15.453 15.492 C 15.547 15.153,15.491 14.962,15.098 14.294 C 14.832 13.842,14.645 13.625,14.423 13.510 C 14.264 13.427,14.209 13.425,12.360 13.417 C 11.315 13.413,10.280 13.421,10.060 13.435 " fill="#1A1C1F" stroke="none" fill-rule="evenodd"></path></svg>