<svg width="16" height="16" viewBox="0 0 16 16" fill="none" xmlns="http://www.w3.org/2000/svg"><path d="M5.720 2.827 C 4.706 2.843,4.750 2.837,4.399 3.014 C 4.187 3.120,3.869 3.435,3.728 3.678 C 3.618 3.867,3.559 4.096,3.170 5.820 L 2.950 6.800 2.275 6.800 L 1.600 6.800 1.600 7.600 L 1.600 8.400 2.036 8.400 L 2.472 8.400 2.518 8.807 C 2.729 10.667,2.781 10.903,3.076 11.300 L 3.200 11.467 3.200 12.333 L 3.200 13.200 4.200 13.200 L 5.200 13.200 5.200 12.692 C 5.200 12.208,5.202 12.184,5.250 12.199 C 5.277 12.208,5.562 12.245,5.883 12.281 C 7.135 12.424,8.865 12.424,10.117 12.281 C 10.438 12.245,10.723 12.208,10.750 12.199 C 10.798 12.184,10.800 12.208,10.800 12.692 L 10.800 13.200 11.800 13.200 L 12.800 13.200 12.800 12.335 L 12.800 11.469 12.930 11.297 C 13.130 11.033,13.240 10.723,13.319 10.195 C 13.349 9.994,13.520 8.479,13.520 8.413 C 13.520 8.406,13.718 8.400,13.960 8.400 L 14.400 8.400 14.400 7.600 L 14.400 6.800 13.720 6.800 C 13.346 6.800,13.040 6.793,13.040 6.785 C 13.040 6.731,12.491 4.328,12.426 4.094 C 12.306 3.666,12.236 3.538,11.993 3.300 C 11.827 3.137,11.728 3.066,11.527 2.967 L 11.272 2.840 9.936 2.823 C 8.380 2.804,7.029 2.805,5.720 2.827 M11.158 4.189 C 11.166 4.197,11.282 4.767,11.414 5.455 C 11.547 6.144,11.662 6.728,11.669 6.753 C 11.683 6.798,11.496 6.800,8.000 6.800 C 4.504 6.800,4.317 6.798,4.330 6.753 C 4.338 6.728,4.441 6.203,4.560 5.587 C 4.678 4.971,4.787 4.404,4.802 4.328 L 4.830 4.189 5.088 4.179 C 5.514 4.163,11.141 4.172,11.158 4.189 M4.373 8.791 C 5.216 8.982,5.350 9.035,5.468 9.223 C 5.617 9.460,5.558 9.819,5.341 9.997 C 5.199 10.115,5.046 10.148,4.831 10.110 C 4.563 10.061,3.737 9.870,3.594 9.824 C 3.343 9.742,3.155 9.405,3.222 9.156 C 3.260 9.015,3.382 8.827,3.475 8.766 C 3.652 8.650,3.761 8.653,4.373 8.791 M12.384 8.699 C 12.550 8.749,12.731 8.942,12.772 9.116 C 12.846 9.425,12.699 9.704,12.403 9.815 C 12.068 9.940,11.081 10.145,10.932 10.120 C 10.720 10.084,10.500 9.875,10.466 9.677 C 10.419 9.396,10.536 9.135,10.760 9.026 C 10.889 8.963,11.440 8.819,11.933 8.720 C 12.230 8.660,12.248 8.659,12.384 8.699 M9.240 9.260 C 9.365 9.327,9.492 9.456,9.536 9.562 C 9.588 9.688,9.751 10.372,9.774 10.563 C 9.797 10.753,9.735 10.905,9.579 11.045 C 9.392 11.214,9.166 11.239,8.919 11.120 C 8.741 11.034,8.658 10.893,8.560 10.513 L 8.531 10.400 8.000 10.400 L 7.469 10.400 7.440 10.513 C 7.378 10.753,7.328 10.880,7.255 10.980 C 7.025 11.297,6.493 11.252,6.291 10.900 C 6.197 10.734,6.209 10.515,6.342 9.993 C 6.461 9.528,6.508 9.430,6.671 9.317 C 6.819 9.214,6.964 9.204,8.187 9.211 C 9.022 9.216,9.171 9.223,9.240 9.260 " fill="#1A1C1F" stroke="none" fill-rule="evenodd"></path></svg>