<svg width="28" height="28" viewBox="0 0 28 28" fill="none" xmlns="http://www.w3.org/2000/svg"><path d="M11.457 4.436 C 9.585 4.499,8.215 4.623,7.795 4.768 C 7.424 4.895,6.966 5.181,6.677 5.465 C 6.228 5.907,6.116 6.232,5.248 9.598 L 4.788 11.379 3.549 11.394 C 2.353 11.409,2.304 11.414,2.138 11.517 C 2.033 11.582,1.925 11.709,1.858 11.843 C 1.762 12.038,1.750 12.131,1.750 12.647 C 1.750 13.751,1.988 14.000,3.042 14.000 L 3.500 14.000 3.500 14.385 C 3.501 15.111,3.818 18.285,3.947 18.856 C 3.986 19.024,4.093 19.308,4.185 19.486 L 4.354 19.810 4.375 21.163 C 4.396 22.510,4.396 22.518,4.516 22.739 C 4.683 23.050,5.017 23.346,5.346 23.476 C 5.615 23.583,5.664 23.587,7.023 23.588 C 8.371 23.590,8.433 23.586,8.684 23.485 C 9.037 23.342,9.302 23.103,9.455 22.791 C 9.568 22.559,9.585 22.464,9.604 21.928 L 9.626 21.325 9.795 21.359 C 10.015 21.404,17.449 21.399,17.972 21.354 L 18.375 21.319 18.399 21.871 C 18.427 22.535,18.508 22.791,18.778 23.069 C 19.232 23.536,19.693 23.634,21.280 23.602 C 22.279 23.582,22.401 23.571,22.653 23.474 C 22.981 23.347,23.293 23.074,23.478 22.751 L 23.612 22.517 23.613 21.197 L 23.613 19.878 23.730 19.693 C 23.903 19.419,24.064 18.893,24.145 18.340 C 24.288 17.353,24.499 14.955,24.500 14.315 L 24.500 14.000 24.958 14.000 C 25.960 14.000,26.218 13.763,26.263 12.800 C 26.296 12.107,26.158 11.689,25.840 11.519 C 25.772 11.483,25.308 11.455,24.477 11.437 L 23.217 11.410 23.017 10.640 C 22.511 8.691,22.005 6.811,21.883 6.423 C 21.579 5.461,20.761 4.805,19.666 4.646 C 18.296 4.447,14.232 4.343,11.457 4.436 M16.777 6.210 C 17.393 6.234,18.254 6.277,18.690 6.305 C 19.870 6.381,20.078 6.497,20.282 7.193 C 20.624 8.360,21.392 11.337,21.360 11.369 C 21.350 11.379,20.892 11.366,20.342 11.340 C 17.356 11.197,11.209 11.196,7.771 11.339 C 7.181 11.363,6.683 11.368,6.665 11.350 C 6.621 11.306,7.390 8.266,7.725 7.156 C 7.918 6.520,8.159 6.388,9.287 6.303 C 9.902 6.257,11.832 6.170,12.857 6.143 C 13.562 6.124,15.429 6.156,16.777 6.210 M19.763 13.068 C 20.456 13.094,21.274 13.136,21.579 13.162 C 22.491 13.238,22.651 13.384,22.708 14.195 L 22.740 14.647 22.582 14.673 C 22.495 14.688,22.087 14.743,21.677 14.796 C 20.776 14.911,20.624 14.949,20.447 15.098 C 20.288 15.232,20.113 15.577,20.113 15.758 C 20.113 16.088,20.480 16.535,20.801 16.595 C 20.901 16.614,21.315 16.592,21.759 16.544 C 22.190 16.498,22.548 16.468,22.556 16.478 C 22.578 16.507,22.456 17.656,22.377 18.168 C 22.261 18.922,22.220 18.961,21.369 19.134 C 19.864 19.441,18.266 19.594,15.970 19.651 C 11.295 19.767,7.038 19.466,6.020 18.947 C 5.879 18.875,5.802 18.794,5.740 18.652 C 5.661 18.473,5.564 17.830,5.469 16.858 L 5.431 16.473 5.565 16.473 C 5.638 16.473,5.985 16.507,6.335 16.547 C 7.162 16.643,7.324 16.618,7.585 16.357 C 7.952 15.990,7.962 15.535,7.611 15.165 C 7.406 14.950,7.294 14.919,6.278 14.790 C 5.843 14.735,5.438 14.672,5.380 14.649 C 5.283 14.613,5.273 14.580,5.274 14.293 C 5.277 13.668,5.434 13.348,5.784 13.254 C 6.117 13.166,8.440 13.038,10.407 13.001 C 11.878 12.973,18.511 13.021,19.763 13.068 M10.710 15.348 C 10.359 15.379,10.162 15.481,9.994 15.717 C 9.836 15.939,9.592 17.410,9.662 17.719 C 9.720 17.975,9.941 18.199,10.260 18.324 C 10.434 18.392,10.495 18.395,10.675 18.347 C 11.110 18.231,11.297 17.987,11.396 17.409 L 11.452 17.080 14.001 17.080 L 16.550 17.080 16.599 17.395 C 16.668 17.837,16.763 18.032,16.985 18.193 C 17.347 18.456,17.792 18.422,18.107 18.107 C 18.377 17.836,18.405 17.660,18.293 16.923 C 18.163 16.075,18.080 15.777,17.929 15.616 C 17.652 15.320,17.795 15.332,14.257 15.325 C 12.486 15.321,10.890 15.332,10.710 15.348 M21.877 21.365 L 21.890 21.887 21.002 21.887 L 20.113 21.887 20.113 21.636 C 20.113 21.104,20.098 21.120,20.689 21.027 C 20.976 20.982,21.336 20.918,21.490 20.884 C 21.644 20.851,21.791 20.828,21.817 20.834 C 21.843 20.840,21.869 21.067,21.877 21.365 M7.023 21.025 C 7.932 21.192,7.887 21.163,7.887 21.559 L 7.887 21.887 7.000 21.887 L 6.113 21.887 6.113 21.404 C 6.113 21.139,6.127 20.909,6.144 20.892 C 6.160 20.875,6.218 20.871,6.272 20.883 C 6.326 20.895,6.664 20.959,7.023 21.025 " fill="#1A1C1F" stroke="none" fill-rule="evenodd"></path></svg>