<svg xmlns="http://www.w3.org/2000/svg" width="24" height="24" fill="none"><g clip-path="url(#a)"><path fill="#1A1C1F" fill-rule="evenodd" d="M16.507 4c1.062 0 1.977.72 2.288 1.745L19.793 10h1.559c.336 0 .597.227.641.546l.007.765c0 .334-.23.63-.55.681l-.933.008q.05.243.05.5 0 .17-.388 3.508c-.052.45-.202.868-.428 1.233l-.001 1.76a1 1 0 0 1-1 1h-1a1 1 0 0 1-1-1v-.285a321 321 0 0 1-9.5-.002V19a1 1 0 0 1-1 1h-1a1 1 0 0 1-1-1v-1.757a3 3 0 0 1-.395-1.012q-.07-.366-.405-3.445a2.5 2.5 0 0 1 .033-.785L2.648 12c-.37 0-.648-.321-.648-.69v-.666A.63.63 0 0 1 2.648 10h1.558l.955-4.091c.246-1.055 1.198-1.91 2.28-1.91zM5.876 12.003a.5.5 0 0 0-.442.464q-.015.237.061.6l1.17.197a1 1 0 0 1-.213 1.985l-.718-.113.074.643a1 1 0 0 0 .786.864Q10 16.997 12 17t5.29-.34a1 1 0 0 0 .882-.766l.093-.758-.6.1a1 1 0 0 1-.443-1.947l1.282-.221q.061-.24.062-.54c.001-.3-.202-.52-.468-.52zM14 13.4a1 1 0 0 1 .797.396l.565.947a1 1 0 0 1-1.659 1.111l-.276-.455h-2.855l-.21.358c-.26.442-.885.662-1.369.355s-.61-.807-.408-1.265l.553-.954a1 1 0 0 1 .745-.486zM7.493 6c-.143 0-.284.101-.355.272q-.07.171-.879 3.728H17.74l-.849-3.637C16.846 6.17 16.728 6 16.484 6z" clip-rule="evenodd"/></g><defs><clipPath id="a"><path fill="#fff" d="M0 0h24v24H0z"/></clipPath></defs></svg>