<svg xmlns="http://www.w3.org/2000/svg" width="32" height="32" fill="none"><g clip-path="url(#a)"><path fill="#1A1C1F" fill-rule="evenodd" d="M22.508 5.672c1.241.096 2.344.81 2.716 1.988l1.41 5.838h2.391a.94.94 0 0 1 .96.85l.007 1.117c0 .512-.358.964-.851 1.026l-1.307.006c.021.352.012.752-.022 1.238q-.034.486-.385 4.073a3.3 3.3 0 0 1-.319 1.17v2.239c0 .446 0 1.282-1.282 1.282H24.29c-1.3 0-1.282-.836-1.282-1.282v-.773q-3.554.194-7.008.194t-6.908-.191v.77c0 .446 0 1.282-1.282 1.282H6.274c-1.282 0-1.282-.836-1.282-1.282V23.2a3.2 3.2 0 0 1-.404-1.167l-.408-4.235a10 10 0 0 1-.03-1.301l-1.175.002c-.553 0-.967-.482-.967-1.034v-1c0-.553.414-.966.967-.966l2.406-.001 1.485-5.552c.303-1.211 1.146-2.073 2.588-2.154 2.172-.12 4.394-.29 6.591-.29 2.154-.002 4.275.061 6.463.17m-9.87 12.334a1 1 0 0 0-.84.71l-.29 1.734c-.022.462.306.938.835 1.035.53.097.997-.264 1.125-.708l.137-.778h4.805l.137.778a1 1 0 0 0 1.96-.327l-.29-1.733a1 1 0 0 0-.839-.711zm-6.147-.757a1 1 0 0 0-.198 1.976l2.732.274a1 1 0 0 0 .198-1.977zm16.302.273a1 1 0 0 0 .198 1.977l2.732-.274a1 1 0 0 0-.198-1.976zM9.63 7.487c-.482.024-.917.306-1.08.756l-1.417 5.255q4.403-.186 8.842-.186 4.434 0 8.905.186l-1.258-5.255c-.118-.473-.501-.846-.995-.865-2.221-.085-4.413-.175-6.619-.176-2.126-.001-4.21.176-6.378.285" clip-rule="evenodd"/></g><defs><clipPath id="a"><path fill="#fff" d="M0 0h32v32H0z"/></clipPath></defs></svg>