<svg xmlns="http://www.w3.org/2000/svg" width="28" height="28" fill="none"><g clip-path="url(#a)"><path fill="#1A1C1F" fill-rule="evenodd" d="M19.694 4.963c1.087.084 2.051.71 2.377 1.74l1.234 5.107 2.092.001c.448 0 .794.312.84.744l.006.976c0 .449-.313.845-.745.899l-1.143.005c.018.307.01.657-.02 1.083A264 264 0 0 1 24 19.082c-.037.383-.13.727-.28 1.024v1.959c0 .39 0 1.121-1.121 1.121h-1.344c-1.137 0-1.122-.731-1.122-1.121v-.677q-3.11.17-6.132.17-3.023 0-6.044-.167v.674c0 .39 0 1.121-1.122 1.121H5.49c-1.122 0-1.122-.731-1.122-1.121V20.3a2.8 2.8 0 0 1-.353-1.021l-.358-3.706a9 9 0 0 1-.026-1.139l-1.028.002c-.484 0-.846-.421-.846-.905v-.875c0-.483.362-.845.846-.845h2.105l1.3-4.859c.265-1.06 1.002-1.814 2.264-1.884 1.901-.105 3.845-.253 5.768-.254 1.885-.001 3.74.054 5.654.149m-8.636 10.792a.88.88 0 0 0-.734.622l-.254 1.517a.89.89 0 0 0 .73.906c.463.085.873-.232.985-.62l.12-.681h4.204l.12.68a.875.875 0 0 0 1.714-.285l-.253-1.517a.88.88 0 0 0-.734-.622zm-5.379-.662a.875.875 0 0 0-.173 1.73l2.39.238a.875.875 0 0 0 .174-1.73zm14.265.239a.875.875 0 0 0 .173 1.73l2.39-.24a.875.875 0 0 0-.173-1.73zM8.427 6.55c-.422.021-.802.268-.945.661l-1.24 4.599q3.853-.163 7.737-.163 3.88 0 7.792.162l-1.1-4.598c-.104-.413-.44-.74-.871-.756-1.944-.075-3.862-.154-5.792-.154-1.86-.001-3.684.154-5.581.249" clip-rule="evenodd"/></g><defs><clipPath id="a"><path fill="#fff" d="M0 0h28v28H0z"/></clipPath></defs></svg>