<svg xmlns="http://www.w3.org/2000/svg" width="32" height="32" fill="none"><g clip-path="url(#a)"><path fill="#1A1C1F" fill-rule="evenodd" d="M16 5q3.134 0 6.267.253c1.27.1 2.397.899 2.778 2.08l1.487 5.701h2.501a.94.94 0 0 1 .96.85L30 14.966c0 .513-.358.965-.851 1.027L27.995 16q0 .885-.12 2.307t-.29 2.767c-.064.66-.279 1.22-.622 1.66q.015.048.037.266v2.039c0 .497 0 1.908-2.096 1.959L23.282 27c-2.125 0-2.258-1.38-2.278-1.782l-.003-.859c-.812.066-2.495.133-4.997.14s-4.885-.103-5.005-.11l.001.65c0 .497 0 1.959-2.096 1.959L7.282 27c-2.258 0-2.258-1.38-2.278-1.782L5 23q0-.078.047-.295a2.96 2.96 0 0 1-.597-1.385q-.15-1.45-.3-2.78c-.148-1.329-.157-2.383-.148-2.54H2.967C2.415 16 2 15.518 2 14.966v-1c0-.553.415-.966.967-.966h2.51L6.9 7.522c.322-1.288 1.434-2.118 2.849-2.27A78 78 0 0 1 16 5M7 23.814V25h2v-.808q-.623-.057-2-.378m17.999-.025c-.703.14-1.358.253-1.999.346V25h2zM16 14.802q-4.208 0-8.414.198c-.992.04-1.337.201-1.475.555q-.115.296-.103 1.194l2.116.259A1 1 0 0 1 7.993 19l-1.805-.219.221 2.1c.045.468.216.724.755.907 1.336.376 4.387.715 8.836.711 4.448-.004 6.444-.228 8.893-.729.404-.082.61-.29.685-.762l.237-2.227-1.69.211a1 1 0 0 1-.364-1.963l2.24-.28c.001-.383-.037-.936-.116-1.154-.136-.372-.448-.544-1.281-.592q-4.397-.2-8.604-.201m3.75 2.698a1 1 0 0 1 .96.718l.276 1.618a1 1 0 0 1-1.947.442l-.137-.778h-5.805l-.11.665a1.01 1.01 0 0 1-1.151.822A1 1 0 0 1 11 19.952l.263-1.616a1 1 0 0 1 .866-.829zM16 7a76 76 0 0 0-6.081.244c-.534.058-.903.302-1.044.661L7.542 13a181 181 0 0 1 16.915 0L23.16 8.008c-.1-.402-.528-.72-1.031-.76A77 77 0 0 0 16 7.001" clip-rule="evenodd"/></g><defs><clipPath id="a"><path fill="#fff" d="M0 0h32v32H0z"/></clipPath></defs></svg>