<svg width="14" height="14" viewBox="0 0 14 14" fill="none" xmlns="http://www.w3.org/2000/svg"><path d="M4.993 2.448 C 4.178 2.461,4.136 2.464,4.010 2.515 C 3.709 2.637,3.408 2.914,3.244 3.222 C 3.200 3.304,3.138 3.500,3.081 3.737 C 3.002 4.061,2.590 5.893,2.590 5.918 C 2.590 5.923,2.322 5.927,1.995 5.927 L 1.400 5.927 1.400 6.627 L 1.400 7.327 1.782 7.327 L 2.165 7.327 2.179 7.449 C 2.187 7.517,2.235 7.936,2.287 8.380 C 2.349 8.911,2.398 9.240,2.429 9.336 C 2.492 9.526,2.597 9.734,2.704 9.882 L 2.788 9.998 2.796 10.786 L 2.803 11.573 3.677 11.573 L 4.550 11.573 4.550 11.118 C 4.550 10.749,4.556 10.663,4.582 10.663 C 4.599 10.663,4.833 10.690,5.101 10.722 C 6.120 10.846,7.880 10.846,8.899 10.722 C 9.167 10.690,9.401 10.663,9.418 10.663 C 9.444 10.663,9.450 10.749,9.450 11.118 L 9.450 11.573 10.325 11.573 L 11.200 11.573 11.200 10.789 L 11.200 10.005 11.267 9.920 C 11.451 9.687,11.572 9.415,11.618 9.135 C 11.638 9.011,11.830 7.383,11.830 7.336 C 11.830 7.331,12.003 7.327,12.215 7.327 L 12.600 7.327 12.600 6.627 L 12.600 5.927 12.005 5.927 C 11.678 5.927,11.410 5.921,11.410 5.915 C 11.410 5.885,10.980 3.971,10.920 3.733 C 10.882 3.586,10.830 3.402,10.804 3.325 C 10.707 3.046,10.474 2.773,10.201 2.620 C 9.887 2.445,10.059 2.457,7.840 2.446 C 6.743 2.440,5.462 2.441,4.993 2.448 M9.763 3.642 C 9.770 3.649,9.871 4.148,9.987 4.750 C 10.103 5.352,10.204 5.863,10.211 5.886 C 10.223 5.925,10.059 5.927,7.000 5.927 C 3.941 5.927,3.777 5.925,3.789 5.886 C 3.796 5.863,3.886 5.404,3.990 4.865 C 4.094 4.326,4.189 3.830,4.202 3.763 L 4.226 3.642 4.452 3.633 C 4.823 3.619,9.748 3.627,9.763 3.642 M3.815 7.669 C 4.570 7.837,4.716 7.898,4.804 8.079 C 4.948 8.378,4.789 8.740,4.476 8.823 C 4.382 8.848,4.333 8.845,4.091 8.797 C 3.653 8.710,3.106 8.571,3.044 8.529 C 2.960 8.475,2.851 8.315,2.821 8.204 C 2.770 8.017,2.878 7.757,3.049 7.651 C 3.224 7.543,3.255 7.543,3.815 7.669 M10.935 7.642 C 11.199 7.797,11.273 8.122,11.105 8.387 C 11.019 8.523,10.942 8.557,10.446 8.679 C 9.956 8.800,9.655 8.850,9.542 8.831 C 9.421 8.811,9.275 8.702,9.217 8.587 C 9.191 8.536,9.163 8.432,9.155 8.356 C 9.138 8.190,9.195 8.048,9.323 7.935 C 9.416 7.854,9.476 7.835,10.138 7.677 C 10.681 7.548,10.767 7.544,10.935 7.642 M8.151 8.117 C 8.292 8.205,8.344 8.310,8.449 8.715 C 8.568 9.177,8.579 9.367,8.495 9.514 C 8.369 9.733,8.073 9.834,7.852 9.733 C 7.657 9.643,7.581 9.526,7.490 9.176 L 7.465 9.077 7.000 9.077 L 6.535 9.077 6.510 9.176 C 6.441 9.441,6.409 9.510,6.306 9.607 C 6.162 9.742,5.991 9.797,5.838 9.757 C 5.778 9.741,5.689 9.701,5.642 9.668 C 5.546 9.602,5.437 9.410,5.437 9.308 C 5.437 9.135,5.623 8.385,5.695 8.268 C 5.764 8.157,5.874 8.087,6.008 8.070 C 6.072 8.062,6.561 8.057,7.093 8.058 L 8.062 8.062 8.151 8.117 " fill="#1A1C1F" stroke="none" fill-rule="evenodd"></path></svg>