<svg xmlns="http://www.w3.org/2000/svg" width="14" height="14" fill="none"><g clip-path="url(#a)"><path fill="#1A1C1F" fill-rule="evenodd" d="M9.542 2.43c.588 0 1.148.416 1.301.987q.153.57.57 2.513H12.6v1.4h-.774q-.157 1.435-.21 1.84-.052.407-.415.837v1.563H9.45v-.921a16.7 16.7 0 0 1-4.9 0l-.005.921H2.8v-1.562a1.76 1.76 0 0 1-.437-.976 277 277 0 0 1-.19-1.702H1.4v-1.4h1.187l.533-2.402c.167-.564.66-1.093 1.286-1.093zM6.046 8.036a.53.53 0 0 0-.405.316l-.213.846c-.026.231.082.441.34.547.258.105.578-.074.667-.288l.1-.377h.93l.098.37a.525.525 0 0 0 1.009-.252l-.213-.846a.53.53 0 0 0-.405-.316zm-2.603-.459a.525.525 0 0 0-.305 1.002l1.092.257a.525.525 0 0 0 .304-1.002zm7.751.393a.525.525 0 0 0-.559-.404l-1.093.247a.525.525 0 0 0 .165 1.035l1.094-.248a.525.525 0 0 0 .393-.63M9.77 3.62H4.23l-.45 2.31h6.44z" clip-rule="evenodd"/></g><defs><clipPath id="a"><path fill="#fff" d="M0 0h14v14H0z"/></clipPath></defs></svg>