<svg xmlns="http://www.w3.org/2000/svg" width="20" height="20" fill="none"><g clip-path="url(#a)"><path fill="#1A1C1F" fill-rule="evenodd" d="M13.63 3.507c.84.006 1.669.664 1.86 1.403q.19.74.813 3.59H18v2h-1.105q-.225 2.24-.3 2.629c-.075.39-.292.91-.594 1.197V16.5H13.5v-1.259a23.9 23.9 0 0 1-7 0L6.493 16.5H4v-2.174c-.235-.233-.463-.689-.55-1.005q-.087-.315-.346-2.821H2v-2h1.696l.761-3.432C4.695 4.263 5.4 3.5 6.543 3.5c1.144 0 6.248 0 7.088.007m-4.993 8.002a.75.75 0 0 0-.579.452l-.304 1.207a.746.746 0 0 0 .58.815c.425.096.731-.138.858-.445L9.335 13h1.329l.14.529a.75.75 0 0 0 1.442-.36l-.304-1.208a.75.75 0 0 0-.58-.453zm-3.719-.656a.75.75 0 0 0-.435 1.432l1.56.367a.75.75 0 0 0 .434-1.432zm11.074.562a.75.75 0 0 0-.799-.578l-1.562.354a.75.75 0 0 0 .236 1.477l1.563-.353a.75.75 0 0 0 .562-.9M13.958 5.2H6.043L5.4 8.5h9.2z" clip-rule="evenodd"/></g><defs><clipPath id="a"><path fill="#fff" d="M0 0h20v20H0z"/></clipPath></defs></svg>