<svg xmlns="http://www.w3.org/2000/svg" width="12" height="12" fill="none"><g clip-path="url(#a)"><path fill="#1A1C1F" fill-rule="evenodd" d="M8.178 2.083c.505 0 .985.356 1.116.846q.13.489.488 2.154H10.8v1.2h-.663q-.135 1.229-.18 1.577t-.357.718v1.34H8.1v-.79a14.3 14.3 0 0 1-4.2 0l-.004.79H2.4v-1.34a1.5 1.5 0 0 1-.375-.836l-.163-1.46H1.2v-1.2h1.018l.456-2.058c.143-.483.566-.937 1.103-.937zM5.182 6.888a.45.45 0 0 0-.347.271l-.182.725c-.022.198.07.378.29.469.222.09.496-.064.572-.247l.086-.323h.797l.084.317a.45.45 0 0 0 .865-.216l-.182-.725a.45.45 0 0 0-.347-.271zm-2.231-.393a.45.45 0 0 0-.261.859l.935.22a.45.45 0 0 0 .261-.86zm6.644.337a.45.45 0 0 0-.48-.347l-.937.212a.45.45 0 0 0 .142.887l.938-.212a.45.45 0 0 0 .337-.54m-1.22-3.73h-4.75l-.385 1.98h5.52z" clip-rule="evenodd"/></g><defs><clipPath id="a"><path fill="#fff" d="M0 0h12v12H0z"/></clipPath></defs></svg>