<svg width="14" height="14" viewBox="0 0 14 14" fill="none" xmlns="http://www.w3.org/2000/svg"><path d="M4.958 2.472 C 4.119 2.488,4.140 2.485,3.842 2.642 C 3.652 2.742,3.349 3.046,3.248 3.236 C 3.170 3.385,3.036 3.917,2.716 5.349 L 2.582 5.950 1.991 5.950 L 1.400 5.950 1.400 6.650 L 1.400 7.350 1.785 7.350 C 2.004 7.350,2.170 7.359,2.170 7.371 C 2.170 7.424,2.314 8.671,2.346 8.902 C 2.412 9.364,2.498 9.608,2.698 9.893 L 2.788 10.022 2.796 10.786 L 2.803 11.550 3.677 11.550 L 4.550 11.550 4.550 11.105 C 4.550 10.682,4.552 10.661,4.593 10.674 C 4.617 10.682,4.867 10.714,5.148 10.746 C 6.250 10.872,7.750 10.872,8.852 10.746 C 9.133 10.714,9.383 10.682,9.407 10.674 C 9.448 10.661,9.450 10.682,9.450 11.105 L 9.450 11.550 10.325 11.550 L 11.200 11.550 11.200 10.793 L 11.200 10.036 11.314 9.885 C 11.489 9.654,11.585 9.383,11.654 8.921 C 11.679 8.754,11.830 7.412,11.830 7.357 C 11.830 7.353,12.003 7.350,12.215 7.350 L 12.600 7.350 12.600 6.650 L 12.600 5.950 12.005 5.950 C 11.678 5.950,11.410 5.944,11.410 5.937 C 11.410 5.908,10.982 4.003,10.919 3.757 C 10.824 3.376,10.768 3.226,10.669 3.083 C 10.508 2.848,10.149 2.586,9.870 2.502 C 9.771 2.472,6.116 2.450,4.958 2.472 M9.763 3.665 C 9.770 3.673,9.871 4.171,9.987 4.773 C 10.103 5.376,10.204 5.887,10.211 5.909 C 10.223 5.948,10.059 5.950,7.000 5.950 C 3.941 5.950,3.777 5.948,3.789 5.909 C 3.796 5.887,3.886 5.427,3.990 4.888 C 4.093 4.349,4.189 3.854,4.202 3.787 L 4.226 3.665 4.464 3.656 C 4.855 3.643,9.748 3.651,9.763 3.665 M3.430 7.608 C 3.711 7.653,4.467 7.845,4.593 7.904 C 4.771 7.987,4.853 8.121,4.853 8.327 C 4.853 8.667,4.598 8.904,4.283 8.856 C 4.119 8.832,3.268 8.638,3.144 8.596 C 2.925 8.523,2.761 8.229,2.819 8.012 C 2.852 7.888,2.959 7.723,3.041 7.670 C 3.086 7.640,3.205 7.596,3.267 7.586 C 3.273 7.585,3.347 7.595,3.430 7.608 M10.836 7.612 C 10.893 7.629,10.974 7.683,11.039 7.747 C 11.208 7.916,11.241 8.136,11.129 8.355 C 11.030 8.549,10.882 8.611,10.127 8.772 C 9.619 8.881,9.538 8.882,9.382 8.778 C 9.195 8.652,9.126 8.493,9.158 8.261 C 9.181 8.098,9.273 7.967,9.415 7.898 C 9.528 7.843,10.010 7.717,10.442 7.630 C 10.701 7.577,10.717 7.577,10.836 7.612 M8.085 8.103 C 8.194 8.161,8.305 8.274,8.344 8.366 C 8.390 8.477,8.532 9.076,8.552 9.243 C 8.572 9.409,8.518 9.541,8.382 9.665 C 8.218 9.812,8.021 9.834,7.805 9.730 C 7.649 9.654,7.576 9.531,7.490 9.199 L 7.465 9.100 7.000 9.100 L 6.535 9.100 6.510 9.199 C 6.456 9.408,6.412 9.520,6.348 9.608 C 6.147 9.885,5.682 9.846,5.505 9.537 C 5.422 9.392,5.433 9.201,5.549 8.744 C 5.653 8.337,5.695 8.251,5.837 8.152 C 5.966 8.063,6.094 8.054,7.163 8.060 C 7.894 8.064,8.025 8.070,8.085 8.103 " fill="#1A1C1F" stroke="none" fill-rule="evenodd"></path></svg>