<svg width="12" height="12" viewBox="0 0 12 12" fill="none" xmlns="http://www.w3.org/2000/svg"><path d="M4.230 2.119 C 3.533 2.133,3.547 2.131,3.293 2.264 C 3.130 2.350,2.870 2.611,2.784 2.774 C 2.717 2.901,2.602 3.358,2.328 4.585 L 2.213 5.100 1.706 5.100 L 1.200 5.100 1.200 5.700 L 1.200 6.300 1.530 6.300 C 1.815 6.300,1.860 6.304,1.860 6.331 C 1.860 6.391,2.020 7.731,2.042 7.849 C 2.085 8.088,2.195 8.334,2.343 8.523 L 2.400 8.596 2.400 9.248 L 2.400 9.900 3.150 9.900 L 3.900 9.900 3.900 9.521 C 3.900 9.226,3.906 9.143,3.925 9.150 C 3.939 9.155,4.152 9.182,4.400 9.210 C 5.354 9.317,6.646 9.317,7.600 9.210 C 7.848 9.182,8.061 9.155,8.075 9.150 C 8.094 9.143,8.100 9.226,8.100 9.521 L 8.100 9.900 8.850 9.900 L 9.600 9.900 9.600 9.249 L 9.600 8.599 9.682 8.496 C 9.898 8.222,9.956 7.999,10.060 7.050 C 10.092 6.753,10.124 6.463,10.131 6.405 L 10.143 6.300 10.471 6.300 L 10.800 6.300 10.800 5.700 L 10.800 5.100 10.290 5.100 C 10.010 5.100,9.780 5.095,9.780 5.088 C 9.780 5.041,9.362 3.219,9.307 3.030 C 9.222 2.733,9.173 2.648,8.986 2.467 C 8.841 2.326,8.624 2.193,8.460 2.144 C 8.376 2.119,5.187 2.100,4.230 2.119 M8.368 3.142 C 8.375 3.148,8.461 3.575,8.561 4.092 C 8.660 4.608,8.746 5.046,8.752 5.065 C 8.762 5.098,8.622 5.100,6.000 5.100 C 3.378 5.100,3.238 5.098,3.248 5.065 C 3.254 5.046,3.331 4.652,3.420 4.190 C 3.508 3.728,3.590 3.303,3.602 3.246 L 3.623 3.141 3.826 3.134 C 4.162 3.122,8.356 3.129,8.368 3.142 M2.940 6.521 C 3.180 6.559,3.829 6.724,3.936 6.774 C 4.087 6.845,4.159 6.962,4.160 7.139 C 4.160 7.361,4.043 7.526,3.844 7.582 C 3.761 7.605,3.724 7.602,3.480 7.553 C 3.036 7.463,2.655 7.364,2.601 7.324 C 2.528 7.270,2.447 7.144,2.418 7.042 C 2.387 6.933,2.414 6.814,2.499 6.691 C 2.574 6.582,2.667 6.524,2.800 6.502 C 2.806 6.501,2.869 6.510,2.940 6.521 M9.288 6.524 C 9.337 6.539,9.407 6.585,9.462 6.641 C 9.607 6.785,9.635 6.974,9.539 7.162 C 9.455 7.327,9.327 7.380,8.680 7.519 C 8.245 7.613,8.175 7.613,8.042 7.524 C 7.881 7.416,7.822 7.280,7.850 7.081 C 7.869 6.941,7.949 6.829,8.070 6.769 C 8.167 6.722,8.459 6.646,8.910 6.550 C 9.171 6.494,9.182 6.493,9.288 6.524 M6.752 6.917 C 6.935 6.932,7.047 6.991,7.122 7.114 C 7.169 7.189,7.307 7.723,7.329 7.913 C 7.347 8.067,7.304 8.176,7.184 8.284 C 7.042 8.412,6.867 8.430,6.683 8.335 C 6.549 8.266,6.495 8.173,6.420 7.885 L 6.398 7.800 6.000 7.800 L 5.602 7.800 5.580 7.885 C 5.534 8.064,5.496 8.160,5.441 8.235 C 5.269 8.473,4.870 8.439,4.719 8.175 C 4.647 8.051,4.657 7.886,4.756 7.495 C 4.845 7.146,4.881 7.072,5.003 6.988 C 5.072 6.940,5.113 6.928,5.248 6.918 C 5.479 6.902,6.559 6.901,6.752 6.917 " fill="#1A1C1F" stroke="none" fill-rule="evenodd"></path></svg>