<svg xmlns="http://www.w3.org/2000/svg" width="28" height="28" fill="none"><g clip-path="url(#a)"><path fill="#1A1C1F" fill-rule="evenodd" d="M14 4.375q2.742 0 5.484.222c1.11.088 2.097.786 2.43 1.82l1.302 4.988h2.188c.448 0 .794.311.84.743l.006.947c0 .449-.313.845-.745.899l-1.01.006q0 .774-.104 2.018-.105 1.245-.255 2.422c-.055.577-.243 1.068-.543 1.452q.012.042.032.233v1.784c0 .435 0 1.67-1.834 1.714l-1.42.002c-1.859 0-1.975-1.208-1.992-1.56l-.003-.75c-.71.057-2.183.115-4.372.122s-4.275-.09-4.38-.097l.001.569c0 .435 0 1.714-1.834 1.714l-1.42.002c-1.975 0-1.975-1.208-1.992-1.56l-.004-1.94q0-.069.041-.258a2.6 2.6 0 0 1-.522-1.212q-.133-1.269-.262-2.432c-.13-1.163-.138-2.085-.13-2.224L2.596 14c-.483 0-.846-.422-.846-.905v-.875c0-.484.363-.845.846-.845h2.196l1.247-4.793C6.32 5.455 7.293 4.728 8.53 4.595a68 68 0 0 1 5.47-.22M6.125 20.837v1.038h1.75v-.707q-.546-.05-1.75-.331m15.749-.021a34 34 0 0 1-1.749.302v.757h1.75zM14 12.952q-3.681 0-7.362.173c-.868.034-1.17.176-1.29.486q-.102.258-.09 1.044l1.85.227a.875.875 0 0 1-.114 1.743l-1.58-.192.194 1.839c.04.408.189.633.66.792 1.17.33 3.84.627 7.732.623s5.639-.2 7.781-.638c.354-.072.535-.253.6-.667l.207-1.949-1.48.185a.875.875 0 0 1-.317-1.718l1.96-.245c.001-.334-.032-.818-.102-1.01-.118-.325-.391-.476-1.12-.518A166 166 0 0 0 14 12.951m3.281 2.36c.392 0 .732.26.84.629l.242 1.415a.875.875 0 0 1-1.703.388l-.12-.681h-5.08l-.097.58a.885.885 0 0 1-1.007.72.875.875 0 0 1-.73-.905l.23-1.414a.875.875 0 0 1 .757-.725zm-3.28-9.186q-2.661 0-5.322.213c-.468.05-.79.264-.914.578L6.6 11.375a158 158 0 0 1 14.8 0l-1.135-4.368c-.088-.352-.462-.63-.902-.665A68 68 0 0 0 14 6.126" clip-rule="evenodd"/></g><defs><clipPath id="a"><path fill="#fff" d="M0 0h28v28H0z"/></clipPath></defs></svg>