<svg xmlns="http://www.w3.org/2000/svg" width="16" height="16" fill="none"><g clip-path="url(#a)"><path fill="#1A1C1F" fill-rule="evenodd" d="M10.905 2.805c.671.006 1.334.532 1.487 1.123q.153.59.65 2.872H14.4v1.6h-.884q-.18 1.791-.24 2.103c-.06.312-.234.728-.475.958V13.2H10.8v-1.007a19.1 19.1 0 0 1-5.6 0L5.195 13.2H3.2v-1.74c-.188-.186-.37-.55-.44-.803q-.07-.252-.277-2.257H1.6V6.8h1.357l.609-2.745C3.756 3.41 4.32 2.8 5.235 2.8c.914 0 4.998 0 5.67.005M6.91 9.207a.6.6 0 0 0-.464.362l-.243.966a.597.597 0 0 0 .464.651c.34.077.585-.11.687-.355l.114-.431h1.063l.112.423a.6.6 0 0 0 1.153-.288l-.242-.966a.6.6 0 0 0-.464-.362zm-2.975-.524a.6.6 0 0 0-.349 1.145l1.248.294a.6.6 0 0 0 .348-1.146zm8.858.45a.6.6 0 0 0-.639-.463l-1.25.282a.6.6 0 0 0 .19 1.183l1.25-.283a.6.6 0 0 0 .45-.72M11.166 4.16H4.835L4.32 6.8h7.36z" clip-rule="evenodd"/></g><defs><clipPath id="a"><path fill="#fff" d="M0 0h16v16H0z"/></clipPath></defs></svg>