<svg xmlns="http://www.w3.org/2000/svg" width="32" height="32" fill="none"><path fill="#1A1C1F" fill-rule="evenodd" d="M25.573 5.475c-.709.15-1.242.294-1.454.392-.674.312-1.188 1.022-1.302 1.8-.051.344-.02.541.698 4.493.413 2.273.752 4.157.752 4.187 0 .029-.126.123-.28.209-1.002.556-2.289 1.514-3.101 2.308-1.199 1.172-1.595 2.038-1.767 3.87l-.034.36-5.125-.014-5.124-.013-.069-.34c-.252-1.236-1.306-2.274-2.585-2.547-1.869-.398-3.702.89-4 2.81-.248 1.604.833 3.249 2.418 3.677 1.191.322 2.387.008 3.24-.849.227-.229.471-.538.561-.711l.159-.306 5.871-.014 5.871-.014.201-.153c.299-.229.37-.444.333-1.02-.068-1.055.143-2.112.542-2.724.259-.398 1.159-1.269 1.822-1.764.545-.407 1.38-.951 1.409-.919.009.011.11.523.223 1.136.145.788.187 1.122.144 1.137-.197.065-.853.596-1.059.856-1.1 1.39-1.001 3.259.238 4.49.656.652 1.403.964 2.325.971a3.32 3.32 0 0 0 3.206-2.318c.116-.357.143-.543.146-.998.006-.969-.271-1.636-.979-2.353-.529-.537-1.014-.804-1.708-.94-.291-.058-.431-.11-.448-.169-.014-.047-.507-2.725-1.096-5.952s-1.083-5.93-1.099-6.007c-.037-.184.096-.496.254-.598.068-.044.652-.191 1.297-.327.646-.136 1.258-.29 1.36-.342.529-.268.563-1.081.06-1.422-.271-.184-.565-.166-1.9.118M3.651 16.182c-.646.281-.652 1.235-.01 1.527.176.079.349.102.786.103.695.002 1.758.123 2.308.265.521.133 1.187.477 1.537.791.315.283.64.746.849 1.206.082.18.213.392.292.471.527.527 1.428.143 1.428-.608 0-.247-.395-1.091-.73-1.561-.335-.469-1.013-1.088-1.48-1.352-.823-.465-1.89-.751-3.218-.862-.876-.074-1.565-.066-1.762.02m2.558 5.788c.335.164.614.443.778.779.195.398.188 1.006-.017 1.422-.386.788-1.339 1.138-2.118.78-.408-.187-.593-.36-.799-.747-.157-.294-.179-.384-.179-.736-.001-.528.147-.872.524-1.216.372-.339.645-.439 1.149-.423.295.009.469.046.662.141m20.832-.066c.373.12.799.511.962.882.193.44.177.936-.046 1.388-.197.4-.389.584-.809.777-.77.354-1.733.007-2.108-.76a1.648 1.648 0 0 1 .921-2.297c.277-.102.748-.098 1.08.01"/></svg>