<svg width="32" height="32" viewBox="0 0 32 32" fill="none" xmlns="http://www.w3.org/2000/svg"><path d="M25.920 5.331 C 24.196 5.690,23.970 5.771,23.483 6.209 C 22.980 6.661,22.667 7.321,22.667 7.930 C 22.667 8.091,22.738 8.647,22.825 9.165 C 22.967 10.006,24.006 15.702,24.083 16.065 C 24.113 16.202,24.072 16.237,23.324 16.725 C 22.889 17.008,22.267 17.439,21.941 17.684 C 21.224 18.222,20.199 19.234,19.869 19.729 C 19.399 20.436,19.072 21.440,19.006 22.377 L 18.971 22.880 13.972 22.880 L 8.973 22.880 8.883 22.520 C 8.455 20.813,6.770 19.691,5.006 19.940 C 4.471 20.015,4.164 20.124,3.722 20.392 C 3.008 20.827,2.445 21.521,2.182 22.293 C 2.022 22.765,1.983 23.670,2.101 24.176 C 2.253 24.822,2.572 25.353,3.147 25.913 C 4.279 27.018,6.042 27.175,7.408 26.292 C 7.812 26.031,8.291 25.543,8.492 25.187 L 8.650 24.907 14.045 24.906 C 17.042 24.905,19.652 24.882,19.918 24.854 C 20.499 24.793,20.785 24.630,20.895 24.294 C 20.934 24.178,20.986 23.609,21.012 23.016 C 21.038 22.428,21.088 21.851,21.123 21.733 C 21.403 20.781,22.276 19.845,23.938 18.711 C 24.363 18.421,24.532 18.344,24.534 18.440 C 24.534 18.462,24.606 18.886,24.694 19.383 C 24.781 19.879,24.847 20.289,24.840 20.293 C 24.832 20.297,24.667 20.412,24.471 20.549 C 23.838 20.994,23.398 21.615,23.156 22.406 C 22.771 23.664,23.157 25.007,24.174 25.949 C 25.433 27.115,27.394 27.174,28.655 26.084 C 29.582 25.283,29.971 24.478,29.972 23.360 C 29.972 22.797,29.864 22.325,29.624 21.838 C 29.160 20.899,28.267 20.203,27.227 19.972 L 26.844 19.887 26.324 17.103 C 24.847 9.197,24.634 7.979,24.703 7.849 C 24.808 7.653,25.004 7.582,26.137 7.333 C 27.317 7.073,27.612 6.966,27.771 6.740 C 28.158 6.188,27.992 5.527,27.397 5.250 C 27.244 5.179,27.072 5.122,27.013 5.123 C 26.955 5.125,26.463 5.218,25.920 5.331 M3.833 15.930 C 3.362 15.971,2.928 16.525,3.003 16.988 C 3.043 17.235,3.219 17.515,3.440 17.684 C 3.597 17.803,3.694 17.824,4.302 17.869 C 6.178 18.007,6.856 18.137,7.533 18.488 C 8.051 18.756,8.541 19.254,8.853 19.830 C 9.200 20.469,9.370 20.692,9.575 20.777 C 9.917 20.921,10.416 20.840,10.684 20.598 C 10.840 20.457,10.987 20.131,10.987 19.925 C 10.987 19.501,10.560 18.622,10.033 17.958 C 9.185 16.892,7.754 16.197,6.015 16.007 C 5.435 15.943,4.187 15.900,3.833 15.930 M6.171 22.061 C 6.624 22.275,6.913 22.714,6.971 23.277 C 7.010 23.656,6.880 24.031,6.599 24.350 C 5.697 25.375,4.026 24.733,4.033 23.364 C 4.036 22.926,4.183 22.597,4.512 22.294 C 4.982 21.861,5.572 21.778,6.171 22.061 M27.139 22.050 C 27.675 22.321,27.962 22.777,27.962 23.354 C 27.962 24.709,26.322 25.374,25.428 24.383 C 25.140 24.064,25.051 23.825,25.046 23.360 C 25.042 23.007,25.061 22.926,25.206 22.668 C 25.612 21.950,26.428 21.689,27.139 22.050 " fill="#1A1C1F" stroke="none" fill-rule="evenodd"></path></svg>