<svg xmlns="http://www.w3.org/2000/svg" width="20" height="20" fill="none"><g clip-path="url(#a)"><path fill="#1A1C1F" fill-rule="evenodd" d="M11 1.991a1 1 0 0 1 1 1c0 .513-.42 1-1 1q-2.22.003-4.44 0c-.101 0-.169.077-.192.162q-.064.279-.625 2.838h3.35c.195-.53.795-1 1.407-1q.254-.003.5 0c-.007-.505.341-1 1-1h3c.5 0 1 .5.993 1.018l.507.002c.78 0 1.5.624 1.5 1.48v9c0 .78-.617 1.499-1.5 1.5q-3 .003-6 .02c-.78 0-1.498-.64-1.5-1.5q-.003-1.278 0-2.52a59 59 0 0 1-3-.314v1.314H3.5v-3.02a4 4 0 0 1-.125-.549q-.139-1.215-.271-2.431h-.456c-.37 0-.648-.321-.648-.69v-.666a.63.63 0 0 1 .648-.644h1.048l.719-3.268c.207-.941.994-1.73 2.044-1.732q2.27-.003 4.541 0m5 6.019h-5v8h5zm-2.764 1.402a.75.75 0 0 1 1.01-.326.74.74 0 0 1 .325 1.01q-.22.435-.581 1.135l.273-.001c.543-.005.95.579.66 1.118l-1.28 2.268a.75.75 0 0 1-1.022.284.753.753 0 0 1-.285-1.021l.642-1.14-.213.002a.747.747 0 0 1-.674-1.091q.245-.472 1.145-2.238M5.92 9.01a.75.75 0 0 0-.435 1.432l1.559.367a.75.75 0 0 0 .435-1.432z" clip-rule="evenodd"/></g><defs><clipPath id="a"><path fill="#fff" d="M0 0h20v20H0z"/></clipPath></defs></svg>