<svg width="16" height="16" viewBox="0 0 16 16" fill="none" xmlns="http://www.w3.org/2000/svg"><path d="M12.067 1.770 C 11.296 1.974,10.338 2.299,10.171 2.414 C 9.935 2.576,9.767 2.837,9.693 3.158 C 9.644 3.370,9.650 3.407,10.118 5.778 C 10.462 7.513,10.561 8.046,10.559 8.143 C 10.558 8.184,10.483 8.252,10.286 8.391 C 9.691 8.807,8.988 9.484,8.692 9.926 C 8.407 10.353,8.209 10.807,8.109 11.267 L 8.063 11.480 6.743 11.487 L 5.424 11.494 5.364 11.369 C 5.171 10.972,4.742 10.603,4.258 10.418 C 4.046 10.337,4.029 10.335,3.600 10.335 C 3.161 10.335,3.159 10.336,2.920 10.428 C 2.033 10.772,1.515 11.619,1.624 12.549 C 1.680 13.021,1.885 13.410,2.270 13.772 C 2.426 13.918,2.546 14.003,2.703 14.079 C 3.038 14.240,3.213 14.278,3.613 14.279 C 3.934 14.279,3.978 14.273,4.201 14.195 C 4.723 14.014,5.096 13.711,5.350 13.260 L 5.445 13.093 7.102 13.093 C 8.054 13.093,8.840 13.081,8.947 13.066 C 9.162 13.035,9.297 12.955,9.431 12.779 C 9.544 12.631,9.566 12.546,9.614 12.075 C 9.676 11.469,9.777 11.169,10.051 10.781 C 10.291 10.440,10.893 9.876,10.936 9.952 C 10.947 9.972,10.992 10.162,11.036 10.374 L 11.116 10.759 10.977 10.906 C 10.535 11.372,10.358 11.898,10.426 12.542 C 10.474 13.001,10.651 13.351,11.025 13.722 C 11.221 13.918,11.312 13.986,11.494 14.076 C 11.819 14.235,12.005 14.276,12.400 14.276 C 12.956 14.276,13.347 14.130,13.716 13.785 C 13.953 13.564,14.067 13.415,14.195 13.160 C 14.339 12.872,14.380 12.679,14.381 12.280 C 14.382 11.972,14.374 11.910,14.309 11.720 C 14.078 11.036,13.593 10.576,12.894 10.373 L 12.655 10.304 12.327 8.665 C 12.147 7.764,11.855 6.295,11.679 5.400 C 11.504 4.505,11.354 3.748,11.347 3.717 C 11.335 3.665,11.380 3.647,11.967 3.468 C 12.315 3.362,12.657 3.251,12.726 3.221 C 12.877 3.157,13.050 2.976,13.127 2.805 C 13.201 2.639,13.204 2.322,13.134 2.187 C 12.923 1.780,12.562 1.639,12.067 1.770 M3.027 7.931 C 2.699 8.035,2.522 8.203,2.439 8.491 C 2.362 8.760,2.428 9.030,2.625 9.248 C 2.807 9.449,2.877 9.467,3.556 9.489 L 4.155 9.508 4.404 9.633 C 4.544 9.703,4.778 9.856,4.937 9.981 C 5.094 10.104,5.262 10.222,5.311 10.242 C 5.363 10.264,5.488 10.280,5.613 10.279 C 5.862 10.278,5.991 10.224,6.158 10.052 C 6.323 9.882,6.385 9.728,6.384 9.493 C 6.382 9.223,6.318 9.096,6.058 8.848 C 5.572 8.386,4.907 8.035,4.323 7.932 C 4.039 7.883,3.182 7.882,3.027 7.931 M3.753 11.946 C 3.958 12.039,4.041 12.258,3.950 12.465 C 3.905 12.567,3.873 12.599,3.770 12.644 C 3.601 12.719,3.463 12.699,3.344 12.584 C 3.227 12.470,3.189 12.355,3.225 12.222 C 3.264 12.076,3.325 12.001,3.450 11.944 C 3.587 11.882,3.613 11.882,3.753 11.946 M12.553 11.946 C 12.758 12.039,12.841 12.258,12.750 12.465 C 12.705 12.567,12.673 12.599,12.570 12.644 C 12.401 12.719,12.263 12.699,12.144 12.584 C 12.027 12.470,11.989 12.355,12.025 12.222 C 12.064 12.076,12.125 12.001,12.250 11.944 C 12.387 11.882,12.413 11.882,12.553 11.946 " fill="#1A1C1F" stroke="none" fill-rule="evenodd"></path></svg>