<svg width="12" height="12" viewBox="0 0 12 12" fill="none" xmlns="http://www.w3.org/2000/svg"><path d="M8.550 1.429 C 8.286 1.500,7.785 1.676,7.673 1.736 C 7.482 1.839,7.330 2.062,7.278 2.316 L 7.252 2.441 7.489 3.546 C 7.619 4.153,7.818 5.071,7.930 5.586 L 8.133 6.522 7.952 6.609 C 7.174 6.983,6.657 7.597,6.338 8.525 L 6.250 8.780 4.976 8.780 L 3.702 8.780 3.637 8.686 C 3.438 8.397,3.154 8.195,2.840 8.119 C 2.691 8.083,2.398 8.087,2.240 8.127 C 2.025 8.182,1.837 8.287,1.684 8.436 C 1.510 8.605,1.417 8.747,1.347 8.950 C 1.298 9.092,1.292 9.138,1.292 9.360 C 1.293 9.577,1.300 9.629,1.344 9.755 C 1.464 10.092,1.680 10.337,1.989 10.488 C 2.182 10.582,2.344 10.620,2.550 10.620 C 3.025 10.620,3.464 10.352,3.684 9.928 L 3.748 9.805 5.249 9.795 C 6.895 9.785,6.837 9.789,6.997 9.662 C 7.102 9.580,7.146 9.483,7.218 9.180 C 7.405 8.394,7.695 7.941,8.209 7.631 C 8.274 7.592,8.335 7.560,8.343 7.560 C 8.363 7.560,8.383 7.635,8.482 8.075 L 8.565 8.440 8.497 8.515 C 8.389 8.636,8.307 8.779,8.247 8.950 C 8.198 9.092,8.192 9.138,8.192 9.360 C 8.193 9.577,8.200 9.629,8.244 9.755 C 8.306 9.929,8.374 10.047,8.482 10.173 C 8.856 10.604,9.456 10.741,9.962 10.511 C 10.128 10.436,10.211 10.378,10.346 10.245 C 10.493 10.100,10.584 9.957,10.655 9.757 C 10.701 9.628,10.707 9.579,10.708 9.350 C 10.708 9.120,10.702 9.074,10.656 8.948 C 10.569 8.709,10.432 8.524,10.210 8.346 C 10.060 8.226,9.890 8.148,9.686 8.108 L 9.530 8.076 8.934 5.343 C 8.606 3.840,8.338 2.604,8.339 2.596 C 8.340 2.583,8.484 2.525,8.855 2.390 C 9.036 2.324,9.071 2.303,9.150 2.215 C 9.372 1.969,9.329 1.657,9.045 1.454 C 8.928 1.370,8.791 1.363,8.550 1.429 M2.187 6.241 C 2.066 6.278,1.934 6.385,1.881 6.490 C 1.840 6.569,1.830 6.618,1.831 6.730 C 1.831 6.892,1.870 6.989,1.977 7.095 C 2.088 7.207,2.139 7.219,2.564 7.232 C 2.791 7.239,2.999 7.256,3.070 7.273 C 3.236 7.313,3.457 7.437,3.670 7.609 C 3.769 7.689,3.879 7.769,3.915 7.788 C 4.150 7.908,4.471 7.788,4.577 7.541 C 4.649 7.374,4.653 7.282,4.592 7.149 C 4.454 6.847,3.848 6.432,3.332 6.286 C 3.166 6.239,3.111 6.234,2.700 6.228 C 2.447 6.224,2.223 6.230,2.187 6.241 " fill="#1A1C1F" stroke="none" fill-rule="evenodd"></path></svg>