<svg xmlns="http://www.w3.org/2000/svg" width="14" height="14" fill="none"><g clip-path="url(#a)"><path fill="#1A1C1F" fill-rule="evenodd" d="m10.076 1.624-.925.307a.945.945 0 0 0-.667 1.022L9.49 7.606c-.625.268-1.121.639-1.479 1.115a4.3 4.3 0 0 0-.705 1.508l-3.009.001a1.487 1.487 0 1 0 .077 1.19q3.464-.001 3.464-.002c.098 0 .466-.11.536-.495q.154-.91.59-1.488.282-.38.793-.64l.235 1.047a1.488 1.488 0 1 0 1.128-.414q0 .008-1.408-6.423l.706-.241c.302-.091.502-.443.4-.741a.6.6 0 0 0-.742-.4m-4.85 6.498c-.771-.744-1.59-.984-2.586-.863a.595.595 0 0 0 .144 1.182c.654-.08 1.115.055 1.615.537a.595.595 0 1 0 .826-.856" clip-rule="evenodd"/></g><defs><clipPath id="a"><path fill="#fff" d="M0 0h14v14H0z"/></clipPath></defs></svg>