<svg xmlns="http://www.w3.org/2000/svg" width="12" height="12" fill="none"><g clip-path="url(#a)"><path fill="#1A1C1F" fill-rule="evenodd" d="m3.898 8.545-.004.754H2.398V7.996a1.5 1.5 0 0 1-.375-.836L1.861 5.7h-.663V4.5h1.018l.457-2.058c.142-.483.565-.941 1.102-.941h2.613a.51.51 0 0 1 0 1.02H3.624L3.238 4.5h2.76a1.2 1.2 0 0 1 1.2-1.199.6.6 0 0 1 .6-.601h1.208c.307 0 .592.284.6.6.632.001 1.196.568 1.196 1.201l-.004 4.797a1.2 1.2 0 0 1-1.2 1.2h-2.4a1.2 1.2 0 0 1-1.2-1.2v-.598q-1.05 0-2.1-.156m5.7-4.21h-2.4a.18.18 0 0 0-.18.18v4.784c0 .086.08.173.18.18h2.4c.085 0 .18-.063.18-.18V4.515c0-.085-.089-.18-.18-.18m-4.656 2c-.196.081-.33.287-.291.47l.182.724c.052.125.204.272.348.272h.817v-.896H5.6l-.085-.322c-.06-.182-.351-.338-.572-.247m3.832-1.193A.446.446 0 0 1 9 5.737q-.163.36-.33.713h.18a.45.45 0 0 1 .411.635q-.258.586-.648 1.362a.45.45 0 0 1-.595.226.444.444 0 0 1-.226-.595q.104-.252.363-.728h-.18a.453.453 0 0 1-.411-.634q.195-.442.615-1.348a.45.45 0 0 1 .595-.226m-5.825.77.936.22a.45.45 0 0 1-.261.86l-.936-.22a.45.45 0 0 1 .261-.86" clip-rule="evenodd"/></g><defs><clipPath id="a"><path fill="#fff" d="M0 0h12v12H0z"/></clipPath></defs></svg>