<svg xmlns="http://www.w3.org/2000/svg" width="16" height="16" fill="none"><g clip-path="url(#a)"><path fill="#1A1C1F" fill-rule="evenodd" d="M8.8 1.593a.8.8 0 0 1 0 1.6q-1.776.003-3.551 0c-.082 0-.136.062-.154.13q-.053.222-.5 2.27h2.679c.156-.423.636-.8 1.126-.8q.203-.003.4 0c-.006-.404.273-.8.8-.8H12c.4 0 .8.4.794.814l.406.002c.624 0 1.2.5 1.2 1.184v7.2c0 .624-.494 1.199-1.2 1.2q-2.4.003-4.8.015a1.21 1.21 0 0 1-1.2-1.2q-.003-1.021 0-2.015a47 47 0 0 1-2.4-.251v1.05h-2V9.578a4 4 0 0 1-.1-.44q-.11-.971-.217-1.944H2.12c-.296 0-.519-.257-.519-.552v-.533c0-.295.223-.515.519-.515h.838l.575-2.615c.166-.753.795-1.384 1.635-1.385q1.817-.003 3.633 0m4 4.815h-4v6.4h4zM10.589 7.53a.6.6 0 0 1 .807-.261c.27.138.43.482.261.807l-.465.909.218-.001a.6.6 0 0 1 .528.895l-1.024 1.813a.6.6 0 0 1-1.045-.59l.513-.91-.17.001a.597.597 0 0 1-.539-.873q.196-.378.916-1.79m-5.854-.322a.6.6 0 0 0-.348 1.146l1.247.294a.6.6 0 0 0 .348-1.146z" clip-rule="evenodd"/></g><defs><clipPath id="a"><path fill="#fff" d="M0 0h16v16H0z"/></clipPath></defs></svg>