<svg xmlns="http://www.w3.org/2000/svg" width="32" height="32" fill="none"><g clip-path="url(#a)"><path fill="#1A1C1F" fill-rule="evenodd" d="M22.268 4.753c.86.068 1.678.465 2.228 1.107a1 1 0 0 1-.108 1.41c-.388.332-1.003.332-1.41-.109a1.28 1.28 0 0 0-.85-.413Q18.992 6.5 15.5 6.5q-2.5 0-5.581.244c-.535.058-.919.256-1.08.773q-.651 2.49-1.297 4.983 4.709-.15 6.626-.184 1.92-.033 3.839.004C18 11 19.56 9.5 21 9.5c0-.573.501-1 1-1h3c.5 0 1 .5.992 1C27.446 9.5 29 11 29 12.5c.5 0 1 .5 1 1v1c0 .5-.5 1-1.001 1l.001 9c0 1.566-1.5 3-3 3h-5c-1.44 0-3-1.5-3-3l.001-.51q-1.5.032-3.001.01c-1 0-2.5 0-4-.112v.612c0 1.362-.893 2-2 2H7c-1.08 0-2-.666-2-2v-2.357a3 3 0 0 1-.552-1.334q-.434-2.817-.446-5.31L3 15.5a1 1 0 0 1-1-1v-1a1 1 0 0 1 1-1h2.476l1.425-5.478c.322-1.288 1.434-2.118 2.849-2.27Q12.117 4.5 15.5 4.5c3.386 0 3.392-.014 6.767.253M20 24.56c0 .483.363.88.83.935l.11.006h5.12a.94.94 0 0 0 .933-.831l.007-.11V12.5c0-.448-.431-.926-.893-.992L26 11.5h-5c-.418 0-.864.377-.974.803l-.02.098-.006.122zM7 23.313v1.18l.184.007 1.712-.002.104-.005v-.801a19 19 0 0 1-1.623-.289zm9.53-9.011-1.34.002-.917.01-1.763.036-1.623.043-3.301.107c-.986 0-1.333.192-1.474.579q-.035.095-.059.201l-.021.112-.022.188-.007.105-.004.237.002.134.007.193.116.009 2 .25a1 1 0 0 1-.131 1.992l-.117-.008-1.688-.211.221 2.1c.045.468.243.725.632.867l.123.04c1.336.376 2.967.578 5.037.66l.673.023.659.015 1.266.012 2.128.001L18 21.99V20.5H12.25a1 1 0 0 1-.96-.718l-.026-.118-.25-1.5a1 1 0 0 1 1.947-.442l.025.114.111.664h4.902v-4.181l-.27-.004zm6.576.75a1 1 0 0 1 1.341-.446c.459.229.724.792.447 1.341q-.386.78-.776 1.553h.382c.704 0 1.246.74.894 1.447l-1.5 3a1 1 0 1 1-1.788-.894q.385-.78.775-1.553H22.5c-.704 0-1.241-.75-.894-1.447z" clip-rule="evenodd"/></g><defs><clipPath id="a"><path fill="#fff" d="M0 0h32v32H0z"/></clipPath></defs></svg>