<svg xmlns="http://www.w3.org/2000/svg" width="24" height="24" fill="none"><g clip-path="url(#a)"><path fill="#1A1C1F" fill-rule="evenodd" d="M18.988 6a1 1 0 0 1 1.008 1.023C21.125 7.023 22 8 22 9v10c0 1-1 2-2 2h-5c-1 0-2-1-2-2l-.001-1.03q-.5.03-.999.03-2.5 0-5.4-.321V18a1 1 0 0 1-1 1H5a1 1 0 0 1-1-1v-1.757q-.55-.798-.55-4.456A2.5 2.5 0 0 1 3.483 11L2.648 11c-.37 0-.648-.321-.648-.69v-.666A.63.63 0 0 1 2.648 9H4.06l.947-4.207C5.237 3.804 6.125 3 7.001 3h8.484c.521 0 .825.429.825.803 0 .373-.303.896-.804.896L7.193 4.7c-.208 0-.44.146-.53.48L5.805 9h7.194C13 8.128 13.761 7.003 15 7.023 15 6.272 15.646 6 16.006 6zm1.008 2.72-4.994.007c-.137 0-.302.085-.302.314v9.964c0 .157.12.295.302.295h4.994c.18 0 .304-.151.304-.296v-9.97c0-.156-.09-.315-.304-.315m-10.46 4.05c-.503.1-.883.624-.785 1.176q.122.626.25 1.25A.99.99 0 0 0 10 16h2.999v-1.999h-2.198l-.089-.447c-.1-.503-.673-.885-1.176-.784m-5.017.034c-.11.502.185 1.027.785 1.177q1.157.23 1.25.25a1.01 1.01 0 0 0 1.177-.785 1.014 1.014 0 0 0-.785-1.177l-1.133-.216c-.693-.14-1.157.132-1.294.75m12.785-1.408a.75.75 0 0 1 1.363.619l-.669 1.254h.245c.534.002.93.575.656 1.112q-.443.801-1.227 2.234a.75.75 0 0 1-1.019.297.757.757 0 0 1-.296-1.019q.248-.449.617-1.127h-.232a.753.753 0 0 1-.658-1.105q.608-1.137 1.22-2.265" clip-rule="evenodd"/></g><defs><clipPath id="a"><path fill="#fff" d="M0 0h24v24H0z"/></clipPath></defs></svg>