<svg xmlns="http://www.w3.org/2000/svg" width="32" height="32" fill="none"><g clip-path="url(#a)"><path fill="#1A1C1F" fill-rule="evenodd" d="m26.796 5.147-2.161.449a2.5 2.5 0 0 0-1.975 2.737l1.46 7.893c-1.662.963-2.94 1.948-3.865 2.985-.833.93-1.254 2.163-1.289 3.664H8.965a3.5 3.5 0 1 0-.302 2.002L20 24.876c.31 0 1.036-.238.996-1.088-.13-1.494.135-2.557.75-3.245q.996-1.116 2.762-2.218l.364 1.952a3.5 3.5 0 1 0 1.963-.386L24.65 8.136a.5.5 0 0 1 .305-.556l2.247-.474c.54-.112.89-.7.768-1.206a.994.994 0 0 0-1.175-.752M26.5 21.876a1.5 1.5 0 1 1 0 2.999 1.5 1.5 0 0 1 0-3m-21 0a1.5 1.5 0 1 1 0 2.999 1.5 1.5 0 0 1 0-3m-1.5-6a1 1 0 1 0 0 2c3.043 0 4.343.587 5.077 2.379a1 1 0 1 0 1.85-.758c-1.101-2.692-3.16-3.621-6.926-3.621" clip-rule="evenodd"/></g><defs><clipPath id="a"><path fill="#fff" d="M0 0h32v32H0z"/></clipPath></defs></svg>