<svg width="28" height="28" viewBox="0 0 28 28" fill="none" xmlns="http://www.w3.org/2000/svg"><path d="M22.680 4.665 C 21.172 4.978,20.974 5.050,20.548 5.432 C 20.105 5.831,19.833 6.406,19.833 6.946 C 19.833 7.091,19.917 7.693,20.018 8.283 C 20.176 9.204,20.996 13.687,21.073 14.057 C 21.099 14.177,21.062 14.208,20.408 14.634 C 20.028 14.882,19.484 15.259,19.199 15.473 C 18.571 15.944,17.674 16.829,17.386 17.263 C 16.974 17.882,16.688 18.760,16.630 19.580 L 16.600 20.020 12.225 20.020 L 7.851 20.020 7.772 19.705 C 7.398 18.209,5.924 17.230,4.375 17.448 C 3.643 17.551,3.113 17.835,2.577 18.409 C 2.036 18.989,1.775 19.659,1.775 20.463 C 1.775 21.357,2.057 21.995,2.753 22.674 C 3.744 23.641,5.287 23.778,6.482 23.006 C 6.836 22.777,7.255 22.350,7.430 22.039 L 7.569 21.793 12.289 21.793 C 14.912 21.792,17.196 21.772,17.428 21.748 C 17.937 21.694,18.186 21.551,18.284 21.257 C 18.317 21.156,18.362 20.658,18.385 20.139 C 18.408 19.624,18.452 19.119,18.482 19.017 C 18.642 18.476,19.083 17.862,19.697 17.326 C 20.278 16.819,21.375 16.037,21.429 16.091 C 21.460 16.122,21.758 17.743,21.735 17.756 C 21.728 17.760,21.583 17.861,21.412 17.981 C 20.858 18.369,20.473 18.913,20.261 19.605 C 19.929 20.690,20.260 21.872,21.120 22.677 C 21.714 23.232,22.346 23.486,23.147 23.492 C 23.416 23.494,23.752 23.467,23.893 23.433 C 24.937 23.177,25.914 22.202,26.157 21.175 C 26.246 20.797,26.244 20.125,26.154 19.740 C 26.008 19.118,25.589 18.465,25.078 18.064 C 24.760 17.813,24.235 17.567,23.824 17.475 L 23.489 17.401 23.034 14.965 C 21.741 8.048,21.555 6.982,21.615 6.868 C 21.707 6.696,21.878 6.634,22.870 6.416 C 23.903 6.189,24.161 6.095,24.299 5.898 C 24.638 5.415,24.493 4.836,23.972 4.594 C 23.839 4.532,23.688 4.482,23.637 4.483 C 23.585 4.484,23.155 4.566,22.680 4.665 M3.354 13.939 C 2.942 13.975,2.562 14.460,2.628 14.865 C 2.663 15.082,2.817 15.326,3.012 15.475 C 3.160 15.587,3.226 15.599,4.070 15.660 C 5.074 15.733,5.416 15.780,5.925 15.918 C 6.733 16.136,7.350 16.622,7.747 17.351 C 8.050 17.911,8.198 18.105,8.378 18.180 C 8.861 18.382,9.476 18.089,9.599 17.598 C 9.648 17.402,9.535 16.987,9.312 16.543 C 8.564 15.058,7.221 14.228,5.203 14.005 C 4.704 13.949,3.658 13.912,3.354 13.939 M5.489 19.344 C 5.839 19.549,6.113 20.041,6.113 20.463 C 6.113 20.738,5.979 21.074,5.777 21.303 C 4.985 22.203,3.522 21.644,3.529 20.443 C 3.530 20.224,3.561 20.074,3.636 19.917 C 3.750 19.679,4.077 19.349,4.282 19.265 C 4.644 19.116,5.157 19.150,5.489 19.344 M23.747 19.293 C 24.214 19.530,24.466 19.928,24.469 20.434 C 24.471 20.825,24.350 21.110,24.060 21.391 C 23.576 21.861,22.798 21.868,22.314 21.406 C 22.042 21.145,21.915 20.841,21.913 20.440 C 21.911 20.133,21.929 20.058,22.056 19.834 C 22.410 19.206,23.124 18.978,23.747 19.293 " fill="#1A1C1F" stroke="none" fill-rule="evenodd"></path></svg>