<svg width="16" height="16" viewBox="0 0 16 16" fill="none" xmlns="http://www.w3.org/2000/svg"><path d="M5.280 2.024 C 4.706 2.039,4.674 2.043,4.533 2.109 C 4.087 2.321,3.745 2.723,3.590 3.219 C 3.536 3.390,2.960 5.921,2.960 5.985 C 2.960 5.993,2.654 6.000,2.280 6.000 L 1.600 6.000 1.600 6.800 L 1.600 7.600 2.007 7.600 C 2.230 7.601,2.428 7.610,2.446 7.621 C 2.467 7.635,2.512 7.940,2.573 8.466 C 2.743 9.953,2.778 10.093,3.077 10.500 L 3.200 10.667 3.200 11.533 L 3.200 12.400 4.200 12.400 L 5.200 12.400 5.200 11.899 L 5.200 11.397 5.553 11.444 C 6.108 11.516,6.844 11.574,7.443 11.592 L 7.994 11.608 8.007 12.171 C 8.018 12.656,8.028 12.755,8.077 12.891 C 8.250 13.373,8.628 13.749,9.102 13.912 L 9.320 13.987 11.200 13.987 L 13.080 13.987 13.267 13.923 C 13.772 13.752,14.152 13.372,14.323 12.867 L 14.387 12.680 14.387 9.187 L 14.387 5.693 14.313 5.509 C 14.227 5.294,14.168 5.195,14.027 5.024 C 13.776 4.720,13.435 4.514,13.053 4.435 L 12.816 4.386 12.795 4.286 C 12.746 4.052,12.543 3.794,12.316 3.678 C 12.206 3.622,12.161 3.618,11.387 3.606 C 10.539 3.593,10.176 3.616,10.026 3.694 C 9.832 3.794,9.637 4.073,9.607 4.292 C 9.594 4.395,9.592 4.396,9.457 4.413 C 8.689 4.509,8.086 5.103,8.009 5.838 L 7.992 6.000 6.153 6.000 L 4.314 6.000 4.329 5.940 C 4.337 5.907,4.452 5.323,4.585 4.643 C 4.717 3.962,4.833 3.398,4.842 3.389 C 4.851 3.381,5.712 3.366,6.756 3.356 C 7.920 3.346,8.693 3.329,8.757 3.312 C 8.887 3.277,9.057 3.116,9.126 2.963 C 9.190 2.822,9.196 2.559,9.139 2.422 C 9.082 2.287,8.947 2.145,8.819 2.084 C 8.712 2.034,8.635 2.030,7.293 2.019 C 6.516 2.013,5.610 2.015,5.280 2.024 M12.951 5.846 C 13.027 5.922,13.036 6.303,13.038 9.495 L 13.040 12.497 12.965 12.568 L 12.890 12.640 11.194 12.640 L 9.498 12.640 9.428 12.556 L 9.357 12.472 9.365 9.229 C 9.372 6.402,9.378 5.976,9.414 5.907 C 9.453 5.828,9.457 5.826,9.720 5.811 C 9.867 5.802,10.643 5.796,11.446 5.797 C 12.792 5.800,12.908 5.804,12.951 5.846 M11.313 6.827 C 11.174 6.859,11.022 6.975,10.942 7.112 C 10.852 7.266,10.339 8.372,10.154 8.811 C 10.040 9.083,10.023 9.146,10.036 9.244 C 10.082 9.573,10.372 9.813,10.725 9.813 C 10.781 9.813,10.827 9.825,10.827 9.839 C 10.827 9.853,10.737 10.046,10.626 10.269 C 10.516 10.492,10.401 10.756,10.371 10.856 C 10.317 11.033,10.317 11.043,10.361 11.177 C 10.422 11.361,10.587 11.525,10.773 11.587 C 10.896 11.627,10.934 11.629,11.064 11.601 C 11.312 11.546,11.411 11.419,11.758 10.710 C 12.254 9.698,12.400 9.346,12.400 9.166 C 12.400 9.116,12.367 9.011,12.327 8.932 C 12.224 8.729,12.077 8.642,11.802 8.621 C 11.690 8.612,11.593 8.598,11.587 8.588 C 11.581 8.578,11.664 8.379,11.771 8.145 C 12.082 7.465,12.098 7.390,11.988 7.155 C 11.914 6.995,11.753 6.863,11.604 6.839 C 11.550 6.831,11.483 6.820,11.453 6.815 C 11.424 6.811,11.361 6.816,11.313 6.827 M4.177 7.947 C 4.622 8.039,5.154 8.184,5.280 8.248 C 5.611 8.417,5.638 8.973,5.327 9.210 C 5.153 9.343,5.036 9.352,4.622 9.268 C 4.025 9.145,3.540 9.019,3.468 8.966 C 3.361 8.888,3.231 8.676,3.213 8.551 C 3.190 8.399,3.235 8.241,3.341 8.104 C 3.511 7.882,3.694 7.848,4.177 7.947 M7.115 8.525 C 7.262 8.616,7.325 8.718,7.403 8.986 L 7.461 9.187 7.730 9.194 L 8.000 9.202 8.000 9.803 L 8.000 10.405 7.391 10.396 L 6.782 10.387 6.671 10.310 C 6.600 10.260,6.536 10.184,6.492 10.094 C 6.402 9.910,6.213 9.153,6.213 8.976 C 6.213 8.756,6.389 8.522,6.608 8.451 C 6.743 8.408,6.981 8.442,7.115 8.525 " fill="#1A1C1F" stroke="none" fill-rule="evenodd"></path></svg>