<svg xmlns="http://www.w3.org/2000/svg" width="28" height="28" fill="none"><g clip-path="url(#a)"><path fill="#1A1C1F" fill-rule="evenodd" d="M19.484 4.159c.752.06 1.469.407 1.95.969a.875.875 0 0 1-.095 1.233.884.884 0 0 1-1.234-.095 1.12 1.12 0 0 0-.743-.361 74 74 0 0 0-5.8-.217q-2.187 0-4.883.213c-.468.05-.804.224-.945.676q-.57 2.18-1.135 4.36 4.12-.131 5.798-.16 1.68-.03 3.359.003c-.006-1.155 1.359-2.467 2.619-2.467 0-.502.439-.875.875-.875h2.625c.438 0 .875.437.868.875 1.272 0 2.632 1.312 2.632 2.624.438 0 .875.438.875.876v.874c0 .438-.437.876-.876.876l.001 7.874c0 1.37-1.312 2.626-2.625 2.626h-4.375c-1.26 0-2.625-1.313-2.625-2.625l.001-.447q-1.312.028-2.626.009c-.875 0-2.187 0-3.5-.098v.535c0 1.193-.781 1.75-1.75 1.75h-1.75c-.945 0-1.75-.582-1.75-1.75v-2.061a2.6 2.6 0 0 1-.483-1.168 31.4 31.4 0 0 1-.39-4.646h-.877a.875.875 0 0 1-.875-.874v-.876c0-.483.392-.874.875-.874h2.167l1.246-4.793C6.32 5.017 7.293 4.29 8.531 4.158q2.07-.22 5.031-.22c2.963 0 2.968-.013 5.922.221M17.5 21.489c0 .422.317.77.726.818l.096.006h4.48a.82.82 0 0 0 .817-.728l.006-.096V10.938c0-.393-.377-.811-.781-.869l-.094-.007h-4.375c-.366 0-.756.33-.852.703l-.017.086-.006.107zM6.125 20.4v1.032l.16.006h1.499l.091-.006v-.7a17 17 0 0 1-1.42-.253zm8.34-7.885-1.174.002-.802.01-1.543.03-1.42.038-2.888.094c-.863 0-1.166.167-1.29.506q-.03.084-.051.176l-.02.098-.019.164-.005.092-.004.208.002.117.006.169.102.008 1.75.218a.875.875 0 0 1-.116 1.744l-.102-.007-1.476-.185.193 1.838c.04.409.212.633.553.758l.107.035c1.17.329 2.597.505 4.408.578l.589.02.576.013 1.108.01 1.863.001.937-.009v-1.302h-5.03a.875.875 0 0 1-.84-.629l-.023-.103-.22-1.312a.875.875 0 0 1 1.705-.387l.022.1.097.58h4.29V12.53l-.237-.004zm5.752.657a.875.875 0 0 1 1.174-.391c.402.2.634.693.392 1.174q-.339.683-.68 1.358h.334c.617 0 1.091.648.783 1.267l-1.312 2.625a.875.875 0 1 1-1.566-.783q.339-.682.679-1.358h-.334c-.616 0-1.086-.657-.782-1.267z" clip-rule="evenodd"/></g><defs><clipPath id="a"><path fill="#fff" d="M0 0h28v28H0z"/></clipPath></defs></svg>