<svg xmlns="http://www.w3.org/2000/svg" width="32" height="32" fill="none"><g clip-path="url(#a)"><path fill="#1A1C1F" fill-rule="evenodd" d="M22.438 5.18c.884.044 1.753.431 2.287 1.15a.85.85 0 0 1-.174 1.19.86.86 0 0 1-1.19-.175c-.189-.254-.516-.438-.923-.464-2.125-.088-4.275-.186-6.413-.185-2.155.001-4.318.049-6.464.19-.488.037-.988.374-1.114.892Q7.997 9.638 7.12 13q5.906-.144 8.88-.143c.652 0 1.513.02 2.002.039A3 3 0 0 1 21 10c0-.5.5-1 1-1h3c.5 0 1 .5 1 1a3 3 0 0 1 3 3c.5 0 1 .5 1 1v1c0 .5-.5 1-1 .999v8a3 3 0 0 1-3 3h-5a3 3 0 0 1-2.985-2.691q-.68.04-2.277.04T9 24.002v1c0 .445-.554 1-1 1H6c-.5 0-1-.5-1-1l-.016-2.3a3.2 3.2 0 0 1-.408-1.194l-.357-3.655Q4.122 16.37 4.142 16L2.967 16C2.414 16 2 15.519 2 14.968v-1c0-.553.414-.966.967-.966L5.37 13l1.426-5.63C7.1 6.159 8.161 5.248 9.561 5.186c3.208-.101 4.853-.199 6.475-.185 1.598.013 3.83.091 6.402.18M26 11.7h-5c-.673 0-1.3.571-1.3 1.3v11c0 .674.629 1.3 1.3 1.3h5c.673 0 1.21-.445 1.3-1.3V13c0-.672-.615-1.3-1.3-1.3m-13.64 6.127c-.427.071-.764.452-.699.978q.123.75.25 1.5c.063.373.45.71.839.71H18v-1.7h-4.508l-.154-.79c-.071-.427-.55-.77-.978-.698m-6.705-.056c-.049.431.229.855.749.941.625.075 1.249.145 2.5.285.478.057.891-.318.94-.749.05-.43-.232-.86-.748-.94-1.248-.146-1.249-.146-2.5-.285a.855.855 0 0 0-.94.748m17.674-2.606a.75.75 0 0 1 1.006-.335c.34.17.533.64.336 1.006q-.439.894-.958 1.915h.77c.482 0 .983.517.68 1.1q-.68 1.402-1.492 2.985a.75.75 0 1 1-1.342-.67q.477-.962.957-1.915h-.77c-.378 0-.981-.45-.68-1.1q.302-.65 1.493-2.986" clip-rule="evenodd"/></g><defs><clipPath id="a"><path fill="#fff" d="M0 0h32v32H0z"/></clipPath></defs></svg>