<svg xmlns="http://www.w3.org/2000/svg" width="20" height="20" fill="none"><g clip-path="url(#a)"><path fill="#1A1C1F" fill-rule="evenodd" d="m14.395 2.32-1.323.439a1.35 1.35 0 0 0-.952 1.46l1.438 6.647c-.894.383-1.603.912-2.113 1.593q-.687.918-1.008 2.154l-4.298.002a2.125 2.125 0 1 0 .109 1.7q4.95 0 4.949-.004c.14 0 .666-.158.766-.707.146-.869.428-1.574.842-2.125q.403-.542 1.134-.916l.336 1.497a2.125 2.125 0 1 0 1.611-.592q0 .01-2.012-9.175l1.01-.345c.43-.13.716-.632.57-1.058-.148-.426-.57-.704-1.06-.57m-6.93 9.282c-1.101-1.063-2.272-1.404-3.693-1.232a.85.85 0 0 0 .205 1.688c.935-.114 1.594.079 2.307.768a.85.85 0 1 0 1.181-1.224" clip-rule="evenodd"/></g><defs><clipPath id="a"><path fill="#fff" d="M0 0h20v20H0z"/></clipPath></defs></svg>