<svg width="16" height="16" viewBox="0 0 16 16" fill="none" xmlns="http://www.w3.org/2000/svg"><path d="M5.053 1.625 C 4.763 1.640,4.715 1.650,4.534 1.734 C 4.301 1.842,4.060 2.027,3.899 2.222 C 3.721 2.437,3.611 2.690,3.508 3.120 C 3.431 3.443,3.031 5.235,2.974 5.510 L 2.957 5.594 2.459 5.605 C 1.887 5.617,1.805 5.640,1.685 5.822 C 1.618 5.922,1.613 5.951,1.604 6.304 C 1.592 6.765,1.617 6.871,1.768 7.023 C 1.902 7.156,2.031 7.200,2.290 7.200 C 2.394 7.200,2.480 7.205,2.480 7.212 C 2.480 7.271,2.679 8.928,2.711 9.133 C 2.789 9.639,2.797 9.804,2.799 10.900 L 2.800 12.000 3.800 12.000 L 4.800 12.000 4.800 11.480 C 4.800 10.986,4.803 10.960,4.851 10.960 C 4.879 10.960,5.104 10.984,5.351 11.013 C 5.598 11.042,6.058 11.090,6.373 11.119 C 6.689 11.149,7.003 11.180,7.071 11.189 L 7.195 11.204 7.206 12.342 C 7.215 13.428,7.218 13.486,7.273 13.622 C 7.395 13.928,7.704 14.229,8.015 14.345 C 8.160 14.399,8.201 14.400,10.661 14.399 C 12.079 14.399,13.244 14.387,13.355 14.373 C 13.633 14.337,13.845 14.228,14.049 14.016 C 14.262 13.794,14.347 13.611,14.377 13.308 C 14.390 13.181,14.397 11.416,14.394 9.385 L 14.387 5.693 14.297 5.515 C 14.182 5.285,13.931 5.041,13.702 4.934 C 13.534 4.855,13.218 4.801,12.930 4.800 C 12.808 4.800,12.806 4.798,12.788 4.702 C 12.738 4.438,12.543 4.194,12.278 4.064 L 12.131 3.992 10.739 4.006 C 9.372 4.019,9.345 4.020,9.232 4.077 C 9.169 4.109,9.073 4.180,9.018 4.235 C 8.912 4.341,8.800 4.592,8.800 4.722 L 8.800 4.800 8.578 4.800 C 8.109 4.800,7.832 4.907,7.547 5.197 C 7.451 5.294,7.351 5.424,7.323 5.487 L 7.272 5.600 5.932 5.600 L 4.592 5.600 4.614 5.500 C 4.901 4.208,5.081 3.432,5.117 3.335 L 5.162 3.213 7.054 3.198 C 8.524 3.186,8.973 3.175,9.067 3.147 C 9.216 3.102,9.497 2.829,9.550 2.676 C 9.569 2.620,9.586 2.489,9.586 2.387 C 9.587 2.062,9.431 1.828,9.108 1.666 L 8.976 1.600 7.175 1.604 C 6.184 1.607,5.229 1.616,5.053 1.625 M12.800 9.600 L 12.800 12.800 10.800 12.800 L 8.800 12.800 8.800 9.600 L 8.800 6.400 10.800 6.400 L 12.800 6.400 12.800 9.600 M5.259 7.335 C 6.052 7.515,6.184 7.574,6.294 7.800 C 6.377 7.973,6.362 8.240,6.260 8.395 C 6.154 8.555,5.971 8.653,5.787 8.650 C 5.483 8.643,4.334 8.351,4.213 8.249 C 4.091 8.147,4.027 7.983,4.027 7.777 C 4.027 7.515,4.122 7.371,4.373 7.254 C 4.525 7.183,4.627 7.193,5.259 7.335 M10.953 7.231 C 10.741 7.290,10.642 7.425,10.242 8.200 C 9.710 9.232,9.614 9.449,9.615 9.618 C 9.616 9.722,9.635 9.786,9.695 9.883 C 9.815 10.076,9.952 10.161,10.182 10.182 L 10.372 10.200 10.107 10.676 C 9.824 11.188,9.780 11.313,9.817 11.510 C 9.849 11.685,9.916 11.787,10.062 11.885 C 10.276 12.030,10.508 12.030,10.722 11.886 C 10.829 11.814,11.067 11.432,11.580 10.512 C 12.009 9.740,12.043 9.659,12.003 9.486 C 11.933 9.179,11.678 8.987,11.340 8.987 C 11.278 8.987,11.227 8.975,11.227 8.961 C 11.227 8.948,11.337 8.714,11.471 8.443 C 11.695 7.991,11.716 7.936,11.715 7.794 C 11.715 7.618,11.672 7.518,11.542 7.396 C 11.370 7.234,11.156 7.174,10.953 7.231 " fill="#1A1C1F" stroke="none" fill-rule="evenodd"></path></svg>