<svg width="24" height="24" viewBox="0 0 24 24" fill="none" xmlns="http://www.w3.org/2000/svg"><path d="M17.900 3.439 C 16.418 3.738,16.252 3.794,15.947 4.099 C 15.705 4.342,15.553 4.669,15.530 5.000 C 15.510 5.297,15.564 5.635,16.162 8.943 C 16.381 10.154,16.560 11.184,16.560 11.230 C 16.560 11.321,16.461 11.413,15.760 11.966 C 15.217 12.394,14.443 13.173,14.146 13.591 C 14.017 13.772,13.842 14.062,13.757 14.236 C 13.539 14.682,13.256 15.554,13.157 16.087 C 13.111 16.336,13.066 16.578,13.057 16.625 C 13.048 16.672,13.000 16.721,12.950 16.735 C 12.901 16.748,11.730 16.759,10.349 16.759 L 7.837 16.760 7.760 16.581 C 7.482 15.930,6.966 15.400,6.300 15.080 C 5.787 14.833,5.577 14.788,4.962 14.792 C 4.390 14.796,4.140 14.850,3.715 15.060 C 2.532 15.644,1.872 16.847,2.036 18.121 C 2.091 18.548,2.254 19.006,2.474 19.346 C 2.654 19.624,3.066 20.052,3.329 20.232 C 3.547 20.383,4.054 20.605,4.336 20.675 C 4.618 20.746,5.371 20.738,5.703 20.661 C 6.518 20.472,7.301 19.841,7.672 19.072 L 7.820 18.765 11.012 18.762 C 14.175 18.760,14.205 18.759,14.372 18.676 C 14.464 18.629,14.600 18.535,14.674 18.466 C 14.909 18.244,14.954 18.103,15.021 17.392 C 15.189 15.592,15.499 14.893,16.573 13.891 C 17.013 13.482,16.971 13.454,17.120 14.251 C 17.191 14.630,17.264 15.012,17.282 15.099 C 17.314 15.251,17.309 15.264,17.168 15.378 C 16.779 15.692,16.417 16.161,16.248 16.568 C 15.807 17.628,15.982 18.793,16.710 19.650 C 17.124 20.136,17.543 20.418,18.161 20.626 C 18.477 20.733,19.523 20.733,19.839 20.626 C 20.671 20.346,21.320 19.794,21.680 19.060 C 21.913 18.585,21.976 18.303,21.974 17.740 C 21.972 17.175,21.907 16.885,21.678 16.420 C 21.260 15.572,20.386 14.944,19.400 14.783 L 19.260 14.760 18.826 12.370 C 17.678 6.043,17.598 5.586,17.645 5.557 C 17.671 5.541,17.883 5.489,18.116 5.442 C 19.365 5.187,19.558 5.103,19.778 4.716 C 20.011 4.304,19.918 3.808,19.551 3.498 C 19.234 3.231,18.975 3.222,17.900 3.439 M3.665 10.819 C 3.147 11.003,2.869 11.619,3.080 12.111 C 3.178 12.338,3.411 12.575,3.625 12.665 C 3.700 12.696,3.954 12.740,4.191 12.764 C 5.523 12.895,6.434 13.326,7.033 14.109 C 7.163 14.280,7.313 14.460,7.366 14.508 C 7.600 14.724,8.059 14.792,8.390 14.659 C 8.615 14.569,8.894 14.257,8.960 14.021 C 9.096 13.535,8.848 13.042,8.110 12.334 C 7.194 11.455,5.987 10.930,4.580 10.801 C 4.012 10.748,3.854 10.751,3.665 10.819 M5.432 16.882 C 5.853 17.093,6.057 17.503,5.960 17.944 C 5.841 18.481,5.268 18.862,4.790 18.723 C 4.400 18.609,4.117 18.313,4.039 17.933 C 3.937 17.444,4.205 16.997,4.709 16.817 C 4.956 16.729,5.162 16.748,5.432 16.882 M19.432 16.882 C 19.853 17.093,20.057 17.503,19.960 17.944 C 19.841 18.481,19.268 18.862,18.790 18.723 C 18.400 18.609,18.117 18.313,18.039 17.933 C 17.937 17.444,18.205 16.997,18.709 16.817 C 18.956 16.729,19.162 16.748,19.432 16.882 " fill="#1A1C1F" stroke="none" fill-rule="evenodd"></path></svg>