<svg xmlns="http://www.w3.org/2000/svg" width="14" height="14" fill="none"><g clip-path="url(#a)"><path fill="#1A1C1F" fill-rule="evenodd" d="M7.7 1.394a.7.7 0 1 1 0 1.4H4.593c-.072 0-.119.054-.135.113q-.045.195-.438 1.987h2.345c.136-.37.556-.7.985-.7q.177-.003.35 0c-.005-.354.239-.7.7-.7h2.1c.35 0 .7.35.695.712l.355.001c.546 0 1.05.438 1.05 1.037v6.3c0 .545-.432 1.049-1.05 1.05q-2.1.002-4.2.013a1.06 1.06 0 0 1-1.05-1.05V9.794a41 41 0 0 1-2.1-.22v.92H2.45V8.38a3 3 0 0 1-.087-.384 319 319 0 0 1-.19-1.702h-.32c-.258 0-.453-.225-.453-.483v-.466c0-.259.195-.451.454-.451h.733l.504-2.288c.145-.659.695-1.211 1.43-1.212q1.59-.003 3.179 0m3.5 4.213H7.7v5.6h3.5zm-1.935.982a.525.525 0 0 1 .707-.229.52.52 0 0 1 .228.707l-.407.795.191-.001a.526.526 0 0 1 .461.783L9.55 10.23a.525.525 0 0 1-.914-.516l.449-.798-.15.002a.523.523 0 0 1-.471-.764q.171-.33.801-1.566m-5.122-.282A.525.525 0 0 0 3.84 7.31l1.091.257a.525.525 0 0 0 .305-1.003z" clip-rule="evenodd"/></g><defs><clipPath id="a"><path fill="#fff" d="M0 0h14v14H0z"/></clipPath></defs></svg>