<svg width="14" height="14" viewBox="0 0 14 14" fill="none" xmlns="http://www.w3.org/2000/svg"><path d="M4.620 1.771 C 4.117 1.784,4.090 1.788,3.967 1.846 C 3.581 2.028,3.285 2.371,3.150 2.790 C 3.099 2.953,2.590 5.172,2.590 5.237 C 2.590 5.244,2.322 5.250,1.995 5.250 L 1.400 5.250 1.400 5.950 L 1.400 6.650 1.756 6.650 C 1.952 6.651,2.125 6.659,2.140 6.669 C 2.159 6.681,2.198 6.945,2.251 7.409 C 2.398 8.702,2.430 8.832,2.693 9.188 L 2.800 9.333 2.800 10.092 L 2.800 10.850 3.675 10.850 L 4.550 10.850 4.550 10.411 L 4.550 9.973 4.859 10.013 C 5.345 10.076,5.989 10.127,6.513 10.143 L 6.994 10.157 7.006 10.649 C 7.016 11.074,7.024 11.161,7.067 11.280 C 7.219 11.701,7.549 12.030,7.964 12.173 L 8.155 12.238 9.812 12.238 L 11.468 12.238 11.635 12.176 C 12.058 12.019,12.369 11.708,12.526 11.285 L 12.588 11.118 12.588 8.050 L 12.588 4.982 12.523 4.818 C 12.439 4.607,12.330 4.444,12.163 4.279 C 11.933 4.051,11.731 3.944,11.411 3.879 L 11.214 3.838 11.195 3.750 C 11.153 3.546,10.975 3.320,10.779 3.220 C 10.686 3.172,10.638 3.169,9.966 3.157 C 9.220 3.143,8.906 3.163,8.773 3.232 C 8.602 3.320,8.432 3.564,8.406 3.757 C 8.396 3.832,8.384 3.850,8.344 3.850 C 8.229 3.851,7.958 3.925,7.806 3.998 C 7.368 4.206,7.057 4.641,7.007 5.115 L 6.993 5.250 5.384 5.250 L 3.775 5.250 3.788 5.198 C 3.795 5.169,3.896 4.658,4.012 4.062 C 4.128 3.467,4.229 2.973,4.237 2.966 C 4.244 2.958,4.998 2.945,5.911 2.937 C 6.938 2.928,7.606 2.913,7.662 2.898 C 7.776 2.867,7.925 2.727,7.985 2.592 C 8.046 2.458,8.046 2.233,7.986 2.096 C 7.937 1.985,7.802 1.854,7.690 1.808 C 7.606 1.774,5.487 1.748,4.620 1.771 M11.332 5.115 C 11.399 5.182,11.407 5.513,11.409 8.296 L 11.410 10.935 11.345 10.997 L 11.279 11.060 9.795 11.060 L 8.311 11.060 8.249 10.987 L 8.187 10.913 8.194 8.076 C 8.201 5.602,8.206 5.229,8.237 5.168 C 8.271 5.100,8.276 5.098,8.494 5.084 C 8.615 5.077,9.295 5.071,10.003 5.073 C 11.189 5.075,11.295 5.078,11.332 5.115 M9.896 5.974 C 9.765 6.004,9.636 6.114,9.552 6.265 C 9.460 6.432,8.963 7.511,8.849 7.793 C 8.759 8.014,8.758 8.116,8.842 8.280 C 8.930 8.454,9.095 8.554,9.333 8.579 C 9.410 8.587,9.473 8.602,9.473 8.612 C 9.473 8.623,9.394 8.791,9.298 8.985 C 9.202 9.180,9.101 9.412,9.074 9.499 C 9.027 9.654,9.027 9.663,9.066 9.780 C 9.120 9.941,9.263 10.084,9.426 10.138 C 9.534 10.174,9.567 10.176,9.681 10.150 C 9.898 10.103,9.985 9.992,10.289 9.371 C 10.721 8.488,10.850 8.177,10.850 8.022 C 10.849 7.911,10.751 7.716,10.664 7.654 C 10.567 7.585,10.403 7.537,10.264 7.537 C 10.203 7.537,10.147 7.528,10.141 7.518 C 10.135 7.507,10.206 7.331,10.299 7.127 C 10.571 6.532,10.586 6.466,10.490 6.261 C 10.425 6.121,10.284 6.005,10.153 5.984 C 10.106 5.977,10.047 5.967,10.022 5.963 C 9.996 5.959,9.940 5.964,9.896 5.974 M4.045 7.044 C 4.300 7.108,4.557 7.185,4.617 7.215 C 4.920 7.371,4.934 7.860,4.641 8.072 C 4.486 8.185,4.400 8.185,3.879 8.073 C 3.077 7.902,3.002 7.871,2.881 7.665 C 2.769 7.476,2.784 7.271,2.923 7.091 C 2.964 7.037,3.035 6.973,3.080 6.948 C 3.210 6.876,3.488 6.904,4.045 7.044 M6.225 7.459 C 6.354 7.539,6.410 7.628,6.477 7.862 L 6.528 8.038 6.764 8.045 L 7.000 8.052 7.000 8.578 L 7.000 9.105 6.467 9.097 L 5.934 9.088 5.837 9.021 C 5.775 8.978,5.720 8.911,5.682 8.834 C 5.603 8.673,5.437 8.008,5.437 7.856 C 5.437 7.661,5.590 7.457,5.782 7.395 C 5.900 7.357,6.109 7.387,6.225 7.459 " fill="#1A1C1F" stroke="none" fill-rule="evenodd"></path></svg>