<svg xmlns="http://www.w3.org/2000/svg" width="16" height="16" fill="none"><g clip-path="url(#a)"><path fill="#1A1C1F" fill-rule="evenodd" d="m11.516 1.856-1.058.35a1.08 1.08 0 0 0-.762 1.169l1.15 5.318c-.714.306-1.282.73-1.69 1.274a4.9 4.9 0 0 0-.806 1.724H4.91a1.7 1.7 0 1 0 .087 1.36q3.96-.001 3.96-.002c.111 0 .533-.126.613-.566q.175-1.04.673-1.7.324-.434.907-.732l.269 1.197a1.7 1.7 0 1 0 1.289-.473q0 .007-1.61-7.34l.808-.276c.344-.105.573-.506.456-.847-.118-.34-.456-.564-.847-.456M5.972 9.282c-.88-.85-1.817-1.124-2.954-.986a.68.68 0 1 0 .164 1.35c.748-.09 1.275.063 1.845.614a.68.68 0 0 0 .945-.978" clip-rule="evenodd"/></g><defs><clipPath id="a"><path fill="#fff" d="M0 0h16v16H0z"/></clipPath></defs></svg>