<svg xmlns="http://www.w3.org/2000/svg" width="28" height="28" fill="none"><g clip-path="url(#a)"><path fill="#1A1C1F" fill-rule="evenodd" d="M19.634 4.533c.773.038 1.533.377 2 1.006a.744.744 0 0 1-.152 1.04.753.753 0 0 1-1.04-.152c-.166-.223-.453-.383-.808-.406-1.86-.077-3.742-.163-5.612-.162-1.885 0-3.778.043-5.656.166-.428.033-.865.328-.975.78a269 269 0 0 1-1.16 4.57q5.166-.126 7.769-.125c.57 0 1.324.018 1.751.034a2.625 2.625 0 0 1 2.624-2.533c0-.438.437-.875.875-.875h2.625c.437 0 .875.437.875.875a2.625 2.625 0 0 1 2.625 2.625c.437 0 .875.437.875.875v.875c0 .437-.438.875-.876.874v7a2.625 2.625 0 0 1-2.624 2.625h-4.375a2.625 2.625 0 0 1-2.611-2.355q-.595.036-1.993.036T7.875 21v.875c0 .39-.485.875-.875.875H5.25c-.438 0-.875-.437-.875-.875l-.014-2.012a2.8 2.8 0 0 1-.357-1.044l-.313-3.198q-.085-1.298-.067-1.622l-1.028.002c-.484 0-.846-.422-.846-.905v-.875c0-.484.362-.845.846-.845l2.103-.001 1.248-4.927c.265-1.06 1.194-1.856 2.42-1.91 2.806-.089 4.245-.174 5.664-.162 1.398.011 3.353.08 5.603.157m3.116 5.705h-4.375c-.59 0-1.138.5-1.138 1.138V21c0 .588.55 1.137 1.138 1.137h4.375c.589 0 1.06-.39 1.137-1.138v-9.624c0-.59-.538-1.138-1.137-1.138m-11.935 5.36c-.374.063-.668.396-.611.856q.106.657.218 1.313c.055.326.393.621.734.621h4.593V16.9h-3.944l-.134-.691c-.062-.374-.482-.674-.856-.612m-5.867-.048c-.043.377.2.748.655.823.548.066 1.093.127 2.188.249.418.05.78-.278.823-.655s-.203-.752-.655-.823c-1.092-.127-1.093-.127-2.188-.249a.75.75 0 0 0-.823.655m15.465-2.28a.656.656 0 0 1 .88-.294c.297.149.467.56.294.88q-.384.782-.838 1.676h.674c.421 0 .86.452.595.962q-.594 1.229-1.306 2.613a.656.656 0 0 1-1.174-.587q.417-.841.837-1.676h-.674c-.33 0-.858-.393-.594-.962q.264-.57 1.306-2.612" clip-rule="evenodd"/></g><defs><clipPath id="a"><path fill="#fff" d="M0 0h28v28H0z"/></clipPath></defs></svg>