<svg xmlns="http://www.w3.org/2000/svg" width="20" height="20" fill="none"><g clip-path="url(#a)"><path fill="#1A1C1F" fill-rule="evenodd" d="m15.21 2.168-2.064.624a1.5 1.5 0 0 0-1.059 1.588l1.16 5.829c-.957.617-1.777 1.372-2.297 2.066a4.7 4.7 0 0 0-.872 2.1H6.792a2.5 2.5 0 1 0 0 2.001H11a1 1 0 0 0 1-1c0-.794.186-1.416.55-1.9q.41-.548 1.126-1.113l.22 1.094a2.5 2.5 0 1 0 1.928-.561l-1.665-8.32 1.63-.494c.491-.148.845-.734.668-1.246s-.696-.832-1.246-.668m.29 12.707a.5.5 0 1 1 0 1 .5.5 0 0 1 0-1m-11 0a.5.5 0 1 1 0 1 .5.5 0 0 1 0-1m3.194-3.72c-1.15-1.11-2.447-1.496-3.855-1.267a1 1 0 1 0 .321 1.974c.796-.13 1.456.068 2.145.733a1 1 0 1 0 1.39-1.44" clip-rule="evenodd"/></g><defs><clipPath id="a"><path fill="#fff" d="M0 0h20v20H0z"/></clipPath></defs></svg>