<svg xmlns="http://www.w3.org/2000/svg" width="14" height="14" fill="none"><g clip-path="url(#a)"><path fill="#1A1C1F" fill-rule="evenodd" d="m10.648 1.518-1.446.436a1.05 1.05 0 0 0-.741 1.112l.812 4.08c-.67.432-1.244.96-1.608 1.447-.318.423-.52.916-.61 1.47h-2.3a1.75 1.75 0 1 0 0 1.4H7.7a.7.7 0 0 0 .7-.7c0-.556.13-.991.385-1.33q.287-.384.788-.779l.154.766a1.75 1.75 0 1 0 1.35-.393L9.91 3.203l1.141-.345c.344-.104.592-.514.468-.873-.124-.358-.488-.582-.872-.467m.202 8.895a.35.35 0 1 1 0 .7.35.35 0 0 1 0-.7m-7.7 0a.35.35 0 1 1 0 .7.35.35 0 0 1 0-.7m2.236-2.604c-.805-.777-1.713-1.047-2.699-.887a.7.7 0 1 0 .225 1.382c.557-.09 1.02.047 1.501.512a.7.7 0 1 0 .973-1.007" clip-rule="evenodd"/></g><defs><clipPath id="a"><path fill="#fff" d="M0 0h14v14H0z"/></clipPath></defs></svg>