<svg width="14" height="14" viewBox="0 0 14 14" fill="none" xmlns="http://www.w3.org/2000/svg"><path d="M4.433 1.422 C 4.165 1.435,4.128 1.443,3.968 1.517 C 3.510 1.730,3.223 2.093,3.093 2.625 C 3.045 2.823,2.648 4.601,2.602 4.822 L 2.587 4.895 2.151 4.905 C 1.646 4.916,1.580 4.934,1.478 5.089 C 1.415 5.183,1.412 5.202,1.404 5.516 C 1.393 5.920,1.414 6.012,1.549 6.146 C 1.663 6.261,1.782 6.300,2.017 6.300 C 2.101 6.300,2.170 6.305,2.170 6.311 C 2.170 6.363,2.344 7.812,2.372 7.992 C 2.440 8.434,2.447 8.578,2.449 9.537 L 2.450 10.500 3.325 10.500 L 4.200 10.500 4.200 10.045 L 4.200 9.590 4.253 9.590 C 4.281 9.590,4.478 9.611,4.690 9.636 C 4.902 9.662,5.301 9.704,5.577 9.730 C 5.853 9.756,6.127 9.784,6.187 9.792 L 6.296 9.805 6.305 10.800 C 6.313 11.750,6.316 11.801,6.364 11.919 C 6.469 12.183,6.720 12.430,6.996 12.542 L 7.139 12.600 9.327 12.599 C 10.569 12.599,11.589 12.589,11.686 12.576 C 11.929 12.545,12.115 12.449,12.293 12.264 C 12.479 12.070,12.554 11.909,12.580 11.644 C 12.591 11.533,12.598 9.989,12.594 8.212 L 12.588 4.982 12.511 4.828 C 12.344 4.494,12.021 4.269,11.644 4.224 C 11.535 4.211,11.392 4.200,11.326 4.200 C 11.205 4.200,11.205 4.200,11.189 4.114 C 11.145 3.881,10.981 3.677,10.743 3.560 L 10.606 3.493 9.391 3.505 C 8.204 3.517,8.174 3.519,8.077 3.568 C 8.023 3.596,7.939 3.658,7.891 3.706 C 7.798 3.798,7.700 4.018,7.700 4.132 L 7.700 4.200 7.506 4.200 C 7.247 4.200,7.066 4.236,6.896 4.322 C 6.731 4.405,6.501 4.629,6.417 4.790 L 6.358 4.900 5.188 4.900 L 4.018 4.900 4.038 4.813 C 4.288 3.682,4.446 3.003,4.477 2.918 L 4.516 2.812 6.172 2.798 C 7.458 2.788,7.852 2.778,7.933 2.753 C 8.064 2.715,8.310 2.475,8.356 2.342 C 8.373 2.292,8.387 2.178,8.388 2.088 C 8.389 1.805,8.253 1.599,7.970 1.458 L 7.854 1.400 6.290 1.404 C 5.429 1.406,4.594 1.414,4.433 1.422 M11.200 8.400 L 11.200 11.200 9.450 11.200 L 7.700 11.200 7.700 8.400 L 7.700 5.600 9.450 5.600 L 11.200 5.600 11.200 8.400 M4.500 6.395 C 5.318 6.577,5.346 6.588,5.472 6.765 C 5.536 6.856,5.542 6.880,5.542 7.056 C 5.542 7.226,5.534 7.259,5.478 7.345 C 5.385 7.486,5.225 7.571,5.064 7.568 C 4.792 7.561,3.793 7.307,3.686 7.218 C 3.580 7.128,3.523 6.985,3.523 6.805 C 3.523 6.576,3.607 6.450,3.827 6.347 C 3.955 6.288,4.045 6.294,4.500 6.395 M9.585 6.327 C 9.397 6.379,9.322 6.481,8.968 7.166 C 8.494 8.082,8.412 8.268,8.413 8.415 C 8.414 8.565,8.508 8.729,8.648 8.827 C 8.723 8.880,8.780 8.898,8.911 8.910 L 9.078 8.925 8.899 9.240 C 8.630 9.713,8.580 9.828,8.582 9.978 C 8.586 10.401,9.063 10.644,9.396 10.393 C 9.498 10.316,10.153 9.208,10.437 8.634 C 10.523 8.459,10.532 8.322,10.466 8.183 C 10.375 7.992,10.211 7.888,9.971 7.869 C 9.890 7.862,9.823 7.848,9.823 7.838 C 9.823 7.828,9.920 7.625,10.037 7.387 C 10.233 6.992,10.251 6.944,10.251 6.820 C 10.251 6.666,10.213 6.578,10.099 6.472 C 9.949 6.330,9.761 6.277,9.585 6.327 " fill="#1A1C1F" stroke="none" fill-rule="evenodd"></path></svg>