<svg xmlns="http://www.w3.org/2000/svg" width="12" height="12" fill="none"><g clip-path="url(#a)"><path fill="#1A1C1F" fill-rule="evenodd" d="m8.637 1.392-.794.263a.81.81 0 0 0-.57.876l.862 3.989c-.536.23-.962.547-1.268.955a3.7 3.7 0 0 0-.605 1.293H3.683a1.275 1.275 0 1 0 .066 1.02l2.97-.001c.083 0 .399-.095.459-.424q.132-.781.505-1.276.243-.325.68-.549l.202.898a1.275 1.275 0 1 0 .967-.355q0 .006-1.208-5.505l.606-.207c.259-.078.43-.38.342-.635a.515.515 0 0 0-.635-.342m-4.158 5.57c-.66-.638-1.363-.843-2.216-.74a.51.51 0 0 0 .123 1.013c.561-.068.956.047 1.385.46a.51.51 0 1 0 .708-.733" clip-rule="evenodd"/></g><defs><clipPath id="a"><path fill="#fff" d="M0 0h12v12H0z"/></clipPath></defs></svg>