<svg xmlns="http://www.w3.org/2000/svg" width="24" height="24" fill="none"><g clip-path="url(#a)"><path fill="#1A1C1F" fill-rule="evenodd" d="m18.726 3.27-2.02.403a1.5 1.5 0 0 0-1.2 1.598l1.092 6.054c-1.485 1.046-2.452 2.032-2.897 3.01a7.8 7.8 0 0 0-.649 2.415H7.829a3 3 0 1 0 0 2H14a1 1 0 0 0 1-1c0-.967.175-1.825.522-2.585.21-.462.702-1.016 1.476-1.64l.318 1.743a3 3 0 1 0 1.942-.507L17.58 5.538l1.537-.307c.503-.1.906-.644.785-1.177-.12-.532-.626-.895-1.177-.784M19 16.75a1 1 0 1 1 0 2 1 1 0 0 1 0-2m-14 0a1 1 0 1 1 0 2 1 1 0 0 1 0-2m-1-6a1 1 0 1 0 0 2c1.437 0 2.674.692 3.13 1.495a1 1 0 1 0 1.74-.989C8.05 11.816 6.142 10.75 4 10.75" clip-rule="evenodd"/></g><defs><clipPath id="a"><path fill="#fff" d="M0 0h24v24H0z"/></clipPath></defs></svg>