<svg xmlns="http://www.w3.org/2000/svg" width="24" height="24" fill="none"><g clip-path="url(#a)"><path fill="#1A1C1F" fill-rule="evenodd" d="m18.835 3.342-2.02.404a1.35 1.35 0 0 0-1.082 1.43l1.1 6.243c-1.55 1.071-2.549 2.073-2.996 3.054a7.7 7.7 0 0 0-.65 2.502l-5.466.001a2.85 2.85 0 1 0 0 1.7H14c.469 0 .85-.38.85-.85q0-1.48.534-2.648c.245-.537.84-1.181 1.786-1.904l.382 2.097a2.85 2.85 0 1 0 1.66-.387l-1.726-9.638 1.682-.337c.425-.085.78-.541.667-1s-.508-.764-1-.667M19 16.676a1.15 1.15 0 1 1 0 2.3 1.15 1.15 0 0 1 0-2.3m-14 0a1.15 1.15 0 1 1 0 2.3 1.15 1.15 0 0 1 0-2.3m-1-5.7a.85.85 0 0 0 0 1.7c1.49 0 2.777.72 3.26 1.57a.85.85 0 1 0 1.479-.84c-.792-1.392-2.649-2.43-4.74-2.43" clip-rule="evenodd"/></g><defs><clipPath id="a"><path fill="#fff" d="M0 0h24v24H0z"/></clipPath></defs></svg>