<svg width="20" height="20" viewBox="0 0 20 20" fill="none" xmlns="http://www.w3.org/2000/svg"><path d="M15.208 2.183 C 14.953 2.240,13.942 2.545,13.333 2.750 C 12.853 2.911,12.613 3.048,12.443 3.260 C 12.299 3.439,12.174 3.700,12.119 3.936 C 12.051 4.225,12.028 4.086,12.733 7.650 C 13.079 9.399,13.201 10.062,13.198 10.179 C 13.197 10.230,13.099 10.319,12.843 10.500 C 12.082 11.039,11.232 11.859,10.861 12.414 C 10.508 12.941,10.261 13.511,10.136 14.083 L 10.078 14.350 8.425 14.359 L 6.771 14.367 6.748 14.292 C 6.712 14.176,6.507 13.880,6.324 13.680 C 6.106 13.441,5.671 13.156,5.327 13.025 C 5.057 12.922,5.036 12.920,4.500 12.919 C 3.951 12.919,3.950 12.919,3.650 13.035 C 3.127 13.238,2.708 13.575,2.407 14.035 C 1.965 14.709,1.885 15.622,2.204 16.353 C 2.419 16.848,2.920 17.378,3.379 17.599 C 3.798 17.800,4.016 17.848,4.517 17.848 C 4.917 17.849,4.973 17.841,5.252 17.744 C 5.904 17.517,6.370 17.138,6.688 16.575 L 6.806 16.367 8.878 16.366 C 10.067 16.366,11.049 16.351,11.183 16.332 C 11.452 16.294,11.621 16.194,11.789 15.973 C 11.929 15.790,11.958 15.681,12.016 15.112 C 12.076 14.522,12.140 14.254,12.302 13.917 C 12.463 13.582,12.706 13.258,13.049 12.919 C 13.428 12.546,13.638 12.384,13.670 12.441 C 13.684 12.466,13.741 12.703,13.796 12.967 L 13.896 13.449 13.721 13.633 C 13.169 14.215,12.947 14.872,13.032 15.678 C 13.093 16.252,13.314 16.688,13.781 17.153 C 14.027 17.398,14.140 17.483,14.368 17.595 C 14.774 17.794,15.006 17.845,15.500 17.845 C 15.997 17.845,16.230 17.793,16.633 17.593 C 16.859 17.480,16.979 17.390,17.220 17.151 C 17.692 16.683,17.909 16.250,17.969 15.658 C 18.013 15.218,17.971 14.862,17.831 14.500 C 17.538 13.739,16.941 13.205,16.118 12.966 L 15.819 12.880 15.409 10.832 C 15.183 9.705,14.819 7.868,14.599 6.750 C 14.380 5.632,14.193 4.685,14.184 4.646 C 14.169 4.581,14.225 4.559,14.959 4.335 C 15.394 4.202,15.821 4.063,15.908 4.026 C 16.096 3.946,16.313 3.720,16.407 3.508 C 16.499 3.301,16.504 2.900,16.417 2.733 C 16.175 2.267,15.732 2.066,15.208 2.183 M3.783 9.913 C 3.449 10.019,3.196 10.227,3.079 10.491 C 2.995 10.681,3.000 11.077,3.088 11.271 C 3.184 11.479,3.373 11.681,3.552 11.768 C 3.685 11.832,3.779 11.842,4.447 11.862 L 5.193 11.885 5.505 12.041 C 5.680 12.129,5.973 12.320,6.172 12.477 C 6.367 12.630,6.577 12.777,6.638 12.803 C 6.704 12.831,6.860 12.850,7.017 12.849 C 7.327 12.848,7.489 12.781,7.698 12.565 C 7.904 12.353,7.982 12.160,7.980 11.867 C 7.978 11.529,7.897 11.370,7.572 11.060 C 6.965 10.482,6.134 10.043,5.404 9.916 C 5.049 9.853,3.977 9.852,3.783 9.913 M4.691 14.932 C 4.948 15.049,5.052 15.323,4.938 15.581 C 4.882 15.708,4.841 15.748,4.713 15.805 C 4.502 15.899,4.329 15.874,4.180 15.730 C 4.033 15.588,3.986 15.443,4.031 15.277 C 4.080 15.095,4.156 15.002,4.313 14.930 C 4.484 14.853,4.516 14.853,4.691 14.932 M15.691 14.932 C 15.948 15.049,16.052 15.323,15.938 15.581 C 15.882 15.708,15.841 15.748,15.713 15.805 C 15.502 15.899,15.329 15.874,15.180 15.730 C 15.033 15.588,14.986 15.443,15.031 15.277 C 15.080 15.095,15.156 15.002,15.313 14.930 C 15.484 14.853,15.516 14.853,15.691 14.932 " fill="#1A1C1F" stroke="none" fill-rule="evenodd"></path></svg>