<svg xmlns="http://www.w3.org/2000/svg" width="28" height="28" fill="none"><g clip-path="url(#a)"><path fill="#1A1C1F" fill-rule="evenodd" d="m23.473 4.565-1.891.393a2.056 2.056 0 0 0-1.624 2.252l1.293 7.12c-1.446.806-2.63 1.736-3.43 2.631-.73.816-1.088 1.908-1.096 3.251H7.728a2.931 2.931 0 1 0-.232 1.489L17.5 21.7c.248 0 .788-.205.74-.809-.117-1.341.125-2.306.69-2.938q.93-1.044 2.608-2.066l.372 1.993a2.932 2.932 0 1 0 1.46-.287L21.44 7.075a.57.57 0 0 1 .364-.638l1.97-.415a.744.744 0 0 0 .578-.88.753.753 0 0 0-.88-.577m-.286 14.51a1.443 1.443 0 1 1 .001 2.887 1.443 1.443 0 0 1 0-2.887m-18.375 0a1.443 1.443 0 1 1 .001 2.887 1.443 1.443 0 0 1 0-2.887M3.5 14.087a.744.744 0 0 0 0 1.488c2.71 0 3.898.536 4.564 2.163a.744.744 0 1 0 1.376-.564c-.94-2.296-2.691-3.087-5.94-3.087" clip-rule="evenodd"/></g><defs><clipPath id="a"><path fill="#fff" d="M0 0h28v28H0z"/></clipPath></defs></svg>