<svg xmlns="http://www.w3.org/2000/svg" width="16" height="16" fill="none"><g clip-path="url(#a)"><path fill="#1A1C1F" fill-rule="evenodd" d="m5.198 11.394-.006 1.005H3.198v-1.737a2 2 0 0 1-.5-1.116L2.48 7.601h-.883V6h1.357l.609-2.745C3.754 2.612 4.318 2 5.034 2h3.484a.68.68 0 1 1 0 1.36H4.832L4.318 6h3.68a1.6 1.6 0 0 1 1.6-1.598c0-.444.358-.802.8-.802h1.61c.41 0 .79.379.799.802.843 0 1.595.756 1.595 1.6l-.004 6.396a1.6 1.6 0 0 1-1.6 1.6h-3.2a1.6 1.6 0 0 1-1.6-1.6v-.798q-1.4 0-2.8-.207m7.6-5.614h-3.2a.237.237 0 0 0-.24.24v6.38c0 .113.105.23.24.24h3.2c.113 0 .24-.085.24-.24V6.02c0-.114-.119-.24-.24-.24M6.59 8.448c-.262.107-.441.382-.389.625l.243.966c.07.166.272.362.463.362h1.09V9.207h-.531l-.114-.43c-.08-.242-.468-.45-.762-.33m5.109-1.592a.595.595 0 0 1 .301.793q-.217.48-.44.951h.24c.409 0 .739.423.548.847a40 40 0 0 1-.864 1.816.6.6 0 0 1-.793.301.593.593 0 0 1-.301-.793q.138-.336.483-.97h-.24a.604.604 0 0 1-.547-.846q.258-.59.82-1.798a.6.6 0 0 1 .793-.301M3.932 7.883l1.248.294a.6.6 0 0 1-.348 1.146l-1.248-.294a.6.6 0 0 1 .348-1.146" clip-rule="evenodd"/></g><defs><clipPath id="a"><path fill="#fff" d="M0 0h16v16H0z"/></clipPath></defs></svg>