<svg xmlns="http://www.w3.org/2000/svg" width="16" height="16" fill="none"><g clip-path="url(#a)"><path fill="#1A1C1F" fill-rule="evenodd" d="m12.169 1.734-1.652.5a1.2 1.2 0 0 0-.847 1.27l.928 4.663c-.766.494-1.422 1.098-1.838 1.653a3.8 3.8 0 0 0-.698 1.68H5.433a2 2 0 1 0 0 1.6H8.8a.8.8 0 0 0 .8-.8c0-.634.15-1.132.44-1.52q.328-.437.9-.89l.177.876a2 2 0 1 0 1.542-.45L11.327 3.66l1.304-.394c.393-.119.677-.587.535-.997s-.558-.666-.997-.535M12.4 11.9a.4.4 0 1 1 0 .8.4.4 0 0 1 0-.8m-8.8 0a.4.4 0 1 1 0 .8.4.4 0 0 1 0-.8m2.555-2.975c-.92-.889-1.957-1.198-3.084-1.014a.8.8 0 1 0 .257 1.579c.637-.104 1.165.054 1.716.586a.8.8 0 1 0 1.111-1.151" clip-rule="evenodd"/></g><defs><clipPath id="a"><path fill="#fff" d="M0 0h16v16H0z"/></clipPath></defs></svg>