<svg width="12" height="12" viewBox="0 0 12 12" fill="none" xmlns="http://www.w3.org/2000/svg"><path d="M3.960 1.518 C 3.529 1.529,3.505 1.532,3.400 1.582 C 3.064 1.741,2.809 2.042,2.691 2.418 C 2.651 2.548,2.220 4.441,2.220 4.489 C 2.220 4.495,1.991 4.500,1.710 4.500 L 1.200 4.500 1.200 5.100 L 1.200 5.700 1.505 5.700 C 1.673 5.700,1.821 5.708,1.835 5.716 C 1.850 5.726,1.884 5.953,1.929 6.351 C 2.056 7.459,2.083 7.570,2.308 7.875 L 2.400 8.000 2.400 8.650 L 2.400 9.300 3.150 9.300 L 3.900 9.300 3.900 8.924 L 3.900 8.548 4.165 8.583 C 4.581 8.637,5.133 8.680,5.583 8.694 L 5.995 8.706 6.005 9.128 C 6.016 9.589,6.031 9.665,6.159 9.888 C 6.300 10.135,6.554 10.342,6.828 10.435 L 6.990 10.490 8.410 10.490 L 9.830 10.490 9.980 10.434 C 10.335 10.303,10.603 10.035,10.734 9.680 L 10.790 9.530 10.790 6.900 L 10.790 4.270 10.735 4.132 C 10.669 3.968,10.625 3.893,10.513 3.761 C 10.323 3.534,10.033 3.361,9.772 3.320 C 9.607 3.294,9.600 3.290,9.600 3.234 C 9.599 3.097,9.408 2.846,9.239 2.759 C 9.158 2.718,9.119 2.715,8.542 2.705 C 7.903 2.694,7.633 2.712,7.519 2.770 C 7.374 2.846,7.228 3.055,7.205 3.220 C 7.197 3.285,7.187 3.300,7.152 3.300 C 7.053 3.301,6.821 3.365,6.691 3.427 C 6.315 3.605,6.049 3.978,6.006 4.385 L 5.994 4.500 4.615 4.500 L 3.236 4.500 3.247 4.455 C 3.253 4.430,3.339 3.992,3.439 3.482 C 3.538 2.972,3.625 2.549,3.631 2.542 C 3.638 2.535,4.284 2.524,5.067 2.517 C 5.940 2.509,6.520 2.496,6.568 2.484 C 6.665 2.458,6.793 2.337,6.845 2.222 C 6.897 2.107,6.897 1.914,6.845 1.796 C 6.803 1.702,6.687 1.589,6.591 1.550 C 6.519 1.520,4.704 1.499,3.960 1.518 M9.713 4.385 C 9.770 4.442,9.777 4.727,9.779 7.121 L 9.780 9.373 9.724 9.426 L 9.668 9.480 8.396 9.480 L 7.124 9.480 7.071 9.417 L 7.018 9.354 7.024 6.922 C 7.029 4.801,7.034 4.482,7.060 4.430 C 7.090 4.371,7.093 4.370,7.290 4.358 C 7.400 4.351,7.982 4.347,8.584 4.348 C 9.594 4.350,9.681 4.353,9.713 4.385 M8.485 5.120 C 8.380 5.144,8.267 5.232,8.207 5.334 C 8.139 5.449,7.754 6.279,7.616 6.608 C 7.505 6.872,7.500 6.942,7.579 7.098 C 7.655 7.246,7.796 7.332,8.000 7.353 C 8.066 7.360,8.120 7.373,8.120 7.382 C 8.120 7.391,8.052 7.535,7.970 7.702 C 7.887 7.869,7.801 8.067,7.778 8.142 C 7.738 8.274,7.738 8.282,7.771 8.383 C 7.838 8.585,8.074 8.744,8.255 8.710 C 8.497 8.665,8.558 8.582,8.929 7.804 C 9.189 7.257,9.300 6.989,9.300 6.908 C 9.300 6.790,9.256 6.690,9.163 6.597 C 9.060 6.495,8.971 6.460,8.806 6.460 C 8.749 6.460,8.698 6.453,8.693 6.444 C 8.687 6.435,8.748 6.285,8.828 6.109 C 9.061 5.598,9.073 5.543,8.991 5.366 C 8.936 5.247,8.815 5.147,8.703 5.129 C 8.663 5.123,8.612 5.115,8.590 5.111 C 8.568 5.108,8.521 5.112,8.485 5.120 M3.266 5.992 C 3.669 6.081,3.912 6.152,3.995 6.203 C 4.033 6.226,4.083 6.286,4.111 6.341 C 4.236 6.588,4.116 6.892,3.862 6.977 C 3.762 7.011,3.731 7.007,3.323 6.920 C 2.627 6.770,2.573 6.747,2.469 6.570 C 2.441 6.523,2.413 6.439,2.407 6.383 C 2.377 6.136,2.630 5.879,2.870 5.911 C 2.914 5.917,3.092 5.953,3.266 5.992 M5.338 6.395 C 5.446 6.462,5.494 6.539,5.552 6.739 L 5.595 6.890 5.798 6.896 L 6.000 6.901 6.000 7.353 L 6.000 7.804 5.543 7.797 L 5.087 7.790 5.003 7.732 C 4.950 7.696,4.903 7.638,4.871 7.572 C 4.807 7.442,4.681 6.951,4.666 6.776 C 4.656 6.657,4.660 6.634,4.708 6.552 C 4.762 6.460,4.851 6.379,4.941 6.341 C 5.027 6.304,5.237 6.333,5.338 6.395 " fill="#1A1C1F" stroke="none" fill-rule="evenodd"></path></svg>