<svg width="14" height="14" viewBox="0 0 14 14" fill="none" xmlns="http://www.w3.org/2000/svg"><path d="M10.646 1.528 C 10.469 1.567,9.764 1.780,9.333 1.925 C 8.997 2.038,8.829 2.134,8.710 2.282 C 8.608 2.409,8.521 2.591,8.482 2.761 C 8.438 2.950,8.443 2.979,8.843 5.005 C 9.159 6.600,9.241 7.041,9.239 7.126 C 9.238 7.161,9.171 7.222,9.000 7.342 C 8.479 7.707,7.864 8.299,7.606 8.685 C 7.356 9.059,7.186 9.451,7.096 9.858 L 7.055 10.045 5.898 10.051 L 4.740 10.057 4.724 10.004 C 4.698 9.923,4.555 9.716,4.427 9.576 C 4.275 9.409,3.970 9.209,3.729 9.118 C 3.540 9.046,3.526 9.044,3.150 9.044 C 2.775 9.044,2.760 9.046,2.572 9.117 C 2.309 9.217,2.117 9.339,1.936 9.519 C 1.538 9.918,1.356 10.427,1.419 10.964 C 1.467 11.365,1.601 11.649,1.888 11.952 C 2.704 12.814,4.098 12.639,4.682 11.603 L 4.764 11.457 6.215 11.456 C 7.012 11.455,7.738 11.446,7.826 11.434 C 8.012 11.410,8.132 11.339,8.252 11.181 C 8.350 11.053,8.370 10.977,8.411 10.579 C 8.467 10.035,8.546 9.793,8.777 9.459 C 8.989 9.152,9.530 8.639,9.569 8.708 C 9.579 8.726,9.618 8.892,9.657 9.077 L 9.727 9.414 9.605 9.543 C 9.394 9.765,9.263 9.986,9.170 10.278 C 9.127 10.413,9.117 10.495,9.117 10.745 C 9.117 11.108,9.153 11.266,9.300 11.550 C 9.528 11.991,9.833 12.252,10.314 12.416 C 10.517 12.486,10.559 12.492,10.838 12.493 C 11.176 12.495,11.386 12.450,11.641 12.321 C 11.912 12.184,12.212 11.895,12.381 11.607 C 12.537 11.339,12.622 10.868,12.577 10.511 C 12.548 10.286,12.437 10.003,12.294 9.788 C 12.065 9.447,11.718 9.203,11.283 9.076 L 11.073 9.016 10.821 7.757 C 10.683 7.065,10.428 5.779,10.255 4.900 C 10.082 4.021,9.935 3.280,9.929 3.252 C 9.918 3.207,9.958 3.191,10.471 3.034 C 11.154 2.826,11.222 2.797,11.342 2.667 C 11.482 2.514,11.537 2.378,11.537 2.182 C 11.536 1.722,11.127 1.422,10.646 1.528 M2.648 6.939 C 2.414 7.014,2.237 7.159,2.155 7.344 C 2.096 7.477,2.100 7.754,2.162 7.890 C 2.229 8.035,2.361 8.177,2.487 8.237 C 2.579 8.282,2.645 8.289,3.113 8.304 L 3.635 8.320 3.853 8.429 C 3.976 8.490,4.181 8.624,4.320 8.734 C 4.457 8.841,4.604 8.944,4.647 8.962 C 4.693 8.981,4.802 8.995,4.912 8.994 C 5.060 8.994,5.119 8.983,5.198 8.941 C 5.329 8.872,5.465 8.730,5.533 8.592 C 5.608 8.439,5.608 8.179,5.532 8.022 C 5.423 7.795,4.941 7.406,4.491 7.181 C 4.050 6.961,3.782 6.906,3.164 6.908 C 2.892 6.909,2.709 6.920,2.648 6.939 M3.332 10.477 C 3.429 10.536,3.511 10.708,3.491 10.809 C 3.424 11.144,3.010 11.214,2.851 10.918 C 2.728 10.686,2.884 10.430,3.150 10.430 C 3.214 10.430,3.285 10.448,3.332 10.477 M11.030 10.476 C 11.229 10.597,11.236 10.902,11.044 11.046 C 10.957 11.110,10.805 11.121,10.699 11.070 C 10.468 10.961,10.449 10.611,10.668 10.477 C 10.768 10.416,10.931 10.415,11.030 10.476 " fill="#1A1C1F" stroke="none" fill-rule="evenodd"></path></svg>