<svg width="32" height="32" viewBox="0 0 32 32" fill="none" xmlns="http://www.w3.org/2000/svg"><path d="M12.107 4.591 C 9.498 4.706,8.780 4.857,7.956 5.464 C 7.164 6.047,7.119 6.165,5.943 10.667 C 5.687 11.649,5.451 12.471,5.419 12.493 C 5.386 12.514,4.796 12.532,4.106 12.533 C 3.417 12.533,2.771 12.557,2.670 12.586 C 2.463 12.645,2.218 12.859,2.089 13.093 C 2.019 13.221,2.001 13.406,2.001 14.000 C 2.001 14.813,2.032 14.930,2.329 15.210 C 2.555 15.424,2.740 15.475,3.392 15.506 L 3.984 15.534 4.018 16.474 C 4.076 18.102,4.343 20.487,4.539 21.145 C 4.600 21.349,4.724 21.661,4.814 21.838 L 4.977 22.160 5.000 23.600 L 5.022 25.040 5.174 25.371 C 5.457 25.989,5.975 26.369,6.654 26.457 C 7.154 26.521,8.967 26.517,9.387 26.451 C 10.074 26.342,10.539 25.998,10.816 25.393 C 10.931 25.142,10.958 24.994,10.977 24.487 L 11.001 23.882 11.194 23.913 C 11.300 23.931,12.869 23.961,14.680 23.981 L 17.973 24.017 17.973 24.244 C 17.973 24.569,18.106 25.211,18.235 25.509 C 18.573 26.293,19.352 27.019,20.203 27.343 L 20.560 27.479 22.773 27.505 C 23.991 27.519,25.379 27.507,25.859 27.477 C 26.710 27.426,26.740 27.420,27.139 27.224 C 27.456 27.069,27.655 26.915,28.032 26.539 C 28.667 25.903,28.883 25.486,28.959 24.747 C 28.989 24.461,29.012 22.341,29.012 19.887 L 29.013 15.534 29.244 15.446 C 29.500 15.349,29.774 15.106,29.911 14.857 C 30.040 14.620,30.040 13.380,29.911 13.143 C 29.773 12.892,29.499 12.651,29.262 12.572 C 29.054 12.503,29.046 12.491,28.979 12.157 C 28.732 10.938,27.640 9.835,26.400 9.554 L 26.016 9.466 25.917 9.207 C 25.805 8.910,25.693 8.772,25.467 8.649 C 25.332 8.575,25.065 8.559,23.762 8.542 C 21.912 8.520,21.606 8.544,21.383 8.731 C 21.206 8.880,21.013 9.217,21.013 9.379 C 21.013 9.463,20.954 9.492,20.680 9.541 C 20.002 9.660,19.046 10.240,18.623 10.787 C 18.335 11.161,18.069 11.740,18.038 12.061 L 18.013 12.320 16.673 12.322 C 15.242 12.324,11.120 12.397,8.947 12.459 L 7.627 12.497 7.627 12.380 C 7.627 12.258,8.270 9.652,8.634 8.303 C 8.885 7.370,8.979 7.170,9.258 6.973 C 9.443 6.842,9.551 6.817,10.213 6.750 C 12.903 6.476,18.742 6.463,21.627 6.724 C 22.410 6.795,22.538 6.835,22.956 7.144 C 23.152 7.289,23.396 7.435,23.497 7.468 C 24.039 7.647,24.647 7.202,24.731 6.566 C 24.790 6.110,24.235 5.477,23.439 5.092 C 22.872 4.818,21.942 4.695,19.627 4.587 C 18.321 4.527,13.507 4.529,12.107 4.591 M26.505 11.679 C 26.588 11.738,26.732 11.901,26.825 12.040 L 26.993 12.293 26.976 18.560 C 26.958 25.568,26.992 25.002,26.578 25.317 L 26.382 25.467 23.488 25.467 C 20.637 25.467,20.592 25.465,20.444 25.355 C 20.361 25.294,20.233 25.138,20.160 25.009 L 20.027 24.773 20.027 18.533 C 20.027 12.521,20.030 12.286,20.128 12.090 C 20.276 11.792,20.548 11.607,20.902 11.564 C 21.066 11.544,22.359 11.537,23.776 11.549 C 26.261 11.570,26.358 11.574,26.505 11.679 M17.485 14.328 L 17.973 14.363 17.973 16.435 L 17.973 18.508 15.536 18.494 L 13.100 18.480 13.035 18.133 C 12.917 17.506,12.783 17.291,12.400 17.114 C 12.001 16.930,11.527 17.039,11.240 17.381 C 11.009 17.655,10.977 17.868,11.071 18.506 C 11.282 19.928,11.372 20.156,11.813 20.392 C 12.022 20.503,12.085 20.506,15.000 20.524 L 17.973 20.543 17.973 21.253 L 17.973 21.964 17.507 22.003 C 16.937 22.051,12.729 21.992,11.517 21.919 C 9.830 21.817,8.279 21.595,7.317 21.316 C 6.834 21.176,6.600 21.005,6.509 20.725 C 6.456 20.561,6.257 19.017,6.231 18.560 C 6.215 18.280,6.095 18.295,7.291 18.428 C 8.201 18.529,8.386 18.497,8.690 18.184 C 9.069 17.793,9.084 17.209,8.725 16.828 C 8.498 16.587,8.200 16.517,6.539 16.316 L 6.012 16.252 6.041 15.732 C 6.078 15.054,6.163 14.872,6.526 14.695 C 6.781 14.570,6.884 14.557,7.973 14.509 C 8.949 14.466,10.925 14.409,14.213 14.329 C 15.527 14.297,17.037 14.296,17.485 14.328 M23.580 14.622 C 23.286 14.768,23.211 14.886,22.402 16.482 C 21.654 17.959,21.472 18.404,21.512 18.656 C 21.584 19.101,22.002 19.450,22.531 19.504 C 22.694 19.521,22.827 19.539,22.827 19.544 C 22.827 19.549,22.647 19.935,22.427 20.402 C 21.914 21.489,21.899 21.753,22.329 22.195 C 22.710 22.587,23.283 22.584,23.679 22.188 C 23.896 21.971,25.344 19.132,25.448 18.718 C 25.571 18.231,25.374 17.849,24.882 17.620 C 24.734 17.551,24.512 17.494,24.387 17.494 C 24.262 17.494,24.160 17.481,24.160 17.466 C 24.160 17.451,24.313 17.133,24.500 16.759 C 24.962 15.836,25.052 15.541,24.963 15.242 C 24.845 14.845,24.374 14.507,23.940 14.507 C 23.871 14.507,23.708 14.559,23.580 14.622 M8.547 23.628 L 9.013 23.697 9.013 24.089 L 9.013 24.480 8.000 24.480 L 6.987 24.480 6.987 23.929 C 6.987 23.626,6.999 23.366,7.013 23.351 C 7.028 23.337,7.274 23.378,7.560 23.442 C 7.846 23.506,8.290 23.590,8.547 23.628 " fill="#1A1C1F" stroke="none" fill-rule="evenodd"></path></svg>