<svg xmlns="http://www.w3.org/2000/svg" width="14" height="14" fill="none"><g clip-path="url(#a)"><path fill="#1A1C1F" fill-rule="evenodd" d="m4.548 9.97-.005.88H2.798V9.328a1.76 1.76 0 0 1-.437-.976L2.17 6.65h-.773v-1.4h1.187l.533-2.402c.167-.564.66-1.098 1.286-1.098h3.049a.595.595 0 1 1 0 1.19H4.228l-.45 2.31h3.22a1.4 1.4 0 0 1 1.4-1.399.7.7 0 0 1 .7-.701h1.409c.359 0 .691.331.7.701.737 0 1.395.662 1.395 1.4l-.004 5.597a1.4 1.4 0 0 1-1.4 1.4h-2.8a1.4 1.4 0 0 1-1.4-1.4v-.698q-1.225 0-2.45-.182m6.65-4.913h-2.8c-.099 0-.21.075-.21.21v5.582c0 .1.093.202.21.21h2.8c.1 0 .21-.074.21-.21V5.267c0-.099-.104-.21-.21-.21M5.766 7.392c-.229.094-.386.334-.34.547q.097.387.213.845c.06.145.238.317.405.317h.954V8.056h-.465l-.1-.376c-.07-.212-.41-.394-.667-.288m4.47-1.393a.52.52 0 0 1 .264.694q-.19.42-.386.832h.212c.357 0 .646.37.479.741q-.3.683-.756 1.589a.525.525 0 0 1-.694.263.52.52 0 0 1-.264-.694q.12-.293.423-.849h-.21a.528.528 0 0 1-.48-.74q.228-.514.718-1.572a.525.525 0 0 1 .694-.264m-6.795.899 1.091.257a.525.525 0 0 1-.304 1.002L3.136 7.9a.525.525 0 0 1 .305-1.002" clip-rule="evenodd"/></g><defs><clipPath id="a"><path fill="#fff" d="M0 0h14v14H0z"/></clipPath></defs></svg>