<svg width="12" height="12" viewBox="0 0 12 12" fill="none" xmlns="http://www.w3.org/2000/svg"><path d="M3.800 1.219 C 3.570 1.230,3.538 1.237,3.402 1.300 C 3.025 1.475,2.780 1.771,2.671 2.182 C 2.631 2.331,2.286 3.861,2.231 4.133 L 2.218 4.196 1.844 4.204 C 1.416 4.213,1.354 4.230,1.263 4.366 C 1.213 4.442,1.210 4.463,1.203 4.728 C 1.194 5.073,1.212 5.154,1.326 5.267 C 1.426 5.367,1.523 5.400,1.717 5.400 C 1.796 5.400,1.860 5.404,1.860 5.409 C 1.860 5.454,2.009 6.696,2.033 6.850 C 2.092 7.229,2.098 7.353,2.099 8.175 L 2.100 9.000 2.850 9.000 L 3.600 9.000 3.600 8.610 C 3.600 8.239,3.602 8.220,3.638 8.220 C 3.659 8.220,3.828 8.238,4.013 8.260 C 4.198 8.281,4.544 8.317,4.780 8.340 C 5.016 8.362,5.253 8.385,5.305 8.392 L 5.400 8.404 5.401 9.147 C 5.402 10.004,5.412 10.135,5.493 10.294 C 5.574 10.455,5.763 10.639,5.931 10.722 L 6.069 10.790 7.940 10.795 C 9.060 10.799,9.880 10.793,9.986 10.781 C 10.221 10.755,10.377 10.678,10.540 10.509 C 10.696 10.346,10.760 10.207,10.783 9.981 C 10.793 9.886,10.798 8.562,10.795 7.039 L 10.790 4.270 10.723 4.136 C 10.636 3.964,10.448 3.780,10.276 3.700 C 10.150 3.641,9.914 3.601,9.697 3.600 C 9.606 3.600,9.604 3.599,9.591 3.526 C 9.553 3.326,9.405 3.143,9.205 3.048 L 9.091 2.994 8.050 3.004 C 6.907 3.015,6.968 3.008,6.799 3.141 C 6.716 3.207,6.618 3.394,6.604 3.515 L 6.595 3.600 6.431 3.600 C 6.211 3.600,6.056 3.631,5.911 3.705 C 5.769 3.776,5.572 3.968,5.500 4.105 L 5.450 4.200 4.447 4.200 L 3.444 4.200 3.461 4.125 C 3.676 3.156,3.810 2.574,3.837 2.501 L 3.871 2.410 5.291 2.398 C 6.393 2.390,6.730 2.381,6.800 2.360 C 6.912 2.327,7.123 2.122,7.162 2.007 C 7.177 1.965,7.189 1.867,7.189 1.790 C 7.190 1.547,7.074 1.371,6.831 1.249 L 6.732 1.200 5.391 1.203 C 4.653 1.205,3.938 1.212,3.800 1.219 M9.600 7.200 L 9.600 9.600 8.100 9.600 L 6.600 9.600 6.600 7.200 L 6.600 4.800 8.100 4.800 L 9.600 4.800 9.600 7.200 M3.948 5.502 C 4.542 5.637,4.645 5.683,4.722 5.850 C 4.842 6.111,4.684 6.432,4.406 6.489 C 4.331 6.505,4.161 6.474,3.636 6.347 C 3.215 6.246,3.135 6.205,3.063 6.055 C 3.012 5.950,3.004 5.729,3.048 5.644 C 3.089 5.566,3.177 5.488,3.280 5.440 C 3.394 5.387,3.470 5.394,3.948 5.502 M8.216 5.423 C 8.053 5.468,7.991 5.554,7.676 6.163 C 7.273 6.942,7.210 7.085,7.211 7.213 C 7.212 7.292,7.226 7.339,7.271 7.413 C 7.361 7.558,7.464 7.621,7.638 7.637 L 7.781 7.650 7.627 7.920 C 7.397 8.326,7.355 8.424,7.356 8.553 C 7.359 8.912,7.744 9.115,8.042 8.915 C 8.122 8.861,8.301 8.574,8.685 7.884 C 9.006 7.306,9.032 7.244,9.003 7.115 C 8.950 6.885,8.758 6.740,8.505 6.740 C 8.458 6.740,8.420 6.731,8.420 6.721 C 8.420 6.711,8.502 6.536,8.603 6.332 C 8.771 5.994,8.787 5.952,8.787 5.846 C 8.786 5.714,8.754 5.638,8.657 5.547 C 8.528 5.426,8.367 5.381,8.216 5.423 " fill="#1A1C1F" stroke="none" fill-rule="evenodd"></path></svg>