<svg xmlns="http://www.w3.org/2000/svg" width="20" height="20" fill="none"><g clip-path="url(#a)"><path fill="#1A1C1F" fill-rule="evenodd" d="M6.497 14.242 6.49 15.5H3.997v-2.172a2.5 2.5 0 0 1-.625-1.395l-.27-2.43H1.996v-2h1.696l.761-3.432c.238-.806.943-1.569 1.838-1.569l4.355.001a.85.85 0 0 1 0 1.7H6.04l-.643 3.3 4.6-.002a2 2 0 0 1 2-1.997c0-.554.448-1.002 1-1.002h2.012c.513 0 .988.474 1 1.002 1.054 0 1.994.946 1.994 2l-.006 7.996a2 2 0 0 1-2 2h-3.999a2 2 0 0 1-2-2V14.5q-1.75 0-3.5-.259m9.5-7.017h-3.999c-.142 0-.3.106-.3.3v7.974c0 .142.131.288.3.3h4c.141 0 .3-.105.3-.3V7.525c0-.142-.149-.3-.3-.3m-7.76 3.335c-.327.134-.551.477-.485.781l.303 1.208c.087.207.34.452.58.452h1.362V11.51h-.665l-.142-.537c-.1-.303-.585-.563-.953-.412m6.387-1.99c.346.156.558.56.376.991q-.27.601-.55 1.19h.301c.51 0 .923.527.684 1.058q-.429.975-1.08 2.27a.75.75 0 0 1-.991.376c-.347-.156-.571-.583-.377-.992q.173-.42.604-1.213l-.3.001a.755.755 0 0 1-.684-1.057q.324-.736 1.025-2.247a.75.75 0 0 1 .992-.377M4.015 10.416a.75.75 0 0 1 .9-.562l1.559.367a.75.75 0 0 1-.435 1.432l-1.56-.367a.75.75 0 0 1-.464-.87" clip-rule="evenodd"/></g><defs><clipPath id="a"><path fill="#fff" d="M0 0h20v20H0z"/></clipPath></defs></svg>