<svg width="14" height="14" viewBox="0 0 14 14" fill="none" xmlns="http://www.w3.org/2000/svg"><path d="M9.975 1.667 C 9.666 1.750,9.039 1.973,8.924 2.041 C 8.685 2.181,8.471 2.554,8.470 2.835 C 8.470 2.894,9.454 7.494,9.484 7.577 C 9.491 7.594,9.411 7.646,9.280 7.709 C 8.373 8.146,7.760 8.870,7.397 9.935 L 7.292 10.243 5.806 10.243 L 4.321 10.243 4.214 10.094 C 3.878 9.622,3.337 9.377,2.797 9.450 C 2.442 9.499,2.188 9.620,1.950 9.855 C 1.760 10.041,1.651 10.211,1.571 10.442 C 1.514 10.607,1.507 10.661,1.508 10.920 C 1.508 11.173,1.516 11.234,1.568 11.380 C 1.708 11.774,1.953 12.052,2.318 12.233 C 2.546 12.345,2.732 12.390,2.975 12.390 C 3.537 12.390,4.063 12.063,4.311 11.559 L 4.370 11.440 6.122 11.428 C 8.043 11.415,7.977 11.420,8.163 11.273 C 8.283 11.178,8.337 11.063,8.411 10.745 C 8.570 10.065,8.810 9.576,9.154 9.232 C 9.377 9.009,9.719 8.787,9.753 8.843 C 9.762 8.858,9.820 9.090,9.881 9.358 L 9.992 9.845 9.885 9.967 C 9.656 10.228,9.529 10.618,9.550 10.990 C 9.582 11.541,9.877 11.990,10.367 12.232 C 10.596 12.345,10.782 12.390,11.025 12.390 C 11.530 12.390,11.998 12.134,12.277 11.703 C 12.469 11.409,12.550 10.953,12.475 10.598 C 12.358 10.046,11.871 9.572,11.305 9.459 L 11.118 9.422 10.423 6.234 C 10.040 4.480,9.728 3.038,9.729 3.029 C 9.730 3.014,9.841 2.969,10.332 2.789 C 10.541 2.711,10.584 2.686,10.676 2.584 C 10.934 2.297,10.883 1.933,10.552 1.696 C 10.416 1.598,10.257 1.590,9.975 1.667 M2.552 7.281 C 2.410 7.324,2.256 7.449,2.194 7.571 C 2.147 7.664,2.135 7.721,2.136 7.851 C 2.137 8.040,2.182 8.154,2.306 8.278 C 2.437 8.409,2.498 8.423,2.993 8.438 C 3.259 8.445,3.499 8.465,3.581 8.485 C 3.775 8.532,4.033 8.677,4.282 8.877 C 4.397 8.971,4.526 9.064,4.567 9.086 C 4.833 9.221,5.191 9.097,5.331 8.821 C 5.473 8.541,5.417 8.323,5.131 8.046 C 4.820 7.745,4.345 7.470,3.905 7.337 C 3.711 7.278,3.664 7.274,3.162 7.266 C 2.857 7.262,2.593 7.268,2.552 7.281 " fill="#1A1C1F" stroke="none" fill-rule="evenodd"></path></svg>