<svg width="20" height="20" viewBox="0 0 20 20" fill="none" xmlns="http://www.w3.org/2000/svg"><path d="M6.667 2.531 C 5.875 2.549,5.844 2.553,5.667 2.637 C 5.109 2.901,4.682 3.403,4.487 4.024 C 4.421 4.238,3.700 7.401,3.700 7.481 C 3.700 7.492,3.318 7.500,2.850 7.500 L 2.000 7.500 2.000 8.500 L 2.000 9.500 2.508 9.501 C 2.788 9.501,3.035 9.513,3.057 9.527 C 3.083 9.543,3.141 9.925,3.216 10.583 C 3.428 12.441,3.472 12.617,3.846 13.125 L 4.000 13.334 4.000 14.417 L 4.000 15.500 5.250 15.500 L 6.500 15.500 6.500 14.873 L 6.500 14.247 6.942 14.304 C 7.635 14.395,8.555 14.467,9.304 14.490 L 9.992 14.510 10.008 15.214 C 10.023 15.821,10.035 15.944,10.096 16.114 C 10.313 16.716,10.785 17.186,11.378 17.390 L 11.650 17.483 14.000 17.483 L 16.350 17.483 16.594 17.403 C 17.189 17.208,17.668 16.740,17.891 16.133 L 17.983 15.883 17.983 11.517 L 17.983 7.150 17.906 6.933 C 17.650 6.219,17.051 5.696,16.316 5.544 L 16.020 5.483 15.994 5.358 C 15.933 5.066,15.679 4.742,15.399 4.599 C 15.266 4.532,15.197 4.526,14.237 4.509 C 13.171 4.491,12.722 4.519,12.532 4.617 C 12.289 4.743,12.046 5.091,12.009 5.367 C 11.995 5.474,11.978 5.500,11.921 5.501 C 11.755 5.502,11.368 5.608,11.151 5.711 C 10.526 6.008,10.081 6.630,10.011 7.308 L 9.991 7.500 7.692 7.500 L 5.393 7.500 5.411 7.425 C 5.422 7.384,5.565 6.654,5.731 5.803 C 5.897 4.953,6.041 4.248,6.052 4.237 C 6.063 4.226,7.140 4.207,8.444 4.195 C 9.900 4.182,10.867 4.161,10.946 4.140 C 11.108 4.096,11.321 3.895,11.408 3.703 C 11.487 3.528,11.495 3.199,11.423 3.028 C 11.353 2.859,11.184 2.681,11.024 2.606 C 10.891 2.544,10.787 2.539,9.183 2.526 C 8.248 2.519,7.116 2.521,6.667 2.531 M16.189 7.308 C 16.284 7.403,16.295 7.879,16.298 11.869 L 16.300 15.621 16.207 15.710 L 16.113 15.800 13.993 15.800 L 11.873 15.800 11.784 15.695 L 11.696 15.590 11.706 11.537 C 11.715 8.002,11.723 7.471,11.767 7.383 C 11.817 7.285,11.822 7.283,12.150 7.263 C 12.333 7.252,13.304 7.245,14.307 7.247 C 15.990 7.250,16.135 7.254,16.189 7.308 M14.141 8.533 C 13.967 8.573,13.778 8.719,13.678 8.890 C 13.578 9.061,12.956 10.395,12.709 10.967 C 12.520 11.406,12.503 11.533,12.601 11.761 C 12.728 12.057,12.965 12.217,13.334 12.255 C 13.443 12.267,13.533 12.288,13.533 12.303 C 13.533 12.318,13.421 12.558,13.283 12.836 C 13.145 13.115,13.001 13.445,12.963 13.570 C 12.896 13.791,12.896 13.804,12.951 13.971 C 13.025 14.193,13.232 14.404,13.450 14.478 C 13.650 14.546,13.691 14.547,13.891 14.480 C 14.199 14.377,14.307 14.216,14.877 13.017 C 15.316 12.094,15.500 11.648,15.500 11.513 C 15.499 11.316,15.426 11.150,15.271 10.995 C 15.100 10.825,14.951 10.767,14.677 10.767 C 14.582 10.767,14.496 10.754,14.487 10.740 C 14.478 10.725,14.580 10.473,14.713 10.181 C 15.102 9.331,15.122 9.238,14.985 8.944 C 14.893 8.744,14.691 8.579,14.504 8.549 C 14.438 8.538,14.353 8.525,14.317 8.519 C 14.280 8.513,14.201 8.520,14.141 8.533 M5.221 9.934 C 5.777 10.049,6.442 10.230,6.600 10.310 C 7.014 10.521,7.047 11.216,6.658 11.513 C 6.441 11.678,6.295 11.690,5.778 11.585 C 5.031 11.432,4.425 11.274,4.335 11.207 C 4.202 11.110,4.039 10.845,4.016 10.688 C 3.987 10.499,4.044 10.301,4.176 10.130 C 4.389 9.853,4.617 9.810,5.221 9.934 M8.897 10.658 C 9.077 10.770,9.157 10.899,9.253 11.232 L 9.326 11.483 9.663 11.493 L 10.000 11.502 10.000 12.254 L 10.000 13.006 9.239 12.995 L 8.478 12.983 8.339 12.887 C 8.250 12.826,8.171 12.730,8.118 12.621 C 8.012 12.403,7.801 11.585,7.776 11.294 C 7.759 11.094,7.766 11.056,7.846 10.920 C 7.936 10.767,8.085 10.632,8.234 10.568 C 8.379 10.507,8.729 10.554,8.897 10.658 " fill="#1A1C1F" stroke="none" fill-rule="evenodd"></path></svg>