<svg xmlns="http://www.w3.org/2000/svg" width="32" height="32" fill="none"><path fill="#1A1C1F" fill-rule="evenodd" d="M11.493 5.116c-2.314.093-2.414.102-2.793.234-.756.264-1.357.78-1.676 1.44-.14.289-.366 1.1-.922 3.303l-.736 2.92-1.31.002c-1.161.001-1.334.012-1.528.1-.435.197-.583.62-.543 1.548.018.43.05.614.134.777.238.462.479.56 1.376.56.369 0 .661.018.648.04-.085.149.369 5.308.516 5.854.039.146.119.376.178.509.093.21.113.411.147 1.52.042 1.364.065 1.489.327 1.749.314.311.385.327 1.549.345 1.229.02 1.42-.013 1.738-.3.334-.301.413-.525.414-1.175l.001-.55.334.032c.311.03 1.297.093 3.933.251.601.036 1.912.066 2.912.067h1.818l.061.296c.217 1.053 1.118 1.983 2.198 2.27.45.12 6.003.115 6.47-.006.962-.248 1.749-.977 2.104-1.948l.144-.394.015-4.28c.013-3.77.025-4.28.095-4.28.287 0 .778-.441.873-.785.073-.262.072-1.157-.001-1.421-.083-.298-.442-.665-.725-.741-.176-.047-.231-.088-.232-.171-.002-.246-.167-.867-.31-1.171-.43-.907-1.37-1.578-2.337-1.668l-.338-.032-.057-.208c-.067-.252-.386-.619-.622-.718-.267-.112-3.479-.103-3.718.01-.26.123-.509.409-.586.671l-.069.234-.332.037c-.65.073-1.28.376-1.732.834-.521.527-.794 1.064-.878 1.725l-.033.262-3.387.023c-1.862.012-4.297.046-5.41.076s-2.035.042-2.047.03.025-.21.084-.439c.059-.228.364-1.421.677-2.651s.602-2.298.642-2.373c.094-.18.329-.396.558-.511.622-.314 8.307-.397 12.883-.138.85.048.967.089 1.393.488.296.278.522.355.857.292.251-.047.52-.314.606-.604.104-.347.003-.602-.395-.999a2.92 2.92 0 0 0-1.554-.796c-1.143-.202-7.819-.284-11.414-.14m15.165 6.792c.268.177.522.514.597.79.035.133.049 2.152.04 5.899-.017 6.343.013 5.858-.387 6.301-.373.413-.339.409-3.415.409-2.646 0-2.726-.003-2.96-.112a1.58 1.58 0 0 1-.708-.681l-.118-.221v-5.76c0-6.49-.028-6.061.408-6.455.396-.357.255-.343 3.436-.33l2.884.012zm-3.069 2.97c-.144.088-.308.377-1 1.761-.902 1.803-.936 1.909-.709 2.241.191.28.423.373.933.373.242 0 .44.011.44.025s-.23.488-.511 1.053c-.443.892-.508 1.056-.485 1.231a.76.76 0 0 0 .762.678c.434 0 .498-.085 1.367-1.814.434-.865.814-1.663.844-1.773.045-.165.036-.243-.05-.437-.151-.342-.4-.456-.991-.456-.251 0-.456-.012-.456-.027s.228-.483.507-1.04c.532-1.062.572-1.207.421-1.524-.176-.37-.706-.514-1.072-.291M7.876 17.171c.772.089 1.408.189 1.494.234.601.311.609 1.184.013 1.488-.241.123-.428.119-1.827-.043-1.299-.15-1.541-.221-1.748-.51-.18-.253-.18-.694 0-.946.122-.171.474-.378.645-.379.044 0 .685.07 1.423.156m4.976.762c.312.16.423.326.513.766.041.202.087.422.102.488l.028.12h4.478v1.706h-2.699c-2.687 0-2.7 0-2.909-.118a1 1 0 0 1-.317-.291c-.115-.185-.367-1.513-.367-1.938-.001-.329.147-.584.426-.731.289-.153.449-.153.745-.002"/></svg>