<svg width="28" height="28" viewBox="0 0 28 28" fill="none" xmlns="http://www.w3.org/2000/svg"><path d="M22.988 4.670 C 22.225 4.805,21.333 5.034,21.064 5.166 C 20.429 5.476,19.965 6.210,19.964 6.907 C 19.963 7.251,20.009 7.526,20.719 11.450 C 21.001 13.013,21.221 14.308,21.208 14.330 C 21.195 14.351,21.001 14.478,20.777 14.613 C 19.569 15.337,18.314 16.370,17.681 17.162 C 17.161 17.814,16.874 18.589,16.750 19.682 L 16.691 20.207 12.220 20.207 L 7.750 20.207 7.702 20.008 C 7.527 19.288,7.302 18.881,6.830 18.433 C 5.649 17.311,3.895 17.330,2.753 18.476 C 1.581 19.652,1.590 21.387,2.776 22.574 C 3.362 23.161,4.000 23.427,4.821 23.427 C 5.509 23.427,6.102 23.217,6.625 22.790 C 6.921 22.549,7.326 22.066,7.417 21.848 L 7.478 21.700 12.588 21.700 C 17.676 21.700,17.700 21.700,17.855 21.603 C 17.941 21.550,18.059 21.440,18.117 21.358 C 18.215 21.221,18.225 21.144,18.253 20.300 C 18.287 19.296,18.360 18.928,18.628 18.426 C 18.808 18.088,19.298 17.556,19.873 17.075 C 20.393 16.639,21.474 15.902,21.521 15.950 C 21.567 15.998,21.840 17.523,21.840 17.732 C 21.840 17.887,21.817 17.923,21.642 18.038 C 21.329 18.244,20.869 18.709,20.697 18.992 C 20.611 19.134,20.482 19.419,20.411 19.624 C 20.298 19.949,20.282 20.066,20.283 20.533 C 20.284 20.990,20.302 21.121,20.405 21.412 C 20.567 21.868,20.777 22.205,21.110 22.542 C 21.696 23.135,22.231 23.375,23.054 23.414 C 23.644 23.442,23.974 23.372,24.527 23.102 C 25.195 22.774,25.713 22.166,25.967 21.411 C 26.066 21.114,26.087 20.967,26.087 20.547 C 26.087 19.762,25.930 19.299,25.470 18.730 C 25.020 18.172,24.445 17.810,23.772 17.661 C 23.585 17.619,23.413 17.561,23.390 17.531 C 23.368 17.501,23.302 17.214,23.244 16.893 C 23.187 16.573,22.753 14.201,22.282 11.623 L 21.424 6.935 21.510 6.740 C 21.615 6.503,21.671 6.482,22.913 6.205 C 23.960 5.972,24.133 5.899,24.264 5.629 C 24.317 5.520,24.360 5.370,24.360 5.297 C 24.360 5.053,24.187 4.775,23.969 4.669 C 23.731 4.554,23.647 4.554,22.988 4.670 M3.300 14.135 C 2.775 14.247,2.595 14.954,2.990 15.350 C 3.174 15.533,3.345 15.572,4.107 15.603 C 5.401 15.655,6.222 15.850,6.883 16.262 C 7.307 16.526,7.606 16.867,7.914 17.440 C 8.035 17.666,8.187 17.907,8.251 17.977 C 8.670 18.431,9.475 18.095,9.473 17.467 C 9.472 17.264,9.248 16.722,8.982 16.284 C 8.782 15.953,8.172 15.316,7.833 15.084 C 7.173 14.632,6.225 14.317,5.137 14.187 C 4.579 14.121,3.509 14.090,3.300 14.135 M5.403 19.227 C 6.258 19.604,6.489 20.697,5.878 21.469 C 5.666 21.737,5.226 21.939,4.848 21.943 C 4.262 21.948,3.827 21.687,3.571 21.175 C 3.433 20.899,3.407 20.799,3.407 20.539 C 3.407 20.369,3.429 20.152,3.455 20.057 C 3.558 19.687,4.044 19.233,4.449 19.129 C 4.677 19.070,5.159 19.120,5.403 19.227 M23.779 19.223 C 24.065 19.350,24.425 19.729,24.518 20.003 C 24.560 20.124,24.593 20.364,24.593 20.535 C 24.593 20.799,24.568 20.898,24.429 21.175 C 24.175 21.684,23.743 21.944,23.158 21.942 C 22.615 21.939,22.172 21.656,21.924 21.152 C 21.650 20.596,21.741 19.969,22.157 19.538 C 22.338 19.351,22.606 19.191,22.843 19.128 C 23.059 19.070,23.546 19.120,23.779 19.223 " fill="#1A1C1F" stroke="none" fill-rule="evenodd"></path></svg>