<svg width="12" height="12" viewBox="0 0 12 12" fill="none" xmlns="http://www.w3.org/2000/svg"><path d="M9.125 1.310 C 8.975 1.343,8.374 1.524,8.000 1.650 C 7.712 1.747,7.568 1.829,7.466 1.956 C 7.378 2.065,7.304 2.221,7.270 2.368 C 7.242 2.490,7.243 2.513,7.289 2.783 C 7.316 2.941,7.442 3.592,7.568 4.230 C 7.847 5.638,7.920 6.027,7.919 6.097 C 7.918 6.141,7.883 6.175,7.706 6.300 C 7.249 6.624,6.741 7.113,6.519 7.444 C 6.305 7.765,6.157 8.105,6.082 8.450 L 6.047 8.610 5.055 8.615 L 4.063 8.620 4.049 8.575 C 4.027 8.505,3.904 8.328,3.795 8.208 C 3.664 8.065,3.403 7.894,3.196 7.815 C 3.034 7.753,3.022 7.751,2.700 7.751 C 2.378 7.751,2.366 7.753,2.205 7.814 C 1.882 7.937,1.626 8.141,1.444 8.420 C 1.123 8.911,1.126 9.553,1.451 10.042 C 1.586 10.245,1.831 10.465,2.027 10.559 C 2.279 10.680,2.409 10.709,2.710 10.709 C 2.950 10.709,2.984 10.704,3.151 10.646 C 3.542 10.510,3.822 10.283,4.013 9.945 L 4.083 9.820 5.327 9.819 C 6.011 9.819,6.632 9.811,6.708 9.801 C 6.868 9.780,6.970 9.719,7.074 9.584 C 7.158 9.473,7.175 9.409,7.211 9.056 C 7.270 8.471,7.415 8.162,7.816 7.765 C 8.050 7.532,8.183 7.430,8.202 7.464 C 8.210 7.479,8.244 7.622,8.277 7.780 L 8.337 8.069 8.233 8.180 C 7.900 8.531,7.764 8.936,7.820 9.418 C 7.858 9.755,7.994 10.018,8.268 10.290 C 8.413 10.434,8.485 10.488,8.620 10.556 C 8.862 10.676,9.002 10.707,9.300 10.707 C 9.598 10.707,9.738 10.676,9.980 10.556 C 10.216 10.439,10.494 10.164,10.616 9.926 C 10.735 9.696,10.759 9.619,10.782 9.389 C 10.820 9.016,10.741 8.694,10.537 8.390 C 10.342 8.098,10.049 7.891,9.670 7.779 L 9.491 7.725 9.265 6.598 C 9.141 5.977,8.922 4.876,8.780 4.150 C 8.637 3.424,8.516 2.811,8.510 2.788 C 8.501 2.749,8.535 2.735,8.975 2.601 C 9.236 2.521,9.493 2.438,9.545 2.416 C 9.657 2.368,9.788 2.232,9.844 2.105 C 9.898 1.983,9.901 1.739,9.850 1.639 C 9.757 1.459,9.634 1.359,9.446 1.310 C 9.311 1.275,9.289 1.275,9.125 1.310 M2.270 5.948 C 1.964 6.045,1.814 6.233,1.812 6.520 C 1.810 6.695,1.853 6.808,1.969 6.936 C 2.105 7.087,2.158 7.101,2.667 7.117 L 3.116 7.131 3.303 7.225 C 3.408 7.277,3.584 7.392,3.703 7.486 C 3.820 7.578,3.946 7.666,3.983 7.682 C 4.022 7.698,4.116 7.710,4.210 7.709 C 4.396 7.709,4.493 7.668,4.619 7.539 C 4.742 7.412,4.789 7.296,4.789 7.120 C 4.789 6.919,4.741 6.824,4.544 6.637 C 4.179 6.289,3.681 6.026,3.242 5.949 C 3.029 5.912,2.386 5.911,2.270 5.948 M2.815 8.959 C 2.971 9.030,3.033 9.199,2.959 9.352 C 2.903 9.467,2.783 9.531,2.652 9.513 C 2.550 9.500,2.429 9.380,2.409 9.272 C 2.388 9.161,2.465 9.023,2.579 8.965 C 2.687 8.911,2.706 8.910,2.815 8.959 M9.415 8.959 C 9.571 9.030,9.633 9.199,9.559 9.352 C 9.503 9.467,9.383 9.531,9.252 9.513 C 9.150 9.500,9.029 9.380,9.009 9.272 C 8.988 9.161,9.065 9.023,9.179 8.965 C 9.287 8.911,9.306 8.910,9.415 8.959 " fill="#1A1C1F" stroke="none" fill-rule="evenodd"></path></svg>