<svg width="24" height="24" viewBox="0 0 24 24" fill="none" xmlns="http://www.w3.org/2000/svg"><path d="M7.540 3.037 C 6.838 3.068,6.662 3.111,6.275 3.344 C 5.968 3.529,5.568 3.964,5.413 4.280 C 5.236 4.640,5.149 4.961,4.662 7.042 C 4.427 8.042,4.227 8.892,4.215 8.930 C 4.197 8.993,4.129 9.000,3.567 9.003 C 3.222 9.004,2.800 9.018,2.630 9.034 C 2.230 9.070,2.104 9.178,2.036 9.540 C 1.967 9.908,2.012 10.524,2.120 10.700 C 2.261 10.929,2.393 10.975,2.950 10.993 L 3.440 11.008 3.440 11.254 C 3.441 11.884,3.778 14.907,3.904 15.407 C 3.935 15.532,4.017 15.757,4.086 15.907 L 4.212 16.180 4.231 17.200 C 4.248 18.163,4.255 18.230,4.341 18.400 C 4.459 18.633,4.692 18.864,4.875 18.929 C 4.974 18.964,5.263 18.980,5.780 18.980 C 6.539 18.980,6.540 18.980,6.729 18.869 C 7.052 18.679,7.194 18.435,7.235 18.000 L 7.260 17.740 7.440 17.748 C 7.539 17.752,8.106 17.793,8.700 17.838 C 10.055 17.942,11.327 17.999,12.270 18.000 L 13.000 18.000 13.001 18.550 C 13.001 19.179,13.066 19.549,13.225 19.841 C 13.350 20.072,13.803 20.541,14.072 20.720 C 14.474 20.986,14.399 20.980,17.520 20.980 C 20.307 20.980,20.343 20.979,20.567 20.894 C 21.108 20.689,21.650 20.156,21.889 19.595 L 21.980 19.380 21.992 14.420 C 21.999 11.692,21.988 9.244,21.969 8.980 C 21.940 8.578,21.917 8.464,21.824 8.280 C 21.500 7.635,20.884 7.147,20.251 7.036 C 20.018 6.995,20.014 6.992,19.970 6.827 C 19.913 6.613,19.724 6.352,19.517 6.202 C 19.240 6.002,19.063 5.987,17.309 6.011 L 15.718 6.034 15.543 6.136 C 15.321 6.266,15.123 6.515,15.035 6.775 L 14.966 6.977 14.681 7.048 C 13.862 7.249,13.181 7.952,13.029 8.752 L 12.982 9.000 9.756 9.000 C 7.982 9.000,6.474 8.989,6.405 8.975 C 6.304 8.955,6.284 8.934,6.300 8.865 C 6.453 8.172,7.068 5.599,7.124 5.418 C 7.165 5.284,7.240 5.137,7.290 5.090 L 7.381 5.004 11.201 4.992 L 15.020 4.980 15.207 4.888 C 15.527 4.730,15.730 4.394,15.730 4.022 C 15.730 3.623,15.568 3.344,15.220 3.139 L 15.060 3.045 11.620 3.026 C 9.728 3.016,7.892 3.021,7.540 3.037 M19.785 9.103 C 19.846 9.148,19.914 9.238,19.936 9.303 C 19.993 9.465,19.993 18.535,19.936 18.697 C 19.914 18.762,19.846 18.852,19.785 18.897 C 19.676 18.979,19.635 18.980,17.500 18.980 C 15.365 18.980,15.324 18.979,15.215 18.897 C 15.154 18.852,15.087 18.762,15.065 18.697 C 15.018 18.558,14.979 10.851,15.021 9.934 C 15.047 9.348,15.052 9.323,15.159 9.194 C 15.258 9.076,15.300 9.058,15.525 9.035 C 15.665 9.021,16.656 9.012,17.727 9.015 C 19.629 9.020,19.677 9.022,19.785 9.103 M13.000 12.000 L 13.000 13.000 11.700 13.000 C 10.985 13.000,10.400 12.985,10.400 12.967 C 10.400 12.892,10.099 12.591,9.946 12.512 C 9.491 12.278,8.823 12.515,8.599 12.990 C 8.444 13.319,8.468 13.529,8.716 14.020 C 8.950 14.483,9.207 14.801,9.444 14.922 C 9.588 14.996,9.690 15.000,11.298 15.000 L 13.000 15.000 13.000 15.500 L 13.000 16.000 12.270 15.999 C 10.962 15.999,8.236 15.835,6.920 15.679 C 6.147 15.587,5.859 15.272,5.776 14.427 L 5.748 14.148 5.884 14.175 C 6.854 14.370,7.421 14.054,7.472 13.290 C 7.503 12.830,7.223 12.441,6.761 12.304 C 6.659 12.274,6.331 12.208,6.033 12.159 L 5.491 12.070 5.467 11.782 C 5.434 11.398,5.486 11.226,5.671 11.100 L 5.819 11.000 9.409 11.000 L 13.000 11.000 13.000 12.000 M17.740 11.047 C 17.503 11.135,17.401 11.249,17.126 11.731 C 16.628 12.603,16.091 13.637,16.038 13.827 C 15.910 14.283,16.281 14.756,16.770 14.759 C 16.852 14.760,16.920 14.780,16.920 14.804 C 16.920 14.828,16.806 15.058,16.667 15.314 C 16.273 16.042,16.234 16.173,16.320 16.483 C 16.371 16.668,16.613 16.909,16.803 16.966 C 17.061 17.043,17.303 16.979,17.494 16.785 C 17.773 16.501,19.001 14.233,18.999 14.008 C 18.997 13.849,18.837 13.562,18.677 13.433 C 18.576 13.351,18.469 13.310,18.298 13.288 C 18.122 13.264,18.063 13.241,18.072 13.198 C 18.078 13.166,18.219 12.870,18.385 12.540 C 18.551 12.210,18.695 11.868,18.706 11.780 C 18.761 11.323,18.181 10.883,17.740 11.047 " fill="#1A1C1F" stroke="none" fill-rule="evenodd"></path></svg>