<svg xmlns="http://www.w3.org/2000/svg" width="32" height="32" fill="none"><path fill="#1A1C1F" fill-rule="evenodd" d="M13.707 4.535c-2.349.053-3.946.173-4.609.346-.465.121-1.024.436-1.404.792-.561.525-.645.752-1.482 3.977a144 144 0 0 1-.752 2.84c-.014.024-.641.043-1.392.043-1.345 0-1.369.002-1.584.128a1.1 1.1 0 0 0-.351.36C2.009 13.238 2 13.302 2 14c0 .712.007.758.141.987.233.395.48.501 1.232.524l.627.02v.444c0 1.175.283 4.083.488 5.012.072.329.242.747.388.96.104.15.112.253.137 1.653l.027 1.493.155.336c.19.412.556.757.981.926.282.112.402.123 1.637.141 1.827.026 2.198-.06 2.712-.632.331-.367.462-.786.462-1.475v-.506l.253.031c.139.018 1.708.047 3.486.066l3.233.033.036.477c.063.829.346 1.433.961 2.048.392.393.858.684 1.364.856.272.092.505.099 3.2.099 3.222 0 3.083.014 3.813-.366.448-.232 1.07-.867 1.32-1.346.369-.706.359-.548.36-5.659v-4.598l.227-.067c.316-.095.645-.436.724-.75.035-.136.063-.454.063-.707 0-.649-.077-.906-.354-1.183-.166-.166-.287-.238-.444-.263-.175-.028-.216-.056-.216-.15 0-.432-.347-1.242-.719-1.677-.572-.67-1.311-1.107-2.041-1.206-.229-.031-.28-.057-.28-.141 0-.136-.174-.476-.301-.587-.289-.254-.339-.26-2.205-.26-1.438 0-1.793.015-1.915.078-.236.121-.481.436-.517.663l-.033.205-.348.058c-.648.107-1.545.639-1.965 1.164-.395.493-.662 1.072-.662 1.433v.172l-3.08.029c-1.694.015-4.034.059-5.2.096-1.165.038-2.134.053-2.153.034-.028-.028.993-4.063 1.242-4.906.094-.319.329-.589.607-.701.258-.103 1.612-.212 3.757-.303 2.912-.123 8.775.061 9.327.293.092.038.297.181.458.318.16.137.385.275.499.305.726.196 1.408-.492 1.212-1.22-.125-.465-.86-1.061-1.623-1.317-.942-.317-5.132-.495-9.366-.399m12.835 7.177c.112.091.258.259.324.373l.119.208.001 6.229c.001 5.171-.012 6.257-.073 6.4a1.08 1.08 0 0 1-.53.515c-.207.078-5.573.078-5.78-.001-.213-.08-.388-.256-.502-.503-.094-.203-.099-.497-.099-6.4 0-5.902.005-6.196.099-6.4.107-.232.264-.393.512-.525.142-.075.482-.084 2.942-.073l2.782.012zm-8.849 2.616.28.034v4.146l-2.438-.014-2.438-.014-.064-.38c-.073-.434-.159-.626-.375-.83-.401-.379-1.017-.343-1.39.081-.298.34-.313.488-.148 1.481.195 1.175.264 1.33.693 1.56.21.113.264.115 3.187.13l2.973.016v1.425l-.52.04c-.627.047-4.63-.011-5.933-.086-1.577-.092-2.83-.257-3.893-.513-.762-.184-.996-.32-1.13-.657-.053-.132-.321-2.407-.288-2.44.009-.009.429.035.934.099 1.064.134 1.233.111 1.557-.214.352-.352.39-.878.094-1.294-.203-.285-.451-.361-1.658-.512l-1.121-.14.02-.537c.025-.658.115-.85.487-1.035.227-.113.359-.131 1.252-.169.852-.037 4.165-.134 6.039-.176 1.361-.031 3.625-.032 3.88-.001m5.907.267a1.8 1.8 0 0 0-.286.198c-.07.063-.508.877-.974 1.81-.913 1.829-.934 1.893-.745 2.31.166.364.583.607 1.045.607h.223l-.427.867c-.344.696-.428.914-.429 1.11-.002.48.39.93.865.994.298.04.651-.1.864-.342.092-.106.526-.911.963-1.79.836-1.682.883-1.824.738-2.209-.139-.367-.586-.653-1.024-.655-.139-.001-.253-.013-.253-.026s.179-.386.398-.828c.445-.899.498-1.086.404-1.406-.166-.564-.875-.897-1.362-.64M7.808 23.492c.355.071.771.146.925.166l.28.036v.786H6.987v-.592c0-.528.009-.589.087-.559.048.018.378.092.734.163"/></svg>