<svg width="28" height="28" viewBox="0 0 28 28" fill="none" xmlns="http://www.w3.org/2000/svg"><path d="M10.547 4.017 C 8.263 4.120,7.592 4.271,6.880 4.844 C 6.248 5.353,6.215 5.441,5.201 9.333 C 4.977 10.193,4.784 10.907,4.773 10.920 C 4.762 10.933,4.200 10.954,3.524 10.967 L 2.295 10.990 2.116 11.135 C 1.786 11.402,1.750 11.511,1.750 12.250 C 1.751 12.961,1.779 13.064,2.038 13.309 C 2.235 13.496,2.398 13.541,2.968 13.568 L 3.486 13.592 3.515 14.415 C 3.567 15.839,3.800 17.926,3.972 18.502 C 4.025 18.680,4.133 18.953,4.212 19.108 L 4.355 19.390 4.375 20.650 L 4.395 21.910 4.529 22.203 C 4.704 22.585,5.045 22.919,5.401 23.057 C 5.643 23.150,5.778 23.162,6.743 23.182 C 8.296 23.214,8.772 23.114,9.171 22.673 C 9.477 22.334,9.582 22.033,9.605 21.427 L 9.625 20.896 9.794 20.924 C 9.887 20.939,11.260 20.966,12.845 20.983 L 15.727 21.015 15.727 21.214 C 15.727 21.498,15.843 22.059,15.955 22.321 C 16.251 23.006,16.933 23.641,17.677 23.925 L 17.990 24.044 19.950 24.067 C 21.043 24.080,22.238 24.069,22.650 24.043 C 23.368 23.997,23.402 23.990,23.747 23.821 C 24.023 23.685,24.199 23.551,24.528 23.221 C 25.084 22.666,25.273 22.300,25.339 21.653 C 25.365 21.403,25.385 19.547,25.386 17.399 L 25.387 13.587 25.556 13.531 C 25.756 13.465,26.060 13.203,26.171 13.000 C 26.285 12.793,26.285 11.708,26.172 11.500 C 26.051 11.281,25.812 11.069,25.604 11.000 C 25.422 10.940,25.415 10.929,25.356 10.637 C 25.141 9.571,24.185 8.606,23.100 8.359 L 22.764 8.283 22.678 8.056 C 22.579 7.796,22.482 7.675,22.283 7.568 C 22.165 7.503,21.932 7.489,20.792 7.475 C 19.173 7.455,18.905 7.476,18.710 7.640 C 18.555 7.770,18.387 8.065,18.387 8.206 C 18.387 8.280,18.332 8.306,18.080 8.354 C 17.488 8.466,16.671 8.956,16.314 9.413 C 16.060 9.739,15.810 10.274,15.784 10.546 L 15.761 10.780 14.566 10.781 C 13.303 10.783,9.708 10.847,7.805 10.902 L 6.673 10.934 6.673 10.832 C 6.673 10.727,7.172 8.708,7.527 7.373 C 7.874 6.072,7.935 6.009,8.940 5.906 C 11.285 5.666,16.400 5.655,18.923 5.883 C 19.609 5.946,19.721 5.981,20.086 6.251 C 20.258 6.377,20.471 6.505,20.560 6.535 C 21.034 6.691,21.567 6.302,21.639 5.745 C 21.691 5.346,21.206 4.793,20.509 4.455 C 20.013 4.215,19.199 4.108,17.173 4.014 C 16.025 3.960,11.764 3.963,10.547 4.017 M23.190 10.218 C 23.264 10.270,23.391 10.413,23.472 10.535 L 23.619 10.757 23.604 16.240 C 23.588 22.372,23.618 21.876,23.255 22.153 L 23.084 22.283 20.560 22.283 C 18.613 22.283,18.013 22.270,17.934 22.224 C 17.877 22.192,17.774 22.091,17.704 22.000 C 17.593 21.854,17.573 21.774,17.537 21.312 C 17.514 21.025,17.502 18.533,17.510 15.773 C 17.523 10.962,17.527 10.749,17.612 10.579 C 17.741 10.318,17.979 10.156,18.290 10.118 C 18.433 10.101,19.564 10.094,20.803 10.104 C 22.985 10.122,23.060 10.125,23.190 10.218 M15.412 12.537 L 15.727 12.567 15.727 14.381 L 15.727 16.194 13.594 16.182 L 11.462 16.170 11.405 15.867 C 11.302 15.317,11.186 15.130,10.850 14.975 C 10.501 14.814,10.086 14.909,9.835 15.208 C 9.633 15.448,9.605 15.634,9.687 16.193 C 9.872 17.437,9.950 17.637,10.337 17.843 C 10.520 17.940,10.575 17.943,13.125 17.959 L 15.727 17.975 15.727 18.596 L 15.727 19.218 15.318 19.253 C 14.820 19.295,11.138 19.243,10.078 19.179 C 8.601 19.090,7.244 18.895,6.402 18.651 C 5.980 18.529,5.775 18.379,5.695 18.134 C 5.649 17.991,5.475 16.640,5.452 16.240 C 5.438 15.995,5.333 16.008,6.380 16.124 C 7.176 16.213,7.338 16.185,7.604 15.911 C 7.936 15.569,7.949 15.058,7.634 14.724 C 7.435 14.514,7.175 14.453,5.722 14.276 L 5.260 14.220 5.286 13.765 C 5.316 13.219,5.394 13.028,5.646 12.886 C 5.899 12.744,6.304 12.707,8.283 12.645 C 11.958 12.529,14.865 12.485,15.412 12.537 M20.632 12.795 C 20.375 12.922,20.310 13.025,19.602 14.422 C 18.947 15.715,18.788 16.103,18.823 16.324 C 18.886 16.714,19.252 17.019,19.714 17.066 C 19.857 17.081,19.973 17.097,19.973 17.101 C 19.973 17.106,19.816 17.443,19.623 17.852 C 19.174 18.803,19.162 19.033,19.538 19.420 C 19.871 19.763,20.372 19.761,20.719 19.415 C 20.909 19.224,22.176 16.740,22.267 16.378 C 22.375 15.952,22.202 15.618,21.772 15.417 C 21.642 15.357,21.448 15.307,21.338 15.307 C 21.229 15.307,21.140 15.297,21.140 15.286 C 21.140 15.274,21.276 14.989,21.442 14.653 C 21.851 13.822,21.920 13.596,21.843 13.337 C 21.739 12.989,21.328 12.693,20.948 12.693 C 20.887 12.693,20.745 12.739,20.632 12.795 M7.478 20.674 L 7.887 20.735 7.887 21.078 L 7.887 21.420 7.000 21.420 L 6.113 21.420 6.113 20.938 C 6.113 20.673,6.124 20.445,6.136 20.432 C 6.149 20.420,6.364 20.455,6.615 20.512 C 6.865 20.568,7.254 20.641,7.478 20.674 " fill="#1A1C1F" stroke="none" fill-rule="evenodd"></path></svg>