<svg xmlns="http://www.w3.org/2000/svg" width="32" height="32" fill="none"><g clip-path="url(#a)"><path fill="#1A1C1F" fill-rule="evenodd" d="m26.826 5.218-2.16.449a2.35 2.35 0 0 0-1.857 2.573l1.478 8.137c-1.653.922-3.006 1.984-3.92 3.008-.834.932-1.243 2.18-1.253 3.715H8.832a3.35 3.35 0 1 0-.266 1.7H20c.284 0 .9-.234.847-.925-.135-1.532.14-2.635.787-3.358q1.065-1.192 2.98-2.36l.426 2.277a3.35 3.35 0 1 0 1.668-.328l-2.204-12.02a.65.65 0 0 1 .415-.729l2.253-.475a.85.85 0 0 0 .66-1.005.86.86 0 0 0-1.006-.66M26.5 21.8a1.65 1.65 0 1 1 0 3.3 1.65 1.65 0 0 1 0-3.3m-21 0a1.65 1.65 0 1 1 0 3.3 1.65 1.65 0 0 1 0-3.3M4 16.1a.85.85 0 0 0 0 1.7c3.097 0 4.454.613 5.216 2.472a.85.85 0 1 0 1.573-.644C9.714 17.004 7.713 16.1 4 16.1" clip-rule="evenodd"/></g><defs><clipPath id="a"><path fill="#fff" d="M0 0h32v32H0z"/></clipPath></defs></svg>