<svg xmlns="http://www.w3.org/2000/svg" width="24" height="24" fill="none"><g clip-path="url(#a)"><path fill="#1A1C1F" fill-rule="evenodd" d="M14.75 3a1 1 0 0 1 1 1c0 .514-.402 1-1 1q-3.629.004-7.257 0c-.143 0-.313.133-.358.293L6.26 9H13C13 8 14 7 15 7c-.006-.537.5-1 .993-1H19c.446 0 1 .5 1 1 1 0 2 1 2 2v10c0 1-1 2-2 2h-5c-1 0-2-1-2-2v-1.024A13 13 0 0 1 12 18q-1.404 0-4.75-.286V18a1 1 0 0 1-1 1h-1a1 1 0 0 1-1-1v-1.757a3 3 0 0 1-.395-1.013l-.034-.222-.371-3.222a2.5 2.5 0 0 1 .033-.786h-.835c-.37 0-.648-.322-.648-.69v-.666A.63.63 0 0 1 2.648 9h1.558l.955-4.091C5.407 3.855 6.26 3 7.493 3zm4.75 6h-4c-.245 0-.5.271-.5.5q-.005 4.5 0 9c0 .246.197.5.5.5q2 .005 4 0c.297 0 .5-.254.5-.5v-9c0-.245-.215-.5-.5-.5m-2.196 2.39a.75.75 0 0 1 1.363.62l-.669 1.254h.245c.534.001.93.574.656 1.111q-.443.802-1.227 2.235a.75.75 0 0 1-1.019.296.757.757 0 0 1-.296-1.019q.248-.448.617-1.126h-.232a.753.753 0 0 1-.658-1.106q.608-1.136 1.22-2.265M13 11l-7.096.002-.028.002a.5.5 0 0 0-.442.464l.002.09.059.51 1.17.196a1 1 0 0 1-.213 1.986l-.116-.013-.602-.1.074.643a1 1 0 0 0 .786.863l.115.018.426.039 1.193.102 1.063.081.934.06.805.039.464.014.406.005.406-.005.464-.014.13-.006v-.967H9.855l-.117-.007a1 1 0 0 1-.68-.389 22 22 0 0 1-.42-.705.994.994 0 0 1 .258-1.304c.369-.279 1.086-.31 1.401.193l.135.216L13 13.009z" clip-rule="evenodd"/></g><defs><clipPath id="a"><path fill="#fff" d="M0 0h24v24H0z"/></clipPath></defs></svg>