<svg width="28" height="28" viewBox="0 0 28 28" fill="none" xmlns="http://www.w3.org/2000/svg"><path d="M10.523 4.462 C 10.344 4.470,9.697 4.500,9.087 4.527 C 7.850 4.583,7.604 4.633,7.117 4.924 C 6.963 5.017,6.725 5.201,6.589 5.334 C 6.126 5.787,6.048 6.019,5.131 9.644 L 4.693 11.379 3.502 11.394 C 2.355 11.409,2.304 11.414,2.138 11.517 C 1.877 11.679,1.763 11.959,1.737 12.502 C 1.701 13.251,1.841 13.674,2.193 13.880 C 2.328 13.959,2.457 13.978,2.970 13.993 L 3.586 14.011 3.613 14.390 C 3.832 17.515,3.993 18.951,4.181 19.452 C 4.284 19.729,4.302 19.878,4.343 20.790 C 4.402 22.085,4.431 22.241,4.657 22.457 C 4.946 22.733,4.988 22.743,5.928 22.765 C 7.052 22.790,7.261 22.750,7.559 22.452 C 7.821 22.191,7.887 21.977,7.887 21.395 L 7.887 20.991 8.155 21.020 C 9.030 21.115,11.575 21.244,13.516 21.290 L 15.762 21.344 15.818 21.593 C 16.001 22.408,16.695 23.166,17.547 23.479 L 17.850 23.590 20.557 23.590 L 23.263 23.590 23.579 23.481 C 24.376 23.206,24.990 22.558,25.295 21.671 C 25.383 21.417,25.387 21.257,25.387 18.018 C 25.387 16.154,25.401 14.494,25.417 14.327 L 25.447 14.023 25.672 13.916 C 25.916 13.799,26.134 13.555,26.219 13.305 C 26.289 13.101,26.289 12.314,26.220 12.083 C 26.142 11.824,25.934 11.597,25.642 11.454 C 25.444 11.357,25.387 11.305,25.387 11.223 C 25.387 11.019,25.147 10.288,24.999 10.040 C 24.625 9.416,23.873 8.913,23.157 8.810 L 22.771 8.754 22.719 8.580 C 22.690 8.484,22.605 8.330,22.529 8.238 C 22.275 7.930,22.218 7.917,21.010 7.895 C 19.584 7.870,18.996 7.909,18.800 8.043 C 18.613 8.170,18.492 8.332,18.412 8.565 C 18.350 8.748,18.348 8.748,18.006 8.802 C 17.342 8.907,16.813 9.197,16.388 9.688 C 16.124 9.993,15.877 10.501,15.811 10.873 C 15.782 11.040,15.745 11.192,15.730 11.210 C 15.708 11.236,8.748 11.353,6.697 11.362 L 6.277 11.363 6.290 11.233 C 6.305 11.091,7.145 7.794,7.368 7.000 C 7.492 6.558,7.525 6.493,7.702 6.335 C 7.810 6.239,7.974 6.140,8.067 6.115 C 8.806 5.918,13.067 5.826,16.777 5.928 C 18.879 5.986,19.830 6.045,20.035 6.130 C 20.121 6.166,20.299 6.291,20.431 6.409 C 20.849 6.780,21.220 6.811,21.530 6.501 C 21.743 6.288,21.823 6.024,21.750 5.779 C 21.677 5.534,21.220 5.093,20.824 4.885 C 20.388 4.656,20.081 4.586,19.250 4.525 C 18.606 4.477,11.304 4.424,10.523 4.462 M23.345 10.438 C 23.446 10.508,23.594 10.661,23.675 10.777 C 23.815 10.981,23.823 11.016,23.853 11.597 C 23.895 12.408,23.894 18.141,23.851 19.927 C 23.813 21.519,23.805 21.558,23.483 21.849 C 23.163 22.138,23.142 22.140,20.533 22.142 C 18.471 22.143,18.156 22.134,18.013 22.069 C 17.779 21.962,17.551 21.757,17.399 21.517 L 17.267 21.308 17.270 16.336 C 17.272 13.601,17.289 11.253,17.309 11.117 C 17.347 10.846,17.442 10.693,17.701 10.483 C 17.948 10.283,18.165 10.270,20.833 10.292 L 23.162 10.311 23.345 10.438 M20.740 12.972 C 20.686 12.993,20.586 13.078,20.517 13.160 C 20.350 13.359,19.148 15.784,19.076 16.069 C 19.024 16.274,19.028 16.310,19.117 16.466 C 19.269 16.729,19.463 16.819,19.941 16.846 L 20.352 16.870 19.952 17.683 C 19.437 18.731,19.423 18.779,19.544 19.052 C 19.659 19.312,19.814 19.421,20.111 19.449 C 20.316 19.469,20.351 19.457,20.503 19.314 C 20.687 19.141,21.151 18.295,21.727 17.082 C 22.112 16.270,22.146 16.121,22.002 15.877 C 21.865 15.645,21.680 15.569,21.198 15.548 C 20.961 15.537,20.767 15.523,20.767 15.515 C 20.767 15.508,20.957 15.114,21.190 14.640 C 21.423 14.167,21.625 13.697,21.638 13.598 C 21.693 13.175,21.158 12.803,20.740 12.972 M6.475 14.981 C 8.174 15.174,8.326 15.217,8.500 15.541 C 8.763 16.031,8.406 16.611,7.840 16.613 C 7.528 16.614,5.994 16.433,5.657 16.355 C 5.313 16.276,5.154 16.181,5.061 16.002 C 4.979 15.844,4.975 15.416,5.053 15.276 C 5.143 15.116,5.451 14.903,5.612 14.890 C 5.631 14.888,6.020 14.929,6.475 14.981 M11.232 15.700 C 11.512 15.831,11.623 16.004,11.711 16.450 C 11.742 16.604,11.777 16.767,11.790 16.812 C 11.811 16.888,11.946 16.893,13.770 16.893 L 15.727 16.893 15.727 17.640 L 15.727 18.387 13.428 18.386 C 12.012 18.386,11.064 18.368,10.959 18.339 C 10.682 18.262,10.524 18.037,10.414 17.562 C 10.279 16.983,10.202 16.374,10.238 16.180 C 10.278 15.971,10.416 15.795,10.633 15.681 C 10.857 15.563,10.942 15.565,11.232 15.700 " fill="#1A1C1F" stroke="none" fill-rule="evenodd"></path></svg>