<svg xmlns="http://www.w3.org/2000/svg" width="12" height="12" fill="none"><g clip-path="url(#a)"><path fill="#1A1C1F" fill-rule="evenodd" d="M6.6 1.195a.6.6 0 0 1 0 1.2H3.936c-.06 0-.101.046-.115.097q-.039.167-.375 1.703h2.01c.117-.318.476-.6.844-.6q.151-.003.3 0a.574.574 0 0 1 .6-.6H9c.3 0 .6.3.596.61l.304.001c.468 0 .9.375.9.889v5.4c0 .467-.37.899-.9.9q-1.8.001-3.6.011a.907.907 0 0 1-.9-.9V8.395a35 35 0 0 1-1.8-.189v.789H2.1V7.183a3 3 0 0 1-.075-.33q-.084-.729-.163-1.458H1.59c-.222 0-.389-.193-.389-.414v-.4c0-.221.167-.386.389-.386h.629l.431-1.961c.124-.565.596-1.038 1.226-1.04zm3 3.611h-3v4.8h3zm-1.658.841a.45.45 0 0 1 .605-.195.445.445 0 0 1 .196.605q-.132.26-.35.682l.165-.001a.45.45 0 0 1 .395.67L8.186 8.77a.45.45 0 1 1-.784-.442l.385-.684-.128.002a.448.448 0 0 1-.404-.655q.147-.283.687-1.343m-4.39-.24a.45.45 0 0 0-.262.858l.936.22a.45.45 0 0 0 .26-.859z" clip-rule="evenodd"/></g><defs><clipPath id="a"><path fill="#fff" d="M0 0h12v12H0z"/></clipPath></defs></svg>