<svg width="20" height="20" viewBox="0 0 20 20" fill="none" xmlns="http://www.w3.org/2000/svg"><path d="M14.250 2.381 C 13.808 2.500,12.914 2.819,12.749 2.915 C 12.406 3.116,12.102 3.649,12.100 4.050 C 12.100 4.135,13.505 10.706,13.549 10.824 C 13.558 10.849,13.445 10.923,13.257 11.013 C 11.960 11.637,11.085 12.671,10.567 14.193 L 10.417 14.633 8.296 14.633 L 6.175 14.633 6.007 14.403 C 5.703 13.987,5.198 13.641,4.733 13.530 C 4.483 13.471,3.996 13.478,3.733 13.545 C 3.376 13.637,3.062 13.811,2.806 14.059 C 2.517 14.342,2.362 14.578,2.245 14.917 C 2.163 15.153,2.153 15.230,2.154 15.600 C 2.155 15.962,2.166 16.049,2.241 16.258 C 2.440 16.819,2.800 17.228,3.316 17.480 C 3.638 17.637,3.907 17.700,4.256 17.700 C 4.612 17.700,4.865 17.640,5.200 17.478 C 5.528 17.319,5.968 16.887,6.134 16.561 L 6.248 16.339 8.766 16.327 C 11.546 16.314,11.381 16.327,11.667 16.100 C 11.836 15.966,11.911 15.801,12.030 15.300 C 12.259 14.335,12.571 13.702,13.064 13.203 C 13.386 12.877,13.882 12.551,13.933 12.633 C 13.946 12.654,14.029 12.986,14.116 13.369 L 14.274 14.065 14.138 14.219 C 13.954 14.428,13.853 14.608,13.744 14.920 C 13.663 15.154,13.653 15.230,13.654 15.600 C 13.655 15.962,13.666 16.049,13.741 16.258 C 13.939 16.816,14.303 17.230,14.815 17.479 C 15.137 17.636,15.407 17.700,15.750 17.700 C 16.495 17.700,17.209 17.291,17.585 16.650 C 17.826 16.239,17.923 15.618,17.822 15.141 C 17.651 14.343,16.967 13.678,16.146 13.513 L 15.879 13.460 15.837 13.255 C 15.814 13.142,15.369 11.101,14.848 8.718 C 14.326 6.336,13.900 4.368,13.900 4.346 C 13.900 4.306,14.011 4.259,14.759 3.984 C 15.059 3.873,15.121 3.837,15.251 3.692 C 15.620 3.281,15.548 2.762,15.075 2.423 C 14.881 2.284,14.652 2.272,14.250 2.381 M3.645 10.401 C 3.444 10.463,3.224 10.642,3.135 10.816 C 3.067 10.948,3.050 11.030,3.051 11.216 C 3.052 11.486,3.117 11.648,3.294 11.825 C 3.480 12.011,3.565 12.031,4.274 12.053 C 4.652 12.064,4.999 12.093,5.116 12.121 C 5.393 12.188,5.762 12.395,6.117 12.682 C 6.282 12.815,6.465 12.949,6.524 12.979 C 6.904 13.173,7.416 12.996,7.616 12.601 C 7.820 12.198,7.739 11.889,7.324 11.491 C 6.861 11.046,6.173 10.652,5.554 10.477 C 5.276 10.399,5.185 10.390,4.500 10.380 C 4.079 10.374,3.704 10.383,3.645 10.401 " fill="#1A1C1F" stroke="none" fill-rule="evenodd"></path></svg>