<svg width="16" height="16" viewBox="0 0 16 16" fill="none" xmlns="http://www.w3.org/2000/svg"><path d="M11.400 1.905 C 11.047 2.000,10.331 2.255,10.199 2.332 C 9.890 2.514,9.644 2.995,9.691 3.329 C 9.701 3.397,9.964 4.633,10.276 6.075 L 10.843 8.696 10.599 8.813 C 9.575 9.305,8.855 10.158,8.449 11.364 L 8.333 11.707 6.637 11.707 L 4.940 11.707 4.805 11.522 C 4.563 11.190,4.158 10.913,3.787 10.824 C 3.585 10.776,3.196 10.783,2.988 10.837 C 2.694 10.913,2.449 11.049,2.246 11.247 C 2.013 11.473,1.889 11.662,1.796 11.933 C 1.731 12.123,1.722 12.184,1.723 12.480 C 1.724 12.769,1.733 12.839,1.792 13.006 C 1.952 13.455,2.240 13.783,2.652 13.984 C 2.911 14.110,3.126 14.160,3.405 14.160 C 3.689 14.160,3.892 14.112,4.160 13.982 C 4.422 13.855,4.774 13.510,4.907 13.250 L 4.997 13.074 6.999 13.060 C 9.193 13.046,9.116 13.052,9.329 12.883 C 9.466 12.775,9.529 12.642,9.613 12.280 C 9.795 11.500,10.068 10.944,10.461 10.551 C 10.718 10.295,11.107 10.042,11.147 10.107 C 11.157 10.124,11.223 10.389,11.293 10.695 L 11.420 11.251 11.311 11.375 C 11.163 11.542,11.083 11.686,10.996 11.936 C 10.931 12.123,10.922 12.184,10.923 12.480 C 10.924 12.769,10.933 12.839,10.992 13.006 C 11.151 13.453,11.442 13.784,11.852 13.983 C 12.110 14.109,12.325 14.160,12.600 14.160 C 13.679 14.160,14.479 13.162,14.254 12.099 C 14.124 11.483,13.575 10.950,12.932 10.815 L 12.707 10.768 12.538 9.990 C 12.445 9.563,12.088 7.930,11.745 6.362 C 11.401 4.794,11.120 3.496,11.120 3.477 C 11.120 3.445,11.208 3.408,11.807 3.187 C 12.047 3.099,12.097 3.069,12.201 2.953 C 12.496 2.625,12.438 2.210,12.060 1.938 C 11.904 1.827,11.722 1.818,11.400 1.905 M2.916 8.321 C 2.755 8.370,2.579 8.514,2.508 8.653 C 2.454 8.758,2.440 8.824,2.441 8.973 C 2.442 9.189,2.494 9.318,2.636 9.460 C 2.785 9.610,2.855 9.626,3.421 9.643 C 3.724 9.652,3.998 9.674,4.093 9.697 C 4.314 9.750,4.610 9.916,4.893 10.145 C 5.025 10.252,5.172 10.359,5.220 10.384 C 5.533 10.544,5.962 10.384,6.103 10.055 C 6.199 9.832,6.204 9.709,6.123 9.532 C 5.938 9.128,5.132 8.576,4.443 8.382 C 4.221 8.319,4.148 8.312,3.600 8.304 C 3.263 8.299,2.963 8.307,2.916 8.321 " fill="#1A1C1F" stroke="none" fill-rule="evenodd"></path></svg>