<svg xmlns="http://www.w3.org/2000/svg" width="28" height="28" fill="none"><g clip-path="url(#a)"><path fill="#1A1C1F" fill-rule="evenodd" d="m23.446 4.503-1.89.393a2.19 2.19 0 0 0-1.729 2.395l1.278 6.906c-1.454.843-2.572 1.705-3.382 2.612-.728.815-1.097 1.893-1.127 3.207H7.844a3.063 3.063 0 1 0-.264 1.751h9.92c.271 0 .906-.209.872-.952-.115-1.308.117-2.238.656-2.84.581-.65 1.387-1.3 2.416-1.94l.319 1.707a3.062 3.062 0 1 0 1.717-.337L21.57 7.118a.44.44 0 0 1 .267-.486l1.965-.415c.473-.099.78-.612.673-1.055a.87.87 0 0 0-1.029-.659m-.259 14.638a1.312 1.312 0 1 1 .001 2.625 1.312 1.312 0 0 1 0-2.625m-18.374 0a1.312 1.312 0 1 1 0 2.625 1.312 1.312 0 0 1 0-2.625M3.5 13.891a.875.875 0 1 0 0 1.75c2.662 0 3.8.514 4.441 2.082a.875.875 0 0 0 1.62-.663C8.598 14.705 6.797 13.89 3.5 13.89" clip-rule="evenodd"/></g><defs><clipPath id="a"><path fill="#fff" d="M0 0h28v28H0z"/></clipPath></defs></svg>