<svg width="20" height="20" viewBox="0 0 20 20" fill="none" xmlns="http://www.w3.org/2000/svg"><path d="M6.333 2.031 C 5.940 2.050,5.902 2.058,5.651 2.177 C 5.241 2.372,4.987 2.594,4.732 2.978 C 4.558 3.240,4.492 3.428,4.336 4.107 C 4.215 4.629,3.770 6.633,3.718 6.888 L 3.696 6.993 3.073 7.006 C 2.359 7.021,2.256 7.050,2.106 7.277 C 2.022 7.403,2.017 7.438,2.005 7.881 C 1.990 8.457,2.021 8.589,2.212 8.781 C 2.376 8.944,2.546 9.000,2.881 9.000 C 3.002 9.000,3.100 9.007,3.100 9.015 C 3.100 9.089,3.349 11.160,3.388 11.417 C 3.486 12.049,3.496 12.255,3.498 13.625 L 3.500 15.000 4.750 15.000 L 6.000 15.000 6.000 14.350 C 6.000 13.732,6.003 13.700,6.064 13.700 C 6.099 13.700,6.380 13.730,6.689 13.766 C 6.997 13.802,7.573 13.862,7.967 13.899 C 8.361 13.936,8.753 13.975,8.839 13.986 L 8.994 14.005 9.007 15.428 C 9.019 16.785,9.023 16.858,9.091 17.027 C 9.243 17.405,9.635 17.788,10.019 17.931 C 10.200 17.999,10.251 18.000,13.326 17.999 C 15.099 17.998,16.555 17.984,16.694 17.966 C 17.042 17.921,17.307 17.785,17.561 17.520 C 17.828 17.242,17.934 17.014,17.972 16.635 C 17.988 16.476,17.997 14.270,17.992 11.731 L 17.983 7.117 17.871 6.893 C 17.727 6.606,17.414 6.301,17.127 6.167 C 16.913 6.068,16.529 6.000,16.180 6.000 C 16.008 6.000,16.007 6.000,15.984 5.877 C 15.922 5.544,15.676 5.239,15.341 5.080 L 15.151 4.990 13.416 5.007 C 11.741 5.024,11.677 5.027,11.545 5.094 C 11.470 5.132,11.365 5.200,11.311 5.246 C 11.188 5.349,11.028 5.672,11.007 5.858 L 10.991 6.000 10.718 6.000 C 10.352 6.000,10.094 6.052,9.852 6.174 C 9.616 6.293,9.287 6.613,9.167 6.842 L 9.083 7.000 7.412 7.000 L 5.740 7.000 5.768 6.875 C 6.126 5.259,6.351 4.290,6.396 4.168 L 6.452 4.017 8.834 4.000 C 11.180 3.984,11.219 3.982,11.371 3.912 C 12.007 3.618,12.186 2.838,11.736 2.325 C 11.677 2.258,11.538 2.157,11.426 2.102 L 11.223 2.000 8.986 2.006 C 7.756 2.009,6.563 2.020,6.333 2.031 M16.000 12.000 L 16.000 16.000 13.500 16.000 L 11.000 16.000 11.000 12.000 L 11.000 8.000 13.500 8.000 L 16.000 8.000 16.000 12.000 M6.428 9.136 C 7.597 9.396,7.637 9.411,7.817 9.664 C 7.908 9.794,7.917 9.829,7.917 10.080 C 7.917 10.323,7.906 10.371,7.826 10.492 C 7.693 10.693,7.464 10.817,7.234 10.812 C 6.854 10.804,5.418 10.439,5.266 10.311 C 5.114 10.183,5.033 9.979,5.033 9.721 C 5.033 9.394,5.153 9.214,5.467 9.067 C 5.649 8.982,5.779 8.992,6.428 9.136 M13.693 9.038 C 13.419 9.115,13.319 9.254,12.778 10.304 C 12.098 11.625,12.017 11.808,12.019 12.022 C 12.020 12.153,12.044 12.232,12.119 12.354 C 12.269 12.596,12.440 12.701,12.729 12.728 L 12.968 12.750 12.712 13.200 C 12.328 13.876,12.258 14.040,12.260 14.254 C 12.265 14.860,12.947 15.206,13.425 14.845 C 13.545 14.754,13.941 14.107,14.546 13.013 C 15.012 12.168,15.056 12.057,15.002 11.845 C 14.907 11.467,14.592 11.234,14.175 11.234 C 14.097 11.233,14.033 11.219,14.033 11.202 C 14.033 11.184,14.171 10.893,14.339 10.553 C 14.618 9.989,14.644 9.919,14.644 9.743 C 14.644 9.523,14.589 9.397,14.428 9.245 C 14.213 9.043,13.945 8.968,13.693 9.038 " fill="#1A1C1F" stroke="none" fill-rule="evenodd"></path></svg>