<svg xmlns="http://www.w3.org/2000/svg" width="32" height="32" fill="none"><path fill="#1A1C1F" fill-rule="evenodd" d="M25.633 5.388c-1.307.278-1.524.346-1.87.583-.698.481-1.106 1.227-1.107 2.028-.001.222.263 1.767.725 4.256.399 2.149.725 3.925.725 3.946s-.234.18-.52.353c-.621.376-1.436.945-1.986 1.387-.579.466-1.438 1.339-1.704 1.732-.501.744-.826 1.723-.891 2.687l-.034.52H8.969l-.057-.266c-.276-1.286-1.346-2.353-2.652-2.644-.52-.116-1.331-.081-1.833.077-.842.267-1.644.95-2.023 1.725-.289.59-.383.979-.386 1.588-.004.993.306 1.739 1.021 2.456.485.487.826.699 1.468.913.311.104.479.124 1.013.121.556-.002.696-.022 1.067-.15.863-.299 1.599-.905 1.967-1.62l.089-.173h5.67c6.056 0 5.946.004 6.317-.26.303-.215.351-.411.358-1.447.008-1.074.078-1.453.386-2.08.247-.503.984-1.259 1.879-1.928.628-.469 1.225-.868 1.25-.836.028.034.363 1.916.343 1.929l-.257.165c-1.159.744-1.794 2.224-1.525 3.553.356 1.755 1.889 2.963 3.629 2.859.908-.054 1.595-.371 2.268-1.046.715-.717 1.025-1.463 1.021-2.456a3.2 3.2 0 0 0-.352-1.52 3.46 3.46 0 0 0-2.398-1.875 5 5 0 0 1-.387-.089c-.02-.02-2.205-11.812-2.205-11.898 0-.046.066-.153.147-.24.135-.144.24-.176 1.346-.406 1.291-.268 1.495-.349 1.698-.678a.98.98 0 0 0-.087-1.17c-.165-.196-.505-.363-.731-.359-.088.002-.709.12-1.38.263M3.6 15.965c-.329.156-.61.57-.612.903-.003.353.342.842.661.94.091.028.524.065.964.084 2.497.106 3.599.633 4.317 2.061.286.569.45.765.709.851.417.138.823.038 1.101-.27.337-.373.328-.767-.035-1.514-.842-1.734-2.227-2.659-4.492-2.998-.792-.118-2.409-.153-2.613-.057m2.581 6.085c.504.256.806.766.806 1.364 0 .606-.452 1.211-1.035 1.386-1.289.386-2.403-.992-1.744-2.158a1.484 1.484 0 0 1 1.973-.592m20.74-.102a1.48 1.48 0 0 1 .681 2.412c-.711.791-1.952.631-2.423-.311a1.497 1.497 0 0 1 1.305-2.177c.09-.003.287.031.437.076"/></svg>