<svg xmlns="http://www.w3.org/2000/svg" width="12" height="12" fill="none"><g clip-path="url(#a)"><path fill="#1A1C1F" fill-rule="evenodd" d="m9.127 1.3-1.24.375a.9.9 0 0 0-.635.953l.696 3.497c-.574.37-1.066.823-1.378 1.24a2.8 2.8 0 0 0-.523 1.26H4.075a1.5 1.5 0 1 0 0 1.2H6.6a.6.6 0 0 0 .6-.6c0-.476.112-.85.33-1.14q.246-.329.676-.667l.132.656a1.5 1.5 0 1 0 1.157-.337l-1-4.992.979-.296c.294-.088.507-.44.4-.747-.106-.308-.418-.5-.747-.401M9.3 8.926a.3.3 0 1 1 0 .6.3.3 0 0 1 0-.6m-6.6 0a.3.3 0 1 1 0 .6.3.3 0 0 1 0-.6m1.917-2.232c-.69-.666-1.469-.897-2.313-.76a.6.6 0 0 0 .192 1.184c.477-.077.874.04 1.287.44a.6.6 0 1 0 .834-.864" clip-rule="evenodd"/></g><defs><clipPath id="a"><path fill="#fff" d="M0 0h12v12H0z"/></clipPath></defs></svg>