<svg width="20" height="20" viewBox="0 0 20 20" fill="none" xmlns="http://www.w3.org/2000/svg"><path d="M13.575 3.117 C 13.235 3.290,13.033 3.619,13.033 4.000 C 13.033 4.291,13.117 4.489,13.331 4.702 C 13.530 4.901,13.700 4.970,14.102 5.015 C 14.418 5.051,14.775 5.257,14.883 5.466 C 14.990 5.674,15.076 6.232,15.615 10.264 C 15.792 11.585,15.887 12.392,15.868 12.415 C 15.851 12.436,15.534 12.609,15.163 12.801 C 14.405 13.193,14.177 13.366,14.078 13.625 C 13.957 13.943,14.017 14.339,14.228 14.618 C 14.389 14.831,14.594 14.934,14.942 14.977 L 15.217 15.011 16.355 14.438 C 17.634 13.796,17.761 13.708,17.916 13.363 C 17.999 13.177,18.007 13.131,17.989 12.917 C 17.937 12.302,17.020 5.717,16.918 5.230 C 16.810 4.709,16.390 4.054,15.929 3.687 C 15.618 3.439,15.349 3.293,14.967 3.163 C 14.687 3.069,14.597 3.055,14.200 3.042 C 13.765 3.029,13.744 3.031,13.575 3.117 M3.083 7.029 C 2.764 7.047,2.655 7.066,2.544 7.125 C 2.145 7.337,1.930 7.801,2.032 8.228 C 2.116 8.578,2.448 8.899,2.801 8.972 L 2.991 9.011 3.008 10.381 C 3.025 11.744,3.026 11.751,3.113 12.020 C 3.212 12.327,3.367 12.553,3.576 12.692 C 3.759 12.815,3.835 12.846,4.164 12.935 L 4.437 13.008 8.077 12.991 C 12.012 12.971,11.829 12.980,12.243 12.791 C 12.599 12.628,12.799 12.368,12.917 11.917 C 12.956 11.767,12.977 11.418,13.000 10.533 C 13.017 9.883,13.032 9.275,13.032 9.183 L 13.033 9.016 13.208 8.974 C 13.544 8.894,13.832 8.628,13.946 8.291 C 14.096 7.847,13.898 7.366,13.471 7.138 L 13.269 7.031 8.376 7.019 C 5.685 7.012,3.303 7.017,3.083 7.029 M11.000 10.000 L 11.000 11.000 8.000 11.000 L 5.000 11.000 5.000 10.000 L 5.000 9.000 8.000 9.000 L 11.000 9.000 11.000 10.000 M4.219 14.035 C 3.838 14.099,3.361 14.449,3.186 14.794 C 2.979 15.203,2.953 15.615,3.107 16.029 C 3.244 16.393,3.601 16.752,3.972 16.896 C 4.268 17.012,4.731 17.015,5.008 16.905 C 5.736 16.615,6.152 15.814,5.939 15.111 C 5.762 14.527,5.313 14.130,4.723 14.034 C 4.491 13.996,4.451 13.996,4.219 14.035 M11.219 14.035 C 10.838 14.099,10.361 14.449,10.186 14.794 C 9.979 15.203,9.953 15.615,10.107 16.029 C 10.244 16.393,10.601 16.752,10.972 16.896 C 11.268 17.012,11.731 17.015,12.008 16.905 C 12.736 16.615,13.152 15.814,12.939 15.111 C 12.762 14.527,12.313 14.130,11.723 14.034 C 11.491 13.996,11.451 13.996,11.219 14.035 M7.291 14.799 C 7.008 14.854,6.767 15.171,6.767 15.490 C 6.767 15.797,6.884 15.995,7.165 16.160 C 7.308 16.245,7.337 16.248,7.933 16.261 C 8.829 16.280,9.032 16.223,9.256 15.890 C 9.506 15.518,9.408 15.118,9.002 14.861 L 8.854 14.767 8.135 14.770 C 7.740 14.773,7.360 14.785,7.291 14.799 " fill="#1A1C1F" stroke="none" fill-rule="evenodd"></path></svg>