<svg xmlns="http://www.w3.org/2000/svg" width="24" height="24" fill="none"><g clip-path="url(#a)"><path fill="#1A1C1F" fill-rule="evenodd" d="M4.986 16a2 2 0 1 1 0 4 2 2 0 0 1 0-4m10 0a2 2 0 1 1 0 4 2 2 0 0 1 0-4m-3.553.606a1 1 0 0 1-.787 1.835 1.5 1.5 0 0 0-.66-.171q-.308 0-.553.124a1 1 0 1 1-.894-1.788 3.24 3.24 0 0 1 2.894 0M18.01 4c1.137 0 2.117.776 2.388 1.865l1.597 8.96c.104.569-.245.953-.733 1.143l-2.409.96a1 1 0 0 1-.742-1.857l1.77-.708-1.417-7.983a.46.46 0 0 0-.454-.38 1 1 0 1 1 0-2m-1.025 5a1 1 0 0 1 1 1c0 .513-.349.993-1 1l-.005 1.71c-.074 1.2-.947 2.2-2.1 2.284H4.992c-.992 0-2.001-1.203-2.001-2.284l-.005-1.717c-.57 0-1-.48-1-.993s.415-1 .999-1zm-2.001 2h-10v1.499c0 .318.2.501.5.501h9.002a.52.52 0 0 0 .499-.501z" clip-rule="evenodd"/></g><defs><clipPath id="a"><path fill="#fff" d="M0 0h24v24H0z"/></clipPath></defs></svg>