<svg xmlns="http://www.w3.org/2000/svg" width="32" height="32" fill="none"><g clip-path="url(#a)"><path fill="#1A1C1F" fill-rule="evenodd" d="M7 21.5a3 3 0 1 1 0 6 3 3 0 0 1 0-6m13 0a3 3 0 1 1 0 6 3 3 0 0 1 0-6m-13 2a1 1 0 1 0 0 2 1 1 0 0 0 0-2m13 0a1 1 0 1 0 0 2 1 1 0 0 0 0-2m-4.446-.832a1 1 0 0 1-1.009 1.723 1.85 1.85 0 0 0-1.01-.336 1.64 1.64 0 0 0-.981.277 1 1 0 0 1-1.11-1.664 3.7 3.7 0 0 1 4.11 0M24.999 4.5c1.356 0 2.516.95 2.795 2.261q2.097 13.965 2.194 14.59c.098.628-.41 1.038-.746 1.12q-.336.08-4 1a1 1 0 0 1-1.213-.729 1.01 1.01 0 0 1 .728-1.212l3.118-.781-2.027-13.518a.86.86 0 0 0-.849-.731 1 1 0 1 1 0-2m-1 8a1 1 0 0 1 1 1c0 .513-.425 1-1.004 1v2.997c-.084 1.599-1.286 2.907-2.823 2.998H5.827c-1.538-.091-2.74-1.4-2.823-2.998L2.999 14.5a1 1 0 0 1-1-1c0-.513.433-1 1-1zm-2 2H5l.006 2.95c.053.562.542.986.994 1.043h15.106c.452-.057.836-.481.888-1.043z" clip-rule="evenodd"/></g><defs><clipPath id="a"><path fill="#fff" d="M0 0h32v32H0z"/></clipPath></defs></svg>