<svg xmlns="http://www.w3.org/2000/svg" width="28" height="28" fill="none"><g clip-path="url(#a)"><path fill="#1A1C1F" fill-rule="evenodd" d="M6.121 18.944a2.494 2.494 0 1 1 0 4.987 2.494 2.494 0 0 1 0-4.987m11.375 0a2.494 2.494 0 1 1 0 4.987 2.494 2.494 0 0 1 0-4.987M6.121 20.43a1.006 1.006 0 1 0 0 2.013 1.006 1.006 0 0 0 0-2.013m11.375 0a1.006 1.006 0 1 0 0 2.013 1.006 1.006 0 0 0 0-2.013m-3.962-.487a.744.744 0 0 1-.825 1.237 1.62 1.62 0 0 0-1.8 0 .744.744 0 1 1-.825-1.237 3.11 3.11 0 0 1 3.45 0m8.337-15.875a2.37 2.37 0 0 1 2.316 1.868l1.923 12.787q.096.633-.558.81-.576.138-3.5.875a.744.744 0 0 1-.45-1.415l2.933-.74-1.791-11.947a.88.88 0 0 0-.873-.75.744.744 0 0 1 0-1.488m-.875 7.744a.744.744 0 1 1 0 1.487v2.012c0 1.452-1.232 2.626-2.625 2.626H5.246c-1.392 0-2.625-1.174-2.625-2.625V13.3a.753.753 0 0 1-.743-.744c0-.379.305-.743.743-.743z" clip-rule="evenodd"/></g><defs><clipPath id="a"><path fill="#fff" d="M0 0h28v28H0z"/></clipPath></defs></svg>