<svg width="12" height="12" viewBox="0 0 12 12" fill="none" xmlns="http://www.w3.org/2000/svg"><path d="M8.145 1.870 C 7.941 1.974,7.820 2.171,7.820 2.400 C 7.820 2.575,7.870 2.693,7.999 2.821 C 8.118 2.940,8.220 2.982,8.461 3.009 C 8.651 3.031,8.865 3.154,8.930 3.280 C 8.994 3.404,9.045 3.739,9.369 6.159 C 9.475 6.951,9.532 7.435,9.521 7.449 C 9.510 7.461,9.320 7.566,9.098 7.681 C 8.643 7.916,8.506 8.020,8.447 8.175 C 8.374 8.366,8.410 8.603,8.537 8.771 C 8.633 8.899,8.756 8.960,8.965 8.986 L 9.130 9.006 9.813 8.663 C 10.580 8.277,10.656 8.225,10.749 8.018 C 10.799 7.906,10.804 7.878,10.793 7.750 C 10.762 7.380,10.211 3.427,10.150 3.134 C 10.086 2.825,9.832 2.431,9.558 2.212 C 9.371 2.064,9.210 1.976,8.980 1.898 C 8.812 1.841,8.758 1.833,8.520 1.825 C 8.259 1.817,8.247 1.819,8.145 1.870 M1.850 4.217 C 1.658 4.228,1.593 4.240,1.526 4.275 C 1.354 4.366,1.229 4.549,1.206 4.741 C 1.172 5.029,1.391 5.322,1.685 5.384 L 1.795 5.407 1.805 6.229 C 1.815 7.033,1.816 7.053,1.864 7.202 C 1.923 7.383,2.013 7.520,2.127 7.603 C 2.230 7.678,2.298 7.707,2.501 7.762 L 2.662 7.805 4.846 7.794 C 7.208 7.783,7.097 7.789,7.346 7.675 C 7.559 7.577,7.680 7.421,7.750 7.150 C 7.773 7.061,7.786 6.847,7.800 6.320 C 7.810 5.930,7.819 5.565,7.819 5.510 L 7.820 5.409 7.920 5.386 C 7.974 5.373,8.064 5.333,8.119 5.296 C 8.503 5.045,8.484 4.497,8.084 4.284 L 7.964 4.220 5.027 4.212 C 3.412 4.207,1.982 4.210,1.850 4.217 M6.600 6.000 L 6.600 6.600 4.800 6.600 L 3.000 6.600 3.000 6.000 L 3.000 5.400 4.800 5.400 L 6.600 5.400 6.600 6.000 M2.540 8.419 C 2.411 8.442,2.313 8.488,2.170 8.590 C 2.023 8.694,1.924 8.822,1.859 8.990 C 1.791 9.164,1.793 9.440,1.862 9.617 C 1.949 9.838,2.162 10.052,2.383 10.138 C 2.561 10.207,2.838 10.209,3.005 10.143 C 3.240 10.049,3.451 9.839,3.542 9.605 C 3.607 9.440,3.607 9.156,3.543 8.996 C 3.444 8.747,3.239 8.545,3.000 8.462 C 2.868 8.416,2.663 8.397,2.540 8.419 M6.740 8.419 C 6.611 8.442,6.513 8.488,6.370 8.590 C 6.223 8.694,6.124 8.822,6.059 8.990 C 5.991 9.164,5.993 9.440,6.062 9.617 C 6.149 9.838,6.362 10.052,6.583 10.138 C 6.761 10.207,7.038 10.209,7.205 10.143 C 7.440 10.049,7.651 9.839,7.742 9.605 C 7.807 9.440,7.807 9.156,7.743 8.996 C 7.644 8.747,7.439 8.545,7.200 8.462 C 7.068 8.416,6.863 8.397,6.740 8.419 M4.374 8.879 C 4.205 8.912,4.060 9.103,4.060 9.294 C 4.060 9.478,4.130 9.597,4.299 9.696 C 4.385 9.747,4.402 9.749,4.760 9.757 C 5.297 9.768,5.419 9.734,5.554 9.534 C 5.704 9.311,5.645 9.071,5.401 8.917 L 5.312 8.860 4.881 8.862 C 4.644 8.864,4.416 8.871,4.374 8.879 " fill="#1A1C1F" stroke="none" fill-rule="evenodd"></path></svg>