<svg xmlns="http://www.w3.org/2000/svg" width="12" height="12" fill="none"><g clip-path="url(#a)"><path fill="#1A1C1F" fill-rule="evenodd" d="M2.7 8.4a.9.9 0 1 1 0 1.8.9.9 0 0 1 0-1.8m4.2 0a.9.9 0 1 1 0 1.8.9.9 0 0 1 0-1.8m-1.713.45a.45.45 0 1 1 0 .9H4.5a.45.45 0 0 1-.45-.45c0-.228.191-.45.45-.45zM8.422 1.8a1.8 1.8 0 0 1 1.766 1.453l.607 4.467a.61.61 0 0 1-.325.616l-1.201.6a.6.6 0 0 1-.805-.268.606.606 0 0 1 .268-.805l.815-.408-.53-3.935A.596.596 0 0 0 8.4 3a.6.6 0 1 1 .022-1.2M7.8 4.2a.6.6 0 0 1 .01 1.2L7.8 6.6c.01.928-.282 1.2-1.2 1.199H2.998C2.056 7.8 1.8 7.509 1.8 6.6V5.396a.597.597 0 1 1 0-1.196zM6.6 5.4H3v1.2h3.6z" clip-rule="evenodd"/></g><defs><clipPath id="a"><path fill="#fff" d="M0 0h12v12H0z"/></clipPath></defs></svg>