<svg xmlns="http://www.w3.org/2000/svg" width="32" height="32" fill="none"><g clip-path="url(#a)"><path fill="#1A1C1F" fill-rule="evenodd" d="M6.996 21.65a2.85 2.85 0 1 1 0 5.7 2.85 2.85 0 0 1 0-5.7m13 0a2.85 2.85 0 1 1 0 5.7 2.85 2.85 0 0 1 0-5.7m-13 1.7a1.15 1.15 0 1 0 0 2.3 1.15 1.15 0 0 0 0-2.3m13 0a1.15 1.15 0 1 0 0 2.3 1.15 1.15 0 0 0 0-2.3m-4.529-.557a.85.85 0 0 1-.943 1.414 1.85 1.85 0 0 0-2.057 0 .85.85 0 0 1-.943-1.414 3.55 3.55 0 0 1 3.943 0M24.996 4.65c1.282 0 2.38.897 2.647 2.135L29.84 21.4q.11.723-.638.926-.658.157-4 1a.85.85 0 0 1-.514-1.617l3.352-.846-2.047-13.654a1 1 0 0 0-.997-.858.85.85 0 1 1 0-1.7m-1 8.85a.85.85 0 0 1 0 1.7v2.3c0 1.659-1.409 3-3 3h-15c-1.591 0-3-1.341-3-3v-2.3a.86.86 0 0 1-.85-.85c0-.433.348-.85.85-.85z" clip-rule="evenodd"/></g><defs><clipPath id="a"><path fill="#fff" d="M0 0h32v32H0z"/></clipPath></defs></svg>