<svg width="16" height="16" viewBox="0 0 16 16" fill="none" xmlns="http://www.w3.org/2000/svg"><path d="M10.941 2.519 C 10.894 2.540,10.802 2.610,10.736 2.676 C 10.533 2.879,10.482 3.184,10.610 3.433 C 10.722 3.650,10.918 3.763,11.298 3.830 C 11.656 3.892,11.866 4.028,12.008 4.289 C 12.125 4.502,12.144 4.624,12.558 7.747 C 12.838 9.853,12.852 9.958,12.845 9.963 C 12.842 9.965,12.606 10.084,12.320 10.227 C 11.396 10.688,11.319 10.763,11.337 11.172 C 11.346 11.355,11.358 11.397,11.428 11.497 C 11.595 11.736,11.895 11.858,12.153 11.792 C 12.327 11.748,13.909 10.957,14.037 10.850 C 14.172 10.738,14.266 10.535,14.266 10.356 C 14.267 10.133,13.615 5.270,13.477 4.467 C 13.434 4.215,13.378 3.995,13.328 3.872 C 13.047 3.194,12.416 2.670,11.701 2.522 C 11.447 2.470,11.058 2.468,10.941 2.519 M2.120 6.413 C 1.863 6.546,1.733 6.751,1.733 7.027 C 1.733 7.312,1.857 7.507,2.118 7.630 C 2.207 7.672,2.300 7.707,2.325 7.707 C 2.389 7.707,2.397 7.808,2.409 8.707 C 2.417 9.331,2.428 9.506,2.463 9.618 C 2.561 9.923,2.793 10.147,3.138 10.269 L 3.320 10.333 6.424 10.341 C 9.501 10.349,9.529 10.348,9.693 10.293 C 10.025 10.183,10.204 10.017,10.323 9.711 C 10.378 9.569,10.382 9.506,10.394 8.637 L 10.406 7.714 10.548 7.682 C 10.980 7.585,11.197 7.125,11.003 6.717 C 10.946 6.596,10.847 6.502,10.693 6.422 L 10.573 6.360 6.413 6.352 L 2.253 6.344 2.120 6.413 M3.342 11.173 C 2.917 11.263,2.528 11.651,2.428 12.083 C 2.344 12.449,2.471 12.899,2.732 13.160 C 3.222 13.650,3.930 13.659,4.432 13.180 C 4.877 12.755,4.920 12.068,4.531 11.600 C 4.376 11.414,4.210 11.293,4.009 11.223 C 3.840 11.163,3.504 11.138,3.342 11.173 M8.942 11.173 C 8.517 11.263,8.128 11.651,8.028 12.083 C 7.944 12.449,8.071 12.899,8.332 13.160 C 8.822 13.650,9.530 13.659,10.032 13.180 C 10.477 12.755,10.520 12.068,10.131 11.600 C 9.976 11.414,9.810 11.293,9.609 11.223 C 9.440 11.163,9.104 11.138,8.942 11.173 M5.930 11.677 C 5.545 11.726,5.310 12.013,5.339 12.401 C 5.358 12.673,5.571 12.928,5.829 12.988 C 5.886 13.001,6.150 13.012,6.415 13.013 C 7.018 13.013,7.118 12.989,7.287 12.801 C 7.596 12.458,7.516 11.987,7.107 11.746 C 7.009 11.689,6.962 11.682,6.547 11.670 C 6.297 11.663,6.020 11.666,5.930 11.677 " fill="#1A1C1F" stroke="none" fill-rule="evenodd"></path></svg>