<svg xmlns="http://www.w3.org/2000/svg" width="32" height="32" fill="none"><path fill="#1A1C1F" fill-rule="evenodd" d="M24.557 4.605c-.542.248-.719 1.029-.337 1.493.207.251.408.354.8.41q.532.075.721.44c.055.107.452 2.609 1.109 6.983l1.022 6.817-.189.05c-.104.028-.823.208-1.596.401s-1.47.385-1.547.425a1.09 1.09 0 0 0-.539.894c.003.416.34.838.761.954.209.057.371.026 2.331-.457 1.159-.286 2.211-.568 2.337-.627.242-.113.457-.38.541-.672.037-.13-.207-1.869-1.068-7.595-.614-4.084-1.152-7.535-1.197-7.669-.238-.716-.785-1.321-1.509-1.669-.406-.195-.488-.215-.96-.233-.365-.014-.565.002-.68.055M2.531 12.633c-.228.139-.437.403-.5.63-.135.487.21 1.066.716 1.202l.24.064v1.511c0 1.745.046 2.081.378 2.773.375.782 1.161 1.424 1.968 1.609.159.037 2.913.056 8.162.057 8.599.001 8.193.014 8.789-.288.67-.339 1.223-.974 1.513-1.738L23.97 18l.019-1.737.019-1.736.244-.066c.319-.085.623-.386.709-.703a.985.985 0 0 0-.483-1.119c-.204-.104-.353-.106-10.996-.105-10.414 0-10.794.003-10.951.099m19.442 3.449c0 1.555-.001 1.578-.127 1.826-.151.298-.261.406-.526.517-.174.072-1.077.082-7.792.082H5.932l-.285-.149a1.04 1.04 0 0 1-.446-.409l-.161-.26-.016-1.591-.015-1.591h16.964zm-15.501 5.47c-.602.1-1.202.43-1.649.907-.505.538-.756 1.118-.806 1.861-.095 1.4.803 2.654 2.199 3.073.486.145 1.225.124 1.724-.05.929-.324 1.615-1.018 1.905-1.93a2.98 2.98 0 0 0-.728-3.019 3.01 3.01 0 0 0-2.645-.842m13.035-.007c-.421.076-.763.21-1.109.434a3 3 0 0 0-1.063 3.892c.191.377.68.914 1.048 1.15.975.625 2.295.62 3.249-.013.622-.413 1.152-1.181 1.296-1.877a2.992 2.992 0 0 0-2.757-3.607 3.5 3.5 0 0 0-.664.021m-6.422.541c-.603.056-1.332.339-1.725.669-.201.169-.371.506-.372.738-.001.295.232.696.492.849.349.204.686.19 1.162-.05.629-.317 1.176-.3 1.846.056.832.443 1.709-.25 1.458-1.153-.148-.533-1.168-1.058-2.186-1.124a5 5 0 0 0-.675.015m-5.616 1.542c.116.059.277.207.358.329.199.302.205.775.014 1.063-.286.429-.783.581-1.239.379-.437-.193-.65-.639-.553-1.157.043-.226.31-.549.537-.648.242-.105.64-.09.883.034m13.083.054a.98.98 0 0 1 .423.82c0 .564-.42.991-.975.991-.77 0-1.231-.834-.836-1.509q.287-.49.898-.451c.208.014.36.06.49.149"/></svg>