<svg xmlns="http://www.w3.org/2000/svg" width="20" height="20" fill="none"><g clip-path="url(#a)"><path fill="#1A1C1F" fill-rule="evenodd" d="M4.5 13.925a1.5 1.5 0 1 1 0 3 1.5 1.5 0 0 1 0-3m7 0a1.5 1.5 0 1 1 0 3 1.5 1.5 0 0 1 0-3m-3 .65c.47 0 .85.38.85.85 0 .433-.326.85-.85.85h-1a.85.85 0 1 1 0-1.7zm5.537-11.5a2.85 2.85 0 0 1 2.796 2.294l1.016 7.5q0 .581-.468.816l-2 1a.85.85 0 0 1-1.14-.38.84.84 0 0 1 .38-1.14l1.456-.729-.9-6.665c-.072-.53-.556-.99-1.018-.99-.624 0-.993-.387-.993-.856 0-.433.34-.85.871-.85m-1.036 4.85c.47 0 .85.38.85.85 0 .433-.285.85-.85.85v1.8c-.016 1.043-.38 1.49-1.454 1.5H4.525c-.744-.008-1.524-.293-1.524-1.5v-1.8c-.523 0-.85-.38-.85-.85 0-.433.34-.85.85-.85z" clip-rule="evenodd"/></g><defs><clipPath id="a"><path fill="#fff" d="M0 0h20v20H0z"/></clipPath></defs></svg>