<svg width="28" height="28" viewBox="0 0 28 28" fill="none" xmlns="http://www.w3.org/2000/svg"><path d="M21.561 4.012 C 21.228 4.096,20.954 4.569,21.024 4.941 C 21.100 5.351,21.330 5.557,21.853 5.688 C 22.293 5.798,22.476 5.922,22.536 6.151 C 22.649 6.584,24.377 17.959,24.351 18.096 C 24.340 18.148,23.974 18.260,22.984 18.512 C 22.240 18.701,21.558 18.894,21.467 18.940 C 21.377 18.987,21.240 19.114,21.163 19.223 C 21.046 19.389,21.023 19.466,21.023 19.693 C 21.023 19.920,21.046 19.998,21.163 20.163 C 21.343 20.417,21.609 20.559,21.887 20.546 C 22.103 20.537,25.052 19.816,25.550 19.651 C 25.887 19.540,26.157 19.279,26.206 19.019 C 26.248 18.797,26.048 17.360,25.149 11.410 C 24.330 5.987,24.282 5.706,24.102 5.337 C 23.843 4.805,23.258 4.287,22.686 4.086 C 22.448 4.001,21.777 3.957,21.561 4.012 M2.732 11.001 C 2.326 11.015,2.249 11.031,2.118 11.131 C 1.787 11.383,1.664 11.833,1.835 12.163 C 1.950 12.386,2.201 12.602,2.411 12.658 L 2.605 12.710 2.625 14.160 C 2.648 15.749,2.667 15.883,2.952 16.472 C 3.157 16.896,3.737 17.472,4.168 17.682 C 4.425 17.806,4.575 17.844,4.938 17.876 C 5.512 17.928,17.962 17.928,18.626 17.877 C 19.002 17.848,19.186 17.810,19.385 17.718 C 20.066 17.406,20.569 16.823,20.889 15.974 C 20.997 15.685,21.000 15.644,21.000 14.195 L 21.000 12.713 21.210 12.657 C 21.611 12.549,21.939 12.066,21.861 11.698 C 21.811 11.463,21.662 11.231,21.479 11.106 L 21.310 10.990 12.253 10.987 C 7.272 10.985,2.988 10.992,2.732 11.001 M19.218 14.109 L 19.203 15.524 19.063 15.752 C 18.985 15.877,18.849 16.022,18.759 16.074 C 18.597 16.170,18.566 16.170,11.900 16.170 C 8.217 16.170,5.146 16.154,5.076 16.134 C 4.886 16.081,4.629 15.834,4.500 15.581 C 4.388 15.359,4.387 15.343,4.387 14.025 L 4.387 12.693 11.810 12.693 L 19.233 12.693 19.218 14.109 M5.717 18.861 C 4.974 18.954,4.111 19.583,3.784 20.268 C 3.499 20.865,3.437 21.440,3.592 22.046 C 3.900 23.250,4.906 24.038,6.139 24.041 C 6.885 24.043,7.518 23.761,8.040 23.197 C 9.190 21.952,8.859 19.938,7.376 19.162 C 6.836 18.879,6.317 18.785,5.717 18.861 M16.835 18.904 C 16.225 19.048,15.457 19.672,15.175 20.253 C 14.660 21.318,14.834 22.423,15.648 23.258 C 16.175 23.799,16.736 24.033,17.500 24.033 C 18.243 24.033,18.824 23.797,19.320 23.292 C 19.986 22.615,20.259 21.684,20.042 20.835 C 19.808 19.917,19.065 19.157,18.175 18.925 C 17.877 18.847,17.126 18.835,16.835 18.904 M11.176 19.367 C 10.869 19.429,10.453 19.589,10.182 19.751 C 9.584 20.108,9.454 20.663,9.860 21.124 C 10.161 21.467,10.447 21.497,11.073 21.250 C 11.658 21.020,12.012 21.016,12.510 21.235 C 12.971 21.439,13.230 21.462,13.510 21.327 C 14.061 21.060,14.151 20.332,13.684 19.922 C 13.452 19.718,12.920 19.473,12.529 19.391 C 12.183 19.317,11.488 19.306,11.176 19.367 M6.390 20.626 C 6.569 20.677,6.789 20.867,6.887 21.056 C 6.973 21.220,6.972 21.669,6.885 21.837 C 6.662 22.269,6.084 22.423,5.663 22.162 C 5.326 21.954,5.187 21.466,5.356 21.084 C 5.536 20.677,5.941 20.497,6.390 20.626 M17.915 20.694 C 18.302 20.894,18.462 21.474,18.236 21.862 C 17.898 22.445,17.097 22.445,16.766 21.862 C 16.655 21.664,16.626 21.329,16.704 21.125 C 16.774 20.940,17.031 20.677,17.190 20.628 C 17.380 20.570,17.737 20.602,17.915 20.694 " fill="#1A1C1F" stroke="none" fill-rule="evenodd"></path></svg>