<svg xmlns="http://www.w3.org/2000/svg" width="32" height="32" fill="none"><path fill="#1A1C1F" fill-rule="evenodd" d="M24.773 4.678c-.166.041-.445.272-.533.442-.12.232-.102.592.04.801.183.268.355.369.734.429.42.067.707.244.849.523.08.157.348 1.83 1.122 7 .56 3.736 1.023 6.84 1.03 6.896.01.091-.172.148-1.704.534-1.815.456-1.892.487-2.076.841-.097.187-.096.541.003.732.043.083.15.212.238.286.308.259.387.25 2.726-.336 1.186-.297 2.232-.586 2.325-.644a.84.84 0 0 0 .263-.303l.094-.199-1.105-7.387c-.608-4.062-1.152-7.545-1.208-7.739a2.9 2.9 0 0 0-.784-1.221c-.532-.468-1.494-.781-2.014-.655M2.635 13.595c-.243.11-.437.377-.484.662-.063.387.272.836.689.925l.147.031.001 1.26c.001 1.422.05 1.772.329 2.342.12.244.303.487.576.761.437.439.832.676 1.387.833.329.093.745.098 8.213.098 8.754 0 8.142.024 8.874-.359.4-.21 1.072-.869 1.275-1.251.297-.558.358-.965.358-2.393v-1.292l.2-.038c.287-.053.582-.378.629-.692a.84.84 0 0 0-.454-.869l-.238-.12-10.642.002c-10.259.001-10.65.004-10.86.1m3.693 8.139a3.02 3.02 0 0 0-1.722 1.228c-.286.427-.408.832-.434 1.439-.02.472-.007.582.118.954.569 1.695 2.397 2.469 3.971 1.681 1.246-.623 1.883-2.11 1.448-3.376-.317-.922-.888-1.517-1.762-1.836-.445-.162-1.174-.203-1.619-.09m13.192-.044c-1.745.292-2.81 2.153-2.186 3.821.455 1.214 1.796 2.003 3.069 1.805a2.91 2.91 0 0 0 2.346-2.096c.101-.378.098-1.066-.005-1.462-.355-1.361-1.822-2.303-3.224-2.068m-6.533.547c-.671.109-1.347.413-1.625.729-.402.458-.17 1.194.428 1.355.254.068.401.033.877-.21.341-.174.412-.19.826-.191.421 0 .484.015.88.211.291.144.495.21.64.209.759-.01 1.105-.935.546-1.463-.178-.169-.778-.458-1.151-.555-.403-.104-1.062-.144-1.421-.085m-5.481 1.254c.865.403.824 1.656-.066 2.063-.738.337-1.569-.225-1.572-1.063-.004-.848.848-1.368 1.638-1m12.909-.048c.436.182.705.588.705 1.064 0 1.054-1.27 1.539-1.964.749-.223-.254-.284-.415-.284-.749 0-.486.19-.802.606-1.009.319-.159.642-.178.937-.055"/></svg>