<svg xmlns="http://www.w3.org/2000/svg" width="14" height="14" fill="none"><g clip-path="url(#a)"><path fill="#1A1C1F" fill-rule="evenodd" d="M3.15 9.8a1.05 1.05 0 1 1 0 2.1 1.05 1.05 0 0 1 0-2.1m4.9 0a1.05 1.05 0 1 1 0 2.1 1.05 1.05 0 0 1 0-2.1m-1.999.525a.525.525 0 1 1 0 1.05h-.8a.525.525 0 0 1-.526-.525c0-.266.223-.525.525-.525zM9.826 2.1a2.1 2.1 0 0 1 2.06 1.695l.708 5.211a.71.71 0 0 1-.379.72l-1.402.7a.7.7 0 0 1-.939-.313.707.707 0 0 1 .313-.94l.952-.476-.62-4.59a.695.695 0 0 0-.719-.608.69.69 0 0 1-.689-.699.7.7 0 0 1 .715-.7M9.1 4.9a.7.7 0 0 1 .011 1.4L9.1 7.7c.011 1.083-.329 1.4-1.4 1.399H3.498C2.398 9.1 2.1 8.759 2.1 7.7V6.295a.697.697 0 0 1-.7-.695c0-.359.297-.7.7-.7zM7.7 6.3H3.5v1.4h4.2z" clip-rule="evenodd"/></g><defs><clipPath id="a"><path fill="#fff" d="M0 0h14v14H0z"/></clipPath></defs></svg>