<svg xmlns="http://www.w3.org/2000/svg" width="20" height="20" fill="none"><g clip-path="url(#a)"><path fill="#1A1C1F" fill-rule="evenodd" d="M4.5 14a1.5 1.5 0 1 1 0 3 1.5 1.5 0 0 1 0-3m7 0a1.5 1.5 0 1 1 0 3 1.5 1.5 0 0 1 0-3m-2.855.75a.75.75 0 0 1 .75.75c0 .38-.315.75-.75.75H7.5a.75.75 0 0 1-.75-.75c0-.38.319-.75.75-.75zM14.037 3a3 3 0 0 1 2.944 2.422l1.01 7.444c.059.471-.203.848-.541 1.027l-2.002 1.001a1 1 0 0 1-1.342-.447 1.01 1.01 0 0 1 .447-1.341l1.36-.681-.885-6.559C14.966 5.408 14.6 5 14 5A.986.986 0 0 1 13.016 4c0-.513.403-1 1.02-1M13 7a1 1 0 0 1 1 1c0 .513-.417.993-.984 1l-.017 2c.017 1.547-.469 2-2 1.998H4.997C3.427 13 2.999 12.514 2.999 11V8.993A.995.995 0 0 1 2 8c0-.513.424-1 1-1zm-2 2H5v2h6z" clip-rule="evenodd"/></g><defs><clipPath id="a"><path fill="#fff" d="M0 0h20v20H0z"/></clipPath></defs></svg>