<svg xmlns="http://www.w3.org/2000/svg" width="14" height="14" fill="none"><g clip-path="url(#a)"><path fill="#1A1C1F" fill-rule="evenodd" d="M3.15 9.748a1.05 1.05 0 1 1 0 2.1 1.05 1.05 0 0 1 0-2.1m4.9 0a1.05 1.05 0 1 1 0 2.1 1.05 1.05 0 0 1 0-2.1m-2.1.455c.33 0 .596.266.596.595a.587.587 0 0 1-.595.595h-.7a.595.595 0 0 1 0-1.19zm3.876-8.05c.957 0 1.773.678 1.957 1.605l.712 5.25q0 .407-.328.572l-1.4.7a.595.595 0 0 1-.799-.266.59.59 0 0 1 .267-.799l1.019-.51-.63-4.665c-.05-.371-.39-.693-.712-.693-.438 0-.696-.27-.696-.6 0-.303.239-.594.61-.594m-.725 3.395c.328 0 .595.266.595.595 0 .303-.2.595-.595.595v1.26c-.011.73-.266 1.042-1.018 1.05H3.168c-.52-.006-1.067-.205-1.067-1.05v-1.26a.57.57 0 0 1-.595-.595c0-.304.238-.595.595-.595z" clip-rule="evenodd"/></g><defs><clipPath id="a"><path fill="#fff" d="M0 0h14v14H0z"/></clipPath></defs></svg>