<svg width="16" height="16" viewBox="0 0 16 16" fill="none" xmlns="http://www.w3.org/2000/svg"><path d="M10.860 2.493 C 10.390 2.732,10.276 3.338,10.628 3.729 C 10.770 3.887,10.935 3.963,11.218 4.002 C 11.448 4.033,11.647 4.112,11.781 4.226 C 11.983 4.397,11.972 4.333,12.453 7.918 C 12.620 9.163,12.710 9.914,12.694 9.932 C 12.681 9.949,12.427 10.088,12.130 10.241 C 11.524 10.555,11.342 10.693,11.263 10.900 C 11.166 11.154,11.213 11.471,11.382 11.694 C 11.511 11.865,11.675 11.947,11.954 11.981 L 12.173 12.009 13.084 11.551 C 14.107 11.037,14.209 10.966,14.333 10.690 C 14.399 10.542,14.405 10.504,14.391 10.334 C 14.349 9.840,13.615 4.569,13.533 4.179 C 13.448 3.767,13.110 3.242,12.743 2.950 C 12.495 2.751,12.280 2.634,11.973 2.531 C 11.750 2.455,11.678 2.444,11.360 2.434 C 11.012 2.423,10.995 2.425,10.860 2.493 M2.467 5.623 C 2.211 5.638,2.124 5.653,2.035 5.700 C 1.716 5.869,1.544 6.240,1.626 6.582 C 1.693 6.862,1.959 7.120,2.241 7.178 L 2.393 7.209 2.407 8.305 C 2.420 9.395,2.421 9.401,2.490 9.616 C 2.569 9.861,2.694 10.042,2.861 10.154 C 3.007 10.252,3.068 10.277,3.330 10.347 L 3.549 10.406 6.461 10.393 C 9.612 10.378,9.462 10.385,9.794 10.233 C 10.079 10.102,10.239 9.895,10.334 9.533 C 10.365 9.414,10.382 9.135,10.400 8.427 C 10.414 7.906,10.425 7.420,10.426 7.346 L 10.427 7.213 10.559 7.181 C 10.632 7.164,10.752 7.110,10.826 7.062 C 11.340 6.726,11.312 5.996,10.775 5.710 L 10.611 5.622 6.699 5.614 C 4.547 5.609,2.643 5.613,2.467 5.623 M8.800 8.000 L 8.800 8.800 6.400 8.800 L 4.000 8.800 4.000 8.000 L 4.000 7.200 6.400 7.200 L 8.800 7.200 8.800 8.000 M3.375 11.227 C 3.067 11.281,2.688 11.560,2.549 11.835 C 2.383 12.162,2.362 12.492,2.486 12.823 C 2.595 13.114,2.881 13.401,3.177 13.517 C 3.414 13.609,3.785 13.612,4.006 13.524 C 4.210 13.443,4.415 13.286,4.551 13.107 C 5.123 12.356,4.633 11.294,3.680 11.218 C 3.585 11.210,3.447 11.214,3.375 11.227 M8.975 11.227 C 8.667 11.281,8.288 11.560,8.149 11.835 C 7.983 12.162,7.962 12.492,8.086 12.823 C 8.195 13.114,8.481 13.401,8.777 13.517 C 9.014 13.609,9.385 13.612,9.606 13.524 C 9.810 13.443,10.015 13.286,10.151 13.107 C 10.723 12.356,10.233 11.294,9.280 11.218 C 9.185 11.210,9.047 11.214,8.975 11.227 M5.833 11.839 C 5.606 11.883,5.413 12.137,5.413 12.392 C 5.413 12.638,5.507 12.796,5.732 12.928 C 5.847 12.996,5.869 12.999,6.346 13.009 C 7.063 13.024,7.226 12.979,7.405 12.712 C 7.605 12.414,7.526 12.094,7.202 11.889 L 7.083 11.813 6.508 11.816 C 6.192 11.818,5.888 11.828,5.833 11.839 " fill="#1A1C1F" stroke="none" fill-rule="evenodd"></path></svg>