<svg width="28" height="28" viewBox="0 0 28 28" fill="none" xmlns="http://www.w3.org/2000/svg"><path d="M21.559 4.167 C 21.292 4.308,21.178 4.471,21.154 4.745 C 21.117 5.162,21.379 5.454,21.878 5.555 C 22.229 5.626,22.510 5.793,22.599 5.983 C 22.684 6.163,22.816 6.915,23.167 9.217 C 23.594 12.006,24.500 18.097,24.500 18.172 C 24.500 18.254,24.255 18.332,23.023 18.640 C 21.762 18.955,21.448 19.063,21.309 19.229 C 21.063 19.521,21.092 19.936,21.378 20.223 L 21.562 20.407 21.923 20.381 C 22.269 20.356,24.606 19.794,25.465 19.530 C 25.863 19.407,26.054 19.255,26.115 19.015 C 26.146 18.890,24.615 8.575,24.220 6.253 C 24.061 5.319,23.678 4.739,22.979 4.375 C 22.644 4.200,22.171 4.062,21.906 4.061 C 21.826 4.060,21.670 4.108,21.559 4.167 M2.861 11.850 L 2.292 11.877 2.127 12.037 C 1.811 12.343,1.796 12.703,2.084 13.022 C 2.179 13.128,2.326 13.229,2.427 13.259 L 2.604 13.312 2.626 14.531 C 2.642 15.429,2.666 15.813,2.718 15.989 C 2.941 16.745,3.591 17.451,4.355 17.769 C 4.636 17.886,4.683 17.890,6.183 17.931 C 8.267 17.988,18.448 17.945,18.866 17.878 C 19.325 17.804,19.685 17.602,20.145 17.160 C 20.581 16.741,20.730 16.523,20.873 16.087 C 20.956 15.832,20.971 15.644,20.989 14.553 L 21.010 13.310 21.149 13.282 C 21.362 13.239,21.542 13.088,21.653 12.856 C 21.833 12.486,21.683 12.105,21.276 11.898 C 21.100 11.808,20.947 11.807,12.264 11.815 C 7.405 11.820,3.174 11.835,2.861 11.850 M5.677 18.997 C 4.887 19.114,4.046 19.826,3.779 20.603 C 3.656 20.961,3.607 21.659,3.683 21.964 C 3.794 22.408,4.052 22.862,4.380 23.188 C 4.747 23.553,5.043 23.722,5.534 23.848 C 5.961 23.957,6.168 23.962,6.591 23.872 C 7.920 23.590,8.832 22.270,8.568 21.009 C 8.282 19.636,7.069 18.792,5.677 18.997 M16.930 19.019 C 16.340 19.162,15.729 19.601,15.396 20.120 C 15.046 20.665,14.932 21.477,15.113 22.131 C 15.350 22.983,16.112 23.679,17.022 23.872 C 17.423 23.957,17.637 23.956,18.011 23.868 C 19.151 23.599,19.973 22.590,19.973 21.459 C 19.973 20.761,19.756 20.223,19.280 19.744 C 18.636 19.097,17.745 18.822,16.930 19.019 M10.990 19.546 C 10.103 19.816,9.696 20.197,9.778 20.682 C 9.820 20.930,10.064 21.200,10.314 21.275 C 10.534 21.340,10.678 21.307,11.117 21.087 C 11.350 20.970,11.436 20.953,11.794 20.953 C 12.160 20.953,12.244 20.971,12.577 21.116 C 12.999 21.300,13.245 21.322,13.487 21.195 C 13.819 21.021,13.953 20.497,13.747 20.183 C 13.627 19.999,13.325 19.803,12.910 19.641 C 12.562 19.505,12.477 19.491,11.900 19.477 C 11.390 19.464,11.216 19.477,10.990 19.546 M6.580 20.558 C 6.881 20.714,7.093 21.073,7.093 21.426 C 7.093 22.159,6.345 22.657,5.708 22.349 C 5.359 22.180,5.133 21.812,5.134 21.415 C 5.135 21.036,5.490 20.572,5.846 20.484 C 6.033 20.438,6.424 20.477,6.580 20.558 M17.796 20.490 C 18.050 20.561,18.354 20.878,18.431 21.154 C 18.590 21.722,18.287 22.256,17.721 22.407 C 17.148 22.560,16.520 22.082,16.520 21.492 C 16.520 21.050,16.674 20.767,17.010 20.592 C 17.306 20.437,17.510 20.411,17.796 20.490 " fill="#1A1C1F" stroke="none" fill-rule="evenodd"></path></svg>