<svg width="14" height="14" viewBox="0 0 14 14" fill="none" xmlns="http://www.w3.org/2000/svg"><path d="M9.503 2.182 C 9.349 2.260,9.207 2.419,9.157 2.572 C 9.100 2.743,9.120 2.995,9.201 3.134 C 9.336 3.363,9.529 3.472,9.871 3.511 C 10.096 3.536,10.343 3.680,10.421 3.832 C 10.494 3.972,10.554 4.367,10.931 7.185 C 11.055 8.109,11.121 8.675,11.107 8.691 C 11.096 8.705,10.874 8.827,10.614 8.961 C 10.084 9.235,9.924 9.356,9.855 9.538 C 9.770 9.760,9.812 10.037,9.960 10.233 C 10.072 10.382,10.215 10.454,10.460 10.484 L 10.652 10.507 11.448 10.107 C 12.344 9.657,12.433 9.596,12.541 9.354 C 12.599 9.224,12.605 9.191,12.592 9.042 C 12.556 8.610,11.913 3.998,11.842 3.656 C 11.823 3.566,11.761 3.397,11.704 3.280 C 11.455 2.773,11.025 2.399,10.477 2.214 C 10.281 2.148,10.218 2.138,9.940 2.130 C 9.635 2.120,9.621 2.122,9.503 2.182 M2.170 4.920 C 1.933 4.933,1.860 4.946,1.780 4.988 C 1.501 5.136,1.351 5.460,1.422 5.759 C 1.481 6.004,1.714 6.230,1.961 6.281 L 2.094 6.308 2.106 7.267 C 2.118 8.221,2.118 8.226,2.179 8.414 C 2.248 8.629,2.357 8.787,2.503 8.884 C 2.631 8.970,2.684 8.992,2.915 9.054 L 3.106 9.106 5.654 9.093 C 8.408 9.080,8.281 9.086,8.570 8.954 C 8.739 8.876,8.867 8.757,8.943 8.606 C 9.063 8.366,9.076 8.261,9.100 7.373 C 9.112 6.918,9.122 6.492,9.123 6.428 L 9.123 6.311 9.239 6.283 C 9.389 6.248,9.572 6.128,9.658 6.008 C 9.917 5.647,9.793 5.161,9.394 4.974 L 9.282 4.921 5.872 4.913 C 3.996 4.908,2.330 4.912,2.170 4.920 M7.700 7.000 L 7.700 7.700 5.600 7.700 L 3.500 7.700 3.500 7.000 L 3.500 6.300 5.600 6.300 L 7.700 6.300 7.700 7.000 M2.953 9.825 C 2.686 9.869,2.353 10.115,2.231 10.356 C 1.989 10.832,2.099 11.330,2.522 11.680 C 2.756 11.873,3.130 11.947,3.421 11.857 C 3.621 11.795,3.728 11.731,3.884 11.576 C 4.163 11.301,4.264 10.921,4.154 10.565 C 4.031 10.167,3.714 9.890,3.306 9.824 C 3.144 9.797,3.116 9.798,2.953 9.825 M7.853 9.825 C 7.586 9.869,7.253 10.115,7.131 10.356 C 6.889 10.832,6.999 11.330,7.422 11.680 C 7.656 11.873,8.030 11.947,8.321 11.857 C 8.521 11.795,8.628 11.731,8.784 11.576 C 9.063 11.301,9.164 10.921,9.054 10.565 C 8.931 10.167,8.614 9.890,8.206 9.824 C 8.044 9.797,8.016 9.798,7.853 9.825 M5.104 10.359 C 4.905 10.398,4.737 10.620,4.737 10.843 C 4.737 11.058,4.819 11.197,5.016 11.312 C 5.116 11.371,5.136 11.374,5.553 11.383 C 6.180 11.396,6.323 11.356,6.479 11.123 C 6.654 10.863,6.585 10.583,6.302 10.403 L 6.198 10.337 5.695 10.339 C 5.418 10.341,5.152 10.350,5.104 10.359 " fill="#1A1C1F" stroke="none" fill-rule="evenodd"></path></svg>