<svg width="12" height="12" viewBox="0 0 12 12" fill="none" xmlns="http://www.w3.org/2000/svg"><path d="M8.226 1.882 C 8.191 1.892,8.117 1.944,8.062 1.998 C 7.899 2.156,7.858 2.382,7.958 2.575 C 8.042 2.738,8.189 2.823,8.475 2.873 C 8.677 2.908,8.811 2.973,8.913 3.086 C 9.020 3.204,9.072 3.342,9.118 3.620 C 9.161 3.884,9.356 5.313,9.510 6.490 C 9.560 6.875,9.610 7.253,9.620 7.329 C 9.630 7.406,9.636 7.470,9.634 7.472 C 9.632 7.474,9.455 7.563,9.240 7.670 C 8.547 8.016,8.489 8.072,8.503 8.379 C 8.509 8.516,8.518 8.548,8.571 8.623 C 8.696 8.802,8.921 8.893,9.115 8.844 C 9.244 8.812,10.431 8.218,10.528 8.137 C 10.629 8.053,10.700 7.901,10.700 7.767 C 10.700 7.523,10.136 3.410,10.061 3.110 C 9.881 2.394,9.187 1.854,8.456 1.862 C 8.365 1.863,8.261 1.872,8.226 1.882 M1.590 4.811 C 1.535 4.840,1.466 4.886,1.436 4.915 C 1.266 5.075,1.252 5.404,1.406 5.591 C 1.466 5.663,1.674 5.780,1.744 5.780 C 1.792 5.780,1.798 5.856,1.807 6.530 C 1.815 7.169,1.825 7.230,1.943 7.408 C 2.063 7.589,2.276 7.703,2.560 7.740 C 2.647 7.751,3.637 7.759,4.931 7.759 C 7.138 7.760,7.153 7.760,7.277 7.718 C 7.447 7.660,7.577 7.569,7.655 7.453 C 7.777 7.270,7.784 7.220,7.795 6.468 L 7.805 5.785 7.911 5.762 C 8.235 5.689,8.398 5.344,8.252 5.038 C 8.209 4.947,8.135 4.877,8.020 4.817 L 7.930 4.770 4.810 4.764 L 1.690 4.758 1.590 4.811 M2.489 8.388 C 2.322 8.429,2.196 8.501,2.068 8.631 C 1.855 8.846,1.769 9.105,1.817 9.385 C 1.877 9.734,2.075 9.975,2.400 10.095 C 2.723 10.213,3.057 10.139,3.318 9.891 C 3.558 9.661,3.651 9.345,3.570 9.034 C 3.525 8.862,3.468 8.764,3.332 8.629 C 3.106 8.403,2.793 8.314,2.489 8.388 M6.689 8.388 C 6.522 8.429,6.396 8.501,6.268 8.631 C 6.055 8.846,5.969 9.105,6.017 9.385 C 6.077 9.734,6.275 9.975,6.600 10.095 C 6.923 10.213,7.257 10.139,7.518 9.891 C 7.758 9.661,7.851 9.345,7.770 9.034 C 7.725 8.862,7.668 8.764,7.532 8.629 C 7.306 8.403,6.993 8.314,6.689 8.388 M4.447 8.758 C 4.159 8.794,3.983 9.009,4.004 9.301 C 4.019 9.510,4.185 9.703,4.383 9.741 C 4.431 9.751,4.628 9.759,4.821 9.759 C 5.262 9.760,5.339 9.741,5.466 9.601 C 5.698 9.343,5.637 8.991,5.329 8.809 C 5.254 8.764,5.222 8.760,4.909 8.752 C 4.723 8.747,4.515 8.750,4.447 8.758 " fill="#1A1C1F" stroke="none" fill-rule="evenodd"></path></svg>