<svg xmlns="http://www.w3.org/2000/svg" width="16" height="16" fill="none"><g clip-path="url(#a)"><path fill="#1A1C1F" fill-rule="evenodd" d="M3.6 11.14a1.2 1.2 0 1 1 0 2.4 1.2 1.2 0 0 1 0-2.4m5.6 0a1.2 1.2 0 1 1 0 2.4 1.2 1.2 0 0 1 0-2.4m-2.4.52a.68.68 0 0 1 .68.68.67.67 0 0 1-.68.68H6a.68.68 0 1 1 0-1.36zm4.43-9.2a2.28 2.28 0 0 1 2.236 1.835l.813 6q0 .465-.374.653-.375.19-1.6.8a.68.68 0 0 1-.912-.304.673.673 0 0 1 .304-.912l1.165-.583-.72-5.332c-.058-.424-.445-.792-.814-.792-.5 0-.795-.31-.795-.685 0-.347.273-.68.697-.68m-.83 3.88a.68.68 0 0 1 .68.68c0 .347-.227.68-.68.68v1.44c-.012.835-.303 1.191-1.163 1.2H3.62c-.595-.006-1.22-.234-1.22-1.2V7.7c-.418 0-.68-.304-.68-.68 0-.347.273-.68.68-.68z" clip-rule="evenodd"/></g><defs><clipPath id="a"><path fill="#fff" d="M0 0h16v16H0z"/></clipPath></defs></svg>