<svg xmlns="http://www.w3.org/2000/svg" width="16" height="16" fill="none"><g clip-path="url(#a)"><path fill="#1A1C1F" fill-rule="evenodd" d="M3.6 11.2a1.2 1.2 0 1 1 0 2.4 1.2 1.2 0 0 1 0-2.4m5.6 0a1.2 1.2 0 1 1 0 2.4 1.2 1.2 0 0 1 0-2.4m-2.284.6a.6.6 0 0 1 .6.6c0 .304-.252.6-.6.6H6a.6.6 0 0 1-.6-.6c0-.304.255-.6.6-.6zm4.313-9.4a2.4 2.4 0 0 1 2.356 1.937l.808 5.956a.81.81 0 0 1-.433.822l-1.602.8a.8.8 0 0 1-1.073-.357.81.81 0 0 1 .357-1.073l1.088-.545-.708-5.247c-.05-.366-.342-.694-.822-.694a.79.79 0 0 1-.787-.799.8.8 0 0 1 .816-.8M10.4 5.6a.8.8 0 0 1 .013 1.6l-.014 1.6c.014 1.238-.375 1.6-1.6 1.598H3.998C2.74 10.4 2.399 10.011 2.399 8.8V7.195c-.47 0-.799-.385-.799-.795s.339-.8.8-.8zM8.8 7.2H4v1.6h4.8z" clip-rule="evenodd"/></g><defs><clipPath id="a"><path fill="#fff" d="M0 0h16v16H0z"/></clipPath></defs></svg>