<svg xmlns="http://www.w3.org/2000/svg" width="12" height="12" fill="none"><g clip-path="url(#a)"><path fill="#1A1C1F" fill-rule="evenodd" d="M2.7 8.355a.9.9 0 1 1 0 1.8.9.9 0 0 1 0-1.8m4.2 0a.9.9 0 1 1 0 1.8.9.9 0 0 1 0-1.8m-1.8.39a.51.51 0 0 1 .51.51c0 .26-.195.51-.51.51h-.6a.51.51 0 1 1 0-1.02zm3.322-6.9c.82 0 1.52.581 1.678 1.376l.61 4.5q0 .35-.281.49l-1.2.6a.51.51 0 0 1-.685-.228.505.505 0 0 1 .228-.684l.874-.437-.54-4c-.043-.317-.334-.593-.61-.593-.375 0-.596-.232-.596-.514 0-.26.204-.51.522-.51m-.621 2.91a.51.51 0 0 1 .51.51c0 .26-.171.51-.51.51v1.08c-.01.626-.228.893-.873.9H2.715c-.446-.005-.914-.176-.914-.9v-1.08a.49.49 0 0 1-.51-.51c0-.26.204-.51.51-.51z" clip-rule="evenodd"/></g><defs><clipPath id="a"><path fill="#fff" d="M0 0h12v12H0z"/></clipPath></defs></svg>