<svg xmlns="http://www.w3.org/2000/svg" width="24" height="24" fill="none"><g clip-path="url(#a)"><path fill="#1A1C1F" fill-rule="evenodd" d="M4.987 15.925a2 2 0 1 1 0 4 2 2 0 0 1 0-4m10 0a2 2 0 1 1 0 4 2 2 0 0 1 0-4m-3.62.74a.85.85 0 0 1-.662 1.562 1.6 1.6 0 0 0-.679-.19 1.44 1.44 0 0 0-.659.148.85.85 0 0 1-.76-1.52 3.09 3.09 0 0 1 2.76 0m6.646-12.59c1.064 0 1.983.725 2.24 1.744l1.597 8.957a.85.85 0 0 1-.63.973l-2.42.965a.85.85 0 1 1-.631-1.578l1.883-.754-1.438-8.103a.6.6 0 0 0-.601-.504.85.85 0 0 1 0-1.7m-1.026 4.85c.47 0 .85.38.85.85a.86.86 0 0 1-.85.85v1.8c0 1.248-1.304 2.5-2.5 2.5h-9c-1.196 0-2.5-1.252-2.5-2.5v-1.8a.853.853 0 0 1-.85-.85c0-.433.353-.85.85-.85z" clip-rule="evenodd"/></g><defs><clipPath id="a"><path fill="#fff" d="M0 0h24v24H0z"/></clipPath></defs></svg>