<svg width="24" height="24" viewBox="0 0 24 24" fill="none" xmlns="http://www.w3.org/2000/svg"><path d="M17.716 4.062 C 17.447 4.145,17.182 4.396,17.082 4.663 C 16.984 4.927,16.981 5.002,17.062 5.275 C 17.176 5.657,17.484 5.912,17.931 5.995 C 18.359 6.074,18.390 6.119,18.535 6.862 C 18.795 8.202,19.840 14.153,19.840 14.298 C 19.840 14.368,19.732 14.424,19.150 14.658 C 17.850 15.179,17.754 15.237,17.575 15.620 C 17.411 15.969,17.466 16.322,17.732 16.624 C 18.051 16.987,18.375 17.066,18.861 16.899 C 19.762 16.590,21.454 15.891,21.651 15.746 C 21.810 15.629,21.955 15.371,21.982 15.157 C 22.013 14.919,21.659 12.816,20.820 8.240 C 20.396 5.926,20.329 5.616,20.200 5.360 C 19.864 4.695,19.200 4.200,18.451 4.057 C 18.089 3.988,17.955 3.989,17.716 4.062 M4.113 9.039 L 2.607 9.060 2.434 9.181 C 1.728 9.678,1.934 10.742,2.780 10.969 C 2.909 11.003,2.968 11.041,2.980 11.099 C 2.990 11.143,3.004 11.621,3.012 12.160 C 3.025 13.043,3.035 13.163,3.112 13.373 C 3.250 13.747,3.435 14.036,3.748 14.363 C 4.157 14.791,4.402 14.916,4.932 14.964 C 5.167 14.986,7.436 14.997,10.280 14.991 L 15.220 14.980 15.576 14.809 C 16.064 14.574,16.476 14.166,16.714 13.680 C 16.806 13.493,16.899 13.250,16.921 13.140 C 16.943 13.030,16.972 12.507,16.986 11.978 L 17.012 11.016 17.214 10.968 C 17.724 10.847,18.054 10.375,17.975 9.879 C 17.937 9.639,17.727 9.318,17.515 9.177 L 17.331 9.053 13.455 9.027 C 9.433 8.999,6.692 9.003,4.113 9.039 M14.978 11.650 C 15.019 12.633,14.946 12.890,14.607 12.948 C 14.504 12.966,12.367 12.980,9.858 12.980 C 5.591 12.980,5.290 12.976,5.190 12.910 C 5.031 12.806,5.000 12.621,5.000 11.770 L 5.000 11.000 9.976 11.000 L 14.951 11.000 14.978 11.650 M4.605 16.043 C 4.055 16.140,3.470 16.585,3.220 17.095 C 2.683 18.190,3.170 19.436,4.303 19.862 C 5.177 20.192,6.149 19.861,6.661 19.061 C 7.152 18.294,7.069 17.344,6.453 16.679 C 5.974 16.161,5.281 15.923,4.605 16.043 M14.605 16.043 C 14.055 16.140,13.470 16.585,13.220 17.095 C 12.683 18.190,13.170 19.436,14.303 19.862 C 15.177 20.192,16.149 19.861,16.661 19.061 C 17.152 18.294,17.069 17.344,16.453 16.679 C 15.974 16.161,15.281 15.923,14.605 16.043 M9.429 16.325 C 8.783 16.408,8.195 16.763,8.064 17.148 C 7.927 17.550,8.004 17.886,8.303 18.187 C 8.620 18.505,8.933 18.564,9.423 18.396 C 9.783 18.274,10.161 18.272,10.534 18.392 C 10.916 18.515,11.177 18.508,11.445 18.369 C 11.798 18.186,12.039 17.742,11.982 17.384 C 11.888 16.798,11.299 16.409,10.372 16.321 C 9.888 16.275,9.814 16.275,9.429 16.325 " fill="#1A1C1F" stroke="none" fill-rule="evenodd"></path></svg>