<svg width="20" height="20" viewBox="0 0 20 20" fill="none" xmlns="http://www.w3.org/2000/svg"><path d="M13.676 3.149 C 13.617 3.175,13.502 3.263,13.420 3.345 C 13.166 3.599,13.103 3.980,13.263 4.292 C 13.403 4.564,13.648 4.704,14.125 4.788 C 14.462 4.846,14.685 4.955,14.856 5.144 C 15.033 5.340,15.121 5.570,15.196 6.033 C 15.272 6.499,15.693 9.589,15.899 11.200 C 15.973 11.777,16.041 12.295,16.050 12.350 L 16.067 12.451 15.408 12.779 C 14.245 13.360,14.148 13.453,14.172 13.965 C 14.182 14.193,14.197 14.247,14.284 14.371 C 14.494 14.670,14.869 14.822,15.192 14.740 C 15.409 14.685,17.386 13.696,17.546 13.562 C 17.715 13.422,17.833 13.168,17.833 12.945 C 17.834 12.527,16.893 5.675,16.767 5.183 C 16.508 4.171,15.660 3.367,14.626 3.153 C 14.309 3.088,13.823 3.086,13.676 3.149 M2.650 8.016 C 2.328 8.182,2.167 8.439,2.167 8.783 C 2.167 9.141,2.321 9.383,2.648 9.538 C 2.759 9.590,2.875 9.633,2.906 9.633 C 2.986 9.633,2.997 9.760,3.011 10.883 C 3.022 11.664,3.035 11.883,3.079 12.022 C 3.201 12.404,3.491 12.684,3.923 12.836 L 4.150 12.917 8.030 12.926 C 11.908 12.936,11.909 12.936,12.122 12.865 C 12.408 12.770,12.628 12.617,12.758 12.422 C 12.961 12.118,12.973 12.033,12.991 10.779 L 13.008 9.642 13.185 9.603 C 13.725 9.482,13.997 8.906,13.754 8.396 C 13.682 8.245,13.559 8.128,13.367 8.028 L 13.217 7.950 8.016 7.940 L 2.816 7.930 2.650 8.016 M4.178 13.968 C 3.657 14.071,3.159 14.566,3.035 15.104 C 2.931 15.558,3.091 16.126,3.415 16.450 C 4.026 17.061,4.912 17.073,5.535 16.479 C 6.017 16.019,6.134 15.323,5.829 14.725 C 5.725 14.522,5.381 14.193,5.167 14.092 C 4.864 13.950,4.500 13.904,4.178 13.968 M11.178 13.968 C 10.657 14.071,10.159 14.566,10.035 15.104 C 9.931 15.558,10.091 16.126,10.415 16.450 C 11.026 17.061,11.912 17.073,12.535 16.479 C 13.017 16.019,13.134 15.323,12.829 14.725 C 12.725 14.522,12.381 14.193,12.167 14.092 C 11.864 13.950,11.500 13.904,11.178 13.968 M7.417 14.597 C 7.182 14.627,7.053 14.688,6.903 14.839 C 6.745 15.000,6.692 15.122,6.674 15.369 C 6.657 15.616,6.717 15.798,6.882 15.993 C 7.075 16.221,7.175 16.247,7.900 16.261 C 8.691 16.276,8.849 16.249,9.051 16.063 C 9.404 15.737,9.437 15.199,9.123 14.872 C 8.889 14.628,8.808 14.603,8.182 14.586 C 7.871 14.578,7.527 14.582,7.417 14.597 " fill="#1A1C1F" stroke="none" fill-rule="evenodd"></path></svg>