<svg width="32" height="32" viewBox="0 0 32 32" fill="none" xmlns="http://www.w3.org/2000/svg"><path d="M24.641 4.585 C 24.260 4.681,23.947 5.222,24.027 5.647 C 24.114 6.114,24.377 6.351,24.968 6.499 C 25.387 6.603,25.624 6.726,25.707 6.880 C 25.771 7.000,25.986 8.290,26.476 11.493 C 27.263 16.644,27.846 20.598,27.830 20.680 C 27.818 20.742,27.414 20.865,26.267 21.156 C 25.417 21.372,24.637 21.593,24.534 21.646 C 24.431 21.699,24.275 21.845,24.187 21.969 C 24.053 22.158,24.027 22.247,24.027 22.507 C 24.027 22.766,24.053 22.855,24.187 23.044 C 24.392 23.334,24.696 23.496,25.013 23.481 C 25.261 23.471,28.631 22.647,29.200 22.459 C 29.583 22.331,29.894 22.033,29.949 21.738 C 29.998 21.481,29.705 19.381,28.690 12.693 C 27.776 6.669,27.750 6.521,27.545 6.099 C 27.249 5.491,26.580 4.900,25.927 4.669 C 25.654 4.573,24.887 4.523,24.641 4.585 M3.122 12.572 C 2.658 12.588,2.570 12.607,2.421 12.721 C 2.043 13.009,1.901 13.523,2.097 13.901 C 2.228 14.155,2.516 14.402,2.755 14.467 L 2.977 14.526 3.000 16.183 C 3.026 17.999,3.047 18.152,3.373 18.825 C 3.608 19.310,4.271 19.969,4.764 20.208 C 5.057 20.350,5.229 20.393,5.644 20.430 C 6.345 20.493,20.510 20.491,21.270 20.428 C 21.958 20.371,22.266 20.258,22.751 19.883 C 23.231 19.511,23.603 18.972,23.873 18.256 C 23.997 17.925,24.000 17.879,24.000 16.218 L 24.000 14.519 24.241 14.459 C 24.698 14.344,25.074 13.792,24.984 13.369 C 24.927 13.100,24.757 12.836,24.548 12.692 L 24.355 12.560 14.004 12.557 C 8.311 12.555,3.414 12.562,3.122 12.572 M21.964 16.124 L 21.947 17.742 21.786 18.002 C 21.698 18.145,21.542 18.311,21.439 18.371 C 21.255 18.479,21.205 18.480,13.568 18.495 L 5.883 18.510 5.623 18.335 C 5.480 18.239,5.293 18.059,5.207 17.936 L 5.050 17.712 5.024 16.109 L 4.999 14.507 13.489 14.507 L 21.980 14.507 21.964 16.124 M6.747 21.528 C 5.982 21.616,5.418 21.887,4.879 22.426 C 3.767 23.539,3.719 25.271,4.767 26.487 C 5.038 26.801,5.619 27.180,6.070 27.337 C 6.383 27.446,6.558 27.472,6.976 27.471 C 7.856 27.469,8.483 27.208,9.107 26.585 C 9.693 26.000,9.971 25.329,9.973 24.505 C 9.974 23.349,9.337 22.327,8.302 21.827 C 7.843 21.605,7.181 21.478,6.747 21.528 M19.241 21.604 C 18.543 21.769,17.665 22.483,17.343 23.147 C 16.755 24.363,16.953 25.626,17.883 26.580 C 18.486 27.198,19.127 27.467,20.000 27.467 C 20.850 27.467,21.513 27.196,22.080 26.620 C 22.841 25.845,23.153 24.782,22.906 23.811 C 22.638 22.762,21.788 21.893,20.771 21.628 C 20.430 21.540,19.572 21.526,19.241 21.604 M12.773 22.134 C 12.422 22.204,11.946 22.387,11.636 22.573 C 10.954 22.980,10.805 23.615,11.268 24.142 C 11.612 24.534,11.939 24.568,12.654 24.286 C 13.323 24.023,13.728 24.018,14.297 24.268 C 14.515 24.364,14.796 24.454,14.921 24.468 C 15.859 24.575,16.356 23.398,15.639 22.768 C 15.374 22.535,14.766 22.255,14.318 22.161 C 13.924 22.077,13.129 22.063,12.773 22.134 M7.303 23.572 C 7.508 23.631,7.758 23.848,7.871 24.064 C 7.970 24.252,7.968 24.764,7.869 24.956 C 7.613 25.450,6.953 25.626,6.472 25.328 C 6.087 25.090,5.928 24.533,6.121 24.096 C 6.327 23.631,6.790 23.425,7.303 23.572 M20.474 23.650 C 20.917 23.879,21.099 24.541,20.841 24.985 C 20.455 25.651,19.539 25.651,19.162 24.985 C 19.022 24.739,19.002 24.353,19.113 24.092 C 19.206 23.876,19.457 23.637,19.659 23.572 C 19.863 23.508,20.274 23.547,20.474 23.650 " fill="#1A1C1F" stroke="none" fill-rule="evenodd"></path></svg>