<svg width="14" height="14" viewBox="0 0 14 14" fill="none" xmlns="http://www.w3.org/2000/svg"><path d="M9.573 2.204 C 9.532 2.222,9.451 2.284,9.394 2.342 C 9.216 2.519,9.172 2.786,9.284 3.004 C 9.382 3.194,9.553 3.293,9.886 3.351 C 10.129 3.393,10.275 3.464,10.393 3.595 C 10.523 3.738,10.584 3.895,10.637 4.223 C 10.693 4.563,10.938 6.359,11.105 7.653 C 11.169 8.147,11.227 8.589,11.234 8.634 L 11.246 8.716 10.785 8.946 C 9.972 9.352,9.904 9.417,9.920 9.776 C 9.927 9.935,9.938 9.973,9.999 10.060 C 10.146 10.269,10.408 10.376,10.634 10.318 C 10.786 10.279,12.170 9.587,12.282 9.494 C 12.400 9.395,12.483 9.218,12.483 9.061 C 12.483 8.903,12.009 5.318,11.842 4.212 C 11.753 3.626,11.723 3.510,11.592 3.243 C 11.484 3.025,11.446 2.973,11.237 2.765 C 10.916 2.446,10.636 2.291,10.220 2.203 C 10.023 2.161,9.671 2.162,9.573 2.204 M1.855 5.611 C 1.630 5.728,1.517 5.907,1.517 6.148 C 1.517 6.398,1.625 6.568,1.853 6.676 C 1.931 6.713,2.013 6.743,2.034 6.743 C 2.090 6.743,2.098 6.832,2.108 7.618 C 2.115 8.165,2.124 8.318,2.155 8.415 C 2.241 8.682,2.444 8.878,2.746 8.985 L 2.905 9.042 5.632 9.048 L 8.360 9.055 8.518 8.994 C 8.724 8.916,8.852 8.821,8.939 8.685 C 9.074 8.471,9.082 8.415,9.094 7.546 L 9.105 6.750 9.231 6.721 C 9.590 6.641,9.793 6.230,9.638 5.900 C 9.578 5.773,9.499 5.693,9.357 5.620 L 9.252 5.565 5.611 5.558 L 1.971 5.551 1.855 5.611 M2.924 9.776 C 2.667 9.831,2.388 10.034,2.247 10.270 C 1.964 10.743,2.116 11.380,2.582 11.673 C 3.008 11.941,3.506 11.886,3.878 11.532 C 4.268 11.160,4.305 10.559,3.965 10.150 C 3.829 9.987,3.683 9.882,3.508 9.820 C 3.360 9.768,3.066 9.746,2.924 9.776 M7.824 9.776 C 7.567 9.831,7.288 10.034,7.147 10.270 C 6.864 10.743,7.016 11.380,7.482 11.673 C 7.908 11.941,8.406 11.886,8.778 11.532 C 9.168 11.160,9.205 10.559,8.865 10.150 C 8.729 9.987,8.583 9.882,8.408 9.820 C 8.260 9.768,7.966 9.746,7.824 9.776 M5.189 10.218 C 4.852 10.260,4.647 10.511,4.671 10.851 C 4.688 11.089,4.875 11.312,5.100 11.364 C 5.150 11.376,5.381 11.386,5.613 11.386 C 6.140 11.387,6.229 11.365,6.376 11.201 C 6.647 10.900,6.576 10.489,6.218 10.277 C 6.132 10.227,6.092 10.221,5.728 10.211 C 5.510 10.205,5.267 10.208,5.189 10.218 " fill="#1A1C1F" stroke="none" fill-rule="evenodd"></path></svg>