<svg xmlns="http://www.w3.org/2000/svg" width="28" height="28" fill="none"><g clip-path="url(#a)"><path fill="#1A1C1F" fill-rule="evenodd" d="M6.124 18.813a2.625 2.625 0 1 1 0 5.25 2.625 2.625 0 0 1 0-5.25m11.376 0a2.625 2.625 0 1 1 0 5.25 2.625 2.625 0 0 1 0-5.25m-11.376 1.75a.875.875 0 1 0 0 1.75.875.875 0 0 0 0-1.75m11.376 0a.875.875 0 1 0 0 1.75.875.875 0 0 0 0-1.75m-3.89-.729a.875.875 0 0 1-.883 1.508 1.6 1.6 0 0 0-.883-.294 1.43 1.43 0 0 0-.86.243.875.875 0 1 1-.97-1.457 3.24 3.24 0 0 1 3.596 0m8.265-15.896a2.5 2.5 0 0 1 2.445 1.978 9764 9764 0 0 0 1.92 12.767c.086.548-.359.907-.653.978q-.295.072-3.5.875a.875.875 0 0 1-1.061-.636.883.883 0 0 1 .636-1.061l2.729-.684-1.774-11.828a.755.755 0 0 0-.742-.64.875.875 0 1 1 0-1.75m-.875 7c.483 0 .875.391.875.874a.886.886 0 0 1-.88.876v2.622c-.073 1.399-1.124 2.543-2.47 2.623H5.1c-1.346-.08-2.397-1.224-2.47-2.623l-.005-2.623a.875.875 0 0 1-.875-.874c0-.45.38-.876.875-.876zm-1.75 1.75H4.374l.006 2.58c.046.492.474.863.87.914h13.217c.395-.05.731-.421.777-.913z" clip-rule="evenodd"/></g><defs><clipPath id="a"><path fill="#fff" d="M0 0h28v28H0z"/></clipPath></defs></svg>