<svg width="16" height="16" viewBox="0 0 16 16" fill="none" xmlns="http://www.w3.org/2000/svg"><path d="M7.874 1.839 C 7.711 1.878,7.490 2.006,7.330 2.154 C 6.553 2.874,7.094 4.187,8.167 4.187 C 9.098 4.187,9.670 3.102,9.146 2.333 C 9.049 2.191,8.858 2.017,8.723 1.948 C 8.500 1.834,8.107 1.784,7.874 1.839 M7.560 4.970 C 7.273 5.089,6.242 5.560,5.743 5.801 C 5.303 6.014,5.163 6.117,5.090 6.281 C 4.996 6.494,4.770 7.808,4.765 8.173 C 4.762 8.420,4.815 8.567,4.968 8.737 C 5.196 8.990,5.606 9.069,5.899 8.917 C 6.023 8.853,6.257 8.604,6.290 8.501 C 6.314 8.426,6.410 7.830,6.474 7.361 L 6.494 7.216 6.774 7.089 C 6.927 7.020,7.069 6.962,7.089 6.961 C 7.116 6.960,7.121 6.991,7.110 7.087 C 7.102 7.156,7.062 7.633,7.022 8.147 L 6.950 9.080 6.098 10.760 C 5.264 12.407,4.948 13.056,4.881 13.264 C 4.778 13.577,5.033 14.027,5.380 14.145 C 5.539 14.199,5.770 14.198,5.933 14.143 C 6.196 14.053,6.224 14.007,7.029 12.383 C 7.434 11.566,7.793 10.833,7.828 10.755 C 7.862 10.677,7.900 10.613,7.912 10.613 C 7.924 10.613,8.140 10.820,8.392 11.073 L 8.850 11.533 9.143 12.333 C 9.723 13.922,9.735 13.947,10.003 14.092 C 10.109 14.150,10.190 14.172,10.335 14.181 C 10.596 14.198,10.762 14.141,10.931 13.975 C 11.118 13.793,11.179 13.659,11.180 13.428 C 11.180 13.198,11.159 13.124,10.800 12.120 C 10.371 10.924,10.268 10.663,10.182 10.565 C 10.140 10.516,9.820 10.221,9.473 9.908 C 9.125 9.595,8.782 9.279,8.710 9.206 L 8.581 9.072 8.652 8.090 C 8.691 7.550,8.728 7.103,8.734 7.097 C 8.740 7.091,8.881 7.173,9.046 7.281 C 9.840 7.796,10.051 7.925,10.187 7.976 C 10.559 8.117,11.012 7.923,11.182 7.551 C 11.310 7.271,11.229 6.882,10.996 6.649 C 10.832 6.487,8.503 5.022,8.260 4.929 C 8.056 4.850,7.816 4.865,7.560 4.970 " fill="#1A1C1F" stroke="none" fill-rule="evenodd"></path></svg>