<svg xmlns="http://www.w3.org/2000/svg" width="32" height="32" fill="none"><path fill="#1A1C1F" fill-rule="evenodd" d="M15.653 2.103c-.889.25-1.554.797-1.949 1.602-.17.346-.315.937-.315 1.282 0 .358.147.936.346 1.354.22.464.786 1.059 1.235 1.3.361.194 1.019.359 1.425.358 1.859-.004 3.322-1.78 2.944-3.572-.101-.481-.378-1.057-.669-1.394-.274-.316-.848-.707-1.257-.856-.407-.148-1.355-.188-1.76-.074m1.276 2.078c.478.281.631.933.322 1.377-.283.407-.762.563-1.185.386-.569-.237-.787-.872-.486-1.417.253-.459.881-.62 1.349-.346m-1.746 5.5c-.362.091-4.626 2.262-4.849 2.469-.08.074-.181.233-.225.352-.044.12-.191.96-.327 1.867-.211 1.412-.238 1.679-.185 1.854.071.238.326.548.542.66.175.09.564.101.778.02.19-.072.472-.342.546-.523.031-.077.153-.739.271-1.47.118-.732.226-1.341.239-1.354a70 70 0 0 1 1.345-.763c1.072-.6 1.325-.722 1.337-.646.009.052-.119 1.413-.283 3.027a156 156 0 0 0-.304 3.173c-.012.522-.008.527 2.075 2.618l1.945 1.952.814 3.248c.447 1.787.842 3.301.876 3.366.1.186.389.378.662.439.531.119 1.095-.255 1.185-.785.028-.165-.135-.902-.8-3.616-.46-1.874-.872-3.48-.915-3.569s-.92-1.002-1.946-2.031l-1.865-1.87.355-3.673c.199-2.064.339-3.756.32-3.863-.136-.756-.747-1.095-1.591-.882m3.084 2.214c-.598.126-.912.651-.739 1.235.065.221.181.37.69.895l.612.63 1.212.629c1.094.569 1.243.632 1.543.652.284.02.365.003.566-.114.558-.328.665-1.019.233-1.513-.128-.147-.434-.324-1.237-.716l-1.067-.521-.507-.513c-.278-.282-.554-.54-.613-.572-.151-.085-.505-.131-.693-.092m-5.125 8.95a1 1 0 0 0-.323.237c-.161.204-3.425 7.571-3.464 7.82-.028.173-.006.275.109.511.268.547.867.736 1.38.435.129-.075.27-.192.314-.259s.833-1.814 1.754-3.882c1.437-3.227 1.674-3.795 1.671-4.006-.005-.294-.136-.537-.41-.759-.261-.21-.7-.252-1.031-.097"/></svg>