<svg xmlns="http://www.w3.org/2000/svg" width="20" height="20" fill="none"><g clip-path="url(#a)"><path fill="#1A1C1F" fill-rule="evenodd" d="M10.39 6.328q1.566.982 3.13 1.974a.85.85 0 0 1 .264 1.172.86.86 0 0 1-1.172.266q-.922-.577-1.84-1.162l-.24 2.814c.055.024.202.124.245.165a448 448 0 0 1 1.744 1.673c.071.069.195.28.212.327q.523 1.452 1.042 2.909a.85.85 0 0 1-.513 1.087c-.408.146-.894-.046-1.087-.514q-.49-1.358-.976-2.72l-1.314-1.262-2.063 4.075a.85.85 0 0 1-1.142.375c-.387-.196-.614-.754-.374-1.143q1.257-2.49 2.52-4.978l.255-3.003-1.057.493-.251 1.51c-.072.427-.552.769-.979.697a.85.85 0 0 1-.709-.872l.337-2.056c.04-.237.21-.53.48-.63q1.336-.628 2.675-1.248a.9.9 0 0 1 .813.051m-.18-3.929a1.35 1.35 0 1 1 0 2.7 1.35 1.35 0 0 1 0-2.7" clip-rule="evenodd"/></g><defs><clipPath id="a"><path fill="#fff" d="M0 0h20v20H0z"/></clipPath></defs></svg>