<svg width="32" height="32" viewBox="0 0 32 32" fill="none" xmlns="http://www.w3.org/2000/svg"><path d="M15.775 2.078 C 15.280 2.168,14.677 2.509,14.250 2.941 C 13.602 3.595,13.266 4.679,13.458 5.496 C 13.597 6.086,13.755 6.435,14.056 6.820 C 14.615 7.535,15.344 7.919,16.267 7.985 C 17.177 8.050,18.163 7.581,18.758 6.800 C 19.532 5.785,19.599 4.605,18.949 3.433 C 18.670 2.929,17.988 2.390,17.365 2.179 C 17.042 2.070,16.135 2.013,15.775 2.078 M16.849 4.149 C 17.330 4.390,17.535 5.029,17.277 5.488 C 16.991 5.995,16.368 6.161,15.902 5.852 C 15.400 5.520,15.313 4.793,15.723 4.354 C 16.003 4.054,16.483 3.967,16.849 4.149 M15.370 9.660 C 15.161 9.686,14.742 9.866,13.770 10.345 C 12.376 11.032,10.628 11.947,10.393 12.113 C 10.167 12.272,10.085 12.525,9.895 13.666 C 9.622 15.304,9.541 16.003,9.602 16.221 C 9.673 16.480,9.991 16.833,10.220 16.909 C 10.682 17.061,11.215 16.846,11.423 16.423 C 11.473 16.322,11.615 15.636,11.739 14.898 L 11.964 13.556 13.062 12.943 C 14.732 12.011,14.680 12.029,14.638 12.387 C 14.529 13.303,14.080 18.125,14.080 18.380 C 14.080 18.645,14.108 18.743,14.245 18.959 C 14.335 19.102,15.237 20.052,16.248 21.070 L 18.087 22.922 18.879 26.061 C 19.315 27.787,19.703 29.295,19.742 29.411 C 19.902 29.883,20.584 30.113,21.094 29.867 C 21.414 29.711,21.618 29.412,21.613 29.105 C 21.611 28.981,21.522 28.496,21.416 28.027 C 21.117 26.709,19.998 22.233,19.921 22.049 C 19.884 21.959,19.010 21.031,17.978 19.988 L 16.104 18.090 16.317 15.885 C 16.801 10.878,16.822 10.530,16.671 10.240 C 16.418 9.755,16.020 9.577,15.370 9.660 M17.968 12.017 C 17.539 12.244,17.366 12.808,17.584 13.267 C 17.633 13.372,17.951 13.740,18.290 14.086 L 18.907 14.714 20.061 15.300 C 21.566 16.063,21.875 16.113,22.326 15.662 C 22.619 15.368,22.708 15.083,22.611 14.740 C 22.497 14.331,22.264 14.150,21.139 13.599 C 20.136 13.107,20.132 13.104,19.571 12.556 C 19.261 12.253,18.942 11.980,18.861 11.949 C 18.608 11.853,18.224 11.882,17.968 12.017 M13.275 20.795 C 12.832 20.938,12.825 20.952,11.131 24.773 C 9.166 29.206,9.214 29.065,9.520 29.497 C 9.782 29.867,9.927 29.947,10.341 29.947 C 10.891 29.947,11.036 29.828,11.387 29.093 C 11.812 28.202,14.202 22.807,14.392 22.308 C 14.584 21.807,14.602 21.544,14.461 21.279 C 14.258 20.897,13.684 20.662,13.275 20.795 " fill="#1A1C1F" stroke="none" fill-rule="evenodd"></path></svg>