<svg width="14" height="14" viewBox="0 0 14 14" fill="none" xmlns="http://www.w3.org/2000/svg"><path d="M6.890 1.609 C 6.612 1.675,6.259 1.976,6.162 2.228 C 5.944 2.800,6.241 3.416,6.831 3.615 C 7.489 3.836,8.181 3.314,8.175 2.602 C 8.172 2.232,7.951 1.867,7.633 1.705 C 7.437 1.605,7.094 1.561,6.890 1.609 M6.487 4.407 C 6.313 4.481,5.914 4.661,5.600 4.805 C 4.652 5.241,4.535 5.311,4.454 5.495 C 4.373 5.681,4.142 7.041,4.161 7.227 C 4.187 7.488,4.407 7.761,4.655 7.841 C 4.781 7.881,4.987 7.876,5.097 7.830 C 5.216 7.781,5.364 7.658,5.443 7.544 C 5.514 7.442,5.532 7.360,5.621 6.744 L 5.683 6.313 5.927 6.203 C 6.062 6.142,6.185 6.092,6.202 6.091 C 6.224 6.090,6.228 6.119,6.219 6.201 C 6.212 6.262,6.179 6.679,6.144 7.128 L 6.081 7.944 5.337 9.414 C 4.605 10.859,4.329 11.425,4.270 11.606 C 4.181 11.880,4.404 12.273,4.707 12.377 C 4.847 12.424,5.049 12.423,5.192 12.375 C 5.421 12.296,5.449 12.253,6.134 10.867 C 6.479 10.171,6.793 9.531,6.832 9.444 C 6.872 9.358,6.912 9.287,6.923 9.287 C 6.934 9.287,7.122 9.468,7.343 9.689 L 7.743 10.092 8.000 10.792 C 8.509 12.184,8.517 12.202,8.754 12.333 C 8.866 12.395,8.899 12.402,9.088 12.402 C 9.334 12.402,9.429 12.365,9.583 12.212 C 9.731 12.063,9.782 11.946,9.782 11.750 C 9.782 11.546,9.761 11.474,9.450 10.605 C 9.075 9.559,8.984 9.330,8.910 9.244 C 8.872 9.202,8.593 8.943,8.288 8.669 C 7.984 8.396,7.684 8.119,7.622 8.055 L 7.508 7.938 7.570 7.079 C 7.604 6.607,7.637 6.216,7.642 6.210 C 7.648 6.204,7.771 6.277,7.915 6.371 C 8.610 6.822,8.795 6.934,8.913 6.979 C 9.239 7.103,9.635 6.933,9.784 6.607 C 9.896 6.362,9.826 6.022,9.621 5.818 C 9.478 5.676,7.440 4.394,7.227 4.312 C 7.159 4.286,7.055 4.270,6.959 4.270 C 6.819 4.270,6.767 4.285,6.487 4.407 " fill="#1A1C1F" stroke="none" fill-rule="evenodd"></path></svg>