<svg width="12" height="12" viewBox="0 0 12 12" fill="none" xmlns="http://www.w3.org/2000/svg"><path d="M5.973 1.461 C 5.759 1.497,5.516 1.671,5.422 1.857 C 5.365 1.967,5.320 2.148,5.320 2.262 C 5.320 2.494,5.469 2.773,5.664 2.906 C 6.049 3.170,6.536 3.077,6.799 2.691 C 6.903 2.537,6.946 2.331,6.918 2.125 C 6.870 1.784,6.597 1.517,6.240 1.461 C 6.169 1.449,6.101 1.441,6.090 1.443 C 6.079 1.444,6.026 1.452,5.973 1.461 M5.840 3.738 C 5.640 3.805,4.144 4.512,4.038 4.589 C 3.988 4.625,3.931 4.689,3.911 4.730 C 3.847 4.865,3.652 6.025,3.665 6.190 C 3.686 6.452,3.893 6.647,4.150 6.647 C 4.324 6.647,4.505 6.545,4.597 6.394 C 4.635 6.332,4.698 6.044,4.771 5.600 C 4.789 5.485,4.813 5.375,4.822 5.357 C 4.840 5.323,5.293 5.093,5.389 5.068 C 5.442 5.055,5.442 5.056,5.431 5.153 C 5.425 5.206,5.393 5.601,5.359 6.030 L 5.297 6.810 4.520 8.360 C 4.093 9.213,3.737 9.944,3.730 9.984 C 3.711 10.085,3.763 10.252,3.849 10.364 C 4.021 10.590,4.357 10.618,4.567 10.423 C 4.654 10.342,4.744 10.177,5.361 8.965 L 5.933 7.841 6.325 8.212 L 6.716 8.583 6.832 8.906 C 7.318 10.270,7.331 10.304,7.432 10.396 C 7.551 10.505,7.618 10.539,7.736 10.553 C 7.929 10.576,8.125 10.468,8.225 10.286 C 8.309 10.132,8.313 10.051,8.250 9.857 C 8.173 9.624,7.823 8.645,7.701 8.320 L 7.598 8.050 7.264 7.713 C 6.911 7.358,6.467 6.936,6.375 6.870 L 6.321 6.830 6.390 6.040 C 6.429 5.605,6.460 5.234,6.460 5.215 C 6.460 5.196,6.470 5.180,6.482 5.180 C 6.494 5.180,6.715 5.311,6.973 5.471 C 7.727 5.939,7.767 5.956,7.982 5.893 C 8.318 5.795,8.449 5.393,8.240 5.100 C 8.189 5.028,6.403 3.885,6.187 3.786 C 6.072 3.734,5.917 3.712,5.840 3.738 " fill="#1A1C1F" stroke="none" fill-rule="evenodd"></path></svg>