<svg width="28" height="28" viewBox="0 0 28 28" fill="none" xmlns="http://www.w3.org/2000/svg"><path d="M13.803 1.818 C 13.370 1.897,12.842 2.195,12.468 2.573 C 11.902 3.146,11.608 4.094,11.776 4.809 C 11.897 5.325,12.035 5.631,12.299 5.968 C 12.788 6.593,13.426 6.929,14.233 6.987 C 15.030 7.043,15.892 6.634,16.413 5.950 C 17.090 5.062,17.149 4.030,16.580 3.004 C 16.336 2.563,15.739 2.091,15.194 1.907 C 14.912 1.812,14.119 1.761,13.803 1.818 M14.746 3.640 C 15.028 3.783,15.181 4.018,15.204 4.340 C 15.220 4.561,15.204 4.648,15.117 4.802 C 14.867 5.246,14.322 5.391,13.915 5.121 C 13.475 4.830,13.399 4.194,13.758 3.809 C 14.010 3.540,14.414 3.470,14.746 3.640 M13.453 8.452 C 13.275 8.474,12.895 8.637,12.054 9.050 C 10.846 9.644,9.304 10.451,9.094 10.598 C 8.896 10.738,8.825 10.960,8.658 11.958 C 8.419 13.391,8.349 14.003,8.401 14.193 C 8.464 14.420,8.742 14.729,8.943 14.795 C 9.347 14.929,9.814 14.740,9.996 14.370 C 10.039 14.282,10.163 13.682,10.271 13.036 L 10.469 11.861 11.429 11.325 C 12.902 10.503,12.841 10.524,12.806 10.862 C 12.603 12.812,12.320 15.847,12.320 16.071 C 12.320 16.316,12.343 16.398,12.464 16.589 C 12.544 16.714,13.332 17.546,14.217 18.437 L 15.826 20.057 16.495 22.710 C 17.290 25.868,17.288 25.860,17.420 25.984 C 17.810 26.351,18.506 26.280,18.794 25.846 C 18.954 25.604,18.947 25.443,18.739 24.523 C 18.477 23.370,17.498 19.454,17.431 19.293 C 17.398 19.214,16.634 18.403,15.732 17.490 L 14.093 15.831 14.326 13.387 C 14.646 10.029,14.700 9.315,14.649 9.128 C 14.508 8.619,14.073 8.373,13.453 8.452 M15.723 10.515 C 15.483 10.642,15.294 10.960,15.294 11.238 C 15.294 11.536,15.441 11.760,16.004 12.321 C 16.507 12.822,16.586 12.881,17.187 13.201 C 18.539 13.922,18.919 14.046,19.286 13.889 C 19.619 13.747,19.863 13.334,19.813 12.999 C 19.748 12.567,19.554 12.410,18.387 11.844 C 17.630 11.477,17.608 11.462,17.124 10.988 C 16.854 10.722,16.574 10.483,16.503 10.456 C 16.282 10.372,15.946 10.397,15.723 10.515 M11.616 18.195 C 11.325 18.290,11.233 18.402,10.940 19.016 C 10.580 19.771,9.089 23.125,8.556 24.381 C 8.114 25.421,8.103 25.490,8.341 25.825 C 8.559 26.133,8.690 26.203,9.049 26.203 C 9.319 26.203,9.392 26.184,9.555 26.071 C 9.774 25.920,9.795 25.876,11.346 22.388 C 12.863 18.974,12.811 19.105,12.746 18.861 C 12.676 18.599,12.549 18.421,12.346 18.295 C 12.169 18.185,11.801 18.135,11.616 18.195 " fill="#1A1C1F" stroke="none" fill-rule="evenodd"></path></svg>