<svg width="20" height="20" viewBox="0 0 20 20" fill="none" xmlns="http://www.w3.org/2000/svg"><path d="M9.843 2.299 C 9.639 2.347,9.363 2.507,9.163 2.692 C 8.191 3.592,8.867 5.233,10.209 5.233 C 11.373 5.233,12.088 3.878,11.432 2.916 C 11.311 2.738,11.072 2.521,10.904 2.436 C 10.624 2.293,10.134 2.230,9.843 2.299 M9.417 6.229 C 8.897 6.450,7.704 6.996,7.147 7.268 C 6.540 7.564,6.406 7.679,6.317 7.973 C 6.246 8.210,6.052 9.308,5.982 9.869 C 5.930 10.289,5.929 10.336,5.980 10.509 C 6.146 11.082,6.793 11.402,7.316 11.170 C 7.503 11.088,7.814 10.778,7.862 10.627 C 7.892 10.532,8.013 9.787,8.092 9.201 L 8.117 9.020 8.467 8.861 C 8.659 8.774,8.837 8.703,8.861 8.702 C 8.895 8.700,8.902 8.738,8.887 8.858 C 8.877 8.945,8.827 9.542,8.778 10.183 L 8.688 11.350 7.642 13.417 C 6.589 15.497,6.178 16.340,6.100 16.580 C 5.974 16.972,6.292 17.533,6.724 17.681 C 6.924 17.749,7.213 17.748,7.417 17.678 C 7.743 17.567,7.783 17.504,8.754 15.543 C 9.243 14.557,9.692 13.641,9.753 13.508 C 9.813 13.375,9.875 13.267,9.890 13.267 C 9.905 13.267,10.175 13.525,10.490 13.842 L 11.062 14.417 11.497 15.604 C 12.064 17.150,12.145 17.341,12.287 17.466 C 12.514 17.665,12.655 17.715,12.983 17.716 C 13.334 17.717,13.470 17.665,13.689 17.446 C 13.902 17.234,13.974 17.065,13.974 16.786 C 13.974 16.494,13.944 16.392,13.499 15.150 C 12.964 13.655,12.835 13.328,12.728 13.206 C 12.675 13.145,12.276 12.776,11.841 12.385 C 11.406 11.994,10.977 11.599,10.888 11.507 L 10.726 11.340 10.814 10.113 C 10.863 9.438,10.910 8.879,10.917 8.871 C 10.925 8.863,11.101 8.967,11.308 9.101 C 12.715 10.015,12.784 10.050,13.119 10.024 C 13.379 10.004,13.591 9.909,13.767 9.733 C 14.118 9.382,14.153 8.879,13.856 8.446 C 13.727 8.258,13.618 8.181,12.250 7.320 C 10.332 6.112,10.309 6.099,9.937 6.101 C 9.757 6.102,9.661 6.125,9.417 6.229 " fill="#1A1C1F" stroke="none" fill-rule="evenodd"></path></svg>