<svg width="28" height="28" viewBox="0 0 28 28" fill="none" xmlns="http://www.w3.org/2000/svg"><path d="M13.694 1.979 C 13.327 2.094,12.901 2.359,12.600 2.660 C 12.120 3.140,11.901 3.673,11.901 4.363 C 11.901 5.065,12.118 5.585,12.623 6.091 C 12.997 6.465,13.399 6.686,13.893 6.791 C 14.297 6.877,14.510 6.876,14.884 6.788 C 16.018 6.521,16.844 5.508,16.846 4.385 C 16.848 3.270,16.076 2.265,15.001 1.985 C 14.672 1.899,13.959 1.896,13.694 1.979 M14.887 3.536 C 15.142 3.691,15.353 4.066,15.353 4.363 C 15.353 4.645,15.143 5.031,14.894 5.203 C 14.718 5.325,14.651 5.343,14.378 5.343 C 14.112 5.343,14.033 5.323,13.869 5.215 C 13.320 4.852,13.237 4.121,13.692 3.666 C 14.022 3.335,14.476 3.286,14.887 3.536 M13.031 8.663 C 11.962 9.216,9.469 10.549,9.277 10.670 C 9.182 10.730,9.082 10.820,9.055 10.870 C 8.924 11.115,8.493 13.453,8.493 13.920 C 8.493 14.229,8.574 14.418,8.764 14.553 C 9.050 14.757,9.374 14.738,9.645 14.500 C 9.738 14.418,9.842 14.285,9.875 14.204 C 9.909 14.124,10.032 13.537,10.148 12.901 C 10.264 12.265,10.365 11.741,10.371 11.735 C 10.464 11.655,12.942 10.407,12.964 10.429 C 12.981 10.445,12.873 11.670,12.726 13.151 C 12.578 14.632,12.458 15.938,12.459 16.053 C 12.463 16.441,12.642 16.662,14.337 18.370 L 15.919 19.963 16.455 22.056 C 17.193 24.941,17.395 25.671,17.492 25.807 C 17.538 25.871,17.669 25.972,17.783 26.030 C 18.021 26.153,18.229 26.139,18.457 25.985 C 18.707 25.816,18.784 25.671,18.776 25.387 C 18.769 25.154,17.790 21.139,17.400 19.745 L 17.252 19.214 15.601 17.545 L 13.950 15.876 14.207 13.409 C 14.579 9.844,14.607 9.549,14.607 9.111 C 14.607 8.718,14.605 8.713,14.442 8.559 C 14.281 8.407,14.037 8.307,13.824 8.307 C 13.766 8.307,13.409 8.467,13.031 8.663 M15.780 10.533 C 15.562 10.640,15.377 10.935,15.377 11.173 C 15.378 11.408,15.512 11.610,16.090 12.251 L 16.512 12.717 17.575 13.253 C 18.582 13.762,18.653 13.790,18.921 13.790 C 19.258 13.790,19.457 13.673,19.601 13.391 C 19.786 13.028,19.690 12.733,19.306 12.487 C 19.173 12.402,18.696 12.149,18.247 11.924 C 17.433 11.518,17.428 11.514,17.011 11.071 C 16.451 10.476,16.156 10.347,15.780 10.533 M11.546 18.382 C 11.369 18.489,11.225 18.668,11.111 18.920 C 9.809 21.805,8.349 25.143,8.326 25.286 C 8.247 25.776,8.788 26.244,9.255 26.089 C 9.340 26.061,9.476 25.970,9.556 25.887 C 9.710 25.727,9.816 25.502,11.338 22.073 C 12.337 19.825,12.600 19.172,12.600 18.943 C 12.600 18.473,11.957 18.131,11.546 18.382 " fill="#1A1C1F" stroke="none" fill-rule="evenodd"></path></svg>