<svg xmlns="http://www.w3.org/2000/svg" width="12" height="12" fill="none"><g clip-path="url(#a)"><path fill="#1A1C1F" fill-rule="evenodd" d="M6.234 3.797q.94.59 1.877 1.184a.51.51 0 0 1 .16.704.516.516 0 0 1-.704.159q-.553-.346-1.104-.697l-.144 1.688a1 1 0 0 1 .147.099c.524.5 1.047 1.004 1.047 1.004a1 1 0 0 1 .127.196q.314.871.625 1.746a.51.51 0 0 1-.308.652.52.52 0 0 1-.652-.308L6.72 8.59l-.789-.757-1.238 2.445a.51.51 0 0 1-.685.225c-.232-.117-.368-.452-.225-.685q.754-1.496 1.512-2.987L5.45 5.03l-.634.296-.151.905a.54.54 0 0 1-.588.42.51.51 0 0 1-.425-.524l.202-1.234c.024-.142.127-.318.288-.378q.802-.376 1.605-.749a.54.54 0 0 1 .488.03M6.126 1.44a.81.81 0 1 1 0 1.62.81.81 0 0 1 0-1.62" clip-rule="evenodd"/></g><defs><clipPath id="a"><path fill="#fff" d="M0 0h12v12H0z"/></clipPath></defs></svg>