<svg xmlns="http://www.w3.org/2000/svg" width="32" height="32" fill="none"><g clip-path="url(#a)"><path fill="#1A1C1F" fill-rule="evenodd" d="M9.348 28.986c0-.126.032-.253.095-.411l3.22-7.24a1 1 0 0 1 .918-.602 1.02 1.02 0 0 1 1.014 1.014.84.84 0 0 1-.095.38l-3.22 7.24c-.158.38-.538.633-.918.633a1 1 0 0 1-1.014-1.014M9.57 15.81l.475-3.136a.97.97 0 0 1 .634-.76L14.793 9.8c.348-.127.633-.19.887-.19.76 0 1.14.538 1.108 1.298l-.693 7.183 3.61 3.611q.192.19.286.476l1.615 6.586c.159.633-.316 1.267-.982 1.235-.443 0-.855-.285-.95-.76l-1.584-6.333-3.674-3.643a1.25 1.25 0 0 1-.348-1.045l.63-6.201-2.752 1.545-.412 2.566a.99.99 0 0 1-.982.855c-.602 0-1.077-.57-.982-1.172M16.403 2a3 3 0 0 1 3 3c0 1.625-1.344 3-3 3a3 3 0 0 1 0-6m.027 2.027c-.563 0-1 .438-1 1 0 .531.437 1 1 1 .531 0 1-.469 1-1 0-.562-.469-1-1-1m1.035 8.814c0-.538.444-.982.982-.982.285 0 .538.095.729.285l.942.942 1.995.982c.349.19.539.538.539.918a.987.987 0 0 1-.982.982 1.3 1.3 0 0 1-.475-.095l-2.091-1.077a.7.7 0 0 1-.253-.158l-1.07-1.068a1.03 1.03 0 0 1-.316-.729" clip-rule="evenodd"/></g><defs><clipPath id="a"><path fill="#fff" d="M0 0h32v32H0z"/></clipPath></defs></svg>