<svg xmlns="http://www.w3.org/2000/svg" width="24" height="24" fill="none"><g clip-path="url(#a)"><path fill="#1A1C1F" fill-rule="evenodd" d="M10.783 7.546c.154-.092.339-.123.524-.123.708 0 1.201.462 1.14 1.263l-.308 4.839 2.65 2.62c.092.122.185.276.246.461l1.048 4.191A1.004 1.004 0 0 1 15.097 22c-.462 0-.832-.308-.955-.74l-.986-3.913-2.743-2.712c-.185-.185-.37-.4-.308-.801l.246-3.976-1.17.524-.278 1.788a.99.99 0 0 1-.986.832c-.524 0-1.11-.462-.986-1.14l.339-2.343c.061-.338.308-.616.616-.77zm-1.15 8.466c.596 0 .987.442.987.986 0 .123 0 .277-.062.4L8.81 21.385c-.123.37-.493.616-.924.616-.586 0-.986-.493-.986-1.017 0-.123.061-.277.092-.4l1.717-3.986c.185-.37.555-.585.924-.585m5.242-6.268 1.67.853a.98.98 0 0 1 .555.863c0 .616-.493 1.017-1.017 1.017-.154 0-.277-.03-.431-.093l-1.671-.853a1 1 0 0 1-.555-.894c0-.523.308-1.047.986-1.047a.83.83 0 0 1 .462.154M11.95 2c1.107 0 2 .892 2 2s-.893 2-2 2c-1.077 0-2-.892-2-2s.923-2 2-2" clip-rule="evenodd"/></g><defs><clipPath id="a"><path fill="#fff" d="M0 0h24v24H0z"/></clipPath></defs></svg>