<svg xmlns="http://www.w3.org/2000/svg" width="14" height="14" fill="none"><g clip-path="url(#a)"><path fill="#1A1C1F" fill-rule="evenodd" d="M4.358 11.372 6.082 7.95l.156-1.886-.56.247-.134.963a.7.7 0 0 1-.694.605.713.713 0 0 1-.695-.695v-.112l.224-1.344a.66.66 0 0 1 .381-.537l1.366-.627c.224-.09.605-.314.874-.314.246 0 .538.224.694.314l1.837 1.164c.18.135.314.359.314.605a.7.7 0 0 1-.695.695.77.77 0 0 1-.403-.112l-1.12-.74-.125 1.793 1.25 1.12a.74.74 0 0 1 .29.38l.736 2.061c0 .067.022.134.022.202a.713.713 0 0 1-.694.694.7.7 0 0 1-.695-.515l-.668-1.815-.821-.83-1.377 2.802c-.134.224-.336.358-.604.358a.7.7 0 0 1-.695-.694c0-.135.023-.247.112-.359m1.724-8.747c0-.58.491-1.05 1.05-1.05.603 0 1.05.47 1.05 1.05 0 .559-.447 1.05-1.05 1.05-.559 0-1.05-.491-1.05-1.05" clip-rule="evenodd"/></g><defs><clipPath id="a"><path fill="#fff" d="M0 0h14v14H0z"/></clipPath></defs></svg>