<svg xmlns="http://www.w3.org/2000/svg" width="16" height="16" fill="none"><g clip-path="url(#a)"><path fill="#1A1C1F" fill-rule="evenodd" d="M8.312 5.062q1.253.787 2.503 1.58c.318.2.413.62.213.938a.69.69 0 0 1-.938.212q-.738-.462-1.473-.93l-.191 2.252c.043.02.161.099.196.131.698.667 1.395 1.34 1.395 1.34.057.054.156.223.17.26l.833 2.328a.68.68 0 0 1-.41.87.69.69 0 0 1-.87-.411q-.393-1.087-.78-2.177l-1.052-1.01-1.65 3.26a.68.68 0 0 1-.914.3c-.31-.156-.49-.602-.3-.914Q6.052 11.1 7.06 9.11l.205-2.403-.845.395-.202 1.207c-.057.342-.44.616-.783.559a.68.68 0 0 1-.567-.698l.27-1.645c.032-.19.168-.423.383-.504q1.07-.503 2.14-.999a.72.72 0 0 1 .651.041M8.168 1.92a1.08 1.08 0 1 1 0 2.16 1.08 1.08 0 0 1 0-2.16" clip-rule="evenodd"/></g><defs><clipPath id="a"><path fill="#fff" d="M0 0h16v16H0z"/></clipPath></defs></svg>