<svg width="24" height="24" viewBox="0 0 24 24" fill="none" xmlns="http://www.w3.org/2000/svg"><path d="M11.600 2.043 C 10.857 2.172,10.220 2.778,10.020 3.548 C 9.752 4.575,10.427 5.659,11.508 5.940 C 12.556 6.213,13.695 5.458,13.921 4.341 C 14.105 3.430,13.507 2.439,12.579 2.120 C 12.308 2.026,11.887 1.994,11.600 2.043 M10.800 7.555 C 10.404 7.693,8.505 8.488,7.978 8.737 C 7.598 8.916,7.398 9.099,7.322 9.339 C 7.274 9.490,7.017 11.151,6.953 11.725 C 6.910 12.104,6.913 12.169,6.974 12.330 C 7.057 12.546,7.262 12.768,7.492 12.889 C 7.878 13.092,8.436 12.963,8.707 12.609 C 8.852 12.418,8.877 12.316,9.058 11.182 L 9.185 10.383 9.742 10.135 L 10.300 9.887 10.312 10.035 C 10.318 10.116,10.287 10.767,10.241 11.481 C 10.195 12.196,10.147 13.099,10.133 13.489 L 10.108 14.197 10.218 14.365 C 10.279 14.457,10.965 15.164,11.743 15.936 L 13.156 17.340 13.598 19.100 C 14.180 21.416,14.201 21.483,14.420 21.702 C 14.901 22.183,15.697 22.041,15.985 21.422 C 16.112 21.150,16.105 20.973,15.940 20.245 C 15.746 19.388,15.148 17.050,15.018 16.640 L 14.910 16.300 13.529 14.912 L 12.148 13.523 12.255 11.812 C 12.474 8.296,12.474 8.301,12.326 8.012 C 12.149 7.664,11.855 7.482,11.425 7.455 C 11.183 7.439,11.089 7.454,10.800 7.555 M14.075 9.653 C 13.841 9.740,13.703 9.860,13.578 10.087 C 13.475 10.273,13.460 10.340,13.460 10.620 C 13.460 10.899,13.474 10.965,13.573 11.133 C 13.712 11.369,13.895 11.490,14.859 11.983 C 15.703 12.414,15.952 12.502,16.209 12.464 C 16.455 12.427,16.792 12.216,16.938 12.007 C 17.040 11.862,17.061 11.790,17.073 11.547 C 17.085 11.293,17.074 11.235,16.972 11.040 C 16.826 10.761,16.718 10.690,15.541 10.095 C 14.552 9.595,14.374 9.542,14.075 9.653 M9.218 16.120 C 8.840 16.307,8.775 16.426,7.769 18.780 C 7.021 20.530,6.920 20.797,6.920 21.035 C 6.920 21.394,7.083 21.663,7.423 21.863 C 7.765 22.065,8.228 22.015,8.546 21.743 C 8.677 21.631,8.759 21.493,8.959 21.051 C 9.333 20.224,10.503 17.488,10.576 17.268 C 10.731 16.807,10.430 16.226,9.966 16.086 C 9.725 16.014,9.402 16.029,9.218 16.120 " fill="#1A1C1F" stroke="none" fill-rule="evenodd"></path></svg>