<svg width="14" height="14" viewBox="0 0 14 14" fill="none" xmlns="http://www.w3.org/2000/svg"><path d="M6.969 1.704 C 6.805 1.732,6.609 1.836,6.483 1.961 C 6.077 2.368,6.139 3.069,6.609 3.391 C 7.019 3.672,7.516 3.612,7.849 3.242 C 8.036 3.034,8.112 2.774,8.071 2.480 C 8.016 2.083,7.697 1.770,7.280 1.704 C 7.197 1.691,7.118 1.682,7.105 1.683 C 7.092 1.684,7.031 1.694,6.969 1.704 M6.813 4.361 C 6.580 4.440,4.834 5.264,4.711 5.353 C 4.653 5.396,4.586 5.471,4.563 5.519 C 4.501 5.650,4.270 6.955,4.270 7.177 C 4.270 7.513,4.593 7.807,4.909 7.760 C 5.045 7.740,5.243 7.617,5.333 7.498 C 5.410 7.398,5.455 7.210,5.567 6.522 C 5.588 6.393,5.615 6.271,5.626 6.249 C 5.647 6.210,6.175 5.941,6.288 5.913 C 6.349 5.898,6.349 5.898,6.336 6.011 C 6.330 6.074,6.291 6.535,6.252 7.035 L 6.180 7.945 5.274 9.753 C 4.775 10.748,4.360 11.600,4.352 11.647 C 4.314 11.845,4.480 12.154,4.673 12.247 C 4.981 12.396,5.272 12.299,5.461 11.984 C 5.516 11.893,5.812 11.325,6.119 10.722 C 6.785 9.415,6.905 9.193,6.944 9.193 C 6.960 9.193,7.167 9.378,7.403 9.603 L 7.834 10.013 8.062 10.647 C 8.575 12.074,8.556 12.030,8.677 12.136 C 8.816 12.259,8.890 12.296,9.025 12.312 C 9.250 12.339,9.480 12.213,9.595 12.001 C 9.693 11.821,9.699 11.726,9.625 11.500 C 9.536 11.228,9.127 10.086,8.984 9.707 L 8.865 9.392 8.475 8.999 C 8.063 8.584,7.545 8.092,7.438 8.015 L 7.374 7.968 7.455 7.047 C 7.500 6.540,7.536 6.107,7.536 6.084 C 7.537 6.062,7.549 6.043,7.563 6.043 C 7.578 6.043,7.837 6.197,8.138 6.386 C 8.804 6.801,8.966 6.886,9.118 6.901 C 9.327 6.921,9.568 6.779,9.669 6.576 C 9.782 6.350,9.724 6.022,9.548 5.885 C 9.356 5.735,7.386 4.494,7.218 4.417 C 7.084 4.356,6.903 4.331,6.813 4.361 " fill="#1A1C1F" stroke="none" fill-rule="evenodd"></path></svg>