<svg xmlns="http://www.w3.org/2000/svg" width="28" height="28" fill="none"><g clip-path="url(#a)"><path fill="#1A1C1F" fill-rule="evenodd" d="M14.646 9.12q-.348 3.382-.702 6.762l3.181 3.188c.07.071.163.247.194.342q.74 2.89 1.477 5.784a.744.744 0 0 1-.537.905c-.367.094-.763-.11-.905-.537a2942 2942 0 0 1-1.426-5.587l-3.14-3.146a1.2 1.2 0 0 1-.338-.957q.283-2.766.574-5.531l-2.676 1.397-.418 2.352c-.067.373-.49.668-.863.601a.75.75 0 0 1-.602-.862q.24-1.357.483-2.71c.035-.195.209-.446.388-.53q2.113-1.107 4.226-2.207a.747.747 0 0 1 1.084.737m-2.456 9.215c.346.154.535.548.376.982q-1.418 3.186-2.84 6.366a.744.744 0 0 1-.981.376.75.75 0 0 1-.377-.982q1.418-3.186 2.84-6.366a.744.744 0 0 1 .982-.376m4.47-7.66q.386.412.764.829l1.838.933c.918.465.23 1.71-.673 1.326q-.978-.494-1.955-.991a1.3 1.3 0 0 1-.21-.16q-.43-.463-.857-.93a.744.744 0 0 1 .043-1.05c.277-.255.72-.28 1.05.043m-2.29-8.799a2.488 2.488 0 1 1 0 4.976 2.488 2.488 0 0 1 0-4.976m0 1.487a1 1 0 1 0 0 2.001 1 1 0 0 0 0-2" clip-rule="evenodd"/></g><defs><clipPath id="a"><path fill="#fff" d="M0 0h28v28H0z"/></clipPath></defs></svg>