<svg xmlns="http://www.w3.org/2000/svg" width="12" height="12" fill="none"><g clip-path="url(#a)"><path fill="#1A1C1F" fill-rule="evenodd" d="m3.736 9.748 1.477-2.934.134-1.617-.48.211-.115.826a.6.6 0 0 1-.595.518.61.61 0 0 1-.595-.595v-.096l.192-1.152a.56.56 0 0 1 .326-.46l1.171-.538c.192-.077.519-.27.749-.27.211 0 .46.193.595.27l1.575.998a.66.66 0 0 1 .268.519.6.6 0 0 1-.595.595.66.66 0 0 1-.345-.096l-.96-.634L6.43 6.83l1.07.96c.115.077.204.19.25.327l.63 1.766c0 .058.02.115.02.173a.61.61 0 0 1-.596.595.6.6 0 0 1-.595-.442l-.573-1.555-.704-.712-1.18 2.402a.58.58 0 0 1-.518.307.6.6 0 0 1-.595-.595c0-.115.019-.211.096-.307M5.213 2.25c0-.498.421-.9.9-.9.517 0 .9.402.9.9 0 .479-.383.9-.9.9a.925.925 0 0 1-.9-.9" clip-rule="evenodd"/></g><defs><clipPath id="a"><path fill="#fff" d="M0 0h12v12H0z"/></clipPath></defs></svg>