<svg xmlns="http://www.w3.org/2000/svg" width="32" height="32" fill="none"><g clip-path="url(#a)"><path fill="#1A1C1F" fill-rule="evenodd" d="M16.739 10.423q-.399 3.865-.804 7.728l3.636 3.644c.081.08.187.282.222.39q.847 3.303 1.688 6.61a.85.85 0 0 1-.614 1.034c-.42.108-.872-.126-1.033-.613q-.819-3.19-1.63-6.386l-3.589-3.595a1.37 1.37 0 0 1-.387-1.093q.324-3.162.656-6.322l-3.058 1.597-.478 2.688c-.076.426-.559.764-.985.688a.86.86 0 0 1-.688-.986q.273-1.551.552-3.098c.04-.223.238-.51.443-.605q2.415-1.265 4.83-2.522a.853.853 0 0 1 1.239.841M13.93 20.954c.396.177.612.627.43 1.123q-1.62 3.64-3.245 7.275a.85.85 0 0 1-1.122.43.86.86 0 0 1-.43-1.122q1.62-3.641 3.244-7.276a.85.85 0 0 1 1.123-.43m5.11-8.754q.44.471.872.947l2.1 1.066c1.05.532.263 1.956-.768 1.516q-1.118-.563-2.234-1.132a1.5 1.5 0 0 1-.24-.183q-.493-.53-.98-1.062a.85.85 0 0 1 .049-1.202c.316-.291.823-.318 1.2.05M16.422 2.144a2.843 2.843 0 1 1 0 5.687 2.843 2.843 0 0 1 0-5.687m0 1.7a1.143 1.143 0 1 0 0 2.287 1.143 1.143 0 0 0 0-2.287" clip-rule="evenodd"/></g><defs><clipPath id="a"><path fill="#fff" d="M0 0h32v32H0z"/></clipPath></defs></svg>