<svg xmlns="http://www.w3.org/2000/svg" width="24" height="24" fill="none"><g clip-path="url(#a)"><path fill="#1A1C1F" fill-rule="evenodd" d="M9.636 16.087c.497 0 1.14.577.857 1.278-.874 1.995-.875 1.993-1.75 3.989-.171.424-.495.571-.855.571-.516 0-1.16-.571-.82-1.324.854-1.977.965-2.241 1.712-3.974.163-.362.543-.54.856-.54m2.738-7.406-.308 4.839q1.343 1.325 2.672 2.678c.052.052.214.376.228.432.529 2.089.53 2.09 1.047 4.186.117.582-.368 1.108-.914 1.108-.376 0-.695-.174-.883-.685a709 709 0 0 1-.985-3.911l-2.848-2.837c-.156-.175-.224-.326-.213-.536l.258-4.093c.004-.09-.05-.092-.105-.073q-.232.073-1.171.524-.158.924-.321 1.844a.93.93 0 0 1-.912.769c-.51 0-1.027-.445-.912-1.052.168-1.173.164-1.175.339-2.345.048-.423.428-.648.576-.714q1.5-.633 3-1.253c1.018-.4 1.498.347 1.452 1.119m2.395 1.083q.905.47 1.745.9c.331.15.513.51.513.796 0 .543-.514 1.14-1.345.855q-.837-.42-1.767-.91c-.517-.332-.55-.886-.458-1.144.153-.428.727-.772 1.312-.497m-2.816-7.689c1.066 0 1.925.859 1.925 1.925a1.92 1.92 0 0 1-1.925 1.925A1.94 1.94 0 0 1 10.028 4c-.011-1.217.852-1.917 1.925-1.925" clip-rule="evenodd"/></g><defs><clipPath id="a"><path fill="#fff" d="M0 0h24v24H0z"/></clipPath></defs></svg>