<svg xmlns="http://www.w3.org/2000/svg" width="14" height="14" fill="none"><g clip-path="url(#a)"><path fill="#1A1C1F" fill-rule="evenodd" d="M7.273 4.43q1.095.688 2.19 1.381a.595.595 0 0 1 .186.821.603.603 0 0 1-.82.186q-.645-.404-1.29-.813l-.166 1.97a1 1 0 0 1 .17.115c.612.583 1.222 1.171 1.222 1.171.05.048.136.196.148.229q.366 1.017.73 2.036c.11.31-.05.65-.36.76a.606.606 0 0 1-.76-.358q-.345-.952-.683-1.905l-.92-.883-1.444 2.853a.595.595 0 0 1-.8.262c-.27-.137-.43-.528-.262-.8q.88-1.744 1.764-3.485l.179-2.102-.74.345-.176 1.057c-.05.299-.386.539-.685.488a.595.595 0 0 1-.496-.61l.236-1.44c.028-.165.147-.37.335-.44q.936-.44 1.873-.874a.63.63 0 0 1 .569.036m-.126-2.75a.945.945 0 1 1 0 1.89.945.945 0 0 1 0-1.89" clip-rule="evenodd"/></g><defs><clipPath id="a"><path fill="#fff" d="M0 0h14v14H0z"/></clipPath></defs></svg>