<svg width="20" height="20" viewBox="0 0 20 20" fill="none" xmlns="http://www.w3.org/2000/svg"><path d="M9.955 2.435 C 9.722 2.474,9.441 2.623,9.262 2.802 C 8.681 3.382,8.769 4.385,9.441 4.845 C 10.015 5.238,10.698 5.166,11.189 4.660 C 11.560 4.280,11.653 3.642,11.411 3.148 C 11.301 2.923,11.025 2.656,10.792 2.550 C 10.641 2.481,10.252 2.393,10.150 2.404 C 10.132 2.406,10.044 2.420,9.955 2.435 M9.751 6.223 C 9.557 6.277,7.007 7.468,6.799 7.601 C 6.497 7.794,6.472 7.862,6.267 9.083 C 6.090 10.131,6.075 10.309,6.148 10.528 C 6.266 10.883,6.660 11.135,7.014 11.082 C 7.213 11.052,7.488 10.884,7.619 10.711 C 7.728 10.568,7.792 10.301,7.953 9.317 C 7.984 9.133,8.021 8.958,8.037 8.928 C 8.066 8.872,8.821 8.488,8.981 8.447 L 9.068 8.426 9.051 8.605 C 9.041 8.703,8.987 9.361,8.930 10.067 L 8.828 11.350 7.534 13.933 C 6.822 15.354,6.229 16.572,6.217 16.639 C 6.185 16.808,6.272 17.087,6.415 17.274 C 6.710 17.661,7.311 17.696,7.639 17.345 C 7.780 17.194,7.889 16.991,8.917 14.975 L 9.890 13.067 10.542 13.686 L 11.194 14.305 11.369 14.794 C 11.465 15.063,11.698 15.711,11.887 16.233 L 12.230 17.183 12.403 17.340 C 12.672 17.584,12.939 17.651,13.238 17.549 C 13.535 17.448,13.760 17.172,13.815 16.842 C 13.834 16.732,13.819 16.639,13.749 16.425 C 13.622 16.040,13.039 14.408,12.834 13.867 L 12.664 13.417 12.107 12.856 C 11.519 12.263,10.779 11.560,10.626 11.449 L 10.534 11.383 10.650 10.067 C 10.714 9.342,10.766 8.724,10.766 8.692 C 10.767 8.660,10.784 8.633,10.805 8.633 C 10.825 8.633,11.195 8.853,11.626 9.122 C 12.577 9.715,12.809 9.838,13.025 9.858 C 13.325 9.887,13.669 9.685,13.813 9.394 C 13.974 9.071,13.892 8.604,13.640 8.406 C 13.376 8.200,10.546 6.418,10.311 6.310 C 10.136 6.230,9.872 6.189,9.751 6.223 " fill="#1A1C1F" stroke="none" fill-rule="evenodd"></path></svg>