<svg width="16" height="16" viewBox="0 0 16 16" fill="none" xmlns="http://www.w3.org/2000/svg"><path d="M7.964 1.948 C 7.679 1.996,7.355 2.228,7.229 2.476 C 7.083 2.761,7.061 3.098,7.169 3.382 C 7.407 4.008,8.170 4.269,8.727 3.915 C 8.887 3.813,9.070 3.611,9.143 3.454 C 9.268 3.189,9.262 2.790,9.129 2.518 C 9.041 2.338,8.820 2.125,8.633 2.040 C 8.513 1.985,8.202 1.914,8.120 1.923 C 8.105 1.925,8.035 1.936,7.964 1.948 M7.800 4.978 C 7.737 4.996,6.797 5.423,6.080 5.759 C 5.302 6.124,5.235 6.176,5.161 6.471 C 5.102 6.702,4.880 8.069,4.880 8.199 C 4.880 8.452,5.025 8.683,5.262 8.805 C 5.542 8.949,5.950 8.818,6.130 8.526 C 6.181 8.443,6.264 8.058,6.361 7.467 C 6.386 7.313,6.417 7.167,6.430 7.142 C 6.453 7.097,7.057 6.790,7.185 6.758 L 7.255 6.741 7.240 6.884 C 7.232 6.962,7.189 7.489,7.145 8.053 L 7.063 9.080 6.027 11.147 C 5.458 12.284,4.983 13.258,4.973 13.311 C 4.931 13.538,5.110 13.877,5.334 13.992 C 5.670 14.164,6.016 14.061,6.226 13.724 C 6.283 13.634,6.622 12.984,6.981 12.280 C 7.760 10.751,7.891 10.507,7.936 10.507 C 7.954 10.507,8.191 10.718,8.463 10.976 L 8.956 11.446 9.109 11.876 C 9.757 13.693,9.775 13.738,9.910 13.862 C 10.068 14.006,10.157 14.052,10.315 14.071 C 10.572 14.101,10.834 13.958,10.966 13.715 C 11.078 13.509,11.085 13.401,11.000 13.142 C 10.898 12.832,10.431 11.527,10.267 11.093 L 10.131 10.733 9.686 10.284 C 9.215 9.810,8.623 9.248,8.500 9.160 L 8.428 9.107 8.520 8.053 C 8.571 7.474,8.613 6.979,8.613 6.953 C 8.613 6.928,8.627 6.907,8.644 6.907 C 8.660 6.907,8.922 7.062,9.226 7.251 C 10.263 7.898,10.340 7.932,10.614 7.866 C 10.802 7.821,10.957 7.697,11.049 7.520 C 11.113 7.394,11.122 7.349,11.115 7.198 C 11.100 6.912,11.023 6.794,10.720 6.592 C 10.172 6.227,8.387 5.111,8.253 5.050 C 8.110 4.984,7.898 4.951,7.800 4.978 " fill="#1A1C1F" stroke="none" fill-rule="evenodd"></path></svg>