<svg xmlns="http://www.w3.org/2000/svg" width="32" height="32" fill="none"><path fill="#1A1C1F" fill-rule="evenodd" d="M15.973 2.184c-1.098.178-2.08 1.094-2.32 2.163a3.6 3.6 0 0 0 0 1.279c.314 1.398 1.765 2.39 3.177 2.17a2.89 2.89 0 0 0 2.343-2.123c.299-1.148-.203-2.41-1.222-3.07-.544-.352-1.344-.521-1.978-.419m.774 1.709c.102.028.279.128.393.222.533.44.541 1.275.016 1.736-.727.638-1.849.114-1.849-.864 0-.77.698-1.301 1.44-1.094m-1.12 5.639c-.298.111-5.016 2.615-5.133 2.723-.216.203-.276.423-.577 2.141-.308 1.759-.307 1.838.025 2.17.467.467 1.272.167 1.415-.526.031-.154.15-.803.264-1.442.113-.64.215-1.171.226-1.182.041-.039 3.003-1.571 3.014-1.559.007.007-.13 1.379-.304 3.051-.174 1.671-.316 3.183-.315 3.359.001.573.043.626 2.084 2.671l1.869 1.871.817 3.202c.45 1.761.855 3.274.901 3.362a.92.92 0 0 0 .62.467c.453.076.96-.341.96-.789 0-.211-1.666-6.844-1.771-7.051-.03-.059-.893-.949-1.918-1.978l-1.864-1.871.405-3.889c.24-2.294.392-3.971.372-4.091-.078-.467-.651-.803-1.09-.639m2.359 2.521a1 1 0 0 0-.415.614c-.053.287.091.537.69 1.196l.581.638 1.186.612c1.311.676 1.473.738 1.765.672.538-.121.867-.72.64-1.16-.127-.245-.324-.372-1.5-.967l-1.066-.539-.4-.455c-.22-.251-.498-.515-.618-.587-.273-.163-.619-.173-.863-.024m-4.876 8.986a1.1 1.1 0 0 0-.333.425 847 847 0 0 0-3.187 7.149c-.205.513-.016.993.46 1.175.427.163.846-.01 1.061-.439.07-.141.841-1.858 1.713-3.817 1.709-3.84 1.706-3.832 1.484-4.213a.853.853 0 0 0-1.198-.28"/></svg>