<svg xmlns="http://www.w3.org/2000/svg" width="16" height="16" fill="none"><g clip-path="url(#a)"><path fill="#1A1C1F" fill-rule="evenodd" d="m4.98 12.997 1.97-3.912.18-2.155-.64.281-.154 1.101a.8.8 0 0 1-.794.691.815.815 0 0 1-.793-.793v-.128l.256-1.536a.75.75 0 0 1 .435-.615l1.562-.717c.256-.102.69-.358.998-.358.282 0 .614.256.794.358l2.099 1.332c.205.153.358.41.358.69 0 .462-.384.794-.793.794a.9.9 0 0 1-.461-.128l-1.28-.844-.143 2.048 1.428 1.28a.85.85 0 0 1 .332.435l.84 2.355c0 .077.026.154.026.23 0 .41-.358.794-.794.794a.8.8 0 0 1-.793-.589l-.763-2.073-.94-.95-1.572 3.202c-.154.256-.384.41-.692.41a.797.797 0 0 1-.793-.794c0-.153.025-.281.128-.41M6.95 3c0-.664.562-1.2 1.2-1.2.69 0 1.2.536 1.2 1.2 0 .638-.51 1.2-1.2 1.2-.638 0-1.2-.562-1.2-1.2" clip-rule="evenodd"/></g><defs><clipPath id="a"><path fill="#fff" d="M0 0h16v16H0z"/></clipPath></defs></svg>