<svg xmlns="http://www.w3.org/2000/svg" width="28" height="28" fill="none"><g clip-path="url(#a)"><path fill="#1A1C1F" fill-rule="evenodd" d="M8.18 25.363c0-.11.028-.222.083-.36l2.817-6.335a.87.87 0 0 1 .804-.526c.526 0 .887.443.887.886q0 .166-.084.333l-2.816 6.335a.9.9 0 0 1-.804.554.875.875 0 0 1-.887-.887m.194-11.53.416-2.743a.85.85 0 0 1 .554-.665l3.6-1.851c.305-.111.554-.166.776-.166.665 0 .998.47.97 1.136l-.607 6.285 3.16 3.16q.166.166.25.415l1.413 5.764c.138.554-.278 1.108-.86 1.08a.83.83 0 0 1-.831-.665l-1.386-5.541-3.215-3.187a1.09 1.09 0 0 1-.305-.915l.552-5.426-2.408 1.352-.36 2.245a.87.87 0 0 1-.86.748c-.527 0-.942-.499-.86-1.025M14.352 1.75a2.626 2.626 0 0 1 2.625 2.625C16.977 5.797 15.802 7 14.352 7a2.626 2.626 0 0 1 0-5.25m.024 1.774a.864.864 0 0 0-.875.875c0 .465.383.875.875.875a.9.9 0 0 0 .875-.875.88.88 0 0 0-.875-.875m.906 7.712c0-.471.388-.86.86-.86.249 0 .47.084.637.25l.824.824 1.746.86a.9.9 0 0 1 .471.803c0 .471-.388.86-.859.86a1.1 1.1 0 0 1-.416-.084l-1.829-.942a.6.6 0 0 1-.222-.139l-.935-.935a.9.9 0 0 1-.277-.637" clip-rule="evenodd"/></g><defs><clipPath id="a"><path fill="#fff" d="M0 0h28v28H0z"/></clipPath></defs></svg>