<svg width="12" height="12" viewBox="0 0 12 12" fill="none" xmlns="http://www.w3.org/2000/svg"><path d="M5.906 1.379 C 5.670 1.435,5.405 1.655,5.301 1.881 C 5.118 2.279,5.253 2.739,5.628 2.987 C 6.190 3.361,6.915 3.015,7.009 2.328 C 7.051 2.023,6.844 1.626,6.563 1.474 C 6.387 1.378,6.091 1.335,5.906 1.379 M5.670 3.728 C 5.455 3.816,4.681 4.170,4.307 4.351 C 3.977 4.510,3.872 4.588,3.818 4.710 C 3.748 4.869,3.550 6.035,3.566 6.194 C 3.596 6.491,3.869 6.745,4.157 6.745 C 4.359 6.744,4.544 6.643,4.666 6.465 C 4.724 6.382,4.764 6.188,4.844 5.601 L 4.870 5.412 5.080 5.317 C 5.196 5.265,5.302 5.222,5.316 5.221 C 5.335 5.220,5.340 5.243,5.332 5.305 C 5.326 5.352,5.297 5.709,5.267 6.100 L 5.213 6.809 4.584 8.050 C 3.961 9.281,3.709 9.798,3.660 9.948 C 3.584 10.183,3.775 10.520,4.035 10.608 C 4.154 10.649,4.328 10.649,4.450 10.607 C 4.646 10.540,4.670 10.502,5.252 9.326 C 5.546 8.734,5.815 8.185,5.852 8.105 C 5.888 8.025,5.925 7.960,5.934 7.960 C 5.943 7.960,6.105 8.115,6.294 8.305 L 6.638 8.650 6.857 9.250 C 7.293 10.442,7.301 10.459,7.504 10.571 C 7.599 10.624,7.628 10.630,7.790 10.630 C 8.000 10.630,8.082 10.599,8.214 10.467 C 8.345 10.337,8.385 10.239,8.383 10.061 C 8.382 9.894,8.366 9.837,8.151 9.230 C 7.848 8.375,7.698 7.994,7.633 7.920 C 7.599 7.879,7.363 7.661,7.110 7.435 C 6.857 7.209,6.602 6.975,6.543 6.914 L 6.436 6.804 6.489 6.068 C 6.518 5.663,6.546 5.328,6.550 5.323 C 6.555 5.318,6.674 5.389,6.814 5.481 C 7.601 5.993,7.680 6.033,7.880 6.015 C 8.256 5.981,8.514 5.624,8.413 5.277 C 8.344 5.038,8.307 5.007,7.460 4.462 C 6.746 4.003,6.345 3.758,6.220 3.707 C 6.052 3.637,5.874 3.644,5.670 3.728 " fill="#1A1C1F" stroke="none" fill-rule="evenodd"></path></svg>