<svg width="20" height="20" viewBox="0 0 20 20" fill="none" xmlns="http://www.w3.org/2000/svg"><path d="M12.606 4.076 C 12.545 4.095,12.423 4.176,12.335 4.255 C 11.817 4.720,11.950 5.575,12.589 5.888 C 12.772 5.977,12.778 5.978,13.778 6.002 C 14.331 6.016,14.810 6.038,14.843 6.051 C 14.875 6.064,14.917 6.103,14.936 6.138 C 14.955 6.175,14.978 6.689,14.990 7.381 L 15.011 8.561 13.298 10.297 L 11.585 12.033 11.181 12.033 L 10.776 12.033 10.652 11.558 C 9.742 8.086,9.186 6.089,9.076 5.902 C 8.933 5.657,8.556 5.315,8.279 5.178 C 8.067 5.073,7.986 5.053,7.675 5.026 C 7.171 4.983,4.786 5.012,4.623 5.064 C 4.546 5.088,4.418 5.182,4.299 5.301 C 4.142 5.458,4.091 5.536,4.047 5.688 C 3.904 6.181,4.128 6.675,4.601 6.911 L 4.780 7.000 5.815 7.000 C 6.384 7.000,6.971 7.010,7.119 7.021 L 7.387 7.042 7.509 7.511 C 7.576 7.769,7.623 7.989,7.613 7.998 C 7.603 8.008,7.082 8.027,6.456 8.039 C 5.021 8.068,4.908 8.076,4.585 8.183 C 3.999 8.376,3.465 8.709,3.045 9.142 C 2.638 9.561,2.371 9.996,2.192 10.533 C 2.026 11.028,2.017 11.121,2.017 12.217 L 2.017 13.250 2.110 13.439 C 2.215 13.655,2.378 13.812,2.598 13.912 C 2.730 13.972,2.832 13.982,3.375 13.994 L 4.000 14.007 4.000 14.098 C 4.000 14.148,4.030 14.305,4.066 14.446 C 4.242 15.136,4.717 15.648,5.406 15.891 C 5.602 15.960,5.715 15.978,5.983 15.980 C 6.547 15.985,6.969 15.803,7.402 15.369 C 7.587 15.183,7.685 15.051,7.773 14.867 C 7.902 14.599,8.000 14.271,8.000 14.106 L 8.000 14.004 10.142 13.992 C 11.661 13.983,12.317 13.968,12.400 13.940 C 12.486 13.911,12.950 13.466,14.153 12.259 C 16.233 10.173,16.846 9.531,16.934 9.349 C 17.003 9.207,17.004 9.175,16.992 7.544 C 16.979 5.686,16.988 5.763,16.726 5.257 C 16.425 4.676,15.785 4.175,15.210 4.068 C 14.958 4.022,12.755 4.028,12.606 4.076 M7.539 10.022 L 8.188 10.043 8.433 10.997 C 8.568 11.521,8.685 11.969,8.693 11.992 C 8.704 12.025,8.221 12.033,6.348 12.033 L 3.990 12.033 4.010 11.674 C 4.022 11.477,4.053 11.253,4.080 11.176 C 4.227 10.759,4.659 10.318,5.118 10.115 C 5.352 10.012,6.231 9.978,7.539 10.022 M15.567 12.052 C 14.341 12.316,13.650 13.728,14.200 14.846 C 14.461 15.376,14.990 15.809,15.530 15.934 C 15.836 16.005,16.310 15.984,16.617 15.887 C 17.193 15.703,17.690 15.207,17.904 14.600 C 18.021 14.269,18.015 13.745,17.891 13.383 C 17.554 12.399,16.570 11.836,15.567 12.052 " fill="#1A1C1F" stroke="none" fill-rule="evenodd"></path></svg>