<svg width="32" height="32" viewBox="0 0 32 32" fill="none" xmlns="http://www.w3.org/2000/svg"><path d="M19.889 6.551 C 19.686 6.575,19.531 6.633,19.401 6.732 C 19.185 6.897,18.986 7.265,18.988 7.497 C 18.990 7.848,19.317 8.294,19.677 8.439 C 19.753 8.469,20.603 8.512,21.586 8.535 C 23.168 8.572,23.377 8.587,23.527 8.675 C 23.958 8.927,23.997 9.158,23.999 11.430 L 24.000 13.126 21.267 16.322 L 18.533 19.519 17.143 19.519 L 15.753 19.520 15.416 18.387 C 15.021 17.057,13.606 12.451,13.221 11.240 C 12.972 10.459,12.936 10.383,12.703 10.146 C 12.566 10.007,12.297 9.810,12.107 9.708 L 11.760 9.524 9.253 9.522 C 6.993 9.520,6.730 9.529,6.581 9.611 C 6.361 9.731,6.089 10.047,6.050 10.228 C 6.032 10.308,6.010 10.401,6.000 10.434 C 5.961 10.562,6.097 10.930,6.254 11.120 C 6.551 11.480,6.552 11.480,9.026 11.519 C 10.250 11.538,11.259 11.564,11.269 11.577 C 11.283 11.595,11.589 12.609,11.818 13.394 C 11.841 13.473,11.602 13.483,9.082 13.509 C 6.068 13.541,5.895 13.556,5.171 13.860 C 3.784 14.443,2.753 15.521,2.286 16.875 C 2.038 17.595,1.963 18.259,1.983 19.573 C 2.000 20.713,2.001 20.721,2.146 20.969 C 2.389 21.382,2.579 21.463,3.347 21.485 L 4.000 21.504 4.000 21.730 C 4.000 22.099,4.195 22.765,4.462 23.307 C 4.673 23.736,4.785 23.887,5.195 24.293 C 5.554 24.649,5.791 24.831,6.107 24.996 C 7.145 25.539,8.273 25.629,9.350 25.255 C 9.908 25.061,10.273 24.819,10.804 24.293 C 11.216 23.886,11.326 23.737,11.538 23.307 C 11.806 22.759,11.926 22.360,11.980 21.831 L 12.015 21.493 15.665 21.493 L 19.315 21.493 19.638 21.187 C 20.282 20.575,25.400 14.607,25.806 13.994 C 26.027 13.661,26.044 13.418,26.014 11.051 C 25.989 9.056,25.988 9.037,25.848 8.609 C 25.606 7.867,25.039 7.192,24.373 6.854 C 23.810 6.568,23.665 6.549,21.867 6.532 C 20.943 6.523,20.053 6.532,19.889 6.551 M13.043 17.480 L 13.633 19.440 13.496 19.474 C 13.421 19.492,11.251 19.510,8.672 19.514 L 3.985 19.520 4.015 18.733 C 4.048 17.877,4.123 17.536,4.377 17.089 C 4.722 16.480,5.201 16.039,5.820 15.761 C 6.274 15.556,6.578 15.538,9.814 15.528 L 12.454 15.520 13.043 17.480 M25.200 17.582 C 24.921 17.641,24.289 17.888,24.038 18.034 C 23.287 18.474,22.796 18.999,22.428 19.760 C 22.090 20.456,22.005 20.872,22.043 21.640 C 22.091 22.637,22.344 23.337,22.899 24.007 C 23.405 24.618,23.994 25.014,24.796 25.282 C 26.770 25.942,28.950 24.905,29.717 22.941 C 30.321 21.392,29.839 19.503,28.574 18.457 C 28.149 18.106,27.387 17.727,26.907 17.626 C 26.563 17.555,25.461 17.526,25.200 17.582 M26.363 19.571 C 27.198 19.708,27.825 20.363,27.947 21.227 C 28.036 21.860,27.838 22.446,27.382 22.902 C 26.589 23.696,25.394 23.693,24.608 22.895 C 24.191 22.470,24.087 22.218,24.062 21.566 C 24.043 21.069,24.053 21.000,24.187 20.702 C 24.342 20.357,24.789 19.878,25.112 19.711 C 25.446 19.538,25.870 19.491,26.363 19.571 M9.951 21.773 C 9.841 22.618,9.194 23.283,8.307 23.465 C 7.291 23.673,6.189 22.848,6.049 21.773 L 6.013 21.493 8.000 21.493 L 9.987 21.493 9.951 21.773 " fill="#1A1C1F" stroke="none" fill-rule="evenodd"></path></svg>