<svg xmlns="http://www.w3.org/2000/svg" width="20" height="20" fill="none"><g clip-path="url(#a)"><path fill="#1A1C1F" fill-rule="evenodd" d="M14.778 4.006c1.205 0 2.217 1.104 2.217 2.228L17 8.994a1 1 0 0 1-.204.605l-4.078 4.122c-.156.157-.317.273-.71.273H8.005c-.012 1.094-.93 2-2.005 2s-2-.885-1.994-2H3c-.542 0-.993-.387-.993-.998L2 11.683c0-1.96 1.538-3.56 3.472-3.662l2.172-.005-.27-1.024H4.99c-.597 0-.99-.487-.99-1s.374-.986.99-1h2.6c.69 0 1.393.531 1.633 1.19l1.546 5.834h.823l3.407-3.434V6.394c0-.212-.054-.402-.324-.402l-1.668-.009a.99.99 0 0 1-.999-.99c0-.514.324-.987.999-.987zM16 11.994a2 2 0 1 1 0 4 2 2 0 0 1 0-4M8.178 10H5.673c-.872 0-1.673.839-1.667 1.54Q4 11.745 4 12.015h4.7z" clip-rule="evenodd"/></g><defs><clipPath id="a"><path fill="#fff" d="M0 0h20v20H0z"/></clipPath></defs></svg>