<svg width="16" height="16" viewBox="0 0 16 16" fill="none" xmlns="http://www.w3.org/2000/svg"><path d="M10.453 3.228 C 10.080 3.245,10.023 3.262,9.866 3.404 C 9.523 3.714,9.531 4.277,9.884 4.587 C 10.094 4.771,10.140 4.780,11.029 4.801 C 11.840 4.821,11.922 4.832,11.958 4.926 C 11.968 4.952,11.984 5.395,11.992 5.911 L 12.008 6.849 10.638 8.238 L 9.268 9.627 8.942 9.627 L 8.615 9.627 8.590 9.527 C 8.440 8.942,7.621 5.862,7.507 5.453 C 7.425 5.160,7.328 4.855,7.292 4.776 C 7.213 4.605,6.933 4.321,6.712 4.190 C 6.407 4.010,6.462 4.016,5.080 4.014 C 4.106 4.014,3.800 4.021,3.708 4.049 C 3.562 4.093,3.302 4.348,3.250 4.498 C 3.193 4.661,3.204 4.978,3.271 5.124 C 3.345 5.285,3.501 5.439,3.680 5.529 L 3.824 5.600 4.692 5.600 C 5.169 5.600,5.639 5.608,5.735 5.617 L 5.910 5.633 6.007 6.009 C 6.061 6.215,6.098 6.391,6.090 6.399 C 6.082 6.407,5.654 6.421,5.138 6.431 C 4.008 6.453,3.938 6.458,3.668 6.547 C 2.913 6.794,2.266 7.341,1.924 8.019 C 1.808 8.248,1.721 8.488,1.663 8.736 C 1.620 8.917,1.613 9.062,1.613 9.773 L 1.613 10.600 1.688 10.752 C 1.772 10.924,1.902 11.049,2.079 11.129 C 2.184 11.177,2.266 11.186,2.700 11.195 L 3.200 11.206 3.200 11.279 C 3.200 11.319,3.223 11.442,3.252 11.553 C 3.414 12.189,3.881 12.629,4.533 12.762 C 4.883 12.832,5.232 12.771,5.573 12.579 C 5.804 12.450,6.105 12.130,6.219 11.893 C 6.322 11.679,6.400 11.417,6.400 11.284 L 6.400 11.203 8.113 11.193 C 9.328 11.186,9.854 11.174,9.920 11.152 C 9.989 11.129,10.357 10.776,11.309 9.820 C 12.967 8.157,13.477 7.624,13.545 7.483 C 13.598 7.374,13.600 7.326,13.599 6.252 C 13.597 4.881,13.581 4.642,13.471 4.381 C 13.373 4.148,13.264 3.984,13.068 3.777 C 12.814 3.508,12.454 3.303,12.157 3.256 C 11.951 3.224,10.915 3.207,10.453 3.228 M6.071 8.017 L 6.550 8.035 6.746 8.797 C 6.854 9.217,6.947 9.575,6.954 9.593 C 6.963 9.620,6.577 9.627,5.079 9.627 L 3.192 9.627 3.208 9.339 C 3.217 9.181,3.242 9.002,3.264 8.941 C 3.382 8.607,3.731 8.251,4.095 8.093 C 4.284 8.011,5.063 7.981,6.071 8.017 M12.453 9.640 C 11.915 9.761,11.472 10.167,11.287 10.706 C 11.188 10.994,11.184 11.413,11.278 11.680 C 11.437 12.136,11.832 12.547,12.252 12.695 C 12.577 12.809,13.023 12.809,13.348 12.695 C 13.549 12.625,13.734 12.501,13.926 12.308 C 14.428 11.806,14.534 11.106,14.207 10.453 C 14.038 10.116,13.628 9.778,13.253 9.668 C 13.041 9.606,12.663 9.592,12.453 9.640 " fill="#1A1C1F" stroke="none" fill-rule="evenodd"></path></svg>