<svg width="16" height="16" viewBox="0 0 16 16" fill="none" xmlns="http://www.w3.org/2000/svg"><path d="M10.110 3.307 C 9.867 3.364,9.651 3.628,9.632 3.889 C 9.617 4.098,9.661 4.238,9.787 4.381 C 9.992 4.614,10.020 4.620,11.001 4.639 C 11.932 4.657,11.908 4.653,11.995 4.811 C 12.034 4.883,12.041 5.015,12.048 5.880 L 12.055 6.867 10.648 8.274 L 9.242 9.681 8.842 9.674 L 8.443 9.667 7.995 8.187 C 7.262 5.765,7.157 5.446,7.046 5.301 C 6.927 5.144,6.733 4.985,6.509 4.859 L 6.337 4.763 5.082 4.762 C 4.391 4.761,3.783 4.769,3.729 4.781 C 3.670 4.793,3.577 4.850,3.497 4.922 C 3.191 5.196,3.183 5.608,3.476 5.901 C 3.669 6.094,3.651 6.091,4.859 6.102 L 5.945 6.112 6.016 6.343 C 6.257 7.132,6.286 7.241,6.257 7.257 C 6.240 7.267,5.717 7.280,5.093 7.287 C 3.815 7.301,3.752 7.309,3.312 7.520 C 3.002 7.668,2.821 7.794,2.563 8.040 C 2.233 8.356,2.025 8.663,1.858 9.083 C 1.736 9.390,1.680 9.670,1.661 10.067 C 1.641 10.481,1.681 10.635,1.854 10.813 C 2.050 11.014,2.087 11.023,2.780 11.035 L 3.387 11.045 3.387 11.281 C 3.387 11.411,3.400 11.581,3.416 11.659 C 3.575 12.421,4.456 12.916,5.198 12.658 C 5.683 12.489,6.069 12.080,6.161 11.636 C 6.178 11.554,6.188 11.386,6.183 11.263 L 6.173 11.040 7.928 11.040 C 9.655 11.040,9.684 11.039,9.794 10.984 C 9.925 10.919,13.197 7.659,13.322 7.469 L 13.399 7.352 13.408 6.043 L 13.418 4.733 13.335 4.500 C 13.148 3.975,12.861 3.641,12.397 3.409 C 12.239 3.331,12.199 3.323,11.853 3.304 C 11.370 3.277,10.226 3.279,10.110 3.307 M12.589 9.988 C 12.306 10.049,11.966 10.299,11.765 10.593 C 11.508 10.971,11.481 11.514,11.699 11.968 C 11.795 12.168,12.099 12.474,12.297 12.570 C 12.853 12.840,13.503 12.741,13.920 12.324 C 14.113 12.130,14.194 11.989,14.278 11.697 C 14.364 11.401,14.364 11.266,14.279 10.974 C 14.200 10.699,14.168 10.633,14.042 10.482 C 13.677 10.045,13.151 9.866,12.589 9.988 " fill="#1A1C1F" stroke="none" fill-rule="evenodd"></path></svg>