<svg width="12" height="12" viewBox="0 0 12 12" fill="none" xmlns="http://www.w3.org/2000/svg"><path d="M7.820 2.419 C 7.495 2.436,7.373 2.506,7.264 2.739 C 7.127 3.033,7.256 3.387,7.554 3.533 C 7.663 3.586,7.667 3.587,8.267 3.601 C 8.599 3.610,8.886 3.623,8.906 3.630 C 8.925 3.638,8.950 3.661,8.961 3.681 C 8.972 3.702,8.986 4.028,8.993 4.428 L 9.006 5.137 7.979 6.178 L 6.952 7.220 6.709 7.220 L 6.466 7.220 6.391 6.935 C 5.823 4.769,5.512 3.654,5.446 3.541 C 5.360 3.394,5.133 3.189,4.967 3.107 C 4.837 3.042,4.793 3.031,4.595 3.016 C 4.277 2.990,2.871 3.008,2.774 3.039 C 2.675 3.070,2.473 3.270,2.438 3.373 C 2.395 3.495,2.403 3.733,2.453 3.843 C 2.509 3.964,2.626 4.079,2.760 4.146 L 2.868 4.200 3.501 4.200 C 3.849 4.200,4.201 4.206,4.283 4.213 L 4.432 4.225 4.505 4.507 C 4.546 4.662,4.574 4.793,4.568 4.799 C 4.562 4.805,4.245 4.816,3.863 4.823 C 3.010 4.840,2.949 4.845,2.751 4.910 C 2.184 5.096,1.699 5.506,1.443 6.014 C 1.356 6.186,1.291 6.366,1.247 6.552 C 1.215 6.688,1.210 6.797,1.210 7.330 L 1.210 7.950 1.266 8.064 C 1.329 8.193,1.427 8.287,1.559 8.347 C 1.638 8.383,1.699 8.389,2.025 8.396 L 2.400 8.404 2.400 8.459 C 2.400 8.489,2.417 8.582,2.439 8.665 C 2.561 9.143,2.910 9.472,3.400 9.571 C 3.777 9.648,4.135 9.527,4.442 9.221 C 4.557 9.107,4.611 9.033,4.665 8.919 C 4.742 8.756,4.800 8.561,4.800 8.463 L 4.800 8.402 6.085 8.395 C 7.012 8.390,7.390 8.381,7.442 8.364 C 7.497 8.345,7.787 8.065,8.662 7.185 C 9.922 5.918,10.147 5.676,10.182 5.561 C 10.198 5.508,10.202 5.200,10.195 4.498 C 10.186 3.558,10.184 3.504,10.144 3.395 C 10.008 3.020,9.752 2.720,9.429 2.555 C 9.312 2.495,9.204 2.456,9.119 2.442 C 8.962 2.418,8.138 2.403,7.820 2.419 M4.541 6.013 L 4.913 6.026 5.060 6.598 C 5.141 6.913,5.211 7.181,5.216 7.195 C 5.222 7.215,4.933 7.220,3.809 7.220 L 2.394 7.220 2.407 6.987 C 2.419 6.783,2.428 6.738,2.481 6.631 C 2.593 6.402,2.783 6.214,3.017 6.098 C 3.124 6.045,3.184 6.029,3.320 6.019 C 3.566 6.001,4.113 5.998,4.541 6.013 M9.340 7.230 C 8.557 7.407,8.160 8.324,8.572 9.003 C 8.653 9.136,8.829 9.318,8.970 9.413 C 9.305 9.640,9.895 9.640,10.230 9.413 C 10.371 9.318,10.547 9.136,10.628 9.003 C 10.906 8.544,10.833 7.955,10.450 7.568 C 10.219 7.335,9.976 7.226,9.654 7.210 C 9.533 7.204,9.426 7.211,9.340 7.230 " fill="#1A1C1F" stroke="none" fill-rule="evenodd"></path></svg>