<svg xmlns="http://www.w3.org/2000/svg" width="20" height="20" fill="none"><g clip-path="url(#a)"><path fill="#1A1C1F" fill-rule="evenodd" d="M16.175 12.419a1.75 1.75 0 1 1 0 3.5 1.75 1.75 0 0 1 0-3.5m-8.49 1.372c.312 1.213-.744 2.128-1.71 2.128-.967 0-1.97-.833-1.71-2.128h-1.34a.85.85 0 0 1-.843-.743l-.007-.44c0-1.877 1.583-3.517 3.324-3.511l2.474-.006-.445-1.473H4.925c-.491 0-.85-.399-.85-.85s.359-.85.85-.85h2.6c.623 0 1.266.486 1.482 1.059l1.548 5.114h1.024l3.496-3.523V6.319c0-.254-.13-.53-.372-.53l-1.832-.008a.85.85 0 0 1-.85-.85c0-.433.366-.85.85-.85h1.832c1.119 0 1.993.938 2.067 2.081l.005 2.757a.85.85 0 0 1-.174.514l-4.064 4.107a.9.9 0 0 1-.604.251z" clip-rule="evenodd"/></g><defs><clipPath id="a"><path fill="#fff" d="M0 0h20v20H0z"/></clipPath></defs></svg>