<svg xmlns="http://www.w3.org/2000/svg" width="16" height="16" fill="none"><g clip-path="url(#a)"><path fill="#1A1C1F" fill-rule="evenodd" d="M12.94 9.935a1.4 1.4 0 1 1 0 2.8 1.4 1.4 0 0 1 0-2.8m-6.793 1.098c.25.97-.594 1.702-1.367 1.702s-1.576-.666-1.368-1.702H2.34a.68.68 0 0 1-.675-.595l-.005-.352c0-1.502 1.267-2.813 2.66-2.809l1.978-.004-.356-1.179H3.94a.68.68 0 0 1-.68-.68c0-.36.287-.68.68-.68h2.08c.498 0 1.013.39 1.186.848l1.238 4.09h.82l2.796-2.818V5.056c0-.204-.103-.425-.298-.425l-1.466-.006a.68.68 0 0 1-.68-.68c0-.347.294-.68.68-.68h1.467c.895 0 1.594.75 1.653 1.665l.004 2.205a.68.68 0 0 1-.139.412l-3.252 3.285a.72.72 0 0 1-.482.201z" clip-rule="evenodd"/></g><defs><clipPath id="a"><path fill="#fff" d="M0 0h16v16H0z"/></clipPath></defs></svg>