<svg xmlns="http://www.w3.org/2000/svg" width="32" height="32" fill="none"><g clip-path="url(#a)"><path fill="#1A1C1F" fill-rule="evenodd" d="M11.847 21.341a3.85 3.85 0 0 1-7.692.357v-.357L3 21.35a.85.85 0 0 1-.843-.743L2.15 18.5a4.85 4.85 0 0 1 4.634-4.845l5.272-.005-.658-2.194a.15.15 0 0 0-.142-.106H7a.85.85 0 0 1-.85-.85c0-.433.369-.85.85-.85h4.256a1.85 1.85 0 0 1 1.722 1.175l2.654 8.825h2.976l5.542-6.466V9.5c0-.592-.449-1.08-1.025-1.143L20 8.35a.85.85 0 0 1 0-1.7h3a2.85 2.85 0 0 1 2.845 2.683l.005 4.167a.9.9 0 0 1-.205.553q-.146.18-6 7a.84.84 0 0 1-.645.297q-.274-.009-7.153-.009M26 17.65a3.85 3.85 0 1 1 0 7.7 3.85 3.85 0 0 1 0-7.7m-20.15 3.7c0 1.416.962 2.3 2.15 2.3 1.136 0 2.212-.881 2.15-2.309q0 .009-4.3.009m20.15-2a2.15 2.15 0 1 0 0 4.3 2.15 2.15 0 0 0 0-4.3" clip-rule="evenodd"/></g><defs><clipPath id="a"><path fill="#fff" d="M0 0h32v32H0z"/></clipPath></defs></svg>