<svg width="24" height="24" viewBox="0 0 24 24" fill="none" xmlns="http://www.w3.org/2000/svg"><path d="M14.637 5.037 C 14.297 5.063,14.088 5.170,13.904 5.411 C 13.520 5.914,13.646 6.549,14.193 6.869 L 14.379 6.979 15.608 6.999 C 16.486 7.014,16.850 7.034,16.884 7.068 C 16.970 7.154,16.995 7.483,16.998 8.560 L 17.000 9.621 15.016 11.800 L 13.033 13.980 12.520 13.991 C 12.057 14.001,12.004 13.995,11.985 13.931 C 11.973 13.892,11.727 12.996,11.439 11.940 C 10.722 9.311,10.330 7.965,10.236 7.813 C 10.115 7.618,9.762 7.313,9.505 7.184 L 9.274 7.068 7.507 7.050 L 5.740 7.033 5.511 7.187 C 5.225 7.379,5.097 7.551,5.035 7.827 C 4.993 8.014,4.996 8.075,5.058 8.270 C 5.158 8.587,5.472 8.894,5.760 8.956 C 5.884 8.983,6.483 9.000,7.297 9.000 L 8.629 9.000 8.754 9.468 C 8.822 9.725,8.868 9.945,8.856 9.958 C 8.844 9.970,8.003 9.993,6.987 10.009 C 5.934 10.025,5.038 10.057,4.902 10.083 C 3.786 10.292,2.695 11.216,2.264 12.320 C 2.057 12.849,2.035 13.002,2.011 14.083 C 1.984 15.321,2.001 15.403,2.342 15.715 C 2.611 15.960,2.769 16.000,3.482 16.000 L 4.000 16.000 4.000 16.174 C 4.000 16.445,4.145 16.946,4.338 17.340 C 4.853 18.389,6.020 19.063,7.189 18.987 C 8.237 18.918,9.210 18.271,9.661 17.344 C 9.854 16.947,10.000 16.445,10.000 16.176 L 10.000 16.005 11.930 15.992 C 13.838 15.980,13.862 15.979,14.002 15.892 C 14.163 15.792,14.551 15.369,16.623 13.038 C 18.286 11.167,18.803 10.573,18.908 10.414 C 18.973 10.314,18.981 10.168,18.994 8.833 C 19.003 7.916,18.992 7.237,18.964 7.031 C 18.867 6.291,18.346 5.593,17.625 5.237 L 17.270 5.062 16.525 5.034 C 15.670 5.002,15.071 5.003,14.637 5.037 M8.541 12.026 L 9.463 12.052 9.717 12.976 C 9.858 13.484,9.980 13.922,9.990 13.950 C 10.005 13.990,9.391 14.000,7.004 14.000 L 4.000 14.000 4.000 13.782 C 4.000 13.082,4.345 12.487,4.920 12.198 C 5.137 12.088,5.242 12.062,5.560 12.039 C 6.092 12.001,7.452 11.995,8.541 12.026 M18.257 13.098 C 17.319 13.362,16.530 14.069,16.202 14.942 C 16.002 15.476,15.955 16.022,16.063 16.552 C 16.298 17.696,17.101 18.565,18.222 18.887 C 18.675 19.018,19.375 19.017,19.800 18.885 C 20.343 18.717,20.702 18.502,21.102 18.102 C 21.403 17.800,21.494 17.677,21.652 17.360 C 21.911 16.838,21.978 16.560,21.978 16.000 C 21.978 15.447,21.912 15.166,21.662 14.658 C 21.351 14.024,20.733 13.475,20.008 13.188 C 19.719 13.074,19.661 13.066,19.080 13.053 C 18.631 13.044,18.404 13.056,18.257 13.098 M19.436 15.118 C 19.776 15.291,19.965 15.598,19.967 15.978 C 19.971 16.661,19.348 17.143,18.714 16.948 C 18.004 16.728,17.780 15.831,18.305 15.306 C 18.603 15.008,19.069 14.931,19.436 15.118 M7.983 16.150 C 7.911 16.559,7.614 16.875,7.220 16.964 C 6.667 17.087,6.125 16.720,6.019 16.150 L 5.991 16.000 7.000 16.000 L 8.009 16.000 7.983 16.150 " fill="#1A1C1F" stroke="none" fill-rule="evenodd"></path></svg>