<svg xmlns="http://www.w3.org/2000/svg" width="32" height="32" fill="none"><g clip-path="url(#a)"><path fill="#1A1C1F" fill-rule="evenodd" d="M26 17.5a4 4 0 1 1 0 8 4 4 0 0 1 0-8m-14 4c0 2.211-1.79 4-4 4-2.142 0-4-1.752-4-4H3a1 1 0 0 1-.993-.883L2 18.5a5 5 0 0 1 4.783-4.995l5.072-.005-.6-2H7c-.57 0-1-.487-1-1s.414-1 1-1h4.256a2 2 0 0 1 1.861 1.27l2.625 8.73h2.797L24 13.129V9.5a.977.977 0 0 0-1-.993L20 8.5a1 1 0 0 1-1-1c0-.513.419-1 1-1h3a3 3 0 0 1 2.995 2.824L26 13.5a1 1 0 0 1-.156.536l-6.085 7.115A.93.93 0 0 1 19 21.5zm14-2a2 2 0 1 0 0 4 2 2 0 0 0 0-4m-19.995 2c-.005 1.171.94 2 1.995 2a1.984 1.984 0 0 0 1.995-2zm6.438-6H7a3 3 0 0 0-2.995 2.824L4 19.5h9.652z" clip-rule="evenodd"/></g><defs><clipPath id="a"><path fill="#fff" d="M0 0h32v32H0z"/></clipPath></defs></svg>