<svg xmlns="http://www.w3.org/2000/svg" width="32" height="32" fill="none"><path fill="#1A1C1F" fill-rule="evenodd" d="M19.6 6.59c-.397.206-.656.646-.596 1.014.053.33.274.639.555.778.248.121.301.125 2.041.151 1.863.028 1.889.032 2.117.276.272.291.283.382.283 2.42v1.9l-2.733 3.193-2.734 3.194-1.4.002c-.77.001-1.4-.011-1.4-.026 0-.147-2.657-8.809-2.761-9.002-.183-.337-.478-.597-.912-.803l-.353-.167-2.385-.016c-1.616-.011-2.455.003-2.603.043-.303.081-.605.397-.685.714a.9.9 0 0 0 .216.862c.333.379.25.367 2.756.397l2.26.027.258.853c.141.469.271.907.288.973l.03.12-2.548.001c-2.687 0-3.218.035-3.856.257-1.865.647-3.169 2.253-3.406 4.196-.076.621-.076 2.495 0 2.773.082.298.291.554.548.671.173.078.35.1.82.101l.6.001v.189c0 .563.308 1.485.676 2.025a4.05 4.05 0 0 0 3.587 1.773c1.941-.107 3.536-1.669 3.72-3.643l.032-.344h7.222l.221-.12c.165-.09 1.003-1.035 3.339-3.771 2.855-3.343 3.124-3.673 3.174-3.909.088-.411.069-4.183-.024-4.704a3.02 3.02 0 0 0-2.27-2.4c-.511-.12-3.844-.119-4.077.001m-6.566 10.864c.32 1.063.592 1.963.606 1.999.02.053-.964.067-4.808.067H4v-.6c.001-.775.073-1.211.272-1.639a3 3 0 0 1 1.995-1.682c.208-.056.909-.073 3.226-.075l2.96-.003zm12.358.098a4.02 4.02 0 0 0-3.265 2.97c-.213.816-.115 1.878.246 2.667.624 1.361 2.108 2.304 3.627 2.304a4.08 4.08 0 0 0 3.255-1.679c1.212-1.698.883-4.118-.736-5.412-.419-.335-1.081-.668-1.536-.773-.467-.107-1.171-.141-1.591-.077m1.447 2.141c1.235.567 1.537 2.235.579 3.19-.341.339-.651.506-1.096.588a2.04 2.04 0 0 1-1.195-.173c-.377-.181-.82-.653-.969-1.032-.159-.403-.175-1.042-.037-1.439.188-.54.713-1.052 1.258-1.226.391-.126 1.082-.082 1.46.092m-16.882 2.1c-.062.609-.513 1.236-1.072 1.491-.627.287-1.143.287-1.77 0-.559-.255-1.01-.882-1.072-1.491l-.031-.3h3.976z"/></svg>