<svg width="12" height="12" viewBox="0 0 12 12" fill="none" xmlns="http://www.w3.org/2000/svg"><path d="M7.582 2.480 C 7.482 2.504,7.358 2.600,7.294 2.704 C 7.227 2.811,7.203 2.985,7.238 3.110 C 7.267 3.218,7.399 3.366,7.514 3.422 C 7.604 3.466,7.636 3.468,8.252 3.479 C 8.949 3.492,8.931 3.489,8.996 3.609 C 9.026 3.662,9.031 3.761,9.036 4.410 L 9.042 5.150 7.985 6.206 L 6.929 7.261 6.630 7.256 L 6.332 7.250 6.066 6.370 C 5.643 4.969,5.401 4.198,5.351 4.088 C 5.292 3.958,5.115 3.782,4.934 3.675 L 4.794 3.592 4.482 3.575 C 4.310 3.565,3.864 3.561,3.490 3.564 C 2.718 3.572,2.725 3.571,2.579 3.736 C 2.394 3.946,2.405 4.224,2.607 4.426 C 2.753 4.571,2.738 4.569,3.644 4.577 L 4.458 4.583 4.478 4.647 C 4.512 4.754,4.720 5.443,4.720 5.450 C 4.720 5.453,4.326 5.460,3.845 5.465 C 3.029 5.474,2.959 5.477,2.810 5.517 C 2.484 5.605,2.188 5.776,1.923 6.030 C 1.674 6.267,1.519 6.498,1.393 6.812 C 1.302 7.042,1.260 7.252,1.246 7.550 C 1.231 7.861,1.261 7.976,1.390 8.109 C 1.537 8.261,1.565 8.267,2.085 8.276 L 2.540 8.284 2.540 8.461 C 2.540 8.558,2.550 8.686,2.562 8.744 C 2.681 9.316,3.342 9.687,3.899 9.493 C 4.264 9.366,4.551 9.062,4.621 8.727 C 4.633 8.665,4.641 8.540,4.637 8.447 L 4.630 8.280 5.946 8.280 C 7.241 8.280,7.263 8.279,7.346 8.238 C 7.444 8.190,9.897 5.745,9.991 5.602 L 10.049 5.514 10.056 4.532 L 10.064 3.550 10.001 3.375 C 9.861 2.981,9.646 2.731,9.298 2.557 C 9.177 2.497,9.153 2.492,8.870 2.478 C 8.478 2.458,7.669 2.460,7.582 2.480 M9.460 7.487 C 9.250 7.533,9.050 7.665,8.882 7.870 C 8.633 8.172,8.592 8.591,8.774 8.976 C 8.843 9.125,9.072 9.354,9.223 9.428 C 9.640 9.630,10.128 9.556,10.440 9.243 C 10.585 9.098,10.646 8.992,10.709 8.773 C 10.773 8.551,10.773 8.450,10.710 8.230 C 10.650 8.024,10.626 7.975,10.531 7.862 C 10.264 7.541,9.861 7.400,9.460 7.487 " fill="#1A1C1F" stroke="none" fill-rule="evenodd"></path></svg>