<svg xmlns="http://www.w3.org/2000/svg" width="28" height="28" fill="none"><g clip-path="url(#a)"><path fill="#1A1C1F" fill-rule="evenodd" d="M22.75 15.313a3.5 3.5 0 1 1 0 7 3.5 3.5 0 0 1 0-7m-12.25 3.5c0 1.934-1.567 3.5-3.5 3.5-1.875 0-3.5-1.534-3.5-3.5h-.875a.875.875 0 0 1-.87-.773l-.005-1.852a4.375 4.375 0 0 1 4.185-4.371l4.438-.005-.525-1.75H6.125a.887.887 0 0 1-.875-.874c0-.45.362-.876.875-.876h3.724c.725 0 1.37.447 1.629 1.112l2.296 7.639h2.448L21 11.488V8.313a.855.855 0 0 0-.875-.87L17.5 7.438a.875.875 0 0 1 0-1.75h2.625a2.626 2.626 0 0 1 2.62 2.47l.005 3.655c0 .167-.048.33-.137.469l-5.324 6.225a.82.82 0 0 1-.664.305zm12.25-1.75a1.75 1.75 0 1 0 0 3.5 1.75 1.75 0 0 0 0-3.5m-17.495 1.75A1.733 1.733 0 0 0 7 20.563c.923 0 1.745-.726 1.745-1.75zm5.633-5.25H6.125a2.625 2.625 0 0 0-2.62 2.47l-.005 1.03h8.446z" clip-rule="evenodd"/></g><defs><clipPath id="a"><path fill="#fff" d="M0 0h28v28H0z"/></clipPath></defs></svg>