<svg width="28" height="28" viewBox="0 0 28 28" fill="none" xmlns="http://www.w3.org/2000/svg"><path d="M17.403 5.732 C 17.226 5.753,17.090 5.804,16.976 5.890 C 16.787 6.035,16.613 6.357,16.614 6.560 C 16.617 6.867,16.902 7.257,17.217 7.384 C 17.283 7.410,18.035 7.448,18.890 7.469 C 20.588 7.510,20.612 7.514,20.829 7.805 C 20.968 7.992,20.992 8.294,20.996 9.977 L 21.000 11.485 18.608 14.282 L 16.217 17.079 14.999 17.080 L 13.782 17.080 13.628 16.555 C 13.396 15.757,12.323 12.242,11.823 10.640 C 11.544 9.748,11.332 9.148,11.254 9.034 C 11.106 8.815,10.850 8.619,10.500 8.454 L 10.243 8.333 8.073 8.332 C 6.117 8.330,5.889 8.338,5.759 8.409 C 5.566 8.515,5.328 8.791,5.293 8.949 C 5.278 9.019,5.258 9.100,5.250 9.130 C 5.216 9.242,5.335 9.564,5.472 9.730 C 5.732 10.046,5.732 10.046,7.897 10.078 C 8.967 10.094,9.851 10.117,9.860 10.129 C 9.872 10.145,10.135 11.013,10.341 11.719 C 10.361 11.789,10.151 11.798,7.946 11.821 C 5.310 11.848,5.158 11.862,4.525 12.128 C 3.311 12.638,2.409 13.581,2.000 14.766 C 1.783 15.395,1.718 15.977,1.735 17.127 C 1.750 18.124,1.751 18.131,1.878 18.348 C 2.090 18.709,2.256 18.780,2.928 18.800 L 3.500 18.816 3.500 19.014 C 3.500 19.329,3.671 19.914,3.904 20.392 C 4.087 20.769,4.181 20.895,4.544 21.255 C 4.860 21.567,5.067 21.727,5.343 21.872 C 6.252 22.347,7.207 22.424,8.165 22.100 C 8.665 21.931,8.982 21.724,9.454 21.257 C 9.814 20.900,9.911 20.770,10.095 20.393 C 10.331 19.914,10.435 19.565,10.483 19.102 L 10.513 18.807 13.707 18.807 L 16.900 18.807 17.183 18.538 C 17.815 17.939,22.455 12.509,22.668 12.121 C 22.743 11.983,22.750 11.795,22.747 9.940 L 22.744 7.910 22.619 7.533 C 22.403 6.881,21.907 6.292,21.327 5.997 C 20.834 5.747,20.706 5.730,19.133 5.715 C 18.325 5.708,17.546 5.715,17.403 5.732 M11.413 15.295 L 11.929 17.010 11.809 17.039 C 11.744 17.056,9.844 17.071,7.588 17.074 L 3.486 17.080 3.513 16.392 C 3.530 15.955,3.568 15.609,3.618 15.447 C 3.833 14.737,4.394 14.105,5.087 13.793 C 5.491 13.611,5.748 13.596,8.587 13.587 L 10.897 13.580 11.413 15.295 M22.050 15.384 C 21.806 15.436,21.252 15.652,21.034 15.780 C 20.376 16.165,19.947 16.625,19.624 17.290 C 19.329 17.899,19.254 18.263,19.287 18.935 C 19.330 19.808,19.551 20.420,20.037 21.006 C 20.479 21.541,20.994 21.887,21.696 22.121 C 22.674 22.448,23.679 22.325,24.606 21.763 C 25.183 21.413,25.766 20.707,26.005 20.067 C 26.524 18.681,26.110 17.065,25.002 16.150 C 24.630 15.843,23.964 15.511,23.543 15.423 C 23.243 15.360,22.279 15.335,22.050 15.384 M23.067 17.125 C 23.802 17.245,24.360 17.833,24.453 18.584 C 24.523 19.148,24.354 19.645,23.960 20.040 C 23.263 20.737,22.222 20.734,21.532 20.033 C 21.167 19.662,21.076 19.441,21.054 18.871 C 21.038 18.435,21.047 18.375,21.164 18.114 C 21.299 17.812,21.690 17.393,21.973 17.247 C 22.266 17.096,22.637 17.054,23.067 17.125 M8.707 19.052 C 8.611 19.789,8.045 20.373,7.271 20.531 C 6.378 20.714,5.416 19.995,5.293 19.052 L 5.261 18.807 7.000 18.807 L 8.739 18.807 8.707 19.052 " fill="#1A1C1F" stroke="none" fill-rule="evenodd"></path></svg>