<svg width="14" height="14" viewBox="0 0 14 14" fill="none" xmlns="http://www.w3.org/2000/svg"><path d="M8.846 2.893 C 8.728 2.921,8.584 3.033,8.507 3.158 C 8.426 3.289,8.403 3.471,8.447 3.629 C 8.484 3.763,8.626 3.925,8.766 3.992 C 8.869 4.042,8.910 4.045,9.626 4.059 C 10.440 4.075,10.420 4.071,10.496 4.210 C 10.530 4.273,10.536 4.388,10.542 5.145 L 10.549 6.008 9.316 7.240 L 8.084 8.471 7.735 8.465 L 7.387 8.458 6.995 7.163 C 6.354 5.044,6.262 4.765,6.165 4.638 C 6.060 4.501,5.891 4.361,5.694 4.251 L 5.542 4.166 4.410 4.166 C 3.127 4.165,3.187 4.157,3.009 4.358 C 2.793 4.604,2.806 4.928,3.042 5.163 C 3.211 5.332,3.194 5.330,4.252 5.339 L 5.202 5.348 5.264 5.550 C 5.475 6.241,5.500 6.335,5.475 6.350 C 5.460 6.358,5.002 6.370,4.457 6.376 C 3.338 6.388,3.283 6.395,2.898 6.580 C 2.626 6.710,2.468 6.819,2.243 7.035 C 1.954 7.312,1.772 7.580,1.626 7.948 C 1.519 8.216,1.470 8.461,1.453 8.809 C 1.436 9.171,1.471 9.305,1.622 9.461 C 1.794 9.637,1.826 9.645,2.433 9.655 L 2.963 9.664 2.963 9.871 C 2.963 10.255,3.062 10.523,3.289 10.754 C 3.446 10.914,3.575 10.991,3.818 11.074 C 4.265 11.227,4.742 11.093,5.104 10.712 C 5.330 10.475,5.425 10.211,5.410 9.855 L 5.402 9.660 6.937 9.660 C 8.447 9.660,8.473 9.659,8.570 9.611 C 8.684 9.554,11.546 6.702,11.656 6.536 L 11.724 6.433 11.733 5.287 L 11.741 4.142 11.661 3.919 C 11.501 3.473,11.249 3.183,10.848 2.983 C 10.711 2.915,10.672 2.907,10.383 2.891 C 9.977 2.868,8.948 2.869,8.846 2.893 M11.016 8.739 C 10.835 8.779,10.656 8.883,10.488 9.047 C 10.238 9.291,10.129 9.521,10.110 9.847 C 10.076 10.407,10.423 10.909,10.965 11.083 C 11.108 11.129,11.164 11.134,11.381 11.124 C 11.683 11.110,11.822 11.062,12.046 10.894 C 12.336 10.677,12.515 10.348,12.547 9.974 C 12.568 9.732,12.447 9.364,12.282 9.166 C 11.970 8.791,11.503 8.634,11.016 8.739 " fill="#1A1C1F" stroke="none" fill-rule="evenodd"></path></svg>