<svg width="28" height="28" viewBox="0 0 28 28" fill="none" xmlns="http://www.w3.org/2000/svg"><path d="M17.313 5.867 C 17.119 5.903,16.907 6.099,16.821 6.322 C 16.752 6.502,16.749 6.562,16.799 6.738 C 16.883 7.040,17.111 7.241,17.417 7.285 C 17.553 7.304,18.199 7.323,18.853 7.327 C 20.422 7.337,20.529 7.351,20.771 7.586 C 21.116 7.921,21.106 7.854,21.130 9.781 L 21.153 11.512 18.708 14.366 L 16.263 17.219 14.977 17.219 L 13.690 17.220 13.395 16.228 C 13.117 15.291,11.713 10.717,11.379 9.660 C 11.245 9.236,11.196 9.142,11.014 8.960 C 10.898 8.845,10.692 8.690,10.556 8.617 L 10.308 8.485 8.386 8.459 C 6.062 8.428,5.892 8.440,5.642 8.666 C 5.395 8.890,5.327 9.122,5.431 9.394 C 5.552 9.712,5.722 9.844,6.072 9.895 C 6.236 9.919,7.011 9.939,7.793 9.939 C 8.576 9.940,9.386 9.954,9.593 9.970 L 9.970 9.999 10.242 10.915 C 10.391 11.418,10.522 11.853,10.532 11.881 C 10.545 11.917,9.816 11.941,8.040 11.963 C 5.053 12.001,5.051 12.001,4.261 12.410 C 3.340 12.886,2.739 13.478,2.337 14.303 C 1.950 15.100,1.849 15.747,1.875 17.277 C 1.890 18.136,1.890 18.139,2.022 18.329 C 2.224 18.620,2.367 18.667,3.052 18.667 L 3.640 18.667 3.640 18.955 C 3.640 19.365,3.754 19.788,4.003 20.300 C 4.185 20.675,4.284 20.809,4.642 21.169 C 5.005 21.533,5.130 21.625,5.508 21.807 C 6.098 22.090,6.547 22.185,7.157 22.155 C 7.714 22.127,8.219 21.980,8.680 21.713 C 9.053 21.496,9.676 20.882,9.887 20.522 C 10.130 20.108,10.321 19.500,10.349 19.053 L 10.373 18.667 13.505 18.666 C 15.227 18.665,16.716 18.646,16.814 18.623 C 17.011 18.578,17.070 18.518,18.238 17.185 C 20.101 15.060,22.411 12.330,22.533 12.110 C 22.600 11.988,22.612 11.746,22.625 10.243 C 22.645 7.834,22.593 7.487,22.118 6.853 C 21.690 6.280,21.142 5.955,20.479 5.879 C 20.097 5.835,17.543 5.826,17.313 5.867 M22.143 15.513 C 20.838 15.767,19.828 16.715,19.478 18.013 C 19.357 18.464,19.366 19.196,19.500 19.668 C 19.795 20.712,20.522 21.526,21.513 21.924 C 23.692 22.799,26.104 21.172,26.102 18.830 C 26.102 18.263,26.005 17.847,25.757 17.337 C 25.412 16.628,24.923 16.155,24.169 15.799 C 23.520 15.493,22.780 15.388,22.143 15.513 M23.463 17.090 C 23.992 17.285,24.506 17.941,24.586 18.521 C 24.751 19.732,23.839 20.734,22.634 20.664 C 21.309 20.587,20.502 19.184,21.092 17.985 C 21.342 17.477,21.850 17.072,22.344 16.987 C 22.651 16.934,23.171 16.982,23.463 17.090 M8.848 18.972 C 8.738 20.049,7.939 20.722,6.840 20.664 C 6.369 20.640,6.051 20.500,5.717 20.172 C 5.389 19.849,5.133 19.239,5.133 18.777 L 5.133 18.667 7.006 18.667 L 8.880 18.667 8.848 18.972 " fill="#1A1C1F" stroke="none" fill-rule="evenodd"></path></svg>