<svg xmlns="http://www.w3.org/2000/svg" width="12" height="12" fill="none"><g clip-path="url(#a)"><path fill="#1A1C1F" fill-rule="evenodd" d="M9.705 7.451a1.05 1.05 0 1 1 0 2.1 1.05 1.05 0 0 1 0-2.1m-5.094.824c.187.727-.446 1.276-1.026 1.276s-1.182-.5-1.026-1.276h-.804a.51.51 0 0 1-.506-.446l-.004-.264c0-1.127.95-2.11 1.994-2.107l1.485-.003-.267-.884H2.955a.51.51 0 0 1-.51-.51c0-.27.215-.51.51-.51h1.56c.374 0 .76.291.89.635l.928 3.068h.614l2.098-2.113V3.79c0-.152-.077-.317-.223-.317l-1.1-.005a.51.51 0 0 1-.51-.51c0-.26.22-.51.51-.51h1.1c.671 0 1.196.562 1.24 1.248l.003 1.654a.5.5 0 0 1-.104.309L7.522 8.124a.54.54 0 0 1-.362.15z" clip-rule="evenodd"/></g><defs><clipPath id="a"><path fill="#fff" d="M0 0h12v12H0z"/></clipPath></defs></svg>