<svg xmlns="http://www.w3.org/2000/svg" width="32" height="32" fill="none"><path fill="#1A1C1F" fill-rule="evenodd" d="M19.573 6.787c-.248.168-.376.36-.41.614-.04.296.137.66.401.824.192.119.235.122 2.018.148l1.822.027.232.162c.127.09.291.27.364.4l.133.238.017 1.984.016 1.983-2.79 3.256-2.789 3.256h-1.48c-.814.001-1.48-.01-1.48-.024 0-.149-2.704-8.962-2.8-9.126-.17-.29-.459-.539-.825-.71l-.295-.139-2.438-.015c-2.352-.015-2.446-.012-2.648.091a.94.94 0 0 0-.47.665c-.042.259.147.633.399.79.195.121.215.123 2.513.149l2.316.027.337 1.12c.185.616.336 1.124.337 1.13 0 .006-1.314.019-2.92.029-2.813.018-2.935.023-3.346.136-1.46.401-2.72 1.497-3.262 2.837-.312.775-.352 1.044-.376 2.561-.022 1.395-.021 1.417.101 1.653.068.132.205.294.305.36.165.11.243.12.893.12h.712v.338c0 .421.16 1.062.373 1.494a3.86 3.86 0 0 0 4.973 1.87c1.342-.565 2.334-2.015 2.334-3.412v-.29h3.694c3.418 0 3.707-.007 3.864-.093.214-.117 6.225-7.106 6.365-7.4.094-.199.101-.359.102-2.373 0-2.394-.024-2.634-.327-3.254-.22-.449-.759-.994-1.205-1.22-.612-.309-.761-.326-2.763-.326-1.801 0-1.823.001-1.997.12M25.2 17.74c-.469.097-1.239.468-1.64.789-1.028.824-1.588 2.301-1.357 3.579.263 1.453 1.219 2.569 2.614 3.05.528.183 1.399.226 1.989.099 2.465-.532 3.772-3.303 2.604-5.523-.408-.775-.945-1.289-1.757-1.683a3.76 3.76 0 0 0-2.453-.311m1.704 1.824c.86.403 1.368 1.354 1.209 2.263-.166.947-.896 1.672-1.8 1.789-1.191.153-2.218-.604-2.426-1.789-.152-.868.329-1.823 1.119-2.223.39-.198.615-.243 1.112-.221.351.015.506.05.786.181m-16.783 2.137a2.36 2.36 0 0 1-.492 1.221c-.503.594-1.506.871-2.289.631-.8-.245-1.374-.986-1.457-1.883l-.032-.337h4.297z"/></svg>