<svg xmlns="http://www.w3.org/2000/svg" width="14" height="14" fill="none"><g clip-path="url(#a)"><path fill="#1A1C1F" fill-rule="evenodd" d="M11.322 8.693a1.225 1.225 0 1 1 0 2.45 1.225 1.225 0 0 1 0-2.45m-5.943.961c.219.849-.52 1.49-1.197 1.49-.676 0-1.378-.584-1.196-1.49h-.938a.595.595 0 0 1-.59-.52l-.005-.308c0-1.315 1.108-2.462 2.326-2.458l1.732-.004L5.2 5.332l-1.752.001a.594.594 0 0 1-.595-.595c0-.315.251-.595.595-.595h1.82c.437 0 .887.34 1.038.741l1.083 3.58h.717l2.447-2.467V4.424c0-.178-.09-.372-.26-.372L9.01 4.047a.595.595 0 0 1-.595-.595c0-.303.257-.595.595-.595h1.283c.783 0 1.395.656 1.447 1.457l.003 1.93c0 .13-.043.256-.121.36L8.776 9.477a.63.63 0 0 1-.423.176z" clip-rule="evenodd"/></g><defs><clipPath id="a"><path fill="#fff" d="M0 0h14v14H0z"/></clipPath></defs></svg>