<svg xmlns="http://www.w3.org/2000/svg" width="28" height="28" fill="none"><g clip-path="url(#a)"><path fill="#1A1C1F" fill-rule="evenodd" d="M10.366 18.673a3.369 3.369 0 0 1-6.73.312v-.312l-1.011.008a.744.744 0 0 1-.738-.65l-.006-1.843c0-2.28 1.799-4.141 4.055-4.24l4.613-.004-.575-1.92a.13.13 0 0 0-.125-.093H6.125a.744.744 0 0 1-.744-.744c0-.379.323-.743.744-.743h3.724c.67 0 1.267.413 1.507 1.028l2.322 7.722h2.604l4.85-5.658V8.312c0-.518-.394-.945-.898-1L17.5 7.306a.744.744 0 1 1 0-1.487h2.625a2.495 2.495 0 0 1 2.49 2.347l.004 3.646a.8.8 0 0 1-.18.485q-.126.156-5.25 6.125a.74.74 0 0 1-.564.26q-.24-.009-6.259-.009m12.384-3.23a3.369 3.369 0 1 1 0 6.738 3.369 3.369 0 0 1 0-6.737M5.119 18.682c0 1.24.842 2.013 1.881 2.013.994 0 1.936-.771 1.881-2.02q0 .007-3.762.007m17.631-1.75a1.881 1.881 0 1 0 0 3.763 1.881 1.881 0 0 0 0-3.763" clip-rule="evenodd"/></g><defs><clipPath id="a"><path fill="#fff" d="M0 0h28v28H0z"/></clipPath></defs></svg>