<svg xmlns="http://www.w3.org/2000/svg" width="24" height="24" fill="none"><g clip-path="url(#a)"><path fill="#1A1C1F" fill-rule="evenodd" d="M16.672 5.161c1.16 0 2.098.922 2.178 2.076l.005 2.752c0 .201-.1.438-.216.566l-4.468 5a.84.84 0 0 1-.634.284H9.85a2.85 2.85 0 0 1-2.849 3 2.864 2.864 0 0 1-2.85-3H3a.85.85 0 0 1-.843-.744L2.15 13.36c0-1.586 1.081-2.804 2.67-2.84l4.334-.006-.461-1.598H6a.863.863 0 0 1-.85-.85c0-.433.343-.85.85-.85h2.837c.633 0 1.19.398 1.412.98l1.723 5.944h1.184l3.999-4.475V7.396c0-.268-.177-.482-.398-.526l-2.085-.009a.85.85 0 1 1 0-1.7zM19 13.14a2.85 2.85 0 1 1 0 5.7 2.85 2.85 0 0 1 0-5.7M5.85 15.83c-.039.795.476 1.309 1.15 1.309s1.2-.514 1.15-1.309zM19 14.84a1.15 1.15 0 1 0 0 2.3 1.15 1.15 0 0 0 0-2.3" clip-rule="evenodd"/></g><defs><clipPath id="a"><path fill="#fff" d="M0 0h24v24H0z"/></clipPath></defs></svg>