<svg width="20" height="20" viewBox="0 0 20 20" fill="none" xmlns="http://www.w3.org/2000/svg"><path d="M12.637 4.133 C 12.468 4.173,12.263 4.333,12.153 4.511 C 11.967 4.813,12.002 5.212,12.238 5.481 C 12.489 5.766,12.526 5.774,13.752 5.799 C 14.915 5.823,14.886 5.818,14.994 6.014 C 15.043 6.104,15.051 6.269,15.060 7.350 L 15.070 8.583 13.309 10.343 L 11.548 12.102 11.051 12.093 L 10.553 12.083 9.993 10.233 C 9.077 7.206,8.946 6.807,8.808 6.626 C 8.658 6.429,8.416 6.231,8.134 6.073 L 7.917 5.951 6.283 5.951 L 4.650 5.950 4.526 6.027 C 4.233 6.209,4.039 6.568,4.079 6.854 C 4.118 7.139,4.323 7.422,4.587 7.552 C 4.707 7.612,4.813 7.617,6.073 7.628 L 7.430 7.639 7.530 7.961 C 7.675 8.433,7.867 9.069,7.867 9.082 C 7.867 9.088,7.210 9.100,6.408 9.108 C 5.049 9.123,4.932 9.129,4.683 9.196 C 4.141 9.342,3.646 9.627,3.204 10.050 C 2.482 10.741,2.126 11.539,2.076 12.584 C 2.052 13.101,2.101 13.293,2.317 13.516 C 2.562 13.768,2.609 13.779,3.475 13.793 L 4.233 13.806 4.233 14.102 C 4.233 14.264,4.250 14.476,4.270 14.573 C 4.468 15.527,5.570 16.144,6.498 15.822 C 7.104 15.611,7.586 15.100,7.701 14.545 C 7.722 14.442,7.735 14.233,7.728 14.079 L 7.717 13.800 9.910 13.800 C 12.068 13.800,12.105 13.799,12.243 13.730 C 12.406 13.649,16.496 9.574,16.652 9.337 L 16.749 9.190 16.761 7.554 L 16.773 5.917 16.669 5.625 C 16.435 4.969,16.076 4.551,15.496 4.262 C 15.299 4.163,15.248 4.153,14.817 4.130 C 14.212 4.097,12.783 4.099,12.637 4.133 M15.737 12.485 C 15.478 12.541,15.219 12.692,14.983 12.922 C 14.627 13.271,14.470 13.602,14.442 14.067 C 14.394 14.870,14.887 15.583,15.664 15.833 C 15.869 15.898,15.948 15.906,16.259 15.892 C 16.689 15.872,16.888 15.803,17.208 15.563 C 17.622 15.253,17.878 14.784,17.924 14.249 C 17.953 13.908,17.781 13.374,17.555 13.106 C 17.093 12.555,16.440 12.332,15.737 12.485 " fill="#1A1C1F" stroke="none" fill-rule="evenodd"></path></svg>