<svg width="14" height="14" viewBox="0 0 14 14" fill="none" xmlns="http://www.w3.org/2000/svg"><path d="M8.824 2.853 C 8.781 2.867,8.696 2.923,8.635 2.978 C 8.272 3.304,8.365 3.903,8.813 4.121 C 8.940 4.184,8.944 4.184,9.645 4.202 C 10.032 4.211,10.367 4.226,10.390 4.236 C 10.413 4.245,10.442 4.272,10.455 4.297 C 10.470 4.324,10.485 4.674,10.493 5.168 L 10.507 5.993 9.309 7.208 L 8.111 8.423 7.826 8.423 L 7.542 8.423 7.494 8.242 C 7.467 8.143,7.278 7.426,7.072 6.650 C 6.595 4.845,6.452 4.335,6.380 4.179 C 6.312 4.029,6.066 3.781,5.873 3.667 C 5.606 3.508,5.654 3.514,4.445 3.513 C 3.609 3.512,3.324 3.519,3.248 3.542 C 3.121 3.580,2.889 3.807,2.844 3.935 C 2.794 4.078,2.804 4.355,2.862 4.483 C 2.927 4.624,3.063 4.759,3.220 4.838 L 3.346 4.900 4.070 4.900 C 4.469 4.900,4.880 4.907,4.983 4.915 L 5.171 4.930 5.256 5.258 C 5.303 5.439,5.336 5.592,5.329 5.599 C 5.322 5.606,4.947 5.619,4.496 5.627 C 3.511 5.646,3.447 5.651,3.210 5.729 C 2.797 5.866,2.425 6.097,2.131 6.399 C 1.846 6.693,1.660 6.997,1.534 7.373 C 1.418 7.720,1.412 7.785,1.412 8.552 L 1.412 9.275 1.477 9.408 C 1.551 9.558,1.664 9.668,1.819 9.738 C 1.911 9.780,1.983 9.788,2.363 9.796 L 2.800 9.805 2.800 9.869 C 2.800 9.988,2.892 10.292,2.976 10.452 C 3.074 10.639,3.298 10.875,3.483 10.986 C 3.714 11.124,3.924 11.184,4.188 11.186 C 4.583 11.189,4.878 11.062,5.181 10.758 C 5.410 10.528,5.562 10.221,5.593 9.924 L 5.606 9.803 7.102 9.794 C 8.163 9.788,8.622 9.777,8.680 9.758 C 8.740 9.738,9.065 9.426,9.907 8.581 C 11.374 7.110,11.792 6.672,11.855 6.542 C 11.905 6.438,11.905 6.430,11.894 5.266 C 11.884 4.153,11.881 4.088,11.834 3.961 C 11.627 3.389,11.149 2.941,10.647 2.848 C 10.471 2.815,8.928 2.820,8.824 2.853 M5.277 7.015 L 5.732 7.030 5.903 7.698 C 5.997 8.065,6.079 8.378,6.085 8.394 C 6.093 8.417,5.755 8.423,4.444 8.423 L 2.793 8.423 2.807 8.172 C 2.823 7.890,2.854 7.782,2.970 7.602 C 3.047 7.483,3.223 7.296,3.330 7.221 C 3.494 7.106,3.679 7.039,3.873 7.023 C 4.150 7.001,4.740 6.997,5.277 7.015 M10.897 8.435 C 10.426 8.541,10.038 8.896,9.876 9.368 C 9.790 9.620,9.786 9.986,9.868 10.220 C 9.971 10.517,10.195 10.802,10.466 10.982 C 10.872 11.252,11.528 11.252,11.934 10.982 C 12.097 10.873,12.304 10.661,12.399 10.504 C 12.724 9.968,12.638 9.281,12.192 8.830 C 11.922 8.558,11.639 8.430,11.263 8.411 C 11.122 8.404,10.996 8.412,10.897 8.435 " fill="#1A1C1F" stroke="none" fill-rule="evenodd"></path></svg>