<svg xmlns="http://www.w3.org/2000/svg" width="24" height="24" fill="none"><g clip-path="url(#a)"><path fill="#1A1C1F" fill-rule="evenodd" d="M16.672 5C17.915 5 18.919 6.011 19 7.245L19.005 10a1 1 0 0 1-.178.57l-4.544 5.096a.92.92 0 0 1-.746.334H10a3 3 0 1 1-6 0H3a1 1 0 0 1-.993-.883L2 13.667C2 11.707 3.572 10 5.667 10H8.9l-.266-.996H6c-.555 0-.994-.491-.994-1.004s.474-.977.994-.977l2.837.007c.696 0 1.307.437 1.552 1.076L12 14h1.005l4-4.383v-2.21c0-.193-.075-.409-.333-.409h-2c-.552 0-1-.423-1-.975 0-.513.452-1.023 1-1.023zM19 13a3 3 0 1 1 0 6 3 3 0 0 1 0-6M6 16a1 1 0 0 0 1 1c.513 0 1-.384 1-1zm13-1a1 1 0 1 0 0 2 1 1 0 0 0 0-2m-9.55-3H5.667c-.872 0-1.588.67-1.66 1.523L4 14h6z" clip-rule="evenodd"/></g><defs><clipPath id="a"><path fill="#fff" d="M0 0h24v24H0z"/></clipPath></defs></svg>