<svg xmlns="http://www.w3.org/2000/svg" width="16" height="16" fill="none"><g clip-path="url(#a)"><path fill="#1A1C1F" fill-rule="evenodd" d="M11.823 3.205c.963 0 1.773.883 1.773 1.782l.004 2.208a.8.8 0 0 1-.163.484l-3.262 3.297c-.126.127-.254.219-.568.219H6.404c-.01.875-.744 1.6-1.604 1.6s-1.6-.708-1.595-1.6H2.4c-.434 0-.795-.31-.795-.798L1.6 9.347a2.934 2.934 0 0 1 2.778-2.93l1.737-.004-.216-.82H3.992a.79.79 0 0 1-.792-.8c0-.41.3-.788.792-.8h2.08c.553 0 1.114.426 1.307.953l1.236 4.667h.659l2.725-2.748v-1.75c0-.17-.043-.321-.26-.321l-1.333-.007a.793.793 0 0 1-.8-.793c0-.41.26-.789.8-.789zm.977 6.39a1.6 1.6 0 1 1 0 3.2 1.6 1.6 0 0 1 0-3.2M6.543 8H4.539c-.698 0-1.34.67-1.334 1.231q-.005.165-.005.382h3.76z" clip-rule="evenodd"/></g><defs><clipPath id="a"><path fill="#fff" d="M0 0h16v16H0z"/></clipPath></defs></svg>