<svg xmlns="http://www.w3.org/2000/svg" width="14" height="14" fill="none"><g clip-path="url(#a)"><path fill="#1A1C1F" fill-rule="evenodd" d="M10.345 2.804c.843 0 1.551.773 1.551 1.56l.004 1.932a.7.7 0 0 1-.143.423L8.903 9.604c-.11.11-.222.192-.497.192H5.604c-.01.765-.651 1.4-1.404 1.4s-1.4-.62-1.396-1.4H2.1a.674.674 0 0 1-.695-.699L1.4 8.178a2.567 2.567 0 0 1 2.43-2.563l1.52-.004-.188-.717h-1.67a.69.69 0 0 1-.692-.7c0-.358.262-.69.693-.7h1.82c.484 0 .975.372 1.143.833l1.082 4.084h.576L10.5 6.007v-1.53c0-.15-.038-.282-.227-.282l-1.167-.007a.694.694 0 0 1-.7-.693c0-.36.227-.69.7-.69zm.855 5.592a1.4 1.4 0 1 1 0 2.8 1.4 1.4 0 0 1 0-2.8M5.725 7H3.97c-.61 0-1.171.587-1.167 1.077q-.004.145-.004.334h3.29z" clip-rule="evenodd"/></g><defs><clipPath id="a"><path fill="#fff" d="M0 0h14v14H0z"/></clipPath></defs></svg>