<svg xmlns="http://www.w3.org/2000/svg" width="12" height="12" fill="none"><g clip-path="url(#a)"><path fill="#1A1C1F" fill-rule="evenodd" d="M8.867 2.404c.723 0 1.33.662 1.33 1.336l.003 1.656a.6.6 0 0 1-.122.364L7.63 8.232c-.094.095-.19.164-.426.164H4.803a1.223 1.223 0 0 1-1.203 1.2c-.645 0-1.2-.53-1.196-1.2H1.8a.58.58 0 0 1-.596-.598L1.2 7.01a2.2 2.2 0 0 1 2.083-2.197l1.303-.003-.162-.615h-1.43a.593.593 0 0 1-.594-.6.59.59 0 0 1 .594-.6h1.56c.415 0 .836.319.98.714l.927 3.5h.494L9 5.15V3.837c0-.128-.032-.242-.194-.242l-1-.005a.595.595 0 0 1-.6-.595c0-.307.194-.591.6-.591zM9.6 7.196a1.2 1.2 0 1 1 0 2.4 1.2 1.2 0 0 1 0-2.4M4.907 6H3.404c-.523 0-1.004.503-1 .924a10 10 0 0 0-.004.285h2.82z" clip-rule="evenodd"/></g><defs><clipPath id="a"><path fill="#fff" d="M0 0h12v12H0z"/></clipPath></defs></svg>