<svg xmlns="http://www.w3.org/2000/svg" width="14" height="14" fill="none"><g clip-path="url(#a)"><path fill="#1A1C1F" fill-rule="evenodd" d="M11.202 10.739c.048.055.311.46.698.46a.7.7 0 0 1 .7.7.71.71 0 0 1-.703.7q-.574 0-1.222-.463-.606.457-1.225.457-.618 0-1.225-.457-.612.458-1.227.464t-1.223-.463q-.612.456-1.225.463t-1.225-.463q-.603.456-1.225.463a.7.7 0 0 1 0-1.4c.084 0 .419-.141.698-.46a.7.7 0 0 1 1.054 0c.048.054.34.46.698.46.359 0 .65-.406.698-.461a.7.7 0 0 1 1.054 0c.048.055.35.46.698.46.35 0 .65-.405.698-.46a.7.7 0 0 1 1.053 0c.049.055.35.46.7.46.348.001.65-.405.697-.46a.7.7 0 0 1 1.054 0M8.4 1.399a.7.7 0 0 1 .656.455L10.15 4.9h1.75a.7.7 0 0 1 .7.724c-.054 1.557-.735 3.017-1.875 4.005a.7.7 0 1 1-.917-1.058c.655-.568 1.04-1.213 1.306-2.271a957 957 0 0 0-9.014 0c-.359 0-.7-.341-.7-.7a.7.7 0 0 1 .618-.695L8.706 4.9l-.831-2.1H2.1c-.359 0-.7-.341-.7-.7a.7.7 0 0 1 .618-.695zm0 5.6a.7.7 0 1 1 0 1.4.7.7 0 0 1 0-1.4M5.6 7a.7.7 0 1 1 0 1.4.7.7 0 0 1 0-1.4M2.8 7a.7.7 0 1 1 0 1.4.7.7 0 0 1 0-1.4" clip-rule="evenodd"/></g><defs><clipPath id="a"><path fill="#fff" d="M0 0h14v14H0z"/></clipPath></defs></svg>