<svg xmlns="http://www.w3.org/2000/svg" width="20" height="20" fill="none"><g clip-path="url(#a)"><path fill="#1A1C1F" fill-rule="evenodd" d="M15.792 15.097c.424.459.821.727 1.107.727a.85.85 0 1 1 0 1.7q-.904 0-1.741-.696-.907.696-1.82.696-.912 0-1.801-.72-.944.72-1.814.72t-1.76-.677q-.764.677-1.632.677-.869 0-1.853-.721-.725.57-1.58.571a.85.85 0 0 1 0-1.7q.391 0 .88-.526a.85.85 0 0 1 1.266-.078c.094.093.794.754 1.22.754q.412 0 .936-.634a.85.85 0 0 1 1.315-.101c.085.09.762.735 1.208.735.415 0 1.118-.644 1.203-.734a.85.85 0 0 1 1.243.008c.081.089.74.726 1.198.726.282 0 .696-.223 1.187-.737a.85.85 0 0 1 1.238.01M12.65 2.476a.85.85 0 0 1 .789.533l.344 1.347-6.902.007c-.418 0-.79.41-.79.843s.424.85.79.85h7.327l.355 1.42H17.1a.85.85 0 0 1 .845.951c-.06.49-1.331 3.083-2.29 4.038q-.503.56-.928.826a2.63 2.63 0 0 1-1.412.427q-.819 0-1.738-.666-.866.893-1.763.923t-1.845-.803q-.77.805-1.638.805t-1.762-.815q-.79.815-1.67.815c-.433 0-.85-.357-.85-.805V3.326c0-.434.324-.85.85-.85zm.287 5.34a1 1 0 1 0 0 2 1 1 0 0 0 0-2m-4 0a1 1 0 1 0 0 2 1 1 0 0 0 0-2m-4 0a1 1 0 1 0 0 2 1 1 0 0 0 0-2" clip-rule="evenodd"/></g><defs><clipPath id="a"><path fill="#fff" d="M0 0h20v20H0z"/></clipPath></defs></svg>