<svg xmlns="http://www.w3.org/2000/svg" width="28" height="28" fill="none"><g clip-path="url(#a)"><path fill="#1A1C1F" fill-rule="evenodd" d="M23.108 20.968q.576.6.784.77c.49.402 1.068.706 1.481.706a.744.744 0 1 1 0 1.487q-1.368 0-2.842-1.411-1.512 1.41-2.842 1.411-1.33 0-2.845-1.412-1.501 1.415-2.848 1.412-1.346-.002-2.84-1.411-1.49 1.41-2.843 1.411-1.353 0-2.844-1.412-1.503 1.413-2.844 1.412a.744.744 0 0 1 0-1.487c.403 0 .938-.258 1.484-.706q.207-.17.782-.769a.744.744 0 0 1 1.155 0q.575.598.782.769c.491.403 1.047.706 1.484.706s.993-.303 1.484-.706q.208-.17.783-.77a.744.744 0 0 1 1.154 0q.576.6.784.77c.49.402 1.042.707 1.482.706s.94-.26 1.484-.706q.208-.17.784-.77a.744.744 0 0 1 1.086-.073q.644.672.852.842c.488.4 1.05.708 1.484.707s.937-.26 1.482-.706q.208-.17.783-.77a.744.744 0 0 1 1.154 0M17.5 4.068c.307 0 .578.189.69.467l.548 2.159L7.694 6.7a.744.744 0 0 0 0 1.475l11.417.006.724 2.888H24.5c.422 0 .761.35.743.77-.12 2.817-1.428 4.985-2.045 5.866s-.701.959-1.054 1.353c-.717.8-1.506 1.373-2.504 1.373q-1.355 0-2.828-1.767-1.454 1.77-2.84 1.767-1.389-.002-2.835-1.767-1.408 1.767-2.824 1.767t-2.85-1.766q-1.473 1.794-2.838 1.794a.75.75 0 0 1-.744-.744v-8.471l15.275-.006a.744.744 0 0 0 0-1.476L1.88 9.756V4.812c0-.41.333-.743.744-.743zm-3.281 9.495a1.094 1.094 0 1 0 0 2.187 1.094 1.094 0 0 0 0-2.187m4.375 0a1.094 1.094 0 1 0 0 2.187 1.094 1.094 0 0 0 0-2.187m-8.75 0a1.094 1.094 0 1 0 0 2.187 1.094 1.094 0 0 0 0-2.187m-4.375 0a1.094 1.094 0 1 0 0 2.187 1.094 1.094 0 0 0 0-2.187" clip-rule="evenodd"/></g><defs><clipPath id="a"><path fill="#fff" d="M0 0h28v28H0z"/></clipPath></defs></svg>