<svg xmlns="http://www.w3.org/2000/svg" width="16" height="16" fill="none"><g clip-path="url(#a)"><path fill="#1A1C1F" fill-rule="evenodd" d="M12.634 12.078c.339.367.656.582.885.582a.68.68 0 1 1 0 1.36q-.723 0-1.393-.558-.725.558-1.455.558t-1.442-.576q-.754.575-1.45.575t-1.409-.542q-.61.543-1.305.543t-1.483-.578q-.58.457-1.263.457a.68.68 0 1 1 0-1.36q.312 0 .704-.42a.68.68 0 0 1 1.012-.063c.075.075.635.604.976.604q.33 0 .749-.508a.68.68 0 0 1 1.052-.08c.068.071.61.587.967.588.331 0 .894-.516.962-.588a.68.68 0 0 1 .994.007c.065.07.592.58.959.58.225 0 .556-.178.949-.59a.68.68 0 0 1 .99.009M10.119 1.98c.28 0 .53.172.631.428l.275 1.076-5.521.006c-.335 0-.632.328-.632.675 0 .346.34.68.632.68h5.861l.284 1.135h2.031c.42 0 .724.37.676.762-.049.391-1.065 2.466-1.832 3.23q-.402.447-.743.66c-.34.215-.718.343-1.129.343q-.655 0-1.39-.534-.693.715-1.41.739-.72.024-1.477-.643-.615.645-1.31.645-.694 0-1.41-.653-.633.653-1.336.653c-.347 0-.68-.286-.68-.645V2.66c0-.346.26-.68.68-.68zm.23 4.273a.8.8 0 1 0 0 1.6.8.8 0 0 0 0-1.6m-3.2 0a.8.8 0 1 0 0 1.6.8.8 0 0 0 0-1.6m-3.2 0a.8.8 0 1 0 0 1.6.8.8 0 0 0 0-1.6" clip-rule="evenodd"/></g><defs><clipPath id="a"><path fill="#fff" d="M0 0h16v16H0z"/></clipPath></defs></svg>