<svg width="32" height="32" viewBox="0 0 32 32" fill="none" xmlns="http://www.w3.org/2000/svg"><path d="M4.230 3.570 C 3.515 3.603,3.398 3.650,3.161 3.998 C 2.896 4.388,2.956 4.826,3.327 5.196 C 3.538 5.407,3.579 5.425,3.923 5.458 C 4.127 5.477,7.101 5.494,10.533 5.496 C 13.965 5.498,17.032 5.518,17.347 5.540 C 18.015 5.587,18.133 5.647,18.358 6.060 C 18.475 6.276,18.963 7.778,19.113 8.387 L 19.149 8.533 12.921 8.536 C 9.496 8.538,6.422 8.559,6.091 8.583 C 5.563 8.621,5.471 8.642,5.352 8.753 C 4.836 9.235,4.932 10.008,5.552 10.373 C 5.731 10.478,5.843 10.480,12.748 10.495 L 19.762 10.510 20.197 11.961 C 20.436 12.759,20.620 13.425,20.605 13.440 C 20.590 13.454,16.794 13.479,12.169 13.493 C 4.058 13.519,3.753 13.524,3.557 13.621 C 3.301 13.748,3.118 13.986,3.034 14.302 C 2.977 14.515,2.981 14.582,3.063 14.797 C 3.171 15.081,3.457 15.384,3.669 15.439 C 3.748 15.460,8.989 15.493,15.316 15.512 C 21.642 15.531,26.833 15.562,26.852 15.581 C 26.894 15.623,26.608 16.776,26.419 17.326 C 25.871 18.925,25.186 19.985,23.876 21.263 C 23.098 22.021,22.985 22.183,22.988 22.533 C 22.991 22.880,23.405 23.364,23.786 23.466 C 24.244 23.590,24.685 23.319,25.628 22.335 C 27.591 20.286,28.656 17.986,28.962 15.129 C 29.033 14.468,28.987 14.179,28.768 13.891 C 28.481 13.515,28.550 13.523,25.491 13.502 L 22.743 13.484 21.791 10.302 C 20.417 5.709,20.216 5.111,19.920 4.734 C 19.627 4.361,19.178 3.998,18.740 3.781 C 18.439 3.632,18.350 3.615,17.594 3.571 C 16.722 3.521,5.329 3.520,4.230 3.570 M5.253 17.548 C 4.931 17.595,4.672 17.742,4.406 18.026 C 3.496 18.999,4.281 20.575,5.622 20.467 C 6.035 20.434,6.327 20.286,6.607 19.968 C 7.386 19.083,6.888 17.732,5.718 17.555 C 5.580 17.534,5.371 17.531,5.253 17.548 M10.089 17.570 C 9.032 17.913,8.669 19.188,9.401 19.983 C 9.681 20.286,9.965 20.431,10.347 20.466 C 11.684 20.587,12.496 19.054,11.621 18.059 C 11.222 17.606,10.595 17.405,10.089 17.570 M15.227 17.546 C 14.531 17.657,14.021 18.292,14.031 19.036 C 14.038 19.595,14.320 20.061,14.788 20.290 C 15.844 20.806,16.976 20.137,16.976 18.996 C 16.976 18.542,16.844 18.234,16.525 17.942 C 16.173 17.618,15.693 17.472,15.227 17.546 M19.833 17.680 C 19.250 17.984,18.911 18.658,19.037 19.265 C 19.247 20.276,20.325 20.779,21.229 20.287 C 22.252 19.730,22.213 18.208,21.163 17.685 C 20.780 17.494,20.195 17.492,19.833 17.680 M5.869 24.592 C 5.797 24.621,5.485 24.891,5.176 25.192 C 4.354 25.990,3.813 26.322,3.077 26.476 C 2.326 26.633,2.000 26.980,2.040 27.581 C 2.064 27.959,2.257 28.233,2.605 28.387 C 2.808 28.477,2.918 28.489,3.278 28.464 C 4.133 28.404,5.049 27.955,6.104 27.079 L 6.261 26.948 6.603 27.239 C 7.040 27.610,7.430 27.858,7.976 28.114 C 9.423 28.792,10.783 28.534,12.349 27.283 C 12.553 27.120,12.733 26.987,12.750 26.987 C 12.766 26.987,13.004 27.166,13.278 27.385 C 13.888 27.872,14.698 28.291,15.253 28.407 C 15.819 28.525,16.605 28.481,17.067 28.306 C 17.815 28.023,18.551 27.589,18.971 27.185 L 19.195 26.969 19.398 27.109 C 19.509 27.187,19.756 27.370,19.947 27.518 C 20.340 27.823,20.839 28.097,21.370 28.303 C 21.700 28.430,21.802 28.443,22.480 28.444 C 23.188 28.445,23.250 28.437,23.671 28.278 C 24.391 28.007,25.012 27.622,25.548 27.114 L 25.735 26.936 26.149 27.273 C 26.664 27.692,27.230 28.018,27.860 28.260 C 28.289 28.425,28.407 28.447,28.857 28.450 C 29.337 28.453,29.379 28.444,29.564 28.304 C 29.856 28.081,29.990 27.783,29.963 27.414 C 29.925 26.891,29.610 26.607,28.949 26.501 C 28.386 26.410,27.789 26.042,26.960 25.274 C 26.344 24.703,26.181 24.591,25.915 24.555 C 25.474 24.494,25.277 24.593,24.816 25.104 C 24.170 25.821,23.893 26.068,23.541 26.244 C 22.868 26.581,22.146 26.578,21.451 26.236 C 21.088 26.058,20.853 25.847,20.242 25.152 C 19.802 24.652,19.538 24.508,19.135 24.547 C 18.806 24.578,18.686 24.668,18.183 25.259 C 17.961 25.520,17.639 25.847,17.467 25.985 C 16.711 26.596,15.541 26.662,14.737 26.139 C 14.435 25.942,14.196 25.705,13.605 25.017 C 13.290 24.650,13.082 24.533,12.743 24.533 C 12.421 24.533,12.187 24.668,11.876 25.035 C 11.052 26.005,10.621 26.320,9.931 26.456 C 8.986 26.641,8.133 26.241,7.282 25.213 C 7.057 24.942,6.797 24.678,6.704 24.627 C 6.519 24.524,6.084 24.507,5.869 24.592 " fill="#1A1C1F" stroke="none" fill-rule="evenodd"></path></svg>