<svg width="24" height="24" viewBox="0 0 24 24" fill="none" xmlns="http://www.w3.org/2000/svg"><path d="M3.220 2.038 C 2.703 2.058,2.646 2.068,2.474 2.169 C 1.998 2.449,1.863 3.103,2.186 3.568 C 2.372 3.837,2.537 3.920,2.966 3.962 C 3.172 3.982,5.574 3.998,8.304 3.999 L 13.267 4.000 13.567 4.970 C 13.733 5.503,13.860 5.949,13.850 5.960 C 13.841 5.971,11.796 5.990,9.307 6.003 C 5.878 6.021,4.743 6.038,4.627 6.076 C 4.457 6.131,4.201 6.367,4.094 6.568 C 3.997 6.750,3.997 7.250,4.094 7.432 C 4.200 7.631,4.456 7.869,4.627 7.926 C 4.747 7.966,5.839 7.980,9.649 7.990 L 14.518 8.003 14.644 8.412 C 15.012 9.603,15.110 9.943,15.093 9.970 C 15.083 9.987,12.525 10.001,9.408 10.002 C 6.290 10.003,3.483 10.019,3.169 10.037 C 2.656 10.067,2.583 10.080,2.445 10.172 C 1.870 10.552,1.871 11.448,2.446 11.829 C 2.571 11.911,2.666 11.931,3.086 11.962 C 3.358 11.981,7.248 11.998,11.732 11.999 L 19.884 12.000 19.857 12.150 C 19.803 12.457,19.445 13.473,19.265 13.831 C 18.862 14.631,18.451 15.179,17.650 15.980 C 17.112 16.518,17.088 16.549,17.038 16.771 C 16.840 17.662,17.818 18.327,18.572 17.814 C 18.849 17.625,19.844 16.606,20.147 16.200 C 21.183 14.813,21.808 13.203,21.967 11.512 C 22.040 10.726,21.917 10.382,21.475 10.141 L 21.262 10.025 19.245 10.003 L 17.228 9.980 16.555 7.820 C 15.624 4.836,15.050 3.095,14.942 2.923 C 14.797 2.694,14.415 2.369,14.104 2.210 L 13.820 2.065 13.100 2.036 C 12.282 2.002,4.075 2.004,3.220 2.038 M2.868 13.815 C 2.546 13.936,2.275 14.179,2.111 14.495 C 2.043 14.625,2.025 14.732,2.024 15.000 C 2.024 15.301,2.037 15.364,2.140 15.554 C 2.266 15.785,2.484 15.996,2.740 16.133 C 2.980 16.262,3.505 16.257,3.779 16.122 C 4.211 15.909,4.480 15.478,4.480 14.999 C 4.480 14.329,4.000 13.827,3.314 13.779 C 3.112 13.765,2.972 13.776,2.868 13.815 M6.868 13.815 C 6.546 13.936,6.275 14.179,6.111 14.495 C 6.043 14.625,6.025 14.732,6.024 15.000 C 6.024 15.301,6.037 15.364,6.140 15.554 C 6.266 15.785,6.484 15.996,6.740 16.133 C 6.980 16.262,7.505 16.257,7.779 16.122 C 8.211 15.909,8.480 15.478,8.480 14.999 C 8.480 14.329,8.000 13.827,7.314 13.779 C 7.112 13.765,6.972 13.776,6.868 13.815 M10.868 13.815 C 10.546 13.936,10.275 14.179,10.111 14.495 C 10.043 14.625,10.025 14.732,10.024 15.000 C 10.024 15.301,10.037 15.364,10.140 15.554 C 10.266 15.785,10.484 15.996,10.740 16.133 C 10.980 16.262,11.505 16.257,11.779 16.122 C 12.211 15.909,12.480 15.478,12.480 14.999 C 12.480 14.329,12.000 13.827,11.314 13.779 C 11.112 13.765,10.972 13.776,10.868 13.815 M14.868 13.815 C 14.546 13.936,14.275 14.179,14.111 14.495 C 14.043 14.625,14.025 14.732,14.024 15.000 C 14.024 15.301,14.037 15.364,14.140 15.554 C 14.266 15.785,14.484 15.996,14.740 16.133 C 14.980 16.262,15.505 16.257,15.779 16.122 C 16.211 15.909,16.480 15.478,16.480 14.999 C 16.480 14.329,16.000 13.827,15.314 13.779 C 15.112 13.765,14.972 13.776,14.868 13.815 M5.052 19.040 C 4.936 19.057,4.744 19.158,4.428 19.369 C 3.739 19.828,3.483 19.938,2.920 20.017 C 2.664 20.053,2.346 20.219,2.222 20.380 C 1.719 21.041,2.132 21.922,2.978 21.990 C 3.451 22.028,4.228 21.804,4.944 21.423 L 5.268 21.251 5.524 21.406 C 5.819 21.584,6.479 21.850,6.800 21.920 C 6.939 21.950,7.249 21.962,7.640 21.953 C 8.257 21.937,8.262 21.937,8.700 21.768 C 8.942 21.675,9.272 21.522,9.434 21.428 L 9.728 21.257 10.191 21.489 C 10.754 21.771,11.168 21.906,11.661 21.968 C 12.339 22.054,12.882 21.931,13.841 21.476 L 14.283 21.266 14.432 21.356 C 14.677 21.504,15.126 21.709,15.463 21.826 C 15.742 21.923,15.852 21.938,16.380 21.952 C 16.757 21.962,17.062 21.950,17.200 21.920 C 17.521 21.850,18.181 21.584,18.476 21.406 L 18.732 21.251 19.056 21.423 C 19.769 21.803,20.549 22.028,21.018 21.990 C 21.869 21.922,22.291 20.993,21.750 20.378 C 21.542 20.142,21.348 20.047,20.979 20.000 C 20.588 19.950,20.152 19.766,19.709 19.463 C 19.095 19.042,19.092 19.041,18.768 19.041 C 18.431 19.040,18.394 19.056,17.804 19.451 C 17.323 19.773,17.068 19.895,16.732 19.961 C 16.281 20.049,15.755 19.865,15.091 19.385 C 14.641 19.060,14.590 19.040,14.222 19.040 L 13.930 19.040 13.424 19.377 C 13.146 19.562,12.779 19.773,12.609 19.845 C 11.983 20.113,11.504 20.005,10.598 19.392 C 10.070 19.035,9.829 18.954,9.532 19.036 C 9.440 19.061,9.144 19.228,8.876 19.406 C 8.306 19.784,8.054 19.907,7.726 19.968 C 7.282 20.051,6.847 19.902,6.160 19.432 C 5.951 19.289,5.726 19.145,5.660 19.111 C 5.510 19.036,5.271 19.008,5.052 19.040 " fill="#1A1C1F" stroke="none" fill-rule="evenodd"></path></svg>