<svg width="20" height="20" viewBox="0 0 20 20" fill="none" xmlns="http://www.w3.org/2000/svg"><path d="M3.300 2.496 C 2.631 2.516,2.613 2.519,2.459 2.609 C 2.259 2.727,2.143 2.880,2.097 3.087 C 2.071 3.200,2.055 4.795,2.043 8.270 L 2.027 13.290 2.097 13.427 C 2.205 13.639,2.354 13.789,2.554 13.887 C 2.722 13.969,2.760 13.975,3.014 13.957 C 3.504 13.922,3.949 13.722,4.357 13.352 L 4.563 13.164 4.762 13.324 C 5.203 13.679,5.636 13.886,6.050 13.939 C 6.651 14.017,7.138 13.864,7.696 13.422 C 7.850 13.301,7.991 13.211,8.010 13.223 C 8.028 13.234,8.152 13.321,8.284 13.416 C 8.575 13.625,9.019 13.846,9.285 13.916 C 9.893 14.074,10.630 13.862,11.231 13.355 C 11.365 13.242,11.500 13.131,11.531 13.109 C 11.578 13.074,11.626 13.092,11.835 13.223 C 12.132 13.409,12.498 13.569,12.817 13.651 C 13.416 13.805,14.180 13.648,14.790 13.244 C 15.033 13.084,15.678 12.462,15.941 12.135 C 16.671 11.227,17.743 9.254,17.936 8.460 C 18.011 8.149,17.816 7.777,17.469 7.573 L 17.317 7.483 15.935 7.467 L 14.553 7.450 14.387 6.780 L 14.221 6.110 13.552 6.089 C 13.184 6.077,11.506 6.067,9.823 6.067 C 7.055 6.067,6.753 6.061,6.657 6.012 C 6.227 5.792,6.014 5.344,6.147 4.942 C 6.217 4.733,6.369 4.561,6.580 4.451 L 6.743 4.367 10.130 4.366 C 11.993 4.366,13.574 4.357,13.643 4.345 C 13.765 4.325,13.769 4.320,13.747 4.220 C 13.677 3.898,13.424 3.003,13.375 2.902 C 13.301 2.752,13.028 2.546,12.871 2.522 C 12.696 2.494,4.111 2.471,3.300 2.496 M5.338 7.913 C 5.911 8.185,6.099 8.893,5.731 9.392 C 5.294 9.986,4.435 9.932,4.065 9.288 C 3.977 9.134,3.967 9.087,3.967 8.824 C 3.967 8.591,3.981 8.502,4.037 8.393 C 4.142 8.188,4.409 7.943,4.593 7.884 C 4.792 7.820,5.174 7.835,5.338 7.913 M9.338 7.913 C 9.911 8.185,10.099 8.893,9.731 9.392 C 9.294 9.986,8.435 9.932,8.065 9.288 C 7.977 9.134,7.967 9.087,7.967 8.824 C 7.967 8.591,7.981 8.502,8.037 8.393 C 8.142 8.188,8.409 7.943,8.593 7.884 C 8.792 7.820,9.174 7.835,9.338 7.913 M13.338 7.913 C 13.911 8.185,14.099 8.893,13.731 9.392 C 13.294 9.986,12.435 9.932,12.065 9.288 C 11.977 9.134,11.967 9.087,11.967 8.824 C 11.967 8.591,11.981 8.502,12.037 8.393 C 12.142 8.188,12.409 7.943,12.593 7.884 C 12.792 7.820,13.174 7.835,13.338 7.913 M4.183 14.867 C 4.087 14.898,3.980 14.978,3.529 15.363 C 3.287 15.569,3.200 15.612,2.872 15.680 C 2.465 15.765,2.251 15.913,2.125 16.196 C 2.052 16.360,2.039 16.660,2.099 16.816 C 2.164 16.985,2.359 17.190,2.540 17.280 C 2.759 17.389,3.073 17.396,3.453 17.300 C 3.726 17.230,4.164 17.034,4.366 16.891 L 4.483 16.808 4.679 16.941 C 5.124 17.244,5.700 17.466,6.167 17.514 C 6.597 17.559,7.127 17.418,7.553 17.145 C 8.006 16.854,7.949 16.873,8.109 16.964 C 8.731 17.317,9.032 17.438,9.464 17.504 C 9.999 17.586,10.712 17.372,11.346 16.940 L 11.542 16.806 11.746 16.958 C 12.000 17.147,12.402 17.339,12.751 17.439 C 13.422 17.630,14.207 17.466,14.934 16.983 L 15.165 16.830 15.341 16.961 C 15.606 17.159,15.851 17.285,16.189 17.398 C 16.818 17.608,17.218 17.559,17.509 17.235 C 17.672 17.054,17.733 16.890,17.733 16.637 C 17.733 16.417,17.672 16.272,17.510 16.110 C 17.347 15.947,17.182 15.868,16.926 15.832 C 16.638 15.792,16.420 15.667,16.011 15.309 C 15.553 14.909,15.448 14.852,15.167 14.852 C 14.896 14.852,14.781 14.911,14.400 15.239 C 13.901 15.669,13.554 15.854,13.311 15.821 C 13.062 15.787,12.703 15.570,12.283 15.201 C 11.954 14.912,11.834 14.855,11.550 14.853 C 11.262 14.851,11.179 14.893,10.700 15.281 C 10.269 15.630,9.928 15.813,9.707 15.813 C 9.497 15.813,9.159 15.634,8.794 15.330 C 8.288 14.908,8.092 14.811,7.816 14.842 C 7.588 14.867,7.430 14.969,7.094 15.304 C 6.857 15.541,6.712 15.656,6.551 15.735 C 6.339 15.840,6.323 15.842,6.158 15.804 C 5.944 15.755,5.605 15.546,5.233 15.234 C 5.077 15.103,4.896 14.968,4.829 14.933 C 4.687 14.858,4.327 14.822,4.183 14.867 " fill="#1A1C1F" stroke="none" fill-rule="evenodd"></path></svg>