<svg width="28" height="28" viewBox="0 0 28 28" fill="none" xmlns="http://www.w3.org/2000/svg"><path d="M3.705 3.115 L 3.140 3.129 2.950 3.292 C 2.495 3.681,2.527 4.278,3.022 4.656 L 3.189 4.783 9.353 4.808 C 15.815 4.834,15.658 4.828,15.883 5.032 C 16.038 5.172,16.190 5.538,16.443 6.382 C 16.580 6.837,16.706 7.268,16.723 7.338 L 16.755 7.467 11.306 7.469 C 8.309 7.471,5.619 7.489,5.329 7.510 C 4.868 7.543,4.787 7.562,4.683 7.659 C 4.228 8.084,4.323 8.787,4.877 9.093 C 5.005 9.163,5.546 9.171,11.154 9.183 L 17.292 9.197 17.673 10.466 C 17.882 11.165,18.042 11.747,18.029 11.760 C 18.016 11.773,14.695 11.794,10.648 11.807 C 3.551 11.829,3.284 11.833,3.112 11.918 C 2.888 12.030,2.728 12.238,2.654 12.514 C 2.605 12.701,2.608 12.759,2.680 12.947 C 2.775 13.196,3.025 13.461,3.210 13.509 C 3.280 13.527,7.866 13.556,13.401 13.573 C 18.937 13.590,23.478 13.616,23.494 13.631 C 23.572 13.709,23.161 15.118,22.850 15.842 C 22.376 16.944,21.886 17.635,20.891 18.605 C 20.211 19.269,20.112 19.410,20.115 19.717 C 20.117 20.020,20.479 20.443,20.813 20.533 C 21.214 20.641,21.600 20.404,22.424 19.544 C 24.142 17.751,25.074 15.738,25.341 13.240 C 25.409 12.609,25.360 12.356,25.121 12.110 C 25.030 12.017,24.901 11.917,24.833 11.888 C 24.749 11.852,23.942 11.829,22.305 11.817 L 19.900 11.798 19.066 9.014 C 18.096 5.773,17.764 4.724,17.616 4.433 C 17.468 4.141,17.169 3.815,16.824 3.569 C 16.330 3.217,16.182 3.171,15.384 3.124 C 14.746 3.087,5.077 3.079,3.705 3.115 M4.597 15.355 C 4.328 15.395,4.061 15.548,3.839 15.789 C 3.061 16.632,3.760 18.002,4.919 17.909 C 5.281 17.880,5.536 17.750,5.781 17.472 C 6.463 16.697,6.027 15.515,5.003 15.361 C 4.882 15.342,4.699 15.340,4.597 15.355 M8.828 15.374 C 7.904 15.672,7.585 16.790,8.226 17.485 C 8.471 17.750,8.719 17.877,9.053 17.908 C 10.224 18.014,10.934 16.672,10.168 15.802 C 9.822 15.408,9.270 15.232,8.828 15.374 M13.323 15.353 C 12.714 15.450,12.268 16.006,12.277 16.657 C 12.284 17.146,12.530 17.553,12.939 17.754 C 13.862 18.205,14.849 17.622,14.855 16.622 C 14.858 16.228,14.742 15.958,14.459 15.699 C 14.151 15.416,13.731 15.288,13.323 15.353 M17.354 15.470 C 16.844 15.736,16.547 16.326,16.657 16.857 C 16.841 17.742,17.785 18.181,18.576 17.751 C 19.471 17.264,19.437 15.932,18.518 15.474 C 18.182 15.307,17.671 15.305,17.354 15.470 M5.135 21.516 C 5.072 21.542,4.799 21.780,4.529 22.043 C 3.826 22.726,3.427 22.979,2.819 23.124 C 2.037 23.312,1.749 23.593,1.785 24.134 C 1.806 24.464,1.975 24.704,2.279 24.838 C 2.457 24.917,2.554 24.928,2.868 24.906 C 3.617 24.853,4.418 24.460,5.341 23.694 L 5.478 23.580 5.778 23.834 C 6.160 24.158,6.502 24.376,6.979 24.600 C 8.245 25.193,9.435 24.967,10.806 23.873 C 10.984 23.730,11.142 23.614,11.156 23.614 C 11.170 23.613,11.378 23.770,11.619 23.962 C 12.141 24.379,12.863 24.755,13.323 24.851 C 13.746 24.938,14.272 24.937,14.652 24.847 C 15.236 24.710,16.167 24.203,16.600 23.787 L 16.796 23.598 16.973 23.721 C 17.070 23.788,17.287 23.949,17.453 24.078 C 17.798 24.345,18.234 24.585,18.699 24.765 C 18.987 24.876,19.077 24.888,19.670 24.889 C 20.289 24.889,20.344 24.882,20.712 24.743 C 21.342 24.506,21.885 24.170,22.354 23.725 L 22.518 23.569 22.880 23.864 C 23.333 24.232,23.829 24.517,24.378 24.726 C 24.750 24.868,24.859 24.889,25.250 24.892 C 25.670 24.896,25.706 24.889,25.869 24.766 C 26.124 24.571,26.241 24.310,26.218 23.987 C 26.185 23.530,25.909 23.281,25.330 23.188 C 24.838 23.109,24.315 22.786,23.590 22.115 C 23.051 21.615,22.908 21.517,22.675 21.485 C 22.290 21.433,22.117 21.519,21.714 21.966 C 21.149 22.593,20.907 22.810,20.599 22.964 C 20.009 23.258,19.377 23.256,18.770 22.957 C 18.452 22.800,18.247 22.616,17.712 22.008 C 17.327 21.571,17.096 21.444,16.743 21.478 C 16.455 21.506,16.350 21.585,15.910 22.102 C 15.716 22.330,15.434 22.616,15.284 22.737 C 14.622 23.272,13.601 23.329,12.893 22.872 C 12.743 22.774,12.484 22.540,12.318 22.351 C 11.548 21.474,11.459 21.417,10.978 21.489 C 10.781 21.519,10.725 21.558,10.454 21.852 C 9.509 22.876,9.301 23.029,8.690 23.149 C 7.869 23.309,7.116 22.960,6.386 22.080 C 6.198 21.853,5.992 21.629,5.928 21.581 C 5.793 21.479,5.316 21.440,5.135 21.516 " fill="#1A1C1F" stroke="none" fill-rule="evenodd"></path></svg>