<svg xmlns="http://www.w3.org/2000/svg" width="24" height="24" fill="none"><g clip-path="url(#a)"><path fill="#1A1C1F" fill-rule="evenodd" d="m19.414 19.253.129.105.186.133q.107.072.234.149c.331.196.649.32.91.352L21 20a1 1 0 0 1 .117 1.993l-.121.007c-.701-.001-1.386-.245-2.052-.64l-.194-.12-.194.12c-.592.351-1.199.583-1.819.63l-.253.01c-.697-.004-1.377-.247-2.04-.64l-.194-.12-.194.12c-.592.351-1.199.583-1.818.63l-.241.01c-.702 0-1.387-.245-2.054-.64l-.193-.12-.193.12c-.594.352-1.202.584-1.823.631L7.5 22c-.703 0-1.39-.244-2.058-.64l-.192-.119-.192.12C4.39 21.755 3.703 22 3 22a1 1 0 0 1-.117-1.993L3 20c.282 0 .651-.131 1.038-.36q.192-.115.333-.218l.158-.121.056-.048a1 1 0 0 1 1.231-.077l.227.182c.106.081.25.181.42.282.33.196.649.32.91.352L7.5 20l.126-.008c.261-.032.58-.156.911-.352a5 5 0 0 0 .234-.149l.186-.133.129-.105a1 1 0 0 1 1.328 0l.129.105.186.133q.106.072.234.149c.331.196.65.32.91.352l.128.008c.282 0 .65-.131 1.036-.36q.128-.075.234-.149l.186-.133.129-.106a1 1 0 0 1 1.23-.077l.227.182.186.134q.107.072.234.149c.33.195.647.319.907.351L16.5 20c.282 0 .65-.131 1.036-.36q.127-.075.234-.149l.186-.133.129-.105a1 1 0 0 1 1.328 0M13.264 2a2 2 0 0 1 1.855 1.25l.055.153L17.235 10H21a1 1 0 0 1 1 1.037 9.1 9.1 0 0 1-3.371 6.74 1 1 0 0 1-1.258-1.555 7.1 7.1 0 0 0 2.503-4.156l.01-.066H3a1 1 0 0 1-.993-.883L2 11a1 1 0 0 1 .883-.993L3 10h12.139l-.625-2H5a1 1 0 0 1-.117-1.993L5 6h8.889l-.624-2H3a1 1 0 0 1-.117-1.993L3 2zM11.25 13.75a1.25 1.25 0 1 1 0 2.5 1.25 1.25 0 0 1 0-2.5m4 0a1.25 1.25 0 1 1 0 2.5 1.25 1.25 0 0 1 0-2.5m-8 0a1.25 1.25 0 1 1 0 2.5 1.25 1.25 0 0 1 0-2.5m-4 0a1.25 1.25 0 1 1 0 2.5 1.25 1.25 0 0 1 0-2.5" clip-rule="evenodd"/></g><defs><clipPath id="a"><path fill="#fff" d="M0 0h24v24H0z"/></clipPath></defs></svg>