<svg xmlns="http://www.w3.org/2000/svg" width="14" height="14" fill="none"><g clip-path="url(#a)"><path fill="#1A1C1F" fill-rule="evenodd" d="M11.055 10.568c.296.32.574.509.774.509a.595.595 0 0 1 0 1.19q-.633 0-1.219-.488-.634.488-1.273.488-.64 0-1.261-.504-.66.504-1.27.504-.608 0-1.232-.474-.534.474-1.142.474t-1.298-.505a1.75 1.75 0 0 1-1.105.4.595.595 0 0 1 0-1.19q.274 0 .616-.368a.595.595 0 0 1 .886-.055c.065.065.556.528.853.528q.289 0 .656-.444a.595.595 0 0 1 .92-.07c.06.062.534.514.846.514.29 0 .783-.451.842-.514a.595.595 0 0 1 .87.006c.057.062.518.508.839.508.197 0 .487-.156.83-.516a.595.595 0 0 1 .868.007m-2.2-8.835c.245 0 .462.15.552.374l.24.942-4.831.005c-.293 0-.553.287-.553.59 0 .304.297.595.553.595h5.129l.248.994h1.777c.367 0 .634.324.591.666-.042.343-.931 2.158-1.603 2.826a3.2 3.2 0 0 1-.65.579 1.84 1.84 0 0 1-.987.299q-.573 0-1.217-.467-.606.625-1.234.646-.629.021-1.292-.562-.538.564-1.146.564-.609 0-1.234-.57-.553.57-1.169.57c-.303 0-.595-.25-.595-.564V2.328c0-.303.227-.595.595-.595zm.2 3.739a.7.7 0 1 0 0 1.4.7.7 0 0 0 0-1.4m-2.8 0a.7.7 0 1 0 0 1.4.7.7 0 0 0 0-1.4m-2.8 0a.7.7 0 1 0 0 1.4.7.7 0 0 0 0-1.4" clip-rule="evenodd"/></g><defs><clipPath id="a"><path fill="#fff" d="M0 0h14v14H0z"/></clipPath></defs></svg>