<svg xmlns="http://www.w3.org/2000/svg" width="24" height="24" fill="none"><g clip-path="url(#a)"><path fill="#1A1C1F" fill-rule="evenodd" d="M5.812 18.813c.103.091.307.247.57.404.35.207.73.38 1.115.38s.764-.173 1.113-.38c.088-.053.26-.143.572-.405a.885.885 0 0 1 1.13 0c.34.281.484.352.571.404.35.207.752.382 1.113.382.36 0 .707-.14 1.114-.382q.089-.051.572-.404a.85.85 0 0 1 1.13 0q.483.353.572.404c.347.206.764.382 1.107.382s.712-.14 1.12-.382q.087-.051.571-.404a.85.85 0 0 1 1.13 0q.484.353.571.404c.35.207.828.34 1.114.373.463.015.85.39.85.859 0 .433-.328.85-.85.85q-1.082 0-2.25-.79-1.2.796-2.265.79t-2.235-.79q-1.191.79-2.246.79-1.054-.001-2.254-.79-1.203.79-2.25.79t-2.25-.79q-1.194.79-2.25.79a.85.85 0 0 1-.85-.85c0-.434.312-.85.85-.85.44-.04.706-.14 1.114-.381.263-.157.468-.313.57-.404a.85.85 0 0 1 1.131 0m9.466-16.11c.353 0 .71.225.79.537q.083.313.315 1.263l-9.691.008a.85.85 0 0 0 0 1.687l10.1.005.832 3.394h3.373c.397 0 .79.27.843.744.102 1.084-.413 2.766-1.122 4.064a12 12 0 0 1-1.23 1.84q-.41.524-1.046.918c-.636.394-1.207.635-2.06.635q-.851 0-2.136-.789-1.192.789-2.245.789-1.052 0-2.256-.789-1.194.789-2.248.789t-2.25-.788q-1.206.788-2.25.788c-.672 0-.85-.446-.85-.824V10.38l13.036-.006a.85.85 0 0 0 0-1.687L2.147 8.679V3.552c0-.433.354-.85.85-.85zm-2.49 10.163a1.15 1.15 0 1 0 0 2.3 1.15 1.15 0 0 0 0-2.3m4 0a1.15 1.15 0 1 0 0 2.3 1.15 1.15 0 0 0 0-2.3m-8 0a1.15 1.15 0 1 0 0 2.3 1.15 1.15 0 0 0 0-2.3m-4 0a1.15 1.15 0 1 0 0 2.3 1.15 1.15 0 0 0 0-2.3" clip-rule="evenodd"/></g><defs><clipPath id="a"><path fill="#fff" d="M0 0h24v24H0z"/></clipPath></defs></svg>