<svg xmlns="http://www.w3.org/2000/svg" width="32" height="32" fill="none"><g clip-path="url(#a)"><path fill="#1A1C1F" fill-rule="evenodd" d="M26.41 23.964q.657.685.895.879c.56.46 1.221.807 1.693.807a.85.85 0 1 1 0 1.7q-1.563 0-3.248-1.613-1.727 1.613-3.248 1.613-1.52 0-3.252-1.614-1.716 1.616-3.254 1.614t-3.246-1.613Q11.046 27.35 9.5 27.35q-1.545 0-3.25-1.614Q4.533 27.35 3 27.35a.85.85 0 0 1 0-1.7c.46 0 1.073-.295 1.696-.807q.237-.194.894-.878a.85.85 0 0 1 1.32 0q.657.683.894.878c.561.46 1.196.807 1.696.807s1.134-.347 1.695-.807q.238-.195.895-.88a.85.85 0 0 1 1.32 0q.658.685.895.88c.56.46 1.191.808 1.693.807s1.074-.296 1.697-.807q.238-.195.895-.88a.85.85 0 0 1 1.242-.083q.735.768.974.963c.558.457 1.2.808 1.696.807s1.07-.296 1.693-.807q.237-.195.895-.88a.85.85 0 0 1 1.32 0M20 4.65a.85.85 0 0 1 .789.533l.626 2.467-12.621.007a.85.85 0 0 0 0 1.686l13.047.007.828 3.3H28c.482 0 .87.4.85.881-.138 3.219-1.633 5.697-2.338 6.703s-.802 1.096-1.205 1.547c-.819.914-1.72 1.569-2.862 1.569q-1.549 0-3.231-2.02-1.661 2.023-3.247 2.02t-3.239-2.02q-1.61 2.02-3.227 2.02-1.62 0-3.258-2.02Q4.56 23.383 3 23.383a.86.86 0 0 1-.85-.85V12.85l17.457-.007a.85.85 0 0 0 0-1.687L2.15 11.15V5.5c0-.47.38-.85.85-.85zM16.25 15.5a1.25 1.25 0 1 0 0 2.5 1.25 1.25 0 0 0 0-2.5m5 0a1.25 1.25 0 1 0 0 2.5 1.25 1.25 0 0 0 0-2.5m-10 0a1.25 1.25 0 1 0 0 2.5 1.25 1.25 0 0 0 0-2.5m-5 0a1.25 1.25 0 1 0 0 2.5 1.25 1.25 0 0 0 0-2.5" clip-rule="evenodd"/></g><defs><clipPath id="a"><path fill="#fff" d="M0 0h32v32H0z"/></clipPath></defs></svg>