<svg width="16" height="16" viewBox="0 0 16 16" fill="none" xmlns="http://www.w3.org/2000/svg"><path d="M2.440 1.625 C 2.106 1.643,1.996 1.684,1.832 1.848 C 1.680 2.000,1.615 2.162,1.615 2.387 C 1.615 2.521,1.631 2.609,1.672 2.700 C 1.744 2.856,1.947 3.060,2.110 3.140 L 2.233 3.200 5.616 3.200 L 9.000 3.200 9.460 4.367 C 9.714 5.008,9.921 5.547,9.920 5.564 C 9.920 5.587,8.955 5.597,6.060 5.604 L 2.200 5.613 2.027 5.709 C 1.820 5.823,1.698 5.971,1.637 6.179 C 1.532 6.540,1.731 6.938,2.120 7.144 L 2.226 7.200 7.462 7.200 L 12.698 7.200 12.679 7.287 C 12.617 7.572,12.345 8.285,12.184 8.584 C 11.995 8.936,11.835 9.147,11.422 9.591 C 11.159 9.874,11.005 10.061,10.983 10.127 C 10.925 10.294,10.937 10.580,11.008 10.725 C 11.090 10.890,11.241 11.043,11.402 11.122 C 11.588 11.213,11.879 11.213,12.065 11.122 C 12.341 10.986,13.015 10.259,13.366 9.720 C 13.975 8.783,14.378 7.516,14.385 6.520 C 14.386 6.236,14.380 6.186,14.325 6.075 C 14.243 5.911,14.108 5.776,13.938 5.687 L 13.800 5.615 12.698 5.601 L 11.596 5.587 11.081 4.160 C 10.276 1.927,10.298 1.984,10.164 1.849 C 9.984 1.667,9.935 1.652,9.484 1.625 C 9.041 1.600,2.913 1.599,2.440 1.625 M3.027 8.024 C 2.792 8.085,2.566 8.270,2.470 8.478 C 2.389 8.655,2.391 8.956,2.475 9.125 C 2.554 9.285,2.715 9.446,2.875 9.525 C 3.047 9.610,3.320 9.610,3.507 9.525 C 3.790 9.396,4.000 9.094,4.000 8.815 C 4.000 8.522,3.789 8.198,3.524 8.084 C 3.375 8.020,3.146 7.992,3.027 8.024 M6.227 8.024 C 5.992 8.085,5.766 8.270,5.670 8.478 C 5.589 8.655,5.591 8.956,5.675 9.125 C 5.754 9.285,5.915 9.446,6.075 9.525 C 6.247 9.610,6.520 9.610,6.707 9.525 C 6.990 9.396,7.200 9.094,7.200 8.815 C 7.200 8.522,6.989 8.198,6.724 8.084 C 6.575 8.020,6.346 7.992,6.227 8.024 M9.427 8.024 C 9.192 8.085,8.966 8.270,8.870 8.478 C 8.789 8.655,8.791 8.956,8.875 9.125 C 8.954 9.285,9.115 9.446,9.275 9.525 C 9.447 9.610,9.720 9.610,9.907 9.525 C 10.190 9.396,10.400 9.094,10.400 8.815 C 10.400 8.522,10.189 8.198,9.924 8.084 C 9.775 8.020,9.546 7.992,9.427 8.024 M3.621 12.025 C 3.503 12.048,3.341 12.152,3.160 12.320 C 2.827 12.628,2.637 12.740,2.327 12.809 C 1.993 12.883,1.801 13.020,1.676 13.275 C 1.589 13.455,1.590 13.749,1.680 13.933 C 1.770 14.118,1.943 14.278,2.127 14.348 C 2.471 14.478,3.062 14.340,3.598 14.007 L 3.795 13.884 3.878 13.933 C 4.389 14.238,4.512 14.293,4.856 14.362 C 5.335 14.459,5.888 14.330,6.413 13.998 C 6.589 13.887,6.596 13.885,6.664 13.927 C 7.290 14.317,7.661 14.426,8.187 14.376 C 8.550 14.341,8.955 14.183,9.306 13.938 L 9.400 13.873 9.557 13.980 C 9.875 14.197,10.316 14.355,10.693 14.390 C 11.050 14.423,11.560 14.276,11.972 14.023 L 12.196 13.885 12.278 13.933 C 12.700 14.180,12.976 14.299,13.270 14.360 C 13.662 14.441,13.888 14.394,14.115 14.187 C 14.307 14.011,14.385 13.838,14.385 13.587 C 14.384 13.160,14.102 12.877,13.605 12.802 C 13.324 12.759,13.211 12.695,12.903 12.398 C 12.562 12.070,12.480 12.027,12.200 12.027 C 11.919 12.027,11.822 12.077,11.477 12.401 C 11.151 12.708,11.018 12.782,10.797 12.780 C 10.575 12.778,10.436 12.700,10.120 12.400 C 9.782 12.079,9.681 12.027,9.400 12.027 C 9.119 12.027,9.022 12.077,8.677 12.401 C 8.351 12.708,8.218 12.782,7.997 12.780 C 7.775 12.778,7.636 12.700,7.320 12.400 C 6.982 12.079,6.881 12.027,6.600 12.027 C 6.318 12.027,6.226 12.075,5.868 12.413 C 5.637 12.631,5.545 12.700,5.422 12.747 C 5.126 12.858,4.930 12.789,4.566 12.445 C 4.280 12.175,4.174 12.095,4.053 12.059 C 3.914 12.017,3.732 12.003,3.621 12.025 " fill="#1A1C1F" stroke="none" fill-rule="evenodd"></path></svg>