<svg xmlns="http://www.w3.org/2000/svg" width="12" height="12" fill="none"><g clip-path="url(#a)"><path fill="#1A1C1F" fill-rule="evenodd" d="M9.475 9.058c.255.275.493.437.664.437a.51.51 0 1 1 0 1.02q-.542 0-1.044-.418-.545.417-1.092.418-.548 0-1.081-.432-.566.432-1.088.432t-1.056-.407q-.458.407-.98.407-.521 0-1.111-.433a1.5 1.5 0 0 1-.948.343.51.51 0 1 1 0-1.02q.235 0 .528-.316a.51.51 0 0 1 .76-.047c.055.056.476.453.73.453q.248 0 .563-.38a.51.51 0 0 1 .789-.062c.051.054.457.441.725.442.249 0 .67-.387.722-.44a.51.51 0 0 1 .745.004c.049.053.444.436.72.436.168 0 .417-.134.711-.443a.51.51 0 0 1 .743.006M7.59 1.485a.51.51 0 0 1 .474.32l.206.808-4.141.005c-.25 0-.474.246-.474.506s.254.51.474.51h4.396l.213.851h1.523a.51.51 0 0 1 .507.571c-.036.294-.799 1.85-1.374 2.423a2.8 2.8 0 0 1-.557.496c-.255.16-.539.256-.847.256q-.49 0-1.043-.4-.52.536-1.058.554t-1.107-.482q-.461.483-.982.483-.522 0-1.058-.489-.474.49-1.002.49c-.26 0-.51-.215-.51-.484V1.995c0-.26.195-.51.51-.51zm.172 3.205a.6.6 0 1 0 0 1.2.6.6 0 0 0 0-1.2m-2.4 0a.6.6 0 1 0 0 1.2.6.6 0 0 0 0-1.2m-2.4 0a.6.6 0 1 0 0 1.2.6.6 0 0 0 0-1.2" clip-rule="evenodd"/></g><defs><clipPath id="a"><path fill="#fff" d="M0 0h12v12H0z"/></clipPath></defs></svg>