<svg xmlns="http://www.w3.org/2000/svg" width="28" height="28" fill="none"><g clip-path="url(#a)"><path fill="#1A1C1F" fill-rule="evenodd" d="M6.127 21.736c.295.41.94 1.447 2.186 1.452 1.307.006 1.814-.996 2.164-1.426a.875.875 0 0 1 1.358 0c.35.43.847 1.426 2.164 1.426s1.84-1.025 2.166-1.427a.875.875 0 0 1 1.284-.08c.362.348.926 1.515 2.232 1.507 1.306-.007 1.844-1.024 2.171-1.427a.875.875 0 0 1 1.284-.08c.363.348 1.41 1.498 2.237 1.507.52.006.877.392.877.875a.89.89 0 0 1-.875.875q-1.324 0-2.844-1.363-1.404 1.356-2.85 1.356t-2.837-1.357Q15.398 24.932 14 24.938t-2.844-1.363q-1.487 1.363-2.843 1.363T5.47 23.576q-1.453 1.354-2.844 1.362a.875.875 0 0 1-.102-1.744c1.135-.12 1.9-.996 2.266-1.432s1.043-.436 1.338-.026m9.197-18.673a2.63 2.63 0 0 1 2.514 1.87q1.037 3.439 2.07 6.88H24.5c.496 0 .893.412.875.907a10.33 10.33 0 0 1-3.825 7.649.875.875 0 0 1-1.1-1.361c1.641-1.328 2.62-2.954 3.093-5.445H3.5a.884.884 0 0 1-.875-.875c0-.503.366-.875.875-.875q7.29-.003 14.58 0l-.79-2.625H5.25a.875.875 0 0 1-.102-1.744l.102-.006h11.514l-.602-2.002a.87.87 0 0 0-.838-.623H3.5a.875.875 0 1 1 0-1.75q5.912-.003 11.824 0m-1.761 12.25a1.313 1.313 0 1 1 0 2.625 1.313 1.313 0 0 1 0-2.625m4.374 0a1.313 1.313 0 1 1 0 2.625 1.313 1.313 0 0 1 0-2.625m-8.75 0a1.313 1.313 0 1 1 0 2.625 1.313 1.313 0 0 1 0-2.625m-4.374 0a1.313 1.313 0 1 1 0 2.625 1.313 1.313 0 0 1 0-2.625" clip-rule="evenodd"/></g><defs><clipPath id="a"><path fill="#fff" d="M0 0h28v28H0z"/></clipPath></defs></svg>