<svg xmlns="http://www.w3.org/2000/svg" width="16" height="16" fill="none"><g clip-path="url(#a)"><path fill="#1A1C1F" fill-rule="evenodd" d="M12.802 12.273c.055.063.356.527.798.527a.8.8 0 0 1 .8.8c0 .41-.344.8-.803.8q-.657 0-1.397-.53-.692.522-1.4.522-.707 0-1.4-.522-.7.522-1.402.53T6.6 13.87q-.7.522-1.4.53t-1.4-.53q-.69.522-1.4.53a.8.8 0 0 1 0-1.6c.096 0 .479-.162.797-.526a.8.8 0 0 1 1.205 0c.055.063.388.526.798.526s.743-.464.798-.527a.8.8 0 0 1 1.204 0c.055.063.4.527.798.527.4 0 .743-.464.798-.527a.8.8 0 0 1 1.204 0c.055.063.4.527.798.527.4 0 .743-.464.798-.527a.8.8 0 0 1 1.204 0M9.6 1.6a.8.8 0 0 1 .75.52L11.6 5.6h2a.8.8 0 0 1 .8.827c-.061 1.78-.84 3.448-2.143 4.578a.8.8 0 0 1-1.048-1.21c.749-.648 1.188-1.386 1.493-2.595Q7.588 7.176 2.4 7.2c-.41 0-.8-.39-.8-.8a.8.8 0 0 1 .707-.795L9.95 5.6 9 3.2H2.4c-.41 0-.8-.39-.8-.8a.8.8 0 0 1 .707-.795zm0 6.4a.8.8 0 1 1 0 1.6.8.8 0 0 1 0-1.6M6.4 8a.8.8 0 1 1 0 1.6.8.8 0 0 1 0-1.6M3.2 8a.8.8 0 1 1 0 1.6.8.8 0 0 1 0-1.6" clip-rule="evenodd"/></g><defs><clipPath id="a"><path fill="#fff" d="M0 0h16v16H0z"/></clipPath></defs></svg>