<svg width="14" height="14" viewBox="0 0 14 14" fill="none" xmlns="http://www.w3.org/2000/svg"><path d="M2.123 1.422 C 1.844 1.438,1.745 1.475,1.603 1.617 C 1.470 1.750,1.413 1.891,1.413 2.088 C 1.413 2.206,1.427 2.283,1.463 2.361 C 1.526 2.500,1.689 2.663,1.841 2.740 L 1.958 2.800 4.917 2.800 L 7.875 2.800 8.278 3.821 C 8.500 4.382,8.681 4.854,8.681 4.868 C 8.680 4.888,7.813 4.897,5.303 4.905 L 1.925 4.914 1.819 4.966 C 1.654 5.046,1.549 5.146,1.477 5.291 C 1.306 5.641,1.471 6.055,1.860 6.251 L 1.958 6.300 6.534 6.300 L 11.110 6.300 11.094 6.376 C 11.034 6.658,10.782 7.297,10.614 7.592 C 10.447 7.886,10.366 7.990,9.978 8.408 C 9.675 8.735,9.633 8.789,9.599 8.907 C 9.505 9.232,9.663 9.577,9.977 9.732 C 10.148 9.816,10.395 9.811,10.568 9.721 C 10.822 9.589,11.388 8.978,11.695 8.505 C 12.228 7.685,12.581 6.577,12.586 5.705 C 12.588 5.456,12.582 5.413,12.533 5.314 C 12.463 5.173,12.326 5.036,12.186 4.968 C 12.077 4.915,12.055 4.914,11.110 4.901 L 10.146 4.888 9.755 3.803 C 9.029 1.786,9.008 1.733,8.893 1.617 C 8.736 1.459,8.693 1.445,8.298 1.422 C 7.910 1.399,2.516 1.399,2.123 1.422 M2.647 7.021 C 2.511 7.056,2.327 7.174,2.248 7.278 C 1.979 7.630,2.113 8.152,2.520 8.339 C 2.669 8.407,2.912 8.405,3.068 8.334 C 3.316 8.222,3.500 7.958,3.500 7.713 C 3.500 7.457,3.316 7.174,3.083 7.074 C 2.953 7.018,2.753 6.993,2.647 7.021 M5.447 7.021 C 5.311 7.056,5.127 7.174,5.048 7.278 C 4.779 7.630,4.913 8.152,5.320 8.339 C 5.469 8.407,5.712 8.405,5.868 8.334 C 6.116 8.222,6.300 7.958,6.300 7.713 C 6.300 7.457,6.116 7.174,5.883 7.074 C 5.753 7.018,5.553 6.993,5.447 7.021 M8.247 7.021 C 8.111 7.056,7.927 7.174,7.848 7.278 C 7.579 7.630,7.713 8.152,8.120 8.339 C 8.269 8.407,8.512 8.405,8.668 8.334 C 8.916 8.222,9.100 7.958,9.100 7.713 C 9.100 7.457,8.916 7.174,8.683 7.074 C 8.553 7.018,8.353 6.993,8.247 7.021 M3.169 10.522 C 3.065 10.542,2.924 10.633,2.765 10.780 C 2.474 11.050,2.308 11.147,2.036 11.208 C 1.743 11.273,1.576 11.393,1.467 11.616 C 1.390 11.773,1.392 12.030,1.470 12.192 C 1.549 12.353,1.700 12.493,1.862 12.554 C 2.162 12.668,2.680 12.548,3.148 12.256 L 3.321 12.149 3.393 12.192 C 3.840 12.458,3.948 12.506,4.249 12.567 C 4.664 12.651,5.101 12.552,5.575 12.267 C 5.765 12.152,5.773 12.150,5.831 12.187 C 6.378 12.527,6.703 12.623,7.163 12.579 C 7.482 12.548,7.836 12.410,8.143 12.196 L 8.225 12.139 8.362 12.233 C 9.041 12.694,9.783 12.702,10.498 12.256 L 10.671 12.149 10.743 12.191 C 11.113 12.408,11.354 12.512,11.612 12.565 C 11.951 12.635,12.155 12.592,12.355 12.409 C 12.518 12.260,12.587 12.106,12.586 11.888 C 12.586 11.515,12.340 11.267,11.905 11.202 C 11.659 11.165,11.566 11.111,11.292 10.849 C 10.991 10.561,10.919 10.523,10.675 10.523 C 10.429 10.523,10.344 10.567,10.043 10.851 C 9.760 11.117,9.640 11.184,9.450 11.184 C 9.260 11.184,9.140 11.117,8.857 10.851 C 8.556 10.567,8.471 10.523,8.225 10.523 C 7.979 10.523,7.894 10.567,7.593 10.851 C 7.310 11.117,7.190 11.184,7.000 11.184 C 6.809 11.184,6.682 11.113,6.405 10.850 C 6.109 10.569,6.021 10.523,5.775 10.523 C 5.527 10.523,5.440 10.569,5.132 10.863 C 4.932 11.054,4.855 11.112,4.745 11.153 C 4.485 11.251,4.315 11.191,3.995 10.889 C 3.745 10.653,3.652 10.583,3.547 10.551 C 3.425 10.515,3.266 10.503,3.169 10.522 " fill="#1A1C1F" stroke="none" fill-rule="evenodd"></path></svg>