<svg width="14" height="14" viewBox="0 0 14 14" fill="none" xmlns="http://www.w3.org/2000/svg"><path d="M2.322 1.749 C 1.839 1.761,1.830 1.763,1.722 1.826 C 1.581 1.909,1.500 2.016,1.468 2.161 C 1.450 2.240,1.438 3.356,1.430 5.789 L 1.419 9.303 1.468 9.399 C 1.588 9.635,1.799 9.777,2.029 9.776 C 2.405 9.775,2.772 9.611,3.106 9.293 L 3.191 9.212 3.332 9.325 C 3.642 9.575,3.945 9.720,4.235 9.757 C 4.656 9.812,4.997 9.705,5.387 9.396 C 5.495 9.311,5.594 9.248,5.607 9.256 C 5.620 9.264,5.706 9.325,5.799 9.391 C 6.002 9.537,6.313 9.693,6.500 9.741 C 6.939 9.855,7.442 9.703,7.898 9.319 C 8.010 9.224,8.108 9.151,8.117 9.155 C 8.125 9.160,8.221 9.217,8.330 9.282 C 8.745 9.529,9.136 9.633,9.487 9.590 C 9.852 9.544,10.203 9.397,10.488 9.170 C 10.665 9.029,11.086 8.596,11.226 8.412 C 11.737 7.738,12.428 6.443,12.555 5.922 C 12.608 5.704,12.471 5.444,12.229 5.301 L 12.122 5.238 11.154 5.227 L 10.187 5.215 10.071 4.746 L 9.955 4.277 9.500 4.262 C 9.250 4.254,8.076 4.247,6.890 4.247 C 4.940 4.247,4.727 4.243,4.660 4.208 C 4.448 4.100,4.303 3.904,4.278 3.693 C 4.252 3.471,4.364 3.253,4.567 3.134 L 4.678 3.068 7.144 3.057 C 8.500 3.050,9.616 3.038,9.625 3.030 C 9.640 3.015,9.498 2.444,9.405 2.146 C 9.357 1.991,9.309 1.929,9.147 1.818 L 9.065 1.762 7.607 1.747 C 5.906 1.730,3.027 1.731,2.322 1.749 M3.737 5.539 C 4.045 5.686,4.213 6.037,4.122 6.349 C 3.946 6.954,3.159 7.048,2.846 6.501 C 2.784 6.394,2.777 6.361,2.777 6.177 C 2.777 6.014,2.787 5.952,2.826 5.875 C 2.899 5.732,3.086 5.560,3.215 5.519 C 3.355 5.474,3.622 5.485,3.737 5.539 M6.537 5.539 C 6.845 5.686,7.013 6.037,6.922 6.349 C 6.746 6.954,5.959 7.048,5.646 6.501 C 5.584 6.394,5.577 6.361,5.577 6.177 C 5.577 6.014,5.587 5.952,5.626 5.875 C 5.699 5.732,5.886 5.560,6.015 5.519 C 6.155 5.474,6.422 5.485,6.537 5.539 M9.337 5.539 C 9.645 5.686,9.813 6.037,9.722 6.349 C 9.546 6.954,8.759 7.048,8.446 6.501 C 8.384 6.394,8.377 6.361,8.377 6.177 C 8.377 6.014,8.387 5.952,8.426 5.875 C 8.499 5.732,8.686 5.560,8.815 5.519 C 8.955 5.474,9.222 5.485,9.337 5.539 M2.928 10.407 C 2.861 10.428,2.786 10.485,2.470 10.754 C 2.301 10.899,2.240 10.928,2.010 10.976 C 1.726 11.035,1.576 11.139,1.487 11.337 C 1.436 11.452,1.427 11.662,1.469 11.771 C 1.515 11.890,1.651 12.033,1.778 12.096 C 1.931 12.173,2.151 12.177,2.417 12.110 C 2.608 12.061,2.915 11.924,3.056 11.824 L 3.136 11.767 3.308 11.879 C 3.621 12.084,3.935 12.207,4.252 12.251 C 4.630 12.302,4.982 12.209,5.356 11.957 C 5.460 11.887,5.560 11.830,5.580 11.830 C 5.599 11.830,5.664 11.862,5.725 11.901 C 6.170 12.182,6.627 12.310,6.987 12.252 C 7.305 12.200,7.646 12.060,7.942 11.858 L 8.079 11.764 8.222 11.871 C 8.400 12.003,8.681 12.137,8.925 12.207 C 9.395 12.341,9.945 12.226,10.454 11.888 L 10.615 11.781 10.738 11.873 C 10.924 12.011,11.095 12.100,11.332 12.179 C 11.772 12.326,12.052 12.291,12.256 12.064 C 12.370 11.938,12.413 11.823,12.413 11.646 C 12.413 11.492,12.370 11.390,12.257 11.277 C 12.143 11.163,12.027 11.108,11.849 11.083 C 11.646 11.054,11.494 10.967,11.207 10.717 C 10.887 10.437,10.813 10.397,10.617 10.397 C 10.429 10.397,10.348 10.437,10.085 10.661 C 9.712 10.979,9.490 11.098,9.319 11.075 C 9.142 11.051,8.888 10.897,8.598 10.640 C 8.372 10.439,8.285 10.398,8.085 10.397 C 7.883 10.396,7.825 10.425,7.490 10.697 C 7.188 10.941,6.950 11.069,6.795 11.069 C 6.648 11.069,6.411 10.943,6.156 10.731 C 5.801 10.436,5.664 10.367,5.471 10.389 C 5.312 10.407,5.201 10.478,4.966 10.713 C 4.800 10.879,4.699 10.959,4.585 11.015 C 4.437 11.088,4.426 11.090,4.310 11.063 C 4.159 11.028,3.923 10.881,3.652 10.654 C 3.536 10.557,3.410 10.462,3.371 10.443 C 3.280 10.400,3.020 10.378,2.928 10.407 " fill="#1A1C1F" stroke="none" fill-rule="evenodd"></path></svg>