<svg xmlns="http://www.w3.org/2000/svg" width="32" height="32" fill="none"><g clip-path="url(#a)"><path fill="#1A1C1F" fill-rule="evenodd" d="M7.003 24.841c.337.469 1.074 1.653 2.497 1.66 1.494.007 2.074-1.138 2.474-1.63a1 1 0 0 1 1.552 0c.4.492.967 1.63 2.473 1.63s2.102-1.172 2.475-1.63a1 1 0 0 1 1.467-.093c.415.398 1.06 1.731 2.552 1.723s2.108-1.171 2.481-1.63a1 1 0 0 1 1.468-.093c.414.399 1.611 1.712 2.556 1.723.594.007 1.002.448 1.002 1 0 .513-.434 1-1 1q-1.515 0-3.25-1.558-1.605 1.55-3.258 1.55-1.652 0-3.242-1.551-1.651 1.55-3.25 1.559t-3.25-1.558Q11.05 28.5 9.5 28.5q-1.548 0-3.25-1.557Q4.59 28.492 3 28.5a1 1 0 0 1-.117-1.993c1.297-.138 2.171-1.14 2.59-1.637s1.193-.498 1.53-.03m10.51-21.34c1.261 0 2.474.814 2.873 2.136q1.185 3.93 2.365 7.864h5.25a1 1 0 0 1 .998 1.037 11.8 11.8 0 0 1-4.37 8.74 1 1 0 1 1-1.258-1.555c1.876-1.517 2.994-3.376 3.535-6.222H4c-.513 0-1-.425-1-1 0-.576.419-1 1-1q8.332-.003 16.663 0l-.903-3H6a1 1 0 0 1-.117-1.993L6 8.5h13.159l-.688-2.288a.99.99 0 0 0-.958-.712H4a1 1 0 1 1 0-2q6.757-.003 13.513 0m-2.013 14a1.5 1.5 0 1 1 0 3 1.5 1.5 0 0 1 0-3m5 0a1.5 1.5 0 1 1 0 3 1.5 1.5 0 0 1 0-3m-10 0a1.5 1.5 0 1 1 0 3 1.5 1.5 0 0 1 0-3m-5 0a1.5 1.5 0 1 1 0 3 1.5 1.5 0 0 1 0-3" clip-rule="evenodd"/></g><defs><clipPath id="a"><path fill="#fff" d="M0 0h32v32H0z"/></clipPath></defs></svg>