<svg xmlns="http://www.w3.org/2000/svg" width="32" height="32" fill="none"><path fill="#1A1C1F" fill-rule="evenodd" d="M3.6 3.596c-.331.148-.611.566-.611.911s.323.804.654.93c.104.039 2.321.057 7.094.058 6.639.001 6.953.005 7.16.099.402.183.503.372.893 1.679.196.656.357 1.208.357 1.227 0 .018-3.026.033-6.723.033-7.322 0-6.849-.02-7.154.302-.49.519-.262 1.37.431 1.609.135.047 1.953.063 7.121.063h6.939l.419 1.391c.23.765.431 1.437.446 1.493.026.1-.128.102-8.34.103-5.673 0-8.431.018-8.567.056-.456.126-.779.62-.709 1.083.045.302.278.626.544.758.201.1.49.103 11.766.116 9.875.012 11.56.025 11.56.088 0 .042-.081.395-.18.787-.54 2.133-1.476 3.716-2.983 5.042-.535.47-.635.601-.703.915-.096.448.259.991.736 1.125.507.142.917-.114 2.013-1.259 1.264-1.321 2.126-2.79 2.71-4.617.353-1.106.612-2.886.486-3.351-.079-.293-.383-.605-.667-.684-.142-.04-1.098-.059-2.879-.059l-2.667-.001-1.034-3.453c-1.339-4.473-1.457-4.836-1.677-5.162-.249-.366-.748-.817-1.13-1.02-.671-.356-.234-.338-8.059-.336-5.817.002-7.115.015-7.246.074m1.424 13.995c-1.023.365-1.351 1.614-.63 2.4.305.332.661.489 1.099.484.191-.002.423-.031.517-.066.76-.28 1.159-1.134.894-1.913-.253-.742-1.14-1.169-1.88-.905m5.136-.048c-.475.117-.912.508-1.064.953-.265.779.134 1.633.894 1.913.094.035.326.064.517.066 1.131.012 1.848-1.206 1.293-2.195-.326-.581-1.014-.89-1.64-.737m4.93.02a1.505 1.505 0 0 0-.933 2.088c.263.538.752.83 1.386.828.551-.002 1.032-.307 1.297-.821.184-.359.198-.9.032-1.263-.303-.662-1.086-1.028-1.782-.832m5.006.002c-1.115.313-1.461 1.722-.621 2.525.53.507 1.441.525 2.009.039.478-.409.64-1.129.385-1.714-.133-.307-.492-.673-.775-.791a1.76 1.76 0 0 0-.998-.059M5.969 24.551c-.264.097-.337.157-.848.692-.559.586-1.095.95-1.659 1.129-.235.074-.48.135-.545.136-.173.002-.525.178-.671.336-.07.076-.159.259-.197.407a.96.96 0 0 0 .256.947c.229.221.404.282.81.282.848 0 1.844-.447 2.83-1.271l.318-.265.263.236c.611.55 1.48 1.032 2.197 1.218.407.107 1.126.104 1.567-.004.662-.164 1.484-.613 2.128-1.164.156-.134.309-.243.339-.243.029 0 .178.111.328.247a5.7 5.7 0 0 0 1.832 1.092c.454.161 1.336.197 1.842.077.715-.171 1.89-.835 2.303-1.301.055-.064.127-.115.16-.115.032 0 .254.162.493.36q.793.66 1.645.955c.381.133.501.149 1.12.15.585.001.751-.018 1.061-.122a5.4 5.4 0 0 0 1.909-1.124l.293-.268.332.281c1.039.879 2.355 1.392 3.175 1.239.287-.054.599-.359.693-.677a.96.96 0 0 0-.53-1.174 1.1 1.1 0 0 0-.377-.099c-.53-.004-1.221-.418-2.099-1.256-.315-.301-.647-.585-.739-.633-.216-.111-.665-.11-.904.004-.107.051-.295.23-.433.413-.396.526-.964 1.06-1.288 1.212-.902.423-1.833.311-2.603-.314-.127-.103-.407-.407-.623-.675-.463-.576-.69-.726-1.102-.726-.39 0-.607.128-.915.538-.43.574-.876.995-1.241 1.175a2.57 2.57 0 0 1-1.498.221c-.719-.123-1.23-.485-1.858-1.316-.371-.49-.573-.618-.974-.618-.434 0-.626.13-1.079.724-.62.814-1.202 1.173-2 1.234-.928.071-1.719-.371-2.495-1.396-.155-.204-.353-.413-.44-.464-.224-.13-.55-.164-.776-.08"/></svg>