<svg xmlns="http://www.w3.org/2000/svg" width="20" height="20" fill="none"><g clip-path="url(#a)"><path fill="#1A1C1F" fill-rule="evenodd" d="M16.002 15.341c.07.079.445.659.998.659a1 1 0 0 1 1 1c0 .513-.43 1-1.004 1q-.822 0-1.746-.663-.865.653-1.75.653t-1.75-.652q-.876.652-1.753.662t-1.747-.662q-.874.652-1.75.662t-1.75-.662Q3.889 17.99 3 18a1 1 0 1 1 0-2c.12 0 .598-.202.997-.658a1 1 0 0 1 1.506 0c.069.079.484.658.997.658s.929-.58.997-.659a1 1 0 0 1 1.505 0c.07.079.5.659.998.659.5 0 .929-.58.998-.659a1 1 0 0 1 1.504 0c.07.079.5.659.998.659.499 0 .929-.58.998-.659a1 1 0 0 1 1.504 0M12 2a1 1 0 0 1 .936.649l1.564 4.35H17a1 1 0 0 1 1 1.035c-.077 2.224-1.05 4.31-2.678 5.721a1 1 0 1 1-1.31-1.51c.935-.812 1.485-1.734 1.865-3.245Q9.486 8.97 3 9c-.513 0-1-.487-1-1a1 1 0 0 1 .883-.993L12.437 7 11.25 4H3c-.513 0-1-.487-1-1a1 1 0 0 1 .883-.993zm0 8a1 1 0 1 1 0 2 1 1 0 0 1 0-2m-4 0a1 1 0 1 1 0 2 1 1 0 0 1 0-2m-4 0a1 1 0 1 1 0 2 1 1 0 0 1 0-2" clip-rule="evenodd"/></g><defs><clipPath id="a"><path fill="#fff" d="M0 0h20v20H0z"/></clipPath></defs></svg>