<svg width="12" height="12" viewBox="0 0 12 12" fill="none" xmlns="http://www.w3.org/2000/svg"><path d="M1.990 1.497 C 1.578 1.510,1.568 1.511,1.476 1.565 C 1.349 1.640,1.285 1.730,1.256 1.872 C 1.238 1.960,1.232 2.751,1.231 5.011 L 1.230 8.031 1.301 8.131 C 1.391 8.257,1.533 8.353,1.656 8.372 C 1.781 8.391,2.027 8.354,2.176 8.293 C 2.325 8.233,2.489 8.125,2.631 7.996 L 2.738 7.898 2.863 7.999 C 3.126 8.211,3.378 8.331,3.630 8.363 C 3.990 8.410,4.283 8.318,4.618 8.053 C 4.710 7.981,4.795 7.927,4.806 7.934 C 4.817 7.941,4.891 7.993,4.971 8.050 C 5.145 8.175,5.411 8.308,5.571 8.349 C 5.947 8.447,6.379 8.317,6.770 7.988 C 6.866 7.907,6.954 7.846,6.967 7.853 C 6.980 7.860,7.053 7.905,7.131 7.952 C 7.715 8.311,8.306 8.314,8.848 7.960 C 9.021 7.847,9.391 7.496,9.564 7.282 C 10.002 6.737,10.646 5.552,10.761 5.077 C 10.807 4.887,10.693 4.668,10.482 4.544 L 10.390 4.490 9.561 4.480 L 8.732 4.470 8.632 4.068 L 8.533 3.666 8.113 3.653 C 7.882 3.646,6.876 3.640,5.876 3.640 C 4.232 3.640,4.052 3.637,3.994 3.607 C 3.748 3.482,3.615 3.220,3.678 2.986 C 3.711 2.863,3.814 2.740,3.938 2.676 L 4.045 2.620 6.077 2.620 C 7.195 2.620,8.144 2.614,8.186 2.607 C 8.259 2.595,8.261 2.592,8.248 2.532 C 8.206 2.339,8.054 1.802,8.025 1.741 C 7.981 1.651,7.817 1.528,7.723 1.513 C 7.618 1.496,2.489 1.483,1.990 1.497 M3.203 4.748 C 3.547 4.911,3.659 5.336,3.439 5.635 C 3.176 5.992,2.661 5.959,2.439 5.573 C 2.386 5.481,2.380 5.452,2.380 5.294 C 2.380 5.155,2.389 5.101,2.422 5.036 C 2.485 4.913,2.645 4.766,2.756 4.731 C 2.875 4.692,3.104 4.701,3.203 4.748 M5.603 4.748 C 5.947 4.911,6.059 5.336,5.839 5.635 C 5.576 5.992,5.061 5.959,4.839 5.573 C 4.786 5.481,4.780 5.452,4.780 5.294 C 4.780 5.155,4.789 5.101,4.822 5.036 C 4.885 4.913,5.045 4.766,5.156 4.731 C 5.275 4.692,5.504 4.701,5.603 4.748 M8.003 4.748 C 8.347 4.911,8.459 5.336,8.239 5.635 C 7.976 5.992,7.461 5.959,7.239 5.573 C 7.186 5.481,7.180 5.452,7.180 5.294 C 7.180 5.155,7.189 5.101,7.222 5.036 C 7.285 4.913,7.445 4.766,7.556 4.731 C 7.675 4.692,7.904 4.701,8.003 4.748 M2.510 8.920 C 2.452 8.939,2.404 8.975,2.108 9.225 C 1.969 9.342,1.937 9.356,1.635 9.431 C 1.390 9.492,1.236 9.680,1.236 9.920 C 1.237 10.055,1.262 10.124,1.351 10.232 C 1.453 10.357,1.594 10.420,1.771 10.420 C 2.019 10.420,2.395 10.293,2.620 10.135 L 2.690 10.085 2.804 10.163 C 3.124 10.380,3.478 10.503,3.790 10.506 C 4.096 10.508,4.305 10.441,4.591 10.249 C 4.680 10.189,4.766 10.140,4.782 10.140 C 4.799 10.140,4.855 10.167,4.907 10.200 C 5.285 10.440,5.683 10.551,5.989 10.501 C 6.261 10.458,6.545 10.340,6.807 10.163 L 6.925 10.084 7.047 10.175 C 7.200 10.288,7.441 10.403,7.650 10.463 C 8.053 10.578,8.524 10.480,8.961 10.190 L 9.099 10.098 9.204 10.177 C 9.364 10.296,9.510 10.371,9.713 10.439 C 10.091 10.565,10.331 10.535,10.505 10.341 C 10.603 10.232,10.640 10.134,10.640 9.982 C 10.640 9.850,10.603 9.763,10.506 9.666 C 10.408 9.568,10.309 9.521,10.156 9.499 C 9.983 9.475,9.852 9.400,9.606 9.186 C 9.332 8.946,9.269 8.911,9.100 8.911 C 8.939 8.911,8.870 8.946,8.644 9.138 C 8.324 9.410,8.134 9.513,7.988 9.493 C 7.837 9.472,7.622 9.343,7.370 9.121 C 7.173 8.947,7.100 8.913,6.930 8.912 C 6.757 8.911,6.707 8.936,6.420 9.169 C 6.161 9.378,5.957 9.488,5.824 9.488 C 5.698 9.488,5.495 9.380,5.277 9.198 C 4.964 8.938,4.855 8.886,4.672 8.907 C 4.544 8.922,4.449 8.986,4.239 9.200 C 4.114 9.327,4.031 9.392,3.933 9.440 C 3.803 9.504,3.794 9.506,3.695 9.483 C 3.567 9.453,3.363 9.327,3.140 9.140 C 3.046 9.062,2.937 8.981,2.897 8.960 C 2.812 8.915,2.596 8.893,2.510 8.920 " fill="#1A1C1F" stroke="none" fill-rule="evenodd"></path></svg>