<svg xmlns="http://www.w3.org/2000/svg" width="12" height="12" fill="none"><g clip-path="url(#a)"><path fill="#1A1C1F" fill-rule="evenodd" d="M9.601 9.205c.042.047.267.395.599.395a.6.6 0 0 1 .6.6c0 .308-.258.6-.602.6q-.493 0-1.048-.398-.519.392-1.05.392t-1.05-.391q-.524.39-1.052.397-.525.006-1.048-.397-.525.39-1.05.397-.525.006-1.05-.397-.518.39-1.05.397a.6.6 0 0 1 0-1.2c.072 0 .359-.121.598-.395a.6.6 0 0 1 .904 0c.041.047.29.395.598.395.307 0 .557-.348.598-.395a.6.6 0 0 1 .903 0c.042.047.3.395.6.395.298 0 .556-.348.597-.395a.6.6 0 0 1 .903 0c.042.047.3.395.6.395.298 0 .556-.348.597-.395a.6.6 0 0 1 .903 0M7.2 1.2a.6.6 0 0 1 .562.39L8.7 4.2h1.5a.6.6 0 0 1 .6.62c-.046 1.335-.63 2.587-1.607 3.433a.6.6 0 1 1-.786-.906c.561-.487.891-1.04 1.12-1.947a820 820 0 0 0-7.727 0 .633.633 0 0 1-.6-.6.6.6 0 0 1 .53-.596L7.462 4.2 6.75 2.4H1.8a.633.633 0 0 1-.6-.6.6.6 0 0 1 .53-.596zm0 4.8a.6.6 0 1 1 0 1.2.6.6 0 0 1 0-1.2M4.8 6a.6.6 0 1 1 0 1.2.6.6 0 0 1 0-1.2M2.4 6a.6.6 0 1 1 0 1.2.6.6 0 0 1 0-1.2" clip-rule="evenodd"/></g><defs><clipPath id="a"><path fill="#fff" d="M0 0h12v12H0z"/></clipPath></defs></svg>