<svg width="16" height="16" viewBox="0 0 16 16" fill="none" xmlns="http://www.w3.org/2000/svg"><path d="M2.653 1.997 C 2.103 2.013,2.091 2.015,1.968 2.087 C 1.807 2.181,1.714 2.304,1.677 2.469 C 1.657 2.560,1.644 3.843,1.635 6.616 C 1.621 10.626,1.621 10.632,1.676 10.739 C 1.856 11.091,2.145 11.223,2.574 11.149 C 2.908 11.090,3.189 10.944,3.500 10.666 L 3.654 10.529 3.780 10.634 C 4.133 10.928,4.500 11.107,4.842 11.151 C 5.321 11.213,5.711 11.090,6.157 10.738 C 6.280 10.641,6.393 10.569,6.408 10.578 C 6.423 10.587,6.522 10.657,6.627 10.733 C 6.860 10.900,7.215 11.077,7.428 11.133 C 7.914 11.259,8.504 11.089,8.985 10.684 C 9.092 10.594,9.200 10.505,9.225 10.487 C 9.262 10.459,9.301 10.474,9.468 10.578 C 9.706 10.727,9.998 10.855,10.253 10.921 C 10.735 11.045,11.341 10.921,11.832 10.596 C 12.026 10.467,12.542 9.970,12.753 9.708 C 13.337 8.982,14.194 7.403,14.349 6.768 C 14.409 6.519,14.253 6.221,13.976 6.059 L 13.853 5.987 12.748 5.973 L 11.642 5.960 11.510 5.424 L 11.377 4.888 10.802 4.871 C 10.485 4.861,9.141 4.853,7.813 4.853 L 5.400 4.853 5.262 4.774 C 4.767 4.490,4.761 3.823,5.250 3.568 L 5.393 3.493 8.079 3.493 C 9.557 3.493,10.822 3.486,10.891 3.476 C 11.014 3.459,11.016 3.458,10.998 3.376 C 10.942 3.118,10.739 2.402,10.700 2.322 C 10.641 2.202,10.422 2.037,10.297 2.017 C 10.157 1.996,3.318 1.977,2.653 1.997 M4.276 6.333 C 4.432 6.407,4.580 6.555,4.658 6.714 C 4.719 6.838,4.733 6.902,4.733 7.053 C 4.732 7.291,4.662 7.449,4.482 7.625 C 4.110 7.987,3.518 7.893,3.252 7.430 C 3.182 7.307,3.174 7.269,3.174 7.059 C 3.173 6.893,3.186 6.799,3.217 6.739 C 3.332 6.516,3.510 6.357,3.705 6.301 C 3.856 6.258,4.154 6.275,4.276 6.333 M7.476 6.333 C 7.632 6.407,7.780 6.555,7.858 6.714 C 7.919 6.838,7.933 6.902,7.933 7.053 C 7.932 7.291,7.862 7.449,7.682 7.625 C 7.310 7.987,6.718 7.893,6.452 7.430 C 6.382 7.307,6.374 7.269,6.374 7.059 C 6.373 6.893,6.386 6.799,6.417 6.739 C 6.532 6.516,6.710 6.357,6.905 6.301 C 7.056 6.258,7.354 6.275,7.476 6.333 M10.676 6.333 C 10.832 6.407,10.980 6.555,11.058 6.714 C 11.119 6.838,11.133 6.902,11.133 7.053 C 11.132 7.291,11.062 7.449,10.882 7.625 C 10.510 7.987,9.918 7.893,9.652 7.430 C 9.582 7.307,9.574 7.269,9.574 7.059 C 9.573 6.893,9.586 6.799,9.617 6.739 C 9.732 6.516,9.910 6.357,10.105 6.301 C 10.256 6.258,10.554 6.275,10.676 6.333 M3.347 11.894 C 3.269 11.918,3.184 11.983,2.823 12.291 C 2.630 12.456,2.560 12.489,2.297 12.544 C 1.973 12.612,1.801 12.730,1.700 12.955 C 1.643 13.085,1.633 13.329,1.680 13.454 C 1.731 13.588,1.887 13.752,2.032 13.824 C 2.207 13.912,2.459 13.917,2.762 13.840 C 2.981 13.784,3.331 13.628,3.493 13.513 L 3.586 13.447 3.743 13.553 C 4.099 13.795,4.560 13.973,4.934 14.011 C 5.277 14.047,5.686 13.940,6.022 13.728 C 6.145 13.650,6.274 13.569,6.309 13.547 C 6.369 13.510,6.383 13.512,6.487 13.571 C 6.985 13.854,7.226 13.950,7.571 14.003 C 8.000 14.069,8.557 13.901,9.076 13.551 L 9.233 13.445 9.370 13.551 C 9.553 13.691,9.937 13.877,10.200 13.951 C 10.495 14.034,10.867 14.034,11.160 13.951 C 11.427 13.875,11.766 13.717,11.970 13.573 L 12.128 13.463 12.252 13.557 C 12.447 13.706,12.686 13.830,12.951 13.919 C 13.454 14.087,13.774 14.047,14.007 13.788 C 14.138 13.643,14.187 13.512,14.187 13.309 C 14.187 13.133,14.138 13.018,14.008 12.888 C 13.878 12.758,13.745 12.695,13.543 12.666 C 13.279 12.629,13.089 12.513,12.685 12.142 C 12.462 11.938,12.344 11.882,12.133 11.882 C 11.918 11.882,11.822 11.929,11.533 12.179 C 11.120 12.535,10.846 12.684,10.650 12.657 C 10.446 12.629,10.160 12.455,9.814 12.150 C 9.556 11.922,9.473 11.883,9.240 11.882 C 9.010 11.881,8.943 11.915,8.560 12.225 C 8.214 12.505,7.942 12.650,7.765 12.650 C 7.568 12.649,7.309 12.503,6.923 12.175 C 6.639 11.934,6.534 11.883,6.320 11.881 C 6.082 11.880,5.985 11.934,5.676 12.243 C 5.416 12.502,5.163 12.667,5.023 12.667 C 4.852 12.667,4.544 12.489,4.167 12.171 C 4.053 12.075,3.916 11.974,3.863 11.946 C 3.750 11.887,3.461 11.858,3.347 11.894 " fill="#1A1C1F" stroke="none" fill-rule="evenodd"></path></svg>