<svg width="20" height="20" viewBox="0 0 20 20" fill="none" xmlns="http://www.w3.org/2000/svg"><path d="M3.033 2.032 C 2.634 2.055,2.492 2.108,2.289 2.311 C 2.100 2.500,2.018 2.702,2.018 2.983 C 2.018 3.151,2.039 3.261,2.090 3.373 C 2.181 3.572,2.413 3.805,2.629 3.915 L 2.798 4.000 7.024 4.000 L 11.250 4.000 11.826 5.459 C 12.143 6.261,12.401 6.934,12.401 6.955 C 12.400 6.983,11.167 6.996,7.575 7.005 L 2.750 7.017 2.533 7.136 C 2.276 7.278,2.122 7.463,2.046 7.724 C 1.914 8.179,2.170 8.684,2.657 8.929 L 2.797 9.000 9.335 9.000 L 15.872 9.000 15.849 9.108 C 15.770 9.472,15.429 10.364,15.227 10.733 C 14.984 11.176,14.785 11.439,14.274 11.991 C 13.946 12.344,13.757 12.575,13.729 12.657 C 13.656 12.867,13.671 13.225,13.760 13.406 C 13.862 13.613,14.051 13.803,14.253 13.903 C 14.497 14.023,14.850 14.016,15.097 13.887 C 15.460 13.698,16.268 12.826,16.707 12.150 C 17.468 10.979,17.972 9.395,17.981 8.150 C 17.983 7.790,17.975 7.734,17.902 7.587 C 17.799 7.379,17.644 7.224,17.424 7.110 L 17.250 7.020 15.872 7.002 L 14.495 6.983 13.851 5.200 C 12.844 2.409,12.873 2.479,12.705 2.311 C 12.479 2.084,12.419 2.064,11.854 2.032 C 11.299 1.999,3.594 1.999,3.033 2.032 M3.783 10.029 C 3.490 10.107,3.207 10.337,3.088 10.597 C 2.987 10.818,2.989 11.195,3.094 11.406 C 3.274 11.772,3.598 11.982,3.983 11.981 C 4.289 11.981,4.509 11.884,4.727 11.654 C 5.093 11.267,5.085 10.709,4.708 10.318 C 4.488 10.091,4.060 9.957,3.783 10.029 M7.783 10.029 C 7.490 10.107,7.207 10.337,7.088 10.597 C 6.987 10.818,6.989 11.195,7.094 11.406 C 7.274 11.772,7.598 11.982,7.983 11.981 C 8.289 11.981,8.509 11.884,8.727 11.654 C 9.093 11.267,9.085 10.709,8.708 10.318 C 8.488 10.091,8.060 9.957,7.783 10.029 M11.783 10.029 C 11.490 10.107,11.207 10.337,11.088 10.597 C 10.987 10.818,10.989 11.195,11.094 11.406 C 11.274 11.772,11.598 11.982,11.983 11.981 C 12.289 11.981,12.509 11.884,12.727 11.654 C 13.093 11.267,13.085 10.709,12.708 10.318 C 12.488 10.091,12.060 9.957,11.783 10.029 M4.527 15.031 C 4.379 15.060,4.177 15.190,3.950 15.400 C 3.534 15.786,3.297 15.925,2.909 16.011 C 2.491 16.104,2.251 16.275,2.095 16.594 C 1.985 16.820,1.986 17.188,2.098 17.416 C 2.212 17.646,2.430 17.848,2.659 17.935 C 3.088 18.097,3.828 17.926,4.497 17.509 L 4.744 17.355 4.847 17.416 C 5.486 17.798,5.641 17.866,6.070 17.953 C 6.663 18.073,7.287 17.932,7.964 17.524 C 8.236 17.360,8.247 17.357,8.330 17.409 C 9.112 17.896,9.576 18.032,10.233 17.970 C 10.688 17.926,11.194 17.729,11.633 17.423 L 11.749 17.342 11.946 17.475 C 12.916 18.134,13.976 18.146,14.997 17.509 L 15.244 17.355 15.347 17.415 C 15.875 17.725,16.220 17.874,16.588 17.950 C 17.077 18.051,17.359 17.993,17.644 17.733 C 17.883 17.514,17.981 17.297,17.981 16.983 C 17.980 16.451,17.628 16.096,17.007 16.002 C 16.655 15.949,16.512 15.867,16.127 15.497 C 15.701 15.087,15.599 15.033,15.250 15.033 C 14.899 15.033,14.778 15.096,14.347 15.502 C 13.939 15.885,13.780 15.973,13.500 15.973 C 13.220 15.973,13.061 15.885,12.653 15.502 C 12.222 15.096,12.101 15.033,11.750 15.033 C 11.399 15.033,11.278 15.096,10.847 15.502 C 10.439 15.885,10.280 15.973,10.000 15.973 C 9.718 15.973,9.549 15.879,9.150 15.500 C 8.727 15.099,8.602 15.033,8.250 15.033 C 7.897 15.033,7.782 15.094,7.335 15.517 C 7.047 15.789,6.931 15.875,6.777 15.933 C 6.407 16.073,6.163 15.987,5.708 15.556 C 5.350 15.218,5.217 15.118,5.067 15.073 C 4.893 15.022,4.666 15.004,4.527 15.031 " fill="#1A1C1F" stroke="none" fill-rule="evenodd"></path></svg>