<svg width="12" height="12" viewBox="0 0 12 12" fill="none" xmlns="http://www.w3.org/2000/svg"><path d="M1.820 1.219 C 1.580 1.233,1.495 1.265,1.374 1.386 C 1.260 1.500,1.211 1.621,1.211 1.790 C 1.211 1.891,1.223 1.956,1.254 2.024 C 1.308 2.143,1.448 2.283,1.578 2.349 L 1.679 2.400 4.214 2.400 L 6.750 2.400 7.095 3.275 C 7.285 3.756,7.441 4.160,7.440 4.173 C 7.440 4.190,6.707 4.198,4.545 4.203 L 1.650 4.210 1.520 4.282 C 1.365 4.367,1.273 4.478,1.228 4.634 C 1.149 4.905,1.297 5.207,1.578 5.349 L 1.679 5.400 5.601 5.400 L 9.523 5.400 9.509 5.465 C 9.488 5.563,9.385 5.866,9.297 6.090 C 9.130 6.512,8.966 6.765,8.610 7.144 C 8.271 7.506,8.244 7.544,8.216 7.695 C 8.186 7.857,8.216 7.993,8.312 8.134 C 8.484 8.384,8.794 8.465,9.062 8.329 C 9.273 8.222,9.758 7.699,10.025 7.290 C 10.169 7.070,10.412 6.580,10.510 6.313 C 10.721 5.737,10.855 4.875,10.772 4.625 C 10.721 4.473,10.624 4.358,10.477 4.279 L 10.350 4.211 9.523 4.200 L 8.697 4.190 8.311 3.120 C 7.707 1.445,7.724 1.488,7.623 1.386 C 7.489 1.252,7.451 1.239,7.123 1.219 C 6.803 1.199,2.160 1.199,1.820 1.219 M2.270 6.018 C 2.094 6.064,1.924 6.202,1.853 6.358 C 1.792 6.491,1.794 6.717,1.856 6.844 C 1.964 7.063,2.159 7.189,2.390 7.189 C 2.574 7.188,2.705 7.130,2.836 6.992 C 3.056 6.760,3.051 6.425,2.825 6.191 C 2.693 6.054,2.436 5.974,2.270 6.018 M4.670 6.018 C 4.494 6.064,4.324 6.202,4.253 6.358 C 4.192 6.491,4.194 6.717,4.256 6.844 C 4.364 7.063,4.559 7.189,4.790 7.189 C 4.974 7.188,5.105 7.130,5.236 6.992 C 5.456 6.760,5.451 6.425,5.225 6.191 C 5.093 6.054,4.836 5.974,4.670 6.018 M7.070 6.018 C 6.894 6.064,6.724 6.202,6.653 6.358 C 6.592 6.491,6.594 6.717,6.656 6.844 C 6.764 7.063,6.959 7.189,7.190 7.189 C 7.374 7.188,7.505 7.130,7.636 6.992 C 7.856 6.760,7.851 6.425,7.625 6.191 C 7.493 6.054,7.236 5.974,7.070 6.018 M2.716 9.019 C 2.627 9.036,2.506 9.114,2.370 9.240 C 2.120 9.471,1.978 9.555,1.746 9.607 C 1.495 9.662,1.350 9.766,1.256 9.957 C 1.190 10.090,1.192 10.311,1.260 10.450 C 1.328 10.588,1.457 10.709,1.596 10.761 C 1.853 10.859,2.295 10.756,2.698 10.505 L 2.847 10.413 2.908 10.450 C 3.291 10.679,3.384 10.719,3.642 10.772 C 4.000 10.844,4.384 10.756,4.793 10.507 C 4.942 10.417,4.949 10.415,4.999 10.446 C 5.467 10.737,5.756 10.822,6.145 10.782 C 6.414 10.755,6.721 10.634,6.980 10.454 L 7.050 10.405 7.167 10.485 C 7.409 10.649,7.731 10.767,8.007 10.792 C 8.289 10.817,8.664 10.711,8.979 10.517 L 9.147 10.413 9.209 10.449 C 9.525 10.635,9.732 10.724,9.953 10.770 C 10.246 10.831,10.416 10.796,10.586 10.640 C 10.729 10.509,10.788 10.379,10.789 10.190 C 10.791 9.872,10.577 9.657,10.204 9.601 C 9.993 9.570,9.907 9.520,9.676 9.298 C 9.421 9.052,9.359 9.020,9.150 9.020 C 8.939 9.020,8.867 9.058,8.608 9.301 C 8.363 9.531,8.268 9.584,8.100 9.584 C 7.931 9.584,7.830 9.528,7.590 9.300 C 7.336 9.059,7.261 9.020,7.050 9.020 C 6.839 9.020,6.767 9.058,6.508 9.301 C 6.263 9.531,6.168 9.584,6.000 9.584 C 5.831 9.584,5.730 9.528,5.490 9.300 C 5.236 9.059,5.161 9.020,4.950 9.020 C 4.738 9.020,4.669 9.056,4.401 9.310 C 4.228 9.473,4.159 9.525,4.066 9.560 C 3.844 9.644,3.698 9.592,3.425 9.334 C 3.210 9.131,3.130 9.071,3.040 9.044 C 2.936 9.013,2.799 9.002,2.716 9.019 " fill="#1A1C1F" stroke="none" fill-rule="evenodd"></path></svg>