<svg xmlns="http://www.w3.org/2000/svg" width="32" height="32" fill="none"><path fill="#1A1C1F" fill-rule="evenodd" d="M2.769 4.691a.81.81 0 0 0-.526.45c-.106.219-.11.312-.11 3.116v2.89h8.757c8.747 0 8.757 0 8.984.11.304.147.446.384.446.743 0 .361-.153.618-.448.752-.21.095-.554.099-8.979.1l-8.76.001v4.882c0 5.22-.006 5.086.256 5.375.275.305.781.339 1.475.1.609-.21 1.128-.57 1.804-1.252l.575-.58.545.553c1.253 1.271 2.381 1.668 3.593 1.266.632-.21 1.439-.802 2.018-1.48l.311-.365.565.572c1.878 1.9 3.515 1.901 5.392.003l.56-.567.453.474c1.037 1.085 2.047 1.594 2.99 1.506 1.126-.104 2.113-.814 3.313-2.38 1.369-1.788 2.246-3.667 2.651-5.68.145-.72.238-1.638.195-1.925a.85.85 0 0 0-.59-.655c-.142-.04-1.097-.06-2.891-.06h-2.679l-.031-.12-.414-1.64-.384-1.52-6.65-.027-6.65-.026-.17-.16c-.437-.411-.401-1.061.075-1.355l.181-.112h6.38c5.696 0 6.381-.009 6.381-.082 0-.206-.618-2.468-.711-2.604a.9.9 0 0 0-.324-.252c-.21-.096-.542-.1-8.832-.096-4.737.002-8.675.022-8.751.045m4.058 10.976c.167.088.345.239.445.378.147.203.17.282.185.64.015.349-.001.443-.11.648-.238.446-.821.746-1.278.658-.61-.116-1.056-.642-1.056-1.244 0-.935.98-1.519 1.814-1.08m4.895-.064c.918.383 1.027 1.683.183 2.19-.332.199-.587.248-.914.176a1.19 1.19 0 0 1-.803-.596c-.353-.616-.14-1.386.471-1.704.333-.173.744-.199 1.063-.066m5.054.018c.267.121.573.469.655.745.143.475.045.876-.301 1.233-1.092 1.125-2.803-.38-1.851-1.629.314-.412 1.005-.573 1.497-.349m5.153.088c.126.089.301.278.39.422.137.222.161.312.159.611-.007 1.377-1.827 1.739-2.371.473-.262-.609.037-1.338.666-1.624.101-.045.303-.067.544-.057.326.012.417.038.612.175M5.893 23.743c-.058.033-.358.303-.666.601-.865.837-1.529 1.24-2.132 1.295-.423.038-.692.196-.842.493-.151.3-.151.459.003.75a.95.95 0 0 0 .811.478c.323 0 1.008-.187 1.45-.397.458-.217.896-.508 1.375-.914l.352-.299.245.205c1.092.914 1.916 1.316 2.843 1.388.905.07 2.006-.395 3.065-1.293l.351-.298.413.341c.736.609 1.232.895 1.934 1.115a3.3 3.3 0 0 0 1.892-.025c.546-.179 1.181-.548 1.787-1.037l.479-.387.48.387c.605.489 1.24.857 1.787 1.038.349.115.528.141.987.142.492.002.616-.018 1.03-.164.547-.192 1.181-.56 1.684-.975.195-.162.397-.327.449-.369.085-.067.116-.055.292.113.653.621 1.565 1.142 2.311 1.321.583.14.83.136 1.116-.015.252-.133.478-.476.478-.727 0-.411-.443-.854-.857-.856-.566-.002-1.38-.478-2.231-1.304-.311-.302-.618-.576-.682-.609-.175-.091-.612-.075-.765.028-.073.049-.408.356-.745.683-.824.797-1.523 1.201-2.078 1.201-.558 0-1.389-.48-2.162-1.248-.703-.699-.742-.725-1.091-.725-.363.001-.429.043-1.047.668-.764.774-1.472 1.22-2.04 1.287-.639.076-1.461-.373-2.413-1.319-.322-.32-.646-.597-.72-.615a1.5 1.5 0 0 0-.398-.009c-.251.024-.291.052-.864.607-.688.667-1.268 1.077-1.752 1.241-.42.142-.606.142-1.024.002-.524-.176-.925-.452-1.585-1.09-.337-.327-.672-.634-.745-.683-.152-.102-.611-.118-.775-.026"/></svg>