<svg width="28" height="28" viewBox="0 0 28 28" fill="none" xmlns="http://www.w3.org/2000/svg"><path d="M3.531 4.105 L 2.279 4.130 2.123 4.301 C 2.037 4.394,1.944 4.552,1.917 4.651 C 1.885 4.767,1.867 5.690,1.867 7.290 L 1.867 9.749 9.555 9.763 C 17.147 9.776,17.245 9.778,17.402 9.870 C 17.625 10.001,17.740 10.175,17.768 10.421 C 17.798 10.693,17.657 11.001,17.443 11.131 C 17.292 11.222,17.167 11.224,9.577 11.236 L 1.863 11.249 1.877 15.553 C 1.890 19.750,1.892 19.861,1.983 20.040 C 2.190 20.448,2.607 20.541,3.278 20.330 C 3.862 20.147,4.198 19.924,4.864 19.278 L 5.461 18.699 5.985 19.210 C 6.721 19.927,7.161 20.206,7.817 20.369 C 8.783 20.610,9.923 20.079,10.910 18.930 L 11.105 18.702 11.561 19.134 C 12.368 19.898,12.878 20.225,13.487 20.367 C 13.868 20.457,14.085 20.457,14.460 20.369 C 15.076 20.223,15.605 19.885,16.376 19.141 L 16.815 18.717 17.320 19.202 C 18.123 19.971,18.653 20.282,19.361 20.399 C 19.891 20.486,20.629 20.291,21.198 19.913 C 21.785 19.522,22.662 18.533,23.295 17.547 C 24.392 15.839,25.018 14.135,25.208 12.335 C 25.274 11.714,25.236 11.532,24.994 11.297 C 24.846 11.154,24.797 11.137,24.444 11.103 C 24.231 11.083,23.107 11.065,21.947 11.063 L 19.837 11.060 19.791 10.885 C 19.765 10.789,19.605 10.152,19.435 9.469 L 19.125 8.228 18.002 8.197 C 17.384 8.180,14.763 8.167,12.178 8.167 L 7.478 8.167 7.311 7.983 C 6.965 7.599,6.986 7.163,7.367 6.837 C 7.475 6.745,7.561 6.743,13.068 6.720 C 16.143 6.707,18.674 6.681,18.693 6.662 C 18.731 6.625,18.471 5.571,18.238 4.815 C 18.041 4.176,17.998 4.145,17.269 4.100 C 16.656 4.063,5.439 4.066,3.531 4.105 M5.960 13.713 C 6.741 14.111,6.726 15.226,5.934 15.629 C 5.703 15.747,5.301 15.759,5.050 15.654 C 4.649 15.487,4.413 15.116,4.413 14.653 C 4.413 14.181,4.608 13.876,5.040 13.674 C 5.299 13.553,5.678 13.569,5.960 13.713 M10.173 13.626 C 10.535 13.727,10.846 14.114,10.904 14.536 C 10.988 15.152,10.464 15.740,9.829 15.740 C 9.268 15.740,8.773 15.227,8.774 14.648 C 8.775 13.935,9.467 13.430,10.173 13.626 M14.787 13.754 C 15.068 13.927,15.257 14.235,15.292 14.575 C 15.315 14.797,15.301 14.875,15.194 15.093 C 14.994 15.501,14.648 15.731,14.228 15.734 C 13.648 15.738,13.145 15.237,13.145 14.653 C 13.145 14.341,13.320 13.965,13.536 13.811 C 13.906 13.548,14.417 13.525,14.787 13.754 M19.180 13.761 C 19.270 13.833,19.414 13.984,19.499 14.095 C 19.651 14.293,19.655 14.309,19.639 14.678 C 19.626 14.998,19.603 15.087,19.495 15.251 C 19.300 15.546,19.041 15.696,18.689 15.718 C 18.307 15.743,18.091 15.667,17.845 15.421 C 17.460 15.036,17.412 14.451,17.729 14.013 C 17.974 13.676,18.229 13.570,18.713 13.608 C 18.954 13.626,19.050 13.658,19.180 13.761 M5.203 20.764 C 5.152 20.785,4.879 21.017,4.597 21.280 C 3.728 22.087,3.318 22.332,2.634 22.451 C 1.970 22.566,1.675 23.129,2.033 23.598 C 2.324 23.979,2.694 24.020,3.500 23.759 C 4.028 23.588,4.496 23.321,5.052 22.872 L 5.461 22.543 5.905 22.890 C 6.708 23.518,7.264 23.789,7.967 23.897 C 8.818 24.027,9.729 23.691,10.748 22.870 L 11.159 22.539 11.494 22.812 C 12.366 23.522,12.947 23.806,13.695 23.890 C 14.590 23.991,15.356 23.708,16.402 22.890 L 16.847 22.542 17.291 22.890 C 17.856 23.331,18.311 23.597,18.783 23.762 C 19.106 23.874,19.228 23.892,19.683 23.893 C 20.094 23.893,20.274 23.872,20.500 23.796 C 20.961 23.642,21.566 23.301,22.036 22.931 C 22.275 22.742,22.498 22.588,22.532 22.588 C 22.566 22.587,22.713 22.689,22.859 22.814 C 23.448 23.320,24.116 23.683,24.767 23.849 C 25.207 23.962,25.403 23.962,25.649 23.851 C 26.035 23.675,26.224 23.240,26.054 22.917 C 25.916 22.654,25.674 22.494,25.344 22.447 C 24.774 22.367,24.206 22.023,23.380 21.257 C 22.864 20.778,22.770 20.720,22.517 20.720 C 22.261 20.720,22.171 20.779,21.583 21.326 C 20.388 22.439,19.839 22.638,19.035 22.250 C 18.584 22.033,18.338 21.851,17.738 21.291 C 17.165 20.756,17.109 20.720,16.838 20.720 C 16.573 20.720,16.455 20.798,15.839 21.380 C 15.222 21.964,14.834 22.229,14.404 22.360 C 14.015 22.480,13.776 22.457,13.354 22.259 C 12.958 22.074,12.692 21.874,12.002 21.245 C 11.453 20.745,11.416 20.720,11.223 20.720 C 10.912 20.720,10.822 20.773,10.280 21.282 C 9.689 21.836,9.145 22.213,8.740 22.349 C 8.369 22.474,8.240 22.472,7.866 22.336 C 7.390 22.163,7.093 21.957,6.434 21.344 C 6.028 20.966,5.776 20.767,5.682 20.748 C 5.497 20.711,5.318 20.717,5.203 20.764 " fill="#1A1C1F" stroke="none" fill-rule="evenodd"></path></svg>