<svg xmlns="http://www.w3.org/2000/svg" width="16" height="16" fill="none"><g clip-path="url(#a)"><path fill="#1A1C1F" fill-rule="evenodd" d="M10.4 2v1.205h.564c.65.054 1.262.55 1.428 1.123q.165.573.65 2.872H14.4v1.603l-.884-.003q-.18 1.791-.24 2.103c-.06.312-.234.72-.476.958V14h-2v-1.407a19.1 19.1 0 0 1-5.6 0V14h-2v-2.14c-.184-.177-.356-.492-.44-.803q-.084-.311-.277-2.257l-.883.003V7.2h1.357l.609-2.745c.19-.644.706-1.129 1.341-1.234a4.6 4.6 0 0 1 .693-.016V2zm-.8 6.92H6.4v1.36h3.2zm2.4 0h-1.6v1.36H12zm-6.4 0H4v1.36h1.6zm5.531-4.36H4.869L4.354 7.2h7.29z" clip-rule="evenodd"/></g><defs><clipPath id="a"><path fill="#fff" d="M0 0h16v16H0z"/></clipPath></defs></svg>