<svg xmlns="http://www.w3.org/2000/svg" width="12" height="12" fill="none"><g clip-path="url(#a)"><path fill="#1A1C1F" fill-rule="evenodd" d="M7.8 1.5v.904h.423c.488.04.947.413 1.07.842q.125.429.489 2.154H10.8v1.202l-.663-.002q-.135 1.343-.18 1.577c-.045.234-.175.54-.357.719V10.5H8.1V9.445a14.3 14.3 0 0 1-4.2 0V10.5H2.4V8.896a1.4 1.4 0 0 1-.33-.603Q2.007 8.06 1.862 6.6l-.662.002V5.4h1.018l.456-2.059c.143-.483.53-.846 1.006-.925a3.4 3.4 0 0 1 .52-.012V1.5zm-.6 5.19H4.8v1.02h2.4zm1.8 0H7.8v1.02H9zm-4.8 0H3v1.02h1.2zm4.148-3.27H3.652L3.266 5.4h5.468z" clip-rule="evenodd"/></g><defs><clipPath id="a"><path fill="#fff" d="M0 0h12v12H0z"/></clipPath></defs></svg>