<svg width="32" height="32" viewBox="0 0 32 32" fill="none" xmlns="http://www.w3.org/2000/svg"><path d="M13.006 3.033 C 12.677 3.064,12.561 3.100,12.400 3.223 C 12.173 3.397,12.003 3.728,12.001 4.002 C 11.999 4.281,12.205 4.641,12.471 4.826 L 12.703 4.987 15.965 4.987 C 19.169 4.987,19.230 4.985,19.440 4.875 C 19.557 4.814,19.725 4.662,19.813 4.537 C 19.947 4.348,19.973 4.259,19.973 4.000 C 19.973 3.741,19.947 3.651,19.812 3.458 C 19.511 3.025,19.646 3.042,16.342 3.017 C 14.731 3.004,13.230 3.012,13.006 3.033 M10.000 6.078 L 8.667 6.107 8.293 6.303 C 7.829 6.548,7.418 6.885,7.146 7.248 C 6.854 7.637,6.638 8.338,5.865 11.419 L 5.215 14.012 3.886 14.038 L 2.558 14.063 2.359 14.224 C 2.092 14.440,2.036 14.659,2.031 15.496 C 2.027 16.141,2.037 16.213,2.163 16.466 C 2.364 16.869,2.616 16.979,3.400 17.005 L 4.000 17.025 4.000 17.503 C 4.000 18.098,4.117 19.489,4.322 21.344 C 4.489 22.846,4.617 23.414,4.873 23.789 C 5.002 23.977,5.002 23.983,5.025 25.709 C 5.046 27.359,5.053 27.455,5.170 27.753 C 5.335 28.176,5.797 28.640,6.203 28.792 C 6.728 28.988,7.149 29.030,8.291 29.000 C 9.596 28.965,9.923 28.883,10.371 28.473 C 10.882 28.006,11.035 27.421,11.039 25.927 L 11.040 25.321 11.533 25.355 C 14.111 25.536,17.803 25.536,20.488 25.355 L 21.003 25.320 21.025 26.380 C 21.045 27.341,21.058 27.469,21.172 27.751 C 21.447 28.430,22.078 28.881,22.866 28.964 C 23.427 29.023,24.565 29.022,25.132 28.962 C 25.757 28.897,26.163 28.712,26.503 28.340 C 26.649 28.181,26.801 27.945,26.851 27.802 C 26.970 27.460,27.036 26.511,27.038 25.114 C 27.040 23.962,27.040 23.961,27.193 23.621 C 27.277 23.433,27.384 23.160,27.431 23.013 C 27.562 22.605,27.912 19.267,27.982 17.753 L 28.016 17.026 28.635 17.003 C 29.362 16.976,29.570 16.899,29.795 16.574 C 29.946 16.357,29.947 16.353,29.947 15.498 C 29.947 14.541,29.910 14.408,29.587 14.178 C 29.419 14.058,29.368 14.052,28.108 14.027 L 26.802 14.000 26.158 11.467 C 25.176 7.601,25.153 7.534,24.573 6.941 C 23.933 6.286,23.595 6.140,22.570 6.078 C 21.752 6.027,12.316 6.028,10.000 6.078 M22.892 8.117 C 23.135 8.227,23.269 8.435,23.440 8.972 C 23.655 9.649,24.707 13.924,24.668 13.964 C 24.602 14.029,7.307 14.036,7.307 13.970 C 7.307 13.887,8.289 10.024,8.512 9.233 C 8.741 8.417,8.777 8.348,9.071 8.157 L 9.307 8.004 16.000 8.015 C 22.155 8.026,22.709 8.034,22.892 8.117 M25.097 16.085 C 25.397 16.115,25.659 16.250,25.782 16.439 C 25.881 16.589,25.971 17.173,25.972 17.667 L 25.973 18.027 25.262 18.027 C 24.870 18.027,24.326 18.043,24.054 18.062 C 23.564 18.097,23.554 18.100,23.331 18.315 C 23.033 18.602,22.957 18.867,23.067 19.237 C 23.161 19.556,23.308 19.755,23.538 19.880 C 23.676 19.955,23.891 19.975,24.733 19.991 C 25.646 20.008,25.760 20.020,25.760 20.098 C 25.759 20.298,25.594 21.917,25.543 22.213 C 25.442 22.811,25.385 22.886,24.953 22.982 C 24.122 23.167,20.027 23.436,17.057 23.500 C 13.807 23.570,7.332 23.195,6.770 22.905 C 6.688 22.863,6.591 22.741,6.543 22.622 C 6.467 22.432,6.352 21.596,6.267 20.613 C 6.249 20.408,6.223 20.186,6.210 20.120 L 6.185 20.000 7.106 19.998 C 8.263 19.995,8.430 19.964,8.696 19.704 C 9.151 19.260,9.056 18.436,8.516 18.148 C 8.376 18.074,8.145 18.054,7.187 18.036 L 6.027 18.015 6.031 17.554 C 6.036 16.866,6.093 16.556,6.244 16.395 C 6.546 16.072,6.446 16.083,9.440 16.050 C 12.559 16.016,24.686 16.043,25.097 16.085 M12.576 19.034 L 11.579 19.067 11.385 19.253 C 11.117 19.511,11.040 19.682,11.042 20.011 C 11.044 20.394,11.229 20.698,11.575 20.886 C 11.752 20.982,11.946 20.987,16.000 20.987 C 20.197 20.987,20.242 20.986,20.453 20.875 C 20.571 20.814,20.739 20.662,20.827 20.537 C 20.960 20.348,20.987 20.259,20.987 20.000 C 20.987 19.741,20.960 19.652,20.827 19.463 C 20.520 19.028,20.718 19.050,16.933 19.024 C 15.085 19.012,13.125 19.016,12.576 19.034 M8.267 25.126 C 8.639 25.159,8.951 25.213,8.973 25.246 C 8.994 25.279,9.012 25.685,9.013 26.147 L 9.013 26.987 8.027 26.987 L 7.040 26.987 7.040 26.084 C 7.040 25.588,7.055 25.142,7.074 25.094 C 7.101 25.023,7.156 25.011,7.354 25.035 C 7.489 25.052,7.900 25.092,8.267 25.126 M25.013 26.000 L 25.013 26.987 24.027 26.987 L 23.040 26.987 23.041 26.147 C 23.041 25.685,23.061 25.277,23.084 25.240 C 23.123 25.179,24.238 25.037,24.813 25.019 L 25.013 25.013 25.013 26.000 " fill="#1A1C1F" stroke="none" fill-rule="evenodd"></path></svg>