<svg xmlns="http://www.w3.org/2000/svg" width="24" height="24" fill="none"><g clip-path="url(#a)"><path fill="#1A1C1F" fill-rule="evenodd" d="M16.807 5.075c.992 0 1.848.672 2.142 1.63l.99 4.219 1.413.001c.336 0 .641.265.641.546l.007.765c0 .334-.257.688-.589.688h-.894q.082.216.034.787l-.372 3.222a3 3 0 0 1-1.378 2.193l-.001 1.799a1 1 0 0 1-1 1h-.6a1 1 0 0 1-1-1v-1.237a37.4 37.4 0 0 1-8.401-.001l.001 1.238a1 1 0 0 1-1 1h-.6a1 1 0 0 1-1-1v-1.799c-.695-.439-1.244-1.196-1.35-1.996q-.105-.801-.4-3.418a2.5 2.5 0 0 1 .033-.787h-.835c-.37 0-.648-.321-.648-.69v-.666a.63.63 0 0 1 .648-.644l1.412-.001.947-4.056c.23-.989 1.105-1.793 2.186-1.793zm-6.424 8.857a1 1 0 0 0 0 1.986h3.234a1 1 0 0 0 0-1.986zm-4.5 0a1 1 0 0 0 0 1.986h1.234a1 1 0 0 0 0-1.986zm11 0a1 1 0 0 0 0 1.986h1.234a1 1 0 0 0 0-1.986zm-9.69-7.157c-.208 0-.406.144-.498.375l-.889 3.774h12.387l-.856-3.67c-.06-.255-.25-.479-.53-.479zM14 2.075a.85.85 0 0 1 0 1.7h-4a.85.85 0 0 1 0-1.7z" clip-rule="evenodd"/></g><defs><clipPath id="a"><path fill="#fff" d="M0 0h24v24H0z"/></clipPath></defs></svg>