<svg xmlns="http://www.w3.org/2000/svg" width="20" height="20" fill="none"><g clip-path="url(#a)"><path fill="#1A1C1F" fill-rule="evenodd" d="M13 2.5v1.506h.706c.813.068 1.577.688 1.784 1.404q.207.716.813 3.59H18v2.003L16.895 11q-.225 2.24-.3 2.629c-.075.39-.292.9-.595 1.197V17.5h-2.5v-1.759a23.9 23.9 0 0 1-7 0V17.5H4v-2.674c-.23-.223-.444-.616-.55-1.005q-.105-.387-.346-2.821L2 11.003V9h1.696l.761-3.432c.238-.805.882-1.41 1.677-1.541q.255-.038.866-.021V2.5zm-1 8.65H8v1.7h4zm3 0h-2v1.7h2zm-8 0H5v1.7h2zm6.914-5.45H6.086L5.443 9h9.113z" clip-rule="evenodd"/></g><defs><clipPath id="a"><path fill="#fff" d="M0 0h20v20H0z"/></clipPath></defs></svg>