<svg width="20" height="20" viewBox="0 0 20 20" fill="none" xmlns="http://www.w3.org/2000/svg"><path d="M7.000 3.245 L 7.000 3.990 6.582 4.012 C 6.050 4.041,5.876 4.078,5.567 4.227 C 5.251 4.379,4.804 4.812,4.640 5.123 C 4.528 5.336,4.336 6.098,3.880 8.142 L 3.688 9.000 2.844 9.000 L 2.000 9.000 2.000 10.000 L 2.000 11.000 2.550 11.000 C 2.930 11.000,3.100 11.011,3.100 11.037 C 3.100 11.128,3.308 12.951,3.353 13.250 C 3.456 13.940,3.592 14.315,3.866 14.662 L 4.000 14.831 4.000 16.166 L 4.000 17.500 5.250 17.500 L 6.500 17.500 6.500 16.614 C 6.500 15.766,6.503 15.730,6.562 15.749 C 6.596 15.759,6.953 15.806,7.354 15.852 C 8.919 16.030,11.081 16.030,12.646 15.852 C 13.047 15.806,13.404 15.759,13.438 15.749 C 13.497 15.730,13.500 15.766,13.500 16.614 L 13.500 17.500 14.750 17.500 L 16.000 17.500 16.000 16.168 L 16.000 14.837 16.163 14.621 C 16.413 14.291,16.549 13.904,16.648 13.244 C 16.686 12.993,16.900 11.098,16.900 11.016 C 16.900 11.007,17.147 11.000,17.450 11.000 L 18.000 11.000 18.000 10.000 L 18.000 9.000 17.150 9.000 C 16.683 9.000,16.300 8.992,16.300 8.982 C 16.300 8.867,15.657 6.040,15.530 5.600 C 15.384 5.088,15.325 4.985,14.986 4.649 C 14.510 4.176,14.200 4.051,13.410 4.011 L 13.000 3.990 13.000 3.245 L 13.000 2.500 10.000 2.500 L 7.000 2.500 7.000 3.245 M12.471 5.722 L 13.920 5.744 14.227 7.330 C 14.396 8.203,14.534 8.935,14.534 8.958 C 14.533 8.991,13.602 9.000,9.989 9.000 L 5.446 9.000 5.755 7.411 C 5.925 6.537,6.071 5.802,6.080 5.779 C 6.091 5.751,6.185 5.732,6.357 5.725 C 6.869 5.702,11.051 5.700,12.471 5.722 M7.000 12.017 L 7.000 12.867 6.000 12.867 L 5.000 12.867 5.000 12.017 L 5.000 11.167 6.000 11.167 L 7.000 11.167 7.000 12.017 M12.000 12.017 L 12.000 12.867 10.000 12.867 L 8.000 12.867 8.000 12.017 L 8.000 11.167 10.000 11.167 L 12.000 11.167 12.000 12.017 M15.000 12.017 L 15.000 12.867 14.000 12.867 L 13.000 12.867 13.000 12.017 L 13.000 11.167 14.000 11.167 L 15.000 11.167 15.000 12.017 " fill="#1A1C1F" stroke="none" fill-rule="evenodd"></path></svg>