<svg xmlns="http://www.w3.org/2000/svg" width="24" height="24" fill="none"><g clip-path="url(#a)"><path fill="#1A1C1F" fill-rule="evenodd" d="M16.507 5c1.062 0 1.977.72 2.288 1.745L19.793 11h1.559c.336 0 .597.227.641.546l.007.765c0 .334-.23.63-.55.681l-.933.009q.05.242.05.499 0 .172-.388 3.508A3 3 0 0 1 19 19.062L19 21a1 1 0 0 1-1 1h-1a1 1 0 0 1-1-1v-1.22a36.6 36.6 0 0 1-8 0V21a1 1 0 0 1-1 1H6a1 1 0 0 1-1-1v-1.937a3 3 0 0 1-1.147-1.847l-.403-3.43a2.5 2.5 0 0 1 .033-.785L2.648 13c-.37 0-.648-.321-.648-.69v-.666A.63.63 0 0 1 2.648 11h1.558l.955-4.091C5.407 5.854 6.331 5 7.493 5zM6 12.992c-.417.009-.59.306-.566.475l.053.533H6a1 1 0 1 1 0 2h-.282l.09.779a1 1 0 0 0 .786.864c.487.079 3.483.354 5.406.357s4.847-.284 5.29-.34a1 1 0 0 0 .882-.766L18.28 16H18a1 1 0 1 1 0-2h.512l.055-.5c.02-.205-.127-.508-.567-.5zM14 14a.997.997 0 1 1 0 1.993L10 16a1 1 0 0 1-1-1c0-.513.428-.993 1-.993zM7.493 7c-.143 0-.284.102-.355.272L6.259 11H17.74l-.849-3.637C16.846 7.17 16.733 7 16.507 7zM14 2a1 1 0 0 1 1 1c0 .513-.425 1-1 1h-4a1 1 0 0 1-1-1c0-.513.391-1 1-1z" clip-rule="evenodd"/></g><defs><clipPath id="a"><path fill="#fff" d="M0 0h24v24H0z"/></clipPath></defs></svg>