<svg width="20" height="20" viewBox="0 0 20 20" fill="none" xmlns="http://www.w3.org/2000/svg"><path d="M7.000 3.245 L 7.000 3.990 6.582 4.012 C 6.050 4.041,5.876 4.078,5.567 4.227 C 5.251 4.379,4.804 4.812,4.640 5.123 C 4.528 5.336,4.336 6.098,3.880 8.142 L 3.688 9.000 2.844 9.000 L 2.000 9.000 2.000 10.000 L 2.000 11.000 2.550 11.000 C 2.968 11.000,3.100 11.010,3.100 11.042 C 3.100 11.161,3.342 13.225,3.386 13.479 C 3.469 13.963,3.689 14.485,3.912 14.728 C 3.982 14.804,3.984 14.829,3.993 16.153 L 4.003 17.500 5.252 17.500 L 6.500 17.500 6.500 16.614 C 6.500 15.766,6.503 15.730,6.562 15.749 C 6.596 15.759,6.953 15.806,7.354 15.852 C 8.919 16.030,11.081 16.030,12.646 15.852 C 13.047 15.806,13.404 15.759,13.438 15.749 C 13.497 15.730,13.500 15.766,13.500 16.614 L 13.500 17.500 14.750 17.500 L 16.000 17.500 16.000 16.165 L 16.000 14.830 16.130 14.657 C 16.412 14.279,16.541 13.931,16.633 13.303 C 16.682 12.961,16.900 11.097,16.900 11.014 C 16.900 11.006,17.147 11.000,17.450 11.000 L 18.000 11.000 18.000 10.000 L 18.000 9.000 17.158 9.000 L 16.316 9.000 16.052 7.808 C 15.481 5.223,15.440 5.104,14.968 4.633 C 14.514 4.180,14.183 4.045,13.442 4.010 L 13.000 3.990 13.000 3.245 L 13.000 2.500 10.000 2.500 L 7.000 2.500 7.000 3.245 M12.471 5.722 L 13.920 5.744 14.227 7.330 C 14.396 8.203,14.534 8.935,14.534 8.958 C 14.533 8.991,13.602 9.000,9.989 9.000 L 5.446 9.000 5.755 7.411 C 5.925 6.537,6.071 5.802,6.080 5.779 C 6.091 5.751,6.185 5.732,6.357 5.725 C 6.869 5.702,11.051 5.700,12.471 5.722 M6.733 12.017 L 6.733 12.867 5.867 12.867 L 5.000 12.867 5.000 12.017 L 5.000 11.167 5.867 11.167 L 6.733 11.167 6.733 12.017 M12.000 12.017 L 12.000 12.867 10.000 12.867 L 8.000 12.867 8.000 12.017 L 8.000 11.167 10.000 11.167 L 12.000 11.167 12.000 12.017 M15.000 12.017 L 15.000 12.867 14.133 12.867 L 13.267 12.867 13.267 12.017 L 13.267 11.167 14.133 11.167 L 15.000 11.167 15.000 12.017 " fill="#1A1C1F" stroke="none" fill-rule="evenodd"></path></svg>