<svg width="14" height="14" viewBox="0 0 14 14" fill="none" xmlns="http://www.w3.org/2000/svg"><path d="M4.900 2.271 L 4.900 2.793 4.608 2.809 C 4.235 2.828,4.113 2.854,3.897 2.959 C 3.676 3.066,3.363 3.368,3.248 3.586 C 3.170 3.735,3.035 4.269,2.716 5.699 L 2.582 6.300 1.991 6.300 L 1.400 6.300 1.400 7.000 L 1.400 7.700 1.785 7.700 C 2.077 7.700,2.170 7.707,2.170 7.729 C 2.170 7.811,2.339 9.256,2.369 9.428 C 2.429 9.778,2.562 10.100,2.726 10.295 L 2.788 10.369 2.795 11.309 L 2.802 12.250 3.676 12.250 L 4.550 12.250 4.550 11.630 C 4.550 11.036,4.552 11.011,4.593 11.024 C 4.617 11.032,4.867 11.064,5.148 11.096 C 6.250 11.222,7.750 11.222,8.852 11.096 C 9.133 11.064,9.383 11.032,9.407 11.024 C 9.448 11.011,9.450 11.036,9.450 11.630 L 9.450 12.250 10.325 12.250 L 11.200 12.250 11.200 11.316 L 11.200 10.381 11.291 10.260 C 11.488 9.995,11.579 9.751,11.643 9.312 C 11.678 9.073,11.830 7.768,11.830 7.710 C 11.830 7.704,12.003 7.700,12.215 7.700 L 12.600 7.700 12.600 7.000 L 12.600 6.300 12.010 6.300 L 11.421 6.300 11.237 5.466 C 10.839 3.664,10.808 3.573,10.477 3.243 C 10.160 2.926,9.928 2.831,9.409 2.807 L 9.100 2.793 9.100 2.272 L 9.100 1.750 7.000 1.750 L 4.900 1.750 4.900 2.271 M8.660 4.005 L 9.743 4.021 9.959 5.131 C 10.077 5.742,10.174 6.255,10.174 6.271 C 10.173 6.294,9.521 6.300,6.993 6.300 L 3.812 6.300 4.029 5.186 C 4.148 4.573,4.251 4.059,4.257 4.044 C 4.264 4.025,4.337 4.012,4.461 4.007 C 4.847 3.992,7.602 3.990,8.660 4.005 M4.713 8.412 L 4.713 9.007 4.107 9.007 L 3.500 9.007 3.500 8.412 L 3.500 7.817 4.107 7.817 L 4.713 7.817 4.713 8.412 M8.400 8.412 L 8.400 9.007 7.000 9.007 L 5.600 9.007 5.600 8.412 L 5.600 7.817 7.000 7.817 L 8.400 7.817 8.400 8.412 M10.500 8.412 L 10.500 9.007 9.893 9.007 L 9.287 9.007 9.287 8.412 L 9.287 7.817 9.893 7.817 L 10.500 7.817 10.500 8.412 " fill="#1A1C1F" stroke="none" fill-rule="evenodd"></path></svg>