<svg xmlns="http://www.w3.org/2000/svg" width="32" height="32" fill="none"><path fill="#1A1C1F" fill-rule="evenodd" d="M12.674 3.064c-.678.245-.897 1.083-.417 1.596.079.084.239.198.356.252.2.093.41.099 3.334.1 1.985 0 3.192-.019 3.318-.054.396-.11.731-.542.734-.946.002-.35-.231-.73-.559-.91-.143-.079-.497-.09-3.36-.101-2.628-.01-3.237.002-3.406.063M8.827 6.087c-.434.102-1.002.433-1.366.796-.592.59-.641.726-1.497 4.144l-.75 2.995-1.318.015-1.318.016-.201.154c-.305.233-.35.397-.35 1.268 0 .649.015.79.106.978.205.424.525.56 1.315.56H4v.547c0 .825.41 4.944.542 5.439.06.227.189.545.287.708l.178.295.017 1.719c.017 1.665.022 1.729.145 2.036.165.413.53.804.93.994.476.226.909.276 2.157.25.94-.02 1.155-.04 1.451-.137.435-.142.744-.367.95-.692.27-.425.332-.737.368-1.845l.032-1.007.538.035c2.882.186 5.834.185 8.845-.001l.573-.036v.962c0 .808.017 1.017.106 1.303.203.66.619 1.083 1.281 1.305.253.085.471.099 1.6.099 1.199 0 1.337-.01 1.68-.118.457-.144.766-.364.977-.697.315-.495.34-.673.369-2.545l.025-1.707.179-.375c.099-.206.215-.53.258-.72.095-.415.447-4.021.494-5.061l.034-.74.645-.019c.736-.022.893-.083 1.14-.439.141-.203.146-.237.163-1.025.019-.928-.024-1.092-.354-1.344l-.188-.144-1.311-.026L26.8 14l-.762-3.013c-.532-2.103-.813-3.118-.929-3.359-.21-.433-.795-1.028-1.247-1.267-.668-.353-.238-.335-7.887-.329-4.096.003-7.022.026-7.148.055M22.86 8.102c.435.198.447.231 1.17 3.11.364 1.445.661 2.67.662 2.721.001.089-.448.094-8.699.094h-8.7l.035-.172c.018-.094.326-1.321.683-2.726.409-1.614.689-2.615.759-2.718.06-.09.216-.219.345-.287L9.35 8l6.645.001c6.375.001 6.654.005 6.865.101m2.473 7.999c.476.188.597.432.629 1.269l.026.651-1.172.016c-1.147.016-1.175.019-1.364.149a1.16 1.16 0 0 0-.434.659c-.051.218.097.678.273.847.284.272.461.308 1.507.308h.962v.147c0 .08-.049.634-.108 1.231-.116 1.172-.19 1.426-.45 1.545-.415.189-4.734.498-8.029.574-2.662.062-7.001-.141-9.839-.46-.813-.092-.848-.149-.989-1.586-.056-.578-.113-1.14-.125-1.248l-.022-.197 1.078-.016c1.039-.016 1.086-.021 1.266-.145.317-.217.443-.453.444-.83.001-.271-.025-.369-.146-.551-.266-.402-.403-.437-1.697-.437H6.016l.019-.68c.015-.566.037-.711.127-.865q.2-.341.704-.427c.14-.024 4.31-.04 9.267-.036 7.552.006 9.044.02 9.2.082m-13.642 2.945c-.264.077-.569.412-.643.706-.128.508.172 1.048.666 1.196.284.085 8.26.094 8.564.01.397-.11.731-.542.734-.946.002-.35-.231-.73-.559-.91-.144-.08-.563-.09-4.373-.098-2.574-.006-4.282.011-4.389.042M8 25.093c.484.044.91.079.947.08.05 0 .066.218.066.907v.907H7.04V26c0-.543.018-.986.04-.986s.436.036.92.079M25.013 26v.987H23.04v-.907c0-.687.016-.908.067-.911.036-.002.39-.035.786-.073s.81-.071.92-.075l.2-.008z"/></svg>