<svg width="28" height="28" viewBox="0 0 28 28" fill="none" xmlns="http://www.w3.org/2000/svg"><path d="M11.599 3.158 C 11.136 3.175,11.073 3.188,10.929 3.298 C 10.749 3.435,10.640 3.658,10.641 3.884 C 10.642 4.072,10.806 4.368,10.982 4.499 C 11.111 4.595,11.157 4.597,13.959 4.613 L 16.804 4.629 16.988 4.508 C 17.194 4.371,17.360 4.089,17.360 3.873 C 17.360 3.680,17.206 3.390,17.042 3.273 C 16.912 3.180,16.834 3.177,14.509 3.158 C 13.189 3.148,11.880 3.148,11.599 3.158 M9.707 5.785 C 7.601 5.814,7.640 5.809,7.142 6.100 C 6.866 6.261,6.367 6.740,6.227 6.978 C 6.091 7.209,5.755 8.416,5.159 10.809 L 4.705 12.634 3.471 12.657 L 2.237 12.680 2.064 12.819 C 1.818 13.019,1.767 13.234,1.783 14.000 C 1.799 14.754,1.866 14.933,2.197 15.118 C 2.379 15.220,2.473 15.236,2.993 15.252 L 3.583 15.271 3.611 15.440 C 3.626 15.534,3.639 15.747,3.639 15.915 C 3.640 16.239,3.826 18.354,3.948 19.413 C 4.042 20.238,4.129 20.641,4.277 20.946 C 4.426 21.254,4.843 21.685,5.164 21.864 L 5.405 21.999 5.422 23.098 C 5.435 24.017,5.451 24.220,5.517 24.341 C 5.618 24.528,5.892 24.769,6.056 24.814 C 6.126 24.834,6.561 24.850,7.023 24.850 C 7.804 24.850,7.879 24.842,8.080 24.743 C 8.209 24.680,8.350 24.559,8.430 24.444 L 8.563 24.251 8.580 23.276 L 8.596 22.300 8.766 22.326 C 9.914 22.503,14.682 22.602,16.847 22.493 C 17.966 22.437,19.115 22.358,19.280 22.326 L 19.404 22.301 19.422 23.249 C 19.442 24.300,19.458 24.365,19.762 24.632 C 19.853 24.713,19.986 24.795,20.056 24.814 C 20.126 24.834,20.561 24.850,21.023 24.850 C 21.804 24.850,21.879 24.842,22.080 24.743 C 22.209 24.680,22.350 24.559,22.430 24.444 L 22.563 24.251 22.579 23.096 L 22.595 21.941 22.737 21.882 C 22.962 21.789,23.313 21.490,23.522 21.213 C 23.825 20.812,23.920 20.464,24.054 19.271 C 24.211 17.871,24.359 16.119,24.360 15.650 L 24.360 15.271 25.006 15.253 C 25.612 15.236,25.664 15.227,25.839 15.112 C 26.155 14.903,26.203 14.743,26.203 13.907 C 26.203 13.100,26.170 12.979,25.890 12.779 C 25.742 12.674,25.699 12.670,24.526 12.647 L 23.314 12.623 22.725 10.313 C 22.006 7.497,21.956 7.317,21.800 7.024 C 21.546 6.545,20.867 6.010,20.300 5.843 C 20.107 5.786,12.653 5.745,9.707 5.785 M20.145 7.399 C 20.257 7.465,20.400 7.599,20.462 7.697 C 20.541 7.823,20.748 8.569,21.162 10.221 C 21.485 11.510,21.737 12.579,21.721 12.595 C 21.684 12.631,6.253 12.658,6.253 12.621 C 6.253 12.458,7.447 7.918,7.543 7.716 C 7.582 7.635,7.699 7.508,7.804 7.436 C 7.986 7.310,8.028 7.302,8.676 7.273 C 9.050 7.257,11.738 7.251,14.649 7.261 L 19.941 7.280 20.145 7.399 M8.136 16.191 C 8.629 16.305,8.882 16.969,8.610 17.434 C 8.546 17.543,8.415 17.681,8.319 17.741 C 8.151 17.845,8.098 17.851,7.119 17.865 C 6.432 17.875,6.029 17.862,5.898 17.825 C 5.559 17.730,5.273 17.336,5.273 16.963 C 5.273 16.623,5.560 16.251,5.867 16.192 C 6.122 16.142,7.924 16.141,8.136 16.191 M22.136 16.191 C 22.629 16.305,22.882 16.969,22.610 17.434 C 22.546 17.543,22.415 17.681,22.319 17.741 C 22.151 17.845,22.098 17.851,21.119 17.865 C 20.432 17.875,20.029 17.862,19.898 17.825 C 19.559 17.730,19.273 17.336,19.273 16.963 C 19.273 16.623,19.560 16.251,19.867 16.192 C 20.122 16.142,21.924 16.141,22.136 16.191 M17.010 17.107 C 17.113 17.161,17.260 17.294,17.337 17.403 C 17.454 17.569,17.477 17.646,17.477 17.873 C 17.477 18.100,17.454 18.178,17.337 18.343 C 17.260 18.452,17.113 18.586,17.010 18.639 C 16.829 18.734,16.752 18.737,14.373 18.752 C 11.552 18.769,11.130 18.751,10.910 18.603 C 10.653 18.430,10.541 18.181,10.558 17.822 C 10.570 17.570,10.596 17.482,10.701 17.344 C 10.772 17.251,10.877 17.149,10.934 17.118 C 11.120 17.016,11.705 16.996,14.280 17.003 C 16.762 17.010,16.828 17.012,17.010 17.107 " fill="#1A1C1F" stroke="none" fill-rule="evenodd"></path></svg>