<svg xmlns="http://www.w3.org/2000/svg" width="20" height="20" fill="none"><g clip-path="url(#a)"><path fill="#1A1C1F" fill-rule="evenodd" d="M13 2.5v1.506h.706c.813.068 1.493.627 1.784 1.404q.21.705.813 3.59H18v2.003L16.895 11a97 97 0 0 1-.3 2.629c-.075.39-.292.874-.595 1.196V17.5h-2.5v-1.759a23.9 23.9 0 0 1-7 0V17.5H4v-2.675c-.24-.212-.463-.688-.55-1.004q-.105-.365-.346-2.821L2 11.003V9h1.696l.761-3.432c.238-.805.882-1.41 1.677-1.541q.294-.038.866-.021V2.5zm2 8.65h-1.75v1.7H15zm-8.25 0H5v1.7h1.75zm5.25 0H8v1.7h4zm1.914-5.45H6.086L5.443 9h9.113z" clip-rule="evenodd"/></g><defs><clipPath id="a"><path fill="#fff" d="M0 0h20v20H0z"/></clipPath></defs></svg>