<svg width="28" height="28" viewBox="0 0 28 28" fill="none" xmlns="http://www.w3.org/2000/svg"><path d="M11.380 2.654 C 11.092 2.681,10.991 2.712,10.850 2.820 C 10.251 3.277,10.475 4.179,11.229 4.341 C 11.386 4.374,12.353 4.386,14.144 4.377 C 16.757 4.364,16.828 4.361,17.010 4.266 C 17.113 4.212,17.260 4.079,17.337 3.970 C 17.454 3.805,17.477 3.727,17.477 3.500 C 17.477 3.273,17.453 3.194,17.336 3.026 C 17.073 2.648,17.191 2.663,14.300 2.640 C 12.890 2.629,11.576 2.635,11.380 2.654 M8.750 5.318 L 7.583 5.343 7.257 5.515 C 6.850 5.729,6.491 6.025,6.253 6.342 C 5.996 6.684,5.805 7.304,5.132 9.992 L 4.564 12.260 3.399 12.284 L 2.235 12.308 2.062 12.447 C 1.831 12.635,1.781 12.828,1.777 13.559 C 1.774 14.123,1.782 14.186,1.893 14.408 C 2.068 14.760,2.289 14.856,2.975 14.879 L 3.500 14.897 3.500 15.315 C 3.500 16.267,3.865 19.737,4.018 20.236 C 4.071 20.412,4.175 20.662,4.247 20.790 L 4.378 21.023 4.397 22.517 C 4.420 24.288,4.437 24.363,4.900 24.827 C 5.375 25.301,5.850 25.412,7.255 25.375 C 8.397 25.345,8.682 25.272,9.075 24.914 C 9.522 24.505,9.656 23.994,9.659 22.686 L 9.660 22.155 10.115 22.186 C 12.459 22.346,15.395 22.346,17.904 22.186 L 18.378 22.156 18.397 23.083 C 18.414 23.924,18.426 24.035,18.526 24.282 C 18.770 24.887,19.323 25.276,20.033 25.344 C 21.086 25.445,22.241 25.370,22.681 25.172 C 23.027 25.017,23.383 24.648,23.495 24.327 C 23.599 24.027,23.657 23.198,23.659 21.975 C 23.660 20.967,23.660 20.966,23.794 20.668 C 23.867 20.504,23.961 20.265,24.002 20.137 C 24.117 19.779,24.423 16.859,24.484 15.534 L 24.514 14.898 25.055 14.878 C 25.691 14.854,25.874 14.786,26.071 14.502 C 26.203 14.312,26.203 14.309,26.203 13.561 C 26.203 12.723,26.172 12.607,25.889 12.405 C 25.742 12.300,25.697 12.296,24.594 12.273 L 23.452 12.250 22.889 10.033 C 22.219 7.398,22.023 6.729,21.843 6.468 C 21.622 6.147,21.080 5.669,20.754 5.509 C 20.473 5.370,20.404 5.357,19.734 5.318 C 18.983 5.274,10.767 5.274,8.750 5.318 M20.031 7.102 C 20.245 7.199,20.360 7.381,20.514 7.863 C 20.703 8.458,21.619 12.184,21.584 12.218 C 21.527 12.276,6.393 12.281,6.393 12.224 C 6.393 12.151,7.253 8.771,7.448 8.079 C 7.649 7.365,7.680 7.304,7.937 7.137 L 8.143 7.003 14.000 7.013 C 19.385 7.023,19.871 7.030,20.031 7.102 M21.960 14.074 C 22.222 14.101,22.451 14.219,22.560 14.384 C 22.645 14.515,22.724 15.025,22.726 15.451 L 22.727 15.759 21.698 15.785 C 20.685 15.811,20.668 15.813,20.513 15.931 C 20.143 16.214,20.051 16.602,20.257 17.013 C 20.471 17.440,20.647 17.497,21.758 17.499 C 22.471 17.500,22.540 17.507,22.540 17.582 C 22.539 17.766,22.394 19.178,22.346 19.460 C 22.260 19.969,22.189 20.045,21.723 20.133 C 21.014 20.266,18.253 20.454,15.719 20.541 C 13.416 20.620,10.419 20.522,7.607 20.276 C 5.986 20.134,5.847 20.099,5.725 19.794 C 5.659 19.628,5.558 18.896,5.484 18.037 C 5.468 17.857,5.445 17.663,5.433 17.605 L 5.412 17.500 6.217 17.498 C 7.227 17.495,7.376 17.468,7.607 17.243 C 7.910 16.947,7.955 16.504,7.719 16.136 C 7.519 15.825,7.429 15.803,6.288 15.782 L 5.273 15.763 5.277 15.360 C 5.282 14.758,5.332 14.487,5.463 14.346 C 5.728 14.063,5.638 14.072,8.283 14.045 C 11.056 14.016,21.603 14.038,21.960 14.074 M11.027 16.655 L 10.132 16.683 9.962 16.847 C 9.868 16.937,9.762 17.067,9.726 17.136 C 9.640 17.299,9.641 17.702,9.728 17.869 C 9.816 18.040,10.095 18.283,10.256 18.328 C 10.326 18.347,12.032 18.363,14.047 18.363 C 17.671 18.363,17.712 18.362,17.897 18.266 C 17.999 18.212,18.146 18.079,18.223 17.970 C 18.340 17.805,18.363 17.727,18.363 17.500 C 18.363 17.273,18.340 17.194,18.222 17.026 C 17.962 16.652,18.122 16.670,14.840 16.647 C 13.236 16.636,11.520 16.639,11.027 16.655 M7.233 21.985 C 7.559 22.014,7.832 22.061,7.851 22.090 C 7.870 22.120,7.886 22.474,7.886 22.878 L 7.887 23.613 7.023 23.613 L 6.160 23.613 6.160 22.824 C 6.160 22.390,6.173 22.000,6.190 21.957 C 6.214 21.895,6.261 21.885,6.435 21.906 C 6.553 21.920,6.913 21.956,7.233 21.985 M21.887 22.750 L 21.887 23.613 21.023 23.613 L 20.160 23.613 20.161 22.878 C 20.161 22.474,20.178 22.117,20.199 22.085 C 20.232 22.032,21.208 21.907,21.712 21.892 L 21.887 21.887 21.887 22.750 " fill="#1A1C1F" stroke="none" fill-rule="evenodd"></path></svg>