<svg xmlns="http://www.w3.org/2000/svg" width="28" height="28" fill="none"><g clip-path="url(#a)"><path fill="#1A1C1F" fill-rule="evenodd" d="M19.64 5.25c1.153 0 2.163.75 2.505 1.838l1.294 5.161 1.958.001c.448 0 .793.312.84.743l.006.977c0 .449-.313.844-.745.899l-1.01.005q.032.309-.058 1.533l-.3 3.127a3.1 3.1 0 0 1-.498 1.419v2.425c0 .488 0 1.933-1.823 1.994l-1.43.003c-1.892 0-1.981-1.436-1.995-1.823l-.004-1.407c-.406.026-2.187.166-4.374.166s-3.753-.125-4.373-.164l-.001 1.231c0 .488 0 1.933-1.823 1.994l-1.43.003c-1.871 0-1.981-1.436-1.994-1.823L4.382 21a2.86 2.86 0 0 1-.502-1.294l-.319-3.273q-.102-1.12-.066-1.56l-.892.002c-.484 0-.846-.422-.846-.905v-.875c0-.484.362-.845.846-.845h1.97l1.253-5.012A2.62 2.62 0 0 1 8.373 5.25zM6.132 21.88v1.746h1.75v-1.601zm15.75-.002-1.75.145.006 1.603h1.744zM6.63 14c-.863 0-1.166.168-1.29.506q-.135.405-.079 1.244h1.745c.483 0 .875.392.875.875 0 .449-.328.875-.875.875H5.422l.18 1.865c.046.479.189.689.461.754q4.044.441 7.937.442 3.894 0 7.908-.445c.266-.068.407-.245.465-.628l.194-1.988h-1.56a.875.875 0 1 1 .02-1.75h1.698q.036-.903-.083-1.229c-.118-.326-.392-.497-1.12-.519zm10.876 2.625a.875.875 0 0 1 0 1.75h-7a.875.875 0 1 1 0-1.75zM8.373 7a.875.875 0 0 0-.82.568L6.378 12.25h15.258L20.49 7.662a.875.875 0 0 0-.75-.657zm8.245-4.375a.875.875 0 1 1 0 1.75h-5.25a.875.875 0 0 1-.875-.875c0-.449.385-.875.875-.875z" clip-rule="evenodd"/></g><defs><clipPath id="a"><path fill="#fff" d="M0 0h28v28H0z"/></clipPath></defs></svg>