<svg width="12" height="12" viewBox="0 0 12 12" fill="none" xmlns="http://www.w3.org/2000/svg"><path d="M4.200 1.947 L 4.200 2.394 3.949 2.407 C 3.630 2.424,3.525 2.447,3.340 2.536 C 3.151 2.628,2.882 2.887,2.784 3.074 C 2.717 3.201,2.602 3.659,2.328 4.885 L 2.213 5.400 1.706 5.400 L 1.200 5.400 1.200 6.000 L 1.200 6.600 1.530 6.600 C 1.758 6.600,1.860 6.607,1.860 6.622 C 1.860 6.677,1.985 7.770,2.012 7.950 C 2.073 8.364,2.155 8.589,2.320 8.797 L 2.400 8.899 2.400 9.699 L 2.400 10.500 3.150 10.500 L 3.900 10.500 3.900 9.969 C 3.900 9.459,3.902 9.438,3.937 9.449 C 3.958 9.456,4.172 9.483,4.412 9.511 C 5.351 9.618,6.649 9.618,7.588 9.511 C 7.828 9.483,8.042 9.456,8.063 9.449 C 8.098 9.438,8.100 9.459,8.100 9.969 L 8.100 10.500 8.850 10.500 L 9.600 10.500 9.600 9.699 L 9.600 8.899 9.682 8.796 C 9.898 8.522,9.956 8.299,10.060 7.350 C 10.092 7.053,10.124 6.763,10.131 6.705 L 10.143 6.600 10.471 6.600 L 10.800 6.600 10.800 6.000 L 10.800 5.400 10.290 5.400 C 10.010 5.400,9.780 5.395,9.780 5.389 C 9.780 5.359,9.486 4.024,9.417 3.741 C 9.309 3.297,9.248 3.108,9.176 2.995 C 9.079 2.842,8.817 2.609,8.653 2.532 C 8.473 2.446,8.355 2.422,8.046 2.406 L 7.800 2.394 7.800 1.947 L 7.800 1.500 6.000 1.500 L 4.200 1.500 4.200 1.947 M7.471 3.433 L 8.352 3.446 8.536 4.398 C 8.638 4.922,8.721 5.361,8.721 5.375 C 8.720 5.396,8.191 5.400,6.012 5.395 C 4.522 5.392,3.297 5.384,3.289 5.376 C 3.274 5.361,3.634 3.479,3.657 3.456 C 3.664 3.448,3.742 3.439,3.830 3.435 C 4.143 3.421,6.605 3.420,7.471 3.433 M4.200 7.210 L 4.200 7.720 3.600 7.720 L 3.000 7.720 3.000 7.210 L 3.000 6.700 3.600 6.700 L 4.200 6.700 4.200 7.210 M7.200 7.210 L 7.200 7.720 6.000 7.720 L 4.800 7.720 4.800 7.210 L 4.800 6.700 6.000 6.700 L 7.200 6.700 7.200 7.210 M9.000 7.210 L 9.000 7.720 8.400 7.720 L 7.800 7.720 7.800 7.210 L 7.800 6.700 8.400 6.700 L 9.000 6.700 9.000 7.210 " fill="#1A1C1F" stroke="none" fill-rule="evenodd"></path></svg>