<svg width="12" height="12" viewBox="0 0 12 12" fill="none" xmlns="http://www.w3.org/2000/svg"><path d="M4.200 1.947 L 4.200 2.394 3.949 2.407 C 3.630 2.424,3.525 2.447,3.340 2.536 C 3.151 2.628,2.882 2.887,2.784 3.074 C 2.717 3.201,2.602 3.659,2.328 4.885 L 2.213 5.400 1.706 5.400 L 1.200 5.400 1.200 6.000 L 1.200 6.600 1.530 6.600 C 1.747 6.600,1.860 6.607,1.860 6.621 C 1.860 6.689,2.006 7.939,2.030 8.082 C 2.082 8.381,2.196 8.657,2.337 8.824 L 2.390 8.888 2.396 9.694 L 2.402 10.500 3.151 10.500 L 3.900 10.500 3.900 9.969 C 3.900 9.459,3.902 9.438,3.937 9.449 C 3.958 9.456,4.172 9.483,4.412 9.511 C 5.351 9.618,6.649 9.618,7.588 9.511 C 7.828 9.483,8.042 9.456,8.063 9.449 C 8.098 9.438,8.100 9.459,8.100 9.969 L 8.100 10.500 8.850 10.500 L 9.600 10.500 9.600 9.699 L 9.600 8.898 9.678 8.794 C 9.847 8.567,9.925 8.358,9.980 7.982 C 10.009 7.776,10.140 6.658,10.140 6.608 C 10.140 6.604,10.288 6.600,10.470 6.600 L 10.800 6.600 10.800 6.000 L 10.800 5.400 10.291 5.400 L 9.783 5.400 9.760 5.285 C 9.613 4.550,9.360 3.482,9.272 3.223 C 9.154 2.873,8.823 2.566,8.440 2.451 C 8.376 2.431,8.220 2.413,8.065 2.406 L 7.800 2.394 7.800 1.947 L 7.800 1.500 6.000 1.500 L 4.200 1.500 4.200 1.947 M7.471 3.433 L 8.352 3.446 8.536 4.398 C 8.638 4.922,8.721 5.361,8.721 5.375 C 8.720 5.396,8.191 5.400,6.012 5.395 C 4.522 5.392,3.297 5.384,3.289 5.376 C 3.274 5.361,3.634 3.479,3.657 3.456 C 3.664 3.448,3.742 3.439,3.830 3.435 C 4.143 3.421,6.605 3.420,7.471 3.433 M4.040 7.210 L 4.040 7.720 3.520 7.720 L 3.000 7.720 3.000 7.210 L 3.000 6.700 3.520 6.700 L 4.040 6.700 4.040 7.210 M7.200 7.210 L 7.200 7.720 6.000 7.720 L 4.800 7.720 4.800 7.210 L 4.800 6.700 6.000 6.700 L 7.200 6.700 7.200 7.210 M9.000 7.210 L 9.000 7.720 8.480 7.720 L 7.960 7.720 7.960 7.210 L 7.960 6.700 8.480 6.700 L 9.000 6.700 9.000 7.210 " fill="#1A1C1F" stroke="none" fill-rule="evenodd"></path></svg>