<svg xmlns="http://www.w3.org/2000/svg" width="32" height="32" fill="none"><g clip-path="url(#a)"><path fill="#1A1C1F" fill-rule="evenodd" d="M22.446 6.575a2.85 2.85 0 0 1 2.717 1.988l1.471 5.862h2.391a.94.94 0 0 1 .96.85l.007 1.116c0 .513-.373 1.034-.967 1.033h-1.19q.05.474-.065 1.753l-.343 3.558c-.11 1.148-.667 1.99-1.619 2.364v2.044c0 .446 0 1.282-1.282 1.282H23.49c-1.283 0-1.282-.836-1.282-1.282V25.5a70 70 0 0 1-12.4 0v1.644c0 .446 0 1.282-1.282 1.282H7.49c-1.282 0-1.282-.836-1.282-1.282l-.001-2.013c-.897-.325-1.463-1.114-1.622-2.19l-.358-3.663q-.13-1.42-.077-1.853l-1.175.001c-.553 0-.967-.482-.967-1.034v-1c0-.553.414-.966.967-.966h2.406l1.423-5.691A2.86 2.86 0 0 1 9.57 6.575zm-9.555 12.857a1 1 0 0 0 0 1.986h6.233a1 1 0 0 0 0-1.986zm-6-1a1 1 0 0 0 0 1.986h2.233a1 1 0 0 0 0-1.986zm16 0a1 1 0 0 0 0 1.986h2.233a1 1 0 0 0 0-1.986zM9.57 8.275a1.15 1.15 0 0 0-1.08.756l-1.356 5.394h17.748l-1.32-5.279a1.155 1.155 0 0 0-1.115-.871zm9.423-4.7c.47 0 .85.38.85.85 0 .433-.36.85-.834.85h-6.016a.85.85 0 1 1 .016-1.7z" clip-rule="evenodd"/></g><defs><clipPath id="a"><path fill="#fff" d="M0 0h32v32H0z"/></clipPath></defs></svg>