<svg width="16" height="16" viewBox="0 0 16 16" fill="none" xmlns="http://www.w3.org/2000/svg"><path d="M5.600 2.596 L 5.600 3.192 5.266 3.210 C 4.840 3.232,4.701 3.262,4.453 3.381 C 4.200 3.504,3.843 3.849,3.711 4.100 C 3.620 4.274,3.484 4.810,3.119 6.447 L 2.951 7.200 2.275 7.200 L 1.600 7.200 1.600 8.000 L 1.600 8.800 2.040 8.800 C 2.374 8.800,2.480 8.808,2.480 8.833 C 2.480 8.927,2.673 10.578,2.707 10.775 C 2.776 11.175,2.928 11.543,3.116 11.766 L 3.187 11.850 3.195 12.925 L 3.203 14.000 4.201 14.000 L 5.200 14.000 5.200 13.292 C 5.200 12.612,5.202 12.584,5.250 12.599 C 5.277 12.608,5.562 12.645,5.883 12.681 C 7.135 12.824,8.865 12.824,10.117 12.681 C 10.438 12.645,10.723 12.608,10.750 12.599 C 10.798 12.584,10.800 12.612,10.800 13.292 L 10.800 14.000 11.800 14.000 L 12.800 14.000 12.800 12.932 L 12.800 11.864 12.904 11.726 C 13.130 11.423,13.233 11.144,13.306 10.642 C 13.346 10.369,13.520 8.878,13.520 8.811 C 13.520 8.805,13.718 8.800,13.960 8.800 L 14.400 8.800 14.400 8.000 L 14.400 7.200 13.726 7.200 L 13.052 7.200 12.842 6.247 C 12.385 4.177,12.354 4.085,11.974 3.706 C 11.611 3.344,11.346 3.236,10.753 3.208 L 10.400 3.192 10.400 2.596 L 10.400 2.000 8.000 2.000 L 5.600 2.000 5.600 2.596 M9.977 4.578 L 11.136 4.595 11.382 5.864 C 11.517 6.562,11.628 7.148,11.627 7.167 C 11.627 7.193,10.881 7.200,7.991 7.200 L 4.356 7.200 4.604 5.929 C 4.740 5.229,4.857 4.642,4.864 4.623 C 4.873 4.600,4.950 4.586,5.099 4.580 C 5.539 4.562,8.845 4.560,9.977 4.578 M5.387 9.613 L 5.387 10.293 4.693 10.293 L 4.000 10.293 4.000 9.613 L 4.000 8.933 4.693 8.933 L 5.387 8.933 5.387 9.613 M9.600 9.613 L 9.600 10.293 8.000 10.293 L 6.400 10.293 6.400 9.613 L 6.400 8.933 8.000 8.933 L 9.600 8.933 9.600 9.613 M12.000 9.613 L 12.000 10.293 11.307 10.293 L 10.613 10.293 10.613 9.613 L 10.613 8.933 11.307 8.933 L 12.000 8.933 12.000 9.613 " fill="#1A1C1F" stroke="none" fill-rule="evenodd"></path></svg>