<svg width="24" height="24" viewBox="0 0 24 24" fill="none" xmlns="http://www.w3.org/2000/svg"><path d="M9.940 2.037 C 9.786 2.053,9.612 2.085,9.554 2.110 C 9.418 2.168,9.181 2.404,9.093 2.571 C 9.007 2.732,8.998 3.252,9.078 3.400 C 9.195 3.618,9.371 3.798,9.551 3.887 L 9.740 3.980 11.940 3.980 C 13.150 3.980,14.209 3.965,14.294 3.948 C 14.479 3.908,14.771 3.651,14.892 3.422 C 15.004 3.207,15.011 2.802,14.906 2.590 C 14.801 2.381,14.539 2.130,14.366 2.075 C 14.201 2.021,10.422 1.990,9.940 2.037 M7.740 5.037 C 7.003 5.061,6.874 5.075,6.687 5.153 C 6.363 5.287,6.062 5.495,5.788 5.773 C 5.335 6.234,5.286 6.376,4.660 9.047 C 4.427 10.044,4.227 10.892,4.215 10.930 C 4.197 10.993,4.129 11.000,3.567 11.003 C 2.593 11.007,2.348 11.038,2.204 11.176 C 2.053 11.321,2.000 11.556,2.000 12.076 C 2.000 12.409,2.014 12.494,2.093 12.643 C 2.240 12.922,2.375 12.978,2.944 12.994 L 3.428 13.008 3.453 13.494 C 3.499 14.387,3.789 16.908,3.903 17.399 C 4.021 17.908,4.408 18.549,4.813 18.905 L 4.993 19.064 5.007 20.182 C 5.018 21.143,5.030 21.317,5.088 21.425 C 5.194 21.618,5.546 21.913,5.713 21.949 C 5.959 22.001,7.202 21.986,7.363 21.929 C 7.544 21.865,7.830 21.592,7.913 21.404 C 7.961 21.296,7.980 21.087,7.992 20.560 C 8.000 20.175,8.021 19.846,8.037 19.828 C 8.054 19.810,8.390 19.824,8.784 19.858 C 10.971 20.046,13.029 20.046,15.215 19.858 C 15.608 19.824,15.941 19.808,15.955 19.821 C 15.969 19.835,15.990 20.174,16.002 20.575 C 16.022 21.275,16.027 21.311,16.131 21.488 C 16.380 21.913,16.569 21.980,17.520 21.980 C 18.321 21.980,18.434 21.954,18.681 21.714 C 18.968 21.436,18.976 21.396,18.992 20.182 L 19.007 19.103 19.229 18.863 C 19.732 18.320,19.968 17.921,20.095 17.400 C 20.227 16.860,20.523 14.193,20.534 13.454 L 20.540 13.008 21.040 12.994 C 21.627 12.978,21.753 12.926,21.905 12.641 C 21.986 12.487,22.000 12.405,22.000 12.073 C 22.000 11.556,21.947 11.320,21.796 11.176 C 21.652 11.038,21.407 11.007,20.433 11.003 C 19.872 11.000,19.803 10.993,19.784 10.930 C 19.772 10.892,19.617 10.239,19.439 9.480 C 18.898 7.173,18.726 6.523,18.587 6.262 C 18.406 5.921,17.967 5.493,17.604 5.304 C 17.054 5.017,17.347 5.034,12.740 5.021 C 10.452 5.015,8.202 5.022,7.740 5.037 M16.758 7.108 C 16.836 7.204,17.328 9.168,17.701 10.867 C 17.719 10.947,17.701 10.955,17.430 10.979 C 17.078 11.010,6.336 10.989,6.304 10.957 C 6.260 10.913,7.136 7.248,7.217 7.137 C 7.302 7.021,7.791 7.009,12.394 7.015 L 16.687 7.020 16.758 7.108 M17.907 13.034 C 18.257 13.056,18.328 13.073,18.412 13.153 C 18.535 13.269,18.568 13.424,18.535 13.742 L 18.510 13.990 18.125 14.009 C 17.843 14.022,17.697 14.050,17.579 14.110 C 17.004 14.404,16.832 15.115,17.215 15.617 C 17.368 15.818,17.687 15.968,18.008 15.991 L 18.283 16.011 18.257 16.195 C 18.187 16.694,18.122 17.004,18.059 17.137 C 17.972 17.321,17.727 17.532,17.531 17.593 C 17.169 17.706,15.269 17.877,13.420 17.964 C 11.846 18.037,9.949 17.974,7.800 17.777 C 6.956 17.700,6.538 17.631,6.343 17.539 C 6.033 17.392,5.850 17.052,5.782 16.500 C 5.769 16.390,5.748 16.233,5.735 16.150 L 5.713 16.000 5.909 16.000 C 6.413 16.000,6.819 15.722,6.944 15.291 C 7.050 14.927,6.968 14.586,6.710 14.322 C 6.494 14.101,6.304 14.030,5.875 14.009 L 5.491 13.990 5.467 13.733 C 5.418 13.207,5.543 13.053,6.041 13.030 C 6.591 13.004,17.495 13.008,17.907 13.034 M10.100 14.035 C 9.739 14.056,9.634 14.076,9.513 14.152 C 9.168 14.366,8.971 14.733,9.013 15.085 C 9.044 15.349,9.227 15.671,9.425 15.811 C 9.678 15.991,9.916 16.006,12.187 15.993 C 14.518 15.978,14.411 15.992,14.704 15.674 C 15.101 15.241,15.091 14.709,14.678 14.283 C 14.594 14.196,14.456 14.103,14.373 14.077 C 14.203 14.023,10.887 13.991,10.100 14.035 " fill="#1A1C1F" stroke="none" fill-rule="evenodd"></path></svg>