<svg xmlns="http://www.w3.org/2000/svg" width="14" height="14" fill="none"><g clip-path="url(#a)"><path fill="#1A1C1F" fill-rule="evenodd" d="M9.1 1.75v1.054h.494c.57.048 1.045.439 1.249.983q.147.495.57 2.513H12.6v1.402l-.774-.002a68 68 0 0 1-.21 1.84 1.8 1.8 0 0 1-.416.838v1.872H9.45v-1.231a16.7 16.7 0 0 1-4.9 0v1.231H2.8v-1.873c-.168-.148-.324-.481-.385-.702q-.074-.256-.242-1.975l-.773.002V6.3h1.187l.533-2.402c.167-.564.618-.987 1.174-1.08q.206-.026.606-.014V1.75zm1.4 6.055H9.275v1.19H10.5zm-5.775 0H3.5v1.19h1.225zm3.675 0H5.6v1.19h2.8zM9.74 3.99H4.26L3.81 6.3h6.38z" clip-rule="evenodd"/></g><defs><clipPath id="a"><path fill="#fff" d="M0 0h14v14H0z"/></clipPath></defs></svg>