<svg xmlns="http://www.w3.org/2000/svg" width="28" height="28" fill="none"><g clip-path="url(#a)"><path fill="#1A1C1F" fill-rule="evenodd" d="M19.64 5.753c1.093 0 2.051.71 2.377 1.74l1.288 5.129h2.092c.448 0 .794.311.84.743l.006.977c0 .449-.327.905-.846.904h-1.042q.046.415-.056 1.534l-.3 3.113c-.097 1.004-.584 1.74-1.417 2.069v1.788c0 .39 0 1.122-1.122 1.122h-.907c-1.122 0-1.121-.732-1.121-1.122v-1.438a61.3 61.3 0 0 1-10.85 0v1.438c0 .39 0 1.122-1.122 1.122h-.906c-1.122 0-1.122-.732-1.122-1.122l-.001-1.76c-.785-.286-1.28-.976-1.419-1.918l-.314-3.205q-.112-1.242-.067-1.621H2.603c-.484 0-.846-.42-.846-.904v-.875c0-.484.362-.845.846-.845h2.105l1.246-4.98a2.5 2.5 0 0 1 2.42-1.889zm-8.36 11.25a.875.875 0 0 0 0 1.738h5.454a.875.875 0 0 0 0-1.738zm-5.25-.875a.875.875 0 0 0 0 1.738h1.954a.875.875 0 0 0 0-1.738zm14 0a.875.875 0 0 0 0 1.738h1.954a.875.875 0 0 0 0-1.738zM8.373 7.24c-.426 0-.802.267-.945.66l-1.187 4.72h15.53l-1.154-4.618a1.01 1.01 0 0 0-.977-.762zm8.245-4.113a.744.744 0 0 1 .014 1.488h-5.264a.744.744 0 1 1 .014-1.488z" clip-rule="evenodd"/></g><defs><clipPath id="a"><path fill="#fff" d="M0 0h28v28H0z"/></clipPath></defs></svg>