<svg xmlns="http://www.w3.org/2000/svg" width="12" height="12" fill="none"><g clip-path="url(#a)"><path fill="#1A1C1F" fill-rule="evenodd" d="M7.8 1.5v.904h.423c.488.04.896.376 1.07.842q.128.423.489 2.154H10.8v1.202l-.663-.002a59 59 0 0 1-.18 1.577 1.55 1.55 0 0 1-.357.718V10.5H8.1V9.445a14.3 14.3 0 0 1-4.2 0V10.5H2.4V8.895c-.144-.127-.278-.413-.33-.602q-.062-.219-.208-1.693l-.662.002V5.4h1.018l.456-2.059c.143-.483.53-.846 1.006-.925a4 4 0 0 1 .52-.012V1.5zM9 6.69H7.95v1.02H9zm-4.95 0H3v1.02h1.05zm3.15 0H4.8v1.02h2.4zm1.148-3.27H3.652L3.266 5.4h5.468z" clip-rule="evenodd"/></g><defs><clipPath id="a"><path fill="#fff" d="M0 0h12v12H0z"/></clipPath></defs></svg>