<svg xmlns="http://www.w3.org/2000/svg" width="32" height="32" fill="none"><g clip-path="url(#a)"><path fill="#1A1C1F" fill-rule="evenodd" d="M22.446 6a3 3 0 0 1 2.862 2.1L26.788 14l2.237.001a.94.94 0 0 1 .96.85l.007 1.116c0 .513-.358.965-.851 1.027l-1.154.006q.036.353-.067 1.752l-.343 3.573q-.09.899-.57 1.622v2.772c0 .558 0 2.209-2.082 2.279L23.29 29c-2.162 0-2.264-1.64-2.28-2.083l-.004-1.608c-.464.029-2.5.189-4.999.19-2.499 0-4.29-.144-4.998-.188l-.001 1.407c0 .558 0 2.209-2.083 2.279L7.29 29c-2.138 0-2.264-1.64-2.28-2.083L5.009 24c-.296-.406-.491-.905-.574-1.48l-.364-3.739Q3.953 17.5 3.995 17L2.975 17c-.553 0-.967-.482-.967-1.034v-1c0-.553.414-.966.967-.966h2.251L6.66 8.272A2.99 2.99 0 0 1 9.569 6zM7.008 25.004V27h2v-1.83zm18-.002-2 .166.007 1.832h1.993zM7.577 16c-.986 0-1.332.192-1.473.578q-.156.464-.09 1.422h1.993a1 1 0 0 1 1 1c0 .513-.375 1-1 1H6.196l.206 2.132c.053.547.216.786.527.86a84 84 0 0 0 9.071.506q4.45.002 9.038-.508c.304-.078.465-.28.53-.718L25.792 20h-1.783a1 1 0 1 1 .023-2h1.94q.041-1.032-.094-1.405c-.136-.372-.448-.568-1.281-.592zm12.43 3a1 1 0 0 1 0 2h-8a1 1 0 0 1-1-1c0-.513.424-1.007 1-1zM9.569 8a1 1 0 0 0-.936.65L7.288 14l17.438-.001-1.31-5.241a1 1 0 0 0-.856-.751zm9.423-5a1 1 0 0 1 0 2h-6a1 1 0 0 1-1-1c0-.513.44-1 1-1z" clip-rule="evenodd"/></g><defs><clipPath id="a"><path fill="#fff" d="M0 0h32v32H0z"/></clipPath></defs></svg>