<svg xmlns="http://www.w3.org/2000/svg" width="32" height="32" fill="none"><path fill="#1A1C1F" fill-rule="evenodd" d="M12.693 3.633a1 1 0 0 0-.258.17c-.412.385-.36.987.116 1.339.149.11.185.111 3.444.111h3.293l.202-.153c.465-.355.465-.992 0-1.346l-.202-.154-3.23-.011c-2.074-.006-3.279.009-3.365.044M9.12 6.617c-.8.105-1.715.766-2.076 1.501-.126.255-.373 1.149-.921 3.339l-.749 2.991-1.398.016-1.398.016-.201.154c-.305.232-.35.397-.35 1.267 0 .649.015.79.106.979.21.433.522.56 1.382.56l.618.001.013.573c.007.315.111 1.593.231 2.839.236 2.452.3 2.78.646 3.32.201.316.611.689.92.839l.235.113.018 1.264c.017 1.235.02 1.27.151 1.504a.97.97 0 0 0 .374.373c.223.124.298.135 1.118.153 1.078.024 1.363-.029 1.651-.303.121-.116.229-.283.264-.409.033-.121.059-.65.059-1.217v-1.003l.227.029c1.648.211 6.49.313 9.08.191 1.183-.055 2.535-.144 2.862-.187l.195-.026.018 1.079c.018 1.038.024 1.09.152 1.32a.97.97 0 0 0 .374.373c.223.124.298.135 1.118.153 1.078.024 1.363-.029 1.651-.303.121-.116.229-.283.264-.409.034-.125.06-.71.061-1.414l.002-1.2.265-.128c.341-.166.872-.72 1.037-1.082.072-.156.166-.427.211-.603.105-.411.51-4.635.51-5.314v-.516l.737-.018c.696-.018.75-.027.954-.162.367-.243.442-.476.442-1.372 0-.864-.048-1.034-.363-1.274l-.188-.144-1.391-.027-1.391-.026-.752-2.987c-.486-1.935-.804-3.094-.9-3.291-.313-.637-.971-1.203-1.677-1.443l-.351-.119-6.747-.008c-3.71-.004-6.902.013-7.093.038m13.84 1.791c.267.144.425.311.529.561.072.171 1.364 5.325 1.364 5.439 0 .025-3.984.045-8.853.045s-8.853-.012-8.853-.027c0-.149 1.362-5.42 1.44-5.573.115-.226.34-.407.634-.513.154-.056 1.501-.067 6.859-.058l6.667.011zM9.505 18.573c.375.211.573.733.442 1.164a1.08 1.08 0 0 1-.527.588c-.194.087-.363.099-1.416.1-1.116.002-1.213-.006-1.433-.113-.567-.274-.731-1.077-.314-1.532.293-.32.324-.326 1.736-.326 1.247-.001 1.308.004 1.512.119m16 0c.375.211.573.733.442 1.164a1.08 1.08 0 0 1-.527.588c-.194.087-.363.099-1.416.1-1.116.002-1.213-.006-1.433-.113-.567-.274-.731-1.077-.314-1.532.293-.32.324-.326 1.736-.326 1.247-.001 1.308.004 1.512.119m-6.24.896c.407.113.735.541.735.958s-.328.844-.735.957c-.282.079-6.261.075-6.544-.003-.717-.2-.939-1.175-.384-1.692.286-.268.322-.271 3.636-.273 1.971-.001 3.166.018 3.292.053"/></svg>