<svg xmlns="http://www.w3.org/2000/svg" width="16" height="16" fill="none"><g clip-path="url(#a)"><path fill="#1A1C1F" fill-rule="evenodd" d="M10.4 2v1.205h.564c.65.054 1.195.501 1.428 1.123q.168.564.65 2.872H14.4v1.603l-.884-.003a78 78 0 0 1-.24 2.103c-.06.312-.234.7-.476.957V14h-2v-1.407a19.1 19.1 0 0 1-5.6 0V14h-2v-2.14c-.192-.17-.37-.55-.44-.803q-.084-.292-.277-2.257l-.883.003V7.2h1.357l.609-2.745c.19-.644.706-1.129 1.341-1.234q.236-.03.693-.016V2zM12 8.92h-1.4v1.36H12zm-6.6 0H4v1.36h1.4zm4.2 0H6.4v1.36h3.2zm1.531-4.36H4.869L4.354 7.2h7.29z" clip-rule="evenodd"/></g><defs><clipPath id="a"><path fill="#fff" d="M0 0h16v16H0z"/></clipPath></defs></svg>