<svg width="32" height="32" viewBox="0 0 32 32" fill="none" xmlns="http://www.w3.org/2000/svg"><path d="M12.747 2.162 C 10.977 2.484,9.525 3.343,8.416 4.724 C 7.136 6.319,6.356 8.286,6.124 10.507 C 6.076 10.972,6.055 12.099,6.054 14.240 C 6.053 16.901,6.066 17.409,6.151 18.080 C 6.353 19.674,6.654 21.149,7.202 23.224 C 7.744 25.275,8.006 25.897,8.747 26.893 C 9.306 27.644,9.886 28.176,10.498 28.497 C 10.928 28.723,10.987 28.771,10.987 28.897 C 10.988 29.313,11.249 29.727,11.633 29.923 C 11.829 30.023,11.983 30.027,16.000 30.027 C 19.993 30.027,20.172 30.022,20.362 29.925 C 20.747 29.727,21.013 29.324,21.013 28.939 C 21.013 28.762,21.030 28.746,21.406 28.565 C 22.174 28.196,22.870 27.526,23.517 26.533 C 24.099 25.640,24.375 24.886,24.928 22.680 C 25.552 20.189,25.798 18.801,25.925 17.067 C 25.999 16.040,25.959 11.286,25.869 10.427 C 25.729 9.101,25.331 7.735,24.745 6.566 C 23.486 4.054,21.812 2.665,19.468 2.187 C 18.979 2.087,18.747 2.080,16.045 2.085 C 13.845 2.088,13.050 2.107,12.747 2.162 M18.957 4.132 C 20.505 4.410,21.443 5.066,22.456 6.583 C 23.234 7.747,23.700 9.068,23.842 10.507 C 23.931 11.407,23.972 16.263,23.898 17.227 C 23.800 18.525,23.498 20.374,23.333 20.693 C 23.224 20.902,23.060 21.026,22.373 21.416 C 22.021 21.616,21.308 22.039,20.787 22.356 C 18.872 23.522,18.990 23.492,16.320 23.490 C 14.305 23.488,13.445 23.435,12.921 23.279 C 12.779 23.237,12.003 22.810,11.198 22.331 C 10.392 21.852,9.492 21.325,9.198 21.160 L 8.662 20.860 8.488 19.956 C 8.077 17.820,7.970 16.160,8.052 13.223 C 8.111 11.152,8.174 10.188,8.293 9.565 C 8.555 8.198,9.447 6.470,10.388 5.506 C 11.021 4.859,11.891 4.397,12.933 4.155 C 13.398 4.047,14.475 4.009,16.507 4.028 C 18.017 4.042,18.592 4.066,18.957 4.132 M14.747 6.077 C 12.486 6.257,10.729 7.291,10.230 8.737 C 10.125 9.039,10.107 9.195,10.111 9.760 C 10.118 10.868,10.491 12.629,10.843 13.220 C 11.058 13.581,11.482 14.017,11.799 14.202 C 12.147 14.406,12.864 14.633,13.761 14.823 C 14.459 14.970,14.629 14.987,15.468 14.986 C 17.739 14.984,19.409 14.703,20.212 14.188 C 20.570 13.958,21.078 13.404,21.247 13.058 C 21.565 12.408,21.881 10.728,21.888 9.653 C 21.892 8.982,21.883 8.910,21.746 8.586 C 21.360 7.674,20.319 6.837,19.056 6.425 C 18.300 6.178,17.562 6.076,16.373 6.055 C 15.772 6.044,15.040 6.054,14.747 6.077 M18.092 8.230 C 19.045 8.481,19.644 8.855,19.816 9.307 C 19.922 9.584,19.904 9.928,19.731 10.966 C 19.576 11.891,19.490 12.149,19.260 12.379 C 19.039 12.600,18.882 12.653,18.004 12.804 C 16.931 12.988,16.131 13.036,15.347 12.965 C 14.446 12.883,13.167 12.667,12.967 12.564 C 12.575 12.361,12.457 12.075,12.241 10.810 C 12.025 9.539,12.065 9.237,12.501 8.884 C 12.915 8.548,13.435 8.329,14.230 8.155 C 14.636 8.067,14.871 8.057,16.133 8.074 C 17.472 8.092,17.610 8.103,18.092 8.230 M11.371 17.020 C 10.966 17.137,10.612 17.701,10.695 18.098 C 10.776 18.484,11.701 21.189,11.807 21.348 C 12.037 21.693,12.615 21.833,12.997 21.635 C 13.309 21.474,13.598 21.028,13.600 20.705 C 13.600 20.569,12.584 17.569,12.479 17.397 C 12.411 17.285,12.269 17.173,12.092 17.091 C 11.796 16.953,11.653 16.939,11.371 17.020 M19.752 17.116 C 19.436 17.260,19.327 17.482,18.838 18.987 C 18.243 20.819,18.249 20.788,18.425 21.148 C 18.758 21.828,19.687 21.931,20.094 21.333 C 20.225 21.140,21.018 18.776,21.124 18.261 C 21.210 17.844,21.157 17.588,20.932 17.339 C 20.640 17.016,20.169 16.927,19.752 17.116 M10.196 24.071 C 12.451 25.483,12.383 25.467,15.947 25.467 C 19.515 25.466,19.538 25.462,21.366 24.344 C 21.817 24.068,22.284 23.792,22.406 23.730 L 22.627 23.617 22.590 23.769 C 22.450 24.342,21.933 25.328,21.413 26.016 C 21.130 26.389,20.637 26.769,20.278 26.889 C 20.129 26.939,19.082 26.960,16.028 26.973 L 11.976 26.991 11.601 26.805 C 11.395 26.702,11.104 26.510,10.954 26.378 C 10.490 25.969,9.728 24.762,9.497 24.068 C 9.374 23.698,9.364 23.627,9.436 23.627 C 9.464 23.627,9.806 23.827,10.196 24.071 " fill="#1A1C1F" stroke="none" fill-rule="evenodd"></path></svg>