<svg width="24" height="24" viewBox="0 0 24 24" fill="none" xmlns="http://www.w3.org/2000/svg"><path d="M7.340 2.041 C 6.071 2.132,5.008 2.590,4.168 3.408 C 3.431 4.125,2.814 5.145,2.444 6.260 C 2.120 7.235,2.050 7.855,2.013 10.060 C 1.968 12.819,2.116 14.102,2.780 16.700 C 3.139 18.103,3.327 18.594,3.762 19.260 C 4.167 19.881,4.542 20.276,5.013 20.577 L 5.240 20.723 5.217 21.051 C 5.194 21.368,5.197 21.387,5.314 21.568 C 5.381 21.671,5.512 21.806,5.605 21.868 L 5.774 21.980 7.124 21.992 C 8.609 22.006,8.567 22.012,8.862 21.753 C 9.108 21.537,9.135 21.447,9.153 20.782 C 9.174 19.993,9.134 19.810,8.884 19.560 C 8.781 19.457,8.643 19.360,8.578 19.345 C 8.513 19.330,7.956 19.307,7.340 19.294 C 6.255 19.270,6.214 19.267,6.025 19.171 C 5.514 18.915,4.989 18.155,4.682 17.227 C 4.632 17.078,4.600 16.947,4.609 16.937 C 4.619 16.928,4.788 17.022,4.984 17.146 C 5.853 17.700,6.203 17.855,6.819 17.963 C 7.411 18.066,7.799 17.856,7.960 17.347 C 8.069 17.002,7.875 16.591,7.520 16.417 C 7.421 16.369,7.205 16.299,7.040 16.262 C 6.632 16.171,6.393 16.041,5.460 15.409 C 4.539 14.784,4.057 14.427,4.005 14.329 C 3.965 14.255,3.874 13.662,3.791 12.940 C 3.757 12.644,3.742 11.912,3.745 10.700 C 3.748 8.858,3.797 7.820,3.903 7.360 C 4.143 6.307,4.659 5.335,5.339 4.656 C 5.644 4.350,5.764 4.262,6.082 4.105 C 6.788 3.757,6.811 3.755,9.166 3.768 L 11.220 3.780 11.570 3.905 C 12.068 4.083,12.331 4.251,12.721 4.640 C 13.425 5.342,13.942 6.323,14.160 7.371 C 14.251 7.812,14.320 8.456,14.320 8.867 C 14.320 9.265,14.381 9.483,14.545 9.675 C 14.913 10.105,15.612 10.035,15.903 9.538 L 16.011 9.354 15.988 8.487 C 15.964 7.599,15.913 7.227,15.723 6.550 C 15.249 4.861,14.122 3.306,12.880 2.626 C 12.210 2.259,11.521 2.093,10.460 2.040 C 9.593 1.998,7.933 1.998,7.340 2.041 M7.674 5.122 C 7.127 5.218,6.809 5.325,6.463 5.529 C 5.668 5.997,5.196 6.882,5.253 7.800 C 5.277 8.190,5.512 9.324,5.657 9.750 C 5.808 10.194,6.067 10.519,6.475 10.777 C 6.925 11.061,7.809 11.216,8.980 11.217 C 10.581 11.219,11.424 11.013,11.941 10.497 C 12.311 10.128,12.460 9.762,12.688 8.663 C 12.967 7.323,12.785 6.559,12.020 5.845 C 11.574 5.429,10.975 5.187,10.140 5.084 C 9.553 5.012,8.175 5.033,7.674 5.122 M10.159 6.805 C 10.672 6.885,10.982 7.098,11.085 7.440 C 11.124 7.572,11.121 7.675,11.066 8.012 C 10.967 8.618,10.820 9.191,10.741 9.279 C 10.657 9.371,10.427 9.423,9.741 9.505 C 9.118 9.579,8.270 9.536,7.566 9.396 C 7.368 9.356,7.347 9.340,7.278 9.185 C 7.194 8.995,7.017 8.153,6.976 7.753 C 6.953 7.524,6.962 7.460,7.040 7.301 C 7.250 6.865,7.818 6.720,9.200 6.749 C 9.585 6.757,10.017 6.782,10.159 6.805 M12.640 11.034 C 12.233 11.055,12.105 11.077,11.953 11.152 C 11.457 11.397,11.149 11.776,11.001 12.327 C 10.951 12.510,10.771 13.281,10.599 14.040 C 10.428 14.799,10.259 15.522,10.223 15.646 L 10.157 15.871 9.947 15.897 C 9.331 15.974,8.962 16.494,9.009 17.217 C 9.041 17.718,9.357 18.135,9.794 18.252 C 9.913 18.284,9.980 18.328,10.003 18.389 C 10.057 18.531,10.117 19.259,10.157 20.272 C 10.190 21.099,10.204 21.223,10.281 21.382 C 10.362 21.549,10.591 21.773,10.782 21.872 C 10.909 21.937,11.328 21.973,11.615 21.942 C 12.059 21.894,12.415 21.575,12.536 21.114 C 12.567 20.996,12.607 20.903,12.626 20.906 C 12.841 20.944,13.787 21.047,14.254 21.084 C 15.111 21.151,16.872 21.110,17.775 21.002 C 18.168 20.955,18.506 20.913,18.526 20.908 C 18.546 20.904,18.604 21.022,18.655 21.172 C 18.822 21.663,19.163 21.920,19.686 21.952 C 20.282 21.987,20.684 21.784,20.903 21.338 C 21.012 21.114,21.014 21.100,21.043 20.066 C 21.059 19.491,21.094 18.858,21.120 18.660 L 21.168 18.299 21.394 18.177 C 21.668 18.028,21.897 17.743,21.963 17.468 C 22.041 17.143,21.994 16.694,21.857 16.442 C 21.719 16.188,21.462 15.985,21.191 15.914 C 20.951 15.852,21.005 16.023,20.461 13.580 C 20.185 12.343,20.098 12.024,19.980 11.819 C 19.848 11.590,19.532 11.307,19.247 11.164 L 19.004 11.041 16.072 11.025 C 14.459 11.016,12.915 11.020,12.640 11.034 M19.086 14.150 C 19.298 15.069,19.463 15.829,19.453 15.840 C 19.425 15.869,11.731 15.865,11.702 15.836 C 11.681 15.814,12.060 14.059,12.331 12.920 L 12.422 12.540 12.641 12.517 C 12.761 12.504,14.174 12.490,15.780 12.487 L 18.700 12.481 19.086 14.150 M6.280 12.691 C 6.074 12.759,5.776 13.074,5.718 13.285 C 5.655 13.514,5.702 13.696,5.964 14.240 C 6.283 14.901,6.420 15.105,6.632 15.229 C 7.213 15.570,7.945 15.087,7.869 14.414 C 7.847 14.219,7.406 13.287,7.204 13.011 C 6.999 12.729,6.592 12.589,6.280 12.691 M12.673 17.099 C 13.030 17.198,13.376 17.307,13.442 17.341 C 13.640 17.444,13.727 17.622,13.710 17.890 C 13.697 18.088,13.676 18.141,13.559 18.261 C 13.349 18.478,13.204 18.499,12.735 18.380 C 11.740 18.128,11.481 17.998,11.419 17.716 C 11.379 17.532,11.434 17.252,11.533 17.139 C 11.609 17.052,11.862 16.931,11.982 16.923 C 12.006 16.921,12.317 17.001,12.673 17.099 M19.501 17.041 C 19.738 17.187,19.828 17.575,19.686 17.840 C 19.585 18.027,19.387 18.119,18.643 18.321 C 17.925 18.516,17.828 18.509,17.584 18.240 C 17.456 18.098,17.440 18.055,17.440 17.866 C 17.440 17.445,17.605 17.326,18.520 17.085 C 19.072 16.940,19.320 16.928,19.501 17.041 M16.240 18.706 C 16.410 18.740,16.629 18.963,16.662 19.135 C 16.700 19.341,16.562 19.627,16.388 19.699 C 16.211 19.773,15.533 19.818,15.143 19.782 C 14.881 19.757,14.814 19.735,14.700 19.634 C 14.545 19.498,14.463 19.290,14.499 19.126 C 14.536 18.954,14.721 18.758,14.880 18.721 C 15.050 18.681,16.059 18.670,16.240 18.706 " fill="#1A1C1F" stroke="none" fill-rule="evenodd"></path></svg>