<svg width="28" height="28" viewBox="0 0 28 28" fill="none" xmlns="http://www.w3.org/2000/svg"><path d="M7.653 1.892 C 6.794 2.048,5.931 2.387,5.258 2.832 C 4.813 3.127,4.078 3.844,3.688 4.363 C 2.676 5.712,2.051 7.363,1.862 9.193 C 1.820 9.595,1.800 10.604,1.799 12.437 C 1.796 15.311,1.815 15.625,2.080 17.136 C 2.310 18.453,2.929 20.941,3.268 21.912 C 3.543 22.697,4.023 23.463,4.667 24.142 C 5.040 24.537,5.353 24.772,5.822 25.008 C 6.072 25.134,6.113 25.173,6.114 25.282 C 6.114 25.654,6.342 26.011,6.692 26.190 C 6.874 26.282,6.931 26.286,7.838 26.259 C 8.791 26.230,8.794 26.230,8.981 26.098 C 9.282 25.887,9.367 25.721,9.404 25.274 C 9.442 24.820,9.370 24.179,9.262 24.015 C 9.222 23.953,9.104 23.844,9.001 23.772 C 8.814 23.643,8.804 23.642,7.860 23.611 L 6.908 23.580 6.600 23.429 C 6.194 23.229,5.825 22.860,5.434 22.263 C 5.122 21.787,4.805 21.130,4.738 20.822 L 4.705 20.667 4.888 20.761 C 4.989 20.812,5.452 21.085,5.917 21.366 C 6.790 21.895,7.056 22.018,7.651 22.172 C 7.973 22.254,8.015 22.256,8.215 22.189 C 8.911 21.958,9.034 21.018,8.419 20.629 C 8.298 20.552,8.093 20.455,7.962 20.412 C 7.598 20.293,7.259 20.112,6.090 19.415 C 5.500 19.063,4.830 18.672,4.602 18.546 C 4.374 18.420,4.157 18.270,4.120 18.214 C 3.981 18.003,3.687 16.281,3.589 15.097 C 3.510 14.161,3.564 9.691,3.662 8.977 C 3.793 8.018,4.039 7.245,4.480 6.405 C 5.365 4.717,6.383 3.904,7.980 3.608 C 8.361 3.538,8.717 3.526,10.523 3.526 C 12.356 3.526,12.683 3.537,13.090 3.612 C 13.970 3.773,14.646 4.095,15.250 4.642 C 15.797 5.137,16.542 6.303,16.911 7.241 C 17.108 7.743,17.260 8.376,17.362 9.123 C 17.469 9.907,17.571 10.182,17.816 10.344 C 18.308 10.670,18.991 10.395,19.130 9.815 C 19.219 9.443,19.091 8.407,18.845 7.513 C 18.613 6.670,18.074 5.478,17.609 4.778 C 16.530 3.156,15.264 2.266,13.535 1.914 C 13.106 1.826,12.904 1.820,10.539 1.824 C 8.614 1.827,7.919 1.844,7.653 1.892 M9.356 5.318 C 7.388 5.496,5.884 6.393,5.451 7.645 C 5.253 8.219,5.335 9.370,5.677 10.780 C 5.897 11.691,6.540 12.391,7.441 12.700 C 7.843 12.837,9.163 13.053,9.870 13.097 C 10.251 13.120,10.310 13.112,10.500 13.011 C 10.661 12.926,10.740 12.841,10.838 12.648 C 10.977 12.376,10.992 12.251,10.918 11.983 C 10.848 11.730,10.669 11.544,10.417 11.461 C 10.296 11.421,9.747 11.325,9.198 11.248 C 8.648 11.170,8.113 11.083,8.009 11.055 C 7.739 10.983,7.491 10.717,7.402 10.405 C 7.286 9.999,7.093 8.795,7.093 8.474 C 7.093 8.221,7.113 8.154,7.235 7.985 C 7.680 7.371,8.828 7.030,10.453 7.031 C 12.055 7.031,13.078 7.293,13.635 7.845 C 13.919 8.127,13.943 8.285,13.834 9.140 C 13.735 9.916,13.768 10.114,14.040 10.372 C 14.345 10.662,14.640 10.707,15.016 10.520 C 15.386 10.335,15.464 10.159,15.610 9.170 C 15.768 8.105,15.646 7.504,15.149 6.897 C 14.530 6.140,13.524 5.629,12.180 5.389 C 11.712 5.305,9.977 5.261,9.356 5.318 M13.191 12.432 C 12.487 12.793,12.182 13.182,11.953 14.007 C 11.873 14.298,11.652 15.198,11.463 16.007 L 11.120 17.477 10.583 17.506 C 9.969 17.540,9.811 17.597,9.692 17.827 C 9.582 18.040,9.601 18.704,9.725 18.939 C 9.812 19.106,10.106 19.271,10.318 19.272 L 10.439 19.273 10.469 19.845 C 10.503 20.506,10.710 22.360,10.804 22.853 C 10.839 23.038,10.926 23.322,10.996 23.483 C 11.117 23.762,11.125 23.825,11.150 24.714 C 11.176 25.644,11.178 25.652,11.308 25.849 C 11.497 26.134,11.754 26.237,12.347 26.264 C 12.870 26.287,13.234 26.212,13.462 26.033 C 13.631 25.900,13.764 25.601,13.766 25.352 L 13.767 25.153 17.909 25.153 L 22.052 25.153 22.106 25.440 C 22.214 26.008,22.528 26.236,23.243 26.265 C 23.820 26.289,24.176 26.216,24.389 26.029 C 24.676 25.776,24.699 25.690,24.737 24.687 C 24.770 23.837,24.781 23.752,24.911 23.401 C 25.009 23.137,25.080 22.806,25.148 22.281 C 25.273 21.325,25.433 19.757,25.433 19.484 C 25.433 19.300,25.446 19.273,25.533 19.273 C 25.710 19.273,25.988 19.169,26.085 19.065 C 26.212 18.930,26.290 18.484,26.250 18.118 C 26.196 17.607,26.019 17.503,25.199 17.501 L 24.755 17.500 24.435 16.112 C 24.047 14.432,23.829 13.619,23.700 13.370 C 23.508 13.001,23.096 12.625,22.656 12.418 L 22.434 12.314 17.972 12.291 L 13.510 12.268 13.191 12.432 M22.039 14.063 C 22.145 14.116,22.240 14.440,22.611 16.030 C 22.779 16.749,22.928 17.373,22.941 17.418 C 22.965 17.496,22.707 17.500,17.973 17.500 C 15.226 17.500,12.968 17.483,12.956 17.463 C 12.936 17.430,13.106 16.662,13.556 14.764 C 13.623 14.478,13.706 14.207,13.739 14.161 C 13.782 14.103,13.896 14.069,14.121 14.045 C 14.574 13.998,21.939 14.015,22.039 14.063 M6.472 14.886 C 6.107 15.000,5.798 15.438,5.850 15.765 C 5.865 15.860,6.077 16.547,6.320 17.292 C 6.780 18.697,6.810 18.759,7.117 18.912 C 7.438 19.072,7.702 19.052,8.011 18.843 C 8.211 18.707,8.377 18.376,8.368 18.127 C 8.357 17.832,7.489 15.250,7.362 15.134 C 7.101 14.897,6.748 14.799,6.472 14.886 M23.563 19.409 C 23.629 19.502,23.660 19.616,23.659 19.771 C 23.658 20.186,23.669 20.177,23.073 20.287 C 22.251 20.438,22.045 20.569,21.927 21.011 C 21.825 21.391,21.984 21.767,22.331 21.970 C 22.500 22.069,22.558 22.077,22.968 22.057 L 23.419 22.036 23.396 22.206 C 23.354 22.501,23.235 22.883,23.143 23.012 C 22.962 23.266,22.591 23.343,20.790 23.505 C 19.478 23.623,16.464 23.622,15.143 23.504 C 13.754 23.380,13.170 23.299,12.981 23.207 C 12.698 23.068,12.555 22.787,12.483 22.231 L 12.453 21.991 12.655 22.030 C 13.376 22.170,13.812 21.962,13.960 21.407 C 14.032 21.140,13.964 20.882,13.762 20.652 C 13.597 20.464,13.449 20.408,12.764 20.278 L 12.251 20.180 12.217 19.948 C 12.181 19.708,12.237 19.443,12.335 19.379 C 12.462 19.298,13.153 19.287,18.185 19.280 L 23.467 19.273 23.563 19.409 M15.966 20.533 C 15.731 20.589,15.587 20.714,15.344 21.073 C 14.977 21.617,14.911 21.778,14.913 22.127 C 14.915 22.390,14.934 22.462,15.040 22.601 C 15.185 22.791,15.505 22.960,15.720 22.960 C 16.033 22.960,16.403 22.716,16.620 22.365 L 16.714 22.213 17.941 22.213 L 19.167 22.213 19.338 22.472 C 19.610 22.881,19.937 23.026,20.345 22.918 C 20.797 22.798,21.061 22.365,20.958 21.915 C 20.895 21.643,20.492 20.959,20.253 20.720 C 20.093 20.560,20.057 20.546,19.717 20.517 C 19.212 20.475,16.159 20.488,15.966 20.533 " fill="#1A1C1F" stroke="none" fill-rule="evenodd"></path></svg>