<svg xmlns="http://www.w3.org/2000/svg" width="28" height="28" fill="none"><g clip-path="url(#a)"><path fill="#1A1C1F" fill-rule="evenodd" d="M21.877 12.25c.866 0 1.473.583 1.731 1.422L24.5 17.5h1.183c.294 0 .567.234.567.506v.642c0 .293-.228.603-.567.602h-.73c.028.142.043.333.043.47q0 .136-.34 3.038a2.6 2.6 0 0 1-.154.635v1.982a.877.877 0 0 1-.876.875H23.1a.875.875 0 0 1-.875-.875v-.3a37.6 37.6 0 0 1-9.45 0v.3a.875.875 0 0 1-.875.875h-.525a.875.875 0 0 1-.875-.875v-1.98a2.7 2.7 0 0 1-.133-.478l-.348-2.979a2.2 2.2 0 0 1 .029-.687h-.73c-.324 0-.567-.282-.567-.604v-.584c0-.323.243-.563.567-.563h1.183l.855-3.687c.203-.865.917-1.499 1.77-1.563zM2.714 19.975c.867.969 1.895 1.816 3.487 2.861l.5.317c.331.186.68.301 1.174.37.385.029.745.027 1.12.044.007.024.01.049.018.073v1.735c0 .125.014.245.03.365a.438.438 0 0 1-.43.51H7a.875.875 0 0 1-.845-1.104 3.86 3.86 0 0 1-1.768-1.29 9.5 9.5 0 0 1-1.106-1.876q-.135-.313-.568-2.005m16.542.807-3.624.006a.88.88 0 0 0-.729.598l-.259 1.294a.864.864 0 0 0 .7.929.866.866 0 0 0 1.005-.587l.103-.49h2.087l.104.49a.875.875 0 0 0 1.704-.341l-.259-1.296a.88.88 0 0 0-.832-.603m3.861-.654-1.294.26a.875.875 0 0 0 .342 1.704l1.294-.26a.874.874 0 0 0-.341-1.704m-12.162.701c-.088.44.17.869.587 1.004l1.294.259a.875.875 0 0 0 .341-1.705l-1.294-.259a.875.875 0 0 0-.928.701M11.8 1.75c2.7 0 4.263.94 5.47 2.538a9.4 9.4 0 0 1 1.886 5.098l.014.326.015.614a.44.44 0 0 1-.437.437H15.96c.1-.325.232-.694.452-1.922.295-1.645-.629-3.215-2.003-3.811-1.205-.522-2.513-.655-3.91-.655q-2.265 0-3.738.582C5.26 5.55 4.254 7.1 4.591 8.847c.185.962.368 1.628.473 1.98a2.54 2.54 0 0 0 1.882 1.752l1.264.198c.619.095 1.243.145 1.866.162q-.105.258-.17.537l-.589 2.536a2.04 2.04 0 0 0-1.513.658l-.285-.885a.874.874 0 0 0-1.654.534l.849 2.633c.288.761 1.354 1.452 1.885 1.654l.147 1.262c-.902-.027-1.144-.211-1.572-.485-2.2-1.406-3.105-2.351-4.154-3.845q-1.05-1.494-1.105-1.549-.165-1.745-.165-2.801.001-1.057.08-3.476a9.4 9.4 0 0 1 1.9-5.424c1.164-1.54 2.726-2.538 5.527-2.534zm1.468 11.982c-.182 0-.355.127-.435.329l-.806 3.44h10.946l-.775-3.35c-.053-.222-.21-.376-.387-.411z" clip-rule="evenodd"/></g><defs><clipPath id="a"><path fill="#fff" d="M0 0h28v28H0z"/></clipPath></defs></svg>