<svg xmlns="http://www.w3.org/2000/svg" width="14" height="14" fill="none"><g clip-path="url(#a)"><path fill="#1A1C1F" fill-rule="evenodd" d="M2.107 10.64q.737.531 1.045.72c.308.19.698.329 1.161.36h.937v.88H3.852a.7.7 0 0 1-.683-.545c-.42-.298-.782-.748-1.062-1.415m7.374-3.99.186.001h.765l.292.002h.123c.404.004.803.323.894.68.062.24.192.469.392 1.39l.11.376h.357v1.4l-.266.001a8 8 0 0 1-.06.465 1 1 0 0 1-.024.098v1.536h-1.4v-.635l-.066.025a11.5 11.5 0 0 1-3.369 0l-.065-.024v.634h-1.4v-1.532a6 6 0 0 1-.082-.567H5.6V9.1h.355l.11-.377.367-1.313c.114-.39.454-.76 1.004-.76zM5.234 1.4c2.579 0 3.832 1.752 3.864 4.204v.346H7.723c.057-.2.228-.97.259-1.178.09-.605-.471-1.444-.933-1.655Q6.357 2.8 5.252 2.8q-1.211 0-1.928.382a1.59 1.59 0 0 0-.8 1.593q.205.995.26 1.184c.112.383.418.674.8.77q1.017.182 1.668.186.196 0 .42-.016l.226-.02-.051.106-.046.11-.04.117-.337 1.21a.7.7 0 0 0-.524.677v1.4q.001.09.023.175h-.435c-.332 0-.662-.122-.883-.27s-.742-.511-1.15-.812q-.406-.3-.798-.628Q1.4 7.588 1.4 7.005V5.604C1.4 3.15 2.596 1.4 5.234 1.4M7.102 9.72a.35.35 0 0 0-.18.677l.675.18a.35.35 0 0 0 .181-.675zm3.995 0-.676.182a.35.35 0 1 0 .18.676l.677-.181a.35.35 0 1 0-.18-.677M3.336 7.552a.525.525 0 0 0-.35.595l.395 1.185a.525.525 0 0 0 .987-.329l-.395-1.185a.525.525 0 0 0-.637-.266m7.444.148H7.42l-.413 1.4H11.2z" clip-rule="evenodd"/></g><defs><clipPath id="a"><path fill="#fff" d="M0 0h14v14H0z"/></clipPath></defs></svg>