<svg xmlns="http://www.w3.org/2000/svg" width="32" height="32" fill="none"><path fill="#1A1C1F" fill-rule="evenodd" d="M9.227 2.083c-2.382.32-3.988 1.334-5.358 3.382-.954 1.427-1.581 3.231-1.733 4.988-.088 1.004-.154 4.748-.105 5.853.098 2.184.357 3.753 1.096 6.627.557 2.165.774 2.736 1.385 3.636.709 1.047 1.274 1.584 2.071 1.971l.423.206.004.254a.97.97 0 0 0 .484.84l.257.16h1.071c.589 0 1.137-.018 1.217-.041.186-.052.5-.327.617-.54.073-.134.091-.31.091-.912 0-.869-.065-1.062-.45-1.334l-.226-.16-1.076-.029c-1.066-.028-1.078-.03-1.434-.196a3 3 0 0 1-.662-.451c-.334-.313-.827-1.026-1.14-1.647-.204-.404-.396-.967-.363-1.064.009-.028.497.249 1.084.615 1.266.791 1.441.879 2.118 1.063.443.12.55.133.734.083.435-.117.748-.529.748-.983 0-.554-.272-.841-1.036-1.096a5.6 5.6 0 0 1-1.085-.521 85 85 0 0 0-2.777-1.64c-.56-.305-.514-.221-.732-1.334-.389-1.989-.483-3.549-.402-6.64.034-1.276.075-2.452.091-2.613a8.85 8.85 0 0 1 1.394-3.973C6.581 4.98 7.755 4.249 9.602 4.055c.67-.071 4.16-.07 4.859.001 1.688.171 2.728.765 3.734 2.131.897 1.218 1.487 2.712 1.643 4.16.12 1.117.22 1.35.666 1.553a.994.994 0 0 0 1.366-.659c.072-.267-.005-1.18-.168-1.988-.25-1.241-.878-2.756-1.569-3.786-1.269-1.893-2.592-2.829-4.64-3.285-.507-.113-.663-.12-3.226-.132-1.482-.008-2.85.007-3.04.033m1.112 4.025c-2.247.306-3.791 1.356-4.175 2.837-.153.588-.089 1.398.235 2.975.156.758.245.997.535 1.431.436.651 1.109 1.094 1.946 1.28.546.121 2.268.356 2.613.356.379 0 .675-.147.86-.427.242-.365.225-.86-.041-1.198-.204-.259-.452-.335-1.57-.48-1.69-.218-1.767-.238-2.035-.512-.202-.206-.241-.316-.383-1.09-.325-1.767-.322-1.885.062-2.301.61-.661 2.21-1.042 4.041-.96 1.487.066 2.531.36 3.098.872.399.361.436.569.283 1.601-.047.316-.074.677-.06.802a.98.98 0 0 0 1.054.854c.332-.032.655-.241.795-.515.127-.249.322-1.514.323-2.09 0-.775-.28-1.391-.906-1.989-.835-.798-1.893-1.248-3.403-1.448-.744-.098-2.547-.097-3.272.002m4.843 8.049q-.92.38-1.324 1.234c-.102.216-.32 1.037-.651 2.454l-.497 2.128-.635.027c-.695.029-.824.073-.984.337-.081.132-.104.268-.104.611 0 .704.189.99.699 1.058l.261.034v.395c0 .421.272 2.947.396 3.686.041.243.149.6.239.793l.165.351.001.968c.001.829.015.998.101 1.187.196.433.583.603 1.375.605.603.002.944-.08 1.175-.283a.92.92 0 0 0 .334-.754v-.241h9.48l.037.279q.071.547.467.802c.261.169.627.222 1.298.187.603-.032.886-.169 1.092-.53.127-.221.134-.279.15-1.245.015-.943.026-1.032.146-1.29.072-.152.165-.428.208-.613.114-.501.468-3.708.443-4.024l-.022-.274.264-.031c.3-.036.474-.132.61-.34.117-.179.134-1.14.023-1.338-.147-.262-.358-.33-1.023-.33h-.614l-.499-2.147c-.348-1.499-.548-2.251-.662-2.493-.214-.457-.646-.886-1.13-1.124l-.372-.183-5.068-.012-5.068-.013zm10.046 1.94c.1.081.187.385.53 1.853.226.966.427 1.823.447 1.903l.037.147h-5.734c-3.154 0-5.735-.015-5.735-.034 0-.069.753-3.273.83-3.533.139-.469-.272-.433 4.91-.433 4.361 0 4.601.005 4.715.097m-17.95.96c-.344.162-.61.56-.611.917 0 .094.987 3.157 1.064 3.302.093.173.355.358.609.429.53.148 1.083-.197 1.207-.753.063-.285.062-.288-.444-1.847-.279-.859-.544-1.62-.59-1.69-.259-.395-.814-.556-1.235-.358m19.633 5.103c.122.121.132.168.118.519l-.016.387-.693.122c-.811.144-1.02.253-1.2.625a.986.986 0 0 0 .433 1.32c.22.109.437.126.885.069l.331-.042-.028.207c-.104.755-.247 1.028-.629 1.195-.222.097-1.653.251-3.436.37-1.031.069-3.203.069-4.249.001-1.638-.108-3.259-.271-3.478-.351-.416-.153-.602-.466-.68-1.148l-.035-.299.382.066c.257.044.454.049.602.016.846-.19 1.053-1.301.333-1.793-.108-.074-.399-.154-.856-.235l-.692-.123-.043-.24q-.088-.498.156-.69c.138-.109.175-.109 6.4-.109h6.262zm-8.889 1.376c-.199.104-.293.218-.608.734-.369.603-.373.614-.374.987 0 .332.018.402.15.574.455.597 1.262.532 1.707-.138l.204-.306h2.81l.16.261c.231.375.486.552.836.581a.98.98 0 0 0 .914-.426c.127-.184.152-.275.152-.546 0-.303-.022-.363-.333-.887-.354-.599-.535-.809-.777-.9-.097-.037-.933-.057-2.378-.057-2.223 0-2.229.001-2.463.123"/></svg>