<svg xmlns="http://www.w3.org/2000/svg" width="32" height="32" fill="none"><path fill="#1A1C1F" fill-rule="evenodd" d="M13.067 2.106c-2.015.289-3.415 1.07-4.634 2.587a10.8 10.8 0 0 0-2.296 5.68c-.102 1.084-.17 4.668-.11 5.788.062 1.181.143 2.061.196 2.148.181.293 1.716 2.411 2.02 2.787.863 1.068 2.24 2.244 3.799 3.243 1.027.659.911.638 3.602.662 2.423.023 2.952-.009 3.491-.211.604-.226 2.575-1.633 3.493-2.494.767-.719 1.891-2.111 2.838-3.515l.347-.514.055-.546c.125-1.229.152-2.435.102-4.548-.029-1.188-.076-2.424-.106-2.746-.204-2.188-1.074-4.289-2.455-5.929-1.039-1.234-2.236-1.942-3.916-2.316-.507-.113-.666-.12-3.226-.134-2.053-.011-2.814.003-3.2.058m5.173 3.039c1.531.241 2.562.653 3.264 1.302a4 4 0 0 1 1.248 2.314c.104.595.077.984-.141 2.068-.375 1.863-.778 2.631-1.678 3.195-.383.24-.819.355-2.026.534-1.472.218-2.605.281-3.791.214-1.064-.061-2.904-.316-3.438-.477-.699-.21-1.363-.782-1.699-1.466-.302-.612-.806-2.803-.806-3.5 0-1.708 1.161-3.208 2.94-3.799a10.5 10.5 0 0 1 1.914-.406l.693-.079c.486-.055 2.987.016 3.52.1m-6.09 12.443a.94.94 0 0 1 .302.246c.075.098.328.789.618 1.686.514 1.59.565 1.862.405 2.17-.233.448-.822.668-1.278.478-.367-.154-.48-.366-.916-1.725l-.492-1.535c-.317-.987.454-1.735 1.361-1.32m8.489.012c.32.162.497.432.524.793.019.269-.034.474-.469 1.812-.524 1.613-.622 1.806-.998 1.963-.407.17-.914.017-1.186-.359-.273-.376-.244-.583.32-2.317.266-.817.53-1.55.586-1.629.241-.338.829-.465 1.223-.263M7.233 23.364c.455 1.698.648 2.179 1.269 3.162.647 1.025 1.258 1.617 2.084 2.017.403.195.425.214.409.365-.038.364.199.789.543.973l.222.119h8.48l.222-.119c.348-.186.599-.643.533-.972-.028-.14-.01-.157.315-.295.448-.191.989-.575 1.36-.967.479-.506 1.295-1.784 1.543-2.419.106-.27.64-2.156.64-2.26 0-.025-.309.252-.688.617-.787.758-1.638 1.433-2.781 2.205-1.33.898-1.75 1.058-2.998 1.144-.952.066-3.718.064-4.706-.003-1.348-.092-1.646-.197-2.862-1.012-1.391-.931-2.257-1.621-3.202-2.55l-.517-.508z"/></svg>