<svg width="12" height="12" viewBox="0 0 12 12" fill="none" xmlns="http://www.w3.org/2000/svg"><path d="M4.080 1.220 C 2.605 1.366,1.670 2.180,1.334 3.610 C 1.230 4.050,1.216 4.203,1.205 4.980 C 1.191 6.034,1.219 6.518,1.328 7.165 C 1.406 7.625,1.420 7.684,1.463 7.720 C 1.617 7.851,2.206 8.295,2.596 8.575 C 3.274 9.060,3.434 9.128,3.955 9.153 L 4.220 9.166 4.220 8.401 L 4.220 7.636 4.284 7.515 C 4.351 7.390,4.452 7.298,4.580 7.246 L 4.651 7.218 4.759 6.824 C 4.853 6.480,4.983 6.062,5.029 5.955 C 5.043 5.922,5.016 5.920,4.607 5.920 C 3.895 5.919,3.118 5.811,2.851 5.675 C 2.719 5.608,2.606 5.504,2.524 5.373 C 2.421 5.210,2.377 5.086,2.303 4.750 C 2.192 4.245,2.172 4.116,2.172 3.880 C 2.172 3.681,2.179 3.629,2.227 3.490 C 2.298 3.286,2.404 3.122,2.585 2.941 C 2.701 2.824,2.766 2.779,2.929 2.699 C 3.273 2.532,3.602 2.458,4.173 2.417 C 4.997 2.358,5.856 2.516,6.225 2.795 C 6.424 2.946,6.682 3.324,6.780 3.611 C 6.811 3.702,6.820 3.779,6.820 3.973 C 6.820 4.224,6.794 4.388,6.673 4.884 C 6.633 5.047,6.631 5.080,6.655 5.089 C 6.670 5.095,6.936 5.100,7.245 5.100 L 7.806 5.100 7.794 4.745 C 7.768 3.973,7.642 3.404,7.381 2.870 C 7.228 2.556,7.057 2.317,6.809 2.069 C 6.246 1.506,5.539 1.236,4.563 1.211 C 4.391 1.206,4.174 1.210,4.080 1.220 M6.430 5.717 C 6.129 5.730,6.103 5.734,5.993 5.790 C 5.854 5.859,5.720 5.973,5.642 6.087 C 5.571 6.192,5.516 6.357,5.290 7.150 L 5.108 7.790 4.954 7.796 L 4.800 7.802 4.800 8.401 L 4.800 9.000 4.886 9.000 C 4.934 9.000,4.986 9.011,5.003 9.025 C 5.059 9.070,5.084 9.364,5.095 10.095 L 5.105 10.800 5.702 10.800 L 6.299 10.800 6.304 10.535 C 6.308 10.373,6.318 10.271,6.330 10.273 C 7.220 10.415,8.337 10.415,9.270 10.273 C 9.282 10.271,9.292 10.373,9.296 10.535 L 9.301 10.800 9.898 10.800 L 10.494 10.800 10.508 10.125 C 10.520 9.532,10.548 9.047,10.572 9.022 C 10.576 9.017,10.630 9.009,10.690 9.004 L 10.800 8.995 10.800 8.398 L 10.800 7.800 10.651 7.800 C 10.569 7.800,10.497 7.792,10.491 7.782 C 10.485 7.772,10.422 7.541,10.351 7.267 C 10.227 6.789,10.092 6.357,10.002 6.153 C 9.947 6.027,9.774 5.862,9.614 5.784 L 9.488 5.721 8.119 5.713 C 7.366 5.708,6.606 5.710,6.430 5.717 M3.144 6.481 C 3.321 6.530,3.381 6.632,3.572 7.210 C 3.777 7.832,3.782 7.939,3.612 8.109 C 3.508 8.213,3.413 8.247,3.260 8.236 C 3.010 8.218,2.940 8.120,2.731 7.495 C 2.535 6.910,2.526 6.829,2.639 6.646 C 2.729 6.499,2.950 6.427,3.144 6.481 M9.289 6.765 C 9.316 6.856,9.396 7.120,9.466 7.353 L 9.593 7.776 9.522 7.788 C 9.482 7.794,8.675 7.800,7.728 7.800 L 6.006 7.800 6.143 7.335 C 6.218 7.079,6.298 6.809,6.320 6.735 L 6.361 6.600 7.800 6.600 L 9.239 6.600 9.289 6.765 M6.439 8.430 C 6.718 8.510,6.787 8.542,6.832 8.611 C 6.922 8.748,6.862 8.971,6.714 9.046 L 6.639 9.085 6.404 9.032 C 6.018 8.946,5.850 8.888,5.792 8.819 C 5.695 8.704,5.704 8.521,5.813 8.413 C 5.917 8.308,6.026 8.311,6.439 8.430 M9.712 8.361 C 9.805 8.406,9.880 8.525,9.880 8.627 C 9.880 8.706,9.832 8.807,9.773 8.854 C 9.719 8.896,9.390 8.995,9.114 9.051 C 8.966 9.082,8.955 9.081,8.884 9.045 C 8.783 8.994,8.714 8.862,8.727 8.743 C 8.745 8.568,8.836 8.512,9.299 8.390 C 9.601 8.310,9.605 8.309,9.712 8.361 M1.820 9.152 C 1.820 9.185,2.050 9.598,2.146 9.738 C 2.203 9.821,2.356 9.996,2.485 10.127 C 2.624 10.268,2.735 10.399,2.757 10.448 C 2.804 10.554,2.937 10.685,3.056 10.744 C 3.148 10.789,3.166 10.790,3.825 10.796 L 4.500 10.802 4.500 10.421 L 4.500 10.040 4.095 10.040 C 3.190 10.040,3.025 9.978,1.985 9.252 C 1.894 9.189,1.820 9.144,1.820 9.152 " fill="#1A1C1F" stroke="none" fill-rule="evenodd"></path></svg>