<svg xmlns="http://www.w3.org/2000/svg" width="24" height="24" fill="none"><g clip-path="url(#a)"><path fill="#1A1C1F" fill-rule="evenodd" d="M17.927 17.82a6.4 6.4 0 0 1-.914 1.806c-.305.422-.655.766-1.088 1.002a1 1 0 0 1-.81 1.365L8.996 22a1 1 0 0 1-.923-1.386c-.364-.2-.728-.517-1.072-.982a5.9 5.9 0 0 1-.932-1.811c.584.475 1.276.967 2.136 1.52.588.378 1.383.663 3.791.663s3.16-.258 3.79-.663a24 24 0 0 0 2.14-1.521M13.007 2c2.01 0 3.44.756 4.407 2.04.886 1.178 1.48 2.786 1.52 4.363l.057 2.299a19.4 19.4 0 0 1-.191 3.243l-.524.698c-.81 1.027-1.735 1.837-3.57 3.016-.05.032-.525.344-1.769.344h-1.849c-1.311 0-1.725-.296-1.8-.344-1.834-1.18-2.759-1.99-3.57-3.016l-.528-.707c-.123-.864-.193-2.023-.187-3.19q.005-1.169.059-2.343A7.57 7.57 0 0 1 6.58 4.041c.918-1.22 2.269-1.964 4.118-2.035zm1.085 11.574-.544 1.61a1 1 0 0 0 1.855.74l.543-1.61a1 1 0 0 0-1.854-.74m-4.204-.006a1 1 0 0 0-1.88.64l.587 1.723a1 1 0 0 0 1.88-.64zM11.998 4c-.718 0-1.469 0-2.798.374C7.871 4.75 6.972 6.262 7.182 7.6q.279 1.23.355 1.487a2.15 2.15 0 0 0 1.579 1.478q1.67.288 2.883.294t2.722-.264a2.15 2.15 0 0 0 1.74-1.508c.075-.25.294-1.125.326-1.314.328-1.459-.642-3.02-1.987-3.396C13.456 4 12.714 4 11.997 4" clip-rule="evenodd"/></g><defs><clipPath id="a"><path fill="#fff" d="M0 0h24v24H0z"/></clipPath></defs></svg>