<svg width="16" height="16" viewBox="0 0 16 16" fill="none" xmlns="http://www.w3.org/2000/svg"><path d="M7.560 1.615 C 7.013 1.669,6.634 1.744,6.267 1.873 C 4.912 2.349,4.057 3.416,3.721 5.050 C 3.625 5.516,3.592 6.244,3.607 7.547 C 3.619 8.536,3.622 8.594,3.704 9.129 C 3.863 10.166,3.878 10.230,3.976 10.313 C 4.569 10.817,6.052 11.874,6.381 12.028 C 6.714 12.184,6.837 12.196,8.013 12.198 C 8.946 12.200,9.103 12.194,9.262 12.153 C 9.644 12.055,9.996 11.844,10.973 11.126 C 11.409 10.806,12.293 10.113,12.293 10.091 C 12.293 10.085,12.313 9.886,12.337 9.647 C 12.394 9.081,12.405 6.004,12.351 5.600 C 12.242 4.769,11.947 3.916,11.582 3.368 C 10.940 2.406,10.024 1.847,8.799 1.668 C 8.520 1.628,7.765 1.595,7.560 1.615 M8.523 3.227 C 9.381 3.295,9.982 3.471,10.339 3.758 C 10.528 3.910,10.777 4.247,10.918 4.542 C 11.109 4.943,11.152 5.242,11.080 5.664 C 11.003 6.113,10.809 6.851,10.719 7.033 C 10.539 7.398,10.189 7.637,9.693 7.732 C 9.140 7.839,8.680 7.878,7.973 7.879 C 7.264 7.880,6.888 7.843,6.224 7.706 C 5.686 7.596,5.377 7.331,5.213 6.841 C 5.075 6.429,4.880 5.435,4.880 5.141 C 4.880 4.918,4.937 4.706,5.069 4.432 C 5.308 3.938,5.677 3.641,6.293 3.445 C 6.949 3.237,7.708 3.163,8.523 3.227 M6.256 8.664 C 6.455 8.754,6.539 8.918,6.796 9.713 C 7.024 10.417,7.032 10.563,6.854 10.778 C 6.631 11.048,6.164 11.057,5.966 10.796 C 5.881 10.685,5.779 10.427,5.606 9.893 C 5.383 9.204,5.371 9.063,5.520 8.857 C 5.679 8.638,6.008 8.552,6.256 8.664 M10.196 8.642 C 10.343 8.683,10.514 8.864,10.559 9.025 C 10.607 9.195,10.579 9.330,10.360 9.991 C 10.069 10.865,9.985 10.973,9.598 10.973 C 9.411 10.973,9.380 10.965,9.276 10.893 C 9.201 10.841,9.132 10.759,9.081 10.662 C 9.003 10.514,9.002 10.508,9.033 10.327 C 9.067 10.130,9.287 9.426,9.419 9.093 C 9.505 8.875,9.596 8.738,9.688 8.689 C 9.824 8.616,10.032 8.597,10.196 8.642 M11.424 12.284 C 10.957 12.622,10.412 12.980,10.206 13.084 C 9.893 13.241,9.577 13.333,9.236 13.364 C 9.046 13.381,8.475 13.387,7.763 13.380 C 6.688 13.369,6.584 13.364,6.395 13.312 C 5.949 13.191,5.607 13.006,4.843 12.472 C 4.640 12.330,4.462 12.213,4.448 12.213 C 4.412 12.213,4.697 12.744,4.862 12.984 C 4.938 13.095,5.141 13.328,5.314 13.503 C 5.499 13.691,5.647 13.865,5.676 13.930 C 5.739 14.072,5.916 14.247,6.075 14.325 L 6.200 14.387 8.006 14.394 C 9.812 14.402,9.812 14.402,9.926 14.344 C 10.124 14.244,10.183 14.188,10.294 14.000 C 10.367 13.873,10.449 13.779,10.554 13.698 C 10.776 13.526,11.135 13.142,11.329 12.867 C 11.495 12.630,11.782 12.093,11.756 12.067 C 11.748 12.059,11.599 12.157,11.424 12.284 " fill="#1A1C1F" stroke="none" fill-rule="evenodd"></path></svg>