<svg width="20" height="20" viewBox="0 0 20 20" fill="none" xmlns="http://www.w3.org/2000/svg"><path d="M6.800 2.033 C 4.337 2.278,2.784 3.629,2.223 6.017 C 2.050 6.751,2.026 7.005,2.009 8.300 C 1.986 10.057,2.031 10.863,2.214 11.943 C 2.294 12.417,2.365 12.808,2.371 12.813 C 2.378 12.818,2.503 12.920,2.650 13.039 C 3.331 13.592,4.939 14.748,5.300 14.944 C 5.699 15.161,6.183 15.267,6.774 15.267 L 7.033 15.267 7.033 14.000 C 7.033 12.760,7.035 12.729,7.107 12.575 C 7.202 12.374,7.427 12.154,7.609 12.084 L 7.751 12.030 7.931 11.373 C 8.087 10.803,8.306 10.100,8.380 9.929 C 8.402 9.880,8.317 9.873,7.477 9.858 C 6.711 9.843,6.451 9.825,5.983 9.754 C 4.992 9.604,4.701 9.500,4.392 9.189 C 4.099 8.895,3.965 8.553,3.768 7.601 C 3.595 6.760,3.570 6.440,3.651 6.051 C 3.743 5.603,3.931 5.277,4.320 4.889 C 4.686 4.523,5.303 4.256,6.100 4.120 C 6.678 4.021,7.473 3.984,8.063 4.028 C 9.162 4.110,9.924 4.318,10.375 4.658 C 10.707 4.909,11.136 5.540,11.301 6.019 C 11.352 6.169,11.367 6.299,11.367 6.621 C 11.367 7.040,11.323 7.314,11.122 8.140 C 11.056 8.412,11.051 8.466,11.091 8.482 C 11.117 8.492,11.558 8.500,12.069 8.500 L 13.000 8.500 13.000 8.172 C 13.000 7.439,12.902 6.630,12.731 5.954 C 12.472 4.930,12.038 4.143,11.349 3.450 C 10.616 2.713,9.748 2.289,8.584 2.099 C 8.126 2.024,7.223 1.991,6.800 2.033 M10.717 9.529 C 10.215 9.550,10.172 9.557,9.988 9.649 C 9.881 9.703,9.727 9.806,9.646 9.877 C 9.330 10.155,9.277 10.287,8.802 11.965 L 8.513 12.983 8.257 12.993 L 8.000 13.003 8.000 14.001 L 8.000 15.000 8.144 15.000 C 8.223 15.000,8.311 15.019,8.339 15.042 C 8.431 15.116,8.473 15.607,8.491 16.825 L 8.508 18.000 9.503 18.000 L 10.498 18.000 10.507 17.558 C 10.513 17.288,10.530 17.119,10.550 17.122 C 12.034 17.358,13.895 17.358,15.450 17.122 C 15.470 17.119,15.487 17.288,15.493 17.558 L 15.502 18.000 16.496 18.000 L 17.490 18.000 17.513 16.892 C 17.534 15.905,17.581 15.075,17.620 15.036 C 17.627 15.028,17.716 15.015,17.817 15.007 L 18.000 14.992 18.000 13.996 L 18.000 13.000 17.752 13.000 C 17.616 13.000,17.496 12.987,17.486 12.970 C 17.475 12.954,17.371 12.568,17.252 12.112 C 17.034 11.270,16.833 10.625,16.681 10.282 C 16.575 10.041,16.305 9.778,16.026 9.641 L 15.817 9.538 13.533 9.523 C 12.277 9.514,11.010 9.517,10.717 9.529 M5.241 10.801 C 5.534 10.883,5.634 11.054,5.953 12.017 C 6.296 13.054,6.304 13.231,6.020 13.516 C 5.847 13.688,5.689 13.745,5.433 13.727 C 5.166 13.708,4.997 13.592,4.871 13.341 C 4.676 12.955,4.266 11.668,4.267 11.444 C 4.267 11.299,4.414 11.018,4.538 10.924 C 4.728 10.780,4.995 10.733,5.241 10.801 M15.485 11.292 C 15.534 11.452,15.668 11.893,15.782 12.272 L 15.989 12.960 15.869 12.980 C 15.804 12.990,14.458 12.999,12.880 13.000 L 10.010 13.000 10.234 12.242 C 10.357 11.825,10.491 11.375,10.531 11.242 L 10.603 11.000 12.999 11.000 L 15.396 11.000 15.485 11.292 M10.629 14.022 C 11.314 14.208,11.426 14.283,11.456 14.575 C 11.476 14.770,11.360 14.991,11.193 15.076 C 11.075 15.136,11.057 15.136,10.809 15.086 C 10.349 14.991,9.801 14.827,9.712 14.757 C 9.341 14.465,9.608 13.831,10.077 13.891 C 10.154 13.901,10.402 13.960,10.629 14.022 M16.187 13.935 C 16.341 14.010,16.467 14.209,16.467 14.378 C 16.467 14.511,16.387 14.679,16.288 14.757 C 16.199 14.827,15.651 14.991,15.191 15.086 C 14.943 15.136,14.926 15.136,14.807 15.075 C 14.505 14.919,14.444 14.436,14.703 14.255 C 14.830 14.166,15.800 13.873,15.981 13.868 C 16.017 13.867,16.109 13.898,16.187 13.935 M3.033 15.249 C 3.033 15.286,3.276 15.749,3.426 15.999 C 3.612 16.308,3.970 16.737,4.272 17.013 C 4.412 17.141,4.530 17.284,4.580 17.386 C 4.680 17.593,4.889 17.806,5.094 17.906 C 5.246 17.981,5.277 17.984,6.375 17.994 L 7.500 18.004 7.500 17.369 L 7.500 16.733 6.825 16.733 C 5.317 16.733,5.042 16.630,3.308 15.421 C 3.157 15.315,3.033 15.238,3.033 15.249 " fill="#1A1C1F" stroke="none" fill-rule="evenodd"></path></svg>