<svg width="24" height="24" viewBox="0 0 24 24" fill="none" xmlns="http://www.w3.org/2000/svg"><path d="M10.580 2.044 C 9.636 2.081,8.956 2.240,8.272 2.584 C 7.696 2.873,7.080 3.384,6.636 3.940 C 5.955 4.794,5.412 5.985,5.182 7.130 C 5.043 7.821,5.005 8.365,4.976 10.100 C 4.930 12.764,5.052 13.874,5.660 16.340 C 5.980 17.639,6.183 18.276,6.428 18.751 C 6.833 19.532,7.486 20.304,7.956 20.555 L 8.193 20.681 8.187 21.053 C 8.180 21.397,8.188 21.437,8.290 21.592 C 8.351 21.684,8.476 21.809,8.567 21.870 L 8.734 21.980 12.000 21.980 L 15.266 21.980 15.433 21.870 C 15.524 21.809,15.649 21.684,15.710 21.592 C 15.810 21.441,15.820 21.391,15.820 21.064 L 15.820 20.703 15.965 20.621 C 16.632 20.247,17.380 19.293,17.747 18.351 C 18.165 17.275,18.591 15.524,18.868 13.740 L 18.980 13.020 18.980 10.640 C 18.980 7.984,18.958 7.633,18.739 6.777 C 18.289 5.013,17.235 3.451,16.002 2.718 C 15.420 2.372,14.691 2.140,14.000 2.081 C 13.434 2.032,11.420 2.010,10.580 2.044 M13.953 3.783 C 14.336 3.810,14.849 3.997,15.215 4.242 C 16.053 4.803,16.794 5.985,17.100 7.250 C 17.244 7.843,17.286 8.589,17.291 10.640 C 17.295 12.555,17.279 12.846,17.101 13.975 C 17.055 14.267,17.024 14.352,16.932 14.449 C 16.871 14.514,16.289 14.922,15.640 15.356 C 14.401 16.184,14.347 16.211,13.723 16.321 C 13.329 16.390,12.217 16.427,11.460 16.395 C 10.243 16.345,9.688 16.233,9.226 15.945 C 8.837 15.703,7.345 14.670,7.133 14.496 C 6.937 14.336,6.929 14.304,6.791 13.260 C 6.709 12.637,6.702 12.429,6.706 10.780 C 6.710 8.908,6.756 7.925,6.865 7.380 C 7.085 6.282,7.798 5.032,8.550 4.426 C 9.079 3.999,9.598 3.809,10.360 3.761 C 10.871 3.729,13.423 3.745,13.953 3.783 M10.940 5.066 C 10.538 5.129,9.995 5.257,9.822 5.330 C 9.107 5.629,8.526 6.244,8.317 6.919 C 8.181 7.359,8.176 7.702,8.296 8.360 C 8.545 9.719,8.666 10.052,9.058 10.453 C 9.460 10.865,9.731 10.981,10.647 11.137 C 11.240 11.238,12.824 11.229,13.448 11.122 C 14.028 11.023,14.353 10.916,14.628 10.733 C 15.091 10.425,15.373 9.949,15.538 9.196 C 15.729 8.323,15.810 7.757,15.787 7.466 C 15.710 6.535,15.061 5.675,14.171 5.324 C 13.670 5.127,13.247 5.072,12.120 5.060 C 11.537 5.053,11.006 5.056,10.940 5.066 M13.060 6.803 C 13.450 6.848,13.766 6.996,13.938 7.214 C 14.052 7.357,14.060 7.389,14.054 7.674 C 14.048 8.005,13.824 9.143,13.747 9.236 C 13.542 9.483,12.002 9.607,10.960 9.459 C 10.412 9.381,10.299 9.342,10.244 9.208 C 10.105 8.870,9.888 7.611,9.936 7.421 C 9.950 7.365,10.025 7.249,10.101 7.164 C 10.303 6.940,10.507 6.863,11.200 6.744 C 11.353 6.718,12.698 6.760,13.060 6.803 M14.208 12.707 C 14.087 12.750,13.987 12.829,13.874 12.972 C 13.655 13.249,13.196 14.191,13.171 14.414 C 13.115 14.907,13.504 15.341,13.999 15.337 C 14.438 15.334,14.622 15.157,15.030 14.340 C 15.321 13.758,15.387 13.527,15.323 13.312 C 15.259 13.096,15.026 12.806,14.863 12.740 C 14.651 12.654,14.394 12.641,14.208 12.707 M9.128 12.747 C 8.836 12.891,8.598 13.320,8.655 13.603 C 8.689 13.775,9.120 14.667,9.301 14.938 C 9.488 15.220,9.691 15.336,10.000 15.336 C 10.505 15.336,10.886 14.912,10.829 14.411 C 10.805 14.198,10.308 13.177,10.115 12.945 C 10.044 12.860,9.927 12.765,9.854 12.735 C 9.676 12.660,9.291 12.667,9.128 12.747 M8.215 17.311 C 8.890 17.734,9.162 17.844,9.860 17.975 C 10.677 18.127,12.792 18.163,13.700 18.039 C 14.742 17.898,15.068 17.774,16.056 17.146 C 16.252 17.021,16.419 16.926,16.427 16.934 C 16.458 16.964,16.224 17.602,16.056 17.946 C 15.706 18.661,15.397 19.014,14.940 19.221 L 14.740 19.311 11.960 19.285 L 9.180 19.259 8.980 19.162 C 8.548 18.952,8.055 18.295,7.764 17.541 C 7.679 17.320,7.598 17.090,7.584 17.028 C 7.559 16.921,7.562 16.918,7.649 16.965 C 7.699 16.991,7.954 17.147,8.215 17.311 " fill="#1A1C1F" stroke="none" fill-rule="evenodd"></path></svg>