<svg xmlns="http://www.w3.org/2000/svg" width="32" height="32" fill="none"><g clip-path="url(#a)"><path fill="#1A1C1F" fill-rule="evenodd" d="M17.486 2c3.086 0 4.872 1.074 6.252 2.9a10.73 10.73 0 0 1 2.155 5.826l.098 3.64a27.4 27.4 0 0 1-.676 6.771l-.753 3.004q-.346 1.13-.562 1.587c-.217.457-.878 1.422-1.12 1.71-.242.287-.93.99-1.911 1.318q.03.117.031.244a1 1 0 0 1-1 1h-8a1 1 0 0 1-.965-1.262 4.4 4.4 0 0 1-2.03-1.484c-.521-.688-.724-1.004-.997-1.526q-.273-.522-.618-1.765l-.56-2.2A27 27 0 0 1 6 15.046l.092-3.946c.056-2.24.815-4.407 2.17-6.199C9.593 3.14 11.46 2 14.58 2zM9.347 23.542q.13.634.404 1.162t.771 1.234c.412.611 1.233 1.062 1.853 1.055l7.15.007c.736 0 1.497-.323 1.965-1.046s.711-1.092.895-1.542q.184-.45.264-.87-2.037 1.284-2.408 1.476c-.37.192-.771.31-1.336.381a47 47 0 0 1-2.905.104 40 40 0 0 1-2.747-.086c-.704-.074-1.162-.21-1.595-.453s-1.613-1.01-2.311-1.422M14.579 4c-2.288 0-3.618.647-4.721 2.106a8.73 8.73 0 0 0-1.751 4.703l-.1 3.669c-.051 2.08.138 4.232.663 6.38q1.163.645 2.014 1.152c.852.507 1.167.725 1.759 1.077s1.723.415 3.575.415c1.851 0 2.818.045 3.575-.415s1.11-.703 1.74-1.077c.659-.392 1.337-.787 1.989-1.14q.68-2.607.678-5.826l-.09-3.895a8.72 8.72 0 0 0-1.767-5.043c-1.068-1.412-2.23-2.102-4.657-2.102zm-1.985 13.54.94 2.896a1 1 0 0 1-1.86.723l-.941-2.895a1 1 0 0 1 1.861-.723m6.7.027a1 1 0 0 1 1.89.61l-.961 2.982a1 1 0 0 1-1.89-.61zM16 6q3.157 0 4.757 1.298c1.067.866 1.252 1.757 1.143 2.713-.084.738-.15 1.313-.414 2.43s-1.23 1.998-2.39 2.2Q17.55 15 16 15c-1.549 0-1.868-.117-3.097-.36-1.23-.242-2.132-1.099-2.407-2.27a25 25 0 0 1-.412-2.333 3 3 0 0 1 .914-2.524Q12.592 6 16 6m0 2c-1.805 0-2.987.358-3.625.963a1 1 0 0 0-.312.695q-.007.253.38 2.255a1 1 0 0 0 .681.729q1.86.353 2.867.358t2.763-.33c.344-.06.628-.293.752-.593.124-.301.33-1.612.407-2.291.032-.28.02-.558-.416-.935C18.905 8.34 17.685 8 16 8" clip-rule="evenodd"/></g><defs><clipPath id="a"><path fill="#fff" d="M0 0h32v32H0z"/></clipPath></defs></svg>