<svg width="20" height="20" viewBox="0 0 20 20" fill="none" xmlns="http://www.w3.org/2000/svg"><path d="M9.433 2.021 C 9.057 2.055,8.523 2.143,8.239 2.218 C 6.869 2.578,5.789 3.456,5.177 4.705 C 4.889 5.295,4.653 6.119,4.560 6.867 C 4.499 7.360,4.499 10.446,4.561 10.933 C 4.612 11.335,4.854 12.800,4.872 12.813 C 4.878 12.818,5.003 12.920,5.150 13.039 C 6.029 13.753,7.590 14.854,7.983 15.038 C 8.391 15.229,8.550 15.245,10.017 15.248 C 11.183 15.250,11.378 15.243,11.577 15.192 C 12.055 15.069,12.495 14.805,13.717 13.908 C 14.261 13.508,15.367 12.641,15.367 12.614 C 15.367 12.607,15.391 12.357,15.421 12.059 C 15.492 11.353,15.506 7.507,15.439 7.000 C 15.303 5.963,14.934 4.895,14.477 4.210 C 13.675 3.008,12.530 2.308,10.998 2.085 C 10.644 2.034,9.711 1.995,9.433 2.021 M10.653 4.034 C 11.727 4.119,12.478 4.339,12.924 4.698 C 13.266 4.973,13.729 5.708,13.827 6.133 C 13.940 6.618,13.908 6.951,13.649 7.994 C 13.480 8.675,13.363 8.936,13.115 9.183 C 12.772 9.527,12.384 9.656,11.300 9.788 C 10.548 9.880,9.272 9.873,8.604 9.773 C 7.501 9.609,7.227 9.516,6.903 9.196 C 6.592 8.890,6.485 8.617,6.268 7.567 C 6.039 6.463,6.050 6.124,6.335 5.541 C 6.739 4.712,7.493 4.276,8.850 4.086 C 9.475 3.998,10.005 3.983,10.653 4.034 M7.821 10.830 C 8.069 10.943,8.174 11.148,8.495 12.141 C 8.780 13.021,8.790 13.204,8.568 13.472 C 8.288 13.810,7.705 13.822,7.457 13.495 C 7.352 13.356,7.223 13.034,7.007 12.366 C 6.728 11.505,6.714 11.329,6.900 11.072 C 7.099 10.797,7.510 10.689,7.821 10.830 M12.745 10.803 C 12.926 10.853,13.143 11.080,13.198 11.276 C 13.256 11.483,13.218 11.672,12.964 12.450 C 12.601 13.563,12.483 13.717,11.997 13.717 C 11.764 13.717,11.725 13.707,11.595 13.616 C 11.501 13.551,11.415 13.449,11.351 13.327 C 11.253 13.141,11.253 13.136,11.293 12.899 C 11.334 12.663,11.696 11.527,11.825 11.233 C 11.926 11.003,12.052 10.873,12.228 10.819 C 12.418 10.761,12.576 10.756,12.745 10.803 M14.281 15.354 C 13.252 16.099,12.705 16.422,12.203 16.580 C 11.767 16.718,11.376 16.741,9.735 16.725 C 8.356 16.712,8.232 16.706,7.994 16.641 C 7.435 16.488,7.008 16.256,6.054 15.590 C 5.800 15.412,5.578 15.267,5.562 15.267 C 5.526 15.267,5.720 15.657,5.926 15.999 C 6.112 16.308,6.470 16.737,6.772 17.013 C 6.912 17.141,7.030 17.284,7.080 17.386 C 7.180 17.593,7.389 17.806,7.594 17.906 L 7.750 17.983 10.007 17.993 C 12.265 18.002,12.265 18.002,12.407 17.930 C 12.655 17.805,12.729 17.735,12.867 17.499 C 12.959 17.341,13.061 17.224,13.193 17.122 C 13.494 16.890,13.963 16.379,14.206 16.016 C 14.423 15.692,14.725 15.114,14.694 15.082 C 14.685 15.074,14.499 15.196,14.281 15.354 " fill="#1A1C1F" stroke="none" fill-rule="evenodd"></path></svg>