<svg width="14" height="14" viewBox="0 0 14 14" fill="none" xmlns="http://www.w3.org/2000/svg"><path d="M6.615 1.414 C 5.955 1.478,5.527 1.588,5.083 1.809 C 4.122 2.287,3.516 3.152,3.256 4.419 C 3.178 4.797,3.152 5.294,3.151 6.397 C 3.150 7.290,3.161 7.445,3.281 8.225 C 3.398 8.990,3.387 8.952,3.543 9.079 C 3.906 9.375,4.731 9.981,5.189 10.288 C 5.744 10.660,5.797 10.672,7.012 10.673 C 8.063 10.675,8.110 10.670,8.458 10.501 C 8.653 10.407,9.143 10.077,9.683 9.677 C 10.013 9.432,10.757 8.846,10.757 8.830 C 10.757 8.825,10.774 8.650,10.795 8.441 C 10.845 7.949,10.854 5.257,10.807 4.900 C 10.712 4.175,10.454 3.427,10.134 2.947 C 9.573 2.105,8.771 1.616,7.699 1.460 C 7.455 1.424,6.795 1.396,6.615 1.414 M7.478 2.824 C 8.196 2.883,8.716 3.033,9.024 3.271 C 9.265 3.457,9.543 3.871,9.647 4.200 C 9.765 4.574,9.750 4.808,9.554 5.596 C 9.436 6.073,9.354 6.255,9.181 6.428 C 8.940 6.669,8.669 6.759,7.910 6.852 C 7.384 6.916,6.491 6.911,6.023 6.841 C 5.251 6.726,5.050 6.658,4.828 6.436 C 4.614 6.222,4.539 6.027,4.387 5.297 C 4.232 4.545,4.237 4.291,4.418 3.910 C 4.684 3.350,5.137 3.057,5.988 2.894 C 6.449 2.806,6.966 2.782,7.478 2.824 M5.474 7.581 C 5.648 7.660,5.722 7.803,5.947 8.499 C 6.146 9.115,6.153 9.243,5.997 9.430 C 5.802 9.667,5.394 9.675,5.220 9.447 C 5.146 9.349,5.056 9.124,4.905 8.656 C 4.710 8.053,4.700 7.930,4.830 7.750 C 4.969 7.558,5.257 7.483,5.474 7.581 M8.922 7.562 C 9.048 7.597,9.200 7.756,9.239 7.893 C 9.280 8.041,9.252 8.178,9.065 8.742 C 8.810 9.507,8.737 9.602,8.398 9.602 C 8.235 9.602,8.207 9.595,8.116 9.531 C 8.051 9.486,7.991 9.414,7.946 9.329 C 7.878 9.199,7.877 9.194,7.904 9.036 C 7.934 8.864,8.126 8.248,8.241 7.957 C 8.317 7.766,8.396 7.646,8.477 7.603 C 8.596 7.539,8.778 7.522,8.922 7.562 M9.996 10.748 C 9.587 11.045,9.111 11.357,8.930 11.448 C 8.670 11.579,8.382 11.665,8.106 11.692 C 7.948 11.708,7.468 11.714,6.815 11.708 C 5.849 11.698,5.762 11.694,5.596 11.648 C 5.204 11.541,4.906 11.380,4.238 10.913 C 4.060 10.788,3.905 10.687,3.893 10.687 C 3.868 10.687,4.004 10.960,4.148 11.199 C 4.278 11.415,4.529 11.716,4.741 11.909 C 4.839 11.998,4.921 12.099,4.956 12.170 C 5.026 12.315,5.173 12.464,5.315 12.534 L 5.425 12.588 7.005 12.595 C 8.585 12.602,8.585 12.602,8.685 12.551 C 8.859 12.463,8.911 12.415,9.007 12.250 C 9.071 12.140,9.144 12.055,9.235 11.985 C 9.403 11.854,9.690 11.559,9.829 11.374 C 10.020 11.120,10.317 10.589,10.285 10.557 C 10.279 10.551,10.149 10.637,9.996 10.748 " fill="#1A1C1F" stroke="none" fill-rule="evenodd"></path></svg>