<svg width="32" height="32" viewBox="0 0 32 32" fill="none" xmlns="http://www.w3.org/2000/svg"><path d="M8.747 2.162 C 7.764 2.341,6.778 2.728,6.010 3.237 C 5.501 3.574,4.660 4.393,4.215 4.987 C 3.058 6.528,2.344 8.415,2.127 10.507 C 2.080 10.966,2.058 12.119,2.056 14.213 C 2.053 17.499,2.075 17.860,2.377 19.584 C 2.639 21.081,3.328 23.861,3.710 24.966 C 4.045 25.934,4.573 26.789,5.333 27.591 C 5.761 28.042,6.118 28.310,6.653 28.580 C 6.940 28.725,6.987 28.769,6.987 28.894 C 6.988 29.319,7.248 29.727,7.648 29.931 C 7.856 30.037,7.921 30.041,8.958 30.010 C 10.046 29.978,10.050 29.977,10.264 29.827 C 10.596 29.593,10.706 29.390,10.749 28.928 C 10.796 28.422,10.713 27.640,10.592 27.456 C 10.542 27.380,10.404 27.250,10.285 27.168 C 10.070 27.019,10.063 27.018,8.986 26.985 L 7.903 26.953 7.548 26.778 C 7.343 26.677,7.060 26.474,6.883 26.300 C 6.495 25.921,5.908 25.030,5.650 24.431 C 5.458 23.984,5.350 23.627,5.407 23.627 C 5.444 23.627,6.153 24.041,7.026 24.574 C 7.767 25.027,8.090 25.171,8.744 25.339 C 9.069 25.423,9.176 25.430,9.331 25.381 C 10.173 25.111,10.346 24.035,9.622 23.576 C 9.484 23.488,9.249 23.377,9.099 23.328 C 8.684 23.192,8.296 22.985,6.960 22.188 C 6.285 21.786,5.520 21.339,5.260 21.195 C 4.999 21.051,4.750 20.880,4.707 20.814 C 4.608 20.663,4.352 19.384,4.198 18.267 C 4.087 17.463,4.080 17.231,4.084 14.267 C 4.087 11.017,4.117 10.421,4.319 9.489 C 4.467 8.805,4.662 8.259,5.012 7.547 C 5.848 5.844,6.868 4.818,8.174 4.369 C 8.972 4.094,9.411 4.046,11.387 4.016 C 15.121 3.959,16.137 4.171,17.383 5.268 C 18.034 5.841,18.892 7.168,19.327 8.275 C 19.552 8.850,19.726 9.572,19.842 10.427 C 19.965 11.322,20.082 11.637,20.361 11.822 C 20.910 12.186,21.681 11.889,21.862 11.244 C 21.977 10.832,21.793 9.434,21.488 8.408 C 21.213 7.484,20.626 6.215,20.124 5.460 C 18.892 3.607,17.444 2.590,15.468 2.187 C 14.979 2.087,14.747 2.080,12.045 2.085 C 9.845 2.088,9.050 2.107,8.747 2.162 M10.693 6.077 C 8.444 6.282,6.724 7.307,6.230 8.737 C 6.003 9.393,6.098 10.708,6.488 12.320 C 6.739 13.361,7.475 14.161,8.504 14.514 C 8.964 14.671,10.472 14.918,11.280 14.967 C 11.715 14.994,11.782 14.985,12.000 14.870 C 12.184 14.772,12.274 14.676,12.387 14.455 C 12.546 14.144,12.563 14.001,12.478 13.695 C 12.397 13.406,12.193 13.193,11.904 13.097 C 11.766 13.051,11.142 12.942,10.518 12.855 C 9.894 12.768,9.283 12.670,9.160 12.637 C 8.844 12.551,8.563 12.252,8.459 11.891 C 8.327 11.427,8.107 10.051,8.107 9.685 C 8.107 9.396,8.129 9.318,8.268 9.126 C 8.595 8.675,9.378 8.312,10.427 8.128 C 11.209 7.990,12.823 8.002,13.660 8.152 C 14.970 8.386,15.773 8.869,15.871 9.482 C 15.892 9.611,15.866 10.023,15.812 10.449 C 15.699 11.336,15.736 11.559,16.045 11.854 C 16.394 12.186,16.732 12.237,17.161 12.023 C 17.584 11.812,17.673 11.610,17.840 10.480 C 18.020 9.266,17.881 8.575,17.317 7.886 C 16.623 7.039,15.482 6.443,14.056 6.184 C 13.386 6.062,11.515 6.003,10.693 6.077 M15.075 14.213 C 14.278 14.611,13.922 15.063,13.661 16.008 C 13.569 16.341,13.317 17.369,13.101 18.293 L 12.708 19.973 12.094 20.007 C 11.393 20.046,11.213 20.111,11.077 20.373 C 10.951 20.617,10.973 21.376,11.114 21.644 C 11.214 21.835,11.549 22.023,11.792 22.025 L 11.930 22.027 11.964 22.680 C 12.003 23.436,12.240 25.554,12.347 26.118 C 12.388 26.329,12.486 26.653,12.567 26.838 C 12.705 27.156,12.714 27.229,12.743 28.240 C 12.777 29.425,12.813 29.559,13.165 29.796 C 13.655 30.126,14.942 30.100,15.386 29.751 C 15.578 29.600,15.731 29.258,15.732 28.973 L 15.733 28.747 20.468 28.747 L 25.202 28.747 25.264 29.074 C 25.388 29.723,25.747 29.984,26.564 30.017 C 27.223 30.044,27.630 29.961,27.873 29.748 C 28.202 29.459,28.227 29.360,28.271 28.213 C 28.308 27.242,28.322 27.145,28.470 26.745 C 28.582 26.443,28.662 26.064,28.741 25.465 C 28.884 24.371,29.067 22.579,29.067 22.268 C 29.067 22.039,29.075 22.027,29.215 22.027 C 29.446 22.027,29.830 21.808,29.918 21.627 C 29.969 21.521,29.996 21.292,29.997 20.957 C 30.000 20.140,29.891 20.044,28.931 20.010 L 28.288 19.988 28.030 18.861 C 27.568 16.842,27.260 15.672,27.102 15.340 C 26.918 14.951,26.568 14.585,26.116 14.308 L 25.787 14.107 24.213 14.073 C 23.348 14.054,21.020 14.037,19.040 14.035 L 15.440 14.030 15.075 14.213 M25.187 16.073 C 25.309 16.132,25.417 16.502,25.842 18.320 C 26.033 19.141,26.203 19.855,26.219 19.907 C 26.246 19.995,25.949 20.000,20.506 20.000 L 14.765 20.000 14.801 19.827 C 14.954 19.101,15.636 16.295,15.680 16.213 C 15.734 16.113,15.871 16.073,16.293 16.035 C 16.743 15.994,25.098 16.030,25.187 16.073 M7.371 17.020 C 7.132 17.089,6.793 17.441,6.715 17.701 C 6.638 17.959,6.650 18.006,7.285 19.949 C 7.745 21.359,7.788 21.442,8.133 21.614 C 8.500 21.797,8.802 21.774,9.155 21.535 C 9.384 21.380,9.573 21.001,9.563 20.717 C 9.559 20.598,9.325 19.801,9.042 18.945 C 8.556 17.473,8.518 17.382,8.331 17.228 C 8.031 16.980,7.733 16.916,7.371 17.020 M26.930 22.182 C 27.005 22.287,27.040 22.418,27.039 22.595 C 27.038 23.070,27.050 23.059,26.370 23.185 C 25.430 23.358,25.194 23.507,25.059 24.013 C 24.943 24.447,25.124 24.876,25.522 25.109 C 25.714 25.221,25.781 25.231,26.249 25.208 L 26.765 25.184 26.738 25.379 C 26.691 25.716,26.554 26.152,26.449 26.299 C 26.394 26.377,26.270 26.477,26.174 26.523 C 25.959 26.625,25.159 26.737,23.760 26.863 C 22.252 26.998,18.809 26.998,17.307 26.862 C 15.714 26.719,15.051 26.628,14.835 26.522 C 14.512 26.363,14.348 26.042,14.267 25.406 L 14.232 25.133 14.463 25.177 C 15.287 25.337,15.785 25.099,15.955 24.466 C 16.036 24.161,15.959 23.866,15.731 23.606 C 15.528 23.375,15.409 23.329,14.639 23.183 L 14.000 23.062 13.965 22.825 C 13.926 22.562,13.993 22.214,14.095 22.149 C 14.242 22.055,15.010 22.042,20.783 22.035 L 26.819 22.027 26.930 22.182 M18.247 23.467 C 17.978 23.530,17.814 23.673,17.536 24.083 C 17.116 24.705,17.041 24.889,17.044 25.288 C 17.046 25.588,17.068 25.671,17.188 25.829 C 17.354 26.047,17.720 26.240,17.965 26.240 C 18.324 26.240,18.746 25.961,18.995 25.560 L 19.102 25.387 20.503 25.387 L 21.905 25.387 22.101 25.682 C 22.411 26.149,22.783 26.314,23.251 26.193 C 23.770 26.059,24.082 25.519,23.943 24.997 C 23.865 24.705,23.395 23.929,23.146 23.680 C 22.964 23.497,22.922 23.481,22.534 23.449 C 21.957 23.400,18.467 23.415,18.247 23.467 " fill="#1A1C1F" stroke="none" fill-rule="evenodd"></path></svg>