<svg xmlns="http://www.w3.org/2000/svg" width="32" height="32" fill="none"><g clip-path="url(#a)"><path fill="#1A1C1F" fill-rule="evenodd" d="M7.1 22.83c.99 1.106 2.166 2.075 3.985 3.27l.571.36c.38.213.777.344 1.342.423q1.548.114 3 .117a38 38 0 0 0 2.906-.104c.483-.061.847-.157 1.175-.303l.701-.4c2.038-1.331 3.057-2.18 4.113-3.358a89 89 0 0 1-.548 2.032c-.205.676-.651 1.376-1.182 2.18a4.34 4.34 0 0 1-2.195 1.708q.03.117.03.245a1 1 0 0 1-.883.993L11.998 30a1 1 0 0 1-.965-1.26 4.4 4.4 0 0 1-2.02-1.474 11 11 0 0 1-1.265-2.145q-.154-.357-.648-2.291M17.485 2c3.085 0 4.871 1.074 6.252 2.9a10.73 10.73 0 0 1 2.155 5.826l.015.373.083 3.266q.06 1.744-.182 3.916-.358.56-1.204 1.71c-1.337 1.819-2.387 2.897-4.805 4.446-.393.252-.794.561-2.105.561h-3.42c-1.275 0-1.545-.22-2.076-.56-2.515-1.608-3.55-2.688-4.749-4.395q-1.199-1.707-1.262-1.77-.19-1.995-.189-3.202t.093-3.972c.056-2.24.814-4.407 2.17-6.199 1.33-1.76 3.115-2.9 6.317-2.896zm-4.892 16.04a1 1 0 0 0-1.891.61l.97 3.009a1 1 0 0 0 1.89-.61zm6.7.027-.933 2.87a1 1 0 0 0 1.861.722l.933-2.87a1 1 0 0 0-1.862-.722M15.998 5q-2.589 0-4.273.665c-1.716.677-2.864 2.448-2.48 4.445.211 1.1.42 1.861.54 2.264a2.9 2.9 0 0 0 2.151 2.002l1.445.226c1.56.238 3.146.261 4.712.072l1.778-.263a2.9 2.9 0 0 0 2.345-2.038c.117-.391.27-.774.54-2.27.337-1.88-.72-3.675-2.29-4.355C19.09 5.15 17.596 5 15.999 5" clip-rule="evenodd"/></g><defs><clipPath id="a"><path fill="#fff" d="M0 0h32v32H0z"/></clipPath></defs></svg>