<svg xmlns="http://www.w3.org/2000/svg" width="32" height="32" fill="none"><g clip-path="url(#a)"><path fill="#1A1C1F" fill-rule="evenodd" d="M13.487 2c3.085 0 4.872 1.074 6.252 2.9a10.73 10.73 0 0 1 2.155 5.826l.008.277a1 1 0 0 1-.998.996.99.99 0 0 1-.984-.936s-.04-.505-.07-.754a8.7 8.7 0 0 0-1.704-4.204c-1.068-1.413-2.231-2.103-4.657-2.103l-2.907-.004c-2.29 0-3.62.647-4.722 2.106a8.7 8.7 0 0 0-1.751 4.703l-.1 3.669c-.051 2.08.138 4.231.663 6.38q1.162.645 2.014 1.151c.852.508 1.167.726 1.759 1.077.106.064.883.308.886.314.435.12.768.521.768.994 0 .567-.46 1.027-1.027 1.027-.108 0-.714-.183-.812-.213a1 1 0 0 1-.084-.017l-.025-.012a3 3 0 0 1-.492-.215c-.234-.13-.683-.414-1.158-.711l-.408-.256c-.27-.168-.53-.329-.745-.456q.128.636.404 1.163.275.528.77 1.234c.413.611 1.234 1.063 1.854 1.055l1.372.003c.555 0 1.003.448 1.003 1L10.75 29a1 1 0 0 1-1 1H8a1 1 0 0 1-.965-1.262 4.4 4.4 0 0 1-2.03-1.485c-.52-.687-.723-1.003-.996-1.526q-.273-.522-.618-1.765l-.56-2.198a27 27 0 0 1-.83-6.718l.092-3.946c.056-2.24.815-4.408 2.17-6.2C5.593 3.14 7.46 2 10.58 2zm11.52 12c1.062 0 1.977.72 2.288 1.745L28.293 20h1.059a.63.63 0 0 1 .64.546l.008.765c0 .334-.23.63-.55.681l-.433.008q.05.242.05.5 0 .17-.388 3.508c-.052.45-.202.867-.43 1.233V29a1 1 0 0 1-1 1h-1a1 1 0 0 1-1-1v-.285a327 327 0 0 1-9.5-.002V29a1 1 0 0 1-1 1h-1a1 1 0 0 1-1-1v-1.758a3 3 0 0 1-.394-1.012q-.07-.366-.406-3.443a2.5 2.5 0 0 1 .033-.787h-.334c-.37 0-.648-.322-.648-.69v-.666a.63.63 0 0 1 .648-.644h1.058l.955-4.091c.246-1.056 1.198-1.91 2.28-1.91zm-10.63 8.003a.5.5 0 0 0-.441.463q-.015.238.06.601l1.17.197a1 1 0 0 1-.213 1.986l-.718-.113.074.642a1 1 0 0 0 .786.864q3.406.354 5.406.357 2 .005 5.29-.34a1 1 0 0 0 .882-.765l.093-.758-.601.1a1 1 0 0 1-.443-1.947l1.282-.221q.066-.24.065-.54c0-.302-.202-.521-.47-.521l-2.157-.001h-.19l-2.073-.001h-.27l-2.118-.001h-.335l-2.175-.001h-.391l-2.074-.001zm8.123 1.396c.315 0 .609.15.797.396l.565.947a1 1 0 0 1-1.66 1.111l-.275-.455h-2.855l-.21.358c-.26.442-.885.663-1.37.355-.483-.306-.61-.806-.407-1.265l.553-.954c.16-.27.437-.45.745-.485zM7.378 17.004a1 1 0 0 1 1.216.535l.009.027.178.548.753 2.322a1 1 0 0 1-1.861.723l-.379-1.166-.183-.564-.378-1.166a1.002 1.002 0 0 1 .645-1.26M24.984 16h-8.991c-.143 0-.284.102-.355.273l-.007.019-.021.07q-.14.51-.851 3.639h11.48l-.848-3.638c-.045-.192-.163-.363-.407-.363M12 6q3.157 0 4.757 1.297c1.067.865 1.252 1.756 1.143 2.714-.047.42-.18 1.278-.18 1.28a1.013 1.013 0 0 1-1.076.867 1 1 0 0 1-.916-1.08c.003-.037.15-.982.185-1.293.032-.279.02-.557-.416-.934-.592-.512-1.812-.85-3.497-.85-1.805 0-2.987.356-3.625.962a1 1 0 0 0-.313.695q-.006.252.38 2.256a1 1 0 0 0 .682.728c.764.144 2.524.35 2.53.35a1.017 1.017 0 0 1 .858 1.233c-.11.486-.56.81-1.057.78-.002 0-1.716-.2-2.552-.366-1.23-.242-2.132-1.098-2.407-2.27a25 25 0 0 1-.412-2.332 3 3 0 0 1 .914-2.525Q8.592 6 12 6" clip-rule="evenodd"/></g><defs><clipPath id="a"><path fill="#fff" d="M0 0h32v32H0z"/></clipPath></defs></svg>