<svg xmlns="http://www.w3.org/2000/svg" width="32" height="32" fill="none"><path fill="#1A1C1F" fill-rule="evenodd" d="M9.067 2.106c-1.938.278-3.346 1.036-4.504 2.424a10.74 10.74 0 0 0-2.403 5.676c-.115 1.045-.196 4.714-.131 5.933.085 1.591.143 2.108.256 2.261.054.073.429.601.832 1.173.964 1.365 1.384 1.878 2.146 2.617.929.902 2.936 2.356 3.621 2.624.228.088 1.034.219 1.078.175.033-.033-.103-1.343-.145-1.403-.016-.025-.162-.113-.324-.196-.775-.399-1.502-1.064-1.752-1.602-.21-.452-1.038-3.144-1.034-3.364.009-.628.575-1.056 1.214-.92.407.087.614.338.819.992l.172.55.187-.163c.28-.246.764-.47 1.174-.543.202-.036.371-.067.376-.069.004-.002.167-.688.36-1.524.194-.836.386-1.619.426-1.739l.073-.219-.647-.035c-.812-.043-2.75-.323-3.198-.462-.692-.213-1.351-.786-1.684-1.463-.302-.612-.806-2.803-.806-3.5s.244-1.494.646-2.11c.294-.452.915-1.031 1.39-1.295 1.155-.643 3.002-.955 5.298-.894 2.436.063 4.018.511 4.992 1.413 1.165 1.079 1.527 2.419 1.148 4.25-.127.611-.314 1.356-.392 1.558-.021.056.285.069 1.581.069 1.708 0 1.901-.025 2.026-.259.073-.136.075-1.028.003-1.703-.233-2.187-1.094-4.243-2.456-5.86-1.039-1.234-2.236-1.942-3.916-2.316-.507-.113-.666-.12-3.226-.134-2.053-.011-2.814.003-3.2.058m5.493 11.97a2.6 2.6 0 0 0-.965.596c-.434.446-.53.718-1.063 3.035a234 234 0 0 1-.512 2.2c-.024.083-.109.093-.789.093-.705 0-.775.009-.943.122-.251.169-.331.433-.299.985.042.721.211.877.984.911l.504.022-.033.221c-.04.264.363 3.82.478 4.227.058.204.078.589.079 1.494.001 1.074.013 1.244.101 1.438.2.44.699.649 1.411.589.674-.056 1.044-.412 1.09-1.048l.021-.298.835.09c1.633.176 2.669.229 4.541.229 1.874 0 2.908-.053 4.547-.229l.84-.091v.221c0 .661.4 1.067 1.108 1.127.703.059 1.204-.152 1.403-.59.088-.194.1-.365.101-1.447.002-.92.022-1.291.08-1.484.102-.336.463-3.395.471-3.99l.007-.461.487-.021c.764-.033.937-.201.972-.945.027-.552-.057-.804-.319-.964-.156-.095-.269-.108-.933-.108-.675 0-.76-.01-.784-.093-.014-.052-.246-1.039-.513-2.194-.268-1.155-.525-2.199-.572-2.32-.119-.303-.418-.751-.614-.915a3 3 0 0 0-.435-.281l-.273-.144-5.44-.009c-2.992-.005-5.5.009-5.573.032m10.517 1.685a.5.5 0 0 1 .176.166c.063.097.987 3.887.987 4.049 0 .013-2.808.024-6.24.024s-6.24-.013-6.24-.029c0-.118.93-3.958.979-4.04.155-.263.031-.258 5.314-.23 2.714.014 4.974.041 5.024.06m-21.93 7.196c0 .037.12.509.267 1.049.2.736.34 1.13.563 1.578.303.613.813 1.417 1.177 1.857.311.376.926.847 1.43 1.097.427.212.449.231.421.371-.035.174.062.5.208.697.057.077.203.197.325.267.215.123.258.127 1.36.127h1.137l.162-.181c.149-.167.16-.204.13-.454a20 20 0 0 1-.033-1.343l-.001-1.072-.706-.034c-1.185-.058-1.528-.178-2.68-.943-1.421-.942-2.619-1.896-3.4-2.708-.198-.206-.36-.344-.36-.308m11.15.194c.941.188 1.149.29 1.323.649.283.584-.009 1.243-.622 1.402-.233.06-.336.052-1.055-.092-.897-.178-1.13-.291-1.302-.628-.214-.42-.094-1.026.253-1.273.122-.087.389-.192.55-.218.017-.002.401.07.853.16m12.45-.105c.298.083.49.234.619.486.226.443.082 1.033-.314 1.29-.138.09-.442.178-.995.288-.719.144-.822.152-1.055.092-.611-.159-.905-.818-.624-1.398.174-.36.35-.45 1.249-.639.956-.202.858-.191 1.12-.119m-4.347.788c.223.121.475.389.529.562.125.4.333 1.613.305 1.782-.072.445-.517.809-.989.809-.49 0-.859-.331-.976-.876l-.07-.324-1.206-.015-1.206-.014-.036.225c-.057.356-.215.656-.434.823-.179.137-.245.154-.584.154-.336 0-.405-.018-.578-.15-.242-.185-.409-.5-.406-.768.001-.111.069-.529.151-.929.266-1.295.257-1.289 2.06-1.331 2.142-.049 3.286-.032 3.44.052"/></svg>