<svg xmlns="http://www.w3.org/2000/svg" width="24" height="24" fill="none"><g clip-path="url(#a)"><path fill="#1A1C1F" fill-rule="evenodd" d="M13.046 2c2.171 0 3.428.756 4.4 2.04a7.55 7.55 0 0 1 1.513 4.049l.072 2.613a19.3 19.3 0 0 1-.444 4.623 43 43 0 0 1-.561 2.256c-.203.689-.424 1.272-.984 2.045-.388.536-.779.87-1.302 1.105a.84.84 0 0 1 .11.419c0 .433-.35.85-.85.85H9a.85.85 0 0 1-.732-1.281c-.635-.291-.866-.533-1.29-1.087a6 6 0 0 1-.926-1.778c-.164-.549-.124-.447-.504-1.946-.38-1.5-.576-3.038-.584-4.583q-.008-1.545.064-2.922a7.55 7.55 0 0 1 1.527-4.362C7.483 2.814 8.74 2 11.001 2.005zm3.407 14.869-.993.66c-.635.407-1.79.59-3.463.59s-2.78-.155-3.456-.59l-.995-.66q.142.66.474 1.25c.333.592.758 1.19 1.552 1.172.795-.016 4.168.009 4.91.009.74 0 1.097-.483 1.46-1.101q.36-.618.51-1.33M11 3.7c-1.52 0-2.37.413-3.09 1.366a5.85 5.85 0 0 0-1.17 3.099l-.072 2.623c-.03 1.211.066 2.421.287 3.61l1.519 1.048.985.653c.152.098 1.188.32 2.537.32 1.35 0 2.238-.124 2.544-.32l1.45-.969 1.048-.726c.193-1.032.293-2.079.298-3.129l-.063-2.83a5.85 5.85 0 0 0-1.184-3.379c-.687-.909-1.459-1.366-3.044-1.362zm3.88 9.04a.85.85 0 0 1 .421 1.042l-.541 1.098a.85.85 0 0 1-1.563-.662l.542-1.098a.85.85 0 0 1 1.14-.38m-4.674.287.554 1.093a.85.85 0 0 1-1.467.853L8.74 13.88a.85.85 0 0 1 1.467-.853M12 5q1.204 0 2.068.278a2.5 2.5 0 0 1 1.682 2.89l-.275 1.318a2 2 0 0 1-1.635 1.566q-1.113.198-1.84.198-.726 0-1.839-.198a2 2 0 0 1-1.635-1.566L8.25 8.168a2.5 2.5 0 0 1 1.681-2.89Q10.796 5 12 5m0 1.7c-.636 0-1.152.07-1.547.196a.8.8 0 0 0-.553.816q.197 1.008.261 1.269c.064.26.1.365.274.393s1.038.173 1.565.176 1.115-.113 1.454-.156c.34-.043.34-.225.386-.413q.046-.188.245-1.16a.8.8 0 0 0-.538-.925C13.153 6.77 12.637 6.7 12 6.7" clip-rule="evenodd"/></g><defs><clipPath id="a"><path fill="#fff" d="M0 0h24v24H0z"/></clipPath></defs></svg>