<svg xmlns="http://www.w3.org/2000/svg" width="28" height="28" fill="none"><g clip-path="url(#a)"><path fill="#1A1C1F" fill-rule="evenodd" d="M6.212 19.976c.867.968 1.896 1.816 3.487 2.86l.5.317c.332.186.68.3 1.175.37q1.353.099 2.624.102 1.27.002 2.543-.09c.423-.055.741-.138 1.028-.266l.614-.35c1.783-1.165 2.674-1.908 3.599-2.938q-.387 1.47-.48 1.778c-.18.591-.57 1.204-1.034 1.907a3.8 3.8 0 0 1-1.921 1.495.875.875 0 0 1-.746 1.083l-7.102.006a.875.875 0 0 1-.845-1.103 3.85 3.85 0 0 1-1.768-1.29 9.5 9.5 0 0 1-1.106-1.876q-.136-.313-.568-2.005M15.3 1.75c2.7 0 4.263.94 5.47 2.537a9.4 9.4 0 0 1 1.886 5.099l.014.326.072 2.858q.053 1.525-.16 3.426-.31.489-1.052 1.497c-1.17 1.59-2.09 2.534-4.204 3.89-.345.22-.696.49-1.843.49h-2.993c-1.115 0-1.35-.193-1.816-.49-2.2-1.407-3.106-2.352-4.155-3.846Q5.47 16.044 5.414 15.99q-.167-1.746-.165-2.802 0-1.057.08-3.475a9.4 9.4 0 0 1 1.9-5.424c1.164-1.54 2.725-2.538 5.526-2.534zm-4.28 14.036a.875.875 0 0 0-1.655.533l.849 2.633a.875.875 0 0 0 1.654-.534zm5.862.023-.816 2.51a.875.875 0 0 0 1.629.633l.815-2.511a.875.875 0 0 0-1.628-.632M13.999 4.375q-2.265 0-3.738.581c-1.502.593-2.507 2.142-2.171 3.89.185.962.368 1.629.473 1.981a2.54 2.54 0 0 0 1.882 1.752l1.264.198c1.366.208 2.753.228 4.123.062l1.556-.23a2.54 2.54 0 0 0 2.052-1.782c.102-.343.237-.678.472-1.986.295-1.645-.63-3.216-2.004-3.812-1.205-.522-2.512-.654-3.91-.654" clip-rule="evenodd"/></g><defs><clipPath id="a"><path fill="#fff" d="M0 0h28v28H0z"/></clipPath></defs></svg>