<svg xmlns="http://www.w3.org/2000/svg" width="20" height="20" fill="none"><g clip-path="url(#a)"><path fill="#1A1C1F" fill-rule="evenodd" d="M3.01 15.2q1.053.759 1.493 1.029c.44.27.997.47 1.658.514H7.5V18H5.502a1 1 0 0 1-.975-.78c-.6-.425-1.118-1.069-1.517-2.02m10.534-5.7q.135.003.265.002h1.195l.243.001h.1l.149.002c.577.005 1.146.46 1.277.971.088.341.274.67.56 1.985l.158.537H18v2l-.38.003q-.06.519-.087.664a1 1 0 0 1-.034.139v2.194h-2v-.907l-.094.035a16.4 16.4 0 0 1-4.811 0l-.095-.034V18h-2v-2.19l-.003-.01a9 9 0 0 1-.113-.8H8v-2h.508l.158-.538.523-1.876c.163-.557.648-1.084 1.435-1.084zM7.477 2c3.685 0 5.474 2.503 5.52 6.006V8.5h-1.963a26 26 0 0 0 .368-1.682c.129-.864-.672-2.063-1.332-2.365Q9.08 4 7.502 4q-1.731 0-2.754.546a2.27 2.27 0 0 0-1.144 2.276q.294 1.42.374 1.692c.16.546.596.962 1.141 1.099q1.455.26 2.383.266c.28.002.593-.02.924-.051a2.7 2.7 0 0 0-.196.475l-.482 1.727c-.43.113-.748.504-.748.969v2q0 .13.033.25h-.622c-.474 0-.946-.176-1.26-.386a54 54 0 0 1-1.643-1.16 25 25 0 0 1-1.142-.897Q2 10.839 2 10.008V8.006C2 4.502 3.708 2 7.477 2m2.669 11.888a.501.501 0 0 0-.259.966l.966.259a.5.5 0 0 0 .258-.966zm5.708 0-.966.258a.5.5 0 1 0 .258.966l.965-.258a.5.5 0 1 0-.258-.966m-11.089-3.1a.75.75 0 0 0-.5.85l.564 1.694a.75.75 0 0 0 1.41-.47l-.564-1.694a.75.75 0 0 0-.91-.38M15.4 11h-4.8l-.59 2H16z" clip-rule="evenodd"/></g><defs><clipPath id="a"><path fill="#fff" d="M0 0h20v20H0z"/></clipPath></defs></svg>