<svg width="28" height="28" viewBox="0 0 28 28" fill="none" xmlns="http://www.w3.org/2000/svg"><path d="M11.153 1.892 C 8.731 2.333,7.007 3.914,5.942 6.669 C 5.518 7.766,5.395 8.455,5.316 10.191 C 5.244 11.757,5.284 14.975,5.385 15.820 C 5.543 17.134,5.809 18.437,6.301 20.305 C 6.781 22.127,7.002 22.656,7.654 23.531 C 8.143 24.189,8.650 24.654,9.185 24.935 C 9.562 25.133,9.613 25.175,9.614 25.285 C 9.614 25.649,9.843 26.011,10.179 26.183 C 10.350 26.270,10.485 26.273,14.000 26.273 C 17.494 26.273,17.651 26.270,17.817 26.184 C 18.154 26.011,18.387 25.658,18.387 25.321 C 18.387 25.167,18.401 25.153,18.730 24.995 C 19.403 24.671,20.011 24.085,20.578 23.217 C 21.087 22.435,21.329 21.775,21.812 19.845 C 22.637 16.553,22.756 15.494,22.712 11.877 C 22.676 8.880,22.616 8.349,22.166 6.990 C 21.470 4.891,20.158 3.217,18.597 2.437 C 18.181 2.230,17.554 2.019,17.035 1.914 C 16.606 1.826,16.404 1.820,14.039 1.824 C 12.114 1.827,11.419 1.844,11.153 1.892 M16.587 3.615 C 17.942 3.859,18.762 4.433,19.649 5.760 C 20.153 6.515,20.500 7.327,20.717 8.260 C 20.889 9.000,20.925 9.738,20.928 12.553 C 20.930 15.455,20.919 15.643,20.650 17.103 C 20.436 18.265,20.454 18.237,19.610 18.718 C 19.284 18.904,18.647 19.282,18.196 19.556 C 16.503 20.588,16.626 20.556,14.280 20.554 C 12.518 20.552,11.762 20.505,11.306 20.369 C 11.181 20.332,10.503 19.959,9.798 19.540 C 9.093 19.120,8.305 18.658,8.047 18.512 L 7.578 18.247 7.429 17.465 C 7.105 15.775,7.029 14.873,7.035 12.833 C 7.040 10.985,7.111 9.340,7.215 8.637 C 7.406 7.337,8.192 5.737,9.090 4.818 C 9.643 4.251,10.405 3.847,11.317 3.636 C 11.724 3.541,12.665 3.508,14.443 3.524 C 15.765 3.537,16.268 3.558,16.587 3.615 M12.903 5.318 C 10.926 5.474,9.388 6.380,8.951 7.645 C 8.793 8.101,8.804 8.882,8.980 9.823 C 9.226 11.141,9.400 11.576,9.874 12.060 C 10.303 12.498,10.800 12.706,12.063 12.976 L 12.763 13.125 14.023 13.098 C 15.674 13.063,16.710 12.896,17.444 12.547 C 17.839 12.360,18.408 11.806,18.588 11.433 C 18.870 10.852,19.146 9.390,19.152 8.447 C 19.156 7.857,19.148 7.797,19.026 7.508 C 18.774 6.911,18.195 6.340,17.451 5.953 C 16.578 5.498,15.737 5.322,14.327 5.297 C 13.801 5.288,13.160 5.297,12.903 5.318 M15.830 7.201 C 16.665 7.421,17.188 7.748,17.339 8.144 C 17.432 8.386,17.416 8.687,17.265 9.595 C 17.129 10.404,17.054 10.630,16.853 10.831 C 16.659 11.026,16.531 11.069,15.769 11.200 C 14.593 11.402,13.427 11.401,12.234 11.197 C 11.457 11.064,11.341 11.025,11.147 10.832 C 10.941 10.625,10.875 10.418,10.711 9.459 C 10.521 8.346,10.557 8.083,10.938 7.773 C 11.301 7.479,11.755 7.288,12.451 7.136 C 12.807 7.058,13.012 7.050,14.117 7.065 C 15.288 7.081,15.408 7.090,15.830 7.201 M9.950 14.893 C 9.595 14.995,9.286 15.488,9.359 15.836 C 9.430 16.175,10.239 18.541,10.330 18.677 C 10.543 18.992,11.025 19.110,11.369 18.932 C 11.645 18.790,11.899 18.401,11.900 18.117 C 11.900 17.998,11.011 15.372,10.919 15.222 C 10.859 15.125,10.735 15.027,10.581 14.955 C 10.321 14.834,10.196 14.822,9.950 14.893 M17.283 14.977 C 17.006 15.102,16.911 15.297,16.484 16.613 C 15.963 18.217,15.968 18.190,16.122 18.505 C 16.413 19.100,17.227 19.190,17.582 18.666 C 17.697 18.498,18.391 16.429,18.484 15.978 C 18.554 15.636,18.514 15.401,18.352 15.208 C 18.097 14.905,17.652 14.809,17.283 14.977 M8.922 21.062 C 10.895 22.298,10.835 22.283,13.953 22.283 C 17.076 22.283,17.096 22.279,18.695 21.301 C 19.089 21.060,19.499 20.818,19.605 20.764 L 19.799 20.665 19.766 20.798 C 19.643 21.300,19.191 22.162,18.736 22.764 C 18.489 23.091,18.058 23.423,17.743 23.528 C 17.613 23.572,16.697 23.590,14.025 23.602 L 10.479 23.617 10.151 23.454 C 9.971 23.364,9.716 23.196,9.585 23.081 C 9.179 22.723,8.512 21.666,8.310 21.060 C 8.202 20.736,8.194 20.673,8.257 20.673 C 8.281 20.673,8.580 20.848,8.922 21.062 " fill="#1A1C1F" stroke="none" fill-rule="evenodd"></path></svg>