<svg width="28" height="28" viewBox="0 0 28 28" fill="none" xmlns="http://www.w3.org/2000/svg"><path d="M8.493 1.821 C 7.511 1.864,6.795 2.031,5.979 2.407 C 4.006 3.318,2.338 5.858,1.938 8.563 C 1.718 10.053,1.704 14.877,1.916 15.852 C 1.959 16.045,2.654 17.069,3.494 18.177 C 4.186 19.088,5.247 20.056,6.572 20.985 C 7.369 21.544,7.733 21.725,8.250 21.820 C 8.488 21.863,8.696 21.886,8.712 21.870 C 8.750 21.833,8.637 20.767,8.585 20.671 C 8.564 20.631,8.435 20.539,8.298 20.466 C 7.631 20.109,6.979 19.493,6.763 19.016 C 6.621 18.702,6.138 17.192,5.972 16.543 C 5.844 16.041,5.866 15.846,6.080 15.602 C 6.261 15.396,6.461 15.307,6.744 15.307 C 7.208 15.307,7.436 15.543,7.674 16.272 L 7.799 16.655 8.018 16.487 C 8.303 16.268,8.650 16.116,9.022 16.048 L 9.321 15.993 9.564 14.950 C 9.698 14.376,9.865 13.687,9.936 13.417 L 10.064 12.927 9.780 12.927 C 9.096 12.926,6.970 12.614,6.563 12.453 C 6.040 12.247,5.510 11.759,5.248 11.244 C 4.951 10.657,4.559 8.915,4.555 8.167 C 4.552 7.569,4.634 7.231,4.927 6.636 C 5.271 5.935,5.957 5.308,6.737 4.980 C 7.656 4.594,8.838 4.418,10.500 4.419 C 13.324 4.421,14.834 4.912,15.753 6.125 C 16.516 7.132,16.617 8.303,16.109 10.230 C 16.000 10.641,15.989 10.734,16.042 10.755 C 16.148 10.796,18.578 10.780,18.800 10.737 C 19.125 10.674,19.154 10.618,19.173 10.029 C 19.218 8.542,18.720 6.672,17.901 5.261 C 16.962 3.644,15.863 2.666,14.405 2.152 C 13.583 1.862,13.293 1.831,11.153 1.809 C 10.088 1.798,8.891 1.803,8.493 1.821 M13.697 12.315 L 12.623 12.343 12.375 12.481 C 12.239 12.556,12.008 12.746,11.862 12.902 C 11.488 13.301,11.396 13.599,10.706 16.613 C 10.609 17.037,10.510 17.410,10.486 17.442 C 10.455 17.483,10.266 17.500,9.836 17.500 C 9.108 17.500,8.948 17.554,8.815 17.846 C 8.663 18.182,8.728 18.892,8.928 19.077 C 9.067 19.205,9.341 19.273,9.724 19.273 L 10.044 19.273 10.020 19.402 C 9.976 19.628,10.296 22.617,10.413 23.077 C 10.439 23.179,10.475 23.800,10.492 24.457 C 10.523 25.650,10.523 25.650,10.649 25.839 C 10.972 26.328,12.001 26.425,12.461 26.010 C 12.651 25.838,12.787 25.527,12.787 25.262 C 12.787 25.074,12.706 25.078,13.930 25.202 C 15.924 25.404,19.076 25.404,21.070 25.202 C 22.316 25.076,22.213 25.066,22.214 25.305 C 22.217 25.912,22.768 26.320,23.502 26.261 C 23.889 26.230,24.193 26.079,24.351 25.840 L 24.477 25.650 24.507 24.457 C 24.524 23.800,24.560 23.179,24.586 23.077 C 24.658 22.797,24.916 20.697,24.945 20.149 C 24.959 19.885,24.982 19.581,24.995 19.472 L 25.019 19.273 25.308 19.273 C 25.892 19.273,26.137 19.134,26.229 18.750 C 26.299 18.460,26.264 17.920,26.168 17.781 C 26.007 17.552,25.914 17.525,25.205 17.500 C 24.673 17.482,24.525 17.462,24.495 17.407 C 24.474 17.368,24.370 16.959,24.265 16.497 C 23.782 14.378,23.554 13.506,23.412 13.236 C 23.233 12.897,22.961 12.615,22.656 12.453 L 22.423 12.329 18.597 12.308 C 16.492 12.296,14.287 12.300,13.697 12.315 M21.931 13.811 C 22.028 13.836,22.069 13.898,22.151 14.151 C 22.236 14.410,22.835 16.850,22.937 17.348 L 22.967 17.500 17.500 17.500 L 12.033 17.500 12.064 17.348 C 12.193 16.735,12.840 14.121,12.896 13.987 C 12.971 13.809,13.020 13.789,13.487 13.749 C 13.838 13.719,21.803 13.777,21.931 13.811 M2.770 20.195 C 2.783 20.240,2.849 20.487,2.916 20.743 C 3.221 21.908,3.471 22.479,4.081 23.407 C 4.587 24.177,5.107 24.650,5.868 25.032 C 6.074 25.135,6.113 25.175,6.114 25.282 C 6.114 25.508,6.208 25.758,6.356 25.927 C 6.619 26.226,6.685 26.242,7.772 26.264 L 8.754 26.284 8.910 26.107 C 9.061 25.934,9.065 25.922,9.036 25.623 C 9.020 25.455,9.007 24.926,9.007 24.449 L 9.007 23.581 8.388 23.551 C 7.686 23.517,7.351 23.444,6.883 23.222 C 6.009 22.806,3.940 21.257,3.082 20.375 C 2.818 20.105,2.730 20.054,2.770 20.195 M12.446 20.248 C 13.312 20.424,13.509 20.519,13.655 20.832 C 13.780 21.101,13.791 21.270,13.699 21.528 C 13.616 21.761,13.505 21.881,13.277 21.986 C 13.027 22.100,12.796 22.095,12.160 21.960 C 11.199 21.757,10.990 21.585,10.990 21.000 C 10.990 20.597,11.120 20.380,11.452 20.225 C 11.583 20.164,11.711 20.114,11.737 20.114 C 11.762 20.114,12.082 20.175,12.446 20.248 M23.644 20.279 C 24.185 20.593,24.148 21.473,23.583 21.749 C 23.352 21.862,22.389 22.073,22.106 22.073 C 21.500 22.073,21.090 21.482,21.305 20.919 C 21.455 20.526,21.614 20.441,22.587 20.233 C 23.183 20.105,23.356 20.112,23.644 20.279 M19.755 20.967 C 19.850 21.039,19.958 21.159,19.997 21.234 C 20.085 21.404,20.190 21.852,20.276 22.430 C 20.336 22.825,20.335 22.897,20.273 23.046 C 20.178 23.273,20.035 23.421,19.810 23.525 C 19.288 23.766,18.755 23.463,18.617 22.846 L 18.561 22.599 18.210 22.570 C 18.017 22.553,17.539 22.540,17.147 22.540 L 16.435 22.540 16.403 22.738 C 16.359 23.005,16.160 23.364,15.987 23.487 C 15.875 23.567,15.779 23.587,15.513 23.587 C 15.223 23.587,15.158 23.571,15.014 23.462 C 14.924 23.392,14.803 23.240,14.746 23.123 C 14.627 22.876,14.636 22.719,14.816 21.857 C 14.945 21.244,15.023 21.076,15.226 20.970 C 15.467 20.844,15.827 20.824,17.760 20.831 L 19.584 20.837 19.755 20.967 " fill="#1A1C1F" stroke="none" fill-rule="evenodd"></path></svg>