<svg xmlns="http://www.w3.org/2000/svg" width="12" height="12" fill="none"><g clip-path="url(#a)"><path fill="#1A1C1F" fill-rule="evenodd" d="M1.806 9.12q.631.456.896.617c.264.163.598.282.995.309H4.5v.754H3.302a.6.6 0 0 1-.585-.467c-.36-.256-.671-.641-.91-1.213m6.32-3.42h.16l.689.002h.322c.347.004.689.277.767.584.053.205.165.401.335 1.19l.095.323h.306V9L10.572 9q-.035.311-.052.399a1 1 0 0 1-.02.083V10.8H9.3v-.544l-.057.02a9.8 9.8 0 0 1-2.887 0l-.056-.02v.544H5.1V9.486A5 5 0 0 1 5.03 9H4.8V7.8h.305l.094-.323.314-1.126c.098-.334.389-.65.86-.65zm-3.64-4.5c2.21 0 3.285 1.502 3.313 3.603V5.1H6.62c.049-.17.195-.832.222-1.01.076-.518-.404-1.237-.8-1.418Q5.448 2.4 4.502 2.4q-1.04 0-1.653.327c-.464.248-.767.81-.686 1.366q.176.852.224 1.015a.96.96 0 0 0 .685.66q.872.156 1.43.16c.167 0 .355-.012.554-.031q-.071.133-.118.285L4.65 7.218A.6.6 0 0 0 4.2 7.8V9q.001.078.02.15h-.373c-.284 0-.568-.105-.757-.231-.118-.08-.337-.23-.57-.396l-.28-.201-.135-.099q-.348-.257-.685-.539-.22-1.18-.22-1.678V4.803C1.2 2.701 2.225 1.2 4.487 1.2m1.601 7.133a.3.3 0 0 0-.154.58l.58.155a.3.3 0 0 0 .154-.58zm3.425 0-.58.155a.3.3 0 1 0 .155.58l.58-.156a.3.3 0 1 0-.155-.58M2.86 6.473a.45.45 0 0 0-.3.51L2.898 8a.45.45 0 0 0 .846-.282L3.405 6.7a.45.45 0 0 0-.546-.228m6.38.127H6.36l-.353 1.2H9.6z" clip-rule="evenodd"/></g><defs><clipPath id="a"><path fill="#fff" d="M0 0h12v12H0z"/></clipPath></defs></svg>