<svg xmlns="http://www.w3.org/2000/svg" width="28" height="28" fill="none"><g clip-path="url(#a)"><path fill="#1A1C1F" fill-rule="evenodd" d="M15.3 1.75c2.7 0 4.263.94 5.471 2.537a9.4 9.4 0 0 1 1.886 5.099l.085 3.184a24 24 0 0 1-.591 5.925l-.659 2.629q-.302.988-.492 1.388c-.19.4-.768 1.244-.98 1.496-.212.251-.814.867-1.672 1.153q.027.102.027.214a.874.874 0 0 1-.875.875h-7a.875.875 0 0 1-.845-1.104 3.84 3.84 0 0 1-1.775-1.299c-.457-.602-.634-.878-.873-1.335q-.24-.457-.541-1.545l-.489-1.924a23.7 23.7 0 0 1-.727-5.878l.08-3.453a9.4 9.4 0 0 1 1.9-5.424c1.164-1.54 2.797-2.538 5.527-2.538zM8.18 20.599q.114.556.353 1.017.24.462.675 1.08c.36.535 1.079.929 1.621.923l6.257.006c.643 0 1.31-.283 1.719-.915s.622-.956.783-1.35q.16-.393.231-.761-1.782 1.125-2.107 1.292c-.324.168-.675.27-1.169.333q-1.342.087-2.542.091t-2.404-.075c-.615-.065-1.017-.184-1.395-.397-.379-.212-1.412-.884-2.022-1.244M12.757 3.5c-2.002 0-3.166.566-4.132 1.843a7.64 7.64 0 0 0-1.532 4.115l-.086 3.21a21.2 21.2 0 0 0 .58 5.583q1.017.564 1.762 1.008c.745.443 1.02.634 1.539.942s1.507.363 3.127.363 2.467.04 3.13-.363.971-.615 1.521-.942c.577-.343 1.17-.689 1.74-.998q.595-2.28.594-5.098l-.079-3.407a7.63 7.63 0 0 0-1.546-4.413c-.934-1.236-1.951-1.84-4.074-1.84zM11.02 15.348l.823 2.534a.875.875 0 0 1-1.629.632l-.823-2.533a.875.875 0 0 1 1.629-.633m5.862.023a.875.875 0 0 1 1.654.534l-.84 2.61a.875.875 0 0 1-1.655-.534zM14 5.25q2.763 0 4.163 1.136c.933.757 1.095 1.537 1 2.374a15 15 0 0 1-.363 2.126c-.23.978-1.076 1.748-2.09 1.925q-1.355.315-2.71.314c-1.355 0-1.634-.102-2.71-.315-1.076-.212-1.866-.962-2.106-1.986a22 22 0 0 1-.36-2.042c-.096-.82.2-1.639.8-2.208Q11.017 5.25 14 5.25M14 7c-1.579 0-2.613.313-3.171.843a.88.88 0 0 0-.274.608q-.006.22.333 1.973c.072.308.303.55.596.638q1.627.309 2.508.313.88.005 2.418-.289c.3-.052.55-.256.658-.519s.288-1.41.356-2.005c.027-.244.017-.487-.364-.817C16.542 7.296 15.474 7 14 7" clip-rule="evenodd"/></g><defs><clipPath id="a"><path fill="#fff" d="M0 0h28v28H0z"/></clipPath></defs></svg>