<svg xmlns="http://www.w3.org/2000/svg" width="16" height="16" fill="none"><g clip-path="url(#a)"><path fill="#1A1C1F" fill-rule="evenodd" d="M2.408 12.16q.842.607 1.195.823c.352.217.797.376 1.326.411H6V14.4H4.403a.8.8 0 0 1-.78-.623c-.48-.34-.894-.855-1.214-1.617m8.428-4.56.212.001h.875l.237.002h.236c.462.005.918.37 1.023.778.07.273.219.535.447 1.588l.126.43h.408v1.6l-.304.001a9 9 0 0 1-.07.532 1 1 0 0 1-.026.11V14.4h-1.6v-.726l-.076.028a13.1 13.1 0 0 1-3.85 0l-.074-.027v.725H6.8v-1.751A7 7 0 0 1 6.707 12H6.4v-1.6h.406l.126-.43.419-1.502c.13-.445.518-.868 1.147-.868zm-4.854-6c2.947 0 4.38 2.002 4.416 4.804V6.8H8.827c.065-.228.26-1.11.295-1.346.102-.691-.538-1.65-1.066-1.892Q7.264 3.2 6.002 3.2q-1.385 0-2.203.436a1.82 1.82 0 0 0-.915 1.821q.234 1.137.299 1.354c.127.437.477.77.913.879q1.162.21 1.906.213c.223.001.474-.015.74-.041a2 2 0 0 0-.158.38L6.2 9.624a.8.8 0 0 0-.599.775v1.6q0 .105.027.2h-.498a1.9 1.9 0 0 1-1.009-.309 43 43 0 0 1-1.313-.927 20 20 0 0 1-.914-.719Q1.6 8.671 1.6 8.006V6.404C1.6 3.601 2.967 1.6 5.982 1.6m2.134 9.51a.4.4 0 0 0-.206.773l.773.207a.4.4 0 0 0 .206-.773zm4.567 0-.773.207a.4.4 0 1 0 .206.773l.773-.207a.4.4 0 1 0-.206-.773m-8.87-2.48a.6.6 0 0 0-.4.68l.45 1.355a.6.6 0 0 0 1.129-.376L4.54 8.935a.6.6 0 0 0-.728-.304m8.507.17H8.48l-.472 1.6H12.8z" clip-rule="evenodd"/></g><defs><clipPath id="a"><path fill="#fff" d="M0 0h16v16H0z"/></clipPath></defs></svg>