<svg width="16" height="16" viewBox="0 0 16 16" fill="none" xmlns="http://www.w3.org/2000/svg"><path d="M5.560 1.616 C 4.934 1.678,4.523 1.768,4.103 1.934 C 2.906 2.407,2.113 3.390,1.778 4.813 C 1.640 5.401,1.621 5.604,1.607 6.640 C 1.589 8.046,1.625 8.690,1.771 9.555 C 1.835 9.933,1.892 10.246,1.897 10.250 C 1.902 10.254,2.003 10.336,2.120 10.431 C 2.766 10.957,4.040 11.860,4.332 11.999 C 4.609 12.132,4.865 12.187,5.287 12.206 L 5.627 12.221 5.627 11.204 C 5.627 10.220,5.629 10.182,5.684 10.065 C 5.759 9.905,5.945 9.722,6.087 9.668 L 6.201 9.624 6.345 9.099 C 6.471 8.640,6.644 8.083,6.706 7.940 C 6.724 7.896,6.688 7.893,6.154 7.893 C 5.840 7.893,5.452 7.880,5.291 7.865 C 4.850 7.821,4.112 7.691,3.941 7.627 C 3.710 7.541,3.493 7.368,3.369 7.170 C 3.228 6.947,3.170 6.784,3.071 6.333 C 2.922 5.660,2.896 5.489,2.896 5.173 C 2.896 4.908,2.906 4.838,2.970 4.653 C 3.063 4.382,3.212 4.154,3.448 3.917 C 3.599 3.767,3.689 3.704,3.904 3.599 C 4.367 3.375,4.809 3.275,5.580 3.222 C 6.675 3.145,7.809 3.356,8.300 3.727 C 8.566 3.928,8.909 4.432,9.041 4.815 C 9.082 4.935,9.093 5.039,9.093 5.297 C 9.093 5.632,9.058 5.851,8.898 6.512 C 8.845 6.730,8.841 6.773,8.873 6.785 C 8.894 6.793,9.248 6.800,9.660 6.800 L 10.408 6.800 10.392 6.327 C 10.355 5.291,10.190 4.538,9.842 3.827 C 9.639 3.412,9.411 3.093,9.079 2.760 C 8.337 2.015,7.383 1.647,6.107 1.616 C 5.865 1.610,5.619 1.610,5.560 1.616 M8.573 7.624 C 8.172 7.640,8.137 7.646,7.991 7.720 C 7.805 7.813,7.627 7.964,7.523 8.116 C 7.427 8.257,7.351 8.485,7.054 9.533 L 6.811 10.387 6.606 10.394 L 6.400 10.402 6.400 11.201 L 6.400 12.000 6.530 12.000 C 6.603 12.000,6.672 12.015,6.686 12.033 C 6.746 12.110,6.780 12.565,6.793 13.460 L 6.807 14.400 7.603 14.400 L 8.398 14.400 8.406 14.047 C 8.410 13.830,8.424 13.695,8.440 13.698 C 9.623 13.886,11.177 13.886,12.360 13.698 C 12.376 13.695,12.390 13.830,12.394 14.047 L 12.402 14.400 13.197 14.400 L 13.992 14.400 14.010 13.500 C 14.029 12.556,14.065 12.053,14.116 12.020 C 14.133 12.010,14.204 12.001,14.273 12.000 L 14.400 12.000 14.400 11.200 L 14.400 10.400 14.202 10.400 C 14.092 10.400,13.997 10.390,13.989 10.377 C 13.981 10.364,13.897 10.055,13.802 9.690 C 13.635 9.051,13.454 8.474,13.336 8.204 C 13.263 8.036,13.032 7.816,12.820 7.713 L 12.653 7.631 10.827 7.618 C 9.822 7.611,8.808 7.614,8.573 7.624 M4.193 8.641 C 4.427 8.706,4.507 8.843,4.762 9.613 C 5.037 10.443,5.043 10.585,4.816 10.812 C 4.677 10.951,4.551 10.996,4.346 10.981 C 4.013 10.957,3.920 10.827,3.641 9.994 C 3.380 9.213,3.368 9.105,3.518 8.861 C 3.639 8.665,3.933 8.569,4.193 8.641 M12.388 9.033 C 12.427 9.162,12.534 9.514,12.625 9.817 L 12.791 10.368 12.696 10.384 C 12.643 10.392,11.567 10.400,10.304 10.400 L 8.008 10.400 8.190 9.780 C 8.291 9.439,8.397 9.079,8.427 8.980 L 8.482 8.800 10.399 8.800 L 12.317 8.800 12.388 9.033 M8.356 11.177 C 8.720 11.267,8.998 11.363,9.060 11.421 C 9.244 11.590,9.180 11.954,8.948 12.064 C 8.857 12.108,8.835 12.108,8.649 12.070 C 8.291 11.997,7.841 11.862,7.770 11.806 C 7.690 11.743,7.627 11.609,7.627 11.503 C 7.627 11.371,7.727 11.209,7.844 11.151 C 7.964 11.092,8.020 11.094,8.356 11.177 M12.950 11.148 C 13.073 11.208,13.173 11.367,13.173 11.503 C 13.173 11.609,13.110 11.743,13.030 11.806 C 12.959 11.862,12.509 11.997,12.149 12.070 C 11.956 12.110,11.942 12.109,11.847 12.060 C 11.610 11.938,11.556 11.576,11.750 11.410 C 11.806 11.361,12.103 11.261,12.480 11.162 C 12.792 11.081,12.809 11.080,12.950 11.148 M2.427 12.203 C 2.427 12.246,2.733 12.797,2.862 12.984 C 2.938 13.095,3.141 13.328,3.314 13.503 C 3.499 13.691,3.647 13.865,3.676 13.930 C 3.739 14.072,3.916 14.247,4.075 14.325 C 4.197 14.385,4.222 14.387,5.100 14.395 L 6.000 14.403 6.000 13.895 L 6.000 13.387 5.460 13.387 C 4.254 13.386,4.034 13.304,2.647 12.337 C 2.526 12.252,2.427 12.192,2.427 12.203 " fill="#1A1C1F" stroke="none" fill-rule="evenodd"></path></svg>