<svg xmlns="http://www.w3.org/2000/svg" width="12" height="12" fill="none"><g clip-path="url(#a)"><path fill="#1A1C1F" fill-rule="evenodd" d="M7.202 10.8h-2.4a.6.6 0 0 1-.585-.467c-.36-.256-.671-.641-.91-1.213q.63.455.895.617c.265.162.598.282.995.308h1.61c.347-.023.702-.13.995-.308q.293-.179 1.04-.722c-.25.602-.61 1.07-1.065 1.355q-.133.43-.575.43M5.986 1.2c2.21 0 3.284 1.501 3.312 3.603L9.3 6.008c0 .468-.022 1.047-.088 1.567q-.328.285-.813.647-.486.363-.985.696c-.192.13-.47.232-.757.232h-1.31c-.285 0-.568-.105-.757-.232s-.636-.438-.985-.696a15 15 0 0 1-.685-.538q-.22-1.18-.22-1.68v-1.2C2.7 2.7 3.725 1.2 5.986 1.2M4.906 6.7a.45.45 0 0 0-.847.282l.339 1.016a.45.45 0 0 0 .846-.282zm2.738-.228a.45.45 0 0 0-.546.228l-.339 1.016a.45.45 0 0 0 .846.282l.34-1.016a.45.45 0 0 0-.301-.51M6.002 2.4q-1.039 0-1.652.328c-.464.247-.768.81-.687 1.365q.177.852.224 1.015a.96.96 0 0 0 .685.66q.872.156 1.43.16.557.003 1.349-.143a.96.96 0 0 0 .767-.676c.047-.16.197-.838.224-1.018.077-.518-.404-1.238-.8-1.419Q6.948 2.4 6.002 2.4" clip-rule="evenodd"/></g><defs><clipPath id="a"><path fill="#fff" d="M0 0h12v12H0z"/></clipPath></defs></svg>