<svg xmlns="http://www.w3.org/2000/svg" width="14" height="14" fill="none"><g clip-path="url(#a)"><path fill="#1A1C1F" fill-rule="evenodd" d="M8.402 12.6h-2.8a.7.7 0 0 1-.683-.545c-.42-.298-.782-.748-1.062-1.415q.737.531 1.046.72c.308.19.697.328 1.16.36h1.878a2.6 2.6 0 0 0 1.162-.36q.342-.209 1.212-.843c-.291.702-.712 1.248-1.241 1.582q-.156.501-.672.501M6.984 1.4c2.578 0 3.832 1.752 3.864 4.204l.002 1.405c0 .546-.025 1.222-.103 1.83a17 17 0 0 1-.948.754 26 26 0 0 1-1.15.812c-.223.15-.547.27-.882.27h-1.53a1.66 1.66 0 0 1-.882-.27c-.22-.148-.743-.511-1.15-.812q-.405-.3-.799-.629-.256-1.376-.256-1.959v-1.4C3.15 3.151 4.345 1.4 6.984 1.4m-1.26 6.418a.525.525 0 0 0-.988.329l.395 1.185a.525.525 0 0 0 .987-.329zm3.194-.266a.525.525 0 0 0-.637.266l-.395 1.185a.525.525 0 0 0 .987.33l.395-1.186a.525.525 0 0 0-.35-.595M7.002 2.8q-1.212 0-1.927.382a1.59 1.59 0 0 0-.801 1.593q.206.995.261 1.185c.112.382.418.673.8.77q1.017.181 1.667.185t1.574-.166c.426-.068.774-.375.895-.789.055-.185.23-.977.261-1.187.09-.605-.471-1.444-.933-1.656Q8.107 2.8 7.002 2.8" clip-rule="evenodd"/></g><defs><clipPath id="a"><path fill="#fff" d="M0 0h14v14H0z"/></clipPath></defs></svg>