<svg xmlns="http://www.w3.org/2000/svg" width="24" height="24" fill="none"><g clip-path="url(#a)"><path fill="#1A1C1F" fill-rule="evenodd" d="M10.081 2c2.171 0 3.43.756 4.4 2.041a7.55 7.55 0 0 1 1.513 4.048l.027 1.039a.848.848 0 0 1-1.696 0l-.015-.682a5.85 5.85 0 0 0-1.184-3.38c-.688-.909-1.459-1.366-3.044-1.362L8.036 3.7c-1.519 0-2.369.413-3.089 1.366a5.84 5.84 0 0 0-1.17 3.099l-.073 2.623a17.3 17.3 0 0 0 .287 3.61l1.52 1.048.984.653c.17.087.542.166.801.212a.85.85 0 0 1 .701.828.86.86 0 0 1-.86.861c-.04 0-.134-.007-.145-.009-.599-.091-1.069-.238-1.417-.462l-.995-.659q.142.66.475 1.251c.333.592.757 1.189 1.552 1.172.148-.003.385-.005.677-.005h1.011l.109.007a.86.86 0 0 1 .747.849l-.002.994a.856.856 0 0 1-.856.862H6.034a.85.85 0 0 1-.733-1.281c-.634-.291-.866-.532-1.289-1.087a6 6 0 0 1-.926-1.778c-.164-.548-.124-.447-.504-1.946-.38-1.5-.576-3.038-.584-4.583q-.008-1.545.065-2.922A7.54 7.54 0 0 1 3.59 4.041C4.517 2.815 5.775 2 8.035 2.005zm6.102 8.976h1.088l.123.001h.62l.58.003c.695.006 1.383.563 1.541 1.188q.159.626.675 3.038l.192.665h.018c.554.057.982.523.982 1.088v.25c0 .518-.358.951-.839 1.067q-.072.663-.107.845-.018.09-.045.187.004.049.004.099v1.467a1.1 1.1 0 0 1-1.1 1.1h-.214a1.1 1.1 0 0 1-1.1-1.1l-.113.035a19.5 19.5 0 0 1-5.808 0l-.114-.043c0 .616-.493 1.108-1.1 1.108h-.214a1.1 1.1 0 0 1-1.1-1.1v-1.467l.004-.096-.008-.027q-.043-.16-.137-.98l.086.003A1.097 1.097 0 0 1 9 17.21v-.25c0-.606.491-1.097 1.097-1.097l.063.003.192-.661.631-2.904c.198-.681.782-1.326 1.731-1.326zm-.056 7.7h-1.094a.55.55 0 1 0 0 1.1h1.094a.55.55 0 1 0 0-1.1m-4.729-1.296-.003.011a.604.604 0 0 0 .426.739l1.163.316a.607.607 0 0 0 .744-.43l.003-.011a.605.605 0 0 0-.426-.739l-1.163-.316a.607.607 0 0 0-.744.43m7.623-.43-1.167.316a.605.605 0 0 0-.426.739l.003.011a.605.605 0 0 0 .74.43l1.167-.316a.605.605 0 0 0 .426-.739l-.003-.011a.606.606 0 0 0-.74-.43m-.323-4.474h-6.267l-.774 3.389h7.827zm-12.543.265a.85.85 0 0 1 1.087.288l.554 1.092a.85.85 0 0 1-1.467.852l-.554-1.092a.85.85 0 0 1 .38-1.14m2.881-7.74q1.204 0 2.068.278a2.5 2.5 0 0 1 1.681 2.89l-.275 1.318a2 2 0 0 1-1.635 1.566q-1.113.198-1.839.198t-1.839-.198a2 2 0 0 1-1.635-1.566l-.275-1.318a2.5 2.5 0 0 1 1.681-2.89q.864-.278 2.068-.278m0 1.701c-.637 0-1.154.069-1.548.196a.8.8 0 0 0-.553.816q.197 1.007.261 1.268c.063.262.098.366.273.395s1.038.172 1.565.176c.527.003 1.115-.113 1.454-.156.34-.043.34-.226.386-.414q.047-.188.246-1.16a.8.8 0 0 0-.538-.925c-.394-.127-.91-.196-1.547-.196" clip-rule="evenodd"/></g><defs><clipPath id="a"><path fill="#fff" d="M0 0h24v24H0z"/></clipPath></defs></svg>