<svg xmlns="http://www.w3.org/2000/svg" width="32" height="32" fill="none"><path fill="#1A1C1F" fill-rule="evenodd" d="M13.227 2.083c-2.383.32-4.003 1.342-5.36 3.381-.955 1.435-1.581 3.239-1.732 4.989-.139 1.62-.157 5.886-.029 7.12.19 1.834.422 3.046 1.048 5.467.539 2.086.749 2.632 1.358 3.529.72 1.06 1.271 1.585 2.071 1.972l.423.205.004.254a.97.97 0 0 0 .484.84l.258.16h8.488l.222-.119c.348-.186.599-.643.533-.972-.028-.14-.01-.157.315-.295.772-.328 1.453-.949 2.096-1.909.716-1.069.937-1.663 1.575-4.225.676-2.715.89-4.065.989-6.255.049-1.079-.017-4.757-.104-5.779-.248-2.914-1.843-5.881-3.898-7.253-.722-.482-1.472-.788-2.475-1.011-.507-.113-.663-.12-3.226-.132-1.482-.008-2.85.007-3.04.033m5.182 1.971c1.831.174 2.927.844 4 2.447.61.912.954 1.674 1.216 2.696.223.866.259 1.304.325 3.94.08 3.175-.023 4.879-.405 6.73-.225 1.089-.122.947-1.079 1.488-.461.262-1.335.783-1.941 1.158s-1.247.731-1.423.791c-.529.178-1.459.233-3.369.199-1.735-.031-2.489-.099-2.962-.267-.119-.042-.683-.364-1.254-.715-.57-.351-1.446-.87-1.947-1.153l-.91-.516-.169-.839c-.385-1.909-.519-3.62-.466-5.96.081-3.645.14-4.272.511-5.413a9.2 9.2 0 0 1 1.617-2.892c.812-.956 1.987-1.542 3.384-1.69.602-.064 4.21-.067 4.872-.004m-4.07 2.054c-2.247.306-3.791 1.356-4.175 2.837-.156.601-.084 1.463.258 3.076.151.713.263.989.587 1.442.498.699 1.083 1.005 2.471 1.297l.947.198 1.44.001c1.499.001 1.798-.026 2.986-.269.849-.174 1.395-.438 1.854-.896.576-.576.766-1.055 1.031-2.594.187-1.083.224-1.908.105-2.321-.157-.544-.387-.905-.856-1.348-.852-.805-1.94-1.249-3.546-1.448-.613-.076-2.47-.061-3.102.025m3.306 2.024c.84.141 1.483.401 1.88.759.421.38.45.614.234 1.938-.179 1.097-.248 1.323-.478 1.552-.22.221-.365.27-1.228.414-1.56.262-2.298.267-3.866.027-1.104-.169-1.236-.209-1.465-.437-.217-.217-.254-.322-.398-1.105-.241-1.311-.277-1.619-.216-1.846.179-.665 1.261-1.212 2.719-1.376.618-.07 2.21-.028 2.818.074m-6.367 8.928c-.397.181-.665.655-.582 1.033.089.406.997 3.121 1.084 3.24.359.496 1.064.543 1.505.102.211-.211.354-.636.288-.859-.02-.067-.252-.789-.515-1.603-.338-1.045-.52-1.529-.619-1.647-.171-.203-.506-.364-.759-.364-.103 0-.284.044-.402.098m8.467.042c-.317.156-.411.338-.801 1.548-.698 2.164-.673 2.066-.594 2.347.224.802 1.276 1.002 1.765.336.149-.203 1.067-3.078 1.074-3.361a.98.98 0 0 0-.473-.831c-.262-.153-.703-.171-.971-.039m-9.158 7.21c.586.366 1.186.718 1.333.783.702.309 1.555.394 3.947.395 1.835 0 3.092-.065 3.587-.187.515-.126.863-.304 2.066-1.055.587-.366 1.075-.644 1.084-.618.034.093-.163.663-.374 1.084-.334.664-.849 1.421-1.152 1.693a2.2 2.2 0 0 1-1.012.529c-.161.034-1.681.048-4.199.039l-3.947-.015-.36-.171a3.1 3.1 0 0 1-.662-.453c-.499-.468-1.224-1.656-1.425-2.333-.105-.35-.109-.45-.02-.396.037.021.547.339 1.134.705"/></svg>