<svg xmlns="http://www.w3.org/2000/svg" width="28" height="28" fill="none"><g clip-path="url(#a)"><path fill="#1A1C1F" fill-rule="evenodd" d="M21.88 12.25c.93 0 1.73.63 2.003 1.527l.873 3.723h.927c.294 0 .521.2.56.477l.007.67c0 .293-.202.552-.482.597l-.378.006q.042.212.043.437 0 .15-.34 3.07c-.045.393-.176.76-.375 1.078v1.54a.875.875 0 0 1-.875.875h-.875a.875.875 0 0 1-.875-.875v-.249a287 287 0 0 1-8.312-.002v.25a.875.875 0 0 1-.875.876h-.875a.875.875 0 0 1-.875-.875v-1.538a2.6 2.6 0 0 1-.346-.885q-.06-.32-.355-3.014a2.2 2.2 0 0 1 .029-.688h-.292c-.324 0-.567-.281-.567-.603v-.584c0-.323.243-.563.567-.563h.925l.836-3.58c.215-.923 1.048-1.67 1.996-1.67zM11.8 1.75c2.7 0 4.264.94 5.471 2.538a9.4 9.4 0 0 1 1.886 5.098l.007.242a.874.874 0 0 1-.873.872.866.866 0 0 1-.861-.82s-.035-.441-.062-.66a7.64 7.64 0 0 0-1.49-3.678c-.935-1.236-1.953-1.84-4.075-1.84L9.259 3.5c-2.003 0-3.167.566-4.132 1.842a7.63 7.63 0 0 0-1.532 4.115l-.087 3.21c-.045 1.82.12 3.703.58 5.583q1.017.564 1.762 1.008c.745.443 1.021.634 1.539.942.093.055.773.27.775.274.38.105.672.457.672.87a.9.9 0 0 1-.898.9c-.095 0-.625-.161-.71-.188l-.049-.008-.025-.007-.022-.01a3 3 0 0 1-.43-.189c-.38-.211-1.412-.883-2.023-1.244q.112.556.354 1.018.24.461.674 1.08c.36.534 1.08.929 1.622.923l1.2.001c.486 0 .878.392.878.875l-.001.88a.875.875 0 0 1-.875.876H7a.875.875 0 0 1-.845-1.105 3.84 3.84 0 0 1-1.775-1.298c-.456-.602-.634-.879-.873-1.335q-.239-.457-.54-1.545l-.49-1.924a23.7 23.7 0 0 1-.727-5.878l.081-3.453A9.4 9.4 0 0 1 3.73 4.288C4.894 2.748 6.527 1.75 9.257 1.75zm1.203 17.502h-.423a.44.44 0 0 0-.386.406q-.015.207.053.526l1.023.172a.875.875 0 0 1-.186 1.737l-.629-.099.065.563a.88.88 0 0 0 .688.756q2.98.31 4.73.313 1.75.002 4.63-.298a.87.87 0 0 0 .77-.67l.082-.664-.526.088a.875.875 0 0 1-.388-1.704l1.122-.193q.058-.21.057-.473c0-.263-.177-.455-.41-.455h-.349l-2.124-.002h-2.627l-2.097-.001h-.354l-2.307-.001zm6.684 1.223c.276 0 .533.13.697.346l.495.829a.875.875 0 0 1-1.452.972l-.241-.398h-2.498l-.184.313c-.228.387-.775.58-1.198.31-.423-.268-.534-.706-.357-1.106l.484-.835a.88.88 0 0 1 .652-.425zM6.455 14.877a.875.875 0 0 1 1.064.47l.008.023.156.48.659 2.03a.875.875 0 0 1-1.629.633l-.822-2.533a.877.877 0 0 1 .564-1.102m15.406-.876h-7.868c-.125 0-.248.088-.31.238q-.062.15-.77 3.261H22.96l-.743-3.182c-.04-.169-.143-.317-.356-.317M10.5 5.25q2.762 0 4.162 1.135c.934.757 1.095 1.537 1 2.374a37 37 0 0 1-.157 1.121.886.886 0 0 1-.942.759.876.876 0 0 1-.801-.946c.002-.033.13-.86.162-1.13.027-.245.017-.488-.364-.818C13.04 7.297 11.974 7 10.5 7c-1.58 0-2.614.313-3.172.843a.88.88 0 0 0-.274.608q-.006.22.333 1.973a.87.87 0 0 0 .596.637c.669.126 2.209.307 2.214.307a.89.89 0 0 1 .75 1.08.885.885 0 0 1-.924.681s-1.502-.175-2.233-.32c-1.076-.212-1.866-.961-2.106-1.986a22 22 0 0 1-.36-2.041c-.097-.82.2-1.639.799-2.209Q7.518 5.25 10.5 5.25" clip-rule="evenodd"/></g><defs><clipPath id="a"><path fill="#fff" d="M0 0h28v28H0z"/></clipPath></defs></svg>