<svg xmlns="http://www.w3.org/2000/svg" width="16" height="16" fill="none"><g clip-path="url(#a)"><path fill="#1A1C1F" fill-rule="evenodd" d="M9.602 14.4h-3.2a.8.8 0 0 1-.78-.623c-.48-.34-.895-.855-1.214-1.617q.843.606 1.195.823c.353.216.797.375 1.327.41h2.145c.463-.03.936-.173 1.328-.41q.392-.239 1.385-.963c-.332.802-.813 1.426-1.418 1.807q-.178.573-.768.573M7.982 1.6c2.946 0 4.379 2.002 4.415 4.805L12.4 8.01c0 .624-.029 1.396-.118 2.09q-.437.38-1.084.862-.647.483-1.313.928c-.256.172-.626.309-1.009.309H7.129c-.38 0-.757-.14-1.009-.31a43 43 0 0 1-1.313-.927q-.465-.343-.914-.718Q3.6 8.67 3.6 8.006V6.405C3.6 3.602 4.966 1.6 7.982 1.6M6.54 8.935a.6.6 0 0 0-1.128.376l.451 1.354a.6.6 0 0 0 1.128-.376zm3.651-.304a.6.6 0 0 0-.728.304l-.451 1.354a.6.6 0 0 0 1.128.376l.451-1.354a.6.6 0 0 0-.4-.68M8.002 3.2q-1.384 0-2.203.437a1.82 1.82 0 0 0-.915 1.82q.236 1.137.3 1.354c.127.437.476.77.912.88q1.164.208 1.906.212.744.005 1.799-.19a1.28 1.28 0 0 0 1.023-.902c.062-.212.263-1.116.299-1.356.102-.691-.54-1.65-1.067-1.892Q9.265 3.2 8.002 3.2" clip-rule="evenodd"/></g><defs><clipPath id="a"><path fill="#fff" d="M0 0h16v16H0z"/></clipPath></defs></svg>