<svg width="12" height="12" viewBox="0 0 12 12" fill="none" xmlns="http://www.w3.org/2000/svg"><path d="M5.650 1.212 C 4.265 1.324,3.338 2.026,2.928 3.274 C 2.739 3.848,2.702 4.207,2.701 5.473 C 2.700 6.249,2.709 6.380,2.812 7.050 C 2.913 7.706,2.903 7.673,3.037 7.782 C 3.348 8.036,4.055 8.555,4.448 8.819 C 4.923 9.137,4.969 9.147,6.010 9.149 C 6.710 9.150,6.827 9.146,6.946 9.115 C 7.233 9.041,7.500 8.881,8.227 8.347 C 8.559 8.102,9.220 7.585,9.220 7.569 C 9.220 7.564,9.235 7.414,9.253 7.235 C 9.296 6.810,9.304 4.503,9.264 4.200 C 9.181 3.576,8.960 2.937,8.686 2.526 C 8.204 1.803,7.518 1.385,6.593 1.250 C 6.377 1.219,5.839 1.197,5.650 1.212 M6.933 2.487 C 7.466 2.602,7.711 2.730,7.941 3.015 C 8.246 3.393,8.373 3.769,8.323 4.154 C 8.297 4.351,8.177 4.883,8.108 5.103 C 8.013 5.404,7.791 5.641,7.513 5.736 C 7.126 5.870,6.064 5.957,5.510 5.902 C 5.236 5.874,4.828 5.814,4.621 5.770 C 4.282 5.699,4.040 5.492,3.921 5.170 C 3.833 4.933,3.689 4.247,3.669 3.968 C 3.651 3.723,3.682 3.572,3.802 3.324 C 4.047 2.817,4.504 2.561,5.390 2.433 C 5.423 2.428,5.729 2.426,6.070 2.429 C 6.651 2.435,6.705 2.438,6.933 2.487 M4.692 6.498 C 4.841 6.566,4.904 6.689,5.097 7.285 C 5.268 7.812,5.274 7.922,5.141 8.083 C 4.973 8.286,4.623 8.293,4.474 8.097 C 4.411 8.014,4.334 7.821,4.204 7.419 C 4.037 6.903,4.028 6.797,4.140 6.643 C 4.259 6.478,4.506 6.414,4.692 6.498 M7.647 6.482 C 7.756 6.512,7.886 6.648,7.919 6.766 C 7.954 6.893,7.930 7.009,7.770 7.493 C 7.562 8.118,7.491 8.218,7.240 8.236 C 7.087 8.247,6.992 8.213,6.888 8.109 C 6.723 7.944,6.725 7.836,6.903 7.285 C 7.079 6.739,7.157 6.575,7.266 6.517 C 7.368 6.462,7.524 6.447,7.647 6.482 M8.568 9.213 C 8.217 9.467,7.809 9.735,7.654 9.813 C 7.431 9.925,7.184 9.998,6.948 10.022 C 6.811 10.036,6.405 10.040,5.841 10.035 C 4.872 10.025,4.864 10.024,4.544 9.900 C 4.346 9.824,4.100 9.679,3.699 9.400 C 3.524 9.279,3.366 9.173,3.347 9.166 C 3.303 9.149,3.500 9.526,3.646 9.738 C 3.703 9.821,3.856 9.996,3.985 10.127 C 4.124 10.268,4.235 10.399,4.257 10.448 C 4.304 10.554,4.437 10.685,4.556 10.744 L 4.650 10.790 6.004 10.796 C 7.359 10.801,7.359 10.801,7.444 10.758 C 7.593 10.683,7.638 10.641,7.720 10.500 C 7.776 10.405,7.836 10.334,7.916 10.273 C 8.096 10.134,8.378 9.827,8.524 9.609 C 8.654 9.415,8.835 9.068,8.816 9.049 C 8.811 9.044,8.699 9.118,8.568 9.213 " fill="#1A1C1F" stroke="none" fill-rule="evenodd"></path></svg>