<svg xmlns="http://www.w3.org/2000/svg" width="32" height="32" fill="none"><g clip-path="url(#a)"><path fill="#1A1C1F" fill-rule="evenodd" d="M3.102 22.829c.991 1.107 2.166 2.075 3.985 3.27l.571.361c.379.213.777.345 1.342.424.44.032.851.03 1.28.05q.01.041.02.082v1.985c0 .141.017.28.034.416a.5.5 0 0 1-.492.582H8.001a1 1 0 0 1-.966-1.26 4.4 4.4 0 0 1-2.02-1.474 10.9 10.9 0 0 1-1.264-2.145q-.154-.359-.649-2.292m21.9-8.83c.99.002 1.684.667 1.979 1.627L28 20h1.352c.336 0 .648.267.648.578v.733c0 .335-.261.69-.648.69h-.835c.033.162.05.38.05.535q0 .156-.388 3.473-.045.381-.177.726V29c-.001.552-.449 1-1.001 1h-.6a1 1 0 0 1-1-1v-.343a43 43 0 0 1-10.8 0V29a1 1 0 0 1-1 1h-.6a1 1 0 0 1-1-1v-2.262a3 3 0 0 1-.152-.547l-.398-3.404a2.5 2.5 0 0 1 .033-.787h-.834c-.37 0-.648-.322-.648-.69v-.666A.63.63 0 0 1 10.65 20h1.352l.978-4.213c.231-.99 1.047-1.714 2.022-1.788zm-2.995 9.751-4.142.008a1 1 0 0 0-.833.683l-.296 1.48a.987.987 0 0 0 .801 1.06.99.99 0 0 0 1.147-.67l.118-.56h2.385l.119.56a1 1 0 0 0 1.948-.39l-.296-1.48a1 1 0 0 0-.951-.69m4.413-.747-1.479.296a1 1 0 0 0 .39 1.948l1.479-.296a1 1 0 0 0-.39-1.948m-13.9.802a1 1 0 0 0 .671 1.146l1.479.296a1 1 0 0 0 .39-1.948l-1.479-.296a1 1 0 0 0-1.061.802M13.486 2c3.085 0 4.872 1.074 6.252 2.9a10.73 10.73 0 0 1 2.155 5.826l.016.373.017.701a.5.5 0 0 1-.5.5H18.24c.115-.37.265-.793.517-2.196.337-1.88-.719-3.675-2.29-4.356C15.09 5.151 13.596 5 11.999 5q-2.588 0-4.272.665c-1.716.677-2.865 2.448-2.481 4.446.212 1.1.421 1.86.541 2.263a2.9 2.9 0 0 0 2.151 2.002l1.445.226c.707.108 1.42.165 2.133.185q-.12.294-.195.613l-.673 2.9c-.694 0-1.303.29-1.729.752l-.326-1.011a1 1 0 0 0-1.89.61l.97 3.009c.329.87 1.548 1.659 2.154 1.89l.169 1.442c-1.031-.032-1.308-.242-1.797-.555-2.515-1.607-3.549-2.687-4.748-4.393q-1.199-1.709-1.262-1.77-.19-1.995-.189-3.203.002-1.206.092-3.971c.056-2.24.815-4.408 2.17-6.2C5.593 3.14 7.378 2 10.579 2.004zm1.678 13.694c-.208 0-.406.144-.498.376L13.745 20h12.51l-.886-3.826c-.06-.255-.239-.431-.442-.471z" clip-rule="evenodd"/></g><defs><clipPath id="a"><path fill="#fff" d="M0 0h32v32H0z"/></clipPath></defs></svg>