<svg width="28" height="28" viewBox="0 0 28 28" fill="none" xmlns="http://www.w3.org/2000/svg"><path d="M11.993 1.821 C 10.149 1.902,8.719 2.562,7.598 3.849 C 6.971 4.571,6.418 5.470,6.051 6.370 C 5.590 7.498,5.393 8.440,5.317 9.892 C 5.252 11.128,5.250 14.267,5.314 14.957 C 5.419 16.086,5.346 15.902,6.102 16.954 C 7.157 18.421,7.305 18.606,7.907 19.204 C 8.719 20.011,9.824 20.875,10.795 21.462 C 11.454 21.860,11.460 21.861,13.953 21.862 C 16.453 21.864,16.528 21.854,17.165 21.472 C 17.932 21.011,19.083 20.155,19.750 19.550 C 20.387 18.972,21.450 17.665,22.275 16.446 L 22.589 15.982 22.659 15.259 C 22.803 13.785,22.728 9.570,22.539 8.465 C 22.273 6.909,21.708 5.569,20.799 4.340 C 19.826 3.025,18.578 2.221,17.042 1.918 C 16.655 1.842,16.313 1.826,14.653 1.809 C 13.588 1.798,12.391 1.803,11.993 1.821 M14.758 4.434 C 15.510 4.467,16.019 4.512,16.344 4.576 C 18.040 4.911,19.010 5.539,19.574 6.667 C 20.044 7.606,20.054 8.504,19.613 10.196 C 19.268 11.522,18.746 12.190,17.827 12.480 C 17.049 12.726,15.244 12.940,13.977 12.937 C 12.704 12.934,10.764 12.696,10.096 12.461 C 9.576 12.279,9.017 11.774,8.748 11.244 C 8.595 10.942,8.384 10.211,8.206 9.367 C 7.950 8.152,8.002 7.445,8.405 6.669 C 9.082 5.366,10.289 4.713,12.483 4.462 C 13.199 4.380,13.414 4.377,14.758 4.434 M10.644 15.414 C 10.902 15.548,10.974 15.691,11.347 16.816 C 11.698 17.876,11.853 18.450,11.853 18.691 C 11.854 19.190,11.231 19.580,10.712 19.405 C 10.386 19.296,10.272 19.082,9.819 17.724 C 9.465 16.662,9.410 16.452,9.407 16.167 C 9.404 15.885,9.421 15.810,9.527 15.650 C 9.595 15.547,9.721 15.428,9.807 15.386 C 10.036 15.273,10.397 15.285,10.644 15.414 M18.162 15.470 C 18.623 15.775,18.619 16.118,18.135 17.579 C 17.938 18.174,17.735 18.756,17.684 18.872 C 17.485 19.322,17.216 19.498,16.811 19.442 C 16.525 19.403,16.310 19.259,16.163 19.009 C 16.056 18.827,16.044 18.766,16.069 18.535 C 16.100 18.243,16.446 17.088,16.772 16.189 C 16.998 15.568,17.090 15.447,17.404 15.358 C 17.645 15.290,17.961 15.337,18.162 15.470 M6.353 20.542 C 6.584 21.407,6.851 22.164,7.075 22.586 C 7.717 23.792,8.425 24.556,9.322 25.008 C 9.596 25.146,9.613 25.164,9.613 25.319 C 9.613 25.658,9.845 26.010,10.183 26.184 C 10.349 26.270,10.506 26.273,14.000 26.273 C 17.494 26.273,17.651 26.270,17.817 26.184 C 18.155 26.010,18.387 25.658,18.387 25.318 C 18.387 25.162,18.402 25.145,18.640 25.040 C 19.019 24.873,19.447 24.568,19.787 24.223 C 20.295 23.707,21.032 22.543,21.234 21.936 C 21.380 21.495,21.749 20.147,21.729 20.126 C 21.719 20.117,21.472 20.332,21.181 20.605 C 20.260 21.467,19.093 22.358,18.116 22.946 C 17.168 23.516,16.889 23.568,14.623 23.601 C 12.740 23.628,11.504 23.570,10.949 23.428 C 10.507 23.315,10.152 23.135,9.452 22.667 C 8.311 21.904,7.551 21.301,6.689 20.472 L 6.213 20.014 6.353 20.542 " fill="#1A1C1F" stroke="none" fill-rule="evenodd"></path></svg>