<svg xmlns="http://www.w3.org/2000/svg" width="20" height="20" fill="none"><g clip-path="url(#a)"><path fill="#1A1C1F" fill-rule="evenodd" d="M12.003 18h-4a1 1 0 0 1-.975-.779c-.6-.425-1.119-1.068-1.517-2.02q1.052.757 1.493 1.028c.44.27.997.469 1.658.513h2.682a3.7 3.7 0 0 0 1.66-.513q.489-.297 1.732-1.204c-.417 1.003-1.017 1.782-1.774 2.259q-.222.716-.959.716M9.977 2c3.684 0 5.474 2.502 5.52 6.006l.003 2.008c0 .78-.036 1.745-.147 2.612q-.546.474-1.355 1.078a38 38 0 0 1-1.642 1.16 2.33 2.33 0 0 1-1.26.386H8.91c-.474 0-.946-.175-1.26-.386-.316-.212-1.062-.73-1.643-1.16a24 24 0 0 1-1.142-.898Q4.5 10.839 4.5 10.008V8.006C4.5 4.502 6.208 2 9.977 2m-1.801 9.168a.75.75 0 0 0-1.41.47l.564 1.694a.75.75 0 0 0 1.41-.47zm4.564-.38a.75.75 0 0 0-.91.38l-.564 1.694a.75.75 0 0 0 1.41.47l.564-1.694a.75.75 0 0 0-.5-.85M10.003 4q-1.731 0-2.754.546a2.27 2.27 0 0 0-1.144 2.276q.295 1.42.374 1.692c.16.546.596.962 1.141 1.1q1.455.26 2.383.265.93.005 2.248-.238a1.6 1.6 0 0 0 1.28-1.127c.077-.265.328-1.395.372-1.696.128-.864-.674-2.062-1.333-2.365Q11.58 4 10.003 4" clip-rule="evenodd"/></g><defs><clipPath id="a"><path fill="#fff" d="M0 0h20v20H0z"/></clipPath></defs></svg>