<svg width="28" height="28" viewBox="0 0 28 28" fill="none" xmlns="http://www.w3.org/2000/svg"><path d="M11.993 1.870 C 10.867 2.057,10.235 2.402,10.145 2.879 C 10.129 2.965,10.141 3.488,10.171 4.042 C 10.202 4.596,10.220 5.054,10.212 5.062 C 10.204 5.069,9.730 5.341,9.159 5.667 L 8.122 6.260 7.339 5.753 C 6.110 4.956,6.163 4.979,5.793 5.085 C 4.904 5.340,2.999 8.181,2.282 10.319 C 2.081 10.921,2.060 11.182,2.193 11.457 C 2.331 11.740,2.490 11.851,3.502 12.365 L 4.340 12.791 4.340 14.001 L 4.340 15.210 3.605 15.582 C 3.201 15.787,2.740 16.038,2.581 16.141 C 2.016 16.506,1.985 16.860,2.414 18.037 C 2.625 18.616,3.285 19.931,3.688 20.572 C 4.373 21.665,5.221 22.650,5.661 22.862 C 6.067 23.059,6.176 23.019,7.374 22.236 L 8.122 21.748 9.170 22.342 L 10.218 22.937 10.184 23.497 C 10.165 23.805,10.150 24.330,10.150 24.665 C 10.150 25.230,10.158 25.282,10.259 25.411 C 10.426 25.625,10.713 25.796,11.119 25.924 C 11.837 26.151,12.158 26.187,13.720 26.212 C 15.356 26.238,15.971 26.188,16.735 25.968 C 17.210 25.830,17.454 25.700,17.687 25.458 L 17.850 25.288 17.850 24.672 C 17.850 24.334,17.835 23.805,17.816 23.497 L 17.782 22.937 18.830 22.342 L 19.878 21.748 20.626 22.236 C 21.827 23.020,21.933 23.059,22.344 22.860 C 23.285 22.404,25.318 19.192,25.792 17.411 C 26.037 16.491,25.919 16.343,24.278 15.522 L 23.660 15.213 23.660 14.002 L 23.660 12.791 24.497 12.366 C 25.593 11.808,25.900 11.536,25.900 11.117 C 25.900 10.714,25.499 9.607,24.992 8.610 C 24.319 7.287,23.710 6.373,23.066 5.724 C 22.590 5.243,22.359 5.094,22.035 5.056 C 21.766 5.024,21.856 4.978,20.661 5.752 L 19.878 6.259 19.447 6.017 C 18.424 5.439,17.827 5.066,17.802 4.989 C 17.787 4.943,17.809 4.450,17.851 3.893 L 17.926 2.881 17.774 2.658 C 17.539 2.313,17.168 2.123,16.357 1.931 C 16.087 1.868,15.702 1.852,14.140 1.841 C 13.101 1.833,12.134 1.846,11.993 1.870 M14.607 3.547 C 15.056 3.571,15.571 3.615,15.750 3.644 L 16.078 3.696 16.045 4.123 C 16.027 4.358,16.007 4.813,16.002 5.133 C 15.988 5.907,16.026 5.991,16.553 6.331 C 17.073 6.666,18.769 7.657,19.309 7.940 C 19.547 8.065,19.799 8.166,19.869 8.166 C 20.056 8.164,20.324 8.029,20.968 7.612 C 21.284 7.408,21.622 7.202,21.719 7.156 L 21.895 7.072 22.031 7.234 C 22.355 7.620,23.123 8.821,23.396 9.369 C 23.821 10.219,23.960 10.584,23.891 10.667 C 23.860 10.703,23.500 10.906,23.089 11.117 C 22.234 11.556,21.994 11.743,21.931 12.017 C 21.908 12.119,21.888 13.050,21.888 14.084 C 21.887 16.154,21.880 16.101,22.180 16.365 C 22.268 16.442,22.678 16.678,23.093 16.890 C 23.961 17.333,23.972 17.348,23.799 17.774 C 23.448 18.642,22.766 19.819,22.184 20.566 L 21.885 20.949 21.197 20.514 C 20.373 19.993,20.066 19.833,19.893 19.834 C 19.822 19.835,19.532 19.956,19.250 20.104 C 18.437 20.530,16.631 21.567,16.390 21.747 C 15.993 22.043,15.963 22.191,16.025 23.503 L 16.064 24.304 15.930 24.330 C 15.320 24.452,15.084 24.469,14.000 24.469 C 13.099 24.469,12.709 24.450,12.395 24.392 C 12.167 24.350,11.970 24.305,11.957 24.292 C 11.944 24.279,11.953 23.885,11.977 23.416 C 12.024 22.498,11.998 22.166,11.863 21.981 C 11.739 21.810,11.271 21.511,10.051 20.822 C 8.716 20.069,8.250 19.833,8.096 19.833 C 7.931 19.833,7.605 20.007,6.848 20.496 C 6.492 20.726,6.173 20.904,6.138 20.890 C 6.047 20.855,5.609 20.299,5.255 19.770 C 4.953 19.317,4.409 18.288,4.201 17.774 C 4.028 17.348,4.039 17.333,4.907 16.890 C 5.322 16.678,5.732 16.442,5.820 16.365 C 6.120 16.101,6.113 16.154,6.112 14.084 C 6.112 13.050,6.092 12.119,6.069 12.017 C 6.006 11.744,5.767 11.557,4.917 11.118 C 4.510 10.907,4.149 10.717,4.116 10.695 C 4.047 10.650,4.169 10.312,4.539 9.517 C 4.905 8.731,5.930 7.156,6.125 7.081 C 6.157 7.068,6.457 7.238,6.790 7.457 C 7.541 7.951,7.946 8.167,8.123 8.167 C 8.197 8.167,8.453 8.065,8.691 7.940 C 9.231 7.657,10.927 6.666,11.447 6.331 C 11.947 6.008,12.005 5.898,12.002 5.278 C 12.000 4.780,11.951 3.890,11.919 3.776 C 11.902 3.714,11.997 3.689,12.494 3.621 C 12.822 3.576,13.122 3.533,13.160 3.525 C 13.305 3.496,13.816 3.503,14.607 3.547 M13.090 9.729 C 11.177 10.152,9.743 11.834,9.627 13.790 C 9.540 15.257,10.293 16.755,11.544 17.605 C 11.924 17.863,12.528 18.138,12.960 18.251 C 13.475 18.384,14.525 18.384,15.040 18.251 C 15.472 18.138,16.076 17.863,16.456 17.605 C 17.781 16.705,18.536 15.092,18.348 13.563 C 18.105 11.584,16.730 10.096,14.801 9.726 C 14.378 9.644,13.465 9.646,13.090 9.729 M14.618 11.477 C 15.300 11.651,15.769 11.975,16.137 12.524 C 16.522 13.100,16.576 13.298,16.558 14.069 C 16.544 14.711,16.540 14.730,16.375 15.073 C 16.051 15.748,15.515 16.240,14.840 16.479 C 14.407 16.632,13.598 16.633,13.160 16.481 C 12.497 16.250,11.948 15.747,11.625 15.073 L 11.457 14.723 11.457 14.000 C 11.457 13.287,11.459 13.272,11.602 12.973 C 11.901 12.348,12.359 11.888,12.956 11.615 C 13.478 11.376,14.041 11.329,14.618 11.477 " fill="#1A1C1F" stroke="none" fill-rule="evenodd"></path></svg>