<svg xmlns="http://www.w3.org/2000/svg" width="32" height="32" fill="none"><path fill="#1A1C1F" fill-rule="evenodd" d="M14.373 2.059c-1.339.13-2.07.351-2.492.757-.314.301-.328.393-.253 1.75.037.659.057 1.206.046 1.216s-.553.322-1.205.694l-1.184.676-.977-.634c-1.205-.782-1.159-.758-1.438-.757-.337 0-.694.23-1.219.784-1.1 1.161-2.449 3.472-3.014 5.162-.219.657-.271 1.015-.184 1.278.127.385.332.54 1.45 1.1l1.057.529v2.77l-1.061.534c-1.14.575-1.333.725-1.454 1.128-.089.299.021.829.347 1.662.686 1.755 1.955 3.829 2.965 4.845.508.512.797.687 1.13.687.258 0 .341-.045 1.545-.832l.849-.555 1.186.676c.653.371 1.196.683 1.208.692.011.009-.017.544-.064 1.189-.054.751-.068 1.232-.037 1.34.17.592.929.955 2.399 1.148.808.106 3.003.12 3.84.026 1.588-.181 2.437-.562 2.613-1.174.031-.108.017-.589-.037-1.34-.047-.645-.075-1.18-.064-1.189.012-.009.555-.321 1.208-.692l1.186-.676.849.555c1.215.795 1.285.832 1.557.832.408-.001.891-.372 1.552-1.192 1.297-1.609 2.662-4.202 2.879-5.465.056-.324.052-.4-.03-.614a1.2 1.2 0 0 0-.28-.408c-.102-.09-.641-.392-1.196-.669l-1.01-.506v-2.772l1.057-.529c1.645-.824 1.727-.991 1.224-2.507-.377-1.138-1.344-2.964-2.219-4.188-.425-.596-1.149-1.321-1.487-1.491-.298-.149-.637-.181-.831-.077a46 46 0 0 0-1.092.696l-.977.634-1.197-.683c-1.142-.651-1.197-.69-1.197-.842 0-.088.035-.64.078-1.227l.079-1.067-.119-.24c-.219-.441-.793-.726-1.847-.916-.525-.095-.868-.113-2.272-.125a50 50 0 0 0-1.867.007m3.445 2.073.565.092-.018.248c-.148 1.992-.136 2.177.159 2.493.18.192 3.61 2.201 3.95 2.313.356.117.561.035 1.554-.622.509-.337.951-.597.981-.579.134.083 1.014 1.325 1.365 1.926.358.614.877 1.727.96 2.061.035.141.016.154-.921.623-1.01.506-1.254.688-1.348 1.009q-.058.196-.041 2.415l.016 2.217.145.219c.128.193.267.281 1.16.731.558.281 1.015.537 1.015.567 0 .154-.591 1.463-.916 2.031-.441.769-.679 1.126-1.112 1.663l-.323.402-.874-.554c-1.087-.688-1.149-.72-1.402-.72-.215 0-.477.137-3.026 1.586-1.532.871-1.497.81-1.393 2.44.037.587.066 1.071.064 1.075s-.245.052-.538.105c-.765.141-2.915.141-3.68 0a11 11 0 0 1-.538-.105c-.002-.004.027-.488.064-1.075.104-1.63.139-1.569-1.393-2.44-2.597-1.476-2.808-1.586-3.041-1.586-.237 0-.471.127-1.643.894l-.577.377-.171-.196c-.73-.836-1.451-2.001-1.92-3.102-.392-.918-.472-.764.709-1.36.897-.452 1.037-.54 1.165-.733l.145-.219.016-2.217q.017-2.219-.041-2.415c-.094-.321-.338-.503-1.343-1.006-.523-.263-.952-.489-.952-.504 0-.097.443-1.123.726-1.683.505-.998 1.546-2.49 1.698-2.431.036.014.464.289.949.611.949.629 1.159.712 1.513.595.34-.112 3.77-2.121 3.95-2.313.295-.316.307-.502.159-2.494l-.018-.249.591-.084.752-.107c.397-.054 2.324.014 2.858.101m-2.379 6.907c-2.931.321-4.982 3.202-4.319 6.063.436 1.878 1.876 3.314 3.801 3.789.491.121 1.667.121 2.158 0 1.925-.475 3.365-1.911 3.801-3.789.435-1.877-.322-3.93-1.88-5.097-.983-.736-2.329-1.101-3.561-.966m1.241 2.054c.988.233 1.719.875 2.124 1.867.14.343.153.427.151 1.04-.001.594-.016.706-.143 1.028-.477 1.215-1.545 1.959-2.812 1.959s-2.335-.744-2.812-1.959c-.127-.323-.142-.432-.142-1.028s.015-.705.142-1.028c.564-1.437 2.027-2.224 3.492-1.879"/></svg>