<svg width="14" height="14" viewBox="0 0 14 14" fill="none" xmlns="http://www.w3.org/2000/svg"><path d="M5.763 1.468 C 5.512 1.504,5.181 1.718,5.036 1.940 C 4.869 2.193,4.847 2.290,4.835 2.818 L 4.825 3.292 4.738 3.336 L 4.652 3.380 4.373 3.215 C 3.916 2.943,3.788 2.890,3.559 2.876 C 3.120 2.848,2.796 2.996,2.544 3.337 C 2.421 3.504,1.929 4.314,1.650 4.808 C 1.465 5.137,1.401 5.322,1.400 5.535 C 1.400 5.792,1.512 6.092,1.681 6.284 C 1.786 6.404,2.118 6.632,2.421 6.793 L 2.613 6.895 2.613 7.024 L 2.613 7.154 2.456 7.245 C 2.146 7.426,1.829 7.651,1.719 7.769 C 1.516 7.985,1.428 8.282,1.460 8.645 C 1.479 8.868,1.551 9.016,2.018 9.800 C 2.642 10.846,2.732 10.944,3.194 11.084 C 3.536 11.188,3.863 11.093,4.461 10.716 L 4.684 10.575 4.789 10.641 L 4.895 10.707 4.906 11.181 C 4.915 11.588,4.923 11.674,4.965 11.789 C 5.071 12.079,5.309 12.338,5.591 12.472 C 5.784 12.563,6.115 12.583,7.233 12.570 L 8.155 12.560 8.313 12.499 C 8.707 12.348,8.984 12.034,9.066 11.650 C 9.087 11.549,9.099 11.350,9.100 11.101 L 9.100 10.710 9.207 10.643 L 9.314 10.577 9.653 10.785 C 10.038 11.022,10.222 11.100,10.448 11.121 C 10.720 11.145,11.036 11.043,11.268 10.854 C 11.383 10.761,11.564 10.492,11.991 9.782 C 12.567 8.821,12.607 8.706,12.516 8.265 C 12.435 7.873,12.293 7.710,11.728 7.362 L 11.388 7.152 11.388 7.023 L 11.387 6.895 11.638 6.758 C 12.210 6.445,12.393 6.281,12.508 5.978 C 12.652 5.600,12.622 5.293,12.400 4.895 C 12.217 4.568,11.667 3.652,11.510 3.415 C 11.240 3.004,10.925 2.846,10.441 2.876 C 10.212 2.890,10.084 2.943,9.627 3.215 L 9.348 3.380 9.259 3.334 L 9.170 3.289 9.169 2.945 C 9.168 2.487,9.141 2.296,9.050 2.104 C 8.949 1.891,8.701 1.644,8.487 1.542 L 8.329 1.467 7.110 1.458 C 6.440 1.453,5.834 1.457,5.763 1.468 M7.775 3.447 L 7.782 4.071 8.517 4.520 C 9.139 4.900,9.263 4.968,9.325 4.960 C 9.365 4.955,9.622 4.824,9.896 4.669 C 10.170 4.514,10.410 4.387,10.430 4.387 C 10.469 4.387,10.644 4.655,10.921 5.142 L 11.093 5.443 11.030 5.492 C 10.996 5.519,10.747 5.662,10.477 5.810 L 9.987 6.078 9.984 6.393 C 9.982 6.566,9.974 6.971,9.966 7.292 C 9.958 7.613,9.958 7.896,9.966 7.922 C 9.976 7.952,10.171 8.078,10.509 8.272 C 10.799 8.438,11.037 8.585,11.037 8.598 C 11.037 8.658,10.468 9.628,10.437 9.621 C 10.427 9.619,10.176 9.474,9.879 9.300 L 9.339 8.982 8.520 9.431 L 7.700 9.879 7.700 10.528 L 7.700 11.177 7.000 11.177 L 6.300 11.177 6.300 10.528 L 6.300 9.880 5.469 9.430 L 4.638 8.981 4.133 9.282 C 3.855 9.448,3.607 9.590,3.580 9.598 C 3.539 9.611,3.513 9.580,3.391 9.374 C 3.188 9.031,2.963 8.621,2.963 8.595 C 2.963 8.583,3.197 8.436,3.483 8.268 L 4.002 7.963 4.008 7.021 L 4.014 6.078 3.523 5.810 C 3.253 5.662,3.005 5.520,2.972 5.494 C 2.911 5.446,2.911 5.445,2.951 5.365 C 3.011 5.248,3.471 4.478,3.519 4.415 L 3.559 4.362 3.839 4.522 C 3.993 4.611,4.223 4.743,4.351 4.817 C 4.478 4.891,4.615 4.955,4.654 4.960 C 4.713 4.968,4.853 4.893,5.472 4.520 L 6.218 4.070 6.225 3.447 L 6.231 2.823 7.000 2.823 L 7.769 2.823 7.775 3.447 M6.728 5.635 C 6.462 5.683,6.231 5.808,6.022 6.017 C 5.817 6.221,5.714 6.398,5.646 6.664 C 5.562 6.993,5.606 7.350,5.768 7.661 C 5.870 7.857,6.150 8.132,6.347 8.231 C 6.539 8.327,6.826 8.400,7.012 8.400 C 7.198 8.400,7.478 8.328,7.661 8.232 C 7.861 8.128,8.133 7.850,8.231 7.650 C 8.519 7.063,8.426 6.457,7.980 6.017 C 7.770 5.809,7.558 5.694,7.275 5.637 C 7.064 5.594,6.956 5.593,6.728 5.635 " fill="#1A1C1F" stroke="none" fill-rule="evenodd"></path></svg>