<svg xmlns="http://www.w3.org/2000/svg" width="28" height="28" fill="none"><g clip-path="url(#a)"><path fill="#1A1C1F" fill-rule="evenodd" d="m17.9 3.07-.138 1.977 2.115 1.209 1.648-1.071c.147-.096.302-.165.467-.165 1.332 0 3.9 4.794 3.9 6.097 0 .329-.187.642-.495.796l-1.758.879v2.416l1.758.88a.89.89 0 0 1 .494.796c0 1.336-2.725 6.096-3.9 6.096-.164 0-.319-.069-.466-.165l-1.648-1.07-2.115 1.208.138 1.95c.08 1.142-2.105 1.345-3.9 1.345-1.695 0-3.982-.175-3.9-1.345l.138-1.95-2.115-1.209-1.648 1.071c-.147.096-.302.165-.467.165-1.238 0-3.9-4.777-3.9-6.124 0-.302.198-.62.495-.769l1.758-.879v-2.416l-1.758-.88a.89.89 0 0 1-.494-.796c0-1.298 2.639-6.096 3.9-6.096.164 0 .319.069.466.165l1.648 1.07 2.115-1.208-.11-1.977c-.054-.97 1.497-1.247 3.103-1.305l.386-.01.192-.003H14c1.698 0 3.978.185 3.9 1.318m-3.9.412c-.687 0-1.4.082-2.087.22l.11 1.785a.87.87 0 0 1-.44.796L8.535 8.041a.83.83 0 0 1-.44.11.8.8 0 0 1-.466-.138l-1.483-.988a10.5 10.5 0 0 0-2.087 3.652l1.565.796a.87.87 0 0 1 .494.77v3.515c0 .33-.197.62-.494.769l-1.593.796a10.7 10.7 0 0 0 2.115 3.625l1.483-.961c.147-.096.302-.165.467-.165.164 0 .3.058.439.137l3.048 1.73a.91.91 0 0 1 .44.824l-.11 1.785c.686.138 1.4.22 2.087.22s1.4-.082 2.087-.22l-.11-1.785a.91.91 0 0 1 .44-.824l3.048-1.73a.87.87 0 0 1 .44-.137c.164 0 .318.07.466.165l1.51.961a11.1 11.1 0 0 0 2.088-3.625l-1.593-.796a.87.87 0 0 1-.494-.77v-3.515c0-.33.197-.62.494-.769l1.593-.796a11.1 11.1 0 0 0-2.115-3.652l-1.483.988a.8.8 0 0 1-.466.138.83.83 0 0 1-.44-.11l-3.048-1.758a.87.87 0 0 1-.44-.796l.11-1.786A10.8 10.8 0 0 0 14 3.481m0 6.145a4.37 4.37 0 0 1 4.375 4.375A4.37 4.37 0 0 1 14 18.377a4.37 4.37 0 0 1-4.375-4.375A4.37 4.37 0 0 1 14 9.627m0 1.75a2.626 2.626 0 1 0 .001 5.251A2.626 2.626 0 0 0 14 11.377" clip-rule="evenodd"/></g><defs><clipPath id="a"><path fill="#fff" d="M0 0h28v28H0z"/></clipPath></defs></svg>