<svg xmlns="http://www.w3.org/2000/svg" width="20" height="20" fill="none"><g clip-path="url(#a)"><path fill="#1A1C1F" fill-rule="evenodd" d="M11.438 2.047c.906 0 1.624.719 1.656 1.625v1l.25.156.906-.531c.25-.156.531-.219.813-.219.562 0 1.124.281 1.406.813l1.312 2.187a1.7 1.7 0 0 1 .219.844c0 .5-.25 1.125-.844 1.437l-.906.5v.344l.875.531c.625.375.75.813.813 1.407 0 .312-.063.593-.22.843l-1.25 2.094a1.64 1.64 0 0 1-1.405.813c-.313 0-.594-.063-.844-.22l-.906-.562-.313.188v1c0 .906-.75 1.656-1.656 1.656H8.625c-.906 0-1.625-.75-1.625-1.656v-1l-.312-.188-.907.563a2 2 0 0 1-.843.219 1.68 1.68 0 0 1-1.407-.813l-1.25-2.094a1.6 1.6 0 0 1-.219-.843c0-.594.282-1.094.813-1.407l.875-.53v-.345l-.906-.5A1.68 1.68 0 0 1 2 7.922a1.7 1.7 0 0 1 .219-.844L3.53 4.891a1.61 1.61 0 0 1 1.406-.813c.282 0 .563.063.813.219l.906.531.25-.156v-1c0-.906.75-1.625 1.657-1.625zm-.344 1.969H8.906v1.78l-2.25 1.345-1.593-.938-.938 1.594 1.594.875.031 2.687-1.562.907.875 1.5 1.562-.938L9 14.11v1.844h2V14.11l2.344-1.28 1.594.937.874-1.5-1.593-.907.062-2.687 1.594-.875-.937-1.594-1.626.938-2.218-1.344zM10.016 8C11.118 8 12 8.882 12 9.984 12 11.118 11.118 12 10.016 12A1.99 1.99 0 0 1 8 9.984C8 8.882 8.882 8 10.016 8" clip-rule="evenodd"/></g><defs><clipPath id="a"><path fill="#fff" d="M0 0h20v20H0z"/></clipPath></defs></svg>