<svg width="32" height="32" viewBox="0 0 32 32" fill="none" xmlns="http://www.w3.org/2000/svg"><path d="M13.707 2.137 C 12.799 2.288,12.284 2.478,11.906 2.802 C 11.570 3.089,11.550 3.222,11.624 4.605 C 11.659 5.246,11.680 5.777,11.670 5.785 C 11.661 5.793,11.120 6.105,10.468 6.477 L 9.282 7.154 8.380 6.568 C 7.311 5.873,7.100 5.760,6.872 5.760 C 6.100 5.760,4.571 7.603,3.391 9.957 C 2.829 11.079,2.400 12.267,2.400 12.702 C 2.400 12.977,2.563 13.278,2.818 13.472 C 2.952 13.575,3.489 13.874,4.011 14.138 L 4.960 14.616 4.960 16.000 L 4.960 17.383 4.120 17.808 C 2.729 18.512,2.515 18.682,2.427 19.153 C 2.316 19.745,3.180 21.850,4.216 23.511 C 4.982 24.738,5.970 25.886,6.468 26.127 C 6.934 26.353,7.057 26.308,8.428 25.413 L 9.282 24.855 10.480 25.534 L 11.679 26.213 11.639 26.827 C 11.618 27.164,11.600 27.765,11.600 28.161 C 11.600 28.836,11.608 28.893,11.724 29.041 C 12.009 29.405,12.614 29.664,13.619 29.854 C 14.344 29.991,17.671 29.989,18.386 29.852 C 19.381 29.660,19.860 29.462,20.213 29.095 L 20.400 28.901 20.400 28.197 C 20.400 27.810,20.383 27.205,20.361 26.853 L 20.322 26.213 21.520 25.534 L 22.718 24.855 23.572 25.413 C 24.950 26.312,25.065 26.354,25.538 26.120 C 26.559 25.616,28.692 22.335,29.394 20.189 C 29.620 19.498,29.642 19.181,29.481 18.880 C 29.322 18.582,29.094 18.428,27.933 17.837 L 27.040 17.381 27.040 16.000 L 27.040 14.618 27.997 14.132 C 29.250 13.495,29.600 13.183,29.600 12.705 C 29.600 12.245,29.142 10.980,28.562 9.840 C 27.793 8.327,27.103 7.293,26.364 6.547 C 25.816 5.993,25.553 5.822,25.183 5.778 C 24.876 5.741,24.978 5.689,23.613 6.574 L 22.719 7.153 22.226 6.878 C 21.141 6.271,20.374 5.792,20.346 5.703 C 20.329 5.651,20.355 5.088,20.402 4.452 L 20.488 3.294 20.314 3.039 C 20.044 2.644,19.622 2.427,18.693 2.207 C 18.385 2.134,17.945 2.116,16.160 2.104 C 14.972 2.095,13.868 2.110,13.707 2.137 M16.667 4.053 C 17.195 4.081,17.795 4.131,18.001 4.164 L 18.374 4.224 18.337 4.712 C 18.316 4.980,18.295 5.502,18.289 5.871 C 18.276 6.758,18.318 6.848,18.917 7.235 C 19.512 7.619,21.451 8.750,22.067 9.074 C 22.339 9.217,22.627 9.333,22.707 9.332 C 22.922 9.330,23.227 9.176,23.963 8.700 C 24.324 8.466,24.711 8.231,24.823 8.178 L 25.026 8.081 25.183 8.267 C 25.544 8.696,26.424 10.076,26.739 10.707 C 27.224 11.679,27.382 12.095,27.304 12.190 C 27.269 12.232,26.857 12.464,26.387 12.705 C 25.410 13.207,25.136 13.420,25.065 13.733 C 25.038 13.851,25.015 14.914,25.015 16.096 C 25.013 18.464,25.005 18.401,25.352 18.706 C 25.454 18.795,25.923 19.067,26.396 19.309 C 26.868 19.552,27.280 19.781,27.310 19.818 C 27.350 19.866,27.313 20.014,27.176 20.345 C 26.650 21.614,25.843 22.970,25.137 23.770 L 24.987 23.940 24.160 23.410 C 23.213 22.802,22.958 22.667,22.755 22.667 C 22.676 22.667,22.437 22.753,22.225 22.859 C 21.486 23.227,18.831 24.760,18.620 24.940 C 18.273 25.237,18.245 25.414,18.315 26.861 L 18.358 27.776 18.206 27.806 C 17.509 27.945,17.238 27.965,16.000 27.965 C 14.762 27.965,14.491 27.945,13.794 27.806 L 13.642 27.776 13.685 26.861 C 13.755 25.414,13.727 25.237,13.380 24.940 C 13.169 24.760,10.514 23.227,9.775 22.859 C 9.563 22.753,9.328 22.667,9.253 22.667 C 9.064 22.667,8.691 22.865,7.827 23.424 C 7.420 23.687,7.055 23.890,7.015 23.875 C 6.911 23.835,6.410 23.199,6.006 22.594 C 5.660 22.076,5.039 20.900,4.801 20.313 C 4.603 19.826,4.616 19.809,5.608 19.303 C 6.082 19.060,6.551 18.791,6.651 18.703 C 6.994 18.402,6.987 18.461,6.985 16.096 C 6.985 14.914,6.962 13.851,6.935 13.733 C 6.864 13.421,6.591 13.208,5.620 12.706 C 5.154 12.465,4.742 12.248,4.704 12.223 C 4.626 12.171,4.764 11.785,5.187 10.877 C 5.606 9.978,6.777 8.178,7.000 8.093 C 7.037 8.078,7.379 8.272,7.760 8.522 C 8.619 9.087,9.081 9.333,9.283 9.333 C 9.369 9.333,9.661 9.217,9.933 9.074 C 10.549 8.750,12.488 7.619,13.083 7.235 C 13.682 6.848,13.724 6.758,13.711 5.871 C 13.705 5.502,13.684 4.980,13.663 4.710 L 13.625 4.221 14.079 4.156 C 15.278 3.984,15.325 3.982,16.667 4.053 M14.960 11.116 C 13.440 11.467,12.196 12.452,11.519 13.840 C 11.133 14.631,11.019 15.123,11.018 16.000 C 11.017 16.584,11.039 16.805,11.138 17.170 C 11.559 18.729,12.506 19.864,13.952 20.542 C 14.667 20.877,15.101 20.967,16.000 20.967 C 16.899 20.967,17.333 20.877,18.048 20.542 C 18.860 20.161,19.458 19.688,19.964 19.027 C 20.742 18.010,21.116 16.698,20.969 15.501 C 20.710 13.393,19.310 11.748,17.305 11.198 C 16.760 11.048,15.453 11.002,14.960 11.116 M16.706 13.117 C 17.486 13.316,18.022 13.685,18.442 14.313 C 18.882 14.972,18.944 15.197,18.924 16.079 C 18.907 16.812,18.903 16.834,18.715 17.227 C 18.460 17.758,18.114 18.170,17.670 18.469 C 17.111 18.847,16.737 18.956,16.000 18.956 C 15.263 18.956,14.889 18.847,14.330 18.469 C 13.886 18.170,13.540 17.758,13.285 17.227 L 13.093 16.827 13.093 16.000 C 13.093 15.185,13.096 15.168,13.259 14.827 C 13.601 14.111,14.124 13.586,14.807 13.274 C 15.404 13.001,16.047 12.948,16.706 13.117 " fill="#1A1C1F" stroke="none" fill-rule="evenodd"></path></svg>