<svg xmlns="http://www.w3.org/2000/svg" width="16" height="16" fill="none"><g clip-path="url(#a)"><path fill="#1A1C1F" fill-rule="evenodd" d="M9.15 1.638c.725 0 1.3.574 1.325 1.3v.8l.2.124.725-.424c.2-.126.425-.176.65-.176.45 0 .9.226 1.125.65l1.05 1.75c.125.226.175.45.175.676 0 .4-.2.9-.675 1.15l-.725.4v.274l.7.426c.5.3.6.65.65 1.124 0 .25-.05.476-.175.675l-1 1.675c-.225.4-.675.65-1.125.65-.25 0-.475-.05-.675-.175l-.725-.45-.25.15v.8c0 .725-.6 1.326-1.325 1.326H6.9c-.725 0-1.3-.6-1.3-1.325v-.8l-.25-.15-.725.45c-.2.1-.45.175-.675.175a1.34 1.34 0 0 1-1.125-.65l-1-1.676c-.125-.2-.175-.45-.175-.675 0-.474.225-.874.65-1.124l.7-.426v-.274l-.725-.4a1.35 1.35 0 0 1-.675-1.15c0-.226.05-.45.175-.676l1.05-1.75a1.29 1.29 0 0 1 1.125-.65c.225 0 .45.05.65.176l.725.424.2-.124v-.8c0-.726.6-1.3 1.325-1.3zm-.275 1.574h-1.75v1.426l-1.8 1.074-1.275-.75-.75 1.276 1.275.7.025 2.15-1.25.724.7 1.2 1.25-.75 1.9 1.025v1.475h1.6v-1.475l1.875-1.025 1.275.75.7-1.2-1.275-.724.05-2.15 1.275-.7-.75-1.276-1.3.75-1.775-1.074zM8.013 6.4A1.58 1.58 0 0 1 9.6 7.987c0 .908-.706 1.613-1.587 1.613A1.59 1.59 0 0 1 6.4 7.987c0-.881.705-1.587 1.613-1.587" clip-rule="evenodd"/></g><defs><clipPath id="a"><path fill="#fff" d="M0 0h16v16H0z"/></clipPath></defs></svg>