<svg width="24" height="24" viewBox="0 0 24 24" fill="none" xmlns="http://www.w3.org/2000/svg"><path d="M10.360 2.098 C 9.876 2.184,9.565 2.277,9.280 2.420 C 8.929 2.597,8.786 2.722,8.677 2.946 C 8.592 3.121,8.589 3.160,8.616 3.770 C 8.631 4.122,8.653 4.485,8.666 4.578 L 8.689 4.745 8.003 5.136 L 7.316 5.527 6.764 5.164 C 6.038 4.687,5.810 4.582,5.567 4.616 C 4.796 4.721,3.472 6.346,2.696 8.140 C 2.261 9.145,2.150 9.607,2.255 9.970 C 2.376 10.384,2.476 10.473,3.278 10.878 L 4.000 11.242 4.000 11.999 L 4.000 12.755 3.317 13.105 C 2.518 13.515,2.354 13.651,2.255 13.988 C 2.197 14.187,2.195 14.259,2.235 14.497 C 2.444 15.726,3.629 17.844,4.665 18.842 C 5.042 19.204,5.299 19.358,5.580 19.390 C 5.810 19.416,6.059 19.299,6.763 18.836 L 7.316 18.473 7.982 18.847 L 8.649 19.220 8.622 20.008 C 8.605 20.539,8.610 20.850,8.640 20.960 C 8.764 21.422,9.442 21.777,10.480 21.925 C 10.996 21.999,13.004 21.999,13.520 21.925 C 14.280 21.817,14.824 21.609,15.136 21.309 C 15.388 21.067,15.409 20.952,15.378 20.008 L 15.351 19.220 16.019 18.846 L 16.686 18.473 17.233 18.834 C 17.844 19.239,18.160 19.399,18.345 19.400 C 18.766 19.401,19.314 18.983,19.937 18.185 C 20.347 17.660,20.700 17.077,21.101 16.260 C 21.654 15.134,21.852 14.471,21.759 14.055 C 21.670 13.658,21.557 13.561,20.624 13.077 L 20.000 12.753 20.000 11.998 L 20.000 11.242 20.685 10.896 C 21.481 10.494,21.643 10.359,21.743 10.015 C 21.800 9.820,21.803 9.745,21.763 9.503 C 21.634 8.721,21.044 7.438,20.309 6.340 C 19.981 5.850,19.809 5.635,19.448 5.264 C 18.914 4.716,18.547 4.544,18.136 4.652 C 18.002 4.687,17.715 4.848,17.308 5.116 L 16.684 5.527 16.001 5.138 L 15.319 4.750 15.348 4.425 C 15.365 4.246,15.378 3.856,15.379 3.557 C 15.380 3.031,15.377 3.010,15.269 2.847 C 15.069 2.544,14.601 2.302,13.896 2.136 C 13.515 2.047,10.812 2.017,10.360 2.098 M13.037 4.084 C 13.201 4.104,13.341 4.128,13.350 4.137 C 13.358 4.145,13.346 4.356,13.323 4.606 C 13.270 5.172,13.269 5.420,13.320 5.604 C 13.403 5.902,13.732 6.147,15.107 6.934 C 16.244 7.585,16.376 7.647,16.663 7.670 C 16.965 7.695,17.089 7.643,17.761 7.218 L 18.253 6.906 18.348 7.023 C 18.701 7.454,19.194 8.293,19.499 8.981 L 19.595 9.198 19.037 9.484 C 18.418 9.802,18.152 10.008,18.073 10.231 C 17.998 10.443,17.996 13.554,18.071 13.765 C 18.157 14.005,18.381 14.185,18.968 14.483 C 19.411 14.707,19.520 14.779,19.520 14.846 C 19.520 14.959,19.248 15.565,18.996 16.011 C 18.716 16.507,18.285 17.090,18.216 17.064 C 18.187 17.053,17.996 16.937,17.791 16.807 C 17.078 16.354,16.818 16.266,16.460 16.356 C 16.283 16.400,14.338 17.489,13.881 17.799 C 13.758 17.883,13.591 18.024,13.511 18.113 C 13.291 18.357,13.263 18.512,13.312 19.240 C 13.342 19.697,13.341 19.867,13.308 19.888 C 13.120 20.003,10.880 20.003,10.692 19.888 C 10.659 19.867,10.658 19.697,10.688 19.240 C 10.762 18.133,10.776 18.148,8.711 16.967 C 8.167 16.656,7.639 16.381,7.539 16.356 C 7.182 16.266,6.921 16.354,6.209 16.807 C 6.004 16.937,5.813 17.053,5.784 17.064 C 5.659 17.112,4.973 16.034,4.601 15.208 C 4.462 14.898,4.442 14.825,4.485 14.774 C 4.513 14.740,4.744 14.608,4.998 14.480 C 5.596 14.180,5.755 14.059,5.893 13.806 L 6.006 13.599 5.993 11.969 C 5.978 10.138,5.982 10.168,5.682 9.911 C 5.589 9.832,5.264 9.639,4.959 9.482 L 4.405 9.198 4.501 8.981 C 4.803 8.299,5.316 7.424,5.651 7.022 L 5.749 6.905 6.241 7.217 C 6.849 7.603,7.011 7.678,7.240 7.679 C 7.519 7.680,7.656 7.627,8.321 7.258 C 10.107 6.267,10.584 5.924,10.681 5.560 C 10.728 5.385,10.717 4.872,10.655 4.345 L 10.630 4.130 10.965 4.084 C 11.149 4.059,11.354 4.033,11.420 4.026 C 11.626 4.005,12.725 4.044,13.037 4.084 M11.480 8.039 C 10.914 8.111,10.243 8.365,9.773 8.683 C 8.559 9.504,7.870 10.978,8.030 12.411 C 8.215 14.069,9.358 15.400,10.993 15.862 C 11.346 15.962,11.405 15.967,12.073 15.952 C 12.769 15.937,12.787 15.934,13.232 15.783 C 13.899 15.556,14.293 15.307,14.820 14.780 C 15.408 14.192,15.709 13.665,15.905 12.880 C 16.023 12.409,16.006 11.542,15.871 11.035 C 15.547 9.830,14.777 8.901,13.674 8.383 C 13.468 8.287,13.147 8.170,12.961 8.124 C 12.576 8.028,11.875 7.988,11.480 8.039 M12.408 10.044 C 13.467 10.265,14.169 11.333,13.947 12.385 C 13.710 13.503,12.606 14.216,11.542 13.939 C 10.513 13.671,9.830 12.600,10.045 11.592 C 10.132 11.183,10.261 10.966,10.633 10.598 C 10.913 10.321,11.032 10.234,11.222 10.162 C 11.653 10.001,12.022 9.964,12.408 10.044 " fill="#1A1C1F" stroke="none" fill-rule="evenodd"></path></svg>