<svg xmlns="http://www.w3.org/2000/svg" width="32" height="32" fill="none"><g clip-path="url(#a)"><path fill="#1A1C1F" fill-rule="evenodd" d="m20.457 3.508-.157 2.26 2.416 1.381L24.6 5.925c.168-.11.345-.188.533-.188 1.524 0 4.457 5.48 4.457 6.967 0 .377-.213.735-.565.91l-2.009 1.005v2.762l2.01 1.004c.35.176.564.534.564.91 0 1.528-3.114 6.968-4.457 6.968-.188 0-.365-.079-.533-.188l-1.884-1.224-2.416 1.38.157 2.23c.092 1.305-2.406 1.537-4.457 1.537-1.937 0-4.551-.2-4.457-1.538l.157-2.228-2.417-1.381L7.4 26.075c-.168.11-.345.188-.533.188-1.415 0-4.457-5.46-4.457-6.999 0-.345.226-.709.565-.879l2.009-1.004v-2.762l-2.01-1.004a1.02 1.02 0 0 1-.564-.91c0-1.485 3.016-6.968 4.457-6.968.188 0 .365.079.533.188L9.283 7.15 11.7 5.77l-.125-2.26c-.07-1.245 2.173-1.492 4.22-1.506L16 2.002c1.94 0 4.547.212 4.457 1.506M16 3.98c-.785 0-1.6.094-2.385.251l.125 2.04a.99.99 0 0 1-.502.91L9.754 9.19a.95.95 0 0 1-.502.125.93.93 0 0 1-.534-.157l-1.694-1.13a12 12 0 0 0-2.386 4.174l1.79.91c.337.172.564.503.564.88v4.017a.99.99 0 0 1-.565.878l-1.82.91a12.2 12.2 0 0 0 2.417 4.144l1.694-1.099c.17-.11.346-.188.534-.188s.343.066.502.157l3.484 1.977c.318.18.525.566.502.942l-.125 2.04c.784.157 1.6.25 2.385.25s1.6-.093 2.385-.25l-.125-2.04a1.04 1.04 0 0 1 .502-.942l3.484-1.977c.159-.09.314-.157.502-.157s.364.08.534.188l1.726 1.099a12.7 12.7 0 0 0 2.385-4.143l-1.82-.91a.99.99 0 0 1-.565-.88v-4.017a.99.99 0 0 1 .565-.878l1.82-.91a12.6 12.6 0 0 0-2.417-4.175l-1.694 1.13a.93.93 0 0 1-.534.157.95.95 0 0 1-.502-.126l-3.484-2.008a.99.99 0 0 1-.502-.91l.125-2.04A12.3 12.3 0 0 0 16 3.978m0 7.023c2.767 0 5 2.233 5 5s-2.233 5-5 5-5-2.233-5-5 2.233-5 5-5m0 2a3 3 0 1 0 .002 6.002A3 3 0 0 0 16 13.002" clip-rule="evenodd"/></g><defs><clipPath id="a"><path fill="#fff" d="M0 0h32v32H0z"/></clipPath></defs></svg>