<svg width="12" height="12" viewBox="0 0 12 12" fill="none" xmlns="http://www.w3.org/2000/svg"><path d="M4.940 1.258 C 4.724 1.289,4.441 1.473,4.316 1.663 C 4.174 1.879,4.155 1.963,4.144 2.416 L 4.135 2.822 4.061 2.859 L 3.987 2.897 3.749 2.756 C 3.351 2.520,3.246 2.476,3.044 2.465 C 2.627 2.441,2.353 2.590,2.097 2.980 C 1.956 3.197,1.612 3.771,1.414 4.122 C 1.163 4.567,1.137 4.823,1.306 5.180 C 1.410 5.402,1.603 5.565,2.040 5.802 L 2.240 5.910 2.240 6.021 L 2.240 6.132 2.105 6.210 C 1.653 6.473,1.418 6.672,1.329 6.866 C 1.240 7.061,1.220 7.394,1.284 7.598 C 1.308 7.676,1.452 7.932,1.766 8.460 C 2.260 9.289,2.347 9.382,2.738 9.501 C 3.040 9.592,3.325 9.505,3.882 9.149 L 4.014 9.064 4.105 9.121 L 4.196 9.177 4.205 9.584 C 4.212 9.932,4.220 10.006,4.256 10.105 C 4.347 10.354,4.550 10.576,4.793 10.690 C 4.958 10.769,5.242 10.786,6.200 10.775 L 6.990 10.766 7.125 10.714 C 7.463 10.584,7.701 10.315,7.771 9.985 C 7.789 9.899,7.799 9.728,7.800 9.515 L 7.800 9.180 7.893 9.122 L 7.986 9.064 8.118 9.149 C 8.377 9.314,8.592 9.434,8.706 9.477 C 9.017 9.593,9.383 9.527,9.658 9.304 C 9.757 9.224,9.912 8.993,10.278 8.384 C 10.772 7.561,10.806 7.462,10.728 7.084 C 10.659 6.748,10.533 6.604,10.054 6.310 L 9.761 6.130 9.761 6.020 L 9.761 5.910 9.975 5.792 C 10.093 5.728,10.262 5.627,10.350 5.569 C 10.606 5.401,10.738 5.187,10.787 4.863 C 10.822 4.626,10.778 4.463,10.588 4.125 C 10.414 3.816,9.997 3.126,9.852 2.905 C 9.636 2.578,9.353 2.440,8.949 2.465 C 8.753 2.477,8.643 2.523,8.251 2.756 L 8.013 2.897 7.936 2.858 L 7.860 2.819 7.859 2.525 C 7.859 2.132,7.835 1.968,7.757 1.804 C 7.670 1.621,7.458 1.409,7.274 1.322 L 7.138 1.257 6.094 1.250 C 5.520 1.245,5.001 1.249,4.940 1.258 M6.665 2.955 L 6.670 3.489 7.300 3.874 C 7.833 4.200,7.940 4.258,7.993 4.251 C 8.027 4.247,8.247 4.135,8.482 4.002 C 8.717 3.869,8.923 3.760,8.940 3.760 C 8.958 3.760,9.023 3.843,9.093 3.955 C 9.249 4.206,9.500 4.643,9.500 4.664 C 9.500 4.689,9.373 4.765,8.944 5.000 L 8.560 5.209 8.557 5.500 C 8.556 5.659,8.549 6.006,8.542 6.270 C 8.535 6.534,8.535 6.768,8.542 6.790 C 8.551 6.816,8.718 6.923,9.008 7.090 C 9.256 7.233,9.460 7.359,9.460 7.370 C 9.460 7.414,8.976 8.251,8.952 8.248 C 8.944 8.247,8.727 8.123,8.471 7.972 L 8.005 7.699 7.303 8.083 L 6.600 8.468 6.600 9.024 L 6.600 9.580 6.000 9.580 L 5.400 9.580 5.400 9.024 L 5.400 8.468 4.688 8.083 L 3.975 7.698 3.543 7.956 C 3.305 8.098,3.091 8.220,3.069 8.227 C 3.034 8.238,3.013 8.216,2.929 8.075 C 2.767 7.803,2.540 7.391,2.540 7.369 C 2.540 7.358,2.740 7.231,2.985 7.087 L 3.430 6.825 3.435 6.018 L 3.440 5.210 3.056 5.000 C 2.627 4.765,2.500 4.689,2.500 4.664 C 2.500 4.643,2.751 4.206,2.907 3.955 C 2.978 3.842,3.042 3.760,3.060 3.760 C 3.078 3.760,3.245 3.849,3.431 3.957 C 3.876 4.216,3.962 4.260,4.010 4.259 C 4.032 4.258,4.338 4.085,4.690 3.873 L 5.330 3.489 5.335 2.954 L 5.341 2.420 6.000 2.420 L 6.659 2.420 6.665 2.955 M5.767 4.830 C 5.539 4.871,5.341 4.978,5.161 5.157 C 4.986 5.333,4.898 5.484,4.840 5.712 C 4.767 5.994,4.805 6.300,4.944 6.566 C 5.032 6.735,5.271 6.971,5.440 7.055 C 5.605 7.137,5.851 7.200,6.010 7.200 C 6.170 7.200,6.410 7.138,6.566 7.056 C 6.739 6.966,6.971 6.728,7.056 6.556 C 7.303 6.052,7.223 5.536,6.840 5.157 C 6.660 4.979,6.478 4.881,6.236 4.831 C 6.055 4.795,5.962 4.794,5.767 4.830 " fill="#1A1C1F" stroke="none" fill-rule="evenodd"></path></svg>