<svg xmlns="http://www.w3.org/2000/svg" width="14" height="14" fill="none"><g clip-path="url(#a)"><path fill="#1A1C1F" fill-rule="evenodd" d="M8.006 1.433c.635 0 1.138.503 1.16 1.137v.7l.175.11.634-.372a1.06 1.06 0 0 1 .569-.153c.393 0 .787.197.984.568l.919 1.532c.11.197.153.393.153.59 0 .35-.175.788-.59 1.007l-.635.35v.24l.613.372c.437.263.524.569.568.984 0 .22-.043.416-.153.591l-.875 1.466c-.197.35-.59.568-.984.568-.219 0-.416-.043-.59-.153l-.635-.393-.219.13v.7c0 .635-.525 1.16-1.16 1.16H6.039a1.15 1.15 0 0 1-1.138-1.16v-.7l-.219-.13-.634.393a1.4 1.4 0 0 1-.59.153c-.319 0-.75-.167-.985-.568l-.875-1.466a1.14 1.14 0 0 1-.153-.59c0-.416.197-.766.569-.985l.612-.372v-.24l-.634-.35a1.177 1.177 0 0 1-.438-1.597l.919-1.532c.219-.371.59-.568.984-.568.197 0 .394.043.569.153l.634.372.175-.11v-.7c0-.634.525-1.137 1.16-1.137zm-.24 1.378H6.234v1.247l-1.575.94-1.115-.656-.656 1.116 1.115.612.022 1.882-1.094.634.613 1.05 1.094-.656 1.662.897v1.29h1.4v-1.29l1.64-.897 1.116.656.613-1.05-1.116-.634.044-1.882 1.116-.612-.657-1.116-1.137.656-1.553-.94zM7.01 5.6c.772 0 1.389.617 1.389 1.389 0 .794-.617 1.411-1.389 1.411A1.393 1.393 0 0 1 5.6 6.989c0-.772.617-1.389 1.411-1.389" clip-rule="evenodd"/></g><defs><clipPath id="a"><path fill="#fff" d="M0 0h14v14H0z"/></clipPath></defs></svg>