<svg width="20" height="20" viewBox="0 0 20 20" fill="none" xmlns="http://www.w3.org/2000/svg"><path d="M8.231 2.097 C 7.983 2.132,7.599 2.338,7.377 2.555 C 7.168 2.759,6.982 3.121,6.933 3.419 C 6.915 3.528,6.900 3.860,6.900 4.158 L 6.900 4.699 6.773 4.764 L 6.646 4.828 6.248 4.593 C 5.579 4.196,5.400 4.122,5.067 4.106 C 4.371 4.073,3.918 4.321,3.496 4.967 C 3.260 5.328,2.687 6.284,2.357 6.869 C 2.092 7.339,2.001 7.603,2.000 7.907 C 1.999 8.274,2.160 8.703,2.402 8.978 C 2.552 9.148,3.026 9.474,3.458 9.704 L 3.733 9.850 3.733 10.035 L 3.733 10.219 3.508 10.350 C 2.755 10.789,2.363 11.120,2.216 11.443 C 2.067 11.768,2.033 12.323,2.139 12.663 C 2.180 12.793,2.419 13.220,2.944 14.100 C 3.645 15.277,3.847 15.532,4.210 15.701 C 4.906 16.026,5.366 15.942,6.373 15.308 L 6.691 15.108 6.842 15.202 L 6.993 15.296 7.008 15.973 C 7.021 16.554,7.033 16.677,7.093 16.842 C 7.245 17.257,7.584 17.626,7.989 17.818 C 8.261 17.947,8.772 17.977,10.367 17.958 L 11.650 17.943 11.875 17.856 C 12.435 17.641,12.835 17.189,12.951 16.642 C 12.981 16.499,12.999 16.214,12.999 15.858 L 13.000 15.300 13.155 15.204 L 13.310 15.107 13.530 15.248 C 13.961 15.523,14.320 15.723,14.509 15.794 C 15.029 15.989,15.639 15.878,16.097 15.506 C 16.262 15.373,16.520 14.988,17.130 13.974 C 17.953 12.602,18.010 12.437,17.880 11.807 C 17.765 11.247,17.562 11.015,16.754 10.517 L 16.268 10.217 16.268 10.033 L 16.268 9.850 16.626 9.654 C 17.218 9.330,17.502 9.127,17.657 8.918 C 17.981 8.480,18.079 7.894,17.909 7.395 C 17.847 7.211,17.259 6.185,16.680 5.250 C 16.485 4.934,16.276 4.641,16.167 4.532 C 15.852 4.215,15.440 4.076,14.915 4.108 C 14.589 4.129,14.406 4.205,13.752 4.593 L 13.354 4.828 13.227 4.764 L 13.100 4.699 13.099 4.208 C 13.098 3.547,13.059 3.278,12.927 3.005 C 12.778 2.698,12.425 2.346,12.123 2.202 L 11.895 2.094 10.156 2.082 C 9.199 2.076,8.333 2.082,8.231 2.097 M11.108 4.924 L 11.117 5.815 12.167 6.457 C 13.054 7.000,13.233 7.097,13.321 7.086 C 13.379 7.078,13.746 6.891,14.137 6.669 C 14.528 6.448,14.871 6.267,14.900 6.267 C 14.956 6.267,15.206 6.650,15.602 7.346 L 15.847 7.776 15.757 7.846 C 15.708 7.885,15.353 8.089,14.967 8.300 L 14.267 8.683 14.263 9.133 C 14.261 9.381,14.249 9.958,14.237 10.417 C 14.225 10.875,14.225 11.280,14.237 11.317 C 14.251 11.359,14.530 11.539,15.014 11.817 C 15.601 12.154,15.766 12.263,15.755 12.307 C 15.737 12.377,15.051 13.590,14.973 13.689 L 14.917 13.761 14.130 13.296 L 13.343 12.831 12.171 13.472 L 11.000 14.113 11.000 15.040 L 11.000 15.967 10.000 15.967 L 9.000 15.967 9.000 15.041 L 9.000 14.115 7.813 13.472 L 6.625 12.830 5.904 13.260 C 5.508 13.497,5.153 13.700,5.115 13.712 C 5.056 13.731,5.018 13.686,4.845 13.392 C 4.558 12.906,4.233 12.316,4.233 12.280 C 4.233 12.263,4.350 12.181,4.492 12.096 C 4.634 12.012,4.971 11.813,5.242 11.652 L 5.733 11.361 5.733 10.022 L 5.733 8.683 5.608 8.614 C 5.539 8.576,5.187 8.382,4.825 8.182 C 4.463 7.983,4.167 7.803,4.167 7.783 C 4.167 7.740,4.557 7.054,4.845 6.592 C 4.963 6.403,5.070 6.267,5.101 6.267 C 5.130 6.267,5.408 6.414,5.718 6.595 C 6.460 7.026,6.603 7.100,6.683 7.098 C 6.720 7.097,7.230 6.808,7.817 6.455 L 8.883 5.815 8.892 4.924 L 8.901 4.033 10.000 4.033 L 11.099 4.033 11.108 4.924 M9.611 8.049 C 9.231 8.118,8.901 8.297,8.602 8.595 C 8.310 8.888,8.163 9.140,8.066 9.520 C 7.946 9.990,8.008 10.501,8.239 10.944 C 8.386 11.225,8.785 11.618,9.067 11.758 C 9.342 11.896,9.752 12.000,10.017 12.000 C 10.283 12.000,10.683 11.897,10.944 11.761 C 11.224 11.614,11.618 11.215,11.758 10.933 C 12.172 10.107,12.039 9.231,11.404 8.597 C 11.108 8.301,10.801 8.136,10.393 8.052 C 10.092 7.991,9.936 7.990,9.611 8.049 " fill="#1A1C1F" stroke="none" fill-rule="evenodd"></path></svg>