<svg width="16" height="16" viewBox="0 0 16 16" fill="none" xmlns="http://www.w3.org/2000/svg"><path d="M6.587 1.677 C 6.299 1.719,5.922 1.964,5.755 2.217 C 5.565 2.506,5.539 2.617,5.526 3.221 L 5.514 3.762 5.415 3.812 L 5.316 3.863 4.998 3.674 C 4.823 3.570,4.590 3.442,4.480 3.389 C 4.284 3.295,4.274 3.293,3.960 3.294 C 3.585 3.296,3.433 3.342,3.180 3.533 C 2.987 3.679,2.865 3.846,2.435 4.560 C 1.701 5.778,1.601 5.989,1.600 6.325 C 1.599 6.652,1.743 7.001,1.971 7.228 C 2.140 7.395,2.334 7.527,2.719 7.735 L 2.986 7.880 2.987 8.028 L 2.987 8.176 2.807 8.280 C 2.204 8.631,1.891 8.896,1.773 9.154 C 1.654 9.414,1.626 9.859,1.712 10.131 C 1.744 10.235,1.935 10.576,2.355 11.280 C 2.916 12.221,3.077 12.426,3.368 12.561 C 3.925 12.821,4.293 12.754,5.098 12.247 L 5.353 12.086 5.474 12.161 L 5.594 12.237 5.606 12.778 C 5.617 13.243,5.626 13.342,5.674 13.473 C 5.796 13.805,6.067 14.101,6.391 14.254 C 6.610 14.358,7.020 14.382,8.293 14.366 C 9.257 14.354,9.330 14.349,9.480 14.296 C 9.791 14.184,10.090 13.930,10.240 13.649 C 10.363 13.419,10.399 13.200,10.400 12.687 L 10.400 12.240 10.523 12.164 L 10.645 12.088 11.032 12.326 C 11.472 12.597,11.683 12.686,11.940 12.709 C 12.252 12.737,12.612 12.620,12.878 12.405 C 13.009 12.298,13.216 11.991,13.704 11.179 C 14.362 10.082,14.408 9.949,14.304 9.446 C 14.212 8.998,14.050 8.812,13.403 8.413 L 13.014 8.173 13.014 8.027 L 13.014 7.880 13.300 7.723 C 13.774 7.464,14.002 7.301,14.126 7.134 C 14.351 6.831,14.441 6.435,14.368 6.079 C 14.319 5.842,14.239 5.689,13.658 4.720 C 13.195 3.947,13.017 3.683,12.876 3.563 C 12.635 3.357,12.315 3.263,11.932 3.287 C 11.671 3.303,11.525 3.364,11.002 3.674 L 10.684 3.863 10.582 3.811 L 10.480 3.759 10.479 3.366 C 10.478 2.842,10.447 2.624,10.343 2.405 C 10.227 2.162,9.944 1.879,9.699 1.763 L 9.519 1.677 8.126 1.666 C 7.360 1.661,6.667 1.666,6.587 1.677 M8.886 3.939 L 8.893 4.652 9.733 5.165 C 10.443 5.600,10.586 5.677,10.657 5.668 C 10.703 5.663,10.997 5.513,11.309 5.336 C 11.622 5.158,11.897 5.013,11.920 5.013 C 11.944 5.013,12.031 5.124,12.124 5.273 C 12.333 5.609,12.667 6.191,12.667 6.219 C 12.667 6.251,12.498 6.353,11.925 6.666 L 11.413 6.946 11.410 7.333 C 11.408 7.546,11.399 8.008,11.390 8.360 C 11.380 8.712,11.380 9.024,11.390 9.053 C 11.401 9.088,11.623 9.231,12.010 9.453 C 12.342 9.644,12.613 9.812,12.613 9.827 C 12.613 9.887,11.966 11.002,11.934 10.997 C 11.924 10.996,11.636 10.831,11.295 10.630 L 10.674 10.265 9.737 10.778 L 8.800 11.290 8.800 12.032 L 8.800 12.773 8.000 12.773 L 7.200 12.773 7.200 12.033 L 7.200 11.292 6.250 10.778 L 5.300 10.264 4.724 10.608 C 4.406 10.797,4.122 10.960,4.092 10.970 C 4.045 10.985,4.015 10.949,3.876 10.713 C 3.646 10.325,3.387 9.853,3.387 9.824 C 3.387 9.810,3.480 9.744,3.593 9.677 C 3.707 9.610,3.977 9.450,4.193 9.322 L 4.587 9.089 4.586 8.018 L 4.586 6.947 4.486 6.891 C 4.432 6.861,4.150 6.705,3.860 6.546 C 3.570 6.386,3.333 6.242,3.333 6.226 C 3.333 6.177,3.899 5.210,4.032 5.032 C 4.070 4.981,4.038 4.965,4.972 5.505 C 5.118 5.589,5.274 5.663,5.319 5.669 C 5.386 5.678,5.546 5.592,6.253 5.165 L 7.107 4.652 7.114 3.939 L 7.121 3.227 8.000 3.227 L 8.879 3.227 8.886 3.939 M7.671 6.441 C 7.224 6.530,6.767 6.880,6.575 7.280 C 6.380 7.687,6.353 8.086,6.493 8.506 C 6.799 9.426,7.839 9.856,8.716 9.424 C 8.947 9.311,9.228 9.056,9.352 8.849 C 9.399 8.771,9.470 8.611,9.510 8.493 C 9.605 8.218,9.617 7.781,9.536 7.547 C 9.339 6.970,8.885 6.560,8.314 6.442 C 8.072 6.392,7.919 6.392,7.671 6.441 " fill="#1A1C1F" stroke="none" fill-rule="evenodd"></path></svg>