<svg xmlns="http://www.w3.org/2000/svg" width="12" height="12" fill="none"><g clip-path="url(#a)"><path fill="#1A1C1F" fill-rule="evenodd" d="M6.863 1.228c.543 0 .975.431.993.975v.6l.15.094.544-.319a.9.9 0 0 1 .488-.131c.337 0 .675.169.843.487l.788 1.313c.093.169.131.337.131.506 0 .3-.15.675-.506.863l-.544.3v.206l.525.319c.375.225.45.487.487.843a.93.93 0 0 1-.13.507l-.75 1.256a.98.98 0 0 1-.844.487.93.93 0 0 1-.507-.13l-.543-.338-.188.112v.6a1 1 0 0 1-.994.994H5.175a.984.984 0 0 1-.975-.994v-.6l-.187-.112-.544.337c-.15.075-.338.131-.506.131-.273 0-.643-.143-.844-.487l-.75-1.256a.97.97 0 0 1-.131-.507c0-.356.168-.656.487-.843l.525-.32v-.205l-.544-.3a1.01 1.01 0 0 1-.375-1.37l.788-1.312a.97.97 0 0 1 .844-.487c.168 0 .337.037.487.131l.544.319.15-.094v-.6c0-.544.45-.975.994-.975zM6.656 2.41H5.344v1.07l-1.35.805-.956-.562-.563.956.956.525.019 1.613-.937.543.525.9.937-.562 1.425.769v1.106h1.2V8.466l1.406-.77.957.563.525-.9-.957-.543.038-1.613.956-.525-.562-.956-.975.562-1.332-.806zM6.01 4.8c.662 0 1.191.53 1.191 1.19 0 .68-.53 1.21-1.19 1.21-.68 0-1.21-.53-1.21-1.21 0-.66.53-1.19 1.21-1.19" clip-rule="evenodd"/></g><defs><clipPath id="a"><path fill="#fff" d="M0 0h12v12H0z"/></clipPath></defs></svg>