<svg width="32" height="32" viewBox="0 0 32 32" fill="none" xmlns="http://www.w3.org/2000/svg"><path d="M19.142 4.045 C 18.164 4.159,17.927 5.378,18.787 5.871 L 19.013 6.000 22.293 6.028 C 25.979 6.060,25.784 6.037,26.067 6.464 L 26.213 6.686 26.213 16.000 L 26.213 25.314 26.067 25.536 C 25.986 25.658,25.818 25.812,25.693 25.879 L 25.467 26.000 22.183 26.027 L 18.899 26.053 18.684 26.195 C 18.249 26.484,18.131 27.104,18.430 27.530 C 18.517 27.654,18.672 27.804,18.774 27.864 C 18.956 27.971,19.029 27.973,22.373 27.973 C 26.114 27.973,25.945 27.986,26.617 27.650 C 27.267 27.324,27.863 26.612,28.109 25.866 L 28.240 25.467 28.240 16.000 L 28.240 6.533 28.109 6.134 C 27.863 5.389,27.271 4.680,26.617 4.348 C 25.989 4.031,26.065 4.037,22.613 4.023 C 20.868 4.016,19.306 4.026,19.142 4.045 M13.868 9.095 C 13.619 9.207,13.503 9.320,13.373 9.573 C 13.234 9.845,13.228 10.285,13.360 10.491 C 13.412 10.573,14.440 11.615,15.643 12.806 L 17.832 14.973 11.193 14.996 L 4.555 15.020 4.303 15.142 C 3.897 15.339,3.659 15.854,3.791 16.253 C 3.879 16.521,4.039 16.729,4.266 16.870 L 4.453 16.987 11.144 17.002 L 17.836 17.017 15.969 18.895 C 14.943 19.928,13.918 20.969,13.691 21.207 L 13.280 21.641 13.280 21.937 C 13.280 22.277,13.345 22.480,13.510 22.660 C 13.667 22.831,14.012 22.984,14.240 22.984 C 14.668 22.984,14.773 22.892,17.946 19.720 C 19.626 18.041,21.051 16.583,21.113 16.480 C 21.252 16.251,21.263 15.856,21.138 15.581 C 21.051 15.388,15.731 10.025,14.977 9.370 C 14.657 9.092,14.591 9.057,14.337 9.035 C 14.148 9.019,13.992 9.039,13.868 9.095 " fill="#1A1C1F" stroke="none" fill-rule="evenodd"></path></svg>