<svg xmlns="http://www.w3.org/2000/svg" width="24" height="24" fill="none"><g clip-path="url(#a)"><path fill="#1A1C1F" fill-rule="evenodd" d="M3.25 18a3 3 0 0 0 3 3h4c.563 0 1-.437 1-1s-.437-1-1-1h-4c-.562 0-1-.437-1-1V6c0-.562.438-1 1-1h4c.563 0 1-.437 1-1s-.437-1-1-1h-4a3 3 0 0 0-3 3zm5.5-6c0 .531.438 1 1 1h7.594l-2.282 2.281a1.04 1.04 0 0 0-.28.719c0 .563.437 1 .968 1 .25 0 .531-.125.719-.312l4-3.97c.187-.187.281-.468.281-.718s-.094-.531-.281-.719l-4-3.969a.95.95 0 0 0-1.406 0A.97.97 0 0 0 14.78 8c0 .25.094.5.281.719L17.345 11H9.75c-.562 0-1 .438-1 1" clip-rule="evenodd"/></g><defs><clipPath id="a"><path fill="#fff" d="M0 0h24v24H0z"/></clipPath></defs></svg>