<svg width="14" height="14" viewBox="0 0 14 14" fill="none" xmlns="http://www.w3.org/2000/svg"><path d="M3.698 2.123 C 3.300 2.148,3.008 2.246,2.679 2.465 C 2.269 2.737,2.009 3.098,1.817 3.662 L 1.750 3.859 1.750 6.999 L 1.749 10.138 1.836 10.393 C 2.081 11.111,2.562 11.587,3.275 11.818 L 3.536 11.902 4.480 11.895 L 5.425 11.888 5.540 11.832 C 5.796 11.706,5.935 11.485,5.937 11.200 C 5.938 10.981,5.859 10.799,5.709 10.678 C 5.502 10.511,5.541 10.516,4.573 10.506 L 3.698 10.496 3.573 10.437 C 3.440 10.373,3.286 10.232,3.228 10.120 C 3.157 9.982,3.144 9.369,3.157 6.644 L 3.169 3.990 3.228 3.889 C 3.302 3.763,3.476 3.601,3.588 3.554 C 3.657 3.525,3.846 3.515,4.561 3.502 C 5.352 3.487,5.457 3.480,5.530 3.443 C 5.845 3.279,5.982 3.016,5.925 2.679 C 5.893 2.483,5.804 2.344,5.639 2.230 C 5.534 2.158,5.488 2.142,5.319 2.123 C 5.102 2.098,4.104 2.098,3.698 2.123 M9.322 4.222 C 9.114 4.258,8.917 4.410,8.817 4.612 C 8.774 4.701,8.762 4.763,8.762 4.900 C 8.762 5.173,8.800 5.231,9.362 5.801 L 9.847 6.293 7.798 6.305 C 5.908 6.317,5.743 6.321,5.669 6.358 C 5.517 6.436,5.394 6.555,5.327 6.691 C 5.239 6.870,5.237 7.116,5.321 7.291 C 5.391 7.437,5.527 7.574,5.667 7.638 C 5.775 7.688,5.784 7.688,7.814 7.695 L 9.852 7.701 9.353 8.208 C 9.068 8.498,8.834 8.755,8.808 8.808 C 8.742 8.943,8.744 9.235,8.812 9.383 C 8.927 9.633,9.164 9.786,9.438 9.787 C 9.751 9.789,9.731 9.804,10.730 8.811 C 11.911 7.638,12.169 7.359,12.215 7.203 C 12.284 6.970,12.240 6.753,12.082 6.552 C 11.956 6.393,10.824 5.247,10.270 4.720 C 9.998 4.461,9.807 4.297,9.745 4.270 C 9.629 4.220,9.450 4.200,9.322 4.222 " fill="#1A1C1F" stroke="none" fill-rule="evenodd"></path></svg>