<svg width="24" height="24" viewBox="0 0 24 24" fill="none" xmlns="http://www.w3.org/2000/svg"><path d="M6.120 3.037 C 5.721 3.058,5.512 3.089,5.320 3.156 C 4.277 3.518,3.454 4.462,3.311 5.460 C 3.237 5.980,3.236 18.013,3.311 18.540 C 3.400 19.175,3.776 19.809,4.355 20.299 C 4.660 20.557,4.942 20.711,5.413 20.876 L 5.766 21.000 8.125 21.000 L 10.483 21.000 10.677 20.901 C 11.130 20.672,11.342 20.153,11.179 19.675 C 11.096 19.432,10.917 19.225,10.700 19.120 C 10.523 19.034,10.469 19.032,8.250 19.002 C 5.816 18.969,5.825 18.969,5.605 18.759 C 5.553 18.709,5.459 18.586,5.395 18.486 L 5.280 18.304 5.280 12.000 L 5.280 5.696 5.395 5.514 C 5.459 5.414,5.553 5.291,5.605 5.241 C 5.819 5.037,5.814 5.037,8.254 5.004 C 10.481 4.975,10.544 4.972,10.706 4.888 C 11.010 4.731,11.240 4.348,11.240 4.000 C 11.240 3.647,11.011 3.270,10.710 3.126 C 10.548 3.048,10.449 3.043,8.600 3.026 C 7.533 3.016,6.417 3.021,6.120 3.037 M15.525 7.040 C 15.334 7.085,15.083 7.272,14.941 7.475 C 14.829 7.634,14.820 7.672,14.820 7.993 C 14.820 8.323,14.827 8.350,14.958 8.540 C 15.034 8.650,15.599 9.248,16.215 9.870 L 17.333 11.000 14.717 11.000 C 13.278 11.000,11.490 11.012,10.745 11.027 L 9.389 11.053 9.206 11.177 C 8.583 11.595,8.629 12.500,9.293 12.880 L 9.500 12.999 12.700 13.000 C 14.460 13.000,16.211 13.012,16.590 13.026 L 17.281 13.053 16.170 14.176 C 15.560 14.794,15.007 15.378,14.942 15.473 C 14.803 15.678,14.761 16.018,14.840 16.302 C 14.897 16.504,15.146 16.809,15.335 16.909 C 15.495 16.993,15.930 16.995,16.122 16.912 C 16.406 16.789,20.401 12.837,20.624 12.457 C 20.720 12.294,20.740 12.215,20.740 12.000 C 20.740 11.785,20.720 11.706,20.624 11.542 C 20.408 11.176,16.403 7.206,16.141 7.099 C 15.970 7.029,15.684 7.002,15.525 7.040 " fill="#1A1C1F" stroke="none" fill-rule="evenodd"></path></svg>