<svg xmlns="http://www.w3.org/2000/svg" width="28" height="28" fill="none"><g clip-path="url(#a)"><path fill="#1A1C1F" fill-rule="evenodd" d="M22.094 3.5a2.626 2.626 0 0 1 2.625 2.625v15.75a2.626 2.626 0 0 1-2.625 2.625h-5.25a.864.864 0 0 1-.875-.875c0-.493.382-.875.875-.875h5.25a.864.864 0 0 0 .875-.875V6.125a.864.864 0 0 0-.875-.875h-5.25a.863.863 0 0 1-.875-.875c0-.493.382-.875.875-.875zm-9.625 4.375c.219 0 .437.082.6.246l5.279 5.278a.85.85 0 0 1 .246.601.92.92 0 0 1-.246.63l-5.25 5.25a.92.92 0 0 1-.63.245c-.519 0-.874-.382-.874-.875 0-.219.082-.437.246-.601l3.774-3.774H4.156A.864.864 0 0 1 3.281 14c0-.465.383-.875.875-.875h11.458L11.84 9.379c-.192-.164-.246-.41-.246-.629 0-.492.355-.875.875-.875" clip-rule="evenodd"/></g><defs><clipPath id="a"><path fill="#fff" d="M0 0h28v28H0z"/></clipPath></defs></svg>