<svg xmlns="http://www.w3.org/2000/svg" width="24" height="24" fill="none"><g clip-path="url(#a)"><path fill="#1A1C1F" fill-rule="evenodd" d="M20.5 6c0-1.656-1.305-3-2.914-3H13.7c-.546 0-.971.437-.971 1s.425 1 .971 1h3.886c.546 0 .971.438.971 1v12c0 .563-.425 1-.971 1H13.7c-.546 0-.971.438-.971 1s.425 1 .971 1h3.886c1.609 0 2.914-1.344 2.914-3zm-17 6c0 .531.425 1 .971 1h7.377l-2.216 2.281a1.06 1.06 0 0 0-.273.719c0 .563.425 1 .941 1 .243 0 .516-.125.698-.312l3.886-3.969c.182-.188.273-.469.273-.719s-.091-.531-.273-.719l-3.886-3.969A.9.9 0 0 0 10.33 7a.91.91 0 0 0-.698.312.99.99 0 0 0-.273.688c0 .25.091.5.273.719L11.848 11H4.471c-.546 0-.971.437-.971 1" clip-rule="evenodd"/></g><defs><clipPath id="a"><path fill="#fff" d="M0 0h24v24H0z"/></clipPath></defs></svg>