<svg xmlns="http://www.w3.org/2000/svg" width="14" height="14" fill="none"><g clip-path="url(#a)"><path fill="#1A1C1F" fill-rule="evenodd" d="M12.25 4.2a2.1 2.1 0 0 0-2.1-2.1h-1.4c-.393 0-.7.328-.7.7 0 .394.307.7.7.7h1.4c.372 0 .7.307.7.7v5.6c0 .394-.328.7-.7.7h-1.4c-.393 0-.7.307-.7.7 0 .372.307.7.7.7h1.4a2.1 2.1 0 0 0 2.1-2.1zM1.75 7c0 .372.306.7.7.7h3.916l-.898.897a.64.64 0 0 0-.218.503c0 .393.306.7.7.7.175 0 .35-.066.503-.197l2.1-2.122A.68.68 0 0 0 8.75 7a.77.77 0 0 0-.197-.503l-2.1-2.1A.73.73 0 0 0 5.95 4.2c-.372 0-.7.306-.7.7 0 .175.066.372.218.503l.898.897H2.45c-.394 0-.7.307-.7.7" clip-rule="evenodd"/></g><defs><clipPath id="a"><path fill="#fff" d="M0 0h14v14H0z"/></clipPath></defs></svg>