<svg xmlns="http://www.w3.org/2000/svg" width="32" height="32" fill="none"><path fill="#1A1C1F" fill-rule="evenodd" d="M18.853 4.101c-.663.306-.81 1.119-.29 1.614a.92.92 0 0 0 .477.253c.179.039 1.323.059 3.359.059q3.086 0 3.238.057c.202.076.379.248.502.487.098.192.101.46.101 9.429 0 9.057-.002 9.235-.104 9.435a.98.98 0 0 1-.697.534c-.178.038-1.341.058-3.375.059H18.96l-.212.12c-.396.225-.592.716-.454 1.135.091.276.397.597.631.662.122.034 1.406.055 3.426.055 3.05 0 3.255-.006 3.646-.106.545-.139.937-.369 1.376-.805q.622-.62.813-1.517c.119-.559.119-18.585 0-19.144-.251-1.183-1.159-2.107-2.314-2.352-.279-.059-1.017-.074-3.579-.074-3.024 0-3.24.007-3.44.099m-5.081 5.025c-.442.219-.658.908-.425 1.355.046.089 1.073 1.133 2.283 2.32l2.199 2.159-6.661.027c-6.396.025-6.669.03-6.864.127-.412.204-.639.71-.519 1.151.082.298.384.61.67.689.149.041 2.157.059 6.798.059h6.587l-2.221 2.227c-1.222 1.225-2.251 2.285-2.288 2.357a1.2 1.2 0 0 0-.066.409c0 .739.746 1.198 1.428.878.265-.124 6.395-6.251 6.478-6.474.031-.083.056-.277.056-.431a.78.78 0 0 0-.158-.517c-.261-.391-6.185-6.271-6.414-6.366a1.1 1.1 0 0 0-.883.03"/></svg>