<svg width="32" height="32" viewBox="0 0 32 32" fill="none" xmlns="http://www.w3.org/2000/svg"><path d="M6.613 4.053 C 6.010 4.091,5.771 4.150,5.351 4.364 C 4.727 4.683,4.132 5.404,3.891 6.134 L 3.760 6.533 3.760 16.000 L 3.760 25.467 3.890 25.864 C 4.134 26.608,4.733 27.324,5.383 27.650 C 6.055 27.986,5.886 27.973,9.627 27.973 C 13.463 27.973,13.234 27.997,13.543 27.569 C 13.888 27.093,13.763 26.458,13.264 26.157 C 13.101 26.058,12.937 26.052,9.813 26.027 L 6.533 26.000 6.307 25.879 C 6.182 25.812,6.014 25.658,5.933 25.536 L 5.787 25.314 5.787 16.000 L 5.787 6.686 5.933 6.464 C 6.216 6.037,6.021 6.060,9.707 6.028 L 12.987 6.000 13.235 5.854 C 13.900 5.463,13.913 4.594,13.260 4.170 L 13.040 4.027 10.133 4.020 C 8.535 4.017,6.951 4.031,6.613 4.053 M20.920 9.056 C 20.725 9.117,20.449 9.364,20.355 9.564 C 20.305 9.668,20.267 9.881,20.267 10.048 C 20.267 10.341,20.273 10.353,20.635 10.760 C 20.838 10.987,21.846 12.013,22.875 13.040 C 23.905 14.066,24.747 14.922,24.747 14.941 C 24.747 14.960,21.761 14.984,18.111 14.995 L 11.476 15.013 11.250 15.173 C 10.921 15.406,10.813 15.578,10.785 15.915 C 10.751 16.324,10.910 16.643,11.245 16.841 L 11.493 16.987 18.151 17.002 L 24.809 17.017 22.611 19.239 C 21.207 20.658,20.384 21.530,20.333 21.650 C 20.280 21.778,20.264 21.933,20.284 22.127 C 20.351 22.779,21.018 23.164,21.634 22.907 C 21.762 22.854,22.828 21.824,24.824 19.827 C 26.473 18.177,27.915 16.710,28.028 16.568 C 28.207 16.344,28.235 16.273,28.237 16.030 C 28.239 15.806,28.209 15.705,28.080 15.516 C 27.871 15.207,22.066 9.392,21.782 9.206 C 21.554 9.058,21.143 8.986,20.920 9.056 " fill="#1A1C1F" stroke="none" fill-rule="evenodd"></path></svg>