<svg width="20" height="20" viewBox="0 0 20 20" fill="none" xmlns="http://www.w3.org/2000/svg"><path d="M12.333 3.029 C 12.024 3.080,11.737 3.300,11.594 3.595 C 11.536 3.715,11.520 3.808,11.520 4.016 C 11.520 4.248,11.533 4.307,11.617 4.462 C 11.717 4.645,11.894 4.812,12.100 4.918 C 12.204 4.972,12.359 4.981,13.486 5.003 C 14.501 5.023,14.779 5.038,14.875 5.078 C 15.033 5.144,15.283 5.376,15.387 5.554 L 15.470 5.695 15.489 9.472 C 15.508 13.359,15.490 14.261,15.389 14.457 C 15.305 14.618,15.086 14.819,14.896 14.909 L 14.717 14.995 13.467 15.008 C 12.084 15.024,12.139 15.015,11.844 15.255 C 11.631 15.427,11.516 15.688,11.518 16.000 C 11.519 16.405,11.717 16.719,12.085 16.901 L 12.250 16.983 13.599 16.993 L 14.949 17.003 15.319 16.883 C 15.881 16.702,16.185 16.516,16.600 16.100 C 17.010 15.690,17.181 15.415,17.373 14.854 L 17.500 14.483 17.500 10.000 L 17.500 5.517 17.373 5.146 C 17.200 4.641,17.006 4.314,16.671 3.961 C 16.253 3.520,15.790 3.240,15.245 3.099 C 15.040 3.046,14.826 3.035,13.745 3.021 C 13.051 3.011,12.416 3.015,12.333 3.029 M8.317 6.033 C 8.022 6.081,7.740 6.298,7.599 6.587 C 7.537 6.714,7.519 6.806,7.518 7.000 C 7.516 7.389,7.570 7.471,8.374 8.287 L 9.067 8.990 6.140 9.007 C 3.436 9.023,3.205 9.029,3.098 9.083 C 2.881 9.194,2.706 9.364,2.611 9.559 C 2.485 9.815,2.481 10.166,2.601 10.415 C 2.702 10.625,2.896 10.820,3.095 10.912 C 3.249 10.983,3.263 10.983,6.163 10.993 L 9.076 11.002 8.361 11.726 C 7.948 12.145,7.620 12.506,7.582 12.583 C 7.489 12.775,7.492 13.194,7.589 13.405 C 7.752 13.761,8.092 13.980,8.483 13.982 C 8.929 13.984,8.901 14.006,10.329 12.587 C 12.016 10.911,12.384 10.512,12.450 10.290 C 12.549 9.958,12.485 9.647,12.259 9.361 C 12.079 9.131,10.533 7.567,9.706 6.776 C 9.289 6.378,9.012 6.139,8.922 6.101 C 8.759 6.031,8.504 6.002,8.317 6.033 " fill="#1A1C1F" stroke="none" fill-rule="evenodd"></path></svg>