<svg xmlns="http://www.w3.org/2000/svg" width="28" height="28" fill="none"><g clip-path="url(#a)"><path fill="#1A1C1F" fill-rule="evenodd" d="M3.281 21.875A2.626 2.626 0 0 0 5.906 24.5h5.25a.864.864 0 0 0 .875-.875.864.864 0 0 0-.875-.875h-5.25a.864.864 0 0 1-.875-.875V6.125c0-.492.383-.875.875-.875h5.25a.864.864 0 0 0 .875-.875.864.864 0 0 0-.875-.875h-5.25a2.626 2.626 0 0 0-2.625 2.625zM9.406 14c0 .492.383.875.875.875h11.457l-3.773 3.773a.85.85 0 0 0-.246.602c0 .492.355.875.875.875a.91.91 0 0 0 .629-.246l5.25-5.25a.91.91 0 0 0 .246-.629.85.85 0 0 0-.246-.602l-5.278-5.277a.85.85 0 0 0-.601-.246c-.52 0-.875.383-.875.875 0 .219.054.465.246.629l3.773 3.746H10.281a.88.88 0 0 0-.875.875" clip-rule="evenodd"/></g><defs><clipPath id="a"><path fill="#fff" d="M0 0h28v28H0z"/></clipPath></defs></svg>