<svg xmlns="http://www.w3.org/2000/svg" width="20" height="20" fill="none"><g clip-path="url(#a)"><path fill="#1A1C1F" fill-rule="evenodd" d="M2.5 14a3 3 0 0 0 3 3h2c.563 0 1-.469 1-1 0-.562-.437-1-1-1h-2c-.531 0-1-.437-1-1V6c0-.562.469-1 1-1h2c.563 0 1-.437 1-1 0-.531-.437-1-1-1h-2a3 3 0 0 0-3 3zm5-4c0 .531.438 1 1 1h5.594l-1.281 1.281A.9.9 0 0 0 12.5 13c0 .563.438 1 1 1 .25 0 .5-.094.719-.281l3-3.031A.97.97 0 0 0 17.5 10c0-.25-.094-.5-.281-.719l-3-3A1.04 1.04 0 0 0 13.5 6c-.531 0-1 .438-1 1 0 .25.094.531.313.719L14.093 9H8.5c-.562 0-1 .438-1 1" clip-rule="evenodd"/></g><defs><clipPath id="a"><path fill="#fff" d="M0 0h20v20H0z"/></clipPath></defs></svg>