<svg xmlns="http://www.w3.org/2000/svg" width="16" height="16" fill="none"><g clip-path="url(#a)"><path fill="#1A1C1F" fill-rule="evenodd" d="M2 11.2a2.4 2.4 0 0 0 2.4 2.4H6c.45 0 .8-.375.8-.8 0-.45-.35-.8-.8-.8H4.4c-.425 0-.8-.35-.8-.8V4.8c0-.45.375-.8.8-.8H6c.45 0 .8-.35.8-.8 0-.425-.35-.8-.8-.8H4.4A2.4 2.4 0 0 0 2 4.8zM6 8c0 .425.35.8.8.8h4.475L10.25 9.825a.72.72 0 0 0-.25.575c0 .45.35.8.8.8.2 0 .4-.075.575-.225l2.4-2.425C13.925 8.4 14 8.2 14 8s-.075-.4-.225-.575l-2.4-2.4A.84.84 0 0 0 10.8 4.8c-.425 0-.8.35-.8.8 0 .2.075.425.25.575L11.275 7.2H6.8c-.45 0-.8.35-.8.8" clip-rule="evenodd"/></g><defs><clipPath id="a"><path fill="#fff" d="M0 0h16v16H0z"/></clipPath></defs></svg>