<svg xmlns="http://www.w3.org/2000/svg" width="32" height="32" fill="none"><path fill="#1A1C1F" fill-rule="evenodd" d="M6.103 4.079c-1.133.247-2.041 1.178-2.289 2.349-.119.559-.119 18.585 0 19.144q.191.897.813 1.517c.439.436.831.666 1.376.805.391.1.596.106 3.646.106 2.02 0 3.304-.021 3.426-.055.234-.065.54-.386.631-.662.138-.419-.058-.91-.454-1.135l-.212-.12H9.936c-2.034-.001-3.197-.021-3.375-.059a.98.98 0 0 1-.697-.534c-.102-.2-.104-.378-.104-9.435 0-8.969.003-9.237.101-9.429.123-.239.3-.411.502-.487q.152-.057 3.238-.057c2.036 0 3.18-.02 3.359-.059.603-.129.948-.763.717-1.316a.98.98 0 0 0-.53-.551c-.201-.093-.413-.098-3.467-.096-2.486.003-3.33.02-3.577.074m14.724 5.01a1.1 1.1 0 0 0-.504.528c-.068.182-.074.623-.009.793.026.068 1.047 1.119 2.269 2.337l2.223 2.213-6.656.027-6.657.026-.24.142a.93.93 0 0 0-.48.841c0 .471.24.804.688.956.133.045 1.936.061 6.773.061h6.592l-2.194 2.2c-1.207 1.21-2.233 2.277-2.28 2.371-.105.21-.11.601-.012.831.089.208.326.438.53.515.21.079.595.071.798-.018.099-.043 1.512-1.419 3.328-3.24 2.702-2.711 3.163-3.196 3.213-3.379.072-.268.072-.311-.004-.58-.054-.189-.5-.658-3.187-3.354q-3.124-3.135-3.342-3.24c-.248-.121-.616-.134-.849-.03"/></svg>