<svg width="12" height="12" viewBox="0 0 12 12" fill="none" xmlns="http://www.w3.org/2000/svg"><path d="M7.400 1.817 C 7.214 1.848,7.032 1.988,6.954 2.160 C 6.895 2.289,6.896 2.538,6.957 2.654 C 7.021 2.779,7.104 2.865,7.223 2.930 L 7.329 2.988 8.091 3.002 C 8.701 3.014,8.867 3.022,8.925 3.047 C 9.020 3.086,9.170 3.226,9.233 3.332 L 9.282 3.417 9.293 5.684 C 9.305 8.016,9.294 8.557,9.233 8.674 C 9.185 8.767,9.045 8.895,8.933 8.948 C 8.830 8.997,8.827 8.997,8.080 9.005 C 7.354 9.013,7.327 9.015,7.244 9.058 C 7.128 9.117,7.005 9.244,6.953 9.357 C 6.892 9.490,6.895 9.714,6.960 9.849 C 7.019 9.970,7.131 10.082,7.256 10.144 C 7.349 10.189,7.360 10.190,8.160 10.196 L 8.969 10.202 9.191 10.130 C 9.529 10.021,9.711 9.910,9.960 9.660 C 10.204 9.416,10.303 9.258,10.422 8.920 L 10.500 8.698 10.500 6.000 L 10.500 3.302 10.422 3.080 C 10.315 2.776,10.202 2.586,10.003 2.376 C 9.752 2.112,9.474 1.944,9.147 1.860 C 9.024 1.828,8.895 1.821,8.247 1.812 C 7.831 1.807,7.450 1.809,7.400 1.817 M4.990 3.619 C 4.812 3.649,4.643 3.780,4.558 3.953 C 4.520 4.029,4.510 4.082,4.510 4.200 C 4.510 4.434,4.543 4.483,5.024 4.972 L 5.440 5.394 3.685 5.404 L 1.930 5.414 1.844 5.458 C 1.729 5.517,1.605 5.644,1.553 5.757 C 1.492 5.890,1.495 6.114,1.561 6.249 C 1.621 6.374,1.725 6.479,1.852 6.542 L 1.950 6.590 3.698 6.596 L 5.445 6.601 5.017 7.036 C 4.769 7.287,4.572 7.504,4.549 7.550 C 4.493 7.665,4.495 7.916,4.553 8.043 C 4.651 8.257,4.855 8.388,5.090 8.389 C 5.358 8.391,5.341 8.403,6.197 7.552 C 7.209 6.547,7.430 6.307,7.470 6.174 C 7.510 6.038,7.508 5.941,7.461 5.808 C 7.408 5.657,7.354 5.595,6.740 4.972 C 5.979 4.201,5.454 3.704,5.353 3.661 C 5.253 3.618,5.100 3.600,4.990 3.619 " fill="#1A1C1F" stroke="none" fill-rule="evenodd"></path></svg>