<svg width="14" height="14" viewBox="0 0 14 14" fill="none" xmlns="http://www.w3.org/2000/svg"><path d="M8.633 2.122 C 8.420 2.154,8.217 2.308,8.115 2.517 C 8.042 2.667,8.042 2.954,8.116 3.097 C 8.191 3.242,8.288 3.343,8.427 3.418 L 8.551 3.486 9.439 3.502 C 10.155 3.515,10.343 3.525,10.412 3.554 C 10.523 3.601,10.698 3.763,10.772 3.889 L 10.830 3.989 10.843 6.632 C 10.855 9.351,10.843 9.983,10.772 10.120 C 10.716 10.228,10.553 10.377,10.422 10.439 C 10.302 10.496,10.298 10.496,9.427 10.506 C 8.643 10.514,8.543 10.520,8.470 10.557 C 8.316 10.636,8.194 10.755,8.127 10.891 C 8.072 11.004,8.062 11.053,8.064 11.200 C 8.068 11.490,8.202 11.705,8.460 11.832 L 8.575 11.888 9.520 11.895 L 10.464 11.902 10.723 11.818 C 11.117 11.691,11.329 11.561,11.620 11.270 C 11.907 10.983,12.026 10.791,12.161 10.398 L 12.250 10.138 12.250 7.004 L 12.250 3.869 12.165 3.614 C 11.938 2.928,11.449 2.424,10.799 2.205 C 10.621 2.145,10.563 2.138,10.115 2.121 C 9.530 2.100,8.780 2.100,8.633 2.122 M5.822 4.222 C 5.614 4.258,5.417 4.410,5.317 4.612 C 5.274 4.701,5.262 4.763,5.262 4.900 C 5.262 5.173,5.300 5.231,5.862 5.801 L 6.347 6.293 4.298 6.305 C 2.408 6.317,2.243 6.321,2.169 6.358 C 2.017 6.436,1.894 6.555,1.827 6.691 C 1.739 6.870,1.737 7.116,1.821 7.291 C 1.891 7.437,2.027 7.574,2.167 7.638 C 2.275 7.688,2.284 7.688,4.314 7.695 L 6.352 7.701 5.853 8.208 C 5.568 8.498,5.334 8.755,5.308 8.808 C 5.242 8.943,5.244 9.235,5.312 9.383 C 5.427 9.633,5.664 9.786,5.938 9.787 C 6.251 9.789,6.231 9.804,7.230 8.811 C 8.411 7.638,8.669 7.359,8.715 7.203 C 8.784 6.970,8.740 6.753,8.582 6.552 C 8.456 6.393,7.324 5.247,6.770 4.720 C 6.498 4.461,6.307 4.297,6.245 4.270 C 6.129 4.220,5.950 4.200,5.822 4.222 " fill="#1A1C1F" stroke="none" fill-rule="evenodd"></path></svg>