<svg width="20" height="20" viewBox="0 0 20 20" fill="none" xmlns="http://www.w3.org/2000/svg"><path d="M5.283 3.034 C 4.818 3.061,4.598 3.118,4.181 3.320 C 3.421 3.688,2.909 4.303,2.601 5.215 L 2.500 5.513 2.500 9.998 L 2.499 14.483 2.623 14.847 C 2.973 15.873,3.660 16.553,4.678 16.882 L 5.051 17.003 6.401 16.993 L 7.750 16.983 7.915 16.901 C 8.281 16.720,8.477 16.408,8.481 16.000 C 8.483 15.790,8.468 15.719,8.389 15.559 C 8.294 15.364,8.120 15.194,7.900 15.082 C 7.796 15.028,7.653 15.021,6.533 15.008 L 5.283 14.995 5.104 14.909 C 4.914 14.819,4.695 14.618,4.611 14.457 C 4.510 14.261,4.492 13.357,4.511 9.473 L 4.529 5.697 4.612 5.555 C 4.717 5.377,4.967 5.144,5.125 5.078 C 5.221 5.038,5.500 5.023,6.514 5.003 C 7.734 4.979,7.789 4.975,7.926 4.904 C 8.249 4.738,8.469 4.419,8.477 4.104 C 8.489 3.663,8.371 3.403,8.063 3.191 C 7.906 3.082,7.843 3.061,7.599 3.033 C 7.286 2.997,5.907 2.998,5.283 3.034 M13.317 6.033 C 13.022 6.081,12.740 6.298,12.599 6.587 C 12.537 6.714,12.519 6.806,12.518 7.000 C 12.516 7.389,12.570 7.471,13.374 8.287 L 14.067 8.990 11.140 9.007 C 8.436 9.023,8.205 9.029,8.098 9.083 C 7.881 9.194,7.706 9.364,7.611 9.559 C 7.485 9.815,7.481 10.166,7.601 10.415 C 7.702 10.625,7.896 10.820,8.095 10.912 C 8.249 10.983,8.263 10.983,11.163 10.993 L 14.076 11.002 13.361 11.726 C 12.948 12.145,12.620 12.506,12.582 12.583 C 12.489 12.775,12.492 13.194,12.589 13.405 C 12.752 13.761,13.092 13.980,13.483 13.982 C 13.929 13.984,13.901 14.006,15.329 12.587 C 17.016 10.911,17.384 10.512,17.450 10.290 C 17.549 9.958,17.485 9.647,17.259 9.361 C 17.079 9.131,15.533 7.567,14.706 6.776 C 14.289 6.378,14.012 6.139,13.922 6.101 C 13.759 6.031,13.504 6.002,13.317 6.033 " fill="#1A1C1F" stroke="none" fill-rule="evenodd"></path></svg>