<svg xmlns="http://www.w3.org/2000/svg" width="20" height="20" fill="none"><g clip-path="url(#a)"><path fill="#1A1C1F" fill-rule="evenodd" d="M17.5 6c0-1.656-1.344-3-3-3h-2c-.562 0-1 .469-1 1 0 .563.438 1 1 1h2c.531 0 1 .438 1 1v8c0 .563-.469 1-1 1h-2c-.562 0-1 .438-1 1 0 .531.438 1 1 1h2c1.656 0 3-1.344 3-3zm-15 4c0 .531.437 1 1 1h5.594l-1.282 1.281A.9.9 0 0 0 7.5 13c0 .562.437 1 1 1 .25 0 .5-.094.719-.281l3-3.032A.97.97 0 0 0 12.5 10c0-.25-.094-.5-.281-.719l-3-3A1.05 1.05 0 0 0 8.5 6c-.531 0-1 .437-1 1 0 .25.094.531.312.719L9.094 9H3.5c-.563 0-1 .438-1 1" clip-rule="evenodd"/></g><defs><clipPath id="a"><path fill="#fff" d="M0 0h20v20H0z"/></clipPath></defs></svg>