<svg xmlns="http://www.w3.org/2000/svg" width="32" height="32" fill="none"><g clip-path="url(#a)"><path fill="#1A1C1F" fill-rule="evenodd" d="M3.75 25a3 3 0 0 0 3 3h6c.563 0 1-.437 1-1s-.437-1-1-1h-6c-.562 0-1-.437-1-1V7c0-.562.438-1 1-1h6c.563 0 1-.437 1-1s-.437-1-1-1h-6a3 3 0 0 0-3 3zm7-9c0 .563.438 1 1 1h13.094l-4.313 4.313a.97.97 0 0 0-.281.687c0 .563.406 1 1 1 .25 0 .531-.094.719-.281l6-6c.187-.188.281-.469.281-.719a.97.97 0 0 0-.281-.687L21.937 9.28A.97.97 0 0 0 21.25 9c-.594 0-1 .438-1 1 0 .25.063.531.281.719L24.844 15H11.75c-.562 0-1 .469-1 1" clip-rule="evenodd"/></g><defs><clipPath id="a"><path fill="#fff" d="M0 0h32v32H0z"/></clipPath></defs></svg>