<svg width="16" height="16" viewBox="0 0 16 16" fill="none" xmlns="http://www.w3.org/2000/svg"><path d="M9.867 2.423 C 9.619 2.464,9.391 2.639,9.275 2.877 C 9.191 3.048,9.191 3.376,9.276 3.539 C 9.361 3.706,9.472 3.820,9.631 3.907 L 9.773 3.984 10.788 4.003 C 11.601 4.018,11.823 4.030,11.900 4.062 C 12.027 4.115,12.227 4.301,12.311 4.445 L 12.379 4.560 12.392 7.580 C 12.406 10.683,12.391 11.410,12.311 11.565 C 12.244 11.694,12.069 11.855,11.917 11.928 L 11.773 11.996 10.773 12.007 C 9.878 12.017,9.764 12.023,9.680 12.066 C 9.504 12.156,9.365 12.291,9.288 12.447 C 9.226 12.575,9.214 12.633,9.215 12.800 C 9.217 13.130,9.372 13.376,9.669 13.522 L 9.800 13.587 10.880 13.594 L 11.959 13.602 12.255 13.507 C 12.705 13.361,12.948 13.213,13.280 12.880 C 13.606 12.554,13.737 12.344,13.896 11.893 L 14.000 11.597 14.000 8.001 L 14.000 4.405 13.905 4.129 C 13.749 3.678,13.595 3.426,13.286 3.111 C 12.987 2.807,12.603 2.584,12.196 2.479 C 12.032 2.437,11.861 2.428,10.996 2.417 C 10.441 2.409,9.933 2.412,9.867 2.423 M6.653 4.826 C 6.417 4.864,6.192 5.039,6.079 5.269 C 6.029 5.371,6.015 5.445,6.014 5.600 C 6.013 5.911,6.056 5.977,6.699 6.629 L 7.254 7.192 4.913 7.206 C 2.742 7.218,2.566 7.222,2.480 7.266 C 2.305 7.355,2.165 7.491,2.088 7.647 C 1.988 7.852,1.985 8.133,2.081 8.332 C 2.161 8.500,2.317 8.656,2.476 8.729 C 2.599 8.786,2.610 8.787,4.930 8.794 L 7.260 8.802 6.689 9.381 C 6.363 9.712,6.096 10.006,6.066 10.067 C 5.991 10.220,5.993 10.555,6.071 10.724 C 6.202 11.009,6.473 11.184,6.787 11.186 C 7.143 11.188,7.121 11.205,8.263 10.070 C 9.613 8.729,9.907 8.410,9.960 8.232 C 10.039 7.966,9.988 7.718,9.808 7.488 C 9.664 7.306,8.370 5.997,7.738 5.394 C 7.426 5.097,7.208 4.911,7.138 4.881 C 7.007 4.825,6.803 4.802,6.653 4.826 " fill="#1A1C1F" stroke="none" fill-rule="evenodd"></path></svg>