<svg width="28" height="28" viewBox="0 0 28 28" fill="none" xmlns="http://www.w3.org/2000/svg"><path d="M16.750 3.540 C 15.883 3.641,15.680 4.756,16.459 5.139 L 16.683 5.250 19.530 5.274 C 22.730 5.301,22.561 5.282,22.809 5.656 L 22.937 5.850 22.937 14.000 L 22.937 22.150 22.808 22.344 C 22.738 22.451,22.591 22.586,22.482 22.644 L 22.283 22.750 19.413 22.773 C 16.680 22.796,16.536 22.801,16.394 22.887 C 15.958 23.151,15.848 23.707,16.150 24.123 C 16.421 24.497,16.220 24.477,19.577 24.477 C 22.849 24.477,22.702 24.488,23.290 24.194 C 23.859 23.909,24.380 23.286,24.595 22.633 L 24.710 22.283 24.710 14.000 L 24.710 5.717 24.595 5.367 C 24.380 4.715,23.862 4.095,23.290 3.805 C 22.743 3.528,22.805 3.533,19.787 3.521 C 18.259 3.514,16.893 3.523,16.750 3.540 M12.135 7.958 C 11.917 8.056,11.815 8.155,11.702 8.376 C 11.580 8.614,11.575 8.999,11.690 9.180 C 11.736 9.251,12.636 10.165,13.692 11.211 L 15.610 13.112 11.013 13.117 C 8.485 13.120,5.839 13.136,5.133 13.153 C 3.920 13.182,3.841 13.189,3.685 13.286 C 3.507 13.396,3.343 13.651,3.291 13.895 C 3.230 14.183,3.429 14.572,3.733 14.761 L 3.897 14.863 9.751 14.877 L 15.606 14.890 13.973 16.533 C 13.075 17.437,12.178 18.348,11.980 18.556 L 11.620 18.936 11.620 19.199 C 11.620 19.524,11.702 19.729,11.896 19.893 C 12.097 20.062,12.355 20.133,12.623 20.093 C 12.827 20.062,12.897 20.007,13.689 19.253 C 14.859 18.140,18.371 14.587,18.482 14.405 C 18.595 14.220,18.602 13.867,18.496 13.634 C 18.419 13.465,13.765 8.772,13.105 8.198 C 12.825 7.955,12.767 7.925,12.545 7.906 C 12.379 7.892,12.243 7.909,12.135 7.958 " fill="#1A1C1F" stroke="none" fill-rule="evenodd"></path></svg>