<svg xmlns="http://www.w3.org/2000/svg" width="12" height="12" fill="none"><g clip-path="url(#a)"><path fill="#1A1C1F" fill-rule="evenodd" d="M10.5 3.6a1.8 1.8 0 0 0-1.8-1.8H7.5c-.337 0-.6.281-.6.6 0 .338.263.6.6.6h1.2c.319 0 .6.263.6.6v4.8c0 .338-.281.6-.6.6H7.5c-.337 0-.6.263-.6.6 0 .319.263.6.6.6h1.2a1.8 1.8 0 0 0 1.8-1.8zM1.5 6c0 .319.262.6.6.6h3.356l-.769.769A.55.55 0 0 0 4.5 7.8c0 .337.262.6.6.6.15 0 .3-.056.431-.169l1.8-1.819A.58.58 0 0 0 7.5 6c0-.15-.056-.3-.169-.431l-1.8-1.8A.63.63 0 0 0 5.1 3.6c-.319 0-.6.262-.6.6 0 .15.056.319.187.431l.77.769H2.1c-.338 0-.6.263-.6.6" clip-rule="evenodd"/></g><defs><clipPath id="a"><path fill="#fff" d="M0 0h12v12H0z"/></clipPath></defs></svg>