<svg xmlns="http://www.w3.org/2000/svg" width="12" height="12" fill="none"><g clip-path="url(#a)"><path fill="#1A1C1F" fill-rule="evenodd" d="M1.5 8.4a1.8 1.8 0 0 0 1.8 1.8h1.2c.338 0 .6-.281.6-.6 0-.338-.262-.6-.6-.6H3.3a.604.604 0 0 1-.6-.6V3.6c0-.338.281-.6.6-.6h1.2c.338 0 .6-.263.6-.6 0-.319-.262-.6-.6-.6H3.3a1.8 1.8 0 0 0-1.8 1.8zm3-2.4c0 .319.263.6.6.6h3.356l-.768.769A.54.54 0 0 0 7.5 7.8c0 .337.263.6.6.6.15 0 .3-.056.431-.169l1.8-1.819A.58.58 0 0 0 10.5 6c0-.15-.056-.3-.169-.431l-1.8-1.8A.63.63 0 0 0 8.1 3.6c-.319 0-.6.262-.6.6 0 .15.056.319.188.431l.768.769H5.1c-.337 0-.6.262-.6.6" clip-rule="evenodd"/></g><defs><clipPath id="a"><path fill="#fff" d="M0 0h12v12H0z"/></clipPath></defs></svg>