<svg width="16" height="16" viewBox="0 0 16 16" fill="none" xmlns="http://www.w3.org/2000/svg"><path d="M4.240 2.427 C 3.867 2.449,3.661 2.501,3.345 2.655 C 2.736 2.952,2.327 3.443,2.081 4.172 L 2.000 4.410 2.000 7.998 L 1.999 11.587 2.099 11.877 C 2.378 12.698,2.928 13.243,3.743 13.506 L 4.041 13.602 5.120 13.594 L 6.200 13.587 6.332 13.521 C 6.625 13.376,6.782 13.125,6.785 12.800 C 6.786 12.550,6.695 12.342,6.525 12.204 C 6.288 12.012,6.333 12.019,5.227 12.007 L 4.227 11.996 4.083 11.928 C 3.930 11.855,3.756 11.694,3.688 11.563 C 3.609 11.409,3.594 10.705,3.607 7.595 L 3.620 4.562 3.688 4.446 C 3.773 4.302,3.972 4.115,4.100 4.062 C 4.177 4.030,4.400 4.018,5.211 4.002 C 6.173 3.984,6.232 3.980,6.336 3.926 C 6.683 3.747,6.836 3.444,6.772 3.061 C 6.735 2.837,6.634 2.679,6.445 2.549 C 6.325 2.466,6.272 2.449,6.079 2.426 C 5.832 2.398,4.728 2.398,4.240 2.427 M10.653 4.826 C 10.417 4.864,10.192 5.039,10.079 5.269 C 10.029 5.371,10.015 5.445,10.014 5.600 C 10.013 5.911,10.056 5.977,10.699 6.629 L 11.254 7.192 8.913 7.206 C 6.742 7.218,6.566 7.222,6.480 7.266 C 6.305 7.355,6.165 7.491,6.088 7.647 C 5.988 7.852,5.985 8.133,6.081 8.332 C 6.161 8.500,6.317 8.656,6.476 8.729 C 6.599 8.786,6.610 8.787,8.930 8.794 L 11.260 8.802 10.689 9.381 C 10.363 9.712,10.096 10.006,10.066 10.067 C 9.991 10.220,9.993 10.555,10.071 10.724 C 10.202 11.009,10.473 11.184,10.787 11.186 C 11.143 11.188,11.121 11.205,12.263 10.070 C 13.613 8.729,13.907 8.410,13.960 8.232 C 14.039 7.966,13.988 7.718,13.808 7.488 C 13.664 7.306,12.370 5.997,11.738 5.394 C 11.426 5.097,11.208 4.911,11.138 4.881 C 11.007 4.825,10.803 4.802,10.653 4.826 " fill="#1A1C1F" stroke="none" fill-rule="evenodd"></path></svg>