<svg width="28" height="28" viewBox="0 0 28 28" fill="none" xmlns="http://www.w3.org/2000/svg"><path d="M5.787 3.546 C 5.259 3.580,5.050 3.631,4.682 3.819 C 4.136 4.097,3.615 4.729,3.405 5.367 L 3.290 5.717 3.290 14.023 L 3.290 22.330 3.399 22.633 C 3.713 23.507,4.305 24.092,5.180 24.389 C 5.420 24.471,5.627 24.477,8.423 24.477 C 11.780 24.477,11.579 24.497,11.850 24.123 C 12.159 23.697,12.050 23.183,11.585 22.878 C 11.472 22.804,11.216 22.795,8.589 22.773 L 5.717 22.750 5.518 22.644 C 5.409 22.586,5.262 22.451,5.192 22.344 L 5.063 22.150 5.063 14.000 L 5.063 5.850 5.191 5.656 C 5.439 5.282,5.268 5.302,8.493 5.274 L 11.363 5.250 11.581 5.122 C 12.162 4.780,12.174 4.020,11.603 3.649 L 11.410 3.523 8.867 3.518 C 7.468 3.514,6.082 3.527,5.787 3.546 M18.305 7.924 C 18.134 7.977,17.893 8.194,17.810 8.368 C 17.767 8.459,17.733 8.646,17.733 8.792 C 17.733 9.049,17.739 9.059,18.056 9.415 C 18.233 9.614,19.115 10.512,20.016 11.410 C 20.916 12.308,21.653 13.057,21.653 13.073 C 21.653 13.090,19.041 13.111,15.847 13.120 L 10.041 13.137 9.843 13.277 C 9.555 13.480,9.461 13.631,9.437 13.925 C 9.407 14.284,9.546 14.563,9.839 14.736 L 10.057 14.863 15.882 14.877 L 21.708 14.890 19.784 16.834 C 18.556 18.076,17.836 18.839,17.792 18.944 C 17.745 19.055,17.731 19.192,17.749 19.361 C 17.808 19.932,18.391 20.269,18.930 20.043 C 19.041 19.997,19.974 19.096,21.721 17.348 C 23.164 15.905,24.425 14.622,24.525 14.497 C 24.681 14.301,24.706 14.239,24.708 14.027 C 24.710 13.830,24.683 13.742,24.570 13.576 C 24.387 13.306,19.308 8.218,19.059 8.056 C 18.860 7.925,18.500 7.863,18.305 7.924 " fill="#1A1C1F" stroke="none" fill-rule="evenodd"></path></svg>