<svg xmlns="http://www.w3.org/2000/svg" width="14" height="14" fill="none"><g clip-path="url(#a)"><path fill="#1A1C1F" fill-rule="evenodd" d="M1.75 9.8c0 1.16.94 2.1 2.1 2.1h1.4c.394 0 .7-.328.7-.7 0-.394-.306-.7-.7-.7h-1.4a.705.705 0 0 1-.7-.7V4.2c0-.394.328-.7.7-.7h1.4c.394 0 .7-.306.7-.7 0-.372-.306-.7-.7-.7h-1.4a2.1 2.1 0 0 0-2.1 2.1zM5.25 7c0 .372.306.7.7.7h3.916l-.897.897a.63.63 0 0 0-.219.503c0 .394.306.7.7.7.175 0 .35-.066.503-.197l2.1-2.122A.68.68 0 0 0 12.25 7a.77.77 0 0 0-.197-.503l-2.1-2.1A.73.73 0 0 0 9.45 4.2c-.372 0-.7.306-.7.7 0 .175.066.372.219.503l.897.897H5.95c-.394 0-.7.306-.7.7" clip-rule="evenodd"/></g><defs><clipPath id="a"><path fill="#fff" d="M0 0h14v14H0z"/></clipPath></defs></svg>