<svg xmlns="http://www.w3.org/2000/svg" width="32" height="32" fill="none"><g clip-path="url(#a)"><path fill="#1A1C1F" fill-rule="evenodd" d="M25.25 4c1.656 0 3 1.344 3 3v18c0 1.656-1.344 3-3 3h-6c-.563 0-1-.438-1-1s.437-1 1-1h6c.562 0 1-.438 1-1V7c0-.562-.438-1-1-1h-6c-.563 0-1-.437-1-1s.437-1 1-1zm-11 5c.25 0 .5.094.687.281l6.032 6.032a.97.97 0 0 1 .281.687c0 .25-.094.531-.281.719l-6 6a1.05 1.05 0 0 1-.719.281c-.594 0-1-.437-1-1 0-.25.094-.5.281-.687L17.844 17H4.75c-.562 0-1-.437-1-1 0-.531.438-1 1-1h13.094l-4.313-4.281c-.219-.188-.281-.469-.281-.719 0-.562.406-1 1-1" clip-rule="evenodd"/></g><defs><clipPath id="a"><path fill="#fff" d="M0 0h32v32H0z"/></clipPath></defs></svg>