<svg xmlns="http://www.w3.org/2000/svg" width="28" height="28" fill="none"><g clip-path="url(#a)"><path fill="#1A1C1F" fill-rule="evenodd" d="M11.375 2.625a8.74 8.74 0 0 1 8.75 8.75c0 2.105-.738 4.02-1.969 5.523l6.973 6.973c.164.164.246.41.246.629 0 .52-.383.875-.875.875a.84.84 0 0 1-.629-.246l-6.973-6.973a8.67 8.67 0 0 1-5.523 1.969 8.74 8.74 0 0 1-8.75-8.75 8.74 8.74 0 0 1 8.75-8.75m0 1.75c-3.855 0-7 3.145-7 7s3.145 7 7 7 7-3.145 7-7-3.145-7-7-7" clip-rule="evenodd"/></g><defs><clipPath id="a"><path fill="#fff" d="M0 0h28v28H0z"/></clipPath></defs></svg>