<svg xmlns="http://www.w3.org/2000/svg" width="24" height="24" fill="none"><g clip-path="url(#a)"><path fill="#1A1C1F" fill-rule="evenodd" d="M9.5 2c4.156 0 7.531 3.374 7.531 7.497a7.6 7.6 0 0 1-1.531 4.592l6.219 6.216c.375.375.375 1 0 1.406-.375.374-.938.374-1.344.062l-6.281-6.279A7.6 7.6 0 0 1 9.5 17.025c-4.125 0-7.5-3.374-7.5-7.528C2 5.374 5.375 2 9.5 2m0 2A5.507 5.507 0 0 0 4 9.496c0 3.061 2.469 5.529 5.5 5.529a5.52 5.52 0 0 0 5.531-5.53C15.031 6.467 12.562 4 9.5 4" clip-rule="evenodd"/></g><defs><clipPath id="a"><path fill="#fff" d="M0 0h24v24H0z"/></clipPath></defs></svg>