<svg xmlns="http://www.w3.org/2000/svg" width="32" height="32" fill="none"><path fill="#1A1C1F" fill-rule="evenodd" d="M12.453 3.022c-2.596.16-4.929 1.239-6.699 3.099-1.62 1.702-2.516 3.725-2.723 6.146-.182 2.116.427 4.452 1.627 6.248 1.622 2.428 4.082 3.968 7.022 4.396.891.129 2.397.081 3.286-.106 1.454-.306 2.773-.886 3.894-1.712l.472-.348 4.081 4.075c2.98 2.975 4.129 4.09 4.262 4.134.498.164 1.012-.066 1.238-.554.113-.246.122-.396.042-.693-.049-.184-.62-.777-4.133-4.295l-4.076-4.081.347-.471c.826-1.121 1.406-2.44 1.712-3.894.187-.889.235-2.395.106-3.286-.425-2.921-1.951-5.377-4.324-6.96a9.86 9.86 0 0 0-4.88-1.681 12 12 0 0 0-.827-.041zm2.171 2.149a7.97 7.97 0 0 1 4.125 2.302 7.95 7.95 0 0 1 1.828 8.069c-.591 1.774-1.906 3.388-3.558 4.367-3.03 1.796-6.971 1.327-9.519-1.134-1.221-1.178-1.983-2.541-2.337-4.178-.169-.782-.169-2.434 0-3.198a7.8 7.8 0 0 1 .649-1.879c1.208-2.471 3.533-4.124 6.295-4.473.469-.06 2.011.017 2.517.124"/></svg>