<svg xmlns="http://www.w3.org/2000/svg" width="16" height="16" fill="none"><g clip-path="url(#a)"><path fill="#1A1C1F" fill-rule="evenodd" d="M7.2 1.6c3.096 0 5.6 2.504 5.6 5.6 0 1.275-.43 2.413-1.106 3.35l2.472 2.471a.8.8 0 0 1 .234.572c0 .442-.35.807-.777.807a.97.97 0 0 1-.602-.234l-2.471-2.472A5.56 5.56 0 0 1 7.2 12.8a5.596 5.596 0 0 1-5.6-5.6c0-3.096 2.504-5.6 5.6-5.6m-.007 1.613a3.964 3.964 0 0 0-3.98 3.98c0 2.212 1.77 4.007 3.98 4.007A4.01 4.01 0 0 0 11.2 7.194c0-2.212-1.795-3.981-4.007-3.981" clip-rule="evenodd"/></g><defs><clipPath id="a"><path fill="#fff" d="M0 0h16v16H0z"/></clipPath></defs></svg>