<svg xmlns="http://www.w3.org/2000/svg" width="32" height="32" fill="none"><g clip-path="url(#a)"><path fill="#1A1C1F" fill-rule="evenodd" d="M13 3a9.99 9.99 0 0 1 10 10 9.9 9.9 0 0 1-2.25 6.313l7.969 7.968c.187.188.281.469.281.719 0 .594-.437 1-1 1-.25 0-.5-.062-.719-.281l-7.968-7.969A9.9 9.9 0 0 1 13 23 9.99 9.99 0 0 1 3 13 9.99 9.99 0 0 1 13 3m0 2c-4.406 0-8 3.594-8 8s3.594 8 8 8 8-3.594 8-8-3.594-8-8-8" clip-rule="evenodd"/></g><defs><clipPath id="a"><path fill="#fff" d="M0 0h32v32H0z"/></clipPath></defs></svg>