<svg width="16" height="16" viewBox="0 0 16 16" fill="none" xmlns="http://www.w3.org/2000/svg"><path d="M6.280 1.681 C 4.822 1.944,3.567 2.712,2.705 3.871 C 1.947 4.890,1.563 6.118,1.608 7.387 C 1.664 8.978,2.396 10.475,3.619 11.498 C 4.389 12.142,5.259 12.542,6.283 12.723 C 6.777 12.811,7.622 12.811,8.115 12.724 C 8.916 12.582,9.638 12.298,10.315 11.860 L 10.563 11.699 11.838 12.970 C 13.275 14.401,13.258 14.388,13.613 14.385 C 13.843 14.383,14.003 14.317,14.160 14.160 C 14.327 13.993,14.386 13.843,14.386 13.586 C 14.386 13.400,14.376 13.357,14.310 13.243 C 14.264 13.164,13.736 12.611,12.968 11.837 L 11.702 10.560 11.763 10.460 C 11.797 10.405,11.871 10.288,11.928 10.200 C 12.156 9.848,12.448 9.175,12.600 8.650 C 13.064 7.055,12.698 5.185,11.651 3.810 C 10.845 2.752,9.646 1.999,8.320 1.719 C 8.019 1.655,7.919 1.647,7.280 1.638 C 6.662 1.629,6.537 1.634,6.280 1.681 M7.892 3.282 C 8.148 3.315,8.655 3.485,8.990 3.651 C 9.410 3.860,9.692 4.061,10.013 4.385 C 11.024 5.402,11.414 6.804,11.066 8.179 C 10.889 8.882,10.520 9.515,9.975 10.053 C 9.414 10.607,8.758 10.956,7.964 11.124 C 7.609 11.199,6.768 11.206,6.453 11.136 C 5.847 11.002,5.254 10.737,4.819 10.406 C 4.616 10.252,4.168 9.800,4.013 9.594 C 3.664 9.130,3.366 8.440,3.278 7.895 C 3.234 7.616,3.244 6.658,3.294 6.411 C 3.537 5.217,4.326 4.185,5.412 3.641 C 5.832 3.431,6.309 3.287,6.693 3.254 C 6.960 3.231,7.610 3.247,7.892 3.282 " fill="#1A1C1F" stroke="none" fill-rule="evenodd"></path></svg>