<svg width="24" height="24" viewBox="0 0 24 24" fill="none" xmlns="http://www.w3.org/2000/svg"><path d="M8.812 2.043 C 6.546 2.262,4.488 3.507,3.229 5.420 C 1.913 7.418,1.642 9.936,2.501 12.168 C 3.561 14.920,6.028 16.756,9.001 17.005 C 10.537 17.133,12.327 16.661,13.717 15.759 L 14.093 15.514 14.717 16.129 C 15.060 16.467,16.501 17.896,17.921 19.305 C 20.235 21.601,20.522 21.873,20.698 21.933 C 20.939 22.015,21.049 22.017,21.304 21.941 C 21.744 21.811,21.984 21.455,21.975 20.950 C 21.971 20.722,21.953 20.653,21.855 20.513 C 21.792 20.421,20.340 18.938,18.629 17.217 L 15.518 14.087 15.762 13.714 C 16.273 12.929,16.691 11.918,16.878 11.014 C 17.489 8.055,16.228 4.992,13.700 3.299 C 12.249 2.328,10.503 1.879,8.812 2.043 M10.544 4.115 C 11.680 4.335,12.611 4.833,13.420 5.654 C 13.662 5.900,13.948 6.233,14.056 6.395 C 14.500 7.064,14.814 7.837,14.939 8.575 C 15.019 9.043,15.018 9.960,14.937 10.443 C 14.523 12.906,12.409 14.827,9.927 14.996 C 9.360 15.034,8.704 14.988,8.284 14.881 C 6.205 14.350,4.718 12.889,4.172 10.840 C 4.065 10.438,4.060 10.380,4.060 9.500 C 4.060 8.607,4.063 8.568,4.176 8.160 C 4.628 6.531,5.623 5.308,7.100 4.569 C 7.648 4.295,8.301 4.112,9.040 4.024 C 9.327 3.990,10.158 4.040,10.544 4.115 " fill="#1A1C1F" stroke="none" fill-rule="evenodd"></path></svg>