<svg width="32" height="32" viewBox="0 0 32 32" fill="none" xmlns="http://www.w3.org/2000/svg"><path d="M12.453 3.021 C 10.388 3.178,8.531 3.857,7.003 5.013 C 4.660 6.785,3.302 9.281,3.031 12.312 C 2.847 14.371,3.487 16.778,4.692 18.560 C 6.190 20.776,8.379 22.231,11.080 22.805 C 12.235 23.050,13.914 23.035,15.116 22.769 C 16.501 22.461,17.967 21.781,19.086 20.927 L 19.322 20.746 23.195 24.600 C 25.325 26.719,27.206 28.571,27.376 28.715 C 27.630 28.930,27.728 28.980,27.935 28.998 C 28.270 29.028,28.610 28.854,28.826 28.542 C 28.960 28.348,28.986 28.260,28.985 28.001 C 28.983 27.709,28.968 27.674,28.720 27.379 C 28.575 27.207,26.721 25.325,24.601 23.195 L 20.745 19.324 20.926 19.087 C 21.553 18.265,22.149 17.140,22.475 16.160 C 23.530 12.988,22.924 9.469,20.868 6.836 C 19.491 5.072,17.307 3.702,15.170 3.261 C 14.288 3.079,13.084 2.973,12.453 3.021 M13.573 5.069 C 14.502 5.132,15.120 5.262,15.867 5.551 C 16.908 5.954,17.829 6.567,18.667 7.415 C 19.539 8.297,20.180 9.329,20.554 10.454 C 20.880 11.435,20.933 11.792,20.933 13.013 C 20.933 13.963,20.917 14.179,20.809 14.660 C 20.571 15.724,20.226 16.532,19.622 17.443 C 19.184 18.102,18.066 19.226,17.435 19.643 C 15.339 21.026,12.855 21.361,10.502 20.579 C 7.958 19.734,5.992 17.643,5.270 15.013 C 5.119 14.465,5.107 14.349,5.082 13.253 C 5.061 12.312,5.073 11.980,5.143 11.573 C 5.408 10.049,6.256 8.457,7.416 7.307 C 8.555 6.177,10.208 5.347,11.813 5.098 C 12.414 5.005,12.584 5.002,13.573 5.069 " fill="#1A1C1F" stroke="none" fill-rule="evenodd"></path></svg>