<svg width="12" height="12" viewBox="0 0 12 12" fill="none" xmlns="http://www.w3.org/2000/svg"><path d="M4.710 1.260 C 3.789 1.426,3.011 1.838,2.384 2.489 C 1.712 3.187,1.334 4.001,1.219 5.000 C 1.190 5.249,1.205 5.788,1.248 6.040 C 1.365 6.729,1.631 7.362,2.027 7.895 C 3.101 9.337,4.920 9.932,6.658 9.407 C 6.932 9.325,7.405 9.101,7.707 8.911 L 7.923 8.776 8.879 9.728 C 9.956 10.800,9.943 10.790,10.210 10.789 C 10.377 10.788,10.506 10.734,10.625 10.615 C 10.746 10.494,10.790 10.380,10.790 10.190 C 10.790 10.050,10.782 10.017,10.733 9.933 C 10.699 9.875,10.297 9.453,9.727 8.878 L 8.777 7.920 8.823 7.845 C 8.848 7.804,8.903 7.716,8.946 7.650 C 9.050 7.490,9.239 7.096,9.327 6.858 C 9.672 5.927,9.689 5.015,9.380 4.077 C 8.914 2.661,7.722 1.604,6.235 1.288 C 6.015 1.241,5.937 1.235,5.460 1.229 C 4.996 1.222,4.902 1.226,4.710 1.260 M5.940 2.463 C 6.116 2.489,6.507 2.621,6.729 2.730 C 7.579 3.146,8.175 3.936,8.351 4.880 C 8.398 5.133,8.400 5.640,8.354 5.890 C 8.275 6.326,8.088 6.774,7.837 7.130 C 7.680 7.353,7.343 7.692,7.127 7.845 C 6.795 8.081,6.391 8.255,5.973 8.343 C 5.681 8.404,5.093 8.405,4.820 8.344 C 4.543 8.283,4.339 8.212,4.090 8.091 C 3.222 7.668,2.586 6.801,2.457 5.863 C 2.419 5.584,2.424 5.042,2.467 4.831 C 2.602 4.161,2.911 3.625,3.426 3.164 C 3.894 2.745,4.490 2.483,5.070 2.439 C 5.299 2.422,5.749 2.434,5.940 2.463 " fill="#1A1C1F" stroke="none" fill-rule="evenodd"></path></svg>