<svg width="14" height="14" viewBox="0 0 14 14" fill="none" xmlns="http://www.w3.org/2000/svg"><path d="M5.495 1.471 C 4.430 1.662,3.515 2.144,2.788 2.897 C 1.999 3.714,1.557 4.664,1.422 5.833 C 1.388 6.124,1.406 6.752,1.456 7.047 C 1.592 7.850,1.903 8.589,2.365 9.211 C 3.513 10.753,5.404 11.476,7.294 11.095 C 7.859 10.981,8.445 10.740,8.995 10.395 L 9.244 10.238 10.359 11.349 C 11.616 12.601,11.601 12.589,11.912 12.587 C 12.112 12.585,12.252 12.528,12.390 12.390 C 12.537 12.243,12.588 12.113,12.588 11.888 C 12.588 11.725,12.579 11.687,12.521 11.587 C 12.480 11.517,12.023 11.038,11.346 10.357 L 10.239 9.241 10.293 9.153 C 10.322 9.105,10.387 9.002,10.437 8.925 C 10.558 8.738,10.779 8.278,10.882 8.001 C 11.284 6.914,11.304 5.851,10.943 4.754 C 10.386 3.064,8.947 1.818,7.159 1.478 C 7.024 1.452,6.782 1.439,6.358 1.433 C 5.831 1.426,5.718 1.430,5.495 1.471 M6.905 2.872 C 7.276 2.919,7.930 3.189,8.324 3.457 C 8.568 3.623,8.985 4.046,9.165 4.310 C 9.454 4.735,9.662 5.236,9.743 5.705 C 9.797 6.014,9.798 6.586,9.747 6.872 C 9.628 7.526,9.346 8.109,8.904 8.615 C 8.401 9.191,7.743 9.571,6.968 9.733 C 6.649 9.800,5.944 9.806,5.653 9.744 C 4.537 9.508,3.650 8.817,3.163 7.805 C 2.944 7.349,2.884 7.106,2.843 6.507 C 2.818 6.146,2.819 6.062,2.854 5.817 C 3.014 4.677,3.714 3.698,4.736 3.186 C 5.094 3.006,5.513 2.878,5.845 2.847 C 6.063 2.826,6.655 2.840,6.905 2.872 " fill="#1A1C1F" stroke="none" fill-rule="evenodd"></path></svg>