<svg width="28" height="28" viewBox="0 0 28 28" fill="none" xmlns="http://www.w3.org/2000/svg"><path d="M10.897 2.643 C 8.385 2.835,6.225 3.917,4.682 5.756 C 3.481 7.187,2.828 8.800,2.652 10.773 C 2.491 12.574,3.050 14.677,4.105 16.240 C 5.410 18.173,7.335 19.453,9.695 19.954 C 10.706 20.169,12.175 20.156,13.226 19.923 C 14.439 19.654,15.721 19.059,16.700 18.311 L 16.907 18.153 20.296 21.525 C 22.159 23.379,23.805 25.000,23.954 25.125 C 24.176 25.314,24.262 25.357,24.443 25.373 C 24.736 25.399,25.033 25.247,25.223 24.974 C 25.340 24.805,25.363 24.728,25.362 24.501 C 25.360 24.246,25.347 24.215,25.130 23.957 C 25.003 23.806,23.381 22.159,21.526 20.296 L 18.152 16.909 18.310 16.701 C 18.859 15.982,19.380 14.998,19.666 14.140 C 20.589 11.365,20.058 8.285,18.260 5.982 C 17.054 4.438,15.143 3.239,13.274 2.854 C 12.502 2.694,11.448 2.601,10.897 2.643 M11.829 4.435 C 12.682 4.489,13.216 4.599,13.884 4.858 C 14.795 5.210,15.614 5.755,16.333 6.486 C 17.099 7.264,17.658 8.165,17.985 9.147 C 18.270 10.006,18.317 10.318,18.317 11.387 C 18.317 12.218,18.302 12.407,18.208 12.828 C 18.000 13.758,17.698 14.465,17.169 15.262 C 16.787 15.838,15.807 16.824,15.260 17.184 C 13.413 18.399,11.251 18.692,9.189 18.007 C 8.173 17.669,7.256 17.106,6.508 16.358 C 5.542 15.393,4.970 14.421,4.614 13.143 C 4.478 12.653,4.468 12.565,4.446 11.597 C 4.428 10.774,4.439 10.482,4.500 10.127 C 4.732 8.793,5.474 7.400,6.489 6.393 C 7.486 5.405,8.932 4.679,10.337 4.461 C 10.869 4.378,10.930 4.377,11.829 4.435 " fill="#1A1C1F" stroke="none" fill-rule="evenodd"></path></svg>