<svg xmlns="http://www.w3.org/2000/svg" width="24" height="24" fill="none"><g clip-path="url(#a)"><path fill="#1A1C1F" fill-rule="evenodd" d="M4 18c0-.531.469-1 1.031-1H18.97c.562 0 1.031.469 1.031 1 0 .563-.469 1-1.031 1H5.03C4.47 19 4 18.563 4 18m0-6c0-.531.469-1 1.031-1H15.5c.531 0 1 .469 1 1s-.469 1-1 1H5.031C4.47 13 4 12.531 4 12m0-6c0-.562.469-1 1.031-1H18.97C19.53 5 20 5.438 20 6c0 .531-.469 1-1.031 1H5.03C4.47 7 4 6.531 4 6" clip-rule="evenodd"/></g><defs><clipPath id="a"><path fill="#fff" d="M0 0h24v24H0z"/></clipPath></defs></svg>