<svg xmlns="http://www.w3.org/2000/svg" width="32" height="32" fill="none"><path fill="#1A1C1F" fill-rule="evenodd" d="M5.649 8.051c-.387.117-.636.48-.636.928 0 .505.306.883.799.989.193.042 3.198.058 10.284.056 11.237-.002 10.364.029 10.7-.389.149-.186.164-.24.164-.591 0-.329-.021-.417-.143-.601a1 1 0 0 0-.377-.33L26.206 8l-10.21.005c-5.615.002-10.271.023-10.347.046m.064 6.989c-.212.05-.41.189-.563.394-.087.117-.11.226-.11.534 0 .481.136.715.53.913l.264.132h8.136c5.433 0 8.203-.019 8.335-.055.419-.117.682-.473.682-.926 0-.299-.074-.496-.257-.69-.337-.356.392-.328-8.65-.337-4.503-.005-8.268.011-8.367.035m-.196 7.062c-.691.301-.664 1.443.043 1.785l.234.113h20.483l.232-.123c.694-.367.614-1.514-.126-1.794-.104-.039-3.29-.056-10.426-.054-8.424.001-10.306.015-10.44.073"/></svg>