<svg xmlns="http://www.w3.org/2000/svg" width="28" height="28" fill="none"><g clip-path="url(#a)"><path fill="#1A1C1F" fill-rule="evenodd" d="M4.375 20.111c0-.417.246-.861.875-.861h17.5a.87.87 0 0 1 .875.889c0 .417-.246.861-.875.861H5.25a.87.87 0 0 1-.875-.889m0-6.125c0-.417.246-.861.875-.861h14a.87.87 0 0 1 .875.889c0 .417-.246.861-.875.861h-14a.87.87 0 0 1-.875-.889m0-6.125c0-.417.246-.861.875-.861h17.5a.87.87 0 0 1 .875.889c0 .417-.246.861-.875.861H5.25a.87.87 0 0 1-.875-.889" clip-rule="evenodd"/></g><defs><clipPath id="a"><path fill="#fff" d="M0 0h28v28H0z"/></clipPath></defs></svg>