<svg width="12" height="12" viewBox="0 0 12 12" fill="none" xmlns="http://www.w3.org/2000/svg"><path d="M3.040 2.418 C 2.371 2.428,2.179 2.436,2.140 2.458 C 2.030 2.518,1.926 2.621,1.870 2.723 C 1.819 2.818,1.812 2.850,1.812 3.000 C 1.812 3.150,1.819 3.182,1.870 3.277 C 1.931 3.389,2.035 3.486,2.170 3.558 L 2.249 3.600 6.000 3.600 L 9.751 3.600 9.830 3.558 C 9.965 3.486,10.069 3.389,10.130 3.277 C 10.182 3.182,10.188 3.151,10.188 3.000 C 10.188 2.875,10.178 2.812,10.151 2.760 C 10.088 2.638,10.007 2.552,9.897 2.487 L 9.790 2.424 6.840 2.415 C 5.218 2.411,3.508 2.412,3.040 2.418 M2.658 5.418 L 2.187 5.430 2.089 5.490 C 1.683 5.741,1.721 6.329,2.156 6.544 L 2.250 6.590 5.020 6.590 L 7.790 6.590 7.874 6.545 C 8.137 6.405,8.265 6.164,8.217 5.900 C 8.181 5.703,8.055 5.541,7.870 5.456 L 7.770 5.410 5.450 5.408 C 4.174 5.408,2.918 5.412,2.658 5.418 M3.040 8.418 C 2.371 8.428,2.179 8.436,2.140 8.458 C 2.030 8.518,1.926 8.621,1.870 8.723 C 1.819 8.818,1.812 8.850,1.812 9.000 C 1.812 9.150,1.819 9.182,1.870 9.277 C 1.931 9.389,2.035 9.486,2.170 9.558 L 2.249 9.600 6.000 9.600 L 9.751 9.600 9.830 9.558 C 9.965 9.486,10.069 9.389,10.130 9.277 C 10.182 9.182,10.188 9.151,10.188 9.000 C 10.188 8.875,10.178 8.812,10.151 8.760 C 10.088 8.638,10.007 8.552,9.897 8.487 L 9.790 8.424 6.840 8.415 C 5.218 8.411,3.508 8.412,3.040 8.418 " fill="#1A1C1F" stroke="none" fill-rule="evenodd"></path></svg>