<svg width="14" height="14" viewBox="0 0 14 14" fill="none" xmlns="http://www.w3.org/2000/svg"><path d="M3.605 2.821 C 2.775 2.832,2.543 2.842,2.497 2.867 C 2.369 2.938,2.247 3.058,2.182 3.177 C 2.122 3.287,2.114 3.325,2.114 3.500 C 2.114 3.675,2.122 3.713,2.182 3.823 C 2.255 3.957,2.378 4.071,2.537 4.151 L 2.635 4.200 7.000 4.200 L 11.365 4.200 11.463 4.151 C 11.622 4.071,11.745 3.957,11.818 3.823 C 11.879 3.713,11.886 3.676,11.886 3.500 C 11.886 3.354,11.874 3.280,11.843 3.220 C 11.769 3.078,11.675 2.977,11.546 2.901 L 11.422 2.827 8.038 2.818 C 6.178 2.812,4.183 2.814,3.605 2.821 M3.090 6.321 L 2.551 6.335 2.437 6.406 C 1.964 6.698,2.008 7.384,2.515 7.634 L 2.625 7.688 5.857 7.688 L 9.088 7.688 9.213 7.619 C 9.498 7.461,9.640 7.181,9.586 6.883 C 9.545 6.653,9.397 6.465,9.182 6.365 L 9.065 6.312 6.347 6.310 C 4.852 6.309,3.386 6.314,3.090 6.321 M3.605 9.821 C 2.775 9.832,2.543 9.842,2.497 9.867 C 2.369 9.938,2.247 10.058,2.182 10.177 C 2.122 10.287,2.114 10.325,2.114 10.500 C 2.114 10.675,2.122 10.713,2.182 10.823 C 2.255 10.957,2.378 11.071,2.537 11.151 L 2.635 11.200 7.000 11.200 L 11.365 11.200 11.463 11.151 C 11.622 11.071,11.745 10.957,11.818 10.823 C 11.879 10.713,11.886 10.676,11.886 10.500 C 11.886 10.354,11.874 10.280,11.843 10.220 C 11.769 10.078,11.675 9.977,11.546 9.901 L 11.422 9.827 8.038 9.818 C 6.178 9.812,4.183 9.814,3.605 9.821 " fill="#1A1C1F" stroke="none" fill-rule="evenodd"></path></svg>