<svg xmlns="http://www.w3.org/2000/svg" width="12" height="12" fill="none"><g clip-path="url(#a)"><path fill="#1A1C1F" fill-rule="evenodd" d="M1.8 6c0-.337.262-.6.6-.6h5.231c.338 0 .6.263.6.6 0 .319-.262.6-.6.6H2.4a.604.604 0 0 1-.6-.6m0 3c0-.337.262-.6.6-.6h7.2c.337 0 .6.263.6.6 0 .338-.263.6-.6.6H2.4a.59.59 0 0 1-.6-.6m0-6c0-.337.262-.6.6-.6h7.2c.337 0 .6.263.6.6 0 .338-.263.6-.6.6H2.4a.59.59 0 0 1-.6-.6" clip-rule="evenodd"/></g><defs><clipPath id="a"><path fill="#fff" d="M0 0h12v12H0z"/></clipPath></defs></svg>