<svg width="24" height="24" viewBox="0 0 24 24" fill="none" xmlns="http://www.w3.org/2000/svg"><path d="M5.460 5.035 C 4.732 5.058,4.647 5.068,4.520 5.147 C 3.810 5.591,3.837 6.459,4.576 6.882 L 4.780 6.999 11.992 7.000 C 19.066 7.000,19.206 6.999,19.356 6.922 C 19.716 6.738,19.946 6.434,19.987 6.084 C 20.030 5.723,19.823 5.351,19.461 5.139 L 19.294 5.041 12.777 5.025 C 9.193 5.016,5.900 5.021,5.460 5.035 M5.817 11.036 L 4.654 11.060 4.487 11.171 C 3.810 11.619,3.873 12.531,4.605 12.903 L 4.797 13.000 10.260 13.000 C 15.600 13.000,15.727 12.998,15.876 12.922 C 16.123 12.796,16.285 12.637,16.385 12.422 C 16.617 11.924,16.410 11.357,15.899 11.089 C 15.805 11.040,7.677 10.997,5.817 11.036 M6.157 17.036 L 4.654 17.060 4.490 17.168 C 4.193 17.365,4.005 17.693,4.002 18.020 C 3.999 18.403,4.389 18.886,4.753 18.948 C 4.997 18.990,19.003 18.990,19.247 18.948 C 19.589 18.890,19.931 18.500,19.985 18.110 C 20.033 17.757,19.825 17.364,19.479 17.153 L 19.300 17.045 13.480 17.028 C 10.279 17.019,6.984 17.023,6.157 17.036 " fill="#1A1C1F" stroke="none" fill-rule="evenodd"></path></svg>