<svg width="32" height="32" viewBox="0 0 32 32" fill="none" xmlns="http://www.w3.org/2000/svg"><path d="M7.164 8.052 C 5.339 8.084,5.367 8.077,5.133 8.534 C 4.850 9.089,5.104 9.720,5.697 9.930 C 5.856 9.987,7.787 10.000,15.840 10.000 C 21.311 10.000,25.955 9.979,26.160 9.954 C 26.497 9.913,26.552 9.889,26.728 9.704 C 27.184 9.226,27.016 8.421,26.394 8.104 C 26.195 8.002,26.010 8.000,17.482 8.012 C 12.692 8.018,8.049 8.036,7.164 8.052 M7.649 15.038 L 5.565 15.067 5.370 15.216 C 5.263 15.297,5.153 15.405,5.127 15.456 C 4.976 15.743,5.026 16.392,5.216 16.607 C 5.266 16.663,5.413 16.778,5.544 16.861 L 5.781 17.013 13.704 17.010 C 18.061 17.007,21.812 16.989,22.038 16.968 C 22.521 16.924,22.688 16.825,22.870 16.477 C 23.041 16.148,23.015 15.717,22.807 15.444 C 22.500 15.041,22.783 15.071,18.802 15.032 C 14.807 14.994,10.775 14.996,7.649 15.038 M6.406 22.065 C 5.410 22.085,5.298 22.125,5.115 22.528 C 4.907 22.985,5.054 23.502,5.484 23.826 L 5.715 24.000 16.023 24.000 L 26.331 24.000 26.556 23.837 C 27.108 23.437,27.121 22.618,26.583 22.207 L 26.382 22.053 16.831 22.050 C 11.578 22.048,6.887 22.055,6.406 22.065 " fill="#1A1C1F" stroke="none" fill-rule="evenodd"></path></svg>