<svg xmlns="http://www.w3.org/2000/svg" width="32" height="32" fill="none"><g clip-path="url(#a)"><path fill="#1A1C1F" fill-rule="evenodd" d="M5 22.984c0-.476.281-.984 1-.984h20c.563 0 1 .445 1 1.016 0 .476-.281.984-1 .984H6c-.562 0-1-.444-1-1.016m0-7c0-.476.281-.984 1-.984h16c.563 0 1 .444 1 1.016 0 .476-.281.984-1 .984H6c-.562 0-1-.444-1-1.016m0-7C5 8.508 5.281 8 6 8h20c.563 0 1 .444 1 1.016 0 .476-.281.984-1 .984H6c-.562 0-1-.445-1-1.016" clip-rule="evenodd"/></g><defs><clipPath id="a"><path fill="#fff" d="M0 0h32v32H0z"/></clipPath></defs></svg>