<svg width="28" height="28" viewBox="0 0 28 28" fill="none" xmlns="http://www.w3.org/2000/svg"><path d="M6.222 7.045 C 4.677 7.073,4.695 7.069,4.492 7.468 C 4.244 7.953,4.466 8.505,4.985 8.689 C 5.124 8.738,6.822 8.750,13.907 8.750 C 18.719 8.750,22.783 8.732,22.937 8.710 C 23.176 8.676,23.242 8.644,23.387 8.491 C 23.786 8.073,23.639 7.368,23.095 7.091 C 22.921 7.002,22.758 7.000,15.250 7.010 C 11.033 7.016,6.971 7.032,6.222 7.045 M6.693 13.159 L 4.869 13.183 4.699 13.314 C 4.605 13.385,4.509 13.480,4.486 13.524 C 4.354 13.775,4.398 14.343,4.564 14.531 C 4.608 14.581,4.737 14.681,4.851 14.754 L 5.058 14.887 11.991 14.884 C 15.804 14.883,19.088 14.864,19.289 14.843 C 19.718 14.798,19.855 14.717,20.011 14.417 C 20.161 14.130,20.138 13.752,19.956 13.514 C 19.689 13.163,19.894 13.187,16.802 13.153 C 13.684 13.119,9.430 13.122,6.693 13.159 M5.606 19.308 C 4.733 19.324,4.636 19.359,4.476 19.712 C 4.294 20.112,4.422 20.564,4.799 20.848 L 5.001 21.000 14.020 21.000 L 23.039 21.000 23.237 20.857 C 23.597 20.596,23.709 20.135,23.508 19.739 C 23.314 19.355,23.262 19.339,22.019 19.304 C 20.986 19.275,7.225 19.278,5.606 19.308 " fill="#1A1C1F" stroke="none" fill-rule="evenodd"></path></svg>