<svg width="20" height="20" viewBox="0 0 20 20" fill="none" xmlns="http://www.w3.org/2000/svg"><path d="M5.250 4.031 C 3.978 4.046,3.633 4.059,3.567 4.096 C 3.384 4.197,3.210 4.368,3.117 4.538 C 3.031 4.696,3.020 4.750,3.020 5.000 C 3.020 5.250,3.031 5.304,3.117 5.462 C 3.219 5.649,3.391 5.810,3.616 5.930 L 3.749 6.000 9.996 6.000 L 16.243 6.000 16.393 5.925 C 16.587 5.829,16.807 5.614,16.904 5.429 C 17.004 5.236,17.012 4.779,16.918 4.600 C 16.812 4.397,16.679 4.253,16.495 4.145 L 16.317 4.040 11.583 4.027 C 8.980 4.019,6.130 4.021,5.250 4.031 M4.414 9.031 L 3.644 9.050 3.482 9.151 C 2.806 9.569,2.868 10.549,3.594 10.906 L 3.750 10.983 8.367 10.983 L 12.983 10.983 13.124 10.908 C 13.561 10.675,13.774 10.273,13.695 9.833 C 13.635 9.504,13.425 9.235,13.117 9.093 L 12.950 9.017 9.067 9.014 C 6.931 9.013,4.837 9.020,4.414 9.031 M5.250 14.031 C 3.978 14.046,3.633 14.059,3.567 14.096 C 3.384 14.197,3.210 14.368,3.117 14.538 C 3.031 14.696,3.020 14.750,3.020 15.000 C 3.020 15.250,3.031 15.304,3.117 15.462 C 3.219 15.649,3.391 15.810,3.616 15.930 L 3.749 16.000 9.996 16.000 L 16.243 16.000 16.393 15.925 C 16.587 15.829,16.807 15.614,16.904 15.429 C 17.004 15.236,17.012 14.779,16.918 14.600 C 16.812 14.397,16.679 14.253,16.495 14.145 L 16.317 14.040 11.583 14.027 C 8.980 14.019,6.130 14.021,5.250 14.031 " fill="#1A1C1F" stroke="none" fill-rule="evenodd"></path></svg>