<svg width="16" height="16" viewBox="0 0 16 16" fill="none" xmlns="http://www.w3.org/2000/svg"><path d="M4.160 3.224 C 3.178 3.237,2.906 3.248,2.853 3.277 C 2.707 3.358,2.568 3.494,2.494 3.630 C 2.425 3.757,2.416 3.800,2.416 4.000 C 2.416 4.200,2.425 4.243,2.494 4.370 C 2.581 4.530,2.712 4.653,2.888 4.741 L 3.006 4.800 8.000 4.800 L 12.994 4.800 13.112 4.741 C 13.288 4.653,13.419 4.530,13.506 4.370 C 13.575 4.243,13.584 4.201,13.584 4.000 C 13.584 3.833,13.571 3.749,13.535 3.680 C 13.450 3.518,13.343 3.403,13.196 3.315 L 13.053 3.231 9.227 3.220 C 7.122 3.214,4.842 3.216,4.160 3.224 M3.531 7.225 L 2.916 7.240 2.785 7.321 C 2.245 7.655,2.295 8.439,2.875 8.725 L 3.000 8.787 6.693 8.787 L 10.387 8.787 10.499 8.727 C 10.849 8.540,11.019 8.218,10.956 7.867 C 10.908 7.604,10.740 7.388,10.493 7.275 L 10.360 7.213 7.253 7.211 C 5.545 7.210,3.870 7.216,3.531 7.225 M4.160 11.224 C 3.178 11.237,2.906 11.248,2.853 11.277 C 2.707 11.358,2.568 11.494,2.494 11.630 C 2.425 11.757,2.416 11.800,2.416 12.000 C 2.416 12.200,2.425 12.243,2.494 12.370 C 2.581 12.530,2.712 12.653,2.888 12.741 L 3.006 12.800 8.000 12.800 L 12.994 12.800 13.112 12.741 C 13.288 12.653,13.419 12.530,13.506 12.370 C 13.575 12.243,13.584 12.201,13.584 12.000 C 13.584 11.833,13.571 11.749,13.535 11.680 C 13.450 11.518,13.343 11.403,13.196 11.315 L 13.053 11.231 9.227 11.220 C 7.122 11.214,4.842 11.216,4.160 11.224 " fill="#1A1C1F" stroke="none" fill-rule="evenodd"></path></svg>