<svg width="24" height="24" viewBox="0 0 24 24" fill="none" xmlns="http://www.w3.org/2000/svg"><path d="M11.622 3.043 C 11.513 3.061,11.291 3.142,11.128 3.222 C 10.406 3.579,9.952 4.360,10.012 5.140 C 10.085 6.105,10.892 6.912,11.860 6.988 C 13.166 7.091,14.266 5.796,13.939 4.542 C 13.670 3.510,12.675 2.866,11.622 3.043 M11.621 10.043 C 11.063 10.136,10.487 10.586,10.204 11.150 C 9.593 12.367,10.477 13.883,11.860 13.987 C 13.171 14.086,14.266 12.798,13.939 11.542 C 13.670 10.510,12.675 9.866,11.621 10.043 M11.622 17.043 C 11.513 17.061,11.291 17.142,11.128 17.222 C 10.406 17.579,9.952 18.360,10.012 19.140 C 10.085 20.105,10.892 20.912,11.860 20.988 C 13.166 21.091,14.266 19.796,13.939 18.542 C 13.670 17.510,12.675 16.866,11.622 17.043 " fill="#1A1C1F" stroke="none" fill-rule="evenodd"></path></svg>