<svg width="24" height="24" viewBox="0 0 24 24" fill="none" xmlns="http://www.w3.org/2000/svg"><path d="M4.622 10.043 C 4.513 10.061,4.291 10.142,4.127 10.222 C 3.612 10.477,3.209 10.976,3.061 11.542 C 2.700 12.929,4.071 14.300,5.458 13.939 C 6.336 13.710,7.000 12.875,7.000 12.000 C 7.000 11.102,6.300 10.247,5.411 10.059 C 5.114 9.996,4.924 9.992,4.622 10.043 M11.621 10.043 C 11.063 10.136,10.487 10.586,10.204 11.150 C 9.593 12.367,10.477 13.883,11.860 13.987 C 13.171 14.086,14.266 12.798,13.939 11.542 C 13.670 10.510,12.675 9.866,11.621 10.043 M18.621 10.043 C 18.063 10.136,17.487 10.586,17.204 11.150 C 16.593 12.367,17.477 13.883,18.860 13.987 C 20.171 14.086,21.266 12.798,20.939 11.542 C 20.670 10.510,19.675 9.866,18.621 10.043 " fill="#1A1C1F" stroke="none" fill-rule="evenodd"></path></svg>