<svg width="20" height="20" viewBox="0 0 20 20" fill="none" xmlns="http://www.w3.org/2000/svg"><path d="M5.697 8.796 C 5.428 8.853,5.114 9.079,4.952 9.333 C 4.709 9.713,4.702 10.269,4.937 10.654 C 5.037 10.818,5.287 11.031,5.494 11.128 C 5.657 11.205,5.727 11.217,6.000 11.217 C 6.273 11.217,6.343 11.205,6.506 11.128 C 6.771 11.004,6.980 10.799,7.108 10.538 C 7.208 10.337,7.217 10.291,7.217 10.001 C 7.217 9.721,7.205 9.658,7.121 9.476 C 7.006 9.227,6.773 8.996,6.519 8.880 C 6.325 8.791,5.915 8.749,5.697 8.796 M9.697 8.796 C 9.428 8.853,9.114 9.079,8.952 9.333 C 8.709 9.713,8.702 10.269,8.937 10.654 C 9.037 10.818,9.287 11.031,9.494 11.128 C 9.657 11.205,9.727 11.217,10.000 11.217 C 10.273 11.217,10.343 11.205,10.506 11.128 C 10.771 11.004,10.980 10.799,11.108 10.538 C 11.208 10.337,11.217 10.291,11.217 10.001 C 11.217 9.721,11.205 9.658,11.121 9.476 C 11.006 9.227,10.773 8.996,10.519 8.880 C 10.325 8.791,9.915 8.749,9.697 8.796 M13.697 8.796 C 13.428 8.853,13.114 9.079,12.952 9.333 C 12.709 9.713,12.702 10.269,12.937 10.654 C 13.037 10.818,13.287 11.031,13.494 11.128 C 13.657 11.205,13.727 11.217,14.000 11.217 C 14.273 11.217,14.343 11.205,14.506 11.128 C 14.771 11.004,14.980 10.799,15.108 10.538 C 15.208 10.337,15.217 10.291,15.217 10.001 C 15.217 9.721,15.205 9.658,15.121 9.476 C 15.006 9.227,14.773 8.996,14.519 8.880 C 14.325 8.791,13.915 8.749,13.697 8.796 " fill="#1A1C1F" stroke="none" fill-rule="evenodd"></path></svg>