<svg width="32" height="32" viewBox="0 0 32 32" fill="none" xmlns="http://www.w3.org/2000/svg"><path d="M15.520 6.073 C 14.793 6.235,14.156 6.943,14.032 7.731 C 13.901 8.557,14.381 9.433,15.161 9.793 C 15.453 9.928,15.554 9.947,16.000 9.947 C 16.437 9.947,16.548 9.927,16.809 9.805 C 17.233 9.606,17.568 9.278,17.773 8.861 C 17.932 8.539,17.947 8.466,17.947 8.001 C 17.947 7.554,17.928 7.453,17.793 7.161 C 17.609 6.763,17.237 6.394,16.831 6.208 C 16.520 6.066,15.860 5.998,15.520 6.073 M15.520 14.073 C 14.793 14.235,14.156 14.943,14.032 15.731 C 13.901 16.557,14.381 17.433,15.161 17.793 C 15.453 17.928,15.554 17.947,16.000 17.947 C 16.437 17.947,16.548 17.927,16.809 17.805 C 17.233 17.606,17.568 17.278,17.773 16.861 C 17.932 16.539,17.947 16.466,17.947 16.001 C 17.947 15.554,17.928 15.453,17.793 15.161 C 17.609 14.763,17.237 14.394,16.831 14.208 C 16.520 14.066,15.860 13.998,15.520 14.073 M15.520 22.073 C 14.793 22.235,14.156 22.943,14.032 23.731 C 13.901 24.557,14.381 25.433,15.161 25.793 C 15.453 25.928,15.554 25.947,16.000 25.947 C 16.437 25.947,16.548 25.927,16.809 25.805 C 17.233 25.606,17.568 25.278,17.773 24.861 C 17.932 24.539,17.947 24.466,17.947 24.001 C 17.947 23.554,17.928 23.453,17.793 23.161 C 17.609 22.763,17.237 22.394,16.831 22.208 C 16.520 22.066,15.860 21.998,15.520 22.073 " fill="#1A1C1F" stroke="none" fill-rule="evenodd"></path></svg>