<svg width="20" height="20" viewBox="0 0 20 20" fill="none" xmlns="http://www.w3.org/2000/svg"><path d="M9.697 4.796 C 9.428 4.853,9.114 5.079,8.952 5.333 C 8.709 5.713,8.702 6.269,8.937 6.654 C 9.037 6.818,9.287 7.031,9.494 7.128 C 9.657 7.205,9.727 7.217,10.000 7.217 C 10.273 7.217,10.343 7.205,10.506 7.128 C 10.771 7.004,10.980 6.799,11.108 6.538 C 11.208 6.337,11.217 6.291,11.217 6.001 C 11.217 5.721,11.205 5.658,11.121 5.476 C 11.006 5.227,10.773 4.996,10.519 4.880 C 10.325 4.791,9.915 4.749,9.697 4.796 M9.697 8.796 C 9.428 8.853,9.114 9.079,8.952 9.333 C 8.709 9.713,8.702 10.269,8.937 10.654 C 9.037 10.818,9.287 11.031,9.494 11.128 C 9.657 11.205,9.727 11.217,10.000 11.217 C 10.273 11.217,10.343 11.205,10.506 11.128 C 10.771 11.004,10.980 10.799,11.108 10.538 C 11.208 10.337,11.217 10.291,11.217 10.001 C 11.217 9.721,11.205 9.658,11.121 9.476 C 11.006 9.227,10.773 8.996,10.519 8.880 C 10.325 8.791,9.915 8.749,9.697 8.796 M9.697 12.796 C 9.428 12.853,9.114 13.079,8.952 13.333 C 8.709 13.713,8.702 14.269,8.937 14.654 C 9.037 14.818,9.287 15.031,9.494 15.128 C 9.657 15.205,9.727 15.217,10.000 15.217 C 10.273 15.217,10.343 15.205,10.506 15.128 C 10.771 15.004,10.980 14.799,11.108 14.538 C 11.208 14.337,11.217 14.291,11.217 14.001 C 11.217 13.721,11.205 13.658,11.121 13.476 C 11.006 13.227,10.773 12.996,10.519 12.880 C 10.325 12.791,9.915 12.749,9.697 12.796 " fill="#1A1C1F" stroke="none" fill-rule="evenodd"></path></svg>