<svg xmlns="http://www.w3.org/2000/svg" width="32" height="32" fill="none"><path fill="#1A1C1F" fill-rule="evenodd" d="M15.324 6.122c-.882.315-1.445 1.263-1.296 2.182.262 1.61 2.225 2.25 3.376 1.1a1.99 1.99 0 0 0-.546-3.204c-.389-.19-1.115-.227-1.534-.078m0 8c-.882.315-1.445 1.263-1.296 2.182.262 1.61 2.225 2.25 3.376 1.1a1.99 1.99 0 0 0-.546-3.204c-.389-.19-1.115-.227-1.534-.078m0 8c-.882.315-1.445 1.263-1.296 2.182.262 1.61 2.225 2.25 3.376 1.1a1.99 1.99 0 0 0-.546-3.204c-.389-.19-1.115-.227-1.534-.078"/></svg>