<svg width="14" height="14" viewBox="0 0 14 14" fill="none" xmlns="http://www.w3.org/2000/svg"><path d="M6.790 3.357 C 6.470 3.428,6.194 3.735,6.139 4.082 C 6.082 4.444,6.292 4.827,6.633 4.985 C 6.761 5.044,6.805 5.052,7.000 5.052 C 7.191 5.052,7.240 5.043,7.354 4.990 C 7.539 4.903,7.686 4.759,7.776 4.577 C 7.845 4.436,7.852 4.404,7.852 4.200 C 7.852 3.996,7.845 3.964,7.776 3.823 C 7.632 3.531,7.382 3.367,7.055 3.349 C 6.954 3.343,6.835 3.347,6.790 3.357 M6.790 6.157 C 6.470 6.228,6.194 6.535,6.139 6.882 C 6.082 7.244,6.292 7.627,6.633 7.785 C 6.761 7.844,6.805 7.852,7.000 7.852 C 7.191 7.852,7.240 7.843,7.354 7.790 C 7.539 7.703,7.686 7.559,7.776 7.377 C 7.845 7.236,7.852 7.204,7.852 7.000 C 7.852 6.796,7.845 6.764,7.776 6.623 C 7.632 6.331,7.382 6.167,7.055 6.149 C 6.954 6.143,6.835 6.147,6.790 6.157 M6.790 8.957 C 6.470 9.028,6.194 9.335,6.139 9.682 C 6.082 10.044,6.292 10.427,6.633 10.585 C 6.761 10.644,6.805 10.652,7.000 10.652 C 7.191 10.652,7.240 10.643,7.354 10.590 C 7.539 10.503,7.686 10.359,7.776 10.177 C 7.845 10.036,7.852 10.004,7.852 9.800 C 7.852 9.596,7.845 9.564,7.776 9.423 C 7.632 9.131,7.382 8.967,7.055 8.949 C 6.954 8.943,6.835 8.947,6.790 8.957 " fill="#1A1C1F" stroke="none" fill-rule="evenodd"></path></svg>