<svg width="16" height="16" viewBox="0 0 16 16" fill="none" xmlns="http://www.w3.org/2000/svg"><path d="M4.560 7.037 C 4.340 7.086,4.068 7.286,3.942 7.493 C 3.766 7.783,3.769 8.227,3.950 8.523 C 4.029 8.654,4.230 8.825,4.395 8.902 C 4.526 8.964,4.581 8.973,4.800 8.973 C 5.019 8.973,5.074 8.964,5.205 8.902 C 5.417 8.803,5.584 8.639,5.687 8.430 C 5.766 8.269,5.773 8.233,5.773 8.001 C 5.773 7.777,5.764 7.727,5.697 7.580 C 5.605 7.381,5.419 7.197,5.215 7.104 C 5.060 7.033,4.730 6.999,4.560 7.037 M7.760 7.037 C 7.540 7.086,7.268 7.286,7.142 7.493 C 6.966 7.783,6.969 8.227,7.150 8.523 C 7.229 8.654,7.430 8.825,7.595 8.902 C 7.726 8.964,7.781 8.973,8.000 8.973 C 8.219 8.973,8.274 8.964,8.405 8.902 C 8.617 8.803,8.784 8.639,8.887 8.430 C 8.966 8.269,8.973 8.233,8.973 8.001 C 8.973 7.777,8.964 7.727,8.897 7.580 C 8.805 7.381,8.619 7.197,8.415 7.104 C 8.260 7.033,7.930 6.999,7.760 7.037 M10.960 7.037 C 10.740 7.086,10.468 7.286,10.342 7.493 C 10.166 7.783,10.169 8.227,10.350 8.523 C 10.429 8.654,10.630 8.825,10.795 8.902 C 10.926 8.964,10.981 8.973,11.200 8.973 C 11.419 8.973,11.474 8.964,11.605 8.902 C 11.817 8.803,11.984 8.639,12.087 8.430 C 12.166 8.269,12.173 8.233,12.173 8.001 C 12.173 7.777,12.164 7.727,12.097 7.580 C 12.005 7.381,11.819 7.197,11.615 7.104 C 11.460 7.033,11.130 6.999,10.960 7.037 " fill="#1A1C1F" stroke="none" fill-rule="evenodd"></path></svg>