<svg width="32" height="32" viewBox="0 0 32 32" fill="none" xmlns="http://www.w3.org/2000/svg"><path d="M7.520 14.073 C 6.793 14.235,6.156 14.943,6.032 15.731 C 5.901 16.557,6.381 17.433,7.161 17.793 C 7.453 17.928,7.554 17.947,8.000 17.947 C 8.437 17.947,8.548 17.927,8.809 17.805 C 9.233 17.606,9.568 17.278,9.773 16.861 C 9.932 16.539,9.947 16.466,9.947 16.001 C 9.947 15.554,9.928 15.453,9.793 15.161 C 9.609 14.763,9.237 14.394,8.831 14.208 C 8.520 14.066,7.860 13.998,7.520 14.073 M15.520 14.073 C 14.793 14.235,14.156 14.943,14.032 15.731 C 13.901 16.557,14.381 17.433,15.161 17.793 C 15.453 17.928,15.554 17.947,16.000 17.947 C 16.437 17.947,16.548 17.927,16.809 17.805 C 17.233 17.606,17.568 17.278,17.773 16.861 C 17.932 16.539,17.947 16.466,17.947 16.001 C 17.947 15.554,17.928 15.453,17.793 15.161 C 17.609 14.763,17.237 14.394,16.831 14.208 C 16.520 14.066,15.860 13.998,15.520 14.073 M23.520 14.073 C 22.793 14.235,22.156 14.943,22.032 15.731 C 21.901 16.557,22.381 17.433,23.161 17.793 C 23.453 17.928,23.554 17.947,24.000 17.947 C 24.437 17.947,24.548 17.927,24.809 17.805 C 25.233 17.606,25.568 17.278,25.773 16.861 C 25.932 16.539,25.947 16.466,25.947 16.001 C 25.947 15.554,25.928 15.453,25.793 15.161 C 25.609 14.763,25.237 14.394,24.831 14.208 C 24.520 14.066,23.860 13.998,23.520 14.073 " fill="#1A1C1F" stroke="none" fill-rule="evenodd"></path></svg>