<svg width="28" height="28" viewBox="0 0 28 28" fill="none" xmlns="http://www.w3.org/2000/svg"><path d="M13.580 5.314 C 13.302 5.376,12.955 5.582,12.746 5.809 C 11.924 6.701,12.191 8.063,13.290 8.578 C 13.521 8.686,13.617 8.703,14.000 8.703 C 14.383 8.703,14.480 8.686,14.708 8.579 C 15.079 8.405,15.372 8.119,15.552 7.753 C 15.691 7.471,15.703 7.408,15.703 7.001 C 15.703 6.610,15.687 6.522,15.569 6.266 C 15.408 5.917,15.082 5.595,14.727 5.432 C 14.455 5.308,13.877 5.248,13.580 5.314 M13.580 12.314 C 13.302 12.376,12.955 12.582,12.746 12.809 C 11.924 13.701,12.191 15.063,13.290 15.578 C 13.521 15.686,13.617 15.703,14.000 15.703 C 14.383 15.703,14.480 15.686,14.708 15.579 C 15.079 15.405,15.372 15.119,15.552 14.753 C 15.691 14.471,15.703 14.408,15.703 14.001 C 15.703 13.610,15.687 13.522,15.569 13.266 C 15.408 12.917,15.082 12.595,14.727 12.432 C 14.455 12.308,13.877 12.248,13.580 12.314 M13.580 19.314 C 13.302 19.376,12.955 19.582,12.746 19.809 C 11.924 20.701,12.191 22.063,13.290 22.578 C 13.521 22.686,13.617 22.703,14.000 22.703 C 14.383 22.703,14.480 22.686,14.708 22.579 C 15.079 22.405,15.372 22.119,15.552 21.753 C 15.691 21.471,15.703 21.408,15.703 21.001 C 15.703 20.610,15.687 20.522,15.569 20.266 C 15.408 19.917,15.082 19.595,14.727 19.432 C 14.455 19.308,13.877 19.248,13.580 19.314 " fill="#1A1C1F" stroke="none" fill-rule="evenodd"></path></svg>