<svg width="12" height="12" viewBox="0 0 12 12" fill="none" xmlns="http://www.w3.org/2000/svg"><path d="M5.820 2.878 C 5.469 2.955,5.214 3.332,5.264 3.702 C 5.297 3.949,5.458 4.167,5.686 4.273 C 5.795 4.323,5.833 4.330,6.000 4.330 C 6.164 4.330,6.206 4.323,6.304 4.277 C 6.462 4.202,6.588 4.079,6.665 3.923 C 6.725 3.802,6.730 3.775,6.730 3.600 C 6.730 3.433,6.723 3.395,6.672 3.285 C 6.603 3.136,6.464 2.998,6.312 2.928 C 6.195 2.875,5.947 2.849,5.820 2.878 M5.820 5.278 C 5.469 5.355,5.214 5.732,5.264 6.102 C 5.297 6.349,5.458 6.567,5.686 6.673 C 5.795 6.723,5.833 6.730,6.000 6.730 C 6.164 6.730,6.206 6.723,6.304 6.677 C 6.462 6.602,6.588 6.479,6.665 6.323 C 6.725 6.202,6.730 6.175,6.730 6.000 C 6.730 5.833,6.723 5.795,6.672 5.685 C 6.603 5.536,6.464 5.398,6.312 5.328 C 6.195 5.275,5.947 5.249,5.820 5.278 M5.820 7.678 C 5.469 7.755,5.214 8.132,5.264 8.502 C 5.297 8.749,5.458 8.967,5.686 9.073 C 5.795 9.123,5.833 9.130,6.000 9.130 C 6.164 9.130,6.206 9.123,6.304 9.077 C 6.462 9.002,6.588 8.879,6.665 8.723 C 6.725 8.602,6.730 8.575,6.730 8.400 C 6.730 8.233,6.723 8.195,6.672 8.085 C 6.603 7.936,6.464 7.798,6.312 7.728 C 6.195 7.675,5.947 7.649,5.820 7.678 " fill="#1A1C1F" stroke="none" fill-rule="evenodd"></path></svg>