<svg width="28" height="28" viewBox="0 0 28 28" fill="none" xmlns="http://www.w3.org/2000/svg"><path d="M6.580 12.314 C 6.302 12.376,5.955 12.582,5.746 12.809 C 4.924 13.701,5.191 15.063,6.290 15.578 C 6.521 15.686,6.617 15.703,7.000 15.703 C 7.383 15.703,7.480 15.686,7.708 15.579 C 8.079 15.405,8.372 15.119,8.552 14.753 C 8.691 14.471,8.703 14.408,8.703 14.001 C 8.703 13.610,8.687 13.522,8.569 13.266 C 8.408 12.917,8.082 12.595,7.727 12.432 C 7.455 12.308,6.877 12.248,6.580 12.314 M13.580 12.314 C 13.302 12.376,12.955 12.582,12.746 12.809 C 11.924 13.701,12.191 15.063,13.290 15.578 C 13.521 15.686,13.617 15.703,14.000 15.703 C 14.383 15.703,14.480 15.686,14.708 15.579 C 15.079 15.405,15.372 15.119,15.552 14.753 C 15.691 14.471,15.703 14.408,15.703 14.001 C 15.703 13.610,15.687 13.522,15.569 13.266 C 15.408 12.917,15.082 12.595,14.727 12.432 C 14.455 12.308,13.877 12.248,13.580 12.314 M20.580 12.314 C 20.302 12.376,19.955 12.582,19.746 12.809 C 18.924 13.701,19.191 15.063,20.290 15.578 C 20.521 15.686,20.617 15.703,21.000 15.703 C 21.383 15.703,21.480 15.686,21.708 15.579 C 22.079 15.405,22.372 15.119,22.552 14.753 C 22.691 14.471,22.703 14.408,22.703 14.001 C 22.703 13.610,22.687 13.522,22.569 13.266 C 22.408 12.917,22.082 12.595,21.727 12.432 C 21.455 12.308,20.877 12.248,20.580 12.314 " fill="#1A1C1F" stroke="none" fill-rule="evenodd"></path></svg>