<svg width="16" height="16" viewBox="0 0 16 16" fill="none" xmlns="http://www.w3.org/2000/svg"><path d="M7.760 3.837 C 7.540 3.886,7.268 4.086,7.142 4.293 C 6.966 4.583,6.969 5.027,7.150 5.323 C 7.229 5.454,7.430 5.625,7.595 5.702 C 7.726 5.764,7.781 5.773,8.000 5.773 C 8.219 5.773,8.274 5.764,8.405 5.702 C 8.617 5.603,8.784 5.439,8.887 5.230 C 8.966 5.069,8.973 5.033,8.973 4.801 C 8.973 4.577,8.964 4.527,8.897 4.380 C 8.805 4.181,8.619 3.997,8.415 3.904 C 8.260 3.833,7.930 3.799,7.760 3.837 M7.760 7.037 C 7.540 7.086,7.268 7.286,7.142 7.493 C 6.966 7.783,6.969 8.227,7.150 8.523 C 7.229 8.654,7.430 8.825,7.595 8.902 C 7.726 8.964,7.781 8.973,8.000 8.973 C 8.219 8.973,8.274 8.964,8.405 8.902 C 8.617 8.803,8.784 8.639,8.887 8.430 C 8.966 8.269,8.973 8.233,8.973 8.001 C 8.973 7.777,8.964 7.727,8.897 7.580 C 8.805 7.381,8.619 7.197,8.415 7.104 C 8.260 7.033,7.930 6.999,7.760 7.037 M7.760 10.237 C 7.540 10.286,7.268 10.486,7.142 10.693 C 6.966 10.983,6.969 11.427,7.150 11.723 C 7.229 11.854,7.430 12.025,7.595 12.102 C 7.726 12.164,7.781 12.173,8.000 12.173 C 8.219 12.173,8.274 12.164,8.405 12.102 C 8.617 12.003,8.784 11.839,8.887 11.630 C 8.966 11.469,8.973 11.433,8.973 11.201 C 8.973 10.977,8.964 10.927,8.897 10.780 C 8.805 10.581,8.619 10.397,8.415 10.304 C 8.260 10.233,7.930 10.199,7.760 10.237 " fill="#1A1C1F" stroke="none" fill-rule="evenodd"></path></svg>