<svg width="12" height="12" viewBox="0 0 12 12" fill="none" xmlns="http://www.w3.org/2000/svg"><path d="M3.420 5.278 C 3.069 5.355,2.814 5.732,2.864 6.102 C 2.897 6.349,3.058 6.567,3.286 6.673 C 3.395 6.723,3.433 6.730,3.600 6.730 C 3.764 6.730,3.806 6.723,3.904 6.677 C 4.062 6.602,4.188 6.479,4.265 6.323 C 4.325 6.202,4.330 6.175,4.330 6.000 C 4.330 5.833,4.323 5.795,4.272 5.685 C 4.203 5.536,4.064 5.398,3.912 5.328 C 3.795 5.275,3.547 5.249,3.420 5.278 M5.820 5.278 C 5.469 5.355,5.214 5.732,5.264 6.102 C 5.297 6.349,5.458 6.567,5.686 6.673 C 5.795 6.723,5.833 6.730,6.000 6.730 C 6.164 6.730,6.206 6.723,6.304 6.677 C 6.462 6.602,6.588 6.479,6.665 6.323 C 6.725 6.202,6.730 6.175,6.730 6.000 C 6.730 5.833,6.723 5.795,6.672 5.685 C 6.603 5.536,6.464 5.398,6.312 5.328 C 6.195 5.275,5.947 5.249,5.820 5.278 M8.220 5.278 C 7.869 5.355,7.614 5.732,7.664 6.102 C 7.697 6.349,7.858 6.567,8.086 6.673 C 8.195 6.723,8.233 6.730,8.400 6.730 C 8.564 6.730,8.606 6.723,8.704 6.677 C 8.862 6.602,8.988 6.479,9.065 6.323 C 9.125 6.202,9.130 6.175,9.130 6.000 C 9.130 5.833,9.123 5.795,9.072 5.685 C 9.003 5.536,8.864 5.398,8.712 5.328 C 8.595 5.275,8.347 5.249,8.220 5.278 " fill="#1A1C1F" stroke="none" fill-rule="evenodd"></path></svg>