<svg width="14" height="14" viewBox="0 0 14 14" fill="none" xmlns="http://www.w3.org/2000/svg"><path d="M3.990 6.157 C 3.670 6.228,3.394 6.535,3.339 6.882 C 3.282 7.244,3.492 7.627,3.833 7.785 C 3.961 7.844,4.005 7.852,4.200 7.852 C 4.391 7.852,4.440 7.843,4.554 7.790 C 4.739 7.703,4.886 7.559,4.976 7.377 C 5.045 7.236,5.052 7.204,5.052 7.000 C 5.052 6.796,5.045 6.764,4.976 6.623 C 4.832 6.331,4.582 6.167,4.255 6.149 C 4.154 6.143,4.035 6.147,3.990 6.157 M6.790 6.157 C 6.470 6.228,6.194 6.535,6.139 6.882 C 6.082 7.244,6.292 7.627,6.633 7.785 C 6.761 7.844,6.805 7.852,7.000 7.852 C 7.191 7.852,7.240 7.843,7.354 7.790 C 7.539 7.703,7.686 7.559,7.776 7.377 C 7.845 7.236,7.852 7.204,7.852 7.000 C 7.852 6.796,7.845 6.764,7.776 6.623 C 7.632 6.331,7.382 6.167,7.055 6.149 C 6.954 6.143,6.835 6.147,6.790 6.157 M9.590 6.157 C 9.270 6.228,8.994 6.535,8.939 6.882 C 8.882 7.244,9.092 7.627,9.433 7.785 C 9.561 7.844,9.605 7.852,9.800 7.852 C 9.991 7.852,10.040 7.843,10.154 7.790 C 10.339 7.703,10.486 7.559,10.576 7.377 C 10.645 7.236,10.652 7.204,10.652 7.000 C 10.652 6.796,10.645 6.764,10.576 6.623 C 10.432 6.331,10.182 6.167,9.855 6.149 C 9.754 6.143,9.635 6.147,9.590 6.157 " fill="#1A1C1F" stroke="none" fill-rule="evenodd"></path></svg>