<svg xmlns="http://www.w3.org/2000/svg" width="32" height="32" fill="none"><path fill="#1A1C1F" fill-rule="evenodd" d="M26.613 4.084c-.248.106-22.362 22.203-22.516 22.499-.298.573.124 1.329.783 1.404.467.052.575-.027 2.106-1.56l1.413-1.414L18 25.012c10.402-.001 9.966.011 10.616-.286.553-.254 1.056-.845 1.263-1.486.089-.277.108-.478.109-1.187 0-.476-.027-.968-.062-1.114-.215-.888-.914-1.599-1.825-1.854-.178-.05-1.85-.07-6.952-.084l-6.717-.018 6.754-6.758c6.069-6.074 6.757-6.779 6.79-6.962.09-.497-.115-.914-.564-1.143a.9.9 0 0 0-.799-.036M3.917 5.146c-.315.158-.507.419-.543.74-.038.336.062.579.393.956.16.182.377.504.482.715.184.369.19.403.168.837-.032.607-.245 1.036-.901 1.82-.61.73-.865 1.104-1.099 1.609-.565 1.223-.535 2.506.087 3.777.592 1.208 1.218 1.635 1.909 1.3a.97.97 0 0 0 .447-1.279 5 5 0 0 0-.347-.563c-.591-.826-.655-1.703-.189-2.577.089-.168.398-.588.687-.934.572-.687.922-1.238 1.146-1.806.582-1.477.274-2.927-.898-4.23-.443-.492-.862-.606-1.342-.365m.59 13.895c-.465.027-.719.069-.926.153a2.48 2.48 0 0 0-1.48 1.633c-.112.383-.128 1.809-.025 2.24.115.478.369.913.734 1.254.187.176.358.319.379.319s.407-.369.857-.82l.819-.819-.303-.025c-.216-.018-.335-.058-.419-.142-.108-.109-.116-.167-.116-.84v-.723l.149-.129c.149-.128.154-.129 1.414-.129h1.264L7.867 20l1.012-1.013-1.866.008a71 71 0 0 0-2.506.046m23.345 2.12c.11.111.123.18.139.755.02.704-.043.926-.29 1.02-.084.031-3.377.051-8.704.051h-8.569l.986-.988.986-.987 7.665.014 7.665.014z"/></svg>