<svg xmlns="http://www.w3.org/2000/svg" width="14" height="14" fill="none"><g clip-path="url(#a)"><path fill="#1A1C1F" fill-rule="evenodd" d="M11.472 1.561c.218-.213.672-.194.924.058.252.253.282.687.058.924L6.591 8.414h5.132c.289 0 .406.033.52.094q.172.092.264.264c.03.056.093.196.094.665s-.062.66-.094.72a.64.64 0 0 1-.264.264c-.114.06-.231.093-.52.093H4.49L2.53 12.467c-.25.213-.672.194-.924-.058s-.287-.67-.058-.924zm-8.05 6.853-1.853 1.853C1.4 10.023 1.4 9.96 1.4 9.464c0-.496.032-.578.093-.692a.64.64 0 0 1 .265-.264c.114-.061.231-.094.52-.094zM1.996 1.575a.7.7 0 0 1 .989.032c.843.9.902 1.952.179 2.93l-.156.204a.81.81 0 0 0-.113.776q.053.156.255.414a.7.7 0 0 1-1.078.89 2.4 2.4 0 0 1-.366-.539c-.38-.749-.388-1.595.183-2.384l.162-.21c.312-.426.282-.73-.087-1.123a.7.7 0 0 1 .032-.99" clip-rule="evenodd"/></g><defs><clipPath id="a"><path fill="#fff" d="M0 0h14v14H0z"/></clipPath></defs></svg>