<svg width="16" height="16" viewBox="0 0 16 16" fill="none" xmlns="http://www.w3.org/2000/svg"><path d="M2.555 1.642 C 2.398 1.691,2.180 1.897,2.100 2.073 C 2.060 2.161,2.042 2.253,2.041 2.373 C 2.041 2.585,2.114 2.757,2.318 3.022 C 2.513 3.275,2.559 3.388,2.559 3.613 C 2.560 3.836,2.488 4.007,2.262 4.320 C 1.952 4.748,1.782 5.102,1.693 5.505 C 1.638 5.754,1.651 6.272,1.719 6.555 C 1.813 6.943,2.084 7.475,2.326 7.746 C 2.705 8.171,3.297 8.137,3.616 7.673 C 3.815 7.382,3.793 7.071,3.544 6.703 C 3.322 6.374,3.269 6.235,3.268 5.987 C 3.267 5.724,3.307 5.629,3.598 5.200 C 3.713 5.031,3.856 4.794,3.917 4.674 C 4.209 4.093,4.261 3.479,4.068 2.911 C 3.870 2.330,3.413 1.737,3.089 1.641 C 2.919 1.591,2.721 1.591,2.555 1.642 M13.353 1.657 C 13.271 1.680,13.000 1.933,11.939 2.974 C 10.484 4.402,3.887 11.004,2.528 12.393 C 1.764 13.173,1.656 13.294,1.627 13.400 C 1.585 13.550,1.604 13.798,1.669 13.937 C 1.742 14.091,1.973 14.306,2.123 14.357 C 2.307 14.420,2.569 14.413,2.716 14.342 C 2.800 14.302,3.176 13.948,3.976 13.156 L 5.117 12.027 9.409 12.027 L 13.702 12.027 13.850 11.970 C 14.180 11.844,14.334 11.620,14.378 11.204 C 14.411 10.894,14.388 10.324,14.336 10.150 C 14.285 9.982,14.144 9.816,13.970 9.720 L 13.827 9.641 10.680 9.627 L 7.533 9.613 10.694 6.440 C 13.751 3.370,14.276 2.829,14.365 2.658 C 14.427 2.537,14.400 2.255,14.308 2.068 C 14.231 1.909,14.073 1.761,13.908 1.692 C 13.780 1.639,13.485 1.620,13.353 1.657 M2.320 9.652 C 2.091 9.673,1.988 9.719,1.836 9.871 C 1.630 10.077,1.613 10.146,1.613 10.813 C 1.613 11.386,1.615 11.403,1.680 11.532 C 1.717 11.605,1.760 11.668,1.777 11.673 C 1.831 11.689,2.099 11.440,3.013 10.523 L 3.906 9.627 3.213 9.631 C 2.832 9.633,2.430 9.643,2.320 9.652 " fill="#1A1C1F" stroke="none" fill-rule="evenodd"></path></svg>