<svg width="20" height="20" viewBox="0 0 20 20" fill="none" xmlns="http://www.w3.org/2000/svg"><path d="M3.236 2.039 C 2.948 2.121,2.670 2.414,2.578 2.730 C 2.484 3.053,2.578 3.361,2.897 3.777 C 3.137 4.089,3.198 4.237,3.199 4.503 C 3.200 4.797,3.164 4.892,2.904 5.277 C 2.389 6.039,2.231 6.362,2.116 6.881 C 2.047 7.192,2.063 7.841,2.149 8.194 C 2.256 8.635,2.550 9.238,2.833 9.596 C 3.318 10.209,4.097 10.207,4.520 9.591 C 4.769 9.228,4.741 8.839,4.431 8.379 C 4.153 7.967,4.086 7.794,4.085 7.483 C 4.084 7.155,4.133 7.037,4.497 6.500 C 4.641 6.288,4.820 5.992,4.896 5.842 C 5.262 5.112,5.327 4.349,5.082 3.630 C 4.837 2.910,4.266 2.172,3.861 2.051 C 3.668 1.994,3.409 1.989,3.236 2.039 M16.691 2.072 C 16.523 2.119,14.658 3.950,8.747 9.872 C 2.759 15.871,2.078 16.568,2.030 16.746 C 1.981 16.925,2.009 17.254,2.086 17.419 C 2.177 17.614,2.466 17.882,2.653 17.946 C 2.886 18.025,3.211 18.017,3.398 17.926 C 3.506 17.874,3.955 17.451,4.970 16.443 L 6.390 15.033 11.760 15.033 C 17.079 15.033,17.133 15.033,17.312 14.966 C 17.539 14.881,17.761 14.688,17.860 14.489 C 17.908 14.393,17.949 14.222,17.972 14.027 C 18.015 13.652,17.986 12.909,17.920 12.689 C 17.856 12.477,17.680 12.270,17.462 12.149 L 17.283 12.051 13.350 12.034 L 9.417 12.017 13.367 8.050 C 17.186 4.216,17.845 3.537,17.956 3.322 C 18.034 3.172,18.000 2.819,17.886 2.585 C 17.788 2.386,17.592 2.202,17.385 2.115 C 17.225 2.048,16.856 2.025,16.691 2.072 M2.900 12.065 C 2.613 12.091,2.485 12.149,2.295 12.338 C 2.039 12.594,2.018 12.684,2.017 13.500 C 2.017 14.112,2.025 14.240,2.077 14.372 C 2.166 14.604,2.208 14.626,2.359 14.522 C 2.427 14.474,3.023 13.895,3.683 13.234 L 4.883 12.033 4.016 12.038 C 3.540 12.041,3.038 12.053,2.900 12.065 " fill="#1A1C1F" stroke="none" fill-rule="evenodd"></path></svg>