<svg xmlns="http://www.w3.org/2000/svg" width="12" height="12" fill="none"><g clip-path="url(#a)"><path fill="#1A1C1F" fill-rule="evenodd" d="M9.833 1.338c.187-.182.576-.166.792.05s.242.588.05.792L5.649 7.212h4.399c.248 0 .348.028.446.08a.55.55 0 0 1 .227.227c.025.048.079.168.08.57 0 .402-.053.566-.08.616a.55.55 0 0 1-.227.227c-.098.052-.198.08-.446.08H3.849l-1.68 1.674c-.216.183-.576.167-.793-.05-.216-.216-.245-.575-.05-.792zm-6.9 5.874L1.344 8.8C1.2 8.591 1.2 8.538 1.2 8.112s.028-.495.08-.593a.55.55 0 0 1 .227-.227c.097-.052.198-.08.445-.08zM1.71 1.35a.6.6 0 0 1 .848.028c.723.77.773 1.673.153 2.511l-.133.175a.7.7 0 0 0-.097.665q.045.134.219.355a.6.6 0 0 1-.924.763 2 2 0 0 1-.314-.462c-.326-.642-.332-1.367.157-2.044l.14-.18c.267-.365.24-.625-.076-.963a.6.6 0 0 1 .027-.848" clip-rule="evenodd"/></g><defs><clipPath id="a"><path fill="#fff" d="M0 0h12v12H0z"/></clipPath></defs></svg>