<svg xmlns="http://www.w3.org/2000/svg" width="32" height="32" fill="none"><g clip-path="url(#a)"><path fill="#1A1C1F" fill-rule="evenodd" d="M26.387 4.213c.37-.329.96-.278 1.32.083.36.36.408.968.083 1.32L14.414 19.003h12.8q.92 0 1.49.319c.419.223.753.558.977.977.198.37.319.706.319 1.704 0 1-.092 1.281-.319 1.704a2.36 2.36 0 0 1-.977.977c-.37.198-.753.294-1.263.314l-19.027.005-2.801 2.79c-.383.314-.96.277-1.32-.083s-.402-.967-.083-1.32zM8.885 19.003l-2.001 2h-2.22c-.19.006-.39.01-.498.124-.11.115-.166.246-.166.456v.795c0 .16.045.37.134.47s.298.147.526.153l.225.002-1.647 1.65c-.333-.19-.708-.521-.92-.946-.211-.425-.318-.704-.318-1.704s.092-1.281.319-1.704c.223-.419.558-.754.977-.977.37-.198.753-.294 1.263-.315zm3.528 2-1.999 2h16.8c.274 0 .428-.017.576-.113s.21-.269.21-.512v-.795c0-.346-.169-.46-.239-.498-.09-.049-.193-.074-.421-.08zM3.652 5.308a1 1 0 0 1 1.414.002c1.859 1.864 1.833 4.052.014 6.165l-.323.365c-.888 1.057-.923 2.004-.45 2.921q.12.232.375.559c.378.411.378 1.028-.017 1.414a1 1 0 0 1-1.414-.018 4.4 4.4 0 0 1-.72-1.037c-.83-1.608-.746-3.436.73-5.166l.313-.354c1.159-1.34 1.155-2.355.076-3.437a1 1 0 0 1 .002-1.414" clip-rule="evenodd"/></g><defs><clipPath id="a"><path fill="#fff" d="M0 0h32v32H0z"/></clipPath></defs></svg>