<svg width="24" height="24" viewBox="0 0 24 24" fill="none" xmlns="http://www.w3.org/2000/svg"><path d="M2.807 2.040 C 2.509 2.110,2.238 2.397,2.134 2.753 C 2.039 3.081,2.094 3.270,2.442 3.808 C 2.530 3.945,2.640 4.181,2.686 4.332 C 2.827 4.795,2.742 5.158,2.335 5.842 C 2.024 6.363,1.699 7.049,1.615 7.360 C 1.561 7.562,1.546 7.772,1.548 8.300 C 1.550 8.926,1.559 9.007,1.659 9.315 C 1.866 9.957,2.127 10.447,2.436 10.772 C 2.541 10.883,2.650 10.945,2.841 11.003 C 3.103 11.083,3.103 11.083,3.362 11.003 C 3.837 10.855,4.090 10.530,4.095 10.060 C 4.097 9.840,4.076 9.779,3.840 9.328 L 3.582 8.836 3.566 8.411 C 3.545 7.831,3.594 7.645,3.908 7.131 C 4.757 5.739,4.951 4.730,4.580 3.639 C 4.379 3.050,3.980 2.431,3.637 2.178 C 3.413 2.012,3.125 1.964,2.807 2.040 M19.896 2.306 C 19.507 2.634,2.107 20.029,1.772 20.425 C 1.486 20.762,1.440 20.932,1.542 21.274 C 1.730 21.906,2.493 22.199,3.020 21.842 C 3.130 21.768,3.824 21.107,4.562 20.373 L 5.904 19.040 12.682 19.039 C 16.410 19.038,19.685 19.021,19.960 19.002 C 20.962 18.932,21.650 18.566,22.099 17.865 C 22.404 17.387,22.555 16.577,22.502 15.700 C 22.448 14.799,22.266 14.316,21.795 13.820 C 21.482 13.491,20.997 13.206,20.600 13.118 C 20.439 13.083,19.272 13.065,16.220 13.052 C 13.879 13.042,12.044 13.019,12.024 12.999 C 12.002 12.978,13.905 11.040,16.664 8.272 C 19.771 5.155,21.368 3.526,21.419 3.420 C 21.526 3.202,21.521 2.834,21.410 2.618 C 21.219 2.246,20.884 2.040,20.473 2.040 L 20.212 2.040 19.896 2.306 M3.820 13.082 C 3.578 13.098,3.307 13.138,3.218 13.171 C 2.357 13.488,1.735 14.186,1.583 15.005 C 1.417 15.903,1.501 17.092,1.767 17.613 L 1.848 17.772 2.684 16.936 L 3.520 16.101 3.522 15.800 C 3.527 15.202,3.646 15.072,4.215 15.047 L 4.590 15.031 5.585 14.035 L 6.579 13.040 5.420 13.046 C 4.782 13.050,4.062 13.066,3.820 13.082 M20.290 15.134 C 20.455 15.246,20.489 15.429,20.474 16.104 C 20.459 16.761,20.423 16.878,20.208 16.970 C 20.058 17.034,8.091 17.067,8.027 17.003 C 7.996 16.972,8.252 16.691,8.942 15.998 L 9.900 15.037 15.040 15.049 C 19.975 15.060,20.184 15.063,20.290 15.134 " fill="#1A1C1F" stroke="none" fill-rule="evenodd"></path></svg>