<svg width="32" height="32" viewBox="0 0 32 32" fill="none" xmlns="http://www.w3.org/2000/svg"><path d="M26.729 4.036 C 26.558 4.072,21.180 9.387,11.918 18.676 C 7.187 23.419,4.147 26.507,4.091 26.624 C 3.863 27.105,4.119 27.695,4.652 27.917 C 4.954 28.043,5.173 28.021,5.470 27.833 C 5.615 27.741,6.334 27.070,7.067 26.342 L 8.401 25.018 18.107 24.998 C 25.304 24.983,27.882 24.961,28.080 24.915 C 28.799 24.746,29.385 24.263,29.737 23.549 L 29.947 23.125 29.947 22.000 L 29.947 20.874 29.747 20.470 C 29.483 19.937,29.077 19.530,28.544 19.267 L 28.139 19.067 25.176 19.032 C 23.547 19.013,20.463 18.995,18.324 18.992 L 14.434 18.987 20.940 12.467 C 24.518 8.881,27.570 5.795,27.723 5.611 C 27.960 5.323,28.000 5.242,28.000 5.049 C 28.000 4.425,27.347 3.905,26.729 4.036 M4.094 5.089 C 3.681 5.237,3.450 5.485,3.380 5.858 C 3.328 6.134,3.437 6.400,3.803 6.890 C 3.987 7.138,4.206 7.483,4.289 7.657 C 4.426 7.945,4.437 8.010,4.408 8.380 C 4.358 9.048,4.193 9.366,3.364 10.400 C 2.739 11.178,2.457 11.657,2.239 12.308 C 2.092 12.747,2.062 12.926,2.042 13.467 C 2.021 14.025,2.035 14.172,2.152 14.624 C 2.467 15.840,3.197 16.875,3.825 16.992 C 4.420 17.104,5.051 16.474,4.939 15.878 C 4.920 15.779,4.761 15.460,4.586 15.169 C 4.144 14.437,4.053 14.176,4.053 13.628 C 4.053 13.279,4.083 13.098,4.189 12.813 C 4.320 12.460,4.415 12.321,5.363 11.093 C 5.754 10.587,6.186 9.753,6.328 9.227 C 6.471 8.700,6.458 7.819,6.300 7.308 C 6.015 6.388,5.341 5.426,4.788 5.150 C 4.478 4.996,4.379 4.987,4.094 5.089 M4.880 19.044 C 4.352 19.065,3.848 19.106,3.760 19.134 C 2.930 19.399,2.252 20.135,2.074 20.964 C 2.042 21.112,2.026 21.638,2.036 22.173 L 2.053 23.120 2.254 23.540 C 2.499 24.054,3.085 24.678,3.242 24.591 C 3.292 24.563,3.681 24.191,4.106 23.763 L 4.879 22.987 4.678 22.987 C 4.393 22.987,4.117 22.859,4.080 22.710 C 4.063 22.642,4.056 22.275,4.065 21.893 L 4.080 21.200 4.267 21.107 C 4.428 21.026,4.618 21.013,5.654 21.013 L 6.854 21.013 7.867 20.000 L 8.879 18.987 7.359 18.996 C 6.524 19.000,5.408 19.022,4.880 19.044 M25.062 21.049 L 27.796 21.084 27.885 21.220 C 27.955 21.327,27.973 21.488,27.973 22.000 C 27.973 22.859,27.945 22.904,27.383 22.952 C 27.156 22.971,23.248 22.987,18.699 22.987 L 10.428 22.987 11.413 22.000 L 12.399 21.013 17.364 21.013 C 20.095 21.013,23.559 21.029,25.062 21.049 " fill="#1A1C1F" stroke="none" fill-rule="evenodd"></path></svg>