<svg xmlns="http://www.w3.org/2000/svg" width="28" height="28" fill="none"><g clip-path="url(#a)"><path fill="#1A1C1F" fill-rule="evenodd" d="M23.089 3.686c.324-.287.84-.243 1.155.073.315.315.357.847.073 1.155L12.612 16.628h11.2q.807 0 1.304.278c.367.196.66.489.855.855.174.324.279.618.279 1.492s-.08 1.12-.279 1.49c-.196.367-.488.66-.855.856-.324.173-.66.257-1.105.275l-16.649.004-2.45 2.441a.867.867 0 0 1-1.156-.073c-.315-.315-.351-.846-.073-1.155zM7.774 16.628l-1.75 1.75H4.082c-.167.005-.342.008-.437.108a.53.53 0 0 0-.145.399v.696c0 .14.04.324.118.41.078.088.26.13.46.135l.196.002-1.441 1.443a2.06 2.06 0 0 1-.804-.827c-.185-.372-.279-.616-.279-1.491s.08-1.122.279-1.492c.196-.366.488-.659.855-.855.324-.173.66-.256 1.105-.274zm3.087 1.75-1.749 1.75h14.7c.24 0 .375-.015.505-.099s.183-.235.183-.448v-.696c0-.303-.148-.403-.21-.436-.079-.042-.168-.065-.368-.07zM3.195 4.643a.875.875 0 0 1 1.238.002c1.626 1.631 1.604 3.546.012 5.395l-.283.32c-.777.924-.807 1.753-.393 2.555q.105.204.328.489c.33.36.33.9-.015 1.237a.875.875 0 0 1-1.238-.015 3.9 3.9 0 0 1-.63-.908c-.726-1.407-.652-3.006.639-4.52l.275-.31c1.013-1.172 1.01-2.06.065-3.007a.875.875 0 0 1 .002-1.238" clip-rule="evenodd"/></g><defs><clipPath id="a"><path fill="#fff" d="M0 0h28v28H0z"/></clipPath></defs></svg>