<svg width="12" height="12" viewBox="0 0 12 12" fill="none" xmlns="http://www.w3.org/2000/svg"><path d="M1.916 1.232 C 1.798 1.268,1.635 1.423,1.575 1.555 C 1.545 1.621,1.531 1.690,1.531 1.780 C 1.531 1.939,1.586 2.068,1.738 2.266 C 1.796 2.341,1.860 2.440,1.881 2.486 C 1.925 2.583,1.933 2.795,1.897 2.902 C 1.885 2.939,1.781 3.111,1.666 3.283 C 1.288 3.852,1.188 4.215,1.261 4.754 C 1.321 5.188,1.615 5.743,1.881 5.926 C 2.033 6.030,2.201 6.060,2.364 6.013 C 2.581 5.949,2.755 5.763,2.802 5.545 C 2.836 5.382,2.793 5.227,2.658 5.028 C 2.492 4.780,2.451 4.677,2.451 4.490 C 2.450 4.293,2.480 4.222,2.698 3.900 C 2.785 3.773,2.892 3.595,2.937 3.505 C 3.156 3.070,3.196 2.609,3.051 2.184 C 2.903 1.748,2.560 1.303,2.317 1.231 C 2.189 1.193,2.041 1.193,1.916 1.232 M10.015 1.243 C 9.954 1.260,9.749 1.450,8.955 2.229 C 7.779 3.382,1.959 9.213,1.527 9.672 C 1.245 9.971,1.222 10.001,1.209 10.089 C 1.191 10.211,1.209 10.360,1.253 10.455 C 1.306 10.569,1.481 10.730,1.592 10.768 C 1.731 10.815,1.927 10.810,2.037 10.757 C 2.100 10.726,2.382 10.461,2.982 9.867 L 3.837 9.020 7.057 9.020 L 10.276 9.020 10.389 8.977 C 10.451 8.953,10.539 8.900,10.586 8.860 C 10.706 8.754,10.758 8.637,10.783 8.416 C 10.809 8.191,10.792 7.745,10.752 7.614 C 10.714 7.486,10.608 7.362,10.477 7.290 L 10.370 7.231 8.010 7.220 L 5.650 7.210 8.020 4.830 C 10.314 2.527,10.707 2.122,10.774 1.993 C 10.820 1.903,10.800 1.691,10.731 1.551 C 10.673 1.432,10.555 1.321,10.431 1.269 C 10.335 1.229,10.113 1.215,10.015 1.243 M1.740 7.239 C 1.568 7.254,1.491 7.289,1.377 7.403 C 1.223 7.557,1.210 7.610,1.210 8.100 C 1.210 8.467,1.215 8.544,1.246 8.623 C 1.300 8.762,1.325 8.776,1.415 8.713 C 1.456 8.684,1.814 8.337,2.210 7.940 L 2.930 7.220 2.410 7.223 C 2.124 7.225,1.823 7.232,1.740 7.239 " fill="#1A1C1F" stroke="none" fill-rule="evenodd"></path></svg>