<svg xmlns="http://www.w3.org/2000/svg" width="20" height="20" fill="none"><g clip-path="url(#a)"><path fill="#1A1C1F" fill-rule="evenodd" d="M16.388 2.23c.312-.304.96-.277 1.32.083s.404.981.084 1.32L9.414 12.02h7.332c.413 0 .58.047.743.134q.245.132.378.378c.042.079.131.279.133.949s-.088.944-.133 1.028a.9.9 0 0 1-.378.378c-.163.087-.33.133-.743.133H6.415l-2.8 2.79c-.36.305-.96.278-1.32-.082s-.41-.96-.084-1.32zm-11.5 9.79L2.24 14.667c-.24-.348-.24-.437-.24-1.147s.047-.825.134-.988a.9.9 0 0 1 .378-.378c.163-.087.33-.134.743-.134zM2.851 2.25a1 1 0 0 1 1.414.046C5.47 3.58 5.554 5.085 4.52 6.482l-.223.291c-.15.219-.342.58-.162 1.11q.075.22.365.59a1 1 0 0 1-1.539 1.272 3.4 3.4 0 0 1-.523-.77c-.544-1.07-.555-2.279.261-3.406l.232-.301c.446-.608.403-1.041-.125-1.604a1 1 0 0 1 .045-1.413" clip-rule="evenodd"/></g><defs><clipPath id="a"><path fill="#fff" d="M0 0h20v20H0z"/></clipPath></defs></svg>