<svg width="14" height="14" viewBox="0 0 14 14" fill="none" xmlns="http://www.w3.org/2000/svg"><path d="M2.232 1.438 C 2.154 1.462,2.082 1.509,2.003 1.588 C 1.849 1.742,1.787 1.883,1.786 2.077 C 1.786 2.262,1.850 2.412,2.028 2.644 C 2.196 2.862,2.239 2.966,2.239 3.152 C 2.240 3.358,2.215 3.424,2.033 3.694 C 1.680 4.217,1.575 4.426,1.492 4.772 C 1.414 5.094,1.440 5.559,1.554 5.901 C 1.675 6.262,1.929 6.696,2.115 6.860 C 2.443 7.147,2.911 7.082,3.164 6.714 C 3.339 6.460,3.318 6.187,3.101 5.865 C 2.907 5.577,2.860 5.456,2.859 5.238 C 2.859 5.008,2.893 4.926,3.148 4.550 C 3.483 4.057,3.631 3.685,3.657 3.274 C 3.693 2.694,3.419 2.029,2.972 1.611 C 2.755 1.408,2.514 1.351,2.232 1.438 M11.683 1.450 C 11.611 1.470,11.379 1.686,10.458 2.589 C 9.091 3.930,2.281 10.754,1.781 11.284 C 1.452 11.633,1.426 11.668,1.411 11.770 C 1.373 12.021,1.437 12.218,1.612 12.393 C 1.765 12.547,1.846 12.583,2.069 12.595 C 2.233 12.604,2.276 12.598,2.370 12.553 C 2.449 12.514,2.752 12.230,3.479 11.512 L 4.479 10.523 7.787 10.522 C 11.014 10.521,12.010 10.506,12.184 10.454 C 12.312 10.416,12.496 10.204,12.546 10.037 C 12.603 9.846,12.603 9.020,12.545 8.869 C 12.489 8.721,12.368 8.584,12.223 8.505 L 12.098 8.435 9.347 8.424 L 6.595 8.412 9.358 5.635 C 12.038 2.942,12.492 2.474,12.569 2.325 C 12.624 2.220,12.600 1.973,12.520 1.809 C 12.452 1.670,12.314 1.541,12.169 1.481 C 12.057 1.434,11.799 1.418,11.683 1.450 M2.030 8.446 C 1.829 8.463,1.739 8.504,1.606 8.637 C 1.426 8.817,1.412 8.877,1.412 9.462 C 1.412 9.963,1.413 9.978,1.470 10.091 C 1.502 10.154,1.540 10.210,1.555 10.214 C 1.602 10.228,1.836 10.010,2.637 9.207 L 3.418 8.423 2.812 8.427 C 2.478 8.429,2.126 8.437,2.030 8.446 " fill="#1A1C1F" stroke="none" fill-rule="evenodd"></path></svg>