<svg xmlns="http://www.w3.org/2000/svg" width="16" height="16" fill="none"><g clip-path="url(#a)"><path fill="#1A1C1F" fill-rule="evenodd" d="M13.11 1.784c.25-.243.768-.222 1.057.067.288.288.323.784.066 1.056l-6.7 6.709h5.864c.33 0 .464.037.595.107q.196.106.302.302c.034.064.105.224.107.76.001.536-.071.755-.107.822a.73.73 0 0 1-.302.302c-.13.07-.264.107-.595.107H5.132l-2.24 2.233c-.287.243-.768.221-1.057-.067s-.327-.767-.066-1.056zm-9.2 7.832-2.117 2.118c-.192-.279-.192-.35-.192-.918 0-.567.037-.66.107-.79a.73.73 0 0 1 .302-.303c.13-.07.264-.107.595-.107zM2.282 1.8a.8.8 0 0 1 1.13.037c.964 1.027 1.03 2.23.205 3.349l-.178.233a.93.93 0 0 0-.13.887q.06.177.292.473A.8.8 0 0 1 2.37 7.796a2.7 2.7 0 0 1-.419-.616c-.435-.856-.444-1.823.21-2.725l.185-.24c.356-.487.322-.834-.1-1.284a.8.8 0 0 1 .036-1.13" clip-rule="evenodd"/></g><defs><clipPath id="a"><path fill="#fff" d="M0 0h16v16H0z"/></clipPath></defs></svg>