<svg width="28" height="28" viewBox="0 0 28 28" fill="none" xmlns="http://www.w3.org/2000/svg"><path d="M23.388 3.531 C 23.239 3.563,18.469 8.277,10.381 16.388 C 6.275 20.505,3.628 23.194,3.580 23.297 C 3.380 23.717,3.604 24.233,4.071 24.428 C 4.334 24.538,4.526 24.518,4.786 24.354 C 4.913 24.274,5.542 23.687,6.184 23.049 L 7.351 21.891 15.844 21.873 C 22.141 21.860,24.397 21.841,24.570 21.801 C 25.199 21.652,25.712 21.230,26.020 20.606 L 26.203 20.235 26.203 19.250 L 26.203 18.265 26.028 17.911 C 25.798 17.445,25.442 17.089,24.976 16.858 L 24.622 16.683 22.029 16.653 C 20.603 16.637,17.905 16.621,16.033 16.618 L 12.630 16.613 18.322 10.908 C 21.453 7.771,24.124 5.071,24.257 4.909 C 24.465 4.657,24.500 4.587,24.500 4.417 C 24.500 3.872,23.929 3.417,23.388 3.531 M3.573 4.456 C 3.303 4.553,3.163 4.670,3.045 4.901 C 2.857 5.270,2.917 5.506,3.338 6.043 C 3.458 6.197,3.631 6.470,3.721 6.649 C 3.878 6.961,3.884 6.991,3.858 7.332 C 3.813 7.918,3.669 8.196,2.943 9.100 C 2.397 9.781,2.150 10.200,1.959 10.770 C 1.831 11.153,1.804 11.310,1.787 11.783 C 1.769 12.272,1.781 12.401,1.883 12.796 C 2.158 13.860,2.798 14.765,3.347 14.868 C 3.868 14.966,4.419 14.414,4.322 13.893 C 4.305 13.807,4.166 13.527,4.012 13.273 C 3.626 12.633,3.547 12.404,3.547 11.924 C 3.547 11.392,3.688 11.017,4.085 10.497 C 4.251 10.281,4.523 9.925,4.691 9.707 C 5.065 9.219,5.375 8.630,5.515 8.140 C 5.727 7.401,5.639 6.511,5.286 5.811 C 4.993 5.231,4.525 4.674,4.189 4.507 C 3.916 4.371,3.832 4.364,3.573 4.456 M4.293 16.663 C 3.819 16.682,3.367 16.717,3.290 16.742 C 2.563 16.975,1.970 17.618,1.815 18.344 C 1.787 18.473,1.772 18.933,1.781 19.401 L 1.797 20.230 1.972 20.598 C 2.187 21.047,2.700 21.593,2.836 21.517 C 2.881 21.493,3.221 21.167,3.593 20.793 L 4.269 20.113 4.093 20.113 C 3.844 20.113,3.602 20.002,3.570 19.871 C 3.555 19.812,3.549 19.490,3.557 19.157 L 3.570 18.550 3.733 18.468 C 3.874 18.398,4.041 18.387,4.947 18.387 L 5.998 18.387 6.883 17.500 L 7.769 16.613 6.463 16.621 C 5.744 16.626,4.768 16.644,4.293 16.663 M21.860 18.418 L 24.321 18.449 24.399 18.567 C 24.461 18.661,24.477 18.802,24.477 19.250 C 24.477 20.011,24.456 20.042,23.932 20.083 C 23.718 20.099,20.299 20.113,16.334 20.113 L 9.124 20.113 9.987 19.250 L 10.849 18.387 15.124 18.387 C 17.474 18.387,20.506 18.401,21.860 18.418 " fill="#1A1C1F" stroke="none" fill-rule="evenodd"></path></svg>