<svg xmlns="http://www.w3.org/2000/svg" width="24" height="24" fill="none"><g clip-path="url(#a)"><path fill="#1A1C1F" fill-rule="evenodd" d="M19.89 2.233c.374-.342.96-.277 1.32.083s.413.967.083 1.32l-9.376 9.387h7.8c.625 0 1.071.095 1.49.319s.753.558.977.977c.198.37.319.706.319 1.705s-.093 1.28-.319 1.704a2.36 2.36 0 0 1-.977.977c-.37.198-.754.293-1.263.314l-14.027.004-2.801 2.79c-.367.278-.96.278-1.32-.083-.36-.36-.403-1-.083-1.32zM6.589 13.023l-2.002 2.002a9 9 0 0 0-.424 0c-.19.005-.336.005-.48.133-.146.128-.172.297-.179.526a8 8 0 0 0 0 .424l-1.66 1.659-.023-.04c-.198-.37-.318-.704-.318-1.703s.092-1.282.318-1.705c.224-.419.559-.753.978-.977.37-.198.838-.319 1.49-.319zm3.326 2.002-1.998 1.998h11.8c.173 0 .428.05.625-.14.198-.19.16-.518.16-.859s.04-.653-.136-.843-.476-.151-.648-.156zM2.468 2.208a1 1 0 0 1 1.406.153c1.129 1.405 1.178 2.999.177 4.546l-.234.35c-.38.625-.38 1.215-.135 1.793q.067.159.28.485a1 1 0 0 1-1.63 1.15 3.7 3.7 0 0 1-.492-.856c-.488-1.155-.475-2.439.308-3.676l.243-.362c.525-.822.49-1.473-.076-2.177a1 1 0 0 1 .153-1.406" clip-rule="evenodd"/></g><defs><clipPath id="a"><path fill="#fff" d="M0 0h24v24H0z"/></clipPath></defs></svg>