<svg width="20" height="20" viewBox="0 0 20 20" fill="none" xmlns="http://www.w3.org/2000/svg"><path d="M9.217 3.612 C 8.165 3.902,7.299 4.750,7.046 5.739 C 6.953 6.103,7.044 6.444,7.304 6.704 C 7.519 6.919,7.675 6.981,8.000 6.981 C 8.229 6.981,8.311 6.966,8.426 6.906 C 8.652 6.787,8.804 6.608,8.970 6.266 C 9.224 5.743,9.526 5.526,10.000 5.523 C 10.195 5.522,10.283 5.539,10.400 5.598 C 10.756 5.778,10.977 6.107,10.981 6.467 C 10.985 6.830,10.828 7.027,10.167 7.484 C 9.620 7.863,9.298 8.268,9.120 8.801 C 9.074 8.939,9.027 9.151,9.014 9.272 L 8.992 9.492 7.321 10.218 C 3.578 11.846,3.059 12.087,2.807 12.316 C 2.489 12.603,2.237 13.011,2.096 13.468 C 1.997 13.786,1.990 14.335,2.080 14.667 C 2.295 15.455,2.811 16.040,3.555 16.337 C 3.771 16.424,3.871 16.442,4.310 16.470 C 4.621 16.490,6.977 16.499,10.417 16.493 L 16.017 16.483 16.250 16.405 C 16.951 16.170,17.472 15.724,17.751 15.117 C 17.936 14.713,17.975 14.502,17.960 13.997 C 17.948 13.590,17.937 13.526,17.841 13.283 C 17.632 12.759,17.216 12.257,16.813 12.044 C 16.567 11.913,15.675 11.518,13.067 10.383 C 11.939 9.893,11.012 9.487,11.006 9.482 C 11.000 9.477,11.019 9.426,11.049 9.369 C 11.079 9.311,11.212 9.190,11.356 9.091 C 12.268 8.466,12.744 7.884,12.919 7.183 C 13.011 6.818,13.005 6.124,12.908 5.789 C 12.732 5.182,12.466 4.734,12.041 4.328 C 11.642 3.947,11.160 3.690,10.646 3.584 C 10.268 3.505,9.551 3.520,9.217 3.612 M11.058 11.688 C 11.967 12.077,14.315 13.110,15.252 13.532 C 15.589 13.684,15.875 13.834,15.908 13.876 C 15.943 13.921,15.965 14.010,15.966 14.106 C 15.967 14.235,15.950 14.279,15.867 14.361 C 15.778 14.450,15.739 14.463,15.492 14.482 C 15.341 14.494,12.757 14.499,9.750 14.494 C 4.592 14.484,4.278 14.480,4.197 14.425 C 4.043 14.320,3.989 14.100,4.073 13.915 C 4.096 13.866,4.180 13.794,4.265 13.751 C 4.721 13.520,9.327 11.501,9.736 11.353 C 9.993 11.259,10.155 11.300,11.058 11.688 " fill="#1A1C1F" stroke="none" fill-rule="evenodd"></path></svg>