<svg width="28" height="28" viewBox="0 0 28 28" fill="none" xmlns="http://www.w3.org/2000/svg"><path d="M13.124 6.254 C 12.937 6.303,12.621 6.428,12.420 6.533 C 11.300 7.115,10.601 8.170,10.518 9.403 C 10.495 9.733,10.505 9.801,10.601 9.986 C 10.848 10.460,11.422 10.628,11.844 10.349 C 12.090 10.185,12.168 10.031,12.277 9.491 C 12.424 8.760,12.721 8.324,13.252 8.060 C 13.479 7.946,13.556 7.933,14.000 7.933 C 14.444 7.933,14.521 7.946,14.749 8.060 C 15.072 8.220,15.403 8.557,15.568 8.895 C 15.679 9.122,15.697 9.218,15.700 9.585 C 15.703 9.918,15.684 10.050,15.612 10.195 C 15.477 10.466,15.069 10.850,14.494 11.245 C 14.216 11.437,13.895 11.684,13.781 11.795 C 13.392 12.172,13.190 12.781,13.132 13.748 L 13.100 14.266 10.762 15.072 C 4.999 17.060,3.087 17.737,2.930 17.846 C 2.644 18.045,2.265 18.476,2.136 18.748 C 1.579 19.925,2.152 21.289,3.402 21.762 L 3.663 21.861 13.594 21.876 C 19.874 21.886,23.706 21.875,24.020 21.845 C 24.441 21.806,24.567 21.774,24.853 21.633 C 25.609 21.259,26.090 20.488,26.086 19.656 C 26.082 19.001,25.680 18.253,25.140 17.899 C 25.006 17.812,24.561 17.621,24.150 17.475 C 23.057 17.087,20.061 16.046,17.295 15.092 L 14.874 14.257 14.901 13.781 C 14.939 13.109,14.977 13.052,15.750 12.505 C 16.613 11.894,17.107 11.296,17.345 10.576 C 17.451 10.254,17.470 10.115,17.471 9.660 C 17.472 9.025,17.388 8.643,17.126 8.097 C 16.690 7.188,15.741 6.436,14.770 6.231 C 14.309 6.133,13.544 6.144,13.124 6.254 M14.716 16.075 C 15.906 16.444,22.584 18.760,23.695 19.189 C 24.321 19.431,24.439 19.604,24.221 19.962 L 24.128 20.113 14.246 20.109 C 8.810 20.107,4.243 20.090,4.095 20.072 C 3.791 20.034,3.690 19.944,3.688 19.706 C 3.685 19.390,3.800 19.329,5.507 18.735 C 11.744 16.563,13.744 15.889,14.011 15.869 C 14.029 15.868,14.347 15.960,14.716 16.075 " fill="#1A1C1F" stroke="none" fill-rule="evenodd"></path></svg>