<svg xmlns="http://www.w3.org/2000/svg" width="12" height="12" fill="none"><g clip-path="url(#a)"><path fill="#1A1C1F" fill-rule="evenodd" d="M5.997 2.1c.996 0 1.803.807 1.803 1.803 0 .722-.387 1.197-1.094 1.618-.037.022-.087.07-.102.17L9.93 7.136a1.443 1.443 0 0 1-.471 2.76L2.648 9.9a1.443 1.443 0 0 1-.675-2.718L5.401 5.69a1.45 1.45 0 0 1 .15-.612c.116-.24.296-.443.542-.589.38-.226.507-.381.507-.586a.603.603 0 0 0-.603-.603c-.256 0-.545.191-.618.459a.6.6 0 0 1-1.158-.314c.21-.779.956-1.345 1.776-1.345m-.235 4.735-3.212 1.4a.24.24 0 0 0-.145.222c0 .118.07.22.228.243h6.72a.243.243 0 0 0 .14-.44l-3.21-1.408a.8.8 0 0 0-.286-.07.6.6 0 0 0-.235.053" clip-rule="evenodd"/></g><defs><clipPath id="a"><path fill="#fff" d="M0 0h12v12H0z"/></clipPath></defs></svg>