<svg xmlns="http://www.w3.org/2000/svg" width="16" height="16" fill="none"><g clip-path="url(#a)"><path fill="#1A1C1F" fill-rule="evenodd" d="M7.996 2.8A2.403 2.403 0 0 1 10.4 5.203c0 .964-.516 1.598-1.459 2.158-.05.03-.116.093-.136.228l4.435 1.926a1.923 1.923 0 0 1-.628 3.68L3.53 13.2a1.923 1.923 0 0 1-.9-3.624Q7.2 7.587 7.2 7.586c.01-.274.06-.526.201-.816a1.83 1.83 0 0 1 .723-.785c.508-.302.676-.508.676-.782a.803.803 0 0 0-.804-.803c-.342 0-.727.255-.824.612a.8.8 0 1 1-1.544-.419C5.908 3.555 6.903 2.8 7.996 2.8m-.313 6.313L3.4 10.98a.32.32 0 0 0-.193.297c0 .156.093.293.303.323h8.96a.323.323 0 0 0 .186-.587l-4.28-1.876a1 1 0 0 0-.38-.094.9.9 0 0 0-.313.07" clip-rule="evenodd"/></g><defs><clipPath id="a"><path fill="#fff" d="M0 0h16v16H0z"/></clipPath></defs></svg>