<svg width="14" height="14" viewBox="0 0 14 14" fill="none" xmlns="http://www.w3.org/2000/svg"><path d="M6.487 2.519 C 6.055 2.637,5.785 2.796,5.472 3.112 C 5.337 3.249,5.201 3.412,5.150 3.500 C 4.847 4.023,4.833 4.413,5.107 4.687 C 5.263 4.843,5.370 4.887,5.600 4.887 C 5.761 4.887,5.817 4.877,5.898 4.834 C 6.056 4.751,6.163 4.625,6.279 4.386 C 6.457 4.021,6.667 3.869,7.000 3.866 C 7.139 3.864,7.197 3.875,7.280 3.918 C 7.632 4.098,7.792 4.502,7.624 4.787 C 7.554 4.908,7.406 5.040,7.140 5.222 C 6.649 5.557,6.396 5.933,6.316 6.445 C 6.291 6.611,6.278 6.642,6.229 6.667 C 6.197 6.683,5.809 6.853,5.367 7.044 C 4.366 7.477,2.744 8.197,2.359 8.379 C 2.104 8.501,2.052 8.536,1.904 8.687 C 1.498 9.104,1.328 9.641,1.437 10.167 C 1.561 10.769,1.954 11.237,2.510 11.447 C 2.638 11.495,2.739 11.511,3.021 11.529 C 3.234 11.543,4.913 11.549,7.292 11.545 L 11.212 11.538 11.375 11.483 C 11.866 11.319,12.228 11.009,12.426 10.582 C 12.544 10.330,12.581 10.152,12.581 9.846 C 12.581 9.616,12.572 9.549,12.519 9.391 C 12.375 8.958,12.074 8.583,11.735 8.411 C 11.572 8.328,10.748 7.964,9.146 7.268 C 8.357 6.925,7.708 6.642,7.704 6.638 C 7.700 6.634,7.713 6.598,7.734 6.559 C 7.755 6.517,7.849 6.433,7.950 6.364 C 8.583 5.929,8.925 5.513,9.039 5.040 C 9.093 4.817,9.112 4.449,9.078 4.257 C 8.997 3.786,8.804 3.412,8.471 3.078 C 8.163 2.768,7.843 2.589,7.453 2.509 C 7.211 2.459,6.686 2.464,6.487 2.519 M7.739 8.180 C 8.360 8.446,10.005 9.170,10.676 9.473 C 10.912 9.579,11.113 9.684,11.135 9.713 C 11.196 9.791,11.189 9.959,11.122 10.043 C 11.079 10.096,11.041 10.114,10.941 10.129 C 10.872 10.139,9.098 10.147,7.000 10.147 C 4.902 10.147,3.128 10.139,3.059 10.129 C 2.903 10.107,2.824 10.025,2.823 9.886 C 2.823 9.704,2.846 9.687,3.412 9.431 C 4.675 8.860,6.783 7.946,6.883 7.926 C 7.030 7.896,7.179 7.940,7.739 8.180 " fill="#1A1C1F" stroke="none" fill-rule="evenodd"></path></svg>