<svg xmlns="http://www.w3.org/2000/svg" width="28" height="28" fill="none"><g clip-path="url(#a)"><path fill="#1A1C1F" fill-rule="evenodd" d="M14 6.125a3.5 3.5 0 0 1 3.5 3.5c0 1.62-1.113 2.447-1.689 2.852-.575.405-.874.405-.919 1.094l-.017.685 9.744 3.364a2.19 2.19 0 0 1 1.353 2.782c-.288.833-1.05 1.44-2.037 1.473H4.095a2.188 2.188 0 0 1-.859-4.2l9.89-3.42c0-1.663.24-2.362 1.304-2.976.95-.565 1.32-1.018 1.32-1.654A1.75 1.75 0 0 0 14 7.875c-.923 0-1.703.7-1.75 1.75a.875.875 0 0 1-1.75 0 3.5 3.5 0 0 1 3.5-3.5m0 9.728q-.16 0-.5.12l-9.548 3.301a.438.438 0 0 0 .065.844l19.887.007a.44.44 0 0 0 .414-.295c.07-.203 0-.494-.383-.593l-9.436-3.263q-.338-.12-.5-.121" clip-rule="evenodd"/></g><defs><clipPath id="a"><path fill="#fff" d="M0 0h28v28H0z"/></clipPath></defs></svg>