<svg xmlns="http://www.w3.org/2000/svg" width="32" height="32" fill="none"><g clip-path="url(#a)"><path fill="#1A1C1F" fill-rule="evenodd" d="M16 7a4 4 0 0 1 4 4c0 1.85-1.272 2.797-1.93 3.26s-.999.462-1.05 1.25l-.02.783 11.136 3.844a2.5 2.5 0 0 1 1.546 3.18c-.329.951-1.2 1.646-2.328 1.683H4.68a2.5 2.5 0 0 1-.981-4.8L15 16.293c0-1.9.274-2.7 1.49-3.402C17.578 12.245 18 11.726 18 11a2 2 0 0 0-2-2c-1.055 0-1.947.8-2 2a1 1 0 1 1-2 0 4 4 0 0 1 4-4m0 11.118q-.184 0-.57.138L4.516 22.027a.5.5 0 0 0 .073.965L27.32 23a.5.5 0 0 0 .472-.337c.08-.232 0-.565-.438-.678l-10.784-3.73q-.387-.137-.57-.137" clip-rule="evenodd"/></g><defs><clipPath id="a"><path fill="#fff" d="M0 0h32v32H0z"/></clipPath></defs></svg>