<svg width="16" height="16" viewBox="0 0 16 16" fill="none" xmlns="http://www.w3.org/2000/svg"><path d="M7.413 2.879 C 6.604 3.101,5.997 3.634,5.702 4.384 C 5.546 4.782,5.594 5.114,5.844 5.364 C 6.015 5.535,6.140 5.585,6.400 5.585 C 6.584 5.585,6.648 5.573,6.741 5.525 C 6.921 5.430,7.044 5.286,7.176 5.013 C 7.379 4.595,7.620 4.421,8.000 4.418 C 8.159 4.416,8.225 4.429,8.320 4.477 C 8.722 4.683,8.905 5.146,8.714 5.471 C 8.631 5.611,8.462 5.762,8.147 5.976 C 7.598 6.349,7.269 6.855,7.211 7.417 L 7.193 7.593 6.070 8.081 C 4.504 8.762,2.826 9.507,2.586 9.627 C 2.160 9.841,1.841 10.243,1.677 10.774 C 1.598 11.029,1.592 11.468,1.664 11.733 C 1.837 12.369,2.274 12.858,2.868 13.081 C 3.015 13.137,3.129 13.155,3.452 13.176 C 3.696 13.192,5.609 13.199,8.333 13.194 L 12.813 13.186 13.000 13.124 C 13.561 12.936,13.978 12.578,14.200 12.093 C 14.338 11.791,14.378 11.603,14.378 11.255 C 14.378 10.892,14.315 10.659,14.125 10.321 C 13.985 10.071,13.670 9.750,13.453 9.636 C 13.251 9.529,12.517 9.204,10.453 8.307 C 9.551 7.915,8.809 7.590,8.803 7.585 C 8.798 7.580,8.816 7.537,8.844 7.490 C 8.873 7.440,9.016 7.320,9.185 7.202 C 9.720 6.832,10.103 6.394,10.269 5.964 C 10.366 5.711,10.402 5.361,10.372 4.941 C 10.305 3.978,9.492 3.068,8.519 2.867 C 8.241 2.810,7.642 2.816,7.413 2.879 M8.845 9.349 C 9.554 9.653,11.434 10.480,12.202 10.826 C 12.471 10.947,12.700 11.067,12.726 11.101 C 12.795 11.190,12.788 11.382,12.711 11.478 C 12.662 11.539,12.618 11.559,12.504 11.576 C 12.425 11.587,10.398 11.596,8.000 11.596 C 5.602 11.596,3.575 11.587,3.496 11.576 C 3.318 11.550,3.227 11.457,3.227 11.299 C 3.227 11.091,3.252 11.071,3.899 10.778 C 5.343 10.126,7.752 9.082,7.867 9.058 C 8.034 9.024,8.205 9.075,8.845 9.349 " fill="#1A1C1F" stroke="none" fill-rule="evenodd"></path></svg>