<svg width="32" height="32" viewBox="0 0 32 32" fill="none" xmlns="http://www.w3.org/2000/svg"><path d="M15.007 7.145 C 13.652 7.501,12.513 8.615,12.167 9.922 C 12.035 10.422,11.985 11.002,12.051 11.280 C 12.139 11.654,12.620 11.999,13.055 12.000 C 13.210 12.000,13.539 11.864,13.670 11.745 C 13.838 11.593,13.957 11.302,14.025 10.880 C 14.151 10.095,14.542 9.511,15.145 9.211 C 15.405 9.081,15.492 9.067,16.000 9.067 C 16.508 9.067,16.596 9.081,16.856 9.211 C 17.225 9.394,17.603 9.780,17.792 10.166 C 17.919 10.426,17.940 10.535,17.943 10.954 C 17.946 11.335,17.924 11.486,17.842 11.652 C 17.688 11.961,17.222 12.400,16.565 12.851 C 16.247 13.070,15.880 13.353,15.750 13.479 C 15.306 13.911,15.074 14.607,15.008 15.712 L 14.972 16.304 14.033 16.628 C 5.995 19.400,3.597 20.244,3.387 20.375 C 3.079 20.566,2.568 21.140,2.424 21.457 C 1.814 22.795,2.475 24.337,3.888 24.871 L 4.187 24.984 15.536 25.001 C 22.713 25.012,27.093 24.999,27.452 24.966 C 27.933 24.922,28.077 24.885,28.404 24.723 C 29.085 24.387,29.564 23.797,29.731 23.089 C 29.919 22.293,29.751 21.577,29.221 20.906 C 28.805 20.379,28.877 20.410,24.640 18.935 C 23.481 18.532,21.288 17.773,19.766 17.248 L 16.999 16.294 17.030 15.750 C 17.073 14.981,17.116 14.916,18.000 14.291 C 18.986 13.593,19.551 12.910,19.822 12.087 C 19.944 11.719,19.966 11.560,19.966 11.040 C 19.968 10.315,19.871 9.878,19.572 9.253 C 19.075 8.215,17.990 7.356,16.880 7.121 C 16.357 7.010,15.479 7.022,15.007 7.145 M17.867 18.719 C 20.805 19.695,26.812 21.797,27.387 22.051 C 27.798 22.233,27.890 22.470,27.681 22.813 L 27.575 22.987 16.281 22.982 C 10.069 22.980,4.849 22.960,4.680 22.939 C 4.332 22.896,4.218 22.793,4.215 22.521 C 4.214 22.405,4.261 22.297,4.360 22.191 C 4.518 22.021,4.602 21.991,10.933 19.804 C 15.533 18.214,15.849 18.115,16.133 18.168 C 16.221 18.184,17.001 18.432,17.867 18.719 " fill="#1A1C1F" stroke="none" fill-rule="evenodd"></path></svg>