<svg xmlns="http://www.w3.org/2000/svg" width="24" height="24" fill="none"><g clip-path="url(#a)"><path fill="#1A1C1F" fill-rule="evenodd" d="M11.996 5A3.004 3.004 0 0 1 15 8.004c0 1.204-.656 2.018-1.823 2.697-.173.1-.182.22-.182.621l7.377 2.847a2.5 2.5 0 0 1-.721 4.825L4.53 19a2.5 2.5 0 0 1-1.07-4.76l7.535-2.915.004-.366a2.38 2.38 0 0 1 1.156-1.977c.635-.378.845-.636.845-.978A1 1 0 0 0 11.995 7c-.34 0-.886.232-1.03.765a1 1 0 0 1-1.93-.523C9.384 5.944 10.628 5 11.994 5m-.603 8.308-7.044 2.726a.5.5 0 0 0 .091.958L19.47 17a.5.5 0 0 0 .26-.926l-7.123-2.766q-.397-.162-.607-.162t-.607.162" clip-rule="evenodd"/></g><defs><clipPath id="a"><path fill="#fff" d="M0 0h24v24H0z"/></clipPath></defs></svg>