<svg xmlns="http://www.w3.org/2000/svg" width="32" height="32" fill="none"><path fill="#1A1C1F" fill-rule="evenodd" d="M15.52 7.04c-1.937.233-3.487 1.914-3.492 3.79-.001.454.013.532.127.699.392.572 1.222.619 1.618.091.162-.217.182-.28.253-.793.105-.763.514-1.34 1.165-1.645.261-.123.372-.142.809-.142s.548.019.809.142c.406.19.739.508.954.911.153.286.181.399.2.792.019.379.004.502-.086.705-.17.382-.563.759-1.3 1.246-.373.246-.774.557-.893.692-.42.477-.612 1.091-.675 2.157l-.037.618-5.606 1.936c-3.083 1.065-5.725 1.996-5.871 2.069-.336.168-.87.707-1.035 1.043-.736 1.51.112 3.263 1.743 3.603.361.076 23.116.085 23.512.01.916-.174 1.624-.754 1.94-1.591.163-.431.198-1.075.08-1.482-.203-.706-.671-1.302-1.249-1.594-.135-.068-2.775-.997-5.866-2.064l-5.619-1.939.023-.566c.03-.736.084-.827.751-1.275 1.011-.679 1.503-1.18 1.856-1.893.285-.577.387-1.084.352-1.76a4 4 0 0 0-4.463-3.76m6.427 13.071c3.902 1.351 5.636 1.975 5.72 2.058.171.17.165.51-.011.687l-.131.131H16.008c-10.889 0-11.522-.005-11.629-.094a.507.507 0 0 1 .112-.84c.096-.045 2.672-.946 5.722-2.001 5.129-1.776 5.569-1.919 5.84-1.9.212.014 1.844.556 5.894 1.959"/></svg>