<svg width="12" height="12" viewBox="0 0 12 12" fill="none" xmlns="http://www.w3.org/2000/svg"><path d="M5.530 2.167 C 4.899 2.341,4.380 2.850,4.228 3.443 C 4.172 3.662,4.224 3.864,4.377 4.017 C 4.511 4.151,4.603 4.188,4.800 4.188 C 4.938 4.188,4.986 4.180,5.056 4.143 C 5.191 4.072,5.283 3.965,5.382 3.760 C 5.534 3.446,5.715 3.316,6.000 3.313 C 6.119 3.312,6.168 3.321,6.240 3.358 C 6.455 3.468,6.586 3.665,6.588 3.880 C 6.591 4.098,6.497 4.216,6.100 4.491 C 5.772 4.718,5.579 4.961,5.472 5.280 C 5.445 5.363,5.416 5.490,5.409 5.563 L 5.395 5.695 4.392 6.131 C 3.111 6.689,2.335 7.032,2.022 7.182 C 1.804 7.286,1.758 7.317,1.632 7.446 C 1.190 7.900,1.085 8.503,1.349 9.070 C 1.507 9.409,1.774 9.659,2.133 9.802 C 2.257 9.852,2.326 9.865,2.546 9.880 C 2.890 9.904,9.110 9.904,9.454 9.880 C 9.664 9.866,9.745 9.851,9.854 9.808 C 10.210 9.667,10.508 9.388,10.660 9.053 C 10.752 8.850,10.783 8.698,10.783 8.440 C 10.783 8.168,10.737 7.995,10.594 7.741 C 10.488 7.553,10.253 7.313,10.090 7.227 C 9.938 7.147,9.388 6.903,7.840 6.230 C 7.163 5.936,6.607 5.693,6.604 5.690 C 6.600 5.686,6.612 5.656,6.629 5.622 C 6.647 5.586,6.727 5.514,6.814 5.455 C 7.356 5.082,7.650 4.726,7.748 4.320 C 7.794 4.129,7.810 3.813,7.782 3.649 C 7.712 3.245,7.547 2.924,7.261 2.638 C 6.997 2.372,6.722 2.219,6.388 2.150 C 6.161 2.103,5.731 2.112,5.530 2.167 M6.637 7.013 C 7.180 7.246,8.589 7.866,9.151 8.119 C 9.353 8.210,9.525 8.300,9.545 8.325 C 9.613 8.414,9.580 8.588,9.482 8.655 C 9.433 8.688,9.245 8.690,6.150 8.696 C 4.346 8.700,2.796 8.697,2.705 8.689 C 2.557 8.678,2.533 8.670,2.480 8.617 C 2.434 8.571,2.420 8.539,2.420 8.479 C 2.420 8.363,2.457 8.302,2.559 8.251 C 2.903 8.077,5.757 6.832,5.890 6.798 C 6.017 6.765,6.140 6.800,6.637 7.013 " fill="#1A1C1F" stroke="none" fill-rule="evenodd"></path></svg>