<svg xmlns="http://www.w3.org/2000/svg" width="20" height="20" fill="none"><g clip-path="url(#a)"><path fill="#1A1C1F" fill-rule="evenodd" d="M9.996 3.5A3.004 3.004 0 0 1 13 6.504c0 1.204-.646 1.997-1.823 2.697-.063.037-.146.117-.17.285l5.544 2.407a2.404 2.404 0 0 1-.786 4.6L4.413 16.5a2.404 2.404 0 0 1-1.124-4.53Q9 9.486 9 9.484c.012-.343.075-.658.25-1.02.193-.399.494-.737.904-.981.635-.378.845-.636.845-.978C11 5.95 10.55 5.5 9.996 5.5c-.428 0-.91.319-1.031.765a1 1 0 0 1-1.93-.523C7.386 4.444 8.629 3.5 9.995 3.5m-.392 7.891L4.25 13.726a.4.4 0 0 0-.243.37c0 .195.117.367.38.404h11.199a.404.404 0 0 0 .233-.734l-5.35-2.345a1.3 1.3 0 0 0-.474-.117q-.176 0-.392.087" clip-rule="evenodd"/></g><defs><clipPath id="a"><path fill="#fff" d="M0 0h20v20H0z"/></clipPath></defs></svg>