<svg xmlns="http://www.w3.org/2000/svg" width="14" height="14" fill="none"><g clip-path="url(#a)"><path fill="#1A1C1F" fill-rule="evenodd" d="M6.997 2.45c1.161 0 2.103.942 2.103 2.103 0 .843-.452 1.398-1.276 1.888-.044.026-.102.082-.12.199l3.881 1.685a1.683 1.683 0 0 1-.55 3.22l-7.946.005a1.683 1.683 0 0 1-.787-3.17Q6.3 6.638 6.3 6.637c.008-.24.052-.46.175-.714.135-.28.345-.516.632-.687.445-.264.592-.445.592-.684a.703.703 0 0 0-.703-.703c-.3 0-.636.223-.722.535a.7.7 0 0 1-1.35-.366C5.17 3.111 6.04 2.45 6.996 2.45m-.274 5.524L2.975 9.608a.28.28 0 0 0-.17.26c0 .136.082.256.267.282h7.839a.283.283 0 0 0 .163-.514L7.33 7.994a.9.9 0 0 0-.332-.081.7.7 0 0 0-.274.061" clip-rule="evenodd"/></g><defs><clipPath id="a"><path fill="#fff" d="M0 0h14v14H0z"/></clipPath></defs></svg>