<svg width="24" height="24" viewBox="0 0 24 24" fill="none" xmlns="http://www.w3.org/2000/svg"><path d="M11.420 5.062 C 10.778 5.182,10.012 5.654,9.596 6.185 C 9.246 6.631,9.000 7.182,9.000 7.520 C 9.000 7.844,9.228 8.197,9.547 8.367 C 9.822 8.514,10.002 8.537,10.272 8.458 C 10.564 8.374,10.788 8.148,10.980 7.743 C 11.213 7.251,11.573 7.011,12.047 7.029 C 12.537 7.048,12.854 7.330,12.964 7.842 C 13.001 8.014,12.997 8.077,12.940 8.227 C 12.853 8.454,12.706 8.600,12.231 8.932 C 12.022 9.077,11.757 9.292,11.643 9.408 C 11.274 9.784,11.003 10.470,11.000 11.040 C 10.999 11.161,10.986 11.280,10.969 11.304 C 10.953 11.329,9.788 11.794,8.380 12.339 C 3.919 14.063,3.321 14.306,3.057 14.504 C 1.398 15.743,1.864 18.294,3.860 18.906 C 4.090 18.977,4.444 18.980,12.040 18.980 L 19.980 18.980 20.304 18.849 C 20.950 18.589,21.404 18.187,21.677 17.633 C 22.304 16.361,21.825 14.900,20.580 14.288 C 20.324 14.162,18.324 13.376,15.060 12.119 C 13.960 11.695,13.047 11.329,13.031 11.304 C 12.978 11.226,12.998 10.940,13.062 10.849 C 13.096 10.801,13.300 10.636,13.516 10.483 C 14.379 9.871,14.785 9.312,14.943 8.521 C 15.064 7.917,14.975 7.296,14.682 6.700 C 14.091 5.495,12.736 4.815,11.420 5.062 M12.760 13.389 C 13.747 13.745,18.520 15.598,19.214 15.894 C 19.625 16.070,19.864 16.205,19.929 16.298 C 19.974 16.362,19.966 16.594,19.915 16.693 C 19.890 16.741,19.824 16.829,19.768 16.890 L 19.665 17.000 12.000 17.000 L 4.335 17.000 4.232 16.890 C 4.089 16.736,4.040 16.628,4.040 16.463 C 4.040 16.209,4.191 16.119,5.460 15.609 C 6.576 15.161,11.594 13.234,11.740 13.196 C 11.942 13.145,12.238 13.201,12.760 13.389 " fill="#1A1C1F" stroke="none" fill-rule="evenodd"></path></svg>