<svg xmlns="http://www.w3.org/2000/svg" width="28" height="28" fill="none"><g clip-path="url(#a)"><path fill="#1A1C1F" fill-rule="evenodd" d="M19.542 16.189c1.603 0 3.166.489 4.481 1.399q1.315.91 1.877 1.4c.387.29.465.839.175 1.226-.268.356-.804.47-1.133.235q-.33-.236-1.725-1.286a6.12 6.12 0 0 0-3.41-1.219l-3.128-.005c-.659 0-1.233.448-1.393 1.087a.54.54 0 0 0 .453.663h3.51a.875.875 0 1 1 0 1.75h-3.446c-.754-.01-1.053-.163-2.782-.875q-.709-.293-2.552-1.015a3.06 3.06 0 0 0-2.944.402c-.137.102-.203.42.08.538q.275.114 6.41 2.33c.575.21 1.178.331 1.788.362l4.504.008q.624 0 1.238.098l4.002.794a.875.875 0 1 1-.344 1.716l-3.695-.74a6 6 0 0 0-.899-.111l-4.5-.008c-.804 0-1.602-.122-2.366-.363l-6.736-2.442a2.06 2.06 0 0 1-.532-3.582 4.8 4.8 0 0 1 4.418-.71l2.645 1.028c.205-1.53 1.643-2.68 3.087-2.68zm-9.917-1.75a.875.875 0 1 1 0 1.75.875.875 0 0 1 0-1.75m3.281-.657a.875.875 0 1 1 0 1.75.875.875 0 0 1 0-1.75m-6.562 0a.875.875 0 1 1 0 1.75.875.875 0 0 1 0-1.75m3.28-1.969a.875.875 0 1 1 .001 1.75.875.875 0 0 1 0-1.75m2.626-.875a.875.875 0 1 1 0 1.75.875.875 0 0 1 0-1.75m-5.25 0a.875.875 0 1 1 0 1.75.875.875 0 0 1 0-1.75m2.187-8.75a3.94 3.94 0 0 1 3.934 3.753l.004 2.372c0 .923-.72 1.75-1.75 1.75h-3.5A1.75 1.75 0 0 1 6.13 8.445l-.005-.524c0-.263-.167-.482-.438-.482H2.625a.875.875 0 1 1 0-1.75h3.062c1.16 0 2.11.903 2.183 2.044l.005.581h3.5V6.126c0-1.16-.903-2.109-2.044-2.183l-6.706-.005a.875.875 0 0 1-.875-.875c0-.448.39-.875.875-.875z" clip-rule="evenodd"/></g><defs><clipPath id="a"><path fill="#fff" d="M0 0h28v28H0z"/></clipPath></defs></svg>