<svg xmlns="http://www.w3.org/2000/svg" width="20" height="20" fill="none"><g clip-path="url(#a)"><path fill="#1A1C1F" fill-rule="evenodd" d="M12.543 10c1.732.016 3.412.65 4.683 1.816l.486.477a1 1 0 0 1-1.32 1.497l-.36-.348c-.864-.865-2.031-1.415-3.228-1.456-1.196-.04-1.463.004-1.805 0-.343-.002-.649.207-.73.54-.024.1.038.21.167.232q.128.022 2.661.247a1 1 0 0 1 .904 1.088c-.047.51-.455.937-.971.908s-2.282-.199-2.779-.251-.93-.209-1.452-.374q-.521-.165-3.29-1.026a1.38 1.38 0 0 0-1.477.45c-.058.07-.055.206.112.271l3.84 1.47a7 7 0 0 0 2.176.452l6.845.007a1 1 0 0 1 1 1c0 .513-.427 1-1 1H10.48c-.974 0-2.09-.177-2.864-.468q-.773-.29-4.226-1.604a2.166 2.166 0 0 1-.911-3.387A3.38 3.38 0 0 1 5.9 11.384l2.41.739c.316-1.247 1.311-2.06 2.51-2.123zM6.255 7.75a.75.75 0 1 1 0 1.5.75.75 0 0 1 0-1.5m3.5-.75a.75.75 0 1 1 0 1.5.75.75 0 0 1 0-1.5m-7-.034a.75.75 0 1 1 0 1.5.75.75 0 0 1 0-1.5M6.255 5a.75.75 0 1 1 0 1.5.75.75 0 0 1 0-1.5m3-.5a.75.75 0 1 1 0 1.5.75.75 0 0 1 0-1.5m-6-.022a.75.75 0 1 1 0 1.5.75.75 0 0 1 0-1.5m3-2.228a.75.75 0 1 1 0 1.5.75.75 0 0 1 0-1.5M3.745 2a.75.75 0 1 1 0 1.5.75.75 0 0 1 0-1.5m5.01 0a.75.75 0 1 1 0 1.5.75.75 0 0 1 0-1.5" clip-rule="evenodd"/></g><defs><clipPath id="a"><path fill="#fff" d="M0 0h20v20H0z"/></clipPath></defs></svg>