<svg xmlns="http://www.w3.org/2000/svg" width="24" height="24" fill="none"><g clip-path="url(#a)"><path fill="#1A1C1F" fill-rule="evenodd" d="M16.018 13.663a7 7 0 0 1 4.258 1.443l1.35 1.124a1 1 0 0 1-1.184 1.607L19.23 16.83c-.832-.697-2.067-1.154-2.943-1.161q-.875-.008-2.199-.008a.826.826 0 0 0-.805.641c-.03.126.05.251.175.28l2.59.165a1 1 0 0 1-.067 1.995l-2.551-.148c-.569-.052-1.035-.233-1.778-.513q-.744-.28-3-1.097a1.255 1.255 0 0 0-1.405.39c-.087.107-.078.307.09.384l3.472 1.597a7 7 0 0 0 2.588.632l7.585.008a1 1 0 0 1 1 1c0 .513-.402 1-1 1h-7.249a9 9 0 0 1-3.403-.668q-4-1.795-4.304-2.047c-.95-.787-1.115-2.199-.333-3.164a3.26 3.26 0 0 1 3.455-1.073l2.192.79c.309-1.29 1.508-2.16 2.57-2.166q1.062-.006 2.107-.005M9.34 11.526a.75.75 0 1 1 0 1.5.75.75 0 0 1 0-1.5m3.5-.75a.75.75 0 1 1 0 1.5.75.75 0 0 1 0-1.5m-7-.034a.75.75 0 1 1 0 1.5.75.75 0 0 1 0-1.5m3.5-1.966a.75.75 0 1 1 0 1.5.75.75 0 0 1 0-1.5m3-.5a.75.75 0 1 1 0 1.5.75.75 0 0 1 0-1.5m-6-.021a.75.75 0 1 1 0 1.5.75.75 0 0 1 0-1.5m3.643-6.25c1.598 0 3 1.247 3 3v2.021H7.004a1 1 0 0 1-1-1c0-.513.336-1 1-1 1.99-.003 3.06 0 3.98 0 0-.545-.266-1.02-1-1.02a3660 3660 0 0 0-6.967 0 1 1 0 0 1 0-2q3.483-.003 6.966 0" clip-rule="evenodd"/></g><defs><clipPath id="a"><path fill="#fff" d="M0 0h24v24H0z"/></clipPath></defs></svg>