<svg width="28" height="28" viewBox="0 0 28 28" fill="none" xmlns="http://www.w3.org/2000/svg"><path d="M2.217 2.328 C 1.926 2.495,1.773 2.746,1.773 3.056 C 1.773 3.447,2.020 3.792,2.363 3.881 C 2.470 3.909,4.016 3.942,6.188 3.962 L 9.832 3.997 10.154 4.177 C 10.593 4.422,10.912 4.754,11.125 5.184 C 11.339 5.617,11.384 5.989,11.385 7.362 L 11.387 8.307 9.643 8.307 L 7.900 8.307 7.874 7.922 C 7.807 6.921,7.281 6.149,6.451 5.830 C 6.192 5.730,6.124 5.727,4.267 5.722 L 2.350 5.717 2.156 5.845 C 1.883 6.026,1.758 6.288,1.783 6.630 C 1.807 6.964,1.973 7.202,2.282 7.343 C 2.484 7.435,2.597 7.442,4.155 7.465 C 6.231 7.496,6.080 7.434,6.134 8.272 C 6.178 8.953,6.393 9.383,6.862 9.728 C 7.293 10.045,7.373 10.054,9.707 10.055 C 11.718 10.055,11.739 10.054,12.005 9.948 C 12.379 9.798,12.748 9.448,12.937 9.062 L 13.090 8.752 13.089 7.071 L 13.088 5.390 12.957 4.993 C 12.558 3.791,11.667 2.855,10.511 2.423 L 10.103 2.270 8.610 2.236 C 7.789 2.218,6.067 2.201,4.783 2.198 L 2.450 2.194 2.217 2.328 M6.576 11.075 C 6.297 11.223,6.093 11.597,6.132 11.889 C 6.169 12.168,6.273 12.347,6.490 12.504 C 7.149 12.981,8.033 12.381,7.834 11.591 C 7.703 11.070,7.074 10.812,6.576 11.075 M11.970 11.000 C 11.808 11.039,11.576 11.245,11.480 11.434 C 11.303 11.780,11.403 12.207,11.727 12.492 C 12.294 12.990,13.189 12.461,13.101 11.681 C 13.045 11.184,12.518 10.867,11.970 11.000 M9.419 11.850 C 8.921 12.009,8.658 12.506,8.817 12.988 C 8.889 13.206,9.185 13.468,9.434 13.535 C 9.969 13.679,10.550 13.172,10.488 12.615 C 10.431 12.111,9.867 11.707,9.419 11.850 M5.915 13.907 C 5.483 14.142,5.344 14.727,5.625 15.127 C 5.819 15.403,6.028 15.515,6.351 15.515 C 6.558 15.515,6.653 15.488,6.805 15.388 C 7.314 15.051,7.336 14.286,6.847 13.963 C 6.595 13.796,6.167 13.771,5.915 13.907 M12.530 13.879 C 12.258 14.000,12.039 14.352,12.041 14.664 C 12.044 15.036,12.398 15.451,12.773 15.522 C 13.239 15.609,13.762 15.157,13.766 14.664 C 13.767 14.488,13.660 14.208,13.543 14.078 C 13.325 13.837,12.840 13.742,12.530 13.879 M9.262 14.532 C 9.064 14.618,8.830 14.901,8.793 15.099 C 8.711 15.535,8.886 15.892,9.276 16.084 C 9.543 16.215,9.770 16.213,10.036 16.075 C 10.352 15.912,10.554 15.439,10.458 15.087 C 10.326 14.605,9.729 14.328,9.262 14.532 M16.357 16.237 C 15.631 16.289,15.048 16.565,14.472 17.132 C 14.051 17.545,13.821 17.904,13.650 18.414 C 13.545 18.728,13.490 18.832,13.439 18.816 C 13.401 18.804,12.803 18.579,12.110 18.316 C 10.372 17.657,10.222 17.623,9.195 17.651 C 8.467 17.671,8.333 17.688,7.980 17.802 C 7.160 18.066,6.294 18.613,6.021 19.039 C 5.751 19.459,5.675 19.716,5.676 20.207 C 5.676 20.743,5.782 21.058,6.091 21.438 C 6.519 21.962,6.411 21.914,10.523 23.411 C 13.834 24.616,14.188 24.730,15.073 24.873 C 15.240 24.901,16.710 24.943,18.340 24.967 L 21.303 25.012 23.147 25.383 C 25.316 25.820,25.416 25.835,25.635 25.763 C 26.129 25.600,26.360 25.052,26.139 24.570 C 26.037 24.349,25.933 24.248,25.706 24.154 C 25.614 24.115,24.596 23.893,23.444 23.660 L 21.350 23.236 18.340 23.192 C 15.054 23.144,14.989 23.139,14.140 22.854 C 12.315 22.243,7.553 20.461,7.478 20.361 C 7.319 20.146,7.507 19.918,8.058 19.658 C 8.555 19.422,8.995 19.344,9.593 19.382 C 10.137 19.418,10.329 19.486,13.739 20.858 C 14.327 21.095,14.957 21.322,15.139 21.363 C 15.412 21.424,15.814 21.438,17.430 21.440 C 19.344 21.443,19.395 21.441,19.608 21.342 C 19.928 21.195,20.090 20.930,20.089 20.560 C 20.087 20.223,19.989 20.029,19.726 19.847 L 19.547 19.723 17.602 19.694 C 16.193 19.674,15.628 19.650,15.552 19.608 C 15.165 19.395,15.269 18.722,15.755 18.296 C 16.111 17.983,16.050 17.990,18.293 17.991 C 20.504 17.991,20.691 18.007,21.443 18.258 C 22.215 18.515,22.788 18.848,23.963 19.724 C 25.107 20.576,25.209 20.629,25.547 20.534 C 25.957 20.420,26.227 20.085,26.227 19.693 C 26.227 19.296,26.026 19.056,25.130 18.386 C 23.358 17.059,22.040 16.439,20.673 16.289 C 20.161 16.232,16.965 16.194,16.357 16.237 " fill="#1A1C1F" stroke="none" fill-rule="evenodd"></path></svg>