<svg xmlns="http://www.w3.org/2000/svg" width="32" height="32" fill="none"><g clip-path="url(#a)"><path fill="#1A1C1F" fill-rule="evenodd" d="M22.333 18.501a9 9 0 0 1 5.122 1.6q1.503 1.04 2.145 1.6a1 1 0 0 1 .2 1.4c-.306.408-.92.538-1.295.27q-.376-.27-1.972-1.47a7 7 0 0 0-3.898-1.393l-3.574-.007a1.64 1.64 0 0 0-1.591 1.243.62.62 0 0 0 .517.757H22a1 1 0 0 1 1 1c0 .513-.414.995-1 1h-3.94c-.861-.012-1.202-.185-3.179-1q-.81-.335-2.916-1.16a3.49 3.49 0 0 0-3.365.46c-.156.117-.233.48.091.615q.314.129 7.326 2.664a7 7 0 0 0 2.043.412l5.148.01q.712 0 1.415.111l4.573.907a1 1 0 0 1 .784 1.177c-.1.503-.594.89-1.176.785l-4.223-.845a7 7 0 0 0-1.028-.127L18.41 28.5c-.918 0-1.83-.14-2.703-.416l-7.698-2.79a2.353 2.353 0 0 1-.608-4.094 5.49 5.49 0 0 1 5.05-.81l3.022 1.174c.234-1.749 1.877-3.064 3.528-3.064zm-11.333-2a1 1 0 1 1 0 2 1 1 0 0 1 0-2m3.75-.75a1 1 0 1 1 0 2 1 1 0 0 1 0-2m-7.5 0a1 1 0 1 1 0 2 1 1 0 0 1 0-2m3.75-2.25a1 1 0 1 1 0 2 1 1 0 0 1 0-2m3-1a1 1 0 1 1 0 2 1 1 0 0 1 0-2m-6 0a1 1 0 1 1 0 2 1 1 0 0 1 0-2m2.5-10a4.5 4.5 0 0 1 4.495 4.288L15 9.501c0 1.055-.824 2-2 2H9a2 2 0 0 1-1.995-1.85L7 9.05c0-.3-.191-.55-.5-.55H3a1 1 0 1 1 0-2h3.5a2.5 2.5 0 0 1 2.495 2.336L9 9.5h4v-2.5a2.5 2.5 0 0 0-2.336-2.495L3 4.501a1 1 0 0 1-1-1c0-.513.445-1 1-1z" clip-rule="evenodd"/></g><defs><clipPath id="a"><path fill="#fff" d="M0 0h32v32H0z"/></clipPath></defs></svg>