<svg xmlns="http://www.w3.org/2000/svg" width="14" height="14" fill="none"><g clip-path="url(#a)"><path fill="#1A1C1F" fill-rule="evenodd" d="M8.78 7a4.92 4.92 0 0 1 3.278 1.271l.34.334a.7.7 0 0 1-.923 1.048l-.252-.244c-.606-.605-1.422-.99-2.26-1.018s-1.024.002-1.264 0a.506.506 0 0 0-.51.377c-.018.07.026.147.116.163q.09.015 1.863.172a.7.7 0 0 1 .633.762c-.034.357-.319.656-.68.635a74 74 0 0 1-1.945-.175c-.347-.036-.652-.146-1.017-.261q-.364-.117-2.303-.719a.96.96 0 0 0-1.034.315c-.04.05-.038.144.079.19l2.688 1.028a4.9 4.9 0 0 0 1.523.317l4.792.005a.7.7 0 0 1 .7.7c0 .359-.3.7-.7.7H7.335c-.682 0-1.463-.124-2.004-.327q-.541-.204-2.959-1.123a1.516 1.516 0 0 1-.638-2.371 2.36 2.36 0 0 1 2.396-.81l1.687.517c.221-.873.918-1.441 1.757-1.486zM4.38 5.425a.525.525 0 1 1 0 1.05.525.525 0 0 1 0-1.05m2.45-.525a.525.525 0 1 1 0 1.05.525.525 0 0 1 0-1.05m-4.9-.024a.525.525 0 1 1 0 1.05.525.525 0 0 1 0-1.05M4.379 3.5a.525.525 0 1 1 0 1.05.525.525 0 0 1 0-1.05m2.1-.35a.525.525 0 1 1 0 1.05.525.525 0 0 1 0-1.05m-4.2-.015a.525.525 0 1 1 0 1.05.525.525 0 0 1 0-1.05m2.1-1.56a.525.525 0 1 1 0 1.05.525.525 0 0 1 0-1.05M2.62 1.4a.525.525 0 1 1 0 1.05.525.525 0 0 1 0-1.05m3.508 0a.525.525 0 1 1 0 1.05.525.525 0 0 1 0-1.05" clip-rule="evenodd"/></g><defs><clipPath id="a"><path fill="#fff" d="M0 0h14v14H0z"/></clipPath></defs></svg>