<svg xmlns="http://www.w3.org/2000/svg" width="32" height="32" fill="none"><path fill="#1A1C1F" fill-rule="evenodd" d="M2.571 2.619c-.618.309-.753 1.11-.266 1.579.332.32.136.306 4.685.335l4.189.027.4.198a2.53 2.53 0 0 1 1.378 1.855c.031.191.056.917.056 1.614v1.266H9.029L8.999 9c-.068-1.114-.647-1.948-1.627-2.343-.298-.12-.358-.123-2.385-.14-1.421-.012-2.144.001-2.281.042a.98.98 0 0 0-.653.657.95.95 0 0 0 .287 1.012c.311.281.517.305 2.569.305 2.219 0 2.045-.077 2.095.934.037.736.303 1.272.82 1.647.514.374.562.379 3.216.379 2.35 0 2.376-.001 2.675-.122a2.01 2.01 0 0 0 1.165-1.21c.098-.286.107-.447.106-2.023 0-1.525-.012-1.76-.106-2.155a4.4 4.4 0 0 0-1.321-2.253c-.6-.562-1.111-.848-1.962-1.1-.289-.085-.697-.095-4.557-.11L2.8 2.504zm4.94 10.022c-.38.201-.6.711-.479 1.112.179.599.819.904 1.37.653.585-.265.769-.978.392-1.508-.248-.349-.873-.473-1.283-.257m6.009-.008a1.6 1.6 0 0 0-.276.227c-.379.413-.277 1.132.207 1.467.184.128.274.153.549.153s.365-.025.549-.153c.37-.256.537-.778.381-1.19-.07-.184-.294-.427-.487-.528-.212-.111-.728-.097-.923.024m-2.781.911c-.417.1-.725.512-.725.971 0 .623.635 1.114 1.232.954.418-.113.752-.54.752-.962 0-.414-.331-.846-.733-.958-.222-.062-.285-.062-.526-.005m-3.722 2.251a.973.973 0 0 0-.676 1.352c.404.876 1.61.775 1.871-.157a.95.95 0 0 0-.47-1.09c-.261-.131-.472-.161-.725-.105m7.543-.007c-.253.044-.382.12-.577.342-.273.311-.297.823-.054 1.181.137.203.572.449.794.449.368 0 .746-.234.904-.56.186-.385.127-.818-.15-1.111a.97.97 0 0 0-.917-.301m-4.081.872c-.6.368-.623 1.241-.043 1.651.511.36 1.2.165 1.464-.415a.97.97 0 0 0-.302-1.181c-.164-.125-.262-.155-.552-.17-.3-.014-.385.003-.567.115m7.841 1.923c-.734.166-1.293.485-1.867 1.065-.466.471-.76.973-.905 1.547a2.4 2.4 0 0 1-.1.334c-.01.011-.725-.254-1.587-.588-1.921-.746-2.168-.808-3.194-.804-.881.003-1.376.1-2.12.414-.558.236-1.29.721-1.525 1.011-.623.768-.734 1.751-.296 2.611.157.307.636.796.941.959.267.143 7.738 2.868 8.333 3.039.191.054.623.15.96.211.563.102.891.115 3.973.149l3.36.038 2.265.462c1.246.254 2.35.462 2.454.461.893-.005 1.312-1.146.633-1.727-.252-.216-.034-.161-3.165-.788l-2.187-.438-3.413-.035c-3.631-.038-3.579-.034-4.515-.317-.779-.235-7.689-2.773-7.784-2.859-.148-.133-.129-.374.042-.533.195-.18.827-.482 1.215-.581.418-.106 1.282-.104 1.701.004.308.08 2.204.818 4.296 1.673 1.545.632 1.353.6 3.818.629 2.319.026 2.64.001 2.942-.229.532-.406.511-1.243-.04-1.607l-.227-.151-2.252-.026c-2.156-.026-2.257-.032-2.371-.134a.9.9 0 0 1-.195-.284c-.172-.407.281-1.159.862-1.43.267-.124.274-.125 2.481-.125 2.429 0 2.762.029 3.636.32 1 .334 1.464.607 3.035 1.789.531.4 1.047.76 1.146.802.26.109.446.093.76-.063a.975.975 0 0 0 .444-1.341c-.124-.243-.69-.713-1.859-1.544-1.238-.878-2.07-1.31-3.124-1.617-1.095-.319-1.241-.332-3.851-.352-1.88-.013-2.469-.001-2.72.055"/></svg>