<svg xmlns="http://www.w3.org/2000/svg" width="16" height="16" fill="none"><g clip-path="url(#a)"><path fill="#1A1C1F" fill-rule="evenodd" d="M10.035 8a5.62 5.62 0 0 1 3.746 1.453l.389.381a.8.8 0 0 1-1.056 1.198l-.288-.279c-.692-.691-1.625-1.131-2.583-1.164-.957-.032-1.17.003-1.444 0a.58.58 0 0 0-.583.431c-.02.082.03.17.133.187q.102.018 2.129.197a.8.8 0 0 1 .723.87c-.038.409-.364.75-.777.726a85 85 0 0 1-2.223-.2c-.397-.042-.745-.167-1.162-.299q-.417-.133-2.632-.82c-.43-.134-.898.009-1.181.359-.047.057-.044.165.09.217l3.071 1.175a5.6 5.6 0 0 0 1.74.362l5.477.006a.8.8 0 0 1 .8.8c0 .41-.341.8-.8.8h-5.22c-.78 0-1.673-.142-2.292-.374q-.619-.232-3.38-1.284a1.733 1.733 0 0 1-.73-2.71 2.7 2.7 0 0 1 2.738-.924l1.928.59C6.901 8.701 7.698 8.051 8.656 8zm-5.03-1.8a.6.6 0 1 1 0 1.2.6.6 0 0 1 0-1.2m2.8-.6a.6.6 0 1 1 0 1.2.6.6 0 0 1 0-1.2m-5.6-.027a.6.6 0 1 1 0 1.2.6.6 0 0 1 0-1.2M5.004 4a.6.6 0 1 1 0 1.2.6.6 0 0 1 0-1.2m2.4-.4a.6.6 0 1 1 0 1.2.6.6 0 0 1 0-1.2m-4.8-.017a.6.6 0 1 1 0 1.2.6.6 0 0 1 0-1.2m2.4-1.783a.6.6 0 1 1 0 1.2.6.6 0 0 1 0-1.2m-2.01-.2a.6.6 0 1 1 0 1.2.6.6 0 0 1 0-1.2m4.01 0a.6.6 0 1 1 0 1.2.6.6 0 0 1 0-1.2" clip-rule="evenodd"/></g><defs><clipPath id="a"><path fill="#fff" d="M0 0h16v16H0z"/></clipPath></defs></svg>