<svg width="16" height="16" viewBox="0 0 16 16" fill="none" xmlns="http://www.w3.org/2000/svg"><path d="M2.820 1.638 C 2.682 1.687,2.601 1.744,2.525 1.846 C 2.294 2.158,2.402 2.571,2.758 2.737 C 2.992 2.846,3.199 2.808,3.397 2.619 C 3.670 2.357,3.664 2.029,3.380 1.769 C 3.206 1.608,3.023 1.566,2.820 1.638 M6.818 1.637 C 6.588 1.723,6.401 1.975,6.401 2.200 C 6.401 2.492,6.713 2.800,7.006 2.800 C 7.146 2.799,7.362 2.692,7.458 2.575 C 7.696 2.287,7.621 1.884,7.295 1.693 C 7.152 1.609,6.956 1.586,6.818 1.637 M4.805 1.843 C 4.757 1.857,4.660 1.925,4.588 1.994 C 4.484 2.096,4.454 2.147,4.430 2.261 C 4.370 2.547,4.485 2.800,4.732 2.920 C 4.989 3.046,5.234 3.006,5.429 2.806 C 5.859 2.363,5.409 1.669,4.805 1.843 M2.360 3.650 C 2.238 3.706,2.121 3.816,2.059 3.933 C 2.004 4.038,2.004 4.333,2.060 4.440 C 2.161 4.632,2.395 4.773,2.613 4.773 C 2.844 4.773,3.029 4.655,3.135 4.440 C 3.194 4.319,3.204 4.267,3.195 4.148 C 3.161 3.742,2.726 3.482,2.360 3.650 M7.216 3.638 C 6.998 3.719,6.801 3.985,6.801 4.200 C 6.801 4.493,7.106 4.798,7.400 4.799 C 7.545 4.800,7.760 4.695,7.858 4.575 C 8.096 4.287,8.021 3.884,7.695 3.693 C 7.551 3.608,7.356 3.586,7.216 3.638 M4.818 4.037 C 4.588 4.123,4.401 4.375,4.401 4.600 C 4.401 4.892,4.713 5.200,5.006 5.200 C 5.061 5.200,5.168 5.171,5.242 5.137 C 5.605 4.967,5.710 4.531,5.460 4.227 C 5.309 4.044,5.026 3.960,4.818 4.037 M2.023 5.609 C 1.780 5.699,1.599 5.944,1.601 6.179 C 1.602 6.466,1.916 6.774,2.206 6.773 C 2.261 6.773,2.368 6.744,2.442 6.710 C 2.805 6.541,2.910 6.104,2.660 5.801 C 2.511 5.619,2.225 5.533,2.023 5.609 M7.616 5.638 C 7.398 5.719,7.201 5.985,7.201 6.200 C 7.201 6.493,7.506 6.798,7.800 6.799 C 7.945 6.800,8.160 6.695,8.258 6.575 C 8.496 6.287,8.421 5.884,8.095 5.693 C 7.951 5.608,7.756 5.586,7.616 5.638 M4.805 6.243 C 4.757 6.257,4.660 6.325,4.588 6.394 C 4.484 6.496,4.454 6.547,4.430 6.661 C 4.370 6.947,4.485 7.200,4.732 7.320 C 4.989 7.446,5.234 7.406,5.429 7.206 C 5.859 6.763,5.409 6.069,4.805 6.243 M8.520 8.026 C 7.707 8.100,6.970 8.705,6.708 9.513 C 6.683 9.590,6.652 9.659,6.638 9.668 C 6.625 9.676,6.233 9.569,5.767 9.430 C 4.397 9.021,4.547 9.055,4.093 9.057 C 3.507 9.060,3.207 9.142,2.675 9.444 C 2.281 9.668,1.843 10.151,1.713 10.507 C 1.529 11.010,1.592 11.636,1.867 12.048 C 2.029 12.290,2.322 12.552,2.545 12.654 C 2.957 12.843,5.770 13.915,6.312 14.090 C 6.477 14.143,6.789 14.223,7.006 14.268 C 7.367 14.344,7.464 14.353,8.173 14.374 C 8.599 14.387,10.023 14.398,11.338 14.398 L 13.729 14.400 13.884 14.341 C 14.267 14.194,14.473 13.787,14.361 13.398 C 14.301 13.187,14.204 13.052,14.029 12.936 L 13.885 12.840 13.256 12.823 C 12.910 12.813,11.745 12.803,10.667 12.801 C 8.245 12.797,7.644 12.776,7.244 12.682 C 6.806 12.580,6.566 12.502,5.763 12.196 C 4.309 11.643,3.266 11.224,3.233 11.181 C 3.215 11.156,3.200 11.121,3.200 11.101 C 3.200 11.041,3.432 10.840,3.604 10.751 C 3.760 10.670,3.781 10.667,4.082 10.667 L 4.396 10.667 5.485 11.011 C 7.984 11.800,7.840 11.764,8.973 11.878 C 10.196 12.001,10.487 12.016,10.648 11.965 C 10.910 11.883,11.081 11.704,11.161 11.429 C 11.266 11.064,11.092 10.653,10.765 10.498 C 10.631 10.434,10.504 10.416,9.493 10.320 C 8.386 10.214,8.290 10.201,8.246 10.142 C 8.174 10.043,8.289 9.816,8.477 9.688 C 8.598 9.606,8.771 9.591,9.587 9.591 C 10.355 9.591,10.586 9.612,11.040 9.724 C 11.681 9.881,12.190 10.179,12.853 10.784 C 13.226 11.123,13.340 11.185,13.600 11.185 C 13.841 11.186,13.996 11.124,14.156 10.964 C 14.330 10.790,14.383 10.662,14.383 10.413 C 14.383 10.100,14.327 9.996,13.979 9.653 C 13.503 9.186,13.094 8.892,12.512 8.602 C 11.975 8.334,11.406 8.156,10.800 8.068 C 10.449 8.016,8.929 7.988,8.520 8.026 " fill="#1A1C1F" stroke="none" fill-rule="evenodd"></path></svg>