<svg width="24" height="24" viewBox="0 0 24 24" fill="none" xmlns="http://www.w3.org/2000/svg"><path d="M3.578 2.036 C 2.769 2.057,2.642 2.069,2.538 2.135 C 2.083 2.425,1.905 2.950,2.109 3.400 C 2.215 3.634,2.469 3.876,2.665 3.927 C 2.760 3.952,4.256 3.979,6.560 3.997 C 10.276 4.026,10.301 4.027,10.466 4.112 C 10.761 4.264,10.960 4.596,10.960 4.938 L 10.960 5.040 8.853 5.040 C 6.799 5.040,6.741 5.042,6.573 5.123 C 6.247 5.281,6.000 5.663,6.000 6.010 C 6.000 6.394,6.334 6.863,6.680 6.966 C 6.824 7.009,7.475 7.020,9.920 7.020 L 12.980 7.020 12.970 5.809 C 12.959 4.423,12.931 4.218,12.683 3.711 C 12.379 3.091,11.916 2.624,11.303 2.322 C 10.742 2.045,10.798 2.049,7.480 2.030 C 5.841 2.020,4.085 2.023,3.578 2.036 M6.100 8.307 C 5.959 8.345,5.762 8.520,5.680 8.681 C 5.476 9.079,5.711 9.596,6.151 9.718 C 6.335 9.769,6.345 9.769,6.529 9.718 C 6.830 9.635,7.078 9.310,7.078 9.000 C 7.078 8.797,6.951 8.548,6.780 8.418 C 6.664 8.329,6.583 8.302,6.406 8.295 C 6.282 8.290,6.144 8.295,6.100 8.307 M12.099 8.321 C 11.945 8.368,11.704 8.620,11.645 8.796 C 11.447 9.390,12.026 9.929,12.619 9.702 C 13.027 9.547,13.183 9.094,12.978 8.661 C 12.855 8.403,12.404 8.228,12.099 8.321 M9.100 8.829 C 8.962 8.862,8.762 9.039,8.680 9.201 C 8.528 9.497,8.614 9.864,8.892 10.108 C 9.377 10.534,10.145 10.081,10.069 9.412 C 10.046 9.202,9.881 8.974,9.677 8.870 C 9.548 8.804,9.281 8.785,9.100 8.829 M5.540 10.823 C 5.097 11.053,4.964 11.533,5.238 11.911 C 5.481 12.247,5.912 12.327,6.241 12.099 C 6.643 11.821,6.701 11.361,6.379 11.005 C 6.171 10.773,5.792 10.692,5.540 10.823 M12.570 10.842 C 12.377 10.902,12.179 11.121,12.125 11.335 C 11.996 11.850,12.446 12.347,12.963 12.259 C 13.328 12.198,13.637 11.805,13.583 11.471 C 13.545 11.234,13.419 11.019,13.262 10.921 C 13.101 10.821,12.764 10.783,12.570 10.842 M8.927 11.679 C 8.633 11.893,8.521 12.282,8.665 12.585 C 8.810 12.890,9.223 13.090,9.514 12.997 C 9.975 12.849,10.193 12.394,10.003 11.975 C 9.885 11.715,9.682 11.585,9.364 11.567 C 9.120 11.554,9.087 11.562,8.927 11.679 M13.749 13.720 C 13.292 13.746,13.268 13.752,12.896 13.937 C 12.246 14.260,11.663 14.899,11.438 15.537 C 11.387 15.681,11.323 15.800,11.296 15.800 C 11.269 15.800,10.820 15.647,10.298 15.459 C 8.965 14.979,8.807 14.941,8.200 14.942 C 7.595 14.944,7.241 15.031,6.700 15.313 C 6.227 15.558,5.644 16.123,5.450 16.522 C 5.016 17.415,5.171 18.388,5.859 19.101 C 6.087 19.336,6.171 19.388,6.963 19.774 C 7.911 20.236,9.338 20.889,10.115 21.216 C 10.946 21.566,11.458 21.721,12.329 21.887 C 12.769 21.971,12.885 21.973,16.987 21.989 C 21.174 22.005,21.195 22.004,21.356 21.922 C 21.748 21.722,21.960 21.413,21.960 21.042 C 21.960 20.742,21.890 20.542,21.714 20.342 C 21.425 20.014,21.739 20.037,17.040 19.997 C 14.741 19.977,12.768 19.944,12.656 19.924 C 11.952 19.795,11.229 19.544,10.146 19.053 C 8.695 18.396,7.343 17.755,7.270 17.690 C 7.120 17.557,7.239 17.331,7.572 17.114 L 7.820 16.953 8.260 16.970 L 8.700 16.987 10.380 17.608 C 12.323 18.328,12.848 18.503,13.226 18.558 C 13.677 18.624,14.528 18.681,15.420 18.706 C 16.254 18.728,16.261 18.728,16.440 18.631 C 16.791 18.442,17.037 17.980,16.978 17.623 C 16.912 17.226,16.588 16.879,16.200 16.788 C 16.145 16.775,15.533 16.726,14.840 16.680 C 14.147 16.633,13.526 16.582,13.460 16.565 C 13.183 16.495,13.283 16.068,13.636 15.820 L 13.807 15.700 14.573 15.688 C 14.995 15.681,15.727 15.692,16.200 15.713 C 17.005 15.748,17.084 15.759,17.440 15.877 C 18.243 16.144,18.676 16.407,19.811 17.317 C 20.219 17.644,20.587 17.922,20.627 17.933 C 20.845 17.995,20.980 18.001,21.180 17.960 C 21.798 17.832,22.147 17.149,21.881 16.589 C 21.812 16.443,21.668 16.293,21.265 15.947 C 20.137 14.977,19.821 14.752,19.060 14.382 C 18.283 14.004,17.538 13.791,16.740 13.720 C 16.257 13.677,14.493 13.677,13.749 13.720 " fill="#1A1C1F" stroke="none" fill-rule="evenodd"></path></svg>