<svg width="32" height="32" viewBox="0 0 32 32" fill="none" xmlns="http://www.w3.org/2000/svg"><path d="M2.533 2.661 C 2.201 2.851,2.027 3.138,2.027 3.493 C 2.027 3.939,2.289 4.306,2.693 4.427 C 2.846 4.473,4.084 4.502,7.071 4.529 L 11.234 4.567 11.604 4.773 C 12.115 5.059,12.495 5.454,12.726 5.940 C 12.959 6.431,13.010 6.874,13.012 8.413 L 13.013 9.493 11.021 9.493 L 9.028 9.493 8.999 9.053 C 8.922 7.910,8.322 7.027,7.373 6.663 C 7.076 6.549,6.999 6.545,4.876 6.539 L 2.686 6.533 2.464 6.680 C 2.152 6.887,2.009 7.186,2.037 7.577 C 2.065 7.959,2.255 8.231,2.608 8.392 C 2.838 8.497,2.968 8.506,4.749 8.532 C 7.121 8.567,6.948 8.497,7.010 9.454 C 7.061 10.232,7.306 10.723,7.843 11.118 C 8.334 11.479,8.426 11.490,11.093 11.491 C 13.393 11.492,13.416 11.491,13.720 11.369 C 14.147 11.197,14.569 10.797,14.785 10.357 L 14.960 10.002 14.959 8.081 L 14.958 6.160 14.808 5.707 C 14.352 4.332,13.334 3.263,12.012 2.769 L 11.547 2.595 9.840 2.556 C 8.901 2.535,6.933 2.515,5.467 2.512 L 2.800 2.508 2.533 2.661 M7.520 12.653 C 7.191 12.829,6.957 13.268,7.008 13.611 C 7.055 13.923,7.203 14.152,7.473 14.330 C 7.798 14.545,8.225 14.541,8.539 14.319 C 8.953 14.026,9.096 13.497,8.881 13.049 C 8.664 12.593,7.994 12.399,7.520 12.653 M13.680 12.572 C 13.495 12.616,13.230 12.851,13.120 13.068 C 12.918 13.463,13.032 13.951,13.403 14.277 C 14.050 14.845,15.073 14.241,14.972 13.350 C 14.908 12.781,14.307 12.419,13.680 12.572 M10.765 13.543 C 10.196 13.724,9.895 14.293,10.077 14.844 C 10.159 15.092,10.497 15.392,10.782 15.469 C 11.393 15.634,12.057 15.054,11.986 14.417 C 11.921 13.841,11.276 13.380,10.765 13.543 M6.760 15.894 C 6.267 16.162,6.107 16.831,6.428 17.287 C 6.650 17.604,6.890 17.732,7.258 17.732 C 7.495 17.732,7.603 17.701,7.778 17.586 C 8.358 17.201,8.384 16.327,7.825 15.957 C 7.538 15.767,7.048 15.738,6.760 15.894 M14.320 15.862 C 14.114 15.954,13.946 16.137,13.843 16.386 C 13.619 16.920,13.911 17.497,14.511 17.708 C 15.133 17.927,15.840 17.254,15.711 16.566 C 15.600 15.974,14.883 15.612,14.320 15.862 M10.586 16.604 C 10.357 16.709,10.091 17.031,10.049 17.256 C 9.956 17.753,10.156 18.162,10.600 18.381 C 10.825 18.492,10.924 18.512,11.108 18.485 C 11.416 18.438,11.646 18.290,11.824 18.021 C 12.119 17.574,11.963 16.896,11.512 16.662 C 11.281 16.543,10.788 16.512,10.586 16.604 M18.693 18.557 C 17.864 18.616,17.198 18.931,16.539 19.579 C 16.058 20.052,15.795 20.462,15.599 21.048 L 15.435 21.537 13.910 20.960 C 11.834 20.175,11.687 20.141,10.508 20.173 C 9.676 20.196,9.523 20.215,9.120 20.345 C 8.183 20.647,7.193 21.272,6.881 21.758 C 6.573 22.239,6.486 22.532,6.486 23.093 C 6.487 23.702,6.612 24.076,6.955 24.498 C 7.332 24.961,7.595 25.118,8.651 25.514 C 10.439 26.184,14.575 27.684,15.440 27.976 C 16.875 28.461,17.024 28.476,20.960 28.535 L 24.347 28.585 26.464 29.010 C 28.959 29.511,29.049 29.525,29.297 29.443 C 29.861 29.257,30.126 28.631,29.873 28.080 C 29.757 27.827,29.638 27.713,29.378 27.604 C 29.273 27.560,28.110 27.306,26.793 27.040 L 24.400 26.555 20.960 26.505 C 17.205 26.450,17.130 26.444,16.160 26.119 C 14.074 25.421,8.632 23.384,8.547 23.269 C 8.364 23.024,8.579 22.764,9.209 22.466 C 10.003 22.091,11.001 22.031,11.813 22.312 C 12.247 22.461,14.139 23.203,15.780 23.867 C 16.407 24.121,17.091 24.367,17.300 24.414 C 17.614 24.485,18.069 24.500,19.920 24.503 C 22.107 24.507,22.166 24.504,22.409 24.391 C 22.774 24.223,22.960 23.920,22.958 23.497 C 22.957 23.111,22.844 22.890,22.543 22.681 L 22.336 22.538 20.115 22.507 C 18.500 22.484,17.861 22.458,17.774 22.410 C 17.615 22.321,17.493 22.076,17.493 21.841 C 17.493 21.471,17.849 20.962,18.287 20.705 L 18.533 20.560 20.880 20.560 C 23.436 20.561,23.643 20.578,24.507 20.866 C 25.388 21.159,26.044 21.541,27.387 22.542 C 28.538 23.400,28.692 23.493,28.960 23.493 C 29.425 23.494,29.900 23.105,29.957 22.676 C 30.031 22.130,29.833 21.854,28.815 21.086 C 26.739 19.518,25.208 18.789,23.627 18.616 C 23.043 18.552,19.390 18.508,18.693 18.557 " fill="#1A1C1F" stroke="none" fill-rule="evenodd"></path></svg>