<svg width="12" height="12" viewBox="0 0 12 12" fill="none" xmlns="http://www.w3.org/2000/svg"><path d="M2.069 1.246 C 1.775 1.387,1.712 1.733,1.939 1.961 C 2.124 2.145,2.373 2.144,2.558 1.958 C 2.743 1.774,2.743 1.525,2.558 1.343 C 2.412 1.200,2.238 1.165,2.069 1.246 M5.117 1.227 C 4.935 1.294,4.799 1.478,4.800 1.654 C 4.802 1.866,5.030 2.098,5.238 2.100 C 5.481 2.101,5.700 1.886,5.700 1.646 C 5.700 1.364,5.375 1.130,5.117 1.227 M3.604 1.383 C 3.568 1.393,3.495 1.444,3.441 1.496 C 3.326 1.608,3.291 1.725,3.322 1.889 C 3.349 2.036,3.418 2.127,3.552 2.192 C 3.744 2.286,3.925 2.256,4.072 2.104 C 4.394 1.772,4.057 1.252,3.604 1.383 M1.770 2.738 C 1.567 2.831,1.475 3.018,1.522 3.242 C 1.540 3.329,1.562 3.367,1.637 3.440 C 1.870 3.667,2.212 3.614,2.351 3.330 C 2.395 3.239,2.403 3.200,2.396 3.111 C 2.371 2.806,2.044 2.612,1.770 2.738 M5.413 2.728 C 5.241 2.792,5.101 2.982,5.101 3.150 C 5.101 3.365,5.327 3.598,5.538 3.600 C 5.781 3.601,6.000 3.386,6.000 3.146 C 6.000 2.862,5.675 2.631,5.413 2.728 M3.617 3.027 C 3.435 3.094,3.299 3.278,3.300 3.454 C 3.302 3.666,3.530 3.898,3.738 3.900 C 3.978 3.901,4.200 3.686,4.200 3.450 C 4.200 3.162,3.879 2.929,3.617 3.027 M1.517 4.207 C 1.335 4.274,1.199 4.458,1.200 4.634 C 1.202 4.846,1.430 5.078,1.638 5.080 C 1.878 5.081,2.100 4.866,2.100 4.630 C 2.100 4.342,1.779 4.109,1.517 4.207 M5.713 4.228 C 5.541 4.292,5.401 4.482,5.401 4.650 C 5.401 4.865,5.627 5.098,5.838 5.100 C 6.081 5.101,6.300 4.886,6.300 4.646 C 6.300 4.362,5.975 4.131,5.713 4.228 M3.604 4.683 C 3.568 4.693,3.495 4.744,3.441 4.796 C 3.326 4.908,3.291 5.025,3.322 5.189 C 3.349 5.336,3.418 5.427,3.552 5.492 C 3.744 5.586,3.925 5.556,4.072 5.404 C 4.394 5.072,4.057 4.552,3.604 4.683 M6.390 6.019 C 5.781 6.075,5.228 6.529,5.031 7.135 C 5.012 7.192,4.989 7.245,4.979 7.251 C 4.969 7.257,4.675 7.177,4.325 7.073 C 3.298 6.766,3.410 6.791,3.070 6.793 C 2.724 6.794,2.556 6.825,2.318 6.927 C 2.007 7.062,1.861 7.159,1.638 7.380 C 1.459 7.557,1.413 7.616,1.343 7.760 C 1.141 8.170,1.164 8.683,1.400 9.036 C 1.522 9.217,1.741 9.414,1.908 9.491 C 2.218 9.632,4.328 10.436,4.734 10.567 C 4.858 10.607,5.092 10.667,5.254 10.701 C 5.527 10.758,5.596 10.764,6.140 10.780 C 6.465 10.790,7.533 10.798,8.514 10.799 C 10.287 10.800,10.299 10.800,10.412 10.757 C 10.764 10.626,10.905 10.186,10.697 9.871 C 10.631 9.772,10.497 9.669,10.394 9.637 C 10.356 9.626,9.422 9.611,8.070 9.600 C 5.602 9.582,5.707 9.587,5.225 9.459 C 4.992 9.397,4.631 9.266,3.638 8.883 C 2.432 8.418,2.400 8.403,2.400 8.326 C 2.400 8.281,2.574 8.130,2.703 8.063 C 2.820 8.003,2.836 8.000,3.061 8.000 L 3.297 8.000 4.114 8.258 C 5.303 8.633,5.776 8.777,5.932 8.810 C 6.107 8.846,6.878 8.929,7.450 8.972 C 7.945 9.010,7.990 9.005,8.153 8.893 C 8.227 8.843,8.267 8.794,8.320 8.690 C 8.382 8.570,8.390 8.536,8.390 8.402 C 8.390 8.276,8.380 8.231,8.334 8.136 C 8.266 7.998,8.145 7.889,8.018 7.851 C 7.921 7.822,7.687 7.795,6.810 7.709 C 6.220 7.651,6.206 7.649,6.180 7.599 C 6.134 7.514,6.247 7.319,6.385 7.248 C 6.468 7.205,7.039 7.174,7.450 7.190 C 8.418 7.228,8.928 7.436,9.637 8.086 C 9.751 8.190,9.886 8.299,9.939 8.327 C 10.214 8.477,10.573 8.364,10.729 8.078 C 10.781 7.983,10.788 7.950,10.787 7.810 C 10.786 7.573,10.744 7.495,10.484 7.240 C 9.815 6.583,9.018 6.185,8.100 6.051 C 7.837 6.012,6.697 5.991,6.390 6.019 " fill="#1A1C1F" stroke="none" fill-rule="evenodd"></path></svg>