<svg xmlns="http://www.w3.org/2000/svg" width="12" height="12" fill="none"><g clip-path="url(#a)"><path fill="#1A1C1F" fill-rule="evenodd" d="M7.526 6c1.04.01 2.047.39 2.81 1.09l.291.286a.6.6 0 0 1-.792.898l-.216-.21c-.518-.518-1.218-.848-1.936-.872s-.878.002-1.084 0a.434.434 0 0 0-.437.323c-.015.061.022.127.1.14q.076.013 1.596.148a.6.6 0 0 1 .543.653c-.029.306-.274.562-.583.544-.31-.017-1.37-.119-1.667-.15-.298-.031-.559-.125-.872-.224q-.312-.099-1.974-.616a.83.83 0 0 0-.886.27c-.034.042-.033.124.068.163q.099.039 2.304.881a4.2 4.2 0 0 0 1.305.272l4.107.004a.6.6 0 0 1 .6.6c0 .308-.256.6-.6.6H6.288c-.585 0-1.255-.107-1.719-.28l-2.536-.963a1.3 1.3 0 0 1-.546-2.032A2.03 2.03 0 0 1 3.54 6.83l1.446.443c.19-.748.787-1.236 1.506-1.274zM3.753 4.65a.45.45 0 1 1 0 .9.45.45 0 0 1 0-.9m2.1-.45a.45.45 0 1 1 0 .9.45.45 0 0 1 0-.9m-4.2-.02a.45.45 0 1 1 0 .9.45.45 0 0 1 0-.9M3.753 3a.45.45 0 1 1 0 .9.45.45 0 0 1 0-.9m1.8-.3a.45.45 0 1 1 0 .9.45.45 0 0 1 0-.9m-3.6-.013a.45.45 0 1 1 0 .9.45.45 0 0 1 0-.9m1.8-1.337a.45.45 0 1 1 0 .9.45.45 0 0 1 0-.9M2.247 1.2a.45.45 0 1 1 0 .9.45.45 0 0 1 0-.9m3.006 0a.45.45 0 1 1 0 .9.45.45 0 0 1 0-.9" clip-rule="evenodd"/></g><defs><clipPath id="a"><path fill="#fff" d="M0 0h12v12H0z"/></clipPath></defs></svg>