<svg width="20" height="20" viewBox="0 0 20 20" fill="none" xmlns="http://www.w3.org/2000/svg"><path d="M3.448 2.077 C 3.066 2.260,2.904 2.669,3.069 3.033 C 3.161 3.235,3.251 3.327,3.450 3.421 C 3.739 3.557,4.026 3.502,4.264 3.264 C 4.572 2.957,4.571 2.541,4.263 2.239 C 4.020 2.000,3.730 1.942,3.448 2.077 M8.528 2.044 C 8.226 2.157,7.999 2.463,8.001 2.757 C 8.003 3.121,8.384 3.498,8.750 3.499 C 8.931 3.499,9.200 3.368,9.323 3.219 C 9.620 2.859,9.527 2.355,9.119 2.116 C 8.942 2.013,8.695 1.982,8.528 2.044 M6.007 2.304 C 5.946 2.322,5.824 2.407,5.736 2.493 C 5.544 2.679,5.484 2.875,5.536 3.149 C 5.582 3.393,5.697 3.544,5.920 3.653 C 6.240 3.810,6.538 3.762,6.777 3.517 C 7.323 2.954,6.770 2.084,6.007 2.304 M2.967 4.553 C 2.832 4.611,2.647 4.780,2.585 4.900 C 2.341 5.376,2.719 5.967,3.268 5.967 C 3.692 5.967,4.028 5.603,3.993 5.182 C 3.952 4.687,3.416 4.359,2.967 4.553 M9.021 4.547 C 8.748 4.648,8.501 4.982,8.501 5.250 C 8.501 5.619,8.880 5.998,9.250 5.999 C 9.431 5.999,9.700 5.868,9.823 5.719 C 10.120 5.359,10.027 4.855,9.619 4.616 C 9.439 4.511,9.195 4.482,9.021 4.547 M6.028 5.045 C 5.726 5.157,5.499 5.463,5.501 5.757 C 5.503 6.121,5.884 6.498,6.250 6.499 C 6.431 6.499,6.700 6.368,6.823 6.219 C 7.206 5.755,6.923 5.088,6.313 5.018 C 6.213 5.007,6.103 5.017,6.028 5.045 M2.528 7.011 C 2.226 7.124,1.999 7.430,2.001 7.724 C 2.003 8.084,2.387 8.465,2.750 8.466 C 2.823 8.466,2.959 8.431,3.052 8.387 C 3.507 8.176,3.638 7.630,3.325 7.251 C 3.138 7.024,2.782 6.917,2.528 7.011 M9.521 7.047 C 9.248 7.148,9.001 7.482,9.001 7.750 C 9.001 8.119,9.380 8.498,9.750 8.499 C 9.931 8.499,10.200 8.368,10.323 8.219 C 10.620 7.859,10.527 7.355,10.119 7.116 C 9.939 7.011,9.695 6.982,9.521 7.047 M6.007 7.804 C 5.946 7.822,5.824 7.907,5.736 7.993 C 5.544 8.179,5.484 8.375,5.536 8.649 C 5.582 8.893,5.697 9.044,5.920 9.153 C 6.240 9.310,6.538 9.262,6.777 9.017 C 7.323 8.454,6.770 7.584,6.007 7.804 M10.650 10.032 C 9.634 10.125,8.713 10.881,8.385 11.891 C 8.354 11.987,8.315 12.074,8.298 12.085 C 8.281 12.095,7.791 11.961,7.209 11.788 C 5.497 11.277,5.683 11.318,5.117 11.321 C 4.540 11.324,4.259 11.374,3.864 11.545 C 3.345 11.770,3.102 11.931,2.730 12.300 C 2.432 12.596,2.356 12.694,2.238 12.933 C 1.979 13.459,1.937 14.026,2.115 14.589 C 2.222 14.927,2.398 15.194,2.706 15.484 C 2.993 15.755,3.061 15.788,4.467 16.333 C 7.304 17.435,7.997 17.677,8.755 17.835 C 9.209 17.930,9.329 17.941,10.217 17.967 C 10.748 17.983,12.528 17.997,14.172 17.998 L 17.161 18.000 17.355 17.926 C 17.829 17.745,18.085 17.246,17.956 16.755 C 17.889 16.499,17.758 16.317,17.537 16.170 L 17.356 16.050 16.570 16.028 C 16.137 16.016,14.688 16.004,13.350 16.001 C 10.313 15.995,9.551 15.969,9.055 15.853 C 8.507 15.725,8.208 15.627,7.204 15.245 C 5.386 14.553,4.083 14.030,4.042 13.976 C 4.019 13.946,4.000 13.901,4.000 13.876 C 4.000 13.801,4.290 13.549,4.505 13.439 C 4.700 13.338,4.727 13.333,5.103 13.333 L 5.496 13.333 6.540 13.665 C 8.359 14.242,9.641 14.632,9.883 14.682 C 10.158 14.738,10.742 14.806,11.733 14.898 C 13.218 15.035,13.308 15.030,13.607 14.811 C 13.843 14.639,13.983 14.336,13.983 14.001 C 13.983 13.793,13.967 13.717,13.890 13.559 C 13.777 13.330,13.576 13.148,13.364 13.086 C 13.202 13.037,12.811 12.991,11.350 12.848 C 10.366 12.752,10.343 12.748,10.299 12.666 C 10.222 12.522,10.412 12.198,10.644 12.078 C 10.784 12.005,11.711 11.956,12.417 11.984 C 14.034 12.046,14.877 12.392,16.061 13.477 C 16.251 13.651,16.477 13.832,16.564 13.879 C 17.024 14.129,17.622 13.941,17.882 13.464 C 17.967 13.306,17.980 13.250,17.979 13.017 C 17.978 12.625,17.909 12.494,17.473 12.066 C 16.878 11.482,16.367 11.116,15.640 10.753 C 14.969 10.418,14.257 10.195,13.500 10.084 C 13.061 10.020,11.161 9.985,10.650 10.032 " fill="#1A1C1F" stroke="none" fill-rule="evenodd"></path></svg>