<svg width="14" height="14" viewBox="0 0 14 14" fill="none" xmlns="http://www.w3.org/2000/svg"><path d="M2.413 1.456 C 2.094 1.604,2.004 1.986,2.224 2.253 C 2.309 2.356,2.497 2.449,2.620 2.450 C 2.877 2.450,3.149 2.180,3.149 1.925 C 3.149 1.663,2.874 1.400,2.602 1.400 C 2.563 1.400,2.478 1.425,2.413 1.456 M5.970 1.431 C 5.758 1.510,5.599 1.724,5.601 1.930 C 5.602 2.181,5.876 2.450,6.130 2.450 C 6.253 2.449,6.441 2.356,6.526 2.253 C 6.734 2.001,6.669 1.649,6.383 1.481 C 6.259 1.409,6.086 1.388,5.970 1.431 M4.201 1.617 C 4.156 1.631,4.071 1.691,4.011 1.749 C 3.881 1.875,3.840 2.015,3.875 2.204 C 3.907 2.374,3.988 2.481,4.140 2.555 C 4.366 2.666,4.580 2.630,4.750 2.455 C 5.128 2.066,4.725 1.450,4.201 1.617 M2.065 3.194 C 1.863 3.286,1.764 3.442,1.766 3.664 C 1.767 3.844,1.805 3.931,1.936 4.042 C 2.207 4.275,2.588 4.200,2.743 3.885 C 2.794 3.779,2.804 3.733,2.795 3.629 C 2.766 3.274,2.385 3.047,2.065 3.194 M6.312 3.184 C 6.260 3.203,6.169 3.269,6.110 3.332 C 5.893 3.558,5.900 3.823,6.128 4.041 C 6.301 4.207,6.482 4.240,6.687 4.144 C 6.932 4.030,7.055 3.764,6.973 3.521 C 6.884 3.253,6.565 3.090,6.312 3.184 M4.220 3.531 C 4.008 3.610,3.849 3.824,3.851 4.030 C 3.852 4.281,4.126 4.550,4.380 4.550 C 4.503 4.549,4.691 4.456,4.776 4.353 C 5.044 4.028,4.846 3.562,4.419 3.513 C 4.349 3.505,4.272 3.512,4.220 3.531 M1.766 4.909 C 1.565 4.984,1.401 5.205,1.401 5.402 C 1.401 5.657,1.673 5.927,1.930 5.926 C 1.979 5.926,2.072 5.901,2.137 5.871 C 2.455 5.723,2.546 5.341,2.328 5.076 C 2.196 4.915,1.947 4.842,1.766 4.909 M6.662 4.934 C 6.610 4.953,6.519 5.019,6.460 5.082 C 6.243 5.308,6.250 5.573,6.478 5.791 C 6.651 5.957,6.832 5.990,7.037 5.894 C 7.282 5.780,7.405 5.514,7.323 5.271 C 7.234 5.003,6.915 4.840,6.662 4.934 M4.201 5.467 C 4.156 5.481,4.071 5.541,4.011 5.599 C 3.881 5.725,3.840 5.865,3.875 6.054 C 3.907 6.224,3.988 6.331,4.140 6.405 C 4.366 6.516,4.580 6.480,4.750 6.305 C 5.128 5.916,4.725 5.300,4.201 5.467 M7.455 7.022 C 6.744 7.088,6.099 7.617,5.869 8.324 C 5.848 8.391,5.820 8.452,5.809 8.459 C 5.797 8.466,5.454 8.373,5.046 8.251 C 3.848 7.894,3.978 7.923,3.582 7.925 C 3.178 7.927,2.982 7.962,2.705 8.082 C 2.383 8.221,2.171 8.356,1.956 8.560 C 1.709 8.794,1.565 9.002,1.478 9.253 C 1.421 9.418,1.414 9.471,1.414 9.730 C 1.415 9.983,1.423 10.047,1.478 10.212 C 1.557 10.451,1.680 10.637,1.894 10.839 C 2.095 11.028,2.143 11.051,3.127 11.433 C 4.974 12.151,5.541 12.354,5.958 12.447 C 6.571 12.585,6.466 12.580,9.336 12.593 C 11.779 12.605,11.996 12.603,12.105 12.567 C 12.348 12.486,12.525 12.292,12.580 12.047 C 12.640 11.776,12.511 11.469,12.270 11.315 L 12.146 11.235 11.586 11.220 C 11.277 11.211,10.258 11.203,9.322 11.201 C 8.385 11.199,7.393 11.188,7.117 11.178 C 6.368 11.150,6.158 11.096,4.853 10.598 C 3.554 10.103,2.859 9.822,2.829 9.783 C 2.813 9.762,2.800 9.730,2.800 9.713 C 2.800 9.661,3.003 9.485,3.154 9.407 C 3.290 9.337,3.309 9.333,3.572 9.333 L 3.848 9.333 4.765 9.623 C 6.846 10.281,6.863 10.286,7.397 10.346 C 8.409 10.461,9.173 10.514,9.301 10.480 C 9.811 10.340,9.966 9.622,9.560 9.275 C 9.401 9.139,9.373 9.134,7.945 8.994 C 7.256 8.926,7.240 8.923,7.210 8.866 C 7.156 8.766,7.288 8.538,7.448 8.456 C 7.546 8.405,8.196 8.369,8.680 8.388 C 9.821 8.431,10.412 8.672,11.243 9.434 C 11.565 9.729,11.672 9.786,11.900 9.787 C 12.111 9.788,12.246 9.734,12.387 9.593 C 12.539 9.441,12.585 9.330,12.585 9.112 C 12.585 8.838,12.537 8.746,12.231 8.446 C 11.815 8.037,11.457 7.781,10.948 7.527 C 10.478 7.292,9.979 7.136,9.450 7.059 C 9.142 7.014,7.810 6.990,7.455 7.022 " fill="#1A1C1F" stroke="none" fill-rule="evenodd"></path></svg>