<svg width="12" height="12" viewBox="0 0 12 12" fill="none" xmlns="http://www.w3.org/2000/svg"><path d="M5.702 1.222 C 5.388 1.259,5.014 1.392,4.736 1.566 C 4.193 1.906,3.786 2.487,3.658 3.107 C 3.610 3.343,3.606 3.833,3.651 4.051 C 3.821 4.875,4.403 5.566,5.160 5.841 C 5.496 5.964,5.637 5.988,6.010 5.987 C 6.310 5.987,6.372 5.981,6.540 5.936 C 6.939 5.828,7.239 5.680,7.522 5.448 C 8.295 4.816,8.592 3.768,8.270 2.807 C 7.987 1.966,7.117 1.282,6.264 1.231 C 6.157 1.224,6.020 1.216,5.960 1.212 C 5.900 1.208,5.784 1.213,5.702 1.222 M3.690 7.218 C 3.219 7.231,3.207 7.232,3.034 7.294 C 2.490 7.487,2.088 7.890,1.890 8.440 C 1.820 8.636,1.802 8.897,1.801 9.718 C 1.800 10.326,1.801 10.348,1.844 10.434 C 1.912 10.570,2.005 10.667,2.136 10.736 L 2.256 10.800 6.001 10.800 L 9.746 10.800 9.834 10.756 C 9.971 10.688,10.067 10.594,10.138 10.461 L 10.203 10.339 10.195 9.525 L 10.188 8.710 10.135 8.537 C 10.030 8.197,9.897 7.964,9.687 7.752 C 9.527 7.591,9.366 7.481,9.119 7.361 C 8.940 7.275,8.884 7.258,8.730 7.241 C 8.515 7.219,4.377 7.199,3.690 7.218 " fill="#1A1C1F" stroke="none" fill-rule="evenodd"></path></svg>