<svg width="20" height="20" viewBox="0 0 20 20" fill="none" xmlns="http://www.w3.org/2000/svg"><path d="M9.483 2.036 C 7.943 2.246,6.656 3.334,6.190 4.821 C 6.066 5.215,6.019 5.540,6.020 5.983 C 6.021 6.635,6.162 7.227,6.451 7.800 C 7.262 9.408,9.087 10.282,10.836 9.901 C 12.621 9.512,13.901 7.995,13.989 6.165 C 14.074 4.412,13.044 2.888,11.342 2.246 C 10.827 2.051,10.029 1.961,9.483 2.036 M10.500 4.072 C 11.128 4.220,11.707 4.773,11.908 5.417 C 12.010 5.743,12.010 6.257,11.909 6.583 C 11.718 7.196,11.238 7.690,10.647 7.883 C 9.879 8.134,9.141 7.950,8.571 7.366 C 8.023 6.804,7.868 5.933,8.188 5.204 C 8.463 4.578,9.060 4.126,9.750 4.021 C 9.888 4.000,10.319 4.030,10.500 4.072 M6.167 12.030 C 5.393 12.052,5.379 12.054,5.059 12.163 C 4.149 12.475,3.467 13.155,3.172 14.045 C 3.007 14.541,2.993 14.719,3.006 16.062 C 3.018 17.256,3.020 17.287,3.094 17.426 C 3.328 17.869,3.816 18.087,4.275 17.954 C 4.520 17.883,4.713 17.729,4.862 17.486 L 4.983 17.289 5.003 16.003 C 5.021 14.856,5.029 14.704,5.083 14.600 C 5.188 14.395,5.337 14.233,5.512 14.132 L 5.683 14.034 9.993 14.034 C 14.266 14.033,14.304 14.034,14.436 14.101 C 14.609 14.190,14.811 14.393,14.905 14.574 C 14.977 14.712,14.980 14.755,14.998 16.003 L 15.017 17.289 15.138 17.486 C 15.287 17.729,15.480 17.883,15.725 17.954 C 16.207 18.094,16.683 17.866,16.929 17.376 C 16.998 17.241,17.000 17.193,17.000 16.010 C 16.999 14.689,16.984 14.515,16.830 14.050 C 16.673 13.578,16.496 13.297,16.117 12.914 C 15.728 12.523,15.398 12.314,14.903 12.146 L 14.583 12.037 10.767 12.023 C 8.667 12.014,6.598 12.018,6.167 12.030 " fill="#1A1C1F" stroke="none" fill-rule="evenodd"></path></svg>