<svg width="16" height="16" viewBox="0 0 16 16" fill="none" xmlns="http://www.w3.org/2000/svg"><path d="M7.596 1.626 C 6.890 1.716,6.140 2.103,5.666 2.622 C 4.861 3.503,4.605 4.700,4.983 5.816 C 5.266 6.652,5.842 7.297,6.647 7.680 C 7.003 7.850,7.319 7.939,7.695 7.976 C 9.175 8.120,10.561 7.217,11.034 5.800 C 11.285 5.049,11.250 4.271,10.930 3.504 C 10.759 3.093,10.334 2.556,9.951 2.267 C 9.616 2.014,9.089 1.772,8.667 1.678 C 8.406 1.619,7.857 1.592,7.596 1.626 M8.400 3.258 C 8.905 3.377,9.365 3.816,9.527 4.333 C 9.608 4.594,9.608 5.005,9.527 5.267 C 9.375 5.756,8.990 6.152,8.517 6.307 C 7.917 6.503,7.321 6.361,6.881 5.917 C 6.614 5.648,6.476 5.362,6.428 4.985 C 6.322 4.140,6.937 3.348,7.800 3.217 C 7.910 3.200,8.255 3.224,8.400 3.258 M4.933 9.626 C 4.497 9.640,4.266 9.658,4.173 9.686 C 3.368 9.931,2.788 10.481,2.537 11.236 C 2.406 11.633,2.394 11.775,2.405 12.849 C 2.414 13.805,2.416 13.829,2.475 13.941 C 2.662 14.295,3.053 14.470,3.420 14.363 C 3.616 14.306,3.770 14.183,3.890 13.989 L 3.987 13.831 4.003 12.802 C 4.018 11.812,4.021 11.769,4.077 11.659 C 4.150 11.515,4.312 11.352,4.451 11.281 C 4.557 11.227,4.587 11.227,8.000 11.227 C 11.413 11.227,11.443 11.227,11.549 11.281 C 11.687 11.352,11.849 11.514,11.924 11.659 C 11.983 11.770,11.985 11.802,11.999 12.802 L 12.013 13.832 12.110 13.989 C 12.345 14.371,12.769 14.499,13.163 14.306 C 13.311 14.234,13.444 14.094,13.544 13.907 C 13.598 13.804,13.600 13.767,13.600 12.814 C 13.600 11.751,13.588 11.612,13.464 11.240 C 13.338 10.861,13.197 10.637,12.893 10.332 C 12.620 10.058,12.403 9.908,12.093 9.779 C 11.717 9.623,11.900 9.632,8.600 9.619 C 6.928 9.612,5.278 9.615,4.933 9.626 " fill="#1A1C1F" stroke="none" fill-rule="evenodd"></path></svg>