<svg width="20" height="20" viewBox="0 0 20 20" fill="none" xmlns="http://www.w3.org/2000/svg"><path d="M6.238 3.101 C 5.691 3.253,5.252 3.518,4.842 3.944 C 4.540 4.260,4.321 4.608,4.160 5.031 L 4.051 5.317 4.051 6.000 L 4.051 6.683 4.160 6.969 C 4.509 7.884,5.205 8.564,6.092 8.854 C 6.371 8.946,6.409 8.950,7.017 8.950 C 7.607 8.950,7.664 8.944,7.848 8.870 C 8.101 8.768,8.338 8.548,8.433 8.326 C 8.540 8.077,8.541 7.738,8.435 7.519 C 8.334 7.311,8.156 7.133,7.951 7.034 C 7.810 6.966,7.751 6.957,7.470 6.967 C 6.857 6.988,6.756 6.982,6.597 6.910 C 6.108 6.691,5.872 6.046,6.110 5.579 C 6.260 5.285,6.476 5.116,6.810 5.032 C 6.933 5.001,7.026 5.004,7.298 5.050 C 7.630 5.105,7.638 5.105,7.872 5.034 C 8.308 4.902,8.575 4.536,8.570 4.075 C 8.566 3.606,8.335 3.305,7.841 3.127 C 7.683 3.070,7.550 3.056,7.067 3.046 C 6.558 3.035,6.452 3.042,6.238 3.101 M12.238 3.103 C 11.698 3.248,11.254 3.516,10.842 3.944 C 10.540 4.260,10.321 4.608,10.160 5.031 L 10.051 5.317 10.051 6.000 L 10.051 6.683 10.160 6.969 C 10.509 7.884,11.205 8.564,12.092 8.854 C 12.370 8.946,12.411 8.950,13.000 8.950 C 13.589 8.950,13.630 8.946,13.908 8.854 C 14.808 8.560,15.539 7.834,15.852 6.927 C 15.940 6.673,15.949 6.603,15.960 6.078 C 15.969 5.635,15.960 5.460,15.920 5.301 C 15.638 4.201,14.724 3.305,13.660 3.086 C 13.284 3.009,12.557 3.018,12.238 3.103 M13.457 5.137 C 13.814 5.308,13.967 5.574,13.967 6.024 C 13.967 6.219,13.950 6.302,13.883 6.433 C 13.777 6.644,13.597 6.823,13.403 6.912 C 13.180 7.014,12.807 7.009,12.587 6.901 C 11.971 6.600,11.823 5.777,12.300 5.300 C 12.605 4.995,13.033 4.935,13.457 5.137 M5.133 10.033 C 4.469 10.068,4.049 10.189,3.523 10.496 C 2.852 10.888,2.367 11.545,2.130 12.383 C 2.040 12.703,1.993 13.743,2.006 15.150 C 2.017 16.241,2.017 16.251,2.099 16.415 C 2.310 16.842,2.785 17.074,3.230 16.968 C 3.450 16.915,3.743 16.702,3.853 16.515 C 3.970 16.314,3.993 16.020,4.027 14.283 L 4.054 12.883 4.140 12.696 C 4.307 12.331,4.609 12.100,4.983 12.053 C 5.075 12.041,5.450 12.018,5.817 12.000 C 6.183 11.983,6.541 11.952,6.612 11.932 C 6.768 11.887,7.007 11.673,7.125 11.472 C 7.192 11.357,7.215 11.266,7.227 11.062 C 7.241 10.818,7.234 10.783,7.136 10.584 C 7.030 10.368,6.860 10.196,6.650 10.092 C 6.524 10.030,5.766 10.000,5.133 10.033 M10.591 10.085 C 9.300 10.323,8.357 11.268,8.080 12.600 C 8.028 12.848,8.021 13.092,8.019 14.567 L 8.017 16.250 8.094 16.406 C 8.192 16.606,8.394 16.808,8.594 16.906 C 8.806 17.011,9.182 17.013,9.405 16.911 C 9.606 16.819,9.799 16.624,9.911 16.399 L 10.000 16.220 10.002 15.102 C 10.003 14.487,10.015 13.735,10.030 13.431 C 10.053 12.943,10.066 12.858,10.141 12.694 C 10.254 12.447,10.434 12.254,10.650 12.148 C 10.916 12.019,11.477 11.990,13.383 12.009 C 14.898 12.025,14.995 12.029,15.205 12.096 C 15.501 12.191,15.723 12.389,15.850 12.673 C 15.937 12.866,15.947 12.930,15.970 13.450 C 15.984 13.762,15.997 14.512,15.998 15.118 L 16.000 16.220 16.089 16.399 C 16.201 16.624,16.394 16.819,16.595 16.911 C 16.818 17.013,17.194 17.011,17.406 16.906 C 17.606 16.808,17.805 16.609,17.905 16.408 C 17.982 16.253,17.984 16.228,17.994 15.150 C 18.007 13.743,17.960 12.703,17.870 12.383 C 17.542 11.226,16.760 10.445,15.600 10.115 C 15.400 10.058,15.206 10.053,13.117 10.045 C 11.269 10.039,10.802 10.046,10.591 10.085 " fill="#1A1C1F" stroke="none" fill-rule="evenodd"></path></svg>