<svg width="32" height="32" viewBox="0 0 32 32" fill="none" xmlns="http://www.w3.org/2000/svg"><path d="M15.093 2.077 C 13.222 2.279,11.312 3.462,10.188 5.118 C 9.712 5.819,9.275 6.893,9.110 7.764 C 9.068 7.983,9.041 8.512,9.042 9.067 C 9.044 9.897,9.060 10.063,9.187 10.569 C 9.531 11.943,10.147 13.031,11.121 13.986 C 11.920 14.769,12.814 15.311,13.866 15.650 C 14.680 15.913,15.018 15.962,16.000 15.962 C 16.982 15.962,17.320 15.913,18.134 15.650 C 20.476 14.895,22.196 13.026,22.815 10.563 C 22.942 10.058,22.957 9.901,22.958 9.040 C 22.958 8.321,22.935 7.969,22.864 7.639 C 22.284 4.930,20.230 2.810,17.600 2.208 C 16.972 2.064,15.786 2.002,15.093 2.077 M17.015 4.133 C 18.428 4.371,19.781 5.433,20.479 6.853 C 20.877 7.661,20.932 7.920,20.932 8.987 C 20.933 10.016,20.881 10.283,20.539 11.013 C 20.116 11.917,19.499 12.645,18.712 13.173 C 17.103 14.250,14.897 14.249,13.284 13.170 C 12.496 12.643,11.887 11.924,11.462 11.017 C 11.118 10.283,11.067 10.017,11.068 8.987 C 11.068 7.945,11.122 7.682,11.489 6.907 C 12.019 5.786,13.043 4.803,14.123 4.378 C 14.404 4.267,15.106 4.078,15.387 4.037 C 15.631 4.002,16.564 4.057,17.015 4.133 M9.413 16.592 C 9.237 16.618,8.889 16.697,8.639 16.768 C 6.624 17.344,5.108 18.850,4.400 20.979 C 4.029 22.095,4.032 22.050,4.029 25.870 L 4.027 29.314 4.173 29.536 C 4.507 30.040,5.236 30.128,5.672 29.717 C 5.755 29.638,5.869 29.484,5.925 29.375 C 6.020 29.190,6.027 29.033,6.029 26.869 C 6.031 25.599,6.052 23.996,6.077 23.307 C 6.117 22.153,6.132 22.019,6.264 21.627 C 6.456 21.057,6.768 20.471,7.090 20.073 C 7.716 19.300,8.942 18.645,9.896 18.575 C 10.259 18.548,10.293 18.557,10.886 18.820 C 11.944 19.289,13.262 19.673,14.400 19.843 C 14.620 19.876,15.340 19.903,16.000 19.903 C 16.660 19.903,17.380 19.876,17.600 19.843 C 18.732 19.674,20.056 19.289,21.100 18.826 C 21.795 18.518,22.026 18.494,22.653 18.670 C 23.939 19.031,24.871 19.776,25.433 20.891 C 25.825 21.671,25.874 21.920,25.923 23.413 C 25.948 24.161,25.970 25.765,25.971 26.976 C 25.974 29.348,25.971 29.328,26.260 29.645 C 26.712 30.143,27.565 30.054,27.880 29.477 C 27.965 29.323,27.975 29.062,27.990 26.693 C 27.999 25.256,27.983 23.612,27.954 23.040 C 27.907 22.121,27.882 21.932,27.731 21.413 C 27.637 21.091,27.470 20.616,27.359 20.358 C 26.357 18.032,24.110 16.533,21.623 16.533 C 21.266 16.533,21.199 16.554,20.528 16.873 C 18.849 17.671,17.599 17.976,16.002 17.977 C 14.380 17.977,13.236 17.698,11.430 16.860 L 10.726 16.533 10.230 16.540 C 9.957 16.543,9.589 16.567,9.413 16.592 " fill="#1A1C1F" stroke="none" fill-rule="evenodd"></path></svg>