<svg width="28" height="28" viewBox="0 0 28 28" fill="none" xmlns="http://www.w3.org/2000/svg"><path d="M8.680 3.549 C 7.371 3.649,5.998 4.463,5.233 5.591 C 4.180 7.143,4.112 9.160,5.058 10.771 C 5.386 11.329,6.168 12.112,6.720 12.435 C 7.157 12.691,7.975 12.989,8.447 13.064 C 9.541 13.239,10.808 12.979,11.712 12.394 C 11.984 12.218,12.064 12.137,12.142 11.962 C 12.337 11.520,12.175 11.038,11.759 10.826 C 11.475 10.681,11.288 10.707,10.728 10.967 C 10.006 11.303,9.762 11.355,9.055 11.328 C 8.361 11.301,8.057 11.210,7.547 10.877 C 6.669 10.304,6.160 9.353,6.160 8.286 C 6.160 7.767,6.243 7.422,6.487 6.923 C 6.965 5.946,8.055 5.277,9.173 5.274 C 9.681 5.273,10.008 5.353,10.607 5.628 C 11.295 5.943,11.451 5.971,11.733 5.835 C 12.137 5.640,12.335 5.253,12.231 4.861 C 12.159 4.584,12.066 4.473,11.720 4.244 C 11.164 3.876,10.376 3.608,9.730 3.567 C 9.525 3.554,9.294 3.537,9.217 3.531 C 9.140 3.524,8.898 3.532,8.680 3.549 M17.640 3.655 C 16.221 4.049,15.138 4.924,14.512 6.183 C 13.330 8.561,14.294 11.414,16.683 12.611 C 18.162 13.352,19.941 13.265,21.369 12.381 C 21.833 12.094,22.594 11.333,22.881 10.869 C 23.748 9.468,23.848 7.701,23.144 6.224 C 22.711 5.316,21.866 4.473,20.930 4.014 C 20.178 3.646,19.906 3.586,18.900 3.564 C 18.104 3.547,18.006 3.554,17.640 3.655 M19.353 5.317 C 19.725 5.371,20.425 5.702,20.777 5.991 C 21.228 6.360,21.621 6.986,21.764 7.563 C 21.859 7.947,21.861 8.653,21.768 9.048 C 21.540 10.015,20.720 10.894,19.743 11.217 C 19.417 11.324,19.280 11.344,18.838 11.344 C 17.912 11.344,17.329 11.104,16.667 10.452 C 16.038 9.833,15.735 9.040,15.794 8.167 C 15.851 7.315,16.055 6.824,16.583 6.267 C 17.359 5.447,18.218 5.153,19.353 5.317 M6.043 14.933 C 5.710 14.951,5.295 15.001,5.122 15.043 C 4.398 15.217,3.683 15.585,3.157 16.054 C 2.622 16.532,2.139 17.369,1.933 18.177 C 1.779 18.780,1.714 20.119,1.735 22.283 L 1.750 23.823 1.878 24.041 C 2.164 24.527,2.754 24.636,3.176 24.280 C 3.474 24.030,3.467 24.091,3.508 21.583 C 3.529 20.326,3.566 19.109,3.591 18.881 C 3.667 18.190,3.996 17.614,4.552 17.197 C 5.157 16.743,5.543 16.674,7.808 16.619 C 9.433 16.579,9.472 16.572,9.679 16.250 C 9.971 15.796,9.832 15.250,9.357 14.988 C 9.237 14.921,9.035 14.909,7.933 14.904 C 7.228 14.901,6.377 14.914,6.043 14.933 M15.913 14.934 C 14.892 14.971,14.503 15.055,13.790 15.396 C 13.218 15.669,12.742 16.043,12.371 16.510 C 12.012 16.963,11.849 17.271,11.640 17.896 C 11.491 18.341,11.467 18.481,11.431 19.105 C 11.368 20.184,11.375 23.681,11.441 23.900 C 11.673 24.675,12.863 24.658,13.060 23.878 C 13.095 23.739,13.114 23.105,13.114 22.041 C 13.115 20.325,13.170 18.967,13.254 18.592 C 13.444 17.744,14.218 16.963,15.075 16.754 C 15.535 16.642,17.604 16.596,20.020 16.643 L 22.377 16.690 22.721 16.812 C 23.624 17.133,24.276 17.897,24.405 18.784 C 24.430 18.963,24.465 20.055,24.480 21.210 C 24.496 22.365,24.526 23.477,24.547 23.682 C 24.583 24.036,24.595 24.063,24.771 24.227 C 25.221 24.648,25.900 24.533,26.149 23.995 C 26.245 23.788,26.251 23.698,26.265 22.283 C 26.286 20.167,26.219 18.778,26.067 18.177 C 25.775 17.026,25.079 16.095,24.080 15.521 C 23.376 15.117,22.859 14.986,21.747 14.932 C 20.814 14.886,17.202 14.888,15.913 14.934 " fill="#1A1C1F" stroke="none" fill-rule="evenodd"></path></svg>