<svg width="14" height="14" viewBox="0 0 14 14" fill="none" xmlns="http://www.w3.org/2000/svg"><path d="M4.367 2.171 C 4.004 2.271,3.686 2.457,3.424 2.722 C 3.225 2.923,3.124 3.066,3.010 3.302 C 2.839 3.657,2.818 3.769,2.828 4.252 C 2.838 4.664,2.841 4.685,2.913 4.879 C 3.147 5.501,3.609 5.963,4.221 6.184 C 4.575 6.312,5.184 6.322,5.494 6.206 C 5.977 6.023,6.119 5.419,5.763 5.063 C 5.716 5.016,5.627 4.954,5.565 4.924 C 5.466 4.875,5.426 4.870,5.217 4.877 C 4.688 4.895,4.596 4.875,4.425 4.704 C 4.280 4.559,4.216 4.403,4.215 4.198 C 4.215 4.040,4.223 4.006,4.296 3.873 C 4.391 3.700,4.531 3.590,4.732 3.532 C 4.851 3.497,4.879 3.497,5.103 3.534 C 5.342 3.573,5.348 3.573,5.511 3.524 C 5.816 3.431,6.002 3.175,5.999 2.852 C 5.996 2.524,5.834 2.313,5.489 2.189 C 5.378 2.149,5.285 2.139,4.947 2.132 C 4.590 2.124,4.517 2.129,4.367 2.171 M8.567 2.172 C 8.209 2.268,7.888 2.456,7.624 2.722 C 7.425 2.923,7.324 3.066,7.210 3.302 C 7.039 3.657,7.018 3.769,7.028 4.252 C 7.038 4.664,7.041 4.685,7.113 4.879 C 7.346 5.499,7.796 5.950,8.421 6.188 L 8.622 6.265 9.100 6.265 L 9.578 6.265 9.778 6.188 C 10.407 5.948,10.848 5.507,11.088 4.878 L 11.165 4.678 11.165 4.200 L 11.165 3.722 11.088 3.522 C 10.975 3.226,10.822 2.982,10.610 2.761 C 10.306 2.445,9.949 2.240,9.557 2.159 C 9.299 2.106,8.788 2.113,8.567 2.172 M9.420 3.596 C 9.670 3.715,9.777 3.902,9.777 4.217 C 9.777 4.353,9.765 4.412,9.718 4.503 C 9.644 4.651,9.518 4.776,9.382 4.838 C 9.226 4.910,8.965 4.906,8.811 4.831 C 8.379 4.620,8.276 4.044,8.610 3.710 C 8.824 3.496,9.123 3.454,9.420 3.596 M3.570 7.023 C 2.519 7.086,1.771 7.678,1.491 8.668 C 1.427 8.895,1.396 9.590,1.405 10.582 C 1.411 11.349,1.413 11.379,1.464 11.481 C 1.680 11.919,2.206 12.028,2.556 11.709 C 2.791 11.494,2.785 11.524,2.804 10.383 C 2.824 9.113,2.830 9.035,2.922 8.849 C 3.041 8.606,3.237 8.467,3.503 8.436 C 3.572 8.428,3.833 8.412,4.083 8.400 C 4.334 8.388,4.579 8.366,4.628 8.352 C 4.738 8.321,4.905 8.171,4.987 8.031 C 5.035 7.950,5.050 7.886,5.059 7.743 C 5.069 7.573,5.064 7.548,4.995 7.409 C 4.921 7.258,4.803 7.138,4.655 7.064 C 4.567 7.020,3.985 6.998,3.570 7.023 M7.414 7.060 C 6.560 7.217,5.948 7.787,5.694 8.662 C 5.623 8.905,5.597 9.459,5.605 10.501 C 5.612 11.360,5.613 11.377,5.666 11.485 C 5.734 11.624,5.876 11.766,6.015 11.834 C 6.164 11.908,6.427 11.909,6.583 11.838 C 6.724 11.773,6.859 11.637,6.938 11.480 L 7.000 11.354 7.001 10.571 C 7.002 10.141,7.011 9.614,7.021 9.402 C 7.037 9.060,7.046 9.000,7.099 8.886 C 7.178 8.713,7.304 8.578,7.455 8.504 C 7.641 8.413,8.034 8.393,9.368 8.407 C 10.429 8.417,10.497 8.421,10.644 8.468 C 10.851 8.534,11.006 8.672,11.095 8.871 C 11.156 9.007,11.163 9.049,11.179 9.427 C 11.189 9.651,11.198 10.177,11.198 10.595 L 11.200 11.354 11.262 11.480 C 11.341 11.637,11.476 11.773,11.617 11.838 C 11.773 11.909,12.036 11.908,12.185 11.834 C 12.324 11.766,12.466 11.624,12.534 11.485 C 12.587 11.378,12.589 11.355,12.596 10.605 C 12.605 9.620,12.572 8.892,12.509 8.668 C 12.280 7.859,11.747 7.324,10.932 7.086 C 10.775 7.040,10.702 7.038,9.182 7.032 C 7.887 7.027,7.562 7.032,7.414 7.060 " fill="#1A1C1F" stroke="none" fill-rule="evenodd"></path></svg>