<svg width="14" height="14" viewBox="0 0 14 14" fill="none" xmlns="http://www.w3.org/2000/svg"><path d="M6.646 1.423 C 5.874 1.521,5.122 1.987,4.685 2.640 C 4.368 3.111,4.213 3.623,4.214 4.188 C 4.215 4.516,4.248 4.734,4.345 5.040 C 4.687 6.117,5.611 6.860,6.759 6.981 C 7.313 7.039,7.927 6.899,8.428 6.601 C 9.798 5.784,10.217 3.958,9.334 2.650 C 8.940 2.066,8.289 1.626,7.583 1.468 C 7.355 1.417,6.875 1.393,6.646 1.423 M7.350 2.851 C 7.795 2.956,8.194 3.336,8.336 3.792 C 8.395 3.981,8.405 4.373,8.356 4.550 C 8.266 4.870,8.030 5.197,7.760 5.376 C 7.599 5.483,7.326 5.573,7.107 5.592 C 6.460 5.647,5.823 5.189,5.658 4.550 C 5.612 4.371,5.607 4.063,5.648 3.891 C 5.780 3.329,6.248 2.902,6.825 2.815 C 6.922 2.800,7.223 2.821,7.350 2.851 M4.317 8.421 C 3.777 8.436,3.765 8.438,3.547 8.513 C 3.193 8.634,3.009 8.751,2.730 9.030 C 2.452 9.308,2.331 9.498,2.219 9.835 C 2.105 10.176,2.095 10.305,2.104 11.243 C 2.112 12.079,2.114 12.101,2.166 12.198 C 2.330 12.509,2.671 12.661,2.993 12.568 C 3.164 12.518,3.299 12.410,3.404 12.240 L 3.488 12.103 3.501 11.202 L 3.513 10.302 3.581 10.178 C 3.664 10.026,3.772 9.929,3.940 9.851 L 4.068 9.793 7.034 9.805 L 10.001 9.818 10.100 9.868 C 10.226 9.933,10.367 10.073,10.433 10.202 C 10.484 10.299,10.486 10.330,10.498 11.202 L 10.512 12.103 10.596 12.240 C 10.701 12.410,10.836 12.518,11.007 12.568 C 11.345 12.666,11.678 12.506,11.851 12.163 C 11.898 12.069,11.900 12.035,11.900 11.207 C 11.900 10.282,11.889 10.160,11.781 9.835 C 11.681 9.535,11.545 9.310,11.321 9.074 C 11.043 8.780,10.747 8.596,10.372 8.483 L 10.185 8.426 7.525 8.416 C 6.062 8.410,4.618 8.413,4.317 8.421 " fill="#1A1C1F" stroke="none" fill-rule="evenodd"></path></svg>