<svg width="16" height="16" viewBox="0 0 16 16" fill="none" xmlns="http://www.w3.org/2000/svg"><path d="M7.603 1.630 C 6.656 1.740,5.738 2.343,5.251 3.177 C 5.100 3.436,4.936 3.859,4.878 4.143 C 4.813 4.457,4.808 5.111,4.868 5.402 C 5.099 6.522,5.891 7.444,6.933 7.808 C 7.343 7.951,7.550 7.986,7.987 7.986 C 8.439 7.987,8.636 7.955,9.025 7.821 C 9.518 7.650,9.886 7.421,10.255 7.054 C 10.901 6.412,11.227 5.585,11.192 4.680 C 11.158 3.824,10.867 3.156,10.268 2.559 C 9.721 2.014,9.038 1.686,8.356 1.641 C 7.863 1.609,7.795 1.607,7.603 1.630 M4.907 9.625 C 4.420 9.640,4.248 9.655,4.135 9.691 C 3.433 9.919,2.857 10.436,2.591 11.075 C 2.419 11.486,2.418 11.503,2.415 12.733 L 2.413 13.853 2.520 14.013 C 2.591 14.120,2.680 14.209,2.787 14.280 L 2.947 14.387 8.000 14.387 L 13.054 14.387 13.214 14.278 C 13.317 14.209,13.411 14.114,13.480 14.012 L 13.587 13.853 13.586 12.733 L 13.585 11.613 13.514 11.383 C 13.369 10.917,13.193 10.613,12.900 10.324 C 12.676 10.103,12.469 9.962,12.145 9.807 C 11.924 9.702,11.840 9.677,11.640 9.655 C 11.347 9.623,5.782 9.599,4.907 9.625 " fill="#1A1C1F" stroke="none" fill-rule="evenodd"></path></svg>