<svg width="12" height="12" viewBox="0 0 12 12" fill="none" xmlns="http://www.w3.org/2000/svg"><path d="M3.743 1.861 C 3.415 1.952,3.151 2.111,2.905 2.367 C 2.723 2.557,2.591 2.767,2.497 3.019 C 2.435 3.183,2.432 3.204,2.424 3.543 C 2.417 3.855,2.421 3.912,2.458 4.048 C 2.545 4.365,2.704 4.638,2.933 4.865 C 3.105 5.035,3.227 5.122,3.430 5.220 C 3.690 5.346,3.856 5.382,4.178 5.383 C 4.705 5.384,4.925 5.289,5.056 5.003 C 5.192 4.704,5.068 4.364,4.769 4.219 C 4.681 4.177,4.649 4.173,4.480 4.179 C 4.124 4.194,4.054 4.189,3.958 4.146 C 3.665 4.015,3.523 3.628,3.666 3.347 C 3.756 3.171,3.886 3.069,4.086 3.019 C 4.160 3.000,4.216 3.002,4.379 3.030 C 4.578 3.063,4.583 3.063,4.723 3.020 C 4.985 2.941,5.145 2.721,5.142 2.445 C 5.140 2.163,5.001 1.983,4.705 1.876 C 4.610 1.842,4.530 1.834,4.240 1.828 C 3.935 1.821,3.871 1.825,3.743 1.861 M7.343 1.862 C 7.019 1.949,6.752 2.110,6.505 2.367 C 6.324 2.556,6.192 2.765,6.096 3.019 L 6.031 3.190 6.031 3.580 C 6.030 3.956,6.032 3.976,6.087 4.145 C 6.264 4.685,6.699 5.124,7.244 5.311 C 7.396 5.364,7.438 5.369,7.751 5.376 C 8.132 5.384,8.219 5.369,8.498 5.252 C 9.006 5.038,9.393 4.592,9.542 4.048 C 9.579 3.912,9.583 3.855,9.576 3.543 C 9.568 3.204,9.565 3.183,9.503 3.019 C 9.409 2.767,9.277 2.557,9.095 2.367 C 8.834 2.095,8.528 1.920,8.191 1.851 C 7.971 1.805,7.533 1.811,7.343 1.862 M8.074 3.082 C 8.288 3.185,8.380 3.344,8.380 3.614 C 8.380 3.731,8.370 3.781,8.330 3.860 C 8.266 3.986,8.158 4.094,8.042 4.147 C 7.907 4.209,7.683 4.206,7.553 4.142 C 7.295 4.015,7.159 3.730,7.228 3.460 C 7.328 3.073,7.703 2.905,8.074 3.082 M3.060 6.020 C 2.514 6.052,2.099 6.232,1.750 6.588 C 1.657 6.683,1.549 6.820,1.492 6.915 C 1.381 7.103,1.271 7.405,1.240 7.610 C 1.228 7.687,1.213 8.178,1.206 8.700 C 1.192 9.837,1.189 9.813,1.387 10.009 C 1.570 10.191,1.753 10.239,1.980 10.166 C 2.112 10.124,2.278 9.975,2.342 9.845 C 2.387 9.752,2.388 9.732,2.402 8.900 C 2.420 7.812,2.426 7.745,2.504 7.585 C 2.605 7.381,2.770 7.261,2.991 7.232 C 3.045 7.225,3.270 7.211,3.490 7.200 C 3.710 7.190,3.925 7.171,3.967 7.159 C 4.061 7.132,4.204 7.004,4.275 6.883 C 4.315 6.814,4.329 6.760,4.336 6.637 C 4.345 6.491,4.341 6.470,4.282 6.350 C 4.218 6.221,4.116 6.118,3.990 6.055 C 3.914 6.017,3.416 5.998,3.060 6.020 M6.355 6.051 C 5.580 6.194,5.015 6.760,4.848 7.560 C 4.817 7.709,4.812 7.853,4.811 8.740 L 4.810 9.750 4.856 9.844 C 4.915 9.964,5.036 10.085,5.156 10.144 C 5.284 10.207,5.509 10.208,5.643 10.147 C 5.764 10.091,5.879 9.974,5.946 9.840 L 6.000 9.732 6.001 9.061 C 6.002 8.692,6.009 8.241,6.018 8.059 C 6.032 7.766,6.039 7.715,6.085 7.616 C 6.152 7.468,6.260 7.353,6.390 7.289 C 6.536 7.218,6.795 7.201,7.760 7.202 C 8.662 7.202,9.028 7.221,9.168 7.273 C 9.312 7.327,9.443 7.454,9.510 7.604 C 9.562 7.720,9.568 7.758,9.582 8.070 C 9.591 8.257,9.598 8.707,9.599 9.071 L 9.600 9.732 9.654 9.840 C 9.721 9.974,9.836 10.091,9.957 10.147 C 10.091 10.208,10.316 10.207,10.444 10.144 C 10.564 10.085,10.685 9.964,10.744 9.844 L 10.790 9.750 10.788 8.770 C 10.785 7.691,10.777 7.580,10.672 7.275 C 10.579 7.004,10.444 6.787,10.240 6.580 C 9.994 6.331,9.735 6.180,9.370 6.074 C 9.236 6.034,9.174 6.032,7.870 6.028 C 6.761 6.023,6.481 6.028,6.355 6.051 " fill="#1A1C1F" stroke="none" fill-rule="evenodd"></path></svg>