<svg width="20" height="20" viewBox="0 0 20 20" fill="none" xmlns="http://www.w3.org/2000/svg"><path d="M9.488 2.038 C 8.295 2.191,7.170 2.934,6.566 3.968 C 6.375 4.295,6.171 4.823,6.097 5.179 C 6.016 5.571,6.010 6.389,6.085 6.752 C 6.363 8.098,7.277 9.206,8.520 9.703 C 9.056 9.918,9.361 9.976,9.967 9.980 C 10.545 9.983,10.714 9.960,11.183 9.811 C 12.419 9.421,13.391 8.468,13.792 7.250 C 13.947 6.781,13.983 6.534,13.982 5.967 C 13.981 5.448,13.957 5.264,13.827 4.817 C 13.534 3.801,12.681 2.841,11.649 2.364 C 11.215 2.164,10.833 2.074,10.250 2.035 C 9.975 2.016,9.742 2.003,9.733 2.005 C 9.724 2.007,9.614 2.022,9.488 2.038 M6.150 12.030 C 5.364 12.051,5.345 12.053,5.056 12.156 C 4.151 12.478,3.480 13.150,3.151 14.067 C 3.033 14.393,3.003 14.829,3.001 16.196 C 3.000 17.210,3.002 17.247,3.074 17.390 C 3.187 17.617,3.342 17.778,3.560 17.894 L 3.759 18.000 10.001 18.000 L 16.243 18.000 16.390 17.926 C 16.618 17.813,16.778 17.657,16.896 17.435 L 17.005 17.232 16.992 15.874 L 16.980 14.517 16.891 14.229 C 16.712 13.648,16.491 13.267,16.125 12.905 C 15.845 12.629,15.587 12.453,15.181 12.259 C 14.903 12.127,14.802 12.096,14.550 12.070 C 14.193 12.032,7.298 12.000,6.150 12.030 " fill="#1A1C1F" stroke="none" fill-rule="evenodd"></path></svg>