<svg width="12" height="12" viewBox="0 0 12 12" fill="none" xmlns="http://www.w3.org/2000/svg"><path d="M3.930 1.821 C 3.236 1.929,2.677 2.422,2.468 3.110 C 2.418 3.273,2.413 3.319,2.413 3.600 C 2.413 3.881,2.418 3.927,2.468 4.089 C 2.654 4.702,3.100 5.147,3.711 5.332 C 3.868 5.380,3.925 5.386,4.180 5.388 C 4.628 5.391,4.863 5.312,4.997 5.113 C 5.084 4.983,5.110 4.901,5.110 4.750 C 5.110 4.637,5.099 4.588,5.054 4.496 C 4.946 4.276,4.720 4.146,4.485 4.168 C 4.416 4.175,4.304 4.185,4.235 4.192 C 3.833 4.230,3.513 3.830,3.628 3.435 C 3.690 3.219,3.861 3.063,4.085 3.016 C 4.181 2.996,4.226 2.998,4.377 3.028 C 4.525 3.058,4.573 3.061,4.662 3.041 C 4.956 2.978,5.147 2.746,5.148 2.449 C 5.150 2.145,4.961 1.933,4.616 1.850 C 4.458 1.812,4.088 1.796,3.930 1.821 M7.530 1.821 C 6.836 1.929,6.277 2.422,6.068 3.110 C 6.018 3.273,6.013 3.319,6.013 3.600 C 6.013 3.881,6.018 3.927,6.068 4.089 C 6.254 4.701,6.699 5.146,7.311 5.332 C 7.473 5.382,7.519 5.387,7.800 5.387 C 8.081 5.387,8.127 5.382,8.289 5.332 C 8.387 5.302,8.540 5.240,8.628 5.194 C 9.066 4.967,9.383 4.579,9.532 4.089 C 9.582 3.927,9.587 3.881,9.587 3.600 C 9.587 3.319,9.582 3.273,9.532 3.110 C 9.342 2.485,8.862 2.017,8.250 1.860 C 8.065 1.812,7.709 1.793,7.530 1.821 M8.069 3.069 C 8.278 3.171,8.389 3.355,8.390 3.600 C 8.390 3.724,8.380 3.769,8.334 3.864 C 8.199 4.139,7.879 4.266,7.594 4.160 C 7.236 4.026,7.094 3.599,7.300 3.274 C 7.459 3.022,7.792 2.933,8.069 3.069 M2.950 6.022 C 2.187 6.098,1.589 6.549,1.340 7.235 C 1.223 7.560,1.216 7.637,1.206 8.710 C 1.197 9.685,1.197 9.691,1.241 9.809 C 1.326 10.036,1.561 10.200,1.800 10.200 C 2.037 10.200,2.274 10.036,2.357 9.813 C 2.397 9.705,2.400 9.661,2.402 9.074 C 2.402 8.731,2.409 8.288,2.417 8.090 C 2.431 7.744,2.434 7.725,2.493 7.600 C 2.586 7.402,2.710 7.297,2.920 7.239 C 2.971 7.225,3.207 7.209,3.460 7.201 C 3.966 7.187,4.021 7.173,4.168 7.029 C 4.463 6.739,4.385 6.262,4.010 6.064 C 3.913 6.012,3.900 6.011,3.520 6.007 C 3.306 6.005,3.049 6.012,2.950 6.022 M6.640 6.012 C 6.262 6.054,6.073 6.102,5.851 6.214 C 5.636 6.323,5.504 6.421,5.338 6.594 C 5.094 6.850,4.941 7.145,4.854 7.530 C 4.817 7.694,4.813 7.796,4.805 8.700 C 4.797 9.684,4.797 9.691,4.841 9.809 C 4.871 9.887,4.917 9.959,4.979 10.021 C 5.269 10.311,5.754 10.231,5.934 9.864 L 5.990 9.750 6.001 8.780 C 6.012 7.866,6.015 7.803,6.054 7.684 C 6.145 7.411,6.334 7.258,6.626 7.220 C 6.830 7.193,8.779 7.195,8.972 7.222 C 9.274 7.264,9.454 7.409,9.545 7.684 C 9.585 7.803,9.588 7.868,9.599 8.780 L 9.610 9.750 9.666 9.864 C 9.846 10.231,10.331 10.311,10.621 10.021 C 10.683 9.959,10.729 9.887,10.759 9.809 C 10.803 9.691,10.803 9.685,10.794 8.710 C 10.784 7.637,10.777 7.560,10.660 7.235 C 10.437 6.619,9.916 6.179,9.253 6.047 C 9.116 6.020,8.904 6.014,7.900 6.010 C 7.245 6.007,6.679 6.008,6.640 6.012 " fill="#1A1C1F" stroke="none" fill-rule="evenodd"></path></svg>