<svg width="32" height="32" viewBox="0 0 32 32" fill="none" xmlns="http://www.w3.org/2000/svg"><path d="M9.893 4.056 C 8.408 4.181,6.848 5.112,5.980 6.390 C 4.778 8.163,4.700 10.469,5.781 12.309 C 6.155 12.947,7.049 13.843,7.680 14.212 C 8.179 14.504,9.115 14.845,9.653 14.931 C 10.904 15.130,12.353 14.833,13.385 14.165 C 13.680 13.974,13.789 13.867,13.868 13.692 C 14.110 13.161,13.920 12.615,13.403 12.353 C 13.116 12.208,12.882 12.245,12.263 12.533 C 11.948 12.679,11.550 12.835,11.379 12.880 C 10.966 12.989,10.044 12.989,9.630 12.880 C 8.096 12.475,7.040 11.093,7.040 9.487 C 7.040 8.858,7.112 8.544,7.388 7.968 C 8.056 6.577,9.623 5.798,11.177 6.085 C 11.350 6.117,11.776 6.273,12.122 6.432 C 12.909 6.792,13.087 6.824,13.409 6.669 C 13.870 6.445,14.097 6.003,13.979 5.555 C 13.896 5.241,13.790 5.112,13.406 4.858 C 12.460 4.232,11.203 3.945,9.893 4.056 M20.160 4.178 C 18.538 4.627,17.300 5.627,16.585 7.067 C 15.234 9.784,16.336 13.044,19.067 14.413 C 20.757 15.260,22.790 15.160,24.422 14.150 C 24.952 13.822,25.822 12.952,26.150 12.422 C 27.141 10.821,27.255 8.801,26.450 7.113 C 25.955 6.076,24.990 5.112,23.920 4.588 C 23.061 4.167,22.750 4.098,21.600 4.073 C 20.690 4.054,20.578 4.062,20.160 4.178 M22.118 6.077 C 22.543 6.138,23.343 6.517,23.745 6.847 C 24.260 7.269,24.709 7.984,24.873 8.643 C 24.982 9.083,24.985 9.889,24.878 10.341 C 24.618 11.446,23.680 12.450,22.564 12.819 C 22.191 12.942,22.034 12.964,21.529 12.964 C 20.483 12.964,19.816 12.694,19.066 11.967 C 18.757 11.667,18.623 11.485,18.426 11.093 C 18.103 10.448,18.006 9.995,18.050 9.333 C 18.115 8.360,18.348 7.799,18.952 7.162 C 19.839 6.226,20.821 5.889,22.118 6.077 M6.907 17.066 C 6.525 17.087,6.052 17.144,5.854 17.191 C 5.026 17.391,4.209 17.812,3.608 18.347 C 2.996 18.893,2.444 19.850,2.209 20.773 C 2.033 21.461,1.960 22.977,1.983 25.433 C 2.000 27.140,2.002 27.178,2.126 27.430 C 2.414 28.015,3.133 28.167,3.630 27.749 C 3.970 27.463,3.962 27.532,4.009 24.667 C 4.033 23.229,4.075 21.845,4.103 21.590 C 4.189 20.798,4.570 20.127,5.202 19.653 C 5.894 19.135,6.329 19.057,8.880 18.994 C 10.795 18.947,10.820 18.943,11.076 18.556 C 11.188 18.386,11.218 18.277,11.218 18.037 C 11.218 17.619,11.087 17.366,10.780 17.185 L 10.533 17.040 9.067 17.034 C 8.260 17.030,7.288 17.045,6.907 17.066 M17.787 17.069 C 16.438 17.162,15.459 17.573,14.579 18.415 C 13.906 19.059,13.562 19.624,13.256 20.587 C 13.142 20.943,13.101 21.212,13.064 21.840 C 12.992 23.059,13.000 27.064,13.075 27.315 C 13.167 27.620,13.438 27.873,13.745 27.938 C 14.306 28.058,14.801 27.783,14.928 27.281 C 14.965 27.132,14.987 26.374,14.988 25.216 C 14.989 23.258,15.053 21.672,15.147 21.253 C 15.360 20.300,16.268 19.382,17.231 19.147 C 17.753 19.020,20.123 18.967,22.880 19.021 L 25.573 19.075 25.967 19.214 C 26.999 19.581,27.744 20.454,27.891 21.467 C 27.920 21.672,27.959 22.920,27.977 24.240 C 28.023 27.548,28.026 27.573,28.507 27.848 C 29.007 28.134,29.647 27.937,29.885 27.423 C 29.994 27.186,30.001 27.084,30.017 25.467 C 30.041 23.047,29.965 21.460,29.791 20.773 C 29.457 19.457,28.650 18.379,27.520 17.741 C 26.594 17.218,26.179 17.125,24.533 17.066 C 22.964 17.011,18.608 17.013,17.787 17.069 " fill="#1A1C1F" stroke="none" fill-rule="evenodd"></path></svg>