<svg width="24" height="24" viewBox="0 0 24 24" fill="none" xmlns="http://www.w3.org/2000/svg"><path d="M11.560 2.023 C 11.505 2.032,11.325 2.060,11.160 2.085 C 10.575 2.171,9.849 2.464,9.238 2.859 C 8.227 3.513,7.481 4.573,7.142 5.840 C 7.050 6.185,7.040 6.291,7.040 6.993 C 7.040 7.825,7.075 8.046,7.306 8.690 C 7.545 9.357,7.950 9.983,8.490 10.524 C 9.088 11.122,9.822 11.555,10.700 11.827 C 11.051 11.936,11.083 11.939,12.000 11.939 C 12.917 11.939,12.949 11.936,13.300 11.827 C 15.132 11.258,16.376 9.971,16.864 8.137 C 16.961 7.773,16.965 7.713,16.951 6.907 C 16.935 5.984,16.894 5.773,16.596 5.056 C 15.986 3.592,14.579 2.440,13.013 2.122 C 12.625 2.044,11.774 1.985,11.560 2.023 M12.636 4.079 C 12.959 4.141,13.478 4.383,13.782 4.614 C 14.308 5.015,14.672 5.552,14.885 6.244 C 14.999 6.615,15.008 7.272,14.905 7.700 C 14.712 8.501,14.065 9.320,13.347 9.674 C 12.894 9.896,12.520 9.978,11.960 9.976 C 11.502 9.975,11.428 9.964,11.071 9.843 C 10.191 9.544,9.558 8.922,9.178 7.980 C 9.077 7.730,9.063 7.640,9.048 7.137 C 9.038 6.795,9.050 6.485,9.078 6.349 C 9.135 6.076,9.433 5.451,9.633 5.186 C 9.826 4.932,10.276 4.550,10.594 4.372 C 11.040 4.121,11.350 4.044,11.925 4.042 C 12.202 4.041,12.522 4.058,12.636 4.079 M7.140 13.079 C 5.634 13.260,4.248 14.273,3.560 15.697 C 3.337 16.158,3.189 16.591,3.090 17.080 C 3.029 17.375,3.020 17.675,3.020 19.360 C 3.020 21.271,3.021 21.302,3.106 21.460 C 3.294 21.808,3.574 21.967,4.000 21.967 C 4.427 21.967,4.713 21.804,4.890 21.460 C 4.967 21.308,4.974 21.201,5.007 19.402 C 5.032 18.056,5.058 17.427,5.098 17.237 C 5.218 16.660,5.581 16.025,5.974 15.703 C 6.436 15.324,7.045 15.077,7.540 15.066 C 7.794 15.061,7.871 15.081,8.380 15.286 C 9.401 15.697,10.265 15.897,11.310 15.964 C 12.869 16.065,14.217 15.852,15.660 15.277 C 16.285 15.028,16.306 15.024,16.648 15.081 C 17.519 15.226,18.231 15.730,18.613 16.472 C 18.802 16.839,18.898 17.129,18.940 17.460 C 18.953 17.570,18.979 18.479,18.996 19.480 C 19.025 21.209,19.031 21.308,19.110 21.460 C 19.288 21.805,19.573 21.967,20.000 21.967 C 20.426 21.967,20.706 21.808,20.894 21.460 C 20.979 21.302,20.980 21.273,20.978 19.360 C 20.977 17.256,20.965 17.110,20.756 16.449 C 20.130 14.475,18.489 13.177,16.464 13.054 C 15.946 13.023,15.710 13.073,15.100 13.342 C 14.501 13.607,14.129 13.729,13.597 13.836 C 11.980 14.159,10.323 13.994,8.977 13.377 C 8.435 13.127,8.250 13.077,7.820 13.061 C 7.600 13.052,7.294 13.061,7.140 13.079 " fill="#1A1C1F" stroke="none" fill-rule="evenodd"></path></svg>