<svg width="24" height="24" viewBox="0 0 24 24" fill="none" xmlns="http://www.w3.org/2000/svg"><path d="M15.520 3.047 C 14.576 3.132,13.525 3.711,12.902 4.490 C 11.711 5.979,11.710 8.021,12.900 9.508 C 13.685 10.490,14.931 11.054,16.160 10.986 C 17.842 10.893,19.260 9.832,19.775 8.280 C 20.001 7.601,20.049 7.045,19.941 6.380 C 19.780 5.391,19.273 4.505,18.531 3.916 C 17.668 3.230,16.674 2.943,15.520 3.047 M7.261 3.104 C 6.883 3.188,6.444 3.362,6.067 3.577 C 4.463 4.492,3.693 6.239,4.134 7.963 C 4.483 9.327,5.660 10.474,7.110 10.863 C 7.237 10.897,7.569 10.941,7.849 10.962 C 9.120 11.056,10.009 10.757,10.218 10.165 C 10.386 9.690,10.218 9.234,9.781 8.979 C 9.537 8.836,9.324 8.822,8.840 8.917 C 8.158 9.051,7.699 9.007,7.170 8.756 C 6.803 8.581,6.382 8.160,6.197 7.781 C 6.063 7.508,6.060 7.490,6.060 7.000 C 6.060 6.512,6.064 6.491,6.194 6.227 C 6.459 5.689,6.966 5.275,7.577 5.099 C 7.914 5.001,8.413 5.009,8.915 5.119 C 9.195 5.180,9.390 5.201,9.512 5.185 C 9.874 5.135,10.156 4.883,10.301 4.480 C 10.420 4.151,10.313 3.757,10.034 3.494 C 9.865 3.337,9.736 3.272,9.360 3.159 C 9.105 3.083,8.947 3.067,8.300 3.056 C 7.720 3.046,7.474 3.057,7.261 3.104 M16.411 5.059 C 17.428 5.274,18.122 6.282,17.959 7.305 C 17.779 8.440,16.623 9.220,15.542 8.939 C 14.297 8.615,13.661 7.249,14.226 6.118 C 14.411 5.748,14.758 5.405,15.132 5.220 C 15.579 5.000,15.927 4.956,16.411 5.059 M5.760 13.039 C 4.861 13.106,4.267 13.292,3.632 13.703 C 2.855 14.205,2.266 15.086,2.094 16.000 C 2.014 16.428,1.967 19.937,2.038 20.231 C 2.105 20.512,2.264 20.717,2.523 20.858 C 2.923 21.076,3.390 21.004,3.721 20.673 C 3.975 20.419,3.972 20.438,4.004 18.440 C 4.021 17.439,4.052 16.514,4.075 16.385 C 4.197 15.705,4.759 15.191,5.500 15.082 C 5.654 15.059,6.181 15.024,6.670 15.004 C 7.525 14.969,7.567 14.963,7.739 14.863 C 8.043 14.684,8.240 14.339,8.240 13.985 C 8.239 13.654,7.948 13.219,7.641 13.089 C 7.473 13.017,6.414 12.989,5.760 13.039 M12.923 13.124 C 12.143 13.290,11.517 13.635,11.008 14.180 C 10.640 14.573,10.403 14.980,10.221 15.528 C 10.084 15.939,10.070 16.029,10.034 16.674 C 10.012 17.058,10.000 18.022,10.007 18.816 C 10.020 20.229,10.022 20.264,10.112 20.447 C 10.248 20.723,10.562 20.940,10.893 20.985 C 11.155 21.021,11.490 20.910,11.673 20.727 C 11.977 20.423,11.969 20.474,12.006 18.440 C 12.023 17.439,12.057 16.495,12.081 16.342 C 12.107 16.171,12.168 15.985,12.241 15.858 C 12.379 15.617,12.681 15.322,12.908 15.206 C 13.220 15.047,13.463 15.035,16.160 15.049 C 19.041 15.064,18.876 15.048,19.320 15.354 C 19.613 15.556,19.860 15.954,19.920 16.320 C 19.943 16.463,19.973 17.408,19.987 18.420 C 20.014 20.488,20.002 20.407,20.326 20.721 C 20.489 20.879,20.780 21.000,20.997 21.000 C 21.335 20.999,21.739 20.749,21.887 20.449 C 21.978 20.264,21.980 20.232,21.993 18.852 C 22.000 18.077,21.988 17.114,21.967 16.710 C 21.931 16.025,21.919 15.948,21.780 15.530 C 21.596 14.978,21.358 14.564,21.010 14.195 C 20.555 13.713,20.014 13.383,19.332 13.171 L 18.980 13.062 16.140 13.053 C 13.429 13.044,13.283 13.047,12.923 13.124 " fill="#1A1C1F" stroke="none" fill-rule="evenodd"></path></svg>