<svg width="16" height="16" viewBox="0 0 16 16" fill="none" xmlns="http://www.w3.org/2000/svg"><path d="M5.013 2.477 C 4.175 2.712,3.580 3.278,3.308 4.099 L 3.222 4.357 3.233 4.852 C 3.243 5.331,3.246 5.354,3.329 5.576 C 3.600 6.297,4.159 6.847,4.859 7.079 C 5.265 7.214,5.939 7.220,6.279 7.092 C 6.831 6.884,6.994 6.194,6.587 5.787 C 6.533 5.733,6.432 5.661,6.362 5.628 C 6.250 5.574,6.202 5.567,5.977 5.575 C 5.489 5.591,5.405 5.586,5.278 5.528 C 4.887 5.353,4.698 4.837,4.888 4.463 C 5.008 4.228,5.181 4.092,5.448 4.025 C 5.546 4.000,5.621 4.003,5.839 4.040 C 6.104 4.084,6.110 4.084,6.297 4.027 C 6.646 3.921,6.860 3.629,6.856 3.260 C 6.853 2.885,6.669 2.645,6.273 2.501 C 6.051 2.421,5.269 2.406,5.013 2.477 M9.813 2.479 C 8.988 2.703,8.397 3.260,8.115 4.079 C 8.030 4.326,8.027 4.345,8.027 4.774 C 8.027 5.258,8.048 5.384,8.191 5.727 C 8.423 6.282,8.921 6.779,9.483 7.013 C 9.838 7.161,9.959 7.180,10.477 7.167 C 10.927 7.157,10.956 7.153,11.176 7.071 C 11.884 6.805,12.399 6.290,12.672 5.576 L 12.759 5.347 12.759 4.800 L 12.759 4.253 12.672 4.025 C 12.543 3.686,12.368 3.408,12.125 3.154 C 11.775 2.790,11.375 2.561,10.928 2.469 C 10.642 2.410,10.046 2.415,9.813 2.479 M10.766 4.110 C 11.051 4.246,11.173 4.459,11.173 4.819 C 11.173 4.975,11.160 5.042,11.107 5.147 C 11.021 5.315,10.877 5.458,10.722 5.530 C 10.544 5.611,10.246 5.607,10.069 5.521 C 9.576 5.280,9.458 4.622,9.840 4.240 C 10.083 3.997,10.428 3.949,10.766 4.110 M4.107 8.028 C 3.909 8.038,3.666 8.066,3.567 8.090 C 2.631 8.312,1.945 8.988,1.693 9.936 C 1.630 10.171,1.596 10.989,1.605 12.055 C 1.613 12.998,1.614 13.000,1.679 13.132 C 1.848 13.474,2.228 13.659,2.584 13.574 C 2.761 13.532,2.994 13.362,3.083 13.211 C 3.176 13.052,3.194 12.818,3.222 11.413 L 3.243 10.307 3.312 10.157 C 3.449 9.859,3.691 9.677,4.000 9.642 C 4.081 9.633,4.381 9.614,4.667 9.600 C 4.953 9.586,5.235 9.561,5.293 9.545 C 5.442 9.503,5.683 9.254,5.742 9.081 C 5.767 9.009,5.787 8.877,5.787 8.786 C 5.787 8.501,5.606 8.218,5.339 8.084 C 5.219 8.024,4.671 7.999,4.107 8.028 M8.493 8.069 C 7.931 8.171,7.558 8.365,7.163 8.763 C 6.828 9.100,6.654 9.397,6.517 9.863 C 6.426 10.174,6.395 10.768,6.405 12.027 C 6.413 12.982,6.414 13.002,6.475 13.125 C 6.554 13.285,6.715 13.446,6.875 13.525 C 7.045 13.609,7.345 13.611,7.524 13.529 C 7.685 13.455,7.839 13.299,7.929 13.120 L 8.000 12.976 8.002 12.095 C 8.002 11.610,8.012 11.009,8.024 10.759 C 8.042 10.353,8.052 10.288,8.112 10.156 C 8.203 9.957,8.347 9.803,8.521 9.718 C 8.714 9.624,9.064 9.602,10.373 9.602 C 11.558 9.602,12.035 9.627,12.224 9.698 C 12.415 9.769,12.590 9.939,12.680 10.139 C 12.750 10.294,12.757 10.342,12.776 10.773 C 12.787 11.030,12.797 11.631,12.798 12.108 L 12.800 12.976 12.871 13.120 C 12.961 13.299,13.115 13.455,13.276 13.529 C 13.455 13.611,13.755 13.609,13.925 13.525 C 14.085 13.446,14.246 13.285,14.325 13.125 C 14.385 13.003,14.387 12.977,14.395 12.120 C 14.406 10.897,14.370 10.163,14.283 9.867 C 14.019 8.965,13.414 8.367,12.493 8.098 C 12.314 8.046,12.231 8.043,10.507 8.037 C 9.028 8.031,8.669 8.037,8.493 8.069 " fill="#1A1C1F" stroke="none" fill-rule="evenodd"></path></svg>