<svg width="28" height="28" viewBox="0 0 28 28" fill="none" xmlns="http://www.w3.org/2000/svg"><path d="M13.207 1.817 C 11.569 1.994,9.898 3.030,8.914 4.479 C 8.498 5.091,8.115 6.031,7.971 6.794 C 7.935 6.986,7.911 7.448,7.912 7.933 C 7.913 8.660,7.927 8.805,8.038 9.248 C 8.340 10.450,8.878 11.402,9.731 12.238 C 10.430 12.923,11.213 13.397,12.133 13.694 C 12.845 13.924,13.140 13.967,14.000 13.967 C 14.860 13.967,15.155 13.924,15.867 13.694 C 17.917 13.033,19.421 11.398,19.963 9.243 C 20.074 8.801,20.087 8.663,20.088 7.910 C 20.089 6.979,20.032 6.605,19.780 5.891 C 19.064 3.861,17.383 2.360,15.326 1.915 C 14.815 1.804,13.774 1.756,13.207 1.817 M14.888 3.616 C 16.124 3.824,17.308 4.754,17.919 5.997 C 18.267 6.703,18.315 6.930,18.316 7.863 C 18.317 8.764,18.271 8.998,17.972 9.637 C 17.601 10.427,17.062 11.065,16.373 11.526 C 14.965 12.469,13.035 12.468,11.624 11.524 C 10.934 11.063,10.401 10.433,10.030 9.640 C 9.729 8.998,9.683 8.765,9.684 7.863 C 9.685 6.952,9.731 6.721,10.052 6.043 C 10.517 5.063,11.413 4.203,12.357 3.830 C 12.603 3.733,13.217 3.568,13.463 3.533 C 13.677 3.502,14.494 3.550,14.888 3.616 M8.237 14.518 C 8.083 14.541,7.771 14.612,7.544 14.677 C 5.795 15.177,4.468 16.498,3.850 18.357 C 3.524 19.336,3.527 19.293,3.525 22.637 L 3.523 25.650 3.652 25.844 C 3.943 26.285,4.582 26.362,4.963 26.002 C 5.036 25.933,5.135 25.799,5.184 25.704 C 5.268 25.541,5.273 25.405,5.275 23.534 C 5.276 22.435,5.295 21.031,5.318 20.414 C 5.355 19.383,5.369 19.261,5.483 18.921 C 5.649 18.425,5.922 17.912,6.204 17.564 C 6.759 16.877,7.836 16.308,8.680 16.254 C 9.019 16.233,9.044 16.239,9.484 16.446 C 10.308 16.834,11.593 17.212,12.600 17.363 C 12.793 17.392,13.423 17.415,14.000 17.415 C 14.578 17.415,15.208 17.392,15.400 17.363 C 16.400 17.213,17.684 16.836,18.511 16.450 C 19.031 16.207,19.283 16.183,19.787 16.327 C 20.957 16.661,21.758 17.295,22.253 18.280 C 22.599 18.966,22.640 19.178,22.683 20.510 C 22.704 21.177,22.723 22.580,22.724 23.627 C 22.727 25.677,22.725 25.662,22.977 25.940 C 23.373 26.375,24.119 26.298,24.395 25.793 C 24.469 25.657,24.478 25.429,24.491 23.357 C 24.499 22.099,24.485 20.661,24.460 20.160 C 24.419 19.355,24.396 19.191,24.265 18.737 C 24.183 18.454,24.036 18.039,23.939 17.814 C 23.062 15.778,21.096 14.467,18.920 14.467 C 18.609 14.467,18.548 14.485,18.004 14.745 C 16.516 15.457,15.426 15.726,14.021 15.730 C 12.593 15.733,11.556 15.480,9.990 14.748 L 9.388 14.467 8.952 14.472 C 8.713 14.475,8.391 14.496,8.237 14.518 " fill="#1A1C1F" stroke="none" fill-rule="evenodd"></path></svg>