<svg xmlns="http://www.w3.org/2000/svg" width="28" height="28" fill="none"><g clip-path="url(#a)"><path fill="#1A1C1F" fill-rule="evenodd" d="M3.505 19.83c0-1.197.42-2.393 1.238-3.337a.85.85 0 0 1 .65-.294.86.86 0 0 1 .882.881.9.9 0 0 1-.189.546 3.43 3.43 0 0 0-.84 2.203c0 1.847 1.47 3.37 3.316 3.37a3.45 3.45 0 0 0 2.79-1.397.9.9 0 0 1 .714-.378c.462 0 .903.357.903.881a.8.8 0 0 1-.19.525 5.23 5.23 0 0 1-4.217 2.12c-2.728 0-5.057-2.246-5.057-5.12m3.064-6.254c0-.482.398-.881.881-.881h.63c1.007 0 1.888.546 2.182 1.469l.084.285h3c.483 0 .882.386.882.869a.887.887 0 0 1-.882.881H10.87l.525 1.75h3.064c.377 0 .671.223.818.58l1.91 4.532a.7.7 0 0 1 .062.293c0 .42-.335.86-.881.86-.378 0-.672-.21-.818-.566l-1.7-3.945h-3.105a.875.875 0 0 1-.84-.63l-1.259-4.259c-.084-.273-.189-.377-.566-.377h-.63a.87.87 0 0 1-.881-.86m0-4.364c0-.965.797-1.763 1.762-1.763.966 0 1.742.798 1.742 1.763s-.776 1.741-1.742 1.741c-.965 0-1.762-.776-1.762-1.741m5.524-5.362c0-.46.412-.75.8-.75.314 0 .641.19.726.58l.672 3.091.757-3.115c.09-.365.436-.557.751-.557s.663.185.751.557l.74 3.127.665-3.102c.089-.414.412-.582.727-.582.411 0 .799.29.799.751a.9.9 0 0 1-.024.218L18.052 9.47c-.1.386-.436.557-.751.557s-.642-.173-.75-.557l-.776-2.737L15 9.47c-.11.39-.436.557-.751.557a.77.77 0 0 1-.75-.582l-1.382-5.377a1 1 0 0 1-.024-.218m7.727 2.737c0-3.197 1.89-3.536 2.713-3.536.484 0 .993.097 1.453.315.34.145.485.411.485.678 0 .412-.315.823-.751.823a.75.75 0 0 1-.315-.072 1.9 1.9 0 0 0-.8-.194c-.339 0-1.235 0-1.235 1.986 0 1.914.8 1.914 1.235 1.914.291-.024.582-.097.848-.194.097-.024.194-.049.29-.049.437 0 .752.412.752.824 0 .29-.146.557-.509.702-.46.146-.945.243-1.429.267-1.017 0-2.737-.46-2.737-3.464" clip-rule="evenodd"/></g><defs><clipPath id="a"><path fill="#fff" d="M0 0h28v28H0z"/></clipPath></defs></svg>