<svg xmlns="http://www.w3.org/2000/svg" width="12" height="12" fill="none"><g clip-path="url(#a)"><path fill="#1A1C1F" fill-rule="evenodd" d="M2.456 7.327a.607.607 0 0 1 .118.84.9.9 0 0 0 1.27 1.253.6.6 0 0 1 .734.95 2.1 2.1 0 0 1-2.962-2.925.6.6 0 0 1 .84-.118m1.71-1.209q.233.694.464 1.39h.672c.448 0 .896.247 1.103.727q.373.867.744 1.737a.6.6 0 0 1-.315.787.61.61 0 0 1-.788-.315q-.374-.867-.744-1.736H4.63a1.2 1.2 0 0 1-1.104-.73l-.498-1.48a.6.6 0 1 1 1.139-.38m-.872-2.35a.7.7 0 0 1 .691.69c0 .389-.316.69-.69.69a.68.68 0 0 1-.692-.69c0-.374.303-.69.691-.69m1.148-2.161c0-.24.214-.39.415-.39.164 0 .333.1.378.302l.349 1.606.393-1.619c.046-.19.227-.29.39-.29.164 0 .345.097.39.29l.386 1.625.345-1.612a.37.37 0 0 1 .377-.302c.214 0 .416.15.416.39a.4.4 0 0 1-.013.113l-.73 2.807c-.052.201-.226.29-.39.29a.39.39 0 0 1-.39-.29l-.403-1.422-.403 1.422a.39.39 0 0 1-.39.29.4.4 0 0 1-.39-.302L4.454 1.72a.5.5 0 0 1-.012-.113m3.96 1.404c0-1.645.971-1.819 1.395-1.819.249 0 .51.05.747.162.175.075.25.212.25.349 0 .211-.163.423-.387.423a.4.4 0 0 1-.162-.037 1 1 0 0 0-.41-.1c-.175 0-.636 0-.636 1.022 0 .984.41.984.635.984.15-.013.3-.05.436-.1.05-.012.1-.025.15-.025.224 0 .386.212.386.424 0 .15-.075.286-.262.361a3 3 0 0 1-.735.137c-.523 0-1.407-.237-1.407-1.781" clip-rule="evenodd"/></g><defs><clipPath id="a"><path fill="#fff" d="M0 0h12v12H0z"/></clipPath></defs></svg>