<svg width="14" height="14" viewBox="0 0 14 14" fill="none" xmlns="http://www.w3.org/2000/svg"><path d="M11.127 1.423 C 10.517 1.521,10.084 1.961,9.892 2.680 C 9.795 3.040,9.781 3.768,9.862 4.188 C 10.033 5.073,10.601 5.577,11.428 5.577 C 11.818 5.577,12.303 5.460,12.459 5.329 C 12.660 5.160,12.634 4.796,12.408 4.613 C 12.288 4.516,12.172 4.509,11.874 4.581 C 11.528 4.665,11.416 4.676,11.259 4.644 C 11.150 4.621,11.105 4.596,11.024 4.515 C 10.813 4.305,10.749 4.069,10.750 3.512 C 10.750 3.094,10.785 2.878,10.885 2.678 C 10.961 2.526,11.021 2.460,11.142 2.395 C 11.284 2.319,11.606 2.327,11.897 2.413 C 12.158 2.491,12.263 2.485,12.387 2.386 C 12.592 2.221,12.648 1.956,12.518 1.770 C 12.432 1.648,12.203 1.523,11.949 1.462 C 11.751 1.414,11.313 1.394,11.127 1.423 M5.509 1.458 C 5.453 1.476,5.366 1.530,5.316 1.579 C 5.199 1.693,5.169 1.803,5.204 1.979 C 5.275 2.328,5.935 4.918,6.033 5.225 C 6.081 5.377,6.108 5.425,6.185 5.491 C 6.371 5.650,6.605 5.657,6.790 5.509 C 6.894 5.426,6.922 5.348,7.197 4.387 C 7.331 3.918,7.419 3.647,7.427 3.675 C 7.435 3.701,7.516 3.984,7.607 4.305 C 7.855 5.180,7.927 5.389,8.012 5.478 C 8.177 5.653,8.488 5.657,8.659 5.486 C 8.735 5.409,8.754 5.360,8.885 4.888 C 9.197 3.765,9.618 2.136,9.649 1.930 C 9.671 1.783,9.631 1.678,9.510 1.567 C 9.357 1.426,9.198 1.393,8.999 1.461 C 8.797 1.529,8.788 1.554,8.530 2.714 C 8.377 3.398,8.310 3.653,8.307 3.557 C 8.306 3.505,7.930 1.963,7.874 1.780 C 7.825 1.620,7.802 1.578,7.731 1.523 C 7.655 1.466,7.622 1.457,7.445 1.450 C 7.247 1.443,7.244 1.444,7.138 1.524 C 7.009 1.623,7.015 1.607,6.731 2.751 C 6.619 3.203,6.519 3.565,6.510 3.554 C 6.501 3.544,6.428 3.236,6.348 2.870 C 6.072 1.605,6.059 1.567,5.875 1.481 C 5.737 1.417,5.658 1.412,5.509 1.458 M3.601 4.442 C 3.377 4.515,3.160 4.722,3.088 4.930 C 3.022 5.118,3.033 5.376,3.112 5.537 C 3.195 5.707,3.334 5.847,3.496 5.923 C 3.610 5.976,3.659 5.985,3.850 5.985 C 4.033 5.985,4.090 5.976,4.179 5.932 C 4.304 5.870,4.510 5.671,4.562 5.560 C 4.653 5.369,4.653 5.037,4.561 4.845 C 4.503 4.722,4.319 4.549,4.177 4.484 C 4.022 4.413,3.751 4.393,3.601 4.442 M3.965 6.710 C 3.745 6.777,3.536 7.037,3.508 7.276 C 3.493 7.408,3.524 7.535,3.726 8.155 C 3.968 8.895,4.176 9.455,4.242 9.542 C 4.363 9.703,4.607 9.916,4.760 9.997 C 4.994 10.120,5.172 10.152,5.716 10.170 L 6.194 10.185 6.616 11.165 C 6.847 11.704,7.056 12.180,7.078 12.223 C 7.146 12.349,7.323 12.502,7.465 12.555 C 7.789 12.678,8.166 12.529,8.318 12.217 C 8.366 12.120,8.379 12.055,8.383 11.909 L 8.386 11.724 8.110 11.083 C 7.363 9.352,7.336 9.299,7.112 9.117 C 6.974 9.005,6.803 8.903,6.650 8.842 C 6.535 8.797,6.462 8.790,5.965 8.777 L 5.408 8.762 5.136 7.957 C 4.986 7.514,4.839 7.102,4.810 7.041 C 4.668 6.748,4.303 6.605,3.965 6.710 M2.240 8.445 C 1.923 8.542,1.611 8.999,1.465 9.583 C 1.422 9.755,1.414 9.851,1.415 10.173 C 1.416 10.510,1.424 10.587,1.475 10.781 C 1.725 11.715,2.515 12.423,3.483 12.578 C 3.753 12.621,4.204 12.595,4.475 12.520 C 4.870 12.411,5.285 12.183,5.448 11.984 C 5.727 11.643,5.612 11.121,5.215 10.926 C 4.982 10.811,4.773 10.831,4.486 10.996 C 4.236 11.141,4.055 11.200,3.864 11.200 C 3.322 11.200,2.901 10.841,2.819 10.308 C 2.779 10.045,2.815 9.880,2.986 9.554 C 3.147 9.246,3.170 9.139,3.115 8.943 C 3.028 8.632,2.759 8.421,2.454 8.425 C 2.368 8.426,2.272 8.435,2.240 8.445 " fill="#1A1C1F" stroke="none" fill-rule="evenodd"></path></svg>