<svg xmlns="http://www.w3.org/2000/svg" width="32" height="32" fill="none"><g clip-path="url(#a)"><path fill="#1A1C1F" fill-rule="evenodd" d="M4.006 22.662c0-1.367.48-2.734 1.415-3.813a.97.97 0 0 1 .743-.336c.6 0 1.007.456 1.007 1.007 0 .216-.072.432-.215.624-.6.695-.96 1.607-.96 2.518 0 2.11 1.679 3.851 3.79 3.851 1.27 0 2.445-.59 3.189-1.597.216-.288.527-.431.815-.431.528 0 1.031.407 1.031 1.007a.92.92 0 0 1-.216.6 5.97 5.97 0 0 1-4.82 2.421c-3.117 0-5.779-2.566-5.779-5.851m3.501-7.146c0-.552.456-1.008 1.007-1.008h.72c1.15 0 2.158.624 2.494 1.68l.096.325h3.429c.552 0 1.007.441 1.007.993s-.456 1.007-1.007 1.007h-2.83l.6 2h3.501c.432 0 .767.254.935.662l2.183 5.18a.8.8 0 0 1 .071.336c0 .48-.383.983-1.007.983-.431 0-.767-.24-.935-.648l-1.943-4.508H12.28a1 1 0 0 1-.959-.72l-1.439-4.867c-.096-.312-.216-.432-.647-.432h-.72a.993.993 0 0 1-1.007-.983m0-4.988c0-1.103.911-2.015 2.015-2.015 1.103 0 1.99.912 1.99 2.015s-.887 1.99-1.99 1.99c-1.104 0-2.015-.887-2.015-1.99M13.821 4.4c0-.526.47-.858.913-.858a.83.83 0 0 1 .83.664l.769 3.532.865-3.56c.102-.417.498-.636.858-.636s.757.21.858.637l.847 3.572.759-3.545c.101-.472.47-.664.83-.664.47 0 .914.332.914.858a1 1 0 0 1-.028.25l-1.605 6.172c-.115.442-.499.637-.858.637-.36 0-.734-.197-.859-.637l-.885-3.128-.886 3.128c-.127.447-.498.637-.858.637a.88.88 0 0 1-.858-.664l-1.578-6.146a1 1 0 0 1-.028-.249m8.83 3.128c0-3.654 2.16-4.041 3.1-4.041.554 0 1.136.11 1.662.36.387.166.553.47.553.775 0 .47-.36.94-.858.94a.85.85 0 0 1-.36-.082 2.2 2.2 0 0 0-.913-.222c-.388 0-1.412 0-1.412 2.27 0 2.187.914 2.187 1.412 2.187.332-.028.664-.11.969-.221.11-.028.221-.056.332-.056.498 0 .858.47.858.941 0 .333-.166.637-.581.803a6.5 6.5 0 0 1-1.634.305c-1.162 0-3.128-.526-3.128-3.959" clip-rule="evenodd"/></g><defs><clipPath id="a"><path fill="#fff" d="M0 0h32v32H0z"/></clipPath></defs></svg>