<svg width="28" height="28" viewBox="0 0 28 28" fill="none" xmlns="http://www.w3.org/2000/svg"><path d="M21.946 3.128 C 21.757 3.154,21.535 3.230,21.316 3.345 C 20.396 3.828,19.900 4.810,19.845 6.253 C 19.800 7.460,19.975 8.303,20.405 8.945 C 20.682 9.360,20.924 9.573,21.350 9.777 C 21.897 10.039,22.491 10.097,23.255 9.963 C 24.025 9.829,24.341 9.644,24.453 9.261 C 24.532 8.993,24.450 8.724,24.220 8.493 C 23.976 8.250,23.814 8.225,23.326 8.357 C 22.796 8.500,22.207 8.508,21.980 8.374 C 21.666 8.190,21.510 7.833,21.413 7.082 C 21.347 6.567,21.421 5.725,21.566 5.337 C 21.689 5.008,21.954 4.737,22.223 4.664 C 22.482 4.594,22.893 4.630,23.336 4.762 C 23.787 4.896,23.973 4.867,24.216 4.624 C 24.412 4.428,24.485 4.160,24.427 3.852 C 24.378 3.591,24.038 3.348,23.519 3.205 C 23.204 3.117,22.337 3.075,21.946 3.128 M12.515 3.205 C 12.340 3.292,12.159 3.511,12.117 3.690 C 12.062 3.927,13.406 9.294,13.622 9.697 C 13.688 9.821,14.089 10.033,14.257 10.033 C 14.432 10.033,14.659 9.924,14.800 9.771 C 14.936 9.623,15.099 9.149,15.497 7.735 C 15.633 7.254,15.757 6.860,15.773 6.860 C 15.790 6.860,15.883 7.138,15.980 7.478 C 16.355 8.783,16.580 9.503,16.666 9.671 C 16.872 10.075,17.502 10.136,17.850 9.784 C 17.970 9.664,18.029 9.520,18.173 9.007 C 18.495 7.856,19.460 3.974,19.460 3.828 C 19.460 3.415,19.159 3.152,18.686 3.151 C 18.362 3.150,18.175 3.230,18.082 3.409 C 17.998 3.571,17.836 4.221,17.549 5.550 C 17.419 6.151,17.303 6.652,17.292 6.664 C 17.280 6.675,17.261 6.635,17.248 6.574 C 17.116 5.944,16.462 3.425,16.416 3.370 C 16.383 3.331,16.273 3.260,16.170 3.214 C 15.775 3.034,15.270 3.167,15.136 3.487 C 15.095 3.584,14.897 4.312,14.696 5.104 C 14.352 6.463,14.304 6.624,14.263 6.576 C 14.254 6.565,14.105 5.916,13.933 5.133 C 13.761 4.351,13.580 3.620,13.532 3.510 C 13.464 3.356,13.398 3.290,13.244 3.220 C 12.999 3.109,12.722 3.103,12.515 3.205 M7.840 7.527 C 7.567 7.604,7.253 7.823,6.983 8.123 C 6.486 8.675,6.449 9.603,6.900 10.200 C 7.113 10.481,7.470 10.756,7.743 10.850 C 8.011 10.941,8.654 10.941,8.912 10.850 C 9.347 10.697,9.809 10.233,9.967 9.793 C 10.008 9.678,10.042 9.419,10.045 9.193 C 10.051 8.856,10.033 8.757,9.929 8.530 C 9.763 8.169,9.430 7.824,9.082 7.652 C 8.741 7.485,8.185 7.428,7.840 7.527 M7.117 12.801 C 6.821 12.945,6.696 13.083,6.626 13.345 C 6.515 13.765,6.691 14.161,7.065 14.331 C 7.192 14.389,7.366 14.418,7.583 14.419 C 8.022 14.421,8.459 14.496,8.521 14.581 C 8.572 14.651,8.803 15.386,9.543 17.827 C 9.765 18.558,9.971 19.208,10.001 19.271 C 10.032 19.334,10.148 19.455,10.259 19.540 L 10.461 19.693 12.153 19.693 L 13.845 19.693 14.208 20.545 C 15.153 22.758,15.602 23.751,15.729 23.905 C 16.112 24.369,16.886 24.271,17.152 23.724 C 17.308 23.403,17.273 23.269,16.624 21.723 C 15.842 19.859,15.336 18.702,15.177 18.412 C 14.943 17.987,14.970 17.992,13.061 17.974 L 11.398 17.959 11.144 17.111 C 10.895 16.284,10.891 16.263,10.986 16.233 C 11.040 16.216,11.658 16.201,12.360 16.198 L 13.637 16.193 13.815 16.052 C 14.014 15.895,14.233 15.498,14.233 15.296 C 14.233 15.109,14.082 14.834,13.884 14.661 C 13.792 14.580,13.702 14.511,13.683 14.507 C 13.665 14.504,12.907 14.488,12.000 14.472 L 10.349 14.443 10.247 14.160 C 10.110 13.783,9.986 13.589,9.718 13.338 C 9.236 12.888,8.835 12.745,7.957 12.711 C 7.384 12.688,7.337 12.693,7.117 12.801 M5.165 16.241 C 4.635 16.400,3.940 17.508,3.639 18.674 C 3.504 19.198,3.506 20.502,3.642 21.001 C 3.972 22.207,4.539 23.109,5.402 23.804 C 7.132 25.196,9.391 25.324,11.352 24.140 C 11.836 23.848,12.686 23.010,12.861 22.651 C 12.958 22.454,12.980 22.355,12.959 22.205 C 12.887 21.665,12.242 21.275,11.783 21.493 C 11.686 21.540,11.412 21.770,11.175 22.006 C 10.680 22.499,10.440 22.675,9.971 22.889 C 9.483 23.112,9.194 23.170,8.587 23.167 C 7.519 23.163,6.763 22.808,6.050 21.978 C 5.746 21.625,5.576 21.325,5.429 20.883 C 5.321 20.558,5.304 20.432,5.302 19.903 C 5.298 19.016,5.435 18.575,5.955 17.802 C 6.164 17.491,6.225 17.359,6.242 17.179 C 6.282 16.764,6.104 16.458,5.717 16.281 C 5.516 16.189,5.373 16.178,5.165 16.241 " fill="#1A1C1F" stroke="none" fill-rule="evenodd"></path></svg>