<svg width="32" height="32" viewBox="0 0 32 32" fill="none" xmlns="http://www.w3.org/2000/svg"><path d="M25.081 3.575 C 24.624 3.637,24.055 3.944,23.665 4.339 C 23.304 4.706,23.003 5.286,22.818 5.973 C 22.707 6.382,22.696 6.537,22.700 7.547 C 22.704 8.506,22.721 8.726,22.816 9.077 C 23.316 10.919,24.631 11.726,26.577 11.387 C 27.457 11.233,27.818 11.022,27.947 10.585 C 28.037 10.278,27.943 9.970,27.680 9.707 C 27.402 9.428,27.216 9.400,26.659 9.550 C 26.053 9.714,25.380 9.723,25.120 9.570 C 24.762 9.360,24.583 8.952,24.473 8.093 C 24.397 7.505,24.481 6.543,24.647 6.099 C 24.788 5.723,25.090 5.413,25.397 5.330 C 25.694 5.250,26.164 5.291,26.670 5.442 C 27.185 5.595,27.398 5.562,27.676 5.284 C 27.899 5.061,27.983 4.754,27.917 4.402 C 27.861 4.104,27.472 3.827,26.878 3.662 C 26.518 3.563,25.528 3.514,25.081 3.575 M14.400 3.612 C 14.198 3.688,14.005 3.876,13.911 4.088 L 13.809 4.319 14.052 5.373 C 14.523 7.409,15.428 10.822,15.566 11.080 C 15.643 11.223,16.101 11.467,16.293 11.467 C 16.494 11.467,16.754 11.341,16.915 11.167 C 17.070 10.998,17.256 10.456,17.711 8.840 C 17.866 8.290,18.008 7.840,18.027 7.840 C 18.045 7.840,18.152 8.158,18.263 8.547 C 18.692 10.037,18.949 10.861,19.046 11.052 C 19.282 11.514,20.003 11.584,20.401 11.182 C 20.537 11.044,20.605 10.880,20.769 10.293 C 21.143 8.954,22.240 4.543,22.240 4.376 C 22.240 3.903,21.896 3.602,21.355 3.601 C 20.985 3.600,20.771 3.691,20.665 3.897 C 20.574 4.073,20.339 5.008,20.057 6.320 C 19.937 6.877,19.818 7.405,19.793 7.493 L 19.747 7.653 19.716 7.520 C 19.435 6.303,18.813 3.914,18.761 3.852 C 18.652 3.719,18.284 3.576,18.053 3.576 C 17.718 3.576,17.398 3.748,17.301 3.979 C 17.256 4.087,17.028 4.920,16.796 5.830 C 16.393 7.406,16.345 7.567,16.301 7.516 C 16.290 7.503,16.121 6.761,15.923 5.867 C 15.726 4.972,15.520 4.137,15.465 4.012 C 15.388 3.836,15.312 3.760,15.136 3.680 C 14.916 3.580,14.569 3.548,14.400 3.612 M9.037 8.580 C 8.495 8.721,7.954 9.171,7.699 9.691 C 7.563 9.968,7.547 10.055,7.548 10.533 C 7.548 10.988,7.568 11.106,7.678 11.333 C 7.839 11.667,8.330 12.157,8.673 12.325 C 9.011 12.491,9.790 12.534,10.163 12.407 C 10.673 12.233,11.207 11.705,11.391 11.192 C 11.439 11.056,11.476 10.770,11.478 10.503 C 11.484 9.946,11.344 9.589,10.956 9.175 C 10.596 8.789,10.167 8.592,9.627 8.561 C 9.392 8.548,9.127 8.556,9.037 8.580 M8.160 14.614 C 7.792 14.786,7.640 14.961,7.571 15.289 C 7.421 16.013,7.848 16.476,8.667 16.479 C 9.168 16.481,9.667 16.567,9.738 16.664 C 9.796 16.744,10.061 17.584,10.906 20.373 C 11.160 21.209,11.395 21.952,11.430 22.024 C 11.465 22.096,11.597 22.234,11.724 22.331 L 11.955 22.507 13.889 22.507 L 15.823 22.507 16.055 23.053 C 17.000 25.278,17.827 27.128,17.950 27.289 C 18.379 27.851,19.261 27.761,19.595 27.120 C 19.785 26.755,19.747 26.609,18.999 24.827 C 18.105 22.696,17.527 21.374,17.345 21.042 C 17.078 20.556,17.109 20.563,14.927 20.543 L 13.027 20.525 12.736 19.556 C 12.452 18.610,12.447 18.586,12.556 18.552 C 12.617 18.533,13.332 18.515,14.144 18.512 L 15.622 18.507 15.882 18.246 C 16.335 17.793,16.372 17.312,15.988 16.874 C 15.895 16.769,15.758 16.658,15.683 16.628 C 15.604 16.596,14.767 16.559,13.687 16.539 L 11.828 16.507 11.711 16.183 C 11.555 15.752,11.412 15.530,11.106 15.244 C 10.555 14.729,10.097 14.566,9.093 14.527 C 8.466 14.503,8.377 14.512,8.160 14.614 M5.903 18.561 C 5.296 18.743,4.543 19.942,4.163 21.332 C 4.004 21.912,4.004 23.422,4.163 24.001 C 4.478 25.152,4.932 25.978,5.663 26.728 C 7.601 28.718,10.494 29.077,12.908 27.626 C 13.649 27.181,14.654 26.159,14.775 25.729 C 14.937 25.149,14.520 24.582,13.867 24.495 C 13.569 24.455,13.331 24.597,12.778 25.146 C 12.214 25.707,11.933 25.913,11.396 26.161 C 10.393 26.624,9.168 26.610,8.163 26.125 C 7.791 25.945,7.623 25.818,7.197 25.393 C 6.340 24.540,6.054 23.868,6.056 22.720 C 6.058 21.730,6.221 21.215,6.806 20.345 C 7.045 19.990,7.114 19.839,7.134 19.633 C 7.180 19.158,6.975 18.810,6.533 18.607 C 6.304 18.502,6.140 18.490,5.903 18.561 " fill="#1A1C1F" stroke="none" fill-rule="evenodd"></path></svg>