<svg xmlns="http://www.w3.org/2000/svg" width="24" height="24" fill="none"><g clip-path="url(#a)"><path fill="#1A1C1F" fill-rule="evenodd" d="M4.996 14.5a.97.97 0 0 1-.306.725 2.5 2.5 0 0 0-.725 1.744 2.54 2.54 0 0 0 2.53 2.531c.657 0 1.3-.25 1.807-.756a.92.92 0 0 1 .663-.275c.562 0 1 .468 1 1 0 .25-.063.531-.25.718-.844.844-2 1.313-3.188 1.313a4.535 4.535 0 0 1-4.531-4.531c0-1.157.469-2.25 1.25-3.157a.95.95 0 0 1 .719-.312c.562 0 1.03.438 1.03 1m3.187-3.25 1.032 3.25h2.187c.781 0 1.253.374 1.531 1.063l1.844 4.562c.042.105.063.281.063.375a.98.98 0 0 1-.97 1c-.468 0-.814-.311-.968-.687l-1.75-4.313h-2.75c-.469 0-.86-.276-1-.75l-1.187-4a1.006 1.006 0 0 1 .969-1.25c.468 0 .863.316 1 .75M6.808 5.5c.813 0 1.5.688 1.5 1.5a1.5 1.5 0 0 1-1.5 1.5 1.48 1.48 0 0 1-1.5-1.5 1.5 1.5 0 0 1 1.5-1.5m3.68-2.258c0-.427.383-.697.743-.697.292 0 .596.177.675.54l.624 2.87.703-2.893c.082-.339.404-.517.697-.517s.615.171.697.517l.688 2.903.617-2.88c.082-.384.382-.54.674-.54.383 0 .742.27.742.697a.8.8 0 0 1-.022.203L16.022 8.46c-.094.36-.405.518-.698.518a.7.7 0 0 1-.697-.518l-.72-2.541-.72 2.541c-.102.363-.404.518-.697.518a.71.71 0 0 1-.697-.54l-1.282-4.993a.8.8 0 0 1-.022-.203m7.176 2.542c0-2.97 1.754-3.284 2.518-3.284.45 0 .923.09 1.35.292.315.135.45.383.45.63 0 .382-.293.765-.697.765a.7.7 0 0 1-.293-.068 1.8 1.8 0 0 0-.742-.18c-.315 0-1.147 0-1.147 1.845 0 1.777.742 1.777 1.147 1.777.27-.023.54-.09.787-.18.09-.023.18-.045.27-.045.405 0 .697.382.697.764 0 .27-.135.518-.472.653A5.3 5.3 0 0 1 20.205 9c-.945 0-2.541-.427-2.541-3.216" clip-rule="evenodd"/></g><defs><clipPath id="a"><path fill="#fff" d="M0 0h24v24H0z"/></clipPath></defs></svg>