<svg width="20" height="20" viewBox="0 0 20 20" fill="none" xmlns="http://www.w3.org/2000/svg"><path d="M15.872 2.036 C 14.947 2.179,14.268 2.967,14.065 4.133 C 13.994 4.539,14.011 5.647,14.094 6.019 C 14.378 7.298,15.144 7.967,16.325 7.967 C 16.883 7.967,17.576 7.800,17.798 7.613 C 18.085 7.372,18.048 6.851,17.725 6.590 C 17.555 6.452,17.389 6.442,16.966 6.543 C 16.246 6.715,15.994 6.696,15.748 6.450 C 15.448 6.149,15.356 5.812,15.356 5.017 C 15.357 4.421,15.408 4.111,15.551 3.825 C 15.659 3.609,15.745 3.514,15.917 3.422 C 16.119 3.313,16.580 3.324,16.996 3.448 C 17.369 3.558,17.519 3.550,17.696 3.408 C 17.988 3.173,18.069 2.795,17.882 2.528 C 17.760 2.353,17.432 2.176,17.063 2.087 C 16.771 2.016,16.169 1.991,15.872 2.036 M7.870 2.083 C 7.790 2.109,7.666 2.186,7.595 2.255 C 7.428 2.418,7.384 2.575,7.434 2.827 C 7.535 3.326,8.481 7.031,8.621 7.473 C 8.687 7.682,8.727 7.751,8.836 7.844 C 9.101 8.071,9.436 8.081,9.700 7.870 C 9.848 7.752,9.889 7.640,10.281 6.267 C 10.473 5.597,10.598 5.210,10.610 5.251 C 10.621 5.287,10.736 5.692,10.866 6.150 C 11.334 7.797,11.375 7.885,11.726 7.988 C 11.874 8.031,11.932 8.032,12.072 7.999 C 12.318 7.940,12.451 7.807,12.535 7.539 C 12.731 6.905,13.581 3.682,13.737 2.978 C 13.830 2.559,13.806 2.442,13.587 2.240 C 13.311 1.986,12.914 1.969,12.667 2.200 C 12.545 2.314,12.493 2.495,12.184 3.883 C 11.928 5.040,11.902 5.142,11.880 5.083 C 11.873 5.065,11.747 4.548,11.600 3.933 C 11.238 2.424,11.197 2.293,11.044 2.176 C 10.936 2.094,10.888 2.082,10.636 2.072 C 10.353 2.061,10.348 2.062,10.198 2.177 C 10.013 2.319,10.021 2.295,9.616 3.930 C 9.455 4.576,9.314 5.092,9.300 5.077 C 9.287 5.062,9.183 4.623,9.069 4.100 C 8.674 2.293,8.656 2.238,8.393 2.116 C 8.195 2.024,8.083 2.017,7.870 2.083 M5.144 6.346 C 4.825 6.450,4.514 6.746,4.411 7.043 C 4.318 7.312,4.332 7.679,4.446 7.910 C 4.637 8.302,4.980 8.531,5.417 8.559 C 5.781 8.583,5.984 8.511,6.246 8.265 C 6.363 8.156,6.485 8.013,6.515 7.949 C 6.647 7.670,6.648 7.198,6.516 6.921 C 6.433 6.745,6.170 6.498,5.967 6.405 C 5.746 6.304,5.359 6.276,5.144 6.346 M5.664 9.585 C 5.350 9.682,5.051 10.052,5.011 10.394 C 4.989 10.583,5.034 10.764,5.323 11.650 C 5.668 12.707,5.966 13.507,6.060 13.632 C 6.233 13.861,6.581 14.166,6.800 14.281 C 7.133 14.456,7.384 14.501,8.164 14.527 L 8.849 14.550 9.451 15.950 C 9.782 16.720,10.079 17.400,10.112 17.461 C 10.208 17.642,10.461 17.860,10.664 17.936 C 11.127 18.111,11.666 17.898,11.883 17.454 C 11.949 17.318,11.970 17.221,11.976 17.015 L 11.983 16.750 11.587 15.833 C 10.526 13.378,10.476 13.281,10.160 13.024 C 9.963 12.865,9.719 12.719,9.500 12.632 C 9.336 12.567,9.232 12.557,8.521 12.538 L 7.725 12.517 7.337 11.367 C 7.123 10.734,6.914 10.145,6.871 10.058 C 6.667 9.640,6.148 9.436,5.664 9.585 M3.200 12.064 C 2.757 12.199,2.317 12.833,2.112 13.633 C 1.903 14.447,1.996 15.325,2.370 16.080 C 2.718 16.780,3.414 17.439,4.113 17.730 C 4.591 17.929,4.887 17.982,5.500 17.980 C 5.984 17.978,6.089 17.967,6.374 17.891 C 6.954 17.736,7.564 17.399,7.797 17.104 C 8.096 16.727,8.063 16.137,7.725 15.811 C 7.342 15.440,6.930 15.409,6.409 15.709 C 6.051 15.915,5.792 16.000,5.521 16.000 C 4.745 16.000,4.144 15.487,4.028 14.726 C 3.970 14.349,4.022 14.115,4.266 13.649 C 4.505 13.191,4.532 13.051,4.438 12.742 C 4.351 12.454,4.196 12.270,3.927 12.136 C 3.758 12.051,3.685 12.034,3.503 12.036 C 3.382 12.038,3.246 12.051,3.200 12.064 " fill="#1A1C1F" stroke="none" fill-rule="evenodd"></path></svg>