<svg width="16" height="16" viewBox="0 0 16 16" fill="none" xmlns="http://www.w3.org/2000/svg"><path d="M12.813 1.615 C 12.221 1.697,11.752 2.022,11.510 2.517 C 11.279 2.989,11.221 3.280,11.220 3.987 C 11.218 4.603,11.249 4.824,11.388 5.207 C 11.660 5.956,12.259 6.373,13.060 6.373 C 13.506 6.373,14.061 6.240,14.239 6.091 C 14.468 5.897,14.438 5.481,14.180 5.272 C 14.041 5.159,13.913 5.153,13.547 5.242 C 13.140 5.341,12.911 5.343,12.733 5.252 C 12.576 5.171,12.453 5.019,12.375 4.812 C 12.253 4.487,12.245 3.648,12.360 3.263 C 12.416 3.075,12.557 2.858,12.681 2.769 C 12.773 2.703,12.823 2.689,13.017 2.675 C 13.221 2.661,13.275 2.668,13.548 2.746 C 13.901 2.846,14.012 2.843,14.156 2.726 C 14.391 2.538,14.455 2.235,14.305 2.021 C 14.209 1.883,13.945 1.741,13.658 1.671 C 13.472 1.626,12.972 1.593,12.813 1.615 M6.296 1.667 C 6.232 1.687,6.132 1.749,6.076 1.804 C 5.942 1.935,5.907 2.060,5.948 2.262 C 6.030 2.670,6.782 5.615,6.895 5.974 C 6.945 6.133,6.983 6.201,7.055 6.264 C 7.285 6.466,7.545 6.475,7.771 6.288 C 7.881 6.197,7.948 6.008,8.268 4.870 C 8.374 4.492,8.469 4.193,8.480 4.205 C 8.490 4.217,8.579 4.515,8.679 4.867 C 8.965 5.885,9.059 6.160,9.156 6.261 C 9.275 6.386,9.478 6.442,9.658 6.399 C 9.855 6.352,9.961 6.246,10.028 6.031 C 10.188 5.514,10.863 2.956,10.990 2.382 C 11.064 2.047,11.045 1.954,10.869 1.792 C 10.693 1.630,10.512 1.592,10.285 1.669 C 10.054 1.748,10.043 1.776,9.748 3.107 C 9.542 4.032,9.521 4.113,9.504 4.067 C 9.498 4.052,9.397 3.638,9.280 3.147 C 8.991 1.939,8.957 1.834,8.835 1.741 C 8.749 1.675,8.711 1.666,8.509 1.658 C 8.283 1.649,8.279 1.650,8.158 1.742 C 8.010 1.855,8.017 1.836,7.692 3.144 C 7.564 3.661,7.451 4.074,7.440 4.062 C 7.429 4.050,7.346 3.698,7.255 3.280 C 6.939 1.834,6.925 1.791,6.715 1.693 C 6.556 1.619,6.467 1.614,6.296 1.667 M4.115 5.077 C 3.860 5.160,3.611 5.397,3.529 5.634 C 3.454 5.849,3.466 6.143,3.556 6.328 C 3.710 6.642,3.984 6.825,4.334 6.848 C 4.625 6.866,4.787 6.809,4.997 6.612 C 5.189 6.432,5.244 6.336,5.284 6.106 C 5.316 5.927,5.286 5.690,5.213 5.536 C 5.146 5.396,4.936 5.199,4.774 5.124 C 4.597 5.043,4.287 5.021,4.115 5.077 M4.531 7.668 C 4.280 7.745,4.041 8.042,4.009 8.315 C 3.991 8.468,4.029 8.620,4.258 9.320 C 4.540 10.180,4.773 10.807,4.848 10.905 C 4.987 11.089,5.265 11.333,5.440 11.425 C 5.706 11.565,5.907 11.601,6.532 11.622 L 7.080 11.640 7.444 12.493 C 8.061 13.940,8.097 14.015,8.246 14.161 C 8.637 14.545,9.270 14.445,9.507 13.962 C 9.561 13.851,9.576 13.777,9.580 13.611 L 9.584 13.400 9.268 12.667 C 8.434 10.729,8.381 10.625,8.128 10.419 C 7.971 10.292,7.775 10.175,7.600 10.106 C 7.469 10.054,7.385 10.045,6.817 10.030 L 6.180 10.013 5.869 9.093 C 5.698 8.587,5.530 8.116,5.497 8.047 C 5.334 7.712,4.918 7.549,4.531 7.668 M2.522 9.669 C 2.406 9.711,2.254 9.819,2.173 9.915 C 1.936 10.199,1.692 10.772,1.625 11.200 C 1.576 11.514,1.607 12.042,1.692 12.333 C 1.840 12.840,2.097 13.269,2.469 13.626 C 2.850 13.991,3.223 14.200,3.725 14.326 C 3.922 14.376,4.030 14.385,4.400 14.384 C 4.787 14.383,4.871 14.374,5.099 14.313 C 5.563 14.189,6.051 13.919,6.238 13.683 C 6.476 13.381,6.450 12.909,6.180 12.649 C 5.873 12.352,5.544 12.327,5.127 12.567 C 4.841 12.732,4.634 12.800,4.417 12.800 C 3.796 12.800,3.315 12.390,3.222 11.781 C 3.176 11.480,3.218 11.292,3.413 10.919 C 3.597 10.567,3.624 10.441,3.560 10.224 C 3.481 9.952,3.289 9.741,3.043 9.658 C 2.921 9.616,2.651 9.622,2.522 9.669 " fill="#1A1C1F" stroke="none" fill-rule="evenodd"></path></svg>