<svg xmlns="http://www.w3.org/2000/svg" width="20" height="20" fill="none"><g clip-path="url(#a)"><path fill="#1A1C1F" fill-rule="evenodd" d="M4.093 12.212c.408.307.545.94.198 1.4a1.5 1.5 0 0 0 2.115 2.089 1 1 0 0 1 1.223 1.583 3.5 3.5 0 0 1-4.936-4.874 1 1 0 0 1 1.4-.198m2.851-2.015q.39 1.157.773 2.316h1.12c.746 0 1.493.412 1.838 1.213q.622 1.445 1.24 2.893a1 1 0 0 1-.525 1.313c-.472.203-1.087 0-1.313-.525q-.624-1.445-1.24-2.894h-1.12a2 2 0 0 1-1.841-1.217l-.829-2.466a1 1 0 1 1 1.897-.633M5.491 6.28c.623 0 1.151.527 1.151 1.151 0 .648-.528 1.152-1.152 1.152A1.137 1.137 0 0 1 4.34 7.43c0-.624.504-1.151 1.151-1.151m1.912-3.6c0-.4.356-.651.692-.651a.63.63 0 0 1 .63.504l.581 2.676.656-2.697c.077-.317.378-.483.65-.483.273 0 .574.16.65.483l.642 2.707.576-2.686c.076-.359.356-.504.629-.504.357 0 .692.252.692.65a.7.7 0 0 1-.02.19l-1.218 4.677c-.087.335-.377.483-.65.483a.654.654 0 0 1-.65-.483l-.671-2.37-.672 2.37c-.096.339-.377.483-.65.483a.664.664 0 0 1-.65-.503L7.423 2.867a.8.8 0 0 1-.021-.189m6.6 2.339c0-2.74 1.62-3.031 2.325-3.031.415 0 .851.083 1.246.27.29.124.415.352.415.58 0 .354-.27.707-.644.707a.64.64 0 0 1-.27-.062 1.7 1.7 0 0 0-.685-.167c-.29 0-1.059 0-1.059 1.703 0 1.64.686 1.64 1.06 1.64.248-.02.498-.083.726-.166.083-.02.166-.042.249-.042.374 0 .644.353.644.706 0 .25-.125.478-.436.602-.395.125-.81.208-1.225.229-.872 0-2.346-.395-2.346-2.97" clip-rule="evenodd"/></g><defs><clipPath id="a"><path fill="#fff" d="M0 0h20v20H0z"/></clipPath></defs></svg>