<svg xmlns="http://www.w3.org/2000/svg" width="32" height="32" fill="none"><path fill="#1A1C1F" fill-rule="evenodd" d="M24.89 3.597c-1.166.334-1.888 1.263-2.15 2.766-.12.692-.078 2.131.081 2.73.405 1.534 1.427 2.374 2.887 2.374.817 0 1.751-.228 2.022-.493.41-.401.314-1.062-.206-1.413-.228-.154-.396-.151-.99.013-.764.211-1.355.151-1.638-.168-.325-.366-.505-1.232-.451-2.176.06-1.058.288-1.59.793-1.849.28-.143.856-.137 1.257.014.631.237.982.181 1.276-.204.129-.17.149-.244.149-.557 0-.339-.011-.373-.182-.549-.125-.129-.325-.241-.64-.358-.422-.158-.517-.172-1.205-.187-.518-.011-.825.006-1.003.057m-10.651.096c-.246.168-.376.361-.406.605-.033.258 1.578 6.585 1.73 6.795.124.172.519.374.73.374.272 0 .626-.213.753-.454.062-.117.302-.891.533-1.72.232-.828.433-1.506.448-1.506.014 0 .228.71.475 1.578s.499 1.653.561 1.745c.348.517 1.281.416 1.517-.163.139-.342 1.672-6.353 1.671-6.553-.002-.473-.31-.774-.83-.812-.377-.027-.62.077-.778.334-.061.098-.254.878-.482 1.95-.332 1.552-.428 1.955-.428 1.794s-.87-3.652-.935-3.751c-.291-.444-1.153-.453-1.465-.015-.065.092-.27.831-.545 1.968-.274 1.133-.455 1.786-.478 1.727-.021-.053-.197-.84-.391-1.749-.195-.909-.394-1.737-.443-1.839-.136-.283-.391-.428-.756-.428-.228 0-.349.031-.481.12M8.905 8.612c-.358.115-.796.445-1.026.774-.276.396-.378.769-.347 1.276.032.545.212.918.628 1.303.42.388.789.533 1.36.533.604 0 .968-.15 1.391-.573.432-.432.577-.789.579-1.418.001-.4-.019-.496-.168-.812a2.1 2.1 0 0 0-.959-.983c-.368-.179-1.062-.227-1.458-.1m-.828 6.027c-.386.194-.53.435-.53.885 0 .321.017.381.163.564.251.314.45.391 1.01.394.563.003.913.061 1.022.17.043.043.426 1.252.851 2.687s.807 2.66.849 2.724.164.184.273.267l.197.15 1.956.015 1.956.015.922 2.145c.507 1.18.976 2.253 1.043 2.385.285.564.811.777 1.333.54.423-.192.681-.683.565-1.071-.031-.104-.563-1.389-1.182-2.856-.722-1.711-1.176-2.721-1.268-2.82-.275-.293-.326-.3-2.347-.3h-1.861l-.282-.946a83 83 0 0 0-.306-1.011c-.018-.05.354-.068 1.576-.08l1.6-.016.205-.163c.112-.09.26-.27.328-.4a.95.95 0 0 0-.353-1.234c-.194-.121-.23-.123-2.088-.15l-1.891-.026-.062-.216a2.39 2.39 0 0 0-1.186-1.455c-.431-.23-.918-.327-1.64-.328-.522-.001-.619.014-.853.131m-2.29 3.967c-.566.258-1.289 1.452-1.613 2.665-.122.456-.138.618-.138 1.396 0 .775.016.94.137 1.39.295 1.104.799 1.995 1.554 2.747 2.011 2.004 5.047 2.271 7.461.656.443-.296 1.376-1.244 1.522-1.546.064-.133.116-.323.115-.424-.002-.412-.334-.843-.733-.954-.485-.135-.737-.02-1.291.586-.906.992-1.94 1.435-3.196 1.37-.999-.052-1.743-.386-2.458-1.104-.77-.772-1.12-1.616-1.12-2.695 0-.864.267-1.68.763-2.33.349-.457.427-.702.346-1.084-.093-.435-.534-.774-1.003-.771a1.1 1.1 0 0 0-.346.098"/></svg>