<svg width="12" height="12" viewBox="0 0 12 12" fill="none" xmlns="http://www.w3.org/2000/svg"><path d="M9.600 1.211 C 9.240 1.274,9.028 1.385,8.814 1.621 C 8.650 1.802,8.524 2.080,8.447 2.425 C 8.400 2.641,8.401 3.350,8.449 3.580 C 8.527 3.955,8.657 4.216,8.872 4.428 C 9.110 4.664,9.415 4.780,9.795 4.780 C 10.130 4.780,10.545 4.680,10.679 4.568 C 10.851 4.423,10.829 4.111,10.635 3.954 C 10.533 3.871,10.433 3.865,10.179 3.927 C 9.889 3.998,9.786 4.008,9.651 3.980 C 9.557 3.961,9.518 3.940,9.449 3.870 C 9.269 3.690,9.213 3.487,9.214 3.010 C 9.214 2.652,9.245 2.467,9.330 2.295 C 9.400 2.155,9.464 2.092,9.587 2.039 C 9.673 2.002,9.714 1.997,9.850 2.005 C 9.938 2.011,10.095 2.040,10.198 2.070 C 10.421 2.135,10.512 2.129,10.617 2.045 C 10.793 1.904,10.841 1.676,10.729 1.516 C 10.656 1.412,10.458 1.305,10.238 1.252 C 10.097 1.218,9.706 1.193,9.600 1.211 M4.710 1.252 C 4.666 1.268,4.596 1.314,4.555 1.355 C 4.457 1.451,4.430 1.546,4.461 1.696 C 4.521 1.995,5.087 4.215,5.170 4.477 C 5.225 4.652,5.276 4.715,5.411 4.778 C 5.560 4.848,5.717 4.820,5.841 4.701 C 5.924 4.620,5.916 4.645,6.180 3.720 C 6.289 3.339,6.359 3.125,6.366 3.150 C 6.373 3.172,6.442 3.415,6.520 3.690 C 6.733 4.440,6.794 4.619,6.867 4.696 C 7.004 4.840,7.266 4.848,7.415 4.712 C 7.469 4.662,7.494 4.611,7.542 4.450 C 7.704 3.908,8.242 1.843,8.270 1.655 C 8.289 1.529,8.255 1.439,8.151 1.343 C 7.987 1.192,7.748 1.182,7.600 1.320 C 7.527 1.388,7.496 1.496,7.311 2.326 C 7.181 2.912,7.123 3.131,7.121 3.049 C 7.119 3.004,6.797 1.683,6.749 1.526 C 6.707 1.388,6.687 1.352,6.626 1.306 C 6.562 1.257,6.533 1.249,6.382 1.243 C 6.212 1.237,6.209 1.237,6.119 1.306 C 6.008 1.391,6.012 1.377,5.769 2.358 C 5.673 2.746,5.588 3.055,5.580 3.046 C 5.572 3.037,5.510 2.774,5.441 2.460 C 5.205 1.376,5.194 1.343,5.036 1.270 C 4.917 1.214,4.827 1.209,4.710 1.252 M3.086 3.808 C 2.895 3.870,2.708 4.047,2.647 4.226 C 2.590 4.390,2.599 4.607,2.670 4.751 C 2.784 4.985,2.981 5.117,3.240 5.135 C 3.468 5.150,3.587 5.109,3.748 4.959 C 3.818 4.893,3.891 4.807,3.910 4.768 C 3.985 4.608,3.985 4.311,3.909 4.150 C 3.858 4.043,3.706 3.900,3.580 3.843 C 3.448 3.782,3.215 3.766,3.086 3.808 M3.422 5.743 C 3.214 5.803,3.032 6.019,3.007 6.237 C 2.994 6.350,3.021 6.458,3.194 6.990 C 3.401 7.624,3.579 8.104,3.636 8.179 C 3.740 8.317,3.948 8.499,4.080 8.569 C 4.280 8.673,4.430 8.701,4.898 8.716 L 5.309 8.730 5.670 9.570 C 5.869 10.032,6.047 10.438,6.065 10.472 C 6.123 10.582,6.279 10.717,6.398 10.762 C 6.484 10.794,6.540 10.802,6.640 10.795 C 6.951 10.773,7.160 10.557,7.189 10.225 L 7.202 10.080 6.959 9.515 C 6.324 8.044,6.286 7.969,6.096 7.814 C 5.978 7.719,5.831 7.631,5.700 7.579 C 5.602 7.540,5.539 7.534,5.112 7.523 L 4.635 7.510 4.402 6.820 C 4.274 6.441,4.148 6.087,4.123 6.035 C 4.005 5.794,3.695 5.665,3.422 5.743 M1.920 7.239 C 1.648 7.321,1.381 7.713,1.256 8.214 C 1.219 8.361,1.212 8.444,1.213 8.720 C 1.214 9.008,1.220 9.074,1.265 9.241 C 1.478 10.041,2.156 10.648,2.985 10.781 C 3.200 10.815,3.585 10.797,3.797 10.742 C 4.156 10.648,4.535 10.441,4.678 10.260 C 4.774 10.139,4.808 10.018,4.796 9.845 C 4.784 9.687,4.736 9.581,4.627 9.477 C 4.403 9.265,4.153 9.248,3.845 9.426 C 3.631 9.549,3.475 9.600,3.312 9.600 C 2.847 9.600,2.487 9.292,2.417 8.835 C 2.382 8.610,2.413 8.469,2.559 8.189 C 2.698 7.925,2.717 7.834,2.670 7.666 C 2.595 7.399,2.365 7.218,2.103 7.222 C 2.030 7.223,1.947 7.230,1.920 7.239 " fill="#1A1C1F" stroke="none" fill-rule="evenodd"></path></svg>