<svg xmlns="http://www.w3.org/2000/svg" width="14" height="14" fill="none"><g clip-path="url(#a)"><path fill="#1A1C1F" fill-rule="evenodd" d="M2.865 8.548a.71.71 0 0 1 .139.98 1.05 1.05 0 0 0 1.48 1.462.7.7 0 0 1 .856 1.109 2.45 2.45 0 0 1-3.455-3.412.7.7 0 0 1 .98-.139m1.996-1.41q.273.81.54 1.621h.784c.523 0 1.046.289 1.287.849q.435 1.011.868 2.026a.7.7 0 0 1-.367.919.71.71 0 0 1-.92-.368q-.435-1.011-.868-2.026h-.783a1.4 1.4 0 0 1-1.289-.852l-.58-1.726a.7.7 0 0 1 1.328-.443M3.843 4.395c.437 0 .806.37.806.806 0 .453-.369.806-.806.806a.796.796 0 0 1-.806-.806c0-.437.353-.806.806-.806m1.339-2.52c0-.28.25-.455.484-.455.191 0 .39.115.441.352l.408 1.874.458-1.889c.054-.221.265-.337.456-.337.19 0 .401.112.455.337l.449 1.896.403-1.88a.43.43 0 0 1 .44-.353c.25 0 .485.176.485.455a.5.5 0 0 1-.015.132l-.852 3.275c-.06.234-.264.338-.455.338a.46.46 0 0 1-.455-.338l-.47-1.66-.47 1.66a.454.454 0 0 1-.455.338.465.465 0 0 1-.455-.353l-.837-3.26a.5.5 0 0 1-.015-.132m4.62 1.637c0-1.918 1.133-2.121 1.628-2.121.29 0 .595.058.872.189.203.087.29.247.29.407 0 .247-.189.494-.45.494a.45.45 0 0 1-.19-.044 1.2 1.2 0 0 0-.479-.116c-.203 0-.741 0-.741 1.191 0 1.149.48 1.149.741 1.149a2 2 0 0 0 .509-.117c.058-.014.116-.029.174-.029.262 0 .45.247.45.494 0 .175-.086.335-.304.422a3.4 3.4 0 0 1-.858.16c-.61 0-1.642-.276-1.642-2.079" clip-rule="evenodd"/></g><defs><clipPath id="a"><path fill="#fff" d="M0 0h14v14H0z"/></clipPath></defs></svg>