<svg xmlns="http://www.w3.org/2000/svg" width="16" height="16" fill="none"><g clip-path="url(#a)"><path fill="#1A1C1F" fill-rule="evenodd" d="M3.275 9.77a.81.81 0 0 1 .158 1.12 1.2 1.2 0 0 0 1.692 1.671.8.8 0 1 1 .978 1.266 2.8 2.8 0 0 1-3.949-3.9.8.8 0 0 1 1.12-.157m2.28-1.612q.312.924.618 1.853h.896c.598 0 1.195.33 1.47.97q.5 1.155.993 2.315a.8.8 0 0 1-.42 1.05.81.81 0 0 1-1.05-.42q-.5-1.156-.993-2.315h-.896a1.6 1.6 0 0 1-1.472-.974l-.663-1.973a.8.8 0 0 1 1.518-.506M4.393 5.023c.5 0 .922.422.922.921a.92.92 0 0 1-.922.921.91.91 0 0 1-.92-.92c0-.5.402-.922.92-.922m1.53-2.88c0-.32.285-.52.554-.52.218 0 .445.132.504.402l.465 2.142.525-2.159c.061-.253.302-.386.52-.386s.459.128.52.386l.513 2.167.46-2.15a.49.49 0 0 1 .504-.403c.285 0 .554.202.554.52q.002.075-.017.152l-.973 3.742c-.07.268-.302.386-.52.386a.52.52 0 0 1-.52-.386L8.472 4.14l-.537 1.896a.52.52 0 0 1-.52.386.53.53 0 0 1-.52-.402l-.957-3.726a.6.6 0 0 1-.017-.151m5.28 1.871c0-2.192 1.296-2.425 1.86-2.425.333 0 .681.067.997.216.232.1.332.283.332.465 0 .283-.216.565-.515.565a.5.5 0 0 1-.216-.05 1.3 1.3 0 0 0-.548-.133c-.232 0-.847 0-.847 1.362 0 1.312.548 1.312.847 1.312.2-.016.399-.066.582-.132.066-.017.132-.034.199-.034.299 0 .515.283.515.565 0 .2-.1.382-.349.482-.316.1-.648.166-.98.182-.698 0-1.877-.315-1.877-2.375" clip-rule="evenodd"/></g><defs><clipPath id="a"><path fill="#fff" d="M0 0h16v16H0z"/></clipPath></defs></svg>