<svg width="20" height="20" viewBox="0 0 20 20" fill="none" xmlns="http://www.w3.org/2000/svg"><path d="M13.877 2.046 C 13.580 2.143,13.348 2.351,13.223 2.632 C 13.164 2.764,13.153 2.880,13.135 3.540 C 13.124 3.956,13.108 4.303,13.099 4.311 C 13.090 4.320,12.858 4.359,12.583 4.398 C 11.730 4.522,11.485 4.581,11.307 4.708 C 10.652 5.177,10.842 6.226,11.623 6.453 C 11.832 6.514,11.884 6.511,12.917 6.375 C 13.866 6.250,14.458 6.255,15.533 6.398 C 16.004 6.460,16.415 6.499,16.504 6.488 C 17.313 6.396,17.674 5.398,17.110 4.816 C 16.901 4.601,16.726 4.545,15.892 4.428 L 15.139 4.322 15.127 3.519 C 15.113 2.614,15.103 2.570,14.866 2.333 C 14.606 2.073,14.177 1.948,13.877 2.046 M5.892 6.799 C 5.291 6.909,4.668 7.283,4.268 7.773 C 4.052 8.038,3.820 8.504,3.731 8.850 C 3.595 9.379,3.656 10.071,3.884 10.588 C 4.209 11.324,4.922 11.932,5.717 12.152 C 5.984 12.226,6.600 12.252,6.888 12.202 C 7.742 12.053,8.550 11.408,8.915 10.584 C 9.076 10.219,9.111 10.021,9.114 9.467 C 9.116 8.966,9.113 8.940,9.006 8.633 C 8.848 8.177,8.672 7.898,8.319 7.546 C 8.055 7.284,7.967 7.220,7.665 7.071 C 7.473 6.977,7.227 6.877,7.117 6.849 C 6.881 6.789,6.118 6.757,5.892 6.799 M11.656 7.301 C 11.509 7.345,11.343 7.488,11.245 7.655 C 11.070 7.954,11.145 8.333,11.424 8.564 C 11.918 8.973,12.635 8.626,12.633 7.979 C 12.633 7.835,12.510 7.547,12.412 7.460 C 12.231 7.299,11.896 7.229,11.656 7.301 M16.121 7.313 C 15.719 7.463,15.528 7.975,15.740 8.337 C 15.852 8.526,16.025 8.662,16.237 8.724 C 16.382 8.766,16.421 8.765,16.591 8.716 C 17.065 8.579,17.272 8.049,17.020 7.620 C 16.854 7.336,16.439 7.195,16.121 7.313 M13.808 7.771 C 13.361 7.992,13.267 8.588,13.622 8.947 C 14.030 9.360,14.713 9.161,14.871 8.584 C 14.952 8.287,14.754 7.900,14.452 7.763 C 14.265 7.678,13.988 7.681,13.808 7.771 M10.937 9.540 C 10.663 9.601,10.400 9.949,10.400 10.250 C 10.400 10.639,10.767 11.000,11.163 11.000 C 11.407 11.000,11.690 10.808,11.815 10.557 C 11.925 10.337,11.924 10.162,11.813 9.939 C 11.712 9.736,11.566 9.613,11.346 9.547 C 11.170 9.494,11.143 9.494,10.937 9.540 M16.960 9.531 C 16.632 9.597,16.366 9.981,16.412 10.321 C 16.466 10.715,16.787 11.002,17.171 10.999 C 17.429 10.998,17.748 10.755,17.853 10.480 C 18.048 9.968,17.529 9.417,16.960 9.531 M13.817 10.079 C 13.617 10.173,13.559 10.234,13.464 10.449 C 13.326 10.759,13.450 11.166,13.740 11.358 C 13.917 11.475,14.263 11.504,14.437 11.416 C 14.842 11.212,14.996 10.783,14.800 10.402 C 14.721 10.247,14.617 10.153,14.433 10.069 C 14.233 9.979,14.023 9.982,13.817 10.079 M3.816 14.032 C 3.222 14.050,3.212 14.051,2.996 14.158 C 2.425 14.439,2.055 15.025,2.111 15.558 C 2.132 15.764,2.322 16.346,2.598 17.056 C 2.797 17.565,2.933 17.746,3.226 17.890 C 3.701 18.123,4.307 17.915,4.539 17.440 C 4.601 17.314,4.615 17.228,4.615 17.000 C 4.615 16.752,4.599 16.676,4.488 16.389 C 4.419 16.208,4.369 16.053,4.379 16.043 C 4.389 16.034,5.297 16.018,6.398 16.008 C 8.122 15.992,8.400 15.997,8.400 16.038 C 8.400 16.064,8.347 16.242,8.282 16.434 C 8.101 16.966,8.126 17.249,8.385 17.602 C 8.607 17.905,9.046 18.035,9.452 17.918 C 9.613 17.872,9.684 17.826,9.834 17.672 C 9.997 17.505,10.039 17.431,10.194 17.036 C 10.649 15.879,10.718 15.574,10.619 15.153 C 10.547 14.844,10.428 14.637,10.196 14.415 C 9.897 14.130,9.710 14.060,9.167 14.029 C 8.666 14.001,4.756 14.003,3.816 14.032 " fill="#1A1C1F" stroke="none" fill-rule="evenodd"></path></svg>