<svg xmlns="http://www.w3.org/2000/svg" width="20" height="20" fill="none"><g clip-path="url(#a)"><path fill="#1A1C1F" fill-rule="evenodd" d="M6.417 6.751A2.714 2.714 0 0 1 9.145 9.48a2.754 2.754 0 0 1-2.728 2.771A2.79 2.79 0 0 1 3.645 9.48 2.754 2.754 0 0 1 6.417 6.75m7.56 3.255a.75.75 0 1 1 .336 1.462.75.75 0 0 1-.337-1.462m2.79-.403a.75.75 0 1 1 .754 1.299.75.75 0 0 1-.753-1.299m-6.27.27a.75.75 0 1 1 1.295.753.75.75 0 0 1-1.295-.754m3.48-2.175a.75.75 0 1 1 .336 1.461.75.75 0 0 1-.337-1.462m-2.73-.074a.75.75 0 1 1 1.295.754.75.75 0 0 1-1.295-.754m4.77-.27a.75.75 0 1 1 .755 1.297.75.75 0 0 1-.754-1.298M14.146 2c.513 0 1 .429 1 1v1.324l.414.051.981.136a1 1 0 1 1-.29 1.979l-1.266-.17a5.088 5.088 0 0 0-1.678 0l-1.266.17a1 1 0 0 1-.29-1.98l.982-.135.413-.049V3.001a1 1 0 0 1 1-1m-4.974 12c1.224 0 1.72 1.185 1.402 2.032q-.243.65-.493 1.3a1 1 0 0 1-1.29.582 1.02 1.02 0 0 1-.58-1.29q.115-.312.235-.624H4.338l.244.65a.995.995 0 0 1-.586 1.287 1.01 1.01 0 0 1-1.287-.585q-.252-.662-.497-1.325c-.436-1.163.544-2.026 1.405-2.027q2.776-.003 5.554 0" clip-rule="evenodd"/></g><defs><clipPath id="a"><path fill="#fff" d="M0 0h20v20H0z"/></clipPath></defs></svg>