<svg width="16" height="16" viewBox="0 0 16 16" fill="none" xmlns="http://www.w3.org/2000/svg"><path d="M11.153 1.649 C 10.961 1.717,10.777 1.880,10.682 2.064 C 10.604 2.215,10.604 2.217,10.588 2.826 C 10.579 3.162,10.565 3.444,10.558 3.451 C 10.550 3.459,10.298 3.501,9.998 3.544 C 9.699 3.587,9.387 3.644,9.307 3.671 C 9.131 3.728,8.956 3.891,8.872 4.075 C 8.789 4.255,8.791 4.554,8.875 4.725 C 8.995 4.968,9.247 5.156,9.501 5.190 C 9.566 5.199,9.897 5.168,10.280 5.117 C 11.194 4.997,11.606 4.997,12.520 5.117 C 12.903 5.168,13.234 5.199,13.299 5.190 C 13.553 5.155,13.804 4.969,13.923 4.726 C 14.008 4.553,14.010 4.254,13.928 4.075 C 13.844 3.891,13.669 3.728,13.493 3.671 C 13.413 3.644,13.101 3.587,12.802 3.544 C 12.502 3.501,12.250 3.459,12.243 3.452 C 12.235 3.444,12.221 3.171,12.210 2.846 C 12.199 2.520,12.178 2.212,12.163 2.162 C 12.041 1.767,11.539 1.511,11.153 1.649 M4.516 5.515 C 3.236 5.968,2.649 7.370,3.241 8.566 C 3.401 8.890,3.829 9.345,4.120 9.501 C 4.954 9.949,5.883 9.869,6.599 9.288 C 7.145 8.846,7.472 8.047,7.388 7.360 C 7.358 7.114,7.266 6.794,7.169 6.605 C 6.932 6.139,6.491 5.741,5.987 5.541 C 5.776 5.457,5.767 5.455,5.253 5.447 C 4.738 5.438,4.731 5.439,4.516 5.515 M9.418 5.838 C 9.194 5.895,9.013 6.146,9.014 6.398 C 9.015 6.742,9.262 6.988,9.606 6.986 C 9.939 6.985,10.187 6.735,10.187 6.400 C 10.187 6.079,9.979 5.852,9.663 5.828 C 9.577 5.821,9.467 5.826,9.418 5.838 M13.018 5.838 C 12.794 5.895,12.613 6.146,12.614 6.398 C 12.615 6.742,12.862 6.988,13.206 6.986 C 13.539 6.985,13.787 6.735,13.787 6.400 C 13.787 6.079,13.579 5.852,13.263 5.828 C 13.177 5.821,13.067 5.826,13.018 5.838 M11.174 6.190 C 10.875 6.309,10.717 6.692,10.852 6.971 C 10.955 7.183,11.184 7.334,11.403 7.333 C 11.710 7.333,12.000 7.044,12.000 6.738 C 12.000 6.634,11.901 6.389,11.833 6.327 C 11.670 6.178,11.364 6.114,11.174 6.190 M8.807 7.630 C 8.688 7.664,8.462 7.896,8.428 8.020 C 8.346 8.314,8.473 8.592,8.752 8.731 C 8.964 8.837,9.162 8.812,9.369 8.655 C 9.504 8.552,9.575 8.426,9.592 8.255 C 9.634 7.848,9.213 7.512,8.807 7.630 M13.619 7.634 C 13.396 7.707,13.199 7.971,13.201 8.199 C 13.201 8.320,13.280 8.515,13.368 8.610 C 13.449 8.698,13.674 8.799,13.789 8.800 C 14.098 8.801,14.401 8.503,14.399 8.201 C 14.398 8.004,14.244 7.765,14.055 7.667 C 13.949 7.613,13.736 7.596,13.619 7.634 M11.208 8.019 C 11.175 8.025,11.089 8.083,11.017 8.149 C 10.752 8.386,10.732 8.708,10.964 8.972 C 11.094 9.119,11.218 9.177,11.405 9.177 C 11.695 9.177,11.916 8.991,11.977 8.693 C 12.016 8.503,11.976 8.353,11.850 8.213 C 11.687 8.032,11.472 7.967,11.208 8.019 M3.587 11.225 C 3.327 11.239,3.202 11.259,3.089 11.303 C 2.784 11.422,2.457 11.684,2.265 11.963 C 2.168 12.103,1.795 12.962,1.675 13.319 C 1.582 13.594,1.583 13.733,1.677 13.928 C 1.870 14.327,2.323 14.497,2.699 14.312 C 2.961 14.183,3.067 14.023,3.412 13.240 L 3.588 12.840 3.974 12.823 C 4.186 12.814,4.906 12.805,5.574 12.803 L 6.787 12.800 6.904 13.073 C 7.278 13.947,7.432 14.175,7.747 14.324 C 8.040 14.463,8.289 14.409,8.549 14.149 C 8.804 13.893,8.851 13.695,8.736 13.351 C 8.644 13.078,8.305 12.283,8.199 12.091 C 7.973 11.683,7.632 11.402,7.200 11.267 C 7.070 11.226,6.878 11.220,5.493 11.213 C 4.635 11.209,3.777 11.214,3.587 11.225 " fill="#1A1C1F" stroke="none" fill-rule="evenodd"></path></svg>