<svg width="28" height="28" viewBox="0 0 28 28" fill="none" xmlns="http://www.w3.org/2000/svg"><path d="M20.183 1.861 C 19.737 2.066,19.698 2.212,19.695 3.669 L 19.693 4.841 19.145 4.922 C 18.367 5.037,17.221 5.337,16.818 5.531 C 16.417 5.724,16.253 5.910,16.210 6.223 C 16.152 6.649,16.435 7.076,16.849 7.187 C 17.021 7.233,17.116 7.217,17.799 7.024 C 19.082 6.661,19.302 6.628,20.440 6.627 C 21.851 6.627,22.166 6.674,23.644 7.113 C 24.012 7.222,24.097 7.232,24.260 7.189 C 24.926 7.009,25.139 6.154,24.626 5.715 C 24.312 5.446,23.327 5.145,22.120 4.948 C 21.799 4.896,21.524 4.853,21.508 4.853 C 21.492 4.853,21.469 4.313,21.455 3.652 C 21.440 2.887,21.411 2.399,21.376 2.310 C 21.200 1.865,20.636 1.653,20.183 1.861 M17.548 8.857 C 17.459 8.906,17.322 9.025,17.245 9.121 C 17.119 9.276,17.104 9.329,17.104 9.609 C 17.103 9.867,17.124 9.954,17.220 10.096 C 17.353 10.292,17.725 10.501,17.941 10.499 C 18.278 10.497,18.647 10.212,18.761 9.866 C 18.874 9.525,18.687 9.045,18.379 8.886 C 18.143 8.764,17.741 8.750,17.548 8.857 M22.770 8.882 C 22.488 9.031,22.286 9.404,22.326 9.701 C 22.382 10.119,22.708 10.452,23.099 10.489 C 23.697 10.547,24.203 9.926,24.008 9.374 C 23.825 8.856,23.250 8.627,22.770 8.882 M7.470 9.708 C 6.569 9.897,5.478 10.557,4.930 11.243 C 4.604 11.652,4.328 12.161,4.148 12.682 C 3.994 13.131,3.992 13.147,3.991 13.977 C 3.990 14.942,4.042 15.180,4.419 15.945 C 4.978 17.078,5.930 17.856,7.204 18.221 C 7.562 18.324,7.708 18.340,8.304 18.340 C 9.105 18.340,9.482 18.263,10.099 17.974 C 10.640 17.721,11.024 17.451,11.435 17.037 C 11.995 16.473,12.334 15.866,12.559 15.024 C 12.718 14.427,12.710 13.534,12.541 12.917 C 12.246 11.843,11.630 10.980,10.718 10.363 C 10.419 10.160,9.797 9.873,9.450 9.777 C 9.122 9.686,7.795 9.639,7.470 9.708 M20.183 9.731 C 19.971 9.846,19.875 9.945,19.781 10.150 C 19.556 10.640,19.826 11.188,20.367 11.339 C 20.751 11.447,21.155 11.243,21.332 10.852 C 21.499 10.486,21.392 10.066,21.069 9.820 C 20.852 9.654,20.409 9.609,20.183 9.731 M8.681 11.434 C 9.939 11.585,10.919 12.709,10.919 14.000 C 10.919 15.662,9.326 16.924,7.711 16.543 C 6.667 16.297,5.906 15.455,5.742 14.364 C 5.534 12.989,6.511 11.640,7.863 11.434 C 8.204 11.382,8.247 11.382,8.681 11.434 M16.707 11.458 C 16.464 11.568,16.345 11.701,16.260 11.957 C 16.147 12.298,16.200 12.558,16.434 12.813 C 16.657 13.054,16.869 13.135,17.185 13.097 C 17.775 13.027,18.093 12.367,17.805 11.809 C 17.633 11.478,17.066 11.296,16.707 11.458 M23.730 11.473 C 23.058 11.793,23.017 12.684,23.659 13.008 C 23.983 13.172,24.393 13.124,24.657 12.890 C 24.791 12.770,24.918 12.461,24.918 12.250 C 24.918 11.638,24.271 11.215,23.730 11.473 M20.168 12.371 C 19.782 12.567,19.607 13.014,19.760 13.415 C 20.010 14.068,20.887 14.193,21.261 13.628 C 21.427 13.378,21.462 12.967,21.337 12.741 C 21.101 12.315,20.594 12.154,20.168 12.371 M15.926 14.050 C 15.843 14.075,15.693 14.174,15.592 14.269 C 15.037 14.798,15.405 15.727,16.170 15.727 C 16.714 15.727,17.158 15.210,17.029 14.729 C 17.000 14.623,16.947 14.479,16.910 14.408 C 16.765 14.126,16.270 13.947,15.926 14.050 M24.681 14.045 C 24.133 14.212,23.896 14.948,24.248 15.384 C 24.736 15.987,25.673 15.755,25.786 15.003 C 25.837 14.660,25.644 14.272,25.346 14.121 C 25.182 14.038,24.833 13.998,24.681 14.045 M20.207 14.958 C 19.964 15.068,19.845 15.201,19.760 15.457 C 19.650 15.788,19.700 16.056,19.918 16.297 C 20.207 16.617,20.557 16.696,20.934 16.525 C 21.375 16.324,21.543 15.770,21.303 15.306 C 21.133 14.978,20.564 14.797,20.207 14.958 M5.390 20.157 C 4.540 20.196,4.306 20.261,3.811 20.600 C 3.271 20.968,3.089 21.327,2.781 22.633 C 2.409 24.207,2.186 25.321,2.209 25.495 C 2.274 25.994,2.832 26.353,3.313 26.205 C 3.518 26.142,3.742 25.939,3.833 25.734 C 3.881 25.624,4.047 24.981,4.200 24.306 C 4.691 22.148,4.711 22.077,4.846 21.989 C 4.954 21.918,5.202 21.909,7.301 21.897 C 8.586 21.890,10.119 21.900,10.707 21.920 L 11.778 21.957 11.865 22.106 C 11.913 22.187,12.109 22.933,12.300 23.762 C 12.707 25.529,12.764 25.738,12.888 25.912 C 13.098 26.206,13.563 26.307,13.934 26.138 C 14.284 25.979,14.452 25.646,14.401 25.213 C 14.348 24.755,13.744 22.152,13.549 21.537 C 13.384 21.017,12.813 20.491,12.167 20.265 L 11.830 20.147 8.983 20.135 C 7.418 20.128,5.801 20.138,5.390 20.157 " fill="#1A1C1F" stroke="none" fill-rule="evenodd"></path></svg>