<svg xmlns="http://www.w3.org/2000/svg" width="32" height="32" fill="none"><g clip-path="url(#a)"><path fill="#1A1C1F" fill-rule="evenodd" d="M12.494 23.02c2.142 0 4.067 1.835 4 4V29a1 1 0 1 1-2 0q-.003-.99 0-1.98c0-1.054-.922-2-2-2H6.508c-1.055 0-2.014.825-2 2q-.003.99 0 1.98a1 1 0 1 1-2 0q-.003-.99 0-1.98c0-2.142 1.724-4 4-4zm-3-12.02a5 5 0 1 1 0 10 5 5 0 0 1 0-10m0 2a3 3 0 1 0 0 6 3 3 0 0 0 0-6m13.152 4.47a1 1 0 1 1 1.696 1.06 1 1 0 0 1-1.696-1.06m-5.017-.973a.999.999 0 1 1 1.73 1.006 1 1 0 1 1-1.73-1.006m10 0a.999.999 0 1 1 1.73 1.006 1 1 0 1 1-1.73-1.006m-4.983-2.027a1 1 0 1 1 1.696 1.06 1 1 0 0 1-1.696-1.06m-4.017-.973a.999.999 0 1 1 1.73 1.006 1 1 0 1 1-1.73-1.006m8.362-.361a1 1 0 0 1 1.006 1.729 1 1 0 0 1-1.006-1.73m-4.345-1.666a1 1 0 1 1 1.696 1.06 1 1 0 0 1-1.696-1.06m-3.017-.973a1 1 0 1 1 1.728 1.005 1 1 0 0 1-1.728-1.005m6.362-.361a1 1 0 1 1 1.005 1.73 1 1 0 0 1-1.005-1.73M23.494 2a1 1 0 0 1 1 1v2.543q1.68.144 3.351.77a1 1 0 1 1-.702 1.873Q25.31 7.5 23.493 7.5q-1.814 0-3.648.686a1 1 0 1 1-.702-1.872 12.6 12.6 0 0 1 3.351-.771V3a1 1 0 0 1 1-1" clip-rule="evenodd"/></g><defs><clipPath id="a"><path fill="#fff" d="M0 0h32v32H0z"/></clipPath></defs></svg>