<svg xmlns="http://www.w3.org/2000/svg" width="16" height="16" fill="none"><g clip-path="url(#a)"><path fill="#1A1C1F" fill-rule="evenodd" d="M6.8 11.2a2 2 0 0 1 1.996 1.868l.005.132v.4a.8.8 0 0 1-.8.8c-.41 0-.795-.3-.8-.8a19 19 0 0 1 0-.4c0-.196-.146-.4-.4-.4a813 813 0 0 0-3.2 0 .394.394 0 0 0-.4.4q-.003.2 0 .4a.8.8 0 1 1-1.6 0 18 18 0 0 1 0-.4c0-1.06.842-2 2-2q1.6-.003 3.2 0M5.219 5.4A2.17 2.17 0 0 1 7.4 7.583 2.203 2.203 0 0 1 5.218 9.8 2.233 2.233 0 0 1 3 7.583 2.203 2.203 0 0 1 5.218 5.4m6.047 2.604a.6.6 0 1 1 .27 1.17.6.6 0 0 1-.27-1.17M13.5 7.68a.6.6 0 1 1 .603 1.04.6.6 0 0 1-.603-1.04m-5.017.216a.6.6 0 1 1 1.036.603.6.6 0 0 1-1.036-.603m2.784-1.74a.6.6 0 1 1 .27 1.17.6.6 0 0 1-.27-1.17m-2.184-.059a.6.6 0 1 1 1.036.603.6.6 0 0 1-1.036-.603m3.817-.217a.6.6 0 1 1 .603 1.038.6.6 0 0 1-.603-1.038M11.4 1.6c.41 0 .8.343.8.8v1.06l.33.04.786.108a.8.8 0 0 1-.232 1.583l-1.013-.135a4.2 4.2 0 0 0-1.343 0l-1.012.135a.8.8 0 0 1-.232-1.583l.785-.108.33-.04V2.4a.8.8 0 0 1 .8-.8" clip-rule="evenodd"/></g><defs><clipPath id="a"><path fill="#fff" d="M0 0h16v16H0z"/></clipPath></defs></svg>