<svg width="28" height="28" viewBox="0 0 28 28" fill="none" xmlns="http://www.w3.org/2000/svg"><path d="M20.260 1.807 C 20.076 1.842,19.759 2.196,19.725 2.406 C 19.708 2.507,19.694 3.097,19.694 3.716 L 19.693 4.841 19.145 4.923 C 18.397 5.036,17.229 5.334,16.844 5.511 C 16.480 5.679,16.322 5.829,16.240 6.084 C 16.102 6.517,16.286 6.901,16.737 7.122 C 17.037 7.269,16.920 7.285,18.091 6.939 C 18.933 6.690,19.554 6.610,20.627 6.611 C 21.691 6.613,22.234 6.694,23.240 7.002 C 23.587 7.109,23.954 7.199,24.057 7.202 C 24.435 7.216,24.857 6.864,24.906 6.492 C 24.944 6.215,24.842 5.903,24.663 5.746 C 24.344 5.466,23.138 5.099,21.948 4.920 L 21.427 4.841 21.412 3.572 L 21.397 2.303 21.262 2.126 C 21.044 1.840,20.686 1.726,20.260 1.807 M17.570 8.844 C 17.084 9.107,16.928 9.602,17.191 10.051 C 17.477 10.539,18.078 10.634,18.504 10.260 C 18.925 9.891,18.875 9.200,18.406 8.911 C 18.188 8.776,17.759 8.742,17.570 8.844 M22.879 8.825 C 22.571 8.914,22.306 9.303,22.308 9.660 C 22.309 9.820,22.457 10.128,22.593 10.253 C 22.741 10.389,23.014 10.500,23.200 10.500 C 23.423 10.500,23.741 10.327,23.873 10.133 C 24.128 9.760,24.114 9.416,23.832 9.073 C 23.604 8.797,23.274 8.711,22.879 8.825 M20.323 9.670 C 19.609 9.919,19.482 10.783,20.097 11.215 C 20.480 11.484,20.926 11.400,21.253 10.996 C 21.382 10.837,21.397 10.785,21.397 10.504 C 21.397 10.229,21.380 10.167,21.262 10.013 C 21.125 9.833,20.730 9.611,20.557 9.617 C 20.505 9.619,20.400 9.643,20.323 9.670 M7.235 9.776 C 6.677 9.924,5.935 10.286,5.592 10.579 C 4.988 11.093,4.524 11.713,4.274 12.337 C 4.027 12.954,3.955 13.323,3.952 13.977 C 3.949 14.821,4.137 15.524,4.564 16.260 C 4.778 16.631,5.675 17.528,6.043 17.741 C 7.303 18.468,8.699 18.563,10.035 18.013 C 10.473 17.832,10.825 17.591,11.264 17.173 C 11.988 16.485,12.320 15.928,12.550 15.018 C 12.859 13.799,12.597 12.477,11.843 11.457 C 11.576 11.094,11.057 10.585,10.743 10.376 C 10.028 9.902,9.354 9.703,8.377 9.677 C 7.744 9.661,7.634 9.670,7.235 9.776 M9.066 11.511 C 9.758 11.714,10.314 12.188,10.646 12.859 L 10.850 13.270 10.850 13.996 L 10.850 14.723 10.682 15.073 C 10.358 15.748,9.821 16.240,9.147 16.479 C 8.897 16.567,8.748 16.586,8.307 16.586 C 7.865 16.586,7.716 16.567,7.467 16.479 C 6.792 16.240,6.255 15.748,5.931 15.073 L 5.763 14.723 5.763 14.000 L 5.763 13.277 5.931 12.927 C 6.156 12.459,6.464 12.093,6.848 11.840 C 7.140 11.646,7.562 11.466,7.840 11.415 C 8.047 11.377,8.816 11.437,9.066 11.511 M16.668 11.487 C 16.094 11.771,16.040 12.607,16.573 12.960 C 17.113 13.317,17.836 12.983,17.908 12.344 C 17.955 11.930,17.724 11.576,17.318 11.440 C 17.083 11.361,16.894 11.375,16.668 11.487 M23.668 11.487 C 23.094 11.771,23.040 12.607,23.573 12.960 C 24.113 13.317,24.836 12.983,24.908 12.344 C 24.955 11.930,24.724 11.576,24.318 11.440 C 24.083 11.361,23.894 11.375,23.668 11.487 M20.265 12.313 C 20.097 12.361,19.854 12.579,19.770 12.755 C 19.552 13.216,19.837 13.806,20.353 13.961 C 20.850 14.110,21.418 13.657,21.418 13.113 C 21.418 12.919,21.285 12.611,21.150 12.491 C 20.952 12.315,20.544 12.233,20.265 12.313 M15.819 14.105 C 15.698 14.166,15.553 14.294,15.472 14.410 C 15.357 14.576,15.333 14.658,15.332 14.884 C 15.329 15.268,15.506 15.520,15.881 15.670 C 16.115 15.763,16.173 15.770,16.346 15.724 C 16.772 15.611,17.033 15.295,17.033 14.893 C 17.033 14.481,16.788 14.164,16.376 14.045 C 16.143 13.979,16.049 13.989,15.819 14.105 M24.677 14.044 C 24.209 14.192,23.951 14.767,24.144 15.230 C 24.282 15.561,24.780 15.820,25.101 15.728 C 25.674 15.564,25.955 14.998,25.705 14.514 C 25.516 14.149,25.038 13.931,24.677 14.044 M20.168 14.987 C 19.594 15.271,19.540 16.107,20.073 16.460 C 20.613 16.817,21.336 16.483,21.408 15.844 C 21.455 15.430,21.224 15.076,20.818 14.940 C 20.583 14.861,20.394 14.875,20.168 14.987 M5.367 20.206 C 4.475 20.265,3.936 20.519,3.240 21.210 C 2.897 21.551,2.776 21.710,2.600 22.055 C 2.264 22.711,2.237 22.860,2.208 24.220 C 2.179 25.550,2.200 25.708,2.440 25.963 C 2.756 26.297,3.256 26.325,3.617 26.028 C 3.910 25.786,3.930 25.692,3.965 24.335 L 3.996 23.121 4.133 22.869 C 4.320 22.525,4.595 22.255,4.919 22.097 C 5.317 21.902,5.893 21.873,8.826 21.901 L 11.328 21.924 11.598 22.057 C 12.083 22.294,12.457 22.721,12.607 23.206 C 12.632 23.289,12.668 23.883,12.685 24.527 L 12.717 25.698 12.848 25.869 C 13.204 26.337,13.907 26.339,14.262 25.874 L 14.397 25.697 14.397 24.317 C 14.397 22.989,14.392 22.924,14.286 22.610 C 13.983 21.711,13.346 20.984,12.483 20.553 C 11.728 20.176,11.897 20.193,8.727 20.181 C 7.174 20.176,5.662 20.187,5.367 20.206 " fill="#1A1C1F" stroke="none" fill-rule="evenodd"></path></svg>