<svg xmlns="http://www.w3.org/2000/svg" width="32" height="32" fill="none"><path fill="#1A1C1F" fill-rule="evenodd" d="M23.067 2.111c-.241.125-.352.24-.46.476-.087.189-.098.368-.099 1.581l-.001 1.369-.28.035c-1.034.131-2.136.389-2.874.674-.662.255-.909.615-.822 1.197.039.261.259.561.505.688.32.166.495.155 1.189-.071.366-.119.974-.282 1.353-.362.627-.133.793-.146 1.862-.148 1.435-.004 2.13.107 3.478.554.595.197.669.199 1.005.03.352-.177.518-.428.547-.83.03-.416-.135-.715-.506-.915-.284-.153-1.072-.408-1.784-.575-.363-.085-1.421-.261-1.602-.266-.019-.001-.045-.619-.056-1.375-.014-.942-.042-1.423-.088-1.533a1.13 1.13 0 0 0-.526-.54c-.228-.098-.643-.092-.841.011m-3.04 8.012c-.357.228-.507.494-.507.896 0 .716.764 1.188 1.413.874.667-.323.75-1.234.153-1.689-.259-.197-.811-.24-1.059-.081m5.986.014c-.537.284-.667 1.02-.264 1.499a.978.978 0 0 0 1.695-.363c.089-.306.067-.474-.104-.785-.234-.427-.865-.594-1.327-.351m-17.106.902c-.594.075-1.019.208-1.627.509-1.034.513-1.782 1.266-2.273 2.292-.36.752-.491 1.326-.491 2.16 0 .866.131 1.419.523 2.213a4.94 4.94 0 0 0 3.217 2.626c.433.115.634.138 1.237.139.496.001.832-.027 1.08-.087 1.738-.429 3.097-1.645 3.649-3.263.646-1.893.137-3.917-1.33-5.289-1.039-.972-2.587-1.477-3.985-1.3m14.274.023c-.736.271-.908 1.168-.322 1.682.249.219.568.3.868.221.64-.169.934-.824.641-1.429-.197-.408-.758-.632-1.187-.474m-12.674 2.122c2.068.758 2.65 3.371 1.098 4.922a2.958 2.958 0 0 1-4.772-.777 2.995 2.995 0 0 1 1.948-4.235c.461-.117 1.28-.074 1.726.09m8.56-.082c-.247.131-.354.24-.46.471a.977.977 0 0 0 .363 1.257c.23.147.291.162.588.145.271-.016.367-.049.528-.179.304-.246.404-.47.382-.856-.022-.387-.19-.651-.522-.82-.252-.129-.654-.137-.879-.018m7.901.072c-.702.445-.573 1.503.215 1.762.458.152.963-.052 1.201-.484.154-.279.114-.775-.083-1.033a.983.983 0 0 0-1.333-.245m-3.901.937a.99.99 0 0 0-.547 1.009c.086.763 1.003 1.137 1.611.659.299-.235.435-.77.292-1.149-.069-.184-.294-.427-.487-.528-.191-.1-.67-.095-.869.009M18.104 16.1a.983.983 0 0 0-.401 1.487c.509.703 1.579.444 1.786-.432.051-.218-.098-.678-.274-.847-.316-.303-.73-.38-1.111-.208m10.064-.046c-.404.172-.648.521-.648.927 0 .299.073.497.257.69.284.301.619.391 1.015.273.795-.236.942-1.301.245-1.779-.197-.134-.672-.195-.869-.111m-5.101 1.048c-.247.131-.354.24-.46.471a.977.977 0 0 0 .363 1.257c.23.147.291.162.588.145.272-.016.368-.049.533-.181.3-.24.398-.463.376-.854-.021-.387-.189-.651-.521-.82-.252-.129-.654-.137-.879-.018M4.273 23.047c-.622.103-1.225.595-1.537 1.252-.286.602-.286.847.005 2.928.276 1.976.314 2.169.467 2.384.148.209.495.374.794.379.28.004.672-.192.812-.405.223-.34.221-.44-.037-2.293-.26-1.864-.28-2.114-.18-2.215.049-.049 1.211-.064 4.903-.064 4.328 0 4.848.009 4.923.084.046.046.084.1.083.12 0 .02-.118.88-.262 1.912-.279 2.003-.282 2.106-.051 2.442.434.634 1.461.516 1.721-.198.108-.297.567-3.637.566-4.125a2.23 2.23 0 0 0-1.868-2.205c-.429-.069-9.919-.066-10.339.004"/></svg>