<svg xmlns="http://www.w3.org/2000/svg" width="32" height="32" fill="none"><path fill="#1A1C1F" fill-rule="evenodd" d="M23.067 2.102c-.199.089-.429.33-.504.528-.034.092-.056.684-.056 1.528v1.379l-.28.035c-1.127.14-2.527.489-3.107.774-.205.1-.366.225-.448.347-.152.226-.204.629-.115.897.11.335.597.675.966.676.046.001.298-.072.56-.161 1.135-.385 1.922-.531 3.067-.57.902-.03 1.581.021 2.332.177.368.076.578.134 1.611.446.348.105.43.113.63.059.287-.078.625-.377.707-.627.088-.268.037-.671-.115-.897-.082-.122-.244-.247-.448-.347-.58-.285-1.98-.634-3.107-.774l-.28-.035V4.158c0-.844-.022-1.436-.057-1.528a1.08 1.08 0 0 0-.515-.53c-.216-.092-.632-.091-.841.002m-2.987 7.987c-.151.083-.399.319-.466.443-.371.685.198 1.53.979 1.455.969-.093 1.228-1.414.364-1.855-.229-.117-.701-.14-.877-.043m5.922.059a.975.975 0 0 0-.226 1.525c.555.586 1.476.338 1.686-.454.033-.121.049-.253.036-.293a4 4 0 0 1-.054-.218c-.039-.178-.313-.499-.516-.604-.229-.119-.676-.097-.926.044M8.9 11.039a5.5 5.5 0 0 0-2.283.867c-.41.276-1.13 1.055-1.411 1.524a5.4 5.4 0 0 0-.682 2.025c-.122 1.043.128 2.184.682 3.118.35.588 1.127 1.364 1.715 1.714a5 5 0 0 0 4.184.439c.759-.26 1.305-.605 1.907-1.207s.948-1.148 1.207-1.907a4.91 4.91 0 0 0-1.152-5.08c-.509-.518-.745-.692-1.379-1.011-.783-.395-1.914-.59-2.788-.482m14.281.026c-.681.243-.9 1.079-.418 1.595.176.188.515.351.73.351.346 0 .805-.323.93-.654a1.16 1.16 0 0 0-.015-.746c-.095-.228-.409-.498-.66-.568-.255-.071-.315-.068-.567.022M10.513 13.19c.866.328 1.449.908 1.793 1.782.127.323.142.432.142 1.028s-.015.705-.142 1.028c-.476 1.211-1.549 1.959-2.813 1.959-1.263 0-2.336-.748-2.812-1.959-.127-.323-.142-.432-.142-1.028 0-.592.016-.706.139-1.02.396-1.008 1.187-1.696 2.202-1.916.401-.087 1.244-.022 1.633.126m8.554-.088c-.364.192-.56.508-.56.899 0 .554.432.986.987.986A.974.974 0 0 0 20.48 14c0-.257-.134-.58-.301-.727-.297-.26-.797-.337-1.112-.171m8 0c-.364.192-.56.508-.56.899 0 .554.432.986.987.986A.974.974 0 0 0 28.48 14c0-.257-.134-.58-.301-.727-.297-.26-.797-.337-1.112-.171m-4.001.999c-.227.099-.494.422-.537.648-.091.487.123.944.538 1.144a.97.97 0 0 0 1.306-.453.99.99 0 0 0-.43-1.32c-.216-.11-.647-.119-.877-.019m-4.906 1.96c-.372.136-.669.576-.665.985.001.235.18.578.379.729.188.142.57.269.694.23.039-.013.138-.037.218-.055.182-.04.499-.314.61-.527.119-.232.112-.617-.017-.867-.219-.423-.785-.653-1.219-.495m9.914.041c-.503.228-.72.881-.458 1.372.092.171.423.441.585.476.08.018.178.042.218.055s.172-.004.293-.036c.772-.205 1.038-1.127.479-1.66-.321-.305-.732-.382-1.117-.207m-5.007 1c-.492.26-.687.784-.478 1.284.158.38.491.601.905.601A.974.974 0 0 0 24.48 18c0-.257-.134-.58-.301-.727-.297-.26-.797-.337-1.112-.171m-17.44 6.026c-1.131.242-2.169 1.06-2.689 2.121-.365.744-.391.901-.417 2.493-.022 1.327-.016 1.438.082 1.659.057.131.186.299.285.375.174.133.58.262.705.224.033-.01.126-.032.206-.05a1 1 0 0 0 .336-.199c.36-.316.367-.346.397-1.911l.028-1.413.183-.337a1.98 1.98 0 0 1 1.418-1.028c.173-.032 1.558-.047 3.53-.037l3.245.015.357.176c.623.306 1.039.838 1.156 1.474.032.174.058.814.058 1.423 0 .651.023 1.169.056 1.257.093.245.373.493.649.575.47.14 1.007-.105 1.195-.543.11-.257.102-2.844-.01-3.322-.324-1.379-1.534-2.571-2.979-2.934-.4-.101-.599-.106-3.92-.102-2.889.004-3.563.019-3.871.084"/></svg>