<svg xmlns="http://www.w3.org/2000/svg" width="12" height="12" fill="none"><g clip-path="url(#a)"><path fill="#1A1C1F" fill-rule="evenodd" d="M5.1 8.4A1.5 1.5 0 0 1 6.597 9.8L6.6 9.9v.3a.6.6 0 0 1-.6.6.59.59 0 0 1-.6-.6v-.3c0-.147-.109-.3-.3-.3q-1.2-.003-2.4 0a.295.295 0 0 0-.3.3v.3a.6.6 0 0 1-1.2 0v-.3c0-.795.632-1.5 1.5-1.5zM3.913 4.05c.911 0 1.637.726 1.637 1.637A1.65 1.65 0 0 1 3.913 7.35 1.675 1.675 0 0 1 2.25 5.687 1.65 1.65 0 0 1 3.913 4.05M8.45 6.003a.45.45 0 1 1 .202.877.45.45 0 0 1-.202-.877m1.675-.242a.45.45 0 1 1 .452.78.45.45 0 0 1-.452-.78m-3.763.162a.45.45 0 1 1 .778.452.45.45 0 0 1-.778-.452M8.45 4.618a.45.45 0 1 1 .202.877.45.45 0 0 1-.202-.877m-1.638-.044a.45.45 0 1 1 .778.452.45.45 0 0 1-.778-.452m2.863-.163a.45.45 0 1 1 .452.779.45.45 0 0 1-.452-.779M8.55 1.2c.308 0 .6.257.6.6v.794l.249.03.588.082a.6.6 0 0 1-.174 1.188l-.76-.102a3.1 3.1 0 0 0-1.006 0l-.76.102a.6.6 0 1 1-.174-1.188l.59-.081.247-.03V1.8a.6.6 0 0 1 .6-.6" clip-rule="evenodd"/></g><defs><clipPath id="a"><path fill="#fff" d="M0 0h12v12H0z"/></clipPath></defs></svg>