<svg width="12" height="12" viewBox="0 0 12 12" fill="none" xmlns="http://www.w3.org/2000/svg"><path d="M8.427 1.221 C 8.255 1.254,8.090 1.385,8.008 1.553 C 7.954 1.662,7.953 1.676,7.941 2.121 C 7.934 2.373,7.924 2.583,7.918 2.589 C 7.911 2.595,7.772 2.618,7.608 2.641 C 7.211 2.695,7.008 2.736,6.904 2.785 C 6.810 2.829,6.697 2.953,6.652 3.063 C 6.542 3.325,6.641 3.647,6.877 3.798 C 7.055 3.912,7.125 3.916,7.701 3.839 C 8.395 3.747,8.700 3.746,9.390 3.838 C 9.665 3.874,9.926 3.900,9.970 3.895 C 10.155 3.874,10.356 3.725,10.440 3.546 C 10.535 3.343,10.506 3.107,10.362 2.925 C 10.236 2.766,10.111 2.725,9.492 2.641 C 9.328 2.618,9.188 2.595,9.182 2.589 C 9.176 2.583,9.165 2.373,9.159 2.124 C 9.150 1.778,9.139 1.653,9.116 1.600 C 9.030 1.406,8.849 1.251,8.683 1.230 C 8.632 1.223,8.572 1.215,8.550 1.212 C 8.528 1.208,8.472 1.213,8.427 1.221 M3.650 4.080 C 3.286 4.113,2.877 4.349,2.616 4.677 C 2.221 5.173,2.149 5.855,2.431 6.425 C 2.547 6.661,2.879 7.014,3.090 7.126 C 3.720 7.463,4.410 7.403,4.950 6.966 C 5.362 6.631,5.605 6.031,5.539 5.505 C 5.463 4.890,5.067 4.381,4.489 4.157 C 4.372 4.112,4.286 4.095,4.095 4.080 C 3.960 4.069,3.841 4.062,3.830 4.063 C 3.819 4.065,3.738 4.072,3.650 4.080 M7.050 4.380 C 7.017 4.390,6.955 4.428,6.912 4.463 C 6.676 4.659,6.721 5.040,6.997 5.184 C 7.316 5.350,7.659 5.127,7.636 4.768 C 7.622 4.538,7.465 4.381,7.236 4.368 C 7.167 4.364,7.083 4.370,7.050 4.380 M9.750 4.380 C 9.586 4.432,9.460 4.615,9.460 4.801 C 9.461 5.054,9.648 5.240,9.900 5.240 C 10.022 5.240,10.109 5.206,10.205 5.122 C 10.409 4.942,10.377 4.585,10.143 4.430 C 10.057 4.373,9.854 4.347,9.750 4.380 M8.338 4.666 C 8.238 4.718,8.129 4.864,8.108 4.971 C 8.064 5.207,8.221 5.433,8.465 5.484 C 8.562 5.504,8.594 5.503,8.687 5.474 C 8.866 5.417,9.000 5.239,9.000 5.056 C 9.000 4.976,8.926 4.793,8.875 4.745 C 8.741 4.619,8.496 4.583,8.338 4.666 M6.606 5.721 C 6.515 5.749,6.347 5.923,6.321 6.015 C 6.275 6.182,6.316 6.333,6.442 6.458 C 6.629 6.646,6.879 6.643,7.066 6.450 C 7.214 6.297,7.237 6.103,7.127 5.925 C 7.021 5.754,6.791 5.664,6.606 5.721 M10.206 5.721 C 10.170 5.732,10.096 5.786,10.041 5.840 C 9.939 5.943,9.900 6.031,9.901 6.160 C 9.901 6.317,10.046 6.508,10.212 6.572 C 10.534 6.695,10.895 6.334,10.772 6.012 C 10.734 5.914,10.629 5.796,10.537 5.748 C 10.460 5.709,10.291 5.695,10.206 5.721 M8.402 6.015 C 8.375 6.020,8.308 6.070,8.251 6.127 C 8.064 6.315,8.052 6.530,8.217 6.723 C 8.349 6.877,8.574 6.925,8.752 6.839 C 8.907 6.764,9.012 6.570,8.992 6.394 C 8.961 6.116,8.713 5.956,8.402 6.015 M2.323 8.449 C 2.264 8.464,2.129 8.518,2.023 8.571 C 1.861 8.651,1.801 8.695,1.648 8.848 C 1.495 9.001,1.452 9.060,1.373 9.220 C 1.231 9.510,1.210 9.612,1.210 10.010 C 1.210 10.329,1.213 10.356,1.258 10.448 C 1.368 10.672,1.555 10.789,1.800 10.790 C 1.979 10.790,2.092 10.743,2.222 10.614 C 2.354 10.483,2.383 10.395,2.400 10.080 C 2.417 9.768,2.437 9.711,2.558 9.644 L 2.639 9.598 3.915 9.604 C 5.103 9.610,5.195 9.612,5.257 9.646 C 5.352 9.698,5.378 9.781,5.399 10.099 C 5.414 10.314,5.427 10.396,5.459 10.458 C 5.524 10.585,5.613 10.674,5.736 10.734 C 5.830 10.780,5.876 10.790,6.000 10.790 C 6.177 10.790,6.290 10.743,6.421 10.617 C 6.552 10.489,6.586 10.391,6.596 10.106 C 6.617 9.528,6.469 9.137,6.104 8.799 C 5.926 8.635,5.629 8.476,5.431 8.441 C 5.247 8.408,2.462 8.416,2.323 8.449 " fill="#1A1C1F" stroke="none" fill-rule="evenodd"></path></svg>