<svg xmlns="http://www.w3.org/2000/svg" width="12" height="12" fill="none"><g clip-path="url(#a)"><path fill="#1A1C1F" fill-rule="evenodd" d="M5.1 8.4c.546 0 .96.388 1.144.853l.342.817a.6.6 0 0 1-.456.716c-.323.072-.603-.19-.716-.455L5.09 9.6H2.7l-.314.73c-.139.305-.393.527-.717.455a.6.6 0 0 1-.455-.716l.333-.807C1.69 8.859 2.122 8.4 2.7 8.4zM3.913 4.05c.911 0 1.637.726 1.637 1.637A1.65 1.65 0 0 1 3.913 7.35 1.675 1.675 0 0 1 2.25 5.687 1.65 1.65 0 0 1 3.913 4.05m5.075 2.29a.45.45 0 1 1-.876.203.45.45 0 0 1 .876-.203m1.75-.416a.45.45 0 1 1-.777.453.45.45 0 0 1 .778-.453m-3.762-.163a.45.45 0 1 1-.452.778.45.45 0 0 1 .452-.778m2.012-.806a.45.45 0 1 1-.875.203.45.45 0 0 1 .875-.203m-1.562-.543a.45.45 0 1 1-.453.778.45.45 0 0 1 .453-.778m2.863.162a.45.45 0 1 1-.777.453.45.45 0 0 1 .777-.453M8.55 1.2c.308 0 .6.257.6.6v.795l.248.03.59.082a.6.6 0 0 1-.175 1.187l-.76-.102a3.1 3.1 0 0 0-.84-.023l-.926.125a.6.6 0 0 1-.174-1.187l.589-.082.248-.03V1.8a.6.6 0 0 1 .6-.6" clip-rule="evenodd"/></g><defs><clipPath id="a"><path fill="#fff" d="M0 0h12v12H0z"/></clipPath></defs></svg>