<svg xmlns="http://www.w3.org/2000/svg" width="20" height="20" fill="none"><g clip-path="url(#a)"><path fill="#1A1C1F" fill-rule="evenodd" d="M8.5 14a2.5 2.5 0 0 1 2.496 2.336L11 16.5v.5a1 1 0 0 1-1 1 .983.983 0 0 1-1-1 24 24 0 0 1 0-.5c0-.245-.182-.5-.5-.5a988 988 0 0 0-4 0 .49.49 0 0 0-.5.5q-.003.25 0 .5a1 1 0 1 1-2 0 23 23 0 0 1 0-.5C2 15.174 3.054 14 4.5 14q2-.003 4 0M6.523 6.75a2.714 2.714 0 0 1 2.729 2.728 2.754 2.754 0 0 1-2.729 2.772 2.79 2.79 0 0 1-2.771-2.772A2.754 2.754 0 0 1 6.522 6.75m7.56 3.255a.75.75 0 1 1 .337 1.461.75.75 0 0 1-.337-1.461m2.791-.403a.75.75 0 1 1 .754 1.298.75.75 0 0 1-.754-1.298m-6.27.269a.75.75 0 1 1 1.295.753.75.75 0 0 1-1.296-.753m3.479-2.175a.75.75 0 1 1 .337 1.462.75.75 0 0 1-.337-1.462m-2.73-.073a.75.75 0 1 1 1.296.753.75.75 0 0 1-1.296-.753m4.771-.271a.75.75 0 1 1 .754 1.297.75.75 0 0 1-.754-1.297M14.251 2c.513 0 1 .429 1 1v1.324l.414.05.98.137a1 1 0 1 1-.29 1.978l-1.265-.17a5.088 5.088 0 0 0-1.678 0l-1.266.17a1 1 0 0 1-.29-1.978l.981-.136.414-.05V3a1 1 0 0 1 1-1" clip-rule="evenodd"/></g><defs><clipPath id="a"><path fill="#fff" d="M0 0h20v20H0z"/></clipPath></defs></svg>