<svg width="14" height="14" viewBox="0 0 14 14" fill="none" xmlns="http://www.w3.org/2000/svg"><path d="M9.759 1.443 C 9.591 1.502,9.430 1.645,9.347 1.806 C 9.279 1.938,9.278 1.940,9.264 2.473 C 9.257 2.767,9.245 3.013,9.238 3.020 C 9.231 3.027,9.011 3.063,8.749 3.101 C 8.486 3.139,8.214 3.189,8.143 3.212 C 7.990 3.262,7.836 3.405,7.763 3.565 C 7.691 3.723,7.692 3.985,7.766 4.135 C 7.870 4.347,8.103 4.519,8.318 4.544 C 8.370 4.550,8.674 4.520,8.995 4.478 C 9.790 4.373,10.152 4.373,10.955 4.478 C 11.276 4.520,11.580 4.549,11.632 4.544 C 11.847 4.519,12.079 4.348,12.183 4.136 C 12.257 3.984,12.259 3.722,12.187 3.565 C 12.114 3.405,11.960 3.262,11.807 3.212 C 11.736 3.189,11.464 3.139,11.201 3.101 C 10.939 3.063,10.719 3.027,10.712 3.020 C 10.706 3.014,10.693 2.775,10.684 2.490 C 10.674 2.205,10.656 1.936,10.642 1.892 C 10.535 1.546,10.096 1.322,9.759 1.443 M4.282 4.762 C 3.702 4.803,3.102 5.238,2.825 5.818 C 2.566 6.360,2.572 6.969,2.842 7.503 C 2.985 7.786,3.357 8.182,3.605 8.314 C 4.116 8.587,4.617 8.639,5.135 8.472 C 5.865 8.237,6.354 7.637,6.463 6.840 C 6.508 6.510,6.430 6.084,6.266 5.768 C 5.984 5.224,5.384 4.796,4.865 4.768 C 4.762 4.763,4.636 4.756,4.585 4.753 C 4.534 4.750,4.397 4.754,4.282 4.762 M8.241 5.108 C 8.045 5.158,7.886 5.377,7.887 5.598 C 7.888 5.899,8.104 6.114,8.405 6.113 C 8.696 6.112,8.913 5.893,8.913 5.600 C 8.913 5.319,8.732 5.121,8.456 5.099 C 8.380 5.093,8.283 5.098,8.241 5.108 M11.391 5.108 C 11.195 5.158,11.036 5.377,11.037 5.598 C 11.038 5.899,11.254 6.114,11.555 6.113 C 11.846 6.112,12.063 5.893,12.063 5.600 C 12.063 5.319,11.882 5.121,11.606 5.099 C 11.530 5.093,11.433 5.098,11.391 5.108 M9.781 5.414 C 9.612 5.482,9.450 5.708,9.450 5.876 C 9.450 6.162,9.700 6.417,9.979 6.417 C 10.247 6.417,10.499 6.167,10.500 5.900 C 10.500 5.728,10.366 5.524,10.192 5.435 C 10.099 5.387,9.878 5.376,9.781 5.414 M7.706 6.676 C 7.602 6.706,7.405 6.909,7.375 7.018 C 7.321 7.210,7.363 7.379,7.496 7.517 C 7.728 7.755,8.018 7.756,8.256 7.517 C 8.407 7.366,8.439 7.157,8.341 6.960 C 8.221 6.720,7.959 6.603,7.706 6.676 M11.917 6.680 C 11.787 6.722,11.680 6.819,11.611 6.957 C 11.506 7.167,11.541 7.366,11.713 7.537 C 11.913 7.737,12.171 7.753,12.394 7.579 C 12.502 7.495,12.600 7.302,12.599 7.176 C 12.599 7.004,12.463 6.795,12.298 6.709 C 12.205 6.661,12.019 6.647,11.917 6.680 M9.802 7.017 C 9.771 7.023,9.692 7.082,9.626 7.148 C 9.409 7.367,9.394 7.618,9.585 7.841 C 9.695 7.970,9.821 8.030,9.980 8.030 C 10.233 8.030,10.427 7.866,10.480 7.607 C 10.514 7.440,10.479 7.309,10.369 7.187 C 10.225 7.027,10.040 6.972,9.802 7.017 M3.127 9.822 C 2.799 9.841,2.664 9.882,2.434 10.030 C 2.279 10.131,2.082 10.322,1.978 10.473 C 1.898 10.590,1.583 11.315,1.470 11.642 C 1.384 11.894,1.383 12.013,1.468 12.187 C 1.637 12.536,2.033 12.684,2.362 12.523 C 2.591 12.410,2.684 12.270,2.986 11.585 L 3.140 11.235 3.559 11.220 C 3.790 11.212,4.419 11.205,4.959 11.203 L 5.939 11.200 6.041 11.439 C 6.368 12.203,6.503 12.403,6.778 12.534 C 7.035 12.655,7.252 12.608,7.480 12.380 C 7.704 12.156,7.745 11.983,7.644 11.682 C 7.563 11.443,7.267 10.747,7.174 10.579 C 6.976 10.222,6.678 9.977,6.300 9.859 C 6.186 9.823,6.018 9.818,4.795 9.812 C 4.038 9.808,3.287 9.812,3.127 9.822 " fill="#1A1C1F" stroke="none" fill-rule="evenodd"></path></svg>