<svg width="28" height="28" viewBox="0 0 28 28" fill="none" xmlns="http://www.w3.org/2000/svg"><path d="M20.183 1.861 C 19.737 2.066,19.698 2.212,19.695 3.669 L 19.693 4.841 19.145 4.922 C 18.367 5.037,17.221 5.337,16.818 5.531 C 16.417 5.724,16.253 5.910,16.210 6.223 C 16.152 6.649,16.435 7.076,16.849 7.187 C 17.021 7.233,17.116 7.217,17.799 7.024 C 19.082 6.661,19.302 6.628,20.440 6.627 C 21.851 6.627,22.166 6.674,23.644 7.113 C 24.012 7.222,24.097 7.232,24.260 7.189 C 24.760 7.054,25.052 6.473,24.856 6.003 C 24.820 5.919,24.713 5.785,24.617 5.706 C 24.316 5.458,23.367 5.163,22.237 4.967 C 21.852 4.900,21.527 4.836,21.515 4.824 C 21.504 4.813,21.479 4.274,21.461 3.627 C 21.442 2.935,21.406 2.392,21.374 2.310 C 21.204 1.867,20.636 1.653,20.183 1.861 M17.548 8.857 C 17.459 8.906,17.322 9.025,17.245 9.121 C 17.119 9.276,17.104 9.329,17.104 9.609 C 17.103 10.004,17.229 10.214,17.567 10.384 C 17.841 10.522,18.017 10.529,18.270 10.412 C 18.781 10.175,18.948 9.601,18.641 9.136 C 18.497 8.917,18.302 8.816,17.971 8.788 C 17.771 8.772,17.672 8.788,17.548 8.857 M22.785 8.872 C 22.555 8.986,22.435 9.136,22.351 9.415 C 22.189 9.957,22.713 10.559,23.281 10.482 C 23.821 10.407,24.179 9.860,24.007 9.371 C 23.828 8.864,23.265 8.634,22.785 8.872 M7.817 9.666 C 7.320 9.717,6.882 9.855,6.347 10.130 C 5.275 10.679,4.547 11.524,4.148 12.682 C 3.994 13.131,3.992 13.147,3.991 13.977 C 3.990 14.942,4.042 15.180,4.419 15.945 C 4.978 17.078,5.930 17.856,7.204 18.221 C 7.562 18.324,7.708 18.340,8.304 18.340 C 9.105 18.340,9.482 18.263,10.099 17.974 C 10.877 17.609,11.544 17.044,11.967 16.390 C 12.985 14.816,12.910 12.834,11.775 11.351 C 10.857 10.150,9.348 9.508,7.817 9.666 M20.183 9.731 C 19.971 9.846,19.875 9.945,19.781 10.150 C 19.557 10.639,19.825 11.178,20.372 11.340 C 20.864 11.485,21.422 11.044,21.419 10.513 C 21.418 10.263,21.272 9.974,21.069 9.820 C 20.852 9.654,20.409 9.609,20.183 9.731 M8.681 11.434 C 10.412 11.642,11.444 13.601,10.643 15.155 C 9.640 17.101,6.939 17.094,5.983 15.143 C 5.642 14.448,5.633 13.592,5.959 12.892 C 6.362 12.027,7.220 11.451,8.191 11.392 C 8.243 11.389,8.464 11.408,8.681 11.434 M16.707 11.458 C 16.464 11.568,16.345 11.701,16.260 11.957 C 16.147 12.298,16.200 12.558,16.434 12.813 C 16.657 13.054,16.869 13.135,17.185 13.097 C 17.775 13.027,18.093 12.367,17.805 11.809 C 17.633 11.478,17.066 11.296,16.707 11.458 M23.730 11.471 C 23.214 11.713,23.045 12.278,23.352 12.741 C 23.805 13.426,24.918 13.077,24.918 12.250 C 24.918 11.639,24.274 11.216,23.730 11.471 M20.168 12.371 C 19.782 12.567,19.607 13.014,19.760 13.415 C 20.010 14.068,20.887 14.193,21.261 13.628 C 21.427 13.378,21.462 12.967,21.337 12.741 C 21.101 12.315,20.594 12.154,20.168 12.371 M15.926 14.050 C 15.843 14.075,15.693 14.174,15.592 14.269 C 15.037 14.798,15.405 15.727,16.170 15.727 C 16.714 15.727,17.158 15.210,17.029 14.729 C 17.000 14.623,16.947 14.479,16.910 14.408 C 16.765 14.126,16.270 13.947,15.926 14.050 M24.681 14.045 C 24.133 14.212,23.896 14.948,24.248 15.384 C 24.736 15.987,25.673 15.755,25.786 15.003 C 25.837 14.660,25.644 14.272,25.346 14.121 C 25.182 14.038,24.833 13.998,24.681 14.045 M20.207 14.958 C 19.964 15.068,19.845 15.201,19.760 15.457 C 19.650 15.788,19.700 16.056,19.918 16.297 C 20.207 16.617,20.557 16.696,20.934 16.525 C 21.375 16.324,21.543 15.770,21.303 15.306 C 21.133 14.978,20.564 14.797,20.207 14.958 M4.433 20.158 C 3.646 20.183,3.550 20.196,3.337 20.299 C 3.022 20.451,2.548 20.931,2.404 21.241 C 2.135 21.820,2.139 22.020,2.453 24.232 C 2.640 25.551,2.708 25.820,2.899 25.998 C 3.295 26.368,4.043 26.255,4.263 25.792 C 4.377 25.552,4.360 25.178,4.176 23.825 C 4.086 23.162,4.008 22.471,4.001 22.288 L 3.990 21.957 4.433 21.921 C 4.677 21.901,6.603 21.891,8.713 21.898 C 12.079 21.908,12.559 21.919,12.621 21.981 C 12.685 22.045,12.671 22.211,12.483 23.581 C 12.257 25.229,12.239 25.496,12.338 25.726 C 12.525 26.164,13.051 26.348,13.515 26.138 C 13.883 25.970,13.947 25.792,14.157 24.337 C 14.471 22.160,14.477 21.768,14.208 21.218 C 14.043 20.882,13.621 20.475,13.266 20.311 C 13.015 20.195,12.936 20.184,12.110 20.154 C 11.072 20.116,5.687 20.119,4.433 20.158 " fill="#1A1C1F" stroke="none" fill-rule="evenodd"></path></svg>