<svg xmlns="http://www.w3.org/2000/svg" width="14" height="14" fill="none"><g clip-path="url(#a)"><path fill="#1A1C1F" fill-rule="evenodd" d="M5.95 9.8c.637 0 1.12.452 1.335.995l.399.954a.7.7 0 0 1-.532.835c-.377.084-.704-.222-.835-.532l-.378-.852H3.15l-.367.853c-.162.356-.458.615-.835.53a.7.7 0 0 1-.531-.835l.387-.942c.17-.47.672-1.006 1.346-1.006zM4.565 4.725a1.9 1.9 0 0 1 1.91 1.91 1.93 1.93 0 0 1-1.91 1.94 1.954 1.954 0 0 1-1.94-1.94 1.93 1.93 0 0 1 1.94-1.91m5.921 2.672a.525.525 0 1 1-1.022.237.525.525 0 0 1 1.022-.237m2.043-.485a.525.525 0 1 1-.907.528.525.525 0 0 1 .907-.528m-4.39-.191a.525.525 0 1 1-.528.908.525.525 0 0 1 .528-.908m2.348-.94a.524.524 0 1 1-1.022.237.524.524 0 0 1 1.021-.237m-1.823-.634a.525.525 0 1 1-.529.908.525.525 0 0 1 .529-.908m3.34.19a.525.525 0 1 1-.907.528.525.525 0 0 1 .907-.528M9.975 1.4c.36 0 .7.3.7.7v.927l.29.036.687.095a.7.7 0 1 1-.203 1.385l-.886-.119a3.6 3.6 0 0 0-.98-.027l-1.081.146a.7.7 0 1 1-.203-1.385l.687-.095.289-.034V2.1a.7.7 0 0 1 .7-.7" clip-rule="evenodd"/></g><defs><clipPath id="a"><path fill="#fff" d="M0 0h14v14H0z"/></clipPath></defs></svg>