<svg width="12" height="12" viewBox="0 0 12 12" fill="none" xmlns="http://www.w3.org/2000/svg"><path d="M8.365 1.237 C 8.221 1.288,8.082 1.410,8.011 1.548 C 7.953 1.661,7.953 1.663,7.941 2.120 C 7.934 2.372,7.924 2.583,7.918 2.589 C 7.911 2.595,7.772 2.618,7.608 2.641 C 6.989 2.725,6.864 2.766,6.738 2.925 C 6.544 3.170,6.562 3.498,6.782 3.717 C 6.874 3.809,7.016 3.882,7.130 3.895 C 7.174 3.900,7.435 3.874,7.710 3.838 C 8.395 3.748,8.705 3.748,9.390 3.838 C 9.665 3.874,9.926 3.900,9.970 3.895 C 10.155 3.874,10.356 3.725,10.440 3.546 C 10.535 3.343,10.506 3.107,10.362 2.925 C 10.236 2.766,10.111 2.725,9.492 2.641 C 9.328 2.618,9.189 2.595,9.183 2.589 C 9.177 2.584,9.166 2.383,9.158 2.144 C 9.151 1.905,9.135 1.673,9.123 1.628 C 9.041 1.331,8.657 1.132,8.365 1.237 M3.650 4.080 C 3.285 4.114,2.876 4.350,2.617 4.676 C 2.220 5.176,2.148 5.852,2.431 6.425 C 2.547 6.661,2.879 7.014,3.090 7.126 C 3.720 7.463,4.410 7.403,4.950 6.966 C 5.358 6.635,5.604 6.035,5.541 5.520 C 5.479 5.012,5.223 4.596,4.800 4.318 C 4.565 4.163,4.377 4.100,4.091 4.079 C 3.958 4.069,3.841 4.062,3.830 4.063 C 3.819 4.065,3.738 4.072,3.650 4.080 M7.050 4.380 C 6.959 4.408,6.839 4.517,6.798 4.609 C 6.776 4.656,6.761 4.736,6.761 4.800 C 6.761 5.056,6.947 5.241,7.204 5.240 C 7.454 5.239,7.640 5.051,7.640 4.800 C 7.640 4.633,7.569 4.506,7.427 4.418 C 7.353 4.373,7.142 4.351,7.050 4.380 M9.750 4.380 C 9.659 4.408,9.539 4.517,9.498 4.609 C 9.476 4.656,9.461 4.736,9.461 4.800 C 9.461 5.056,9.647 5.241,9.904 5.240 C 10.154 5.239,10.340 5.051,10.340 4.800 C 10.340 4.633,10.269 4.506,10.127 4.418 C 10.053 4.373,9.842 4.351,9.750 4.380 M8.338 4.666 C 8.165 4.757,8.067 4.982,8.120 5.170 C 8.169 5.345,8.361 5.500,8.529 5.500 C 8.778 5.500,9.000 5.290,9.000 5.053 C 9.000 4.975,8.926 4.792,8.875 4.746 C 8.732 4.615,8.501 4.581,8.338 4.666 M6.606 5.722 C 6.516 5.748,6.347 5.922,6.321 6.015 C 6.260 6.236,6.355 6.444,6.564 6.548 C 6.723 6.628,6.872 6.609,7.026 6.491 C 7.128 6.414,7.181 6.319,7.194 6.191 C 7.226 5.886,6.910 5.634,6.606 5.722 M10.215 5.725 C 10.103 5.762,10.011 5.845,9.952 5.963 C 9.863 6.143,9.892 6.314,10.039 6.461 C 10.211 6.632,10.432 6.646,10.623 6.496 C 10.716 6.424,10.800 6.259,10.800 6.151 C 10.799 6.003,10.682 5.825,10.534 5.747 C 10.456 5.706,10.305 5.696,10.215 5.725 M8.402 6.015 C 8.375 6.020,8.308 6.070,8.251 6.127 C 8.062 6.318,8.051 6.534,8.223 6.729 C 8.321 6.840,8.413 6.883,8.554 6.883 C 8.772 6.883,8.937 6.743,8.983 6.520 C 9.012 6.377,8.982 6.265,8.888 6.160 C 8.764 6.023,8.606 5.976,8.402 6.015 M2.680 8.419 C 2.322 8.440,2.105 8.536,1.863 8.781 C 1.699 8.948,1.648 9.034,1.476 9.437 C 1.260 9.943,1.193 10.144,1.205 10.261 C 1.223 10.452,1.368 10.651,1.555 10.742 C 1.765 10.844,2.051 10.779,2.211 10.594 C 2.292 10.500,2.444 10.206,2.591 9.858 L 2.689 9.626 3.120 9.613 C 3.356 9.606,3.897 9.600,4.320 9.600 L 5.090 9.600 5.178 9.805 C 5.459 10.460,5.574 10.631,5.810 10.743 C 5.948 10.809,6.049 10.815,6.191 10.767 C 6.326 10.721,6.517 10.528,6.565 10.390 C 6.612 10.257,6.609 10.185,6.552 10.014 C 6.483 9.809,6.229 9.212,6.149 9.068 C 5.979 8.762,5.724 8.551,5.400 8.450 C 5.302 8.420,5.158 8.415,4.110 8.410 C 3.461 8.407,2.817 8.411,2.680 8.419 " fill="#1A1C1F" stroke="none" fill-rule="evenodd"></path></svg>