<svg xmlns="http://www.w3.org/2000/svg" width="28" height="28" fill="none"><g clip-path="url(#a)"><path fill="#1A1C1F" fill-rule="evenodd" d="M11.413 20.125c1.067 0 2.016.682 2.247 1.686l.756 3.37a.875.875 0 1 1-1.707.389l-.756-3.374c-.034-.147-.21-.286-.448-.316l-6.288-.005c-.286 0-.503.156-.54.317l-.761 3.378a.875.875 0 0 1-1.706-.39l.76-3.375c.219-.95 1.149-1.675 2.247-1.675zm-3.1-10.5a4.375 4.375 0 1 1 0 8.75 4.375 4.375 0 0 1 0-8.75m0 1.75a2.625 2.625 0 1 0 0 5.25 2.625 2.625 0 0 0 0-5.25m12.713 3.633a.874.874 0 1 1-.926 1.483.874.874 0 0 1 .926-1.483m-4.399-.889a.875.875 0 1 1-.88 1.513.875.875 0 0 1 .88-1.513m8.75 0a.875.875 0 1 1-.88 1.513.875.875 0 0 1 .88-1.513m-4.35-1.736a.874.874 0 1 1-.927 1.483.874.874 0 0 1 .926-1.483m-3.525-.889a.875.875 0 1 1-.88 1.513.875.875 0 0 1 .88-1.513m7.317.316a.875.875 0 1 1-1.512.88.875.875 0 0 1 1.512-.88m-3.793-2.052a.874.874 0 1 1-.924 1.483.874.874 0 0 1 .924-1.483m-2.649-.889a.876.876 0 1 1-.88 1.514.876.876 0 0 1 .88-1.514m5.567.316a.874.874 0 1 1-1.511.881.874.874 0 0 1 1.51-.88M20.563 1.75c.448 0 .875.358.875.875V4.85q1.47.127 2.932.674a.875.875 0 0 1-.615 1.639 9 9 0 0 0-3.192-.6q-1.589 0-3.193.6a.875.875 0 0 1-.615-1.639q1.461-.548 2.933-.674V2.625c0-.483.391-.875.875-.875" clip-rule="evenodd"/></g><defs><clipPath id="a"><path fill="#fff" d="M0 0h28v28H0z"/></clipPath></defs></svg>