<svg width="16" height="16" viewBox="0 0 16 16" fill="none" xmlns="http://www.w3.org/2000/svg"><path d="M11.102 1.637 C 10.864 1.714,10.678 1.881,10.578 2.105 C 10.531 2.211,10.522 2.304,10.508 2.832 C 10.499 3.165,10.486 3.443,10.479 3.449 C 10.472 3.456,10.283 3.487,10.059 3.519 C 9.386 3.616,9.189 3.664,9.046 3.766 C 8.522 4.141,8.674 4.981,9.299 5.163 C 9.463 5.210,9.488 5.209,10.307 5.105 C 11.241 4.986,11.473 4.990,12.640 5.148 C 12.867 5.179,13.114 5.198,13.188 5.191 C 13.545 5.157,13.840 4.873,13.908 4.498 C 13.935 4.350,13.873 4.098,13.776 3.961 C 13.588 3.697,13.462 3.648,12.712 3.542 L 12.111 3.458 12.101 2.816 C 12.094 2.384,12.079 2.147,12.057 2.094 C 11.916 1.759,11.434 1.529,11.102 1.637 M4.714 5.439 C 4.395 5.497,4.006 5.678,3.746 5.888 C 3.174 6.348,2.849 7.125,2.936 7.819 C 2.998 8.316,3.198 8.739,3.541 9.098 C 3.961 9.537,4.429 9.752,5.030 9.779 C 5.383 9.796,5.615 9.761,5.893 9.650 C 6.563 9.383,7.059 8.832,7.245 8.149 C 7.277 8.032,7.290 7.871,7.291 7.573 C 7.293 7.173,7.290 7.152,7.205 6.907 C 7.079 6.542,6.938 6.319,6.655 6.037 C 6.444 5.827,6.373 5.776,6.132 5.657 C 5.979 5.582,5.781 5.502,5.693 5.479 C 5.505 5.431,4.894 5.406,4.714 5.439 M9.325 5.840 C 9.208 5.876,9.075 5.990,8.996 6.124 C 8.808 6.446,8.989 6.860,9.368 6.973 C 9.511 7.016,9.612 7.004,9.781 6.926 C 9.982 6.833,10.107 6.625,10.106 6.384 C 10.106 6.268,10.008 6.038,9.930 5.968 C 9.785 5.840,9.517 5.783,9.325 5.840 M12.897 5.851 C 12.575 5.971,12.423 6.380,12.592 6.669 C 12.681 6.821,12.820 6.930,12.990 6.979 C 13.105 7.013,13.137 7.012,13.273 6.973 C 13.652 6.863,13.818 6.439,13.616 6.096 C 13.483 5.869,13.151 5.756,12.897 5.851 M11.046 6.216 C 10.689 6.393,10.613 6.871,10.898 7.158 C 11.224 7.488,11.770 7.329,11.896 6.867 C 11.961 6.630,11.803 6.320,11.561 6.210 C 11.412 6.143,11.190 6.145,11.046 6.216 M8.735 7.633 C 8.525 7.689,8.320 7.969,8.320 8.200 C 8.320 8.511,8.614 8.800,8.931 8.800 C 9.126 8.800,9.352 8.646,9.452 8.446 C 9.540 8.270,9.539 8.129,9.451 7.951 C 9.370 7.789,9.253 7.691,9.077 7.638 C 8.934 7.595,8.883 7.594,8.735 7.633 M13.550 7.632 C 13.389 7.668,13.197 7.860,13.149 8.033 C 13.043 8.411,13.338 8.800,13.731 8.800 C 14.009 8.800,14.318 8.484,14.319 8.199 C 14.320 8.048,14.204 7.826,14.075 7.733 C 13.988 7.670,13.755 7.592,13.685 7.603 C 13.675 7.604,13.614 7.617,13.550 7.632 M11.050 8.064 C 10.724 8.216,10.624 8.613,10.835 8.924 C 10.948 9.092,11.104 9.173,11.312 9.173 C 11.581 9.173,11.810 9.004,11.884 8.751 C 11.969 8.459,11.837 8.187,11.547 8.056 C 11.386 7.983,11.219 7.986,11.050 8.064 M3.053 11.225 C 2.578 11.240,2.570 11.241,2.397 11.326 C 1.940 11.551,1.644 12.020,1.688 12.446 C 1.706 12.611,1.857 13.077,2.079 13.645 C 2.177 13.898,2.244 14.028,2.322 14.116 C 2.622 14.456,3.121 14.482,3.462 14.175 C 3.611 14.039,3.681 13.883,3.697 13.647 C 3.709 13.471,3.700 13.425,3.602 13.148 C 3.543 12.980,3.501 12.837,3.508 12.830 C 3.514 12.823,4.240 12.812,5.120 12.805 C 6.490 12.795,6.720 12.798,6.720 12.831 C 6.720 12.851,6.677 12.994,6.625 13.147 C 6.481 13.572,6.501 13.799,6.708 14.082 C 6.886 14.324,7.237 14.428,7.562 14.334 C 7.691 14.297,7.747 14.261,7.867 14.138 C 7.997 14.004,8.031 13.945,8.156 13.629 C 8.519 12.704,8.575 12.459,8.495 12.123 C 8.437 11.875,8.342 11.709,8.157 11.532 C 7.914 11.301,7.769 11.247,7.320 11.223 C 6.902 11.201,3.797 11.202,3.053 11.225 " fill="#1A1C1F" stroke="none" fill-rule="evenodd"></path></svg>