<svg xmlns="http://www.w3.org/2000/svg" width="14" height="14" fill="none"><g clip-path="url(#a)"><path fill="#1A1C1F" fill-rule="evenodd" d="M5.95 9.8a1.75 1.75 0 0 1 1.747 1.635l.004.115v.35a.7.7 0 0 1-.7.7.69.69 0 0 1-.7-.7v-.35a.344.344 0 0 0-.35-.35 688 688 0 0 0-2.8 0 .344.344 0 0 0-.35.35q-.003.175 0 .35a.7.7 0 0 1-1.4 0v-.35c0-.928.737-1.75 1.75-1.75zM4.567 4.725a1.9 1.9 0 0 1 1.91 1.91 1.93 1.93 0 0 1-1.91 1.94 1.954 1.954 0 0 1-1.94-1.94 1.93 1.93 0 0 1 1.94-1.91m5.291 2.278a.525.525 0 1 1 .236 1.024.525.525 0 0 1-.236-1.024m1.954-.282a.525.525 0 1 1 .528.91.525.525 0 0 1-.528-.91m-4.39.189a.524.524 0 1 1 .907.527.524.524 0 0 1-.906-.527m2.436-1.523a.525.525 0 1 1 .236 1.024.525.525 0 0 1-.236-1.024m-1.91-.051a.525.525 0 1 1 .907.527.525.525 0 0 1-.907-.527m3.34-.19a.525.525 0 1 1 .527.908.525.525 0 0 1-.528-.908M9.975 1.4c.358 0 .7.3.7.7v.927l.29.035.686.095a.7.7 0 1 1-.203 1.386l-.886-.12a3.6 3.6 0 0 0-1.175 0l-.886.12a.7.7 0 1 1-.203-1.386l.687-.095.29-.034V2.1a.7.7 0 0 1 .7-.7" clip-rule="evenodd"/></g><defs><clipPath id="a"><path fill="#fff" d="M0 0h14v14H0z"/></clipPath></defs></svg>