<svg width="20" height="20" viewBox="0 0 20 20" fill="none" xmlns="http://www.w3.org/2000/svg"><path d="M14.044 2.035 C 13.757 2.091,13.483 2.308,13.346 2.588 C 13.257 2.770,13.254 2.794,13.235 3.536 C 13.224 3.954,13.207 4.304,13.197 4.314 C 13.187 4.324,12.873 4.376,12.498 4.430 C 12.123 4.484,11.734 4.555,11.633 4.588 C 11.178 4.738,10.909 5.271,11.048 5.749 C 11.152 6.107,11.362 6.328,11.709 6.446 C 11.921 6.518,11.939 6.517,12.857 6.395 C 13.961 6.248,14.544 6.248,15.667 6.398 C 16.116 6.457,16.543 6.499,16.617 6.491 C 16.924 6.456,17.257 6.210,17.406 5.906 C 17.511 5.693,17.513 5.318,17.410 5.093 C 17.305 4.864,17.086 4.661,16.867 4.588 C 16.766 4.555,16.377 4.484,16.002 4.430 C 15.627 4.376,15.313 4.324,15.303 4.314 C 15.293 4.304,15.276 3.956,15.264 3.540 C 15.251 3.107,15.226 2.743,15.204 2.689 C 15.093 2.412,14.800 2.127,14.567 2.069 C 14.365 2.019,14.188 2.007,14.044 2.035 M6.100 6.802 C 5.282 6.868,4.432 7.489,4.034 8.311 C 3.652 9.102,3.685 10.078,4.120 10.846 C 4.306 11.173,4.830 11.697,5.154 11.879 C 5.821 12.255,6.588 12.338,7.310 12.113 C 8.166 11.846,8.795 11.230,9.087 10.373 C 9.380 9.512,9.270 8.677,8.765 7.931 C 8.353 7.324,7.590 6.853,6.957 6.815 C 6.807 6.805,6.616 6.794,6.533 6.789 C 6.451 6.783,6.256 6.789,6.100 6.802 M11.750 7.300 C 11.695 7.317,11.592 7.380,11.521 7.438 C 11.126 7.765,11.201 8.400,11.662 8.640 C 12.194 8.917,12.765 8.545,12.727 7.947 C 12.703 7.563,12.442 7.302,12.059 7.281 C 11.944 7.274,11.805 7.283,11.750 7.300 M16.250 7.300 C 15.977 7.386,15.766 7.692,15.767 8.002 C 15.769 8.449,16.102 8.756,16.553 8.727 C 16.801 8.711,16.986 8.603,17.125 8.394 C 17.205 8.273,17.217 8.222,17.217 8.000 C 17.217 7.778,17.205 7.727,17.125 7.606 C 16.985 7.396,16.810 7.295,16.559 7.281 C 16.444 7.274,16.305 7.283,16.250 7.300 M13.897 7.777 C 13.730 7.864,13.548 8.107,13.514 8.286 C 13.440 8.678,13.702 9.055,14.108 9.140 C 14.269 9.174,14.324 9.171,14.478 9.123 C 14.777 9.029,14.999 8.732,15.000 8.426 C 15.000 8.294,14.877 7.988,14.791 7.908 C 14.569 7.699,14.161 7.639,13.897 7.777 M11.009 9.537 C 10.860 9.580,10.578 9.870,10.535 10.025 C 10.458 10.303,10.526 10.554,10.736 10.764 C 11.043 11.071,11.457 11.071,11.764 10.764 C 12.006 10.522,12.059 10.232,11.915 9.943 C 11.744 9.600,11.370 9.433,11.009 9.537 M17.009 9.535 C 16.950 9.553,16.827 9.643,16.736 9.734 C 16.564 9.905,16.500 10.052,16.501 10.267 C 16.502 10.529,16.743 10.847,17.020 10.953 C 17.557 11.158,18.158 10.557,17.953 10.020 C 17.891 9.857,17.716 9.660,17.561 9.581 C 17.434 9.515,17.151 9.491,17.009 9.535 M14.003 10.024 C 13.959 10.033,13.846 10.117,13.752 10.211 C 13.441 10.524,13.420 10.883,13.692 11.201 C 13.868 11.407,14.031 11.476,14.304 11.461 C 14.587 11.445,14.772 11.328,14.895 11.090 C 15.019 10.848,15.027 10.640,14.921 10.422 C 14.759 10.091,14.422 9.945,14.003 10.024 M4.800 14.036 C 3.851 14.056,3.808 14.063,3.421 14.254 C 2.920 14.501,2.519 14.898,2.282 15.380 C 2.052 15.849,2.017 16.023,2.017 16.683 C 2.017 17.216,2.022 17.260,2.097 17.414 C 2.280 17.786,2.591 17.982,3.000 17.983 C 3.298 17.983,3.487 17.905,3.703 17.690 C 3.924 17.470,3.972 17.326,4.001 16.790 C 4.028 16.280,4.050 16.222,4.269 16.073 L 4.382 15.996 6.516 16.007 C 8.504 16.016,8.658 16.021,8.761 16.077 C 8.919 16.164,8.963 16.302,8.999 16.831 C 9.023 17.190,9.046 17.327,9.099 17.430 C 9.206 17.641,9.355 17.789,9.561 17.890 C 9.717 17.967,9.794 17.983,10.000 17.983 C 10.295 17.983,10.484 17.906,10.701 17.695 C 10.921 17.482,10.977 17.319,10.994 16.843 C 11.024 15.972,10.832 15.373,10.351 14.840 C 9.995 14.446,9.448 14.131,9.014 14.070 C 8.737 14.031,6.037 14.009,4.800 14.036 " fill="#1A1C1F" stroke="none" fill-rule="evenodd"></path></svg>