<svg xmlns="http://www.w3.org/2000/svg" width="28" height="28" fill="none"><g clip-path="url(#a)"><path fill="#1A1C1F" fill-rule="evenodd" d="M10.932 20.143c1.875 0 3.559 1.605 3.5 3.5v1.732a.875.875 0 1 1-1.75 0 278 278 0 0 1 0-1.732c0-.922-.807-1.75-1.75-1.75q-2.619-.003-5.238 0c-.922 0-1.762.722-1.75 1.75v1.732a.875.875 0 0 1-1.75 0q-.003-.866 0-1.732c0-1.874 1.509-3.5 3.5-3.5zM8.307 9.625a4.375 4.375 0 1 1 0 8.75 4.375 4.375 0 0 1 0-8.75m0 1.75a2.625 2.625 0 1 0 0 5.25 2.625 2.625 0 0 0 0-5.25m11.508 3.911a.875.875 0 1 1 1.484.928.875.875 0 0 1-1.484-.928m-4.39-.851a.874.874 0 1 1 1.512.879.874.874 0 0 1-1.511-.88m8.75 0a.874.874 0 1 1 1.512.879.874.874 0 0 1-1.511-.88m-4.36-1.774a.875.875 0 1 1 1.484.928.875.875 0 0 1-1.484-.928m-3.514-.851a.874.874 0 1 1 1.51.879.874.874 0 0 1-1.51-.88m7.316-.317a.876.876 0 1 1 .879 1.515.876.876 0 0 1-.88-1.514m-3.802-1.457a.875.875 0 1 1 1.484.928.875.875 0 0 1-1.484-.928m-2.64-.851a.874.874 0 1 1 1.512.879.874.874 0 0 1-1.511-.88m5.567-.316a.875.875 0 1 1 .88 1.514.875.875 0 0 1-.88-1.514M20.557 1.75c.449 0 .875.359.875.875V4.85q1.472.127 2.932.674a.875.875 0 1 1-.614 1.639 9 9 0 0 0-3.193-.6q-1.589 0-3.193.6a.875.875 0 0 1-.614-1.639q1.462-.548 2.932-.674V2.625c0-.483.392-.875.875-.875" clip-rule="evenodd"/></g><defs><clipPath id="a"><path fill="#fff" d="M0 0h28v28H0z"/></clipPath></defs></svg>