<svg width="14" height="14" viewBox="0 0 14 14" fill="none" xmlns="http://www.w3.org/2000/svg"><path d="M9.795 1.433 C 9.595 1.486,9.415 1.643,9.326 1.843 C 9.285 1.935,9.277 2.017,9.264 2.478 C 9.257 2.769,9.245 3.013,9.238 3.020 C 9.231 3.027,9.011 3.063,8.749 3.101 C 8.486 3.139,8.214 3.189,8.143 3.212 C 7.825 3.317,7.637 3.690,7.734 4.024 C 7.807 4.275,7.954 4.430,8.197 4.512 C 8.344 4.562,8.358 4.562,9.000 4.476 C 9.779 4.372,10.166 4.372,10.955 4.477 C 11.276 4.520,11.580 4.550,11.632 4.544 C 11.847 4.519,12.079 4.348,12.183 4.136 C 12.257 3.984,12.259 3.722,12.187 3.565 C 12.114 3.405,11.960 3.262,11.807 3.212 C 11.736 3.189,11.464 3.139,11.201 3.101 C 10.939 3.063,10.719 3.026,10.712 3.020 C 10.705 3.013,10.693 2.769,10.685 2.478 C 10.669 1.921,10.663 1.884,10.547 1.716 C 10.383 1.477,10.072 1.360,9.795 1.433 M4.282 4.762 C 3.560 4.814,2.868 5.440,2.684 6.207 C 2.551 6.764,2.706 7.428,3.066 7.840 C 3.230 8.027,3.480 8.247,3.605 8.314 C 4.116 8.587,4.617 8.639,5.135 8.472 C 5.867 8.237,6.364 7.621,6.463 6.828 C 6.504 6.498,6.430 6.087,6.273 5.779 C 5.991 5.225,5.395 4.799,4.857 4.770 C 4.746 4.763,4.618 4.756,4.573 4.753 C 4.528 4.749,4.397 4.754,4.282 4.762 M8.202 5.118 C 8.006 5.207,7.888 5.384,7.887 5.591 C 7.886 5.807,7.987 5.970,8.176 6.058 C 8.551 6.232,8.935 5.973,8.909 5.563 C 8.898 5.391,8.822 5.260,8.680 5.165 C 8.567 5.090,8.316 5.065,8.202 5.118 M11.375 5.110 C 11.183 5.170,11.036 5.384,11.037 5.602 C 11.038 5.914,11.272 6.129,11.587 6.109 C 11.760 6.098,11.890 6.022,11.987 5.876 C 12.043 5.791,12.052 5.756,12.052 5.600 C 12.052 5.444,12.043 5.409,11.987 5.324 C 11.891 5.178,11.774 5.111,11.595 5.098 C 11.512 5.093,11.414 5.098,11.375 5.110 M9.735 5.440 C 9.578 5.517,9.450 5.718,9.450 5.885 C 9.451 6.169,9.695 6.417,9.975 6.417 C 10.248 6.417,10.499 6.169,10.500 5.898 C 10.500 5.805,10.414 5.592,10.354 5.535 C 10.201 5.392,9.919 5.348,9.735 5.440 M7.706 6.675 C 7.601 6.707,7.404 6.910,7.375 7.018 C 7.319 7.218,7.369 7.389,7.528 7.541 C 7.752 7.755,8.026 7.749,8.243 7.525 C 8.417 7.347,8.443 7.120,8.315 6.912 C 8.192 6.713,7.923 6.608,7.706 6.675 M11.906 6.675 C 11.801 6.707,11.604 6.910,11.575 7.018 C 11.517 7.225,11.570 7.394,11.741 7.551 C 11.798 7.604,11.885 7.660,11.934 7.676 C 12.305 7.799,12.706 7.379,12.567 7.014 C 12.523 6.900,12.401 6.762,12.293 6.706 C 12.204 6.660,12.006 6.644,11.906 6.675 M9.802 7.017 C 9.771 7.023,9.692 7.082,9.626 7.148 C 9.510 7.265,9.450 7.389,9.450 7.513 C 9.450 7.683,9.589 7.896,9.755 7.981 C 9.877 8.043,10.080 8.042,10.211 7.979 C 10.392 7.891,10.514 7.665,10.491 7.460 C 10.455 7.135,10.165 6.949,9.802 7.017 M3.430 9.825 C 2.690 9.839,2.670 9.842,2.394 9.978 C 2.044 10.151,1.763 10.429,1.598 10.766 C 1.437 11.094,1.412 11.216,1.412 11.678 C 1.412 12.051,1.415 12.082,1.468 12.190 C 1.596 12.450,1.814 12.587,2.100 12.588 C 2.309 12.588,2.441 12.533,2.592 12.383 C 2.746 12.230,2.780 12.127,2.800 11.758 C 2.820 11.396,2.844 11.329,2.990 11.248 C 3.078 11.198,3.083 11.198,4.567 11.205 C 5.953 11.211,6.060 11.215,6.133 11.254 C 6.244 11.315,6.274 11.412,6.299 11.782 C 6.316 12.033,6.332 12.129,6.369 12.201 C 6.444 12.349,6.549 12.453,6.692 12.523 C 6.802 12.577,6.856 12.588,7.000 12.588 C 7.207 12.588,7.339 12.534,7.491 12.386 C 7.644 12.237,7.684 12.123,7.696 11.790 C 7.717 11.172,7.581 10.756,7.234 10.376 C 6.989 10.109,6.606 9.891,6.309 9.849 C 6.114 9.821,4.379 9.807,3.430 9.825 " fill="#1A1C1F" stroke="none" fill-rule="evenodd"></path></svg>