<svg xmlns="http://www.w3.org/2000/svg" width="24" height="24" fill="none"><g clip-path="url(#a)"><path fill="#1A1C1F" fill-rule="evenodd" d="M11.013 16a2 2 0 0 1 1.49.663c.386.43.56 1.005.472 1.602l-.511 2.903a1 1 0 1 1-1.97-.346L10.99 18H4.01l.53 2.814a1 1 0 0 1-1.938.485l-.582-3.062c-.084-.57.091-1.145.476-1.574.34-.38.87-.663 1.491-.663zm5.14-3.03a1 1 0 1 1 1.695 1.06 1 1 0 0 1-1.696-1.06m-4.017-.474a1 1 0 1 1 1.728 1.008 1 1 0 0 1-1.728-1.008m8.36-.36a1.001 1.001 0 0 1 1.007 1.728 1 1 0 0 1-1.006-1.729M7.52 6.937A3.47 3.47 0 0 1 11 10.418c0 1.933-1.553 3.52-3.48 3.52A3.537 3.537 0 0 1 4 10.418c0-1.928 1.586-3.48 3.52-3.48m0 2c-.838 0-1.519.666-1.519 1.48 0 .826.694 1.52 1.52 1.52.813 0 1.48-.682 1.48-1.52a1.47 1.47 0 0 0-1.48-1.48m8.633 1.032a1 1 0 1 1 1.696 1.06 1 1 0 0 1-1.696-1.06m-3.017-.473a1 1 0 1 1 1.728 1.005 1 1 0 0 1-1.728-1.005m6.362-.362a1 1 0 1 1 1.005 1.73 1 1 0 0 1-1.005-1.73M17 2c.513 0 .993.413.993 1l.008 2.53a17.6 17.6 0 0 1 3.241.5 1 1 0 0 1-.485 1.94A15.4 15.4 0 0 0 17 7.5q-1.876 0-3.758.47a1 1 0 0 1-.485-1.94A17.6 17.6 0 0 1 16 5.53V3a1 1 0 0 1 1-1" clip-rule="evenodd"/></g><defs><clipPath id="a"><path fill="#fff" d="M0 0h24v24H0z"/></clipPath></defs></svg>