<svg xmlns="http://www.w3.org/2000/svg" width="24" height="24" fill="none"><g clip-path="url(#a)"><path fill="#1A1C1F" fill-rule="evenodd" d="M9.998 16.002a2.995 2.995 0 0 1 3 3q.003.997 0 1.995a1 1 0 0 1-2 0q-.003-.997 0-1.995c0-.512-.373-.999-1-1q-2.494-.003-4.99 0a.99.99 0 0 0-1 1q-.003.998-.01 2a.987.987 0 0 1-.99.996c-.513 0-1.072-.442-1-1q-.003-.998 0-1.996c0-1.597 1.345-3 3-3zm6.152-3.03a1 1 0 1 1 1.696 1.06 1 1 0 0 1-1.696-1.06m-4.016-.473a1 1 0 1 1 1.729 1.006 1 1 0 1 1-1.73-1.006m8.36-.361a1.001 1.001 0 0 1 1.008 1.729 1 1 0 0 1-1.007-1.73M7.519 6.94a3.47 3.47 0 0 1 3.48 3.48c0 1.934-1.552 3.52-3.48 3.52-1.93 0-3.52-1.589-3.52-3.52 0-1.927 1.586-3.48 3.52-3.48m0 2c-.838 0-1.52.667-1.52 1.48 0 .827.694 1.52 1.52 1.52.813 0 1.48-.681 1.48-1.52a1.47 1.47 0 0 0-1.48-1.48m8.632 1.032a1 1 0 1 1 1.696 1.06 1 1 0 0 1-1.696-1.06M13.134 9.5a1 1 0 1 1 1.727 1.005A1 1 0 0 1 13.134 9.5m6.36-.361a1 1 0 1 1 1.006 1.73 1 1 0 0 1-1.005-1.73m-2.496-7.136c.513 0 .993.414.993 1L18 5.532a17.6 17.6 0 0 1 3.242.5 1 1 0 0 1-.485 1.94 15.4 15.4 0 0 0-3.758-.47q-1.875 0-3.757.47a1 1 0 0 1-.485-1.94q1.62-.405 3.242-.5v-2.53a1 1 0 0 1 1-1" clip-rule="evenodd"/></g><defs><clipPath id="a"><path fill="#fff" d="M0 0h24v24H0z"/></clipPath></defs></svg>