<svg width="14" height="14" viewBox="0 0 14 14" fill="none" xmlns="http://www.w3.org/2000/svg"><path d="M9.714 1.432 C 9.506 1.500,9.343 1.646,9.256 1.842 C 9.215 1.935,9.207 2.016,9.194 2.478 C 9.187 2.769,9.175 3.012,9.169 3.018 C 9.163 3.024,9.001 3.051,8.808 3.079 C 8.211 3.165,8.039 3.207,7.915 3.295 C 7.456 3.624,7.589 4.358,8.136 4.517 C 8.283 4.560,8.328 4.557,9.030 4.463 C 9.693 4.374,10.126 4.378,10.873 4.477 C 11.200 4.521,11.491 4.549,11.553 4.542 C 11.857 4.507,12.111 4.258,12.170 3.936 C 12.193 3.806,12.139 3.586,12.054 3.466 C 11.889 3.235,11.779 3.192,11.123 3.099 L 10.597 3.025 10.589 2.464 C 10.579 1.830,10.572 1.799,10.406 1.633 C 10.224 1.451,9.924 1.364,9.714 1.432 M4.112 4.761 C 3.706 4.834,3.214 5.140,2.956 5.480 C 2.808 5.675,2.738 5.806,2.662 6.035 C 2.522 6.452,2.522 6.824,2.663 7.245 C 2.754 7.520,2.884 7.735,3.089 7.951 C 3.809 8.709,4.916 8.778,5.719 8.113 C 6.433 7.520,6.602 6.414,6.101 5.609 C 5.990 5.432,5.769 5.197,5.605 5.083 C 5.452 4.976,5.202 4.860,5.013 4.807 C 4.815 4.751,4.309 4.725,4.112 4.761 M8.159 5.110 C 8.057 5.141,7.940 5.242,7.872 5.358 C 7.749 5.568,7.801 5.833,7.997 5.995 C 8.342 6.281,8.844 6.038,8.843 5.586 C 8.843 5.485,8.757 5.283,8.689 5.222 C 8.562 5.110,8.327 5.060,8.159 5.110 M11.305 5.110 C 11.267 5.122,11.195 5.165,11.147 5.205 C 10.894 5.414,10.894 5.786,11.147 5.995 C 11.435 6.233,11.852 6.108,11.972 5.747 C 12.038 5.545,11.935 5.276,11.748 5.167 C 11.632 5.099,11.425 5.073,11.305 5.110 M9.665 5.439 C 9.472 5.535,9.359 5.749,9.388 5.962 C 9.451 6.422,10.026 6.576,10.307 6.209 C 10.411 6.073,10.442 5.947,10.408 5.796 C 10.375 5.650,10.251 5.495,10.116 5.434 C 9.986 5.375,9.791 5.377,9.665 5.439 M7.647 6.681 C 7.516 6.722,7.399 6.828,7.336 6.962 C 7.238 7.173,7.274 7.369,7.443 7.537 C 7.658 7.753,7.948 7.752,8.165 7.535 C 8.335 7.365,8.372 7.163,8.269 6.957 C 8.198 6.815,8.096 6.729,7.942 6.683 C 7.814 6.644,7.766 6.644,7.647 6.681 M11.856 6.677 C 11.670 6.720,11.480 6.964,11.480 7.162 C 11.480 7.447,11.731 7.700,12.014 7.700 C 12.183 7.700,12.401 7.544,12.486 7.362 C 12.658 6.991,12.281 6.580,11.856 6.677 M9.669 7.056 C 9.383 7.189,9.296 7.537,9.481 7.809 C 9.580 7.956,9.716 8.027,9.898 8.027 C 10.133 8.027,10.334 7.879,10.398 7.657 C 10.473 7.402,10.357 7.164,10.103 7.049 C 9.963 6.985,9.816 6.987,9.669 7.056 M2.671 9.822 C 2.256 9.835,2.248 9.836,2.097 9.910 C 1.802 10.056,1.584 10.311,1.504 10.604 C 1.449 10.807,1.466 10.938,1.594 11.320 C 1.790 11.905,1.931 12.237,2.031 12.351 C 2.311 12.669,2.798 12.669,3.078 12.352 C 3.266 12.138,3.286 11.905,3.149 11.515 C 3.109 11.400,3.071 11.288,3.065 11.268 C 3.055 11.235,3.115 11.229,3.597 11.215 C 3.897 11.207,4.533 11.200,5.011 11.200 C 5.703 11.200,5.880 11.206,5.880 11.230 C 5.880 11.246,5.843 11.368,5.798 11.500 C 5.702 11.785,5.693 11.951,5.764 12.142 C 5.824 12.301,5.950 12.434,6.123 12.518 C 6.242 12.577,6.273 12.582,6.424 12.570 C 6.779 12.544,6.949 12.398,7.115 11.979 C 7.448 11.139,7.503 10.901,7.434 10.607 C 7.383 10.391,7.299 10.246,7.137 10.091 C 6.928 9.891,6.797 9.842,6.417 9.821 C 6.067 9.801,3.329 9.802,2.671 9.822 " fill="#1A1C1F" stroke="none" fill-rule="evenodd"></path></svg>