<svg xmlns="http://www.w3.org/2000/svg" width="16" height="16" fill="none"><g clip-path="url(#a)"><path fill="#1A1C1F" fill-rule="evenodd" d="M5.133 5.401a2.17 2.17 0 0 1 2.183 2.183A2.203 2.203 0 0 1 5.133 9.8a2.233 2.233 0 0 1-2.217-2.217A2.203 2.203 0 0 1 5.133 5.4m6.048 2.604a.6.6 0 1 1 .27 1.17.6.6 0 0 1-.27-1.17m2.233-.323a.6.6 0 1 1 .603 1.039.6.6 0 0 1-.603-1.039m-5.016.216a.6.6 0 1 1 1.036.603.6.6 0 0 1-1.036-.603m2.783-1.74a.6.6 0 1 1 .27 1.17.6.6 0 0 1-.27-1.17m-2.184-.059a.6.6 0 1 1 1.037.603.6.6 0 0 1-1.037-.603m3.817-.217a.6.6 0 1 1 .603 1.038.6.6 0 0 1-.603-1.038m-1.498-4.28c.41 0 .8.342.8.8V3.46l.331.041.785.109A.8.8 0 0 1 13 5.193l-1.012-.136a4.2 4.2 0 0 0-1.343 0l-1.013.136A.8.8 0 0 1 9.4 3.61l.785-.109.331-.04v-1.06a.8.8 0 0 1 .8-.8M7.336 11.2c.98 0 1.376.948 1.123 1.626q-.195.52-.395 1.04a.8.8 0 0 1-1.031.465.815.815 0 0 1-.465-1.032q.092-.25.188-.499H3.471l.194.52a.796.796 0 0 1-.468 1.03.81.81 0 0 1-1.03-.469q-.201-.53-.397-1.06c-.35-.93.435-1.62 1.123-1.621q2.221-.003 4.444 0" clip-rule="evenodd"/></g><defs><clipPath id="a"><path fill="#fff" d="M0 0h16v16H0z"/></clipPath></defs></svg>