<svg xmlns="http://www.w3.org/2000/svg" width="20" height="20" fill="none"><g clip-path="url(#a)"><path fill="#1A1C1F" fill-rule="evenodd" d="M8.5 14c.91 0 1.601.646 1.907 1.422l.57 1.362a1 1 0 0 1-.76 1.193c-.54.12-1.006-.317-1.193-.76l-.54-1.216H4.5l-.524 1.217c-.231.51-.654.879-1.194.759a1 1 0 0 1-.758-1.194l.554-1.345C2.819 14.765 3.537 14 4.5 14zM6.522 6.75A2.714 2.714 0 0 1 9.25 9.48a2.754 2.754 0 0 1-2.728 2.772A2.79 2.79 0 0 1 3.75 9.479 2.754 2.754 0 0 1 6.522 6.75m8.459 3.818a.75.75 0 1 1-1.46.337.75.75 0 0 1 1.46-.337m2.917-.694a.75.75 0 1 1-1.295.754.75.75 0 0 1 1.295-.754M11.627 9.6a.75.75 0 1 1-.754 1.297.75.75 0 0 1 .754-1.297m3.354-1.342a.75.75 0 1 1-1.46.338.75.75 0 0 1 1.46-.338m-2.604-.906a.75.75 0 1 1-.755 1.297.75.75 0 0 1 .755-1.297m4.771.27a.75.75 0 1 1-1.295.756.75.75 0 0 1 1.295-.755M14.25 2.002c.513 0 1 .428 1 1v1.324l.414.05.981.136a1 1 0 1 1-.29 1.979l-1.266-.17a5.2 5.2 0 0 0-1.4-.039l-1.544.209a1 1 0 0 1-.29-1.979l.981-.136.414-.048V3a1 1 0 0 1 1-1" clip-rule="evenodd"/></g><defs><clipPath id="a"><path fill="#fff" d="M0 0h20v20H0z"/></clipPath></defs></svg>