<svg xmlns="http://www.w3.org/2000/svg" width="32" height="32" fill="none"><path fill="#1A1C1F" fill-rule="evenodd" d="M23.067 2.111c-.241.125-.352.24-.46.476-.087.189-.098.368-.099 1.581l-.001 1.369-.28.035c-1.034.131-2.136.389-2.874.674-.662.255-.909.615-.822 1.197.039.261.259.561.505.688.32.166.495.155 1.189-.071.366-.119.974-.282 1.353-.362.627-.133.793-.146 1.862-.148 1.438-.004 2.129.106 3.49.558.551.182.732.181 1.071-.009.62-.346.637-1.317.03-1.673-.536-.314-1.91-.675-3.24-.851l-.248-.033-.021-1.371c-.014-.94-.042-1.421-.088-1.531a1.13 1.13 0 0 0-.526-.54c-.228-.098-.643-.092-.841.011m-3.04 8.012c-.357.228-.507.494-.507.896 0 .716.764 1.188 1.413.874.658-.318.744-1.238.159-1.684-.265-.202-.814-.246-1.065-.086m5.986.014c-.384.203-.601.734-.467 1.142.084.253.351.557.571.649.534.223 1.162-.087 1.327-.655.089-.306.067-.474-.104-.785-.234-.427-.865-.594-1.327-.351m-17.106.902c-.594.075-1.019.208-1.627.509-1.034.513-1.782 1.266-2.273 2.292-.36.752-.491 1.326-.491 2.16 0 .866.131 1.419.523 2.213a4.94 4.94 0 0 0 3.217 2.626c.433.115.634.138 1.237.139.496.001.832-.027 1.08-.087 1.738-.429 3.097-1.645 3.649-3.263a4.97 4.97 0 0 0 0-3.256c-.551-1.615-1.997-2.905-3.643-3.247-.486-.101-1.244-.14-1.672-.086m14.274.023a.993.993 0 0 0 .085 1.902c.806.221 1.478-.651 1.102-1.428-.197-.408-.758-.632-1.187-.474m-12.674 2.122c2.068.758 2.65 3.371 1.098 4.922-1.425 1.426-3.81 1.074-4.738-.698-.905-1.731.029-3.836 1.914-4.314.461-.117 1.28-.074 1.726.09m8.56-.082c-.247.131-.354.24-.46.471a.977.977 0 0 0 .363 1.257c.23.147.291.162.588.145.271-.016.367-.049.528-.179.304-.246.404-.47.382-.856-.022-.387-.19-.651-.522-.82-.252-.129-.654-.137-.879-.018m7.901.072a1.01 1.01 0 0 0-.206 1.51c.315.348.965.403 1.325.111.303-.245.403-.469.381-.855-.015-.257-.05-.369-.167-.521a.983.983 0 0 0-1.333-.245m-3.901.937a.99.99 0 0 0-.547 1.009c.086.763 1.003 1.137 1.611.659.299-.235.435-.77.292-1.149-.069-.184-.294-.427-.487-.528-.191-.1-.67-.095-.869.009M18.104 16.1a.983.983 0 0 0-.401 1.487c.509.703 1.579.444 1.786-.432.051-.218-.098-.678-.274-.847-.316-.303-.73-.38-1.111-.208m10.064-.046c-.404.172-.648.521-.648.927 0 .299.073.497.257.69.284.301.619.391 1.015.273.795-.236.942-1.301.245-1.779-.197-.134-.672-.195-.869-.111m-5.101 1.048c-.247.131-.354.24-.46.471a.977.977 0 0 0 .363 1.257c.23.147.291.162.588.145.272-.016.368-.049.533-.181.3-.24.398-.463.376-.854-.021-.387-.189-.651-.521-.82-.252-.129-.654-.137-.879-.018M5.6 23.042c-.63.074-1.298.42-1.684.87-.366.428-.471.748-.953 2.899-.251 1.121-.456 2.111-.456 2.202 0 .411.305.813.707.933.389.116.671.042.988-.258.216-.205.227-.241.73-2.488.22-.983.424-1.84.452-1.904.127-.291.052-.286 4.187-.27l3.813.014.132.133c.113.115.193.409.565 2.08.239 1.071.478 2.046.531 2.166.277.635 1.145.762 1.619.237.212-.234.278-.475.232-.848-.068-.556-.906-4.102-1.033-4.37-.329-.697-1.153-1.284-1.963-1.397-.439-.061-7.348-.061-7.867.001"/></svg>