<svg width="32" height="32" viewBox="0 0 32 32" fill="none" xmlns="http://www.w3.org/2000/svg"><path d="M23.067 2.127 C 22.557 2.361,22.512 2.528,22.509 4.193 L 22.507 5.533 21.880 5.626 C 20.646 5.808,19.306 6.203,18.871 6.513 C 18.676 6.652,18.509 6.994,18.509 7.253 C 18.509 7.675,18.843 8.103,19.259 8.215 C 19.451 8.267,19.566 8.247,20.342 8.027 C 21.808 7.613,22.059 7.575,23.360 7.574 C 24.973 7.573,25.332 7.628,27.021 8.129 C 27.442 8.254,27.539 8.266,27.726 8.215 C 28.487 8.010,28.730 7.033,28.144 6.532 C 27.785 6.224,26.660 5.880,25.280 5.655 C 24.913 5.596,24.595 5.547,24.573 5.547 C 24.551 5.547,24.532 5.073,24.530 4.493 C 24.527 3.061,24.482 2.669,24.293 2.422 C 24.015 2.056,23.493 1.931,23.067 2.127 M20.055 10.122 C 19.953 10.178,19.797 10.314,19.708 10.424 C 19.565 10.601,19.547 10.662,19.547 10.982 C 19.547 11.277,19.570 11.376,19.680 11.538 C 19.832 11.763,20.257 12.001,20.504 11.999 C 20.889 11.996,21.311 11.671,21.441 11.276 C 21.570 10.886,21.357 10.337,21.005 10.156 C 20.735 10.016,20.275 10.000,20.055 10.122 M26.039 10.140 C 25.568 10.373,25.373 11.040,25.647 11.483 C 25.832 11.782,26.094 11.959,26.399 11.988 C 27.082 12.054,27.660 11.344,27.437 10.713 C 27.232 10.130,26.590 9.867,26.039 10.140 M8.537 11.098 C 7.536 11.294,6.262 12.063,5.635 12.850 C 5.262 13.317,4.946 13.898,4.741 14.494 C 4.564 15.007,4.562 15.025,4.561 15.973 C 4.560 17.077,4.619 17.349,5.050 18.223 C 5.689 19.518,6.777 20.407,8.233 20.825 C 8.643 20.942,8.809 20.960,9.491 20.960 C 10.406 20.960,10.836 20.872,11.541 20.542 C 12.160 20.252,12.599 19.944,13.068 19.471 C 13.709 18.826,14.096 18.132,14.353 17.170 C 14.536 16.484,14.526 15.468,14.330 14.751 C 13.829 12.928,12.358 11.506,10.594 11.142 C 10.072 11.034,8.981 11.011,8.537 11.098 M23.067 11.121 C 22.824 11.252,22.714 11.366,22.607 11.600 C 22.350 12.160,22.658 12.786,23.276 12.959 C 23.715 13.082,24.177 12.849,24.380 12.402 C 24.570 11.984,24.448 11.504,24.079 11.223 C 23.831 11.033,23.324 10.982,23.067 11.121 M9.921 13.068 C 12.141 13.334,13.242 16.018,11.861 17.797 C 10.229 19.898,6.956 19.051,6.564 16.427 C 6.328 14.842,7.437 13.304,8.987 13.067 C 9.375 13.008,9.425 13.008,9.921 13.068 M19.043 13.130 C 18.762 13.277,18.639 13.435,18.554 13.762 C 18.465 14.102,18.529 14.365,18.763 14.625 C 19.094 14.991,19.494 15.081,19.924 14.886 C 20.429 14.656,20.621 14.023,20.346 13.492 C 20.134 13.083,19.481 12.901,19.043 13.130 M27.120 13.111 C 26.352 13.478,26.305 14.496,27.038 14.867 C 27.410 15.054,27.878 14.999,28.179 14.731 C 28.333 14.594,28.478 14.241,28.478 14.000 C 28.478 13.301,27.738 12.817,27.120 13.111 M23.049 14.138 C 22.317 14.510,22.357 15.554,23.118 15.900 C 23.755 16.189,24.402 15.784,24.462 15.057 C 24.492 14.689,24.392 14.465,24.087 14.218 C 23.820 14.002,23.384 13.968,23.049 14.138 M18.201 16.057 C 18.106 16.086,17.935 16.199,17.820 16.308 C 17.185 16.913,17.605 17.973,18.480 17.973 C 19.102 17.973,19.609 17.383,19.461 16.833 C 19.429 16.712,19.368 16.547,19.326 16.466 C 19.160 16.144,18.595 15.939,18.201 16.057 M28.206 16.051 C 27.581 16.243,27.310 17.084,27.712 17.582 C 28.270 18.271,29.341 18.006,29.469 17.147 C 29.528 16.755,29.307 16.311,28.967 16.138 C 28.780 16.043,28.380 15.998,28.206 16.051 M23.043 17.130 C 22.762 17.277,22.639 17.435,22.554 17.762 C 22.462 18.113,22.528 18.368,22.781 18.642 C 23.036 18.919,23.279 19.011,23.640 18.968 C 24.314 18.889,24.678 18.133,24.348 17.496 C 24.134 17.083,23.483 16.900,23.043 17.130 M6.160 23.037 C 5.197 23.081,4.937 23.152,4.375 23.528 C 3.638 24.019,3.524 24.295,2.906 27.073 C 2.463 29.060,2.459 29.095,2.613 29.412 C 2.978 30.166,4.046 30.165,4.380 29.410 C 4.436 29.285,4.625 28.550,4.800 27.778 C 5.361 25.312,5.384 25.231,5.538 25.130 C 5.661 25.049,5.941 25.038,8.264 25.025 C 9.688 25.017,11.440 25.029,12.157 25.052 L 13.461 25.093 13.560 25.264 C 13.615 25.357,13.838 26.209,14.057 27.157 C 14.523 29.176,14.588 29.415,14.730 29.613 C 14.969 29.949,15.501 30.065,15.924 29.872 C 16.327 29.689,16.517 29.310,16.458 28.806 C 16.381 28.154,15.585 24.831,15.411 24.436 C 15.174 23.900,14.580 23.396,13.905 23.160 L 13.520 23.026 10.267 23.012 C 8.477 23.004,6.629 23.015,6.160 23.037 " fill="#1A1C1F" stroke="none" fill-rule="evenodd"></path></svg>