<svg width="12" height="12" viewBox="0 0 12 12" fill="none" xmlns="http://www.w3.org/2000/svg"><path d="M8.326 1.228 C 8.148 1.286,8.009 1.411,7.934 1.579 C 7.898 1.658,7.892 1.728,7.881 2.124 C 7.874 2.374,7.865 2.582,7.859 2.587 C 7.854 2.592,7.715 2.615,7.550 2.639 C 7.038 2.713,6.891 2.749,6.784 2.825 C 6.391 3.106,6.505 3.736,6.973 3.872 C 7.097 3.908,7.151 3.905,7.730 3.829 C 8.397 3.742,8.629 3.744,9.330 3.843 C 9.752 3.903,9.963 3.903,10.083 3.843 C 10.458 3.658,10.549 3.171,10.264 2.885 C 10.139 2.761,10.031 2.726,9.535 2.657 L 9.084 2.593 9.077 2.112 C 9.070 1.656,9.068 1.625,9.024 1.536 C 8.908 1.301,8.566 1.150,8.326 1.228 M3.526 4.081 C 3.188 4.142,2.771 4.396,2.548 4.676 C 2.418 4.841,2.350 4.967,2.282 5.170 C 2.162 5.531,2.162 5.849,2.282 6.210 C 2.370 6.475,2.476 6.641,2.698 6.860 C 2.910 7.070,3.123 7.199,3.390 7.278 C 4.323 7.557,5.301 6.934,5.459 5.960 C 5.543 5.442,5.372 4.895,5.015 4.541 C 4.807 4.333,4.576 4.198,4.297 4.120 C 4.127 4.072,3.694 4.050,3.526 4.081 M6.994 4.380 C 6.848 4.424,6.711 4.597,6.687 4.766 C 6.662 4.950,6.822 5.169,7.026 5.230 C 7.133 5.262,7.209 5.253,7.336 5.195 C 7.486 5.125,7.580 4.968,7.580 4.788 C 7.580 4.701,7.506 4.528,7.447 4.476 C 7.339 4.380,7.138 4.337,6.994 4.380 M9.673 4.388 C 9.525 4.443,9.416 4.587,9.390 4.763 C 9.352 5.019,9.637 5.288,9.897 5.241 C 10.110 5.202,10.280 5.006,10.280 4.800 C 10.280 4.661,10.194 4.507,10.076 4.434 C 9.963 4.364,9.790 4.344,9.673 4.388 M8.285 4.662 C 8.017 4.795,7.960 5.153,8.173 5.368 C 8.418 5.616,8.828 5.497,8.922 5.150 C 8.971 4.972,8.852 4.740,8.671 4.658 C 8.559 4.607,8.393 4.609,8.285 4.662 M6.555 5.727 C 6.442 5.761,6.342 5.852,6.288 5.968 C 6.204 6.149,6.235 6.316,6.379 6.461 C 6.564 6.645,6.813 6.644,6.998 6.458 C 7.144 6.313,7.176 6.139,7.088 5.963 C 7.027 5.842,6.939 5.768,6.808 5.728 C 6.697 5.695,6.657 5.695,6.555 5.727 M10.165 5.719 C 10.043 5.749,9.911 5.877,9.868 6.006 C 9.749 6.363,10.117 6.714,10.450 6.563 C 10.604 6.493,10.711 6.353,10.733 6.193 C 10.772 5.907,10.459 5.646,10.165 5.719 M8.290 6.047 C 8.170 6.104,8.135 6.140,8.078 6.269 C 7.996 6.456,8.070 6.700,8.244 6.815 C 8.350 6.885,8.558 6.902,8.662 6.850 C 8.905 6.727,8.998 6.470,8.880 6.241 C 8.833 6.148,8.770 6.092,8.660 6.042 C 8.540 5.987,8.414 5.989,8.290 6.047 M2.289 8.419 C 1.932 8.430,1.928 8.431,1.795 8.496 C 1.459 8.662,1.234 9.018,1.266 9.333 C 1.278 9.450,1.405 9.841,1.558 10.233 C 1.678 10.539,1.760 10.647,1.936 10.734 C 2.221 10.874,2.584 10.749,2.723 10.464 C 2.760 10.388,2.769 10.337,2.769 10.200 C 2.769 10.051,2.759 10.005,2.693 9.833 C 2.651 9.725,2.622 9.632,2.627 9.626 C 2.633 9.620,3.178 9.611,3.839 9.605 C 4.873 9.595,5.040 9.598,5.040 9.623 C 5.040 9.638,5.008 9.745,4.969 9.860 C 4.860 10.179,4.875 10.350,5.031 10.561 C 5.164 10.742,5.428 10.821,5.669 10.751 C 5.843 10.700,5.989 10.547,6.078 10.320 C 6.237 9.918,6.366 9.541,6.386 9.425 C 6.434 9.154,6.330 8.852,6.121 8.653 C 5.936 8.476,5.828 8.436,5.490 8.418 C 5.177 8.401,2.848 8.402,2.289 8.419 " fill="#1A1C1F" stroke="none" fill-rule="evenodd"></path></svg>