<svg width="32" height="32" viewBox="0 0 32 32" fill="none" xmlns="http://www.w3.org/2000/svg"><path d="M23.067 2.127 C 22.557 2.361,22.512 2.528,22.509 4.193 L 22.507 5.533 21.880 5.626 C 20.646 5.808,19.306 6.203,18.871 6.513 C 18.676 6.652,18.509 6.994,18.509 7.253 C 18.509 7.675,18.843 8.103,19.259 8.215 C 19.451 8.267,19.566 8.247,20.342 8.027 C 21.808 7.613,22.059 7.575,23.361 7.574 C 24.967 7.573,25.446 7.643,26.869 8.089 C 27.557 8.305,27.705 8.300,28.051 8.049 C 28.583 7.663,28.623 6.925,28.134 6.521 C 27.790 6.237,26.706 5.901,25.413 5.676 C 24.973 5.600,24.602 5.527,24.589 5.513 C 24.575 5.500,24.548 4.893,24.528 4.166 C 24.508 3.438,24.475 2.785,24.453 2.715 C 24.286 2.167,23.607 1.879,23.067 2.127 M20.055 10.122 C 19.953 10.178,19.797 10.314,19.708 10.424 C 19.565 10.601,19.547 10.662,19.547 10.982 C 19.547 11.433,19.691 11.674,20.077 11.868 C 20.390 12.025,20.591 12.033,20.880 11.899 C 21.464 11.629,21.655 10.973,21.305 10.441 C 21.139 10.191,20.916 10.075,20.538 10.044 C 20.310 10.025,20.196 10.043,20.055 10.122 M26.039 10.139 C 25.777 10.269,25.640 10.441,25.544 10.760 C 25.359 11.380,25.958 12.068,26.606 11.979 C 27.224 11.894,27.634 11.268,27.436 10.710 C 27.232 10.130,26.589 9.867,26.039 10.139 M8.934 11.047 C 8.365 11.105,7.865 11.263,7.253 11.577 C 6.028 12.205,5.196 13.171,4.741 14.494 C 4.564 15.007,4.562 15.025,4.561 15.973 C 4.560 17.077,4.619 17.349,5.050 18.223 C 5.689 19.518,6.777 20.407,8.233 20.825 C 8.643 20.942,8.809 20.960,9.491 20.960 C 10.406 20.960,10.836 20.872,11.541 20.542 C 12.431 20.125,13.193 19.479,13.676 18.732 C 14.840 16.932,14.754 14.668,13.457 12.973 C 12.408 11.601,10.684 10.866,8.934 11.047 M23.067 11.121 C 22.824 11.252,22.714 11.366,22.607 11.600 C 22.351 12.158,22.657 12.775,23.282 12.960 C 23.844 13.126,24.482 12.622,24.479 12.015 C 24.477 11.729,24.311 11.399,24.079 11.223 C 23.831 11.033,23.324 10.982,23.067 11.121 M9.921 13.068 C 12.137 13.333,13.242 16.018,11.865 17.791 C 10.494 19.557,7.844 19.320,6.853 17.342 C 6.155 15.950,6.642 14.252,7.970 13.447 C 8.317 13.236,8.620 13.123,8.987 13.067 C 9.375 13.008,9.425 13.008,9.921 13.068 M19.043 13.130 C 18.762 13.277,18.639 13.435,18.554 13.762 C 18.465 14.102,18.529 14.365,18.763 14.625 C 19.094 14.991,19.494 15.081,19.924 14.886 C 20.429 14.656,20.621 14.023,20.346 13.492 C 20.134 13.083,19.481 12.901,19.043 13.130 M27.120 13.110 C 26.530 13.386,26.338 14.032,26.688 14.561 C 27.206 15.344,28.478 14.946,28.478 14.000 C 28.478 13.301,27.741 12.819,27.120 13.110 M23.049 14.138 C 22.317 14.510,22.357 15.554,23.118 15.900 C 23.755 16.189,24.402 15.784,24.462 15.057 C 24.492 14.689,24.392 14.465,24.087 14.218 C 23.820 14.002,23.384 13.968,23.049 14.138 M18.201 16.057 C 18.106 16.086,17.935 16.199,17.820 16.308 C 17.185 16.913,17.605 17.973,18.480 17.973 C 19.102 17.973,19.609 17.383,19.461 16.833 C 19.429 16.712,19.368 16.547,19.326 16.466 C 19.160 16.144,18.595 15.939,18.201 16.057 M28.206 16.051 C 27.581 16.243,27.310 17.084,27.712 17.582 C 28.270 18.271,29.341 18.006,29.469 17.147 C 29.528 16.755,29.307 16.311,28.967 16.138 C 28.780 16.043,28.380 15.998,28.206 16.051 M23.043 17.130 C 22.762 17.277,22.639 17.435,22.554 17.762 C 22.462 18.113,22.528 18.368,22.781 18.642 C 23.036 18.919,23.279 19.011,23.640 18.968 C 24.314 18.889,24.678 18.133,24.348 17.496 C 24.134 17.083,23.483 16.900,23.043 17.130 M5.067 23.038 C 4.175 23.066,4.055 23.081,3.825 23.195 C 3.259 23.473,2.795 24.031,2.602 24.664 C 2.496 25.015,2.493 25.075,2.552 25.710 C 2.641 26.654,2.972 28.929,3.072 29.276 C 3.212 29.762,3.590 30.011,4.112 29.961 C 4.434 29.930,4.753 29.727,4.872 29.477 C 4.999 29.209,4.983 28.761,4.803 27.456 C 4.550 25.628,4.508 25.177,4.582 25.104 C 4.630 25.055,5.809 25.040,9.494 25.040 C 13.769 25.040,14.352 25.050,14.424 25.121 C 14.497 25.194,14.481 25.384,14.266 26.949 C 14.008 28.833,13.987 29.138,14.100 29.402 C 14.314 29.902,14.916 30.112,15.445 29.872 C 15.867 29.680,15.940 29.476,16.179 27.813 C 16.538 25.326,16.545 24.878,16.238 24.250 C 16.050 23.865,15.567 23.400,15.162 23.213 C 14.874 23.080,14.784 23.068,13.840 23.033 C 12.653 22.989,6.499 22.993,5.067 23.038 " fill="#1A1C1F" stroke="none" fill-rule="evenodd"></path></svg>