<svg xmlns="http://www.w3.org/2000/svg" width="12" height="12" fill="none"><g clip-path="url(#a)"><path fill="#1A1C1F" fill-rule="evenodd" d="M3.85 4.05c.911 0 1.637.727 1.637 1.638A1.65 1.65 0 0 1 3.85 7.35a1.675 1.675 0 0 1-1.663-1.663A1.65 1.65 0 0 1 3.85 4.05m4.536 1.954a.45.45 0 1 1 .202.877.45.45 0 0 1-.202-.877m1.675-.242a.45.45 0 1 1 .452.779.45.45 0 0 1-.452-.78m-3.763.161a.45.45 0 1 1 .777.453.45.45 0 0 1-.777-.453M8.386 4.62a.45.45 0 1 1 .202.877.45.45 0 0 1-.202-.877m-1.638-.045a.45.45 0 1 1 .777.453.45.45 0 0 1-.777-.453m2.863-.162a.45.45 0 1 1 .452.778.45.45 0 0 1-.452-.778M8.487 1.2c.308 0 .6.257.6.6v.794l.248.03.59.082a.6.6 0 0 1-.175 1.187l-.76-.101a3.1 3.1 0 0 0-1.006 0l-.76.101a.6.6 0 1 1-.174-1.187l.589-.081.248-.03v-.795a.6.6 0 0 1 .6-.6M5.503 8.4c.734 0 1.031.71.841 1.219q-.146.39-.296.78a.6.6 0 0 1-.774.349.61.61 0 0 1-.348-.774q.069-.188.141-.374H2.603l.146.39a.597.597 0 0 1-.351.772.607.607 0 0 1-.773-.351q-.15-.397-.298-.795c-.262-.698.327-1.216.843-1.216q1.666-.003 3.333 0" clip-rule="evenodd"/></g><defs><clipPath id="a"><path fill="#fff" d="M0 0h12v12H0z"/></clipPath></defs></svg>