<svg width="24" height="24" viewBox="0 0 24 24" fill="none" xmlns="http://www.w3.org/2000/svg"><path d="M16.818 2.040 C 16.617 2.069,16.327 2.235,16.216 2.386 C 15.998 2.683,16.000 2.667,15.998 3.988 C 15.996 4.666,15.983 5.292,15.967 5.380 L 15.939 5.539 15.426 5.588 C 14.407 5.684,13.099 5.919,12.653 6.086 C 12.069 6.304,11.843 6.927,12.145 7.482 C 12.422 7.991,12.773 8.064,13.880 7.842 C 15.134 7.590,15.128 7.590,16.691 7.571 C 18.395 7.549,18.742 7.574,19.916 7.804 C 21.129 8.042,21.381 8.025,21.717 7.679 C 21.880 7.510,22.000 7.223,22.000 7.000 C 22.000 6.605,21.734 6.231,21.350 6.087 C 20.911 5.923,19.260 5.630,18.469 5.575 C 18.253 5.560,18.064 5.528,18.049 5.504 C 18.033 5.480,18.010 4.848,17.997 4.100 C 17.982 3.154,17.959 2.703,17.925 2.620 C 17.864 2.473,17.620 2.214,17.466 2.134 C 17.316 2.055,17.019 2.012,16.818 2.040 M6.920 7.001 C 5.619 7.181,4.480 8.229,4.115 9.580 C 3.989 10.046,3.988 10.814,4.112 11.273 C 4.540 12.858,5.910 13.920,7.525 13.920 C 8.419 13.920,9.233 13.593,9.881 12.974 C 10.377 12.500,10.652 12.043,10.864 11.340 C 10.959 11.026,10.973 10.909,10.976 10.420 C 10.979 9.775,10.908 9.451,10.641 8.900 C 10.211 8.008,9.358 7.308,8.404 7.061 C 8.100 6.982,7.289 6.949,6.920 7.001 M8.140 9.083 C 8.398 9.204,8.715 9.522,8.852 9.798 C 8.947 9.990,8.960 10.062,8.960 10.412 C 8.960 10.770,8.948 10.833,8.839 11.061 C 8.350 12.087,7.042 12.223,6.335 11.323 C 6.239 11.200,6.131 11.014,6.096 10.908 C 6.023 10.689,6.013 10.207,6.077 9.972 C 6.184 9.574,6.639 9.142,7.080 9.021 C 7.395 8.934,7.882 8.963,8.140 9.083 M13.773 9.036 C 12.872 9.265,12.740 10.462,13.569 10.885 C 14.094 11.152,14.773 10.870,14.937 10.317 C 15.040 9.971,15.008 9.754,14.808 9.439 C 14.614 9.134,14.131 8.946,13.773 9.036 M19.773 9.036 C 18.752 9.295,18.764 10.729,19.790 10.965 C 20.582 11.148,21.253 10.292,20.885 9.569 C 20.678 9.165,20.190 8.931,19.773 9.036 M16.691 9.559 C 16.389 9.631,16.110 9.957,16.031 10.331 C 15.991 10.525,15.994 10.588,16.056 10.784 C 16.280 11.494,17.162 11.719,17.683 11.200 C 17.869 11.015,18.000 10.733,18.000 10.520 C 18.000 10.114,17.670 9.657,17.311 9.567 C 17.105 9.515,16.887 9.512,16.691 9.559 M12.773 12.036 C 11.872 12.265,11.740 13.462,12.569 13.885 C 13.094 14.152,13.773 13.870,13.937 13.317 C 14.040 12.971,14.008 12.754,13.808 12.439 C 13.614 12.134,13.131 11.946,12.773 12.036 M20.715 12.053 C 20.315 12.202,20.064 12.491,20.020 12.853 C 19.903 13.799,21.005 14.368,21.678 13.710 C 22.041 13.355,22.090 12.842,21.800 12.420 C 21.585 12.108,21.052 11.927,20.715 12.053 M16.691 12.559 C 16.389 12.631,16.110 12.957,16.031 13.331 C 15.991 13.525,15.994 13.588,16.056 13.784 C 16.280 14.494,17.162 14.719,17.683 14.200 C 17.869 14.015,18.000 13.733,18.000 13.520 C 18.000 13.114,17.670 12.657,17.311 12.567 C 17.105 12.515,16.887 12.512,16.691 12.559 M4.800 16.038 C 4.525 16.054,4.246 16.086,4.180 16.108 C 3.708 16.268,3.220 16.644,2.956 17.051 C 2.790 17.308,2.630 17.908,2.244 19.720 C 1.995 20.892,1.976 21.032,2.040 21.261 C 2.144 21.633,2.611 21.999,2.984 22.000 C 3.345 22.000,3.707 21.778,3.859 21.463 C 3.918 21.338,4.082 20.688,4.282 19.780 C 4.462 18.966,4.632 18.244,4.660 18.176 C 4.709 18.057,4.721 18.052,5.021 18.026 C 5.421 17.993,9.750 17.992,10.072 18.025 C 10.227 18.042,10.324 18.072,10.337 18.108 C 10.349 18.139,10.495 18.771,10.660 19.512 C 11.136 21.644,11.121 21.607,11.561 21.855 C 11.932 22.065,12.303 22.011,12.680 21.694 C 12.835 21.564,12.999 21.233,13.000 21.052 C 13.000 20.906,12.676 19.300,12.417 18.166 C 12.292 17.617,12.204 17.323,12.113 17.153 C 11.885 16.724,11.465 16.372,10.894 16.129 C 10.690 16.042,10.659 16.041,7.994 16.024 C 6.512 16.015,5.075 16.021,4.800 16.038 " fill="#1A1C1F" stroke="none" fill-rule="evenodd"></path></svg>