<svg xmlns="http://www.w3.org/2000/svg" width="14" height="14" fill="none"><g clip-path="url(#a)"><path fill="#1A1C1F" fill-rule="evenodd" d="M4.492 4.726a1.9 1.9 0 0 1 1.91 1.91 1.93 1.93 0 0 1-1.91 1.94 1.954 1.954 0 0 1-1.94-1.94 1.93 1.93 0 0 1 1.94-1.91m5.291 2.278a.525.525 0 1 1 .236 1.024.525.525 0 0 1-.236-1.024m1.954-.282a.525.525 0 1 1 .528.91.525.525 0 0 1-.528-.91m-4.39.189a.524.524 0 1 1 .907.527.524.524 0 0 1-.906-.527m2.436-1.523a.525.525 0 1 1 .236 1.024.525.525 0 0 1-.236-1.024m-1.91-.051a.525.525 0 1 1 .907.527.525.525 0 0 1-.907-.527m3.34-.19a.525.525 0 1 1 .527.908.525.525 0 0 1-.528-.908M9.901 1.401c.359 0 .7.3.7.7v.927l.29.035.686.095a.7.7 0 1 1-.203 1.386l-.886-.12a3.7 3.7 0 0 0-1.175 0l-.886.12a.7.7 0 1 1-.203-1.386l.687-.095.29-.034v-.928a.7.7 0 0 1 .7-.7m-3.482 8.4c.857 0 1.203.83.981 1.422q-.17.456-.345.91a.7.7 0 0 1-.903.407.713.713 0 0 1-.406-.903q.08-.217.165-.436H3.037l.17.454a.697.697 0 0 1-.41.902.71.71 0 0 1-.9-.41q-.177-.464-.349-.927c-.305-.815.381-1.418.984-1.42z" clip-rule="evenodd"/></g><defs><clipPath id="a"><path fill="#fff" d="M0 0h14v14H0z"/></clipPath></defs></svg>