<svg width="16" height="16" viewBox="0 0 16 16" fill="none" xmlns="http://www.w3.org/2000/svg"><path d="M11.194 1.637 C 10.964 1.700,10.760 1.878,10.658 2.107 C 10.611 2.211,10.602 2.305,10.588 2.832 C 10.579 3.165,10.565 3.444,10.558 3.451 C 10.550 3.459,10.298 3.501,9.998 3.545 C 9.370 3.636,9.309 3.651,9.140 3.758 C 8.984 3.857,8.894 3.992,8.839 4.210 C 8.718 4.681,9.034 5.136,9.520 5.191 C 9.587 5.199,9.921 5.167,10.280 5.118 C 11.165 4.998,11.627 4.998,12.533 5.118 C 12.910 5.168,13.234 5.199,13.299 5.190 C 13.553 5.155,13.804 4.969,13.923 4.726 C 14.008 4.553,14.010 4.254,13.928 4.075 C 13.844 3.891,13.669 3.728,13.493 3.671 C 13.413 3.644,13.101 3.587,12.802 3.544 C 12.502 3.501,12.250 3.459,12.242 3.451 C 12.235 3.444,12.221 3.165,12.211 2.832 C 12.201 2.486,12.181 2.194,12.163 2.151 C 12.074 1.930,11.841 1.702,11.654 1.655 C 11.472 1.609,11.319 1.603,11.194 1.637 M4.516 5.515 C 3.302 5.945,2.703 7.228,3.169 8.400 C 3.207 8.495,3.264 8.620,3.296 8.676 C 3.444 8.938,3.862 9.356,4.124 9.504 C 4.910 9.950,5.888 9.864,6.599 9.288 C 7.148 8.844,7.472 8.047,7.387 7.352 C 7.286 6.520,6.768 5.852,5.980 5.538 C 5.778 5.458,5.762 5.456,5.253 5.447 C 4.737 5.438,4.732 5.438,4.516 5.515 M9.400 5.840 C 9.356 5.854,9.273 5.904,9.217 5.951 C 8.901 6.212,8.961 6.720,9.330 6.912 C 9.755 7.134,10.212 6.836,10.182 6.357 C 10.162 6.050,9.953 5.842,9.647 5.824 C 9.555 5.819,9.444 5.826,9.400 5.840 M13.000 5.840 C 12.781 5.909,12.613 6.153,12.614 6.402 C 12.615 6.759,12.882 7.005,13.243 6.982 C 13.440 6.969,13.589 6.882,13.700 6.715 C 13.764 6.618,13.773 6.578,13.773 6.400 C 13.773 6.222,13.764 6.182,13.700 6.085 C 13.588 5.917,13.448 5.836,13.247 5.824 C 13.155 5.819,13.044 5.826,13.000 5.840 M11.118 6.222 C 10.984 6.291,10.838 6.486,10.811 6.629 C 10.730 7.060,11.157 7.432,11.580 7.299 C 11.814 7.225,12.000 6.980,12.000 6.744 C 12.000 6.635,11.903 6.391,11.833 6.326 C 11.655 6.159,11.328 6.111,11.118 6.222 M8.807 7.628 C 8.687 7.665,8.462 7.897,8.428 8.020 C 8.366 8.243,8.421 8.443,8.589 8.610 C 8.843 8.861,9.171 8.857,9.421 8.600 C 9.619 8.396,9.649 8.137,9.502 7.900 C 9.362 7.672,9.055 7.552,8.807 7.628 M13.607 7.628 C 13.560 7.643,13.462 7.714,13.389 7.787 C 13.252 7.924,13.200 8.041,13.201 8.213 C 13.202 8.421,13.398 8.679,13.619 8.764 C 14.046 8.927,14.526 8.444,14.362 8.016 C 14.313 7.885,14.173 7.728,14.049 7.664 C 13.947 7.612,13.721 7.593,13.607 7.628 M11.208 8.019 C 11.175 8.025,11.089 8.083,11.017 8.149 C 10.884 8.268,10.800 8.436,10.800 8.582 C 10.800 8.780,10.957 9.023,11.148 9.121 C 11.288 9.192,11.520 9.191,11.669 9.119 C 11.876 9.019,12.016 8.760,11.990 8.526 C 11.949 8.156,11.614 7.940,11.208 8.019 M3.053 11.277 C 2.740 11.367,2.460 11.538,2.198 11.799 C 1.993 12.003,1.936 12.079,1.831 12.293 C 1.641 12.680,1.613 12.815,1.613 13.347 C 1.613 13.773,1.617 13.808,1.678 13.931 C 1.824 14.229,2.073 14.385,2.400 14.386 C 2.639 14.387,2.790 14.324,2.963 14.152 C 3.138 13.977,3.177 13.860,3.200 13.440 C 3.222 13.024,3.250 12.949,3.410 12.858 L 3.519 12.797 5.220 12.805 C 6.803 12.813,6.926 12.817,7.009 12.862 C 7.136 12.931,7.171 13.042,7.199 13.465 C 7.218 13.752,7.236 13.861,7.279 13.944 C 7.365 14.113,7.484 14.231,7.648 14.312 C 7.773 14.374,7.835 14.387,8.000 14.387 C 8.236 14.387,8.387 14.325,8.561 14.156 C 8.737 13.986,8.781 13.855,8.795 13.474 C 8.820 12.768,8.665 12.293,8.267 11.858 C 7.995 11.562,7.559 11.309,7.225 11.255 C 7.116 11.237,6.346 11.228,5.133 11.229 C 3.395 11.230,3.198 11.235,3.053 11.277 " fill="#1A1C1F" stroke="none" fill-rule="evenodd"></path></svg>