<svg xmlns="http://www.w3.org/2000/svg" width="28" height="28" fill="none"><g clip-path="url(#a)"><path fill="#1A1C1F" fill-rule="evenodd" d="M12.477 20.125c1.21 0 2.116 1.103 1.94 2.307l-.429 3.07a.875.875 0 0 1-1.731-.254l.428-3.07c.021-.147-.062-.303-.237-.303H4.15c-.121 0-.233.135-.209.303l.425 3.073a.875.875 0 0 1-1.712.348l-.445-3.173c-.18-1.206.764-2.297 1.808-2.297zm-4.164-10.5a4.375 4.375 0 1 1 0 8.75 4.375 4.375 0 0 1 0-8.75m0 1.75a2.625 2.625 0 1 0 0 5.25 2.625 2.625 0 0 0 0-5.25m11.508 3.911a.875.875 0 1 1 1.484.928.875.875 0 0 1-1.484-.928m-4.39-.851a.874.874 0 1 1 1.514.88.874.874 0 1 1-1.513-.88m8.75 0a.874.874 0 1 1 1.514.88.874.874 0 1 1-1.513-.88m-4.36-1.774a.875.875 0 1 1 1.484.928.875.875 0 0 1-1.484-.928m-3.514-.851a.874.874 0 1 1 1.513.88.874.874 0 1 1-1.513-.88m7.316-.317a.876.876 0 0 1 .88 1.513.876.876 0 0 1-.88-1.513m-3.802-1.457a.875.875 0 1 1 1.484.928.875.875 0 0 1-1.484-.928m-2.64-.851a.874.874 0 1 1 1.512.88.874.874 0 0 1-1.511-.88m5.567-.316a.875.875 0 1 1 .88 1.513.875.875 0 0 1-.88-1.513m-2.185-7.12c.449 0 .875.36.875.876V4.85q1.471.127 2.932.674a.875.875 0 1 1-.614 1.639 9 9 0 0 0-3.193-.6q-1.589 0-3.193.6a.875.875 0 0 1-.614-1.639q1.462-.548 2.932-.674V2.625c0-.483.392-.875.875-.875" clip-rule="evenodd"/></g><defs><clipPath id="a"><path fill="#fff" d="M0 0h28v28H0z"/></clipPath></defs></svg>