<svg width="24" height="24" viewBox="0 0 24 24" fill="none" xmlns="http://www.w3.org/2000/svg"><path d="M16.818 2.040 C 16.617 2.069,16.327 2.235,16.216 2.386 C 15.998 2.683,16.000 2.667,15.998 3.988 C 15.996 4.666,15.983 5.292,15.967 5.380 L 15.939 5.539 15.426 5.588 C 14.407 5.684,13.099 5.919,12.653 6.086 C 12.069 6.304,11.843 6.927,12.145 7.482 C 12.422 7.991,12.773 8.064,13.880 7.842 C 15.134 7.590,15.128 7.590,16.691 7.571 C 18.395 7.549,18.742 7.574,19.916 7.804 C 21.129 8.042,21.381 8.025,21.717 7.679 C 21.880 7.510,22.000 7.223,22.000 7.000 C 22.000 6.605,21.734 6.231,21.350 6.087 C 20.911 5.923,19.260 5.630,18.469 5.575 C 18.253 5.560,18.064 5.528,18.049 5.504 C 18.033 5.480,18.010 4.848,17.997 4.100 C 17.982 3.154,17.959 2.703,17.925 2.620 C 17.864 2.473,17.620 2.214,17.466 2.134 C 17.316 2.055,17.019 2.012,16.818 2.040 M6.920 7.001 C 5.619 7.181,4.480 8.229,4.115 9.580 C 3.989 10.046,3.988 10.814,4.112 11.273 C 4.540 12.858,5.910 13.920,7.525 13.920 C 8.419 13.920,9.233 13.593,9.881 12.974 C 10.377 12.500,10.652 12.043,10.864 11.340 C 10.959 11.026,10.973 10.909,10.976 10.420 C 10.979 9.775,10.908 9.451,10.641 8.900 C 10.211 8.008,9.358 7.308,8.404 7.061 C 8.100 6.982,7.289 6.949,6.920 7.001 M8.140 9.083 C 8.398 9.204,8.715 9.522,8.852 9.798 C 8.947 9.990,8.960 10.062,8.960 10.412 C 8.960 10.770,8.948 10.833,8.839 11.061 C 8.350 12.087,7.042 12.223,6.335 11.323 C 6.239 11.200,6.131 11.014,6.096 10.908 C 6.023 10.689,6.013 10.207,6.077 9.972 C 6.184 9.574,6.639 9.142,7.080 9.021 C 7.395 8.934,7.882 8.963,8.140 9.083 M13.773 9.036 C 12.872 9.265,12.740 10.462,13.569 10.885 C 14.094 11.152,14.773 10.870,14.937 10.317 C 15.040 9.971,15.008 9.754,14.808 9.439 C 14.614 9.134,14.131 8.946,13.773 9.036 M19.773 9.036 C 18.752 9.295,18.764 10.729,19.790 10.965 C 20.582 11.148,21.253 10.292,20.885 9.569 C 20.678 9.165,20.190 8.931,19.773 9.036 M16.691 9.559 C 16.389 9.631,16.110 9.957,16.031 10.331 C 15.991 10.525,15.994 10.588,16.056 10.784 C 16.280 11.494,17.162 11.719,17.683 11.200 C 17.869 11.015,18.000 10.733,18.000 10.520 C 18.000 10.114,17.670 9.657,17.311 9.567 C 17.105 9.515,16.887 9.512,16.691 9.559 M12.773 12.036 C 11.872 12.265,11.740 13.462,12.569 13.885 C 13.094 14.152,13.773 13.870,13.937 13.317 C 14.040 12.971,14.008 12.754,13.808 12.439 C 13.614 12.134,13.131 11.946,12.773 12.036 M20.715 12.053 C 20.315 12.202,20.064 12.491,20.020 12.853 C 19.903 13.799,21.005 14.368,21.678 13.710 C 22.041 13.355,22.090 12.842,21.800 12.420 C 21.585 12.108,21.052 11.927,20.715 12.053 M16.691 12.559 C 16.389 12.631,16.110 12.957,16.031 13.331 C 15.991 13.525,15.994 13.588,16.056 13.784 C 16.280 14.494,17.162 14.719,17.683 14.200 C 17.869 14.015,18.000 13.733,18.000 13.520 C 18.000 13.114,17.670 12.657,17.311 12.567 C 17.105 12.515,16.887 12.512,16.691 12.559 M4.100 16.038 C 3.427 16.062,3.417 16.064,3.140 16.200 C 2.574 16.478,2.131 17.059,2.029 17.658 C 1.987 17.900,1.994 17.998,2.094 18.594 C 2.215 19.315,2.572 21.121,2.644 21.380 C 2.744 21.740,3.254 22.042,3.666 21.985 C 4.031 21.935,4.363 21.664,4.501 21.303 C 4.587 21.077,4.588 21.084,4.255 19.288 C 4.132 18.622,4.043 18.064,4.059 18.048 C 4.095 18.011,10.905 18.011,10.941 18.048 C 10.957 18.064,10.878 18.595,10.766 19.228 C 10.484 20.826,10.461 21.036,10.539 21.301 C 10.625 21.598,10.887 21.856,11.189 21.944 C 11.587 22.060,11.941 21.950,12.229 21.622 C 12.369 21.463,12.399 21.393,12.475 21.038 C 12.611 20.396,12.960 18.368,12.986 18.060 C 13.050 17.316,12.586 16.558,11.853 16.210 L 11.540 16.062 10.800 16.034 C 9.917 16.001,5.066 16.004,4.100 16.038 " fill="#1A1C1F" stroke="none" fill-rule="evenodd"></path></svg>