<svg width="24" height="24" viewBox="0 0 24 24" fill="none" xmlns="http://www.w3.org/2000/svg"><path d="M16.796 2.038 C 16.604 2.075,16.320 2.245,16.216 2.386 C 15.999 2.681,16.000 2.676,16.000 3.888 C 16.000 4.511,15.988 5.139,15.974 5.285 L 15.949 5.550 15.565 5.577 C 14.500 5.653,12.974 5.940,12.530 6.148 C 12.287 6.261,12.137 6.438,12.057 6.705 C 11.985 6.944,11.985 7.056,12.061 7.310 C 12.147 7.600,12.411 7.858,12.712 7.945 C 12.968 8.020,13.031 8.013,14.040 7.805 C 15.018 7.603,15.327 7.580,17.000 7.580 C 18.673 7.580,18.982 7.603,19.960 7.805 C 20.967 8.013,21.032 8.020,21.285 7.946 C 21.805 7.795,22.100 7.245,21.946 6.716 C 21.880 6.491,21.680 6.244,21.479 6.140 C 21.125 5.956,18.877 5.560,18.190 5.560 C 18.108 5.560,18.039 5.555,18.037 5.550 C 18.035 5.545,18.019 4.896,18.001 4.109 C 17.973 2.856,17.960 2.665,17.899 2.569 C 17.647 2.172,17.206 1.960,16.796 2.038 M6.901 7.002 C 5.794 7.176,4.726 8.029,4.273 9.100 C 4.076 9.564,4.021 9.859,4.022 10.440 C 4.023 10.876,4.040 11.040,4.112 11.292 C 4.348 12.119,4.835 12.819,5.489 13.269 C 5.868 13.530,6.104 13.647,6.520 13.778 C 8.397 14.370,10.399 13.207,10.905 11.231 C 11.002 10.855,10.965 9.707,10.846 9.381 C 10.492 8.413,9.900 7.731,9.060 7.320 C 8.840 7.213,8.552 7.096,8.420 7.062 C 8.129 6.985,7.230 6.950,6.901 7.002 M8.170 9.105 C 8.427 9.235,8.721 9.535,8.855 9.806 C 8.947 9.990,8.960 10.065,8.960 10.412 C 8.960 10.770,8.948 10.833,8.839 11.061 C 8.686 11.383,8.421 11.656,8.129 11.793 C 7.928 11.887,7.850 11.900,7.500 11.900 C 7.121 11.900,7.087 11.893,6.850 11.764 C 6.547 11.600,6.326 11.368,6.162 11.044 C 6.054 10.829,6.040 10.763,6.040 10.451 C 6.040 10.016,6.080 9.871,6.270 9.599 C 6.445 9.349,6.709 9.148,7.008 9.036 C 7.310 8.924,7.878 8.957,8.170 9.105 M13.818 9.040 C 13.132 9.137,12.778 9.980,13.180 10.559 C 13.577 11.132,14.421 11.130,14.807 10.556 C 15.015 10.247,15.052 9.938,14.917 9.640 C 14.718 9.201,14.299 8.973,13.818 9.040 M19.818 9.040 C 19.132 9.137,18.778 9.980,19.180 10.559 C 19.577 11.132,20.421 11.130,20.807 10.556 C 21.015 10.247,21.052 9.938,20.917 9.640 C 20.718 9.201,20.299 8.973,19.818 9.040 M16.665 9.576 C 16.432 9.663,16.233 9.844,16.106 10.084 C 16.010 10.269,15.995 10.336,16.008 10.546 C 16.035 10.987,16.380 11.378,16.825 11.473 C 17.224 11.558,17.724 11.301,17.890 10.927 C 18.038 10.592,17.972 10.086,17.748 9.847 C 17.492 9.572,17.004 9.450,16.665 9.576 M12.818 12.040 C 12.132 12.137,11.778 12.980,12.180 13.559 C 12.577 14.132,13.421 14.130,13.807 13.556 C 14.015 13.247,14.052 12.938,13.917 12.640 C 13.718 12.201,13.299 11.973,12.818 12.040 M20.818 12.040 C 20.132 12.137,19.778 12.980,20.180 13.559 C 20.577 14.132,21.421 14.130,21.807 13.556 C 22.015 13.247,22.052 12.938,21.917 12.640 C 21.718 12.201,21.299 11.973,20.818 12.040 M16.665 12.576 C 16.432 12.663,16.233 12.844,16.106 13.084 C 16.010 13.269,15.995 13.336,16.008 13.546 C 16.035 13.987,16.380 14.378,16.825 14.473 C 17.224 14.558,17.724 14.301,17.890 13.927 C 18.038 13.592,17.972 13.086,17.748 12.847 C 17.492 12.572,17.004 12.450,16.665 12.576 M4.280 16.102 C 4.159 16.134,3.890 16.244,3.682 16.346 C 3.364 16.502,3.244 16.591,2.937 16.896 C 2.519 17.311,2.312 17.648,2.119 18.226 L 1.996 18.592 2.008 19.966 L 2.020 21.340 2.141 21.519 C 2.289 21.738,2.551 21.906,2.841 21.966 C 3.025 22.005,3.098 22.001,3.293 21.944 C 3.573 21.862,3.850 21.611,3.920 21.374 C 3.945 21.287,3.980 20.680,4.000 19.974 C 4.038 18.593,4.044 18.563,4.326 18.292 C 4.600 18.030,4.471 18.040,7.551 18.040 L 10.344 18.040 10.530 18.158 C 10.941 18.418,10.997 18.652,10.999 20.108 C 11.000 21.221,11.028 21.385,11.253 21.629 C 11.490 21.886,11.685 21.977,12.000 21.977 C 12.393 21.977,12.697 21.788,12.894 21.421 C 12.977 21.265,12.980 21.216,12.980 19.880 C 12.980 18.545,12.977 18.490,12.886 18.200 C 12.593 17.260,11.945 16.562,11.021 16.189 L 10.700 16.060 7.600 16.052 C 5.001 16.045,4.464 16.053,4.280 16.102 " fill="#1A1C1F" stroke="none" fill-rule="evenodd"></path></svg>