<svg xmlns="http://www.w3.org/2000/svg" width="16" height="16" fill="none"><g clip-path="url(#a)"><path fill="#1A1C1F" fill-rule="evenodd" d="M6.8 11.2c.728 0 1.28.517 1.526 1.137l.455 1.09a.8.8 0 0 1-.607.955c-.432.095-.805-.254-.955-.608l-.432-.973H3.6l-.419.973c-.185.408-.524.704-.955.607a.8.8 0 0 1-.607-.955l.443-1.076c.193-.538.767-1.15 1.538-1.15zM5.217 5.4A2.17 2.17 0 0 1 7.4 7.583 2.203 2.203 0 0 1 5.217 9.8 2.233 2.233 0 0 1 3 7.583 2.203 2.203 0 0 1 5.217 5.4m6.768 3.054a.6.6 0 1 1-1.169.27.6.6 0 0 1 1.169-.27m2.334-.555a.6.6 0 1 1-1.037.604.6.6 0 0 1 1.037-.604M9.3 7.681a.6.6 0 1 1-.603 1.037.6.6 0 0 1 .603-1.037m2.684-1.074a.6.6 0 1 1-1.168.27.6.6 0 0 1 1.168-.27m-2.083-.725a.6.6 0 1 1-.604 1.038.6.6 0 0 1 .604-1.038m3.817.217a.6.6 0 1 1-1.037.604.6.6 0 0 1 1.037-.604M11.4 1.6c.41 0 .8.343.8.8v1.06l.331.04.785.109a.8.8 0 0 1-.232 1.583l-1.012-.136a4.2 4.2 0 0 0-1.12-.03l-1.236.166a.8.8 0 0 1-.232-1.583l.785-.109.331-.039v-1.06a.8.8 0 0 1 .8-.8" clip-rule="evenodd"/></g><defs><clipPath id="a"><path fill="#fff" d="M0 0h16v16H0z"/></clipPath></defs></svg>