<svg width="32" height="32" viewBox="0 0 32 32" fill="none" xmlns="http://www.w3.org/2000/svg"><path d="M23.154 2.065 C 22.944 2.105,22.582 2.510,22.543 2.750 C 22.523 2.865,22.508 3.539,22.507 4.246 L 22.507 5.533 21.880 5.627 C 21.025 5.755,19.690 6.096,19.251 6.298 C 18.834 6.490,18.653 6.661,18.560 6.953 C 18.402 7.448,18.612 7.887,19.127 8.139 C 19.471 8.307,19.337 8.325,20.676 7.930 C 21.638 7.646,22.347 7.554,23.573 7.556 C 24.789 7.557,25.410 7.650,26.560 8.003 C 27.399 8.260,27.626 8.281,27.917 8.129 C 28.370 7.893,28.575 7.418,28.426 6.953 C 28.333 6.661,28.153 6.490,27.736 6.298 C 27.297 6.096,25.962 5.755,25.110 5.627 L 24.488 5.534 24.470 4.083 L 24.453 2.631 24.300 2.430 C 24.050 2.103,23.641 1.973,23.154 2.065 M20.080 10.107 C 19.696 10.315,19.515 10.596,19.512 10.987 C 19.507 11.638,20.172 12.145,20.772 11.947 C 21.568 11.684,21.729 10.612,21.036 10.184 C 20.786 10.030,20.296 9.990,20.080 10.107 M26.147 10.086 C 25.796 10.188,25.492 10.632,25.495 11.040 C 25.496 11.222,25.665 11.575,25.820 11.717 C 25.989 11.873,26.302 12.000,26.515 12.000 C 26.769 12.000,27.133 11.802,27.283 11.581 C 27.574 11.154,27.559 10.761,27.236 10.370 C 26.976 10.054,26.599 9.956,26.147 10.086 M23.227 11.051 C 22.410 11.336,22.266 12.323,22.968 12.817 C 23.406 13.125,23.915 13.028,24.289 12.566 C 24.436 12.385,24.453 12.326,24.453 12.004 C 24.453 11.691,24.434 11.619,24.300 11.443 C 24.143 11.238,23.691 10.985,23.493 10.991 C 23.435 10.993,23.315 11.020,23.227 11.051 M8.269 11.172 C 7.603 11.349,6.776 11.757,6.373 12.110 C 5.433 12.932,4.944 13.707,4.630 14.870 C 4.485 15.409,4.472 16.492,4.604 17.040 C 4.721 17.523,4.979 18.175,5.216 18.583 C 5.469 19.020,6.485 20.032,6.932 20.290 C 8.315 21.092,9.937 21.209,11.404 20.613 C 12.044 20.353,12.520 20.010,13.134 19.367 C 13.795 18.674,14.100 18.115,14.353 17.136 C 14.521 16.481,14.523 15.527,14.357 14.860 C 14.128 13.944,13.669 13.147,12.963 12.441 C 12.525 12.003,12.156 11.745,11.594 11.486 C 10.930 11.179,10.477 11.083,9.573 11.060 C 8.850 11.041,8.725 11.052,8.269 11.172 M10.362 13.155 C 11.152 13.387,11.787 13.929,12.167 14.696 L 12.400 15.165 12.400 15.996 L 12.400 16.827 12.208 17.227 C 11.838 17.998,11.225 18.560,10.453 18.833 C 10.168 18.934,9.998 18.956,9.493 18.956 C 8.989 18.956,8.818 18.934,8.533 18.833 C 7.762 18.560,7.149 17.998,6.779 17.227 L 6.587 16.827 6.587 16.000 L 6.587 15.173 6.779 14.773 C 7.035 14.239,7.388 13.820,7.826 13.531 C 8.160 13.310,8.643 13.104,8.960 13.046 C 9.197 13.003,10.075 13.071,10.362 13.155 M19.049 13.128 C 18.393 13.453,18.331 14.408,18.941 14.811 C 19.558 15.220,20.384 14.838,20.467 14.107 C 20.520 13.634,20.256 13.229,19.792 13.074 C 19.524 12.984,19.308 13.000,19.049 13.128 M27.049 13.128 C 26.393 13.453,26.331 14.408,26.941 14.811 C 27.558 15.220,28.384 14.838,28.467 14.107 C 28.520 13.634,28.256 13.229,27.792 13.074 C 27.524 12.984,27.308 13.000,27.049 13.128 M23.173 14.065 C 22.989 14.110,22.723 14.345,22.613 14.561 C 22.340 15.095,22.656 15.774,23.260 15.955 C 23.828 16.125,24.478 15.608,24.478 14.987 C 24.478 14.765,24.326 14.413,24.171 14.275 C 23.951 14.080,23.502 13.985,23.173 14.065 M18.160 16.080 C 17.750 16.223,17.444 16.741,17.514 17.171 C 17.596 17.680,18.204 18.097,18.681 17.970 C 19.168 17.841,19.466 17.480,19.466 17.021 C 19.467 16.549,19.186 16.187,18.715 16.052 C 18.483 15.985,18.419 15.989,18.160 16.080 M28.202 16.051 C 27.667 16.219,27.372 16.876,27.593 17.406 C 27.740 17.757,28.292 18.072,28.625 17.995 C 29.305 17.837,29.670 17.154,29.377 16.587 C 29.162 16.171,28.615 15.921,28.202 16.051 M23.049 17.128 C 22.704 17.298,22.533 17.589,22.534 18.002 C 22.535 18.417,22.708 18.706,23.053 18.874 C 23.873 19.270,24.728 18.479,24.402 17.625 C 24.304 17.368,24.089 17.173,23.792 17.074 C 23.524 16.984,23.308 17.000,23.049 17.128 M6.133 23.093 C 5.114 23.160,4.499 23.450,3.703 24.240 C 3.311 24.630,3.173 24.812,2.971 25.206 C 2.588 25.956,2.557 26.126,2.523 27.680 C 2.490 29.200,2.514 29.380,2.789 29.672 C 3.149 30.054,3.721 30.086,4.134 29.746 C 4.469 29.469,4.491 29.362,4.531 27.812 L 4.567 26.424 4.723 26.136 C 4.937 25.743,5.252 25.434,5.622 25.253 C 6.076 25.031,6.734 24.998,10.086 25.030 L 12.946 25.057 13.255 25.208 C 13.809 25.479,14.237 25.967,14.408 26.522 C 14.437 26.616,14.477 27.295,14.497 28.031 L 14.534 29.369 14.683 29.565 C 15.083 30.088,15.858 30.107,16.282 29.603 C 16.468 29.382,16.499 29.026,16.467 27.451 C 16.443 26.246,16.432 26.134,16.307 25.777 C 15.963 24.792,15.231 23.972,14.267 23.490 C 13.404 23.058,13.597 23.077,9.973 23.064 C 8.199 23.058,6.471 23.071,6.133 23.093 " fill="#1A1C1F" stroke="none" fill-rule="evenodd"></path></svg>