<svg xmlns="http://www.w3.org/2000/svg" width="24" height="24" fill="none"><g clip-path="url(#a)"><path fill="#1A1C1F" fill-rule="evenodd" d="M10.158 16c1.042 0 1.956.708 2.171 1.717l.65 3.062a1 1 0 1 1-1.957.414l-.649-3.06c-.011-.054-.07-.133-.215-.133H4.847c-.118 0-.203.066-.217.131l-.652 3.076a1 1 0 1 1-1.956-.414l.652-3.078C2.877 16.764 3.766 16 4.847 16zm7.372-3.348a1 1 0 1 1-1.058 1.695 1 1 0 0 1 1.058-1.695m-4.028-.516a1 1 0 1 1-1.005 1.73 1 1 0 0 1 1.005-1.73m8.362.362a1 1 0 1 1-1.728 1.006 1 1 0 0 1 1.728-1.006M7.52 6.938A3.47 3.47 0 0 1 11 10.418c0 1.933-1.553 3.52-3.48 3.52-1.931 0-3.52-1.59-3.52-3.52 0-1.928 1.586-3.48 3.52-3.48m0 2c-.838 0-1.519.667-1.519 1.48 0 .826.694 1.52 1.52 1.52.813 0 1.48-.682 1.48-1.52a1.47 1.47 0 0 0-1.48-1.48m10.01.714a.999.999 0 1 1-1.059 1.695 1 1 0 1 1 1.06-1.695m-3.027-.516a1 1 0 1 1-1.006 1.73 1 1 0 0 1 1.006-1.73m6.362.361a1 1 0 1 1-1.727 1.007 1 1 0 0 1 1.727-1.007M17 2c.513 0 .993.414.993 1l.008 2.53a17.6 17.6 0 0 1 3.241.5 1 1 0 1 1-.485 1.94A15.4 15.4 0 0 0 17 7.5q-1.876 0-3.758.47a1 1 0 0 1-.485-1.94A17.6 17.6 0 0 1 16 5.53V3a1 1 0 0 1 1-1" clip-rule="evenodd"/></g><defs><clipPath id="a"><path fill="#fff" d="M0 0h24v24H0z"/></clipPath></defs></svg>