<svg xmlns="http://www.w3.org/2000/svg" width="32" height="32" fill="none"><g clip-path="url(#a)"><path fill="#1A1C1F" fill-rule="evenodd" d="M14.26 23c1.382 0 2.418 1.26 2.216 2.637l-.49 3.508a1 1 0 0 1-1.979-.29l.49-3.509c.024-.167-.07-.346-.27-.346H4.742c-.138 0-.265.154-.238.346l.485 3.512a1 1 0 0 1-1.956.398l-.508-3.627c-.205-1.378.873-2.624 2.066-2.624zM9.5 11a5 5 0 1 1 0 10 5 5 0 0 1 0-10m0 2a3 3 0 1 0 0 6 3 3 0 0 0 0-6m13.153 4.47a1 1 0 1 1 1.696 1.06 1 1 0 0 1-1.696-1.06m-5.017-.973a.999.999 0 1 1 1.73 1.006 1 1 0 1 1-1.73-1.006m10 0a.999.999 0 1 1 1.73 1.006 1 1 0 1 1-1.73-1.006m-4.983-2.027a1 1 0 1 1 1.696 1.06 1 1 0 0 1-1.696-1.06m-4.017-.973a.999.999 0 1 1 1.73 1.006 1 1 0 1 1-1.73-1.006m8.361-.362a1 1 0 0 1 1.007 1.73 1 1 0 0 1-1.007-1.73m-4.344-1.665a1 1 0 1 1 1.696 1.06 1 1 0 0 1-1.696-1.06m-3.017-.973a1 1 0 1 1 1.728 1.005 1 1 0 0 1-1.728-1.005m6.361-.361a1 1 0 1 1 1.006 1.73 1 1 0 0 1-1.006-1.73M23.501 2a1 1 0 0 1 1 1v2.543q1.681.144 3.35.77a1 1 0 1 1-.701 1.873Q25.317 7.5 23.5 7.5q-1.814 0-3.648.686a1 1 0 1 1-.702-1.872 12.6 12.6 0 0 1 3.35-.771V3a1 1 0 0 1 1-1" clip-rule="evenodd"/></g><defs><clipPath id="a"><path fill="#fff" d="M0 0h32v32H0z"/></clipPath></defs></svg>