<svg width="20" height="20" viewBox="0 0 20 20" fill="none" xmlns="http://www.w3.org/2000/svg"><path d="M13.941 2.061 C 13.702 2.146,13.471 2.350,13.352 2.580 C 13.255 2.768,13.255 2.772,13.235 3.533 C 13.224 3.953,13.207 4.304,13.197 4.314 C 13.187 4.324,12.873 4.376,12.498 4.430 C 12.123 4.484,11.734 4.555,11.633 4.588 C 11.414 4.661,11.195 4.864,11.090 5.093 C 10.987 5.318,10.989 5.693,11.094 5.906 C 11.243 6.210,11.576 6.456,11.883 6.491 C 11.957 6.499,12.392 6.457,12.850 6.397 C 13.986 6.247,14.503 6.247,15.650 6.397 C 16.108 6.457,16.543 6.499,16.617 6.491 C 16.924 6.456,17.257 6.210,17.406 5.906 C 17.511 5.693,17.513 5.318,17.410 5.093 C 17.305 4.864,17.086 4.661,16.867 4.588 C 16.766 4.555,16.377 4.484,16.002 4.430 C 15.627 4.376,15.313 4.324,15.303 4.315 C 15.294 4.305,15.276 3.964,15.262 3.557 C 15.249 3.150,15.223 2.765,15.203 2.703 C 15.051 2.208,14.423 1.889,13.941 2.061 M6.100 6.802 C 5.282 6.867,4.427 7.492,4.036 8.311 C 3.481 9.473,3.787 10.785,4.811 11.629 C 5.053 11.829,5.197 11.916,5.464 12.027 C 6.073 12.278,6.689 12.306,7.310 12.113 C 8.358 11.786,9.076 10.914,9.232 9.780 C 9.294 9.321,9.183 8.692,8.962 8.256 C 8.568 7.483,7.701 6.855,6.968 6.813 C 6.830 6.805,6.642 6.794,6.550 6.789 C 6.458 6.784,6.256 6.790,6.100 6.802 M11.772 7.298 C 11.492 7.369,11.266 7.682,11.267 7.997 C 11.269 8.428,11.578 8.734,12.007 8.733 C 12.424 8.731,12.733 8.418,12.733 8.000 C 12.733 7.598,12.474 7.315,12.079 7.285 C 11.972 7.276,11.833 7.282,11.772 7.298 M16.250 7.300 C 15.986 7.383,15.769 7.683,15.768 7.967 C 15.766 8.419,16.073 8.733,16.518 8.733 C 16.951 8.733,17.256 8.394,17.227 7.944 C 17.211 7.689,17.088 7.491,16.872 7.372 C 16.714 7.284,16.411 7.250,16.250 7.300 M13.968 7.737 C 13.627 7.873,13.435 8.267,13.536 8.625 C 13.617 8.917,13.949 9.167,14.254 9.166 C 14.638 9.166,15.000 8.805,15.000 8.422 C 15.000 8.292,14.876 7.987,14.791 7.909 C 14.588 7.723,14.204 7.643,13.968 7.737 M11.009 9.537 C 10.860 9.580,10.578 9.870,10.535 10.025 C 10.459 10.299,10.518 10.542,10.709 10.739 C 11.040 11.079,11.454 11.079,11.794 10.739 C 12.010 10.523,12.056 10.225,11.915 9.943 C 11.744 9.600,11.370 9.433,11.009 9.537 M17.024 9.543 C 16.838 9.603,16.685 9.741,16.587 9.938 C 16.438 10.238,16.487 10.523,16.732 10.768 C 17.018 11.054,17.387 11.076,17.706 10.827 C 17.860 10.707,18.000 10.432,17.999 10.252 C 17.998 10.006,17.805 9.707,17.568 9.584 C 17.436 9.516,17.170 9.496,17.024 9.543 M14.003 10.024 C 13.959 10.033,13.846 10.117,13.752 10.211 C 13.441 10.524,13.420 10.883,13.692 11.201 C 13.850 11.385,14.030 11.471,14.257 11.471 C 14.619 11.471,14.895 11.237,14.971 10.867 C 15.020 10.629,14.970 10.441,14.813 10.267 C 14.607 10.039,14.343 9.960,14.003 10.024 M4.483 14.031 C 4.159 14.049,4.003 14.074,3.862 14.129 C 3.473 14.281,3.074 14.600,2.830 14.955 C 2.710 15.129,2.243 16.205,2.093 16.649 C 1.978 16.992,1.979 17.166,2.097 17.410 C 2.338 17.908,2.904 18.121,3.374 17.890 C 3.701 17.729,3.834 17.529,4.265 16.550 L 4.485 16.050 5.034 16.030 C 5.336 16.018,6.236 16.007,7.034 16.005 L 8.484 16.000 8.630 16.342 C 9.098 17.433,9.290 17.719,9.683 17.905 C 10.050 18.079,10.361 18.011,10.686 17.686 C 11.006 17.366,11.064 17.118,10.920 16.689 C 10.805 16.348,10.381 15.353,10.248 15.113 C 9.966 14.603,9.540 14.252,9.000 14.084 C 8.837 14.033,8.598 14.025,6.867 14.017 C 5.794 14.011,4.722 14.018,4.483 14.031 " fill="#1A1C1F" stroke="none" fill-rule="evenodd"></path></svg>