<svg xmlns="http://www.w3.org/2000/svg" width="32" height="32" fill="none"><g clip-path="url(#a)"><path fill="#1A1C1F" fill-rule="evenodd" d="M13.044 23c1.22 0 2.304.78 2.567 1.926l.864 3.851a1 1 0 0 1-1.95.445l-.865-3.855c-.038-.168-.238-.327-.51-.36L5.961 25c-.327 0-.575.178-.617.362l-.87 3.86a1 1 0 0 1-1.95-.445l.87-3.858c.25-1.085 1.312-1.914 2.567-1.914zM9.5 11a5 5 0 1 1 0 10 5 5 0 0 1 0-10m0 2a3 3 0 1 0 0 6 3 3 0 0 0 0-6m14.53 4.152a1 1 0 1 1-1.058 1.695 1 1 0 0 1 1.058-1.695m-5.028-1.016a1 1 0 1 1-1.005 1.73 1 1 0 0 1 1.005-1.73m10 0a1 1 0 1 1-1.005 1.73 1 1 0 0 1 1.005-1.73m-4.972-1.984a1 1 0 1 1-1.058 1.695 1 1 0 0 1 1.058-1.695m-4.028-1.016a1 1 0 1 1-1.005 1.73 1 1 0 0 1 1.005-1.73m8.362.362a1 1 0 1 1-1.728 1.006 1 1 0 0 1 1.728-1.006m-4.334-2.346a.999.999 0 1 1-1.06 1.695 1 1 0 1 1 1.06-1.695m-3.028-1.016A1 1 0 1 1 20 11.866a1 1 0 0 1 1.003-1.73m6.362.362a1 1 0 1 1-1.727 1.006 1 1 0 0 1 1.727-1.006M23.5 2a1 1 0 0 1 1 1v2.543q1.682.144 3.351.77a1 1 0 0 1-.702 1.873Q25.316 7.5 23.5 7.5q-1.815 0-3.649.686a1 1 0 1 1-.702-1.872 12.6 12.6 0 0 1 3.351-.771V3a1 1 0 0 1 1-1" clip-rule="evenodd"/></g><defs><clipPath id="a"><path fill="#fff" d="M0 0h32v32H0z"/></clipPath></defs></svg>