<svg xmlns="http://www.w3.org/2000/svg" width="16" height="16" fill="none"><g clip-path="url(#a)"><path fill="#1A1C1F" fill-rule="evenodd" d="M5.632 11.199a1.6 1.6 0 1 1 0 3.2 1.6 1.6 0 0 1 0-3.2m4.8 0a1.6 1.6 0 1 1 0 3.2 1.6 1.6 0 0 1 0-3.2m-.834-9.593a4.26 4.26 0 0 1 3.968 4.554c-.007.237-.025.48-.078.655a96 96 0 0 1-.805 2.31 2.01 2.01 0 0 1-1.851 1.274H5.055a1.99 1.99 0 0 1-1.864-1.306L2.486 6.7a.8.8 0 0 1 .746-1.089h.925l-.421-.635a.4.4 0 0 0-.334-.178h-.18a.8.8 0 0 1 0-1.6h.18c.671 0 1.297.336 1.668.895l1.005 1.518H7.8l.939-3.422a.8.8 0 0 1 .86-.583m2.057 5.604H4.432l.404 1.278c.052.192.198.323.364.326h5.738c.168-.013.314-.149.37-.345.034-.107.19-.678.347-1.26m-1.57-3.877-.626 2.278h2.491c-.159-1.458-1.103-2.043-1.866-2.278" clip-rule="evenodd"/></g><defs><clipPath id="a"><path fill="#fff" d="M0 0h16v16H0z"/></clipPath></defs></svg>