<svg width="20" height="20" viewBox="0 0 20 20" fill="none" xmlns="http://www.w3.org/2000/svg"><path d="M11.632 2.044 C 11.416 2.104,11.247 2.218,11.104 2.399 C 10.964 2.576,11.005 2.441,10.206 5.350 L 9.747 7.017 8.680 7.025 L 7.612 7.034 7.027 6.159 C 6.069 4.727,5.893 4.527,5.354 4.267 C 4.949 4.071,4.761 4.033,4.198 4.033 L 3.710 4.033 3.505 4.166 C 3.055 4.457,2.914 4.986,3.158 5.466 C 3.264 5.673,3.493 5.866,3.712 5.934 C 3.788 5.958,3.984 5.987,4.148 6.000 L 4.446 6.023 4.604 6.195 C 4.793 6.400,5.178 6.966,5.149 6.996 C 5.137 7.007,4.810 7.024,4.421 7.034 L 3.715 7.050 3.541 7.162 C 3.329 7.298,3.181 7.479,3.094 7.708 C 2.996 7.964,3.019 8.080,3.468 9.606 C 3.946 11.231,4.082 11.630,4.235 11.851 C 4.513 12.252,4.848 12.545,5.262 12.750 C 5.749 12.991,5.508 12.977,9.600 12.992 C 13.691 13.006,13.972 12.997,14.392 12.834 C 15.001 12.599,15.570 12.058,15.816 11.483 C 16.095 10.829,16.889 8.439,16.931 8.123 C 17.014 7.515,16.957 6.610,16.800 6.017 C 16.356 4.337,15.195 3.012,13.617 2.383 C 12.951 2.118,11.967 1.949,11.632 2.044 M13.117 4.379 C 13.318 4.477,13.577 4.628,13.691 4.714 C 14.340 5.206,14.787 5.994,14.914 6.875 L 14.937 7.033 13.427 7.033 C 12.596 7.033,11.898 7.021,11.876 7.006 C 11.845 6.987,11.927 6.642,12.202 5.632 C 12.404 4.890,12.576 4.265,12.584 4.242 C 12.610 4.164,12.749 4.200,13.117 4.379 M14.486 9.028 C 14.555 9.050,14.553 9.060,14.398 9.625 C 14.161 10.488,14.073 10.739,13.973 10.845 C 13.783 11.045,14.029 11.033,10.035 11.033 L 6.367 11.033 6.238 10.905 C 6.122 10.788,6.087 10.706,5.857 9.997 C 5.577 9.133,5.557 9.069,5.573 9.060 C 5.583 9.054,11.162 9.018,13.267 9.011 C 13.899 9.008,14.448 9.016,14.486 9.028 M6.625 14.049 C 6.042 14.170,5.516 14.590,5.247 15.147 C 4.967 15.725,4.975 16.318,5.270 16.905 C 5.609 17.581,6.423 18.047,7.164 17.989 C 7.589 17.956,7.953 17.813,8.257 17.559 C 8.645 17.238,8.856 16.915,8.969 16.475 C 9.088 16.009,9.024 15.494,8.793 15.056 C 8.652 14.789,8.246 14.382,7.983 14.245 C 7.576 14.031,7.064 13.957,6.625 14.049 M12.626 14.049 C 11.941 14.192,11.359 14.738,11.113 15.467 C 11.029 15.715,11.030 16.240,11.114 16.517 C 11.394 17.435,12.264 18.060,13.164 17.989 C 13.589 17.956,13.953 17.813,14.257 17.559 C 14.645 17.238,14.856 16.915,14.969 16.475 C 15.088 16.009,15.024 15.494,14.793 15.056 C 14.652 14.789,14.246 14.382,13.983 14.245 C 13.576 14.031,13.064 13.957,12.626 14.049 " fill="#1A1C1F" stroke="none" fill-rule="evenodd"></path></svg>