<svg width="16" height="16" viewBox="0 0 16 16" fill="none" xmlns="http://www.w3.org/2000/svg"><path d="M9.201 1.667 C 9.061 1.731,8.943 1.829,8.854 1.958 C 8.789 2.054,8.697 2.356,8.359 3.578 C 8.131 4.404,7.911 5.200,7.870 5.347 L 7.795 5.613 6.943 5.620 L 6.090 5.627 5.622 4.927 C 4.856 3.781,4.714 3.622,4.283 3.413 C 3.959 3.257,3.809 3.227,3.359 3.227 L 2.968 3.227 2.804 3.333 C 2.444 3.566,2.331 3.989,2.527 4.373 C 2.611 4.538,2.794 4.693,2.969 4.747 C 3.030 4.766,3.187 4.790,3.318 4.800 L 3.557 4.818 3.683 4.956 C 3.835 5.120,4.142 5.573,4.119 5.597 C 4.110 5.606,3.848 5.619,3.537 5.627 L 2.972 5.640 2.833 5.730 C 2.663 5.838,2.545 5.983,2.475 6.167 C 2.397 6.371,2.416 6.464,2.774 7.685 C 3.157 8.985,3.266 9.304,3.388 9.481 C 3.610 9.802,3.878 10.036,4.210 10.200 C 4.599 10.393,4.406 10.382,7.680 10.393 C 10.953 10.405,11.177 10.397,11.513 10.267 C 12.001 10.079,12.456 9.647,12.653 9.187 C 12.863 8.695,13.484 6.832,13.533 6.550 C 13.579 6.281,13.585 5.785,13.546 5.420 C 13.354 3.594,12.024 2.105,10.227 1.703 C 9.898 1.629,9.328 1.609,9.201 1.667 M10.493 3.503 C 10.655 3.581,10.862 3.702,10.953 3.771 C 11.472 4.165,11.829 4.795,11.932 5.500 L 11.950 5.627 10.742 5.626 C 10.077 5.626,9.519 5.617,9.501 5.605 C 9.477 5.590,9.544 5.307,9.762 4.506 C 9.924 3.912,10.061 3.412,10.067 3.393 C 10.088 3.331,10.199 3.360,10.493 3.503 M11.589 7.223 C 11.644 7.240,11.643 7.248,11.520 7.693 C 11.299 8.495,11.264 8.593,11.168 8.684 C 11.119 8.730,11.054 8.780,11.022 8.797 C 10.980 8.818,10.142 8.827,8.028 8.827 L 5.093 8.827 4.991 8.724 C 4.897 8.631,4.870 8.565,4.686 7.997 C 4.461 7.306,4.446 7.256,4.458 7.248 C 4.467 7.243,8.929 7.214,10.613 7.208 C 11.119 7.207,11.558 7.213,11.589 7.223 M5.334 11.229 C 4.903 11.305,4.423 11.671,4.215 12.080 C 4.077 12.352,4.041 12.499,4.042 12.787 C 4.043 13.079,4.087 13.268,4.216 13.524 C 4.487 14.065,5.139 14.438,5.731 14.391 C 6.071 14.365,6.362 14.250,6.606 14.048 C 6.916 13.790,7.085 13.532,7.175 13.180 C 7.241 12.922,7.241 12.676,7.174 12.416 C 7.098 12.117,6.978 11.911,6.747 11.680 C 6.438 11.371,6.136 11.235,5.707 11.214 C 5.582 11.208,5.414 11.214,5.334 11.229 M10.134 11.229 C 9.703 11.305,9.223 11.671,9.015 12.080 C 8.877 12.352,8.841 12.499,8.842 12.787 C 8.843 13.079,8.887 13.268,9.016 13.524 C 9.287 14.065,9.939 14.438,10.531 14.391 C 10.871 14.365,11.162 14.250,11.406 14.048 C 11.716 13.790,11.885 13.532,11.975 13.180 C 12.041 12.922,12.041 12.676,11.974 12.416 C 11.898 12.117,11.778 11.911,11.547 11.680 C 11.238 11.371,10.936 11.235,10.507 11.214 C 10.382 11.208,10.214 11.214,10.134 11.229 " fill="#1A1C1F" stroke="none" fill-rule="evenodd"></path></svg>