<svg width="24" height="24" viewBox="0 0 24 24" fill="none" xmlns="http://www.w3.org/2000/svg"><path d="M13.910 2.158 C 13.550 2.386,13.585 2.284,12.420 6.580 C 12.098 7.768,11.808 8.835,11.775 8.950 L 11.714 9.160 10.147 9.160 L 8.580 9.159 8.023 8.250 C 6.868 6.365,6.566 5.951,6.101 5.619 C 5.517 5.203,4.996 5.049,4.040 5.011 C 3.297 4.982,3.081 5.035,2.805 5.312 C 2.596 5.522,2.520 5.716,2.520 6.036 C 2.520 6.287,2.585 6.447,2.774 6.665 C 3.000 6.925,3.107 6.957,3.878 6.999 C 4.540 7.035,4.569 7.040,4.807 7.167 C 4.958 7.247,5.097 7.360,5.169 7.459 C 5.345 7.701,6.200 9.074,6.200 9.114 C 6.200 9.133,5.745 9.158,5.190 9.168 C 4.379 9.183,4.156 9.199,4.060 9.250 C 3.726 9.424,3.448 9.899,3.497 10.211 C 3.527 10.401,3.997 11.871,4.332 12.822 C 4.507 13.321,4.637 13.619,4.751 13.787 C 5.089 14.284,5.705 14.710,6.346 14.889 L 6.660 14.977 11.520 14.991 C 14.275 14.998,16.813 14.987,17.380 14.965 C 18.519 14.920,18.692 14.884,19.200 14.585 C 19.973 14.130,20.198 13.777,20.818 12.040 C 21.398 10.418,21.480 10.042,21.480 8.999 C 21.480 6.937,20.840 5.278,19.542 3.977 C 18.280 2.712,16.594 2.043,14.658 2.041 C 14.104 2.040,14.093 2.042,13.910 2.158 M15.991 4.201 C 17.301 4.510,18.406 5.374,18.980 6.539 C 19.300 7.188,19.445 7.790,19.503 8.718 L 19.531 9.160 16.791 9.160 C 15.283 9.160,13.993 9.149,13.924 9.135 C 13.833 9.117,13.803 9.092,13.816 9.045 C 13.826 9.009,14.126 7.891,14.482 6.560 C 14.838 5.229,15.146 4.120,15.165 4.096 C 15.205 4.045,15.475 4.080,15.991 4.201 M18.883 11.430 C 18.503 12.489,18.386 12.698,18.072 12.878 L 17.860 12.999 12.398 13.000 L 6.936 13.000 6.757 12.887 C 6.417 12.671,6.332 12.514,6.006 11.490 L 5.849 11.000 12.444 11.000 L 19.038 11.000 18.883 11.430 M8.120 16.046 C 7.777 16.075,7.546 16.146,7.120 16.351 C 6.878 16.468,6.737 16.578,6.396 16.918 C 5.919 17.393,5.757 17.667,5.595 18.280 C 5.361 19.159,5.593 20.197,6.170 20.862 C 6.636 21.399,7.123 21.725,7.699 21.886 C 8.126 22.006,8.899 22.015,9.260 21.905 C 10.328 21.578,11.112 20.801,11.386 19.800 C 11.484 19.439,11.487 18.599,11.390 18.240 C 11.121 17.243,10.324 16.417,9.361 16.136 C 9.081 16.055,8.506 16.013,8.120 16.046 M16.120 16.046 C 15.777 16.075,15.546 16.146,15.120 16.351 C 14.878 16.468,14.737 16.578,14.396 16.918 C 13.919 17.393,13.757 17.667,13.595 18.280 C 13.361 19.159,13.593 20.197,14.170 20.862 C 14.636 21.399,15.123 21.725,15.699 21.886 C 16.126 22.006,16.899 22.015,17.260 21.905 C 18.328 21.578,19.112 20.801,19.386 19.800 C 19.484 19.439,19.487 18.599,19.390 18.240 C 19.121 17.243,18.324 16.417,17.361 16.136 C 17.081 16.055,16.506 16.013,16.120 16.046 M8.956 18.118 C 9.287 18.289,9.458 18.583,9.458 18.980 C 9.458 19.207,9.437 19.300,9.348 19.470 C 8.985 20.167,8.003 20.150,7.628 19.439 C 7.522 19.239,7.514 19.195,7.533 18.926 C 7.557 18.593,7.656 18.404,7.901 18.216 C 8.188 17.998,8.640 17.956,8.956 18.118 M16.956 18.118 C 17.287 18.289,17.458 18.583,17.458 18.980 C 17.458 19.207,17.437 19.300,17.348 19.470 C 16.985 20.167,16.003 20.150,15.628 19.439 C 15.522 19.239,15.514 19.195,15.533 18.926 C 15.557 18.593,15.656 18.404,15.901 18.216 C 16.188 17.998,16.640 17.956,16.956 18.118 " fill="#1A1C1F" stroke="none" fill-rule="evenodd"></path></svg>