<svg width="14" height="14" viewBox="0 0 14 14" fill="none" xmlns="http://www.w3.org/2000/svg"><path d="M8.004 1.486 C 7.929 1.526,7.837 1.601,7.781 1.670 C 7.674 1.801,7.717 1.663,7.143 3.745 L 6.822 4.912 6.075 4.918 L 5.329 4.924 4.919 4.311 C 4.249 3.309,4.125 3.169,3.748 2.987 C 3.464 2.850,3.333 2.823,2.939 2.823 L 2.597 2.823 2.453 2.916 C 2.138 3.120,2.039 3.490,2.211 3.826 C 2.285 3.971,2.445 4.107,2.598 4.154 C 2.651 4.170,2.789 4.191,2.904 4.200 L 3.112 4.216 3.223 4.336 C 3.355 4.480,3.625 4.876,3.604 4.897 C 3.596 4.905,3.367 4.917,3.095 4.923 L 2.600 4.935 2.477 5.014 C 2.325 5.112,2.206 5.264,2.156 5.424 C 2.120 5.536,2.120 5.559,2.156 5.736 C 2.197 5.939,2.508 7.018,2.721 7.698 C 2.865 8.157,2.932 8.287,3.145 8.518 C 3.322 8.710,3.461 8.815,3.683 8.925 C 4.025 9.094,3.855 9.084,6.720 9.094 C 9.584 9.104,9.780 9.098,10.074 8.984 C 10.501 8.819,10.899 8.441,11.071 8.038 C 11.255 7.608,11.799 5.978,11.841 5.731 C 11.902 5.377,11.881 4.776,11.794 4.346 C 11.640 3.593,11.180 2.817,10.591 2.318 C 9.940 1.766,9.200 1.462,8.435 1.431 C 8.135 1.419,8.130 1.419,8.004 1.486 M9.168 3.057 C 9.744 3.335,10.127 3.759,10.325 4.340 C 10.374 4.484,10.453 4.832,10.453 4.903 C 10.453 4.926,8.320 4.921,8.297 4.898 C 8.287 4.888,8.752 3.135,8.809 2.969 C 8.827 2.916,8.922 2.939,9.168 3.057 M10.140 6.320 C 10.188 6.335,10.187 6.342,10.078 6.738 C 9.913 7.342,9.851 7.517,9.781 7.591 C 9.648 7.732,9.820 7.723,7.024 7.723 L 4.457 7.723 4.367 7.634 C 4.285 7.552,4.261 7.494,4.100 6.998 C 3.904 6.393,3.890 6.349,3.901 6.342 C 3.908 6.338,7.807 6.313,9.298 6.307 C 9.735 6.306,10.114 6.311,10.140 6.320 M4.675 9.824 C 4.137 9.921,3.682 10.372,3.557 10.934 C 3.426 11.524,3.754 12.171,4.326 12.450 C 4.656 12.611,5.011 12.638,5.343 12.529 C 5.543 12.462,5.634 12.414,5.780 12.292 C 6.051 12.066,6.199 11.840,6.278 11.532 C 6.336 11.307,6.335 11.092,6.277 10.864 C 6.210 10.602,6.106 10.422,5.904 10.220 C 5.633 9.949,5.369 9.831,4.993 9.812 C 4.884 9.807,4.741 9.812,4.675 9.824 M8.875 9.824 C 8.337 9.921,7.882 10.372,7.757 10.934 C 7.626 11.524,7.954 12.171,8.526 12.450 C 8.856 12.611,9.211 12.638,9.543 12.529 C 9.743 12.462,9.834 12.414,9.980 12.292 C 10.251 12.066,10.399 11.840,10.478 11.532 C 10.536 11.307,10.535 11.092,10.477 10.864 C 10.410 10.602,10.306 10.422,10.104 10.220 C 9.833 9.949,9.569 9.831,9.193 9.812 C 9.084 9.807,8.941 9.812,8.875 9.824 " fill="#1A1C1F" stroke="none" fill-rule="evenodd"></path></svg>