<svg xmlns="http://www.w3.org/2000/svg" width="14" height="14" fill="none"><g clip-path="url(#a)"><path fill="#1A1C1F" fill-rule="evenodd" d="M4.928 9.799a1.4 1.4 0 1 1 0 2.8 1.4 1.4 0 0 1 0-2.8m4.2 0a1.4 1.4 0 1 1 0 2.8 1.4 1.4 0 0 1 0-2.8m-.73-8.393a3.73 3.73 0 0 1 3.472 3.988 2.4 2.4 0 0 1-.068.57c-.08.25-.623 1.822-.704 2.02a1.76 1.76 0 0 1-1.62 1.115H4.423a1.74 1.74 0 0 1-1.63-1.142l-.618-2.094a.7.7 0 0 1 .653-.953h.808l-.367-.556a.35.35 0 0 0-.292-.155H2.82a.7.7 0 1 1 0-1.4h.157c.587-.001 1.135.293 1.459.783l.88 1.327h1.509l.821-2.993a.7.7 0 0 1 .752-.51m1.8 4.903h-6.32l.353 1.118c.046.168.174.283.319.285h5.02c.148-.01.276-.13.324-.301.03-.094.168-.594.304-1.102M8.824 2.916 8.276 4.91h2.18c-.138-1.275-.965-1.787-1.632-1.993" clip-rule="evenodd"/></g><defs><clipPath id="a"><path fill="#fff" d="M0 0h14v14H0z"/></clipPath></defs></svg>