<svg xmlns="http://www.w3.org/2000/svg" width="24" height="24" fill="none"><g clip-path="url(#a)"><path fill="#1A1C1F" fill-rule="evenodd" d="M9.634 16.222A3 3 0 0 1 11.497 19a2.984 2.984 0 0 1-2.956 3.002 3.003 3.003 0 0 1-2.181-5.108 3 3 0 0 1 3.274-.672m8 0A3 3 0 0 1 19.498 19a2.985 2.985 0 0 1-2.957 3.002 3.003 3.003 0 0 1-2.18-5.108 3 3 0 0 1 3.274-.671M8.545 18a1 1 0 1 0 .952.999.977.977 0 0 0-.952-.999m7.999 0a1 1 0 1 0 .954 1 .98.98 0 0 0-.954-1M14.42 2c4.235 0 7.08 2.845 7.08 7a1 1 0 0 1-.008.147c0 .523-.065 1.055-.212 1.557-.078.245-.183.556-.295.876l-.136.386a44 44 0 0 1-.468 1.273c-.442 1.137-1.521 1.746-2.73 1.76H7.182c-1.227-.002-2.323-.634-2.746-1.8l-.89-2.752a1.01 1.01 0 0 1 .14-.9.99.99 0 0 1 .81-.4h1.745l-.96-1.557A1.23 1.23 0 0 0 4.233 7H3.49a.996.996 0 0 1-.99-1 .996.996 0 0 1 .99-1.002h.742a3.19 3.19 0 0 1 2.73 1.533l1.61 2.614h3.152l1.742-6.41a.99.99 0 0 1 .954-.737m4.617 9H5.847l.455 1.409c.143.36.49.596.874.594h10.471a.99.99 0 0 0 .9-.664c.058-.143.275-.731.49-1.34M15.164 4.04l-1.387 5.105 5.75.001a1 1 0 0 1-.007-.148c0-3.279-2.133-4.714-4.356-4.958" clip-rule="evenodd"/></g><defs><clipPath id="a"><path fill="#fff" d="M0 0h24v24H0z"/></clipPath></defs></svg>