<svg width="12" height="12" viewBox="0 0 12 12" fill="none" xmlns="http://www.w3.org/2000/svg"><path d="M6.858 1.276 C 6.796 1.308,6.717 1.373,6.670 1.431 C 6.578 1.544,6.610 1.438,6.122 3.212 L 5.848 4.210 5.207 4.215 L 4.567 4.221 4.216 3.695 C 3.642 2.836,3.536 2.716,3.212 2.560 C 2.969 2.443,2.857 2.420,2.519 2.420 L 2.226 2.420 2.103 2.500 C 1.833 2.674,1.748 2.992,1.895 3.279 C 1.958 3.404,2.096 3.520,2.227 3.561 C 2.273 3.575,2.390 3.592,2.489 3.600 L 2.668 3.614 2.763 3.717 C 2.876 3.840,3.107 4.180,3.089 4.198 C 3.082 4.204,2.886 4.215,2.653 4.220 L 2.229 4.230 2.123 4.298 C 1.990 4.383,1.888 4.515,1.848 4.654 C 1.820 4.752,1.820 4.776,1.849 4.921 C 1.930 5.322,2.417 6.906,2.506 7.060 C 2.541 7.120,2.651 7.252,2.751 7.352 C 2.911 7.514,2.956 7.547,3.141 7.636 C 3.256 7.691,3.395 7.748,3.450 7.762 C 3.579 7.794,7.853 7.812,8.227 7.783 C 8.423 7.767,8.507 7.750,8.632 7.702 C 9.020 7.552,9.343 7.237,9.506 6.850 C 9.564 6.712,9.941 5.637,10.047 5.306 C 10.144 5.007,10.180 4.783,10.180 4.492 C 10.179 3.912,10.083 3.467,9.860 3.008 C 9.554 2.377,9.057 1.870,8.432 1.552 C 8.017 1.340,7.554 1.220,7.147 1.220 C 6.986 1.220,6.952 1.227,6.858 1.276 M7.891 2.638 C 8.481 2.930,8.833 3.423,8.949 4.122 L 8.961 4.194 8.645 4.207 C 8.196 4.225,7.124 4.223,7.112 4.203 C 7.104 4.191,7.501 2.690,7.550 2.545 C 7.567 2.497,7.653 2.521,7.891 2.638 M8.692 5.417 C 8.733 5.430,8.732 5.436,8.639 5.775 C 8.497 6.293,8.444 6.443,8.384 6.507 C 8.270 6.627,8.417 6.620,6.021 6.620 L 3.820 6.620 3.743 6.543 C 3.673 6.473,3.652 6.424,3.514 5.998 C 3.346 5.480,3.335 5.442,3.344 5.436 C 3.350 5.432,6.685 5.411,7.980 5.406 C 8.348 5.405,8.669 5.410,8.692 5.417 M3.977 8.429 C 3.520 8.525,3.155 8.897,3.048 9.376 C 2.936 9.877,3.219 10.433,3.708 10.671 C 3.991 10.809,4.295 10.833,4.580 10.739 C 4.751 10.682,4.829 10.640,4.954 10.536 C 5.187 10.343,5.314 10.149,5.381 9.885 C 5.431 9.692,5.430 9.507,5.380 9.312 C 5.323 9.088,5.233 8.933,5.060 8.760 C 4.902 8.602,4.748 8.507,4.560 8.451 C 4.405 8.406,4.137 8.395,3.977 8.429 M7.577 8.429 C 7.120 8.525,6.755 8.897,6.648 9.376 C 6.536 9.877,6.819 10.433,7.308 10.671 C 7.591 10.809,7.895 10.833,8.180 10.739 C 8.351 10.682,8.429 10.640,8.554 10.536 C 8.787 10.343,8.914 10.149,8.981 9.885 C 9.031 9.692,9.030 9.507,8.980 9.312 C 8.923 9.088,8.833 8.933,8.660 8.760 C 8.502 8.602,8.348 8.507,8.160 8.451 C 8.005 8.406,7.737 8.395,7.577 8.429 " fill="#1A1C1F" stroke="none" fill-rule="evenodd"></path></svg>