<svg width="28" height="28" viewBox="0 0 28 28" fill="none" xmlns="http://www.w3.org/2000/svg"><path d="M17.261 2.245 C 17.168 2.271,17.026 2.349,16.945 2.418 C 16.755 2.580,16.656 2.851,15.141 7.385 L 13.944 10.967 11.970 10.967 L 9.997 10.967 9.050 9.485 C 7.375 6.864,7.129 6.513,6.800 6.269 C 6.641 6.150,6.376 5.990,6.211 5.912 C 5.936 5.782,5.855 5.768,5.161 5.729 C 4.748 5.706,3.946 5.694,3.380 5.702 L 2.350 5.717 2.156 5.845 C 1.571 6.232,1.689 7.146,2.357 7.394 C 2.408 7.413,3.148 7.444,4.002 7.463 L 5.554 7.497 5.700 7.633 C 5.963 7.881,7.868 10.837,7.818 10.919 C 7.798 10.950,7.353 10.967,6.566 10.968 C 5.893 10.968,5.262 10.988,5.163 11.011 C 4.844 11.085,4.573 11.430,4.573 11.763 C 4.573 11.953,4.754 12.573,5.329 14.349 C 5.835 15.913,5.959 16.206,6.305 16.642 C 6.691 17.129,7.374 17.609,7.933 17.786 C 8.429 17.943,10.351 17.979,16.613 17.950 C 22.768 17.921,22.347 17.945,23.078 17.594 C 23.879 17.209,24.460 16.594,24.813 15.756 C 25.017 15.272,25.596 13.652,25.874 12.788 C 26.183 11.824,26.244 11.379,26.214 10.292 C 26.189 9.406,26.136 8.999,25.951 8.275 C 25.115 5.005,22.564 2.804,19.044 2.313 C 18.354 2.216,17.477 2.183,17.261 2.245 M19.297 4.131 C 21.248 4.519,22.706 5.496,23.595 7.010 C 24.167 7.984,24.453 9.118,24.453 10.420 L 24.453 10.969 20.164 10.956 C 17.805 10.949,15.862 10.931,15.847 10.916 C 15.832 10.901,16.336 9.329,16.966 7.422 L 18.113 3.956 18.425 3.988 C 18.596 4.005,18.989 4.070,19.297 4.131 M23.850 13.335 C 23.189 15.203,23.016 15.558,22.626 15.845 C 22.472 15.959,22.251 16.070,22.110 16.107 C 21.754 16.198,8.819 16.201,8.475 16.109 C 8.180 16.031,7.882 15.824,7.660 15.543 C 7.511 15.354,7.418 15.120,7.074 14.064 C 6.850 13.375,6.658 12.784,6.648 12.752 C 6.633 12.705,8.396 12.693,15.353 12.693 L 24.077 12.693 23.850 13.335 M9.624 18.947 C 8.255 19.306,7.309 20.368,7.063 21.822 C 6.998 22.205,6.995 22.345,7.039 22.678 C 7.206 23.936,7.911 24.919,9.030 25.455 C 9.512 25.686,9.755 25.752,10.269 25.792 C 10.955 25.845,11.851 25.611,12.423 25.230 C 13.011 24.840,13.541 24.173,13.782 23.523 C 14.006 22.919,14.043 22.073,13.875 21.397 C 13.587 20.243,12.490 19.187,11.307 18.927 C 10.841 18.825,10.057 18.834,9.624 18.947 M19.250 18.928 C 18.864 19.021,18.280 19.319,17.933 19.600 C 17.372 20.055,16.908 20.772,16.726 21.467 C 16.622 21.865,16.622 22.682,16.726 23.123 C 16.891 23.819,17.368 24.549,17.999 25.073 C 18.885 25.808,20.308 26.006,21.430 25.550 C 22.285 25.202,23.064 24.393,23.381 23.525 C 23.899 22.104,23.476 20.565,22.306 19.614 C 21.911 19.293,21.346 19.017,20.897 18.926 C 20.453 18.836,19.628 18.837,19.250 18.928 M11.298 20.773 C 11.636 20.953,11.915 21.248,12.079 21.598 C 12.186 21.827,12.203 21.924,12.203 22.307 C 12.203 22.697,12.187 22.785,12.068 23.043 C 11.745 23.743,10.941 24.177,10.234 24.032 C 9.664 23.916,9.197 23.558,8.939 23.040 C 8.834 22.829,8.820 22.744,8.821 22.309 C 8.822 21.929,8.842 21.774,8.909 21.630 C 9.122 21.171,9.474 20.847,9.955 20.667 C 10.327 20.528,10.928 20.576,11.298 20.773 M20.846 20.741 C 21.152 20.882,21.511 21.236,21.682 21.566 C 21.800 21.793,21.812 21.864,21.814 22.307 C 21.816 22.757,21.805 22.819,21.680 23.065 C 21.505 23.412,21.203 23.716,20.869 23.879 C 20.632 23.996,20.553 24.010,20.136 24.010 C 19.705 24.010,19.645 23.998,19.366 23.861 C 19.015 23.688,18.831 23.512,18.600 23.126 C 18.435 22.852,18.433 22.842,18.434 22.333 C 18.435 21.930,18.454 21.776,18.522 21.630 C 18.735 21.171,19.088 20.846,19.569 20.667 C 19.897 20.545,20.491 20.579,20.846 20.741 " fill="#1A1C1F" stroke="none" fill-rule="evenodd"></path></svg>