<svg xmlns="http://www.w3.org/2000/svg" width="28" height="28" fill="none"><g clip-path="url(#a)"><path fill="#1A1C1F" fill-rule="evenodd" d="M20.12 18.813a3.497 3.497 0 0 1 3.494 3.5c0 1.933-1.564 3.5-3.495 3.5a3.497 3.497 0 0 1-3.494-3.5c0-1.933 1.564-3.5 3.494-3.5m-9.61 0a3.497 3.497 0 0 1 3.494 3.5c0 1.933-1.565 3.5-3.495 3.5a3.497 3.497 0 0 1-3.494-3.5c0-1.933 1.564-3.5 3.494-3.5m9.61 1.75c-.966 0-1.748.783-1.748 1.75 0 .966.782 1.75 1.747 1.75s1.748-.784 1.748-1.75c0-.967-.782-1.75-1.748-1.75m-9.61 0c-.966 0-1.748.783-1.748 1.75 0 .966.782 1.75 1.747 1.75s1.748-.784 1.748-1.75c0-.967-.783-1.75-1.748-1.75m6.989-18.375c5.234 0 8.751 3.412 8.751 8.487l-.002.037-.012.34c-.033.501-.121.998-.263 1.48-.32.999-1 2.85-1.15 3.218a3.44 3.44 0 0 1-3.154 2.188H8.937a3.38 3.38 0 0 1-3.168-2.222l-1.174-3.634a.876.876 0 0 1 .83-1.145H7.9L5.921 7.842a.87.87 0 0 0-.736-.404H2.624a.874.874 0 0 1 0-1.75h2.561a2.61 2.61 0 0 1 2.207 1.21l2.579 4.04h3.985l2.714-8.151a.87.87 0 0 1 .829-.598m6.58 10.5H6.628l.795 2.46a1.62 1.62 0 0 0 1.515 1.04h12.732a1.7 1.7 0 0 0 1.537-1.103c.111-.269.546-1.448.874-2.398m-5.954-8.732-2.326 6.982h8.694c.006-.088.01-.18.01-.263 0-4.665-3.19-6.51-6.378-6.72" clip-rule="evenodd"/></g><defs><clipPath id="a"><path fill="#fff" d="M0 0h28v28H0z"/></clipPath></defs></svg>