<svg xmlns="http://www.w3.org/2000/svg" width="32" height="32" fill="none"><g clip-path="url(#a)"><path fill="#1A1C1F" fill-rule="evenodd" d="M22.994 21.5a3.997 3.997 0 0 1 3.994 4c0 2.21-1.788 4-3.994 4a3.997 3.997 0 0 1-3.994-4c0-2.21 1.788-4 3.994-4m-10.983 0a3.997 3.997 0 0 1 3.994 4c0 2.21-1.789 4-3.994 4a3.997 3.997 0 0 1-3.994-4c0-2.21 1.788-4 3.994-4m10.983 2a2 2 0 0 0-1.997 2c0 1.105.894 2 1.997 2a2 2 0 0 0 1.997-2c0-1.105-.894-2-1.997-2m-10.983 0a2 2 0 0 0-1.997 2c0 1.105.894 2 1.997 2a2 2 0 0 0 1.997-2c0-1.105-.894-2-1.997-2m7.987-21c5.88 0 9.865 3.769 9.999 9.407L30 12.2a7.8 7.8 0 0 1-.317 2.123A82 82 0 0 1 28.37 18a3.93 3.93 0 0 1-3.605 2.5h-14.55a3.87 3.87 0 0 1-3.621-2.539L5.25 13.808a1 1 0 0 1 .95-1.308h2.826l-2.26-3.539a1 1 0 0 0-.841-.461H2.998a1 1 0 0 1 0-2h2.928a2.98 2.98 0 0 1 2.522 1.383l2.947 4.617h4.555l3.1-9.316a1 1 0 0 1 .948-.684m7.522 12H7.573l.909 2.812c.276.717.964 1.19 1.731 1.188h14.551a1.94 1.94 0 0 0 1.757-1.26c.127-.307.624-1.655.999-2.74m-6.806-9.979L18.057 12.5h9.935c.007-.1.011-.205.011-.3 0-5.331-3.645-7.441-7.289-7.679" clip-rule="evenodd"/></g><defs><clipPath id="a"><path fill="#fff" d="M0 0h32v32H0z"/></clipPath></defs></svg>