<svg xmlns="http://www.w3.org/2000/svg" width="12" height="12" fill="none"><g clip-path="url(#a)"><path fill="#1A1C1F" fill-rule="evenodd" d="M4.224 8.399a1.2 1.2 0 1 1 0 2.4 1.2 1.2 0 0 1 0-2.4m3.6 0a1.2 1.2 0 1 1 0 2.4 1.2 1.2 0 0 1 0-2.4m-.625-7.194a3.197 3.197 0 0 1 2.98 3.333l-.005.085c-.005.177-.019.357-.058.489a72 72 0 0 1-.604 1.731 1.51 1.51 0 0 1-1.388.956H3.792a1.49 1.49 0 0 1-1.398-.979l-.53-1.795a.6.6 0 0 1 .56-.816h.693l-.315-.477a.3.3 0 0 0-.25-.133h-.135a.6.6 0 0 1 0-1.2h.135c.503 0 .973.251 1.25.671l.755 1.138h1.292l.705-2.566a.6.6 0 0 1 .645-.437M8.74 5.407H3.324l.303.959c.039.144.148.242.273.245h4.303c.127-.01.236-.112.277-.259.026-.08.144-.509.261-.945M7.563 2.5l-.47 1.708h1.87c-.12-1.093-.828-1.532-1.4-1.708" clip-rule="evenodd"/></g><defs><clipPath id="a"><path fill="#fff" d="M0 0h12v12H0z"/></clipPath></defs></svg>