<svg xmlns="http://www.w3.org/2000/svg" width="20" height="20" fill="none"><g clip-path="url(#a)"><path fill="#1A1C1F" fill-rule="evenodd" d="M7.04 13.998a2 2 0 1 1 0 4 2 2 0 0 1 0-4m6 0a2 2 0 1 1 0 4 2 2 0 0 1 0-4m-1.042-11.99a5.33 5.33 0 0 1 4.96 5.687c-.009.299-.032.603-.098.824-.05.16-.232.691-.428 1.258l-.149.427-.142.407-.127.358a14 14 0 0 1-.16.437 2.52 2.52 0 0 1-2.314 1.592H6.32a2.49 2.49 0 0 1-2.33-1.631l-.883-2.992a1 1 0 0 1 .933-1.36l1.156-.001-.527-.793a.5.5 0 0 0-.416-.223h-.225a1 1 0 1 1 0-2h.225a2.5 2.5 0 0 1 2.084 1.119l1.257 1.897H9.75l1.174-4.277a1 1 0 0 1 1.075-.729m2.57 7.004-9.028.001.505 1.597c.065.24.247.404.455.408h7.172c.211-.016.393-.187.462-.431.043-.134.24-.848.434-1.575m-1.963-4.846-.782 2.848h3.115c-.198-1.823-1.38-2.554-2.333-2.848" clip-rule="evenodd"/></g><defs><clipPath id="a"><path fill="#fff" d="M0 0h20v20H0z"/></clipPath></defs></svg>