<svg xmlns="http://www.w3.org/2000/svg" width="32" height="32" fill="none"><path fill="#1A1C1F" fill-rule="evenodd" d="M19.598 2.607a1.2 1.2 0 0 0-.355.263c-.104.123-.547 1.387-1.723 4.915l-1.583 4.749-2.267-.013-2.267-.014-1.515-2.374C9.056 8.828 8.274 7.643 8.152 7.5c-.273-.318-.815-.677-1.275-.842-.33-.119-.417-.124-2.181-.141-1.573-.014-1.869-.005-2.057.067a.97.97 0 0 0-.584 1.191c.082.276.325.55.585.659.112.047.685.076 1.924.097l1.765.029.182.141c.116.09.603.8 1.329 1.939a103 103 0 0 1 1.164 1.846c.011.027-.646.047-1.539.047-1.514 0-1.563.004-1.77.12-.27.152-.477.496-.481.8-.003.152.212.896.65 2.254.36 1.114.712 2.179.782 2.366.309.825 1.022 1.595 1.85 1.999.964.47.232.435 8.944.435 6.267 0 7.766-.014 8.027-.072a4.4 4.4 0 0 0 1.827-.907c.271-.225.749-.837.917-1.173.25-.5 1.376-3.645 1.544-4.314.346-1.38.308-3.038-.107-4.648-.602-2.336-2-4.225-4.034-5.454-1.21-.731-2.812-1.227-4.441-1.376-.904-.082-1.323-.071-1.575.044m2.514 2.115c3.604.72 5.802 3.381 5.852 7.082l.009.703-4.946.013c-2.721.008-4.947-.001-4.947-.02s.59-1.822 1.311-4.007l1.311-3.973.382.037c.211.019.673.094 1.028.165m5.145 10.518c-.837 2.364-.933 2.556-1.46 2.912-.557.377-.036.355-8.33.355-8.131 0-7.755.013-8.235-.291-.225-.141-.553-.492-.662-.706-.062-.123-.641-1.865-.922-2.777l-.07-.226h19.939zm-15.815 6.309c-1.759.275-3.063 1.562-3.369 3.327a3.94 3.94 0 0 0 .97 3.276c.886.956 1.942 1.395 3.195 1.326 1.686-.092 3.108-1.221 3.608-2.865.162-.534.176-1.544.028-2.121-.343-1.338-1.452-2.46-2.803-2.834-.467-.129-1.188-.177-1.629-.109m11.011-.006c-1.608.226-2.897 1.381-3.339 2.993-.142.519-.131 1.448.024 1.994.209.734.498 1.217 1.073 1.793.418.418.59.549.962.731 1.202.59 2.566.581 3.678-.023a4.05 4.05 0 0 0 1.733-1.799 4 4 0 0 0 .107-3.227c-.453-1.115-1.471-2.025-2.623-2.344-.443-.123-1.192-.178-1.615-.118m-9.595 2.151c.581.284 1.027.887 1.11 1.501.149 1.095-.528 2.046-1.614 2.271-.838.173-1.771-.319-2.146-1.131-.136-.295-.155-.395-.155-.842 0-.434.02-.549.139-.802.24-.511.566-.819 1.109-1.049.255-.107.37-.123.782-.108.393.013.537.043.775.16m10.999.013c.407.202.844.672.992 1.066.136.364.15 1.022.029 1.365-.293.83-1.017 1.346-1.891 1.346-.751 0-1.416-.414-1.777-1.106-.158-.302-.17-.362-.17-.858 0-.463.018-.572.139-.829.239-.511.565-.819 1.109-1.049.256-.108.368-.123.779-.107.398.015.532.044.79.172"/></svg>