<svg width="12" height="12" viewBox="0 0 12 12" fill="none" xmlns="http://www.w3.org/2000/svg"><path d="M5.620 1.276 C 5.392 1.371,5.313 1.422,5.169 1.568 C 4.934 1.806,4.840 2.041,4.840 2.389 C 4.840 2.709,4.950 2.970,5.181 3.197 C 5.610 3.619,6.286 3.654,6.731 3.276 C 7.172 2.902,7.287 2.358,7.036 1.840 C 6.951 1.664,6.719 1.434,6.530 1.336 C 6.352 1.245,6.230 1.220,5.964 1.221 C 5.777 1.221,5.734 1.228,5.620 1.276 M4.730 4.219 C 4.458 4.229,4.419 4.235,4.313 4.285 C 4.056 4.405,3.881 4.586,3.792 4.823 C 3.696 5.076,3.698 5.103,3.878 5.995 C 4.043 6.817,4.262 7.848,4.302 7.988 C 4.315 8.036,4.365 8.111,4.430 8.178 L 4.535 8.290 4.546 9.310 C 4.552 9.981,4.564 10.355,4.578 10.403 C 4.607 10.497,4.759 10.666,4.876 10.735 C 4.950 10.778,4.992 10.788,5.099 10.788 C 5.171 10.788,5.273 10.776,5.326 10.761 C 5.459 10.724,5.603 10.590,5.682 10.429 L 5.745 10.301 5.736 8.976 L 5.727 7.650 5.681 7.546 C 5.639 7.449,5.596 7.402,5.383 7.220 C 5.326 7.172,5.319 7.142,5.151 6.310 C 5.056 5.837,4.973 5.434,4.968 5.415 C 4.958 5.382,5.016 5.380,6.001 5.380 L 7.044 5.380 7.033 5.425 C 7.027 5.450,6.949 5.853,6.859 6.320 C 6.700 7.147,6.694 7.171,6.637 7.220 C 6.432 7.396,6.393 7.436,6.357 7.505 C 6.291 7.635,6.280 7.863,6.280 9.112 L 6.280 10.314 6.341 10.436 C 6.418 10.591,6.564 10.725,6.694 10.761 C 7.007 10.849,7.269 10.740,7.404 10.464 L 7.470 10.331 7.476 9.312 L 7.482 8.293 7.598 8.169 C 7.662 8.100,7.719 8.023,7.725 7.997 C 7.767 7.813,8.169 5.778,8.222 5.486 C 8.283 5.153,8.286 5.109,8.265 4.988 C 8.215 4.696,8.023 4.443,7.748 4.307 C 7.611 4.239,7.582 4.233,7.345 4.218 C 7.065 4.200,5.208 4.201,4.730 4.219 " fill="#1A1C1F" stroke="none" fill-rule="evenodd"></path></svg>