<svg width="16" height="16" viewBox="0 0 16 16" fill="none" xmlns="http://www.w3.org/2000/svg"><path d="M7.693 1.639 C 7.394 1.693,7.167 1.819,6.914 2.069 C 6.673 2.306,6.547 2.526,6.464 2.853 C 6.372 3.215,6.462 3.662,6.697 4.014 C 7.099 4.615,7.835 4.864,8.513 4.628 C 9.101 4.424,9.547 3.806,9.547 3.194 C 9.547 2.821,9.431 2.485,9.211 2.216 C 8.959 1.908,8.652 1.713,8.307 1.640 C 8.085 1.593,7.944 1.593,7.693 1.639 M6.838 5.625 C 6.504 5.639,6.482 5.644,6.288 5.740 C 6.056 5.855,5.821 6.072,5.733 6.253 C 5.668 6.388,5.511 7.076,5.211 8.547 C 5.023 9.467,5.004 9.590,5.002 9.880 C 5.000 10.199,5.000 10.200,5.104 10.413 C 5.265 10.743,5.559 10.990,5.912 11.095 L 6.024 11.128 6.032 12.464 C 6.039 13.675,6.044 13.810,6.087 13.905 C 6.161 14.069,6.301 14.221,6.457 14.307 C 6.582 14.377,6.626 14.387,6.813 14.386 C 6.981 14.386,7.050 14.373,7.137 14.327 C 7.312 14.234,7.511 14.025,7.551 13.890 C 7.601 13.726,7.603 10.227,7.554 10.065 C 7.477 9.813,7.205 9.617,6.858 9.562 C 6.683 9.535,6.654 9.523,6.655 9.478 C 6.656 9.450,6.757 8.920,6.881 8.300 L 7.106 7.173 8.020 7.173 C 8.593 7.173,8.933 7.183,8.933 7.199 C 8.933 7.213,9.029 7.729,9.147 8.345 C 9.264 8.961,9.360 9.481,9.360 9.500 C 9.360 9.524,9.287 9.545,9.133 9.566 C 8.767 9.616,8.568 9.756,8.424 10.067 C 8.377 10.167,8.374 10.277,8.374 11.975 L 8.373 13.776 8.445 13.920 C 8.585 14.200,8.821 14.366,9.117 14.392 C 9.315 14.410,9.527 14.330,9.702 14.172 C 9.939 13.959,9.931 14.016,9.941 12.475 L 9.950 11.123 10.035 11.106 C 10.324 11.045,10.704 10.748,10.859 10.463 C 10.944 10.306,11.012 10.039,11.013 9.862 C 11.013 9.685,10.916 9.134,10.627 7.689 C 10.469 6.901,10.353 6.382,10.316 6.302 C 10.230 6.118,9.944 5.841,9.732 5.737 C 9.584 5.664,9.512 5.648,9.252 5.626 C 8.932 5.600,7.435 5.599,6.838 5.625 " fill="#1A1C1F" stroke="none" fill-rule="evenodd"></path></svg>