<svg width="28" height="28" viewBox="0 0 28 28" fill="none" xmlns="http://www.w3.org/2000/svg"><path d="M13.300 1.822 C 12.613 1.941,11.844 2.543,11.510 3.222 C 11.178 3.896,11.128 4.541,11.356 5.215 C 11.632 6.031,12.416 6.730,13.282 6.934 C 13.949 7.091,14.748 6.927,15.327 6.514 C 16.405 5.745,16.754 4.373,16.166 3.212 C 15.892 2.671,15.252 2.112,14.674 1.908 C 14.368 1.801,13.675 1.757,13.300 1.822 M14.155 3.614 C 14.526 3.747,14.721 4.063,14.691 4.483 C 14.667 4.810,14.516 5.032,14.220 5.175 C 13.972 5.295,13.755 5.298,13.510 5.185 C 13.074 4.984,12.902 4.526,13.092 4.072 C 13.188 3.840,13.288 3.736,13.510 3.634 C 13.731 3.533,13.911 3.527,14.155 3.614 M10.710 8.348 C 10.283 8.377,10.155 8.404,9.948 8.511 C 9.619 8.680,9.333 8.972,9.170 9.306 C 8.979 9.695,8.970 10.076,9.121 11.223 C 9.365 13.074,10.133 18.414,10.181 18.597 C 10.280 18.976,10.694 19.227,11.221 19.227 L 11.433 19.227 11.435 22.318 C 11.436 24.019,11.455 25.500,11.476 25.611 C 11.522 25.849,11.667 26.020,11.923 26.138 C 12.312 26.318,12.780 26.190,13.011 25.839 L 13.137 25.650 13.150 21.915 C 13.160 19.139,13.149 18.147,13.108 18.048 C 13.029 17.857,12.720 17.611,12.483 17.552 C 12.371 17.523,12.156 17.500,12.007 17.500 L 11.735 17.500 11.252 13.918 C 10.986 11.948,10.758 10.268,10.746 10.185 L 10.723 10.033 14.019 10.033 L 17.315 10.033 17.290 10.138 C 17.266 10.240,16.240 17.389,16.240 17.455 C 16.240 17.473,16.077 17.498,15.878 17.509 C 15.436 17.535,15.202 17.639,15.020 17.889 L 14.885 18.076 14.898 21.887 L 14.910 25.697 15.044 25.873 C 15.117 25.969,15.243 26.088,15.324 26.137 C 15.628 26.323,16.214 26.198,16.424 25.904 C 16.593 25.667,16.613 25.277,16.613 22.178 C 16.613 19.812,16.626 19.180,16.672 19.179 C 16.799 19.177,17.234 18.912,17.436 18.713 C 17.890 18.266,17.883 18.296,18.361 14.933 C 18.918 11.011,18.960 10.677,18.965 10.127 C 18.970 9.640,18.959 9.566,18.848 9.331 C 18.694 9.001,18.325 8.630,17.997 8.475 L 17.743 8.355 14.483 8.335 C 12.690 8.324,10.992 8.330,10.710 8.348 " fill="#1A1C1F" stroke="none" fill-rule="evenodd"></path></svg>