<svg width="14" height="14" viewBox="0 0 14 14" fill="none" xmlns="http://www.w3.org/2000/svg"><path d="M6.557 1.488 C 6.291 1.600,6.199 1.659,6.031 1.829 C 5.757 2.107,5.647 2.381,5.647 2.788 C 5.647 3.160,5.775 3.465,6.044 3.730 C 6.545 4.223,7.334 4.263,7.853 3.822 C 8.367 3.386,8.502 2.751,8.209 2.147 C 8.110 1.942,7.839 1.673,7.618 1.559 C 7.410 1.452,7.269 1.423,6.958 1.424 C 6.740 1.425,6.689 1.433,6.557 1.488 M5.517 4.922 C 5.167 4.935,5.165 4.935,4.984 5.025 C 4.763 5.134,4.559 5.328,4.472 5.513 C 4.398 5.669,4.340 5.882,4.340 5.996 C 4.340 6.126,4.922 8.975,5.019 9.320 C 5.034 9.376,5.093 9.462,5.168 9.542 L 5.291 9.672 5.302 10.873 C 5.314 12.218,5.307 12.161,5.486 12.355 C 5.642 12.525,5.766 12.586,5.949 12.586 C 6.033 12.586,6.152 12.572,6.214 12.555 C 6.369 12.511,6.537 12.355,6.629 12.168 L 6.702 12.018 6.692 10.472 L 6.682 8.925 6.628 8.803 C 6.579 8.691,6.531 8.639,6.280 8.423 C 6.215 8.367,6.205 8.331,6.010 7.362 C 5.899 6.810,5.802 6.340,5.795 6.317 C 5.784 6.279,5.852 6.277,7.001 6.277 C 8.169 6.277,8.218 6.278,8.208 6.319 C 8.201 6.343,8.110 6.813,8.004 7.363 C 7.817 8.338,7.810 8.367,7.744 8.423 C 7.505 8.628,7.458 8.675,7.417 8.756 C 7.340 8.907,7.327 9.174,7.327 10.630 L 7.327 12.033 7.398 12.175 C 7.488 12.356,7.658 12.512,7.810 12.555 C 8.175 12.657,8.480 12.529,8.638 12.208 L 8.715 12.053 8.722 10.864 L 8.729 9.675 8.865 9.530 C 8.939 9.450,9.006 9.360,9.013 9.330 C 9.061 9.115,9.531 6.741,9.593 6.400 C 9.663 6.012,9.667 5.961,9.643 5.819 C 9.585 5.479,9.361 5.184,9.040 5.025 C 8.883 4.948,8.843 4.938,8.593 4.921 C 8.289 4.901,6.070 4.901,5.517 4.922 " fill="#1A1C1F" stroke="none" fill-rule="evenodd"></path></svg>