<svg width="28" height="28" viewBox="0 0 28 28" fill="none" xmlns="http://www.w3.org/2000/svg"><path d="M13.451 1.825 C 12.548 1.976,11.645 2.890,11.439 3.864 C 11.051 5.700,12.793 7.389,14.586 6.914 C 15.424 6.693,16.018 6.213,16.359 5.483 C 16.739 4.668,16.678 3.738,16.196 3.000 C 15.586 2.063,14.587 1.636,13.451 1.825 M14.315 3.618 C 14.546 3.715,14.650 3.815,14.752 4.037 C 14.965 4.501,14.798 4.978,14.350 5.185 C 13.819 5.430,13.218 5.084,13.170 4.505 C 13.145 4.202,13.215 3.974,13.383 3.814 C 13.664 3.546,13.981 3.479,14.315 3.618 M12.273 8.349 C 11.927 8.365,11.584 8.405,11.511 8.436 C 11.103 8.614,10.643 9.082,10.547 9.417 C 10.385 9.984,9.373 15.290,9.122 16.888 C 9.033 17.455,9.019 17.649,9.055 17.813 C 9.171 18.330,9.564 18.825,10.048 19.061 C 10.286 19.178,10.385 19.196,10.876 19.217 L 11.433 19.239 11.434 22.255 C 11.434 23.974,11.453 25.388,11.479 25.546 C 11.531 25.860,11.642 26.008,11.923 26.138 C 12.312 26.318,12.780 26.190,13.011 25.839 L 13.137 25.650 13.137 21.937 C 13.137 19.894,13.121 18.167,13.102 18.099 C 13.050 17.916,12.839 17.684,12.649 17.603 C 12.530 17.552,12.246 17.526,11.632 17.510 C 11.051 17.495,10.779 17.471,10.778 17.435 C 10.777 17.407,11.076 15.730,11.443 13.709 L 12.110 10.034 13.277 10.034 C 13.918 10.034,14.769 10.047,15.167 10.064 L 15.890 10.094 16.556 13.738 C 16.923 15.743,17.222 17.407,17.221 17.435 C 17.220 17.470,16.945 17.494,16.368 17.511 C 15.461 17.536,15.282 17.574,15.088 17.786 C 14.860 18.034,14.865 17.965,14.849 21.607 C 14.840 23.493,14.847 25.188,14.864 25.374 C 14.901 25.784,15.013 25.974,15.305 26.122 C 15.693 26.317,16.144 26.210,16.426 25.855 L 16.567 25.677 16.567 22.458 L 16.567 19.239 17.115 19.216 C 17.570 19.196,17.709 19.172,17.930 19.073 C 18.285 18.914,18.632 18.581,18.806 18.234 C 19.053 17.739,19.042 17.636,18.317 13.743 C 17.508 9.394,17.461 9.212,17.062 8.837 C 16.921 8.705,16.695 8.543,16.558 8.478 L 16.310 8.359 14.607 8.339 C 13.670 8.328,12.620 8.332,12.273 8.349 " fill="#1A1C1F" stroke="none" fill-rule="evenodd"></path></svg>