<svg width="24" height="24" viewBox="0 0 24 24" fill="none" xmlns="http://www.w3.org/2000/svg"><path d="M11.600 2.038 C 10.787 2.190,10.059 2.859,9.836 3.660 C 9.746 3.982,9.766 4.647,9.875 4.960 C 10.116 5.654,10.740 6.240,11.426 6.417 C 11.712 6.490,12.185 6.499,12.488 6.436 C 13.198 6.288,13.855 5.702,14.113 4.989 C 14.248 4.615,14.263 3.951,14.145 3.600 C 13.901 2.880,13.387 2.357,12.693 2.124 C 12.413 2.030,11.870 1.987,11.600 2.038 M10.080 7.794 C 9.327 7.852,8.779 8.330,8.603 9.082 C 8.475 9.632,7.841 13.497,7.777 14.121 C 7.748 14.413,7.818 14.761,7.964 15.048 C 8.073 15.261,8.454 15.645,8.664 15.752 C 8.865 15.854,9.266 15.960,9.454 15.960 L 9.596 15.960 9.608 18.630 L 9.620 21.300 9.732 21.491 C 9.954 21.868,10.449 22.080,10.824 21.960 C 11.054 21.886,11.297 21.687,11.437 21.458 L 11.560 21.256 11.558 18.118 C 11.556 16.392,11.541 14.893,11.524 14.788 C 11.483 14.544,11.308 14.293,11.077 14.151 C 10.914 14.049,10.851 14.037,10.391 14.014 C 10.113 13.999,9.866 13.976,9.842 13.961 C 9.803 13.937,10.040 12.229,10.362 10.211 C 10.405 9.942,10.440 9.712,10.440 9.701 C 10.440 9.689,11.140 9.680,11.996 9.680 L 13.552 9.680 13.595 9.930 C 13.619 10.068,13.764 10.981,13.918 11.960 C 14.073 12.939,14.208 13.796,14.220 13.864 L 14.241 13.988 13.699 14.011 C 13.181 14.032,13.149 14.039,12.969 14.156 C 12.768 14.285,12.635 14.453,12.551 14.681 C 12.511 14.789,12.500 15.522,12.500 18.020 L 12.500 21.220 12.613 21.450 C 12.748 21.726,12.981 21.903,13.290 21.968 C 13.686 22.051,14.135 21.834,14.331 21.466 C 14.419 21.300,14.419 21.296,14.433 18.630 L 14.447 15.960 14.575 15.960 C 14.769 15.960,15.151 15.850,15.368 15.732 C 15.772 15.512,16.097 15.077,16.202 14.615 C 16.268 14.323,16.232 14.017,15.815 11.360 C 15.497 9.324,15.425 8.959,15.293 8.686 C 15.161 8.411,14.843 8.095,14.534 7.931 L 14.291 7.801 12.356 7.784 C 11.291 7.775,10.267 7.779,10.080 7.794 " fill="#1A1C1F" stroke="none" fill-rule="evenodd"></path></svg>