<svg width="28" height="28" viewBox="0 0 28 28" fill="none" xmlns="http://www.w3.org/2000/svg"><path d="M7.000 1.822 C 6.859 1.846,6.573 1.951,6.366 2.055 C 5.760 2.359,5.314 2.863,5.053 3.537 C 4.949 3.808,4.933 3.921,4.933 4.387 C 4.933 4.854,4.949 4.964,5.055 5.240 C 5.535 6.485,6.792 7.205,8.036 6.949 C 8.172 6.921,8.459 6.814,8.674 6.712 C 10.248 5.960,10.627 3.865,9.418 2.607 C 9.110 2.287,8.736 2.036,8.384 1.912 C 8.068 1.801,7.383 1.756,7.000 1.822 M19.741 1.823 C 18.914 1.971,18.042 2.753,17.774 3.590 C 17.627 4.049,17.633 4.813,17.787 5.227 C 18.007 5.818,18.505 6.404,19.027 6.686 C 19.333 6.851,19.913 7.000,20.253 7.000 C 20.586 7.000,21.179 6.851,21.509 6.684 C 21.966 6.454,22.471 5.869,22.727 5.273 C 22.859 4.968,22.909 4.220,22.824 3.825 C 22.750 3.480,22.538 3.059,22.274 2.732 C 22.009 2.404,21.457 2.015,21.093 1.898 C 20.784 1.799,20.093 1.761,19.741 1.823 M7.922 3.646 C 8.453 3.903,8.546 4.639,8.098 5.033 C 7.406 5.640,6.391 4.919,6.745 4.072 C 6.842 3.840,6.941 3.736,7.163 3.634 C 7.411 3.521,7.672 3.525,7.922 3.646 M20.794 3.710 C 21.034 3.893,21.155 4.163,21.130 4.462 C 21.080 5.060,20.518 5.424,19.985 5.202 C 19.644 5.059,19.460 4.773,19.460 4.387 C 19.460 3.993,19.661 3.704,20.016 3.589 C 20.236 3.517,20.619 3.576,20.794 3.710 M5.670 8.350 C 5.250 8.372,5.115 8.399,4.928 8.494 C 4.636 8.642,4.285 8.976,4.162 9.220 C 4.052 9.438,3.792 10.673,3.267 13.463 C 2.672 16.631,2.555 17.347,2.580 17.670 C 2.608 18.041,2.783 18.419,3.048 18.684 C 3.427 19.062,3.874 19.225,4.538 19.226 L 4.947 19.227 4.947 22.225 C 4.947 23.964,4.966 25.341,4.993 25.503 C 5.070 25.973,5.288 26.178,5.746 26.211 C 6.097 26.237,6.286 26.155,6.509 25.879 L 6.650 25.705 6.650 21.894 C 6.650 18.179,6.648 18.079,6.558 17.931 C 6.507 17.847,6.387 17.724,6.292 17.658 C 6.125 17.542,6.086 17.536,5.256 17.512 C 4.781 17.498,4.371 17.472,4.344 17.456 C 4.310 17.435,4.508 16.248,4.947 13.844 C 5.306 11.874,5.613 10.210,5.629 10.145 L 5.658 10.028 7.515 10.042 C 8.537 10.050,9.384 10.068,9.398 10.083 C 9.413 10.097,9.720 11.735,10.081 13.723 C 10.442 15.710,10.747 17.371,10.760 17.413 C 10.780 17.481,10.688 17.491,9.883 17.509 C 8.897 17.531,8.800 17.554,8.571 17.826 C 8.505 17.905,8.434 18.048,8.414 18.143 C 8.393 18.239,8.377 19.955,8.377 21.957 L 8.377 25.597 8.486 25.773 C 8.546 25.869,8.671 26.006,8.762 26.076 C 8.906 26.186,8.973 26.203,9.245 26.203 C 9.490 26.203,9.588 26.182,9.689 26.107 C 9.875 25.968,9.987 25.802,10.035 25.593 C 10.059 25.492,10.078 24.022,10.079 22.325 L 10.080 19.240 10.628 19.214 C 11.245 19.184,11.479 19.117,11.806 18.877 C 12.271 18.536,12.534 17.983,12.483 17.453 C 12.383 16.407,11.080 9.601,10.913 9.252 C 10.682 8.767,10.156 8.420,9.549 8.349 C 9.181 8.307,6.477 8.307,5.670 8.350 M17.243 8.351 C 16.668 8.377,16.622 8.387,16.342 8.538 C 16.013 8.714,15.738 8.998,15.592 9.310 C 15.416 9.684,15.397 9.876,15.473 10.528 C 15.650 12.039,16.537 18.281,16.620 18.597 C 16.720 18.976,17.134 19.227,17.659 19.227 L 17.870 19.227 17.883 22.466 L 17.897 25.705 18.040 25.884 C 18.119 25.983,18.255 26.100,18.343 26.145 C 18.724 26.339,19.248 26.179,19.460 25.803 L 19.577 25.597 19.591 22.134 C 19.606 18.556,19.588 18.099,19.423 17.876 C 19.267 17.664,18.985 17.544,18.563 17.509 L 18.177 17.477 18.141 17.290 C 18.122 17.187,17.907 15.612,17.664 13.790 C 17.421 11.968,17.211 10.390,17.196 10.285 L 17.170 10.093 17.416 10.064 C 17.552 10.047,19.029 10.034,20.697 10.034 L 23.731 10.033 23.206 13.708 C 22.917 15.730,22.671 17.410,22.658 17.442 C 22.645 17.478,22.544 17.500,22.390 17.500 C 21.879 17.501,21.562 17.664,21.402 18.009 C 21.304 18.221,21.303 18.265,21.290 21.873 C 21.277 25.413,21.279 25.528,21.367 25.700 C 21.732 26.409,22.600 26.411,22.964 25.704 C 23.049 25.538,23.053 25.388,23.053 22.364 L 23.053 19.197 23.310 19.091 C 23.619 18.963,23.969 18.658,24.173 18.340 C 24.354 18.058,24.389 17.874,24.779 15.073 C 25.290 11.405,25.443 10.163,25.421 9.869 C 25.379 9.322,24.999 8.771,24.482 8.506 C 24.271 8.398,24.165 8.380,23.567 8.349 C 22.784 8.308,18.140 8.309,17.243 8.351 " fill="#1A1C1F" stroke="none" fill-rule="evenodd"></path></svg>