<svg width="24" height="24" viewBox="0 0 24 24" fill="none" xmlns="http://www.w3.org/2000/svg"><path d="M11.600 2.038 C 10.959 2.158,10.305 2.641,10.024 3.203 C 9.555 4.141,9.725 5.152,10.475 5.873 C 10.902 6.283,11.398 6.480,12.007 6.480 C 12.773 6.480,13.455 6.104,13.890 5.440 C 14.132 5.072,14.216 4.768,14.218 4.260 C 14.220 3.607,14.052 3.172,13.626 2.729 C 13.346 2.437,13.046 2.243,12.693 2.124 C 12.413 2.030,11.870 1.987,11.600 2.038 M9.180 7.799 C 8.536 7.851,8.020 8.271,7.798 8.923 C 7.682 9.264,7.686 9.309,8.099 12.180 C 8.512 15.061,8.528 15.154,8.664 15.432 C 8.796 15.701,9.197 16.112,9.430 16.216 L 9.600 16.292 9.601 18.576 C 9.601 19.900,9.619 20.978,9.642 21.140 C 9.710 21.607,9.956 21.873,10.411 21.969 C 10.715 22.032,11.019 21.941,11.242 21.718 C 11.559 21.401,11.540 21.630,11.540 18.220 L 11.540 15.180 11.450 15.012 C 11.306 14.742,10.992 14.541,10.633 14.490 C 10.444 14.462,10.419 14.447,10.390 14.340 C 10.336 14.144,9.722 9.745,9.745 9.722 C 9.775 9.692,14.228 9.694,14.257 9.724 C 14.291 9.758,13.671 14.358,13.622 14.437 C 13.611 14.455,13.514 14.481,13.407 14.495 C 13.300 14.510,13.115 14.570,12.996 14.631 C 12.826 14.717,12.752 14.786,12.650 14.958 L 12.520 15.176 12.522 18.098 C 12.524 19.705,12.539 21.107,12.556 21.212 C 12.646 21.760,13.278 22.134,13.786 21.940 C 14.039 21.843,14.251 21.642,14.365 21.390 L 14.460 21.180 14.472 18.739 L 14.484 16.298 14.696 16.188 C 14.812 16.127,14.963 16.019,15.031 15.948 C 15.220 15.753,15.430 15.377,15.479 15.147 C 15.528 14.921,16.113 10.833,16.222 9.960 C 16.259 9.663,16.279 9.324,16.267 9.208 C 16.217 8.719,15.819 8.172,15.344 7.940 C 15.155 7.848,15.029 7.819,14.704 7.795 C 14.218 7.758,9.633 7.761,9.180 7.799 " fill="#1A1C1F" stroke="none" fill-rule="evenodd"></path></svg>