<svg width="32" height="32" viewBox="0 0 32 32" fill="none" xmlns="http://www.w3.org/2000/svg"><path d="M15.373 2.086 C 14.337 2.258,13.307 3.302,13.073 4.416 C 12.695 6.216,14.140 8.000,15.976 8.000 C 17.878 8.000,19.364 6.146,18.906 4.345 C 18.498 2.739,17.042 1.808,15.373 2.086 M16.360 4.135 C 16.624 4.246,16.743 4.360,16.860 4.613 C 17.103 5.144,16.912 5.690,16.400 5.926 C 15.793 6.206,15.106 5.810,15.051 5.149 C 15.023 4.802,15.102 4.542,15.295 4.359 C 15.616 4.052,15.978 3.976,16.360 4.135 M14.027 9.541 C 13.631 9.560,13.239 9.605,13.156 9.641 C 12.689 9.845,12.163 10.380,12.054 10.762 C 11.869 11.410,10.712 17.474,10.425 19.300 C 10.323 19.948,10.307 20.170,10.349 20.357 C 10.482 20.949,10.931 21.514,11.484 21.784 C 11.756 21.917,11.869 21.939,12.430 21.962 L 13.067 21.988 13.067 25.434 C 13.067 27.399,13.089 29.015,13.119 29.195 C 13.178 29.554,13.305 29.724,13.627 29.873 C 14.071 30.078,14.605 29.931,14.870 29.531 L 15.013 29.314 15.013 25.071 C 15.013 22.736,14.995 20.763,14.973 20.684 C 14.915 20.475,14.672 20.210,14.456 20.119 C 14.321 20.062,13.985 20.031,13.293 20.012 C 12.635 19.994,12.319 19.966,12.318 19.926 C 12.316 19.893,12.658 17.977,13.078 15.667 L 13.840 11.467 15.253 11.467 C 16.031 11.467,17.003 11.482,17.413 11.501 L 18.160 11.535 18.921 15.701 C 19.340 17.992,19.682 19.893,19.681 19.926 C 19.680 19.966,19.366 19.994,18.707 20.012 C 17.669 20.041,17.465 20.085,17.244 20.326 C 16.983 20.610,16.988 20.532,16.970 24.693 C 16.960 26.849,16.968 28.787,16.987 28.999 C 17.030 29.467,17.158 29.685,17.492 29.853 C 17.934 30.077,18.451 29.954,18.772 29.548 L 18.933 29.345 18.933 25.666 L 18.933 21.988 19.560 21.961 C 20.080 21.938,20.239 21.910,20.492 21.797 C 20.897 21.616,21.294 21.235,21.492 20.838 C 21.775 20.273,21.762 20.155,20.934 15.707 C 20.009 10.736,19.956 10.528,19.499 10.099 C 19.339 9.948,19.080 9.764,18.924 9.689 L 18.640 9.553 16.693 9.530 C 15.623 9.517,14.423 9.523,14.027 9.541 " fill="#1A1C1F" stroke="none" fill-rule="evenodd"></path></svg>