<svg width="14" height="14" viewBox="0 0 14 14" fill="none" xmlns="http://www.w3.org/2000/svg"><path d="M6.732 1.434 C 6.474 1.481,6.271 1.593,6.053 1.808 C 5.752 2.105,5.606 2.460,5.629 2.835 C 5.659 3.319,5.954 3.766,6.381 3.977 C 6.633 4.101,6.808 4.139,7.065 4.122 C 7.446 4.097,7.735 3.960,7.991 3.683 C 8.445 3.193,8.474 2.445,8.059 1.939 C 7.839 1.670,7.571 1.499,7.268 1.435 C 7.074 1.394,6.951 1.394,6.732 1.434 M5.984 4.922 C 5.691 4.934,5.672 4.938,5.502 5.023 C 5.299 5.123,5.093 5.313,5.017 5.472 C 4.960 5.589,4.821 6.197,4.559 7.478 C 4.395 8.285,4.378 8.390,4.377 8.646 L 4.375 8.927 4.467 9.113 C 4.609 9.401,4.865 9.617,5.173 9.708 L 5.271 9.737 5.278 10.906 C 5.284 11.966,5.289 12.084,5.326 12.167 C 5.391 12.310,5.514 12.444,5.650 12.519 C 5.760 12.580,5.798 12.588,5.962 12.588 C 6.109 12.588,6.169 12.577,6.245 12.536 C 6.387 12.461,6.571 12.272,6.606 12.166 C 6.629 12.096,6.638 11.699,6.644 10.482 L 6.652 8.888 6.601 8.785 C 6.478 8.539,6.298 8.414,6.001 8.367 C 5.848 8.343,5.822 8.332,5.823 8.294 C 5.824 8.269,5.913 7.805,6.021 7.263 L 6.218 6.277 7.017 6.277 C 7.472 6.277,7.817 6.286,7.817 6.298 C 7.817 6.309,7.901 6.759,8.003 7.298 C 8.106 7.836,8.190 8.293,8.190 8.312 C 8.190 8.340,8.149 8.352,8.015 8.364 C 7.700 8.394,7.499 8.533,7.371 8.808 C 7.330 8.896,7.328 8.992,7.327 10.478 L 7.327 12.054 7.389 12.180 C 7.511 12.425,7.718 12.570,7.977 12.593 C 8.151 12.608,8.336 12.539,8.490 12.401 C 8.697 12.214,8.690 12.264,8.699 10.916 L 8.706 9.733 8.781 9.717 C 9.032 9.665,9.348 9.419,9.493 9.164 C 9.577 9.017,9.637 8.798,9.637 8.637 C 9.637 8.473,9.554 8.005,9.298 6.727 C 9.161 6.038,9.059 5.585,9.026 5.514 C 8.952 5.353,8.701 5.111,8.516 5.020 C 8.392 4.959,8.320 4.942,8.120 4.924 C 7.862 4.900,6.501 4.899,5.984 4.922 " fill="#1A1C1F" stroke="none" fill-rule="evenodd"></path></svg>