<svg width="20" height="20" viewBox="0 0 20 20" fill="none" xmlns="http://www.w3.org/2000/svg"><path d="M9.783 2.021 C 9.424 2.092,9.321 2.122,9.133 2.211 C 8.815 2.363,8.406 2.777,8.252 3.103 C 8.013 3.608,7.976 4.048,8.131 4.540 C 8.219 4.818,8.482 5.216,8.709 5.415 C 8.916 5.596,9.270 5.777,9.567 5.853 C 9.859 5.928,10.313 5.899,10.641 5.785 C 11.376 5.530,11.933 4.759,11.933 3.999 C 11.933 3.374,11.684 2.852,11.189 2.440 C 10.805 2.121,10.196 1.940,9.783 2.021 M8.548 7.031 C 8.130 7.049,8.103 7.055,7.860 7.175 C 7.570 7.319,7.276 7.590,7.167 7.817 C 7.085 7.985,6.889 8.846,6.514 10.683 C 6.278 11.836,6.254 11.986,6.252 12.353 L 6.250 12.756 6.383 13.020 C 6.591 13.434,6.954 13.739,7.390 13.868 L 7.530 13.910 7.540 15.580 C 7.549 17.094,7.556 17.262,7.609 17.381 C 7.702 17.586,7.877 17.776,8.071 17.884 C 8.228 17.971,8.283 17.983,8.517 17.983 C 8.727 17.982,8.813 17.967,8.922 17.909 C 9.140 17.793,9.388 17.531,9.439 17.363 C 9.501 17.158,9.504 12.784,9.442 12.582 C 9.346 12.266,9.007 12.021,8.572 11.953 C 8.354 11.919,8.317 11.903,8.319 11.848 C 8.320 11.812,8.447 11.150,8.601 10.375 L 8.882 8.967 10.024 8.967 C 10.655 8.967,11.167 8.980,11.167 8.996 C 11.167 9.012,11.287 9.656,11.433 10.427 C 11.580 11.198,11.700 11.851,11.700 11.877 C 11.700 11.913,11.635 11.932,11.450 11.949 C 11.000 11.991,10.713 12.190,10.530 12.583 C 10.472 12.709,10.468 12.846,10.467 14.968 L 10.467 17.220 10.556 17.399 C 10.731 17.750,11.026 17.958,11.396 17.990 C 11.644 18.012,11.909 17.912,12.128 17.715 C 12.424 17.449,12.414 17.520,12.427 15.597 L 12.438 13.911 12.627 13.852 C 12.890 13.771,13.058 13.668,13.275 13.453 C 13.504 13.228,13.626 13.026,13.706 12.738 C 13.787 12.446,13.783 12.265,13.682 11.677 C 13.493 10.573,12.967 8.033,12.895 7.877 C 12.788 7.648,12.430 7.301,12.166 7.172 C 11.989 7.085,11.885 7.059,11.599 7.034 C 11.231 7.001,9.288 6.999,8.548 7.031 " fill="#1A1C1F" stroke="none" fill-rule="evenodd"></path></svg>