<svg width="16" height="16" viewBox="0 0 16 16" fill="none" xmlns="http://www.w3.org/2000/svg"><path d="M4.360 1.628 C 3.637 1.723,3.039 2.418,3.040 3.162 C 3.041 3.591,3.188 3.936,3.506 4.254 C 3.821 4.569,4.189 4.721,4.632 4.720 C 5.260 4.718,5.876 4.252,6.083 3.622 C 6.175 3.341,6.171 2.945,6.074 2.676 C 5.915 2.235,5.586 1.886,5.173 1.718 C 5.050 1.668,4.601 1.588,4.533 1.604 C 4.526 1.605,4.448 1.616,4.360 1.628 M11.129 1.628 C 10.828 1.682,10.490 1.858,10.281 2.070 C 9.874 2.483,9.721 3.115,9.902 3.635 C 10.120 4.265,10.655 4.674,11.307 4.713 C 11.603 4.731,11.788 4.690,12.086 4.541 C 12.624 4.271,12.933 3.771,12.933 3.168 C 12.933 2.732,12.792 2.391,12.481 2.077 C 12.271 1.865,12.081 1.749,11.816 1.670 C 11.634 1.616,11.307 1.596,11.129 1.628 M3.438 5.625 C 3.120 5.639,3.094 5.645,2.903 5.739 C 2.666 5.857,2.491 6.004,2.376 6.183 C 2.308 6.289,2.269 6.417,2.172 6.857 C 1.995 7.655,1.602 9.624,1.583 9.808 C 1.529 10.329,1.944 10.922,2.476 11.081 L 2.637 11.129 2.645 12.478 C 2.655 14.021,2.646 13.956,2.893 14.182 C 3.301 14.555,3.894 14.427,4.146 13.911 L 4.219 13.762 4.209 11.954 C 4.199 10.191,4.197 10.144,4.143 10.027 C 4.076 9.882,3.927 9.725,3.792 9.656 C 3.683 9.601,3.454 9.547,3.332 9.547 C 3.274 9.547,3.253 9.534,3.253 9.499 C 3.253 9.473,3.355 8.942,3.480 8.320 C 3.605 7.698,3.707 7.185,3.707 7.181 C 3.707 7.166,4.823 7.174,5.177 7.191 L 5.537 7.208 5.754 8.356 C 5.874 8.987,5.966 9.509,5.960 9.516 C 5.954 9.522,5.853 9.542,5.737 9.561 C 5.621 9.580,5.479 9.617,5.423 9.643 C 5.268 9.716,5.076 9.921,5.035 10.057 C 4.984 10.227,4.984 13.720,5.035 13.890 C 5.076 14.025,5.277 14.237,5.446 14.323 C 5.806 14.507,6.284 14.331,6.477 13.944 L 6.560 13.778 6.560 12.453 L 6.560 11.128 6.673 11.095 C 7.009 10.996,7.321 10.742,7.461 10.453 C 7.556 10.258,7.627 10.008,7.627 9.867 C 7.627 9.686,7.272 7.821,7.039 6.776 C 6.921 6.247,6.854 6.113,6.607 5.917 C 6.375 5.732,6.172 5.652,5.873 5.625 C 5.593 5.600,3.987 5.600,3.438 5.625 M9.527 5.626 C 9.317 5.642,9.252 5.659,9.074 5.747 C 8.646 5.958,8.347 6.408,8.347 6.840 C 8.347 6.953,8.791 9.201,9.003 10.160 C 9.131 10.736,9.148 10.776,9.346 10.963 L 9.440 11.052 9.440 12.414 L 9.440 13.776 9.511 13.920 C 9.667 14.231,9.909 14.386,10.240 14.385 C 10.410 14.385,10.461 14.373,10.581 14.307 C 10.743 14.219,10.879 14.080,10.962 13.917 L 11.019 13.804 11.007 11.962 C 10.999 10.685,10.986 10.098,10.966 10.048 C 10.922 9.943,10.751 9.763,10.614 9.678 L 10.495 9.604 10.265 8.475 C 10.138 7.855,10.026 7.308,10.015 7.260 L 9.996 7.173 11.387 7.173 C 12.489 7.173,12.776 7.180,12.767 7.207 C 12.760 7.225,12.655 7.762,12.533 8.400 C 12.400 9.098,12.296 9.578,12.272 9.606 C 12.250 9.632,12.180 9.683,12.117 9.720 C 11.996 9.791,11.873 9.949,11.814 10.107 C 11.787 10.179,11.776 10.605,11.766 11.964 L 11.754 13.729 11.821 13.874 C 11.908 14.064,12.057 14.227,12.225 14.315 C 12.403 14.408,12.697 14.415,12.880 14.330 C 13.021 14.264,13.206 14.084,13.270 13.950 C 13.336 13.809,13.357 13.402,13.358 12.162 L 13.360 11.058 13.504 10.907 C 13.593 10.814,13.660 10.716,13.678 10.651 C 13.717 10.512,14.127 8.487,14.296 7.600 C 14.443 6.830,14.447 6.732,14.345 6.434 C 14.238 6.122,14.027 5.896,13.687 5.728 C 13.537 5.655,13.481 5.643,13.179 5.624 C 12.775 5.598,9.879 5.600,9.527 5.626 " fill="#1A1C1F" stroke="none" fill-rule="evenodd"></path></svg>