<svg width="12" height="12" viewBox="0 0 12 12" fill="none" xmlns="http://www.w3.org/2000/svg"><path d="M5.814 1.220 C 5.431 1.289,5.127 1.510,4.961 1.842 C 4.758 2.248,4.780 2.647,5.025 3.013 C 5.322 3.458,5.878 3.647,6.378 3.474 C 6.826 3.318,7.160 2.859,7.160 2.399 C 7.160 2.052,7.030 1.752,6.782 1.523 C 6.659 1.410,6.479 1.301,6.346 1.260 C 6.196 1.214,5.949 1.195,5.814 1.220 M5.139 4.219 C 4.876 4.230,4.863 4.232,4.716 4.305 C 4.541 4.392,4.367 4.551,4.303 4.684 C 4.250 4.793,4.186 5.069,3.970 6.119 C 3.755 7.163,3.732 7.307,3.745 7.502 C 3.771 7.873,4.053 8.208,4.434 8.321 L 4.518 8.346 4.524 9.348 C 4.530 10.337,4.531 10.351,4.574 10.440 C 4.641 10.575,4.724 10.665,4.843 10.731 C 4.937 10.783,4.970 10.790,5.110 10.790 C 5.236 10.789,5.288 10.780,5.353 10.745 C 5.484 10.676,5.633 10.519,5.663 10.418 C 5.701 10.295,5.702 7.670,5.665 7.549 C 5.608 7.360,5.404 7.213,5.143 7.172 C 5.012 7.151,4.990 7.142,4.991 7.109 C 4.992 7.087,5.068 6.690,5.161 6.225 L 5.329 5.380 6.015 5.380 C 6.405 5.380,6.700 5.388,6.700 5.398 C 6.700 5.408,6.772 5.793,6.860 6.255 C 6.948 6.717,7.020 7.108,7.020 7.125 C 7.020 7.148,6.985 7.159,6.870 7.169 C 6.600 7.195,6.428 7.314,6.318 7.550 C 6.283 7.625,6.281 7.707,6.280 8.981 L 6.280 10.332 6.334 10.440 C 6.438 10.650,6.616 10.775,6.838 10.794 C 6.986 10.807,7.145 10.747,7.277 10.629 C 7.454 10.469,7.449 10.512,7.456 9.358 L 7.463 8.346 7.576 8.311 C 7.734 8.263,7.835 8.201,7.965 8.072 C 8.103 7.937,8.175 7.816,8.223 7.643 C 8.272 7.467,8.270 7.359,8.209 7.006 C 8.096 6.344,7.780 4.820,7.737 4.726 C 7.673 4.589,7.458 4.381,7.300 4.303 C 7.193 4.251,7.131 4.236,6.960 4.220 C 6.739 4.200,5.600 4.199,5.139 4.219 " fill="#1A1C1F" stroke="none" fill-rule="evenodd"></path></svg>