<svg width="12" height="12" viewBox="0 0 12 12" fill="none" xmlns="http://www.w3.org/2000/svg"><path d="M3.270 1.221 C 2.832 1.279,2.414 1.662,2.311 2.102 C 2.250 2.361,2.283 2.645,2.404 2.898 C 2.489 3.076,2.739 3.326,2.920 3.414 C 3.373 3.633,3.890 3.556,4.239 3.216 C 4.503 2.960,4.611 2.709,4.608 2.360 C 4.606 2.073,4.526 1.853,4.343 1.632 C 4.079 1.314,3.690 1.165,3.270 1.221 M8.347 1.221 C 8.121 1.261,7.867 1.393,7.711 1.552 C 7.406 1.862,7.291 2.336,7.426 2.727 C 7.590 3.196,7.993 3.506,8.480 3.535 C 8.702 3.548,8.841 3.517,9.064 3.406 C 9.468 3.204,9.700 2.828,9.700 2.376 C 9.700 2.049,9.594 1.793,9.361 1.558 C 9.203 1.399,9.061 1.311,8.862 1.252 C 8.725 1.212,8.480 1.197,8.347 1.221 M2.589 4.218 C 2.339 4.230,2.322 4.233,2.178 4.304 C 1.999 4.392,1.868 4.503,1.782 4.637 C 1.731 4.716,1.702 4.813,1.629 5.143 C 1.496 5.742,1.202 7.218,1.187 7.356 C 1.146 7.747,1.455 8.187,1.854 8.308 L 1.977 8.346 1.984 9.358 C 1.992 10.516,1.984 10.467,2.170 10.637 C 2.476 10.916,2.920 10.820,3.109 10.433 L 3.164 10.321 3.156 8.966 C 3.149 7.643,3.148 7.608,3.107 7.520 C 3.057 7.412,2.945 7.293,2.844 7.242 C 2.762 7.201,2.590 7.160,2.499 7.160 C 2.456 7.160,2.440 7.150,2.440 7.124 C 2.440 7.105,2.517 6.707,2.610 6.240 C 2.704 5.773,2.780 5.389,2.780 5.386 C 2.780 5.375,3.654 5.380,3.902 5.393 L 4.155 5.406 4.188 5.588 C 4.206 5.688,4.279 6.076,4.350 6.449 C 4.421 6.822,4.475 7.132,4.470 7.137 C 4.465 7.141,4.390 7.157,4.303 7.171 C 4.216 7.185,4.110 7.212,4.067 7.232 C 3.951 7.287,3.807 7.441,3.776 7.543 C 3.738 7.670,3.738 10.290,3.777 10.418 C 3.807 10.519,3.958 10.678,4.084 10.742 C 4.354 10.880,4.713 10.748,4.858 10.458 L 4.920 10.334 4.920 9.340 L 4.920 8.346 5.005 8.321 C 5.257 8.247,5.491 8.056,5.596 7.840 C 5.667 7.693,5.720 7.506,5.720 7.400 C 5.720 7.264,5.424 5.711,5.268 5.031 C 5.190 4.687,5.132 4.578,4.955 4.438 C 4.781 4.299,4.629 4.239,4.405 4.219 C 4.194 4.200,3.012 4.200,2.589 4.218 M7.146 4.220 C 6.988 4.231,6.939 4.244,6.806 4.310 C 6.459 4.481,6.235 4.848,6.267 5.190 C 6.284 5.375,6.767 7.742,6.839 8.000 C 6.851 8.042,6.904 8.115,6.970 8.180 L 7.080 8.289 7.080 9.310 L 7.080 10.332 7.134 10.440 C 7.250 10.673,7.432 10.790,7.680 10.789 C 7.807 10.789,7.846 10.780,7.936 10.731 C 8.057 10.664,8.159 10.560,8.221 10.438 L 8.264 10.353 8.256 8.972 C 8.250 8.009,8.240 7.574,8.224 7.536 C 8.191 7.457,8.063 7.322,7.961 7.258 L 7.872 7.203 7.699 6.356 C 7.604 5.891,7.519 5.481,7.511 5.445 L 7.497 5.380 8.540 5.380 C 9.524 5.380,9.582 5.382,9.572 5.415 C 9.567 5.434,9.490 5.828,9.401 6.290 C 9.312 6.752,9.231 7.150,9.220 7.175 C 9.210 7.200,9.156 7.248,9.100 7.282 C 8.996 7.346,8.905 7.459,8.861 7.580 C 8.841 7.634,8.832 7.961,8.825 8.973 L 8.815 10.296 8.866 10.406 C 8.934 10.555,9.058 10.685,9.185 10.742 C 9.325 10.804,9.532 10.807,9.660 10.747 C 9.766 10.698,9.904 10.563,9.952 10.463 C 10.002 10.357,10.018 10.051,10.019 9.122 L 10.020 8.294 10.128 8.180 C 10.195 8.111,10.245 8.037,10.258 7.988 C 10.288 7.884,10.596 6.365,10.722 5.700 C 10.832 5.122,10.835 5.049,10.759 4.825 C 10.679 4.592,10.520 4.422,10.265 4.296 C 10.156 4.242,10.108 4.232,9.905 4.218 C 9.622 4.199,7.406 4.200,7.146 4.220 " fill="#1A1C1F" stroke="none" fill-rule="evenodd"></path></svg>