<svg width="20" height="20" viewBox="0 0 20 20" fill="none" xmlns="http://www.w3.org/2000/svg"><path d="M9.367 2.126 C 8.987 2.285,8.856 2.371,8.616 2.613 C 8.224 3.009,8.067 3.401,8.067 3.982 C 8.067 4.514,8.251 4.950,8.634 5.328 C 9.237 5.922,10.103 6.064,10.867 5.694 C 11.151 5.556,11.584 5.131,11.726 4.848 C 12.017 4.271,12.017 3.665,11.727 3.067 C 11.585 2.774,11.199 2.389,10.883 2.227 C 10.586 2.074,10.384 2.033,9.940 2.034 C 9.628 2.035,9.556 2.047,9.367 2.126 M7.900 7.031 C 7.425 7.048,7.367 7.058,7.184 7.143 C 6.754 7.345,6.470 7.639,6.319 8.041 C 6.161 8.461,6.164 8.506,6.463 9.991 C 6.738 11.361,7.104 13.079,7.170 13.314 C 7.192 13.394,7.275 13.518,7.383 13.631 L 7.559 13.817 7.574 15.533 C 7.592 17.454,7.582 17.373,7.837 17.650 C 8.060 17.892,8.237 17.980,8.498 17.980 C 8.618 17.980,8.789 17.960,8.877 17.935 C 9.099 17.873,9.338 17.650,9.470 17.383 L 9.574 17.169 9.560 14.960 L 9.546 12.750 9.469 12.576 C 9.399 12.416,9.326 12.337,8.971 12.033 C 8.877 11.953,8.865 11.904,8.585 10.517 C 8.426 9.728,8.289 9.057,8.279 9.025 C 8.263 8.970,8.361 8.967,10.002 8.967 C 11.670 8.967,11.740 8.969,11.725 9.028 C 11.716 9.061,11.586 9.732,11.435 10.519 C 11.167 11.912,11.157 11.952,11.063 12.033 C 10.721 12.325,10.654 12.393,10.596 12.509 C 10.485 12.724,10.467 13.105,10.467 15.186 L 10.467 17.189 10.569 17.393 C 10.697 17.651,10.940 17.874,11.157 17.935 C 11.678 18.082,12.115 17.899,12.341 17.441 L 12.450 17.218 12.460 15.520 L 12.470 13.822 12.664 13.614 C 12.770 13.501,12.865 13.372,12.875 13.329 C 12.947 13.007,13.617 9.627,13.704 9.143 C 13.804 8.589,13.810 8.516,13.776 8.313 C 13.692 7.827,13.372 7.405,12.914 7.179 C 12.690 7.068,12.632 7.055,12.276 7.031 C 11.842 7.001,8.714 7.002,7.900 7.031 " fill="#1A1C1F" stroke="none" fill-rule="evenodd"></path></svg>