<svg width="24" height="24" viewBox="0 0 24 24" fill="none" xmlns="http://www.w3.org/2000/svg"><path d="M6.113 2.039 C 5.551 2.140,5.154 2.357,4.788 2.762 C 4.255 3.350,4.078 4.162,4.317 4.923 C 4.513 5.552,5.081 6.143,5.700 6.363 C 6.004 6.471,6.624 6.510,6.925 6.441 C 7.755 6.250,8.450 5.555,8.641 4.725 C 8.710 4.425,8.671 3.804,8.564 3.503 C 8.343 2.883,7.752 2.313,7.132 2.120 C 6.836 2.029,6.372 1.992,6.113 2.039 M17.280 2.023 C 16.735 2.114,16.437 2.239,16.107 2.516 C 15.336 3.162,15.076 4.036,15.381 4.960 C 15.499 5.317,15.641 5.540,15.944 5.847 C 16.826 6.740,18.323 6.684,19.180 5.725 C 19.824 5.003,19.922 3.987,19.429 3.121 C 19.169 2.666,18.648 2.258,18.131 2.106 C 17.909 2.041,17.445 1.996,17.280 2.023 M4.800 7.795 C 4.164 7.819,4.132 7.824,3.922 7.940 C 3.636 8.098,3.314 8.415,3.190 8.662 C 3.122 8.798,3.045 9.112,2.946 9.660 C 2.778 10.589,2.260 13.716,2.220 14.042 C 2.170 14.452,2.334 15.022,2.589 15.320 C 2.877 15.657,3.490 15.960,3.882 15.960 L 4.036 15.960 4.048 18.630 C 4.061 21.634,4.036 21.399,4.379 21.715 C 4.693 22.004,4.915 22.057,5.318 21.937 C 5.592 21.856,5.899 21.561,5.947 21.335 C 5.990 21.134,5.990 14.868,5.948 14.668 C 5.909 14.485,5.685 14.224,5.472 14.116 C 5.353 14.055,5.200 14.032,4.797 14.012 C 4.511 13.999,4.270 13.975,4.260 13.961 C 4.240 13.927,4.873 9.753,4.904 9.723 C 4.916 9.710,5.616 9.694,6.458 9.687 L 7.990 9.675 8.012 9.767 C 8.025 9.818,8.117 10.373,8.217 11.000 C 8.625 13.551,8.679 13.936,8.637 13.962 C 8.614 13.976,8.388 13.999,8.136 14.013 C 7.819 14.030,7.626 14.060,7.509 14.112 C 7.289 14.210,7.053 14.474,7.012 14.668 C 6.970 14.867,6.970 21.133,7.012 21.332 C 7.030 21.418,7.108 21.555,7.190 21.645 C 7.646 22.151,8.344 22.092,8.744 21.515 L 8.860 21.347 8.872 18.659 L 8.884 15.971 9.135 15.948 C 9.778 15.888,10.334 15.475,10.566 14.886 C 10.638 14.705,10.655 14.584,10.652 14.280 C 10.649 13.876,10.467 12.536,10.179 10.800 C 9.898 9.101,9.824 8.779,9.661 8.533 C 9.508 8.303,9.207 8.045,8.922 7.901 C 8.743 7.810,8.715 7.809,7.100 7.790 C 6.198 7.779,5.163 7.781,4.800 7.795 M14.960 7.798 C 14.368 7.819,14.330 7.825,14.126 7.939 C 13.836 8.099,13.507 8.437,13.372 8.713 C 13.282 8.895,13.257 9.007,13.247 9.280 C 13.231 9.677,13.268 9.981,13.644 12.520 C 13.984 14.816,14.054 15.198,14.186 15.472 C 14.311 15.732,14.602 16.029,14.896 16.198 L 15.116 16.324 15.128 18.835 L 15.140 21.347 15.256 21.515 C 15.652 22.085,16.341 22.147,16.807 21.654 C 17.026 21.422,17.019 21.534,17.032 18.209 L 17.044 15.118 16.932 14.962 C 16.761 14.724,16.498 14.566,16.178 14.507 L 15.900 14.455 15.560 12.098 L 15.220 9.740 15.320 9.715 C 15.375 9.701,16.406 9.687,17.610 9.685 L 19.801 9.680 19.774 9.850 C 19.759 9.944,19.610 11.018,19.443 12.238 L 19.140 14.455 18.866 14.506 C 18.484 14.576,18.265 14.724,18.106 15.020 C 18.021 15.179,18.020 15.203,18.007 18.108 C 17.991 21.494,17.977 21.343,18.333 21.698 C 18.622 21.987,18.921 22.063,19.285 21.939 C 19.518 21.859,19.740 21.674,19.851 21.466 C 19.938 21.301,19.939 21.287,19.953 18.812 L 19.967 16.324 20.174 16.207 C 20.440 16.057,20.740 15.734,20.862 15.467 C 20.975 15.220,21.090 14.538,21.438 12.060 C 21.795 9.513,21.808 9.386,21.737 9.080 C 21.657 8.737,21.509 8.479,21.254 8.237 C 20.978 7.977,20.670 7.837,20.283 7.796 C 19.949 7.761,15.943 7.762,14.960 7.798 " fill="#1A1C1F" stroke="none" fill-rule="evenodd"></path></svg>