<svg width="32" height="32" viewBox="0 0 32 32" fill="none" xmlns="http://www.w3.org/2000/svg"><path d="M15.200 2.083 C 14.415 2.219,13.536 2.906,13.154 3.682 C 12.775 4.453,12.718 5.190,12.979 5.960 C 13.294 6.892,14.189 7.691,15.179 7.925 C 16.217 8.169,17.411 7.749,18.113 6.892 C 19.060 5.736,19.026 4.156,18.030 3.029 C 17.755 2.718,17.163 2.319,16.770 2.181 C 16.420 2.058,15.629 2.008,15.200 2.083 M16.177 4.131 C 16.562 4.268,16.800 4.616,16.800 5.043 C 16.800 5.878,15.837 6.314,15.191 5.771 C 14.889 5.516,14.794 5.056,14.962 4.654 C 15.073 4.389,15.186 4.270,15.440 4.154 C 15.692 4.038,15.899 4.031,16.177 4.131 M12.240 9.541 C 11.752 9.574,11.605 9.605,11.369 9.727 C 10.993 9.920,10.667 10.254,10.480 10.636 C 10.262 11.080,10.251 11.516,10.424 12.827 C 10.703 14.942,11.580 21.045,11.635 21.253 C 11.749 21.687,12.222 21.973,12.824 21.973 L 13.067 21.973 13.069 25.507 C 13.070 27.450,13.091 29.143,13.116 29.269 C 13.168 29.542,13.334 29.738,13.627 29.873 C 14.071 30.078,14.605 29.931,14.870 29.531 L 15.013 29.315 15.029 25.046 C 15.040 21.873,15.028 20.739,14.981 20.627 C 14.891 20.408,14.537 20.127,14.267 20.059 C 14.138 20.026,13.893 20.000,13.722 20.000 L 13.412 20.000 12.860 15.907 C 12.556 13.655,12.296 11.735,12.281 11.640 L 12.255 11.467 16.022 11.467 L 19.789 11.467 19.760 11.587 C 19.734 11.698,18.560 19.879,18.560 19.953 C 18.560 19.971,18.374 19.997,18.147 20.011 C 17.641 20.040,17.373 20.159,17.166 20.445 L 17.012 20.659 17.026 25.018 L 17.040 29.377 17.204 29.582 C 17.436 29.872,17.672 29.984,18.005 29.959 C 18.415 29.929,18.669 29.776,18.827 29.464 L 18.960 29.200 18.976 25.560 C 18.988 22.766,19.006 21.920,19.056 21.919 C 19.199 21.916,19.698 21.612,19.927 21.387 C 20.429 20.893,20.441 20.845,20.876 17.840 C 21.748 11.809,21.802 11.221,21.541 10.663 C 21.364 10.287,20.942 9.863,20.566 9.685 L 20.274 9.547 16.550 9.524 C 14.502 9.512,12.563 9.520,12.240 9.541 " fill="#1A1C1F" stroke="none" fill-rule="evenodd"></path></svg>