<svg width="32" height="32" viewBox="0 0 32 32" fill="none" xmlns="http://www.w3.org/2000/svg"><path d="M8.000 2.083 C 7.567 2.158,6.955 2.479,6.592 2.823 C 6.217 3.178,5.962 3.558,5.775 4.043 C 5.656 4.353,5.637 4.482,5.637 5.013 C 5.637 5.547,5.656 5.674,5.777 5.988 C 6.326 7.411,7.762 8.234,9.184 7.942 C 9.339 7.910,9.668 7.788,9.913 7.671 C 11.191 7.060,11.857 5.580,11.474 4.201 C 11.235 3.338,10.434 2.484,9.581 2.185 C 9.220 2.058,8.436 2.007,8.000 2.083 M22.561 2.084 C 21.890 2.204,21.045 2.793,20.634 3.430 C 20.308 3.934,20.194 4.353,20.196 5.040 C 20.198 5.526,20.221 5.686,20.328 5.974 C 20.580 6.649,21.149 7.318,21.745 7.641 C 22.095 7.830,22.758 8.000,23.147 8.000 C 23.527 8.000,24.204 7.830,24.582 7.639 C 25.104 7.376,25.681 6.708,25.974 6.027 C 26.124 5.677,26.181 4.823,26.085 4.372 C 26.000 3.978,25.757 3.495,25.456 3.122 C 25.153 2.748,24.523 2.303,24.107 2.169 C 23.753 2.056,22.963 2.012,22.561 2.084 M9.053 4.166 C 9.661 4.460,9.767 5.301,9.254 5.752 C 8.464 6.445,7.304 5.621,7.709 4.654 C 7.819 4.389,7.933 4.270,8.187 4.154 C 8.470 4.024,8.768 4.028,9.053 4.166 M23.560 4.135 C 23.816 4.242,23.934 4.354,24.065 4.609 C 24.296 5.062,24.070 5.714,23.610 5.923 C 22.937 6.228,22.240 5.766,22.240 5.013 C 22.240 4.303,22.904 3.861,23.560 4.135 M6.453 9.543 C 6.004 9.568,5.841 9.601,5.631 9.707 C 5.306 9.871,4.901 10.258,4.756 10.541 C 4.632 10.786,4.335 12.192,3.734 15.387 C 3.053 19.007,2.919 19.825,2.948 20.194 C 2.981 20.618,3.181 21.050,3.484 21.353 C 3.916 21.786,4.428 21.972,5.187 21.973 L 5.653 21.973 5.654 25.400 C 5.654 27.387,5.676 28.961,5.706 29.146 C 5.794 29.684,6.043 29.918,6.567 29.956 C 6.968 29.985,7.184 29.891,7.439 29.576 L 7.600 29.377 7.600 25.022 C 7.600 20.776,7.597 20.662,7.494 20.492 C 7.436 20.396,7.300 20.256,7.191 20.180 C 6.999 20.048,6.956 20.042,6.007 20.013 C 5.464 19.997,4.995 19.969,4.964 19.949 C 4.926 19.926,5.152 18.569,5.653 15.821 C 6.064 13.570,6.414 11.668,6.433 11.594 L 6.467 11.460 8.589 11.477 C 9.756 11.486,10.724 11.506,10.740 11.522 C 10.756 11.538,11.107 13.410,11.520 15.682 C 11.933 17.954,12.283 19.852,12.297 19.900 C 12.320 19.978,12.214 19.990,11.295 20.010 C 10.168 20.035,10.057 20.062,9.795 20.373 C 9.719 20.463,9.639 20.626,9.615 20.735 C 9.592 20.844,9.573 22.805,9.573 25.093 L 9.573 29.253 9.698 29.454 C 9.767 29.565,9.909 29.721,10.014 29.801 C 10.178 29.926,10.255 29.947,10.565 29.947 C 10.846 29.947,10.958 29.922,11.073 29.837 C 11.286 29.678,11.414 29.488,11.469 29.249 C 11.496 29.134,11.518 27.454,11.519 25.515 L 11.520 21.989 12.147 21.959 C 12.852 21.924,13.119 21.848,13.492 21.574 C 14.024 21.184,14.324 20.552,14.266 19.947 C 14.152 18.751,12.663 10.972,12.472 10.573 C 12.208 10.020,11.607 9.623,10.913 9.542 C 10.491 9.493,7.328 9.494,6.453 9.543 M19.707 9.544 C 19.049 9.574,18.996 9.585,18.676 9.757 C 18.301 9.959,17.987 10.283,17.819 10.640 C 17.618 11.068,17.597 11.287,17.684 12.032 C 17.885 13.758,18.900 20.893,18.995 21.253 C 19.109 21.687,19.582 21.973,20.182 21.973 L 20.423 21.973 20.438 25.675 L 20.453 29.377 20.617 29.582 C 20.707 29.694,20.863 29.829,20.964 29.880 C 21.399 30.102,21.998 29.919,22.240 29.490 L 22.373 29.253 22.390 25.296 C 22.407 21.207,22.386 20.684,22.198 20.430 C 22.017 20.185,21.691 20.046,21.223 20.014 C 20.988 19.998,20.787 19.968,20.774 19.948 C 20.762 19.928,20.511 18.125,20.217 15.942 C 19.924 13.759,19.670 11.875,19.653 11.754 L 19.622 11.535 19.905 11.501 C 20.060 11.483,21.747 11.467,23.654 11.467 L 27.121 11.467 26.521 15.667 C 26.191 17.977,25.910 19.897,25.896 19.933 C 25.880 19.975,25.764 20.000,25.588 20.000 C 25.004 20.001,24.642 20.187,24.460 20.582 C 24.348 20.824,24.346 20.874,24.331 24.998 C 24.316 29.044,24.319 29.175,24.420 29.371 C 24.836 30.182,25.829 30.184,26.245 29.375 C 26.342 29.186,26.347 29.015,26.347 25.559 L 26.347 21.940 26.637 21.819 C 27.177 21.596,27.681 21.038,27.818 20.513 C 27.894 20.222,28.287 17.522,28.754 14.080 C 28.923 12.830,29.034 11.818,29.036 11.493 C 29.040 11.012,29.025 10.930,28.890 10.654 C 28.706 10.279,28.344 9.908,27.980 9.722 C 27.738 9.598,27.617 9.577,26.933 9.541 C 26.039 9.494,20.732 9.496,19.707 9.544 " fill="#1A1C1F" stroke="none" fill-rule="evenodd"></path></svg>