<svg width="14" height="14" viewBox="0 0 14 14" fill="none" xmlns="http://www.w3.org/2000/svg"><path d="M3.809 1.427 C 3.293 1.501,2.817 1.939,2.696 2.452 C 2.624 2.756,2.664 3.090,2.806 3.382 C 2.908 3.591,3.199 3.882,3.407 3.983 C 3.935 4.239,4.538 4.148,4.945 3.752 C 5.253 3.453,5.380 3.160,5.376 2.753 C 5.374 2.497,5.348 2.389,5.234 2.159 C 5.052 1.791,4.629 1.481,4.235 1.424 C 4.048 1.398,4.010 1.398,3.809 1.427 M9.738 1.424 C 9.235 1.514,8.835 1.864,8.664 2.364 C 8.609 2.526,8.599 2.591,8.601 2.788 C 8.602 2.984,8.613 3.050,8.668 3.197 C 8.871 3.743,9.331 4.091,9.893 4.124 C 10.153 4.139,10.315 4.104,10.575 3.973 C 11.046 3.737,11.317 3.299,11.317 2.772 C 11.317 2.414,11.193 2.099,10.952 1.844 C 10.640 1.513,10.163 1.348,9.738 1.424 M3.008 4.922 C 2.730 4.935,2.706 4.940,2.540 5.022 C 2.332 5.125,2.179 5.253,2.079 5.410 C 1.994 5.542,1.923 5.844,1.594 7.467 C 1.367 8.584,1.351 8.749,1.440 8.990 C 1.559 9.309,1.842 9.588,2.146 9.687 L 2.307 9.738 2.315 10.918 C 2.323 12.269,2.315 12.211,2.532 12.409 C 2.888 12.735,3.407 12.623,3.627 12.172 L 3.691 12.041 3.683 10.460 C 3.674 8.911,3.673 8.876,3.624 8.773 C 3.566 8.649,3.431 8.506,3.315 8.448 C 3.222 8.401,3.021 8.353,2.916 8.353 C 2.865 8.353,2.847 8.342,2.847 8.312 C 2.847 8.289,2.936 7.825,3.045 7.280 C 3.154 6.735,3.243 6.287,3.243 6.283 C 3.243 6.270,4.333 6.277,4.586 6.292 L 4.845 6.307 5.035 7.312 C 5.168 8.016,5.217 8.321,5.199 8.333 C 5.185 8.341,5.106 8.356,5.025 8.365 C 4.740 8.395,4.471 8.587,4.404 8.807 C 4.361 8.949,4.363 12.010,4.406 12.154 C 4.442 12.272,4.617 12.457,4.765 12.533 C 5.080 12.693,5.498 12.540,5.667 12.201 L 5.740 12.056 5.740 10.897 L 5.740 9.737 5.839 9.708 C 6.133 9.621,6.406 9.399,6.529 9.147 C 6.612 8.975,6.673 8.757,6.673 8.634 C 6.673 8.475,6.328 6.663,6.146 5.869 C 6.055 5.468,5.988 5.341,5.781 5.177 C 5.583 5.020,5.402 4.946,5.152 4.922 C 4.918 4.900,3.488 4.899,3.008 4.922 M8.337 4.923 C 8.154 4.936,8.095 4.952,7.945 5.026 C 7.746 5.124,7.556 5.296,7.455 5.469 C 7.377 5.603,7.303 5.853,7.303 5.984 C 7.304 6.082,7.693 8.055,7.877 8.889 C 7.989 9.397,8.020 9.467,8.194 9.609 L 8.260 9.663 8.260 10.859 L 8.260 12.054 8.322 12.180 C 8.458 12.452,8.671 12.588,8.960 12.587 C 9.109 12.587,9.154 12.576,9.259 12.519 C 9.400 12.442,9.519 12.320,9.592 12.177 L 9.642 12.079 9.631 10.467 C 9.624 9.350,9.613 8.836,9.595 8.792 C 9.557 8.700,9.407 8.543,9.288 8.468 L 9.183 8.403 8.982 7.416 C 8.871 6.873,8.772 6.394,8.763 6.353 L 8.746 6.277 9.964 6.277 C 10.928 6.277,11.179 6.283,11.171 6.306 C 11.165 6.322,11.073 6.792,10.966 7.350 C 10.850 7.961,10.759 8.381,10.738 8.406 C 10.719 8.428,10.658 8.473,10.602 8.505 C 10.496 8.567,10.388 8.706,10.337 8.843 C 10.314 8.906,10.304 9.288,10.296 10.468 L 10.284 12.012 10.343 12.140 C 10.419 12.306,10.550 12.448,10.697 12.525 C 10.853 12.607,11.110 12.613,11.270 12.539 C 11.393 12.481,11.555 12.324,11.611 12.206 C 11.669 12.083,11.687 11.727,11.689 10.642 L 11.690 9.676 11.816 9.544 C 11.894 9.462,11.952 9.376,11.968 9.320 C 12.002 9.198,12.361 7.426,12.509 6.650 C 12.637 5.976,12.641 5.890,12.552 5.630 C 12.458 5.357,12.274 5.159,11.976 5.012 C 11.849 4.949,11.793 4.937,11.555 4.921 C 11.226 4.899,8.641 4.900,8.337 4.923 " fill="#1A1C1F" stroke="none" fill-rule="evenodd"></path></svg>