<svg width="16" height="16" viewBox="0 0 16 16" fill="none" xmlns="http://www.w3.org/2000/svg"><path d="M7.493 1.701 C 7.190 1.828,7.085 1.896,6.891 2.090 C 6.584 2.399,6.454 2.722,6.454 3.182 C 6.453 3.606,6.595 3.949,6.897 4.250 C 7.229 4.583,7.657 4.745,8.116 4.712 C 8.519 4.684,8.831 4.530,9.132 4.211 C 9.592 3.723,9.684 3.077,9.382 2.453 C 9.268 2.219,8.959 1.912,8.707 1.782 C 8.469 1.660,8.307 1.626,7.952 1.627 C 7.703 1.628,7.645 1.637,7.493 1.701 M6.333 5.625 C 5.941 5.639,5.894 5.646,5.750 5.713 C 5.408 5.873,5.175 6.115,5.056 6.431 C 4.929 6.769,4.931 6.804,5.170 7.993 C 5.391 9.089,5.683 10.463,5.736 10.651 C 5.754 10.715,5.820 10.814,5.906 10.905 L 6.047 11.053 6.059 12.427 C 6.073 13.963,6.065 13.898,6.270 14.120 C 6.448 14.314,6.589 14.384,6.798 14.384 C 6.895 14.384,7.031 14.368,7.101 14.348 C 7.279 14.298,7.470 14.120,7.576 13.906 L 7.660 13.736 7.648 11.968 L 7.637 10.200 7.575 10.061 C 7.519 9.932,7.461 9.870,7.177 9.627 C 7.102 9.562,7.092 9.523,6.868 8.413 C 6.741 7.783,6.631 7.246,6.623 7.220 C 6.611 7.176,6.689 7.173,8.001 7.173 C 9.336 7.173,9.392 7.175,9.380 7.222 C 9.373 7.249,9.269 7.786,9.148 8.415 C 8.934 9.530,8.926 9.562,8.850 9.627 C 8.577 9.860,8.523 9.915,8.476 10.007 C 8.388 10.180,8.374 10.484,8.374 12.149 L 8.373 13.751 8.455 13.915 C 8.558 14.121,8.752 14.300,8.925 14.348 C 9.342 14.465,9.692 14.319,9.872 13.952 L 9.960 13.775 9.968 12.416 L 9.976 11.057 10.131 10.892 C 10.216 10.800,10.292 10.698,10.300 10.663 C 10.358 10.406,10.893 7.702,10.963 7.314 C 11.043 6.871,11.048 6.812,11.021 6.650 C 10.954 6.261,10.698 5.924,10.331 5.743 C 10.148 5.652,10.110 5.644,9.794 5.624 C 9.422 5.600,7.016 5.601,6.333 5.625 " fill="#1A1C1F" stroke="none" fill-rule="evenodd"></path></svg>