<svg width="20" height="20" viewBox="0 0 20 20" fill="none" xmlns="http://www.w3.org/2000/svg"><path d="M5.450 2.035 C 4.853 2.124,4.280 2.545,4.001 3.100 C 3.733 3.632,3.736 4.274,4.009 4.832 C 4.156 5.133,4.572 5.550,4.867 5.691 C 5.624 6.054,6.490 5.924,7.067 5.361 C 7.503 4.936,7.685 4.512,7.681 3.933 C 7.677 3.462,7.550 3.107,7.257 2.750 C 6.806 2.198,6.134 1.932,5.450 2.035 M13.912 2.034 C 13.193 2.163,12.622 2.663,12.378 3.377 C 12.299 3.608,12.285 3.701,12.287 3.983 C 12.289 4.262,12.305 4.358,12.382 4.567 C 12.673 5.347,13.329 5.844,14.133 5.891 C 14.504 5.913,14.735 5.862,15.107 5.676 C 16.265 5.097,16.534 3.576,15.645 2.634 C 15.200 2.161,14.519 1.926,13.912 2.034 M4.298 7.031 C 3.901 7.049,3.866 7.057,3.629 7.174 C 3.332 7.321,3.113 7.505,2.970 7.729 C 2.885 7.861,2.836 8.022,2.714 8.571 C 2.497 9.552,2.003 12.030,1.979 12.261 C 1.911 12.911,2.431 13.652,3.095 13.851 L 3.296 13.911 3.307 15.597 C 3.319 17.526,3.307 17.445,3.617 17.728 C 4.126 18.193,4.867 18.033,5.182 17.389 L 5.274 17.201 5.261 14.942 C 5.248 12.732,5.246 12.680,5.178 12.533 C 5.095 12.356,4.901 12.152,4.735 12.068 C 4.603 12.001,4.316 11.933,4.165 11.933 C 4.093 11.933,4.067 11.917,4.067 11.874 C 4.067 11.841,4.194 11.178,4.350 10.400 C 4.506 9.622,4.633 8.981,4.633 8.976 C 4.633 8.958,6.130 8.967,6.522 8.988 L 6.921 9.010 7.193 10.445 C 7.383 11.451,7.453 11.888,7.427 11.904 C 7.407 11.916,7.295 11.937,7.178 11.949 C 6.771 11.993,6.387 12.266,6.291 12.582 C 6.229 12.784,6.232 17.158,6.294 17.363 C 6.345 17.532,6.596 17.796,6.807 17.904 C 7.257 18.133,7.855 17.914,8.096 17.430 L 8.200 17.223 8.200 15.567 L 8.200 13.911 8.342 13.869 C 8.762 13.745,9.152 13.427,9.327 13.067 C 9.446 12.822,9.533 12.511,9.533 12.334 C 9.533 12.108,9.090 9.776,8.798 8.470 C 8.651 7.808,8.567 7.641,8.259 7.396 C 7.969 7.166,7.715 7.065,7.342 7.031 C 6.987 7.000,4.970 6.999,4.298 7.031 M11.909 7.033 C 11.646 7.052,11.565 7.074,11.343 7.183 C 10.764 7.468,10.390 8.080,10.445 8.650 C 10.475 8.962,11.279 12.907,11.399 13.334 C 11.419 13.404,11.506 13.525,11.616 13.633 L 11.800 13.814 11.800 15.517 L 11.800 17.220 11.889 17.399 C 12.083 17.789,12.387 17.983,12.800 17.982 C 13.012 17.981,13.077 17.966,13.227 17.884 C 13.429 17.774,13.598 17.600,13.702 17.396 L 13.774 17.255 13.761 14.953 C 13.749 12.846,13.743 12.640,13.689 12.531 C 13.619 12.386,13.415 12.182,13.246 12.087 L 13.122 12.017 12.832 10.600 C 12.673 9.821,12.532 9.135,12.519 9.075 L 12.495 8.967 14.234 8.967 C 15.612 8.967,15.971 8.975,15.958 9.008 C 15.950 9.031,15.819 9.702,15.666 10.500 C 15.500 11.373,15.370 11.973,15.340 12.008 C 15.312 12.040,15.225 12.104,15.146 12.150 C 14.995 12.239,14.840 12.437,14.768 12.633 C 14.735 12.723,14.721 13.269,14.708 14.955 L 14.692 17.160 14.776 17.342 C 14.884 17.580,15.071 17.784,15.281 17.893 C 15.504 18.010,15.872 18.018,16.100 17.912 C 16.276 17.830,16.507 17.605,16.587 17.438 C 16.671 17.261,16.696 16.752,16.698 15.203 L 16.700 13.823 16.880 13.634 C 16.991 13.518,17.075 13.395,17.097 13.314 C 17.146 13.140,17.659 10.609,17.870 9.500 C 18.053 8.537,18.058 8.414,17.931 8.042 C 17.798 7.653,17.534 7.370,17.109 7.160 C 16.927 7.071,16.847 7.054,16.508 7.031 C 16.037 6.999,12.344 7.001,11.909 7.033 " fill="#1A1C1F" stroke="none" fill-rule="evenodd"></path></svg>