<svg width="20" height="20" viewBox="0 0 20 20" fill="none" xmlns="http://www.w3.org/2000/svg"><path d="M13.683 2.036 C 12.828 2.105,11.904 2.490,11.343 3.011 L 11.236 3.110 10.893 3.073 C 10.222 3.000,10.029 2.995,9.467 3.034 L 8.899 3.074 8.758 2.959 C 8.325 2.609,7.719 2.293,7.200 2.148 C 6.927 2.072,6.798 2.057,6.269 2.042 C 5.439 2.019,5.017 2.099,4.378 2.403 C 2.559 3.268,1.610 5.316,2.156 7.200 C 2.322 7.773,2.567 8.263,2.900 8.687 L 3.071 8.904 3.036 9.258 C 2.990 9.707,2.990 10.339,3.035 10.694 L 3.069 10.970 2.890 11.177 C 1.941 12.271,1.739 13.774,2.370 15.042 C 2.559 15.423,2.747 15.684,3.048 15.984 C 4.219 17.152,6.044 17.324,7.446 16.398 L 7.799 16.165 8.008 16.270 C 8.123 16.328,8.399 16.479,8.622 16.605 C 9.017 16.828,9.030 16.839,9.081 16.992 C 9.198 17.344,9.605 17.751,9.992 17.905 C 10.264 18.013,10.736 18.013,11.008 17.905 C 11.692 17.633,12.103 16.915,11.968 16.227 C 11.811 15.427,11.076 14.924,10.232 15.037 L 9.977 15.072 9.497 14.804 C 8.811 14.422,8.879 14.515,8.945 14.046 C 8.976 13.828,9.001 13.506,9.000 13.330 L 9.000 13.009 9.184 12.988 C 9.285 12.976,9.512 12.920,9.688 12.863 L 10.008 12.761 10.367 12.881 C 10.788 13.020,11.048 13.035,11.364 12.937 C 11.905 12.768,12.320 12.286,12.251 11.906 C 12.220 11.739,12.088 11.520,11.957 11.420 C 11.766 11.274,11.684 11.259,11.306 11.300 C 10.895 11.344,10.817 11.315,10.782 11.109 C 10.724 10.762,10.662 10.617,10.503 10.464 C 10.390 10.355,10.307 10.304,10.214 10.289 C 9.968 10.248,9.816 10.265,9.639 10.353 C 9.436 10.455,9.322 10.621,9.266 10.901 C 9.216 11.148,9.168 11.263,9.101 11.300 C 9.067 11.318,8.881 11.317,8.635 11.299 L 8.226 11.268 7.997 11.052 C 7.217 10.316,6.220 9.938,5.271 10.017 L 4.990 10.040 5.011 9.745 C 5.032 9.454,5.104 9.017,5.222 8.470 L 5.283 8.190 5.083 8.022 C 4.276 7.340,4.032 6.898,4.034 6.118 C 4.035 5.692,4.066 5.530,4.201 5.247 C 4.508 4.606,5.102 4.152,5.783 4.041 C 6.058 3.996,6.122 3.996,6.398 4.043 C 6.759 4.104,7.139 4.273,7.463 4.518 C 7.660 4.667,7.986 5.036,8.118 5.261 L 8.175 5.356 8.524 5.245 C 9.061 5.075,9.340 5.033,9.948 5.033 C 10.553 5.033,10.887 5.079,11.501 5.248 L 11.896 5.356 12.015 5.183 C 12.294 4.778,12.900 4.280,13.291 4.133 C 14.007 3.865,14.875 4.067,15.418 4.628 C 15.875 5.101,16.080 5.764,15.954 6.367 C 15.837 6.921,15.537 7.346,14.942 7.795 C 14.790 7.910,14.667 8.024,14.667 8.049 C 14.667 8.075,14.712 8.271,14.767 8.486 C 14.930 9.118,14.967 9.394,14.967 9.996 C 14.966 10.913,14.832 11.482,14.430 12.271 C 14.188 12.746,13.950 13.076,13.514 13.541 C 13.113 13.968,13.034 14.122,13.034 14.476 C 13.033 14.685,13.049 14.766,13.114 14.893 C 13.294 15.244,13.625 15.448,14.017 15.448 C 14.331 15.448,14.484 15.373,14.828 15.049 C 15.939 14.003,16.639 12.665,16.922 11.049 C 16.993 10.643,17.003 9.426,16.938 9.026 L 16.896 8.768 17.077 8.543 C 17.615 7.873,17.875 7.262,17.967 6.450 C 18.143 4.891,17.398 3.387,16.049 2.581 C 15.324 2.147,14.539 1.966,13.683 2.036 M7.283 7.529 C 6.990 7.607,6.707 7.837,6.588 8.097 C 6.487 8.318,6.489 8.695,6.594 8.906 C 6.774 9.272,7.098 9.482,7.483 9.481 C 7.789 9.481,8.009 9.384,8.227 9.154 C 8.593 8.767,8.585 8.209,8.208 7.818 C 7.988 7.591,7.560 7.457,7.283 7.529 M12.283 7.529 C 11.990 7.607,11.707 7.837,11.588 8.097 C 11.487 8.318,11.489 8.695,11.594 8.906 C 11.774 9.272,12.098 9.482,12.483 9.481 C 12.789 9.481,13.009 9.384,13.227 9.154 C 13.593 8.767,13.585 8.209,13.208 7.818 C 12.988 7.591,12.560 7.457,12.283 7.529 M5.809 12.049 C 6.406 12.175,6.860 12.657,6.968 13.275 C 7.091 13.986,6.629 14.711,5.910 14.933 C 5.493 15.062,5.060 14.990,4.668 14.729 C 4.197 14.415,3.939 13.824,4.031 13.275 C 4.151 12.564,4.764 12.027,5.483 12.004 C 5.538 12.003,5.685 12.023,5.809 12.049 " fill="#1A1C1F" stroke="none" fill-rule="evenodd"></path></svg>