<svg xmlns="http://www.w3.org/2000/svg" width="32" height="32" fill="none"><path fill="#1A1C1F" fill-rule="evenodd" d="M8.871 2.106a5.91 5.91 0 0 0-4.114 3.007C4.305 5.962 4 7.205 4 8.2c0 1.41.608 2.822 1.718 3.991l.363.383-.056.646c-.057.656-.002 1.878.111 2.474.085.448.087.445-.308.573a5.513 5.513 0 0 0-3.373 7.424c.193.456.639 1.14 1.007 1.547.614.678 1.608 1.278 2.591 1.566.655.191 1.768.239 2.43.106a5.6 5.6 0 0 0 1.418-.468c.187-.091.347-.156.356-.144l.43.512.413.489-.063.321c-.271 1.377.983 2.615 2.357 2.329a2 2 0 0 0 1.424-1.14c.123-.261.142-.372.142-.809s-.019-.548-.142-.809a2.1 2.1 0 0 0-.911-.954c-.288-.154-.398-.181-.801-.201l-.468-.022-.426-.495c-.234-.272-.425-.509-.425-.526s.111-.194.248-.392a5.48 5.48 0 0 0 .066-6.099 5.53 5.53 0 0 0-3.368-2.352 10 10 0 0 1-.508-.124 5 5 0 0 1-.103-.485c-.122-.648-.121-2.248 0-2.981l.119-.72c.029-.181.018-.194-.317-.418a5.2 5.2 0 0 1-1.317-1.33c-.463-.709-.611-1.287-.567-2.214a3.9 3.9 0 0 1 .528-1.851c.262-.474.982-1.215 1.441-1.484a4.1 4.1 0 0 1 2.299-.523c1.078.075 1.715.38 2.611 1.252l.466.453.494-.168c1.113-.378 2.058-.543 3.109-.543 1.134-.001 1.802.113 3.046.518l.594.194.34-.345c.977-.992 2.027-1.432 3.245-1.359.618.036.953.123 1.515.394 1.979.951 2.827 3.367 1.871 5.326-.337.689-.908 1.309-1.656 1.798l-.217.141.106.546c.087.445.107.775.109 1.773.002 1.085-.011 1.291-.119 1.787-.392 1.803-1.191 3.271-2.484 4.564-1.293 1.292-2.726 2.071-4.567 2.482-.502.112-.7.125-1.971.131-.777.004-1.455.01-1.507.015-.15.013-.508.372-.576.577-.1.303-.04.724.135.953.229.301.499.392 1.364.462 1.888.154 3.962-.26 5.725-1.143 1.635-.818 3.138-2.149 4.202-3.721.957-1.415 1.626-3.274 1.801-5.006.065-.64.069-1.63.009-2.168l-.042-.373.318-.32c1.153-1.159 1.759-2.619 1.759-4.24a5.94 5.94 0 0 0-3.295-5.346c-.886-.448-1.662-.627-2.72-.627-1.34 0-2.242.281-3.38 1.052l-.509.345-.456-.11c-.806-.195-1.678-.289-2.668-.289-1.032 0-1.539.054-2.455.262l-.614.139-.399-.286c-.741-.531-1.52-.874-2.346-1.03-.532-.101-1.729-.103-2.275-.004m3.456 8.474a1.6 1.6 0 0 0-.393.244c-.56.471-.559 1.406.004 1.871.568.469 1.358.381 1.802-.201.391-.512.334-1.163-.141-1.624-.359-.348-.821-.453-1.272-.29m8.98.006c-.325.114-.697.545-.776.898-.054.24-.05.332.024.587.25.861 1.221 1.199 1.943.675.41-.296.61-.994.417-1.454a1.294 1.294 0 0 0-1.608-.706m-5.655 4.449a.8.8 0 0 0-.556.453c-.14.289-.138.434.011.724.167.328.346.443.732.471l.321.023v.446c0 .507-.03.547-.514.693-.382.115-.581.054-.897-.273-.334-.346-.435-.399-.764-.399a.805.805 0 0 0-.821.821c0 .268.055.391.318.713.736.903 2.043 1.153 3.125.599.402-.206.426-.212.551-.13.21.137.783.336 1.129.392.764.123 1.569-.167 2.131-.767.196-.21.349-.429.387-.555a.833.833 0 0 0-.816-1.072c-.27 0-.496.125-.765.421-.319.354-.623.394-1.131.147l-.226-.11v-.939h.258q.454 0 .745-.428c.104-.152.122-.235.104-.467-.026-.321-.148-.518-.42-.678-.166-.098-.287-.107-1.461-.116-.704-.005-1.352.008-1.441.031m-7.233 3.1c.215.059.506.167.648.238l.257.131-.103.272c-.629 1.653-2.165 3.094-4.097 3.84a7 7 0 0 1-.681.234l-.171.037-.123-.39c-.171-.545-.172-1.451-.002-1.99.373-1.182 1.349-2.117 2.5-2.396.481-.116 1.306-.105 1.772.024m2.494 2.615c.109.512.073 1.327-.08 1.81-.524 1.654-2.288 2.712-3.968 2.38-.393-.078-1.052-.329-1.052-.401 0-.019.234-.135.52-.259 1.726-.749 3.435-2.239 4.242-3.698.094-.17.19-.291.212-.269.023.022.079.219.126.437"/></svg>