<svg xmlns="http://www.w3.org/2000/svg" width="24" height="24" fill="none"><g clip-path="url(#a)"><path fill="#1A1C1F" fill-rule="evenodd" d="M18 2a4.5 4.5 0 0 1 3.357 7.494q.143.758.143 1.506a8 8 0 0 1-5.2 7.496 1 1 0 1 1-.7-1.873A6 6 0 0 0 19.5 11c0-.428 0-1-.372-2.18C20.181 8 20.5 7.246 20.5 6.5A2.5 2.5 0 0 0 18 4c-.684 0-1.555.26-2.318 1.372C14.736 5.128 14.5 5 13.5 5q-1 0-2.18.372Q10.39 4 9 4a2.5 2.5 0 0 0-2.5 2.5c0 .613.147 1.382 1.372 2.318a6.2 6.2 0 0 0-.307 1.296 5.01 5.01 0 0 1 3.63 3.163q.18.045.335.193c.39.39.859.343 1.083.053a.87.87 0 0 0 .132-.41v-.363H12.5a.75.75 0 0 1 0-1.5q1-.003 2 0a.75.75 0 0 1 .75.75c0 .226-.182.75-.75.75h-.246v.364a.86.86 0 0 0 .147.43c.21.25.776.219 1.069-.074a.75.75 0 1 1 1.06 1.06c-.901.902-2.19.97-3.03.245-.56.512-1.337.61-2.004.395q-.058 1.238-.592 2.199l.905.754a2 2 0 1 1-1.28 1.538l-.906-.756a5 5 0 1 1-4.072-8.815c.02-.166.053-.385.092-.596C5.007 8.818 4.5 7.706 4.5 6.5A4.5 4.5 0 0 1 9 2c1.09 0 2.098.344 2.994 1.142A9 9 0 0 1 13.5 3c.475 0 .996.039 1.505.143C15.875 2.392 16.873 2 18 2m-1.5 6a1 1 0 1 1 0 2 1 1 0 0 1 0-2m-6 0a1 1 0 1 1 0 2 1 1 0 0 1 0-2m-4 4a3 3 0 1 0 0 6 3 3 0 0 0 0-6" clip-rule="evenodd"/></g><defs><clipPath id="a"><path fill="#fff" d="M0 0h24v24H0z"/></clipPath></defs></svg>