<svg xmlns="http://www.w3.org/2000/svg" width="32" height="32" fill="none"><g clip-path="url(#a)"><path fill="#1A1C1F" fill-rule="evenodd" d="M24 2a6 6 0 0 1 6 6c0 1.742-.739 3.39-2.097 4.555q.094.69.097 1.445c0 6.075-4.925 11-11 11q-.752 0-1.489-.1a1 1 0 0 1 .268-1.982Q16.383 23 17 23a9 9 0 0 0 9-9c0-.458-.052-1.332-.281-2.328C27.395 10.714 28 9.336 28 8a4 4 0 0 0-4-4c-1.041 0-2.183.34-3.363 1.739C18.923 5.099 18.043 5 17 5c-.912 0-1.918.093-3.636.738C12.176 4.308 11.12 4 10 4 7.79 4 6.08 5.792 6 8c-.082 2.275 1.966 3.466 2.28 3.67C8.228 11.923 8 13 8 14s.092 1.35.207 2.045a5.5 5.5 0 0 1 3.55 8.937l.888 1.05Q12.818 26 13 26a2 2 0 1 1-1.883 1.324l-.886-1.049a5.5 5.5 0 1 1-4.02-10.123A12.6 12.6 0 0 1 6 14c0-.754.04-.947.096-1.446-.76-.643-2.087-2.217-2.09-4.294C4 4.56 6.686 2 10 2c1.398 0 2.645.417 3.902 1.444Q15.292 3 17 3c.99 0 2.32.175 3.097.444C21.348 2.418 22.561 2 24 2m-5.85 13a.85.85 0 0 1 0 1.7h-.3l.001.9c.287.207.547.3.785.3.263 0 .467-.112.677-.4a.85.85 0 1 1 1.374 1c-.518.712-1.223 1.1-2.05 1.1-.52 0-1.1-.171-1.637-.525-.505.33-.808.525-1.636.525s-1.533-.388-2.051-1.1a.85.85 0 1 1 1.374-1c.21.288.414.4.677.4.238 0 .498-.093.786-.3v-.9h-.3a.85.85 0 0 1 0-1.7zm-5.4-4.5a1.25 1.25 0 1 1 0 2.5 1.25 1.25 0 0 1 0-2.5m9 0a1.25 1.25 0 1 1 0 2.5 1.25 1.25 0 0 1 0-2.5m-10.984 9.74-.106.202c-1.004 1.828-2.808 3.295-4.916 4.087a3.5 3.5 0 0 0 5.023-4.29M7.5 18a3.5 3.5 0 0 0-3.21 4.899c2.366-.64 4.375-2.327 5.007-4.326l.024-.062A3.5 3.5 0 0 0 7.5 18" clip-rule="evenodd"/></g><defs><clipPath id="a"><path fill="#fff" d="M0 0h32v32H0z"/></clipPath></defs></svg>