<svg width="12" height="12" viewBox="0 0 12 12" fill="none" xmlns="http://www.w3.org/2000/svg"><path d="M3.350 1.222 C 2.982 1.272,2.546 1.444,2.247 1.656 C 1.771 1.995,1.428 2.489,1.282 3.047 C 1.085 3.799,1.261 4.622,1.746 5.222 L 1.844 5.343 1.822 5.557 C 1.794 5.824,1.794 6.200,1.821 6.416 L 1.841 6.582 1.739 6.696 C 1.513 6.949,1.350 7.259,1.258 7.610 C 1.190 7.870,1.190 8.330,1.257 8.588 C 1.504 9.527,2.262 10.151,3.210 10.194 C 3.685 10.215,4.174 10.070,4.530 9.800 C 4.603 9.745,4.671 9.700,4.682 9.700 C 4.705 9.700,5.298 10.025,5.385 10.085 C 5.415 10.106,5.440 10.136,5.440 10.153 C 5.440 10.227,5.556 10.419,5.669 10.531 C 6.028 10.891,6.572 10.891,6.931 10.531 C 7.106 10.356,7.200 10.137,7.200 9.900 C 7.200 9.349,6.698 8.928,6.146 9.018 L 5.990 9.043 5.660 8.859 C 5.479 8.758,5.329 8.674,5.328 8.673 C 5.326 8.671,5.343 8.571,5.364 8.450 C 5.392 8.294,5.400 8.168,5.395 8.017 L 5.387 7.805 5.505 7.794 C 5.570 7.788,5.711 7.755,5.819 7.719 L 6.016 7.655 6.153 7.707 C 6.473 7.827,6.698 7.833,6.927 7.725 C 7.122 7.633,7.305 7.447,7.339 7.306 C 7.388 7.099,7.286 6.893,7.082 6.790 C 7.013 6.756,6.939 6.756,6.654 6.792 C 6.518 6.809,6.470 6.762,6.453 6.594 C 6.436 6.433,6.370 6.306,6.262 6.230 C 6.189 6.178,6.156 6.169,6.023 6.164 C 5.892 6.158,5.857 6.164,5.780 6.205 C 5.648 6.275,5.582 6.381,5.553 6.569 C 5.522 6.770,5.479 6.812,5.330 6.788 C 5.275 6.779,5.163 6.770,5.080 6.768 L 4.930 6.764 4.778 6.614 C 4.356 6.195,3.762 5.969,3.185 6.007 L 3.000 6.019 3.000 5.914 C 3.000 5.772,3.048 5.458,3.113 5.180 C 3.142 5.054,3.167 4.940,3.168 4.928 C 3.169 4.916,3.084 4.836,2.980 4.751 C 2.674 4.501,2.546 4.326,2.457 4.040 C 2.397 3.848,2.393 3.515,2.448 3.330 C 2.572 2.915,2.913 2.571,3.319 2.452 C 3.876 2.288,4.492 2.559,4.850 3.125 L 4.906 3.213 5.116 3.147 C 5.472 3.034,5.616 3.011,5.970 3.011 C 6.325 3.012,6.499 3.037,6.894 3.146 L 7.138 3.213 7.214 3.102 C 7.402 2.827,7.749 2.550,8.018 2.460 C 8.434 2.321,8.932 2.446,9.250 2.768 C 9.705 3.230,9.715 3.939,9.272 4.412 C 9.201 4.488,9.062 4.609,8.962 4.680 C 8.838 4.770,8.785 4.819,8.792 4.840 C 8.823 4.923,8.924 5.332,8.954 5.490 C 9.000 5.734,9.000 6.264,8.955 6.510 C 8.897 6.822,8.824 7.041,8.680 7.330 C 8.518 7.654,8.362 7.870,8.090 8.147 C 7.886 8.355,7.831 8.447,7.808 8.617 C 7.782 8.819,7.899 9.064,8.074 9.176 C 8.252 9.289,8.423 9.308,8.614 9.237 C 8.706 9.202,8.770 9.154,8.937 8.992 C 9.655 8.294,10.077 7.412,10.181 6.390 C 10.207 6.132,10.198 5.678,10.160 5.416 L 10.138 5.261 10.274 5.093 C 10.614 4.673,10.773 4.244,10.794 3.690 C 10.839 2.517,10.036 1.494,8.877 1.249 C 8.290 1.125,7.595 1.262,7.062 1.607 C 6.984 1.658,6.879 1.737,6.830 1.782 L 6.740 1.865 6.564 1.843 C 6.236 1.801,5.967 1.794,5.656 1.819 L 5.350 1.845 5.160 1.702 C 4.862 1.478,4.524 1.324,4.170 1.250 C 3.977 1.210,3.543 1.195,3.350 1.222 M4.307 4.536 C 3.885 4.687,3.765 5.206,4.079 5.521 C 4.527 5.969,5.282 5.487,5.060 4.894 C 4.947 4.592,4.605 4.429,4.307 4.536 M7.307 4.536 C 6.885 4.687,6.765 5.206,7.079 5.521 C 7.527 5.969,8.282 5.487,8.060 4.894 C 7.947 4.592,7.605 4.429,7.307 4.536 M3.484 7.223 C 3.948 7.321,4.263 7.780,4.184 8.243 C 4.109 8.678,3.733 9.000,3.300 9.000 C 2.867 9.000,2.491 8.678,2.416 8.243 C 2.311 7.631,2.874 7.093,3.484 7.223 " fill="#1A1C1F" stroke="none" fill-rule="evenodd"></path></svg>