<svg width="12" height="12" viewBox="0 0 12 12" fill="none" xmlns="http://www.w3.org/2000/svg"><path d="M8.180 1.221 C 7.670 1.274,7.132 1.503,6.806 1.807 L 6.742 1.866 6.536 1.844 C 6.134 1.800,6.018 1.797,5.684 1.820 L 5.346 1.844 5.168 1.711 C 4.854 1.478,4.440 1.295,4.100 1.241 C 3.898 1.209,3.383 1.215,3.204 1.252 C 2.886 1.317,2.542 1.460,2.270 1.643 C 2.073 1.774,1.781 2.064,1.644 2.265 C 1.038 3.149,1.061 4.307,1.701 5.158 L 1.842 5.347 1.821 5.557 C 1.794 5.824,1.794 6.204,1.821 6.417 L 1.842 6.582 1.748 6.686 C 1.456 7.011,1.260 7.452,1.216 7.884 C 1.114 8.889,1.744 9.832,2.700 10.107 C 3.319 10.285,3.933 10.192,4.467 9.839 L 4.679 9.699 4.805 9.762 C 4.874 9.797,5.040 9.887,5.173 9.963 C 5.410 10.097,5.418 10.103,5.449 10.195 C 5.519 10.406,5.763 10.651,5.995 10.743 C 6.158 10.808,6.442 10.808,6.605 10.743 C 7.018 10.579,7.275 10.121,7.180 9.717 C 7.068 9.243,6.637 8.955,6.139 9.023 L 5.985 9.043 5.678 8.870 C 5.508 8.775,5.362 8.689,5.352 8.680 C 5.342 8.670,5.349 8.560,5.369 8.416 C 5.388 8.278,5.400 8.090,5.397 7.987 L 5.390 7.805 5.503 7.793 C 5.565 7.786,5.704 7.753,5.811 7.719 L 6.005 7.657 6.197 7.720 C 6.457 7.806,6.632 7.818,6.817 7.762 C 7.071 7.685,7.316 7.455,7.347 7.265 C 7.367 7.138,7.312 6.985,7.209 6.886 C 7.091 6.773,7.013 6.754,6.770 6.781 C 6.539 6.807,6.490 6.788,6.469 6.665 C 6.423 6.388,6.310 6.216,6.150 6.179 C 5.840 6.108,5.619 6.243,5.559 6.540 C 5.530 6.689,5.501 6.758,5.460 6.780 C 5.439 6.791,5.330 6.791,5.178 6.778 L 4.930 6.758 4.820 6.651 C 4.547 6.386,4.177 6.166,3.860 6.081 C 3.641 6.023,3.358 5.994,3.163 6.010 L 2.994 6.024 3.006 5.847 C 3.019 5.673,3.062 5.410,3.133 5.083 L 3.169 4.916 3.050 4.814 C 2.698 4.516,2.521 4.278,2.451 4.009 C 2.415 3.873,2.410 3.497,2.442 3.361 C 2.517 3.035,2.801 2.693,3.134 2.529 C 3.704 2.247,4.407 2.478,4.819 3.082 L 4.909 3.213 5.119 3.146 C 5.445 3.044,5.606 3.020,5.969 3.020 C 6.332 3.020,6.532 3.048,6.901 3.149 L 7.138 3.214 7.210 3.108 C 7.377 2.866,7.715 2.586,7.959 2.487 C 8.386 2.315,8.919 2.434,9.251 2.777 C 9.606 3.144,9.691 3.653,9.473 4.109 C 9.379 4.306,9.259 4.445,9.012 4.639 C 8.896 4.731,8.800 4.818,8.800 4.832 C 8.800 4.846,8.827 4.963,8.860 5.092 C 8.958 5.471,8.980 5.636,8.980 5.999 C 8.980 6.543,8.897 6.893,8.658 7.363 C 8.514 7.646,8.371 7.843,8.110 8.124 C 7.999 8.244,7.895 8.376,7.864 8.440 C 7.728 8.717,7.854 9.062,8.149 9.216 C 8.288 9.289,8.505 9.292,8.645 9.223 C 8.766 9.164,9.016 8.929,9.224 8.681 C 9.715 8.095,10.011 7.441,10.153 6.629 C 10.196 6.386,10.202 5.656,10.163 5.416 L 10.137 5.261 10.246 5.126 C 10.489 4.824,10.624 4.568,10.709 4.254 C 10.895 3.559,10.774 2.828,10.377 2.245 C 10.172 1.946,9.795 1.617,9.470 1.454 C 9.089 1.264,8.605 1.176,8.180 1.221 M4.370 4.518 C 4.194 4.564,4.024 4.702,3.953 4.858 C 3.892 4.991,3.894 5.217,3.956 5.344 C 4.064 5.563,4.259 5.689,4.490 5.689 C 4.674 5.688,4.805 5.630,4.936 5.492 C 5.156 5.260,5.151 4.925,4.925 4.691 C 4.793 4.554,4.536 4.474,4.370 4.518 M7.370 4.518 C 7.194 4.564,7.024 4.702,6.953 4.858 C 6.892 4.991,6.894 5.217,6.956 5.344 C 7.064 5.563,7.259 5.689,7.490 5.689 C 7.674 5.688,7.805 5.630,7.936 5.492 C 8.156 5.260,8.151 4.925,7.925 4.691 C 7.793 4.554,7.536 4.474,7.370 4.518 M3.486 7.229 C 3.843 7.305,4.116 7.594,4.181 7.965 C 4.255 8.393,3.979 8.826,3.546 8.960 C 2.939 9.147,2.319 8.602,2.418 7.967 C 2.473 7.608,2.755 7.306,3.105 7.230 C 3.268 7.195,3.322 7.195,3.486 7.229 " fill="#1A1C1F" stroke="none" fill-rule="evenodd"></path></svg>