<svg xmlns="http://www.w3.org/2000/svg" width="28" height="28" fill="none"><g clip-path="url(#a)"><path fill="#1A1C1F" fill-rule="evenodd" d="M21 1.75c2.9 0 5.25 2.35 5.25 5.25a5.21 5.21 0 0 1-1.835 3.986q.083.603.085 1.264a9.625 9.625 0 0 1-10.928 9.538.875.875 0 0 1 .235-1.735 7.875 7.875 0 0 0 8.943-7.803c0-.4-.045-1.166-.246-2.037C23.97 9.375 24.5 8.169 24.5 7A3.5 3.5 0 0 0 21 3.5c-.91 0-1.91.298-2.943 1.521-1.5-.56-2.27-.646-3.182-.646-.798 0-1.679.082-3.182.646C10.654 3.769 9.73 3.5 8.75 3.5c-1.933 0-3.43 1.568-3.5 3.5-.072 1.991 1.72 3.033 1.995 3.21C7.2 10.433 7 11.375 7 12.25s.08 1.18.181 1.79a4.813 4.813 0 0 1 3.107 7.819l.776.918q.152-.027.311-.027a1.75 1.75 0 1 1-1.647 1.158l-.776-.917a4.812 4.812 0 1 1-3.517-8.858 11 11 0 0 1-.185-1.883c0-.66.034-.828.084-1.265-.665-.563-1.826-1.94-1.83-3.757C3.5 3.99 5.852 1.75 8.75 1.75c1.223 0 2.314.365 3.414 1.264q1.216-.39 2.711-.389c.866 0 2.03.153 2.71.389C18.68 2.116 19.74 1.75 21 1.75m-5.119 11.375a.744.744 0 0 1 0 1.488h-.262v.787c.252.181.48.262.688.262.23 0 .408-.098.591-.35a.744.744 0 0 1 1.204.876c-.454.623-1.07.962-1.795.962-.454 0-.962-.15-1.432-.46-.442.289-.707.46-1.432.46-.724 0-1.341-.34-1.794-.962a.744.744 0 0 1 1.203-.875c.183.251.361.35.591.35.209 0 .437-.082.688-.263v-.787h-.262a.744.744 0 0 1 0-1.488zm-4.725-3.937a1.094 1.094 0 1 1 0 2.187 1.094 1.094 0 0 1 0-2.187m7.875 0a1.094 1.094 0 1 1 0 2.187 1.094 1.094 0 0 1 0-2.187m-9.61 8.522-.094.177c-.878 1.6-2.457 2.883-4.301 3.576A3.062 3.062 0 0 0 9.42 17.71m-2.858-1.96a3.062 3.062 0 0 0-2.809 4.287c2.07-.56 3.828-2.037 4.38-3.785l.022-.055a3.05 3.05 0 0 0-1.594-.447" clip-rule="evenodd"/></g><defs><clipPath id="a"><path fill="#fff" d="M0 0h28v28H0z"/></clipPath></defs></svg>