<svg xmlns="http://www.w3.org/2000/svg" width="20" height="20" fill="none"><g clip-path="url(#a)"><path fill="#1A1C1F" fill-rule="evenodd" d="M14 2a4 4 0 0 1 4 4c0 .98-.298 1.888-1.11 2.765q.093.488.11 1.235c0 2.013-.855 3.89-2.323 5.21a1 1 0 0 1-1.337-1.489A4.98 4.98 0 0 0 15 10c0-.363-.03-.924-.361-1.983q.254-.176.551-.41c.507-.375.81-.965.81-1.607 0-1.105-.895-1.98-2-2q-1.18-.021-2.114 1.359Q10.79 4.999 10 5c-.789 0-1.176.142-1.816.359C7.581 4.353 6.78 4 6.125 4a2.125 2.125 0 0 0-1.459 3.669q.378.314.63.513-.341 1.29-.295 1.853.245-.035.5-.035c1.099 0 2.08.507 2.722 1.3a.7.7 0 0 1 .395-.042l.206.054c.274.062.398-.028.422-.23l.012-.202c.11-.84 1.375-.84 1.485 0l.012.202c.022.18.128.26.304.26q.067 0 .272-.074c.715-.176 1.25.725.693 1.269-.516.504-1.025.572-1.607.371L10 12.75c-.468.213-.87.264-1.035.263.072.447.035.84-.095 1.437l1.14.632a1.5 1.5 0 1 1-.972 1.75l-1.243-.69a3.5 3.5 0 0 1-4.725-5.161A7 7 0 0 1 3 10c0-.342.022-.712.086-1.089C2.47 8.251 1.98 7.189 2 6.125A4.125 4.125 0 0 1 6.125 2c1.03 0 1.957.35 2.787 1.085C9.378 3.027 9.621 3 10 3s.697.029 1.234.11C11.88 2.432 13.034 2 14 2M7.5 7.5a1 1 0 1 1 0 2 1 1 0 0 1 0-2m5 0a1 1 0 1 1 0 2 1 1 0 0 1 0-2m-7 4.5a1.5 1.5 0 1 0 0 3 1.5 1.5 0 0 0 0-3" clip-rule="evenodd"/></g><defs><clipPath id="a"><path fill="#fff" d="M0 0h20v20H0z"/></clipPath></defs></svg>