<svg width="24" height="24" viewBox="0 0 24 24" fill="none" xmlns="http://www.w3.org/2000/svg"><path d="M8.424 2.043 C 6.841 2.262,5.443 3.330,4.860 4.767 C 4.616 5.369,4.552 5.678,4.531 6.360 C 4.516 6.876,4.526 7.043,4.592 7.360 C 4.743 8.080,5.040 8.730,5.478 9.298 L 5.637 9.504 5.588 9.798 L 5.539 10.092 5.199 10.183 C 3.827 10.549,2.647 11.527,2.018 12.818 C 1.652 13.571,1.511 14.183,1.511 15.020 C 1.513 17.856,3.925 20.137,6.762 19.986 C 7.722 19.935,8.540 19.639,9.525 18.987 L 9.631 18.917 10.075 19.283 L 10.520 19.650 10.520 19.981 C 10.520 20.877,11.024 21.593,11.858 21.879 C 12.713 22.174,13.637 21.857,14.169 21.087 C 14.355 20.816,14.451 20.504,14.471 20.096 C 14.501 19.482,14.299 18.976,13.855 18.561 C 13.375 18.112,12.870 17.956,12.169 18.042 C 11.780 18.089,11.753 18.088,11.669 18.014 C 11.091 17.509,10.960 17.387,10.960 17.352 C 10.960 17.329,11.023 17.142,11.101 16.934 C 11.299 16.405,11.435 15.873,11.466 15.507 L 11.492 15.195 11.656 15.225 C 11.746 15.241,11.992 15.252,12.203 15.250 C 12.630 15.245,12.907 15.169,13.242 14.962 C 13.352 14.895,13.471 14.840,13.507 14.840 C 13.543 14.840,13.656 14.893,13.756 14.957 C 14.270 15.284,14.956 15.350,15.551 15.128 C 16.154 14.904,16.633 14.515,16.727 14.175 C 16.851 13.724,16.487 13.279,15.996 13.281 C 15.811 13.281,15.736 13.308,15.480 13.462 C 15.003 13.749,14.702 13.788,14.489 13.592 C 14.357 13.469,14.292 13.307,14.258 13.014 L 14.231 12.772 14.482 12.749 C 14.795 12.721,15.021 12.576,15.150 12.321 C 15.322 11.981,15.241 11.654,14.923 11.410 L 14.754 11.280 13.503 11.280 L 12.252 11.280 12.083 11.402 C 11.787 11.617,11.688 11.977,11.835 12.302 C 11.968 12.593,12.251 12.759,12.615 12.760 L 12.770 12.760 12.742 13.008 C 12.706 13.327,12.642 13.478,12.484 13.610 C 12.220 13.833,11.905 13.774,11.447 13.419 C 11.220 13.243,11.170 13.175,10.958 12.761 C 10.685 12.230,10.478 11.940,10.070 11.524 C 9.510 10.951,8.788 10.504,8.000 10.242 C 7.791 10.172,7.607 10.103,7.592 10.088 C 7.563 10.059,7.713 9.314,7.811 8.996 L 7.868 8.813 7.609 8.597 C 7.162 8.224,6.812 7.755,6.644 7.303 C 6.536 7.013,6.494 6.411,6.555 6.040 C 6.581 5.879,6.669 5.636,6.784 5.403 C 7.037 4.891,7.406 4.516,7.884 4.286 C 8.359 4.058,8.514 4.028,9.130 4.048 C 9.578 4.062,9.697 4.080,9.900 4.164 C 10.334 4.343,10.711 4.636,11.141 5.129 L 11.340 5.358 11.721 5.260 C 12.542 5.050,13.454 4.965,14.100 5.037 C 14.320 5.062,14.767 5.146,15.094 5.224 L 15.689 5.365 15.752 5.273 C 15.895 5.064,16.397 4.582,16.641 4.420 C 17.079 4.128,17.266 4.072,17.868 4.049 C 18.483 4.026,18.637 4.056,19.116 4.286 C 19.594 4.516,19.963 4.891,20.216 5.403 C 20.437 5.850,20.497 6.153,20.465 6.665 C 20.422 7.360,20.124 7.910,19.445 8.545 L 19.141 8.830 19.271 9.365 C 19.456 10.122,19.492 10.477,19.461 11.200 C 19.429 11.939,19.366 12.329,19.196 12.840 C 18.847 13.890,18.276 14.751,17.416 15.523 C 16.988 15.906,16.602 16.157,15.960 16.467 C 15.288 16.791,15.176 16.875,15.050 17.150 C 14.865 17.556,14.991 18.076,15.339 18.342 C 15.489 18.457,15.787 18.560,15.968 18.560 C 16.283 18.560,17.244 18.116,17.944 17.646 C 19.991 16.274,21.303 14.004,21.475 11.537 C 21.513 10.995,21.512 10.962,21.436 10.052 L 21.389 9.483 21.628 9.132 C 21.964 8.637,22.094 8.391,22.234 7.993 C 22.411 7.487,22.480 7.064,22.479 6.486 C 22.478 4.665,21.438 3.106,19.729 2.363 C 19.087 2.084,18.337 1.971,17.582 2.041 C 16.773 2.117,16.114 2.367,15.349 2.890 L 14.999 3.130 14.609 3.080 C 14.117 3.016,12.854 3.023,12.375 3.092 L 12.009 3.144 11.695 2.914 C 11.125 2.497,10.552 2.239,9.888 2.101 C 9.512 2.023,8.778 1.994,8.424 2.043 M10.190 8.056 C 9.910 8.158,9.659 8.399,9.558 8.665 C 9.432 8.995,9.569 9.499,9.850 9.740 C 10.134 9.982,10.471 10.053,10.805 9.939 C 11.479 9.709,11.694 8.888,11.225 8.333 C 11.012 8.081,10.500 7.944,10.190 8.056 M16.190 8.056 C 15.910 8.158,15.659 8.399,15.558 8.665 C 15.432 8.995,15.569 9.499,15.850 9.740 C 16.134 9.982,16.471 10.053,16.805 9.939 C 17.479 9.709,17.694 8.888,17.225 8.333 C 17.012 8.081,16.500 7.944,16.190 8.056 M6.914 12.059 C 7.272 12.086,7.802 12.277,8.134 12.498 C 8.844 12.970,9.353 13.794,9.451 14.629 C 9.678 16.570,8.075 18.189,6.145 17.968 C 5.080 17.846,4.153 17.133,3.726 16.107 C 3.521 15.616,3.471 14.814,3.607 14.240 C 3.675 13.958,3.929 13.444,4.139 13.168 C 4.660 12.480,5.732 11.956,6.480 12.024 C 6.557 12.031,6.752 12.047,6.914 12.059 " fill="#1A1C1F" stroke="none" fill-rule="evenodd"></path></svg>