<svg width="16" height="16" viewBox="0 0 16 16" fill="none" xmlns="http://www.w3.org/2000/svg"><path d="M10.873 1.628 C 10.260 1.697,9.579 1.979,9.153 2.340 L 8.980 2.487 8.710 2.458 C 8.174 2.400,8.042 2.397,7.585 2.428 L 7.120 2.460 7.007 2.368 C 6.576 2.019,6.015 1.753,5.520 1.664 C 5.407 1.644,5.128 1.628,4.880 1.628 C 4.503 1.627,4.402 1.636,4.173 1.691 C 3.314 1.900,2.625 2.377,2.135 3.102 C 2.087 3.172,1.990 3.352,1.919 3.502 C 1.398 4.592,1.533 5.901,2.268 6.878 L 2.456 7.129 2.428 7.409 C 2.392 7.766,2.392 8.272,2.428 8.555 L 2.455 8.776 2.312 8.941 C 1.553 9.817,1.391 11.019,1.896 12.034 C 2.048 12.340,2.198 12.548,2.439 12.787 C 3.382 13.723,4.835 13.860,5.957 13.119 L 6.239 12.932 6.406 13.016 C 6.498 13.062,6.719 13.183,6.898 13.284 C 7.207 13.459,7.224 13.472,7.263 13.587 C 7.364 13.884,7.680 14.202,7.994 14.322 C 8.822 14.638,9.729 13.889,9.579 13.012 C 9.466 12.355,8.874 11.937,8.186 12.030 L 7.982 12.057 7.598 11.843 C 7.049 11.538,7.103 11.612,7.156 11.237 C 7.181 11.063,7.201 10.805,7.200 10.664 L 7.200 10.407 7.343 10.391 C 7.421 10.381,7.604 10.337,7.749 10.293 L 8.013 10.211 8.297 10.306 C 8.630 10.416,8.840 10.428,9.091 10.349 C 9.524 10.215,9.856 9.829,9.801 9.525 C 9.776 9.391,9.670 9.216,9.566 9.136 C 9.413 9.019,9.348 9.007,9.045 9.040 C 8.716 9.075,8.653 9.052,8.626 8.887 C 8.579 8.610,8.529 8.494,8.402 8.371 C 8.312 8.284,8.246 8.243,8.171 8.231 C 7.974 8.199,7.853 8.212,7.712 8.283 C 7.549 8.364,7.458 8.497,7.413 8.721 C 7.373 8.919,7.335 9.011,7.280 9.040 C 7.252 9.055,7.107 9.054,6.907 9.038 L 6.580 9.011 6.368 8.814 C 5.752 8.242,4.969 7.951,4.217 8.013 L 3.992 8.032 4.009 7.796 C 4.025 7.563,4.083 7.214,4.178 6.777 L 4.226 6.554 4.066 6.419 C 3.597 6.022,3.361 5.704,3.267 5.345 C 3.220 5.165,3.213 4.663,3.255 4.481 C 3.356 4.046,3.735 3.591,4.179 3.371 C 4.939 2.996,5.876 3.304,6.426 4.109 L 6.545 4.283 6.821 4.196 C 7.249 4.060,7.473 4.027,7.958 4.027 C 8.442 4.027,8.710 4.064,9.201 4.198 L 9.517 4.285 9.612 4.146 C 9.835 3.823,10.320 3.424,10.631 3.307 C 11.203 3.093,11.881 3.247,12.320 3.691 C 12.626 4.000,12.781 4.366,12.784 4.786 C 12.786 5.086,12.743 5.262,12.604 5.533 C 12.482 5.770,12.309 5.957,11.951 6.238 C 11.831 6.333,11.733 6.424,11.733 6.442 C 11.733 6.460,11.775 6.635,11.825 6.831 C 11.957 7.348,11.982 7.586,11.965 8.160 C 11.945 8.842,11.860 9.184,11.567 9.773 C 11.374 10.161,11.187 10.425,10.852 10.787 C 10.488 11.178,10.427 11.292,10.427 11.581 C 10.427 11.824,10.490 11.977,10.658 12.139 C 10.888 12.361,11.260 12.429,11.527 12.297 C 11.688 12.218,12.021 11.906,12.299 11.575 C 12.954 10.793,13.348 9.922,13.538 8.839 C 13.595 8.514,13.602 7.541,13.550 7.221 L 13.517 7.015 13.662 6.834 C 14.092 6.299,14.300 5.810,14.374 5.160 C 14.561 3.502,13.461 2.005,11.809 1.670 C 11.550 1.618,11.130 1.599,10.873 1.628 M5.827 6.024 C 5.592 6.085,5.366 6.270,5.270 6.478 C 5.189 6.655,5.191 6.956,5.275 7.125 C 5.354 7.285,5.515 7.446,5.675 7.525 C 5.847 7.610,6.120 7.610,6.307 7.525 C 6.590 7.396,6.800 7.094,6.800 6.815 C 6.800 6.522,6.589 6.198,6.324 6.084 C 6.175 6.020,5.946 5.992,5.827 6.024 M9.827 6.024 C 9.592 6.085,9.366 6.270,9.270 6.478 C 9.189 6.655,9.191 6.956,9.275 7.125 C 9.354 7.285,9.515 7.446,9.675 7.525 C 9.847 7.610,10.120 7.610,10.307 7.525 C 10.590 7.396,10.800 7.094,10.800 6.815 C 10.800 6.522,10.589 6.198,10.324 6.084 C 10.175 6.020,9.946 5.992,9.827 6.024 M4.616 9.627 C 5.099 9.717,5.497 10.134,5.574 10.632 C 5.663 11.209,5.303 11.769,4.728 11.946 C 4.395 12.049,4.048 11.992,3.734 11.783 C 3.358 11.532,3.151 11.059,3.225 10.620 C 3.337 9.955,3.966 9.505,4.616 9.627 " fill="#1A1C1F" stroke="none" fill-rule="evenodd"></path></svg>