<svg width="14" height="14" viewBox="0 0 14 14" fill="none" xmlns="http://www.w3.org/2000/svg"><path d="M9.575 1.425 C 9.016 1.469,8.360 1.737,7.970 2.080 L 7.861 2.176 7.623 2.151 C 7.153 2.100,7.038 2.097,6.641 2.124 L 6.238 2.152 6.030 1.997 C 5.798 1.825,5.467 1.647,5.207 1.554 C 4.942 1.459,4.681 1.423,4.261 1.423 C 3.940 1.423,3.850 1.432,3.645 1.482 C 3.082 1.618,2.631 1.869,2.237 2.267 C 1.232 3.279,1.125 4.875,1.984 6.018 L 2.149 6.238 2.125 6.483 C 2.093 6.795,2.093 7.238,2.124 7.486 L 2.148 7.679 2.023 7.824 C 1.359 8.590,1.217 9.642,1.659 10.530 C 1.792 10.798,1.923 10.980,2.134 11.189 C 2.959 12.008,4.230 12.127,5.212 11.479 L 5.459 11.316 5.605 11.389 C 5.686 11.430,5.879 11.535,6.035 11.623 C 6.306 11.776,6.321 11.788,6.355 11.889 C 6.409 12.047,6.572 12.264,6.724 12.378 C 6.997 12.583,7.325 12.648,7.622 12.557 C 7.823 12.495,7.928 12.431,8.089 12.272 C 8.322 12.041,8.436 11.704,8.383 11.398 C 8.283 10.811,7.770 10.444,7.162 10.526 L 6.984 10.550 6.648 10.363 C 6.168 10.095,6.215 10.161,6.261 9.833 C 6.283 9.680,6.300 9.454,6.300 9.331 L 6.300 9.106 6.429 9.091 C 6.500 9.083,6.658 9.044,6.782 9.004 L 7.005 8.933 7.257 9.016 C 7.551 9.114,7.734 9.124,7.955 9.056 C 8.334 8.938,8.624 8.600,8.576 8.334 C 8.554 8.216,8.461 8.063,8.367 7.992 C 8.244 7.897,8.160 7.883,7.902 7.911 C 7.628 7.941,7.571 7.919,7.548 7.776 C 7.507 7.533,7.463 7.432,7.352 7.325 C 7.262 7.237,7.220 7.215,7.129 7.202 C 6.941 7.176,6.874 7.184,6.748 7.247 C 6.605 7.318,6.525 7.435,6.486 7.631 C 6.451 7.806,6.418 7.884,6.368 7.911 C 6.341 7.926,6.225 7.925,6.039 7.909 L 5.752 7.884 5.623 7.760 C 5.304 7.450,4.873 7.194,4.503 7.095 C 4.248 7.027,3.918 6.993,3.690 7.012 L 3.493 7.028 3.507 6.822 C 3.522 6.618,3.573 6.312,3.656 5.929 L 3.698 5.733 3.558 5.615 C 2.993 5.138,2.823 4.828,2.824 4.283 C 2.825 3.985,2.846 3.871,2.941 3.673 C 3.219 3.091,3.835 2.740,4.433 2.822 C 4.903 2.887,5.328 3.164,5.623 3.596 L 5.727 3.748 5.973 3.671 C 6.352 3.551,6.540 3.523,6.965 3.523 C 7.380 3.523,7.601 3.553,8.017 3.664 C 8.159 3.702,8.290 3.733,8.309 3.733 C 8.327 3.732,8.377 3.680,8.420 3.616 C 8.532 3.451,8.901 3.107,9.078 3.003 C 9.524 2.741,10.074 2.749,10.527 3.024 C 10.927 3.267,11.183 3.719,11.186 4.188 C 11.189 4.697,10.995 5.036,10.458 5.458 C 10.353 5.541,10.267 5.621,10.267 5.637 C 10.267 5.652,10.303 5.805,10.346 5.977 C 10.452 6.390,10.477 6.584,10.477 7.008 C 10.476 7.633,10.378 8.046,10.101 8.590 C 9.931 8.922,9.765 9.153,9.460 9.478 C 9.179 9.778,9.124 9.885,9.124 10.133 C 9.123 10.280,9.134 10.336,9.180 10.425 C 9.306 10.671,9.538 10.814,9.812 10.814 C 10.060 10.814,10.155 10.760,10.475 10.435 C 11.231 9.668,11.653 8.837,11.846 7.734 C 11.895 7.450,11.902 6.598,11.856 6.318 L 11.827 6.138 11.954 5.980 C 12.237 5.628,12.395 5.329,12.493 4.963 C 12.825 3.726,12.318 2.454,11.235 1.806 C 10.726 1.502,10.180 1.377,9.575 1.425 M5.097 5.271 C 4.961 5.306,4.777 5.424,4.698 5.528 C 4.429 5.880,4.563 6.402,4.970 6.589 C 5.119 6.657,5.362 6.655,5.518 6.584 C 5.766 6.472,5.950 6.208,5.950 5.963 C 5.950 5.707,5.766 5.424,5.533 5.324 C 5.403 5.268,5.203 5.243,5.097 5.271 M8.597 5.271 C 8.461 5.306,8.277 5.424,8.198 5.528 C 7.929 5.880,8.063 6.402,8.470 6.589 C 8.619 6.657,8.862 6.655,9.018 6.584 C 9.266 6.472,9.450 6.208,9.450 5.963 C 9.450 5.707,9.266 5.424,9.033 5.324 C 8.903 5.268,8.703 5.243,8.597 5.271 M4.039 8.423 C 4.462 8.502,4.810 8.867,4.877 9.303 C 4.963 9.856,4.571 10.386,4.005 10.483 C 3.336 10.598,2.708 9.966,2.822 9.293 C 2.920 8.710,3.470 8.317,4.039 8.423 " fill="#1A1C1F" stroke="none" fill-rule="evenodd"></path></svg>