<svg xmlns="http://www.w3.org/2000/svg" width="12" height="12" fill="none"><g clip-path="url(#a)"><path fill="#1A1C1F" fill-rule="evenodd" d="M8.4 1.2a2.4 2.4 0 0 1 2.4 2.4c0 .588-.179 1.133-.666 1.659q.056.293.066.741a4.2 4.2 0 0 1-1.394 3.125.6.6 0 1 1-.802-.892A3 3 0 0 0 9 6c0-.218-.019-.554-.217-1.19q.153-.105.331-.245c.304-.226.486-.58.486-.965 0-.663-.537-1.188-1.2-1.2q-.708-.013-1.268.815Q6.474 3 6 3c-.473 0-.705.085-1.09.215-.361-.603-.842-.815-1.235-.815A1.275 1.275 0 0 0 2.8 4.601q.226.19.378.308-.206.774-.177 1.112Q3.148 6 3.3 6c.659 0 1.248.304 1.633.78a.43.43 0 0 1 .237-.025l.124.032c.164.037.238-.017.253-.138l.007-.12c.066-.505.825-.505.89 0l.008.12c.013.108.077.156.182.156a.6.6 0 0 0 .164-.044c.428-.106.75.435.416.761-.31.303-.616.344-.965.223L6 7.65a1.6 1.6 0 0 1-.62.158c.042.268.02.504-.058.862l.684.38A.9.9 0 0 1 7.2 9.9a.9.9 0 0 1-1.778.2l-.745-.414a2.1 2.1 0 0 1-2.835-3.097 4.1 4.1 0 0 1 .01-1.242c-.37-.397-.664-1.034-.652-1.672a2.475 2.475 0 0 1 4.147-1.824c.28-.035.425-.051.653-.051s.418.017.74.066C7.128 1.459 7.82 1.2 8.4 1.2M4.5 4.5a.6.6 0 1 1 0 1.2.6.6 0 0 1 0-1.2m3 0a.6.6 0 1 1 0 1.2.6.6 0 0 1 0-1.2M3.3 7.2a.9.9 0 1 0 0 1.8.9.9 0 0 0 0-1.8" clip-rule="evenodd"/></g><defs><clipPath id="a"><path fill="#fff" d="M0 0h12v12H0z"/></clipPath></defs></svg>