<svg xmlns="http://www.w3.org/2000/svg" width="16" height="16" fill="none"><g clip-path="url(#a)"><path fill="#1A1C1F" fill-rule="evenodd" d="M11.2 1.6a3.2 3.2 0 0 1 3.2 3.2c0 .784-.238 1.51-.889 2.212q.075.39.09.988c0 1.61-.685 3.112-1.86 4.167a.8.8 0 1 1-1.069-1.19A3.99 3.99 0 0 0 12 8c0-.29-.025-.739-.289-1.587q.203-.141.441-.327c.405-.3.648-.772.648-1.286 0-.884-.716-1.584-1.6-1.6q-.944-.017-1.691 1.087Q8.63 4 8 4c-.631 0-.94.114-1.453.287C6.065 3.482 5.424 3.2 4.9 3.2a1.7 1.7 0 0 0-1.167 2.935q.302.252.504.41-.272 1.033-.236 1.483.195-.028.4-.028c.879 0 1.664.406 2.177 1.04a.57.57 0 0 1 .316-.033l.166.042c.218.05.317-.022.337-.184l.01-.16c.087-.673 1.1-.673 1.187 0l.01.16c.017.145.103.209.243.209q.053 0 .218-.06c.571-.14 1 .58.554 1.015-.413.404-.82.458-1.285.297L8 10.2c-.374.17-.695.21-.828.21.058.358.028.673-.076 1.15l.912.506Q8.193 12 8.4 12a1.2 1.2 0 1 1-1.17 1.466l-.994-.552a2.8 2.8 0 0 1-3.78-4.129A5.5 5.5 0 0 1 2.4 8c0-.273.018-.57.069-.871C1.976 6.6 1.584 5.75 1.6 4.9a3.3 3.3 0 0 1 3.3-3.3c.824 0 1.565.28 2.23.868.373-.047.566-.068.87-.068s.558.023.987.088c.516-.543 1.44-.888 2.213-.888M6 6a.8.8 0 1 1 0 1.6A.8.8 0 0 1 6 6m4 0a.8.8 0 1 1 0 1.6.8.8 0 0 1 0-1.6M4.4 9.6a1.2 1.2 0 1 0 0 2.4 1.2 1.2 0 0 0 0-2.4" clip-rule="evenodd"/></g><defs><clipPath id="a"><path fill="#fff" d="M0 0h16v16H0z"/></clipPath></defs></svg>