<svg xmlns="http://www.w3.org/2000/svg" width="14" height="14" fill="none"><g clip-path="url(#a)"><path fill="#1A1C1F" fill-rule="evenodd" d="M9.8 1.4a2.8 2.8 0 0 1 2.8 2.8c0 .686-.208 1.322-.777 1.936q.066.34.077.864c0 1.41-.599 2.723-1.626 3.646a.7.7 0 0 1-.936-1.041A3.49 3.49 0 0 0 10.5 7c0-.254-.022-.647-.253-1.388q.178-.123.386-.287c.355-.263.567-.675.567-1.125 0-.773-.627-1.386-1.4-1.4q-.826-.015-1.48.951Q7.554 3.501 7 3.5c-.552 0-.823.1-1.271.251-.422-.704-.983-.951-1.441-.951a1.488 1.488 0 0 0-1.022 2.568q.264.22.442.36-.24.902-.207 1.297.17-.025.35-.025c.769 0 1.456.355 1.905.91a.5.5 0 0 1 .276-.03l.145.038c.191.044.278-.02.295-.161l.009-.14c.076-.589.962-.589 1.039 0l.008.14c.016.127.09.183.213.183a.7.7 0 0 0 .19-.052c.5-.124.875.507.486.888-.362.353-.718.4-1.125.26L7 8.925a1.9 1.9 0 0 1-.724.184c.05.313.024.588-.067 1.006l.798.442a1.05 1.05 0 1 1-.68 1.226l-.87-.483a2.45 2.45 0 0 1-3.308-3.613 4.8 4.8 0 0 1 .011-1.45c-.431-.462-.774-1.205-.76-1.95A2.888 2.888 0 0 1 6.24 2.16c.326-.041.495-.06.761-.06s.488.02.864.077C8.315 1.702 9.124 1.4 9.8 1.4M5.25 5.25a.7.7 0 1 1 0 1.4.7.7 0 0 1 0-1.4m3.5 0a.7.7 0 1 1 0 1.4.7.7 0 0 1 0-1.4M3.85 8.4a1.05 1.05 0 1 0 0 2.1 1.05 1.05 0 0 0 0-2.1" clip-rule="evenodd"/></g><defs><clipPath id="a"><path fill="#fff" d="M0 0h14v14H0z"/></clipPath></defs></svg>