<svg width="28" height="28" viewBox="0 0 28 28" fill="none" xmlns="http://www.w3.org/2000/svg"><path d="M7.974 1.818 C 6.586 1.996,5.194 2.875,4.404 4.073 C 4.132 4.487,3.970 4.841,3.788 5.426 C 3.167 7.415,3.588 9.178,5.050 10.714 L 5.320 10.998 5.274 11.565 C 5.225 12.164,5.269 13.163,5.370 13.740 C 5.435 14.117,5.429 14.126,4.993 14.277 C 3.392 14.833,2.206 16.194,1.857 17.873 C 1.733 18.468,1.759 19.485,1.912 20.043 C 2.118 20.800,2.613 21.660,3.147 22.192 C 3.851 22.895,4.916 23.435,5.848 23.563 C 6.833 23.698,7.666 23.576,8.604 23.160 C 8.809 23.068,8.984 23.015,9.001 23.040 C 9.017 23.064,9.184 23.265,9.372 23.487 L 9.714 23.890 9.658 24.158 C 9.506 24.893,9.919 25.708,10.625 26.066 C 10.872 26.191,10.939 26.203,11.364 26.203 C 11.799 26.203,11.854 26.192,12.144 26.050 C 12.506 25.872,12.789 25.579,12.967 25.200 C 13.069 24.981,13.087 24.877,13.088 24.500 C 13.089 24.103,13.075 24.027,12.952 23.777 C 12.786 23.436,12.454 23.103,12.118 22.939 C 11.933 22.848,11.764 22.809,11.461 22.788 L 11.053 22.759 10.718 22.366 C 10.534 22.149,10.369 21.948,10.352 21.917 C 10.335 21.887,10.446 21.663,10.598 21.421 C 11.647 19.748,11.621 17.749,10.529 16.109 C 10.298 15.762,9.773 15.224,9.380 14.931 C 8.973 14.628,8.246 14.292,7.693 14.152 L 7.195 14.026 7.137 13.768 C 7.106 13.626,7.070 13.066,7.058 12.524 C 7.039 11.602,7.081 11.012,7.214 10.353 C 7.236 10.242,7.199 10.198,6.871 9.948 C 6.215 9.449,5.695 8.809,5.460 8.213 C 5.259 7.704,5.233 6.870,5.394 6.160 C 5.593 5.287,6.395 4.278,7.211 3.876 C 7.701 3.635,8.160 3.536,8.797 3.533 C 9.869 3.529,10.469 3.798,11.392 4.700 L 11.700 5.001 12.232 4.832 C 13.411 4.458,14.639 4.315,15.703 4.430 C 16.337 4.498,16.653 4.568,17.441 4.815 L 18.058 5.008 18.444 4.638 C 19.289 3.827,19.967 3.537,21.023 3.535 C 21.635 3.534,21.985 3.613,22.501 3.872 C 23.610 4.427,24.301 5.397,24.457 6.620 C 24.587 7.633,24.251 8.623,23.510 9.406 C 23.309 9.618,23.001 9.890,22.825 10.010 L 22.506 10.228 22.575 10.515 C 22.623 10.715,22.651 11.185,22.666 12.043 C 22.692 13.445,22.660 13.723,22.367 14.630 C 21.877 16.151,20.941 17.478,19.643 18.488 C 18.914 19.057,18.235 19.419,17.343 19.718 C 16.383 20.039,16.171 20.069,14.668 20.099 L 13.306 20.126 13.146 20.258 C 12.837 20.512,12.749 20.927,12.922 21.308 C 13.087 21.671,13.344 21.776,14.245 21.852 C 16.166 22.013,18.443 21.416,20.113 20.314 C 22.385 18.815,23.857 16.572,24.365 13.837 C 24.475 13.247,24.529 11.892,24.466 11.340 L 24.426 10.990 24.781 10.615 C 25.410 9.951,25.826 9.214,26.073 8.327 C 26.193 7.895,26.202 7.804,26.200 7.000 C 26.199 6.216,26.187 6.095,26.075 5.680 C 25.926 5.129,25.617 4.463,25.296 3.999 C 24.667 3.088,23.498 2.255,22.439 1.961 C 21.656 1.744,20.485 1.724,19.695 1.915 C 19.202 2.034,18.579 2.326,18.021 2.701 L 17.591 2.991 17.021 2.874 C 16.235 2.715,15.671 2.660,14.806 2.660 C 13.952 2.660,13.498 2.707,12.714 2.876 L 12.152 2.997 11.851 2.787 C 11.190 2.326,10.635 2.062,10.010 1.909 C 9.581 1.805,8.469 1.755,7.974 1.818 M10.782 9.264 C 10.166 9.542,9.919 10.175,10.194 10.766 C 10.555 11.542,11.652 11.571,12.085 10.815 C 12.393 10.278,12.178 9.599,11.607 9.304 C 11.399 9.196,10.978 9.176,10.782 9.264 M18.693 9.249 C 18.431 9.322,18.094 9.672,17.993 9.978 C 17.893 10.278,17.923 10.489,18.110 10.818 C 18.602 11.679,19.849 11.482,20.074 10.507 C 20.148 10.186,20.091 9.885,19.912 9.653 C 19.642 9.302,19.121 9.130,18.693 9.249 M13.922 13.153 C 13.538 13.188,13.382 13.278,13.217 13.561 C 12.944 14.026,13.344 14.603,13.942 14.606 L 14.140 14.607 14.139 14.922 C 14.139 15.095,14.126 15.285,14.110 15.344 C 14.077 15.468,13.909 15.565,13.610 15.632 C 13.335 15.694,13.215 15.647,12.888 15.348 C 12.746 15.218,12.579 15.092,12.518 15.069 C 12.201 14.948,11.772 15.105,11.610 15.400 C 11.459 15.676,11.513 15.995,11.764 16.317 C 12.405 17.140,13.517 17.368,14.536 16.886 C 14.876 16.725,14.888 16.725,15.185 16.866 C 16.014 17.258,16.893 17.208,17.539 16.732 C 17.857 16.498,18.175 16.102,18.221 15.882 C 18.324 15.397,17.854 14.950,17.342 15.046 C 17.244 15.064,17.069 15.178,16.874 15.349 C 16.453 15.721,16.301 15.741,15.762 15.491 C 15.636 15.433,15.633 15.424,15.633 15.019 L 15.633 14.607 15.825 14.607 C 16.224 14.607,16.614 14.262,16.612 13.911 C 16.611 13.666,16.462 13.376,16.281 13.264 C 16.139 13.177,16.030 13.165,15.190 13.145 C 14.677 13.132,14.106 13.136,13.922 13.153 M7.490 15.916 C 7.670 15.971,7.894 16.057,7.989 16.105 L 8.162 16.193 8.028 16.517 C 7.543 17.694,6.598 18.692,5.273 19.427 C 4.947 19.608,4.130 19.943,3.890 19.994 C 3.746 20.025,3.741 20.019,3.656 19.778 C 3.533 19.423,3.532 18.245,3.655 17.873 C 3.900 17.133,4.515 16.434,5.232 16.081 C 5.473 15.963,5.785 15.846,5.927 15.822 C 6.334 15.752,7.114 15.799,7.490 15.916 M9.515 18.025 C 9.752 19.218,9.475 20.219,8.699 20.976 C 8.343 21.323,7.931 21.571,7.443 21.733 C 7.131 21.836,6.987 21.856,6.557 21.856 C 6.123 21.856,5.985 21.836,5.670 21.730 C 5.465 21.661,5.244 21.575,5.180 21.539 C 5.065 21.474,5.072 21.469,5.553 21.243 C 7.136 20.499,8.519 19.297,9.239 18.039 C 9.320 17.897,9.405 17.780,9.427 17.780 C 9.449 17.780,9.489 17.890,9.515 18.025 " fill="#1A1C1F" stroke="none" fill-rule="evenodd"></path></svg>