<svg width="32" height="32" viewBox="0 0 32 32" fill="none" xmlns="http://www.w3.org/2000/svg"><path d="M9.113 2.078 C 7.527 2.281,5.936 3.286,5.034 4.655 C 4.722 5.128,4.537 5.533,4.329 6.201 C 3.619 8.474,4.100 10.489,5.771 12.245 L 6.080 12.569 6.027 13.217 C 5.972 13.901,6.022 15.043,6.137 15.703 C 6.212 16.134,6.205 16.144,5.707 16.317 C 3.877 16.953,2.521 18.507,2.122 20.427 C 2.035 20.843,2.021 21.071,2.042 21.707 C 2.073 22.636,2.182 23.093,2.557 23.867 C 3.171 25.134,4.093 25.999,5.440 26.575 C 6.059 26.839,6.472 26.930,7.236 26.969 C 8.198 27.019,8.914 26.881,9.833 26.469 C 10.067 26.365,10.268 26.303,10.287 26.331 C 10.305 26.358,10.495 26.587,10.709 26.840 L 11.098 27.298 11.036 27.653 C 10.966 28.055,10.992 28.295,11.152 28.721 C 11.298 29.111,11.736 29.583,12.143 29.789 C 12.425 29.932,12.502 29.947,12.988 29.947 C 13.484 29.947,13.548 29.934,13.878 29.771 C 14.292 29.568,14.616 29.233,14.819 28.800 C 14.936 28.550,14.957 28.431,14.958 28.000 C 14.959 27.546,14.942 27.460,14.802 27.173 C 14.612 26.784,14.233 26.403,13.850 26.216 C 13.637 26.112,13.445 26.068,13.098 26.043 L 12.633 26.010 12.250 25.561 C 12.039 25.314,11.851 25.083,11.831 25.048 C 11.811 25.014,11.938 24.758,12.112 24.481 C 13.178 22.781,13.281 20.797,12.394 19.025 C 12.028 18.295,11.429 17.594,10.720 17.065 C 10.255 16.718,9.424 16.334,8.792 16.174 L 8.223 16.030 8.157 15.735 C 8.121 15.573,8.080 14.933,8.067 14.314 C 8.044 13.259,8.093 12.585,8.244 11.832 C 8.269 11.708,8.231 11.660,7.936 11.437 C 6.551 10.393,5.961 9.284,6.051 7.893 C 6.127 6.712,6.459 5.977,7.288 5.147 C 7.952 4.484,8.615 4.169,9.605 4.048 C 10.014 3.998,10.205 4.002,10.640 4.066 C 11.551 4.200,12.062 4.470,12.899 5.257 L 13.380 5.710 14.070 5.498 C 15.433 5.080,16.741 4.933,17.947 5.063 C 18.671 5.140,19.032 5.220,19.932 5.503 L 20.637 5.724 21.079 5.300 C 22.044 4.373,22.820 4.042,24.027 4.040 C 24.726 4.038,25.126 4.130,25.716 4.425 C 26.983 5.059,27.772 6.168,27.951 7.565 C 28.100 8.724,27.715 9.855,26.868 10.750 C 26.639 10.992,26.287 11.302,26.086 11.439 L 25.722 11.689 25.800 12.018 C 25.854 12.245,25.886 12.783,25.904 13.764 C 25.933 15.366,25.897 15.684,25.563 16.720 C 25.003 18.459,23.933 19.974,22.449 21.130 C 21.616 21.779,20.840 22.193,19.820 22.535 C 18.723 22.902,18.481 22.936,16.763 22.970 L 15.206 23.001 15.023 23.152 C 14.671 23.443,14.570 23.916,14.768 24.352 C 14.957 24.766,15.250 24.887,16.280 24.973 C 18.476 25.157,21.078 24.475,22.987 23.216 C 25.578 21.506,27.264 18.937,27.845 15.813 C 27.971 15.139,28.034 13.592,27.961 12.960 L 27.915 12.560 28.321 12.131 C 29.040 11.372,29.516 10.530,29.798 9.517 C 29.935 9.023,29.945 8.918,29.943 8.000 C 29.941 7.104,29.928 6.965,29.800 6.492 C 29.638 5.892,29.289 5.124,28.957 4.635 C 28.224 3.556,26.878 2.583,25.645 2.241 C 24.751 1.994,23.420 1.972,22.509 2.189 C 21.946 2.324,21.235 2.658,20.595 3.087 L 20.104 3.418 19.452 3.285 C 18.555 3.102,17.910 3.040,16.921 3.040 C 15.945 3.040,15.426 3.094,14.531 3.286 L 13.888 3.425 13.544 3.185 C 12.789 2.659,12.155 2.356,11.440 2.182 C 10.950 2.063,9.679 2.006,9.113 2.078 M12.322 10.587 C 11.619 10.905,11.335 11.628,11.650 12.303 C 12.069 13.204,13.345 13.221,13.829 12.332 C 14.161 11.721,13.910 10.966,13.266 10.633 C 13.028 10.510,12.546 10.486,12.322 10.587 M21.363 10.570 C 21.064 10.654,20.679 11.054,20.563 11.404 C 20.449 11.747,20.483 11.988,20.697 12.363 C 21.260 13.348,22.684 13.122,22.942 12.008 C 23.026 11.642,22.961 11.298,22.756 11.029 C 22.451 10.629,21.856 10.433,21.363 10.570 M15.910 15.032 C 15.472 15.072,15.294 15.175,15.105 15.498 C 14.792 16.032,15.250 16.689,15.939 16.692 L 16.171 16.693 16.152 17.151 C 16.131 17.675,16.104 17.711,15.645 17.845 C 15.279 17.951,15.143 17.908,14.754 17.560 C 14.574 17.399,14.371 17.246,14.303 17.220 C 13.944 17.083,13.436 17.269,13.264 17.601 C 13.196 17.732,13.173 17.868,13.188 18.066 C 13.205 18.299,13.248 18.396,13.444 18.648 C 14.177 19.588,15.448 19.849,16.613 19.298 C 16.935 19.146,17.143 19.108,17.195 19.192 C 17.227 19.244,17.719 19.427,18.073 19.520 C 18.700 19.684,19.501 19.523,20.044 19.123 C 20.424 18.843,20.794 18.375,20.833 18.125 C 20.902 17.689,20.546 17.239,20.093 17.188 C 19.808 17.156,19.595 17.253,19.250 17.573 C 18.983 17.821,18.681 17.948,18.494 17.891 C 18.428 17.871,18.259 17.806,18.120 17.747 L 17.867 17.640 17.867 17.167 L 17.867 16.693 18.085 16.693 C 18.542 16.693,18.988 16.300,18.985 15.899 C 18.984 15.618,18.814 15.287,18.606 15.160 C 18.445 15.061,18.318 15.047,17.360 15.023 C 16.773 15.009,16.121 15.013,15.910 15.032 M8.560 18.189 C 8.765 18.253,9.022 18.350,9.130 18.406 L 9.328 18.506 9.175 18.877 C 8.584 20.308,7.235 21.662,5.693 22.372 C 5.318 22.544,4.411 22.880,4.320 22.880 C 4.295 22.880,4.231 22.754,4.178 22.600 C 4.038 22.198,4.037 20.849,4.177 20.427 C 4.457 19.580,5.160 18.782,5.980 18.379 C 6.255 18.243,6.612 18.110,6.773 18.082 C 7.239 18.002,8.130 18.056,8.560 18.189 M10.870 20.600 C 11.025 21.322,10.992 22.084,10.780 22.688 C 10.433 23.673,9.577 24.483,8.507 24.837 C 8.149 24.955,7.985 24.978,7.493 24.978 C 6.998 24.978,6.840 24.956,6.480 24.835 C 5.687 24.568,5.686 24.596,6.509 24.195 C 8.249 23.348,9.759 22.014,10.558 20.616 C 10.652 20.453,10.746 20.320,10.769 20.320 C 10.791 20.320,10.837 20.446,10.870 20.600 " fill="#1A1C1F" stroke="none" fill-rule="evenodd"></path></svg>