<svg xmlns="http://www.w3.org/2000/svg" width="20" height="20" fill="none"><g clip-path="url(#a)"><path fill="#1A1C1F" fill-rule="evenodd" d="M14.301 10c.988 0 1.535.112 2.094.423.521.29.934.72 1.21 1.257.267.52.376 1.027.393 1.888L18 16a1 1 0 1 1-2 0q-.005-1.269-.005-2.538c-.015-.461-.065-.665-.17-.868a1 1 0 0 0-.403-.424c-.184-.102-.366-.15-.795-.165L11.677 12c-.652 0-.876.046-1.099.17a1 1 0 0 0-.403.424c-.104.202-.155.407-.17.856L10 16a1 1 0 1 1-2 0q-.003-1.106 0-2.21c0-.99.105-1.544.395-2.11a3 3 0 0 1 1.21-1.257c.506-.282 1.006-.4 1.819-.42zM6.25 10a1 1 0 0 1 1 1c0 .513-.399 1-1 1l-.98.01c-.357.02-.521.068-.689.161a1 1 0 0 0-.406.424c-.086.167-.135.332-.158.648L4 16a1 1 0 1 1-2 0v-2.151c0-1.05.102-1.598.397-2.17.277-.537.691-.967 1.214-1.257.518-.287 1.019-.402 1.89-.42zM13 3a3 3 0 1 0 0 6 3 3 0 0 0 0-6m0 2a1 1 0 1 1 0 2 1 1 0 0 1 0-2M7 3a3 3 0 0 1 .885.133 1 1 0 0 1-.476 1.939C7.184 5.016 7.102 5 7 5a1 1 0 1 0 .264 1.965 1 1 0 1 1 .526 1.93A3.002 3.002 0 0 1 4 6a3 3 0 0 1 3-3" clip-rule="evenodd"/></g><defs><clipPath id="a"><path fill="#fff" d="M0 0h20v20H0z"/></clipPath></defs></svg>