<svg xmlns="http://www.w3.org/2000/svg" width="16" height="16" fill="none"><g clip-path="url(#a)"><path fill="#1A1C1F" fill-rule="evenodd" d="M11.441 8c.79 0 1.228.09 1.675.339.417.232.747.576.968 1.005.213.417.301.822.314 1.51L14.4 12.8a.8.8 0 1 1-1.6 0q-.004-1.015-.004-2.03c-.012-.37-.052-.532-.136-.695a.8.8 0 0 0-.322-.339c-.147-.082-.293-.12-.636-.132L9.342 9.6c-.522 0-.7.037-.88.136a.8.8 0 0 0-.322.339c-.083.162-.124.325-.136.685L8 12.8a.8.8 0 1 1-1.6 0q-.003-.885 0-1.769c0-.792.084-1.235.316-1.687.22-.43.55-.773.968-1.005.405-.226.805-.321 1.455-.337zM5 8a.8.8 0 0 1 .8.8c0 .41-.32.8-.8.8l-.783.008c-.287.016-.418.055-.552.13a.8.8 0 0 0-.325.338c-.069.134-.108.266-.127.518L3.2 12.8a.8.8 0 1 1-1.6 0v-1.721c0-.84.082-1.278.318-1.736.221-.43.553-.773.971-1.005.414-.23.815-.322 1.511-.336zm5.4-5.6a2.4 2.4 0 1 0 0 4.8 2.4 2.4 0 0 0 0-4.8m0 1.6a.8.8 0 1 1 0 1.6.8.8 0 0 1 0-1.6M5.6 2.4q.365 0 .708.106a.8.8 0 0 1-.381 1.552A1.3 1.3 0 0 0 5.6 4a.8.8 0 1 0 .211 1.572.8.8 0 0 1 .421 1.544A2.402 2.402 0 0 1 3.2 4.8a2.4 2.4 0 0 1 2.4-2.4" clip-rule="evenodd"/></g><defs><clipPath id="a"><path fill="#fff" d="M0 0h16v16H0z"/></clipPath></defs></svg>