<svg xmlns="http://www.w3.org/2000/svg" width="20" height="20" fill="none"><path fill="#1A1C1F" fill-rule="evenodd" d="M9.583 2.021a4 4 0 0 0-3.342 2.646c-.169.478-.221.795-.219 1.333.002.516.049.812.199 1.267.69 2.078 2.961 3.222 5.025 2.531A4.01 4.01 0 0 0 14 6.001a3.87 3.87 0 0 0-1.238-2.887 3.94 3.94 0 0 0-1.895-1.017c-.279-.062-1.012-.106-1.284-.076M5.45 12.049c-.32.06-.518.132-.845.304-.75.395-1.276 1.055-1.512 1.897-.072.256-.075.32-.075 1.65l-.001 1.383.078.15c.107.205.256.356.455.462l.167.088h12.566l.15-.078c.205-.107.356-.256.462-.455l.088-.167.01-1.271c.009-1.145.004-1.302-.054-1.583a2.97 2.97 0 0 0-1.65-2.127c-.642-.309-.187-.283-5.189-.29-3.532-.006-4.463.002-4.65.037"/></svg>