<svg xmlns="http://www.w3.org/2000/svg" width="32" height="32" fill="none"><path fill="#1A1C1F" fill-rule="evenodd" d="M14.792 2.11c-1.311.221-2.596.873-3.602 1.829-1.008.958-1.652 2.067-1.996 3.438-.186.741-.232 1.907-.106 2.701.405 2.559 2.21 4.711 4.645 5.539.834.284 1.293.355 2.267.355s1.433-.071 2.267-.355c2.435-.828 4.24-2.98 4.645-5.539.126-.797.08-1.96-.107-2.707-.689-2.747-2.913-4.821-5.645-5.264-.604-.098-1.774-.096-2.368.003m2.42 2.048c1.798.438 3.267 1.956 3.674 3.796.131.593.119 1.605-.026 2.206-.237.979-.916 2.067-1.674 2.68-.964.78-1.979 1.144-3.186 1.144s-2.222-.364-3.186-1.144c-.758-.613-1.437-1.701-1.673-2.68-.147-.606-.159-1.618-.028-2.206a5.14 5.14 0 0 1 2.882-3.529c.317-.144.943-.32 1.392-.391.333-.053 1.395.019 1.825.124M9.867 16.541c-1.67.115-3.274.956-4.301 2.253-.719.909-1.127 1.794-1.417 3.073-.109.483-.115.661-.135 3.89-.018 2.987-.011 3.41.064 3.604.296.775 1.375.848 1.791.122l.131-.23.031-3.44c.034-3.755.029-3.698.363-4.561.487-1.26 1.492-2.162 2.844-2.552.788-.227.934-.229 1.355-.017 1.036.52 2.443.955 3.676 1.138.876.13 2.586.13 3.462 0 1.233-.183 2.64-.618 3.676-1.138.422-.212.567-.21 1.364.019 1.361.393 2.374 1.32 2.864 2.623.3.795.299.785.333 4.488l.032 3.44.131.23c.315.549 1.105.676 1.551.248.332-.318.327-.247.304-3.974-.02-3.246-.025-3.405-.137-3.901a8.3 8.3 0 0 0-.707-1.963c-1.058-2.055-3.166-3.36-5.429-3.36H21.2l-.773.389c-2.839 1.427-6.023 1.431-8.84.009-.418-.211-.85-.394-.96-.406a6 6 0 0 0-.76.016"/></svg>