<svg xmlns="http://www.w3.org/2000/svg" width="28" height="28" fill="none"><g clip-path="url(#a)"><path fill="#1A1C1F" fill-rule="evenodd" d="M23.997 15.446c.713.394 1.296.959 1.682 1.682.394.737.551 1.458.57 2.777l.001 3.72a.875.875 0 0 1-.875.875.87.87 0 0 1-.88-.875v-3.876c-.022-.926-.125-1.358-.36-1.796a2.3 2.3 0 0 0-.963-.964c-.469-.25-.932-.351-2.002-.363l-4.527-.001c-1.196 0-1.693.098-2.19.364q-.627.337-.964.964c-.25.466-.351.932-.363 1.974l-.001 3.698a.875.875 0 0 1-1.75 0v-3.482c0-1.462.152-2.233.57-3.015a4.06 4.06 0 0 1 1.683-1.682c.733-.392 1.457-.55 2.749-.57l4.742-.001c.842 0 1.933.047 2.878.57M8.97 14.875c.483 0 .875.392.875.875a.87.87 0 0 1-.875.875H7.112q-.229 0-.952.027c-.628.044-.976.147-1.332.337q-.628.337-.964.964c-.19.356-.293.704-.337 1.332l-.027.952v3.388a.875.875 0 0 1-1.75 0v-3.388c0-1.555.147-2.317.57-3.11a4.06 4.06 0 0 1 1.683-1.681c.746-.399 1.465-.553 2.843-.57zM18.813 3.5a4.812 4.812 0 1 0 0 9.625 4.812 4.812 0 0 0 0-9.625m0 1.75a3.062 3.062 0 1 1 0 6.125 3.062 3.062 0 0 1 0-6.125M9.188 3.5c.971 0 1.902.29 2.69.822a.875.875 0 1 1-.98 1.45 3.063 3.063 0 1 0-.014 5.09.875.875 0 0 1 .972 1.456A4.812 4.812 0 1 1 9.187 3.5" clip-rule="evenodd"/></g><defs><clipPath id="a"><path fill="#fff" d="M0 0h28v28H0z"/></clipPath></defs></svg>