<svg xmlns="http://www.w3.org/2000/svg" width="20" height="20" fill="none"><g clip-path="url(#a)"><path fill="#1A1C1F" fill-rule="evenodd" d="M3.997 18.001c.548 0 .997-.43.997-.997V15.01c0-.567.45-1.017.998-1.017h8.016c.548 0 .998.45.998 1.017v1.994c0 .567.45.997.997.997s.997-.43.997-.997V15.01c0-1.662-1.35-3.011-2.992-3.011H5.992C4.349 11.999 3 13.348 3 15.009v1.995c0 .567.45.997.997.997M10 2c2.21 0 4.008 1.779 4.008 3.988A4.014 4.014 0 0 1 10 9.996c-2.21 0-3.989-1.8-3.989-4.009A3.98 3.98 0 0 1 10 2m.006 2c-1.098 0-2 .902-2 2 0 1.117.902 2 2 2 1.117 0 2-.883 2-2 0-1.098-.883-2-2-2" clip-rule="evenodd"/></g><defs><clipPath id="a"><path fill="#fff" d="M0 0h20v20H0z"/></clipPath></defs></svg>