<svg xmlns="http://www.w3.org/2000/svg" width="32" height="32" fill="none"><g clip-path="url(#a)"><path fill="#1A1C1F" fill-rule="evenodd" d="M21.5 16.5c3.719 0 6.5 2.906 6.5 7V29c0 .563-.437 1-1 1s-1-.437-1-1v-5.5c0-3.437-2.156-4.812-4.25-5C20 19.469 18 19.938 16 19.938s-4-.47-5.75-1.438c-2.094.188-4.25 1.563-4.25 5V29c0 .563-.437 1-1 1s-1-.437-1-1v-5.5c0-4.062 2.75-7.031 6.469-7 .219.002.375.031.531.125A9.7 9.7 0 0 0 16 18a9.7 9.7 0 0 0 5-1.375.9.9 0 0 1 .5-.125M16 2c3.875 0 7 3.156 7 7s-3.125 7-7 7-7-3.156-7-7 3.125-7 7-7m0 2c-2.75 0-5 2.25-5 5s2.25 5 5 5 5-2.25 5-5-2.25-5-5-5" clip-rule="evenodd"/></g><defs><clipPath id="a"><path fill="#fff" d="M0 0h32v32H0z"/></clipPath></defs></svg>