<svg xmlns="http://www.w3.org/2000/svg" width="16" height="16" fill="none"><g clip-path="url(#a)"><path fill="#1A1C1F" fill-rule="evenodd" d="M3.198 14.401a.79.79 0 0 0 .798-.798v-1.595c0-.454.36-.814.797-.814h6.414c.438 0 .797.36.797.814v1.595c0 .454.36.798.798.798a.79.79 0 0 0 .798-.798v-1.595c0-1.33-1.08-2.41-2.393-2.41H4.793a2.407 2.407 0 0 0-2.393 2.41v1.595c0 .454.36.798.798.798M8 1.6a3.2 3.2 0 0 1 3.207 3.191A3.21 3.21 0 0 1 8 7.997 3.2 3.2 0 0 1 4.809 4.79 3.184 3.184 0 0 1 8 1.599m.004 1.6c-.878 0-1.6.721-1.6 1.6 0 .894.722 1.6 1.6 1.6.895 0 1.6-.706 1.6-1.6 0-.879-.705-1.6-1.6-1.6" clip-rule="evenodd"/></g><defs><clipPath id="a"><path fill="#fff" d="M0 0h16v16H0z"/></clipPath></defs></svg>