<svg xmlns="http://www.w3.org/2000/svg" width="24" height="24" fill="none"><g clip-path="url(#a)"><path fill="#1A1C1F" fill-rule="evenodd" d="M17.627 13c1.19 0 1.827.125 2.48.474.61.326 1.093.81 1.419 1.419.322.603.454 1.192.472 2.215L22 20a1 1 0 0 1-1 1c-.513 0-1.005-.423-1.005-1v-2.998c-.017-.616-.085-.89-.233-1.166a1.42 1.42 0 0 0-.598-.598c-.276-.148-.55-.216-1.166-.233L14.347 15c-.86 0-1.186.064-1.511.238q-.39.209-.598.598c-.16.297-.226.596-.237 1.307L12 20a1 1 0 0 1-1 1c-.513 0-1-.413-.993-1L10 17.347c0-1.164.127-1.804.474-2.454a3.42 3.42 0 0 1 1.419-1.419c.6-.32 1.191-.453 2.194-.472zM7.25 13a1 1 0 0 1 1 1c0 .513-.42 1-1 1l-1.159.01q-.754.02-1.183.24-.434.22-.659.611c-.156.273-.226.538-.244 1.172L4 20a1 1 0 1 1-2 0v-2.581c0-1.245.133-1.887.514-2.552a3.5 3.5 0 0 1 1.501-1.406c.638-.318 1.25-.443 2.378-.46zM16 3a4 4 0 1 1 0 8 4 4 0 0 1 0-8M8.207 3c.512 0 1.013.087 1.484.256.52.186.786.757.604 1.279-.103.297-.508.809-1.166.637l-.402-.1-.099-.021-.155-.03-.156-.018L8.207 5C6.974 5 6 5.91 6 7s.974 2 2.207 2l.153-.002c.159-.007.35-.033.683-.137.444-.14 1.023.12 1.2.642a1 1 0 0 1-.628 1.268c-.449.15-.924.229-1.408.229C5.898 11 4 9.225 4 7s1.898-4 4.207-4M16 5a2 2 0 1 0 0 4 2 2 0 0 0 0-4" clip-rule="evenodd"/></g><defs><clipPath id="a"><path fill="#fff" d="M0 0h24v24H0z"/></clipPath></defs></svg>