<svg xmlns="http://www.w3.org/2000/svg" width="28" height="28" fill="none"><g clip-path="url(#a)"><path fill="#1A1C1F" fill-rule="evenodd" d="M18.813 14.438c3.254 0 5.687 2.542 5.687 6.124v4.813a.864.864 0 0 1-.875.875.864.864 0 0 1-.875-.875v-4.812c0-3.008-1.887-4.211-3.719-4.375-1.531.847-3.281 1.257-5.031 1.257s-3.5-.41-5.031-1.258c-1.832.165-3.719 1.368-3.719 4.375v4.813a.864.864 0 0 1-.875.875.864.864 0 0 1-.875-.875v-4.812c0-3.555 2.406-6.153 5.66-6.125.192.001.328.027.465.109A8.5 8.5 0 0 0 14 15.75c1.559 0 3.035-.41 4.375-1.203a.8.8 0 0 1 .438-.11M14 1.75c3.39 0 6.125 2.762 6.125 6.125S17.391 14 14 14s-6.125-2.762-6.125-6.125S10.609 1.75 14 1.75m0 1.75a4.39 4.39 0 0 0-4.375 4.375A4.39 4.39 0 0 0 14 12.25a4.39 4.39 0 0 0 4.375-4.375A4.39 4.39 0 0 0 14 3.5" clip-rule="evenodd"/></g><defs><clipPath id="a"><path fill="#fff" d="M0 0h28v28H0z"/></clipPath></defs></svg>