<svg xmlns="http://www.w3.org/2000/svg" width="12" height="12" fill="none"><g clip-path="url(#a)"><path fill="#1A1C1F" fill-rule="evenodd" d="M8.58 6c.593 0 .922.067 1.257.254.313.174.56.432.726.754.16.312.226.616.236 1.132L10.8 9.6a.6.6 0 1 1-1.2 0q-.003-.762-.003-1.523c-.009-.276-.04-.399-.102-.52a.6.6 0 0 0-.242-.255c-.11-.061-.22-.09-.477-.1L7.006 7.2c-.391 0-.525.028-.66.102a.6.6 0 0 0-.241.254c-.063.122-.093.244-.102.514L6 9.6a.6.6 0 1 1-1.2 0V8.274c0-.594.063-.927.237-1.266.166-.322.413-.58.726-.754.304-.17.603-.24 1.091-.252zM3.75 6a.6.6 0 0 1 0 1.2l-.588.006c-.214.012-.313.04-.413.097a.6.6 0 0 0-.244.254c-.052.1-.081.2-.095.389L2.4 9.6a.6.6 0 1 1-1.2 0V8.31c0-.63.061-.96.238-1.303a1.8 1.8 0 0 1 .729-.754c.31-.172.61-.241 1.133-.252zM7.8 1.8a1.8 1.8 0 1 0 0 3.6 1.8 1.8 0 0 0 0-3.6m0 1.2a.6.6 0 1 1 0 1.2.6.6 0 0 1 0-1.2M4.2 1.8q.273 0 .53.08a.6.6 0 0 1-.285 1.163A1 1 0 0 0 4.2 3a.6.6 0 1 0 .159 1.179.6.6 0 1 1 .315 1.158A1.801 1.801 0 1 1 4.2 1.8" clip-rule="evenodd"/></g><defs><clipPath id="a"><path fill="#fff" d="M0 0h12v12H0z"/></clipPath></defs></svg>