<svg xmlns="http://www.w3.org/2000/svg" width="32" height="32" fill="none"><path fill="#1A1C1F" fill-rule="evenodd" d="M9.6 4.079a5.49 5.49 0 0 0-4.586 5.395c-.003 2.694 1.857 4.935 4.513 5.436.635.12 1.732.081 2.338-.083.833-.225 1.674-.657 1.929-.991.152-.2.215-.538.157-.847-.044-.232-.314-.552-.548-.65-.331-.138-.632-.094-1.104.163-.671.364-1.119.482-1.819.479-.687-.003-1.218-.149-1.775-.486-1.622-.981-2.168-3.095-1.23-4.753.094-.166.353-.485.575-.708.33-.332.495-.45.91-.649.599-.287.907-.358 1.547-.358.673 0 .953.071 1.683.43.702.345.874.376 1.226.216a.988.988 0 0 0 .44-1.436c-.214-.347-1.143-.836-2.01-1.058-.651-.167-1.597-.209-2.246-.1m11.125-.024c-1.779.28-3.277 1.34-4.089 2.894-1.644 3.145.039 6.935 3.497 7.879.602.164 1.698.203 2.34.082a5.51 5.51 0 0 0 4.437-4.437c.121-.642.082-1.738-.082-2.34-.256-.939-.674-1.693-1.313-2.371a5.46 5.46 0 0 0-2.875-1.635c-.459-.1-1.49-.139-1.915-.072m1.526 2.029c.155.032.51.167.789.301a3.46 3.46 0 0 1 1.845 2.255c.117.452.117 1.253.001 1.707-.305 1.184-1.171 2.102-2.352 2.49-.354.117-.528.142-1.014.144-1.005.005-1.763-.309-2.486-1.03-.331-.329-.451-.498-.65-.911-.307-.638-.381-1.014-.343-1.749.048-.927.346-1.599.998-2.252.501-.502 1.187-.871 1.814-.975.281-.048 1.127-.035 1.398.02M6.533 17.075c-1.558.172-2.84.914-3.628 2.099-.443.666-.68 1.305-.829 2.239-.089.563-.133 5.408-.051 5.772a1 1 0 0 0 1.149.791c.316-.047.694-.373.769-.663.027-.106.06-1.417.074-2.913.02-2.213.04-2.787.108-3.082.245-1.06.965-1.828 2.008-2.141.381-.114 1.582-.187 3.12-.19 1.422-.003 1.561-.036 1.823-.432.124-.187.151-.285.151-.555q0-.622-.52-.874c-.225-.108-.302-.112-1.991-.106-.966.004-1.948.029-2.183.055m11.2-.024c-.524.048-1.185.189-1.563.335-1.544.595-2.634 1.878-3.013 3.546-.101.446-.11.694-.13 3.378-.02 2.889-.02 2.897.096 3.136.171.354.46.527.877.527q.621 0 .874-.52c.109-.226.113-.301.114-2.47.001-2.37.051-3.38.19-3.861a2.82 2.82 0 0 1 1.94-1.944c.555-.163 1.688-.203 4.972-.176 2.719.022 3.219.038 3.56.116 1.148.262 1.96 1.065 2.226 2.2.069.296.091.879.118 3.189.031 2.69.038 2.835.138 3.001.353.584 1.239.642 1.645.109.248-.325.264-.551.235-3.292-.021-1.942-.047-2.657-.111-3.045-.189-1.151-.628-2.047-1.361-2.776-.835-.83-1.838-1.291-3.127-1.436-.441-.049-7.161-.065-7.68-.017"/></svg>