<svg xmlns="http://www.w3.org/2000/svg" width="32" height="32" fill="none"><g clip-path="url(#a)"><path fill="#1A1C1F" fill-rule="evenodd" d="M27.425 17.653a4.76 4.76 0 0 1 1.922 1.922c.451.842.63 1.666.651 3.174L30 27a1 1 0 0 1-1 1 .997.997 0 0 1-1.005-1v-4.43c-.026-1.058-.144-1.552-.411-2.052a2.63 2.63 0 0 0-1.102-1.102c-.535-.286-1.065-.401-2.288-.415L19.02 19c-1.367 0-1.934.112-2.502.416a2.63 2.63 0 0 0-1.102 1.102c-.285.533-.401 1.064-.415 2.255L15 27a1 1 0 1 1-2 0v-3.98c0-1.67.174-2.551.652-3.445a4.63 4.63 0 0 1 1.923-1.922c.838-.449 1.665-.63 3.141-.65l5.42-.003c.962 0 2.209.054 3.29.652M10.25 17a1 1 0 0 1 1 1 .993.993 0 0 1-1 1H8.128q-.26 0-1.088.03c-.717.05-1.115.169-1.522.386a2.64 2.64 0 0 0-1.102 1.102c-.217.407-.335.805-.386 1.523L4 23.128V27a1 1 0 1 1-2 0v-3.872c0-1.777.168-2.648.652-3.553a4.63 4.63 0 0 1 1.923-1.922c.852-.456 1.674-.632 3.248-.651zM21.5 4a5.5 5.5 0 1 0 0 11 5.5 5.5 0 0 0 0-11m0 2a3.5 3.5 0 1 1 0 7 3.5 3.5 0 0 1 0-7m-11-2c1.11 0 2.174.33 3.075.94a1 1 0 0 1-1.12 1.657 3.5 3.5 0 1 0-.016 5.817 1 1 0 1 1 1.111 1.663A5.5 5.5 0 1 1 10.5 4" clip-rule="evenodd"/></g><defs><clipPath id="a"><path fill="#fff" d="M0 0h32v32H0z"/></clipPath></defs></svg>