<svg xmlns="http://www.w3.org/2000/svg" width="24" height="24" fill="none"><g clip-path="url(#a)"><path fill="#1A1C1F" fill-rule="evenodd" d="M16.125 13.031c2.75 0 4.875 2.063 4.875 5.094V21c0 .563-.437 1-1 1s-1-.437-1-1v-2.875c0-2.531-1.875-3.094-2.781-3.094-1.25.625-2.688.969-4.219.969s-2.969-.344-4.219-.969c-.937 0-2.781.563-2.781 3.094V21c0 .563-.437 1-1 1s-1-.437-1-1v-2.875c0-2.906 2.094-5.094 4.719-5.094.312 0 .718.063.937.188C9.625 13.75 10.75 14 12 14s2.375-.25 3.344-.781c.25-.125.531-.188.781-.188M12 2c2.75 0 5 2.25 5 5s-2.25 5-5 5-5-2.25-5-5 2.25-5 5-5m0 2a3 3 0 1 0 .002 6.002A3 3 0 0 0 12 4" clip-rule="evenodd"/></g><defs><clipPath id="a"><path fill="#fff" d="M0 0h24v24H0z"/></clipPath></defs></svg>