<svg xmlns="http://www.w3.org/2000/svg" width="14" height="14" fill="none"><g clip-path="url(#a)"><path fill="#1A1C1F" fill-rule="evenodd" d="M2.798 12.601a.69.69 0 0 0 .698-.698v-1.396c0-.397.315-.712.698-.712h5.612c.383 0 .698.315.698.712v1.396c0 .397.315.698.698.698a.69.69 0 0 0 .698-.698v-1.396a2.106 2.106 0 0 0-2.094-2.108H4.194c-1.15 0-2.094.944-2.094 2.108v1.396c0 .397.315.698.698.698M7 1.399a2.8 2.8 0 0 1 2.806 2.792A2.81 2.81 0 0 1 7 6.997a2.8 2.8 0 0 1-2.792-2.806A2.786 2.786 0 0 1 7 1.4m.004 1.4c-.769 0-1.4.631-1.4 1.4 0 .782.631 1.4 1.4 1.4.782 0 1.4-.618 1.4-1.4 0-.769-.618-1.4-1.4-1.4" clip-rule="evenodd"/></g><defs><clipPath id="a"><path fill="#fff" d="M0 0h14v14H0z"/></clipPath></defs></svg>