<svg xmlns="http://www.w3.org/2000/svg" width="12" height="12" fill="none"><g clip-path="url(#a)"><path fill="#1A1C1F" fill-rule="evenodd" d="M2.398 10.8a.593.593 0 0 0 .599-.598V9.007c0-.34.27-.61.598-.61h4.81c.329 0 .598.27.598.61v1.197c0 .34.27.598.599.598a.593.593 0 0 0 .598-.598V9.006c0-.997-.81-1.807-1.795-1.807h-4.81C2.61 7.2 1.8 8.01 1.8 9.006v1.197c0 .34.27.598.598.598M6 1.2a2.4 2.4 0 0 1 2.405 2.392A2.41 2.41 0 0 1 6 5.997a2.4 2.4 0 0 1-2.393-2.405A2.39 2.39 0 0 1 6 1.2m.003 1.2c-.658 0-1.2.54-1.2 1.2 0 .67.542 1.2 1.2 1.2.67 0 1.2-.53 1.2-1.2 0-.66-.53-1.2-1.2-1.2" clip-rule="evenodd"/></g><defs><clipPath id="a"><path fill="#fff" d="M0 0h12v12H0z"/></clipPath></defs></svg>