<svg xmlns="http://www.w3.org/2000/svg" width="14" height="14" fill="none"><g clip-path="url(#a)"><path fill="#1A1C1F" fill-rule="evenodd" d="M10.011 7c.691 0 1.074.078 1.466.296.365.204.653.504.846.88.187.364.264.72.275 1.321L12.6 11.2a.7.7 0 1 1-1.4 0q-.005-.888-.003-1.776c-.01-.323-.046-.466-.12-.609a.7.7 0 0 0-.282-.296c-.128-.071-.256-.106-.556-.116L8.174 8.4c-.457 0-.613.032-.77.12a.7.7 0 0 0-.282.295c-.072.142-.108.285-.119.6L7 11.2a.7.7 0 1 1-1.4 0V9.652c0-.693.074-1.08.277-1.476.193-.376.481-.676.846-.88.355-.197.704-.28 1.274-.294zM4.375 7a.7.7 0 1 1 0 1.4l-.686.007c-.25.014-.365.048-.482.113a.7.7 0 0 0-.284.297c-.06.116-.095.232-.111.453L2.8 11.2a.7.7 0 1 1-1.4 0V9.694c0-.734.071-1.118.278-1.52a2.1 2.1 0 0 1 .85-.878c.362-.201.713-.282 1.322-.294zM9.1 2.1a2.1 2.1 0 1 0 0 4.2 2.1 2.1 0 0 0 0-4.2m0 1.4a.7.7 0 1 1 0 1.4.7.7 0 0 1 0-1.4M4.9 2.1q.319 0 .62.093a.7.7 0 0 1-.334 1.357A1.1 1.1 0 0 0 4.9 3.5a.7.7 0 1 0 .185 1.375.7.7 0 0 1 .368 1.351A2.102 2.102 0 0 1 2.8 4.2c0-1.16.94-2.1 2.1-2.1" clip-rule="evenodd"/></g><defs><clipPath id="a"><path fill="#fff" d="M0 0h14v14H0z"/></clipPath></defs></svg>