<svg xmlns="http://www.w3.org/2000/svg" width="32" height="32" fill="none"><path fill="#1A1C1F" fill-rule="evenodd" d="M7.858 2.108c-1.022.275-1.771.997-2.13 2.052-.138.406-.139 1.298-.001 1.707C6.161 7.15 7.301 8 8.589 8a2.995 2.995 0 0 0 2.998-2.96c.007-.85-.276-1.53-.888-2.135-.413-.409-.851-.669-1.341-.797-.385-.1-1.129-.1-1.5 0m14.549.003c-.741.199-1.522.805-1.855 1.439-.291.555-.364.848-.364 1.463 0 .405.028.642.099.854C20.73 7.177 21.853 8 23.199 8c.411 0 1.066-.175 1.433-.382.638-.361 1.211-1.097 1.425-1.831.131-.447.12-1.175-.024-1.627-.315-.99-1.15-1.8-2.115-2.052-.389-.101-1.13-.1-1.511.003M9.064 4.159c.717.366.703 1.409-.025 1.762-.657.317-1.412-.144-1.412-.863 0-.311.071-.506.256-.704a1.02 1.02 0 0 1 1.181-.195m14.493-.049c.345.13.604.5.612.87.013.646-.479 1.104-1.109 1.033-.914-.103-1.166-1.42-.353-1.849.221-.117.616-.142.85-.054M6.039 9.55c-.519.102-1.092.567-1.345 1.089-.141.291-1.765 8.906-1.768 9.374-.004.833.568 1.603 1.376 1.853.246.075.498.107.85.107h.501v3.602c0 3.927-.008 3.817.305 4.144.237.247.662.331 1.042.205.211-.069.489-.34.57-.554.038-.101.056-1.522.055-4.373-.001-4.034-.005-4.234-.102-4.447a.94.94 0 0 0-.328-.373c-.226-.15-.229-.15-1.258-.167-.654-.01-1.03-.036-1.03-.071 0-.054 1.47-8.125 1.521-8.352l.027-.12h2.159c1.367 0 2.159.019 2.159.052 0 .052 1.472 8.141 1.522 8.361l.027.12h-.963c-1.047 0-1.224.036-1.507.307-.305.293-.305.299-.305 4.703 0 2.676.019 4.098.057 4.234.073.265.379.6.619.679.481.159.984-.03 1.185-.446.11-.227.112-.284.112-3.862v-3.63l.627-.023c.474-.018.697-.051.92-.138.42-.165.813-.53 1.018-.946.309-.629.322-.513-.617-5.518-.484-2.581-.879-4.552-.94-4.689a1.97 1.97 0 0 0-1.3-1.095c-.265-.069-.7-.082-2.639-.077-1.277.003-2.425.026-2.55.051m13.056.029c-.795.213-1.363.874-1.47 1.71-.024.187.152 1.572.639 5.031.369 2.625.698 4.857.73 4.96.134.425.556.69 1.099.692l.334.001v3.624c0 2.43.018 3.672.056 3.773.07.184.294.427.488.528.209.11.649.095.893-.03.227-.116.38-.304.475-.583.081-.24.087-8.257.005-8.55-.134-.483-.536-.732-1.184-.734-.239-.001-.413-.023-.413-.054 0-.03-.252-1.911-.56-4.181a409 409 0 0 1-.56-4.213c0-.079.331-.086 3.75-.086h3.751l-.602 4.2a653 653 0 0 0-.604 4.266c-.001.047-.117.067-.389.068-.665.002-1.044.269-1.157.815-.041.196-.055 1.54-.044 4.36l.015 4.077.132.232a.983.983 0 0 0 1.708 0l.133-.232.015-3.662.015-3.662.242-.082c.55-.188 1.115-.802 1.242-1.351.118-.511 1.238-8.692 1.237-9.037a1.96 1.96 0 0 0-1.469-1.883c-.462-.12-8.059-.118-8.507.003"/></svg>