<svg xmlns="http://www.w3.org/2000/svg" width="12" height="12" fill="none"><g clip-path="url(#a)"><path fill="#1A1C1F" fill-rule="evenodd" d="M9.861 4.2c.563 0 1.05.469.938 1.106l-.507 2.588c-.018.15-.131.3-.281.393V10.2c0 .338-.262.6-.581.6a.59.59 0 0 1-.6-.6V7.762c0-.243.15-.468.394-.543L9.58 5.38H7.499l.375 1.838c.243.075.393.3.393.543V10.2c0 .338-.262.6-.6.6a.59.59 0 0 1-.581-.6V8.287c-.15-.093-.262-.243-.281-.393L6.28 5.325c-.113-.525.3-1.125.956-1.125zm-1.313-.656a1.172 1.172 0 1 0-.02-2.343 1.172 1.172 0 0 0 .02 2.343m-4.23.656c.487 0 .9.337.956.806L5.705 7.2a.984.984 0 0 1-.787 1.144V10.2c0 .356-.282.6-.582.6a.59.59 0 0 1-.6-.6V7.762c0-.337.263-.6.6-.6h.15l-.337-1.78H2.78l-.356 1.78h.131c.338 0 .6.263.6.6V10.2c0 .338-.262.6-.6.6a.59.59 0 0 1-.581-.6V8.344A.953.953 0 0 1 1.205 7.2l.45-2.213c.056-.468.469-.787.938-.787zm-.863-.656a1.172 1.172 0 1 0-.02-2.343 1.172 1.172 0 0 0 .02 2.343" clip-rule="evenodd"/></g><defs><clipPath id="a"><path fill="#fff" d="M0 0h12v12H0z"/></clipPath></defs></svg>