<svg xmlns="http://www.w3.org/2000/svg" width="14" height="14" fill="none"><g clip-path="url(#a)"><path fill="#1A1C1F" fill-rule="evenodd" d="M11.505 4.9c.656 0 1.225.547 1.093 1.29l-.59 3.02c-.022.174-.153.35-.328.459V11.9c0 .394-.307.7-.678.7a.69.69 0 0 1-.7-.7V9.056c0-.284.175-.547.459-.634l.416-2.144H8.748l.438 2.144c.284.087.46.35.46.634V11.9c0 .394-.307.7-.7.7a.687.687 0 0 1-.679-.7V9.669c-.175-.11-.306-.285-.328-.46l-.613-2.996C7.196 5.6 7.676 4.9 8.442 4.9zm-1.533-.766a1.368 1.368 0 0 0 0-2.734c-.766 0-1.378.613-1.378 1.378 0 .744.612 1.356 1.378 1.356M5.037 4.9c.57 0 1.05.394 1.116.94l.503 2.56a1.15 1.15 0 0 1-.919 1.334V11.9c0 .416-.328.7-.678.7a.69.69 0 0 1-.7-.7V9.056c0-.393.306-.7.7-.7h.175L4.84 6.278H3.244l-.416 2.078h.153c.394 0 .7.307.7.7V11.9c0 .394-.306.7-.7.7a.686.686 0 0 1-.678-.7V9.734A1.11 1.11 0 0 1 1.406 8.4l.525-2.581c.066-.547.547-.919 1.094-.919zm-1.006-.766a1.368 1.368 0 0 0 0-2.734c-.766 0-1.378.613-1.378 1.378 0 .744.612 1.356 1.378 1.356" clip-rule="evenodd"/></g><defs><clipPath id="a"><path fill="#fff" d="M0 0h14v14H0z"/></clipPath></defs></svg>