<svg xmlns="http://www.w3.org/2000/svg" width="20" height="20" fill="none"><g clip-path="url(#a)"><path fill="#1A1C1F" fill-rule="evenodd" d="M16.435 7c.938 0 1.75.781 1.563 1.844l-.844 4.312c-.031.25-.219.5-.469.656V17a.98.98 0 0 1-.969 1c-.562 0-1-.437-1-1v-4.062c0-.407.25-.782.657-.907l.593-3.062h-3.468l.625 3.062c.406.125.656.5.656.906V17c0 .563-.438 1-1 1a.98.98 0 0 1-.969-1v-3.187c-.25-.157-.437-.407-.469-.657l-.875-4.281C10.28 8 10.966 7 12.06 7zm-2.19-1.094a1.947 1.947 0 0 0 1.938-1.937c0-1.094-.875-1.969-1.937-1.969a1.96 1.96 0 0 0-1.969 1.969c0 1.062.875 1.937 1.969 1.937M7.197 7c.813 0 1.5.563 1.594 1.344L9.509 12a1.64 1.64 0 0 1-1.313 1.906V17a.98.98 0 0 1-.969 1c-.562 0-1-.437-1-1v-4.062c0-.563.438-1 1-1h.25l-.562-2.97H4.634l-.594 2.97h.219c.562 0 1 .437 1 1V17c0 .563-.438 1-1 1a.98.98 0 0 1-.97-1v-3.094A1.59 1.59 0 0 1 2.01 12l.75-3.687C2.852 7.53 3.539 7 4.32 7zM5.76 5.906A1.947 1.947 0 0 0 7.696 3.97C7.696 2.875 6.821 2 5.76 2a1.96 1.96 0 0 0-1.97 1.969c0 1.062.876 1.937 1.97 1.937" clip-rule="evenodd"/></g><defs><clipPath id="a"><path fill="#fff" d="M0 0h20v20H0z"/></clipPath></defs></svg>