<svg xmlns="http://www.w3.org/2000/svg" width="24" height="24" fill="none"><g clip-path="url(#a)"><path fill="#1A1C1F" fill-rule="evenodd" d="M8.23 7.75c.844 0 1.562.593 1.687 1.437l.75 4.781c.157 1.063-.562 2-1.78 2v5.064a.974.974 0 0 1-.97.969.974.974 0 0 1-.968-.97v-6.063c0-.531.437-.969.968-.969H8.7L8.01 9.687H4.886l-.656 4.312h.812c.532 0 .97.438.97.97v6.063c0 .531-.47.969-1 .969-.5 0-.97-.438-.97-.97v-5.063c-1.156 0-1.968-.875-1.812-2l.781-4.781A1.686 1.686 0 0 1 4.7 7.749zm11.852 0c1.032 0 1.844.906 1.688 1.906l-.75 5.343a1.64 1.64 0 0 1-1.063 1.313v4.719a.974.974 0 0 1-.968.968.974.974 0 0 1-.97-.968v-5.594c0-.531.345-.969 1.126-.969l.656-4.781h-4.594l.688 4.781c.75 0 1.156.406 1.156.969v5.594a.974.974 0 0 1-.969.968.974.974 0 0 1-.968-.968v-4.719c-.563-.219-1-.719-1.094-1.281l-.781-5.313a1.666 1.666 0 0 1 1.656-1.969zM6.45 2a2.25 2.25 0 1 1 0 4.5 2.25 2.25 0 0 1 0-4.5M17.5 2a2.25 2.25 0 1 1 0 4.5 2.25 2.25 0 0 1 0-4.5" clip-rule="evenodd"/></g><defs><clipPath id="a"><path fill="#fff" d="M0 0h24v24H0z"/></clipPath></defs></svg>