<svg xmlns="http://www.w3.org/2000/svg" width="28" height="28" fill="none"><g clip-path="url(#a)"><path fill="#1A1C1F" fill-rule="evenodd" d="m2.579 17.171 1.394-7.463c.158-.795.875-1.395 1.668-1.395h3.772c.82 0 1.51.6 1.668 1.395l1.394 7.436a1.715 1.715 0 0 1-1.695 2.078h-.683V25.4a.85.85 0 0 1-.848.848c-.464 0-.874-.383-.874-.848v-7.053c0-.465.41-.848.874-.848h1.531l-1.367-7.463H5.641l-1.367 7.463h1.53c.493 0 .875.383.875.848V25.4a.86.86 0 0 1-.874.848.85.85 0 0 1-.848-.848v-6.178h-.683a1.734 1.734 0 0 1-1.695-2.05M7.527 1.752c1.449 0 2.625 1.197 2.625 2.639a2.62 2.62 0 0 1-2.625 2.611 2.62 2.62 0 0 1-2.625-2.611c0-1.442 1.176-2.639 2.625-2.639m0 1.777a.864.864 0 0 0-.875.875c0 .492.383.875.875.875a.864.864 0 0 0 .875-.875.864.864 0 0 0-.875-.875m7.901 6.78a1.747 1.747 0 0 1 1.723-1.996h6.588c1.04 0 1.85.956 1.695 1.996l-1.039 7.436c-.105.712-.656 1.285-1.366 1.45V25.4a.86.86 0 0 1-.875.848.85.85 0 0 1-.848-.848v-7.053c0-.465.383-.848.848-.848h.52l1.065-7.463h-6.588l1.011 7.463h.547c.492 0 .875.383.875.848V25.4a.86.86 0 0 1-.875.848.85.85 0 0 1-.848-.848v-6.178h-.437a.88.88 0 0 1-.848-.739zm4.853-8.557c1.415 0 2.612 1.197 2.612 2.639s-1.197 2.611-2.612 2.611a2.62 2.62 0 0 1-2.638-2.611 2.64 2.64 0 0 1 2.638-2.639m.014 1.777a.864.864 0 0 0-.875.875c0 .492.382.875.875.875a.88.88 0 0 0 .874-.875.88.88 0 0 0-.874-.875" clip-rule="evenodd"/></g><defs><clipPath id="a"><path fill="#fff" d="M0 0h28v28H0z"/></clipPath></defs></svg>