<svg xmlns="http://www.w3.org/2000/svg" width="32" height="32" fill="none"><g clip-path="url(#a)"><path fill="#1A1C1F" fill-rule="evenodd" d="m2.947 19.624 1.594-8.53c.18-.907 1-1.593 1.905-1.593h4.312c.938 0 1.725.686 1.906 1.594l1.594 8.498a1.96 1.96 0 0 1-1.937 2.375h-.782v7.061a.973.973 0 0 1-.968.969c-.531 0-1-.438-1-.969v-8.061c0-.531.469-.969 1-.969h1.75l-1.563-8.53H6.446L4.884 20h1.75a.98.98 0 0 1 1 .969v8.061a.98.98 0 0 1-1 .969.973.973 0 0 1-.969-.969v-7.061h-.78c-1.25 0-2.172-1.165-1.938-2.344M8.602 2.002c1.656 0 3 1.368 3 3.016a2.993 2.993 0 0 1-3 2.984c-1.656 0-3-1.336-3-2.984s1.344-3.016 3-3.016m0 2.031c-.562 0-1 .438-1 1s.438 1 1 1 1-.437 1-1-.437-1-1-1m9.03 7.749A1.997 1.997 0 0 1 19.601 9.5h7.53c1.187 0 2.113 1.092 1.937 2.28l-1.187 8.5c-.121.813-.75 1.468-1.563 1.656v7.092a.98.98 0 0 1-1 .969.973.973 0 0 1-.968-.969v-8.061c0-.531.437-.969.968-.969h.594l1.219-8.53H19.6L20.757 20h.625a.98.98 0 0 1 1 .969v8.061a.98.98 0 0 1-1 .969.973.973 0 0 1-.969-.969v-7.061h-.5c-.469 0-.9-.376-.968-.844zm5.547-9.78c1.616 0 2.984 1.368 2.984 3.016s-1.368 2.984-2.984 2.984a2.99 2.99 0 0 1-3.016-2.984 3.02 3.02 0 0 1 3.016-3.016m.015 2.031c-.563 0-1 .438-1 1s.437 1 1 1c.531 0 1-.437 1-1s-.469-1-1-1" clip-rule="evenodd"/></g><defs><clipPath id="a"><path fill="#fff" d="M0 0h32v32H0z"/></clipPath></defs></svg>