<svg xmlns="http://www.w3.org/2000/svg" width="24" height="24" fill="none"><g clip-path="url(#a)"><path fill="#1A1C1F" fill-rule="evenodd" d="M7.739 9.719A1.666 1.666 0 0 1 9.395 7.75h5.187c1.032 0 1.844.906 1.688 1.906L15.52 15a1.64 1.64 0 0 1-1.063 1.313v4.718a.974.974 0 0 1-.968.969.974.974 0 0 1-.97-.969v-5.593c0-.532.345-.97 1.126-.97l.656-4.78H9.707l.688 4.78c.75 0 1.156.407 1.156.97v5.593a.974.974 0 0 1-.969.969.974.974 0 0 1-.968-.969v-4.718c-.563-.22-1-.72-1.094-1.282zM9.75 4.25a2.25 2.25 0 1 0 4.5 0 2.25 2.25 0 0 0-4.5 0" clip-rule="evenodd"/></g><defs><clipPath id="a"><path fill="#fff" d="M0 0h24v24H0z"/></clipPath></defs></svg>