<svg xmlns="http://www.w3.org/2000/svg" width="32" height="32" fill="none"><g clip-path="url(#a)"><path fill="#1A1C1F" fill-rule="evenodd" d="M10.282 11.782A1.997 1.997 0 0 1 12.251 9.5h7.53c1.187 0 2.113 1.092 1.937 2.28l-1.188 8.5c-.12.813-.75 1.468-1.562 1.656v7.092a.98.98 0 0 1-1 .969.973.973 0 0 1-.968-.969v-8.061c0-.531.437-.969.968-.969h.594l1.218-8.53h-7.53L13.408 20h.624a.98.98 0 0 1 1 .969v8.061a.98.98 0 0 1-1 .969.973.973 0 0 1-.968-.969v-7.061h-.5c-.469 0-.9-.376-.969-.844zm5.547-9.78c1.616 0 2.984 1.368 2.984 3.016s-1.368 2.984-2.984 2.984a2.99 2.99 0 0 1-3.016-2.984 3.02 3.02 0 0 1 3.015-3.016m.015 2.031c-.563 0-1 .438-1 1s.437 1 1 1c.53 0 1-.437 1-1s-.47-1-1-1" clip-rule="evenodd"/></g><defs><clipPath id="a"><path fill="#fff" d="M0 0h32v32H0z"/></clipPath></defs></svg>