<svg xmlns="http://www.w3.org/2000/svg" width="12" height="12" fill="none"><g clip-path="url(#a)"><path fill="#1A1C1F" fill-rule="evenodd" d="M7.323 4.2c.562 0 1.05.469.937 1.106l-.506 2.588c-.019.15-.131.3-.281.393V10.2c0 .338-.263.6-.581.6a.59.59 0 0 1-.6-.6V7.762c0-.243.15-.468.393-.543l.357-1.838H4.96l.375 1.838c.244.075.394.3.394.543V10.2c0 .338-.262.6-.6.6a.59.59 0 0 1-.581-.6V8.287c-.15-.093-.263-.243-.281-.393l-.525-2.569c-.113-.525.3-1.125.956-1.125zm-1.314-.656A1.172 1.172 0 1 0 5.99 1.2a1.172 1.172 0 0 0 .02 2.343" clip-rule="evenodd"/></g><defs><clipPath id="a"><path fill="#fff" d="M0 0h12v12H0z"/></clipPath></defs></svg>