<svg xmlns="http://www.w3.org/2000/svg" width="28" height="28" fill="none"><g clip-path="url(#a)"><path fill="#1A1C1F" fill-rule="evenodd" d="M8.997 10.31a1.747 1.747 0 0 1 1.722-1.997h6.589c1.039 0 1.85.956 1.695 1.996l-1.039 7.436c-.105.712-.656 1.285-1.367 1.45V25.4a.86.86 0 0 1-.875.848.85.85 0 0 1-.847-.848v-7.053c0-.465.383-.848.847-.848h.52l1.066-7.463h-6.589l1.012 7.463h.547c.492 0 .874.383.874.848V25.4a.86.86 0 0 1-.874.848.85.85 0 0 1-.848-.848v-6.178h-.437a.88.88 0 0 1-.848-.739zm4.853-8.558c1.415 0 2.611 1.197 2.611 2.639s-1.196 2.611-2.611 2.611a2.62 2.62 0 0 1-2.639-2.611 2.64 2.64 0 0 1 2.639-2.639m.013 1.777a.864.864 0 0 0-.874.875c0 .492.382.875.874.875a.88.88 0 0 0 .875-.875.88.88 0 0 0-.875-.875" clip-rule="evenodd"/></g><defs><clipPath id="a"><path fill="#fff" d="M0 0h28v28H0z"/></clipPath></defs></svg>