<svg xmlns="http://www.w3.org/2000/svg" width="20" height="20" fill="none"><g clip-path="url(#a)"><path fill="#1A1C1F" fill-rule="evenodd" d="M12.205 7c.938 0 1.75.781 1.563 1.844l-.844 4.312c-.031.25-.22.5-.47.656V17a.98.98 0 0 1-.968 1c-.562 0-1-.437-1-1v-4.062c0-.407.25-.782.656-.907l.594-3.062H8.267l.625 3.062c.407.125.657.5.657.906V17c0 .563-.438 1-1 1a.98.98 0 0 1-.97-1v-3.187c-.25-.157-.437-.407-.468-.657l-.875-4.281C6.05 8 6.736 7 7.83 7zm-2.19-1.094a1.947 1.947 0 0 0 1.938-1.937c0-1.094-.875-1.969-1.937-1.969a1.96 1.96 0 0 0-1.97 1.969c0 1.062.876 1.937 1.97 1.937" clip-rule="evenodd"/></g><defs><clipPath id="a"><path fill="#fff" d="M0 0h20v20H0z"/></clipPath></defs></svg>