<svg xmlns="http://www.w3.org/2000/svg" width="14" height="14" fill="none"><g clip-path="url(#a)"><path fill="#1A1C1F" fill-rule="evenodd" d="M8.543 4.9c.657 0 1.225.547 1.094 1.29l-.59 3.02c-.022.174-.154.35-.329.459V11.9c0 .394-.306.7-.678.7a.69.69 0 0 1-.7-.7V9.056c0-.284.175-.547.46-.634l.415-2.144H5.787l.438 2.144c.284.087.46.35.46.634V11.9c0 .394-.307.7-.7.7a.687.687 0 0 1-.68-.7V9.669c-.174-.11-.305-.285-.327-.46l-.613-2.996C4.235 5.6 4.715 4.9 5.481 4.9zm-1.532-.766a1.368 1.368 0 0 0 0-2.734c-.766 0-1.378.613-1.378 1.378 0 .744.612 1.356 1.378 1.356" clip-rule="evenodd"/></g><defs><clipPath id="a"><path fill="#fff" d="M0 0h14v14H0z"/></clipPath></defs></svg>