<svg xmlns="http://www.w3.org/2000/svg" width="32" height="32" fill="none"><path fill="#1A1C1F" fill-rule="evenodd" d="M15.047 2.111c-1.5.403-2.491 1.988-2.175 3.475.132.622.367 1.05.83 1.511.658.657 1.426.95 2.322.887.79-.056 1.446-.377 1.996-.976 1.124-1.227 1.037-3.048-.199-4.192a3.1 3.1 0 0 0-1.263-.708c-.389-.101-1.13-.1-1.511.003m1.345 2.104c.403.276.557.88.326 1.275-.417.712-1.394.706-1.765-.011-.227-.439-.019-1.093.419-1.316.305-.155.751-.132 1.02.052m-4.657 5.363c-.744.202-1.287.805-1.44 1.597-.057.297-.016.641.608 5.092.368 2.625.694 4.862.724 4.971.129.456.544.732 1.106.734l.334.001v3.629c0 2.962.013 3.66.073 3.8.326.762 1.465.767 1.801.007.097-.221.101-.4.087-4.49l-.015-4.26-.133-.197c-.206-.304-.571-.462-1.066-.462h-.405l-.548-4.067c-.302-2.236-.562-4.156-.578-4.266l-.03-.2h7.531l-.027.146c-.024.13-1.197 8.333-1.197 8.372 0 .008-.174.016-.387.016-.474.002-.764.121-.979.402l-.154.202-.016 4.244c-.008 2.334-.001 4.323.016 4.419.037.2.293.515.512.628.356.184.987.038 1.209-.281.223-.321.226-.374.226-4.092v-3.582l.2-.07c.547-.191 1.033-.662 1.229-1.191.068-.185.316-1.802.727-4.75.579-4.154.619-4.492.56-4.773a1.95 1.95 0 0 0-.581-1.082 1.8 1.8 0 0 0-.616-.426l-.319-.129-4.08-.011c-3.465-.009-4.124.002-4.372.069"/></svg>