<svg xmlns="http://www.w3.org/2000/svg" width="16" height="16" fill="none"><g clip-path="url(#a)"><path fill="#1A1C1F" fill-rule="evenodd" d="M9.764 5.6c.75 0 1.4.625 1.25 1.475l-.675 3.45c-.025.2-.175.4-.375.525v2.55c0 .45-.35.8-.775.8a.79.79 0 0 1-.8-.8v-3.25c0-.325.2-.625.525-.725l.475-2.45H6.614l.5 2.45c.325.1.525.4.525.725v3.25c0 .45-.35.8-.8.8a.785.785 0 0 1-.775-.8v-2.55c-.2-.125-.35-.325-.375-.525l-.7-3.425c-.15-.7.4-1.5 1.275-1.5zm-1.751-.875a1.563 1.563 0 0 0 0-3.125c-.875 0-1.575.7-1.575 1.575 0 .85.7 1.55 1.575 1.55" clip-rule="evenodd"/></g><defs><clipPath id="a"><path fill="#fff" d="M0 0h16v16H0z"/></clipPath></defs></svg>