<svg xmlns="http://www.w3.org/2000/svg" width="16" height="16" fill="none"><g clip-path="url(#a)"><path fill="#1A1C1F" fill-rule="evenodd" d="M1.6 5.213c0-.476.425-.776.825-.776a.75.75 0 0 1 .75.6l.694 3.19.781-3.214c.092-.378.45-.576.775-.576s.684.191.775.576l.764 3.226.686-3.202c.092-.426.425-.6.75-.6.425 0 .825.3.825.776a1 1 0 0 1-.025.224l-1.45 5.575c-.104.4-.45.576-.775.576s-.663-.179-.775-.575l-.8-2.825-.8 2.824c-.114.404-.45.576-.775.576a.79.79 0 0 1-.775-.6l-1.425-5.55a1 1 0 0 1-.025-.225m7.975 2.824c0-3.3 1.95-3.65 2.8-3.65.5 0 1.025.1 1.5.326.35.15.5.424.5.7 0 .424-.325.85-.775.85a.8.8 0 0 1-.325-.075c-.275-.125-.55-.2-.825-.2-.35 0-1.275 0-1.275 2.05 0 1.974.825 1.974 1.275 1.974.3-.024.6-.1.875-.2.1-.024.2-.05.3-.05.45 0 .775.426.775.85 0 .3-.15.576-.525.726-.475.15-.975.25-1.475.275-1.05 0-2.825-.476-2.825-3.576" clip-rule="evenodd"/></g><defs><clipPath id="a"><path fill="#fff" d="M0 0h16v16H0z"/></clipPath></defs></svg>