<svg xmlns="http://www.w3.org/2000/svg" width="28" height="28" fill="none"><g clip-path="url(#a)"><path fill="#1A1C1F" fill-rule="evenodd" d="M22.723 7.096c.984 0 1.969.218 2.898.629.383.164.547.464.547.793 0 .437-.355.902-.848.902a.84.84 0 0 1-.355-.082 5.6 5.6 0 0 0-2.352-.492c-1.011 0-3.636.164-3.636 5.222 0 4.567 2.16 5.086 3.8 5.086a7 7 0 0 0 2.215-.437q.206-.082.41-.082c.493 0 .848.465.848.93 0 .3-.164.574-.52.738a8.5 8.5 0 0 1-2.953.601c-2.543 0-5.55-1.176-5.55-6.836 0-6.07 3.445-6.972 5.496-6.972M1.777 8.189c-.027-.082-.027-.164-.027-.246 0-.52.465-.847.902-.847.356 0 .711.191.82.656l2.243 8.805 2.543-8.832a.84.84 0 0 1 .82-.63c.383 0 .738.22.848.63l2.46 8.832 2.325-8.805c.11-.465.465-.656.82-.656.438 0 .902.328.902.847 0 .055-.027.164-.054.246l-3.117 11.922c-.11.438-.465.657-.848.657a.84.84 0 0 1-.82-.63L9.078 11.17l-2.57 8.969c-.11.437-.465.629-.82.629-.383 0-.739-.22-.848-.657z" clip-rule="evenodd"/></g><defs><clipPath id="a"><path fill="#fff" d="M0 0h28v28H0z"/></clipPath></defs></svg>