<svg xmlns="http://www.w3.org/2000/svg" width="24" height="24" fill="none"><g clip-path="url(#a)"><path fill="#1A1C1F" fill-rule="evenodd" d="M2 7.217c0-.559.528-.931 1.056-.931.404 0 .776.217.9.745l1.522 6.553L7.186 7c.125-.466.528-.683.932-.683.435 0 .839.217.963.714l1.646 6.522L12.28 7.03c.124-.528.496-.745.9-.745.497 0 1.025.403 1.025.994 0 .062 0 .155-.031.248l-2.453 9.441a.98.98 0 0 1-.963.745.95.95 0 0 1-.932-.714l-1.708-6.708L6.378 17c-.154.466-.558.714-.962.714a.95.95 0 0 1-.932-.745L2.062 7.528A1.1 1.1 0 0 1 2 7.218m12.267 4.845c0-5.248 3.261-5.807 4.659-5.807.807 0 1.645.186 2.39.528.436.155.622.497.622.87 0 .496-.404 1.024-.963 1.024a1.1 1.1 0 0 1-.404-.093 4.1 4.1 0 0 0-1.77-.373c-.776 0-2.546.187-2.546 3.851 0 3.292 1.428 3.727 2.701 3.727.56 0 1.119-.124 1.646-.31.156-.063.28-.094.435-.094.56 0 .963.528.963 1.025 0 .341-.186.683-.59.87a6.6 6.6 0 0 1-2.454.465c-1.739 0-4.689-.714-4.689-5.683" clip-rule="evenodd"/></g><defs><clipPath id="a"><path fill="#fff" d="M0 0h24v24H0z"/></clipPath></defs></svg>