<svg width="14" height="14" viewBox="0 0 14 14" fill="none" xmlns="http://www.w3.org/2000/svg"><path d="M10.453 3.874 C 9.964 3.932,9.512 4.159,9.168 4.520 C 8.890 4.812,8.732 5.086,8.589 5.524 C 8.431 6.006,8.359 6.664,8.388 7.350 C 8.414 7.932,8.548 8.511,8.751 8.916 C 9.149 9.707,9.887 10.150,10.807 10.150 C 11.349 10.150,12.102 9.978,12.335 9.802 C 12.465 9.704,12.569 9.521,12.592 9.350 C 12.626 9.093,12.468 8.784,12.228 8.640 C 12.029 8.520,11.958 8.520,11.521 8.635 C 11.169 8.729,11.120 8.736,10.838 8.737 C 10.540 8.738,10.531 8.737,10.378 8.661 C 10.128 8.538,9.982 8.321,9.879 7.915 C 9.690 7.168,9.787 6.092,10.083 5.647 C 10.195 5.479,10.284 5.402,10.453 5.323 C 10.571 5.268,10.608 5.263,10.885 5.263 C 11.183 5.263,11.194 5.265,11.480 5.365 C 11.852 5.495,11.994 5.502,12.177 5.402 C 12.318 5.324,12.435 5.198,12.512 5.042 C 12.584 4.895,12.584 4.605,12.513 4.468 C 12.437 4.323,12.303 4.211,12.086 4.109 C 11.638 3.899,11.008 3.809,10.453 3.874 M1.937 3.917 C 1.713 3.966,1.508 4.150,1.439 4.364 C 1.386 4.529,1.387 4.540,1.494 4.999 C 1.651 5.669,2.639 9.525,2.695 9.682 C 2.789 9.949,3.064 10.133,3.367 10.130 C 3.551 10.129,3.703 10.065,3.839 9.931 C 3.982 9.791,3.947 9.892,4.409 8.285 C 4.577 7.702,4.719 7.220,4.724 7.215 C 4.730 7.209,4.750 7.261,4.769 7.330 C 5.106 8.530,5.450 9.690,5.499 9.794 C 5.544 9.888,5.696 10.027,5.805 10.073 C 5.997 10.153,6.258 10.149,6.427 10.064 C 6.527 10.014,6.669 9.873,6.720 9.776 C 6.798 9.624,8.011 4.961,8.062 4.616 C 8.098 4.371,7.932 4.086,7.680 3.962 C 7.590 3.917,7.535 3.908,7.350 3.909 C 7.087 3.910,6.990 3.950,6.841 4.119 C 6.737 4.237,6.724 4.282,6.512 5.250 C 6.197 6.693,6.109 7.084,6.093 7.100 C 6.083 7.109,5.993 6.773,5.893 6.353 C 5.793 5.932,5.638 5.287,5.549 4.918 L 5.386 4.248 5.286 4.136 C 5.130 3.962,5.002 3.908,4.748 3.908 C 4.574 3.908,4.521 3.918,4.433 3.963 C 4.279 4.043,4.137 4.191,4.096 4.315 C 4.077 4.374,3.914 5.020,3.733 5.751 C 3.553 6.482,3.398 7.088,3.388 7.098 C 3.378 7.108,3.298 6.788,3.211 6.387 C 2.982 5.340,2.781 4.458,2.742 4.325 C 2.699 4.180,2.581 4.040,2.442 3.971 C 2.325 3.913,2.078 3.886,1.937 3.917 " fill="#1A1C1F" stroke="none" fill-rule="evenodd"></path></svg>