<svg width="24" height="24" viewBox="0 0 24 24" fill="none" xmlns="http://www.w3.org/2000/svg"><path d="M2.776 6.335 C 2.492 6.427,2.280 6.571,2.159 6.754 C 1.950 7.069,1.952 7.082,2.332 8.600 C 2.952 11.073,4.302 16.240,4.505 16.913 C 4.629 17.329,4.823 17.561,5.128 17.663 C 5.579 17.813,6.150 17.547,6.316 17.110 C 6.382 16.937,6.675 15.854,7.200 13.840 C 7.773 11.647,8.078 10.516,8.111 10.462 C 8.140 10.415,8.103 10.280,8.663 12.460 C 9.729 16.610,9.849 17.066,9.907 17.189 C 10.004 17.394,10.251 17.589,10.506 17.663 C 10.778 17.742,11.026 17.703,11.313 17.535 C 11.625 17.352,11.620 17.368,12.917 12.360 C 13.330 10.765,13.792 8.961,13.943 8.352 C 14.205 7.293,14.215 7.235,14.167 7.056 C 14.104 6.818,13.923 6.589,13.693 6.454 C 13.193 6.161,12.603 6.309,12.396 6.780 C 12.299 7.001,12.083 7.844,11.519 10.200 C 10.963 12.523,10.765 13.319,10.730 13.377 C 10.699 13.426,10.764 13.669,9.839 10.020 C 9.421 8.370,9.051 6.954,9.015 6.873 C 8.869 6.540,8.541 6.349,8.120 6.350 C 7.832 6.351,7.684 6.397,7.490 6.545 C 7.249 6.729,7.283 6.617,6.320 10.320 C 5.657 12.867,5.512 13.400,5.482 13.400 C 5.450 13.400,5.395 13.177,4.735 10.360 C 3.935 6.943,3.903 6.817,3.782 6.659 C 3.559 6.367,3.117 6.224,2.776 6.335 M18.168 6.323 C 16.619 6.524,15.368 7.521,14.776 9.026 C 14.445 9.869,14.323 10.580,14.292 11.841 C 14.261 13.094,14.354 13.834,14.657 14.739 C 14.914 15.506,15.226 16.032,15.717 16.523 C 16.347 17.153,17.045 17.495,18.036 17.661 C 18.597 17.755,19.760 17.725,20.332 17.602 C 20.842 17.492,21.435 17.279,21.618 17.139 C 22.052 16.808,22.112 16.205,21.757 15.756 C 21.468 15.391,21.087 15.335,20.360 15.550 C 19.691 15.748,19.509 15.771,18.792 15.750 C 18.032 15.727,17.803 15.666,17.429 15.386 C 16.654 14.804,16.339 13.967,16.292 12.360 C 16.241 10.621,16.529 9.499,17.196 8.839 C 17.663 8.378,18.041 8.239,18.818 8.241 C 19.413 8.243,19.757 8.303,20.421 8.519 C 21.001 8.708,21.134 8.710,21.429 8.537 C 21.931 8.243,22.074 7.550,21.728 7.085 C 21.533 6.822,20.625 6.476,19.763 6.336 C 19.395 6.276,18.579 6.270,18.168 6.323 " fill="#1A1C1F" stroke="none" fill-rule="evenodd"></path></svg>