<svg width="12" height="12" viewBox="0 0 12 12" fill="none" xmlns="http://www.w3.org/2000/svg"><path d="M8.936 3.322 C 8.269 3.419,7.720 3.853,7.451 4.494 C 7.255 4.962,7.196 5.319,7.194 6.040 C 7.193 6.651,7.222 6.872,7.359 7.283 C 7.497 7.694,7.662 7.966,7.922 8.207 C 8.485 8.730,9.273 8.835,10.303 8.527 C 10.596 8.439,10.759 8.268,10.793 8.014 C 10.822 7.794,10.687 7.529,10.482 7.406 C 10.310 7.303,10.250 7.303,9.865 7.403 C 9.556 7.483,9.511 7.490,9.280 7.490 C 9.037 7.490,9.025 7.488,8.895 7.424 C 8.681 7.318,8.556 7.132,8.468 6.784 C 8.344 6.295,8.364 5.565,8.513 5.113 C 8.607 4.827,8.809 4.598,9.018 4.537 C 9.073 4.521,9.206 4.510,9.350 4.511 C 9.580 4.512,9.600 4.516,9.840 4.599 C 10.159 4.710,10.281 4.716,10.437 4.630 C 10.647 4.515,10.769 4.316,10.768 4.090 C 10.767 3.811,10.666 3.668,10.366 3.526 C 9.983 3.344,9.376 3.257,8.936 3.322 M1.660 3.359 C 1.472 3.396,1.293 3.556,1.234 3.740 C 1.188 3.882,1.189 3.891,1.281 4.285 C 1.407 4.826,2.235 8.064,2.294 8.250 C 2.402 8.588,2.744 8.762,3.081 8.650 C 3.209 8.607,3.368 8.464,3.408 8.354 C 3.447 8.249,3.604 7.716,3.837 6.900 C 4.068 6.094,4.048 6.143,4.087 6.280 C 4.207 6.703,4.552 7.897,4.617 8.115 C 4.698 8.389,4.747 8.477,4.867 8.569 C 5.025 8.689,5.307 8.718,5.490 8.633 C 5.627 8.569,5.748 8.433,5.787 8.298 C 6.024 7.482,6.881 4.175,6.909 3.966 C 6.930 3.811,6.880 3.660,6.767 3.539 C 6.629 3.391,6.530 3.351,6.300 3.351 C 6.075 3.351,5.992 3.385,5.864 3.530 C 5.775 3.632,5.763 3.670,5.582 4.500 C 5.312 5.737,5.236 6.072,5.222 6.085 C 5.214 6.094,5.137 5.806,5.051 5.445 C 4.730 4.092,4.639 3.728,4.606 3.654 C 4.561 3.552,4.402 3.411,4.286 3.372 C 4.166 3.331,3.973 3.331,3.853 3.372 C 3.718 3.418,3.551 3.577,3.512 3.696 C 3.495 3.748,3.354 4.303,3.200 4.929 C 3.045 5.556,2.912 6.076,2.902 6.086 C 2.893 6.095,2.880 6.073,2.874 6.036 C 2.852 5.912,2.483 4.250,2.410 3.946 C 2.355 3.717,2.323 3.622,2.279 3.561 C 2.150 3.383,1.917 3.307,1.660 3.359 " fill="#1A1C1F" stroke="none" fill-rule="evenodd"></path></svg>