<svg xmlns="http://www.w3.org/2000/svg" width="14" height="14" fill="none"><g clip-path="url(#a)"><path fill="#1A1C1F" fill-rule="evenodd" d="M1.4 4.561c0-.416.372-.678.722-.678.284 0 .58.172.656.525l.607 2.79.684-2.812c.08-.33.394-.503.678-.503s.598.166.678.503l.669 2.823.6-2.801c.08-.374.372-.525.656-.525.372 0 .722.262.722.678q.002.098-.022.197L6.781 9.636c-.09.35-.393.503-.678.503a.68.68 0 0 1-.678-.503l-.7-2.472-.7 2.472c-.1.353-.394.503-.678.503a.69.69 0 0 1-.678-.525L1.422 4.758A.8.8 0 0 1 1.4 4.56m6.978 2.472c0-2.888 1.706-3.194 2.45-3.194.438 0 .897.088 1.313.284.306.132.437.372.437.613 0 .372-.284.744-.678.744a.7.7 0 0 1-.284-.066 1.75 1.75 0 0 0-.722-.175c-.306 0-1.116 0-1.116 1.794 0 1.728.722 1.728 1.116 1.728.262-.022.525-.088.765-.175.088-.022.175-.044.263-.044.394 0 .678.372.678.744 0 .262-.131.503-.46.634a5.2 5.2 0 0 1-1.29.241c-.919 0-2.472-.416-2.472-3.128" clip-rule="evenodd"/></g><defs><clipPath id="a"><path fill="#fff" d="M0 0h14v14H0z"/></clipPath></defs></svg>