<svg xmlns="http://www.w3.org/2000/svg" width="32" height="32" fill="none"><path fill="#1A1C1F" fill-rule="evenodd" d="M2.672 8.176c-.275.087-.57.397-.646.677-.062.234-.014.434 1.727 7.217.986 3.837 1.832 7.061 1.881 7.165.259.546 1.159.66 1.565.199.192-.22.107.056 1.791-5.835.755-2.64 1.379-4.794 1.387-4.786.008.007.667 2.342 1.464 5.187 1.12 3.995 1.481 5.214 1.585 5.353.401.532 1.284.478 1.606-.099.171-.305 3.753-14.069 3.723-14.306a1.2 1.2 0 0 0-.138-.383c-.137-.221-.581-.459-.854-.457-.238.001-.577.155-.746.338-.144.157-.079-.076-1.792 6.42-.582 2.207-1.065 4.005-1.073 3.997s-.653-2.306-1.432-5.106c-.78-2.8-1.461-5.15-1.514-5.224-.451-.624-1.412-.522-1.713.182-.051.12-.736 2.456-1.522 5.192-.786 2.735-1.435 4.967-1.442 4.959-.008-.007-.595-2.293-1.304-5.08S3.904 8.66 3.866 8.587c-.202-.392-.709-.566-1.194-.411m22.635-.035c-.952.11-1.571.283-2.267.633-1.794.9-2.832 2.611-3.234 5.334-.131.884-.133 3.048-.003 3.919.257 1.734.766 3.015 1.575 3.965 1.61 1.89 4.523 2.407 7.633 1.354.807-.273 1.082-.63.953-1.234-.104-.489-.629-.878-1.077-.797a7 7 0 0 0-.62.179c-1.259.411-2.613.499-3.639.238-1.664-.425-2.617-1.861-2.871-4.329-.082-.789-.037-2.632.08-3.323.311-1.833 1.035-3.032 2.164-3.583.63-.307 1.082-.382 2.099-.348.957.031 1.408.12 2.216.436.548.214.688.226.997.086.427-.194.69-.745.56-1.178-.104-.346-.345-.563-.86-.771-1.136-.46-2.673-.701-3.706-.581"/></svg>