<svg xmlns="http://www.w3.org/2000/svg" width="20" height="20" fill="none"><g clip-path="url(#a)"><path fill="#1A1C1F" fill-rule="evenodd" d="M2 6.516c0-.594.531-.97 1.031-.97.406 0 .828.247.938.75l.867 3.988.976-4.018c.115-.472.563-.72.97-.72.406 0 .854.239.968.72l.955 4.033.857-4.002c.115-.534.532-.75.938-.75.531 0 1.031.375 1.031.969 0 .093-.006.185-.031.28l-1.812 6.97c-.13.498-.563.718-.97.718-.405 0-.828-.223-.968-.718l-1-3.532-1 3.532c-.143.504-.562.718-.969.718a.99.99 0 0 1-.968-.75L2.03 6.797A1.1 1.1 0 0 1 2 6.516m9.969 3.53c0-4.124 2.437-4.562 3.5-4.562.625 0 1.281.125 1.875.407.437.187.625.53.625.875 0 .53-.407 1.062-.969 1.062a1 1 0 0 1-.406-.094c-.344-.156-.688-.25-1.032-.25-.437 0-1.593 0-1.593 2.563 0 2.469 1.031 2.469 1.594 2.469.374-.032.75-.125 1.093-.25.125-.032.25-.063.375-.063.563 0 .969.531.969 1.063 0 .375-.187.718-.656.906a7.4 7.4 0 0 1-1.844.344c-1.312 0-3.531-.594-3.531-4.47" clip-rule="evenodd"/></g><defs><clipPath id="a"><path fill="#fff" d="M0 0h20v20H0z"/></clipPath></defs></svg>