<svg width="32" height="32" viewBox="0 0 32 32" fill="none" xmlns="http://www.w3.org/2000/svg"><path d="M2.796 8.156 C 2.383 8.257,2.081 8.566,2.041 8.928 C 2.009 9.210,2.122 9.699,3.069 13.408 C 4.839 20.335,5.578 23.123,5.697 23.328 C 5.947 23.759,6.719 23.845,7.140 23.490 C 7.353 23.312,7.380 23.224,8.955 17.733 C 9.687 15.181,10.308 13.034,10.335 12.961 C 10.381 12.838,10.387 12.836,10.417 12.934 C 10.434 12.992,10.859 14.504,11.361 16.293 C 13.216 22.902,13.328 23.272,13.547 23.477 C 13.822 23.733,14.235 23.795,14.587 23.633 C 15.017 23.434,15.014 23.442,15.674 20.987 C 16.574 17.636,18.142 11.576,18.534 9.931 C 18.785 8.877,18.786 8.764,18.539 8.486 C 18.402 8.331,17.942 8.108,17.760 8.108 C 17.591 8.108,17.121 8.326,17.005 8.459 C 16.896 8.583,16.753 9.075,16.002 11.920 C 14.381 18.058,14.165 18.841,14.123 18.741 C 14.100 18.685,13.791 17.596,13.436 16.320 C 12.462 12.814,11.327 8.844,11.236 8.627 C 10.984 8.024,10.005 7.964,9.604 8.527 C 9.483 8.697,9.304 9.291,7.811 14.453 C 7.204 16.551,6.669 18.398,6.623 18.560 L 6.538 18.853 6.468 18.613 C 6.429 18.481,6.037 16.957,5.595 15.227 C 4.240 9.917,3.893 8.619,3.792 8.480 C 3.599 8.213,3.153 8.068,2.796 8.156 M25.093 8.168 C 24.167 8.286,23.319 8.582,22.570 9.048 C 22.093 9.345,21.390 10.021,21.082 10.480 C 20.291 11.659,19.837 13.208,19.729 15.097 C 19.575 17.783,19.994 19.896,20.995 21.480 C 21.276 21.926,22.140 22.756,22.605 23.029 C 24.311 24.029,26.610 24.153,28.921 23.371 C 29.751 23.090,30.008 22.821,29.963 22.279 C 29.918 21.733,29.514 21.333,29.008 21.333 C 28.885 21.333,28.554 21.404,28.273 21.491 C 27.991 21.578,27.580 21.689,27.360 21.737 C 26.832 21.852,25.510 21.899,25.050 21.819 C 23.811 21.603,23.007 21.012,22.431 19.893 C 21.848 18.762,21.625 17.185,21.754 15.120 C 21.844 13.697,22.101 12.699,22.599 11.840 C 22.883 11.351,23.461 10.787,23.927 10.545 C 24.543 10.225,24.862 10.162,25.840 10.166 C 26.871 10.170,27.325 10.237,28.027 10.488 C 28.902 10.801,29.012 10.816,29.315 10.660 C 29.849 10.385,30.058 9.708,29.751 9.244 C 29.290 8.547,26.738 7.957,25.093 8.168 " fill="#1A1C1F" stroke="none" fill-rule="evenodd"></path></svg>