<svg width="20" height="20" viewBox="0 0 20 20" fill="none" xmlns="http://www.w3.org/2000/svg"><path d="M14.894 5.534 C 13.808 5.706,12.936 6.363,12.479 7.352 C 12.194 7.970,12.043 8.629,11.996 9.467 C 11.935 10.563,12.019 11.398,12.266 12.138 C 12.492 12.817,12.768 13.272,13.194 13.670 C 14.134 14.548,15.450 14.727,17.172 14.211 C 17.660 14.065,17.932 13.781,17.988 13.357 C 18.037 12.990,17.811 12.548,17.469 12.343 C 17.182 12.171,17.093 12.172,16.384 12.350 C 15.798 12.498,15.740 12.506,15.404 12.495 C 15.081 12.484,15.026 12.472,14.825 12.373 C 14.468 12.197,14.260 11.886,14.113 11.307 C 13.843 10.240,13.981 8.702,14.405 8.068 C 14.565 7.828,14.692 7.717,14.933 7.604 C 15.101 7.526,15.154 7.518,15.550 7.519 C 15.975 7.519,15.991 7.521,16.400 7.664 C 16.931 7.850,17.134 7.861,17.395 7.717 C 17.598 7.606,17.765 7.426,17.874 7.203 C 17.932 7.084,17.948 6.994,17.947 6.800 C 17.944 6.500,17.869 6.306,17.683 6.127 C 17.455 5.906,16.905 5.682,16.348 5.583 C 15.992 5.519,15.159 5.491,14.894 5.534 M2.767 5.596 C 2.565 5.640,2.404 5.736,2.256 5.901 C 2.114 6.058,2.000 6.321,2.000 6.488 C 2.000 6.618,2.292 7.818,2.920 10.266 C 3.945 14.264,3.853 13.953,4.073 14.173 C 4.259 14.359,4.445 14.441,4.721 14.459 C 5.053 14.481,5.260 14.407,5.485 14.187 C 5.688 13.987,5.646 14.109,6.283 11.890 C 6.510 11.098,6.710 10.412,6.727 10.367 C 6.757 10.289,6.762 10.296,6.811 10.467 C 7.629 13.340,7.816 13.955,7.917 14.086 C 8.116 14.347,8.377 14.467,8.746 14.466 C 9.173 14.466,9.534 14.210,9.645 13.830 C 10.038 12.476,11.467 6.958,11.518 6.595 C 11.568 6.243,11.330 5.836,10.972 5.660 C 10.842 5.596,10.764 5.583,10.500 5.584 C 10.124 5.585,9.986 5.643,9.773 5.884 C 9.624 6.053,9.606 6.117,9.304 7.500 C 8.853 9.561,8.726 10.119,8.704 10.142 C 8.690 10.156,8.562 9.676,8.419 9.076 C 7.887 6.837,7.732 6.214,7.680 6.095 C 7.612 5.941,7.427 5.762,7.233 5.661 C 7.016 5.549,6.550 5.549,6.333 5.661 C 6.112 5.776,5.909 5.988,5.851 6.165 C 5.824 6.248,5.591 7.171,5.333 8.216 C 5.076 9.260,4.854 10.126,4.840 10.140 C 4.826 10.154,4.712 9.697,4.587 9.125 C 4.259 7.625,3.973 6.368,3.917 6.178 C 3.855 5.971,3.687 5.772,3.489 5.673 C 3.321 5.589,2.968 5.552,2.767 5.596 " fill="#1A1C1F" stroke="none" fill-rule="evenodd"></path></svg>