<svg width="28" height="28" viewBox="0 0 28 28" fill="none" xmlns="http://www.w3.org/2000/svg"><path d="M2.396 7.138 C 2.228 7.178,2.047 7.309,1.899 7.498 C 1.726 7.719,1.766 8.111,2.094 9.416 C 3.387 14.550,4.881 20.235,4.984 20.412 C 5.204 20.789,5.879 20.865,6.248 20.554 C 6.434 20.398,6.458 20.321,7.836 15.517 C 8.476 13.284,9.019 11.405,9.043 11.341 C 9.084 11.233,9.089 11.232,9.115 11.317 C 9.130 11.368,9.502 12.691,9.941 14.257 C 11.594 20.146,11.657 20.356,11.855 20.542 C 12.093 20.766,12.455 20.821,12.763 20.678 C 13.140 20.505,13.137 20.511,13.715 18.363 C 14.501 15.438,15.886 10.087,16.218 8.690 C 16.437 7.767,16.437 7.669,16.222 7.425 C 16.101 7.290,15.699 7.094,15.540 7.094 C 15.392 7.094,14.981 7.286,14.879 7.402 C 14.776 7.519,14.665 7.913,13.673 11.667 C 12.359 16.639,12.399 16.495,12.358 16.398 C 12.338 16.350,11.902 14.809,11.389 12.973 C 10.187 8.669,9.862 7.562,9.761 7.423 C 9.630 7.243,9.360 7.127,9.078 7.130 C 8.646 7.134,8.399 7.333,8.256 7.792 C 8.117 8.238,7.198 11.396,6.442 14.023 C 6.081 15.281,5.767 16.352,5.745 16.403 C 5.711 16.484,5.698 16.471,5.656 16.310 C 5.629 16.207,5.278 14.832,4.877 13.253 C 4.263 10.841,3.621 8.394,3.403 7.633 C 3.335 7.395,3.136 7.212,2.874 7.146 C 2.643 7.088,2.609 7.087,2.396 7.138 M21.858 7.165 C 21.034 7.286,20.402 7.511,19.749 7.917 C 19.331 8.177,18.716 8.769,18.447 9.170 C 17.534 10.530,17.125 12.514,17.261 14.913 C 17.351 16.495,17.708 17.746,18.370 18.795 C 18.617 19.185,19.372 19.912,19.780 20.150 C 21.272 21.025,23.284 21.134,25.306 20.450 C 26.032 20.204,26.257 19.968,26.218 19.494 C 26.178 19.018,25.825 18.667,25.387 18.667 C 25.283 18.667,24.982 18.731,24.720 18.809 C 24.458 18.887,24.096 18.984,23.917 19.024 C 23.482 19.120,22.372 19.159,21.951 19.093 C 20.862 18.923,20.137 18.397,19.627 17.407 C 19.117 16.416,18.922 15.037,19.035 13.230 C 19.186 10.831,20.004 9.440,21.537 8.977 C 21.760 8.910,21.972 8.893,22.587 8.895 C 23.541 8.898,23.890 8.953,24.677 9.224 C 25.128 9.379,25.337 9.430,25.442 9.409 C 26.021 9.293,26.347 8.564,26.032 8.089 C 25.766 7.687,24.615 7.285,23.324 7.143 C 22.757 7.081,22.400 7.086,21.858 7.165 " fill="#1A1C1F" stroke="none" fill-rule="evenodd"></path></svg>