<svg xmlns="http://www.w3.org/2000/svg" width="12" height="12" fill="none"><g clip-path="url(#a)"><path fill="#1A1C1F" fill-rule="evenodd" d="M1.2 3.91c0-.357.319-.582.619-.582.244 0 .497.148.562.45l.52 2.392.587-2.41c.068-.283.337-.432.58-.432.245 0 .513.143.582.431l.573 2.42.515-2.4c.068-.321.318-.45.562-.45.319 0 .619.224.619.58a.7.7 0 0 1-.019.17l-1.087 4.18c-.078.3-.338.432-.582.432a.584.584 0 0 1-.581-.432l-.6-2.118-.6 2.118a.58.58 0 0 1-.581.432.594.594 0 0 1-.581-.45l-1.07-4.163A.7.7 0 0 1 1.2 3.91m5.981 2.118c0-2.475 1.463-2.737 2.1-2.737.375 0 .769.075 1.125.243.263.113.375.32.375.525 0 .32-.244.638-.581.638a.6.6 0 0 1-.244-.056 1.5 1.5 0 0 0-.618-.15c-.263 0-.957 0-.957 1.537 0 1.481.619 1.481.957 1.481.225-.018.45-.075.656-.15.075-.018.15-.037.225-.037.337 0 .581.319.581.637 0 .225-.113.432-.394.544A4.4 4.4 0 0 1 9.3 8.71c-.787 0-2.119-.356-2.119-2.68" clip-rule="evenodd"/></g><defs><clipPath id="a"><path fill="#fff" d="M0 0h12v12H0z"/></clipPath></defs></svg>