<svg width="16" height="16" viewBox="0 0 16 16" fill="none" xmlns="http://www.w3.org/2000/svg"><path d="M11.947 4.428 C 11.099 4.528,10.354 5.081,9.983 5.883 C 9.758 6.369,9.636 6.901,9.597 7.559 C 9.533 8.634,9.671 9.533,10.001 10.190 C 10.458 11.098,11.299 11.600,12.360 11.600 C 12.971 11.600,13.832 11.402,14.097 11.203 C 14.246 11.090,14.365 10.881,14.391 10.686 C 14.430 10.392,14.249 10.038,13.975 9.874 C 13.746 9.737,13.675 9.737,13.107 9.880 C 12.639 9.998,12.592 10.005,12.323 9.996 C 12.065 9.987,12.021 9.978,11.860 9.898 C 11.532 9.737,11.354 9.427,11.236 8.813 C 11.173 8.485,11.173 7.667,11.236 7.293 C 11.297 6.935,11.396 6.646,11.524 6.454 C 11.652 6.262,11.753 6.173,11.947 6.083 C 12.081 6.021,12.123 6.015,12.440 6.015 C 12.780 6.015,12.793 6.017,13.120 6.131 C 13.545 6.280,13.707 6.288,13.916 6.174 C 14.078 6.085,14.212 5.941,14.299 5.762 C 14.381 5.595,14.382 5.263,14.300 5.107 C 14.214 4.941,14.061 4.812,13.813 4.697 C 13.289 4.452,12.590 4.351,11.947 4.428 M2.213 4.477 C 1.958 4.532,1.724 4.743,1.645 4.987 C 1.584 5.176,1.585 5.188,1.708 5.713 C 1.893 6.507,2.986 10.775,3.070 11.033 C 3.132 11.224,3.284 11.400,3.470 11.495 C 3.630 11.577,3.920 11.595,4.102 11.535 C 4.279 11.476,4.490 11.288,4.544 11.139 C 4.596 10.999,4.804 10.293,5.117 9.200 C 5.337 8.429,5.407 8.201,5.412 8.242 C 5.415 8.274,6.109 10.678,6.189 10.936 C 6.266 11.183,6.288 11.225,6.411 11.347 C 6.576 11.513,6.733 11.573,6.998 11.573 C 7.338 11.573,7.628 11.367,7.716 11.064 C 8.019 10.022,9.130 5.741,9.200 5.345 C 9.246 5.086,9.193 4.901,9.023 4.718 C 8.836 4.519,8.706 4.467,8.400 4.467 C 8.100 4.468,7.988 4.514,7.819 4.707 C 7.692 4.851,7.680 4.893,7.320 6.560 C 7.037 7.866,6.986 8.088,6.962 8.114 C 6.952 8.125,6.850 7.741,6.735 7.260 C 6.621 6.780,6.444 6.042,6.342 5.621 L 6.156 4.854 6.041 4.727 C 5.883 4.551,5.714 4.471,5.475 4.458 C 5.216 4.444,5.053 4.501,4.868 4.670 C 4.765 4.764,4.712 4.838,4.682 4.928 C 4.660 4.997,4.473 5.737,4.267 6.573 C 4.061 7.408,3.883 8.101,3.872 8.112 C 3.860 8.124,3.769 7.758,3.669 7.300 C 3.407 6.100,3.179 5.094,3.134 4.943 C 3.084 4.777,2.949 4.617,2.791 4.538 C 2.657 4.471,2.375 4.441,2.213 4.477 " fill="#1A1C1F" stroke="none" fill-rule="evenodd"></path></svg>