<svg xmlns="http://www.w3.org/2000/svg" width="32" height="32" fill="none"><g clip-path="url(#a)"><path fill="#1A1C1F" fill-rule="evenodd" d="M25.969 8.11c1.125 0 2.25.25 3.312.718.438.188.625.531.625.906 0 .5-.406 1.032-.968 1.032a1 1 0 0 1-.407-.094 6.4 6.4 0 0 0-2.687-.563c-1.157 0-4.157.188-4.157 5.97 0 5.218 2.47 5.812 4.344 5.812a7.9 7.9 0 0 0 2.532-.5q.234-.094.468-.094c.563 0 .969.531.969 1.062 0 .344-.187.657-.594.844a9.7 9.7 0 0 1-3.375.688c-2.906 0-6.343-1.344-6.343-7.813 0-6.937 3.937-7.969 6.28-7.969M2.03 9.36C2 9.265 2 9.171 2 9.077c0-.594.531-.969 1.031-.969.406 0 .813.22.938.75L6.53 18.922 9.438 8.828a.96.96 0 0 1 .937-.719c.438 0 .844.25.969.72l2.812 10.093 2.656-10.063c.125-.53.532-.75.938-.75.5 0 1.031.375 1.031.97 0 .062-.031.187-.062.28l-3.563 13.625c-.125.5-.531.75-.969.75a.96.96 0 0 1-.937-.718l-2.875-10.25-2.937 10.25c-.125.5-.532.718-.938.718-.437 0-.844-.25-.969-.75z" clip-rule="evenodd"/></g><defs><clipPath id="a"><path fill="#fff" d="M0 0h32v32H0z"/></clipPath></defs></svg>