<svg xmlns="http://www.w3.org/2000/svg" width="16" height="16" fill="none"><g clip-path="url(#a)"><path fill="#1A1C1F" fill-rule="evenodd" d="M9.153 5.6c.65 0 1.2.45 1.275 1.075l.575 2.925c.125.725-.35 1.4-1.05 1.525V13.6c0 .475-.375.8-.775.8a.79.79 0 0 1-.8-.8v-3.25c0-.45.35-.8.8-.8h.2l-.45-2.375H7.103L6.628 9.55h.175c.45 0 .8.35.8.8v3.25c0 .45-.35.8-.8.8a.785.785 0 0 1-.775-.8v-2.475A1.27 1.27 0 0 1 5.003 9.6l.6-2.95c.075-.625.625-1.05 1.25-1.05zm-1.15-.875a1.563 1.563 0 0 0 0-3.125c-.875 0-1.575.7-1.575 1.575 0 .85.7 1.55 1.575 1.55" clip-rule="evenodd"/></g><defs><clipPath id="a"><path fill="#fff" d="M0 0h16v16H0z"/></clipPath></defs></svg>