<svg xmlns="http://www.w3.org/2000/svg" width="12" height="12" fill="none"><g clip-path="url(#a)"><path fill="#1A1C1F" fill-rule="evenodd" d="M6.865 4.2c.488 0 .9.337.956.806L8.253 7.2a.984.984 0 0 1-.788 1.144V10.2c0 .356-.281.6-.581.6a.59.59 0 0 1-.6-.6V7.762c0-.337.262-.6.6-.6h.15l-.338-1.78H5.328l-.357 1.78h.132c.337 0 .6.263.6.6V10.2c0 .338-.263.6-.6.6a.59.59 0 0 1-.582-.6V8.344A.953.953 0 0 1 3.753 7.2l.45-2.213c.056-.468.468-.787.937-.787zm-.862-.656a1.172 1.172 0 1 0-.02-2.343 1.172 1.172 0 0 0 .02 2.343" clip-rule="evenodd"/></g><defs><clipPath id="a"><path fill="#fff" d="M0 0h12v12H0z"/></clipPath></defs></svg>