<svg xmlns="http://www.w3.org/2000/svg" width="14" height="14" fill="none"><g clip-path="url(#a)"><path fill="#1A1C1F" fill-rule="evenodd" d="M8.01 4.9c.568 0 1.05.394 1.115.94l.503 2.56a1.15 1.15 0 0 1-.919 1.334V11.9c0 .416-.328.7-.678.7a.69.69 0 0 1-.7-.7V9.056c0-.393.306-.7.7-.7h.175l-.394-2.078H6.215L5.8 8.356h.153c.394 0 .7.307.7.7V11.9c0 .394-.306.7-.7.7a.686.686 0 0 1-.678-.7V9.734A1.11 1.11 0 0 1 4.378 8.4l.525-2.581c.066-.547.547-.919 1.094-.919zm-1.007-.766a1.368 1.368 0 0 0 0-2.734c-.766 0-1.378.613-1.378 1.378 0 .744.612 1.356 1.378 1.356" clip-rule="evenodd"/></g><defs><clipPath id="a"><path fill="#fff" d="M0 0h14v14H0z"/></clipPath></defs></svg>