<svg xmlns="http://www.w3.org/2000/svg" width="20" height="20" fill="none"><g clip-path="url(#a)"><path fill="#1A1C1F" fill-rule="evenodd" d="M11.442 7c.812 0 1.5.563 1.594 1.344L13.754 12a1.64 1.64 0 0 1-1.312 1.906V17a.98.98 0 0 1-.969 1c-.562 0-1-.437-1-1v-4.062c0-.563.438-1 1-1h.25l-.562-2.97H8.879l-.593 2.97h.218c.563 0 1 .437 1 1V17c0 .563-.437 1-1 1a.98.98 0 0 1-.968-1v-3.094A1.59 1.59 0 0 1 6.254 12l.75-3.687C7.098 7.53 7.786 7 8.567 7zm-1.438-1.094a1.947 1.947 0 0 0 1.938-1.937c0-1.094-.875-1.969-1.938-1.969a1.96 1.96 0 0 0-1.968 1.969c0 1.062.875 1.937 1.968 1.937" clip-rule="evenodd"/></g><defs><clipPath id="a"><path fill="#fff" d="M0 0h20v20H0z"/></clipPath></defs></svg>