<svg xmlns="http://www.w3.org/2000/svg" width="24" height="24" fill="none"><g clip-path="url(#a)"><path fill="#1A1C1F" fill-rule="evenodd" d="m7.78 13.968.782-4.781a1.686 1.686 0 0 1 1.687-1.438h3.531c.844 0 1.563.594 1.688 1.438l.75 4.781c.156 1.063-.563 2-1.781 2v5.064a.974.974 0 0 1-.97.969.974.974 0 0 1-.968-.97v-6.063c0-.531.438-.969.969-.969h.781l-.687-4.312h-3.125l-.657 4.312h.813c.531 0 .969.438.969.97v6.063c0 .531-.47.969-1 .969-.5 0-.97-.438-.97-.97v-5.063c-1.155 0-1.968-.875-1.812-2M9.75 4.25a2.25 2.25 0 1 0 4.5 0 2.25 2.25 0 0 0-4.5 0" clip-rule="evenodd"/></g><defs><clipPath id="a"><path fill="#fff" d="M0 0h24v24H0z"/></clipPath></defs></svg>