<svg xmlns="http://www.w3.org/2000/svg" width="28" height="28" fill="none"><g clip-path="url(#a)"><path fill="#1A1C1F" fill-rule="evenodd" d="m9.05 17.171 1.394-7.463c.157-.795.875-1.395 1.667-1.395h3.773c.82 0 1.51.6 1.668 1.395l1.394 7.436a1.715 1.715 0 0 1-1.695 2.078h-.683V25.4a.85.85 0 0 1-.848.848c-.465 0-.875-.383-.875-.848v-7.053c0-.465.41-.848.875-.848h1.531l-1.367-7.463h-3.773l-1.367 7.463h1.531c.493 0 .875.383.875.848V25.4a.86.86 0 0 1-.875.848.85.85 0 0 1-.847-.848v-6.178h-.684a1.734 1.734 0 0 1-1.695-2.05m4.948-15.419c1.449 0 2.624 1.197 2.624 2.639a2.62 2.62 0 0 1-2.624 2.611 2.62 2.62 0 0 1-2.625-2.611c0-1.442 1.176-2.639 2.625-2.639m0 1.777a.864.864 0 0 0-.875.875c0 .492.383.875.875.875a.864.864 0 0 0 .875-.875.864.864 0 0 0-.875-.875" clip-rule="evenodd"/></g><defs><clipPath id="a"><path fill="#fff" d="M0 0h28v28H0z"/></clipPath></defs></svg>