<svg xmlns="http://www.w3.org/2000/svg" width="32" height="32" fill="none"><path fill="#1A1C1F" fill-rule="evenodd" d="M15.232 2.108a2.96 2.96 0 0 0-1.337.794C12.233 4.575 13.03 7.38 15.32 7.92c1.856.437 3.667-.993 3.667-2.897a3.035 3.035 0 0 0-2.241-2.917c-.36-.096-1.161-.095-1.514.002m1.232 2.057c.44.213.652.872.423 1.314-.477.923-1.872.595-1.868-.439.002-.764.745-1.214 1.445-.875M13.426 9.55c-.537.13-1.114.607-1.335 1.105-.188.422-1.822 9.148-1.78 9.506a2.08 2.08 0 0 0 1.14 1.608c.321.158.401.174.982.195l.634.022v3.622c0 3.99-.014 3.829.337 4.137.477.418 1.273.249 1.534-.325.095-.209.1-.432.101-4.385.001-2.971-.016-4.218-.06-4.347a1.1 1.1 0 0 0-.2-.333c-.279-.303-.375-.326-1.475-.355l-1.017-.027.777-4.253.776-4.254 2.157.014 2.158.013.776 4.24.777 4.24-1.014.027c-1.08.028-1.195.054-1.451.329-.291.311-.283.182-.283 4.684 0 3.626.011 4.189.082 4.36.107.256.218.375.471.504.419.214.92.093 1.23-.295l.164-.205.014-3.695.015-3.696.626-.022c.564-.02.662-.039.98-.188a1.9 1.9 0 0 0 .955-.941c.289-.62.309-.449-.616-5.395-.916-4.902-.915-4.9-1.368-5.354a2.5 2.5 0 0 0-.58-.4l-.346-.166-2.48-.009c-1.364-.005-2.571.012-2.681.039"/></svg>