<svg xmlns="http://www.w3.org/2000/svg" width="14" height="14" fill="none"><g clip-path="url(#a)"><g clip-path="url(#b)"><path fill="#1A1C1F" fill-rule="evenodd" d="M7 .538A6.47 6.47 0 0 1 13.461 7 6.47 6.47 0 0 1 7 13.461 6.47 6.47 0 0 1 .538 7 6.47 6.47 0 0 1 7 .538m0 1.436A5.03 5.03 0 0 0 1.974 7 5.03 5.03 0 0 0 7 12.026 5.03 5.03 0 0 0 12.026 7 5.03 5.03 0 0 0 7 1.974m1.003 1.958a.717.717 0 0 1 1.157.67l-.47 3.064a.72.72 0 0 1-.258.45l-2.435 1.967a.718.718 0 0 1-1.16-.67l.486-3.092a.72.72 0 0 1 .26-.449zm-.54 2.273-.765.613-.153.977.77-.621z" clip-rule="evenodd"/></g></g><defs><clipPath id="a"><path fill="#fff" d="M0 0h14v14H0z"/></clipPath><clipPath id="b"><path fill="#fff" d="M0 0h14v14H0z"/></clipPath></defs></svg>