<svg xmlns="http://www.w3.org/2000/svg" width="24" height="24" fill="none"><g clip-path="url(#a)"><path fill="#1A1C1F" fill-rule="evenodd" d="M12 1c6.065 0 11 4.936 11 11s-4.935 11-11 11S1 18.064 1 12 5.935 1 12 1m1 2.06v.478a1 1 0 1 1-2 0V3.06A9.01 9.01 0 0 0 3.059 11h.48a1 1 0 1 1 0 2h-.48A9.01 9.01 0 0 0 11 20.94v-.479a1 1 0 1 1 2 0v.48A9.01 9.01 0 0 0 20.941 13h-.48a1 1 0 1 1 0-2h.48A9.01 9.01 0 0 0 13 3.06m-3.085 8.767c.544.088.918.598.833 1.144l-.262 1.665 1.312-1.06a1 1 0 1 1 1.257 1.557l-3.331 2.689a1 1 0 0 1-1.616-.934l.664-4.228a1 1 0 0 1 1.143-.833m5.489-5.71c.357.207.55.612.488 1.019l-.643 4.192a1 1 0 0 1-1.976-.302l.254-1.656-1.306 1.048a1 1 0 1 1-1.251-1.56l3.308-2.654a1 1 0 0 1 1.125-.086" clip-rule="evenodd"/></g><defs><clipPath id="a"><path fill="#fff" d="M0 0h24v24H0z"/></clipPath></defs></svg>