<svg xmlns="http://www.w3.org/2000/svg" width="32" height="32" fill="none"><path fill="#1A1C1F" fill-rule="evenodd" d="M14.4 2.102c-3.338.43-6.218 1.872-8.517 4.264a14 14 0 0 0-3.801 8.16c-.086.79-.072 2.392.027 3.173.442 3.492 2.195 6.729 4.849 8.956q3.955 3.319 9.042 3.318c2.891 0 5.448-.785 7.84-2.407 3.008-2.039 5.145-5.242 5.865-8.788.278-1.37.352-3.142.186-4.486a14 14 0 0 0-4.169-8.324C23.58 3.9 20.947 2.605 17.988 2.162c-.777-.116-2.877-.151-3.588-.06m.554 2.036c.018.046.033.237.033.424 0 .529.091.861.302 1.095a.975.975 0 0 0 1.572-.188c.099-.177.124-.318.143-.817l.023-.603.246.033c2.355.318 4.165 1.036 5.936 2.354l.533.396-.376.395c-.206.218-.427.497-.49.62-.384.753.524 1.661 1.277 1.277.123-.063.402-.284.62-.49l.395-.376.396.533c1.32 1.773 2.034 3.577 2.355 5.942l.034.254h-.363c-.583 0-.972.084-1.187.256-.662.528-.415 1.532.422 1.712.151.032.466.058.701.058h.427l-.034.254c-.319 2.354-1.039 4.173-2.346 5.93l-.405.545-.403-.383q-.613-.582-.978-.584c-.25-.001-.678.243-.83.473-.322.487-.221.861.409 1.525l.376.395-.533.396c-1.636 1.218-3.441 1.975-5.494 2.304-.478.076-.613.083-.646.03-.022-.037-.053-.312-.069-.612-.035-.693-.135-.911-.509-1.115-.359-.195-.647-.191-1.003.013-.357.204-.448.399-.482 1.032-.042.781-.024.749-.382.706-.553-.065-1.597-.297-2.203-.488a12.1 12.1 0 0 1-3.822-2.008l-.335-.264.372-.392c.469-.493.612-.76.576-1.074a1.03 1.03 0 0 0-.57-.789c-.484-.245-.772-.151-1.415.459l-.395.376-.396-.533c-1.32-1.773-2.034-3.577-2.355-5.942l-.034-.254h.427c.235 0 .55-.026.701-.058.837-.18 1.084-1.184.422-1.712-.215-.172-.604-.256-1.187-.256h-.363l.034-.254c.321-2.37 1.032-4.165 2.355-5.942l.396-.533.395.376c.496.471.762.614 1.077.578.444-.05.848-.444.907-.886.041-.303-.128-.625-.57-1.09l-.383-.404.572-.424c1.568-1.165 3.552-1.994 5.437-2.272.642-.095.65-.095.687.002m4.786 3.866c-.145.058-.559.376-2.247 1.724-1.759 1.405-2.388 1.941-2.535 2.157-.151.222-.176.597-.059.878.095.228.409.497.672.576.382.114.678-.057 2.217-1.284.8-.639.879-.687.879-.539 0 .059-.084.657-.187 1.33s-.187 1.346-.187 1.497c0 .359.155.656.437.844.183.12.281.146.554.146.291 0 .359-.02.538-.162.367-.292.404-.43.786-2.931.537-3.508.542-3.589.259-3.926-.259-.307-.777-.45-1.127-.31m-4.25 6.893c-1.186.567-.798 2.323.513 2.328.829.004 1.425-.761 1.196-1.533-.218-.732-1.041-1.115-1.709-.795m-3.143 1.827c-.219.113-.434.326-.502.496-.111.277-.911 5.473-.912 5.916 0 .432.193.718.599.888a.85.85 0 0 0 .844-.068c.651-.415 4.504-3.545 4.668-3.792.07-.107.143-.304.162-.438.086-.632-.543-1.203-1.17-1.061-.258.058-.419.171-1.658 1.165-.649.521-1.024.789-1.034.741-.009-.042.057-.53.145-1.084.089-.554.189-1.242.222-1.529.059-.505.057-.53-.066-.773-.223-.44-.885-.676-1.298-.461"/></svg>