<svg xmlns="http://www.w3.org/2000/svg" width="28" height="28" fill="none"><g clip-path="url(#a)"><path fill="#1A1C1F" fill-rule="evenodd" d="M14 1.75a12.2 12.2 0 0 1 8.628 3.564l.035.024c.01.01.014.025.024.035A12.21 12.21 0 0 1 26.25 14a12.2 12.2 0 0 1-3.563 8.626c-.01.01-.013.025-.024.036l-.035.023A12.2 12.2 0 0 1 14 26.25a12.2 12.2 0 0 1-8.634-3.57l-.027-.018c-.008-.008-.01-.018-.017-.026A12.2 12.2 0 0 1 1.75 14a12.2 12.2 0 0 1 3.572-8.636l.017-.026.026-.018A12.2 12.2 0 0 1 14 1.75m.875 1.794v.831a.875.875 0 0 1-1.75 0v-.831a10.45 10.45 0 0 0-5.897 2.445l.586.586a.874.874 0 1 1-1.237 1.237l-.587-.586a10.45 10.45 0 0 0-2.446 5.899h.831a.875.875 0 1 1 0 1.75h-.831a10.45 10.45 0 0 0 2.446 5.898l.587-.587a.874.874 0 1 1 1.237 1.238l-.586.587a10.44 10.44 0 0 0 5.897 2.444v-.83a.874.874 0 1 1 1.75 0v.83a10.44 10.44 0 0 0 5.898-2.445l-.585-.587a.876.876 0 0 1 1.238-1.237l.586.586a10.44 10.44 0 0 0 2.443-5.897h-.83a.875.875 0 1 1 0-1.75h.83a10.44 10.44 0 0 0-2.444-5.897l-.585.584a.87.87 0 0 1-1.238 0 .876.876 0 0 1 0-1.237l.585-.585a10.45 10.45 0 0 0-5.898-2.446m-3.572 11.01a.88.88 0 0 1 .73 1l-.404 2.567 2.022-1.632a.874.874 0 1 1 1.1 1.361l-3.79 3.06a.874.874 0 0 1-1.414-.817l.756-4.81a.875.875 0 0 1 1-.73m1.756-1.098a1.095 1.095 0 1 1 1.896 1.095 1.095 1.095 0 0 1-1.896-1.095m4.965-6.412c.313.18.482.534.428.89l-.73 4.767a.875.875 0 0 1-1.73-.264l.39-2.548-2.01 1.612a.876.876 0 1 1-1.095-1.365l3.763-3.017a.87.87 0 0 1 .984-.075" clip-rule="evenodd"/></g><defs><clipPath id="a"><path fill="#fff" d="M0 0h28v28H0z"/></clipPath></defs></svg>