<svg xmlns="http://www.w3.org/2000/svg" width="32" height="32" fill="none"><g clip-path="url(#a)"><path fill="#1A1C1F" fill-rule="evenodd" d="M16 2c3.843 0 7.328 1.558 9.86 4.073.012.012.029.015.041.027l.027.041A13.96 13.96 0 0 1 30 16c0 3.842-1.558 7.326-4.072 9.858-.011.012-.015.029-.027.041s-.029.016-.041.027A13.95 13.95 0 0 1 16 30a13.95 13.95 0 0 1-9.868-4.081c-.01-.009-.021-.011-.03-.02s-.011-.02-.02-.029A13.95 13.95 0 0 1 2 16c0-3.848 1.561-7.337 4.082-9.87.009-.009.011-.021.02-.03s.021-.011.03-.02A13.95 13.95 0 0 1 16 2m1 2.05V5a1 1 0 0 1-2 0v-.95a11.94 11.94 0 0 0-6.74 2.794l.67.67a.999.999 0 1 1-1.414 1.414l-.67-.67A11.94 11.94 0 0 0 4.05 15H5a1 1 0 1 1 0 2h-.95a11.94 11.94 0 0 0 2.796 6.741l.67-.671a.999.999 0 1 1 1.414 1.414l-.67.671A11.94 11.94 0 0 0 15 27.949V27a1 1 0 1 1 2 0v.949a11.93 11.93 0 0 0 6.741-2.795l-.669-.67a1 1 0 0 1 1.415-1.414l.669.669A11.93 11.93 0 0 0 27.949 17H27a1 1 0 1 1 0-2h.949a11.94 11.94 0 0 0-2.794-6.74l-.668.668a.997.997 0 0 1-1.415 0 1 1 0 0 1 0-1.414l.669-.668A11.94 11.94 0 0 0 17 4.05m-4.082 12.582c.544.088.918.598.833 1.144l-.46 2.934 2.31-1.866a1 1 0 1 1 1.257 1.556l-4.33 3.496a.999.999 0 0 1-1.617-.933l.864-5.498a1 1 0 0 1 1.143-.833m2.007-1.254a1.25 1.25 0 0 1 2.165 1.25 1.25 1.25 0 0 1-2.165-1.25m5.674-7.328a1 1 0 0 1 .49 1.017l-.836 5.449a1 1 0 0 1-1.977-.302l.446-2.912-2.298 1.842a1 1 0 0 1-1.251-1.56l4.301-3.448A1 1 0 0 1 20.6 8.05" clip-rule="evenodd"/></g><defs><clipPath id="a"><path fill="#fff" d="M0 0h32v32H0z"/></clipPath></defs></svg>