<svg xmlns="http://www.w3.org/2000/svg" width="12" height="12" fill="none"><g clip-path="url(#a)"><g clip-path="url(#b)"><path fill="#1A1C1F" fill-rule="evenodd" d="M6 .462A5.545 5.545 0 0 1 11.539 6 5.545 5.545 0 0 1 6 11.539 5.545 5.545 0 0 1 .462 6 5.545 5.545 0 0 1 6 .462m0 1.23A4.313 4.313 0 0 0 1.692 6 4.313 4.313 0 0 0 6 10.308 4.313 4.313 0 0 0 10.308 6 4.313 4.313 0 0 0 6 1.692m.86 1.678a.615.615 0 0 1 .992.574l-.403 2.627a.62.62 0 0 1-.221.386L5.14 8.642a.616.616 0 0 1-.994-.574l.416-2.65a.62.62 0 0 1 .224-.385zM6.396 5.32l-.655.525-.131.837.659-.532z" clip-rule="evenodd"/></g></g><defs><clipPath id="a"><path fill="#fff" d="M0 0h12v12H0z"/></clipPath><clipPath id="b"><path fill="#fff" d="M0 0h12v12H0z"/></clipPath></defs></svg>