<svg xmlns="http://www.w3.org/2000/svg" width="16" height="16" fill="none"><g clip-path="url(#a)"><g clip-path="url(#b)"><path fill="#1A1C1F" fill-rule="evenodd" d="M8 .686c4.033 0 7.314 3.28 7.314 7.314 0 4.033-3.281 7.314-7.314 7.314S.686 12.033.686 8 3.967.686 8 .686M8 2.31A5.696 5.696 0 0 0 2.311 8 5.696 5.696 0 0 0 8 13.689 5.696 5.696 0 0 0 13.689 8 5.696 5.696 0 0 0 8 2.311m1.135 2.216a.812.812 0 0 1 1.31.758l-.531 3.47a.8.8 0 0 1-.293.509L6.865 11.49a.813.813 0 0 1-1.314-.758l.55-3.5a.8.8 0 0 1 .296-.509zM8.523 7.1l-.865.694L7.485 8.9l.871-.703z" clip-rule="evenodd"/></g></g><defs><clipPath id="a"><path fill="#fff" d="M0 0h16v16H0z"/></clipPath><clipPath id="b"><path fill="#fff" d="M0 0h16v16H0z"/></clipPath></defs></svg>