<svg xmlns="http://www.w3.org/2000/svg" width="20" height="20" fill="none"><g clip-path="url(#a)"><path fill="#1A1C1F" fill-rule="evenodd" d="M10 1c4.962 0 9 4.037 9 9s-4.038 9-9 9-9-4.038-9-9 4.038-9 9-9m0 2c-3.86 0-7 3.141-7 7s3.14 7 7 7 7-3.141 7-7-3.14-7-7-7m1.397 2.727a.999.999 0 0 1 1.612.932l-.654 4.269a1 1 0 0 1-.36.627l-3.392 2.739a1 1 0 0 1-1.616-.933l.677-4.307a1 1 0 0 1 .363-.625zm-.753 3.166-1.065.853-.213 1.361 1.072-.865z" clip-rule="evenodd"/></g><defs><clipPath id="a"><path fill="#fff" d="M0 0h20v20H0z"/></clipPath></defs></svg>