<svg xmlns="http://www.w3.org/2000/svg" width="32" height="32" fill="none"><path fill="#1A1C1F" fill-rule="evenodd" d="M15.6 2.106c-.222.104-.311.184-.473.422l-.14.207v4.346l-.298.037c-1.888.236-4.043 1.397-5.364 2.89a9 9 0 0 0-2.161 4.397c-.059.306-.123.499-.175.527-.045.024-1.006.052-2.136.063-2.019.02-2.057.023-2.307.145-.514.25-.684.899-.367 1.4.279.44.269.438 2.674.473 1.159.016 2.134.047 2.167.067s.076.164.096.319c.02.154.097.521.171.814.841 3.339 3.583 5.92 7.026 6.613l.594.119.034.314c.019.173.037 1.157.04 2.187l.006 1.872.224.255c.254.289.474.4.789.4s.535-.111.789-.4l.224-.255.006-1.899c.003-1.044.021-2.028.04-2.186l.034-.288.594-.119c1.784-.359 3.267-1.144 4.571-2.419 1.337-1.307 2.178-2.849 2.547-4.674.066-.322.14-.61.166-.64.03-.033.855-.063 2.165-.08 2.266-.028 2.222-.023 2.535-.313.221-.204.302-.393.302-.7s-.08-.494-.302-.703c-.281-.266-.337-.273-2.536-.298-1.432-.017-2.087-.043-2.138-.085-.04-.033-.127-.325-.192-.647a9.04 9.04 0 0 0-2.074-4.208c-1.286-1.472-3.241-2.571-5.144-2.892l-.574-.097V4.919c0-2.333.005-2.291-.302-2.583-.305-.29-.776-.387-1.111-.23m2.237 7.143c1.287.387 2.188.924 3.109 1.854.902.91 1.408 1.766 1.81 3.06.146.469.148.501.147 1.81-.002 1.265-.009 1.36-.139 1.841-.586 2.156-2.298 4.008-4.404 4.765-.931.334-1.182.374-2.36.374s-1.429-.04-2.36-.374a7.3 7.3 0 0 1-3.281-2.444c-.558-.758-1.1-2.009-1.236-2.855-.071-.444-.072-2.111-.001-2.549.129-.794.565-1.854 1.082-2.629.951-1.425 2.373-2.421 4.116-2.882.581-.153.599-.154 1.813-.135 1.147.019 1.258.03 1.704.164m-2.549 3.846c-1.875.473-2.82 2.588-1.921 4.298.235.447.839 1.041 1.289 1.268a2.94 2.94 0 0 0 2.7-.005c.431-.218 1.082-.869 1.3-1.3.363-.721.428-1.583.174-2.316-.314-.906-1.111-1.664-1.998-1.899-.429-.113-1.188-.136-1.544-.046"/></svg>