<svg xmlns="http://www.w3.org/2000/svg" width="24" height="24" fill="none"><g clip-path="url(#a)"><path fill="#1A1C1F" fill-rule="evenodd" d="M12 2a.98.98 0 0 1 1 .969V5.03c3.094.469 5.5 2.875 5.938 5.969H21c.563 0 1 .438 1 1s-.437 1-1 1h-2.062A7.03 7.03 0 0 1 13 18.938V21c0 .563-.437 1-1 1-.531 0-1-.437-1-1v-2.062C7.938 18.5 5.531 16.063 5.094 13H3c-.562 0-1-.437-1-1s.438-1 1-1h2.094A7.03 7.03 0 0 1 11 5.031V2.97c0-.531.469-.969 1-.969m0 5c-2.75 0-5 2.25-5 5a4.95 4.95 0 0 0 5 4.969c2.844 0 5-2.25 5-4.969 0-2.75-2.25-5-5-5m-2 5c0-1.094.906-2 2-2s2 .906 2 2-.906 2-2 2-2-.906-2-2" clip-rule="evenodd"/></g><defs><clipPath id="a"><path fill="#fff" d="M0 0h24v24H0z"/></clipPath></defs></svg>