<svg xmlns="http://www.w3.org/2000/svg" width="32" height="32" fill="none"><g clip-path="url(#a)"><path fill="#1A1C1F" fill-rule="evenodd" d="M16 8.596c.29.003.744.158.941.682l6.982 18.549a1.197 1.197 0 0 1-1.967 1.268l-5.815-5.815a.2.2 0 0 0-.282 0l-5.815 5.816a1.197 1.197 0 0 1-1.967-1.268l6.99-18.574c.181-.483.644-.661.933-.658m0-6.042c.513 0 .998.39 1 1v2.638a1 1 0 0 1-1 1c-.513 0-.999-.43-1-1V3.554a1 1 0 0 1 1-1" clip-rule="evenodd"/></g><defs><clipPath id="a"><path fill="#fff" d="M0 0h32v32H0z"/></clipPath></defs></svg>