<svg xmlns="http://www.w3.org/2000/svg" width="14" height="14" fill="none"><g clip-path="url(#a)"><path fill="#1A1C1F" fill-rule="evenodd" d="M7 1.256c.404 0 .718.315.718.718v.74a4.39 4.39 0 0 1 3.567 3.568h.74c.427 0 .719.314.719.718a.71.71 0 0 1-.718.718h-.74a4.34 4.34 0 0 1-3.568 3.545v.763a.71.71 0 0 1-.718.718.71.71 0 0 1-.718-.718v-.763a4.34 4.34 0 0 1-3.567-3.545h-.74c-.337 0-.719-.247-.719-.718 0-.404.337-.718.718-.718h.74a4.39 4.39 0 0 1 3.568-3.567v-.74c0-.404.314-.719.718-.719m0 2.872A2.863 2.863 0 0 0 4.128 7 2.863 2.863 0 0 0 7 9.872 2.863 2.863 0 0 0 9.872 7 2.863 2.863 0 0 0 7 4.128M5.564 7c0 .785.65 1.436 1.436 1.436S8.436 7.786 8.436 7 7.786 5.564 7 5.564 5.564 6.214 5.564 7" clip-rule="evenodd"/></g><defs><clipPath id="a"><path fill="#fff" d="M0 0h14v14H0z"/></clipPath></defs></svg>