<svg xmlns="http://www.w3.org/2000/svg" width="28" height="28" fill="none"><g clip-path="url(#a)"><path fill="#1A1C1F" fill-rule="evenodd" d="M25.099 3.446a.88.88 0 0 1 0 .723L15.88 24.297a1.313 1.313 0 0 1-2.508-.542v-8.798a.22.22 0 0 0-.219-.219H4.136a1.312 1.312 0 0 1-.542-2.508l20.347-9.22a.875.875 0 0 1 1.158.436M22.532 5.57 6.159 12.99h6.994c1.042 0 1.895.809 1.964 1.833l.005.135v6.792z" clip-rule="evenodd"/></g><defs><clipPath id="a"><path fill="#fff" d="M0 0h28v28H0z"/></clipPath></defs></svg>