<svg xmlns="http://www.w3.org/2000/svg" width="14" height="14" fill="none"><g clip-path="url(#a)"><path fill="#1A1C1F" fill-rule="evenodd" d="M7 4.824c.364.001.53.253.6.438l2.594 6.75a.553.553 0 0 1-.908.59L7 10.316l-2.286 2.286a.553.553 0 0 1-.908-.59l2.599-6.75c.07-.185.209-.44.595-.438m0-3.588c.368 0 .672.277.713.634l.005.084v1.221a.718.718 0 0 1-1.431.084l-.005-.084V1.954c0-.397.322-.718.718-.718" clip-rule="evenodd"/></g><defs><clipPath id="a"><path fill="#fff" d="M0 0h14v14H0z"/></clipPath></defs></svg>