<svg xmlns="http://www.w3.org/2000/svg" width="32" height="32" fill="none"><g clip-path="url(#a)"><path fill="#1A1C1F" fill-rule="evenodd" d="M17.556 21.866c-.411-.414-.965-1.063-1.556-1.063-.587 0-1.14.647-1.555 1.063l-3.186 3.187 4.74-12.6 4.743 12.6zm6.367 5.96L16.94 9.279A1.02 1.02 0 0 0 16 8.596a1.02 1.02 0 0 0-.933.658l-6.99 18.574a1.198 1.198 0 0 0 1.967 1.268l5.815-5.816a.2.2 0 0 1 .283 0l5.815 5.815a1.196 1.196 0 0 0 1.966-1.268M16 7.193a1 1 0 0 0 1-1V3.554a.99.99 0 0 0-1-1 1 1 0 0 0-1 1v2.638c.001.57.487 1 1 1" clip-rule="evenodd"/></g><defs><clipPath id="a"><path fill="#fff" d="M0 0h32v32H0z"/></clipPath></defs></svg>