<svg xmlns="http://www.w3.org/2000/svg" width="28" height="28" fill="none"><g clip-path="url(#a)"><path fill="#1A1C1F" fill-rule="evenodd" d="M14 7.521a.89.89 0 0 1 .823.597l6.11 16.23a1.047 1.047 0 0 1-1.721 1.11l-5.088-5.088a.175.175 0 0 0-.247 0L8.788 25.46a1.047 1.047 0 0 1-1.72-1.11l6.115-16.252A.89.89 0 0 1 14 7.521m0-5.286c.449 0 .874.34.875.875v2.308a.875.875 0 0 1-.875.875.89.89 0 0 1-.875-.875V3.11c0-.484.392-.875.875-.875" clip-rule="evenodd"/></g><defs><clipPath id="a"><path fill="#fff" d="M0 0h28v28H0z"/></clipPath></defs></svg>