<svg xmlns="http://www.w3.org/2000/svg" width="24" height="24" fill="none"><g clip-path="url(#a)"><path fill="#1A1C1F" fill-rule="evenodd" d="M12 7.6c.53 0 .833.307 1.038.769l4.733 12.298a.999.999 0 0 1-1.64 1.066l-4.13-4.131-4.133 4.132a1 1 0 0 1-1.64-1.066l4.7-12.17c.126-.35.494-.898 1.072-.898m.007 3.658L9.801 16.97l2.2-2.2 2.208 2.21zM12 1.974c.513 0 1 .309 1 1V5.22a1 1 0 0 1-1 1 1.01 1.01 0 0 1-1-1l-.001-.492L11 2.974a1 1 0 0 1 1-1" clip-rule="evenodd"/></g><defs><clipPath id="a"><path fill="#fff" d="M0 0h24v24H0z"/></clipPath></defs></svg>