<svg xmlns="http://www.w3.org/2000/svg" width="32" height="32" fill="none"><g clip-path="url(#a)"><path fill="#1A1C1F" fill-rule="evenodd" d="M16 2c.563 0 1 .438 1 1v4.063A9 9 0 0 1 24.938 15H29c.563 0 1 .438 1 1s-.437 1-1 1h-4.062A9.03 9.03 0 0 1 17 24.938V29c0 .563-.437 1-1 1s-1-.437-1-1v-4.062A9 9 0 0 1 7.063 17H3c-.562 0-1-.437-1-1s.438-1 1-1h4.063A9.03 9.03 0 0 1 15 7.063V3c0-.562.438-1 1-1m0 7c-3.875 0-7 3.125-7 7s3.125 7 7 7 7-3.125 7-7-3.125-7-7-7m0 10a3 3 0 1 0-.002-6.002A3 3 0 0 0 16 19" clip-rule="evenodd"/></g><defs><clipPath id="a"><path fill="#fff" d="M0 0h32v32H0z"/></clipPath></defs></svg>