<svg xmlns="http://www.w3.org/2000/svg" width="32" height="32" fill="none"><path fill="#1A1C1F" fill-rule="evenodd" d="M15.573 2.68c-.132.07-.312.23-.4.355l-.16.228v1.582c0 1.501.006 1.593.112 1.795.061.117.213.285.338.373.189.134.278.16.537.16s.348-.026.537-.16c.125-.088.277-.256.338-.373.106-.202.112-.294.112-1.795V3.263l-.16-.227c-.302-.426-.837-.579-1.254-.356m.198 5.963c-.272.046-.498.272-.686.685-.45.993-6.849 18.027-7.04 18.743-.16.597.362 1.283 1.029 1.352.548.056.508.09 3.657-3.034 1.578-1.565 2.959-2.914 3.069-2.997l.2-.151.2.151c.11.083 1.491 1.432 3.068 2.996 2.051 2.035 2.932 2.874 3.093 2.947.394.179.837.112 1.19-.179.214-.177.448-.618.448-.849.001-.171-.316-1.062-1.695-4.76-2.354-6.315-5.272-14.009-5.47-14.426-.175-.366-.598-.557-1.063-.478m.945 5.744c1.677 4.403 3.928 10.427 3.905 10.45-.014.013-.693-.632-1.51-1.434-2.613-2.567-2.592-2.55-3.111-2.55s-.5-.015-3.085 2.523c-.832.817-1.524 1.472-1.539 1.458-.029-.029.83-2.329 3.079-8.247a645 645 0 0 0 1.477-3.907c.015-.051.043-.093.063-.093.019 0 .344.81.721 1.8"/></svg>