<svg xmlns="http://www.w3.org/2000/svg" width="32" height="32" fill="none"><g clip-path="url(#a)"><path fill="#1A1C1F" fill-rule="evenodd" d="M8 28.991A.986.986 0 0 0 9 30h14.125c.501 0 .875-.496.875-1.007A.99.99 0 0 0 23 28H8.875c-.562 0-.875.504-.875.991M16 2c4.557 0 8 3.641 8 7.96 0 1.477-.403 3.036-1.274 4.526l-5.86 10.016a.97.97 0 0 1-.87.498.98.98 0 0 1-.871-.5l-5.68-9.66C8.48 13.2 8 11.563 8 9.955 8 5.555 11.531 2 16 2m.034 2C12.625 4 10 6.63 10 9.959c0 1.135.305 2.32 1.027 3.556L16 22.031l4.847-8.22A8.2 8.2 0 0 0 22 10.282C22 6.5 19.357 4 16.034 4M14 10c0 1.094.906 2 2 2s2-.906 2-2-.906-2-2-2-2 .906-2 2" clip-rule="evenodd"/></g><defs><clipPath id="a"><path fill="#fff" d="M0 0h32v32H0z"/></clipPath></defs></svg>