<svg xmlns="http://www.w3.org/2000/svg" width="16" height="16" fill="none"><g clip-path="url(#a)"><path fill="#1A1C1F" fill-rule="evenodd" d="M4 13.6c0-.425.4-.8.8-.8h6.4c.45 0 .8.35.8.8s-.4.8-.8.8H4.8c-.4 0-.8-.35-.8-.8m4-12c2.225 0 4 1.625 4 3.725 0 .75-.25 1.525-.725 2.25l-2.6 4.05A.83.83 0 0 1 8 12c-.25 0-.5-.125-.675-.375l-2.6-4.05C4.25 6.85 4 6.075 4 5.325 4 3.225 5.775 1.6 8 1.6M8 4c-.875 0-1.6.73-1.6 1.613C6.4 6.494 7.125 7.2 8 7.2s1.6-.706 1.6-1.587C9.6 4.73 8.875 4 8 4" clip-rule="evenodd"/></g><defs><clipPath id="a"><path fill="#fff" d="M0 0h16v16H0z"/></clipPath></defs></svg>