<svg xmlns="http://www.w3.org/2000/svg" width="16" height="16" fill="none"><g clip-path="url(#a)"><path fill="#1A1C1F" fill-rule="evenodd" d="M8 5.537c.412.001.599.286.68.496l2.935 7.64a.626.626 0 0 1-1.027.668L8 11.754l-2.588 2.588a.626.626 0 0 1-1.027-.668l2.94-7.641c.082-.21.237-.498.675-.496m0-4.062c.417 0 .76.314.807.718l.006.095V3.67a.813.813 0 0 1-1.62.095l-.006-.095V2.288c0-.45.364-.813.813-.813" clip-rule="evenodd"/></g><defs><clipPath id="a"><path fill="#fff" d="M0 0h16v16H0z"/></clipPath></defs></svg>