<svg xmlns="http://www.w3.org/2000/svg" width="16" height="16" fill="none"><g clip-path="url(#a)"><path fill="#1A1C1F" fill-rule="evenodd" d="M8 1.498c.457 0 .813.356.813.813v.838a4.97 4.97 0 0 1 4.038 4.038h.838c.482 0 .813.356.813.813 0 .432-.33.813-.813.813h-.838c-.356 2.057-1.981 3.682-4.038 4.012v.864a.8.8 0 0 1-.813.813.8.8 0 0 1-.813-.813v-.864c-2.057-.33-3.682-1.955-4.038-4.012h-.838c-.38 0-.813-.28-.813-.813 0-.457.381-.813.813-.813h.838A4.97 4.97 0 0 1 7.187 3.15v-.838c0-.457.356-.813.813-.813M8 4.75A3.24 3.24 0 0 0 4.75 8 3.24 3.24 0 0 0 8 11.25 3.24 3.24 0 0 0 11.25 8 3.24 3.24 0 0 0 8 4.75M6.375 8c0 .889.736 1.625 1.625 1.625S9.625 8.89 9.625 8 8.89 6.375 8 6.375 6.375 7.11 6.375 8" clip-rule="evenodd"/></g><defs><clipPath id="a"><path fill="#fff" d="M0 0h16v16H0z"/></clipPath></defs></svg>