<svg xmlns="http://www.w3.org/2000/svg" width="28" height="28" fill="none"><g clip-path="url(#a)"><path fill="#1A1C1F" fill-rule="evenodd" d="M14 1.75c.492 0 .875.383.875.875V6.18a7.88 7.88 0 0 1 6.945 6.945h3.555c.492 0 .875.383.875.875a.864.864 0 0 1-.875.875H21.82a7.9 7.9 0 0 1-6.945 6.945v3.555a.864.864 0 0 1-.875.875.864.864 0 0 1-.875-.875V21.82a7.88 7.88 0 0 1-6.945-6.945H2.625A.864.864 0 0 1 1.75 14c0-.492.383-.875.875-.875H6.18a7.9 7.9 0 0 1 6.945-6.945V2.625c0-.492.383-.875.875-.875m0 6.125A6.115 6.115 0 0 0 7.875 14 6.115 6.115 0 0 0 14 20.125 6.115 6.115 0 0 0 20.125 14 6.115 6.115 0 0 0 14 7.875m0 8.75a2.626 2.626 0 1 0-.001-5.251A2.626 2.626 0 0 0 14 16.625" clip-rule="evenodd"/></g><defs><clipPath id="a"><path fill="#fff" d="M0 0h28v28H0z"/></clipPath></defs></svg>