<svg xmlns="http://www.w3.org/2000/svg" width="32" height="32" fill="none"><path fill="#1A1C1F" fill-rule="evenodd" d="M15.573 2.68c-.132.07-.312.23-.4.355l-.16.228v1.582c0 1.501.006 1.593.112 1.795.061.117.213.285.338.373.189.134.278.16.537.16s.348-.026.537-.16c.125-.088.277-.256.338-.373.106-.202.112-.294.112-1.795V3.263l-.16-.227c-.302-.426-.837-.579-1.254-.356m.198 5.963c-.272.046-.498.272-.686.685-.45.993-6.849 18.027-7.04 18.743-.16.597.362 1.283 1.029 1.352.548.056.508.09 3.657-3.034 1.578-1.565 2.959-2.914 3.069-2.997l.2-.151.2.151c.11.083 1.491 1.432 3.068 2.996 2.953 2.929 3.09 3.048 3.499 3.051.727.005 1.362-.718 1.192-1.356-.118-.439-2.853-7.781-5.426-14.563-1.444-3.806-1.716-4.501-1.801-4.604-.164-.198-.626-.33-.961-.273"/></svg>