<svg xmlns="http://www.w3.org/2000/svg" width="16" height="16" fill="none"><g clip-path="url(#a)"><path fill="#1A1C1F" fill-rule="evenodd" d="M3.937 13.689c0-.432.406-.813.812-.813h6.502c.457 0 .813.356.813.813s-.407.813-.813.813H4.749c-.406 0-.812-.356-.812-.813M8 1.499c2.26 0 4.063 1.65 4.063 3.783 0 .762-.254 1.55-.736 2.286l-2.641 4.115a.87.87 0 0 1-.686.38.87.87 0 0 1-.686-.38L4.673 7.567c-.483-.736-.736-1.524-.736-2.285C3.937 3.149 5.74 1.497 8 1.497m0 1.625c-1.397 0-2.438.94-2.438 2.133 0 .406.178.89.482 1.372L8 9.625 9.956 6.63c.304-.483.482-.89.482-1.372 0-1.194-1.041-2.133-2.438-2.133m-.813 2.438c0-.457.33-.813.813-.813.457 0 .813.33.813.813 0 .457-.33.813-.813.813a.787.787 0 0 1-.813-.813" clip-rule="evenodd"/></g><defs><clipPath id="a"><path fill="#fff" d="M0 0h16v16H0z"/></clipPath></defs></svg>