<svg xmlns="http://www.w3.org/2000/svg" width="14" height="14" fill="none"><g clip-path="url(#a)"><path fill="#1A1C1F" fill-rule="evenodd" d="M3.5 11.9c0-.372.35-.7.7-.7h5.6c.394 0 .7.306.7.7s-.35.7-.7.7H4.2a.72.72 0 0 1-.7-.7M7 1.4c1.947 0 3.5 1.422 3.5 3.26 0 .656-.219 1.334-.634 1.968L7.59 10.172A.72.72 0 0 1 7 10.5a.72.72 0 0 1-.59-.328L4.133 6.628C3.72 5.994 3.5 5.316 3.5 4.66 3.5 2.822 5.053 1.4 7 1.4m0 2.1c-.766 0-1.4.64-1.4 1.411C5.6 5.683 6.234 6.3 7 6.3s1.4-.617 1.4-1.389S7.766 3.5 7 3.5" clip-rule="evenodd"/></g><defs><clipPath id="a"><path fill="#fff" d="M0 0h14v14H0z"/></clipPath></defs></svg>