<svg xmlns="http://www.w3.org/2000/svg" width="20" height="20" fill="none"><g clip-path="url(#a)"><path fill="#1A1C1F" fill-rule="evenodd" d="M5 17c0-.531.5-1 1-1h8c.563 0 1 .438 1 1s-.5 1-1 1H6c-.5 0-1-.437-1-1m5-15c2.781 0 5 2.031 5 4.656 0 .938-.312 1.907-.906 2.813l-3.25 5.062A1.07 1.07 0 0 1 10 15a1.07 1.07 0 0 1-.844-.469L5.906 9.47C5.313 8.563 5 7.594 5 6.656 5 4.031 7.219 2 10 2m0 2C8.281 4 7 5.156 7 6.625c0 .5.219 1.094.594 1.688L10 12l2.406-3.687c.375-.594.594-1.094.594-1.688C13 5.156 11.719 4 10 4M9 7c0-.562.406-1 1-1 .563 0 1 .406 1 1 0 .563-.406 1-1 1-.562 0-1-.406-1-1" clip-rule="evenodd"/></g><defs><clipPath id="a"><path fill="#fff" d="M0 0h20v20H0z"/></clipPath></defs></svg>