<svg xmlns="http://www.w3.org/2000/svg" width="24" height="24" fill="none"><g clip-path="url(#a)"><path fill="#1A1C1F" fill-rule="evenodd" d="M12 7.599c.53 0 .834.307 1.039.769l4.733 12.298a1 1 0 0 1-1.64 1.067L12 17.6 7.87 21.733a1 1 0 0 1-1.641-1.066l4.7-12.17c.127-.348.495-.898 1.072-.898m0-5.625c.513 0 1 .308 1 1V5.22a1 1 0 0 1-1 1 1.01 1.01 0 0 1-1-1l-.001-.492L11 2.974a1 1 0 0 1 1-1" clip-rule="evenodd"/></g><defs><clipPath id="a"><path fill="#fff" d="M0 0h24v24H0z"/></clipPath></defs></svg>