<svg xmlns="http://www.w3.org/2000/svg" width="32" height="32" fill="none"><path fill="#1A1C1F" fill-rule="evenodd" d="M27.413 3.459c-.334.112-.165.036-6.916 3.093-9.014 4.083-14.292 6.49-16.182 7.382-.659.311-.841.473-.986.879-.098.275-.093.744.011 1.048.11.325.561.796.85.89.162.052 1.45.075 5.579.098 2.953.017 5.389.051 5.413.075.025.025.058 2.401.075 5.28l.031 5.236.123.282a1.505 1.505 0 0 0 2.085.725c.376-.205.525-.416.962-1.361 2.238-4.841 8.454-18.449 9.734-21.312.392-.874.554-1.298.553-1.44a1 1 0 0 0-.417-.788c-.277-.184-.549-.21-.915-.087m-1.721 3.008c-.021.053-7.891 17.246-8.258 18.04-.054.117-.101.201-.105.186-.004-.014-.023-1.85-.043-4.08l-.036-4.053-.17-.363c-.213-.454-.667-.919-1.106-1.133l-.32-.156-1.36-.036c-.748-.02-2.655-.038-4.238-.041-1.635-.002-2.855-.024-2.827-.051.028-.025 3.231-1.488 7.118-3.25 3.886-1.762 8.014-3.635 9.173-4.162s2.127-.96 2.152-.963.034.025.02.062"/></svg>