<svg xmlns="http://www.w3.org/2000/svg" width="20" height="20" fill="none"><g clip-path="url(#a)"><path fill="#1A1C1F" fill-rule="evenodd" d="M10 2c.563 0 1 .438 1 1v1.031A6.11 6.11 0 0 1 15.969 9H17c.594 0 1 .438 1 1 0 .531-.406 1-1 1h-1.031c-.438 2.531-2.438 4.531-4.969 4.938V17c0 .563-.437 1-1 1s-1-.437-1-1v-1.062C6.469 15.53 4.469 13.53 4.031 11H3c-.469 0-1-.344-1-1 0-.562.469-1 1-1h1.031A6.11 6.11 0 0 1 9 4.031V3c0-.562.438-1 1-1m0 4c-2.219 0-4 1.781-4 4s1.781 4 4 4 4-1.781 4-4-1.781-4-4-4m-2 4c0 1.094.906 2 2 2s2-.906 2-2-.906-2-2-2-2 .906-2 2" clip-rule="evenodd"/></g><defs><clipPath id="a"><path fill="#fff" d="M0 0h20v20H0z"/></clipPath></defs></svg>