<svg xmlns="http://www.w3.org/2000/svg" width="12" height="12" fill="none"><g clip-path="url(#a)"><path fill="#1A1C1F" fill-rule="evenodd" d="M3 10.2c0-.319.3-.6.6-.6h4.8c.338 0 .6.263.6.6 0 .338-.3.6-.6.6H3.6c-.3 0-.6-.263-.6-.6m3-9c1.669 0 3 1.219 3 2.794 0 .562-.187 1.144-.544 1.687L6.506 8.72A.62.62 0 0 1 6 9a.62.62 0 0 1-.506-.281L3.544 5.68C3.187 5.138 3 4.556 3 3.994 3 2.419 4.331 1.2 6 1.2M6 3c-.656 0-1.2.548-1.2 1.21 0 .66.544 1.19 1.2 1.19s1.2-.53 1.2-1.19C7.2 3.547 6.656 3 6 3" clip-rule="evenodd"/></g><defs><clipPath id="a"><path fill="#fff" d="M0 0h12v12H0z"/></clipPath></defs></svg>