<svg xmlns="http://www.w3.org/2000/svg" width="12" height="12" fill="none"><g clip-path="url(#a)"><path fill="#1A1C1F" fill-rule="evenodd" d="M2.923 10.308c0-.327.308-.616.615-.616h4.924c.346 0 .615.27.615.616a.633.633 0 0 1-.615.615H3.538a.633.633 0 0 1-.615-.615M6 1.077c1.712 0 3.077 1.25 3.077 2.865 0 .577-.192 1.173-.558 1.731l-2 3.115A.66.66 0 0 1 6 9.077a.66.66 0 0 1-.52-.289l-2-3.115c-.365-.558-.557-1.154-.557-1.73C2.923 2.326 4.29 1.076 6 1.076m0 1.23c-1.058 0-1.846.712-1.846 1.616 0 .308.135.673.365 1.039L6 7.23l1.48-2.27c.232-.365.366-.673.366-1.038 0-.904-.788-1.615-1.846-1.615m-.615 1.847c0-.346.25-.616.615-.616.346 0 .615.25.615.616 0 .346-.25.615-.615.615a.596.596 0 0 1-.615-.615" clip-rule="evenodd"/></g><defs><clipPath id="a"><path fill="#fff" d="M0 0h12v12H0z"/></clipPath></defs></svg>