<svg xmlns="http://www.w3.org/2000/svg" width="14" height="14" fill="none"><g clip-path="url(#a)"><path fill="#1A1C1F" fill-rule="evenodd" d="M3.41 12.026c0-.382.36-.718.718-.718h5.744c.404 0 .718.314.718.718s-.36.718-.718.718H4.128c-.359 0-.718-.314-.718-.718M7 1.256c1.997 0 3.59 1.459 3.59 3.343 0 .673-.225 1.369-.65 2.02l-2.334 3.634A.77.77 0 0 1 7 10.59a.77.77 0 0 1-.606-.337L4.061 6.62c-.426-.651-.65-1.347-.65-2.02C3.41 2.715 5.002 1.256 7 1.256m0 1.436c-1.234 0-2.154.83-2.154 1.885 0 .359.157.785.426 1.211L7 8.436l1.728-2.648c.269-.426.426-.785.426-1.211 0-1.055-.92-1.885-2.154-1.885m-.718 2.154c0-.404.292-.718.718-.718.404 0 .718.292.718.718A.695.695 0 0 1 7 5.564a.695.695 0 0 1-.718-.718" clip-rule="evenodd"/></g><defs><clipPath id="a"><path fill="#fff" d="M0 0h14v14H0z"/></clipPath></defs></svg>