<svg xmlns="http://www.w3.org/2000/svg" width="20" height="20" fill="none"><g clip-path="url(#a)"><path fill="#1A1C1F" fill-rule="evenodd" d="M5 17c0-.531.5-1 1-1h8c.563 0 1 .438 1 1s-.5 1-1 1H6c-.5 0-1-.437-1-1m5-15c2.781 0 5 2.031 5 4.656 0 .938-.312 1.907-.906 2.813l-3.25 5.062c-.219.313-.531.469-.844.469s-.625-.156-.844-.469L5.906 9.47C5.313 8.563 5 7.594 5 6.656 5 4.031 7.219 2 10 2m0 3c-1.094 0-2 .913-2 2.016S8.906 9 10 9s2-.882 2-1.984C12 5.913 11.094 5 10 5" clip-rule="evenodd"/></g><defs><clipPath id="a"><path fill="#fff" d="M0 0h20v20H0z"/></clipPath></defs></svg>