<svg xmlns="http://www.w3.org/2000/svg" width="12" height="12" fill="none"><g clip-path="url(#a)"><path fill="#1A1C1F" fill-rule="evenodd" d="M6 4.135c.312 0 .453.217.514.376l2.223 5.785a.474.474 0 0 1-.778.506L6 8.842l-1.96 1.96a.474.474 0 0 1-.778-.506L5.49 4.51c.06-.158.179-.376.51-.375m0-3.076c.316 0 .576.238.611.544l.004.072v1.047a.615.615 0 0 1-1.226.072l-.004-.072V1.675c0-.34.275-.616.615-.616" clip-rule="evenodd"/></g><defs><clipPath id="a"><path fill="#fff" d="M0 0h12v12H0z"/></clipPath></defs></svg>