<svg xmlns="http://www.w3.org/2000/svg" width="32" height="32" fill="none"><path fill="#1A1C1F" fill-rule="evenodd" d="M15.04 2.077c-2.585.276-4.927 1.887-6.126 4.213-.654 1.269-.88 2.217-.877 3.683.002 1.138.088 1.66.454 2.765.371 1.121.762 1.824 4.901 8.816 1.797 3.035 1.879 3.168 2.036 3.268.339.217.865.209 1.143-.019.153-.125.51-.697 1.866-2.99 2.408-4.07 4.296-7.334 4.646-8.031.3-.599.575-1.415.742-2.206.124-.584.142-.794.143-1.656.001-.821-.019-1.074-.115-1.507-.561-2.517-2.045-4.445-4.279-5.561-.632-.316-1.606-.638-2.158-.715-.571-.079-1.886-.113-2.376-.06m2.24 2.064c2.243.456 3.92 2.102 4.509 4.422.115.454.131.634.131 1.467 0 .878-.012.996-.157 1.559-.278 1.076-.357 1.23-2.658 5.158-1.743 2.975-3.062 5.173-3.106 5.173-.056 0-3.384-5.663-4.928-8.385-.788-1.39-1.011-2.177-1.009-3.562.003-1.162.134-1.787.553-2.628.93-1.866 2.624-3.055 4.687-3.291.518-.059 1.464-.018 1.978.087m-1.992 4.015c-.663.267-1.102.81-1.257 1.556-.165.793.34 1.705 1.157 2.091.315.149.414.169.812.169.395 0 .498-.021.8-.164.425-.2.797-.562.996-.969.135-.273.151-.362.151-.839s-.016-.566-.151-.839a2.24 2.24 0 0 0-.909-.934c-.375-.193-1.203-.23-1.599-.071M9.283 28.04c-.671.016-.728.025-.893.151-.567.432-.479 1.348.161 1.69l.222.119h7.254c6.805 0 7.264-.006 7.424-.093.23-.126.422-.39.502-.69.093-.347-.002-.644-.297-.928l-.226-.218-3.217-.035c-3.06-.034-9.395-.032-10.93.004"/></svg>