<svg xmlns="http://www.w3.org/2000/svg" width="20" height="20" fill="none"><path fill="#1A1C1F" fill-rule="evenodd" d="M9.42 2.037a5.3 5.3 0 0 0-2.368.853c-.381.252-.977.827-1.229 1.183-.614.871-.874 1.84-.79 2.941.07.91.295 1.512.975 2.601 1.499 2.4 3.115 4.864 3.351 5.108a.84.84 0 0 0 .732.267c.481-.05.554-.139 2.148-2.623a397 397 0 0 0 1.97-3.1c.343-.556.612-1.238.711-1.802.075-.428.074-1.319-.001-1.675a4.5 4.5 0 0 0-1.302-2.351c-1.09-1.05-2.637-1.567-4.197-1.402m1.093 3.049c.589.144 1.144.658 1.354 1.257.285.81.042 1.646-.645 2.216-.221.184-.44.29-.769.374a1.64 1.64 0 0 1-.906 0c-.385-.097-.638-.234-.892-.482a2.05 2.05 0 0 1-.522-.768c-.105-.276-.131-.873-.05-1.183a1.97 1.97 0 0 1 1.053-1.28c.448-.221.854-.261 1.377-.134M6.783 16.03c-1.233.022-1.197.016-1.463.282-.213.213-.303.423-.302.705.001.274.062.413.299.676.28.312-.074.29 4.683.29 4.781 0 4.397.026 4.702-.308.227-.249.276-.367.278-.675.003-.301-.073-.493-.275-.695-.286-.286.021-.262-3.605-.28a293 293 0 0 0-4.317.005"/></svg>