<svg xmlns="http://www.w3.org/2000/svg" width="28" height="28" fill="none"><g clip-path="url(#a)"><path fill="#1A1C1F" fill-rule="evenodd" d="M7 25.367c0 .504.383.883.875.883h12.36c.438 0 .765-.434.765-.881a.864.864 0 0 0-.875-.869H7.765c-.492 0-.765.441-.765.867M14 1.75c3.987 0 7 3.186 7 6.965 0 1.293-.352 2.657-1.115 3.96l-5.128 8.764a.85.85 0 0 1-.76.436.85.85 0 0 1-.763-.437l-4.97-8.453C7.42 11.55 7 10.117 7 8.71c0-3.85 3.09-6.961 7-6.961m.03 1.75c-2.983 0-5.28 2.3-5.28 5.214 0 .993.267 2.03.9 3.112L14 19.277l4.241-7.192a7.2 7.2 0 0 0 1.009-3.089c0-3.309-2.312-5.496-5.22-5.496m-1.78 5.25c0 .957.793 1.75 1.75 1.75s1.75-.793 1.75-1.75S14.957 7 14 7s-1.75.793-1.75 1.75" clip-rule="evenodd"/></g><defs><clipPath id="a"><path fill="#fff" d="M0 0h28v28H0z"/></clipPath></defs></svg>