<svg xmlns="http://www.w3.org/2000/svg" width="32" height="32" fill="none"><path fill="#1A1C1F" fill-rule="evenodd" d="M28.693 4.585c-.204.052-1.576.677-5.573 2.536-1.594.741-2.676 1.215-2.773 1.215-.095-.001-1.007-.396-2.24-.973-5.538-2.588-5.74-2.679-6.099-2.73-.627-.088-.64-.084-4.115 1.515-4.256 1.958-5.635 2.629-5.744 2.794-.16.245-.18 1.387-.164 9.567L2 26.693l.126.257c.163.331.473.546.777.537.236-.006 1.013-.341 4.777-2.061a814 814 0 0 1 3.065-1.395l.905-.407.269.114c.147.063 1.588.714 3.201 1.447 4.393 1.994 4.942 2.228 5.23 2.228.281 0 1.347-.46 5.41-2.336 3.615-1.67 3.979-1.848 4.081-2.005.059-.09.106-.325.136-.685.025-.301.046-4.304.047-8.896l.003-8.35-.14-.215a1.1 1.1 0 0 0-.25-.284c-.139-.087-.695-.12-.944-.057M10.66 15.017l.007 6.83-2.894 1.341a987 987 0 0 1-3.298 1.525l-.406.184-.034-.644c-.045-.836-.045-8.056 0-11.487l.036-2.674.884-.405c.487-.222 1.953-.894 3.258-1.494l2.374-1.089.033.541c.019.298.037 3.615.04 7.372m4.993-6.562c1.35.623 2.72 1.257 3.046 1.409l.591.278.035.755c.044.969.035 12.924-.011 13.543l-.034.466-1.6-.735c-.88-.405-2.374-1.094-3.32-1.532l-1.72-.796v-6.695c0-3.682.016-6.998.035-7.368l.034-.674.246.109c.135.059 1.349.617 2.698 1.24m12.34 6.59L28 21.85l-1.187.551c-.652.303-2.134.99-3.293 1.525l-2.107.975-.032-.624c-.047-.879-.055-8.559-.012-11.619l.035-2.56 1.551-.713 3.258-1.494 1.707-.781.033.565c.018.311.036 3.627.04 7.37"/></svg>