<svg xmlns="http://www.w3.org/2000/svg" width="20" height="20" fill="none"><g clip-path="url(#a)"><path fill="#1A1C1F" fill-rule="evenodd" d="M10 2c3.469 0 6 2.594 6 6 0 1.375-.625 2.906-1.75 4.563l-3.437 5A.94.94 0 0 1 10 18a.94.94 0 0 1-.812-.437l-3.438-5C4.594 10.875 4 9.375 4 8c0-3.312 2.438-6 6-6m0 2C7.531 4 6 5.5 6 7.906c0 1.219.656 2.375 1.375 3.375L10 15l2.625-3.719c.688-1 1.375-2.156 1.375-3.375C14 5.5 12.469 4 10 4M8 8c0-1.094.906-2 2-2s2 .906 2 2-.906 2-2 2-2-.906-2-2" clip-rule="evenodd"/></g><defs><clipPath id="a"><path fill="#fff" d="M0 0h20v20H0z"/></clipPath></defs></svg>