<svg xmlns="http://www.w3.org/2000/svg" width="12" height="12" fill="none"><g clip-path="url(#a)"><path fill="#1A1C1F" fill-rule="evenodd" d="M6 1.077c2.135 0 3.692 1.596 3.692 3.692 0 .846-.384 1.789-1.077 2.808L6.5 10.654a.58.58 0 0 1-.5.27.58.58 0 0 1-.5-.27L3.385 7.577c-.712-1.039-1.077-1.962-1.077-2.808 0-2.038 1.5-3.692 3.692-3.692m0 1.23c-1.52 0-2.462.924-2.462 2.404 0 .75.404 1.462.847 2.077L6 9.077l1.615-2.289c.423-.615.847-1.326.847-2.077 0-1.48-.943-2.403-2.462-2.403M4.77 4.77c0-.673.557-1.23 1.23-1.23s1.23.557 1.23 1.23A1.24 1.24 0 0 1 6 6a1.24 1.24 0 0 1-1.23-1.23" clip-rule="evenodd"/></g><defs><clipPath id="a"><path fill="#fff" d="M0 0h12v12H0z"/></clipPath></defs></svg>