<svg xmlns="http://www.w3.org/2000/svg" width="12" height="12" fill="none"><g clip-path="url(#a)"><path fill="#1A1C1F" fill-rule="evenodd" d="M6 1.077c2.135 0 3.692 1.596 3.692 3.692 0 .846-.365 1.789-1.077 2.808L6.5 10.654a.58.58 0 0 1-.5.27.58.58 0 0 1-.5-.27L3.385 7.577c-.712-1.039-1.077-1.962-1.077-2.808 0-2.038 1.5-3.692 3.692-3.692m0 2.461A1.24 1.24 0 0 0 4.77 4.77C4.77 5.442 5.326 6 6 6a1.24 1.24 0 0 0 1.23-1.23A1.24 1.24 0 0 0 6 3.537" clip-rule="evenodd"/></g><defs><clipPath id="a"><path fill="#fff" d="M0 0h12v12H0z"/></clipPath></defs></svg>