<svg xmlns="http://www.w3.org/2000/svg" width="32" height="32" fill="none"><g clip-path="url(#a)"><path fill="#1A1C1F" fill-rule="evenodd" d="M29.188 4.5c.468 0 .812.344.812.875V22.5c0 .344-.151.698-.469.844L20.97 27.28c-.216.1-.407.157-.625.157-.188 0-.409-.058-.625-.157l-8.063-3.687-8.094 3.718c-.19.088-.53.188-.718.188-.313 0-.844-.344-.844-1.031V9.5c0-.344.152-.697.469-.844l8.281-3.844a2.1 2.1 0 0 1 .938-.218c.312 0 .658.058 1 .218l7.656 3.594L28.28 4.72c.166-.077.532-.219.907-.219M10.656 7.063 4 10.125v14.813l6.656-3.094zm2 0v14.78l6.688 3.095V10.156zm15.344 0-6.656 3.062v14.813L28 21.844z" clip-rule="evenodd"/></g><defs><clipPath id="a"><path fill="#fff" d="M0 0h32v32H0z"/></clipPath></defs></svg>