<svg xmlns="http://www.w3.org/2000/svg" width="12" height="12" fill="none"><g clip-path="url(#a)"><path fill="#1A1C1F" fill-rule="evenodd" d="m4.558 1.154 3.25 1.077L10 1.135c.093-.047.192-.058.346-.058.27 0 .577.212.577.52v7.48c0 .212-.077.404-.27.5l-2.518 1.288a.6.6 0 0 1-.27.058c-.077 0-.192-.038-.307-.058L4.192 9.731l-2.23 1.134a.6.6 0 0 1-.25.058c-.347 0-.635-.212-.635-.615V2.904c0-.192.077-.423.27-.52l2.46-1.23a.7.7 0 0 1 .306-.076l.06-.001c.096 0 .171.006.385.077m.211 1.365v6.116l2.462.827V3.346zm4.923.154-1.23.615v6.02l1.23-.616zm-6.154 0-1.23.615v6.02l1.23-.616z" clip-rule="evenodd"/></g><defs><clipPath id="a"><path fill="#fff" d="M0 0h12v12H0z"/></clipPath></defs></svg>