<svg xmlns="http://www.w3.org/2000/svg" width="20" height="20" fill="none"><g clip-path="url(#a)"><path fill="#1A1C1F" fill-rule="evenodd" d="m7.656 2.125 5.282 1.75L16.5 2.094c.15-.075.313-.094.563-.094.437 0 .937.344.937.844V15c0 .344-.125.656-.437.813l-4.094 2.093a1 1 0 0 1-.438.094c-.125 0-.312-.062-.5-.094l-5.469-1.843-3.625 1.843a1 1 0 0 1-.406.094C2.47 18 2 17.656 2 17V4.969c0-.313.125-.688.438-.844l4-2c.208-.104.373-.122.512-.124L7.031 2c.157 0 .278.01.625.125M8 4.344v9.937l4 1.344V5.688zm8 .25-2 1v9.781l2-1zm-10 0-2 1v9.781l2-1z" clip-rule="evenodd"/></g><defs><clipPath id="a"><path fill="#fff" d="M0 0h20v20H0z"/></clipPath></defs></svg>