<svg xmlns="http://www.w3.org/2000/svg" width="20" height="20" fill="none"><path fill="#1A1C1F" fill-rule="evenodd" d="M9.383 2.037C6.978 2.265 5.069 3.76 4.323 6c-.49 1.473-.417 2.881.231 4.427.321.767.667 1.352 1.678 2.84 1.802 2.649 3.035 4.401 3.188 4.527.137.113.399.206.58.206s.443-.093.579-.205c.143-.118 1.171-1.575 3.111-4.412 1.349-1.972 1.698-2.611 2.047-3.75.515-1.676.231-3.567-.76-5.065-.344-.52-1.007-1.186-1.524-1.531-1.19-.792-2.599-1.139-4.07-1m1.161 4.053c.548.162 1.01.564 1.262 1.096.524 1.112-.129 2.434-1.36 2.748a1.63 1.63 0 0 1-.889.001 1.94 1.94 0 0 1-1.113-.719 2 2 0 0 1-.399-.857c-.219-1.031.556-2.133 1.633-2.324a2.4 2.4 0 0 1 .866.055"/></svg>