<svg xmlns="http://www.w3.org/2000/svg" width="28" height="28" fill="none"><g clip-path="url(#a)"><path fill="#1A1C1F" fill-rule="evenodd" d="M14 1.75c4.375 0 7.875 3.5 7.875 7.82 0 1.668-.683 3.2-1.422 4.703l-5.64 11.482a.88.88 0 0 1-.786.495.88.88 0 0 1-.786-.495L7.575 14.27c-.74-1.5-1.45-3.033-1.45-4.7C6.125 5.222 9.652 1.75 14 1.75m.027 1.777c-3.39 0-6.152 2.735-6.152 6.125 0 1.395.652 2.71 1.26 3.958l4.892 10.042 4.866-10.04c.606-1.251 1.232-2.565 1.232-3.932 0-3.418-2.707-6.153-6.098-6.153m-2.652 6.098a2.626 2.626 0 1 1 5.251.001 2.626 2.626 0 0 1-5.251-.001" clip-rule="evenodd"/></g><defs><clipPath id="a"><path fill="#fff" d="M0 0h28v28H0z"/></clipPath></defs></svg>