<svg xmlns="http://www.w3.org/2000/svg" width="32" height="32" fill="none"><path fill="#1A1C1F" fill-rule="evenodd" d="M14.907 2.083c-1.117.097-2.527.579-3.574 1.222-2.491 1.532-4.061 4.047-4.293 6.878-.117 1.442.146 2.814.867 4.51.294.693 2.292 4.772 4.926 10.059 2.744 5.507 2.545 5.176 3.138 5.208.259.014.364-.006.536-.105.202-.115.276-.247 1.449-2.575 2.361-4.684 5.88-11.887 6.216-12.72.678-1.685.921-2.997.796-4.308-.116-1.228-.397-2.231-.921-3.292-1.03-2.089-2.967-3.757-5.22-4.498-.779-.256-1.137-.322-2.057-.381-.934-.059-1.153-.059-1.863.002m2.026 2.046c.584.03 1.39.259 2.083.591a6.96 6.96 0 0 1 3.167 3.073c.58 1.11.75 1.84.75 3.211 0 1.103-.069 1.489-.454 2.516-.299.8-.472 1.169-2.839 6.053-3.202 6.607-3.546 7.307-3.591 7.307-.064 0-1.735-3.364-4.782-9.627-2.004-4.12-2.223-4.737-2.224-6.266-.001-.837.068-1.335.276-2 .166-.534.632-1.472.992-1.999.352-.514 1.123-1.285 1.637-1.637.733-.501 1.764-.966 2.532-1.142.307-.07 1.314-.141 1.707-.12zM15.44 8.054c-.454.081-1.186.483-1.557.853a3.2 3.2 0 0 0-.769 1.306c-.119.43-.093 1.316.052 1.734.319.918 1.163 1.71 2.068 1.942.181.047.525.084.766.084.803 0 1.466-.264 2.033-.81.977-.938 1.217-2.268.633-3.503-.301-.635-1.02-1.252-1.743-1.495-.38-.127-1.095-.181-1.483-.111"/></svg>