<svg xmlns="http://www.w3.org/2000/svg" width="28" height="28" fill="none"><g clip-path="url(#a)"><path fill="#1A1C1F" fill-rule="evenodd" d="M25.54 3.938c.41 0 .71.3.71.765v14.985c0 .3-.132.61-.41.738l-7.492 3.445c-.19.087-.356.137-.547.137-.164 0-.358-.05-.547-.137l-7.055-3.226-7.082 3.253c-.167.077-.465.165-.629.165-.273 0-.738-.301-.738-.903V8.313c0-.301.133-.61.41-.739l7.246-3.363c.3-.14.547-.191.82-.191.274 0 .576.05.876.19L17.8 7.356l6.945-3.226c.145-.067.465-.191.793-.191M9.323 6.18 3.5 8.86v12.96l5.824-2.707zm1.75 0v12.933l5.852 2.707V8.887zm13.426 0-5.824 2.68v12.96l5.824-2.707z" clip-rule="evenodd"/></g><defs><clipPath id="a"><path fill="#fff" d="M0 0h28v28H0z"/></clipPath></defs></svg>