<svg xmlns="http://www.w3.org/2000/svg" width="16" height="16" fill="none"><g clip-path="url(#a)"><path fill="#1A1C1F" fill-rule="evenodd" d="M8 1.498c2.82 0 4.876 2.108 4.876 4.877 0 1.117-.482 2.361-1.422 3.707L8.66 14.147a.77.77 0 0 1-.66.356.77.77 0 0 1-.66-.356l-2.794-4.064c-.94-1.37-1.422-2.59-1.422-3.707 0-2.692 1.98-4.877 4.876-4.877M8 4.75c-.889 0-1.625.737-1.625 1.626S7.11 8 8 8s1.625-.736 1.625-1.625c0-.89-.736-1.626-1.625-1.626" clip-rule="evenodd"/></g><defs><clipPath id="a"><path fill="#fff" d="M0 0h16v16H0z"/></clipPath></defs></svg>