<svg xmlns="http://www.w3.org/2000/svg" width="24" height="24" fill="none"><g clip-path="url(#a)"><path fill="#1A1C1F" fill-rule="evenodd" d="M12 2c3.875 0 7 2.844 7 6.375 0 1.406-.469 2.75-1.156 3.969l-4.969 9.125a1.013 1.013 0 0 1-1.781 0l-4.906-9.125C5.53 11.125 5 9.78 5 8.375 5 4.844 8.125 2 12 2m0 2C9.25 4 7 5.969 7 8.406c0 1.063.438 2.125.938 3.063L12 19l4.063-7.562c.5-.907.937-1.97.937-3.032C17 5.97 14.75 4 12 4m-2 5c0-1.094.906-2 2-2s2 .906 2 2-.906 2-2 2-2-.906-2-2" clip-rule="evenodd"/></g><defs><clipPath id="a"><path fill="#fff" d="M0 0h24v24H0z"/></clipPath></defs></svg>