<svg xmlns="http://www.w3.org/2000/svg" width="24" height="24" fill="none"><g clip-path="url(#a)"><path fill="#1A1C1F" fill-rule="evenodd" d="M9 2.5c.188 0 .406.094.531.156L15 5.406l5.188-2.593c.337-.17.687-.282.968-.282.5 0 .844.438.844.875V17.47c0 .375-.125.718-.531.906l-5.969 3c-.125.063-.25.125-.469.125-.25 0-.375-.062-.469-.125l-5.53-2.781L3.75 21.25c-.25.094-.594.25-.875.25-.437 0-.875-.312-.875-.906V6.53c0-.343.15-.699.438-.843l6.03-3.032c.089-.044.313-.156.532-.156m-.969 2.625L4 7.156v11.719l4.031-2.031zm2 0v11.719L14 18.875V7.156zm9.969 0-4 2.031v11.719l4-2.031z" clip-rule="evenodd"/></g><defs><clipPath id="a"><path fill="#fff" d="M0 0h24v24H0z"/></clipPath></defs></svg>