<svg xmlns="http://www.w3.org/2000/svg" width="32" height="32" fill="none"><g clip-path="url(#a)"><path fill="#1A1C1F" fill-rule="evenodd" d="M16 2c5 0 9 4 9 8.938 0 1.906-.78 3.656-1.625 5.374L16.93 29.434a1 1 0 0 1-.899.566c-.375 0-.726-.215-.899-.566L8.657 16.31C7.811 14.595 7 12.844 7 10.938 7 5.968 11.031 2 16 2m.031 2.031c-3.875 0-7.031 3.125-7.031 7 0 1.594.745 3.096 1.44 4.524l5.591 11.476 5.56-11.474c.694-1.43 1.409-2.932 1.409-4.494 0-3.907-3.094-7.032-6.969-7.032M13 11a3 3 0 1 1 6.002.002A3 3 0 0 1 13 11" clip-rule="evenodd"/></g><defs><clipPath id="a"><path fill="#fff" d="M0 0h32v32H0z"/></clipPath></defs></svg>