<svg xmlns="http://www.w3.org/2000/svg" width="14" height="14" fill="none"><g clip-path="url(#a)"><path fill="#1A1C1F" fill-rule="evenodd" d="M5.317 1.346 9.11 2.603l2.558-1.28c.108-.053.224-.067.403-.067.315 0 .674.247.674.606v8.728c0 .247-.09.47-.314.583l-2.94 1.503a.7.7 0 0 1-.314.068c-.09 0-.224-.045-.359-.068l-3.926-1.323-2.603 1.323a.7.7 0 0 1-.291.068c-.404 0-.74-.247-.74-.718V3.388c0-.225.09-.494.314-.606l2.871-1.436a.8.8 0 0 1 .356-.089h.07c.113 0 .2.007.45.09m.247 1.593v7.135l2.872.965V3.904zm5.744.18-1.436.718v7.022l1.436-.718zm-7.18 0-1.436.718v7.022l1.436-.718z" clip-rule="evenodd"/></g><defs><clipPath id="a"><path fill="#fff" d="M0 0h14v14H0z"/></clipPath></defs></svg>