<svg xmlns="http://www.w3.org/2000/svg" width="16" height="16" fill="none"><g clip-path="url(#a)"><path fill="#1A1C1F" fill-rule="evenodd" d="m6.095 1.6 4.292 1.422 2.896-1.447c.122-.062.254-.077.457-.077.355 0 .762.28.762.686v9.88c0 .279-.102.533-.356.66l-3.327 1.701a.8.8 0 0 1-.356.077c-.101 0-.253-.051-.406-.077l-4.444-1.498-2.946 1.498a.8.8 0 0 1-.33.077c-.458 0-.839-.28-.839-.813V3.91c0-.254.102-.559.356-.686L5.104 1.6a.9.9 0 0 1 .404-.1l.08-.002c.126 0 .225.008.507.102m.28 1.803v8.076l3.25 1.092V4.495zm6.501.203-1.625.813v7.95l1.625-.813zm-8.127 0-1.625.813v7.95l1.625-.813z" clip-rule="evenodd"/></g><defs><clipPath id="a"><path fill="#fff" d="M0 0h16v16H0z"/></clipPath></defs></svg>