<svg xmlns="http://www.w3.org/2000/svg" width="24" height="24" fill="none"><path fill="#1A1C1F" fill-rule="evenodd" d="M11.26 2.044c-2.454.258-4.551 1.611-5.575 3.596-.984 1.909-.9 3.887.266 6.22.326.653 1.781 3.379 3.32 6.22 2.113 3.901 2.003 3.725 2.419 3.863.334.111.754.013.976-.229.16-.175 1.25-2.134 3.623-6.514 2.065-3.811 2.169-4.025 2.426-5.002.209-.789.258-1.155.26-1.918.002-.976-.141-1.63-.54-2.468-.38-.8-1.195-1.78-1.932-2.322-1.498-1.102-3.433-1.636-5.243-1.446m1.151 5.015c.377.08.642.233.97.56.32.321.474.603.565 1.034.219 1.05-.555 2.131-1.656 2.315-1.029.172-2.083-.609-2.25-1.668-.186-1.171.745-2.26 1.96-2.295.077-.002.262.022.411.054"/></svg>