<svg xmlns="http://www.w3.org/2000/svg" width="16" height="16" fill="none"><g clip-path="url(#a)"><path fill="#1A1C1F" fill-rule="evenodd" d="M8 1.498c2.82 0 4.876 2.108 4.876 4.877 0 1.117-.508 2.361-1.422 3.707L8.66 14.147a.77.77 0 0 1-.66.356.77.77 0 0 1-.66-.356l-2.794-4.064c-.94-1.37-1.422-2.59-1.422-3.707 0-2.692 1.98-4.877 4.876-4.877m0 1.626c-2.006 0-3.25 1.219-3.25 3.174 0 .99.532 1.93 1.117 2.743L8 12.063l2.133-3.022c.559-.812 1.118-1.752 1.118-2.743 0-1.955-1.245-3.174-3.251-3.174m-1.625 3.25c0-.888.736-1.625 1.625-1.625s1.625.737 1.625 1.626S8.89 8 8 8a1.637 1.637 0 0 1-1.625-1.625" clip-rule="evenodd"/></g><defs><clipPath id="a"><path fill="#fff" d="M0 0h16v16H0z"/></clipPath></defs></svg>