<svg xmlns="http://www.w3.org/2000/svg" width="14" height="14" fill="none"><g clip-path="url(#a)"><path fill="#1A1C1F" fill-rule="evenodd" d="M7 1.256c2.49 0 4.308 1.863 4.308 4.308 0 .987-.427 2.087-1.257 3.276l-2.468 3.59a.68.68 0 0 1-.583.314.68.68 0 0 1-.583-.314L3.949 8.84c-.83-1.212-1.257-2.289-1.257-3.276 0-2.378 1.75-4.308 4.308-4.308m0 2.872c-.785 0-1.436.65-1.436 1.436S6.214 7 7 7s1.436-.65 1.436-1.436S7.786 4.128 7 4.128" clip-rule="evenodd"/></g><defs><clipPath id="a"><path fill="#fff" d="M0 0h14v14H0z"/></clipPath></defs></svg>