<svg xmlns="http://www.w3.org/2000/svg" width="32" height="32" fill="none"><path fill="#1A1C1F" fill-rule="evenodd" d="M15.63 4.107c-.175.081-1.116.992-3.655 3.535-1.881 1.883-3.534 3.56-3.673 3.726-.204.243-.258.351-.281.56-.037.341.131.676.45.898.194.134.282.16.541.159.278-.002.334-.022.568-.211.143-.116 1.417-1.36 2.832-2.767l2.572-2.557.015 9.888c.014 9.627.017 9.894.117 10.095.121.243.449.497.706.545.411.077.968-.232 1.094-.607.053-.155.071-2.343.084-10.057l.017-9.859 2.626 2.606c1.445 1.433 2.727 2.675 2.851 2.759.128.087.321.163.451.177.452.049.974-.392 1.039-.878.06-.452.034-.481-3.634-4.148-1.879-1.878-3.551-3.528-3.716-3.666-.372-.313-.643-.366-1.004-.198"/></svg>