<svg xmlns="http://www.w3.org/2000/svg" width="24" height="24" fill="none"><g clip-path="url(#a)"><path fill="#1A1C1F" fill-rule="evenodd" d="M13.195 3.1c.266 0 .531.1.697.298l3.81 3.806c.198.166.298.43.298.696 0 .232-.1.497-.299.696l-4.01 4.006a1.03 1.03 0 0 1-.696.298 1 1 0 0 1-.995-.994c0-.266.1-.53.299-.73L14.577 8.9H11a3 3 0 0 0-3 3v8a1 1 0 1 1-2 0v-8a5 5 0 0 1 5-5h3.577l-2.078-2.076a1.04 1.04 0 0 1-.299-.73c0-.53.431-.994.995-.994" clip-rule="evenodd"/></g><defs><clipPath id="a"><path fill="#fff" d="M0 0h24v24H0z"/></clipPath></defs></svg>