<svg width="28" height="28" viewBox="0 0 28 28" fill="none" xmlns="http://www.w3.org/2000/svg"><path d="M10.733 3.619 C 9.787 3.822,8.741 4.406,8.039 5.123 C 7.285 5.894,6.763 6.956,6.626 8.003 C 6.562 8.486,6.568 14.024,6.632 14.256 C 6.737 14.634,7.209 14.937,7.585 14.866 C 7.668 14.851,7.821 14.776,7.926 14.700 C 8.294 14.433,8.267 14.668,8.311 11.374 C 8.333 9.751,8.372 8.266,8.398 8.073 C 8.457 7.644,8.794 6.930,9.137 6.510 C 9.517 6.045,10.185 5.613,10.850 5.403 C 11.278 5.268,12.228 5.256,12.693 5.381 C 13.869 5.696,14.735 6.533,15.171 7.779 C 15.265 8.045,15.267 8.165,15.293 14.770 L 15.319 21.490 13.901 20.089 C 13.121 19.318,12.401 18.625,12.300 18.549 C 12.143 18.429,12.077 18.410,11.826 18.410 C 11.577 18.410,11.505 18.431,11.335 18.551 C 10.929 18.836,10.830 19.269,11.081 19.654 C 11.292 19.977,15.673 24.329,15.885 24.427 C 16.123 24.537,16.429 24.497,16.656 24.328 C 16.928 24.125,21.212 19.825,21.320 19.647 C 21.444 19.443,21.452 19.081,21.338 18.855 C 21.293 18.765,21.166 18.629,21.054 18.551 C 20.882 18.431,20.809 18.410,20.561 18.410 C 20.310 18.410,20.244 18.429,20.086 18.548 C 19.986 18.625,19.269 19.315,18.494 20.082 L 17.085 21.477 17.067 14.787 C 17.047 7.490,17.063 7.920,16.780 7.076 C 16.353 5.803,15.373 4.678,14.163 4.071 C 13.750 3.864,13.136 3.658,12.754 3.599 C 12.293 3.527,11.107 3.539,10.733 3.619 " fill="#1A1C1F" stroke="none" fill-rule="evenodd"></path></svg>