<svg xmlns="http://www.w3.org/2000/svg" width="12" height="12" fill="none"><g clip-path="url(#a)"><path fill="#1A1C1F" fill-rule="evenodd" d="M5.062 1.062A2.77 2.77 0 0 1 7.83 3.83v5.031l.816-.817a.65.65 0 0 1 .449-.183c.326 0 .612.265.612.612a.56.56 0 0 1-.184.429l-1.85 1.852a.56.56 0 0 1-.428.183.62.62 0 0 1-.428-.183l-1.85-1.852a.64.64 0 0 1-.183-.429c0-.347.285-.612.612-.612.163 0 .326.06.448.183l.755.756v-4.97a1.538 1.538 0 0 0-3.077 0v2.615a.615.615 0 0 1-1.23 0V3.831a2.77 2.77 0 0 1 2.769-2.77" clip-rule="evenodd"/></g><defs><clipPath id="a"><path fill="#fff" d="M0 0h12v12H0z"/></clipPath></defs></svg>