<svg xmlns="http://www.w3.org/2000/svg" width="28" height="28" fill="none"><g clip-path="url(#a)"><path fill="#1A1C1F" fill-rule="evenodd" d="M14.438 9.538a4.375 4.375 0 0 1 4.374 4.374v9.626a.875.875 0 1 0 1.75 0v-9.625a6.125 6.125 0 0 0-6.125-6.125h-4.005l2.694-2.692a.87.87 0 0 0 .261-.638.873.873 0 0 0-.87-.87.79.79 0 0 0-.61.26L7.63 8.122a.82.82 0 0 0-.191.542c0 .203.087.435.26.609l4.384 4.38a.9.9 0 0 0 .61.26c.493 0 .87-.405.87-.87a.9.9 0 0 0-.26-.638l-2.87-2.866z" clip-rule="evenodd"/></g><defs><clipPath id="a"><path fill="#fff" d="M0 0h28v28H0z"/></clipPath></defs></svg>