<svg xmlns="http://www.w3.org/2000/svg" width="32" height="32" fill="none"><g clip-path="url(#a)"><path fill="#1A1C1F" fill-rule="evenodd" d="M15.5 10.9a5 5 0 0 0-5 5v11a1 1 0 1 1-2 0v-11a7 7 0 0 1 7-7h4.578l-3.08-3.076a1 1 0 0 1-.298-.73c0-.53.431-.994.995-.994.266 0 .531.1.697.298l4.889 4.883c.146.164.219.392.219.619 0 .232-.1.497-.299.696l-5.01 5.006a1.03 1.03 0 0 1-.696.298 1 1 0 0 1-.995-.994c0-.266.1-.53.299-.73l3.279-3.276z" clip-rule="evenodd"/></g><defs><clipPath id="a"><path fill="#fff" d="M0 0h32v32H0z"/></clipPath></defs></svg>