<svg xmlns="http://www.w3.org/2000/svg" width="28" height="28" fill="none"><g clip-path="url(#a)"><path fill="#1A1C1F" fill-rule="evenodd" d="M11.813 3.5c2.899 0 5.25 2.35 5.25 5.25v7.012l-.003.045.003 5.699 2.866-2.87a.87.87 0 0 1 .638-.261c.465 0 .87.377.87.87a.79.79 0 0 1-.26.61l-4.448 4.453a.82.82 0 0 1-.541.192.88.88 0 0 1-.61-.261l-4.38-4.384a.9.9 0 0 1-.26-.61c0-.493.406-.87.87-.87a.9.9 0 0 1 .638.261l2.867 2.87-.005-11.006.005-.088V8.75a3.5 3.5 0 1 0-7 0V14a.875.875 0 0 1-1.75 0V8.75c0-2.9 2.35-5.25 5.25-5.25" clip-rule="evenodd"/></g><defs><clipPath id="a"><path fill="#fff" d="M0 0h28v28H0z"/></clipPath></defs></svg>