<svg xmlns="http://www.w3.org/2000/svg" width="32" height="32" fill="none"><g clip-path="url(#a)"><path fill="#1A1C1F" fill-rule="evenodd" d="M16 4c.232 0 .497.1.696.299l7.006 7.01c.165.165.298.43.298.696a1 1 0 0 1-.994.995c-.266 0-.53-.1-.73-.299L17 7.422 17.005 27a1 1 0 1 1-2 0L15 7.422l-5.276 5.28a1 1 0 0 1-.73.298A1 1 0 0 1 8 12.005c0-.266.1-.531.298-.697l7.083-7.089A.94.94 0 0 1 16 4" clip-rule="evenodd"/></g><defs><clipPath id="a"><path fill="#fff" d="M0 0h32v32H0z"/></clipPath></defs></svg>