<svg width="20" height="20" viewBox="0 0 20 20" fill="none" xmlns="http://www.w3.org/2000/svg"><path d="M7.683 2.051 C 6.291 2.308,5.066 3.228,4.454 4.476 C 4.262 4.869,4.079 5.415,4.027 5.753 C 3.966 6.144,3.966 10.743,4.027 11.007 C 4.082 11.246,4.292 11.492,4.546 11.616 C 4.760 11.721,5.078 11.735,5.332 11.650 C 5.535 11.583,5.763 11.371,5.876 11.145 L 5.957 10.983 5.978 8.583 C 5.990 7.167,6.013 6.095,6.034 5.967 C 6.080 5.684,6.343 5.148,6.569 4.875 C 7.283 4.013,8.551 3.750,9.578 4.251 C 10.175 4.542,10.630 5.072,10.872 5.761 C 10.937 5.945,10.939 6.064,10.957 10.250 L 10.976 14.550 10.346 13.932 C 9.643 13.242,9.483 13.117,9.232 13.063 C 8.521 12.911,7.896 13.554,8.066 14.263 C 8.102 14.414,8.157 14.488,8.533 14.892 C 9.161 15.568,11.359 17.738,11.539 17.861 C 11.776 18.021,11.968 18.055,12.272 17.987 L 12.522 17.931 14.121 16.324 C 15.001 15.440,15.775 14.641,15.842 14.548 C 15.992 14.338,16.042 14.138,16.002 13.897 C 15.943 13.542,15.842 13.383,15.553 13.195 C 15.359 13.069,15.351 13.067,15.036 13.067 C 14.742 13.067,14.703 13.075,14.541 13.168 C 14.436 13.228,14.084 13.545,13.666 13.956 L 12.967 14.642 12.966 10.529 C 12.965 8.267,12.951 6.241,12.935 6.027 C 12.811 4.429,11.734 2.978,10.193 2.334 C 9.625 2.097,9.274 2.028,8.567 2.014 C 8.121 2.005,7.876 2.016,7.683 2.051 " fill="#1A1C1F" stroke="none" fill-rule="evenodd"></path></svg>