<svg xmlns="http://www.w3.org/2000/svg" width="14" height="14" fill="none"><g clip-path="url(#a)"><path fill="#1A1C1F" fill-rule="evenodd" d="M5.905 1.238a3.23 3.23 0 0 1 3.23 3.231v5.87l.953-.953a.75.75 0 0 1 .524-.214c.38 0 .714.31.714.714 0 .19-.072.381-.215.5l-2.157 2.161a.65.65 0 0 1-.5.214.73.73 0 0 1-.5-.214l-2.158-2.16a.74.74 0 0 1-.214-.5c0-.406.333-.715.714-.715.19 0 .38.071.524.214l.88.882V4.469a1.795 1.795 0 1 0-3.59 0V7.52a.718.718 0 1 1-1.436 0V4.47a3.23 3.23 0 0 1 3.231-3.232" clip-rule="evenodd"/></g><defs><clipPath id="a"><path fill="#fff" d="M0 0h14v14H0z"/></clipPath></defs></svg>