<svg xmlns="http://www.w3.org/2000/svg" width="20" height="20" fill="none"><g clip-path="url(#a)"><path fill="#1A1C1F" fill-rule="evenodd" d="M9.905 2.05c-.266 0-.531.1-.697.298l-3.91 3.906C5.1 6.42 5 6.684 5 6.95c0 .232.1.497.299.696l4.01 4.006c.165.165.43.298.696.298a1 1 0 0 0 .995-.994c0-.266-.1-.53-.299-.73L8.422 7.95 12 7.95a1 1 0 0 1 1 1v8a1 1 0 1 0 2 0v-8a3 3 0 0 0-3-3l-3.576-.001 2.177-2.175q.297-.32.299-.73a1 1 0 0 0-.995-.994" clip-rule="evenodd"/></g><defs><clipPath id="a"><path fill="#fff" d="M0 0h20v20H0z"/></clipPath></defs></svg>