<svg xmlns="http://www.w3.org/2000/svg" width="14" height="14" fill="none"><g clip-path="url(#a)"><path fill="#1A1C1F" fill-rule="evenodd" d="M7 1.992c.163 0 .326.053.445.158l2.93 2.935c.143.12.215.31.215.5a.716.716 0 0 1-.714.715.74.74 0 0 1-.524-.214l-1.67-1.673v6.877a.737.737 0 0 1-.718.718.72.72 0 0 1-.718-.718V4.485l-1.598 1.6a.74.74 0 0 1-.524.215.716.716 0 0 1-.714-.715c0-.19.095-.38.214-.5L6.5 2.207a.73.73 0 0 1 .5-.215" clip-rule="evenodd"/></g><defs><clipPath id="a"><path fill="#fff" d="M0 0h14v14H0z"/></clipPath></defs></svg>