<svg xmlns="http://www.w3.org/2000/svg" width="32" height="32" fill="none"><path fill="#1A1C1F" fill-rule="evenodd" d="M12.704 4.053a5.9 5.9 0 0 0-1.851.586c-1.691.834-2.848 2.333-3.232 4.188-.091.439-.1.772-.1 3.943-.001 3.408.001 3.467.111 3.694.191.396.732.631 1.14.496.213-.07.526-.319.63-.501.048-.083.073-1.016.095-3.606.035-3.908.026-3.811.426-4.613.419-.839.974-1.388 1.837-1.817.575-.286 1.052-.394 1.733-.394 1.811 0 3.243 1.061 3.848 2.851l.126.373.014 7.654.015 7.653-1.695-1.691q-1.693-1.69-1.893-1.773c-.763-.318-1.58.361-1.371 1.14.059.222.301.481 2.711 2.903 1.787 1.796 2.715 2.692 2.859 2.759a.89.89 0 0 0 .8 0c.263-.124 5.433-5.291 5.517-5.515a1.4 1.4 0 0 0-.001-.766c-.184-.486-.808-.732-1.318-.522-.133.055-.756.639-1.892 1.773l-1.693 1.691v-7.348c0-4.861-.019-7.522-.057-7.86a6.03 6.03 0 0 0-2.979-4.547 6.7 6.7 0 0 0-1.737-.67c-.51-.105-1.575-.147-2.043-.081"/></svg>