<svg xmlns="http://www.w3.org/2000/svg" width="12" height="12" fill="none"><g clip-path="url(#a)"><path fill="#1A1C1F" fill-rule="evenodd" d="M6 1.708c.14 0 .28.045.381.135l2.512 2.516a.56.56 0 0 1 .184.429.614.614 0 0 1-.612.612.63.63 0 0 1-.449-.184L6.585 3.783v5.894a.63.63 0 0 1-.616.615.615.615 0 0 1-.615-.615V3.844l-1.37 1.372a.63.63 0 0 1-.449.184.614.614 0 0 1-.612-.612c0-.164.082-.327.184-.43l2.465-2.467A.62.62 0 0 1 6 1.708" clip-rule="evenodd"/></g><defs><clipPath id="a"><path fill="#fff" d="M0 0h12v12H0z"/></clipPath></defs></svg>