<svg xmlns="http://www.w3.org/2000/svg" width="28" height="28" fill="none"><g clip-path="url(#a)"><path fill="#1A1C1F" fill-rule="evenodd" d="M14 3.5c.203 0 .435.087.61.261l6.129 6.134a.9.9 0 0 1 .261.61c0 .493-.406.87-.87.87a.9.9 0 0 1-.638-.261l-4.617-4.62.005 17.13a.875.875 0 1 1-1.75.001l-.005-17.13-4.617 4.619a.87.87 0 0 1-.638.261.873.873 0 0 1-.87-.87.79.79 0 0 1 .261-.61l6.197-6.203A.82.82 0 0 1 14 3.5" clip-rule="evenodd"/></g><defs><clipPath id="a"><path fill="#fff" d="M0 0h28v28H0z"/></clipPath></defs></svg>