<svg xmlns="http://www.w3.org/2000/svg" width="12" height="12" fill="none"><g clip-path="url(#a)"><path fill="#1A1C1F" fill-rule="evenodd" d="M5.941 1.108a.56.56 0 0 0-.428.183L3.107 3.695a.56.56 0 0 0-.184.428c0 .143.061.306.184.428l2.467 2.465a.64.64 0 0 0 .429.184.614.614 0 0 0 .612-.612.63.63 0 0 0-.183-.449L5.029 4.738H7.23c.34 0 .615.276.615.616v4.923a.615.615 0 1 0 1.23 0V5.354c0-1.02-.826-1.846-1.845-1.846l-2.2-.001 1.34-1.339a.65.65 0 0 0 .183-.448.614.614 0 0 0-.613-.612" clip-rule="evenodd"/></g><defs><clipPath id="a"><path fill="#fff" d="M0 0h12v12H0z"/></clipPath></defs></svg>