<svg width="32" height="32" viewBox="0 0 32 32" fill="none" xmlns="http://www.w3.org/2000/svg"><path d="M12.063 4.187 C 11.465 4.342,10.605 4.742,10.042 5.130 C 8.724 6.035,7.779 7.573,7.572 9.147 C 7.500 9.699,7.506 16.028,7.579 16.292 C 7.700 16.725,8.239 17.070,8.669 16.990 C 8.763 16.972,8.939 16.887,9.058 16.800 C 9.479 16.495,9.448 16.763,9.499 13.001 C 9.524 11.147,9.568 9.450,9.598 9.229 C 9.664 8.736,10.048 7.923,10.442 7.440 C 10.876 6.909,11.640 6.415,12.400 6.175 C 12.889 6.020,13.975 6.007,14.507 6.149 C 15.851 6.509,16.838 7.465,17.339 8.890 C 17.446 9.195,17.448 9.325,17.478 16.880 L 17.508 24.560 15.887 22.959 C 14.996 22.078,14.173 21.286,14.057 21.199 C 13.877 21.062,13.802 21.040,13.515 21.040 C 13.231 21.040,13.149 21.064,12.954 21.201 C 12.491 21.526,12.377 22.022,12.664 22.462 C 12.893 22.813,17.910 27.803,18.141 27.910 C 18.389 28.025,18.625 28.024,18.872 27.909 C 19.096 27.805,24.189 22.748,24.367 22.453 C 24.499 22.235,24.517 21.845,24.407 21.582 C 24.252 21.211,23.774 20.971,23.323 21.039 C 23.035 21.082,22.906 21.196,20.976 23.113 L 19.525 24.554 19.505 16.904 C 19.487 10.167,19.474 9.208,19.400 8.876 C 18.917 6.719,17.527 5.107,15.512 4.366 C 14.864 4.128,14.383 4.057,13.413 4.058 C 12.686 4.058,12.486 4.078,12.063 4.187 " fill="#1A1C1F" stroke="none" fill-rule="evenodd"></path></svg>