<svg xmlns="http://www.w3.org/2000/svg" width="24" height="24" fill="none"><g clip-path="url(#a)"><path fill="#1A1C1F" fill-rule="evenodd" d="M12 3c.232 0 .497.1.696.299l5.006 5.01c.165.165.298.43.298.696a1 1 0 0 1-.994.995c-.266 0-.53-.1-.73-.299L13 6.422 13.005 20a1 1 0 1 1-2 0L11 6.422l-3.276 3.28a1 1 0 0 1-.73.298A1 1 0 0 1 6 9.005c0-.266.1-.531.298-.697l5.083-5.089A.94.94 0 0 1 12 3" clip-rule="evenodd"/></g><defs><clipPath id="a"><path fill="#fff" d="M0 0h24v24H0z"/></clipPath></defs></svg>