<svg xmlns="http://www.w3.org/2000/svg" width="24" height="24" fill="none"><g clip-path="url(#a)"><path fill="#1A1C1F" fill-rule="evenodd" d="M10.805 3.1c-.266 0-.531.1-.697.298l-3.81 3.806C6.1 7.37 6 7.634 6 7.9c0 .232.1.497.299.696l4.01 4.006c.165.165.43.298.696.298a1 1 0 0 0 .995-.994c0-.266-.1-.53-.299-.73L9.423 8.9H13a3 3 0 0 1 3 3v8a1 1 0 1 0 2 0v-8a5 5 0 0 0-5-5H9.423l2.078-2.076q.3-.32.299-.73a1 1 0 0 0-.995-.994" clip-rule="evenodd"/></g><defs><clipPath id="a"><path fill="#fff" d="M0 0h24v24H0z"/></clipPath></defs></svg>