<svg xmlns="http://www.w3.org/2000/svg" width="32" height="32" fill="none"><path fill="#1A1C1F" fill-rule="evenodd" d="M17.307 4.207a.98.98 0 0 0-.531.552c-.126.3-.103.521.082.813.091.143.851.952 1.689 1.797l1.524 1.538-1.515.003c-.834.002-2.164.023-2.956.048-1.4.042-1.456.048-2 .212a7.43 7.43 0 0 0-3.775 2.658c-.606.818-1.124 2.069-1.248 3.016-.046.355-.065 2.12-.067 6.409l-.003 5.92.126.204c.34.547 1.027.666 1.509.261.355-.299.333.094.37-6.465.023-4.185.051-6.046.095-6.282a5 5 0 0 1 .225-.744c.696-1.752 2.26-2.99 3.995-3.161.278-.027 1.559-.051 2.846-.051l2.34-.002-1.608 1.631c-.885.897-1.673 1.727-1.751 1.845-.275.416-.143.983.302 1.298.188.133.278.16.533.16.278 0 .333-.02.569-.211.144-.115 1.406-1.351 2.803-2.746 2.741-2.735 2.7-2.687 2.623-3.167-.044-.279-.58-.858-3.156-3.412-2.072-2.053-2.273-2.222-2.648-2.222-.088 0-.256.044-.373.098"/></svg>