<svg width="14" height="14" viewBox="0 0 14 14" fill="none" xmlns="http://www.w3.org/2000/svg"><path d="M5.623 1.253 C 5.074 1.312,4.571 1.492,4.118 1.791 C 3.487 2.209,3.060 2.777,2.825 3.510 C 2.681 3.960,2.677 4.015,2.666 5.912 L 2.656 7.635 2.731 7.787 C 2.876 8.082,3.083 8.223,3.372 8.224 C 3.462 8.224,3.579 8.211,3.633 8.195 C 3.760 8.157,3.971 7.963,4.039 7.823 L 4.092 7.714 4.110 6.009 C 4.120 5.072,4.139 4.226,4.152 4.130 C 4.171 3.995,4.206 3.894,4.309 3.687 C 4.427 3.447,4.463 3.396,4.653 3.208 C 4.810 3.053,4.913 2.973,5.052 2.901 C 5.383 2.728,5.478 2.707,5.904 2.707 C 6.245 2.707,6.297 2.712,6.459 2.766 C 6.980 2.940,7.409 3.370,7.607 3.916 L 7.679 4.117 7.693 7.197 L 7.706 10.278 7.207 9.787 C 6.637 9.226,6.589 9.193,6.322 9.193 C 6.094 9.194,6.000 9.222,5.859 9.334 C 5.711 9.451,5.628 9.593,5.598 9.780 C 5.566 9.974,5.599 10.101,5.723 10.267 C 5.837 10.420,7.422 12.023,7.849 12.416 C 8.107 12.655,8.167 12.699,8.278 12.731 C 8.445 12.780,8.631 12.760,8.769 12.679 C 8.881 12.613,10.564 10.959,10.974 10.512 C 11.283 10.174,11.326 10.090,11.312 9.860 C 11.293 9.578,11.163 9.377,10.915 9.250 C 10.825 9.204,10.770 9.193,10.617 9.193 C 10.302 9.193,10.266 9.218,9.596 9.879 L 9.147 10.322 9.147 7.237 L 9.147 4.151 9.077 3.861 C 8.954 3.344,8.767 2.919,8.509 2.567 C 8.040 1.928,7.339 1.473,6.588 1.320 C 6.425 1.287,5.843 1.233,5.740 1.241 C 5.721 1.243,5.668 1.248,5.623 1.253 " fill="#1A1C1F" stroke="none" fill-rule="evenodd"></path></svg>