<svg xmlns="http://www.w3.org/2000/svg" width="20" height="20" fill="none"><g clip-path="url(#a)"><path fill="#1A1C1F" fill-rule="evenodd" d="M8.475 1.975a4.5 4.5 0 0 1 4.5 4.5v8.176l1.326-1.327q.324-.3.73-.299c.53 0 .994.431.994.995 0 .266-.1.531-.298.697l-3.006 3.01c-.166.198-.43.298-.696.298-.232 0-.497-.1-.696-.299l-3.006-3.01a1.03 1.03 0 0 1-.298-.696c0-.564.464-.995.994-.995.266 0 .53.1.73.299l1.226 1.228V6.475a2.5 2.5 0 0 0-5 0v4.25a1 1 0 1 1-2 0v-4.25a4.5 4.5 0 0 1 4.5-4.5" clip-rule="evenodd"/></g><defs><clipPath id="a"><path fill="#fff" d="M0 0h20v20H0z"/></clipPath></defs></svg>