<svg xmlns="http://www.w3.org/2000/svg" width="16" height="16" fill="none"><g clip-path="url(#a)"><path fill="#1A1C1F" fill-rule="evenodd" d="M6.76 1.478a3.657 3.657 0 0 1 3.658 3.657v6.645l1.078-1.079a.85.85 0 0 1 .592-.242.81.81 0 0 1 .809.808c0 .216-.081.432-.243.567l-2.443 2.445a.73.73 0 0 1-.565.243.82.82 0 0 1-.566-.243l-2.443-2.445a.84.84 0 0 1-.242-.567.81.81 0 0 1 .808-.808c.216 0 .431.08.593.242l.996.999V5.135a2.032 2.032 0 0 0-4.063 0V8.59a.813.813 0 1 1-1.625 0V5.135A3.657 3.657 0 0 1 6.76 1.478" clip-rule="evenodd"/></g><defs><clipPath id="a"><path fill="#fff" d="M0 0h16v16H0z"/></clipPath></defs></svg>