<svg xmlns="http://www.w3.org/2000/svg" width="32" height="32" fill="none"><path fill="#1A1C1F" fill-rule="evenodd" d="M14.053 4.145c-.058.014-.19.088-.293.165-.26.193-4.001 3.906-4.667 4.632-.598.653-.665.797-.557 1.204.053.201.359.525 2.655 2.817 1.428 1.424 2.714 2.666 2.858 2.76.312.203.539.218.869.058.353-.171.513-.417.54-.829.018-.297.004-.368-.114-.545-.074-.112-.86-.94-1.746-1.839l-1.61-1.635 2.339.002c1.287 0 2.568.024 2.846.051 1.484.146 2.874 1.091 3.693 2.512.211.364.456 1.013.527 1.393.044.238.072 2.081.095 6.318l.032 5.982.161.231c.216.312.556.486.891.456.279-.024.625-.222.767-.439.154-.235.189-1.759.165-7.172-.024-5.603-.016-5.448-.336-6.461a7.05 7.05 0 0 0-4.928-4.667c-.697-.181-1.583-.23-4.156-.231l-2.155-.001 1.524-1.538c.838-.845 1.598-1.654 1.689-1.797.196-.308.208-.52.052-.853-.216-.458-.672-.688-1.141-.574"/></svg>