<svg xmlns="http://www.w3.org/2000/svg" width="14" height="14" fill="none"><g clip-path="url(#a)"><path fill="#1A1C1F" fill-rule="evenodd" d="M6.932 1.292a.65.65 0 0 0-.5.214L3.624 4.31a.65.65 0 0 0-.215.5c0 .167.072.357.215.5l2.878 2.876c.12.119.31.214.5.214a.716.716 0 0 0 .715-.714c0-.19-.071-.38-.214-.524L5.867 5.527l2.569.001c.396 0 .718.322.718.718v5.744a.718.718 0 1 0 1.436 0V6.246c0-1.19-.965-2.154-2.154-2.154H5.869L7.432 2.53a.76.76 0 0 0 .214-.524c0-.38-.31-.714-.714-.714" clip-rule="evenodd"/></g><defs><clipPath id="a"><path fill="#fff" d="M0 0h14v14H0z"/></clipPath></defs></svg>