<svg xmlns="http://www.w3.org/2000/svg" width="14" height="14" fill="none"><g clip-path="url(#a)"><path fill="#1A1C1F" fill-rule="evenodd" d="M7.068 1.292c.191 0 .382.072.5.214l2.807 2.804c.143.12.215.31.215.5a.73.73 0 0 1-.215.5L7.497 8.186a.74.74 0 0 1-.5.214.716.716 0 0 1-.715-.714c0-.19.072-.38.214-.524l1.637-1.635-2.569.001a.72.72 0 0 0-.718.718v5.744a.718.718 0 0 1-1.436 0V6.246c0-1.19.965-2.154 2.154-2.154h2.568L6.568 2.53a.76.76 0 0 1-.214-.524c0-.38.31-.714.714-.714" clip-rule="evenodd"/></g><defs><clipPath id="a"><path fill="#fff" d="M0 0h14v14H0z"/></clipPath></defs></svg>