<svg xmlns="http://www.w3.org/2000/svg" width="16" height="16" fill="none"><g clip-path="url(#a)"><path fill="#1A1C1F" fill-rule="evenodd" d="M7.923 1.54a.73.73 0 0 0-.567.241L4.18 4.956a.73.73 0 0 0-.242.565c0 .189.08.404.242.566l3.259 3.255c.134.135.35.243.566.243a.81.81 0 0 0 .809-.808.84.84 0 0 0-.243-.593l-1.852-1.85h2.907c.45 0 .813.364.813.813v6.501a.813.813 0 0 0 1.625 0V7.147a2.44 2.44 0 0 0-2.438-2.438L6.72 4.708 8.49 2.94a.86.86 0 0 0 .242-.593.81.81 0 0 0-.808-.808" clip-rule="evenodd"/></g><defs><clipPath id="a"><path fill="#fff" d="M0 0h16v16H0z"/></clipPath></defs></svg>