<svg width="12" height="12" viewBox="0 0 12 12" fill="none" xmlns="http://www.w3.org/2000/svg"><path d="M4.820 1.074 C 4.351 1.124,3.924 1.276,3.544 1.527 C 2.986 1.895,2.625 2.372,2.422 3.008 C 2.298 3.394,2.295 3.442,2.285 5.067 L 2.276 6.544 2.338 6.670 C 2.493 6.983,2.760 7.115,3.072 7.030 C 3.228 6.988,3.391 6.853,3.462 6.706 C 3.507 6.613,3.507 6.611,3.523 5.151 C 3.531 4.325,3.547 3.625,3.559 3.540 C 3.574 3.435,3.607 3.335,3.669 3.206 C 3.858 2.812,4.109 2.572,4.516 2.397 L 4.670 2.330 5.060 2.330 L 5.450 2.330 5.609 2.396 C 6.039 2.575,6.357 2.910,6.521 3.359 L 6.581 3.525 6.594 6.168 L 6.606 8.810 6.208 8.419 C 5.989 8.204,5.765 7.997,5.710 7.959 C 5.619 7.897,5.595 7.889,5.446 7.883 C 5.221 7.873,5.103 7.914,4.969 8.049 C 4.896 8.121,4.855 8.183,4.830 8.261 C 4.782 8.404,4.781 8.588,4.827 8.684 C 4.886 8.805,5.206 9.142,6.083 10.011 C 7.014 10.934,7.010 10.930,7.261 10.929 C 7.389 10.929,7.425 10.921,7.507 10.873 C 7.612 10.812,8.985 9.464,9.386 9.030 C 9.672 8.720,9.709 8.652,9.696 8.452 C 9.680 8.210,9.568 8.038,9.356 7.928 C 9.279 7.889,9.231 7.880,9.100 7.880 C 8.831 7.880,8.799 7.901,8.225 8.468 L 7.840 8.848 7.840 6.211 L 7.840 3.575 7.788 3.344 C 7.696 2.933,7.555 2.588,7.364 2.303 C 6.961 1.703,6.367 1.293,5.678 1.139 C 5.526 1.106,5.012 1.054,4.920 1.063 C 4.904 1.065,4.859 1.070,4.820 1.074 " fill="#1A1C1F" stroke="none" fill-rule="evenodd"></path></svg>