<svg width="16" height="16" viewBox="0 0 16 16" fill="none" xmlns="http://www.w3.org/2000/svg"><path d="M6.280 1.519 C 5.289 1.637,4.293 2.258,3.726 3.110 C 3.432 3.551,3.208 4.114,3.143 4.576 C 3.092 4.939,3.093 8.693,3.144 8.840 C 3.259 9.172,3.672 9.445,3.994 9.402 C 4.254 9.368,4.561 9.142,4.659 8.912 C 4.696 8.827,4.704 8.547,4.723 6.851 C 4.747 4.637,4.745 4.658,4.946 4.253 C 5.207 3.727,5.577 3.406,6.147 3.210 C 6.338 3.144,6.398 3.137,6.733 3.135 C 7.161 3.133,7.302 3.160,7.613 3.306 C 8.141 3.552,8.513 3.979,8.694 4.547 C 8.748 4.714,8.756 4.814,8.775 5.507 C 8.800 6.431,8.806 11.507,8.783 11.595 C 8.768 11.650,8.722 11.612,8.310 11.207 C 7.608 10.516,7.554 10.480,7.206 10.480 C 6.945 10.480,6.777 10.556,6.600 10.752 C 6.391 10.985,6.346 11.306,6.482 11.595 C 6.527 11.689,6.851 12.029,7.811 12.989 C 8.509 13.687,9.146 14.307,9.227 14.367 C 9.417 14.508,9.549 14.543,9.762 14.508 C 9.889 14.488,9.960 14.457,10.076 14.370 C 10.253 14.238,12.092 12.420,12.507 11.966 C 12.848 11.594,12.891 11.516,12.887 11.280 C 12.881 10.968,12.771 10.763,12.516 10.594 C 12.384 10.506,12.349 10.496,12.148 10.485 C 11.766 10.465,11.717 10.497,10.940 11.263 L 10.427 11.769 10.427 8.251 L 10.427 4.732 10.347 4.406 C 10.158 3.632,9.860 3.085,9.347 2.574 C 8.833 2.061,8.229 1.724,7.547 1.571 C 7.286 1.512,6.578 1.483,6.280 1.519 " fill="#1A1C1F" stroke="none" fill-rule="evenodd"></path></svg>