<svg xmlns="http://www.w3.org/2000/svg" width="16" height="16" fill="none"><g clip-path="url(#a)"><path fill="#1A1C1F" fill-rule="evenodd" d="M8 2.331c.185 0 .37.06.503.179l3.318 3.323c.162.134.242.35.242.566a.81.81 0 0 1-.808.809.84.84 0 0 1-.592-.243l-1.89-1.893v7.784a.834.834 0 0 1-.814.813.813.813 0 0 1-.812-.813V5.153l-1.81 1.812a.84.84 0 0 1-.592.243.81.81 0 0 1-.808-.81.84.84 0 0 1 .242-.565l3.255-3.259A.82.82 0 0 1 8 2.331" clip-rule="evenodd"/></g><defs><clipPath id="a"><path fill="#fff" d="M0 0h16v16H0z"/></clipPath></defs></svg>