<svg xmlns="http://www.w3.org/2000/svg" width="24" height="24" fill="none"><g clip-path="url(#a)"><path fill="#1A1C1F" fill-rule="evenodd" d="m15.537 8.496-.028 9.065 2.267-2.269a1 1 0 0 1 .73-.299c.53 0 .994.432.994.996 0 .265-.1.53-.298.696l-4.083 4.09a.94.94 0 0 1-.619.219c-.232 0-.497-.1-.696-.3l-4.006-4.009a1.03 1.03 0 0 1-.298-.696c0-.564.464-.996.994-.996.266 0 .53.1.73.3l2.285 2.287.028-9.09c.006-1.854-1.43-3.483-3.484-3.483C8 5.007 6.5 6.584 6.5 8.52V12a1 1 0 0 1-2 0V8.52c0-2.965 2.502-5.514 5.553-5.514a5.473 5.473 0 0 1 5.484 5.49" clip-rule="evenodd"/></g><defs><clipPath id="a"><path fill="#fff" d="M0 0h24v24H0z"/></clipPath></defs></svg>