<svg xmlns="http://www.w3.org/2000/svg" width="20" height="20" fill="none"><g clip-path="url(#a)"><path fill="#1A1C1F" fill-rule="evenodd" d="M10 3.025c.227 0 .455.073.62.22l4.082 4.088c.199.166.298.431.298.697a1 1 0 0 1-.994.995c-.266 0-.53-.1-.73-.299L10.95 6.397v9.578c0 .513-.448 1-1 1a1 1 0 0 1-1-1V6.497l-2.226 2.23c-.2.199-.464.298-.73.298A1 1 0 0 1 5 8.03c0-.266.133-.531.298-.697l4.006-4.01c.199-.198.464-.298.696-.298" clip-rule="evenodd"/></g><defs><clipPath id="a"><path fill="#fff" d="M0 0h20v20H0z"/></clipPath></defs></svg>