<svg xmlns="http://www.w3.org/2000/svg" width="16" height="16" fill="none"><g clip-path="url(#a)"><path fill="#1A1C1F" fill-rule="evenodd" d="M8.077 1.54c.216 0 .432.08.567.241l3.177 3.175c.162.134.242.35.242.565 0 .189-.08.404-.242.566L8.562 9.342a.84.84 0 0 1-.566.243.81.81 0 0 1-.809-.808c0-.216.081-.431.243-.593l1.852-1.85H6.375a.813.813 0 0 0-.813.813v6.501a.813.813 0 0 1-1.625 0V7.147a2.44 2.44 0 0 1 2.438-2.438l2.906-.001L7.51 2.94a.86.86 0 0 1-.242-.593.81.81 0 0 1 .808-.808" clip-rule="evenodd"/></g><defs><clipPath id="a"><path fill="#fff" d="M0 0h16v16H0z"/></clipPath></defs></svg>