<svg xmlns="http://www.w3.org/2000/svg" width="20" height="20" fill="none"><g clip-path="url(#a)"><path fill="#1A1C1F" fill-rule="evenodd" d="M10.095 2.05c.266 0 .531.1.697.298l3.91 3.906c.198.166.298.43.298.696 0 .232-.1.497-.299.696l-4.01 4.006a1.03 1.03 0 0 1-.696.298A1 1 0 0 1 9 10.956c0-.266.1-.53.299-.73l2.279-2.277L8 7.95a1 1 0 0 0-1 1v8a1 1 0 1 1-2 0v-8a3 3 0 0 1 3-3l3.576-.001-2.177-2.175a1.05 1.05 0 0 1-.299-.73c0-.53.431-.994.995-.994" clip-rule="evenodd"/></g><defs><clipPath id="a"><path fill="#fff" d="M0 0h20v20H0z"/></clipPath></defs></svg>