<svg xmlns="http://www.w3.org/2000/svg" width="12" height="12" fill="none"><g clip-path="url(#a)"><path fill="#1A1C1F" fill-rule="evenodd" d="M6.059 1.108c.163 0 .326.06.428.183l2.406 2.404a.56.56 0 0 1 .184.428.62.62 0 0 1-.184.428L6.426 7.016a.64.64 0 0 1-.429.184.614.614 0 0 1-.612-.612c0-.163.06-.326.183-.449l1.403-1.401H4.77a.615.615 0 0 0-.615.616v4.923a.615.615 0 1 1-1.23 0V5.354c0-1.02.826-1.846 1.845-1.846l2.2-.001-1.34-1.339a.65.65 0 0 1-.183-.448c0-.327.266-.612.613-.612" clip-rule="evenodd"/></g><defs><clipPath id="a"><path fill="#fff" d="M0 0h12v12H0z"/></clipPath></defs></svg>