<svg xmlns="http://www.w3.org/2000/svg" width="32" height="32" fill="none"><g clip-path="url(#a)"><path fill="#1A1C1F" fill-rule="evenodd" d="M13.5 4a6 6 0 0 1 6 6v8.014l-.003.051.003 6.513 3.276-3.28a1 1 0 0 1 .73-.298c.53 0 .994.431.994.995 0 .266-.1.531-.298.697l-5.083 5.089A.94.94 0 0 1 18.5 28c-.232 0-.497-.1-.696-.299l-5.006-5.01a1.03 1.03 0 0 1-.298-.696c0-.564.464-.995.994-.995.266 0 .53.1.73.299l3.276 3.279L17.495 12l.005-.1V10a4 4 0 0 0-8 0v6a1 1 0 1 1-2 0v-6a6 6 0 0 1 6-6" clip-rule="evenodd"/></g><defs><clipPath id="a"><path fill="#fff" d="M0 0h32v32H0z"/></clipPath></defs></svg>