<svg xmlns="http://www.w3.org/2000/svg" width="28" height="28" fill="none"><g clip-path="url(#a)"><path fill="#1A1C1F" fill-rule="evenodd" d="M13.563 9.538a4.375 4.375 0 0 0-4.376 4.374v9.626a.875.875 0 1 1-1.75 0v-9.625a6.125 6.125 0 0 1 6.126-6.125h4.005l-2.694-2.692a.87.87 0 0 1-.261-.638c0-.464.377-.87.87-.87a.79.79 0 0 1 .61.26l4.278 4.273a.82.82 0 0 1 .192.542.88.88 0 0 1-.262.609l-4.383 4.38a.9.9 0 0 1-.61.26.873.873 0 0 1-.87-.87.9.9 0 0 1 .26-.638l2.87-2.866z" clip-rule="evenodd"/></g><defs><clipPath id="a"><path fill="#fff" d="M0 0h28v28H0z"/></clipPath></defs></svg>