<svg width="24" height="24" viewBox="0 0 24 24" fill="none" xmlns="http://www.w3.org/2000/svg"><path d="M9.600 3.027 C 7.598 3.251,5.921 4.415,5.059 6.180 C 4.827 6.655,4.616 7.308,4.554 7.746 C 4.480 8.263,4.481 12.071,4.554 12.320 C 4.658 12.670,5.126 13.000,5.520 13.000 C 5.866 13.000,6.346 12.655,6.439 12.340 C 6.470 12.234,6.498 11.478,6.521 10.097 C 6.540 8.951,6.575 7.889,6.598 7.737 C 6.628 7.541,6.705 7.330,6.861 7.012 C 7.253 6.215,7.706 5.752,8.460 5.383 C 8.890 5.172,9.211 5.084,9.698 5.044 C 11.443 4.901,12.879 5.858,13.386 7.502 L 13.496 7.860 13.511 12.717 L 13.525 17.574 12.305 16.373 C 11.634 15.712,11.022 15.142,10.946 15.106 C 10.744 15.010,10.243 15.017,10.045 15.118 C 9.704 15.292,9.498 15.672,9.527 16.075 C 9.542 16.279,9.569 16.345,9.718 16.546 C 9.904 16.796,13.615 20.525,13.926 20.774 C 14.183 20.980,14.458 21.036,14.768 20.945 C 14.990 20.881,15.046 20.830,16.704 19.189 C 18.408 17.505,19.263 16.616,19.405 16.383 C 19.456 16.298,19.479 16.185,19.479 16.020 C 19.478 15.625,19.279 15.285,18.952 15.116 C 18.758 15.017,18.254 15.011,18.054 15.105 C 17.978 15.141,17.378 15.701,16.720 16.348 L 15.524 17.525 15.509 12.573 C 15.494 7.157,15.509 7.507,15.258 6.777 C 14.957 5.901,14.579 5.297,13.921 4.639 C 13.133 3.850,12.234 3.353,11.220 3.144 C 10.844 3.067,9.873 2.996,9.600 3.027 " fill="#1A1C1F" stroke="none" fill-rule="evenodd"></path></svg>