<svg xmlns="http://www.w3.org/2000/svg" width="32" height="32" fill="none"><g clip-path="url(#a)"><path fill="#1A1C1F" fill-rule="evenodd" d="M16.5 10.9a5 5 0 0 1 5 5v11a1 1 0 1 0 2 0v-11a7 7 0 0 0-7-7h-4.578l3.08-3.076a1 1 0 0 0 .298-.73 1 1 0 0 0-.995-.994c-.266 0-.531.1-.697.298L8.72 9.281A.94.94 0 0 0 8.5 9.9c0 .232.1.497.299.696l5.01 5.006c.165.165.43.298.696.298a1 1 0 0 0 .995-.994c0-.266-.1-.53-.299-.73L11.922 10.9z" clip-rule="evenodd"/></g><defs><clipPath id="a"><path fill="#fff" d="M0 0h32v32H0z"/></clipPath></defs></svg>