<svg xmlns="http://www.w3.org/2000/svg" width="14" height="14" fill="none"><g clip-path="url(#a)"><path fill="#1A1C1F" fill-rule="evenodd" d="M11.2 1.4a1.4 1.4 0 0 1 1.4 1.4v8.4a1.4 1.4 0 0 1-1.4 1.4H2.8a1.4 1.4 0 0 1-1.4-1.4V2.8a1.4 1.4 0 0 1 1.4-1.4zM6.393 9.142V7.658q.432.056.816.056 1.016 0 1.548-.455.53-.454.53-1.324 0-.84-.511-1.286-.512-.447-1.475-.447h-1.7a.525.525 0 0 0-.525.525v4.415a.658.658 0 0 0 1.317 0m.7-2.28a9 9 0 0 1-.7-.043V5.207h.793q.44 0 .627.185.189.185.189.616 0 .454-.212.655-.21.2-.697.2" clip-rule="evenodd"/></g><defs><clipPath id="a"><path fill="#fff" d="M0 0h14v14H0z"/></clipPath></defs></svg>