<svg xmlns="http://www.w3.org/2000/svg" width="16" height="16" fill="none"><g clip-path="url(#a)"><path fill="#1A1C1F" fill-rule="evenodd" d="M12.876 1.498c.898 0 1.626.728 1.626 1.626v9.752c0 .898-.728 1.626-1.626 1.626H3.124a1.625 1.625 0 0 1-1.626-1.626V3.124c0-.898.728-1.626 1.626-1.626zm0 1.626H3.124v9.752h9.752zM8.29 5.007q1.054 0 1.612.485.556.484.557 1.411 0 .953-.579 1.45-.525.453-1.494.494a8 8 0 0 1-1.125-.058v1.499a.693.693 0 1 1-1.386 0V5.616c0-.308.244-.634.61-.61zm-.11 1.012h-.92v1.838q.338.05.809.05.552 0 .795-.23.242-.23.242-.74c0-.282-.052-.544-.216-.706-.177-.162-.429-.212-.71-.212" clip-rule="evenodd"/></g><defs><clipPath id="a"><path fill="#fff" d="M0 0h16v16H0z"/></clipPath></defs></svg>