<svg xmlns="http://www.w3.org/2000/svg" width="12" height="12" fill="none"><g clip-path="url(#a)"><path fill="#1A1C1F" fill-rule="evenodd" d="M9.6 1.2a1.2 1.2 0 0 1 1.2 1.2v7.2a1.2 1.2 0 0 1-1.2 1.2H2.4a1.2 1.2 0 0 1-1.2-1.2V2.4a1.2 1.2 0 0 1 1.2-1.2zM5.48 7.836V6.564q.37.048.699.048.87 0 1.327-.39.455-.39.455-1.135 0-.72-.439-1.102-.438-.383-1.264-.383H4.801a.45.45 0 0 0-.45.45v3.784a.564.564 0 0 0 1.128 0m.6-1.954a7 7 0 0 1-.6-.037V4.463h.68q.376 0 .537.159.162.158.162.528 0 .39-.182.56-.18.172-.597.172" clip-rule="evenodd"/></g><defs><clipPath id="a"><path fill="#fff" d="M0 0h12v12H0z"/></clipPath></defs></svg>