<svg xmlns="http://www.w3.org/2000/svg" width="20" height="20" fill="none"><g clip-path="url(#a)"><path fill="#1A1C1F" fill-rule="evenodd" d="M16 2a2 2 0 0 1 2 2v12a2 2 0 0 1-2 2H4a2 2 0 0 1-2-2V4a2 2 0 0 1 2-2zM9.132 13.06v-2.12q.618.08 1.166.08 1.452 0 2.211-.65.76-.648.76-1.892 0-1.198-.732-1.837-.732-.638-2.107-.638H8.001a.75.75 0 0 0-.75.75v6.307a.94.94 0 0 0 1.881 0m1.001-3.256c-.205 0-.892-.042-1-.063V7.439h1.132q.63 0 .897.264.27.264.27.88 0 .649-.303.935-.303.285-.996.286" clip-rule="evenodd"/></g><defs><clipPath id="a"><path fill="#fff" d="M0 0h20v20H0z"/></clipPath></defs></svg>