<svg xmlns="http://www.w3.org/2000/svg" width="14" height="14" fill="none"><g clip-path="url(#a)"><path fill="#1A1C1F" fill-rule="evenodd" d="M11.308 1.256c.793 0 1.436.643 1.436 1.436v8.616c0 .793-.643 1.436-1.436 1.436H2.692a1.436 1.436 0 0 1-1.436-1.436V2.692c0-.793.643-1.436 1.436-1.436zm0 1.436H2.692v8.616h8.616zM7.256 4.356q.932 0 1.424.428t.492 1.247q0 .842-.511 1.281-.465.4-1.32.436a7 7 0 0 1-.994-.05V9.02a.612.612 0 1 1-1.224 0V4.894c0-.272.215-.56.538-.538q.797-.003 1.595 0m-.098.894h-.81v1.624q.296.045.713.044.488 0 .702-.203.214-.202.214-.654c0-.249-.046-.48-.191-.623-.156-.144-.379-.188-.628-.188" clip-rule="evenodd"/></g><defs><clipPath id="a"><path fill="#fff" d="M0 0h14v14H0z"/></clipPath></defs></svg>