<svg xmlns="http://www.w3.org/2000/svg" width="32" height="32" fill="none"><g clip-path="url(#a)"><path fill="#1A1C1F" fill-rule="evenodd" d="M27 2a3 3 0 0 1 3 3v22a3 3 0 0 1-3 3H5a3 3 0 0 1-3-3V5a3 3 0 0 1 3-3zm0 2H5a1 1 0 0 0-.993.883L4 5v22a1 1 0 0 0 .883.993L5 28h22a1 1 0 0 0 .993-.883L28 27V5a1 1 0 0 0-.883-.993zM16.886 8.46q2.42 0 3.68 1.08t1.26 3.24q0 2.22-1.31 3.35-1.228 1.059-3.573 1.126-1.563.043-2.677-.14v4.524a1.36 1.36 0 0 1-1.36 1.36c-.707 0-1.36-.524-1.36-1.36q-.003-5.84 0-11.68c0-.78.603-1.5 1.5-1.5zm-2.62 2v4.759q1.062.12 2.14.121 1.42 0 2.05-.58t.63-1.9q0-1.183-.455-1.744c-.303-.374-1.063-.655-1.925-.656a709 709 0 0 0-2.44 0" clip-rule="evenodd"/></g><defs><clipPath id="a"><path fill="#fff" d="M0 0h32v32H0z"/></clipPath></defs></svg>