<svg xmlns="http://www.w3.org/2000/svg" width="20" height="20" fill="none"><g clip-path="url(#a)"><path fill="#1A1C1F" fill-rule="evenodd" d="M16 2a2 2 0 0 1 2 2v12a2 2 0 0 1-2 2H4a2 2 0 0 1-2-2V4a2 2 0 0 1 2-2zm0 2H4v12h12zm-5.643 2.317q1.297 0 1.983.596.685.597.685 1.737 0 1.173-.711 1.785-.647.556-1.839.607-.891.003-1.384-.07v1.843a.853.853 0 0 1-1.706 0V7.067c0-.38.3-.78.75-.75q1.11-.003 2.222 0m-.136 1.245H9.09v2.263q.414.06.994.06.68 0 .978-.282.298-.283.298-.91c0-.347-.064-.67-.267-.87-.217-.2-.526-.26-.873-.26" clip-rule="evenodd"/></g><defs><clipPath id="a"><path fill="#fff" d="M0 0h20v20H0z"/></clipPath></defs></svg>