<svg xmlns="http://www.w3.org/2000/svg" width="28" height="28" fill="none"><g clip-path="url(#a)"><path fill="#1A1C1F" fill-rule="evenodd" d="M23.625 1.75a2.625 2.625 0 0 1 2.625 2.625v19.25a2.625 2.625 0 0 1-2.625 2.625H4.375a2.625 2.625 0 0 1-2.625-2.625V4.375A2.625 2.625 0 0 1 4.375 1.75zm0 1.75H4.375a.875.875 0 0 0-.87.773l-.005.102v19.25c0 .449.338.819.773.87l.102.005h19.25a.875.875 0 0 0 .87-.773l.005-.102V4.375a.875.875 0 0 0-.773-.87zm-8.85 3.903q2.118 0 3.22.945t1.103 2.834q0 1.943-1.147 2.932-1.074.927-3.126.985-1.367.038-2.342-.123v3.959a1.19 1.19 0 0 1-1.19 1.19c-.619 0-1.19-.459-1.19-1.19q-.003-5.11 0-10.22c0-.682.527-1.312 1.312-1.312zm-2.293 1.75v4.164q.93.105 1.873.105 1.242 0 1.794-.507.55-.507.551-1.662 0-1.034-.398-1.526c-.265-.328-.93-.573-1.684-.575z" clip-rule="evenodd"/></g><defs><clipPath id="a"><path fill="#fff" d="M0 0h28v28H0z"/></clipPath></defs></svg>