<svg xmlns="http://www.w3.org/2000/svg" width="32" height="32" fill="none"><path fill="#1A1C1F" fill-rule="evenodd" d="M5.333 2.079c-1.338.035-1.386.046-2.019.476-.591.401-.948.895-1.215 1.681l-.126.369V27.41l.159.435c.384 1.053.97 1.642 2.005 2.017l.455.165h22.816l.455-.165c1.035-.375 1.621-.964 2.005-2.017l.159-.435V4.592l-.167-.459c-.304-.842-.808-1.43-1.548-1.805l-.398-.202-1.144-.048c-1.235-.051-19.46-.05-21.437.001m22.173 2.094c.127.083.278.245.346.374l.121.226v22.524l-.16.229a1.4 1.4 0 0 1-.347.338c-.186.109-.194.109-11.466.109-10.64 0-11.29-.005-11.451-.093a1.2 1.2 0 0 1-.318-.287c-.143-.187-.149-.223-.191-1.107-.025-.502-.037-5.605-.029-11.339L4.027 4.72l.146-.225c.224-.344.391-.41 1.134-.446.352-.018 5.44-.03 11.306-.027l10.667.005zM12.853 8.531c-.468.04-.77.207-1.009.559-.313.461-.295.074-.312 6.685-.015 5.916-.013 6.101.087 6.326.459 1.038 1.746 1.19 2.398.282.249-.346.27-.589.273-3.176l.003-2.099.12.032c.289.078 1.73.15 2.414.12 1.321-.059 2.383-.309 3.104-.732.497-.292 1.179-1.013 1.414-1.495.359-.739.417-1.05.418-2.272.001-1.066-.001-1.085-.164-1.573-.188-.563-.336-.838-.642-1.191-.814-.941-1.786-1.365-3.357-1.465-.858-.054-4.12-.055-4.747-.001m3.867 1.972c.667.035.919.069 1.154.159.859.327 1.163.88 1.176 2.138.016 1.448-.438 2.134-1.61 2.432-.383.097-1.902.126-2.707.051l-.44-.041v-4.789l.787.003c.433.002 1.171.023 1.64.047"/></svg>