<svg xmlns="http://www.w3.org/2000/svg" width="16" height="16" fill="none"><g clip-path="url(#a)"><path fill="#1A1C1F" fill-rule="evenodd" d="M12.8 1.6a1.6 1.6 0 0 1 1.6 1.6v9.6a1.6 1.6 0 0 1-1.6 1.6H3.2a1.6 1.6 0 0 1-1.6-1.6V3.2a1.6 1.6 0 0 1 1.6-1.6zm-5.494 8.848V8.752q.494.063.933.064 1.162 0 1.768-.52.608-.519.608-1.513 0-.96-.585-1.47t-1.686-.51H6.401a.6.6 0 0 0-.6.6v5.045a.752.752 0 1 0 1.505 0m.8-2.605c-.164 0-.714-.033-.8-.05V5.95h.906q.504 0 .718.211.215.212.215.704 0 .52-.242.748-.242.23-.796.23" clip-rule="evenodd"/></g><defs><clipPath id="a"><path fill="#fff" d="M0 0h16v16H0z"/></clipPath></defs></svg>