<svg xmlns="http://www.w3.org/2000/svg" width="24" height="24" fill="none"><g clip-path="url(#a)"><path fill="#1A1C1F" fill-rule="evenodd" d="M19.5 2A2.5 2.5 0 0 1 22 4.5v15a2.5 2.5 0 0 1-2.5 2.5h-15A2.5 2.5 0 0 1 2 19.5v-15A2.5 2.5 0 0 1 4.5 2zm0 2q-7.5-.005-15 0a.5.5 0 0 0-.5.5q-.005 7.5 0 15c0 .245.205.5.5.5q7.5.005 15 0c.245 0 .5-.2.5-.5q.005-7.5 0-15a.5.5 0 0 0-.5-.5m-8.493 4.405v3.166q1.11.082 1.4.082.951 0 1.372-.385.42-.384.42-1.28 0-.76-.288-1.132-.41-.451-1.121-.446zm1.764-1.54q1.708 0 2.61.777.904.777.904 2.303 0 1.554-.938 2.36c-.577.495-1.484.804-2.758.804q-.61.016-1.582-.099v2.983a1.05 1.05 0 0 1-2.1 0V7.865c0-.513.414-.998 1-1q1.432-.003 2.864 0" clip-rule="evenodd"/></g><defs><clipPath id="a"><path fill="#fff" d="M0 0h24v24H0z"/></clipPath></defs></svg>