<svg xmlns="http://www.w3.org/2000/svg" width="20" height="20" fill="none"><path fill="#1A1C1F" fill-rule="evenodd" d="M4.5 2.032c-1.004.019-1.019.02-1.222.107a2.15 2.15 0 0 0-1.18 1.265l-.081.246v12.7l.081.246a2.13 2.13 0 0 0 1.306 1.306l.246.081h12.7l.246-.081a2.13 2.13 0 0 0 1.306-1.306l.081-.246V3.65l-.081-.246a2.15 2.15 0 0 0-1.252-1.29c-.141-.051-.332-.064-1.233-.083-1.235-.028-9.412-.026-10.917.001m6.2 4.002c.827.05 1.269.191 1.726.548.39.305.665.735.762 1.192.075.355.047 1.335-.046 1.593-.331.918-.936 1.389-2.042 1.589-.348.062-1.299.073-1.708.019l-.225-.03-.015.103c-.009.056-.022.592-.029 1.191l-.014 1.089-.086.147c-.407.695-1.311.688-1.666-.014l-.09-.179V6.546l.096-.152c.156-.245.302-.336.582-.362.372-.035 2.182-.033 2.755.002M9.134 8.52c0 .603.009 1.128.019 1.167.018.065.048.071.458.088.614.026 1.104-.014 1.28-.103.336-.172.502-.481.533-.989.04-.669-.205-1.091-.687-1.182a10 10 0 0 0-.89-.056l-.714-.022z"/></svg>