<svg xmlns="http://www.w3.org/2000/svg" width="12" height="12" fill="none"><g clip-path="url(#a)"><path fill="#1A1C1F" fill-rule="evenodd" d="M9.692 1.077c.68 0 1.231.55 1.231 1.23v7.385c0 .68-.551 1.231-1.23 1.231H2.307a1.23 1.23 0 0 1-1.231-1.23V2.307c0-.68.55-1.231 1.23-1.231zm0 1.23H2.308v7.385h7.384zM6.22 3.735q.798 0 1.22.367.422.366.422 1.069 0 .72-.438 1.097-.399.343-1.132.374a6 6 0 0 1-.852-.043v1.134a.525.525 0 1 1-1.05 0V4.195c0-.234.185-.48.462-.461q.684-.003 1.368 0m-.084.766H5.44v1.392q.255.037.612.037.42 0 .602-.174.184-.173.184-.56c0-.213-.04-.412-.164-.534-.134-.123-.325-.161-.538-.161" clip-rule="evenodd"/></g><defs><clipPath id="a"><path fill="#fff" d="M0 0h12v12H0z"/></clipPath></defs></svg>