<svg xmlns="http://www.w3.org/2000/svg" width="32" height="32" fill="none"><path fill="#1A1C1F" fill-rule="evenodd" d="m6.369 2.078-1.178.029-.449.222c-.725.36-1.261.957-1.585 1.767l-.144.357V8c0 3.299.007 3.572.1 3.908.184.667.735 1.325 1.437 1.714.69.381.448.363 5.197.391l4.28.026V28h-2.242c-2.486 0-2.317-.023-2.733.368-.236.222-.33.508-.279.848.045.298.408.678.71.742.108.023 2.575.041 5.481.039 5.181-.002 5.287-.005 5.465-.109.242-.141.518-.51.563-.751.068-.362-.206-.863-.559-1.022-.165-.074-.497-.089-2.286-.105l-2.094-.019V14.029l3.827-.015L23.707 14l.46-.221c.379-.182.578-.33 1.113-.827.871-.809 3.123-3.158 3.316-3.459.467-.727.523-1.791.142-2.706-.151-.362-.248-.481-1.27-1.551-1.761-1.845-2.673-2.695-3.145-2.931l-.397-.198-1.176-.034c-1.404-.041-14.698-.037-16.381.005m17.156 2.091c.129.092.951.879 1.826 1.747l1.59 1.579.03.325c.052.579.047.586-1.606 2.236-.824.823-1.616 1.591-1.76 1.707l-.262.21h-8.858c-8.602 0-8.863-.003-9.007-.101a1.3 1.3 0 0 1-.294-.346l-.144-.246V7.973c0-3.229.003-3.311.109-3.491.174-.297.403-.398.984-.432.279-.017 4.253-.035 8.832-.04L23.291 4z"/></svg>