<svg xmlns="http://www.w3.org/2000/svg" width="32" height="32" fill="none"><g clip-path="url(#a)"><path fill="#1A1C1F" fill-rule="evenodd" d="M23.03 2c.706 0 1.413.193 1.958.739l3.115 3.114c.61.61.9 1.344.9 2.147 0 .674-.212 1.43-.74 1.963L25.15 13.11c-.527.533-1.188.89-1.927.89H16.03v14h3.968c.546 0 1.009.459 1.009 1.005 0 .513-.496.995-1.01.995H9.748c-.577 0-1-.417-1-.995 0-.482.487-1.005 1-1.005h4.26V14h-8.01c-1.605 0-3-1.243-3-2.816V4.986c0-1.573 1.395-2.986 3-2.986zm.128 2H5.998c-.546 0-.977.376-.977.858v6.133c0 .514.353 1.009.867 1.009H23.03c.192 0 .481-.078.674-.27l3.018-3.019a.97.97 0 0 0 .29-.706c0-.225-.047-.498-.193-.643L23.704 4.28c-.161-.16-.353-.28-.546-.28" clip-rule="evenodd"/></g><defs><clipPath id="a"><path fill="#fff" d="M0 0h32v32H0z"/></clipPath></defs></svg>