<svg xmlns="http://www.w3.org/2000/svg" width="24" height="24" fill="none"><g clip-path="url(#a)"><path fill="#1A1C1F" fill-rule="evenodd" d="M16.556 2.5c.684 0 1.306.218 1.772.685l2.769 2.679c.466.436.653 1.028.653 1.62 0 .53-.187 1.152-.653 1.588l-2.769 2.679q-.746.748-1.772.749H12.25v7h3.033c.528 0 .964.474.964.941 0 .623-.436 1.059-.964 1.059H6.946c-.53 0-.934-.436-.934-1.059 0-.467.405-.941.934-.941h3.298l.006-7H4.832c-1.462 0-2.582-1.123-2.582-2.556V5.023C2.25 3.62 3.37 2.5 4.832 2.5zm-.156 2H5.205c-.622 0-.933.305-.933.897V9.57c0 .592.31.935.933.935H16.4c.498 0 .84-.125 1.15-.467l1.867-1.9c.218-.218.333-.436.333-.686 0-.218-.115-.436-.333-.654l-1.866-1.837c-.342-.343-.653-.461-1.15-.461" clip-rule="evenodd"/></g><defs><clipPath id="a"><path fill="#fff" d="M0 0h24v24H0z"/></clipPath></defs></svg>