<svg xmlns="http://www.w3.org/2000/svg" width="12" height="12" fill="none"><g clip-path="url(#a)"><path fill="#1A1C1F" fill-rule="evenodd" d="M8.079 1.077c.384 0 .823.192 1.054.48l1.25 1.731c.211.25.307.577.307.866 0 .308-.096.596-.307.865L9.13 6.711c-.27.347-.614.52-1.056.52H6.233v2.461H8.06c.346 0 .634.27.634.616 0 .327-.23.615-.634.615H3.156a.62.62 0 0 1-.616-.615c0-.346.27-.616.616-.616h1.846V7.231H2.694c-.769 0-1.384-.616-1.384-1.366V2.481c0-.77.615-1.404 1.384-1.404zm-.004 1.23H2.54V6h5.535L9.46 4.154z" clip-rule="evenodd"/></g><defs><clipPath id="a"><path fill="#fff" d="M0 0h12v12H0z"/></clipPath></defs></svg>