<svg xmlns="http://www.w3.org/2000/svg" width="14" height="14" fill="none"><g clip-path="url(#a)"><path fill="#1A1C1F" fill-rule="evenodd" d="M9.425 1.256c.449 0 .96.225 1.23.561l1.458 2.02c.247.291.36.673.36 1.01 0 .358-.113.695-.36 1.009l-1.46 1.974a1.48 1.48 0 0 1-1.232.606H7.27v2.872h2.132c.404 0 .74.314.74.718 0 .381-.269.718-.74.718H3.682a.723.723 0 0 1-.718-.718c0-.404.314-.718.718-.718h2.154V8.436H3.143a1.604 1.604 0 0 1-1.615-1.593V2.894c0-.897.718-1.638 1.615-1.638zm-.004 1.436H2.964V7H9.42l1.615-2.154z" clip-rule="evenodd"/></g><defs><clipPath id="a"><path fill="#fff" d="M0 0h14v14H0z"/></clipPath></defs></svg>