<svg xmlns="http://www.w3.org/2000/svg" width="28" height="28" fill="none"><g clip-path="url(#a)"><path fill="#1A1C1F" fill-rule="evenodd" d="M20.151 1.75c.618 0 1.236.169 1.714.646l2.725 2.726c.534.533.787 1.176.787 1.878 0 .59-.185 1.252-.646 1.718l-2.726 2.753c-.461.466-1.04.779-1.685.779h-6.294V24.5h3.472c.478 0 .883.401.883.879 0 .45-.433.871-.883.871H8.529c-.505 0-.875-.365-.875-.871 0-.421.426-.879.875-.879h3.727V12.25H5.248c-1.405 0-2.625-1.088-2.625-2.464V4.363c0-1.377 1.22-2.613 2.625-2.613zm.113 1.75H5.248c-.478 0-.855.33-.855.75v5.367c0 .45.31.883.759.883h15a.9.9 0 0 0 .59-.237l2.64-2.64a.85.85 0 0 0 .253-.619c0-.197-.04-.435-.169-.562l-2.725-2.697c-.141-.14-.309-.245-.477-.245" clip-rule="evenodd"/></g><defs><clipPath id="a"><path fill="#fff" d="M0 0h28v28H0z"/></clipPath></defs></svg>