<svg xmlns="http://www.w3.org/2000/svg" width="16" height="16" fill="none"><g clip-path="url(#a)"><path fill="#1A1C1F" fill-rule="evenodd" d="M10.745 1.498c.508 0 1.087.254 1.392.635l1.651 2.286c.28.33.406.762.406 1.143a1.8 1.8 0 0 1-.406 1.143L12.135 8.94c-.356.457-.81.685-1.395.685H8.307v3.251h2.413c.457 0 .838.356.838.813 0 .432-.305.813-.838.813H4.244a.82.82 0 0 1-.813-.813c0-.457.356-.813.813-.813h2.438v-3.25H3.634a1.816 1.816 0 0 1-1.828-1.804v-4.47c0-1.016.812-1.854 1.828-1.854zm-.005 1.626H3.431V8h7.31l1.828-2.438z" clip-rule="evenodd"/></g><defs><clipPath id="a"><path fill="#fff" d="M0 0h16v16H0z"/></clipPath></defs></svg>