<svg xmlns="http://www.w3.org/2000/svg" width="14" height="14" fill="none"><g clip-path="url(#a)"><path fill="#1A1C1F" fill-rule="evenodd" d="M7 1.256a5.744 5.744 0 1 1 0 11.488A5.744 5.744 0 0 1 7 1.256m0 1.436a4.308 4.308 0 1 0 0 8.616 4.308 4.308 0 0 0 0-8.616M5.355 4.39c.299 0 .584.234.585.585q.003.76 0 1.519h2.118V4.975a.585.585 0 0 1 1.17 0q.003 2.025 0 4.05a.585.585 0 1 1-1.17 0V7.378H5.94v1.647a.585.585 0 1 1-1.17 0v-4.05c0-.298.287-.585.585-.585" clip-rule="evenodd"/></g><defs><clipPath id="a"><path fill="#fff" d="M0 0h14v14H0z"/></clipPath></defs></svg>