<svg xmlns="http://www.w3.org/2000/svg" width="32" height="32" fill="none"><path fill="#1A1C1F" fill-rule="evenodd" d="M13.787 2.192c-1.409.222-2.552.589-3.894 1.248-1.487.732-2.524 1.463-3.699 2.61-1.727 1.686-2.898 3.625-3.605 5.97a15 15 0 0 0-.506 2.445c-.096.884-.071 2.633.05 3.455.377 2.563 1.387 4.888 2.984 6.868.466.579 1.489 1.609 2.051 2.066a14.3 14.3 0 0 0 6.752 2.989c.857.132 2.741.162 3.642.057 3.124-.363 5.919-1.683 8.138-3.844.836-.815 1.383-1.468 1.987-2.373 1.193-1.785 1.999-4.05 2.236-6.283.082-.769.036-2.726-.081-3.453-.51-3.171-1.849-5.774-4.088-7.95a13.5 13.5 0 0 0-3.571-2.527c-1.349-.669-2.828-1.131-4.199-1.311-.911-.119-3.353-.101-4.197.033m2.71 1.861c.581.028 1.277.089 1.546.135 2.745.467 5.348 1.976 7.174 4.159 1.171 1.399 2.082 3.269 2.489 5.11.219.992.254 1.443.226 2.863-.025 1.293-.044 1.464-.279 2.48-.27 1.17-.961 2.754-1.663 3.813-1.23 1.857-3.03 3.399-4.999 4.282-2.831 1.271-5.78 1.444-8.666.51a11.7 11.7 0 0 1-4.664-2.816c-1.082-1.054-1.789-2.038-2.459-3.426-.846-1.75-1.148-3.108-1.148-5.163 0-2.075.306-3.436 1.169-5.2.679-1.387 1.405-2.394 2.463-3.417.978-.945 1.878-1.567 3.151-2.18 1.251-.602 2.415-.943 3.723-1.092.74-.084.824-.094.853-.102.015-.004.502.016 1.084.044M10.96 8.545c-.408.146-.827.538-.942.883-.051.153-.071 1.616-.085 6.316-.018 6.08-.017 6.119.092 6.332.155.304.404.572.687.737.212.125.301.143.701.143.402 0 .489-.018.704-.144.275-.161.472-.374.646-.699.115-.217.117-.257.133-2.82l.015-2.6h6.176l.016 2.6.017 2.6.125.254c.21.427.718.774 1.205.824.589.061 1.153-.247 1.472-.804l.157-.274v-6.148c.001-6.148.001-6.149-.111-6.374a1.64 1.64 0 0 0-.715-.721c-.219-.116-.337-.141-.666-.141-.469 0-.83.155-1.112.476-.362.413-.352.334-.37 3.028l-.017 2.44h-6.171l-.018-2.44-.019-2.44-.146-.248c-.386-.657-1.161-.998-1.774-.78"/></svg>