<svg xmlns="http://www.w3.org/2000/svg" width="16" height="16" fill="none"><g clip-path="url(#a)"><path fill="#1A1C1F" fill-rule="evenodd" d="M8 1.498a6.502 6.502 0 1 1 0 13.004A6.502 6.502 0 0 1 8 1.498m0 1.626a4.876 4.876 0 1 0 0 9.752 4.876 4.876 0 0 0 0-9.752M6.138 5.046a.66.66 0 0 1 .663.662v1.72h2.397v-1.72a.662.662 0 0 1 1.325 0q.003 2.292 0 4.584a.662.662 0 1 1-1.325 0V8.427H6.801v1.865a.662.662 0 1 1-1.325 0V5.708c0-.337.325-.662.662-.662" clip-rule="evenodd"/></g><defs><clipPath id="a"><path fill="#fff" d="M0 0h16v16H0z"/></clipPath></defs></svg>