<svg xmlns="http://www.w3.org/2000/svg" width="32" height="32" fill="none"><g clip-path="url(#a)"><path fill="#1A1C1F" fill-rule="evenodd" d="M16 2c7.732 0 14 6.268 14 14s-6.268 14-14 14S2 23.732 2 16 8.268 2 16 2m0 2C9.373 4 4 9.373 4 16s5.373 12 12 12 12-5.373 12-12S22.627 4 16 4m4.59 4.46c.78 0 1.5.642 1.5 1.5V21.5a1.5 1.5 0 0 1-1.5 1.5c-.78 0-1.5-.647-1.5-1.5v-4.82h-6.18v4.82a1.5 1.5 0 0 1-1.5 1.5c-.78 0-1.5-.64-1.5-1.5V9.96c0-.78.666-1.5 1.5-1.5s1.5.792 1.5 1.5v4.46h6.18V9.96a1.5 1.5 0 0 1 1.5-1.5" clip-rule="evenodd"/></g><defs><clipPath id="a"><path fill="#fff" d="M0 0h32v32H0z"/></clipPath></defs></svg>