<svg xmlns="http://www.w3.org/2000/svg" width="12" height="12" fill="none"><g clip-path="url(#a)"><path fill="#1A1C1F" fill-rule="evenodd" d="M6 1.077a4.923 4.923 0 1 1 0 9.846 4.923 4.923 0 0 1 0-9.846m0 1.23a3.692 3.692 0 1 0 0 7.385 3.692 3.692 0 0 0 0-7.384M4.59 3.764c.256 0 .5.2.502.502v1.301h1.815V4.265a.502.502 0 0 1 1.003 0q.003 1.734 0 3.47a.502.502 0 0 1-1.003 0V6.324H5.092v1.411a.502.502 0 1 1-1.003 0v-3.47c0-.256.246-.502.501-.502" clip-rule="evenodd"/></g><defs><clipPath id="a"><path fill="#fff" d="M0 0h12v12H0z"/></clipPath></defs></svg>