<svg xmlns="http://www.w3.org/2000/svg" width="24" height="24" fill="none"><g clip-path="url(#a)"><path fill="#1A1C1F" fill-rule="evenodd" d="M12 2c5.523 0 10 4.477 10 10s-4.477 10-10 10S2 17.523 2 12 6.477 2 12 2m0 2a8 8 0 1 0 0 16 8 8 0 0 0 0-16M8.837 6.865l.117.007a1 1 0 0 1 .876.877l.007.116v3.172h4.326V7.865a1 1 0 0 1 .883-.993l.117-.007h.1a1 1 0 0 1 .993.884l.007.116v8.178a1 1 0 0 1-.883.994l-.117.006h-.1a1 1 0 0 1-.993-.883l-.007-.117V12.62H9.837v3.424a1 1 0 0 1-.883.994l-.117.006h-.1a1 1 0 0 1-.993-.883l-.007-.117V7.865a1 1 0 0 1 .883-.993l.117-.007z" clip-rule="evenodd"/></g><defs><clipPath id="a"><path fill="#fff" d="M0 0h24v24H0z"/></clipPath></defs></svg>