<svg xmlns="http://www.w3.org/2000/svg" width="20" height="20" fill="none"><path fill="#1A1C1F" fill-rule="evenodd" d="M9.15 2.054c-.907.11-1.672.32-2.452.675a7.93 7.93 0 0 0-3.186 2.604 7.95 7.95 0 0 0-1.496 5.034 8 8 0 0 0 2.333 5.284c1.184 1.184 2.694 1.955 4.407 2.252.609.105 1.899.105 2.494 0 1.709-.303 3.231-1.079 4.383-2.236a7.7 7.7 0 0 0 1.517-2.117 7.4 7.4 0 0 0 .617-1.664c.172-.68.211-1.034.209-1.936-.002-.812-.035-1.114-.192-1.771-.206-.859-.648-1.886-1.111-2.579a8.03 8.03 0 0 0-5.095-3.432c-.687-.139-1.79-.19-2.428-.114M7.845 6.088c.193.098.373.269.47.447l.096.177.016 1.244.016 1.244h3.113l.019-1.25c.021-1.397.021-1.394.274-1.655.172-.176.328-.241.621-.255.414-.021.68.133.877.507l.086.163v6.572l-.09.179c-.29.573-.989.71-1.446.283-.306-.286-.3-.252-.322-1.794l-.019-1.35H8.444l-.02 1.351c-.019 1.293-.023 1.358-.091 1.5-.146.302-.529.549-.852.549-.32 0-.666-.226-.824-.539l-.09-.179V6.731l.087-.174c.142-.284.342-.452.629-.528.139-.036.435-.005.562.059"/></svg>