<svg xmlns="http://www.w3.org/2000/svg" width="28" height="28" fill="none"><g clip-path="url(#a)"><path fill="#1A1C1F" fill-rule="evenodd" d="M14 1.75c6.765 0 12.25 5.485 12.25 12.25S20.765 26.25 14 26.25 1.75 20.765 1.75 14 7.235 1.75 14 1.75m0 1.75C8.201 3.5 3.5 8.201 3.5 14S8.201 24.5 14 24.5 24.5 19.799 24.5 14 19.799 3.5 14 3.5m4.016 3.903c.683 0 1.313.561 1.313 1.312v10.098c0 .724-.588 1.312-1.313 1.312-.682 0-1.312-.566-1.312-1.312v-4.218h-5.408v4.217c0 .725-.587 1.313-1.312 1.313-.682 0-1.313-.56-1.313-1.312V8.715c0-.682.583-1.312 1.313-1.312s1.312.692 1.312 1.312v3.903h5.408V8.715c0-.725.587-1.312 1.312-1.312" clip-rule="evenodd"/></g><defs><clipPath id="a"><path fill="#fff" d="M0 0h28v28H0z"/></clipPath></defs></svg>